0, 0, Header, 1, 5, 960
1, 0, Start_track
1, 0, Title_t, "We Will Meet Again"
1, 0, Text_t, "Bill Evans.\012"
1, 0, Text_t, "played in real time - minimal editing.\012"
1, 0, Text_t, "Another beautiful waltz by Bill Evans. Very simple. Lots of versions around - Fred Hersch (with Toots Theilemans) on his 'Evanessence' CD and with words on Tierney Suttons 'Blue in Green' CD.\012"
1, 0, Time_signature, 3, 2, 24, 8
1, 0, Key_signature, -3, "major"
1, 0, Tempo, 461538
1, 0, Marker_t, "Begins as a 'Round' - parts enter after each 3 bars. Track one is the Vocal part."
1, 322560, Tempo, 474383
1, 325440, Tempo, 491803
1, 328320, Tempo, 521921
1, 331200, Tempo, 583658
1, 334080, Tempo, 666667
1, 336960, Tempo, 746269
1, 339840, Tempo, 825083
1, 342720, Tempo, 1572327
1, 345600, Tempo, 1572327
1, 351360, Tempo, 1685393
1, 354240, Tempo, 1546392
1, 357120, Tempo, 1599147
1, 357120, End_track
2, 0, Start_track
2, 0, Title_t, "Melody"
2, 0, Control_c, 2, 0, 0
2, 0, Control_c, 2, 32, 0
2, 0, Program_c, 2, 75
2, 0, Control_c, 2, 7, 101
2, 0, Note_on_c, 2, 67, 70
2, 56, Control_c, 2, 64, 127
2, 640, Note_on_c, 2, 67, 0
2, 920, Control_c, 2, 64, 0
2, 1089, Note_on_c, 2, 72, 34
2, 1969, Note_on_c, 2, 74, 71
2, 2109, Note_on_c, 2, 72, 0
2, 2862, Note_on_c, 2, 74, 0
2, 2934, Note_on_c, 2, 75, 56
2, 3452, Note_on_c, 2, 75, 0
2, 3569, Note_on_c, 2, 75, 72
2, 3933, Note_on_c, 2, 75, 0
2, 3937, Note_on_c, 2, 77, 68
2, 4717, Note_on_c, 2, 77, 0
2, 4896, Note_on_c, 2, 79, 69
2, 5784, Note_on_c, 2, 79, 0
2, 5894, Note_on_c, 2, 68, 26
2, 7733, Note_on_c, 2, 78, 53
2, 7764, Note_on_c, 2, 68, 0
2, 7895, Note_on_c, 2, 79, 49
2, 8035, Note_on_c, 2, 78, 0
2, 8625, Note_on_c, 2, 79, 0
2, 8711, Note_on_c, 2, 78, 62
2, 8896, Note_on_c, 2, 79, 56
2, 8968, Note_on_c, 2, 78, 0
2, 9721, Note_on_c, 2, 79, 0
2, 9748, Note_on_c, 2, 77, 55
2, 11602, Note_on_c, 2, 68, 39
2, 11733, Note_on_c, 2, 77, 0
2, 13436, Note_on_c, 2, 68, 0
2, 13499, Note_on_c, 2, 79, 78
2, 14381, Note_on_c, 2, 79, 0
2, 14528, Note_on_c, 2, 79, 72
2, 15970, Note_on_c, 2, 79, 0
2, 16045, Note_on_c, 2, 77, 66
2, 16777, Note_on_c, 2, 67, 64
2, 17205, Note_on_c, 2, 67, 0
2, 17388, Note_on_c, 2, 67, 58
2, 17392, Note_on_c, 2, 77, 0
2, 19133, Note_on_c, 2, 67, 0
2, 19163, Note_on_c, 2, 77, 64
2, 19990, Note_on_c, 2, 77, 0
2, 20176, Note_on_c, 2, 77, 58
2, 21180, Note_on_c, 2, 75, 43
2, 21240, Note_on_c, 2, 77, 0
2, 23063, Note_on_c, 2, 65, 50
2, 23310, Note_on_c, 2, 75, 0
2, 24828, Note_on_c, 2, 65, 0
2, 24928, Note_on_c, 2, 75, 84
2, 25315, Note_on_c, 2, 75, 0
2, 25490, Note_on_c, 2, 75, 84
2, 25856, Note_on_c, 2, 75, 0
2, 26010, Note_on_c, 2, 75, 75
2, 26871, Note_on_c, 2, 75, 0
2, 26936, Note_on_c, 2, 74, 61
2, 28882, Note_on_c, 2, 74, 0
2, 28889, Note_on_c, 2, 63, 45
2, 30754, Note_on_c, 2, 63, 0
2, 30854, Note_on_c, 2, 74, 72
2, 31378, Note_on_c, 2, 73, 36
2, 31387, Note_on_c, 2, 74, 0
2, 31819, Note_on_c, 2, 73, 0
2, 31855, Note_on_c, 2, 74, 66
2, 32728, Note_on_c, 2, 74, 0
2, 32791, Note_on_c, 2, 72, 40
2, 34613, Note_on_c, 2, 72, 0
2, 34634, Note_on_c, 2, 62, 91
2, 36316, Note_on_c, 2, 62, 0
2, 36589, Note_on_c, 2, 72, 75
2, 36657, Note_on_c, 2, 71, 26
2, 36739, Note_on_c, 2, 71, 0
2, 37390, Note_on_c, 2, 72, 0
2, 37525, Note_on_c, 2, 72, 68
2, 38438, Note_on_c, 2, 72, 0
2, 38446, Note_on_c, 2, 70, 55
2, 40179, Note_on_c, 2, 70, 0
2, 40364, Note_on_c, 2, 68, 86
2, 40830, Note_on_c, 2, 68, 0
2, 40959, Note_on_c, 2, 68, 62
2, 41308, Note_on_c, 2, 68, 0
2, 41475, Note_on_c, 2, 68, 46
2, 41889, Note_on_c, 2, 68, 0
2, 41951, Note_on_c, 2, 70, 60
2, 42350, Note_on_c, 2, 70, 0
2, 42417, Note_on_c, 2, 68, 45
2, 43074, Note_on_c, 2, 68, 0
2, 43280, Note_on_c, 2, 68, 52
2, 44216, Note_on_c, 2, 68, 0
2, 44241, Note_on_c, 2, 67, 59
2, 45119, Note_on_c, 2, 67, 0
2, 45204, Note_on_c, 2, 79, 49
2, 50004, Note_on_c, 2, 79, 0
2, 50004, End_track
3, 0, Start_track
3, 0, Title_t, "Piano"
3, 0, Program_c, 0, 0
3, 0, Control_c, 0, 7, 99
3, 8650, Note_on_c, 0, 67, 29
3, 9611, Note_on_c, 0, 67, 0
3, 9649, Note_on_c, 0, 72, 24
3, 10608, Note_on_c, 0, 74, 51
3, 10618, Note_on_c, 0, 72, 0
3, 11533, Note_on_c, 0, 74, 0
3, 11583, Note_on_c, 0, 75, 42
3, 12480, Note_on_c, 0, 77, 57
3, 12540, Note_on_c, 0, 75, 0
3, 13434, Note_on_c, 0, 79, 55
3, 13517, Note_on_c, 0, 77, 0
3, 14393, Note_on_c, 0, 68, 48
3, 14474, Note_on_c, 0, 79, 0
3, 16344, Note_on_c, 0, 79, 71
3, 17110, Note_on_c, 0, 79, 0
3, 17284, Note_on_c, 0, 79, 63
3, 17376, Note_on_c, 0, 68, 0
3, 18181, Note_on_c, 0, 77, 57
3, 18291, Note_on_c, 0, 79, 0
3, 20063, Note_on_c, 0, 68, 57
3, 20240, Note_on_c, 0, 77, 0
3, 22006, Note_on_c, 0, 79, 74
3, 22771, Note_on_c, 0, 79, 0
3, 22973, Note_on_c, 0, 79, 67
3, 23127, Note_on_c, 0, 68, 0
3, 23922, Note_on_c, 0, 79, 0
3, 23940, Note_on_c, 0, 77, 55
3, 25877, Note_on_c, 0, 67, 55
3, 25941, Note_on_c, 0, 77, 0
3, 27932, Note_on_c, 0, 77, 81
3, 28712, Note_on_c, 0, 77, 0
3, 28895, Note_on_c, 0, 77, 67
3, 29704, Note_on_c, 0, 67, 0
3, 29731, Note_on_c, 0, 77, 0
3, 29787, Note_on_c, 0, 75, 60
3, 31678, Note_on_c, 0, 75, 0
3, 31728, Note_on_c, 0, 65, 54
3, 33621, Note_on_c, 0, 75, 69
3, 33852, Note_on_c, 0, 65, 0
3, 34268, Note_on_c, 0, 75, 0
3, 34580, Note_on_c, 0, 75, 66
3, 35376, Note_on_c, 0, 75, 0
3, 35468, Note_on_c, 0, 74, 57
3, 37215, Note_on_c, 0, 74, 0
3, 37346, Note_on_c, 0, 63, 40
3, 39388, Note_on_c, 0, 74, 66
3, 39492, Note_on_c, 0, 63, 0
3, 40089, Note_on_c, 0, 74, 0
3, 40381, Note_on_c, 0, 74, 60
3, 41250, Note_on_c, 0, 72, 42
3, 41348, Note_on_c, 0, 74, 0
3, 43983, Note_on_c, 0, 72, 0
3, 44106, Note_on_c, 0, 68, 60
3, 44697, Note_on_c, 0, 66, 51
3, 44761, Note_on_c, 0, 68, 0
3, 45000, Note_on_c, 0, 66, 0
3, 45165, Note_on_c, 0, 67, 53
3, 46275, Note_on_c, 0, 67, 0
3, 46724, Note_on_c, 0, 67, 66
3, 46814, Note_on_c, 0, 67, 0
3, 47035, Note_on_c, 0, 72, 70
3, 47106, Note_on_c, 0, 72, 0
3, 47659, Note_on_c, 0, 74, 122
3, 47784, Note_on_c, 0, 74, 0
3, 47997, Note_on_c, 0, 75, 107
3, 48232, Note_on_c, 0, 75, 0
3, 48608, Note_on_c, 0, 77, 89
3, 48825, Note_on_c, 0, 77, 0
3, 48973, Note_on_c, 0, 75, 68
3, 49862, Note_on_c, 0, 75, 0
3, 49941, Note_on_c, 0, 67, 45
3, 51299, Note_on_c, 0, 67, 0
3, 51527, Note_on_c, 0, 72, 96
3, 51859, Note_on_c, 0, 60, 44
3, 51882, Note_on_c, 0, 63, 24
3, 51891, Note_on_c, 0, 53, 40
3, 51901, Note_on_c, 0, 72, 0
3, 51909, Note_on_c, 0, 56, 29
3, 51966, Note_on_c, 0, 68, 41
3, 52805, Note_on_c, 0, 68, 0
3, 53628, Note_on_c, 0, 63, 0
3, 53668, Note_on_c, 0, 53, 0
3, 53746, Note_on_c, 0, 60, 0
3, 53846, Note_on_c, 0, 56, 0
3, 54213, Note_on_c, 0, 91, 103
3, 54459, Note_on_c, 0, 90, 92
3, 54493, Note_on_c, 0, 91, 0
3, 54646, Note_on_c, 0, 90, 0
3, 54740, Note_on_c, 0, 91, 107
3, 55320, Note_on_c, 0, 89, 80
3, 55386, Note_on_c, 0, 91, 0
3, 55418, Note_on_c, 0, 60, 41
3, 55433, Note_on_c, 0, 56, 36
3, 55445, Note_on_c, 0, 51, 23
3, 55541, Note_on_c, 0, 89, 0
3, 56005, Note_on_c, 0, 89, 70
3, 56197, Note_on_c, 0, 89, 0
3, 56649, Note_on_c, 0, 89, 74
3, 56782, Note_on_c, 0, 89, 0
3, 57106, Note_on_c, 0, 51, 0
3, 57107, Note_on_c, 0, 60, 0
3, 57250, Note_on_c, 0, 56, 0
3, 57307, Note_on_c, 0, 89, 80
3, 57512, Note_on_c, 0, 56, 37
3, 57514, Note_on_c, 0, 60, 42
3, 57523, Note_on_c, 0, 50, 41
3, 57573, Note_on_c, 0, 89, 0
3, 57853, Note_on_c, 0, 89, 67
3, 58518, Note_on_c, 0, 89, 0
3, 59078, Note_on_c, 0, 89, 80
3, 59259, Note_on_c, 0, 90, 72
3, 59311, Note_on_c, 0, 89, 0
3, 59354, Note_on_c, 0, 91, 96
3, 59367, Note_on_c, 0, 50, 0
3, 59416, Note_on_c, 0, 90, 0
3, 59435, Note_on_c, 0, 56, 0
3, 59445, Note_on_c, 0, 60, 0
3, 59498, Note_on_c, 0, 91, 0
3, 59566, Note_on_c, 0, 92, 107
3, 59966, Note_on_c, 0, 92, 0
3, 60122, Note_on_c, 0, 92, 107
3, 60380, Note_on_c, 0, 92, 0
3, 60611, Note_on_c, 0, 92, 103
3, 60794, Note_on_c, 0, 92, 0
3, 60821, Note_on_c, 0, 91, 72
3, 61044, Note_on_c, 0, 91, 0
3, 61472, Note_on_c, 0, 59, 53
3, 61477, Note_on_c, 0, 63, 32
3, 61496, Note_on_c, 0, 53, 46
3, 61496, Note_on_c, 0, 91, 51
3, 61497, Note_on_c, 0, 89, 66
3, 61555, Note_on_c, 0, 91, 0
3, 62517, Note_on_c, 0, 59, 0
3, 62645, Note_on_c, 0, 63, 0
3, 62664, Note_on_c, 0, 53, 0
3, 62800, Note_on_c, 0, 87, 80
3, 62837, Note_on_c, 0, 89, 0
3, 62989, Note_on_c, 0, 87, 0
3, 63093, Note_on_c, 0, 86, 92
3, 63295, Note_on_c, 0, 86, 0
3, 63389, Note_on_c, 0, 89, 83
3, 63402, Note_on_c, 0, 51, 38
3, 63416, Note_on_c, 0, 57, 55
3, 63423, Note_on_c, 0, 62, 36
3, 63563, Note_on_c, 0, 89, 0
3, 63723, Note_on_c, 0, 87, 61
3, 63909, Note_on_c, 0, 87, 0
3, 64026, Note_on_c, 0, 79, 49
3, 64326, Note_on_c, 0, 79, 0
3, 64381, Note_on_c, 0, 86, 83
3, 64715, Note_on_c, 0, 86, 0
3, 64966, Note_on_c, 0, 84, 77
3, 65132, Note_on_c, 0, 84, 0
3, 65321, Note_on_c, 0, 75, 50
3, 66196, Note_on_c, 0, 57, 0
3, 66197, Note_on_c, 0, 75, 0
3, 66278, Note_on_c, 0, 74, 57
3, 66346, Note_on_c, 0, 51, 0
3, 67023, Note_on_c, 0, 62, 0
3, 68005, Note_on_c, 0, 74, 0
3, 68683, Note_on_c, 0, 89, 96
3, 68694, Note_on_c, 0, 84, 106
3, 68900, Note_on_c, 0, 89, 0
3, 68937, Note_on_c, 0, 87, 63
3, 69065, Note_on_c, 0, 84, 0
3, 69143, Note_on_c, 0, 80, 10
3, 69237, Note_on_c, 0, 80, 0
3, 69247, Note_on_c, 0, 63, 25
3, 69253, Note_on_c, 0, 60, 49
3, 69255, Note_on_c, 0, 87, 0
3, 69275, Note_on_c, 0, 56, 41
3, 69325, Note_on_c, 0, 89, 75
3, 69333, Note_on_c, 0, 84, 71
3, 69565, Note_on_c, 0, 89, 0
3, 69637, Note_on_c, 0, 87, 57
3, 69653, Note_on_c, 0, 84, 0
3, 69686, Note_on_c, 0, 80, 38
3, 69846, Note_on_c, 0, 80, 0
3, 69925, Note_on_c, 0, 87, 0
3, 69963, Note_on_c, 0, 89, 62
3, 69967, Note_on_c, 0, 84, 66
3, 70164, Note_on_c, 0, 89, 0
3, 70266, Note_on_c, 0, 84, 0
3, 70298, Note_on_c, 0, 87, 45
3, 70308, Note_on_c, 0, 80, 33
3, 70509, Note_on_c, 0, 80, 0
3, 70545, Note_on_c, 0, 87, 0
3, 70603, Note_on_c, 0, 89, 67
3, 70633, Note_on_c, 0, 84, 50
3, 70804, Note_on_c, 0, 89, 0
3, 70884, Note_on_c, 0, 84, 0
3, 70925, Note_on_c, 0, 87, 50
3, 70932, Note_on_c, 0, 80, 37
3, 71114, Note_on_c, 0, 80, 0
3, 71175, Note_on_c, 0, 87, 0
3, 71204, Note_on_c, 0, 60, 0
3, 71237, Note_on_c, 0, 89, 71
3, 71271, Note_on_c, 0, 84, 49
3, 71293, Note_on_c, 0, 63, 0
3, 71413, Note_on_c, 0, 89, 0
3, 71555, Note_on_c, 0, 87, 54
3, 71619, Note_on_c, 0, 84, 0
3, 71671, Note_on_c, 0, 80, 24
3, 71749, Note_on_c, 0, 80, 0
3, 71786, Note_on_c, 0, 56, 0
3, 71823, Note_on_c, 0, 87, 0
3, 73546, Note_on_c, 0, 63, 87
3, 73547, Note_on_c, 0, 87, 106
3, 73557, Note_on_c, 0, 59, 80
3, 73557, Note_on_c, 0, 82, 96
3, 73557, Note_on_c, 0, 53, 81
3, 73560, Note_on_c, 0, 75, 105
3, 73786, Note_on_c, 0, 87, 0
3, 73820, Note_on_c, 0, 53, 0
3, 73829, Note_on_c, 0, 63, 0
3, 73829, Note_on_c, 0, 75, 0
3, 73853, Note_on_c, 0, 82, 0
3, 73929, Note_on_c, 0, 59, 0
3, 74023, Note_on_c, 0, 85, 50
3, 74029, Note_on_c, 0, 73, 63
3, 74037, Note_on_c, 0, 59, 48
3, 74041, Note_on_c, 0, 63, 74
3, 74055, Note_on_c, 0, 53, 77
3, 74069, Note_on_c, 0, 86, 89
3, 74183, Note_on_c, 0, 85, 0
3, 74280, Note_on_c, 0, 74, 53
3, 74341, Note_on_c, 0, 73, 0
3, 74437, Note_on_c, 0, 59, 0
3, 74597, Note_on_c, 0, 53, 0
3, 74636, Note_on_c, 0, 63, 0
3, 74663, Note_on_c, 0, 74, 0
3, 74669, Note_on_c, 0, 86, 0
3, 74984, Note_on_c, 0, 62, 63
3, 74986, Note_on_c, 0, 86, 75
3, 74989, Note_on_c, 0, 74, 68
3, 74997, Note_on_c, 0, 57, 66
3, 75000, Note_on_c, 0, 51, 42
3, 76613, Control_c, 0, 64, 127
3, 77283, Control_c, 0, 64, 0
3, 77352, Note_on_c, 0, 86, 0
3, 77387, Note_on_c, 0, 82, 92
3, 77674, Note_on_c, 0, 74, 0
3, 77701, Control_c, 0, 64, 127
3, 77703, Note_on_c, 0, 82, 0
3, 77821, Note_on_c, 0, 82, 71
3, 77940, Note_on_c, 0, 57, 0
3, 78092, Note_on_c, 0, 51, 0
3, 78138, Note_on_c, 0, 62, 0
3, 78311, Note_on_c, 0, 82, 0
3, 78327, Note_on_c, 0, 86, 83
3, 78371, Note_on_c, 0, 79, 68
3, 78515, Note_on_c, 0, 79, 0
3, 78637, Note_on_c, 0, 86, 0
3, 78664, Control_c, 0, 64, 0
3, 78732, Note_on_c, 0, 62, 51
3, 78735, Note_on_c, 0, 84, 74
3, 78759, Note_on_c, 0, 58, 57
3, 78799, Note_on_c, 0, 79, 61
3, 78984, Control_c, 0, 64, 127
3, 79685, Note_on_c, 0, 74, 66
3, 79732, Note_on_c, 0, 62, 0
3, 79786, Note_on_c, 0, 58, 0
3, 79801, Note_on_c, 0, 79, 0
3, 79861, Note_on_c, 0, 84, 0
3, 80059, Note_on_c, 0, 74, 0
3, 80622, Note_on_c, 0, 74, 62
3, 80637, Control_c, 0, 64, 0
3, 80638, Note_on_c, 0, 67, 51
3, 80645, Note_on_c, 0, 63, 32
3, 80648, Note_on_c, 0, 72, 44
3, 80661, Note_on_c, 0, 60, 36
3, 80693, Note_on_c, 0, 55, 49
3, 81101, Control_c, 0, 64, 127
3, 81391, Control_c, 0, 64, 0
3, 81535, Control_c, 0, 64, 127
3, 81937, Note_on_c, 0, 67, 0
3, 82166, Note_on_c, 0, 72, 0
3, 82214, Note_on_c, 0, 74, 0
3, 82255, Note_on_c, 0, 67, 62
3, 82383, Note_on_c, 0, 67, 0
3, 82468, Control_c, 0, 64, 0
3, 82602, Note_on_c, 0, 72, 93
3, 82803, Note_on_c, 0, 72, 0
3, 82835, Control_c, 0, 64, 127
3, 82901, Note_on_c, 0, 74, 114
3, 83048, Note_on_c, 0, 55, 0
3, 83050, Note_on_c, 0, 63, 0
3, 83125, Note_on_c, 0, 74, 0
3, 83213, Note_on_c, 0, 75, 103
3, 83264, Note_on_c, 0, 60, 0
3, 83559, Note_on_c, 0, 75, 0
3, 83581, Note_on_c, 0, 54, 37
3, 83594, Note_on_c, 0, 72, 74
3, 83605, Control_c, 0, 64, 0
3, 83610, Note_on_c, 0, 65, 38
3, 83624, Note_on_c, 0, 60, 46
3, 84098, Control_c, 0, 64, 127
3, 84596, Note_on_c, 0, 70, 62
3, 84597, Note_on_c, 0, 72, 0
3, 85543, Note_on_c, 0, 65, 0
3, 85603, Note_on_c, 0, 60, 0
3, 85725, Note_on_c, 0, 54, 0
3, 85940, Note_on_c, 0, 70, 0
3, 87446, Note_on_c, 0, 67, 122
3, 87450, Note_on_c, 0, 55, 64
3, 87454, Control_c, 0, 64, 0
3, 87462, Note_on_c, 0, 61, 54
3, 87481, Note_on_c, 0, 65, 50
3, 87487, Note_on_c, 0, 56, 58
3, 87677, Note_on_c, 0, 67, 0
3, 87693, Note_on_c, 0, 65, 0
3, 87717, Note_on_c, 0, 68, 59
3, 87915, Note_on_c, 0, 68, 0
3, 87915, Note_on_c, 0, 67, 57
3, 88091, Note_on_c, 0, 67, 0
3, 88151, Note_on_c, 0, 65, 55
3, 88274, Note_on_c, 0, 65, 0
3, 88417, Note_on_c, 0, 67, 94
3, 88816, Control_c, 0, 64, 127
3, 89280, Note_on_c, 0, 55, 0
3, 89320, Note_on_c, 0, 61, 0
3, 89365, Note_on_c, 0, 56, 0
3, 89927, Note_on_c, 0, 64, 49
3, 89948, Note_on_c, 0, 53, 45
3, 89949, Note_on_c, 0, 59, 50
3, 90101, Control_c, 0, 64, 0
3, 90580, Note_on_c, 0, 67, 0
3, 90623, Note_on_c, 0, 68, 80
3, 90836, Note_on_c, 0, 68, 0
3, 90908, Note_on_c, 0, 70, 88
3, 91084, Note_on_c, 0, 70, 0
3, 91208, Note_on_c, 0, 71, 63
3, 91253, Control_c, 0, 64, 127
3, 91349, Note_on_c, 0, 64, 0
3, 91403, Note_on_c, 0, 71, 0
3, 91411, Note_on_c, 0, 59, 0
3, 91539, Note_on_c, 0, 74, 83
3, 91546, Note_on_c, 0, 53, 0
3, 91557, Control_c, 0, 64, 0
3, 91677, Note_on_c, 0, 74, 0
3, 91701, Control_c, 0, 64, 127
3, 91836, Note_on_c, 0, 79, 113
3, 92091, Note_on_c, 0, 79, 0
3, 92167, Control_c, 0, 64, 0
3, 92195, Note_on_c, 0, 74, 66
3, 92208, Note_on_c, 0, 62, 54
3, 92216, Note_on_c, 0, 57, 61
3, 92232, Note_on_c, 0, 51, 37
3, 92964, Note_on_c, 0, 74, 0
3, 93104, Note_on_c, 0, 74, 59
3, 93630, Note_on_c, 0, 74, 0
3, 93798, Note_on_c, 0, 74, 89
3, 94038, Note_on_c, 0, 74, 0
3, 94170, Note_on_c, 0, 74, 113
3, 94173, Control_c, 0, 64, 127
3, 94598, Note_on_c, 0, 74, 0
3, 94699, Note_on_c, 0, 75, 113
3, 94847, Note_on_c, 0, 57, 0
3, 94927, Note_on_c, 0, 75, 0
3, 95005, Control_c, 0, 64, 0
3, 95007, Note_on_c, 0, 51, 0
3, 95012, Note_on_c, 0, 62, 0
3, 95063, Note_on_c, 0, 77, 119
3, 95361, Control_c, 0, 64, 127
3, 95407, Control_c, 0, 64, 0
3, 95521, Control_c, 0, 64, 127
3, 95776, Note_on_c, 0, 74, 33
3, 95781, Note_on_c, 0, 77, 0
3, 95914, Note_on_c, 0, 74, 0
3, 95941, Control_c, 0, 64, 0
3, 96043, Note_on_c, 0, 75, 59
3, 96246, Control_c, 0, 64, 127
3, 96310, Control_c, 0, 64, 0
3, 96406, Control_c, 0, 64, 127
3, 96710, Note_on_c, 0, 67, 55
3, 96726, Control_c, 0, 64, 0
3, 96737, Note_on_c, 0, 64, 41
3, 96795, Note_on_c, 0, 58, 35
3, 96902, Control_c, 0, 64, 127
3, 97140, Note_on_c, 0, 64, 0
3, 97348, Note_on_c, 0, 58, 0
3, 97588, Note_on_c, 0, 67, 0
3, 97860, Note_on_c, 0, 75, 0
3, 97980, Note_on_c, 0, 60, 44
3, 97981, Note_on_c, 0, 80, 45
3, 97989, Note_on_c, 0, 68, 32
3, 97989, Control_c, 0, 64, 0
3, 97991, Note_on_c, 0, 63, 25
3, 98004, Note_on_c, 0, 53, 31
3, 98023, Note_on_c, 0, 56, 36
3, 98358, Control_c, 0, 64, 127
3, 98813, Note_on_c, 0, 68, 0
3, 98951, Note_on_c, 0, 80, 0
3, 99649, Note_on_c, 0, 60, 0
3, 99662, Note_on_c, 0, 53, 0
3, 99700, Note_on_c, 0, 56, 0
3, 99700, Note_on_c, 0, 63, 0
3, 100412, Control_c, 0, 64, 0
3, 100470, Note_on_c, 0, 91, 118
3, 100471, Note_on_c, 0, 84, 115
3, 100476, Note_on_c, 0, 79, 101
3, 100478, Note_on_c, 0, 87, 87
3, 100486, Note_on_c, 0, 60, 85
3, 100492, Note_on_c, 0, 56, 74
3, 100494, Note_on_c, 0, 53, 93
3, 100497, Note_on_c, 0, 64, 101
3, 100777, Note_on_c, 0, 84, 0
3, 100796, Note_on_c, 0, 79, 0
3, 100806, Note_on_c, 0, 87, 0
3, 100838, Note_on_c, 0, 53, 0
3, 100844, Note_on_c, 0, 91, 0
3, 100844, Note_on_c, 0, 64, 0
3, 100903, Note_on_c, 0, 56, 0
3, 100911, Note_on_c, 0, 60, 0
3, 100940, Control_c, 0, 64, 127
3, 101015, Note_on_c, 0, 91, 88
3, 101030, Note_on_c, 0, 79, 85
3, 101030, Note_on_c, 0, 87, 89
3, 101039, Note_on_c, 0, 84, 93
3, 101049, Note_on_c, 0, 53, 88
3, 101050, Note_on_c, 0, 56, 57
3, 101054, Note_on_c, 0, 64, 89
3, 101055, Note_on_c, 0, 60, 87
3, 101428, Note_on_c, 0, 79, 0
3, 101430, Note_on_c, 0, 84, 0
3, 101452, Note_on_c, 0, 91, 0
3, 101508, Note_on_c, 0, 87, 0
3, 101540, Note_on_c, 0, 64, 0
3, 101548, Note_on_c, 0, 53, 0
3, 101605, Note_on_c, 0, 56, 0
3, 101657, Note_on_c, 0, 60, 0
3, 101717, Control_c, 0, 64, 0
3, 101785, Note_on_c, 0, 60, 92
3, 101788, Note_on_c, 0, 63, 97
3, 101797, Note_on_c, 0, 94, 110
3, 101797, Note_on_c, 0, 56, 74
3, 101802, Note_on_c, 0, 53, 93
3, 101805, Note_on_c, 0, 82, 101
3, 101821, Note_on_c, 0, 87, 92
3, 101877, Note_on_c, 0, 87, 0
3, 102049, Control_c, 0, 64, 127
3, 102273, Note_on_c, 0, 94, 0
3, 102293, Note_on_c, 0, 53, 0
3, 102309, Note_on_c, 0, 63, 0
3, 102321, Note_on_c, 0, 82, 0
3, 102337, Note_on_c, 0, 56, 0
3, 102337, Note_on_c, 0, 60, 0
3, 102455, Note_on_c, 0, 92, 76
3, 102470, Note_on_c, 0, 80, 64
3, 102470, Note_on_c, 0, 53, 57
3, 102470, Note_on_c, 0, 60, 62
3, 102471, Note_on_c, 0, 87, 74
3, 102475, Note_on_c, 0, 62, 76
3, 102489, Control_c, 0, 64, 0
3, 102491, Note_on_c, 0, 56, 48
3, 102603, Note_on_c, 0, 62, 0
3, 102662, Note_on_c, 0, 92, 0
3, 102663, Note_on_c, 0, 80, 0
3, 102678, Note_on_c, 0, 87, 0
3, 102684, Note_on_c, 0, 60, 0
3, 102710, Note_on_c, 0, 53, 0
3, 102731, Note_on_c, 0, 56, 0
3, 102921, Control_c, 0, 64, 127
3, 103066, Note_on_c, 0, 91, 83
3, 103079, Note_on_c, 0, 51, 87
3, 103079, Note_on_c, 0, 86, 87
3, 103081, Note_on_c, 0, 79, 66
3, 103101, Note_on_c, 0, 61, 50
3, 103189, Note_on_c, 0, 56, 32
3, 103334, Note_on_c, 0, 86, 0
3, 103398, Note_on_c, 0, 91, 0
3, 103514, Note_on_c, 0, 79, 0
3, 103580, Note_on_c, 0, 61, 0
3, 103606, Note_on_c, 0, 56, 0
3, 103614, Note_on_c, 0, 51, 0
3, 103691, Control_c, 0, 64, 0
3, 103738, Note_on_c, 0, 89, 51
3, 103747, Note_on_c, 0, 77, 40
3, 103755, Note_on_c, 0, 50, 58
3, 103757, Note_on_c, 0, 56, 35
3, 103768, Note_on_c, 0, 60, 45
3, 103781, Note_on_c, 0, 84, 51
3, 104122, Control_c, 0, 64, 127
3, 104554, Note_on_c, 0, 89, 0
3, 104614, Note_on_c, 0, 84, 0
3, 104638, Note_on_c, 0, 50, 0
3, 104710, Note_on_c, 0, 56, 0
3, 104718, Note_on_c, 0, 60, 0
3, 104841, Note_on_c, 0, 77, 0
3, 105321, Note_on_c, 0, 65, 79
3, 105332, Note_on_c, 0, 60, 72
3, 105346, Note_on_c, 0, 54, 49
3, 105356, Control_c, 0, 64, 0
3, 105645, Control_c, 0, 64, 127
3, 106117, Note_on_c, 0, 94, 113
3, 106240, Control_c, 0, 64, 0
3, 106403, Note_on_c, 0, 92, 98
3, 106407, Note_on_c, 0, 60, 0
3, 106418, Note_on_c, 0, 65, 0
3, 106472, Note_on_c, 0, 94, 0
3, 106662, Note_on_c, 0, 87, 93
3, 106720, Note_on_c, 0, 92, 0
3, 106744, Note_on_c, 0, 54, 0
3, 106838, Note_on_c, 0, 87, 0
3, 106910, Note_on_c, 0, 83, 63
3, 107052, Note_on_c, 0, 83, 0
3, 107148, Note_on_c, 0, 82, 50
3, 107173, Note_on_c, 0, 59, 25
3, 107191, Note_on_c, 0, 53, 38
3, 107199, Note_on_c, 0, 64, 28
3, 107364, Note_on_c, 0, 82, 0
3, 107451, Note_on_c, 0, 80, 40
3, 107607, Note_on_c, 0, 80, 0
3, 107659, Note_on_c, 0, 79, 46
3, 108401, Control_c, 0, 64, 127
3, 108601, Note_on_c, 0, 64, 0
3, 108627, Note_on_c, 0, 59, 0
3, 108741, Note_on_c, 0, 79, 0
3, 108769, Note_on_c, 0, 53, 0
3, 109110, Note_on_c, 0, 77, 96
3, 109481, Control_c, 0, 64, 0
3, 109483, Note_on_c, 0, 77, 0
3, 109527, Note_on_c, 0, 57, 49
3, 109532, Note_on_c, 0, 51, 44
3, 109548, Note_on_c, 0, 62, 38
3, 109561, Note_on_c, 0, 75, 59
3, 110500, Note_on_c, 0, 67, 53
3, 110522, Control_c, 0, 64, 127
3, 110601, Note_on_c, 0, 75, 0
3, 111558, Note_on_c, 0, 67, 0
3, 111986, Note_on_c, 0, 57, 0
3, 111986, Note_on_c, 0, 77, 119
3, 112017, Note_on_c, 0, 62, 0
3, 112096, Note_on_c, 0, 51, 0
3, 112261, Note_on_c, 0, 77, 0
3, 112464, Control_c, 0, 64, 0
3, 112518, Note_on_c, 0, 77, 84
3, 112526, Note_on_c, 0, 70, 77
3, 112572, Note_on_c, 0, 67, 59
3, 113320, Note_on_c, 0, 62, 59
3, 113331, Control_c, 0, 64, 127
3, 114032, Note_on_c, 0, 62, 0
3, 114703, Note_on_c, 0, 77, 0
3, 114716, Note_on_c, 0, 67, 0
3, 114773, Note_on_c, 0, 70, 0
3, 114837, Note_on_c, 0, 75, 67
3, 115173, Note_on_c, 0, 75, 0
3, 115201, Control_c, 0, 64, 0
3, 115217, Note_on_c, 0, 56, 33
3, 115226, Note_on_c, 0, 60, 44
3, 115237, Note_on_c, 0, 72, 31
3, 115249, Note_on_c, 0, 63, 22
3, 115249, Note_on_c, 0, 67, 41
3, 115719, Control_c, 0, 64, 127
3, 115838, Note_on_c, 0, 67, 0
3, 116009, Note_on_c, 0, 72, 0
3, 116364, Note_on_c, 0, 60, 0
3, 116399, Note_on_c, 0, 63, 0
3, 117081, Control_c, 0, 64, 0
3, 117118, Note_on_c, 0, 63, 50
3, 117126, Note_on_c, 0, 87, 118
3, 117161, Note_on_c, 0, 60, 24
3, 117372, Note_on_c, 0, 87, 0
3, 117420, Note_on_c, 0, 89, 88
3, 117546, Control_c, 0, 64, 127
3, 117620, Note_on_c, 0, 60, 0
3, 117684, Note_on_c, 0, 89, 0
3, 117764, Note_on_c, 0, 87, 100
3, 117878, Note_on_c, 0, 63, 0
3, 118042, Note_on_c, 0, 87, 0
3, 118061, Note_on_c, 0, 89, 74
3, 118201, Note_on_c, 0, 56, 0
3, 118324, Note_on_c, 0, 89, 0
3, 118364, Control_c, 0, 64, 0
3, 118392, Note_on_c, 0, 87, 83
3, 118412, Note_on_c, 0, 59, 48
3, 118414, Note_on_c, 0, 63, 25
3, 118416, Note_on_c, 0, 53, 59
3, 119107, Note_on_c, 0, 87, 0
3, 119168, Note_on_c, 0, 86, 88
3, 119214, Control_c, 0, 64, 127
3, 119310, Control_c, 0, 64, 0
3, 119487, Control_c, 0, 64, 127
3, 120004, Note_on_c, 0, 59, 0
3, 120100, Note_on_c, 0, 63, 0
3, 120212, Note_on_c, 0, 53, 0
3, 120911, Note_on_c, 0, 86, 0
3, 120949, Control_c, 0, 64, 0
3, 120983, Note_on_c, 0, 62, 49
3, 120989, Note_on_c, 0, 51, 35
3, 120997, Note_on_c, 0, 57, 49
3, 121069, Note_on_c, 0, 62, 0
3, 121071, Note_on_c, 0, 57, 0
3, 121114, Note_on_c, 0, 51, 0
3, 121620, Note_on_c, 0, 62, 67
3, 121637, Note_on_c, 0, 57, 62
3, 121644, Note_on_c, 0, 51, 32
3, 121751, Note_on_c, 0, 57, 0
3, 121759, Note_on_c, 0, 62, 0
3, 121844, Note_on_c, 0, 51, 0
3, 122075, Note_on_c, 0, 62, 64
3, 122102, Note_on_c, 0, 51, 35
3, 122119, Note_on_c, 0, 57, 53
3, 122583, Control_c, 0, 64, 127
3, 122927, Note_on_c, 0, 75, 84
3, 123041, Note_on_c, 0, 57, 0
3, 123121, Note_on_c, 0, 51, 0
3, 123143, Note_on_c, 0, 62, 0
3, 123334, Note_on_c, 0, 75, 0
3, 123420, Note_on_c, 0, 77, 83
3, 123603, Note_on_c, 0, 77, 0
3, 123689, Control_c, 0, 64, 0
3, 123852, Note_on_c, 0, 86, 127
3, 124073, Control_c, 0, 64, 127
3, 124283, Note_on_c, 0, 86, 0
3, 124356, Note_on_c, 0, 83, 85
3, 124586, Control_c, 0, 64, 0
3, 124598, Note_on_c, 0, 83, 0
3, 124724, Note_on_c, 0, 84, 107
3, 124730, Control_c, 0, 64, 127
3, 125143, Note_on_c, 0, 84, 0
3, 125227, Note_on_c, 0, 79, 83
3, 125532, Note_on_c, 0, 79, 0
3, 125615, Note_on_c, 0, 75, 64
3, 125876, Note_on_c, 0, 75, 0
3, 126150, Note_on_c, 0, 72, 38
3, 126473, Note_on_c, 0, 72, 0
3, 126625, Control_c, 0, 64, 0
3, 126629, Note_on_c, 0, 74, 63
3, 126634, Note_on_c, 0, 63, 44
3, 126652, Note_on_c, 0, 60, 33
3, 126655, Note_on_c, 0, 57, 53
3, 126703, Note_on_c, 0, 55, 51
3, 127286, Control_c, 0, 64, 127
3, 128364, Note_on_c, 0, 74, 0
3, 128777, Note_on_c, 0, 63, 0
3, 128783, Note_on_c, 0, 60, 0
3, 128809, Note_on_c, 0, 57, 0
3, 128846, Note_on_c, 0, 55, 0
3, 129233, Note_on_c, 0, 84, 123
3, 129481, Note_on_c, 0, 84, 0
3, 129591, Control_c, 0, 64, 0
3, 129626, Note_on_c, 0, 84, 85
3, 129654, Note_on_c, 0, 65, 74
3, 129670, Note_on_c, 0, 72, 74
3, 129676, Note_on_c, 0, 60, 62
3, 129686, Note_on_c, 0, 54, 42
3, 129690, Note_on_c, 0, 58, 50
3, 130072, Control_c, 0, 64, 127
3, 130583, Note_on_c, 0, 84, 0
3, 130596, Note_on_c, 0, 60, 0
3, 130668, Note_on_c, 0, 58, 0
3, 130699, Note_on_c, 0, 65, 0
3, 130724, Note_on_c, 0, 54, 0
3, 130779, Note_on_c, 0, 72, 0
3, 132022, Note_on_c, 0, 82, 54
3, 132060, Note_on_c, 0, 70, 44
3, 132128, Note_on_c, 0, 82, 0
3, 132204, Note_on_c, 0, 70, 0
3, 132476, Control_c, 0, 64, 0
3, 132502, Note_on_c, 0, 80, 66
3, 132508, Note_on_c, 0, 72, 46
3, 132516, Note_on_c, 0, 68, 44
3, 132516, Note_on_c, 0, 75, 64
3, 132532, Note_on_c, 0, 67, 63
3, 133008, Control_c, 0, 64, 127
3, 133430, Note_on_c, 0, 55, 45
3, 133612, Note_on_c, 0, 72, 0
3, 133678, Note_on_c, 0, 67, 0
3, 133830, Note_on_c, 0, 68, 0
3, 134214, Note_on_c, 0, 80, 0
3, 134350, Note_on_c, 0, 75, 0
3, 134641, Note_on_c, 0, 55, 0
3, 135586, Note_on_c, 0, 55, 51
3, 135669, Note_on_c, 0, 55, 0
3, 135744, Note_on_c, 0, 56, 59
3, 135782, Control_c, 0, 64, 0
3, 135912, Note_on_c, 0, 56, 0
3, 135931, Note_on_c, 0, 58, 67
3, 136022, Note_on_c, 0, 58, 0
3, 136072, Note_on_c, 0, 59, 66
3, 136172, Note_on_c, 0, 59, 0
3, 136223, Note_on_c, 0, 61, 81
3, 136346, Note_on_c, 0, 61, 0
3, 136887, Note_on_c, 0, 60, 42
3, 136895, Note_on_c, 0, 62, 41
3, 136958, Note_on_c, 0, 60, 0
3, 136972, Note_on_c, 0, 62, 0
3, 137044, Note_on_c, 0, 63, 77
3, 137176, Note_on_c, 0, 63, 0
3, 137252, Note_on_c, 0, 64, 72
3, 137396, Note_on_c, 0, 64, 0
3, 137829, Note_on_c, 0, 66, 100
3, 137989, Note_on_c, 0, 66, 0
3, 138103, Note_on_c, 0, 67, 87
3, 138270, Note_on_c, 0, 67, 0
3, 138329, Note_on_c, 0, 70, 79
3, 138489, Note_on_c, 0, 51, 44
3, 138503, Note_on_c, 0, 57, 44
3, 138538, Note_on_c, 0, 62, 19
3, 138553, Note_on_c, 0, 70, 0
3, 138588, Note_on_c, 0, 71, 68
3, 138761, Note_on_c, 0, 71, 0
3, 138831, Note_on_c, 0, 74, 92
3, 139014, Note_on_c, 0, 74, 0
3, 139107, Note_on_c, 0, 71, 70
3, 139235, Note_on_c, 0, 71, 0
3, 139350, Note_on_c, 0, 72, 70
3, 139529, Note_on_c, 0, 62, 0
3, 139561, Note_on_c, 0, 72, 0
3, 139611, Note_on_c, 0, 67, 70
3, 139771, Note_on_c, 0, 67, 0
3, 139844, Note_on_c, 0, 65, 57
3, 139981, Note_on_c, 0, 65, 0
3, 140118, Note_on_c, 0, 63, 42
3, 140254, Note_on_c, 0, 63, 0
3, 140312, Note_on_c, 0, 57, 0
3, 140376, Note_on_c, 0, 62, 20
3, 140569, Note_on_c, 0, 62, 0
3, 140614, Note_on_c, 0, 65, 80
3, 140822, Note_on_c, 0, 65, 0
3, 140854, Note_on_c, 0, 62, 50
3, 141046, Note_on_c, 0, 62, 0
3, 141115, Note_on_c, 0, 63, 71
3, 141353, Note_on_c, 0, 63, 0
3, 141398, Note_on_c, 0, 55, 63
3, 141775, Note_on_c, 0, 55, 0
3, 141974, Control_c, 0, 64, 127
3, 142089, Note_on_c, 0, 55, 63
3, 142457, Note_on_c, 0, 51, 0
3, 143046, Note_on_c, 0, 55, 0
3, 144027, Control_c, 0, 64, 0
3, 144044, Note_on_c, 0, 63, 29
3, 144076, Note_on_c, 0, 53, 28
3, 144078, Note_on_c, 0, 60, 42
3, 144108, Note_on_c, 0, 56, 27
3, 144164, Note_on_c, 0, 60, 0
3, 144187, Note_on_c, 0, 63, 0
3, 144203, Note_on_c, 0, 53, 0
3, 144228, Note_on_c, 0, 56, 0
3, 144668, Note_on_c, 0, 67, 64
3, 144854, Note_on_c, 0, 67, 0
3, 144971, Note_on_c, 0, 68, 57
3, 145118, Note_on_c, 0, 68, 0
3, 145292, Note_on_c, 0, 70, 66
3, 145415, Note_on_c, 0, 70, 0
3, 145591, Note_on_c, 0, 72, 71
3, 145762, Note_on_c, 0, 64, 44
3, 145800, Note_on_c, 0, 72, 0
3, 145912, Note_on_c, 0, 75, 68
3, 145958, Note_on_c, 0, 64, 0
3, 146200, Note_on_c, 0, 75, 0
3, 146232, Note_on_c, 0, 76, 66
3, 146388, Note_on_c, 0, 76, 0
3, 146550, Note_on_c, 0, 79, 103
3, 146790, Note_on_c, 0, 79, 0
3, 146870, Note_on_c, 0, 76, 57
3, 147000, Note_on_c, 0, 76, 0
3, 147208, Note_on_c, 0, 77, 46
3, 147361, Note_on_c, 0, 77, 0
3, 147495, Note_on_c, 0, 79, 87
3, 147673, Note_on_c, 0, 79, 0
3, 147722, Note_on_c, 0, 64, 36
3, 147726, Note_on_c, 0, 56, 32
3, 147734, Note_on_c, 0, 60, 35
3, 147776, Note_on_c, 0, 64, 0
3, 147805, Note_on_c, 0, 60, 0
3, 147822, Note_on_c, 0, 80, 54
3, 147890, Note_on_c, 0, 56, 0
3, 147952, Note_on_c, 0, 80, 0
3, 148162, Note_on_c, 0, 84, 75
3, 148230, Note_on_c, 0, 84, 0
3, 148454, Note_on_c, 0, 87, 97
3, 148617, Note_on_c, 0, 87, 0
3, 148769, Note_on_c, 0, 88, 118
3, 148971, Note_on_c, 0, 88, 0
3, 149083, Note_on_c, 0, 91, 114
3, 149286, Note_on_c, 0, 91, 0
3, 149398, Note_on_c, 0, 89, 97
3, 149599, Note_on_c, 0, 89, 0
3, 149665, Note_on_c, 0, 56, 32
3, 149707, Note_on_c, 0, 60, 23
3, 149727, Note_on_c, 0, 50, 25
3, 149737, Note_on_c, 0, 84, 55
3, 149848, Note_on_c, 0, 84, 0
3, 150044, Note_on_c, 0, 80, 29
3, 150303, Note_on_c, 0, 80, 0
3, 150367, Note_on_c, 0, 79, 41
3, 150548, Note_on_c, 0, 79, 0
3, 151380, Note_on_c, 0, 80, 79
3, 151502, Note_on_c, 0, 80, 0
3, 151750, Note_on_c, 0, 80, 96
3, 151878, Note_on_c, 0, 50, 0
3, 151907, Note_on_c, 0, 56, 0
3, 151910, Note_on_c, 0, 80, 0
3, 152008, Note_on_c, 0, 60, 0
3, 152067, Note_on_c, 0, 82, 83
3, 152260, Note_on_c, 0, 82, 0
3, 152379, Note_on_c, 0, 80, 92
3, 152411, Note_on_c, 0, 64, 49
3, 152420, Note_on_c, 0, 59, 68
3, 152489, Note_on_c, 0, 53, 23
3, 152596, Note_on_c, 0, 80, 0
3, 152710, Note_on_c, 0, 82, 42
3, 152949, Note_on_c, 0, 82, 0
3, 153049, Note_on_c, 0, 80, 90
3, 153270, Note_on_c, 0, 80, 0
3, 153327, Note_on_c, 0, 82, 66
3, 153452, Note_on_c, 0, 53, 0
3, 153468, Note_on_c, 0, 64, 0
3, 153566, Note_on_c, 0, 59, 0
3, 153574, Note_on_c, 0, 82, 0
3, 153641, Note_on_c, 0, 80, 83
3, 154054, Note_on_c, 0, 80, 0
3, 154267, Note_on_c, 0, 79, 66
3, 154288, Note_on_c, 0, 63, 44
3, 154294, Note_on_c, 0, 53, 53
3, 154302, Note_on_c, 0, 59, 44
3, 154902, Note_on_c, 0, 79, 0
3, 154934, Control_c, 0, 64, 127
3, 154959, Note_on_c, 0, 59, 0
3, 155046, Note_on_c, 0, 77, 85
3, 155049, Note_on_c, 0, 63, 0
3, 155094, Note_on_c, 0, 53, 0
3, 155288, Note_on_c, 0, 77, 0
3, 155340, Note_on_c, 0, 75, 81
3, 155563, Control_c, 0, 64, 0
3, 155614, Note_on_c, 0, 51, 40
3, 155646, Note_on_c, 0, 75, 0
3, 155660, Note_on_c, 0, 74, 64
3, 155667, Note_on_c, 0, 57, 51
3, 155671, Note_on_c, 0, 62, 28
3, 155812, Note_on_c, 0, 62, 0
3, 155827, Note_on_c, 0, 57, 0
3, 155891, Note_on_c, 0, 51, 0
3, 155907, Note_on_c, 0, 74, 0
3, 155958, Note_on_c, 0, 77, 74
3, 156172, Note_on_c, 0, 77, 0
3, 156270, Note_on_c, 0, 74, 74
3, 157208, Note_on_c, 0, 62, 61
3, 157241, Note_on_c, 0, 57, 48
3, 157292, Note_on_c, 0, 62, 0
3, 157316, Note_on_c, 0, 57, 0
3, 158091, Note_on_c, 0, 74, 0
3, 158142, Note_on_c, 0, 77, 89
3, 158281, Control_c, 0, 64, 127
3, 158393, Control_c, 0, 64, 0
3, 158429, Note_on_c, 0, 77, 0
3, 158493, Note_on_c, 0, 74, 77
3, 158502, Note_on_c, 0, 67, 44
3, 158526, Note_on_c, 0, 60, 44
3, 158539, Note_on_c, 0, 63, 36
3, 158542, Note_on_c, 0, 58, 42
3, 158683, Note_on_c, 0, 74, 0
3, 158765, Note_on_c, 0, 77, 53
3, 159020, Note_on_c, 0, 77, 0
3, 159084, Note_on_c, 0, 74, 79
3, 159421, Control_c, 0, 64, 127
3, 159520, Note_on_c, 0, 60, 0
3, 159553, Note_on_c, 0, 67, 0
3, 159670, Note_on_c, 0, 63, 0
3, 159673, Note_on_c, 0, 58, 0
3, 160017, Note_on_c, 0, 67, 54
3, 160025, Note_on_c, 0, 58, 44
3, 160038, Note_on_c, 0, 63, 42
3, 160134, Note_on_c, 0, 67, 0
3, 160223, Note_on_c, 0, 63, 0
3, 160274, Note_on_c, 0, 58, 0
3, 161176, Note_on_c, 0, 74, 0
3, 161264, Control_c, 0, 64, 0
3, 161294, Note_on_c, 0, 60, 42
3, 161296, Note_on_c, 0, 63, 22
3, 161302, Note_on_c, 0, 56, 33
3, 161817, Control_c, 0, 64, 127
3, 161835, Note_on_c, 0, 75, 76
3, 162205, Note_on_c, 0, 75, 0
3, 162232, Control_c, 0, 64, 0
3, 162232, Note_on_c, 0, 84, 107
3, 162567, Note_on_c, 0, 75, 51
3, 162647, Control_c, 0, 64, 127
3, 162806, Note_on_c, 0, 84, 0
3, 162846, Note_on_c, 0, 75, 0
3, 162921, Note_on_c, 0, 82, 92
3, 162966, Control_c, 0, 64, 0
3, 163253, Control_c, 0, 64, 127
3, 163255, Note_on_c, 0, 82, 0
3, 163288, Note_on_c, 0, 75, 40
3, 163431, Note_on_c, 0, 63, 0
3, 163546, Note_on_c, 0, 75, 0
3, 163595, Note_on_c, 0, 87, 110
3, 163919, Note_on_c, 0, 60, 0
3, 163957, Note_on_c, 0, 75, 37
3, 163973, Note_on_c, 0, 87, 0
3, 164075, Note_on_c, 0, 56, 0
3, 164198, Control_c, 0, 64, 0
3, 164374, Control_c, 0, 64, 127
3, 164381, Note_on_c, 0, 75, 0
3, 164632, Control_c, 0, 64, 0
3, 164751, Note_on_c, 0, 59, 62
3, 164789, Note_on_c, 0, 63, 32
3, 164805, Note_on_c, 0, 53, 37
3, 165462, Note_on_c, 0, 87, 114
3, 165704, Note_on_c, 0, 87, 0
3, 165779, Note_on_c, 0, 85, 77
3, 165866, Note_on_c, 0, 63, 0
3, 165870, Note_on_c, 0, 59, 0
3, 165894, Note_on_c, 0, 53, 0
3, 165979, Note_on_c, 0, 85, 0
3, 166124, Note_on_c, 0, 86, 118
3, 166182, Note_on_c, 0, 85, 59
3, 166235, Note_on_c, 0, 85, 0
3, 166352, Note_on_c, 0, 86, 0
3, 166444, Note_on_c, 0, 83, 83
3, 166645, Note_on_c, 0, 83, 0
3, 166775, Note_on_c, 0, 84, 109
3, 166808, Note_on_c, 0, 57, 74
3, 166810, Note_on_c, 0, 62, 72
3, 166811, Note_on_c, 0, 51, 45
3, 167062, Note_on_c, 0, 84, 0
3, 167093, Note_on_c, 0, 79, 59
3, 167357, Note_on_c, 0, 79, 0
3, 167448, Note_on_c, 0, 77, 64
3, 167712, Note_on_c, 0, 77, 0
3, 168114, Note_on_c, 0, 74, 66
3, 168341, Note_on_c, 0, 74, 0
3, 168395, Note_on_c, 0, 77, 103
3, 168666, Note_on_c, 0, 77, 0
3, 168711, Note_on_c, 0, 62, 0
3, 168730, Note_on_c, 0, 75, 79
3, 168986, Note_on_c, 0, 75, 0
3, 169045, Note_on_c, 0, 57, 0
3, 169194, Note_on_c, 0, 51, 0
3, 169475, Control_c, 0, 64, 127
3, 169635, Note_on_c, 0, 67, 63
3, 169779, Control_c, 0, 64, 0
3, 169867, Note_on_c, 0, 67, 0
3, 169977, Note_on_c, 0, 74, 85
3, 170442, Note_on_c, 0, 74, 0
3, 170549, Note_on_c, 0, 72, 49
3, 170732, Note_on_c, 0, 46, 37
3, 170892, Note_on_c, 0, 72, 0
3, 170896, Note_on_c, 0, 55, 1
3, 170990, Note_on_c, 0, 63, 19
3, 171128, Control_c, 0, 64, 127
3, 171392, Note_on_c, 0, 46, 0
3, 171449, Note_on_c, 0, 63, 0
3, 171467, Note_on_c, 0, 55, 0
3, 171780, Note_on_c, 0, 63, 63
3, 171823, Note_on_c, 0, 46, 32
3, 172016, Note_on_c, 0, 63, 0
3, 172094, Note_on_c, 0, 46, 0
3, 172731, Control_c, 0, 64, 0
3, 172774, Note_on_c, 0, 55, 42
3, 172793, Note_on_c, 0, 60, 37
3, 172830, Note_on_c, 0, 45, 45
3, 173052, Control_c, 0, 64, 127
3, 173126, Note_on_c, 0, 55, 0
3, 173399, Note_on_c, 0, 60, 0
3, 173403, Note_on_c, 0, 45, 0
3, 175169, Control_c, 0, 64, 0
3, 175240, Note_on_c, 0, 77, 101
3, 175242, Note_on_c, 0, 84, 101
3, 175253, Note_on_c, 0, 81, 92
3, 175253, Note_on_c, 0, 72, 89
3, 175253, Note_on_c, 0, 61, 87
3, 175253, Note_on_c, 0, 60, 92
3, 175264, Note_on_c, 0, 65, 93
3, 175274, Note_on_c, 0, 55, 93
3, 175420, Note_on_c, 0, 72, 0
3, 175444, Control_c, 0, 64, 127
3, 175447, Note_on_c, 0, 77, 0
3, 175482, Note_on_c, 0, 81, 0
3, 175508, Note_on_c, 0, 84, 0
3, 175524, Note_on_c, 0, 60, 0
3, 175525, Note_on_c, 0, 65, 0
3, 175573, Note_on_c, 0, 55, 0
3, 175645, Note_on_c, 0, 61, 0
3, 175803, Control_c, 0, 64, 0
3, 175824, Note_on_c, 0, 89, 103
3, 175832, Note_on_c, 0, 77, 103
3, 175838, Note_on_c, 0, 84, 103
3, 175851, Note_on_c, 0, 54, 84
3, 175851, Note_on_c, 0, 65, 92
3, 175853, Note_on_c, 0, 60, 92
3, 175856, Note_on_c, 0, 58, 79
3, 175894, Note_on_c, 0, 64, 51
3, 175947, Note_on_c, 0, 64, 0
3, 176345, Control_c, 0, 64, 127
3, 176364, Note_on_c, 0, 84, 0
3, 176372, Note_on_c, 0, 89, 0
3, 176372, Note_on_c, 0, 77, 0
3, 176387, Note_on_c, 0, 65, 0
3, 176388, Note_on_c, 0, 54, 0
3, 176403, Note_on_c, 0, 60, 0
3, 176454, Note_on_c, 0, 58, 0
3, 176492, Control_c, 0, 64, 0
3, 176572, Note_on_c, 0, 54, 66
3, 176575, Note_on_c, 0, 89, 85
3, 176576, Note_on_c, 0, 65, 88
3, 176581, Note_on_c, 0, 77, 87
3, 176583, Note_on_c, 0, 84, 90
3, 176592, Note_on_c, 0, 58, 50
3, 176599, Note_on_c, 0, 60, 68
3, 176964, Control_c, 0, 64, 127
3, 177099, Note_on_c, 0, 65, 0
3, 177100, Note_on_c, 0, 84, 0
3, 177113, Note_on_c, 0, 89, 0
3, 177126, Note_on_c, 0, 60, 0
3, 177128, Note_on_c, 0, 54, 0
3, 177132, Note_on_c, 0, 77, 0
3, 177158, Note_on_c, 0, 58, 0
3, 177300, Control_c, 0, 64, 0
3, 177335, Note_on_c, 0, 89, 66
3, 177341, Note_on_c, 0, 54, 50
3, 177343, Note_on_c, 0, 65, 66
3, 177364, Note_on_c, 0, 77, 49
3, 177364, Note_on_c, 0, 84, 70
3, 177380, Note_on_c, 0, 58, 48
3, 177389, Note_on_c, 0, 60, 63
3, 177428, Control_c, 0, 64, 127
3, 177588, Note_on_c, 0, 84, 0
3, 177607, Note_on_c, 0, 89, 0
3, 177623, Note_on_c, 0, 65, 0
3, 177631, Note_on_c, 0, 77, 0
3, 177637, Note_on_c, 0, 60, 0
3, 177684, Note_on_c, 0, 54, 0
3, 177695, Note_on_c, 0, 58, 0
3, 177973, Note_on_c, 0, 89, 70
3, 177990, Note_on_c, 0, 54, 49
3, 177995, Note_on_c, 0, 84, 75
3, 177997, Note_on_c, 0, 65, 59
3, 178005, Note_on_c, 0, 77, 61
3, 178026, Note_on_c, 0, 58, 44
3, 178037, Note_on_c, 0, 60, 57
3, 178086, Note_on_c, 0, 84, 0
3, 178106, Note_on_c, 0, 89, 0
3, 178160, Note_on_c, 0, 65, 0
3, 178181, Note_on_c, 0, 60, 0
3, 178192, Note_on_c, 0, 77, 0
3, 178239, Note_on_c, 0, 54, 0
3, 178250, Note_on_c, 0, 58, 0
3, 178546, Control_c, 0, 64, 0
3, 178602, Note_on_c, 0, 65, 77
3, 178615, Note_on_c, 0, 86, 74
3, 178617, Note_on_c, 0, 56, 51
3, 178618, Note_on_c, 0, 74, 68
3, 178620, Note_on_c, 0, 80, 63
3, 178633, Note_on_c, 0, 55, 48
3, 178649, Note_on_c, 0, 61, 58
3, 179046, Control_c, 0, 64, 127
3, 179206, Note_on_c, 0, 86, 0
3, 179276, Note_on_c, 0, 55, 0
3, 179280, Note_on_c, 0, 74, 0
3, 179305, Note_on_c, 0, 65, 0
3, 179337, Note_on_c, 0, 56, 0
3, 179353, Note_on_c, 0, 80, 0
3, 179361, Note_on_c, 0, 61, 0
3, 179463, Control_c, 0, 64, 0
3, 179511, Note_on_c, 0, 61, 44
3, 179516, Note_on_c, 0, 65, 68
3, 179519, Note_on_c, 0, 84, 71
3, 179536, Note_on_c, 0, 56, 45
3, 179540, Note_on_c, 0, 72, 44
3, 179562, Note_on_c, 0, 55, 61
3, 179562, Note_on_c, 0, 79, 54
3, 179704, Control_c, 0, 64, 127
3, 179896, Note_on_c, 0, 84, 0
3, 179958, Note_on_c, 0, 79, 0
3, 180077, Note_on_c, 0, 55, 0
3, 180109, Note_on_c, 0, 72, 0
3, 180134, Note_on_c, 0, 65, 0
3, 180166, Note_on_c, 0, 56, 0
3, 180266, Note_on_c, 0, 61, 0
3, 180394, Control_c, 0, 64, 0
3, 180461, Note_on_c, 0, 61, 37
3, 180463, Note_on_c, 0, 68, 46
3, 180464, Note_on_c, 0, 75, 61
3, 180474, Note_on_c, 0, 80, 40
3, 180479, Note_on_c, 0, 65, 64
3, 180509, Note_on_c, 0, 55, 49
3, 180528, Note_on_c, 0, 56, 40
3, 180634, Control_c, 0, 64, 127
3, 180893, Note_on_c, 0, 65, 0
3, 180906, Note_on_c, 0, 55, 0
3, 180925, Note_on_c, 0, 61, 0
3, 180982, Note_on_c, 0, 68, 0
3, 181032, Note_on_c, 0, 80, 0
3, 181071, Note_on_c, 0, 56, 0
3, 181095, Note_on_c, 0, 75, 0
3, 181340, Control_c, 0, 64, 0
3, 181443, Note_on_c, 0, 79, 45
3, 181449, Note_on_c, 0, 59, 41
3, 181455, Note_on_c, 0, 53, 44
3, 181457, Note_on_c, 0, 67, 42
3, 181457, Note_on_c, 0, 74, 50
3, 181461, Note_on_c, 0, 64, 37
3, 181675, Control_c, 0, 64, 127
3, 181717, Note_on_c, 0, 67, 0
3, 181926, Note_on_c, 0, 74, 0
3, 181997, Note_on_c, 0, 79, 0
3, 182479, Note_on_c, 0, 64, 0
3, 182544, Note_on_c, 0, 53, 0
3, 182607, Note_on_c, 0, 59, 0
3, 182979, Note_on_c, 0, 63, 71
3, 182995, Note_on_c, 0, 53, 58
3, 183005, Control_c, 0, 64, 0
3, 183011, Note_on_c, 0, 59, 63
3, 183037, Note_on_c, 0, 56, 42
3, 183376, Control_c, 0, 64, 127
3, 183814, Note_on_c, 0, 59, 0
3, 183829, Note_on_c, 0, 98, 105
3, 183957, Note_on_c, 0, 53, 0
3, 183994, Note_on_c, 0, 98, 0
3, 184059, Note_on_c, 0, 63, 0
3, 184125, Note_on_c, 0, 101, 119
3, 184185, Note_on_c, 0, 56, 0
3, 184245, Control_c, 0, 64, 0
3, 184373, Note_on_c, 0, 101, 0
3, 184404, Note_on_c, 0, 51, 45
3, 184408, Note_on_c, 0, 62, 51
3, 184445, Note_on_c, 0, 57, 63
3, 184516, Note_on_c, 0, 99, 92
3, 184743, Note_on_c, 0, 99, 0
3, 184906, Note_on_c, 0, 99, 92
3, 185134, Note_on_c, 0, 99, 0
3, 185192, Note_on_c, 0, 95, 77
3, 185336, Note_on_c, 0, 95, 0
3, 185466, Note_on_c, 0, 98, 87
3, 185642, Note_on_c, 0, 98, 0
3, 185766, Note_on_c, 0, 96, 90
3, 185936, Note_on_c, 0, 96, 0
3, 186125, Note_on_c, 0, 96, 88
3, 186247, Control_c, 0, 64, 127
3, 186362, Note_on_c, 0, 96, 0
3, 186391, Note_on_c, 0, 57, 0
3, 186437, Note_on_c, 0, 91, 74
3, 186509, Note_on_c, 0, 51, 0
3, 186602, Note_on_c, 0, 91, 0
3, 186635, Note_on_c, 0, 62, 0
3, 187064, Control_c, 0, 64, 0
3, 187739, Note_on_c, 0, 67, 50
3, 187754, Note_on_c, 0, 60, 57
3, 187768, Note_on_c, 0, 58, 40
3, 187807, Note_on_c, 0, 63, 29
3, 188415, Note_on_c, 0, 86, 92
3, 188573, Note_on_c, 0, 86, 0
3, 188670, Note_on_c, 0, 89, 107
3, 188810, Note_on_c, 0, 67, 0
3, 188813, Note_on_c, 0, 60, 0
3, 188925, Note_on_c, 0, 89, 0
3, 188936, Note_on_c, 0, 58, 0
3, 188975, Note_on_c, 0, 87, 89
3, 189111, Note_on_c, 0, 63, 0
3, 189175, Note_on_c, 0, 87, 0
3, 189258, Note_on_c, 0, 84, 75
3, 189448, Note_on_c, 0, 84, 0
3, 189513, Note_on_c, 0, 80, 74
3, 189685, Note_on_c, 0, 80, 0
3, 189742, Control_c, 0, 64, 127
3, 189760, Note_on_c, 0, 79, 55
3, 189901, Control_c, 0, 64, 0
3, 189973, Note_on_c, 0, 79, 0
3, 190031, Note_on_c, 0, 82, 80
3, 190056, Note_on_c, 0, 60, 54
3, 190056, Note_on_c, 0, 63, 40
3, 190056, Note_on_c, 0, 53, 46
3, 190088, Note_on_c, 0, 56, 42
3, 190952, Note_on_c, 0, 82, 0
3, 191003, Note_on_c, 0, 80, 67
3, 191621, Note_on_c, 0, 80, 0
3, 191648, Note_on_c, 0, 77, 68
3, 191763, Control_c, 0, 64, 127
3, 191862, Note_on_c, 0, 77, 0
3, 191875, Control_c, 0, 64, 0
3, 192035, Note_on_c, 0, 72, 58
3, 192227, Note_on_c, 0, 63, 0
3, 192501, Control_c, 0, 64, 127
3, 192536, Note_on_c, 0, 60, 0
3, 192660, Note_on_c, 0, 53, 0
3, 192742, Note_on_c, 0, 56, 0
3, 192950, Control_c, 0, 64, 0
3, 192954, Note_on_c, 0, 68, 42
3, 193864, Note_on_c, 0, 51, 41
3, 193866, Note_on_c, 0, 60, 44
3, 193877, Note_on_c, 0, 56, 42
3, 193914, Note_on_c, 0, 72, 0
3, 193967, Note_on_c, 0, 68, 0
3, 194506, Control_c, 0, 64, 127
3, 194822, Note_on_c, 0, 56, 0
3, 194970, Note_on_c, 0, 60, 0
3, 194987, Note_on_c, 0, 51, 0
3, 195722, Control_c, 0, 64, 0
3, 195797, Note_on_c, 0, 50, 35
3, 195804, Note_on_c, 0, 56, 27
3, 195882, Note_on_c, 0, 60, 15
3, 196362, Note_on_c, 0, 65, 61
3, 196458, Note_on_c, 0, 65, 0
3, 196589, Note_on_c, 0, 67, 83
3, 196728, Note_on_c, 0, 67, 0
3, 196810, Note_on_c, 0, 70, 70
3, 196924, Note_on_c, 0, 70, 0
3, 197032, Note_on_c, 0, 72, 71
3, 197128, Note_on_c, 0, 50, 0
3, 197162, Note_on_c, 0, 56, 0
3, 197181, Note_on_c, 0, 72, 0
3, 197229, Note_on_c, 0, 60, 0
3, 197253, Note_on_c, 0, 74, 102
3, 197365, Note_on_c, 0, 74, 0
3, 197515, Note_on_c, 0, 77, 100
3, 197684, Note_on_c, 0, 77, 0
3, 197738, Note_on_c, 0, 82, 100
3, 197781, Note_on_c, 0, 65, 59
3, 197789, Note_on_c, 0, 60, 67
3, 197803, Note_on_c, 0, 54, 40
3, 197960, Note_on_c, 0, 82, 0
3, 198023, Note_on_c, 0, 86, 118
3, 198119, Note_on_c, 0, 54, 0
3, 198124, Note_on_c, 0, 60, 0
3, 198209, Note_on_c, 0, 86, 0
3, 198225, Note_on_c, 0, 65, 0
3, 198282, Note_on_c, 0, 84, 102
3, 198469, Note_on_c, 0, 84, 0
3, 198774, Note_on_c, 0, 65, 57
3, 198816, Note_on_c, 0, 60, 41
3, 198827, Note_on_c, 0, 55, 35
3, 198842, Note_on_c, 0, 56, 25
3, 199659, Note_on_c, 0, 82, 111
3, 199722, Note_on_c, 0, 65, 0
3, 199736, Note_on_c, 0, 60, 0
3, 199798, Note_on_c, 0, 82, 0
3, 199811, Note_on_c, 0, 55, 0
3, 199916, Note_on_c, 0, 83, 103
3, 200018, Note_on_c, 0, 56, 0
3, 200149, Note_on_c, 0, 83, 0
3, 200183, Note_on_c, 0, 80, 97
3, 200218, Note_on_c, 0, 64, 55
3, 200236, Note_on_c, 0, 59, 36
3, 200254, Note_on_c, 0, 53, 45
3, 200425, Note_on_c, 0, 80, 0
3, 200465, Note_on_c, 0, 79, 71
3, 200622, Note_on_c, 0, 79, 0
3, 200730, Note_on_c, 0, 77, 81
3, 200945, Note_on_c, 0, 77, 0
3, 200957, Note_on_c, 0, 75, 72
3, 201004, Note_on_c, 0, 64, 0
3, 201004, Note_on_c, 0, 59, 0
3, 201097, Note_on_c, 0, 75, 0
3, 201143, Note_on_c, 0, 53, 0
3, 201229, Note_on_c, 0, 74, 46
3, 201388, Note_on_c, 0, 74, 0
3, 201434, Note_on_c, 0, 77, 101
3, 201654, Note_on_c, 0, 77, 0
3, 201673, Note_on_c, 0, 74, 64
3, 201726, Note_on_c, 0, 62, 42
3, 201736, Note_on_c, 0, 57, 55
3, 201769, Note_on_c, 0, 51, 48
3, 201874, Note_on_c, 0, 74, 0
3, 201938, Note_on_c, 0, 75, 77
3, 202188, Note_on_c, 0, 75, 0
3, 202196, Note_on_c, 0, 67, 53
3, 202539, Note_on_c, 0, 67, 0
3, 202666, Note_on_c, 0, 62, 0
3, 202725, Note_on_c, 0, 57, 0
3, 202748, Note_on_c, 0, 67, 57
3, 202789, Note_on_c, 0, 51, 0
3, 203117, Note_on_c, 0, 67, 0
3, 203296, Note_on_c, 0, 65, 33
3, 203421, Note_on_c, 0, 65, 0
3, 203621, Note_on_c, 0, 65, 83
3, 204064, Note_on_c, 0, 65, 0
3, 204202, Note_on_c, 0, 65, 80
3, 204415, Note_on_c, 0, 65, 0
3, 204541, Note_on_c, 0, 65, 80
3, 204546, Note_on_c, 0, 55, 42
3, 204562, Note_on_c, 0, 46, 32
3, 205434, Note_on_c, 0, 65, 0
3, 205467, Note_on_c, 0, 63, 46
3, 205525, Note_on_c, 0, 55, 0
3, 205669, Control_c, 0, 64, 127
3, 205690, Control_c, 0, 64, 0
3, 205813, Control_c, 0, 64, 127
3, 206343, Note_on_c, 0, 55, 58
3, 206455, Note_on_c, 0, 46, 0
3, 206906, Note_on_c, 0, 55, 0
3, 207309, Note_on_c, 0, 63, 0
3, 207335, Control_c, 0, 64, 0
3, 207344, Note_on_c, 0, 56, 27
3, 207372, Note_on_c, 0, 60, 61
3, 207391, Note_on_c, 0, 51, 42
3, 207413, Note_on_c, 0, 44, 35
3, 207706, Control_c, 0, 64, 127
3, 207897, Note_on_c, 0, 56, 0
3, 208065, Note_on_c, 0, 60, 0
3, 208279, Note_on_c, 0, 44, 0
3, 208300, Note_on_c, 0, 51, 0
3, 208679, Note_on_c, 0, 60, 67
3, 208797, Note_on_c, 0, 60, 0
3, 208930, Note_on_c, 0, 63, 74
3, 208974, Control_c, 0, 64, 0
3, 209082, Note_on_c, 0, 63, 0
3, 209175, Note_on_c, 0, 67, 76
3, 209344, Note_on_c, 0, 67, 0
3, 209423, Note_on_c, 0, 70, 100
3, 209607, Note_on_c, 0, 70, 0
3, 209688, Note_on_c, 0, 67, 83
3, 209853, Note_on_c, 0, 67, 0
3, 209933, Note_on_c, 0, 68, 68
3, 210215, Note_on_c, 0, 70, 77
3, 210268, Note_on_c, 0, 68, 0
3, 210349, Note_on_c, 0, 70, 0
3, 210472, Note_on_c, 0, 72, 59
3, 210634, Note_on_c, 0, 72, 0
3, 210705, Note_on_c, 0, 75, 84
3, 210831, Note_on_c, 0, 75, 0
3, 210949, Note_on_c, 0, 79, 77
3, 211116, Note_on_c, 0, 79, 0
3, 211225, Note_on_c, 0, 82, 107
3, 211337, Note_on_c, 0, 59, 38
3, 211358, Note_on_c, 0, 63, 32
3, 211386, Note_on_c, 0, 82, 0
3, 211386, Note_on_c, 0, 53, 19
3, 211472, Note_on_c, 0, 80, 83
3, 211692, Note_on_c, 0, 59, 0
3, 211695, Note_on_c, 0, 80, 0
3, 211769, Note_on_c, 0, 79, 75
3, 211857, Note_on_c, 0, 63, 0
3, 211937, Note_on_c, 0, 53, 0
3, 211994, Note_on_c, 0, 79, 0
3, 212004, Note_on_c, 0, 77, 48
3, 212272, Note_on_c, 0, 77, 0
3, 212317, Note_on_c, 0, 75, 67
3, 212488, Note_on_c, 0, 75, 0
3, 212544, Note_on_c, 0, 74, 57
3, 212719, Note_on_c, 0, 74, 0
3, 212799, Note_on_c, 0, 77, 63
3, 213009, Note_on_c, 0, 77, 0
3, 213033, Note_on_c, 0, 74, 57
3, 213200, Note_on_c, 0, 74, 0
3, 213261, Note_on_c, 0, 75, 87
3, 213352, Note_on_c, 0, 51, 29
3, 213367, Note_on_c, 0, 57, 38
3, 213416, Note_on_c, 0, 62, 14
3, 213514, Note_on_c, 0, 75, 0
3, 213552, Note_on_c, 0, 67, 54
3, 213882, Note_on_c, 0, 67, 0
3, 214057, Note_on_c, 0, 67, 62
3, 214217, Note_on_c, 0, 67, 0
3, 214485, Control_c, 0, 64, 127
3, 214489, Note_on_c, 0, 67, 61
3, 214690, Note_on_c, 0, 67, 0
3, 214906, Note_on_c, 0, 67, 63
3, 215057, Note_on_c, 0, 67, 0
3, 215180, Control_c, 0, 64, 0
3, 215293, Note_on_c, 0, 67, 51
3, 215324, Control_c, 0, 64, 127
3, 215325, Note_on_c, 0, 57, 0
3, 215341, Note_on_c, 0, 62, 0
3, 215485, Note_on_c, 0, 51, 0
3, 215698, Note_on_c, 0, 67, 0
3, 216012, Control_c, 0, 64, 0
3, 216052, Note_on_c, 0, 67, 74
3, 216493, Control_c, 0, 64, 127
3, 216999, Note_on_c, 0, 67, 0
3, 217520, Note_on_c, 0, 63, 49
3, 217544, Note_on_c, 0, 67, 45
3, 217554, Note_on_c, 0, 58, 45
3, 217734, Note_on_c, 0, 67, 0
3, 217787, Note_on_c, 0, 63, 0
3, 218058, Note_on_c, 0, 58, 0
3, 218821, Control_c, 0, 64, 0
3, 218875, Note_on_c, 0, 61, 41
3, 218894, Note_on_c, 0, 55, 59
3, 218898, Note_on_c, 0, 60, 44
3, 218903, Note_on_c, 0, 84, 70
3, 218908, Note_on_c, 0, 65, 41
3, 218910, Note_on_c, 0, 77, 62
3, 218918, Note_on_c, 0, 81, 50
3, 218924, Note_on_c, 0, 72, 42
3, 219134, Control_c, 0, 64, 127
3, 219786, Note_on_c, 0, 55, 0
3, 219801, Note_on_c, 0, 65, 0
3, 219882, Note_on_c, 0, 60, 0
3, 220033, Note_on_c, 0, 84, 0
3, 220039, Note_on_c, 0, 72, 0
3, 220106, Note_on_c, 0, 77, 0
3, 220122, Note_on_c, 0, 81, 0
3, 220143, Note_on_c, 0, 61, 0
3, 220421, Control_c, 0, 64, 0
3, 220445, Note_on_c, 0, 61, 57
3, 220460, Note_on_c, 0, 60, 64
3, 220463, Note_on_c, 0, 77, 72
3, 220464, Note_on_c, 0, 81, 63
3, 220474, Note_on_c, 0, 72, 51
3, 220474, Note_on_c, 0, 84, 75
3, 220474, Note_on_c, 0, 65, 63
3, 220474, Note_on_c, 0, 55, 67
3, 220668, Control_c, 0, 64, 127
3, 220843, Note_on_c, 0, 55, 0
3, 220867, Note_on_c, 0, 72, 0
3, 220876, Note_on_c, 0, 65, 0
3, 220879, Note_on_c, 0, 84, 0
3, 220892, Note_on_c, 0, 61, 0
3, 220894, Note_on_c, 0, 77, 0
3, 220903, Note_on_c, 0, 60, 0
3, 220923, Note_on_c, 0, 81, 0
3, 221133, Note_on_c, 0, 84, 89
3, 221133, Note_on_c, 0, 61, 76
3, 221133, Note_on_c, 0, 81, 88
3, 221133, Note_on_c, 0, 55, 90
3, 221133, Note_on_c, 0, 72, 77
3, 221133, Note_on_c, 0, 65, 88
3, 221135, Note_on_c, 0, 77, 89
3, 221151, Note_on_c, 0, 60, 49
3, 221255, Note_on_c, 0, 60, 0
3, 221434, Note_on_c, 0, 72, 0
3, 221437, Note_on_c, 0, 77, 0
3, 221439, Note_on_c, 0, 65, 0
3, 221440, Note_on_c, 0, 55, 0
3, 221463, Note_on_c, 0, 84, 0
3, 221498, Note_on_c, 0, 81, 0
3, 221565, Note_on_c, 0, 61, 0
3, 221731, Control_c, 0, 64, 0
3, 221791, Note_on_c, 0, 84, 98
3, 221792, Note_on_c, 0, 77, 102
3, 221794, Note_on_c, 0, 65, 97
3, 221803, Note_on_c, 0, 72, 87
3, 221803, Note_on_c, 0, 81, 89
3, 221803, Note_on_c, 0, 58, 74
3, 221803, Note_on_c, 0, 54, 76
3, 221803, Note_on_c, 0, 60, 83
3, 222149, Control_c, 0, 64, 127
3, 222570, Note_on_c, 0, 60, 0
3, 222605, Note_on_c, 0, 84, 0
3, 222624, Note_on_c, 0, 54, 0
3, 222681, Note_on_c, 0, 81, 0
3, 222681, Note_on_c, 0, 65, 0
3, 222720, Note_on_c, 0, 77, 0
3, 222780, Note_on_c, 0, 72, 0
3, 222808, Note_on_c, 0, 58, 0
3, 223308, Note_on_c, 0, 82, 61
3, 223322, Control_c, 0, 64, 0
3, 223324, Note_on_c, 0, 70, 62
3, 223327, Note_on_c, 0, 77, 62
3, 223338, Note_on_c, 0, 54, 57
3, 223343, Note_on_c, 0, 65, 70
3, 223344, Note_on_c, 0, 58, 50
3, 223360, Note_on_c, 0, 60, 59
3, 223642, Control_c, 0, 64, 127
3, 223977, Note_on_c, 0, 60, 0
3, 223977, Note_on_c, 0, 65, 0
3, 224023, Note_on_c, 0, 58, 0
3, 224103, Note_on_c, 0, 54, 0
3, 224153, Note_on_c, 0, 77, 0
3, 224153, Note_on_c, 0, 82, 0
3, 224159, Note_on_c, 0, 70, 0
3, 224620, Control_c, 0, 64, 0
3, 224666, Note_on_c, 0, 80, 74
3, 224668, Note_on_c, 0, 68, 66
3, 224671, Note_on_c, 0, 75, 76
3, 224682, Note_on_c, 0, 55, 59
3, 224682, Note_on_c, 0, 56, 59
3, 224682, Note_on_c, 0, 61, 49
3, 224685, Note_on_c, 0, 65, 58
3, 225141, Control_c, 0, 64, 127
3, 225591, Note_on_c, 0, 68, 0
3, 225614, Note_on_c, 0, 65, 0
3, 225658, Note_on_c, 0, 56, 0
3, 225658, Note_on_c, 0, 80, 0
3, 225687, Note_on_c, 0, 75, 0
3, 225689, Note_on_c, 0, 55, 0
3, 225737, Note_on_c, 0, 61, 0
3, 226185, Control_c, 0, 64, 0
3, 226218, Note_on_c, 0, 79, 62
3, 226231, Note_on_c, 0, 61, 45
3, 226233, Note_on_c, 0, 67, 58
3, 226250, Note_on_c, 0, 65, 58
3, 226258, Note_on_c, 0, 56, 40
3, 226269, Note_on_c, 0, 55, 53
3, 226494, Control_c, 0, 64, 127
3, 226858, Note_on_c, 0, 67, 0
3, 226921, Note_on_c, 0, 55, 0
3, 226934, Note_on_c, 0, 79, 0
3, 226938, Note_on_c, 0, 65, 0
3, 226954, Note_on_c, 0, 61, 0
3, 227134, Note_on_c, 0, 56, 0
3, 227471, Control_c, 0, 64, 0
3, 227532, Note_on_c, 0, 82, 87
3, 227549, Note_on_c, 0, 71, 77
3, 227564, Note_on_c, 0, 64, 61
3, 227564, Note_on_c, 0, 75, 63
3, 227564, Note_on_c, 0, 53, 59
3, 227580, Note_on_c, 0, 59, 48
3, 227985, Control_c, 0, 64, 127
3, 228378, Note_on_c, 0, 64, 0
3, 228389, Note_on_c, 0, 53, 0
3, 228394, Note_on_c, 0, 82, 0
3, 228473, Note_on_c, 0, 59, 0
3, 228698, Note_on_c, 0, 75, 0
3, 228780, Note_on_c, 0, 71, 0
3, 229082, Control_c, 0, 64, 0
3, 229114, Note_on_c, 0, 63, 50
3, 229116, Note_on_c, 0, 80, 54
3, 229119, Note_on_c, 0, 53, 42
3, 229128, Note_on_c, 0, 71, 53
3, 229130, Note_on_c, 0, 75, 54
3, 229146, Note_on_c, 0, 59, 54
3, 229186, Note_on_c, 0, 56, 32
3, 229444, Control_c, 0, 64, 127
3, 229616, Note_on_c, 0, 59, 0
3, 229704, Note_on_c, 0, 63, 0
3, 229743, Note_on_c, 0, 53, 0
3, 229867, Note_on_c, 0, 71, 0
3, 229887, Note_on_c, 0, 56, 0
3, 229995, Note_on_c, 0, 80, 0
3, 230014, Note_on_c, 0, 75, 0
3, 230410, Control_c, 0, 64, 0
3, 230412, Note_on_c, 0, 62, 55
3, 230417, Note_on_c, 0, 79, 64
3, 230442, Note_on_c, 0, 51, 32
3, 230476, Note_on_c, 0, 57, 42
3, 230490, Note_on_c, 0, 55, 31
3, 230887, Control_c, 0, 64, 127
3, 231213, Note_on_c, 0, 79, 0
3, 231337, Note_on_c, 0, 57, 0
3, 231353, Note_on_c, 0, 55, 0
3, 231411, Note_on_c, 0, 62, 0
3, 231994, Note_on_c, 0, 62, 53
3, 232031, Note_on_c, 0, 57, 42
3, 232058, Note_on_c, 0, 55, 41
3, 232328, Note_on_c, 0, 57, 0
3, 232362, Note_on_c, 0, 55, 0
3, 232442, Note_on_c, 0, 51, 0
3, 232504, Note_on_c, 0, 62, 0
3, 232636, Note_on_c, 0, 79, 46
3, 232718, Note_on_c, 0, 79, 0
3, 232907, Note_on_c, 0, 84, 107
3, 233069, Note_on_c, 0, 84, 0
3, 233176, Note_on_c, 0, 86, 127
3, 233396, Note_on_c, 0, 86, 0
3, 233437, Control_c, 0, 64, 0
3, 233485, Note_on_c, 0, 87, 105
3, 233489, Note_on_c, 0, 63, 48
3, 233501, Note_on_c, 0, 58, 29
3, 233501, Note_on_c, 0, 67, 49
3, 233501, Note_on_c, 0, 60, 64
3, 233919, Note_on_c, 0, 87, 0
3, 233985, Note_on_c, 0, 89, 94
3, 234226, Control_c, 0, 64, 127
3, 234321, Note_on_c, 0, 60, 0
3, 234326, Note_on_c, 0, 89, 0
3, 234384, Note_on_c, 0, 67, 0
3, 234384, Control_c, 0, 64, 0
3, 234398, Control_c, 0, 64, 127
3, 234486, Note_on_c, 0, 63, 0
3, 234512, Note_on_c, 0, 91, 110
3, 234857, Note_on_c, 0, 91, 0
3, 235095, Note_on_c, 0, 91, 105
3, 235132, Note_on_c, 0, 67, 50
3, 235161, Note_on_c, 0, 63, 32
3, 235259, Note_on_c, 0, 67, 0
3, 235383, Note_on_c, 0, 58, 0
3, 235494, Note_on_c, 0, 91, 0
3, 235745, Note_on_c, 0, 89, 98
3, 235803, Note_on_c, 0, 63, 0
3, 236042, Note_on_c, 0, 84, 85
3, 236076, Note_on_c, 0, 89, 0
3, 236250, Note_on_c, 0, 84, 0
3, 236250, Control_c, 0, 64, 0
3, 236328, Note_on_c, 0, 80, 58
3, 236374, Note_on_c, 0, 67, 41
3, 236391, Note_on_c, 0, 63, 23
3, 236396, Note_on_c, 0, 56, 38
3, 236423, Note_on_c, 0, 60, 46
3, 236604, Note_on_c, 0, 80, 0
3, 236668, Note_on_c, 0, 79, 45
3, 237134, Control_c, 0, 64, 127
3, 237708, Note_on_c, 0, 80, 77
3, 237767, Note_on_c, 0, 79, 0
3, 237998, Note_on_c, 0, 80, 0
3, 238211, Note_on_c, 0, 67, 0
3, 238269, Note_on_c, 0, 60, 0
3, 238349, Note_on_c, 0, 63, 0
3, 238433, Note_on_c, 0, 56, 0
3, 238443, Note_on_c, 0, 91, 76
3, 238712, Note_on_c, 0, 91, 0
3, 239034, Control_c, 0, 64, 0
3, 239044, Note_on_c, 0, 91, 83
3, 239100, Note_on_c, 0, 84, 45
3, 239371, Control_c, 0, 64, 127
3, 239633, Note_on_c, 0, 91, 0
3, 239714, Note_on_c, 0, 84, 0
3, 239980, Note_on_c, 0, 89, 68
3, 239994, Note_on_c, 0, 77, 53
3, 240026, Note_on_c, 0, 84, 51
3, 240779, Note_on_c, 0, 84, 0
3, 240814, Note_on_c, 0, 89, 0
3, 240958, Note_on_c, 0, 65, 61
3, 240975, Note_on_c, 0, 56, 42
3, 240996, Note_on_c, 0, 60, 46
3, 241023, Note_on_c, 0, 77, 0
3, 241118, Note_on_c, 0, 60, 0
3, 241121, Note_on_c, 0, 65, 0
3, 241239, Note_on_c, 0, 56, 0
3, 241873, Control_c, 0, 64, 0
3, 241882, Note_on_c, 0, 80, 92
3, 241900, Note_on_c, 0, 75, 97
3, 241900, Note_on_c, 0, 68, 100
3, 241919, Note_on_c, 0, 56, 71
3, 241932, Note_on_c, 0, 60, 85
3, 241932, Note_on_c, 0, 50, 80
3, 242518, Control_c, 0, 64, 127
3, 243561, Note_on_c, 0, 80, 0
3, 243633, Note_on_c, 0, 75, 0
3, 243655, Note_on_c, 0, 68, 0
3, 243673, Note_on_c, 0, 60, 0
3, 243686, Note_on_c, 0, 50, 0
3, 243761, Note_on_c, 0, 56, 0
3, 244408, Control_c, 0, 64, 0
3, 244435, Note_on_c, 0, 73, 97
3, 244443, Note_on_c, 0, 79, 98
3, 244445, Note_on_c, 0, 75, 93
3, 244446, Note_on_c, 0, 71, 114
3, 244465, Note_on_c, 0, 67, 94
3, 244723, Note_on_c, 0, 79, 0
3, 244810, Note_on_c, 0, 71, 0
3, 244810, Note_on_c, 0, 73, 0
3, 244810, Note_on_c, 0, 67, 0
3, 244821, Control_c, 0, 64, 127
3, 244867, Note_on_c, 0, 75, 0
3, 244920, Control_c, 0, 64, 0
3, 245032, Note_on_c, 0, 77, 80
3, 245041, Note_on_c, 0, 68, 67
3, 245051, Note_on_c, 0, 74, 72
3, 245062, Note_on_c, 0, 65, 71
3, 245065, Note_on_c, 0, 71, 80
3, 245259, Control_c, 0, 64, 127
3, 245327, Note_on_c, 0, 74, 0
3, 245345, Note_on_c, 0, 77, 0
3, 245358, Note_on_c, 0, 71, 0
3, 245449, Note_on_c, 0, 68, 0
3, 245527, Note_on_c, 0, 65, 0
3, 245687, Control_c, 0, 64, 0
3, 245728, Note_on_c, 0, 71, 57
3, 245773, Note_on_c, 0, 62, 51
3, 245784, Note_on_c, 0, 65, 63
3, 245787, Note_on_c, 0, 68, 45
3, 245934, Control_c, 0, 64, 127
3, 246126, Note_on_c, 0, 68, 0
3, 246222, Note_on_c, 0, 65, 0
3, 246334, Note_on_c, 0, 71, 0
3, 246365, Control_c, 0, 64, 0
3, 246398, Note_on_c, 0, 62, 0
3, 246427, Note_on_c, 0, 68, 41
3, 246429, Note_on_c, 0, 74, 54
3, 246443, Note_on_c, 0, 65, 53
3, 246451, Note_on_c, 0, 59, 55
3, 246560, Note_on_c, 0, 74, 0
3, 246574, Note_on_c, 0, 68, 0
3, 246587, Note_on_c, 0, 59, 0
3, 246605, Control_c, 0, 64, 127
3, 246622, Note_on_c, 0, 65, 0
3, 247086, Note_on_c, 0, 65, 59
3, 247137, Control_c, 0, 64, 0
3, 247209, Note_on_c, 0, 65, 0
3, 247408, Control_c, 0, 64, 127
3, 247427, Note_on_c, 0, 49, 50
3, 247454, Note_on_c, 0, 56, 25
3, 247641, Note_on_c, 0, 49, 0
3, 247681, Note_on_c, 0, 56, 0
3, 247743, Control_c, 0, 64, 0
3, 247802, Note_on_c, 0, 63, 38
3, 247815, Note_on_c, 0, 65, 62
3, 247834, Note_on_c, 0, 55, 51
3, 247839, Note_on_c, 0, 48, 44
3, 248230, Note_on_c, 0, 55, 0
3, 248276, Control_c, 0, 64, 127
3, 248532, Note_on_c, 0, 65, 0
3, 248635, Note_on_c, 0, 55, 55
3, 248843, Note_on_c, 0, 55, 0
3, 249151, Note_on_c, 0, 63, 0
3, 249708, Note_on_c, 0, 48, 0
3, 250393, Control_c, 0, 64, 0
3, 250538, Note_on_c, 0, 46, 38
3, 250540, Note_on_c, 0, 55, 45
3, 250726, Control_c, 0, 64, 127
3, 251435, Control_c, 0, 64, 0
3, 251488, Note_on_c, 0, 98, 93
3, 251663, Note_on_c, 0, 98, 0
3, 251774, Note_on_c, 0, 99, 77
3, 251962, Note_on_c, 0, 99, 0
3, 252097, Note_on_c, 0, 101, 93
3, 252175, Note_on_c, 0, 99, 23
3, 252249, Note_on_c, 0, 99, 0
3, 252251, Note_on_c, 0, 101, 0
3, 252430, Note_on_c, 0, 94, 70
3, 252566, Note_on_c, 0, 46, 0
3, 252638, Note_on_c, 0, 94, 0
3, 252654, Note_on_c, 0, 55, 0
3, 252750, Note_on_c, 0, 96, 74
3, 252894, Control_c, 0, 64, 127
3, 252916, Note_on_c, 0, 96, 0
3, 253053, Note_on_c, 0, 98, 96
3, 253264, Note_on_c, 0, 98, 0
3, 253373, Control_c, 0, 64, 0
3, 253390, Note_on_c, 0, 91, 48
3, 253614, Note_on_c, 0, 91, 0
3, 253747, Note_on_c, 0, 92, 64
3, 253956, Note_on_c, 0, 92, 0
3, 254078, Note_on_c, 0, 94, 87
3, 254386, Note_on_c, 0, 87, 57
3, 254398, Note_on_c, 0, 94, 0
3, 254478, Note_on_c, 0, 58, 33
3, 254507, Note_on_c, 0, 87, 0
3, 254686, Note_on_c, 0, 89, 57
3, 254687, Note_on_c, 0, 58, 0
3, 254879, Note_on_c, 0, 89, 0
3, 254993, Note_on_c, 0, 91, 88
3, 255179, Note_on_c, 0, 91, 0
3, 255341, Note_on_c, 0, 84, 57
3, 255376, Note_on_c, 0, 60, 51
3, 255437, Note_on_c, 0, 60, 0
3, 255499, Note_on_c, 0, 84, 0
3, 255654, Note_on_c, 0, 87, 61
3, 255838, Note_on_c, 0, 87, 0
3, 255942, Note_on_c, 0, 89, 81
3, 256046, Control_c, 0, 64, 127
3, 256174, Control_c, 0, 64, 0
3, 256176, Note_on_c, 0, 89, 0
3, 256266, Note_on_c, 0, 43, 63
3, 256283, Note_on_c, 0, 91, 92
3, 256347, Note_on_c, 0, 43, 0
3, 256480, Note_on_c, 0, 91, 0
3, 256602, Note_on_c, 0, 89, 77
3, 256780, Note_on_c, 0, 89, 0
3, 256900, Note_on_c, 0, 87, 89
3, 256948, Note_on_c, 0, 53, 63
3, 256958, Note_on_c, 0, 63, 64
3, 256961, Note_on_c, 0, 59, 64
3, 257025, Note_on_c, 0, 59, 0
3, 257081, Note_on_c, 0, 63, 0
3, 257119, Note_on_c, 0, 87, 0
3, 257163, Note_on_c, 0, 53, 0
3, 257258, Note_on_c, 0, 83, 33
3, 257358, Note_on_c, 0, 83, 0
3, 257531, Note_on_c, 0, 82, 75
3, 257732, Note_on_c, 0, 82, 0
3, 257852, Note_on_c, 0, 80, 72
3, 257908, Note_on_c, 0, 53, 49
3, 257923, Note_on_c, 0, 43, 40
3, 258043, Note_on_c, 0, 80, 0
3, 258206, Note_on_c, 0, 79, 32
3, 258220, Note_on_c, 0, 77, 28
3, 258321, Note_on_c, 0, 79, 0
3, 258336, Note_on_c, 0, 77, 0
3, 258490, Note_on_c, 0, 77, 74
3, 258654, Note_on_c, 0, 43, 0
3, 258714, Note_on_c, 0, 77, 0
3, 258813, Note_on_c, 0, 75, 64
3, 258878, Note_on_c, 0, 53, 0
3, 259067, Note_on_c, 0, 75, 0
3, 259099, Note_on_c, 0, 74, 80
3, 259251, Note_on_c, 0, 74, 0
3, 259337, Note_on_c, 0, 55, 44
3, 259339, Note_on_c, 0, 48, 33
3, 259342, Note_on_c, 0, 77, 64
3, 259555, Note_on_c, 0, 77, 0
3, 259595, Note_on_c, 0, 74, 75
3, 259737, Note_on_c, 0, 74, 0
3, 259841, Note_on_c, 0, 75, 81
3, 260110, Note_on_c, 0, 75, 0
3, 260168, Note_on_c, 0, 67, 54
3, 260543, Control_c, 0, 64, 127
3, 260764, Note_on_c, 0, 67, 0
3, 261194, Note_on_c, 0, 67, 66
3, 261374, Note_on_c, 0, 67, 0
3, 261761, Note_on_c, 0, 55, 0
3, 261950, Note_on_c, 0, 48, 0
3, 262043, Note_on_c, 0, 74, 80
3, 262053, Control_c, 0, 64, 0
3, 262054, Note_on_c, 0, 46, 45
3, 262064, Note_on_c, 0, 67, 76
3, 262072, Note_on_c, 0, 63, 48
3, 262107, Note_on_c, 0, 55, 38
3, 262804, Control_c, 0, 64, 127
3, 262926, Note_on_c, 0, 74, 0
3, 263034, Note_on_c, 0, 72, 50
3, 263043, Note_on_c, 0, 67, 0
3, 263155, Note_on_c, 0, 63, 0
3, 263195, Note_on_c, 0, 72, 0
3, 263388, Note_on_c, 0, 55, 0
3, 264014, Note_on_c, 0, 63, 45
3, 264032, Note_on_c, 0, 60, 49
3, 264507, Note_on_c, 0, 63, 0
3, 264530, Note_on_c, 0, 60, 0
3, 264686, Note_on_c, 0, 46, 0
3, 264955, Note_on_c, 0, 60, 57
3, 264974, Control_c, 0, 64, 0
3, 264987, Note_on_c, 0, 55, 46
3, 265006, Note_on_c, 0, 45, 38
3, 265451, Control_c, 0, 64, 127
3, 266190, Note_on_c, 0, 55, 0
3, 266226, Note_on_c, 0, 60, 0
3, 266913, Note_on_c, 0, 55, 44
3, 266927, Control_c, 0, 64, 0
3, 266991, Note_on_c, 0, 55, 0
3, 267135, Note_on_c, 0, 60, 74
3, 267222, Note_on_c, 0, 45, 0
3, 267288, Note_on_c, 0, 60, 0
3, 267365, Note_on_c, 0, 62, 109
3, 267542, Note_on_c, 0, 62, 0
3, 267610, Note_on_c, 0, 63, 110
3, 267825, Note_on_c, 0, 63, 0
3, 267881, Note_on_c, 0, 65, 101
3, 268077, Note_on_c, 0, 65, 0
3, 268107, Note_on_c, 0, 63, 64
3, 268284, Note_on_c, 0, 63, 0
3, 268364, Note_on_c, 0, 65, 96
3, 268550, Note_on_c, 0, 65, 0
3, 268607, Note_on_c, 0, 63, 77
3, 268823, Note_on_c, 0, 63, 0
3, 268858, Note_on_c, 0, 62, 83
3, 268909, Note_on_c, 0, 54, 33
3, 268941, Note_on_c, 0, 50, 32
3, 268942, Note_on_c, 0, 60, 31
3, 269329, Control_c, 0, 64, 127
3, 269385, Note_on_c, 0, 60, 0
3, 269702, Note_on_c, 0, 54, 0
3, 269729, Note_on_c, 0, 50, 0
3, 270716, Control_c, 0, 64, 0
3, 270727, Note_on_c, 0, 56, 62
3, 270793, Note_on_c, 0, 55, 50
3, 271051, Control_c, 0, 64, 127
3, 271072, Note_on_c, 0, 62, 0
3, 271113, Note_on_c, 0, 56, 0
3, 271531, Note_on_c, 0, 55, 0
3, 272622, Control_c, 0, 64, 0
3, 272643, Note_on_c, 0, 65, 57
3, 272657, Note_on_c, 0, 56, 41
3, 272661, Note_on_c, 0, 61, 32
3, 272700, Note_on_c, 0, 55, 53
3, 272718, Control_c, 0, 64, 127
3, 273437, Note_on_c, 0, 103, 115
3, 273626, Note_on_c, 0, 65, 0
3, 273658, Note_on_c, 0, 61, 0
3, 273677, Note_on_c, 0, 55, 0
3, 273707, Note_on_c, 0, 56, 0
3, 273760, Note_on_c, 0, 103, 0
3, 273803, Note_on_c, 0, 104, 89
3, 273818, Control_c, 0, 64, 0
3, 273994, Note_on_c, 0, 104, 0
3, 274011, Note_on_c, 0, 103, 63
3, 274159, Note_on_c, 0, 103, 0
3, 274176, Note_on_c, 0, 101, 77
3, 274299, Note_on_c, 0, 101, 0
3, 274510, Note_on_c, 0, 99, 96
3, 274650, Note_on_c, 0, 99, 0
3, 274814, Note_on_c, 0, 98, 90
3, 274826, Note_on_c, 0, 65, 58
3, 274874, Note_on_c, 0, 60, 44
3, 274886, Note_on_c, 0, 56, 38
3, 274888, Note_on_c, 0, 55, 32
3, 275038, Note_on_c, 0, 98, 0
3, 275296, Note_on_c, 0, 99, 89
3, 275470, Note_on_c, 0, 99, 0
3, 275480, Note_on_c, 0, 65, 0
3, 275486, Note_on_c, 0, 60, 0
3, 275542, Note_on_c, 0, 55, 0
3, 275588, Note_on_c, 0, 101, 94
3, 275660, Note_on_c, 0, 56, 0
3, 275744, Note_on_c, 0, 101, 0
3, 275853, Note_on_c, 0, 98, 93
3, 276010, Note_on_c, 0, 98, 0
3, 276117, Note_on_c, 0, 99, 92
3, 276326, Note_on_c, 0, 99, 0
3, 276405, Note_on_c, 0, 95, 74
3, 276533, Note_on_c, 0, 95, 0
3, 276658, Note_on_c, 0, 98, 96
3, 276698, Note_on_c, 0, 57, 54
3, 276701, Note_on_c, 0, 62, 45
3, 276712, Note_on_c, 0, 51, 38
3, 276863, Note_on_c, 0, 98, 0
3, 277028, Note_on_c, 0, 96, 68
3, 277212, Note_on_c, 0, 96, 0
3, 277323, Note_on_c, 0, 91, 66
3, 277678, Note_on_c, 0, 91, 0
3, 277742, Control_c, 0, 64, 127
3, 278821, Note_on_c, 0, 96, 92
3, 279002, Note_on_c, 0, 96, 0
3, 279114, Note_on_c, 0, 98, 105
3, 279318, Note_on_c, 0, 98, 0
3, 279326, Control_c, 0, 64, 0
3, 279449, Note_on_c, 0, 99, 107
3, 279489, Note_on_c, 0, 57, 0
3, 279534, Control_c, 0, 64, 127
3, 279566, Note_on_c, 0, 62, 0
3, 279650, Note_on_c, 0, 51, 0
3, 280177, Note_on_c, 0, 99, 0
3, 280739, Control_c, 0, 64, 0
3, 280864, Note_on_c, 0, 89, 63
3, 280869, Note_on_c, 0, 101, 74
3, 280877, Note_on_c, 0, 62, 58
3, 280877, Note_on_c, 0, 57, 58
3, 280877, Note_on_c, 0, 51, 40
3, 280971, Control_c, 0, 64, 127
3, 281083, Note_on_c, 0, 89, 0
3, 281107, Note_on_c, 0, 101, 0
3, 281126, Note_on_c, 0, 62, 0
3, 281194, Note_on_c, 0, 57, 0
3, 281238, Note_on_c, 0, 51, 0
3, 281464, Note_on_c, 0, 51, 37
3, 281490, Note_on_c, 0, 91, 68
3, 281491, Note_on_c, 0, 103, 77
3, 281493, Note_on_c, 0, 62, 63
3, 281619, Note_on_c, 0, 103, 0
3, 281629, Note_on_c, 0, 51, 0
3, 281670, Note_on_c, 0, 91, 0
3, 281678, Note_on_c, 0, 62, 0
3, 282209, Note_on_c, 0, 92, 67
3, 282252, Control_c, 0, 64, 0
3, 282252, Note_on_c, 0, 60, 55
3, 282252, Note_on_c, 0, 63, 36
3, 282257, Note_on_c, 0, 80, 24
3, 282267, Note_on_c, 0, 53, 41
3, 282272, Note_on_c, 0, 56, 41
3, 282942, Control_c, 0, 64, 127
3, 283125, Note_on_c, 0, 63, 0
3, 283157, Note_on_c, 0, 60, 0
3, 283180, Note_on_c, 0, 53, 0
3, 283199, Note_on_c, 0, 92, 0
3, 283232, Note_on_c, 0, 80, 0
3, 283405, Note_on_c, 0, 56, 0
3, 284654, Control_c, 0, 64, 0
3, 284704, Note_on_c, 0, 79, 94
3, 284747, Note_on_c, 0, 72, 77
3, 284768, Note_on_c, 0, 64, 76
3, 284771, Note_on_c, 0, 68, 68
3, 284800, Note_on_c, 0, 76, 36
3, 285008, Control_c, 0, 64, 127
3, 285069, Note_on_c, 0, 76, 0
3, 285139, Note_on_c, 0, 68, 0
3, 285166, Note_on_c, 0, 79, 0
3, 285182, Note_on_c, 0, 72, 0
3, 285219, Note_on_c, 0, 64, 0
3, 285233, Control_c, 0, 64, 0
3, 285294, Note_on_c, 0, 77, 80
3, 285297, Note_on_c, 0, 68, 58
3, 285317, Note_on_c, 0, 72, 51
3, 285331, Note_on_c, 0, 62, 59
3, 285475, Control_c, 0, 64, 127
3, 285606, Note_on_c, 0, 72, 0
3, 285635, Note_on_c, 0, 77, 0
3, 285718, Note_on_c, 0, 62, 0
3, 285742, Note_on_c, 0, 68, 0
3, 286145, Control_c, 0, 64, 0
3, 286149, Note_on_c, 0, 75, 80
3, 286189, Note_on_c, 0, 65, 62
3, 286189, Note_on_c, 0, 68, 49
3, 286201, Note_on_c, 0, 72, 35
3, 286235, Note_on_c, 0, 60, 37
3, 286437, Control_c, 0, 64, 127
3, 286829, Note_on_c, 0, 68, 0
3, 286853, Note_on_c, 0, 65, 0
3, 286944, Note_on_c, 0, 72, 0
3, 287000, Note_on_c, 0, 75, 0
3, 287053, Note_on_c, 0, 56, 44
3, 287070, Note_on_c, 0, 68, 48
3, 287101, Note_on_c, 0, 65, 58
3, 287348, Note_on_c, 0, 60, 0
3, 287357, Note_on_c, 0, 68, 0
3, 287368, Note_on_c, 0, 65, 0
3, 287657, Note_on_c, 0, 56, 0
3, 287982, Control_c, 0, 64, 0
3, 287985, Note_on_c, 0, 68, 49
3, 287995, Note_on_c, 0, 65, 64
3, 288005, Note_on_c, 0, 60, 48
3, 288016, Note_on_c, 0, 56, 44
3, 288022, Note_on_c, 0, 50, 41
3, 288408, Control_c, 0, 64, 127
3, 288915, Note_on_c, 0, 60, 0
3, 289006, Note_on_c, 0, 56, 0
3, 289456, Note_on_c, 0, 65, 0
3, 289664, Note_on_c, 0, 68, 0
3, 289899, Note_on_c, 0, 56, 38
3, 289931, Note_on_c, 0, 60, 38
3, 290208, Note_on_c, 0, 50, 0
3, 290236, Note_on_c, 0, 60, 0
3, 290255, Note_on_c, 0, 56, 0
3, 290523, Note_on_c, 0, 79, 113
3, 290830, Note_on_c, 0, 79, 0
3, 290994, Note_on_c, 0, 79, 97
3, 291005, Control_c, 0, 64, 0
3, 291006, Note_on_c, 0, 72, 77
3, 291011, Note_on_c, 0, 68, 84
3, 291021, Note_on_c, 0, 74, 81
3, 291042, Note_on_c, 0, 69, 57
3, 291059, Note_on_c, 0, 67, 48
3, 291190, Note_on_c, 0, 69, 0
3, 291448, Control_c, 0, 64, 127
3, 291613, Note_on_c, 0, 79, 0
3, 291659, Note_on_c, 0, 72, 0
3, 291669, Note_on_c, 0, 68, 0
3, 291726, Note_on_c, 0, 74, 0
3, 291803, Note_on_c, 0, 67, 0
3, 291810, Control_c, 0, 64, 0
3, 291822, Note_on_c, 0, 68, 74
3, 291827, Note_on_c, 0, 72, 66
3, 291832, Note_on_c, 0, 77, 85
3, 291842, Note_on_c, 0, 74, 77
3, 291858, Note_on_c, 0, 65, 68
3, 292018, Note_on_c, 0, 65, 0
3, 292018, Control_c, 0, 64, 127
3, 292107, Note_on_c, 0, 77, 0
3, 292107, Note_on_c, 0, 74, 0
3, 292124, Note_on_c, 0, 72, 0
3, 292172, Note_on_c, 0, 68, 0
3, 292723, Control_c, 0, 64, 0
3, 292757, Note_on_c, 0, 67, 75
3, 292765, Note_on_c, 0, 63, 57
3, 292783, Note_on_c, 0, 59, 53
3, 292998, Note_on_c, 0, 55, 6
3, 293051, Control_c, 0, 64, 127
3, 293254, Note_on_c, 0, 55, 0
3, 293266, Note_on_c, 0, 59, 0
3, 293426, Note_on_c, 0, 63, 0
3, 293454, Note_on_c, 0, 67, 0
3, 293636, Control_c, 0, 64, 0
3, 293712, Note_on_c, 0, 62, 76
3, 293723, Note_on_c, 0, 58, 42
3, 293732, Note_on_c, 0, 48, 40
3, 293744, Note_on_c, 0, 55, 44
3, 293909, Control_c, 0, 64, 127
3, 293977, Note_on_c, 0, 58, 0
3, 293996, Note_on_c, 0, 62, 0
3, 294083, Note_on_c, 0, 48, 0
3, 294105, Note_on_c, 0, 55, 0
3, 294648, Control_c, 0, 64, 0
3, 294710, Note_on_c, 0, 51, 44
3, 294712, Note_on_c, 0, 79, 75
3, 294726, Note_on_c, 0, 62, 57
3, 294736, Note_on_c, 0, 57, 66
3, 294736, Note_on_c, 0, 67, 64
3, 294896, Control_c, 0, 64, 127
3, 294926, Note_on_c, 0, 67, 0
3, 295019, Note_on_c, 0, 79, 0
3, 295151, Note_on_c, 0, 51, 0
3, 295185, Note_on_c, 0, 62, 0
3, 295287, Note_on_c, 0, 57, 0
3, 296172, Control_c, 0, 64, 0
3, 296237, Note_on_c, 0, 89, 77
3, 296252, Note_on_c, 0, 77, 93
3, 296253, Note_on_c, 0, 63, 79
3, 296258, Note_on_c, 0, 57, 75
3, 296278, Note_on_c, 0, 87, 57
3, 296291, Note_on_c, 0, 60, 57
3, 296322, Note_on_c, 0, 57, 0
3, 296331, Note_on_c, 0, 87, 0
3, 296344, Note_on_c, 0, 63, 0
3, 296347, Note_on_c, 0, 60, 0
3, 296365, Note_on_c, 0, 77, 0
3, 296409, Note_on_c, 0, 89, 0
3, 297199, Note_on_c, 0, 89, 98
3, 297199, Note_on_c, 0, 58, 67
3, 297202, Note_on_c, 0, 77, 103
3, 297203, Note_on_c, 0, 60, 68
3, 297207, Note_on_c, 0, 67, 77
3, 297218, Note_on_c, 0, 63, 63
3, 297263, Note_on_c, 0, 85, 35
3, 297316, Note_on_c, 0, 85, 0
3, 297503, Control_c, 0, 64, 127
3, 297618, Note_on_c, 0, 89, 0
3, 297679, Note_on_c, 0, 67, 0
3, 297679, Note_on_c, 0, 58, 0
3, 297685, Note_on_c, 0, 77, 0
3, 297698, Note_on_c, 0, 60, 0
3, 297711, Note_on_c, 0, 63, 0
3, 297807, Control_c, 0, 64, 0
3, 297839, Note_on_c, 0, 87, 89
3, 297855, Note_on_c, 0, 75, 76
3, 297858, Note_on_c, 0, 67, 63
3, 297871, Note_on_c, 0, 58, 63
3, 297882, Note_on_c, 0, 63, 40
3, 297884, Note_on_c, 0, 60, 50
3, 297982, Control_c, 0, 64, 127
3, 298346, Note_on_c, 0, 67, 0
3, 298444, Note_on_c, 0, 63, 0
3, 298454, Note_on_c, 0, 60, 0
3, 298502, Note_on_c, 0, 58, 0
3, 298829, Note_on_c, 0, 75, 0
3, 298829, Note_on_c, 0, 87, 0
3, 299460, Control_c, 0, 64, 0
3, 299462, Note_on_c, 0, 63, 46
3, 299481, Note_on_c, 0, 53, 51
3, 299492, Note_on_c, 0, 60, 54
3, 299510, Note_on_c, 0, 58, 42
3, 300421, Control_c, 0, 64, 127
3, 300751, Note_on_c, 0, 63, 0
3, 300765, Note_on_c, 0, 60, 0
3, 300769, Note_on_c, 0, 53, 0
3, 300872, Note_on_c, 0, 58, 0
3, 301086, Note_on_c, 0, 65, 75
3, 301106, Control_c, 0, 64, 0
3, 301130, Note_on_c, 0, 53, 33
3, 301130, Note_on_c, 0, 58, 24
3, 301150, Note_on_c, 0, 63, 16
3, 301162, Note_on_c, 0, 60, 32
3, 301421, Control_c, 0, 64, 127
3, 301614, Note_on_c, 0, 65, 0
3, 301740, Note_on_c, 0, 75, 106
3, 301788, Note_on_c, 0, 53, 0
3, 301874, Note_on_c, 0, 60, 0
3, 301921, Note_on_c, 0, 63, 0
3, 302166, Note_on_c, 0, 75, 0
3, 302176, Note_on_c, 0, 58, 0
3, 302395, Note_on_c, 0, 75, 87
3, 302411, Control_c, 0, 64, 0
3, 302441, Note_on_c, 0, 54, 59
3, 302454, Note_on_c, 0, 65, 57
3, 302464, Note_on_c, 0, 60, 53
3, 303033, Control_c, 0, 64, 127
3, 303313, Note_on_c, 0, 65, 0
3, 303339, Note_on_c, 0, 60, 0
3, 303530, Note_on_c, 0, 54, 0
3, 303671, Note_on_c, 0, 75, 0
3, 303980, Control_c, 0, 64, 0
3, 303996, Note_on_c, 0, 74, 83
3, 304003, Note_on_c, 0, 63, 51
3, 304012, Note_on_c, 0, 59, 58
3, 304031, Note_on_c, 0, 53, 50
3, 304382, Control_c, 0, 64, 127
3, 304494, Note_on_c, 0, 59, 0
3, 304585, Note_on_c, 0, 63, 0
3, 304652, Note_on_c, 0, 53, 0
3, 304653, Note_on_c, 0, 74, 0
3, 305246, Control_c, 0, 64, 0
3, 305278, Note_on_c, 0, 63, 61
3, 305307, Note_on_c, 0, 51, 42
3, 305329, Note_on_c, 0, 62, 45
3, 305344, Note_on_c, 0, 57, 45
3, 305858, Control_c, 0, 64, 127
3, 306144, Note_on_c, 0, 63, 0
3, 306478, Note_on_c, 0, 62, 0
3, 307194, Note_on_c, 0, 74, 114
3, 307214, Note_on_c, 0, 62, 59
3, 307345, Note_on_c, 0, 62, 0
3, 307413, Note_on_c, 0, 57, 0
3, 307712, Note_on_c, 0, 51, 0
3, 307805, Note_on_c, 0, 74, 0
3, 308112, Control_c, 0, 64, 0
3, 308152, Note_on_c, 0, 74, 88
3, 308172, Note_on_c, 0, 63, 54
3, 308178, Note_on_c, 0, 67, 67
3, 308202, Note_on_c, 0, 58, 42
3, 308952, Control_c, 0, 64, 127
3, 309362, Note_on_c, 0, 63, 0
3, 309474, Note_on_c, 0, 67, 0
3, 309517, Note_on_c, 0, 74, 0
3, 309707, Note_on_c, 0, 72, 51
3, 309919, Note_on_c, 0, 58, 0
3, 310107, Note_on_c, 0, 72, 0
3, 311023, Control_c, 0, 64, 0
3, 311064, Note_on_c, 0, 86, 68
3, 311069, Note_on_c, 0, 63, 32
3, 311071, Note_on_c, 0, 74, 46
3, 311090, Note_on_c, 0, 60, 37
3, 311093, Note_on_c, 0, 55, 55
3, 311120, Note_on_c, 0, 57, 44
3, 311599, Control_c, 0, 64, 127
3, 311886, Note_on_c, 0, 55, 0
3, 311918, Note_on_c, 0, 63, 0
3, 311937, Note_on_c, 0, 57, 0
3, 311961, Note_on_c, 0, 60, 0
3, 312367, Note_on_c, 0, 74, 0
3, 312474, Note_on_c, 0, 86, 0
3, 313487, Note_on_c, 0, 55, 84
3, 313487, Note_on_c, 0, 63, 92
3, 313509, Note_on_c, 0, 96, 107
3, 313519, Note_on_c, 0, 91, 103
3, 313519, Note_on_c, 0, 84, 109
3, 313541, Note_on_c, 0, 60, 55
3, 313560, Note_on_c, 0, 57, 51
3, 313709, Note_on_c, 0, 55, 0
3, 313765, Note_on_c, 0, 84, 0
3, 313796, Note_on_c, 0, 57, 0
3, 313809, Note_on_c, 0, 91, 0
3, 313818, Note_on_c, 0, 96, 0
3, 313839, Note_on_c, 0, 63, 0
3, 313903, Note_on_c, 0, 60, 0
3, 313909, Control_c, 0, 64, 0
3, 314031, Note_on_c, 0, 96, 102
3, 314031, Note_on_c, 0, 54, 81
3, 314034, Note_on_c, 0, 63, 79
3, 314036, Note_on_c, 0, 91, 96
3, 314041, Note_on_c, 0, 84, 88
3, 314050, Note_on_c, 0, 60, 85
3, 314373, Control_c, 0, 64, 127
3, 314776, Note_on_c, 0, 63, 0
3, 314803, Note_on_c, 0, 96, 0
3, 314822, Note_on_c, 0, 91, 0
3, 314960, Note_on_c, 0, 54, 0
3, 315020, Note_on_c, 0, 84, 0
3, 315029, Note_on_c, 0, 60, 0
3, 315500, Note_on_c, 0, 94, 106
3, 315509, Note_on_c, 0, 82, 94
3, 315516, Note_on_c, 0, 89, 96
3, 315519, Note_on_c, 0, 54, 77
3, 315530, Note_on_c, 0, 63, 80
3, 315532, Note_on_c, 0, 60, 80
3, 315560, Control_c, 0, 64, 0
3, 315887, Control_c, 0, 64, 127
3, 315932, Note_on_c, 0, 60, 0
3, 316036, Note_on_c, 0, 63, 0
3, 316095, Note_on_c, 0, 54, 0
3, 316112, Note_on_c, 0, 94, 0
3, 316116, Note_on_c, 0, 89, 0
3, 316224, Note_on_c, 0, 82, 0
3, 316782, Control_c, 0, 64, 0
3, 316814, Note_on_c, 0, 92, 110
3, 316818, Note_on_c, 0, 56, 77
3, 316819, Note_on_c, 0, 87, 110
3, 316821, Note_on_c, 0, 80, 105
3, 316822, Note_on_c, 0, 61, 84
3, 316835, Note_on_c, 0, 55, 97
3, 316845, Note_on_c, 0, 65, 92
3, 317454, Control_c, 0, 64, 127
3, 318000, Note_on_c, 0, 65, 0
3, 318054, Note_on_c, 0, 55, 0
3, 318080, Note_on_c, 0, 61, 0
3, 318136, Note_on_c, 0, 80, 0
3, 318141, Note_on_c, 0, 56, 0
3, 318160, Note_on_c, 0, 92, 0
3, 318171, Note_on_c, 0, 87, 0
3, 318418, Note_on_c, 0, 92, 72
3, 318437, Note_on_c, 0, 80, 50
3, 318447, Note_on_c, 0, 87, 72
3, 318456, Note_on_c, 0, 65, 67
3, 318458, Note_on_c, 0, 56, 42
3, 318460, Note_on_c, 0, 55, 74
3, 318463, Note_on_c, 0, 61, 42
3, 318917, Note_on_c, 0, 65, 0
3, 318960, Note_on_c, 0, 55, 0
3, 318967, Note_on_c, 0, 61, 0
3, 319117, Note_on_c, 0, 92, 0
3, 319148, Note_on_c, 0, 80, 0
3, 319191, Note_on_c, 0, 87, 0
3, 319349, Note_on_c, 0, 56, 0
3, 319713, Control_c, 0, 64, 0
3, 319726, Note_on_c, 0, 92, 72
3, 319726, Note_on_c, 0, 80, 49
3, 319737, Note_on_c, 0, 87, 59
3, 319737, Note_on_c, 0, 53, 62
3, 319744, Note_on_c, 0, 59, 54
3, 319747, Note_on_c, 0, 64, 57
3, 320084, Control_c, 0, 64, 127
3, 320466, Note_on_c, 0, 64, 0
3, 320479, Note_on_c, 0, 92, 0
3, 320495, Note_on_c, 0, 53, 0
3, 320509, Note_on_c, 0, 80, 0
3, 320540, Note_on_c, 0, 59, 0
3, 320544, Note_on_c, 0, 87, 0
3, 321228, Note_on_c, 0, 53, 53
3, 321232, Control_c, 0, 64, 0
3, 321240, Note_on_c, 0, 91, 57
3, 321257, Note_on_c, 0, 63, 49
3, 321257, Note_on_c, 0, 59, 59
3, 321269, Note_on_c, 0, 79, 46
3, 321275, Note_on_c, 0, 86, 68
3, 321288, Note_on_c, 0, 56, 37
3, 321481, Note_on_c, 0, 91, 0
3, 321499, Note_on_c, 0, 59, 0
3, 321502, Note_on_c, 0, 86, 0
3, 321568, Control_c, 0, 64, 127
3, 321579, Note_on_c, 0, 63, 0
3, 321638, Note_on_c, 0, 79, 0
3, 321670, Note_on_c, 0, 56, 0
3, 321670, Note_on_c, 0, 53, 0
3, 322488, Control_c, 0, 64, 0
3, 322589, Note_on_c, 0, 67, 67
3, 322594, Note_on_c, 0, 48, 46
3, 322605, Note_on_c, 0, 55, 40
3, 322626, Note_on_c, 0, 60, 33
3, 322863, Control_c, 0, 64, 127
3, 322980, Note_on_c, 0, 55, 0
3, 323008, Note_on_c, 0, 48, 0
3, 323164, Note_on_c, 0, 60, 0
3, 323237, Note_on_c, 0, 67, 0
3, 323627, Note_on_c, 0, 72, 105
3, 323638, Note_on_c, 0, 71, 96
3, 323679, Note_on_c, 0, 60, 72
3, 323692, Note_on_c, 0, 71, 0
3, 323702, Note_on_c, 0, 67, 62
3, 323721, Note_on_c, 0, 63, 33
3, 324207, Note_on_c, 0, 72, 0
3, 324550, Note_on_c, 0, 74, 127
3, 325116, Note_on_c, 0, 74, 0
3, 325373, Note_on_c, 0, 60, 0
3, 325423, Control_c, 0, 64, 0
3, 325434, Note_on_c, 0, 75, 110
3, 325455, Note_on_c, 0, 58, 77
3, 325591, Note_on_c, 0, 67, 0
3, 325679, Note_on_c, 0, 63, 0
3, 325793, Control_c, 0, 64, 127
3, 326324, Note_on_c, 0, 75, 0
3, 326423, Note_on_c, 0, 77, 98
3, 326446, Note_on_c, 0, 67, 57
3, 326458, Note_on_c, 0, 63, 42
3, 326772, Note_on_c, 0, 77, 0
3, 326822, Note_on_c, 0, 67, 0
3, 326863, Note_on_c, 0, 78, 36
3, 326950, Note_on_c, 0, 78, 0
3, 327231, Note_on_c, 0, 63, 0
3, 327303, Note_on_c, 0, 58, 0
3, 327356, Note_on_c, 0, 79, 96
3, 327599, Note_on_c, 0, 79, 0
3, 328244, Control_c, 0, 64, 0
3, 328317, Note_on_c, 0, 32, 75
3, 328325, Note_on_c, 0, 82, 105
3, 328335, Note_on_c, 0, 77, 115
3, 328335, Note_on_c, 0, 44, 76
3, 328335, Note_on_c, 0, 86, 118
3, 328557, Control_c, 0, 64, 127
3, 328609, Note_on_c, 0, 32, 0
3, 328677, Note_on_c, 0, 44, 0
3, 329391, Note_on_c, 0, 54, 40
3, 329396, Note_on_c, 0, 65, 62
3, 329442, Note_on_c, 0, 60, 61
3, 329458, Note_on_c, 0, 58, 45
3, 329709, Note_on_c, 0, 60, 0
3, 329823, Note_on_c, 0, 65, 0
3, 329840, Note_on_c, 0, 58, 0
3, 330127, Note_on_c, 0, 86, 0
3, 330414, Note_on_c, 0, 65, 50
3, 330432, Note_on_c, 0, 82, 0
3, 330445, Note_on_c, 0, 60, 48
3, 330480, Note_on_c, 0, 58, 29
3, 330574, Note_on_c, 0, 65, 0
3, 330651, Note_on_c, 0, 77, 0
3, 330842, Note_on_c, 0, 60, 0
3, 330863, Note_on_c, 0, 58, 0
3, 330873, Note_on_c, 0, 84, 94
3, 330991, Note_on_c, 0, 54, 0
3, 331037, Note_on_c, 0, 84, 0
3, 331313, Control_c, 0, 64, 0
3, 331325, Note_on_c, 0, 53, 64
3, 331345, Note_on_c, 0, 75, 71
3, 331359, Note_on_c, 0, 82, 29
3, 331742, Control_c, 0, 64, 127
3, 332079, Note_on_c, 0, 75, 0
3, 332260, Note_on_c, 0, 67, 33
3, 332263, Note_on_c, 0, 82, 0
3, 332271, Note_on_c, 0, 60, 49
3, 332274, Note_on_c, 0, 75, 45
3, 332276, Note_on_c, 0, 68, 59
3, 332690, Note_on_c, 0, 67, 0
3, 332751, Note_on_c, 0, 60, 0
3, 333115, Note_on_c, 0, 68, 0
3, 333167, Note_on_c, 0, 80, 76
3, 333174, Note_on_c, 0, 60, 49
3, 333262, Note_on_c, 0, 60, 0
3, 333369, Note_on_c, 0, 75, 0
3, 333423, Note_on_c, 0, 53, 0
3, 333455, Note_on_c, 0, 80, 0
3, 334100, Control_c, 0, 64, 0
3, 334116, Note_on_c, 0, 79, 58
3, 334139, Note_on_c, 0, 56, 42
3, 334147, Note_on_c, 0, 72, 31
3, 334150, Note_on_c, 0, 50, 51
3, 334161, Note_on_c, 0, 65, 41
3, 334204, Note_on_c, 0, 60, 37
3, 334578, Control_c, 0, 64, 127
3, 334802, Note_on_c, 0, 60, 0
3, 334850, Note_on_c, 0, 65, 0
3, 334865, Note_on_c, 0, 72, 0
3, 334865, Note_on_c, 0, 56, 0
3, 335111, Note_on_c, 0, 79, 0
3, 335154, Note_on_c, 0, 72, 31
3, 335158, Note_on_c, 0, 65, 48
3, 335185, Note_on_c, 0, 56, 32
3, 335207, Note_on_c, 0, 60, 31
3, 335900, Note_on_c, 0, 65, 0
3, 335964, Note_on_c, 0, 72, 0
3, 336015, Note_on_c, 0, 50, 0
3, 336065, Note_on_c, 0, 77, 71
3, 336082, Note_on_c, 0, 56, 0
3, 336105, Note_on_c, 0, 60, 0
3, 336484, Note_on_c, 0, 77, 0
3, 336985, Note_on_c, 0, 75, 58
3, 337002, Control_c, 0, 64, 0
3, 337014, Note_on_c, 0, 71, 48
3, 337017, Note_on_c, 0, 63, 29
3, 337032, Note_on_c, 0, 53, 36
3, 337032, Note_on_c, 0, 59, 46
3, 337519, Control_c, 0, 64, 127
3, 337679, Note_on_c, 0, 59, 0
3, 337735, Note_on_c, 0, 63, 0
3, 337983, Note_on_c, 0, 71, 0
3, 338089, Note_on_c, 0, 59, 36
3, 338102, Note_on_c, 0, 63, 11
3, 338295, Note_on_c, 0, 75, 0
3, 338656, Note_on_c, 0, 59, 0
3, 338804, Note_on_c, 0, 63, 0
3, 338948, Note_on_c, 0, 71, 127
3, 339001, Note_on_c, 0, 53, 0
3, 339220, Note_on_c, 0, 71, 0
3, 339439, Note_on_c, 0, 71, 113
3, 339599, Note_on_c, 0, 71, 0
3, 339936, Control_c, 0, 64, 0
3, 339940, Note_on_c, 0, 74, 124
3, 339946, Note_on_c, 0, 51, 71
3, 339947, Note_on_c, 0, 62, 77
3, 339953, Note_on_c, 0, 57, 74
3, 340692, Control_c, 0, 64, 127
3, 340701, Note_on_c, 0, 73, 46
3, 340762, Note_on_c, 0, 74, 0
3, 340791, Note_on_c, 0, 72, 59
3, 340878, Note_on_c, 0, 73, 0
3, 340994, Note_on_c, 0, 72, 0
3, 341014, Note_on_c, 0, 71, 77
3, 341431, Note_on_c, 0, 71, 0
3, 341911, Note_on_c, 0, 86, 89
3, 342694, Note_on_c, 0, 86, 0
3, 342790, Note_on_c, 0, 83, 49
3, 343028, Note_on_c, 0, 83, 0
3, 343575, Note_on_c, 0, 62, 0
3, 343629, Note_on_c, 0, 57, 0
3, 343769, Note_on_c, 0, 51, 0
3, 343796, Note_on_c, 0, 98, 59
3, 344626, Note_on_c, 0, 98, 0
3, 344735, Note_on_c, 0, 95, 41
3, 345696, Note_on_c, 0, 24, 46
3, 345981, Note_on_c, 0, 95, 0
3, 347698, Control_c, 0, 64, 0
3, 350284, Note_on_c, 0, 24, 0
3, 350284, End_track
4, 0, Start_track
4, 0, Title_t, "Bass"
4, 0, Program_c, 1, 32
4, 0, Control_c, 1, 7, 99
4, 0, Control_c, 1, 10, 64
4, 20160, Note_on_c, 1, 43, 23
4, 21033, Note_on_c, 1, 48, 34
4, 21141, Note_on_c, 1, 43, 0
4, 21946, Note_on_c, 1, 48, 0
4, 21959, Note_on_c, 1, 50, 37
4, 22888, Note_on_c, 1, 50, 0
4, 22940, Note_on_c, 1, 51, 51
4, 23928, Note_on_c, 1, 53, 41
4, 24047, Note_on_c, 1, 51, 0
4, 24898, Note_on_c, 1, 55, 39
4, 24952, Note_on_c, 1, 53, 0
4, 25882, Note_on_c, 1, 55, 0
4, 25961, Note_on_c, 1, 44, 33
4, 27874, Note_on_c, 1, 55, 75
4, 28737, Note_on_c, 1, 55, 0
4, 28877, Note_on_c, 1, 55, 54
4, 29041, Note_on_c, 1, 44, 0
4, 29786, Note_on_c, 1, 55, 0
4, 29844, Note_on_c, 1, 53, 38
4, 31668, Note_on_c, 1, 44, 38
4, 31770, Note_on_c, 1, 53, 0
4, 33600, Note_on_c, 1, 55, 65
4, 34297, Note_on_c, 1, 44, 0
4, 34468, Note_on_c, 1, 55, 0
4, 34601, Note_on_c, 1, 55, 54
4, 35479, Note_on_c, 1, 55, 0
4, 35537, Note_on_c, 1, 53, 41
4, 37320, Note_on_c, 1, 43, 32
4, 37384, Note_on_c, 1, 53, 0
4, 39329, Note_on_c, 1, 53, 35
4, 39452, Note_on_c, 1, 43, 0
4, 40026, Note_on_c, 1, 53, 0
4, 40327, Note_on_c, 1, 53, 39
4, 41296, Note_on_c, 1, 51, 32
4, 41359, Note_on_c, 1, 53, 0
4, 43060, Note_on_c, 1, 51, 0
4, 43210, Note_on_c, 1, 44, 39
4, 44674, Note_on_c, 1, 42, 41
4, 44743, Note_on_c, 1, 44, 0
4, 45009, Note_on_c, 1, 42, 0
4, 45120, Note_on_c, 1, 43, 37
4, 45525, Note_on_c, 1, 43, 0
4, 46107, Note_on_c, 1, 36, 65
4, 48971, Note_on_c, 1, 34, 77
4, 48987, Note_on_c, 1, 36, 0
4, 51441, Note_on_c, 1, 42, 86
4, 51690, Note_on_c, 1, 34, 0
4, 51785, Note_on_c, 1, 42, 0
4, 51852, Note_on_c, 1, 41, 79
4, 54450, Note_on_c, 1, 36, 34
4, 54514, Note_on_c, 1, 36, 0
4, 54753, Note_on_c, 1, 39, 67
4, 54769, Note_on_c, 1, 41, 0
4, 57593, Note_on_c, 1, 38, 77
4, 57665, Note_on_c, 1, 39, 0
4, 59189, Note_on_c, 1, 32, 77
4, 59286, Note_on_c, 1, 38, 0
4, 59569, Note_on_c, 1, 32, 0
4, 59673, Note_on_c, 1, 31, 95
4, 61463, Note_on_c, 1, 43, 95
4, 62873, Note_on_c, 1, 31, 0
4, 62977, Note_on_c, 1, 35, 58
4, 63282, Note_on_c, 1, 43, 0
4, 63395, Note_on_c, 1, 36, 85
4, 63400, Note_on_c, 1, 35, 0
4, 65851, Note_on_c, 1, 48, 77
4, 66207, Note_on_c, 1, 48, 0
4, 66225, Note_on_c, 1, 36, 0
4, 66251, Note_on_c, 1, 46, 64
4, 68752, Note_on_c, 1, 43, 39
4, 69110, Note_on_c, 1, 46, 0
4, 69113, Note_on_c, 1, 43, 0
4, 69137, Note_on_c, 1, 44, 71
4, 71991, Note_on_c, 1, 43, 67
4, 71993, Note_on_c, 1, 44, 0
4, 73906, Note_on_c, 1, 31, 80
4, 73978, Note_on_c, 1, 43, 0
4, 74873, Note_on_c, 1, 36, 78
4, 74908, Note_on_c, 1, 31, 0
4, 78670, Note_on_c, 1, 46, 88
4, 78934, Note_on_c, 1, 36, 0
4, 80262, Note_on_c, 1, 36, 50
4, 80353, Note_on_c, 1, 36, 0
4, 80597, Note_on_c, 1, 45, 71
4, 80609, Note_on_c, 1, 46, 0
4, 83496, Note_on_c, 1, 45, 0
4, 83517, Note_on_c, 1, 38, 64
4, 86360, Note_on_c, 1, 43, 81
4, 86400, Note_on_c, 1, 38, 0
4, 86886, Note_on_c, 1, 44, 49
4, 86977, Note_on_c, 1, 43, 0
4, 87296, Note_on_c, 1, 44, 0
4, 87323, Note_on_c, 1, 43, 52
4, 90230, Note_on_c, 1, 31, 81
4, 90290, Note_on_c, 1, 43, 0
4, 91166, Note_on_c, 1, 35, 81
4, 91230, Note_on_c, 1, 31, 0
4, 92197, Note_on_c, 1, 35, 0
4, 92210, Note_on_c, 1, 36, 83
4, 94849, Note_on_c, 1, 34, 38
4, 95048, Note_on_c, 1, 43, 90
4, 95088, Note_on_c, 1, 34, 0
4, 95120, Note_on_c, 1, 36, 0
4, 96913, Note_on_c, 1, 30, 78
4, 97009, Note_on_c, 1, 43, 0
4, 97938, Note_on_c, 1, 29, 73
4, 97942, Note_on_c, 1, 30, 0
4, 98010, Note_on_c, 1, 31, 24
4, 98066, Note_on_c, 1, 31, 0
4, 99499, Note_on_c, 1, 36, 40
4, 99777, Note_on_c, 1, 36, 0
4, 99851, Note_on_c, 1, 41, 95
4, 99952, Note_on_c, 1, 29, 0
4, 100771, Note_on_c, 1, 39, 77
4, 100774, Note_on_c, 1, 41, 0
4, 103621, Note_on_c, 1, 39, 0
4, 103705, Note_on_c, 1, 38, 66
4, 104633, Note_on_c, 1, 44, 81
4, 106181, Note_on_c, 1, 46, 74
4, 106277, Note_on_c, 1, 44, 0
4, 106459, Note_on_c, 1, 38, 0
4, 106544, Note_on_c, 1, 46, 0
4, 106605, Note_on_c, 1, 44, 59
4, 107434, Note_on_c, 1, 44, 0
4, 107474, Note_on_c, 1, 43, 42
4, 109051, Note_on_c, 1, 38, 62
4, 109378, Note_on_c, 1, 38, 0
4, 109462, Note_on_c, 1, 43, 0
4, 109466, Note_on_c, 1, 36, 64
4, 111896, Note_on_c, 1, 43, 41
4, 112213, Note_on_c, 1, 43, 0
4, 112320, Note_on_c, 1, 51, 75
4, 113157, Note_on_c, 1, 36, 0
4, 113282, Note_on_c, 1, 51, 0
4, 113282, Note_on_c, 1, 46, 71
4, 114810, Note_on_c, 1, 43, 28
4, 114901, Note_on_c, 1, 46, 0
4, 115162, Note_on_c, 1, 43, 0
4, 115202, Note_on_c, 1, 44, 62
4, 117099, Note_on_c, 1, 39, 78
4, 117192, Note_on_c, 1, 44, 0
4, 118055, Note_on_c, 1, 43, 87
4, 118143, Note_on_c, 1, 39, 0
4, 119088, Note_on_c, 1, 43, 0
4, 119090, Note_on_c, 1, 31, 88
4, 120951, Note_on_c, 1, 36, 77
4, 120962, Note_on_c, 1, 31, 0
4, 122851, Note_on_c, 1, 48, 88
4, 123106, Note_on_c, 1, 36, 0
4, 124469, Note_on_c, 1, 47, 83
4, 124470, Note_on_c, 1, 48, 0
4, 125445, Note_on_c, 1, 36, 44
4, 125520, Note_on_c, 1, 36, 0
4, 125792, Note_on_c, 1, 46, 67
4, 125825, Note_on_c, 1, 47, 0
4, 126727, Note_on_c, 1, 46, 0
4, 126738, Note_on_c, 1, 45, 66
4, 128582, Note_on_c, 1, 45, 0
4, 128594, Note_on_c, 1, 39, 62
4, 129543, Note_on_c, 1, 39, 0
4, 129543, Note_on_c, 1, 38, 68
4, 132449, Note_on_c, 1, 43, 74
4, 132522, Note_on_c, 1, 38, 0
4, 133002, Note_on_c, 1, 44, 56
4, 133128, Note_on_c, 1, 43, 0
4, 133421, Note_on_c, 1, 44, 0
4, 133466, Note_on_c, 1, 43, 34
4, 133943, Note_on_c, 1, 44, 53
4, 134001, Note_on_c, 1, 43, 0
4, 134360, Note_on_c, 1, 44, 0
4, 134380, Note_on_c, 1, 43, 37
4, 135274, Note_on_c, 1, 43, 0
4, 135301, Note_on_c, 1, 31, 77
4, 137804, Note_on_c, 1, 35, 60
4, 137871, Note_on_c, 1, 31, 0
4, 138159, Note_on_c, 1, 35, 0
4, 138239, Note_on_c, 1, 36, 54
4, 139215, Note_on_c, 1, 48, 90
4, 140080, Note_on_c, 1, 36, 0
4, 140763, Note_on_c, 1, 36, 51
4, 140863, Note_on_c, 1, 36, 0
4, 141050, Note_on_c, 1, 48, 0
4, 141104, Note_on_c, 1, 46, 62
4, 143657, Note_on_c, 1, 43, 44
4, 143751, Note_on_c, 1, 46, 0
4, 143874, Note_on_c, 1, 43, 0
4, 143970, Note_on_c, 1, 44, 62
4, 146522, Note_on_c, 1, 41, 63
4, 146738, Note_on_c, 1, 44, 0
4, 146817, Note_on_c, 1, 41, 0
4, 146891, Note_on_c, 1, 39, 61
4, 148786, Note_on_c, 1, 37, 62
4, 148821, Note_on_c, 1, 39, 0
4, 148983, Note_on_c, 1, 37, 0
4, 149330, Note_on_c, 1, 37, 55
4, 149609, Note_on_c, 1, 37, 0
4, 149682, Note_on_c, 1, 38, 66
4, 150693, Note_on_c, 1, 44, 85
4, 151481, Note_on_c, 1, 38, 0
4, 152251, Note_on_c, 1, 46, 58
4, 152343, Note_on_c, 1, 44, 0
4, 152547, Note_on_c, 1, 46, 0
4, 152628, Note_on_c, 1, 43, 57
4, 153232, Note_on_c, 1, 38, 50
4, 153236, Note_on_c, 1, 43, 0
4, 153501, Note_on_c, 1, 38, 0
4, 153603, Note_on_c, 1, 35, 58
4, 155164, Note_on_c, 1, 35, 0
4, 155188, Note_on_c, 1, 38, 54
4, 155521, Note_on_c, 1, 38, 0
4, 155585, Note_on_c, 1, 36, 60
4, 156530, Note_on_c, 1, 48, 85
4, 157699, Note_on_c, 1, 36, 0
4, 158080, Note_on_c, 1, 36, 45
4, 158252, Note_on_c, 1, 36, 0
4, 158417, Note_on_c, 1, 46, 68
4, 158430, Note_on_c, 1, 48, 0
4, 161246, Note_on_c, 1, 46, 0
4, 161257, Note_on_c, 1, 44, 55
4, 162794, Note_on_c, 1, 39, 44
4, 163082, Note_on_c, 1, 44, 0
4, 163138, Note_on_c, 1, 39, 0
4, 163173, Note_on_c, 1, 32, 63
4, 164034, Note_on_c, 1, 32, 0
4, 164124, Note_on_c, 1, 31, 71
4, 165722, Note_on_c, 1, 38, 72
4, 166047, Note_on_c, 1, 31, 0
4, 166452, Note_on_c, 1, 38, 0
4, 166457, Note_on_c, 1, 34, 65
4, 166650, Note_on_c, 1, 34, 0
4, 166746, Note_on_c, 1, 35, 62
4, 167002, Note_on_c, 1, 35, 0
4, 167062, Note_on_c, 1, 36, 80
4, 168633, Note_on_c, 1, 47, 91
4, 168755, Note_on_c, 1, 36, 0
4, 169934, Note_on_c, 1, 47, 0
4, 169966, Note_on_c, 1, 46, 77
4, 171473, Note_on_c, 1, 46, 0
4, 171575, Note_on_c, 1, 46, 77
4, 172892, Note_on_c, 1, 46, 0
4, 172897, Note_on_c, 1, 45, 74
4, 174705, Note_on_c, 1, 45, 0
4, 174742, Note_on_c, 1, 39, 62
4, 175617, Note_on_c, 1, 39, 0
4, 175650, Note_on_c, 1, 38, 64
4, 178548, Note_on_c, 1, 32, 78
4, 178553, Note_on_c, 1, 38, 0
4, 180450, Note_on_c, 1, 44, 83
4, 180609, Note_on_c, 1, 32, 0
4, 181067, Note_on_c, 1, 42, 51
4, 181091, Note_on_c, 1, 32, 31
4, 181155, Note_on_c, 1, 44, 0
4, 181187, Note_on_c, 1, 32, 0
4, 181287, Note_on_c, 1, 42, 0
4, 181412, Note_on_c, 1, 43, 57
4, 182008, Note_on_c, 1, 43, 0
4, 182035, Note_on_c, 1, 38, 64
4, 182182, Note_on_c, 1, 38, 0
4, 182360, Note_on_c, 1, 35, 66
4, 183698, Note_on_c, 1, 35, 0
4, 183754, Note_on_c, 1, 38, 61
4, 183932, Note_on_c, 1, 38, 0
4, 183991, Note_on_c, 1, 35, 71
4, 184206, Note_on_c, 1, 35, 0
4, 184307, Note_on_c, 1, 36, 72
4, 185940, Note_on_c, 1, 34, 28
4, 186097, Note_on_c, 1, 34, 0
4, 186187, Note_on_c, 1, 48, 53
4, 186209, Note_on_c, 1, 36, 0
4, 186356, Note_on_c, 1, 48, 0
4, 186481, Note_on_c, 1, 46, 31
4, 186630, Note_on_c, 1, 46, 0
4, 186801, Note_on_c, 1, 48, 77
4, 187430, Note_on_c, 1, 46, 43
4, 187451, Note_on_c, 1, 48, 0
4, 187726, Note_on_c, 1, 46, 0
4, 187859, Note_on_c, 1, 36, 14
4, 187982, Note_on_c, 1, 36, 0
4, 188131, Note_on_c, 1, 46, 68
4, 190043, Note_on_c, 1, 44, 63
4, 190120, Note_on_c, 1, 46, 0
4, 192502, Note_on_c, 1, 44, 0
4, 192537, Note_on_c, 1, 43, 56
4, 192849, Note_on_c, 1, 43, 0
4, 192924, Note_on_c, 1, 41, 54
4, 193874, Note_on_c, 1, 41, 0
4, 193891, Note_on_c, 1, 39, 74
4, 195492, Note_on_c, 1, 37, 45
4, 195609, Note_on_c, 1, 39, 0
4, 195800, Note_on_c, 1, 37, 0
4, 195833, Note_on_c, 1, 38, 66
4, 197457, Note_on_c, 1, 44, 40
4, 197555, Note_on_c, 1, 44, 0
4, 197795, Note_on_c, 1, 48, 84
4, 198597, Note_on_c, 1, 48, 0
4, 198632, Note_on_c, 1, 38, 0
4, 198701, Note_on_c, 1, 46, 47
4, 199247, Note_on_c, 1, 46, 0
4, 199279, Note_on_c, 1, 47, 71
4, 199667, Note_on_c, 1, 47, 0
4, 199761, Note_on_c, 1, 44, 37
4, 200936, Note_on_c, 1, 44, 0
4, 201018, Note_on_c, 1, 43, 55
4, 201158, Note_on_c, 1, 43, 0
4, 201311, Note_on_c, 1, 35, 69
4, 201606, Note_on_c, 1, 35, 0
4, 201683, Note_on_c, 1, 36, 64
4, 204121, Note_on_c, 1, 48, 94
4, 204477, Note_on_c, 1, 48, 0
4, 204561, Note_on_c, 1, 48, 72
4, 204774, Note_on_c, 1, 36, 0
4, 205432, Note_on_c, 1, 46, 63
4, 205468, Note_on_c, 1, 48, 0
4, 206433, Note_on_c, 1, 46, 0
4, 206441, Note_on_c, 1, 34, 62
4, 207333, Note_on_c, 1, 34, 0
4, 207379, Note_on_c, 1, 32, 72
4, 209939, Note_on_c, 1, 39, 35
4, 210163, Note_on_c, 1, 39, 0
4, 210254, Note_on_c, 1, 48, 79
4, 210285, Note_on_c, 1, 32, 0
4, 211172, Note_on_c, 1, 48, 0
4, 211219, Note_on_c, 1, 43, 58
4, 212179, Note_on_c, 1, 31, 62
4, 212257, Note_on_c, 1, 43, 0
4, 213115, Note_on_c, 1, 31, 0
4, 213131, Note_on_c, 1, 36, 68
4, 214674, Note_on_c, 1, 47, 89
4, 214817, Note_on_c, 1, 36, 0
4, 215699, Note_on_c, 1, 36, 44
4, 215787, Note_on_c, 1, 36, 0
4, 216051, Note_on_c, 1, 47, 0
4, 216057, Note_on_c, 1, 46, 69
4, 216995, Note_on_c, 1, 34, 69
4, 217225, Note_on_c, 1, 46, 0
4, 217937, Note_on_c, 1, 32, 71
4, 218028, Note_on_c, 1, 34, 0
4, 218843, Note_on_c, 1, 32, 0
4, 218876, Note_on_c, 1, 33, 69
4, 221723, Note_on_c, 1, 33, 0
4, 221735, Note_on_c, 1, 38, 73
4, 223333, Note_on_c, 1, 41, 54
4, 223621, Note_on_c, 1, 41, 0
4, 223731, Note_on_c, 1, 44, 81
4, 224600, Note_on_c, 1, 38, 0
4, 224610, Note_on_c, 1, 44, 0
4, 224648, Note_on_c, 1, 43, 74
4, 225594, Note_on_c, 1, 31, 79
4, 225602, Note_on_c, 1, 43, 0
4, 226501, Note_on_c, 1, 31, 0
4, 226607, Note_on_c, 1, 31, 78
4, 228228, Note_on_c, 1, 38, 45
4, 228370, Note_on_c, 1, 38, 0
4, 228484, Note_on_c, 1, 43, 95
4, 229299, Note_on_c, 1, 43, 0
4, 229421, Note_on_c, 1, 43, 85
4, 229711, Note_on_c, 1, 31, 0
4, 230362, Note_on_c, 1, 43, 0
4, 230404, Note_on_c, 1, 36, 85
4, 231365, Note_on_c, 1, 48, 90
4, 233332, Note_on_c, 1, 36, 0
4, 234276, Note_on_c, 1, 46, 70
4, 234293, Note_on_c, 1, 48, 0
4, 235268, Note_on_c, 1, 34, 67
4, 235332, Note_on_c, 1, 46, 0
4, 236135, Note_on_c, 1, 34, 0
4, 236212, Note_on_c, 1, 32, 69
4, 237538, Note_on_c, 1, 32, 0
4, 237618, Note_on_c, 1, 31, 66
4, 237985, Note_on_c, 1, 31, 0
4, 238053, Note_on_c, 1, 29, 68
4, 239634, Note_on_c, 1, 36, 50
4, 239715, Note_on_c, 1, 36, 0
4, 240005, Note_on_c, 1, 39, 83
4, 240062, Note_on_c, 1, 29, 0
4, 240763, Note_on_c, 1, 39, 0
4, 240931, Note_on_c, 1, 39, 75
4, 241800, Note_on_c, 1, 39, 0
4, 241925, Note_on_c, 1, 38, 63
4, 243834, Note_on_c, 1, 44, 82
4, 244418, Note_on_c, 1, 38, 0
4, 244772, Note_on_c, 1, 44, 0
4, 244796, Note_on_c, 1, 43, 75
4, 245701, Note_on_c, 1, 50, 67
4, 245747, Note_on_c, 1, 43, 0
4, 247650, Note_on_c, 1, 48, 71
4, 247668, Note_on_c, 1, 50, 0
4, 249127, Note_on_c, 1, 43, 55
4, 249370, Note_on_c, 1, 48, 0
4, 249517, Note_on_c, 1, 43, 0
4, 249589, Note_on_c, 1, 36, 75
4, 251482, Note_on_c, 1, 36, 0
4, 251530, Note_on_c, 1, 34, 72
4, 253074, Note_on_c, 1, 32, 72
4, 253155, Note_on_c, 1, 34, 0
4, 253331, Note_on_c, 1, 32, 0
4, 253436, Note_on_c, 1, 32, 55
4, 255307, Note_on_c, 1, 39, 73
4, 255331, Note_on_c, 1, 32, 0
4, 256313, Note_on_c, 1, 43, 88
4, 256319, Note_on_c, 1, 39, 0
4, 257234, Note_on_c, 1, 43, 0
4, 257298, Note_on_c, 1, 31, 77
4, 258178, Note_on_c, 1, 31, 0
4, 258290, Note_on_c, 1, 31, 79
4, 260106, Note_on_c, 1, 31, 0
4, 260165, Note_on_c, 1, 36, 66
4, 260650, Note_on_c, 1, 48, 50
4, 260941, Note_on_c, 1, 48, 0
4, 261119, Note_on_c, 1, 51, 71
4, 261917, Note_on_c, 1, 51, 0
4, 261988, Note_on_c, 1, 36, 0
4, 262020, Note_on_c, 1, 47, 69
4, 263012, Note_on_c, 1, 46, 74
4, 263084, Note_on_c, 1, 47, 0
4, 263859, Note_on_c, 1, 46, 0
4, 263988, Note_on_c, 1, 46, 67
4, 264858, Note_on_c, 1, 46, 0
4, 264905, Note_on_c, 1, 45, 65
4, 265906, Note_on_c, 1, 39, 74
4, 265934, Note_on_c, 1, 45, 0
4, 266854, Note_on_c, 1, 33, 77
4, 266902, Note_on_c, 1, 39, 0
4, 268789, Note_on_c, 1, 33, 0
4, 268820, Note_on_c, 1, 38, 79
4, 270315, Note_on_c, 1, 44, 77
4, 270656, Note_on_c, 1, 38, 0
4, 270680, Note_on_c, 1, 44, 0
4, 270760, Note_on_c, 1, 43, 60
4, 271251, Note_on_c, 1, 38, 58
4, 271570, Note_on_c, 1, 38, 0
4, 271586, Note_on_c, 1, 43, 0
4, 271689, Note_on_c, 1, 31, 80
4, 273207, Note_on_c, 1, 44, 69
4, 273527, Note_on_c, 1, 31, 0
4, 273555, Note_on_c, 1, 44, 0
4, 273623, Note_on_c, 1, 43, 53
4, 274116, Note_on_c, 1, 37, 70
4, 274183, Note_on_c, 1, 43, 0
4, 274532, Note_on_c, 1, 37, 0
4, 274580, Note_on_c, 1, 31, 75
4, 275564, Note_on_c, 1, 43, 59
4, 275847, Note_on_c, 1, 31, 0
4, 275924, Note_on_c, 1, 43, 0
4, 276028, Note_on_c, 1, 35, 61
4, 276456, Note_on_c, 1, 35, 0
4, 276478, Note_on_c, 1, 36, 75
4, 278965, Note_on_c, 1, 43, 44
4, 279175, Note_on_c, 1, 43, 0
4, 279358, Note_on_c, 1, 48, 69
4, 279636, Note_on_c, 1, 36, 0
4, 280282, Note_on_c, 1, 48, 0
4, 280305, Note_on_c, 1, 46, 54
4, 281224, Note_on_c, 1, 30, 67
4, 281494, Note_on_c, 1, 46, 0
4, 282209, Note_on_c, 1, 30, 0
4, 282236, Note_on_c, 1, 29, 58
4, 283236, Note_on_c, 1, 44, 84
4, 283872, Note_on_c, 1, 29, 0
4, 284730, Note_on_c, 1, 41, 67
4, 284882, Note_on_c, 1, 44, 0
4, 285137, Note_on_c, 1, 41, 0
4, 285141, Note_on_c, 1, 39, 80
4, 287044, Note_on_c, 1, 44, 75
4, 287084, Note_on_c, 1, 39, 0
4, 287329, Note_on_c, 1, 44, 0
4, 287558, Note_on_c, 1, 39, 57
4, 287925, Note_on_c, 1, 39, 0
4, 287981, Note_on_c, 1, 38, 65
4, 288948, Note_on_c, 1, 50, 83
4, 289903, Note_on_c, 1, 38, 0
4, 289927, Note_on_c, 1, 44, 64
4, 289940, Note_on_c, 1, 50, 0
4, 291379, Note_on_c, 1, 43, 67
4, 291428, Note_on_c, 1, 44, 0
4, 291788, Note_on_c, 1, 43, 0
4, 291865, Note_on_c, 1, 38, 60
4, 292738, Note_on_c, 1, 38, 0
4, 292818, Note_on_c, 1, 35, 62
4, 293740, Note_on_c, 1, 35, 0
4, 293812, Note_on_c, 1, 36, 45
4, 294348, Note_on_c, 1, 39, 68
4, 294691, Note_on_c, 1, 39, 0
4, 294788, Note_on_c, 1, 41, 66
4, 295095, Note_on_c, 1, 36, 0
4, 296218, Note_on_c, 1, 41, 0
4, 296220, Note_on_c, 1, 39, 50
4, 296651, Note_on_c, 1, 34, 69
4, 296736, Note_on_c, 1, 39, 0
4, 298507, Note_on_c, 1, 48, 80
4, 298873, Note_on_c, 1, 48, 0
4, 299049, Note_on_c, 1, 46, 69
4, 299432, Note_on_c, 1, 46, 0
4, 299451, Note_on_c, 1, 34, 0
4, 299526, Note_on_c, 1, 44, 65
4, 300424, Note_on_c, 1, 44, 0
4, 300470, Note_on_c, 1, 32, 69
4, 302426, Note_on_c, 1, 43, 74
4, 302485, Note_on_c, 1, 32, 0
4, 303377, Note_on_c, 1, 43, 0
4, 303412, Note_on_c, 1, 31, 80
4, 305331, Note_on_c, 1, 36, 63
4, 305337, Note_on_c, 1, 31, 0
4, 306307, Note_on_c, 1, 48, 68
4, 306357, Note_on_c, 1, 48, 0
4, 307208, Note_on_c, 1, 48, 76
4, 308101, Note_on_c, 1, 48, 0
4, 308155, Note_on_c, 1, 46, 77
4, 308266, Note_on_c, 1, 36, 0
4, 311043, Note_on_c, 1, 45, 79
4, 311113, Note_on_c, 1, 46, 0
4, 313492, Note_on_c, 1, 39, 64
4, 313527, Note_on_c, 1, 45, 0
4, 313930, Note_on_c, 1, 39, 0
4, 313933, Note_on_c, 1, 38, 68
4, 316787, Note_on_c, 1, 43, 80
4, 316919, Note_on_c, 1, 38, 0
4, 318309, Note_on_c, 1, 31, 76
4, 318345, Note_on_c, 1, 43, 0
4, 318724, Note_on_c, 1, 31, 0
4, 318814, Note_on_c, 1, 31, 84
4, 320612, Note_on_c, 1, 43, 76
4, 321504, Note_on_c, 1, 43, 0
4, 321606, Note_on_c, 1, 44, 54
4, 321803, Note_on_c, 1, 31, 0
4, 322088, Note_on_c, 1, 43, 54
4, 322172, Note_on_c, 1, 44, 0
4, 322516, Note_on_c, 1, 43, 0
4, 322597, Note_on_c, 1, 48, 77
4, 325461, Note_on_c, 1, 46, 80
4, 325562, Note_on_c, 1, 48, 0
4, 328187, Note_on_c, 1, 46, 0
4, 328358, Note_on_c, 1, 44, 90
4, 331211, Note_on_c, 1, 41, 80
4, 331258, Note_on_c, 1, 44, 0
4, 334149, Note_on_c, 1, 38, 91
4, 334197, Note_on_c, 1, 41, 0
4, 336943, Note_on_c, 1, 31, 96
4, 336975, Note_on_c, 1, 38, 0
4, 339883, Note_on_c, 1, 36, 70
4, 339973, Note_on_c, 1, 31, 0
4, 345019, Note_on_c, 1, 36, 0
4, 345019, End_track
5, 0, Start_track
5, 0, Title_t, "Drums"
5, 0, Program_c, 9, 0
5, 0, Control_c, 9, 7, 95
5, 8810, Note_on_c, 9, 81, 33
5, 9131, Note_on_c, 9, 81, 0
5, 9235, Note_on_c, 9, 80, 25
5, 9449, Note_on_c, 9, 80, 0
5, 9684, Note_on_c, 9, 80, 23
5, 9817, Note_on_c, 9, 80, 0
5, 10202, Note_on_c, 9, 81, 35
5, 10352, Note_on_c, 9, 81, 0
5, 10664, Note_on_c, 9, 80, 21
5, 10788, Note_on_c, 9, 80, 0
5, 11163, Note_on_c, 9, 80, 24
5, 11273, Note_on_c, 9, 80, 0
5, 11568, Note_on_c, 9, 80, 25
5, 11710, Note_on_c, 9, 80, 0
5, 12082, Note_on_c, 9, 81, 33
5, 12242, Note_on_c, 9, 81, 0
5, 12525, Note_on_c, 9, 80, 20
5, 12710, Note_on_c, 9, 80, 0
5, 13024, Note_on_c, 9, 80, 25
5, 13162, Note_on_c, 9, 80, 0
5, 13482, Note_on_c, 9, 80, 27
5, 13619, Note_on_c, 9, 80, 0
5, 14965, Note_on_c, 9, 81, 42
5, 15159, Note_on_c, 9, 81, 0
5, 15448, Note_on_c, 9, 80, 17
5, 15639, Note_on_c, 9, 80, 0
5, 15936, Note_on_c, 9, 80, 24
5, 16078, Note_on_c, 9, 80, 0
5, 16419, Note_on_c, 9, 80, 25
5, 16556, Note_on_c, 9, 80, 0
5, 16904, Note_on_c, 9, 80, 25
5, 17006, Note_on_c, 9, 80, 0
5, 17399, Note_on_c, 9, 80, 24
5, 17496, Note_on_c, 9, 80, 0
5, 17883, Note_on_c, 9, 81, 37
5, 18098, Note_on_c, 9, 81, 0
5, 18316, Note_on_c, 9, 80, 23
5, 18505, Note_on_c, 9, 80, 0
5, 18809, Note_on_c, 9, 80, 18
5, 18971, Note_on_c, 9, 80, 0
5, 19260, Note_on_c, 9, 80, 23
5, 19458, Note_on_c, 9, 80, 0
5, 21109, Note_on_c, 9, 81, 39
5, 21399, Note_on_c, 9, 81, 0
5, 21598, Note_on_c, 9, 80, 23
5, 21817, Note_on_c, 9, 80, 0
5, 22543, Note_on_c, 9, 80, 25
5, 22713, Note_on_c, 9, 80, 0
5, 23040, Note_on_c, 9, 80, 31
5, 23206, Note_on_c, 9, 80, 0
5, 23531, Note_on_c, 9, 80, 25
5, 23668, Note_on_c, 9, 80, 0
5, 24042, Note_on_c, 9, 80, 37
5, 24614, Note_on_c, 9, 80, 0
5, 24920, Note_on_c, 9, 81, 38
5, 25097, Note_on_c, 9, 81, 0
5, 25413, Note_on_c, 9, 80, 30
5, 25586, Note_on_c, 9, 80, 0
5, 25918, Note_on_c, 9, 80, 23
5, 26024, Note_on_c, 9, 80, 0
5, 26424, Note_on_c, 9, 80, 25
5, 26532, Note_on_c, 9, 80, 0
5, 26919, Note_on_c, 9, 81, 38
5, 27693, Note_on_c, 9, 81, 0
5, 27886, Note_on_c, 9, 80, 23
5, 28042, Note_on_c, 9, 80, 0
5, 28335, Note_on_c, 9, 80, 23
5, 28452, Note_on_c, 9, 80, 0
5, 28816, Note_on_c, 9, 80, 25
5, 29581, Note_on_c, 9, 80, 0
5, 29808, Note_on_c, 9, 81, 36
5, 30064, Note_on_c, 9, 81, 0
5, 30370, Note_on_c, 9, 80, 13
5, 30503, Note_on_c, 9, 80, 0
5, 30773, Note_on_c, 9, 80, 24
5, 30977, Note_on_c, 9, 80, 0
5, 31722, Note_on_c, 9, 80, 27
5, 32448, Note_on_c, 9, 80, 0
5, 32774, Note_on_c, 9, 81, 26
5, 33069, Note_on_c, 9, 81, 0
5, 33228, Note_on_c, 9, 80, 22
5, 33384, Note_on_c, 9, 80, 0
5, 33718, Note_on_c, 9, 80, 19
5, 33843, Note_on_c, 9, 80, 0
5, 34178, Note_on_c, 9, 59, 25
5, 34328, Note_on_c, 9, 59, 0
5, 34600, Note_on_c, 9, 59, 29
5, 34877, Note_on_c, 9, 59, 0
5, 35582, Note_on_c, 9, 81, 33
5, 35923, Note_on_c, 9, 81, 0
5, 36073, Note_on_c, 9, 80, 14
5, 36364, Note_on_c, 9, 80, 0
5, 36491, Note_on_c, 9, 81, 24
5, 36917, Note_on_c, 9, 81, 0
5, 36996, Note_on_c, 9, 80, 20
5, 37152, Note_on_c, 9, 80, 0
5, 38442, Note_on_c, 9, 81, 30
5, 38816, Note_on_c, 9, 81, 0
5, 38958, Note_on_c, 9, 80, 13
5, 39079, Note_on_c, 9, 80, 0
5, 39407, Note_on_c, 9, 81, 24
5, 39567, Note_on_c, 9, 81, 0
5, 39886, Note_on_c, 9, 81, 32
5, 40148, Note_on_c, 9, 81, 0
5, 40368, Note_on_c, 9, 80, 14
5, 40634, Note_on_c, 9, 80, 0
5, 40838, Note_on_c, 9, 81, 32
5, 41025, Note_on_c, 9, 81, 0
5, 41254, Note_on_c, 9, 81, 32
5, 41554, Note_on_c, 9, 81, 0
5, 41797, Note_on_c, 9, 80, 18
5, 42020, Note_on_c, 9, 80, 0
5, 42253, Note_on_c, 9, 81, 25
5, 42509, Note_on_c, 9, 81, 0
5, 42756, Note_on_c, 9, 80, 16
5, 42850, Note_on_c, 9, 80, 0
5, 43282, Note_on_c, 9, 81, 31
5, 43374, Note_on_c, 9, 81, 0
5, 44745, Note_on_c, 9, 59, 37
5, 44892, Note_on_c, 9, 59, 0
5, 45183, Note_on_c, 9, 59, 37
5, 45281, Note_on_c, 9, 59, 0
5, 45665, Note_on_c, 9, 36, 28
5, 45779, Note_on_c, 9, 36, 0
5, 45837, Note_on_c, 9, 59, 44
5, 45918, Note_on_c, 9, 59, 0
5, 46186, Note_on_c, 9, 59, 39
5, 46867, Note_on_c, 9, 59, 0
5, 47066, Note_on_c, 9, 44, 44
5, 47568, Note_on_c, 9, 44, 0
5, 47948, Note_on_c, 9, 59, 43
5, 48031, Note_on_c, 9, 59, 0
5, 49851, Note_on_c, 9, 44, 58
5, 49952, Note_on_c, 9, 59, 68
5, 50298, Note_on_c, 9, 44, 0
5, 50308, Note_on_c, 9, 59, 0
5, 50625, Note_on_c, 9, 59, 31
5, 50791, Note_on_c, 9, 59, 0
5, 50817, Note_on_c, 9, 44, 57
5, 50970, Note_on_c, 9, 59, 43
5, 51072, Note_on_c, 9, 59, 0
5, 51269, Note_on_c, 9, 44, 0
5, 51393, Note_on_c, 9, 38, 34
5, 51501, Note_on_c, 9, 38, 0
5, 51539, Note_on_c, 9, 53, 62
5, 51697, Note_on_c, 9, 53, 0
5, 51757, Note_on_c, 9, 36, 21
5, 51902, Note_on_c, 9, 53, 46
5, 52096, Note_on_c, 9, 36, 0
5, 52500, Note_on_c, 9, 36, 23
5, 52620, Note_on_c, 9, 36, 0
5, 52635, Note_on_c, 9, 53, 0
5, 52763, Note_on_c, 9, 44, 58
5, 52837, Note_on_c, 9, 59, 41
5, 53129, Note_on_c, 9, 44, 0
5, 53225, Note_on_c, 9, 59, 0
5, 53762, Note_on_c, 9, 36, 25
5, 53809, Note_on_c, 9, 59, 64
5, 53933, Note_on_c, 9, 36, 0
5, 54649, Note_on_c, 9, 59, 0
5, 55385, Note_on_c, 9, 59, 36
5, 55472, Note_on_c, 9, 59, 0
5, 55670, Note_on_c, 9, 44, 57
5, 55719, Note_on_c, 9, 59, 60
5, 56075, Note_on_c, 9, 44, 0
5, 56345, Note_on_c, 9, 59, 0
5, 57302, Note_on_c, 9, 59, 62
5, 57447, Note_on_c, 9, 59, 0
5, 57646, Note_on_c, 9, 59, 46
5, 58223, Note_on_c, 9, 59, 0
5, 58583, Note_on_c, 9, 44, 56
5, 58932, Note_on_c, 9, 44, 0
5, 59187, Note_on_c, 9, 37, 32
5, 59207, Note_on_c, 9, 59, 53
5, 59290, Note_on_c, 9, 59, 0
5, 59291, Note_on_c, 9, 37, 0
5, 59575, Note_on_c, 9, 59, 36
5, 59700, Note_on_c, 9, 59, 0
5, 59804, Note_on_c, 9, 37, 38
5, 60060, Note_on_c, 9, 37, 0
5, 60128, Note_on_c, 9, 53, 47
5, 60172, Note_on_c, 9, 51, 31
5, 60371, Note_on_c, 9, 53, 0
5, 60391, Note_on_c, 9, 51, 0
5, 60532, Note_on_c, 9, 37, 37
5, 60830, Note_on_c, 9, 37, 0
5, 61155, Note_on_c, 9, 59, 40
5, 61257, Note_on_c, 9, 59, 0
5, 61263, Note_on_c, 9, 37, 35
5, 61393, Note_on_c, 9, 44, 54
5, 61471, Note_on_c, 9, 59, 61
5, 61520, Note_on_c, 9, 37, 0
5, 61726, Note_on_c, 9, 44, 0
5, 61970, Note_on_c, 9, 37, 39
5, 62058, Note_on_c, 9, 59, 0
5, 62205, Note_on_c, 9, 37, 0
5, 62375, Note_on_c, 9, 44, 53
5, 62465, Note_on_c, 9, 59, 56
5, 62585, Note_on_c, 9, 37, 37
5, 62875, Note_on_c, 9, 44, 0
5, 63022, Note_on_c, 9, 37, 0
5, 63031, Note_on_c, 9, 59, 0
5, 63054, Note_on_c, 9, 46, 56
5, 64152, Note_on_c, 9, 46, 0
5, 64152, Note_on_c, 9, 59, 37
5, 64237, Note_on_c, 9, 59, 0
5, 64332, Note_on_c, 9, 44, 51
5, 64399, Note_on_c, 9, 59, 58
5, 64664, Note_on_c, 9, 44, 0
5, 65052, Note_on_c, 9, 59, 0
5, 65338, Note_on_c, 9, 59, 69
5, 66014, Note_on_c, 9, 59, 0
5, 66373, Note_on_c, 9, 59, 53
5, 66558, Note_on_c, 9, 59, 0
5, 67230, Note_on_c, 9, 44, 46
5, 67245, Note_on_c, 9, 59, 87
5, 67455, Note_on_c, 9, 44, 0
5, 68211, Note_on_c, 9, 46, 74
5, 68439, Note_on_c, 9, 46, 0
5, 68581, Note_on_c, 9, 59, 0
5, 68869, Note_on_c, 9, 59, 49
5, 68877, Note_on_c, 9, 36, 30
5, 68954, Note_on_c, 9, 59, 0
5, 69017, Note_on_c, 9, 36, 0
5, 69190, Note_on_c, 9, 59, 62
5, 69266, Note_on_c, 9, 36, 25
5, 69713, Note_on_c, 9, 59, 0
5, 69936, Note_on_c, 9, 36, 0
5, 70143, Note_on_c, 9, 44, 46
5, 70151, Note_on_c, 9, 59, 103
5, 70366, Note_on_c, 9, 44, 0
5, 71571, Note_on_c, 9, 59, 0
5, 71766, Note_on_c, 9, 59, 43
5, 71881, Note_on_c, 9, 59, 0
5, 72082, Note_on_c, 9, 59, 62
5, 72925, Note_on_c, 9, 51, 67
5, 72927, Note_on_c, 9, 59, 0
5, 72996, Note_on_c, 9, 44, 46
5, 73304, Note_on_c, 9, 44, 0
5, 73688, Note_on_c, 9, 59, 38
5, 73724, Note_on_c, 9, 51, 0
5, 73778, Note_on_c, 9, 59, 0
5, 73891, Note_on_c, 9, 44, 51
5, 73969, Note_on_c, 9, 59, 64
5, 74036, Note_on_c, 9, 40, 33
5, 74163, Note_on_c, 9, 40, 0
5, 74286, Note_on_c, 9, 44, 0
5, 74591, Note_on_c, 9, 40, 37
5, 74696, Note_on_c, 9, 59, 0
5, 74737, Note_on_c, 9, 40, 0
5, 74945, Note_on_c, 9, 59, 71
5, 75011, Note_on_c, 9, 36, 25
5, 75163, Note_on_c, 9, 36, 0
5, 75606, Note_on_c, 9, 36, 34
5, 75618, Note_on_c, 9, 59, 0
5, 75769, Note_on_c, 9, 36, 0
5, 75919, Note_on_c, 9, 59, 62
5, 75940, Note_on_c, 9, 44, 53
5, 76321, Note_on_c, 9, 44, 0
5, 76509, Note_on_c, 9, 51, 55
5, 76532, Note_on_c, 9, 59, 0
5, 76581, Note_on_c, 9, 44, 48
5, 76725, Note_on_c, 9, 44, 0
5, 76827, Note_on_c, 9, 51, 0
5, 76895, Note_on_c, 9, 53, 63
5, 76915, Note_on_c, 9, 44, 50
5, 76942, Note_on_c, 9, 36, 32
5, 77181, Note_on_c, 9, 36, 0
5, 77373, Note_on_c, 9, 44, 0
5, 77625, Note_on_c, 9, 53, 0
5, 77811, Note_on_c, 9, 59, 49
5, 78066, Note_on_c, 9, 59, 0
5, 78732, Note_on_c, 9, 59, 84
5, 79938, Note_on_c, 9, 59, 0
5, 80315, Note_on_c, 9, 59, 47
5, 80488, Note_on_c, 9, 59, 0
5, 80648, Note_on_c, 9, 59, 71
5, 81273, Note_on_c, 9, 59, 0
5, 81557, Note_on_c, 9, 46, 58
5, 82015, Note_on_c, 9, 46, 0
5, 82187, Note_on_c, 9, 59, 47
5, 82285, Note_on_c, 9, 59, 0
5, 82556, Note_on_c, 9, 59, 58
5, 82986, Note_on_c, 9, 59, 0
5, 83468, Note_on_c, 9, 59, 80
5, 83494, Note_on_c, 9, 38, 29
5, 83577, Note_on_c, 9, 38, 0
5, 83837, Note_on_c, 9, 38, 30
5, 83964, Note_on_c, 9, 38, 0
5, 84140, Note_on_c, 9, 59, 0
5, 84195, Note_on_c, 9, 36, 24
5, 84361, Note_on_c, 9, 36, 0
5, 84470, Note_on_c, 9, 44, 37
5, 84556, Note_on_c, 9, 59, 53
5, 84931, Note_on_c, 9, 59, 0
5, 84947, Note_on_c, 9, 44, 0
5, 85169, Note_on_c, 9, 59, 37
5, 85266, Note_on_c, 9, 59, 0
5, 85456, Note_on_c, 9, 44, 48
5, 85501, Note_on_c, 9, 59, 50
5, 85923, Note_on_c, 9, 59, 0
5, 86042, Note_on_c, 9, 44, 0
5, 87011, Note_on_c, 9, 59, 48
5, 87045, Note_on_c, 9, 44, 43
5, 87103, Note_on_c, 9, 59, 0
5, 87232, Note_on_c, 9, 44, 0
5, 87340, Note_on_c, 9, 44, 52
5, 87371, Note_on_c, 9, 59, 42
5, 87681, Note_on_c, 9, 59, 0
5, 88028, Note_on_c, 9, 59, 58
5, 88077, Note_on_c, 9, 44, 0
5, 88102, Note_on_c, 9, 59, 0
5, 88392, Note_on_c, 9, 59, 51
5, 88484, Note_on_c, 9, 59, 0
5, 88967, Note_on_c, 9, 51, 68
5, 89009, Note_on_c, 9, 53, 63
5, 89290, Note_on_c, 9, 51, 0
5, 89305, Note_on_c, 9, 53, 0
5, 89921, Note_on_c, 9, 51, 60
5, 89926, Note_on_c, 9, 53, 63
5, 89936, Note_on_c, 9, 44, 53
5, 90061, Note_on_c, 9, 53, 0
5, 90111, Note_on_c, 9, 51, 0
5, 90264, Note_on_c, 9, 44, 0
5, 90312, Note_on_c, 9, 59, 78
5, 90882, Note_on_c, 9, 59, 0
5, 90885, Note_on_c, 9, 44, 48
5, 91085, Note_on_c, 9, 44, 0
5, 91212, Note_on_c, 9, 44, 55
5, 91238, Note_on_c, 9, 59, 49
5, 91359, Note_on_c, 9, 59, 0
5, 91550, Note_on_c, 9, 44, 0
5, 91837, Note_on_c, 9, 40, 38
5, 91854, Note_on_c, 9, 51, 74
5, 91854, Note_on_c, 9, 53, 80
5, 91983, Note_on_c, 9, 53, 0
5, 92022, Note_on_c, 9, 51, 0
5, 92047, Note_on_c, 9, 40, 0
5, 92191, Note_on_c, 9, 59, 56
5, 92230, Note_on_c, 9, 57, 55
5, 92246, Note_on_c, 9, 36, 32
5, 92340, Note_on_c, 9, 57, 0
5, 92758, Note_on_c, 9, 59, 0
5, 93134, Note_on_c, 9, 44, 53
5, 93159, Note_on_c, 9, 59, 61
5, 93581, Note_on_c, 9, 44, 0
5, 93617, Note_on_c, 9, 59, 0
5, 94033, Note_on_c, 9, 36, 0
5, 94124, Note_on_c, 9, 59, 66
5, 95088, Note_on_c, 9, 59, 0
5, 95626, Note_on_c, 9, 59, 39
5, 95779, Note_on_c, 9, 59, 0
5, 95986, Note_on_c, 9, 59, 57
5, 96000, Note_on_c, 9, 44, 49
5, 96252, Note_on_c, 9, 44, 0
5, 96643, Note_on_c, 9, 59, 0
5, 96948, Note_on_c, 9, 46, 76
5, 96998, Note_on_c, 9, 59, 64
5, 97609, Note_on_c, 9, 36, 37
5, 97708, Note_on_c, 9, 36, 0
5, 97997, Note_on_c, 9, 36, 22
5, 98019, Note_on_c, 9, 46, 0
5, 98315, Note_on_c, 9, 59, 0
5, 98389, Note_on_c, 9, 36, 0
5, 98569, Note_on_c, 9, 53, 53
5, 98645, Note_on_c, 9, 53, 0
5, 98890, Note_on_c, 9, 44, 41
5, 99127, Note_on_c, 9, 44, 0
5, 99492, Note_on_c, 9, 53, 72
5, 99669, Note_on_c, 9, 53, 0
5, 99914, Note_on_c, 9, 44, 51
5, 99952, Note_on_c, 9, 53, 71
5, 100249, Note_on_c, 9, 44, 0
5, 100284, Note_on_c, 9, 53, 0
5, 100802, Note_on_c, 9, 59, 52
5, 101010, Note_on_c, 9, 59, 0
5, 101482, Note_on_c, 9, 59, 51
5, 101617, Note_on_c, 9, 59, 0
5, 101748, Note_on_c, 9, 37, 79
5, 101842, Note_on_c, 9, 44, 53
5, 102079, Note_on_c, 9, 44, 0
5, 102363, Note_on_c, 9, 37, 0
5, 102421, Note_on_c, 9, 53, 66
5, 102603, Note_on_c, 9, 53, 0
5, 102784, Note_on_c, 9, 44, 51
5, 102809, Note_on_c, 9, 37, 83
5, 103119, Note_on_c, 9, 44, 0
5, 103300, Note_on_c, 9, 53, 68
5, 103320, Note_on_c, 9, 37, 0
5, 103418, Note_on_c, 9, 53, 0
5, 103580, Note_on_c, 9, 59, 54
5, 103672, Note_on_c, 9, 59, 0
5, 103881, Note_on_c, 9, 59, 69
5, 104370, Note_on_c, 9, 59, 0
5, 104660, Note_on_c, 9, 59, 53
5, 104699, Note_on_c, 9, 44, 47
5, 104949, Note_on_c, 9, 44, 0
5, 105031, Note_on_c, 9, 59, 0
5, 105313, Note_on_c, 9, 59, 67
5, 105707, Note_on_c, 9, 59, 0
5, 106000, Note_on_c, 9, 59, 25
5, 106071, Note_on_c, 9, 59, 0
5, 106238, Note_on_c, 9, 59, 66
5, 106265, Note_on_c, 9, 36, 32
5, 106405, Note_on_c, 9, 59, 0
5, 106457, Note_on_c, 9, 36, 0
5, 106594, Note_on_c, 9, 53, 68
5, 106694, Note_on_c, 9, 36, 26
5, 106944, Note_on_c, 9, 36, 0
5, 107243, Note_on_c, 9, 53, 0
5, 107485, Note_on_c, 9, 44, 51
5, 107487, Note_on_c, 9, 59, 37
5, 107751, Note_on_c, 9, 59, 0
5, 107824, Note_on_c, 9, 44, 0
5, 108171, Note_on_c, 9, 36, 35
5, 108180, Note_on_c, 9, 59, 53
5, 108385, Note_on_c, 9, 36, 0
5, 108395, Note_on_c, 9, 59, 0
5, 108894, Note_on_c, 9, 59, 30
5, 109038, Note_on_c, 9, 59, 0
5, 109145, Note_on_c, 9, 59, 63
5, 109303, Note_on_c, 9, 59, 0
5, 109473, Note_on_c, 9, 59, 83
5, 110152, Note_on_c, 9, 59, 0
5, 110423, Note_on_c, 9, 59, 41
5, 110441, Note_on_c, 9, 44, 44
5, 110653, Note_on_c, 9, 44, 0
5, 110668, Note_on_c, 9, 59, 0
5, 110941, Note_on_c, 9, 59, 92
5, 111430, Note_on_c, 9, 46, 78
5, 111544, Note_on_c, 9, 59, 0
5, 112271, Note_on_c, 9, 46, 0
5, 112342, Note_on_c, 9, 59, 92
5, 113000, Note_on_c, 9, 59, 0
5, 113299, Note_on_c, 9, 59, 46
5, 113303, Note_on_c, 9, 44, 52
5, 113500, Note_on_c, 9, 59, 0
5, 113561, Note_on_c, 9, 44, 0
5, 113872, Note_on_c, 9, 59, 80
5, 113932, Note_on_c, 9, 40, 27
5, 114036, Note_on_c, 9, 40, 0
5, 114280, Note_on_c, 9, 44, 51
5, 114647, Note_on_c, 9, 44, 0
5, 114762, Note_on_c, 9, 59, 0
5, 114845, Note_on_c, 9, 51, 57
5, 114931, Note_on_c, 9, 40, 33
5, 115054, Note_on_c, 9, 51, 0
5, 115106, Note_on_c, 9, 40, 0
5, 115250, Note_on_c, 9, 51, 59
5, 115852, Note_on_c, 9, 40, 37
5, 115958, Note_on_c, 9, 51, 0
5, 116052, Note_on_c, 9, 40, 0
5, 116169, Note_on_c, 9, 59, 82
5, 116179, Note_on_c, 9, 44, 46
5, 116427, Note_on_c, 9, 44, 0
5, 116780, Note_on_c, 9, 40, 38
5, 116948, Note_on_c, 9, 40, 0
5, 117206, Note_on_c, 9, 36, 32
5, 117622, Note_on_c, 9, 36, 0
5, 117784, Note_on_c, 9, 59, 0
5, 118098, Note_on_c, 9, 51, 46
5, 118132, Note_on_c, 9, 36, 32
5, 118143, Note_on_c, 9, 53, 32
5, 118233, Note_on_c, 9, 53, 0
5, 118350, Note_on_c, 9, 51, 0
5, 118382, Note_on_c, 9, 36, 0
5, 119008, Note_on_c, 9, 51, 69
5, 119997, Note_on_c, 9, 53, 58
5, 120161, Note_on_c, 9, 51, 0
5, 120376, Note_on_c, 9, 53, 0
5, 120626, Note_on_c, 9, 53, 81
5, 120942, Note_on_c, 9, 53, 0
5, 121542, Note_on_c, 9, 53, 80
5, 121859, Note_on_c, 9, 44, 48
5, 121935, Note_on_c, 9, 53, 0
5, 121997, Note_on_c, 9, 38, 13
5, 122140, Note_on_c, 9, 38, 0
5, 122147, Note_on_c, 9, 44, 0
5, 122348, Note_on_c, 9, 38, 23
5, 122429, Note_on_c, 9, 38, 0
5, 122672, Note_on_c, 9, 53, 71
5, 122829, Note_on_c, 9, 44, 44
5, 122832, Note_on_c, 9, 53, 0
5, 123012, Note_on_c, 9, 36, 22
5, 123038, Note_on_c, 9, 53, 59
5, 123237, Note_on_c, 9, 44, 0
5, 123242, Note_on_c, 9, 36, 0
5, 123364, Note_on_c, 9, 53, 0
5, 123580, Note_on_c, 9, 59, 87
5, 123763, Note_on_c, 9, 59, 0
5, 123956, Note_on_c, 9, 59, 67
5, 124385, Note_on_c, 9, 59, 0
5, 124613, Note_on_c, 9, 53, 59
5, 124749, Note_on_c, 9, 44, 49
5, 124823, Note_on_c, 9, 53, 0
5, 125053, Note_on_c, 9, 44, 0
5, 125497, Note_on_c, 9, 53, 73
5, 125664, Note_on_c, 9, 53, 0
5, 126318, Note_on_c, 9, 53, 71
5, 126480, Note_on_c, 9, 53, 0
5, 126638, Note_on_c, 9, 59, 77
5, 127359, Note_on_c, 9, 59, 0
5, 127653, Note_on_c, 9, 44, 48
5, 127655, Note_on_c, 9, 53, 46
5, 127903, Note_on_c, 9, 53, 0
5, 128105, Note_on_c, 9, 44, 0
5, 128224, Note_on_c, 9, 53, 54
5, 128398, Note_on_c, 9, 53, 0
5, 128602, Note_on_c, 9, 53, 46
5, 129193, Note_on_c, 9, 38, 32
5, 129245, Note_on_c, 9, 51, 63
5, 129264, Note_on_c, 9, 38, 0
5, 129420, Note_on_c, 9, 51, 0
5, 129555, Note_on_c, 9, 36, 25
5, 129619, Note_on_c, 9, 51, 49
5, 129923, Note_on_c, 9, 36, 0
5, 130079, Note_on_c, 9, 53, 0
5, 130227, Note_on_c, 9, 36, 31
5, 130404, Note_on_c, 9, 36, 0
5, 130526, Note_on_c, 9, 44, 55
5, 130595, Note_on_c, 9, 36, 28
5, 130650, Note_on_c, 9, 53, 41
5, 130691, Note_on_c, 9, 51, 0
5, 130812, Note_on_c, 9, 53, 0
5, 131022, Note_on_c, 9, 44, 0
5, 131124, Note_on_c, 9, 36, 0
5, 131192, Note_on_c, 9, 53, 75
5, 131361, Note_on_c, 9, 53, 0
5, 131542, Note_on_c, 9, 53, 68
5, 131629, Note_on_c, 9, 36, 25
5, 132145, Note_on_c, 9, 53, 0
5, 132162, Note_on_c, 9, 59, 80
5, 132251, Note_on_c, 9, 36, 0
5, 132312, Note_on_c, 9, 59, 0
5, 132565, Note_on_c, 9, 51, 52
5, 133314, Note_on_c, 9, 51, 0
5, 133483, Note_on_c, 9, 44, 56
5, 133883, Note_on_c, 9, 44, 0
5, 134076, Note_on_c, 9, 53, 59
5, 134238, Note_on_c, 9, 53, 0
5, 134473, Note_on_c, 9, 53, 57
5, 134781, Note_on_c, 9, 53, 0
5, 135033, Note_on_c, 9, 51, 78
5, 135207, Note_on_c, 9, 51, 0
5, 135374, Note_on_c, 9, 51, 64
5, 136275, Note_on_c, 9, 44, 58
5, 136355, Note_on_c, 9, 40, 40
5, 136569, Note_on_c, 9, 40, 0
5, 136586, Note_on_c, 9, 51, 0
5, 136741, Note_on_c, 9, 44, 0
5, 136938, Note_on_c, 9, 51, 72
5, 137142, Note_on_c, 9, 51, 0
5, 137288, Note_on_c, 9, 51, 64
5, 137542, Note_on_c, 9, 51, 0
5, 137929, Note_on_c, 9, 40, 35
5, 138052, Note_on_c, 9, 40, 0
5, 138189, Note_on_c, 9, 51, 95
5, 138291, Note_on_c, 9, 57, 60
5, 138339, Note_on_c, 9, 36, 37
5, 138576, Note_on_c, 9, 57, 0
5, 138680, Note_on_c, 9, 51, 0
5, 139135, Note_on_c, 9, 44, 55
5, 139150, Note_on_c, 9, 51, 88
5, 139470, Note_on_c, 9, 44, 0
5, 139738, Note_on_c, 9, 51, 0
5, 139855, Note_on_c, 9, 36, 0
5, 140119, Note_on_c, 9, 44, 55
5, 140197, Note_on_c, 9, 51, 86
5, 140610, Note_on_c, 9, 44, 0
5, 140844, Note_on_c, 9, 51, 0
5, 140927, Note_on_c, 9, 53, 71
5, 141226, Note_on_c, 9, 53, 0
5, 141263, Note_on_c, 9, 51, 55
5, 141900, Note_on_c, 9, 51, 0
5, 142075, Note_on_c, 9, 46, 69
5, 142091, Note_on_c, 9, 51, 67
5, 142666, Note_on_c, 9, 51, 0
5, 143005, Note_on_c, 9, 51, 74
5, 143284, Note_on_c, 9, 46, 0
5, 143636, Note_on_c, 9, 44, 41
5, 143686, Note_on_c, 9, 51, 0
5, 143813, Note_on_c, 9, 44, 0
5, 143975, Note_on_c, 9, 44, 46
5, 144041, Note_on_c, 9, 51, 83
5, 144451, Note_on_c, 9, 44, 0
5, 144636, Note_on_c, 9, 51, 0
5, 144960, Note_on_c, 9, 44, 48
5, 144996, Note_on_c, 9, 51, 76
5, 145121, Note_on_c, 9, 51, 0
5, 145664, Note_on_c, 9, 51, 69
5, 145695, Note_on_c, 9, 44, 0
5, 145829, Note_on_c, 9, 51, 0
5, 145950, Note_on_c, 9, 51, 71
5, 146420, Note_on_c, 9, 51, 0
5, 146824, Note_on_c, 9, 51, 90
5, 147331, Note_on_c, 9, 51, 0
5, 147797, Note_on_c, 9, 44, 49
5, 147823, Note_on_c, 9, 51, 70
5, 147925, Note_on_c, 9, 51, 0
5, 148158, Note_on_c, 9, 44, 0
5, 148352, Note_on_c, 9, 37, 39
5, 148452, Note_on_c, 9, 37, 0
5, 148528, Note_on_c, 9, 51, 37
5, 148592, Note_on_c, 9, 51, 0
5, 148802, Note_on_c, 9, 51, 77
5, 149084, Note_on_c, 9, 37, 49
5, 149218, Note_on_c, 9, 37, 0
5, 149347, Note_on_c, 9, 44, 43
5, 149363, Note_on_c, 9, 51, 0
5, 149536, Note_on_c, 9, 44, 0
5, 149697, Note_on_c, 9, 51, 30
5, 149710, Note_on_c, 9, 44, 41
5, 149829, Note_on_c, 9, 37, 55
5, 149866, Note_on_c, 9, 51, 0
5, 149966, Note_on_c, 9, 37, 0
5, 150040, Note_on_c, 9, 44, 0
5, 150321, Note_on_c, 9, 51, 81
5, 150522, Note_on_c, 9, 37, 51
5, 150529, Note_on_c, 9, 51, 0
5, 150624, Note_on_c, 9, 37, 0
5, 150663, Note_on_c, 9, 51, 69
5, 151199, Note_on_c, 9, 51, 0
5, 151231, Note_on_c, 9, 37, 60
5, 151275, Note_on_c, 9, 44, 41
5, 151366, Note_on_c, 9, 37, 0
5, 151504, Note_on_c, 9, 44, 0
5, 151657, Note_on_c, 9, 51, 37
5, 151729, Note_on_c, 9, 51, 0
5, 151890, Note_on_c, 9, 44, 46
5, 151969, Note_on_c, 9, 37, 62
5, 152115, Note_on_c, 9, 37, 0
5, 152166, Note_on_c, 9, 44, 0
5, 152298, Note_on_c, 9, 51, 85
5, 152502, Note_on_c, 9, 51, 0
5, 152600, Note_on_c, 9, 44, 46
5, 152637, Note_on_c, 9, 37, 65
5, 152667, Note_on_c, 9, 51, 57
5, 152835, Note_on_c, 9, 37, 0
5, 152872, Note_on_c, 9, 44, 0
5, 153118, Note_on_c, 9, 51, 0
5, 153325, Note_on_c, 9, 44, 42
5, 153334, Note_on_c, 9, 37, 57
5, 153450, Note_on_c, 9, 37, 0
5, 153577, Note_on_c, 9, 44, 0
5, 153650, Note_on_c, 9, 51, 64
5, 153711, Note_on_c, 9, 51, 0
5, 153948, Note_on_c, 9, 44, 45
5, 154035, Note_on_c, 9, 37, 48
5, 154193, Note_on_c, 9, 44, 0
5, 154307, Note_on_c, 9, 51, 91
5, 154309, Note_on_c, 9, 37, 0
5, 154548, Note_on_c, 9, 44, 46
5, 154599, Note_on_c, 9, 37, 52
5, 154827, Note_on_c, 9, 37, 0
5, 154848, Note_on_c, 9, 51, 0
5, 154877, Note_on_c, 9, 44, 0
5, 155207, Note_on_c, 9, 44, 45
5, 155243, Note_on_c, 9, 37, 46
5, 155302, Note_on_c, 9, 51, 62
5, 155374, Note_on_c, 9, 44, 0
5, 155429, Note_on_c, 9, 51, 0
5, 155545, Note_on_c, 9, 37, 0
5, 155554, Note_on_c, 9, 44, 45
5, 155568, Note_on_c, 9, 36, 49
5, 155618, Note_on_c, 9, 57, 46
5, 155651, Note_on_c, 9, 51, 76
5, 155770, Note_on_c, 9, 57, 0
5, 155885, Note_on_c, 9, 51, 0
5, 155885, Note_on_c, 9, 44, 0
5, 156176, Note_on_c, 9, 51, 71
5, 156400, Note_on_c, 9, 36, 0
5, 156406, Note_on_c, 9, 51, 0
5, 156566, Note_on_c, 9, 53, 78
5, 157010, Note_on_c, 9, 53, 0
5, 157152, Note_on_c, 9, 51, 57
5, 157314, Note_on_c, 9, 51, 0
5, 157478, Note_on_c, 9, 51, 40
5, 157867, Note_on_c, 9, 51, 0
5, 158141, Note_on_c, 9, 51, 74
5, 158328, Note_on_c, 9, 51, 0
5, 158479, Note_on_c, 9, 51, 59
5, 159224, Note_on_c, 9, 51, 0
5, 159363, Note_on_c, 9, 51, 68
5, 159379, Note_on_c, 9, 44, 43
5, 159734, Note_on_c, 9, 44, 0
5, 160034, Note_on_c, 9, 51, 0
5, 160341, Note_on_c, 9, 36, 35
5, 160402, Note_on_c, 9, 51, 69
5, 160403, Note_on_c, 9, 44, 53
5, 160593, Note_on_c, 9, 36, 0
5, 160880, Note_on_c, 9, 44, 0
5, 160934, Note_on_c, 9, 51, 0
5, 161051, Note_on_c, 9, 36, 39
5, 161282, Note_on_c, 9, 36, 0
5, 161352, Note_on_c, 9, 51, 64
5, 161352, Note_on_c, 9, 46, 49
5, 161460, Note_on_c, 9, 36, 35
5, 161682, Note_on_c, 9, 51, 0
5, 161690, Note_on_c, 9, 46, 0
5, 161924, Note_on_c, 9, 36, 0
5, 162243, Note_on_c, 9, 51, 55
5, 162253, Note_on_c, 9, 44, 46
5, 162486, Note_on_c, 9, 44, 0
5, 162557, Note_on_c, 9, 51, 0
5, 163125, Note_on_c, 9, 51, 71
5, 163229, Note_on_c, 9, 46, 69
5, 163555, Note_on_c, 9, 51, 0
5, 164127, Note_on_c, 9, 51, 72
5, 164554, Note_on_c, 9, 51, 0
5, 164767, Note_on_c, 9, 46, 0
5, 165099, Note_on_c, 9, 51, 75
5, 165628, Note_on_c, 9, 51, 0
5, 165773, Note_on_c, 9, 53, 75
5, 166011, Note_on_c, 9, 53, 0
5, 166055, Note_on_c, 9, 51, 61
5, 166789, Note_on_c, 9, 51, 0
5, 167043, Note_on_c, 9, 51, 67
5, 167847, Note_on_c, 9, 51, 0
5, 167970, Note_on_c, 9, 44, 52
5, 168014, Note_on_c, 9, 53, 73
5, 168400, Note_on_c, 9, 44, 0
5, 168561, Note_on_c, 9, 53, 0
5, 168931, Note_on_c, 9, 53, 66
5, 169556, Note_on_c, 9, 36, 44
5, 169749, Note_on_c, 9, 36, 0
5, 169847, Note_on_c, 9, 53, 0
5, 169932, Note_on_c, 9, 51, 49
5, 170111, Note_on_c, 9, 51, 0
5, 170263, Note_on_c, 9, 51, 65
5, 170431, Note_on_c, 9, 51, 0
5, 170680, Note_on_c, 9, 53, 76
5, 170884, Note_on_c, 9, 44, 53
5, 171260, Note_on_c, 9, 44, 0
5, 171465, Note_on_c, 9, 53, 0
5, 171550, Note_on_c, 9, 51, 53
5, 171675, Note_on_c, 9, 51, 0
5, 171808, Note_on_c, 9, 51, 74
5, 171897, Note_on_c, 9, 44, 53
5, 171977, Note_on_c, 9, 51, 0
5, 172137, Note_on_c, 9, 53, 88
5, 172344, Note_on_c, 9, 44, 0
5, 172516, Note_on_c, 9, 36, 38
5, 172603, Note_on_c, 9, 36, 0
5, 172777, Note_on_c, 9, 53, 0
5, 172898, Note_on_c, 9, 36, 18
5, 172929, Note_on_c, 9, 51, 47
5, 173056, Note_on_c, 9, 51, 0
5, 173189, Note_on_c, 9, 51, 69
5, 173337, Note_on_c, 9, 36, 0
5, 173359, Note_on_c, 9, 51, 0
5, 173530, Note_on_c, 9, 53, 89
5, 174443, Note_on_c, 9, 51, 48
5, 174470, Note_on_c, 9, 53, 0
5, 174490, Note_on_c, 9, 36, 37
5, 174593, Note_on_c, 9, 51, 0
5, 174675, Note_on_c, 9, 36, 0
5, 174770, Note_on_c, 9, 51, 55
5, 175255, Note_on_c, 9, 51, 0
5, 175671, Note_on_c, 9, 51, 81
5, 176288, Note_on_c, 9, 51, 0
5, 176630, Note_on_c, 9, 44, 53
5, 176631, Note_on_c, 9, 51, 73
5, 177081, Note_on_c, 9, 44, 0
5, 177267, Note_on_c, 9, 51, 0
5, 177579, Note_on_c, 9, 44, 54
5, 177632, Note_on_c, 9, 51, 70
5, 177941, Note_on_c, 9, 51, 0
5, 178122, Note_on_c, 9, 44, 0
5, 178238, Note_on_c, 9, 51, 63
5, 178399, Note_on_c, 9, 51, 0
5, 178561, Note_on_c, 9, 53, 81
5, 179178, Note_on_c, 9, 53, 0
5, 179564, Note_on_c, 9, 53, 73
5, 179853, Note_on_c, 9, 53, 0
5, 180140, Note_on_c, 9, 51, 54
5, 180350, Note_on_c, 9, 51, 0
5, 180469, Note_on_c, 9, 59, 83
5, 180500, Note_on_c, 9, 44, 58
5, 181009, Note_on_c, 9, 44, 0
5, 181213, Note_on_c, 9, 59, 0
5, 181396, Note_on_c, 9, 59, 49
5, 181633, Note_on_c, 9, 59, 0
5, 181997, Note_on_c, 9, 59, 82
5, 182337, Note_on_c, 9, 44, 52
5, 182647, Note_on_c, 9, 59, 0
5, 182704, Note_on_c, 9, 44, 0
5, 182969, Note_on_c, 9, 51, 80
5, 182978, Note_on_c, 9, 45, 55
5, 183049, Note_on_c, 9, 45, 0
5, 183185, Note_on_c, 9, 51, 0
5, 183284, Note_on_c, 9, 44, 53
5, 183352, Note_on_c, 9, 59, 66
5, 183669, Note_on_c, 9, 44, 0
5, 183741, Note_on_c, 9, 59, 0
5, 183904, Note_on_c, 9, 36, 52
5, 183921, Note_on_c, 9, 51, 80
5, 184083, Note_on_c, 9, 36, 0
5, 184118, Note_on_c, 9, 51, 0
5, 184278, Note_on_c, 9, 36, 49
5, 184322, Note_on_c, 9, 57, 68
5, 184729, Note_on_c, 9, 36, 0
5, 184792, Note_on_c, 9, 57, 0
5, 185287, Note_on_c, 9, 51, 31
5, 185287, Note_on_c, 9, 44, 51
5, 185370, Note_on_c, 9, 51, 0
5, 185628, Note_on_c, 9, 44, 0
5, 185900, Note_on_c, 9, 51, 27
5, 186029, Note_on_c, 9, 51, 0
5, 186237, Note_on_c, 9, 51, 52
5, 186242, Note_on_c, 9, 44, 49
5, 186650, Note_on_c, 9, 44, 0
5, 186917, Note_on_c, 9, 51, 0
5, 187162, Note_on_c, 9, 59, 68
5, 187243, Note_on_c, 9, 59, 0
5, 187842, Note_on_c, 9, 59, 103
5, 188369, Note_on_c, 9, 59, 0
5, 188841, Note_on_c, 9, 59, 50
5, 188927, Note_on_c, 9, 59, 0
5, 189205, Note_on_c, 9, 59, 74
5, 189676, Note_on_c, 9, 59, 0
5, 190728, Note_on_c, 9, 59, 52
5, 190812, Note_on_c, 9, 59, 0
5, 190977, Note_on_c, 9, 44, 43
5, 191031, Note_on_c, 9, 59, 62
5, 191353, Note_on_c, 9, 44, 0
5, 191501, Note_on_c, 9, 59, 0
5, 191981, Note_on_c, 9, 46, 64
5, 192024, Note_on_c, 9, 59, 71
5, 192413, Note_on_c, 9, 59, 0
5, 192515, Note_on_c, 9, 46, 0
5, 192979, Note_on_c, 9, 59, 50
5, 193265, Note_on_c, 9, 59, 0
5, 193892, Note_on_c, 9, 44, 51
5, 193898, Note_on_c, 9, 59, 55
5, 194187, Note_on_c, 9, 44, 0
5, 194199, Note_on_c, 9, 59, 0
5, 194539, Note_on_c, 9, 40, 39
5, 194674, Note_on_c, 9, 40, 0
5, 194856, Note_on_c, 9, 59, 56
5, 195260, Note_on_c, 9, 40, 44
5, 195296, Note_on_c, 9, 59, 0
5, 195446, Note_on_c, 9, 40, 0
5, 195462, Note_on_c, 9, 53, 74
5, 195589, Note_on_c, 9, 37, 55
5, 195793, Note_on_c, 9, 37, 0
5, 195867, Note_on_c, 9, 53, 0
5, 195869, Note_on_c, 9, 59, 52
5, 196003, Note_on_c, 9, 36, 49
5, 196421, Note_on_c, 9, 36, 0
5, 196434, Note_on_c, 9, 59, 0
5, 196729, Note_on_c, 9, 44, 51
5, 196807, Note_on_c, 9, 59, 63
5, 197065, Note_on_c, 9, 44, 0
5, 197139, Note_on_c, 9, 59, 0
5, 197696, Note_on_c, 9, 44, 50
5, 197764, Note_on_c, 9, 59, 57
5, 197968, Note_on_c, 9, 59, 0
5, 198052, Note_on_c, 9, 44, 0
5, 198669, Note_on_c, 9, 59, 72
5, 198891, Note_on_c, 9, 59, 0
5, 199673, Note_on_c, 9, 59, 59
5, 199848, Note_on_c, 9, 59, 0
5, 200602, Note_on_c, 9, 44, 51
5, 201044, Note_on_c, 9, 44, 0
5, 201303, Note_on_c, 9, 59, 53
5, 201388, Note_on_c, 9, 59, 0
5, 201630, Note_on_c, 9, 59, 48
5, 202052, Note_on_c, 9, 59, 0
5, 202175, Note_on_c, 9, 53, 70
5, 202335, Note_on_c, 9, 53, 0
5, 202508, Note_on_c, 9, 59, 52
5, 203012, Note_on_c, 9, 59, 0
5, 203502, Note_on_c, 9, 59, 54
5, 203562, Note_on_c, 9, 44, 49
5, 203974, Note_on_c, 9, 44, 0
5, 204002, Note_on_c, 9, 59, 0
5, 204501, Note_on_c, 9, 59, 51
5, 204935, Note_on_c, 9, 59, 0
5, 205499, Note_on_c, 9, 44, 48
5, 205546, Note_on_c, 9, 59, 38
5, 205652, Note_on_c, 9, 59, 0
5, 205866, Note_on_c, 9, 44, 0
5, 206447, Note_on_c, 9, 59, 68
5, 206491, Note_on_c, 9, 44, 47
5, 206711, Note_on_c, 9, 59, 0
5, 206879, Note_on_c, 9, 44, 0
5, 207497, Note_on_c, 9, 36, 19
5, 207699, Note_on_c, 9, 36, 0
5, 208057, Note_on_c, 9, 36, 34
5, 208349, Note_on_c, 9, 59, 53
5, 208358, Note_on_c, 9, 36, 0
5, 208366, Note_on_c, 9, 44, 49
5, 208632, Note_on_c, 9, 59, 0
5, 208850, Note_on_c, 9, 44, 0
5, 209329, Note_on_c, 9, 59, 36
5, 209396, Note_on_c, 9, 36, 29
5, 209665, Note_on_c, 9, 59, 0
5, 209706, Note_on_c, 9, 36, 0
5, 209924, Note_on_c, 9, 53, 54
5, 210040, Note_on_c, 9, 53, 0
5, 210273, Note_on_c, 9, 53, 50
5, 210762, Note_on_c, 9, 53, 0
5, 211201, Note_on_c, 9, 44, 45
5, 211208, Note_on_c, 9, 59, 53
5, 211567, Note_on_c, 9, 44, 0
5, 212169, Note_on_c, 9, 44, 48
5, 212505, Note_on_c, 9, 44, 0
5, 212840, Note_on_c, 9, 53, 32
5, 212940, Note_on_c, 9, 53, 0
5, 213086, Note_on_c, 9, 59, 0
5, 213186, Note_on_c, 9, 53, 45
5, 213980, Note_on_c, 9, 53, 0
5, 214078, Note_on_c, 9, 59, 52
5, 214119, Note_on_c, 9, 44, 48
5, 214452, Note_on_c, 9, 44, 0
5, 214785, Note_on_c, 9, 59, 0
5, 215056, Note_on_c, 9, 59, 50
5, 215100, Note_on_c, 9, 44, 45
5, 215472, Note_on_c, 9, 44, 0
5, 215789, Note_on_c, 9, 59, 0
5, 215970, Note_on_c, 9, 53, 62
5, 216053, Note_on_c, 9, 51, 37
5, 216350, Note_on_c, 9, 53, 0
5, 216429, Note_on_c, 9, 51, 0
5, 216919, Note_on_c, 9, 44, 46
5, 216978, Note_on_c, 9, 59, 34
5, 217313, Note_on_c, 9, 59, 0
5, 217325, Note_on_c, 9, 44, 0
5, 217598, Note_on_c, 9, 36, 28
5, 217617, Note_on_c, 9, 53, 52
5, 217617, Note_on_c, 9, 51, 47
5, 217729, Note_on_c, 9, 36, 0
5, 217910, Note_on_c, 9, 53, 0
5, 217993, Note_on_c, 9, 51, 0
5, 218594, Note_on_c, 9, 59, 46
5, 218698, Note_on_c, 9, 59, 0
5, 219000, Note_on_c, 9, 51, 42
5, 219036, Note_on_c, 9, 53, 57
5, 219523, Note_on_c, 9, 53, 0
5, 219602, Note_on_c, 9, 51, 0
5, 219847, Note_on_c, 9, 44, 48
5, 219870, Note_on_c, 9, 59, 51
5, 219972, Note_on_c, 9, 59, 0
5, 220222, Note_on_c, 9, 44, 0
5, 220452, Note_on_c, 9, 53, 60
5, 220477, Note_on_c, 9, 51, 46
5, 220487, Note_on_c, 9, 36, 40
5, 220659, Note_on_c, 9, 36, 0
5, 220704, Note_on_c, 9, 53, 0
5, 220758, Note_on_c, 9, 51, 0
5, 220827, Note_on_c, 9, 44, 47
5, 221218, Note_on_c, 9, 44, 0
5, 221385, Note_on_c, 9, 59, 57
5, 221553, Note_on_c, 9, 59, 0
5, 221795, Note_on_c, 9, 51, 51
5, 221828, Note_on_c, 9, 57, 63
5, 221876, Note_on_c, 9, 36, 34
5, 221876, Note_on_c, 9, 53, 50
5, 221903, Note_on_c, 9, 57, 0
5, 222076, Note_on_c, 9, 36, 0
5, 222215, Note_on_c, 9, 53, 0
5, 222238, Note_on_c, 9, 51, 0
5, 222693, Note_on_c, 9, 59, 47
5, 222774, Note_on_c, 9, 44, 45
5, 222818, Note_on_c, 9, 59, 0
5, 223224, Note_on_c, 9, 44, 0
5, 223296, Note_on_c, 9, 51, 59
5, 223296, Note_on_c, 9, 53, 66
5, 223326, Note_on_c, 9, 36, 51
5, 223584, Note_on_c, 9, 36, 0
5, 223599, Note_on_c, 9, 53, 0
5, 223630, Note_on_c, 9, 51, 0
5, 224267, Note_on_c, 9, 51, 36
5, 224323, Note_on_c, 9, 51, 0
5, 224325, Note_on_c, 9, 59, 24
5, 224414, Note_on_c, 9, 59, 0
5, 224687, Note_on_c, 9, 51, 59
5, 224695, Note_on_c, 9, 36, 52
5, 224699, Note_on_c, 9, 53, 61
5, 224982, Note_on_c, 9, 36, 0
5, 225286, Note_on_c, 9, 53, 0
5, 225289, Note_on_c, 9, 51, 0
5, 225621, Note_on_c, 9, 51, 55
5, 225628, Note_on_c, 9, 53, 60
5, 226048, Note_on_c, 9, 53, 0
5, 226087, Note_on_c, 9, 51, 0
5, 226194, Note_on_c, 9, 36, 62
5, 226469, Note_on_c, 9, 36, 0
5, 226567, Note_on_c, 9, 51, 57
5, 226608, Note_on_c, 9, 53, 50
5, 227441, Note_on_c, 9, 53, 0
5, 227526, Note_on_c, 9, 51, 0
5, 227599, Note_on_c, 9, 59, 41
5, 227609, Note_on_c, 9, 36, 56
5, 227722, Note_on_c, 9, 59, 0
5, 227852, Note_on_c, 9, 36, 0
5, 228170, Note_on_c, 9, 53, 70
5, 228231, Note_on_c, 9, 51, 35
5, 228316, Note_on_c, 9, 51, 0
5, 228360, Note_on_c, 9, 53, 0
5, 228539, Note_on_c, 9, 46, 71
5, 228952, Note_on_c, 9, 46, 0
5, 229108, Note_on_c, 9, 36, 51
5, 229174, Note_on_c, 9, 51, 62
5, 229183, Note_on_c, 9, 53, 66
5, 229289, Note_on_c, 9, 36, 0
5, 229364, Note_on_c, 9, 53, 0
5, 229489, Note_on_c, 9, 51, 0
5, 230053, Note_on_c, 9, 37, 76
5, 230075, Note_on_c, 9, 53, 72
5, 230089, Note_on_c, 9, 51, 51
5, 230205, Note_on_c, 9, 53, 0
5, 230251, Note_on_c, 9, 51, 0
5, 230252, Note_on_c, 9, 37, 0
5, 230427, Note_on_c, 9, 57, 67
5, 230450, Note_on_c, 9, 36, 56
5, 230839, Note_on_c, 9, 57, 0
5, 230968, Note_on_c, 9, 36, 0
5, 231368, Note_on_c, 9, 53, 36
5, 231368, Note_on_c, 9, 44, 48
5, 231522, Note_on_c, 9, 53, 0
5, 231658, Note_on_c, 9, 44, 0
5, 232320, Note_on_c, 9, 53, 50
5, 232366, Note_on_c, 9, 44, 48
5, 232617, Note_on_c, 9, 53, 0
5, 232728, Note_on_c, 9, 44, 0
5, 233314, Note_on_c, 9, 53, 51
5, 233606, Note_on_c, 9, 53, 0
5, 234253, Note_on_c, 9, 53, 65
5, 234306, Note_on_c, 9, 44, 55
5, 234462, Note_on_c, 9, 53, 0
5, 234708, Note_on_c, 9, 44, 0
5, 234876, Note_on_c, 9, 51, 76
5, 235092, Note_on_c, 9, 51, 0
5, 235256, Note_on_c, 9, 51, 54
5, 235824, Note_on_c, 9, 51, 0
5, 236176, Note_on_c, 9, 51, 50
5, 236506, Note_on_c, 9, 51, 0
5, 237134, Note_on_c, 9, 51, 58
5, 237196, Note_on_c, 9, 44, 43
5, 237388, Note_on_c, 9, 51, 0
5, 237560, Note_on_c, 9, 44, 0
5, 237756, Note_on_c, 9, 51, 77
5, 237991, Note_on_c, 9, 51, 0
5, 238088, Note_on_c, 9, 51, 86
5, 238792, Note_on_c, 9, 51, 0
5, 238975, Note_on_c, 9, 51, 39
5, 239295, Note_on_c, 9, 51, 0
5, 239603, Note_on_c, 9, 51, 77
5, 239856, Note_on_c, 9, 51, 0
5, 239922, Note_on_c, 9, 44, 44
5, 239978, Note_on_c, 9, 51, 83
5, 240297, Note_on_c, 9, 44, 0
5, 240709, Note_on_c, 9, 51, 0
5, 240888, Note_on_c, 9, 44, 43
5, 240892, Note_on_c, 9, 51, 46
5, 241117, Note_on_c, 9, 51, 0
5, 241375, Note_on_c, 9, 44, 0
5, 241501, Note_on_c, 9, 36, 25
5, 241546, Note_on_c, 9, 51, 77
5, 241682, Note_on_c, 9, 36, 0
5, 241795, Note_on_c, 9, 51, 0
5, 241924, Note_on_c, 9, 51, 80
5, 241934, Note_on_c, 9, 36, 32
5, 242512, Note_on_c, 9, 36, 0
5, 242601, Note_on_c, 9, 51, 0
5, 242828, Note_on_c, 9, 51, 48
5, 243015, Note_on_c, 9, 51, 0
5, 243451, Note_on_c, 9, 51, 85
5, 243517, Note_on_c, 9, 36, 29
5, 243681, Note_on_c, 9, 36, 0
5, 244075, Note_on_c, 9, 51, 0
5, 244422, Note_on_c, 9, 51, 30
5, 244632, Note_on_c, 9, 51, 0
5, 244866, Note_on_c, 9, 51, 85
5, 245397, Note_on_c, 9, 51, 0
5, 245739, Note_on_c, 9, 44, 51
5, 246154, Note_on_c, 9, 44, 0
5, 246341, Note_on_c, 9, 51, 82
5, 246866, Note_on_c, 9, 51, 0
5, 247291, Note_on_c, 9, 44, 51
5, 247316, Note_on_c, 9, 51, 60
5, 247470, Note_on_c, 9, 51, 0
5, 247485, Note_on_c, 9, 44, 0
5, 247651, Note_on_c, 9, 44, 48
5, 247703, Note_on_c, 9, 51, 87
5, 248165, Note_on_c, 9, 44, 0
5, 248273, Note_on_c, 9, 51, 0
5, 248654, Note_on_c, 9, 51, 44
5, 248783, Note_on_c, 9, 51, 0
5, 249207, Note_on_c, 9, 44, 53
5, 249241, Note_on_c, 9, 51, 85
5, 249409, Note_on_c, 9, 44, 0
5, 249565, Note_on_c, 9, 51, 0
5, 249624, Note_on_c, 9, 44, 53
5, 250084, Note_on_c, 9, 44, 0
5, 250178, Note_on_c, 9, 51, 49
5, 250344, Note_on_c, 9, 51, 0
5, 250585, Note_on_c, 9, 51, 80
5, 250602, Note_on_c, 9, 59, 85
5, 251051, Note_on_c, 9, 59, 0
5, 251090, Note_on_c, 9, 51, 0
5, 251478, Note_on_c, 9, 51, 64
5, 251499, Note_on_c, 9, 44, 50
5, 251684, Note_on_c, 9, 51, 0
5, 251820, Note_on_c, 9, 44, 0
5, 252084, Note_on_c, 9, 36, 35
5, 252108, Note_on_c, 9, 51, 83
5, 252112, Note_on_c, 9, 59, 88
5, 252294, Note_on_c, 9, 36, 0
5, 252364, Note_on_c, 9, 59, 0
5, 252412, Note_on_c, 9, 51, 0
5, 252412, Note_on_c, 9, 44, 53
5, 252519, Note_on_c, 9, 36, 25
5, 252625, Note_on_c, 9, 36, 0
5, 252883, Note_on_c, 9, 44, 0
5, 252981, Note_on_c, 9, 51, 59
5, 253162, Note_on_c, 9, 51, 0
5, 253438, Note_on_c, 9, 51, 59
5, 253438, Note_on_c, 9, 53, 66
5, 253455, Note_on_c, 9, 36, 36
5, 253896, Note_on_c, 9, 36, 0
5, 254018, Note_on_c, 9, 53, 0
5, 254070, Note_on_c, 9, 36, 35
5, 254128, Note_on_c, 9, 51, 0
5, 254170, Note_on_c, 9, 36, 0
5, 254332, Note_on_c, 9, 44, 45
5, 254608, Note_on_c, 9, 44, 0
5, 254967, Note_on_c, 9, 51, 62
5, 255146, Note_on_c, 9, 51, 0
5, 255308, Note_on_c, 9, 51, 45
5, 255339, Note_on_c, 9, 46, 69
5, 255610, Note_on_c, 9, 51, 0
5, 255727, Note_on_c, 9, 46, 0
5, 256225, Note_on_c, 9, 51, 52
5, 256499, Note_on_c, 9, 51, 0
5, 256997, Note_on_c, 9, 38, 32
5, 257068, Note_on_c, 9, 38, 0
5, 257807, Note_on_c, 9, 44, 37
5, 257871, Note_on_c, 9, 51, 45
5, 257973, Note_on_c, 9, 44, 0
5, 258035, Note_on_c, 9, 51, 0
5, 258183, Note_on_c, 9, 44, 37
5, 258250, Note_on_c, 9, 51, 38
5, 258369, Note_on_c, 9, 44, 0
5, 258470, Note_on_c, 9, 38, 37
5, 258504, Note_on_c, 9, 51, 0
5, 258559, Note_on_c, 9, 38, 0
5, 258759, Note_on_c, 9, 38, 35
5, 258793, Note_on_c, 9, 44, 38
5, 258867, Note_on_c, 9, 38, 0
5, 259031, Note_on_c, 9, 44, 0
5, 259121, Note_on_c, 9, 36, 22
5, 259533, Note_on_c, 9, 36, 0
5, 259779, Note_on_c, 9, 51, 52
5, 259944, Note_on_c, 9, 51, 0
5, 260129, Note_on_c, 9, 51, 42
5, 260138, Note_on_c, 9, 36, 24
5, 260155, Note_on_c, 9, 44, 46
5, 260294, Note_on_c, 9, 36, 0
5, 260419, Note_on_c, 9, 44, 0
5, 260572, Note_on_c, 9, 51, 0
5, 261110, Note_on_c, 9, 51, 56
5, 261453, Note_on_c, 9, 51, 0
5, 262106, Note_on_c, 9, 51, 53
5, 262848, Note_on_c, 9, 51, 0
5, 262998, Note_on_c, 9, 44, 48
5, 263261, Note_on_c, 9, 44, 0
5, 263640, Note_on_c, 9, 51, 56
5, 263778, Note_on_c, 9, 51, 0
5, 263971, Note_on_c, 9, 51, 49
5, 263996, Note_on_c, 9, 44, 48
5, 264324, Note_on_c, 9, 51, 0
5, 264500, Note_on_c, 9, 44, 0
5, 264626, Note_on_c, 9, 40, 34
5, 264745, Note_on_c, 9, 40, 0
5, 264934, Note_on_c, 9, 51, 62
5, 265045, Note_on_c, 9, 36, 25
5, 265390, Note_on_c, 9, 36, 0
5, 265427, Note_on_c, 9, 51, 0
5, 265631, Note_on_c, 9, 36, 37
5, 265817, Note_on_c, 9, 46, 51
5, 265829, Note_on_c, 9, 36, 0
5, 266039, Note_on_c, 9, 36, 34
5, 266388, Note_on_c, 9, 36, 0
5, 266419, Note_on_c, 9, 46, 0
5, 266522, Note_on_c, 9, 51, 57
5, 266770, Note_on_c, 9, 51, 0
5, 266908, Note_on_c, 9, 36, 33
5, 267245, Note_on_c, 9, 36, 0
5, 267457, Note_on_c, 9, 44, 38
5, 267523, Note_on_c, 9, 51, 47
5, 267614, Note_on_c, 9, 44, 0
5, 267619, Note_on_c, 9, 51, 0
5, 267877, Note_on_c, 9, 51, 78
5, 268464, Note_on_c, 9, 51, 0
5, 268806, Note_on_c, 9, 44, 49
5, 269048, Note_on_c, 9, 44, 0
5, 269421, Note_on_c, 9, 51, 77
5, 269700, Note_on_c, 9, 51, 0
5, 269837, Note_on_c, 9, 46, 70
5, 270364, Note_on_c, 9, 51, 56
5, 270438, Note_on_c, 9, 40, 18
5, 270443, Note_on_c, 9, 51, 0
5, 270462, Note_on_c, 9, 46, 0
5, 270540, Note_on_c, 9, 40, 0
5, 270762, Note_on_c, 9, 51, 74
5, 270804, Note_on_c, 9, 36, 25
5, 270964, Note_on_c, 9, 36, 0
5, 271187, Note_on_c, 9, 51, 0
5, 271299, Note_on_c, 9, 36, 38
5, 271509, Note_on_c, 9, 36, 0
5, 271657, Note_on_c, 9, 44, 46
5, 271912, Note_on_c, 9, 44, 0
5, 272281, Note_on_c, 9, 51, 67
5, 272454, Note_on_c, 9, 51, 0
5, 272642, Note_on_c, 9, 44, 48
5, 272651, Note_on_c, 9, 51, 56
5, 272657, Note_on_c, 9, 36, 23
5, 272824, Note_on_c, 9, 51, 0
5, 272940, Note_on_c, 9, 36, 0
5, 272976, Note_on_c, 9, 44, 0
5, 274169, Note_on_c, 9, 51, 71
5, 274329, Note_on_c, 9, 51, 0
5, 274581, Note_on_c, 9, 44, 53
5, 274953, Note_on_c, 9, 44, 0
5, 275118, Note_on_c, 9, 51, 73
5, 275324, Note_on_c, 9, 51, 0
5, 276055, Note_on_c, 9, 51, 48
5, 276108, Note_on_c, 9, 40, 40
5, 276161, Note_on_c, 9, 51, 0
5, 276277, Note_on_c, 9, 40, 0
5, 276420, Note_on_c, 9, 51, 73
5, 276456, Note_on_c, 9, 44, 51
5, 276470, Note_on_c, 9, 36, 31
5, 276873, Note_on_c, 9, 44, 0
5, 276949, Note_on_c, 9, 51, 0
5, 277079, Note_on_c, 9, 36, 0
5, 278044, Note_on_c, 9, 51, 60
5, 278175, Note_on_c, 9, 51, 0
5, 278399, Note_on_c, 9, 51, 59
5, 278874, Note_on_c, 9, 51, 0
5, 279080, Note_on_c, 9, 36, 24
5, 279207, Note_on_c, 9, 36, 0
5, 279368, Note_on_c, 9, 51, 72
5, 279422, Note_on_c, 9, 36, 20
5, 279773, Note_on_c, 9, 51, 0
5, 279781, Note_on_c, 9, 36, 0
5, 280277, Note_on_c, 9, 44, 49
5, 280706, Note_on_c, 9, 44, 0
5, 280936, Note_on_c, 9, 36, 35
5, 281007, Note_on_c, 9, 51, 67
5, 281113, Note_on_c, 9, 36, 0
5, 281156, Note_on_c, 9, 51, 0
5, 281347, Note_on_c, 9, 51, 55
5, 281534, Note_on_c, 9, 51, 0
5, 282255, Note_on_c, 9, 51, 77
5, 282315, Note_on_c, 9, 36, 32
5, 282564, Note_on_c, 9, 36, 0
5, 282605, Note_on_c, 9, 51, 0
5, 283247, Note_on_c, 9, 44, 41
5, 283550, Note_on_c, 9, 44, 0
5, 283825, Note_on_c, 9, 51, 71
5, 283952, Note_on_c, 9, 51, 0
5, 284159, Note_on_c, 9, 51, 59
5, 284201, Note_on_c, 9, 44, 43
5, 284385, Note_on_c, 9, 51, 0
5, 284532, Note_on_c, 9, 44, 0
5, 284781, Note_on_c, 9, 51, 51
5, 285114, Note_on_c, 9, 51, 0
5, 285128, Note_on_c, 9, 59, 57
5, 285500, Note_on_c, 9, 59, 0
5, 285759, Note_on_c, 9, 51, 69
5, 286048, Note_on_c, 9, 51, 0
5, 286098, Note_on_c, 9, 44, 39
5, 286401, Note_on_c, 9, 44, 0
5, 286694, Note_on_c, 9, 51, 77
5, 286729, Note_on_c, 9, 40, 26
5, 286910, Note_on_c, 9, 40, 0
5, 286955, Note_on_c, 9, 51, 0
5, 287095, Note_on_c, 9, 44, 47
5, 287145, Note_on_c, 9, 36, 22
5, 287461, Note_on_c, 9, 36, 0
5, 287488, Note_on_c, 9, 44, 0
5, 287647, Note_on_c, 9, 51, 64
5, 287700, Note_on_c, 9, 36, 30
5, 287833, Note_on_c, 9, 51, 0
5, 287937, Note_on_c, 9, 36, 0
5, 288027, Note_on_c, 9, 51, 56
5, 288135, Note_on_c, 9, 36, 35
5, 288415, Note_on_c, 9, 36, 0
5, 288554, Note_on_c, 9, 51, 0
5, 288900, Note_on_c, 9, 51, 52
5, 288980, Note_on_c, 9, 44, 53
5, 289320, Note_on_c, 9, 51, 0
5, 289331, Note_on_c, 9, 44, 0
5, 289534, Note_on_c, 9, 40, 39
5, 289601, Note_on_c, 9, 51, 67
5, 289647, Note_on_c, 9, 40, 0
5, 289783, Note_on_c, 9, 51, 0
5, 289926, Note_on_c, 9, 36, 25
5, 289938, Note_on_c, 9, 51, 42
5, 290152, Note_on_c, 9, 36, 0
5, 290265, Note_on_c, 9, 51, 0
5, 290598, Note_on_c, 9, 51, 64
5, 290598, Note_on_c, 9, 53, 65
5, 290920, Note_on_c, 9, 53, 0
5, 291070, Note_on_c, 9, 51, 0
5, 291475, Note_on_c, 9, 51, 62
5, 291663, Note_on_c, 9, 51, 0
5, 291878, Note_on_c, 9, 44, 52
5, 291899, Note_on_c, 9, 53, 58
5, 291929, Note_on_c, 9, 51, 51
5, 292221, Note_on_c, 9, 53, 0
5, 292238, Note_on_c, 9, 44, 0
5, 292326, Note_on_c, 9, 51, 0
5, 292871, Note_on_c, 9, 51, 57
5, 293239, Note_on_c, 9, 51, 0
5, 293372, Note_on_c, 9, 40, 33
5, 293493, Note_on_c, 9, 40, 0
5, 293815, Note_on_c, 9, 51, 62
5, 293848, Note_on_c, 9, 36, 23
5, 293996, Note_on_c, 9, 36, 0
5, 294390, Note_on_c, 9, 51, 0
5, 294435, Note_on_c, 9, 36, 25
5, 294645, Note_on_c, 9, 36, 0
5, 294691, Note_on_c, 9, 44, 44
5, 294739, Note_on_c, 9, 51, 60
5, 294981, Note_on_c, 9, 44, 0
5, 295128, Note_on_c, 9, 51, 0
5, 295681, Note_on_c, 9, 51, 61
5, 295692, Note_on_c, 9, 44, 51
5, 295791, Note_on_c, 9, 36, 28
5, 296016, Note_on_c, 9, 44, 0
5, 296034, Note_on_c, 9, 36, 0
5, 296076, Note_on_c, 9, 51, 0
5, 296639, Note_on_c, 9, 51, 60
5, 297046, Note_on_c, 9, 51, 0
5, 297567, Note_on_c, 9, 51, 65
5, 297576, Note_on_c, 9, 44, 50
5, 297939, Note_on_c, 9, 44, 0
5, 298064, Note_on_c, 9, 51, 0
5, 298187, Note_on_c, 9, 53, 68
5, 298451, Note_on_c, 9, 53, 0
5, 298499, Note_on_c, 9, 51, 62
5, 299182, Note_on_c, 9, 51, 0
5, 299433, Note_on_c, 9, 51, 63
5, 299978, Note_on_c, 9, 51, 0
5, 300445, Note_on_c, 9, 44, 50
5, 300845, Note_on_c, 9, 44, 0
5, 301057, Note_on_c, 9, 51, 63
5, 301244, Note_on_c, 9, 51, 0
5, 301406, Note_on_c, 9, 51, 55
5, 301759, Note_on_c, 9, 51, 0
5, 302031, Note_on_c, 9, 36, 24
5, 302164, Note_on_c, 9, 36, 0
5, 302439, Note_on_c, 9, 36, 23
5, 302871, Note_on_c, 9, 36, 0
5, 302963, Note_on_c, 9, 51, 64
5, 303166, Note_on_c, 9, 51, 0
5, 303327, Note_on_c, 9, 51, 48
5, 303335, Note_on_c, 9, 44, 44
5, 303677, Note_on_c, 9, 44, 0
5, 303756, Note_on_c, 9, 51, 0
5, 304287, Note_on_c, 9, 51, 65
5, 304301, Note_on_c, 9, 44, 46
5, 304680, Note_on_c, 9, 51, 0
5, 304713, Note_on_c, 9, 44, 0
5, 305307, Note_on_c, 9, 51, 69
5, 305713, Note_on_c, 9, 51, 0
5, 306246, Note_on_c, 9, 51, 61
5, 306252, Note_on_c, 9, 44, 53
5, 306559, Note_on_c, 9, 44, 0
5, 306664, Note_on_c, 9, 51, 0
5, 307223, Note_on_c, 9, 51, 69
5, 307248, Note_on_c, 9, 46, 71
5, 307811, Note_on_c, 9, 51, 0
5, 307893, Note_on_c, 9, 53, 73
5, 307897, Note_on_c, 9, 36, 29
5, 308084, Note_on_c, 9, 36, 0
5, 308156, Note_on_c, 9, 53, 0
5, 308215, Note_on_c, 9, 51, 60
5, 308323, Note_on_c, 9, 36, 25
5, 308474, Note_on_c, 9, 46, 0
5, 308727, Note_on_c, 9, 36, 0
5, 308795, Note_on_c, 9, 51, 0
5, 309116, Note_on_c, 9, 44, 53
5, 309169, Note_on_c, 9, 51, 67
5, 309548, Note_on_c, 9, 44, 0
5, 309554, Note_on_c, 9, 51, 0
5, 309783, Note_on_c, 9, 36, 33
5, 309966, Note_on_c, 9, 36, 0
5, 310095, Note_on_c, 9, 51, 68
5, 310634, Note_on_c, 9, 51, 0
5, 310742, Note_on_c, 9, 53, 69
5, 310983, Note_on_c, 9, 53, 0
5, 311076, Note_on_c, 9, 51, 62
5, 311660, Note_on_c, 9, 51, 0
5, 312025, Note_on_c, 9, 51, 74
5, 312403, Note_on_c, 9, 51, 0
5, 312809, Note_on_c, 9, 51, 68
5, 313102, Note_on_c, 9, 51, 0
5, 313494, Note_on_c, 9, 51, 62
5, 313664, Note_on_c, 9, 51, 0
5, 313870, Note_on_c, 9, 51, 67
5, 314144, Note_on_c, 9, 51, 0
5, 314244, Note_on_c, 9, 51, 77
5, 314561, Note_on_c, 9, 51, 0
5, 314941, Note_on_c, 9, 51, 72
5, 314990, Note_on_c, 9, 44, 51
5, 315231, Note_on_c, 9, 51, 0
5, 315340, Note_on_c, 9, 44, 0
5, 315635, Note_on_c, 9, 51, 68
5, 315880, Note_on_c, 9, 51, 0
5, 315952, Note_on_c, 9, 44, 51
5, 316283, Note_on_c, 9, 51, 56
5, 316288, Note_on_c, 9, 44, 0
5, 316414, Note_on_c, 9, 51, 0
5, 316564, Note_on_c, 9, 51, 64
5, 316752, Note_on_c, 9, 51, 0
5, 316854, Note_on_c, 9, 51, 79
5, 317382, Note_on_c, 9, 51, 0
5, 317545, Note_on_c, 9, 51, 49
5, 317826, Note_on_c, 9, 51, 0
5, 318217, Note_on_c, 9, 51, 57
5, 318340, Note_on_c, 9, 51, 0
5, 318512, Note_on_c, 9, 51, 56
5, 318652, Note_on_c, 9, 51, 0
5, 318797, Note_on_c, 9, 51, 76
5, 319371, Note_on_c, 9, 51, 0
5, 319555, Note_on_c, 9, 51, 43
5, 319721, Note_on_c, 9, 51, 0
5, 320437, Note_on_c, 9, 51, 80
5, 320694, Note_on_c, 9, 44, 44
5, 320706, Note_on_c, 9, 51, 0
5, 320987, Note_on_c, 9, 44, 0
5, 321293, Note_on_c, 9, 51, 72
5, 321662, Note_on_c, 9, 44, 46
5, 321689, Note_on_c, 9, 51, 0
5, 322014, Note_on_c, 9, 44, 0
5, 322221, Note_on_c, 9, 51, 77
5, 322404, Note_on_c, 9, 51, 0
5, 322550, Note_on_c, 9, 59, 76
5, 322640, Note_on_c, 9, 36, 30
5, 322800, Note_on_c, 9, 36, 0
5, 323337, Note_on_c, 9, 59, 0
5, 323522, Note_on_c, 9, 44, 44
5, 323526, Note_on_c, 9, 59, 78
5, 323949, Note_on_c, 9, 44, 0
5, 324563, Note_on_c, 9, 44, 46
5, 324919, Note_on_c, 9, 59, 0
5, 325009, Note_on_c, 9, 44, 0
5, 325127, Note_on_c, 9, 36, 23
5, 325223, Note_on_c, 9, 59, 65
5, 325264, Note_on_c, 9, 36, 0
5, 325444, Note_on_c, 9, 59, 0
5, 325528, Note_on_c, 9, 36, 20
5, 325556, Note_on_c, 9, 59, 75
5, 326020, Note_on_c, 9, 36, 0
5, 326198, Note_on_c, 9, 59, 0
5, 326476, Note_on_c, 9, 44, 39
5, 326483, Note_on_c, 9, 59, 77
5, 326768, Note_on_c, 9, 44, 0
5, 327431, Note_on_c, 9, 46, 57
5, 327491, Note_on_c, 9, 59, 0
5, 327795, Note_on_c, 9, 46, 0
5, 327938, Note_on_c, 9, 59, 62
5, 328088, Note_on_c, 9, 59, 0
5, 328277, Note_on_c, 9, 59, 71
5, 328795, Note_on_c, 9, 59, 0
5, 329245, Note_on_c, 9, 36, 29
5, 329248, Note_on_c, 9, 59, 71
5, 329324, Note_on_c, 9, 44, 44
5, 329546, Note_on_c, 9, 36, 0
5, 329612, Note_on_c, 9, 44, 0
5, 329692, Note_on_c, 9, 59, 0
5, 330323, Note_on_c, 9, 44, 56
5, 330400, Note_on_c, 9, 36, 27
5, 330705, Note_on_c, 9, 36, 0
5, 330732, Note_on_c, 9, 44, 0
5, 330939, Note_on_c, 9, 59, 58
5, 331029, Note_on_c, 9, 59, 0
5, 331334, Note_on_c, 9, 53, 66
5, 332037, Note_on_c, 9, 53, 0
5, 332192, Note_on_c, 9, 36, 25
5, 332235, Note_on_c, 9, 44, 53
5, 332295, Note_on_c, 9, 59, 51
5, 332485, Note_on_c, 9, 59, 0
5, 332529, Note_on_c, 9, 44, 0
5, 332826, Note_on_c, 9, 59, 51
5, 332913, Note_on_c, 9, 59, 0
5, 333201, Note_on_c, 9, 59, 43
5, 333220, Note_on_c, 9, 44, 49
5, 333450, Note_on_c, 9, 59, 0
5, 333506, Note_on_c, 9, 44, 0
5, 333550, Note_on_c, 9, 36, 0
5, 333783, Note_on_c, 9, 53, 62
5, 333891, Note_on_c, 9, 53, 0
5, 334202, Note_on_c, 9, 59, 55
5, 334219, Note_on_c, 9, 57, 51
5, 334690, Note_on_c, 9, 57, 0
5, 334721, Note_on_c, 9, 59, 0
5, 335188, Note_on_c, 9, 44, 48
5, 335201, Note_on_c, 9, 59, 35
5, 335439, Note_on_c, 9, 44, 0
5, 335474, Note_on_c, 9, 59, 0
5, 335624, Note_on_c, 9, 40, 22
5, 335842, Note_on_c, 9, 40, 0
5, 336106, Note_on_c, 9, 40, 30
5, 336139, Note_on_c, 9, 59, 48
5, 336151, Note_on_c, 9, 44, 48
5, 336403, Note_on_c, 9, 59, 0
5, 336522, Note_on_c, 9, 40, 0
5, 336578, Note_on_c, 9, 44, 0
5, 336619, Note_on_c, 9, 36, 28
5, 336696, Note_on_c, 9, 53, 57
5, 336787, Note_on_c, 9, 53, 0
5, 336905, Note_on_c, 9, 36, 0
5, 337092, Note_on_c, 9, 59, 59
5, 337113, Note_on_c, 9, 57, 58
5, 337180, Note_on_c, 9, 36, 47
5, 337602, Note_on_c, 9, 57, 0
5, 337635, Note_on_c, 9, 59, 0
5, 338019, Note_on_c, 9, 44, 39
5, 338081, Note_on_c, 9, 59, 40
5, 338137, Note_on_c, 9, 36, 0
5, 338214, Note_on_c, 9, 44, 0
5, 338248, Note_on_c, 9, 59, 0
5, 338595, Note_on_c, 9, 59, 46
5, 338697, Note_on_c, 9, 59, 0
5, 338930, Note_on_c, 9, 59, 44
5, 339069, Note_on_c, 9, 46, 52
5, 339302, Note_on_c, 9, 46, 0
5, 339337, Note_on_c, 9, 59, 0
5, 339489, Note_on_c, 9, 40, 20
5, 339501, Note_on_c, 9, 53, 54
5, 339580, Note_on_c, 9, 53, 0
5, 339598, Note_on_c, 9, 40, 0
5, 339944, Note_on_c, 9, 59, 71
5, 340056, Note_on_c, 9, 36, 30
5, 340900, Note_on_c, 9, 44, 43
5, 341216, Note_on_c, 9, 59, 0
5, 341594, Note_on_c, 9, 59, 53
5, 342062, Note_on_c, 9, 59, 0
5, 342914, Note_on_c, 9, 36, 0
5, 342924, Note_on_c, 9, 44, 0
5, 342930, Note_on_c, 9, 59, 44
5, 343436, Note_on_c, 9, 38, 21
5, 343469, Note_on_c, 9, 38, 0
5, 343579, Note_on_c, 9, 38, 28
5, 343620, Note_on_c, 9, 38, 0
5, 343758, Note_on_c, 9, 57, 71
5, 343773, Note_on_c, 9, 36, 35
5, 343826, Note_on_c, 9, 44, 37
5, 344105, Note_on_c, 9, 44, 0
5, 344682, Note_on_c, 9, 57, 0
5, 344847, Note_on_c, 9, 44, 34
5, 345474, Note_on_c, 9, 59, 0
5, 345655, Note_on_c, 9, 36, 0
5, 345913, Note_on_c, 9, 44, 0
5, 348325, Note_on_c, 9, 59, 44
5, 348583, Note_on_c, 9, 59, 0
5, 348930, Note_on_c, 9, 53, 47
5, 349226, Note_on_c, 9, 53, 0
5, 349226, End_track
0, 0, End_of_file
