0, 0, Header, 1, 2, 960
1, 0, Start_track
1, 0, Title_t, "What is There To Say"
1, 0, Text_t, "E Harburg (W) Vernon Duke (M)\012"
1, 0, Text_t, "dougmck@pipeline.com.au\012"
1, 0, Time_signature, 4, 2, 24, 8
1, 0, Key_signature, -3, "major"
1, 0, Tempo, 500000
1, 0, End_track
2, 0, Start_track
2, 0, Title_t, "Piano played in real time"
2, 0, Control_c, 0, 64, 127
2, 897, Control_c, 0, 64, 0
2, 901, Note_on_c, 0, 70, 53
2, 903, Note_on_c, 0, 58, 37
2, 906, Note_on_c, 0, 67, 53
2, 930, Note_on_c, 0, 51, 36
2, 1153, Control_c, 0, 64, 127
2, 1336, Note_on_c, 0, 67, 0
2, 1475, Note_on_c, 0, 70, 0
2, 1548, Note_on_c, 0, 58, 0
2, 3552, Note_on_c, 0, 72, 83
2, 3779, Note_on_c, 0, 51, 0
2, 3997, Note_on_c, 0, 72, 0
2, 4489, Note_on_c, 0, 75, 69
2, 4506, Control_c, 0, 64, 0
2, 4517, Note_on_c, 0, 67, 60
2, 4526, Note_on_c, 0, 48, 42
2, 4540, Note_on_c, 0, 63, 43
2, 4542, Note_on_c, 0, 58, 26
2, 4811, Control_c, 0, 64, 127
2, 4878, Note_on_c, 0, 67, 0
2, 4911, Note_on_c, 0, 63, 0
2, 4915, Note_on_c, 0, 58, 0
2, 5029, Note_on_c, 0, 48, 0
2, 5072, Note_on_c, 0, 75, 0
2, 5085, Note_on_c, 0, 55, 45
2, 5182, Note_on_c, 0, 55, 0
2, 5721, Note_on_c, 0, 63, 46
2, 5725, Note_on_c, 0, 67, 39
2, 5845, Note_on_c, 0, 67, 0
2, 6251, Note_on_c, 0, 67, 36
2, 6299, Note_on_c, 0, 79, 75
2, 6339, Note_on_c, 0, 67, 0
2, 6405, Note_on_c, 0, 63, 0
2, 6546, Note_on_c, 0, 79, 0
2, 7169, Note_on_c, 0, 79, 64
2, 7201, Control_c, 0, 64, 0
2, 7214, Note_on_c, 0, 41, 51
2, 7458, Control_c, 0, 64, 127
2, 7578, Note_on_c, 0, 79, 0
2, 7753, Note_on_c, 0, 41, 0
2, 7817, Note_on_c, 0, 55, 55
2, 8401, Note_on_c, 0, 56, 62
2, 8406, Note_on_c, 0, 60, 65
2, 8413, Note_on_c, 0, 55, 0
2, 8844, Note_on_c, 0, 60, 0
2, 8953, Note_on_c, 0, 63, 83
2, 9083, Note_on_c, 0, 56, 0
2, 9569, Note_on_c, 0, 63, 0
2, 9671, Note_on_c, 0, 65, 45
2, 9681, Note_on_c, 0, 62, 44
2, 9684, Note_on_c, 0, 56, 36
2, 9686, Note_on_c, 0, 59, 36
2, 9715, Note_on_c, 0, 46, 29
2, 9740, Control_c, 0, 64, 0
2, 10253, Control_c, 0, 64, 127
2, 10417, Note_on_c, 0, 59, 0
2, 10451, Note_on_c, 0, 67, 49
2, 10472, Note_on_c, 0, 56, 0
2, 10477, Note_on_c, 0, 53, 30
2, 10592, Note_on_c, 0, 65, 0
2, 10599, Note_on_c, 0, 62, 0
2, 10778, Note_on_c, 0, 67, 0
2, 11347, Note_on_c, 0, 62, 43
2, 11351, Note_on_c, 0, 71, 46
2, 11373, Note_on_c, 0, 68, 43
2, 11377, Control_c, 0, 64, 0
2, 11390, Note_on_c, 0, 65, 44
2, 11409, Note_on_c, 0, 56, 26
2, 11458, Note_on_c, 0, 53, 0
2, 11537, Control_c, 0, 64, 127
2, 11814, Note_on_c, 0, 65, 0
2, 11821, Note_on_c, 0, 62, 0
2, 11841, Note_on_c, 0, 71, 0
2, 11843, Note_on_c, 0, 68, 0
2, 12489, Note_on_c, 0, 77, 76
2, 12864, Note_on_c, 0, 77, 0
2, 12934, Note_on_c, 0, 46, 0
2, 12985, Note_on_c, 0, 56, 0
2, 13689, Note_on_c, 0, 74, 64
2, 13697, Note_on_c, 0, 66, 48
2, 13733, Note_on_c, 0, 62, 34
2, 13739, Note_on_c, 0, 69, 46
2, 13746, Note_on_c, 0, 51, 32
2, 13766, Control_c, 0, 64, 0
2, 13796, Note_on_c, 0, 59, 20
2, 14033, Note_on_c, 0, 69, 0
2, 14054, Control_c, 0, 64, 127
2, 14056, Note_on_c, 0, 62, 0
2, 14142, Note_on_c, 0, 74, 0
2, 14213, Note_on_c, 0, 66, 0
2, 14592, Note_on_c, 0, 75, 64
2, 14604, Note_on_c, 0, 59, 0
2, 14620, Note_on_c, 0, 60, 37
2, 14626, Note_on_c, 0, 63, 36
2, 14633, Note_on_c, 0, 70, 52
2, 14648, Note_on_c, 0, 67, 36
2, 14665, Control_c, 0, 64, 0
2, 14825, Control_c, 0, 64, 127
2, 14851, Note_on_c, 0, 67, 0
2, 14905, Note_on_c, 0, 63, 0
2, 14979, Note_on_c, 0, 70, 0
2, 15013, Note_on_c, 0, 75, 0
2, 15140, Note_on_c, 0, 60, 0
2, 15164, Note_on_c, 0, 51, 0
2, 15541, Note_on_c, 0, 79, 66
2, 15571, Note_on_c, 0, 52, 42
2, 15580, Note_on_c, 0, 67, 65
2, 15595, Control_c, 0, 64, 0
2, 15609, Note_on_c, 0, 61, 19
2, 15835, Control_c, 0, 64, 127
2, 15950, Note_on_c, 0, 67, 0
2, 16054, Note_on_c, 0, 52, 0
2, 16068, Note_on_c, 0, 79, 0
2, 16153, Note_on_c, 0, 61, 0
2, 16623, Note_on_c, 0, 87, 47
2, 16639, Note_on_c, 0, 75, 42
2, 16648, Note_on_c, 0, 80, 49
2, 16651, Note_on_c, 0, 69, 36
2, 16663, Note_on_c, 0, 64, 22
2, 16667, Note_on_c, 0, 58, 37
2, 16669, Note_on_c, 0, 84, 48
2, 16739, Control_c, 0, 64, 0
2, 17173, Control_c, 0, 64, 127
2, 17604, Note_on_c, 0, 69, 0
2, 17619, Note_on_c, 0, 64, 0
2, 17719, Note_on_c, 0, 58, 0
2, 17739, Note_on_c, 0, 84, 0
2, 17815, Note_on_c, 0, 75, 0
2, 17837, Note_on_c, 0, 87, 0
2, 17959, Note_on_c, 0, 80, 0
2, 18339, Note_on_c, 0, 86, 53
2, 18365, Note_on_c, 0, 41, 58
2, 18381, Note_on_c, 0, 83, 39
2, 18392, Control_c, 0, 64, 0
2, 18413, Note_on_c, 0, 79, 24
2, 18417, Note_on_c, 0, 74, 19
2, 18698, Control_c, 0, 64, 127
2, 18709, Note_on_c, 0, 86, 0
2, 18731, Note_on_c, 0, 83, 0
2, 18748, Note_on_c, 0, 79, 0
2, 18857, Note_on_c, 0, 74, 0
2, 19138, Note_on_c, 0, 51, 37
2, 19347, Note_on_c, 0, 41, 0
2, 19785, Note_on_c, 0, 51, 0
2, 19788, Note_on_c, 0, 62, 57
2, 19816, Note_on_c, 0, 55, 36
2, 19859, Note_on_c, 0, 62, 0
2, 20243, Note_on_c, 0, 55, 0
2, 20446, Note_on_c, 0, 74, 78
2, 20451, Note_on_c, 0, 60, 36
2, 20453, Note_on_c, 0, 67, 77
2, 20455, Note_on_c, 0, 63, 67
2, 20896, Note_on_c, 0, 63, 0
2, 20898, Note_on_c, 0, 74, 0
2, 20924, Note_on_c, 0, 67, 0
2, 21223, Note_on_c, 0, 74, 78
2, 21230, Note_on_c, 0, 67, 77
2, 21233, Note_on_c, 0, 63, 71
2, 21251, Note_on_c, 0, 60, 0
2, 21254, Note_on_c, 0, 62, 55
2, 21793, Note_on_c, 0, 74, 0
2, 21947, Note_on_c, 0, 72, 71
2, 21949, Note_on_c, 0, 62, 0
2, 21968, Note_on_c, 0, 60, 36
2, 22101, Note_on_c, 0, 60, 0
2, 22169, Note_on_c, 0, 67, 0
2, 22495, Note_on_c, 0, 63, 0
2, 22818, Note_on_c, 0, 66, 58
2, 22832, Note_on_c, 0, 63, 46
2, 22835, Note_on_c, 0, 57, 34
2, 22851, Note_on_c, 0, 54, 35
2, 22900, Control_c, 0, 64, 0
2, 23189, Control_c, 0, 64, 127
2, 23565, Note_on_c, 0, 72, 0
2, 23610, Note_on_c, 0, 63, 0
2, 23675, Note_on_c, 0, 66, 0
2, 23698, Note_on_c, 0, 74, 70
2, 24186, Note_on_c, 0, 57, 0
2, 24304, Note_on_c, 0, 74, 0
2, 24364, Note_on_c, 0, 54, 0
2, 24942, Note_on_c, 0, 72, 52
2, 24944, Note_on_c, 0, 87, 69
2, 24959, Control_c, 0, 64, 0
2, 24965, Note_on_c, 0, 82, 52
2, 24970, Note_on_c, 0, 77, 45
2, 25136, Control_c, 0, 64, 127
2, 25663, Note_on_c, 0, 82, 0
2, 25705, Note_on_c, 0, 87, 0
2, 25916, Note_on_c, 0, 77, 0
2, 26622, Note_on_c, 0, 74, 50
2, 26661, Note_on_c, 0, 72, 0
2, 26664, Note_on_c, 0, 84, 54
2, 26678, Note_on_c, 0, 79, 39
2, 26702, Note_on_c, 0, 68, 43
2, 27012, Note_on_c, 0, 74, 0
2, 27044, Note_on_c, 0, 84, 0
2, 27115, Note_on_c, 0, 68, 0
2, 27184, Note_on_c, 0, 86, 65
2, 27215, Note_on_c, 0, 70, 45
2, 27251, Note_on_c, 0, 86, 0
2, 27300, Note_on_c, 0, 79, 0
2, 27371, Note_on_c, 0, 70, 0
2, 27649, Note_on_c, 0, 82, 55
2, 27677, Note_on_c, 0, 75, 56
2, 27695, Note_on_c, 0, 72, 54
2, 27715, Note_on_c, 0, 67, 25
2, 27719, Control_c, 0, 64, 0
2, 27927, Control_c, 0, 64, 127
2, 28031, Note_on_c, 0, 75, 0
2, 28063, Note_on_c, 0, 82, 0
2, 28132, Note_on_c, 0, 72, 0
2, 28262, Note_on_c, 0, 67, 0
2, 28266, Note_on_c, 0, 84, 63
2, 28282, Note_on_c, 0, 68, 43
2, 28322, Note_on_c, 0, 72, 16
2, 28416, Note_on_c, 0, 84, 0
2, 28427, Note_on_c, 0, 68, 0
2, 28604, Note_on_c, 0, 72, 0
2, 28917, Note_on_c, 0, 72, 51
2, 28919, Note_on_c, 0, 67, 49
2, 28924, Note_on_c, 0, 79, 60
2, 28972, Note_on_c, 0, 75, 34
2, 29068, Note_on_c, 0, 67, 0
2, 29077, Note_on_c, 0, 72, 0
2, 29151, Note_on_c, 0, 75, 0
2, 29199, Note_on_c, 0, 79, 0
2, 29943, Note_on_c, 0, 82, 50
2, 29961, Note_on_c, 0, 75, 52
2, 29967, Note_on_c, 0, 68, 37
2, 30002, Note_on_c, 0, 41, 39
2, 30028, Control_c, 0, 64, 0
2, 30315, Note_on_c, 0, 82, 0
2, 30349, Control_c, 0, 64, 127
2, 30414, Note_on_c, 0, 75, 0
2, 30485, Note_on_c, 0, 68, 0
2, 30603, Note_on_c, 0, 48, 49
2, 31385, Note_on_c, 0, 70, 52
2, 31405, Note_on_c, 0, 56, 39
2, 31409, Note_on_c, 0, 63, 51
2, 31417, Note_on_c, 0, 55, 38
2, 31662, Note_on_c, 0, 56, 0
2, 31883, Note_on_c, 0, 63, 0
2, 32211, Note_on_c, 0, 70, 0
2, 32286, Note_on_c, 0, 65, 81
2, 32539, Note_on_c, 0, 41, 0
2, 32544, Note_on_c, 0, 65, 0
2, 32556, Note_on_c, 0, 55, 0
2, 32594, Note_on_c, 0, 48, 0
2, 32779, Note_on_c, 0, 67, 94
2, 33028, Note_on_c, 0, 67, 0
2, 33334, Note_on_c, 0, 63, 84
2, 33346, Note_on_c, 0, 60, 70
2, 33353, Note_on_c, 0, 46, 53
2, 33366, Note_on_c, 0, 56, 53
2, 33429, Control_c, 0, 64, 0
2, 33782, Control_c, 0, 64, 127
2, 33836, Note_on_c, 0, 60, 0
2, 33918, Note_on_c, 0, 63, 0
2, 34007, Note_on_c, 0, 53, 47
2, 34023, Note_on_c, 0, 65, 85
2, 34329, Note_on_c, 0, 56, 0
2, 34518, Note_on_c, 0, 65, 0
2, 34781, Note_on_c, 0, 65, 89
2, 34815, Note_on_c, 0, 56, 40
2, 35095, Note_on_c, 0, 46, 0
2, 35526, Note_on_c, 0, 56, 0
2, 35604, Note_on_c, 0, 60, 71
2, 35621, Note_on_c, 0, 46, 38
2, 35732, Note_on_c, 0, 53, 0
2, 35980, Note_on_c, 0, 46, 0
2, 35983, Note_on_c, 0, 60, 0
2, 36046, Note_on_c, 0, 65, 0
2, 36671, Note_on_c, 0, 72, 88
2, 36684, Note_on_c, 0, 64, 91
2, 36702, Control_c, 0, 64, 0
2, 36703, Note_on_c, 0, 43, 50
2, 36706, Note_on_c, 0, 52, 49
2, 37006, Control_c, 0, 64, 127
2, 37425, Note_on_c, 0, 43, 0
2, 37474, Note_on_c, 0, 72, 0
2, 37633, Note_on_c, 0, 43, 34
2, 37663, Note_on_c, 0, 64, 0
2, 38038, Note_on_c, 0, 52, 0
2, 38363, Note_on_c, 0, 69, 61
2, 38368, Note_on_c, 0, 52, 36
2, 38372, Note_on_c, 0, 60, 50
2, 39025, Note_on_c, 0, 69, 0
2, 39092, Note_on_c, 0, 71, 50
2, 39236, Note_on_c, 0, 43, 0
2, 39299, Note_on_c, 0, 60, 0
2, 39420, Note_on_c, 0, 52, 0
2, 39422, Note_on_c, 0, 71, 0
2, 39737, Note_on_c, 0, 67, 64
2, 39755, Note_on_c, 0, 59, 61
2, 39978, Note_on_c, 0, 59, 0
2, 39997, Note_on_c, 0, 67, 0
2, 40204, Note_on_c, 0, 69, 81
2, 40207, Note_on_c, 0, 60, 62
2, 40421, Note_on_c, 0, 69, 0
2, 40473, Note_on_c, 0, 60, 0
2, 40876, Note_on_c, 0, 65, 66
2, 40893, Note_on_c, 0, 57, 55
2, 40908, Note_on_c, 0, 60, 48
2, 40924, Note_on_c, 0, 43, 38
2, 40935, Note_on_c, 0, 52, 30
2, 40968, Control_c, 0, 64, 0
2, 41369, Control_c, 0, 64, 127
2, 41587, Note_on_c, 0, 57, 0
2, 41615, Note_on_c, 0, 65, 0
2, 41653, Note_on_c, 0, 43, 0
2, 41660, Note_on_c, 0, 60, 0
2, 41743, Note_on_c, 0, 52, 0
2, 41807, Note_on_c, 0, 59, 58
2, 41810, Note_on_c, 0, 67, 66
2, 41826, Note_on_c, 0, 43, 36
2, 42027, Note_on_c, 0, 67, 0
2, 42159, Note_on_c, 0, 59, 0
2, 42315, Note_on_c, 0, 43, 0
2, 42485, Note_on_c, 0, 64, 63
2, 42498, Note_on_c, 0, 55, 64
2, 42526, Note_on_c, 0, 43, 43
2, 42530, Note_on_c, 0, 59, 51
2, 42556, Control_c, 0, 64, 0
2, 42877, Control_c, 0, 64, 127
2, 42879, Note_on_c, 0, 43, 0
2, 43065, Note_on_c, 0, 43, 50
2, 43076, Note_on_c, 0, 55, 0
2, 43116, Note_on_c, 0, 59, 0
2, 43132, Note_on_c, 0, 64, 0
2, 43263, Note_on_c, 0, 43, 0
2, 43654, Note_on_c, 0, 43, 49
2, 43660, Note_on_c, 0, 31, 60
2, 43669, Note_on_c, 0, 65, 65
2, 43679, Note_on_c, 0, 60, 55
2, 43684, Note_on_c, 0, 57, 63
2, 43687, Note_on_c, 0, 62, 58
2, 43695, Control_c, 0, 64, 0
2, 44112, Control_c, 0, 64, 127
2, 44176, Note_on_c, 0, 31, 0
2, 44263, Note_on_c, 0, 62, 0
2, 44298, Note_on_c, 0, 60, 0
2, 44305, Note_on_c, 0, 65, 0
2, 44308, Note_on_c, 0, 31, 60
2, 44407, Note_on_c, 0, 57, 0
2, 44481, Note_on_c, 0, 43, 0
2, 44911, Note_on_c, 0, 53, 57
2, 44913, Note_on_c, 0, 60, 49
2, 44920, Note_on_c, 0, 43, 39
2, 44930, Note_on_c, 0, 57, 43
2, 44979, Control_c, 0, 64, 0
2, 45321, Note_on_c, 0, 31, 0
2, 45364, Control_c, 0, 64, 127
2, 45496, Note_on_c, 0, 31, 44
2, 45575, Note_on_c, 0, 57, 0
2, 45624, Note_on_c, 0, 60, 0
2, 45653, Note_on_c, 0, 53, 0
2, 45691, Note_on_c, 0, 43, 0
2, 46242, Note_on_c, 0, 64, 45
2, 46261, Note_on_c, 0, 56, 49
2, 46275, Note_on_c, 0, 43, 37
2, 46278, Note_on_c, 0, 59, 53
2, 46284, Note_on_c, 0, 53, 48
2, 46293, Control_c, 0, 64, 0
2, 46927, Note_on_c, 0, 43, 0
2, 46951, Control_c, 0, 64, 127
2, 47003, Note_on_c, 0, 31, 0
2, 47086, Note_on_c, 0, 31, 31
2, 47245, Note_on_c, 0, 53, 0
2, 47280, Note_on_c, 0, 64, 0
2, 47287, Note_on_c, 0, 59, 0
2, 47347, Note_on_c, 0, 56, 0
2, 47929, Note_on_c, 0, 62, 29
2, 47933, Note_on_c, 0, 53, 36
2, 47947, Note_on_c, 0, 56, 34
2, 47956, Note_on_c, 0, 43, 28
2, 47962, Control_c, 0, 64, 0
2, 47965, Note_on_c, 0, 59, 46
2, 48460, Control_c, 0, 64, 127
2, 48550, Note_on_c, 0, 31, 0
2, 48867, Note_on_c, 0, 43, 0
2, 48877, Note_on_c, 0, 59, 0
2, 48979, Note_on_c, 0, 53, 0
2, 49020, Note_on_c, 0, 56, 0
2, 49055, Note_on_c, 0, 62, 0
2, 49235, Note_on_c, 0, 59, 37
2, 49452, Note_on_c, 0, 59, 0
2, 52465, Note_on_c, 0, 75, 59
2, 52502, Control_c, 0, 64, 0
2, 52507, Note_on_c, 0, 65, 36
2, 52519, Note_on_c, 0, 70, 51
2, 52524, Note_on_c, 0, 60, 26
2, 52775, Control_c, 0, 64, 127
2, 52894, Note_on_c, 0, 75, 0
2, 52917, Note_on_c, 0, 70, 0
2, 52991, Note_on_c, 0, 65, 0
2, 53134, Note_on_c, 0, 60, 0
2, 53143, Control_c, 0, 64, 0
2, 53190, Note_on_c, 0, 72, 55
2, 53233, Note_on_c, 0, 56, 37
2, 53267, Note_on_c, 0, 67, 34
2, 53278, Note_on_c, 0, 62, 19
2, 53335, Control_c, 0, 64, 127
2, 53369, Note_on_c, 0, 62, 0
2, 53431, Note_on_c, 0, 72, 0
2, 53526, Note_on_c, 0, 67, 0
2, 53591, Note_on_c, 0, 56, 0
2, 53625, Control_c, 0, 64, 0
2, 53668, Note_on_c, 0, 74, 62
2, 53679, Note_on_c, 0, 58, 51
2, 53704, Note_on_c, 0, 65, 36
2, 53737, Control_c, 0, 64, 127
2, 53797, Note_on_c, 0, 74, 0
2, 53821, Note_on_c, 0, 65, 0
2, 53842, Note_on_c, 0, 58, 0
2, 54123, Control_c, 0, 64, 0
2, 54142, Note_on_c, 0, 55, 41
2, 54143, Note_on_c, 0, 70, 57
2, 54194, Note_on_c, 0, 65, 48
2, 54203, Note_on_c, 0, 62, 29
2, 54347, Control_c, 0, 64, 127
2, 54384, Note_on_c, 0, 62, 0
2, 54425, Note_on_c, 0, 65, 0
2, 54442, Note_on_c, 0, 55, 0
2, 54481, Note_on_c, 0, 70, 0
2, 54641, Note_on_c, 0, 58, 49
2, 54641, Note_on_c, 0, 68, 40
2, 54641, Note_on_c, 0, 72, 62
2, 54641, Note_on_c, 0, 63, 24
2, 54717, Note_on_c, 0, 63, 0
2, 54769, Note_on_c, 0, 72, 0
2, 54775, Note_on_c, 0, 58, 0
2, 54971, Note_on_c, 0, 68, 0
2, 55084, Control_c, 0, 64, 0
2, 55143, Note_on_c, 0, 67, 59
2, 55145, Note_on_c, 0, 60, 48
2, 55166, Note_on_c, 0, 53, 46
2, 55187, Note_on_c, 0, 63, 32
2, 55241, Note_on_c, 0, 53, 0
2, 55279, Note_on_c, 0, 60, 0
2, 55325, Control_c, 0, 64, 127
2, 55363, Note_on_c, 0, 63, 0
2, 55383, Note_on_c, 0, 67, 0
2, 55744, Note_on_c, 0, 70, 46
2, 55756, Note_on_c, 0, 63, 54
2, 55759, Control_c, 0, 64, 0
2, 55763, Note_on_c, 0, 56, 35
2, 55804, Note_on_c, 0, 41, 49
2, 56182, Note_on_c, 0, 56, 0
2, 56255, Control_c, 0, 64, 127
2, 56270, Note_on_c, 0, 48, 47
2, 56485, Note_on_c, 0, 63, 0
2, 56630, Note_on_c, 0, 70, 0
2, 56740, Note_on_c, 0, 60, 39
2, 56747, Note_on_c, 0, 65, 42
2, 56758, Note_on_c, 0, 55, 40
2, 56775, Note_on_c, 0, 63, 35
2, 57079, Note_on_c, 0, 60, 0
2, 57081, Note_on_c, 0, 41, 0
2, 57082, Note_on_c, 0, 65, 0
2, 57115, Note_on_c, 0, 48, 0
2, 57148, Note_on_c, 0, 63, 0
2, 57191, Note_on_c, 0, 67, 49
2, 57286, Note_on_c, 0, 55, 0
2, 57647, Note_on_c, 0, 67, 0
2, 57735, Note_on_c, 0, 63, 48
2, 57743, Note_on_c, 0, 46, 35
2, 57750, Note_on_c, 0, 60, 34
2, 57756, Note_on_c, 0, 56, 31
2, 57779, Control_c, 0, 64, 0
2, 58388, Control_c, 0, 64, 127
2, 58432, Note_on_c, 0, 53, 36
2, 58621, Note_on_c, 0, 56, 0
2, 58747, Note_on_c, 0, 60, 0
2, 58963, Note_on_c, 0, 63, 0
2, 59300, Note_on_c, 0, 65, 37
2, 59304, Note_on_c, 0, 60, 22
2, 59311, Note_on_c, 0, 56, 25
2, 60228, Note_on_c, 0, 60, 0
2, 60516, Note_on_c, 0, 60, 32
2, 60602, Note_on_c, 0, 56, 0
2, 60673, Note_on_c, 0, 53, 0
2, 60953, Note_on_c, 0, 46, 0
2, 61089, Note_on_c, 0, 65, 0
2, 61281, Note_on_c, 0, 60, 0
2, 62607, Note_on_c, 0, 58, 46
2, 62620, Note_on_c, 0, 53, 29
2, 62625, Note_on_c, 0, 55, 31
2, 62644, Note_on_c, 0, 46, 27
2, 62655, Control_c, 0, 64, 0
2, 62680, Note_on_c, 0, 39, 33
2, 63057, Control_c, 0, 64, 127
2, 63114, Note_on_c, 0, 53, 0
2, 63124, Note_on_c, 0, 55, 0
2, 63235, Note_on_c, 0, 39, 0
2, 63278, Note_on_c, 0, 58, 0
2, 63314, Note_on_c, 0, 46, 0
2, 64196, Control_c, 0, 64, 0
2, 64198, Note_on_c, 0, 70, 62
2, 64201, Note_on_c, 0, 60, 45
2, 64208, Note_on_c, 0, 65, 48
2, 64214, Note_on_c, 0, 55, 36
2, 64324, Control_c, 0, 64, 127
2, 64412, Note_on_c, 0, 65, 0
2, 64479, Note_on_c, 0, 60, 0
2, 64711, Note_on_c, 0, 70, 0
2, 64783, Note_on_c, 0, 72, 74
2, 64790, Control_c, 0, 64, 0
2, 64797, Note_on_c, 0, 55, 0
2, 64815, Note_on_c, 0, 62, 43
2, 64817, Note_on_c, 0, 56, 60
2, 64819, Note_on_c, 0, 67, 74
2, 64902, Control_c, 0, 64, 127
2, 64919, Note_on_c, 0, 62, 0
2, 65052, Note_on_c, 0, 67, 0
2, 65079, Note_on_c, 0, 72, 0
2, 65158, Note_on_c, 0, 56, 0
2, 66001, Note_on_c, 0, 75, 68
2, 66022, Note_on_c, 0, 70, 64
2, 66040, Note_on_c, 0, 60, 48
2, 66043, Note_on_c, 0, 65, 46
2, 66389, Control_c, 0, 64, 0
2, 66404, Note_on_c, 0, 65, 0
2, 66431, Note_on_c, 0, 75, 0
2, 66433, Note_on_c, 0, 70, 0
2, 66517, Note_on_c, 0, 58, 53
2, 66692, Note_on_c, 0, 60, 0
2, 66692, Control_c, 0, 64, 127
2, 66924, Note_on_c, 0, 67, 46
2, 67354, Note_on_c, 0, 79, 74
2, 67615, Note_on_c, 0, 79, 0
2, 67630, Note_on_c, 0, 58, 0
2, 67695, Note_on_c, 0, 67, 0
2, 67831, Note_on_c, 0, 53, 62
2, 67833, Note_on_c, 0, 79, 69
2, 67838, Control_c, 0, 64, 0
2, 68158, Control_c, 0, 64, 127
2, 68292, Note_on_c, 0, 60, 39
2, 68759, Note_on_c, 0, 79, 0
2, 68856, Note_on_c, 0, 67, 48
2, 69284, Note_on_c, 0, 53, 0
2, 69363, Note_on_c, 0, 60, 0
2, 69383, Note_on_c, 0, 68, 53
2, 69524, Note_on_c, 0, 67, 0
2, 69638, Note_on_c, 0, 68, 0
2, 69951, Note_on_c, 0, 69, 32
2, 69953, Note_on_c, 0, 72, 45
2, 69983, Note_on_c, 0, 68, 39
2, 69992, Note_on_c, 0, 58, 46
2, 70067, Control_c, 0, 64, 0
2, 70404, Control_c, 0, 64, 127
2, 70560, Note_on_c, 0, 75, 59
2, 70574, Note_on_c, 0, 68, 0
2, 70684, Note_on_c, 0, 69, 0
2, 70707, Note_on_c, 0, 72, 0
2, 70769, Note_on_c, 0, 58, 0
2, 71020, Note_on_c, 0, 75, 0
2, 71281, Note_on_c, 0, 67, 41
2, 71283, Note_on_c, 0, 71, 44
2, 71296, Note_on_c, 0, 74, 48
2, 71308, Note_on_c, 0, 56, 31
2, 71366, Control_c, 0, 64, 0
2, 71735, Control_c, 0, 64, 127
2, 72053, Note_on_c, 0, 77, 58
2, 72086, Note_on_c, 0, 46, 28
2, 72328, Note_on_c, 0, 46, 0
2, 72417, Note_on_c, 0, 56, 0
2, 72485, Note_on_c, 0, 74, 0
2, 72528, Note_on_c, 0, 77, 0
2, 72580, Note_on_c, 0, 71, 0
2, 72651, Note_on_c, 0, 67, 0
2, 73138, Note_on_c, 0, 66, 49
2, 73140, Note_on_c, 0, 74, 62
2, 73184, Note_on_c, 0, 51, 30
2, 73196, Control_c, 0, 64, 0
2, 73201, Note_on_c, 0, 69, 29
2, 73217, Note_on_c, 0, 59, 28
2, 73455, Note_on_c, 0, 69, 0
2, 73484, Control_c, 0, 64, 127
2, 73523, Note_on_c, 0, 74, 0
2, 73535, Note_on_c, 0, 66, 0
2, 73871, Note_on_c, 0, 75, 67
2, 73896, Note_on_c, 0, 67, 54
2, 73916, Note_on_c, 0, 59, 0
2, 73922, Note_on_c, 0, 70, 46
2, 73930, Note_on_c, 0, 60, 38
2, 74237, Note_on_c, 0, 67, 0
2, 74387, Note_on_c, 0, 75, 0
2, 74431, Note_on_c, 0, 51, 0
2, 74458, Note_on_c, 0, 70, 0
2, 74471, Note_on_c, 0, 60, 0
2, 75196, Note_on_c, 0, 79, 57
2, 75215, Note_on_c, 0, 62, 42
2, 75217, Note_on_c, 0, 74, 58
2, 75219, Note_on_c, 0, 67, 43
2, 75248, Control_c, 0, 64, 0
2, 75255, Note_on_c, 0, 55, 35
2, 75258, Note_on_c, 0, 58, 42
2, 75473, Control_c, 0, 64, 127
2, 75580, Note_on_c, 0, 67, 0
2, 75669, Note_on_c, 0, 55, 0
2, 75679, Note_on_c, 0, 62, 0
2, 75682, Note_on_c, 0, 74, 0
2, 75719, Note_on_c, 0, 79, 0
2, 75775, Note_on_c, 0, 58, 0
2, 77174, Note_on_c, 0, 84, 71
2, 77203, Note_on_c, 0, 58, 46
2, 77204, Note_on_c, 0, 75, 54
2, 77207, Note_on_c, 0, 63, 37
2, 77228, Note_on_c, 0, 52, 40
2, 77241, Control_c, 0, 64, 0
2, 77255, Note_on_c, 0, 80, 28
2, 77674, Control_c, 0, 64, 127
2, 78147, Note_on_c, 0, 63, 0
2, 78195, Note_on_c, 0, 52, 0
2, 78208, Note_on_c, 0, 58, 0
2, 78606, Note_on_c, 0, 84, 0
2, 78694, Note_on_c, 0, 75, 0
2, 78826, Note_on_c, 0, 80, 0
2, 79166, Control_c, 0, 64, 0
2, 79186, Note_on_c, 0, 41, 46
2, 79190, Note_on_c, 0, 84, 50
2, 79204, Note_on_c, 0, 75, 40
2, 79359, Control_c, 0, 64, 127
2, 79441, Note_on_c, 0, 84, 0
2, 79569, Note_on_c, 0, 75, 0
2, 79709, Note_on_c, 0, 41, 0
2, 79830, Note_on_c, 0, 55, 47
2, 80252, Note_on_c, 0, 56, 47
2, 80299, Note_on_c, 0, 55, 0
2, 80523, Note_on_c, 0, 60, 41
2, 80644, Note_on_c, 0, 60, 0
2, 80735, Note_on_c, 0, 63, 43
2, 80807, Note_on_c, 0, 63, 0
2, 80924, Note_on_c, 0, 65, 55
2, 81062, Note_on_c, 0, 65, 0
2, 81070, Note_on_c, 0, 67, 62
2, 81075, Note_on_c, 0, 56, 0
2, 81255, Note_on_c, 0, 68, 69
2, 81261, Note_on_c, 0, 67, 0
2, 81442, Note_on_c, 0, 68, 0
2, 81451, Note_on_c, 0, 70, 59
2, 81570, Note_on_c, 0, 71, 71
2, 81583, Note_on_c, 0, 70, 0
2, 81731, Note_on_c, 0, 71, 0
2, 81753, Note_on_c, 0, 72, 75
2, 81821, Note_on_c, 0, 73, 61
2, 81887, Note_on_c, 0, 72, 0
2, 81903, Note_on_c, 0, 73, 0
2, 81935, Note_on_c, 0, 74, 76
2, 82080, Note_on_c, 0, 75, 60
2, 82118, Control_c, 0, 64, 0
2, 82131, Note_on_c, 0, 74, 0
2, 82200, Note_on_c, 0, 75, 0
2, 82256, Note_on_c, 0, 76, 56
2, 82342, Note_on_c, 0, 56, 33
2, 82342, Note_on_c, 0, 65, 37
2, 82342, Note_on_c, 0, 77, 70
2, 82342, Note_on_c, 0, 60, 24
2, 82356, Note_on_c, 0, 76, 0
2, 82663, Control_c, 0, 64, 127
2, 82782, Note_on_c, 0, 77, 0
2, 82782, Note_on_c, 0, 65, 51
2, 82813, Note_on_c, 0, 65, 0
2, 82823, Note_on_c, 0, 60, 0
2, 82874, Note_on_c, 0, 56, 0
2, 83107, Note_on_c, 0, 65, 0
2, 83320, Note_on_c, 0, 56, 53
2, 83326, Note_on_c, 0, 46, 29
2, 83328, Note_on_c, 0, 67, 56
2, 83331, Note_on_c, 0, 74, 34
2, 83465, Control_c, 0, 64, 0
2, 83674, Control_c, 0, 64, 127
2, 83860, Note_on_c, 0, 67, 0
2, 83862, Note_on_c, 0, 56, 0
2, 83876, Note_on_c, 0, 74, 0
2, 83924, Note_on_c, 0, 71, 55
2, 83940, Note_on_c, 0, 67, 25
2, 83943, Note_on_c, 0, 62, 49
2, 83959, Note_on_c, 0, 56, 30
2, 84196, Note_on_c, 0, 67, 0
2, 84271, Note_on_c, 0, 72, 15
2, 84295, Note_on_c, 0, 71, 0
2, 84372, Note_on_c, 0, 62, 0
2, 84478, Note_on_c, 0, 56, 0
2, 84491, Note_on_c, 0, 72, 0
2, 84759, Note_on_c, 0, 62, 46
2, 84768, Note_on_c, 0, 67, 60
2, 84776, Note_on_c, 0, 51, 42
2, 84861, Control_c, 0, 64, 0
2, 85214, Control_c, 0, 64, 127
2, 85220, Note_on_c, 0, 46, 0
2, 85334, Note_on_c, 0, 67, 0
2, 85359, Note_on_c, 0, 62, 0
2, 85527, Note_on_c, 0, 51, 0
2, 85676, Note_on_c, 0, 75, 82
2, 85688, Note_on_c, 0, 70, 79
2, 85692, Note_on_c, 0, 65, 80
2, 85755, Note_on_c, 0, 60, 35
2, 85935, Note_on_c, 0, 75, 0
2, 85946, Note_on_c, 0, 70, 0
2, 85971, Note_on_c, 0, 65, 0
2, 86103, Note_on_c, 0, 60, 0
2, 86342, Note_on_c, 0, 72, 68
2, 86356, Note_on_c, 0, 63, 55
2, 86369, Note_on_c, 0, 67, 71
2, 86386, Note_on_c, 0, 56, 41
2, 86400, Control_c, 0, 64, 0
2, 86572, Note_on_c, 0, 72, 0
2, 86625, Control_c, 0, 64, 127
2, 86673, Note_on_c, 0, 63, 0
2, 86719, Note_on_c, 0, 67, 0
2, 86725, Note_on_c, 0, 56, 0
2, 86870, Note_on_c, 0, 56, 40
2, 86874, Note_on_c, 0, 70, 53
2, 86879, Note_on_c, 0, 74, 57
2, 86910, Note_on_c, 0, 65, 28
2, 86934, Note_on_c, 0, 74, 0
2, 86951, Note_on_c, 0, 70, 0
2, 86956, Note_on_c, 0, 56, 0
2, 87049, Note_on_c, 0, 65, 0
2, 87407, Note_on_c, 0, 70, 48
2, 87414, Note_on_c, 0, 48, 38
2, 87444, Control_c, 0, 64, 0
2, 87446, Note_on_c, 0, 63, 42
2, 87447, Note_on_c, 0, 58, 32
2, 87450, Note_on_c, 0, 67, 47
2, 87479, Note_on_c, 0, 60, 16
2, 87825, Note_on_c, 0, 60, 0
2, 87844, Control_c, 0, 64, 127
2, 87872, Note_on_c, 0, 63, 0
2, 87882, Note_on_c, 0, 67, 0
2, 87886, Note_on_c, 0, 58, 0
2, 87912, Note_on_c, 0, 55, 37
2, 88007, Note_on_c, 0, 70, 0
2, 88355, Note_on_c, 0, 58, 49
2, 88364, Note_on_c, 0, 72, 54
2, 88367, Note_on_c, 0, 63, 49
2, 88558, Note_on_c, 0, 72, 0
2, 88583, Note_on_c, 0, 58, 0
2, 88604, Note_on_c, 0, 55, 0
2, 88652, Note_on_c, 0, 63, 0
2, 88697, Note_on_c, 0, 48, 0
2, 88886, Note_on_c, 0, 67, 58
2, 89163, Note_on_c, 0, 67, 0
2, 89551, Note_on_c, 0, 70, 50
2, 89567, Note_on_c, 0, 63, 47
2, 89576, Control_c, 0, 64, 0
2, 89580, Note_on_c, 0, 41, 39
2, 89589, Note_on_c, 0, 56, 27
2, 89787, Note_on_c, 0, 70, 0
2, 89817, Control_c, 0, 64, 127
2, 89847, Note_on_c, 0, 63, 0
2, 89902, Note_on_c, 0, 56, 0
2, 90188, Note_on_c, 0, 48, 37
2, 90199, Note_on_c, 0, 55, 58
2, 90315, Control_c, 0, 64, 0
2, 90348, Note_on_c, 0, 55, 0
2, 90529, Note_on_c, 0, 56, 49
2, 90532, Note_on_c, 0, 41, 0
2, 90713, Note_on_c, 0, 56, 0
2, 90843, Note_on_c, 0, 55, 29
2, 90846, Note_on_c, 0, 58, 38
2, 90990, Note_on_c, 0, 58, 0
2, 91089, Note_on_c, 0, 48, 0
2, 91098, Note_on_c, 0, 60, 42
2, 91244, Note_on_c, 0, 60, 0
2, 91361, Note_on_c, 0, 62, 65
2, 91490, Note_on_c, 0, 62, 0
2, 91532, Note_on_c, 0, 55, 0
2, 91648, Note_on_c, 0, 63, 64
2, 91702, Note_on_c, 0, 53, 20
2, 91775, Control_c, 0, 64, 127
2, 91831, Note_on_c, 0, 63, 0
2, 91919, Control_c, 0, 64, 0
2, 91963, Note_on_c, 0, 62, 47
2, 91987, Note_on_c, 0, 65, 50
2, 92010, Note_on_c, 0, 53, 0
2, 92017, Note_on_c, 0, 46, 29
2, 92025, Note_on_c, 0, 56, 28
2, 92737, Control_c, 0, 64, 127
2, 92908, Note_on_c, 0, 56, 0
2, 93022, Note_on_c, 0, 53, 1
2, 93100, Note_on_c, 0, 62, 0
2, 93143, Note_on_c, 0, 65, 0
2, 93183, Note_on_c, 0, 63, 57
2, 93189, Note_on_c, 0, 60, 39
2, 93225, Note_on_c, 0, 56, 29
2, 93252, Note_on_c, 0, 53, 0
2, 93283, Control_c, 0, 64, 0
2, 93446, Note_on_c, 0, 60, 0
2, 93575, Note_on_c, 0, 63, 0
2, 93623, Note_on_c, 0, 59, 52
2, 93625, Note_on_c, 0, 62, 64
2, 93638, Note_on_c, 0, 53, 36
2, 93716, Control_c, 0, 64, 127
2, 93767, Note_on_c, 0, 59, 0
2, 93837, Note_on_c, 0, 56, 0
2, 93921, Note_on_c, 0, 62, 0
2, 93979, Note_on_c, 0, 60, 53
2, 93987, Note_on_c, 0, 63, 69
2, 94147, Note_on_c, 0, 60, 0
2, 94288, Note_on_c, 0, 53, 0
2, 94324, Note_on_c, 0, 63, 0
2, 94377, Note_on_c, 0, 62, 65
2, 94404, Note_on_c, 0, 59, 57
2, 94587, Note_on_c, 0, 59, 0
2, 94594, Note_on_c, 0, 46, 0
2, 94619, Note_on_c, 0, 62, 0
2, 94854, Note_on_c, 0, 61, 49
2, 94898, Note_on_c, 0, 59, 54
2, 95084, Note_on_c, 0, 59, 0
2, 95183, Note_on_c, 0, 61, 0
2, 95413, Note_on_c, 0, 58, 63
2, 95441, Note_on_c, 0, 55, 41
2, 95468, Note_on_c, 0, 43, 37
2, 95480, Control_c, 0, 64, 0
2, 95789, Note_on_c, 0, 55, 0
2, 95854, Note_on_c, 0, 58, 0
2, 95855, Note_on_c, 0, 50, 49
2, 95881, Control_c, 0, 64, 127
2, 96247, Note_on_c, 0, 58, 69
2, 96255, Note_on_c, 0, 43, 0
2, 96382, Note_on_c, 0, 50, 0
2, 96540, Note_on_c, 0, 58, 0
2, 96625, Note_on_c, 0, 62, 71
2, 96812, Note_on_c, 0, 62, 0
2, 97079, Note_on_c, 0, 63, 55
2, 97092, Note_on_c, 0, 48, 39
2, 97100, Note_on_c, 0, 62, 47
2, 97114, Note_on_c, 0, 58, 25
2, 97132, Control_c, 0, 64, 0
2, 97447, Note_on_c, 0, 62, 0
2, 97519, Note_on_c, 0, 62, 33
2, 97534, Note_on_c, 0, 65, 66
2, 97563, Note_on_c, 0, 58, 0
2, 97575, Note_on_c, 0, 55, 34
2, 97614, Note_on_c, 0, 63, 0
2, 97790, Control_c, 0, 64, 127
2, 97823, Note_on_c, 0, 65, 0
2, 97829, Note_on_c, 0, 62, 0
2, 98037, Note_on_c, 0, 65, 61
2, 98042, Note_on_c, 0, 62, 41
2, 98087, Note_on_c, 0, 58, 29
2, 98382, Note_on_c, 0, 55, 0
2, 98419, Note_on_c, 0, 58, 0
2, 98439, Note_on_c, 0, 62, 0
2, 98498, Note_on_c, 0, 48, 0
2, 98504, Note_on_c, 0, 67, 59
2, 98728, Note_on_c, 0, 67, 0
2, 98796, Note_on_c, 0, 65, 0
2, 99047, Note_on_c, 0, 44, 34
2, 99049, Note_on_c, 0, 68, 39
2, 99063, Note_on_c, 0, 59, 37
2, 99066, Note_on_c, 0, 63, 43
2, 99071, Note_on_c, 0, 54, 25
2, 99089, Control_c, 0, 64, 0
2, 99515, Note_on_c, 0, 70, 68
2, 99533, Note_on_c, 0, 54, 0
2, 99535, Note_on_c, 0, 51, 35
2, 99555, Control_c, 0, 64, 127
2, 99663, Note_on_c, 0, 68, 0
2, 99693, Note_on_c, 0, 44, 0
2, 99762, Note_on_c, 0, 59, 0
2, 99776, Note_on_c, 0, 70, 0
2, 99849, Note_on_c, 0, 63, 0
2, 100022, Note_on_c, 0, 70, 56
2, 100048, Note_on_c, 0, 63, 53
2, 100081, Note_on_c, 0, 58, 43
2, 100451, Note_on_c, 0, 63, 0
2, 100464, Note_on_c, 0, 70, 0
2, 100496, Note_on_c, 0, 58, 0
2, 100514, Note_on_c, 0, 71, 65
2, 100612, Note_on_c, 0, 51, 0
2, 100921, Note_on_c, 0, 71, 0
2, 101081, Note_on_c, 0, 71, 43
2, 101110, Note_on_c, 0, 56, 32
2, 101127, Control_c, 0, 64, 0
2, 101129, Note_on_c, 0, 46, 28
2, 101131, Note_on_c, 0, 62, 50
2, 101447, Control_c, 0, 64, 127
2, 101495, Note_on_c, 0, 71, 0
2, 101683, Note_on_c, 0, 72, 66
2, 101708, Note_on_c, 0, 53, 34
2, 101844, Note_on_c, 0, 56, 0
2, 102047, Note_on_c, 0, 72, 0
2, 102127, Note_on_c, 0, 62, 0
2, 102305, Note_on_c, 0, 72, 56
2, 102326, Note_on_c, 0, 62, 42
2, 102361, Note_on_c, 0, 56, 33
2, 102701, Note_on_c, 0, 72, 0
2, 102849, Note_on_c, 0, 46, 0
2, 102958, Note_on_c, 0, 62, 0
2, 102976, Note_on_c, 0, 46, 26
2, 103003, Note_on_c, 0, 74, 67
2, 103067, Note_on_c, 0, 53, 0
2, 103174, Note_on_c, 0, 46, 0
2, 103279, Note_on_c, 0, 56, 0
2, 103624, Note_on_c, 0, 74, 0
2, 103727, Note_on_c, 0, 62, 40
2, 103742, Note_on_c, 0, 70, 48
2, 103766, Note_on_c, 0, 51, 42
2, 103822, Control_c, 0, 64, 0
2, 104334, Control_c, 0, 64, 127
2, 104415, Note_on_c, 0, 62, 0
2, 104455, Note_on_c, 0, 59, 56
2, 104798, Note_on_c, 0, 70, 0
2, 105167, Note_on_c, 0, 59, 0
2, 105183, Note_on_c, 0, 72, 65
2, 105207, Note_on_c, 0, 60, 51
2, 105209, Note_on_c, 0, 67, 71
2, 105217, Control_c, 0, 64, 0
2, 105586, Control_c, 0, 64, 127
2, 105801, Note_on_c, 0, 51, 0
2, 106078, Note_on_c, 0, 52, 80
2, 106324, Control_c, 0, 64, 0
2, 106372, Control_c, 0, 64, 127
2, 107079, Note_on_c, 0, 75, 73
2, 107091, Note_on_c, 0, 63, 60
2, 107101, Note_on_c, 0, 72, 0
2, 107174, Control_c, 0, 64, 0
2, 107351, Control_c, 0, 64, 127
2, 107828, Note_on_c, 0, 52, 0
2, 108708, Note_on_c, 0, 60, 0
2, 108883, Note_on_c, 0, 67, 0
2, 108896, Note_on_c, 0, 63, 0
2, 109199, Note_on_c, 0, 75, 0
2, 110035, Note_on_c, 0, 79, 67
2, 110047, Note_on_c, 0, 70, 48
2, 110071, Note_on_c, 0, 64, 42
2, 110353, Note_on_c, 0, 79, 0
2, 110572, Note_on_c, 0, 70, 0
2, 110932, Note_on_c, 0, 64, 0
2, 111015, Note_on_c, 0, 79, 68
2, 111038, Note_on_c, 0, 53, 45
2, 111103, Control_c, 0, 64, 0
2, 111521, Control_c, 0, 64, 127
2, 111553, Note_on_c, 0, 67, 57
2, 111780, Note_on_c, 0, 79, 0
2, 112032, Note_on_c, 0, 68, 57
2, 112364, Note_on_c, 0, 53, 0
2, 112406, Note_on_c, 0, 68, 0
2, 112502, Note_on_c, 0, 67, 0
2, 112523, Note_on_c, 0, 72, 60
2, 112957, Note_on_c, 0, 72, 0
2, 113020, Note_on_c, 0, 75, 57
2, 113034, Note_on_c, 0, 71, 32
2, 113037, Note_on_c, 0, 62, 34
2, 113044, Note_on_c, 0, 66, 42
2, 113054, Note_on_c, 0, 72, 46
2, 113125, Control_c, 0, 64, 0
2, 113415, Note_on_c, 0, 72, 0
2, 113446, Control_c, 0, 64, 127
2, 113591, Note_on_c, 0, 79, 54
2, 113603, Note_on_c, 0, 56, 38
2, 113607, Note_on_c, 0, 71, 0
2, 113617, Note_on_c, 0, 66, 0
2, 113628, Note_on_c, 0, 62, 0
2, 113768, Note_on_c, 0, 56, 0
2, 113909, Note_on_c, 0, 79, 0
2, 113986, Note_on_c, 0, 75, 0
2, 114211, Note_on_c, 0, 56, 39
2, 114212, Note_on_c, 0, 77, 44
2, 114237, Note_on_c, 0, 71, 47
2, 114251, Note_on_c, 0, 67, 41
2, 114261, Note_on_c, 0, 74, 38
2, 114265, Control_c, 0, 64, 0
2, 114537, Note_on_c, 0, 77, 0
2, 114540, Note_on_c, 0, 74, 0
2, 114569, Control_c, 0, 64, 127
2, 114603, Note_on_c, 0, 71, 0
2, 114632, Note_on_c, 0, 56, 0
2, 114671, Note_on_c, 0, 67, 0
2, 114861, Note_on_c, 0, 71, 49
2, 114874, Control_c, 0, 64, 0
2, 114885, Note_on_c, 0, 44, 27
2, 114900, Note_on_c, 0, 62, 46
2, 114923, Note_on_c, 0, 54, 23
2, 114948, Note_on_c, 0, 67, 28
2, 115061, Note_on_c, 0, 67, 0
2, 115163, Control_c, 0, 64, 127
2, 115204, Note_on_c, 0, 62, 0
2, 115209, Note_on_c, 0, 71, 0
2, 115466, Note_on_c, 0, 54, 0
2, 115559, Note_on_c, 0, 44, 0
2, 115636, Note_on_c, 0, 65, 50
2, 115642, Note_on_c, 0, 70, 29
2, 115656, Note_on_c, 0, 62, 32
2, 115679, Note_on_c, 0, 43, 34
2, 115682, Note_on_c, 0, 53, 36
2, 115708, Control_c, 0, 64, 0
2, 116060, Control_c, 0, 64, 127
2, 116283, Note_on_c, 0, 65, 0
2, 116300, Note_on_c, 0, 70, 0
2, 116388, Note_on_c, 0, 50, 40
2, 116413, Note_on_c, 0, 62, 0
2, 116527, Note_on_c, 0, 53, 0
2, 116818, Note_on_c, 0, 50, 0
2, 117003, Note_on_c, 0, 50, 27
2, 117023, Note_on_c, 0, 62, 62
2, 117030, Note_on_c, 0, 55, 57
2, 117031, Note_on_c, 0, 58, 55
2, 117510, Note_on_c, 0, 43, 0
2, 117519, Note_on_c, 0, 55, 0
2, 117583, Note_on_c, 0, 62, 0
2, 117627, Note_on_c, 0, 58, 0
2, 117692, Note_on_c, 0, 43, 41
2, 117700, Note_on_c, 0, 58, 48
2, 117706, Note_on_c, 0, 63, 69
2, 117711, Note_on_c, 0, 55, 51
2, 117804, Note_on_c, 0, 50, 0
2, 117923, Note_on_c, 0, 43, 0
2, 117956, Note_on_c, 0, 55, 0
2, 118028, Note_on_c, 0, 58, 0
2, 118141, Note_on_c, 0, 63, 0
2, 118558, Note_on_c, 0, 67, 74
2, 118573, Note_on_c, 0, 58, 65
2, 118583, Note_on_c, 0, 62, 68
2, 118595, Control_c, 0, 64, 0
2, 118599, Note_on_c, 0, 43, 41
2, 118607, Note_on_c, 0, 53, 48
2, 118900, Control_c, 0, 64, 127
2, 119608, Note_on_c, 0, 58, 0
2, 119966, Note_on_c, 0, 43, 0
2, 119997, Note_on_c, 0, 67, 0
2, 120081, Note_on_c, 0, 62, 0
2, 120104, Note_on_c, 0, 53, 0
2, 120692, Note_on_c, 0, 72, 64
2, 120698, Note_on_c, 0, 64, 54
2, 120704, Note_on_c, 0, 68, 61
2, 120729, Note_on_c, 0, 58, 43
2, 120743, Control_c, 0, 64, 0
2, 121129, Control_c, 0, 64, 127
2, 121633, Note_on_c, 0, 58, 0
2, 121893, Note_on_c, 0, 64, 0
2, 121946, Note_on_c, 0, 68, 0
2, 122095, Note_on_c, 0, 72, 0
2, 122879, Note_on_c, 0, 72, 47
2, 122890, Note_on_c, 0, 41, 41
2, 122908, Note_on_c, 0, 68, 37
2, 122926, Note_on_c, 0, 63, 25
2, 122941, Control_c, 0, 64, 0
2, 123434, Note_on_c, 0, 41, 0
2, 123574, Note_on_c, 0, 55, 49
2, 123615, Control_c, 0, 64, 127
2, 124207, Note_on_c, 0, 63, 0
2, 124237, Note_on_c, 0, 72, 0
2, 124263, Note_on_c, 0, 56, 42
2, 124264, Note_on_c, 0, 68, 0
2, 124266, Note_on_c, 0, 55, 0
2, 124737, Note_on_c, 0, 60, 60
2, 124850, Note_on_c, 0, 56, 0
2, 125085, Note_on_c, 0, 60, 0
2, 125239, Note_on_c, 0, 63, 56
2, 125272, Note_on_c, 0, 59, 57
2, 125289, Note_on_c, 0, 46, 33
2, 125302, Note_on_c, 0, 56, 31
2, 125396, Control_c, 0, 64, 0
2, 125926, Note_on_c, 0, 53, 34
2, 125989, Control_c, 0, 64, 127
2, 126298, Note_on_c, 0, 56, 0
2, 126601, Note_on_c, 0, 59, 0
2, 126666, Note_on_c, 0, 63, 0
2, 126695, Control_c, 0, 64, 0
2, 126730, Note_on_c, 0, 59, 38
2, 126770, Note_on_c, 0, 62, 44
2, 126792, Note_on_c, 0, 56, 20
2, 126903, Control_c, 0, 64, 127
2, 127009, Note_on_c, 0, 59, 0
2, 127082, Note_on_c, 0, 62, 0
2, 127572, Note_on_c, 0, 77, 67
2, 127706, Note_on_c, 0, 53, 0
2, 127804, Note_on_c, 0, 46, 0
2, 127879, Note_on_c, 0, 56, 0
2, 128294, Note_on_c, 0, 77, 0
2, 128771, Note_on_c, 0, 75, 62
2, 128796, Control_c, 0, 64, 0
2, 128811, Note_on_c, 0, 70, 51
2, 128828, Note_on_c, 0, 65, 40
2, 128834, Note_on_c, 0, 60, 29
2, 129069, Control_c, 0, 64, 127
2, 129347, Note_on_c, 0, 75, 0
2, 129391, Note_on_c, 0, 70, 0
2, 129618, Note_on_c, 0, 65, 0
2, 129931, Note_on_c, 0, 72, 60
2, 130071, Note_on_c, 0, 60, 0
2, 130192, Note_on_c, 0, 72, 0
2, 130284, Note_on_c, 0, 74, 53
2, 130385, Note_on_c, 0, 74, 0
2, 130756, Note_on_c, 0, 63, 36
2, 130762, Note_on_c, 0, 70, 35
2, 130764, Note_on_c, 0, 67, 48
2, 130775, Note_on_c, 0, 58, 35
2, 130778, Note_on_c, 0, 62, 37
2, 130834, Control_c, 0, 64, 0
2, 131090, Control_c, 0, 64, 127
2, 131161, Note_on_c, 0, 67, 0
2, 131180, Note_on_c, 0, 63, 0
2, 131226, Note_on_c, 0, 70, 0
2, 131239, Note_on_c, 0, 62, 0
2, 131298, Note_on_c, 0, 58, 0
2, 131303, Note_on_c, 0, 72, 69
2, 131316, Note_on_c, 0, 55, 40
2, 131465, Note_on_c, 0, 72, 0
2, 131796, Control_c, 0, 64, 0
2, 131842, Note_on_c, 0, 48, 35
2, 131848, Note_on_c, 0, 67, 58
2, 131850, Note_on_c, 0, 60, 38
2, 131863, Note_on_c, 0, 63, 37
2, 131908, Note_on_c, 0, 55, 0
2, 131980, Note_on_c, 0, 60, 0
2, 131988, Control_c, 0, 64, 127
2, 132046, Note_on_c, 0, 48, 0
2, 132161, Note_on_c, 0, 63, 0
2, 132178, Note_on_c, 0, 67, 0
2, 132430, Note_on_c, 0, 70, 55
2, 132462, Note_on_c, 0, 41, 44
2, 132466, Note_on_c, 0, 63, 51
2, 132485, Control_c, 0, 64, 0
2, 132951, Control_c, 0, 64, 127
2, 132991, Note_on_c, 0, 48, 45
2, 133332, Note_on_c, 0, 63, 0
2, 133345, Note_on_c, 0, 70, 0
2, 133484, Note_on_c, 0, 65, 57
2, 133512, Note_on_c, 0, 60, 31
2, 133610, Note_on_c, 0, 41, 0
2, 133712, Note_on_c, 0, 48, 0
2, 133918, Note_on_c, 0, 65, 0
2, 133931, Note_on_c, 0, 60, 0
2, 134006, Note_on_c, 0, 63, 21
2, 134008, Note_on_c, 0, 67, 44
2, 134201, Note_on_c, 0, 67, 0
2, 134412, Note_on_c, 0, 63, 0
2, 134609, Note_on_c, 0, 63, 37
2, 134618, Note_on_c, 0, 60, 33
2, 134655, Note_on_c, 0, 46, 28
2, 134667, Control_c, 0, 64, 0
2, 134675, Note_on_c, 0, 56, 27
2, 135100, Control_c, 0, 64, 127
2, 135332, Note_on_c, 0, 65, 40
2, 136114, Note_on_c, 0, 65, 0
2, 136298, Note_on_c, 0, 65, 42
2, 136369, Note_on_c, 0, 63, 0
2, 137111, Note_on_c, 0, 56, 0
2, 137125, Note_on_c, 0, 65, 0
2, 137177, Note_on_c, 0, 62, 42
2, 137183, Note_on_c, 0, 60, 0
2, 137338, Note_on_c, 0, 46, 0
2, 137606, Note_on_c, 0, 62, 0
2, 138037, Note_on_c, 0, 39, 48
2, 138058, Note_on_c, 0, 63, 46
2, 138132, Control_c, 0, 64, 0
2, 138356, Control_c, 0, 64, 127
2, 138540, Note_on_c, 0, 46, 30
2, 138553, Note_on_c, 0, 63, 0
2, 138849, Note_on_c, 0, 39, 0
2, 139057, Note_on_c, 0, 46, 0
2, 139090, Note_on_c, 0, 40, 38
2, 139101, Note_on_c, 0, 64, 52
2, 139106, Note_on_c, 0, 58, 44
2, 139127, Control_c, 0, 64, 0
2, 139145, Note_on_c, 0, 49, 27
2, 139161, Note_on_c, 0, 61, 30
2, 139447, Control_c, 0, 64, 127
2, 139462, Note_on_c, 0, 64, 0
2, 139540, Note_on_c, 0, 67, 68
2, 139684, Note_on_c, 0, 61, 0
2, 139689, Note_on_c, 0, 58, 0
2, 139695, Note_on_c, 0, 67, 0
2, 139706, Note_on_c, 0, 40, 0
2, 139753, Note_on_c, 0, 49, 0
2, 140074, Note_on_c, 0, 63, 62
2, 140076, Note_on_c, 0, 41, 49
2, 140087, Note_on_c, 0, 56, 54
2, 140095, Note_on_c, 0, 70, 50
2, 140105, Control_c, 0, 64, 0
2, 140471, Note_on_c, 0, 70, 0
2, 140570, Control_c, 0, 64, 127
2, 140572, Note_on_c, 0, 56, 0
2, 140610, Note_on_c, 0, 63, 0
2, 140614, Note_on_c, 0, 68, 59
2, 140764, Note_on_c, 0, 41, 0
2, 140823, Note_on_c, 0, 48, 11
2, 140974, Note_on_c, 0, 68, 0
2, 141152, Note_on_c, 0, 48, 0
2, 141230, Note_on_c, 0, 42, 44
2, 141242, Note_on_c, 0, 63, 52
2, 141244, Note_on_c, 0, 57, 35
2, 141257, Note_on_c, 0, 51, 30
2, 141312, Control_c, 0, 64, 0
2, 141697, Control_c, 0, 64, 127
2, 142558, Note_on_c, 0, 69, 58
2, 142847, Note_on_c, 0, 69, 0
2, 142938, Note_on_c, 0, 57, 0
2, 143126, Note_on_c, 0, 42, 0
2, 143155, Note_on_c, 0, 63, 0
2, 143157, Note_on_c, 0, 51, 0
2, 143457, Note_on_c, 0, 70, 42
2, 143482, Note_on_c, 0, 43, 34
2, 143490, Note_on_c, 0, 58, 33
2, 143494, Control_c, 0, 64, 0
2, 143506, Note_on_c, 0, 63, 36
2, 143538, Note_on_c, 0, 67, 30
2, 143975, Note_on_c, 0, 51, 35
2, 144039, Control_c, 0, 64, 127
2, 144042, Note_on_c, 0, 58, 0
2, 144102, Note_on_c, 0, 63, 0
2, 144214, Note_on_c, 0, 67, 0
2, 144304, Note_on_c, 0, 70, 0
2, 144464, Note_on_c, 0, 43, 0
2, 144473, Note_on_c, 0, 58, 51
2, 144481, Note_on_c, 0, 63, 56
2, 144621, Note_on_c, 0, 51, 0
2, 145049, Note_on_c, 0, 55, 76
2, 145474, Note_on_c, 0, 58, 0
2, 145530, Note_on_c, 0, 63, 0
2, 145702, Note_on_c, 0, 55, 0
2, 145719, Note_on_c, 0, 54, 70
2, 145756, Control_c, 0, 64, 0
2, 146076, Control_c, 0, 64, 127
2, 146354, Note_on_c, 0, 60, 50
2, 146710, Note_on_c, 0, 54, 0
2, 146844, Note_on_c, 0, 60, 0
2, 147063, Note_on_c, 0, 66, 50
2, 147116, Note_on_c, 0, 63, 52
2, 147765, Note_on_c, 0, 63, 0
2, 147794, Note_on_c, 0, 75, 64
2, 147809, Note_on_c, 0, 60, 31
2, 148255, Note_on_c, 0, 66, 0
2, 148482, Note_on_c, 0, 75, 0
2, 148831, Note_on_c, 0, 60, 0
2, 148861, Note_on_c, 0, 75, 60
2, 148893, Note_on_c, 0, 53, 38
2, 148899, Control_c, 0, 64, 0
2, 149236, Control_c, 0, 64, 127
2, 149377, Note_on_c, 0, 75, 0
2, 149502, Note_on_c, 0, 60, 37
2, 150100, Note_on_c, 0, 53, 0
2, 150122, Note_on_c, 0, 74, 51
2, 150230, Note_on_c, 0, 72, 58
2, 150250, Note_on_c, 0, 74, 0
2, 150393, Note_on_c, 0, 72, 0
2, 150433, Note_on_c, 0, 74, 40
2, 150580, Note_on_c, 0, 72, 48
2, 150644, Note_on_c, 0, 74, 0
2, 150780, Note_on_c, 0, 71, 65
2, 150788, Note_on_c, 0, 72, 0
2, 150914, Note_on_c, 0, 71, 0
2, 150986, Note_on_c, 0, 63, 46
2, 150991, Note_on_c, 0, 72, 62
2, 151002, Note_on_c, 0, 60, 0
2, 151015, Note_on_c, 0, 54, 39
2, 151033, Control_c, 0, 64, 0
2, 151551, Note_on_c, 0, 60, 37
2, 151578, Control_c, 0, 64, 127
2, 151593, Note_on_c, 0, 63, 0
2, 152032, Note_on_c, 0, 63, 39
2, 152592, Note_on_c, 0, 54, 0
2, 152831, Note_on_c, 0, 74, 82
2, 152922, Note_on_c, 0, 72, 0
2, 153031, Note_on_c, 0, 63, 0
2, 153226, Note_on_c, 0, 74, 0
2, 153240, Note_on_c, 0, 60, 0
2, 153318, Note_on_c, 0, 55, 50
2, 153327, Control_c, 0, 64, 0
2, 153330, Note_on_c, 0, 75, 71
2, 153604, Note_on_c, 0, 75, 0
2, 153664, Control_c, 0, 64, 127
2, 153770, Note_on_c, 0, 72, 59
2, 153829, Note_on_c, 0, 55, 0
2, 154025, Note_on_c, 0, 72, 0
2, 154209, Control_c, 0, 64, 0
2, 154215, Note_on_c, 0, 54, 35
2, 154225, Note_on_c, 0, 63, 33
2, 154226, Note_on_c, 0, 72, 55
2, 154250, Note_on_c, 0, 60, 1
2, 154610, Control_c, 0, 64, 127
2, 154670, Note_on_c, 0, 72, 0
2, 154673, Note_on_c, 0, 74, 69
2, 154686, Note_on_c, 0, 63, 0
2, 155025, Note_on_c, 0, 74, 0
2, 155049, Note_on_c, 0, 54, 0
2, 155158, Note_on_c, 0, 53, 50
2, 155162, Note_on_c, 0, 75, 60
2, 155172, Control_c, 0, 64, 0
2, 155219, Note_on_c, 0, 63, 31
2, 155223, Note_on_c, 0, 68, 28
2, 155239, Note_on_c, 0, 65, 38
2, 155541, Control_c, 0, 64, 127
2, 155714, Note_on_c, 0, 65, 0
2, 155734, Note_on_c, 0, 75, 0
2, 155770, Note_on_c, 0, 72, 67
2, 155853, Note_on_c, 0, 68, 0
2, 155909, Note_on_c, 0, 53, 0
2, 156112, Note_on_c, 0, 74, 64
2, 156118, Note_on_c, 0, 72, 0
2, 156215, Note_on_c, 0, 63, 0
2, 156359, Note_on_c, 0, 74, 0
2, 156532, Note_on_c, 0, 54, 37
2, 156547, Note_on_c, 0, 75, 55
2, 156571, Note_on_c, 0, 63, 21
2, 156615, Control_c, 0, 64, 0
2, 157060, Note_on_c, 0, 75, 0
2, 157064, Control_c, 0, 64, 127
2, 157087, Note_on_c, 0, 72, 55
2, 157375, Note_on_c, 0, 60, 0
2, 157423, Note_on_c, 0, 63, 0
2, 157434, Note_on_c, 0, 54, 0
2, 157467, Note_on_c, 0, 74, 51
2, 157544, Note_on_c, 0, 72, 0
2, 157711, Note_on_c, 0, 74, 0
2, 157915, Control_c, 0, 64, 0
2, 157916, Note_on_c, 0, 75, 56
2, 157941, Note_on_c, 0, 62, 43
2, 157998, Note_on_c, 0, 55, 22
2, 158000, Note_on_c, 0, 67, 24
2, 158098, Note_on_c, 0, 75, 0
2, 158123, Control_c, 0, 64, 127
2, 158128, Note_on_c, 0, 62, 0
2, 158169, Note_on_c, 0, 67, 0
2, 158186, Note_on_c, 0, 55, 0
2, 158581, Note_on_c, 0, 72, 58
2, 158594, Note_on_c, 0, 63, 53
2, 158641, Note_on_c, 0, 67, 42
2, 158781, Note_on_c, 0, 67, 0
2, 158843, Note_on_c, 0, 63, 0
2, 159259, Note_on_c, 0, 72, 0
2, 159402, Note_on_c, 0, 72, 47
2, 159426, Note_on_c, 0, 63, 51
2, 159439, Control_c, 0, 64, 0
2, 159447, Note_on_c, 0, 60, 40
2, 159530, Note_on_c, 0, 45, 24
2, 159559, Note_on_c, 0, 55, 9
2, 159663, Control_c, 0, 64, 127
2, 159695, Note_on_c, 0, 72, 0
2, 159735, Note_on_c, 0, 55, 0
2, 159779, Note_on_c, 0, 63, 0
2, 159804, Note_on_c, 0, 60, 0
2, 159839, Note_on_c, 0, 45, 0
2, 160562, Note_on_c, 0, 65, 52
2, 160593, Note_on_c, 0, 54, 28
2, 160595, Note_on_c, 0, 38, 27
2, 160602, Note_on_c, 0, 60, 31
2, 160610, Control_c, 0, 64, 0
2, 160612, Note_on_c, 0, 26, 43
2, 160615, Note_on_c, 0, 58, 37
2, 161171, Control_c, 0, 64, 127
2, 161559, Note_on_c, 0, 26, 0
2, 161577, Note_on_c, 0, 65, 0
2, 161655, Note_on_c, 0, 63, 64
2, 161705, Note_on_c, 0, 38, 0
2, 161977, Note_on_c, 0, 54, 0
2, 162079, Note_on_c, 0, 63, 0
2, 162103, Note_on_c, 0, 58, 0
2, 162163, Note_on_c, 0, 60, 0
2, 162322, Note_on_c, 0, 62, 53
2, 162342, Control_c, 0, 64, 0
2, 162359, Note_on_c, 0, 58, 44
2, 162366, Note_on_c, 0, 43, 36
2, 162373, Note_on_c, 0, 55, 32
2, 162641, Note_on_c, 0, 55, 0
2, 162711, Control_c, 0, 64, 127
2, 162758, Note_on_c, 0, 58, 0
2, 162788, Note_on_c, 0, 62, 0
2, 162836, Note_on_c, 0, 50, 55
2, 163246, Note_on_c, 0, 43, 0
2, 163321, Note_on_c, 0, 50, 0
2, 163332, Note_on_c, 0, 70, 90
2, 163345, Note_on_c, 0, 55, 64
2, 163354, Note_on_c, 0, 62, 85
2, 163663, Note_on_c, 0, 55, 0
2, 163750, Note_on_c, 0, 62, 0
2, 163947, Note_on_c, 0, 70, 0
2, 163957, Note_on_c, 0, 58, 78
2, 163977, Note_on_c, 0, 67, 96
2, 164505, Note_on_c, 0, 58, 0
2, 164738, Note_on_c, 0, 67, 0
2, 165299, Note_on_c, 0, 63, 77
2, 165301, Note_on_c, 0, 53, 66
2, 165303, Note_on_c, 0, 67, 96
2, 165306, Note_on_c, 0, 59, 69
2, 165338, Note_on_c, 0, 56, 49
2, 165374, Control_c, 0, 64, 0
2, 165415, Note_on_c, 0, 56, 0
2, 165679, Control_c, 0, 64, 127
2, 165865, Note_on_c, 0, 63, 0
2, 165868, Note_on_c, 0, 53, 0
2, 165887, Note_on_c, 0, 59, 0
2, 166088, Note_on_c, 0, 67, 0
2, 166875, Note_on_c, 0, 63, 57
2, 166882, Control_c, 0, 64, 0
2, 166900, Note_on_c, 0, 59, 45
2, 166927, Note_on_c, 0, 49, 36
2, 166935, Note_on_c, 0, 56, 33
2, 167090, Control_c, 0, 64, 127
2, 167711, Note_on_c, 0, 68, 60
2, 167828, Note_on_c, 0, 59, 0
2, 167958, Note_on_c, 0, 56, 0
2, 168044, Note_on_c, 0, 68, 0
2, 168063, Note_on_c, 0, 49, 0
2, 168068, Note_on_c, 0, 63, 0
2, 168429, Note_on_c, 0, 70, 56
2, 168442, Note_on_c, 0, 48, 35
2, 168447, Note_on_c, 0, 64, 46
2, 168450, Note_on_c, 0, 58, 33
2, 168502, Control_c, 0, 64, 0
2, 168903, Control_c, 0, 64, 127
2, 168931, Note_on_c, 0, 55, 58
2, 168985, Note_on_c, 0, 58, 0
2, 169080, Note_on_c, 0, 64, 0
2, 169271, Note_on_c, 0, 70, 0
2, 169421, Note_on_c, 0, 67, 80
2, 169431, Note_on_c, 0, 58, 37
2, 169494, Note_on_c, 0, 58, 0
2, 169514, Note_on_c, 0, 55, 0
2, 169542, Note_on_c, 0, 48, 0
2, 169898, Note_on_c, 0, 67, 0
2, 169934, Note_on_c, 0, 43, 63
2, 170449, Note_on_c, 0, 43, 0
2, 170571, Control_c, 0, 64, 0
2, 170589, Note_on_c, 0, 43, 42
2, 170598, Note_on_c, 0, 61, 59
2, 170607, Note_on_c, 0, 70, 55
2, 170610, Note_on_c, 0, 65, 54
2, 170614, Note_on_c, 0, 58, 39
2, 170616, Note_on_c, 0, 53, 37
2, 170826, Note_on_c, 0, 43, 0
2, 170908, Control_c, 0, 64, 127
2, 171007, Note_on_c, 0, 53, 0
2, 171322, Note_on_c, 0, 43, 41
2, 171442, Note_on_c, 0, 58, 0
2, 171484, Note_on_c, 0, 65, 0
2, 171519, Note_on_c, 0, 70, 0
2, 171719, Note_on_c, 0, 61, 0
2, 172056, Note_on_c, 0, 36, 50
2, 172063, Note_on_c, 0, 68, 47
2, 172069, Note_on_c, 0, 58, 45
2, 172075, Note_on_c, 0, 52, 52
2, 172079, Note_on_c, 0, 64, 45
2, 172086, Note_on_c, 0, 61, 49
2, 172095, Control_c, 0, 64, 0
2, 172447, Control_c, 0, 64, 127
2, 172625, Note_on_c, 0, 68, 0
2, 172650, Note_on_c, 0, 36, 0
2, 172831, Note_on_c, 0, 43, 0
2, 172849, Note_on_c, 0, 67, 53
2, 172913, Note_on_c, 0, 52, 0
2, 173039, Note_on_c, 0, 64, 0
2, 173111, Note_on_c, 0, 58, 0
2, 173158, Note_on_c, 0, 67, 0
2, 173227, Note_on_c, 0, 61, 0
2, 173860, Note_on_c, 0, 65, 49
2, 173876, Control_c, 0, 64, 0
2, 173878, Note_on_c, 0, 57, 49
2, 173884, Note_on_c, 0, 61, 44
2, 173896, Note_on_c, 0, 63, 51
2, 173900, Note_on_c, 0, 51, 42
2, 173910, Note_on_c, 0, 41, 44
2, 174168, Note_on_c, 0, 57, 0
2, 174229, Control_c, 0, 64, 127
2, 174242, Note_on_c, 0, 61, 0
2, 174273, Note_on_c, 0, 63, 0
2, 174299, Note_on_c, 0, 65, 0
2, 174474, Note_on_c, 0, 41, 0
2, 174590, Note_on_c, 0, 51, 0
2, 174620, Note_on_c, 0, 77, 89
2, 175074, Note_on_c, 0, 77, 0
2, 175275, Note_on_c, 0, 77, 78
2, 175296, Note_on_c, 0, 73, 70
2, 175319, Note_on_c, 0, 69, 70
2, 175321, Note_on_c, 0, 65, 77
2, 175330, Note_on_c, 0, 71, 71
2, 175351, Control_c, 0, 64, 0
2, 175383, Note_on_c, 0, 71, 0
2, 175512, Control_c, 0, 64, 127
2, 175806, Note_on_c, 0, 69, 0
2, 175847, Note_on_c, 0, 73, 0
2, 175866, Note_on_c, 0, 77, 0
2, 175945, Control_c, 0, 64, 0
2, 175947, Note_on_c, 0, 75, 64
2, 175950, Note_on_c, 0, 71, 60
2, 175951, Note_on_c, 0, 63, 67
2, 175966, Note_on_c, 0, 65, 0
2, 175979, Note_on_c, 0, 67, 58
2, 176090, Control_c, 0, 64, 127
2, 176299, Note_on_c, 0, 71, 0
2, 176343, Note_on_c, 0, 75, 0
2, 176430, Note_on_c, 0, 67, 0
2, 176620, Note_on_c, 0, 61, 57
2, 176624, Note_on_c, 0, 63, 0
2, 176838, Note_on_c, 0, 61, 0
2, 177279, Note_on_c, 0, 73, 37
2, 177281, Note_on_c, 0, 59, 41
2, 177290, Note_on_c, 0, 65, 60
2, 177297, Note_on_c, 0, 69, 52
2, 177406, Note_on_c, 0, 69, 0
2, 177423, Note_on_c, 0, 73, 0
2, 177445, Note_on_c, 0, 59, 0
2, 177475, Note_on_c, 0, 65, 0
2, 177950, Control_c, 0, 64, 0
2, 177979, Note_on_c, 0, 71, 29
2, 177981, Note_on_c, 0, 63, 51
2, 177985, Note_on_c, 0, 67, 48
2, 178007, Note_on_c, 0, 53, 39
2, 178047, Control_c, 0, 64, 127
2, 178075, Note_on_c, 0, 67, 0
2, 178114, Note_on_c, 0, 71, 0
2, 178268, Note_on_c, 0, 63, 0
2, 178660, Note_on_c, 0, 53, 0
2, 178670, Note_on_c, 0, 61, 51
2, 178681, Note_on_c, 0, 65, 55
2, 178723, Note_on_c, 0, 50, 20
2, 179036, Note_on_c, 0, 65, 0
2, 179079, Note_on_c, 0, 61, 0
2, 179305, Note_on_c, 0, 50, 0
2, 179482, Note_on_c, 0, 66, 44
2, 179484, Note_on_c, 0, 62, 41
2, 179490, Control_c, 0, 64, 0
2, 179513, Note_on_c, 0, 46, 28
2, 179530, Note_on_c, 0, 56, 23
2, 179764, Note_on_c, 0, 62, 0
2, 179794, Control_c, 0, 64, 127
2, 179821, Note_on_c, 0, 66, 0
2, 180218, Note_on_c, 0, 56, 0
2, 180263, Note_on_c, 0, 53, 43
2, 180335, Note_on_c, 0, 46, 0
2, 180346, Note_on_c, 0, 53, 0
2, 181003, Note_on_c, 0, 78, 48
2, 181034, Note_on_c, 0, 62, 33
2, 181051, Note_on_c, 0, 66, 21
2, 181175, Note_on_c, 0, 66, 0
2, 181240, Note_on_c, 0, 78, 0
2, 181764, Note_on_c, 0, 90, 60
2, 181770, Note_on_c, 0, 78, 37
2, 181794, Note_on_c, 0, 66, 30
2, 181891, Note_on_c, 0, 78, 0
2, 181986, Note_on_c, 0, 90, 0
2, 182118, Note_on_c, 0, 62, 0
2, 182778, Note_on_c, 0, 90, 38
2, 182780, Note_on_c, 0, 62, 39
2, 182803, Note_on_c, 0, 102, 55
2, 183182, Note_on_c, 0, 102, 0
2, 183246, Note_on_c, 0, 66, 0
2, 183265, Note_on_c, 0, 90, 0
2, 183281, Note_on_c, 0, 62, 0
2, 185167, Note_on_c, 0, 59, 105
2, 186018, Note_on_c, 0, 59, 0
2, 186159, Note_on_c, 0, 58, 82
2, 186181, Note_on_c, 0, 39, 67
2, 186291, Control_c, 0, 64, 0
2, 186982, Control_c, 0, 64, 127
2, 187050, Note_on_c, 0, 46, 53
2, 187866, Note_on_c, 0, 55, 74
2, 188270, Note_on_c, 0, 55, 0
2, 188384, Note_on_c, 0, 58, 0
2, 188462, Note_on_c, 0, 60, 79
2, 188568, Note_on_c, 0, 39, 0
2, 188658, Note_on_c, 0, 60, 0
2, 188701, Note_on_c, 0, 46, 0
2, 189566, Note_on_c, 0, 58, 65
2, 189570, Note_on_c, 0, 63, 64
2, 189574, Note_on_c, 0, 55, 68
2, 189576, Note_on_c, 0, 52, 66
2, 189592, Control_c, 0, 64, 0
2, 189929, Control_c, 0, 64, 127
2, 189960, Note_on_c, 0, 52, 0
2, 190004, Note_on_c, 0, 55, 0
2, 190069, Note_on_c, 0, 58, 0
2, 190103, Note_on_c, 0, 63, 0
2, 190557, Note_on_c, 0, 67, 68
2, 190568, Note_on_c, 0, 58, 69
2, 190581, Note_on_c, 0, 64, 49
2, 190584, Note_on_c, 0, 61, 60
2, 190603, Control_c, 0, 64, 0
2, 190605, Note_on_c, 0, 55, 52
2, 190811, Control_c, 0, 64, 127
2, 190989, Note_on_c, 0, 64, 0
2, 191015, Note_on_c, 0, 55, 0
2, 191067, Note_on_c, 0, 58, 0
2, 191115, Note_on_c, 0, 61, 0
2, 191131, Note_on_c, 0, 67, 0
2, 191389, Control_c, 0, 64, 0
2, 191411, Note_on_c, 0, 56, 52
2, 191414, Note_on_c, 0, 67, 50
2, 191424, Note_on_c, 0, 60, 43
2, 191432, Note_on_c, 0, 41, 56
2, 191439, Note_on_c, 0, 63, 48
2, 191619, Note_on_c, 0, 56, 0
2, 191646, Control_c, 0, 64, 127
2, 191656, Note_on_c, 0, 60, 0
2, 191742, Note_on_c, 0, 67, 0
2, 191752, Note_on_c, 0, 63, 0
2, 191995, Note_on_c, 0, 41, 0
2, 192015, Note_on_c, 0, 55, 66
2, 192139, Note_on_c, 0, 55, 0
2, 192535, Note_on_c, 0, 75, 60
2, 192539, Note_on_c, 0, 60, 41
2, 192543, Note_on_c, 0, 68, 49
2, 192554, Note_on_c, 0, 72, 60
2, 192927, Note_on_c, 0, 68, 0
2, 193016, Note_on_c, 0, 79, 71
2, 193027, Note_on_c, 0, 66, 50
2, 193031, Note_on_c, 0, 72, 0
2, 193091, Note_on_c, 0, 60, 0
2, 193248, Note_on_c, 0, 66, 0
2, 193328, Note_on_c, 0, 75, 0
2, 193589, Note_on_c, 0, 74, 57
2, 193593, Note_on_c, 0, 71, 50
2, 193619, Note_on_c, 0, 67, 46
2, 193632, Note_on_c, 0, 62, 40
2, 193638, Note_on_c, 0, 56, 37
2, 193651, Control_c, 0, 64, 0
2, 193871, Note_on_c, 0, 67, 0
2, 193923, Control_c, 0, 64, 127
2, 193925, Note_on_c, 0, 62, 0
2, 193987, Note_on_c, 0, 56, 0
2, 194029, Note_on_c, 0, 79, 0
2, 194107, Note_on_c, 0, 74, 0
2, 194187, Note_on_c, 0, 71, 0
2, 194266, Note_on_c, 0, 46, 57
2, 194917, Note_on_c, 0, 67, 53
2, 194925, Note_on_c, 0, 56, 42
2, 194937, Note_on_c, 0, 62, 40
2, 194966, Control_c, 0, 64, 0
2, 195143, Control_c, 0, 64, 127
2, 195219, Note_on_c, 0, 67, 0
2, 195395, Note_on_c, 0, 56, 0
2, 195397, Note_on_c, 0, 62, 0
2, 195535, Note_on_c, 0, 46, 0
2, 195599, Note_on_c, 0, 54, 35
2, 195608, Note_on_c, 0, 65, 71
2, 195754, Note_on_c, 0, 54, 0
2, 196597, Note_on_c, 0, 62, 68
2, 196647, Note_on_c, 0, 54, 46
2, 196657, Control_c, 0, 64, 0
2, 196664, Note_on_c, 0, 57, 43
2, 196678, Note_on_c, 0, 47, 38
2, 196842, Note_on_c, 0, 65, 0
2, 196898, Control_c, 0, 64, 127
2, 196949, Note_on_c, 0, 62, 0
2, 197035, Note_on_c, 0, 57, 0
2, 197140, Note_on_c, 0, 54, 0
2, 197266, Note_on_c, 0, 47, 0
2, 197272, Note_on_c, 0, 63, 68
2, 197280, Note_on_c, 0, 55, 62
2, 197285, Control_c, 0, 64, 0
2, 197298, Note_on_c, 0, 58, 51
2, 197304, Note_on_c, 0, 48, 47
2, 197441, Note_on_c, 0, 55, 0
2, 197477, Control_c, 0, 64, 127
2, 197494, Note_on_c, 0, 63, 0
2, 197538, Note_on_c, 0, 58, 0
2, 197825, Note_on_c, 0, 48, 0
2, 197887, Note_on_c, 0, 67, 68
2, 197909, Control_c, 0, 64, 0
2, 197911, Note_on_c, 0, 51, 53
2, 197913, Note_on_c, 0, 58, 61
2, 197924, Note_on_c, 0, 63, 59
2, 198026, Note_on_c, 0, 58, 0
2, 198072, Note_on_c, 0, 67, 0
2, 198074, Note_on_c, 0, 63, 0
2, 198085, Control_c, 0, 64, 127
2, 198470, Note_on_c, 0, 51, 0
2, 198757, Note_on_c, 0, 75, 77
2, 198771, Note_on_c, 0, 68, 74
2, 198773, Note_on_c, 0, 72, 74
2, 198776, Note_on_c, 0, 64, 75
2, 198795, Note_on_c, 0, 58, 55
2, 198824, Control_c, 0, 64, 0
2, 199272, Control_c, 0, 64, 127
2, 199746, Note_on_c, 0, 58, 0
2, 199871, Note_on_c, 0, 75, 0
2, 199924, Note_on_c, 0, 72, 0
2, 200038, Note_on_c, 0, 64, 0
2, 200183, Note_on_c, 0, 68, 0
2, 200319, Note_on_c, 0, 41, 51
2, 200434, Note_on_c, 0, 48, 38
2, 200521, Note_on_c, 0, 63, 61
2, 200556, Control_c, 0, 64, 0
2, 200610, Note_on_c, 0, 67, 59
2, 200622, Note_on_c, 0, 57, 35
2, 200675, Note_on_c, 0, 63, 0
2, 200685, Note_on_c, 0, 71, 45
2, 200771, Note_on_c, 0, 74, 64
2, 200861, Control_c, 0, 64, 127
2, 200875, Note_on_c, 0, 67, 0
2, 200939, Note_on_c, 0, 71, 0
2, 200989, Note_on_c, 0, 74, 0
2, 201255, Note_on_c, 0, 74, 60
2, 201375, Note_on_c, 0, 86, 64
2, 201420, Note_on_c, 0, 74, 0
2, 201599, Note_on_c, 0, 86, 0
2, 201961, Note_on_c, 0, 86, 54
2, 202063, Note_on_c, 0, 98, 45
2, 202540, Note_on_c, 0, 41, 0
2, 202559, Note_on_c, 0, 86, 0
2, 202607, Note_on_c, 0, 48, 0
2, 202631, Note_on_c, 0, 98, 0
2, 202752, Note_on_c, 0, 57, 0
2, 202765, Note_on_c, 0, 86, 38
2, 202793, Note_on_c, 0, 98, 29
2, 203071, Note_on_c, 0, 98, 0
2, 203085, Note_on_c, 0, 86, 0
2, 203579, Note_on_c, 0, 63, 42
2, 203598, Note_on_c, 0, 54, 32
2, 203604, Control_c, 0, 64, 0
2, 203616, Note_on_c, 0, 87, 27
2, 203625, Note_on_c, 0, 99, 43
2, 203860, Control_c, 0, 64, 127
2, 204244, Note_on_c, 0, 99, 0
2, 204293, Note_on_c, 0, 60, 31
2, 204372, Note_on_c, 0, 63, 0
2, 204446, Note_on_c, 0, 87, 0
2, 205077, Note_on_c, 0, 63, 31
2, 205355, Note_on_c, 0, 84, 1
2, 205810, Note_on_c, 0, 84, 0
2, 206308, Note_on_c, 0, 86, 63
2, 206668, Note_on_c, 0, 60, 0
2, 206684, Note_on_c, 0, 54, 0
2, 206709, Note_on_c, 0, 63, 0
2, 206765, Note_on_c, 0, 86, 0
2, 207596, Note_on_c, 0, 72, 43
2, 207597, Note_on_c, 0, 87, 59
2, 207610, Note_on_c, 0, 82, 52
2, 207618, Control_c, 0, 64, 0
2, 207698, Control_c, 0, 64, 127
2, 207720, Note_on_c, 0, 77, 10
2, 208033, Note_on_c, 0, 82, 0
2, 208048, Note_on_c, 0, 87, 0
2, 208287, Note_on_c, 0, 77, 0
2, 208359, Note_on_c, 0, 72, 0
2, 208410, Note_on_c, 0, 68, 53
2, 208443, Note_on_c, 0, 84, 55
2, 208676, Note_on_c, 0, 84, 0
2, 208776, Note_on_c, 0, 68, 0
2, 208951, Note_on_c, 0, 86, 68
2, 208976, Note_on_c, 0, 70, 52
2, 208981, Note_on_c, 0, 79, 62
2, 209069, Note_on_c, 0, 79, 0
2, 209143, Note_on_c, 0, 86, 0
2, 209360, Note_on_c, 0, 70, 0
2, 209511, Note_on_c, 0, 82, 67
2, 209536, Note_on_c, 0, 67, 46
2, 209543, Control_c, 0, 64, 0
2, 209545, Note_on_c, 0, 72, 42
2, 209735, Control_c, 0, 64, 127
2, 209899, Note_on_c, 0, 72, 0
2, 209959, Note_on_c, 0, 82, 0
2, 209965, Note_on_c, 0, 67, 0
2, 209988, Note_on_c, 0, 84, 67
2, 210038, Note_on_c, 0, 68, 39
2, 210045, Note_on_c, 0, 72, 57
2, 210053, Note_on_c, 0, 75, 38
2, 210148, Note_on_c, 0, 75, 0
2, 210156, Note_on_c, 0, 84, 0
2, 210205, Note_on_c, 0, 72, 0
2, 210349, Note_on_c, 0, 68, 0
2, 210530, Note_on_c, 0, 64, 40
2, 210532, Note_on_c, 0, 75, 55
2, 210533, Note_on_c, 0, 79, 57
2, 210537, Note_on_c, 0, 70, 59
2, 210692, Note_on_c, 0, 79, 0
2, 210713, Note_on_c, 0, 64, 0
2, 210734, Note_on_c, 0, 70, 0
2, 210777, Note_on_c, 0, 75, 0
2, 211661, Note_on_c, 0, 82, 60
2, 211685, Note_on_c, 0, 75, 59
2, 211686, Note_on_c, 0, 68, 46
2, 211733, Note_on_c, 0, 41, 42
2, 211741, Control_c, 0, 64, 0
2, 212025, Note_on_c, 0, 82, 0
2, 212029, Control_c, 0, 64, 127
2, 212106, Note_on_c, 0, 75, 0
2, 212175, Note_on_c, 0, 68, 0
2, 212257, Note_on_c, 0, 48, 48
2, 212498, Note_on_c, 0, 41, 0
2, 212759, Note_on_c, 0, 48, 0
2, 212776, Note_on_c, 0, 70, 46
2, 212831, Note_on_c, 0, 55, 32
2, 212838, Note_on_c, 0, 60, 32
2, 212847, Note_on_c, 0, 63, 36
2, 212982, Note_on_c, 0, 55, 0
2, 213215, Note_on_c, 0, 60, 0
2, 213344, Note_on_c, 0, 63, 0
2, 213452, Note_on_c, 0, 60, 49
2, 213664, Note_on_c, 0, 60, 0
2, 214069, Note_on_c, 0, 70, 0
2, 214143, Note_on_c, 0, 67, 70
2, 214444, Note_on_c, 0, 67, 0
2, 214529, Note_on_c, 0, 63, 63
2, 214845, Note_on_c, 0, 63, 0
2, 215021, Note_on_c, 0, 63, 62
2, 215053, Note_on_c, 0, 46, 33
2, 215065, Note_on_c, 0, 56, 28
2, 215068, Note_on_c, 0, 53, 30
2, 215093, Control_c, 0, 64, 0
2, 215464, Note_on_c, 0, 65, 58
2, 215558, Control_c, 0, 64, 127
2, 215608, Note_on_c, 0, 63, 0
2, 215711, Note_on_c, 0, 56, 0
2, 216097, Note_on_c, 0, 60, 47
2, 216159, Note_on_c, 0, 56, 23
2, 216616, Note_on_c, 0, 56, 0
2, 216638, Note_on_c, 0, 53, 0
2, 216824, Note_on_c, 0, 46, 0
2, 218415, Note_on_c, 0, 65, 0
2, 218487, Note_on_c, 0, 39, 64
2, 218492, Note_on_c, 0, 60, 0
2, 218727, Note_on_c, 0, 39, 0
2, 218734, Control_c, 0, 64, 0
2, 218821, Note_on_c, 0, 46, 47
2, 219367, Note_on_c, 0, 63, 59
2, 219391, Note_on_c, 0, 58, 55
2, 219392, Note_on_c, 0, 53, 45
2, 219429, Note_on_c, 0, 46, 0
2, 219444, Note_on_c, 0, 58, 0
2, 219453, Note_on_c, 0, 53, 0
2, 219488, Note_on_c, 0, 63, 0
2, 220242, Note_on_c, 0, 44, 53
2, 220436, Note_on_c, 0, 44, 0
2, 220557, Note_on_c, 0, 37, 46
2, 221109, Note_on_c, 0, 61, 59
2, 221112, Note_on_c, 0, 51, 52
2, 221136, Note_on_c, 0, 56, 48
2, 221165, Note_on_c, 0, 51, 0
2, 221190, Note_on_c, 0, 56, 0
2, 221203, Note_on_c, 0, 61, 0
2, 221927, Note_on_c, 0, 37, 0
2, 221995, Note_on_c, 0, 44, 62
2, 222165, Note_on_c, 0, 44, 0
2, 222336, Note_on_c, 0, 39, 42
2, 222876, Note_on_c, 0, 65, 68
2, 222884, Note_on_c, 0, 55, 72
2, 222886, Note_on_c, 0, 60, 63
2, 222903, Note_on_c, 0, 46, 27
2, 222938, Note_on_c, 0, 55, 0
2, 222959, Note_on_c, 0, 60, 0
2, 222965, Note_on_c, 0, 65, 0
2, 223060, Note_on_c, 0, 46, 0
2, 223178, Note_on_c, 0, 39, 0
2, 223757, Note_on_c, 0, 44, 59
2, 223912, Note_on_c, 0, 44, 0
2, 224056, Note_on_c, 0, 37, 48
2, 224615, Note_on_c, 0, 63, 54
2, 224626, Note_on_c, 0, 58, 57
2, 224645, Note_on_c, 0, 53, 32
2, 224661, Note_on_c, 0, 44, 34
2, 224675, Note_on_c, 0, 63, 0
2, 224683, Note_on_c, 0, 58, 0
2, 224706, Note_on_c, 0, 53, 0
2, 224831, Note_on_c, 0, 44, 0
2, 225111, Note_on_c, 0, 37, 0
2, 225517, Note_on_c, 0, 39, 83
2, 225524, Note_on_c, 0, 46, 79
2, 226728, Note_on_c, 0, 65, 59
2, 226731, Note_on_c, 0, 55, 57
2, 226736, Note_on_c, 0, 60, 45
2, 226824, Note_on_c, 0, 55, 0
2, 226838, Note_on_c, 0, 60, 0
2, 226841, Note_on_c, 0, 65, 0
2, 226864, Note_on_c, 0, 39, 0
2, 226960, Note_on_c, 0, 46, 0
2, 227336, Note_on_c, 0, 65, 67
2, 227341, Note_on_c, 0, 60, 62
2, 227344, Note_on_c, 0, 46, 45
2, 227346, Note_on_c, 0, 39, 46
2, 227364, Note_on_c, 0, 55, 48
2, 227392, Note_on_c, 0, 65, 0
2, 227420, Note_on_c, 0, 60, 0
2, 227421, Note_on_c, 0, 55, 0
2, 227476, Note_on_c, 0, 46, 0
2, 227486, Note_on_c, 0, 39, 0
2, 227712, Note_on_c, 0, 44, 39
2, 227722, Note_on_c, 0, 37, 46
2, 227739, Note_on_c, 0, 63, 44
2, 227741, Note_on_c, 0, 58, 45
2, 227743, Note_on_c, 0, 53, 48
2, 227831, Note_on_c, 0, 53, 0
2, 227856, Note_on_c, 0, 58, 0
2, 227869, Note_on_c, 0, 37, 0
2, 227878, Note_on_c, 0, 63, 0
2, 227888, Note_on_c, 0, 44, 0
2, 228326, Note_on_c, 0, 63, 46
2, 228349, Note_on_c, 0, 44, 35
2, 228353, Note_on_c, 0, 58, 42
2, 228362, Note_on_c, 0, 53, 31
2, 228365, Note_on_c, 0, 37, 36
2, 228872, Control_c, 0, 64, 127
2, 228874, Note_on_c, 0, 53, 0
2, 228896, Note_on_c, 0, 37, 0
2, 228933, Note_on_c, 0, 58, 0
2, 228958, Note_on_c, 0, 44, 0
2, 229088, Note_on_c, 0, 63, 0
2, 229168, Note_on_c, 0, 65, 54
2, 229188, Note_on_c, 0, 55, 35
2, 229189, Note_on_c, 0, 46, 33
2, 229192, Note_on_c, 0, 39, 35
2, 229194, Note_on_c, 0, 60, 38
2, 229198, Control_c, 0, 64, 0
2, 229485, Control_c, 0, 64, 127
2, 229565, Control_c, 0, 64, 0
2, 229742, Control_c, 0, 64, 127
2, 230381, Note_on_c, 0, 55, 0
2, 230412, Note_on_c, 0, 65, 0
2, 230493, Note_on_c, 0, 60, 0
2, 230521, Note_on_c, 0, 39, 0
2, 230779, Note_on_c, 0, 46, 0
2, 231752, Note_on_c, 0, 46, 62
2, 231908, Control_c, 0, 64, 0
2, 232085, Control_c, 0, 64, 127
2, 232509, Note_on_c, 0, 46, 0
2, 232656, Note_on_c, 0, 46, 40
2, 232919, Control_c, 0, 64, 0
2, 232996, Note_on_c, 0, 55, 43
2, 233000, Note_on_c, 0, 62, 40
2, 233008, Note_on_c, 0, 70, 45
2, 233021, Note_on_c, 0, 67, 33
2, 233303, Control_c, 0, 64, 127
2, 233548, Note_on_c, 0, 46, 0
2, 233592, Control_c, 0, 64, 0
2, 233610, Note_on_c, 0, 72, 66
2, 233655, Note_on_c, 0, 46, 33
2, 233759, Note_on_c, 0, 70, 0
2, 233800, Control_c, 0, 64, 127
2, 233933, Note_on_c, 0, 62, 0
2, 233973, Note_on_c, 0, 72, 0
2, 233974, Note_on_c, 0, 46, 0
2, 234008, Note_on_c, 0, 55, 0
2, 234053, Note_on_c, 0, 67, 0
2, 234410, Control_c, 0, 64, 0
2, 234424, Note_on_c, 0, 75, 63
2, 234445, Note_on_c, 0, 48, 38
2, 234461, Note_on_c, 0, 63, 29
2, 234464, Note_on_c, 0, 67, 36
2, 234469, Note_on_c, 0, 58, 36
2, 234534, Note_on_c, 0, 48, 0
2, 234543, Note_on_c, 0, 63, 0
2, 234557, Note_on_c, 0, 67, 0
2, 234636, Control_c, 0, 64, 127
2, 234637, Note_on_c, 0, 75, 0
2, 234668, Note_on_c, 0, 58, 0
2, 235325, Note_on_c, 0, 67, 44
2, 235337, Note_on_c, 0, 58, 33
2, 235340, Note_on_c, 0, 62, 37
2, 235341, Note_on_c, 0, 63, 40
2, 235394, Note_on_c, 0, 67, 0
2, 235428, Note_on_c, 0, 62, 0
2, 235440, Control_c, 0, 64, 0
2, 235469, Note_on_c, 0, 63, 0
2, 235503, Note_on_c, 0, 58, 0
2, 235746, Control_c, 0, 64, 127
2, 235934, Note_on_c, 0, 79, 52
2, 236083, Note_on_c, 0, 79, 0
2, 236208, Note_on_c, 0, 82, 82
2, 236388, Control_c, 0, 64, 0
2, 236429, Note_on_c, 0, 82, 0
2, 236455, Note_on_c, 0, 41, 49
2, 236524, Note_on_c, 0, 41, 0
2, 236533, Note_on_c, 0, 80, 61
2, 236580, Control_c, 0, 64, 127
2, 237085, Note_on_c, 0, 80, 0
2, 237094, Note_on_c, 0, 63, 49
2, 237096, Note_on_c, 0, 60, 35
2, 237116, Note_on_c, 0, 79, 64
2, 237138, Note_on_c, 0, 56, 35
2, 237142, Control_c, 0, 64, 0
2, 237224, Note_on_c, 0, 63, 0
2, 237232, Note_on_c, 0, 60, 0
2, 237234, Note_on_c, 0, 79, 0
2, 237295, Note_on_c, 0, 56, 0
2, 237703, Control_c, 0, 64, 127
2, 237773, Note_on_c, 0, 77, 60
2, 237957, Note_on_c, 0, 77, 0
2, 238033, Note_on_c, 0, 75, 69
2, 238232, Control_c, 0, 64, 0
2, 238284, Note_on_c, 0, 75, 0
2, 238315, Note_on_c, 0, 62, 33
2, 238327, Note_on_c, 0, 67, 31
2, 238354, Note_on_c, 0, 56, 29
2, 238372, Note_on_c, 0, 74, 30
2, 238456, Control_c, 0, 64, 127
2, 238501, Note_on_c, 0, 67, 0
2, 238525, Note_on_c, 0, 62, 0
2, 238639, Note_on_c, 0, 56, 0
2, 238673, Note_on_c, 0, 75, 69
2, 238708, Note_on_c, 0, 74, 0
2, 238819, Note_on_c, 0, 75, 0
2, 238940, Note_on_c, 0, 77, 81
2, 239099, Control_c, 0, 64, 0
2, 239177, Note_on_c, 0, 77, 0
2, 239209, Note_on_c, 0, 56, 36
2, 239225, Note_on_c, 0, 74, 64
2, 239331, Note_on_c, 0, 56, 0
2, 239339, Control_c, 0, 64, 127
2, 239424, Note_on_c, 0, 74, 0
2, 239520, Note_on_c, 0, 70, 57
2, 239765, Note_on_c, 0, 70, 0
2, 239812, Note_on_c, 0, 67, 56
2, 239949, Control_c, 0, 64, 0
2, 240004, Note_on_c, 0, 43, 31
2, 240040, Note_on_c, 0, 55, 28
2, 240167, Note_on_c, 0, 43, 0
2, 240189, Control_c, 0, 64, 127
2, 240295, Note_on_c, 0, 55, 0
2, 240500, Note_on_c, 0, 67, 0
2, 241000, Note_on_c, 0, 58, 43
2, 241182, Note_on_c, 0, 58, 0
2, 241266, Note_on_c, 0, 62, 30
2, 241402, Note_on_c, 0, 62, 0
2, 241564, Note_on_c, 0, 63, 54
2, 241717, Note_on_c, 0, 63, 0
2, 241896, Note_on_c, 0, 63, 62
2, 241909, Note_on_c, 0, 67, 57
2, 241912, Note_on_c, 0, 60, 55
2, 241921, Control_c, 0, 64, 0
2, 241942, Note_on_c, 0, 55, 44
2, 242210, Control_c, 0, 64, 127
2, 242349, Note_on_c, 0, 60, 0
2, 242394, Note_on_c, 0, 55, 0
2, 242401, Note_on_c, 0, 63, 0
2, 242404, Note_on_c, 0, 67, 0
2, 242836, Control_c, 0, 64, 0
2, 242845, Note_on_c, 0, 72, 70
2, 242853, Note_on_c, 0, 58, 44
2, 242861, Note_on_c, 0, 68, 72
2, 242871, Note_on_c, 0, 64, 59
2, 243045, Control_c, 0, 64, 127
2, 243211, Note_on_c, 0, 58, 0
2, 243296, Note_on_c, 0, 68, 0
2, 243297, Note_on_c, 0, 64, 0
2, 243573, Note_on_c, 0, 72, 0
2, 243719, Control_c, 0, 64, 0
2, 243788, Note_on_c, 0, 72, 49
2, 243794, Note_on_c, 0, 63, 44
2, 243823, Note_on_c, 0, 68, 46
2, 243832, Note_on_c, 0, 53, 33
2, 243959, Control_c, 0, 64, 127
2, 244069, Note_on_c, 0, 53, 0
2, 244168, Note_on_c, 0, 72, 0
2, 244228, Note_on_c, 0, 63, 0
2, 244292, Note_on_c, 0, 68, 0
2, 244632, Control_c, 0, 64, 0
2, 244732, Note_on_c, 0, 63, 40
2, 244742, Note_on_c, 0, 41, 32
2, 244759, Note_on_c, 0, 60, 25
2, 244763, Control_c, 0, 64, 127
2, 244842, Note_on_c, 0, 53, 11
2, 244953, Note_on_c, 0, 41, 0
2, 245146, Note_on_c, 0, 53, 0
2, 245272, Note_on_c, 0, 60, 0
2, 245373, Note_on_c, 0, 63, 0
2, 245580, Control_c, 0, 64, 0
2, 245654, Note_on_c, 0, 56, 33
2, 245668, Note_on_c, 0, 46, 25
2, 245669, Note_on_c, 0, 64, 32
2, 245699, Note_on_c, 0, 59, 29
2, 245736, Note_on_c, 0, 62, 19
2, 245788, Control_c, 0, 64, 127
2, 245961, Note_on_c, 0, 59, 0
2, 246006, Note_on_c, 0, 64, 0
2, 246021, Note_on_c, 0, 62, 0
2, 246292, Note_on_c, 0, 56, 0
2, 246406, Note_on_c, 0, 53, 24
2, 246512, Note_on_c, 0, 53, 0
2, 246557, Control_c, 0, 64, 0
2, 246581, Note_on_c, 0, 56, 37
2, 246582, Note_on_c, 0, 66, 48
2, 246587, Note_on_c, 0, 72, 59
2, 246604, Note_on_c, 0, 62, 30
2, 246765, Note_on_c, 0, 66, 0
2, 246802, Note_on_c, 0, 67, 34
2, 246862, Control_c, 0, 64, 127
2, 246891, Note_on_c, 0, 62, 0
2, 246955, Note_on_c, 0, 67, 0
2, 246999, Note_on_c, 0, 72, 0
2, 247225, Note_on_c, 0, 56, 0
2, 247285, Note_on_c, 0, 70, 65
2, 247287, Note_on_c, 0, 75, 53
2, 247289, Note_on_c, 0, 65, 55
2, 247376, Control_c, 0, 64, 0
2, 247407, Note_on_c, 0, 46, 0
2, 247415, Note_on_c, 0, 55, 31
2, 247728, Control_c, 0, 64, 127
2, 247754, Note_on_c, 0, 65, 0
2, 247793, Note_on_c, 0, 75, 0
2, 247837, Note_on_c, 0, 72, 67
2, 247944, Note_on_c, 0, 70, 0
2, 248258, Control_c, 0, 64, 0
2, 248282, Note_on_c, 0, 72, 0
2, 248392, Note_on_c, 0, 74, 72
2, 248450, Control_c, 0, 64, 127
2, 248505, Note_on_c, 0, 55, 0
2, 248866, Note_on_c, 0, 74, 0
2, 248993, Note_on_c, 0, 70, 49
2, 249092, Control_c, 0, 64, 0
2, 249467, Note_on_c, 0, 70, 0
2, 249594, Note_on_c, 0, 72, 64
2, 249645, Note_on_c, 0, 67, 37
2, 249680, Note_on_c, 0, 60, 31
2, 249704, Note_on_c, 0, 63, 34
2, 249749, Note_on_c, 0, 58, 29
2, 250099, Note_on_c, 0, 67, 0
2, 250151, Control_c, 0, 64, 127
2, 250164, Note_on_c, 0, 67, 53
2, 250188, Note_on_c, 0, 63, 0
2, 250190, Note_on_c, 0, 72, 0
2, 250192, Note_on_c, 0, 58, 0
2, 250195, Note_on_c, 0, 60, 0
2, 250676, Note_on_c, 0, 67, 0
2, 250728, Control_c, 0, 64, 0
2, 250764, Note_on_c, 0, 70, 51
2, 250781, Note_on_c, 0, 63, 34
2, 250784, Note_on_c, 0, 60, 27
2, 250799, Note_on_c, 0, 53, 24
2, 250805, Note_on_c, 0, 56, 33
2, 251193, Control_c, 0, 64, 127
2, 251356, Note_on_c, 0, 63, 0
2, 251577, Note_on_c, 0, 70, 0
2, 251632, Note_on_c, 0, 65, 66
2, 251719, Note_on_c, 0, 60, 0
2, 251778, Note_on_c, 0, 65, 0
2, 251868, Control_c, 0, 64, 0
2, 251904, Note_on_c, 0, 53, 0
2, 251909, Note_on_c, 0, 56, 0
2, 252284, Note_on_c, 0, 63, 57
2, 252533, Note_on_c, 0, 63, 0
2, 252556, Note_on_c, 0, 60, 39
2, 252653, Control_c, 0, 64, 127
2, 252678, Note_on_c, 0, 60, 0
2, 252798, Control_c, 0, 64, 0
2, 252863, Note_on_c, 0, 61, 64
2, 252901, Note_on_c, 0, 53, 24
2, 252910, Note_on_c, 0, 56, 26
2, 252912, Note_on_c, 0, 46, 25
2, 253106, Note_on_c, 0, 61, 0
2, 253172, Note_on_c, 0, 62, 42
2, 253373, Note_on_c, 0, 62, 0
2, 253471, Note_on_c, 0, 63, 75
2, 253735, Note_on_c, 0, 63, 0
2, 253789, Note_on_c, 0, 64, 48
2, 253895, Note_on_c, 0, 56, 0
2, 253970, Note_on_c, 0, 53, 0
2, 254050, Note_on_c, 0, 64, 0
2, 254104, Note_on_c, 0, 65, 76
2, 254139, Note_on_c, 0, 46, 0
2, 254313, Note_on_c, 0, 65, 0
2, 254353, Control_c, 0, 64, 127
2, 254433, Note_on_c, 0, 62, 74
2, 254449, Control_c, 0, 64, 0
2, 254498, Note_on_c, 0, 53, 43
2, 254509, Note_on_c, 0, 43, 32
2, 254957, Note_on_c, 0, 58, 50
2, 255104, Note_on_c, 0, 62, 0
2, 255174, Note_on_c, 0, 58, 0
2, 255278, Note_on_c, 0, 59, 16
2, 255523, Note_on_c, 0, 53, 0
2, 255642, Note_on_c, 0, 55, 45
2, 255685, Control_c, 0, 64, 127
2, 255689, Note_on_c, 0, 59, 0
2, 255773, Note_on_c, 0, 43, 0
2, 256093, Note_on_c, 0, 55, 0
2, 256228, Note_on_c, 0, 53, 62
2, 256279, Control_c, 0, 64, 0
2, 256594, Note_on_c, 0, 53, 0
2, 256661, Note_on_c, 0, 51, 38
2, 257080, Control_c, 0, 64, 127
2, 257167, Note_on_c, 0, 51, 0
2, 257210, Note_on_c, 0, 24, 33
2, 257379, Note_on_c, 0, 24, 0
2, 258111, Note_on_c, 0, 56, 56
2, 258143, Note_on_c, 0, 60, 32
2, 258162, Note_on_c, 0, 67, 26
2, 258165, Note_on_c, 0, 63, 34
2, 258172, Control_c, 0, 64, 0
2, 258187, Note_on_c, 0, 55, 22
2, 258228, Note_on_c, 0, 60, 0
2, 258233, Note_on_c, 0, 56, 0
2, 258246, Note_on_c, 0, 63, 0
2, 258259, Note_on_c, 0, 67, 0
2, 258268, Note_on_c, 0, 55, 0
2, 258349, Note_on_c, 0, 53, 39
2, 258578, Note_on_c, 0, 53, 0
2, 258620, Note_on_c, 0, 56, 61
2, 258637, Control_c, 0, 64, 127
2, 258639, Note_on_c, 0, 67, 43
2, 258640, Note_on_c, 0, 55, 56
2, 258663, Note_on_c, 0, 60, 38
2, 258665, Note_on_c, 0, 63, 45
2, 258735, Note_on_c, 0, 60, 0
2, 258744, Note_on_c, 0, 56, 0
2, 258773, Note_on_c, 0, 67, 0
2, 258811, Note_on_c, 0, 63, 0
2, 258885, Note_on_c, 0, 55, 0
2, 259149, Note_on_c, 0, 58, 53
2, 259155, Note_on_c, 0, 70, 52
2, 259164, Note_on_c, 0, 60, 38
2, 259168, Control_c, 0, 64, 0
2, 259178, Note_on_c, 0, 63, 40
2, 259207, Note_on_c, 0, 67, 35
2, 259240, Note_on_c, 0, 60, 0
2, 259255, Note_on_c, 0, 63, 0
2, 259284, Note_on_c, 0, 67, 0
2, 259290, Note_on_c, 0, 70, 0
2, 259333, Note_on_c, 0, 58, 0
2, 259474, Note_on_c, 0, 56, 29
2, 259623, Note_on_c, 0, 56, 0
2, 259649, Note_on_c, 0, 58, 52
2, 259669, Note_on_c, 0, 70, 56
2, 259687, Note_on_c, 0, 63, 67
2, 259708, Note_on_c, 0, 60, 56
2, 259712, Control_c, 0, 64, 127
2, 259729, Note_on_c, 0, 67, 34
2, 259763, Note_on_c, 0, 71, 35
2, 259796, Note_on_c, 0, 67, 0
2, 259818, Note_on_c, 0, 58, 0
2, 259856, Note_on_c, 0, 70, 0
2, 259867, Note_on_c, 0, 71, 0
2, 259949, Note_on_c, 0, 63, 0
2, 259991, Note_on_c, 0, 60, 0
2, 260224, Control_c, 0, 64, 0
2, 260227, Note_on_c, 0, 59, 57
2, 260228, Note_on_c, 0, 67, 53
2, 260232, Note_on_c, 0, 64, 42
2, 260245, Note_on_c, 0, 56, 42
2, 260249, Note_on_c, 0, 62, 53
2, 260268, Note_on_c, 0, 46, 33
2, 260577, Control_c, 0, 64, 127
2, 260932, Note_on_c, 0, 46, 0
2, 261117, Note_on_c, 0, 46, 59
2, 261176, Note_on_c, 0, 56, 0
2, 261272, Note_on_c, 0, 59, 0
2, 261417, Note_on_c, 0, 64, 0
2, 261420, Note_on_c, 0, 62, 0
2, 261458, Note_on_c, 0, 67, 0
2, 261941, Control_c, 0, 64, 0
2, 262082, Note_on_c, 0, 66, 64
2, 262084, Note_on_c, 0, 72, 79
2, 262086, Note_on_c, 0, 56, 70
2, 262097, Note_on_c, 0, 62, 74
2, 262120, Note_on_c, 0, 67, 72
2, 262125, Note_on_c, 0, 64, 56
2, 262151, Note_on_c, 0, 66, 0
2, 262186, Control_c, 0, 64, 127
2, 262187, Note_on_c, 0, 64, 0
2, 262323, Note_on_c, 0, 62, 0
2, 262348, Note_on_c, 0, 67, 0
2, 262374, Note_on_c, 0, 72, 0
2, 262426, Control_c, 0, 64, 0
2, 262453, Note_on_c, 0, 56, 0
2, 262512, Note_on_c, 0, 70, 74
2, 262541, Note_on_c, 0, 55, 58
2, 262549, Note_on_c, 0, 60, 48
2, 262597, Note_on_c, 0, 65, 37
2, 262679, Note_on_c, 0, 46, 0
2, 262747, Control_c, 0, 64, 127
2, 262937, Note_on_c, 0, 60, 0
2, 262970, Note_on_c, 0, 65, 0
2, 263129, Note_on_c, 0, 70, 0
2, 263310, Note_on_c, 0, 55, 0
2, 263389, Control_c, 0, 64, 0
2, 263452, Note_on_c, 0, 72, 67
2, 263462, Note_on_c, 0, 67, 60
2, 263478, Note_on_c, 0, 58, 53
2, 263509, Note_on_c, 0, 51, 30
2, 263549, Control_c, 0, 64, 127
2, 263809, Note_on_c, 0, 58, 0
2, 263824, Note_on_c, 0, 67, 0
2, 263829, Note_on_c, 0, 51, 0
2, 263908, Note_on_c, 0, 72, 0
2, 264303, Control_c, 0, 64, 0
2, 264388, Note_on_c, 0, 48, 44
2, 264392, Note_on_c, 0, 75, 50
2, 264394, Note_on_c, 0, 58, 44
2, 264398, Note_on_c, 0, 72, 54
2, 264403, Note_on_c, 0, 67, 46
2, 264528, Control_c, 0, 64, 127
2, 264535, Note_on_c, 0, 48, 0
2, 264650, Note_on_c, 0, 67, 0
2, 264681, Note_on_c, 0, 58, 0
2, 264745, Note_on_c, 0, 72, 0
2, 264792, Note_on_c, 0, 75, 0
2, 265298, Control_c, 0, 64, 0
2, 265360, Note_on_c, 0, 58, 42
2, 265362, Note_on_c, 0, 67, 42
2, 265366, Note_on_c, 0, 62, 41
2, 265369, Note_on_c, 0, 63, 42
2, 265458, Control_c, 0, 64, 127
2, 265812, Note_on_c, 0, 62, 0
2, 265840, Note_on_c, 0, 67, 0
2, 265903, Note_on_c, 0, 58, 0
2, 265992, Note_on_c, 0, 82, 83
2, 266012, Note_on_c, 0, 75, 82
2, 266020, Note_on_c, 0, 79, 71
2, 266132, Note_on_c, 0, 63, 0
2, 266292, Control_c, 0, 64, 0
2, 266301, Note_on_c, 0, 75, 0
2, 266320, Note_on_c, 0, 82, 0
2, 266349, Note_on_c, 0, 79, 0
2, 266357, Note_on_c, 0, 63, 39
2, 266359, Note_on_c, 0, 67, 42
2, 266378, Note_on_c, 0, 60, 35
2, 266397, Note_on_c, 0, 56, 32
2, 266500, Note_on_c, 0, 82, 60
2, 266517, Control_c, 0, 64, 127
2, 266528, Note_on_c, 0, 75, 64
2, 266552, Note_on_c, 0, 79, 40
2, 266618, Note_on_c, 0, 67, 0
2, 266690, Note_on_c, 0, 79, 0
2, 266691, Note_on_c, 0, 60, 0
2, 266706, Note_on_c, 0, 63, 0
2, 266760, Note_on_c, 0, 82, 0
2, 266779, Note_on_c, 0, 56, 0
2, 266800, Note_on_c, 0, 75, 0
2, 267097, Note_on_c, 0, 75, 63
2, 267099, Note_on_c, 0, 79, 62
2, 267114, Note_on_c, 0, 56, 46
2, 267135, Note_on_c, 0, 46, 30
2, 267140, Note_on_c, 0, 67, 33
2, 267144, Control_c, 0, 64, 0
2, 267399, Control_c, 0, 64, 127
2, 267440, Note_on_c, 0, 79, 0
2, 267469, Note_on_c, 0, 75, 0
2, 267512, Note_on_c, 0, 67, 0
2, 267578, Note_on_c, 0, 46, 0
2, 267738, Note_on_c, 0, 56, 0
2, 268003, Note_on_c, 0, 71, 57
2, 268017, Note_on_c, 0, 62, 39
2, 268024, Note_on_c, 0, 66, 36
2, 268038, Note_on_c, 0, 46, 35
2, 268042, Note_on_c, 0, 56, 36
2, 268056, Control_c, 0, 64, 0
2, 268127, Note_on_c, 0, 66, 0
2, 268193, Note_on_c, 0, 67, 29
2, 268522, Control_c, 0, 64, 127
2, 268692, Note_on_c, 0, 67, 0
2, 268732, Note_on_c, 0, 62, 0
2, 268752, Note_on_c, 0, 56, 0
2, 268944, Note_on_c, 0, 66, 56
2, 268949, Note_on_c, 0, 62, 40
2, 268968, Note_on_c, 0, 56, 50
2, 268987, Control_c, 0, 64, 0
2, 269208, Note_on_c, 0, 62, 0
2, 269260, Note_on_c, 0, 66, 0
2, 269324, Control_c, 0, 64, 127
2, 269354, Note_on_c, 0, 65, 36
2, 269368, Note_on_c, 0, 62, 20
2, 269526, Note_on_c, 0, 46, 0
2, 269543, Note_on_c, 0, 71, 0
2, 269650, Note_on_c, 0, 56, 0
2, 269660, Note_on_c, 0, 65, 0
2, 269726, Note_on_c, 0, 62, 0
2, 270281, Note_on_c, 0, 62, 53
2, 270302, Control_c, 0, 64, 0
2, 270319, Note_on_c, 0, 50, 55
2, 270327, Note_on_c, 0, 58, 58
2, 270353, Control_c, 0, 64, 127
2, 270459, Note_on_c, 0, 58, 0
2, 270506, Note_on_c, 0, 62, 0
2, 270982, Note_on_c, 0, 50, 0
2, 271378, Control_c, 0, 64, 0
2, 271874, Note_on_c, 0, 63, 54
2, 271888, Note_on_c, 0, 51, 59
2, 271893, Note_on_c, 0, 58, 55
2, 271933, Note_on_c, 0, 55, 41
2, 271992, Note_on_c, 0, 55, 0
2, 272059, Note_on_c, 0, 63, 0
2, 272069, Note_on_c, 0, 58, 0
2, 272131, Control_c, 0, 64, 127
2, 272388, Control_c, 0, 64, 0
2, 272492, Note_on_c, 0, 67, 50
2, 272496, Note_on_c, 0, 58, 59
2, 272498, Note_on_c, 0, 63, 63
2, 272511, Note_on_c, 0, 55, 54
2, 272515, Note_on_c, 0, 51, 0
2, 272602, Note_on_c, 0, 58, 0
2, 272621, Note_on_c, 0, 67, 0
2, 272661, Control_c, 0, 64, 127
2, 272662, Note_on_c, 0, 63, 0
2, 272665, Note_on_c, 0, 55, 0
2, 273109, Control_c, 0, 64, 0
2, 273136, Note_on_c, 0, 58, 57
2, 273137, Note_on_c, 0, 72, 61
2, 273143, Note_on_c, 0, 67, 68
2, 273144, Note_on_c, 0, 63, 52
2, 273269, Note_on_c, 0, 63, 0
2, 273275, Note_on_c, 0, 58, 0
2, 273287, Note_on_c, 0, 67, 0
2, 273354, Note_on_c, 0, 72, 0
2, 273494, Control_c, 0, 64, 127
2, 273976, Control_c, 0, 64, 0
2, 273996, Note_on_c, 0, 41, 39
2, 274024, Note_on_c, 0, 72, 58
2, 274039, Note_on_c, 0, 63, 56
2, 274041, Note_on_c, 0, 68, 60
2, 274696, Note_on_c, 0, 41, 0
2, 274728, Note_on_c, 0, 55, 60
2, 275008, Note_on_c, 0, 72, 0
2, 275028, Note_on_c, 0, 63, 0
2, 275029, Note_on_c, 0, 68, 0
2, 275036, Note_on_c, 0, 55, 0
2, 275079, Note_on_c, 0, 56, 47
2, 275407, Note_on_c, 0, 60, 41
2, 275661, Note_on_c, 0, 60, 0
2, 275701, Note_on_c, 0, 62, 66
2, 275912, Note_on_c, 0, 56, 0
2, 275942, Note_on_c, 0, 62, 0
2, 276033, Note_on_c, 0, 63, 83
2, 276310, Note_on_c, 0, 63, 0
2, 276399, Note_on_c, 0, 65, 65
2, 276401, Note_on_c, 0, 56, 51
2, 276407, Note_on_c, 0, 62, 66
2, 276419, Note_on_c, 0, 46, 46
2, 276831, Control_c, 0, 64, 127
2, 276927, Note_on_c, 0, 56, 0
2, 276950, Note_on_c, 0, 62, 0
2, 276976, Note_on_c, 0, 65, 0
2, 277036, Note_on_c, 0, 67, 58
2, 277037, Note_on_c, 0, 63, 52
2, 277042, Note_on_c, 0, 60, 45
2, 277056, Control_c, 0, 64, 0
2, 277127, Note_on_c, 0, 56, 32
2, 277277, Note_on_c, 0, 67, 0
2, 277293, Note_on_c, 0, 60, 0
2, 277312, Control_c, 0, 64, 127
2, 277321, Note_on_c, 0, 63, 0
2, 277418, Note_on_c, 0, 56, 0
2, 277826, Control_c, 0, 64, 0
2, 278040, Note_on_c, 0, 56, 62
2, 278050, Control_c, 0, 64, 127
2, 278090, Note_on_c, 0, 74, 67
2, 278214, Note_on_c, 0, 56, 0
2, 278222, Note_on_c, 0, 74, 0
2, 278364, Note_on_c, 0, 46, 0
2, 278387, Control_c, 0, 64, 0
2, 278450, Note_on_c, 0, 70, 69
2, 278457, Note_on_c, 0, 55, 57
2, 278460, Note_on_c, 0, 75, 61
2, 278471, Note_on_c, 0, 65, 51
2, 278660, Control_c, 0, 64, 127
2, 278668, Note_on_c, 0, 55, 0
2, 278774, Note_on_c, 0, 75, 0
2, 278878, Note_on_c, 0, 65, 0
2, 278906, Note_on_c, 0, 70, 0
2, 279088, Note_on_c, 0, 72, 49
2, 279112, Note_on_c, 0, 58, 42
2, 279194, Note_on_c, 0, 72, 0
2, 279238, Control_c, 0, 64, 0
2, 279329, Note_on_c, 0, 58, 0
2, 279407, Note_on_c, 0, 74, 71
2, 279416, Note_on_c, 0, 67, 72
2, 279427, Note_on_c, 0, 62, 40
2, 279510, Control_c, 0, 64, 127
2, 279576, Note_on_c, 0, 62, 0
2, 279577, Note_on_c, 0, 74, 0
2, 279590, Note_on_c, 0, 67, 0
2, 280008, Control_c, 0, 64, 0
2, 280041, Note_on_c, 0, 70, 48
2, 280052, Note_on_c, 0, 48, 46
2, 280054, Note_on_c, 0, 67, 49
2, 280066, Note_on_c, 0, 63, 53
2, 280068, Note_on_c, 0, 58, 46
2, 280081, Note_on_c, 0, 62, 36
2, 280232, Note_on_c, 0, 48, 0
2, 280296, Note_on_c, 0, 62, 0
2, 280297, Note_on_c, 0, 63, 0
2, 280304, Note_on_c, 0, 67, 0
2, 280326, Note_on_c, 0, 58, 0
2, 280344, Control_c, 0, 64, 127
2, 280432, Note_on_c, 0, 70, 0
2, 280949, Note_on_c, 0, 72, 60
2, 280957, Note_on_c, 0, 60, 33
2, 280958, Note_on_c, 0, 67, 66
2, 280968, Note_on_c, 0, 63, 57
2, 281066, Control_c, 0, 64, 0
2, 281140, Note_on_c, 0, 63, 0
2, 281162, Note_on_c, 0, 67, 0
2, 281165, Note_on_c, 0, 60, 0
2, 281225, Note_on_c, 0, 72, 0
2, 281339, Note_on_c, 0, 55, 45
2, 281387, Control_c, 0, 64, 127
2, 281496, Note_on_c, 0, 55, 0
2, 282301, Control_c, 0, 64, 0
2, 282309, Note_on_c, 0, 82, 67
2, 282330, Note_on_c, 0, 73, 54
2, 282336, Note_on_c, 0, 78, 59
2, 282374, Note_on_c, 0, 67, 55
2, 282542, Control_c, 0, 64, 127
2, 282820, Note_on_c, 0, 73, 0
2, 282833, Note_on_c, 0, 78, 0
2, 282848, Note_on_c, 0, 82, 0
2, 283148, Note_on_c, 0, 67, 0
2, 283232, Control_c, 0, 64, 0
2, 283275, Note_on_c, 0, 64, 42
2, 283290, Note_on_c, 0, 70, 40
2, 283306, Note_on_c, 0, 76, 57
2, 283311, Note_on_c, 0, 79, 44
2, 283440, Control_c, 0, 64, 127
2, 283628, Note_on_c, 0, 79, 0
2, 283648, Note_on_c, 0, 64, 0
2, 283754, Note_on_c, 0, 76, 0
2, 283901, Note_on_c, 0, 70, 0
2, 284194, Control_c, 0, 64, 0
2, 284197, Note_on_c, 0, 46, 32
2, 284224, Note_on_c, 0, 56, 42
2, 284235, Note_on_c, 0, 68, 48
2, 284237, Note_on_c, 0, 75, 52
2, 284242, Note_on_c, 0, 77, 61
2, 284249, Note_on_c, 0, 72, 57
2, 284451, Control_c, 0, 64, 127
2, 284543, Note_on_c, 0, 77, 0
2, 284594, Note_on_c, 0, 75, 0
2, 284605, Note_on_c, 0, 72, 0
2, 284628, Note_on_c, 0, 68, 0
2, 284846, Note_on_c, 0, 56, 0
2, 285179, Note_on_c, 0, 66, 39
2, 285181, Note_on_c, 0, 71, 57
2, 285184, Note_on_c, 0, 62, 46
2, 285211, Note_on_c, 0, 56, 39
2, 285221, Control_c, 0, 64, 0
2, 285429, Note_on_c, 0, 66, 0
2, 285448, Note_on_c, 0, 67, 41
2, 285590, Control_c, 0, 64, 127
2, 285665, Note_on_c, 0, 67, 0
2, 285721, Note_on_c, 0, 71, 0
2, 285867, Note_on_c, 0, 62, 0
2, 285964, Note_on_c, 0, 56, 0
2, 286135, Control_c, 0, 64, 0
2, 286139, Note_on_c, 0, 55, 45
2, 286141, Note_on_c, 0, 70, 51
2, 286165, Note_on_c, 0, 60, 31
2, 286176, Note_on_c, 0, 65, 35
2, 286527, Note_on_c, 0, 60, 0
2, 286582, Note_on_c, 0, 70, 0
2, 286615, Note_on_c, 0, 65, 0
2, 286741, Note_on_c, 0, 55, 0
2, 286781, Note_on_c, 0, 59, 38
2, 286799, Note_on_c, 0, 54, 33
2, 286812, Note_on_c, 0, 69, 30
2, 286840, Control_c, 0, 64, 127
2, 286918, Note_on_c, 0, 59, 0
2, 286985, Control_c, 0, 64, 0
2, 286989, Note_on_c, 0, 69, 0
2, 287136, Note_on_c, 0, 55, 37
2, 287142, Note_on_c, 0, 60, 24
2, 287280, Note_on_c, 0, 46, 0
2, 287354, Control_c, 0, 64, 127
2, 287496, Note_on_c, 0, 60, 0
2, 287611, Note_on_c, 0, 55, 0
2, 287724, Control_c, 0, 64, 0
2, 287752, Note_on_c, 0, 70, 50
2, 287768, Note_on_c, 0, 46, 34
2, 287771, Note_on_c, 0, 55, 53
2, 287774, Note_on_c, 0, 64, 48
2, 287793, Note_on_c, 0, 67, 36
2, 287858, Note_on_c, 0, 54, 0
2, 287863, Note_on_c, 0, 67, 0
2, 287906, Note_on_c, 0, 64, 0
2, 287908, Note_on_c, 0, 55, 0
2, 287950, Note_on_c, 0, 70, 0
2, 287973, Note_on_c, 0, 46, 0
2, 288028, Control_c, 0, 64, 127
2, 288509, Control_c, 0, 64, 0
2, 288581, Note_on_c, 0, 41, 44
2, 288592, Note_on_c, 0, 56, 56
2, 288596, Note_on_c, 0, 63, 50
2, 288606, Note_on_c, 0, 67, 33
2, 288608, Note_on_c, 0, 48, 36
2, 288610, Note_on_c, 0, 60, 45
2, 288670, Control_c, 0, 64, 127
2, 288703, Note_on_c, 0, 67, 0
2, 288724, Note_on_c, 0, 60, 0
2, 288732, Note_on_c, 0, 56, 0
2, 288749, Note_on_c, 0, 41, 0
2, 288814, Note_on_c, 0, 63, 0
2, 288910, Control_c, 0, 64, 0
2, 289071, Note_on_c, 0, 48, 0
2, 289124, Note_on_c, 0, 66, 37
2, 289125, Note_on_c, 0, 57, 35
2, 289128, Note_on_c, 0, 63, 38
2, 289132, Note_on_c, 0, 42, 38
2, 289153, Note_on_c, 0, 51, 29
2, 289181, Note_on_c, 0, 60, 31
2, 289215, Control_c, 0, 64, 127
2, 289255, Note_on_c, 0, 60, 0
2, 289293, Note_on_c, 0, 66, 0
2, 289296, Note_on_c, 0, 57, 0
2, 289389, Note_on_c, 0, 63, 0
2, 289461, Note_on_c, 0, 42, 0
2, 289490, Note_on_c, 0, 51, 0
2, 289744, Control_c, 0, 64, 0
2, 289748, Note_on_c, 0, 43, 36
2, 289761, Note_on_c, 0, 58, 52
2, 289764, Note_on_c, 0, 62, 58
2, 289775, Note_on_c, 0, 55, 41
2, 289815, Note_on_c, 0, 53, 30
2, 290081, Control_c, 0, 64, 127
2, 290365, Note_on_c, 0, 43, 0
2, 290609, Note_on_c, 0, 43, 63
2, 290687, Note_on_c, 0, 62, 0
2, 290784, Note_on_c, 0, 53, 0
2, 290809, Note_on_c, 0, 55, 0
2, 290818, Note_on_c, 0, 43, 0
2, 290820, Note_on_c, 0, 58, 0
2, 291413, Control_c, 0, 64, 0
2, 291428, Note_on_c, 0, 54, 53
2, 291437, Note_on_c, 0, 57, 48
2, 291448, Note_on_c, 0, 63, 49
2, 291449, Note_on_c, 0, 51, 55
2, 291456, Note_on_c, 0, 48, 41
2, 291464, Note_on_c, 0, 42, 48
2, 291482, Note_on_c, 0, 60, 29
2, 291505, Note_on_c, 0, 57, 0
2, 291535, Note_on_c, 0, 54, 0
2, 291574, Note_on_c, 0, 60, 0
2, 291674, Note_on_c, 0, 63, 0
2, 291717, Control_c, 0, 64, 127
2, 292189, Note_on_c, 0, 72, 68
2, 292412, Note_on_c, 0, 72, 0
2, 292442, Note_on_c, 0, 48, 0
2, 292488, Note_on_c, 0, 73, 59
2, 292568, Note_on_c, 0, 42, 0
2, 292598, Note_on_c, 0, 51, 0
2, 292695, Note_on_c, 0, 73, 0
2, 292820, Note_on_c, 0, 74, 68
2, 292977, Note_on_c, 0, 74, 0
2, 293080, Note_on_c, 0, 75, 60
2, 293245, Note_on_c, 0, 75, 0
2, 293397, Note_on_c, 0, 77, 80
2, 293603, Note_on_c, 0, 77, 0
2, 293690, Control_c, 0, 64, 0
2, 293730, Note_on_c, 0, 75, 69
2, 293757, Note_on_c, 0, 60, 22
2, 293768, Note_on_c, 0, 56, 40
2, 293792, Note_on_c, 0, 53, 18
2, 293797, Note_on_c, 0, 63, 13
2, 294012, Control_c, 0, 64, 127
2, 294146, Note_on_c, 0, 63, 0
2, 294240, Note_on_c, 0, 75, 0
2, 294344, Note_on_c, 0, 65, 65
2, 294366, Note_on_c, 0, 60, 0
2, 294573, Control_c, 0, 64, 0
2, 294613, Note_on_c, 0, 63, 46
2, 294632, Note_on_c, 0, 60, 28
2, 294781, Control_c, 0, 64, 127
2, 294967, Note_on_c, 0, 65, 0
2, 294985, Note_on_c, 0, 66, 57
2, 295005, Note_on_c, 0, 53, 0
2, 295151, Note_on_c, 0, 66, 0
2, 295276, Note_on_c, 0, 68, 67
2, 295346, Note_on_c, 0, 56, 0
2, 295477, Note_on_c, 0, 68, 0
2, 295503, Control_c, 0, 64, 0
2, 295560, Note_on_c, 0, 54, 38
2, 295610, Note_on_c, 0, 69, 51
2, 295756, Note_on_c, 0, 69, 0
2, 295799, Note_on_c, 0, 63, 0
2, 295893, Note_on_c, 0, 71, 67
2, 295933, Note_on_c, 0, 60, 0
2, 296039, Note_on_c, 0, 71, 0
2, 296208, Note_on_c, 0, 72, 73
2, 296411, Note_on_c, 0, 72, 0
2, 296423, Note_on_c, 0, 63, 29
2, 296484, Note_on_c, 0, 60, 19
2, 296518, Note_on_c, 0, 74, 47
2, 296668, Note_on_c, 0, 74, 0
2, 296784, Note_on_c, 0, 75, 49
2, 296813, Note_on_c, 0, 54, 0
2, 296909, Note_on_c, 0, 75, 0
2, 296910, Note_on_c, 0, 60, 0
2, 297018, Note_on_c, 0, 63, 0
2, 297078, Note_on_c, 0, 76, 74
2, 297124, Control_c, 0, 64, 127
2, 297265, Note_on_c, 0, 76, 0
2, 297348, Control_c, 0, 64, 0
2, 297390, Note_on_c, 0, 77, 71
2, 297444, Note_on_c, 0, 55, 44
2, 297570, Note_on_c, 0, 77, 0
2, 297698, Note_on_c, 0, 74, 54
2, 297791, Note_on_c, 0, 74, 0
2, 298269, Note_on_c, 0, 67, 48
2, 298324, Note_on_c, 0, 67, 0
2, 298360, Note_on_c, 0, 62, 26
2, 298404, Note_on_c, 0, 65, 18
2, 298551, Control_c, 0, 64, 127
2, 298584, Note_on_c, 0, 86, 83
2, 298866, Note_on_c, 0, 55, 0
2, 298882, Note_on_c, 0, 62, 0
2, 298932, Note_on_c, 0, 86, 0
2, 298975, Note_on_c, 0, 65, 0
2, 299045, Note_on_c, 0, 84, 78
2, 299351, Note_on_c, 0, 60, 35
2, 299355, Control_c, 0, 64, 0
2, 299357, Note_on_c, 0, 63, 37
2, 299359, Note_on_c, 0, 54, 40
2, 299501, Note_on_c, 0, 84, 0
2, 299632, Note_on_c, 0, 81, 62
2, 299738, Note_on_c, 0, 63, 0
2, 299768, Note_on_c, 0, 81, 0
2, 299929, Note_on_c, 0, 78, 57
2, 300038, Note_on_c, 0, 78, 0
2, 300256, Note_on_c, 0, 63, 40
2, 300348, Control_c, 0, 64, 127
2, 300594, Note_on_c, 0, 54, 0
2, 300608, Note_on_c, 0, 75, 28
2, 300799, Note_on_c, 0, 75, 0
2, 300929, Note_on_c, 0, 72, 57
2, 300942, Note_on_c, 0, 54, 42
2, 301065, Note_on_c, 0, 63, 0
2, 301107, Note_on_c, 0, 72, 0
2, 301156, Note_on_c, 0, 54, 0
2, 301288, Note_on_c, 0, 75, 74
2, 301293, Control_c, 0, 64, 0
2, 301302, Note_on_c, 0, 63, 37
2, 301326, Note_on_c, 0, 56, 47
2, 301334, Note_on_c, 0, 53, 29
2, 301747, Note_on_c, 0, 75, 0
2, 301986, Note_on_c, 0, 74, 53
2, 302130, Note_on_c, 0, 73, 51
2, 302153, Note_on_c, 0, 74, 0
2, 302272, Note_on_c, 0, 73, 0
2, 302293, Note_on_c, 0, 72, 58
2, 302571, Note_on_c, 0, 53, 0
2, 302786, Note_on_c, 0, 72, 0
2, 302789, Note_on_c, 0, 56, 0
2, 302904, Note_on_c, 0, 54, 56
2, 302905, Note_on_c, 0, 75, 83
2, 303209, Note_on_c, 0, 63, 0
2, 303352, Note_on_c, 0, 74, 58
2, 303426, Note_on_c, 0, 75, 0
2, 303498, Note_on_c, 0, 73, 35
2, 303519, Note_on_c, 0, 74, 0
2, 303601, Note_on_c, 0, 72, 61
2, 303671, Note_on_c, 0, 73, 0
2, 303770, Note_on_c, 0, 72, 0
2, 304084, Note_on_c, 0, 60, 0
2, 304244, Note_on_c, 0, 63, 38
2, 304247, Note_on_c, 0, 60, 35
2, 304326, Control_c, 0, 64, 127
2, 304438, Control_c, 0, 64, 0
2, 304578, Note_on_c, 0, 75, 81
2, 304582, Control_c, 0, 64, 127
2, 304738, Note_on_c, 0, 63, 0
2, 304759, Control_c, 0, 64, 0
2, 304765, Note_on_c, 0, 54, 0
2, 304792, Note_on_c, 0, 60, 0
2, 304845, Note_on_c, 0, 74, 58
2, 304872, Control_c, 0, 64, 127
2, 304883, Note_on_c, 0, 75, 0
2, 305026, Note_on_c, 0, 73, 35
2, 305039, Note_on_c, 0, 74, 0
2, 305157, Note_on_c, 0, 72, 50
2, 305173, Note_on_c, 0, 73, 0
2, 305240, Control_c, 0, 64, 0
2, 305265, Note_on_c, 0, 72, 0
2, 305292, Note_on_c, 0, 65, 50
2, 305298, Note_on_c, 0, 58, 35
2, 305325, Note_on_c, 0, 55, 30
2, 305337, Note_on_c, 0, 75, 74
2, 305670, Note_on_c, 0, 75, 0
2, 305919, Note_on_c, 0, 65, 0
2, 305963, Note_on_c, 0, 72, 62
2, 306233, Note_on_c, 0, 62, 39
2, 306293, Note_on_c, 0, 62, 0
2, 306299, Control_c, 0, 64, 127
2, 306308, Note_on_c, 0, 72, 0
2, 306365, Note_on_c, 0, 58, 0
2, 306379, Note_on_c, 0, 55, 0
2, 306845, Note_on_c, 0, 46, 48
2, 307039, Note_on_c, 0, 46, 0
2, 307144, Note_on_c, 0, 63, 54
2, 307184, Note_on_c, 0, 55, 40
2, 307197, Control_c, 0, 64, 0
2, 307199, Note_on_c, 0, 60, 34
2, 307667, Note_on_c, 0, 60, 0
2, 307732, Note_on_c, 0, 55, 0
2, 307748, Note_on_c, 0, 26, 45
2, 307973, Note_on_c, 0, 26, 0
2, 308127, Note_on_c, 0, 54, 59
2, 308656, Control_c, 0, 64, 127
2, 308661, Note_on_c, 0, 44, 37
2, 308862, Note_on_c, 0, 54, 0
2, 308925, Note_on_c, 0, 44, 0
2, 308956, Note_on_c, 0, 63, 0
2, 308961, Control_c, 0, 64, 0
2, 309045, Note_on_c, 0, 58, 46
2, 309047, Note_on_c, 0, 43, 39
2, 309061, Note_on_c, 0, 53, 44
2, 309645, Note_on_c, 0, 53, 0
2, 309661, Note_on_c, 0, 31, 71
2, 309828, Control_c, 0, 64, 127
2, 309847, Note_on_c, 0, 58, 0
2, 309875, Note_on_c, 0, 31, 0
2, 309963, Note_on_c, 0, 43, 0
2, 310565, Control_c, 0, 64, 0
2, 310594, Note_on_c, 0, 70, 72
2, 310604, Note_on_c, 0, 58, 78
2, 310606, Note_on_c, 0, 62, 76
2, 310624, Note_on_c, 0, 65, 62
2, 310648, Note_on_c, 0, 53, 40
2, 310651, Note_on_c, 0, 55, 43
2, 310709, Note_on_c, 0, 53, 0
2, 310743, Note_on_c, 0, 55, 0
2, 310808, Note_on_c, 0, 65, 0
2, 310821, Note_on_c, 0, 58, 0
2, 310881, Note_on_c, 0, 62, 0
2, 310952, Note_on_c, 0, 70, 0
2, 311088, Note_on_c, 0, 67, 68
2, 311091, Note_on_c, 0, 58, 61
2, 311096, Note_on_c, 0, 64, 64
2, 311120, Note_on_c, 0, 52, 52
2, 311191, Control_c, 0, 64, 127
2, 311279, Note_on_c, 0, 52, 0
2, 311302, Note_on_c, 0, 64, 0
2, 311322, Note_on_c, 0, 58, 0
2, 311328, Note_on_c, 0, 67, 0
2, 311752, Control_c, 0, 64, 0
2, 311757, Note_on_c, 0, 49, 63
2, 311781, Note_on_c, 0, 67, 67
2, 311783, Note_on_c, 0, 63, 69
2, 311788, Note_on_c, 0, 59, 71
2, 311790, Note_on_c, 0, 70, 57
2, 312042, Note_on_c, 0, 49, 0
2, 312106, Control_c, 0, 64, 127
2, 312250, Note_on_c, 0, 67, 0
2, 312311, Note_on_c, 0, 70, 0
2, 312413, Note_on_c, 0, 68, 64
2, 312552, Note_on_c, 0, 59, 0
2, 312801, Note_on_c, 0, 63, 0
2, 312899, Note_on_c, 0, 68, 0
2, 313101, Control_c, 0, 64, 0
2, 313216, Note_on_c, 0, 67, 67
2, 313219, Note_on_c, 0, 63, 71
2, 313230, Note_on_c, 0, 58, 74
2, 313840, Note_on_c, 0, 36, 63
2, 313842, Note_on_c, 0, 64, 66
2, 313845, Note_on_c, 0, 63, 0
2, 314367, Control_c, 0, 64, 127
2, 314423, Note_on_c, 0, 58, 0
2, 314674, Note_on_c, 0, 48, 69
2, 314700, Note_on_c, 0, 36, 0
2, 314783, Note_on_c, 0, 64, 0
2, 314800, Note_on_c, 0, 48, 0
2, 314811, Note_on_c, 0, 67, 0
2, 315553, Note_on_c, 0, 58, 71
2, 316332, Note_on_c, 0, 67, 37
2, 316413, Note_on_c, 0, 67, 0
2, 316589, Note_on_c, 0, 58, 0
2, 316621, Note_on_c, 0, 72, 62
2, 316934, Note_on_c, 0, 72, 0
2, 317368, Control_c, 0, 64, 0
2, 317437, Note_on_c, 0, 53, 56
2, 317786, Note_on_c, 0, 63, 47
2, 317832, Control_c, 0, 64, 127
2, 317837, Note_on_c, 0, 53, 0
2, 317952, Note_on_c, 0, 63, 0
2, 318350, Note_on_c, 0, 63, 60
2, 318490, Control_c, 0, 64, 0
2, 318706, Note_on_c, 0, 71, 52
2, 318854, Note_on_c, 0, 71, 0
2, 318990, Note_on_c, 0, 73, 52
2, 319162, Note_on_c, 0, 73, 0
2, 319274, Note_on_c, 0, 75, 62
2, 319333, Note_on_c, 0, 65, 35
2, 319453, Note_on_c, 0, 75, 0
2, 319640, Note_on_c, 0, 77, 22
2, 319709, Control_c, 0, 64, 127
2, 319768, Note_on_c, 0, 77, 0
2, 319885, Note_on_c, 0, 79, 38
2, 319890, Note_on_c, 0, 65, 0
2, 320038, Note_on_c, 0, 79, 0
2, 320111, Note_on_c, 0, 63, 0
2, 320190, Note_on_c, 0, 80, 64
2, 320367, Control_c, 0, 64, 0
2, 320418, Note_on_c, 0, 80, 0
2, 320474, Note_on_c, 0, 66, 43
2, 320509, Note_on_c, 0, 82, 56
2, 320511, Note_on_c, 0, 62, 32
2, 320530, Note_on_c, 0, 56, 35
2, 320637, Note_on_c, 0, 66, 0
2, 320663, Note_on_c, 0, 62, 0
2, 320720, Control_c, 0, 64, 127
2, 320755, Note_on_c, 0, 56, 0
2, 320760, Note_on_c, 0, 82, 0
2, 320829, Note_on_c, 0, 83, 64
2, 321120, Control_c, 0, 64, 0
2, 321143, Note_on_c, 0, 46, 51
2, 321329, Control_c, 0, 64, 127
2, 321330, Note_on_c, 0, 46, 0
2, 322024, Note_on_c, 0, 62, 57
2, 322031, Note_on_c, 0, 56, 53
2, 322037, Note_on_c, 0, 67, 57
2, 322083, Control_c, 0, 64, 0
2, 322356, Control_c, 0, 64, 127
2, 322720, Note_on_c, 0, 83, 0
2, 322853, Note_on_c, 0, 79, 57
2, 323072, Note_on_c, 0, 79, 0
2, 323149, Note_on_c, 0, 80, 74
2, 323158, Note_on_c, 0, 79, 22
2, 323218, Note_on_c, 0, 79, 0
2, 323362, Note_on_c, 0, 80, 0
2, 323491, Note_on_c, 0, 81, 68
2, 323584, Note_on_c, 0, 67, 0
2, 323714, Note_on_c, 0, 81, 0
2, 323786, Note_on_c, 0, 82, 72
2, 323998, Note_on_c, 0, 56, 0
2, 324004, Note_on_c, 0, 82, 0
2, 324112, Note_on_c, 0, 84, 96
2, 324176, Note_on_c, 0, 62, 0
2, 324328, Control_c, 0, 64, 0
2, 324347, Note_on_c, 0, 84, 0
2, 324403, Note_on_c, 0, 62, 30
2, 324433, Note_on_c, 0, 65, 38
2, 324447, Note_on_c, 0, 60, 35
2, 324449, Note_on_c, 0, 55, 34
2, 324452, Note_on_c, 0, 82, 74
2, 324553, Control_c, 0, 64, 127
2, 324663, Note_on_c, 0, 65, 0
2, 324678, Note_on_c, 0, 62, 0
2, 324694, Note_on_c, 0, 60, 0
2, 324758, Note_on_c, 0, 55, 0
2, 324895, Note_on_c, 0, 82, 0
2, 325116, Note_on_c, 0, 84, 74
2, 325131, Control_c, 0, 64, 0
2, 325133, Note_on_c, 0, 62, 61
2, 325136, Note_on_c, 0, 51, 48
2, 325139, Note_on_c, 0, 80, 59
2, 325141, Note_on_c, 0, 72, 71
2, 325154, Note_on_c, 0, 58, 56
2, 325314, Note_on_c, 0, 62, 0
2, 325320, Note_on_c, 0, 80, 0
2, 325356, Control_c, 0, 64, 127
2, 325384, Note_on_c, 0, 72, 0
2, 325385, Note_on_c, 0, 58, 0
2, 325394, Note_on_c, 0, 51, 0
2, 325402, Note_on_c, 0, 84, 0
2, 325997, Control_c, 0, 64, 0
2, 326023, Note_on_c, 0, 48, 61
2, 326025, Note_on_c, 0, 87, 74
2, 326027, Note_on_c, 0, 55, 60
2, 326030, Note_on_c, 0, 82, 64
2, 326032, Note_on_c, 0, 58, 69
2, 326035, Note_on_c, 0, 75, 70
2, 326037, Note_on_c, 0, 79, 69
2, 326064, Note_on_c, 0, 51, 42
2, 326173, Note_on_c, 0, 48, 0
2, 326177, Note_on_c, 0, 79, 0
2, 326215, Note_on_c, 0, 55, 0
2, 326216, Note_on_c, 0, 75, 0
2, 326229, Note_on_c, 0, 51, 0
2, 326258, Control_c, 0, 64, 127
2, 326266, Note_on_c, 0, 82, 0
2, 326293, Note_on_c, 0, 58, 0
2, 326320, Note_on_c, 0, 87, 0
2, 326965, Note_on_c, 0, 91, 76
2, 326968, Note_on_c, 0, 58, 64
2, 326972, Note_on_c, 0, 87, 82
2, 326976, Note_on_c, 0, 67, 74
2, 326981, Note_on_c, 0, 63, 58
2, 326984, Note_on_c, 0, 62, 70
2, 326986, Note_on_c, 0, 79, 78
2, 327016, Control_c, 0, 64, 0
2, 327384, Control_c, 0, 64, 127
2, 327603, Note_on_c, 0, 62, 0
2, 327663, Note_on_c, 0, 63, 0
2, 327664, Note_on_c, 0, 67, 0
2, 327702, Note_on_c, 0, 58, 0
2, 327797, Note_on_c, 0, 79, 0
2, 327984, Note_on_c, 0, 91, 0
2, 328008, Note_on_c, 0, 87, 0
2, 328365, Note_on_c, 0, 91, 81
2, 328368, Note_on_c, 0, 60, 66
2, 328370, Note_on_c, 0, 63, 74
2, 328373, Note_on_c, 0, 87, 74
2, 328374, Note_on_c, 0, 67, 77
2, 328376, Note_on_c, 0, 84, 80
2, 328381, Control_c, 0, 64, 0
2, 328383, Note_on_c, 0, 79, 78
2, 328395, Note_on_c, 0, 56, 71
2, 328428, Note_on_c, 0, 65, 36
2, 328483, Note_on_c, 0, 65, 0
2, 328604, Note_on_c, 0, 67, 0
2, 328616, Note_on_c, 0, 91, 0
2, 328636, Control_c, 0, 64, 127
2, 328663, Note_on_c, 0, 84, 0
2, 328670, Note_on_c, 0, 87, 0
2, 328674, Note_on_c, 0, 60, 0
2, 328703, Note_on_c, 0, 63, 0
2, 328710, Note_on_c, 0, 79, 0
2, 328757, Note_on_c, 0, 56, 0
2, 329429, Note_on_c, 0, 67, 84
2, 329434, Note_on_c, 0, 63, 83
2, 329443, Note_on_c, 0, 60, 77
2, 329456, Note_on_c, 0, 53, 67
2, 329720, Note_on_c, 0, 53, 0
2, 330032, Note_on_c, 0, 60, 0
2, 330130, Note_on_c, 0, 63, 0
2, 330143, Note_on_c, 0, 67, 0
2, 330463, Note_on_c, 0, 67, 72
2, 330470, Note_on_c, 0, 46, 57
2, 330472, Note_on_c, 0, 62, 79
2, 330477, Note_on_c, 0, 64, 61
2, 330482, Control_c, 0, 64, 0
2, 330490, Note_on_c, 0, 59, 77
2, 330494, Note_on_c, 0, 56, 53
2, 330898, Control_c, 0, 64, 127
2, 331066, Note_on_c, 0, 59, 0
2, 331150, Note_on_c, 0, 62, 0
2, 331153, Note_on_c, 0, 64, 0
2, 331184, Note_on_c, 0, 67, 0
2, 331859, Note_on_c, 0, 46, 0
2, 331908, Note_on_c, 0, 56, 0
2, 332092, Note_on_c, 0, 77, 99
2, 332285, Note_on_c, 0, 77, 0
2, 332891, Note_on_c, 0, 74, 80
2, 332903, Control_c, 0, 64, 0
2, 332908, Note_on_c, 0, 66, 74
2, 332910, Note_on_c, 0, 39, 69
2, 332924, Note_on_c, 0, 62, 73
2, 332931, Note_on_c, 0, 69, 66
2, 332936, Note_on_c, 0, 47, 56
2, 333272, Control_c, 0, 64, 127
2, 333365, Note_on_c, 0, 69, 0
2, 333442, Note_on_c, 0, 74, 0
2, 333445, Note_on_c, 0, 62, 0
2, 333687, Note_on_c, 0, 66, 0
2, 333945, Control_c, 0, 64, 0
2, 333978, Note_on_c, 0, 75, 62
2, 333997, Note_on_c, 0, 67, 68
2, 334002, Note_on_c, 0, 70, 57
2, 334005, Note_on_c, 0, 63, 54
2, 334016, Note_on_c, 0, 48, 63
2, 334018, Note_on_c, 0, 47, 0
2, 334162, Note_on_c, 0, 39, 0
2, 334170, Control_c, 0, 64, 127
2, 334365, Note_on_c, 0, 67, 0
2, 334416, Note_on_c, 0, 63, 0
2, 334461, Note_on_c, 0, 48, 0
2, 334551, Note_on_c, 0, 70, 0
2, 334583, Note_on_c, 0, 75, 0
2, 335562, Note_on_c, 0, 79, 66
2, 335565, Note_on_c, 0, 75, 63
2, 335588, Note_on_c, 0, 67, 40
2, 335591, Note_on_c, 0, 58, 43
2, 335629, Control_c, 0, 64, 0
2, 335854, Control_c, 0, 64, 127
2, 336397, Note_on_c, 0, 58, 0
2, 336484, Note_on_c, 0, 79, 0
2, 336547, Note_on_c, 0, 67, 0
2, 336552, Note_on_c, 0, 75, 0
2, 337860, Note_on_c, 0, 72, 44
2, 337885, Note_on_c, 0, 73, 35
2, 338029, Note_on_c, 0, 76, 42
2, 338044, Note_on_c, 0, 72, 0
2, 338047, Note_on_c, 0, 74, 62
2, 338088, Note_on_c, 0, 80, 47
2, 338104, Note_on_c, 0, 73, 0
2, 338170, Note_on_c, 0, 84, 38
2, 338175, Note_on_c, 0, 74, 0
2, 338217, Note_on_c, 0, 75, 71
2, 338224, Note_on_c, 0, 87, 57
2, 338293, Control_c, 0, 64, 0
2, 338629, Control_c, 0, 64, 127
2, 338853, Note_on_c, 0, 75, 0
2, 339136, Note_on_c, 0, 84, 0
2, 339185, Note_on_c, 0, 87, 0
2, 339273, Note_on_c, 0, 76, 0
2, 339357, Note_on_c, 0, 80, 0
2, 339831, Note_on_c, 0, 41, 36
2, 339837, Note_on_c, 0, 86, 61
2, 339840, Note_on_c, 0, 75, 45
2, 339864, Control_c, 0, 64, 0
2, 340186, Control_c, 0, 64, 127
2, 340189, Note_on_c, 0, 86, 0
2, 340380, Note_on_c, 0, 48, 45
2, 340399, Note_on_c, 0, 75, 0
2, 340414, Note_on_c, 0, 41, 0
2, 340704, Note_on_c, 0, 48, 0
2, 340820, Note_on_c, 0, 57, 44
2, 341104, Note_on_c, 0, 57, 0
2, 341274, Note_on_c, 0, 59, 41
2, 341802, Note_on_c, 0, 71, 37
2, 341829, Note_on_c, 0, 63, 36
2, 341848, Note_on_c, 0, 62, 40
2, 341850, Note_on_c, 0, 67, 42
2, 342280, Note_on_c, 0, 59, 0
2, 342458, Note_on_c, 0, 72, 73
2, 342512, Note_on_c, 0, 60, 36
2, 342658, Note_on_c, 0, 62, 0
2, 343028, Note_on_c, 0, 74, 65
2, 343248, Note_on_c, 0, 74, 0
2, 343357, Note_on_c, 0, 72, 0
2, 343381, Note_on_c, 0, 71, 0
2, 343451, Note_on_c, 0, 63, 0
2, 343495, Note_on_c, 0, 67, 0
2, 343592, Note_on_c, 0, 75, 72
2, 343684, Note_on_c, 0, 60, 0
2, 343993, Note_on_c, 0, 75, 0
2, 344208, Note_on_c, 0, 75, 62
2, 344241, Note_on_c, 0, 66, 30
2, 344265, Note_on_c, 0, 54, 36
2, 344277, Note_on_c, 0, 69, 45
2, 344292, Control_c, 0, 64, 0
2, 344294, Note_on_c, 0, 63, 21
2, 344645, Control_c, 0, 64, 127
2, 344708, Note_on_c, 0, 66, 0
2, 344710, Note_on_c, 0, 69, 0
2, 344780, Note_on_c, 0, 63, 0
2, 344819, Note_on_c, 0, 60, 33
2, 344840, Note_on_c, 0, 75, 0
2, 345352, Note_on_c, 0, 75, 52
2, 345376, Note_on_c, 0, 69, 43
2, 345379, Note_on_c, 0, 63, 35
2, 345495, Note_on_c, 0, 69, 0
2, 345550, Note_on_c, 0, 75, 0
2, 345831, Note_on_c, 0, 63, 0
2, 345867, Note_on_c, 0, 54, 0
2, 345928, Note_on_c, 0, 85, 34
2, 345946, Note_on_c, 0, 86, 84
2, 345983, Note_on_c, 0, 85, 0
2, 346077, Note_on_c, 0, 60, 0
2, 346193, Note_on_c, 0, 86, 0
2, 346602, Note_on_c, 0, 86, 79
2, 346613, Note_on_c, 0, 78, 55
2, 346620, Note_on_c, 0, 75, 52
2, 346637, Note_on_c, 0, 69, 55
2, 347256, Note_on_c, 0, 68, 52
2, 347259, Note_on_c, 0, 69, 0
2, 347428, Note_on_c, 0, 86, 0
2, 347699, Note_on_c, 0, 78, 0
2, 347736, Note_on_c, 0, 75, 0
2, 347979, Note_on_c, 0, 75, 55
2, 347985, Note_on_c, 0, 68, 0
2, 348000, Note_on_c, 0, 78, 46
2, 348006, Note_on_c, 0, 84, 53
2, 348013, Control_c, 0, 64, 0
2, 348024, Note_on_c, 0, 67, 38
2, 348318, Control_c, 0, 64, 127
2, 348816, Note_on_c, 0, 66, 44
2, 348836, Note_on_c, 0, 67, 0
2, 349485, Note_on_c, 0, 66, 0
2, 349528, Note_on_c, 0, 84, 0
2, 349600, Note_on_c, 0, 75, 0
2, 349653, Note_on_c, 0, 78, 0
2, 350836, Note_on_c, 0, 75, 77
2, 350861, Note_on_c, 0, 70, 70
2, 350868, Note_on_c, 0, 65, 62
2, 350877, Note_on_c, 0, 60, 40
2, 350885, Control_c, 0, 64, 0
2, 351077, Control_c, 0, 64, 127
2, 351174, Note_on_c, 0, 75, 0
2, 351244, Note_on_c, 0, 70, 0
2, 351357, Note_on_c, 0, 65, 0
2, 351528, Note_on_c, 0, 60, 0
2, 351645, Note_on_c, 0, 72, 55
2, 351657, Note_on_c, 0, 56, 36
2, 351667, Note_on_c, 0, 62, 53
2, 351669, Note_on_c, 0, 67, 56
2, 351703, Control_c, 0, 64, 0
2, 351863, Control_c, 0, 64, 127
2, 351933, Note_on_c, 0, 62, 0
2, 351962, Note_on_c, 0, 72, 0
2, 352094, Note_on_c, 0, 67, 0
2, 352168, Note_on_c, 0, 56, 0
2, 352232, Note_on_c, 0, 74, 69
2, 352248, Control_c, 0, 64, 0
2, 352251, Note_on_c, 0, 58, 52
2, 352262, Note_on_c, 0, 62, 42
2, 352270, Note_on_c, 0, 65, 26
2, 352376, Note_on_c, 0, 62, 0
2, 352392, Note_on_c, 0, 74, 0
2, 352409, Control_c, 0, 64, 127
2, 352481, Note_on_c, 0, 65, 0
2, 352658, Note_on_c, 0, 58, 0
2, 352824, Note_on_c, 0, 70, 44
2, 352842, Control_c, 0, 64, 0
2, 352844, Note_on_c, 0, 55, 38
2, 352856, Note_on_c, 0, 65, 40
2, 352861, Note_on_c, 0, 60, 26
2, 352992, Note_on_c, 0, 60, 0
2, 353035, Control_c, 0, 64, 127
2, 353044, Note_on_c, 0, 65, 0
2, 353165, Note_on_c, 0, 70, 0
2, 353432, Note_on_c, 0, 72, 48
2, 353435, Note_on_c, 0, 56, 40
2, 353452, Control_c, 0, 64, 0
2, 353453, Note_on_c, 0, 62, 38
2, 353463, Note_on_c, 0, 55, 0
2, 353482, Note_on_c, 0, 67, 44
2, 353549, Note_on_c, 0, 67, 0
2, 353583, Note_on_c, 0, 72, 0
2, 353596, Control_c, 0, 64, 127
2, 353674, Note_on_c, 0, 62, 0
2, 353785, Note_on_c, 0, 56, 0
2, 354106, Note_on_c, 0, 67, 58
2, 354125, Note_on_c, 0, 63, 47
2, 354127, Note_on_c, 0, 58, 35
2, 354141, Control_c, 0, 64, 0
2, 354151, Note_on_c, 0, 48, 39
2, 354317, Control_c, 0, 64, 127
2, 354394, Note_on_c, 0, 58, 0
2, 354402, Note_on_c, 0, 48, 0
2, 354405, Note_on_c, 0, 67, 0
2, 354483, Note_on_c, 0, 63, 0
2, 354984, Note_on_c, 0, 70, 62
2, 355018, Note_on_c, 0, 63, 49
2, 355023, Control_c, 0, 64, 0
2, 355034, Note_on_c, 0, 59, 31
2, 355058, Note_on_c, 0, 41, 32
2, 355617, Control_c, 0, 64, 127
2, 355725, Note_on_c, 0, 60, 40
2, 355848, Note_on_c, 0, 59, 0
2, 356544, Note_on_c, 0, 60, 43
2, 356600, Note_on_c, 0, 53, 33
2, 356644, Control_c, 0, 64, 0
2, 356916, Control_c, 0, 64, 127
2, 357373, Note_on_c, 0, 70, 0
2, 357388, Note_on_c, 0, 65, 63
2, 357903, Note_on_c, 0, 60, 0
2, 357920, Note_on_c, 0, 41, 0
2, 357997, Note_on_c, 0, 67, 60
2, 358161, Note_on_c, 0, 53, 0
2, 358368, Note_on_c, 0, 65, 0
2, 358383, Note_on_c, 0, 67, 0
2, 358441, Note_on_c, 0, 63, 0
2, 358462, Note_on_c, 0, 60, 0
2, 358968, Note_on_c, 0, 56, 52
2, 358986, Note_on_c, 0, 63, 50
2, 358998, Note_on_c, 0, 60, 38
2, 359012, Note_on_c, 0, 46, 35
2, 359034, Note_on_c, 0, 53, 31
2, 359050, Control_c, 0, 64, 0
2, 359466, Control_c, 0, 64, 127
2, 360323, Note_on_c, 0, 56, 0
2, 360341, Note_on_c, 0, 53, 0
2, 360365, Note_on_c, 0, 60, 0
2, 360435, Note_on_c, 0, 46, 0
2, 360644, Note_on_c, 0, 63, 0
2, 360991, Note_on_c, 0, 56, 37
2, 360999, Note_on_c, 0, 65, 48
2, 361000, Note_on_c, 0, 59, 47
2, 361025, Note_on_c, 0, 62, 41
2, 361029, Note_on_c, 0, 46, 30
2, 361103, Control_c, 0, 64, 0
2, 361440, Control_c, 0, 64, 127
2, 362152, Note_on_c, 0, 62, 0
2, 362200, Note_on_c, 0, 59, 0
2, 362517, Note_on_c, 0, 62, 58
2, 364594, Note_on_c, 0, 46, 0
2, 364821, Note_on_c, 0, 56, 0
2, 365317, Note_on_c, 0, 65, 0
2, 365320, Note_on_c, 0, 62, 0
2, 365370, Note_on_c, 0, 39, 49
2, 365434, Control_c, 0, 64, 0
2, 366002, Note_on_c, 0, 63, 37
2, 366004, Note_on_c, 0, 58, 48
2, 366010, Note_on_c, 0, 53, 32
2, 366061, Note_on_c, 0, 58, 0
2, 366074, Note_on_c, 0, 53, 0
2, 366086, Note_on_c, 0, 63, 0
2, 366197, Note_on_c, 0, 39, 0
2, 366801, Note_on_c, 0, 37, 54
2, 367674, Note_on_c, 0, 51, 63
2, 367685, Note_on_c, 0, 61, 57
2, 367697, Note_on_c, 0, 56, 56
2, 367748, Note_on_c, 0, 51, 0
2, 367767, Note_on_c, 0, 56, 0
2, 367811, Note_on_c, 0, 61, 0
2, 367904, Note_on_c, 0, 37, 0
2, 368573, Note_on_c, 0, 46, 64
2, 368750, Note_on_c, 0, 46, 0
2, 368890, Note_on_c, 0, 39, 53
2, 369484, Note_on_c, 0, 63, 57
2, 369488, Note_on_c, 0, 58, 56
2, 369509, Note_on_c, 0, 53, 32
2, 369537, Note_on_c, 0, 63, 0
2, 369543, Note_on_c, 0, 58, 0
2, 369570, Note_on_c, 0, 53, 0
2, 369681, Note_on_c, 0, 39, 0
2, 370301, Note_on_c, 0, 39, 50
2, 370309, Note_on_c, 0, 46, 51
2, 370450, Note_on_c, 0, 39, 0
2, 370458, Note_on_c, 0, 46, 0
2, 370687, Note_on_c, 0, 37, 52
2, 370696, Note_on_c, 0, 44, 35
2, 371335, Note_on_c, 0, 61, 52
2, 371356, Note_on_c, 0, 56, 50
2, 371389, Note_on_c, 0, 61, 0
2, 371416, Note_on_c, 0, 56, 0
2, 372237, Note_on_c, 0, 61, 58
2, 372252, Control_c, 0, 64, 127
2, 372324, Note_on_c, 0, 37, 0
2, 372386, Note_on_c, 0, 61, 0
2, 372404, Note_on_c, 0, 44, 0
2, 372509, Control_c, 0, 64, 0
2, 372607, Note_on_c, 0, 63, 49
2, 372613, Note_on_c, 0, 39, 49
2, 372615, Note_on_c, 0, 53, 54
2, 372639, Note_on_c, 0, 46, 34
2, 372648, Note_on_c, 0, 58, 39
2, 372709, Note_on_c, 0, 53, 0
2, 372716, Note_on_c, 0, 58, 0
2, 372725, Note_on_c, 0, 63, 0
2, 372765, Note_on_c, 0, 46, 0
2, 372802, Note_on_c, 0, 39, 0
2, 373205, Note_on_c, 0, 63, 43
2, 373208, Note_on_c, 0, 53, 54
2, 373223, Note_on_c, 0, 39, 45
2, 373224, Note_on_c, 0, 58, 48
2, 373238, Note_on_c, 0, 46, 31
2, 373312, Note_on_c, 0, 63, 0
2, 373323, Note_on_c, 0, 53, 0
2, 373337, Note_on_c, 0, 58, 0
2, 373344, Note_on_c, 0, 46, 0
2, 373367, Note_on_c, 0, 39, 0
2, 373598, Note_on_c, 0, 58, 47
2, 373612, Note_on_c, 0, 46, 25
2, 373615, Note_on_c, 0, 39, 27
2, 373616, Note_on_c, 0, 53, 35
2, 373685, Note_on_c, 0, 53, 0
2, 373695, Note_on_c, 0, 39, 0
2, 373704, Note_on_c, 0, 58, 0
2, 373709, Note_on_c, 0, 46, 0
2, 374160, Note_on_c, 0, 63, 49
2, 374164, Note_on_c, 0, 46, 34
2, 374182, Note_on_c, 0, 39, 29
2, 374210, Note_on_c, 0, 58, 33
2, 374256, Note_on_c, 0, 39, 0
2, 374264, Note_on_c, 0, 46, 0
2, 374299, Note_on_c, 0, 63, 0
2, 374306, Note_on_c, 0, 58, 0
2, 374664, Note_on_c, 0, 37, 39
2, 374674, Note_on_c, 0, 61, 53
2, 374689, Note_on_c, 0, 44, 33
2, 374719, Note_on_c, 0, 51, 35
2, 374739, Note_on_c, 0, 56, 34
2, 374879, Note_on_c, 0, 51, 0
2, 374908, Note_on_c, 0, 61, 0
2, 374916, Note_on_c, 0, 56, 0
2, 374948, Note_on_c, 0, 44, 0
2, 374962, Note_on_c, 0, 37, 0
2, 375400, Note_on_c, 0, 61, 47
2, 375420, Note_on_c, 0, 37, 33
2, 375429, Note_on_c, 0, 51, 34
2, 375432, Note_on_c, 0, 44, 29
2, 375440, Note_on_c, 0, 56, 37
2, 375540, Control_c, 0, 64, 127
2, 375729, Note_on_c, 0, 44, 0
2, 375810, Note_on_c, 0, 37, 0
2, 375860, Note_on_c, 0, 51, 0
2, 376282, Note_on_c, 0, 61, 0
2, 376568, Note_on_c, 0, 56, 0
2, 377394, Note_on_c, 0, 62, 48
2, 377423, Note_on_c, 0, 50, 41
2, 377435, Note_on_c, 0, 55, 44
2, 377437, Note_on_c, 0, 48, 47
2, 377440, Note_on_c, 0, 39, 36
2, 377456, Note_on_c, 0, 27, 38
2, 377513, Control_c, 0, 64, 0
2, 378010, Control_c, 0, 64, 127
2, 378012, Note_on_c, 0, 48, 0
2, 378068, Note_on_c, 0, 50, 0
2, 378085, Note_on_c, 0, 55, 0
2, 378259, Note_on_c, 0, 62, 0
2, 378456, Note_on_c, 0, 27, 0
2, 378541, Note_on_c, 0, 39, 0
2, 379301, Note_on_c, 0, 86, 49
2, 379392, Note_on_c, 0, 62, 37
2, 379407, Note_on_c, 0, 74, 40
2, 379699, Note_on_c, 0, 74, 0
2, 379838, Note_on_c, 0, 86, 0
2, 381014, Note_on_c, 0, 62, 0
2, 381925, Note_on_c, 0, 94, 51
2, 381951, Note_on_c, 0, 58, 43
2, 382152, Note_on_c, 0, 94, 0
2, 382228, Note_on_c, 0, 58, 0
2, 382295, Note_on_c, 0, 60, 44
2, 382311, Note_on_c, 0, 96, 44
2, 382420, Note_on_c, 0, 60, 0
2, 382485, Note_on_c, 0, 96, 0
2, 382711, Note_on_c, 0, 99, 55
2, 382719, Note_on_c, 0, 63, 47
2, 382967, Note_on_c, 0, 99, 0
2, 383057, Note_on_c, 0, 63, 0
2, 383103, Note_on_c, 0, 103, 58
2, 383127, Note_on_c, 0, 67, 43
2, 383303, Note_on_c, 0, 103, 0
2, 383362, Note_on_c, 0, 67, 0
2, 383637, Note_on_c, 0, 103, 66
2, 383688, Note_on_c, 0, 67, 40
2, 383936, Note_on_c, 0, 103, 0
2, 383997, Note_on_c, 0, 67, 0
2, 386159, Control_c, 0, 64, 0
2, 386159, End_track
0, 0, End_of_file
