0, 0, Header, 1, 2, 120
1, 0, Start_track
1, 0, Title_t, "untitled"
1, 0, System_exclusive, 5, 126, 127, 9, 1, 247
1, 1, System_exclusive, 8, 67, 115, 1, 17, 15, 89, 0, 247
1, 1, Time_signature, 4, 2, 24, 8
1, 1, Key_signature, 0, "major"
1, 1, Tempo, 461538
1, 1, Marker_t, ""
1, 1, End_track
2, 0, Start_track
2, 480, Note_on_c, 0, 53, 42
2, 487, Note_on_c, 0, 53, 0
2, 491, Note_on_c, 0, 54, 51
2, 491, Note_on_c, 0, 70, 67
2, 493, Note_on_c, 0, 61, 59
2, 495, Note_on_c, 0, 66, 59
2, 501, Note_on_c, 0, 55, 66
2, 513, Note_on_c, 0, 54, 0
2, 555, Control_c, 0, 64, 127
2, 558, Note_on_c, 0, 70, 0
2, 560, Note_on_c, 0, 66, 0
2, 563, Note_on_c, 0, 55, 0
2, 568, Note_on_c, 0, 61, 0
2, 576, Control_c, 0, 64, 0
2, 586, Note_on_c, 0, 61, 47
2, 586, Note_on_c, 0, 70, 61
2, 587, Note_on_c, 0, 66, 62
2, 591, Note_on_c, 0, 55, 53
2, 596, Control_c, 0, 64, 127
2, 626, Note_on_c, 0, 70, 0
2, 630, Note_on_c, 0, 66, 0
2, 653, Note_on_c, 0, 61, 0
2, 689, Note_on_c, 0, 55, 0
2, 693, Note_on_c, 0, 58, 48
2, 695, Control_c, 0, 64, 0
2, 696, Note_on_c, 0, 67, 53
2, 697, Note_on_c, 0, 63, 40
2, 701, Note_on_c, 0, 52, 48
2, 735, Control_c, 0, 64, 127
2, 758, Note_on_c, 0, 67, 0
2, 760, Note_on_c, 0, 63, 0
2, 764, Note_on_c, 0, 58, 0
2, 766, Note_on_c, 0, 52, 0
2, 807, Note_on_c, 0, 67, 50
2, 807, Note_on_c, 0, 58, 32
2, 808, Note_on_c, 0, 63, 45
2, 812, Control_c, 0, 64, 0
2, 817, Note_on_c, 0, 52, 42
2, 831, Control_c, 0, 64, 127
2, 870, Note_on_c, 0, 52, 0
2, 986, Note_on_c, 0, 24, 46
2, 1076, Note_on_c, 0, 24, 0
2, 1330, Note_on_c, 0, 58, 0
2, 1377, Note_on_c, 0, 67, 0
2, 1403, Note_on_c, 0, 63, 0
2, 1738, Note_on_c, 0, 70, 68
2, 1741, Note_on_c, 0, 66, 62
2, 1742, Note_on_c, 0, 56, 39
2, 1742, Note_on_c, 0, 61, 59
2, 1746, Note_on_c, 0, 48, 38
2, 1753, Control_c, 0, 64, 0
2, 1772, Control_c, 0, 64, 127
2, 1786, Note_on_c, 0, 48, 0
2, 1789, Note_on_c, 0, 56, 0
2, 1793, Note_on_c, 0, 70, 0
2, 1799, Note_on_c, 0, 66, 0
2, 1804, Note_on_c, 0, 61, 0
2, 1885, Note_on_c, 0, 68, 42
2, 1886, Note_on_c, 0, 60, 43
2, 1887, Note_on_c, 0, 56, 28
2, 1890, Note_on_c, 0, 41, 38
2, 1890, Note_on_c, 0, 64, 50
2, 1892, Note_on_c, 0, 52, 33
2, 1897, Control_c, 0, 64, 0
2, 1941, Control_c, 0, 64, 127
2, 2063, Note_on_c, 0, 60, 0
2, 2071, Note_on_c, 0, 64, 0
2, 2093, Note_on_c, 0, 52, 0
2, 2120, Note_on_c, 0, 56, 0
2, 2123, Note_on_c, 0, 68, 0
2, 2270, Note_on_c, 0, 60, 66
2, 2305, Note_on_c, 0, 60, 0
2, 2352, Note_on_c, 0, 56, 53
2, 2352, Note_on_c, 0, 60, 56
2, 2355, Note_on_c, 0, 67, 60
2, 2357, Note_on_c, 0, 52, 49
2, 2358, Note_on_c, 0, 64, 43
2, 2366, Control_c, 0, 64, 0
2, 2386, Control_c, 0, 64, 127
2, 2392, Note_on_c, 0, 52, 0
2, 2395, Note_on_c, 0, 67, 0
2, 2398, Note_on_c, 0, 64, 0
2, 2421, Note_on_c, 0, 66, 53
2, 2421, Note_on_c, 0, 51, 37
2, 2427, Control_c, 0, 64, 0
2, 2451, Note_on_c, 0, 66, 0
2, 2457, Note_on_c, 0, 51, 0
2, 2462, Note_on_c, 0, 60, 0
2, 2463, Note_on_c, 0, 56, 0
2, 2470, Note_on_c, 0, 66, 38
2, 2477, Note_on_c, 0, 66, 0
2, 2480, Control_c, 0, 64, 127
2, 2482, Note_on_c, 0, 56, 25
2, 2483, Note_on_c, 0, 65, 45
2, 2485, Note_on_c, 0, 50, 34
2, 2486, Note_on_c, 0, 60, 37
2, 2501, Note_on_c, 0, 60, 0
2, 2508, Note_on_c, 0, 41, 0
2, 2509, Note_on_c, 0, 65, 0
2, 2522, Note_on_c, 0, 56, 0
2, 2542, Note_on_c, 0, 41, 37
2, 2547, Note_on_c, 0, 50, 0
2, 2586, Control_c, 0, 64, 0
2, 2602, Note_on_c, 0, 64, 47
2, 2603, Note_on_c, 0, 56, 35
2, 2606, Note_on_c, 0, 53, 29
2, 2608, Note_on_c, 0, 60, 35
2, 2621, Note_on_c, 0, 49, 15
2, 2634, Note_on_c, 0, 53, 0
2, 2634, Note_on_c, 0, 41, 0
2, 2639, Note_on_c, 0, 60, 0
2, 2641, Note_on_c, 0, 56, 0
2, 2649, Note_on_c, 0, 64, 0
2, 2653, Control_c, 0, 64, 127
2, 2664, Note_on_c, 0, 49, 0
2, 2665, Note_on_c, 0, 41, 33
2, 2716, Control_c, 0, 64, 0
2, 2727, Note_on_c, 0, 48, 34
2, 2728, Note_on_c, 0, 53, 24
2, 2728, Note_on_c, 0, 56, 31
2, 2728, Note_on_c, 0, 62, 40
2, 2731, Note_on_c, 0, 41, 0
2, 2731, Note_on_c, 0, 60, 40
2, 2812, Control_c, 0, 64, 127
2, 2870, Note_on_c, 0, 53, 0
2, 2889, Note_on_c, 0, 56, 0
2, 2903, Note_on_c, 0, 60, 0
2, 2911, Note_on_c, 0, 41, 28
2, 2930, Note_on_c, 0, 62, 0
2, 2932, Note_on_c, 0, 48, 0
2, 3012, Note_on_c, 0, 41, 0
2, 3178, Note_on_c, 0, 68, 94
2, 3219, Note_on_c, 0, 68, 0
2, 3267, Note_on_c, 0, 68, 92
2, 3303, Note_on_c, 0, 68, 0
2, 3365, Note_on_c, 0, 68, 81
2, 3407, Note_on_c, 0, 68, 0
2, 3472, Note_on_c, 0, 68, 65
2, 3525, Note_on_c, 0, 68, 0
2, 3581, Note_on_c, 0, 68, 50
2, 3653, Note_on_c, 0, 68, 0
2, 3752, Note_on_c, 0, 68, 53
2, 3755, Note_on_c, 0, 64, 56
2, 3755, Note_on_c, 0, 53, 51
2, 3757, Note_on_c, 0, 59, 46
2, 3765, Control_c, 0, 64, 0
2, 3791, Control_c, 0, 64, 127
2, 3817, Note_on_c, 0, 64, 0
2, 3827, Note_on_c, 0, 59, 0
2, 3835, Note_on_c, 0, 68, 0
2, 3863, Note_on_c, 0, 53, 0
2, 3872, Note_on_c, 0, 58, 32
2, 3873, Note_on_c, 0, 67, 45
2, 3875, Note_on_c, 0, 63, 35
2, 3881, Note_on_c, 0, 52, 32
2, 3882, Control_c, 0, 64, 0
2, 3935, Control_c, 0, 64, 127
2, 3945, Note_on_c, 0, 67, 0
2, 3990, Note_on_c, 0, 67, 50
2, 4079, Note_on_c, 0, 58, 0
2, 4110, Note_on_c, 0, 58, 34
2, 4126, Note_on_c, 0, 52, 0
2, 4135, Note_on_c, 0, 67, 0
2, 4153, Note_on_c, 0, 63, 0
2, 4155, Note_on_c, 0, 58, 0
2, 4246, Note_on_c, 0, 67, 37
2, 4250, Note_on_c, 0, 59, 40
2, 4252, Note_on_c, 0, 65, 36
2, 4253, Note_on_c, 0, 63, 25
2, 4256, Note_on_c, 0, 53, 29
2, 4257, Note_on_c, 0, 37, 34
2, 4260, Control_c, 0, 64, 0
2, 4262, Note_on_c, 0, 65, 0
2, 4263, Note_on_c, 0, 63, 0
2, 4308, Note_on_c, 0, 53, 0
2, 4308, Control_c, 0, 64, 127
2, 4316, Note_on_c, 0, 59, 0
2, 4320, Note_on_c, 0, 44, 55
2, 4325, Note_on_c, 0, 37, 0
2, 4363, Note_on_c, 0, 67, 0
2, 4366, Note_on_c, 0, 44, 0
2, 4386, Note_on_c, 0, 53, 50
2, 4386, Note_on_c, 0, 63, 45
2, 4386, Note_on_c, 0, 59, 60
2, 4406, Note_on_c, 0, 59, 0
2, 4423, Note_on_c, 0, 63, 0
2, 4442, Note_on_c, 0, 53, 0
2, 4453, Note_on_c, 0, 56, 52
2, 4533, Note_on_c, 0, 70, 52
2, 4535, Note_on_c, 0, 59, 44
2, 4538, Note_on_c, 0, 67, 38
2, 4618, Note_on_c, 0, 63, 43
2, 4623, Note_on_c, 0, 59, 0
2, 4654, Note_on_c, 0, 67, 0
2, 4656, Note_on_c, 0, 70, 0
2, 4723, Note_on_c, 0, 59, 56
2, 4725, Note_on_c, 0, 75, 72
2, 4740, Note_on_c, 0, 63, 0
2, 4803, Note_on_c, 0, 75, 0
2, 4804, Note_on_c, 0, 59, 0
2, 4811, Note_on_c, 0, 56, 0
2, 4830, Note_on_c, 0, 75, 62
2, 4865, Note_on_c, 0, 75, 0
2, 4968, Note_on_c, 0, 76, 73
2, 4977, Note_on_c, 0, 36, 62
2, 4988, Control_c, 0, 64, 0
2, 5040, Note_on_c, 0, 43, 52
2, 5042, Control_c, 0, 64, 127
2, 5069, Note_on_c, 0, 36, 0
2, 5103, Note_on_c, 0, 71, 72
2, 5108, Note_on_c, 0, 52, 50
2, 5126, Note_on_c, 0, 43, 0
2, 5155, Note_on_c, 0, 71, 0
2, 5158, Note_on_c, 0, 76, 0
2, 5160, Note_on_c, 0, 64, 71
2, 5183, Note_on_c, 0, 64, 0
2, 5193, Note_on_c, 0, 52, 0
2, 5221, Note_on_c, 0, 65, 76
2, 5225, Note_on_c, 0, 60, 59
2, 5230, Control_c, 0, 64, 0
2, 5230, Note_on_c, 0, 39, 53
2, 5263, Control_c, 0, 64, 127
2, 5272, Note_on_c, 0, 60, 0
2, 5285, Note_on_c, 0, 46, 60
2, 5285, Note_on_c, 0, 70, 73
2, 5286, Note_on_c, 0, 39, 0
2, 5286, Note_on_c, 0, 65, 0
2, 5298, Note_on_c, 0, 70, 0
2, 5355, Note_on_c, 0, 77, 54
2, 5356, Note_on_c, 0, 72, 54
2, 5357, Note_on_c, 0, 55, 61
2, 5425, Note_on_c, 0, 82, 64
2, 5427, Note_on_c, 0, 77, 0
2, 5435, Note_on_c, 0, 46, 0
2, 5438, Note_on_c, 0, 72, 0
2, 5463, Note_on_c, 0, 82, 0
2, 5483, Note_on_c, 0, 55, 0
2, 5496, Note_on_c, 0, 44, 60
2, 5496, Note_on_c, 0, 77, 60
2, 5497, Note_on_c, 0, 72, 47
2, 5498, Control_c, 0, 64, 0
2, 5535, Control_c, 0, 64, 127
2, 5548, Note_on_c, 0, 72, 0
2, 5559, Note_on_c, 0, 77, 0
2, 5562, Note_on_c, 0, 51, 54
2, 5565, Note_on_c, 0, 84, 71
2, 5569, Note_on_c, 0, 44, 0
2, 5573, Note_on_c, 0, 84, 0
2, 5580, Note_on_c, 0, 51, 0
2, 5643, Note_on_c, 0, 84, 54
2, 5643, Note_on_c, 0, 89, 62
2, 5643, Note_on_c, 0, 60, 47
2, 5712, Note_on_c, 0, 65, 59
2, 5716, Note_on_c, 0, 96, 76
2, 5719, Note_on_c, 0, 65, 0
2, 5724, Note_on_c, 0, 89, 0
2, 5729, Note_on_c, 0, 60, 0
2, 5743, Note_on_c, 0, 84, 0
2, 5756, Note_on_c, 0, 96, 0
2, 5813, Note_on_c, 0, 96, 76
2, 5815, Note_on_c, 0, 37, 57
2, 5816, Note_on_c, 0, 89, 62
2, 5816, Note_on_c, 0, 84, 58
2, 5818, Control_c, 0, 64, 0
2, 5839, Note_on_c, 0, 96, 0
2, 5846, Control_c, 0, 64, 127
2, 5848, Note_on_c, 0, 89, 0
2, 5854, Note_on_c, 0, 84, 0
2, 5907, Note_on_c, 0, 37, 0
2, 5907, Note_on_c, 0, 44, 52
2, 5918, Note_on_c, 0, 65, 72
2, 5918, Note_on_c, 0, 72, 66
2, 5986, Note_on_c, 0, 65, 0
2, 5999, Note_on_c, 0, 72, 0
2, 6052, Note_on_c, 0, 72, 47
2, 6052, Note_on_c, 0, 65, 53
2, 6060, Note_on_c, 0, 60, 38
2, 6067, Note_on_c, 0, 53, 35
2, 6338, Note_on_c, 0, 44, 0
2, 6408, Note_on_c, 0, 53, 0
2, 6412, Note_on_c, 0, 60, 0
2, 6420, Note_on_c, 0, 65, 0
2, 6435, Note_on_c, 0, 72, 0
2, 6556, Note_on_c, 0, 70, 85
2, 6556, Note_on_c, 0, 61, 91
2, 6557, Note_on_c, 0, 66, 81
2, 6558, Note_on_c, 0, 48, 74
2, 6560, Note_on_c, 0, 55, 79
2, 6560, Control_c, 0, 64, 0
2, 6583, Control_c, 0, 64, 127
2, 6617, Note_on_c, 0, 66, 0
2, 6619, Note_on_c, 0, 48, 0
2, 6619, Note_on_c, 0, 70, 0
2, 6622, Note_on_c, 0, 61, 0
2, 6626, Note_on_c, 0, 55, 0
2, 6652, Note_on_c, 0, 70, 82
2, 6653, Note_on_c, 0, 66, 85
2, 6653, Note_on_c, 0, 61, 88
2, 6655, Note_on_c, 0, 55, 72
2, 6656, Control_c, 0, 64, 0
2, 6656, Note_on_c, 0, 48, 70
2, 6685, Control_c, 0, 64, 127
2, 6698, Note_on_c, 0, 70, 0
2, 6709, Note_on_c, 0, 66, 0
2, 6733, Note_on_c, 0, 61, 0
2, 6751, Note_on_c, 0, 54, 38
2, 6767, Note_on_c, 0, 54, 0
2, 6767, Note_on_c, 0, 55, 0
2, 6772, Note_on_c, 0, 53, 47
2, 6782, Note_on_c, 0, 53, 0
2, 6782, Note_on_c, 0, 52, 74
2, 6790, Note_on_c, 0, 58, 67
2, 6790, Note_on_c, 0, 67, 72
2, 6792, Note_on_c, 0, 63, 68
2, 6801, Control_c, 0, 64, 0
2, 6871, Note_on_c, 0, 67, 0
2, 6873, Control_c, 0, 64, 127
2, 6878, Note_on_c, 0, 52, 0
2, 6879, Note_on_c, 0, 63, 0
2, 6880, Note_on_c, 0, 58, 0
2, 6907, Note_on_c, 0, 58, 57
2, 6910, Note_on_c, 0, 63, 55
2, 6910, Note_on_c, 0, 67, 64
2, 6910, Note_on_c, 0, 52, 55
2, 6913, Control_c, 0, 64, 0
2, 6952, Control_c, 0, 64, 127
2, 7115, Note_on_c, 0, 58, 0
2, 7121, Note_on_c, 0, 67, 0
2, 7125, Note_on_c, 0, 63, 0
2, 7165, Note_on_c, 0, 52, 0
2, 7167, Note_on_c, 0, 70, 79
2, 7167, Note_on_c, 0, 61, 83
2, 7170, Note_on_c, 0, 66, 74
2, 7172, Note_on_c, 0, 55, 74
2, 7176, Control_c, 0, 64, 0
2, 7197, Control_c, 0, 64, 127
2, 7225, Note_on_c, 0, 55, 0
2, 7232, Note_on_c, 0, 61, 0
2, 7232, Note_on_c, 0, 66, 0
2, 7238, Note_on_c, 0, 70, 0
2, 7257, Note_on_c, 0, 72, 80
2, 7261, Note_on_c, 0, 56, 46
2, 7261, Note_on_c, 0, 63, 52
2, 7262, Control_c, 0, 64, 0
2, 7274, Note_on_c, 0, 63, 0
2, 7287, Note_on_c, 0, 72, 0
2, 7296, Control_c, 0, 64, 127
2, 7319, Note_on_c, 0, 56, 0
2, 7320, Note_on_c, 0, 70, 55
2, 7323, Note_on_c, 0, 61, 31
2, 7327, Note_on_c, 0, 70, 0
2, 7364, Note_on_c, 0, 61, 0
2, 7379, Note_on_c, 0, 48, 0
2, 7380, Note_on_c, 0, 68, 39
2, 7380, Note_on_c, 0, 60, 53
2, 7381, Note_on_c, 0, 63, 35
2, 7385, Control_c, 0, 64, 0
2, 7386, Note_on_c, 0, 53, 33
2, 7419, Note_on_c, 0, 53, 0
2, 7428, Note_on_c, 0, 68, 0
2, 7433, Note_on_c, 0, 63, 0
2, 7433, Control_c, 0, 64, 127
2, 7438, Note_on_c, 0, 41, 40
2, 7440, Note_on_c, 0, 60, 0
2, 7491, Note_on_c, 0, 48, 36
2, 7496, Note_on_c, 0, 60, 45
2, 7502, Note_on_c, 0, 56, 31
2, 7503, Control_c, 0, 64, 0
2, 7529, Note_on_c, 0, 60, 0
2, 7530, Note_on_c, 0, 56, 0
2, 7545, Note_on_c, 0, 56, 25
2, 7547, Note_on_c, 0, 48, 0
2, 7551, Note_on_c, 0, 60, 24
2, 7551, Note_on_c, 0, 67, 37
2, 7553, Note_on_c, 0, 52, 35
2, 7579, Note_on_c, 0, 67, 0
2, 7582, Note_on_c, 0, 60, 0
2, 7587, Note_on_c, 0, 56, 0
2, 7589, Note_on_c, 0, 52, 0
2, 7610, Note_on_c, 0, 65, 49
2, 7640, Note_on_c, 0, 65, 0
2, 7660, Note_on_c, 0, 56, 35
2, 7672, Note_on_c, 0, 56, 0
2, 7675, Note_on_c, 0, 48, 24
2, 7706, Note_on_c, 0, 48, 0
2, 7708, Note_on_c, 0, 63, 38
2, 7713, Note_on_c, 0, 56, 32
2, 7715, Note_on_c, 0, 51, 42
2, 7717, Note_on_c, 0, 53, 19
2, 7720, Note_on_c, 0, 60, 29
2, 7743, Note_on_c, 0, 51, 0
2, 7745, Note_on_c, 0, 53, 0
2, 7746, Note_on_c, 0, 60, 0
2, 7751, Note_on_c, 0, 63, 0
2, 7758, Note_on_c, 0, 56, 0
2, 7770, Note_on_c, 0, 48, 33
2, 7790, Note_on_c, 0, 48, 0
2, 7812, Note_on_c, 0, 53, 40
2, 7813, Note_on_c, 0, 62, 41
2, 7815, Note_on_c, 0, 56, 33
2, 7817, Note_on_c, 0, 50, 36
2, 7912, Control_c, 0, 64, 127
2, 7963, Note_on_c, 0, 53, 0
2, 7985, Note_on_c, 0, 56, 0
2, 7987, Note_on_c, 0, 50, 0
2, 7990, Note_on_c, 0, 62, 0
2, 7992, Note_on_c, 0, 48, 35
2, 8114, Note_on_c, 0, 41, 0
2, 8124, Note_on_c, 0, 48, 0
2, 8126, Note_on_c, 0, 67, 68
2, 8146, Note_on_c, 0, 67, 0
2, 8146, Note_on_c, 0, 68, 69
2, 8148, Control_c, 0, 64, 0
2, 8170, Note_on_c, 0, 67, 53
2, 8178, Note_on_c, 0, 68, 0
2, 8193, Note_on_c, 0, 67, 0
2, 8205, Note_on_c, 0, 65, 29
2, 8215, Note_on_c, 0, 65, 0
2, 8227, Note_on_c, 0, 67, 60
2, 8278, Note_on_c, 0, 67, 0
2, 8303, Note_on_c, 0, 68, 70
2, 8313, Control_c, 0, 64, 127
2, 8354, Note_on_c, 0, 68, 0
2, 8355, Control_c, 0, 64, 0
2, 8361, Note_on_c, 0, 60, 42
2, 8367, Note_on_c, 0, 67, 45
2, 8373, Note_on_c, 0, 50, 33
2, 8422, Control_c, 0, 64, 127
2, 8433, Note_on_c, 0, 60, 0
2, 8435, Note_on_c, 0, 56, 39
2, 8442, Note_on_c, 0, 67, 0
2, 8498, Note_on_c, 0, 60, 48
2, 8548, Note_on_c, 0, 60, 0
2, 8551, Note_on_c, 0, 56, 0
2, 8565, Note_on_c, 0, 67, 68
2, 8597, Note_on_c, 0, 67, 0
2, 8638, Note_on_c, 0, 67, 65
2, 8642, Note_on_c, 0, 60, 57
2, 8643, Note_on_c, 0, 56, 46
2, 8646, Control_c, 0, 64, 0
2, 8647, Note_on_c, 0, 55, 35
2, 8650, Note_on_c, 0, 50, 0
2, 8690, Control_c, 0, 64, 127
2, 8709, Note_on_c, 0, 55, 0
2, 8711, Note_on_c, 0, 56, 0
2, 8730, Note_on_c, 0, 56, 53
2, 8732, Note_on_c, 0, 50, 32
2, 8742, Note_on_c, 0, 50, 0
2, 8747, Note_on_c, 0, 60, 0
2, 8760, Note_on_c, 0, 56, 0
2, 8766, Note_on_c, 0, 67, 0
2, 8841, Note_on_c, 0, 37, 59
2, 8843, Control_c, 0, 64, 0
2, 8863, Note_on_c, 0, 37, 0
2, 8872, Control_c, 0, 64, 127
2, 8947, Note_on_c, 0, 70, 56
2, 8950, Note_on_c, 0, 63, 49
2, 8951, Note_on_c, 0, 59, 51
2, 8952, Note_on_c, 0, 53, 47
2, 8953, Note_on_c, 0, 67, 43
2, 8983, Note_on_c, 0, 63, 0
2, 8984, Note_on_c, 0, 67, 0
2, 8993, Note_on_c, 0, 70, 0
2, 9013, Note_on_c, 0, 59, 0
2, 9067, Note_on_c, 0, 75, 57
2, 9071, Note_on_c, 0, 70, 49
2, 9071, Note_on_c, 0, 59, 45
2, 9072, Note_on_c, 0, 67, 42
2, 9073, Note_on_c, 0, 63, 33
2, 9083, Control_c, 0, 64, 0
2, 9108, Control_c, 0, 64, 127
2, 9204, Note_on_c, 0, 75, 0
2, 9250, Note_on_c, 0, 75, 52
2, 9307, Note_on_c, 0, 59, 0
2, 9317, Note_on_c, 0, 67, 0
2, 9327, Note_on_c, 0, 53, 0
2, 9330, Note_on_c, 0, 75, 0
2, 9340, Note_on_c, 0, 63, 0
2, 9348, Note_on_c, 0, 70, 0
2, 9446, Note_on_c, 0, 72, 38
2, 9446, Note_on_c, 0, 62, 36
2, 9447, Note_on_c, 0, 67, 40
2, 9451, Note_on_c, 0, 57, 36
2, 9451, Note_on_c, 0, 48, 32
2, 9460, Control_c, 0, 64, 0
2, 9528, Control_c, 0, 64, 127
2, 9562, Note_on_c, 0, 67, 0
2, 9564, Note_on_c, 0, 72, 0
2, 9570, Note_on_c, 0, 55, 44
2, 9571, Note_on_c, 0, 57, 0
2, 9583, Note_on_c, 0, 62, 0
2, 9646, Note_on_c, 0, 63, 69
2, 9653, Note_on_c, 0, 64, 71
2, 9658, Note_on_c, 0, 62, 53
2, 9682, Note_on_c, 0, 63, 0
2, 9711, Note_on_c, 0, 62, 0
2, 9725, Note_on_c, 0, 67, 80
2, 9738, Note_on_c, 0, 64, 0
2, 9755, Note_on_c, 0, 67, 0
2, 9802, Note_on_c, 0, 55, 0
2, 9813, Note_on_c, 0, 72, 77
2, 9813, Note_on_c, 0, 65, 68
2, 9815, Note_on_c, 0, 62, 71
2, 9822, Control_c, 0, 64, 0
2, 9851, Control_c, 0, 64, 127
2, 9860, Note_on_c, 0, 72, 0
2, 9863, Note_on_c, 0, 62, 0
2, 9868, Note_on_c, 0, 65, 0
2, 9891, Note_on_c, 0, 74, 76
2, 9901, Note_on_c, 0, 48, 0
2, 9921, Note_on_c, 0, 74, 0
2, 9988, Note_on_c, 0, 75, 62
2, 9992, Note_on_c, 0, 64, 52
2, 9993, Note_on_c, 0, 72, 53
2, 9993, Note_on_c, 0, 68, 44
2, 9996, Note_on_c, 0, 63, 25
2, 10005, Control_c, 0, 64, 0
2, 10046, Control_c, 0, 64, 127
2, 10099, Note_on_c, 0, 72, 0
2, 10106, Note_on_c, 0, 75, 0
2, 10120, Note_on_c, 0, 73, 54
2, 10127, Note_on_c, 0, 58, 30
2, 10128, Note_on_c, 0, 63, 0
2, 10242, Note_on_c, 0, 58, 0
2, 10248, Note_on_c, 0, 64, 0
2, 10284, Note_on_c, 0, 68, 0
2, 10330, Note_on_c, 0, 73, 0
2, 10351, Note_on_c, 0, 75, 64
2, 10357, Control_c, 0, 64, 0
2, 10360, Note_on_c, 0, 67, 55
2, 10360, Note_on_c, 0, 53, 44
2, 10362, Note_on_c, 0, 63, 35
2, 10386, Control_c, 0, 64, 127
2, 10416, Note_on_c, 0, 53, 0
2, 10434, Note_on_c, 0, 75, 0
2, 10443, Note_on_c, 0, 67, 0
2, 10443, Note_on_c, 0, 53, 42
2, 10482, Note_on_c, 0, 63, 0
2, 10511, Note_on_c, 0, 53, 0
2, 10528, Note_on_c, 0, 63, 48
2, 10528, Note_on_c, 0, 72, 54
2, 10533, Note_on_c, 0, 67, 48
2, 10616, Note_on_c, 0, 53, 41
2, 10621, Note_on_c, 0, 67, 0
2, 10647, Note_on_c, 0, 53, 0
2, 10670, Note_on_c, 0, 63, 0
2, 10715, Note_on_c, 0, 63, 46
2, 10716, Note_on_c, 0, 66, 51
2, 10726, Note_on_c, 0, 53, 42
2, 10735, Control_c, 0, 64, 0
2, 10772, Control_c, 0, 64, 127
2, 10784, Note_on_c, 0, 53, 0
2, 10823, Note_on_c, 0, 53, 44
2, 10836, Note_on_c, 0, 72, 0
2, 10861, Note_on_c, 0, 66, 0
2, 10896, Note_on_c, 0, 63, 0
2, 10904, Note_on_c, 0, 53, 0
2, 10927, Note_on_c, 0, 75, 71
2, 10928, Note_on_c, 0, 63, 62
2, 10930, Note_on_c, 0, 66, 68
2, 10931, Note_on_c, 0, 53, 54
2, 10962, Note_on_c, 0, 53, 0
2, 11026, Note_on_c, 0, 53, 62
2, 11046, Note_on_c, 0, 63, 0
2, 11050, Note_on_c, 0, 75, 0
2, 11050, Note_on_c, 0, 66, 0
2, 11079, Note_on_c, 0, 53, 0
2, 11120, Note_on_c, 0, 74, 68
2, 11125, Note_on_c, 0, 65, 51
2, 11125, Note_on_c, 0, 53, 55
2, 11126, Note_on_c, 0, 62, 53
2, 11128, Note_on_c, 0, 69, 51
2, 11138, Control_c, 0, 64, 0
2, 11153, Note_on_c, 0, 53, 0
2, 11165, Control_c, 0, 64, 127
2, 11227, Note_on_c, 0, 46, 61
2, 11298, Note_on_c, 0, 46, 0
2, 11318, Note_on_c, 0, 54, 60
2, 11318, Note_on_c, 0, 46, 44
2, 11331, Control_c, 0, 64, 0
2, 11375, Note_on_c, 0, 46, 0
2, 11380, Control_c, 0, 64, 127
2, 11395, Note_on_c, 0, 46, 44
2, 11422, Note_on_c, 0, 65, 0
2, 11436, Note_on_c, 0, 69, 0
2, 11454, Note_on_c, 0, 62, 0
2, 11464, Note_on_c, 0, 54, 0
2, 11483, Note_on_c, 0, 62, 37
2, 11487, Note_on_c, 0, 55, 47
2, 11488, Note_on_c, 0, 66, 38
2, 11495, Control_c, 0, 64, 0
2, 11540, Control_c, 0, 64, 127
2, 11552, Note_on_c, 0, 46, 0
2, 11587, Note_on_c, 0, 46, 39
2, 11627, Note_on_c, 0, 55, 0
2, 11636, Note_on_c, 0, 66, 0
2, 11648, Note_on_c, 0, 62, 0
2, 11698, Note_on_c, 0, 62, 33
2, 11701, Note_on_c, 0, 65, 42
2, 11707, Note_on_c, 0, 53, 32
2, 11711, Control_c, 0, 64, 0
2, 11752, Control_c, 0, 64, 127
2, 11853, Note_on_c, 0, 65, 0
2, 11853, Note_on_c, 0, 62, 0
2, 11867, Note_on_c, 0, 74, 0
2, 11903, Note_on_c, 0, 53, 0
2, 11918, Note_on_c, 0, 46, 0
2, 11950, Note_on_c, 0, 74, 72
2, 11968, Note_on_c, 0, 74, 0
2, 12028, Control_c, 0, 64, 0
2, 12033, Note_on_c, 0, 72, 78
2, 12035, Note_on_c, 0, 44, 67
2, 12036, Note_on_c, 0, 67, 87
2, 12057, Note_on_c, 0, 44, 0
2, 12057, Control_c, 0, 64, 127
2, 12088, Note_on_c, 0, 67, 0
2, 12096, Note_on_c, 0, 72, 0
2, 12127, Note_on_c, 0, 54, 11
2, 12144, Note_on_c, 0, 54, 0
2, 12186, Note_on_c, 0, 77, 78
2, 12187, Note_on_c, 0, 84, 77
2, 12188, Note_on_c, 0, 72, 69
2, 12190, Note_on_c, 0, 60, 64
2, 12193, Note_on_c, 0, 83, 41
2, 12201, Note_on_c, 0, 83, 0
2, 12210, Note_on_c, 0, 84, 0
2, 12219, Note_on_c, 0, 77, 0
2, 12221, Note_on_c, 0, 72, 0
2, 12286, Note_on_c, 0, 65, 71
2, 12346, Note_on_c, 0, 65, 0
2, 12371, Note_on_c, 0, 80, 71
2, 12375, Note_on_c, 0, 68, 75
2, 12383, Note_on_c, 0, 60, 0
2, 12396, Note_on_c, 0, 68, 0
2, 12397, Note_on_c, 0, 80, 0
2, 12501, Note_on_c, 0, 68, 83
2, 12502, Note_on_c, 0, 65, 83
2, 12503, Note_on_c, 0, 60, 83
2, 12505, Note_on_c, 0, 56, 85
2, 12538, Control_c, 0, 64, 0
2, 12557, Note_on_c, 0, 56, 0
2, 12571, Note_on_c, 0, 55, 47
2, 12591, Note_on_c, 0, 55, 0
2, 12595, Note_on_c, 0, 54, 51
2, 12622, Note_on_c, 0, 54, 0
2, 12628, Note_on_c, 0, 53, 51
2, 12639, Note_on_c, 0, 53, 0
2, 12671, Control_c, 0, 64, 127
2, 12680, Note_on_c, 0, 51, 48
2, 12695, Control_c, 0, 64, 0
2, 12703, Note_on_c, 0, 51, 0
2, 12718, Note_on_c, 0, 50, 58
2, 12762, Control_c, 0, 64, 127
2, 12776, Note_on_c, 0, 50, 0
2, 12783, Note_on_c, 0, 38, 60
2, 12793, Note_on_c, 0, 38, 0
2, 12794, Note_on_c, 0, 60, 0
2, 12805, Note_on_c, 0, 65, 0
2, 12821, Note_on_c, 0, 68, 0
2, 12893, Note_on_c, 0, 56, 21
2, 12903, Note_on_c, 0, 56, 0
2, 12940, Note_on_c, 0, 68, 78
2, 12940, Note_on_c, 0, 72, 80
2, 12940, Note_on_c, 0, 64, 83
2, 12942, Note_on_c, 0, 60, 67
2, 13006, Note_on_c, 0, 64, 0
2, 13015, Note_on_c, 0, 68, 0
2, 13015, Note_on_c, 0, 72, 0
2, 13020, Note_on_c, 0, 60, 0
2, 13050, Note_on_c, 0, 68, 65
2, 13051, Note_on_c, 0, 72, 71
2, 13052, Note_on_c, 0, 64, 71
2, 13053, Note_on_c, 0, 60, 48
2, 13055, Note_on_c, 0, 54, 47
2, 13097, Note_on_c, 0, 64, 0
2, 13113, Note_on_c, 0, 72, 0
2, 13120, Note_on_c, 0, 60, 0
2, 13127, Note_on_c, 0, 68, 0
2, 13146, Note_on_c, 0, 70, 64
2, 13148, Note_on_c, 0, 61, 55
2, 13148, Note_on_c, 0, 66, 57
2, 13166, Note_on_c, 0, 54, 0
2, 13178, Note_on_c, 0, 70, 0
2, 13186, Note_on_c, 0, 66, 0
2, 13203, Note_on_c, 0, 61, 0
2, 13218, Note_on_c, 0, 68, 62
2, 13223, Note_on_c, 0, 60, 54
2, 13243, Note_on_c, 0, 68, 0
2, 13248, Note_on_c, 0, 60, 0
2, 13298, Note_on_c, 0, 67, 51
2, 13300, Note_on_c, 0, 57, 50
2, 13303, Note_on_c, 0, 60, 56
2, 13305, Note_on_c, 0, 65, 52
2, 13310, Note_on_c, 0, 55, 42
2, 13321, Control_c, 0, 64, 0
2, 13382, Note_on_c, 0, 43, 61
2, 13422, Control_c, 0, 64, 127
2, 13423, Note_on_c, 0, 55, 0
2, 13473, Note_on_c, 0, 55, 66
2, 13528, Note_on_c, 0, 43, 0
2, 13573, Note_on_c, 0, 43, 53
2, 13586, Note_on_c, 0, 60, 0
2, 13596, Note_on_c, 0, 57, 0
2, 13599, Note_on_c, 0, 55, 0
2, 13620, Note_on_c, 0, 43, 0
2, 13640, Note_on_c, 0, 65, 0
2, 13654, Note_on_c, 0, 67, 0
2, 13695, Note_on_c, 0, 63, 46
2, 13697, Note_on_c, 0, 67, 44
2, 13698, Note_on_c, 0, 59, 61
2, 13701, Note_on_c, 0, 37, 51
2, 13702, Note_on_c, 0, 65, 47
2, 13708, Control_c, 0, 64, 0
2, 13708, Note_on_c, 0, 55, 33
2, 13710, Note_on_c, 0, 53, 30
2, 13712, Note_on_c, 0, 65, 0
2, 13771, Control_c, 0, 64, 127
2, 13777, Note_on_c, 0, 53, 0
2, 13781, Note_on_c, 0, 55, 0
2, 13782, Note_on_c, 0, 44, 56
2, 13786, Note_on_c, 0, 37, 0
2, 13791, Note_on_c, 0, 59, 0
2, 13801, Note_on_c, 0, 63, 0
2, 13873, Note_on_c, 0, 67, 0
2, 13887, Note_on_c, 0, 63, 37
2, 13890, Note_on_c, 0, 59, 58
2, 13897, Note_on_c, 0, 53, 44
2, 13922, Note_on_c, 0, 59, 0
2, 13932, Note_on_c, 0, 63, 0
2, 13998, Note_on_c, 0, 70, 88
2, 14049, Note_on_c, 0, 70, 0
2, 14065, Note_on_c, 0, 44, 0
2, 14078, Note_on_c, 0, 70, 83
2, 14080, Note_on_c, 0, 53, 0
2, 14113, Note_on_c, 0, 70, 0
2, 14147, Note_on_c, 0, 70, 76
2, 14179, Note_on_c, 0, 70, 0
2, 14215, Note_on_c, 0, 70, 67
2, 14243, Note_on_c, 0, 70, 0
2, 14282, Note_on_c, 0, 70, 67
2, 14312, Note_on_c, 0, 70, 0
2, 14355, Note_on_c, 0, 70, 63
2, 14378, Note_on_c, 0, 70, 0
2, 14422, Note_on_c, 0, 70, 64
2, 14450, Note_on_c, 0, 70, 0
2, 14553, Note_on_c, 0, 70, 60
2, 14555, Note_on_c, 0, 61, 50
2, 14556, Note_on_c, 0, 66, 50
2, 14558, Note_on_c, 0, 48, 43
2, 14562, Note_on_c, 0, 55, 45
2, 14565, Control_c, 0, 64, 0
2, 14606, Control_c, 0, 64, 127
2, 14659, Note_on_c, 0, 66, 0
2, 14664, Note_on_c, 0, 70, 0
2, 14686, Note_on_c, 0, 61, 0
2, 14686, Note_on_c, 0, 54, 21
2, 14694, Note_on_c, 0, 54, 0
2, 14694, Note_on_c, 0, 55, 0
2, 14703, Note_on_c, 0, 53, 34
2, 14714, Note_on_c, 0, 53, 0
2, 14716, Note_on_c, 0, 52, 55
2, 14721, Note_on_c, 0, 58, 36
2, 14723, Note_on_c, 0, 63, 39
2, 14723, Note_on_c, 0, 67, 32
2, 14728, Control_c, 0, 64, 0
2, 14798, Control_c, 0, 64, 127
2, 14819, Note_on_c, 0, 67, 0
2, 14827, Control_c, 0, 64, 0
2, 14829, Note_on_c, 0, 58, 0
2, 14840, Note_on_c, 0, 63, 0
2, 14842, Note_on_c, 0, 52, 0
2, 14872, Note_on_c, 0, 67, 52
2, 14872, Note_on_c, 0, 52, 34
2, 14873, Control_c, 0, 64, 127
2, 14875, Note_on_c, 0, 63, 37
2, 14875, Note_on_c, 0, 58, 33
2, 14930, Note_on_c, 0, 52, 0
2, 14941, Note_on_c, 0, 48, 0
2, 15028, Note_on_c, 0, 67, 0
2, 15030, Note_on_c, 0, 58, 0
2, 15032, Note_on_c, 0, 63, 0
2, 15141, Note_on_c, 0, 61, 33
2, 15143, Note_on_c, 0, 58, 35
2, 15143, Note_on_c, 0, 52, 45
2, 15186, Note_on_c, 0, 52, 0
2, 15209, Note_on_c, 0, 58, 0
2, 15237, Note_on_c, 0, 61, 0
2, 15266, Note_on_c, 0, 60, 38
2, 15267, Note_on_c, 0, 58, 35
2, 15268, Note_on_c, 0, 52, 40
2, 15280, Control_c, 0, 64, 0
2, 15280, Note_on_c, 0, 48, 26
2, 15332, Control_c, 0, 64, 127
2, 15344, Note_on_c, 0, 52, 0
2, 15355, Note_on_c, 0, 36, 54
2, 15371, Note_on_c, 0, 60, 0
2, 15373, Note_on_c, 0, 36, 0
2, 15374, Note_on_c, 0, 58, 0
2, 15388, Note_on_c, 0, 48, 0
2, 16055, Note_on_c, 0, 61, 69
2, 16056, Note_on_c, 0, 70, 69
2, 16056, Note_on_c, 0, 66, 63
2, 16056, Note_on_c, 0, 55, 59
2, 16076, Control_c, 0, 64, 0
2, 16085, Control_c, 0, 64, 127
2, 16122, Note_on_c, 0, 61, 0
2, 16124, Note_on_c, 0, 70, 0
2, 16129, Note_on_c, 0, 66, 0
2, 16134, Note_on_c, 0, 55, 0
2, 16138, Note_on_c, 0, 63, 65
2, 16138, Note_on_c, 0, 72, 73
2, 16141, Control_c, 0, 64, 0
2, 16141, Note_on_c, 0, 68, 69
2, 16141, Note_on_c, 0, 56, 57
2, 16180, Note_on_c, 0, 72, 0
2, 16180, Note_on_c, 0, 63, 0
2, 16186, Control_c, 0, 64, 127
2, 16196, Note_on_c, 0, 68, 0
2, 16213, Note_on_c, 0, 70, 55
2, 16213, Note_on_c, 0, 61, 55
2, 16215, Note_on_c, 0, 66, 58
2, 16233, Note_on_c, 0, 56, 0
2, 16244, Note_on_c, 0, 70, 0
2, 16248, Note_on_c, 0, 66, 0
2, 16263, Note_on_c, 0, 61, 0
2, 16281, Note_on_c, 0, 68, 57
2, 16285, Note_on_c, 0, 60, 55
2, 16287, Note_on_c, 0, 63, 48
2, 16292, Control_c, 0, 64, 0
2, 16345, Control_c, 0, 64, 127
2, 16348, Note_on_c, 0, 63, 0
2, 16348, Note_on_c, 0, 68, 0
2, 16350, Note_on_c, 0, 41, 45
2, 16356, Note_on_c, 0, 60, 0
2, 16406, Note_on_c, 0, 48, 37
2, 16407, Note_on_c, 0, 64, 49
2, 16410, Note_on_c, 0, 56, 32
2, 16410, Control_c, 0, 64, 0
2, 16415, Note_on_c, 0, 60, 36
2, 16458, Note_on_c, 0, 60, 0
2, 16466, Note_on_c, 0, 48, 0
2, 16467, Control_c, 0, 64, 127
2, 16486, Note_on_c, 0, 60, 5
2, 16493, Note_on_c, 0, 67, 19
2, 16505, Note_on_c, 0, 67, 0
2, 16505, Note_on_c, 0, 64, 0
2, 16522, Note_on_c, 0, 60, 0
2, 16526, Note_on_c, 0, 56, 0
2, 16535, Note_on_c, 0, 48, 36
2, 16547, Note_on_c, 0, 48, 0
2, 16570, Note_on_c, 0, 56, 25
2, 16578, Control_c, 0, 64, 0
2, 16578, Note_on_c, 0, 65, 54
2, 16610, Note_on_c, 0, 65, 0
2, 16613, Note_on_c, 0, 56, 0
2, 16658, Note_on_c, 0, 48, 45
2, 16688, Note_on_c, 0, 48, 0
2, 16725, Note_on_c, 0, 63, 42
2, 16727, Note_on_c, 0, 51, 46
2, 16728, Note_on_c, 0, 56, 38
2, 16730, Note_on_c, 0, 53, 44
2, 16733, Note_on_c, 0, 60, 35
2, 16761, Note_on_c, 0, 53, 0
2, 16768, Control_c, 0, 64, 127
2, 16771, Note_on_c, 0, 60, 0
2, 16773, Note_on_c, 0, 51, 0
2, 16773, Note_on_c, 0, 56, 0
2, 16782, Note_on_c, 0, 63, 0
2, 16786, Note_on_c, 0, 48, 43
2, 16812, Note_on_c, 0, 48, 0
2, 16828, Control_c, 0, 64, 0
2, 16835, Note_on_c, 0, 53, 35
2, 16836, Note_on_c, 0, 62, 40
2, 16837, Note_on_c, 0, 56, 32
2, 16838, Note_on_c, 0, 50, 33
2, 16842, Note_on_c, 0, 60, 34
2, 16883, Note_on_c, 0, 41, 0
2, 16910, Note_on_c, 0, 41, 32
2, 16941, Note_on_c, 0, 50, 0
2, 16942, Control_c, 0, 64, 127
2, 16963, Note_on_c, 0, 53, 0
2, 16986, Note_on_c, 0, 48, 32
2, 16987, Note_on_c, 0, 60, 0
2, 16990, Note_on_c, 0, 56, 0
2, 17053, Note_on_c, 0, 62, 0
2, 17058, Note_on_c, 0, 56, 31
2, 17061, Note_on_c, 0, 60, 41
2, 17062, Note_on_c, 0, 53, 32
2, 17109, Note_on_c, 0, 53, 0
2, 17128, Note_on_c, 0, 56, 0
2, 17131, Note_on_c, 0, 60, 0
2, 17291, Note_on_c, 0, 48, 0
2, 17321, Note_on_c, 0, 67, 108
2, 17325, Note_on_c, 0, 74, 89
2, 17327, Note_on_c, 0, 41, 0
2, 17371, Note_on_c, 0, 68, 76
2, 17376, Note_on_c, 0, 67, 0
2, 17406, Note_on_c, 0, 74, 0
2, 17414, Note_on_c, 0, 68, 0
2, 17420, Note_on_c, 0, 74, 47
2, 17422, Note_on_c, 0, 67, 74
2, 17452, Note_on_c, 0, 74, 0
2, 17464, Note_on_c, 0, 67, 0
2, 17475, Note_on_c, 0, 65, 56
2, 17502, Note_on_c, 0, 65, 0
2, 17523, Note_on_c, 0, 68, 64
2, 17526, Note_on_c, 0, 65, 55
2, 17526, Note_on_c, 0, 60, 43
2, 17531, Note_on_c, 0, 50, 33
2, 17548, Control_c, 0, 64, 0
2, 17598, Note_on_c, 0, 60, 0
2, 17598, Note_on_c, 0, 56, 43
2, 17625, Control_c, 0, 64, 127
2, 17656, Note_on_c, 0, 65, 0
2, 17659, Note_on_c, 0, 68, 0
2, 17663, Note_on_c, 0, 60, 51
2, 17716, Note_on_c, 0, 60, 0
2, 17718, Note_on_c, 0, 56, 0
2, 17731, Note_on_c, 0, 67, 62
2, 17741, Note_on_c, 0, 50, 0
2, 17817, Note_on_c, 0, 67, 0
2, 17861, Note_on_c, 0, 63, 50
2, 17862, Note_on_c, 0, 58, 38
2, 17863, Note_on_c, 0, 67, 38
2, 17868, Note_on_c, 0, 55, 44
2, 17868, Note_on_c, 0, 37, 37
2, 17877, Control_c, 0, 64, 0
2, 17929, Note_on_c, 0, 55, 0
2, 17930, Note_on_c, 0, 37, 0
2, 17931, Control_c, 0, 64, 127
2, 17931, Note_on_c, 0, 44, 49
2, 17932, Note_on_c, 0, 58, 0
2, 17941, Note_on_c, 0, 63, 0
2, 17991, Note_on_c, 0, 67, 0
2, 17996, Note_on_c, 0, 44, 0
2, 18003, Note_on_c, 0, 53, 57
2, 18005, Note_on_c, 0, 63, 52
2, 18006, Note_on_c, 0, 58, 46
2, 18027, Note_on_c, 0, 58, 0
2, 18042, Note_on_c, 0, 63, 0
2, 18053, Note_on_c, 0, 53, 0
2, 18075, Note_on_c, 0, 56, 48
2, 18158, Note_on_c, 0, 75, 73
2, 18161, Note_on_c, 0, 59, 61
2, 18162, Note_on_c, 0, 67, 73
2, 18167, Note_on_c, 0, 68, 30
2, 18174, Note_on_c, 0, 68, 0
2, 18233, Note_on_c, 0, 59, 0
2, 18238, Note_on_c, 0, 63, 52
2, 18239, Note_on_c, 0, 67, 0
2, 18278, Note_on_c, 0, 63, 0
2, 18337, Note_on_c, 0, 63, 34
2, 18339, Note_on_c, 0, 75, 0
2, 18340, Note_on_c, 0, 67, 47
2, 18340, Note_on_c, 0, 59, 44
2, 18356, Note_on_c, 0, 56, 0
2, 18488, Note_on_c, 0, 75, 1
2, 18525, Note_on_c, 0, 56, 33
2, 18533, Note_on_c, 0, 59, 0
2, 18618, Note_on_c, 0, 67, 0
2, 18622, Note_on_c, 0, 56, 0
2, 18626, Note_on_c, 0, 75, 0
2, 18644, Note_on_c, 0, 63, 0
2, 18960, Control_c, 0, 64, 0
2, 18961, Note_on_c, 0, 58, 49
2, 18962, Note_on_c, 0, 64, 60
2, 18963, Note_on_c, 0, 69, 53
2, 18965, Note_on_c, 0, 72, 67
2, 18970, Control_c, 0, 64, 127
2, 18974, Note_on_c, 0, 69, 0
2, 18984, Note_on_c, 0, 64, 0
2, 18992, Note_on_c, 0, 58, 0
2, 19038, Note_on_c, 0, 72, 0
2, 19056, Note_on_c, 0, 75, 69
2, 19057, Note_on_c, 0, 66, 56
2, 19060, Note_on_c, 0, 55, 46
2, 19061, Control_c, 0, 64, 0
2, 19063, Note_on_c, 0, 61, 39
2, 19086, Control_c, 0, 64, 127
2, 19128, Note_on_c, 0, 55, 0
2, 19145, Note_on_c, 0, 66, 0
2, 19164, Note_on_c, 0, 61, 0
2, 19452, Note_on_c, 0, 75, 0
2, 19477, Note_on_c, 0, 63, 50
2, 19480, Note_on_c, 0, 52, 53
2, 19480, Note_on_c, 0, 78, 63
2, 19481, Note_on_c, 0, 58, 36
2, 19490, Control_c, 0, 64, 0
2, 19526, Control_c, 0, 64, 127
2, 19630, Note_on_c, 0, 52, 0
2, 19631, Note_on_c, 0, 58, 0
2, 19632, Note_on_c, 0, 63, 0
2, 19708, Note_on_c, 0, 78, 0
2, 19718, Note_on_c, 0, 60, 53
2, 19720, Note_on_c, 0, 81, 63
2, 19721, Note_on_c, 0, 49, 36
2, 19726, Note_on_c, 0, 55, 48
2, 19745, Control_c, 0, 64, 0
2, 19795, Control_c, 0, 64, 127
2, 20076, Note_on_c, 0, 60, 0
2, 20077, Note_on_c, 0, 55, 0
2, 20101, Note_on_c, 0, 49, 0
2, 20136, Note_on_c, 0, 81, 0
2, 20311, Note_on_c, 0, 82, 74
2, 20312, Control_c, 0, 64, 0
2, 20313, Note_on_c, 0, 43, 51
2, 20326, Note_on_c, 0, 43, 0
2, 20330, Control_c, 0, 64, 127
2, 20393, Note_on_c, 0, 82, 0
2, 20417, Note_on_c, 0, 55, 40
2, 20420, Note_on_c, 0, 58, 36
2, 20421, Note_on_c, 0, 61, 27
2, 20432, Control_c, 0, 64, 0
2, 20473, Control_c, 0, 64, 127
2, 20477, Note_on_c, 0, 55, 0
2, 20481, Note_on_c, 0, 58, 0
2, 20489, Note_on_c, 0, 61, 0
2, 20517, Note_on_c, 0, 78, 59
2, 20518, Note_on_c, 0, 79, 73
2, 20533, Note_on_c, 0, 78, 0
2, 20538, Control_c, 0, 64, 0
2, 20544, Note_on_c, 0, 79, 0
2, 20660, Note_on_c, 0, 53, 73
2, 20700, Note_on_c, 0, 53, 0
2, 20705, Control_c, 0, 64, 127
2, 20715, Note_on_c, 0, 52, 24
2, 20716, Note_on_c, 0, 50, 19
2, 20736, Note_on_c, 0, 50, 0
2, 20755, Note_on_c, 0, 52, 0
2, 20782, Note_on_c, 0, 51, 48
2, 20798, Control_c, 0, 64, 0
2, 20817, Note_on_c, 0, 51, 0
2, 20820, Note_on_c, 0, 36, 35
2, 20830, Note_on_c, 0, 52, 51
2, 20832, Note_on_c, 0, 36, 0
2, 20832, Control_c, 0, 64, 127
2, 20842, Note_on_c, 0, 52, 0
2, 20907, Note_on_c, 0, 72, 75
2, 20943, Note_on_c, 0, 61, 39
2, 20945, Control_c, 0, 64, 0
2, 20946, Note_on_c, 0, 56, 39
2, 20951, Note_on_c, 0, 58, 19
2, 20953, Note_on_c, 0, 61, 0
2, 20959, Note_on_c, 0, 58, 0
2, 20959, Note_on_c, 0, 56, 0
2, 20967, Control_c, 0, 64, 127
2, 20989, Note_on_c, 0, 72, 0
2, 21031, Note_on_c, 0, 50, 65
2, 21059, Note_on_c, 0, 50, 0
2, 21065, Note_on_c, 0, 51, 39
2, 21068, Control_c, 0, 64, 0
2, 21072, Note_on_c, 0, 51, 0
2, 21078, Note_on_c, 0, 61, 53
2, 21080, Note_on_c, 0, 64, 63
2, 21080, Note_on_c, 0, 52, 72
2, 21097, Note_on_c, 0, 58, 9
2, 21116, Control_c, 0, 64, 127
2, 21182, Note_on_c, 0, 52, 0
2, 21190, Note_on_c, 0, 58, 0
2, 21198, Note_on_c, 0, 64, 0
2, 21202, Note_on_c, 0, 48, 53
2, 21205, Note_on_c, 0, 61, 0
2, 21277, Note_on_c, 0, 48, 0
2, 21277, Note_on_c, 0, 70, 65
2, 21283, Note_on_c, 0, 60, 47
2, 21286, Note_on_c, 0, 52, 51
2, 21290, Note_on_c, 0, 63, 38
2, 21298, Note_on_c, 0, 63, 0
2, 21308, Note_on_c, 0, 60, 0
2, 21315, Note_on_c, 0, 70, 0
2, 21323, Control_c, 0, 64, 0
2, 21326, Note_on_c, 0, 52, 0
2, 21330, Note_on_c, 0, 60, 54
2, 21333, Note_on_c, 0, 63, 50
2, 21335, Note_on_c, 0, 53, 49
2, 21336, Note_on_c, 0, 68, 39
2, 21373, Control_c, 0, 64, 127
2, 21395, Note_on_c, 0, 53, 0
2, 21403, Note_on_c, 0, 68, 0
2, 21406, Note_on_c, 0, 63, 0
2, 21410, Note_on_c, 0, 60, 0
2, 21413, Note_on_c, 0, 41, 68
2, 21438, Control_c, 0, 64, 0
2, 21448, Control_c, 0, 64, 127
2, 21457, Note_on_c, 0, 56, 52
2, 21470, Note_on_c, 0, 56, 0
2, 21488, Note_on_c, 0, 41, 0
2, 21493, Control_c, 0, 64, 0
2, 21498, Note_on_c, 0, 60, 57
2, 21516, Note_on_c, 0, 60, 0
2, 21530, Note_on_c, 0, 63, 62
2, 21537, Note_on_c, 0, 64, 78
2, 21547, Note_on_c, 0, 63, 0
2, 21547, Control_c, 0, 64, 127
2, 21555, Note_on_c, 0, 64, 0
2, 21558, Control_c, 0, 64, 0
2, 21570, Note_on_c, 0, 67, 85
2, 21600, Note_on_c, 0, 67, 0
2, 21607, Note_on_c, 0, 64, 68
2, 21622, Note_on_c, 0, 64, 0
2, 21640, Note_on_c, 0, 65, 62
2, 21660, Control_c, 0, 64, 127
2, 21665, Note_on_c, 0, 65, 0
2, 21677, Note_on_c, 0, 67, 68
2, 21697, Note_on_c, 0, 67, 0
2, 21710, Note_on_c, 0, 68, 62
2, 21710, Control_c, 0, 64, 0
2, 21721, Note_on_c, 0, 68, 0
2, 21747, Note_on_c, 0, 72, 53
2, 21753, Control_c, 0, 64, 127
2, 21758, Note_on_c, 0, 72, 0
2, 21778, Note_on_c, 0, 76, 49
2, 21798, Note_on_c, 0, 76, 0
2, 21810, Note_on_c, 0, 79, 90
2, 21831, Control_c, 0, 64, 0
2, 21843, Note_on_c, 0, 64, 34
2, 21846, Note_on_c, 0, 77, 72
2, 21847, Note_on_c, 0, 60, 29
2, 21850, Note_on_c, 0, 56, 26
2, 21855, Note_on_c, 0, 79, 0
2, 21865, Control_c, 0, 64, 127
2, 21901, Note_on_c, 0, 64, 0
2, 21911, Note_on_c, 0, 56, 0
2, 21913, Note_on_c, 0, 60, 0
2, 21916, Note_on_c, 0, 77, 0
2, 21920, Note_on_c, 0, 72, 64
2, 21957, Note_on_c, 0, 72, 0
2, 21963, Note_on_c, 0, 68, 36
2, 21966, Note_on_c, 0, 53, 32
2, 21978, Note_on_c, 0, 53, 0
2, 21998, Note_on_c, 0, 68, 0
2, 22040, Note_on_c, 0, 65, 51
2, 22051, Note_on_c, 0, 48, 39
2, 22056, Note_on_c, 0, 65, 0
2, 22067, Note_on_c, 0, 48, 0
2, 22078, Control_c, 0, 64, 0
2, 22087, Note_on_c, 0, 67, 64
2, 22103, Note_on_c, 0, 67, 0
2, 22112, Note_on_c, 0, 68, 64
2, 22133, Note_on_c, 0, 67, 44
2, 22136, Control_c, 0, 64, 127
2, 22144, Note_on_c, 0, 68, 0
2, 22155, Note_on_c, 0, 67, 0
2, 22162, Note_on_c, 0, 65, 69
2, 22180, Note_on_c, 0, 65, 0
2, 22193, Note_on_c, 0, 56, 32
2, 22201, Note_on_c, 0, 56, 0
2, 22201, Control_c, 0, 64, 0
2, 22205, Note_on_c, 0, 60, 63
2, 22237, Control_c, 0, 64, 127
2, 22275, Note_on_c, 0, 60, 0
2, 22283, Note_on_c, 0, 56, 51
2, 22316, Control_c, 0, 64, 0
2, 22318, Note_on_c, 0, 56, 0
2, 22323, Note_on_c, 0, 38, 53
2, 22331, Note_on_c, 0, 55, 50
2, 22334, Note_on_c, 0, 38, 0
2, 22343, Note_on_c, 0, 55, 0
2, 22343, Control_c, 0, 64, 127
2, 22416, Note_on_c, 0, 65, 90
2, 22418, Note_on_c, 0, 68, 69
2, 22446, Note_on_c, 0, 60, 46
2, 22447, Note_on_c, 0, 54, 38
2, 22450, Note_on_c, 0, 58, 33
2, 22456, Note_on_c, 0, 60, 0
2, 22461, Control_c, 0, 64, 0
2, 22466, Note_on_c, 0, 58, 0
2, 22474, Note_on_c, 0, 54, 0
2, 22507, Control_c, 0, 64, 127
2, 22529, Note_on_c, 0, 65, 0
2, 22541, Note_on_c, 0, 50, 38
2, 22567, Control_c, 0, 64, 0
2, 22572, Note_on_c, 0, 50, 0
2, 22575, Note_on_c, 0, 67, 66
2, 22577, Note_on_c, 0, 60, 43
2, 22581, Note_on_c, 0, 68, 0
2, 22582, Note_on_c, 0, 54, 32
2, 22601, Control_c, 0, 64, 127
2, 22645, Note_on_c, 0, 67, 0
2, 22660, Note_on_c, 0, 54, 0
2, 22662, Note_on_c, 0, 60, 0
2, 22668, Note_on_c, 0, 50, 31
2, 22681, Note_on_c, 0, 50, 0
2, 22695, Control_c, 0, 64, 0
2, 22698, Note_on_c, 0, 44, 40
2, 22705, Note_on_c, 0, 59, 48
2, 22713, Control_c, 0, 64, 127
2, 22726, Note_on_c, 0, 44, 0
2, 22758, Note_on_c, 0, 59, 0
2, 22785, Note_on_c, 0, 58, 71
2, 22802, Note_on_c, 0, 59, 46
2, 22803, Note_on_c, 0, 58, 0
2, 22807, Control_c, 0, 64, 0
2, 22812, Note_on_c, 0, 37, 35
2, 22818, Note_on_c, 0, 44, 37
2, 22848, Control_c, 0, 64, 127
2, 22855, Note_on_c, 0, 37, 0
2, 22870, Note_on_c, 0, 59, 0
2, 22885, Note_on_c, 0, 46, 21
2, 22903, Note_on_c, 0, 46, 0
2, 22903, Note_on_c, 0, 59, 55
2, 22906, Note_on_c, 0, 67, 64
2, 22906, Note_on_c, 0, 63, 59
2, 22927, Control_c, 0, 64, 0
2, 22935, Note_on_c, 0, 53, 51
2, 22937, Control_c, 0, 64, 127
2, 22938, Note_on_c, 0, 59, 0
2, 22939, Note_on_c, 0, 44, 0
2, 22947, Note_on_c, 0, 67, 0
2, 22948, Note_on_c, 0, 63, 0
2, 22956, Note_on_c, 0, 53, 0
2, 23022, Note_on_c, 0, 67, 89
2, 23058, Note_on_c, 0, 63, 64
2, 23065, Note_on_c, 0, 59, 49
2, 23067, Note_on_c, 0, 56, 47
2, 23067, Control_c, 0, 64, 0
2, 23068, Note_on_c, 0, 53, 24
2, 23073, Note_on_c, 0, 63, 0
2, 23076, Note_on_c, 0, 59, 0
2, 23080, Note_on_c, 0, 53, 0
2, 23086, Control_c, 0, 64, 127
2, 23093, Note_on_c, 0, 56, 0
2, 23094, Note_on_c, 0, 67, 0
2, 23111, Note_on_c, 0, 70, 63
2, 23137, Note_on_c, 0, 70, 0
2, 23148, Note_on_c, 0, 72, 70
2, 23150, Note_on_c, 0, 44, 29
2, 23166, Note_on_c, 0, 44, 0
2, 23174, Note_on_c, 0, 72, 0
2, 23188, Note_on_c, 0, 74, 88
2, 23219, Note_on_c, 0, 74, 0
2, 23227, Note_on_c, 0, 71, 70
2, 23244, Note_on_c, 0, 71, 0
2, 23270, Note_on_c, 0, 72, 71
2, 23281, Control_c, 0, 64, 0
2, 23292, Note_on_c, 0, 72, 0
2, 23302, Note_on_c, 0, 36, 37
2, 23303, Note_on_c, 0, 52, 42
2, 23310, Note_on_c, 0, 76, 57
2, 23311, Note_on_c, 0, 43, 22
2, 23312, Note_on_c, 0, 36, 0
2, 23312, Control_c, 0, 64, 127
2, 23315, Note_on_c, 0, 52, 0
2, 23324, Note_on_c, 0, 43, 0
2, 23337, Note_on_c, 0, 76, 0
2, 23343, Note_on_c, 0, 79, 59
2, 23361, Note_on_c, 0, 79, 0
2, 23386, Note_on_c, 0, 83, 74
2, 23404, Note_on_c, 0, 83, 0
2, 23426, Note_on_c, 0, 86, 85
2, 23431, Note_on_c, 0, 64, 37
2, 23431, Note_on_c, 0, 62, 42
2, 23441, Note_on_c, 0, 64, 0
2, 23446, Note_on_c, 0, 62, 0
2, 23482, Note_on_c, 0, 86, 0
2, 23506, Note_on_c, 0, 82, 85
2, 23517, Note_on_c, 0, 46, 51
2, 23518, Note_on_c, 0, 39, 54
2, 23527, Control_c, 0, 64, 0
2, 23558, Control_c, 0, 64, 127
2, 23559, Note_on_c, 0, 39, 0
2, 23569, Note_on_c, 0, 46, 0
2, 23591, Note_on_c, 0, 79, 69
2, 23623, Note_on_c, 0, 79, 0
2, 23626, Note_on_c, 0, 82, 0
2, 23632, Note_on_c, 0, 74, 65
2, 23659, Note_on_c, 0, 74, 0
2, 23670, Note_on_c, 0, 67, 56
2, 23675, Note_on_c, 0, 63, 30
2, 23678, Note_on_c, 0, 60, 34
2, 23680, Note_on_c, 0, 58, 31
2, 23682, Note_on_c, 0, 63, 0
2, 23682, Note_on_c, 0, 67, 0
2, 23686, Note_on_c, 0, 60, 0
2, 23691, Note_on_c, 0, 58, 0
2, 23753, Note_on_c, 0, 72, 87
2, 23755, Note_on_c, 0, 51, 55
2, 23757, Note_on_c, 0, 44, 46
2, 23760, Control_c, 0, 64, 0
2, 23798, Control_c, 0, 64, 127
2, 23843, Note_on_c, 0, 70, 72
2, 23855, Note_on_c, 0, 72, 0
2, 23875, Note_on_c, 0, 65, 66
2, 23878, Note_on_c, 0, 44, 0
2, 23909, Note_on_c, 0, 70, 0
2, 23913, Note_on_c, 0, 65, 0
2, 23921, Note_on_c, 0, 60, 53
2, 23937, Note_on_c, 0, 51, 0
2, 23944, Note_on_c, 0, 60, 0
2, 23992, Note_on_c, 0, 70, 80
2, 23993, Note_on_c, 0, 63, 77
2, 23995, Note_on_c, 0, 59, 71
2, 23997, Note_on_c, 0, 37, 43
2, 24003, Control_c, 0, 64, 0
2, 24028, Note_on_c, 0, 37, 0
2, 24040, Control_c, 0, 64, 127
2, 24110, Note_on_c, 0, 54, 79
2, 24126, Note_on_c, 0, 59, 0
2, 24131, Note_on_c, 0, 63, 0
2, 24144, Note_on_c, 0, 70, 0
2, 24147, Control_c, 0, 64, 0
2, 24162, Note_on_c, 0, 59, 44
2, 24165, Control_c, 0, 64, 127
2, 24166, Note_on_c, 0, 54, 0
2, 24168, Note_on_c, 0, 63, 17
2, 24172, Note_on_c, 0, 68, 27
2, 24208, Note_on_c, 0, 59, 0
2, 24230, Note_on_c, 0, 63, 0
2, 24240, Note_on_c, 0, 54, 60
2, 24248, Note_on_c, 0, 68, 0
2, 24262, Note_on_c, 0, 54, 0
2, 24277, Control_c, 0, 64, 0
2, 24278, Note_on_c, 0, 70, 80
2, 24280, Note_on_c, 0, 66, 81
2, 24280, Note_on_c, 0, 61, 86
2, 24282, Note_on_c, 0, 55, 87
2, 24350, Control_c, 0, 64, 127
2, 24354, Note_on_c, 0, 70, 0
2, 24356, Note_on_c, 0, 66, 0
2, 24363, Note_on_c, 0, 54, 48
2, 24373, Note_on_c, 0, 61, 0
2, 24378, Note_on_c, 0, 55, 0
2, 24381, Note_on_c, 0, 54, 0
2, 24387, Note_on_c, 0, 53, 53
2, 24395, Note_on_c, 0, 53, 0
2, 24405, Control_c, 0, 64, 0
2, 24412, Note_on_c, 0, 52, 67
2, 24412, Note_on_c, 0, 58, 65
2, 24413, Note_on_c, 0, 63, 60
2, 24413, Note_on_c, 0, 67, 68
2, 24446, Control_c, 0, 64, 127
2, 24485, Note_on_c, 0, 58, 0
2, 24486, Note_on_c, 0, 63, 0
2, 24493, Note_on_c, 0, 67, 0
2, 24532, Note_on_c, 0, 52, 0
2, 24541, Note_on_c, 0, 63, 53
2, 24543, Note_on_c, 0, 55, 55
2, 24543, Note_on_c, 0, 58, 52
2, 24630, Note_on_c, 0, 48, 54
2, 24635, Note_on_c, 0, 55, 0
2, 24637, Note_on_c, 0, 48, 0
2, 24656, Note_on_c, 0, 58, 0
2, 24662, Note_on_c, 0, 63, 0
2, 24670, Control_c, 0, 64, 0
2, 24675, Note_on_c, 0, 53, 59
2, 24686, Control_c, 0, 64, 127
2, 24735, Note_on_c, 0, 53, 0
2, 24755, Note_on_c, 0, 52, 71
2, 24768, Control_c, 0, 64, 0
2, 24785, Note_on_c, 0, 52, 0
2, 24786, Note_on_c, 0, 36, 43
2, 24798, Note_on_c, 0, 36, 0
2, 24805, Control_c, 0, 64, 127
2, 24832, Note_on_c, 0, 60, 62
2, 24854, Note_on_c, 0, 60, 0
2, 24863, Note_on_c, 0, 61, 57
2, 24887, Note_on_c, 0, 63, 57
2, 24895, Note_on_c, 0, 61, 0
2, 24897, Note_on_c, 0, 63, 0
2, 24908, Note_on_c, 0, 64, 66
2, 24919, Note_on_c, 0, 64, 0
2, 24920, Control_c, 0, 64, 0
2, 24937, Note_on_c, 0, 66, 25
2, 24944, Note_on_c, 0, 66, 0
2, 24952, Note_on_c, 0, 67, 60
2, 24973, Note_on_c, 0, 67, 0
2, 24977, Note_on_c, 0, 69, 55
2, 24992, Note_on_c, 0, 69, 0
2, 24997, Control_c, 0, 64, 127
2, 24998, Note_on_c, 0, 70, 57
2, 25006, Note_on_c, 0, 70, 0
2, 25022, Note_on_c, 0, 72, 56
2, 25023, Control_c, 0, 64, 0
2, 25025, Note_on_c, 0, 63, 42
2, 25027, Note_on_c, 0, 52, 41
2, 25030, Note_on_c, 0, 58, 36
2, 25038, Note_on_c, 0, 52, 0
2, 25038, Note_on_c, 0, 63, 0
2, 25039, Note_on_c, 0, 72, 0
2, 25047, Note_on_c, 0, 73, 47
2, 25048, Note_on_c, 0, 58, 0
2, 25062, Note_on_c, 0, 73, 0
2, 25082, Note_on_c, 0, 76, 60
2, 25094, Note_on_c, 0, 76, 0
2, 25107, Note_on_c, 0, 78, 46
2, 25115, Note_on_c, 0, 78, 0
2, 25133, Note_on_c, 0, 79, 44
2, 25145, Note_on_c, 0, 58, 40
2, 25147, Note_on_c, 0, 48, 47
2, 25149, Note_on_c, 0, 79, 0
2, 25160, Note_on_c, 0, 48, 0
2, 25160, Note_on_c, 0, 58, 0
2, 25163, Note_on_c, 0, 79, 14
2, 25176, Note_on_c, 0, 79, 0
2, 25208, Control_c, 0, 64, 127
2, 25218, Note_on_c, 0, 46, 19
2, 25234, Note_on_c, 0, 46, 0
2, 25235, Note_on_c, 0, 84, 79
2, 25261, Control_c, 0, 64, 0
2, 25266, Note_on_c, 0, 41, 36
2, 25272, Note_on_c, 0, 80, 59
2, 25276, Note_on_c, 0, 41, 0
2, 25281, Note_on_c, 0, 84, 0
2, 25305, Control_c, 0, 64, 127
2, 25332, Note_on_c, 0, 80, 0
2, 25387, Note_on_c, 0, 56, 44
2, 25387, Note_on_c, 0, 64, 55
2, 25390, Note_on_c, 0, 60, 53
2, 25395, Note_on_c, 0, 64, 0
2, 25398, Note_on_c, 0, 60, 0
2, 25401, Note_on_c, 0, 53, 29
2, 25403, Control_c, 0, 64, 0
2, 25410, Note_on_c, 0, 56, 0
2, 25411, Note_on_c, 0, 53, 0
2, 25418, Note_on_c, 0, 79, 75
2, 25434, Note_on_c, 0, 79, 0
2, 25437, Note_on_c, 0, 80, 56
2, 25453, Note_on_c, 0, 79, 49
2, 25465, Note_on_c, 0, 80, 0
2, 25466, Control_c, 0, 64, 127
2, 25474, Note_on_c, 0, 79, 0
2, 25481, Note_on_c, 0, 77, 60
2, 25492, Note_on_c, 0, 77, 0
2, 25512, Note_on_c, 0, 56, 46
2, 25513, Note_on_c, 0, 72, 63
2, 25513, Control_c, 0, 64, 0
2, 25516, Note_on_c, 0, 48, 53
2, 25531, Note_on_c, 0, 48, 0
2, 25532, Note_on_c, 0, 56, 0
2, 25550, Control_c, 0, 64, 127
2, 25590, Note_on_c, 0, 72, 0
2, 25630, Note_on_c, 0, 56, 37
2, 25632, Note_on_c, 0, 60, 42
2, 25632, Note_on_c, 0, 64, 25
2, 25639, Note_on_c, 0, 64, 0
2, 25640, Note_on_c, 0, 60, 0
2, 25643, Control_c, 0, 64, 0
2, 25645, Note_on_c, 0, 67, 28
2, 25653, Note_on_c, 0, 56, 0
2, 25681, Note_on_c, 0, 67, 0
2, 25700, Control_c, 0, 64, 127
2, 25712, Note_on_c, 0, 70, 84
2, 25740, Control_c, 0, 64, 0
2, 25744, Note_on_c, 0, 70, 0
2, 25751, Note_on_c, 0, 36, 40
2, 25755, Note_on_c, 0, 38, 35
2, 25759, Note_on_c, 0, 36, 0
2, 25763, Note_on_c, 0, 68, 70
2, 25765, Note_on_c, 0, 38, 0
2, 25779, Note_on_c, 0, 68, 0
2, 25790, Note_on_c, 0, 70, 60
2, 25807, Note_on_c, 0, 68, 52
2, 25820, Note_on_c, 0, 70, 0
2, 25833, Control_c, 0, 64, 127
2, 25834, Note_on_c, 0, 68, 0
2, 25836, Note_on_c, 0, 67, 61
2, 25854, Note_on_c, 0, 67, 0
2, 25876, Note_on_c, 0, 65, 71
2, 25878, Note_on_c, 0, 62, 45
2, 25885, Note_on_c, 0, 60, 38
2, 25886, Note_on_c, 0, 56, 33
2, 25889, Note_on_c, 0, 62, 0
2, 25895, Note_on_c, 0, 53, 36
2, 25896, Note_on_c, 0, 60, 0
2, 25898, Control_c, 0, 64, 0
2, 25911, Note_on_c, 0, 56, 0
2, 25912, Note_on_c, 0, 53, 0
2, 25961, Note_on_c, 0, 65, 0
2, 25961, Note_on_c, 0, 64, 71
2, 25962, Control_c, 0, 64, 127
2, 25976, Control_c, 0, 64, 0
2, 25993, Note_on_c, 0, 64, 0
2, 25996, Note_on_c, 0, 41, 39
2, 26015, Note_on_c, 0, 52, 56
2, 26025, Note_on_c, 0, 67, 53
2, 26042, Note_on_c, 0, 52, 0
2, 26069, Note_on_c, 0, 41, 0
2, 26072, Note_on_c, 0, 67, 0
2, 26082, Control_c, 0, 64, 127
2, 26090, Note_on_c, 0, 64, 77
2, 26106, Control_c, 0, 64, 0
2, 26121, Note_on_c, 0, 51, 42
2, 26122, Note_on_c, 0, 64, 0
2, 26136, Note_on_c, 0, 60, 43
2, 26145, Control_c, 0, 64, 127
2, 26184, Note_on_c, 0, 51, 0
2, 26200, Note_on_c, 0, 46, 35
2, 26202, Note_on_c, 0, 56, 54
2, 26207, Note_on_c, 0, 60, 0
2, 26238, Note_on_c, 0, 56, 0
2, 26238, Control_c, 0, 64, 0
2, 26240, Note_on_c, 0, 46, 0
2, 26247, Note_on_c, 0, 50, 51
2, 26252, Note_on_c, 0, 55, 47
2, 26265, Note_on_c, 0, 50, 0
2, 26283, Note_on_c, 0, 55, 0
2, 26291, Note_on_c, 0, 56, 58
2, 26311, Control_c, 0, 64, 127
2, 26314, Note_on_c, 0, 56, 0
2, 26331, Note_on_c, 0, 60, 68
2, 26358, Note_on_c, 0, 60, 0
2, 26358, Note_on_c, 0, 50, 24
2, 26369, Note_on_c, 0, 50, 0
2, 26371, Control_c, 0, 64, 0
2, 26376, Note_on_c, 0, 64, 51
2, 26403, Note_on_c, 0, 64, 0
2, 26418, Note_on_c, 0, 67, 80
2, 26440, Control_c, 0, 64, 127
2, 26448, Note_on_c, 0, 67, 0
2, 26453, Note_on_c, 0, 64, 68
2, 26471, Note_on_c, 0, 60, 38
2, 26476, Note_on_c, 0, 54, 28
2, 26478, Control_c, 0, 64, 0
2, 26480, Note_on_c, 0, 64, 0
2, 26482, Note_on_c, 0, 60, 0
2, 26488, Note_on_c, 0, 54, 0
2, 26496, Note_on_c, 0, 65, 55
2, 26535, Note_on_c, 0, 67, 69
2, 26536, Note_on_c, 0, 65, 0
2, 26560, Note_on_c, 0, 67, 0
2, 26561, Control_c, 0, 64, 127
2, 26577, Note_on_c, 0, 68, 82
2, 26587, Control_c, 0, 64, 0
2, 26591, Note_on_c, 0, 56, 50
2, 26593, Note_on_c, 0, 60, 40
2, 26601, Note_on_c, 0, 50, 30
2, 26603, Note_on_c, 0, 60, 0
2, 26604, Note_on_c, 0, 68, 0
2, 26614, Note_on_c, 0, 56, 0
2, 26614, Note_on_c, 0, 50, 0
2, 26617, Note_on_c, 0, 70, 74
2, 26672, Note_on_c, 0, 70, 0
2, 26686, Note_on_c, 0, 71, 71
2, 26688, Control_c, 0, 64, 127
2, 26690, Note_on_c, 0, 69, 60
2, 26698, Note_on_c, 0, 69, 0
2, 26698, Note_on_c, 0, 43, 71
2, 26705, Control_c, 0, 64, 0
2, 26724, Note_on_c, 0, 43, 0
2, 26728, Note_on_c, 0, 71, 0
2, 26742, Note_on_c, 0, 73, 53
2, 26785, Control_c, 0, 64, 127
2, 26799, Note_on_c, 0, 73, 0
2, 26807, Note_on_c, 0, 74, 83
2, 26816, Note_on_c, 0, 64, 68
2, 26817, Note_on_c, 0, 53, 53
2, 26818, Note_on_c, 0, 59, 55
2, 26822, Note_on_c, 0, 74, 0
2, 26838, Note_on_c, 0, 64, 0
2, 26873, Note_on_c, 0, 59, 0
2, 26886, Control_c, 0, 64, 0
2, 26890, Note_on_c, 0, 67, 73
2, 26890, Note_on_c, 0, 71, 77
2, 26891, Note_on_c, 0, 62, 55
2, 26892, Note_on_c, 0, 53, 0
2, 26898, Note_on_c, 0, 64, 36
2, 26902, Note_on_c, 0, 67, 0
2, 26902, Note_on_c, 0, 62, 0
2, 26908, Note_on_c, 0, 64, 0
2, 26911, Note_on_c, 0, 71, 0
2, 26915, Control_c, 0, 64, 127
2, 26928, Note_on_c, 0, 67, 58
2, 26928, Note_on_c, 0, 62, 48
2, 26928, Note_on_c, 0, 71, 69
2, 26933, Note_on_c, 0, 56, 47
2, 26938, Note_on_c, 0, 62, 0
2, 26945, Note_on_c, 0, 67, 0
2, 26950, Note_on_c, 0, 71, 0
2, 26958, Control_c, 0, 64, 0
2, 26971, Note_on_c, 0, 74, 79
2, 26972, Note_on_c, 0, 65, 82
2, 26972, Note_on_c, 0, 70, 69
2, 26975, Note_on_c, 0, 59, 70
2, 26975, Note_on_c, 0, 68, 43
2, 26980, Note_on_c, 0, 72, 36
2, 26983, Note_on_c, 0, 68, 0
2, 26990, Note_on_c, 0, 65, 0
2, 26990, Note_on_c, 0, 72, 0
2, 26999, Note_on_c, 0, 70, 0
2, 27000, Control_c, 0, 64, 127
2, 27004, Note_on_c, 0, 74, 0
2, 27042, Note_on_c, 0, 59, 0
2, 27048, Note_on_c, 0, 77, 81
2, 27050, Note_on_c, 0, 68, 83
2, 27051, Note_on_c, 0, 62, 79
2, 27051, Note_on_c, 0, 74, 73
2, 27052, Control_c, 0, 64, 0
2, 27069, Note_on_c, 0, 56, 0
2, 27072, Note_on_c, 0, 74, 0
2, 27082, Note_on_c, 0, 68, 0
2, 27088, Note_on_c, 0, 77, 0
2, 27100, Control_c, 0, 64, 127
2, 27101, Note_on_c, 0, 59, 50
2, 27102, Note_on_c, 0, 62, 0
2, 27161, Note_on_c, 0, 59, 0
2, 27171, Note_on_c, 0, 74, 65
2, 27173, Note_on_c, 0, 64, 70
2, 27173, Note_on_c, 0, 69, 75
2, 27175, Note_on_c, 0, 57, 59
2, 27177, Control_c, 0, 64, 0
2, 27220, Note_on_c, 0, 69, 0
2, 27221, Control_c, 0, 64, 127
2, 27227, Note_on_c, 0, 74, 0
2, 27249, Note_on_c, 0, 64, 0
2, 27287, Note_on_c, 0, 57, 0
2, 27292, Note_on_c, 0, 72, 47
2, 27293, Note_on_c, 0, 62, 66
2, 27295, Control_c, 0, 64, 0
2, 27295, Note_on_c, 0, 67, 61
2, 27296, Note_on_c, 0, 55, 60
2, 27322, Note_on_c, 0, 72, 0
2, 27328, Note_on_c, 0, 67, 0
2, 27331, Control_c, 0, 64, 127
2, 27334, Note_on_c, 0, 55, 0
2, 27341, Note_on_c, 0, 62, 0
2, 27411, Note_on_c, 0, 67, 56
2, 27412, Note_on_c, 0, 62, 55
2, 27413, Note_on_c, 0, 57, 51
2, 27415, Note_on_c, 0, 52, 54
2, 27417, Control_c, 0, 64, 0
2, 27458, Control_c, 0, 64, 127
2, 27469, Note_on_c, 0, 67, 0
2, 27479, Note_on_c, 0, 57, 0
2, 27480, Note_on_c, 0, 62, 0
2, 27522, Note_on_c, 0, 52, 0
2, 27530, Note_on_c, 0, 66, 35
2, 27531, Note_on_c, 0, 56, 39
2, 27532, Note_on_c, 0, 50, 46
2, 27533, Note_on_c, 0, 61, 39
2, 27548, Note_on_c, 0, 66, 0
2, 27554, Note_on_c, 0, 56, 0
2, 27555, Note_on_c, 0, 50, 0
2, 27555, Control_c, 0, 64, 0
2, 27560, Note_on_c, 0, 61, 0
2, 27575, Note_on_c, 0, 62, 48
2, 27577, Note_on_c, 0, 67, 55
2, 27580, Note_on_c, 0, 57, 42
2, 27583, Control_c, 0, 64, 127
2, 27656, Note_on_c, 0, 57, 0
2, 27658, Note_on_c, 0, 36, 64
2, 27676, Note_on_c, 0, 62, 0
2, 27677, Control_c, 0, 64, 0
2, 27696, Note_on_c, 0, 36, 0
2, 27701, Note_on_c, 0, 43, 58
2, 27712, Note_on_c, 0, 67, 0
2, 27718, Control_c, 0, 64, 127
2, 27818, Note_on_c, 0, 43, 0
2, 27831, Note_on_c, 0, 53, 79
2, 27835, Note_on_c, 0, 38, 62
2, 27836, Control_c, 0, 64, 0
2, 27911, Control_c, 0, 64, 127
2, 27921, Control_c, 0, 64, 0
2, 27941, Note_on_c, 0, 53, 0
2, 27951, Note_on_c, 0, 38, 0
2, 27958, Note_on_c, 0, 39, 42
2, 27963, Note_on_c, 0, 54, 46
2, 27971, Control_c, 0, 64, 127
2, 28029, Note_on_c, 0, 39, 0
2, 28040, Note_on_c, 0, 54, 0
2, 28046, Note_on_c, 0, 55, 45
2, 28059, Note_on_c, 0, 55, 0
2, 28072, Note_on_c, 0, 40, 37
2, 28094, Note_on_c, 0, 40, 0
2, 28107, Note_on_c, 0, 74, 83
2, 28107, Note_on_c, 0, 67, 78
2, 28143, Note_on_c, 0, 74, 0
2, 28155, Note_on_c, 0, 67, 0
2, 28181, Note_on_c, 0, 74, 83
2, 28181, Note_on_c, 0, 67, 71
2, 28183, Note_on_c, 0, 63, 72
2, 28213, Control_c, 0, 64, 0
2, 28214, Note_on_c, 0, 74, 0
2, 28218, Note_on_c, 0, 63, 0
2, 28224, Note_on_c, 0, 67, 0
2, 28232, Note_on_c, 0, 53, 34
2, 28250, Note_on_c, 0, 63, 60
2, 28251, Note_on_c, 0, 75, 69
2, 28256, Note_on_c, 0, 67, 58
2, 28262, Control_c, 0, 64, 127
2, 28277, Note_on_c, 0, 53, 0
2, 28301, Note_on_c, 0, 75, 0
2, 28302, Note_on_c, 0, 63, 0
2, 28308, Note_on_c, 0, 67, 0
2, 28320, Note_on_c, 0, 74, 80
2, 28320, Note_on_c, 0, 63, 46
2, 28321, Note_on_c, 0, 67, 51
2, 28340, Note_on_c, 0, 48, 27
2, 28341, Control_c, 0, 64, 0
2, 28352, Note_on_c, 0, 63, 0
2, 28361, Note_on_c, 0, 74, 0
2, 28361, Note_on_c, 0, 48, 0
2, 28364, Note_on_c, 0, 67, 0
2, 28378, Note_on_c, 0, 72, 55
2, 28382, Control_c, 0, 64, 127
2, 28385, Note_on_c, 0, 67, 30
2, 28427, Note_on_c, 0, 67, 0
2, 28436, Note_on_c, 0, 72, 0
2, 28445, Note_on_c, 0, 55, 70
2, 28478, Control_c, 0, 64, 0
2, 28481, Note_on_c, 0, 55, 0
2, 28493, Note_on_c, 0, 63, 37
2, 28497, Note_on_c, 0, 72, 57
2, 28497, Note_on_c, 0, 67, 47
2, 28505, Control_c, 0, 64, 127
2, 28572, Note_on_c, 0, 41, 67
2, 28583, Note_on_c, 0, 67, 0
2, 28591, Note_on_c, 0, 63, 0
2, 28594, Note_on_c, 0, 41, 0
2, 28608, Control_c, 0, 64, 0
2, 28613, Control_c, 0, 64, 127
2, 28626, Note_on_c, 0, 67, 36
2, 28701, Note_on_c, 0, 57, 74
2, 28712, Note_on_c, 0, 67, 0
2, 28721, Note_on_c, 0, 57, 0
2, 28728, Control_c, 0, 64, 0
2, 28755, Note_on_c, 0, 63, 34
2, 28801, Control_c, 0, 64, 127
2, 28825, Note_on_c, 0, 41, 80
2, 28832, Control_c, 0, 64, 0
2, 28835, Note_on_c, 0, 63, 0
2, 28860, Note_on_c, 0, 41, 0
2, 28873, Control_c, 0, 64, 127
2, 28875, Note_on_c, 0, 72, 0
2, 28880, Note_on_c, 0, 63, 46
2, 28913, Note_on_c, 0, 63, 0
2, 28948, Note_on_c, 0, 75, 59
2, 28951, Note_on_c, 0, 63, 64
2, 28953, Note_on_c, 0, 57, 74
2, 28953, Note_on_c, 0, 72, 63
2, 28953, Note_on_c, 0, 69, 68
2, 28962, Control_c, 0, 64, 0
2, 29001, Note_on_c, 0, 57, 0
2, 29003, Control_c, 0, 64, 127
2, 29081, Note_on_c, 0, 72, 0
2, 29081, Note_on_c, 0, 41, 74
2, 29084, Note_on_c, 0, 69, 0
2, 29088, Note_on_c, 0, 75, 0
2, 29093, Note_on_c, 0, 63, 0
2, 29111, Control_c, 0, 64, 0
2, 29117, Note_on_c, 0, 41, 0
2, 29132, Note_on_c, 0, 75, 55
2, 29133, Note_on_c, 0, 63, 62
2, 29136, Control_c, 0, 64, 127
2, 29161, Note_on_c, 0, 63, 0
2, 29164, Note_on_c, 0, 75, 0
2, 29207, Note_on_c, 0, 74, 77
2, 29208, Note_on_c, 0, 69, 74
2, 29210, Note_on_c, 0, 62, 70
2, 29210, Note_on_c, 0, 46, 53
2, 29213, Note_on_c, 0, 53, 51
2, 29222, Control_c, 0, 64, 0
2, 29266, Control_c, 0, 64, 127
2, 29291, Note_on_c, 0, 46, 0
2, 29311, Note_on_c, 0, 53, 0
2, 29325, Note_on_c, 0, 62, 0
2, 29328, Note_on_c, 0, 46, 55
2, 29344, Note_on_c, 0, 69, 0
2, 29344, Note_on_c, 0, 74, 0
2, 29382, Note_on_c, 0, 53, 57
2, 29434, Note_on_c, 0, 46, 0
2, 29443, Note_on_c, 0, 53, 0
2, 29460, Note_on_c, 0, 46, 50
2, 29463, Note_on_c, 0, 54, 71
2, 29503, Control_c, 0, 64, 0
2, 29538, Note_on_c, 0, 69, 63
2, 29553, Note_on_c, 0, 69, 0
2, 29573, Control_c, 0, 64, 127
2, 29580, Note_on_c, 0, 46, 0
2, 29588, Note_on_c, 0, 54, 0
2, 29590, Note_on_c, 0, 70, 77
2, 29617, Note_on_c, 0, 70, 0
2, 29625, Note_on_c, 0, 54, 38
2, 29627, Note_on_c, 0, 46, 40
2, 29631, Control_c, 0, 64, 0
2, 29642, Note_on_c, 0, 74, 61
2, 29670, Note_on_c, 0, 74, 0
2, 29685, Note_on_c, 0, 46, 0
2, 29697, Note_on_c, 0, 54, 0
2, 29701, Control_c, 0, 64, 127
2, 29707, Note_on_c, 0, 46, 59
2, 29708, Note_on_c, 0, 77, 80
2, 29710, Note_on_c, 0, 55, 83
2, 29711, Control_c, 0, 64, 0
2, 29736, Note_on_c, 0, 77, 0
2, 29761, Note_on_c, 0, 84, 82
2, 29813, Note_on_c, 0, 84, 0
2, 29813, Note_on_c, 0, 46, 0
2, 29818, Control_c, 0, 64, 127
2, 29832, Note_on_c, 0, 46, 50
2, 29835, Note_on_c, 0, 82, 77
2, 29845, Control_c, 0, 64, 0
2, 29867, Note_on_c, 0, 82, 0
2, 29891, Note_on_c, 0, 81, 68
2, 29893, Note_on_c, 0, 46, 0
2, 29930, Control_c, 0, 64, 127
2, 29934, Note_on_c, 0, 81, 0
2, 29941, Note_on_c, 0, 55, 0
2, 29952, Note_on_c, 0, 77, 79
2, 29953, Note_on_c, 0, 46, 72
2, 29968, Control_c, 0, 64, 0
2, 29988, Note_on_c, 0, 77, 0
2, 30001, Note_on_c, 0, 54, 51
2, 30010, Note_on_c, 0, 74, 36
2, 30018, Control_c, 0, 64, 127
2, 30053, Note_on_c, 0, 46, 0
2, 30061, Note_on_c, 0, 74, 0
2, 30078, Note_on_c, 0, 70, 57
2, 30081, Note_on_c, 0, 46, 53
2, 30107, Control_c, 0, 64, 0
2, 30110, Note_on_c, 0, 70, 0
2, 30130, Control_c, 0, 64, 127
2, 30138, Note_on_c, 0, 69, 17
2, 30163, Note_on_c, 0, 46, 0
2, 30178, Note_on_c, 0, 69, 0
2, 30199, Note_on_c, 0, 54, 0
2, 30203, Note_on_c, 0, 51, 46
2, 30226, Control_c, 0, 64, 0
2, 30229, Note_on_c, 0, 51, 0
2, 30242, Note_on_c, 0, 72, 51
2, 30245, Note_on_c, 0, 60, 48
2, 30246, Note_on_c, 0, 44, 45
2, 30252, Control_c, 0, 64, 127
2, 30257, Note_on_c, 0, 60, 0
2, 30258, Note_on_c, 0, 44, 0
2, 30280, Note_on_c, 0, 72, 0
2, 30367, Note_on_c, 0, 65, 65
2, 30373, Note_on_c, 0, 60, 44
2, 30376, Note_on_c, 0, 54, 25
2, 30377, Note_on_c, 0, 65, 0
2, 30378, Note_on_c, 0, 58, 27
2, 30383, Note_on_c, 0, 60, 0
2, 30388, Control_c, 0, 64, 0
2, 30394, Note_on_c, 0, 58, 0
2, 30394, Note_on_c, 0, 54, 0
2, 30425, Control_c, 0, 64, 127
2, 30455, Note_on_c, 0, 92, 74
2, 30456, Note_on_c, 0, 80, 72
2, 30457, Note_on_c, 0, 87, 79
2, 30466, Control_c, 0, 64, 0
2, 30485, Note_on_c, 0, 44, 46
2, 30486, Note_on_c, 0, 54, 45
2, 30497, Note_on_c, 0, 44, 0
2, 30498, Note_on_c, 0, 80, 0
2, 30502, Control_c, 0, 64, 127
2, 30507, Note_on_c, 0, 92, 0
2, 30508, Note_on_c, 0, 87, 0
2, 30509, Note_on_c, 0, 54, 0
2, 30527, Note_on_c, 0, 92, 62
2, 30531, Note_on_c, 0, 87, 58
2, 30531, Note_on_c, 0, 80, 60
2, 30577, Note_on_c, 0, 92, 0
2, 30581, Note_on_c, 0, 87, 0
2, 30583, Note_on_c, 0, 80, 0
2, 30615, Control_c, 0, 64, 0
2, 30617, Note_on_c, 0, 45, 49
2, 30617, Note_on_c, 0, 55, 53
2, 30640, Control_c, 0, 64, 127
2, 30684, Note_on_c, 0, 45, 0
2, 30693, Note_on_c, 0, 55, 0
2, 30736, Control_c, 0, 64, 0
2, 30743, Note_on_c, 0, 44, 56
2, 30745, Note_on_c, 0, 54, 54
2, 30765, Note_on_c, 0, 44, 0
2, 30766, Note_on_c, 0, 54, 0
2, 30767, Control_c, 0, 64, 127
2, 30867, Control_c, 0, 64, 0
2, 30872, Note_on_c, 0, 68, 84
2, 30873, Note_on_c, 0, 72, 82
2, 30875, Note_on_c, 0, 60, 73
2, 30875, Note_on_c, 0, 64, 91
2, 30876, Note_on_c, 0, 54, 67
2, 30895, Note_on_c, 0, 60, 0
2, 30903, Control_c, 0, 64, 127
2, 30909, Note_on_c, 0, 54, 0
2, 30957, Note_on_c, 0, 64, 0
2, 30962, Note_on_c, 0, 68, 0
2, 30967, Note_on_c, 0, 38, 74
2, 30981, Control_c, 0, 64, 0
2, 30989, Note_on_c, 0, 72, 0
2, 30992, Note_on_c, 0, 38, 0
2, 31010, Control_c, 0, 64, 127
2, 31071, Note_on_c, 0, 68, 73
2, 31072, Note_on_c, 0, 64, 83
2, 31072, Note_on_c, 0, 72, 74
2, 31075, Note_on_c, 0, 60, 74
2, 31083, Note_on_c, 0, 54, 50
2, 31087, Note_on_c, 0, 58, 33
2, 31137, Note_on_c, 0, 72, 0
2, 31138, Note_on_c, 0, 58, 0
2, 31140, Note_on_c, 0, 54, 0
2, 31143, Note_on_c, 0, 60, 0
2, 31146, Note_on_c, 0, 68, 0
2, 31155, Note_on_c, 0, 64, 0
2, 31161, Control_c, 0, 64, 0
2, 31176, Note_on_c, 0, 70, 77
2, 31178, Control_c, 0, 64, 127
2, 31214, Note_on_c, 0, 68, 67
2, 31216, Note_on_c, 0, 70, 0
2, 31251, Note_on_c, 0, 51, 21
2, 31252, Note_on_c, 0, 68, 0
2, 31260, Control_c, 0, 64, 0
2, 31261, Note_on_c, 0, 51, 0
2, 31265, Note_on_c, 0, 67, 76
2, 31272, Note_on_c, 0, 60, 51
2, 31277, Note_on_c, 0, 55, 61
2, 31333, Note_on_c, 0, 55, 0
2, 31346, Note_on_c, 0, 43, 54
2, 31395, Control_c, 0, 64, 127
2, 31443, Note_on_c, 0, 43, 0
2, 31472, Note_on_c, 0, 55, 85
2, 31506, Control_c, 0, 64, 0
2, 31548, Control_c, 0, 64, 127
2, 31558, Note_on_c, 0, 50, 66
2, 31562, Note_on_c, 0, 55, 0
2, 31568, Note_on_c, 0, 60, 0
2, 31580, Note_on_c, 0, 50, 0
2, 31597, Note_on_c, 0, 43, 71
2, 31603, Control_c, 0, 64, 0
2, 31618, Note_on_c, 0, 67, 0
2, 31640, Note_on_c, 0, 60, 65
2, 31642, Control_c, 0, 64, 127
2, 31642, Note_on_c, 0, 57, 55
2, 31643, Note_on_c, 0, 43, 0
2, 31647, Note_on_c, 0, 55, 74
2, 31660, Note_on_c, 0, 57, 0
2, 31663, Note_on_c, 0, 55, 0
2, 31666, Note_on_c, 0, 60, 0
2, 31730, Note_on_c, 0, 63, 77
2, 31730, Note_on_c, 0, 67, 71
2, 31730, Note_on_c, 0, 59, 67
2, 31731, Note_on_c, 0, 53, 71
2, 31731, Note_on_c, 0, 70, 70
2, 31731, Note_on_c, 0, 58, 76
2, 31738, Control_c, 0, 64, 0
2, 31787, Control_c, 0, 64, 127
2, 31827, Note_on_c, 0, 59, 0
2, 31834, Note_on_c, 0, 53, 0
2, 31911, Note_on_c, 0, 43, 47
2, 31922, Note_on_c, 0, 43, 0
2, 31940, Note_on_c, 0, 67, 0
2, 31950, Note_on_c, 0, 63, 0
2, 31957, Note_on_c, 0, 58, 0
2, 31982, Note_on_c, 0, 70, 0
2, 31998, Note_on_c, 0, 63, 56
2, 31998, Note_on_c, 0, 58, 50
2, 31998, Note_on_c, 0, 59, 60
2, 32000, Note_on_c, 0, 67, 51
2, 32001, Note_on_c, 0, 53, 52
2, 32038, Note_on_c, 0, 58, 0
2, 32045, Note_on_c, 0, 67, 0
2, 32048, Note_on_c, 0, 63, 0
2, 32131, Note_on_c, 0, 72, 89
2, 32151, Note_on_c, 0, 59, 0
2, 32162, Note_on_c, 0, 53, 0
2, 32163, Note_on_c, 0, 72, 0
2, 32182, Note_on_c, 0, 69, 42
2, 32187, Control_c, 0, 64, 0
2, 32197, Note_on_c, 0, 69, 0
2, 32217, Note_on_c, 0, 70, 73
2, 32233, Control_c, 0, 64, 127
2, 32234, Note_on_c, 0, 70, 0
2, 32252, Note_on_c, 0, 72, 80
2, 32277, Note_on_c, 0, 72, 0
2, 32281, Control_c, 0, 64, 0
2, 32297, Note_on_c, 0, 43, 40
2, 32306, Note_on_c, 0, 76, 55
2, 32306, Note_on_c, 0, 77, 57
2, 32308, Note_on_c, 0, 43, 0
2, 32312, Control_c, 0, 64, 127
2, 32361, Note_on_c, 0, 76, 0
2, 32363, Note_on_c, 0, 77, 0
2, 32385, Note_on_c, 0, 84, 87
2, 32420, Note_on_c, 0, 84, 0
2, 32422, Note_on_c, 0, 61, 37
2, 32425, Note_on_c, 0, 58, 30
2, 32432, Note_on_c, 0, 61, 0
2, 32436, Control_c, 0, 64, 0
2, 32448, Note_on_c, 0, 58, 0
2, 32461, Note_on_c, 0, 82, 56
2, 32476, Control_c, 0, 64, 127
2, 32511, Note_on_c, 0, 73, 64
2, 32538, Control_c, 0, 64, 0
2, 32546, Note_on_c, 0, 82, 0
2, 32549, Note_on_c, 0, 73, 0
2, 32561, Note_on_c, 0, 50, 33
2, 32561, Note_on_c, 0, 72, 54
2, 32572, Control_c, 0, 64, 127
2, 32601, Note_on_c, 0, 50, 0
2, 32609, Note_on_c, 0, 72, 0
2, 32640, Note_on_c, 0, 43, 55
2, 32668, Note_on_c, 0, 43, 0
2, 32673, Control_c, 0, 64, 0
2, 32686, Note_on_c, 0, 37, 47
2, 32692, Control_c, 0, 64, 127
2, 32771, Note_on_c, 0, 37, 0
2, 32796, Note_on_c, 0, 36, 71
2, 32816, Note_on_c, 0, 36, 0
2, 32823, Note_on_c, 0, 60, 65
2, 32830, Control_c, 0, 64, 0
2, 32855, Note_on_c, 0, 61, 44
2, 32859, Note_on_c, 0, 60, 0
2, 32883, Note_on_c, 0, 63, 57
2, 32896, Note_on_c, 0, 61, 0
2, 32902, Control_c, 0, 64, 127
2, 32918, Note_on_c, 0, 63, 0
2, 32918, Note_on_c, 0, 64, 72
2, 32926, Note_on_c, 0, 58, 51
2, 32936, Control_c, 0, 64, 0
2, 32938, Note_on_c, 0, 64, 0
2, 32955, Note_on_c, 0, 63, 46
2, 32959, Note_on_c, 0, 58, 0
2, 32975, Note_on_c, 0, 63, 0
2, 32977, Note_on_c, 0, 64, 49
2, 33005, Note_on_c, 0, 66, 55
2, 33008, Note_on_c, 0, 64, 0
2, 33008, Control_c, 0, 64, 127
2, 33031, Note_on_c, 0, 66, 0
2, 33033, Note_on_c, 0, 67, 67
2, 33041, Note_on_c, 0, 61, 46
2, 33047, Note_on_c, 0, 58, 37
2, 33048, Note_on_c, 0, 52, 32
2, 33051, Control_c, 0, 64, 0
2, 33056, Note_on_c, 0, 67, 0
2, 33061, Note_on_c, 0, 52, 0
2, 33063, Note_on_c, 0, 61, 0
2, 33072, Note_on_c, 0, 58, 0
2, 33082, Note_on_c, 0, 67, 30
2, 33118, Control_c, 0, 64, 127
2, 33120, Note_on_c, 0, 69, 54
2, 33122, Note_on_c, 0, 67, 0
2, 33138, Note_on_c, 0, 69, 0
2, 33147, Note_on_c, 0, 71, 62
2, 33167, Note_on_c, 0, 58, 46
2, 33170, Note_on_c, 0, 48, 47
2, 33173, Note_on_c, 0, 71, 0
2, 33173, Control_c, 0, 64, 0
2, 33179, Note_on_c, 0, 58, 0
2, 33181, Note_on_c, 0, 48, 0
2, 33188, Note_on_c, 0, 69, 41
2, 33205, Note_on_c, 0, 69, 0
2, 33206, Note_on_c, 0, 70, 48
2, 33210, Control_c, 0, 64, 127
2, 33241, Note_on_c, 0, 70, 0
2, 33242, Note_on_c, 0, 72, 44
2, 33262, Note_on_c, 0, 72, 0
2, 33271, Note_on_c, 0, 74, 70
2, 33288, Note_on_c, 0, 74, 0
2, 33298, Note_on_c, 0, 48, 57
2, 33301, Note_on_c, 0, 41, 57
2, 33303, Control_c, 0, 64, 0
2, 33305, Note_on_c, 0, 79, 84
2, 33318, Note_on_c, 0, 41, 0
2, 33328, Note_on_c, 0, 48, 0
2, 33352, Control_c, 0, 64, 127
2, 33373, Note_on_c, 0, 79, 0
2, 33381, Note_on_c, 0, 77, 75
2, 33412, Note_on_c, 0, 64, 20
2, 33415, Note_on_c, 0, 60, 27
2, 33416, Note_on_c, 0, 56, 37
2, 33417, Note_on_c, 0, 77, 0
2, 33423, Note_on_c, 0, 64, 0
2, 33431, Control_c, 0, 64, 0
2, 33432, Note_on_c, 0, 60, 0
2, 33437, Note_on_c, 0, 76, 66
2, 33447, Note_on_c, 0, 56, 0
2, 33475, Control_c, 0, 64, 127
2, 33487, Note_on_c, 0, 76, 0
2, 33501, Note_on_c, 0, 72, 80
2, 33522, Control_c, 0, 64, 0
2, 33534, Note_on_c, 0, 72, 0
2, 33547, Note_on_c, 0, 68, 54
2, 33556, Control_c, 0, 64, 127
2, 33598, Note_on_c, 0, 68, 0
2, 33618, Note_on_c, 0, 67, 71
2, 33621, Note_on_c, 0, 60, 54
2, 33623, Note_on_c, 0, 56, 50
2, 33650, Note_on_c, 0, 67, 0
2, 33654, Note_on_c, 0, 60, 0
2, 33662, Control_c, 0, 64, 0
2, 33665, Note_on_c, 0, 65, 46
2, 33678, Note_on_c, 0, 56, 0
2, 33712, Control_c, 0, 64, 127
2, 33720, Note_on_c, 0, 65, 0
2, 33738, Note_on_c, 0, 60, 32
2, 33746, Note_on_c, 0, 48, 32
2, 33748, Note_on_c, 0, 60, 0
2, 33773, Note_on_c, 0, 48, 0
2, 33780, Note_on_c, 0, 67, 66
2, 33785, Note_on_c, 0, 60, 55
2, 33786, Note_on_c, 0, 52, 60
2, 33792, Control_c, 0, 64, 0
2, 33805, Note_on_c, 0, 56, 12
2, 33842, Note_on_c, 0, 67, 0
2, 33850, Note_on_c, 0, 56, 0
2, 33855, Note_on_c, 0, 60, 0
2, 33857, Control_c, 0, 64, 127
2, 33859, Note_on_c, 0, 52, 0
2, 33862, Control_c, 0, 64, 0
2, 33865, Note_on_c, 0, 51, 56
2, 33886, Note_on_c, 0, 51, 0
2, 33906, Note_on_c, 0, 50, 43
2, 33908, Note_on_c, 0, 56, 37
2, 33910, Note_on_c, 0, 65, 51
2, 33915, Note_on_c, 0, 60, 36
2, 33943, Control_c, 0, 64, 127
2, 33961, Note_on_c, 0, 60, 0
2, 33968, Note_on_c, 0, 56, 0
2, 33974, Note_on_c, 0, 50, 0
2, 33983, Note_on_c, 0, 65, 0
2, 33993, Note_on_c, 0, 60, 64
2, 33993, Note_on_c, 0, 56, 47
2, 33997, Control_c, 0, 64, 0
2, 34003, Note_on_c, 0, 48, 56
2, 34050, Control_c, 0, 64, 127
2, 34088, Note_on_c, 0, 56, 0
2, 34107, Note_on_c, 0, 36, 74
2, 34115, Note_on_c, 0, 60, 0
2, 34129, Note_on_c, 0, 36, 0
2, 34141, Note_on_c, 0, 48, 0
2, 34278, Note_on_c, 0, 50, 65
2, 34278, Note_on_c, 0, 60, 62
2, 34283, Note_on_c, 0, 67, 84
2, 34286, Note_on_c, 0, 50, 0
2, 34286, Control_c, 0, 64, 0
2, 34296, Note_on_c, 0, 60, 0
2, 34303, Note_on_c, 0, 67, 0
2, 34306, Note_on_c, 0, 68, 61
2, 34336, Note_on_c, 0, 67, 44
2, 34351, Note_on_c, 0, 68, 0
2, 34352, Control_c, 0, 64, 127
2, 34367, Note_on_c, 0, 67, 0
2, 34372, Note_on_c, 0, 65, 54
2, 34384, Note_on_c, 0, 65, 0
2, 34392, Note_on_c, 0, 54, 40
2, 34398, Control_c, 0, 64, 0
2, 34408, Note_on_c, 0, 67, 64
2, 34417, Note_on_c, 0, 54, 0
2, 34473, Control_c, 0, 64, 127
2, 34476, Note_on_c, 0, 67, 0
2, 34482, Note_on_c, 0, 68, 71
2, 34507, Control_c, 0, 64, 0
2, 34518, Note_on_c, 0, 68, 0
2, 34518, Note_on_c, 0, 60, 34
2, 34521, Note_on_c, 0, 54, 33
2, 34543, Note_on_c, 0, 60, 0
2, 34543, Control_c, 0, 64, 127
2, 34548, Note_on_c, 0, 54, 0
2, 34548, Note_on_c, 0, 72, 53
2, 34584, Note_on_c, 0, 72, 0
2, 34608, Note_on_c, 0, 76, 73
2, 34640, Note_on_c, 0, 76, 0
2, 34650, Note_on_c, 0, 65, 34
2, 34651, Control_c, 0, 64, 0
2, 34651, Note_on_c, 0, 60, 40
2, 34652, Note_on_c, 0, 54, 37
2, 34658, Note_on_c, 0, 79, 75
2, 34660, Note_on_c, 0, 65, 0
2, 34662, Note_on_c, 0, 60, 0
2, 34677, Control_c, 0, 64, 127
2, 34678, Note_on_c, 0, 54, 0
2, 34699, Note_on_c, 0, 79, 0
2, 34740, Note_on_c, 0, 80, 74
2, 34742, Note_on_c, 0, 43, 70
2, 34765, Control_c, 0, 64, 0
2, 34789, Note_on_c, 0, 43, 0
2, 34815, Control_c, 0, 64, 127
2, 34818, Note_on_c, 0, 80, 0
2, 34865, Note_on_c, 0, 64, 72
2, 34865, Note_on_c, 0, 59, 62
2, 34866, Note_on_c, 0, 82, 67
2, 34867, Note_on_c, 0, 53, 53
2, 34871, Note_on_c, 0, 70, 40
2, 34871, Note_on_c, 0, 68, 62
2, 34872, Control_c, 0, 64, 0
2, 34878, Note_on_c, 0, 64, 0
2, 34890, Note_on_c, 0, 59, 0
2, 34896, Note_on_c, 0, 68, 0
2, 34899, Note_on_c, 0, 53, 0
2, 34921, Note_on_c, 0, 70, 0
2, 34926, Note_on_c, 0, 82, 0
2, 34932, Control_c, 0, 64, 127
2, 34988, Note_on_c, 0, 43, 70
2, 34993, Control_c, 0, 64, 0
2, 35020, Note_on_c, 0, 43, 0
2, 35053, Control_c, 0, 64, 127
2, 35070, Note_on_c, 0, 82, 77
2, 35070, Note_on_c, 0, 70, 80
2, 35073, Note_on_c, 0, 75, 65
2, 35117, Note_on_c, 0, 82, 0
2, 35121, Note_on_c, 0, 75, 0
2, 35122, Note_on_c, 0, 64, 61
2, 35123, Note_on_c, 0, 53, 47
2, 35123, Note_on_c, 0, 59, 54
2, 35125, Note_on_c, 0, 70, 0
2, 35135, Note_on_c, 0, 64, 0
2, 35150, Note_on_c, 0, 59, 0
2, 35154, Note_on_c, 0, 53, 0
2, 35158, Control_c, 0, 64, 0
2, 35165, Note_on_c, 0, 80, 55
2, 35168, Note_on_c, 0, 75, 55
2, 35168, Control_c, 0, 64, 127
2, 35168, Note_on_c, 0, 68, 46
2, 35205, Note_on_c, 0, 80, 0
2, 35209, Note_on_c, 0, 75, 0
2, 35210, Note_on_c, 0, 68, 0
2, 35251, Note_on_c, 0, 57, 74
2, 35251, Note_on_c, 0, 79, 69
2, 35251, Note_on_c, 0, 62, 74
2, 35252, Note_on_c, 0, 74, 79
2, 35253, Note_on_c, 0, 67, 77
2, 35253, Note_on_c, 0, 52, 70
2, 35255, Control_c, 0, 64, 0
2, 35298, Control_c, 0, 64, 127
2, 35348, Note_on_c, 0, 67, 0
2, 35355, Note_on_c, 0, 74, 0
2, 35359, Note_on_c, 0, 52, 0
2, 35361, Note_on_c, 0, 57, 0
2, 35367, Note_on_c, 0, 62, 0
2, 35368, Note_on_c, 0, 79, 0
2, 35502, Note_on_c, 0, 55, 74
2, 35502, Note_on_c, 0, 61, 67
2, 35503, Note_on_c, 0, 66, 81
2, 35505, Note_on_c, 0, 87, 84
2, 35506, Note_on_c, 0, 82, 83
2, 35506, Note_on_c, 0, 75, 91
2, 35512, Control_c, 0, 64, 0
2, 35548, Control_c, 0, 64, 127
2, 35613, Note_on_c, 0, 55, 0
2, 35619, Note_on_c, 0, 75, 0
2, 35623, Note_on_c, 0, 82, 0
2, 35626, Note_on_c, 0, 87, 0
2, 35630, Note_on_c, 0, 66, 0
2, 35632, Note_on_c, 0, 61, 0
2, 35887, Note_on_c, 0, 64, 69
2, 35887, Note_on_c, 0, 69, 80
2, 35887, Note_on_c, 0, 90, 83
2, 35888, Note_on_c, 0, 58, 68
2, 35888, Note_on_c, 0, 85, 82
2, 35888, Note_on_c, 0, 78, 81
2, 35900, Control_c, 0, 64, 0
2, 35926, Control_c, 0, 64, 127
2, 35939, Note_on_c, 0, 69, 0
2, 35947, Note_on_c, 0, 64, 0
2, 35960, Note_on_c, 0, 58, 0
2, 35974, Note_on_c, 0, 78, 0
2, 35975, Note_on_c, 0, 85, 0
2, 35982, Note_on_c, 0, 90, 0
2, 36058, Control_c, 0, 64, 0
2, 36062, Note_on_c, 0, 63, 76
2, 36063, Note_on_c, 0, 58, 62
2, 36065, Note_on_c, 0, 87, 85
2, 36065, Note_on_c, 0, 93, 82
2, 36066, Note_on_c, 0, 81, 83
2, 36067, Note_on_c, 0, 52, 66
2, 36087, Note_on_c, 0, 63, 0
2, 36092, Control_c, 0, 64, 127
2, 36097, Note_on_c, 0, 52, 0
2, 36103, Note_on_c, 0, 58, 0
2, 36111, Note_on_c, 0, 81, 0
2, 36120, Note_on_c, 0, 87, 0
2, 36120, Note_on_c, 0, 93, 0
2, 36178, Control_c, 0, 64, 0
2, 36181, Note_on_c, 0, 44, 57
2, 36183, Note_on_c, 0, 96, 83
2, 36185, Note_on_c, 0, 89, 82
2, 36186, Note_on_c, 0, 54, 31
2, 36186, Note_on_c, 0, 56, 34
2, 36201, Note_on_c, 0, 56, 0
2, 36232, Control_c, 0, 64, 127
2, 36239, Note_on_c, 0, 54, 0
2, 36241, Note_on_c, 0, 96, 0
2, 36245, Note_on_c, 0, 89, 0
2, 36261, Note_on_c, 0, 44, 0
2, 36272, Note_on_c, 0, 94, 86
2, 36280, Control_c, 0, 64, 0
2, 36295, Note_on_c, 0, 43, 51
2, 36300, Note_on_c, 0, 55, 40
2, 36307, Note_on_c, 0, 43, 0
2, 36323, Note_on_c, 0, 55, 0
2, 36323, Note_on_c, 0, 94, 0
2, 36346, Note_on_c, 0, 89, 65
2, 36384, Note_on_c, 0, 89, 0
2, 36398, Note_on_c, 0, 85, 64
2, 36418, Note_on_c, 0, 58, 42
2, 36425, Note_on_c, 0, 55, 32
2, 36431, Note_on_c, 0, 85, 0
2, 36440, Note_on_c, 0, 55, 0
2, 36451, Note_on_c, 0, 58, 0
2, 36458, Note_on_c, 0, 84, 43
2, 36488, Note_on_c, 0, 84, 0
2, 36515, Note_on_c, 0, 82, 71
2, 36518, Note_on_c, 0, 58, 57
2, 36525, Note_on_c, 0, 50, 66
2, 36556, Note_on_c, 0, 82, 0
2, 36578, Note_on_c, 0, 77, 27
2, 36613, Note_on_c, 0, 58, 0
2, 36636, Note_on_c, 0, 77, 0
2, 36636, Note_on_c, 0, 50, 0
2, 36638, Note_on_c, 0, 58, 54
2, 36640, Note_on_c, 0, 74, 57
2, 36643, Note_on_c, 0, 51, 56
2, 36673, Note_on_c, 0, 74, 0
2, 36700, Note_on_c, 0, 75, 54
2, 36737, Note_on_c, 0, 75, 0
2, 36765, Note_on_c, 0, 76, 76
2, 36770, Note_on_c, 0, 52, 67
2, 36778, Note_on_c, 0, 51, 0
2, 36802, Note_on_c, 0, 76, 0
2, 36825, Note_on_c, 0, 79, 74
2, 36851, Note_on_c, 0, 79, 0
2, 36875, Note_on_c, 0, 58, 0
2, 36888, Note_on_c, 0, 52, 0
2, 36895, Note_on_c, 0, 58, 36
2, 36895, Note_on_c, 0, 67, 39
2, 36901, Note_on_c, 0, 48, 50
2, 36931, Note_on_c, 0, 67, 0
2, 36943, Note_on_c, 0, 58, 0
2, 36972, Note_on_c, 0, 64, 14
2, 37000, Note_on_c, 0, 64, 0
2, 37030, Note_on_c, 0, 58, 55
2, 37031, Note_on_c, 0, 63, 67
2, 37053, Note_on_c, 0, 58, 0
2, 37054, Note_on_c, 0, 63, 0
2, 37057, Note_on_c, 0, 48, 0
2, 37095, Note_on_c, 0, 64, 64
2, 37130, Note_on_c, 0, 64, 0
2, 37160, Note_on_c, 0, 67, 77
2, 37207, Note_on_c, 0, 67, 0
2, 37211, Note_on_c, 0, 60, 53
2, 37277, Note_on_c, 0, 60, 0
2, 37283, Note_on_c, 0, 56, 55
2, 37283, Note_on_c, 0, 48, 55
2, 37324, Note_on_c, 0, 56, 0
2, 37332, Note_on_c, 0, 41, 36
2, 37337, Note_on_c, 0, 55, 40
2, 37355, Note_on_c, 0, 48, 0
2, 37417, Note_on_c, 0, 48, 66
2, 37433, Note_on_c, 0, 55, 0
2, 37444, Note_on_c, 0, 48, 0
2, 37465, Note_on_c, 0, 49, 60
2, 37522, Note_on_c, 0, 41, 0
2, 37541, Note_on_c, 0, 49, 0
2, 37545, Note_on_c, 0, 41, 40
2, 37592, Note_on_c, 0, 52, 67
2, 37597, Note_on_c, 0, 53, 75
2, 37600, Note_on_c, 0, 64, 66
2, 37600, Note_on_c, 0, 56, 47
2, 37602, Note_on_c, 0, 60, 42
2, 37647, Note_on_c, 0, 52, 0
2, 37648, Note_on_c, 0, 64, 0
2, 37654, Note_on_c, 0, 53, 0
2, 37658, Note_on_c, 0, 56, 0
2, 37664, Note_on_c, 0, 60, 0
2, 37676, Note_on_c, 0, 63, 57
2, 37678, Note_on_c, 0, 53, 50
2, 37680, Note_on_c, 0, 51, 39
2, 37680, Note_on_c, 0, 56, 35
2, 37682, Note_on_c, 0, 60, 34
2, 37709, Note_on_c, 0, 60, 0
2, 37711, Note_on_c, 0, 53, 0
2, 37711, Note_on_c, 0, 51, 0
2, 37719, Note_on_c, 0, 63, 0
2, 37727, Note_on_c, 0, 50, 48
2, 37730, Note_on_c, 0, 62, 41
2, 37733, Note_on_c, 0, 53, 19
2, 37753, Note_on_c, 0, 41, 0
2, 37794, Note_on_c, 0, 53, 0
2, 37796, Note_on_c, 0, 56, 0
2, 37799, Note_on_c, 0, 50, 0
2, 37808, Note_on_c, 0, 41, 48
2, 37818, Note_on_c, 0, 62, 0
2, 37855, Note_on_c, 0, 49, 50
2, 37857, Note_on_c, 0, 56, 42
2, 37858, Note_on_c, 0, 61, 43
2, 37858, Note_on_c, 0, 53, 29
2, 37908, Control_c, 0, 64, 127
2, 37917, Note_on_c, 0, 49, 0
2, 37929, Note_on_c, 0, 53, 0
2, 37932, Note_on_c, 0, 56, 0
2, 37935, Note_on_c, 0, 61, 0
2, 37957, Control_c, 0, 64, 0
2, 37969, Note_on_c, 0, 41, 0
2, 37982, Note_on_c, 0, 56, 39
2, 37985, Note_on_c, 0, 48, 35
2, 37985, Note_on_c, 0, 53, 35
2, 37986, Note_on_c, 0, 60, 46
2, 37993, Control_c, 0, 64, 127
2, 37996, Note_on_c, 0, 53, 0
2, 38000, Note_on_c, 0, 48, 0
2, 38002, Note_on_c, 0, 56, 0
2, 38003, Note_on_c, 0, 60, 0
2, 38022, Note_on_c, 0, 63, 49
2, 38030, Note_on_c, 0, 63, 0
2, 38070, Note_on_c, 0, 64, 60
2, 38071, Note_on_c, 0, 60, 68
2, 38072, Note_on_c, 0, 52, 50
2, 38073, Note_on_c, 0, 56, 59
2, 38080, Control_c, 0, 64, 0
2, 38121, Control_c, 0, 64, 127
2, 38147, Note_on_c, 0, 52, 0
2, 38149, Note_on_c, 0, 56, 0
2, 38152, Note_on_c, 0, 60, 0
2, 38167, Note_on_c, 0, 64, 0
2, 38171, Note_on_c, 0, 67, 76
2, 38172, Note_on_c, 0, 56, 60
2, 38176, Note_on_c, 0, 55, 65
2, 38176, Note_on_c, 0, 60, 63
2, 38194, Note_on_c, 0, 60, 0
2, 38197, Note_on_c, 0, 56, 0
2, 38199, Note_on_c, 0, 55, 0
2, 38199, Note_on_c, 0, 67, 0
2, 38231, Control_c, 0, 64, 0
2, 38252, Note_on_c, 0, 53, 63
2, 38255, Note_on_c, 0, 65, 72
2, 38258, Note_on_c, 0, 56, 50
2, 38258, Note_on_c, 0, 60, 64
2, 38272, Control_c, 0, 64, 127
2, 38304, Note_on_c, 0, 53, 0
2, 38328, Note_on_c, 0, 60, 0
2, 38333, Note_on_c, 0, 48, 57
2, 38336, Note_on_c, 0, 56, 0
2, 38343, Note_on_c, 0, 65, 0
2, 38356, Note_on_c, 0, 48, 0
2, 38373, Control_c, 0, 64, 0
2, 38378, Note_on_c, 0, 68, 75
2, 38381, Note_on_c, 0, 50, 62
2, 38412, Control_c, 0, 64, 127
2, 38460, Note_on_c, 0, 38, 72
2, 38479, Note_on_c, 0, 68, 0
2, 38482, Note_on_c, 0, 38, 0
2, 38492, Note_on_c, 0, 50, 0
2, 38505, Note_on_c, 0, 60, 36
2, 38517, Note_on_c, 0, 60, 0
2, 38542, Note_on_c, 0, 65, 59
2, 38563, Note_on_c, 0, 65, 0
2, 38580, Note_on_c, 0, 67, 81
2, 38602, Note_on_c, 0, 67, 0
2, 38615, Note_on_c, 0, 68, 81
2, 38632, Note_on_c, 0, 68, 0
2, 38633, Control_c, 0, 64, 0
2, 38636, Note_on_c, 0, 44, 55
2, 38640, Note_on_c, 0, 54, 25
2, 38655, Note_on_c, 0, 72, 74
2, 38660, Note_on_c, 0, 54, 0
2, 38661, Note_on_c, 0, 44, 0
2, 38662, Control_c, 0, 64, 127
2, 38702, Note_on_c, 0, 72, 0
2, 38720, Note_on_c, 0, 77, 74
2, 38761, Note_on_c, 0, 65, 47
2, 38763, Note_on_c, 0, 60, 49
2, 38765, Note_on_c, 0, 58, 40
2, 38770, Note_on_c, 0, 77, 0
2, 38773, Note_on_c, 0, 65, 0
2, 38778, Note_on_c, 0, 60, 0
2, 38780, Note_on_c, 0, 54, 13
2, 38793, Note_on_c, 0, 58, 0
2, 38795, Note_on_c, 0, 54, 0
2, 38808, Note_on_c, 0, 82, 78
2, 38838, Note_on_c, 0, 82, 0
2, 38892, Note_on_c, 0, 43, 62
2, 38892, Control_c, 0, 64, 0
2, 38895, Note_on_c, 0, 79, 90
2, 38910, Note_on_c, 0, 43, 0
2, 38922, Control_c, 0, 64, 127
2, 38941, Note_on_c, 0, 79, 0
2, 38986, Note_on_c, 0, 71, 72
2, 39021, Note_on_c, 0, 53, 37
2, 39022, Note_on_c, 0, 64, 25
2, 39026, Note_on_c, 0, 59, 50
2, 39032, Control_c, 0, 64, 0
2, 39033, Note_on_c, 0, 64, 0
2, 39044, Note_on_c, 0, 59, 0
2, 39053, Note_on_c, 0, 53, 0
2, 39059, Note_on_c, 0, 71, 0
2, 39061, Control_c, 0, 64, 127
2, 39067, Note_on_c, 0, 79, 82
2, 39100, Note_on_c, 0, 79, 0
2, 39150, Control_c, 0, 64, 0
2, 39151, Note_on_c, 0, 37, 59
2, 39151, Note_on_c, 0, 82, 77
2, 39152, Note_on_c, 0, 44, 56
2, 39152, Note_on_c, 0, 70, 74
2, 39155, Note_on_c, 0, 75, 64
2, 39173, Note_on_c, 0, 37, 0
2, 39177, Control_c, 0, 64, 127
2, 39178, Note_on_c, 0, 44, 0
2, 39281, Note_on_c, 0, 63, 59
2, 39282, Note_on_c, 0, 59, 57
2, 39283, Note_on_c, 0, 56, 40
2, 39285, Note_on_c, 0, 53, 39
2, 39288, Note_on_c, 0, 75, 0
2, 39289, Note_on_c, 0, 82, 0
2, 39293, Note_on_c, 0, 70, 0
2, 39330, Note_on_c, 0, 59, 0
2, 39351, Note_on_c, 0, 53, 0
2, 39359, Note_on_c, 0, 63, 0
2, 39378, Note_on_c, 0, 56, 0
2, 39407, Control_c, 0, 64, 0
2, 39408, Note_on_c, 0, 62, 53
2, 39410, Note_on_c, 0, 52, 55
2, 39412, Note_on_c, 0, 57, 50
2, 39493, Note_on_c, 0, 74, 110
2, 39497, Control_c, 0, 64, 127
2, 39511, Note_on_c, 0, 74, 0
2, 39531, Control_c, 0, 64, 0
2, 39536, Note_on_c, 0, 74, 69
2, 39550, Note_on_c, 0, 75, 77
2, 39556, Note_on_c, 0, 74, 0
2, 39558, Note_on_c, 0, 75, 0
2, 39560, Note_on_c, 0, 76, 75
2, 39596, Note_on_c, 0, 76, 0
2, 39600, Control_c, 0, 64, 127
2, 39627, Note_on_c, 0, 79, 91
2, 39638, Note_on_c, 0, 57, 0
2, 39638, Note_on_c, 0, 52, 0
2, 39651, Note_on_c, 0, 62, 0
2, 39657, Note_on_c, 0, 79, 0
2, 39711, Control_c, 0, 64, 0
2, 39712, Note_on_c, 0, 79, 103
2, 39712, Note_on_c, 0, 86, 94
2, 39752, Control_c, 0, 64, 127
2, 39773, Note_on_c, 0, 86, 0
2, 39777, Note_on_c, 0, 79, 0
2, 39787, Note_on_c, 0, 82, 64
2, 39790, Control_c, 0, 64, 0
2, 39791, Note_on_c, 0, 74, 66
2, 39795, Note_on_c, 0, 65, 60
2, 39796, Note_on_c, 0, 61, 49
2, 39798, Note_on_c, 0, 55, 40
2, 39811, Note_on_c, 0, 65, 0
2, 39812, Control_c, 0, 64, 127
2, 39825, Note_on_c, 0, 55, 0
2, 39829, Note_on_c, 0, 61, 0
2, 39846, Note_on_c, 0, 74, 0
2, 39858, Note_on_c, 0, 82, 0
2, 39890, Note_on_c, 0, 84, 88
2, 39890, Note_on_c, 0, 54, 51
2, 39891, Note_on_c, 0, 77, 76
2, 39891, Note_on_c, 0, 72, 75
2, 39891, Note_on_c, 0, 44, 51
2, 39892, Control_c, 0, 64, 0
2, 39931, Note_on_c, 0, 44, 0
2, 39932, Control_c, 0, 64, 127
2, 39941, Note_on_c, 0, 54, 0
2, 39953, Note_on_c, 0, 77, 0
2, 39968, Note_on_c, 0, 72, 0
2, 39981, Note_on_c, 0, 84, 0
2, 39998, Note_on_c, 0, 60, 50
2, 40001, Note_on_c, 0, 77, 64
2, 40001, Note_on_c, 0, 65, 54
2, 40003, Note_on_c, 0, 72, 54
2, 40006, Note_on_c, 0, 54, 25
2, 40012, Note_on_c, 0, 65, 0
2, 40013, Note_on_c, 0, 58, 29
2, 40025, Note_on_c, 0, 60, 0
2, 40032, Note_on_c, 0, 77, 0
2, 40033, Note_on_c, 0, 58, 0
2, 40036, Note_on_c, 0, 72, 0
2, 40039, Note_on_c, 0, 54, 0
2, 40117, Note_on_c, 0, 37, 53
2, 40120, Note_on_c, 0, 77, 66
2, 40120, Note_on_c, 0, 72, 72
2, 40121, Control_c, 0, 64, 0
2, 40121, Note_on_c, 0, 44, 57
2, 40138, Note_on_c, 0, 37, 0
2, 40146, Note_on_c, 0, 44, 0
2, 40147, Control_c, 0, 64, 127
2, 40152, Note_on_c, 0, 72, 0
2, 40158, Note_on_c, 0, 77, 0
2, 40238, Note_on_c, 0, 72, 66
2, 40238, Note_on_c, 0, 68, 55
2, 40240, Note_on_c, 0, 65, 60
2, 40242, Note_on_c, 0, 63, 55
2, 40242, Note_on_c, 0, 53, 55
2, 40245, Note_on_c, 0, 58, 46
2, 40273, Note_on_c, 0, 63, 0
2, 40283, Note_on_c, 0, 53, 0
2, 40298, Note_on_c, 0, 58, 0
2, 40299, Note_on_c, 0, 72, 0
2, 40311, Note_on_c, 0, 68, 0
2, 40315, Note_on_c, 0, 65, 0
2, 40491, Note_on_c, 0, 71, 75
2, 40492, Note_on_c, 0, 67, 80
2, 40495, Note_on_c, 0, 62, 73
2, 40496, Control_c, 0, 64, 0
2, 40497, Note_on_c, 0, 45, 64
2, 40498, Note_on_c, 0, 55, 54
2, 40500, Note_on_c, 0, 57, 36
2, 40510, Note_on_c, 0, 57, 0
2, 40529, Note_on_c, 0, 71, 0
2, 40534, Note_on_c, 0, 67, 0
2, 40537, Control_c, 0, 64, 127
2, 40540, Note_on_c, 0, 62, 0
2, 40543, Note_on_c, 0, 45, 0
2, 40543, Note_on_c, 0, 55, 0
2, 40566, Control_c, 0, 64, 0
2, 40576, Note_on_c, 0, 54, 53
2, 40577, Note_on_c, 0, 44, 56
2, 40578, Note_on_c, 0, 66, 67
2, 40578, Note_on_c, 0, 61, 68
2, 40585, Control_c, 0, 64, 127
2, 40600, Note_on_c, 0, 66, 0
2, 40615, Note_on_c, 0, 61, 0
2, 40619, Note_on_c, 0, 54, 0
2, 40637, Note_on_c, 0, 44, 0
2, 40660, Control_c, 0, 64, 0
2, 40666, Note_on_c, 0, 58, 46
2, 40668, Note_on_c, 0, 65, 51
2, 40670, Note_on_c, 0, 61, 45
2, 40671, Note_on_c, 0, 53, 53
2, 40671, Note_on_c, 0, 43, 36
2, 40673, Note_on_c, 0, 69, 27
2, 40698, Control_c, 0, 64, 127
2, 40714, Note_on_c, 0, 65, 0
2, 40723, Note_on_c, 0, 69, 0
2, 40727, Note_on_c, 0, 58, 0
2, 40727, Note_on_c, 0, 43, 0
2, 40733, Note_on_c, 0, 61, 0
2, 40746, Note_on_c, 0, 53, 0
2, 40752, Note_on_c, 0, 58, 42
2, 40752, Note_on_c, 0, 50, 59
2, 40756, Note_on_c, 0, 65, 45
2, 40760, Note_on_c, 0, 50, 0
2, 40762, Note_on_c, 0, 61, 25
2, 40767, Note_on_c, 0, 65, 0
2, 40770, Control_c, 0, 64, 0
2, 40774, Note_on_c, 0, 61, 0
2, 40782, Note_on_c, 0, 58, 0
2, 40782, Control_c, 0, 64, 127
2, 40823, Control_c, 0, 64, 0
2, 40843, Note_on_c, 0, 37, 49
2, 40843, Note_on_c, 0, 67, 57
2, 40845, Note_on_c, 0, 63, 56
2, 40846, Note_on_c, 0, 44, 51
2, 40847, Note_on_c, 0, 59, 43
2, 40850, Control_c, 0, 64, 127
2, 40860, Note_on_c, 0, 59, 0
2, 40889, Note_on_c, 0, 67, 0
2, 40895, Note_on_c, 0, 63, 0
2, 40909, Note_on_c, 0, 37, 0
2, 40922, Note_on_c, 0, 44, 0
2, 40938, Control_c, 0, 64, 0
2, 40938, Note_on_c, 0, 36, 72
2, 40982, Control_c, 0, 64, 127
2, 41022, Control_c, 0, 64, 0
2, 41023, Note_on_c, 0, 36, 0
2, 41026, Note_on_c, 0, 52, 53
2, 41027, Note_on_c, 0, 58, 48
2, 41028, Note_on_c, 0, 64, 58
2, 41030, Note_on_c, 0, 62, 58
2, 41051, Control_c, 0, 64, 127
2, 41063, Note_on_c, 0, 52, 0
2, 41081, Note_on_c, 0, 62, 0
2, 41081, Note_on_c, 0, 64, 0
2, 41083, Note_on_c, 0, 58, 0
2, 41115, Note_on_c, 0, 67, 71
2, 41115, Note_on_c, 0, 58, 77
2, 41118, Note_on_c, 0, 55, 58
2, 41121, Note_on_c, 0, 62, 63
2, 41122, Note_on_c, 0, 64, 57
2, 41129, Note_on_c, 0, 62, 0
2, 41133, Note_on_c, 0, 64, 0
2, 41140, Note_on_c, 0, 58, 0
2, 41150, Note_on_c, 0, 55, 0
2, 41151, Note_on_c, 0, 67, 0
2, 41198, Control_c, 0, 64, 0
2, 41202, Note_on_c, 0, 70, 77
2, 41203, Note_on_c, 0, 56, 74
2, 41203, Note_on_c, 0, 66, 74
2, 41203, Note_on_c, 0, 61, 80
2, 41217, Note_on_c, 0, 68, 28
2, 41222, Control_c, 0, 64, 127
2, 41234, Note_on_c, 0, 68, 0
2, 41236, Note_on_c, 0, 66, 0
2, 41245, Note_on_c, 0, 61, 0
2, 41248, Note_on_c, 0, 70, 0
2, 41292, Note_on_c, 0, 68, 69
2, 41292, Note_on_c, 0, 58, 62
2, 41293, Note_on_c, 0, 72, 66
2, 41295, Note_on_c, 0, 66, 59
2, 41296, Note_on_c, 0, 64, 71
2, 41300, Control_c, 0, 64, 0
2, 41301, Note_on_c, 0, 56, 0
2, 41328, Control_c, 0, 64, 127
2, 41348, Note_on_c, 0, 66, 0
2, 41348, Note_on_c, 0, 64, 0
2, 41351, Note_on_c, 0, 72, 0
2, 41353, Note_on_c, 0, 68, 0
2, 41377, Note_on_c, 0, 58, 0
2, 41380, Note_on_c, 0, 70, 58
2, 41381, Note_on_c, 0, 66, 49
2, 41382, Note_on_c, 0, 64, 58
2, 41387, Note_on_c, 0, 56, 58
2, 41396, Note_on_c, 0, 66, 0
2, 41399, Note_on_c, 0, 64, 0
2, 41400, Note_on_c, 0, 70, 0
2, 41407, Note_on_c, 0, 56, 0
2, 41457, Note_on_c, 0, 68, 54
2, 41458, Control_c, 0, 64, 0
2, 41463, Note_on_c, 0, 60, 66
2, 41465, Note_on_c, 0, 56, 44
2, 41532, Note_on_c, 0, 41, 57
2, 41551, Note_on_c, 0, 60, 0
2, 41553, Note_on_c, 0, 56, 0
2, 41571, Note_on_c, 0, 48, 44
2, 41573, Note_on_c, 0, 68, 0
2, 41656, Note_on_c, 0, 48, 0
2, 41656, Note_on_c, 0, 56, 52
2, 41658, Note_on_c, 0, 67, 56
2, 41661, Note_on_c, 0, 60, 48
2, 41661, Note_on_c, 0, 52, 52
2, 41667, Note_on_c, 0, 64, 34
2, 41763, Control_c, 0, 64, 127
2, 41773, Note_on_c, 0, 52, 0
2, 41778, Note_on_c, 0, 48, 55
2, 41780, Note_on_c, 0, 64, 0
2, 41806, Note_on_c, 0, 48, 0
2, 41810, Control_c, 0, 64, 0
2, 41826, Note_on_c, 0, 48, 40
2, 41827, Note_on_c, 0, 60, 0
2, 41842, Note_on_c, 0, 56, 0
2, 41851, Note_on_c, 0, 67, 0
2, 41867, Control_c, 0, 64, 127
2, 41895, Note_on_c, 0, 56, 49
2, 41897, Note_on_c, 0, 65, 61
2, 41900, Note_on_c, 0, 51, 55
2, 41900, Note_on_c, 0, 60, 57
2, 41903, Control_c, 0, 64, 0
2, 41916, Note_on_c, 0, 48, 0
2, 41977, Control_c, 0, 64, 127
2, 42005, Note_on_c, 0, 51, 0
2, 42010, Note_on_c, 0, 60, 0
2, 42020, Note_on_c, 0, 48, 51
2, 42026, Note_on_c, 0, 56, 0
2, 42045, Note_on_c, 0, 48, 0
2, 42047, Note_on_c, 0, 65, 0
2, 42057, Control_c, 0, 64, 0
2, 42078, Control_c, 0, 64, 127
2, 42138, Note_on_c, 0, 56, 57
2, 42140, Note_on_c, 0, 63, 52
2, 42140, Note_on_c, 0, 49, 36
2, 42141, Note_on_c, 0, 60, 53
2, 42148, Control_c, 0, 64, 0
2, 42161, Note_on_c, 0, 56, 0
2, 42164, Note_on_c, 0, 60, 0
2, 42181, Note_on_c, 0, 63, 0
2, 42202, Control_c, 0, 64, 127
2, 42203, Note_on_c, 0, 49, 0
2, 42223, Note_on_c, 0, 60, 69
2, 42244, Note_on_c, 0, 60, 0
2, 42261, Note_on_c, 0, 62, 73
2, 42262, Note_on_c, 0, 49, 39
2, 42270, Note_on_c, 0, 41, 0
2, 42275, Note_on_c, 0, 49, 0
2, 42282, Note_on_c, 0, 62, 0
2, 42283, Control_c, 0, 64, 0
2, 42302, Note_on_c, 0, 65, 55
2, 42324, Note_on_c, 0, 65, 0
2, 42338, Note_on_c, 0, 67, 65
2, 42359, Note_on_c, 0, 67, 0
2, 42376, Note_on_c, 0, 68, 75
2, 42391, Note_on_c, 0, 50, 47
2, 42393, Note_on_c, 0, 56, 33
2, 42395, Note_on_c, 0, 60, 29
2, 42399, Note_on_c, 0, 68, 0
2, 42415, Note_on_c, 0, 60, 0
2, 42416, Note_on_c, 0, 50, 0
2, 42421, Note_on_c, 0, 72, 58
2, 42425, Note_on_c, 0, 56, 0
2, 42439, Note_on_c, 0, 72, 0
2, 42460, Note_on_c, 0, 76, 69
2, 42478, Note_on_c, 0, 76, 0
2, 42478, Control_c, 0, 64, 127
2, 42496, Note_on_c, 0, 79, 89
2, 42502, Control_c, 0, 64, 0
2, 42522, Note_on_c, 0, 65, 44
2, 42525, Note_on_c, 0, 60, 44
2, 42528, Note_on_c, 0, 54, 34
2, 42532, Note_on_c, 0, 65, 0
2, 42532, Note_on_c, 0, 79, 0
2, 42537, Note_on_c, 0, 76, 69
2, 42538, Note_on_c, 0, 60, 0
2, 42549, Note_on_c, 0, 54, 0
2, 42555, Control_c, 0, 64, 127
2, 42598, Note_on_c, 0, 76, 0
2, 42607, Note_on_c, 0, 77, 74
2, 42632, Control_c, 0, 64, 0
2, 42642, Note_on_c, 0, 77, 0
2, 42652, Note_on_c, 0, 56, 36
2, 42653, Note_on_c, 0, 60, 32
2, 42657, Note_on_c, 0, 50, 27
2, 42660, Note_on_c, 0, 79, 64
2, 42663, Note_on_c, 0, 60, 0
2, 42672, Note_on_c, 0, 56, 0
2, 42675, Note_on_c, 0, 50, 0
2, 42712, Control_c, 0, 64, 127
2, 42722, Note_on_c, 0, 79, 0
2, 42736, Note_on_c, 0, 54, 71
2, 42747, Control_c, 0, 64, 0
2, 42777, Control_c, 0, 64, 127
2, 42780, Note_on_c, 0, 44, 38
2, 42806, Note_on_c, 0, 44, 0
2, 42809, Note_on_c, 0, 54, 0
2, 42851, Control_c, 0, 64, 0
2, 42852, Note_on_c, 0, 43, 57
2, 42860, Note_on_c, 0, 43, 0
2, 42892, Control_c, 0, 64, 127
2, 42898, Note_on_c, 0, 71, 65
2, 42902, Note_on_c, 0, 62, 60
2, 42903, Note_on_c, 0, 56, 58
2, 42906, Note_on_c, 0, 67, 41
2, 42927, Note_on_c, 0, 62, 0
2, 42936, Note_on_c, 0, 67, 0
2, 42945, Note_on_c, 0, 71, 0
2, 42975, Note_on_c, 0, 65, 73
2, 42975, Note_on_c, 0, 74, 70
2, 42976, Note_on_c, 0, 70, 64
2, 42983, Note_on_c, 0, 59, 65
2, 42986, Note_on_c, 0, 65, 0
2, 42986, Control_c, 0, 64, 0
2, 42992, Note_on_c, 0, 70, 0
2, 42995, Note_on_c, 0, 74, 0
2, 43022, Note_on_c, 0, 68, 74
2, 43024, Note_on_c, 0, 56, 0
2, 43025, Note_on_c, 0, 77, 75
2, 43026, Note_on_c, 0, 59, 0
2, 43027, Control_c, 0, 64, 127
2, 43031, Note_on_c, 0, 62, 71
2, 43050, Note_on_c, 0, 77, 0
2, 43063, Note_on_c, 0, 68, 0
2, 43073, Note_on_c, 0, 62, 0
2, 43093, Note_on_c, 0, 80, 68
2, 43097, Note_on_c, 0, 65, 55
2, 43111, Note_on_c, 0, 80, 0
2, 43127, Note_on_c, 0, 65, 0
2, 43132, Control_c, 0, 64, 0
2, 43148, Note_on_c, 0, 68, 50
2, 43156, Note_on_c, 0, 68, 0
2, 43215, Note_on_c, 0, 86, 79
2, 43217, Note_on_c, 0, 80, 53
2, 43217, Note_on_c, 0, 77, 66
2, 43218, Note_on_c, 0, 71, 70
2, 43234, Note_on_c, 0, 80, 0
2, 43238, Note_on_c, 0, 77, 0
2, 43250, Note_on_c, 0, 86, 0
2, 43250, Note_on_c, 0, 71, 0
2, 43253, Note_on_c, 0, 68, 63
2, 43260, Control_c, 0, 64, 127
2, 43273, Note_on_c, 0, 68, 0
2, 43331, Note_on_c, 0, 62, 65
2, 43332, Note_on_c, 0, 84, 70
2, 43332, Note_on_c, 0, 74, 61
2, 43333, Note_on_c, 0, 79, 64
2, 43336, Note_on_c, 0, 52, 49
2, 43338, Note_on_c, 0, 57, 51
2, 43340, Control_c, 0, 64, 0
2, 43357, Note_on_c, 0, 62, 0
2, 43361, Note_on_c, 0, 57, 0
2, 43365, Note_on_c, 0, 84, 0
2, 43368, Control_c, 0, 64, 127
2, 43375, Note_on_c, 0, 79, 0
2, 43378, Note_on_c, 0, 52, 0
2, 43383, Note_on_c, 0, 74, 0
2, 43452, Note_on_c, 0, 55, 92
2, 43452, Note_on_c, 0, 54, 72
2, 43459, Note_on_c, 0, 54, 0
2, 43512, Control_c, 0, 64, 0
2, 43566, Note_on_c, 0, 65, 68
2, 43567, Note_on_c, 0, 72, 74
2, 43568, Note_on_c, 0, 66, 67
2, 43581, Note_on_c, 0, 65, 0
2, 43586, Note_on_c, 0, 66, 0
2, 43592, Note_on_c, 0, 67, 40
2, 43604, Note_on_c, 0, 67, 0
2, 43604, Note_on_c, 0, 72, 0
2, 43676, Note_on_c, 0, 62, 71
2, 43680, Note_on_c, 0, 67, 66
2, 43685, Note_on_c, 0, 63, 56
2, 43699, Note_on_c, 0, 62, 0
2, 43706, Note_on_c, 0, 63, 0
2, 43708, Note_on_c, 0, 64, 58
2, 43720, Note_on_c, 0, 64, 0
2, 43720, Note_on_c, 0, 67, 0
2, 43795, Note_on_c, 0, 60, 80
2, 43797, Note_on_c, 0, 67, 72
2, 43800, Note_on_c, 0, 51, 34
2, 43805, Note_on_c, 0, 55, 0
2, 43817, Note_on_c, 0, 51, 0
2, 43910, Note_on_c, 0, 43, 92
2, 43913, Note_on_c, 0, 42, 68
2, 43926, Note_on_c, 0, 42, 0
2, 43937, Note_on_c, 0, 60, 0
2, 43972, Note_on_c, 0, 67, 0
2, 44013, Control_c, 0, 64, 127
2, 44078, Control_c, 0, 64, 0
2, 44088, Note_on_c, 0, 72, 99
2, 44136, Control_c, 0, 64, 127
2, 44168, Note_on_c, 0, 69, 77
2, 44176, Note_on_c, 0, 72, 0
2, 44178, Note_on_c, 0, 43, 0
2, 44186, Control_c, 0, 64, 0
2, 44198, Note_on_c, 0, 69, 0
2, 44206, Control_c, 0, 64, 127
2, 44223, Note_on_c, 0, 65, 35
2, 44266, Note_on_c, 0, 65, 0
2, 44301, Note_on_c, 0, 50, 57
2, 44309, Note_on_c, 0, 50, 0
2, 44331, Control_c, 0, 64, 0
2, 44337, Note_on_c, 0, 75, 68
2, 44341, Note_on_c, 0, 63, 52
2, 44341, Note_on_c, 0, 67, 60
2, 44348, Note_on_c, 0, 70, 39
2, 44376, Control_c, 0, 64, 127
2, 44427, Note_on_c, 0, 60, 42
2, 44435, Control_c, 0, 64, 0
2, 44443, Note_on_c, 0, 60, 0
2, 44468, Note_on_c, 0, 53, 49
2, 44473, Control_c, 0, 64, 127
2, 44546, Note_on_c, 0, 60, 54
2, 44564, Note_on_c, 0, 60, 0
2, 44594, Note_on_c, 0, 67, 0
2, 44616, Note_on_c, 0, 70, 0
2, 44622, Note_on_c, 0, 63, 0
2, 44644, Note_on_c, 0, 75, 0
2, 44645, Note_on_c, 0, 60, 57
2, 44672, Note_on_c, 0, 60, 0
2, 44723, Note_on_c, 0, 60, 62
2, 44771, Note_on_c, 0, 53, 0
2, 44808, Note_on_c, 0, 53, 59
2, 44839, Note_on_c, 0, 53, 0
2, 44887, Note_on_c, 0, 53, 69
2, 44903, Note_on_c, 0, 60, 0
2, 44968, Note_on_c, 0, 75, 68
2, 44970, Note_on_c, 0, 66, 72
2, 44971, Note_on_c, 0, 71, 74
2, 44973, Note_on_c, 0, 63, 64
2, 44976, Control_c, 0, 64, 0
2, 44990, Control_c, 0, 64, 127
2, 45029, Note_on_c, 0, 53, 0
2, 45061, Note_on_c, 0, 53, 46
2, 45083, Note_on_c, 0, 53, 0
2, 45147, Note_on_c, 0, 53, 63
2, 45188, Note_on_c, 0, 53, 0
2, 45233, Note_on_c, 0, 53, 62
2, 45260, Note_on_c, 0, 53, 0
2, 45323, Note_on_c, 0, 53, 70
2, 45333, Note_on_c, 0, 71, 0
2, 45354, Note_on_c, 0, 75, 0
2, 45354, Note_on_c, 0, 53, 0
2, 45357, Note_on_c, 0, 66, 0
2, 45379, Note_on_c, 0, 63, 0
2, 45391, Note_on_c, 0, 53, 75
2, 45470, Note_on_c, 0, 77, 62
2, 45472, Note_on_c, 0, 70, 67
2, 45472, Note_on_c, 0, 74, 71
2, 45472, Note_on_c, 0, 69, 76
2, 45473, Note_on_c, 0, 62, 67
2, 45481, Control_c, 0, 64, 0
2, 45517, Control_c, 0, 64, 127
2, 45543, Note_on_c, 0, 53, 0
2, 45576, Note_on_c, 0, 53, 63
2, 45608, Note_on_c, 0, 77, 0
2, 45612, Note_on_c, 0, 74, 0
2, 45613, Note_on_c, 0, 53, 0
2, 45635, Note_on_c, 0, 76, 13
2, 45655, Note_on_c, 0, 76, 0
2, 45660, Note_on_c, 0, 70, 0
2, 45661, Note_on_c, 0, 53, 70
2, 45662, Note_on_c, 0, 69, 0
2, 45693, Note_on_c, 0, 62, 0
2, 45742, Note_on_c, 0, 69, 62
2, 45742, Note_on_c, 0, 62, 55
2, 45743, Note_on_c, 0, 74, 55
2, 45745, Note_on_c, 0, 65, 58
2, 45763, Note_on_c, 0, 62, 0
2, 45765, Note_on_c, 0, 74, 0
2, 45768, Note_on_c, 0, 69, 0
2, 45771, Note_on_c, 0, 65, 0
2, 45788, Note_on_c, 0, 53, 0
2, 45860, Note_on_c, 0, 69, 50
2, 45860, Note_on_c, 0, 65, 49
2, 45861, Note_on_c, 0, 46, 38
2, 45861, Note_on_c, 0, 57, 44
2, 45861, Note_on_c, 0, 62, 44
2, 45867, Note_on_c, 0, 53, 31
2, 45868, Control_c, 0, 64, 0
2, 45907, Control_c, 0, 64, 127
2, 45930, Note_on_c, 0, 53, 0
2, 45967, Note_on_c, 0, 65, 0
2, 45981, Note_on_c, 0, 57, 0
2, 45983, Note_on_c, 0, 62, 0
2, 45987, Note_on_c, 0, 53, 49
2, 46036, Note_on_c, 0, 62, 40
2, 46038, Note_on_c, 0, 57, 34
2, 46040, Note_on_c, 0, 65, 32
2, 46070, Note_on_c, 0, 65, 0
2, 46084, Note_on_c, 0, 46, 0
2, 46085, Note_on_c, 0, 57, 0
2, 46089, Note_on_c, 0, 62, 0
2, 46094, Note_on_c, 0, 53, 0
2, 46098, Note_on_c, 0, 69, 0
2, 46121, Note_on_c, 0, 46, 55
2, 46125, Note_on_c, 0, 53, 53
2, 46126, Note_on_c, 0, 67, 64
2, 46126, Note_on_c, 0, 57, 46
2, 46131, Note_on_c, 0, 62, 49
2, 46137, Control_c, 0, 64, 0
2, 46183, Control_c, 0, 64, 127
2, 46207, Note_on_c, 0, 46, 0
2, 46226, Note_on_c, 0, 53, 0
2, 46243, Note_on_c, 0, 46, 49
2, 46248, Note_on_c, 0, 53, 27
2, 46249, Note_on_c, 0, 57, 0
2, 46266, Note_on_c, 0, 62, 0
2, 46292, Note_on_c, 0, 67, 0
2, 46297, Note_on_c, 0, 65, 48
2, 46301, Note_on_c, 0, 57, 38
2, 46315, Note_on_c, 0, 46, 0
2, 46319, Note_on_c, 0, 57, 0
2, 46335, Note_on_c, 0, 65, 0
2, 46348, Note_on_c, 0, 53, 0
2, 46377, Note_on_c, 0, 46, 53
2, 46392, Note_on_c, 0, 46, 0
2, 46417, Control_c, 0, 64, 0
2, 46422, Note_on_c, 0, 67, 78
2, 46422, Note_on_c, 0, 44, 70
2, 46423, Note_on_c, 0, 72, 77
2, 46425, Note_on_c, 0, 51, 68
2, 46425, Note_on_c, 0, 60, 73
2, 46477, Control_c, 0, 64, 127
2, 46560, Note_on_c, 0, 67, 0
2, 46598, Note_on_c, 0, 44, 0
2, 46609, Note_on_c, 0, 72, 0
2, 46626, Note_on_c, 0, 51, 0
2, 46632, Note_on_c, 0, 60, 0
2, 46636, Note_on_c, 0, 44, 56
2, 46663, Note_on_c, 0, 44, 0
2, 46682, Note_on_c, 0, 64, 89
2, 46685, Note_on_c, 0, 60, 77
2, 46686, Note_on_c, 0, 52, 91
2, 46686, Note_on_c, 0, 44, 79
2, 46693, Control_c, 0, 64, 0
2, 46785, Control_c, 0, 64, 127
2, 46837, Note_on_c, 0, 44, 0
2, 46839, Note_on_c, 0, 64, 0
2, 46848, Note_on_c, 0, 60, 0
2, 46854, Note_on_c, 0, 52, 0
2, 46888, Note_on_c, 0, 44, 53
2, 46892, Note_on_c, 0, 63, 61
2, 46893, Note_on_c, 0, 53, 66
2, 46896, Control_c, 0, 64, 0
2, 46897, Note_on_c, 0, 60, 37
2, 46930, Control_c, 0, 64, 127
2, 46985, Note_on_c, 0, 63, 0
2, 46998, Note_on_c, 0, 60, 0
2, 47018, Note_on_c, 0, 72, 80
2, 47046, Note_on_c, 0, 72, 0
2, 47093, Note_on_c, 0, 44, 0
2, 47120, Note_on_c, 0, 44, 44
2, 47121, Note_on_c, 0, 72, 75
2, 47143, Note_on_c, 0, 53, 0
2, 47145, Note_on_c, 0, 44, 0
2, 47158, Note_on_c, 0, 72, 0
2, 47201, Control_c, 0, 64, 0
2, 47211, Note_on_c, 0, 72, 77
2, 47212, Note_on_c, 0, 64, 72
2, 47213, Note_on_c, 0, 60, 70
2, 47220, Note_on_c, 0, 70, 30
2, 47240, Note_on_c, 0, 50, 24
2, 47276, Note_on_c, 0, 70, 0
2, 47301, Note_on_c, 0, 70, 55
2, 47313, Note_on_c, 0, 72, 0
2, 47341, Control_c, 0, 64, 127
2, 47347, Note_on_c, 0, 70, 0
2, 47369, Note_on_c, 0, 60, 0
2, 47372, Note_on_c, 0, 64, 0
2, 47375, Note_on_c, 0, 50, 0
2, 47387, Note_on_c, 0, 68, 52
2, 47397, Note_on_c, 0, 68, 0
2, 47466, Note_on_c, 0, 67, 45
2, 47470, Note_on_c, 0, 60, 50
2, 47471, Note_on_c, 0, 57, 46
2, 47475, Control_c, 0, 64, 0
2, 47478, Note_on_c, 0, 55, 44
2, 47543, Note_on_c, 0, 55, 0
2, 47552, Note_on_c, 0, 50, 53
2, 47560, Note_on_c, 0, 50, 0
2, 47658, Note_on_c, 0, 43, 59
2, 47686, Note_on_c, 0, 43, 0
2, 47713, Control_c, 0, 64, 127
2, 47727, Note_on_c, 0, 31, 54
2, 47752, Note_on_c, 0, 31, 0
2, 47824, Note_on_c, 0, 57, 0
2, 47836, Note_on_c, 0, 60, 0
2, 47847, Note_on_c, 0, 67, 0
2, 47930, Note_on_c, 0, 63, 32
2, 47931, Note_on_c, 0, 59, 53
2, 47932, Note_on_c, 0, 67, 44
2, 47935, Note_on_c, 0, 55, 45
2, 47935, Note_on_c, 0, 56, 31
2, 47945, Control_c, 0, 64, 0
2, 47950, Note_on_c, 0, 55, 0
2, 48040, Note_on_c, 0, 50, 48
2, 48048, Control_c, 0, 64, 127
2, 48052, Note_on_c, 0, 50, 0
2, 48070, Control_c, 0, 64, 0
2, 48103, Note_on_c, 0, 43, 49
2, 48117, Control_c, 0, 64, 127
2, 48190, Note_on_c, 0, 55, 52
2, 48208, Note_on_c, 0, 55, 0
2, 48208, Note_on_c, 0, 56, 0
2, 48219, Note_on_c, 0, 59, 0
2, 48269, Note_on_c, 0, 67, 0
2, 48301, Note_on_c, 0, 56, 57
2, 48329, Note_on_c, 0, 56, 0
2, 48330, Note_on_c, 0, 43, 0
2, 48345, Note_on_c, 0, 63, 0
2, 48423, Note_on_c, 0, 70, 92
2, 48460, Note_on_c, 0, 70, 0
2, 48498, Note_on_c, 0, 70, 90
2, 48501, Note_on_c, 0, 61, 95
2, 48501, Note_on_c, 0, 66, 84
2, 48502, Note_on_c, 0, 55, 95
2, 48512, Control_c, 0, 64, 0
2, 48572, Control_c, 0, 64, 127
2, 48665, Note_on_c, 0, 70, 0
2, 48672, Note_on_c, 0, 66, 0
2, 48693, Note_on_c, 0, 61, 0
2, 48693, Note_on_c, 0, 54, 47
2, 48708, Note_on_c, 0, 55, 0
2, 48711, Note_on_c, 0, 54, 0
2, 48715, Note_on_c, 0, 53, 58
2, 48736, Note_on_c, 0, 53, 0
2, 48743, Note_on_c, 0, 58, 47
2, 48743, Note_on_c, 0, 67, 55
2, 48743, Control_c, 0, 64, 0
2, 48745, Note_on_c, 0, 63, 55
2, 48745, Note_on_c, 0, 52, 54
2, 48811, Control_c, 0, 64, 127
2, 48860, Note_on_c, 0, 52, 0
2, 48880, Note_on_c, 0, 58, 0
2, 48915, Note_on_c, 0, 67, 0
2, 48928, Note_on_c, 0, 63, 0
2, 48961, Note_on_c, 0, 58, 52
2, 48965, Note_on_c, 0, 36, 59
2, 48966, Note_on_c, 0, 52, 51
2, 48972, Control_c, 0, 64, 0
2, 49021, Control_c, 0, 64, 127
2, 49039, Note_on_c, 0, 52, 0
2, 49080, Note_on_c, 0, 48, 71
2, 49091, Note_on_c, 0, 36, 0
2, 49096, Note_on_c, 0, 58, 0
2, 49101, Note_on_c, 0, 48, 0
2, 49237, Note_on_c, 0, 55, 87
2, 49237, Note_on_c, 0, 70, 84
2, 49238, Note_on_c, 0, 61, 95
2, 49240, Note_on_c, 0, 66, 83
2, 49278, Control_c, 0, 64, 0
2, 49279, Note_on_c, 0, 61, 0
2, 49279, Note_on_c, 0, 70, 0
2, 49283, Note_on_c, 0, 66, 0
2, 49293, Note_on_c, 0, 61, 19
2, 49295, Note_on_c, 0, 70, 37
2, 49297, Note_on_c, 0, 66, 49
2, 49305, Control_c, 0, 64, 127
2, 49343, Note_on_c, 0, 61, 0
2, 49351, Note_on_c, 0, 70, 0
2, 49354, Note_on_c, 0, 66, 0
2, 49364, Note_on_c, 0, 55, 0
2, 49371, Note_on_c, 0, 72, 72
2, 49371, Note_on_c, 0, 63, 64
2, 49376, Note_on_c, 0, 56, 49
2, 49380, Note_on_c, 0, 68, 44
2, 49398, Note_on_c, 0, 72, 0
2, 49401, Note_on_c, 0, 63, 0
2, 49405, Note_on_c, 0, 68, 0
2, 49411, Control_c, 0, 64, 0
2, 49428, Note_on_c, 0, 55, 53
2, 49430, Control_c, 0, 64, 127
2, 49453, Note_on_c, 0, 55, 0
2, 49472, Note_on_c, 0, 56, 0
2, 49501, Note_on_c, 0, 68, 60
2, 49502, Note_on_c, 0, 63, 56
2, 49503, Note_on_c, 0, 60, 62
2, 49506, Note_on_c, 0, 53, 44
2, 49508, Control_c, 0, 64, 0
2, 49565, Control_c, 0, 64, 127
2, 49606, Note_on_c, 0, 53, 0
2, 49610, Note_on_c, 0, 60, 0
2, 49612, Note_on_c, 0, 68, 0
2, 49614, Note_on_c, 0, 63, 0
2, 49621, Note_on_c, 0, 41, 49
2, 49658, Control_c, 0, 64, 0
2, 49675, Note_on_c, 0, 56, 39
2, 49677, Note_on_c, 0, 48, 41
2, 49711, Control_c, 0, 64, 127
2, 49713, Note_on_c, 0, 56, 0
2, 49755, Note_on_c, 0, 56, 44
2, 49757, Control_c, 0, 64, 0
2, 49757, Note_on_c, 0, 64, 53
2, 49758, Note_on_c, 0, 60, 52
2, 49759, Note_on_c, 0, 48, 0
2, 49761, Note_on_c, 0, 52, 43
2, 49771, Note_on_c, 0, 41, 0
2, 49783, Note_on_c, 0, 56, 0
2, 49788, Control_c, 0, 64, 127
2, 49789, Note_on_c, 0, 60, 0
2, 49793, Note_on_c, 0, 52, 0
2, 49799, Note_on_c, 0, 64, 0
2, 49846, Note_on_c, 0, 64, 62
2, 49850, Note_on_c, 0, 52, 57
2, 49867, Note_on_c, 0, 64, 0
2, 49875, Control_c, 0, 64, 0
2, 49882, Note_on_c, 0, 52, 0
2, 49887, Note_on_c, 0, 65, 64
2, 49908, Note_on_c, 0, 65, 0
2, 49922, Note_on_c, 0, 55, 40
2, 49930, Note_on_c, 0, 67, 74
2, 49955, Note_on_c, 0, 67, 0
2, 49962, Note_on_c, 0, 55, 0
2, 49968, Note_on_c, 0, 68, 71
2, 49972, Note_on_c, 0, 56, 55
2, 49984, Note_on_c, 0, 68, 0
2, 50003, Note_on_c, 0, 56, 0
2, 50012, Note_on_c, 0, 71, 84
2, 50016, Note_on_c, 0, 59, 76
2, 50070, Control_c, 0, 64, 127
2, 50085, Note_on_c, 0, 71, 0
2, 50086, Note_on_c, 0, 59, 0
2, 50092, Note_on_c, 0, 72, 80
2, 50093, Control_c, 0, 64, 0
2, 50093, Note_on_c, 0, 60, 54
2, 50125, Control_c, 0, 64, 127
2, 50143, Note_on_c, 0, 60, 0
2, 50157, Note_on_c, 0, 72, 0
2, 50176, Control_c, 0, 64, 0
2, 50183, Note_on_c, 0, 75, 32
2, 50187, Control_c, 0, 64, 127
2, 50194, Note_on_c, 0, 75, 0
2, 50253, Note_on_c, 0, 64, 60
2, 50255, Note_on_c, 0, 76, 89
2, 50272, Control_c, 0, 64, 0
2, 50295, Note_on_c, 0, 76, 0
2, 50311, Note_on_c, 0, 79, 88
2, 50325, Note_on_c, 0, 64, 0
2, 50354, Note_on_c, 0, 79, 0
2, 50372, Note_on_c, 0, 77, 80
2, 50376, Note_on_c, 0, 61, 55
2, 50377, Note_on_c, 0, 51, 52
2, 50410, Note_on_c, 0, 77, 0
2, 50421, Control_c, 0, 64, 127
2, 50430, Note_on_c, 0, 72, 42
2, 50450, Note_on_c, 0, 51, 0
2, 50453, Note_on_c, 0, 61, 0
2, 50475, Note_on_c, 0, 72, 0
2, 50496, Note_on_c, 0, 68, 58
2, 50513, Note_on_c, 0, 56, 27
2, 50515, Note_on_c, 0, 60, 27
2, 50516, Note_on_c, 0, 50, 29
2, 50536, Control_c, 0, 64, 0
2, 50537, Note_on_c, 0, 68, 0
2, 50551, Note_on_c, 0, 67, 45
2, 50561, Control_c, 0, 64, 127
2, 50569, Note_on_c, 0, 50, 0
2, 50571, Note_on_c, 0, 56, 0
2, 50587, Note_on_c, 0, 60, 0
2, 50625, Note_on_c, 0, 60, 64
2, 50626, Note_on_c, 0, 67, 0
2, 50627, Note_on_c, 0, 54, 55
2, 50654, Note_on_c, 0, 54, 0
2, 50665, Note_on_c, 0, 60, 0
2, 50673, Control_c, 0, 64, 0
2, 50676, Note_on_c, 0, 72, 36
2, 50719, Note_on_c, 0, 72, 0
2, 50726, Control_c, 0, 64, 127
2, 50746, Control_c, 0, 64, 0
2, 50751, Note_on_c, 0, 80, 60
2, 50751, Note_on_c, 0, 65, 61
2, 50752, Note_on_c, 0, 60, 50
2, 50755, Note_on_c, 0, 68, 44
2, 50755, Note_on_c, 0, 72, 56
2, 50756, Note_on_c, 0, 54, 37
2, 50774, Note_on_c, 0, 65, 0
2, 50775, Note_on_c, 0, 68, 0
2, 50781, Note_on_c, 0, 72, 0
2, 50783, Note_on_c, 0, 54, 0
2, 50784, Note_on_c, 0, 80, 0
2, 50784, Note_on_c, 0, 60, 0
2, 50817, Note_on_c, 0, 80, 54
2, 50821, Note_on_c, 0, 68, 42
2, 50822, Note_on_c, 0, 65, 53
2, 50822, Note_on_c, 0, 54, 40
2, 50825, Note_on_c, 0, 60, 44
2, 50825, Note_on_c, 0, 72, 46
2, 50832, Control_c, 0, 64, 127
2, 50843, Note_on_c, 0, 65, 0
2, 50844, Note_on_c, 0, 68, 0
2, 50848, Note_on_c, 0, 72, 0
2, 50853, Note_on_c, 0, 80, 0
2, 50853, Note_on_c, 0, 54, 0
2, 50853, Note_on_c, 0, 60, 0
2, 50887, Control_c, 0, 64, 0
2, 50898, Note_on_c, 0, 80, 53
2, 50900, Note_on_c, 0, 68, 52
2, 50902, Note_on_c, 0, 72, 54
2, 50903, Note_on_c, 0, 65, 44
2, 50903, Note_on_c, 0, 60, 46
2, 50903, Note_on_c, 0, 54, 42
2, 50905, Control_c, 0, 64, 127
2, 50915, Note_on_c, 0, 72, 0
2, 50916, Note_on_c, 0, 65, 0
2, 50925, Note_on_c, 0, 68, 0
2, 50928, Note_on_c, 0, 60, 0
2, 50931, Note_on_c, 0, 80, 0
2, 50946, Note_on_c, 0, 54, 0
2, 50996, Control_c, 0, 64, 0
2, 50997, Note_on_c, 0, 79, 44
2, 51001, Note_on_c, 0, 70, 38
2, 51002, Note_on_c, 0, 64, 53
2, 51003, Note_on_c, 0, 75, 49
2, 51005, Note_on_c, 0, 67, 40
2, 51005, Note_on_c, 0, 59, 53
2, 51006, Note_on_c, 0, 53, 41
2, 51025, Note_on_c, 0, 64, 0
2, 51031, Note_on_c, 0, 59, 0
2, 51039, Note_on_c, 0, 53, 0
2, 51040, Control_c, 0, 64, 127
2, 51122, Note_on_c, 0, 31, 72
2, 51148, Note_on_c, 0, 31, 0
2, 51187, Note_on_c, 0, 79, 0
2, 51200, Note_on_c, 0, 75, 0
2, 51208, Note_on_c, 0, 67, 0
2, 51218, Note_on_c, 0, 70, 0
2, 51301, Note_on_c, 0, 75, 79
2, 51305, Note_on_c, 0, 71, 76
2, 51305, Note_on_c, 0, 67, 85
2, 51305, Note_on_c, 0, 53, 73
2, 51306, Note_on_c, 0, 63, 83
2, 51308, Control_c, 0, 64, 0
2, 51310, Note_on_c, 0, 59, 71
2, 51361, Control_c, 0, 64, 127
2, 51433, Note_on_c, 0, 67, 0
2, 51436, Note_on_c, 0, 71, 0
2, 51440, Note_on_c, 0, 53, 0
2, 51441, Note_on_c, 0, 59, 0
2, 51442, Note_on_c, 0, 75, 0
2, 51444, Note_on_c, 0, 63, 0
2, 51518, Note_on_c, 0, 72, 62
2, 51520, Note_on_c, 0, 62, 57
2, 51520, Note_on_c, 0, 67, 61
2, 51523, Note_on_c, 0, 52, 53
2, 51525, Note_on_c, 0, 57, 43
2, 51527, Control_c, 0, 64, 0
2, 51576, Control_c, 0, 64, 127
2, 51660, Note_on_c, 0, 52, 0
2, 51667, Note_on_c, 0, 57, 0
2, 51680, Note_on_c, 0, 62, 0
2, 51687, Note_on_c, 0, 67, 0
2, 51700, Note_on_c, 0, 72, 0
2, 51816, Note_on_c, 0, 87, 75
2, 51818, Note_on_c, 0, 75, 81
2, 51820, Note_on_c, 0, 61, 63
2, 51820, Note_on_c, 0, 55, 80
2, 51821, Note_on_c, 0, 65, 76
2, 51821, Note_on_c, 0, 82, 69
2, 51828, Control_c, 0, 64, 0
2, 51870, Control_c, 0, 64, 127
2, 51961, Note_on_c, 0, 75, 0
2, 51963, Note_on_c, 0, 82, 0
2, 51966, Note_on_c, 0, 55, 0
2, 51966, Note_on_c, 0, 65, 0
2, 51968, Note_on_c, 0, 87, 0
2, 51980, Note_on_c, 0, 61, 0
2, 52041, Note_on_c, 0, 90, 77
2, 52042, Note_on_c, 0, 78, 73
2, 52043, Note_on_c, 0, 65, 83
2, 52043, Note_on_c, 0, 60, 78
2, 52043, Note_on_c, 0, 54, 80
2, 52047, Note_on_c, 0, 85, 63
2, 52047, Control_c, 0, 64, 0
2, 52054, Note_on_c, 0, 85, 0
2, 52065, Note_on_c, 0, 85, 27
2, 52100, Control_c, 0, 64, 127
2, 52179, Note_on_c, 0, 65, 0
2, 52182, Note_on_c, 0, 78, 0
2, 52182, Note_on_c, 0, 85, 0
2, 52184, Note_on_c, 0, 60, 0
2, 52189, Note_on_c, 0, 90, 0
2, 52203, Note_on_c, 0, 54, 0
2, 52277, Note_on_c, 0, 93, 50
2, 52277, Note_on_c, 0, 81, 55
2, 52277, Note_on_c, 0, 63, 57
2, 52280, Note_on_c, 0, 59, 59
2, 52280, Note_on_c, 0, 88, 53
2, 52281, Note_on_c, 0, 85, 42
2, 52282, Note_on_c, 0, 53, 47
2, 52283, Control_c, 0, 64, 0
2, 52285, Note_on_c, 0, 91, 31
2, 52302, Note_on_c, 0, 63, 0
2, 52305, Control_c, 0, 64, 127
2, 52306, Note_on_c, 0, 59, 0
2, 52309, Note_on_c, 0, 81, 0
2, 52312, Note_on_c, 0, 85, 0
2, 52312, Note_on_c, 0, 88, 0
2, 52312, Note_on_c, 0, 53, 0
2, 52313, Note_on_c, 0, 91, 0
2, 52319, Note_on_c, 0, 93, 0
2, 52401, Note_on_c, 0, 44, 60
2, 52403, Note_on_c, 0, 96, 82
2, 52403, Note_on_c, 0, 54, 69
2, 52430, Control_c, 0, 64, 0
2, 52434, Note_on_c, 0, 96, 0
2, 52465, Note_on_c, 0, 95, 55
2, 52506, Note_on_c, 0, 54, 0
2, 52508, Note_on_c, 0, 44, 0
2, 52517, Note_on_c, 0, 95, 0
2, 52533, Note_on_c, 0, 43, 66
2, 52536, Note_on_c, 0, 94, 65
2, 52564, Note_on_c, 0, 43, 0
2, 52570, Control_c, 0, 64, 127
2, 52576, Note_on_c, 0, 94, 0
2, 52595, Note_on_c, 0, 90, 42
2, 52646, Note_on_c, 0, 90, 0
2, 52660, Note_on_c, 0, 93, 74
2, 52701, Note_on_c, 0, 58, 37
2, 52702, Note_on_c, 0, 62, 24
2, 52706, Control_c, 0, 64, 0
2, 52707, Note_on_c, 0, 93, 0
2, 52707, Note_on_c, 0, 55, 36
2, 52713, Note_on_c, 0, 62, 0
2, 52713, Note_on_c, 0, 89, 60
2, 52720, Note_on_c, 0, 55, 0
2, 52726, Note_on_c, 0, 58, 0
2, 52726, Control_c, 0, 64, 127
2, 52785, Note_on_c, 0, 89, 0
2, 52788, Note_on_c, 0, 50, 49
2, 52801, Note_on_c, 0, 86, 37
2, 52812, Note_on_c, 0, 86, 0
2, 52833, Note_on_c, 0, 58, 47
2, 52836, Control_c, 0, 64, 0
2, 52843, Note_on_c, 0, 89, 50
2, 52853, Note_on_c, 0, 89, 0
2, 52878, Note_on_c, 0, 50, 0
2, 52903, Control_c, 0, 64, 127
2, 52915, Note_on_c, 0, 58, 0
2, 52922, Note_on_c, 0, 51, 56
2, 52947, Control_c, 0, 64, 0
2, 52966, Note_on_c, 0, 58, 42
2, 53015, Control_c, 0, 64, 127
2, 53019, Note_on_c, 0, 58, 0
2, 53030, Note_on_c, 0, 51, 0
2, 53047, Note_on_c, 0, 52, 63
2, 53075, Control_c, 0, 64, 0
2, 53092, Note_on_c, 0, 52, 0
2, 53097, Note_on_c, 0, 58, 47
2, 53100, Note_on_c, 0, 74, 53
2, 53100, Note_on_c, 0, 72, 47
2, 53105, Note_on_c, 0, 64, 25
2, 53110, Note_on_c, 0, 74, 0
2, 53148, Note_on_c, 0, 58, 0
2, 53152, Note_on_c, 0, 72, 0
2, 53171, Note_on_c, 0, 64, 0
2, 53173, Control_c, 0, 64, 127
2, 53173, Note_on_c, 0, 48, 68
2, 53197, Control_c, 0, 64, 0
2, 53210, Note_on_c, 0, 48, 0
2, 53222, Note_on_c, 0, 68, 31
2, 53226, Note_on_c, 0, 52, 65
2, 53226, Note_on_c, 0, 58, 31
2, 53230, Note_on_c, 0, 64, 38
2, 53231, Note_on_c, 0, 69, 58
2, 53231, Note_on_c, 0, 61, 39
2, 53261, Note_on_c, 0, 69, 0
2, 53281, Control_c, 0, 64, 127
2, 53284, Note_on_c, 0, 68, 0
2, 53292, Note_on_c, 0, 61, 0
2, 53295, Note_on_c, 0, 64, 0
2, 53297, Note_on_c, 0, 58, 0
2, 53322, Note_on_c, 0, 52, 0
2, 53340, Control_c, 0, 64, 0
2, 53356, Note_on_c, 0, 67, 69
2, 53357, Note_on_c, 0, 50, 47
2, 53357, Note_on_c, 0, 58, 57
2, 53358, Note_on_c, 0, 61, 55
2, 53411, Control_c, 0, 64, 127
2, 53412, Note_on_c, 0, 58, 0
2, 53412, Note_on_c, 0, 50, 0
2, 53413, Note_on_c, 0, 67, 0
2, 53421, Note_on_c, 0, 61, 0
2, 53438, Note_on_c, 0, 48, 58
2, 53440, Note_on_c, 0, 58, 36
2, 53441, Note_on_c, 0, 64, 60
2, 53441, Note_on_c, 0, 61, 34
2, 53450, Control_c, 0, 64, 0
2, 53458, Note_on_c, 0, 58, 0
2, 53468, Note_on_c, 0, 48, 0
2, 53478, Note_on_c, 0, 64, 0
2, 53478, Note_on_c, 0, 42, 59
2, 53491, Control_c, 0, 64, 127
2, 53493, Note_on_c, 0, 61, 0
2, 53530, Note_on_c, 0, 42, 0
2, 53561, Note_on_c, 0, 68, 67
2, 53563, Note_on_c, 0, 56, 46
2, 53565, Note_on_c, 0, 60, 62
2, 53566, Note_on_c, 0, 41, 55
2, 53575, Control_c, 0, 64, 0
2, 53626, Control_c, 0, 64, 127
2, 53657, Note_on_c, 0, 60, 0
2, 53664, Note_on_c, 0, 56, 0
2, 53688, Note_on_c, 0, 68, 0
2, 53692, Note_on_c, 0, 56, 44
2, 53693, Note_on_c, 0, 60, 49
2, 53696, Note_on_c, 0, 52, 62
2, 53727, Note_on_c, 0, 56, 0
2, 53729, Note_on_c, 0, 41, 0
2, 53733, Note_on_c, 0, 60, 0
2, 53741, Note_on_c, 0, 52, 0
2, 53801, Note_on_c, 0, 65, 61
2, 53822, Note_on_c, 0, 65, 0
2, 53843, Note_on_c, 0, 70, 80
2, 53870, Note_on_c, 0, 70, 0
2, 53871, Control_c, 0, 64, 0
2, 53885, Note_on_c, 0, 63, 65
2, 53886, Note_on_c, 0, 75, 73
2, 53890, Note_on_c, 0, 53, 53
2, 53891, Note_on_c, 0, 58, 35
2, 53918, Note_on_c, 0, 53, 0
2, 53922, Note_on_c, 0, 75, 0
2, 53933, Note_on_c, 0, 58, 0
2, 53936, Note_on_c, 0, 72, 34
2, 53938, Note_on_c, 0, 63, 0
2, 53946, Control_c, 0, 64, 127
2, 53949, Note_on_c, 0, 72, 0
2, 53955, Control_c, 0, 64, 0
2, 53968, Note_on_c, 0, 65, 72
2, 53970, Note_on_c, 0, 77, 74
2, 53972, Note_on_c, 0, 60, 58
2, 53972, Note_on_c, 0, 55, 61
2, 54025, Control_c, 0, 64, 127
2, 54071, Note_on_c, 0, 77, 0
2, 54085, Note_on_c, 0, 65, 0
2, 54089, Note_on_c, 0, 55, 0
2, 54092, Note_on_c, 0, 60, 0
2, 54145, Control_c, 0, 64, 0
2, 54152, Note_on_c, 0, 63, 56
2, 54155, Note_on_c, 0, 53, 42
2, 54156, Note_on_c, 0, 58, 42
2, 54184, Note_on_c, 0, 63, 0
2, 54187, Note_on_c, 0, 53, 0
2, 54193, Note_on_c, 0, 79, 47
2, 54194, Note_on_c, 0, 58, 0
2, 54201, Control_c, 0, 64, 127
2, 54206, Control_c, 0, 64, 0
2, 54210, Note_on_c, 0, 79, 0
2, 54236, Note_on_c, 0, 80, 44
2, 54244, Note_on_c, 0, 80, 0
2, 54268, Note_on_c, 0, 48, 59
2, 54271, Note_on_c, 0, 41, 61
2, 54283, Note_on_c, 0, 84, 26
2, 54291, Note_on_c, 0, 84, 0
2, 54296, Note_on_c, 0, 41, 0
2, 54304, Note_on_c, 0, 48, 0
2, 54316, Control_c, 0, 64, 127
2, 54352, Note_on_c, 0, 91, 92
2, 54365, Control_c, 0, 64, 0
2, 54367, Note_on_c, 0, 56, 35
2, 54368, Note_on_c, 0, 60, 43
2, 54372, Note_on_c, 0, 64, 26
2, 54373, Note_on_c, 0, 65, 41
2, 54394, Note_on_c, 0, 65, 0
2, 54409, Note_on_c, 0, 64, 0
2, 54423, Note_on_c, 0, 91, 0
2, 54440, Note_on_c, 0, 89, 75
2, 54461, Note_on_c, 0, 89, 0
2, 54470, Note_on_c, 0, 60, 0
2, 54470, Control_c, 0, 64, 127
2, 54477, Note_on_c, 0, 56, 0
2, 54478, Note_on_c, 0, 84, 76
2, 54498, Note_on_c, 0, 84, 0
2, 54506, Control_c, 0, 64, 0
2, 54513, Note_on_c, 0, 51, 58
2, 54516, Note_on_c, 0, 61, 37
2, 54516, Note_on_c, 0, 80, 59
2, 54536, Note_on_c, 0, 56, 23
2, 54539, Note_on_c, 0, 80, 0
2, 54545, Control_c, 0, 64, 127
2, 54563, Note_on_c, 0, 61, 0
2, 54576, Note_on_c, 0, 51, 0
2, 54581, Note_on_c, 0, 56, 0
2, 54602, Note_on_c, 0, 79, 80
2, 54605, Note_on_c, 0, 50, 68
2, 54605, Note_on_c, 0, 56, 44
2, 54606, Note_on_c, 0, 60, 62
2, 54612, Control_c, 0, 64, 0
2, 54637, Note_on_c, 0, 79, 0
2, 54640, Note_on_c, 0, 50, 0
2, 54647, Note_on_c, 0, 80, 50
2, 54652, Note_on_c, 0, 56, 0
2, 54657, Note_on_c, 0, 60, 0
2, 54663, Note_on_c, 0, 79, 43
2, 54680, Note_on_c, 0, 80, 0
2, 54693, Note_on_c, 0, 79, 0
2, 54698, Control_c, 0, 64, 127
2, 54702, Note_on_c, 0, 77, 47
2, 54720, Note_on_c, 0, 77, 0
2, 54743, Note_on_c, 0, 72, 64
2, 54748, Note_on_c, 0, 74, 25
2, 54755, Note_on_c, 0, 74, 0
2, 54758, Note_on_c, 0, 60, 31
2, 54760, Note_on_c, 0, 72, 0
2, 54760, Note_on_c, 0, 54, 29
2, 54763, Control_c, 0, 64, 0
2, 54765, Note_on_c, 0, 73, 33
2, 54769, Note_on_c, 0, 60, 0
2, 54772, Note_on_c, 0, 73, 0
2, 54776, Note_on_c, 0, 54, 0
2, 54782, Note_on_c, 0, 68, 52
2, 54828, Control_c, 0, 64, 127
2, 54833, Note_on_c, 0, 68, 0
2, 54855, Note_on_c, 0, 67, 58
2, 54865, Note_on_c, 0, 56, 33
2, 54865, Note_on_c, 0, 60, 40
2, 54870, Note_on_c, 0, 50, 31
2, 54872, Control_c, 0, 64, 0
2, 54880, Note_on_c, 0, 60, 0
2, 54886, Note_on_c, 0, 50, 0
2, 54886, Note_on_c, 0, 67, 0
2, 54900, Note_on_c, 0, 56, 0
2, 54908, Note_on_c, 0, 70, 51
2, 54948, Control_c, 0, 64, 127
2, 54956, Note_on_c, 0, 70, 0
2, 54976, Note_on_c, 0, 68, 77
2, 54990, Note_on_c, 0, 60, 50
2, 54990, Note_on_c, 0, 54, 42
2, 55006, Note_on_c, 0, 60, 0
2, 55011, Note_on_c, 0, 68, 0
2, 55016, Control_c, 0, 64, 0
2, 55020, Note_on_c, 0, 54, 0
2, 55030, Note_on_c, 0, 67, 57
2, 55040, Control_c, 0, 64, 127
2, 55088, Note_on_c, 0, 67, 0
2, 55117, Note_on_c, 0, 48, 20
2, 55124, Note_on_c, 0, 48, 0
2, 55147, Note_on_c, 0, 59, 36
2, 55148, Note_on_c, 0, 53, 57
2, 55148, Control_c, 0, 64, 0
2, 55202, Note_on_c, 0, 63, 54
2, 55206, Control_c, 0, 64, 127
2, 55224, Note_on_c, 0, 63, 0
2, 55235, Note_on_c, 0, 53, 0
2, 55245, Note_on_c, 0, 67, 75
2, 55260, Note_on_c, 0, 59, 0
2, 55263, Control_c, 0, 64, 0
2, 55267, Note_on_c, 0, 67, 0
2, 55283, Note_on_c, 0, 70, 72
2, 55310, Note_on_c, 0, 70, 0
2, 55330, Note_on_c, 0, 76, 64
2, 55340, Note_on_c, 0, 76, 0
2, 55341, Control_c, 0, 64, 127
2, 55348, Control_c, 0, 64, 0
2, 55368, Note_on_c, 0, 53, 57
2, 55368, Note_on_c, 0, 59, 58
2, 55368, Note_on_c, 0, 63, 56
2, 55370, Note_on_c, 0, 79, 63
2, 55378, Note_on_c, 0, 63, 0
2, 55378, Note_on_c, 0, 59, 0
2, 55380, Note_on_c, 0, 53, 0
2, 55393, Note_on_c, 0, 79, 0
2, 55408, Control_c, 0, 64, 127
2, 55410, Note_on_c, 0, 82, 67
2, 55437, Note_on_c, 0, 82, 0
2, 55450, Note_on_c, 0, 87, 72
2, 55466, Note_on_c, 0, 87, 0
2, 55477, Note_on_c, 0, 49, 60
2, 55480, Note_on_c, 0, 59, 51
2, 55487, Control_c, 0, 64, 0
2, 55492, Note_on_c, 0, 59, 0
2, 55492, Note_on_c, 0, 91, 70
2, 55500, Note_on_c, 0, 49, 0
2, 55510, Note_on_c, 0, 91, 0
2, 55518, Control_c, 0, 64, 127
2, 55531, Note_on_c, 0, 94, 71
2, 55551, Note_on_c, 0, 94, 0
2, 55568, Note_on_c, 0, 99, 72
2, 55593, Note_on_c, 0, 99, 0
2, 55615, Note_on_c, 0, 98, 77
2, 55637, Note_on_c, 0, 98, 0
2, 55648, Note_on_c, 0, 36, 48
2, 55651, Control_c, 0, 64, 0
2, 55656, Note_on_c, 0, 96, 74
2, 55656, Note_on_c, 0, 52, 52
2, 55668, Note_on_c, 0, 36, 0
2, 55682, Control_c, 0, 64, 127
2, 55692, Note_on_c, 0, 52, 0
2, 55723, Note_on_c, 0, 96, 0
2, 55737, Note_on_c, 0, 91, 65
2, 55780, Note_on_c, 0, 91, 0
2, 55781, Note_on_c, 0, 62, 45
2, 55783, Note_on_c, 0, 57, 41
2, 55785, Note_on_c, 0, 52, 37
2, 55795, Note_on_c, 0, 86, 20
2, 55813, Note_on_c, 0, 57, 0
2, 55815, Note_on_c, 0, 52, 0
2, 55828, Note_on_c, 0, 62, 0
2, 55842, Note_on_c, 0, 86, 0
2, 55863, Note_on_c, 0, 94, 80
2, 55896, Note_on_c, 0, 94, 0
2, 55911, Control_c, 0, 64, 0
2, 55911, Note_on_c, 0, 65, 58
2, 55913, Note_on_c, 0, 60, 55
2, 55913, Note_on_c, 0, 89, 70
2, 55913, Note_on_c, 0, 55, 56
2, 55948, Control_c, 0, 64, 127
2, 55981, Note_on_c, 0, 89, 0
2, 55987, Note_on_c, 0, 84, 66
2, 56012, Note_on_c, 0, 84, 0
2, 56051, Note_on_c, 0, 60, 0
2, 56053, Note_on_c, 0, 55, 0
2, 56054, Note_on_c, 0, 65, 0
2, 56108, Note_on_c, 0, 87, 84
2, 56148, Note_on_c, 0, 87, 0
2, 56157, Note_on_c, 0, 63, 56
2, 56162, Note_on_c, 0, 82, 68
2, 56165, Note_on_c, 0, 58, 39
2, 56167, Note_on_c, 0, 87, 32
2, 56167, Note_on_c, 0, 53, 33
2, 56173, Control_c, 0, 64, 0
2, 56203, Note_on_c, 0, 87, 0
2, 56203, Control_c, 0, 64, 127
2, 56236, Note_on_c, 0, 77, 67
2, 56248, Note_on_c, 0, 63, 0
2, 56262, Note_on_c, 0, 53, 0
2, 56263, Note_on_c, 0, 82, 0
2, 56273, Note_on_c, 0, 58, 0
2, 56274, Note_on_c, 0, 77, 0
2, 56356, Note_on_c, 0, 49, 57
2, 56357, Note_on_c, 0, 56, 50
2, 56358, Note_on_c, 0, 77, 85
2, 56358, Note_on_c, 0, 84, 87
2, 56360, Note_on_c, 0, 59, 39
2, 56366, Control_c, 0, 64, 0
2, 56372, Note_on_c, 0, 59, 0
2, 56404, Note_on_c, 0, 56, 0
2, 56407, Control_c, 0, 64, 127
2, 56410, Note_on_c, 0, 84, 0
2, 56412, Note_on_c, 0, 49, 0
2, 56414, Note_on_c, 0, 77, 0
2, 56485, Note_on_c, 0, 54, 81
2, 56486, Note_on_c, 0, 72, 72
2, 56523, Note_on_c, 0, 72, 0
2, 56526, Control_c, 0, 64, 0
2, 56555, Control_c, 0, 64, 127
2, 56610, Note_on_c, 0, 44, 53
2, 56625, Note_on_c, 0, 54, 0
2, 56648, Note_on_c, 0, 44, 0
2, 56657, Control_c, 0, 64, 0
2, 56660, Note_on_c, 0, 43, 54
2, 56661, Note_on_c, 0, 70, 60
2, 56665, Note_on_c, 0, 53, 48
2, 56683, Note_on_c, 0, 53, 0
2, 56685, Note_on_c, 0, 43, 0
2, 56693, Control_c, 0, 64, 127
2, 56728, Note_on_c, 0, 70, 0
2, 56805, Control_c, 0, 64, 0
2, 56806, Note_on_c, 0, 44, 67
2, 56806, Note_on_c, 0, 54, 73
2, 56843, Control_c, 0, 64, 127
2, 56899, Note_on_c, 0, 54, 0
2, 56908, Note_on_c, 0, 44, 0
2, 56928, Note_on_c, 0, 58, 44
2, 56930, Note_on_c, 0, 65, 60
2, 56931, Note_on_c, 0, 61, 49
2, 56932, Control_c, 0, 64, 0
2, 56933, Note_on_c, 0, 53, 58
2, 56941, Note_on_c, 0, 43, 36
2, 56945, Note_on_c, 0, 53, 0
2, 56959, Note_on_c, 0, 43, 0
2, 56966, Control_c, 0, 64, 127
2, 56977, Note_on_c, 0, 65, 0
2, 56986, Note_on_c, 0, 58, 0
2, 56996, Note_on_c, 0, 61, 0
2, 57022, Note_on_c, 0, 43, 55
2, 57037, Note_on_c, 0, 43, 0
2, 57052, Control_c, 0, 64, 0
2, 57056, Note_on_c, 0, 37, 51
2, 57061, Note_on_c, 0, 53, 58
2, 57083, Control_c, 0, 64, 127
2, 57137, Note_on_c, 0, 53, 0
2, 57148, Note_on_c, 0, 37, 0
2, 57151, Note_on_c, 0, 52, 65
2, 57172, Control_c, 0, 64, 0
2, 57178, Note_on_c, 0, 36, 54
2, 57206, Control_c, 0, 64, 127
2, 57234, Note_on_c, 0, 52, 0
2, 57243, Note_on_c, 0, 60, 73
2, 57265, Note_on_c, 0, 43, 36
2, 57279, Note_on_c, 0, 60, 0
2, 57279, Note_on_c, 0, 36, 0
2, 57280, Note_on_c, 0, 43, 0
2, 57317, Control_c, 0, 64, 0
2, 57323, Note_on_c, 0, 38, 58
2, 57325, Note_on_c, 0, 53, 76
2, 57371, Note_on_c, 0, 53, 0
2, 57372, Note_on_c, 0, 60, 53
2, 57403, Note_on_c, 0, 53, 54
2, 57404, Note_on_c, 0, 60, 0
2, 57406, Control_c, 0, 64, 127
2, 57421, Note_on_c, 0, 53, 0
2, 57428, Note_on_c, 0, 38, 0
2, 57435, Control_c, 0, 64, 0
2, 57448, Note_on_c, 0, 39, 42
2, 57453, Note_on_c, 0, 54, 43
2, 57460, Note_on_c, 0, 54, 0
2, 57527, Note_on_c, 0, 60, 84
2, 57555, Note_on_c, 0, 39, 0
2, 57558, Note_on_c, 0, 60, 0
2, 57570, Note_on_c, 0, 40, 46
2, 57573, Note_on_c, 0, 55, 43
2, 57604, Note_on_c, 0, 55, 0
2, 57648, Note_on_c, 0, 39, 43
2, 57657, Note_on_c, 0, 55, 68
2, 57674, Note_on_c, 0, 55, 0
2, 57686, Note_on_c, 0, 39, 0
2, 57690, Note_on_c, 0, 40, 0
2, 57697, Note_on_c, 0, 41, 55
2, 57702, Note_on_c, 0, 56, 53
2, 57715, Note_on_c, 0, 41, 0
2, 57723, Note_on_c, 0, 56, 0
2, 57773, Control_c, 0, 64, 127
2, 57778, Note_on_c, 0, 60, 68
2, 57786, Note_on_c, 0, 48, 63
2, 57791, Note_on_c, 0, 60, 0
2, 57812, Note_on_c, 0, 48, 0
2, 57815, Control_c, 0, 64, 0
2, 57826, Note_on_c, 0, 64, 50
2, 57826, Note_on_c, 0, 52, 63
2, 57826, Note_on_c, 0, 56, 63
2, 57830, Note_on_c, 0, 68, 53
2, 57831, Note_on_c, 0, 60, 58
2, 57850, Note_on_c, 0, 68, 0
2, 57876, Note_on_c, 0, 60, 0
2, 57877, Note_on_c, 0, 56, 0
2, 57877, Control_c, 0, 64, 127
2, 57884, Note_on_c, 0, 52, 0
2, 57886, Note_on_c, 0, 64, 0
2, 57906, Note_on_c, 0, 67, 73
2, 57907, Note_on_c, 0, 56, 69
2, 57910, Note_on_c, 0, 60, 71
2, 57911, Note_on_c, 0, 52, 69
2, 57911, Control_c, 0, 64, 0
2, 57915, Note_on_c, 0, 64, 35
2, 57976, Control_c, 0, 64, 127
2, 57987, Note_on_c, 0, 64, 0
2, 57989, Note_on_c, 0, 56, 0
2, 57991, Note_on_c, 0, 52, 0
2, 57993, Note_on_c, 0, 60, 0
2, 57994, Note_on_c, 0, 67, 0
2, 58031, Note_on_c, 0, 65, 62
2, 58031, Control_c, 0, 64, 0
2, 58032, Note_on_c, 0, 56, 56
2, 58032, Note_on_c, 0, 50, 50
2, 58033, Note_on_c, 0, 60, 60
2, 58055, Note_on_c, 0, 60, 0
2, 58059, Note_on_c, 0, 65, 0
2, 58067, Note_on_c, 0, 56, 0
2, 58077, Note_on_c, 0, 50, 0
2, 58090, Control_c, 0, 64, 127
2, 58140, Control_c, 0, 64, 0
2, 58151, Note_on_c, 0, 60, 64
2, 58152, Note_on_c, 0, 56, 53
2, 58153, Note_on_c, 0, 53, 53
2, 58158, Note_on_c, 0, 49, 31
2, 58163, Note_on_c, 0, 53, 0
2, 58166, Note_on_c, 0, 49, 0
2, 58167, Note_on_c, 0, 56, 0
2, 58177, Note_on_c, 0, 60, 0
2, 58221, Control_c, 0, 64, 127
2, 58255, Control_c, 0, 64, 0
2, 58268, Note_on_c, 0, 56, 61
2, 58270, Note_on_c, 0, 52, 67
2, 58272, Note_on_c, 0, 64, 54
2, 58272, Note_on_c, 0, 53, 64
2, 58272, Note_on_c, 0, 60, 52
2, 58292, Note_on_c, 0, 53, 0
2, 58296, Note_on_c, 0, 52, 0
2, 58307, Note_on_c, 0, 60, 0
2, 58309, Note_on_c, 0, 64, 0
2, 58310, Note_on_c, 0, 56, 0
2, 58323, Note_on_c, 0, 49, 27
2, 58390, Note_on_c, 0, 49, 0
2, 58396, Note_on_c, 0, 56, 42
2, 58396, Note_on_c, 0, 62, 55
2, 58397, Note_on_c, 0, 50, 48
2, 58398, Note_on_c, 0, 53, 50
2, 58398, Note_on_c, 0, 60, 49
2, 58439, Note_on_c, 0, 50, 0
2, 58493, Control_c, 0, 64, 127
2, 58520, Note_on_c, 0, 48, 80
2, 58526, Note_on_c, 0, 53, 0
2, 58527, Control_c, 0, 64, 0
2, 58571, Note_on_c, 0, 53, 40
2, 58577, Control_c, 0, 64, 127
2, 58596, Note_on_c, 0, 53, 0
2, 58602, Note_on_c, 0, 48, 0
2, 58604, Note_on_c, 0, 60, 0
2, 58612, Note_on_c, 0, 56, 0
2, 58614, Note_on_c, 0, 62, 0
2, 58658, Note_on_c, 0, 38, 44
2, 58683, Control_c, 0, 64, 0
2, 58697, Note_on_c, 0, 68, 71
2, 58698, Note_on_c, 0, 60, 74
2, 58703, Note_on_c, 0, 56, 48
2, 58705, Note_on_c, 0, 38, 0
2, 58715, Control_c, 0, 64, 127
2, 58726, Note_on_c, 0, 56, 0
2, 58734, Note_on_c, 0, 60, 0
2, 58753, Note_on_c, 0, 68, 0
2, 58826, Note_on_c, 0, 56, 57
2, 58826, Note_on_c, 0, 50, 67
2, 58827, Note_on_c, 0, 80, 80
2, 58827, Note_on_c, 0, 60, 63
2, 58828, Note_on_c, 0, 68, 87
2, 58832, Control_c, 0, 64, 0
2, 58861, Control_c, 0, 64, 127
2, 58878, Note_on_c, 0, 50, 0
2, 58889, Note_on_c, 0, 56, 0
2, 58898, Note_on_c, 0, 60, 0
2, 58914, Note_on_c, 0, 80, 0
2, 58914, Note_on_c, 0, 68, 0
2, 58953, Note_on_c, 0, 60, 59
2, 58956, Note_on_c, 0, 79, 69
2, 58956, Note_on_c, 0, 75, 69
2, 58957, Control_c, 0, 64, 0
2, 58958, Note_on_c, 0, 54, 58
2, 58960, Note_on_c, 0, 67, 73
2, 58975, Note_on_c, 0, 60, 0
2, 58988, Note_on_c, 0, 54, 0
2, 58992, Note_on_c, 0, 79, 0
2, 59001, Note_on_c, 0, 75, 0
2, 59010, Note_on_c, 0, 67, 0
2, 59017, Control_c, 0, 64, 127
2, 59050, Note_on_c, 0, 54, 44
2, 59057, Note_on_c, 0, 54, 0
2, 59063, Control_c, 0, 64, 0
2, 59082, Note_on_c, 0, 70, 49
2, 59085, Note_on_c, 0, 58, 64
2, 59087, Note_on_c, 0, 67, 44
2, 59088, Note_on_c, 0, 63, 55
2, 59092, Note_on_c, 0, 59, 60
2, 59102, Control_c, 0, 64, 127
2, 59107, Note_on_c, 0, 58, 0
2, 59132, Note_on_c, 0, 70, 0
2, 59133, Note_on_c, 0, 67, 0
2, 59149, Note_on_c, 0, 63, 0
2, 59153, Note_on_c, 0, 59, 0
2, 59212, Note_on_c, 0, 63, 60
2, 59213, Control_c, 0, 64, 0
2, 59216, Note_on_c, 0, 59, 59
2, 59217, Note_on_c, 0, 67, 58
2, 59240, Control_c, 0, 64, 127
2, 59267, Note_on_c, 0, 59, 0
2, 59269, Note_on_c, 0, 63, 0
2, 59280, Note_on_c, 0, 67, 0
2, 59302, Note_on_c, 0, 37, 58
2, 59338, Control_c, 0, 64, 0
2, 59343, Note_on_c, 0, 44, 17
2, 59345, Note_on_c, 0, 53, 52
2, 59345, Note_on_c, 0, 63, 40
2, 59346, Note_on_c, 0, 56, 37
2, 59346, Note_on_c, 0, 59, 36
2, 59361, Note_on_c, 0, 61, 15
2, 59363, Note_on_c, 0, 37, 0
2, 59372, Note_on_c, 0, 53, 0
2, 59383, Note_on_c, 0, 56, 0
2, 59384, Note_on_c, 0, 59, 0
2, 59388, Control_c, 0, 64, 127
2, 59391, Note_on_c, 0, 61, 0
2, 59391, Note_on_c, 0, 63, 0
2, 59436, Note_on_c, 0, 53, 37
2, 59440, Note_on_c, 0, 52, 29
2, 59441, Control_c, 0, 64, 0
2, 59448, Note_on_c, 0, 52, 0
2, 59449, Note_on_c, 0, 53, 0
2, 59511, Note_on_c, 0, 70, 62
2, 59511, Note_on_c, 0, 53, 54
2, 59512, Note_on_c, 0, 63, 56
2, 59512, Note_on_c, 0, 67, 54
2, 59513, Note_on_c, 0, 59, 63
2, 59524, Note_on_c, 0, 53, 0
2, 59531, Note_on_c, 0, 59, 0
2, 59531, Control_c, 0, 64, 127
2, 59535, Note_on_c, 0, 63, 0
2, 59543, Note_on_c, 0, 67, 0
2, 59543, Note_on_c, 0, 70, 0
2, 59547, Control_c, 0, 64, 0
2, 59581, Control_c, 0, 64, 127
2, 59588, Note_on_c, 0, 53, 28
2, 59588, Note_on_c, 0, 63, 58
2, 59591, Note_on_c, 0, 70, 43
2, 59592, Note_on_c, 0, 59, 62
2, 59595, Note_on_c, 0, 44, 0
2, 59596, Note_on_c, 0, 53, 0
2, 59607, Note_on_c, 0, 70, 0
2, 59629, Note_on_c, 0, 63, 0
2, 59630, Note_on_c, 0, 59, 0
2, 59676, Note_on_c, 0, 67, 59
2, 59676, Note_on_c, 0, 36, 61
2, 59678, Note_on_c, 0, 57, 49
2, 59678, Note_on_c, 0, 62, 58
2, 59680, Control_c, 0, 64, 0
2, 59718, Control_c, 0, 64, 127
2, 59760, Note_on_c, 0, 57, 0
2, 59763, Note_on_c, 0, 43, 70
2, 59769, Note_on_c, 0, 62, 0
2, 59797, Note_on_c, 0, 67, 0
2, 59801, Note_on_c, 0, 36, 0
2, 59842, Note_on_c, 0, 52, 79
2, 59844, Note_on_c, 0, 43, 0
2, 59860, Note_on_c, 0, 52, 0
2, 59922, Note_on_c, 0, 79, 75
2, 59922, Note_on_c, 0, 74, 88
2, 59923, Note_on_c, 0, 64, 82
2, 59925, Note_on_c, 0, 69, 81
2, 59926, Note_on_c, 0, 78, 55
2, 59954, Note_on_c, 0, 78, 0
2, 60029, Note_on_c, 0, 79, 0
2, 60033, Note_on_c, 0, 64, 0
2, 60034, Note_on_c, 0, 74, 0
2, 60051, Note_on_c, 0, 69, 0
2, 60138, Note_on_c, 0, 72, 57
2, 60141, Note_on_c, 0, 67, 58
2, 60143, Note_on_c, 0, 62, 39
2, 60143, Note_on_c, 0, 57, 55
2, 60271, Note_on_c, 0, 72, 0
2, 60276, Note_on_c, 0, 67, 0
2, 60281, Note_on_c, 0, 57, 0
2, 60294, Note_on_c, 0, 62, 0
2, 60373, Note_on_c, 0, 60, 38
2, 60375, Note_on_c, 0, 62, 56
2, 60382, Note_on_c, 0, 55, 35
2, 60382, Note_on_c, 0, 48, 41
2, 60383, Control_c, 0, 64, 0
2, 60413, Control_c, 0, 64, 127
2, 60459, Note_on_c, 0, 60, 0
2, 60461, Note_on_c, 0, 62, 0
2, 60514, Note_on_c, 0, 48, 0
2, 60525, Note_on_c, 0, 55, 0
2, 60631, Note_on_c, 0, 75, 92
2, 60671, Note_on_c, 0, 75, 0
2, 60742, Note_on_c, 0, 75, 78
2, 60753, Note_on_c, 0, 67, 67
2, 60753, Note_on_c, 0, 60, 35
2, 60756, Note_on_c, 0, 53, 50
2, 60761, Control_c, 0, 64, 0
2, 60763, Note_on_c, 0, 63, 33
2, 60796, Note_on_c, 0, 60, 0
2, 60806, Control_c, 0, 64, 127
2, 60833, Note_on_c, 0, 75, 0
2, 60839, Note_on_c, 0, 67, 0
2, 60840, Note_on_c, 0, 63, 0
2, 60850, Note_on_c, 0, 60, 38
2, 60851, Note_on_c, 0, 72, 70
2, 60897, Note_on_c, 0, 72, 0
2, 60938, Note_on_c, 0, 72, 64
2, 60975, Note_on_c, 0, 72, 0
2, 60983, Note_on_c, 0, 53, 0
2, 61025, Note_on_c, 0, 53, 29
2, 61026, Note_on_c, 0, 72, 59
2, 61063, Note_on_c, 0, 72, 0
2, 61073, Note_on_c, 0, 53, 0
2, 61076, Note_on_c, 0, 60, 0
2, 61140, Note_on_c, 0, 53, 58
2, 61325, Note_on_c, 0, 75, 69
2, 61328, Note_on_c, 0, 63, 53
2, 61328, Note_on_c, 0, 71, 75
2, 61331, Note_on_c, 0, 57, 49
2, 61333, Note_on_c, 0, 66, 50
2, 61342, Control_c, 0, 64, 0
2, 61388, Control_c, 0, 64, 127
2, 61474, Note_on_c, 0, 71, 0
2, 61486, Note_on_c, 0, 75, 0
2, 61523, Note_on_c, 0, 66, 0
2, 61591, Note_on_c, 0, 77, 71
2, 61624, Note_on_c, 0, 77, 0
2, 61646, Note_on_c, 0, 75, 53
2, 61652, Note_on_c, 0, 53, 0
2, 61666, Note_on_c, 0, 75, 0
2, 61669, Note_on_c, 0, 57, 0
2, 61669, Note_on_c, 0, 63, 0
2, 61872, Note_on_c, 0, 74, 55
2, 61883, Note_on_c, 0, 46, 35
2, 61887, Note_on_c, 0, 65, 50
2, 61892, Note_on_c, 0, 69, 31
2, 61893, Note_on_c, 0, 53, 26
2, 61896, Control_c, 0, 64, 0
2, 61904, Note_on_c, 0, 69, 0
2, 61942, Control_c, 0, 64, 127
2, 61991, Note_on_c, 0, 62, 42
2, 61992, Note_on_c, 0, 65, 0
2, 62012, Note_on_c, 0, 62, 0
2, 62050, Note_on_c, 0, 53, 0
2, 62058, Note_on_c, 0, 54, 34
2, 62058, Note_on_c, 0, 62, 35
2, 62060, Note_on_c, 0, 66, 40
2, 62076, Control_c, 0, 64, 0
2, 62088, Note_on_c, 0, 74, 0
2, 62111, Note_on_c, 0, 62, 0
2, 62115, Control_c, 0, 64, 127
2, 62122, Note_on_c, 0, 74, 56
2, 62128, Note_on_c, 0, 66, 0
2, 62170, Note_on_c, 0, 54, 0
2, 62190, Note_on_c, 0, 62, 30
2, 62190, Note_on_c, 0, 67, 41
2, 62196, Note_on_c, 0, 55, 42
2, 62201, Control_c, 0, 64, 0
2, 62242, Control_c, 0, 64, 127
2, 62272, Note_on_c, 0, 62, 0
2, 62288, Note_on_c, 0, 67, 0
2, 62294, Note_on_c, 0, 55, 0
2, 62296, Note_on_c, 0, 62, 15
2, 62311, Note_on_c, 0, 62, 0
2, 62342, Note_on_c, 0, 54, 33
2, 62343, Note_on_c, 0, 62, 32
2, 62346, Note_on_c, 0, 66, 36
2, 62398, Note_on_c, 0, 66, 0
2, 62409, Note_on_c, 0, 54, 0
2, 62413, Note_on_c, 0, 62, 0
2, 62445, Note_on_c, 0, 74, 0
2, 62452, Control_c, 0, 64, 0
2, 62455, Note_on_c, 0, 62, 30
2, 62457, Note_on_c, 0, 65, 41
2, 62460, Note_on_c, 0, 53, 35
2, 62500, Control_c, 0, 64, 127
2, 62601, Note_on_c, 0, 53, 0
2, 62621, Note_on_c, 0, 62, 0
2, 62634, Note_on_c, 0, 46, 0
2, 62635, Note_on_c, 0, 65, 0
2, 62666, Note_on_c, 0, 72, 85
2, 62758, Note_on_c, 0, 72, 0
2, 62805, Note_on_c, 0, 72, 64
2, 62810, Note_on_c, 0, 65, 62
2, 62815, Note_on_c, 0, 54, 34
2, 62815, Note_on_c, 0, 44, 36
2, 62816, Note_on_c, 0, 60, 52
2, 62817, Control_c, 0, 64, 0
2, 62858, Control_c, 0, 64, 127
2, 62861, Note_on_c, 0, 54, 0
2, 62906, Note_on_c, 0, 60, 0
2, 62906, Note_on_c, 0, 54, 42
2, 62912, Note_on_c, 0, 44, 0
2, 62913, Note_on_c, 0, 65, 0
2, 62927, Note_on_c, 0, 54, 0
2, 62998, Note_on_c, 0, 60, 55
2, 63000, Note_on_c, 0, 65, 54
2, 63121, Note_on_c, 0, 65, 0
2, 63138, Note_on_c, 0, 60, 0
2, 63157, Note_on_c, 0, 72, 0
2, 63217, Note_on_c, 0, 68, 76
2, 63333, Note_on_c, 0, 68, 0
2, 63537, Note_on_c, 0, 68, 88
2, 63542, Note_on_c, 0, 65, 78
2, 63547, Note_on_c, 0, 44, 56
2, 63547, Note_on_c, 0, 60, 71
2, 63550, Note_on_c, 0, 53, 64
2, 63563, Control_c, 0, 64, 0
2, 63611, Control_c, 0, 64, 127
2, 63618, Note_on_c, 0, 68, 0
2, 63632, Note_on_c, 0, 68, 74
2, 63666, Note_on_c, 0, 53, 0
2, 63673, Note_on_c, 0, 60, 0
2, 63688, Note_on_c, 0, 65, 0
2, 63694, Note_on_c, 0, 68, 0
2, 63788, Note_on_c, 0, 60, 50
2, 63790, Note_on_c, 0, 68, 48
2, 63790, Note_on_c, 0, 66, 48
2, 63793, Note_on_c, 0, 54, 40
2, 63813, Control_c, 0, 64, 0
2, 63863, Control_c, 0, 64, 127
2, 63887, Note_on_c, 0, 68, 0
2, 63905, Note_on_c, 0, 60, 0
2, 63906, Note_on_c, 0, 66, 0
2, 63920, Note_on_c, 0, 72, 74
2, 63987, Note_on_c, 0, 72, 0
2, 64025, Note_on_c, 0, 72, 50
2, 64133, Note_on_c, 0, 70, 47
2, 64135, Note_on_c, 0, 72, 0
2, 64205, Note_on_c, 0, 70, 0
2, 64211, Note_on_c, 0, 68, 46
2, 64233, Note_on_c, 0, 68, 0
2, 64236, Note_on_c, 0, 54, 0
2, 64248, Note_on_c, 0, 44, 0
2, 64346, Note_on_c, 0, 67, 50
2, 64348, Note_on_c, 0, 65, 49
2, 64358, Note_on_c, 0, 60, 20
2, 64360, Note_on_c, 0, 55, 40
2, 64362, Note_on_c, 0, 57, 18
2, 64370, Control_c, 0, 64, 0
2, 64415, Control_c, 0, 64, 127
2, 64423, Note_on_c, 0, 57, 0
2, 64428, Note_on_c, 0, 60, 0
2, 64439, Note_on_c, 0, 65, 0
2, 64444, Note_on_c, 0, 67, 0
2, 64486, Note_on_c, 0, 79, 63
2, 64498, Note_on_c, 0, 55, 0
2, 64583, Note_on_c, 0, 67, 50
2, 64657, Note_on_c, 0, 65, 57
2, 64746, Note_on_c, 0, 72, 51
2, 64794, Note_on_c, 0, 67, 0
2, 64814, Note_on_c, 0, 72, 0
2, 64816, Note_on_c, 0, 79, 0
2, 64827, Note_on_c, 0, 55, 46
2, 64832, Note_on_c, 0, 65, 0
2, 64839, Note_on_c, 0, 55, 0
2, 64936, Note_on_c, 0, 53, 46
2, 64943, Note_on_c, 0, 58, 46
2, 64952, Note_on_c, 0, 63, 53
2, 64958, Note_on_c, 0, 59, 54
2, 64971, Control_c, 0, 64, 0
2, 64972, Note_on_c, 0, 67, 53
2, 64987, Note_on_c, 0, 70, 64
2, 65028, Control_c, 0, 64, 127
2, 65058, Note_on_c, 0, 59, 0
2, 65064, Note_on_c, 0, 53, 0
2, 65150, Note_on_c, 0, 31, 60
2, 65177, Note_on_c, 0, 31, 0
2, 65282, Note_on_c, 0, 63, 0
2, 65290, Note_on_c, 0, 58, 0
2, 65340, Note_on_c, 0, 67, 0
2, 65346, Note_on_c, 0, 63, 50
2, 65350, Note_on_c, 0, 58, 25
2, 65445, Note_on_c, 0, 58, 0
2, 65548, Note_on_c, 0, 63, 0
2, 65548, Note_on_c, 0, 70, 0
2, 65768, Note_on_c, 0, 70, 90
2, 65770, Control_c, 0, 64, 0
2, 65771, Note_on_c, 0, 66, 85
2, 65771, Note_on_c, 0, 61, 94
2, 65772, Note_on_c, 0, 55, 88
2, 65773, Note_on_c, 0, 48, 81
2, 65793, Control_c, 0, 64, 127
2, 65827, Note_on_c, 0, 66, 0
2, 65832, Note_on_c, 0, 61, 0
2, 65833, Note_on_c, 0, 48, 0
2, 65833, Note_on_c, 0, 70, 0
2, 65838, Note_on_c, 0, 55, 0
2, 65862, Note_on_c, 0, 48, 68
2, 65862, Note_on_c, 0, 55, 76
2, 65863, Note_on_c, 0, 70, 87
2, 65863, Note_on_c, 0, 66, 86
2, 65865, Note_on_c, 0, 61, 90
2, 65871, Control_c, 0, 64, 0
2, 65907, Control_c, 0, 64, 127
2, 66111, Note_on_c, 0, 70, 0
2, 66113, Note_on_c, 0, 66, 0
2, 66133, Note_on_c, 0, 61, 0
2, 66136, Note_on_c, 0, 54, 47
2, 66152, Note_on_c, 0, 54, 0
2, 66156, Note_on_c, 0, 53, 58
2, 66159, Note_on_c, 0, 55, 0
2, 66168, Note_on_c, 0, 52, 72
2, 66176, Note_on_c, 0, 53, 0
2, 66176, Note_on_c, 0, 58, 71
2, 66177, Note_on_c, 0, 63, 69
2, 66180, Note_on_c, 0, 67, 67
2, 66191, Control_c, 0, 64, 0
2, 66243, Note_on_c, 0, 67, 0
2, 66250, Note_on_c, 0, 63, 0
2, 66251, Note_on_c, 0, 58, 0
2, 66251, Control_c, 0, 64, 127
2, 66253, Note_on_c, 0, 52, 0
2, 66272, Control_c, 0, 64, 0
2, 66275, Note_on_c, 0, 52, 62
2, 66278, Note_on_c, 0, 58, 53
2, 66280, Note_on_c, 0, 63, 46
2, 66281, Note_on_c, 0, 67, 55
2, 66318, Control_c, 0, 64, 127
2, 66534, Note_on_c, 0, 58, 0
2, 66543, Note_on_c, 0, 67, 0
2, 66545, Note_on_c, 0, 63, 0
2, 66611, Note_on_c, 0, 52, 0
2, 66612, Note_on_c, 0, 70, 82
2, 66613, Note_on_c, 0, 66, 78
2, 66613, Note_on_c, 0, 61, 84
2, 66615, Note_on_c, 0, 55, 75
2, 66616, Control_c, 0, 64, 0
2, 66641, Control_c, 0, 64, 127
2, 66655, Note_on_c, 0, 66, 0
2, 66658, Note_on_c, 0, 61, 0
2, 66667, Note_on_c, 0, 70, 0
2, 66668, Note_on_c, 0, 55, 0
2, 66692, Note_on_c, 0, 72, 80
2, 66692, Note_on_c, 0, 63, 71
2, 66695, Note_on_c, 0, 68, 72
2, 66697, Note_on_c, 0, 56, 58
2, 66698, Control_c, 0, 64, 0
2, 66715, Control_c, 0, 64, 127
2, 66723, Note_on_c, 0, 72, 0
2, 66724, Note_on_c, 0, 63, 0
2, 66730, Note_on_c, 0, 68, 0
2, 66737, Note_on_c, 0, 56, 0
2, 66757, Note_on_c, 0, 70, 54
2, 66762, Note_on_c, 0, 66, 53
2, 66763, Note_on_c, 0, 55, 50
2, 66766, Note_on_c, 0, 61, 30
2, 66773, Note_on_c, 0, 55, 0
2, 66782, Note_on_c, 0, 70, 0
2, 66787, Note_on_c, 0, 66, 0
2, 66792, Note_on_c, 0, 61, 0
2, 66824, Note_on_c, 0, 48, 0
2, 66826, Note_on_c, 0, 68, 44
2, 66828, Control_c, 0, 64, 0
2, 66828, Note_on_c, 0, 60, 41
2, 66831, Note_on_c, 0, 63, 42
2, 66833, Note_on_c, 0, 53, 47
2, 66878, Note_on_c, 0, 53, 0
2, 66878, Control_c, 0, 64, 127
2, 66882, Note_on_c, 0, 68, 0
2, 66886, Note_on_c, 0, 63, 0
2, 66893, Note_on_c, 0, 60, 0
2, 66895, Note_on_c, 0, 41, 44
2, 66948, Control_c, 0, 64, 0
2, 66953, Note_on_c, 0, 60, 45
2, 66955, Note_on_c, 0, 48, 38
2, 66956, Note_on_c, 0, 64, 34
2, 66957, Note_on_c, 0, 63, 25
2, 66995, Control_c, 0, 64, 127
2, 67017, Note_on_c, 0, 64, 0
2, 67020, Note_on_c, 0, 56, 35
2, 67023, Note_on_c, 0, 52, 35
2, 67023, Note_on_c, 0, 67, 28
2, 67025, Note_on_c, 0, 63, 0
2, 67036, Note_on_c, 0, 52, 0
2, 67046, Note_on_c, 0, 67, 0
2, 67048, Note_on_c, 0, 60, 0
2, 67066, Note_on_c, 0, 56, 0
2, 67098, Note_on_c, 0, 65, 47
2, 67100, Note_on_c, 0, 56, 27
2, 67101, Note_on_c, 0, 48, 0
2, 67102, Control_c, 0, 64, 0
2, 67108, Note_on_c, 0, 51, 18
2, 67116, Note_on_c, 0, 60, 13
2, 67148, Control_c, 0, 64, 127
2, 67159, Note_on_c, 0, 60, 0
2, 67159, Note_on_c, 0, 65, 0
2, 67165, Note_on_c, 0, 51, 0
2, 67170, Note_on_c, 0, 56, 0
2, 67177, Note_on_c, 0, 48, 33
2, 67248, Note_on_c, 0, 55, 37
2, 67251, Note_on_c, 0, 60, 39
2, 67253, Note_on_c, 0, 56, 28
2, 67253, Control_c, 0, 64, 0
2, 67273, Note_on_c, 0, 48, 0
2, 67295, Control_c, 0, 64, 127
2, 67353, Note_on_c, 0, 48, 17
2, 67386, Note_on_c, 0, 55, 0
2, 67413, Note_on_c, 0, 56, 0
2, 67437, Note_on_c, 0, 60, 0
2, 67446, Note_on_c, 0, 56, 35
2, 67451, Note_on_c, 0, 53, 42
2, 67476, Note_on_c, 0, 53, 0
2, 67493, Note_on_c, 0, 56, 0
2, 67516, Note_on_c, 0, 48, 0
2, 67521, Note_on_c, 0, 41, 0
2, 67628, Note_on_c, 0, 68, 85
2, 67631, Note_on_c, 0, 66, 74
2, 67631, Note_on_c, 0, 67, 75
2, 67632, Note_on_c, 0, 65, 80
2, 67654, Note_on_c, 0, 65, 0
2, 67659, Note_on_c, 0, 67, 0
2, 67663, Note_on_c, 0, 66, 0
2, 67668, Note_on_c, 0, 68, 0
2, 67702, Note_on_c, 0, 68, 84
2, 67705, Note_on_c, 0, 67, 91
2, 67738, Note_on_c, 0, 67, 0
2, 67742, Note_on_c, 0, 68, 0
2, 67775, Note_on_c, 0, 68, 86
2, 67777, Note_on_c, 0, 67, 91
2, 67809, Note_on_c, 0, 67, 0
2, 67815, Note_on_c, 0, 68, 0
2, 67852, Note_on_c, 0, 68, 81
2, 67855, Note_on_c, 0, 67, 87
2, 67856, Note_on_c, 0, 60, 49
2, 67858, Note_on_c, 0, 50, 56
2, 67865, Control_c, 0, 64, 0
2, 67910, Note_on_c, 0, 67, 0
2, 67923, Note_on_c, 0, 68, 0
2, 67925, Control_c, 0, 64, 127
2, 67936, Note_on_c, 0, 60, 0
2, 67940, Note_on_c, 0, 56, 39
2, 67940, Note_on_c, 0, 67, 55
2, 67941, Note_on_c, 0, 65, 64
2, 67962, Note_on_c, 0, 67, 0
2, 67964, Note_on_c, 0, 65, 0
2, 67992, Note_on_c, 0, 56, 0
2, 68037, Note_on_c, 0, 67, 58
2, 68038, Note_on_c, 0, 63, 63
2, 68038, Note_on_c, 0, 56, 35
2, 68055, Control_c, 0, 64, 0
2, 68077, Control_c, 0, 64, 127
2, 68080, Note_on_c, 0, 50, 0
2, 68110, Note_on_c, 0, 56, 0
2, 68125, Note_on_c, 0, 58, 53
2, 68145, Note_on_c, 0, 67, 0
2, 68150, Note_on_c, 0, 58, 0
2, 68153, Note_on_c, 0, 63, 0
2, 68228, Note_on_c, 0, 59, 50
2, 68230, Note_on_c, 0, 63, 38
2, 68232, Note_on_c, 0, 53, 36
2, 68237, Note_on_c, 0, 37, 44
2, 68243, Control_c, 0, 64, 0
2, 68282, Note_on_c, 0, 53, 0
2, 68291, Control_c, 0, 64, 127
2, 68298, Note_on_c, 0, 63, 0
2, 68301, Note_on_c, 0, 59, 0
2, 68308, Note_on_c, 0, 37, 0
2, 68312, Note_on_c, 0, 44, 48
2, 68316, Note_on_c, 0, 67, 59
2, 68317, Note_on_c, 0, 63, 30
2, 68330, Note_on_c, 0, 63, 0
2, 68336, Note_on_c, 0, 67, 0
2, 68410, Note_on_c, 0, 44, 0
2, 68416, Note_on_c, 0, 63, 50
2, 68420, Note_on_c, 0, 59, 51
2, 68423, Note_on_c, 0, 67, 45
2, 68425, Note_on_c, 0, 53, 37
2, 68468, Note_on_c, 0, 59, 0
2, 68480, Note_on_c, 0, 67, 0
2, 68487, Note_on_c, 0, 63, 0
2, 68488, Note_on_c, 0, 53, 0
2, 68517, Note_on_c, 0, 63, 30
2, 68518, Note_on_c, 0, 70, 50
2, 68522, Note_on_c, 0, 59, 47
2, 68543, Note_on_c, 0, 63, 0
2, 68559, Note_on_c, 0, 70, 0
2, 68614, Note_on_c, 0, 59, 0
2, 68641, Note_on_c, 0, 63, 42
2, 68642, Note_on_c, 0, 70, 40
2, 68647, Note_on_c, 0, 67, 47
2, 68660, Note_on_c, 0, 59, 37
2, 68747, Note_on_c, 0, 70, 0
2, 68751, Note_on_c, 0, 63, 0
2, 68754, Note_on_c, 0, 67, 0
2, 68798, Note_on_c, 0, 63, 37
2, 68798, Note_on_c, 0, 75, 62
2, 68833, Note_on_c, 0, 63, 0
2, 68864, Note_on_c, 0, 75, 0
2, 68885, Note_on_c, 0, 59, 0
2, 68981, Note_on_c, 0, 75, 48
2, 68996, Note_on_c, 0, 63, 27
2, 68997, Note_on_c, 0, 67, 32
2, 69003, Note_on_c, 0, 59, 26
2, 69026, Note_on_c, 0, 59, 0
2, 69095, Note_on_c, 0, 67, 0
2, 69109, Note_on_c, 0, 63, 0
2, 69128, Note_on_c, 0, 75, 0
2, 69337, Note_on_c, 0, 75, 81
2, 69340, Control_c, 0, 64, 0
2, 69340, Note_on_c, 0, 63, 77
2, 69341, Note_on_c, 0, 67, 82
2, 69342, Note_on_c, 0, 70, 63
2, 69343, Note_on_c, 0, 53, 68
2, 69346, Note_on_c, 0, 59, 66
2, 69373, Control_c, 0, 64, 127
2, 69408, Note_on_c, 0, 67, 0
2, 69412, Note_on_c, 0, 75, 0
2, 69420, Note_on_c, 0, 63, 0
2, 69431, Note_on_c, 0, 53, 0
2, 69437, Note_on_c, 0, 59, 0
2, 69460, Note_on_c, 0, 70, 0
2, 69525, Note_on_c, 0, 72, 68
2, 69526, Note_on_c, 0, 67, 67
2, 69527, Note_on_c, 0, 62, 64
2, 69527, Control_c, 0, 64, 0
2, 69533, Note_on_c, 0, 57, 47
2, 69533, Note_on_c, 0, 52, 45
2, 69590, Control_c, 0, 64, 127
2, 69728, Note_on_c, 0, 62, 0
2, 69734, Note_on_c, 0, 67, 0
2, 69761, Note_on_c, 0, 52, 0
2, 69766, Note_on_c, 0, 57, 0
2, 69768, Note_on_c, 0, 72, 0
2, 70013, Control_c, 0, 64, 0
2, 70018, Note_on_c, 0, 87, 67
2, 70020, Note_on_c, 0, 75, 49
2, 70023, Note_on_c, 0, 82, 46
2, 70025, Note_on_c, 0, 65, 44
2, 70025, Note_on_c, 0, 79, 44
2, 70026, Note_on_c, 0, 71, 33
2, 70033, Control_c, 0, 64, 127
2, 70054, Note_on_c, 0, 71, 0
2, 70058, Note_on_c, 0, 87, 0
2, 70060, Note_on_c, 0, 65, 0
2, 70061, Note_on_c, 0, 79, 0
2, 70070, Note_on_c, 0, 82, 0
2, 70080, Note_on_c, 0, 75, 0
2, 70131, Note_on_c, 0, 74, 53
2, 70132, Note_on_c, 0, 84, 54
2, 70133, Note_on_c, 0, 69, 44
2, 70135, Note_on_c, 0, 79, 42
2, 70136, Note_on_c, 0, 64, 41
2, 70136, Control_c, 0, 64, 0
2, 70167, Control_c, 0, 64, 127
2, 70242, Note_on_c, 0, 74, 0
2, 70250, Note_on_c, 0, 79, 0
2, 70263, Note_on_c, 0, 64, 0
2, 70265, Note_on_c, 0, 69, 0
2, 70274, Note_on_c, 0, 84, 0
2, 70543, Control_c, 0, 64, 0
2, 70555, Control_c, 0, 64, 127
2, 70556, Note_on_c, 0, 87, 38
2, 70557, Note_on_c, 0, 99, 38
2, 70557, Note_on_c, 0, 77, 44
2, 70558, Note_on_c, 0, 83, 31
2, 70560, Note_on_c, 0, 94, 39
2, 70581, Note_on_c, 0, 83, 0
2, 70585, Note_on_c, 0, 99, 0
2, 70587, Note_on_c, 0, 77, 0
2, 70596, Note_on_c, 0, 94, 0
2, 70607, Note_on_c, 0, 87, 0
2, 70658, Note_on_c, 0, 86, 48
2, 70660, Note_on_c, 0, 81, 45
2, 70660, Note_on_c, 0, 96, 51
2, 70661, Control_c, 0, 64, 0
2, 70662, Note_on_c, 0, 76, 34
2, 70662, Note_on_c, 0, 91, 38
2, 70682, Control_c, 0, 64, 127
2, 70702, Note_on_c, 0, 81, 0
2, 70705, Note_on_c, 0, 76, 0
2, 70714, Note_on_c, 0, 86, 0
2, 70722, Note_on_c, 0, 91, 0
2, 70733, Note_on_c, 0, 96, 0
2, 70952, Control_c, 0, 64, 0
2, 70953, Note_on_c, 0, 103, 43
2, 70953, Note_on_c, 0, 43, 50
2, 70955, Note_on_c, 0, 102, 26
2, 71000, Note_on_c, 0, 102, 0
2, 71003, Note_on_c, 0, 103, 0
2, 71009, Note_on_c, 0, 43, 0
2, 71081, Note_on_c, 0, 38, 32
2, 71085, Control_c, 0, 64, 127
2, 71146, Note_on_c, 0, 38, 0
2, 71166, Note_on_c, 0, 108, 40
2, 71166, Control_c, 0, 64, 0
2, 71167, Note_on_c, 0, 96, 35
2, 71170, Note_on_c, 0, 36, 39
2, 71195, Control_c, 0, 64, 127
2, 71227, Note_on_c, 0, 36, 0
2, 71243, Note_on_c, 0, 108, 0
2, 71254, Note_on_c, 0, 96, 0
2, 71432, Note_on_c, 0, 24, 33
2, 72215, Control_c, 0, 64, 0
2, 72263, Note_on_c, 0, 24, 0
2, 72263, End_track
0, 0, End_of_file
