0, 0, Header, 1, 6, 120
1, 0, Start_track
1, 0, Title_t, "When I fall in Love"
1, 0, Text_t, "dougmck@pipeline.com.au. First 16 bars rubato in Eb. Bass and drums in as key changes abruptly to C. I have marked some of the chord voicings if they are different from the usual changes. \012"
1, 0, Time_signature, 4, 2, 24, 8
1, 0, Key_signature, -3, "major"
1, 0, Tempo, 1034483
1, 183, Marker_t, "EbMaj7"
1, 278, Marker_t, "Fm7"
1, 480, Marker_t, "Gm7(#5b9)"
1, 686, Marker_t, "AbMaj7#5"
1, 913, Marker_t, "A7(#11)"
1, 1223, Marker_t, "Bb7sus"
1, 1658, Marker_t, "Eb7(#9)"
1, 1752, Marker_t, "D7(#9)"
1, 1858, Marker_t, "Db7(#9)"
1, 1964, Marker_t, "C7(#9)"
1, 2085, Marker_t, "B7(#9)"
1, 2224, Marker_t, "Bb7(#9)"
1, 2400, Marker_t, "Bb7sus"
1, 5291, Marker_t, "AbMaj7(#5)"
1, 5503, Marker_t, "Resolves to Ab6"
1, 5591, Marker_t, "Db7"
1, 6391, Marker_t, "C7sus(b9)"
1, 7025, Marker_t, "Fm7"
1, 7569, Marker_t, "G7(b9)"
1, 7784, Marker_t, "C7"
1, 8034, Marker_t, "Fm7"
1, 8160, Marker_t, "Gm7"
1, 8276, Marker_t, "AbMaj7"
1, 8416, Marker_t, "Am7(b5)"
1, 8634, Marker_t, "B7(#11)"
1, 9010, Marker_t, "Bb13 sus"
1, 9281, Marker_t, "Bb13(b9)"
1, 9600, Key_signature, 0, "major"
1, 9600, Marker_t, "Abrupt Key Change"
1, 10560, Marker_t, "G pedal under the next 2 bars"
1, 10800, Marker_t, "A7alt / G Bass"
1, 11040, Marker_t, "G7sus"
1, 11280, Marker_t, "G13"
1, 16320, Marker_t, "'Gospel' style sequence of chords"
1, 26520, Marker_t, "This is based on 'so what' chords - the top note is from a CMajor 7th chord - all are played over a C pedal."
1, 26520, End_track
2, 0, Start_track
2, 0, Title_t, "Sequence by dougmck@pipeline.com.au"
2, 0, Program_c, 0, 0
2, 193, Note_on_c, 0, 58, 50
2, 195, Note_on_c, 0, 53, 58
2, 196, Note_on_c, 0, 39, 33
2, 198, Note_on_c, 0, 46, 27
2, 209, Control_c, 0, 64, 127
2, 229, Note_on_c, 0, 39, 0
2, 229, Note_on_c, 0, 53, 0
2, 232, Note_on_c, 0, 58, 0
2, 233, Note_on_c, 0, 46, 0
2, 284, Note_on_c, 0, 63, 64
2, 284, Note_on_c, 0, 41, 52
2, 285, Note_on_c, 0, 56, 70
2, 286, Control_c, 0, 64, 0
2, 286, Note_on_c, 0, 51, 39
2, 304, Control_c, 0, 64, 127
2, 320, Note_on_c, 0, 56, 0
2, 320, Note_on_c, 0, 41, 0
2, 323, Note_on_c, 0, 63, 0
2, 331, Note_on_c, 0, 51, 0
2, 483, Note_on_c, 0, 68, 48
2, 484, Note_on_c, 0, 58, 37
2, 485, Note_on_c, 0, 63, 50
2, 485, Note_on_c, 0, 51, 32
2, 486, Note_on_c, 0, 43, 38
2, 492, Control_c, 0, 64, 0
2, 532, Control_c, 0, 64, 127
2, 598, Note_on_c, 0, 63, 0
2, 603, Note_on_c, 0, 51, 0
2, 607, Note_on_c, 0, 62, 44
2, 612, Control_c, 0, 64, 0
2, 615, Note_on_c, 0, 50, 6
2, 615, Control_c, 0, 64, 127
2, 629, Note_on_c, 0, 68, 0
2, 636, Note_on_c, 0, 43, 0
2, 647, Note_on_c, 0, 58, 0
2, 655, Note_on_c, 0, 62, 0
2, 686, Note_on_c, 0, 50, 0
2, 711, Note_on_c, 0, 67, 48
2, 712, Note_on_c, 0, 60, 41
2, 714, Note_on_c, 0, 44, 23
2, 715, Note_on_c, 0, 52, 32
2, 718, Control_c, 0, 64, 0
2, 762, Control_c, 0, 64, 127
2, 802, Note_on_c, 0, 52, 0
2, 805, Control_c, 0, 64, 0
2, 805, Note_on_c, 0, 53, 52
2, 820, Control_c, 0, 64, 127
2, 857, Note_on_c, 0, 44, 0
2, 867, Note_on_c, 0, 67, 0
2, 876, Note_on_c, 0, 60, 0
2, 885, Note_on_c, 0, 53, 0
2, 920, Note_on_c, 0, 63, 44
2, 921, Note_on_c, 0, 54, 34
2, 921, Control_c, 0, 64, 0
2, 923, Note_on_c, 0, 45, 42
2, 924, Note_on_c, 0, 59, 46
2, 938, Control_c, 0, 64, 127
2, 945, Note_on_c, 0, 54, 0
2, 947, Note_on_c, 0, 59, 0
2, 952, Note_on_c, 0, 63, 0
2, 968, Note_on_c, 0, 45, 0
2, 990, Note_on_c, 0, 75, 55
2, 1033, Note_on_c, 0, 75, 0
2, 1058, Note_on_c, 0, 75, 47
2, 1059, Note_on_c, 0, 61, 32
2, 1062, Note_on_c, 0, 66, 27
2, 1063, Note_on_c, 0, 71, 44
2, 1069, Note_on_c, 0, 55, 32
2, 1111, Note_on_c, 0, 75, 0
2, 1119, Note_on_c, 0, 55, 0
2, 1135, Note_on_c, 0, 61, 0
2, 1140, Note_on_c, 0, 75, 49
2, 1146, Note_on_c, 0, 66, 0
2, 1158, Note_on_c, 0, 71, 0
2, 1184, Note_on_c, 0, 75, 0
2, 1231, Note_on_c, 0, 75, 42
2, 1234, Note_on_c, 0, 68, 15
2, 1234, Note_on_c, 0, 72, 34
2, 1236, Control_c, 0, 64, 0
2, 1237, Note_on_c, 0, 60, 32
2, 1237, Note_on_c, 0, 63, 25
2, 1262, Control_c, 0, 64, 127
2, 1326, Note_on_c, 0, 60, 0
2, 1327, Note_on_c, 0, 58, 32
2, 1339, Note_on_c, 0, 63, 0
2, 1343, Note_on_c, 0, 68, 0
2, 1356, Note_on_c, 0, 58, 0
2, 1381, Note_on_c, 0, 72, 0
2, 1385, Note_on_c, 0, 75, 0
2, 1518, Note_on_c, 0, 106, 31
2, 1521, Note_on_c, 0, 94, 26
2, 1521, Note_on_c, 0, 34, 28
2, 1525, Note_on_c, 0, 46, 18
2, 1550, Note_on_c, 0, 94, 0
2, 1552, Note_on_c, 0, 106, 0
2, 1554, Note_on_c, 0, 46, 0
2, 1555, Note_on_c, 0, 34, 0
2, 1668, Note_on_c, 0, 70, 88
2, 1670, Control_c, 0, 64, 127
2, 1670, Note_on_c, 0, 61, 62
2, 1671, Note_on_c, 0, 66, 64
2, 1671, Note_on_c, 0, 55, 71
2, 1715, Note_on_c, 0, 55, 0
2, 1716, Note_on_c, 0, 70, 0
2, 1719, Note_on_c, 0, 66, 0
2, 1728, Note_on_c, 0, 61, 0
2, 1753, Note_on_c, 0, 75, 83
2, 1754, Note_on_c, 0, 65, 70
2, 1754, Note_on_c, 0, 54, 63
2, 1755, Note_on_c, 0, 60, 70
2, 1758, Control_c, 0, 64, 0
2, 1770, Control_c, 0, 64, 127
2, 1808, Note_on_c, 0, 60, 0
2, 1814, Note_on_c, 0, 65, 0
2, 1826, Note_on_c, 0, 75, 0
2, 1842, Note_on_c, 0, 54, 0
2, 1855, Note_on_c, 0, 80, 74
2, 1856, Note_on_c, 0, 68, 74
2, 1858, Note_on_c, 0, 53, 61
2, 1858, Note_on_c, 0, 64, 64
2, 1859, Control_c, 0, 64, 0
2, 1859, Note_on_c, 0, 59, 64
2, 1885, Control_c, 0, 64, 127
2, 1918, Note_on_c, 0, 59, 0
2, 1920, Note_on_c, 0, 64, 0
2, 1924, Note_on_c, 0, 53, 0
2, 1930, Note_on_c, 0, 80, 0
2, 1933, Note_on_c, 0, 68, 0
2, 1972, Note_on_c, 0, 79, 57
2, 1974, Note_on_c, 0, 63, 33
2, 1974, Note_on_c, 0, 67, 45
2, 1976, Control_c, 0, 64, 0
2, 1976, Note_on_c, 0, 52, 36
2, 1978, Note_on_c, 0, 58, 37
2, 2006, Control_c, 0, 64, 127
2, 2031, Note_on_c, 0, 52, 0
2, 2044, Note_on_c, 0, 67, 0
2, 2051, Note_on_c, 0, 79, 0
2, 2052, Note_on_c, 0, 63, 0
2, 2052, Note_on_c, 0, 58, 0
2, 2086, Note_on_c, 0, 62, 48
2, 2087, Note_on_c, 0, 75, 52
2, 2087, Control_c, 0, 64, 0
2, 2088, Note_on_c, 0, 51, 25
2, 2089, Note_on_c, 0, 57, 51
2, 2110, Control_c, 0, 64, 127
2, 2145, Note_on_c, 0, 79, 54
2, 2157, Note_on_c, 0, 62, 0
2, 2159, Note_on_c, 0, 57, 0
2, 2171, Note_on_c, 0, 51, 0
2, 2172, Note_on_c, 0, 79, 0
2, 2179, Note_on_c, 0, 75, 0
2, 2214, Note_on_c, 0, 77, 50
2, 2216, Note_on_c, 0, 61, 31
2, 2217, Note_on_c, 0, 65, 36
2, 2219, Note_on_c, 0, 50, 30
2, 2220, Control_c, 0, 64, 0
2, 2220, Note_on_c, 0, 56, 31
2, 2250, Control_c, 0, 64, 127
2, 2263, Note_on_c, 0, 56, 0
2, 2294, Note_on_c, 0, 65, 0
2, 2304, Note_on_c, 0, 56, 21
2, 2308, Note_on_c, 0, 50, 0
2, 2312, Note_on_c, 0, 61, 0
2, 2331, Note_on_c, 0, 56, 0
2, 2335, Note_on_c, 0, 77, 0
2, 2391, Note_on_c, 0, 79, 40
2, 2393, Note_on_c, 0, 75, 30
2, 2394, Note_on_c, 0, 72, 29
2, 2394, Note_on_c, 0, 67, 34
2, 2395, Note_on_c, 0, 68, 23
2, 2414, Note_on_c, 0, 68, 0
2, 2414, Note_on_c, 0, 72, 0
2, 2418, Note_on_c, 0, 75, 0
2, 2420, Note_on_c, 0, 79, 0
2, 2462, Note_on_c, 0, 67, 0
2, 2468, Note_on_c, 0, 91, 50
2, 2481, Note_on_c, 0, 91, 0
2, 2616, Note_on_c, 0, 68, 23
2, 2631, Note_on_c, 0, 94, 39
2, 2633, Note_on_c, 0, 74, 33
2, 2636, Note_on_c, 0, 79, 30
2, 2646, Note_on_c, 0, 106, 53
2, 2699, Note_on_c, 0, 106, 0
2, 2699, Note_on_c, 0, 94, 0
2, 2720, Note_on_c, 0, 74, 0
2, 2721, Note_on_c, 0, 79, 0
2, 2725, Note_on_c, 0, 68, 0
2, 2799, Control_c, 0, 64, 127
2, 2821, Control_c, 0, 64, 0
2, 2835, Control_c, 0, 64, 0
2, 2837, Note_on_c, 0, 53, 35
2, 2837, Note_on_c, 0, 46, 36
2, 2839, Note_on_c, 0, 55, 38
2, 2839, Note_on_c, 0, 58, 36
2, 2839, Note_on_c, 0, 39, 31
2, 2860, Control_c, 0, 64, 127
2, 2908, Note_on_c, 0, 55, 0
2, 2908, Note_on_c, 0, 53, 0
2, 2920, Note_on_c, 0, 58, 0
2, 2964, Note_on_c, 0, 46, 0
2, 2964, Note_on_c, 0, 63, 72
2, 2965, Note_on_c, 0, 58, 77
2, 2965, Note_on_c, 0, 51, 53
2, 2966, Note_on_c, 0, 55, 73
2, 2989, Note_on_c, 0, 55, 0
2, 2990, Note_on_c, 0, 39, 0
2, 2997, Note_on_c, 0, 63, 0
2, 2997, Note_on_c, 0, 58, 0
2, 2997, Note_on_c, 0, 51, 0
2, 3052, Note_on_c, 0, 72, 73
2, 3053, Note_on_c, 0, 67, 78
2, 3053, Note_on_c, 0, 60, 80
2, 3055, Note_on_c, 0, 55, 66
2, 3055, Note_on_c, 0, 44, 53
2, 3057, Control_c, 0, 64, 0
2, 3059, Note_on_c, 0, 71, 24
2, 3064, Note_on_c, 0, 71, 0
2, 3084, Control_c, 0, 64, 127
2, 3218, Note_on_c, 0, 72, 0
2, 3231, Note_on_c, 0, 67, 0
2, 3233, Note_on_c, 0, 70, 60
2, 3237, Note_on_c, 0, 55, 0
2, 3242, Note_on_c, 0, 44, 0
2, 3260, Note_on_c, 0, 70, 0
2, 3263, Note_on_c, 0, 60, 0
2, 3305, Note_on_c, 0, 68, 43
2, 3307, Note_on_c, 0, 63, 33
2, 3308, Note_on_c, 0, 56, 28
2, 3309, Note_on_c, 0, 59, 33
2, 3311, Control_c, 0, 64, 0
2, 3313, Note_on_c, 0, 49, 34
2, 3332, Control_c, 0, 64, 127
2, 3350, Note_on_c, 0, 56, 0
2, 3358, Note_on_c, 0, 49, 0
2, 3359, Note_on_c, 0, 68, 0
2, 3375, Note_on_c, 0, 68, 43
2, 3401, Note_on_c, 0, 59, 0
2, 3410, Note_on_c, 0, 68, 0
2, 3417, Note_on_c, 0, 63, 0
2, 3461, Note_on_c, 0, 68, 31
2, 3466, Note_on_c, 0, 24, 25
2, 3466, Note_on_c, 0, 58, 18
2, 3466, Note_on_c, 0, 36, 24
2, 3468, Note_on_c, 0, 64, 30
2, 3469, Control_c, 0, 64, 0
2, 3502, Control_c, 0, 64, 127
2, 3531, Note_on_c, 0, 24, 0
2, 3542, Note_on_c, 0, 36, 0
2, 3548, Note_on_c, 0, 68, 0
2, 3552, Note_on_c, 0, 64, 0
2, 3560, Note_on_c, 0, 58, 0
2, 3592, Note_on_c, 0, 67, 55
2, 3640, Note_on_c, 0, 67, 0
2, 3675, Note_on_c, 0, 61, 46
2, 3675, Note_on_c, 0, 57, 48
2, 3677, Note_on_c, 0, 65, 53
2, 3681, Note_on_c, 0, 51, 26
2, 3682, Note_on_c, 0, 41, 39
2, 3683, Note_on_c, 0, 61, 0
2, 3684, Control_c, 0, 64, 0
2, 3687, Note_on_c, 0, 62, 38
2, 3727, Note_on_c, 0, 62, 0
2, 3731, Control_c, 0, 64, 127
2, 3737, Note_on_c, 0, 61, 59
2, 3780, Note_on_c, 0, 41, 0
2, 3782, Note_on_c, 0, 61, 0
2, 3784, Note_on_c, 0, 57, 0
2, 3794, Note_on_c, 0, 60, 58
2, 3796, Note_on_c, 0, 51, 0
2, 3817, Note_on_c, 0, 65, 0
2, 3859, Note_on_c, 0, 60, 0
2, 3872, Note_on_c, 0, 65, 48
2, 3907, Note_on_c, 0, 65, 0
2, 3939, Note_on_c, 0, 63, 40
2, 3939, Note_on_c, 0, 65, 51
2, 3940, Note_on_c, 0, 61, 50
2, 3941, Note_on_c, 0, 47, 37
2, 3942, Note_on_c, 0, 57, 32
2, 3944, Control_c, 0, 64, 0
2, 3983, Control_c, 0, 64, 127
2, 3995, Note_on_c, 0, 47, 0
2, 4012, Note_on_c, 0, 47, 46
2, 4045, Note_on_c, 0, 57, 0
2, 4050, Note_on_c, 0, 61, 0
2, 4050, Note_on_c, 0, 63, 0
2, 4078, Note_on_c, 0, 65, 0
2, 4079, Note_on_c, 0, 63, 43
2, 4080, Note_on_c, 0, 61, 34
2, 4080, Note_on_c, 0, 57, 40
2, 4119, Note_on_c, 0, 47, 0
2, 4139, Note_on_c, 0, 63, 0
2, 4140, Note_on_c, 0, 61, 0
2, 4145, Note_on_c, 0, 65, 64
2, 4147, Note_on_c, 0, 47, 35
2, 4163, Note_on_c, 0, 57, 0
2, 4166, Note_on_c, 0, 47, 0
2, 4186, Note_on_c, 0, 65, 0
2, 4215, Note_on_c, 0, 65, 63
2, 4217, Note_on_c, 0, 63, 39
2, 4217, Note_on_c, 0, 56, 42
2, 4218, Note_on_c, 0, 60, 64
2, 4219, Note_on_c, 0, 46, 35
2, 4219, Control_c, 0, 64, 0
2, 4238, Control_c, 0, 64, 127
2, 4269, Note_on_c, 0, 46, 0
2, 4279, Note_on_c, 0, 46, 53
2, 4280, Note_on_c, 0, 60, 0
2, 4282, Note_on_c, 0, 63, 0
2, 4291, Note_on_c, 0, 56, 0
2, 4300, Note_on_c, 0, 65, 0
2, 4335, Note_on_c, 0, 63, 59
2, 4338, Note_on_c, 0, 60, 60
2, 4338, Note_on_c, 0, 56, 38
2, 4377, Note_on_c, 0, 46, 0
2, 4381, Note_on_c, 0, 60, 0
2, 4388, Note_on_c, 0, 63, 0
2, 4399, Note_on_c, 0, 46, 59
2, 4399, Note_on_c, 0, 63, 65
2, 4399, Note_on_c, 0, 65, 74
2, 4400, Note_on_c, 0, 60, 71
2, 4427, Note_on_c, 0, 56, 0
2, 4434, Note_on_c, 0, 60, 0
2, 4437, Note_on_c, 0, 46, 0
2, 4440, Note_on_c, 0, 63, 0
2, 4440, Note_on_c, 0, 65, 0
2, 4478, Note_on_c, 0, 67, 63
2, 4479, Note_on_c, 0, 59, 68
2, 4479, Note_on_c, 0, 62, 63
2, 4480, Note_on_c, 0, 56, 46
2, 4480, Note_on_c, 0, 46, 42
2, 4482, Control_c, 0, 64, 0
2, 4484, Note_on_c, 0, 55, 54
2, 4507, Control_c, 0, 64, 127
2, 4538, Note_on_c, 0, 46, 0
2, 4551, Note_on_c, 0, 46, 44
2, 4557, Note_on_c, 0, 56, 0
2, 4559, Note_on_c, 0, 59, 0
2, 4562, Note_on_c, 0, 62, 0
2, 4570, Note_on_c, 0, 67, 0
2, 4589, Note_on_c, 0, 55, 0
2, 4625, Note_on_c, 0, 68, 55
2, 4626, Note_on_c, 0, 62, 59
2, 4627, Note_on_c, 0, 59, 46
2, 4627, Note_on_c, 0, 65, 56
2, 4628, Note_on_c, 0, 56, 27
2, 4632, Control_c, 0, 64, 0
2, 4646, Control_c, 0, 64, 127
2, 4667, Note_on_c, 0, 46, 0
2, 4689, Note_on_c, 0, 46, 72
2, 4696, Note_on_c, 0, 56, 0
2, 4697, Note_on_c, 0, 59, 0
2, 4702, Note_on_c, 0, 65, 0
2, 4704, Note_on_c, 0, 68, 0
2, 4704, Note_on_c, 0, 62, 0
2, 4751, Note_on_c, 0, 70, 76
2, 4752, Note_on_c, 0, 62, 85
2, 4753, Note_on_c, 0, 55, 78
2, 4753, Note_on_c, 0, 58, 84
2, 4756, Control_c, 0, 64, 0
2, 4784, Control_c, 0, 64, 127
2, 4800, Note_on_c, 0, 46, 0
2, 4818, Note_on_c, 0, 46, 80
2, 4895, Note_on_c, 0, 70, 0
2, 4912, Note_on_c, 0, 46, 0
2, 4912, Note_on_c, 0, 62, 0
2, 4928, Note_on_c, 0, 58, 0
2, 4945, Note_on_c, 0, 55, 0
2, 4946, Note_on_c, 0, 46, 51
2, 4966, Note_on_c, 0, 46, 0
2, 5025, Note_on_c, 0, 63, 43
2, 5026, Note_on_c, 0, 55, 45
2, 5027, Note_on_c, 0, 61, 38
2, 5027, Note_on_c, 0, 45, 38
2, 5028, Note_on_c, 0, 33, 37
2, 5030, Control_c, 0, 64, 0
2, 5055, Control_c, 0, 64, 127
2, 5175, Note_on_c, 0, 55, 0
2, 5175, Note_on_c, 0, 63, 0
2, 5178, Note_on_c, 0, 33, 0
2, 5186, Note_on_c, 0, 61, 0
2, 5189, Note_on_c, 0, 45, 0
2, 5221, Note_on_c, 0, 63, 49
2, 5224, Note_on_c, 0, 55, 36
2, 5237, Note_on_c, 0, 55, 0
2, 5246, Note_on_c, 0, 63, 0
2, 5293, Note_on_c, 0, 67, 65
2, 5293, Note_on_c, 0, 60, 59
2, 5294, Note_on_c, 0, 44, 37
2, 5294, Control_c, 0, 64, 0
2, 5295, Note_on_c, 0, 52, 33
2, 5318, Control_c, 0, 64, 127
2, 5342, Note_on_c, 0, 67, 0
2, 5361, Note_on_c, 0, 60, 0
2, 5488, Note_on_c, 0, 52, 0
2, 5500, Note_on_c, 0, 53, 33
2, 5504, Note_on_c, 0, 65, 48
2, 5520, Note_on_c, 0, 53, 0
2, 5533, Note_on_c, 0, 44, 0
2, 5544, Note_on_c, 0, 65, 0
2, 5588, Note_on_c, 0, 65, 39
2, 5589, Note_on_c, 0, 59, 33
2, 5591, Control_c, 0, 64, 0
2, 5591, Note_on_c, 0, 44, 29
2, 5592, Note_on_c, 0, 53, 24
2, 5592, Note_on_c, 0, 37, 29
2, 5625, Control_c, 0, 64, 127
2, 5659, Note_on_c, 0, 53, 0
2, 5665, Note_on_c, 0, 59, 0
2, 5680, Note_on_c, 0, 37, 0
2, 5682, Note_on_c, 0, 65, 0
2, 5693, Note_on_c, 0, 44, 0
2, 5790, Note_on_c, 0, 67, 53
2, 5794, Note_on_c, 0, 55, 40
2, 5802, Note_on_c, 0, 67, 0
2, 5805, Note_on_c, 0, 55, 0
2, 5812, Note_on_c, 0, 68, 64
2, 5813, Note_on_c, 0, 56, 38
2, 5827, Note_on_c, 0, 68, 0
2, 5830, Note_on_c, 0, 56, 0
2, 5837, Note_on_c, 0, 70, 85
2, 5838, Control_c, 0, 64, 0
2, 5838, Note_on_c, 0, 58, 69
2, 5848, Control_c, 0, 64, 127
2, 5861, Note_on_c, 0, 58, 0
2, 5862, Note_on_c, 0, 70, 0
2, 5962, Note_on_c, 0, 67, 58
2, 5962, Note_on_c, 0, 43, 44
2, 5963, Note_on_c, 0, 58, 35
2, 5964, Note_on_c, 0, 62, 49
2, 5965, Note_on_c, 0, 53, 24
2, 5967, Control_c, 0, 64, 0
2, 5978, Control_c, 0, 64, 127
2, 6011, Note_on_c, 0, 67, 0
2, 6012, Note_on_c, 0, 43, 0
2, 6017, Note_on_c, 0, 68, 57
2, 6022, Note_on_c, 0, 53, 0
2, 6023, Note_on_c, 0, 62, 0
2, 6031, Note_on_c, 0, 58, 0
2, 6037, Note_on_c, 0, 68, 0
2, 6080, Note_on_c, 0, 70, 51
2, 6080, Note_on_c, 0, 67, 45
2, 6081, Control_c, 0, 64, 0
2, 6081, Note_on_c, 0, 63, 33
2, 6082, Note_on_c, 0, 59, 37
2, 6082, Note_on_c, 0, 49, 42
2, 6114, Control_c, 0, 64, 127
2, 6135, Note_on_c, 0, 56, 37
2, 6160, Note_on_c, 0, 59, 0
2, 6165, Note_on_c, 0, 63, 0
2, 6188, Note_on_c, 0, 67, 0
2, 6190, Note_on_c, 0, 63, 38
2, 6194, Note_on_c, 0, 59, 33
2, 6210, Note_on_c, 0, 56, 0
2, 6216, Note_on_c, 0, 70, 0
2, 6237, Note_on_c, 0, 59, 0
2, 6266, Note_on_c, 0, 67, 64
2, 6288, Note_on_c, 0, 63, 0
2, 6303, Note_on_c, 0, 67, 0
2, 6303, Note_on_c, 0, 68, 60
2, 6323, Note_on_c, 0, 49, 0
2, 6368, Note_on_c, 0, 68, 0
2, 6389, Note_on_c, 0, 70, 46
2, 6390, Note_on_c, 0, 61, 39
2, 6391, Note_on_c, 0, 65, 62
2, 6394, Note_on_c, 0, 60, 48
2, 6401, Control_c, 0, 64, 0
2, 6426, Control_c, 0, 64, 127
2, 6444, Note_on_c, 0, 60, 0
2, 6458, Note_on_c, 0, 60, 48
2, 6492, Note_on_c, 0, 65, 0
2, 6493, Note_on_c, 0, 61, 0
2, 6504, Note_on_c, 0, 60, 0
2, 6518, Note_on_c, 0, 61, 35
2, 6519, Note_on_c, 0, 65, 50
2, 6522, Note_on_c, 0, 60, 34
2, 6579, Note_on_c, 0, 48, 46
2, 6589, Control_c, 0, 64, 0
2, 6597, Control_c, 0, 64, 127
2, 6606, Note_on_c, 0, 60, 0
2, 6617, Note_on_c, 0, 65, 0
2, 6620, Note_on_c, 0, 61, 0
2, 6650, Note_on_c, 0, 61, 25
2, 6651, Note_on_c, 0, 64, 51
2, 6653, Note_on_c, 0, 60, 43
2, 6654, Control_c, 0, 64, 0
2, 6672, Control_c, 0, 64, 127
2, 6707, Note_on_c, 0, 60, 0
2, 6721, Note_on_c, 0, 60, 60
2, 6762, Note_on_c, 0, 61, 0
2, 6762, Note_on_c, 0, 64, 0
2, 6808, Note_on_c, 0, 61, 14
2, 6812, Note_on_c, 0, 64, 17
2, 6843, Note_on_c, 0, 64, 0
2, 6855, Note_on_c, 0, 70, 0
2, 6885, Note_on_c, 0, 60, 0
2, 6896, Note_on_c, 0, 61, 0
2, 6959, Note_on_c, 0, 68, 37
2, 6962, Note_on_c, 0, 48, 0
2, 6984, Note_on_c, 0, 68, 0
2, 6984, Note_on_c, 0, 70, 60
2, 7007, Note_on_c, 0, 70, 0
2, 7015, Note_on_c, 0, 72, 53
2, 7016, Note_on_c, 0, 53, 42
2, 7017, Note_on_c, 0, 68, 52
2, 7021, Control_c, 0, 64, 0
2, 7045, Control_c, 0, 64, 127
2, 7063, Note_on_c, 0, 60, 54
2, 7079, Note_on_c, 0, 72, 0
2, 7090, Note_on_c, 0, 68, 0
2, 7112, Note_on_c, 0, 65, 75
2, 7141, Note_on_c, 0, 60, 0
2, 7150, Note_on_c, 0, 65, 0
2, 7163, Note_on_c, 0, 65, 65
2, 7195, Note_on_c, 0, 65, 0
2, 7195, Note_on_c, 0, 53, 0
2, 7223, Note_on_c, 0, 65, 51
2, 7282, Note_on_c, 0, 48, 38
2, 7347, Note_on_c, 0, 56, 23
2, 7349, Note_on_c, 0, 60, 45
2, 7379, Note_on_c, 0, 65, 0
2, 7384, Note_on_c, 0, 56, 0
2, 7409, Note_on_c, 0, 60, 0
2, 7415, Note_on_c, 0, 65, 49
2, 7419, Note_on_c, 0, 48, 0
2, 7438, Note_on_c, 0, 65, 0
2, 7549, Note_on_c, 0, 68, 50
2, 7551, Note_on_c, 0, 43, 44
2, 7552, Note_on_c, 0, 65, 43
2, 7552, Note_on_c, 0, 59, 39
2, 7552, Note_on_c, 0, 62, 49
2, 7552, Control_c, 0, 64, 0
2, 7553, Note_on_c, 0, 53, 29
2, 7578, Control_c, 0, 64, 127
2, 7597, Note_on_c, 0, 65, 0
2, 7597, Note_on_c, 0, 68, 0
2, 7621, Note_on_c, 0, 67, 60
2, 7622, Note_on_c, 0, 53, 0
2, 7633, Note_on_c, 0, 43, 0
2, 7680, Note_on_c, 0, 25, 46
2, 7718, Note_on_c, 0, 25, 0
2, 7719, Note_on_c, 0, 59, 0
2, 7727, Note_on_c, 0, 62, 0
2, 7734, Note_on_c, 0, 67, 0
2, 7764, Note_on_c, 0, 67, 50
2, 7766, Note_on_c, 0, 58, 30
2, 7766, Note_on_c, 0, 24, 38
2, 7766, Control_c, 0, 64, 0
2, 7768, Note_on_c, 0, 36, 34
2, 7792, Control_c, 0, 64, 127
2, 7837, Note_on_c, 0, 58, 0
2, 7862, Note_on_c, 0, 67, 0
2, 7937, Note_on_c, 0, 68, 69
2, 7938, Note_on_c, 0, 56, 71
2, 7954, Note_on_c, 0, 24, 0
2, 7961, Note_on_c, 0, 56, 0
2, 7964, Note_on_c, 0, 68, 0
2, 7967, Note_on_c, 0, 36, 0
2, 7988, Note_on_c, 0, 70, 69
2, 7988, Note_on_c, 0, 58, 68
2, 7990, Note_on_c, 0, 68, 36
2, 8000, Note_on_c, 0, 58, 0
2, 8002, Note_on_c, 0, 68, 0
2, 8007, Note_on_c, 0, 70, 0
2, 8049, Note_on_c, 0, 72, 77
2, 8049, Note_on_c, 0, 63, 87
2, 8050, Note_on_c, 0, 68, 76
2, 8050, Note_on_c, 0, 29, 71
2, 8050, Note_on_c, 0, 41, 75
2, 8051, Control_c, 0, 64, 0
2, 8070, Control_c, 0, 64, 127
2, 8096, Note_on_c, 0, 29, 0
2, 8099, Note_on_c, 0, 63, 0
2, 8108, Note_on_c, 0, 41, 0
2, 8109, Note_on_c, 0, 68, 0
2, 8115, Note_on_c, 0, 72, 0
2, 8154, Note_on_c, 0, 70, 77
2, 8155, Note_on_c, 0, 67, 81
2, 8155, Note_on_c, 0, 62, 82
2, 8156, Note_on_c, 0, 31, 70
2, 8156, Note_on_c, 0, 43, 76
2, 8159, Control_c, 0, 64, 0
2, 8177, Control_c, 0, 64, 127
2, 8203, Note_on_c, 0, 67, 0
2, 8207, Note_on_c, 0, 31, 0
2, 8209, Note_on_c, 0, 70, 0
2, 8212, Note_on_c, 0, 43, 0
2, 8217, Note_on_c, 0, 62, 0
2, 8281, Note_on_c, 0, 68, 55
2, 8281, Note_on_c, 0, 63, 50
2, 8283, Note_on_c, 0, 60, 58
2, 8283, Note_on_c, 0, 44, 45
2, 8284, Note_on_c, 0, 32, 55
2, 8284, Control_c, 0, 64, 0
2, 8306, Control_c, 0, 64, 127
2, 8341, Note_on_c, 0, 68, 0
2, 8344, Note_on_c, 0, 63, 0
2, 8346, Note_on_c, 0, 60, 0
2, 8348, Note_on_c, 0, 32, 0
2, 8353, Note_on_c, 0, 44, 0
2, 8423, Note_on_c, 0, 67, 60
2, 8424, Note_on_c, 0, 63, 46
2, 8424, Note_on_c, 0, 60, 58
2, 8426, Note_on_c, 0, 45, 42
2, 8426, Note_on_c, 0, 55, 37
2, 8427, Control_c, 0, 64, 0
2, 8428, Note_on_c, 0, 33, 34
2, 8449, Control_c, 0, 64, 127
2, 8467, Note_on_c, 0, 67, 0
2, 8471, Note_on_c, 0, 55, 0
2, 8477, Note_on_c, 0, 60, 0
2, 8501, Note_on_c, 0, 63, 0
2, 8510, Note_on_c, 0, 33, 0
2, 8526, Note_on_c, 0, 45, 0
2, 8635, Note_on_c, 0, 61, 56
2, 8635, Note_on_c, 0, 56, 47
2, 8636, Note_on_c, 0, 65, 63
2, 8636, Control_c, 0, 64, 0
2, 8639, Note_on_c, 0, 47, 33
2, 8639, Note_on_c, 0, 35, 40
2, 8654, Control_c, 0, 64, 127
2, 8668, Note_on_c, 0, 35, 0
2, 8680, Note_on_c, 0, 47, 0
2, 8740, Note_on_c, 0, 56, 0
2, 8745, Note_on_c, 0, 51, 33
2, 8784, Note_on_c, 0, 61, 0
2, 8822, Note_on_c, 0, 65, 0
2, 8823, Note_on_c, 0, 61, 37
2, 8826, Note_on_c, 0, 57, 34
2, 8827, Note_on_c, 0, 56, 19
2, 8886, Note_on_c, 0, 51, 0
2, 8896, Note_on_c, 0, 57, 0
2, 8899, Note_on_c, 0, 51, 34
2, 8903, Note_on_c, 0, 65, 44
2, 8912, Note_on_c, 0, 56, 0
2, 8942, Note_on_c, 0, 51, 0
2, 8949, Note_on_c, 0, 65, 0
2, 8954, Note_on_c, 0, 61, 0
2, 9034, Note_on_c, 0, 63, 33
2, 9035, Note_on_c, 0, 67, 45
2, 9036, Note_on_c, 0, 60, 52
2, 9036, Note_on_c, 0, 56, 25
2, 9036, Note_on_c, 0, 46, 26
2, 9037, Control_c, 0, 64, 0
2, 9050, Control_c, 0, 64, 127
2, 9064, Note_on_c, 0, 60, 0
2, 9069, Note_on_c, 0, 63, 0
2, 9070, Note_on_c, 0, 46, 0
2, 9070, Note_on_c, 0, 67, 0
2, 9076, Note_on_c, 0, 56, 0
2, 9139, Note_on_c, 0, 79, 55
2, 9140, Note_on_c, 0, 75, 47
2, 9142, Note_on_c, 0, 72, 33
2, 9143, Note_on_c, 0, 67, 41
2, 9144, Note_on_c, 0, 63, 32
2, 9184, Note_on_c, 0, 63, 0
2, 9186, Note_on_c, 0, 79, 0
2, 9196, Note_on_c, 0, 72, 0
2, 9200, Note_on_c, 0, 75, 0
2, 9200, Note_on_c, 0, 67, 0
2, 9259, Note_on_c, 0, 46, 34
2, 9282, Note_on_c, 0, 56, 25
2, 9284, Note_on_c, 0, 62, 42
2, 9289, Note_on_c, 0, 67, 49
2, 9296, Note_on_c, 0, 71, 37
2, 9304, Note_on_c, 0, 74, 47
2, 9465, Note_on_c, 0, 56, 0
2, 9485, Note_on_c, 0, 46, 0
2, 9562, Note_on_c, 0, 62, 0
2, 9563, Note_on_c, 0, 67, 0
2, 9565, Note_on_c, 0, 74, 0
2, 9566, Note_on_c, 0, 71, 0
2, 9576, Control_c, 0, 64, 0
2, 9600, Control_c, 0, 64, 127
2, 9600, Note_on_c, 0, 43, 34
2, 9600, Note_on_c, 0, 36, 35
2, 9600, Note_on_c, 0, 67, 68
2, 9600, Note_on_c, 0, 55, 69
2, 9600, Note_on_c, 0, 52, 51
2, 9600, Note_on_c, 0, 62, 69
2, 9604, Note_on_c, 0, 52, 0
2, 9611, Control_c, 0, 64, 0
2, 9624, Note_on_c, 0, 55, 0
2, 9624, Note_on_c, 0, 36, 0
2, 9626, Note_on_c, 0, 43, 0
2, 9628, Control_c, 0, 64, 127
2, 9633, Note_on_c, 0, 62, 0
2, 9637, Note_on_c, 0, 67, 0
2, 9720, Note_on_c, 0, 38, 50
2, 9720, Note_on_c, 0, 45, 45
2, 9720, Note_on_c, 0, 72, 71
2, 9720, Note_on_c, 0, 65, 71
2, 9720, Note_on_c, 0, 53, 61
2, 9720, Note_on_c, 0, 60, 74
2, 9724, Note_on_c, 0, 53, 0
2, 9735, Control_c, 0, 64, 0
2, 9747, Note_on_c, 0, 38, 0
2, 9748, Note_on_c, 0, 45, 0
2, 9750, Note_on_c, 0, 60, 0
2, 9752, Control_c, 0, 64, 127
2, 9754, Note_on_c, 0, 65, 0
2, 9766, Note_on_c, 0, 72, 0
2, 9840, Note_on_c, 0, 47, 35
2, 9840, Note_on_c, 0, 40, 51
2, 9840, Note_on_c, 0, 55, 47
2, 9840, Note_on_c, 0, 77, 81
2, 9844, Note_on_c, 0, 55, 0
2, 9856, Control_c, 0, 64, 0
2, 9873, Control_c, 0, 64, 127
2, 9875, Note_on_c, 0, 40, 0
2, 9880, Note_on_c, 0, 47, 0
2, 9894, Note_on_c, 0, 77, 0
2, 9960, Note_on_c, 0, 41, 62
2, 9960, Note_on_c, 0, 76, 71
2, 9960, Note_on_c, 0, 64, 58
2, 9977, Control_c, 0, 64, 0
2, 9987, Note_on_c, 0, 41, 0
2, 9992, Control_c, 0, 64, 127
2, 10001, Note_on_c, 0, 76, 0
2, 10016, Note_on_c, 0, 64, 0
2, 10080, Note_on_c, 0, 42, 59
2, 10080, Note_on_c, 0, 72, 71
2, 10080, Note_on_c, 0, 63, 75
2, 10080, Note_on_c, 0, 52, 55
2, 10080, Note_on_c, 0, 68, 70
2, 10101, Control_c, 0, 64, 0
2, 10106, Note_on_c, 0, 42, 0
2, 10111, Note_on_c, 0, 52, 0
2, 10120, Control_c, 0, 64, 127
2, 10181, Note_on_c, 0, 63, 0
2, 10190, Note_on_c, 0, 58, 35
2, 10195, Note_on_c, 0, 68, 0
2, 10247, Note_on_c, 0, 68, 46
2, 10248, Note_on_c, 0, 63, 25
2, 10252, Note_on_c, 0, 64, 31
2, 10274, Note_on_c, 0, 72, 0
2, 10285, Note_on_c, 0, 63, 0
2, 10292, Note_on_c, 0, 68, 0
2, 10295, Note_on_c, 0, 64, 0
2, 10332, Note_on_c, 0, 64, 34
2, 10376, Note_on_c, 0, 64, 0
2, 10452, Note_on_c, 0, 63, 32
2, 10454, Note_on_c, 0, 64, 37
2, 10455, Note_on_c, 0, 68, 34
2, 10504, Note_on_c, 0, 63, 0
2, 10508, Note_on_c, 0, 58, 0
2, 10518, Note_on_c, 0, 58, 25
2, 10526, Note_on_c, 0, 68, 0
2, 10536, Note_on_c, 0, 64, 0
2, 10557, Note_on_c, 0, 58, 0
2, 10578, Note_on_c, 0, 55, 30
2, 10581, Note_on_c, 0, 64, 19
2, 10582, Note_on_c, 0, 60, 34
2, 10587, Control_c, 0, 64, 0
2, 10606, Control_c, 0, 64, 127
2, 10637, Note_on_c, 0, 60, 0
2, 10640, Note_on_c, 0, 64, 0
2, 10690, Note_on_c, 0, 64, 24
2, 10694, Note_on_c, 0, 60, 33
2, 10745, Note_on_c, 0, 60, 0
2, 10749, Note_on_c, 0, 55, 0
2, 10755, Note_on_c, 0, 64, 0
2, 10756, Note_on_c, 0, 67, 43
2, 10772, Note_on_c, 0, 67, 0
2, 10781, Note_on_c, 0, 72, 78
2, 10797, Note_on_c, 0, 72, 0
2, 10811, Note_on_c, 0, 55, 74
2, 10811, Note_on_c, 0, 60, 70
2, 10811, Note_on_c, 0, 61, 61
2, 10811, Note_on_c, 0, 65, 71
2, 10812, Note_on_c, 0, 77, 99
2, 10814, Control_c, 0, 64, 0
2, 10835, Control_c, 0, 64, 127
2, 10860, Note_on_c, 0, 55, 0
2, 10861, Note_on_c, 0, 60, 0
2, 10862, Note_on_c, 0, 65, 0
2, 10866, Note_on_c, 0, 61, 0
2, 10876, Note_on_c, 0, 65, 58
2, 10876, Note_on_c, 0, 61, 53
2, 10877, Note_on_c, 0, 60, 50
2, 10877, Note_on_c, 0, 55, 61
2, 10911, Note_on_c, 0, 55, 0
2, 10912, Note_on_c, 0, 60, 0
2, 10915, Note_on_c, 0, 65, 0
2, 10924, Note_on_c, 0, 61, 0
2, 10977, Note_on_c, 0, 65, 68
2, 10978, Note_on_c, 0, 61, 50
2, 10978, Note_on_c, 0, 60, 65
2, 10979, Note_on_c, 0, 55, 57
2, 11009, Note_on_c, 0, 55, 0
2, 11009, Note_on_c, 0, 60, 0
2, 11010, Note_on_c, 0, 65, 0
2, 11013, Note_on_c, 0, 61, 0
2, 11019, Note_on_c, 0, 76, 77
2, 11025, Note_on_c, 0, 77, 0
2, 11053, Note_on_c, 0, 76, 0
2, 11054, Note_on_c, 0, 72, 57
2, 11057, Note_on_c, 0, 64, 26
2, 11057, Note_on_c, 0, 53, 24
2, 11058, Note_on_c, 0, 57, 35
2, 11060, Note_on_c, 0, 60, 41
2, 11061, Control_c, 0, 64, 0
2, 11087, Control_c, 0, 64, 127
2, 11089, Note_on_c, 0, 60, 0
2, 11090, Note_on_c, 0, 64, 0
2, 11091, Note_on_c, 0, 57, 0
2, 11095, Note_on_c, 0, 53, 0
2, 11112, Note_on_c, 0, 74, 57
2, 11113, Note_on_c, 0, 53, 32
2, 11114, Note_on_c, 0, 64, 30
2, 11115, Note_on_c, 0, 57, 50
2, 11117, Note_on_c, 0, 60, 42
2, 11120, Note_on_c, 0, 72, 0
2, 11120, Control_c, 0, 64, 0
2, 11130, Control_c, 0, 64, 127
2, 11152, Note_on_c, 0, 57, 0
2, 11156, Note_on_c, 0, 60, 0
2, 11157, Note_on_c, 0, 64, 0
2, 11162, Note_on_c, 0, 53, 0
2, 11226, Note_on_c, 0, 57, 45
2, 11227, Note_on_c, 0, 53, 28
2, 11230, Note_on_c, 0, 60, 35
2, 11231, Note_on_c, 0, 64, 18
2, 11250, Note_on_c, 0, 60, 0
2, 11257, Note_on_c, 0, 53, 0
2, 11259, Note_on_c, 0, 57, 0
2, 11266, Note_on_c, 0, 64, 0
2, 11308, Control_c, 0, 64, 0
2, 11343, Note_on_c, 0, 59, 43
2, 11343, Note_on_c, 0, 64, 24
2, 11344, Note_on_c, 0, 53, 32
2, 11362, Control_c, 0, 64, 127
2, 11377, Note_on_c, 0, 74, 0
2, 11439, Note_on_c, 0, 53, 0
2, 11465, Note_on_c, 0, 53, 33
2, 11491, Note_on_c, 0, 64, 0
2, 11495, Note_on_c, 0, 53, 0
2, 11497, Note_on_c, 0, 59, 0
2, 11502, Note_on_c, 0, 93, 76
2, 11503, Note_on_c, 0, 81, 58
2, 11518, Note_on_c, 0, 93, 0
2, 11520, Note_on_c, 0, 81, 0
2, 11531, Note_on_c, 0, 91, 58
2, 11532, Note_on_c, 0, 79, 40
2, 11535, Control_c, 0, 64, 0
2, 11535, Note_on_c, 0, 55, 37
2, 11536, Note_on_c, 0, 59, 32
2, 11536, Note_on_c, 0, 52, 30
2, 11536, Note_on_c, 0, 62, 25
2, 11561, Control_c, 0, 64, 127
2, 11586, Note_on_c, 0, 91, 0
2, 11604, Note_on_c, 0, 79, 0
2, 11613, Note_on_c, 0, 55, 0
2, 11614, Note_on_c, 0, 62, 0
2, 11615, Note_on_c, 0, 59, 0
2, 11660, Note_on_c, 0, 62, 37
2, 11662, Note_on_c, 0, 59, 35
2, 11664, Note_on_c, 0, 55, 35
2, 11709, Note_on_c, 0, 55, 0
2, 11711, Note_on_c, 0, 59, 0
2, 11712, Note_on_c, 0, 52, 0
2, 11713, Note_on_c, 0, 62, 0
2, 11826, Note_on_c, 0, 63, 32
2, 11828, Note_on_c, 0, 57, 46
2, 11829, Note_on_c, 0, 62, 36
2, 11836, Control_c, 0, 64, 0
2, 11898, Note_on_c, 0, 67, 91
2, 11902, Control_c, 0, 64, 127
2, 11921, Note_on_c, 0, 67, 0
2, 11927, Note_on_c, 0, 72, 81
2, 11946, Note_on_c, 0, 72, 0
2, 11964, Note_on_c, 0, 62, 0
2, 11968, Note_on_c, 0, 81, 96
2, 11969, Note_on_c, 0, 63, 0
2, 11975, Note_on_c, 0, 57, 0
2, 12008, Note_on_c, 0, 81, 0
2, 12012, Note_on_c, 0, 79, 79
2, 12015, Control_c, 0, 64, 0
2, 12024, Control_c, 0, 64, 127
2, 12048, Note_on_c, 0, 67, 49
2, 12048, Note_on_c, 0, 56, 42
2, 12050, Note_on_c, 0, 62, 47
2, 12050, Note_on_c, 0, 77, 74
2, 12051, Control_c, 0, 64, 0
2, 12058, Note_on_c, 0, 79, 0
2, 12085, Control_c, 0, 64, 127
2, 12101, Note_on_c, 0, 67, 0
2, 12102, Note_on_c, 0, 56, 0
2, 12103, Note_on_c, 0, 77, 0
2, 12104, Note_on_c, 0, 62, 0
2, 12121, Note_on_c, 0, 67, 48
2, 12122, Note_on_c, 0, 77, 46
2, 12122, Note_on_c, 0, 56, 42
2, 12124, Note_on_c, 0, 62, 54
2, 12125, Control_c, 0, 64, 0
2, 12139, Control_c, 0, 64, 127
2, 12213, Note_on_c, 0, 67, 0
2, 12217, Note_on_c, 0, 62, 0
2, 12220, Note_on_c, 0, 77, 0
2, 12220, Note_on_c, 0, 76, 57
2, 12229, Note_on_c, 0, 56, 0
2, 12236, Note_on_c, 0, 77, 74
2, 12240, Note_on_c, 0, 76, 0
2, 12252, Note_on_c, 0, 66, 48
2, 12252, Control_c, 0, 64, 0
2, 12253, Note_on_c, 0, 55, 54
2, 12253, Note_on_c, 0, 61, 47
2, 12254, Note_on_c, 0, 77, 0
2, 12254, Note_on_c, 0, 76, 64
2, 12310, Control_c, 0, 64, 127
2, 12437, Note_on_c, 0, 66, 0
2, 12450, Note_on_c, 0, 55, 0
2, 12459, Note_on_c, 0, 75, 67
2, 12461, Note_on_c, 0, 76, 0
2, 12474, Note_on_c, 0, 75, 0
2, 12476, Note_on_c, 0, 76, 63
2, 12481, Note_on_c, 0, 61, 0
2, 12495, Note_on_c, 0, 76, 0
2, 12497, Note_on_c, 0, 54, 50
2, 12498, Note_on_c, 0, 75, 63
2, 12499, Note_on_c, 0, 65, 48
2, 12500, Note_on_c, 0, 60, 52
2, 12504, Control_c, 0, 64, 0
2, 12551, Control_c, 0, 64, 127
2, 12560, Note_on_c, 0, 75, 0
2, 12565, Note_on_c, 0, 74, 41
2, 12576, Note_on_c, 0, 74, 0
2, 12578, Note_on_c, 0, 75, 46
2, 12594, Note_on_c, 0, 75, 0
2, 12598, Note_on_c, 0, 74, 74
2, 12600, Control_c, 0, 64, 0
2, 12636, Control_c, 0, 64, 127
2, 12757, Note_on_c, 0, 60, 0
2, 12758, Note_on_c, 0, 65, 0
2, 12795, Note_on_c, 0, 74, 0
2, 12795, Note_on_c, 0, 73, 34
2, 12808, Note_on_c, 0, 73, 0
2, 12810, Note_on_c, 0, 74, 69
2, 12829, Note_on_c, 0, 73, 71
2, 12831, Note_on_c, 0, 74, 0
2, 12832, Note_on_c, 0, 65, 39
2, 12833, Control_c, 0, 64, 0
2, 12833, Note_on_c, 0, 60, 53
2, 12847, Control_c, 0, 64, 127
2, 12864, Note_on_c, 0, 73, 0
2, 12868, Note_on_c, 0, 72, 70
2, 12880, Note_on_c, 0, 60, 0
2, 12881, Note_on_c, 0, 54, 0
2, 12883, Note_on_c, 0, 72, 0
2, 12885, Note_on_c, 0, 74, 50
2, 12900, Note_on_c, 0, 65, 0
2, 12904, Note_on_c, 0, 72, 69
2, 12905, Note_on_c, 0, 74, 0
2, 12950, Note_on_c, 0, 65, 33
2, 12951, Note_on_c, 0, 60, 44
2, 12953, Note_on_c, 0, 55, 22
2, 12954, Control_c, 0, 64, 0
2, 12976, Control_c, 0, 64, 127
2, 12990, Note_on_c, 0, 65, 0
2, 12994, Note_on_c, 0, 60, 0
2, 13002, Note_on_c, 0, 55, 0
2, 13077, Note_on_c, 0, 43, 36
2, 13096, Note_on_c, 0, 72, 0
2, 13141, Note_on_c, 0, 71, 84
2, 13199, Note_on_c, 0, 68, 50
2, 13201, Note_on_c, 0, 63, 43
2, 13202, Note_on_c, 0, 59, 56
2, 13202, Note_on_c, 0, 53, 42
2, 13207, Control_c, 0, 64, 0
2, 13253, Control_c, 0, 64, 127
2, 13288, Note_on_c, 0, 53, 0
2, 13324, Note_on_c, 0, 63, 0
2, 13328, Note_on_c, 0, 53, 35
2, 13335, Note_on_c, 0, 71, 0
2, 13341, Note_on_c, 0, 59, 0
2, 13353, Note_on_c, 0, 43, 0
2, 13354, Note_on_c, 0, 53, 0
2, 13363, Note_on_c, 0, 68, 0
2, 13412, Note_on_c, 0, 68, 56
2, 13412, Note_on_c, 0, 63, 60
2, 13414, Note_on_c, 0, 59, 50
2, 13425, Note_on_c, 0, 59, 0
2, 13425, Note_on_c, 0, 68, 0
2, 13430, Note_on_c, 0, 63, 0
2, 13451, Note_on_c, 0, 43, 28
2, 13452, Note_on_c, 0, 36, 50
2, 13454, Control_c, 0, 64, 0
2, 13455, Note_on_c, 0, 62, 53
2, 13455, Note_on_c, 0, 67, 54
2, 13456, Note_on_c, 0, 57, 36
2, 13497, Control_c, 0, 64, 127
2, 13514, Note_on_c, 0, 57, 0
2, 13523, Note_on_c, 0, 62, 0
2, 13530, Note_on_c, 0, 67, 0
2, 13573, Note_on_c, 0, 36, 0
2, 13573, Note_on_c, 0, 72, 108
2, 13583, Note_on_c, 0, 43, 0
2, 13642, Note_on_c, 0, 72, 0
2, 13643, Note_on_c, 0, 74, 60
2, 13660, Note_on_c, 0, 74, 0
2, 13660, Note_on_c, 0, 72, 45
2, 13673, Note_on_c, 0, 72, 0
2, 13673, Note_on_c, 0, 71, 65
2, 13688, Note_on_c, 0, 71, 0
2, 13688, Note_on_c, 0, 54, 43
2, 13690, Note_on_c, 0, 64, 31
2, 13691, Control_c, 0, 64, 0
2, 13693, Note_on_c, 0, 72, 52
2, 13695, Note_on_c, 0, 58, 34
2, 13740, Control_c, 0, 64, 127
2, 13764, Note_on_c, 0, 58, 0
2, 13768, Note_on_c, 0, 64, 0
2, 13844, Note_on_c, 0, 72, 0
2, 13852, Note_on_c, 0, 54, 0
2, 13906, Note_on_c, 0, 54, 46
2, 13907, Note_on_c, 0, 72, 58
2, 13908, Note_on_c, 0, 64, 44
2, 13908, Note_on_c, 0, 84, 61
2, 13910, Note_on_c, 0, 58, 38
2, 13916, Note_on_c, 0, 72, 0
2, 13920, Note_on_c, 0, 84, 0
2, 13922, Note_on_c, 0, 64, 0
2, 13931, Note_on_c, 0, 54, 0
2, 13935, Note_on_c, 0, 58, 0
2, 13948, Control_c, 0, 64, 0
2, 13948, Note_on_c, 0, 88, 81
2, 13949, Note_on_c, 0, 57, 68
2, 13949, Note_on_c, 0, 53, 58
2, 13950, Note_on_c, 0, 60, 65
2, 13950, Note_on_c, 0, 76, 72
2, 13950, Note_on_c, 0, 64, 65
2, 13950, Note_on_c, 0, 81, 68
2, 13951, Note_on_c, 0, 84, 62
2, 13971, Note_on_c, 0, 84, 0
2, 13973, Note_on_c, 0, 81, 0
2, 13973, Note_on_c, 0, 64, 0
2, 13974, Note_on_c, 0, 60, 0
2, 13974, Note_on_c, 0, 76, 0
2, 13975, Note_on_c, 0, 88, 0
2, 13977, Note_on_c, 0, 53, 0
2, 13977, Note_on_c, 0, 57, 0
2, 14009, Note_on_c, 0, 88, 63
2, 14010, Note_on_c, 0, 76, 52
2, 14010, Note_on_c, 0, 64, 52
2, 14011, Note_on_c, 0, 60, 48
2, 14011, Note_on_c, 0, 81, 47
2, 14011, Note_on_c, 0, 53, 40
2, 14012, Note_on_c, 0, 57, 47
2, 14012, Note_on_c, 0, 84, 38
2, 14025, Note_on_c, 0, 81, 0
2, 14026, Note_on_c, 0, 76, 0
2, 14027, Note_on_c, 0, 84, 0
2, 14028, Note_on_c, 0, 88, 0
2, 14029, Note_on_c, 0, 64, 0
2, 14030, Note_on_c, 0, 60, 0
2, 14030, Note_on_c, 0, 57, 0
2, 14032, Note_on_c, 0, 53, 0
2, 14067, Note_on_c, 0, 57, 45
2, 14067, Note_on_c, 0, 88, 47
2, 14067, Note_on_c, 0, 64, 32
2, 14069, Note_on_c, 0, 76, 33
2, 14069, Note_on_c, 0, 53, 30
2, 14069, Note_on_c, 0, 60, 39
2, 14070, Note_on_c, 0, 84, 35
2, 14070, Note_on_c, 0, 81, 34
2, 14077, Control_c, 0, 64, 127
2, 14085, Note_on_c, 0, 84, 0
2, 14086, Note_on_c, 0, 88, 0
2, 14089, Note_on_c, 0, 60, 0
2, 14089, Note_on_c, 0, 64, 0
2, 14090, Note_on_c, 0, 76, 0
2, 14090, Note_on_c, 0, 57, 0
2, 14091, Note_on_c, 0, 81, 0
2, 14091, Note_on_c, 0, 53, 0
2, 14101, Note_on_c, 0, 86, 54
2, 14102, Note_on_c, 0, 81, 32
2, 14102, Control_c, 0, 64, 0
2, 14102, Note_on_c, 0, 74, 36
2, 14104, Note_on_c, 0, 57, 35
2, 14105, Note_on_c, 0, 64, 15
2, 14110, Note_on_c, 0, 74, 0
2, 14112, Note_on_c, 0, 64, 0
2, 14113, Note_on_c, 0, 86, 0
2, 14113, Note_on_c, 0, 81, 0
2, 14113, Note_on_c, 0, 57, 0
2, 14137, Note_on_c, 0, 86, 65
2, 14139, Note_on_c, 0, 81, 43
2, 14139, Note_on_c, 0, 74, 38
2, 14139, Note_on_c, 0, 64, 25
2, 14139, Note_on_c, 0, 57, 42
2, 14141, Note_on_c, 0, 60, 30
2, 14147, Note_on_c, 0, 74, 0
2, 14147, Note_on_c, 0, 86, 0
2, 14148, Note_on_c, 0, 81, 0
2, 14149, Note_on_c, 0, 64, 0
2, 14149, Note_on_c, 0, 60, 0
2, 14150, Note_on_c, 0, 57, 0
2, 14183, Note_on_c, 0, 86, 61
2, 14184, Note_on_c, 0, 67, 46
2, 14185, Note_on_c, 0, 74, 43
2, 14185, Note_on_c, 0, 62, 40
2, 14185, Note_on_c, 0, 81, 39
2, 14186, Note_on_c, 0, 56, 27
2, 14191, Note_on_c, 0, 74, 0
2, 14192, Note_on_c, 0, 81, 0
2, 14192, Note_on_c, 0, 86, 0
2, 14195, Note_on_c, 0, 67, 0
2, 14197, Note_on_c, 0, 62, 0
2, 14198, Note_on_c, 0, 56, 0
2, 14232, Note_on_c, 0, 86, 57
2, 14232, Note_on_c, 0, 67, 36
2, 14233, Note_on_c, 0, 56, 25
2, 14234, Control_c, 0, 64, 127
2, 14235, Note_on_c, 0, 81, 34
2, 14235, Note_on_c, 0, 74, 29
2, 14235, Note_on_c, 0, 62, 48
2, 14237, Note_on_c, 0, 60, 39
2, 14315, Note_on_c, 0, 74, 0
2, 14320, Note_on_c, 0, 86, 0
2, 14323, Note_on_c, 0, 81, 0
2, 14324, Note_on_c, 0, 60, 0
2, 14328, Note_on_c, 0, 67, 0
2, 14328, Note_on_c, 0, 56, 0
2, 14329, Note_on_c, 0, 62, 0
2, 14375, Note_on_c, 0, 67, 68
2, 14376, Note_on_c, 0, 56, 36
2, 14376, Note_on_c, 0, 76, 57
2, 14377, Note_on_c, 0, 83, 58
2, 14378, Note_on_c, 0, 88, 45
2, 14378, Note_on_c, 0, 62, 50
2, 14381, Note_on_c, 0, 76, 0
2, 14381, Note_on_c, 0, 67, 0
2, 14382, Note_on_c, 0, 62, 0
2, 14384, Note_on_c, 0, 83, 0
2, 14385, Note_on_c, 0, 88, 0
2, 14388, Note_on_c, 0, 56, 0
2, 14405, Note_on_c, 0, 93, 91
2, 14405, Note_on_c, 0, 88, 85
2, 14405, Note_on_c, 0, 81, 87
2, 14408, Note_on_c, 0, 62, 65
2, 14411, Note_on_c, 0, 59, 29
2, 14412, Note_on_c, 0, 62, 0
2, 14415, Note_on_c, 0, 88, 0
2, 14416, Note_on_c, 0, 59, 0
2, 14416, Note_on_c, 0, 81, 0
2, 14417, Note_on_c, 0, 93, 0
2, 14428, Control_c, 0, 64, 0
2, 14432, Note_on_c, 0, 62, 71
2, 14433, Note_on_c, 0, 79, 71
2, 14433, Note_on_c, 0, 91, 75
2, 14433, Note_on_c, 0, 86, 81
2, 14433, Note_on_c, 0, 52, 48
2, 14434, Note_on_c, 0, 59, 49
2, 14434, Note_on_c, 0, 55, 58
2, 14437, Note_on_c, 0, 86, 0
2, 14438, Note_on_c, 0, 79, 0
2, 14438, Note_on_c, 0, 59, 0
2, 14439, Note_on_c, 0, 52, 0
2, 14439, Note_on_c, 0, 55, 0
2, 14440, Note_on_c, 0, 62, 0
2, 14441, Note_on_c, 0, 91, 0
2, 14480, Note_on_c, 0, 52, 57
2, 14480, Note_on_c, 0, 62, 59
2, 14480, Note_on_c, 0, 91, 77
2, 14480, Note_on_c, 0, 79, 70
2, 14481, Note_on_c, 0, 86, 81
2, 14481, Note_on_c, 0, 55, 57
2, 14481, Note_on_c, 0, 59, 49
2, 14491, Control_c, 0, 64, 127
2, 14503, Note_on_c, 0, 86, 0
2, 14504, Note_on_c, 0, 91, 0
2, 14506, Note_on_c, 0, 79, 0
2, 14506, Note_on_c, 0, 62, 0
2, 14507, Note_on_c, 0, 52, 0
2, 14509, Note_on_c, 0, 59, 0
2, 14509, Note_on_c, 0, 55, 0
2, 14532, Note_on_c, 0, 91, 69
2, 14533, Note_on_c, 0, 86, 74
2, 14533, Note_on_c, 0, 79, 52
2, 14533, Note_on_c, 0, 52, 45
2, 14533, Note_on_c, 0, 62, 49
2, 14533, Note_on_c, 0, 55, 53
2, 14534, Note_on_c, 0, 59, 44
2, 14545, Note_on_c, 0, 91, 0
2, 14546, Note_on_c, 0, 86, 0
2, 14551, Note_on_c, 0, 79, 0
2, 14559, Note_on_c, 0, 59, 0
2, 14560, Note_on_c, 0, 52, 0
2, 14560, Note_on_c, 0, 55, 0
2, 14561, Note_on_c, 0, 62, 0
2, 14588, Note_on_c, 0, 88, 60
2, 14589, Note_on_c, 0, 76, 47
2, 14589, Note_on_c, 0, 83, 48
2, 14589, Note_on_c, 0, 62, 51
2, 14589, Note_on_c, 0, 52, 38
2, 14590, Note_on_c, 0, 59, 39
2, 14590, Note_on_c, 0, 55, 51
2, 14603, Note_on_c, 0, 55, 0
2, 14603, Note_on_c, 0, 88, 0
2, 14604, Note_on_c, 0, 83, 0
2, 14605, Note_on_c, 0, 52, 0
2, 14606, Note_on_c, 0, 59, 0
2, 14607, Note_on_c, 0, 76, 0
2, 14613, Note_on_c, 0, 62, 0
2, 14650, Note_on_c, 0, 64, 43
2, 14651, Note_on_c, 0, 79, 49
2, 14651, Note_on_c, 0, 57, 49
2, 14651, Note_on_c, 0, 60, 52
2, 14652, Note_on_c, 0, 53, 33
2, 14653, Control_c, 0, 64, 0
2, 14653, Note_on_c, 0, 67, 36
2, 14679, Control_c, 0, 64, 127
2, 14731, Note_on_c, 0, 64, 0
2, 14734, Note_on_c, 0, 57, 0
2, 14738, Note_on_c, 0, 60, 0
2, 14773, Note_on_c, 0, 64, 34
2, 14774, Note_on_c, 0, 60, 40
2, 14776, Note_on_c, 0, 57, 25
2, 14800, Note_on_c, 0, 67, 0
2, 14823, Note_on_c, 0, 79, 0
2, 14834, Note_on_c, 0, 53, 0
2, 14835, Note_on_c, 0, 57, 0
2, 14836, Note_on_c, 0, 64, 0
2, 14838, Note_on_c, 0, 60, 0
2, 14870, Note_on_c, 0, 53, 55
2, 14870, Note_on_c, 0, 57, 55
2, 14871, Note_on_c, 0, 91, 82
2, 14871, Note_on_c, 0, 60, 54
2, 14871, Note_on_c, 0, 64, 37
2, 14871, Note_on_c, 0, 86, 94
2, 14871, Note_on_c, 0, 79, 80
2, 14876, Note_on_c, 0, 60, 0
2, 14877, Note_on_c, 0, 64, 0
2, 14880, Note_on_c, 0, 57, 0
2, 14884, Note_on_c, 0, 53, 0
2, 14889, Note_on_c, 0, 79, 0
2, 14892, Note_on_c, 0, 86, 0
2, 14895, Note_on_c, 0, 91, 0
2, 14907, Note_on_c, 0, 52, 59
2, 14908, Note_on_c, 0, 59, 44
2, 14908, Note_on_c, 0, 55, 62
2, 14908, Note_on_c, 0, 62, 62
2, 14909, Note_on_c, 0, 91, 65
2, 14909, Control_c, 0, 64, 0
2, 14910, Note_on_c, 0, 86, 87
2, 14910, Note_on_c, 0, 79, 67
2, 14928, Control_c, 0, 64, 127
2, 14929, Note_on_c, 0, 79, 0
2, 14930, Note_on_c, 0, 91, 0
2, 14934, Note_on_c, 0, 86, 0
2, 14935, Note_on_c, 0, 62, 0
2, 14937, Note_on_c, 0, 52, 0
2, 14937, Note_on_c, 0, 59, 0
2, 14937, Note_on_c, 0, 55, 0
2, 14941, Control_c, 0, 64, 0
2, 14944, Note_on_c, 0, 93, 78
2, 14945, Note_on_c, 0, 86, 62
2, 14946, Note_on_c, 0, 81, 58
2, 14947, Note_on_c, 0, 52, 40
2, 14948, Note_on_c, 0, 62, 37
2, 14948, Note_on_c, 0, 55, 53
2, 14949, Note_on_c, 0, 59, 40
2, 14967, Control_c, 0, 64, 127
2, 14989, Note_on_c, 0, 55, 0
2, 14989, Note_on_c, 0, 62, 0
2, 14990, Note_on_c, 0, 59, 0
2, 14991, Note_on_c, 0, 93, 0
2, 14992, Note_on_c, 0, 81, 0
2, 14993, Note_on_c, 0, 52, 0
2, 14994, Note_on_c, 0, 86, 0
2, 15013, Note_on_c, 0, 91, 53
2, 15014, Note_on_c, 0, 86, 62
2, 15015, Note_on_c, 0, 52, 36
2, 15016, Note_on_c, 0, 62, 39
2, 15017, Note_on_c, 0, 55, 51
2, 15017, Note_on_c, 0, 79, 24
2, 15017, Control_c, 0, 64, 0
2, 15017, Note_on_c, 0, 59, 31
2, 15025, Control_c, 0, 64, 127
2, 15060, Note_on_c, 0, 52, 0
2, 15061, Note_on_c, 0, 55, 0
2, 15063, Note_on_c, 0, 59, 0
2, 15072, Note_on_c, 0, 62, 0
2, 15112, Note_on_c, 0, 86, 0
2, 15114, Note_on_c, 0, 91, 0
2, 15119, Note_on_c, 0, 79, 0
2, 15180, Note_on_c, 0, 89, 83
2, 15181, Note_on_c, 0, 82, 77
2, 15181, Note_on_c, 0, 85, 77
2, 15181, Note_on_c, 0, 77, 82
2, 15182, Control_c, 0, 64, 0
2, 15182, Note_on_c, 0, 61, 70
2, 15182, Note_on_c, 0, 60, 80
2, 15183, Note_on_c, 0, 65, 81
2, 15183, Note_on_c, 0, 55, 74
2, 15184, Note_on_c, 0, 58, 50
2, 15202, Control_c, 0, 64, 127
2, 15221, Note_on_c, 0, 89, 0
2, 15223, Note_on_c, 0, 55, 0
2, 15225, Note_on_c, 0, 65, 0
2, 15226, Note_on_c, 0, 77, 0
2, 15227, Note_on_c, 0, 60, 0
2, 15228, Note_on_c, 0, 82, 0
2, 15228, Note_on_c, 0, 85, 0
2, 15229, Note_on_c, 0, 61, 0
2, 15231, Note_on_c, 0, 58, 0
2, 15240, Note_on_c, 0, 88, 74
2, 15241, Control_c, 0, 64, 0
2, 15241, Note_on_c, 0, 65, 71
2, 15241, Note_on_c, 0, 82, 69
2, 15241, Note_on_c, 0, 61, 50
2, 15242, Note_on_c, 0, 76, 71
2, 15242, Note_on_c, 0, 85, 62
2, 15243, Note_on_c, 0, 60, 46
2, 15243, Note_on_c, 0, 55, 66
2, 15246, Note_on_c, 0, 58, 27
2, 15261, Control_c, 0, 64, 127
2, 15284, Note_on_c, 0, 65, 0
2, 15285, Note_on_c, 0, 55, 0
2, 15306, Note_on_c, 0, 76, 0
2, 15307, Note_on_c, 0, 88, 0
2, 15307, Note_on_c, 0, 85, 0
2, 15308, Note_on_c, 0, 60, 0
2, 15312, Note_on_c, 0, 58, 0
2, 15313, Note_on_c, 0, 82, 0
2, 15313, Note_on_c, 0, 61, 0
2, 15337, Note_on_c, 0, 61, 37
2, 15353, Note_on_c, 0, 61, 0
2, 15366, Note_on_c, 0, 53, 53
2, 15366, Note_on_c, 0, 93, 57
2, 15367, Note_on_c, 0, 81, 57
2, 15367, Note_on_c, 0, 88, 49
2, 15367, Note_on_c, 0, 57, 61
2, 15368, Control_c, 0, 64, 0
2, 15368, Note_on_c, 0, 64, 46
2, 15369, Note_on_c, 0, 91, 48
2, 15369, Note_on_c, 0, 60, 55
2, 15378, Note_on_c, 0, 91, 0
2, 15409, Note_on_c, 0, 64, 0
2, 15410, Note_on_c, 0, 88, 0
2, 15410, Note_on_c, 0, 53, 0
2, 15410, Note_on_c, 0, 57, 0
2, 15411, Note_on_c, 0, 60, 0
2, 15411, Note_on_c, 0, 81, 0
2, 15413, Note_on_c, 0, 93, 0
2, 15431, Note_on_c, 0, 93, 57
2, 15433, Note_on_c, 0, 81, 37
2, 15433, Note_on_c, 0, 64, 29
2, 15433, Note_on_c, 0, 88, 48
2, 15434, Note_on_c, 0, 53, 22
2, 15434, Note_on_c, 0, 57, 38
2, 15434, Note_on_c, 0, 60, 41
2, 15452, Control_c, 0, 64, 127
2, 15463, Note_on_c, 0, 93, 0
2, 15465, Note_on_c, 0, 88, 0
2, 15471, Note_on_c, 0, 81, 0
2, 15475, Note_on_c, 0, 64, 0
2, 15475, Note_on_c, 0, 60, 0
2, 15477, Note_on_c, 0, 57, 0
2, 15477, Note_on_c, 0, 53, 0
2, 15495, Note_on_c, 0, 86, 59
2, 15497, Note_on_c, 0, 74, 40
2, 15497, Note_on_c, 0, 64, 40
2, 15498, Note_on_c, 0, 81, 54
2, 15500, Note_on_c, 0, 57, 42
2, 15501, Note_on_c, 0, 53, 22
2, 15501, Note_on_c, 0, 60, 39
2, 15536, Note_on_c, 0, 60, 0
2, 15536, Note_on_c, 0, 57, 0
2, 15537, Note_on_c, 0, 81, 0
2, 15537, Note_on_c, 0, 64, 0
2, 15537, Note_on_c, 0, 86, 0
2, 15537, Note_on_c, 0, 74, 0
2, 15538, Note_on_c, 0, 53, 0
2, 15557, Note_on_c, 0, 86, 51
2, 15558, Note_on_c, 0, 64, 29
2, 15558, Note_on_c, 0, 74, 36
2, 15559, Note_on_c, 0, 53, 24
2, 15559, Note_on_c, 0, 81, 36
2, 15560, Note_on_c, 0, 57, 39
2, 15561, Note_on_c, 0, 60, 45
2, 15562, Control_c, 0, 64, 0
2, 15599, Control_c, 0, 64, 127
2, 15640, Note_on_c, 0, 60, 0
2, 15640, Note_on_c, 0, 57, 0
2, 15644, Note_on_c, 0, 53, 0
2, 15648, Note_on_c, 0, 64, 0
2, 15722, Note_on_c, 0, 65, 76
2, 15722, Note_on_c, 0, 69, 84
2, 15722, Note_on_c, 0, 64, 73
2, 15725, Control_c, 0, 64, 0
2, 15737, Control_c, 0, 64, 127
2, 15765, Note_on_c, 0, 64, 0
2, 15770, Note_on_c, 0, 69, 0
2, 15771, Note_on_c, 0, 65, 0
2, 15786, Note_on_c, 0, 69, 71
2, 15788, Note_on_c, 0, 86, 0
2, 15788, Note_on_c, 0, 65, 65
2, 15789, Note_on_c, 0, 64, 53
2, 15794, Note_on_c, 0, 81, 0
2, 15795, Note_on_c, 0, 64, 0
2, 15802, Note_on_c, 0, 69, 0
2, 15803, Note_on_c, 0, 65, 0
2, 15811, Note_on_c, 0, 74, 0
2, 15846, Note_on_c, 0, 89, 65
2, 15846, Note_on_c, 0, 67, 77
2, 15847, Note_on_c, 0, 84, 80
2, 15848, Note_on_c, 0, 62, 68
2, 15848, Note_on_c, 0, 56, 57
2, 15848, Note_on_c, 0, 77, 74
2, 15848, Note_on_c, 0, 60, 68
2, 15848, Note_on_c, 0, 88, 66
2, 15852, Note_on_c, 0, 88, 0
2, 15853, Control_c, 0, 64, 0
2, 15877, Control_c, 0, 64, 127
2, 15898, Note_on_c, 0, 60, 0
2, 15899, Note_on_c, 0, 67, 0
2, 15900, Note_on_c, 0, 56, 0
2, 15901, Note_on_c, 0, 62, 0
2, 15901, Note_on_c, 0, 89, 0
2, 15901, Note_on_c, 0, 77, 0
2, 15901, Note_on_c, 0, 84, 0
2, 15912, Note_on_c, 0, 67, 60
2, 15912, Note_on_c, 0, 89, 62
2, 15913, Note_on_c, 0, 56, 46
2, 15913, Note_on_c, 0, 62, 58
2, 15914, Note_on_c, 0, 77, 48
2, 15915, Note_on_c, 0, 60, 53
2, 15915, Note_on_c, 0, 84, 61
2, 15955, Note_on_c, 0, 60, 0
2, 15976, Note_on_c, 0, 67, 0
2, 15982, Note_on_c, 0, 56, 0
2, 15993, Note_on_c, 0, 62, 0
2, 16005, Note_on_c, 0, 77, 0
2, 16007, Note_on_c, 0, 84, 0
2, 16011, Note_on_c, 0, 89, 0
2, 16046, Note_on_c, 0, 91, 66
2, 16048, Note_on_c, 0, 86, 63
2, 16049, Note_on_c, 0, 67, 44
2, 16050, Note_on_c, 0, 79, 24
2, 16052, Note_on_c, 0, 86, 0
2, 16053, Note_on_c, 0, 62, 27
2, 16054, Note_on_c, 0, 79, 0
2, 16054, Note_on_c, 0, 67, 0
2, 16056, Note_on_c, 0, 91, 0
2, 16065, Note_on_c, 0, 67, 46
2, 16066, Note_on_c, 0, 56, 46
2, 16067, Note_on_c, 0, 89, 58
2, 16069, Note_on_c, 0, 77, 45
2, 16074, Note_on_c, 0, 67, 0
2, 16074, Note_on_c, 0, 62, 0
2, 16078, Note_on_c, 0, 77, 0
2, 16079, Note_on_c, 0, 89, 0
2, 16082, Note_on_c, 0, 56, 0
2, 16089, Note_on_c, 0, 88, 78
2, 16091, Note_on_c, 0, 76, 66
2, 16091, Note_on_c, 0, 65, 68
2, 16091, Note_on_c, 0, 55, 74
2, 16092, Note_on_c, 0, 82, 56
2, 16093, Note_on_c, 0, 61, 53
2, 16095, Control_c, 0, 64, 0
2, 16116, Control_c, 0, 64, 127
2, 16179, Note_on_c, 0, 65, 0
2, 16185, Note_on_c, 0, 61, 0
2, 16200, Note_on_c, 0, 88, 0
2, 16203, Note_on_c, 0, 55, 0
2, 16207, Note_on_c, 0, 82, 0
2, 16217, Note_on_c, 0, 76, 0
2, 16219, Note_on_c, 0, 61, 45
2, 16219, Note_on_c, 0, 65, 40
2, 16219, Note_on_c, 0, 55, 41
2, 16231, Note_on_c, 0, 65, 0
2, 16240, Note_on_c, 0, 61, 0
2, 16241, Note_on_c, 0, 55, 0
2, 16327, Note_on_c, 0, 38, 71
2, 16327, Note_on_c, 0, 65, 92
2, 16328, Note_on_c, 0, 69, 91
2, 16328, Note_on_c, 0, 60, 101
2, 16329, Control_c, 0, 64, 0
2, 16356, Control_c, 0, 64, 127
2, 16421, Note_on_c, 0, 65, 0
2, 16422, Note_on_c, 0, 69, 0
2, 16430, Note_on_c, 0, 60, 0
2, 16454, Note_on_c, 0, 67, 68
2, 16455, Note_on_c, 0, 40, 67
2, 16456, Note_on_c, 0, 62, 76
2, 16457, Note_on_c, 0, 59, 66
2, 16459, Control_c, 0, 64, 0
2, 16462, Note_on_c, 0, 38, 0
2, 16483, Control_c, 0, 64, 127
2, 16527, Note_on_c, 0, 67, 0
2, 16528, Note_on_c, 0, 62, 0
2, 16535, Note_on_c, 0, 59, 0
2, 16572, Note_on_c, 0, 65, 55
2, 16573, Note_on_c, 0, 40, 0
2, 16574, Note_on_c, 0, 57, 34
2, 16575, Note_on_c, 0, 60, 50
2, 16575, Note_on_c, 0, 41, 42
2, 16577, Control_c, 0, 64, 0
2, 16601, Control_c, 0, 64, 127
2, 16652, Note_on_c, 0, 60, 0
2, 16653, Note_on_c, 0, 65, 0
2, 16660, Note_on_c, 0, 57, 0
2, 16686, Note_on_c, 0, 53, 53
2, 16687, Note_on_c, 0, 56, 59
2, 16698, Note_on_c, 0, 56, 0
2, 16698, Control_c, 0, 64, 0
2, 16699, Note_on_c, 0, 57, 68
2, 16726, Note_on_c, 0, 60, 80
2, 16731, Control_c, 0, 64, 127
2, 16756, Note_on_c, 0, 60, 0
2, 16758, Note_on_c, 0, 53, 0
2, 16759, Note_on_c, 0, 57, 0
2, 16767, Note_on_c, 0, 60, 71
2, 16773, Note_on_c, 0, 41, 0
2, 16784, Note_on_c, 0, 60, 0
2, 16789, Note_on_c, 0, 57, 64
2, 16800, Note_on_c, 0, 57, 0
2, 16812, Note_on_c, 0, 43, 55
2, 16812, Note_on_c, 0, 60, 66
2, 16813, Note_on_c, 0, 53, 52
2, 16813, Control_c, 0, 64, 0
2, 16813, Note_on_c, 0, 57, 49
2, 16858, Control_c, 0, 64, 127
2, 16934, Note_on_c, 0, 43, 0
2, 16938, Note_on_c, 0, 53, 0
2, 16970, Note_on_c, 0, 57, 0
2, 16980, Note_on_c, 0, 60, 0
2, 16993, Note_on_c, 0, 57, 42
2, 17013, Note_on_c, 0, 57, 0
2, 17021, Note_on_c, 0, 60, 76
2, 17043, Note_on_c, 0, 60, 0
2, 17055, Note_on_c, 0, 56, 59
2, 17055, Note_on_c, 0, 59, 66
2, 17055, Note_on_c, 0, 43, 43
2, 17055, Control_c, 0, 64, 0
2, 17056, Note_on_c, 0, 53, 37
2, 17071, Control_c, 0, 64, 127
2, 17082, Note_on_c, 0, 56, 0
2, 17085, Note_on_c, 0, 59, 0
2, 17112, Note_on_c, 0, 43, 0
2, 17113, Note_on_c, 0, 62, 84
2, 17121, Note_on_c, 0, 53, 0
2, 17127, Note_on_c, 0, 62, 0
2, 17174, Note_on_c, 0, 71, 74
2, 17175, Control_c, 0, 64, 0
2, 17176, Note_on_c, 0, 68, 55
2, 17176, Note_on_c, 0, 56, 47
2, 17176, Note_on_c, 0, 65, 67
2, 17192, Control_c, 0, 64, 127
2, 17203, Note_on_c, 0, 71, 0
2, 17209, Note_on_c, 0, 65, 0
2, 17210, Note_on_c, 0, 68, 0
2, 17233, Note_on_c, 0, 62, 68
2, 17233, Note_on_c, 0, 71, 76
2, 17234, Note_on_c, 0, 76, 77
2, 17234, Note_on_c, 0, 68, 67
2, 17235, Note_on_c, 0, 65, 76
2, 17244, Note_on_c, 0, 62, 0
2, 17257, Note_on_c, 0, 76, 0
2, 17258, Note_on_c, 0, 65, 0
2, 17268, Note_on_c, 0, 68, 0
2, 17273, Note_on_c, 0, 71, 0
2, 17282, Note_on_c, 0, 56, 0
2, 17293, Note_on_c, 0, 74, 74
2, 17295, Note_on_c, 0, 71, 64
2, 17295, Note_on_c, 0, 64, 68
2, 17295, Note_on_c, 0, 67, 71
2, 17297, Control_c, 0, 64, 0
2, 17298, Note_on_c, 0, 59, 39
2, 17321, Control_c, 0, 64, 127
2, 17357, Note_on_c, 0, 55, 66
2, 17388, Note_on_c, 0, 67, 0
2, 17402, Note_on_c, 0, 64, 0
2, 17419, Note_on_c, 0, 71, 0
2, 17437, Note_on_c, 0, 74, 0
2, 17458, Note_on_c, 0, 55, 0
2, 17461, Note_on_c, 0, 59, 0
2, 17501, Note_on_c, 0, 72, 69
2, 17531, Note_on_c, 0, 65, 49
2, 17531, Note_on_c, 0, 61, 37
2, 17532, Note_on_c, 0, 60, 46
2, 17533, Note_on_c, 0, 55, 44
2, 17535, Control_c, 0, 64, 0
2, 17579, Note_on_c, 0, 77, 73
2, 17606, Note_on_c, 0, 77, 0
2, 17624, Note_on_c, 0, 77, 63
2, 17634, Control_c, 0, 64, 127
2, 17642, Note_on_c, 0, 77, 0
2, 17645, Note_on_c, 0, 65, 0
2, 17649, Note_on_c, 0, 60, 0
2, 17652, Note_on_c, 0, 61, 0
2, 17659, Note_on_c, 0, 72, 0
2, 17664, Note_on_c, 0, 61, 30
2, 17665, Note_on_c, 0, 65, 39
2, 17665, Note_on_c, 0, 60, 36
2, 17666, Note_on_c, 0, 77, 64
2, 17666, Control_c, 0, 64, 0
2, 17688, Note_on_c, 0, 77, 0
2, 17701, Note_on_c, 0, 75, 39
2, 17708, Note_on_c, 0, 76, 58
2, 17712, Note_on_c, 0, 75, 0
2, 17717, Control_c, 0, 64, 127
2, 17737, Note_on_c, 0, 60, 0
2, 17740, Note_on_c, 0, 65, 0
2, 17743, Note_on_c, 0, 69, 56
2, 17749, Note_on_c, 0, 55, 0
2, 17749, Note_on_c, 0, 61, 0
2, 17757, Note_on_c, 0, 69, 0
2, 17760, Note_on_c, 0, 76, 0
2, 17769, Note_on_c, 0, 69, 44
2, 17771, Note_on_c, 0, 55, 34
2, 17776, Note_on_c, 0, 57, 36
2, 17778, Note_on_c, 0, 65, 22
2, 17779, Note_on_c, 0, 60, 39
2, 17779, Control_c, 0, 64, 0
2, 17784, Note_on_c, 0, 69, 0
2, 17796, Note_on_c, 0, 72, 41
2, 17825, Note_on_c, 0, 72, 0
2, 17827, Note_on_c, 0, 74, 54
2, 17841, Note_on_c, 0, 74, 0
2, 17843, Note_on_c, 0, 72, 24
2, 17854, Note_on_c, 0, 69, 36
2, 17857, Note_on_c, 0, 72, 0
2, 17867, Note_on_c, 0, 69, 0
2, 17875, Note_on_c, 0, 72, 45
2, 17885, Control_c, 0, 64, 127
2, 17978, Note_on_c, 0, 72, 0
2, 17980, Note_on_c, 0, 57, 0
2, 17981, Note_on_c, 0, 60, 0
2, 17984, Note_on_c, 0, 65, 0
2, 17985, Note_on_c, 0, 55, 0
2, 18060, Note_on_c, 0, 61, 37
2, 18061, Note_on_c, 0, 56, 36
2, 18061, Note_on_c, 0, 65, 38
2, 18061, Note_on_c, 0, 55, 54
2, 18067, Control_c, 0, 64, 0
2, 18076, Control_c, 0, 64, 127
2, 18105, Note_on_c, 0, 91, 82
2, 18109, Note_on_c, 0, 65, 0
2, 18112, Note_on_c, 0, 61, 0
2, 18115, Note_on_c, 0, 55, 0
2, 18127, Note_on_c, 0, 91, 0
2, 18127, Note_on_c, 0, 56, 0
2, 18138, Note_on_c, 0, 92, 87
2, 18138, Note_on_c, 0, 53, 63
2, 18139, Note_on_c, 0, 64, 58
2, 18140, Note_on_c, 0, 59, 63
2, 18145, Control_c, 0, 64, 0
2, 18166, Note_on_c, 0, 92, 0
2, 18172, Note_on_c, 0, 94, 76
2, 18175, Control_c, 0, 64, 127
2, 18195, Note_on_c, 0, 94, 0
2, 18203, Note_on_c, 0, 95, 77
2, 18223, Note_on_c, 0, 95, 0
2, 18226, Note_on_c, 0, 64, 0
2, 18228, Note_on_c, 0, 53, 0
2, 18232, Note_on_c, 0, 98, 79
2, 18249, Note_on_c, 0, 59, 0
2, 18253, Note_on_c, 0, 98, 0
2, 18257, Note_on_c, 0, 59, 15
2, 18258, Note_on_c, 0, 62, 34
2, 18260, Note_on_c, 0, 55, 36
2, 18260, Note_on_c, 0, 52, 42
2, 18261, Note_on_c, 0, 96, 70
2, 18261, Control_c, 0, 64, 0
2, 18289, Note_on_c, 0, 96, 0
2, 18296, Note_on_c, 0, 95, 58
2, 18311, Note_on_c, 0, 95, 0
2, 18324, Control_c, 0, 64, 127
2, 18324, Note_on_c, 0, 88, 48
2, 18357, Note_on_c, 0, 59, 0
2, 18360, Note_on_c, 0, 62, 0
2, 18360, Note_on_c, 0, 55, 0
2, 18379, Note_on_c, 0, 62, 36
2, 18381, Note_on_c, 0, 59, 33
2, 18383, Note_on_c, 0, 55, 32
2, 18415, Note_on_c, 0, 55, 0
2, 18415, Note_on_c, 0, 52, 0
2, 18417, Note_on_c, 0, 59, 0
2, 18423, Note_on_c, 0, 62, 0
2, 18451, Note_on_c, 0, 88, 0
2, 18453, Note_on_c, 0, 93, 83
2, 18478, Note_on_c, 0, 89, 68
2, 18484, Note_on_c, 0, 93, 0
2, 18500, Note_on_c, 0, 89, 0
2, 18502, Note_on_c, 0, 61, 42
2, 18503, Note_on_c, 0, 66, 34
2, 18503, Note_on_c, 0, 55, 55
2, 18503, Note_on_c, 0, 85, 60
2, 18507, Control_c, 0, 64, 0
2, 18526, Note_on_c, 0, 85, 0
2, 18534, Note_on_c, 0, 84, 40
2, 18545, Control_c, 0, 64, 127
2, 18561, Note_on_c, 0, 82, 51
2, 18562, Note_on_c, 0, 84, 0
2, 18592, Note_on_c, 0, 55, 0
2, 18599, Note_on_c, 0, 61, 0
2, 18600, Note_on_c, 0, 66, 0
2, 18617, Note_on_c, 0, 61, 39
2, 18618, Note_on_c, 0, 65, 37
2, 18619, Note_on_c, 0, 55, 40
2, 18680, Note_on_c, 0, 55, 0
2, 18681, Note_on_c, 0, 65, 0
2, 18690, Note_on_c, 0, 61, 0
2, 18695, Note_on_c, 0, 82, 0
2, 18734, Control_c, 0, 64, 0
2, 18764, Control_c, 0, 64, 127
2, 18777, Note_on_c, 0, 64, 42
2, 18778, Note_on_c, 0, 57, 53
2, 18778, Note_on_c, 0, 84, 70
2, 18778, Note_on_c, 0, 53, 37
2, 18778, Note_on_c, 0, 72, 59
2, 18778, Note_on_c, 0, 60, 48
2, 18780, Note_on_c, 0, 81, 47
2, 18784, Control_c, 0, 64, 0
2, 18795, Control_c, 0, 64, 127
2, 18808, Note_on_c, 0, 72, 0
2, 18812, Note_on_c, 0, 84, 0
2, 18813, Note_on_c, 0, 81, 0
2, 18816, Note_on_c, 0, 53, 0
2, 18816, Note_on_c, 0, 64, 0
2, 18816, Note_on_c, 0, 57, 0
2, 18818, Note_on_c, 0, 60, 0
2, 18832, Control_c, 0, 64, 0
2, 18835, Note_on_c, 0, 88, 81
2, 18836, Note_on_c, 0, 84, 74
2, 18836, Note_on_c, 0, 76, 72
2, 18837, Note_on_c, 0, 53, 66
2, 18837, Note_on_c, 0, 81, 60
2, 18838, Note_on_c, 0, 60, 66
2, 18838, Note_on_c, 0, 57, 64
2, 18838, Note_on_c, 0, 64, 64
2, 18848, Control_c, 0, 64, 127
2, 18863, Note_on_c, 0, 76, 0
2, 18864, Note_on_c, 0, 81, 0
2, 18866, Note_on_c, 0, 84, 0
2, 18868, Note_on_c, 0, 88, 0
2, 18873, Note_on_c, 0, 64, 0
2, 18873, Note_on_c, 0, 57, 0
2, 18874, Note_on_c, 0, 60, 0
2, 18876, Note_on_c, 0, 53, 0
2, 18892, Note_on_c, 0, 91, 71
2, 18893, Note_on_c, 0, 53, 46
2, 18894, Note_on_c, 0, 79, 51
2, 18894, Note_on_c, 0, 64, 58
2, 18895, Note_on_c, 0, 84, 58
2, 18895, Note_on_c, 0, 60, 62
2, 18895, Note_on_c, 0, 57, 60
2, 18895, Note_on_c, 0, 88, 50
2, 18897, Control_c, 0, 64, 0
2, 18900, Note_on_c, 0, 88, 0
2, 18904, Note_on_c, 0, 84, 0
2, 18907, Note_on_c, 0, 64, 0
2, 18907, Note_on_c, 0, 79, 0
2, 18909, Note_on_c, 0, 91, 0
2, 18910, Note_on_c, 0, 60, 0
2, 18911, Note_on_c, 0, 57, 0
2, 18914, Note_on_c, 0, 53, 0
2, 18954, Control_c, 0, 64, 127
2, 19002, Control_c, 0, 64, 0
2, 19003, Note_on_c, 0, 53, 83
2, 19004, Note_on_c, 0, 64, 79
2, 19005, Note_on_c, 0, 87, 78
2, 19005, Note_on_c, 0, 75, 76
2, 19005, Note_on_c, 0, 59, 67
2, 19006, Note_on_c, 0, 82, 74
2, 19015, Control_c, 0, 64, 127
2, 19025, Note_on_c, 0, 75, 0
2, 19027, Note_on_c, 0, 82, 0
2, 19029, Note_on_c, 0, 87, 0
2, 19037, Note_on_c, 0, 59, 0
2, 19039, Note_on_c, 0, 64, 0
2, 19041, Note_on_c, 0, 53, 0
2, 19063, Control_c, 0, 64, 0
2, 19063, Note_on_c, 0, 91, 68
2, 19064, Note_on_c, 0, 79, 61
2, 19065, Note_on_c, 0, 53, 75
2, 19065, Note_on_c, 0, 64, 71
2, 19065, Note_on_c, 0, 86, 66
2, 19066, Note_on_c, 0, 59, 66
2, 19070, Control_c, 0, 64, 127
2, 19078, Note_on_c, 0, 79, 0
2, 19082, Note_on_c, 0, 86, 0
2, 19082, Note_on_c, 0, 91, 0
2, 19083, Note_on_c, 0, 64, 0
2, 19090, Note_on_c, 0, 59, 0
2, 19092, Note_on_c, 0, 53, 0
2, 19121, Note_on_c, 0, 98, 75
2, 19121, Note_on_c, 0, 53, 75
2, 19122, Note_on_c, 0, 63, 78
2, 19122, Note_on_c, 0, 93, 76
2, 19123, Note_on_c, 0, 59, 68
2, 19123, Note_on_c, 0, 86, 64
2, 19123, Control_c, 0, 64, 0
2, 19124, Note_on_c, 0, 56, 52
2, 19137, Control_c, 0, 64, 127
2, 19143, Note_on_c, 0, 93, 0
2, 19144, Note_on_c, 0, 98, 0
2, 19153, Note_on_c, 0, 53, 0
2, 19153, Note_on_c, 0, 86, 0
2, 19155, Note_on_c, 0, 63, 0
2, 19161, Note_on_c, 0, 59, 0
2, 19162, Note_on_c, 0, 56, 0
2, 19180, Note_on_c, 0, 55, 64
2, 19180, Note_on_c, 0, 95, 62
2, 19181, Control_c, 0, 64, 0
2, 19181, Note_on_c, 0, 52, 57
2, 19182, Note_on_c, 0, 59, 41
2, 19182, Note_on_c, 0, 62, 53
2, 19182, Note_on_c, 0, 83, 54
2, 19182, Note_on_c, 0, 91, 55
2, 19183, Note_on_c, 0, 88, 58
2, 19198, Control_c, 0, 64, 127
2, 19203, Note_on_c, 0, 91, 0
2, 19203, Note_on_c, 0, 95, 0
2, 19204, Note_on_c, 0, 88, 0
2, 19211, Note_on_c, 0, 52, 0
2, 19212, Note_on_c, 0, 83, 0
2, 19214, Note_on_c, 0, 62, 0
2, 19215, Note_on_c, 0, 55, 0
2, 19216, Note_on_c, 0, 59, 0
2, 19242, Note_on_c, 0, 91, 45
2, 19242, Control_c, 0, 64, 0
2, 19243, Note_on_c, 0, 62, 42
2, 19243, Note_on_c, 0, 52, 37
2, 19243, Note_on_c, 0, 79, 41
2, 19244, Note_on_c, 0, 86, 63
2, 19244, Note_on_c, 0, 59, 40
2, 19244, Note_on_c, 0, 55, 51
2, 19251, Control_c, 0, 64, 127
2, 19256, Note_on_c, 0, 86, 0
2, 19256, Note_on_c, 0, 91, 0
2, 19261, Note_on_c, 0, 79, 0
2, 19266, Note_on_c, 0, 55, 0
2, 19272, Note_on_c, 0, 59, 0
2, 19275, Note_on_c, 0, 62, 0
2, 19276, Note_on_c, 0, 52, 0
2, 19302, Note_on_c, 0, 84, 56
2, 19303, Note_on_c, 0, 62, 43
2, 19305, Note_on_c, 0, 52, 29
2, 19305, Note_on_c, 0, 59, 38
2, 19306, Note_on_c, 0, 72, 33
2, 19306, Note_on_c, 0, 55, 50
2, 19309, Control_c, 0, 64, 0
2, 19327, Control_c, 0, 64, 127
2, 19348, Note_on_c, 0, 62, 0
2, 19359, Note_on_c, 0, 59, 0
2, 19366, Note_on_c, 0, 84, 0
2, 19367, Note_on_c, 0, 62, 51
2, 19369, Note_on_c, 0, 59, 9
2, 19376, Note_on_c, 0, 55, 0
2, 19377, Note_on_c, 0, 52, 0
2, 19380, Note_on_c, 0, 59, 0
2, 19380, Note_on_c, 0, 72, 0
2, 19387, Note_on_c, 0, 62, 0
2, 19432, Note_on_c, 0, 67, 48
2, 19432, Note_on_c, 0, 74, 85
2, 19432, Note_on_c, 0, 81, 78
2, 19433, Note_on_c, 0, 63, 32
2, 19434, Note_on_c, 0, 62, 50
2, 19434, Note_on_c, 0, 57, 38
2, 19435, Control_c, 0, 64, 0
2, 19458, Note_on_c, 0, 75, 51
2, 19461, Note_on_c, 0, 74, 0
2, 19476, Note_on_c, 0, 81, 0
2, 19480, Note_on_c, 0, 75, 0
2, 19486, Note_on_c, 0, 74, 57
2, 19487, Note_on_c, 0, 81, 44
2, 19507, Control_c, 0, 64, 127
2, 19532, Note_on_c, 0, 67, 0
2, 19533, Note_on_c, 0, 63, 0
2, 19540, Note_on_c, 0, 62, 0
2, 19563, Note_on_c, 0, 62, 16
2, 19565, Note_on_c, 0, 67, 36
2, 19565, Note_on_c, 0, 63, 31
2, 19566, Note_on_c, 0, 81, 0
2, 19610, Note_on_c, 0, 74, 0
2, 19627, Note_on_c, 0, 67, 0
2, 19633, Note_on_c, 0, 62, 0
2, 19638, Note_on_c, 0, 63, 0
2, 19645, Note_on_c, 0, 57, 0
2, 19659, Note_on_c, 0, 79, 65
2, 19688, Note_on_c, 0, 79, 0
2, 19698, Note_on_c, 0, 56, 37
2, 19698, Note_on_c, 0, 77, 63
2, 19699, Note_on_c, 0, 62, 35
2, 19699, Note_on_c, 0, 67, 33
2, 19702, Control_c, 0, 64, 0
2, 19747, Control_c, 0, 64, 127
2, 19881, Note_on_c, 0, 62, 0
2, 19883, Note_on_c, 0, 67, 0
2, 19895, Note_on_c, 0, 56, 0
2, 19936, Note_on_c, 0, 65, 29
2, 19937, Note_on_c, 0, 61, 31
2, 19938, Note_on_c, 0, 55, 36
2, 19939, Control_c, 0, 64, 0
2, 19939, Note_on_c, 0, 60, 32
2, 19971, Control_c, 0, 64, 127
2, 20011, Note_on_c, 0, 60, 0
2, 20015, Note_on_c, 0, 77, 0
2, 20018, Note_on_c, 0, 65, 0
2, 20019, Note_on_c, 0, 61, 0
2, 20051, Note_on_c, 0, 61, 31
2, 20054, Note_on_c, 0, 65, 30
2, 20055, Note_on_c, 0, 60, 38
2, 20078, Control_c, 0, 64, 0
2, 20079, Note_on_c, 0, 87, 53
2, 20081, Note_on_c, 0, 75, 58
2, 20093, Note_on_c, 0, 87, 0
2, 20094, Note_on_c, 0, 75, 0
2, 20096, Note_on_c, 0, 88, 49
2, 20097, Note_on_c, 0, 76, 39
2, 20099, Note_on_c, 0, 81, 24
2, 20100, Note_on_c, 0, 86, 30
2, 20107, Note_on_c, 0, 84, 19
2, 20112, Note_on_c, 0, 88, 0
2, 20113, Note_on_c, 0, 84, 0
2, 20114, Note_on_c, 0, 76, 0
2, 20116, Note_on_c, 0, 65, 0
2, 20116, Note_on_c, 0, 86, 0
2, 20116, Note_on_c, 0, 60, 0
2, 20117, Note_on_c, 0, 81, 0
2, 20126, Note_on_c, 0, 88, 58
2, 20128, Note_on_c, 0, 55, 0
2, 20128, Note_on_c, 0, 61, 0
2, 20128, Note_on_c, 0, 76, 49
2, 20131, Note_on_c, 0, 81, 41
2, 20133, Note_on_c, 0, 84, 34
2, 20139, Note_on_c, 0, 84, 0
2, 20140, Control_c, 0, 64, 127
2, 20143, Note_on_c, 0, 88, 0
2, 20144, Note_on_c, 0, 81, 0
2, 20145, Note_on_c, 0, 76, 0
2, 20153, Note_on_c, 0, 88, 62
2, 20155, Note_on_c, 0, 76, 50
2, 20158, Note_on_c, 0, 81, 44
2, 20167, Note_on_c, 0, 88, 0
2, 20167, Control_c, 0, 64, 0
2, 20169, Note_on_c, 0, 76, 0
2, 20176, Note_on_c, 0, 81, 0
2, 20176, Note_on_c, 0, 54, 37
2, 20181, Note_on_c, 0, 60, 32
2, 20182, Note_on_c, 0, 64, 15
2, 20184, Note_on_c, 0, 87, 56
2, 20185, Note_on_c, 0, 75, 37
2, 20193, Note_on_c, 0, 81, 20
2, 20201, Note_on_c, 0, 87, 0
2, 20202, Note_on_c, 0, 75, 0
2, 20206, Note_on_c, 0, 76, 36
2, 20209, Note_on_c, 0, 84, 1
2, 20219, Note_on_c, 0, 84, 0
2, 20219, Note_on_c, 0, 76, 0
2, 20222, Note_on_c, 0, 81, 0
2, 20226, Note_on_c, 0, 88, 28
2, 20227, Note_on_c, 0, 76, 33
2, 20230, Note_on_c, 0, 81, 19
2, 20232, Note_on_c, 0, 84, 24
2, 20240, Note_on_c, 0, 84, 0
2, 20242, Note_on_c, 0, 88, 0
2, 20242, Note_on_c, 0, 76, 0
2, 20243, Note_on_c, 0, 81, 0
2, 20255, Note_on_c, 0, 88, 48
2, 20257, Note_on_c, 0, 76, 37
2, 20259, Note_on_c, 0, 81, 29
2, 20261, Note_on_c, 0, 84, 29
2, 20268, Note_on_c, 0, 84, 0
2, 20271, Note_on_c, 0, 76, 0
2, 20271, Note_on_c, 0, 88, 0
2, 20271, Note_on_c, 0, 81, 0
2, 20273, Note_on_c, 0, 64, 0
2, 20279, Note_on_c, 0, 54, 0
2, 20280, Note_on_c, 0, 60, 0
2, 20286, Note_on_c, 0, 88, 44
2, 20288, Note_on_c, 0, 76, 44
2, 20289, Note_on_c, 0, 54, 36
2, 20289, Note_on_c, 0, 81, 38
2, 20291, Note_on_c, 0, 64, 24
2, 20293, Note_on_c, 0, 60, 28
2, 20296, Note_on_c, 0, 88, 0
2, 20300, Note_on_c, 0, 81, 0
2, 20301, Note_on_c, 0, 76, 0
2, 20313, Control_c, 0, 64, 127
2, 20318, Note_on_c, 0, 84, 40
2, 20335, Note_on_c, 0, 84, 0
2, 20350, Note_on_c, 0, 84, 49
2, 20352, Note_on_c, 0, 72, 34
2, 20375, Note_on_c, 0, 60, 0
2, 20380, Note_on_c, 0, 64, 0
2, 20380, Note_on_c, 0, 54, 0
2, 20383, Note_on_c, 0, 72, 0
2, 20387, Note_on_c, 0, 84, 0
2, 20405, Note_on_c, 0, 54, 34
2, 20405, Note_on_c, 0, 84, 57
2, 20406, Note_on_c, 0, 65, 38
2, 20408, Note_on_c, 0, 72, 32
2, 20408, Note_on_c, 0, 77, 34
2, 20408, Note_on_c, 0, 60, 44
2, 20409, Control_c, 0, 64, 0
2, 20440, Control_c, 0, 64, 127
2, 20540, Note_on_c, 0, 72, 0
2, 20558, Note_on_c, 0, 77, 0
2, 20559, Note_on_c, 0, 54, 0
2, 20562, Note_on_c, 0, 84, 0
2, 20597, Note_on_c, 0, 60, 0
2, 20606, Note_on_c, 0, 65, 0
2, 20635, Note_on_c, 0, 65, 34
2, 20637, Note_on_c, 0, 60, 46
2, 20637, Note_on_c, 0, 55, 43
2, 20638, Note_on_c, 0, 57, 42
2, 20644, Control_c, 0, 64, 0
2, 20680, Note_on_c, 0, 89, 105
2, 20710, Note_on_c, 0, 89, 0
2, 20721, Note_on_c, 0, 88, 92
2, 20744, Note_on_c, 0, 65, 0
2, 20746, Note_on_c, 0, 60, 0
2, 20748, Note_on_c, 0, 84, 83
2, 20749, Note_on_c, 0, 57, 0
2, 20759, Control_c, 0, 64, 127
2, 20764, Note_on_c, 0, 88, 0
2, 20764, Note_on_c, 0, 84, 0
2, 20769, Note_on_c, 0, 65, 38
2, 20770, Control_c, 0, 64, 0
2, 20770, Note_on_c, 0, 57, 34
2, 20771, Note_on_c, 0, 60, 41
2, 20772, Note_on_c, 0, 79, 45
2, 20792, Note_on_c, 0, 79, 0
2, 20798, Control_c, 0, 64, 127
2, 20800, Note_on_c, 0, 77, 61
2, 20815, Note_on_c, 0, 77, 0
2, 20825, Control_c, 0, 64, 0
2, 20838, Note_on_c, 0, 65, 0
2, 20840, Note_on_c, 0, 60, 0
2, 20854, Note_on_c, 0, 57, 0
2, 20856, Note_on_c, 0, 55, 0
2, 20859, Note_on_c, 0, 75, 80
2, 20874, Note_on_c, 0, 75, 0
2, 20880, Note_on_c, 0, 76, 82
2, 20883, Note_on_c, 0, 64, 40
2, 20884, Note_on_c, 0, 59, 38
2, 20885, Note_on_c, 0, 53, 36
2, 20897, Note_on_c, 0, 76, 0
2, 20906, Note_on_c, 0, 77, 80
2, 20920, Note_on_c, 0, 77, 0
2, 20928, Note_on_c, 0, 76, 74
2, 20941, Note_on_c, 0, 76, 0
2, 20945, Note_on_c, 0, 64, 0
2, 20950, Note_on_c, 0, 72, 46
2, 20964, Note_on_c, 0, 72, 0
2, 20964, Note_on_c, 0, 59, 0
2, 20970, Note_on_c, 0, 67, 47
2, 20982, Note_on_c, 0, 67, 0
2, 20993, Note_on_c, 0, 65, 59
2, 20993, Control_c, 0, 64, 127
2, 20996, Note_on_c, 0, 59, 38
2, 21009, Note_on_c, 0, 65, 0
2, 21018, Note_on_c, 0, 62, 38
2, 21022, Control_c, 0, 64, 0
2, 21032, Note_on_c, 0, 62, 0
2, 21039, Note_on_c, 0, 63, 51
2, 21051, Note_on_c, 0, 63, 0
2, 21057, Note_on_c, 0, 64, 48
2, 21059, Note_on_c, 0, 59, 0
2, 21062, Note_on_c, 0, 53, 0
2, 21069, Note_on_c, 0, 64, 0
2, 21076, Note_on_c, 0, 67, 45
2, 21087, Note_on_c, 0, 67, 0
2, 21094, Note_on_c, 0, 69, 51
2, 21104, Note_on_c, 0, 69, 0
2, 21109, Note_on_c, 0, 72, 55
2, 21110, Control_c, 0, 64, 127
2, 21121, Control_c, 0, 64, 0
2, 21121, Note_on_c, 0, 62, 33
2, 21122, Note_on_c, 0, 72, 0
2, 21122, Note_on_c, 0, 59, 36
2, 21123, Note_on_c, 0, 52, 34
2, 21123, Note_on_c, 0, 55, 36
2, 21130, Note_on_c, 0, 69, 51
2, 21161, Control_c, 0, 64, 127
2, 21185, Note_on_c, 0, 67, 46
2, 21195, Note_on_c, 0, 69, 0
2, 21207, Note_on_c, 0, 55, 0
2, 21207, Note_on_c, 0, 59, 0
2, 21211, Note_on_c, 0, 62, 0
2, 21231, Note_on_c, 0, 67, 0
2, 21248, Note_on_c, 0, 67, 42
2, 21249, Note_on_c, 0, 62, 30
2, 21253, Note_on_c, 0, 59, 28
2, 21255, Note_on_c, 0, 55, 24
2, 21283, Note_on_c, 0, 62, 0
2, 21285, Note_on_c, 0, 55, 0
2, 21286, Note_on_c, 0, 67, 0
2, 21297, Note_on_c, 0, 59, 0
2, 21298, Note_on_c, 0, 52, 0
2, 21310, Note_on_c, 0, 72, 89
2, 21325, Note_on_c, 0, 72, 0
2, 21340, Note_on_c, 0, 72, 87
2, 21359, Note_on_c, 0, 72, 0
2, 21369, Note_on_c, 0, 54, 57
2, 21369, Note_on_c, 0, 72, 70
2, 21370, Note_on_c, 0, 58, 60
2, 21370, Note_on_c, 0, 60, 70
2, 21370, Note_on_c, 0, 68, 83
2, 21370, Note_on_c, 0, 64, 91
2, 21372, Control_c, 0, 64, 0
2, 21392, Control_c, 0, 64, 127
2, 21416, Note_on_c, 0, 72, 0
2, 21417, Note_on_c, 0, 54, 0
2, 21419, Note_on_c, 0, 60, 0
2, 21419, Note_on_c, 0, 58, 0
2, 21420, Note_on_c, 0, 64, 0
2, 21421, Note_on_c, 0, 68, 0
2, 21431, Note_on_c, 0, 72, 78
2, 21434, Note_on_c, 0, 54, 55
2, 21434, Note_on_c, 0, 58, 59
2, 21435, Note_on_c, 0, 60, 62
2, 21463, Note_on_c, 0, 60, 0
2, 21467, Note_on_c, 0, 58, 0
2, 21471, Note_on_c, 0, 54, 0
2, 21474, Note_on_c, 0, 72, 0
2, 21491, Note_on_c, 0, 72, 60
2, 21492, Note_on_c, 0, 54, 40
2, 21493, Note_on_c, 0, 68, 51
2, 21493, Note_on_c, 0, 58, 38
2, 21494, Note_on_c, 0, 64, 56
2, 21495, Note_on_c, 0, 60, 44
2, 21524, Note_on_c, 0, 60, 0
2, 21524, Note_on_c, 0, 68, 0
2, 21524, Note_on_c, 0, 58, 0
2, 21527, Note_on_c, 0, 64, 0
2, 21528, Note_on_c, 0, 54, 0
2, 21529, Note_on_c, 0, 72, 0
2, 21552, Note_on_c, 0, 54, 39
2, 21552, Note_on_c, 0, 72, 54
2, 21553, Note_on_c, 0, 68, 49
2, 21554, Note_on_c, 0, 64, 46
2, 21558, Note_on_c, 0, 60, 28
2, 21558, Note_on_c, 0, 58, 23
2, 21559, Note_on_c, 0, 64, 0
2, 21564, Note_on_c, 0, 68, 0
2, 21565, Note_on_c, 0, 60, 0
2, 21566, Note_on_c, 0, 58, 0
2, 21567, Note_on_c, 0, 72, 0
2, 21572, Note_on_c, 0, 54, 0
2, 21613, Control_c, 0, 64, 0
2, 21614, Note_on_c, 0, 83, 65
2, 21616, Note_on_c, 0, 76, 58
2, 21616, Note_on_c, 0, 64, 34
2, 21616, Note_on_c, 0, 57, 44
2, 21616, Note_on_c, 0, 79, 49
2, 21617, Note_on_c, 0, 71, 53
2, 21618, Note_on_c, 0, 53, 31
2, 21636, Control_c, 0, 64, 127
2, 21649, Note_on_c, 0, 57, 0
2, 21669, Note_on_c, 0, 64, 0
2, 21677, Note_on_c, 0, 71, 0
2, 21678, Note_on_c, 0, 60, 27
2, 21685, Note_on_c, 0, 76, 0
2, 21696, Note_on_c, 0, 83, 0
2, 21720, Note_on_c, 0, 79, 0
2, 21738, Note_on_c, 0, 64, 28
2, 21739, Note_on_c, 0, 69, 35
2, 21770, Note_on_c, 0, 53, 0
2, 21770, Note_on_c, 0, 60, 0
2, 21780, Note_on_c, 0, 64, 0
2, 21791, Note_on_c, 0, 69, 0
2, 21799, Note_on_c, 0, 81, 62
2, 21826, Note_on_c, 0, 81, 0
2, 21848, Note_on_c, 0, 81, 57
2, 21851, Note_on_c, 0, 62, 27
2, 21852, Note_on_c, 0, 67, 31
2, 21853, Control_c, 0, 64, 0
2, 21853, Note_on_c, 0, 63, 28
2, 21854, Note_on_c, 0, 77, 36
2, 21854, Note_on_c, 0, 57, 32
2, 21855, Note_on_c, 0, 72, 28
2, 21884, Control_c, 0, 64, 127
2, 21894, Note_on_c, 0, 63, 0
2, 21905, Note_on_c, 0, 67, 0
2, 21910, Note_on_c, 0, 62, 0
2, 21965, Note_on_c, 0, 77, 0
2, 21969, Note_on_c, 0, 63, 37
2, 21970, Note_on_c, 0, 72, 0
2, 21970, Note_on_c, 0, 67, 32
2, 21971, Note_on_c, 0, 81, 0
2, 22023, Note_on_c, 0, 67, 0
2, 22030, Note_on_c, 0, 63, 0
2, 22032, Note_on_c, 0, 74, 66
2, 22036, Note_on_c, 0, 57, 0
2, 22063, Note_on_c, 0, 74, 0
2, 22067, Note_on_c, 0, 81, 74
2, 22089, Note_on_c, 0, 81, 0
2, 22101, Note_on_c, 0, 52, 30
2, 22101, Note_on_c, 0, 62, 31
2, 22103, Note_on_c, 0, 81, 72
2, 22103, Note_on_c, 0, 55, 39
2, 22104, Note_on_c, 0, 59, 36
2, 22104, Control_c, 0, 64, 0
2, 22134, Control_c, 0, 64, 127
2, 22159, Note_on_c, 0, 81, 0
2, 22167, Note_on_c, 0, 55, 0
2, 22170, Note_on_c, 0, 59, 0
2, 22173, Note_on_c, 0, 62, 0
2, 22219, Note_on_c, 0, 62, 22
2, 22220, Note_on_c, 0, 59, 27
2, 22221, Note_on_c, 0, 55, 26
2, 22266, Note_on_c, 0, 55, 0
2, 22267, Note_on_c, 0, 52, 0
2, 22268, Note_on_c, 0, 59, 0
2, 22281, Note_on_c, 0, 62, 0
2, 22301, Note_on_c, 0, 79, 44
2, 22312, Note_on_c, 0, 79, 0
2, 22316, Note_on_c, 0, 81, 71
2, 22332, Note_on_c, 0, 81, 0
2, 22334, Note_on_c, 0, 79, 69
2, 22335, Note_on_c, 0, 65, 44
2, 22336, Note_on_c, 0, 61, 39
2, 22336, Note_on_c, 0, 55, 47
2, 22336, Note_on_c, 0, 60, 49
2, 22338, Control_c, 0, 64, 0
2, 22373, Control_c, 0, 64, 127
2, 22390, Note_on_c, 0, 79, 0
2, 22425, Note_on_c, 0, 60, 0
2, 22427, Note_on_c, 0, 65, 0
2, 22431, Note_on_c, 0, 61, 0
2, 22442, Note_on_c, 0, 55, 0
2, 22456, Note_on_c, 0, 55, 44
2, 22458, Note_on_c, 0, 65, 24
2, 22458, Note_on_c, 0, 61, 21
2, 22459, Note_on_c, 0, 60, 33
2, 22509, Note_on_c, 0, 65, 0
2, 22510, Note_on_c, 0, 60, 0
2, 22518, Note_on_c, 0, 61, 0
2, 22520, Note_on_c, 0, 55, 0
2, 22550, Note_on_c, 0, 77, 62
2, 22565, Note_on_c, 0, 79, 74
2, 22567, Note_on_c, 0, 77, 0
2, 22577, Note_on_c, 0, 53, 32
2, 22578, Note_on_c, 0, 64, 35
2, 22578, Note_on_c, 0, 57, 43
2, 22578, Note_on_c, 0, 60, 52
2, 22581, Note_on_c, 0, 77, 75
2, 22582, Note_on_c, 0, 79, 0
2, 22583, Control_c, 0, 64, 0
2, 22612, Control_c, 0, 64, 127
2, 22628, Note_on_c, 0, 77, 0
2, 22632, Note_on_c, 0, 76, 48
2, 22644, Control_c, 0, 64, 0
2, 22645, Note_on_c, 0, 76, 0
2, 22645, Note_on_c, 0, 77, 66
2, 22656, Note_on_c, 0, 60, 0
2, 22658, Control_c, 0, 64, 127
2, 22659, Note_on_c, 0, 57, 0
2, 22660, Note_on_c, 0, 76, 64
2, 22664, Note_on_c, 0, 77, 0
2, 22667, Note_on_c, 0, 64, 0
2, 22701, Note_on_c, 0, 60, 37
2, 22702, Note_on_c, 0, 57, 32
2, 22703, Note_on_c, 0, 64, 25
2, 22727, Note_on_c, 0, 60, 0
2, 22731, Note_on_c, 0, 57, 0
2, 22731, Note_on_c, 0, 76, 0
2, 22732, Note_on_c, 0, 53, 0
2, 22732, Note_on_c, 0, 74, 68
2, 22739, Note_on_c, 0, 64, 0
2, 22743, Note_on_c, 0, 74, 0
2, 22746, Note_on_c, 0, 76, 62
2, 22759, Note_on_c, 0, 74, 64
2, 22765, Note_on_c, 0, 76, 0
2, 22790, Note_on_c, 0, 74, 0
2, 22799, Note_on_c, 0, 72, 53
2, 22809, Note_on_c, 0, 72, 0
2, 22809, Note_on_c, 0, 74, 66
2, 22811, Note_on_c, 0, 67, 32
2, 22812, Note_on_c, 0, 62, 38
2, 22813, Note_on_c, 0, 56, 29
2, 22814, Note_on_c, 0, 60, 46
2, 22818, Control_c, 0, 64, 0
2, 22826, Note_on_c, 0, 72, 34
2, 22827, Note_on_c, 0, 74, 0
2, 22847, Control_c, 0, 64, 127
2, 22865, Note_on_c, 0, 60, 0
2, 22873, Note_on_c, 0, 67, 0
2, 22874, Note_on_c, 0, 62, 0
2, 22893, Note_on_c, 0, 70, 48
2, 22894, Note_on_c, 0, 72, 0
2, 22904, Note_on_c, 0, 70, 0
2, 22907, Note_on_c, 0, 72, 47
2, 22917, Note_on_c, 0, 67, 26
2, 22919, Note_on_c, 0, 62, 34
2, 22920, Note_on_c, 0, 70, 45
2, 22923, Note_on_c, 0, 72, 0
2, 22923, Control_c, 0, 64, 0
2, 22937, Control_c, 0, 64, 127
2, 22954, Note_on_c, 0, 70, 0
2, 22957, Note_on_c, 0, 67, 0
2, 22963, Note_on_c, 0, 69, 61
2, 22966, Note_on_c, 0, 62, 0
2, 22971, Note_on_c, 0, 69, 0
2, 22972, Note_on_c, 0, 70, 56
2, 22982, Note_on_c, 0, 56, 0
2, 22989, Note_on_c, 0, 69, 53
2, 22990, Note_on_c, 0, 70, 0
2, 23020, Note_on_c, 0, 69, 0
2, 23050, Note_on_c, 0, 67, 62
2, 23055, Note_on_c, 0, 55, 31
2, 23057, Note_on_c, 0, 64, 22
2, 23058, Note_on_c, 0, 60, 27
2, 23064, Note_on_c, 0, 67, 0
2, 23064, Control_c, 0, 64, 0
2, 23070, Note_on_c, 0, 69, 53
2, 23081, Note_on_c, 0, 69, 0
2, 23083, Note_on_c, 0, 67, 46
2, 23102, Control_c, 0, 64, 127
2, 23129, Note_on_c, 0, 60, 0
2, 23134, Note_on_c, 0, 64, 0
2, 23176, Note_on_c, 0, 64, 31
2, 23178, Note_on_c, 0, 60, 35
2, 23228, Note_on_c, 0, 64, 0
2, 23228, Note_on_c, 0, 55, 0
2, 23229, Note_on_c, 0, 60, 0
2, 23235, Note_on_c, 0, 67, 0
2, 23262, Note_on_c, 0, 72, 69
2, 23271, Note_on_c, 0, 72, 0
2, 23307, Note_on_c, 0, 60, 83
2, 23307, Note_on_c, 0, 61, 73
2, 23308, Note_on_c, 0, 89, 84
2, 23308, Note_on_c, 0, 65, 80
2, 23309, Note_on_c, 0, 55, 84
2, 23309, Note_on_c, 0, 82, 71
2, 23309, Note_on_c, 0, 77, 81
2, 23310, Note_on_c, 0, 85, 69
2, 23310, Note_on_c, 0, 58, 50
2, 23310, Control_c, 0, 64, 0
2, 23329, Control_c, 0, 64, 127
2, 23349, Note_on_c, 0, 82, 0
2, 23350, Note_on_c, 0, 55, 0
2, 23351, Note_on_c, 0, 85, 0
2, 23352, Note_on_c, 0, 65, 0
2, 23353, Note_on_c, 0, 58, 0
2, 23354, Note_on_c, 0, 60, 0
2, 23354, Note_on_c, 0, 77, 0
2, 23355, Note_on_c, 0, 89, 0
2, 23355, Note_on_c, 0, 61, 0
2, 23368, Note_on_c, 0, 55, 66
2, 23368, Note_on_c, 0, 89, 64
2, 23368, Note_on_c, 0, 61, 51
2, 23368, Note_on_c, 0, 60, 61
2, 23368, Note_on_c, 0, 65, 71
2, 23368, Note_on_c, 0, 85, 62
2, 23368, Note_on_c, 0, 77, 59
2, 23398, Note_on_c, 0, 55, 0
2, 23405, Note_on_c, 0, 89, 0
2, 23408, Note_on_c, 0, 85, 0
2, 23410, Note_on_c, 0, 65, 0
2, 23410, Note_on_c, 0, 60, 0
2, 23410, Note_on_c, 0, 61, 0
2, 23410, Note_on_c, 0, 77, 0
2, 23424, Control_c, 0, 64, 0
2, 23424, Note_on_c, 0, 88, 79
2, 23425, Note_on_c, 0, 65, 71
2, 23425, Note_on_c, 0, 82, 68
2, 23425, Note_on_c, 0, 61, 62
2, 23425, Note_on_c, 0, 55, 71
2, 23425, Note_on_c, 0, 60, 72
2, 23426, Note_on_c, 0, 85, 65
2, 23426, Note_on_c, 0, 76, 66
2, 23441, Control_c, 0, 64, 127
2, 23491, Note_on_c, 0, 60, 0
2, 23494, Note_on_c, 0, 65, 0
2, 23495, Note_on_c, 0, 88, 0
2, 23495, Note_on_c, 0, 85, 0
2, 23498, Note_on_c, 0, 82, 0
2, 23500, Note_on_c, 0, 76, 0
2, 23500, Note_on_c, 0, 55, 0
2, 23504, Note_on_c, 0, 61, 0
2, 23541, Note_on_c, 0, 84, 66
2, 23541, Note_on_c, 0, 54, 46
2, 23541, Note_on_c, 0, 65, 51
2, 23541, Note_on_c, 0, 72, 48
2, 23541, Note_on_c, 0, 77, 48
2, 23542, Note_on_c, 0, 58, 36
2, 23543, Note_on_c, 0, 60, 53
2, 23544, Control_c, 0, 64, 0
2, 23544, Note_on_c, 0, 80, 37
2, 23573, Control_c, 0, 64, 127
2, 23621, Note_on_c, 0, 60, 0
2, 23626, Note_on_c, 0, 65, 0
2, 23628, Note_on_c, 0, 58, 0
2, 23657, Note_on_c, 0, 58, 21
2, 23658, Note_on_c, 0, 65, 19
2, 23659, Note_on_c, 0, 60, 30
2, 23706, Note_on_c, 0, 60, 0
2, 23713, Note_on_c, 0, 72, 0
2, 23715, Note_on_c, 0, 54, 0
2, 23718, Note_on_c, 0, 65, 0
2, 23721, Note_on_c, 0, 84, 0
2, 23723, Note_on_c, 0, 58, 0
2, 23725, Note_on_c, 0, 80, 0
2, 23730, Note_on_c, 0, 77, 0
2, 23772, Control_c, 0, 64, 0
2, 23773, Note_on_c, 0, 86, 62
2, 23774, Note_on_c, 0, 55, 44
2, 23775, Note_on_c, 0, 65, 38
2, 23775, Note_on_c, 0, 77, 29
2, 23775, Note_on_c, 0, 74, 37
2, 23776, Note_on_c, 0, 81, 45
2, 23776, Note_on_c, 0, 60, 38
2, 23777, Note_on_c, 0, 57, 37
2, 23787, Control_c, 0, 64, 127
2, 23790, Note_on_c, 0, 60, 0
2, 23791, Note_on_c, 0, 65, 0
2, 23797, Note_on_c, 0, 57, 0
2, 23799, Note_on_c, 0, 55, 0
2, 23842, Note_on_c, 0, 86, 0
2, 23848, Note_on_c, 0, 74, 0
2, 23856, Note_on_c, 0, 77, 0
2, 23870, Note_on_c, 0, 81, 0
2, 23888, Note_on_c, 0, 43, 44
2, 23890, Note_on_c, 0, 31, 39
2, 23901, Note_on_c, 0, 31, 0
2, 23909, Note_on_c, 0, 43, 0
2, 23949, Control_c, 0, 64, 127
2, 24012, Note_on_c, 0, 67, 91
2, 24014, Note_on_c, 0, 64, 71
2, 24014, Note_on_c, 0, 60, 71
2, 24014, Note_on_c, 0, 55, 72
2, 24015, Control_c, 0, 64, 0
2, 24017, Note_on_c, 0, 75, 33
2, 24021, Note_on_c, 0, 75, 0
2, 24066, Note_on_c, 0, 60, 0
2, 24069, Control_c, 0, 64, 127
2, 24177, Note_on_c, 0, 55, 0
2, 24182, Note_on_c, 0, 64, 0
2, 24185, Note_on_c, 0, 67, 0
2, 24190, Note_on_c, 0, 72, 54
2, 24207, Note_on_c, 0, 72, 0
2, 24249, Note_on_c, 0, 53, 52
2, 24249, Note_on_c, 0, 83, 75
2, 24249, Control_c, 0, 64, 0
2, 24250, Note_on_c, 0, 76, 80
2, 24276, Control_c, 0, 64, 127
2, 24315, Note_on_c, 0, 60, 27
2, 24330, Note_on_c, 0, 76, 0
2, 24369, Note_on_c, 0, 83, 0
2, 24369, Note_on_c, 0, 76, 35
2, 24371, Note_on_c, 0, 71, 33
2, 24407, Note_on_c, 0, 53, 0
2, 24426, Note_on_c, 0, 53, 32
2, 24433, Note_on_c, 0, 71, 0
2, 24435, Note_on_c, 0, 76, 0
2, 24439, Note_on_c, 0, 53, 0
2, 24482, Control_c, 0, 64, 0
2, 24483, Note_on_c, 0, 60, 0
2, 24483, Note_on_c, 0, 84, 64
2, 24484, Note_on_c, 0, 54, 49
2, 24484, Note_on_c, 0, 80, 48
2, 24485, Note_on_c, 0, 75, 46
2, 24503, Control_c, 0, 64, 127
2, 24526, Note_on_c, 0, 84, 0
2, 24534, Note_on_c, 0, 80, 0
2, 24540, Note_on_c, 0, 75, 0
2, 24548, Note_on_c, 0, 58, 21
2, 24597, Note_on_c, 0, 64, 27
2, 24601, Note_on_c, 0, 72, 24
2, 24601, Note_on_c, 0, 68, 19
2, 24631, Note_on_c, 0, 54, 0
2, 24659, Note_on_c, 0, 54, 43
2, 24661, Note_on_c, 0, 64, 0
2, 24666, Note_on_c, 0, 58, 0
2, 24669, Note_on_c, 0, 72, 0
2, 24673, Note_on_c, 0, 54, 0
2, 24675, Note_on_c, 0, 68, 0
2, 24720, Note_on_c, 0, 65, 49
2, 24720, Note_on_c, 0, 72, 46
2, 24721, Note_on_c, 0, 69, 58
2, 24721, Note_on_c, 0, 55, 48
2, 24722, Control_c, 0, 64, 0
2, 24757, Control_c, 0, 64, 127
2, 24781, Note_on_c, 0, 43, 50
2, 24784, Note_on_c, 0, 69, 0
2, 24784, Note_on_c, 0, 72, 0
2, 24792, Note_on_c, 0, 65, 0
2, 24795, Note_on_c, 0, 55, 0
2, 24842, Note_on_c, 0, 65, 66
2, 24843, Note_on_c, 0, 53, 47
2, 24843, Note_on_c, 0, 60, 57
2, 24844, Control_c, 0, 64, 0
2, 24862, Note_on_c, 0, 43, 0
2, 24866, Control_c, 0, 64, 127
2, 24895, Note_on_c, 0, 53, 0
2, 24901, Note_on_c, 0, 65, 0
2, 24905, Note_on_c, 0, 43, 46
2, 24906, Note_on_c, 0, 60, 0
2, 24915, Note_on_c, 0, 43, 0
2, 24966, Control_c, 0, 64, 0
2, 24968, Note_on_c, 0, 55, 83
2, 24970, Note_on_c, 0, 36, 66
2, 25010, Control_c, 0, 64, 127
2, 25035, Note_on_c, 0, 43, 45
2, 25058, Note_on_c, 0, 55, 0
2, 25091, Note_on_c, 0, 43, 0
2, 25091, Note_on_c, 0, 36, 0
2, 25099, Note_on_c, 0, 50, 63
2, 25099, Note_on_c, 0, 60, 67
2, 25100, Note_on_c, 0, 55, 74
2, 25100, Note_on_c, 0, 40, 47
2, 25101, Control_c, 0, 64, 0
2, 25123, Control_c, 0, 64, 127
2, 25156, Note_on_c, 0, 50, 0
2, 25163, Note_on_c, 0, 55, 0
2, 25169, Note_on_c, 0, 60, 0
2, 25171, Note_on_c, 0, 40, 0
2, 25231, Control_c, 0, 64, 0
2, 25232, Note_on_c, 0, 65, 68
2, 25232, Note_on_c, 0, 56, 67
2, 25232, Note_on_c, 0, 46, 56
2, 25234, Note_on_c, 0, 60, 64
2, 25234, Note_on_c, 0, 62, 54
2, 25263, Control_c, 0, 64, 127
2, 25297, Note_on_c, 0, 62, 0
2, 25298, Note_on_c, 0, 60, 0
2, 25306, Note_on_c, 0, 56, 0
2, 25309, Note_on_c, 0, 46, 0
2, 25329, Note_on_c, 0, 65, 0
2, 25390, Control_c, 0, 64, 0
2, 25392, Note_on_c, 0, 64, 52
2, 25392, Note_on_c, 0, 61, 31
2, 25393, Note_on_c, 0, 45, 47
2, 25393, Note_on_c, 0, 58, 34
2, 25394, Note_on_c, 0, 55, 38
2, 25417, Control_c, 0, 64, 127
2, 25460, Note_on_c, 0, 45, 0
2, 25466, Note_on_c, 0, 64, 0
2, 25485, Note_on_c, 0, 55, 0
2, 25487, Note_on_c, 0, 61, 0
2, 25492, Note_on_c, 0, 58, 0
2, 25587, Control_c, 0, 64, 0
2, 25587, Note_on_c, 0, 32, 43
2, 25587, Note_on_c, 0, 60, 47
2, 25595, Note_on_c, 0, 44, 27
2, 25602, Control_c, 0, 64, 127
2, 25613, Note_on_c, 0, 60, 0
2, 25618, Note_on_c, 0, 32, 0
2, 25625, Note_on_c, 0, 44, 0
2, 25675, Note_on_c, 0, 54, 31
2, 25770, Note_on_c, 0, 84, 33
2, 25772, Note_on_c, 0, 77, 46
2, 25773, Note_on_c, 0, 72, 27
2, 25775, Note_on_c, 0, 60, 34
2, 25776, Note_on_c, 0, 65, 15
2, 25870, Note_on_c, 0, 84, 0
2, 25880, Note_on_c, 0, 77, 0
2, 25882, Note_on_c, 0, 65, 0
2, 25886, Note_on_c, 0, 72, 0
2, 25903, Note_on_c, 0, 60, 0
2, 25918, Note_on_c, 0, 54, 0
2, 25949, Note_on_c, 0, 60, 62
2, 25964, Note_on_c, 0, 60, 0
2, 25983, Note_on_c, 0, 60, 52
2, 25991, Note_on_c, 0, 60, 0
2, 26041, Note_on_c, 0, 62, 37
2, 26041, Control_c, 0, 64, 0
2, 26041, Note_on_c, 0, 57, 31
2, 26042, Note_on_c, 0, 43, 32
2, 26043, Note_on_c, 0, 53, 24
2, 26044, Note_on_c, 0, 60, 40
2, 26044, Note_on_c, 0, 50, 29
2, 26066, Control_c, 0, 64, 127
2, 26171, Note_on_c, 0, 50, 0
2, 26179, Note_on_c, 0, 43, 0
2, 26295, Note_on_c, 0, 31, 34
2, 26301, Control_c, 0, 64, 0
2, 26323, Control_c, 0, 64, 127
2, 26368, Note_on_c, 0, 53, 0
2, 26368, Note_on_c, 0, 57, 0
2, 26371, Note_on_c, 0, 60, 0
2, 26374, Note_on_c, 0, 62, 0
2, 26424, Note_on_c, 0, 31, 0
2, 26516, Note_on_c, 0, 72, 30
2, 26532, Control_c, 0, 64, 0
2, 26542, Note_on_c, 0, 72, 0
2, 26543, Control_c, 0, 64, 127
2, 26563, Note_on_c, 0, 72, 59
2, 26597, Note_on_c, 0, 72, 0
2, 26620, Note_on_c, 0, 62, 40
2, 26620, Note_on_c, 0, 74, 64
2, 26622, Note_on_c, 0, 83, 56
2, 26623, Note_on_c, 0, 79, 47
2, 26623, Note_on_c, 0, 67, 24
2, 26624, Control_c, 0, 64, 0
2, 26633, Control_c, 0, 64, 127
2, 26659, Note_on_c, 0, 79, 0
2, 26659, Note_on_c, 0, 83, 0
2, 26664, Note_on_c, 0, 67, 0
2, 26665, Note_on_c, 0, 62, 0
2, 26670, Note_on_c, 0, 74, 0
2, 26741, Note_on_c, 0, 60, 40
2, 26742, Note_on_c, 0, 70, 25
2, 26742, Note_on_c, 0, 79, 31
2, 26743, Note_on_c, 0, 75, 30
2, 26746, Note_on_c, 0, 65, 33
2, 26750, Control_c, 0, 64, 0
2, 26791, Control_c, 0, 64, 127
2, 26920, Note_on_c, 0, 70, 0
2, 26953, Note_on_c, 0, 72, 48
2, 26955, Note_on_c, 0, 75, 0
2, 26968, Note_on_c, 0, 60, 0
2, 26988, Note_on_c, 0, 65, 0
2, 26988, Note_on_c, 0, 72, 0
2, 27008, Note_on_c, 0, 72, 48
2, 27047, Note_on_c, 0, 72, 0
2, 27070, Note_on_c, 0, 72, 31
2, 27084, Note_on_c, 0, 79, 0
2, 27099, Note_on_c, 0, 72, 0
2, 27248, Control_c, 0, 64, 0
2, 27249, Note_on_c, 0, 83, 57
2, 27249, Note_on_c, 0, 64, 30
2, 27250, Note_on_c, 0, 74, 48
2, 27251, Note_on_c, 0, 79, 48
2, 27251, Note_on_c, 0, 69, 34
2, 27257, Control_c, 0, 64, 127
2, 27277, Note_on_c, 0, 79, 0
2, 27277, Note_on_c, 0, 83, 0
2, 27282, Note_on_c, 0, 64, 0
2, 27282, Note_on_c, 0, 69, 0
2, 27290, Note_on_c, 0, 74, 0
2, 27401, Note_on_c, 0, 79, 46
2, 27402, Note_on_c, 0, 75, 37
2, 27404, Note_on_c, 0, 70, 28
2, 27405, Note_on_c, 0, 60, 34
2, 27405, Note_on_c, 0, 65, 31
2, 27408, Control_c, 0, 64, 0
2, 27441, Control_c, 0, 64, 127
2, 27512, Note_on_c, 0, 79, 0
2, 27607, Note_on_c, 0, 79, 58
2, 27625, Note_on_c, 0, 65, 0
2, 27628, Note_on_c, 0, 60, 0
2, 27653, Note_on_c, 0, 79, 0
2, 27675, Note_on_c, 0, 75, 0
2, 27680, Note_on_c, 0, 70, 0
2, 27867, Note_on_c, 0, 76, 55
2, 27870, Note_on_c, 0, 72, 49
2, 27872, Note_on_c, 0, 62, 31
2, 27873, Note_on_c, 0, 57, 28
2, 27874, Note_on_c, 0, 67, 35
2, 27875, Control_c, 0, 64, 0
2, 27896, Control_c, 0, 64, 127
2, 27938, Note_on_c, 0, 76, 0
2, 27951, Note_on_c, 0, 57, 0
2, 27951, Note_on_c, 0, 72, 0
2, 27954, Note_on_c, 0, 62, 0
2, 27956, Note_on_c, 0, 67, 0
2, 27975, Note_on_c, 0, 76, 43
2, 28004, Note_on_c, 0, 76, 0
2, 28083, Note_on_c, 0, 72, 33
2, 28085, Note_on_c, 0, 68, 36
2, 28086, Note_on_c, 0, 53, 40
2, 28086, Note_on_c, 0, 58, 25
2, 28086, Note_on_c, 0, 63, 25
2, 28090, Control_c, 0, 64, 0
2, 28118, Control_c, 0, 64, 127
2, 28159, Note_on_c, 0, 53, 0
2, 28160, Note_on_c, 0, 72, 0
2, 28163, Note_on_c, 0, 58, 0
2, 28206, Note_on_c, 0, 72, 29
2, 28231, Note_on_c, 0, 63, 0
2, 28242, Note_on_c, 0, 72, 0
2, 28255, Note_on_c, 0, 68, 0
2, 28369, Note_on_c, 0, 71, 32
2, 28376, Note_on_c, 0, 69, 50
2, 28381, Note_on_c, 0, 66, 43
2, 28386, Note_on_c, 0, 36, 34
2, 28386, Note_on_c, 0, 43, 24
2, 28387, Note_on_c, 0, 64, 39
2, 28394, Note_on_c, 0, 62, 22
2, 28401, Control_c, 0, 64, 0
2, 28404, Note_on_c, 0, 69, 0
2, 28434, Control_c, 0, 64, 127
2, 28465, Note_on_c, 0, 62, 0
2, 28469, Note_on_c, 0, 64, 0
2, 28472, Note_on_c, 0, 43, 0
2, 28475, Note_on_c, 0, 66, 0
2, 28484, Note_on_c, 0, 71, 0
2, 28512, Note_on_c, 0, 36, 0
2, 28512, Note_on_c, 0, 43, 34
2, 28568, Note_on_c, 0, 43, 0
2, 28576, Note_on_c, 0, 52, 36
2, 28577, Note_on_c, 0, 88, 29
2, 28578, Note_on_c, 0, 95, 24
2, 28588, Note_on_c, 0, 52, 0
2, 28640, Note_on_c, 0, 66, 37
2, 28677, Note_on_c, 0, 88, 0
2, 28692, Note_on_c, 0, 71, 37
2, 28729, Note_on_c, 0, 71, 0
2, 28729, Note_on_c, 0, 66, 0
2, 28729, Note_on_c, 0, 95, 0
2, 28733, Note_on_c, 0, 83, 27
2, 28734, Note_on_c, 0, 88, 27
2, 28734, Note_on_c, 0, 76, 33
2, 28758, Note_on_c, 0, 83, 0
2, 28766, Note_on_c, 0, 88, 0
2, 28771, Note_on_c, 0, 78, 28
2, 28778, Note_on_c, 0, 76, 0
2, 28804, Note_on_c, 0, 100, 36
2, 28807, Note_on_c, 0, 83, 24
2, 28832, Note_on_c, 0, 100, 0
2, 28836, Note_on_c, 0, 107, 58
2, 28860, Note_on_c, 0, 107, 0
2, 28867, Note_on_c, 0, 78, 0
2, 28869, Note_on_c, 0, 102, 28
2, 28870, Note_on_c, 0, 88, 28
2, 28871, Note_on_c, 0, 95, 19
2, 28873, Note_on_c, 0, 100, 27
2, 28874, Note_on_c, 0, 83, 0
2, 28900, Note_on_c, 0, 95, 0
2, 28902, Note_on_c, 0, 100, 0
2, 28906, Note_on_c, 0, 90, 28
2, 28911, Note_on_c, 0, 102, 0
2, 28914, Note_on_c, 0, 88, 0
2, 28946, Note_on_c, 0, 91, 24
2, 28968, Note_on_c, 0, 91, 0
2, 28982, Note_on_c, 0, 108, 42
2, 28983, Note_on_c, 0, 93, 36
2, 28990, Note_on_c, 0, 108, 0
2, 28996, Note_on_c, 0, 93, 0
2, 28999, Note_on_c, 0, 90, 0
2, 29144, Control_c, 0, 64, 0
2, 29144, End_track
3, 0, Start_track
3, 0, Title_t, ""
3, 0, Program_c, 2, 32
3, 0, Control_c, 2, 7, 100
3, 9600, Note_on_c, 2, 36, 127
3, 9720, Note_on_c, 2, 38, 127
3, 9729, Note_on_c, 2, 36, 0
3, 9834, Note_on_c, 2, 38, 0
3, 9840, Note_on_c, 2, 40, 127
3, 9960, Note_on_c, 2, 41, 127
3, 9969, Note_on_c, 2, 40, 0
3, 10080, Note_on_c, 2, 42, 127
3, 10081, Note_on_c, 2, 41, 0
3, 10556, Note_on_c, 2, 55, 127
3, 10569, Note_on_c, 2, 42, 0
3, 10623, Note_on_c, 2, 43, 120
3, 10741, Note_on_c, 2, 31, 123
3, 10747, Note_on_c, 2, 55, 0
3, 10827, Note_on_c, 2, 43, 0
3, 10864, Note_on_c, 2, 43, 127
3, 10916, Note_on_c, 2, 43, 0
3, 10922, Note_on_c, 2, 43, 127
3, 10930, Note_on_c, 2, 31, 0
3, 11162, Note_on_c, 2, 31, 127
3, 11412, Note_on_c, 2, 43, 0
3, 11495, Note_on_c, 2, 43, 95
3, 11525, Note_on_c, 2, 48, 127
3, 11529, Note_on_c, 2, 31, 0
3, 11532, Note_on_c, 2, 43, 0
3, 11710, Note_on_c, 2, 41, 127
3, 11756, Note_on_c, 2, 41, 0
3, 11767, Note_on_c, 2, 41, 127
3, 11783, Note_on_c, 2, 48, 0
3, 12065, Note_on_c, 2, 41, 0
3, 12065, Note_on_c, 2, 34, 123
3, 12189, Note_on_c, 2, 46, 127
3, 12244, Note_on_c, 2, 46, 0
3, 12251, Note_on_c, 2, 45, 120
3, 12258, Note_on_c, 2, 34, 0
3, 12312, Note_on_c, 2, 33, 127
3, 12317, Note_on_c, 2, 45, 0
3, 12488, Note_on_c, 2, 38, 127
3, 12495, Note_on_c, 2, 33, 0
3, 12613, Note_on_c, 2, 54, 108
3, 12899, Note_on_c, 2, 38, 0
3, 12901, Note_on_c, 2, 44, 127
3, 12916, Note_on_c, 2, 54, 0
3, 12954, Note_on_c, 2, 44, 0
3, 12957, Note_on_c, 2, 43, 124
3, 13016, Note_on_c, 2, 43, 0
3, 13018, Note_on_c, 2, 31, 127
3, 13019, Note_on_c, 2, 43, 87
3, 13073, Note_on_c, 2, 31, 0
3, 13081, Note_on_c, 2, 31, 121
3, 13209, Note_on_c, 2, 43, 0
3, 13259, Note_on_c, 2, 43, 111
3, 13318, Note_on_c, 2, 50, 127
3, 13399, Note_on_c, 2, 31, 0
3, 13413, Note_on_c, 2, 31, 97
3, 13440, Note_on_c, 2, 31, 0
3, 13441, Note_on_c, 2, 50, 0
3, 13442, Note_on_c, 2, 43, 0
3, 13443, Note_on_c, 2, 48, 127
3, 13801, Note_on_c, 2, 30, 127
3, 13810, Note_on_c, 2, 48, 0
3, 13920, Note_on_c, 2, 30, 0
3, 13924, Note_on_c, 2, 29, 125
3, 14051, Note_on_c, 2, 41, 127
3, 14068, Note_on_c, 2, 29, 0
3, 14277, Note_on_c, 2, 41, 0
3, 14281, Note_on_c, 2, 46, 123
3, 14343, Note_on_c, 2, 29, 119
3, 14394, Note_on_c, 2, 29, 0
3, 14400, Note_on_c, 2, 28, 127
3, 14401, Note_on_c, 2, 46, 0
3, 14630, Note_on_c, 2, 28, 0
3, 14634, Note_on_c, 2, 29, 127
3, 14840, Note_on_c, 2, 29, 0
3, 14880, Note_on_c, 2, 28, 127
3, 15053, Note_on_c, 2, 28, 0
3, 15055, Note_on_c, 2, 34, 127
3, 15107, Note_on_c, 2, 34, 0
3, 15118, Note_on_c, 2, 33, 127
3, 15180, Note_on_c, 2, 45, 127
3, 15227, Note_on_c, 2, 45, 0
3, 15238, Note_on_c, 2, 49, 127
3, 15301, Note_on_c, 2, 33, 0
3, 15337, Note_on_c, 2, 37, 120
3, 15362, Note_on_c, 2, 49, 0
3, 15365, Note_on_c, 2, 37, 0
3, 15367, Note_on_c, 2, 38, 127
3, 15839, Note_on_c, 2, 34, 125
3, 15842, Note_on_c, 2, 38, 0
3, 16004, Note_on_c, 2, 50, 127
3, 16077, Note_on_c, 2, 50, 0
3, 16082, Note_on_c, 2, 49, 119
3, 16085, Note_on_c, 2, 34, 0
3, 16140, Note_on_c, 2, 33, 111
3, 16199, Note_on_c, 2, 33, 0
3, 16204, Note_on_c, 2, 33, 127
3, 16324, Note_on_c, 2, 33, 0
3, 16326, Note_on_c, 2, 38, 127
3, 16331, Note_on_c, 2, 49, 0
3, 16504, Note_on_c, 2, 40, 127
3, 16560, Note_on_c, 2, 33, 73
3, 16561, Note_on_c, 2, 40, 0
3, 16567, Note_on_c, 2, 41, 127
3, 16569, Note_on_c, 2, 33, 0
3, 16571, Note_on_c, 2, 40, 78
3, 16575, Note_on_c, 2, 40, 0
3, 16631, Note_on_c, 2, 38, 0
3, 16724, Note_on_c, 2, 41, 0
3, 16737, Note_on_c, 2, 42, 125
3, 16742, Note_on_c, 2, 41, 105
3, 16787, Note_on_c, 2, 41, 0
3, 16791, Note_on_c, 2, 42, 0
3, 16798, Note_on_c, 2, 43, 127
3, 16863, Note_on_c, 2, 31, 127
3, 16871, Note_on_c, 2, 43, 0
3, 16883, Note_on_c, 2, 43, 60
3, 16899, Note_on_c, 2, 43, 0
3, 16918, Note_on_c, 2, 31, 0
3, 16925, Note_on_c, 2, 31, 127
3, 17059, Note_on_c, 2, 31, 0
3, 17165, Note_on_c, 2, 43, 127
3, 17228, Note_on_c, 2, 43, 0
3, 17228, Note_on_c, 2, 31, 120
3, 17286, Note_on_c, 2, 31, 0
3, 17288, Note_on_c, 2, 36, 127
3, 17713, Note_on_c, 2, 45, 127
3, 17721, Note_on_c, 2, 36, 0
3, 17777, Note_on_c, 2, 45, 0
3, 17780, Note_on_c, 2, 38, 127
3, 17898, Note_on_c, 2, 31, 127
3, 17902, Note_on_c, 2, 38, 0
3, 18119, Note_on_c, 2, 43, 127
3, 18127, Note_on_c, 2, 31, 0
3, 18177, Note_on_c, 2, 43, 0
3, 18181, Note_on_c, 2, 43, 122
3, 18306, Note_on_c, 2, 31, 125
3, 18364, Note_on_c, 2, 31, 0
3, 18423, Note_on_c, 2, 31, 127
3, 18472, Note_on_c, 2, 31, 0
3, 18486, Note_on_c, 2, 31, 127
3, 18674, Note_on_c, 2, 43, 0
3, 18783, Note_on_c, 2, 43, 127
3, 18970, Note_on_c, 2, 31, 0
3, 19014, Note_on_c, 2, 31, 127
3, 19120, Note_on_c, 2, 31, 0
3, 19128, Note_on_c, 2, 31, 121
3, 19182, Note_on_c, 2, 43, 0
3, 19187, Note_on_c, 2, 31, 0
3, 19189, Note_on_c, 2, 36, 127
3, 19434, Note_on_c, 2, 41, 127
3, 19450, Note_on_c, 2, 36, 0
3, 19538, Note_on_c, 2, 41, 0
3, 19541, Note_on_c, 2, 36, 91
3, 19548, Note_on_c, 2, 36, 0
3, 19558, Note_on_c, 2, 33, 94
3, 19568, Note_on_c, 2, 33, 0
3, 19576, Note_on_c, 2, 29, 120
3, 19682, Note_on_c, 2, 29, 0
3, 19692, Note_on_c, 2, 28, 123
3, 19852, Note_on_c, 2, 28, 0
3, 19863, Note_on_c, 2, 34, 127
3, 19917, Note_on_c, 2, 34, 0
3, 19922, Note_on_c, 2, 33, 127
3, 19983, Note_on_c, 2, 49, 127
3, 20139, Note_on_c, 2, 33, 0
3, 20160, Note_on_c, 2, 38, 125
3, 20163, Note_on_c, 2, 49, 0
3, 20217, Note_on_c, 2, 38, 0
3, 20224, Note_on_c, 2, 38, 127
3, 20282, Note_on_c, 2, 32, 125
3, 20283, Note_on_c, 2, 38, 0
3, 20339, Note_on_c, 2, 32, 0
3, 20346, Note_on_c, 2, 32, 127
3, 20407, Note_on_c, 2, 48, 127
3, 20628, Note_on_c, 2, 32, 0
3, 20635, Note_on_c, 2, 31, 123
3, 20638, Note_on_c, 2, 48, 0
3, 20806, Note_on_c, 2, 38, 69
3, 20813, Note_on_c, 2, 38, 0
3, 20819, Note_on_c, 2, 48, 127
3, 20878, Note_on_c, 2, 48, 0
3, 20880, Note_on_c, 2, 47, 120
3, 20923, Note_on_c, 2, 31, 0
3, 20942, Note_on_c, 2, 31, 124
3, 20953, Note_on_c, 2, 47, 0
3, 20961, Note_on_c, 2, 47, 54
3, 20974, Note_on_c, 2, 47, 0
3, 21002, Note_on_c, 2, 31, 0
3, 21007, Note_on_c, 2, 31, 124
3, 21062, Note_on_c, 2, 31, 0
3, 21062, Note_on_c, 2, 35, 127
3, 21114, Note_on_c, 2, 35, 0
3, 21118, Note_on_c, 2, 36, 127
3, 21123, Note_on_c, 2, 35, 81
3, 21127, Note_on_c, 2, 35, 0
3, 21483, Note_on_c, 2, 42, 127
3, 21497, Note_on_c, 2, 36, 0
3, 21544, Note_on_c, 2, 30, 122
3, 21554, Note_on_c, 2, 42, 0
3, 21600, Note_on_c, 2, 30, 0
3, 21606, Note_on_c, 2, 29, 108
3, 21785, Note_on_c, 2, 41, 127
3, 21819, Note_on_c, 2, 29, 0
3, 21902, Note_on_c, 2, 35, 127
3, 21957, Note_on_c, 2, 35, 0
3, 21963, Note_on_c, 2, 35, 127
3, 21966, Note_on_c, 2, 41, 0
3, 22082, Note_on_c, 2, 40, 127
3, 22087, Note_on_c, 2, 35, 0
3, 22141, Note_on_c, 2, 40, 0
3, 22147, Note_on_c, 2, 40, 127
3, 22257, Note_on_c, 2, 33, 127
3, 22261, Note_on_c, 2, 40, 0
3, 22311, Note_on_c, 2, 33, 0
3, 22317, Note_on_c, 2, 33, 127
3, 22566, Note_on_c, 2, 38, 125
3, 22570, Note_on_c, 2, 33, 0
3, 22794, Note_on_c, 2, 34, 121
3, 22797, Note_on_c, 2, 38, 0
3, 23037, Note_on_c, 2, 34, 0
3, 23040, Note_on_c, 2, 36, 127
3, 23400, Note_on_c, 2, 36, 0
3, 23402, Note_on_c, 2, 45, 127
3, 23520, Note_on_c, 2, 45, 0
3, 23520, Note_on_c, 2, 44, 127
3, 23581, Note_on_c, 2, 32, 118
3, 23760, Note_on_c, 2, 44, 0
3, 23767, Note_on_c, 2, 43, 122
3, 23775, Note_on_c, 2, 32, 0
3, 23826, Note_on_c, 2, 31, 127
3, 23828, Note_on_c, 2, 43, 0
3, 24007, Note_on_c, 2, 36, 83
3, 24183, Note_on_c, 2, 31, 0
3, 24243, Note_on_c, 2, 36, 0
3, 24246, Note_on_c, 2, 41, 105
3, 24448, Note_on_c, 2, 40, 67
3, 24449, Note_on_c, 2, 41, 0
3, 24468, Note_on_c, 2, 40, 0
3, 24472, Note_on_c, 2, 41, 94
3, 24490, Note_on_c, 2, 41, 0
3, 24495, Note_on_c, 2, 42, 88
3, 24722, Note_on_c, 2, 42, 0
3, 24731, Note_on_c, 2, 43, 108
3, 24844, Note_on_c, 2, 38, 95
3, 24854, Note_on_c, 2, 43, 0
3, 24963, Note_on_c, 2, 38, 0
3, 24967, Note_on_c, 2, 36, 95
3, 25150, Note_on_c, 2, 36, 0
3, 25150, End_track
4, 0, Start_track
4, 0, Title_t, ""
4, 0, Program_c, 9, 40
4, 9600, Note_on_c, 9, 59, 68
4, 9707, Note_on_c, 9, 59, 0
4, 9720, Note_on_c, 9, 59, 67
4, 9720, Note_on_c, 9, 44, 43
4, 9833, Note_on_c, 9, 59, 0
4, 9840, Note_on_c, 9, 59, 59
4, 9854, Note_on_c, 9, 44, 0
4, 9957, Note_on_c, 9, 59, 0
4, 9960, Note_on_c, 9, 59, 73
4, 9960, Note_on_c, 9, 44, 34
4, 9975, Note_on_c, 9, 44, 0
4, 10064, Note_on_c, 9, 59, 0
4, 10080, Note_on_c, 9, 59, 62
4, 10080, Note_on_c, 9, 49, 39
4, 10086, Note_on_c, 9, 49, 0
4, 10183, Note_on_c, 9, 59, 0
4, 10200, Note_on_c, 9, 59, 58
4, 10308, Note_on_c, 9, 59, 0
4, 10320, Note_on_c, 9, 59, 62
4, 10427, Note_on_c, 9, 59, 0
4, 10440, Note_on_c, 9, 59, 44
4, 10445, Note_on_c, 9, 44, 44
4, 10461, Note_on_c, 9, 44, 0
4, 10559, Note_on_c, 9, 59, 0
4, 10560, Note_on_c, 9, 59, 62
4, 10660, Note_on_c, 9, 59, 0
4, 10680, Note_on_c, 9, 59, 65
4, 10680, Note_on_c, 9, 44, 44
4, 10688, Note_on_c, 9, 44, 0
4, 10747, Note_on_c, 9, 44, 53
4, 10759, Note_on_c, 9, 44, 0
4, 10782, Note_on_c, 9, 59, 0
4, 10800, Note_on_c, 9, 59, 62
4, 10906, Note_on_c, 9, 59, 0
4, 10920, Note_on_c, 9, 59, 68
4, 10926, Note_on_c, 9, 44, 37
4, 10941, Note_on_c, 9, 44, 0
4, 10987, Note_on_c, 9, 44, 34
4, 11002, Note_on_c, 9, 44, 0
4, 11025, Note_on_c, 9, 59, 0
4, 11040, Note_on_c, 9, 59, 63
4, 11148, Note_on_c, 9, 59, 0
4, 11160, Note_on_c, 9, 59, 62
4, 11168, Note_on_c, 9, 44, 29
4, 11179, Note_on_c, 9, 44, 0
4, 11260, Note_on_c, 9, 59, 0
4, 11280, Note_on_c, 9, 59, 66
4, 11390, Note_on_c, 9, 44, 33
4, 11393, Note_on_c, 9, 59, 0
4, 11400, Note_on_c, 9, 59, 47
4, 11402, Note_on_c, 9, 44, 0
4, 11452, Note_on_c, 9, 49, 54
4, 11502, Note_on_c, 9, 49, 0
4, 11503, Note_on_c, 9, 59, 0
4, 11520, Note_on_c, 9, 59, 63
4, 11629, Note_on_c, 9, 59, 0
4, 11640, Note_on_c, 9, 59, 52
4, 11643, Note_on_c, 9, 44, 40
4, 11652, Note_on_c, 9, 44, 0
4, 11747, Note_on_c, 9, 59, 0
4, 11760, Note_on_c, 9, 59, 60
4, 11868, Note_on_c, 9, 59, 0
4, 11880, Note_on_c, 9, 59, 41
4, 11880, Note_on_c, 9, 44, 44
4, 11894, Note_on_c, 9, 44, 0
4, 11985, Note_on_c, 9, 59, 0
4, 12000, Note_on_c, 9, 59, 52
4, 12115, Note_on_c, 9, 59, 0
4, 12120, Note_on_c, 9, 59, 51
4, 12214, Note_on_c, 9, 59, 0
4, 12240, Note_on_c, 9, 59, 64
4, 12306, Note_on_c, 9, 44, 40
4, 12318, Note_on_c, 9, 44, 0
4, 12350, Note_on_c, 9, 59, 0
4, 12360, Note_on_c, 9, 59, 59
4, 12360, Note_on_c, 9, 46, 43
4, 12366, Note_on_c, 9, 46, 0
4, 12429, Note_on_c, 9, 46, 32
4, 12434, Note_on_c, 9, 46, 0
4, 12464, Note_on_c, 9, 59, 0
4, 12480, Note_on_c, 9, 59, 68
4, 12553, Note_on_c, 9, 44, 43
4, 12561, Note_on_c, 9, 44, 0
4, 12590, Note_on_c, 9, 59, 0
4, 12600, Note_on_c, 9, 59, 68
4, 12655, Note_on_c, 9, 59, 0
4, 12660, Note_on_c, 9, 59, 72
4, 12704, Note_on_c, 9, 59, 0
4, 12720, Note_on_c, 9, 59, 70
4, 12825, Note_on_c, 9, 59, 0
4, 12840, Note_on_c, 9, 59, 71
4, 12841, Note_on_c, 9, 44, 37
4, 12853, Note_on_c, 9, 44, 0
4, 12958, Note_on_c, 9, 59, 0
4, 12960, Note_on_c, 9, 59, 58
4, 13011, Note_on_c, 9, 59, 0
4, 13020, Note_on_c, 9, 59, 61
4, 13071, Note_on_c, 9, 59, 0
4, 13080, Note_on_c, 9, 59, 57
4, 13081, Note_on_c, 9, 44, 32
4, 13087, Note_on_c, 9, 44, 0
4, 13186, Note_on_c, 9, 59, 0
4, 13196, Note_on_c, 9, 38, 35
4, 13200, Note_on_c, 9, 59, 62
4, 13201, Note_on_c, 9, 38, 0
4, 13209, Note_on_c, 9, 38, 38
4, 13213, Note_on_c, 9, 38, 0
4, 13222, Note_on_c, 9, 38, 64
4, 13229, Note_on_c, 9, 38, 0
4, 13236, Note_on_c, 9, 38, 62
4, 13240, Note_on_c, 9, 38, 0
4, 13313, Note_on_c, 9, 59, 0
4, 13320, Note_on_c, 9, 59, 64
4, 13371, Note_on_c, 9, 59, 0
4, 13380, Note_on_c, 9, 59, 60
4, 13381, Note_on_c, 9, 38, 32
4, 13388, Note_on_c, 9, 38, 0
4, 13427, Note_on_c, 9, 59, 0
4, 13440, Note_on_c, 9, 59, 68
4, 13440, Note_on_c, 9, 59, 67
4, 13444, Note_on_c, 9, 49, 74
4, 13492, Note_on_c, 9, 59, 0
4, 13539, Note_on_c, 9, 59, 0
4, 13560, Note_on_c, 9, 59, 67
4, 13624, Note_on_c, 9, 38, 31
4, 13629, Note_on_c, 9, 38, 0
4, 13644, Note_on_c, 9, 49, 0
4, 13673, Note_on_c, 9, 59, 0
4, 13680, Note_on_c, 9, 59, 59
4, 13686, Note_on_c, 9, 38, 42
4, 13691, Note_on_c, 9, 38, 0
4, 13797, Note_on_c, 9, 59, 0
4, 13800, Note_on_c, 9, 59, 73
4, 13904, Note_on_c, 9, 59, 0
4, 13920, Note_on_c, 9, 59, 62
4, 14023, Note_on_c, 9, 59, 0
4, 14040, Note_on_c, 9, 59, 58
4, 14148, Note_on_c, 9, 59, 0
4, 14160, Note_on_c, 9, 59, 62
4, 14168, Note_on_c, 9, 36, 28
4, 14175, Note_on_c, 9, 36, 0
4, 14225, Note_on_c, 9, 36, 32
4, 14232, Note_on_c, 9, 36, 0
4, 14267, Note_on_c, 9, 59, 0
4, 14280, Note_on_c, 9, 59, 44
4, 14399, Note_on_c, 9, 59, 0
4, 14400, Note_on_c, 9, 59, 62
4, 14500, Note_on_c, 9, 59, 0
4, 14520, Note_on_c, 9, 59, 65
4, 14583, Note_on_c, 9, 39, 39
4, 14595, Note_on_c, 9, 39, 0
4, 14622, Note_on_c, 9, 59, 0
4, 14640, Note_on_c, 9, 59, 62
4, 14640, Note_on_c, 9, 38, 46
4, 14650, Note_on_c, 9, 38, 0
4, 14746, Note_on_c, 9, 59, 0
4, 14760, Note_on_c, 9, 59, 68
4, 14865, Note_on_c, 9, 59, 0
4, 14880, Note_on_c, 9, 59, 63
4, 14988, Note_on_c, 9, 59, 0
4, 15000, Note_on_c, 9, 59, 62
4, 15100, Note_on_c, 9, 59, 0
4, 15120, Note_on_c, 9, 59, 66
4, 15233, Note_on_c, 9, 59, 0
4, 15238, Note_on_c, 9, 39, 45
4, 15240, Note_on_c, 9, 59, 47
4, 15246, Note_on_c, 9, 39, 0
4, 15298, Note_on_c, 9, 39, 43
4, 15310, Note_on_c, 9, 39, 0
4, 15343, Note_on_c, 9, 59, 0
4, 15360, Note_on_c, 9, 59, 63
4, 15469, Note_on_c, 9, 59, 0
4, 15480, Note_on_c, 9, 59, 52
4, 15587, Note_on_c, 9, 59, 0
4, 15600, Note_on_c, 9, 59, 60
4, 15708, Note_on_c, 9, 59, 0
4, 15720, Note_on_c, 9, 59, 41
4, 15725, Note_on_c, 9, 44, 37
4, 15735, Note_on_c, 9, 44, 0
4, 15825, Note_on_c, 9, 59, 0
4, 15840, Note_on_c, 9, 59, 52
4, 15904, Note_on_c, 9, 44, 33
4, 15924, Note_on_c, 9, 44, 0
4, 15955, Note_on_c, 9, 59, 0
4, 15960, Note_on_c, 9, 59, 51
4, 15962, Note_on_c, 9, 44, 31
4, 15975, Note_on_c, 9, 44, 0
4, 16054, Note_on_c, 9, 59, 0
4, 16080, Note_on_c, 9, 59, 64
4, 16190, Note_on_c, 9, 59, 0
4, 16200, Note_on_c, 9, 59, 59
4, 16205, Note_on_c, 9, 44, 25
4, 16213, Note_on_c, 9, 44, 0
4, 16304, Note_on_c, 9, 59, 0
4, 16320, Note_on_c, 9, 59, 68
4, 16331, Note_on_c, 9, 49, 64
4, 16336, Note_on_c, 9, 49, 0
4, 16430, Note_on_c, 9, 59, 0
4, 16440, Note_on_c, 9, 59, 68
4, 16495, Note_on_c, 9, 59, 0
4, 16500, Note_on_c, 9, 59, 72
4, 16505, Note_on_c, 9, 44, 20
4, 16514, Note_on_c, 9, 44, 0
4, 16544, Note_on_c, 9, 59, 0
4, 16560, Note_on_c, 9, 59, 70
4, 16665, Note_on_c, 9, 59, 0
4, 16680, Note_on_c, 9, 59, 71
4, 16742, Note_on_c, 9, 49, 36
4, 16747, Note_on_c, 9, 49, 0
4, 16798, Note_on_c, 9, 59, 0
4, 16799, Note_on_c, 9, 49, 42
4, 16800, Note_on_c, 9, 59, 58
4, 16851, Note_on_c, 9, 59, 0
4, 16860, Note_on_c, 9, 59, 61
4, 16911, Note_on_c, 9, 59, 0
4, 16920, Note_on_c, 9, 59, 57
4, 17026, Note_on_c, 9, 59, 0
4, 17040, Note_on_c, 9, 59, 62
4, 17101, Note_on_c, 9, 49, 0
4, 17102, Note_on_c, 9, 44, 30
4, 17110, Note_on_c, 9, 44, 0
4, 17153, Note_on_c, 9, 59, 0
4, 17160, Note_on_c, 9, 59, 64
4, 17211, Note_on_c, 9, 59, 0
4, 17220, Note_on_c, 9, 59, 60
4, 17267, Note_on_c, 9, 59, 0
4, 17280, Note_on_c, 9, 59, 68
4, 17280, Note_on_c, 9, 59, 67
4, 17328, Note_on_c, 9, 59, 0
4, 17383, Note_on_c, 9, 59, 0
4, 17400, Note_on_c, 9, 59, 67
4, 17400, Note_on_c, 9, 44, 25
4, 17406, Note_on_c, 9, 44, 0
4, 17513, Note_on_c, 9, 59, 0
4, 17520, Note_on_c, 9, 59, 59
4, 17637, Note_on_c, 9, 59, 0
4, 17640, Note_on_c, 9, 59, 73
4, 17645, Note_on_c, 9, 44, 30
4, 17652, Note_on_c, 9, 44, 0
4, 17744, Note_on_c, 9, 59, 0
4, 17760, Note_on_c, 9, 59, 62
4, 17863, Note_on_c, 9, 59, 0
4, 17880, Note_on_c, 9, 59, 58
4, 17900, Note_on_c, 9, 44, 26
4, 17907, Note_on_c, 9, 44, 0
4, 17958, Note_on_c, 9, 49, 42
4, 17988, Note_on_c, 9, 59, 0
4, 18000, Note_on_c, 9, 59, 62
4, 18078, Note_on_c, 9, 44, 31
4, 18089, Note_on_c, 9, 44, 0
4, 18107, Note_on_c, 9, 59, 0
4, 18120, Note_on_c, 9, 59, 44
4, 18158, Note_on_c, 9, 49, 0
4, 18239, Note_on_c, 9, 59, 0
4, 18240, Note_on_c, 9, 59, 62
4, 18340, Note_on_c, 9, 59, 0
4, 18360, Note_on_c, 9, 59, 65
4, 18366, Note_on_c, 9, 44, 37
4, 18462, Note_on_c, 9, 59, 0
4, 18466, Note_on_c, 9, 44, 0
4, 18480, Note_on_c, 9, 59, 62
4, 18586, Note_on_c, 9, 59, 0
4, 18600, Note_on_c, 9, 59, 68
4, 18607, Note_on_c, 9, 44, 42
4, 18659, Note_on_c, 9, 44, 0
4, 18705, Note_on_c, 9, 59, 0
4, 18720, Note_on_c, 9, 59, 63
4, 18828, Note_on_c, 9, 59, 0
4, 18840, Note_on_c, 9, 59, 62
4, 18844, Note_on_c, 9, 44, 37
4, 18854, Note_on_c, 9, 44, 0
4, 18940, Note_on_c, 9, 59, 0
4, 18960, Note_on_c, 9, 59, 66
4, 19071, Note_on_c, 9, 39, 31
4, 19073, Note_on_c, 9, 59, 0
4, 19075, Note_on_c, 9, 39, 0
4, 19080, Note_on_c, 9, 59, 47
4, 19098, Note_on_c, 9, 39, 34
4, 19103, Note_on_c, 9, 39, 0
4, 19124, Note_on_c, 9, 39, 46
4, 19131, Note_on_c, 9, 39, 0
4, 19156, Note_on_c, 9, 38, 46
4, 19161, Note_on_c, 9, 38, 0
4, 19183, Note_on_c, 9, 59, 0
4, 19200, Note_on_c, 9, 59, 63
4, 19245, Note_on_c, 9, 44, 31
4, 19260, Note_on_c, 9, 44, 0
4, 19309, Note_on_c, 9, 59, 0
4, 19320, Note_on_c, 9, 59, 52
4, 19427, Note_on_c, 9, 59, 0
4, 19440, Note_on_c, 9, 59, 60
4, 19548, Note_on_c, 9, 59, 0
4, 19560, Note_on_c, 9, 59, 41
4, 19665, Note_on_c, 9, 59, 0
4, 19680, Note_on_c, 9, 59, 52
4, 19795, Note_on_c, 9, 59, 0
4, 19800, Note_on_c, 9, 59, 51
4, 19815, Note_on_c, 9, 39, 44
4, 19831, Note_on_c, 9, 39, 0
4, 19894, Note_on_c, 9, 59, 0
4, 19920, Note_on_c, 9, 59, 64
4, 19985, Note_on_c, 9, 44, 45
4, 19997, Note_on_c, 9, 44, 0
4, 20030, Note_on_c, 9, 59, 0
4, 20040, Note_on_c, 9, 59, 59
4, 20097, Note_on_c, 9, 44, 35
4, 20112, Note_on_c, 9, 44, 0
4, 20144, Note_on_c, 9, 59, 0
4, 20160, Note_on_c, 9, 59, 68
4, 20270, Note_on_c, 9, 59, 0
4, 20280, Note_on_c, 9, 59, 68
4, 20283, Note_on_c, 9, 40, 27
4, 20289, Note_on_c, 9, 40, 0
4, 20335, Note_on_c, 9, 59, 0
4, 20340, Note_on_c, 9, 59, 72
4, 20384, Note_on_c, 9, 59, 0
4, 20400, Note_on_c, 9, 59, 70
4, 20505, Note_on_c, 9, 59, 0
4, 20520, Note_on_c, 9, 59, 71
4, 20547, Note_on_c, 9, 44, 34
4, 20552, Note_on_c, 9, 44, 0
4, 20570, Note_on_c, 9, 36, 26
4, 20579, Note_on_c, 9, 36, 0
4, 20609, Note_on_c, 9, 36, 45
4, 20619, Note_on_c, 9, 36, 0
4, 20638, Note_on_c, 9, 59, 0
4, 20640, Note_on_c, 9, 59, 58
4, 20691, Note_on_c, 9, 59, 0
4, 20700, Note_on_c, 9, 59, 61
4, 20751, Note_on_c, 9, 59, 0
4, 20760, Note_on_c, 9, 59, 57
4, 20866, Note_on_c, 9, 59, 0
4, 20880, Note_on_c, 9, 59, 62
4, 20993, Note_on_c, 9, 59, 0
4, 21000, Note_on_c, 9, 59, 64
4, 21036, Note_on_c, 9, 39, 38
4, 21047, Note_on_c, 9, 39, 0
4, 21051, Note_on_c, 9, 59, 0
4, 21060, Note_on_c, 9, 59, 60
4, 21060, Note_on_c, 9, 39, 32
4, 21065, Note_on_c, 9, 39, 0
4, 21097, Note_on_c, 9, 38, 66
4, 21107, Note_on_c, 9, 38, 0
4, 21107, Note_on_c, 9, 59, 0
4, 21120, Note_on_c, 9, 59, 68
4, 21120, Note_on_c, 9, 59, 67
4, 21122, Note_on_c, 9, 44, 28
4, 21130, Note_on_c, 9, 44, 0
4, 21168, Note_on_c, 9, 59, 0
4, 21223, Note_on_c, 9, 59, 0
4, 21240, Note_on_c, 9, 59, 67
4, 21353, Note_on_c, 9, 59, 0
4, 21360, Note_on_c, 9, 59, 59
4, 21477, Note_on_c, 9, 59, 0
4, 21480, Note_on_c, 9, 59, 73
4, 21584, Note_on_c, 9, 59, 0
4, 21600, Note_on_c, 9, 59, 62
4, 21703, Note_on_c, 9, 59, 0
4, 21720, Note_on_c, 9, 59, 58
4, 21726, Note_on_c, 9, 44, 60
4, 21733, Note_on_c, 9, 44, 0
4, 21828, Note_on_c, 9, 59, 0
4, 21840, Note_on_c, 9, 59, 62
4, 21947, Note_on_c, 9, 59, 0
4, 21960, Note_on_c, 9, 59, 44
4, 21964, Note_on_c, 9, 44, 39
4, 21981, Note_on_c, 9, 44, 0
4, 22023, Note_on_c, 9, 44, 34
4, 22047, Note_on_c, 9, 44, 0
4, 22079, Note_on_c, 9, 59, 0
4, 22080, Note_on_c, 9, 59, 62
4, 22180, Note_on_c, 9, 59, 0
4, 22200, Note_on_c, 9, 59, 65
4, 22207, Note_on_c, 9, 44, 38
4, 22218, Note_on_c, 9, 44, 0
4, 22302, Note_on_c, 9, 59, 0
4, 22320, Note_on_c, 9, 59, 62
4, 22417, Note_on_c, 9, 39, 25
4, 22423, Note_on_c, 9, 39, 0
4, 22426, Note_on_c, 9, 59, 0
4, 22438, Note_on_c, 9, 39, 35
4, 22440, Note_on_c, 9, 59, 68
4, 22454, Note_on_c, 9, 39, 0
4, 22535, Note_on_c, 9, 39, 27
4, 22545, Note_on_c, 9, 39, 0
4, 22545, Note_on_c, 9, 59, 0
4, 22559, Note_on_c, 9, 39, 44
4, 22560, Note_on_c, 9, 59, 63
4, 22569, Note_on_c, 9, 39, 0
4, 22668, Note_on_c, 9, 59, 0
4, 22678, Note_on_c, 9, 44, 25
4, 22680, Note_on_c, 9, 59, 62
4, 22729, Note_on_c, 9, 44, 0
4, 22745, Note_on_c, 9, 39, 21
4, 22753, Note_on_c, 9, 39, 0
4, 22780, Note_on_c, 9, 59, 0
4, 22800, Note_on_c, 9, 59, 66
4, 22805, Note_on_c, 9, 49, 64
4, 22913, Note_on_c, 9, 59, 0
4, 22920, Note_on_c, 9, 59, 47
4, 22985, Note_on_c, 9, 44, 21
4, 22996, Note_on_c, 9, 44, 0
4, 23023, Note_on_c, 9, 59, 0
4, 23029, Note_on_c, 9, 49, 0
4, 23040, Note_on_c, 9, 59, 63
4, 23041, Note_on_c, 9, 44, 33
4, 23073, Note_on_c, 9, 44, 0
4, 23103, Note_on_c, 9, 44, 31
4, 23136, Note_on_c, 9, 44, 0
4, 23149, Note_on_c, 9, 59, 0
4, 23160, Note_on_c, 9, 59, 52
4, 23267, Note_on_c, 9, 59, 0
4, 23280, Note_on_c, 9, 59, 60
4, 23388, Note_on_c, 9, 59, 0
4, 23400, Note_on_c, 9, 59, 41
4, 23405, Note_on_c, 9, 44, 38
4, 23417, Note_on_c, 9, 44, 0
4, 23505, Note_on_c, 9, 59, 0
4, 23520, Note_on_c, 9, 59, 52
4, 23635, Note_on_c, 9, 59, 0
4, 23640, Note_on_c, 9, 59, 51
4, 23642, Note_on_c, 9, 44, 37
4, 23653, Note_on_c, 9, 44, 0
4, 23734, Note_on_c, 9, 59, 0
4, 23760, Note_on_c, 9, 59, 64
4, 23827, Note_on_c, 9, 44, 40
4, 23844, Note_on_c, 9, 44, 0
4, 23870, Note_on_c, 9, 59, 0
4, 23880, Note_on_c, 9, 59, 59
4, 23887, Note_on_c, 9, 44, 42
4, 23904, Note_on_c, 9, 44, 0
4, 23942, Note_on_c, 9, 39, 42
4, 23955, Note_on_c, 9, 39, 0
4, 23984, Note_on_c, 9, 59, 0
4, 24000, Note_on_c, 9, 59, 68
4, 24062, Note_on_c, 9, 44, 25
4, 24077, Note_on_c, 9, 44, 0
4, 24110, Note_on_c, 9, 59, 0
4, 24120, Note_on_c, 9, 59, 68
4, 24124, Note_on_c, 9, 49, 36
4, 24175, Note_on_c, 9, 59, 0
4, 24180, Note_on_c, 9, 59, 72
4, 24224, Note_on_c, 9, 59, 0
4, 24240, Note_on_c, 9, 59, 70
4, 24293, Note_on_c, 9, 49, 0
4, 24303, Note_on_c, 9, 44, 15
4, 24345, Note_on_c, 9, 59, 0
4, 24352, Note_on_c, 9, 44, 0
4, 24360, Note_on_c, 9, 59, 71
4, 24365, Note_on_c, 9, 49, 23
4, 24373, Note_on_c, 9, 49, 0
4, 24419, Note_on_c, 9, 47, 56
4, 24424, Note_on_c, 9, 47, 0
4, 24478, Note_on_c, 9, 59, 0
4, 24480, Note_on_c, 9, 59, 58
4, 24531, Note_on_c, 9, 59, 0
4, 24535, Note_on_c, 9, 44, 27
4, 24540, Note_on_c, 9, 59, 61
4, 24550, Note_on_c, 9, 44, 0
4, 24591, Note_on_c, 9, 59, 0
4, 24600, Note_on_c, 9, 59, 57
4, 24602, Note_on_c, 9, 49, 43
4, 24706, Note_on_c, 9, 59, 0
4, 24720, Note_on_c, 9, 59, 62
4, 24721, Note_on_c, 9, 44, 28
4, 24770, Note_on_c, 9, 44, 0
4, 24780, Note_on_c, 9, 44, 45
4, 24802, Note_on_c, 9, 49, 0
4, 24833, Note_on_c, 9, 59, 0
4, 24836, Note_on_c, 9, 44, 0
4, 24840, Note_on_c, 9, 59, 64
4, 24842, Note_on_c, 9, 49, 67
4, 24891, Note_on_c, 9, 59, 0
4, 24900, Note_on_c, 9, 59, 60
4, 24916, Note_on_c, 9, 49, 0
4, 24947, Note_on_c, 9, 59, 0
4, 24960, Note_on_c, 9, 59, 68
4, 24960, Note_on_c, 9, 59, 67
4, 25008, Note_on_c, 9, 59, 0
4, 25063, Note_on_c, 9, 59, 0
4, 25063, End_track
5, 0, Start_track
5, 0, Title_t, ""
5, 0, Program_c, 3, 42
5, 0, Control_c, 3, 7, 80
5, 24973, Note_on_c, 3, 48, 110
5, 25096, Note_on_c, 3, 40, 92
5, 25103, Note_on_c, 3, 48, 0
5, 25228, Note_on_c, 3, 46, 93
5, 25233, Note_on_c, 3, 40, 0
5, 25360, Note_on_c, 3, 46, 0
5, 25390, Note_on_c, 3, 45, 53
5, 25586, Note_on_c, 3, 44, 73
5, 25672, Note_on_c, 3, 45, 0
5, 26019, Note_on_c, 3, 44, 0
5, 26046, Note_on_c, 3, 43, 77
5, 26290, Note_on_c, 3, 31, 40
5, 26326, Note_on_c, 3, 43, 0
5, 26622, Note_on_c, 3, 36, 71
5, 26644, Note_on_c, 3, 31, 0
5, 27242, Note_on_c, 3, 36, 0
5, 27243, Note_on_c, 3, 48, 68
5, 27870, Note_on_c, 3, 36, 73
5, 27881, Note_on_c, 3, 48, 0
5, 28083, Note_on_c, 3, 48, 71
5, 28138, Note_on_c, 3, 36, 0
5, 28394, Note_on_c, 3, 36, 47
5, 28500, Note_on_c, 3, 48, 0
5, 28947, Note_on_c, 3, 36, 0
5, 28947, End_track
6, 0, Start_track
6, 0, Title_t, ""
6, 0, End_track
0, 0, End_of_file
