0, 0, Header, 1, 4, 120
1, 0, Start_track
1, 0, Title_t, "Where Is Love"
1, 0, Text_t, "Doug McKenzie\012"
1, 0, Time_signature, 4, 2, 24, 8
1, 0, Key_signature, 0, "major"
1, 0, Tempo, 857143
1, 0, End_track
2, 0, Start_track
2, 0, MIDI_port, 0
2, 32, Control_c, 0, 64, 127
2, 189, Note_on_c, 0, 72, 45
2, 191, Control_c, 0, 64, 0
2, 194, Note_on_c, 0, 67, 26
2, 194, Note_on_c, 0, 64, 30
2, 195, Note_on_c, 0, 62, 27
2, 216, Control_c, 0, 64, 127
2, 466, Note_on_c, 0, 67, 0
2, 506, Note_on_c, 0, 64, 0
2, 509, Note_on_c, 0, 62, 0
2, 562, Note_on_c, 0, 74, 69
2, 563, Note_on_c, 0, 72, 0
2, 565, Note_on_c, 0, 71, 41
2, 616, Note_on_c, 0, 76, 78
2, 616, Control_c, 0, 64, 0
2, 617, Note_on_c, 0, 70, 64
2, 620, Note_on_c, 0, 71, 0
2, 625, Note_on_c, 0, 74, 0
2, 632, Control_c, 0, 64, 127
2, 673, Note_on_c, 0, 77, 78
2, 676, Note_on_c, 0, 70, 0
2, 677, Note_on_c, 0, 76, 0
2, 677, Note_on_c, 0, 69, 43
2, 733, Note_on_c, 0, 77, 0
2, 735, Note_on_c, 0, 69, 0
2, 738, Control_c, 0, 64, 0
2, 739, Note_on_c, 0, 74, 60
2, 743, Note_on_c, 0, 68, 53
2, 771, Control_c, 0, 64, 127
2, 832, Note_on_c, 0, 68, 0
2, 880, Note_on_c, 0, 74, 0
2, 1048, Note_on_c, 0, 53, 19
2, 1048, Note_on_c, 0, 57, 28
2, 1049, Note_on_c, 0, 62, 37
2, 1050, Note_on_c, 0, 59, 40
2, 1051, Note_on_c, 0, 43, 35
2, 1052, Note_on_c, 0, 50, 25
2, 1058, Control_c, 0, 64, 0
2, 1101, Control_c, 0, 64, 127
2, 1167, Note_on_c, 0, 53, 0
2, 1173, Note_on_c, 0, 57, 0
2, 1188, Note_on_c, 0, 59, 0
2, 1188, Note_on_c, 0, 62, 0
2, 1189, Note_on_c, 0, 43, 0
2, 1190, Note_on_c, 0, 50, 0
2, 1290, Control_c, 0, 64, 0
2, 1293, Note_on_c, 0, 68, 40
2, 1293, Note_on_c, 0, 76, 44
2, 1294, Note_on_c, 0, 71, 41
2, 1295, Note_on_c, 0, 64, 38
2, 1297, Note_on_c, 0, 53, 32
2, 1298, Note_on_c, 0, 59, 27
2, 1321, Control_c, 0, 64, 127
2, 1331, Note_on_c, 0, 64, 0
2, 1335, Note_on_c, 0, 71, 0
2, 1339, Note_on_c, 0, 68, 0
2, 1340, Note_on_c, 0, 53, 0
2, 1346, Note_on_c, 0, 59, 0
2, 1350, Note_on_c, 0, 76, 0
2, 1383, Note_on_c, 0, 76, 40
2, 1386, Note_on_c, 0, 64, 37
2, 1388, Note_on_c, 0, 69, 40
2, 1388, Note_on_c, 0, 67, 50
2, 1388, Note_on_c, 0, 57, 29
2, 1388, Note_on_c, 0, 72, 39
2, 1388, Note_on_c, 0, 52, 36
2, 1388, Control_c, 0, 64, 0
2, 1423, Control_c, 0, 64, 127
2, 1448, Note_on_c, 0, 57, 0
2, 1462, Note_on_c, 0, 76, 0
2, 1466, Note_on_c, 0, 72, 0
2, 1473, Note_on_c, 0, 64, 0
2, 1508, Note_on_c, 0, 67, 0
2, 1508, Note_on_c, 0, 69, 0
2, 1527, Note_on_c, 0, 67, 45
2, 1527, Note_on_c, 0, 62, 46
2, 1529, Note_on_c, 0, 57, 24
2, 1580, Note_on_c, 0, 72, 73
2, 1594, Note_on_c, 0, 57, 0
2, 1600, Note_on_c, 0, 67, 0
2, 1606, Note_on_c, 0, 62, 0
2, 1639, Note_on_c, 0, 72, 0
2, 1642, Note_on_c, 0, 52, 0
2, 1645, Note_on_c, 0, 69, 42
2, 1647, Note_on_c, 0, 60, 37
2, 1647, Note_on_c, 0, 65, 45
2, 1651, Note_on_c, 0, 55, 39
2, 1652, Control_c, 0, 64, 0
2, 1684, Control_c, 0, 64, 127
2, 1725, Note_on_c, 0, 43, 40
2, 1754, Note_on_c, 0, 69, 0
2, 1764, Note_on_c, 0, 60, 0
2, 1764, Note_on_c, 0, 65, 0
2, 1773, Note_on_c, 0, 55, 0
2, 1821, Note_on_c, 0, 68, 37
2, 1823, Note_on_c, 0, 59, 43
2, 1824, Note_on_c, 0, 63, 42
2, 1825, Control_c, 0, 64, 0
2, 1827, Note_on_c, 0, 53, 31
2, 1850, Control_c, 0, 64, 127
2, 1898, Note_on_c, 0, 43, 0
2, 1921, Note_on_c, 0, 43, 32
2, 1921, Note_on_c, 0, 71, 47
2, 1964, Note_on_c, 0, 71, 0
2, 1965, Note_on_c, 0, 53, 0
2, 1974, Note_on_c, 0, 59, 0
2, 1975, Note_on_c, 0, 68, 0
2, 1997, Note_on_c, 0, 63, 0
2, 2054, Note_on_c, 0, 67, 36
2, 2059, Note_on_c, 0, 62, 30
2, 2059, Note_on_c, 0, 59, 36
2, 2060, Note_on_c, 0, 57, 37
2, 2063, Control_c, 0, 64, 0
2, 2064, Note_on_c, 0, 52, 25
2, 2097, Control_c, 0, 64, 127
2, 2103, Note_on_c, 0, 43, 0
2, 2122, Note_on_c, 0, 57, 0
2, 2126, Note_on_c, 0, 59, 0
2, 2145, Note_on_c, 0, 62, 0
2, 2161, Note_on_c, 0, 67, 0
2, 2183, Note_on_c, 0, 43, 41
2, 2195, Note_on_c, 0, 52, 0
2, 2202, Note_on_c, 0, 43, 0
2, 2266, Note_on_c, 0, 76, 80
2, 2330, Note_on_c, 0, 77, 76
2, 2333, Note_on_c, 0, 71, 52
2, 2334, Control_c, 0, 64, 0
2, 2335, Note_on_c, 0, 76, 0
2, 2351, Control_c, 0, 64, 127
2, 2391, Note_on_c, 0, 79, 71
2, 2392, Note_on_c, 0, 70, 55
2, 2393, Note_on_c, 0, 71, 0
2, 2393, Control_c, 0, 64, 0
2, 2403, Note_on_c, 0, 77, 0
2, 2409, Control_c, 0, 64, 127
2, 2438, Note_on_c, 0, 79, 0
2, 2453, Note_on_c, 0, 81, 74
2, 2455, Control_c, 0, 64, 0
2, 2456, Note_on_c, 0, 69, 36
2, 2457, Note_on_c, 0, 70, 0
2, 2476, Control_c, 0, 64, 127
2, 2522, Note_on_c, 0, 81, 0
2, 2528, Note_on_c, 0, 69, 0
2, 2530, Note_on_c, 0, 77, 46
2, 2532, Note_on_c, 0, 74, 40
2, 2532, Note_on_c, 0, 68, 43
2, 2534, Control_c, 0, 64, 0
2, 2555, Control_c, 0, 64, 127
2, 2573, Note_on_c, 0, 74, 0
2, 2578, Note_on_c, 0, 68, 0
2, 2613, Note_on_c, 0, 77, 0
2, 2616, Note_on_c, 0, 74, 33
2, 2620, Note_on_c, 0, 70, 31
2, 2620, Note_on_c, 0, 65, 39
2, 2685, Note_on_c, 0, 65, 0
2, 2692, Note_on_c, 0, 70, 0
2, 2703, Note_on_c, 0, 74, 0
2, 2714, Note_on_c, 0, 65, 35
2, 2714, Note_on_c, 0, 71, 34
2, 2716, Note_on_c, 0, 55, 44
2, 2718, Note_on_c, 0, 62, 22
2, 2719, Control_c, 0, 64, 0
2, 2744, Control_c, 0, 64, 127
2, 2759, Note_on_c, 0, 62, 0
2, 2768, Note_on_c, 0, 55, 0
2, 2777, Note_on_c, 0, 71, 0
2, 2787, Note_on_c, 0, 65, 0
2, 2959, Control_c, 0, 64, 0
2, 2962, Note_on_c, 0, 59, 49
2, 2962, Note_on_c, 0, 63, 46
2, 2962, Note_on_c, 0, 67, 41
2, 2964, Note_on_c, 0, 43, 29
2, 2968, Note_on_c, 0, 53, 18
2, 2978, Control_c, 0, 64, 127
2, 3003, Note_on_c, 0, 67, 0
2, 3006, Note_on_c, 0, 53, 0
2, 3007, Note_on_c, 0, 59, 0
2, 3020, Note_on_c, 0, 63, 0
2, 3031, Note_on_c, 0, 67, 44
2, 3033, Note_on_c, 0, 57, 46
2, 3033, Note_on_c, 0, 62, 40
2, 3034, Control_c, 0, 64, 0
2, 3036, Note_on_c, 0, 52, 30
2, 3055, Note_on_c, 0, 43, 0
2, 3063, Control_c, 0, 64, 127
2, 3083, Note_on_c, 0, 57, 0
2, 3096, Note_on_c, 0, 62, 0
2, 3096, Note_on_c, 0, 43, 44
2, 3103, Note_on_c, 0, 67, 0
2, 3162, Note_on_c, 0, 43, 0
2, 3165, Note_on_c, 0, 69, 68
2, 3167, Note_on_c, 0, 52, 0
2, 3196, Note_on_c, 0, 70, 77
2, 3199, Note_on_c, 0, 69, 0
2, 3209, Note_on_c, 0, 70, 0
2, 3229, Note_on_c, 0, 74, 78
2, 3247, Note_on_c, 0, 74, 0
2, 3266, Note_on_c, 0, 84, 91
2, 3300, Note_on_c, 0, 84, 0
2, 3313, Note_on_c, 0, 69, 38
2, 3313, Note_on_c, 0, 82, 71
2, 3314, Note_on_c, 0, 58, 33
2, 3315, Note_on_c, 0, 64, 34
2, 3317, Control_c, 0, 64, 0
2, 3341, Control_c, 0, 64, 127
2, 3355, Note_on_c, 0, 69, 0
2, 3358, Note_on_c, 0, 78, 46
2, 3360, Note_on_c, 0, 64, 0
2, 3365, Note_on_c, 0, 82, 0
2, 3367, Note_on_c, 0, 58, 0
2, 3405, Note_on_c, 0, 78, 0
2, 3413, Note_on_c, 0, 81, 65
2, 3416, Note_on_c, 0, 63, 20
2, 3416, Note_on_c, 0, 58, 37
2, 3417, Note_on_c, 0, 52, 37
2, 3418, Control_c, 0, 64, 0
2, 3446, Control_c, 0, 64, 127
2, 3465, Note_on_c, 0, 81, 0
2, 3472, Note_on_c, 0, 79, 35
2, 3489, Note_on_c, 0, 79, 0
2, 3495, Note_on_c, 0, 63, 0
2, 3536, Note_on_c, 0, 58, 0
2, 3542, Note_on_c, 0, 75, 40
2, 3543, Note_on_c, 0, 68, 42
2, 3544, Note_on_c, 0, 64, 24
2, 3544, Note_on_c, 0, 63, 39
2, 3547, Note_on_c, 0, 72, 40
2, 3550, Control_c, 0, 64, 0
2, 3572, Control_c, 0, 64, 127
2, 3591, Note_on_c, 0, 63, 0
2, 3593, Note_on_c, 0, 68, 0
2, 3594, Note_on_c, 0, 64, 0
2, 3595, Note_on_c, 0, 72, 0
2, 3604, Note_on_c, 0, 75, 0
2, 3608, Note_on_c, 0, 73, 50
2, 3611, Note_on_c, 0, 64, 36
2, 3611, Note_on_c, 0, 68, 47
2, 3612, Note_on_c, 0, 61, 31
2, 3614, Control_c, 0, 64, 0
2, 3634, Control_c, 0, 64, 127
2, 3655, Note_on_c, 0, 73, 0
2, 3662, Note_on_c, 0, 68, 0
2, 3663, Note_on_c, 0, 61, 0
2, 3663, Note_on_c, 0, 64, 0
2, 3679, Note_on_c, 0, 72, 49
2, 3681, Note_on_c, 0, 64, 30
2, 3682, Note_on_c, 0, 67, 34
2, 3683, Control_c, 0, 64, 0
2, 3683, Note_on_c, 0, 60, 36
2, 3703, Control_c, 0, 64, 127
2, 3714, Note_on_c, 0, 67, 0
2, 3719, Note_on_c, 0, 64, 0
2, 3729, Note_on_c, 0, 72, 0
2, 3734, Note_on_c, 0, 60, 0
2, 3738, Note_on_c, 0, 52, 0
2, 3748, Note_on_c, 0, 70, 48
2, 3748, Note_on_c, 0, 67, 29
2, 3749, Note_on_c, 0, 64, 30
2, 3752, Note_on_c, 0, 58, 29
2, 3753, Control_c, 0, 64, 0
2, 3771, Control_c, 0, 64, 127
2, 3775, Note_on_c, 0, 67, 0
2, 3784, Note_on_c, 0, 64, 0
2, 3790, Note_on_c, 0, 70, 0
2, 3826, Note_on_c, 0, 58, 0
2, 3829, Control_c, 0, 64, 0
2, 3829, Note_on_c, 0, 69, 46
2, 3830, Note_on_c, 0, 65, 40
2, 3830, Note_on_c, 0, 60, 37
2, 3833, Note_on_c, 0, 57, 32
2, 3857, Control_c, 0, 64, 127
2, 3865, Note_on_c, 0, 57, 0
2, 3881, Note_on_c, 0, 69, 0
2, 3883, Note_on_c, 0, 65, 0
2, 3894, Note_on_c, 0, 60, 0
2, 3960, Note_on_c, 0, 65, 68
2, 3981, Note_on_c, 0, 65, 0
2, 4019, Note_on_c, 0, 67, 68
2, 4041, Note_on_c, 0, 67, 0
2, 4068, Note_on_c, 0, 69, 62
2, 4071, Note_on_c, 0, 67, 45
2, 4076, Note_on_c, 0, 67, 0
2, 4084, Note_on_c, 0, 69, 0
2, 4201, Note_on_c, 0, 71, 64
2, 4231, Note_on_c, 0, 71, 0
2, 4313, Note_on_c, 0, 67, 42
2, 4315, Note_on_c, 0, 63, 40
2, 4315, Note_on_c, 0, 41, 46
2, 4315, Note_on_c, 0, 58, 36
2, 4317, Control_c, 0, 64, 0
2, 4333, Note_on_c, 0, 53, 13
2, 4355, Control_c, 0, 64, 127
2, 4371, Note_on_c, 0, 53, 0
2, 4372, Note_on_c, 0, 51, 46
2, 4401, Note_on_c, 0, 63, 0
2, 4403, Note_on_c, 0, 58, 0
2, 4431, Note_on_c, 0, 58, 39
2, 4431, Note_on_c, 0, 63, 46
2, 4434, Note_on_c, 0, 53, 29
2, 4439, Note_on_c, 0, 41, 0
2, 4444, Note_on_c, 0, 51, 0
2, 4457, Note_on_c, 0, 53, 0
2, 4504, Note_on_c, 0, 57, 44
2, 4609, Note_on_c, 0, 57, 0
2, 4630, Note_on_c, 0, 57, 44
2, 4686, Note_on_c, 0, 57, 0
2, 4689, Note_on_c, 0, 53, 58
2, 4725, Note_on_c, 0, 53, 0
2, 4743, Note_on_c, 0, 53, 48
2, 4753, Note_on_c, 0, 67, 0
2, 4760, Note_on_c, 0, 58, 0
2, 4767, Note_on_c, 0, 63, 0
2, 4790, Note_on_c, 0, 69, 71
2, 4825, Note_on_c, 0, 69, 0
2, 4843, Note_on_c, 0, 53, 0
2, 4851, Note_on_c, 0, 69, 60
2, 4852, Control_c, 0, 64, 0
2, 4853, Note_on_c, 0, 61, 45
2, 4853, Note_on_c, 0, 46, 37
2, 4854, Note_on_c, 0, 64, 55
2, 4854, Note_on_c, 0, 57, 38
2, 4864, Note_on_c, 0, 53, 18
2, 4868, Note_on_c, 0, 57, 0
2, 4870, Control_c, 0, 64, 127
2, 4875, Note_on_c, 0, 64, 0
2, 4875, Note_on_c, 0, 61, 0
2, 4877, Note_on_c, 0, 69, 0
2, 4912, Control_c, 0, 64, 0
2, 4913, Note_on_c, 0, 53, 0
2, 4913, Note_on_c, 0, 60, 42
2, 4913, Note_on_c, 0, 70, 53
2, 4913, Note_on_c, 0, 65, 60
2, 4916, Note_on_c, 0, 55, 33
2, 4933, Control_c, 0, 64, 127
2, 4937, Note_on_c, 0, 70, 0
2, 4940, Note_on_c, 0, 65, 0
2, 4947, Note_on_c, 0, 55, 0
2, 4952, Note_on_c, 0, 60, 0
2, 4969, Note_on_c, 0, 46, 0
2, 4983, Note_on_c, 0, 65, 45
2, 4986, Note_on_c, 0, 61, 46
2, 4987, Note_on_c, 0, 56, 35
2, 4987, Note_on_c, 0, 46, 32
2, 4990, Control_c, 0, 64, 0
2, 5015, Control_c, 0, 64, 127
2, 5021, Note_on_c, 0, 56, 0
2, 5038, Note_on_c, 0, 56, 46
2, 5048, Note_on_c, 0, 56, 0
2, 5058, Note_on_c, 0, 46, 0
2, 5076, Note_on_c, 0, 61, 0
2, 5103, Note_on_c, 0, 55, 37
2, 5104, Note_on_c, 0, 61, 27
2, 5106, Note_on_c, 0, 39, 31
2, 5109, Control_c, 0, 64, 0
2, 5145, Control_c, 0, 64, 127
2, 5152, Note_on_c, 0, 46, 35
2, 5174, Note_on_c, 0, 61, 0
2, 5177, Note_on_c, 0, 55, 0
2, 5194, Note_on_c, 0, 65, 0
2, 5194, Note_on_c, 0, 61, 46
2, 5196, Note_on_c, 0, 55, 48
2, 5198, Note_on_c, 0, 39, 0
2, 5200, Note_on_c, 0, 51, 35
2, 5210, Note_on_c, 0, 55, 0
2, 5215, Note_on_c, 0, 46, 0
2, 5216, Note_on_c, 0, 51, 0
2, 5225, Note_on_c, 0, 61, 0
2, 5237, Note_on_c, 0, 55, 50
2, 5238, Note_on_c, 0, 67, 68
2, 5253, Note_on_c, 0, 55, 0
2, 5270, Note_on_c, 0, 67, 0
2, 5288, Note_on_c, 0, 67, 49
2, 5290, Control_c, 0, 64, 0
2, 5291, Note_on_c, 0, 59, 53
2, 5292, Note_on_c, 0, 62, 43
2, 5295, Note_on_c, 0, 44, 37
2, 5295, Note_on_c, 0, 55, 40
2, 5315, Control_c, 0, 64, 127
2, 5326, Note_on_c, 0, 55, 0
2, 5330, Note_on_c, 0, 67, 0
2, 5343, Note_on_c, 0, 51, 36
2, 5347, Note_on_c, 0, 62, 0
2, 5353, Note_on_c, 0, 59, 0
2, 5397, Note_on_c, 0, 68, 55
2, 5399, Note_on_c, 0, 60, 48
2, 5402, Note_on_c, 0, 55, 28
2, 5402, Note_on_c, 0, 63, 32
2, 5412, Note_on_c, 0, 51, 0
2, 5423, Note_on_c, 0, 55, 0
2, 5429, Note_on_c, 0, 44, 0
2, 5456, Note_on_c, 0, 68, 0
2, 5458, Note_on_c, 0, 44, 36
2, 5471, Note_on_c, 0, 60, 0
2, 5472, Note_on_c, 0, 63, 0
2, 5479, Note_on_c, 0, 44, 0
2, 5525, Note_on_c, 0, 63, 39
2, 5529, Note_on_c, 0, 58, 48
2, 5530, Control_c, 0, 64, 0
2, 5531, Note_on_c, 0, 53, 27
2, 5533, Note_on_c, 0, 37, 42
2, 5549, Note_on_c, 0, 53, 0
2, 5557, Control_c, 0, 64, 127
2, 5560, Note_on_c, 0, 58, 0
2, 5563, Note_on_c, 0, 63, 0
2, 5590, Note_on_c, 0, 37, 0
2, 5595, Note_on_c, 0, 44, 43
2, 5595, Note_on_c, 0, 75, 60
2, 5643, Note_on_c, 0, 44, 0
2, 5646, Note_on_c, 0, 75, 0
2, 5659, Note_on_c, 0, 75, 49
2, 5666, Note_on_c, 0, 68, 39
2, 5666, Note_on_c, 0, 53, 33
2, 5666, Note_on_c, 0, 65, 36
2, 5701, Note_on_c, 0, 53, 0
2, 5705, Note_on_c, 0, 75, 0
2, 5706, Note_on_c, 0, 68, 0
2, 5711, Note_on_c, 0, 65, 0
2, 5822, Note_on_c, 0, 72, 68
2, 5823, Note_on_c, 0, 65, 76
2, 5824, Control_c, 0, 64, 0
2, 5824, Note_on_c, 0, 49, 59
2, 5825, Note_on_c, 0, 60, 77
2, 5827, Note_on_c, 0, 56, 47
2, 5843, Control_c, 0, 64, 127
2, 5853, Note_on_c, 0, 60, 0
2, 5861, Note_on_c, 0, 65, 0
2, 5864, Note_on_c, 0, 49, 0
2, 5871, Note_on_c, 0, 56, 0
2, 5872, Note_on_c, 0, 72, 0
2, 5955, Note_on_c, 0, 79, 68
2, 5958, Note_on_c, 0, 72, 65
2, 5958, Note_on_c, 0, 65, 51
2, 5962, Note_on_c, 0, 60, 38
2, 5962, Note_on_c, 0, 50, 45
2, 5965, Control_c, 0, 64, 0
2, 6000, Control_c, 0, 64, 127
2, 6037, Note_on_c, 0, 60, 0
2, 6041, Note_on_c, 0, 57, 49
2, 6054, Note_on_c, 0, 50, 0
2, 6085, Note_on_c, 0, 65, 0
2, 6091, Note_on_c, 0, 72, 0
2, 6129, Note_on_c, 0, 72, 41
2, 6130, Note_on_c, 0, 65, 51
2, 6180, Note_on_c, 0, 57, 0
2, 6210, Note_on_c, 0, 65, 0
2, 6222, Note_on_c, 0, 72, 0
2, 6222, Note_on_c, 0, 79, 0
2, 6340, Note_on_c, 0, 60, 40
2, 6364, Note_on_c, 0, 60, 0
2, 6373, Note_on_c, 0, 60, 56
2, 6385, Note_on_c, 0, 60, 0
2, 6401, Note_on_c, 0, 60, 63
2, 6419, Note_on_c, 0, 60, 0
2, 6430, Note_on_c, 0, 60, 63
2, 6436, Note_on_c, 0, 60, 0
2, 6456, Note_on_c, 0, 60, 54
2, 6473, Note_on_c, 0, 60, 0
2, 6486, Note_on_c, 0, 60, 54
2, 6491, Note_on_c, 0, 60, 0
2, 6510, Note_on_c, 0, 60, 48
2, 6524, Note_on_c, 0, 60, 0
2, 6537, Note_on_c, 0, 60, 54
2, 6543, Note_on_c, 0, 60, 0
2, 6561, Note_on_c, 0, 60, 44
2, 6568, Note_on_c, 0, 60, 0
2, 6582, Note_on_c, 0, 60, 48
2, 6587, Note_on_c, 0, 60, 0
2, 6603, Note_on_c, 0, 60, 50
2, 6610, Note_on_c, 0, 60, 0
2, 6624, Note_on_c, 0, 60, 50
2, 6629, Note_on_c, 0, 60, 0
2, 6644, Note_on_c, 0, 60, 60
2, 6655, Note_on_c, 0, 60, 0
2, 6670, Note_on_c, 0, 60, 57
2, 6674, Control_c, 0, 64, 0
2, 6677, Note_on_c, 0, 43, 41
2, 6678, Note_on_c, 0, 53, 38
2, 6684, Note_on_c, 0, 60, 0
2, 6702, Note_on_c, 0, 60, 54
2, 6718, Control_c, 0, 64, 127
2, 6746, Note_on_c, 0, 60, 0
2, 6748, Note_on_c, 0, 59, 60
2, 6784, Note_on_c, 0, 53, 0
2, 6785, Note_on_c, 0, 59, 0
2, 6814, Note_on_c, 0, 59, 56
2, 6818, Note_on_c, 0, 53, 34
2, 7025, Note_on_c, 0, 43, 0
2, 7033, Note_on_c, 0, 65, 65
2, 7098, Note_on_c, 0, 59, 0
2, 7100, Note_on_c, 0, 65, 0
2, 7112, Control_c, 0, 64, 0
2, 7112, Note_on_c, 0, 64, 50
2, 7114, Note_on_c, 0, 53, 0
2, 7115, Note_on_c, 0, 48, 38
2, 7137, Control_c, 0, 64, 127
2, 7182, Note_on_c, 0, 64, 0
2, 7184, Note_on_c, 0, 55, 30
2, 7299, Note_on_c, 0, 72, 63
2, 7301, Note_on_c, 0, 64, 57
2, 7304, Note_on_c, 0, 60, 34
2, 7323, Note_on_c, 0, 72, 0
2, 7336, Note_on_c, 0, 64, 0
2, 7364, Note_on_c, 0, 74, 64
2, 7366, Note_on_c, 0, 65, 66
2, 7388, Note_on_c, 0, 65, 0
2, 7389, Note_on_c, 0, 74, 0
2, 7416, Note_on_c, 0, 76, 64
2, 7419, Note_on_c, 0, 67, 68
2, 7441, Note_on_c, 0, 67, 0
2, 7443, Note_on_c, 0, 76, 0
2, 7468, Note_on_c, 0, 77, 68
2, 7469, Note_on_c, 0, 69, 68
2, 7485, Note_on_c, 0, 48, 0
2, 7486, Note_on_c, 0, 77, 0
2, 7488, Note_on_c, 0, 69, 0
2, 7514, Note_on_c, 0, 60, 0
2, 7529, Control_c, 0, 64, 0
2, 7529, Note_on_c, 0, 74, 68
2, 7529, Note_on_c, 0, 65, 65
2, 7530, Note_on_c, 0, 55, 0
2, 7532, Note_on_c, 0, 48, 62
2, 7554, Control_c, 0, 64, 127
2, 7571, Note_on_c, 0, 65, 0
2, 7578, Note_on_c, 0, 57, 58
2, 7590, Note_on_c, 0, 72, 13
2, 7607, Note_on_c, 0, 74, 0
2, 7611, Note_on_c, 0, 72, 0
2, 7627, Note_on_c, 0, 57, 0
2, 7633, Note_on_c, 0, 65, 60
2, 7633, Note_on_c, 0, 69, 44
2, 7635, Note_on_c, 0, 60, 53
2, 7662, Note_on_c, 0, 60, 0
2, 7682, Note_on_c, 0, 65, 0
2, 7691, Note_on_c, 0, 69, 0
2, 7692, Note_on_c, 0, 57, 42
2, 7745, Note_on_c, 0, 57, 0
2, 7779, Note_on_c, 0, 60, 24
2, 7812, Note_on_c, 0, 60, 0
2, 7851, Note_on_c, 0, 60, 12
2, 7889, Note_on_c, 0, 60, 0
2, 7908, Note_on_c, 0, 76, 55
2, 7910, Note_on_c, 0, 65, 57
2, 7963, Note_on_c, 0, 60, 31
2, 7994, Note_on_c, 0, 65, 0
2, 8001, Note_on_c, 0, 76, 0
2, 8002, Note_on_c, 0, 48, 0
2, 8025, Note_on_c, 0, 76, 40
2, 8025, Note_on_c, 0, 67, 43
2, 8027, Note_on_c, 0, 60, 0
2, 8031, Note_on_c, 0, 48, 34
2, 8032, Control_c, 0, 64, 0
2, 8061, Control_c, 0, 64, 127
2, 8079, Note_on_c, 0, 55, 40
2, 8105, Note_on_c, 0, 67, 0
2, 8134, Note_on_c, 0, 67, 39
2, 8143, Note_on_c, 0, 76, 0
2, 8196, Note_on_c, 0, 79, 54
2, 8234, Note_on_c, 0, 67, 0
2, 8237, Note_on_c, 0, 79, 0
2, 8264, Note_on_c, 0, 79, 38
2, 8264, Note_on_c, 0, 67, 34
2, 8268, Note_on_c, 0, 60, 30
2, 8295, Note_on_c, 0, 55, 0
2, 8297, Note_on_c, 0, 67, 0
2, 8298, Note_on_c, 0, 79, 0
2, 8311, Note_on_c, 0, 67, 9
2, 8341, Note_on_c, 0, 60, 0
2, 8352, Note_on_c, 0, 67, 0
2, 8371, Note_on_c, 0, 67, 71
2, 8372, Note_on_c, 0, 55, 30
2, 8374, Note_on_c, 0, 68, 83
2, 8374, Note_on_c, 0, 72, 75
2, 8377, Note_on_c, 0, 55, 0
2, 8378, Control_c, 0, 64, 0
2, 8379, Note_on_c, 0, 53, 64
2, 8382, Note_on_c, 0, 69, 74
2, 8384, Note_on_c, 0, 68, 0
2, 8386, Note_on_c, 0, 67, 0
2, 8407, Control_c, 0, 64, 127
2, 8416, Control_c, 0, 64, 0
2, 8426, Note_on_c, 0, 72, 0
2, 8433, Note_on_c, 0, 72, 40
2, 8436, Note_on_c, 0, 67, 64
2, 8438, Note_on_c, 0, 53, 0
2, 8439, Note_on_c, 0, 69, 0
2, 8439, Note_on_c, 0, 52, 41
2, 8448, Control_c, 0, 64, 127
2, 8472, Control_c, 0, 64, 0
2, 8477, Note_on_c, 0, 72, 0
2, 8488, Note_on_c, 0, 52, 0
2, 8492, Note_on_c, 0, 72, 47
2, 8493, Note_on_c, 0, 50, 43
2, 8494, Note_on_c, 0, 65, 52
2, 8500, Control_c, 0, 64, 127
2, 8503, Note_on_c, 0, 67, 0
2, 8522, Note_on_c, 0, 48, 0
2, 8529, Note_on_c, 0, 50, 0
2, 8537, Note_on_c, 0, 65, 0
2, 8564, Note_on_c, 0, 72, 0
2, 8573, Control_c, 0, 64, 0
2, 8577, Note_on_c, 0, 64, 49
2, 8581, Note_on_c, 0, 48, 39
2, 8592, Control_c, 0, 64, 127
2, 8599, Note_on_c, 0, 48, 0
2, 8601, Note_on_c, 0, 64, 0
2, 8682, Note_on_c, 0, 76, 81
2, 8737, Note_on_c, 0, 76, 0
2, 8743, Control_c, 0, 64, 0
2, 8743, Note_on_c, 0, 68, 68
2, 8744, Note_on_c, 0, 63, 59
2, 8744, Note_on_c, 0, 77, 76
2, 8744, Note_on_c, 0, 57, 58
2, 8749, Note_on_c, 0, 76, 27
2, 8754, Note_on_c, 0, 76, 0
2, 8760, Control_c, 0, 64, 127
2, 8781, Note_on_c, 0, 57, 0
2, 8793, Note_on_c, 0, 68, 0
2, 8795, Note_on_c, 0, 77, 0
2, 8797, Note_on_c, 0, 63, 0
2, 8808, Control_c, 0, 64, 0
2, 8808, Note_on_c, 0, 67, 60
2, 8808, Note_on_c, 0, 62, 61
2, 8808, Note_on_c, 0, 79, 83
2, 8813, Note_on_c, 0, 56, 47
2, 8826, Control_c, 0, 64, 127
2, 8848, Note_on_c, 0, 67, 0
2, 8850, Note_on_c, 0, 62, 0
2, 8852, Note_on_c, 0, 79, 0
2, 8857, Note_on_c, 0, 56, 0
2, 8875, Note_on_c, 0, 81, 77
2, 8876, Control_c, 0, 64, 0
2, 8877, Note_on_c, 0, 66, 46
2, 8877, Note_on_c, 0, 55, 49
2, 8879, Note_on_c, 0, 61, 45
2, 8896, Control_c, 0, 64, 127
2, 8901, Note_on_c, 0, 81, 0
2, 8913, Note_on_c, 0, 55, 0
2, 8914, Note_on_c, 0, 66, 0
2, 8927, Note_on_c, 0, 61, 0
2, 8953, Note_on_c, 0, 77, 51
2, 8955, Note_on_c, 0, 70, 44
2, 8956, Note_on_c, 0, 74, 46
2, 8956, Note_on_c, 0, 65, 42
2, 8957, Note_on_c, 0, 54, 53
2, 8958, Control_c, 0, 64, 0
2, 8958, Note_on_c, 0, 60, 35
2, 8991, Control_c, 0, 64, 127
2, 9063, Note_on_c, 0, 65, 0
2, 9106, Note_on_c, 0, 70, 0
2, 9116, Note_on_c, 0, 60, 0
2, 9120, Note_on_c, 0, 74, 0
2, 9126, Note_on_c, 0, 77, 0
2, 9128, Note_on_c, 0, 54, 0
2, 9204, Note_on_c, 0, 67, 36
2, 9289, Note_on_c, 0, 57, 33
2, 9290, Note_on_c, 0, 59, 40
2, 9291, Note_on_c, 0, 43, 36
2, 9293, Note_on_c, 0, 53, 29
2, 9295, Control_c, 0, 64, 0
2, 9328, Control_c, 0, 64, 127
2, 9356, Note_on_c, 0, 59, 0
2, 9359, Note_on_c, 0, 57, 0
2, 9371, Note_on_c, 0, 67, 0
2, 9384, Note_on_c, 0, 53, 0
2, 9422, Control_c, 0, 64, 0
2, 9424, Note_on_c, 0, 67, 45
2, 9425, Note_on_c, 0, 59, 48
2, 9427, Note_on_c, 0, 63, 43
2, 9429, Note_on_c, 0, 53, 32
2, 9446, Control_c, 0, 64, 127
2, 9467, Note_on_c, 0, 53, 0
2, 9469, Note_on_c, 0, 67, 0
2, 9472, Note_on_c, 0, 59, 0
2, 9490, Note_on_c, 0, 63, 0
2, 9554, Control_c, 0, 64, 0
2, 9557, Note_on_c, 0, 67, 48
2, 9560, Note_on_c, 0, 58, 35
2, 9560, Note_on_c, 0, 62, 44
2, 9564, Note_on_c, 0, 52, 27
2, 9577, Control_c, 0, 64, 127
2, 9584, Note_on_c, 0, 67, 0
2, 9586, Note_on_c, 0, 43, 0
2, 9594, Note_on_c, 0, 62, 0
2, 9597, Note_on_c, 0, 52, 0
2, 9602, Note_on_c, 0, 58, 0
2, 9620, Control_c, 0, 64, 0
2, 9623, Note_on_c, 0, 69, 63
2, 9623, Note_on_c, 0, 58, 51
2, 9624, Note_on_c, 0, 62, 57
2, 9628, Note_on_c, 0, 65, 50
2, 9628, Note_on_c, 0, 57, 39
2, 9630, Control_c, 0, 64, 127
2, 9639, Note_on_c, 0, 58, 0
2, 9641, Note_on_c, 0, 62, 0
2, 9644, Note_on_c, 0, 65, 0
2, 9646, Note_on_c, 0, 69, 0
2, 9679, Note_on_c, 0, 57, 0
2, 9688, Control_c, 0, 64, 0
2, 9692, Note_on_c, 0, 72, 69
2, 9693, Note_on_c, 0, 62, 65
2, 9694, Note_on_c, 0, 65, 61
2, 9695, Note_on_c, 0, 69, 56
2, 9700, Note_on_c, 0, 58, 25
2, 9702, Control_c, 0, 64, 127
2, 9712, Note_on_c, 0, 65, 0
2, 9713, Note_on_c, 0, 62, 0
2, 9718, Note_on_c, 0, 69, 0
2, 9723, Note_on_c, 0, 72, 0
2, 9761, Note_on_c, 0, 74, 54
2, 9763, Note_on_c, 0, 70, 59
2, 9763, Control_c, 0, 64, 0
2, 9764, Note_on_c, 0, 64, 46
2, 9766, Note_on_c, 0, 67, 47
2, 9767, Note_on_c, 0, 60, 47
2, 9783, Control_c, 0, 64, 127
2, 9787, Note_on_c, 0, 58, 0
2, 9791, Note_on_c, 0, 67, 0
2, 9797, Note_on_c, 0, 74, 0
2, 9802, Note_on_c, 0, 60, 0
2, 9804, Note_on_c, 0, 64, 0
2, 9806, Note_on_c, 0, 70, 0
2, 9837, Note_on_c, 0, 73, 54
2, 9839, Note_on_c, 0, 70, 45
2, 9839, Note_on_c, 0, 64, 45
2, 9839, Note_on_c, 0, 68, 46
2, 9841, Note_on_c, 0, 61, 43
2, 9844, Control_c, 0, 64, 0
2, 9865, Control_c, 0, 64, 127
2, 9885, Note_on_c, 0, 68, 0
2, 9886, Note_on_c, 0, 64, 0
2, 9888, Note_on_c, 0, 73, 0
2, 9889, Note_on_c, 0, 70, 0
2, 9911, Note_on_c, 0, 61, 0
2, 9920, Note_on_c, 0, 75, 51
2, 9921, Note_on_c, 0, 70, 44
2, 9922, Note_on_c, 0, 64, 37
2, 9924, Note_on_c, 0, 68, 47
2, 9926, Control_c, 0, 64, 0
2, 9930, Note_on_c, 0, 58, 28
2, 9952, Control_c, 0, 64, 127
2, 9959, Note_on_c, 0, 58, 0
2, 9969, Note_on_c, 0, 75, 0
2, 9988, Note_on_c, 0, 68, 0
2, 9991, Note_on_c, 0, 64, 0
2, 9997, Note_on_c, 0, 70, 0
2, 10026, Note_on_c, 0, 70, 37
2, 10026, Note_on_c, 0, 64, 34
2, 10027, Note_on_c, 0, 73, 18
2, 10027, Note_on_c, 0, 68, 39
2, 10028, Note_on_c, 0, 48, 29
2, 10029, Note_on_c, 0, 58, 25
2, 10030, Control_c, 0, 64, 0
2, 10054, Control_c, 0, 64, 127
2, 10057, Note_on_c, 0, 48, 0
2, 10061, Note_on_c, 0, 58, 0
2, 10168, Note_on_c, 0, 73, 0
2, 10211, Note_on_c, 0, 68, 0
2, 10214, Note_on_c, 0, 70, 0
2, 10216, Note_on_c, 0, 64, 0
2, 10219, Note_on_c, 0, 72, 40
2, 10283, Note_on_c, 0, 72, 0
2, 10293, Note_on_c, 0, 69, 41
2, 10295, Note_on_c, 0, 65, 27
2, 10296, Note_on_c, 0, 41, 24
2, 10300, Control_c, 0, 64, 0
2, 10323, Control_c, 0, 64, 127
2, 10334, Note_on_c, 0, 65, 0
2, 10344, Note_on_c, 0, 69, 0
2, 10348, Note_on_c, 0, 48, 40
2, 10386, Note_on_c, 0, 48, 0
2, 10386, Note_on_c, 0, 41, 0
2, 10393, Note_on_c, 0, 77, 57
2, 10395, Note_on_c, 0, 69, 55
2, 10400, Note_on_c, 0, 57, 30
2, 10408, Note_on_c, 0, 57, 0
2, 10417, Note_on_c, 0, 69, 0
2, 10420, Note_on_c, 0, 77, 0
2, 10456, Note_on_c, 0, 79, 53
2, 10458, Note_on_c, 0, 71, 37
2, 10459, Note_on_c, 0, 60, 36
2, 10481, Note_on_c, 0, 79, 0
2, 10484, Note_on_c, 0, 71, 0
2, 10512, Note_on_c, 0, 81, 60
2, 10514, Note_on_c, 0, 72, 49
2, 10535, Note_on_c, 0, 81, 0
2, 10538, Note_on_c, 0, 72, 0
2, 10561, Note_on_c, 0, 83, 74
2, 10566, Note_on_c, 0, 72, 46
2, 10566, Note_on_c, 0, 74, 47
2, 10572, Note_on_c, 0, 74, 0
2, 10573, Note_on_c, 0, 72, 0
2, 10577, Note_on_c, 0, 83, 0
2, 10604, Note_on_c, 0, 60, 0
2, 10623, Note_on_c, 0, 79, 43
2, 10624, Note_on_c, 0, 75, 45
2, 10625, Note_on_c, 0, 67, 28
2, 10627, Control_c, 0, 64, 0
2, 10627, Note_on_c, 0, 53, 35
2, 10628, Note_on_c, 0, 63, 34
2, 10657, Control_c, 0, 64, 127
2, 10670, Note_on_c, 0, 63, 0
2, 10674, Note_on_c, 0, 58, 34
2, 10699, Note_on_c, 0, 67, 0
2, 10710, Note_on_c, 0, 79, 0
2, 10717, Note_on_c, 0, 60, 35
2, 10759, Note_on_c, 0, 70, 55
2, 10762, Note_on_c, 0, 67, 31
2, 10793, Note_on_c, 0, 67, 0
2, 10794, Note_on_c, 0, 58, 0
2, 10808, Note_on_c, 0, 75, 0
2, 10816, Note_on_c, 0, 70, 0
2, 10818, Note_on_c, 0, 60, 0
2, 10824, Note_on_c, 0, 63, 26
2, 10824, Note_on_c, 0, 69, 43
2, 10826, Note_on_c, 0, 65, 17
2, 10828, Control_c, 0, 64, 0
2, 10856, Control_c, 0, 64, 127
2, 10885, Note_on_c, 0, 65, 0
2, 10888, Note_on_c, 0, 69, 0
2, 10889, Note_on_c, 0, 60, 41
2, 10947, Note_on_c, 0, 69, 60
2, 10965, Note_on_c, 0, 53, 0
2, 10996, Note_on_c, 0, 63, 0
2, 11003, Note_on_c, 0, 69, 0
2, 11031, Note_on_c, 0, 60, 0
2, 11033, Note_on_c, 0, 81, 74
2, 11039, Note_on_c, 0, 79, 32
2, 11076, Note_on_c, 0, 79, 0
2, 11079, Note_on_c, 0, 81, 0
2, 11198, Note_on_c, 0, 69, 51
2, 11198, Note_on_c, 0, 46, 35
2, 11199, Note_on_c, 0, 57, 44
2, 11199, Note_on_c, 0, 61, 50
2, 11199, Note_on_c, 0, 64, 57
2, 11200, Control_c, 0, 64, 0
2, 11201, Note_on_c, 0, 53, 29
2, 11221, Control_c, 0, 64, 127
2, 11222, Note_on_c, 0, 57, 0
2, 11228, Note_on_c, 0, 61, 0
2, 11228, Note_on_c, 0, 69, 0
2, 11230, Note_on_c, 0, 64, 0
2, 11264, Note_on_c, 0, 70, 61
2, 11265, Note_on_c, 0, 60, 42
2, 11266, Control_c, 0, 64, 0
2, 11266, Note_on_c, 0, 65, 61
2, 11266, Note_on_c, 0, 55, 41
2, 11274, Note_on_c, 0, 53, 0
2, 11284, Control_c, 0, 64, 127
2, 11286, Note_on_c, 0, 70, 0
2, 11289, Note_on_c, 0, 65, 0
2, 11298, Note_on_c, 0, 55, 0
2, 11301, Note_on_c, 0, 60, 0
2, 11337, Note_on_c, 0, 65, 53
2, 11337, Note_on_c, 0, 61, 51
2, 11338, Note_on_c, 0, 56, 33
2, 11342, Control_c, 0, 64, 0
2, 11367, Control_c, 0, 64, 127
2, 11374, Note_on_c, 0, 56, 0
2, 11402, Note_on_c, 0, 56, 57
2, 11406, Note_on_c, 0, 46, 0
2, 11453, Note_on_c, 0, 56, 0
2, 11466, Note_on_c, 0, 55, 50
2, 11470, Note_on_c, 0, 39, 40
2, 11471, Control_c, 0, 64, 0
2, 11493, Control_c, 0, 64, 127
2, 11519, Note_on_c, 0, 46, 50
2, 11526, Note_on_c, 0, 39, 0
2, 11526, Note_on_c, 0, 55, 0
2, 11527, Note_on_c, 0, 61, 0
2, 11528, Note_on_c, 0, 65, 0
2, 11543, Note_on_c, 0, 46, 0
2, 11579, Note_on_c, 0, 67, 57
2, 11583, Note_on_c, 0, 55, 58
2, 11583, Control_c, 0, 64, 0
2, 11585, Note_on_c, 0, 44, 52
2, 11585, Note_on_c, 0, 60, 32
2, 11607, Control_c, 0, 64, 127
2, 11609, Note_on_c, 0, 67, 0
2, 11616, Note_on_c, 0, 55, 0
2, 11631, Note_on_c, 0, 60, 0
2, 11638, Note_on_c, 0, 68, 70
2, 11639, Note_on_c, 0, 51, 47
2, 11653, Note_on_c, 0, 51, 0
2, 11656, Note_on_c, 0, 68, 0
2, 11658, Note_on_c, 0, 44, 0
2, 11712, Control_c, 0, 64, 0
2, 11712, Note_on_c, 0, 63, 57
2, 11715, Note_on_c, 0, 37, 49
2, 11716, Note_on_c, 0, 56, 56
2, 11733, Control_c, 0, 64, 127
2, 11738, Note_on_c, 0, 56, 0
2, 11744, Note_on_c, 0, 63, 0
2, 11766, Note_on_c, 0, 44, 56
2, 11767, Note_on_c, 0, 37, 0
2, 11807, Note_on_c, 0, 44, 0
2, 11816, Note_on_c, 0, 75, 64
2, 11818, Note_on_c, 0, 53, 39
2, 11819, Note_on_c, 0, 68, 57
2, 11819, Note_on_c, 0, 65, 45
2, 11870, Note_on_c, 0, 53, 0
2, 11873, Note_on_c, 0, 56, 45
2, 11903, Note_on_c, 0, 65, 0
2, 11903, Note_on_c, 0, 68, 0
2, 11931, Note_on_c, 0, 68, 50
2, 11934, Note_on_c, 0, 75, 0
2, 11934, Note_on_c, 0, 65, 36
2, 11934, Note_on_c, 0, 60, 38
2, 11986, Note_on_c, 0, 63, 40
2, 11988, Note_on_c, 0, 68, 0
2, 12000, Note_on_c, 0, 65, 0
2, 12002, Note_on_c, 0, 63, 0
2, 12009, Note_on_c, 0, 60, 0
2, 12010, Note_on_c, 0, 56, 0
2, 12045, Control_c, 0, 64, 0
2, 12046, Note_on_c, 0, 72, 47
2, 12047, Note_on_c, 0, 65, 54
2, 12049, Note_on_c, 0, 60, 49
2, 12057, Control_c, 0, 64, 127
2, 12108, Note_on_c, 0, 49, 30
2, 12125, Note_on_c, 0, 49, 0
2, 12132, Note_on_c, 0, 65, 0
2, 12134, Note_on_c, 0, 72, 0
2, 12136, Note_on_c, 0, 60, 0
2, 12190, Note_on_c, 0, 60, 44
2, 12190, Note_on_c, 0, 67, 41
2, 12192, Note_on_c, 0, 64, 49
2, 12192, Control_c, 0, 64, 0
2, 12193, Note_on_c, 0, 53, 32
2, 12194, Note_on_c, 0, 57, 26
2, 12195, Note_on_c, 0, 55, 29
2, 12211, Control_c, 0, 64, 127
2, 12218, Note_on_c, 0, 60, 0
2, 12222, Note_on_c, 0, 64, 0
2, 12224, Note_on_c, 0, 67, 0
2, 12261, Note_on_c, 0, 79, 61
2, 12268, Note_on_c, 0, 57, 0
2, 12272, Note_on_c, 0, 55, 0
2, 12274, Note_on_c, 0, 53, 0
2, 12324, Note_on_c, 0, 67, 44
2, 12336, Note_on_c, 0, 67, 0
2, 12346, Note_on_c, 0, 79, 0
2, 12394, Note_on_c, 0, 31, 53
2, 12398, Note_on_c, 0, 91, 45
2, 12400, Note_on_c, 0, 31, 0
2, 12407, Note_on_c, 0, 91, 0
2, 12484, Note_on_c, 0, 91, 53
2, 12484, Note_on_c, 0, 87, 43
2, 12486, Note_on_c, 0, 79, 50
2, 12487, Control_c, 0, 64, 0
2, 12488, Note_on_c, 0, 53, 43
2, 12488, Note_on_c, 0, 83, 62
2, 12488, Note_on_c, 0, 59, 53
2, 12488, Note_on_c, 0, 63, 43
2, 12501, Control_c, 0, 64, 127
2, 12527, Note_on_c, 0, 91, 0
2, 12530, Note_on_c, 0, 83, 0
2, 12531, Note_on_c, 0, 87, 0
2, 12531, Note_on_c, 0, 63, 0
2, 12533, Note_on_c, 0, 59, 0
2, 12538, Note_on_c, 0, 79, 0
2, 12538, Note_on_c, 0, 53, 0
2, 12596, Note_on_c, 0, 67, 45
2, 12652, Note_on_c, 0, 67, 0
2, 12684, Note_on_c, 0, 43, 34
2, 12687, Note_on_c, 0, 67, 38
2, 12690, Note_on_c, 0, 59, 39
2, 12692, Note_on_c, 0, 53, 24
2, 12768, Note_on_c, 0, 67, 0
2, 12787, Note_on_c, 0, 67, 34
2, 12812, Note_on_c, 0, 53, 0
2, 12830, Note_on_c, 0, 59, 0
2, 12855, Note_on_c, 0, 67, 0
2, 12890, Note_on_c, 0, 67, 32
2, 12892, Note_on_c, 0, 59, 33
2, 12892, Note_on_c, 0, 62, 41
2, 12892, Control_c, 0, 64, 0
2, 12894, Note_on_c, 0, 64, 39
2, 12894, Note_on_c, 0, 52, 26
2, 12914, Control_c, 0, 64, 127
2, 12928, Note_on_c, 0, 59, 0
2, 12940, Note_on_c, 0, 64, 0
2, 12942, Note_on_c, 0, 43, 0
2, 12953, Note_on_c, 0, 62, 0
2, 12964, Note_on_c, 0, 67, 0
2, 13016, Note_on_c, 0, 43, 40
2, 13086, Note_on_c, 0, 72, 83
2, 13115, Note_on_c, 0, 72, 0
2, 13126, Note_on_c, 0, 74, 85
2, 13143, Note_on_c, 0, 43, 0
2, 13153, Note_on_c, 0, 52, 0
2, 13156, Note_on_c, 0, 74, 0
2, 13163, Note_on_c, 0, 76, 81
2, 13202, Note_on_c, 0, 76, 0
2, 13211, Note_on_c, 0, 77, 67
2, 13216, Note_on_c, 0, 76, 33
2, 13227, Note_on_c, 0, 76, 0
2, 13297, Note_on_c, 0, 76, 1
2, 13326, Note_on_c, 0, 77, 0
2, 13335, Note_on_c, 0, 76, 0
2, 13536, Note_on_c, 0, 77, 45
2, 13537, Note_on_c, 0, 69, 52
2, 13537, Note_on_c, 0, 65, 52
2, 13542, Note_on_c, 0, 55, 40
2, 13547, Control_c, 0, 64, 0
2, 13571, Control_c, 0, 64, 127
2, 13594, Note_on_c, 0, 65, 0
2, 13617, Note_on_c, 0, 65, 24
2, 13618, Note_on_c, 0, 55, 0
2, 13622, Note_on_c, 0, 55, 39
2, 13639, Note_on_c, 0, 69, 0
2, 13648, Note_on_c, 0, 65, 0
2, 13695, Note_on_c, 0, 65, 38
2, 13698, Note_on_c, 0, 69, 36
2, 13698, Note_on_c, 0, 62, 37
2, 13721, Note_on_c, 0, 65, 0
2, 13727, Note_on_c, 0, 69, 0
2, 13736, Note_on_c, 0, 77, 0
2, 13738, Note_on_c, 0, 62, 0
2, 13778, Note_on_c, 0, 79, 60
2, 13780, Note_on_c, 0, 71, 50
2, 13784, Control_c, 0, 64, 0
2, 13784, Note_on_c, 0, 74, 33
2, 13788, Note_on_c, 0, 65, 17
2, 13798, Control_c, 0, 64, 127
2, 13818, Note_on_c, 0, 71, 0
2, 13832, Note_on_c, 0, 65, 0
2, 13836, Note_on_c, 0, 74, 0
2, 13845, Note_on_c, 0, 79, 0
2, 13860, Note_on_c, 0, 79, 46
2, 13861, Control_c, 0, 64, 0
2, 13862, Note_on_c, 0, 76, 48
2, 13863, Note_on_c, 0, 71, 48
2, 13864, Note_on_c, 0, 64, 48
2, 13865, Note_on_c, 0, 74, 49
2, 13884, Control_c, 0, 64, 127
2, 13897, Note_on_c, 0, 55, 0
2, 13908, Note_on_c, 0, 77, 11
2, 13915, Note_on_c, 0, 79, 0
2, 13920, Note_on_c, 0, 74, 0
2, 13920, Note_on_c, 0, 77, 0
2, 13921, Note_on_c, 0, 55, 54
2, 13927, Note_on_c, 0, 76, 0
2, 13931, Note_on_c, 0, 71, 0
2, 13981, Note_on_c, 0, 71, 47
2, 13981, Note_on_c, 0, 67, 51
2, 13984, Note_on_c, 0, 55, 0
2, 14006, Note_on_c, 0, 64, 0
2, 14035, Note_on_c, 0, 67, 0
2, 14038, Note_on_c, 0, 76, 73
2, 14038, Note_on_c, 0, 55, 46
2, 14052, Note_on_c, 0, 71, 0
2, 14054, Note_on_c, 0, 55, 0
2, 14076, Note_on_c, 0, 76, 0
2, 14112, Note_on_c, 0, 76, 58
2, 14112, Note_on_c, 0, 70, 58
2, 14113, Note_on_c, 0, 64, 55
2, 14114, Note_on_c, 0, 48, 41
2, 14115, Control_c, 0, 64, 0
2, 14115, Note_on_c, 0, 58, 33
2, 14138, Control_c, 0, 64, 127
2, 14159, Note_on_c, 0, 48, 0
2, 14185, Note_on_c, 0, 48, 36
2, 14188, Note_on_c, 0, 58, 0
2, 14202, Note_on_c, 0, 74, 15
2, 14212, Note_on_c, 0, 76, 0
2, 14224, Note_on_c, 0, 70, 0
2, 14226, Note_on_c, 0, 64, 0
2, 14235, Note_on_c, 0, 74, 0
2, 14259, Note_on_c, 0, 64, 45
2, 14259, Note_on_c, 0, 70, 51
2, 14266, Note_on_c, 0, 58, 29
2, 14312, Note_on_c, 0, 58, 0
2, 14314, Note_on_c, 0, 64, 0
2, 14317, Note_on_c, 0, 70, 0
2, 14330, Note_on_c, 0, 74, 62
2, 14335, Note_on_c, 0, 58, 36
2, 14357, Note_on_c, 0, 74, 0
2, 14361, Note_on_c, 0, 58, 0
2, 14362, Note_on_c, 0, 48, 0
2, 14418, Note_on_c, 0, 72, 57
2, 14419, Note_on_c, 0, 48, 49
2, 14420, Note_on_c, 0, 65, 45
2, 14421, Note_on_c, 0, 60, 48
2, 14421, Control_c, 0, 64, 0
2, 14421, Note_on_c, 0, 69, 53
2, 14424, Note_on_c, 0, 57, 36
2, 14445, Control_c, 0, 64, 127
2, 14486, Note_on_c, 0, 48, 0
2, 14505, Note_on_c, 0, 69, 0
2, 14505, Note_on_c, 0, 48, 64
2, 14506, Note_on_c, 0, 72, 0
2, 14509, Note_on_c, 0, 60, 0
2, 14514, Note_on_c, 0, 65, 0
2, 14528, Note_on_c, 0, 57, 0
2, 14579, Note_on_c, 0, 65, 105
2, 14581, Note_on_c, 0, 57, 57
2, 14615, Note_on_c, 0, 65, 0
2, 14622, Note_on_c, 0, 67, 88
2, 14646, Note_on_c, 0, 48, 0
2, 14654, Note_on_c, 0, 67, 0
2, 14665, Note_on_c, 0, 69, 90
2, 14666, Note_on_c, 0, 48, 70
2, 14699, Note_on_c, 0, 69, 0
2, 14714, Note_on_c, 0, 71, 96
2, 14725, Note_on_c, 0, 48, 0
2, 14725, Note_on_c, 0, 57, 0
2, 14749, Note_on_c, 0, 71, 0
2, 14768, Control_c, 0, 64, 0
2, 14772, Note_on_c, 0, 71, 80
2, 14773, Note_on_c, 0, 67, 81
2, 14773, Note_on_c, 0, 62, 85
2, 14774, Note_on_c, 0, 47, 59
2, 14774, Note_on_c, 0, 55, 63
2, 14801, Control_c, 0, 64, 127
2, 14841, Note_on_c, 0, 55, 0
2, 14869, Note_on_c, 0, 67, 0
2, 14878, Note_on_c, 0, 62, 0
2, 14929, Note_on_c, 0, 71, 0
2, 14932, Note_on_c, 0, 67, 51
2, 14933, Note_on_c, 0, 62, 54
2, 14933, Note_on_c, 0, 55, 26
2, 14983, Note_on_c, 0, 67, 0
2, 14991, Note_on_c, 0, 62, 0
2, 14997, Note_on_c, 0, 47, 0
2, 15006, Note_on_c, 0, 55, 0
2, 15017, Note_on_c, 0, 72, 70
2, 15018, Note_on_c, 0, 55, 35
2, 15020, Note_on_c, 0, 62, 74
2, 15024, Note_on_c, 0, 67, 32
2, 15057, Note_on_c, 0, 55, 0
2, 15059, Note_on_c, 0, 72, 0
2, 15062, Note_on_c, 0, 62, 0
2, 15065, Note_on_c, 0, 67, 0
2, 15123, Note_on_c, 0, 67, 53
2, 15124, Note_on_c, 0, 60, 62
2, 15124, Control_c, 0, 64, 0
2, 15125, Note_on_c, 0, 64, 46
2, 15126, Note_on_c, 0, 46, 53
2, 15147, Control_c, 0, 64, 127
2, 15150, Note_on_c, 0, 60, 0
2, 15157, Note_on_c, 0, 64, 0
2, 15161, Note_on_c, 0, 67, 0
2, 15208, Note_on_c, 0, 79, 54
2, 15209, Note_on_c, 0, 72, 54
2, 15214, Note_on_c, 0, 56, 33
2, 15219, Note_on_c, 0, 46, 0
2, 15229, Note_on_c, 0, 56, 0
2, 15255, Note_on_c, 0, 72, 0
2, 15270, Note_on_c, 0, 79, 0
2, 15294, Note_on_c, 0, 76, 40
2, 15295, Note_on_c, 0, 67, 33
2, 15298, Note_on_c, 0, 62, 26
2, 15298, Note_on_c, 0, 72, 37
2, 15311, Note_on_c, 0, 67, 0
2, 15315, Note_on_c, 0, 72, 0
2, 15324, Note_on_c, 0, 76, 0
2, 15361, Note_on_c, 0, 62, 0
2, 15399, Note_on_c, 0, 91, 44
2, 15401, Note_on_c, 0, 56, 29
2, 15402, Note_on_c, 0, 62, 25
2, 15402, Note_on_c, 0, 88, 50
2, 15402, Note_on_c, 0, 67, 28
2, 15402, Note_on_c, 0, 79, 29
2, 15403, Note_on_c, 0, 84, 46
2, 15449, Note_on_c, 0, 67, 0
2, 15459, Note_on_c, 0, 62, 0
2, 15467, Note_on_c, 0, 84, 0
2, 15469, Note_on_c, 0, 88, 0
2, 15474, Note_on_c, 0, 79, 0
2, 15481, Note_on_c, 0, 91, 0
2, 15487, Note_on_c, 0, 56, 0
2, 15573, Note_on_c, 0, 91, 36
2, 15573, Note_on_c, 0, 66, 33
2, 15573, Control_c, 0, 64, 0
2, 15575, Note_on_c, 0, 79, 25
2, 15576, Note_on_c, 0, 55, 33
2, 15577, Note_on_c, 0, 61, 39
2, 15597, Control_c, 0, 64, 127
2, 15610, Note_on_c, 0, 91, 0
2, 15627, Note_on_c, 0, 61, 0
2, 15630, Note_on_c, 0, 79, 0
2, 15665, Note_on_c, 0, 61, 37
2, 15666, Note_on_c, 0, 66, 0
2, 15783, Note_on_c, 0, 73, 40
2, 15785, Note_on_c, 0, 67, 18
2, 15786, Note_on_c, 0, 70, 33
2, 15788, Note_on_c, 0, 64, 24
2, 15947, Note_on_c, 0, 70, 0
2, 15947, Note_on_c, 0, 67, 0
2, 15947, Note_on_c, 0, 73, 0
2, 16026, Note_on_c, 0, 64, 0
2, 16038, Note_on_c, 0, 61, 0
2, 16040, Note_on_c, 0, 79, 73
2, 16043, Note_on_c, 0, 55, 0
2, 16077, Note_on_c, 0, 79, 0
2, 16107, Note_on_c, 0, 77, 60
2, 16112, Note_on_c, 0, 50, 33
2, 16112, Control_c, 0, 64, 0
2, 16136, Control_c, 0, 64, 127
2, 16165, Note_on_c, 0, 57, 32
2, 16171, Note_on_c, 0, 77, 0
2, 16229, Note_on_c, 0, 65, 47
2, 16236, Note_on_c, 0, 60, 34
2, 16279, Note_on_c, 0, 67, 71
2, 16280, Note_on_c, 0, 65, 0
2, 16312, Note_on_c, 0, 67, 0
2, 16321, Note_on_c, 0, 69, 80
2, 16347, Note_on_c, 0, 60, 0
2, 16353, Note_on_c, 0, 57, 0
2, 16357, Note_on_c, 0, 69, 0
2, 16366, Note_on_c, 0, 50, 0
2, 16367, Note_on_c, 0, 71, 73
2, 16384, Note_on_c, 0, 71, 0
2, 16473, Note_on_c, 0, 63, 45
2, 16473, Note_on_c, 0, 71, 31
2, 16474, Note_on_c, 0, 59, 38
2, 16481, Note_on_c, 0, 43, 36
2, 16481, Control_c, 0, 64, 0
2, 16482, Note_on_c, 0, 53, 24
2, 16485, Note_on_c, 0, 63, 0
2, 16486, Note_on_c, 0, 64, 50
2, 16525, Note_on_c, 0, 64, 0
2, 16541, Note_on_c, 0, 63, 50
2, 16549, Control_c, 0, 64, 127
2, 16602, Note_on_c, 0, 63, 0
2, 16618, Note_on_c, 0, 62, 47
2, 16619, Note_on_c, 0, 71, 0
2, 16625, Control_c, 0, 64, 0
2, 16644, Control_c, 0, 64, 127
2, 16707, Note_on_c, 0, 43, 0
2, 16710, Note_on_c, 0, 69, 49
2, 16733, Note_on_c, 0, 59, 0
2, 16738, Note_on_c, 0, 62, 0
2, 16753, Note_on_c, 0, 69, 0
2, 16756, Note_on_c, 0, 53, 0
2, 16830, Control_c, 0, 64, 0
2, 16834, Note_on_c, 0, 71, 49
2, 16835, Note_on_c, 0, 63, 43
2, 16836, Note_on_c, 0, 48, 38
2, 16836, Note_on_c, 0, 60, 41
2, 16837, Note_on_c, 0, 66, 43
2, 16840, Note_on_c, 0, 55, 33
2, 16848, Control_c, 0, 64, 127
2, 16858, Note_on_c, 0, 60, 0
2, 16863, Note_on_c, 0, 71, 0
2, 16865, Note_on_c, 0, 66, 0
2, 16874, Note_on_c, 0, 63, 0
2, 16886, Note_on_c, 0, 55, 0
2, 16889, Note_on_c, 0, 72, 64
2, 16891, Note_on_c, 0, 64, 36
2, 16893, Note_on_c, 0, 62, 38
2, 16893, Note_on_c, 0, 57, 33
2, 16894, Note_on_c, 0, 67, 37
2, 16901, Note_on_c, 0, 67, 0
2, 16905, Note_on_c, 0, 72, 0
2, 16908, Note_on_c, 0, 64, 0
2, 16914, Note_on_c, 0, 62, 0
2, 16935, Note_on_c, 0, 57, 0
2, 16955, Note_on_c, 0, 67, 50
2, 16958, Note_on_c, 0, 63, 46
2, 16960, Note_on_c, 0, 58, 40
2, 16961, Note_on_c, 0, 53, 37
2, 16963, Control_c, 0, 64, 0
2, 16997, Control_c, 0, 64, 127
2, 16998, Note_on_c, 0, 53, 0
2, 17000, Note_on_c, 0, 48, 0
2, 17029, Note_on_c, 0, 41, 47
2, 17093, Note_on_c, 0, 58, 0
2, 17111, Note_on_c, 0, 63, 0
2, 17175, Note_on_c, 0, 41, 0
2, 17185, Note_on_c, 0, 41, 41
2, 17265, Note_on_c, 0, 62, 42
2, 17267, Note_on_c, 0, 57, 39
2, 17267, Note_on_c, 0, 51, 33
2, 17270, Control_c, 0, 64, 0
2, 17289, Control_c, 0, 64, 127
2, 17315, Note_on_c, 0, 62, 0
2, 17338, Note_on_c, 0, 61, 50
2, 17372, Note_on_c, 0, 61, 0
2, 17377, Note_on_c, 0, 57, 0
2, 17382, Note_on_c, 0, 41, 0
2, 17393, Note_on_c, 0, 60, 59
2, 17395, Note_on_c, 0, 51, 0
2, 17415, Note_on_c, 0, 60, 0
2, 17418, Note_on_c, 0, 67, 0
2, 17451, Note_on_c, 0, 69, 61
2, 17455, Note_on_c, 0, 46, 36
2, 17456, Note_on_c, 0, 62, 50
2, 17457, Note_on_c, 0, 65, 36
2, 17457, Control_c, 0, 64, 0
2, 17458, Note_on_c, 0, 57, 48
2, 17482, Control_c, 0, 64, 127
2, 17493, Note_on_c, 0, 57, 0
2, 17494, Note_on_c, 0, 69, 0
2, 17505, Note_on_c, 0, 65, 0
2, 17505, Note_on_c, 0, 62, 0
2, 17515, Note_on_c, 0, 70, 69
2, 17519, Note_on_c, 0, 62, 35
2, 17519, Note_on_c, 0, 53, 27
2, 17520, Control_c, 0, 64, 0
2, 17520, Note_on_c, 0, 65, 35
2, 17531, Control_c, 0, 64, 127
2, 17545, Note_on_c, 0, 62, 0
2, 17549, Note_on_c, 0, 65, 0
2, 17560, Note_on_c, 0, 70, 0
2, 17563, Note_on_c, 0, 53, 0
2, 17584, Note_on_c, 0, 65, 58
2, 17584, Note_on_c, 0, 62, 56
2, 17584, Note_on_c, 0, 57, 39
2, 17586, Control_c, 0, 64, 0
2, 17604, Control_c, 0, 64, 127
2, 17633, Note_on_c, 0, 46, 0
2, 17666, Note_on_c, 0, 57, 0
2, 17667, Note_on_c, 0, 46, 42
2, 17708, Note_on_c, 0, 62, 0
2, 17714, Note_on_c, 0, 65, 0
2, 17724, Note_on_c, 0, 46, 0
2, 17766, Control_c, 0, 64, 0
2, 17766, Note_on_c, 0, 68, 37
2, 17768, Note_on_c, 0, 61, 46
2, 17771, Note_on_c, 0, 45, 33
2, 17779, Note_on_c, 0, 64, 17
2, 17785, Control_c, 0, 64, 127
2, 17803, Note_on_c, 0, 68, 0
2, 17806, Note_on_c, 0, 64, 0
2, 17811, Note_on_c, 0, 61, 0
2, 17816, Note_on_c, 0, 69, 64
2, 17831, Note_on_c, 0, 69, 0
2, 17878, Note_on_c, 0, 64, 47
2, 17882, Control_c, 0, 64, 0
2, 17883, Note_on_c, 0, 61, 36
2, 17883, Note_on_c, 0, 58, 31
2, 17884, Note_on_c, 0, 55, 29
2, 17891, Control_c, 0, 64, 127
2, 17905, Note_on_c, 0, 55, 0
2, 17920, Note_on_c, 0, 58, 0
2, 17925, Note_on_c, 0, 61, 0
2, 17927, Note_on_c, 0, 45, 0
2, 17928, Note_on_c, 0, 64, 0
2, 17932, Note_on_c, 0, 49, 50
2, 17989, Note_on_c, 0, 49, 0
2, 17989, Control_c, 0, 64, 0
2, 17990, Note_on_c, 0, 70, 48
2, 17990, Note_on_c, 0, 76, 44
2, 17992, Note_on_c, 0, 73, 50
2, 17994, Note_on_c, 0, 55, 44
2, 17998, Control_c, 0, 64, 127
2, 18052, Note_on_c, 0, 55, 0
2, 18055, Note_on_c, 0, 61, 56
2, 18086, Note_on_c, 0, 76, 0
2, 18088, Note_on_c, 0, 70, 0
2, 18094, Note_on_c, 0, 73, 0
2, 18133, Note_on_c, 0, 79, 55
2, 18133, Note_on_c, 0, 73, 53
2, 18133, Note_on_c, 0, 70, 46
2, 18136, Note_on_c, 0, 64, 31
2, 18150, Note_on_c, 0, 61, 0
2, 18243, Note_on_c, 0, 79, 0
2, 18251, Note_on_c, 0, 77, 57
2, 18252, Note_on_c, 0, 64, 0
2, 18252, Note_on_c, 0, 62, 31
2, 18296, Note_on_c, 0, 70, 0
2, 18299, Note_on_c, 0, 77, 0
2, 18301, Note_on_c, 0, 70, 19
2, 18303, Note_on_c, 0, 76, 58
2, 18305, Note_on_c, 0, 62, 0
2, 18306, Note_on_c, 0, 61, 50
2, 18352, Note_on_c, 0, 76, 0
2, 18353, Note_on_c, 0, 79, 64
2, 18354, Note_on_c, 0, 61, 0
2, 18357, Note_on_c, 0, 64, 38
2, 18384, Note_on_c, 0, 79, 0
2, 18387, Note_on_c, 0, 70, 0
2, 18388, Note_on_c, 0, 64, 0
2, 18421, Note_on_c, 0, 73, 0
2, 18463, Note_on_c, 0, 77, 63
2, 18468, Note_on_c, 0, 50, 44
2, 18469, Note_on_c, 0, 65, 55
2, 18469, Note_on_c, 0, 72, 51
2, 18471, Control_c, 0, 64, 0
2, 18471, Note_on_c, 0, 60, 29
2, 18492, Control_c, 0, 64, 127
2, 18503, Note_on_c, 0, 77, 0
2, 18514, Note_on_c, 0, 65, 0
2, 18523, Note_on_c, 0, 72, 0
2, 18529, Note_on_c, 0, 79, 67
2, 18530, Note_on_c, 0, 60, 0
2, 18532, Note_on_c, 0, 67, 60
2, 18532, Note_on_c, 0, 57, 41
2, 18557, Note_on_c, 0, 79, 0
2, 18562, Note_on_c, 0, 67, 0
2, 18590, Note_on_c, 0, 81, 77
2, 18591, Note_on_c, 0, 69, 70
2, 18592, Note_on_c, 0, 60, 61
2, 18618, Note_on_c, 0, 81, 0
2, 18622, Note_on_c, 0, 50, 0
2, 18623, Note_on_c, 0, 69, 0
2, 18652, Note_on_c, 0, 83, 72
2, 18653, Note_on_c, 0, 71, 60
2, 18653, Note_on_c, 0, 50, 58
2, 18674, Note_on_c, 0, 71, 0
2, 18675, Note_on_c, 0, 50, 0
2, 18676, Note_on_c, 0, 83, 0
2, 18681, Note_on_c, 0, 57, 0
2, 18692, Note_on_c, 0, 60, 0
2, 18730, Note_on_c, 0, 84, 80
2, 18730, Note_on_c, 0, 76, 72
2, 18730, Control_c, 0, 64, 0
2, 18731, Note_on_c, 0, 79, 66
2, 18732, Note_on_c, 0, 72, 64
2, 18733, Note_on_c, 0, 52, 69
2, 18765, Control_c, 0, 64, 127
2, 18810, Note_on_c, 0, 60, 60
2, 18852, Note_on_c, 0, 76, 0
2, 18856, Note_on_c, 0, 72, 0
2, 18860, Note_on_c, 0, 79, 0
2, 18895, Note_on_c, 0, 79, 32
2, 18896, Note_on_c, 0, 76, 42
2, 18897, Note_on_c, 0, 72, 44
2, 18902, Note_on_c, 0, 64, 32
2, 18923, Note_on_c, 0, 84, 0
2, 18929, Note_on_c, 0, 79, 0
2, 18931, Note_on_c, 0, 76, 0
2, 18932, Note_on_c, 0, 72, 0
2, 18937, Note_on_c, 0, 60, 0
2, 18959, Note_on_c, 0, 64, 0
2, 18992, Note_on_c, 0, 76, 41
2, 18995, Note_on_c, 0, 72, 37
2, 18996, Note_on_c, 0, 60, 39
2, 18997, Note_on_c, 0, 67, 24
2, 19050, Note_on_c, 0, 52, 0
2, 19056, Note_on_c, 0, 67, 0
2, 19062, Note_on_c, 0, 72, 0
2, 19068, Note_on_c, 0, 60, 0
2, 19078, Note_on_c, 0, 76, 0
2, 19265, Control_c, 0, 64, 0
2, 19266, Note_on_c, 0, 53, 68
2, 19267, Note_on_c, 0, 81, 83
2, 19267, Note_on_c, 0, 76, 81
2, 19267, Note_on_c, 0, 69, 84
2, 19268, Note_on_c, 0, 60, 71
2, 19282, Control_c, 0, 64, 127
2, 19306, Note_on_c, 0, 81, 0
2, 19317, Note_on_c, 0, 69, 0
2, 19323, Note_on_c, 0, 76, 0
2, 19332, Note_on_c, 0, 83, 89
2, 19340, Note_on_c, 0, 53, 0
2, 19353, Note_on_c, 0, 83, 0
2, 19364, Note_on_c, 0, 60, 0
2, 19401, Note_on_c, 0, 63, 50
2, 19403, Note_on_c, 0, 84, 73
2, 19403, Note_on_c, 0, 78, 62
2, 19403, Note_on_c, 0, 54, 55
2, 19404, Note_on_c, 0, 81, 65
2, 19405, Note_on_c, 0, 72, 64
2, 19406, Control_c, 0, 64, 0
2, 19406, Note_on_c, 0, 60, 49
2, 19432, Control_c, 0, 64, 127
2, 19442, Note_on_c, 0, 84, 0
2, 19449, Note_on_c, 0, 72, 0
2, 19459, Note_on_c, 0, 81, 0
2, 19460, Note_on_c, 0, 78, 0
2, 19486, Note_on_c, 0, 78, 38
2, 19486, Note_on_c, 0, 86, 63
2, 19488, Note_on_c, 0, 74, 54
2, 19489, Note_on_c, 0, 81, 58
2, 19494, Note_on_c, 0, 60, 0
2, 19507, Note_on_c, 0, 54, 0
2, 19509, Note_on_c, 0, 63, 0
2, 19511, Note_on_c, 0, 86, 0
2, 19521, Note_on_c, 0, 81, 0
2, 19523, Note_on_c, 0, 74, 0
2, 19526, Note_on_c, 0, 78, 0
2, 19702, Control_c, 0, 64, 0
2, 19702, Note_on_c, 0, 81, 49
2, 19703, Note_on_c, 0, 72, 37
2, 19703, Note_on_c, 0, 55, 39
2, 19704, Note_on_c, 0, 77, 44
2, 19706, Note_on_c, 0, 65, 38
2, 19721, Control_c, 0, 64, 127
2, 19742, Note_on_c, 0, 65, 0
2, 19751, Note_on_c, 0, 55, 0
2, 19819, Note_on_c, 0, 55, 46
2, 19820, Note_on_c, 0, 43, 35
2, 19832, Note_on_c, 0, 55, 0
2, 19834, Note_on_c, 0, 43, 0
2, 19949, Note_on_c, 0, 31, 33
2, 19950, Note_on_c, 0, 43, 29
2, 20017, Note_on_c, 0, 77, 0
2, 20019, Note_on_c, 0, 81, 0
2, 20022, Note_on_c, 0, 72, 0
2, 20040, Note_on_c, 0, 43, 0
2, 20122, Note_on_c, 0, 68, 31
2, 20122, Note_on_c, 0, 71, 38
2, 20124, Note_on_c, 0, 64, 51
2, 20125, Note_on_c, 0, 59, 40
2, 20127, Note_on_c, 0, 43, 27
2, 20204, Note_on_c, 0, 31, 0
2, 20207, Note_on_c, 0, 43, 0
2, 20272, Note_on_c, 0, 59, 0
2, 20338, Note_on_c, 0, 64, 0
2, 20346, Note_on_c, 0, 68, 0
2, 20355, Note_on_c, 0, 71, 0
2, 20699, Note_on_c, 0, 67, 24
2, 20699, Note_on_c, 0, 72, 44
2, 20701, Note_on_c, 0, 62, 33
2, 20702, Control_c, 0, 64, 0
2, 20703, Note_on_c, 0, 64, 30
2, 20718, Control_c, 0, 64, 127
2, 20739, Note_on_c, 0, 67, 0
2, 20793, Note_on_c, 0, 55, 32
2, 20801, Note_on_c, 0, 72, 0
2, 20844, Note_on_c, 0, 74, 65
2, 20878, Note_on_c, 0, 74, 0
2, 20889, Note_on_c, 0, 76, 76
2, 20922, Note_on_c, 0, 76, 0
2, 20929, Note_on_c, 0, 62, 0
2, 20931, Note_on_c, 0, 64, 0
2, 20934, Note_on_c, 0, 77, 66
2, 20974, Note_on_c, 0, 77, 0
2, 20982, Control_c, 0, 64, 0
2, 20983, Note_on_c, 0, 74, 45
2, 20984, Note_on_c, 0, 65, 32
2, 20985, Note_on_c, 0, 60, 31
2, 20988, Note_on_c, 0, 57, 25
2, 21005, Control_c, 0, 64, 127
2, 21031, Note_on_c, 0, 55, 0
2, 21053, Note_on_c, 0, 74, 0
2, 21079, Note_on_c, 0, 55, 32
2, 21165, Note_on_c, 0, 55, 0
2, 21196, Note_on_c, 0, 88, 66
2, 21199, Note_on_c, 0, 76, 42
2, 21216, Note_on_c, 0, 76, 0
2, 21221, Note_on_c, 0, 60, 0
2, 21227, Note_on_c, 0, 57, 0
2, 21227, Note_on_c, 0, 65, 0
2, 21227, Note_on_c, 0, 88, 0
2, 21276, Note_on_c, 0, 88, 62
2, 21276, Control_c, 0, 64, 0
2, 21276, Note_on_c, 0, 67, 42
2, 21277, Note_on_c, 0, 76, 48
2, 21280, Note_on_c, 0, 64, 34
2, 21282, Note_on_c, 0, 62, 27
2, 21295, Control_c, 0, 64, 127
2, 21314, Note_on_c, 0, 67, 0
2, 21336, Note_on_c, 0, 88, 0
2, 21341, Note_on_c, 0, 76, 0
2, 21365, Note_on_c, 0, 55, 46
2, 21507, Note_on_c, 0, 62, 0
2, 21512, Note_on_c, 0, 64, 0
2, 21573, Note_on_c, 0, 75, 46
2, 21574, Note_on_c, 0, 79, 50
2, 21575, Note_on_c, 0, 65, 36
2, 21575, Note_on_c, 0, 57, 31
2, 21577, Control_c, 0, 64, 0
2, 21577, Note_on_c, 0, 60, 36
2, 21578, Note_on_c, 0, 67, 24
2, 21583, Note_on_c, 0, 75, 0
2, 21584, Note_on_c, 0, 76, 54
2, 21604, Note_on_c, 0, 55, 0
2, 21609, Control_c, 0, 64, 127
2, 21674, Note_on_c, 0, 55, 45
2, 21787, Note_on_c, 0, 65, 0
2, 21791, Note_on_c, 0, 60, 0
2, 21793, Note_on_c, 0, 57, 0
2, 21810, Note_on_c, 0, 67, 0
2, 21826, Note_on_c, 0, 79, 0
2, 21827, Note_on_c, 0, 76, 0
2, 21891, Control_c, 0, 64, 0
2, 21894, Note_on_c, 0, 67, 41
2, 21895, Note_on_c, 0, 64, 32
2, 21896, Note_on_c, 0, 62, 30
2, 21899, Control_c, 0, 64, 127
2, 21945, Note_on_c, 0, 76, 83
2, 21953, Note_on_c, 0, 67, 0
2, 21968, Note_on_c, 0, 55, 0
2, 21968, Note_on_c, 0, 76, 0
2, 21989, Note_on_c, 0, 77, 91
2, 22025, Note_on_c, 0, 77, 0
2, 22030, Control_c, 0, 64, 0
2, 22037, Note_on_c, 0, 79, 78
2, 22037, Control_c, 0, 64, 127
2, 22038, Note_on_c, 0, 55, 49
2, 22061, Note_on_c, 0, 79, 0
2, 22078, Note_on_c, 0, 62, 0
2, 22078, Note_on_c, 0, 64, 0
2, 22078, Note_on_c, 0, 81, 74
2, 22096, Note_on_c, 0, 81, 0
2, 22112, Note_on_c, 0, 55, 0
2, 22190, Note_on_c, 0, 77, 50
2, 22191, Note_on_c, 0, 74, 41
2, 22191, Note_on_c, 0, 70, 44
2, 22192, Note_on_c, 0, 54, 44
2, 22193, Note_on_c, 0, 65, 47
2, 22193, Control_c, 0, 64, 0
2, 22195, Note_on_c, 0, 60, 31
2, 22215, Control_c, 0, 64, 127
2, 22272, Note_on_c, 0, 60, 0
2, 22275, Note_on_c, 0, 74, 0
2, 22281, Note_on_c, 0, 77, 0
2, 22282, Note_on_c, 0, 65, 0
2, 22289, Note_on_c, 0, 54, 0
2, 22293, Note_on_c, 0, 70, 0
2, 22352, Note_on_c, 0, 68, 40
2, 22352, Note_on_c, 0, 64, 44
2, 22352, Note_on_c, 0, 71, 39
2, 22354, Note_on_c, 0, 53, 35
2, 22355, Note_on_c, 0, 59, 30
2, 22356, Control_c, 0, 64, 0
2, 22380, Control_c, 0, 64, 127
2, 22435, Note_on_c, 0, 59, 0
2, 22440, Note_on_c, 0, 71, 0
2, 22442, Note_on_c, 0, 64, 0
2, 22447, Note_on_c, 0, 53, 0
2, 22448, Note_on_c, 0, 68, 0
2, 22473, Note_on_c, 0, 79, 58
2, 22474, Note_on_c, 0, 77, 46
2, 22479, Note_on_c, 0, 77, 0
2, 22491, Note_on_c, 0, 79, 0
2, 22514, Note_on_c, 0, 79, 52
2, 22514, Note_on_c, 0, 52, 54
2, 22514, Control_c, 0, 64, 0
2, 22515, Note_on_c, 0, 74, 53
2, 22515, Note_on_c, 0, 67, 41
2, 22517, Note_on_c, 0, 62, 30
2, 22518, Note_on_c, 0, 59, 29
2, 22542, Control_c, 0, 64, 127
2, 22561, Note_on_c, 0, 59, 0
2, 22592, Note_on_c, 0, 62, 0
2, 22611, Note_on_c, 0, 67, 0
2, 22627, Note_on_c, 0, 74, 0
2, 22649, Note_on_c, 0, 79, 0
2, 22691, Note_on_c, 0, 62, 25
2, 22694, Note_on_c, 0, 59, 31
2, 22702, Note_on_c, 0, 62, 0
2, 22704, Note_on_c, 0, 59, 0
2, 22729, Note_on_c, 0, 52, 0
2, 22739, Note_on_c, 0, 62, 55
2, 22756, Note_on_c, 0, 62, 0
2, 22780, Note_on_c, 0, 67, 62
2, 22805, Note_on_c, 0, 67, 0
2, 22837, Control_c, 0, 64, 0
2, 22838, Note_on_c, 0, 69, 45
2, 22839, Note_on_c, 0, 58, 33
2, 22840, Note_on_c, 0, 62, 44
2, 22840, Note_on_c, 0, 48, 38
2, 22841, Note_on_c, 0, 66, 45
2, 22843, Note_on_c, 0, 57, 24
2, 22855, Control_c, 0, 64, 127
2, 22863, Note_on_c, 0, 69, 0
2, 22865, Note_on_c, 0, 62, 0
2, 22866, Note_on_c, 0, 58, 0
2, 22871, Note_on_c, 0, 66, 0
2, 22894, Note_on_c, 0, 72, 53
2, 22896, Note_on_c, 0, 48, 0
2, 22907, Note_on_c, 0, 57, 0
2, 22913, Note_on_c, 0, 72, 0
2, 22949, Note_on_c, 0, 73, 62
2, 22951, Note_on_c, 0, 64, 58
2, 22953, Note_on_c, 0, 68, 48
2, 22955, Note_on_c, 0, 63, 37
2, 22955, Note_on_c, 0, 70, 39
2, 22956, Control_c, 0, 64, 0
2, 22973, Control_c, 0, 64, 127
2, 23004, Note_on_c, 0, 73, 0
2, 23006, Note_on_c, 0, 63, 0
2, 23027, Note_on_c, 0, 75, 64
2, 23060, Note_on_c, 0, 68, 0
2, 23062, Note_on_c, 0, 64, 0
2, 23063, Note_on_c, 0, 75, 0
2, 23066, Note_on_c, 0, 70, 0
2, 23088, Note_on_c, 0, 73, 57
2, 23108, Note_on_c, 0, 73, 0
2, 23114, Note_on_c, 0, 68, 49
2, 23131, Note_on_c, 0, 68, 0
2, 23145, Note_on_c, 0, 48, 22
2, 23149, Note_on_c, 0, 41, 30
2, 23150, Control_c, 0, 64, 0
2, 23150, Note_on_c, 0, 72, 56
2, 23180, Control_c, 0, 64, 127
2, 23191, Note_on_c, 0, 72, 0
2, 23196, Note_on_c, 0, 69, 30
2, 23197, Note_on_c, 0, 60, 55
2, 23216, Note_on_c, 0, 69, 0
2, 23217, Note_on_c, 0, 41, 0
2, 23223, Note_on_c, 0, 48, 0
2, 23232, Note_on_c, 0, 60, 0
2, 23305, Note_on_c, 0, 65, 37
2, 23307, Note_on_c, 0, 64, 28
2, 23309, Note_on_c, 0, 60, 33
2, 23311, Note_on_c, 0, 53, 25
2, 23315, Note_on_c, 0, 57, 20
2, 23335, Note_on_c, 0, 65, 0
2, 23350, Note_on_c, 0, 67, 81
2, 23376, Note_on_c, 0, 64, 0
2, 23378, Note_on_c, 0, 67, 0
2, 23386, Note_on_c, 0, 69, 77
2, 23394, Note_on_c, 0, 60, 0
2, 23396, Note_on_c, 0, 57, 0
2, 23406, Note_on_c, 0, 53, 0
2, 23411, Note_on_c, 0, 69, 0
2, 23422, Note_on_c, 0, 71, 54
2, 23439, Note_on_c, 0, 71, 0
2, 23464, Note_on_c, 0, 63, 49
2, 23465, Note_on_c, 0, 58, 44
2, 23466, Note_on_c, 0, 67, 44
2, 23467, Control_c, 0, 64, 0
2, 23472, Note_on_c, 0, 55, 26
2, 23507, Note_on_c, 0, 55, 0
2, 23511, Control_c, 0, 64, 127
2, 23518, Note_on_c, 0, 48, 53
2, 23554, Note_on_c, 0, 67, 0
2, 23559, Note_on_c, 0, 58, 0
2, 23566, Note_on_c, 0, 48, 0
2, 23571, Note_on_c, 0, 63, 0
2, 23575, Note_on_c, 0, 41, 53
2, 23581, Control_c, 0, 64, 0
2, 23594, Control_c, 0, 64, 127
2, 23661, Control_c, 0, 64, 0
2, 23664, Note_on_c, 0, 57, 46
2, 23664, Note_on_c, 0, 69, 50
2, 23665, Note_on_c, 0, 62, 52
2, 23666, Note_on_c, 0, 66, 37
2, 23666, Note_on_c, 0, 51, 36
2, 23675, Control_c, 0, 64, 127
2, 23681, Note_on_c, 0, 57, 0
2, 23686, Note_on_c, 0, 62, 0
2, 23688, Note_on_c, 0, 69, 0
2, 23690, Note_on_c, 0, 66, 0
2, 23716, Note_on_c, 0, 41, 0
2, 23717, Note_on_c, 0, 74, 62
2, 23726, Note_on_c, 0, 51, 0
2, 23732, Note_on_c, 0, 74, 0
2, 23772, Note_on_c, 0, 62, 32
2, 23772, Note_on_c, 0, 69, 49
2, 23774, Note_on_c, 0, 46, 46
2, 23774, Note_on_c, 0, 65, 44
2, 23775, Control_c, 0, 64, 0
2, 23777, Note_on_c, 0, 57, 39
2, 23807, Control_c, 0, 64, 127
2, 23830, Note_on_c, 0, 46, 0
2, 23842, Note_on_c, 0, 57, 0
2, 23847, Note_on_c, 0, 62, 0
2, 23887, Note_on_c, 0, 65, 0
2, 23922, Note_on_c, 0, 69, 0
2, 23925, Note_on_c, 0, 65, 32
2, 23926, Note_on_c, 0, 62, 37
2, 23927, Note_on_c, 0, 60, 36
2, 24020, Note_on_c, 0, 65, 0
2, 24025, Note_on_c, 0, 60, 0
2, 24034, Note_on_c, 0, 70, 47
2, 24036, Note_on_c, 0, 62, 0
2, 24073, Note_on_c, 0, 70, 0
2, 24079, Note_on_c, 0, 55, 46
2, 24081, Note_on_c, 0, 65, 40
2, 24082, Note_on_c, 0, 61, 25
2, 24088, Control_c, 0, 64, 0
2, 24141, Note_on_c, 0, 65, 0
2, 24142, Note_on_c, 0, 67, 35
2, 24159, Note_on_c, 0, 68, 63
2, 24161, Note_on_c, 0, 67, 0
2, 24172, Note_on_c, 0, 68, 0
2, 24176, Note_on_c, 0, 70, 60
2, 24180, Note_on_c, 0, 55, 0
2, 24181, Note_on_c, 0, 70, 0
2, 24194, Note_on_c, 0, 72, 53
2, 24205, Note_on_c, 0, 72, 0
2, 24214, Note_on_c, 0, 73, 37
2, 24220, Note_on_c, 0, 61, 0
2, 24222, Note_on_c, 0, 73, 0
2, 24232, Note_on_c, 0, 75, 48
2, 24244, Note_on_c, 0, 75, 0
2, 24254, Note_on_c, 0, 76, 52
2, 24255, Note_on_c, 0, 66, 37
2, 24256, Note_on_c, 0, 61, 36
2, 24262, Note_on_c, 0, 66, 0
2, 24275, Note_on_c, 0, 61, 0
2, 24319, Note_on_c, 0, 76, 0
2, 24331, Note_on_c, 0, 79, 48
2, 24349, Note_on_c, 0, 79, 0
2, 24349, Note_on_c, 0, 80, 48
2, 24369, Note_on_c, 0, 80, 0
2, 24369, Note_on_c, 0, 81, 37
2, 24384, Note_on_c, 0, 81, 0
2, 24384, Note_on_c, 0, 82, 54
2, 24395, Control_c, 0, 64, 127
2, 24397, Note_on_c, 0, 82, 0
2, 24400, Note_on_c, 0, 83, 51
2, 24409, Note_on_c, 0, 83, 0
2, 24414, Note_on_c, 0, 84, 66
2, 24416, Control_c, 0, 64, 0
2, 24419, Note_on_c, 0, 44, 28
2, 24419, Note_on_c, 0, 51, 31
2, 24432, Note_on_c, 0, 84, 0
2, 24437, Note_on_c, 0, 82, 55
2, 24451, Note_on_c, 0, 82, 0
2, 24468, Note_on_c, 0, 79, 51
2, 24488, Note_on_c, 0, 79, 0
2, 24491, Control_c, 0, 64, 127
2, 24502, Note_on_c, 0, 75, 60
2, 24507, Note_on_c, 0, 44, 0
2, 24513, Note_on_c, 0, 51, 0
2, 24537, Note_on_c, 0, 72, 50
2, 24550, Note_on_c, 0, 75, 0
2, 24582, Note_on_c, 0, 63, 34
2, 24588, Note_on_c, 0, 56, 31
2, 24588, Note_on_c, 0, 60, 25
2, 24637, Note_on_c, 0, 80, 59
2, 24641, Note_on_c, 0, 68, 56
2, 24644, Note_on_c, 0, 63, 0
2, 24657, Note_on_c, 0, 72, 0
2, 24678, Note_on_c, 0, 80, 0
2, 24680, Note_on_c, 0, 60, 0
2, 24687, Note_on_c, 0, 68, 0
2, 24689, Note_on_c, 0, 56, 0
2, 24752, Note_on_c, 0, 75, 62
2, 24755, Note_on_c, 0, 67, 45
2, 24756, Note_on_c, 0, 63, 34
2, 24757, Note_on_c, 0, 59, 44
2, 24757, Control_c, 0, 64, 0
2, 24758, Note_on_c, 0, 49, 32
2, 24787, Control_c, 0, 64, 127
2, 24831, Note_on_c, 0, 59, 0
2, 24867, Note_on_c, 0, 67, 0
2, 24880, Note_on_c, 0, 63, 0
2, 24910, Note_on_c, 0, 75, 0
2, 24915, Note_on_c, 0, 67, 39
2, 24915, Note_on_c, 0, 63, 32
2, 24920, Note_on_c, 0, 59, 20
2, 24959, Note_on_c, 0, 63, 0
2, 24983, Note_on_c, 0, 49, 0
2, 24995, Note_on_c, 0, 67, 0
2, 24998, Note_on_c, 0, 72, 53
2, 25008, Note_on_c, 0, 59, 0
2, 25017, Note_on_c, 0, 72, 0
2, 25079, Note_on_c, 0, 79, 44
2, 25081, Note_on_c, 0, 72, 41
2, 25082, Note_on_c, 0, 50, 43
2, 25082, Note_on_c, 0, 65, 24
2, 25083, Note_on_c, 0, 60, 35
2, 25084, Control_c, 0, 64, 0
2, 25115, Control_c, 0, 64, 127
2, 25145, Note_on_c, 0, 60, 0
2, 25154, Note_on_c, 0, 50, 0
2, 25173, Note_on_c, 0, 65, 0
2, 25189, Note_on_c, 0, 72, 0
2, 25236, Note_on_c, 0, 79, 0
2, 25250, Note_on_c, 0, 79, 30
2, 25258, Note_on_c, 0, 69, 58
2, 25258, Note_on_c, 0, 72, 42
2, 25259, Note_on_c, 0, 67, 46
2, 25314, Note_on_c, 0, 55, 44
2, 25323, Note_on_c, 0, 69, 0
2, 25328, Note_on_c, 0, 72, 0
2, 25349, Note_on_c, 0, 67, 0
2, 25421, Note_on_c, 0, 71, 53
2, 25423, Note_on_c, 0, 68, 42
2, 25424, Note_on_c, 0, 75, 1
2, 25425, Note_on_c, 0, 67, 31
2, 25428, Control_c, 0, 64, 0
2, 25451, Control_c, 0, 64, 127
2, 25462, Note_on_c, 0, 55, 0
2, 25479, Note_on_c, 0, 55, 46
2, 25522, Note_on_c, 0, 75, 0
2, 25529, Note_on_c, 0, 67, 0
2, 25539, Note_on_c, 0, 79, 0
2, 25548, Note_on_c, 0, 68, 0
2, 25550, Note_on_c, 0, 71, 0
2, 25585, Note_on_c, 0, 68, 36
2, 25587, Note_on_c, 0, 73, 46
2, 25590, Note_on_c, 0, 71, 29
2, 25590, Note_on_c, 0, 65, 35
2, 25624, Note_on_c, 0, 55, 0
2, 25643, Note_on_c, 0, 55, 44
2, 25701, Note_on_c, 0, 65, 0
2, 25725, Note_on_c, 0, 68, 0
2, 25726, Note_on_c, 0, 71, 0
2, 25749, Note_on_c, 0, 73, 0
2, 25788, Note_on_c, 0, 55, 0
2, 25826, Note_on_c, 0, 72, 71
2, 25851, Note_on_c, 0, 72, 0
2, 25870, Control_c, 0, 64, 0
2, 25872, Note_on_c, 0, 74, 85
2, 25873, Note_on_c, 0, 57, 57
2, 25874, Note_on_c, 0, 63, 51
2, 25874, Note_on_c, 0, 68, 55
2, 25890, Control_c, 0, 64, 127
2, 25904, Note_on_c, 0, 57, 0
2, 25916, Note_on_c, 0, 68, 0
2, 25917, Note_on_c, 0, 74, 0
2, 25921, Note_on_c, 0, 63, 0
2, 25930, Note_on_c, 0, 67, 50
2, 25930, Note_on_c, 0, 62, 53
2, 25930, Note_on_c, 0, 76, 76
2, 25932, Control_c, 0, 64, 0
2, 25933, Note_on_c, 0, 56, 46
2, 25954, Control_c, 0, 64, 127
2, 25992, Note_on_c, 0, 67, 0
2, 25994, Note_on_c, 0, 62, 0
2, 26006, Note_on_c, 0, 56, 0
2, 26027, Note_on_c, 0, 76, 0
2, 26032, Control_c, 0, 64, 0
2, 26039, Note_on_c, 0, 77, 63
2, 26040, Note_on_c, 0, 66, 43
2, 26041, Note_on_c, 0, 55, 49
2, 26041, Note_on_c, 0, 61, 45
2, 26044, Control_c, 0, 64, 127
2, 26066, Note_on_c, 0, 66, 0
2, 26068, Note_on_c, 0, 55, 0
2, 26076, Note_on_c, 0, 77, 0
2, 26080, Note_on_c, 0, 61, 0
2, 26091, Control_c, 0, 64, 0
2, 26091, Note_on_c, 0, 70, 40
2, 26091, Note_on_c, 0, 65, 40
2, 26091, Note_on_c, 0, 74, 48
2, 26092, Note_on_c, 0, 60, 54
2, 26095, Note_on_c, 0, 54, 45
2, 26120, Control_c, 0, 64, 127
2, 26170, Note_on_c, 0, 60, 0
2, 26183, Note_on_c, 0, 54, 0
2, 26184, Note_on_c, 0, 74, 0
2, 26200, Note_on_c, 0, 70, 0
2, 26202, Note_on_c, 0, 65, 0
2, 26268, Note_on_c, 0, 43, 51
2, 26273, Control_c, 0, 64, 0
2, 26297, Control_c, 0, 64, 127
2, 26330, Note_on_c, 0, 64, 49
2, 26330, Note_on_c, 0, 56, 42
2, 26331, Note_on_c, 0, 59, 54
2, 26333, Note_on_c, 0, 53, 31
2, 26342, Control_c, 0, 64, 0
2, 26364, Control_c, 0, 64, 127
2, 26404, Note_on_c, 0, 53, 0
2, 26405, Note_on_c, 0, 59, 0
2, 26415, Note_on_c, 0, 56, 0
2, 26424, Note_on_c, 0, 64, 0
2, 26453, Note_on_c, 0, 64, 48
2, 26454, Control_c, 0, 64, 0
2, 26456, Note_on_c, 0, 52, 35
2, 26457, Note_on_c, 0, 55, 35
2, 26458, Note_on_c, 0, 57, 41
2, 26468, Note_on_c, 0, 43, 0
2, 26493, Control_c, 0, 64, 127
2, 26509, Note_on_c, 0, 55, 0
2, 26516, Note_on_c, 0, 43, 42
2, 26520, Note_on_c, 0, 57, 0
2, 26532, Note_on_c, 0, 64, 0
2, 26598, Note_on_c, 0, 79, 87
2, 26619, Note_on_c, 0, 52, 0
2, 26628, Note_on_c, 0, 79, 0
2, 26636, Note_on_c, 0, 76, 67
2, 26682, Note_on_c, 0, 76, 0
2, 26688, Note_on_c, 0, 67, 45
2, 26689, Note_on_c, 0, 55, 33
2, 26737, Note_on_c, 0, 67, 0
2, 26744, Note_on_c, 0, 43, 0
2, 26766, Note_on_c, 0, 43, 43
2, 26774, Note_on_c, 0, 55, 0
2, 26807, Note_on_c, 0, 65, 55
2, 26807, Note_on_c, 0, 67, 32
2, 26809, Control_c, 0, 64, 0
2, 26809, Note_on_c, 0, 57, 34
2, 26810, Note_on_c, 0, 53, 30
2, 26810, Note_on_c, 0, 60, 35
2, 26841, Control_c, 0, 64, 127
2, 26850, Note_on_c, 0, 43, 0
2, 26864, Note_on_c, 0, 43, 44
2, 26907, Note_on_c, 0, 60, 0
2, 26920, Note_on_c, 0, 53, 0
2, 26922, Note_on_c, 0, 57, 0
2, 26952, Note_on_c, 0, 65, 0
2, 26955, Note_on_c, 0, 67, 0
2, 26982, Note_on_c, 0, 63, 33
2, 26982, Note_on_c, 0, 59, 42
2, 26982, Note_on_c, 0, 67, 31
2, 26983, Note_on_c, 0, 65, 47
2, 26983, Control_c, 0, 64, 0
2, 26985, Note_on_c, 0, 61, 48
2, 26985, Note_on_c, 0, 53, 29
2, 27017, Control_c, 0, 64, 127
2, 27022, Note_on_c, 0, 43, 0
2, 27042, Note_on_c, 0, 43, 39
2, 27089, Note_on_c, 0, 53, 0
2, 27100, Note_on_c, 0, 43, 0
2, 27106, Note_on_c, 0, 59, 0
2, 27121, Note_on_c, 0, 61, 0
2, 27122, Note_on_c, 0, 63, 0
2, 27134, Note_on_c, 0, 65, 0
2, 27147, Note_on_c, 0, 67, 0
2, 27165, Note_on_c, 0, 36, 34
2, 27172, Note_on_c, 0, 64, 71
2, 27175, Note_on_c, 0, 52, 34
2, 27176, Control_c, 0, 64, 0
2, 27211, Control_c, 0, 64, 127
2, 27228, Note_on_c, 0, 52, 0
2, 27235, Note_on_c, 0, 43, 57
2, 27286, Note_on_c, 0, 36, 0
2, 27287, Note_on_c, 0, 64, 0
2, 27300, Note_on_c, 0, 65, 81
2, 27301, Note_on_c, 0, 62, 87
2, 27304, Note_on_c, 0, 52, 39
2, 27343, Note_on_c, 0, 62, 0
2, 27344, Note_on_c, 0, 52, 0
2, 27358, Note_on_c, 0, 65, 0
2, 27366, Note_on_c, 0, 43, 0
2, 27398, Note_on_c, 0, 67, 75
2, 27425, Note_on_c, 0, 67, 0
2, 27455, Note_on_c, 0, 69, 74
2, 27470, Note_on_c, 0, 69, 0
2, 27513, Note_on_c, 0, 65, 56
2, 27517, Control_c, 0, 64, 0
2, 27517, Note_on_c, 0, 60, 56
2, 27518, Note_on_c, 0, 57, 36
2, 27520, Note_on_c, 0, 55, 31
2, 27550, Control_c, 0, 64, 127
2, 27575, Note_on_c, 0, 43, 40
2, 27643, Note_on_c, 0, 55, 0
2, 27645, Note_on_c, 0, 57, 0
2, 27646, Note_on_c, 0, 60, 0
2, 27662, Note_on_c, 0, 65, 0
2, 27749, Note_on_c, 0, 71, 74
2, 27750, Note_on_c, 0, 63, 71
2, 27751, Note_on_c, 0, 59, 74
2, 27752, Note_on_c, 0, 67, 60
2, 27755, Note_on_c, 0, 53, 41
2, 27757, Control_c, 0, 64, 0
2, 27786, Control_c, 0, 64, 127
2, 27838, Note_on_c, 0, 53, 0
2, 27841, Note_on_c, 0, 59, 0
2, 27845, Note_on_c, 0, 67, 0
2, 27853, Note_on_c, 0, 63, 0
2, 27869, Note_on_c, 0, 71, 0
2, 27889, Note_on_c, 0, 67, 44
2, 27891, Note_on_c, 0, 59, 39
2, 27891, Control_c, 0, 64, 0
2, 27891, Note_on_c, 0, 64, 40
2, 27892, Note_on_c, 0, 43, 0
2, 27892, Note_on_c, 0, 52, 40
2, 27936, Control_c, 0, 64, 127
2, 27944, Note_on_c, 0, 59, 0
2, 27960, Note_on_c, 0, 59, 55
2, 27978, Note_on_c, 0, 59, 0
2, 27986, Note_on_c, 0, 64, 0
2, 27993, Note_on_c, 0, 67, 0
2, 28004, Note_on_c, 0, 52, 0
2, 28042, Note_on_c, 0, 81, 77
2, 28084, Note_on_c, 0, 62, 34
2, 28086, Note_on_c, 0, 57, 36
2, 28087, Note_on_c, 0, 58, 28
2, 28132, Note_on_c, 0, 74, 45
2, 28135, Note_on_c, 0, 81, 0
2, 28145, Note_on_c, 0, 74, 0
2, 28145, Control_c, 0, 64, 0
2, 28162, Note_on_c, 0, 78, 51
2, 28177, Note_on_c, 0, 78, 0
2, 28182, Note_on_c, 0, 62, 0
2, 28182, Note_on_c, 0, 57, 0
2, 28192, Note_on_c, 0, 81, 67
2, 28206, Note_on_c, 0, 81, 0
2, 28215, Note_on_c, 0, 58, 0
2, 28223, Note_on_c, 0, 78, 30
2, 28242, Note_on_c, 0, 78, 0
2, 28250, Note_on_c, 0, 79, 53
2, 28263, Note_on_c, 0, 63, 34
2, 28264, Note_on_c, 0, 58, 32
2, 28266, Note_on_c, 0, 52, 34
2, 28278, Note_on_c, 0, 52, 0
2, 28282, Note_on_c, 0, 63, 0
2, 28283, Note_on_c, 0, 79, 0
2, 28293, Note_on_c, 0, 58, 0
2, 28317, Note_on_c, 0, 81, 54
2, 28336, Note_on_c, 0, 81, 0
2, 28344, Note_on_c, 0, 82, 52
2, 28355, Note_on_c, 0, 82, 0
2, 28369, Note_on_c, 0, 84, 44
2, 28384, Note_on_c, 0, 84, 0
2, 28393, Note_on_c, 0, 85, 61
2, 28408, Note_on_c, 0, 85, 0
2, 28419, Note_on_c, 0, 87, 57
2, 28429, Control_c, 0, 64, 127
2, 28436, Note_on_c, 0, 87, 0
2, 28436, Control_c, 0, 64, 0
2, 28445, Note_on_c, 0, 48, 34
2, 28451, Note_on_c, 0, 58, 17
2, 28456, Note_on_c, 0, 88, 26
2, 28464, Note_on_c, 0, 48, 0
2, 28466, Note_on_c, 0, 58, 0
2, 28468, Note_on_c, 0, 88, 0
2, 28482, Note_on_c, 0, 90, 50
2, 28502, Note_on_c, 0, 90, 0
2, 28509, Note_on_c, 0, 91, 53
2, 28523, Note_on_c, 0, 91, 0
2, 28536, Note_on_c, 0, 92, 70
2, 28551, Note_on_c, 0, 92, 0
2, 28560, Note_on_c, 0, 93, 50
2, 28572, Note_on_c, 0, 93, 0
2, 28575, Control_c, 0, 64, 127
2, 28588, Note_on_c, 0, 94, 71
2, 28601, Note_on_c, 0, 94, 0
2, 28616, Note_on_c, 0, 93, 62
2, 28618, Note_on_c, 0, 41, 32
2, 28623, Note_on_c, 0, 48, 29
2, 28625, Control_c, 0, 64, 0
2, 28628, Note_on_c, 0, 57, 46
2, 28640, Note_on_c, 0, 93, 0
2, 28644, Note_on_c, 0, 89, 55
2, 28663, Control_c, 0, 64, 127
2, 28668, Note_on_c, 0, 89, 0
2, 28674, Note_on_c, 0, 84, 50
2, 28682, Note_on_c, 0, 41, 0
2, 28690, Note_on_c, 0, 84, 0
2, 28692, Note_on_c, 0, 48, 0
2, 28706, Note_on_c, 0, 84, 49
2, 28709, Note_on_c, 0, 57, 0
2, 28715, Note_on_c, 0, 84, 0
2, 28775, Note_on_c, 0, 77, 62
2, 28778, Note_on_c, 0, 65, 54
2, 28797, Note_on_c, 0, 65, 0
2, 28801, Note_on_c, 0, 77, 0
2, 28822, Note_on_c, 0, 77, 64
2, 28825, Note_on_c, 0, 65, 63
2, 28826, Note_on_c, 0, 53, 31
2, 28827, Note_on_c, 0, 60, 36
2, 28827, Note_on_c, 0, 57, 35
2, 28829, Note_on_c, 0, 72, 33
2, 28835, Note_on_c, 0, 72, 0
2, 28841, Note_on_c, 0, 77, 0
2, 28841, Note_on_c, 0, 65, 0
2, 28878, Note_on_c, 0, 79, 74
2, 28878, Note_on_c, 0, 67, 76
2, 28897, Note_on_c, 0, 67, 0
2, 28900, Note_on_c, 0, 79, 0
2, 28922, Note_on_c, 0, 81, 80
2, 28923, Note_on_c, 0, 69, 80
2, 28940, Note_on_c, 0, 53, 0
2, 28943, Note_on_c, 0, 81, 0
2, 28945, Note_on_c, 0, 69, 0
2, 28969, Note_on_c, 0, 83, 60
2, 28972, Note_on_c, 0, 71, 60
2, 28980, Note_on_c, 0, 57, 0
2, 28994, Note_on_c, 0, 60, 0
2, 29023, Note_on_c, 0, 79, 60
2, 29024, Note_on_c, 0, 67, 54
2, 29026, Note_on_c, 0, 53, 40
2, 29026, Note_on_c, 0, 63, 38
2, 29027, Control_c, 0, 64, 0
2, 29027, Note_on_c, 0, 75, 31
2, 29029, Note_on_c, 0, 58, 44
2, 29032, Note_on_c, 0, 75, 0
2, 29055, Control_c, 0, 64, 127
2, 29088, Note_on_c, 0, 63, 0
2, 29089, Note_on_c, 0, 83, 0
2, 29092, Note_on_c, 0, 71, 0
2, 29102, Note_on_c, 0, 77, 1
2, 29108, Note_on_c, 0, 67, 0
2, 29166, Note_on_c, 0, 70, 53
2, 29168, Note_on_c, 0, 67, 32
2, 29193, Note_on_c, 0, 79, 0
2, 29195, Note_on_c, 0, 77, 0
2, 29197, Note_on_c, 0, 58, 0
2, 29199, Note_on_c, 0, 67, 0
2, 29222, Note_on_c, 0, 70, 0
2, 29224, Note_on_c, 0, 65, 36
2, 29225, Note_on_c, 0, 63, 31
2, 29225, Note_on_c, 0, 69, 53
2, 29227, Note_on_c, 0, 57, 43
2, 29228, Control_c, 0, 64, 0
2, 29258, Control_c, 0, 64, 127
2, 29263, Note_on_c, 0, 53, 0
2, 29291, Note_on_c, 0, 53, 56
2, 29293, Note_on_c, 0, 65, 0
2, 29298, Note_on_c, 0, 69, 0
2, 29330, Note_on_c, 0, 63, 0
2, 29340, Note_on_c, 0, 57, 0
2, 29369, Note_on_c, 0, 81, 83
2, 29387, Note_on_c, 0, 81, 0
2, 29399, Note_on_c, 0, 81, 73
2, 29424, Note_on_c, 0, 81, 0
2, 29434, Note_on_c, 0, 81, 70
2, 29437, Control_c, 0, 64, 0
2, 29437, Note_on_c, 0, 77, 71
2, 29438, Note_on_c, 0, 62, 51
2, 29438, Note_on_c, 0, 60, 46
2, 29439, Note_on_c, 0, 74, 67
2, 29439, Note_on_c, 0, 65, 54
2, 29440, Note_on_c, 0, 69, 69
2, 29458, Control_c, 0, 64, 127
2, 29462, Note_on_c, 0, 65, 0
2, 29469, Note_on_c, 0, 53, 0
2, 29470, Note_on_c, 0, 81, 0
2, 29478, Note_on_c, 0, 69, 0
2, 29490, Note_on_c, 0, 77, 0
2, 29499, Note_on_c, 0, 82, 75
2, 29500, Note_on_c, 0, 53, 50
2, 29510, Note_on_c, 0, 77, 15
2, 29525, Note_on_c, 0, 82, 0
2, 29526, Note_on_c, 0, 77, 0
2, 29528, Note_on_c, 0, 74, 0
2, 29553, Note_on_c, 0, 62, 0
2, 29554, Note_on_c, 0, 60, 0
2, 29556, Note_on_c, 0, 77, 66
2, 29592, Note_on_c, 0, 77, 0
2, 29633, Control_c, 0, 64, 0
2, 29635, Note_on_c, 0, 77, 58
2, 29635, Note_on_c, 0, 65, 37
2, 29636, Note_on_c, 0, 62, 36
2, 29638, Note_on_c, 0, 60, 28
2, 29652, Control_c, 0, 64, 127
2, 29666, Note_on_c, 0, 65, 0
2, 29679, Note_on_c, 0, 53, 0
2, 29710, Note_on_c, 0, 53, 39
2, 29720, Note_on_c, 0, 77, 0
2, 29723, Note_on_c, 0, 62, 0
2, 29724, Note_on_c, 0, 60, 0
2, 29784, Note_on_c, 0, 53, 0
2, 29860, Note_on_c, 0, 61, 32
2, 29862, Note_on_c, 0, 72, 40
2, 29862, Control_c, 0, 64, 0
2, 29862, Note_on_c, 0, 51, 48
2, 29863, Note_on_c, 0, 65, 46
2, 29890, Control_c, 0, 64, 127
2, 29915, Note_on_c, 0, 65, 0
2, 29917, Note_on_c, 0, 61, 0
2, 29929, Note_on_c, 0, 72, 0
2, 29935, Note_on_c, 0, 70, 59
2, 29938, Note_on_c, 0, 61, 18
2, 29942, Note_on_c, 0, 58, 31
2, 29946, Note_on_c, 0, 65, 27
2, 29976, Note_on_c, 0, 58, 0
2, 30003, Note_on_c, 0, 65, 0
2, 30004, Note_on_c, 0, 51, 0
2, 30006, Note_on_c, 0, 70, 0
2, 30012, Note_on_c, 0, 61, 0
2, 30143, Control_c, 0, 64, 0
2, 30152, Note_on_c, 0, 45, 36
2, 30153, Note_on_c, 0, 64, 40
2, 30155, Note_on_c, 0, 52, 37
2, 30156, Note_on_c, 0, 59, 38
2, 30156, Note_on_c, 0, 61, 28
2, 30158, Note_on_c, 0, 55, 18
2, 30162, Control_c, 0, 64, 127
2, 30180, Note_on_c, 0, 55, 0
2, 30192, Note_on_c, 0, 59, 0
2, 30194, Note_on_c, 0, 64, 0
2, 30194, Note_on_c, 0, 61, 0
2, 30240, Note_on_c, 0, 52, 0
2, 30242, Note_on_c, 0, 45, 0
2, 30289, Note_on_c, 0, 67, 42
2, 30292, Note_on_c, 0, 63, 36
2, 30293, Control_c, 0, 64, 0
2, 30293, Note_on_c, 0, 60, 44
2, 30294, Note_on_c, 0, 55, 25
2, 30297, Note_on_c, 0, 44, 28
2, 30301, Note_on_c, 0, 51, 30
2, 30320, Control_c, 0, 64, 127
2, 30329, Note_on_c, 0, 55, 0
2, 30333, Note_on_c, 0, 67, 0
2, 30351, Note_on_c, 0, 60, 0
2, 30354, Note_on_c, 0, 63, 0
2, 30364, Note_on_c, 0, 68, 69
2, 30366, Note_on_c, 0, 55, 50
2, 30367, Note_on_c, 0, 60, 44
2, 30369, Note_on_c, 0, 63, 29
2, 30392, Note_on_c, 0, 63, 0
2, 30401, Note_on_c, 0, 60, 0
2, 30403, Note_on_c, 0, 55, 0
2, 30412, Note_on_c, 0, 68, 0
2, 30415, Note_on_c, 0, 51, 0
2, 30430, Note_on_c, 0, 63, 77
2, 30472, Note_on_c, 0, 63, 0
2, 30481, Note_on_c, 0, 44, 0
2, 30490, Note_on_c, 0, 63, 57
2, 30520, Note_on_c, 0, 63, 0
2, 30548, Note_on_c, 0, 63, 42
2, 30548, Control_c, 0, 64, 0
2, 30551, Note_on_c, 0, 37, 40
2, 30551, Note_on_c, 0, 60, 52
2, 30551, Note_on_c, 0, 56, 37
2, 30554, Note_on_c, 0, 53, 28
2, 30572, Control_c, 0, 64, 127
2, 30573, Note_on_c, 0, 53, 0
2, 30607, Note_on_c, 0, 56, 0
2, 30607, Note_on_c, 0, 44, 44
2, 30610, Note_on_c, 0, 37, 0
2, 30614, Note_on_c, 0, 60, 0
2, 30663, Note_on_c, 0, 63, 0
2, 30667, Note_on_c, 0, 53, 43
2, 30697, Note_on_c, 0, 44, 0
2, 30763, Note_on_c, 0, 72, 70
2, 30790, Note_on_c, 0, 72, 0
2, 30798, Note_on_c, 0, 68, 43
2, 30799, Note_on_c, 0, 65, 42
2, 30800, Note_on_c, 0, 53, 0
2, 30801, Note_on_c, 0, 60, 44
2, 30802, Note_on_c, 0, 49, 55
2, 30804, Control_c, 0, 64, 0
2, 30832, Control_c, 0, 64, 127
2, 30843, Note_on_c, 0, 60, 0
2, 30852, Note_on_c, 0, 56, 34
2, 30866, Note_on_c, 0, 65, 0
2, 30961, Note_on_c, 0, 56, 0
2, 31000, Note_on_c, 0, 56, 25
2, 31040, Note_on_c, 0, 56, 0
2, 31057, Note_on_c, 0, 68, 0
2, 31064, Note_on_c, 0, 60, 38
2, 31064, Note_on_c, 0, 65, 42
2, 31064, Note_on_c, 0, 56, 28
2, 31086, Note_on_c, 0, 70, 1
2, 31147, Note_on_c, 0, 60, 0
2, 31248, Note_on_c, 0, 70, 0
2, 31263, Note_on_c, 0, 72, 50
2, 31269, Note_on_c, 0, 49, 0
2, 31272, Note_on_c, 0, 65, 0
2, 31289, Note_on_c, 0, 72, 0
2, 31294, Note_on_c, 0, 56, 0
2, 31313, Note_on_c, 0, 72, 51
2, 31326, Note_on_c, 0, 72, 0
2, 31379, Note_on_c, 0, 50, 44
2, 31380, Note_on_c, 0, 79, 54
2, 31383, Note_on_c, 0, 60, 28
2, 31383, Control_c, 0, 64, 0
2, 31410, Control_c, 0, 64, 127
2, 31424, Note_on_c, 0, 60, 0
2, 31428, Note_on_c, 0, 57, 35
2, 31477, Note_on_c, 0, 57, 0
2, 31480, Note_on_c, 0, 79, 0
2, 31480, Note_on_c, 0, 50, 0
2, 31481, Note_on_c, 0, 65, 42
2, 31486, Note_on_c, 0, 60, 27
2, 31492, Note_on_c, 0, 60, 0
2, 31527, Note_on_c, 0, 65, 0
2, 31533, Note_on_c, 0, 60, 46
2, 31589, Note_on_c, 0, 65, 51
2, 31591, Note_on_c, 0, 69, 53
2, 31613, Note_on_c, 0, 60, 0
2, 31629, Note_on_c, 0, 65, 0
2, 31643, Note_on_c, 0, 60, 35
2, 31645, Note_on_c, 0, 69, 0
2, 31645, Note_on_c, 0, 72, 64
2, 31672, Note_on_c, 0, 60, 0
2, 31681, Note_on_c, 0, 72, 0
2, 31707, Note_on_c, 0, 57, 32
2, 31709, Note_on_c, 0, 72, 61
2, 31709, Note_on_c, 0, 60, 30
2, 31710, Note_on_c, 0, 65, 37
2, 31711, Note_on_c, 0, 69, 60
2, 31712, Control_c, 0, 64, 0
2, 31734, Control_c, 0, 64, 127
2, 31764, Note_on_c, 0, 72, 0
2, 31769, Note_on_c, 0, 55, 36
2, 31772, Note_on_c, 0, 74, 49
2, 31789, Note_on_c, 0, 65, 0
2, 31794, Note_on_c, 0, 60, 0
2, 31797, Note_on_c, 0, 69, 0
2, 31801, Note_on_c, 0, 57, 0
2, 31802, Note_on_c, 0, 55, 0
2, 31804, Note_on_c, 0, 74, 0
2, 31851, Note_on_c, 0, 76, 58
2, 31853, Note_on_c, 0, 68, 56
2, 31853, Control_c, 0, 64, 0
2, 31854, Note_on_c, 0, 71, 50
2, 31855, Note_on_c, 0, 53, 35
2, 31855, Note_on_c, 0, 64, 28
2, 31856, Note_on_c, 0, 59, 35
2, 31876, Control_c, 0, 64, 127
2, 31985, Note_on_c, 0, 71, 0
2, 31990, Note_on_c, 0, 76, 0
2, 32023, Note_on_c, 0, 68, 0
2, 32096, Note_on_c, 0, 77, 65
2, 32214, Note_on_c, 0, 64, 0
2, 32244, Note_on_c, 0, 59, 0
2, 32269, Note_on_c, 0, 53, 0
2, 32293, Note_on_c, 0, 77, 0
2, 32553, Note_on_c, 0, 76, 44
2, 32558, Control_c, 0, 64, 0
2, 32558, Note_on_c, 0, 64, 32
2, 32560, Note_on_c, 0, 48, 31
2, 32568, Note_on_c, 0, 60, 18
2, 32581, Control_c, 0, 64, 127
2, 32594, Note_on_c, 0, 48, 0
2, 32596, Note_on_c, 0, 64, 0
2, 32613, Note_on_c, 0, 60, 0
2, 32660, Note_on_c, 0, 60, 35
2, 32667, Note_on_c, 0, 76, 0
2, 32727, Note_on_c, 0, 72, 44
2, 32818, Note_on_c, 0, 74, 58
2, 32822, Note_on_c, 0, 59, 32
2, 32825, Control_c, 0, 64, 0
2, 32829, Note_on_c, 0, 60, 0
2, 32837, Control_c, 0, 64, 127
2, 32840, Note_on_c, 0, 72, 0
2, 32979, Note_on_c, 0, 76, 60
2, 32983, Control_c, 0, 64, 0
2, 32984, Note_on_c, 0, 74, 0
2, 32986, Note_on_c, 0, 59, 0
2, 32987, Note_on_c, 0, 57, 44
2, 33002, Control_c, 0, 64, 127
2, 33053, Note_on_c, 0, 77, 66
2, 33061, Note_on_c, 0, 76, 0
2, 33116, Note_on_c, 0, 77, 0
2, 33140, Note_on_c, 0, 57, 0
2, 33140, Note_on_c, 0, 77, 45
2, 33142, Control_c, 0, 64, 0
2, 33143, Note_on_c, 0, 70, 40
2, 33143, Note_on_c, 0, 74, 47
2, 33143, Note_on_c, 0, 56, 35
2, 33144, Note_on_c, 0, 65, 35
2, 33178, Control_c, 0, 64, 127
2, 33220, Note_on_c, 0, 65, 0
2, 33231, Note_on_c, 0, 70, 0
2, 33249, Note_on_c, 0, 70, 29
2, 33252, Note_on_c, 0, 65, 30
2, 33311, Note_on_c, 0, 65, 0
2, 33322, Note_on_c, 0, 70, 0
2, 33337, Note_on_c, 0, 77, 0
2, 33338, Note_on_c, 0, 74, 0
2, 33343, Note_on_c, 0, 65, 30
2, 33344, Note_on_c, 0, 71, 37
2, 33346, Control_c, 0, 64, 0
2, 33348, Note_on_c, 0, 56, 0
2, 33350, Note_on_c, 0, 55, 37
2, 33374, Control_c, 0, 64, 127
2, 33437, Note_on_c, 0, 65, 0
2, 33453, Note_on_c, 0, 55, 0
2, 33454, Note_on_c, 0, 71, 0
2, 33519, Control_c, 0, 64, 0
2, 33521, Note_on_c, 0, 79, 58
2, 33521, Note_on_c, 0, 53, 45
2, 33521, Note_on_c, 0, 75, 58
2, 33521, Note_on_c, 0, 71, 64
2, 33523, Note_on_c, 0, 67, 48
2, 33523, Note_on_c, 0, 59, 45
2, 33524, Note_on_c, 0, 63, 32
2, 33545, Control_c, 0, 64, 127
2, 33551, Note_on_c, 0, 71, 0
2, 33554, Note_on_c, 0, 59, 0
2, 33558, Note_on_c, 0, 67, 0
2, 33561, Note_on_c, 0, 63, 0
2, 33563, Note_on_c, 0, 53, 0
2, 33568, Note_on_c, 0, 75, 0
2, 33569, Note_on_c, 0, 79, 0
2, 33603, Note_on_c, 0, 79, 50
2, 33604, Note_on_c, 0, 69, 54
2, 33604, Control_c, 0, 64, 0
2, 33605, Note_on_c, 0, 74, 55
2, 33605, Note_on_c, 0, 52, 44
2, 33609, Note_on_c, 0, 62, 32
2, 33612, Note_on_c, 0, 57, 36
2, 33637, Control_c, 0, 64, 127
2, 33665, Note_on_c, 0, 69, 0
2, 33678, Note_on_c, 0, 74, 0
2, 33680, Note_on_c, 0, 79, 0
2, 33684, Note_on_c, 0, 52, 0
2, 33684, Note_on_c, 0, 57, 0
2, 33686, Note_on_c, 0, 62, 0
2, 33991, Note_on_c, 0, 86, 69
2, 33992, Control_c, 0, 64, 0
2, 33992, Note_on_c, 0, 76, 49
2, 33992, Note_on_c, 0, 81, 64
2, 33993, Note_on_c, 0, 71, 44
2, 34001, Control_c, 0, 64, 127
2, 34020, Note_on_c, 0, 71, 0
2, 34020, Note_on_c, 0, 86, 0
2, 34026, Note_on_c, 0, 81, 0
2, 34030, Note_on_c, 0, 76, 0
2, 34055, Control_c, 0, 64, 0
2, 34055, Note_on_c, 0, 84, 64
2, 34058, Note_on_c, 0, 74, 42
2, 34059, Note_on_c, 0, 79, 57
2, 34060, Note_on_c, 0, 69, 35
2, 34073, Control_c, 0, 64, 127
2, 34076, Note_on_c, 0, 84, 0
2, 34079, Note_on_c, 0, 79, 0
2, 34080, Note_on_c, 0, 69, 0
2, 34084, Note_on_c, 0, 74, 0
2, 34120, Note_on_c, 0, 81, 54
2, 34121, Note_on_c, 0, 76, 51
2, 34121, Note_on_c, 0, 71, 44
2, 34122, Control_c, 0, 64, 0
2, 34123, Note_on_c, 0, 65, 36
2, 34139, Control_c, 0, 64, 127
2, 34140, Note_on_c, 0, 76, 0
2, 34146, Note_on_c, 0, 81, 0
2, 34150, Note_on_c, 0, 71, 0
2, 34182, Note_on_c, 0, 65, 0
2, 34186, Control_c, 0, 64, 0
2, 34188, Note_on_c, 0, 79, 56
2, 34189, Note_on_c, 0, 69, 49
2, 34192, Note_on_c, 0, 74, 50
2, 34193, Note_on_c, 0, 64, 34
2, 34205, Control_c, 0, 64, 127
2, 34206, Note_on_c, 0, 64, 0
2, 34207, Note_on_c, 0, 79, 0
2, 34210, Note_on_c, 0, 74, 0
2, 34214, Note_on_c, 0, 69, 0
2, 34256, Note_on_c, 0, 77, 48
2, 34258, Note_on_c, 0, 74, 39
2, 34260, Control_c, 0, 64, 0
2, 34260, Note_on_c, 0, 67, 32
2, 34260, Note_on_c, 0, 70, 45
2, 34262, Note_on_c, 0, 58, 32
2, 34276, Control_c, 0, 64, 127
2, 34280, Note_on_c, 0, 74, 0
2, 34283, Note_on_c, 0, 77, 0
2, 34290, Note_on_c, 0, 70, 0
2, 34290, Note_on_c, 0, 67, 0
2, 34334, Note_on_c, 0, 74, 40
2, 34337, Note_on_c, 0, 64, 39
2, 34337, Note_on_c, 0, 70, 40
2, 34338, Note_on_c, 0, 52, 37
2, 34340, Control_c, 0, 64, 0
2, 34358, Note_on_c, 0, 52, 0
2, 34361, Note_on_c, 0, 58, 0
2, 34362, Control_c, 0, 64, 127
2, 34369, Note_on_c, 0, 74, 0
2, 34379, Note_on_c, 0, 64, 0
2, 34391, Note_on_c, 0, 70, 0
2, 34416, Note_on_c, 0, 73, 39
2, 34417, Control_c, 0, 64, 0
2, 34418, Note_on_c, 0, 68, 44
2, 34418, Note_on_c, 0, 42, 42
2, 34419, Note_on_c, 0, 70, 38
2, 34421, Note_on_c, 0, 64, 30
2, 34422, Note_on_c, 0, 52, 29
2, 34441, Note_on_c, 0, 42, 0
2, 34441, Control_c, 0, 64, 127
2, 34442, Note_on_c, 0, 52, 0
2, 34463, Note_on_c, 0, 64, 0
2, 34466, Note_on_c, 0, 73, 0
2, 34478, Note_on_c, 0, 70, 0
2, 34482, Note_on_c, 0, 68, 0
2, 34527, Note_on_c, 0, 41, 24
2, 34527, Note_on_c, 0, 62, 38
2, 34528, Note_on_c, 0, 72, 45
2, 34529, Note_on_c, 0, 67, 44
2, 34529, Note_on_c, 0, 57, 54
2, 34533, Control_c, 0, 64, 0
2, 34559, Control_c, 0, 64, 127
2, 34577, Note_on_c, 0, 72, 0
2, 34586, Note_on_c, 0, 67, 0
2, 34587, Note_on_c, 0, 57, 0
2, 34606, Note_on_c, 0, 62, 0
2, 34608, Note_on_c, 0, 48, 43
2, 34637, Note_on_c, 0, 48, 0
2, 34678, Control_c, 0, 64, 0
2, 34678, Note_on_c, 0, 65, 64
2, 34683, Note_on_c, 0, 57, 46
2, 34683, Note_on_c, 0, 60, 59
2, 34685, Note_on_c, 0, 53, 37
2, 34696, Control_c, 0, 64, 127
2, 34698, Note_on_c, 0, 65, 0
2, 34727, Note_on_c, 0, 67, 66
2, 34734, Note_on_c, 0, 60, 0
2, 34742, Note_on_c, 0, 57, 0
2, 34751, Note_on_c, 0, 67, 0
2, 34774, Note_on_c, 0, 69, 75
2, 34796, Note_on_c, 0, 69, 0
2, 34820, Note_on_c, 0, 53, 0
2, 34824, Note_on_c, 0, 71, 80
2, 34869, Note_on_c, 0, 41, 0
2, 34893, Note_on_c, 0, 71, 0
2, 34972, Note_on_c, 0, 71, 51
2, 34974, Note_on_c, 0, 47, 55
2, 34974, Note_on_c, 0, 67, 42
2, 34974, Note_on_c, 0, 62, 49
2, 34982, Control_c, 0, 64, 0
2, 35010, Control_c, 0, 64, 127
2, 35033, Note_on_c, 0, 62, 0
2, 35035, Note_on_c, 0, 67, 0
2, 35036, Note_on_c, 0, 55, 54
2, 35038, Note_on_c, 0, 71, 0
2, 35104, Note_on_c, 0, 74, 40
2, 35106, Note_on_c, 0, 62, 45
2, 35107, Note_on_c, 0, 67, 42
2, 35109, Note_on_c, 0, 59, 39
2, 35123, Note_on_c, 0, 55, 0
2, 35129, Note_on_c, 0, 62, 0
2, 35138, Note_on_c, 0, 67, 0
2, 35142, Note_on_c, 0, 74, 0
2, 35185, Note_on_c, 0, 59, 0
2, 35189, Note_on_c, 0, 72, 66
2, 35190, Note_on_c, 0, 64, 48
2, 35191, Note_on_c, 0, 67, 53
2, 35192, Note_on_c, 0, 55, 42
2, 35197, Control_c, 0, 64, 0
2, 35207, Control_c, 0, 64, 127
2, 35212, Note_on_c, 0, 55, 0
2, 35224, Note_on_c, 0, 47, 0
2, 35226, Note_on_c, 0, 67, 0
2, 35234, Note_on_c, 0, 64, 0
2, 35254, Note_on_c, 0, 72, 0
2, 35273, Note_on_c, 0, 67, 49
2, 35273, Control_c, 0, 64, 0
2, 35275, Note_on_c, 0, 46, 48
2, 35275, Note_on_c, 0, 64, 52
2, 35275, Note_on_c, 0, 60, 46
2, 35296, Control_c, 0, 64, 127
2, 35306, Note_on_c, 0, 60, 0
2, 35309, Note_on_c, 0, 64, 0
2, 35313, Note_on_c, 0, 67, 0
2, 35343, Note_on_c, 0, 72, 68
2, 35343, Note_on_c, 0, 79, 71
2, 35346, Note_on_c, 0, 56, 37
2, 35356, Note_on_c, 0, 46, 0
2, 35362, Note_on_c, 0, 56, 0
2, 35385, Note_on_c, 0, 72, 0
2, 35396, Note_on_c, 0, 79, 0
2, 35404, Note_on_c, 0, 76, 50
2, 35407, Note_on_c, 0, 62, 45
2, 35407, Note_on_c, 0, 72, 54
2, 35408, Note_on_c, 0, 67, 51
2, 35415, Note_on_c, 0, 62, 0
2, 35417, Note_on_c, 0, 76, 0
2, 35418, Note_on_c, 0, 72, 0
2, 35427, Note_on_c, 0, 67, 0
2, 35473, Note_on_c, 0, 46, 39
2, 35474, Note_on_c, 0, 56, 36
2, 35476, Note_on_c, 0, 67, 33
2, 35478, Control_c, 0, 64, 0
2, 35478, Note_on_c, 0, 62, 25
2, 35490, Note_on_c, 0, 67, 0
2, 35495, Control_c, 0, 64, 127
2, 35496, Note_on_c, 0, 62, 0
2, 35524, Note_on_c, 0, 56, 0
2, 35547, Note_on_c, 0, 46, 0
2, 35563, Note_on_c, 0, 45, 46
2, 35566, Note_on_c, 0, 63, 49
2, 35568, Control_c, 0, 64, 0
2, 35570, Note_on_c, 0, 55, 28
2, 35590, Control_c, 0, 64, 127
2, 35616, Note_on_c, 0, 55, 0
2, 35619, Note_on_c, 0, 63, 0
2, 35627, Control_c, 0, 64, 0
2, 35627, Note_on_c, 0, 64, 67
2, 35628, Note_on_c, 0, 58, 56
2, 35629, Note_on_c, 0, 61, 50
2, 35630, Note_on_c, 0, 55, 44
2, 35630, Note_on_c, 0, 52, 51
2, 35635, Note_on_c, 0, 55, 0
2, 35641, Control_c, 0, 64, 127
2, 35642, Note_on_c, 0, 64, 0
2, 35646, Note_on_c, 0, 61, 0
2, 35647, Note_on_c, 0, 58, 0
2, 35680, Control_c, 0, 64, 0
2, 35685, Note_on_c, 0, 67, 57
2, 35687, Note_on_c, 0, 61, 62
2, 35687, Note_on_c, 0, 58, 60
2, 35690, Note_on_c, 0, 64, 46
2, 35692, Note_on_c, 0, 45, 0
2, 35692, Note_on_c, 0, 52, 0
2, 35694, Note_on_c, 0, 55, 49
2, 35694, Control_c, 0, 64, 127
2, 35700, Note_on_c, 0, 67, 0
2, 35700, Note_on_c, 0, 64, 0
2, 35701, Note_on_c, 0, 58, 0
2, 35704, Note_on_c, 0, 61, 0
2, 35725, Note_on_c, 0, 55, 0
2, 35742, Control_c, 0, 64, 0
2, 35744, Note_on_c, 0, 70, 64
2, 35744, Note_on_c, 0, 67, 55
2, 35744, Note_on_c, 0, 61, 64
2, 35746, Note_on_c, 0, 58, 43
2, 35747, Note_on_c, 0, 64, 51
2, 35754, Control_c, 0, 64, 127
2, 35763, Note_on_c, 0, 64, 0
2, 35786, Note_on_c, 0, 70, 0
2, 35789, Note_on_c, 0, 67, 0
2, 35790, Note_on_c, 0, 61, 0
2, 35796, Note_on_c, 0, 58, 0
2, 35801, Note_on_c, 0, 69, 64
2, 35802, Control_c, 0, 64, 0
2, 35803, Note_on_c, 0, 60, 58
2, 35803, Note_on_c, 0, 65, 60
2, 35804, Note_on_c, 0, 50, 58
2, 35822, Control_c, 0, 64, 127
2, 35824, Note_on_c, 0, 60, 0
2, 35850, Note_on_c, 0, 65, 0
2, 35863, Note_on_c, 0, 69, 0
2, 35886, Note_on_c, 0, 65, 66
2, 35887, Note_on_c, 0, 60, 66
2, 35888, Note_on_c, 0, 57, 56
2, 35910, Note_on_c, 0, 60, 0
2, 35933, Note_on_c, 0, 65, 0
2, 35948, Note_on_c, 0, 64, 60
2, 35948, Note_on_c, 0, 67, 70
2, 35949, Note_on_c, 0, 60, 53
2, 35949, Note_on_c, 0, 65, 62
2, 35954, Note_on_c, 0, 57, 0
2, 35968, Note_on_c, 0, 65, 0
2, 35990, Note_on_c, 0, 64, 0
2, 35994, Note_on_c, 0, 67, 0
2, 35997, Note_on_c, 0, 60, 0
2, 35997, Note_on_c, 0, 69, 75
2, 36000, Note_on_c, 0, 65, 30
2, 36000, Note_on_c, 0, 57, 52
2, 36009, Note_on_c, 0, 50, 0
2, 36010, Note_on_c, 0, 65, 0
2, 36030, Note_on_c, 0, 69, 0
2, 36048, Note_on_c, 0, 71, 80
2, 36050, Note_on_c, 0, 50, 56
2, 36055, Note_on_c, 0, 57, 0
2, 36058, Note_on_c, 0, 69, 20
2, 36067, Note_on_c, 0, 50, 0
2, 36093, Note_on_c, 0, 71, 0
2, 36100, Note_on_c, 0, 69, 0
2, 36113, Note_on_c, 0, 71, 68
2, 36114, Note_on_c, 0, 63, 70
2, 36115, Note_on_c, 0, 43, 38
2, 36115, Note_on_c, 0, 59, 65
2, 36117, Control_c, 0, 64, 0
2, 36120, Note_on_c, 0, 53, 53
2, 36123, Note_on_c, 0, 63, 0
2, 36124, Note_on_c, 0, 64, 57
2, 36152, Control_c, 0, 64, 127
2, 36224, Note_on_c, 0, 64, 0
2, 36251, Note_on_c, 0, 69, 1
2, 36258, Note_on_c, 0, 53, 0
2, 36263, Note_on_c, 0, 59, 0
2, 36283, Note_on_c, 0, 71, 0
2, 36292, Note_on_c, 0, 69, 0
2, 36303, Note_on_c, 0, 62, 42
2, 36304, Note_on_c, 0, 59, 34
2, 36309, Note_on_c, 0, 53, 30
2, 36421, Note_on_c, 0, 43, 0
2, 36428, Note_on_c, 0, 69, 47
2, 36429, Note_on_c, 0, 59, 0
2, 36434, Note_on_c, 0, 53, 0
2, 36444, Note_on_c, 0, 62, 0
2, 36467, Note_on_c, 0, 69, 0
2, 36543, Control_c, 0, 64, 0
2, 36547, Note_on_c, 0, 71, 49
2, 36548, Note_on_c, 0, 63, 45
2, 36548, Note_on_c, 0, 48, 38
2, 36549, Note_on_c, 0, 60, 51
2, 36550, Note_on_c, 0, 66, 42
2, 36559, Control_c, 0, 64, 127
2, 36559, Note_on_c, 0, 55, 16
2, 36565, Note_on_c, 0, 60, 0
2, 36573, Note_on_c, 0, 63, 0
2, 36574, Note_on_c, 0, 66, 0
2, 36576, Note_on_c, 0, 71, 0
2, 36592, Note_on_c, 0, 55, 0
2, 36596, Note_on_c, 0, 72, 60
2, 36598, Note_on_c, 0, 62, 34
2, 36599, Note_on_c, 0, 57, 33
2, 36602, Note_on_c, 0, 72, 0
2, 36609, Note_on_c, 0, 62, 0
2, 36636, Note_on_c, 0, 57, 0
2, 36653, Note_on_c, 0, 67, 34
2, 36654, Note_on_c, 0, 63, 40
2, 36655, Note_on_c, 0, 55, 40
2, 36655, Note_on_c, 0, 58, 28
2, 36657, Control_c, 0, 64, 0
2, 36680, Control_c, 0, 64, 127
2, 36717, Note_on_c, 0, 58, 0
2, 36721, Note_on_c, 0, 55, 0
2, 36730, Note_on_c, 0, 48, 0
2, 36734, Note_on_c, 0, 58, 34
2, 36780, Note_on_c, 0, 58, 0
2, 36788, Note_on_c, 0, 57, 42
2, 36794, Note_on_c, 0, 51, 26
2, 36795, Note_on_c, 0, 41, 32
2, 36796, Control_c, 0, 64, 0
2, 36840, Control_c, 0, 64, 127
2, 36892, Note_on_c, 0, 57, 0
2, 36911, Note_on_c, 0, 63, 0
2, 36912, Note_on_c, 0, 67, 0
2, 36938, Note_on_c, 0, 41, 0
2, 36956, Note_on_c, 0, 51, 0
2, 36978, Note_on_c, 0, 81, 67
2, 36997, Note_on_c, 0, 81, 0
2, 37057, Note_on_c, 0, 81, 60
2, 37066, Note_on_c, 0, 76, 59
2, 37075, Note_on_c, 0, 73, 48
2, 37088, Note_on_c, 0, 69, 48
2, 37092, Control_c, 0, 64, 0
2, 37093, Note_on_c, 0, 65, 35
2, 37096, Note_on_c, 0, 62, 24
2, 37096, Note_on_c, 0, 60, 35
2, 37111, Control_c, 0, 64, 127
2, 37125, Note_on_c, 0, 65, 0
2, 37155, Note_on_c, 0, 81, 0
2, 37155, Note_on_c, 0, 53, 50
2, 37156, Note_on_c, 0, 69, 0
2, 37168, Note_on_c, 0, 76, 0
2, 37181, Note_on_c, 0, 73, 0
2, 37289, Note_on_c, 0, 53, 0
2, 37323, Note_on_c, 0, 82, 58
2, 37327, Note_on_c, 0, 53, 26
2, 37333, Note_on_c, 0, 60, 0
2, 37345, Note_on_c, 0, 62, 0
2, 37345, Note_on_c, 0, 82, 0
2, 37391, Note_on_c, 0, 77, 60
2, 37398, Note_on_c, 0, 74, 47
2, 37399, Control_c, 0, 64, 0
2, 37401, Note_on_c, 0, 72, 37
2, 37403, Note_on_c, 0, 62, 20
2, 37405, Note_on_c, 0, 60, 20
2, 37406, Note_on_c, 0, 65, 17
2, 37412, Note_on_c, 0, 69, 13
2, 37422, Control_c, 0, 64, 127
2, 37426, Note_on_c, 0, 65, 0
2, 37439, Note_on_c, 0, 53, 0
2, 37457, Note_on_c, 0, 69, 0
2, 37463, Note_on_c, 0, 72, 0
2, 37464, Note_on_c, 0, 53, 44
2, 37467, Note_on_c, 0, 74, 0
2, 37472, Note_on_c, 0, 77, 0
2, 37490, Note_on_c, 0, 60, 0
2, 37506, Note_on_c, 0, 62, 0
2, 37529, Note_on_c, 0, 89, 78
2, 37537, Note_on_c, 0, 62, 24
2, 37537, Note_on_c, 0, 65, 33
2, 37538, Note_on_c, 0, 60, 27
2, 37543, Note_on_c, 0, 77, 37
2, 37564, Note_on_c, 0, 65, 0
2, 37571, Note_on_c, 0, 53, 0
2, 37612, Note_on_c, 0, 53, 36
2, 37615, Note_on_c, 0, 89, 0
2, 37630, Note_on_c, 0, 77, 0
2, 37744, Note_on_c, 0, 53, 0
2, 37782, Note_on_c, 0, 53, 34
2, 37811, Note_on_c, 0, 62, 0
2, 37818, Note_on_c, 0, 60, 0
2, 37891, Note_on_c, 0, 53, 0
2, 37948, Note_on_c, 0, 53, 26
2, 37990, Note_on_c, 0, 53, 0
2, 38057, Note_on_c, 0, 68, 63
2, 38059, Note_on_c, 0, 61, 54
2, 38059, Note_on_c, 0, 59, 52
2, 38060, Control_c, 0, 64, 0
2, 38062, Note_on_c, 0, 64, 46
2, 38062, Note_on_c, 0, 45, 35
2, 38085, Control_c, 0, 64, 127
2, 38107, Note_on_c, 0, 68, 0
2, 38116, Note_on_c, 0, 59, 0
2, 38117, Note_on_c, 0, 64, 0
2, 38131, Note_on_c, 0, 69, 75
2, 38134, Note_on_c, 0, 52, 26
2, 38139, Note_on_c, 0, 61, 0
2, 38149, Note_on_c, 0, 69, 0
2, 38261, Note_on_c, 0, 52, 0
2, 38274, Note_on_c, 0, 45, 0
2, 38274, Note_on_c, 0, 64, 42
2, 38276, Note_on_c, 0, 61, 42
2, 38278, Note_on_c, 0, 55, 30
2, 38278, Note_on_c, 0, 58, 38
2, 38282, Note_on_c, 0, 49, 30
2, 38283, Control_c, 0, 64, 0
2, 38308, Control_c, 0, 64, 127
2, 38323, Note_on_c, 0, 64, 0
2, 38324, Note_on_c, 0, 55, 0
2, 38327, Note_on_c, 0, 61, 0
2, 38330, Note_on_c, 0, 58, 0
2, 38370, Note_on_c, 0, 67, 47
2, 38371, Note_on_c, 0, 58, 54
2, 38373, Control_c, 0, 64, 0
2, 38373, Note_on_c, 0, 64, 43
2, 38376, Note_on_c, 0, 61, 38
2, 38380, Control_c, 0, 64, 127
2, 38380, Note_on_c, 0, 52, 28
2, 38386, Note_on_c, 0, 67, 0
2, 38389, Note_on_c, 0, 61, 0
2, 38389, Note_on_c, 0, 64, 0
2, 38389, Note_on_c, 0, 58, 0
2, 38431, Note_on_c, 0, 52, 0
2, 38432, Note_on_c, 0, 70, 62
2, 38433, Note_on_c, 0, 61, 48
2, 38435, Note_on_c, 0, 49, 0
2, 38437, Note_on_c, 0, 55, 47
2, 38438, Note_on_c, 0, 64, 42
2, 38442, Note_on_c, 0, 61, 0
2, 38443, Note_on_c, 0, 64, 0
2, 38451, Note_on_c, 0, 70, 0
2, 38497, Note_on_c, 0, 73, 53
2, 38498, Note_on_c, 0, 70, 46
2, 38499, Note_on_c, 0, 67, 40
2, 38501, Note_on_c, 0, 58, 34
2, 38504, Note_on_c, 0, 55, 0
2, 38515, Note_on_c, 0, 67, 0
2, 38517, Note_on_c, 0, 70, 0
2, 38519, Note_on_c, 0, 73, 0
2, 38565, Control_c, 0, 64, 0
2, 38566, Note_on_c, 0, 73, 56
2, 38567, Note_on_c, 0, 70, 49
2, 38568, Note_on_c, 0, 79, 36
2, 38570, Note_on_c, 0, 61, 36
2, 38582, Control_c, 0, 64, 127
2, 38590, Note_on_c, 0, 79, 0
2, 38596, Note_on_c, 0, 70, 0
2, 38599, Note_on_c, 0, 73, 0
2, 38642, Note_on_c, 0, 82, 61
2, 38643, Note_on_c, 0, 73, 46
2, 38647, Note_on_c, 0, 64, 33
2, 38654, Note_on_c, 0, 75, 20
2, 38670, Note_on_c, 0, 61, 0
2, 38776, Note_on_c, 0, 75, 0
2, 38780, Note_on_c, 0, 82, 0
2, 38784, Note_on_c, 0, 73, 0
2, 38826, Note_on_c, 0, 64, 0
2, 38830, Note_on_c, 0, 70, 38
2, 38830, Note_on_c, 0, 79, 41
2, 38833, Note_on_c, 0, 73, 42
2, 38835, Note_on_c, 0, 61, 33
2, 38845, Note_on_c, 0, 58, 0
2, 38871, Note_on_c, 0, 79, 0
2, 38880, Note_on_c, 0, 70, 0
2, 38880, Note_on_c, 0, 73, 0
2, 38937, Note_on_c, 0, 76, 44
2, 38938, Note_on_c, 0, 73, 37
2, 38939, Note_on_c, 0, 67, 18
2, 38940, Note_on_c, 0, 70, 35
2, 38941, Note_on_c, 0, 61, 0
2, 38943, Note_on_c, 0, 58, 23
2, 38974, Note_on_c, 0, 58, 0
2, 38988, Note_on_c, 0, 67, 0
2, 38992, Note_on_c, 0, 70, 0
2, 38996, Note_on_c, 0, 76, 0
2, 38999, Note_on_c, 0, 73, 0
2, 39235, Note_on_c, 0, 77, 54
2, 39244, Note_on_c, 0, 69, 45
2, 39252, Note_on_c, 0, 50, 40
2, 39253, Note_on_c, 0, 65, 28
2, 39254, Note_on_c, 0, 60, 26
2, 39256, Control_c, 0, 64, 0
2, 39282, Control_c, 0, 64, 127
2, 39296, Note_on_c, 0, 69, 0
2, 39303, Note_on_c, 0, 65, 0
2, 39303, Note_on_c, 0, 77, 0
2, 39340, Note_on_c, 0, 60, 0
2, 39345, Note_on_c, 0, 79, 44
2, 39346, Note_on_c, 0, 57, 33
2, 39350, Note_on_c, 0, 67, 37
2, 39382, Note_on_c, 0, 79, 0
2, 39384, Note_on_c, 0, 67, 0
2, 39448, Note_on_c, 0, 81, 58
2, 39450, Note_on_c, 0, 69, 50
2, 39462, Note_on_c, 0, 60, 6
2, 39481, Note_on_c, 0, 81, 0
2, 39488, Note_on_c, 0, 69, 0
2, 39503, Note_on_c, 0, 50, 0
2, 39533, Note_on_c, 0, 50, 41
2, 39533, Note_on_c, 0, 83, 60
2, 39534, Note_on_c, 0, 71, 47
2, 39552, Note_on_c, 0, 50, 0
2, 39559, Note_on_c, 0, 71, 0
2, 39560, Note_on_c, 0, 83, 0
2, 39619, Note_on_c, 0, 60, 0
2, 39619, Control_c, 0, 64, 0
2, 39619, Note_on_c, 0, 84, 61
2, 39620, Note_on_c, 0, 57, 0
2, 39622, Note_on_c, 0, 76, 51
2, 39623, Note_on_c, 0, 52, 53
2, 39625, Note_on_c, 0, 72, 36
2, 39643, Control_c, 0, 64, 127
2, 39704, Note_on_c, 0, 60, 47
2, 39721, Note_on_c, 0, 84, 0
2, 39726, Note_on_c, 0, 76, 0
2, 39732, Note_on_c, 0, 72, 0
2, 39795, Note_on_c, 0, 76, 33
2, 39799, Note_on_c, 0, 72, 36
2, 39799, Note_on_c, 0, 67, 31
2, 39801, Note_on_c, 0, 64, 35
2, 39870, Note_on_c, 0, 60, 0
2, 39903, Note_on_c, 0, 67, 0
2, 39909, Note_on_c, 0, 64, 0
2, 39963, Note_on_c, 0, 67, 31
2, 39967, Note_on_c, 0, 60, 26
2, 40019, Note_on_c, 0, 52, 0
2, 40040, Note_on_c, 0, 67, 0
2, 40061, Note_on_c, 0, 72, 0
2, 40080, Note_on_c, 0, 76, 0
2, 40082, Note_on_c, 0, 60, 0
2, 40223, Control_c, 0, 64, 0
2, 40225, Note_on_c, 0, 81, 62
2, 40225, Note_on_c, 0, 76, 59
2, 40226, Note_on_c, 0, 69, 58
2, 40227, Note_on_c, 0, 53, 35
2, 40229, Note_on_c, 0, 60, 33
2, 40244, Control_c, 0, 64, 127
2, 40255, Note_on_c, 0, 81, 0
2, 40263, Note_on_c, 0, 69, 0
2, 40284, Note_on_c, 0, 76, 0
2, 40292, Note_on_c, 0, 83, 74
2, 40295, Note_on_c, 0, 71, 37
2, 40298, Note_on_c, 0, 72, 29
2, 40299, Note_on_c, 0, 53, 0
2, 40302, Note_on_c, 0, 72, 0
2, 40307, Note_on_c, 0, 71, 0
2, 40314, Note_on_c, 0, 83, 0
2, 40364, Note_on_c, 0, 84, 63
2, 40364, Control_c, 0, 64, 0
2, 40365, Note_on_c, 0, 60, 0
2, 40365, Note_on_c, 0, 72, 49
2, 40365, Note_on_c, 0, 78, 42
2, 40365, Note_on_c, 0, 63, 36
2, 40365, Note_on_c, 0, 54, 46
2, 40365, Note_on_c, 0, 81, 55
2, 40394, Control_c, 0, 64, 127
2, 40408, Note_on_c, 0, 84, 0
2, 40411, Note_on_c, 0, 72, 0
2, 40420, Note_on_c, 0, 81, 0
2, 40425, Note_on_c, 0, 78, 0
2, 40500, Note_on_c, 0, 63, 0
2, 40503, Note_on_c, 0, 54, 0
2, 40568, Note_on_c, 0, 86, 55
2, 40569, Note_on_c, 0, 74, 43
2, 40598, Note_on_c, 0, 86, 0
2, 40616, Note_on_c, 0, 74, 0
2, 40747, Note_on_c, 0, 81, 54
2, 40752, Control_c, 0, 64, 0
2, 40752, Note_on_c, 0, 77, 35
2, 40752, Note_on_c, 0, 72, 32
2, 40753, Note_on_c, 0, 67, 30
2, 40777, Control_c, 0, 64, 127
2, 40813, Note_on_c, 0, 67, 0
2, 40813, Note_on_c, 0, 55, 43
2, 40820, Note_on_c, 0, 55, 0
2, 40880, Note_on_c, 0, 55, 51
2, 40885, Note_on_c, 0, 55, 0
2, 40950, Note_on_c, 0, 43, 40
2, 41035, Note_on_c, 0, 31, 40
2, 41113, Note_on_c, 0, 81, 0
2, 41118, Note_on_c, 0, 31, 0
2, 41124, Note_on_c, 0, 77, 0
2, 41131, Note_on_c, 0, 72, 0
2, 41142, Note_on_c, 0, 31, 31
2, 41171, Note_on_c, 0, 31, 0
2, 41176, Note_on_c, 0, 43, 0
2, 41353, Control_c, 0, 64, 127
2, 41391, Note_on_c, 0, 53, 45
2, 41405, Note_on_c, 0, 64, 68
2, 41411, Note_on_c, 0, 59, 45
2, 41415, Control_c, 0, 64, 0
2, 41418, Note_on_c, 0, 68, 67
2, 41428, Note_on_c, 0, 71, 69
2, 41465, Control_c, 0, 64, 127
2, 41607, Note_on_c, 0, 59, 0
2, 41614, Note_on_c, 0, 53, 0
2, 41645, Note_on_c, 0, 71, 0
2, 41667, Note_on_c, 0, 68, 0
2, 41667, Note_on_c, 0, 64, 0
2, 41976, Control_c, 0, 64, 0
2, 41984, Note_on_c, 0, 67, 24
2, 41985, Note_on_c, 0, 62, 20
2, 41985, Note_on_c, 0, 64, 31
2, 41986, Note_on_c, 0, 72, 43
2, 42039, Note_on_c, 0, 67, 0
2, 42081, Note_on_c, 0, 74, 66
2, 42086, Note_on_c, 0, 72, 0
2, 42104, Control_c, 0, 64, 127
2, 42115, Control_c, 0, 64, 0
2, 42131, Note_on_c, 0, 74, 0
2, 42133, Note_on_c, 0, 55, 52
2, 42134, Note_on_c, 0, 76, 69
2, 42148, Control_c, 0, 64, 127
2, 42149, Note_on_c, 0, 62, 0
2, 42152, Note_on_c, 0, 64, 0
2, 42215, Note_on_c, 0, 76, 0
2, 42226, Note_on_c, 0, 77, 59
2, 42249, Note_on_c, 0, 77, 0
2, 42281, Note_on_c, 0, 74, 66
2, 42283, Note_on_c, 0, 57, 24
2, 42284, Note_on_c, 0, 65, 40
2, 42285, Note_on_c, 0, 60, 46
2, 42285, Control_c, 0, 64, 0
2, 42309, Note_on_c, 0, 55, 0
2, 42313, Control_c, 0, 64, 127
2, 42351, Note_on_c, 0, 65, 0
2, 42351, Note_on_c, 0, 74, 0
2, 42360, Note_on_c, 0, 57, 0
2, 42366, Note_on_c, 0, 60, 0
2, 42380, Note_on_c, 0, 55, 58
2, 42390, Note_on_c, 0, 55, 0
2, 42435, Note_on_c, 0, 43, 33
2, 42436, Note_on_c, 0, 60, 51
2, 42438, Note_on_c, 0, 57, 38
2, 42438, Note_on_c, 0, 62, 26
2, 42439, Control_c, 0, 64, 0
2, 42439, Note_on_c, 0, 53, 18
2, 42469, Control_c, 0, 64, 127
2, 42486, Note_on_c, 0, 31, 46
2, 42493, Note_on_c, 0, 31, 0
2, 42504, Note_on_c, 0, 43, 0
2, 42515, Note_on_c, 0, 57, 0
2, 42530, Note_on_c, 0, 53, 0
2, 42535, Note_on_c, 0, 62, 0
2, 42535, Note_on_c, 0, 60, 0
2, 42597, Note_on_c, 0, 36, 40
2, 42600, Note_on_c, 0, 43, 31
2, 42602, Note_on_c, 0, 64, 30
2, 42607, Control_c, 0, 64, 0
2, 42616, Note_on_c, 0, 52, 9
2, 42633, Control_c, 0, 64, 127
2, 42641, Note_on_c, 0, 64, 0
2, 42650, Note_on_c, 0, 36, 0
2, 42660, Note_on_c, 0, 43, 0
2, 42664, Note_on_c, 0, 52, 0
2, 42698, Note_on_c, 0, 76, 68
2, 42751, Note_on_c, 0, 67, 37
2, 42753, Note_on_c, 0, 64, 27
2, 42754, Note_on_c, 0, 62, 24
2, 42780, Note_on_c, 0, 76, 0
2, 42786, Note_on_c, 0, 67, 0
2, 42801, Note_on_c, 0, 67, 37
2, 42809, Note_on_c, 0, 64, 0
2, 42811, Note_on_c, 0, 62, 0
2, 42816, Note_on_c, 0, 67, 0
2, 42852, Note_on_c, 0, 79, 87
2, 42904, Note_on_c, 0, 55, 40
2, 42904, Note_on_c, 0, 72, 53
2, 42907, Note_on_c, 0, 65, 37
2, 42908, Note_on_c, 0, 60, 44
2, 42911, Note_on_c, 0, 57, 27
2, 42913, Control_c, 0, 64, 0
2, 42931, Note_on_c, 0, 72, 0
2, 42938, Control_c, 0, 64, 127
2, 42957, Note_on_c, 0, 79, 0
2, 42957, Note_on_c, 0, 72, 49
2, 42974, Note_on_c, 0, 72, 0
2, 42999, Note_on_c, 0, 65, 0
2, 43008, Note_on_c, 0, 60, 0
2, 43011, Note_on_c, 0, 57, 0
2, 43015, Note_on_c, 0, 55, 0
2, 43060, Note_on_c, 0, 71, 35
2, 43062, Note_on_c, 0, 59, 31
2, 43063, Note_on_c, 0, 64, 24
2, 43064, Note_on_c, 0, 53, 26
2, 43066, Control_c, 0, 64, 0
2, 43088, Control_c, 0, 64, 127
2, 43122, Note_on_c, 0, 64, 0
2, 43123, Note_on_c, 0, 59, 0
2, 43132, Note_on_c, 0, 71, 0
2, 43136, Note_on_c, 0, 53, 0
2, 43221, Note_on_c, 0, 67, 34
2, 43222, Note_on_c, 0, 62, 24
2, 43224, Note_on_c, 0, 59, 29
2, 43225, Note_on_c, 0, 64, 24
2, 43227, Control_c, 0, 64, 0
2, 43228, Note_on_c, 0, 52, 35
2, 43254, Control_c, 0, 64, 127
2, 43303, Note_on_c, 0, 62, 0
2, 43305, Note_on_c, 0, 67, 0
2, 43307, Note_on_c, 0, 59, 0
2, 43321, Note_on_c, 0, 64, 0
2, 43382, Note_on_c, 0, 59, 30
2, 43384, Note_on_c, 0, 64, 62
2, 43400, Note_on_c, 0, 59, 0
2, 43421, Note_on_c, 0, 52, 0
2, 43427, Note_on_c, 0, 64, 0
2, 43433, Note_on_c, 0, 65, 75
2, 43459, Note_on_c, 0, 65, 0
2, 43468, Note_on_c, 0, 67, 60
2, 43484, Note_on_c, 0, 67, 0
2, 43501, Note_on_c, 0, 69, 74
2, 43513, Note_on_c, 0, 69, 0
2, 43542, Note_on_c, 0, 65, 54
2, 43545, Note_on_c, 0, 60, 60
2, 43545, Note_on_c, 0, 57, 38
2, 43549, Note_on_c, 0, 55, 32
2, 43554, Control_c, 0, 64, 0
2, 43593, Control_c, 0, 64, 127
2, 43597, Note_on_c, 0, 43, 62
2, 43658, Note_on_c, 0, 55, 0
2, 43663, Note_on_c, 0, 57, 0
2, 43664, Note_on_c, 0, 60, 0
2, 43704, Note_on_c, 0, 56, 34
2, 43705, Note_on_c, 0, 59, 49
2, 43707, Note_on_c, 0, 53, 34
2, 43711, Control_c, 0, 64, 0
2, 43730, Control_c, 0, 64, 127
2, 43747, Note_on_c, 0, 65, 0
2, 43751, Note_on_c, 0, 43, 0
2, 43772, Note_on_c, 0, 43, 57
2, 43777, Note_on_c, 0, 56, 0
2, 43786, Note_on_c, 0, 59, 0
2, 43819, Note_on_c, 0, 67, 64
2, 43848, Note_on_c, 0, 53, 0
2, 43849, Note_on_c, 0, 67, 0
2, 43867, Note_on_c, 0, 67, 60
2, 43870, Note_on_c, 0, 59, 60
2, 43871, Note_on_c, 0, 64, 55
2, 43872, Note_on_c, 0, 52, 44
2, 43874, Control_c, 0, 64, 0
2, 43909, Note_on_c, 0, 43, 0
2, 43916, Control_c, 0, 64, 127
2, 43928, Note_on_c, 0, 43, 64
2, 43969, Note_on_c, 0, 59, 0
2, 44027, Note_on_c, 0, 64, 0
2, 44033, Note_on_c, 0, 59, 51
2, 44036, Note_on_c, 0, 55, 36
2, 44048, Note_on_c, 0, 43, 0
2, 44053, Note_on_c, 0, 55, 0
2, 44059, Note_on_c, 0, 59, 0
2, 44065, Note_on_c, 0, 67, 0
2, 44070, Note_on_c, 0, 52, 0
2, 44125, Note_on_c, 0, 69, 84
2, 44127, Note_on_c, 0, 58, 75
2, 44127, Note_on_c, 0, 62, 76
2, 44127, Note_on_c, 0, 57, 72
2, 44128, Note_on_c, 0, 65, 70
2, 44132, Control_c, 0, 64, 0
2, 44146, Control_c, 0, 64, 127
2, 44154, Note_on_c, 0, 58, 0
2, 44155, Note_on_c, 0, 62, 0
2, 44157, Note_on_c, 0, 65, 0
2, 44161, Note_on_c, 0, 57, 0
2, 44161, Note_on_c, 0, 69, 0
2, 44192, Note_on_c, 0, 72, 77
2, 44192, Note_on_c, 0, 60, 76
2, 44192, Note_on_c, 0, 65, 74
2, 44193, Note_on_c, 0, 62, 74
2, 44193, Note_on_c, 0, 69, 74
2, 44198, Control_c, 0, 64, 0
2, 44218, Control_c, 0, 64, 127
2, 44228, Note_on_c, 0, 65, 0
2, 44231, Note_on_c, 0, 69, 0
2, 44232, Note_on_c, 0, 62, 0
2, 44234, Note_on_c, 0, 72, 0
2, 44235, Note_on_c, 0, 60, 0
2, 44266, Note_on_c, 0, 73, 62
2, 44267, Note_on_c, 0, 70, 57
2, 44267, Note_on_c, 0, 68, 59
2, 44268, Note_on_c, 0, 61, 48
2, 44268, Note_on_c, 0, 64, 52
2, 44276, Control_c, 0, 64, 0
2, 44295, Control_c, 0, 64, 127
2, 44306, Note_on_c, 0, 61, 0
2, 44315, Note_on_c, 0, 64, 0
2, 44317, Note_on_c, 0, 68, 0
2, 44320, Note_on_c, 0, 70, 0
2, 44320, Note_on_c, 0, 73, 0
2, 44407, Note_on_c, 0, 75, 57
2, 44408, Note_on_c, 0, 68, 52
2, 44408, Note_on_c, 0, 58, 35
2, 44409, Note_on_c, 0, 48, 42
2, 44410, Note_on_c, 0, 64, 34
2, 44411, Note_on_c, 0, 70, 47
2, 44414, Control_c, 0, 64, 0
2, 44423, Note_on_c, 0, 58, 0
2, 44425, Note_on_c, 0, 48, 0
2, 44430, Control_c, 0, 64, 127
2, 44458, Note_on_c, 0, 73, 65
2, 44467, Note_on_c, 0, 75, 0
2, 44471, Note_on_c, 0, 64, 0
2, 44473, Note_on_c, 0, 68, 0
2, 44479, Note_on_c, 0, 73, 0
2, 44480, Note_on_c, 0, 70, 0
2, 44510, Note_on_c, 0, 41, 44
2, 44511, Note_on_c, 0, 64, 47
2, 44512, Note_on_c, 0, 72, 47
2, 44518, Note_on_c, 0, 69, 22
2, 44520, Control_c, 0, 64, 0
2, 44541, Control_c, 0, 64, 127
2, 44549, Note_on_c, 0, 41, 0
2, 44575, Note_on_c, 0, 64, 0
2, 44619, Note_on_c, 0, 69, 0
2, 44620, Note_on_c, 0, 72, 0
2, 44668, Note_on_c, 0, 64, 31
2, 44669, Note_on_c, 0, 60, 29
2, 44671, Note_on_c, 0, 53, 19
2, 44672, Note_on_c, 0, 65, 46
2, 44673, Note_on_c, 0, 57, 26
2, 44698, Note_on_c, 0, 65, 0
2, 44722, Note_on_c, 0, 67, 63
2, 44723, Note_on_c, 0, 64, 0
2, 44754, Note_on_c, 0, 67, 0
2, 44761, Note_on_c, 0, 57, 0
2, 44762, Note_on_c, 0, 69, 50
2, 44764, Note_on_c, 0, 53, 0
2, 44782, Note_on_c, 0, 69, 0
2, 44782, Note_on_c, 0, 60, 0
2, 44804, Note_on_c, 0, 70, 50
2, 44837, Note_on_c, 0, 70, 0
2, 44843, Control_c, 0, 64, 0
2, 44843, Note_on_c, 0, 63, 33
2, 44843, Note_on_c, 0, 67, 38
2, 44845, Note_on_c, 0, 53, 31
2, 44868, Control_c, 0, 64, 127
2, 44880, Note_on_c, 0, 63, 0
2, 44884, Note_on_c, 0, 74, 61
2, 44889, Note_on_c, 0, 60, 43
2, 44908, Note_on_c, 0, 67, 0
2, 44913, Note_on_c, 0, 74, 0
2, 44925, Note_on_c, 0, 63, 56
2, 44925, Note_on_c, 0, 67, 33
2, 44933, Note_on_c, 0, 63, 0
2, 44937, Note_on_c, 0, 67, 0
2, 44966, Note_on_c, 0, 63, 38
2, 44972, Note_on_c, 0, 84, 68
2, 44979, Note_on_c, 0, 60, 0
2, 44981, Note_on_c, 0, 63, 0
2, 44985, Note_on_c, 0, 53, 0
2, 44989, Note_on_c, 0, 84, 0
2, 45017, Note_on_c, 0, 74, 38
2, 45017, Note_on_c, 0, 81, 59
2, 45018, Note_on_c, 0, 78, 32
2, 45020, Note_on_c, 0, 51, 36
2, 45021, Note_on_c, 0, 62, 17
2, 45023, Note_on_c, 0, 57, 32
2, 45024, Control_c, 0, 64, 0
2, 45053, Control_c, 0, 64, 127
2, 45064, Note_on_c, 0, 78, 0
2, 45076, Note_on_c, 0, 78, 44
2, 45085, Note_on_c, 0, 57, 0
2, 45092, Note_on_c, 0, 74, 0
2, 45099, Note_on_c, 0, 51, 0
2, 45111, Note_on_c, 0, 62, 0
2, 45114, Note_on_c, 0, 78, 0
2, 45116, Note_on_c, 0, 81, 0
2, 45133, Note_on_c, 0, 78, 46
2, 45159, Note_on_c, 0, 78, 0
2, 45179, Note_on_c, 0, 65, 29
2, 45180, Note_on_c, 0, 77, 46
2, 45181, Note_on_c, 0, 62, 24
2, 45182, Control_c, 0, 64, 0
2, 45183, Note_on_c, 0, 60, 29
2, 45202, Note_on_c, 0, 65, 0
2, 45203, Control_c, 0, 64, 127
2, 45207, Note_on_c, 0, 77, 0
2, 45264, Note_on_c, 0, 53, 38
2, 45296, Note_on_c, 0, 60, 0
2, 45297, Note_on_c, 0, 62, 0
2, 45337, Note_on_c, 0, 81, 80
2, 45341, Note_on_c, 0, 77, 58
2, 45341, Note_on_c, 0, 60, 40
2, 45342, Note_on_c, 0, 62, 43
2, 45342, Note_on_c, 0, 74, 68
2, 45343, Note_on_c, 0, 65, 48
2, 45345, Note_on_c, 0, 69, 64
2, 45358, Note_on_c, 0, 65, 0
2, 45365, Note_on_c, 0, 69, 0
2, 45372, Note_on_c, 0, 81, 0
2, 45376, Note_on_c, 0, 53, 0
2, 45377, Note_on_c, 0, 77, 0
2, 45379, Note_on_c, 0, 74, 0
2, 45407, Note_on_c, 0, 70, 33
2, 45412, Note_on_c, 0, 74, 57
2, 45416, Note_on_c, 0, 77, 53
2, 45417, Note_on_c, 0, 82, 75
2, 45419, Note_on_c, 0, 53, 35
2, 45424, Note_on_c, 0, 60, 0
2, 45426, Note_on_c, 0, 62, 0
2, 45436, Note_on_c, 0, 82, 0
2, 45437, Note_on_c, 0, 77, 0
2, 45437, Note_on_c, 0, 74, 0
2, 45442, Note_on_c, 0, 53, 0
2, 45445, Note_on_c, 0, 70, 0
2, 45488, Note_on_c, 0, 77, 67
2, 45492, Note_on_c, 0, 56, 37
2, 45494, Note_on_c, 0, 61, 38
2, 45495, Note_on_c, 0, 72, 45
2, 45496, Note_on_c, 0, 60, 40
2, 45498, Note_on_c, 0, 65, 54
2, 45502, Control_c, 0, 64, 0
2, 45526, Control_c, 0, 64, 127
2, 45539, Note_on_c, 0, 56, 0
2, 45557, Note_on_c, 0, 60, 0
2, 45557, Note_on_c, 0, 56, 30
2, 45564, Note_on_c, 0, 72, 0
2, 45580, Note_on_c, 0, 65, 0
2, 45601, Note_on_c, 0, 56, 0
2, 45617, Note_on_c, 0, 61, 0
2, 45644, Note_on_c, 0, 77, 0
2, 45656, Note_on_c, 0, 73, 35
2, 45657, Note_on_c, 0, 67, 29
2, 45657, Note_on_c, 0, 61, 27
2, 45658, Note_on_c, 0, 55, 37
2, 45660, Note_on_c, 0, 64, 24
2, 45660, Note_on_c, 0, 71, 34
2, 45664, Control_c, 0, 64, 0
2, 45682, Control_c, 0, 64, 127
2, 45706, Note_on_c, 0, 71, 0
2, 45706, Note_on_c, 0, 64, 0
2, 45708, Note_on_c, 0, 73, 0
2, 45711, Note_on_c, 0, 67, 0
2, 45718, Note_on_c, 0, 61, 0
2, 45727, Note_on_c, 0, 55, 0
2, 45814, Note_on_c, 0, 51, 39
2, 45815, Note_on_c, 0, 67, 43
2, 45816, Note_on_c, 0, 59, 55
2, 45817, Note_on_c, 0, 55, 50
2, 45817, Note_on_c, 0, 62, 38
2, 45818, Note_on_c, 0, 44, 35
2, 45823, Control_c, 0, 64, 0
2, 45843, Control_c, 0, 64, 127
2, 45855, Note_on_c, 0, 67, 0
2, 45856, Note_on_c, 0, 62, 0
2, 45856, Note_on_c, 0, 55, 0
2, 45859, Note_on_c, 0, 59, 0
2, 45898, Note_on_c, 0, 51, 0
2, 45903, Note_on_c, 0, 68, 68
2, 45904, Note_on_c, 0, 63, 57
2, 45905, Note_on_c, 0, 56, 47
2, 45905, Note_on_c, 0, 60, 68
2, 45907, Note_on_c, 0, 53, 36
2, 45919, Control_c, 0, 64, 0
2, 45940, Control_c, 0, 64, 127
2, 46040, Note_on_c, 0, 68, 0
2, 46052, Note_on_c, 0, 63, 0
2, 46055, Note_on_c, 0, 60, 0
2, 46079, Note_on_c, 0, 53, 0
2, 46080, Note_on_c, 0, 56, 0
2, 46085, Note_on_c, 0, 63, 60
2, 46112, Note_on_c, 0, 63, 0
2, 46155, Note_on_c, 0, 63, 55
2, 46158, Note_on_c, 0, 44, 0
2, 46171, Note_on_c, 0, 63, 0
2, 46232, Note_on_c, 0, 72, 74
2, 46236, Note_on_c, 0, 68, 62
2, 46239, Note_on_c, 0, 61, 43
2, 46239, Note_on_c, 0, 65, 55
2, 46248, Note_on_c, 0, 60, 36
2, 46250, Control_c, 0, 64, 0
2, 46280, Control_c, 0, 64, 127
2, 46300, Note_on_c, 0, 61, 0
2, 46324, Note_on_c, 0, 61, 46
2, 46351, Note_on_c, 0, 65, 0
2, 46359, Note_on_c, 0, 61, 0
2, 46367, Note_on_c, 0, 60, 0
2, 46395, Note_on_c, 0, 72, 0
2, 46402, Note_on_c, 0, 68, 0
2, 46411, Note_on_c, 0, 60, 55
2, 46481, Note_on_c, 0, 67, 38
2, 46482, Note_on_c, 0, 50, 46
2, 46482, Note_on_c, 0, 60, 47
2, 46488, Note_on_c, 0, 60, 0
2, 46495, Control_c, 0, 64, 0
2, 46523, Control_c, 0, 64, 127
2, 46561, Note_on_c, 0, 56, 34
2, 46598, Note_on_c, 0, 60, 0
2, 46612, Note_on_c, 0, 56, 0
2, 46646, Note_on_c, 0, 56, 30
2, 46670, Note_on_c, 0, 56, 0
2, 46686, Note_on_c, 0, 50, 0
2, 46702, Note_on_c, 0, 60, 54
2, 46713, Note_on_c, 0, 67, 0
2, 46732, Note_on_c, 0, 60, 0
2, 46747, Note_on_c, 0, 63, 42
2, 46787, Note_on_c, 0, 63, 0
2, 46804, Note_on_c, 0, 62, 37
2, 46804, Note_on_c, 0, 57, 28
2, 46806, Note_on_c, 0, 60, 43
2, 46807, Note_on_c, 0, 53, 24
2, 46808, Note_on_c, 0, 43, 28
2, 46813, Control_c, 0, 64, 0
2, 46841, Control_c, 0, 64, 127
2, 46858, Note_on_c, 0, 60, 0
2, 46868, Note_on_c, 0, 60, 33
2, 46885, Note_on_c, 0, 53, 0
2, 46899, Note_on_c, 0, 60, 0
2, 46904, Note_on_c, 0, 62, 0
2, 46911, Note_on_c, 0, 57, 0
2, 46971, Note_on_c, 0, 59, 44
2, 46972, Note_on_c, 0, 53, 28
2, 46973, Note_on_c, 0, 57, 24
2, 46976, Control_c, 0, 64, 0
2, 46987, Control_c, 0, 64, 127
2, 46993, Note_on_c, 0, 43, 0
2, 47007, Note_on_c, 0, 53, 0
2, 47008, Note_on_c, 0, 57, 0
2, 47011, Note_on_c, 0, 60, 69
2, 47020, Note_on_c, 0, 59, 0
2, 47047, Note_on_c, 0, 60, 0
2, 47051, Note_on_c, 0, 62, 64
2, 47067, Note_on_c, 0, 62, 0
2, 47086, Note_on_c, 0, 64, 59
2, 47130, Note_on_c, 0, 60, 74
2, 47133, Control_c, 0, 64, 0
2, 47165, Control_c, 0, 64, 127
2, 47195, Note_on_c, 0, 60, 0
2, 47200, Note_on_c, 0, 62, 69
2, 47201, Note_on_c, 0, 60, 35
2, 47203, Note_on_c, 0, 59, 77
2, 47209, Note_on_c, 0, 64, 0
2, 47212, Control_c, 0, 64, 0
2, 47235, Control_c, 0, 64, 127
2, 47262, Note_on_c, 0, 60, 0
2, 47271, Note_on_c, 0, 62, 0
2, 47277, Note_on_c, 0, 58, 69
2, 47278, Note_on_c, 0, 60, 71
2, 47278, Note_on_c, 0, 64, 78
2, 47281, Note_on_c, 0, 59, 0
2, 47286, Control_c, 0, 64, 0
2, 47310, Control_c, 0, 64, 127
2, 47334, Note_on_c, 0, 60, 0
2, 47342, Note_on_c, 0, 64, 0
2, 47352, Note_on_c, 0, 65, 74
2, 47352, Note_on_c, 0, 62, 76
2, 47355, Control_c, 0, 64, 0
2, 47355, Note_on_c, 0, 57, 51
2, 47357, Note_on_c, 0, 58, 0
2, 47375, Control_c, 0, 64, 127
2, 47381, Note_on_c, 0, 57, 0
2, 47384, Note_on_c, 0, 65, 0
2, 47388, Note_on_c, 0, 62, 0
2, 47432, Note_on_c, 0, 62, 55
2, 47433, Note_on_c, 0, 53, 51
2, 47434, Note_on_c, 0, 58, 53
2, 47435, Control_c, 0, 64, 0
2, 47435, Note_on_c, 0, 54, 53
2, 47438, Note_on_c, 0, 44, 33
2, 47460, Control_c, 0, 64, 127
2, 47536, Note_on_c, 0, 54, 0
2, 47537, Note_on_c, 0, 53, 0
2, 47559, Note_on_c, 0, 44, 0
2, 47559, Note_on_c, 0, 58, 0
2, 47567, Note_on_c, 0, 62, 0
2, 47603, Note_on_c, 0, 62, 35
2, 47603, Note_on_c, 0, 56, 27
2, 47604, Note_on_c, 0, 59, 33
2, 47606, Note_on_c, 0, 43, 31
2, 47608, Note_on_c, 0, 53, 24
2, 47612, Control_c, 0, 64, 0
2, 47641, Control_c, 0, 64, 127
2, 47659, Note_on_c, 0, 62, 0
2, 47660, Note_on_c, 0, 59, 0
2, 47663, Note_on_c, 0, 56, 0
2, 47674, Note_on_c, 0, 53, 0
2, 47701, Note_on_c, 0, 59, 48
2, 47701, Note_on_c, 0, 56, 37
2, 47701, Note_on_c, 0, 64, 42
2, 47702, Note_on_c, 0, 53, 31
2, 47732, Note_on_c, 0, 56, 0
2, 47736, Note_on_c, 0, 59, 0
2, 47747, Note_on_c, 0, 53, 0
2, 47748, Note_on_c, 0, 64, 0
2, 47781, Note_on_c, 0, 62, 37
2, 47784, Note_on_c, 0, 52, 35
2, 47784, Note_on_c, 0, 64, 37
2, 47787, Note_on_c, 0, 57, 20
2, 47787, Note_on_c, 0, 59, 37
2, 47791, Control_c, 0, 64, 0
2, 47819, Note_on_c, 0, 43, 0
2, 47834, Control_c, 0, 64, 127
2, 47840, Note_on_c, 0, 43, 36
2, 47874, Note_on_c, 0, 57, 0
2, 47875, Note_on_c, 0, 59, 0
2, 47877, Note_on_c, 0, 64, 0
2, 47878, Note_on_c, 0, 62, 0
2, 47941, Note_on_c, 0, 71, 66
2, 47963, Note_on_c, 0, 71, 0
2, 47988, Note_on_c, 0, 71, 64
2, 48004, Note_on_c, 0, 52, 0
2, 48033, Note_on_c, 0, 67, 35
2, 48035, Note_on_c, 0, 64, 32
2, 48072, Note_on_c, 0, 64, 0
2, 48081, Note_on_c, 0, 67, 0
2, 48089, Note_on_c, 0, 71, 0
2, 48098, Note_on_c, 0, 55, 72
2, 48184, Note_on_c, 0, 76, 80
2, 48184, Note_on_c, 0, 69, 81
2, 48198, Note_on_c, 0, 43, 0
2, 48217, Note_on_c, 0, 69, 0
2, 48222, Note_on_c, 0, 76, 0
2, 48232, Note_on_c, 0, 72, 62
2, 48234, Note_on_c, 0, 65, 49
2, 48278, Note_on_c, 0, 65, 0
2, 48281, Note_on_c, 0, 72, 0
2, 48281, Note_on_c, 0, 55, 0
2, 48281, Note_on_c, 0, 43, 57
2, 48284, Control_c, 0, 64, 0
2, 48286, Note_on_c, 0, 43, 0
2, 48295, Control_c, 0, 64, 127
2, 48340, Note_on_c, 0, 68, 53
2, 48340, Note_on_c, 0, 71, 54
2, 48340, Note_on_c, 0, 64, 47
2, 48343, Note_on_c, 0, 63, 46
2, 48343, Note_on_c, 0, 59, 51
2, 48351, Note_on_c, 0, 53, 15
2, 48357, Control_c, 0, 64, 0
2, 48364, Control_c, 0, 64, 127
2, 48385, Note_on_c, 0, 59, 0
2, 48389, Note_on_c, 0, 63, 0
2, 48390, Note_on_c, 0, 53, 0
2, 48392, Note_on_c, 0, 64, 0
2, 48404, Note_on_c, 0, 71, 0
2, 48410, Note_on_c, 0, 68, 0
2, 48450, Control_c, 0, 64, 0
2, 48450, Note_on_c, 0, 67, 38
2, 48452, Note_on_c, 0, 64, 35
2, 48453, Note_on_c, 0, 62, 30
2, 48453, Note_on_c, 0, 52, 30
2, 48453, Note_on_c, 0, 57, 31
2, 48458, Note_on_c, 0, 64, 0
2, 48459, Note_on_c, 0, 52, 0
2, 48460, Note_on_c, 0, 57, 0
2, 48461, Control_c, 0, 64, 127
2, 48463, Note_on_c, 0, 67, 0
2, 48466, Note_on_c, 0, 62, 0
2, 48538, Note_on_c, 0, 77, 87
2, 48539, Note_on_c, 0, 68, 71
2, 48539, Note_on_c, 0, 63, 56
2, 48540, Note_on_c, 0, 57, 58
2, 48541, Note_on_c, 0, 61, 55
2, 48549, Control_c, 0, 64, 0
2, 48558, Control_c, 0, 64, 127
2, 48572, Note_on_c, 0, 57, 0
2, 48572, Note_on_c, 0, 68, 0
2, 48586, Note_on_c, 0, 61, 0
2, 48586, Note_on_c, 0, 63, 0
2, 48592, Note_on_c, 0, 77, 0
2, 48615, Note_on_c, 0, 79, 75
2, 48616, Note_on_c, 0, 62, 62
2, 48617, Note_on_c, 0, 67, 65
2, 48618, Note_on_c, 0, 56, 64
2, 48621, Control_c, 0, 64, 0
2, 48642, Control_c, 0, 64, 127
2, 48654, Note_on_c, 0, 67, 0
2, 48654, Note_on_c, 0, 79, 0
2, 48658, Note_on_c, 0, 62, 0
2, 48667, Note_on_c, 0, 56, 0
2, 48691, Note_on_c, 0, 66, 59
2, 48691, Note_on_c, 0, 55, 65
2, 48692, Note_on_c, 0, 61, 56
2, 48692, Note_on_c, 0, 81, 80
2, 48693, Control_c, 0, 64, 0
2, 48699, Note_on_c, 0, 77, 40
2, 48711, Control_c, 0, 64, 127
2, 48713, Note_on_c, 0, 77, 0
2, 48719, Note_on_c, 0, 81, 0
2, 48725, Note_on_c, 0, 66, 0
2, 48728, Note_on_c, 0, 55, 0
2, 48743, Note_on_c, 0, 61, 0
2, 48773, Note_on_c, 0, 77, 58
2, 48774, Note_on_c, 0, 70, 43
2, 48775, Note_on_c, 0, 54, 55
2, 48775, Note_on_c, 0, 74, 45
2, 48775, Note_on_c, 0, 60, 42
2, 48776, Note_on_c, 0, 65, 45
2, 48779, Control_c, 0, 64, 0
2, 48802, Control_c, 0, 64, 127
2, 48865, Note_on_c, 0, 65, 0
2, 48868, Note_on_c, 0, 60, 0
2, 48879, Note_on_c, 0, 70, 0
2, 48885, Note_on_c, 0, 54, 0
2, 48912, Note_on_c, 0, 77, 0
2, 48916, Note_on_c, 0, 74, 0
2, 48932, Note_on_c, 0, 71, 35
2, 48933, Note_on_c, 0, 59, 34
2, 48933, Note_on_c, 0, 65, 44
2, 48934, Note_on_c, 0, 53, 37
2, 48936, Note_on_c, 0, 62, 26
2, 48941, Control_c, 0, 64, 0
2, 48956, Control_c, 0, 64, 127
2, 48958, Note_on_c, 0, 62, 0
2, 48962, Note_on_c, 0, 71, 0
2, 48962, Note_on_c, 0, 59, 0
2, 48967, Note_on_c, 0, 65, 0
2, 48968, Note_on_c, 0, 53, 0
2, 49068, Note_on_c, 0, 67, 51
2, 49083, Note_on_c, 0, 67, 0
2, 49100, Note_on_c, 0, 43, 12
2, 49106, Note_on_c, 0, 67, 43
2, 49109, Note_on_c, 0, 57, 42
2, 49109, Note_on_c, 0, 62, 36
2, 49110, Control_c, 0, 64, 0
2, 49111, Note_on_c, 0, 52, 31
2, 49118, Note_on_c, 0, 67, 0
2, 49120, Note_on_c, 0, 57, 0
2, 49122, Note_on_c, 0, 62, 0
2, 49142, Note_on_c, 0, 66, 37
2, 49143, Note_on_c, 0, 52, 0
2, 49148, Note_on_c, 0, 51, 19
2, 49152, Note_on_c, 0, 61, 19
2, 49159, Note_on_c, 0, 66, 0
2, 49161, Note_on_c, 0, 61, 0
2, 49176, Note_on_c, 0, 51, 0
2, 49179, Note_on_c, 0, 67, 34
2, 49180, Note_on_c, 0, 57, 44
2, 49180, Note_on_c, 0, 62, 41
2, 49182, Note_on_c, 0, 52, 35
2, 49209, Control_c, 0, 64, 127
2, 49225, Note_on_c, 0, 57, 0
2, 49231, Note_on_c, 0, 62, 0
2, 49236, Note_on_c, 0, 67, 0
2, 49249, Note_on_c, 0, 43, 0
2, 49260, Note_on_c, 0, 52, 0
2, 49320, Note_on_c, 0, 74, 84
2, 49342, Note_on_c, 0, 74, 0
2, 49353, Note_on_c, 0, 72, 72
2, 49369, Note_on_c, 0, 72, 0
2, 49398, Note_on_c, 0, 62, 28
2, 49399, Note_on_c, 0, 69, 41
2, 49400, Control_c, 0, 64, 0
2, 49400, Note_on_c, 0, 65, 39
2, 49401, Note_on_c, 0, 58, 26
2, 49403, Note_on_c, 0, 48, 30
2, 49421, Control_c, 0, 64, 127
2, 49424, Note_on_c, 0, 69, 0
2, 49428, Note_on_c, 0, 65, 0
2, 49438, Note_on_c, 0, 62, 0
2, 49453, Note_on_c, 0, 58, 0
2, 49501, Note_on_c, 0, 62, 54
2, 49517, Note_on_c, 0, 48, 0
2, 49518, Note_on_c, 0, 62, 0
2, 49600, Note_on_c, 0, 48, 34
2, 49601, Note_on_c, 0, 65, 55
2, 49601, Note_on_c, 0, 62, 38
2, 49601, Note_on_c, 0, 58, 30
2, 49602, Note_on_c, 0, 57, 26
2, 49602, Control_c, 0, 64, 0
2, 49619, Control_c, 0, 64, 127
2, 49622, Note_on_c, 0, 57, 0
2, 49626, Note_on_c, 0, 62, 0
2, 49626, Note_on_c, 0, 65, 0
2, 49635, Note_on_c, 0, 58, 0
2, 49654, Note_on_c, 0, 58, 32
2, 49656, Note_on_c, 0, 64, 39
2, 49656, Note_on_c, 0, 61, 46
2, 49657, Note_on_c, 0, 55, 27
2, 49660, Note_on_c, 0, 48, 0
2, 49662, Note_on_c, 0, 55, 0
2, 49679, Note_on_c, 0, 64, 0
2, 49684, Note_on_c, 0, 58, 0
2, 49689, Note_on_c, 0, 61, 0
2, 49705, Control_c, 0, 64, 0
2, 49710, Note_on_c, 0, 60, 49
2, 49712, Note_on_c, 0, 41, 43
2, 49713, Note_on_c, 0, 57, 33
2, 49730, Control_c, 0, 64, 127
2, 49731, Note_on_c, 0, 57, 0
2, 49740, Note_on_c, 0, 60, 0
2, 49753, Note_on_c, 0, 48, 55
2, 49766, Note_on_c, 0, 41, 0
2, 49783, Note_on_c, 0, 48, 0
2, 49792, Note_on_c, 0, 57, 58
2, 49797, Note_on_c, 0, 57, 0
2, 49827, Note_on_c, 0, 60, 51
2, 49865, Note_on_c, 0, 65, 95
2, 49869, Note_on_c, 0, 64, 62
2, 49897, Note_on_c, 0, 60, 0
2, 49906, Note_on_c, 0, 67, 80
2, 49909, Note_on_c, 0, 60, 53
2, 49912, Note_on_c, 0, 64, 0
2, 49915, Note_on_c, 0, 65, 0
2, 49932, Note_on_c, 0, 60, 0
2, 49943, Note_on_c, 0, 69, 80
2, 49952, Note_on_c, 0, 67, 0
2, 49964, Note_on_c, 0, 69, 0
2, 49979, Note_on_c, 0, 71, 58
2, 49998, Note_on_c, 0, 71, 0
2, 50017, Note_on_c, 0, 58, 33
2, 50018, Note_on_c, 0, 62, 36
2, 50018, Note_on_c, 0, 67, 46
2, 50019, Note_on_c, 0, 63, 50
2, 50021, Note_on_c, 0, 48, 34
2, 50022, Control_c, 0, 64, 0
2, 50050, Control_c, 0, 64, 127
2, 50068, Note_on_c, 0, 55, 50
2, 50080, Note_on_c, 0, 62, 0
2, 50083, Note_on_c, 0, 58, 0
2, 50087, Note_on_c, 0, 55, 0
2, 50093, Note_on_c, 0, 48, 0
2, 50120, Note_on_c, 0, 63, 0
2, 50126, Note_on_c, 0, 67, 0
2, 50182, Note_on_c, 0, 51, 32
2, 50182, Note_on_c, 0, 62, 38
2, 50184, Note_on_c, 0, 57, 35
2, 50185, Note_on_c, 0, 41, 29
2, 50190, Control_c, 0, 64, 0
2, 50207, Note_on_c, 0, 57, 0
2, 50210, Control_c, 0, 64, 127
2, 50221, Note_on_c, 0, 62, 0
2, 50231, Note_on_c, 0, 41, 0
2, 50246, Note_on_c, 0, 51, 0
2, 50293, Note_on_c, 0, 84, 92
2, 50322, Note_on_c, 0, 81, 74
2, 50333, Note_on_c, 0, 84, 0
2, 50338, Note_on_c, 0, 81, 0
2, 50350, Note_on_c, 0, 81, 68
2, 50354, Note_on_c, 0, 65, 33
2, 50356, Note_on_c, 0, 62, 35
2, 50358, Note_on_c, 0, 60, 44
2, 50361, Control_c, 0, 64, 0
2, 50370, Note_on_c, 0, 81, 0
2, 50375, Control_c, 0, 64, 127
2, 50378, Note_on_c, 0, 65, 0
2, 50379, Note_on_c, 0, 74, 41
2, 50393, Note_on_c, 0, 74, 0
2, 50408, Note_on_c, 0, 74, 31
2, 50420, Note_on_c, 0, 74, 0
2, 50433, Note_on_c, 0, 77, 67
2, 50445, Note_on_c, 0, 77, 0
2, 50462, Note_on_c, 0, 77, 44
2, 50474, Note_on_c, 0, 77, 0
2, 50514, Note_on_c, 0, 70, 37
2, 50521, Note_on_c, 0, 70, 0
2, 50521, Note_on_c, 0, 53, 33
2, 50583, Note_on_c, 0, 72, 71
2, 50587, Note_on_c, 0, 62, 0
2, 50601, Note_on_c, 0, 72, 0
2, 50606, Note_on_c, 0, 53, 0
2, 50615, Note_on_c, 0, 60, 0
2, 50615, Note_on_c, 0, 72, 57
2, 50632, Note_on_c, 0, 72, 0
2, 50639, Note_on_c, 0, 69, 42
2, 50651, Note_on_c, 0, 69, 0
2, 50660, Note_on_c, 0, 70, 59
2, 50675, Note_on_c, 0, 70, 0
2, 50683, Note_on_c, 0, 72, 48
2, 50686, Note_on_c, 0, 61, 39
2, 50686, Note_on_c, 0, 65, 31
2, 50689, Note_on_c, 0, 56, 30
2, 50689, Note_on_c, 0, 60, 33
2, 50692, Control_c, 0, 64, 0
2, 50732, Control_c, 0, 64, 127
2, 50740, Note_on_c, 0, 73, 42
2, 50745, Note_on_c, 0, 72, 0
2, 50754, Note_on_c, 0, 73, 0
2, 50765, Note_on_c, 0, 75, 55
2, 50770, Note_on_c, 0, 75, 0
2, 50774, Control_c, 0, 64, 0
2, 50780, Note_on_c, 0, 65, 0
2, 50782, Note_on_c, 0, 76, 46
2, 50788, Note_on_c, 0, 60, 0
2, 50791, Note_on_c, 0, 76, 0
2, 50801, Note_on_c, 0, 78, 37
2, 50806, Note_on_c, 0, 78, 0
2, 50809, Note_on_c, 0, 61, 0
2, 50819, Note_on_c, 0, 79, 40
2, 50832, Note_on_c, 0, 56, 0
2, 50837, Note_on_c, 0, 79, 0
2, 50841, Note_on_c, 0, 80, 51
2, 50846, Note_on_c, 0, 80, 0
2, 50863, Note_on_c, 0, 61, 39
2, 50865, Note_on_c, 0, 64, 29
2, 50867, Note_on_c, 0, 55, 31
2, 50877, Note_on_c, 0, 64, 0
2, 50882, Note_on_c, 0, 55, 0
2, 50892, Note_on_c, 0, 61, 0
2, 50897, Note_on_c, 0, 82, 57
2, 50906, Control_c, 0, 64, 127
2, 50910, Note_on_c, 0, 82, 0
2, 50920, Note_on_c, 0, 83, 45
2, 50933, Note_on_c, 0, 83, 0
2, 50943, Note_on_c, 0, 84, 51
2, 50955, Note_on_c, 0, 84, 0
2, 50967, Note_on_c, 0, 86, 60
2, 50979, Note_on_c, 0, 86, 0
2, 50993, Note_on_c, 0, 87, 67
2, 51005, Note_on_c, 0, 87, 0
2, 51020, Note_on_c, 0, 89, 76
2, 51027, Note_on_c, 0, 51, 44
2, 51031, Note_on_c, 0, 44, 33
2, 51036, Control_c, 0, 64, 0
2, 51037, Note_on_c, 0, 89, 0
2, 51059, Note_on_c, 0, 90, 63
2, 51060, Note_on_c, 0, 78, 52
2, 51069, Control_c, 0, 64, 127
2, 51072, Note_on_c, 0, 78, 0
2, 51073, Note_on_c, 0, 91, 28
2, 51075, Note_on_c, 0, 79, 58
2, 51079, Note_on_c, 0, 90, 0
2, 51082, Note_on_c, 0, 89, 24
2, 51088, Note_on_c, 0, 89, 0
2, 51089, Note_on_c, 0, 91, 0
2, 51098, Note_on_c, 0, 44, 0
2, 51101, Note_on_c, 0, 51, 0
2, 51103, Note_on_c, 0, 79, 0
2, 51104, Note_on_c, 0, 91, 48
2, 51115, Note_on_c, 0, 79, 55
2, 51117, Note_on_c, 0, 91, 0
2, 51131, Note_on_c, 0, 79, 0
2, 51135, Note_on_c, 0, 91, 38
2, 51147, Note_on_c, 0, 79, 36
2, 51150, Note_on_c, 0, 91, 0
2, 51161, Note_on_c, 0, 79, 0
2, 51186, Note_on_c, 0, 63, 37
2, 51188, Note_on_c, 0, 92, 68
2, 51188, Note_on_c, 0, 80, 59
2, 51188, Note_on_c, 0, 56, 34
2, 51190, Note_on_c, 0, 60, 45
2, 51205, Note_on_c, 0, 92, 0
2, 51213, Note_on_c, 0, 80, 0
2, 51247, Note_on_c, 0, 63, 0
2, 51271, Note_on_c, 0, 60, 0
2, 51288, Note_on_c, 0, 75, 73
2, 51291, Note_on_c, 0, 56, 0
2, 51330, Note_on_c, 0, 75, 0
2, 51364, Note_on_c, 0, 75, 76
2, 51371, Note_on_c, 0, 68, 53
2, 51374, Note_on_c, 0, 60, 54
2, 51376, Note_on_c, 0, 65, 33
2, 51379, Control_c, 0, 64, 0
2, 51407, Control_c, 0, 64, 127
2, 51445, Note_on_c, 0, 60, 0
2, 51446, Note_on_c, 0, 56, 58
2, 51498, Note_on_c, 0, 65, 0
2, 51501, Note_on_c, 0, 68, 0
2, 51523, Note_on_c, 0, 75, 0
2, 51529, Note_on_c, 0, 68, 38
2, 51530, Note_on_c, 0, 65, 47
2, 51533, Note_on_c, 0, 56, 0
2, 51557, Note_on_c, 0, 65, 0
2, 51558, Note_on_c, 0, 68, 0
2, 51610, Note_on_c, 0, 68, 56
2, 51614, Note_on_c, 0, 56, 36
2, 51614, Note_on_c, 0, 60, 41
2, 51615, Note_on_c, 0, 49, 35
2, 51615, Note_on_c, 0, 65, 42
2, 51622, Control_c, 0, 64, 0
2, 51641, Control_c, 0, 64, 127
2, 51642, Note_on_c, 0, 65, 0
2, 51642, Note_on_c, 0, 68, 0
2, 51652, Note_on_c, 0, 60, 0
2, 51665, Note_on_c, 0, 49, 0
2, 51666, Note_on_c, 0, 56, 0
2, 51692, Note_on_c, 0, 64, 62
2, 51693, Note_on_c, 0, 67, 42
2, 51694, Note_on_c, 0, 60, 48
2, 51696, Note_on_c, 0, 50, 58
2, 51706, Control_c, 0, 64, 0
2, 51738, Control_c, 0, 64, 127
2, 51784, Note_on_c, 0, 57, 35
2, 51799, Note_on_c, 0, 60, 0
2, 51827, Note_on_c, 0, 64, 0
2, 51868, Note_on_c, 0, 64, 33
2, 51869, Note_on_c, 0, 60, 24
2, 51883, Note_on_c, 0, 57, 0
2, 51896, Note_on_c, 0, 50, 0
2, 51900, Note_on_c, 0, 64, 0
2, 51907, Note_on_c, 0, 60, 0
2, 51934, Note_on_c, 0, 67, 0
2, 51947, Note_on_c, 0, 67, 60
2, 51949, Note_on_c, 0, 60, 55
2, 51949, Note_on_c, 0, 64, 62
2, 51951, Note_on_c, 0, 57, 37
2, 51951, Note_on_c, 0, 53, 39
2, 51952, Note_on_c, 0, 55, 43
2, 51957, Control_c, 0, 64, 0
2, 51973, Control_c, 0, 64, 127
2, 51983, Note_on_c, 0, 57, 0
2, 51984, Note_on_c, 0, 55, 0
2, 51986, Note_on_c, 0, 53, 0
2, 51988, Note_on_c, 0, 65, 2
2, 51998, Note_on_c, 0, 64, 0
2, 51999, Note_on_c, 0, 60, 0
2, 52005, Note_on_c, 0, 65, 0
2, 52021, Note_on_c, 0, 67, 0
2, 52116, Note_on_c, 0, 67, 33
2, 52118, Note_on_c, 0, 63, 39
2, 52118, Note_on_c, 0, 65, 39
2, 52119, Note_on_c, 0, 59, 37
2, 52120, Note_on_c, 0, 43, 39
2, 52120, Note_on_c, 0, 61, 39
2, 52123, Note_on_c, 0, 53, 24
2, 52125, Control_c, 0, 64, 0
2, 52156, Control_c, 0, 64, 127
2, 52208, Note_on_c, 0, 53, 0
2, 52209, Note_on_c, 0, 59, 0
2, 52209, Note_on_c, 0, 43, 0
2, 52215, Note_on_c, 0, 61, 0
2, 52223, Note_on_c, 0, 63, 0
2, 52254, Note_on_c, 0, 65, 0
2, 52271, Note_on_c, 0, 63, 50
2, 52301, Note_on_c, 0, 67, 0
2, 52306, Note_on_c, 0, 63, 0
2, 52334, Note_on_c, 0, 43, 24
2, 52336, Note_on_c, 0, 36, 43
2, 52338, Note_on_c, 0, 64, 34
2, 52340, Note_on_c, 0, 59, 28
2, 52343, Control_c, 0, 64, 0
2, 52343, Note_on_c, 0, 52, 40
2, 52363, Note_on_c, 0, 59, 0
2, 52366, Control_c, 0, 64, 127
2, 52376, Note_on_c, 0, 36, 0
2, 52383, Note_on_c, 0, 64, 0
2, 52389, Note_on_c, 0, 43, 0
2, 52395, Note_on_c, 0, 52, 0
2, 52456, Note_on_c, 0, 79, 70
2, 52505, Note_on_c, 0, 64, 33
2, 52506, Note_on_c, 0, 79, 0
2, 52508, Note_on_c, 0, 60, 33
2, 52508, Note_on_c, 0, 72, 38
2, 52510, Note_on_c, 0, 59, 36
2, 52555, Note_on_c, 0, 72, 0
2, 52555, Note_on_c, 0, 74, 74
2, 52582, Note_on_c, 0, 74, 0
2, 52598, Note_on_c, 0, 76, 87
2, 52635, Note_on_c, 0, 59, 0
2, 52636, Note_on_c, 0, 76, 0
2, 52636, Note_on_c, 0, 64, 0
2, 52639, Note_on_c, 0, 77, 70
2, 52644, Note_on_c, 0, 60, 0
2, 52678, Note_on_c, 0, 55, 40
2, 52678, Note_on_c, 0, 65, 29
2, 52680, Note_on_c, 0, 60, 37
2, 52682, Note_on_c, 0, 57, 37
2, 52694, Control_c, 0, 64, 0
2, 52719, Control_c, 0, 64, 127
2, 52740, Note_on_c, 0, 74, 41
2, 52779, Note_on_c, 0, 65, 0
2, 52784, Note_on_c, 0, 60, 0
2, 52789, Note_on_c, 0, 57, 0
2, 52800, Note_on_c, 0, 55, 0
2, 52861, Note_on_c, 0, 59, 35
2, 52861, Note_on_c, 0, 64, 27
2, 52863, Note_on_c, 0, 53, 28
2, 52867, Control_c, 0, 64, 0
2, 52892, Control_c, 0, 64, 127
2, 52969, Note_on_c, 0, 64, 0
2, 52977, Note_on_c, 0, 59, 0
2, 52986, Note_on_c, 0, 53, 0
2, 53002, Note_on_c, 0, 77, 0
2, 53009, Note_on_c, 0, 76, 52
2, 53014, Note_on_c, 0, 74, 0
2, 53040, Note_on_c, 0, 76, 0
2, 53049, Note_on_c, 0, 62, 32
2, 53051, Note_on_c, 0, 79, 54
2, 53052, Control_c, 0, 64, 0
2, 53053, Note_on_c, 0, 52, 34
2, 53070, Note_on_c, 0, 79, 0
2, 53077, Note_on_c, 0, 59, 1
2, 53082, Note_on_c, 0, 67, 35
2, 53126, Control_c, 0, 64, 127
2, 53137, Note_on_c, 0, 67, 0
2, 53153, Note_on_c, 0, 67, 46
2, 53183, Note_on_c, 0, 59, 0
2, 53191, Note_on_c, 0, 62, 0
2, 53240, Note_on_c, 0, 62, 27
2, 53242, Note_on_c, 0, 59, 27
2, 53246, Control_c, 0, 64, 0
2, 53253, Control_c, 0, 64, 127
2, 53294, Note_on_c, 0, 59, 0
2, 53295, Note_on_c, 0, 62, 0
2, 53298, Note_on_c, 0, 52, 0
2, 53420, Note_on_c, 0, 48, 50
2, 53427, Control_c, 0, 64, 0
2, 53440, Note_on_c, 0, 48, 0
2, 53443, Control_c, 0, 64, 127
2, 53483, Note_on_c, 0, 67, 0
2, 53505, Note_on_c, 0, 79, 84
2, 53506, Note_on_c, 0, 58, 57
2, 53574, Note_on_c, 0, 79, 0
2, 53583, Note_on_c, 0, 76, 64
2, 53587, Note_on_c, 0, 64, 37
2, 53588, Note_on_c, 0, 67, 51
2, 53588, Note_on_c, 0, 72, 51
2, 53594, Note_on_c, 0, 77, 24
2, 53612, Note_on_c, 0, 77, 0
2, 53613, Note_on_c, 0, 76, 0
2, 53615, Note_on_c, 0, 64, 0
2, 53616, Note_on_c, 0, 72, 0
2, 53622, Note_on_c, 0, 67, 0
2, 53639, Note_on_c, 0, 58, 0
2, 53667, Note_on_c, 0, 74, 63
2, 53671, Note_on_c, 0, 64, 64
2, 53673, Note_on_c, 0, 58, 46
2, 53674, Note_on_c, 0, 70, 62
2, 53678, Control_c, 0, 64, 0
2, 53702, Control_c, 0, 64, 127
2, 53727, Note_on_c, 0, 74, 0
2, 53728, Note_on_c, 0, 64, 0
2, 53737, Note_on_c, 0, 70, 0
2, 53755, Note_on_c, 0, 58, 0
2, 53757, Note_on_c, 0, 72, 58
2, 53759, Note_on_c, 0, 62, 46
2, 53759, Note_on_c, 0, 65, 61
2, 53760, Note_on_c, 0, 57, 41
2, 53766, Control_c, 0, 64, 0
2, 53790, Control_c, 0, 64, 127
2, 53796, Note_on_c, 0, 57, 0
2, 53814, Note_on_c, 0, 72, 0
2, 53822, Note_on_c, 0, 65, 0
2, 53829, Note_on_c, 0, 62, 0
2, 53842, Note_on_c, 0, 41, 53
2, 53914, Note_on_c, 0, 41, 0
2, 53929, Note_on_c, 0, 65, 80
2, 53930, Note_on_c, 0, 60, 91
2, 53931, Note_on_c, 0, 57, 81
2, 53932, Note_on_c, 0, 41, 60
2, 53933, Control_c, 0, 64, 0
2, 53947, Control_c, 0, 64, 127
2, 53953, Note_on_c, 0, 65, 0
2, 53972, Note_on_c, 0, 57, 0
2, 53975, Note_on_c, 0, 60, 0
2, 53978, Note_on_c, 0, 67, 79
2, 53981, Note_on_c, 0, 57, 30
2, 53988, Note_on_c, 0, 57, 0
2, 53999, Note_on_c, 0, 67, 0
2, 54017, Note_on_c, 0, 69, 85
2, 54036, Note_on_c, 0, 69, 0
2, 54058, Note_on_c, 0, 71, 84
2, 54080, Note_on_c, 0, 71, 0
2, 54098, Note_on_c, 0, 41, 0
2, 54209, Note_on_c, 0, 71, 85
2, 54210, Note_on_c, 0, 67, 80
2, 54212, Note_on_c, 0, 62, 80
2, 54215, Note_on_c, 0, 59, 60
2, 54224, Control_c, 0, 64, 0
2, 54252, Control_c, 0, 64, 127
2, 54277, Note_on_c, 0, 59, 0
2, 54338, Note_on_c, 0, 67, 0
2, 54344, Note_on_c, 0, 62, 0
2, 54361, Note_on_c, 0, 62, 48
2, 54363, Note_on_c, 0, 67, 37
2, 54365, Note_on_c, 0, 59, 36
2, 54387, Note_on_c, 0, 67, 0
2, 54388, Note_on_c, 0, 71, 0
2, 54425, Note_on_c, 0, 62, 0
2, 54437, Note_on_c, 0, 72, 58
2, 54456, Note_on_c, 0, 59, 0
2, 54468, Note_on_c, 0, 72, 0
2, 54487, Note_on_c, 0, 46, 30
2, 54489, Note_on_c, 0, 56, 20
2, 54490, Note_on_c, 0, 67, 47
2, 54492, Note_on_c, 0, 64, 37
2, 54493, Note_on_c, 0, 60, 27
2, 54500, Control_c, 0, 64, 0
2, 54535, Note_on_c, 0, 56, 0
2, 54537, Control_c, 0, 64, 127
2, 54550, Note_on_c, 0, 56, 38
2, 54568, Note_on_c, 0, 60, 0
2, 54604, Note_on_c, 0, 56, 0
2, 54622, Note_on_c, 0, 64, 0
2, 54652, Note_on_c, 0, 67, 0
2, 54668, Note_on_c, 0, 60, 36
2, 54669, Note_on_c, 0, 64, 31
2, 54671, Note_on_c, 0, 67, 13
2, 54730, Note_on_c, 0, 56, 32
2, 54761, Note_on_c, 0, 67, 0
2, 54766, Note_on_c, 0, 64, 0
2, 54780, Note_on_c, 0, 60, 0
2, 54781, Note_on_c, 0, 46, 0
2, 54793, Note_on_c, 0, 52, 29
2, 54815, Note_on_c, 0, 46, 35
2, 54827, Note_on_c, 0, 56, 0
2, 54831, Note_on_c, 0, 52, 0
2, 54841, Note_on_c, 0, 46, 0
2, 54853, Note_on_c, 0, 59, 40
2, 54853, Note_on_c, 0, 55, 39
2, 54853, Note_on_c, 0, 61, 34
2, 54857, Control_c, 0, 64, 0
2, 54858, Note_on_c, 0, 45, 36
2, 54876, Control_c, 0, 64, 127
2, 54895, Note_on_c, 0, 59, 0
2, 54902, Note_on_c, 0, 61, 0
2, 54932, Note_on_c, 0, 58, 33
2, 54940, Note_on_c, 0, 58, 0
2, 54948, Note_on_c, 0, 60, 54
2, 54948, Control_c, 0, 64, 0
2, 54960, Note_on_c, 0, 60, 0
2, 54962, Note_on_c, 0, 61, 70
2, 54969, Note_on_c, 0, 45, 0
2, 54977, Note_on_c, 0, 61, 0
2, 54979, Note_on_c, 0, 63, 70
2, 54983, Note_on_c, 0, 55, 0
2, 54987, Note_on_c, 0, 63, 0
2, 54990, Note_on_c, 0, 64, 60
2, 55001, Note_on_c, 0, 64, 0
2, 55003, Note_on_c, 0, 66, 75
2, 55012, Note_on_c, 0, 66, 0
2, 55019, Note_on_c, 0, 67, 63
2, 55032, Control_c, 0, 64, 127
2, 55032, Note_on_c, 0, 69, 56
2, 55035, Note_on_c, 0, 67, 0
2, 55046, Note_on_c, 0, 69, 0
2, 55049, Note_on_c, 0, 70, 64
2, 55052, Note_on_c, 0, 61, 33
2, 55053, Control_c, 0, 64, 0
2, 55054, Note_on_c, 0, 70, 0
2, 55055, Note_on_c, 0, 64, 20
2, 55058, Note_on_c, 0, 58, 23
2, 55060, Note_on_c, 0, 55, 24
2, 55065, Note_on_c, 0, 72, 50
2, 55077, Note_on_c, 0, 72, 0
2, 55081, Note_on_c, 0, 73, 44
2, 55092, Note_on_c, 0, 73, 0
2, 55109, Note_on_c, 0, 76, 50
2, 55117, Note_on_c, 0, 76, 0
2, 55127, Note_on_c, 0, 78, 38
2, 55132, Note_on_c, 0, 78, 0
2, 55142, Note_on_c, 0, 64, 0
2, 55143, Note_on_c, 0, 79, 44
2, 55152, Note_on_c, 0, 61, 0
2, 55154, Note_on_c, 0, 55, 0
2, 55154, Note_on_c, 0, 58, 0
2, 55157, Note_on_c, 0, 79, 0
2, 55161, Note_on_c, 0, 80, 35
2, 55166, Note_on_c, 0, 80, 0
2, 55176, Note_on_c, 0, 81, 30
2, 55182, Control_c, 0, 64, 127
2, 55188, Note_on_c, 0, 81, 0
2, 55189, Note_on_c, 0, 82, 36
2, 55205, Note_on_c, 0, 82, 0
2, 55205, Note_on_c, 0, 83, 60
2, 55215, Control_c, 0, 64, 0
2, 55216, Note_on_c, 0, 83, 0
2, 55222, Note_on_c, 0, 84, 63
2, 55222, Note_on_c, 0, 60, 36
2, 55224, Note_on_c, 0, 57, 32
2, 55227, Note_on_c, 0, 50, 38
2, 55236, Note_on_c, 0, 84, 0
2, 55239, Note_on_c, 0, 81, 59
2, 55257, Note_on_c, 0, 81, 0
2, 55267, Note_on_c, 0, 77, 51
2, 55286, Note_on_c, 0, 77, 0
2, 55294, Note_on_c, 0, 76, 37
2, 55307, Note_on_c, 0, 76, 0
2, 55317, Note_on_c, 0, 79, 55
2, 55334, Note_on_c, 0, 79, 0
2, 55340, Note_on_c, 0, 60, 0
2, 55356, Note_on_c, 0, 77, 53
2, 55368, Control_c, 0, 64, 127
2, 55369, Note_on_c, 0, 77, 0
2, 55382, Note_on_c, 0, 73, 50
2, 55391, Note_on_c, 0, 73, 0
2, 55399, Note_on_c, 0, 76, 57
2, 55413, Control_c, 0, 64, 0
2, 55415, Note_on_c, 0, 60, 26
2, 55416, Note_on_c, 0, 76, 0
2, 55419, Note_on_c, 0, 73, 51
2, 55426, Note_on_c, 0, 73, 0
2, 55438, Note_on_c, 0, 74, 54
2, 55452, Note_on_c, 0, 74, 0
2, 55461, Note_on_c, 0, 69, 44
2, 55467, Note_on_c, 0, 69, 0
2, 55486, Control_c, 0, 64, 127
2, 55493, Note_on_c, 0, 69, 33
2, 55497, Note_on_c, 0, 60, 0
2, 55502, Note_on_c, 0, 69, 0
2, 55518, Note_on_c, 0, 57, 0
2, 55522, Note_on_c, 0, 69, 58
2, 55530, Note_on_c, 0, 69, 0
2, 55547, Note_on_c, 0, 65, 44
2, 55560, Note_on_c, 0, 65, 0
2, 55567, Note_on_c, 0, 50, 0
2, 55572, Note_on_c, 0, 65, 51
2, 55587, Note_on_c, 0, 65, 0
2, 55598, Note_on_c, 0, 71, 69
2, 55625, Control_c, 0, 64, 0
2, 55666, Note_on_c, 0, 43, 43
2, 55685, Control_c, 0, 64, 127
2, 55790, Note_on_c, 0, 63, 25
2, 55792, Note_on_c, 0, 59, 31
2, 55793, Note_on_c, 0, 67, 31
2, 55796, Note_on_c, 0, 53, 34
2, 55875, Note_on_c, 0, 43, 0
2, 55884, Note_on_c, 0, 53, 0
2, 55919, Note_on_c, 0, 59, 0
2, 55930, Note_on_c, 0, 71, 0
2, 55933, Note_on_c, 0, 67, 0
2, 55939, Note_on_c, 0, 63, 0
2, 55945, Note_on_c, 0, 69, 53
2, 55968, Note_on_c, 0, 69, 0
2, 55991, Note_on_c, 0, 36, 53
2, 55992, Note_on_c, 0, 71, 63
2, 55994, Note_on_c, 0, 67, 46
2, 55995, Note_on_c, 0, 62, 46
2, 55995, Note_on_c, 0, 64, 52
2, 55998, Control_c, 0, 64, 0
2, 55999, Note_on_c, 0, 52, 36
2, 56022, Note_on_c, 0, 71, 0
2, 56022, Control_c, 0, 64, 127
2, 56032, Note_on_c, 0, 62, 0
2, 56034, Note_on_c, 0, 64, 0
2, 56035, Note_on_c, 0, 67, 0
2, 56042, Note_on_c, 0, 52, 0
2, 56043, Note_on_c, 0, 43, 43
2, 56044, Note_on_c, 0, 72, 67
2, 56075, Note_on_c, 0, 72, 0
2, 56079, Note_on_c, 0, 36, 0
2, 56086, Note_on_c, 0, 43, 0
2, 56091, Note_on_c, 0, 67, 48
2, 56092, Note_on_c, 0, 62, 53
2, 56094, Note_on_c, 0, 64, 49
2, 56139, Note_on_c, 0, 55, 64
2, 56168, Note_on_c, 0, 62, 0
2, 56173, Note_on_c, 0, 64, 0
2, 56178, Note_on_c, 0, 67, 0
2, 56212, Note_on_c, 0, 55, 0
2, 56236, Note_on_c, 0, 55, 68
2, 56282, Note_on_c, 0, 55, 0
2, 56326, Note_on_c, 0, 55, 53
2, 56342, Note_on_c, 0, 55, 0
2, 56381, Note_on_c, 0, 67, 44
2, 56382, Note_on_c, 0, 63, 49
2, 56383, Note_on_c, 0, 58, 36
2, 56397, Control_c, 0, 64, 0
2, 56433, Note_on_c, 0, 55, 35
2, 56441, Control_c, 0, 64, 127
2, 56485, Note_on_c, 0, 63, 0
2, 56486, Note_on_c, 0, 58, 0
2, 56489, Note_on_c, 0, 55, 0
2, 56517, Note_on_c, 0, 63, 35
2, 56519, Note_on_c, 0, 58, 27
2, 56563, Note_on_c, 0, 58, 0
2, 56565, Note_on_c, 0, 53, 35
2, 56569, Control_c, 0, 64, 0
2, 56597, Control_c, 0, 64, 127
2, 56605, Note_on_c, 0, 67, 0
2, 56616, Note_on_c, 0, 67, 28
2, 56620, Note_on_c, 0, 57, 44
2, 56620, Note_on_c, 0, 62, 38
2, 56640, Note_on_c, 0, 57, 0
2, 56665, Note_on_c, 0, 62, 0
2, 56671, Note_on_c, 0, 63, 0
2, 56678, Note_on_c, 0, 67, 0
2, 56702, Note_on_c, 0, 63, 34
2, 56703, Note_on_c, 0, 67, 30
2, 56706, Note_on_c, 0, 57, 24
2, 56708, Note_on_c, 0, 62, 24
2, 56715, Note_on_c, 0, 62, 0
2, 56723, Note_on_c, 0, 57, 0
2, 56724, Note_on_c, 0, 53, 0
2, 56730, Note_on_c, 0, 63, 0
2, 56745, Note_on_c, 0, 67, 0
2, 56757, Note_on_c, 0, 64, 26
2, 56759, Note_on_c, 0, 57, 34
2, 56759, Note_on_c, 0, 61, 35
2, 56761, Note_on_c, 0, 46, 25
2, 56763, Control_c, 0, 64, 0
2, 56787, Control_c, 0, 64, 127
2, 56797, Note_on_c, 0, 57, 0
2, 56813, Note_on_c, 0, 57, 31
2, 56813, Note_on_c, 0, 53, 24
2, 56831, Note_on_c, 0, 57, 0
2, 56841, Note_on_c, 0, 64, 0
2, 56842, Note_on_c, 0, 61, 0
2, 56895, Note_on_c, 0, 69, 74
2, 56896, Note_on_c, 0, 65, 71
2, 56897, Note_on_c, 0, 62, 74
2, 56897, Note_on_c, 0, 57, 55
2, 56915, Note_on_c, 0, 69, 0
2, 56921, Note_on_c, 0, 57, 0
2, 56922, Note_on_c, 0, 65, 0
2, 56923, Note_on_c, 0, 62, 0
2, 56944, Note_on_c, 0, 53, 0
2, 56953, Note_on_c, 0, 70, 70
2, 56953, Note_on_c, 0, 55, 49
2, 56953, Note_on_c, 0, 62, 66
2, 56956, Note_on_c, 0, 58, 42
2, 56956, Note_on_c, 0, 65, 53
2, 56958, Control_c, 0, 64, 0
2, 56982, Control_c, 0, 64, 127
2, 56991, Note_on_c, 0, 65, 0
2, 57002, Note_on_c, 0, 55, 0
2, 57002, Note_on_c, 0, 62, 0
2, 57004, Note_on_c, 0, 58, 0
2, 57018, Note_on_c, 0, 58, 38
2, 57019, Note_on_c, 0, 65, 59
2, 57020, Note_on_c, 0, 62, 41
2, 57020, Note_on_c, 0, 53, 39
2, 57037, Note_on_c, 0, 70, 0
2, 57071, Note_on_c, 0, 46, 0
2, 57091, Note_on_c, 0, 46, 56
2, 57118, Note_on_c, 0, 46, 0
2, 57120, Note_on_c, 0, 58, 0
2, 57121, Note_on_c, 0, 62, 0
2, 57126, Note_on_c, 0, 65, 0
2, 57147, Note_on_c, 0, 46, 45
2, 57148, Note_on_c, 0, 58, 45
2, 57150, Note_on_c, 0, 65, 48
2, 57151, Note_on_c, 0, 62, 53
2, 57159, Control_c, 0, 64, 0
2, 57174, Control_c, 0, 64, 127
2, 57203, Note_on_c, 0, 55, 84
2, 57207, Note_on_c, 0, 53, 0
2, 57217, Control_c, 0, 64, 0
2, 57224, Control_c, 0, 64, 127
2, 57263, Note_on_c, 0, 55, 0
2, 57281, Note_on_c, 0, 57, 78
2, 57304, Note_on_c, 0, 58, 0
2, 57317, Note_on_c, 0, 62, 0
2, 57319, Note_on_c, 0, 65, 0
2, 57321, Note_on_c, 0, 57, 0
2, 57338, Note_on_c, 0, 65, 54
2, 57338, Note_on_c, 0, 62, 44
2, 57338, Note_on_c, 0, 58, 49
2, 57339, Note_on_c, 0, 57, 57
2, 57345, Control_c, 0, 64, 0
2, 57358, Control_c, 0, 64, 127
2, 57373, Note_on_c, 0, 58, 0
2, 57377, Note_on_c, 0, 57, 0
2, 57405, Note_on_c, 0, 58, 56
2, 57438, Note_on_c, 0, 58, 0
2, 57447, Note_on_c, 0, 46, 0
2, 57478, Note_on_c, 0, 46, 42
2, 57486, Note_on_c, 0, 62, 0
2, 57494, Note_on_c, 0, 65, 0
2, 57518, Note_on_c, 0, 46, 0
2, 57536, Note_on_c, 0, 45, 46
2, 57536, Control_c, 0, 64, 0
2, 57563, Control_c, 0, 64, 127
2, 57599, Note_on_c, 0, 68, 54
2, 57599, Note_on_c, 0, 56, 46
2, 57600, Note_on_c, 0, 61, 47
2, 57600, Note_on_c, 0, 57, 47
2, 57602, Note_on_c, 0, 64, 43
2, 57612, Control_c, 0, 64, 0
2, 57616, Note_on_c, 0, 57, 0
2, 57622, Note_on_c, 0, 61, 0
2, 57622, Control_c, 0, 64, 127
2, 57623, Note_on_c, 0, 68, 0
2, 57623, Note_on_c, 0, 64, 0
2, 57636, Note_on_c, 0, 56, 0
2, 57676, Note_on_c, 0, 45, 0
2, 57680, Note_on_c, 0, 69, 67
2, 57684, Note_on_c, 0, 61, 67
2, 57685, Note_on_c, 0, 64, 48
2, 57685, Note_on_c, 0, 45, 39
2, 57706, Note_on_c, 0, 61, 0
2, 57713, Note_on_c, 0, 64, 0
2, 57715, Note_on_c, 0, 69, 0
2, 57722, Note_on_c, 0, 45, 0
2, 57743, Note_on_c, 0, 69, 67
2, 57744, Note_on_c, 0, 64, 54
2, 57744, Note_on_c, 0, 45, 44
2, 57744, Note_on_c, 0, 56, 57
2, 57744, Note_on_c, 0, 61, 68
2, 57746, Control_c, 0, 64, 0
2, 57756, Note_on_c, 0, 56, 0
2, 57756, Control_c, 0, 64, 127
2, 57760, Note_on_c, 0, 61, 0
2, 57770, Note_on_c, 0, 64, 0
2, 57774, Note_on_c, 0, 69, 0
2, 57799, Note_on_c, 0, 69, 66
2, 57801, Note_on_c, 0, 56, 50
2, 57809, Note_on_c, 0, 69, 0
2, 57819, Note_on_c, 0, 56, 0
2, 57833, Note_on_c, 0, 45, 0
2, 57851, Note_on_c, 0, 64, 48
2, 57853, Note_on_c, 0, 61, 46
2, 57853, Note_on_c, 0, 45, 33
2, 57854, Note_on_c, 0, 58, 37
2, 57855, Note_on_c, 0, 55, 33
2, 57860, Control_c, 0, 64, 0
2, 57887, Control_c, 0, 64, 127
2, 57914, Note_on_c, 0, 55, 0
2, 57924, Note_on_c, 0, 58, 0
2, 57927, Note_on_c, 0, 61, 0
2, 57940, Note_on_c, 0, 64, 0
2, 57946, Note_on_c, 0, 45, 0
2, 57948, Note_on_c, 0, 61, 44
2, 57952, Note_on_c, 0, 55, 37
2, 57952, Note_on_c, 0, 58, 32
2, 57954, Note_on_c, 0, 49, 36
2, 57957, Control_c, 0, 64, 0
2, 57963, Note_on_c, 0, 55, 0
2, 57973, Note_on_c, 0, 61, 0
2, 57973, Note_on_c, 0, 58, 0
2, 57975, Control_c, 0, 64, 127
2, 58012, Note_on_c, 0, 64, 62
2, 58012, Note_on_c, 0, 58, 61
2, 58013, Note_on_c, 0, 61, 57
2, 58014, Note_on_c, 0, 52, 54
2, 58043, Note_on_c, 0, 64, 0
2, 58047, Note_on_c, 0, 61, 0
2, 58049, Note_on_c, 0, 58, 0
2, 58062, Note_on_c, 0, 52, 0
2, 58068, Note_on_c, 0, 61, 69
2, 58069, Note_on_c, 0, 67, 59
2, 58069, Note_on_c, 0, 58, 62
2, 58071, Note_on_c, 0, 55, 62
2, 58072, Note_on_c, 0, 49, 0
2, 58079, Note_on_c, 0, 58, 0
2, 58081, Note_on_c, 0, 67, 0
2, 58082, Note_on_c, 0, 61, 0
2, 58119, Note_on_c, 0, 55, 0
2, 58129, Control_c, 0, 64, 0
2, 58129, Note_on_c, 0, 70, 62
2, 58129, Note_on_c, 0, 61, 58
2, 58130, Note_on_c, 0, 64, 60
2, 58132, Note_on_c, 0, 55, 53
2, 58134, Note_on_c, 0, 67, 27
2, 58135, Note_on_c, 0, 64, 0
2, 58135, Note_on_c, 0, 61, 0
2, 58137, Note_on_c, 0, 55, 0
2, 58139, Note_on_c, 0, 67, 0
2, 58140, Control_c, 0, 64, 127
2, 58144, Note_on_c, 0, 70, 0
2, 58190, Note_on_c, 0, 73, 59
2, 58191, Note_on_c, 0, 70, 48
2, 58192, Note_on_c, 0, 67, 38
2, 58192, Note_on_c, 0, 58, 46
2, 58201, Note_on_c, 0, 67, 0
2, 58203, Note_on_c, 0, 70, 0
2, 58206, Note_on_c, 0, 73, 0
2, 58252, Note_on_c, 0, 58, 0
2, 58253, Note_on_c, 0, 70, 57
2, 58253, Note_on_c, 0, 79, 60
2, 58254, Note_on_c, 0, 61, 37
2, 58254, Note_on_c, 0, 73, 54
2, 58257, Control_c, 0, 64, 0
2, 58266, Control_c, 0, 64, 127
2, 58267, Note_on_c, 0, 61, 0
2, 58273, Note_on_c, 0, 79, 0
2, 58276, Note_on_c, 0, 70, 0
2, 58284, Note_on_c, 0, 73, 0
2, 58322, Note_on_c, 0, 77, 54
2, 58323, Note_on_c, 0, 50, 40
2, 58326, Note_on_c, 0, 65, 36
2, 58326, Note_on_c, 0, 72, 46
2, 58326, Note_on_c, 0, 60, 35
2, 58327, Control_c, 0, 64, 0
2, 58359, Control_c, 0, 64, 127
2, 58386, Note_on_c, 0, 60, 0
2, 58386, Note_on_c, 0, 57, 33
2, 58405, Note_on_c, 0, 72, 0
2, 58417, Note_on_c, 0, 65, 0
2, 58436, Note_on_c, 0, 77, 0
2, 58448, Note_on_c, 0, 65, 50
2, 58450, Note_on_c, 0, 60, 44
2, 58462, Note_on_c, 0, 65, 0
2, 58474, Note_on_c, 0, 60, 0
2, 58498, Note_on_c, 0, 57, 0
2, 58515, Note_on_c, 0, 77, 75
2, 58515, Note_on_c, 0, 60, 46
2, 58516, Note_on_c, 0, 65, 73
2, 58518, Note_on_c, 0, 57, 40
2, 58534, Note_on_c, 0, 65, 0
2, 58540, Note_on_c, 0, 77, 0
2, 58557, Note_on_c, 0, 79, 77
2, 58558, Note_on_c, 0, 67, 74
2, 58573, Note_on_c, 0, 67, 0
2, 58577, Note_on_c, 0, 79, 0
2, 58599, Note_on_c, 0, 81, 84
2, 58601, Note_on_c, 0, 69, 79
2, 58611, Note_on_c, 0, 50, 0
2, 58613, Note_on_c, 0, 69, 0
2, 58619, Note_on_c, 0, 81, 0
2, 58642, Note_on_c, 0, 50, 41
2, 58642, Note_on_c, 0, 83, 84
2, 58643, Note_on_c, 0, 71, 74
2, 58656, Note_on_c, 0, 71, 0
2, 58659, Note_on_c, 0, 50, 0
2, 58660, Note_on_c, 0, 83, 0
2, 58693, Note_on_c, 0, 57, 0
2, 58693, Note_on_c, 0, 76, 68
2, 58694, Note_on_c, 0, 84, 76
2, 58694, Note_on_c, 0, 79, 55
2, 58696, Note_on_c, 0, 60, 0
2, 58696, Control_c, 0, 64, 0
2, 58696, Note_on_c, 0, 72, 57
2, 58697, Note_on_c, 0, 52, 53
2, 58725, Control_c, 0, 64, 127
2, 58758, Note_on_c, 0, 60, 38
2, 58796, Note_on_c, 0, 60, 0
2, 58807, Note_on_c, 0, 76, 0
2, 58811, Note_on_c, 0, 72, 0
2, 58813, Note_on_c, 0, 52, 0
2, 58841, Note_on_c, 0, 52, 61
2, 58847, Note_on_c, 0, 79, 0
2, 58849, Note_on_c, 0, 84, 0
2, 58899, Note_on_c, 0, 76, 38
2, 58903, Note_on_c, 0, 72, 42
2, 58904, Note_on_c, 0, 67, 36
2, 58905, Note_on_c, 0, 64, 32
2, 58905, Note_on_c, 0, 60, 31
2, 58950, Note_on_c, 0, 67, 0
2, 58952, Note_on_c, 0, 72, 0
2, 58956, Note_on_c, 0, 64, 0
2, 58967, Note_on_c, 0, 60, 0
2, 58976, Note_on_c, 0, 64, 33
2, 58976, Note_on_c, 0, 67, 35
2, 58977, Note_on_c, 0, 72, 40
2, 58978, Note_on_c, 0, 60, 20
2, 59000, Note_on_c, 0, 64, 0
2, 59011, Note_on_c, 0, 52, 0
2, 59045, Note_on_c, 0, 76, 0
2, 59048, Note_on_c, 0, 72, 0
2, 59051, Note_on_c, 0, 52, 35
2, 59057, Note_on_c, 0, 67, 0
2, 59064, Note_on_c, 0, 52, 0
2, 59080, Note_on_c, 0, 60, 0
2, 59122, Note_on_c, 0, 65, 47
2, 59122, Note_on_c, 0, 69, 59
2, 59123, Note_on_c, 0, 53, 53
2, 59126, Note_on_c, 0, 60, 48
2, 59132, Control_c, 0, 64, 0
2, 59169, Control_c, 0, 64, 127
2, 59192, Note_on_c, 0, 71, 68
2, 59194, Note_on_c, 0, 67, 57
2, 59195, Note_on_c, 0, 69, 0
2, 59238, Note_on_c, 0, 60, 0
2, 59239, Note_on_c, 0, 67, 0
2, 59241, Note_on_c, 0, 65, 0
2, 59250, Note_on_c, 0, 71, 0
2, 59292, Note_on_c, 0, 60, 41
2, 59293, Note_on_c, 0, 72, 58
2, 59294, Note_on_c, 0, 69, 63
2, 59328, Note_on_c, 0, 72, 0
2, 59339, Note_on_c, 0, 69, 0
2, 59359, Note_on_c, 0, 53, 0
2, 59375, Note_on_c, 0, 60, 0
2, 59434, Note_on_c, 0, 74, 48
2, 59436, Note_on_c, 0, 66, 37
2, 59439, Note_on_c, 0, 54, 42
2, 59440, Note_on_c, 0, 69, 36
2, 59441, Note_on_c, 0, 60, 33
2, 59443, Control_c, 0, 64, 0
2, 59470, Control_c, 0, 64, 127
2, 59488, Note_on_c, 0, 60, 0
2, 59488, Note_on_c, 0, 54, 0
2, 59489, Note_on_c, 0, 74, 0
2, 59495, Note_on_c, 0, 69, 0
2, 59519, Note_on_c, 0, 66, 0
2, 59566, Note_on_c, 0, 69, 44
2, 59567, Note_on_c, 0, 55, 37
2, 59567, Note_on_c, 0, 60, 26
2, 59569, Note_on_c, 0, 65, 36
2, 59571, Control_c, 0, 64, 0
2, 59598, Control_c, 0, 64, 127
2, 59610, Note_on_c, 0, 55, 0
2, 59688, Note_on_c, 0, 31, 37
2, 59699, Note_on_c, 0, 31, 0
2, 59786, Note_on_c, 0, 65, 0
2, 59795, Note_on_c, 0, 60, 0
2, 59826, Note_on_c, 0, 69, 0
2, 59867, Note_on_c, 0, 43, 39
2, 59896, Note_on_c, 0, 53, 43
2, 59923, Note_on_c, 0, 59, 52
2, 59953, Note_on_c, 0, 64, 45
2, 59993, Note_on_c, 0, 71, 44
2, 60056, Note_on_c, 0, 71, 0
2, 60122, Note_on_c, 0, 64, 0
2, 60159, Note_on_c, 0, 63, 42
2, 60217, Note_on_c, 0, 63, 0
2, 60269, Note_on_c, 0, 62, 27
2, 60464, Note_on_c, 0, 53, 0
2, 60467, Note_on_c, 0, 43, 0
2, 60469, Note_on_c, 0, 59, 0
2, 60476, Note_on_c, 0, 62, 0
2, 60480, Control_c, 0, 64, 127
2, 60530, Control_c, 0, 64, 0
2, 60530, Note_on_c, 0, 72, 28
2, 60530, Note_on_c, 0, 48, 38
2, 60531, Note_on_c, 0, 67, 36
2, 60532, Note_on_c, 0, 64, 26
2, 60533, Note_on_c, 0, 62, 32
2, 60554, Control_c, 0, 64, 127
2, 60558, Note_on_c, 0, 62, 0
2, 60560, Note_on_c, 0, 64, 0
2, 60571, Note_on_c, 0, 67, 0
2, 60588, Note_on_c, 0, 55, 41
2, 60599, Note_on_c, 0, 72, 0
2, 60623, Note_on_c, 0, 48, 0
2, 60634, Note_on_c, 0, 55, 0
2, 60642, Note_on_c, 0, 62, 46
2, 60689, Note_on_c, 0, 62, 0
2, 60693, Note_on_c, 0, 64, 46
2, 60705, Control_c, 0, 64, 0
2, 60720, Control_c, 0, 64, 0
2, 60754, Note_on_c, 0, 71, 49
2, 60779, Note_on_c, 0, 64, 0
2, 60808, Note_on_c, 0, 71, 0
2, 60816, Note_on_c, 0, 64, 36
2, 60870, Note_on_c, 0, 64, 0
2, 60881, Note_on_c, 0, 62, 25
2, 60939, Note_on_c, 0, 55, 32
2, 60941, Note_on_c, 0, 83, 28
2, 60945, Note_on_c, 0, 62, 0
2, 60992, Note_on_c, 0, 83, 0
2, 61007, Control_c, 0, 64, 0
2, 61007, Note_on_c, 0, 48, 53
2, 61007, Note_on_c, 0, 91, 46
2, 61009, Note_on_c, 0, 89, 47
2, 61010, Note_on_c, 0, 55, 0
2, 61028, Control_c, 0, 64, 127
2, 61056, Note_on_c, 0, 91, 0
2, 61062, Note_on_c, 0, 89, 0
2, 61068, Note_on_c, 0, 84, 58
2, 61068, Note_on_c, 0, 57, 45
2, 61127, Note_on_c, 0, 48, 0
2, 61129, Note_on_c, 0, 60, 53
2, 61136, Note_on_c, 0, 57, 0
2, 61181, Note_on_c, 0, 62, 54
2, 61182, Note_on_c, 0, 60, 0
2, 61208, Note_on_c, 0, 84, 0
2, 61241, Note_on_c, 0, 93, 79
2, 61243, Note_on_c, 0, 84, 70
2, 61245, Note_on_c, 0, 65, 53
2, 61246, Note_on_c, 0, 62, 0
2, 61298, Note_on_c, 0, 93, 0
2, 61299, Note_on_c, 0, 65, 0
2, 61303, Note_on_c, 0, 69, 51
2, 61310, Note_on_c, 0, 84, 0
2, 61367, Note_on_c, 0, 89, 51
2, 61369, Note_on_c, 0, 81, 42
2, 61369, Note_on_c, 0, 72, 36
2, 61375, Note_on_c, 0, 69, 0
2, 61387, Note_on_c, 0, 89, 0
2, 61402, Note_on_c, 0, 81, 0
2, 61441, Note_on_c, 0, 69, 41
2, 61442, Note_on_c, 0, 72, 0
2, 61443, Note_on_c, 0, 95, 83
2, 61447, Note_on_c, 0, 69, 0
2, 61511, Note_on_c, 0, 91, 62
2, 61511, Note_on_c, 0, 83, 45
2, 61512, Note_on_c, 0, 95, 0
2, 61514, Note_on_c, 0, 48, 51
2, 61515, Control_c, 0, 64, 0
2, 61538, Control_c, 0, 64, 127
2, 61572, Note_on_c, 0, 55, 38
2, 61622, Note_on_c, 0, 48, 0
2, 61630, Note_on_c, 0, 62, 47
2, 61631, Note_on_c, 0, 55, 0
2, 61688, Note_on_c, 0, 62, 0
2, 61688, Note_on_c, 0, 64, 48
2, 61723, Note_on_c, 0, 83, 0
2, 61746, Note_on_c, 0, 83, 41
2, 61749, Note_on_c, 0, 64, 0
2, 61749, Note_on_c, 0, 88, 46
2, 61751, Note_on_c, 0, 67, 32
2, 61815, Note_on_c, 0, 71, 20
2, 61825, Note_on_c, 0, 83, 0
2, 61828, Note_on_c, 0, 67, 0
2, 61875, Note_on_c, 0, 83, 48
2, 61887, Note_on_c, 0, 71, 0
2, 61908, Note_on_c, 0, 91, 0
2, 61934, Note_on_c, 0, 88, 0
2, 61937, Note_on_c, 0, 91, 46
2, 61958, Note_on_c, 0, 83, 0
2, 61994, Note_on_c, 0, 91, 0
2, 62000, Note_on_c, 0, 84, 40
2, 62002, Note_on_c, 0, 89, 45
2, 62003, Note_on_c, 0, 48, 44
2, 62011, Control_c, 0, 64, 0
2, 62036, Control_c, 0, 64, 127
2, 62042, Note_on_c, 0, 89, 0
2, 62060, Note_on_c, 0, 57, 38
2, 62061, Note_on_c, 0, 84, 0
2, 62116, Note_on_c, 0, 77, 34
2, 62116, Note_on_c, 0, 81, 48
2, 62124, Note_on_c, 0, 57, 0
2, 62124, Note_on_c, 0, 48, 0
2, 62125, Note_on_c, 0, 60, 34
2, 62180, Note_on_c, 0, 62, 46
2, 62185, Note_on_c, 0, 60, 0
2, 62242, Note_on_c, 0, 65, 71
2, 62245, Note_on_c, 0, 62, 0
2, 62286, Note_on_c, 0, 67, 60
2, 62295, Note_on_c, 0, 65, 0
2, 62332, Note_on_c, 0, 67, 0
2, 62338, Note_on_c, 0, 69, 50
2, 62358, Note_on_c, 0, 69, 0
2, 62385, Note_on_c, 0, 72, 39
2, 62390, Note_on_c, 0, 72, 0
2, 62441, Note_on_c, 0, 48, 47
2, 62442, Control_c, 0, 64, 0
2, 62442, Note_on_c, 0, 83, 51
2, 62445, Note_on_c, 0, 81, 0
2, 62464, Control_c, 0, 64, 127
2, 62475, Note_on_c, 0, 77, 0
2, 62489, Note_on_c, 0, 55, 46
2, 62527, Note_on_c, 0, 48, 0
2, 62529, Note_on_c, 0, 55, 0
2, 62533, Note_on_c, 0, 76, 31
2, 62533, Note_on_c, 0, 60, 47
2, 62533, Note_on_c, 0, 79, 34
2, 62570, Note_on_c, 0, 60, 0
2, 62575, Note_on_c, 0, 62, 29
2, 62614, Note_on_c, 0, 62, 0
2, 62617, Note_on_c, 0, 79, 0
2, 62618, Note_on_c, 0, 83, 0
2, 62622, Note_on_c, 0, 64, 35
2, 62629, Note_on_c, 0, 76, 0
2, 62653, Note_on_c, 0, 64, 0
2, 62672, Note_on_c, 0, 69, 20
2, 62674, Note_on_c, 0, 67, 17
2, 62678, Note_on_c, 0, 69, 0
2, 62704, Note_on_c, 0, 67, 0
2, 62708, Note_on_c, 0, 71, 42
2, 62749, Note_on_c, 0, 79, 53
2, 62772, Note_on_c, 0, 79, 0
2, 62790, Note_on_c, 0, 77, 51
2, 62790, Note_on_c, 0, 48, 36
2, 62793, Note_on_c, 0, 71, 0
2, 62798, Control_c, 0, 64, 0
2, 62821, Control_c, 0, 64, 127
2, 62833, Note_on_c, 0, 57, 35
2, 62866, Note_on_c, 0, 48, 0
2, 62872, Note_on_c, 0, 69, 33
2, 62873, Note_on_c, 0, 57, 0
2, 62875, Note_on_c, 0, 72, 31
2, 62876, Note_on_c, 0, 60, 36
2, 62918, Note_on_c, 0, 62, 40
2, 62923, Note_on_c, 0, 60, 0
2, 62966, Note_on_c, 0, 62, 0
2, 62971, Note_on_c, 0, 64, 36
2, 63014, Note_on_c, 0, 69, 0
2, 63021, Note_on_c, 0, 72, 0
2, 63025, Note_on_c, 0, 64, 0
2, 63025, Note_on_c, 0, 65, 45
2, 63083, Note_on_c, 0, 67, 32
2, 63084, Note_on_c, 0, 65, 0
2, 63084, Note_on_c, 0, 69, 34
2, 63095, Note_on_c, 0, 67, 0
2, 63144, Note_on_c, 0, 72, 37
2, 63187, Note_on_c, 0, 72, 0
2, 63204, Note_on_c, 0, 69, 0
2, 63212, Note_on_c, 0, 71, 33
2, 63215, Note_on_c, 0, 48, 32
2, 63216, Control_c, 0, 64, 0
2, 63243, Control_c, 0, 64, 127
2, 63268, Note_on_c, 0, 55, 39
2, 63319, Note_on_c, 0, 48, 0
2, 63323, Note_on_c, 0, 55, 0
2, 63326, Note_on_c, 0, 67, 30
2, 63330, Note_on_c, 0, 60, 32
2, 63382, Note_on_c, 0, 64, 32
2, 63384, Note_on_c, 0, 67, 0
2, 63386, Note_on_c, 0, 60, 0
2, 63429, Note_on_c, 0, 71, 0
2, 63464, Note_on_c, 0, 64, 0
2, 63499, Note_on_c, 0, 64, 33
2, 63546, Note_on_c, 0, 64, 0
2, 63558, Note_on_c, 0, 67, 28
2, 63614, Note_on_c, 0, 71, 31
2, 63638, Note_on_c, 0, 71, 0
2, 63649, Note_on_c, 0, 67, 0
2, 63676, Note_on_c, 0, 69, 38
2, 63678, Note_on_c, 0, 65, 35
2, 63678, Note_on_c, 0, 48, 38
2, 63686, Control_c, 0, 64, 0
2, 63696, Note_on_c, 0, 77, 0
2, 63719, Control_c, 0, 64, 127
2, 63736, Note_on_c, 0, 57, 36
2, 63746, Note_on_c, 0, 65, 0
2, 63800, Note_on_c, 0, 65, 32
2, 63801, Note_on_c, 0, 60, 38
2, 63834, Note_on_c, 0, 57, 0
2, 63852, Note_on_c, 0, 60, 0
2, 63869, Note_on_c, 0, 57, 33
2, 63940, Note_on_c, 0, 62, 47
2, 63982, Note_on_c, 0, 57, 0
2, 64019, Note_on_c, 0, 57, 27
2, 64029, Note_on_c, 0, 62, 0
2, 64036, Note_on_c, 0, 65, 0
2, 64044, Note_on_c, 0, 48, 0
2, 64054, Note_on_c, 0, 69, 0
2, 64103, Note_on_c, 0, 65, 44
2, 64138, Note_on_c, 0, 65, 0
2, 64140, Note_on_c, 0, 57, 0
2, 64201, Note_on_c, 0, 57, 29
2, 64253, Note_on_c, 0, 57, 0
2, 64451, Note_on_c, 0, 48, 40
2, 64470, Note_on_c, 0, 74, 30
2, 64475, Note_on_c, 0, 55, 35
2, 64476, Note_on_c, 0, 64, 49
2, 64484, Note_on_c, 0, 71, 46
2, 64486, Control_c, 0, 64, 0
2, 64487, Note_on_c, 0, 60, 36
2, 64501, Note_on_c, 0, 76, 46
2, 64555, Control_c, 0, 64, 127
2, 64590, Note_on_c, 0, 74, 0
2, 64596, Note_on_c, 0, 60, 0
2, 64603, Note_on_c, 0, 55, 0
2, 64614, Note_on_c, 0, 48, 0
2, 64673, Note_on_c, 0, 64, 0
2, 64683, Note_on_c, 0, 71, 0
2, 64690, Note_on_c, 0, 76, 0
2, 64867, Note_on_c, 0, 24, 35
2, 64990, Note_on_c, 0, 24, 0
2, 65433, Control_c, 0, 64, 0
2, 65433, End_track
3, 0, Start_track
3, 0, MIDI_port, 0
3, 0, End_track
4, 0, Start_track
4, 0, MIDI_port, 0
4, 0, End_track
0, 0, End_of_file
