0, 0, Header, 0, 1, 120
1, 0, Start_track
1, 0, Title_t, "WhoCanITurnTo"
1, 0, Copyright_t, " "
1, 0, Text_t, "Doug McKenzie\012"
1, 0, Time_signature, 4, 2, 24, 8
1, 0, Key_signature, -3, "major"
1, 0, Tempo, 495868
1, 0, Program_c, 0, 0
1, 0, Program_c, 0, 0
1, 0, Control_c, 0, 64, 127
1, 0, Control_c, 0, 64, 0
1, 0, Note_on_c, 0, 39, 34
1, 0, Control_c, 0, 64, 127
1, 0, Note_on_c, 0, 77, 62
1, 0, Note_on_c, 0, 77, 0
1, 0, Program_c, 0, 0
1, 2, Note_on_c, 0, 39, 0
1, 4, Note_on_c, 0, 46, 33
1, 4, Note_on_c, 0, 77, 48
1, 36, Note_on_c, 0, 77, 0
1, 63, Note_on_c, 0, 46, 0
1, 65, Note_on_c, 0, 77, 46
1, 66, Note_on_c, 0, 70, 36
1, 68, Note_on_c, 0, 65, 32
1, 71, Note_on_c, 0, 74, 36
1, 73, Note_on_c, 0, 55, 29
1, 149, Note_on_c, 0, 55, 0
1, 152, Note_on_c, 0, 58, 37
1, 247, Note_on_c, 0, 74, 0
1, 342, Note_on_c, 0, 65, 0
1, 342, Note_on_c, 0, 77, 0
1, 354, Note_on_c, 0, 75, 46
1, 380, Note_on_c, 0, 70, 0
1, 420, Note_on_c, 0, 75, 0
1, 562, Note_on_c, 0, 62, 39
1, 564, Note_on_c, 0, 77, 48
1, 565, Note_on_c, 0, 70, 37
1, 565, Note_on_c, 0, 74, 36
1, 570, Note_on_c, 0, 67, 24
1, 626, Note_on_c, 0, 74, 0
1, 627, Note_on_c, 0, 67, 0
1, 630, Note_on_c, 0, 77, 0
1, 631, Note_on_c, 0, 70, 0
1, 654, Note_on_c, 0, 62, 0
1, 714, Note_on_c, 0, 79, 36
1, 716, Note_on_c, 0, 67, 28
1, 720, Note_on_c, 0, 63, 26
1, 732, Control_c, 0, 64, 0
1, 755, Control_c, 0, 64, 127
1, 797, Note_on_c, 0, 58, 0
1, 813, Note_on_c, 0, 63, 0
1, 1027, Note_on_c, 0, 39, 33
1, 1034, Note_on_c, 0, 79, 0
1, 1044, Note_on_c, 0, 67, 0
1, 1074, Note_on_c, 0, 46, 32
1, 1075, Note_on_c, 0, 39, 0
1, 1110, Note_on_c, 0, 46, 0
1, 1116, Note_on_c, 0, 62, 38
1, 1118, Note_on_c, 0, 58, 37
1, 1120, Note_on_c, 0, 55, 36
1, 1130, Note_on_c, 0, 58, 0
1, 1134, Note_on_c, 0, 62, 0
1, 1158, Note_on_c, 0, 58, 39
1, 1161, Note_on_c, 0, 55, 0
1, 1204, Note_on_c, 0, 62, 29
1, 1204, Note_on_c, 0, 77, 51
1, 1205, Note_on_c, 0, 70, 52
1, 1231, Note_on_c, 0, 62, 0
1, 1244, Note_on_c, 0, 70, 0
1, 1259, Note_on_c, 0, 62, 34
1, 1290, Note_on_c, 0, 62, 0
1, 1323, Note_on_c, 0, 74, 31
1, 1324, Note_on_c, 0, 67, 25
1, 1325, Note_on_c, 0, 70, 28
1, 1327, Note_on_c, 0, 62, 20
1, 1368, Note_on_c, 0, 62, 0
1, 1566, Note_on_c, 0, 74, 0
1, 1573, Note_on_c, 0, 77, 0
1, 1593, Note_on_c, 0, 70, 0
1, 1608, Note_on_c, 0, 67, 0
1, 1646, Note_on_c, 0, 70, 84
1, 1709, Note_on_c, 0, 70, 0
1, 1740, Note_on_c, 0, 58, 0
1, 1740, Note_on_c, 0, 70, 58
1, 1767, Note_on_c, 0, 70, 0
1, 1783, Note_on_c, 0, 70, 46
1, 1799, Note_on_c, 0, 70, 0
1, 1818, Note_on_c, 0, 70, 54
1, 1840, Note_on_c, 0, 70, 0
1, 1857, Note_on_c, 0, 70, 54
1, 1870, Note_on_c, 0, 70, 0
1, 1896, Note_on_c, 0, 70, 62
1, 1905, Note_on_c, 0, 70, 0
1, 1939, Note_on_c, 0, 70, 61
1, 1956, Note_on_c, 0, 70, 0
1, 1992, Note_on_c, 0, 58, 39
1, 1993, Note_on_c, 0, 63, 43
1, 1993, Note_on_c, 0, 68, 38
1, 1994, Note_on_c, 0, 77, 71
1, 1995, Note_on_c, 0, 60, 51
1, 2003, Control_c, 0, 64, 0
1, 2033, Control_c, 0, 64, 127
1, 2050, Note_on_c, 0, 77, 0
1, 2063, Note_on_c, 0, 77, 64
1, 2098, Note_on_c, 0, 63, 0
1, 2100, Note_on_c, 0, 77, 0
1, 2128, Note_on_c, 0, 77, 61
1, 2132, Note_on_c, 0, 63, 31
1, 2187, Note_on_c, 0, 77, 0
1, 2188, Note_on_c, 0, 75, 55
1, 2195, Note_on_c, 0, 68, 0
1, 2214, Note_on_c, 0, 58, 0
1, 2234, Note_on_c, 0, 75, 0
1, 2253, Note_on_c, 0, 77, 58
1, 2269, Note_on_c, 0, 70, 6
1, 2364, Note_on_c, 0, 70, 0
1, 2383, Note_on_c, 0, 77, 0
1, 2403, Note_on_c, 0, 63, 0
1, 2418, Note_on_c, 0, 60, 0
1, 2498, Note_on_c, 0, 70, 37
1, 2618, Note_on_c, 0, 46, 32
1, 2621, Control_c, 0, 64, 0
1, 2637, Control_c, 0, 64, 127
1, 2658, Note_on_c, 0, 46, 0
1, 2730, Note_on_c, 0, 70, 0
1, 2792, Note_on_c, 0, 67, 27
1, 2793, Note_on_c, 0, 59, 33
1, 2793, Note_on_c, 0, 64, 40
1, 2795, Note_on_c, 0, 62, 41
1, 2796, Note_on_c, 0, 58, 21
1, 2797, Note_on_c, 0, 56, 27
1, 2845, Note_on_c, 0, 59, 0
1, 2847, Note_on_c, 0, 56, 0
1, 2850, Note_on_c, 0, 58, 0
1, 2853, Note_on_c, 0, 62, 0
1, 2856, Note_on_c, 0, 64, 0
1, 2861, Note_on_c, 0, 67, 0
1, 2921, Note_on_c, 0, 79, 49
1, 2926, Note_on_c, 0, 76, 45
1, 2929, Note_on_c, 0, 70, 27
1, 2930, Note_on_c, 0, 68, 32
1, 2932, Note_on_c, 0, 74, 20
1, 2944, Note_on_c, 0, 71, 9
1, 2966, Note_on_c, 0, 71, 0
1, 2970, Note_on_c, 0, 68, 0
1, 2973, Note_on_c, 0, 70, 0
1, 2973, Note_on_c, 0, 74, 0
1, 2978, Note_on_c, 0, 76, 0
1, 2982, Note_on_c, 0, 79, 0
1, 3093, Note_on_c, 0, 91, 51
1, 3102, Note_on_c, 0, 88, 44
1, 3104, Note_on_c, 0, 80, 34
1, 3107, Note_on_c, 0, 86, 43
1, 3112, Note_on_c, 0, 82, 26
1, 3116, Note_on_c, 0, 83, 45
1, 3185, Note_on_c, 0, 91, 0
1, 3186, Note_on_c, 0, 86, 0
1, 3190, Note_on_c, 0, 88, 0
1, 3191, Note_on_c, 0, 83, 0
1, 3192, Note_on_c, 0, 82, 0
1, 3193, Note_on_c, 0, 80, 0
1, 3539, Note_on_c, 0, 67, 33
1, 3602, Note_on_c, 0, 67, 0
1, 3759, Note_on_c, 0, 63, 57
1, 3760, Note_on_c, 0, 67, 46
1, 3761, Note_on_c, 0, 59, 58
1, 3761, Note_on_c, 0, 39, 37
1, 3763, Note_on_c, 0, 47, 32
1, 3764, Note_on_c, 0, 55, 36
1, 3765, Control_c, 0, 64, 0
1, 3790, Control_c, 0, 64, 127
1, 3816, Note_on_c, 0, 67, 0
1, 3829, Note_on_c, 0, 67, 59
1, 3854, Note_on_c, 0, 59, 0
1, 3873, Note_on_c, 0, 55, 0
1, 3876, Note_on_c, 0, 67, 0
1, 3885, Note_on_c, 0, 63, 0
1, 3909, Note_on_c, 0, 47, 0
1, 3910, Note_on_c, 0, 67, 39
1, 3911, Note_on_c, 0, 63, 23
1, 3912, Note_on_c, 0, 55, 45
1, 3913, Note_on_c, 0, 60, 52
1, 3914, Note_on_c, 0, 48, 41
1, 3917, Control_c, 0, 64, 0
1, 3958, Control_c, 0, 64, 127
1, 4023, Note_on_c, 0, 67, 0
1, 4030, Note_on_c, 0, 39, 0
1, 4036, Note_on_c, 0, 66, 52
1, 4041, Note_on_c, 0, 48, 0
1, 4063, Note_on_c, 0, 60, 0
1, 4069, Note_on_c, 0, 55, 0
1, 4084, Note_on_c, 0, 66, 0
1, 4094, Note_on_c, 0, 63, 0
1, 4181, Note_on_c, 0, 67, 40
1, 4183, Note_on_c, 0, 61, 42
1, 4185, Control_c, 0, 64, 0
1, 4185, Note_on_c, 0, 57, 24
1, 4186, Note_on_c, 0, 49, 21
1, 4189, Note_on_c, 0, 41, 32
1, 4215, Control_c, 0, 64, 127
1, 4304, Note_on_c, 0, 49, 0
1, 4307, Note_on_c, 0, 57, 0
1, 4348, Note_on_c, 0, 67, 0
1, 4371, Note_on_c, 0, 61, 0
1, 4427, Note_on_c, 0, 68, 59
1, 4428, Note_on_c, 0, 50, 34
1, 4429, Note_on_c, 0, 56, 35
1, 4429, Note_on_c, 0, 62, 52
1, 4432, Control_c, 0, 64, 0
1, 4457, Control_c, 0, 64, 127
1, 4473, Note_on_c, 0, 56, 0
1, 4475, Note_on_c, 0, 41, 0
1, 4476, Note_on_c, 0, 62, 0
1, 4484, Note_on_c, 0, 68, 0
1, 4487, Note_on_c, 0, 50, 0
1, 4536, Note_on_c, 0, 70, 55
1, 4539, Note_on_c, 0, 63, 52
1, 4541, Control_c, 0, 64, 0
1, 4542, Note_on_c, 0, 58, 35
1, 4542, Note_on_c, 0, 51, 28
1, 4545, Note_on_c, 0, 43, 29
1, 4575, Control_c, 0, 64, 127
1, 4617, Note_on_c, 0, 51, 0
1, 4619, Note_on_c, 0, 70, 0
1, 4620, Note_on_c, 0, 58, 0
1, 4623, Note_on_c, 0, 63, 0
1, 4660, Note_on_c, 0, 70, 47
1, 4663, Note_on_c, 0, 58, 26
1, 4665, Note_on_c, 0, 64, 43
1, 4666, Note_on_c, 0, 52, 22
1, 4666, Control_c, 0, 64, 0
1, 4693, Control_c, 0, 64, 127
1, 4767, Note_on_c, 0, 70, 0
1, 4829, Note_on_c, 0, 64, 0
1, 4829, Note_on_c, 0, 69, 53
1, 4837, Note_on_c, 0, 43, 0
1, 4857, Note_on_c, 0, 58, 0
1, 4868, Note_on_c, 0, 69, 0
1, 4927, Note_on_c, 0, 52, 0
1, 4938, Note_on_c, 0, 70, 46
1, 4944, Note_on_c, 0, 63, 40
1, 4945, Note_on_c, 0, 60, 42
1, 4946, Note_on_c, 0, 44, 27
1, 4946, Control_c, 0, 64, 0
1, 4948, Note_on_c, 0, 51, 25
1, 4974, Control_c, 0, 64, 127
1, 5024, Note_on_c, 0, 60, 0
1, 5025, Note_on_c, 0, 63, 0
1, 5031, Note_on_c, 0, 70, 0
1, 5067, Note_on_c, 0, 72, 55
1, 5070, Note_on_c, 0, 65, 44
1, 5071, Note_on_c, 0, 60, 40
1, 5073, Note_on_c, 0, 55, 33
1, 5077, Note_on_c, 0, 44, 0
1, 5080, Control_c, 0, 64, 0
1, 5084, Control_c, 0, 64, 127
1, 5090, Note_on_c, 0, 51, 0
1, 5103, Note_on_c, 0, 72, 0
1, 5111, Note_on_c, 0, 60, 0
1, 5121, Note_on_c, 0, 55, 0
1, 5126, Note_on_c, 0, 65, 0
1, 5158, Note_on_c, 0, 73, 53
1, 5160, Note_on_c, 0, 61, 28
1, 5162, Note_on_c, 0, 56, 30
1, 5162, Note_on_c, 0, 65, 44
1, 5165, Note_on_c, 0, 46, 27
1, 5169, Control_c, 0, 64, 0
1, 5197, Control_c, 0, 64, 127
1, 5217, Note_on_c, 0, 73, 0
1, 5234, Note_on_c, 0, 46, 0
1, 5238, Note_on_c, 0, 73, 62
1, 5245, Note_on_c, 0, 56, 0
1, 5270, Note_on_c, 0, 73, 0
1, 5302, Note_on_c, 0, 61, 0
1, 5314, Note_on_c, 0, 73, 55
1, 5315, Note_on_c, 0, 61, 31
1, 5317, Note_on_c, 0, 60, 48
1, 5385, Note_on_c, 0, 73, 0
1, 5394, Note_on_c, 0, 72, 55
1, 5433, Note_on_c, 0, 72, 0
1, 5446, Note_on_c, 0, 65, 0
1, 5446, Note_on_c, 0, 61, 0
1, 5468, Note_on_c, 0, 60, 0
1, 5470, Note_on_c, 0, 58, 43
1, 5471, Note_on_c, 0, 61, 28
1, 5472, Note_on_c, 0, 73, 44
1, 5475, Note_on_c, 0, 65, 40
1, 5579, Note_on_c, 0, 65, 0
1, 5632, Note_on_c, 0, 73, 0
1, 5654, Note_on_c, 0, 61, 0
1, 5697, Note_on_c, 0, 58, 0
1, 5719, Note_on_c, 0, 65, 40
1, 5745, Note_on_c, 0, 65, 0
1, 5886, Note_on_c, 0, 65, 34
1, 5889, Note_on_c, 0, 61, 27
1, 5892, Note_on_c, 0, 59, 45
1, 5892, Note_on_c, 0, 55, 30
1, 5894, Note_on_c, 0, 39, 29
1, 5897, Control_c, 0, 64, 0
1, 5931, Control_c, 0, 64, 127
1, 5932, Note_on_c, 0, 55, 0
1, 5941, Note_on_c, 0, 59, 0
1, 5954, Note_on_c, 0, 61, 0
1, 5955, Note_on_c, 0, 65, 0
1, 5957, Note_on_c, 0, 39, 0
1, 5958, Note_on_c, 0, 46, 34
1, 5986, Note_on_c, 0, 46, 0
1, 6009, Note_on_c, 0, 55, 45
1, 6061, Note_on_c, 0, 55, 0
1, 6062, Note_on_c, 0, 58, 46
1, 6127, Note_on_c, 0, 59, 34
1, 6196, Note_on_c, 0, 59, 0
1, 6202, Note_on_c, 0, 61, 31
1, 6250, Note_on_c, 0, 61, 0
1, 6282, Note_on_c, 0, 63, 32
1, 6447, Note_on_c, 0, 71, 38
1, 6468, Note_on_c, 0, 63, 0
1, 6487, Note_on_c, 0, 58, 0
1, 6498, Note_on_c, 0, 74, 53
1, 6547, Note_on_c, 0, 74, 0
1, 6563, Note_on_c, 0, 71, 0
1, 6565, Note_on_c, 0, 72, 60
1, 6634, Note_on_c, 0, 72, 0
1, 6639, Note_on_c, 0, 75, 68
1, 6648, Note_on_c, 0, 44, 26
1, 6655, Control_c, 0, 64, 0
1, 6683, Control_c, 0, 64, 127
1, 6713, Note_on_c, 0, 63, 49
1, 6720, Note_on_c, 0, 51, 20
1, 6727, Note_on_c, 0, 44, 0
1, 6730, Note_on_c, 0, 51, 0
1, 6789, Note_on_c, 0, 63, 0
1, 6794, Note_on_c, 0, 68, 51
1, 6802, Note_on_c, 0, 60, 35
1, 6864, Note_on_c, 0, 75, 0
1, 6872, Note_on_c, 0, 72, 68
1, 6876, Note_on_c, 0, 63, 34
1, 6928, Note_on_c, 0, 72, 0
1, 6944, Note_on_c, 0, 72, 73
1, 6950, Note_on_c, 0, 68, 0
1, 6990, Note_on_c, 0, 72, 0
1, 7004, Note_on_c, 0, 71, 71
1, 7028, Note_on_c, 0, 63, 0
1, 7059, Note_on_c, 0, 71, 0
1, 7064, Note_on_c, 0, 63, 38
1, 7065, Note_on_c, 0, 72, 70
1, 7072, Note_on_c, 0, 63, 0
1, 7079, Note_on_c, 0, 60, 0
1, 7102, Note_on_c, 0, 72, 0
1, 7133, Note_on_c, 0, 75, 78
1, 7200, Note_on_c, 0, 75, 0
1, 7218, Note_on_c, 0, 43, 46
1, 7221, Control_c, 0, 64, 0
1, 7235, Control_c, 0, 64, 127
1, 7286, Note_on_c, 0, 43, 0
1, 7295, Note_on_c, 0, 70, 57
1, 7295, Note_on_c, 0, 53, 44
1, 7296, Note_on_c, 0, 63, 37
1, 7299, Note_on_c, 0, 67, 29
1, 7320, Note_on_c, 0, 67, 0
1, 7322, Note_on_c, 0, 63, 0
1, 7326, Note_on_c, 0, 70, 0
1, 7364, Note_on_c, 0, 82, 65
1, 7367, Note_on_c, 0, 53, 0
1, 7368, Note_on_c, 0, 55, 39
1, 7427, Note_on_c, 0, 82, 0
1, 7432, Control_c, 0, 64, 0
1, 7437, Note_on_c, 0, 80, 45
1, 7441, Note_on_c, 0, 75, 34
1, 7442, Note_on_c, 0, 71, 18
1, 7443, Note_on_c, 0, 58, 32
1, 7447, Control_c, 0, 64, 127
1, 7470, Note_on_c, 0, 75, 0
1, 7470, Note_on_c, 0, 80, 0
1, 7477, Note_on_c, 0, 71, 0
1, 7509, Note_on_c, 0, 58, 0
1, 7521, Note_on_c, 0, 70, 56
1, 7521, Note_on_c, 0, 59, 24
1, 7524, Note_on_c, 0, 63, 44
1, 7564, Note_on_c, 0, 59, 0
1, 7584, Note_on_c, 0, 63, 0
1, 7601, Note_on_c, 0, 68, 49
1, 7605, Note_on_c, 0, 55, 0
1, 7608, Note_on_c, 0, 63, 25
1, 7610, Note_on_c, 0, 59, 15
1, 7619, Note_on_c, 0, 70, 0
1, 7635, Note_on_c, 0, 68, 0
1, 7645, Note_on_c, 0, 63, 0
1, 7651, Note_on_c, 0, 59, 0
1, 7726, Note_on_c, 0, 65, 37
1, 7730, Note_on_c, 0, 61, 37
1, 7730, Note_on_c, 0, 67, 32
1, 7731, Note_on_c, 0, 63, 33
1, 7732, Note_on_c, 0, 59, 13
1, 7733, Note_on_c, 0, 53, 31
1, 7735, Note_on_c, 0, 43, 29
1, 7736, Control_c, 0, 64, 0
1, 7791, Control_c, 0, 64, 127
1, 7811, Note_on_c, 0, 65, 0
1, 7826, Note_on_c, 0, 61, 0
1, 7832, Note_on_c, 0, 63, 0
1, 7840, Note_on_c, 0, 67, 0
1, 7850, Note_on_c, 0, 65, 36
1, 7851, Note_on_c, 0, 62, 34
1, 7853, Note_on_c, 0, 43, 0
1, 7860, Note_on_c, 0, 59, 0
1, 7883, Note_on_c, 0, 53, 0
1, 7905, Note_on_c, 0, 62, 0
1, 7916, Note_on_c, 0, 65, 0
1, 7925, Note_on_c, 0, 63, 32
1, 7928, Note_on_c, 0, 60, 25
1, 7932, Note_on_c, 0, 48, 34
1, 7933, Control_c, 0, 64, 0
1, 7933, Note_on_c, 0, 58, 21
1, 7955, Note_on_c, 0, 63, 0
1, 7962, Control_c, 0, 64, 127
1, 7967, Note_on_c, 0, 60, 0
1, 7989, Note_on_c, 0, 58, 0
1, 7996, Note_on_c, 0, 74, 64
1, 7996, Note_on_c, 0, 55, 26
1, 8006, Note_on_c, 0, 48, 0
1, 8022, Note_on_c, 0, 55, 0
1, 8047, Note_on_c, 0, 63, 36
1, 8049, Note_on_c, 0, 67, 35
1, 8049, Note_on_c, 0, 62, 34
1, 8097, Note_on_c, 0, 62, 0
1, 8101, Note_on_c, 0, 60, 71
1, 8107, Note_on_c, 0, 67, 0
1, 8116, Note_on_c, 0, 63, 0
1, 8160, Note_on_c, 0, 74, 0
1, 8163, Note_on_c, 0, 63, 32
1, 8163, Note_on_c, 0, 67, 36
1, 8225, Note_on_c, 0, 74, 76
1, 8229, Note_on_c, 0, 59, 49
1, 8230, Note_on_c, 0, 60, 0
1, 8270, Note_on_c, 0, 74, 0
1, 8287, Note_on_c, 0, 74, 62
1, 8313, Note_on_c, 0, 59, 0
1, 8317, Note_on_c, 0, 74, 0
1, 8325, Note_on_c, 0, 73, 56
1, 8357, Note_on_c, 0, 73, 0
1, 8372, Note_on_c, 0, 74, 69
1, 8393, Note_on_c, 0, 67, 0
1, 8403, Note_on_c, 0, 63, 0
1, 8427, Note_on_c, 0, 63, 32
1, 8430, Note_on_c, 0, 67, 43
1, 8432, Note_on_c, 0, 58, 23
1, 8433, Control_c, 0, 64, 0
1, 8438, Note_on_c, 0, 48, 24
1, 8458, Control_c, 0, 64, 127
1, 8484, Note_on_c, 0, 74, 0
1, 8486, Note_on_c, 0, 58, 0
1, 8487, Note_on_c, 0, 67, 0
1, 8490, Note_on_c, 0, 55, 40
1, 8509, Note_on_c, 0, 63, 0
1, 8549, Note_on_c, 0, 63, 35
1, 8550, Note_on_c, 0, 58, 23
1, 8552, Note_on_c, 0, 60, 39
1, 8556, Note_on_c, 0, 48, 0
1, 8569, Note_on_c, 0, 58, 0
1, 8578, Note_on_c, 0, 55, 0
1, 8581, Note_on_c, 0, 60, 0
1, 8590, Note_on_c, 0, 63, 0
1, 8614, Note_on_c, 0, 63, 51
1, 8616, Note_on_c, 0, 47, 45
1, 8619, Note_on_c, 0, 57, 39
1, 8620, Control_c, 0, 64, 0
1, 8621, Note_on_c, 0, 59, 41
1, 8626, Note_on_c, 0, 59, 0
1, 8641, Control_c, 0, 64, 127
1, 8650, Note_on_c, 0, 47, 0
1, 8657, Note_on_c, 0, 57, 0
1, 8671, Note_on_c, 0, 63, 0
1, 8697, Note_on_c, 0, 56, 35
1, 8699, Note_on_c, 0, 61, 49
1, 8703, Note_on_c, 0, 46, 32
1, 8707, Control_c, 0, 64, 0
1, 8731, Control_c, 0, 64, 127
1, 8743, Note_on_c, 0, 56, 0
1, 8752, Note_on_c, 0, 61, 0
1, 8767, Note_on_c, 0, 61, 44
1, 8770, Note_on_c, 0, 56, 30
1, 8771, Note_on_c, 0, 65, 40
1, 8784, Note_on_c, 0, 56, 0
1, 8802, Note_on_c, 0, 65, 0
1, 8812, Note_on_c, 0, 61, 0
1, 8832, Note_on_c, 0, 46, 0
1, 8862, Note_on_c, 0, 55, 30
1, 8862, Note_on_c, 0, 61, 29
1, 8863, Note_on_c, 0, 64, 35
1, 8864, Note_on_c, 0, 59, 43
1, 8865, Note_on_c, 0, 45, 38
1, 8868, Control_c, 0, 64, 0
1, 8895, Control_c, 0, 64, 127
1, 8928, Note_on_c, 0, 55, 0
1, 8931, Note_on_c, 0, 59, 0
1, 8939, Note_on_c, 0, 61, 0
1, 8941, Note_on_c, 0, 64, 0
1, 9305, Note_on_c, 0, 45, 0
1, 9414, Note_on_c, 0, 75, 48
1, 9488, Note_on_c, 0, 75, 0
1, 9491, Note_on_c, 0, 72, 58
1, 9496, Note_on_c, 0, 53, 32
1, 9497, Note_on_c, 0, 63, 23
1, 9497, Note_on_c, 0, 68, 38
1, 9499, Note_on_c, 0, 67, 20
1, 9503, Control_c, 0, 64, 0
1, 9537, Control_c, 0, 64, 127
1, 9571, Note_on_c, 0, 63, 0
1, 9575, Note_on_c, 0, 60, 38
1, 9579, Note_on_c, 0, 72, 0
1, 9604, Note_on_c, 0, 68, 0
1, 9608, Note_on_c, 0, 67, 0
1, 9657, Note_on_c, 0, 68, 58
1, 9658, Note_on_c, 0, 72, 53
1, 9658, Note_on_c, 0, 65, 45
1, 9660, Note_on_c, 0, 63, 29
1, 9723, Note_on_c, 0, 68, 0
1, 9725, Note_on_c, 0, 63, 0
1, 9757, Note_on_c, 0, 72, 0
1, 9846, Note_on_c, 0, 71, 56
1, 9876, Note_on_c, 0, 65, 0
1, 9878, Note_on_c, 0, 71, 0
1, 9885, Note_on_c, 0, 53, 0
1, 9886, Note_on_c, 0, 72, 78
1, 9942, Note_on_c, 0, 72, 0
1, 9951, Note_on_c, 0, 63, 51
1, 9952, Note_on_c, 0, 66, 60
1, 9953, Note_on_c, 0, 69, 65
1, 9956, Note_on_c, 0, 54, 33
1, 9958, Control_c, 0, 64, 0
1, 9987, Control_c, 0, 64, 127
1, 9992, Note_on_c, 0, 69, 0
1, 10016, Note_on_c, 0, 69, 71
1, 10058, Note_on_c, 0, 60, 0
1, 10061, Note_on_c, 0, 72, 68
1, 10066, Note_on_c, 0, 69, 0
1, 10080, Note_on_c, 0, 72, 0
1, 10086, Note_on_c, 0, 63, 0
1, 10086, Note_on_c, 0, 54, 0
1, 10094, Note_on_c, 0, 66, 0
1, 10119, Note_on_c, 0, 70, 52
1, 10120, Note_on_c, 0, 55, 35
1, 10121, Note_on_c, 0, 62, 45
1, 10124, Note_on_c, 0, 65, 53
1, 10125, Control_c, 0, 64, 0
1, 10161, Control_c, 0, 64, 127
1, 10164, Note_on_c, 0, 70, 0
1, 10181, Note_on_c, 0, 70, 55
1, 10182, Note_on_c, 0, 43, 32
1, 10206, Note_on_c, 0, 70, 0
1, 10255, Note_on_c, 0, 70, 46
1, 10258, Note_on_c, 0, 43, 0
1, 10297, Note_on_c, 0, 55, 0
1, 10307, Note_on_c, 0, 70, 0
1, 10333, Note_on_c, 0, 69, 32
1, 10353, Note_on_c, 0, 62, 0
1, 10368, Note_on_c, 0, 65, 0
1, 10371, Note_on_c, 0, 69, 0
1, 10431, Note_on_c, 0, 70, 47
1, 10434, Control_c, 0, 64, 0
1, 10436, Note_on_c, 0, 61, 35
1, 10440, Note_on_c, 0, 64, 32
1, 10440, Note_on_c, 0, 58, 20
1, 10441, Note_on_c, 0, 48, 27
1, 10462, Control_c, 0, 64, 127
1, 10477, Note_on_c, 0, 48, 0
1, 10477, Note_on_c, 0, 58, 0
1, 10515, Note_on_c, 0, 61, 0
1, 10531, Note_on_c, 0, 64, 0
1, 10546, Note_on_c, 0, 60, 33
1, 10650, Note_on_c, 0, 24, 31
1, 10743, Note_on_c, 0, 24, 0
1, 10794, Note_on_c, 0, 60, 0
1, 10800, Note_on_c, 0, 70, 0
1, 10805, Note_on_c, 0, 67, 31
1, 10851, Note_on_c, 0, 67, 0
1, 11055, Note_on_c, 0, 65, 52
1, 11058, Note_on_c, 0, 63, 36
1, 11063, Note_on_c, 0, 60, 32
1, 11065, Note_on_c, 0, 58, 20
1, 11071, Control_c, 0, 64, 0
1, 11098, Control_c, 0, 64, 127
1, 11107, Note_on_c, 0, 65, 0
1, 11127, Note_on_c, 0, 65, 47
1, 11132, Note_on_c, 0, 46, 29
1, 11156, Note_on_c, 0, 60, 0
1, 11159, Note_on_c, 0, 65, 0
1, 11166, Note_on_c, 0, 63, 0
1, 11193, Note_on_c, 0, 58, 0
1, 11202, Note_on_c, 0, 65, 47
1, 11309, Note_on_c, 0, 65, 0
1, 11349, Note_on_c, 0, 58, 33
1, 11417, Note_on_c, 0, 64, 57
1, 11442, Note_on_c, 0, 58, 0
1, 11455, Note_on_c, 0, 64, 0
1, 11496, Note_on_c, 0, 65, 55
1, 11501, Control_c, 0, 64, 0
1, 11502, Note_on_c, 0, 60, 34
1, 11504, Note_on_c, 0, 58, 21
1, 11514, Control_c, 0, 64, 127
1, 11523, Note_on_c, 0, 65, 0
1, 11560, Note_on_c, 0, 46, 0
1, 11581, Note_on_c, 0, 60, 0
1, 11585, Note_on_c, 0, 46, 30
1, 11588, Note_on_c, 0, 68, 62
1, 11601, Note_on_c, 0, 58, 0
1, 11648, Note_on_c, 0, 68, 0
1, 11691, Note_on_c, 0, 46, 0
1, 11703, Note_on_c, 0, 68, 60
1, 11707, Note_on_c, 0, 61, 47
1, 11708, Note_on_c, 0, 57, 45
1, 11709, Note_on_c, 0, 64, 48
1, 11712, Note_on_c, 0, 47, 28
1, 11715, Control_c, 0, 64, 0
1, 11752, Control_c, 0, 64, 127
1, 11768, Note_on_c, 0, 68, 0
1, 11788, Note_on_c, 0, 68, 64
1, 11792, Note_on_c, 0, 57, 0
1, 11822, Note_on_c, 0, 64, 0
1, 11832, Note_on_c, 0, 61, 0
1, 11836, Note_on_c, 0, 68, 0
1, 11874, Note_on_c, 0, 68, 37
1, 11875, Note_on_c, 0, 61, 44
1, 11880, Note_on_c, 0, 64, 36
1, 11880, Note_on_c, 0, 57, 46
1, 11881, Note_on_c, 0, 56, 32
1, 11944, Note_on_c, 0, 47, 0
1, 11955, Note_on_c, 0, 68, 0
1, 11982, Note_on_c, 0, 68, 46
1, 11988, Note_on_c, 0, 56, 0
1, 11988, Note_on_c, 0, 47, 29
1, 12034, Note_on_c, 0, 47, 0
1, 12037, Note_on_c, 0, 57, 0
1, 12053, Note_on_c, 0, 64, 0
1, 12060, Note_on_c, 0, 61, 0
1, 12075, Note_on_c, 0, 68, 0
1, 12112, Note_on_c, 0, 68, 37
1, 12114, Note_on_c, 0, 56, 32
1, 12114, Note_on_c, 0, 63, 35
1, 12115, Note_on_c, 0, 65, 38
1, 12115, Note_on_c, 0, 46, 25
1, 12117, Control_c, 0, 64, 0
1, 12117, Note_on_c, 0, 60, 30
1, 12144, Control_c, 0, 64, 127
1, 12157, Note_on_c, 0, 56, 0
1, 12166, Note_on_c, 0, 46, 0
1, 12225, Note_on_c, 0, 34, 25
1, 12242, Note_on_c, 0, 34, 0
1, 12384, Note_on_c, 0, 22, 29
1, 12441, Note_on_c, 0, 60, 0
1, 12450, Note_on_c, 0, 65, 0
1, 12450, Note_on_c, 0, 22, 0
1, 12469, Note_on_c, 0, 63, 0
1, 12484, Note_on_c, 0, 68, 0
1, 12561, Note_on_c, 0, 70, 46
1, 12686, Note_on_c, 0, 70, 0
1, 12884, Note_on_c, 0, 51, 46
1, 12901, Note_on_c, 0, 66, 49
1, 12908, Note_on_c, 0, 69, 71
1, 12912, Note_on_c, 0, 62, 44
1, 12914, Note_on_c, 0, 74, 36
1, 12921, Note_on_c, 0, 77, 68
1, 12922, Control_c, 0, 64, 0
1, 12951, Control_c, 0, 64, 127
1, 12984, Note_on_c, 0, 77, 0
1, 12998, Note_on_c, 0, 77, 57
1, 13028, Note_on_c, 0, 62, 0
1, 13044, Note_on_c, 0, 69, 0
1, 13047, Note_on_c, 0, 74, 0
1, 13050, Note_on_c, 0, 66, 0
1, 13057, Note_on_c, 0, 77, 0
1, 13075, Note_on_c, 0, 66, 45
1, 13078, Note_on_c, 0, 69, 60
1, 13086, Note_on_c, 0, 62, 27
1, 13086, Note_on_c, 0, 77, 65
1, 13086, Note_on_c, 0, 74, 35
1, 13150, Note_on_c, 0, 77, 0
1, 13151, Note_on_c, 0, 74, 0
1, 13169, Note_on_c, 0, 75, 64
1, 13191, Note_on_c, 0, 69, 0
1, 13199, Note_on_c, 0, 62, 0
1, 13212, Note_on_c, 0, 51, 0
1, 13222, Note_on_c, 0, 66, 0
1, 13251, Note_on_c, 0, 75, 0
1, 13275, Note_on_c, 0, 70, 47
1, 13276, Note_on_c, 0, 77, 43
1, 13277, Note_on_c, 0, 67, 35
1, 13278, Note_on_c, 0, 51, 34
1, 13282, Control_c, 0, 64, 0
1, 13284, Note_on_c, 0, 60, 28
1, 13303, Control_c, 0, 64, 127
1, 13317, Note_on_c, 0, 77, 0
1, 13334, Note_on_c, 0, 70, 0
1, 13338, Note_on_c, 0, 60, 0
1, 13339, Note_on_c, 0, 67, 0
1, 13343, Note_on_c, 0, 79, 62
1, 13352, Note_on_c, 0, 58, 17
1, 13389, Note_on_c, 0, 51, 0
1, 13392, Note_on_c, 0, 58, 0
1, 13396, Note_on_c, 0, 67, 32
1, 13397, Note_on_c, 0, 74, 32
1, 13397, Note_on_c, 0, 62, 31
1, 13416, Note_on_c, 0, 67, 0
1, 13433, Note_on_c, 0, 74, 0
1, 13440, Note_on_c, 0, 79, 0
1, 13441, Note_on_c, 0, 62, 0
1, 13443, Note_on_c, 0, 63, 43
1, 13488, Note_on_c, 0, 82, 47
1, 13488, Note_on_c, 0, 77, 52
1, 13490, Note_on_c, 0, 67, 33
1, 13517, Note_on_c, 0, 82, 0
1, 13529, Note_on_c, 0, 67, 0
1, 13531, Note_on_c, 0, 86, 66
1, 13545, Note_on_c, 0, 70, 10
1, 13562, Note_on_c, 0, 77, 0
1, 13568, Note_on_c, 0, 70, 0
1, 13576, Note_on_c, 0, 86, 0
1, 13578, Note_on_c, 0, 82, 54
1, 13582, Note_on_c, 0, 67, 24
1, 13588, Note_on_c, 0, 82, 0
1, 13608, Note_on_c, 0, 67, 0
1, 13630, Note_on_c, 0, 89, 65
1, 13633, Note_on_c, 0, 74, 24
1, 13634, Note_on_c, 0, 82, 40
1, 13655, Note_on_c, 0, 82, 0
1, 13664, Note_on_c, 0, 74, 0
1, 13671, Note_on_c, 0, 89, 0
1, 13685, Note_on_c, 0, 86, 43
1, 13689, Note_on_c, 0, 67, 37
1, 13691, Note_on_c, 0, 86, 0
1, 13692, Note_on_c, 0, 77, 27
1, 13699, Note_on_c, 0, 63, 0
1, 13704, Note_on_c, 0, 77, 0
1, 13745, Note_on_c, 0, 67, 0
1, 13746, Note_on_c, 0, 63, 35
1, 13746, Note_on_c, 0, 82, 31
1, 13747, Note_on_c, 0, 74, 43
1, 13752, Note_on_c, 0, 82, 0
1, 13754, Note_on_c, 0, 74, 0
1, 13803, Note_on_c, 0, 63, 0
1, 13806, Note_on_c, 0, 77, 36
1, 13809, Note_on_c, 0, 70, 26
1, 13810, Note_on_c, 0, 74, 34
1, 13815, Note_on_c, 0, 65, 24
1, 13870, Note_on_c, 0, 58, 28
1, 13873, Note_on_c, 0, 65, 0
1, 13874, Note_on_c, 0, 74, 0
1, 13882, Note_on_c, 0, 70, 0
1, 13924, Note_on_c, 0, 74, 32
1, 13926, Note_on_c, 0, 70, 30
1, 13927, Note_on_c, 0, 58, 0
1, 13929, Note_on_c, 0, 65, 28
1, 13929, Note_on_c, 0, 67, 24
1, 13986, Note_on_c, 0, 51, 34
1, 13995, Note_on_c, 0, 51, 0
1, 14048, Note_on_c, 0, 39, 35
1, 14124, Note_on_c, 0, 65, 0
1, 14125, Note_on_c, 0, 67, 0
1, 14126, Note_on_c, 0, 27, 32
1, 14127, Note_on_c, 0, 77, 0
1, 14131, Note_on_c, 0, 74, 0
1, 14136, Note_on_c, 0, 70, 0
1, 14185, Note_on_c, 0, 27, 0
1, 14201, Note_on_c, 0, 39, 0
1, 14366, Note_on_c, 0, 63, 39
1, 14366, Note_on_c, 0, 65, 48
1, 14367, Note_on_c, 0, 60, 49
1, 14369, Note_on_c, 0, 51, 35
1, 14372, Control_c, 0, 64, 0
1, 14395, Control_c, 0, 64, 127
1, 14411, Note_on_c, 0, 60, 0
1, 14417, Note_on_c, 0, 63, 0
1, 14418, Note_on_c, 0, 65, 0
1, 14444, Note_on_c, 0, 58, 25
1, 14460, Note_on_c, 0, 58, 0
1, 14504, Note_on_c, 0, 77, 48
1, 14507, Note_on_c, 0, 60, 48
1, 14507, Note_on_c, 0, 75, 49
1, 14508, Note_on_c, 0, 72, 42
1, 14509, Note_on_c, 0, 68, 35
1, 14561, Note_on_c, 0, 72, 0
1, 14575, Note_on_c, 0, 60, 0
1, 14577, Note_on_c, 0, 68, 0
1, 14583, Note_on_c, 0, 77, 0
1, 14597, Note_on_c, 0, 60, 42
1, 14657, Note_on_c, 0, 75, 0
1, 14666, Note_on_c, 0, 68, 37
1, 14669, Note_on_c, 0, 63, 25
1, 14669, Note_on_c, 0, 65, 34
1, 14670, Note_on_c, 0, 72, 47
1, 14694, Note_on_c, 0, 60, 0
1, 14730, Note_on_c, 0, 68, 0
1, 14730, Note_on_c, 0, 65, 0
1, 14730, Note_on_c, 0, 72, 0
1, 14733, Note_on_c, 0, 63, 0
1, 14737, Note_on_c, 0, 60, 58
1, 14797, Note_on_c, 0, 77, 81
1, 14799, Note_on_c, 0, 72, 84
1, 14804, Note_on_c, 0, 63, 39
1, 14812, Note_on_c, 0, 60, 0
1, 14845, Note_on_c, 0, 77, 0
1, 14855, Note_on_c, 0, 75, 71
1, 14857, Note_on_c, 0, 60, 55
1, 14865, Note_on_c, 0, 63, 0
1, 14877, Note_on_c, 0, 72, 0
1, 14879, Note_on_c, 0, 51, 0
1, 14913, Note_on_c, 0, 75, 0
1, 14927, Note_on_c, 0, 77, 66
1, 14929, Note_on_c, 0, 60, 0
1, 14929, Note_on_c, 0, 51, 62
1, 14930, Note_on_c, 0, 72, 72
1, 14934, Control_c, 0, 64, 0
1, 14963, Control_c, 0, 64, 127
1, 15000, Note_on_c, 0, 60, 47
1, 15057, Note_on_c, 0, 72, 0
1, 15077, Note_on_c, 0, 68, 54
1, 15084, Note_on_c, 0, 63, 18
1, 15088, Note_on_c, 0, 72, 18
1, 15128, Note_on_c, 0, 51, 0
1, 15144, Note_on_c, 0, 63, 0
1, 15149, Note_on_c, 0, 72, 0
1, 15156, Note_on_c, 0, 51, 37
1, 15159, Note_on_c, 0, 77, 0
1, 15172, Note_on_c, 0, 68, 0
1, 15199, Note_on_c, 0, 51, 0
1, 15239, Note_on_c, 0, 60, 0
1, 15415, Note_on_c, 0, 70, 36
1, 15418, Note_on_c, 0, 59, 32
1, 15418, Note_on_c, 0, 62, 36
1, 15419, Note_on_c, 0, 51, 32
1, 15421, Note_on_c, 0, 65, 31
1, 15431, Control_c, 0, 64, 0
1, 15439, Note_on_c, 0, 58, 14
1, 15482, Control_c, 0, 64, 127
1, 15609, Note_on_c, 0, 58, 0
1, 15622, Note_on_c, 0, 51, 0
1, 15648, Note_on_c, 0, 70, 0
1, 15661, Note_on_c, 0, 65, 0
1, 15874, Note_on_c, 0, 68, 35
1, 15903, Note_on_c, 0, 62, 0
1, 15919, Note_on_c, 0, 68, 0
1, 15931, Note_on_c, 0, 59, 0
1, 16116, Note_on_c, 0, 63, 53
1, 16116, Note_on_c, 0, 39, 42
1, 16117, Note_on_c, 0, 59, 51
1, 16117, Note_on_c, 0, 67, 36
1, 16119, Note_on_c, 0, 55, 40
1, 16119, Note_on_c, 0, 47, 24
1, 16122, Control_c, 0, 64, 0
1, 16149, Control_c, 0, 64, 127
1, 16171, Note_on_c, 0, 59, 0
1, 16186, Note_on_c, 0, 55, 0
1, 16187, Note_on_c, 0, 67, 0
1, 16193, Note_on_c, 0, 63, 0
1, 16215, Note_on_c, 0, 67, 51
1, 16217, Note_on_c, 0, 60, 66
1, 16217, Note_on_c, 0, 55, 54
1, 16219, Note_on_c, 0, 48, 30
1, 16221, Control_c, 0, 64, 0
1, 16243, Control_c, 0, 64, 127
1, 16304, Note_on_c, 0, 67, 0
1, 16318, Note_on_c, 0, 66, 50
1, 16328, Note_on_c, 0, 39, 0
1, 16339, Note_on_c, 0, 48, 0
1, 16340, Note_on_c, 0, 60, 0
1, 16344, Note_on_c, 0, 55, 0
1, 16361, Note_on_c, 0, 47, 0
1, 16365, Note_on_c, 0, 66, 0
1, 16405, Note_on_c, 0, 67, 38
1, 16407, Note_on_c, 0, 57, 37
1, 16407, Note_on_c, 0, 61, 46
1, 16410, Note_on_c, 0, 49, 25
1, 16413, Note_on_c, 0, 41, 34
1, 16413, Control_c, 0, 64, 0
1, 16440, Control_c, 0, 64, 127
1, 16479, Note_on_c, 0, 57, 0
1, 16485, Note_on_c, 0, 67, 0
1, 16497, Note_on_c, 0, 49, 0
1, 16506, Note_on_c, 0, 61, 0
1, 16624, Note_on_c, 0, 68, 56
1, 16627, Note_on_c, 0, 58, 42
1, 16628, Note_on_c, 0, 62, 47
1, 16636, Note_on_c, 0, 50, 10
1, 16656, Note_on_c, 0, 62, 0
1, 16656, Note_on_c, 0, 41, 0
1, 16665, Note_on_c, 0, 68, 0
1, 16675, Note_on_c, 0, 50, 0
1, 16681, Note_on_c, 0, 58, 0
1, 16716, Note_on_c, 0, 70, 55
1, 16718, Note_on_c, 0, 51, 36
1, 16719, Note_on_c, 0, 63, 51
1, 16720, Note_on_c, 0, 58, 35
1, 16720, Note_on_c, 0, 67, 36
1, 16721, Note_on_c, 0, 43, 29
1, 16722, Control_c, 0, 64, 0
1, 16747, Control_c, 0, 64, 127
1, 16798, Note_on_c, 0, 67, 0
1, 16806, Note_on_c, 0, 58, 0
1, 16809, Note_on_c, 0, 70, 0
1, 16814, Note_on_c, 0, 51, 0
1, 16816, Note_on_c, 0, 43, 0
1, 16830, Note_on_c, 0, 63, 0
1, 16868, Note_on_c, 0, 70, 62
1, 16871, Note_on_c, 0, 64, 65
1, 16871, Note_on_c, 0, 58, 45
1, 16873, Note_on_c, 0, 43, 29
1, 16874, Note_on_c, 0, 52, 31
1, 16876, Control_c, 0, 64, 0
1, 16903, Control_c, 0, 64, 127
1, 16979, Note_on_c, 0, 69, 54
1, 16986, Note_on_c, 0, 43, 0
1, 17001, Note_on_c, 0, 70, 0
1, 17016, Note_on_c, 0, 58, 0
1, 17018, Note_on_c, 0, 64, 0
1, 17025, Note_on_c, 0, 69, 0
1, 17049, Note_on_c, 0, 52, 0
1, 17136, Note_on_c, 0, 70, 45
1, 17141, Note_on_c, 0, 63, 43
1, 17141, Note_on_c, 0, 60, 31
1, 17142, Control_c, 0, 64, 0
1, 17144, Note_on_c, 0, 44, 30
1, 17174, Control_c, 0, 64, 127
1, 17208, Note_on_c, 0, 70, 0
1, 17211, Note_on_c, 0, 51, 35
1, 17215, Note_on_c, 0, 69, 53
1, 17227, Note_on_c, 0, 63, 0
1, 17253, Note_on_c, 0, 69, 0
1, 17260, Note_on_c, 0, 60, 0
1, 17272, Note_on_c, 0, 70, 70
1, 17274, Note_on_c, 0, 44, 0
1, 17277, Note_on_c, 0, 60, 26
1, 17277, Note_on_c, 0, 63, 37
1, 17279, Note_on_c, 0, 51, 0
1, 17281, Note_on_c, 0, 55, 47
1, 17308, Note_on_c, 0, 63, 0
1, 17321, Note_on_c, 0, 70, 0
1, 17328, Note_on_c, 0, 60, 0
1, 17336, Note_on_c, 0, 60, 61
1, 17337, Note_on_c, 0, 72, 64
1, 17339, Note_on_c, 0, 55, 0
1, 17343, Note_on_c, 0, 56, 23
1, 17355, Note_on_c, 0, 58, 7
1, 17362, Note_on_c, 0, 60, 0
1, 17367, Note_on_c, 0, 72, 0
1, 17374, Note_on_c, 0, 58, 0
1, 17378, Note_on_c, 0, 56, 0
1, 17406, Note_on_c, 0, 73, 63
1, 17407, Note_on_c, 0, 61, 43
1, 17409, Note_on_c, 0, 56, 32
1, 17410, Note_on_c, 0, 46, 27
1, 17410, Note_on_c, 0, 65, 60
1, 17413, Control_c, 0, 64, 0
1, 17439, Control_c, 0, 64, 127
1, 17452, Note_on_c, 0, 56, 0
1, 17457, Note_on_c, 0, 53, 57
1, 17467, Note_on_c, 0, 46, 0
1, 17472, Note_on_c, 0, 53, 0
1, 17474, Note_on_c, 0, 65, 0
1, 17488, Note_on_c, 0, 61, 0
1, 17514, Note_on_c, 0, 61, 62
1, 17515, Note_on_c, 0, 65, 66
1, 17521, Note_on_c, 0, 60, 69
1, 17580, Note_on_c, 0, 58, 93
1, 17584, Note_on_c, 0, 60, 0
1, 17595, Control_c, 0, 64, 0
1, 17605, Note_on_c, 0, 65, 0
1, 17615, Control_c, 0, 64, 127
1, 17625, Note_on_c, 0, 61, 0
1, 17650, Note_on_c, 0, 61, 36
1, 17652, Note_on_c, 0, 65, 48
1, 17720, Note_on_c, 0, 57, 76
1, 17725, Note_on_c, 0, 65, 0
1, 17727, Note_on_c, 0, 58, 0
1, 17739, Control_c, 0, 64, 0
1, 17766, Control_c, 0, 64, 127
1, 17770, Note_on_c, 0, 61, 0
1, 17794, Note_on_c, 0, 61, 35
1, 17799, Note_on_c, 0, 65, 48
1, 17833, Note_on_c, 0, 73, 0
1, 17856, Note_on_c, 0, 61, 0
1, 17857, Note_on_c, 0, 65, 0
1, 17864, Note_on_c, 0, 61, 15
1, 17866, Note_on_c, 0, 72, 52
1, 17868, Note_on_c, 0, 57, 0
1, 17868, Note_on_c, 0, 56, 46
1, 17869, Note_on_c, 0, 65, 17
1, 17873, Control_c, 0, 64, 0
1, 17893, Control_c, 0, 64, 127
1, 17905, Note_on_c, 0, 72, 0
1, 17911, Note_on_c, 0, 65, 0
1, 17917, Note_on_c, 0, 61, 0
1, 17949, Note_on_c, 0, 73, 55
1, 17951, Note_on_c, 0, 61, 38
1, 17952, Control_c, 0, 64, 0
1, 17953, Note_on_c, 0, 65, 50
1, 17953, Note_on_c, 0, 55, 41
1, 17958, Note_on_c, 0, 56, 0
1, 17976, Control_c, 0, 64, 127
1, 18001, Note_on_c, 0, 65, 0
1, 18012, Note_on_c, 0, 55, 0
1, 18072, Note_on_c, 0, 61, 0
1, 18079, Note_on_c, 0, 73, 0
1, 18080, Note_on_c, 0, 27, 69
1, 18115, Note_on_c, 0, 27, 0
1, 18583, Note_on_c, 0, 84, 39
1, 18586, Note_on_c, 0, 66, 25
1, 18587, Note_on_c, 0, 72, 32
1, 18588, Note_on_c, 0, 61, 34
1, 18591, Note_on_c, 0, 55, 30
1, 18729, Note_on_c, 0, 84, 0
1, 18732, Note_on_c, 0, 55, 0
1, 18738, Note_on_c, 0, 72, 0
1, 18740, Note_on_c, 0, 66, 0
1, 18744, Note_on_c, 0, 61, 0
1, 18833, Note_on_c, 0, 82, 46
1, 18835, Note_on_c, 0, 61, 30
1, 18837, Note_on_c, 0, 70, 31
1, 18839, Note_on_c, 0, 55, 26
1, 18839, Note_on_c, 0, 65, 20
1, 18902, Note_on_c, 0, 65, 0
1, 18907, Note_on_c, 0, 82, 0
1, 18919, Note_on_c, 0, 61, 0
1, 18920, Note_on_c, 0, 55, 0
1, 18925, Note_on_c, 0, 70, 0
1, 19240, Note_on_c, 0, 72, 67
1, 19242, Note_on_c, 0, 60, 56
1, 19243, Note_on_c, 0, 51, 43
1, 19245, Note_on_c, 0, 44, 37
1, 19249, Control_c, 0, 64, 0
1, 19279, Control_c, 0, 64, 127
1, 19316, Note_on_c, 0, 60, 0
1, 19317, Note_on_c, 0, 72, 0
1, 19373, Note_on_c, 0, 44, 0
1, 19396, Note_on_c, 0, 44, 42
1, 19396, Note_on_c, 0, 72, 79
1, 19398, Note_on_c, 0, 60, 66
1, 19399, Note_on_c, 0, 51, 0
1, 19400, Note_on_c, 0, 52, 63
1, 19404, Control_c, 0, 64, 0
1, 19439, Control_c, 0, 64, 127
1, 19463, Note_on_c, 0, 72, 0
1, 19469, Note_on_c, 0, 71, 64
1, 19497, Note_on_c, 0, 60, 0
1, 19504, Note_on_c, 0, 44, 0
1, 19508, Note_on_c, 0, 71, 0
1, 19524, Note_on_c, 0, 52, 0
1, 19550, Note_on_c, 0, 72, 62
1, 19551, Note_on_c, 0, 60, 57
1, 19555, Note_on_c, 0, 53, 45
1, 19557, Note_on_c, 0, 44, 30
1, 19562, Control_c, 0, 64, 0
1, 19607, Control_c, 0, 64, 127
1, 19668, Note_on_c, 0, 60, 0
1, 19670, Note_on_c, 0, 53, 0
1, 19715, Note_on_c, 0, 65, 37
1, 19716, Note_on_c, 0, 60, 45
1, 19757, Note_on_c, 0, 72, 0
1, 19760, Note_on_c, 0, 60, 0
1, 19776, Note_on_c, 0, 53, 7
1, 19793, Note_on_c, 0, 44, 0
1, 19794, Note_on_c, 0, 65, 0
1, 19797, Note_on_c, 0, 74, 76
1, 19806, Note_on_c, 0, 53, 0
1, 19864, Note_on_c, 0, 74, 0
1, 19887, Note_on_c, 0, 74, 60
1, 19893, Note_on_c, 0, 60, 39
1, 19894, Note_on_c, 0, 67, 60
1, 19895, Note_on_c, 0, 68, 49
1, 19897, Note_on_c, 0, 50, 35
1, 19899, Control_c, 0, 64, 0
1, 19938, Control_c, 0, 64, 127
1, 19980, Note_on_c, 0, 60, 0
1, 19981, Note_on_c, 0, 50, 0
1, 19982, Note_on_c, 0, 56, 39
1, 20007, Note_on_c, 0, 67, 0
1, 20085, Note_on_c, 0, 60, 36
1, 20163, Note_on_c, 0, 74, 0
1, 20166, Note_on_c, 0, 68, 0
1, 20167, Note_on_c, 0, 60, 0
1, 20169, Note_on_c, 0, 65, 44
1, 20187, Note_on_c, 0, 56, 0
1, 20248, Note_on_c, 0, 65, 0
1, 20251, Note_on_c, 0, 63, 52
1, 20289, Note_on_c, 0, 63, 0
1, 20325, Note_on_c, 0, 62, 46
1, 20359, Note_on_c, 0, 61, 48
1, 20362, Note_on_c, 0, 62, 0
1, 20379, Note_on_c, 0, 61, 0
1, 20381, Note_on_c, 0, 60, 44
1, 20408, Note_on_c, 0, 60, 0
1, 20414, Note_on_c, 0, 59, 43
1, 20439, Note_on_c, 0, 59, 0
1, 20443, Note_on_c, 0, 58, 37
1, 20473, Note_on_c, 0, 58, 0
1, 20478, Note_on_c, 0, 59, 44
1, 20481, Note_on_c, 0, 43, 32
1, 20482, Note_on_c, 0, 53, 29
1, 20482, Control_c, 0, 64, 0
1, 20538, Control_c, 0, 64, 127
1, 20662, Note_on_c, 0, 70, 44
1, 20677, Note_on_c, 0, 43, 0
1, 20695, Note_on_c, 0, 59, 0
1, 20695, Note_on_c, 0, 53, 0
1, 20721, Note_on_c, 0, 70, 0
1, 20755, Note_on_c, 0, 71, 37
1, 20756, Note_on_c, 0, 68, 38
1, 20757, Note_on_c, 0, 64, 38
1, 20761, Note_on_c, 0, 56, 29
1, 20783, Note_on_c, 0, 64, 0
1, 20787, Note_on_c, 0, 71, 0
1, 20788, Note_on_c, 0, 68, 0
1, 20824, Note_on_c, 0, 74, 60
1, 20829, Note_on_c, 0, 59, 34
1, 20839, Note_on_c, 0, 59, 0
1, 20847, Note_on_c, 0, 56, 0
1, 20865, Note_on_c, 0, 74, 0
1, 20893, Note_on_c, 0, 74, 55
1, 20898, Note_on_c, 0, 48, 40
1, 20899, Control_c, 0, 64, 0
1, 20900, Note_on_c, 0, 63, 39
1, 20900, Note_on_c, 0, 67, 30
1, 20902, Note_on_c, 0, 58, 17
1, 20925, Control_c, 0, 64, 127
1, 20929, Note_on_c, 0, 48, 0
1, 20947, Note_on_c, 0, 58, 0
1, 20981, Note_on_c, 0, 62, 38
1, 20996, Note_on_c, 0, 67, 0
1, 21029, Note_on_c, 0, 63, 0
1, 21054, Note_on_c, 0, 74, 0
1, 21056, Note_on_c, 0, 62, 0
1, 21063, Note_on_c, 0, 63, 34
1, 21065, Note_on_c, 0, 67, 33
1, 21066, Note_on_c, 0, 60, 30
1, 21095, Note_on_c, 0, 60, 0
1, 21128, Note_on_c, 0, 74, 68
1, 21154, Note_on_c, 0, 74, 0
1, 21161, Note_on_c, 0, 72, 66
1, 21202, Note_on_c, 0, 67, 0
1, 21203, Note_on_c, 0, 72, 0
1, 21205, Note_on_c, 0, 63, 0
1, 21212, Note_on_c, 0, 74, 72
1, 21214, Note_on_c, 0, 46, 38
1, 21219, Control_c, 0, 64, 0
1, 21242, Control_c, 0, 64, 127
1, 21262, Note_on_c, 0, 46, 0
1, 21263, Note_on_c, 0, 55, 43
1, 21269, Note_on_c, 0, 55, 0
1, 21302, Note_on_c, 0, 74, 0
1, 21314, Note_on_c, 0, 63, 35
1, 21314, Note_on_c, 0, 67, 48
1, 21315, Note_on_c, 0, 58, 36
1, 21366, Note_on_c, 0, 74, 74
1, 21369, Note_on_c, 0, 62, 27
1, 21370, Note_on_c, 0, 58, 0
1, 21374, Note_on_c, 0, 62, 0
1, 21391, Note_on_c, 0, 74, 0
1, 21421, Note_on_c, 0, 63, 0
1, 21422, Note_on_c, 0, 67, 0
1, 21427, Note_on_c, 0, 75, 83
1, 21429, Note_on_c, 0, 45, 57
1, 21431, Control_c, 0, 64, 0
1, 21454, Control_c, 0, 64, 127
1, 21491, Note_on_c, 0, 55, 54
1, 21492, Note_on_c, 0, 45, 0
1, 21507, Note_on_c, 0, 55, 0
1, 21555, Note_on_c, 0, 63, 49
1, 21558, Note_on_c, 0, 67, 46
1, 21559, Note_on_c, 0, 60, 30
1, 21564, Note_on_c, 0, 60, 0
1, 21622, Note_on_c, 0, 45, 69
1, 21644, Note_on_c, 0, 45, 0
1, 21665, Note_on_c, 0, 67, 0
1, 21668, Note_on_c, 0, 63, 0
1, 21691, Note_on_c, 0, 75, 0
1, 21707, Note_on_c, 0, 75, 67
1, 21709, Note_on_c, 0, 44, 81
1, 21716, Control_c, 0, 64, 0
1, 21737, Control_c, 0, 64, 127
1, 21741, Note_on_c, 0, 44, 0
1, 21788, Note_on_c, 0, 54, 67
1, 22162, Note_on_c, 0, 75, 0
1, 22227, Note_on_c, 0, 54, 0
1, 22245, Note_on_c, 0, 72, 29
1, 22263, Note_on_c, 0, 72, 0
1, 22314, Note_on_c, 0, 75, 51
1, 22315, Note_on_c, 0, 63, 34
1, 22317, Note_on_c, 0, 43, 32
1, 22319, Note_on_c, 0, 67, 27
1, 22325, Control_c, 0, 64, 0
1, 22350, Control_c, 0, 64, 127
1, 22359, Note_on_c, 0, 43, 0
1, 22368, Note_on_c, 0, 55, 38
1, 22388, Note_on_c, 0, 67, 0
1, 22401, Note_on_c, 0, 63, 0
1, 22409, Note_on_c, 0, 75, 0
1, 22422, Note_on_c, 0, 75, 48
1, 22425, Note_on_c, 0, 63, 43
1, 22428, Note_on_c, 0, 67, 37
1, 22429, Note_on_c, 0, 55, 0
1, 22430, Note_on_c, 0, 58, 33
1, 22460, Note_on_c, 0, 63, 0
1, 22461, Note_on_c, 0, 67, 0
1, 22478, Note_on_c, 0, 75, 0
1, 22485, Note_on_c, 0, 74, 62
1, 22510, Note_on_c, 0, 74, 0
1, 22555, Note_on_c, 0, 75, 51
1, 22556, Note_on_c, 0, 58, 0
1, 22556, Note_on_c, 0, 66, 37
1, 22562, Note_on_c, 0, 54, 38
1, 22567, Control_c, 0, 64, 0
1, 22597, Control_c, 0, 64, 127
1, 22621, Note_on_c, 0, 60, 33
1, 22656, Note_on_c, 0, 66, 0
1, 22691, Note_on_c, 0, 66, 23
1, 22692, Note_on_c, 0, 69, 46
1, 22701, Note_on_c, 0, 63, 13
1, 22711, Note_on_c, 0, 69, 0
1, 22720, Note_on_c, 0, 75, 0
1, 22758, Note_on_c, 0, 66, 0
1, 22776, Note_on_c, 0, 77, 46
1, 22799, Note_on_c, 0, 63, 0
1, 22800, Note_on_c, 0, 60, 0
1, 22846, Note_on_c, 0, 54, 0
1, 22877, Note_on_c, 0, 77, 0
1, 22989, Note_on_c, 0, 79, 45
1, 22992, Note_on_c, 0, 41, 33
1, 22992, Note_on_c, 0, 68, 23
1, 22994, Note_on_c, 0, 75, 33
1, 22995, Control_c, 0, 64, 0
1, 22999, Note_on_c, 0, 72, 20
1, 23019, Control_c, 0, 64, 127
1, 23047, Note_on_c, 0, 48, 33
1, 23066, Note_on_c, 0, 41, 0
1, 23076, Note_on_c, 0, 48, 0
1, 23088, Note_on_c, 0, 55, 46
1, 23114, Note_on_c, 0, 79, 0
1, 23115, Note_on_c, 0, 72, 0
1, 23122, Note_on_c, 0, 75, 0
1, 23124, Note_on_c, 0, 56, 25
1, 23126, Note_on_c, 0, 68, 0
1, 23136, Note_on_c, 0, 55, 0
1, 23169, Note_on_c, 0, 60, 35
1, 23194, Note_on_c, 0, 60, 0
1, 23203, Note_on_c, 0, 63, 46
1, 23226, Note_on_c, 0, 63, 0
1, 23241, Note_on_c, 0, 65, 54
1, 23270, Note_on_c, 0, 65, 0
1, 23275, Note_on_c, 0, 67, 60
1, 23305, Note_on_c, 0, 67, 0
1, 23314, Note_on_c, 0, 68, 77
1, 23349, Note_on_c, 0, 68, 0
1, 23358, Note_on_c, 0, 70, 70
1, 23391, Note_on_c, 0, 70, 0
1, 23401, Note_on_c, 0, 71, 51
1, 23405, Note_on_c, 0, 56, 0
1, 23451, Note_on_c, 0, 71, 0
1, 23453, Note_on_c, 0, 72, 55
1, 23501, Note_on_c, 0, 72, 0
1, 23517, Note_on_c, 0, 46, 32
1, 23519, Note_on_c, 0, 73, 42
1, 23520, Note_on_c, 0, 56, 25
1, 23525, Control_c, 0, 64, 0
1, 23553, Control_c, 0, 64, 127
1, 23566, Note_on_c, 0, 46, 0
1, 23574, Note_on_c, 0, 73, 0
1, 23577, Note_on_c, 0, 56, 0
1, 23579, Note_on_c, 0, 74, 46
1, 23620, Note_on_c, 0, 74, 0
1, 23647, Note_on_c, 0, 62, 33
1, 23650, Note_on_c, 0, 74, 39
1, 23651, Note_on_c, 0, 56, 31
1, 23702, Note_on_c, 0, 74, 0
1, 23730, Note_on_c, 0, 74, 32
1, 23769, Note_on_c, 0, 74, 0
1, 23812, Note_on_c, 0, 74, 38
1, 23821, Note_on_c, 0, 66, 28
1, 23845, Note_on_c, 0, 74, 0
1, 23897, Note_on_c, 0, 66, 0
1, 23900, Note_on_c, 0, 74, 30
1, 23948, Note_on_c, 0, 74, 0
1, 23964, Note_on_c, 0, 56, 0
1, 23980, Note_on_c, 0, 74, 45
1, 23998, Note_on_c, 0, 62, 0
1, 24025, Note_on_c, 0, 74, 0
1, 24052, Note_on_c, 0, 74, 38
1, 24100, Note_on_c, 0, 74, 0
1, 24129, Note_on_c, 0, 75, 48
1, 24133, Note_on_c, 0, 66, 26
1, 24135, Note_on_c, 0, 71, 44
1, 24135, Note_on_c, 0, 61, 39
1, 24140, Control_c, 0, 64, 0
1, 24165, Control_c, 0, 64, 127
1, 24186, Note_on_c, 0, 75, 0
1, 24215, Note_on_c, 0, 75, 55
1, 24248, Note_on_c, 0, 75, 0
1, 24285, Note_on_c, 0, 75, 64
1, 24311, Note_on_c, 0, 75, 0
1, 24331, Note_on_c, 0, 61, 0
1, 24355, Note_on_c, 0, 75, 70
1, 24358, Note_on_c, 0, 61, 39
1, 24361, Note_on_c, 0, 71, 0
1, 24397, Note_on_c, 0, 75, 0
1, 24400, Note_on_c, 0, 61, 0
1, 24407, Note_on_c, 0, 66, 0
1, 24431, Note_on_c, 0, 75, 60
1, 24436, Note_on_c, 0, 71, 58
1, 24438, Note_on_c, 0, 70, 53
1, 24440, Note_on_c, 0, 61, 33
1, 24441, Note_on_c, 0, 66, 51
1, 24448, Control_c, 0, 64, 0
1, 24465, Control_c, 0, 64, 127
1, 24490, Note_on_c, 0, 75, 0
1, 24526, Note_on_c, 0, 75, 61
1, 24571, Note_on_c, 0, 75, 0
1, 24636, Note_on_c, 0, 75, 50
1, 24683, Note_on_c, 0, 75, 0
1, 24783, Note_on_c, 0, 61, 0
1, 24836, Note_on_c, 0, 75, 38
1, 24879, Note_on_c, 0, 75, 0
1, 24881, Note_on_c, 0, 71, 0
1, 24886, Note_on_c, 0, 70, 0
1, 24888, Note_on_c, 0, 66, 0
1, 25035, Note_on_c, 0, 70, 36
1, 25038, Note_on_c, 0, 63, 39
1, 25039, Note_on_c, 0, 59, 30
1, 25041, Note_on_c, 0, 56, 28
1, 25041, Note_on_c, 0, 46, 28
1, 25043, Note_on_c, 0, 65, 29
1, 25051, Control_c, 0, 64, 0
1, 25087, Control_c, 0, 64, 127
1, 25135, Note_on_c, 0, 70, 0
1, 25146, Note_on_c, 0, 70, 27
1, 25197, Note_on_c, 0, 70, 0
1, 25226, Note_on_c, 0, 70, 42
1, 25276, Note_on_c, 0, 70, 0
1, 25311, Note_on_c, 0, 70, 37
1, 25318, Note_on_c, 0, 56, 0
1, 25329, Note_on_c, 0, 46, 0
1, 25333, Note_on_c, 0, 59, 0
1, 25345, Note_on_c, 0, 65, 0
1, 25351, Note_on_c, 0, 70, 0
1, 25355, Note_on_c, 0, 63, 0
1, 25430, Note_on_c, 0, 70, 34
1, 25432, Note_on_c, 0, 63, 34
1, 25432, Note_on_c, 0, 60, 33
1, 25435, Note_on_c, 0, 46, 25
1, 25436, Note_on_c, 0, 65, 28
1, 25438, Note_on_c, 0, 56, 20
1, 25442, Control_c, 0, 64, 0
1, 25475, Control_c, 0, 64, 127
1, 25531, Note_on_c, 0, 60, 0
1, 25534, Note_on_c, 0, 65, 0
1, 25535, Note_on_c, 0, 63, 0
1, 25542, Note_on_c, 0, 70, 0
1, 25881, Note_on_c, 0, 74, 25
1, 25918, Note_on_c, 0, 74, 0
1, 25924, Note_on_c, 0, 77, 59
1, 25925, Control_c, 0, 64, 0
1, 25926, Note_on_c, 0, 39, 31
1, 25928, Note_on_c, 0, 46, 31
1, 25946, Control_c, 0, 64, 127
1, 25974, Note_on_c, 0, 77, 0
1, 25980, Note_on_c, 0, 39, 0
1, 25983, Note_on_c, 0, 46, 0
1, 26006, Note_on_c, 0, 77, 49
1, 26023, Note_on_c, 0, 56, 0
1, 26039, Note_on_c, 0, 46, 0
1, 26075, Note_on_c, 0, 77, 0
1, 26099, Note_on_c, 0, 77, 58
1, 26119, Note_on_c, 0, 77, 0
1, 26120, Tempo, 666667
1, 26128, Note_on_c, 0, 75, 34
1, 26151, Note_on_c, 0, 75, 0
1, 26162, Note_on_c, 0, 77, 49
1, 26163, Note_on_c, 0, 62, 27
1, 26164, Note_on_c, 0, 65, 27
1, 26166, Control_c, 0, 64, 0
1, 26166, Note_on_c, 0, 60, 32
1, 26182, Control_c, 0, 64, 127
1, 26213, Note_on_c, 0, 77, 0
1, 26232, Note_on_c, 0, 79, 47
1, 26287, Note_on_c, 0, 65, 0
1, 26296, Note_on_c, 0, 62, 0
1, 26298, Note_on_c, 0, 60, 0
1, 26385, Note_on_c, 0, 46, 44
1, 26385, Note_on_c, 0, 39, 50
1, 26388, Control_c, 0, 64, 0
1, 26412, Control_c, 0, 64, 127
1, 26451, Note_on_c, 0, 39, 0
1, 26457, Note_on_c, 0, 46, 0
1, 26524, Note_on_c, 0, 65, 41
1, 26526, Note_on_c, 0, 60, 40
1, 26529, Note_on_c, 0, 58, 28
1, 26529, Note_on_c, 0, 55, 24
1, 26651, Note_on_c, 0, 65, 0
1, 26655, Note_on_c, 0, 60, 0
1, 26657, Note_on_c, 0, 55, 0
1, 26665, Note_on_c, 0, 58, 0
1, 26779, Note_on_c, 0, 79, 0
1, 26782, Note_on_c, 0, 46, 40
1, 26783, Note_on_c, 0, 39, 42
1, 26850, Note_on_c, 0, 70, 64
1, 26872, Note_on_c, 0, 70, 0
1, 26897, Note_on_c, 0, 39, 0
1, 26898, Note_on_c, 0, 46, 0
1, 26901, Note_on_c, 0, 77, 73
1, 26906, Note_on_c, 0, 75, 55
1, 26939, Note_on_c, 0, 75, 0
1, 26952, Note_on_c, 0, 77, 0
1, 26964, Note_on_c, 0, 77, 64
1, 26965, Note_on_c, 0, 68, 47
1, 26967, Note_on_c, 0, 75, 49
1, 26989, Note_on_c, 0, 68, 0
1, 26998, Note_on_c, 0, 77, 0
1, 27006, Note_on_c, 0, 75, 0
1, 27022, Note_on_c, 0, 77, 66
1, 27023, Note_on_c, 0, 75, 42
1, 27024, Note_on_c, 0, 72, 66
1, 27025, Note_on_c, 0, 60, 40
1, 27025, Note_on_c, 0, 63, 53
1, 27026, Note_on_c, 0, 68, 51
1, 27051, Note_on_c, 0, 75, 0
1, 27080, Note_on_c, 0, 77, 0
1, 27080, Note_on_c, 0, 75, 59
1, 27092, Note_on_c, 0, 72, 0
1, 27106, Note_on_c, 0, 68, 0
1, 27123, Note_on_c, 0, 75, 0
1, 27132, Note_on_c, 0, 75, 23
1, 27132, Note_on_c, 0, 68, 40
1, 27133, Note_on_c, 0, 63, 0
1, 27133, Note_on_c, 0, 60, 0
1, 27134, Note_on_c, 0, 77, 38
1, 27137, Note_on_c, 0, 72, 39
1, 27246, Note_on_c, 0, 34, 49
1, 27255, Note_on_c, 0, 34, 0
1, 27318, Note_on_c, 0, 72, 0
1, 27356, Note_on_c, 0, 68, 0
1, 27483, Note_on_c, 0, 70, 44
1, 27483, Note_on_c, 0, 62, 29
1, 27484, Note_on_c, 0, 67, 33
1, 27486, Note_on_c, 0, 65, 35
1, 27488, Note_on_c, 0, 60, 39
1, 27489, Control_c, 0, 64, 0
1, 27513, Control_c, 0, 64, 127
1, 27588, Note_on_c, 0, 65, 0
1, 27593, Note_on_c, 0, 67, 0
1, 27596, Note_on_c, 0, 60, 0
1, 27597, Note_on_c, 0, 62, 0
1, 27622, Note_on_c, 0, 70, 0
1, 27677, Note_on_c, 0, 77, 0
1, 27715, Note_on_c, 0, 75, 0
1, 27903, Control_c, 0, 64, 0
1, 27906, Note_on_c, 0, 39, 33
1, 27907, Note_on_c, 0, 59, 36
1, 27907, Note_on_c, 0, 63, 37
1, 27908, Note_on_c, 0, 67, 24
1, 27908, Note_on_c, 0, 47, 34
1, 27909, Note_on_c, 0, 55, 30
1, 27927, Control_c, 0, 64, 127
1, 27930, Note_on_c, 0, 59, 0
1, 27931, Note_on_c, 0, 55, 0
1, 27944, Note_on_c, 0, 67, 0
1, 27947, Note_on_c, 0, 63, 0
1, 27972, Note_on_c, 0, 67, 64
1, 27973, Note_on_c, 0, 47, 0
1, 27976, Note_on_c, 0, 58, 32
1, 27977, Note_on_c, 0, 63, 43
1, 27978, Control_c, 0, 64, 0
1, 27979, Note_on_c, 0, 48, 42
1, 27979, Note_on_c, 0, 60, 43
1, 28007, Control_c, 0, 64, 127
1, 28023, Note_on_c, 0, 63, 0
1, 28025, Note_on_c, 0, 60, 0
1, 28036, Note_on_c, 0, 67, 0
1, 28046, Note_on_c, 0, 39, 0
1, 28047, Note_on_c, 0, 48, 0
1, 28051, Note_on_c, 0, 58, 0
1, 28090, Note_on_c, 0, 67, 42
1, 28095, Note_on_c, 0, 41, 29
1, 28095, Note_on_c, 0, 49, 21
1, 28097, Control_c, 0, 64, 0
1, 28097, Note_on_c, 0, 61, 28
1, 28107, Note_on_c, 0, 57, 7
1, 28131, Control_c, 0, 64, 127
1, 28145, Note_on_c, 0, 57, 0
1, 28167, Note_on_c, 0, 49, 0
1, 28171, Note_on_c, 0, 61, 0
1, 28206, Note_on_c, 0, 58, 33
1, 28206, Control_c, 0, 64, 0
1, 28209, Note_on_c, 0, 50, 22
1, 28209, Note_on_c, 0, 62, 33
1, 28226, Control_c, 0, 64, 127
1, 28229, Note_on_c, 0, 67, 0
1, 28238, Note_on_c, 0, 41, 0
1, 28242, Note_on_c, 0, 58, 0
1, 28245, Note_on_c, 0, 50, 0
1, 28252, Note_on_c, 0, 62, 0
1, 28279, Note_on_c, 0, 44, 37
1, 28306, Note_on_c, 0, 44, 0
1, 28319, Note_on_c, 0, 70, 55
1, 28322, Note_on_c, 0, 43, 40
1, 28322, Note_on_c, 0, 63, 54
1, 28324, Control_c, 0, 64, 0
1, 28324, Note_on_c, 0, 58, 30
1, 28324, Note_on_c, 0, 53, 32
1, 28357, Control_c, 0, 64, 127
1, 28397, Note_on_c, 0, 53, 0
1, 28401, Note_on_c, 0, 58, 0
1, 28423, Note_on_c, 0, 63, 0
1, 28430, Note_on_c, 0, 70, 0
1, 28436, Note_on_c, 0, 70, 35
1, 28441, Note_on_c, 0, 64, 50
1, 28444, Control_c, 0, 64, 0
1, 28444, Note_on_c, 0, 52, 24
1, 28445, Note_on_c, 0, 60, 24
1, 28458, Control_c, 0, 64, 127
1, 28483, Note_on_c, 0, 43, 0
1, 28495, Note_on_c, 0, 52, 0
1, 28500, Note_on_c, 0, 64, 0
1, 28506, Note_on_c, 0, 60, 0
1, 28521, Note_on_c, 0, 70, 0
1, 28554, Note_on_c, 0, 70, 49
1, 28556, Note_on_c, 0, 44, 33
1, 28557, Control_c, 0, 64, 0
1, 28557, Note_on_c, 0, 60, 45
1, 28559, Note_on_c, 0, 63, 45
1, 28559, Note_on_c, 0, 55, 27
1, 28560, Note_on_c, 0, 67, 32
1, 28578, Control_c, 0, 64, 127
1, 28608, Note_on_c, 0, 55, 0
1, 28619, Note_on_c, 0, 67, 0
1, 28620, Note_on_c, 0, 60, 0
1, 28624, Note_on_c, 0, 63, 0
1, 28631, Note_on_c, 0, 70, 0
1, 28654, Note_on_c, 0, 44, 0
1, 28673, Note_on_c, 0, 72, 55
1, 28674, Note_on_c, 0, 44, 30
1, 28676, Note_on_c, 0, 65, 38
1, 28677, Note_on_c, 0, 60, 38
1, 28678, Note_on_c, 0, 54, 23
1, 28682, Control_c, 0, 64, 0
1, 28701, Control_c, 0, 64, 127
1, 28704, Note_on_c, 0, 44, 0
1, 28731, Note_on_c, 0, 60, 0
1, 28731, Note_on_c, 0, 72, 0
1, 28743, Note_on_c, 0, 65, 0
1, 28750, Note_on_c, 0, 54, 0
1, 28788, Note_on_c, 0, 73, 51
1, 28789, Control_c, 0, 64, 0
1, 28790, Note_on_c, 0, 61, 36
1, 28793, Note_on_c, 0, 46, 31
1, 28794, Note_on_c, 0, 56, 26
1, 28794, Note_on_c, 0, 65, 41
1, 28803, Control_c, 0, 64, 127
1, 28813, Note_on_c, 0, 46, 0
1, 28814, Note_on_c, 0, 65, 0
1, 28815, Note_on_c, 0, 61, 0
1, 28821, Note_on_c, 0, 56, 0
1, 28835, Note_on_c, 0, 73, 0
1, 28878, Note_on_c, 0, 84, 88
1, 28904, Control_c, 0, 64, 0
1, 28907, Note_on_c, 0, 84, 0
1, 28910, Note_on_c, 0, 61, 38
1, 28913, Note_on_c, 0, 65, 32
1, 28916, Note_on_c, 0, 81, 51
1, 28916, Note_on_c, 0, 60, 30
1, 28941, Note_on_c, 0, 81, 0
1, 28950, Note_on_c, 0, 82, 38
1, 28959, Note_on_c, 0, 60, 0
1, 28963, Note_on_c, 0, 82, 0
1, 28976, Note_on_c, 0, 84, 76
1, 28989, Note_on_c, 0, 65, 0
1, 29002, Note_on_c, 0, 84, 0
1, 29007, Note_on_c, 0, 85, 64
1, 29019, Note_on_c, 0, 65, 24
1, 29021, Note_on_c, 0, 85, 0
1, 29022, Note_on_c, 0, 57, 28
1, 29037, Note_on_c, 0, 89, 56
1, 29053, Note_on_c, 0, 89, 0
1, 29070, Note_on_c, 0, 93, 49
1, 29083, Note_on_c, 0, 93, 0
1, 29095, Note_on_c, 0, 96, 92
1, 29114, Note_on_c, 0, 65, 0
1, 29115, Note_on_c, 0, 96, 0
1, 29128, Note_on_c, 0, 94, 71
1, 29138, Note_on_c, 0, 57, 0
1, 29148, Note_on_c, 0, 94, 0
1, 29152, Note_on_c, 0, 56, 29
1, 29154, Note_on_c, 0, 90, 58
1, 29157, Note_on_c, 0, 65, 16
1, 29180, Note_on_c, 0, 90, 0
1, 29188, Note_on_c, 0, 89, 51
1, 29205, Note_on_c, 0, 89, 0
1, 29220, Note_on_c, 0, 87, 43
1, 29244, Note_on_c, 0, 65, 0
1, 29248, Note_on_c, 0, 87, 0
1, 29253, Note_on_c, 0, 85, 56
1, 29260, Note_on_c, 0, 56, 0
1, 29273, Note_on_c, 0, 85, 0
1, 29276, Note_on_c, 0, 65, 20
1, 29279, Note_on_c, 0, 55, 36
1, 29283, Note_on_c, 0, 84, 40
1, 29301, Note_on_c, 0, 55, 0
1, 29304, Note_on_c, 0, 84, 0
1, 29304, Note_on_c, 0, 65, 0
1, 29315, Note_on_c, 0, 82, 47
1, 29322, Note_on_c, 0, 61, 0
1, 29335, Note_on_c, 0, 82, 0
1, 29343, Note_on_c, 0, 80, 33
1, 29359, Note_on_c, 0, 80, 0
1, 29378, Note_on_c, 0, 79, 49
1, 29397, Note_on_c, 0, 79, 0
1, 29402, Note_on_c, 0, 61, 29
1, 29403, Note_on_c, 0, 66, 29
1, 29408, Note_on_c, 0, 77, 34
1, 29418, Note_on_c, 0, 66, 0
1, 29422, Note_on_c, 0, 61, 0
1, 29430, Note_on_c, 0, 77, 0
1, 29442, Note_on_c, 0, 75, 45
1, 29451, Note_on_c, 0, 75, 0
1, 29529, Note_on_c, 0, 55, 19
1, 29537, Note_on_c, 0, 55, 0
1, 29570, Note_on_c, 0, 63, 35
1, 29570, Note_on_c, 0, 55, 54
1, 29571, Note_on_c, 0, 45, 34
1, 29571, Note_on_c, 0, 59, 41
1, 29571, Note_on_c, 0, 61, 39
1, 29617, Control_c, 0, 64, 127
1, 29634, Note_on_c, 0, 55, 0
1, 29635, Note_on_c, 0, 59, 0
1, 29646, Note_on_c, 0, 61, 0
1, 29648, Note_on_c, 0, 59, 55
1, 29649, Note_on_c, 0, 55, 32
1, 29651, Note_on_c, 0, 52, 36
1, 29692, Note_on_c, 0, 52, 0
1, 29701, Note_on_c, 0, 45, 0
1, 29710, Note_on_c, 0, 59, 0
1, 29712, Note_on_c, 0, 55, 0
1, 29739, Note_on_c, 0, 63, 0
1, 29766, Control_c, 0, 64, 0
1, 29766, Note_on_c, 0, 51, 37
1, 29769, Note_on_c, 0, 44, 28
1, 29770, Note_on_c, 0, 58, 31
1, 29771, Note_on_c, 0, 55, 28
1, 29771, Note_on_c, 0, 60, 33
1, 29780, Note_on_c, 0, 55, 0
1, 29786, Note_on_c, 0, 60, 0
1, 29791, Note_on_c, 0, 58, 0
1, 29793, Control_c, 0, 64, 127
1, 29838, Note_on_c, 0, 44, 0
1, 29844, Note_on_c, 0, 72, 83
1, 29846, Note_on_c, 0, 60, 82
1, 29851, Note_on_c, 0, 62, 32
1, 29856, Note_on_c, 0, 62, 0
1, 29869, Note_on_c, 0, 72, 0
1, 29870, Note_on_c, 0, 60, 0
1, 29882, Note_on_c, 0, 44, 46
1, 29883, Control_c, 0, 64, 0
1, 29884, Note_on_c, 0, 72, 56
1, 29885, Note_on_c, 0, 52, 53
1, 29886, Note_on_c, 0, 60, 68
1, 29892, Note_on_c, 0, 51, 0
1, 29901, Note_on_c, 0, 72, 0
1, 29904, Note_on_c, 0, 60, 0
1, 29919, Control_c, 0, 64, 127
1, 29922, Note_on_c, 0, 59, 47
1, 29923, Note_on_c, 0, 71, 38
1, 29938, Note_on_c, 0, 71, 0
1, 29939, Note_on_c, 0, 59, 0
1, 29959, Note_on_c, 0, 72, 74
1, 29959, Note_on_c, 0, 60, 74
1, 29982, Note_on_c, 0, 52, 0
1, 29987, Note_on_c, 0, 44, 0
1, 30002, Note_on_c, 0, 44, 35
1, 30003, Note_on_c, 0, 53, 49
1, 30005, Control_c, 0, 64, 0
1, 30034, Control_c, 0, 64, 127
1, 30072, Note_on_c, 0, 60, 0
1, 30075, Note_on_c, 0, 72, 0
1, 30101, Note_on_c, 0, 53, 0
1, 30107, Note_on_c, 0, 44, 0
1, 30120, Note_on_c, 0, 75, 56
1, 30122, Note_on_c, 0, 44, 38
1, 30125, Note_on_c, 0, 63, 48
1, 30131, Control_c, 0, 64, 0
1, 30142, Control_c, 0, 64, 127
1, 30166, Note_on_c, 0, 75, 0
1, 30173, Note_on_c, 0, 44, 0
1, 30177, Note_on_c, 0, 63, 0
1, 30204, Note_on_c, 0, 44, 34
1, 30231, Note_on_c, 0, 44, 0
1, 30243, Note_on_c, 0, 63, 37
1, 30244, Control_c, 0, 64, 0
1, 30246, Note_on_c, 0, 59, 38
1, 30246, Note_on_c, 0, 53, 35
1, 30250, Note_on_c, 0, 43, 33
1, 30264, Control_c, 0, 64, 127
1, 30276, Note_on_c, 0, 43, 0
1, 30277, Note_on_c, 0, 59, 0
1, 30285, Note_on_c, 0, 63, 0
1, 30289, Note_on_c, 0, 53, 0
1, 30363, Note_on_c, 0, 63, 39
1, 30369, Note_on_c, 0, 59, 33
1, 30369, Note_on_c, 0, 53, 22
1, 30372, Note_on_c, 0, 56, 25
1, 30399, Note_on_c, 0, 53, 0
1, 30405, Note_on_c, 0, 59, 0
1, 30411, Note_on_c, 0, 56, 0
1, 30412, Note_on_c, 0, 63, 0
1, 30438, Note_on_c, 0, 71, 66
1, 30453, Note_on_c, 0, 71, 0
1, 30484, Note_on_c, 0, 82, 83
1, 30485, Note_on_c, 0, 70, 81
1, 30487, Note_on_c, 0, 75, 77
1, 30488, Note_on_c, 0, 79, 62
1, 30488, Note_on_c, 0, 71, 77
1, 30502, Control_c, 0, 64, 0
1, 30512, Control_c, 0, 64, 127
1, 30517, Note_on_c, 0, 70, 0
1, 30521, Note_on_c, 0, 69, 56
1, 30524, Note_on_c, 0, 79, 0
1, 30533, Note_on_c, 0, 82, 0
1, 30539, Note_on_c, 0, 69, 0
1, 30541, Note_on_c, 0, 68, 50
1, 30543, Note_on_c, 0, 71, 0
1, 30546, Note_on_c, 0, 75, 0
1, 30561, Note_on_c, 0, 75, 58
1, 30563, Note_on_c, 0, 71, 58
1, 30563, Control_c, 0, 64, 0
1, 30564, Note_on_c, 0, 68, 0
1, 30564, Note_on_c, 0, 79, 62
1, 30567, Note_on_c, 0, 67, 51
1, 30584, Note_on_c, 0, 79, 0
1, 30586, Note_on_c, 0, 75, 0
1, 30591, Note_on_c, 0, 67, 0
1, 30592, Note_on_c, 0, 71, 0
1, 30603, Control_c, 0, 64, 127
1, 30650, Note_on_c, 0, 74, 51
1, 30650, Note_on_c, 0, 67, 46
1, 30669, Note_on_c, 0, 67, 0
1, 30671, Note_on_c, 0, 74, 0
1, 30681, Note_on_c, 0, 77, 64
1, 30699, Note_on_c, 0, 77, 0
1, 30717, Control_c, 0, 64, 0
1, 30717, Note_on_c, 0, 48, 38
1, 30717, Note_on_c, 0, 75, 57
1, 30718, Note_on_c, 0, 58, 20
1, 30736, Control_c, 0, 64, 127
1, 30750, Note_on_c, 0, 58, 0
1, 30753, Note_on_c, 0, 48, 0
1, 30757, Note_on_c, 0, 55, 47
1, 30764, Note_on_c, 0, 55, 0
1, 30792, Note_on_c, 0, 62, 44
1, 30792, Note_on_c, 0, 63, 37
1, 30793, Note_on_c, 0, 67, 46
1, 30868, Note_on_c, 0, 62, 0
1, 30906, Note_on_c, 0, 67, 0
1, 30923, Note_on_c, 0, 63, 0
1, 30959, Note_on_c, 0, 63, 33
1, 30959, Note_on_c, 0, 59, 36
1, 30960, Note_on_c, 0, 67, 35
1, 30969, Control_c, 0, 64, 0
1, 30978, Control_c, 0, 64, 127
1, 31000, Note_on_c, 0, 75, 0
1, 31017, Note_on_c, 0, 74, 73
1, 31039, Note_on_c, 0, 59, 0
1, 31047, Note_on_c, 0, 74, 0
1, 31060, Note_on_c, 0, 63, 0
1, 31060, Note_on_c, 0, 67, 0
1, 31081, Note_on_c, 0, 74, 52
1, 31083, Note_on_c, 0, 63, 49
1, 31084, Note_on_c, 0, 67, 40
1, 31085, Note_on_c, 0, 58, 26
1, 31087, Control_c, 0, 64, 0
1, 31102, Control_c, 0, 64, 127
1, 31136, Note_on_c, 0, 74, 0
1, 31143, Note_on_c, 0, 58, 0
1, 31145, Note_on_c, 0, 73, 46
1, 31162, Note_on_c, 0, 67, 0
1, 31169, Note_on_c, 0, 73, 0
1, 31172, Note_on_c, 0, 63, 0
1, 31201, Control_c, 0, 64, 0
1, 31201, Note_on_c, 0, 74, 45
1, 31203, Note_on_c, 0, 63, 26
1, 31203, Note_on_c, 0, 57, 38
1, 31203, Note_on_c, 0, 67, 36
1, 31225, Control_c, 0, 64, 127
1, 31267, Note_on_c, 0, 48, 36
1, 31276, Note_on_c, 0, 67, 0
1, 31289, Note_on_c, 0, 63, 0
1, 31291, Note_on_c, 0, 57, 0
1, 31292, Note_on_c, 0, 48, 0
1, 31328, Note_on_c, 0, 47, 60
1, 31335, Control_c, 0, 64, 0
1, 31350, Control_c, 0, 64, 127
1, 31368, Note_on_c, 0, 74, 0
1, 31387, Note_on_c, 0, 57, 27
1, 31410, Note_on_c, 0, 57, 0
1, 31411, Note_on_c, 0, 47, 0
1, 31443, Note_on_c, 0, 61, 36
1, 31445, Note_on_c, 0, 56, 28
1, 31446, Note_on_c, 0, 65, 48
1, 31448, Note_on_c, 0, 46, 28
1, 31449, Control_c, 0, 64, 0
1, 31470, Control_c, 0, 64, 127
1, 31504, Note_on_c, 0, 72, 55
1, 31514, Note_on_c, 0, 56, 0
1, 31525, Note_on_c, 0, 65, 0
1, 31527, Note_on_c, 0, 72, 0
1, 31529, Note_on_c, 0, 46, 0
1, 31542, Note_on_c, 0, 61, 0
1, 31562, Note_on_c, 0, 70, 45
1, 31563, Note_on_c, 0, 61, 33
1, 31566, Note_on_c, 0, 45, 29
1, 31567, Note_on_c, 0, 67, 34
1, 31568, Note_on_c, 0, 55, 32
1, 31569, Control_c, 0, 64, 0
1, 31571, Note_on_c, 0, 64, 29
1, 31590, Control_c, 0, 64, 127
1, 31611, Note_on_c, 0, 64, 0
1, 31612, Note_on_c, 0, 67, 0
1, 31620, Note_on_c, 0, 61, 0
1, 31621, Note_on_c, 0, 70, 0
1, 31621, Note_on_c, 0, 55, 0
1, 31631, Note_on_c, 0, 52, 29
1, 31640, Note_on_c, 0, 45, 0
1, 31641, Note_on_c, 0, 52, 0
1, 31686, Note_on_c, 0, 51, 39
1, 31686, Note_on_c, 0, 55, 38
1, 31689, Note_on_c, 0, 60, 47
1, 31689, Note_on_c, 0, 63, 27
1, 31690, Control_c, 0, 64, 0
1, 31694, Note_on_c, 0, 44, 20
1, 31715, Control_c, 0, 64, 127
1, 31775, Note_on_c, 0, 51, 0
1, 31780, Note_on_c, 0, 55, 0
1, 31798, Note_on_c, 0, 60, 0
1, 31806, Note_on_c, 0, 52, 38
1, 31818, Control_c, 0, 64, 0
1, 31839, Control_c, 0, 64, 127
1, 31871, Note_on_c, 0, 63, 0
1, 31872, Note_on_c, 0, 52, 0
1, 31924, Note_on_c, 0, 53, 41
1, 31964, Note_on_c, 0, 44, 0
1, 32037, Note_on_c, 0, 72, 72
1, 32041, Note_on_c, 0, 66, 71
1, 32041, Note_on_c, 0, 63, 77
1, 32042, Note_on_c, 0, 53, 0
1, 32042, Note_on_c, 0, 69, 58
1, 32042, Note_on_c, 0, 54, 64
1, 32046, Control_c, 0, 64, 0
1, 32067, Control_c, 0, 64, 127
1, 32074, Note_on_c, 0, 69, 0
1, 32076, Note_on_c, 0, 72, 0
1, 32088, Note_on_c, 0, 63, 0
1, 32088, Note_on_c, 0, 66, 0
1, 32162, Note_on_c, 0, 70, 53
1, 32168, Note_on_c, 0, 58, 29
1, 32168, Note_on_c, 0, 62, 44
1, 32171, Note_on_c, 0, 55, 34
1, 32172, Note_on_c, 0, 54, 0
1, 32172, Control_c, 0, 64, 0
1, 32202, Control_c, 0, 64, 127
1, 32230, Note_on_c, 0, 43, 38
1, 32241, Note_on_c, 0, 55, 0
1, 32247, Note_on_c, 0, 62, 0
1, 32254, Note_on_c, 0, 58, 0
1, 32259, Note_on_c, 0, 43, 0
1, 32286, Note_on_c, 0, 70, 0
1, 32293, Note_on_c, 0, 58, 26
1, 32295, Note_on_c, 0, 62, 37
1, 32312, Note_on_c, 0, 58, 0
1, 32319, Note_on_c, 0, 62, 0
1, 32347, Note_on_c, 0, 65, 52
1, 32359, Note_on_c, 0, 65, 0
1, 32395, Control_c, 0, 64, 0
1, 32401, Note_on_c, 0, 36, 52
1, 32407, Note_on_c, 0, 64, 45
1, 32408, Note_on_c, 0, 61, 26
1, 32413, Note_on_c, 0, 61, 0
1, 32414, Note_on_c, 0, 36, 0
1, 32415, Note_on_c, 0, 64, 0
1, 32416, Control_c, 0, 64, 127
1, 32416, Note_on_c, 0, 52, 8
1, 32424, Note_on_c, 0, 52, 0
1, 32466, Note_on_c, 0, 75, 70
1, 32466, Note_on_c, 0, 68, 73
1, 32468, Note_on_c, 0, 72, 68
1, 32469, Note_on_c, 0, 64, 62
1, 32470, Note_on_c, 0, 63, 64
1, 32509, Note_on_c, 0, 68, 0
1, 32511, Note_on_c, 0, 64, 0
1, 32511, Note_on_c, 0, 72, 0
1, 32517, Note_on_c, 0, 75, 0
1, 32520, Note_on_c, 0, 63, 0
1, 32529, Note_on_c, 0, 73, 48
1, 32530, Note_on_c, 0, 68, 62
1, 32530, Note_on_c, 0, 61, 38
1, 32531, Note_on_c, 0, 64, 31
1, 32533, Control_c, 0, 64, 0
1, 32547, Control_c, 0, 64, 127
1, 32553, Note_on_c, 0, 64, 0
1, 32556, Note_on_c, 0, 68, 0
1, 32559, Note_on_c, 0, 73, 0
1, 32582, Note_on_c, 0, 61, 0
1, 32588, Note_on_c, 0, 64, 50
1, 32588, Note_on_c, 0, 70, 36
1, 32589, Note_on_c, 0, 60, 38
1, 32594, Note_on_c, 0, 70, 0
1, 32597, Note_on_c, 0, 64, 0
1, 32607, Note_on_c, 0, 60, 0
1, 32644, Note_on_c, 0, 70, 46
1, 32646, Control_c, 0, 64, 0
1, 32647, Note_on_c, 0, 67, 40
1, 32647, Note_on_c, 0, 63, 43
1, 32648, Note_on_c, 0, 60, 36
1, 32650, Note_on_c, 0, 56, 34
1, 32650, Note_on_c, 0, 58, 35
1, 32672, Control_c, 0, 64, 127
1, 32733, Note_on_c, 0, 67, 0
1, 32734, Note_on_c, 0, 60, 0
1, 32735, Note_on_c, 0, 58, 0
1, 32736, Note_on_c, 0, 63, 0
1, 32747, Note_on_c, 0, 56, 0
1, 32747, Note_on_c, 0, 70, 0
1, 32769, Note_on_c, 0, 68, 55
1, 32773, Note_on_c, 0, 63, 43
1, 32773, Note_on_c, 0, 60, 40
1, 32775, Note_on_c, 0, 56, 29
1, 32776, Note_on_c, 0, 58, 19
1, 32807, Note_on_c, 0, 58, 0
1, 32817, Note_on_c, 0, 56, 0
1, 32821, Note_on_c, 0, 68, 0
1, 32823, Note_on_c, 0, 63, 0
1, 32828, Note_on_c, 0, 60, 0
1, 32887, Note_on_c, 0, 56, 36
1, 32887, Note_on_c, 0, 63, 39
1, 32888, Note_on_c, 0, 53, 39
1, 32890, Control_c, 0, 64, 0
1, 32892, Note_on_c, 0, 60, 45
1, 32911, Control_c, 0, 64, 127
1, 32942, Note_on_c, 0, 56, 0
1, 32950, Note_on_c, 0, 60, 0
1, 32966, Note_on_c, 0, 63, 0
1, 33005, Note_on_c, 0, 65, 62
1, 33005, Note_on_c, 0, 56, 52
1, 33006, Note_on_c, 0, 55, 37
1, 33007, Note_on_c, 0, 63, 42
1, 33008, Note_on_c, 0, 53, 0
1, 33009, Note_on_c, 0, 60, 54
1, 33053, Note_on_c, 0, 55, 0
1, 33056, Note_on_c, 0, 60, 0
1, 33065, Note_on_c, 0, 56, 0
1, 33067, Note_on_c, 0, 65, 0
1, 33077, Note_on_c, 0, 63, 0
1, 33126, Note_on_c, 0, 47, 41
1, 33126, Note_on_c, 0, 68, 56
1, 33127, Note_on_c, 0, 64, 54
1, 33128, Note_on_c, 0, 57, 48
1, 33128, Note_on_c, 0, 61, 40
1, 33135, Control_c, 0, 64, 0
1, 33169, Control_c, 0, 64, 127
1, 33212, Note_on_c, 0, 57, 0
1, 33215, Note_on_c, 0, 64, 0
1, 33217, Note_on_c, 0, 61, 0
1, 33225, Note_on_c, 0, 68, 0
1, 33244, Note_on_c, 0, 66, 55
1, 33246, Note_on_c, 0, 57, 42
1, 33246, Note_on_c, 0, 61, 38
1, 33247, Note_on_c, 0, 58, 30
1, 33252, Note_on_c, 0, 64, 27
1, 33264, Note_on_c, 0, 58, 0
1, 33279, Note_on_c, 0, 64, 0
1, 33285, Note_on_c, 0, 47, 0
1, 33302, Note_on_c, 0, 57, 0
1, 33308, Note_on_c, 0, 66, 0
1, 33321, Note_on_c, 0, 61, 0
1, 33361, Note_on_c, 0, 67, 40
1, 33363, Note_on_c, 0, 56, 30
1, 33364, Note_on_c, 0, 46, 37
1, 33365, Note_on_c, 0, 63, 38
1, 33365, Control_c, 0, 64, 0
1, 33366, Note_on_c, 0, 60, 46
1, 33390, Control_c, 0, 64, 127
1, 33406, Note_on_c, 0, 60, 0
1, 33408, Note_on_c, 0, 56, 0
1, 33414, Note_on_c, 0, 67, 0
1, 33417, Note_on_c, 0, 63, 0
1, 33485, Note_on_c, 0, 71, 61
1, 33488, Note_on_c, 0, 67, 42
1, 33489, Note_on_c, 0, 62, 36
1, 33489, Note_on_c, 0, 56, 36
1, 33491, Control_c, 0, 64, 0
1, 33515, Control_c, 0, 64, 127
1, 33544, Note_on_c, 0, 62, 0
1, 33549, Note_on_c, 0, 67, 0
1, 33551, Note_on_c, 0, 71, 0
1, 33580, Note_on_c, 0, 56, 0
1, 33587, Note_on_c, 0, 46, 0
1, 33605, Note_on_c, 0, 77, 49
1, 33608, Note_on_c, 0, 46, 32
1, 33610, Note_on_c, 0, 55, 43
1, 33612, Control_c, 0, 64, 0
1, 33640, Control_c, 0, 64, 127
1, 33658, Note_on_c, 0, 46, 0
1, 33669, Note_on_c, 0, 55, 0
1, 33728, Note_on_c, 0, 62, 36
1, 33734, Note_on_c, 0, 58, 37
1, 33749, Note_on_c, 0, 77, 0
1, 33780, Note_on_c, 0, 74, 64
1, 33792, Note_on_c, 0, 74, 0
1, 33795, Note_on_c, 0, 62, 0
1, 33813, Note_on_c, 0, 77, 84
1, 33833, Note_on_c, 0, 77, 0
1, 33847, Note_on_c, 0, 70, 37
1, 33847, Note_on_c, 0, 62, 34
1, 33866, Note_on_c, 0, 62, 0
1, 33867, Note_on_c, 0, 70, 0
1, 33877, Note_on_c, 0, 58, 0
1, 33878, Note_on_c, 0, 70, 52
1, 33897, Note_on_c, 0, 70, 0
1, 33906, Note_on_c, 0, 74, 69
1, 33923, Note_on_c, 0, 74, 0
1, 33934, Note_on_c, 0, 74, 63
1, 33956, Note_on_c, 0, 74, 0
1, 33963, Note_on_c, 0, 46, 28
1, 33964, Note_on_c, 0, 55, 31
1, 33965, Note_on_c, 0, 67, 41
1, 33971, Control_c, 0, 64, 0
1, 33980, Note_on_c, 0, 67, 0
1, 33990, Note_on_c, 0, 67, 35
1, 33996, Control_c, 0, 64, 127
1, 34011, Note_on_c, 0, 67, 0
1, 34020, Note_on_c, 0, 70, 60
1, 34032, Note_on_c, 0, 55, 0
1, 34033, Note_on_c, 0, 70, 0
1, 34047, Note_on_c, 0, 70, 54
1, 34052, Note_on_c, 0, 46, 0
1, 34071, Note_on_c, 0, 70, 0
1, 34078, Note_on_c, 0, 62, 40
1, 34083, Note_on_c, 0, 46, 25
1, 34083, Note_on_c, 0, 55, 26
1, 34091, Control_c, 0, 64, 0
1, 34095, Note_on_c, 0, 62, 0
1, 34110, Note_on_c, 0, 62, 48
1, 34123, Control_c, 0, 64, 127
1, 34128, Note_on_c, 0, 62, 0
1, 34141, Note_on_c, 0, 65, 46
1, 34155, Note_on_c, 0, 55, 0
1, 34201, Note_on_c, 0, 58, 25
1, 34204, Note_on_c, 0, 55, 19
1, 34240, Note_on_c, 0, 46, 0
1, 34258, Note_on_c, 0, 46, 59
1, 34312, Note_on_c, 0, 46, 0
1, 34324, Note_on_c, 0, 46, 43
1, 34344, Note_on_c, 0, 55, 0
1, 34345, Note_on_c, 0, 58, 0
1, 34387, Note_on_c, 0, 55, 46
1, 34396, Note_on_c, 0, 65, 0
1, 34447, Note_on_c, 0, 58, 64
1, 34469, Note_on_c, 0, 58, 0
1, 34477, Note_on_c, 0, 62, 65
1, 34496, Note_on_c, 0, 46, 0
1, 34497, Note_on_c, 0, 62, 0
1, 34506, Note_on_c, 0, 65, 76
1, 34528, Note_on_c, 0, 65, 0
1, 34536, Note_on_c, 0, 67, 66
1, 34536, Note_on_c, 0, 46, 42
1, 34548, Note_on_c, 0, 55, 0
1, 34552, Note_on_c, 0, 67, 0
1, 34571, Note_on_c, 0, 68, 72
1, 34571, Note_on_c, 0, 66, 71
1, 34572, Control_c, 0, 64, 0
1, 34573, Note_on_c, 0, 63, 67
1, 34573, Note_on_c, 0, 60, 79
1, 34574, Note_on_c, 0, 58, 58
1, 34593, Note_on_c, 0, 66, 0
1, 34610, Control_c, 0, 64, 127
1, 34653, Note_on_c, 0, 46, 0
1, 34676, Note_on_c, 0, 63, 0
1, 34677, Note_on_c, 0, 60, 0
1, 34689, Note_on_c, 0, 46, 35
1, 34690, Note_on_c, 0, 63, 54
1, 34692, Note_on_c, 0, 60, 57
1, 34741, Note_on_c, 0, 60, 0
1, 34749, Note_on_c, 0, 46, 0
1, 34750, Note_on_c, 0, 63, 0
1, 34756, Note_on_c, 0, 68, 0
1, 34756, Note_on_c, 0, 46, 45
1, 34763, Note_on_c, 0, 58, 0
1, 34808, Note_on_c, 0, 79, 83
1, 34812, Note_on_c, 0, 75, 74
1, 34813, Control_c, 0, 64, 0
1, 34813, Note_on_c, 0, 72, 81
1, 34817, Note_on_c, 0, 58, 46
1, 34822, Note_on_c, 0, 68, 37
1, 34837, Control_c, 0, 64, 127
1, 34848, Note_on_c, 0, 46, 0
1, 34875, Note_on_c, 0, 46, 35
1, 34879, Note_on_c, 0, 79, 0
1, 34885, Note_on_c, 0, 72, 0
1, 34889, Note_on_c, 0, 75, 0
1, 34903, Note_on_c, 0, 68, 0
1, 34907, Note_on_c, 0, 58, 0
1, 34929, Note_on_c, 0, 75, 42
1, 34935, Note_on_c, 0, 72, 41
1, 34936, Note_on_c, 0, 65, 35
1, 34936, Note_on_c, 0, 68, 30
1, 34947, Note_on_c, 0, 58, 11
1, 34962, Note_on_c, 0, 46, 0
1, 34980, Note_on_c, 0, 75, 0
1, 34983, Note_on_c, 0, 72, 0
1, 34992, Note_on_c, 0, 46, 36
1, 34994, Note_on_c, 0, 68, 0
1, 34995, Note_on_c, 0, 58, 0
1, 34998, Note_on_c, 0, 65, 0
1, 35049, Note_on_c, 0, 67, 35
1, 35051, Note_on_c, 0, 59, 39
1, 35051, Note_on_c, 0, 64, 32
1, 35052, Control_c, 0, 64, 0
1, 35053, Note_on_c, 0, 62, 35
1, 35055, Note_on_c, 0, 56, 25
1, 35070, Control_c, 0, 64, 127
1, 35095, Note_on_c, 0, 64, 0
1, 35096, Note_on_c, 0, 62, 0
1, 35098, Note_on_c, 0, 67, 0
1, 35100, Note_on_c, 0, 59, 0
1, 35101, Note_on_c, 0, 56, 0
1, 35125, Note_on_c, 0, 55, 39
1, 35137, Note_on_c, 0, 55, 0
1, 35140, Note_on_c, 0, 56, 46
1, 35158, Note_on_c, 0, 58, 50
1, 35159, Note_on_c, 0, 56, 0
1, 35159, Control_c, 0, 64, 0
1, 35167, Note_on_c, 0, 58, 0
1, 35173, Note_on_c, 0, 59, 68
1, 35184, Note_on_c, 0, 46, 0
1, 35185, Note_on_c, 0, 59, 0
1, 35191, Note_on_c, 0, 61, 48
1, 35205, Note_on_c, 0, 61, 0
1, 35211, Note_on_c, 0, 62, 62
1, 35227, Note_on_c, 0, 62, 0
1, 35229, Note_on_c, 0, 64, 55
1, 35239, Note_on_c, 0, 64, 0
1, 35249, Note_on_c, 0, 65, 49
1, 35254, Note_on_c, 0, 65, 0
1, 35268, Note_on_c, 0, 67, 44
1, 35285, Note_on_c, 0, 67, 0
1, 35292, Note_on_c, 0, 68, 40
1, 35300, Note_on_c, 0, 68, 0
1, 35346, Note_on_c, 0, 46, 34
1, 35350, Note_on_c, 0, 70, 59
1, 35364, Note_on_c, 0, 70, 0
1, 35373, Note_on_c, 0, 71, 63
1, 35385, Note_on_c, 0, 71, 0
1, 35394, Note_on_c, 0, 73, 64
1, 35403, Note_on_c, 0, 73, 0
1, 35411, Note_on_c, 0, 74, 68
1, 35425, Note_on_c, 0, 56, 30
1, 35430, Note_on_c, 0, 74, 0
1, 35446, Note_on_c, 0, 75, 62
1, 35455, Note_on_c, 0, 56, 0
1, 35457, Note_on_c, 0, 75, 0
1, 35466, Note_on_c, 0, 76, 55
1, 35472, Note_on_c, 0, 46, 0
1, 35480, Note_on_c, 0, 76, 0
1, 35482, Note_on_c, 0, 77, 47
1, 35485, Control_c, 0, 64, 127
1, 35489, Note_on_c, 0, 77, 0
1, 35496, Note_on_c, 0, 79, 36
1, 35508, Note_on_c, 0, 79, 0
1, 35516, Note_on_c, 0, 81, 49
1, 35524, Note_on_c, 0, 81, 0
1, 35532, Note_on_c, 0, 84, 71
1, 35548, Control_c, 0, 64, 0
1, 35553, Note_on_c, 0, 39, 37
1, 35554, Note_on_c, 0, 84, 0
1, 35556, Note_on_c, 0, 82, 48
1, 35576, Control_c, 0, 64, 127
1, 35577, Note_on_c, 0, 82, 0
1, 35601, Note_on_c, 0, 46, 36
1, 35655, Note_on_c, 0, 46, 0
1, 35661, Note_on_c, 0, 59, 45
1, 35664, Note_on_c, 0, 55, 62
1, 35667, Note_on_c, 0, 51, 35
1, 35685, Note_on_c, 0, 47, 1
1, 35696, Note_on_c, 0, 51, 0
1, 35699, Note_on_c, 0, 55, 0
1, 35703, Note_on_c, 0, 59, 0
1, 35717, Note_on_c, 0, 60, 80
1, 35720, Control_c, 0, 64, 0
1, 35726, Control_c, 0, 64, 127
1, 35738, Note_on_c, 0, 60, 0
1, 35763, Note_on_c, 0, 39, 0
1, 35768, Note_on_c, 0, 47, 0
1, 35774, Note_on_c, 0, 48, 51
1, 35775, Note_on_c, 0, 55, 47
1, 35776, Note_on_c, 0, 60, 58
1, 35777, Note_on_c, 0, 56, 55
1, 35778, Control_c, 0, 64, 0
1, 35780, Note_on_c, 0, 41, 43
1, 35815, Control_c, 0, 64, 127
1, 35853, Note_on_c, 0, 56, 0
1, 35862, Note_on_c, 0, 55, 0
1, 35872, Note_on_c, 0, 60, 0
1, 35888, Note_on_c, 0, 48, 0
1, 35892, Note_on_c, 0, 49, 33
1, 35894, Note_on_c, 0, 61, 40
1, 35896, Control_c, 0, 64, 0
1, 35914, Control_c, 0, 64, 127
1, 35958, Note_on_c, 0, 61, 0
1, 35981, Note_on_c, 0, 41, 0
1, 35991, Note_on_c, 0, 49, 0
1, 36001, Control_c, 0, 64, 0
1, 36001, Note_on_c, 0, 62, 46
1, 36005, Note_on_c, 0, 43, 41
1, 36006, Note_on_c, 0, 55, 34
1, 36006, Note_on_c, 0, 58, 32
1, 36014, Note_on_c, 0, 50, 19
1, 36026, Note_on_c, 0, 62, 0
1, 36028, Control_c, 0, 64, 127
1, 36051, Note_on_c, 0, 55, 0
1, 36059, Note_on_c, 0, 58, 0
1, 36063, Note_on_c, 0, 65, 83
1, 36089, Note_on_c, 0, 65, 0
1, 36098, Note_on_c, 0, 50, 0
1, 36118, Note_on_c, 0, 65, 80
1, 36120, Note_on_c, 0, 50, 48
1, 36121, Note_on_c, 0, 58, 57
1, 36165, Note_on_c, 0, 65, 0
1, 36168, Note_on_c, 0, 43, 0
1, 36177, Note_on_c, 0, 50, 0
1, 36177, Note_on_c, 0, 58, 0
1, 36185, Note_on_c, 0, 63, 27
1, 36220, Note_on_c, 0, 63, 0
1, 36237, Note_on_c, 0, 55, 33
1, 36237, Note_on_c, 0, 60, 65
1, 36239, Control_c, 0, 64, 0
1, 36243, Note_on_c, 0, 44, 33
1, 36276, Control_c, 0, 64, 127
1, 36297, Note_on_c, 0, 51, 56
1, 36318, Note_on_c, 0, 55, 0
1, 36358, Note_on_c, 0, 60, 0
1, 36360, Note_on_c, 0, 55, 60
1, 36365, Note_on_c, 0, 55, 0
1, 36369, Note_on_c, 0, 51, 0
1, 36420, Note_on_c, 0, 55, 40
1, 36423, Note_on_c, 0, 51, 27
1, 36435, Note_on_c, 0, 44, 0
1, 36439, Note_on_c, 0, 51, 0
1, 36445, Note_on_c, 0, 55, 0
1, 36473, Control_c, 0, 64, 0
1, 36475, Note_on_c, 0, 73, 57
1, 36476, Note_on_c, 0, 46, 40
1, 36478, Note_on_c, 0, 61, 38
1, 36478, Note_on_c, 0, 65, 56
1, 36479, Note_on_c, 0, 56, 29
1, 36491, Control_c, 0, 64, 127
1, 36493, Note_on_c, 0, 61, 0
1, 36494, Note_on_c, 0, 65, 0
1, 36501, Note_on_c, 0, 73, 0
1, 36516, Note_on_c, 0, 46, 0
1, 36520, Note_on_c, 0, 56, 0
1, 36543, Note_on_c, 0, 84, 80
1, 36560, Note_on_c, 0, 84, 0
1, 36575, Note_on_c, 0, 82, 55
1, 36584, Note_on_c, 0, 82, 0
1, 36600, Control_c, 0, 64, 0
1, 36602, Note_on_c, 0, 84, 65
1, 36602, Note_on_c, 0, 65, 37
1, 36604, Note_on_c, 0, 61, 42
1, 36607, Note_on_c, 0, 72, 30
1, 36612, Note_on_c, 0, 60, 17
1, 36618, Note_on_c, 0, 72, 0
1, 36618, Note_on_c, 0, 84, 0
1, 36621, Note_on_c, 0, 60, 0
1, 36621, Control_c, 0, 64, 127
1, 36625, Control_c, 0, 64, 0
1, 36638, Note_on_c, 0, 84, 60
1, 36641, Note_on_c, 0, 72, 35
1, 36649, Note_on_c, 0, 72, 0
1, 36653, Note_on_c, 0, 84, 0
1, 36667, Note_on_c, 0, 82, 36
1, 36676, Note_on_c, 0, 82, 0
1, 36680, Note_on_c, 0, 65, 0
1, 36702, Note_on_c, 0, 82, 56
1, 36717, Note_on_c, 0, 82, 0
1, 36726, Note_on_c, 0, 65, 28
1, 36729, Note_on_c, 0, 57, 40
1, 36729, Note_on_c, 0, 84, 67
1, 36729, Note_on_c, 0, 72, 52
1, 36738, Note_on_c, 0, 72, 0
1, 36741, Note_on_c, 0, 84, 0
1, 36765, Note_on_c, 0, 84, 64
1, 36767, Note_on_c, 0, 72, 40
1, 36769, Note_on_c, 0, 65, 0
1, 36774, Note_on_c, 0, 84, 0
1, 36774, Note_on_c, 0, 72, 0
1, 36793, Note_on_c, 0, 70, 31
1, 36803, Note_on_c, 0, 70, 0
1, 36823, Note_on_c, 0, 82, 48
1, 36823, Note_on_c, 0, 70, 32
1, 36829, Note_on_c, 0, 70, 0
1, 36831, Note_on_c, 0, 82, 0
1, 36835, Note_on_c, 0, 57, 0
1, 36847, Note_on_c, 0, 56, 25
1, 36849, Note_on_c, 0, 84, 57
1, 36851, Note_on_c, 0, 72, 38
1, 36852, Note_on_c, 0, 65, 14
1, 36882, Control_c, 0, 64, 127
1, 36915, Note_on_c, 0, 84, 0
1, 36920, Note_on_c, 0, 65, 0
1, 36923, Note_on_c, 0, 61, 0
1, 36927, Note_on_c, 0, 72, 0
1, 36933, Note_on_c, 0, 56, 0
1, 36959, Control_c, 0, 64, 0
1, 36959, Note_on_c, 0, 61, 27
1, 36959, Note_on_c, 0, 77, 32
1, 36960, Note_on_c, 0, 72, 30
1, 36962, Note_on_c, 0, 65, 22
1, 36967, Note_on_c, 0, 55, 15
1, 36974, Control_c, 0, 64, 127
1, 36975, Note_on_c, 0, 65, 0
1, 36985, Note_on_c, 0, 61, 0
1, 36985, Note_on_c, 0, 55, 0
1, 36987, Note_on_c, 0, 77, 0
1, 36996, Note_on_c, 0, 72, 0
1, 37023, Note_on_c, 0, 39, 57
1, 37080, Note_on_c, 0, 46, 47
1, 37090, Note_on_c, 0, 39, 0
1, 37102, Note_on_c, 0, 46, 0
1, 37144, Note_on_c, 0, 52, 65
1, 37206, Note_on_c, 0, 64, 52
1, 37207, Note_on_c, 0, 61, 46
1, 37209, Note_on_c, 0, 52, 0
1, 37209, Note_on_c, 0, 59, 58
1, 37210, Control_c, 0, 64, 0
1, 37212, Note_on_c, 0, 55, 44
1, 37236, Control_c, 0, 64, 127
1, 37267, Control_c, 0, 64, 0
1, 37269, Note_on_c, 0, 55, 0
1, 37270, Note_on_c, 0, 45, 52
1, 37290, Control_c, 0, 64, 127
1, 37291, Note_on_c, 0, 59, 0
1, 37329, Note_on_c, 0, 59, 49
1, 37330, Note_on_c, 0, 55, 49
1, 37354, Note_on_c, 0, 45, 0
1, 37362, Note_on_c, 0, 55, 0
1, 37377, Note_on_c, 0, 59, 0
1, 37383, Note_on_c, 0, 61, 0
1, 37383, Note_on_c, 0, 64, 0
1, 37394, Note_on_c, 0, 52, 45
1, 37396, Note_on_c, 0, 45, 33
1, 37414, Note_on_c, 0, 45, 0
1, 37416, Note_on_c, 0, 52, 0
1, 37453, Note_on_c, 0, 72, 78
1, 37454, Note_on_c, 0, 44, 46
1, 37455, Note_on_c, 0, 51, 54
1, 37455, Note_on_c, 0, 60, 66
1, 37455, Control_c, 0, 64, 0
1, 37487, Control_c, 0, 64, 127
1, 37502, Note_on_c, 0, 72, 0
1, 37504, Note_on_c, 0, 60, 0
1, 37517, Note_on_c, 0, 72, 63
1, 37518, Note_on_c, 0, 60, 74
1, 37545, Note_on_c, 0, 72, 0
1, 37546, Note_on_c, 0, 60, 0
1, 37557, Note_on_c, 0, 44, 0
1, 37578, Note_on_c, 0, 44, 46
1, 37579, Note_on_c, 0, 72, 78
1, 37579, Note_on_c, 0, 60, 76
1, 37581, Note_on_c, 0, 51, 0
1, 37581, Note_on_c, 0, 52, 53
1, 37582, Control_c, 0, 64, 0
1, 37609, Control_c, 0, 64, 127
1, 37613, Note_on_c, 0, 72, 0
1, 37618, Note_on_c, 0, 60, 0
1, 37637, Note_on_c, 0, 71, 54
1, 37638, Note_on_c, 0, 59, 47
1, 37661, Note_on_c, 0, 71, 0
1, 37665, Note_on_c, 0, 59, 0
1, 37665, Note_on_c, 0, 52, 0
1, 37697, Note_on_c, 0, 72, 64
1, 37698, Note_on_c, 0, 65, 36
1, 37700, Note_on_c, 0, 60, 56
1, 37701, Note_on_c, 0, 53, 41
1, 37702, Control_c, 0, 64, 0
1, 37731, Control_c, 0, 64, 127
1, 37769, Note_on_c, 0, 60, 0
1, 37772, Note_on_c, 0, 72, 0
1, 37773, Note_on_c, 0, 53, 0
1, 37789, Note_on_c, 0, 65, 0
1, 37815, Note_on_c, 0, 74, 60
1, 37816, Note_on_c, 0, 65, 52
1, 37817, Note_on_c, 0, 62, 55
1, 37852, Note_on_c, 0, 44, 0
1, 37873, Note_on_c, 0, 44, 42
1, 37878, Note_on_c, 0, 65, 0
1, 37879, Note_on_c, 0, 62, 0
1, 37888, Note_on_c, 0, 44, 0
1, 37898, Note_on_c, 0, 74, 0
1, 37936, Note_on_c, 0, 68, 47
1, 37937, Note_on_c, 0, 60, 47
1, 37939, Note_on_c, 0, 65, 50
1, 37940, Note_on_c, 0, 50, 42
1, 37941, Control_c, 0, 64, 0
1, 37977, Control_c, 0, 64, 127
1, 37997, Note_on_c, 0, 56, 76
1, 38023, Note_on_c, 0, 60, 0
1, 38032, Note_on_c, 0, 68, 0
1, 38048, Note_on_c, 0, 65, 0
1, 38061, Note_on_c, 0, 60, 73
1, 38085, Note_on_c, 0, 50, 0
1, 38090, Note_on_c, 0, 56, 0
1, 38101, Note_on_c, 0, 60, 0
1, 38117, Note_on_c, 0, 65, 82
1, 38139, Note_on_c, 0, 65, 0
1, 38177, Note_on_c, 0, 61, 59
1, 38177, Note_on_c, 0, 59, 58
1, 38178, Note_on_c, 0, 43, 39
1, 38180, Control_c, 0, 64, 0
1, 38181, Note_on_c, 0, 53, 32
1, 38215, Control_c, 0, 64, 127
1, 38249, Note_on_c, 0, 53, 0
1, 38256, Note_on_c, 0, 59, 0
1, 38261, Note_on_c, 0, 61, 0
1, 38267, Note_on_c, 0, 43, 0
1, 38289, Note_on_c, 0, 59, 60
1, 38290, Note_on_c, 0, 62, 54
1, 38292, Note_on_c, 0, 47, 35
1, 38294, Control_c, 0, 64, 0
1, 38296, Note_on_c, 0, 53, 30
1, 38325, Control_c, 0, 64, 127
1, 38336, Note_on_c, 0, 53, 0
1, 38355, Note_on_c, 0, 59, 0
1, 38397, Note_on_c, 0, 62, 0
1, 38400, Note_on_c, 0, 47, 0
1, 38404, Control_c, 0, 64, 0
1, 38407, Note_on_c, 0, 58, 53
1, 38409, Note_on_c, 0, 55, 56
1, 38411, Note_on_c, 0, 48, 41
1, 38418, Control_c, 0, 64, 127
1, 38420, Note_on_c, 0, 55, 0
1, 38424, Note_on_c, 0, 58, 0
1, 38450, Note_on_c, 0, 48, 0
1, 38472, Note_on_c, 0, 74, 87
1, 38510, Note_on_c, 0, 74, 0
1, 38526, Note_on_c, 0, 74, 67
1, 38529, Note_on_c, 0, 62, 81
1, 38529, Note_on_c, 0, 67, 78
1, 38529, Note_on_c, 0, 63, 82
1, 38531, Note_on_c, 0, 70, 53
1, 38533, Control_c, 0, 64, 0
1, 38536, Note_on_c, 0, 70, 0
1, 38555, Control_c, 0, 64, 127
1, 38585, Note_on_c, 0, 74, 0
1, 38592, Note_on_c, 0, 72, 73
1, 38596, Note_on_c, 0, 70, 34
1, 38604, Note_on_c, 0, 70, 0
1, 38614, Note_on_c, 0, 67, 0
1, 38617, Note_on_c, 0, 63, 0
1, 38622, Note_on_c, 0, 62, 0
1, 38635, Note_on_c, 0, 72, 0
1, 38652, Note_on_c, 0, 74, 74
1, 38654, Note_on_c, 0, 63, 55
1, 38655, Note_on_c, 0, 58, 46
1, 38655, Note_on_c, 0, 67, 55
1, 38657, Control_c, 0, 64, 0
1, 38681, Control_c, 0, 64, 127
1, 38724, Note_on_c, 0, 63, 0
1, 38732, Note_on_c, 0, 67, 0
1, 38754, Note_on_c, 0, 74, 0
1, 38769, Note_on_c, 0, 62, 32
1, 38771, Note_on_c, 0, 63, 29
1, 38772, Note_on_c, 0, 67, 29
1, 38805, Note_on_c, 0, 62, 0
1, 38820, Note_on_c, 0, 58, 0
1, 38824, Note_on_c, 0, 63, 0
1, 38828, Note_on_c, 0, 67, 0
1, 38832, Note_on_c, 0, 74, 62
1, 38853, Note_on_c, 0, 74, 0
1, 38890, Control_c, 0, 64, 0
1, 38893, Note_on_c, 0, 75, 65
1, 38895, Note_on_c, 0, 45, 40
1, 38909, Note_on_c, 0, 45, 0
1, 38914, Control_c, 0, 64, 127
1, 38953, Note_on_c, 0, 60, 40
1, 38968, Note_on_c, 0, 60, 0
1, 39010, Note_on_c, 0, 63, 37
1, 39028, Note_on_c, 0, 63, 0
1, 39114, Control_c, 0, 64, 0
1, 39126, Note_on_c, 0, 44, 42
1, 39131, Control_c, 0, 64, 127
1, 39135, Note_on_c, 0, 44, 0
1, 39191, Note_on_c, 0, 54, 20
1, 39246, Note_on_c, 0, 66, 27
1, 39247, Note_on_c, 0, 63, 27
1, 39249, Note_on_c, 0, 69, 36
1, 39250, Note_on_c, 0, 60, 22
1, 39281, Note_on_c, 0, 54, 0
1, 39302, Note_on_c, 0, 69, 0
1, 39312, Note_on_c, 0, 63, 0
1, 39312, Note_on_c, 0, 66, 0
1, 39318, Note_on_c, 0, 60, 0
1, 39350, Note_on_c, 0, 75, 0
1, 39367, Note_on_c, 0, 63, 23
1, 39369, Note_on_c, 0, 67, 33
1, 39371, Control_c, 0, 64, 0
1, 39378, Note_on_c, 0, 55, 25
1, 39395, Control_c, 0, 64, 127
1, 39405, Note_on_c, 0, 63, 0
1, 39427, Note_on_c, 0, 67, 0
1, 39437, Note_on_c, 0, 58, 40
1, 39491, Note_on_c, 0, 75, 70
1, 39494, Note_on_c, 0, 63, 37
1, 39507, Note_on_c, 0, 75, 0
1, 39535, Note_on_c, 0, 75, 75
1, 39549, Note_on_c, 0, 55, 0
1, 39561, Note_on_c, 0, 58, 0
1, 39562, Note_on_c, 0, 75, 0
1, 39571, Note_on_c, 0, 74, 60
1, 39603, Note_on_c, 0, 74, 0
1, 39610, Control_c, 0, 64, 0
1, 39612, Note_on_c, 0, 54, 38
1, 39612, Note_on_c, 0, 75, 53
1, 39614, Note_on_c, 0, 63, 0
1, 39637, Control_c, 0, 64, 127
1, 39668, Note_on_c, 0, 63, 19
1, 39669, Note_on_c, 0, 60, 31
1, 39702, Note_on_c, 0, 75, 0
1, 39733, Note_on_c, 0, 77, 66
1, 39748, Note_on_c, 0, 54, 0
1, 39750, Note_on_c, 0, 60, 0
1, 39766, Note_on_c, 0, 77, 0
1, 39769, Note_on_c, 0, 63, 0
1, 39790, Note_on_c, 0, 77, 54
1, 39809, Note_on_c, 0, 77, 0
1, 39839, Note_on_c, 0, 79, 70
1, 39845, Note_on_c, 0, 75, 48
1, 39848, Note_on_c, 0, 60, 32
1, 39852, Note_on_c, 0, 68, 36
1, 39852, Note_on_c, 0, 63, 28
1, 39853, Note_on_c, 0, 72, 38
1, 39855, Control_c, 0, 64, 0
1, 39879, Control_c, 0, 64, 127
1, 39895, Note_on_c, 0, 79, 0
1, 39912, Note_on_c, 0, 79, 44
1, 39912, Note_on_c, 0, 58, 35
1, 39933, Note_on_c, 0, 79, 0
1, 39971, Note_on_c, 0, 79, 44
1, 39993, Note_on_c, 0, 79, 0
1, 39998, Note_on_c, 0, 58, 0
1, 40023, Note_on_c, 0, 60, 0
1, 40031, Note_on_c, 0, 58, 25
1, 40031, Note_on_c, 0, 79, 43
1, 40033, Note_on_c, 0, 72, 0
1, 40036, Note_on_c, 0, 68, 0
1, 40038, Note_on_c, 0, 75, 0
1, 40064, Note_on_c, 0, 79, 0
1, 40066, Note_on_c, 0, 63, 0
1, 40071, Note_on_c, 0, 58, 0
1, 40089, Note_on_c, 0, 79, 58
1, 40093, Note_on_c, 0, 62, 35
1, 40094, Note_on_c, 0, 74, 48
1, 40095, Note_on_c, 0, 71, 56
1, 40096, Control_c, 0, 64, 0
1, 40101, Note_on_c, 0, 67, 33
1, 40119, Control_c, 0, 64, 127
1, 40141, Note_on_c, 0, 79, 0
1, 40156, Note_on_c, 0, 79, 56
1, 40187, Note_on_c, 0, 79, 0
1, 40214, Note_on_c, 0, 79, 66
1, 40246, Note_on_c, 0, 79, 0
1, 40257, Note_on_c, 0, 74, 0
1, 40258, Note_on_c, 0, 62, 0
1, 40263, Note_on_c, 0, 67, 0
1, 40268, Note_on_c, 0, 71, 0
1, 40499, Note_on_c, 0, 70, 53
1, 40502, Note_on_c, 0, 59, 38
1, 40503, Note_on_c, 0, 66, 37
1, 40503, Note_on_c, 0, 49, 35
1, 40503, Note_on_c, 0, 63, 39
1, 40514, Control_c, 0, 64, 0
1, 40547, Control_c, 0, 64, 127
1, 40552, Note_on_c, 0, 70, 0
1, 40563, Note_on_c, 0, 70, 60
1, 40608, Note_on_c, 0, 59, 0
1, 40611, Note_on_c, 0, 63, 0
1, 40611, Note_on_c, 0, 66, 0
1, 40617, Note_on_c, 0, 70, 0
1, 40625, Note_on_c, 0, 59, 35
1, 40626, Note_on_c, 0, 68, 37
1, 40626, Note_on_c, 0, 63, 32
1, 40626, Note_on_c, 0, 66, 32
1, 40628, Note_on_c, 0, 58, 31
1, 40660, Note_on_c, 0, 66, 0
1, 40660, Note_on_c, 0, 63, 0
1, 40660, Note_on_c, 0, 59, 0
1, 40661, Note_on_c, 0, 68, 0
1, 40661, Note_on_c, 0, 58, 0
1, 40688, Note_on_c, 0, 68, 52
1, 40688, Note_on_c, 0, 59, 49
1, 40689, Note_on_c, 0, 63, 35
1, 40692, Note_on_c, 0, 58, 25
1, 40719, Note_on_c, 0, 63, 0
1, 40733, Note_on_c, 0, 59, 0
1, 40743, Note_on_c, 0, 58, 0
1, 40746, Note_on_c, 0, 59, 30
1, 40750, Note_on_c, 0, 56, 27
1, 40751, Note_on_c, 0, 66, 36
1, 40752, Note_on_c, 0, 63, 25
1, 40761, Note_on_c, 0, 63, 0
1, 40765, Note_on_c, 0, 66, 0
1, 40776, Note_on_c, 0, 49, 0
1, 40778, Note_on_c, 0, 59, 0
1, 40779, Note_on_c, 0, 68, 0
1, 40798, Note_on_c, 0, 56, 0
1, 40806, Note_on_c, 0, 66, 47
1, 40810, Note_on_c, 0, 59, 36
1, 40811, Note_on_c, 0, 63, 25
1, 40811, Note_on_c, 0, 49, 37
1, 40813, Control_c, 0, 64, 0
1, 40840, Control_c, 0, 64, 127
1, 40855, Note_on_c, 0, 59, 0
1, 40857, Note_on_c, 0, 66, 0
1, 40874, Note_on_c, 0, 65, 53
1, 40874, Note_on_c, 0, 59, 33
1, 40890, Note_on_c, 0, 65, 0
1, 40901, Note_on_c, 0, 59, 0
1, 40903, Note_on_c, 0, 63, 0
1, 40916, Note_on_c, 0, 49, 0
1, 40930, Note_on_c, 0, 49, 51
1, 40930, Note_on_c, 0, 63, 51
1, 40931, Note_on_c, 0, 59, 66
1, 40931, Note_on_c, 0, 65, 73
1, 40983, Note_on_c, 0, 59, 0
1, 40984, Note_on_c, 0, 65, 0
1, 40986, Note_on_c, 0, 63, 0
1, 40991, Note_on_c, 0, 66, 74
1, 40993, Note_on_c, 0, 63, 28
1, 40993, Note_on_c, 0, 59, 51
1, 41016, Note_on_c, 0, 63, 0
1, 41024, Note_on_c, 0, 59, 0
1, 41030, Note_on_c, 0, 66, 0
1, 41051, Note_on_c, 0, 66, 71
1, 41052, Note_on_c, 0, 63, 72
1, 41054, Note_on_c, 0, 58, 46
1, 41054, Note_on_c, 0, 59, 72
1, 41106, Note_on_c, 0, 59, 0
1, 41106, Note_on_c, 0, 63, 0
1, 41106, Note_on_c, 0, 66, 0
1, 41112, Note_on_c, 0, 59, 45
1, 41112, Note_on_c, 0, 68, 74
1, 41114, Note_on_c, 0, 66, 46
1, 41114, Note_on_c, 0, 63, 43
1, 41143, Note_on_c, 0, 68, 0
1, 41144, Note_on_c, 0, 49, 0
1, 41156, Note_on_c, 0, 59, 0
1, 41159, Note_on_c, 0, 63, 0
1, 41159, Note_on_c, 0, 66, 0
1, 41170, Note_on_c, 0, 68, 65
1, 41172, Note_on_c, 0, 63, 45
1, 41174, Note_on_c, 0, 49, 42
1, 41174, Note_on_c, 0, 59, 60
1, 41186, Note_on_c, 0, 59, 0
1, 41196, Note_on_c, 0, 68, 0
1, 41202, Note_on_c, 0, 63, 0
1, 41208, Note_on_c, 0, 58, 0
1, 41231, Note_on_c, 0, 70, 83
1, 41234, Note_on_c, 0, 63, 64
1, 41238, Note_on_c, 0, 49, 0
1, 41253, Note_on_c, 0, 63, 0
1, 41263, Note_on_c, 0, 70, 0
1, 41294, Note_on_c, 0, 46, 38
1, 41294, Note_on_c, 0, 70, 72
1, 41295, Note_on_c, 0, 63, 60
1, 41295, Note_on_c, 0, 67, 57
1, 41296, Note_on_c, 0, 56, 33
1, 41297, Note_on_c, 0, 60, 62
1, 41299, Control_c, 0, 64, 0
1, 41338, Control_c, 0, 64, 127
1, 41343, Note_on_c, 0, 67, 0
1, 41348, Note_on_c, 0, 70, 0
1, 41357, Note_on_c, 0, 68, 49
1, 41380, Note_on_c, 0, 63, 0
1, 41382, Note_on_c, 0, 60, 0
1, 41382, Note_on_c, 0, 56, 0
1, 41394, Note_on_c, 0, 68, 0
1, 41415, Note_on_c, 0, 68, 52
1, 41417, Note_on_c, 0, 63, 53
1, 41417, Note_on_c, 0, 60, 54
1, 41418, Note_on_c, 0, 56, 30
1, 41443, Note_on_c, 0, 68, 0
1, 41450, Note_on_c, 0, 46, 0
1, 41451, Note_on_c, 0, 63, 0
1, 41461, Note_on_c, 0, 60, 0
1, 41471, Note_on_c, 0, 46, 34
1, 41473, Note_on_c, 0, 56, 0
1, 41475, Note_on_c, 0, 67, 28
1, 41481, Note_on_c, 0, 67, 0
1, 41504, Note_on_c, 0, 46, 0
1, 41532, Note_on_c, 0, 67, 38
1, 41533, Note_on_c, 0, 56, 45
1, 41534, Control_c, 0, 64, 0
1, 41534, Note_on_c, 0, 46, 32
1, 41536, Note_on_c, 0, 60, 51
1, 41537, Note_on_c, 0, 63, 39
1, 41559, Control_c, 0, 64, 127
1, 41600, Note_on_c, 0, 60, 0
1, 41612, Note_on_c, 0, 56, 0
1, 41613, Note_on_c, 0, 63, 0
1, 41641, Note_on_c, 0, 67, 0
1, 41648, Note_on_c, 0, 63, 36
1, 41652, Note_on_c, 0, 56, 26
1, 41653, Note_on_c, 0, 60, 44
1, 41688, Note_on_c, 0, 46, 0
1, 41691, Note_on_c, 0, 60, 0
1, 41694, Note_on_c, 0, 56, 0
1, 41725, Note_on_c, 0, 63, 0
1, 41764, Note_on_c, 0, 67, 35
1, 41765, Note_on_c, 0, 59, 46
1, 41766, Note_on_c, 0, 64, 36
1, 41768, Note_on_c, 0, 62, 37
1, 41768, Note_on_c, 0, 46, 27
1, 41769, Note_on_c, 0, 34, 29
1, 41773, Control_c, 0, 64, 0
1, 41800, Control_c, 0, 64, 127
1, 41852, Note_on_c, 0, 62, 0
1, 41876, Note_on_c, 0, 59, 0
1, 41907, Note_on_c, 0, 46, 0
1, 41920, Note_on_c, 0, 64, 0
1, 41998, Note_on_c, 0, 67, 0
1, 42010, Note_on_c, 0, 46, 21
1, 42010, Note_on_c, 0, 62, 28
1, 42010, Note_on_c, 0, 59, 34
1, 42024, Note_on_c, 0, 59, 0
1, 42030, Note_on_c, 0, 62, 0
1, 42062, Note_on_c, 0, 34, 0
1, 42067, Note_on_c, 0, 46, 0
1, 42203, Note_on_c, 0, 89, 79
1, 42216, Note_on_c, 0, 89, 0
1, 42249, Note_on_c, 0, 39, 42
1, 42249, Control_c, 0, 64, 0
1, 42250, Note_on_c, 0, 86, 79
1, 42253, Note_on_c, 0, 81, 71
1, 42254, Note_on_c, 0, 46, 34
1, 42266, Note_on_c, 0, 81, 0
1, 42266, Control_c, 0, 64, 127
1, 42277, Note_on_c, 0, 86, 0
1, 42283, Note_on_c, 0, 39, 0
1, 42303, Note_on_c, 0, 81, 61
1, 42307, Note_on_c, 0, 74, 37
1, 42308, Note_on_c, 0, 78, 30
1, 42330, Note_on_c, 0, 81, 0
1, 42333, Note_on_c, 0, 78, 0
1, 42341, Note_on_c, 0, 74, 0
1, 42350, Note_on_c, 0, 46, 0
1, 42359, Note_on_c, 0, 55, 20
1, 42401, Note_on_c, 0, 58, 31
1, 42404, Note_on_c, 0, 55, 0
1, 42438, Note_on_c, 0, 74, 43
1, 42439, Note_on_c, 0, 70, 43
1, 42440, Note_on_c, 0, 65, 34
1, 42459, Note_on_c, 0, 65, 0
1, 42477, Note_on_c, 0, 70, 0
1, 42479, Note_on_c, 0, 74, 0
1, 42479, Note_on_c, 0, 62, 37
1, 42514, Note_on_c, 0, 62, 0
1, 42529, Note_on_c, 0, 77, 71
1, 42552, Note_on_c, 0, 77, 0
1, 42590, Note_on_c, 0, 77, 76
1, 42594, Note_on_c, 0, 62, 33
1, 42611, Note_on_c, 0, 77, 0
1, 42622, Note_on_c, 0, 75, 40
1, 42628, Note_on_c, 0, 58, 0
1, 42639, Note_on_c, 0, 62, 0
1, 42641, Note_on_c, 0, 75, 0
1, 42653, Note_on_c, 0, 77, 69
1, 42671, Note_on_c, 0, 77, 0
1, 42682, Note_on_c, 0, 79, 74
1, 42707, Note_on_c, 0, 75, 54
1, 42711, Control_c, 0, 64, 0
1, 42711, Note_on_c, 0, 51, 47
1, 42714, Note_on_c, 0, 67, 42
1, 42735, Control_c, 0, 64, 127
1, 42751, Note_on_c, 0, 75, 0
1, 42752, Note_on_c, 0, 58, 45
1, 42754, Note_on_c, 0, 67, 0
1, 42761, Note_on_c, 0, 77, 11
1, 42774, Note_on_c, 0, 79, 0
1, 42777, Note_on_c, 0, 77, 0
1, 42785, Note_on_c, 0, 74, 39
1, 42785, Note_on_c, 0, 70, 47
1, 42785, Note_on_c, 0, 65, 48
1, 42786, Note_on_c, 0, 62, 51
1, 42787, Note_on_c, 0, 67, 49
1, 42869, Note_on_c, 0, 74, 0
1, 42870, Note_on_c, 0, 67, 0
1, 42878, Note_on_c, 0, 65, 0
1, 42881, Note_on_c, 0, 62, 0
1, 42888, Note_on_c, 0, 70, 0
1, 42941, Note_on_c, 0, 58, 0
1, 42960, Note_on_c, 0, 62, 36
1, 42961, Note_on_c, 0, 70, 42
1, 42962, Note_on_c, 0, 65, 37
1, 42963, Note_on_c, 0, 58, 39
1, 42964, Note_on_c, 0, 67, 31
1, 42968, Control_c, 0, 64, 0
1, 42991, Control_c, 0, 64, 127
1, 43053, Note_on_c, 0, 58, 0
1, 43112, Note_on_c, 0, 58, 1
1, 43116, Note_on_c, 0, 62, 0
1, 43117, Note_on_c, 0, 51, 0
1, 43121, Note_on_c, 0, 65, 0
1, 43122, Note_on_c, 0, 70, 0
1, 43122, Note_on_c, 0, 67, 0
1, 43141, Note_on_c, 0, 51, 46
1, 43172, Note_on_c, 0, 51, 0
1, 43199, Note_on_c, 0, 58, 0
1, 43206, Note_on_c, 0, 65, 59
1, 43207, Note_on_c, 0, 63, 44
1, 43208, Note_on_c, 0, 60, 40
1, 43213, Control_c, 0, 64, 0
1, 43216, Note_on_c, 0, 51, 36
1, 43240, Control_c, 0, 64, 127
1, 43246, Note_on_c, 0, 60, 0
1, 43257, Note_on_c, 0, 63, 0
1, 43265, Note_on_c, 0, 65, 0
1, 43279, Note_on_c, 0, 58, 29
1, 43285, Note_on_c, 0, 58, 0
1, 43324, Note_on_c, 0, 60, 42
1, 43362, Note_on_c, 0, 63, 37
1, 43387, Note_on_c, 0, 67, 54
1, 43407, Note_on_c, 0, 67, 0
1, 43408, Note_on_c, 0, 68, 76
1, 43428, Note_on_c, 0, 63, 0
1, 43432, Note_on_c, 0, 70, 70
1, 43434, Note_on_c, 0, 68, 0
1, 43446, Note_on_c, 0, 70, 0
1, 43454, Note_on_c, 0, 72, 62
1, 43469, Note_on_c, 0, 72, 0
1, 43475, Note_on_c, 0, 75, 81
1, 43491, Note_on_c, 0, 75, 0
1, 43496, Note_on_c, 0, 72, 71
1, 43514, Control_c, 0, 64, 0
1, 43515, Note_on_c, 0, 72, 0
1, 43516, Note_on_c, 0, 74, 62
1, 43534, Note_on_c, 0, 63, 25
1, 43536, Note_on_c, 0, 74, 0
1, 43536, Note_on_c, 0, 75, 74
1, 43547, Note_on_c, 0, 75, 0
1, 43555, Note_on_c, 0, 77, 61
1, 43574, Note_on_c, 0, 51, 0
1, 43577, Note_on_c, 0, 77, 0
1, 43578, Note_on_c, 0, 79, 60
1, 43599, Note_on_c, 0, 80, 50
1, 43600, Note_on_c, 0, 79, 0
1, 43604, Note_on_c, 0, 63, 0
1, 43613, Note_on_c, 0, 80, 0
1, 43619, Note_on_c, 0, 82, 59
1, 43629, Note_on_c, 0, 82, 0
1, 43643, Note_on_c, 0, 84, 71
1, 43658, Note_on_c, 0, 51, 49
1, 43664, Note_on_c, 0, 84, 0
1, 43664, Note_on_c, 0, 87, 56
1, 43686, Note_on_c, 0, 87, 0
1, 43689, Note_on_c, 0, 91, 74
1, 43714, Control_c, 0, 64, 127
1, 43715, Note_on_c, 0, 89, 67
1, 43716, Note_on_c, 0, 91, 0
1, 43733, Note_on_c, 0, 89, 0
1, 43738, Note_on_c, 0, 84, 64
1, 43760, Note_on_c, 0, 84, 0
1, 43764, Note_on_c, 0, 80, 51
1, 43784, Note_on_c, 0, 80, 0
1, 43790, Note_on_c, 0, 79, 42
1, 43806, Note_on_c, 0, 79, 0
1, 43810, Note_on_c, 0, 63, 13
1, 43815, Note_on_c, 0, 82, 65
1, 43872, Note_on_c, 0, 82, 0
1, 43876, Note_on_c, 0, 63, 0
1, 43877, Note_on_c, 0, 51, 0
1, 43913, Note_on_c, 0, 51, 42
1, 43930, Note_on_c, 0, 80, 46
1, 43941, Note_on_c, 0, 80, 0
1, 43942, Note_on_c, 0, 82, 68
1, 43960, Note_on_c, 0, 80, 61
1, 43971, Note_on_c, 0, 82, 0
1, 43982, Note_on_c, 0, 80, 0
1, 43984, Note_on_c, 0, 79, 57
1, 43999, Note_on_c, 0, 79, 0
1, 44010, Note_on_c, 0, 78, 63
1, 44033, Note_on_c, 0, 78, 0
1, 44035, Note_on_c, 0, 77, 54
1, 44038, Note_on_c, 0, 63, 25
1, 44052, Note_on_c, 0, 77, 0
1, 44064, Note_on_c, 0, 75, 64
1, 44068, Note_on_c, 0, 63, 0
1, 44075, Note_on_c, 0, 51, 0
1, 44087, Note_on_c, 0, 75, 0
1, 44091, Note_on_c, 0, 74, 54
1, 44109, Note_on_c, 0, 74, 0
1, 44118, Note_on_c, 0, 75, 67
1, 44137, Note_on_c, 0, 75, 0
1, 44137, Note_on_c, 0, 60, 0
1, 44145, Note_on_c, 0, 77, 62
1, 44172, Note_on_c, 0, 51, 32
1, 44174, Control_c, 0, 64, 0
1, 44198, Control_c, 0, 64, 127
1, 44262, Note_on_c, 0, 77, 0
1, 44268, Note_on_c, 0, 58, 1
1, 44292, Note_on_c, 0, 67, 38
1, 44294, Note_on_c, 0, 58, 0
1, 44295, Note_on_c, 0, 60, 45
1, 44304, Control_c, 0, 64, 0
1, 44323, Control_c, 0, 64, 127
1, 44348, Note_on_c, 0, 51, 0
1, 44363, Note_on_c, 0, 60, 0
1, 44366, Note_on_c, 0, 67, 0
1, 44408, Note_on_c, 0, 60, 44
1, 44409, Note_on_c, 0, 68, 42
1, 44411, Note_on_c, 0, 65, 30
1, 44415, Control_c, 0, 64, 0
1, 44416, Note_on_c, 0, 53, 32
1, 44439, Control_c, 0, 64, 127
1, 44457, Note_on_c, 0, 60, 0
1, 44459, Note_on_c, 0, 65, 0
1, 44465, Note_on_c, 0, 53, 0
1, 44470, Note_on_c, 0, 68, 0
1, 44521, Note_on_c, 0, 68, 44
1, 44522, Note_on_c, 0, 62, 40
1, 44522, Note_on_c, 0, 74, 40
1, 44523, Note_on_c, 0, 56, 36
1, 44527, Note_on_c, 0, 46, 23
1, 44529, Control_c, 0, 64, 0
1, 44555, Control_c, 0, 64, 127
1, 44567, Note_on_c, 0, 74, 0
1, 44578, Note_on_c, 0, 68, 0
1, 44581, Note_on_c, 0, 62, 0
1, 44590, Note_on_c, 0, 56, 0
1, 44642, Note_on_c, 0, 58, 46
1, 44642, Note_on_c, 0, 70, 39
1, 44644, Note_on_c, 0, 67, 36
1, 44644, Note_on_c, 0, 63, 47
1, 44644, Note_on_c, 0, 55, 32
1, 44648, Control_c, 0, 64, 0
1, 44663, Control_c, 0, 64, 127
1, 44695, Note_on_c, 0, 63, 0
1, 44695, Note_on_c, 0, 46, 0
1, 44697, Note_on_c, 0, 58, 0
1, 44699, Note_on_c, 0, 67, 0
1, 44711, Note_on_c, 0, 64, 58
1, 44714, Note_on_c, 0, 55, 0
1, 44742, Note_on_c, 0, 64, 0
1, 44768, Note_on_c, 0, 60, 57
1, 44768, Note_on_c, 0, 64, 54
1, 44769, Note_on_c, 0, 58, 25
1, 44773, Note_on_c, 0, 48, 27
1, 44774, Control_c, 0, 64, 0
1, 44798, Control_c, 0, 64, 127
1, 44820, Note_on_c, 0, 64, 0
1, 44821, Note_on_c, 0, 48, 0
1, 44825, Note_on_c, 0, 60, 0
1, 44828, Note_on_c, 0, 58, 0
1, 44876, Note_on_c, 0, 70, 0
1, 44886, Note_on_c, 0, 60, 60
1, 44886, Note_on_c, 0, 67, 37
1, 44887, Note_on_c, 0, 63, 64
1, 44889, Control_c, 0, 64, 0
1, 44922, Control_c, 0, 64, 127
1, 44950, Note_on_c, 0, 55, 75
1, 44959, Note_on_c, 0, 67, 0
1, 44976, Note_on_c, 0, 60, 0
1, 44984, Note_on_c, 0, 63, 0
1, 44988, Note_on_c, 0, 55, 0
1, 45031, Note_on_c, 0, 73, 21
1, 45038, Note_on_c, 0, 73, 0
1, 45060, Note_on_c, 0, 58, 57
1, 45060, Note_on_c, 0, 65, 70
1, 45060, Control_c, 0, 64, 0
1, 45060, Note_on_c, 0, 72, 53
1, 45063, Note_on_c, 0, 70, 29
1, 45063, Note_on_c, 0, 53, 42
1, 45063, Note_on_c, 0, 43, 34
1, 45063, Note_on_c, 0, 71, 39
1, 45069, Note_on_c, 0, 71, 0
1, 45078, Note_on_c, 0, 43, 0
1, 45084, Note_on_c, 0, 58, 0
1, 45084, Control_c, 0, 64, 127
1, 45085, Note_on_c, 0, 72, 0
1, 45092, Note_on_c, 0, 70, 0
1, 45095, Note_on_c, 0, 53, 0
1, 45097, Note_on_c, 0, 65, 0
1, 45126, Note_on_c, 0, 46, 49
1, 45126, Note_on_c, 0, 73, 75
1, 45128, Note_on_c, 0, 56, 53
1, 45129, Note_on_c, 0, 61, 57
1, 45129, Note_on_c, 0, 65, 71
1, 45136, Control_c, 0, 64, 0
1, 45163, Control_c, 0, 64, 127
1, 45180, Note_on_c, 0, 46, 0
1, 45187, Note_on_c, 0, 56, 0
1, 45211, Note_on_c, 0, 65, 0
1, 45214, Note_on_c, 0, 61, 0
1, 45247, Note_on_c, 0, 61, 40
1, 45249, Note_on_c, 0, 65, 50
1, 45291, Note_on_c, 0, 60, 94
1, 45309, Control_c, 0, 64, 0
1, 45321, Control_c, 0, 64, 127
1, 45337, Note_on_c, 0, 65, 0
1, 45339, Note_on_c, 0, 61, 0
1, 45365, Note_on_c, 0, 65, 48
1, 45368, Note_on_c, 0, 61, 20
1, 45373, Control_c, 0, 64, 0
1, 45384, Control_c, 0, 64, 127
1, 45420, Note_on_c, 0, 65, 0
1, 45421, Note_on_c, 0, 57, 76
1, 45422, Note_on_c, 0, 60, 0
1, 45438, Control_c, 0, 64, 0
1, 45451, Note_on_c, 0, 61, 0
1, 45468, Control_c, 0, 64, 127
1, 45478, Note_on_c, 0, 61, 31
1, 45482, Note_on_c, 0, 65, 36
1, 45540, Note_on_c, 0, 57, 0
1, 45540, Note_on_c, 0, 58, 81
1, 45541, Note_on_c, 0, 65, 0
1, 45545, Control_c, 0, 64, 0
1, 45554, Note_on_c, 0, 61, 0
1, 45575, Control_c, 0, 64, 127
1, 45601, Note_on_c, 0, 58, 0
1, 45605, Note_on_c, 0, 61, 34
1, 45606, Note_on_c, 0, 65, 46
1, 45636, Note_on_c, 0, 73, 0
1, 45663, Note_on_c, 0, 65, 0
1, 45664, Note_on_c, 0, 45, 49
1, 45668, Control_c, 0, 64, 0
1, 45689, Control_c, 0, 64, 127
1, 45710, Note_on_c, 0, 61, 0
1, 45779, Note_on_c, 0, 55, 37
1, 45780, Note_on_c, 0, 64, 38
1, 45781, Note_on_c, 0, 61, 31
1, 45782, Note_on_c, 0, 59, 52
1, 45783, Note_on_c, 0, 52, 38
1, 45798, Control_c, 0, 64, 0
1, 45823, Control_c, 0, 64, 127
1, 45852, Note_on_c, 0, 55, 0
1, 45852, Note_on_c, 0, 45, 0
1, 45894, Note_on_c, 0, 64, 0
1, 45896, Note_on_c, 0, 59, 0
1, 45904, Note_on_c, 0, 45, 30
1, 45914, Note_on_c, 0, 52, 0
1, 45917, Note_on_c, 0, 61, 0
1, 45957, Control_c, 0, 64, 0
1, 45960, Note_on_c, 0, 63, 37
1, 45961, Note_on_c, 0, 61, 35
1, 45962, Note_on_c, 0, 55, 33
1, 45962, Note_on_c, 0, 58, 37
1, 45971, Control_c, 0, 64, 127
1, 46017, Note_on_c, 0, 45, 0
1, 46020, Note_on_c, 0, 55, 0
1, 46023, Note_on_c, 0, 61, 0
1, 46023, Note_on_c, 0, 51, 39
1, 46025, Note_on_c, 0, 58, 0
1, 46032, Note_on_c, 0, 63, 0
1, 46082, Control_c, 0, 64, 0
1, 46085, Note_on_c, 0, 51, 0
1, 46086, Note_on_c, 0, 63, 28
1, 46086, Note_on_c, 0, 44, 37
1, 46087, Note_on_c, 0, 55, 30
1, 46090, Note_on_c, 0, 60, 34
1, 46095, Note_on_c, 0, 60, 0
1, 46095, Control_c, 0, 64, 127
1, 46097, Note_on_c, 0, 63, 0
1, 46100, Note_on_c, 0, 55, 0
1, 46137, Note_on_c, 0, 48, 57
1, 46148, Note_on_c, 0, 48, 0
1, 46156, Note_on_c, 0, 51, 52
1, 46170, Note_on_c, 0, 55, 50
1, 46173, Note_on_c, 0, 51, 0
1, 46181, Control_c, 0, 64, 0
1, 46184, Note_on_c, 0, 55, 0
1, 46189, Note_on_c, 0, 58, 69
1, 46196, Note_on_c, 0, 51, 29
1, 46203, Note_on_c, 0, 58, 0
1, 46210, Note_on_c, 0, 55, 59
1, 46216, Note_on_c, 0, 55, 0
1, 46233, Note_on_c, 0, 56, 30
1, 46241, Note_on_c, 0, 56, 0
1, 46249, Note_on_c, 0, 58, 35
1, 46255, Note_on_c, 0, 58, 0
1, 46268, Note_on_c, 0, 60, 57
1, 46270, Note_on_c, 0, 44, 0
1, 46273, Note_on_c, 0, 60, 0
1, 46289, Note_on_c, 0, 63, 37
1, 46295, Note_on_c, 0, 63, 0
1, 46303, Note_on_c, 0, 44, 31
1, 46315, Note_on_c, 0, 51, 0
1, 46317, Note_on_c, 0, 44, 0
1, 46323, Note_on_c, 0, 65, 32
1, 46329, Note_on_c, 0, 65, 0
1, 46342, Note_on_c, 0, 67, 58
1, 46354, Note_on_c, 0, 67, 0
1, 46365, Note_on_c, 0, 68, 71
1, 46376, Note_on_c, 0, 68, 0
1, 46387, Note_on_c, 0, 70, 65
1, 46395, Note_on_c, 0, 70, 0
1, 46407, Note_on_c, 0, 72, 65
1, 46420, Note_on_c, 0, 72, 0
1, 46426, Note_on_c, 0, 63, 36
1, 46429, Note_on_c, 0, 73, 48
1, 46432, Note_on_c, 0, 58, 28
1, 46442, Note_on_c, 0, 73, 0
1, 46453, Note_on_c, 0, 75, 26
1, 46458, Note_on_c, 0, 75, 0
1, 46465, Note_on_c, 0, 77, 37
1, 46477, Note_on_c, 0, 77, 0
1, 46486, Note_on_c, 0, 79, 43
1, 46493, Note_on_c, 0, 79, 0
1, 46496, Note_on_c, 0, 63, 0
1, 46502, Note_on_c, 0, 80, 31
1, 46505, Note_on_c, 0, 58, 0
1, 46507, Control_c, 0, 64, 127
1, 46515, Note_on_c, 0, 80, 0
1, 46524, Note_on_c, 0, 82, 37
1, 46535, Note_on_c, 0, 82, 0
1, 46540, Note_on_c, 0, 84, 67
1, 46548, Note_on_c, 0, 84, 0
1, 46554, Control_c, 0, 64, 0
1, 46599, Note_on_c, 0, 70, 61
1, 46599, Note_on_c, 0, 82, 54
1, 46602, Note_on_c, 0, 75, 52
1, 46604, Note_on_c, 0, 59, 40
1, 46604, Note_on_c, 0, 63, 27
1, 46605, Note_on_c, 0, 79, 31
1, 46609, Note_on_c, 0, 70, 0
1, 46610, Note_on_c, 0, 63, 0
1, 46610, Note_on_c, 0, 59, 0
1, 46610, Note_on_c, 0, 75, 0
1, 46612, Note_on_c, 0, 79, 0
1, 46615, Note_on_c, 0, 82, 0
1, 46658, Note_on_c, 0, 43, 47
1, 46661, Control_c, 0, 64, 127
1, 46664, Note_on_c, 0, 43, 0
1, 46714, Note_on_c, 0, 55, 76
1, 46714, Note_on_c, 0, 70, 74
1, 46717, Note_on_c, 0, 63, 69
1, 46718, Note_on_c, 0, 59, 74
1, 46719, Note_on_c, 0, 67, 57
1, 46719, Control_c, 0, 64, 0
1, 46723, Note_on_c, 0, 60, 41
1, 46728, Note_on_c, 0, 60, 0
1, 46736, Control_c, 0, 64, 127
1, 46756, Note_on_c, 0, 63, 0
1, 46758, Note_on_c, 0, 59, 0
1, 46758, Note_on_c, 0, 70, 0
1, 46761, Note_on_c, 0, 55, 0
1, 46765, Note_on_c, 0, 67, 0
1, 46776, Control_c, 0, 64, 0
1, 46777, Note_on_c, 0, 70, 74
1, 46777, Note_on_c, 0, 67, 61
1, 46777, Note_on_c, 0, 63, 72
1, 46778, Note_on_c, 0, 55, 63
1, 46779, Note_on_c, 0, 59, 70
1, 46805, Control_c, 0, 64, 127
1, 46825, Note_on_c, 0, 67, 0
1, 46826, Note_on_c, 0, 59, 0
1, 46826, Note_on_c, 0, 63, 0
1, 46827, Note_on_c, 0, 55, 0
1, 46833, Note_on_c, 0, 70, 0
1, 46842, Note_on_c, 0, 68, 35
1, 46844, Note_on_c, 0, 63, 62
1, 46844, Note_on_c, 0, 59, 51
1, 46847, Note_on_c, 0, 53, 44
1, 46880, Note_on_c, 0, 63, 0
1, 46883, Note_on_c, 0, 68, 0
1, 46884, Note_on_c, 0, 59, 0
1, 46888, Note_on_c, 0, 53, 0
1, 46909, Control_c, 0, 64, 0
1, 46911, Note_on_c, 0, 63, 50
1, 46912, Note_on_c, 0, 67, 49
1, 46914, Note_on_c, 0, 53, 30
1, 46914, Note_on_c, 0, 59, 41
1, 46915, Note_on_c, 0, 43, 29
1, 46933, Control_c, 0, 64, 127
1, 46956, Note_on_c, 0, 59, 0
1, 46958, Note_on_c, 0, 63, 0
1, 46963, Note_on_c, 0, 67, 0
1, 46971, Note_on_c, 0, 53, 0
1, 46972, Note_on_c, 0, 43, 0
1, 46973, Note_on_c, 0, 62, 39
1, 46973, Note_on_c, 0, 65, 57
1, 46973, Note_on_c, 0, 50, 51
1, 46974, Note_on_c, 0, 59, 38
1, 46980, Note_on_c, 0, 50, 0
1, 46999, Note_on_c, 0, 59, 0
1, 47004, Note_on_c, 0, 62, 0
1, 47017, Note_on_c, 0, 65, 0
1, 47038, Note_on_c, 0, 65, 51
1, 47040, Note_on_c, 0, 62, 57
1, 47040, Control_c, 0, 64, 0
1, 47043, Note_on_c, 0, 58, 29
1, 47044, Note_on_c, 0, 48, 36
1, 47071, Control_c, 0, 64, 127
1, 47094, Note_on_c, 0, 65, 0
1, 47097, Note_on_c, 0, 62, 0
1, 47097, Note_on_c, 0, 60, 34
1, 47098, Note_on_c, 0, 58, 0
1, 47098, Note_on_c, 0, 63, 57
1, 47103, Note_on_c, 0, 60, 0
1, 47103, Note_on_c, 0, 55, 34
1, 47107, Note_on_c, 0, 63, 0
1, 47159, Note_on_c, 0, 74, 77
1, 47161, Note_on_c, 0, 67, 76
1, 47163, Note_on_c, 0, 63, 64
1, 47164, Note_on_c, 0, 59, 41
1, 47165, Control_c, 0, 64, 0
1, 47175, Note_on_c, 0, 55, 0
1, 47186, Control_c, 0, 64, 127
1, 47211, Note_on_c, 0, 59, 0
1, 47215, Note_on_c, 0, 74, 0
1, 47221, Note_on_c, 0, 73, 45
1, 47226, Note_on_c, 0, 58, 47
1, 47251, Note_on_c, 0, 67, 0
1, 47262, Note_on_c, 0, 63, 0
1, 47263, Note_on_c, 0, 73, 0
1, 47268, Note_on_c, 0, 58, 0
1, 47291, Note_on_c, 0, 74, 66
1, 47293, Note_on_c, 0, 63, 46
1, 47294, Note_on_c, 0, 67, 49
1, 47298, Control_c, 0, 64, 0
1, 47322, Control_c, 0, 64, 127
1, 47331, Note_on_c, 0, 48, 0
1, 47353, Note_on_c, 0, 48, 34
1, 47361, Note_on_c, 0, 67, 0
1, 47393, Note_on_c, 0, 63, 0
1, 47417, Note_on_c, 0, 58, 26
1, 47476, Note_on_c, 0, 63, 52
1, 47479, Note_on_c, 0, 48, 0
1, 47485, Note_on_c, 0, 58, 0
1, 47503, Note_on_c, 0, 63, 0
1, 47531, Note_on_c, 0, 63, 57
1, 47587, Note_on_c, 0, 59, 74
1, 47601, Control_c, 0, 64, 0
1, 47623, Note_on_c, 0, 63, 0
1, 47623, Control_c, 0, 64, 127
1, 47649, Note_on_c, 0, 63, 37
1, 47654, Note_on_c, 0, 67, 32
1, 47674, Note_on_c, 0, 67, 0
1, 47700, Note_on_c, 0, 74, 0
1, 47713, Note_on_c, 0, 58, 56
1, 47719, Note_on_c, 0, 59, 0
1, 47721, Control_c, 0, 64, 0
1, 47729, Note_on_c, 0, 63, 0
1, 47745, Control_c, 0, 64, 127
1, 47769, Note_on_c, 0, 61, 30
1, 47772, Note_on_c, 0, 65, 44
1, 47831, Note_on_c, 0, 65, 0
1, 47838, Note_on_c, 0, 57, 37
1, 47840, Note_on_c, 0, 58, 0
1, 47843, Control_c, 0, 64, 0
1, 47852, Note_on_c, 0, 70, 1
1, 47864, Control_c, 0, 64, 127
1, 47873, Note_on_c, 0, 61, 0
1, 47895, Note_on_c, 0, 70, 0
1, 47895, Note_on_c, 0, 61, 34
1, 47898, Note_on_c, 0, 64, 40
1, 47946, Note_on_c, 0, 64, 0
1, 47952, Note_on_c, 0, 45, 33
1, 47957, Note_on_c, 0, 57, 0
1, 47964, Note_on_c, 0, 45, 0
1, 47976, Note_on_c, 0, 61, 0
1, 48013, Control_c, 0, 64, 0
1, 48013, Note_on_c, 0, 51, 32
1, 48015, Note_on_c, 0, 55, 32
1, 48016, Note_on_c, 0, 60, 33
1, 48016, Note_on_c, 0, 44, 25
1, 48017, Note_on_c, 0, 63, 30
1, 48029, Control_c, 0, 64, 127
1, 48042, Note_on_c, 0, 63, 0
1, 48054, Note_on_c, 0, 60, 0
1, 48075, Note_on_c, 0, 72, 60
1, 48083, Note_on_c, 0, 55, 0
1, 48099, Note_on_c, 0, 72, 0
1, 48134, Note_on_c, 0, 72, 55
1, 48136, Note_on_c, 0, 55, 37
1, 48137, Note_on_c, 0, 63, 34
1, 48141, Note_on_c, 0, 66, 31
1, 48147, Note_on_c, 0, 51, 0
1, 48178, Note_on_c, 0, 63, 0
1, 48178, Note_on_c, 0, 72, 0
1, 48189, Note_on_c, 0, 71, 40
1, 48193, Note_on_c, 0, 55, 0
1, 48200, Note_on_c, 0, 66, 0
1, 48210, Note_on_c, 0, 71, 0
1, 48246, Note_on_c, 0, 63, 36
1, 48247, Note_on_c, 0, 66, 47
1, 48251, Note_on_c, 0, 44, 0
1, 48251, Note_on_c, 0, 55, 36
1, 48252, Note_on_c, 0, 63, 0
1, 48254, Note_on_c, 0, 66, 0
1, 48258, Note_on_c, 0, 55, 0
1, 48301, Note_on_c, 0, 75, 83
1, 48303, Note_on_c, 0, 66, 83
1, 48303, Control_c, 0, 64, 0
1, 48303, Note_on_c, 0, 60, 79
1, 48303, Note_on_c, 0, 69, 82
1, 48324, Note_on_c, 0, 69, 0
1, 48324, Control_c, 0, 64, 127
1, 48326, Note_on_c, 0, 75, 0
1, 48327, Note_on_c, 0, 60, 0
1, 48330, Note_on_c, 0, 59, 53
1, 48333, Note_on_c, 0, 66, 0
1, 48345, Note_on_c, 0, 58, 59
1, 48346, Note_on_c, 0, 59, 0
1, 48361, Note_on_c, 0, 58, 0
1, 48365, Control_c, 0, 64, 0
1, 48366, Note_on_c, 0, 57, 55
1, 48370, Note_on_c, 0, 72, 61
1, 48370, Note_on_c, 0, 63, 59
1, 48372, Note_on_c, 0, 66, 59
1, 48372, Note_on_c, 0, 69, 57
1, 48389, Note_on_c, 0, 69, 0
1, 48390, Note_on_c, 0, 72, 0
1, 48396, Control_c, 0, 64, 127
1, 48399, Note_on_c, 0, 66, 0
1, 48402, Note_on_c, 0, 63, 0
1, 48419, Note_on_c, 0, 57, 0
1, 48422, Control_c, 0, 64, 0
1, 48422, Note_on_c, 0, 63, 55
1, 48424, Note_on_c, 0, 66, 34
1, 48425, Note_on_c, 0, 69, 53
1, 48426, Note_on_c, 0, 54, 45
1, 48426, Note_on_c, 0, 60, 50
1, 48428, Control_c, 0, 64, 127
1, 48440, Note_on_c, 0, 69, 0
1, 48444, Note_on_c, 0, 54, 0
1, 48444, Note_on_c, 0, 60, 0
1, 48459, Note_on_c, 0, 66, 0
1, 48466, Note_on_c, 0, 63, 0
1, 48489, Note_on_c, 0, 62, 49
1, 48489, Note_on_c, 0, 43, 31
1, 48490, Note_on_c, 0, 58, 32
1, 48490, Note_on_c, 0, 55, 34
1, 48491, Control_c, 0, 64, 0
1, 48492, Note_on_c, 0, 50, 39
1, 48502, Note_on_c, 0, 68, 20
1, 48518, Control_c, 0, 64, 127
1, 48546, Note_on_c, 0, 55, 0
1, 48578, Note_on_c, 0, 58, 0
1, 48583, Note_on_c, 0, 62, 0
1, 48599, Note_on_c, 0, 68, 0
1, 48608, Note_on_c, 0, 58, 28
1, 48609, Note_on_c, 0, 55, 24
1, 48630, Note_on_c, 0, 43, 0
1, 48634, Note_on_c, 0, 50, 0
1, 48638, Note_on_c, 0, 58, 0
1, 48651, Note_on_c, 0, 55, 0
1, 48669, Note_on_c, 0, 70, 65
1, 48692, Note_on_c, 0, 70, 0
1, 48724, Note_on_c, 0, 70, 50
1, 48727, Note_on_c, 0, 61, 26
1, 48729, Note_on_c, 0, 64, 41
1, 48736, Control_c, 0, 64, 0
1, 48740, Note_on_c, 0, 58, 7
1, 48761, Note_on_c, 0, 48, 1
1, 48765, Control_c, 0, 64, 127
1, 48792, Note_on_c, 0, 58, 0
1, 48794, Note_on_c, 0, 64, 0
1, 48805, Note_on_c, 0, 61, 0
1, 48834, Note_on_c, 0, 70, 0
1, 48840, Note_on_c, 0, 67, 34
1, 48840, Note_on_c, 0, 61, 27
1, 48842, Note_on_c, 0, 58, 27
1, 48844, Note_on_c, 0, 64, 30
1, 48883, Note_on_c, 0, 67, 0
1, 48889, Note_on_c, 0, 58, 0
1, 48891, Note_on_c, 0, 64, 0
1, 48900, Note_on_c, 0, 48, 0
1, 48906, Note_on_c, 0, 61, 0
1, 49144, Note_on_c, 0, 68, 62
1, 49148, Note_on_c, 0, 61, 47
1, 49149, Note_on_c, 0, 57, 44
1, 49150, Note_on_c, 0, 64, 47
1, 49154, Note_on_c, 0, 47, 36
1, 49155, Control_c, 0, 64, 0
1, 49175, Control_c, 0, 64, 127
1, 49189, Note_on_c, 0, 47, 0
1, 49194, Note_on_c, 0, 68, 0
1, 49203, Note_on_c, 0, 57, 0
1, 49204, Note_on_c, 0, 61, 0
1, 49205, Note_on_c, 0, 64, 0
1, 49217, Note_on_c, 0, 57, 40
1, 49217, Note_on_c, 0, 68, 50
1, 49219, Note_on_c, 0, 61, 38
1, 49223, Note_on_c, 0, 64, 42
1, 49297, Note_on_c, 0, 57, 0
1, 49298, Note_on_c, 0, 64, 0
1, 49298, Note_on_c, 0, 61, 0
1, 49308, Note_on_c, 0, 68, 0
1, 49318, Note_on_c, 0, 66, 48
1, 49320, Note_on_c, 0, 57, 32
1, 49321, Note_on_c, 0, 61, 28
1, 49365, Note_on_c, 0, 57, 0
1, 49398, Note_on_c, 0, 66, 0
1, 49413, Note_on_c, 0, 61, 0
1, 49443, Note_on_c, 0, 46, 38
1, 49449, Note_on_c, 0, 53, 29
1, 49450, Control_c, 0, 64, 0
1, 49476, Control_c, 0, 64, 127
1, 49507, Note_on_c, 0, 67, 45
1, 49507, Note_on_c, 0, 63, 51
1, 49508, Note_on_c, 0, 60, 58
1, 49531, Note_on_c, 0, 60, 0
1, 49535, Note_on_c, 0, 67, 0
1, 49538, Note_on_c, 0, 63, 0
1, 49566, Note_on_c, 0, 67, 50
1, 49567, Note_on_c, 0, 63, 49
1, 49567, Note_on_c, 0, 58, 37
1, 49568, Note_on_c, 0, 60, 57
1, 49599, Note_on_c, 0, 46, 0
1, 49614, Note_on_c, 0, 67, 0
1, 49624, Note_on_c, 0, 46, 38
1, 49626, Note_on_c, 0, 65, 58
1, 49627, Note_on_c, 0, 60, 0
1, 49634, Note_on_c, 0, 63, 0
1, 49638, Note_on_c, 0, 58, 0
1, 49639, Note_on_c, 0, 65, 0
1, 49684, Note_on_c, 0, 59, 53
1, 49687, Note_on_c, 0, 63, 53
1, 49690, Note_on_c, 0, 65, 62
1, 49691, Control_c, 0, 64, 0
1, 49692, Note_on_c, 0, 56, 32
1, 49692, Note_on_c, 0, 70, 74
1, 49702, Note_on_c, 0, 53, 0
1, 49719, Control_c, 0, 64, 127
1, 49791, Note_on_c, 0, 56, 0
1, 49806, Note_on_c, 0, 56, 39
1, 49842, Note_on_c, 0, 46, 0
1, 49849, Note_on_c, 0, 70, 0
1, 49857, Note_on_c, 0, 65, 0
1, 49867, Note_on_c, 0, 68, 62
1, 49868, Note_on_c, 0, 46, 37
1, 49874, Note_on_c, 0, 56, 0
1, 49880, Note_on_c, 0, 63, 0
1, 49883, Note_on_c, 0, 68, 0
1, 49892, Note_on_c, 0, 59, 0
1, 49905, Note_on_c, 0, 46, 0
1, 49931, Note_on_c, 0, 65, 50
1, 49931, Note_on_c, 0, 62, 36
1, 49932, Note_on_c, 0, 46, 32
1, 49933, Note_on_c, 0, 58, 35
1, 49935, Note_on_c, 0, 55, 24
1, 49938, Control_c, 0, 64, 0
1, 49965, Control_c, 0, 64, 127
1, 49971, Note_on_c, 0, 55, 0
1, 49979, Note_on_c, 0, 46, 0
1, 49993, Note_on_c, 0, 46, 49
1, 50016, Note_on_c, 0, 58, 0
1, 50016, Note_on_c, 0, 62, 0
1, 50030, Note_on_c, 0, 65, 0
1, 50055, Note_on_c, 0, 58, 29
1, 50058, Note_on_c, 0, 55, 24
1, 50058, Note_on_c, 0, 65, 33
1, 50061, Note_on_c, 0, 62, 26
1, 50088, Note_on_c, 0, 46, 0
1, 50091, Note_on_c, 0, 55, 0
1, 50092, Note_on_c, 0, 62, 0
1, 50100, Note_on_c, 0, 65, 0
1, 50114, Note_on_c, 0, 46, 35
1, 50115, Note_on_c, 0, 63, 37
1, 50136, Note_on_c, 0, 58, 0
1, 50141, Note_on_c, 0, 63, 0
1, 50169, Control_c, 0, 64, 0
1, 50173, Note_on_c, 0, 58, 39
1, 50176, Note_on_c, 0, 65, 46
1, 50178, Note_on_c, 0, 55, 41
1, 50183, Control_c, 0, 64, 127
1, 50186, Note_on_c, 0, 58, 0
1, 50190, Note_on_c, 0, 65, 0
1, 50229, Note_on_c, 0, 55, 0
1, 50233, Note_on_c, 0, 77, 67
1, 50234, Note_on_c, 0, 70, 65
1, 50270, Note_on_c, 0, 70, 0
1, 50277, Note_on_c, 0, 77, 0
1, 50293, Note_on_c, 0, 75, 47
1, 50293, Note_on_c, 0, 67, 36
1, 50293, Note_on_c, 0, 70, 38
1, 50296, Note_on_c, 0, 55, 27
1, 50305, Note_on_c, 0, 67, 0
1, 50307, Note_on_c, 0, 70, 0
1, 50314, Note_on_c, 0, 75, 0
1, 50330, Note_on_c, 0, 46, 0
1, 50348, Note_on_c, 0, 89, 80
1, 50348, Note_on_c, 0, 46, 37
1, 50349, Note_on_c, 0, 82, 75
1, 50361, Note_on_c, 0, 55, 0
1, 50393, Note_on_c, 0, 82, 0
1, 50398, Note_on_c, 0, 89, 0
1, 50408, Note_on_c, 0, 86, 47
1, 50409, Note_on_c, 0, 79, 41
1, 50413, Note_on_c, 0, 82, 29
1, 50420, Note_on_c, 0, 55, 10
1, 50426, Note_on_c, 0, 86, 0
1, 50430, Note_on_c, 0, 82, 0
1, 50436, Note_on_c, 0, 79, 0
1, 50445, Note_on_c, 0, 46, 0
1, 50462, Note_on_c, 0, 46, 32
1, 50475, Note_on_c, 0, 55, 0
1, 50526, Note_on_c, 0, 65, 49
1, 50528, Note_on_c, 0, 62, 39
1, 50529, Note_on_c, 0, 58, 29
1, 50532, Note_on_c, 0, 55, 24
1, 50562, Note_on_c, 0, 46, 0
1, 50584, Note_on_c, 0, 58, 0
1, 50584, Note_on_c, 0, 62, 0
1, 50585, Note_on_c, 0, 46, 35
1, 50589, Note_on_c, 0, 65, 0
1, 50602, Note_on_c, 0, 55, 0
1, 50647, Note_on_c, 0, 77, 72
1, 50648, Note_on_c, 0, 70, 83
1, 50650, Note_on_c, 0, 55, 39
1, 50678, Note_on_c, 0, 46, 0
1, 50697, Note_on_c, 0, 77, 0
1, 50702, Note_on_c, 0, 46, 30
1, 50707, Note_on_c, 0, 70, 0
1, 50715, Note_on_c, 0, 55, 0
1, 50769, Note_on_c, 0, 65, 50
1, 50769, Note_on_c, 0, 55, 25
1, 50770, Note_on_c, 0, 70, 51
1, 50794, Note_on_c, 0, 46, 0
1, 50824, Note_on_c, 0, 70, 0
1, 50826, Note_on_c, 0, 46, 31
1, 50830, Note_on_c, 0, 65, 0
1, 50838, Note_on_c, 0, 55, 0
1, 50886, Note_on_c, 0, 68, 47
1, 50889, Note_on_c, 0, 63, 38
1, 50889, Control_c, 0, 64, 0
1, 50890, Note_on_c, 0, 56, 27
1, 50890, Note_on_c, 0, 60, 27
1, 50907, Control_c, 0, 64, 127
1, 50925, Note_on_c, 0, 46, 0
1, 50947, Note_on_c, 0, 46, 43
1, 50955, Note_on_c, 0, 56, 0
1, 50960, Note_on_c, 0, 68, 0
1, 50961, Note_on_c, 0, 63, 0
1, 50965, Note_on_c, 0, 60, 0
1, 51020, Note_on_c, 0, 55, 37
1, 51037, Note_on_c, 0, 55, 0
1, 51046, Note_on_c, 0, 56, 59
1, 51066, Note_on_c, 0, 56, 0
1, 51074, Note_on_c, 0, 58, 42
1, 51084, Note_on_c, 0, 58, 0
1, 51118, Control_c, 0, 64, 0
1, 51143, Note_on_c, 0, 56, 25
1, 51148, Note_on_c, 0, 60, 54
1, 51163, Note_on_c, 0, 60, 0
1, 51175, Note_on_c, 0, 62, 46
1, 51193, Note_on_c, 0, 62, 0
1, 51199, Note_on_c, 0, 63, 60
1, 51210, Note_on_c, 0, 63, 0
1, 51219, Note_on_c, 0, 65, 71
1, 51225, Note_on_c, 0, 46, 0
1, 51234, Note_on_c, 0, 65, 0
1, 51241, Note_on_c, 0, 67, 66
1, 51258, Note_on_c, 0, 67, 0
1, 51264, Note_on_c, 0, 68, 72
1, 51278, Note_on_c, 0, 68, 0
1, 51287, Note_on_c, 0, 70, 62
1, 51292, Note_on_c, 0, 70, 0
1, 51308, Note_on_c, 0, 72, 53
1, 51321, Note_on_c, 0, 72, 0
1, 51331, Note_on_c, 0, 75, 55
1, 51343, Note_on_c, 0, 75, 0
1, 51356, Note_on_c, 0, 79, 66
1, 51368, Note_on_c, 0, 46, 34
1, 51374, Note_on_c, 0, 79, 0
1, 51380, Note_on_c, 0, 75, 48
1, 51394, Note_on_c, 0, 75, 0
1, 51405, Note_on_c, 0, 77, 50
1, 51421, Note_on_c, 0, 77, 0
1, 51432, Note_on_c, 0, 72, 34
1, 51450, Control_c, 0, 64, 127
1, 51451, Note_on_c, 0, 72, 0
1, 51457, Note_on_c, 0, 68, 35
1, 51492, Note_on_c, 0, 56, 0
1, 51537, Note_on_c, 0, 46, 0
1, 51543, Note_on_c, 0, 68, 0
1, 51554, Note_on_c, 0, 46, 37
1, 51625, Note_on_c, 0, 46, 0
1, 51670, Note_on_c, 0, 46, 37
1, 51733, Note_on_c, 0, 59, 45
1, 51733, Note_on_c, 0, 62, 40
1, 51734, Note_on_c, 0, 64, 32
1, 51735, Note_on_c, 0, 67, 30
1, 51736, Note_on_c, 0, 56, 32
1, 51757, Note_on_c, 0, 59, 0
1, 51759, Note_on_c, 0, 64, 0
1, 51760, Note_on_c, 0, 67, 0
1, 51760, Note_on_c, 0, 62, 0
1, 51768, Note_on_c, 0, 46, 0
1, 51789, Note_on_c, 0, 46, 37
1, 51793, Note_on_c, 0, 56, 0
1, 51806, Note_on_c, 0, 46, 0
1, 51907, Note_on_c, 0, 63, 50
1, 51907, Note_on_c, 0, 39, 42
1, 51908, Note_on_c, 0, 59, 53
1, 51908, Note_on_c, 0, 67, 44
1, 51909, Note_on_c, 0, 55, 38
1, 51910, Note_on_c, 0, 47, 27
1, 51911, Control_c, 0, 64, 0
1, 51930, Note_on_c, 0, 59, 0
1, 51930, Control_c, 0, 64, 127
1, 51940, Note_on_c, 0, 63, 0
1, 51944, Note_on_c, 0, 67, 0
1, 51949, Note_on_c, 0, 55, 0
1, 51966, Note_on_c, 0, 47, 0
1, 51972, Note_on_c, 0, 67, 68
1, 51972, Control_c, 0, 64, 0
1, 51973, Note_on_c, 0, 48, 61
1, 51973, Note_on_c, 0, 55, 66
1, 51974, Note_on_c, 0, 60, 72
1, 51975, Note_on_c, 0, 63, 55
1, 51996, Note_on_c, 0, 67, 0
1, 51999, Control_c, 0, 64, 127
1, 52023, Note_on_c, 0, 55, 0
1, 52032, Note_on_c, 0, 66, 62
1, 52041, Note_on_c, 0, 39, 0
1, 52044, Note_on_c, 0, 60, 0
1, 52047, Note_on_c, 0, 48, 0
1, 52052, Note_on_c, 0, 66, 0
1, 52053, Note_on_c, 0, 63, 0
1, 52089, Note_on_c, 0, 67, 46
1, 52090, Note_on_c, 0, 61, 69
1, 52092, Note_on_c, 0, 55, 64
1, 52092, Note_on_c, 0, 49, 46
1, 52092, Control_c, 0, 64, 0
1, 52093, Note_on_c, 0, 41, 48
1, 52128, Control_c, 0, 64, 127
1, 52153, Note_on_c, 0, 55, 0
1, 52157, Note_on_c, 0, 67, 0
1, 52171, Note_on_c, 0, 61, 0
1, 52172, Note_on_c, 0, 49, 0
1, 52205, Note_on_c, 0, 68, 63
1, 52207, Note_on_c, 0, 50, 51
1, 52208, Control_c, 0, 64, 0
1, 52209, Note_on_c, 0, 56, 35
1, 52209, Note_on_c, 0, 62, 50
1, 52237, Control_c, 0, 64, 127
1, 52254, Note_on_c, 0, 41, 0
1, 52262, Note_on_c, 0, 62, 0
1, 52263, Note_on_c, 0, 56, 0
1, 52270, Note_on_c, 0, 50, 0
1, 52274, Note_on_c, 0, 68, 0
1, 52319, Note_on_c, 0, 70, 51
1, 52322, Note_on_c, 0, 51, 38
1, 52322, Note_on_c, 0, 63, 50
1, 52324, Note_on_c, 0, 58, 32
1, 52326, Note_on_c, 0, 43, 42
1, 52329, Control_c, 0, 64, 0
1, 52362, Control_c, 0, 64, 127
1, 52392, Note_on_c, 0, 51, 0
1, 52395, Note_on_c, 0, 58, 0
1, 52399, Note_on_c, 0, 63, 0
1, 52409, Note_on_c, 0, 70, 0
1, 52437, Note_on_c, 0, 70, 56
1, 52440, Note_on_c, 0, 58, 37
1, 52440, Note_on_c, 0, 52, 39
1, 52443, Control_c, 0, 64, 0
1, 52445, Note_on_c, 0, 64, 36
1, 52468, Control_c, 0, 64, 127
1, 52492, Note_on_c, 0, 70, 0
1, 52494, Note_on_c, 0, 64, 0
1, 52495, Note_on_c, 0, 43, 0
1, 52496, Note_on_c, 0, 69, 55
1, 52507, Note_on_c, 0, 58, 0
1, 52508, Note_on_c, 0, 52, 0
1, 52526, Note_on_c, 0, 69, 0
1, 52555, Note_on_c, 0, 44, 32
1, 52556, Note_on_c, 0, 70, 56
1, 52557, Control_c, 0, 64, 0
1, 52558, Note_on_c, 0, 53, 34
1, 52559, Note_on_c, 0, 63, 46
1, 52560, Note_on_c, 0, 60, 42
1, 52561, Note_on_c, 0, 67, 35
1, 52589, Control_c, 0, 64, 127
1, 52612, Note_on_c, 0, 67, 0
1, 52615, Note_on_c, 0, 63, 0
1, 52617, Note_on_c, 0, 53, 0
1, 52624, Note_on_c, 0, 60, 0
1, 52629, Note_on_c, 0, 70, 0
1, 52673, Note_on_c, 0, 72, 48
1, 52674, Note_on_c, 0, 60, 43
1, 52676, Note_on_c, 0, 67, 33
1, 52678, Note_on_c, 0, 54, 28
1, 52680, Control_c, 0, 64, 0
1, 52709, Control_c, 0, 64, 127
1, 52730, Note_on_c, 0, 44, 0
1, 52735, Note_on_c, 0, 60, 0
1, 52737, Note_on_c, 0, 54, 0
1, 52743, Note_on_c, 0, 72, 0
1, 52747, Note_on_c, 0, 67, 0
1, 52794, Note_on_c, 0, 73, 36
1, 52795, Note_on_c, 0, 68, 36
1, 52797, Note_on_c, 0, 65, 31
1, 52798, Note_on_c, 0, 56, 29
1, 52799, Note_on_c, 0, 46, 35
1, 52799, Control_c, 0, 64, 0
1, 52831, Control_c, 0, 64, 127
1, 52833, Note_on_c, 0, 46, 0
1, 52856, Note_on_c, 0, 56, 0
1, 52867, Note_on_c, 0, 73, 0
1, 52869, Note_on_c, 0, 65, 0
1, 52869, Note_on_c, 0, 68, 0
1, 52910, Note_on_c, 0, 73, 69
1, 52912, Note_on_c, 0, 64, 50
1, 52917, Note_on_c, 0, 68, 35
1, 52989, Note_on_c, 0, 68, 0
1, 52990, Note_on_c, 0, 64, 0
1, 53015, Note_on_c, 0, 73, 0
1, 53089, Note_on_c, 0, 73, 78
1, 53090, Note_on_c, 0, 65, 74
1, 53091, Note_on_c, 0, 61, 55
1, 53092, Note_on_c, 0, 56, 47
1, 53096, Control_c, 0, 64, 0
1, 53115, Control_c, 0, 64, 127
1, 53130, Note_on_c, 0, 73, 0
1, 53144, Note_on_c, 0, 61, 0
1, 53151, Note_on_c, 0, 65, 0
1, 53153, Note_on_c, 0, 73, 74
1, 53154, Note_on_c, 0, 56, 0
1, 53154, Note_on_c, 0, 61, 51
1, 53155, Note_on_c, 0, 65, 24
1, 53157, Note_on_c, 0, 53, 40
1, 53180, Note_on_c, 0, 73, 0
1, 53196, Note_on_c, 0, 65, 0
1, 53198, Note_on_c, 0, 61, 0
1, 53203, Note_on_c, 0, 53, 0
1, 53214, Note_on_c, 0, 72, 58
1, 53221, Note_on_c, 0, 53, 22
1, 53228, Note_on_c, 0, 72, 0
1, 53264, Note_on_c, 0, 53, 0
1, 53274, Note_on_c, 0, 73, 60
1, 53277, Control_c, 0, 64, 0
1, 53278, Note_on_c, 0, 61, 33
1, 53278, Note_on_c, 0, 65, 57
1, 53279, Note_on_c, 0, 56, 38
1, 53314, Note_on_c, 0, 56, 0
1, 53333, Control_c, 0, 64, 127
1, 53342, Note_on_c, 0, 53, 34
1, 53348, Note_on_c, 0, 53, 0
1, 53386, Control_c, 0, 64, 0
1, 53400, Note_on_c, 0, 40, 44
1, 53451, Note_on_c, 0, 40, 0
1, 53455, Control_c, 0, 64, 127
1, 53459, Note_on_c, 0, 28, 35
1, 53465, Note_on_c, 0, 65, 0
1, 53467, Note_on_c, 0, 73, 0
1, 53473, Note_on_c, 0, 28, 0
1, 53478, Note_on_c, 0, 61, 0
1, 53529, Control_c, 0, 64, 0
1, 53531, Note_on_c, 0, 27, 55
1, 53533, Note_on_c, 0, 39, 37
1, 53545, Control_c, 0, 64, 127
1, 53587, Note_on_c, 0, 27, 0
1, 53596, Note_on_c, 0, 39, 0
1, 53657, Note_on_c, 0, 63, 45
1, 53659, Note_on_c, 0, 45, 39
1, 53659, Note_on_c, 0, 61, 46
1, 53660, Note_on_c, 0, 59, 54
1, 53660, Note_on_c, 0, 55, 43
1, 53667, Control_c, 0, 64, 0
1, 53694, Control_c, 0, 64, 127
1, 53720, Note_on_c, 0, 59, 0
1, 53738, Note_on_c, 0, 55, 0
1, 53741, Note_on_c, 0, 61, 0
1, 53759, Note_on_c, 0, 63, 0
1, 53773, Note_on_c, 0, 45, 0
1, 53775, Control_c, 0, 64, 0
1, 53778, Note_on_c, 0, 58, 54
1, 53778, Note_on_c, 0, 44, 52
1, 53780, Note_on_c, 0, 60, 43
1, 53780, Note_on_c, 0, 55, 49
1, 53791, Note_on_c, 0, 55, 0
1, 53793, Control_c, 0, 64, 127
1, 53794, Note_on_c, 0, 60, 0
1, 53799, Note_on_c, 0, 58, 0
1, 53850, Note_on_c, 0, 72, 95
1, 53884, Note_on_c, 0, 72, 0
1, 53907, Note_on_c, 0, 72, 80
1, 53910, Note_on_c, 0, 67, 71
1, 53910, Note_on_c, 0, 60, 80
1, 53910, Note_on_c, 0, 55, 66
1, 53959, Note_on_c, 0, 60, 0
1, 53961, Note_on_c, 0, 72, 0
1, 53965, Note_on_c, 0, 67, 0
1, 53970, Note_on_c, 0, 71, 70
1, 53972, Note_on_c, 0, 55, 0
1, 54014, Note_on_c, 0, 71, 0
1, 54026, Note_on_c, 0, 72, 76
1, 54027, Note_on_c, 0, 60, 77
1, 54028, Note_on_c, 0, 67, 65
1, 54028, Note_on_c, 0, 55, 64
1, 54038, Note_on_c, 0, 60, 0
1, 54044, Note_on_c, 0, 67, 0
1, 54047, Note_on_c, 0, 72, 0
1, 54091, Note_on_c, 0, 44, 0
1, 54146, Note_on_c, 0, 44, 54
1, 54155, Note_on_c, 0, 55, 0
1, 54227, Note_on_c, 0, 44, 0
1, 54280, Note_on_c, 0, 74, 66
1, 54285, Note_on_c, 0, 65, 60
1, 54285, Note_on_c, 0, 60, 54
1, 54286, Note_on_c, 0, 50, 37
1, 54297, Control_c, 0, 64, 0
1, 54329, Control_c, 0, 64, 127
1, 54351, Note_on_c, 0, 56, 44
1, 54352, Note_on_c, 0, 60, 0
1, 54357, Note_on_c, 0, 74, 0
1, 54358, Note_on_c, 0, 65, 0
1, 54421, Note_on_c, 0, 60, 49
1, 54464, Note_on_c, 0, 56, 0
1, 54471, Note_on_c, 0, 50, 0
1, 54477, Note_on_c, 0, 60, 0
1, 54492, Note_on_c, 0, 65, 46
1, 54522, Note_on_c, 0, 65, 0
1, 54575, Note_on_c, 0, 68, 35
1, 54579, Note_on_c, 0, 63, 37
1, 54579, Note_on_c, 0, 43, 33
1, 54580, Note_on_c, 0, 59, 32
1, 54581, Note_on_c, 0, 53, 29
1, 54586, Control_c, 0, 64, 0
1, 54616, Control_c, 0, 64, 127
1, 54649, Note_on_c, 0, 68, 0
1, 54650, Note_on_c, 0, 59, 0
1, 54660, Note_on_c, 0, 70, 48
1, 54685, Note_on_c, 0, 53, 0
1, 54694, Note_on_c, 0, 70, 0
1, 54711, Note_on_c, 0, 63, 0
1, 54732, Note_on_c, 0, 43, 0
1, 54762, Note_on_c, 0, 67, 31
1, 54765, Note_on_c, 0, 63, 34
1, 54765, Note_on_c, 0, 59, 26
1, 54767, Note_on_c, 0, 43, 31
1, 54770, Note_on_c, 0, 53, 15
1, 54775, Control_c, 0, 64, 0
1, 54807, Control_c, 0, 64, 127
1, 54849, Note_on_c, 0, 59, 0
1, 54864, Note_on_c, 0, 63, 0
1, 54866, Note_on_c, 0, 67, 0
1, 54894, Note_on_c, 0, 43, 0
1, 54917, Note_on_c, 0, 53, 0
1, 54922, Note_on_c, 0, 67, 35
1, 54968, Note_on_c, 0, 67, 0
1, 54988, Note_on_c, 0, 74, 76
1, 54993, Note_on_c, 0, 67, 49
1, 54998, Note_on_c, 0, 62, 45
1, 55002, Control_c, 0, 64, 0
1, 55009, Note_on_c, 0, 63, 27
1, 55023, Control_c, 0, 64, 127
1, 55056, Note_on_c, 0, 62, 0
1, 55059, Note_on_c, 0, 74, 0
1, 55080, Note_on_c, 0, 48, 38
1, 55081, Note_on_c, 0, 74, 47
1, 55119, Note_on_c, 0, 74, 0
1, 55134, Note_on_c, 0, 48, 0
1, 55142, Note_on_c, 0, 63, 0
1, 55150, Note_on_c, 0, 67, 0
1, 55158, Note_on_c, 0, 74, 64
1, 55168, Note_on_c, 0, 67, 55
1, 55181, Note_on_c, 0, 63, 52
1, 55214, Note_on_c, 0, 62, 37
1, 55296, Note_on_c, 0, 74, 0
1, 55314, Note_on_c, 0, 74, 36
1, 55380, Note_on_c, 0, 74, 0
1, 55383, Note_on_c, 0, 72, 53
1, 55444, Note_on_c, 0, 62, 0
1, 55446, Note_on_c, 0, 63, 0
1, 55449, Note_on_c, 0, 67, 0
1, 55467, Note_on_c, 0, 72, 0
1, 55470, Note_on_c, 0, 59, 46
1, 55533, Note_on_c, 0, 74, 55
1, 55539, Note_on_c, 0, 59, 0
1, 55540, Note_on_c, 0, 67, 65
1, 55540, Note_on_c, 0, 58, 60
1, 55544, Note_on_c, 0, 63, 46
1, 55550, Control_c, 0, 64, 0
1, 55578, Control_c, 0, 64, 127
1, 55608, Note_on_c, 0, 63, 0
1, 55623, Note_on_c, 0, 63, 42
1, 55645, Note_on_c, 0, 74, 0
1, 55662, Note_on_c, 0, 67, 0
1, 55670, Note_on_c, 0, 63, 0
1, 55694, Note_on_c, 0, 62, 36
1, 55695, Note_on_c, 0, 75, 64
1, 55696, Note_on_c, 0, 67, 51
1, 55697, Note_on_c, 0, 63, 45
1, 55718, Note_on_c, 0, 58, 0
1, 55728, Note_on_c, 0, 62, 0
1, 55806, Note_on_c, 0, 46, 47
1, 55846, Note_on_c, 0, 46, 0
1, 55848, Note_on_c, 0, 67, 0
1, 55854, Note_on_c, 0, 63, 0
1, 55884, Note_on_c, 0, 75, 0
1, 55952, Note_on_c, 0, 75, 51
1, 55957, Note_on_c, 0, 45, 39
1, 55959, Note_on_c, 0, 63, 36
1, 55963, Control_c, 0, 64, 0
1, 55993, Control_c, 0, 64, 127
1, 56001, Note_on_c, 0, 45, 0
1, 56012, Note_on_c, 0, 57, 40
1, 56047, Note_on_c, 0, 57, 0
1, 56063, Note_on_c, 0, 60, 54
1, 56074, Note_on_c, 0, 63, 0
1, 56115, Note_on_c, 0, 60, 0
1, 56118, Note_on_c, 0, 63, 60
1, 56134, Note_on_c, 0, 63, 0
1, 56195, Note_on_c, 0, 75, 0
1, 56203, Note_on_c, 0, 75, 52
1, 56206, Note_on_c, 0, 44, 48
1, 56217, Control_c, 0, 64, 0
1, 56243, Control_c, 0, 64, 127
1, 56271, Note_on_c, 0, 54, 39
1, 56273, Note_on_c, 0, 44, 0
1, 56284, Note_on_c, 0, 54, 0
1, 56345, Note_on_c, 0, 60, 37
1, 56751, Note_on_c, 0, 74, 50
1, 56769, Note_on_c, 0, 74, 0
1, 56789, Note_on_c, 0, 75, 0
1, 56817, Note_on_c, 0, 60, 0
1, 56817, Note_on_c, 0, 75, 64
1, 56820, Note_on_c, 0, 67, 52
1, 56829, Note_on_c, 0, 55, 24
1, 56832, Control_c, 0, 64, 0
1, 56861, Control_c, 0, 64, 127
1, 56886, Note_on_c, 0, 63, 31
1, 56930, Note_on_c, 0, 75, 0
1, 56970, Note_on_c, 0, 75, 55
1, 57021, Note_on_c, 0, 75, 0
1, 57040, Note_on_c, 0, 55, 0
1, 57040, Note_on_c, 0, 74, 50
1, 57056, Note_on_c, 0, 63, 0
1, 57068, Note_on_c, 0, 67, 0
1, 57072, Note_on_c, 0, 74, 0
1, 57180, Note_on_c, 0, 66, 42
1, 57180, Note_on_c, 0, 63, 39
1, 57180, Note_on_c, 0, 75, 50
1, 57183, Note_on_c, 0, 54, 40
1, 57183, Note_on_c, 0, 60, 40
1, 57186, Note_on_c, 0, 69, 46
1, 57192, Control_c, 0, 64, 0
1, 57222, Control_c, 0, 64, 127
1, 57252, Note_on_c, 0, 75, 0
1, 57273, Note_on_c, 0, 75, 57
1, 57287, Note_on_c, 0, 60, 0
1, 57322, Note_on_c, 0, 75, 0
1, 57333, Note_on_c, 0, 63, 0
1, 57359, Note_on_c, 0, 69, 0
1, 57363, Note_on_c, 0, 63, 23
1, 57366, Note_on_c, 0, 75, 51
1, 57367, Note_on_c, 0, 60, 34
1, 57376, Note_on_c, 0, 66, 0
1, 57395, Note_on_c, 0, 63, 0
1, 57399, Note_on_c, 0, 75, 0
1, 57474, Note_on_c, 0, 77, 41
1, 57499, Note_on_c, 0, 60, 0
1, 57519, Note_on_c, 0, 54, 0
1, 57545, Note_on_c, 0, 77, 0
1, 57681, Note_on_c, 0, 79, 47
1, 57685, Note_on_c, 0, 75, 46
1, 57685, Note_on_c, 0, 41, 41
1, 57689, Note_on_c, 0, 72, 36
1, 57690, Note_on_c, 0, 68, 30
1, 57699, Control_c, 0, 64, 0
1, 57730, Control_c, 0, 64, 127
1, 57746, Note_on_c, 0, 48, 49
1, 57761, Note_on_c, 0, 41, 0
1, 57769, Note_on_c, 0, 48, 0
1, 57783, Note_on_c, 0, 55, 52
1, 57813, Note_on_c, 0, 79, 0
1, 57815, Note_on_c, 0, 72, 0
1, 57816, Note_on_c, 0, 56, 43
1, 57822, Note_on_c, 0, 75, 0
1, 57823, Note_on_c, 0, 55, 0
1, 57824, Note_on_c, 0, 68, 0
1, 57871, Note_on_c, 0, 60, 22
1, 57897, Note_on_c, 0, 60, 0
1, 57903, Note_on_c, 0, 63, 54
1, 57926, Note_on_c, 0, 63, 0
1, 57934, Note_on_c, 0, 65, 60
1, 57944, Note_on_c, 0, 63, 33
1, 57957, Note_on_c, 0, 65, 0
1, 57961, Note_on_c, 0, 67, 69
1, 57989, Note_on_c, 0, 68, 84
1, 57994, Note_on_c, 0, 67, 0
1, 58011, Note_on_c, 0, 68, 0
1, 58017, Note_on_c, 0, 70, 73
1, 58039, Note_on_c, 0, 70, 0
1, 58050, Note_on_c, 0, 72, 74
1, 58081, Note_on_c, 0, 74, 71
1, 58090, Note_on_c, 0, 72, 0
1, 58111, Note_on_c, 0, 74, 0
1, 58118, Note_on_c, 0, 75, 69
1, 58131, Note_on_c, 0, 63, 0
1, 58143, Note_on_c, 0, 75, 0
1, 58153, Note_on_c, 0, 77, 58
1, 58171, Note_on_c, 0, 56, 0
1, 58184, Note_on_c, 0, 77, 0
1, 58193, Note_on_c, 0, 79, 46
1, 58225, Note_on_c, 0, 79, 0
1, 58235, Note_on_c, 0, 80, 56
1, 58277, Note_on_c, 0, 80, 0
1, 58288, Note_on_c, 0, 66, 33
1, 58289, Note_on_c, 0, 62, 29
1, 58290, Note_on_c, 0, 82, 57
1, 58290, Note_on_c, 0, 56, 31
1, 58296, Control_c, 0, 64, 0
1, 58323, Note_on_c, 0, 82, 0
1, 58329, Control_c, 0, 64, 127
1, 58334, Note_on_c, 0, 84, 54
1, 58336, Note_on_c, 0, 72, 41
1, 58351, Note_on_c, 0, 84, 0
1, 58358, Note_on_c, 0, 72, 0
1, 58387, Note_on_c, 0, 85, 53
1, 58389, Note_on_c, 0, 73, 32
1, 58415, Note_on_c, 0, 73, 0
1, 58415, Note_on_c, 0, 85, 0
1, 58416, Note_on_c, 0, 66, 0
1, 58422, Note_on_c, 0, 62, 0
1, 58434, Note_on_c, 0, 56, 0
1, 58438, Note_on_c, 0, 74, 39
1, 58439, Note_on_c, 0, 86, 44
1, 58450, Note_on_c, 0, 74, 0
1, 58453, Note_on_c, 0, 86, 0
1, 58503, Note_on_c, 0, 34, 39
1, 58504, Note_on_c, 0, 46, 30
1, 58504, Note_on_c, 0, 89, 52
1, 58505, Note_on_c, 0, 77, 36
1, 58514, Note_on_c, 0, 46, 0
1, 58523, Note_on_c, 0, 34, 0
1, 58678, Note_on_c, 0, 89, 0
1, 58684, Note_on_c, 0, 22, 42
1, 58687, Note_on_c, 0, 34, 25
1, 58703, Note_on_c, 0, 77, 0
1, 58981, Note_on_c, 0, 62, 39
1, 59165, Note_on_c, 0, 22, 0
1, 59175, Note_on_c, 0, 34, 0
1, 59238, Note_on_c, 0, 62, 0
1, 59342, Note_on_c, 0, 63, 35
1, 59344, Control_c, 0, 64, 0
1, 59347, Note_on_c, 0, 59, 46
1, 59348, Note_on_c, 0, 54, 25
1, 59353, Note_on_c, 0, 49, 34
1, 59360, Control_c, 0, 64, 127
1, 59367, Note_on_c, 0, 54, 0
1, 59372, Note_on_c, 0, 59, 0
1, 59377, Note_on_c, 0, 63, 0
1, 59429, Note_on_c, 0, 75, 60
1, 59450, Note_on_c, 0, 49, 0
1, 59499, Note_on_c, 0, 66, 45
1, 59501, Note_on_c, 0, 71, 36
1, 59503, Note_on_c, 0, 61, 34
1, 59550, Note_on_c, 0, 61, 0
1, 59580, Note_on_c, 0, 61, 37
1, 59609, Note_on_c, 0, 61, 0
1, 59616, Note_on_c, 0, 71, 0
1, 59655, Note_on_c, 0, 66, 0
1, 59661, Note_on_c, 0, 61, 34
1, 59700, Note_on_c, 0, 61, 0
1, 59737, Note_on_c, 0, 66, 38
1, 59738, Note_on_c, 0, 61, 35
1, 59738, Note_on_c, 0, 63, 31
1, 59781, Note_on_c, 0, 61, 0
1, 59816, Note_on_c, 0, 61, 32
1, 59826, Note_on_c, 0, 66, 0
1, 59830, Note_on_c, 0, 63, 0
1, 59853, Note_on_c, 0, 61, 0
1, 59891, Note_on_c, 0, 61, 35
1, 59894, Note_on_c, 0, 71, 31
1, 59894, Note_on_c, 0, 66, 23
1, 59923, Note_on_c, 0, 75, 0
1, 59924, Note_on_c, 0, 61, 0
1, 59933, Note_on_c, 0, 71, 0
1, 59973, Note_on_c, 0, 78, 72
1, 59973, Note_on_c, 0, 61, 42
1, 59979, Note_on_c, 0, 71, 24
1, 59998, Note_on_c, 0, 61, 0
1, 60044, Note_on_c, 0, 61, 33
1, 60079, Note_on_c, 0, 61, 0
1, 60111, Note_on_c, 0, 61, 44
1, 60112, Note_on_c, 0, 75, 57
1, 60118, Note_on_c, 0, 78, 0
1, 60147, Note_on_c, 0, 61, 0
1, 60180, Note_on_c, 0, 61, 40
1, 60192, Note_on_c, 0, 71, 0
1, 60209, Note_on_c, 0, 66, 0
1, 60215, Note_on_c, 0, 61, 0
1, 60251, Note_on_c, 0, 71, 36
1, 60253, Note_on_c, 0, 61, 31
1, 60253, Note_on_c, 0, 66, 23
1, 60296, Note_on_c, 0, 61, 0
1, 60318, Note_on_c, 0, 71, 0
1, 60327, Note_on_c, 0, 61, 35
1, 60332, Note_on_c, 0, 75, 0
1, 60343, Note_on_c, 0, 66, 0
1, 60364, Note_on_c, 0, 61, 0
1, 60414, Note_on_c, 0, 63, 25
1, 60415, Note_on_c, 0, 66, 38
1, 60416, Note_on_c, 0, 61, 28
1, 60453, Note_on_c, 0, 61, 0
1, 60548, Note_on_c, 0, 61, 25
1, 60627, Note_on_c, 0, 61, 0
1, 60676, Note_on_c, 0, 63, 0
1, 60680, Note_on_c, 0, 66, 0
1, 60799, Note_on_c, 0, 62, 41
1, 60799, Note_on_c, 0, 67, 33
1, 60800, Note_on_c, 0, 60, 44
1, 60803, Note_on_c, 0, 39, 31
1, 60812, Control_c, 0, 64, 0
1, 60848, Control_c, 0, 64, 127
1, 60884, Note_on_c, 0, 39, 0
1, 60887, Note_on_c, 0, 46, 34
1, 60888, Note_on_c, 0, 60, 0
1, 60888, Note_on_c, 0, 67, 0
1, 60892, Note_on_c, 0, 62, 0
1, 61053, Note_on_c, 0, 57, 46
1, 61154, Note_on_c, 0, 46, 0
1, 61173, Note_on_c, 0, 46, 30
1, 61197, Note_on_c, 0, 57, 0
1, 61256, Note_on_c, 0, 46, 0
1, 61314, Note_on_c, 0, 77, 58
1, 61318, Note_on_c, 0, 65, 37
1, 61319, Note_on_c, 0, 39, 33
1, 61383, Note_on_c, 0, 77, 0
1, 61387, Note_on_c, 0, 46, 36
1, 61388, Note_on_c, 0, 39, 0
1, 61389, Note_on_c, 0, 65, 0
1, 61449, Note_on_c, 0, 46, 0
1, 61449, Note_on_c, 0, 77, 63
1, 61451, Note_on_c, 0, 57, 38
1, 61452, Note_on_c, 0, 67, 35
1, 61498, Note_on_c, 0, 67, 0
1, 61510, Note_on_c, 0, 77, 0
1, 61515, Note_on_c, 0, 75, 55
1, 61524, Note_on_c, 0, 58, 35
1, 61530, Note_on_c, 0, 57, 0
1, 61571, Note_on_c, 0, 75, 0
1, 61586, Note_on_c, 0, 70, 48
1, 61587, Note_on_c, 0, 77, 51
1, 61588, Note_on_c, 0, 62, 31
1, 61626, Note_on_c, 0, 62, 0
1, 61665, Note_on_c, 0, 77, 0
1, 61665, Note_on_c, 0, 67, 33
1, 61668, Note_on_c, 0, 70, 0
1, 61731, Note_on_c, 0, 67, 0
1, 61812, Note_on_c, 0, 62, 31
1, 61831, Note_on_c, 0, 62, 0
1, 61843, Note_on_c, 0, 58, 0
1, 61920, Note_on_c, 0, 81, 46
1, 61925, Note_on_c, 0, 69, 35
1, 61925, Note_on_c, 0, 67, 36
1, 61927, Note_on_c, 0, 39, 34
1, 61935, Control_c, 0, 64, 0
1, 61962, Control_c, 0, 64, 127
1, 62006, Note_on_c, 0, 39, 0
1, 62007, Note_on_c, 0, 46, 28
1, 62020, Note_on_c, 0, 67, 0
1, 62021, Note_on_c, 0, 69, 0
1, 62078, Note_on_c, 0, 81, 0
1, 62080, Note_on_c, 0, 46, 0
1, 62082, Note_on_c, 0, 77, 35
1, 62085, Note_on_c, 0, 74, 25
1, 62086, Note_on_c, 0, 69, 36
1, 62086, Note_on_c, 0, 67, 35
1, 62091, Note_on_c, 0, 57, 24
1, 62170, Note_on_c, 0, 58, 28
1, 62175, Note_on_c, 0, 57, 0
1, 62190, Note_on_c, 0, 67, 0
1, 62193, Note_on_c, 0, 69, 0
1, 62204, Note_on_c, 0, 74, 0
1, 62224, Note_on_c, 0, 77, 0
1, 62259, Note_on_c, 0, 62, 15
1, 62344, Note_on_c, 0, 93, 38
1, 62351, Note_on_c, 0, 81, 28
1, 62352, Note_on_c, 0, 79, 27
1, 62355, Note_on_c, 0, 69, 16
1, 62384, Note_on_c, 0, 69, 0
1, 62391, Note_on_c, 0, 62, 0
1, 62393, Note_on_c, 0, 79, 0
1, 62394, Note_on_c, 0, 81, 0
1, 62399, Note_on_c, 0, 93, 0
1, 62399, Note_on_c, 0, 58, 0
1, 62516, Note_on_c, 0, 27, 31
1, 62543, Note_on_c, 0, 27, 0
1, 62801, Control_c, 0, 64, 0
1, 62801, End_track
0, 0, End_of_file
