0, 0, Header, 1, 6, 120
1, 0, Start_track
1, 0, Title_t, "untitled"
1, 0, Text_t, "Doug McK\012"
1, 0, Time_signature, 4, 2, 24, 8
1, 0, Key_signature, 0, "major"
1, 0, Tempo, 375000
1, 0, End_track
2, 0, Start_track
2, 0, Title_t, ""
2, 0, Program_c, 0, 0
2, 0, Control_c, 0, 7, 93
2, 6, Note_on_c, 0, 89, 82
2, 7, Note_on_c, 0, 77, 79
2, 8, Note_on_c, 0, 84, 71
2, 9, Note_on_c, 0, 60, 64
2, 9, Note_on_c, 0, 64, 71
2, 11, Note_on_c, 0, 57, 62
2, 15, Note_on_c, 0, 84, 0
2, 17, Note_on_c, 0, 53, 26
2, 18, Note_on_c, 0, 64, 0
2, 18, Note_on_c, 0, 77, 0
2, 23, Note_on_c, 0, 89, 0
2, 25, Note_on_c, 0, 53, 0
2, 27, Note_on_c, 0, 60, 0
2, 31, Note_on_c, 0, 57, 0
2, 212, Note_on_c, 0, 60, 67
2, 213, Note_on_c, 0, 79, 77
2, 214, Note_on_c, 0, 84, 80
2, 214, Note_on_c, 0, 72, 82
2, 215, Note_on_c, 0, 64, 70
2, 217, Note_on_c, 0, 57, 60
2, 217, Note_on_c, 0, 53, 53
2, 232, Note_on_c, 0, 64, 0
2, 232, Note_on_c, 0, 84, 0
2, 234, Note_on_c, 0, 72, 0
2, 236, Note_on_c, 0, 79, 0
2, 244, Note_on_c, 0, 57, 0
2, 244, Note_on_c, 0, 53, 0
2, 245, Note_on_c, 0, 60, 0
2, 269, Note_on_c, 0, 71, 54
2, 271, Note_on_c, 0, 83, 45
2, 273, Note_on_c, 0, 60, 34
2, 275, Note_on_c, 0, 64, 29
2, 286, Note_on_c, 0, 64, 0
2, 290, Note_on_c, 0, 71, 0
2, 295, Note_on_c, 0, 60, 0
2, 300, Note_on_c, 0, 83, 0
2, 338, Note_on_c, 0, 72, 55
2, 339, Note_on_c, 0, 84, 48
2, 339, Note_on_c, 0, 64, 51
2, 339, Note_on_c, 0, 60, 51
2, 340, Note_on_c, 0, 79, 42
2, 340, Note_on_c, 0, 57, 44
2, 345, Note_on_c, 0, 72, 0
2, 347, Note_on_c, 0, 64, 0
2, 348, Note_on_c, 0, 79, 0
2, 352, Note_on_c, 0, 60, 0
2, 352, Note_on_c, 0, 57, 0
2, 356, Note_on_c, 0, 84, 0
2, 438, Note_on_c, 0, 89, 71
2, 441, Note_on_c, 0, 77, 44
2, 441, Note_on_c, 0, 83, 51
2, 443, Note_on_c, 0, 86, 42
2, 444, Note_on_c, 0, 56, 42
2, 445, Note_on_c, 0, 62, 54
2, 445, Note_on_c, 0, 59, 54
2, 446, Note_on_c, 0, 89, 0
2, 449, Note_on_c, 0, 83, 0
2, 451, Note_on_c, 0, 77, 0
2, 452, Note_on_c, 0, 86, 0
2, 452, Note_on_c, 0, 62, 0
2, 454, Note_on_c, 0, 59, 0
2, 462, Note_on_c, 0, 56, 0
2, 546, Note_on_c, 0, 51, 40
2, 555, Note_on_c, 0, 51, 0
2, 558, Note_on_c, 0, 65, 66
2, 560, Note_on_c, 0, 59, 62
2, 561, Note_on_c, 0, 56, 56
2, 562, Note_on_c, 0, 62, 41
2, 564, Note_on_c, 0, 52, 45
2, 564, Note_on_c, 0, 53, 32
2, 573, Note_on_c, 0, 52, 0
2, 600, Note_on_c, 0, 53, 0
2, 606, Note_on_c, 0, 52, 53
2, 615, Note_on_c, 0, 65, 0
2, 642, Note_on_c, 0, 59, 0
2, 644, Note_on_c, 0, 62, 0
2, 680, Note_on_c, 0, 56, 0
2, 712, Note_on_c, 0, 52, 0
2, 719, Note_on_c, 0, 56, 39
2, 723, Note_on_c, 0, 65, 45
2, 725, Note_on_c, 0, 53, 36
2, 726, Note_on_c, 0, 59, 41
2, 726, Note_on_c, 0, 62, 34
2, 788, Note_on_c, 0, 62, 0
2, 788, Note_on_c, 0, 59, 0
2, 799, Note_on_c, 0, 56, 0
2, 821, Note_on_c, 0, 65, 0
2, 828, Note_on_c, 0, 53, 0
2, 832, Note_on_c, 0, 56, 31
2, 835, Note_on_c, 0, 62, 29
2, 838, Note_on_c, 0, 59, 34
2, 841, Note_on_c, 0, 50, 32
2, 873, Note_on_c, 0, 59, 0
2, 878, Note_on_c, 0, 56, 0
2, 883, Note_on_c, 0, 62, 0
2, 943, Note_on_c, 0, 50, 0
2, 956, Note_on_c, 0, 58, 50
2, 957, Note_on_c, 0, 62, 45
2, 957, Note_on_c, 0, 65, 57
2, 960, Note_on_c, 0, 55, 45
2, 962, Note_on_c, 0, 53, 44
2, 971, Note_on_c, 0, 55, 0
2, 977, Note_on_c, 0, 53, 0
2, 980, Note_on_c, 0, 62, 0
2, 984, Note_on_c, 0, 65, 0
2, 995, Note_on_c, 0, 58, 0
2, 1170, Note_on_c, 0, 72, 75
2, 1171, Note_on_c, 0, 62, 73
2, 1171, Note_on_c, 0, 65, 74
2, 1172, Note_on_c, 0, 69, 52
2, 1172, Note_on_c, 0, 57, 63
2, 1194, Note_on_c, 0, 69, 0
2, 1200, Note_on_c, 0, 65, 0
2, 1207, Note_on_c, 0, 62, 0
2, 1211, Note_on_c, 0, 72, 0
2, 1227, Note_on_c, 0, 57, 0
2, 1242, Note_on_c, 0, 71, 51
2, 1242, Note_on_c, 0, 56, 50
2, 1243, Note_on_c, 0, 65, 45
2, 1243, Note_on_c, 0, 62, 45
2, 1263, Control_c, 0, 64, 127
2, 1274, Note_on_c, 0, 65, 0
2, 1281, Note_on_c, 0, 62, 0
2, 1288, Control_c, 0, 64, 0
2, 1290, Note_on_c, 0, 71, 0
2, 1308, Note_on_c, 0, 56, 0
2, 1309, Note_on_c, 0, 57, 60
2, 1309, Note_on_c, 0, 65, 64
2, 1310, Note_on_c, 0, 62, 38
2, 1311, Note_on_c, 0, 72, 60
2, 1317, Note_on_c, 0, 65, 0
2, 1318, Note_on_c, 0, 62, 0
2, 1322, Note_on_c, 0, 71, 20
2, 1328, Note_on_c, 0, 57, 0
2, 1331, Note_on_c, 0, 72, 0
2, 1332, Note_on_c, 0, 71, 0
2, 1338, Control_c, 0, 64, 127
2, 1391, Control_c, 0, 64, 0
2, 1393, Note_on_c, 0, 68, 63
2, 1393, Note_on_c, 0, 76, 62
2, 1394, Note_on_c, 0, 64, 71
2, 1396, Note_on_c, 0, 72, 60
2, 1396, Note_on_c, 0, 60, 66
2, 1399, Note_on_c, 0, 74, 38
2, 1402, Note_on_c, 0, 64, 0
2, 1404, Note_on_c, 0, 72, 0
2, 1405, Note_on_c, 0, 60, 0
2, 1406, Note_on_c, 0, 68, 0
2, 1408, Note_on_c, 0, 74, 0
2, 1411, Note_on_c, 0, 76, 0
2, 1629, Note_on_c, 0, 24, 51
2, 1637, Note_on_c, 0, 24, 0
2, 1686, Note_on_c, 0, 68, 68
2, 1686, Note_on_c, 0, 70, 67
2, 1686, Note_on_c, 0, 64, 76
2, 1688, Note_on_c, 0, 74, 48
2, 1689, Note_on_c, 0, 58, 69
2, 1693, Note_on_c, 0, 64, 0
2, 1693, Note_on_c, 0, 68, 0
2, 1693, Note_on_c, 0, 70, 0
2, 1697, Note_on_c, 0, 74, 0
2, 1704, Note_on_c, 0, 58, 0
2, 1765, Note_on_c, 0, 74, 71
2, 1766, Note_on_c, 0, 68, 77
2, 1767, Note_on_c, 0, 70, 68
2, 1769, Note_on_c, 0, 58, 67
2, 1769, Note_on_c, 0, 64, 64
2, 1778, Note_on_c, 0, 64, 0
2, 1783, Note_on_c, 0, 74, 0
2, 1788, Note_on_c, 0, 68, 0
2, 1792, Note_on_c, 0, 58, 0
2, 1793, Note_on_c, 0, 70, 0
2, 1819, Note_on_c, 0, 64, 57
2, 1820, Note_on_c, 0, 73, 26
2, 1822, Note_on_c, 0, 68, 34
2, 1823, Note_on_c, 0, 58, 49
2, 1824, Note_on_c, 0, 70, 29
2, 1832, Note_on_c, 0, 64, 0
2, 1837, Note_on_c, 0, 68, 0
2, 1839, Note_on_c, 0, 70, 0
2, 1840, Note_on_c, 0, 73, 0
2, 1842, Note_on_c, 0, 58, 0
2, 1888, Note_on_c, 0, 73, 46
2, 1890, Note_on_c, 0, 58, 59
2, 1893, Note_on_c, 0, 64, 70
2, 1894, Control_c, 0, 64, 127
2, 1895, Note_on_c, 0, 68, 46
2, 1896, Note_on_c, 0, 70, 34
2, 1901, Control_c, 0, 64, 0
2, 1903, Note_on_c, 0, 73, 0
2, 1907, Note_on_c, 0, 68, 0
2, 1908, Note_on_c, 0, 70, 0
2, 1914, Note_on_c, 0, 64, 0
2, 1925, Note_on_c, 0, 58, 0
2, 1939, Note_on_c, 0, 69, 36
2, 1939, Note_on_c, 0, 72, 38
2, 1940, Note_on_c, 0, 57, 47
2, 1940, Note_on_c, 0, 67, 40
2, 1941, Note_on_c, 0, 62, 27
2, 1944, Note_on_c, 0, 64, 29
2, 1956, Note_on_c, 0, 64, 0
2, 2011, Control_c, 0, 64, 127
2, 2016, Note_on_c, 0, 72, 0
2, 2021, Note_on_c, 0, 69, 0
2, 2025, Note_on_c, 0, 67, 0
2, 2032, Note_on_c, 0, 57, 0
2, 2039, Note_on_c, 0, 62, 0
2, 2115, Note_on_c, 0, 46, 28
2, 2122, Note_on_c, 0, 47, 72
2, 2124, Note_on_c, 0, 46, 0
2, 2128, Note_on_c, 0, 60, 75
2, 2130, Note_on_c, 0, 52, 80
2, 2130, Note_on_c, 0, 55, 80
2, 2131, Note_on_c, 0, 57, 74
2, 2133, Control_c, 0, 64, 0
2, 2133, Note_on_c, 0, 48, 74
2, 2139, Note_on_c, 0, 47, 0
2, 2140, Note_on_c, 0, 59, 31
2, 2149, Note_on_c, 0, 59, 0
2, 2197, Note_on_c, 0, 52, 0
2, 2198, Note_on_c, 0, 55, 0
2, 2199, Note_on_c, 0, 57, 0
2, 2206, Note_on_c, 0, 60, 0
2, 2209, Note_on_c, 0, 48, 0
2, 2215, Note_on_c, 0, 59, 56
2, 2216, Note_on_c, 0, 52, 63
2, 2217, Note_on_c, 0, 47, 68
2, 2218, Note_on_c, 0, 55, 66
2, 2260, Note_on_c, 0, 55, 0
2, 2264, Note_on_c, 0, 52, 0
2, 2272, Note_on_c, 0, 59, 0
2, 2293, Note_on_c, 0, 55, 69
2, 2294, Note_on_c, 0, 60, 63
2, 2295, Note_on_c, 0, 47, 0
2, 2295, Note_on_c, 0, 48, 64
2, 2297, Note_on_c, 0, 52, 34
2, 2297, Note_on_c, 0, 57, 42
2, 2300, Note_on_c, 0, 59, 39
2, 2306, Note_on_c, 0, 52, 0
2, 2307, Note_on_c, 0, 57, 0
2, 2307, Control_c, 0, 64, 127
2, 2310, Note_on_c, 0, 55, 0
2, 2311, Note_on_c, 0, 48, 0
2, 2318, Note_on_c, 0, 60, 0
2, 2319, Note_on_c, 0, 59, 0
2, 2375, Note_on_c, 0, 69, 72
2, 2376, Note_on_c, 0, 66, 56
2, 2376, Note_on_c, 0, 60, 74
2, 2377, Note_on_c, 0, 64, 74
2, 2381, Note_on_c, 0, 54, 46
2, 2382, Control_c, 0, 64, 0
2, 2385, Note_on_c, 0, 50, 46
2, 2393, Note_on_c, 0, 57, 28
2, 2441, Control_c, 0, 64, 127
2, 2483, Note_on_c, 0, 60, 0
2, 2493, Note_on_c, 0, 57, 0
2, 2496, Note_on_c, 0, 64, 0
2, 2496, Note_on_c, 0, 50, 0
2, 2502, Note_on_c, 0, 66, 0
2, 2503, Note_on_c, 0, 54, 0
2, 2513, Note_on_c, 0, 69, 0
2, 2722, Control_c, 0, 64, 0
2, 2725, Note_on_c, 0, 80, 79
2, 2726, Note_on_c, 0, 54, 74
2, 2726, Note_on_c, 0, 60, 73
2, 2726, Note_on_c, 0, 86, 80
2, 2726, Note_on_c, 0, 64, 80
2, 2727, Note_on_c, 0, 74, 79
2, 2743, Note_on_c, 0, 64, 0
2, 2743, Note_on_c, 0, 80, 0
2, 2746, Note_on_c, 0, 81, 55
2, 2749, Note_on_c, 0, 60, 0
2, 2755, Note_on_c, 0, 81, 0
2, 2757, Note_on_c, 0, 54, 0
2, 2761, Note_on_c, 0, 74, 0
2, 2762, Note_on_c, 0, 86, 0
2, 2792, Note_on_c, 0, 72, 57
2, 2792, Note_on_c, 0, 84, 55
2, 2793, Note_on_c, 0, 80, 46
2, 2794, Note_on_c, 0, 78, 38
2, 2796, Note_on_c, 0, 54, 57
2, 2797, Note_on_c, 0, 60, 56
2, 2800, Note_on_c, 0, 64, 42
2, 2810, Note_on_c, 0, 64, 0
2, 2811, Note_on_c, 0, 72, 0
2, 2811, Note_on_c, 0, 78, 0
2, 2816, Note_on_c, 0, 84, 0
2, 2816, Note_on_c, 0, 81, 47
2, 2817, Note_on_c, 0, 80, 0
2, 2819, Note_on_c, 0, 79, 25
2, 2823, Note_on_c, 0, 60, 0
2, 2824, Note_on_c, 0, 81, 0
2, 2826, Note_on_c, 0, 54, 0
2, 2827, Note_on_c, 0, 79, 0
2, 2898, Note_on_c, 0, 80, 33
2, 2898, Note_on_c, 0, 58, 39
2, 2900, Note_on_c, 0, 68, 33
2, 2900, Note_on_c, 0, 62, 38
2, 2902, Note_on_c, 0, 74, 38
2, 2903, Note_on_c, 0, 57, 46
2, 2906, Note_on_c, 0, 53, 31
2, 2910, Note_on_c, 0, 77, 26
2, 2914, Note_on_c, 0, 68, 0
2, 2915, Note_on_c, 0, 80, 0
2, 2921, Note_on_c, 0, 69, 35
2, 2945, Note_on_c, 0, 69, 0
2, 2949, Note_on_c, 0, 53, 0
2, 2949, Note_on_c, 0, 74, 0
2, 2950, Note_on_c, 0, 57, 0
2, 2951, Note_on_c, 0, 77, 0
2, 2953, Note_on_c, 0, 62, 0
2, 2954, Note_on_c, 0, 58, 0
2, 3025, Note_on_c, 0, 80, 59
2, 3026, Note_on_c, 0, 58, 49
2, 3026, Note_on_c, 0, 72, 70
2, 3026, Note_on_c, 0, 62, 53
2, 3027, Note_on_c, 0, 84, 61
2, 3029, Note_on_c, 0, 53, 36
2, 3029, Note_on_c, 0, 57, 45
2, 3063, Note_on_c, 0, 80, 0
2, 3063, Note_on_c, 0, 81, 46
2, 3065, Note_on_c, 0, 53, 0
2, 3065, Note_on_c, 0, 72, 0
2, 3068, Note_on_c, 0, 57, 0
2, 3075, Note_on_c, 0, 62, 0
2, 3079, Note_on_c, 0, 58, 0
2, 3081, Note_on_c, 0, 84, 0
2, 3085, Note_on_c, 0, 81, 0
2, 3211, Note_on_c, 0, 82, 57
2, 3213, Note_on_c, 0, 70, 55
2, 3213, Note_on_c, 0, 62, 55
2, 3214, Note_on_c, 0, 77, 46
2, 3215, Note_on_c, 0, 58, 37
2, 3218, Note_on_c, 0, 57, 34
2, 3220, Note_on_c, 0, 70, 0
2, 3222, Note_on_c, 0, 62, 0
2, 3224, Note_on_c, 0, 77, 0
2, 3226, Note_on_c, 0, 57, 0
2, 3230, Note_on_c, 0, 82, 0
2, 3232, Note_on_c, 0, 58, 0
2, 3315, Control_c, 0, 64, 127
2, 3323, Control_c, 0, 64, 0
2, 3357, Note_on_c, 0, 74, 50
2, 3358, Note_on_c, 0, 67, 51
2, 3358, Note_on_c, 0, 58, 30
2, 3359, Note_on_c, 0, 79, 34
2, 3361, Note_on_c, 0, 64, 39
2, 3362, Note_on_c, 0, 60, 44
2, 3368, Note_on_c, 0, 67, 0
2, 3370, Note_on_c, 0, 79, 0
2, 3374, Note_on_c, 0, 74, 0
2, 3374, Note_on_c, 0, 60, 0
2, 3375, Note_on_c, 0, 64, 0
2, 3385, Note_on_c, 0, 58, 0
2, 3621, Control_c, 0, 64, 127
2, 3778, Control_c, 0, 64, 0
2, 3791, Control_c, 0, 64, 127
2, 3801, Note_on_c, 0, 61, 37
2, 3807, Note_on_c, 0, 78, 50
2, 3807, Note_on_c, 0, 66, 52
2, 3808, Note_on_c, 0, 73, 33
2, 3808, Note_on_c, 0, 56, 21
2, 3816, Note_on_c, 0, 56, 0
2, 3820, Note_on_c, 0, 66, 0
2, 3821, Note_on_c, 0, 73, 0
2, 3823, Note_on_c, 0, 78, 0
2, 3826, Control_c, 0, 64, 0
2, 3828, Note_on_c, 0, 61, 0
2, 3847, Note_on_c, 0, 67, 53
2, 3848, Note_on_c, 0, 64, 38
2, 3849, Note_on_c, 0, 79, 40
2, 3853, Note_on_c, 0, 57, 33
2, 3857, Note_on_c, 0, 60, 31
2, 3860, Note_on_c, 0, 55, 20
2, 3865, Note_on_c, 0, 67, 0
2, 3867, Note_on_c, 0, 60, 0
2, 3868, Note_on_c, 0, 55, 0
2, 3869, Note_on_c, 0, 64, 0
2, 3875, Note_on_c, 0, 57, 0
2, 3876, Note_on_c, 0, 79, 0
2, 3962, Note_on_c, 0, 64, 66
2, 3963, Note_on_c, 0, 81, 72
2, 3963, Note_on_c, 0, 69, 73
2, 3964, Note_on_c, 0, 55, 54
2, 3965, Note_on_c, 0, 60, 50
2, 3966, Note_on_c, 0, 76, 56
2, 3966, Note_on_c, 0, 57, 50
2, 3968, Note_on_c, 0, 78, 23
2, 3976, Note_on_c, 0, 78, 0
2, 3981, Note_on_c, 0, 69, 0
2, 3982, Note_on_c, 0, 60, 0
2, 3982, Note_on_c, 0, 55, 0
2, 3982, Note_on_c, 0, 64, 0
2, 3988, Note_on_c, 0, 57, 0
2, 3990, Note_on_c, 0, 76, 0
2, 3990, Note_on_c, 0, 81, 0
2, 4084, Note_on_c, 0, 64, 40
2, 4085, Note_on_c, 0, 74, 48
2, 4086, Note_on_c, 0, 79, 44
2, 4086, Note_on_c, 0, 60, 35
2, 4087, Note_on_c, 0, 67, 39
2, 4087, Note_on_c, 0, 57, 31
2, 4088, Note_on_c, 0, 55, 28
2, 4100, Control_c, 0, 64, 127
2, 4132, Note_on_c, 0, 67, 0
2, 4136, Note_on_c, 0, 79, 0
2, 4139, Note_on_c, 0, 55, 0
2, 4142, Note_on_c, 0, 74, 0
2, 4143, Note_on_c, 0, 64, 0
2, 4144, Note_on_c, 0, 60, 0
2, 4147, Note_on_c, 0, 57, 0
2, 4167, Note_on_c, 0, 81, 72
2, 4168, Note_on_c, 0, 69, 68
2, 4169, Note_on_c, 0, 57, 57
2, 4169, Note_on_c, 0, 74, 57
2, 4170, Note_on_c, 0, 64, 63
2, 4171, Note_on_c, 0, 55, 68
2, 4173, Note_on_c, 0, 60, 61
2, 4185, Note_on_c, 0, 81, 0
2, 4187, Note_on_c, 0, 69, 0
2, 4188, Note_on_c, 0, 64, 0
2, 4189, Note_on_c, 0, 55, 0
2, 4194, Note_on_c, 0, 60, 0
2, 4196, Note_on_c, 0, 74, 0
2, 4201, Control_c, 0, 64, 0
2, 4202, Note_on_c, 0, 57, 0
2, 4213, Note_on_c, 0, 79, 32
2, 4214, Note_on_c, 0, 64, 45
2, 4214, Note_on_c, 0, 74, 46
2, 4215, Note_on_c, 0, 55, 38
2, 4216, Note_on_c, 0, 57, 22
2, 4218, Note_on_c, 0, 67, 33
2, 4218, Note_on_c, 0, 60, 54
2, 4241, Note_on_c, 0, 60, 0
2, 4242, Note_on_c, 0, 64, 0
2, 4248, Note_on_c, 0, 55, 0
2, 4249, Note_on_c, 0, 57, 0
2, 4258, Note_on_c, 0, 74, 0
2, 4261, Note_on_c, 0, 79, 0
2, 4264, Note_on_c, 0, 67, 0
2, 4277, Control_c, 0, 64, 127
2, 4283, Control_c, 0, 64, 0
2, 4286, Note_on_c, 0, 56, 48
2, 4287, Note_on_c, 0, 67, 59
2, 4287, Note_on_c, 0, 62, 51
2, 4287, Note_on_c, 0, 79, 36
2, 4288, Note_on_c, 0, 74, 60
2, 4289, Note_on_c, 0, 59, 51
2, 4295, Note_on_c, 0, 67, 0
2, 4296, Note_on_c, 0, 74, 0
2, 4297, Note_on_c, 0, 79, 0
2, 4297, Note_on_c, 0, 62, 0
2, 4297, Note_on_c, 0, 59, 0
2, 4306, Note_on_c, 0, 56, 0
2, 4343, Control_c, 0, 64, 127
2, 4398, Note_on_c, 0, 52, 71
2, 4401, Note_on_c, 0, 65, 80
2, 4402, Note_on_c, 0, 56, 75
2, 4402, Note_on_c, 0, 59, 75
2, 4403, Note_on_c, 0, 62, 53
2, 4406, Note_on_c, 0, 53, 66
2, 4409, Control_c, 0, 64, 0
2, 4415, Note_on_c, 0, 52, 0
2, 4469, Control_c, 0, 64, 127
2, 4503, Note_on_c, 0, 62, 0
2, 4510, Note_on_c, 0, 59, 0
2, 4512, Note_on_c, 0, 65, 0
2, 4525, Note_on_c, 0, 56, 0
2, 4549, Note_on_c, 0, 53, 0
2, 4559, Control_c, 0, 64, 0
2, 4566, Note_on_c, 0, 62, 49
2, 4567, Note_on_c, 0, 56, 32
2, 4567, Note_on_c, 0, 53, 49
2, 4571, Note_on_c, 0, 50, 33
2, 4572, Note_on_c, 0, 59, 32
2, 4596, Note_on_c, 0, 59, 0
2, 4598, Note_on_c, 0, 53, 0
2, 4603, Note_on_c, 0, 62, 0
2, 4604, Note_on_c, 0, 56, 0
2, 4643, Control_c, 0, 64, 127
2, 4654, Control_c, 0, 64, 0
2, 4674, Note_on_c, 0, 56, 57
2, 4674, Note_on_c, 0, 65, 64
2, 4678, Note_on_c, 0, 62, 43
2, 4678, Note_on_c, 0, 59, 56
2, 4684, Note_on_c, 0, 50, 0
2, 4684, Note_on_c, 0, 53, 45
2, 4696, Note_on_c, 0, 56, 0
2, 4701, Note_on_c, 0, 59, 0
2, 4706, Note_on_c, 0, 62, 0
2, 4707, Control_c, 0, 64, 127
2, 4711, Note_on_c, 0, 53, 0
2, 4712, Note_on_c, 0, 65, 0
2, 4775, Note_on_c, 0, 58, 31
2, 4784, Note_on_c, 0, 59, 59
2, 4786, Note_on_c, 0, 58, 0
2, 4800, Note_on_c, 0, 72, 75
2, 4800, Note_on_c, 0, 62, 76
2, 4801, Note_on_c, 0, 65, 75
2, 4801, Note_on_c, 0, 69, 62
2, 4802, Control_c, 0, 64, 0
2, 4805, Note_on_c, 0, 60, 71
2, 4806, Note_on_c, 0, 59, 0
2, 4828, Note_on_c, 0, 69, 0
2, 4828, Note_on_c, 0, 65, 0
2, 4829, Note_on_c, 0, 62, 0
2, 4836, Note_on_c, 0, 60, 0
2, 4839, Note_on_c, 0, 59, 33
2, 4850, Note_on_c, 0, 72, 0
2, 4874, Note_on_c, 0, 58, 51
2, 4884, Control_c, 0, 64, 127
2, 4886, Note_on_c, 0, 59, 0
2, 4902, Note_on_c, 0, 58, 0
2, 4910, Note_on_c, 0, 57, 41
2, 4912, Control_c, 0, 64, 0
2, 4931, Note_on_c, 0, 62, 40
2, 4934, Note_on_c, 0, 65, 45
2, 4949, Note_on_c, 0, 65, 0
2, 4975, Note_on_c, 0, 62, 0
2, 5002, Note_on_c, 0, 57, 0
2, 5008, Note_on_c, 0, 60, 51
2, 5009, Note_on_c, 0, 72, 64
2, 5010, Note_on_c, 0, 62, 48
2, 5011, Note_on_c, 0, 65, 55
2, 5037, Note_on_c, 0, 62, 0
2, 5038, Note_on_c, 0, 72, 0
2, 5040, Note_on_c, 0, 65, 0
2, 5048, Note_on_c, 0, 60, 0
2, 5055, Note_on_c, 0, 58, 40
2, 5064, Note_on_c, 0, 70, 33
2, 5065, Note_on_c, 0, 62, 16
2, 5069, Note_on_c, 0, 65, 26
2, 5090, Note_on_c, 0, 65, 0
2, 5107, Note_on_c, 0, 62, 0
2, 5123, Note_on_c, 0, 70, 0
2, 5127, Note_on_c, 0, 58, 0
2, 5131, Note_on_c, 0, 62, 45
2, 5133, Note_on_c, 0, 65, 53
2, 5135, Note_on_c, 0, 55, 50
2, 5143, Note_on_c, 0, 65, 0
2, 5145, Note_on_c, 0, 55, 0
2, 5148, Note_on_c, 0, 62, 0
2, 5283, Control_c, 0, 64, 127
2, 5396, Control_c, 0, 64, 0
2, 5424, Control_c, 0, 64, 127
2, 5485, Note_on_c, 0, 58, 73
2, 5486, Note_on_c, 0, 74, 79
2, 5487, Note_on_c, 0, 77, 64
2, 5487, Note_on_c, 0, 62, 65
2, 5488, Note_on_c, 0, 57, 66
2, 5488, Note_on_c, 0, 69, 74
2, 5488, Note_on_c, 0, 81, 65
2, 5494, Note_on_c, 0, 74, 0
2, 5495, Note_on_c, 0, 57, 0
2, 5495, Note_on_c, 0, 62, 0
2, 5495, Note_on_c, 0, 69, 0
2, 5499, Note_on_c, 0, 77, 0
2, 5501, Note_on_c, 0, 58, 0
2, 5505, Note_on_c, 0, 81, 0
2, 5521, Control_c, 0, 64, 0
2, 5546, Note_on_c, 0, 61, 72
2, 5547, Note_on_c, 0, 55, 77
2, 5547, Note_on_c, 0, 65, 83
2, 5549, Note_on_c, 0, 72, 90
2, 5549, Note_on_c, 0, 84, 78
2, 5550, Note_on_c, 0, 77, 71
2, 5552, Note_on_c, 0, 83, 68
2, 5553, Note_on_c, 0, 58, 32
2, 5554, Note_on_c, 0, 81, 45
2, 5556, Note_on_c, 0, 80, 25
2, 5561, Note_on_c, 0, 58, 0
2, 5564, Note_on_c, 0, 80, 0
2, 5565, Control_c, 0, 64, 127
2, 5597, Note_on_c, 0, 81, 0
2, 5599, Note_on_c, 0, 77, 0
2, 5604, Note_on_c, 0, 84, 0
2, 5607, Note_on_c, 0, 83, 0
2, 5609, Note_on_c, 0, 72, 0
2, 5615, Note_on_c, 0, 65, 0
2, 5630, Note_on_c, 0, 55, 0
2, 5633, Note_on_c, 0, 61, 0
2, 5645, Control_c, 0, 64, 0
2, 5653, Note_on_c, 0, 81, 51
2, 5653, Note_on_c, 0, 73, 30
2, 5655, Note_on_c, 0, 61, 48
2, 5655, Note_on_c, 0, 69, 48
2, 5656, Note_on_c, 0, 55, 54
2, 5656, Note_on_c, 0, 76, 35
2, 5657, Note_on_c, 0, 79, 41
2, 5657, Note_on_c, 0, 64, 54
2, 5674, Control_c, 0, 64, 127
2, 5680, Note_on_c, 0, 64, 0
2, 5689, Note_on_c, 0, 55, 0
2, 5690, Note_on_c, 0, 61, 0
2, 5695, Note_on_c, 0, 81, 0
2, 5697, Note_on_c, 0, 69, 0
2, 5704, Note_on_c, 0, 76, 0
2, 5706, Note_on_c, 0, 73, 0
2, 5707, Note_on_c, 0, 79, 0
2, 5769, Control_c, 0, 64, 0
2, 5846, Note_on_c, 0, 64, 62
2, 5848, Note_on_c, 0, 76, 66
2, 5850, Note_on_c, 0, 65, 76
2, 5850, Note_on_c, 0, 69, 65
2, 5851, Note_on_c, 0, 72, 53
2, 5861, Note_on_c, 0, 72, 0
2, 5863, Note_on_c, 0, 65, 0
2, 5866, Note_on_c, 0, 69, 0
2, 5873, Note_on_c, 0, 76, 0
2, 5879, Note_on_c, 0, 64, 0
2, 5895, Note_on_c, 0, 62, 40
2, 5925, Note_on_c, 0, 62, 0
2, 5964, Note_on_c, 0, 64, 64
2, 5966, Note_on_c, 0, 76, 60
2, 5966, Note_on_c, 0, 69, 67
2, 5966, Note_on_c, 0, 65, 71
2, 5967, Note_on_c, 0, 72, 58
2, 5976, Note_on_c, 0, 65, 0
2, 5978, Note_on_c, 0, 72, 0
2, 5981, Note_on_c, 0, 69, 0
2, 5987, Note_on_c, 0, 76, 0
2, 5990, Note_on_c, 0, 64, 0
2, 6030, Note_on_c, 0, 74, 53
2, 6032, Note_on_c, 0, 69, 53
2, 6032, Note_on_c, 0, 65, 48
2, 6033, Note_on_c, 0, 62, 34
2, 6060, Control_c, 0, 64, 127
2, 6084, Note_on_c, 0, 65, 0
2, 6089, Note_on_c, 0, 69, 0
2, 6090, Note_on_c, 0, 62, 0
2, 6117, Note_on_c, 0, 74, 0
2, 6120, Control_c, 0, 64, 0
2, 6162, Control_c, 0, 64, 127
2, 6203, Control_c, 0, 64, 0
2, 6205, Note_on_c, 0, 69, 60
2, 6205, Note_on_c, 0, 65, 50
2, 6205, Note_on_c, 0, 74, 48
2, 6207, Note_on_c, 0, 62, 32
2, 6214, Note_on_c, 0, 65, 0
2, 6214, Note_on_c, 0, 69, 0
2, 6216, Note_on_c, 0, 62, 0
2, 6218, Note_on_c, 0, 74, 0
2, 6265, Control_c, 0, 64, 127
2, 6492, Note_on_c, 0, 62, 68
2, 6493, Note_on_c, 0, 47, 72
2, 6495, Note_on_c, 0, 53, 60
2, 6499, Note_on_c, 0, 57, 51
2, 6512, Control_c, 0, 64, 0
2, 6544, Note_on_c, 0, 53, 0
2, 6554, Note_on_c, 0, 57, 0
2, 6561, Note_on_c, 0, 62, 0
2, 6568, Note_on_c, 0, 47, 0
2, 6570, Control_c, 0, 64, 127
2, 6572, Note_on_c, 0, 64, 60
2, 6574, Note_on_c, 0, 57, 60
2, 6576, Note_on_c, 0, 53, 30
2, 6576, Note_on_c, 0, 48, 68
2, 6578, Note_on_c, 0, 62, 30
2, 6579, Note_on_c, 0, 60, 45
2, 6584, Note_on_c, 0, 53, 0
2, 6588, Note_on_c, 0, 60, 0
2, 6591, Note_on_c, 0, 57, 0
2, 6597, Note_on_c, 0, 62, 0
2, 6599, Note_on_c, 0, 64, 0
2, 6610, Control_c, 0, 64, 0
2, 6618, Note_on_c, 0, 65, 81
2, 6620, Note_on_c, 0, 50, 69
2, 6621, Note_on_c, 0, 60, 68
2, 6622, Note_on_c, 0, 48, 0
2, 6622, Note_on_c, 0, 57, 53
2, 6647, Control_c, 0, 64, 127
2, 6648, Note_on_c, 0, 57, 0
2, 6656, Note_on_c, 0, 60, 0
2, 6659, Note_on_c, 0, 65, 0
2, 6672, Note_on_c, 0, 50, 0
2, 6702, Note_on_c, 0, 69, 80
2, 6702, Note_on_c, 0, 58, 87
2, 6702, Note_on_c, 0, 62, 85
2, 6703, Control_c, 0, 64, 0
2, 6703, Note_on_c, 0, 57, 76
2, 6705, Note_on_c, 0, 65, 71
2, 6706, Note_on_c, 0, 55, 64
2, 6713, Note_on_c, 0, 55, 0
2, 6713, Note_on_c, 0, 65, 0
2, 6724, Note_on_c, 0, 65, 17
2, 6846, Control_c, 0, 64, 127
2, 7039, Note_on_c, 0, 58, 0
2, 7048, Note_on_c, 0, 65, 0
2, 7050, Note_on_c, 0, 69, 0
2, 7053, Note_on_c, 0, 62, 0
2, 7067, Control_c, 0, 64, 0
2, 7075, Note_on_c, 0, 58, 38
2, 7079, Note_on_c, 0, 62, 27
2, 7080, Note_on_c, 0, 57, 0
2, 7080, Note_on_c, 0, 55, 40
2, 7081, Note_on_c, 0, 67, 33
2, 7091, Control_c, 0, 64, 127
2, 7104, Note_on_c, 0, 62, 0
2, 7130, Note_on_c, 0, 58, 0
2, 7132, Note_on_c, 0, 67, 0
2, 7160, Note_on_c, 0, 55, 0
2, 7164, Note_on_c, 0, 58, 37
2, 7165, Note_on_c, 0, 69, 49
2, 7166, Note_on_c, 0, 64, 51
2, 7166, Note_on_c, 0, 61, 46
2, 7168, Control_c, 0, 64, 0
2, 7169, Note_on_c, 0, 57, 44
2, 7241, Control_c, 0, 64, 127
2, 7275, Note_on_c, 0, 58, 0
2, 7300, Note_on_c, 0, 57, 0
2, 7312, Note_on_c, 0, 61, 0
2, 7316, Note_on_c, 0, 64, 0
2, 7335, Note_on_c, 0, 69, 0
2, 7521, Control_c, 0, 64, 0
2, 7523, Note_on_c, 0, 91, 77
2, 7523, Note_on_c, 0, 85, 74
2, 7525, Note_on_c, 0, 79, 59
2, 7527, Note_on_c, 0, 61, 57
2, 7528, Note_on_c, 0, 58, 56
2, 7528, Note_on_c, 0, 64, 67
2, 7570, Control_c, 0, 64, 127
2, 7574, Note_on_c, 0, 85, 0
2, 7629, Note_on_c, 0, 91, 0
2, 7639, Note_on_c, 0, 79, 0
2, 7647, Note_on_c, 0, 64, 0
2, 7666, Note_on_c, 0, 61, 0
2, 7667, Note_on_c, 0, 58, 0
2, 7680, Control_c, 0, 64, 0
2, 7685, Note_on_c, 0, 89, 62
2, 7685, Note_on_c, 0, 64, 57
2, 7687, Note_on_c, 0, 77, 51
2, 7687, Note_on_c, 0, 84, 56
2, 7689, Note_on_c, 0, 57, 57
2, 7690, Note_on_c, 0, 60, 38
2, 7693, Note_on_c, 0, 53, 24
2, 7694, Note_on_c, 0, 89, 0
2, 7695, Note_on_c, 0, 84, 0
2, 7699, Note_on_c, 0, 60, 0
2, 7700, Note_on_c, 0, 64, 0
2, 7700, Note_on_c, 0, 77, 0
2, 7701, Note_on_c, 0, 53, 0
2, 7708, Note_on_c, 0, 57, 0
2, 7890, Note_on_c, 0, 72, 71
2, 7893, Note_on_c, 0, 67, 58
2, 7894, Note_on_c, 0, 62, 54
2, 7897, Note_on_c, 0, 57, 63
2, 7916, Note_on_c, 0, 62, 0
2, 7918, Note_on_c, 0, 67, 0
2, 7924, Note_on_c, 0, 72, 0
2, 7929, Note_on_c, 0, 57, 0
2, 7950, Note_on_c, 0, 61, 51
2, 7952, Note_on_c, 0, 66, 43
2, 7954, Note_on_c, 0, 56, 33
2, 7955, Note_on_c, 0, 71, 28
2, 7989, Note_on_c, 0, 71, 0
2, 7993, Note_on_c, 0, 61, 0
2, 7993, Note_on_c, 0, 66, 0
2, 8017, Note_on_c, 0, 62, 67
2, 8018, Note_on_c, 0, 56, 0
2, 8018, Note_on_c, 0, 72, 58
2, 8020, Note_on_c, 0, 67, 52
2, 8023, Note_on_c, 0, 57, 51
2, 8024, Note_on_c, 0, 62, 0
2, 8028, Note_on_c, 0, 67, 0
2, 8031, Note_on_c, 0, 57, 0
2, 8034, Note_on_c, 0, 72, 0
2, 8280, Note_on_c, 0, 77, 62
2, 8280, Note_on_c, 0, 65, 78
2, 8281, Note_on_c, 0, 71, 68
2, 8282, Note_on_c, 0, 74, 58
2, 8283, Note_on_c, 0, 62, 62
2, 8292, Note_on_c, 0, 76, 20
2, 8296, Note_on_c, 0, 65, 0
2, 8300, Note_on_c, 0, 62, 0
2, 8306, Note_on_c, 0, 71, 0
2, 8310, Note_on_c, 0, 77, 0
2, 8312, Note_on_c, 0, 76, 0
2, 8315, Note_on_c, 0, 74, 0
2, 8404, Note_on_c, 0, 79, 80
2, 8404, Note_on_c, 0, 71, 81
2, 8405, Note_on_c, 0, 68, 77
2, 8406, Note_on_c, 0, 67, 85
2, 8407, Note_on_c, 0, 74, 62
2, 8451, Note_on_c, 0, 79, 0
2, 8459, Control_c, 0, 64, 127
2, 8460, Note_on_c, 0, 71, 0
2, 8461, Note_on_c, 0, 68, 0
2, 8468, Note_on_c, 0, 74, 0
2, 8480, Note_on_c, 0, 78, 53
2, 8481, Note_on_c, 0, 67, 0
2, 8482, Note_on_c, 0, 68, 62
2, 8483, Note_on_c, 0, 66, 62
2, 8484, Note_on_c, 0, 71, 51
2, 8488, Note_on_c, 0, 74, 46
2, 8505, Control_c, 0, 64, 0
2, 8509, Note_on_c, 0, 68, 0
2, 8509, Note_on_c, 0, 78, 0
2, 8517, Note_on_c, 0, 71, 0
2, 8517, Note_on_c, 0, 66, 0
2, 8519, Note_on_c, 0, 74, 0
2, 8525, Note_on_c, 0, 68, 33
2, 8528, Note_on_c, 0, 77, 40
2, 8529, Note_on_c, 0, 65, 52
2, 8529, Note_on_c, 0, 71, 22
2, 8554, Note_on_c, 0, 71, 0
2, 8556, Control_c, 0, 64, 127
2, 8561, Note_on_c, 0, 68, 0
2, 8562, Note_on_c, 0, 77, 0
2, 8567, Note_on_c, 0, 65, 0
2, 8571, Control_c, 0, 64, 0
2, 8576, Control_c, 0, 64, 127
2, 8605, Note_on_c, 0, 74, 53
2, 8608, Note_on_c, 0, 70, 51
2, 8611, Note_on_c, 0, 65, 63
2, 8612, Note_on_c, 0, 68, 39
2, 8617, Note_on_c, 0, 62, 58
2, 8635, Control_c, 0, 64, 0
2, 8636, Note_on_c, 0, 62, 0
2, 8636, Note_on_c, 0, 68, 0
2, 8637, Note_on_c, 0, 70, 0
2, 8639, Note_on_c, 0, 74, 0
2, 8645, Note_on_c, 0, 65, 0
2, 8707, Note_on_c, 0, 58, 48
2, 8708, Note_on_c, 0, 62, 47
2, 8710, Note_on_c, 0, 65, 68
2, 8711, Note_on_c, 0, 55, 65
2, 8711, Note_on_c, 0, 52, 64
2, 8717, Note_on_c, 0, 53, 62
2, 8719, Note_on_c, 0, 52, 0
2, 8719, Note_on_c, 0, 64, 35
2, 8730, Note_on_c, 0, 64, 0
2, 8825, Control_c, 0, 64, 127
2, 8838, Note_on_c, 0, 62, 0
2, 8845, Note_on_c, 0, 65, 0
2, 8847, Note_on_c, 0, 53, 0
2, 8855, Note_on_c, 0, 58, 0
2, 8860, Note_on_c, 0, 55, 0
2, 8880, Control_c, 0, 64, 0
2, 8884, Note_on_c, 0, 53, 38
2, 8886, Note_on_c, 0, 57, 39
2, 8886, Note_on_c, 0, 48, 34
2, 8887, Note_on_c, 0, 60, 43
2, 8888, Note_on_c, 0, 47, 42
2, 8897, Note_on_c, 0, 47, 0
2, 8942, Note_on_c, 0, 53, 0
2, 8950, Note_on_c, 0, 60, 0
2, 8958, Note_on_c, 0, 57, 0
2, 8959, Note_on_c, 0, 48, 0
2, 8968, Note_on_c, 0, 47, 51
2, 8993, Note_on_c, 0, 47, 0
2, 9001, Note_on_c, 0, 60, 46
2, 9001, Note_on_c, 0, 57, 43
2, 9003, Note_on_c, 0, 53, 27
2, 9004, Note_on_c, 0, 48, 32
2, 9024, Control_c, 0, 64, 127
2, 9043, Note_on_c, 0, 57, 0
2, 9048, Note_on_c, 0, 60, 0
2, 9052, Note_on_c, 0, 48, 0
2, 9055, Note_on_c, 0, 53, 0
2, 9081, Note_on_c, 0, 58, 40
2, 9082, Note_on_c, 0, 55, 46
2, 9083, Note_on_c, 0, 60, 53
2, 9084, Note_on_c, 0, 64, 49
2, 9084, Note_on_c, 0, 52, 54
2, 9088, Control_c, 0, 64, 0
2, 9090, Note_on_c, 0, 55, 0
2, 9092, Note_on_c, 0, 52, 0
2, 9092, Note_on_c, 0, 60, 0
2, 9094, Note_on_c, 0, 58, 0
2, 9095, Note_on_c, 0, 64, 0
2, 9383, Control_c, 0, 64, 127
2, 9445, Note_on_c, 0, 73, 53
2, 9447, Control_c, 0, 64, 0
2, 9448, Note_on_c, 0, 68, 72
2, 9448, Note_on_c, 0, 63, 70
2, 9450, Note_on_c, 0, 58, 71
2, 9500, Control_c, 0, 64, 127
2, 9566, Note_on_c, 0, 56, 31
2, 9573, Note_on_c, 0, 73, 0
2, 9576, Note_on_c, 0, 68, 0
2, 9584, Note_on_c, 0, 63, 0
2, 9585, Note_on_c, 0, 58, 0
2, 9586, Control_c, 0, 64, 0
2, 9598, Note_on_c, 0, 56, 0
2, 9598, Note_on_c, 0, 72, 50
2, 9600, Note_on_c, 0, 62, 38
2, 9600, Note_on_c, 0, 67, 45
2, 9600, Note_on_c, 0, 57, 51
2, 9657, Note_on_c, 0, 67, 0
2, 9659, Note_on_c, 0, 72, 0
2, 9666, Control_c, 0, 64, 127
2, 9674, Note_on_c, 0, 62, 0
2, 9683, Control_c, 0, 64, 0
2, 9696, Note_on_c, 0, 57, 0
2, 9720, Note_on_c, 0, 69, 53
2, 9723, Note_on_c, 0, 64, 59
2, 9724, Note_on_c, 0, 60, 36
2, 9724, Note_on_c, 0, 53, 48
2, 9749, Note_on_c, 0, 69, 0
2, 9753, Note_on_c, 0, 64, 0
2, 9762, Note_on_c, 0, 53, 0
2, 9768, Note_on_c, 0, 60, 0
2, 9780, Control_c, 0, 64, 127
2, 9840, Control_c, 0, 64, 0
2, 9845, Note_on_c, 0, 60, 46
2, 9848, Note_on_c, 0, 52, 45
2, 9849, Note_on_c, 0, 48, 45
2, 9850, Note_on_c, 0, 55, 52
2, 9902, Note_on_c, 0, 55, 0
2, 9910, Control_c, 0, 64, 127
2, 9916, Note_on_c, 0, 60, 0
2, 9916, Note_on_c, 0, 52, 0
2, 9921, Note_on_c, 0, 48, 0
2, 9933, Control_c, 0, 64, 0
2, 9936, Note_on_c, 0, 47, 43
2, 9958, Note_on_c, 0, 47, 0
2, 9965, Note_on_c, 0, 60, 51
2, 9966, Note_on_c, 0, 52, 47
2, 9966, Note_on_c, 0, 55, 54
2, 9967, Note_on_c, 0, 48, 54
2, 9977, Control_c, 0, 64, 127
2, 9983, Note_on_c, 0, 52, 0
2, 9992, Note_on_c, 0, 55, 0
2, 9993, Note_on_c, 0, 48, 0
2, 9999, Note_on_c, 0, 60, 0
2, 10070, Control_c, 0, 64, 0
2, 10079, Note_on_c, 0, 60, 51
2, 10079, Note_on_c, 0, 69, 55
2, 10081, Note_on_c, 0, 66, 35
2, 10081, Note_on_c, 0, 54, 50
2, 10082, Note_on_c, 0, 64, 51
2, 10118, Note_on_c, 0, 64, 0
2, 10119, Note_on_c, 0, 60, 0
2, 10126, Note_on_c, 0, 54, 0
2, 10134, Note_on_c, 0, 66, 0
2, 10141, Note_on_c, 0, 69, 0
2, 10195, Control_c, 0, 64, 127
2, 10281, Control_c, 0, 64, 0
2, 10284, Note_on_c, 0, 61, 52
2, 10285, Note_on_c, 0, 76, 67
2, 10285, Note_on_c, 0, 65, 74
2, 10286, Note_on_c, 0, 60, 55
2, 10286, Note_on_c, 0, 81, 68
2, 10287, Note_on_c, 0, 69, 71
2, 10290, Note_on_c, 0, 55, 60
2, 10291, Note_on_c, 0, 58, 33
2, 10303, Note_on_c, 0, 69, 0
2, 10313, Note_on_c, 0, 76, 0
2, 10318, Note_on_c, 0, 81, 0
2, 10323, Note_on_c, 0, 65, 0
2, 10326, Note_on_c, 0, 55, 0
2, 10331, Note_on_c, 0, 61, 0
2, 10335, Note_on_c, 0, 60, 0
2, 10339, Note_on_c, 0, 58, 0
2, 10352, Control_c, 0, 64, 127
2, 10357, Note_on_c, 0, 84, 69
2, 10358, Note_on_c, 0, 55, 58
2, 10359, Note_on_c, 0, 72, 66
2, 10360, Note_on_c, 0, 61, 49
2, 10360, Note_on_c, 0, 79, 57
2, 10360, Note_on_c, 0, 60, 57
2, 10360, Note_on_c, 0, 65, 73
2, 10363, Note_on_c, 0, 58, 37
2, 10383, Note_on_c, 0, 72, 0
2, 10391, Note_on_c, 0, 79, 0
2, 10394, Note_on_c, 0, 55, 0
2, 10395, Note_on_c, 0, 65, 0
2, 10397, Note_on_c, 0, 84, 0
2, 10398, Note_on_c, 0, 60, 0
2, 10408, Note_on_c, 0, 58, 0
2, 10425, Note_on_c, 0, 61, 0
2, 10435, Control_c, 0, 64, 0
2, 10444, Note_on_c, 0, 64, 57
2, 10445, Note_on_c, 0, 60, 40
2, 10445, Note_on_c, 0, 86, 62
2, 10446, Note_on_c, 0, 54, 46
2, 10447, Note_on_c, 0, 74, 55
2, 10447, Note_on_c, 0, 81, 55
2, 10459, Note_on_c, 0, 74, 0
2, 10466, Control_c, 0, 64, 127
2, 10467, Note_on_c, 0, 81, 0
2, 10473, Note_on_c, 0, 86, 0
2, 10479, Note_on_c, 0, 60, 0
2, 10481, Note_on_c, 0, 64, 0
2, 10503, Note_on_c, 0, 54, 0
2, 10524, Note_on_c, 0, 58, 29
2, 10525, Note_on_c, 0, 62, 62
2, 10526, Note_on_c, 0, 81, 44
2, 10527, Note_on_c, 0, 93, 55
2, 10529, Note_on_c, 0, 57, 55
2, 10530, Control_c, 0, 64, 0
2, 10530, Note_on_c, 0, 88, 34
2, 10535, Note_on_c, 0, 81, 0
2, 10535, Note_on_c, 0, 62, 0
2, 10536, Note_on_c, 0, 57, 0
2, 10537, Note_on_c, 0, 93, 0
2, 10539, Note_on_c, 0, 88, 0
2, 10543, Note_on_c, 0, 58, 0
2, 10579, Control_c, 0, 64, 127
2, 10595, Note_on_c, 0, 84, 72
2, 10595, Note_on_c, 0, 96, 68
2, 10596, Note_on_c, 0, 58, 57
2, 10597, Note_on_c, 0, 57, 63
2, 10597, Note_on_c, 0, 62, 68
2, 10599, Note_on_c, 0, 92, 58
2, 10600, Note_on_c, 0, 95, 44
2, 10600, Note_on_c, 0, 90, 26
2, 10605, Note_on_c, 0, 53, 45
2, 10608, Note_on_c, 0, 90, 0
2, 10608, Note_on_c, 0, 95, 0
2, 10639, Note_on_c, 0, 92, 0
2, 10640, Note_on_c, 0, 93, 64
2, 10646, Note_on_c, 0, 84, 0
2, 10648, Note_on_c, 0, 93, 0
2, 10653, Note_on_c, 0, 96, 0
2, 10655, Note_on_c, 0, 62, 0
2, 10655, Note_on_c, 0, 53, 0
2, 10660, Note_on_c, 0, 57, 0
2, 10664, Note_on_c, 0, 58, 0
2, 10673, Control_c, 0, 64, 0
2, 10683, Note_on_c, 0, 58, 55
2, 10683, Note_on_c, 0, 82, 64
2, 10684, Note_on_c, 0, 62, 49
2, 10685, Note_on_c, 0, 57, 49
2, 10685, Note_on_c, 0, 94, 38
2, 10687, Note_on_c, 0, 53, 52
2, 10739, Note_on_c, 0, 94, 0
2, 10741, Note_on_c, 0, 82, 0
2, 10744, Note_on_c, 0, 53, 0
2, 10744, Control_c, 0, 64, 127
2, 10745, Note_on_c, 0, 62, 0
2, 10749, Note_on_c, 0, 57, 0
2, 10749, Note_on_c, 0, 58, 0
2, 10757, Control_c, 0, 64, 0
2, 10765, Note_on_c, 0, 91, 54
2, 10765, Note_on_c, 0, 79, 57
2, 10768, Note_on_c, 0, 62, 51
2, 10769, Note_on_c, 0, 58, 51
2, 10769, Note_on_c, 0, 90, 35
2, 10772, Note_on_c, 0, 57, 41
2, 10774, Note_on_c, 0, 53, 22
2, 10777, Note_on_c, 0, 90, 0
2, 10780, Note_on_c, 0, 57, 0
2, 10781, Note_on_c, 0, 91, 0
2, 10782, Note_on_c, 0, 79, 0
2, 10783, Note_on_c, 0, 53, 0
2, 10784, Note_on_c, 0, 62, 0
2, 10789, Note_on_c, 0, 58, 0
2, 10925, Control_c, 0, 64, 127
2, 10932, Control_c, 0, 64, 0
2, 10947, Control_c, 0, 64, 127
2, 11009, Note_on_c, 0, 51, 27
2, 11019, Note_on_c, 0, 51, 0
2, 11024, Control_c, 0, 64, 0
2, 11027, Note_on_c, 0, 52, 30
2, 11032, Note_on_c, 0, 65, 53
2, 11035, Note_on_c, 0, 62, 33
2, 11035, Note_on_c, 0, 58, 34
2, 11036, Note_on_c, 0, 52, 0
2, 11036, Note_on_c, 0, 53, 41
2, 11042, Note_on_c, 0, 55, 24
2, 11108, Note_on_c, 0, 65, 0
2, 11113, Note_on_c, 0, 53, 0
2, 11120, Note_on_c, 0, 55, 0
2, 11122, Note_on_c, 0, 62, 0
2, 11122, Note_on_c, 0, 58, 0
2, 11124, Note_on_c, 0, 51, 25
2, 11144, Note_on_c, 0, 51, 0
2, 11146, Note_on_c, 0, 52, 20
2, 11155, Note_on_c, 0, 55, 51
2, 11155, Note_on_c, 0, 65, 49
2, 11157, Note_on_c, 0, 52, 0
2, 11157, Note_on_c, 0, 62, 32
2, 11158, Note_on_c, 0, 58, 33
2, 11159, Note_on_c, 0, 53, 50
2, 11226, Note_on_c, 0, 62, 0
2, 11238, Note_on_c, 0, 58, 0
2, 11238, Note_on_c, 0, 55, 0
2, 11243, Note_on_c, 0, 53, 0
2, 11246, Note_on_c, 0, 65, 0
2, 11248, Note_on_c, 0, 49, 23
2, 11251, Note_on_c, 0, 51, 34
2, 11272, Note_on_c, 0, 55, 48
2, 11273, Note_on_c, 0, 51, 0
2, 11276, Note_on_c, 0, 58, 33
2, 11277, Note_on_c, 0, 64, 50
2, 11277, Note_on_c, 0, 61, 36
2, 11278, Note_on_c, 0, 49, 0
2, 11278, Note_on_c, 0, 52, 34
2, 11345, Note_on_c, 0, 55, 0
2, 11347, Note_on_c, 0, 58, 0
2, 11350, Note_on_c, 0, 52, 0
2, 11353, Note_on_c, 0, 64, 0
2, 11355, Note_on_c, 0, 61, 0
2, 11355, Note_on_c, 0, 51, 30
2, 11385, Note_on_c, 0, 51, 0
2, 11391, Note_on_c, 0, 58, 42
2, 11394, Note_on_c, 0, 55, 48
2, 11395, Note_on_c, 0, 52, 29
2, 11395, Note_on_c, 0, 64, 48
2, 11397, Note_on_c, 0, 61, 34
2, 11419, Control_c, 0, 64, 127
2, 11430, Note_on_c, 0, 55, 0
2, 11438, Note_on_c, 0, 61, 0
2, 11441, Note_on_c, 0, 58, 0
2, 11451, Note_on_c, 0, 64, 0
2, 11478, Note_on_c, 0, 52, 0
2, 11487, Note_on_c, 0, 51, 31
2, 11505, Control_c, 0, 64, 0
2, 11514, Note_on_c, 0, 51, 0
2, 11518, Note_on_c, 0, 63, 63
2, 11518, Note_on_c, 0, 58, 71
2, 11519, Note_on_c, 0, 67, 71
2, 11519, Note_on_c, 0, 53, 49
2, 11547, Control_c, 0, 64, 127
2, 11562, Note_on_c, 0, 67, 0
2, 11582, Note_on_c, 0, 63, 0
2, 11599, Note_on_c, 0, 51, 8
2, 11604, Note_on_c, 0, 53, 0
2, 11608, Note_on_c, 0, 58, 0
2, 11626, Control_c, 0, 64, 0
2, 11633, Note_on_c, 0, 51, 0
2, 11636, Note_on_c, 0, 58, 71
2, 11636, Note_on_c, 0, 55, 55
2, 11637, Note_on_c, 0, 69, 77
2, 11638, Note_on_c, 0, 63, 61
2, 11640, Note_on_c, 0, 65, 65
2, 11699, Control_c, 0, 64, 127
2, 11721, Note_on_c, 0, 63, 0
2, 11721, Note_on_c, 0, 69, 0
2, 11726, Note_on_c, 0, 65, 0
2, 11731, Note_on_c, 0, 58, 0
2, 11739, Control_c, 0, 64, 0
2, 11757, Note_on_c, 0, 58, 60
2, 11758, Note_on_c, 0, 63, 58
2, 11759, Note_on_c, 0, 67, 62
2, 11763, Note_on_c, 0, 53, 48
2, 11764, Note_on_c, 0, 55, 0
2, 11860, Control_c, 0, 64, 127
2, 11874, Note_on_c, 0, 67, 0
2, 11880, Note_on_c, 0, 63, 0
2, 11886, Note_on_c, 0, 58, 0
2, 11964, Control_c, 0, 64, 0
2, 11965, Note_on_c, 0, 58, 48
2, 11968, Note_on_c, 0, 55, 58
2, 11973, Note_on_c, 0, 41, 46
2, 11982, Control_c, 0, 64, 127
2, 11985, Note_on_c, 0, 55, 0
2, 11986, Note_on_c, 0, 41, 0
2, 11992, Note_on_c, 0, 58, 0
2, 11999, Note_on_c, 0, 53, 0
2, 12200, Control_c, 0, 64, 0
2, 12204, Note_on_c, 0, 58, 72
2, 12205, Note_on_c, 0, 63, 55
2, 12205, Note_on_c, 0, 67, 67
2, 12205, Note_on_c, 0, 84, 70
2, 12206, Note_on_c, 0, 89, 75
2, 12206, Note_on_c, 0, 77, 63
2, 12226, Note_on_c, 0, 67, 0
2, 12228, Note_on_c, 0, 77, 0
2, 12232, Note_on_c, 0, 84, 0
2, 12239, Note_on_c, 0, 89, 0
2, 12240, Note_on_c, 0, 58, 0
2, 12242, Note_on_c, 0, 63, 0
2, 12244, Control_c, 0, 64, 127
2, 12275, Note_on_c, 0, 86, 60
2, 12275, Note_on_c, 0, 91, 73
2, 12275, Note_on_c, 0, 79, 62
2, 12275, Note_on_c, 0, 57, 74
2, 12278, Note_on_c, 0, 63, 57
2, 12279, Note_on_c, 0, 67, 64
2, 12307, Note_on_c, 0, 67, 0
2, 12312, Note_on_c, 0, 79, 0
2, 12316, Note_on_c, 0, 91, 0
2, 12320, Note_on_c, 0, 57, 0
2, 12321, Note_on_c, 0, 86, 0
2, 12336, Note_on_c, 0, 63, 0
2, 12360, Control_c, 0, 64, 0
2, 12363, Note_on_c, 0, 63, 48
2, 12365, Note_on_c, 0, 66, 62
2, 12366, Note_on_c, 0, 87, 45
2, 12367, Note_on_c, 0, 57, 50
2, 12369, Note_on_c, 0, 93, 54
2, 12375, Note_on_c, 0, 87, 0
2, 12381, Note_on_c, 0, 66, 0
2, 12382, Note_on_c, 0, 57, 0
2, 12382, Control_c, 0, 64, 127
2, 12390, Note_on_c, 0, 63, 0
2, 12391, Note_on_c, 0, 93, 0
2, 12423, Note_on_c, 0, 94, 36
2, 12433, Note_on_c, 0, 94, 0
2, 12461, Note_on_c, 0, 62, 65
2, 12461, Note_on_c, 0, 86, 75
2, 12461, Note_on_c, 0, 98, 80
2, 12461, Note_on_c, 0, 60, 68
2, 12462, Note_on_c, 0, 65, 80
2, 12462, Note_on_c, 0, 93, 71
2, 12464, Note_on_c, 0, 89, 45
2, 12465, Note_on_c, 0, 55, 70
2, 12468, Control_c, 0, 64, 0
2, 12519, Control_c, 0, 64, 127
2, 12696, Note_on_c, 0, 98, 0
2, 12715, Note_on_c, 0, 89, 0
2, 12716, Note_on_c, 0, 93, 0
2, 12726, Note_on_c, 0, 86, 0
2, 12795, Note_on_c, 0, 72, 61
2, 12810, Note_on_c, 0, 72, 0
2, 12824, Note_on_c, 0, 65, 0
2, 12828, Note_on_c, 0, 62, 0
2, 12838, Note_on_c, 0, 60, 0
2, 12841, Note_on_c, 0, 55, 0
2, 12845, Control_c, 0, 64, 0
2, 12883, Note_on_c, 0, 82, 63
2, 12899, Note_on_c, 0, 82, 0
2, 12916, Note_on_c, 0, 83, 67
2, 12920, Control_c, 0, 64, 127
2, 12938, Note_on_c, 0, 83, 0
2, 12954, Control_c, 0, 64, 0
2, 12961, Note_on_c, 0, 84, 82
2, 12963, Note_on_c, 0, 61, 38
2, 12964, Note_on_c, 0, 65, 64
2, 12968, Note_on_c, 0, 60, 32
2, 12972, Note_on_c, 0, 55, 33
2, 12978, Note_on_c, 0, 60, 0
2, 12979, Note_on_c, 0, 65, 0
2, 12981, Note_on_c, 0, 55, 0
2, 12984, Note_on_c, 0, 61, 0
2, 12986, Note_on_c, 0, 84, 0
2, 13043, Note_on_c, 0, 61, 36
2, 13045, Note_on_c, 0, 60, 53
2, 13045, Note_on_c, 0, 82, 62
2, 13046, Note_on_c, 0, 65, 64
2, 13051, Note_on_c, 0, 55, 44
2, 13106, Control_c, 0, 64, 127
2, 13148, Note_on_c, 0, 65, 0
2, 13157, Note_on_c, 0, 61, 0
2, 13157, Note_on_c, 0, 55, 0
2, 13159, Note_on_c, 0, 60, 0
2, 13192, Control_c, 0, 64, 0
2, 13200, Note_on_c, 0, 73, 33
2, 13202, Note_on_c, 0, 65, 51
2, 13202, Note_on_c, 0, 61, 37
2, 13204, Note_on_c, 0, 77, 36
2, 13205, Note_on_c, 0, 60, 40
2, 13216, Note_on_c, 0, 60, 0
2, 13217, Note_on_c, 0, 73, 0
2, 13217, Note_on_c, 0, 77, 0
2, 13218, Note_on_c, 0, 65, 0
2, 13223, Note_on_c, 0, 61, 0
2, 13224, Note_on_c, 0, 82, 0
2, 13335, Control_c, 0, 64, 127
2, 13422, Note_on_c, 0, 55, 44
2, 13439, Control_c, 0, 64, 0
2, 13441, Note_on_c, 0, 69, 78
2, 13441, Note_on_c, 0, 57, 63
2, 13442, Note_on_c, 0, 55, 0
2, 13442, Note_on_c, 0, 64, 75
2, 13442, Note_on_c, 0, 60, 80
2, 13445, Note_on_c, 0, 65, 62
2, 13452, Note_on_c, 0, 57, 0
2, 13453, Note_on_c, 0, 65, 0
2, 13458, Note_on_c, 0, 60, 0
2, 13461, Note_on_c, 0, 64, 0
2, 13465, Note_on_c, 0, 69, 0
2, 13558, Note_on_c, 0, 47, 51
2, 13564, Note_on_c, 0, 60, 51
2, 13565, Note_on_c, 0, 52, 50
2, 13566, Note_on_c, 0, 55, 54
2, 13567, Note_on_c, 0, 57, 46
2, 13567, Note_on_c, 0, 48, 51
2, 13576, Note_on_c, 0, 47, 0
2, 13594, Note_on_c, 0, 48, 0
2, 13597, Note_on_c, 0, 57, 0
2, 13599, Note_on_c, 0, 55, 0
2, 13602, Note_on_c, 0, 52, 0
2, 13604, Note_on_c, 0, 60, 0
2, 13683, Note_on_c, 0, 56, 35
2, 13683, Note_on_c, 0, 59, 48
2, 13684, Note_on_c, 0, 50, 46
2, 13687, Note_on_c, 0, 47, 46
2, 13688, Note_on_c, 0, 53, 49
2, 13708, Note_on_c, 0, 53, 0
2, 13709, Note_on_c, 0, 50, 0
2, 13714, Note_on_c, 0, 59, 0
2, 13717, Control_c, 0, 64, 127
2, 13723, Note_on_c, 0, 56, 0
2, 13768, Control_c, 0, 64, 0
2, 13773, Note_on_c, 0, 52, 47
2, 13773, Note_on_c, 0, 55, 66
2, 13775, Note_on_c, 0, 48, 62
2, 13775, Note_on_c, 0, 57, 51
2, 13776, Note_on_c, 0, 47, 0
2, 13777, Note_on_c, 0, 60, 45
2, 13781, Note_on_c, 0, 52, 0
2, 13782, Note_on_c, 0, 55, 0
2, 13786, Note_on_c, 0, 57, 0
2, 13790, Note_on_c, 0, 48, 0
2, 13793, Note_on_c, 0, 60, 0
2, 13874, Control_c, 0, 64, 127
2, 13900, Control_c, 0, 64, 0
2, 14008, Note_on_c, 0, 68, 80
2, 14010, Note_on_c, 0, 65, 91
2, 14010, Note_on_c, 0, 72, 77
2, 14012, Note_on_c, 0, 57, 68
2, 14013, Note_on_c, 0, 58, 65
2, 14013, Note_on_c, 0, 62, 68
2, 14040, Note_on_c, 0, 69, 48
2, 14041, Note_on_c, 0, 68, 0
2, 14050, Note_on_c, 0, 62, 0
2, 14058, Note_on_c, 0, 57, 0
2, 14063, Note_on_c, 0, 58, 0
2, 14065, Note_on_c, 0, 69, 0
2, 14069, Note_on_c, 0, 65, 0
2, 14069, Note_on_c, 0, 72, 0
2, 14165, Note_on_c, 0, 69, 60
2, 14166, Note_on_c, 0, 58, 50
2, 14167, Note_on_c, 0, 61, 48
2, 14167, Note_on_c, 0, 57, 53
2, 14169, Note_on_c, 0, 64, 57
2, 14251, Note_on_c, 0, 58, 0
2, 14273, Note_on_c, 0, 69, 0
2, 14279, Control_c, 0, 64, 127
2, 14282, Note_on_c, 0, 58, 47
2, 14293, Note_on_c, 0, 57, 0
2, 14298, Note_on_c, 0, 64, 0
2, 14332, Note_on_c, 0, 58, 0
2, 14344, Note_on_c, 0, 61, 0
2, 14385, Control_c, 0, 64, 0
2, 14402, Note_on_c, 0, 65, 54
2, 14403, Note_on_c, 0, 57, 47
2, 14405, Note_on_c, 0, 60, 52
2, 14407, Note_on_c, 0, 62, 32
2, 14415, Note_on_c, 0, 57, 0
2, 14419, Note_on_c, 0, 62, 0
2, 14424, Note_on_c, 0, 65, 0
2, 14427, Note_on_c, 0, 60, 0
2, 14485, Note_on_c, 0, 48, 65
2, 14486, Note_on_c, 0, 47, 68
2, 14493, Note_on_c, 0, 47, 0
2, 14624, Note_on_c, 0, 59, 54
2, 14631, Note_on_c, 0, 59, 0
2, 14659, Note_on_c, 0, 62, 90
2, 14734, Note_on_c, 0, 62, 0
2, 14745, Note_on_c, 0, 59, 31
2, 14764, Note_on_c, 0, 59, 0
2, 14775, Note_on_c, 0, 60, 73
2, 14975, Note_on_c, 0, 60, 0
2, 14997, Note_on_c, 0, 59, 78
2, 15017, Note_on_c, 0, 48, 0
2, 15075, Note_on_c, 0, 59, 0
2, 15118, Note_on_c, 0, 58, 74
2, 15201, Note_on_c, 0, 48, 40
2, 15202, Note_on_c, 0, 58, 0
2, 15209, Note_on_c, 0, 48, 0
2, 15232, Note_on_c, 0, 56, 84
2, 15296, Note_on_c, 0, 56, 0
2, 15319, Note_on_c, 0, 56, 57
2, 15332, Note_on_c, 0, 48, 24
2, 15340, Note_on_c, 0, 48, 0
2, 15347, Note_on_c, 0, 56, 0
2, 15355, Note_on_c, 0, 53, 35
2, 15414, Note_on_c, 0, 53, 0
2, 15444, Note_on_c, 0, 53, 42
2, 15459, Note_on_c, 0, 53, 0
2, 15722, Note_on_c, 0, 62, 32
2, 15723, Note_on_c, 0, 60, 33
2, 15723, Note_on_c, 0, 57, 43
2, 15746, Note_on_c, 0, 60, 0
2, 15750, Note_on_c, 0, 57, 0
2, 15751, Note_on_c, 0, 62, 0
2, 15848, Note_on_c, 0, 62, 34
2, 15850, Note_on_c, 0, 56, 30
2, 15854, Note_on_c, 0, 59, 37
2, 15867, Note_on_c, 0, 59, 0
2, 15874, Note_on_c, 0, 62, 0
2, 15885, Note_on_c, 0, 56, 0
2, 15972, Note_on_c, 0, 74, 110
2, 16027, Note_on_c, 0, 73, 37
2, 16035, Note_on_c, 0, 74, 0
2, 16047, Note_on_c, 0, 73, 0
2, 16049, Note_on_c, 0, 72, 70
2, 16075, Note_on_c, 0, 72, 0
2, 16082, Note_on_c, 0, 71, 47
2, 16125, Note_on_c, 0, 71, 0
2, 16162, Note_on_c, 0, 68, 69
2, 16166, Note_on_c, 0, 62, 36
2, 16170, Note_on_c, 0, 56, 27
2, 16174, Note_on_c, 0, 62, 0
2, 16191, Note_on_c, 0, 68, 0
2, 16195, Note_on_c, 0, 56, 0
2, 16209, Note_on_c, 0, 65, 40
2, 16263, Note_on_c, 0, 65, 0
2, 16281, Note_on_c, 0, 62, 59
2, 16287, Note_on_c, 0, 58, 48
2, 16296, Note_on_c, 0, 58, 0
2, 16314, Note_on_c, 0, 62, 0
2, 16339, Note_on_c, 0, 60, 32
2, 16402, Note_on_c, 0, 58, 69
2, 16410, Note_on_c, 0, 60, 0
2, 16433, Note_on_c, 0, 58, 0
2, 16448, Note_on_c, 0, 57, 51
2, 16514, Note_on_c, 0, 58, 53
2, 16517, Note_on_c, 0, 57, 0
2, 16537, Note_on_c, 0, 59, 76
2, 16538, Note_on_c, 0, 58, 0
2, 16560, Note_on_c, 0, 59, 0
2, 16564, Note_on_c, 0, 60, 95
2, 16639, Note_on_c, 0, 60, 0
2, 16641, Note_on_c, 0, 57, 70
2, 16674, Note_on_c, 0, 57, 0
2, 16691, Note_on_c, 0, 54, 29
2, 16759, Note_on_c, 0, 53, 69
2, 16760, Note_on_c, 0, 54, 0
2, 16800, Note_on_c, 0, 53, 0
2, 16824, Note_on_c, 0, 52, 19
2, 16863, Note_on_c, 0, 52, 0
2, 16878, Note_on_c, 0, 24, 55
2, 16891, Note_on_c, 0, 24, 0
2, 16994, Note_on_c, 0, 64, 53
2, 17008, Note_on_c, 0, 64, 0
2, 17039, Note_on_c, 0, 66, 44
2, 17099, Note_on_c, 0, 66, 0
2, 17111, Note_on_c, 0, 63, 60
2, 17112, Note_on_c, 0, 58, 52
2, 17117, Note_on_c, 0, 70, 60
2, 17126, Note_on_c, 0, 63, 0
2, 17141, Note_on_c, 0, 58, 0
2, 17148, Note_on_c, 0, 70, 0
2, 17236, Note_on_c, 0, 57, 44
2, 17238, Note_on_c, 0, 62, 24
2, 17242, Note_on_c, 0, 60, 19
2, 17246, Note_on_c, 0, 62, 0
2, 17250, Note_on_c, 0, 60, 0
2, 17260, Note_on_c, 0, 57, 0
2, 17480, Note_on_c, 0, 62, 60
2, 17487, Note_on_c, 0, 62, 0
2, 17488, Note_on_c, 0, 57, 42
2, 17500, Note_on_c, 0, 57, 0
2, 17563, Note_on_c, 0, 74, 84
2, 17586, Note_on_c, 0, 74, 0
2, 17601, Note_on_c, 0, 74, 51
2, 17602, Note_on_c, 0, 72, 78
2, 17614, Note_on_c, 0, 74, 0
2, 17614, Note_on_c, 0, 57, 34
2, 17626, Note_on_c, 0, 57, 0
2, 17630, Note_on_c, 0, 72, 0
2, 17652, Note_on_c, 0, 69, 42
2, 17682, Note_on_c, 0, 69, 0
2, 17690, Note_on_c, 0, 65, 66
2, 17705, Note_on_c, 0, 65, 0
2, 17728, Note_on_c, 0, 72, 83
2, 17737, Note_on_c, 0, 62, 40
2, 17744, Note_on_c, 0, 62, 0
2, 17759, Note_on_c, 0, 72, 0
2, 17769, Note_on_c, 0, 70, 61
2, 17796, Note_on_c, 0, 70, 0
2, 17811, Note_on_c, 0, 66, 36
2, 17831, Note_on_c, 0, 66, 0
2, 17847, Note_on_c, 0, 69, 71
2, 17847, Note_on_c, 0, 62, 46
2, 17858, Note_on_c, 0, 60, 26
2, 17860, Note_on_c, 0, 62, 0
2, 17866, Note_on_c, 0, 60, 0
2, 17883, Note_on_c, 0, 69, 0
2, 17893, Note_on_c, 0, 67, 54
2, 17958, Note_on_c, 0, 67, 0
2, 17966, Note_on_c, 0, 66, 76
2, 18068, Note_on_c, 0, 66, 0
2, 18081, Note_on_c, 0, 63, 64
2, 18090, Note_on_c, 0, 60, 26
2, 18092, Note_on_c, 0, 54, 20
2, 18098, Note_on_c, 0, 60, 0
2, 18116, Note_on_c, 0, 54, 0
2, 18122, Note_on_c, 0, 63, 0
2, 18128, Note_on_c, 0, 62, 54
2, 18201, Note_on_c, 0, 62, 0
2, 18215, Note_on_c, 0, 60, 29
2, 18228, Note_on_c, 0, 60, 0
2, 18245, Note_on_c, 0, 62, 73
2, 18317, Note_on_c, 0, 62, 0
2, 18324, Note_on_c, 0, 65, 66
2, 18353, Note_on_c, 0, 65, 0
2, 18360, Note_on_c, 0, 62, 34
2, 18438, Note_on_c, 0, 58, 60
2, 18444, Note_on_c, 0, 62, 0
2, 18471, Note_on_c, 0, 58, 0
2, 18485, Note_on_c, 0, 57, 45
2, 18553, Note_on_c, 0, 60, 73
2, 18560, Note_on_c, 0, 57, 0
2, 18585, Note_on_c, 0, 60, 0
2, 18593, Note_on_c, 0, 58, 59
2, 18681, Note_on_c, 0, 58, 0
2, 18686, Note_on_c, 0, 55, 40
2, 18694, Note_on_c, 0, 55, 0
2, 18719, Note_on_c, 0, 58, 67
2, 18800, Note_on_c, 0, 58, 0
2, 18812, Note_on_c, 0, 54, 29
2, 18828, Note_on_c, 0, 54, 0
2, 18841, Note_on_c, 0, 57, 71
2, 18924, Note_on_c, 0, 57, 0
2, 18926, Note_on_c, 0, 54, 30
2, 18947, Note_on_c, 0, 54, 0
2, 18957, Note_on_c, 0, 55, 60
2, 19022, Note_on_c, 0, 55, 0
2, 19040, Note_on_c, 0, 48, 51
2, 19060, Note_on_c, 0, 48, 0
2, 19196, Note_on_c, 0, 64, 24
2, 19201, Note_on_c, 0, 60, 35
2, 19202, Note_on_c, 0, 55, 28
2, 19203, Note_on_c, 0, 59, 28
2, 19237, Note_on_c, 0, 55, 0
2, 19238, Note_on_c, 0, 59, 0
2, 19240, Note_on_c, 0, 60, 0
2, 19247, Note_on_c, 0, 64, 0
2, 19322, Note_on_c, 0, 81, 76
2, 19322, Note_on_c, 0, 69, 80
2, 19371, Note_on_c, 0, 69, 0
2, 19384, Note_on_c, 0, 81, 0
2, 19440, Note_on_c, 0, 84, 81
2, 19440, Note_on_c, 0, 72, 85
2, 19489, Note_on_c, 0, 72, 0
2, 19492, Note_on_c, 0, 84, 0
2, 19532, Note_on_c, 0, 60, 53
2, 19535, Note_on_c, 0, 64, 35
2, 19535, Note_on_c, 0, 59, 41
2, 19545, Note_on_c, 0, 64, 0
2, 19554, Note_on_c, 0, 87, 67
2, 19555, Note_on_c, 0, 60, 0
2, 19556, Note_on_c, 0, 75, 93
2, 19561, Note_on_c, 0, 59, 0
2, 19596, Note_on_c, 0, 75, 0
2, 19598, Note_on_c, 0, 76, 43
2, 19599, Note_on_c, 0, 87, 0
2, 19638, Note_on_c, 0, 88, 53
2, 19642, Note_on_c, 0, 76, 0
2, 19666, Note_on_c, 0, 88, 0
2, 19673, Note_on_c, 0, 76, 45
2, 19702, Note_on_c, 0, 88, 42
2, 19708, Note_on_c, 0, 76, 0
2, 19727, Note_on_c, 0, 88, 0
2, 19763, Note_on_c, 0, 86, 60
2, 19763, Note_on_c, 0, 74, 61
2, 19763, Note_on_c, 0, 62, 50
2, 19764, Note_on_c, 0, 56, 39
2, 19772, Note_on_c, 0, 62, 0
2, 19775, Note_on_c, 0, 56, 0
2, 19780, Note_on_c, 0, 74, 0
2, 19783, Note_on_c, 0, 86, 0
2, 19916, Note_on_c, 0, 56, 28
2, 19920, Note_on_c, 0, 62, 52
2, 19923, Note_on_c, 0, 59, 40
2, 19940, Note_on_c, 0, 59, 0
2, 19947, Note_on_c, 0, 62, 0
2, 19953, Note_on_c, 0, 56, 0
2, 20127, Note_on_c, 0, 58, 53
2, 20127, Note_on_c, 0, 62, 55
2, 20133, Note_on_c, 0, 57, 35
2, 20141, Note_on_c, 0, 57, 0
2, 20146, Note_on_c, 0, 62, 0
2, 20152, Note_on_c, 0, 58, 0
2, 20287, Note_on_c, 0, 69, 96
2, 20353, Note_on_c, 0, 69, 0
2, 20369, Note_on_c, 0, 58, 62
2, 20370, Note_on_c, 0, 62, 69
2, 20372, Note_on_c, 0, 57, 52
2, 20377, Note_on_c, 0, 62, 0
2, 20380, Note_on_c, 0, 57, 0
2, 20384, Note_on_c, 0, 58, 0
2, 20400, Note_on_c, 0, 69, 94
2, 20465, Note_on_c, 0, 69, 0
2, 20483, Note_on_c, 0, 69, 51
2, 20502, Note_on_c, 0, 69, 0
2, 20518, Note_on_c, 0, 72, 87
2, 20582, Note_on_c, 0, 72, 0
2, 20602, Note_on_c, 0, 72, 64
2, 20627, Note_on_c, 0, 72, 0
2, 20643, Note_on_c, 0, 67, 65
2, 20700, Note_on_c, 0, 67, 0
2, 20723, Note_on_c, 0, 67, 39
2, 20745, Note_on_c, 0, 67, 0
2, 20759, Note_on_c, 0, 70, 90
2, 20815, Note_on_c, 0, 70, 0
2, 20840, Note_on_c, 0, 64, 70
2, 20843, Note_on_c, 0, 61, 49
2, 20843, Note_on_c, 0, 70, 60
2, 20843, Note_on_c, 0, 58, 46
2, 20848, Note_on_c, 0, 64, 0
2, 20858, Note_on_c, 0, 61, 0
2, 20862, Note_on_c, 0, 58, 0
2, 20872, Note_on_c, 0, 70, 0
2, 20885, Note_on_c, 0, 65, 59
2, 20938, Note_on_c, 0, 65, 0
2, 20965, Note_on_c, 0, 65, 46
2, 20971, Note_on_c, 0, 61, 50
2, 20981, Note_on_c, 0, 61, 0
2, 20982, Note_on_c, 0, 58, 23
2, 20983, Note_on_c, 0, 65, 0
2, 20991, Note_on_c, 0, 58, 0
2, 20998, Note_on_c, 0, 69, 87
2, 21008, Note_on_c, 0, 68, 30
2, 21015, Note_on_c, 0, 68, 0
2, 21057, Note_on_c, 0, 69, 0
2, 21076, Note_on_c, 0, 69, 55
2, 21081, Note_on_c, 0, 60, 47
2, 21086, Note_on_c, 0, 57, 38
2, 21089, Note_on_c, 0, 60, 0
2, 21096, Note_on_c, 0, 57, 0
2, 21113, Note_on_c, 0, 69, 0
2, 21128, Note_on_c, 0, 64, 25
2, 21180, Note_on_c, 0, 64, 0
2, 21203, Note_on_c, 0, 64, 54
2, 21224, Note_on_c, 0, 64, 0
2, 21238, Note_on_c, 0, 67, 101
2, 21299, Note_on_c, 0, 67, 0
2, 21316, Note_on_c, 0, 67, 73
2, 21321, Note_on_c, 0, 60, 37
2, 21329, Note_on_c, 0, 60, 0
2, 21352, Note_on_c, 0, 67, 0
2, 21365, Note_on_c, 0, 65, 62
2, 21441, Note_on_c, 0, 65, 0
2, 21444, Note_on_c, 0, 61, 37
2, 21448, Note_on_c, 0, 53, 30
2, 21462, Note_on_c, 0, 61, 0
2, 21465, Note_on_c, 0, 53, 0
2, 21475, Note_on_c, 0, 64, 80
2, 21545, Note_on_c, 0, 64, 0
2, 21556, Note_on_c, 0, 53, 36
2, 21559, Note_on_c, 0, 61, 62
2, 21565, Note_on_c, 0, 53, 0
2, 21648, Note_on_c, 0, 61, 0
2, 21649, Note_on_c, 0, 57, 45
2, 21671, Note_on_c, 0, 57, 0
2, 21687, Note_on_c, 0, 59, 46
2, 21715, Note_on_c, 0, 59, 0
2, 21724, Note_on_c, 0, 61, 36
2, 21748, Note_on_c, 0, 61, 0
2, 21766, Note_on_c, 0, 64, 61
2, 21795, Note_on_c, 0, 64, 0
2, 21799, Note_on_c, 0, 69, 67
2, 21836, Note_on_c, 0, 73, 45
2, 21837, Note_on_c, 0, 69, 0
2, 21852, Note_on_c, 0, 73, 0
2, 21870, Note_on_c, 0, 76, 69
2, 21903, Note_on_c, 0, 81, 50
2, 21932, Note_on_c, 0, 85, 58
2, 21949, Note_on_c, 0, 59, 27
2, 21954, Note_on_c, 0, 81, 0
2, 21958, Note_on_c, 0, 76, 0
2, 21964, Note_on_c, 0, 88, 82
2, 21970, Note_on_c, 0, 85, 0
2, 21974, Note_on_c, 0, 59, 0
2, 22002, Note_on_c, 0, 85, 46
2, 22003, Note_on_c, 0, 88, 0
2, 22018, Note_on_c, 0, 85, 0
2, 22165, Note_on_c, 0, 58, 35
2, 22170, Note_on_c, 0, 57, 27
2, 22177, Note_on_c, 0, 57, 0
2, 22182, Note_on_c, 0, 58, 0
2, 22285, Note_on_c, 0, 89, 64
2, 22304, Note_on_c, 0, 89, 0
2, 22318, Note_on_c, 0, 81, 88
2, 22318, Note_on_c, 0, 93, 92
2, 22320, Note_on_c, 0, 89, 67
2, 22320, Note_on_c, 0, 86, 73
2, 22351, Note_on_c, 0, 86, 0
2, 22359, Note_on_c, 0, 81, 0
2, 22361, Note_on_c, 0, 93, 0
2, 22367, Note_on_c, 0, 89, 0
2, 22400, Note_on_c, 0, 92, 75
2, 22401, Note_on_c, 0, 57, 74
2, 22401, Note_on_c, 0, 58, 70
2, 22401, Note_on_c, 0, 84, 75
2, 22402, Note_on_c, 0, 96, 82
2, 22402, Note_on_c, 0, 62, 71
2, 22404, Note_on_c, 0, 90, 47
2, 22411, Note_on_c, 0, 90, 0
2, 22426, Note_on_c, 0, 92, 0
2, 22426, Note_on_c, 0, 93, 67
2, 22433, Note_on_c, 0, 93, 0
2, 22434, Note_on_c, 0, 96, 0
2, 22435, Note_on_c, 0, 84, 0
2, 22453, Note_on_c, 0, 62, 0
2, 22457, Note_on_c, 0, 93, 55
2, 22458, Note_on_c, 0, 58, 0
2, 22462, Note_on_c, 0, 81, 39
2, 22467, Note_on_c, 0, 57, 0
2, 22502, Note_on_c, 0, 93, 0
2, 22511, Note_on_c, 0, 81, 0
2, 22639, Note_on_c, 0, 64, 71
2, 22641, Note_on_c, 0, 58, 57
2, 22647, Note_on_c, 0, 64, 0
2, 22661, Note_on_c, 0, 58, 0
2, 22682, Note_on_c, 0, 69, 43
2, 22713, Note_on_c, 0, 69, 0
2, 22760, Note_on_c, 0, 72, 70
2, 22765, Note_on_c, 0, 62, 66
2, 22768, Note_on_c, 0, 60, 68
2, 22771, Note_on_c, 0, 70, 29
2, 22777, Note_on_c, 0, 62, 0
2, 22780, Note_on_c, 0, 70, 0
2, 22785, Note_on_c, 0, 60, 0
2, 22814, Note_on_c, 0, 61, 35
2, 22814, Note_on_c, 0, 64, 44
2, 22816, Note_on_c, 0, 60, 71
2, 22836, Note_on_c, 0, 60, 0
2, 22841, Note_on_c, 0, 64, 0
2, 22848, Note_on_c, 0, 61, 0
2, 22851, Note_on_c, 0, 72, 0
2, 22888, Note_on_c, 0, 72, 63
2, 22888, Note_on_c, 0, 60, 77
2, 22888, Note_on_c, 0, 61, 50
2, 22889, Note_on_c, 0, 64, 55
2, 22894, Note_on_c, 0, 67, 51
2, 22900, Note_on_c, 0, 70, 25
2, 22906, Note_on_c, 0, 60, 0
2, 22912, Note_on_c, 0, 61, 0
2, 22914, Note_on_c, 0, 72, 0
2, 22916, Note_on_c, 0, 64, 0
2, 22919, Note_on_c, 0, 67, 0
2, 22920, Note_on_c, 0, 70, 0
2, 22934, Note_on_c, 0, 72, 77
2, 22935, Note_on_c, 0, 60, 74
2, 22936, Note_on_c, 0, 61, 54
2, 22936, Note_on_c, 0, 64, 68
2, 22939, Note_on_c, 0, 67, 44
2, 22942, Note_on_c, 0, 70, 38
2, 22951, Note_on_c, 0, 70, 0
2, 22951, Note_on_c, 0, 60, 0
2, 22952, Note_on_c, 0, 67, 0
2, 22955, Note_on_c, 0, 72, 0
2, 22955, Note_on_c, 0, 61, 0
2, 22961, Note_on_c, 0, 64, 0
2, 22975, Note_on_c, 0, 59, 53
2, 22977, Note_on_c, 0, 64, 40
2, 22987, Note_on_c, 0, 64, 0
2, 23000, Note_on_c, 0, 59, 0
2, 23014, Note_on_c, 0, 70, 49
2, 23014, Note_on_c, 0, 61, 56
2, 23014, Note_on_c, 0, 58, 69
2, 23033, Note_on_c, 0, 70, 0
2, 23035, Note_on_c, 0, 61, 0
2, 23047, Note_on_c, 0, 58, 0
2, 23057, Note_on_c, 0, 69, 66
2, 23059, Note_on_c, 0, 60, 61
2, 23059, Note_on_c, 0, 57, 55
2, 23061, Note_on_c, 0, 65, 45
2, 23062, Note_on_c, 0, 62, 51
2, 23089, Note_on_c, 0, 69, 0
2, 23092, Note_on_c, 0, 65, 0
2, 23095, Note_on_c, 0, 62, 0
2, 23098, Note_on_c, 0, 57, 0
2, 23099, Note_on_c, 0, 60, 0
2, 23137, Note_on_c, 0, 69, 61
2, 23138, Note_on_c, 0, 57, 66
2, 23139, Note_on_c, 0, 62, 51
2, 23141, Note_on_c, 0, 65, 42
2, 23141, Note_on_c, 0, 60, 43
2, 23158, Note_on_c, 0, 60, 0
2, 23158, Note_on_c, 0, 57, 0
2, 23162, Note_on_c, 0, 65, 0
2, 23162, Note_on_c, 0, 62, 0
2, 23163, Note_on_c, 0, 69, 0
2, 23275, Note_on_c, 0, 54, 35
2, 23290, Note_on_c, 0, 56, 36
2, 23294, Note_on_c, 0, 69, 68
2, 23296, Note_on_c, 0, 60, 72
2, 23297, Note_on_c, 0, 57, 72
2, 23297, Note_on_c, 0, 62, 64
2, 23298, Note_on_c, 0, 65, 62
2, 23301, Note_on_c, 0, 54, 0
2, 23306, Note_on_c, 0, 56, 0
2, 23310, Note_on_c, 0, 69, 0
2, 23312, Note_on_c, 0, 60, 0
2, 23314, Note_on_c, 0, 62, 0
2, 23321, Note_on_c, 0, 65, 0
2, 23323, Note_on_c, 0, 57, 0
2, 23334, Note_on_c, 0, 68, 64
2, 23335, Note_on_c, 0, 62, 52
2, 23335, Note_on_c, 0, 56, 62
2, 23336, Note_on_c, 0, 60, 58
2, 23343, Note_on_c, 0, 65, 30
2, 23351, Note_on_c, 0, 65, 0
2, 23357, Note_on_c, 0, 60, 0
2, 23358, Note_on_c, 0, 56, 0
2, 23358, Note_on_c, 0, 62, 0
2, 23361, Note_on_c, 0, 68, 0
2, 23370, Note_on_c, 0, 55, 53
2, 23396, Note_on_c, 0, 55, 0
2, 23416, Note_on_c, 0, 54, 43
2, 23439, Note_on_c, 0, 54, 0
2, 23489, Note_on_c, 0, 65, 68
2, 23491, Note_on_c, 0, 56, 64
2, 23492, Note_on_c, 0, 62, 47
2, 23493, Note_on_c, 0, 59, 66
2, 23494, Note_on_c, 0, 53, 59
2, 23613, Note_on_c, 0, 62, 0
2, 23627, Note_on_c, 0, 56, 0
2, 23636, Note_on_c, 0, 59, 0
2, 23642, Note_on_c, 0, 65, 0
2, 23647, Note_on_c, 0, 53, 0
2, 23647, Note_on_c, 0, 62, 40
2, 23651, Note_on_c, 0, 56, 29
2, 23652, Note_on_c, 0, 50, 39
2, 23655, Note_on_c, 0, 59, 19
2, 23693, Note_on_c, 0, 59, 0
2, 23704, Note_on_c, 0, 56, 0
2, 23725, Note_on_c, 0, 62, 0
2, 23726, Note_on_c, 0, 50, 0
2, 23728, Note_on_c, 0, 56, 34
2, 23731, Note_on_c, 0, 59, 51
2, 23734, Note_on_c, 0, 47, 42
2, 23740, Note_on_c, 0, 59, 0
2, 23742, Note_on_c, 0, 56, 0
2, 23747, Note_on_c, 0, 47, 0
2, 23891, Note_on_c, 0, 69, 55
2, 23918, Note_on_c, 0, 69, 0
2, 23921, Note_on_c, 0, 70, 64
2, 23937, Note_on_c, 0, 70, 0
2, 23955, Note_on_c, 0, 74, 64
2, 23976, Note_on_c, 0, 74, 0
2, 23987, Note_on_c, 0, 77, 32
2, 24017, Note_on_c, 0, 77, 0
2, 24022, Note_on_c, 0, 81, 49
2, 24041, Note_on_c, 0, 81, 0
2, 24051, Note_on_c, 0, 84, 75
2, 24053, Note_on_c, 0, 72, 76
2, 24091, Note_on_c, 0, 84, 0
2, 24094, Note_on_c, 0, 72, 0
2, 24128, Note_on_c, 0, 84, 73
2, 24131, Note_on_c, 0, 72, 74
2, 24183, Note_on_c, 0, 72, 0
2, 24185, Note_on_c, 0, 84, 0
2, 24207, Note_on_c, 0, 84, 59
2, 24208, Note_on_c, 0, 72, 71
2, 24238, Note_on_c, 0, 84, 0
2, 24243, Note_on_c, 0, 72, 0
2, 24269, Note_on_c, 0, 72, 48
2, 24270, Note_on_c, 0, 84, 42
2, 24296, Note_on_c, 0, 84, 0
2, 24298, Note_on_c, 0, 72, 0
2, 24475, Note_on_c, 0, 62, 42
2, 24477, Note_on_c, 0, 58, 31
2, 24482, Note_on_c, 0, 52, 38
2, 24518, Note_on_c, 0, 58, 0
2, 24520, Note_on_c, 0, 52, 0
2, 24526, Note_on_c, 0, 62, 0
2, 24599, Note_on_c, 0, 62, 50
2, 24600, Note_on_c, 0, 58, 37
2, 24605, Note_on_c, 0, 52, 26
2, 24622, Note_on_c, 0, 52, 0
2, 24631, Note_on_c, 0, 62, 0
2, 24634, Note_on_c, 0, 58, 0
2, 24809, Note_on_c, 0, 58, 62
2, 24810, Note_on_c, 0, 62, 57
2, 24818, Note_on_c, 0, 62, 0
2, 24826, Note_on_c, 0, 58, 0
2, 24842, Note_on_c, 0, 80, 83
2, 24843, Note_on_c, 0, 74, 87
2, 24843, Note_on_c, 0, 86, 82
2, 24911, Note_on_c, 0, 80, 0
2, 24912, Note_on_c, 0, 81, 26
2, 24930, Note_on_c, 0, 81, 0
2, 24933, Note_on_c, 0, 86, 0
2, 24937, Note_on_c, 0, 74, 0
2, 24968, Note_on_c, 0, 72, 70
2, 24970, Note_on_c, 0, 84, 46
2, 24971, Note_on_c, 0, 80, 52
2, 24975, Note_on_c, 0, 78, 42
2, 25008, Note_on_c, 0, 78, 0
2, 25027, Note_on_c, 0, 72, 0
2, 25034, Note_on_c, 0, 80, 0
2, 25034, Note_on_c, 0, 84, 0
2, 25034, Note_on_c, 0, 81, 36
2, 25042, Note_on_c, 0, 81, 0
2, 25083, Note_on_c, 0, 74, 87
2, 25084, Note_on_c, 0, 80, 77
2, 25084, Note_on_c, 0, 86, 81
2, 25154, Note_on_c, 0, 80, 0
2, 25167, Note_on_c, 0, 86, 0
2, 25169, Note_on_c, 0, 74, 0
2, 25199, Note_on_c, 0, 84, 60
2, 25200, Note_on_c, 0, 72, 61
2, 25242, Note_on_c, 0, 72, 0
2, 25262, Note_on_c, 0, 84, 0
2, 25285, Note_on_c, 0, 62, 42
2, 25289, Note_on_c, 0, 57, 46
2, 25295, Note_on_c, 0, 62, 0
2, 25300, Note_on_c, 0, 57, 0
2, 25442, Note_on_c, 0, 62, 42
2, 25445, Note_on_c, 0, 60, 36
2, 25445, Note_on_c, 0, 54, 34
2, 25462, Note_on_c, 0, 60, 0
2, 25464, Note_on_c, 0, 62, 0
2, 25474, Note_on_c, 0, 54, 0
2, 25564, Note_on_c, 0, 98, 91
2, 25614, Note_on_c, 0, 98, 0
2, 25641, Note_on_c, 0, 62, 49
2, 25643, Note_on_c, 0, 99, 77
2, 25644, Note_on_c, 0, 60, 43
2, 25646, Note_on_c, 0, 54, 30
2, 25651, Note_on_c, 0, 62, 0
2, 25653, Note_on_c, 0, 60, 0
2, 25658, Note_on_c, 0, 54, 0
2, 25684, Note_on_c, 0, 99, 0
2, 25712, Note_on_c, 0, 98, 66
2, 25744, Note_on_c, 0, 98, 0
2, 25760, Note_on_c, 0, 97, 71
2, 25800, Note_on_c, 0, 97, 0
2, 25814, Note_on_c, 0, 96, 49
2, 25856, Note_on_c, 0, 96, 0
2, 25881, Note_on_c, 0, 58, 52
2, 25882, Note_on_c, 0, 94, 68
2, 25883, Note_on_c, 0, 62, 42
2, 25894, Note_on_c, 0, 62, 0
2, 25899, Note_on_c, 0, 94, 0
2, 25903, Note_on_c, 0, 58, 0
2, 25926, Note_on_c, 0, 93, 60
2, 25958, Note_on_c, 0, 94, 50
2, 25966, Note_on_c, 0, 93, 0
2, 25987, Note_on_c, 0, 94, 0
2, 25988, Note_on_c, 0, 95, 55
2, 26006, Note_on_c, 0, 95, 0
2, 26015, Note_on_c, 0, 96, 71
2, 26032, Note_on_c, 0, 96, 0
2, 26175, Note_on_c, 0, 90, 55
2, 26210, Note_on_c, 0, 90, 0
2, 26211, Note_on_c, 0, 91, 52
2, 26225, Note_on_c, 0, 92, 60
2, 26235, Note_on_c, 0, 91, 0
2, 26252, Note_on_c, 0, 93, 78
2, 26257, Note_on_c, 0, 92, 0
2, 26273, Note_on_c, 0, 93, 0
2, 26293, Note_on_c, 0, 86, 60
2, 26320, Note_on_c, 0, 87, 50
2, 26332, Note_on_c, 0, 86, 0
2, 26347, Note_on_c, 0, 87, 0
2, 26347, Note_on_c, 0, 88, 50
2, 26369, Note_on_c, 0, 89, 68
2, 26372, Note_on_c, 0, 88, 0
2, 26393, Note_on_c, 0, 89, 0
2, 26541, Note_on_c, 0, 84, 74
2, 26564, Note_on_c, 0, 85, 46
2, 26581, Note_on_c, 0, 84, 0
2, 26589, Note_on_c, 0, 86, 64
2, 26611, Note_on_c, 0, 85, 0
2, 26613, Note_on_c, 0, 86, 0
2, 26616, Note_on_c, 0, 87, 69
2, 26636, Note_on_c, 0, 87, 0
2, 26729, Note_on_c, 0, 79, 51
2, 26732, Note_on_c, 0, 63, 45
2, 26737, Note_on_c, 0, 58, 37
2, 26738, Note_on_c, 0, 79, 0
2, 26751, Note_on_c, 0, 63, 0
2, 26762, Note_on_c, 0, 58, 0
2, 26802, Note_on_c, 0, 84, 80
2, 26825, Note_on_c, 0, 84, 0
2, 26863, Note_on_c, 0, 82, 69
2, 26893, Note_on_c, 0, 82, 0
2, 26925, Note_on_c, 0, 81, 61
2, 26951, Note_on_c, 0, 81, 0
2, 26980, Note_on_c, 0, 63, 47
2, 26980, Note_on_c, 0, 79, 63
2, 27001, Note_on_c, 0, 63, 0
2, 27002, Note_on_c, 0, 79, 0
2, 27010, Note_on_c, 0, 58, 23
2, 27029, Note_on_c, 0, 58, 0
2, 27040, Note_on_c, 0, 77, 40
2, 27063, Note_on_c, 0, 77, 0
2, 27096, Note_on_c, 0, 63, 45
2, 27097, Note_on_c, 0, 58, 43
2, 27099, Note_on_c, 0, 75, 64
2, 27122, Note_on_c, 0, 75, 0
2, 27133, Note_on_c, 0, 63, 0
2, 27151, Note_on_c, 0, 70, 53
2, 27172, Note_on_c, 0, 58, 0
2, 27199, Note_on_c, 0, 70, 0
2, 27214, Note_on_c, 0, 67, 67
2, 27233, Note_on_c, 0, 67, 0
2, 27266, Note_on_c, 0, 63, 31
2, 27329, Note_on_c, 0, 58, 62
2, 27341, Note_on_c, 0, 63, 0
2, 27362, Note_on_c, 0, 58, 0
2, 27386, Note_on_c, 0, 55, 32
2, 27440, Note_on_c, 0, 55, 0
2, 27447, Note_on_c, 0, 56, 61
2, 27482, Note_on_c, 0, 56, 0
2, 27495, Note_on_c, 0, 57, 49
2, 27565, Note_on_c, 0, 57, 0
2, 27682, Note_on_c, 0, 51, 50
2, 27694, Note_on_c, 0, 51, 0
2, 27806, Note_on_c, 0, 65, 103
2, 27813, Note_on_c, 0, 57, 36
2, 27816, Note_on_c, 0, 46, 27
2, 27818, Note_on_c, 0, 53, 27
2, 27821, Note_on_c, 0, 57, 0
2, 27832, Note_on_c, 0, 53, 0
2, 27836, Note_on_c, 0, 46, 0
2, 27836, Note_on_c, 0, 65, 0
2, 27865, Note_on_c, 0, 60, 51
2, 27931, Note_on_c, 0, 60, 0
2, 27936, Note_on_c, 0, 57, 60
2, 28054, Note_on_c, 0, 58, 67
2, 28060, Note_on_c, 0, 57, 0
2, 28084, Note_on_c, 0, 58, 0
2, 28109, Note_on_c, 0, 60, 51
2, 28166, Note_on_c, 0, 60, 0
2, 28174, Note_on_c, 0, 62, 65
2, 28174, Note_on_c, 0, 57, 51
2, 28181, Note_on_c, 0, 57, 0
2, 28258, Note_on_c, 0, 62, 0
2, 28270, Note_on_c, 0, 63, 48
2, 28295, Note_on_c, 0, 63, 0
2, 28315, Note_on_c, 0, 64, 35
2, 28319, Note_on_c, 0, 65, 39
2, 28326, Note_on_c, 0, 65, 0
2, 28340, Note_on_c, 0, 64, 0
2, 28365, Note_on_c, 0, 66, 46
2, 28383, Note_on_c, 0, 66, 0
2, 28433, Note_on_c, 0, 65, 37
2, 28435, Note_on_c, 0, 61, 30
2, 28442, Note_on_c, 0, 65, 0
2, 28454, Note_on_c, 0, 61, 0
2, 28467, Note_on_c, 0, 72, 47
2, 28478, Note_on_c, 0, 72, 0
2, 28499, Note_on_c, 0, 77, 60
2, 28529, Note_on_c, 0, 82, 68
2, 28531, Note_on_c, 0, 77, 0
2, 28532, Note_on_c, 0, 61, 43
2, 28547, Note_on_c, 0, 82, 0
2, 28555, Note_on_c, 0, 61, 0
2, 28566, Note_on_c, 0, 84, 68
2, 28594, Note_on_c, 0, 89, 60
2, 28596, Note_on_c, 0, 84, 0
2, 28621, Note_on_c, 0, 89, 0
2, 28626, Note_on_c, 0, 94, 70
2, 28653, Note_on_c, 0, 94, 0
2, 28656, Note_on_c, 0, 61, 35
2, 28658, Note_on_c, 0, 96, 82
2, 28659, Note_on_c, 0, 65, 45
2, 28659, Note_on_c, 0, 84, 65
2, 28660, Note_on_c, 0, 60, 38
2, 28663, Note_on_c, 0, 55, 43
2, 28667, Note_on_c, 0, 58, 25
2, 28680, Note_on_c, 0, 84, 0
2, 28683, Note_on_c, 0, 65, 0
2, 28691, Note_on_c, 0, 96, 0
2, 28698, Note_on_c, 0, 94, 51
2, 28714, Note_on_c, 0, 60, 0
2, 28718, Note_on_c, 0, 58, 0
2, 28719, Note_on_c, 0, 94, 0
2, 28721, Note_on_c, 0, 55, 0
2, 28731, Note_on_c, 0, 96, 76
2, 28736, Note_on_c, 0, 84, 47
2, 28739, Note_on_c, 0, 55, 12
2, 28740, Note_on_c, 0, 65, 35
2, 28741, Note_on_c, 0, 60, 24
2, 28753, Note_on_c, 0, 96, 0
2, 28755, Note_on_c, 0, 65, 0
2, 28757, Note_on_c, 0, 84, 0
2, 28767, Note_on_c, 0, 60, 0
2, 28768, Note_on_c, 0, 94, 52
2, 28771, Note_on_c, 0, 61, 0
2, 28776, Note_on_c, 0, 55, 0
2, 28790, Note_on_c, 0, 94, 0
2, 28801, Note_on_c, 0, 96, 79
2, 28804, Note_on_c, 0, 84, 51
2, 28811, Note_on_c, 0, 55, 32
2, 28823, Note_on_c, 0, 84, 0
2, 28827, Note_on_c, 0, 55, 0
2, 28828, Note_on_c, 0, 96, 0
2, 28843, Note_on_c, 0, 93, 53
2, 28854, Note_on_c, 0, 93, 0
2, 28891, Note_on_c, 0, 88, 46
2, 28895, Note_on_c, 0, 60, 34
2, 28897, Note_on_c, 0, 57, 33
2, 28900, Note_on_c, 0, 55, 22
2, 28901, Note_on_c, 0, 88, 0
2, 28908, Note_on_c, 0, 55, 0
2, 28909, Note_on_c, 0, 57, 0
2, 28909, Note_on_c, 0, 60, 0
2, 28939, Note_on_c, 0, 88, 73
2, 28939, Note_on_c, 0, 64, 33
2, 28944, Note_on_c, 0, 57, 22
2, 28945, Note_on_c, 0, 60, 24
2, 28946, Note_on_c, 0, 55, 20
2, 28955, Note_on_c, 0, 60, 0
2, 28955, Note_on_c, 0, 64, 0
2, 28956, Note_on_c, 0, 88, 0
2, 28956, Note_on_c, 0, 55, 0
2, 28957, Note_on_c, 0, 57, 0
2, 29000, Note_on_c, 0, 64, 36
2, 29001, Note_on_c, 0, 55, 28
2, 29003, Note_on_c, 0, 60, 42
2, 29004, Note_on_c, 0, 57, 31
2, 29007, Note_on_c, 0, 88, 81
2, 29014, Note_on_c, 0, 57, 0
2, 29015, Note_on_c, 0, 64, 0
2, 29016, Note_on_c, 0, 55, 0
2, 29018, Note_on_c, 0, 60, 0
2, 29023, Note_on_c, 0, 88, 0
2, 29049, Note_on_c, 0, 87, 75
2, 29052, Note_on_c, 0, 65, 58
2, 29053, Note_on_c, 0, 60, 40
2, 29055, Note_on_c, 0, 58, 40
2, 29059, Note_on_c, 0, 54, 40
2, 29097, Note_on_c, 0, 65, 0
2, 29105, Note_on_c, 0, 58, 0
2, 29105, Note_on_c, 0, 54, 0
2, 29106, Note_on_c, 0, 60, 0
2, 29114, Note_on_c, 0, 87, 0
2, 29122, Note_on_c, 0, 54, 38
2, 29122, Note_on_c, 0, 89, 68
2, 29124, Note_on_c, 0, 65, 42
2, 29125, Note_on_c, 0, 58, 34
2, 29127, Note_on_c, 0, 60, 53
2, 29138, Note_on_c, 0, 65, 0
2, 29144, Note_on_c, 0, 60, 0
2, 29149, Note_on_c, 0, 58, 0
2, 29156, Note_on_c, 0, 89, 0
2, 29164, Note_on_c, 0, 87, 57
2, 29165, Note_on_c, 0, 65, 41
2, 29166, Note_on_c, 0, 58, 27
2, 29169, Note_on_c, 0, 60, 54
2, 29198, Note_on_c, 0, 65, 0
2, 29200, Note_on_c, 0, 60, 0
2, 29224, Note_on_c, 0, 58, 0
2, 29230, Note_on_c, 0, 54, 0
2, 29232, Note_on_c, 0, 87, 0
2, 29238, Note_on_c, 0, 62, 61
2, 29243, Note_on_c, 0, 86, 65
2, 29243, Note_on_c, 0, 58, 33
2, 29244, Note_on_c, 0, 57, 60
2, 29246, Note_on_c, 0, 53, 44
2, 29315, Note_on_c, 0, 86, 0
2, 29329, Note_on_c, 0, 57, 0
2, 29331, Note_on_c, 0, 53, 0
2, 29332, Note_on_c, 0, 62, 0
2, 29340, Note_on_c, 0, 58, 0
2, 29358, Note_on_c, 0, 62, 55
2, 29358, Note_on_c, 0, 58, 51
2, 29361, Note_on_c, 0, 57, 51
2, 29361, Note_on_c, 0, 96, 84
2, 29364, Note_on_c, 0, 53, 51
2, 29387, Note_on_c, 0, 53, 0
2, 29391, Note_on_c, 0, 57, 0
2, 29391, Note_on_c, 0, 62, 0
2, 29394, Note_on_c, 0, 96, 0
2, 29397, Note_on_c, 0, 58, 0
2, 29408, Note_on_c, 0, 62, 48
2, 29410, Note_on_c, 0, 58, 28
2, 29413, Note_on_c, 0, 57, 29
2, 29414, Note_on_c, 0, 86, 50
2, 29417, Note_on_c, 0, 53, 26
2, 29428, Note_on_c, 0, 57, 0
2, 29431, Note_on_c, 0, 62, 0
2, 29432, Note_on_c, 0, 53, 0
2, 29441, Note_on_c, 0, 58, 0
2, 29450, Note_on_c, 0, 86, 0
2, 29482, Note_on_c, 0, 58, 47
2, 29486, Note_on_c, 0, 85, 65
2, 29505, Note_on_c, 0, 58, 0
2, 29516, Note_on_c, 0, 85, 0
2, 29524, Note_on_c, 0, 58, 38
2, 29524, Note_on_c, 0, 63, 50
2, 29529, Note_on_c, 0, 84, 51
2, 29580, Note_on_c, 0, 63, 0
2, 29587, Note_on_c, 0, 58, 0
2, 29591, Note_on_c, 0, 84, 0
2, 29603, Note_on_c, 0, 89, 74
2, 29604, Note_on_c, 0, 63, 50
2, 29606, Note_on_c, 0, 58, 48
2, 29610, Note_on_c, 0, 52, 38
2, 29621, Note_on_c, 0, 52, 0
2, 29624, Note_on_c, 0, 63, 0
2, 29632, Note_on_c, 0, 58, 0
2, 29634, Note_on_c, 0, 89, 0
2, 29649, Note_on_c, 0, 63, 28
2, 29650, Note_on_c, 0, 82, 50
2, 29652, Note_on_c, 0, 52, 30
2, 29652, Note_on_c, 0, 58, 29
2, 29678, Note_on_c, 0, 63, 0
2, 29686, Note_on_c, 0, 58, 0
2, 29692, Note_on_c, 0, 82, 0
2, 29699, Note_on_c, 0, 52, 0
2, 29714, Note_on_c, 0, 63, 32
2, 29722, Note_on_c, 0, 58, 25
2, 29724, Note_on_c, 0, 80, 43
2, 29735, Note_on_c, 0, 58, 0
2, 29736, Note_on_c, 0, 63, 0
2, 29740, Note_on_c, 0, 80, 0
2, 29756, Note_on_c, 0, 62, 39
2, 29765, Note_on_c, 0, 60, 36
2, 29765, Note_on_c, 0, 53, 38
2, 29766, Note_on_c, 0, 80, 58
2, 29767, Note_on_c, 0, 57, 50
2, 29809, Note_on_c, 0, 80, 0
2, 29811, Note_on_c, 0, 81, 52
2, 29821, Note_on_c, 0, 60, 0
2, 29824, Note_on_c, 0, 62, 0
2, 29826, Note_on_c, 0, 57, 0
2, 29828, Note_on_c, 0, 53, 0
2, 29830, Note_on_c, 0, 81, 0
2, 29843, Note_on_c, 0, 62, 55
2, 29845, Note_on_c, 0, 84, 81
2, 29847, Note_on_c, 0, 60, 43
2, 29848, Note_on_c, 0, 57, 61
2, 29850, Note_on_c, 0, 53, 32
2, 29859, Note_on_c, 0, 60, 0
2, 29860, Note_on_c, 0, 62, 0
2, 29861, Note_on_c, 0, 53, 0
2, 29864, Note_on_c, 0, 57, 0
2, 29869, Note_on_c, 0, 84, 0
2, 29881, Note_on_c, 0, 62, 54
2, 29882, Note_on_c, 0, 86, 91
2, 29882, Note_on_c, 0, 53, 57
2, 29883, Note_on_c, 0, 60, 65
2, 29884, Note_on_c, 0, 57, 80
2, 29964, Note_on_c, 0, 62, 0
2, 29969, Note_on_c, 0, 53, 0
2, 29970, Note_on_c, 0, 60, 0
2, 29972, Note_on_c, 0, 57, 0
2, 29975, Note_on_c, 0, 86, 0
2, 30000, Note_on_c, 0, 62, 49
2, 30002, Note_on_c, 0, 84, 69
2, 30003, Note_on_c, 0, 57, 48
2, 30003, Note_on_c, 0, 60, 50
2, 30004, Note_on_c, 0, 53, 47
2, 30059, Note_on_c, 0, 62, 0
2, 30063, Note_on_c, 0, 53, 0
2, 30064, Note_on_c, 0, 57, 0
2, 30065, Note_on_c, 0, 60, 0
2, 30069, Note_on_c, 0, 84, 0
2, 30081, Note_on_c, 0, 62, 51
2, 30081, Note_on_c, 0, 86, 80
2, 30084, Note_on_c, 0, 60, 69
2, 30084, Note_on_c, 0, 53, 49
2, 30085, Note_on_c, 0, 57, 63
2, 30088, Note_on_c, 0, 84, 32
2, 30095, Note_on_c, 0, 84, 0
2, 30099, Note_on_c, 0, 62, 0
2, 30109, Note_on_c, 0, 60, 0
2, 30115, Note_on_c, 0, 86, 0
2, 30122, Note_on_c, 0, 60, 24
2, 30123, Note_on_c, 0, 62, 36
2, 30128, Note_on_c, 0, 84, 53
2, 30161, Note_on_c, 0, 60, 0
2, 30164, Note_on_c, 0, 84, 0
2, 30169, Note_on_c, 0, 62, 0
2, 30169, Note_on_c, 0, 53, 0
2, 30180, Note_on_c, 0, 57, 0
2, 30198, Note_on_c, 0, 57, 74
2, 30199, Note_on_c, 0, 86, 74
2, 30200, Note_on_c, 0, 77, 67
2, 30200, Note_on_c, 0, 62, 71
2, 30201, Note_on_c, 0, 82, 73
2, 30201, Note_on_c, 0, 58, 74
2, 30312, Note_on_c, 0, 86, 0
2, 30321, Note_on_c, 0, 77, 0
2, 30329, Note_on_c, 0, 82, 0
2, 30333, Note_on_c, 0, 62, 0
2, 30355, Note_on_c, 0, 62, 57
2, 30357, Note_on_c, 0, 84, 62
2, 30359, Note_on_c, 0, 82, 50
2, 30361, Note_on_c, 0, 76, 44
2, 30362, Note_on_c, 0, 55, 57
2, 30384, Note_on_c, 0, 57, 0
2, 30394, Note_on_c, 0, 62, 0
2, 30395, Note_on_c, 0, 84, 0
2, 30396, Note_on_c, 0, 76, 0
2, 30403, Note_on_c, 0, 82, 0
2, 30406, Note_on_c, 0, 55, 0
2, 30409, Note_on_c, 0, 58, 0
2, 30477, Note_on_c, 0, 61, 50
2, 30478, Note_on_c, 0, 58, 47
2, 30478, Note_on_c, 0, 85, 59
2, 30479, Note_on_c, 0, 82, 59
2, 30481, Note_on_c, 0, 52, 47
2, 30482, Note_on_c, 0, 76, 43
2, 30498, Note_on_c, 0, 76, 0
2, 30499, Note_on_c, 0, 61, 0
2, 30503, Note_on_c, 0, 52, 0
2, 30504, Note_on_c, 0, 82, 0
2, 30510, Note_on_c, 0, 85, 0
2, 30511, Note_on_c, 0, 58, 0
2, 30602, Note_on_c, 0, 87, 82
2, 30603, Note_on_c, 0, 61, 69
2, 30603, Note_on_c, 0, 82, 73
2, 30604, Note_on_c, 0, 76, 70
2, 30604, Note_on_c, 0, 58, 62
2, 30610, Note_on_c, 0, 52, 47
2, 30614, Note_on_c, 0, 76, 0
2, 30617, Note_on_c, 0, 61, 0
2, 30617, Note_on_c, 0, 87, 0
2, 30618, Note_on_c, 0, 52, 0
2, 30620, Note_on_c, 0, 82, 0
2, 30622, Note_on_c, 0, 58, 0
2, 30717, Note_on_c, 0, 62, 50
2, 30727, Note_on_c, 0, 60, 53
2, 30735, Note_on_c, 0, 57, 41
2, 30736, Note_on_c, 0, 53, 36
2, 30753, Note_on_c, 0, 53, 0
2, 30753, Note_on_c, 0, 62, 0
2, 30761, Note_on_c, 0, 60, 0
2, 30777, Note_on_c, 0, 57, 0
2, 30844, Note_on_c, 0, 69, 90
2, 30881, Note_on_c, 0, 69, 0
2, 30972, Note_on_c, 0, 62, 62
2, 31049, Note_on_c, 0, 62, 0
2, 31055, Note_on_c, 0, 60, 69
2, 31092, Note_on_c, 0, 60, 0
2, 31102, Note_on_c, 0, 59, 28
2, 31184, Note_on_c, 0, 62, 68
2, 31187, Note_on_c, 0, 59, 0
2, 31223, Note_on_c, 0, 62, 0
2, 31242, Note_on_c, 0, 56, 52
2, 31330, Note_on_c, 0, 56, 0
2, 31341, Note_on_c, 0, 53, 67
2, 31446, Note_on_c, 0, 53, 0
2, 31471, Note_on_c, 0, 50, 35
2, 31521, Note_on_c, 0, 50, 0
2, 31532, Note_on_c, 0, 44, 62
2, 31658, Note_on_c, 0, 50, 34
2, 31675, Note_on_c, 0, 44, 0
2, 31680, Note_on_c, 0, 50, 0
2, 31697, Note_on_c, 0, 57, 105
2, 31701, Note_on_c, 0, 43, 37
2, 31721, Note_on_c, 0, 43, 0
2, 31761, Note_on_c, 0, 57, 0
2, 31776, Note_on_c, 0, 54, 40
2, 31786, Note_on_c, 0, 50, 18
2, 31796, Note_on_c, 0, 50, 0
2, 31804, Note_on_c, 0, 54, 0
2, 31822, Note_on_c, 0, 55, 53
2, 31888, Note_on_c, 0, 55, 0
2, 31895, Note_on_c, 0, 57, 64
2, 31925, Note_on_c, 0, 57, 0
2, 31941, Note_on_c, 0, 58, 35
2, 31987, Note_on_c, 0, 58, 0
2, 32015, Note_on_c, 0, 62, 47
2, 32022, Note_on_c, 0, 57, 36
2, 32041, Note_on_c, 0, 57, 0
2, 32049, Note_on_c, 0, 62, 0
2, 32061, Note_on_c, 0, 66, 40
2, 32124, Note_on_c, 0, 66, 0
2, 32135, Note_on_c, 0, 69, 74
2, 32189, Note_on_c, 0, 69, 0
2, 32215, Note_on_c, 0, 71, 68
2, 32239, Note_on_c, 0, 71, 0
2, 32272, Note_on_c, 0, 74, 68
2, 32283, Note_on_c, 0, 58, 27
2, 32297, Note_on_c, 0, 58, 0
2, 32319, Note_on_c, 0, 78, 52
2, 32326, Note_on_c, 0, 74, 0
2, 32351, Note_on_c, 0, 78, 0
2, 32374, Note_on_c, 0, 81, 77
2, 32380, Note_on_c, 0, 63, 63
2, 32380, Note_on_c, 0, 58, 59
2, 32386, Note_on_c, 0, 52, 44
2, 32403, Note_on_c, 0, 52, 0
2, 32403, Note_on_c, 0, 63, 0
2, 32422, Note_on_c, 0, 81, 0
2, 32427, Note_on_c, 0, 58, 0
2, 32428, Note_on_c, 0, 86, 57
2, 32463, Note_on_c, 0, 86, 0
2, 32488, Note_on_c, 0, 90, 74
2, 32498, Note_on_c, 0, 58, 60
2, 32500, Note_on_c, 0, 63, 50
2, 32508, Note_on_c, 0, 52, 24
2, 32510, Note_on_c, 0, 63, 0
2, 32517, Note_on_c, 0, 52, 0
2, 32521, Note_on_c, 0, 90, 0
2, 32527, Note_on_c, 0, 58, 0
2, 32539, Note_on_c, 0, 93, 90
2, 32540, Note_on_c, 0, 81, 72
2, 32588, Note_on_c, 0, 93, 0
2, 32589, Note_on_c, 0, 81, 0
2, 32634, Note_on_c, 0, 92, 20
2, 32643, Note_on_c, 0, 92, 0
2, 32729, Note_on_c, 0, 65, 66
2, 32732, Note_on_c, 0, 62, 43
2, 32733, Note_on_c, 0, 57, 43
2, 32739, Note_on_c, 0, 65, 0
2, 32745, Note_on_c, 0, 57, 0
2, 32745, Note_on_c, 0, 62, 0
2, 32765, Note_on_c, 0, 91, 89
2, 32836, Note_on_c, 0, 91, 0
2, 32838, Note_on_c, 0, 62, 47
2, 32854, Note_on_c, 0, 88, 42
2, 32867, Note_on_c, 0, 88, 0
2, 32870, Note_on_c, 0, 62, 0
2, 32890, Note_on_c, 0, 89, 81
2, 32958, Note_on_c, 0, 89, 0
2, 32971, Note_on_c, 0, 65, 45
2, 32974, Note_on_c, 0, 62, 41
2, 32981, Note_on_c, 0, 65, 0
2, 32995, Note_on_c, 0, 62, 0
2, 33008, Note_on_c, 0, 88, 91
2, 33076, Note_on_c, 0, 88, 0
2, 33094, Note_on_c, 0, 64, 41
2, 33102, Note_on_c, 0, 60, 35
2, 33107, Note_on_c, 0, 64, 0
2, 33107, Note_on_c, 0, 85, 40
2, 33118, Note_on_c, 0, 60, 0
2, 33125, Note_on_c, 0, 85, 0
2, 33147, Note_on_c, 0, 87, 82
2, 33205, Note_on_c, 0, 60, 25
2, 33219, Note_on_c, 0, 60, 0
2, 33229, Note_on_c, 0, 87, 0
2, 33263, Note_on_c, 0, 86, 81
2, 33329, Note_on_c, 0, 86, 0
2, 33335, Note_on_c, 0, 60, 44
2, 33337, Note_on_c, 0, 62, 35
2, 33341, Note_on_c, 0, 81, 45
2, 33350, Note_on_c, 0, 62, 0
2, 33360, Note_on_c, 0, 60, 0
2, 33366, Note_on_c, 0, 81, 0
2, 33393, Note_on_c, 0, 79, 57
2, 33444, Note_on_c, 0, 79, 0
2, 33454, Note_on_c, 0, 60, 36
2, 33478, Note_on_c, 0, 60, 0
2, 33484, Note_on_c, 0, 78, 60
2, 33554, Note_on_c, 0, 78, 0
2, 33563, Note_on_c, 0, 62, 54
2, 33563, Note_on_c, 0, 58, 54
2, 33567, Note_on_c, 0, 81, 69
2, 33574, Note_on_c, 0, 57, 29
2, 33584, Note_on_c, 0, 57, 0
2, 33584, Note_on_c, 0, 62, 0
2, 33599, Note_on_c, 0, 58, 0
2, 33603, Note_on_c, 0, 81, 0
2, 33801, Note_on_c, 0, 62, 57
2, 33803, Note_on_c, 0, 58, 50
2, 33808, Note_on_c, 0, 57, 36
2, 33812, Note_on_c, 0, 62, 0
2, 33822, Note_on_c, 0, 57, 0
2, 33823, Note_on_c, 0, 58, 0
2, 33902, Note_on_c, 0, 69, 54
2, 33914, Note_on_c, 0, 69, 0
2, 33937, Note_on_c, 0, 72, 76
2, 33960, Note_on_c, 0, 57, 17
2, 33975, Note_on_c, 0, 57, 0
2, 33975, Note_on_c, 0, 70, 74
2, 33979, Note_on_c, 0, 72, 0
2, 34024, Note_on_c, 0, 70, 0
2, 34050, Note_on_c, 0, 58, 60
2, 34050, Note_on_c, 0, 66, 71
2, 34052, Note_on_c, 0, 60, 63
2, 34061, Note_on_c, 0, 60, 0
2, 34071, Note_on_c, 0, 58, 0
2, 34081, Note_on_c, 0, 66, 0
2, 34101, Note_on_c, 0, 69, 70
2, 34145, Note_on_c, 0, 69, 0
2, 34182, Note_on_c, 0, 67, 75
2, 34207, Note_on_c, 0, 67, 0
2, 34235, Note_on_c, 0, 64, 64
2, 34266, Note_on_c, 0, 64, 0
2, 34301, Note_on_c, 0, 58, 51
2, 34303, Note_on_c, 0, 64, 64
2, 34304, Note_on_c, 0, 62, 35
2, 34314, Note_on_c, 0, 62, 0
2, 34324, Note_on_c, 0, 64, 0
2, 34332, Note_on_c, 0, 58, 0
2, 34353, Note_on_c, 0, 65, 73
2, 34384, Note_on_c, 0, 65, 0
2, 34411, Note_on_c, 0, 65, 73
2, 34419, Note_on_c, 0, 58, 36
2, 34421, Note_on_c, 0, 57, 36
2, 34430, Note_on_c, 0, 58, 0
2, 34434, Note_on_c, 0, 57, 0
2, 34441, Note_on_c, 0, 65, 0
2, 34463, Note_on_c, 0, 67, 72
2, 34494, Note_on_c, 0, 67, 0
2, 34531, Note_on_c, 0, 67, 69
2, 34536, Note_on_c, 0, 64, 70
2, 34538, Note_on_c, 0, 60, 59
2, 34541, Note_on_c, 0, 57, 51
2, 34542, Note_on_c, 0, 55, 42
2, 34546, Note_on_c, 0, 64, 0
2, 34560, Note_on_c, 0, 67, 0
2, 34564, Note_on_c, 0, 55, 0
2, 34579, Note_on_c, 0, 60, 0
2, 34586, Note_on_c, 0, 57, 0
2, 34588, Note_on_c, 0, 69, 59
2, 34624, Note_on_c, 0, 69, 0
2, 34649, Note_on_c, 0, 69, 62
2, 34658, Note_on_c, 0, 60, 47
2, 34674, Note_on_c, 0, 69, 0
2, 34690, Note_on_c, 0, 60, 0
2, 34697, Note_on_c, 0, 72, 72
2, 34736, Note_on_c, 0, 72, 0
2, 34772, Note_on_c, 0, 72, 71
2, 34781, Note_on_c, 0, 64, 56
2, 34781, Note_on_c, 0, 60, 55
2, 34783, Note_on_c, 0, 57, 36
2, 34790, Note_on_c, 0, 64, 0
2, 34792, Note_on_c, 0, 72, 0
2, 34814, Note_on_c, 0, 60, 0
2, 34816, Note_on_c, 0, 76, 69
2, 34829, Note_on_c, 0, 57, 0
2, 34862, Note_on_c, 0, 76, 0
2, 34887, Note_on_c, 0, 76, 62
2, 34912, Note_on_c, 0, 76, 0
2, 34936, Note_on_c, 0, 68, 69
2, 34982, Note_on_c, 0, 68, 0
2, 35006, Note_on_c, 0, 68, 54
2, 35012, Note_on_c, 0, 62, 54
2, 35016, Note_on_c, 0, 56, 33
2, 35016, Note_on_c, 0, 59, 45
2, 35021, Note_on_c, 0, 62, 0
2, 35033, Note_on_c, 0, 68, 0
2, 35043, Note_on_c, 0, 59, 0
2, 35046, Note_on_c, 0, 56, 0
2, 35054, Note_on_c, 0, 71, 56
2, 35099, Note_on_c, 0, 71, 0
2, 35127, Note_on_c, 0, 71, 54
2, 35149, Note_on_c, 0, 71, 0
2, 35149, Note_on_c, 0, 56, 25
2, 35161, Note_on_c, 0, 56, 0
2, 35164, Note_on_c, 0, 74, 62
2, 35188, Note_on_c, 0, 74, 0
2, 35204, Note_on_c, 0, 74, 83
2, 35228, Note_on_c, 0, 74, 0
2, 35251, Note_on_c, 0, 77, 68
2, 35257, Note_on_c, 0, 62, 39
2, 35261, Note_on_c, 0, 56, 35
2, 35261, Note_on_c, 0, 59, 42
2, 35268, Note_on_c, 0, 62, 0
2, 35275, Note_on_c, 0, 77, 0
2, 35283, Note_on_c, 0, 59, 0
2, 35292, Note_on_c, 0, 77, 63
2, 35300, Note_on_c, 0, 56, 0
2, 35318, Note_on_c, 0, 77, 0
2, 35338, Note_on_c, 0, 80, 69
2, 35357, Note_on_c, 0, 80, 0
2, 35373, Note_on_c, 0, 80, 54
2, 35398, Note_on_c, 0, 80, 0
2, 35403, Note_on_c, 0, 59, 24
2, 35413, Note_on_c, 0, 59, 0
2, 35422, Note_on_c, 0, 83, 76
2, 35448, Note_on_c, 0, 83, 0
2, 35467, Note_on_c, 0, 83, 67
2, 35494, Note_on_c, 0, 83, 0
2, 35508, Note_on_c, 0, 86, 74
2, 35513, Note_on_c, 0, 58, 56
2, 35514, Note_on_c, 0, 74, 72
2, 35515, Note_on_c, 0, 62, 40
2, 35519, Note_on_c, 0, 55, 31
2, 35525, Note_on_c, 0, 62, 0
2, 35530, Note_on_c, 0, 55, 0
2, 35535, Note_on_c, 0, 74, 0
2, 35537, Note_on_c, 0, 86, 0
2, 35541, Note_on_c, 0, 58, 0
2, 35556, Note_on_c, 0, 86, 59
2, 35560, Note_on_c, 0, 74, 50
2, 35584, Note_on_c, 0, 74, 0
2, 35585, Note_on_c, 0, 86, 0
2, 35626, Note_on_c, 0, 84, 74
2, 35626, Note_on_c, 0, 72, 71
2, 35640, Note_on_c, 0, 72, 0
2, 35648, Note_on_c, 0, 84, 0
2, 35744, Note_on_c, 0, 58, 75
2, 35745, Note_on_c, 0, 62, 74
2, 35747, Note_on_c, 0, 55, 66
2, 35755, Note_on_c, 0, 62, 0
2, 35757, Note_on_c, 0, 55, 0
2, 35766, Note_on_c, 0, 58, 0
2, 35892, Note_on_c, 0, 55, 32
2, 35906, Note_on_c, 0, 55, 0
2, 35976, Note_on_c, 0, 58, 67
2, 35976, Note_on_c, 0, 62, 68
2, 35986, Note_on_c, 0, 62, 0
2, 36007, Note_on_c, 0, 58, 0
2, 36019, Note_on_c, 0, 91, 101
2, 36067, Note_on_c, 0, 91, 0
2, 36088, Note_on_c, 0, 94, 45
2, 36102, Note_on_c, 0, 91, 55
2, 36103, Note_on_c, 0, 58, 33
2, 36116, Note_on_c, 0, 58, 0
2, 36130, Note_on_c, 0, 94, 0
2, 36141, Note_on_c, 0, 86, 51
2, 36144, Note_on_c, 0, 91, 0
2, 36175, Note_on_c, 0, 86, 0
2, 36216, Note_on_c, 0, 88, 105
2, 36223, Note_on_c, 0, 61, 63
2, 36236, Note_on_c, 0, 64, 24
2, 36245, Note_on_c, 0, 64, 0
2, 36248, Note_on_c, 0, 61, 0
2, 36259, Note_on_c, 0, 88, 0
2, 36261, Note_on_c, 0, 93, 48
2, 36299, Note_on_c, 0, 93, 0
2, 36304, Note_on_c, 0, 88, 53
2, 36334, Note_on_c, 0, 88, 0
2, 36336, Note_on_c, 0, 66, 62
2, 36338, Note_on_c, 0, 61, 53
2, 36345, Note_on_c, 0, 66, 0
2, 36365, Note_on_c, 0, 61, 0
2, 36383, Note_on_c, 0, 89, 77
2, 36386, Note_on_c, 0, 88, 71
2, 36396, Note_on_c, 0, 88, 0
2, 36432, Note_on_c, 0, 89, 0
2, 36447, Note_on_c, 0, 93, 62
2, 36459, Note_on_c, 0, 57, 32
2, 36476, Note_on_c, 0, 57, 0
2, 36479, Note_on_c, 0, 91, 34
2, 36483, Note_on_c, 0, 93, 0
2, 36485, Note_on_c, 0, 89, 60
2, 36507, Note_on_c, 0, 91, 0
2, 36521, Note_on_c, 0, 89, 0
2, 36566, Note_on_c, 0, 60, 72
2, 36570, Note_on_c, 0, 57, 57
2, 36575, Note_on_c, 0, 60, 0
2, 36578, Note_on_c, 0, 86, 71
2, 36580, Note_on_c, 0, 53, 27
2, 36593, Note_on_c, 0, 89, 36
2, 36597, Note_on_c, 0, 86, 0
2, 36599, Note_on_c, 0, 57, 0
2, 36601, Note_on_c, 0, 53, 0
2, 36609, Note_on_c, 0, 89, 0
2, 36687, Note_on_c, 0, 60, 68
2, 36691, Note_on_c, 0, 57, 59
2, 36695, Note_on_c, 0, 53, 34
2, 36696, Note_on_c, 0, 60, 0
2, 36718, Note_on_c, 0, 57, 0
2, 36730, Note_on_c, 0, 53, 0
2, 36732, Note_on_c, 0, 86, 92
2, 36788, Note_on_c, 0, 86, 0
2, 36806, Note_on_c, 0, 89, 60
2, 36818, Note_on_c, 0, 57, 46
2, 36819, Note_on_c, 0, 86, 48
2, 36839, Note_on_c, 0, 57, 0
2, 36842, Note_on_c, 0, 89, 0
2, 36857, Note_on_c, 0, 81, 47
2, 36881, Note_on_c, 0, 86, 0
2, 36901, Note_on_c, 0, 81, 0
2, 36925, Note_on_c, 0, 64, 66
2, 36925, Note_on_c, 0, 85, 92
2, 36928, Note_on_c, 0, 59, 54
2, 36933, Note_on_c, 0, 84, 69
2, 36934, Note_on_c, 0, 64, 0
2, 36940, Note_on_c, 0, 83, 49
2, 36949, Note_on_c, 0, 83, 0
2, 36950, Note_on_c, 0, 85, 0
2, 36960, Note_on_c, 0, 59, 0
2, 36960, Note_on_c, 0, 84, 0
2, 36983, Note_on_c, 0, 88, 58
2, 37005, Note_on_c, 0, 85, 46
2, 37015, Note_on_c, 0, 85, 0
2, 37039, Note_on_c, 0, 88, 0
2, 37048, Note_on_c, 0, 81, 57
2, 37051, Note_on_c, 0, 59, 51
2, 37068, Note_on_c, 0, 81, 0
2, 37078, Note_on_c, 0, 59, 0
2, 37088, Note_on_c, 0, 81, 81
2, 37126, Note_on_c, 0, 81, 0
2, 37140, Note_on_c, 0, 85, 49
2, 37163, Note_on_c, 0, 59, 43
2, 37165, Note_on_c, 0, 81, 52
2, 37190, Note_on_c, 0, 85, 0
2, 37200, Note_on_c, 0, 81, 0
2, 37204, Note_on_c, 0, 59, 0
2, 37208, Note_on_c, 0, 76, 42
2, 37245, Note_on_c, 0, 73, 25
2, 37247, Note_on_c, 0, 76, 0
2, 37256, Note_on_c, 0, 73, 0
2, 37276, Note_on_c, 0, 73, 51
2, 37277, Note_on_c, 0, 59, 72
2, 37277, Note_on_c, 0, 64, 77
2, 37291, Note_on_c, 0, 64, 0
2, 37292, Note_on_c, 0, 53, 24
2, 37308, Note_on_c, 0, 53, 0
2, 37321, Note_on_c, 0, 59, 0
2, 37325, Note_on_c, 0, 81, 54
2, 37327, Note_on_c, 0, 73, 0
2, 37360, Note_on_c, 0, 73, 34
2, 37370, Note_on_c, 0, 81, 0
2, 37400, Note_on_c, 0, 69, 47
2, 37400, Note_on_c, 0, 58, 46
2, 37401, Note_on_c, 0, 62, 32
2, 37405, Note_on_c, 0, 73, 0
2, 37411, Note_on_c, 0, 62, 0
2, 37414, Note_on_c, 0, 69, 0
2, 37418, Note_on_c, 0, 58, 0
2, 37437, Note_on_c, 0, 74, 80
2, 37474, Note_on_c, 0, 74, 0
2, 37492, Note_on_c, 0, 77, 47
2, 37511, Note_on_c, 0, 58, 42
2, 37514, Note_on_c, 0, 74, 33
2, 37522, Note_on_c, 0, 58, 0
2, 37522, Note_on_c, 0, 57, 43
2, 37533, Note_on_c, 0, 77, 0
2, 37556, Note_on_c, 0, 74, 0
2, 37558, Note_on_c, 0, 69, 41
2, 37592, Note_on_c, 0, 57, 0
2, 37599, Note_on_c, 0, 69, 0
2, 37635, Note_on_c, 0, 73, 64
2, 37636, Note_on_c, 0, 58, 60
2, 37637, Note_on_c, 0, 62, 64
2, 37640, Note_on_c, 0, 57, 40
2, 37646, Note_on_c, 0, 62, 0
2, 37652, Note_on_c, 0, 57, 0
2, 37659, Note_on_c, 0, 58, 0
2, 37668, Note_on_c, 0, 73, 0
2, 37681, Note_on_c, 0, 76, 49
2, 37715, Note_on_c, 0, 73, 31
2, 37742, Note_on_c, 0, 76, 0
2, 37754, Note_on_c, 0, 73, 0
2, 37758, Note_on_c, 0, 69, 50
2, 37764, Note_on_c, 0, 58, 49
2, 37775, Note_on_c, 0, 69, 0
2, 37782, Note_on_c, 0, 58, 0
2, 37801, Note_on_c, 0, 73, 67
2, 37853, Note_on_c, 0, 73, 0
2, 37874, Note_on_c, 0, 61, 77
2, 37877, Note_on_c, 0, 70, 77
2, 37878, Note_on_c, 0, 58, 60
2, 37882, Note_on_c, 0, 52, 48
2, 37891, Note_on_c, 0, 61, 0
2, 37893, Note_on_c, 0, 52, 0
2, 37918, Note_on_c, 0, 70, 0
2, 37933, Note_on_c, 0, 58, 0
2, 37936, Note_on_c, 0, 66, 56
2, 37993, Note_on_c, 0, 66, 0
2, 38004, Note_on_c, 0, 64, 74
2, 38008, Note_on_c, 0, 58, 65
2, 38026, Note_on_c, 0, 58, 0
2, 38036, Note_on_c, 0, 64, 0
2, 38061, Note_on_c, 0, 63, 40
2, 38125, Note_on_c, 0, 61, 60
2, 38144, Note_on_c, 0, 63, 0
2, 38161, Note_on_c, 0, 61, 0
2, 38174, Note_on_c, 0, 60, 38
2, 38220, Note_on_c, 0, 60, 0
2, 38240, Note_on_c, 0, 58, 46
2, 38244, Note_on_c, 0, 48, 46
2, 38249, Note_on_c, 0, 47, 43
2, 38260, Note_on_c, 0, 47, 0
2, 38288, Note_on_c, 0, 56, 46
2, 38291, Note_on_c, 0, 58, 0
2, 38347, Note_on_c, 0, 56, 0
2, 38365, Note_on_c, 0, 58, 76
2, 38412, Note_on_c, 0, 58, 0
2, 38425, Note_on_c, 0, 56, 46
2, 38481, Note_on_c, 0, 56, 0
2, 38492, Note_on_c, 0, 57, 67
2, 38496, Note_on_c, 0, 48, 0
2, 38525, Note_on_c, 0, 57, 0
2, 38544, Note_on_c, 0, 52, 35
2, 38607, Note_on_c, 0, 52, 0
2, 38615, Note_on_c, 0, 55, 76
2, 38650, Note_on_c, 0, 55, 0
2, 38668, Note_on_c, 0, 53, 66
2, 38726, Note_on_c, 0, 53, 0
2, 38742, Note_on_c, 0, 48, 65
2, 38746, Note_on_c, 0, 46, 33
2, 38758, Note_on_c, 0, 46, 0
2, 38770, Note_on_c, 0, 48, 0
2, 38793, Note_on_c, 0, 50, 49
2, 38845, Note_on_c, 0, 50, 0
2, 38857, Note_on_c, 0, 52, 73
2, 38858, Note_on_c, 0, 50, 22
2, 38859, Note_on_c, 0, 44, 39
2, 38883, Note_on_c, 0, 52, 0
2, 38884, Note_on_c, 0, 50, 0
2, 38891, Note_on_c, 0, 44, 0
2, 38911, Note_on_c, 0, 53, 52
2, 38948, Note_on_c, 0, 53, 0
2, 38949, Note_on_c, 0, 55, 66
2, 38987, Note_on_c, 0, 55, 0
2, 38987, Note_on_c, 0, 56, 60
2, 39018, Note_on_c, 0, 56, 0
2, 39018, Note_on_c, 0, 58, 50
2, 39037, Note_on_c, 0, 58, 0
2, 39055, Note_on_c, 0, 59, 60
2, 39078, Note_on_c, 0, 59, 0
2, 39091, Note_on_c, 0, 61, 52
2, 39101, Note_on_c, 0, 61, 0
2, 39118, Note_on_c, 0, 62, 63
2, 39144, Note_on_c, 0, 62, 0
2, 39150, Note_on_c, 0, 64, 66
2, 39174, Note_on_c, 0, 64, 0
2, 39182, Note_on_c, 0, 65, 64
2, 39192, Note_on_c, 0, 65, 0
2, 39211, Note_on_c, 0, 67, 69
2, 39215, Note_on_c, 0, 59, 49
2, 39215, Note_on_c, 0, 62, 33
2, 39216, Note_on_c, 0, 56, 37
2, 39228, Note_on_c, 0, 62, 0
2, 39236, Note_on_c, 0, 67, 0
2, 39243, Note_on_c, 0, 68, 60
2, 39248, Note_on_c, 0, 59, 0
2, 39261, Note_on_c, 0, 56, 0
2, 39274, Note_on_c, 0, 68, 0
2, 39276, Note_on_c, 0, 70, 31
2, 39302, Note_on_c, 0, 70, 0
2, 39304, Note_on_c, 0, 71, 56
2, 39326, Note_on_c, 0, 71, 0
2, 39335, Note_on_c, 0, 74, 76
2, 39343, Note_on_c, 0, 62, 55
2, 39346, Note_on_c, 0, 58, 51
2, 39359, Note_on_c, 0, 62, 0
2, 39367, Note_on_c, 0, 74, 0
2, 39382, Note_on_c, 0, 58, 0
2, 39402, Note_on_c, 0, 72, 81
2, 39441, Note_on_c, 0, 72, 0
2, 39472, Note_on_c, 0, 69, 74
2, 39475, Note_on_c, 0, 57, 17
2, 39492, Note_on_c, 0, 57, 0
2, 39494, Note_on_c, 0, 69, 0
2, 39530, Note_on_c, 0, 66, 65
2, 39566, Note_on_c, 0, 66, 0
2, 39567, Note_on_c, 0, 62, 55
2, 39580, Note_on_c, 0, 62, 0
2, 39700, Note_on_c, 0, 62, 45
2, 39705, Note_on_c, 0, 58, 38
2, 39711, Note_on_c, 0, 62, 0
2, 39731, Note_on_c, 0, 58, 0
2, 39815, Note_on_c, 0, 62, 57
2, 39816, Note_on_c, 0, 58, 59
2, 39827, Note_on_c, 0, 62, 0
2, 39841, Note_on_c, 0, 58, 0
2, 39930, Note_on_c, 0, 76, 70
2, 39955, Note_on_c, 0, 76, 0
2, 39974, Note_on_c, 0, 79, 71
2, 39976, Note_on_c, 0, 67, 60
2, 40001, Note_on_c, 0, 67, 0
2, 40005, Note_on_c, 0, 79, 0
2, 40051, Note_on_c, 0, 79, 67
2, 40054, Note_on_c, 0, 62, 68
2, 40054, Note_on_c, 0, 67, 34
2, 40057, Note_on_c, 0, 58, 55
2, 40064, Note_on_c, 0, 62, 0
2, 40065, Note_on_c, 0, 67, 0
2, 40073, Note_on_c, 0, 79, 0
2, 40085, Note_on_c, 0, 58, 0
2, 40118, Note_on_c, 0, 86, 55
2, 40119, Note_on_c, 0, 88, 55
2, 40120, Note_on_c, 0, 74, 53
2, 40129, Note_on_c, 0, 88, 0
2, 40137, Note_on_c, 0, 74, 0
2, 40143, Note_on_c, 0, 86, 0
2, 40180, Note_on_c, 0, 62, 66
2, 40181, Note_on_c, 0, 86, 73
2, 40182, Note_on_c, 0, 58, 55
2, 40182, Note_on_c, 0, 74, 69
2, 40189, Note_on_c, 0, 76, 43
2, 40190, Note_on_c, 0, 62, 0
2, 40200, Note_on_c, 0, 76, 0
2, 40201, Note_on_c, 0, 86, 0
2, 40202, Note_on_c, 0, 74, 0
2, 40213, Note_on_c, 0, 58, 0
2, 40231, Note_on_c, 0, 84, 59
2, 40236, Note_on_c, 0, 72, 49
2, 40247, Note_on_c, 0, 72, 0
2, 40254, Note_on_c, 0, 84, 0
2, 40296, Note_on_c, 0, 62, 63
2, 40301, Note_on_c, 0, 84, 68
2, 40305, Note_on_c, 0, 62, 0
2, 40305, Note_on_c, 0, 60, 33
2, 40306, Note_on_c, 0, 72, 71
2, 40308, Note_on_c, 0, 53, 22
2, 40314, Note_on_c, 0, 57, 28
2, 40316, Note_on_c, 0, 72, 0
2, 40318, Note_on_c, 0, 84, 0
2, 40324, Note_on_c, 0, 53, 0
2, 40333, Note_on_c, 0, 60, 0
2, 40344, Note_on_c, 0, 57, 0
2, 40357, Note_on_c, 0, 81, 58
2, 40359, Note_on_c, 0, 69, 62
2, 40398, Note_on_c, 0, 81, 0
2, 40404, Note_on_c, 0, 69, 0
2, 40427, Note_on_c, 0, 57, 34
2, 40453, Note_on_c, 0, 57, 0
2, 40453, Note_on_c, 0, 79, 58
2, 40456, Note_on_c, 0, 67, 60
2, 40523, Note_on_c, 0, 79, 0
2, 40529, Note_on_c, 0, 67, 0
2, 40543, Note_on_c, 0, 57, 28
2, 40562, Note_on_c, 0, 57, 0
2, 40566, Note_on_c, 0, 77, 56
2, 40570, Note_on_c, 0, 65, 60
2, 40597, Note_on_c, 0, 65, 0
2, 40639, Note_on_c, 0, 77, 0
2, 40649, Note_on_c, 0, 62, 54
2, 40653, Note_on_c, 0, 60, 52
2, 40655, Note_on_c, 0, 53, 31
2, 40655, Note_on_c, 0, 57, 49
2, 40658, Note_on_c, 0, 62, 0
2, 40667, Note_on_c, 0, 60, 0
2, 40670, Note_on_c, 0, 53, 0
2, 40675, Note_on_c, 0, 57, 0
2, 40768, Note_on_c, 0, 58, 62
2, 40769, Note_on_c, 0, 65, 82
2, 40770, Note_on_c, 0, 60, 67
2, 40771, Note_on_c, 0, 54, 60
2, 40771, Note_on_c, 0, 77, 83
2, 40772, Note_on_c, 0, 89, 87
2, 40773, Note_on_c, 0, 84, 76
2, 40786, Note_on_c, 0, 65, 0
2, 40793, Note_on_c, 0, 77, 0
2, 40795, Note_on_c, 0, 84, 0
2, 40800, Note_on_c, 0, 89, 0
2, 40801, Note_on_c, 0, 60, 0
2, 40803, Note_on_c, 0, 54, 0
2, 40813, Note_on_c, 0, 58, 0
2, 40884, Note_on_c, 0, 87, 85
2, 40885, Note_on_c, 0, 75, 94
2, 40885, Note_on_c, 0, 82, 79
2, 40887, Note_on_c, 0, 54, 74
2, 40887, Note_on_c, 0, 58, 62
2, 40888, Note_on_c, 0, 60, 75
2, 40888, Note_on_c, 0, 65, 91
2, 41010, Note_on_c, 0, 65, 0
2, 41026, Note_on_c, 0, 87, 0
2, 41027, Note_on_c, 0, 82, 0
2, 41028, Note_on_c, 0, 75, 0
2, 41036, Note_on_c, 0, 60, 0
2, 41047, Note_on_c, 0, 64, 67
2, 41052, Note_on_c, 0, 60, 28
2, 41054, Note_on_c, 0, 86, 64
2, 41056, Note_on_c, 0, 81, 61
2, 41058, Note_on_c, 0, 74, 36
2, 41064, Note_on_c, 0, 76, 32
2, 41073, Note_on_c, 0, 74, 0
2, 41075, Note_on_c, 0, 76, 0
2, 41080, Note_on_c, 0, 64, 0
2, 41086, Note_on_c, 0, 60, 0
2, 41086, Note_on_c, 0, 81, 0
2, 41088, Note_on_c, 0, 58, 0
2, 41091, Note_on_c, 0, 54, 0
2, 41095, Note_on_c, 0, 86, 0
2, 41140, Note_on_c, 0, 58, 35
2, 41141, Note_on_c, 0, 60, 44
2, 41150, Note_on_c, 0, 58, 0
2, 41151, Note_on_c, 0, 60, 0
2, 41170, Note_on_c, 0, 58, 77
2, 41171, Note_on_c, 0, 64, 91
2, 41171, Note_on_c, 0, 54, 80
2, 41171, Note_on_c, 0, 60, 81
2, 41173, Note_on_c, 0, 92, 79
2, 41175, Note_on_c, 0, 84, 81
2, 41175, Note_on_c, 0, 96, 84
2, 41177, Note_on_c, 0, 90, 53
2, 41186, Note_on_c, 0, 95, 28
2, 41198, Note_on_c, 0, 95, 0
2, 41209, Note_on_c, 0, 90, 0
2, 41240, Note_on_c, 0, 93, 57
2, 41241, Note_on_c, 0, 60, 0
2, 41247, Note_on_c, 0, 64, 0
2, 41250, Note_on_c, 0, 93, 0
2, 41251, Note_on_c, 0, 92, 0
2, 41252, Note_on_c, 0, 96, 0
2, 41258, Note_on_c, 0, 84, 0
2, 41269, Note_on_c, 0, 54, 0
2, 41270, Note_on_c, 0, 58, 0
2, 41294, Note_on_c, 0, 58, 57
2, 41294, Note_on_c, 0, 62, 76
2, 41296, Note_on_c, 0, 57, 66
2, 41298, Note_on_c, 0, 81, 74
2, 41299, Note_on_c, 0, 93, 74
2, 41303, Note_on_c, 0, 53, 55
2, 41304, Note_on_c, 0, 86, 55
2, 41357, Note_on_c, 0, 86, 0
2, 41365, Note_on_c, 0, 93, 0
2, 41368, Note_on_c, 0, 81, 0
2, 41373, Note_on_c, 0, 62, 0
2, 41377, Note_on_c, 0, 57, 0
2, 41377, Note_on_c, 0, 53, 0
2, 41378, Note_on_c, 0, 58, 0
2, 41407, Note_on_c, 0, 58, 62
2, 41408, Note_on_c, 0, 89, 71
2, 41408, Note_on_c, 0, 62, 51
2, 41409, Note_on_c, 0, 53, 52
2, 41410, Note_on_c, 0, 85, 69
2, 41411, Note_on_c, 0, 77, 45
2, 41412, Note_on_c, 0, 57, 54
2, 41463, Note_on_c, 0, 86, 36
2, 41473, Note_on_c, 0, 85, 0
2, 41479, Note_on_c, 0, 77, 0
2, 41482, Note_on_c, 0, 86, 0
2, 41488, Note_on_c, 0, 89, 0
2, 41495, Note_on_c, 0, 62, 0
2, 41496, Note_on_c, 0, 53, 0
2, 41497, Note_on_c, 0, 58, 0
2, 41499, Note_on_c, 0, 57, 0
2, 41532, Note_on_c, 0, 74, 65
2, 41533, Note_on_c, 0, 86, 54
2, 41534, Note_on_c, 0, 62, 45
2, 41534, Note_on_c, 0, 58, 56
2, 41539, Note_on_c, 0, 81, 40
2, 41541, Note_on_c, 0, 57, 30
2, 41545, Note_on_c, 0, 53, 29
2, 41549, Note_on_c, 0, 74, 0
2, 41555, Note_on_c, 0, 81, 0
2, 41557, Note_on_c, 0, 57, 0
2, 41560, Note_on_c, 0, 62, 0
2, 41565, Note_on_c, 0, 53, 0
2, 41572, Note_on_c, 0, 58, 0
2, 41574, Note_on_c, 0, 86, 0
2, 41650, Note_on_c, 0, 63, 92
2, 41650, Note_on_c, 0, 58, 84
2, 41651, Note_on_c, 0, 56, 72
2, 41652, Note_on_c, 0, 87, 102
2, 41652, Note_on_c, 0, 99, 91
2, 41656, Note_on_c, 0, 52, 74
2, 41662, Note_on_c, 0, 97, 33
2, 41665, Note_on_c, 0, 52, 0
2, 41671, Note_on_c, 0, 97, 0
2, 41673, Note_on_c, 0, 52, 31
2, 41714, Note_on_c, 0, 52, 0
2, 41722, Note_on_c, 0, 63, 0
2, 41723, Note_on_c, 0, 87, 0
2, 41723, Note_on_c, 0, 99, 0
2, 41725, Note_on_c, 0, 56, 0
2, 41726, Note_on_c, 0, 58, 0
2, 41770, Note_on_c, 0, 63, 86
2, 41772, Note_on_c, 0, 58, 76
2, 41774, Note_on_c, 0, 97, 83
2, 41774, Note_on_c, 0, 56, 62
2, 41775, Note_on_c, 0, 52, 80
2, 41776, Note_on_c, 0, 85, 84
2, 41776, Note_on_c, 0, 92, 78
2, 41838, Note_on_c, 0, 56, 0
2, 41839, Note_on_c, 0, 52, 0
2, 41843, Note_on_c, 0, 97, 0
2, 41843, Note_on_c, 0, 85, 0
2, 41846, Note_on_c, 0, 63, 0
2, 41847, Note_on_c, 0, 58, 0
2, 41849, Note_on_c, 0, 92, 0
2, 41890, Note_on_c, 0, 63, 81
2, 41893, Note_on_c, 0, 58, 77
2, 41894, Note_on_c, 0, 94, 78
2, 41895, Note_on_c, 0, 82, 77
2, 41895, Note_on_c, 0, 52, 81
2, 41964, Note_on_c, 0, 52, 0
2, 41972, Note_on_c, 0, 63, 0
2, 41975, Note_on_c, 0, 94, 0
2, 41980, Note_on_c, 0, 82, 0
2, 41983, Note_on_c, 0, 58, 0
2, 42012, Note_on_c, 0, 63, 73
2, 42013, Note_on_c, 0, 92, 64
2, 42013, Note_on_c, 0, 58, 73
2, 42017, Note_on_c, 0, 80, 60
2, 42018, Note_on_c, 0, 87, 71
2, 42018, Note_on_c, 0, 52, 70
2, 42080, Note_on_c, 0, 52, 0
2, 42083, Note_on_c, 0, 87, 0
2, 42084, Note_on_c, 0, 63, 0
2, 42087, Note_on_c, 0, 92, 0
2, 42087, Note_on_c, 0, 80, 0
2, 42092, Note_on_c, 0, 58, 0
2, 42123, Note_on_c, 0, 63, 53
2, 42127, Note_on_c, 0, 58, 48
2, 42132, Note_on_c, 0, 91, 47
2, 42133, Note_on_c, 0, 79, 51
2, 42142, Note_on_c, 0, 87, 34
2, 42153, Note_on_c, 0, 58, 0
2, 42155, Note_on_c, 0, 63, 0
2, 42175, Note_on_c, 0, 87, 0
2, 42177, Note_on_c, 0, 79, 0
2, 42185, Note_on_c, 0, 91, 0
2, 42247, Note_on_c, 0, 60, 63
2, 42247, Note_on_c, 0, 63, 49
2, 42248, Note_on_c, 0, 53, 55
2, 42250, Note_on_c, 0, 91, 60
2, 42250, Note_on_c, 0, 87, 69
2, 42250, Note_on_c, 0, 79, 60
2, 42255, Note_on_c, 0, 58, 46
2, 42360, Control_c, 0, 64, 127
2, 42389, Note_on_c, 0, 89, 1
2, 42411, Note_on_c, 0, 58, 0
2, 42413, Note_on_c, 0, 53, 0
2, 42414, Note_on_c, 0, 63, 0
2, 42420, Note_on_c, 0, 91, 0
2, 42420, Note_on_c, 0, 60, 0
2, 42424, Note_on_c, 0, 89, 0
2, 42430, Note_on_c, 0, 79, 0
2, 42440, Note_on_c, 0, 87, 0
2, 42470, Control_c, 0, 64, 0
2, 42491, Note_on_c, 0, 63, 59
2, 42495, Note_on_c, 0, 60, 58
2, 42495, Note_on_c, 0, 89, 90
2, 42497, Note_on_c, 0, 58, 38
2, 42499, Note_on_c, 0, 53, 48
2, 42551, Note_on_c, 0, 89, 0
2, 42569, Note_on_c, 0, 63, 0
2, 42613, Note_on_c, 0, 87, 83
2, 42644, Note_on_c, 0, 58, 0
2, 42648, Note_on_c, 0, 53, 0
2, 42649, Note_on_c, 0, 60, 0
2, 42674, Note_on_c, 0, 87, 0
2, 42695, Note_on_c, 0, 83, 18
2, 42701, Note_on_c, 0, 60, 30
2, 42707, Note_on_c, 0, 83, 0
2, 42728, Note_on_c, 0, 86, 80
2, 42744, Note_on_c, 0, 60, 0
2, 42788, Note_on_c, 0, 86, 0
2, 42807, Note_on_c, 0, 85, 78
2, 42810, Note_on_c, 0, 63, 57
2, 42813, Note_on_c, 0, 60, 59
2, 42824, Note_on_c, 0, 63, 0
2, 42832, Note_on_c, 0, 60, 0
2, 42840, Note_on_c, 0, 85, 0
2, 42860, Note_on_c, 0, 84, 49
2, 42910, Note_on_c, 0, 84, 0
2, 42927, Note_on_c, 0, 77, 49
2, 42959, Note_on_c, 0, 77, 0
2, 42982, Note_on_c, 0, 77, 48
2, 43026, Note_on_c, 0, 77, 0
2, 43047, Note_on_c, 0, 63, 42
2, 43052, Note_on_c, 0, 60, 43
2, 43058, Note_on_c, 0, 63, 0
2, 43069, Note_on_c, 0, 60, 0
2, 43086, Note_on_c, 0, 77, 50
2, 43131, Note_on_c, 0, 77, 0
2, 43168, Note_on_c, 0, 62, 46
2, 43181, Note_on_c, 0, 60, 24
2, 43191, Note_on_c, 0, 60, 0
2, 43200, Note_on_c, 0, 62, 0
2, 43218, Note_on_c, 0, 77, 60
2, 43246, Note_on_c, 0, 79, 60
2, 43247, Note_on_c, 0, 77, 0
2, 43279, Note_on_c, 0, 77, 42
2, 43283, Note_on_c, 0, 62, 30
2, 43286, Note_on_c, 0, 79, 0
2, 43299, Note_on_c, 0, 60, 24
2, 43309, Note_on_c, 0, 77, 0
2, 43310, Note_on_c, 0, 76, 42
2, 43321, Note_on_c, 0, 60, 0
2, 43328, Note_on_c, 0, 76, 0
2, 43347, Note_on_c, 0, 77, 74
2, 43354, Note_on_c, 0, 62, 0
2, 43385, Note_on_c, 0, 77, 0
2, 43392, Note_on_c, 0, 79, 45
2, 43402, Note_on_c, 0, 62, 32
2, 43413, Note_on_c, 0, 77, 39
2, 43422, Note_on_c, 0, 79, 0
2, 43433, Note_on_c, 0, 76, 49
2, 43435, Note_on_c, 0, 77, 0
2, 43446, Note_on_c, 0, 76, 0
2, 43453, Note_on_c, 0, 62, 0
2, 43464, Note_on_c, 0, 77, 58
2, 43497, Note_on_c, 0, 79, 57
2, 43500, Note_on_c, 0, 77, 0
2, 43520, Note_on_c, 0, 62, 42
2, 43526, Note_on_c, 0, 77, 44
2, 43530, Note_on_c, 0, 60, 37
2, 43531, Note_on_c, 0, 79, 0
2, 43544, Note_on_c, 0, 77, 0
2, 43548, Note_on_c, 0, 76, 38
2, 43559, Note_on_c, 0, 62, 0
2, 43562, Note_on_c, 0, 76, 0
2, 43565, Note_on_c, 0, 60, 0
2, 43578, Note_on_c, 0, 77, 55
2, 43618, Note_on_c, 0, 77, 0
2, 43645, Note_on_c, 0, 61, 59
2, 43645, Note_on_c, 0, 65, 62
2, 43648, Note_on_c, 0, 60, 60
2, 43655, Note_on_c, 0, 64, 34
2, 43660, Note_on_c, 0, 55, 33
2, 43665, Note_on_c, 0, 64, 0
2, 43671, Note_on_c, 0, 65, 0
2, 43674, Note_on_c, 0, 55, 0
2, 43678, Note_on_c, 0, 60, 0
2, 43687, Note_on_c, 0, 61, 0
2, 43768, Note_on_c, 0, 60, 53
2, 43786, Note_on_c, 0, 60, 0
2, 43811, Note_on_c, 0, 81, 71
2, 43831, Note_on_c, 0, 81, 0
2, 43831, Note_on_c, 0, 82, 55
2, 43865, Note_on_c, 0, 81, 34
2, 43877, Note_on_c, 0, 61, 49
2, 43882, Note_on_c, 0, 60, 45
2, 43883, Note_on_c, 0, 65, 26
2, 43884, Note_on_c, 0, 82, 0
2, 43889, Note_on_c, 0, 81, 0
2, 43890, Note_on_c, 0, 80, 39
2, 43892, Note_on_c, 0, 65, 0
2, 43900, Note_on_c, 0, 80, 0
2, 43902, Note_on_c, 0, 61, 0
2, 43919, Note_on_c, 0, 60, 0
2, 43929, Note_on_c, 0, 81, 58
2, 43957, Note_on_c, 0, 81, 0
2, 43958, Note_on_c, 0, 82, 64
2, 43998, Note_on_c, 0, 82, 0
2, 44012, Note_on_c, 0, 61, 52
2, 44015, Note_on_c, 0, 65, 51
2, 44017, Note_on_c, 0, 60, 47
2, 44028, Note_on_c, 0, 65, 0
2, 44034, Note_on_c, 0, 60, 0
2, 44050, Note_on_c, 0, 61, 0
2, 44128, Note_on_c, 0, 57, 66
2, 44129, Note_on_c, 0, 64, 79
2, 44131, Note_on_c, 0, 60, 68
2, 44131, Note_on_c, 0, 86, 90
2, 44136, Note_on_c, 0, 55, 51
2, 44145, Note_on_c, 0, 55, 0
2, 44147, Note_on_c, 0, 64, 0
2, 44169, Note_on_c, 0, 86, 0
2, 44180, Note_on_c, 0, 60, 0
2, 44185, Note_on_c, 0, 57, 0
2, 44193, Note_on_c, 0, 84, 76
2, 44226, Note_on_c, 0, 84, 0
2, 44258, Note_on_c, 0, 60, 45
2, 44258, Note_on_c, 0, 57, 38
2, 44259, Note_on_c, 0, 81, 68
2, 44272, Note_on_c, 0, 60, 0
2, 44290, Note_on_c, 0, 81, 0
2, 44290, Note_on_c, 0, 57, 0
2, 44313, Note_on_c, 0, 77, 53
2, 44367, Note_on_c, 0, 77, 0
2, 44373, Note_on_c, 0, 65, 65
2, 44378, Note_on_c, 0, 58, 39
2, 44379, Note_on_c, 0, 60, 53
2, 44380, Note_on_c, 0, 72, 58
2, 44380, Note_on_c, 0, 54, 32
2, 44381, Note_on_c, 0, 64, 40
2, 44381, Note_on_c, 0, 74, 46
2, 44392, Note_on_c, 0, 74, 0
2, 44392, Note_on_c, 0, 65, 0
2, 44392, Note_on_c, 0, 64, 0
2, 44404, Note_on_c, 0, 72, 0
2, 44410, Note_on_c, 0, 54, 0
2, 44431, Note_on_c, 0, 60, 0
2, 44433, Note_on_c, 0, 70, 58
2, 44441, Note_on_c, 0, 58, 0
2, 44500, Note_on_c, 0, 70, 0
2, 44500, Note_on_c, 0, 58, 33
2, 44503, Note_on_c, 0, 60, 36
2, 44518, Note_on_c, 0, 60, 0
2, 44532, Note_on_c, 0, 70, 67
2, 44536, Note_on_c, 0, 58, 0
2, 44598, Note_on_c, 0, 70, 0
2, 44605, Note_on_c, 0, 58, 52
2, 44605, Note_on_c, 0, 62, 52
2, 44610, Note_on_c, 0, 57, 44
2, 44619, Note_on_c, 0, 53, 24
2, 44625, Note_on_c, 0, 62, 0
2, 44630, Note_on_c, 0, 57, 0
2, 44636, Note_on_c, 0, 53, 0
2, 44642, Note_on_c, 0, 58, 0
2, 44830, Note_on_c, 0, 62, 69
2, 44832, Note_on_c, 0, 58, 59
2, 44840, Note_on_c, 0, 62, 0
2, 44860, Note_on_c, 0, 58, 0
2, 44879, Note_on_c, 0, 86, 80
2, 44911, Note_on_c, 0, 82, 59
2, 44912, Note_on_c, 0, 86, 0
2, 44949, Note_on_c, 0, 82, 0
2, 44963, Note_on_c, 0, 77, 24
2, 44975, Note_on_c, 0, 77, 0
2, 45026, Note_on_c, 0, 84, 89
2, 45059, Note_on_c, 0, 84, 0
2, 45079, Note_on_c, 0, 80, 62
2, 45107, Note_on_c, 0, 80, 0
2, 45129, Note_on_c, 0, 48, 69
2, 45136, Note_on_c, 0, 47, 50
2, 45146, Note_on_c, 0, 47, 0
2, 45183, Note_on_c, 0, 48, 0
2, 45324, Note_on_c, 0, 48, 74
2, 45326, Note_on_c, 0, 47, 66
2, 45336, Note_on_c, 0, 47, 0
2, 45435, Note_on_c, 0, 46, 31
2, 45438, Note_on_c, 0, 47, 44
2, 45448, Note_on_c, 0, 46, 0
2, 45450, Note_on_c, 0, 47, 0
2, 45450, Note_on_c, 0, 86, 88
2, 45453, Note_on_c, 0, 48, 0
2, 45481, Note_on_c, 0, 86, 0
2, 45504, Note_on_c, 0, 84, 51
2, 45531, Note_on_c, 0, 84, 0
2, 45575, Note_on_c, 0, 81, 50
2, 45577, Note_on_c, 0, 79, 57
2, 45586, Note_on_c, 0, 79, 0
2, 45588, Note_on_c, 0, 81, 0
2, 45677, Note_on_c, 0, 63, 75
2, 45680, Note_on_c, 0, 52, 64
2, 45681, Note_on_c, 0, 58, 58
2, 45690, Note_on_c, 0, 52, 0
2, 45695, Note_on_c, 0, 63, 0
2, 45713, Note_on_c, 0, 58, 0
2, 45795, Note_on_c, 0, 87, 98
2, 45808, Note_on_c, 0, 58, 44
2, 45824, Note_on_c, 0, 87, 0
2, 45825, Note_on_c, 0, 58, 0
2, 45851, Note_on_c, 0, 85, 61
2, 45870, Note_on_c, 0, 85, 0
2, 45914, Note_on_c, 0, 82, 68
2, 45919, Note_on_c, 0, 63, 68
2, 45923, Note_on_c, 0, 58, 46
2, 45923, Note_on_c, 0, 52, 52
2, 45935, Note_on_c, 0, 52, 0
2, 45943, Note_on_c, 0, 82, 0
2, 45944, Note_on_c, 0, 63, 0
2, 45960, Note_on_c, 0, 58, 0
2, 45976, Note_on_c, 0, 80, 37
2, 46029, Note_on_c, 0, 80, 0
2, 46035, Note_on_c, 0, 62, 51
2, 46039, Note_on_c, 0, 57, 52
2, 46040, Note_on_c, 0, 60, 41
2, 46042, Note_on_c, 0, 76, 62
2, 46044, Note_on_c, 0, 62, 0
2, 46056, Note_on_c, 0, 60, 0
2, 46076, Note_on_c, 0, 57, 0
2, 46076, Note_on_c, 0, 76, 0
2, 46100, Note_on_c, 0, 75, 50
2, 46145, Note_on_c, 0, 75, 0
2, 46164, Note_on_c, 0, 62, 42
2, 46165, Note_on_c, 0, 73, 48
2, 46170, Note_on_c, 0, 60, 34
2, 46172, Note_on_c, 0, 57, 34
2, 46174, Note_on_c, 0, 62, 0
2, 46186, Note_on_c, 0, 60, 0
2, 46191, Note_on_c, 0, 73, 0
2, 46204, Note_on_c, 0, 57, 0
2, 46212, Note_on_c, 0, 72, 67
2, 46254, Note_on_c, 0, 72, 0
2, 46282, Note_on_c, 0, 70, 73
2, 46290, Note_on_c, 0, 62, 49
2, 46295, Note_on_c, 0, 60, 45
2, 46300, Note_on_c, 0, 62, 0
2, 46307, Note_on_c, 0, 57, 30
2, 46317, Note_on_c, 0, 70, 0
2, 46318, Note_on_c, 0, 60, 0
2, 46334, Note_on_c, 0, 57, 0
2, 46339, Note_on_c, 0, 69, 51
2, 46381, Note_on_c, 0, 69, 0
2, 46406, Note_on_c, 0, 70, 68
2, 46413, Note_on_c, 0, 60, 49
2, 46425, Note_on_c, 0, 57, 31
2, 46433, Note_on_c, 0, 70, 0
2, 46436, Note_on_c, 0, 60, 0
2, 46438, Note_on_c, 0, 57, 0
2, 46454, Note_on_c, 0, 71, 69
2, 46507, Note_on_c, 0, 71, 0
2, 46529, Note_on_c, 0, 72, 80
2, 46532, Note_on_c, 0, 62, 67
2, 46535, Note_on_c, 0, 56, 44
2, 46535, Note_on_c, 0, 59, 57
2, 46553, Note_on_c, 0, 62, 0
2, 46561, Note_on_c, 0, 72, 0
2, 46564, Note_on_c, 0, 59, 0
2, 46579, Note_on_c, 0, 56, 0
2, 46591, Note_on_c, 0, 71, 34
2, 46596, Note_on_c, 0, 69, 36
2, 46612, Note_on_c, 0, 69, 0
2, 46625, Note_on_c, 0, 71, 0
2, 46653, Note_on_c, 0, 68, 65
2, 46686, Note_on_c, 0, 68, 0
2, 46697, Note_on_c, 0, 65, 48
2, 46742, Note_on_c, 0, 65, 0
2, 46771, Note_on_c, 0, 62, 57
2, 46776, Note_on_c, 0, 56, 36
2, 46796, Note_on_c, 0, 56, 0
2, 46805, Note_on_c, 0, 62, 0
2, 46820, Note_on_c, 0, 59, 38
2, 46897, Note_on_c, 0, 59, 0
2, 46903, Note_on_c, 0, 50, 36
2, 46922, Note_on_c, 0, 50, 0
2, 46930, Note_on_c, 0, 59, 56
2, 46940, Note_on_c, 0, 53, 40
2, 46950, Note_on_c, 0, 53, 0
2, 47017, Note_on_c, 0, 59, 0
2, 47036, Note_on_c, 0, 50, 49
2, 47053, Note_on_c, 0, 58, 47
2, 47062, Note_on_c, 0, 50, 0
2, 47079, Note_on_c, 0, 58, 0
2, 47080, Note_on_c, 0, 60, 64
2, 47102, Note_on_c, 0, 58, 20
2, 47109, Note_on_c, 0, 60, 0
2, 47136, Note_on_c, 0, 58, 0
2, 47137, Note_on_c, 0, 57, 51
2, 47149, Note_on_c, 0, 50, 39
2, 47160, Note_on_c, 0, 57, 0
2, 47172, Note_on_c, 0, 54, 57
2, 47174, Note_on_c, 0, 50, 0
2, 47194, Note_on_c, 0, 54, 0
2, 47208, Note_on_c, 0, 57, 58
2, 47238, Note_on_c, 0, 57, 0
2, 47241, Note_on_c, 0, 54, 36
2, 47257, Note_on_c, 0, 54, 0
2, 47268, Note_on_c, 0, 55, 62
2, 47278, Note_on_c, 0, 50, 28
2, 47285, Note_on_c, 0, 55, 0
2, 47291, Note_on_c, 0, 50, 0
2, 47306, Note_on_c, 0, 57, 42
2, 47324, Note_on_c, 0, 57, 0
2, 47330, Note_on_c, 0, 58, 49
2, 47349, Note_on_c, 0, 58, 0
2, 47370, Note_on_c, 0, 62, 66
2, 47392, Note_on_c, 0, 62, 0
2, 47400, Note_on_c, 0, 66, 55
2, 47434, Note_on_c, 0, 66, 0
2, 47439, Note_on_c, 0, 69, 66
2, 47472, Note_on_c, 0, 69, 0
2, 47476, Note_on_c, 0, 66, 33
2, 47490, Note_on_c, 0, 66, 0
2, 47498, Note_on_c, 0, 67, 58
2, 47527, Note_on_c, 0, 67, 0
2, 47533, Note_on_c, 0, 69, 56
2, 47559, Note_on_c, 0, 69, 0
2, 47566, Note_on_c, 0, 70, 59
2, 47585, Note_on_c, 0, 70, 0
2, 47601, Note_on_c, 0, 72, 65
2, 47617, Note_on_c, 0, 58, 46
2, 47617, Note_on_c, 0, 63, 47
2, 47623, Note_on_c, 0, 72, 0
2, 47627, Note_on_c, 0, 63, 0
2, 47633, Note_on_c, 0, 73, 32
2, 47649, Note_on_c, 0, 58, 0
2, 47652, Note_on_c, 0, 73, 0
2, 47690, Note_on_c, 0, 76, 60
2, 47712, Note_on_c, 0, 76, 0
2, 47723, Note_on_c, 0, 78, 50
2, 47727, Note_on_c, 0, 58, 32
2, 47733, Note_on_c, 0, 78, 0
2, 47746, Note_on_c, 0, 79, 57
2, 47764, Note_on_c, 0, 58, 0
2, 47778, Note_on_c, 0, 79, 0
2, 47780, Note_on_c, 0, 81, 56
2, 47808, Note_on_c, 0, 81, 0
2, 47811, Note_on_c, 0, 82, 62
2, 47824, Note_on_c, 0, 82, 0
2, 47846, Note_on_c, 0, 84, 60
2, 47848, Note_on_c, 0, 61, 60
2, 47849, Note_on_c, 0, 58, 49
2, 47856, Note_on_c, 0, 52, 31
2, 47868, Note_on_c, 0, 84, 0
2, 47871, Note_on_c, 0, 61, 0
2, 47871, Note_on_c, 0, 85, 54
2, 47873, Note_on_c, 0, 52, 0
2, 47902, Note_on_c, 0, 85, 0
2, 47905, Note_on_c, 0, 58, 0
2, 47909, Note_on_c, 0, 87, 42
2, 47945, Note_on_c, 0, 87, 0
2, 47966, Note_on_c, 0, 91, 82
2, 47984, Note_on_c, 0, 60, 34
2, 47994, Note_on_c, 0, 91, 0
2, 47998, Note_on_c, 0, 57, 25
2, 48000, Note_on_c, 0, 60, 0
2, 48011, Note_on_c, 0, 57, 0
2, 48030, Note_on_c, 0, 89, 81
2, 48065, Note_on_c, 0, 89, 0
2, 48092, Note_on_c, 0, 86, 76
2, 48113, Note_on_c, 0, 86, 0
2, 48150, Note_on_c, 0, 86, 80
2, 48180, Note_on_c, 0, 86, 0
2, 48187, Note_on_c, 0, 84, 65
2, 48211, Note_on_c, 0, 84, 0
2, 48448, Note_on_c, 0, 65, 78
2, 48451, Note_on_c, 0, 58, 50
2, 48452, Note_on_c, 0, 54, 49
2, 48452, Note_on_c, 0, 60, 60
2, 48471, Note_on_c, 0, 65, 0
2, 48481, Note_on_c, 0, 54, 0
2, 48485, Note_on_c, 0, 60, 0
2, 48506, Note_on_c, 0, 58, 0
2, 48590, Note_on_c, 0, 60, 33
2, 48603, Note_on_c, 0, 60, 0
2, 48619, Note_on_c, 0, 92, 83
2, 48631, Note_on_c, 0, 93, 51
2, 48642, Note_on_c, 0, 93, 0
2, 48649, Note_on_c, 0, 92, 0
2, 48692, Note_on_c, 0, 65, 79
2, 48694, Note_on_c, 0, 92, 81
2, 48696, Note_on_c, 0, 58, 47
2, 48699, Note_on_c, 0, 60, 59
2, 48711, Note_on_c, 0, 65, 0
2, 48721, Note_on_c, 0, 92, 0
2, 48741, Note_on_c, 0, 60, 0
2, 48753, Note_on_c, 0, 92, 83
2, 48765, Note_on_c, 0, 58, 0
2, 48792, Note_on_c, 0, 92, 0
2, 48793, Note_on_c, 0, 90, 56
2, 48813, Note_on_c, 0, 90, 0
2, 48866, Note_on_c, 0, 62, 60
2, 48867, Note_on_c, 0, 58, 53
2, 48879, Note_on_c, 0, 62, 0
2, 48896, Note_on_c, 0, 58, 0
2, 49057, Note_on_c, 0, 91, 80
2, 49058, Note_on_c, 0, 79, 75
2, 49058, Note_on_c, 0, 62, 74
2, 49058, Note_on_c, 0, 58, 69
2, 49067, Note_on_c, 0, 90, 28
2, 49070, Note_on_c, 0, 57, 24
2, 49074, Note_on_c, 0, 62, 0
2, 49076, Note_on_c, 0, 90, 0
2, 49079, Note_on_c, 0, 57, 0
2, 49081, Note_on_c, 0, 79, 0
2, 49082, Note_on_c, 0, 58, 0
2, 49086, Note_on_c, 0, 91, 0
2, 49157, Note_on_c, 0, 91, 80
2, 49158, Note_on_c, 0, 79, 77
2, 49180, Note_on_c, 0, 79, 0
2, 49180, Note_on_c, 0, 62, 57
2, 49183, Note_on_c, 0, 91, 0
2, 49183, Note_on_c, 0, 58, 35
2, 49191, Note_on_c, 0, 62, 0
2, 49201, Note_on_c, 0, 58, 0
2, 49237, Note_on_c, 0, 91, 83
2, 49240, Note_on_c, 0, 79, 71
2, 49265, Note_on_c, 0, 79, 0
2, 49276, Note_on_c, 0, 91, 0
2, 49298, Note_on_c, 0, 89, 62
2, 49298, Note_on_c, 0, 62, 32
2, 49298, Note_on_c, 0, 58, 45
2, 49308, Note_on_c, 0, 58, 0
2, 49308, Note_on_c, 0, 62, 0
2, 49322, Note_on_c, 0, 89, 0
2, 49406, Note_on_c, 0, 63, 74
2, 49408, Note_on_c, 0, 58, 68
2, 49412, Note_on_c, 0, 92, 77
2, 49412, Note_on_c, 0, 80, 80
2, 49418, Note_on_c, 0, 52, 45
2, 49426, Note_on_c, 0, 63, 0
2, 49429, Note_on_c, 0, 80, 0
2, 49429, Note_on_c, 0, 52, 0
2, 49432, Note_on_c, 0, 92, 0
2, 49441, Note_on_c, 0, 58, 0
2, 49473, Note_on_c, 0, 92, 79
2, 49477, Note_on_c, 0, 80, 67
2, 49519, Note_on_c, 0, 92, 0
2, 49525, Note_on_c, 0, 80, 0
2, 49553, Note_on_c, 0, 78, 55
2, 49555, Note_on_c, 0, 90, 37
2, 49577, Note_on_c, 0, 78, 0
2, 49584, Note_on_c, 0, 90, 0
2, 49642, Note_on_c, 0, 63, 77
2, 49642, Note_on_c, 0, 58, 61
2, 49648, Note_on_c, 0, 52, 59
2, 49660, Note_on_c, 0, 52, 0
2, 49671, Note_on_c, 0, 52, 17
2, 49816, Note_on_c, 0, 52, 0
2, 49836, Note_on_c, 0, 58, 0
2, 49838, Note_on_c, 0, 63, 0
2, 49881, Note_on_c, 0, 64, 60
2, 49883, Note_on_c, 0, 91, 62
2, 49886, Note_on_c, 0, 60, 54
2, 49887, Note_on_c, 0, 57, 44
2, 49892, Note_on_c, 0, 64, 0
2, 49902, Note_on_c, 0, 91, 0
2, 49913, Note_on_c, 0, 60, 0
2, 49920, Note_on_c, 0, 57, 0
2, 49928, Note_on_c, 0, 95, 66
2, 49979, Note_on_c, 0, 95, 0
2, 50001, Note_on_c, 0, 64, 68
2, 50006, Note_on_c, 0, 98, 74
2, 50008, Note_on_c, 0, 86, 61
2, 50009, Note_on_c, 0, 60, 57
2, 50012, Note_on_c, 0, 57, 37
2, 50012, Note_on_c, 0, 55, 36
2, 50025, Note_on_c, 0, 64, 0
2, 50027, Note_on_c, 0, 55, 0
2, 50032, Note_on_c, 0, 98, 0
2, 50033, Note_on_c, 0, 86, 0
2, 50060, Note_on_c, 0, 96, 62
2, 50063, Note_on_c, 0, 60, 0
2, 50071, Note_on_c, 0, 57, 0
2, 50108, Note_on_c, 0, 96, 0
2, 50143, Note_on_c, 0, 60, 38
2, 50173, Note_on_c, 0, 60, 0
2, 50175, Note_on_c, 0, 98, 76
2, 50176, Note_on_c, 0, 86, 67
2, 50223, Note_on_c, 0, 86, 0
2, 50230, Note_on_c, 0, 98, 0
2, 50250, Note_on_c, 0, 64, 60
2, 50258, Note_on_c, 0, 60, 47
2, 50264, Note_on_c, 0, 64, 0
2, 50264, Note_on_c, 0, 57, 37
2, 50285, Note_on_c, 0, 60, 0
2, 50287, Note_on_c, 0, 57, 0
2, 50367, Note_on_c, 0, 56, 53
2, 50368, Note_on_c, 0, 96, 80
2, 50368, Note_on_c, 0, 62, 68
2, 50370, Note_on_c, 0, 59, 60
2, 50387, Note_on_c, 0, 62, 0
2, 50404, Note_on_c, 0, 96, 0
2, 50405, Note_on_c, 0, 59, 0
2, 50420, Note_on_c, 0, 56, 0
2, 50431, Note_on_c, 0, 98, 79
2, 50434, Note_on_c, 0, 86, 66
2, 50472, Note_on_c, 0, 98, 0
2, 50476, Note_on_c, 0, 86, 0
2, 50496, Note_on_c, 0, 56, 34
2, 50499, Note_on_c, 0, 59, 37
2, 50502, Note_on_c, 0, 98, 64
2, 50507, Note_on_c, 0, 86, 43
2, 50522, Note_on_c, 0, 59, 0
2, 50530, Note_on_c, 0, 86, 0
2, 50538, Note_on_c, 0, 56, 0
2, 50540, Note_on_c, 0, 98, 0
2, 50562, Note_on_c, 0, 97, 72
2, 50597, Note_on_c, 0, 97, 0
2, 50623, Note_on_c, 0, 96, 82
2, 50626, Note_on_c, 0, 56, 33
2, 50634, Note_on_c, 0, 59, 34
2, 50654, Note_on_c, 0, 59, 0
2, 50661, Note_on_c, 0, 96, 0
2, 50668, Note_on_c, 0, 56, 0
2, 50684, Note_on_c, 0, 95, 65
2, 50721, Note_on_c, 0, 95, 0
2, 50740, Note_on_c, 0, 92, 72
2, 50744, Note_on_c, 0, 62, 45
2, 50745, Note_on_c, 0, 56, 40
2, 50748, Note_on_c, 0, 59, 41
2, 50754, Note_on_c, 0, 62, 0
2, 50767, Note_on_c, 0, 59, 0
2, 50780, Note_on_c, 0, 92, 0
2, 50781, Note_on_c, 0, 56, 0
2, 50794, Note_on_c, 0, 89, 42
2, 50824, Note_on_c, 0, 89, 0
2, 50858, Note_on_c, 0, 86, 54
2, 50865, Note_on_c, 0, 58, 45
2, 50867, Note_on_c, 0, 62, 37
2, 50874, Note_on_c, 0, 58, 0
2, 50877, Note_on_c, 0, 62, 0
2, 50910, Note_on_c, 0, 86, 0
2, 50917, Note_on_c, 0, 83, 28
2, 50964, Note_on_c, 0, 83, 0
2, 50979, Note_on_c, 0, 89, 74
2, 51015, Note_on_c, 0, 89, 0
2, 51029, Note_on_c, 0, 86, 43
2, 51078, Note_on_c, 0, 86, 0
2, 51093, Note_on_c, 0, 82, 61
2, 51100, Note_on_c, 0, 62, 48
2, 51100, Note_on_c, 0, 58, 49
2, 51111, Note_on_c, 0, 62, 0
2, 51128, Note_on_c, 0, 82, 0
2, 51129, Note_on_c, 0, 58, 0
2, 51145, Note_on_c, 0, 81, 40
2, 51206, Note_on_c, 0, 81, 0
2, 51220, Note_on_c, 0, 82, 62
2, 51261, Note_on_c, 0, 82, 0
2, 51277, Note_on_c, 0, 84, 58
2, 51322, Note_on_c, 0, 84, 0
2, 51344, Note_on_c, 0, 86, 74
2, 51344, Note_on_c, 0, 62, 53
2, 51346, Note_on_c, 0, 58, 62
2, 51350, Note_on_c, 0, 60, 50
2, 51360, Note_on_c, 0, 60, 0
2, 51365, Note_on_c, 0, 62, 0
2, 51372, Note_on_c, 0, 86, 0
2, 51379, Note_on_c, 0, 58, 0
2, 51405, Note_on_c, 0, 82, 59
2, 51439, Note_on_c, 0, 82, 0
2, 51467, Note_on_c, 0, 79, 50
2, 51488, Note_on_c, 0, 79, 0
2, 51512, Note_on_c, 0, 81, 51
2, 51557, Note_on_c, 0, 81, 0
2, 51570, Note_on_c, 0, 61, 71
2, 51571, Note_on_c, 0, 65, 81
2, 51574, Note_on_c, 0, 55, 78
2, 51578, Note_on_c, 0, 82, 70
2, 51599, Note_on_c, 0, 55, 0
2, 51600, Note_on_c, 0, 65, 0
2, 51613, Note_on_c, 0, 82, 0
2, 51631, Note_on_c, 0, 61, 0
2, 51636, Note_on_c, 0, 81, 57
2, 51679, Note_on_c, 0, 81, 0
2, 51699, Note_on_c, 0, 79, 67
2, 51733, Note_on_c, 0, 79, 0
2, 51747, Note_on_c, 0, 77, 19
2, 51786, Note_on_c, 0, 77, 0
2, 51818, Note_on_c, 0, 76, 34
2, 51823, Note_on_c, 0, 74, 33
2, 51834, Note_on_c, 0, 74, 0
2, 51842, Note_on_c, 0, 76, 0
2, 51856, Note_on_c, 0, 77, 69
2, 51862, Note_on_c, 0, 53, 59
2, 51862, Note_on_c, 0, 64, 75
2, 51866, Note_on_c, 0, 60, 65
2, 51869, Note_on_c, 0, 57, 60
2, 51871, Note_on_c, 0, 56, 26
2, 52058, Note_on_c, 0, 53, 0
2, 52064, Note_on_c, 0, 56, 0
2, 52065, Note_on_c, 0, 64, 0
2, 52067, Note_on_c, 0, 57, 0
2, 52070, Note_on_c, 0, 60, 0
2, 52080, Note_on_c, 0, 77, 0
2, 52084, Note_on_c, 0, 53, 61
2, 52085, Note_on_c, 0, 64, 78
2, 52088, Note_on_c, 0, 76, 82
2, 52089, Note_on_c, 0, 60, 68
2, 52091, Note_on_c, 0, 57, 64
2, 52151, Note_on_c, 0, 57, 0
2, 52156, Note_on_c, 0, 76, 0
2, 52157, Note_on_c, 0, 53, 0
2, 52158, Note_on_c, 0, 60, 0
2, 52166, Note_on_c, 0, 64, 0
2, 52169, Note_on_c, 0, 77, 50
2, 52191, Note_on_c, 0, 77, 0
2, 52195, Note_on_c, 0, 60, 36
2, 52195, Note_on_c, 0, 53, 38
2, 52196, Note_on_c, 0, 64, 28
2, 52201, Note_on_c, 0, 57, 54
2, 52204, Note_on_c, 0, 56, 33
2, 52207, Control_c, 0, 64, 127
2, 52210, Note_on_c, 0, 78, 59
2, 52248, Note_on_c, 0, 64, 0
2, 52255, Note_on_c, 0, 60, 0
2, 52258, Note_on_c, 0, 53, 0
2, 52264, Note_on_c, 0, 57, 0
2, 52266, Note_on_c, 0, 56, 0
2, 52269, Note_on_c, 0, 78, 0
2, 52289, Control_c, 0, 64, 0
2, 52289, Note_on_c, 0, 53, 74
2, 52289, Note_on_c, 0, 64, 83
2, 52290, Note_on_c, 0, 79, 80
2, 52290, Note_on_c, 0, 59, 75
2, 52328, Control_c, 0, 64, 127
2, 52380, Note_on_c, 0, 53, 0
2, 52381, Note_on_c, 0, 64, 0
2, 52390, Note_on_c, 0, 59, 0
2, 52398, Note_on_c, 0, 73, 61
2, 52400, Note_on_c, 0, 71, 73
2, 52401, Note_on_c, 0, 64, 71
2, 52403, Note_on_c, 0, 53, 74
2, 52405, Note_on_c, 0, 59, 53
2, 52413, Control_c, 0, 64, 0
2, 52436, Control_c, 0, 64, 127
2, 52505, Note_on_c, 0, 79, 0
2, 52513, Note_on_c, 0, 71, 0
2, 52517, Note_on_c, 0, 53, 0
2, 52518, Note_on_c, 0, 73, 0
2, 52521, Note_on_c, 0, 64, 0
2, 52536, Note_on_c, 0, 59, 0
2, 52566, Note_on_c, 0, 73, 48
2, 52567, Note_on_c, 0, 59, 57
2, 52568, Note_on_c, 0, 71, 65
2, 52568, Note_on_c, 0, 64, 79
2, 52569, Note_on_c, 0, 53, 68
2, 52569, Note_on_c, 0, 65, 65
2, 52585, Control_c, 0, 64, 0
2, 52676, Control_c, 0, 64, 127
2, 52682, Note_on_c, 0, 65, 0
2, 52695, Note_on_c, 0, 71, 0
2, 52701, Note_on_c, 0, 73, 0
2, 52734, Note_on_c, 0, 64, 0
2, 52747, Note_on_c, 0, 59, 0
2, 52769, Note_on_c, 0, 81, 79
2, 52777, Note_on_c, 0, 80, 42
2, 52795, Note_on_c, 0, 53, 0
2, 52801, Note_on_c, 0, 80, 0
2, 52809, Note_on_c, 0, 81, 0
2, 52820, Control_c, 0, 64, 0
2, 52825, Note_on_c, 0, 58, 67
2, 52825, Note_on_c, 0, 72, 78
2, 52826, Note_on_c, 0, 62, 66
2, 52827, Note_on_c, 0, 73, 52
2, 52828, Note_on_c, 0, 57, 65
2, 52834, Note_on_c, 0, 74, 64
2, 52869, Note_on_c, 0, 74, 0
2, 52899, Note_on_c, 0, 72, 0
2, 52903, Note_on_c, 0, 73, 0
2, 52906, Note_on_c, 0, 62, 0
2, 52914, Note_on_c, 0, 57, 0
2, 52915, Note_on_c, 0, 58, 0
2, 52931, Note_on_c, 0, 73, 59
2, 52933, Note_on_c, 0, 62, 56
2, 52934, Control_c, 0, 64, 127
2, 52935, Note_on_c, 0, 58, 65
2, 52935, Note_on_c, 0, 71, 65
2, 52939, Note_on_c, 0, 57, 70
2, 52942, Note_on_c, 0, 78, 1
2, 53007, Control_c, 0, 64, 0
2, 53020, Note_on_c, 0, 71, 0
2, 53027, Note_on_c, 0, 62, 0
2, 53037, Note_on_c, 0, 73, 0
2, 53040, Note_on_c, 0, 78, 0
2, 53045, Note_on_c, 0, 57, 0
2, 53048, Note_on_c, 0, 58, 0
2, 53061, Control_c, 0, 64, 127
2, 53123, Control_c, 0, 64, 0
2, 53125, Note_on_c, 0, 58, 79
2, 53126, Note_on_c, 0, 62, 79
2, 53127, Note_on_c, 0, 81, 84
2, 53129, Note_on_c, 0, 57, 71
2, 53165, Note_on_c, 0, 81, 0
2, 53166, Note_on_c, 0, 62, 0
2, 53171, Note_on_c, 0, 57, 0
2, 53180, Note_on_c, 0, 58, 0
2, 53189, Note_on_c, 0, 75, 74
2, 53190, Note_on_c, 0, 73, 50
2, 53191, Note_on_c, 0, 62, 63
2, 53191, Note_on_c, 0, 58, 45
2, 53193, Note_on_c, 0, 57, 31
2, 53194, Control_c, 0, 64, 127
2, 53230, Control_c, 0, 64, 0
2, 53253, Note_on_c, 0, 73, 0
2, 53255, Note_on_c, 0, 75, 0
2, 53262, Note_on_c, 0, 62, 0
2, 53274, Note_on_c, 0, 57, 0
2, 53285, Note_on_c, 0, 58, 0
2, 53359, Note_on_c, 0, 63, 74
2, 53362, Note_on_c, 0, 58, 54
2, 53362, Note_on_c, 0, 56, 53
2, 53365, Note_on_c, 0, 52, 62
2, 53501, Note_on_c, 0, 52, 0
2, 53508, Note_on_c, 0, 63, 0
2, 53518, Note_on_c, 0, 56, 0
2, 53519, Note_on_c, 0, 58, 0
2, 53530, Note_on_c, 0, 63, 72
2, 53533, Note_on_c, 0, 82, 71
2, 53535, Note_on_c, 0, 56, 34
2, 53536, Note_on_c, 0, 58, 43
2, 53536, Note_on_c, 0, 52, 54
2, 53536, Note_on_c, 0, 70, 80
2, 53563, Note_on_c, 0, 70, 0
2, 53575, Note_on_c, 0, 52, 0
2, 53577, Note_on_c, 0, 82, 0
2, 53579, Note_on_c, 0, 63, 0
2, 53583, Note_on_c, 0, 56, 0
2, 53587, Note_on_c, 0, 58, 0
2, 53649, Note_on_c, 0, 63, 64
2, 53649, Note_on_c, 0, 84, 64
2, 53650, Note_on_c, 0, 72, 49
2, 53652, Note_on_c, 0, 52, 58
2, 53653, Note_on_c, 0, 58, 48
2, 53661, Note_on_c, 0, 72, 0
2, 53662, Note_on_c, 0, 56, 21
2, 53674, Note_on_c, 0, 84, 0
2, 53708, Note_on_c, 0, 63, 0
2, 53711, Note_on_c, 0, 56, 0
2, 53712, Note_on_c, 0, 52, 0
2, 53728, Note_on_c, 0, 58, 0
2, 53760, Note_on_c, 0, 53, 67
2, 53760, Note_on_c, 0, 57, 68
2, 53760, Note_on_c, 0, 79, 61
2, 53760, Note_on_c, 0, 77, 75
2, 53760, Note_on_c, 0, 84, 53
2, 53760, Note_on_c, 0, 91, 70
2, 53760, Note_on_c, 0, 89, 76
2, 53766, Note_on_c, 0, 60, 78
2, 53766, Note_on_c, 0, 64, 85
2, 53770, Note_on_c, 0, 79, 0
2, 53779, Note_on_c, 0, 91, 0
2, 53783, Control_c, 0, 64, 127
2, 53808, Control_c, 0, 64, 0
2, 53859, Note_on_c, 0, 89, 0
2, 53862, Note_on_c, 0, 84, 0
2, 53876, Control_c, 0, 64, 127
2, 53877, Note_on_c, 0, 77, 0
2, 53915, Note_on_c, 0, 57, 0
2, 53921, Note_on_c, 0, 64, 0
2, 53923, Note_on_c, 0, 53, 0
2, 53933, Note_on_c, 0, 60, 0
2, 53967, Note_on_c, 0, 80, 78
2, 53970, Note_on_c, 0, 62, 78
2, 53972, Note_on_c, 0, 74, 69
2, 53972, Note_on_c, 0, 84, 66
2, 53973, Note_on_c, 0, 60, 68
2, 53973, Note_on_c, 0, 53, 60
2, 53974, Note_on_c, 0, 57, 60
2, 53979, Control_c, 0, 64, 0
2, 53980, Note_on_c, 0, 84, 31
2, 53983, Note_on_c, 0, 56, 31
2, 53990, Note_on_c, 0, 84, 0
2, 54015, Note_on_c, 0, 74, 0
2, 54016, Note_on_c, 0, 84, 0
2, 54018, Note_on_c, 0, 62, 0
2, 54024, Note_on_c, 0, 56, 0
2, 54024, Note_on_c, 0, 53, 0
2, 54026, Note_on_c, 0, 60, 0
2, 54029, Note_on_c, 0, 57, 0
2, 54031, Note_on_c, 0, 80, 0
2, 54041, Control_c, 0, 64, 127
2, 54044, Note_on_c, 0, 62, 56
2, 54050, Note_on_c, 0, 53, 42
2, 54051, Note_on_c, 0, 71, 65
2, 54053, Note_on_c, 0, 60, 62
2, 54055, Note_on_c, 0, 57, 63
2, 54056, Note_on_c, 0, 83, 44
2, 54074, Control_c, 0, 64, 0
2, 54083, Note_on_c, 0, 71, 0
2, 54089, Note_on_c, 0, 62, 0
2, 54089, Note_on_c, 0, 83, 0
2, 54103, Note_on_c, 0, 53, 0
2, 54103, Note_on_c, 0, 60, 0
2, 54105, Note_on_c, 0, 57, 0
2, 54156, Control_c, 0, 64, 127
2, 54176, Control_c, 0, 64, 0
2, 54210, Note_on_c, 0, 53, 45
2, 54210, Note_on_c, 0, 62, 51
2, 54211, Note_on_c, 0, 57, 58
2, 54212, Note_on_c, 0, 60, 59
2, 54214, Note_on_c, 0, 72, 66
2, 54216, Control_c, 0, 64, 127
2, 54219, Note_on_c, 0, 84, 26
2, 54229, Note_on_c, 0, 62, 0
2, 54233, Note_on_c, 0, 60, 0
2, 54235, Note_on_c, 0, 72, 0
2, 54236, Note_on_c, 0, 57, 0
2, 54244, Note_on_c, 0, 84, 0
2, 54245, Note_on_c, 0, 53, 0
2, 54270, Control_c, 0, 64, 0
2, 54303, Note_on_c, 0, 56, 55
2, 54305, Note_on_c, 0, 62, 76
2, 54305, Note_on_c, 0, 53, 64
2, 54306, Note_on_c, 0, 89, 80
2, 54307, Note_on_c, 0, 59, 59
2, 54307, Note_on_c, 0, 77, 68
2, 54309, Note_on_c, 0, 84, 70
2, 54335, Note_on_c, 0, 62, 0
2, 54336, Note_on_c, 0, 77, 0
2, 54338, Note_on_c, 0, 89, 0
2, 54339, Note_on_c, 0, 84, 0
2, 54340, Note_on_c, 0, 53, 0
2, 54341, Note_on_c, 0, 59, 0
2, 54350, Note_on_c, 0, 56, 0
2, 54383, Control_c, 0, 64, 127
2, 54389, Control_c, 0, 64, 0
2, 54390, Note_on_c, 0, 56, 56
2, 54390, Note_on_c, 0, 62, 74
2, 54391, Note_on_c, 0, 89, 73
2, 54392, Note_on_c, 0, 59, 59
2, 54393, Note_on_c, 0, 77, 60
2, 54394, Note_on_c, 0, 53, 61
2, 54395, Note_on_c, 0, 84, 63
2, 54490, Control_c, 0, 64, 127
2, 54605, Note_on_c, 0, 89, 0
2, 54614, Note_on_c, 0, 84, 0
2, 54629, Note_on_c, 0, 77, 0
2, 54629, Note_on_c, 0, 62, 0
2, 54638, Note_on_c, 0, 59, 0
2, 54657, Note_on_c, 0, 56, 0
2, 54660, Note_on_c, 0, 53, 0
2, 54780, Note_on_c, 0, 51, 42
2, 54789, Note_on_c, 0, 52, 71
2, 54792, Note_on_c, 0, 51, 0
2, 54801, Note_on_c, 0, 65, 74
2, 54803, Note_on_c, 0, 58, 82
2, 54803, Note_on_c, 0, 62, 73
2, 54807, Note_on_c, 0, 55, 84
2, 54807, Note_on_c, 0, 53, 83
2, 54810, Control_c, 0, 64, 0
2, 54822, Note_on_c, 0, 52, 0
2, 54872, Control_c, 0, 64, 127
2, 54903, Control_c, 0, 64, 0
2, 54948, Control_c, 0, 64, 127
2, 54961, Note_on_c, 0, 62, 0
2, 54962, Note_on_c, 0, 65, 0
2, 54973, Note_on_c, 0, 53, 0
2, 54982, Note_on_c, 0, 55, 0
2, 54984, Note_on_c, 0, 58, 0
2, 55025, Note_on_c, 0, 46, 31
2, 55042, Note_on_c, 0, 47, 54
2, 55048, Note_on_c, 0, 60, 66
2, 55050, Note_on_c, 0, 46, 0
2, 55050, Note_on_c, 0, 55, 67
2, 55050, Note_on_c, 0, 52, 67
2, 55052, Note_on_c, 0, 58, 62
2, 55058, Note_on_c, 0, 48, 65
2, 55062, Control_c, 0, 64, 0
2, 55069, Note_on_c, 0, 47, 0
2, 55086, Note_on_c, 0, 52, 0
2, 55094, Note_on_c, 0, 60, 0
2, 55101, Note_on_c, 0, 55, 0
2, 55103, Note_on_c, 0, 58, 0
2, 55110, Note_on_c, 0, 48, 0
2, 55117, Note_on_c, 0, 47, 51
2, 55118, Note_on_c, 0, 59, 28
2, 55119, Note_on_c, 0, 52, 32
2, 55124, Note_on_c, 0, 55, 37
2, 55150, Note_on_c, 0, 55, 0
2, 55152, Note_on_c, 0, 52, 0
2, 55171, Note_on_c, 0, 59, 0
2, 55185, Note_on_c, 0, 47, 0
2, 55187, Note_on_c, 0, 48, 57
2, 55188, Note_on_c, 0, 55, 50
2, 55188, Note_on_c, 0, 52, 30
2, 55189, Note_on_c, 0, 60, 58
2, 55189, Control_c, 0, 64, 127
2, 55195, Note_on_c, 0, 59, 18
2, 55198, Note_on_c, 0, 55, 0
2, 55199, Note_on_c, 0, 52, 0
2, 55204, Note_on_c, 0, 60, 0
2, 55209, Note_on_c, 0, 59, 0
2, 55218, Note_on_c, 0, 48, 0
2, 55229, Control_c, 0, 64, 0
2, 55253, Note_on_c, 0, 58, 46
2, 55254, Note_on_c, 0, 64, 48
2, 55254, Note_on_c, 0, 55, 46
2, 55255, Note_on_c, 0, 52, 68
2, 55257, Note_on_c, 0, 60, 53
2, 55348, Note_on_c, 0, 55, 0
2, 55357, Note_on_c, 0, 58, 0
2, 55361, Note_on_c, 0, 60, 0
2, 55364, Note_on_c, 0, 52, 0
2, 55368, Note_on_c, 0, 64, 0
2, 55368, Control_c, 0, 64, 127
2, 55419, Control_c, 0, 64, 0
2, 55424, Note_on_c, 0, 58, 83
2, 55426, Note_on_c, 0, 73, 55
2, 55431, Note_on_c, 0, 68, 65
2, 55431, Note_on_c, 0, 64, 71
2, 55433, Note_on_c, 0, 70, 55
2, 55473, Note_on_c, 0, 64, 0
2, 55480, Note_on_c, 0, 73, 0
2, 55482, Note_on_c, 0, 70, 0
2, 55484, Note_on_c, 0, 68, 0
2, 55486, Note_on_c, 0, 58, 0
2, 55498, Note_on_c, 0, 57, 62
2, 55498, Note_on_c, 0, 72, 61
2, 55502, Note_on_c, 0, 67, 55
2, 55504, Note_on_c, 0, 62, 54
2, 55518, Control_c, 0, 64, 127
2, 55535, Note_on_c, 0, 62, 0
2, 55548, Note_on_c, 0, 67, 0
2, 55550, Note_on_c, 0, 72, 0
2, 55557, Control_c, 0, 64, 0
2, 55581, Note_on_c, 0, 66, 56
2, 55582, Note_on_c, 0, 71, 40
2, 55582, Note_on_c, 0, 61, 45
2, 55586, Note_on_c, 0, 56, 57
2, 55590, Note_on_c, 0, 57, 0
2, 55594, Control_c, 0, 64, 127
2, 55626, Note_on_c, 0, 61, 0
2, 55634, Control_c, 0, 64, 0
2, 55635, Note_on_c, 0, 66, 0
2, 55639, Note_on_c, 0, 71, 0
2, 55658, Note_on_c, 0, 72, 68
2, 55660, Note_on_c, 0, 67, 61
2, 55661, Note_on_c, 0, 57, 71
2, 55661, Note_on_c, 0, 62, 46
2, 55667, Note_on_c, 0, 56, 0
2, 55676, Note_on_c, 0, 71, 22
2, 55803, Control_c, 0, 64, 127
2, 55806, Note_on_c, 0, 72, 0
2, 55809, Note_on_c, 0, 57, 0
2, 55812, Note_on_c, 0, 67, 0
2, 55816, Note_on_c, 0, 71, 0
2, 55827, Note_on_c, 0, 62, 0
2, 55896, Control_c, 0, 64, 0
2, 55902, Control_c, 0, 64, 127
2, 56137, Control_c, 0, 64, 0
2, 56156, Note_on_c, 0, 72, 78
2, 56157, Note_on_c, 0, 67, 74
2, 56158, Note_on_c, 0, 57, 76
2, 56160, Note_on_c, 0, 69, 67
2, 56160, Note_on_c, 0, 64, 76
2, 56220, Note_on_c, 0, 72, 0
2, 56224, Note_on_c, 0, 69, 0
2, 56226, Note_on_c, 0, 67, 0
2, 56228, Note_on_c, 0, 64, 0
2, 56242, Note_on_c, 0, 57, 0
2, 56248, Note_on_c, 0, 56, 46
2, 56287, Note_on_c, 0, 67, 68
2, 56287, Note_on_c, 0, 72, 71
2, 56287, Note_on_c, 0, 57, 71
2, 56290, Control_c, 0, 64, 127
2, 56290, Note_on_c, 0, 64, 68
2, 56294, Note_on_c, 0, 56, 0
2, 56294, Note_on_c, 0, 69, 46
2, 56303, Note_on_c, 0, 64, 0
2, 56308, Note_on_c, 0, 69, 0
2, 56314, Note_on_c, 0, 67, 0
2, 56318, Note_on_c, 0, 57, 0
2, 56325, Note_on_c, 0, 72, 0
2, 56391, Control_c, 0, 64, 0
2, 56410, Note_on_c, 0, 76, 74
2, 56410, Note_on_c, 0, 69, 84
2, 56411, Note_on_c, 0, 81, 80
2, 56412, Note_on_c, 0, 54, 74
2, 56412, Note_on_c, 0, 64, 78
2, 56415, Note_on_c, 0, 60, 64
2, 56527, Control_c, 0, 64, 127
2, 56545, Note_on_c, 0, 60, 0
2, 56551, Note_on_c, 0, 64, 0
2, 56555, Note_on_c, 0, 69, 0
2, 56570, Note_on_c, 0, 76, 0
2, 56577, Note_on_c, 0, 81, 0
2, 56578, Note_on_c, 0, 54, 0
2, 56618, Control_c, 0, 64, 0
2, 56639, Note_on_c, 0, 58, 65
2, 56639, Note_on_c, 0, 53, 55
2, 56641, Note_on_c, 0, 62, 66
2, 56642, Note_on_c, 0, 57, 63
2, 56647, Note_on_c, 0, 81, 69
2, 56648, Note_on_c, 0, 76, 63
2, 56648, Note_on_c, 0, 69, 71
2, 56653, Note_on_c, 0, 57, 0
2, 56658, Note_on_c, 0, 62, 0
2, 56658, Note_on_c, 0, 69, 0
2, 56665, Note_on_c, 0, 53, 0
2, 56668, Note_on_c, 0, 76, 0
2, 56669, Note_on_c, 0, 58, 0
2, 56676, Note_on_c, 0, 81, 0
2, 56771, Note_on_c, 0, 58, 71
2, 56771, Note_on_c, 0, 84, 77
2, 56772, Note_on_c, 0, 80, 73
2, 56772, Note_on_c, 0, 53, 79
2, 56773, Note_on_c, 0, 57, 74
2, 56773, Note_on_c, 0, 62, 87
2, 56775, Note_on_c, 0, 72, 78
2, 56777, Note_on_c, 0, 78, 55
2, 56786, Note_on_c, 0, 78, 0
2, 56831, Note_on_c, 0, 81, 31
2, 56847, Note_on_c, 0, 80, 0
2, 56889, Control_c, 0, 64, 127
2, 56894, Note_on_c, 0, 81, 0
2, 56899, Note_on_c, 0, 84, 0
2, 56907, Note_on_c, 0, 72, 0
2, 56919, Note_on_c, 0, 62, 0
2, 56923, Note_on_c, 0, 53, 0
2, 56929, Note_on_c, 0, 57, 0
2, 56939, Note_on_c, 0, 58, 0
2, 56976, Note_on_c, 0, 82, 64
2, 56978, Note_on_c, 0, 62, 70
2, 56979, Note_on_c, 0, 58, 57
2, 56979, Note_on_c, 0, 70, 67
2, 56981, Note_on_c, 0, 53, 60
2, 56981, Note_on_c, 0, 77, 61
2, 56985, Note_on_c, 0, 57, 49
2, 56988, Control_c, 0, 64, 0
2, 56998, Note_on_c, 0, 57, 0
2, 57009, Note_on_c, 0, 62, 0
2, 57012, Note_on_c, 0, 77, 0
2, 57014, Note_on_c, 0, 70, 0
2, 57017, Note_on_c, 0, 82, 0
2, 57027, Note_on_c, 0, 58, 0
2, 57028, Note_on_c, 0, 53, 0
2, 57131, Note_on_c, 0, 79, 50
2, 57133, Note_on_c, 0, 74, 59
2, 57136, Note_on_c, 0, 67, 51
2, 57136, Note_on_c, 0, 58, 46
2, 57137, Note_on_c, 0, 62, 58
2, 57138, Control_c, 0, 64, 127
2, 57139, Note_on_c, 0, 52, 58
2, 57215, Note_on_c, 0, 79, 0
2, 57218, Note_on_c, 0, 74, 0
2, 57233, Note_on_c, 0, 67, 0
2, 57252, Note_on_c, 0, 62, 0
2, 57285, Note_on_c, 0, 52, 0
2, 57307, Note_on_c, 0, 58, 0
2, 57363, Note_on_c, 0, 61, 60
2, 57364, Note_on_c, 0, 73, 48
2, 57366, Note_on_c, 0, 52, 51
2, 57366, Note_on_c, 0, 68, 59
2, 57367, Note_on_c, 0, 64, 68
2, 57368, Note_on_c, 0, 58, 45
2, 57369, Note_on_c, 0, 70, 46
2, 57373, Control_c, 0, 64, 0
2, 57480, Control_c, 0, 64, 127
2, 57489, Note_on_c, 0, 64, 0
2, 57496, Note_on_c, 0, 52, 0
2, 57500, Note_on_c, 0, 68, 0
2, 57501, Note_on_c, 0, 70, 0
2, 57503, Note_on_c, 0, 61, 0
2, 57506, Note_on_c, 0, 58, 0
2, 57508, Note_on_c, 0, 73, 0
2, 57661, Control_c, 0, 64, 0
2, 57685, Note_on_c, 0, 63, 73
2, 57688, Note_on_c, 0, 79, 68
2, 57689, Note_on_c, 0, 60, 68
2, 57689, Note_on_c, 0, 58, 53
2, 57689, Note_on_c, 0, 74, 80
2, 57692, Note_on_c, 0, 53, 61
2, 57692, Note_on_c, 0, 67, 74
2, 57738, Control_c, 0, 64, 127
2, 57793, Note_on_c, 0, 53, 0
2, 57796, Note_on_c, 0, 67, 0
2, 57804, Note_on_c, 0, 79, 0
2, 57807, Note_on_c, 0, 63, 0
2, 57810, Note_on_c, 0, 58, 0
2, 57810, Note_on_c, 0, 60, 0
2, 57810, Note_on_c, 0, 74, 0
2, 57839, Control_c, 0, 64, 0
2, 57850, Note_on_c, 0, 63, 62
2, 57855, Note_on_c, 0, 74, 72
2, 57856, Note_on_c, 0, 81, 69
2, 57857, Note_on_c, 0, 58, 36
2, 57857, Note_on_c, 0, 60, 59
2, 57859, Note_on_c, 0, 69, 64
2, 57862, Note_on_c, 0, 53, 35
2, 57871, Note_on_c, 0, 69, 0
2, 57871, Note_on_c, 0, 60, 0
2, 57874, Note_on_c, 0, 53, 0
2, 57875, Note_on_c, 0, 63, 0
2, 57878, Note_on_c, 0, 74, 0
2, 57881, Note_on_c, 0, 81, 0
2, 57892, Note_on_c, 0, 58, 0
2, 57972, Note_on_c, 0, 79, 63
2, 57973, Note_on_c, 0, 74, 68
2, 57974, Note_on_c, 0, 63, 59
2, 57977, Note_on_c, 0, 67, 48
2, 57979, Note_on_c, 0, 60, 55
2, 57979, Note_on_c, 0, 58, 44
2, 57984, Note_on_c, 0, 53, 33
2, 57989, Note_on_c, 0, 67, 0
2, 57991, Note_on_c, 0, 60, 0
2, 57995, Note_on_c, 0, 63, 0
2, 57996, Note_on_c, 0, 74, 0
2, 57998, Note_on_c, 0, 53, 0
2, 57999, Note_on_c, 0, 79, 0
2, 58015, Note_on_c, 0, 58, 0
2, 58092, Note_on_c, 0, 63, 57
2, 58095, Note_on_c, 0, 77, 44
2, 58097, Note_on_c, 0, 72, 62
2, 58097, Note_on_c, 0, 58, 43
2, 58098, Note_on_c, 0, 60, 54
2, 58098, Note_on_c, 0, 65, 57
2, 58100, Note_on_c, 0, 53, 44
2, 58210, Control_c, 0, 64, 127
2, 58247, Note_on_c, 0, 53, 0
2, 58254, Note_on_c, 0, 65, 0
2, 58261, Note_on_c, 0, 63, 0
2, 58262, Note_on_c, 0, 60, 0
2, 58262, Note_on_c, 0, 72, 0
2, 58267, Note_on_c, 0, 58, 0
2, 58271, Note_on_c, 0, 77, 0
2, 58311, Control_c, 0, 64, 0
2, 58322, Note_on_c, 0, 63, 74
2, 58325, Note_on_c, 0, 58, 49
2, 58325, Note_on_c, 0, 74, 85
2, 58326, Note_on_c, 0, 60, 68
2, 58326, Control_c, 0, 64, 127
2, 58327, Note_on_c, 0, 79, 74
2, 58327, Note_on_c, 0, 67, 84
2, 58329, Note_on_c, 0, 53, 54
2, 58360, Note_on_c, 0, 67, 0
2, 58366, Note_on_c, 0, 63, 0
2, 58370, Note_on_c, 0, 79, 0
2, 58370, Note_on_c, 0, 53, 0
2, 58372, Note_on_c, 0, 60, 0
2, 58373, Note_on_c, 0, 74, 0
2, 58379, Note_on_c, 0, 58, 0
2, 58411, Note_on_c, 0, 81, 72
2, 58412, Note_on_c, 0, 74, 54
2, 58415, Note_on_c, 0, 69, 46
2, 58418, Note_on_c, 0, 63, 32
2, 58420, Control_c, 0, 64, 0
2, 58420, Note_on_c, 0, 60, 41
2, 58422, Note_on_c, 0, 81, 0
2, 58425, Note_on_c, 0, 74, 0
2, 58426, Note_on_c, 0, 69, 0
2, 58428, Note_on_c, 0, 63, 0
2, 58430, Note_on_c, 0, 60, 0
2, 58456, Control_c, 0, 64, 127
2, 58458, Note_on_c, 0, 66, 69
2, 58458, Note_on_c, 0, 56, 60
2, 58466, Note_on_c, 0, 63, 37
2, 58476, Note_on_c, 0, 63, 0
2, 58483, Note_on_c, 0, 66, 0
2, 58495, Note_on_c, 0, 56, 0
2, 58543, Note_on_c, 0, 62, 75
2, 58544, Note_on_c, 0, 79, 79
2, 58544, Note_on_c, 0, 86, 66
2, 58545, Note_on_c, 0, 88, 80
2, 58546, Note_on_c, 0, 74, 74
2, 58547, Note_on_c, 0, 60, 75
2, 58547, Note_on_c, 0, 55, 74
2, 58547, Note_on_c, 0, 76, 62
2, 58548, Control_c, 0, 64, 0
2, 58550, Note_on_c, 0, 83, 38
2, 58551, Note_on_c, 0, 82, 38
2, 58551, Note_on_c, 0, 58, 54
2, 58554, Note_on_c, 0, 81, 48
2, 58564, Note_on_c, 0, 81, 0
2, 58575, Note_on_c, 0, 83, 0
2, 58578, Note_on_c, 0, 88, 0
2, 58586, Note_on_c, 0, 82, 0
2, 58670, Control_c, 0, 64, 127
2, 58697, Note_on_c, 0, 79, 0
2, 58721, Note_on_c, 0, 60, 0
2, 58738, Note_on_c, 0, 62, 0
2, 58749, Note_on_c, 0, 76, 0
2, 58760, Note_on_c, 0, 74, 0
2, 58770, Note_on_c, 0, 55, 0
2, 58780, Note_on_c, 0, 58, 0
2, 58794, Note_on_c, 0, 86, 0
2, 58803, Control_c, 0, 64, 0
2, 58807, Note_on_c, 0, 62, 53
2, 58808, Note_on_c, 0, 55, 54
2, 58808, Note_on_c, 0, 65, 73
2, 58809, Note_on_c, 0, 74, 49
2, 58810, Note_on_c, 0, 81, 52
2, 58811, Note_on_c, 0, 77, 53
2, 58811, Note_on_c, 0, 60, 67
2, 58920, Control_c, 0, 64, 127
2, 58931, Note_on_c, 0, 62, 0
2, 58932, Note_on_c, 0, 77, 0
2, 58935, Note_on_c, 0, 65, 0
2, 58945, Note_on_c, 0, 74, 0
2, 58958, Note_on_c, 0, 60, 0
2, 58961, Note_on_c, 0, 55, 0
2, 58978, Note_on_c, 0, 81, 0
2, 59001, Note_on_c, 0, 82, 77
2, 59002, Note_on_c, 0, 73, 62
2, 59002, Note_on_c, 0, 61, 69
2, 59003, Note_on_c, 0, 77, 76
2, 59003, Note_on_c, 0, 55, 83
2, 59005, Note_on_c, 0, 65, 80
2, 59018, Control_c, 0, 64, 0
2, 59157, Control_c, 0, 64, 127
2, 59268, Note_on_c, 0, 73, 0
2, 59290, Note_on_c, 0, 65, 0
2, 59300, Note_on_c, 0, 77, 0
2, 59306, Note_on_c, 0, 55, 0
2, 59331, Note_on_c, 0, 82, 0
2, 59335, Note_on_c, 0, 61, 0
2, 59468, Control_c, 0, 64, 0
2, 59524, Note_on_c, 0, 64, 53
2, 59528, Note_on_c, 0, 93, 64
2, 59536, Note_on_c, 0, 60, 33
2, 59542, Note_on_c, 0, 64, 0
2, 59543, Note_on_c, 0, 57, 20
2, 59547, Note_on_c, 0, 60, 0
2, 59552, Note_on_c, 0, 93, 0
2, 59554, Note_on_c, 0, 57, 0
2, 59721, Note_on_c, 0, 48, 32
2, 59726, Note_on_c, 0, 84, 57
2, 59758, Note_on_c, 0, 48, 0
2, 59761, Note_on_c, 0, 84, 0
2, 59772, Note_on_c, 0, 47, 45
2, 59784, Note_on_c, 0, 83, 33
2, 59824, Note_on_c, 0, 83, 0
2, 59843, Note_on_c, 0, 47, 0
2, 59854, Note_on_c, 0, 48, 48
2, 59858, Note_on_c, 0, 84, 47
2, 59866, Note_on_c, 0, 48, 0
2, 59869, Note_on_c, 0, 84, 0
2, 60056, Note_on_c, 0, 93, 22
2, 60081, Note_on_c, 0, 94, 52
2, 60081, Note_on_c, 0, 57, 38
2, 60093, Note_on_c, 0, 93, 0
2, 60098, Note_on_c, 0, 95, 75
2, 60099, Note_on_c, 0, 57, 0
2, 60106, Note_on_c, 0, 59, 63
2, 60109, Note_on_c, 0, 94, 0
2, 60128, Note_on_c, 0, 95, 0
2, 60133, Note_on_c, 0, 96, 95
2, 60133, Note_on_c, 0, 60, 99
2, 60150, Note_on_c, 0, 59, 0
2, 60225, Note_on_c, 0, 96, 0
2, 60240, Note_on_c, 0, 60, 0
2, 60265, Note_on_c, 0, 93, 81
2, 60267, Note_on_c, 0, 57, 68
2, 60365, Note_on_c, 0, 93, 0
2, 60379, Note_on_c, 0, 57, 0
2, 60571, Note_on_c, 0, 56, 48
2, 60572, Note_on_c, 0, 92, 45
2, 60573, Note_on_c, 0, 93, 71
2, 60574, Note_on_c, 0, 57, 62
2, 60586, Note_on_c, 0, 57, 0
2, 60586, Note_on_c, 0, 92, 0
2, 60587, Note_on_c, 0, 56, 0
2, 60594, Note_on_c, 0, 93, 0
2, 60675, Note_on_c, 0, 84, 59
2, 60677, Note_on_c, 0, 48, 50
2, 60722, Note_on_c, 0, 84, 0
2, 60734, Note_on_c, 0, 48, 0
2, 60742, Note_on_c, 0, 47, 49
2, 60747, Note_on_c, 0, 83, 44
2, 60781, Note_on_c, 0, 83, 0
2, 60809, Note_on_c, 0, 48, 60
2, 60810, Note_on_c, 0, 47, 0
2, 60817, Note_on_c, 0, 84, 48
2, 60819, Note_on_c, 0, 48, 0
2, 60849, Note_on_c, 0, 84, 0
2, 60924, Note_on_c, 0, 54, 59
2, 60924, Note_on_c, 0, 65, 72
2, 60925, Note_on_c, 0, 58, 55
2, 60926, Note_on_c, 0, 60, 64
2, 61055, Note_on_c, 0, 84, 88
2, 61080, Note_on_c, 0, 65, 0
2, 61081, Note_on_c, 0, 60, 0
2, 61089, Note_on_c, 0, 84, 0
2, 61118, Note_on_c, 0, 82, 76
2, 61133, Note_on_c, 0, 58, 0
2, 61137, Note_on_c, 0, 54, 0
2, 61149, Note_on_c, 0, 82, 0
2, 61216, Note_on_c, 0, 63, 63
2, 61217, Note_on_c, 0, 58, 51
2, 61221, Note_on_c, 0, 75, 79
2, 61223, Note_on_c, 0, 52, 54
2, 61305, Note_on_c, 0, 75, 0
2, 61336, Note_on_c, 0, 73, 58
2, 61391, Note_on_c, 0, 52, 0
2, 61401, Note_on_c, 0, 63, 0
2, 61403, Note_on_c, 0, 73, 0
2, 61411, Note_on_c, 0, 58, 0
2, 61452, Note_on_c, 0, 72, 78
2, 61476, Note_on_c, 0, 72, 0
2, 61645, Note_on_c, 0, 60, 76
2, 61664, Note_on_c, 0, 55, 40
2, 61666, Note_on_c, 0, 45, 36
2, 61676, Note_on_c, 0, 55, 0
2, 61689, Note_on_c, 0, 60, 0
2, 61707, Note_on_c, 0, 59, 56
2, 61745, Note_on_c, 0, 59, 0
2, 61755, Note_on_c, 0, 45, 0
2, 61779, Note_on_c, 0, 60, 70
2, 61800, Note_on_c, 0, 60, 0
2, 61884, Note_on_c, 0, 54, 37
2, 61893, Note_on_c, 0, 56, 49
2, 61897, Note_on_c, 0, 72, 74
2, 61898, Note_on_c, 0, 65, 83
2, 61900, Note_on_c, 0, 57, 74
2, 61901, Note_on_c, 0, 62, 71
2, 61903, Note_on_c, 0, 69, 50
2, 61911, Note_on_c, 0, 62, 0
2, 61912, Note_on_c, 0, 69, 0
2, 61915, Note_on_c, 0, 57, 0
2, 61917, Note_on_c, 0, 56, 0
2, 61918, Note_on_c, 0, 65, 0
2, 61920, Note_on_c, 0, 54, 0
2, 61926, Note_on_c, 0, 72, 0
2, 62059, Control_c, 0, 64, 127
2, 62132, Control_c, 0, 64, 0
2, 62171, Note_on_c, 0, 61, 35
2, 62173, Note_on_c, 0, 69, 52
2, 62173, Note_on_c, 0, 48, 47
2, 62175, Note_on_c, 0, 58, 40
2, 62175, Note_on_c, 0, 64, 51
2, 62211, Control_c, 0, 64, 127
2, 62246, Note_on_c, 0, 58, 0
2, 62259, Note_on_c, 0, 48, 0
2, 62268, Note_on_c, 0, 69, 0
2, 62280, Note_on_c, 0, 64, 0
2, 62299, Note_on_c, 0, 61, 0
2, 62409, Control_c, 0, 64, 0
2, 62421, Note_on_c, 0, 65, 66
2, 62422, Note_on_c, 0, 47, 62
2, 62423, Note_on_c, 0, 62, 55
2, 62423, Note_on_c, 0, 57, 66
2, 62447, Note_on_c, 0, 57, 0
2, 62456, Note_on_c, 0, 62, 0
2, 62456, Note_on_c, 0, 65, 0
2, 62457, Note_on_c, 0, 47, 0
2, 62502, Note_on_c, 0, 61, 60
2, 62503, Note_on_c, 0, 56, 61
2, 62504, Note_on_c, 0, 46, 62
2, 62506, Note_on_c, 0, 65, 56
2, 62538, Note_on_c, 0, 65, 0
2, 62547, Note_on_c, 0, 56, 0
2, 62552, Note_on_c, 0, 61, 0
2, 62558, Note_on_c, 0, 46, 0
2, 62561, Note_on_c, 0, 55, 62
2, 62563, Note_on_c, 0, 65, 55
2, 62566, Note_on_c, 0, 45, 59
2, 62567, Note_on_c, 0, 60, 64
2, 62618, Note_on_c, 0, 55, 0
2, 62625, Note_on_c, 0, 60, 0
2, 62626, Note_on_c, 0, 65, 0
2, 62638, Note_on_c, 0, 45, 0
2, 62673, Note_on_c, 0, 65, 58
2, 62675, Note_on_c, 0, 54, 58
2, 62675, Note_on_c, 0, 44, 53
2, 62676, Note_on_c, 0, 59, 57
2, 62712, Note_on_c, 0, 59, 0
2, 62714, Note_on_c, 0, 54, 0
2, 62722, Note_on_c, 0, 65, 0
2, 62748, Note_on_c, 0, 44, 0
2, 62748, Note_on_c, 0, 58, 56
2, 62749, Note_on_c, 0, 53, 50
2, 62751, Note_on_c, 0, 43, 50
2, 62775, Note_on_c, 0, 53, 0
2, 62782, Note_on_c, 0, 43, 0
2, 62783, Note_on_c, 0, 58, 0
2, 62893, Note_on_c, 0, 30, 42
2, 62895, Note_on_c, 0, 42, 44
2, 62899, Note_on_c, 0, 52, 57
2, 62899, Note_on_c, 0, 58, 55
2, 62907, Control_c, 0, 64, 127
2, 62978, Control_c, 0, 64, 0
2, 62997, Control_c, 0, 64, 127
2, 63030, Note_on_c, 0, 52, 0
2, 63043, Note_on_c, 0, 42, 0
2, 63061, Note_on_c, 0, 58, 0
2, 63067, Note_on_c, 0, 30, 0
2, 63091, Control_c, 0, 64, 0
2, 63094, Note_on_c, 0, 57, 58
2, 63098, Note_on_c, 0, 52, 42
2, 63098, Note_on_c, 0, 41, 48
2, 63101, Note_on_c, 0, 29, 40
2, 63153, Control_c, 0, 64, 127
2, 63211, Note_on_c, 0, 52, 0
2, 63216, Note_on_c, 0, 57, 0
2, 63290, Note_on_c, 0, 29, 0
2, 63294, Note_on_c, 0, 41, 0
2, 63501, Control_c, 0, 64, 0
2, 63501, End_track
3, 0, Start_track
3, 0, Title_t, ""
3, 0, Program_c, 1, 32
3, 0, Control_c, 1, 7, 120
3, 91, Note_on_c, 1, 41, 67
3, 366, Note_on_c, 1, 41, 0
3, 366, Note_on_c, 1, 36, 55
3, 469, Note_on_c, 1, 36, 0
3, 487, Note_on_c, 1, 32, 58
3, 834, Note_on_c, 1, 32, 0
3, 842, Note_on_c, 1, 35, 66
3, 921, Note_on_c, 1, 32, 60
3, 926, Note_on_c, 1, 35, 0
3, 948, Note_on_c, 1, 32, 0
3, 965, Note_on_c, 1, 31, 58
3, 1164, Note_on_c, 1, 45, 76
3, 1185, Note_on_c, 1, 31, 0
3, 1195, Note_on_c, 1, 45, 0
3, 1212, Note_on_c, 1, 43, 74
3, 1563, Note_on_c, 1, 36, 88
3, 1582, Note_on_c, 1, 43, 0
3, 1806, Note_on_c, 1, 41, 87
3, 1819, Note_on_c, 1, 36, 0
3, 2365, Note_on_c, 1, 33, 29
3, 2377, Note_on_c, 1, 33, 0
3, 2401, Note_on_c, 1, 38, 70
3, 2414, Note_on_c, 1, 41, 0
3, 2645, Note_on_c, 1, 45, 87
3, 2662, Note_on_c, 1, 38, 0
3, 2702, Note_on_c, 1, 45, 0
3, 2732, Note_on_c, 1, 38, 36
3, 2748, Note_on_c, 1, 38, 0
3, 2767, Note_on_c, 1, 42, 75
3, 2960, Note_on_c, 1, 42, 0
3, 2962, Note_on_c, 1, 43, 72
3, 2992, Note_on_c, 1, 43, 0
3, 3008, Note_on_c, 1, 38, 74
3, 3121, Note_on_c, 1, 38, 0
3, 3129, Note_on_c, 1, 34, 64
3, 3230, Note_on_c, 1, 34, 0
3, 3237, Note_on_c, 1, 35, 70
3, 3362, Note_on_c, 1, 35, 0
3, 3369, Note_on_c, 1, 36, 72
3, 3489, Note_on_c, 1, 50, 110
3, 3504, Note_on_c, 1, 36, 0
3, 3724, Note_on_c, 1, 50, 0
3, 3730, Note_on_c, 1, 48, 84
3, 3883, Note_on_c, 1, 48, 0
3, 3920, Note_on_c, 1, 46, 70
3, 3962, Note_on_c, 1, 46, 0
3, 3969, Note_on_c, 1, 45, 67
3, 4075, Note_on_c, 1, 45, 0
3, 4089, Note_on_c, 1, 40, 66
3, 4201, Note_on_c, 1, 40, 0
3, 4347, Note_on_c, 1, 32, 70
3, 4564, Note_on_c, 1, 44, 73
3, 4618, Note_on_c, 1, 32, 0
3, 4643, Note_on_c, 1, 44, 0
3, 4647, Note_on_c, 1, 47, 63
3, 4687, Note_on_c, 1, 47, 0
3, 4689, Note_on_c, 1, 44, 53
3, 4769, Note_on_c, 1, 44, 0
3, 4809, Note_on_c, 1, 43, 95
3, 4872, Pitch_bend_c, 1, 8192
3, 4875, Pitch_bend_c, 1, 8192
3, 4879, Pitch_bend_c, 1, 7680
3, 4881, Pitch_bend_c, 1, 7552
3, 4883, Pitch_bend_c, 1, 7424
3, 4887, Pitch_bend_c, 1, 7296
3, 4891, Pitch_bend_c, 1, 7040
3, 4893, Pitch_bend_c, 1, 6912
3, 4895, Pitch_bend_c, 1, 6784
3, 4897, Pitch_bend_c, 1, 6656
3, 4899, Pitch_bend_c, 1, 6528
3, 4901, Pitch_bend_c, 1, 6400
3, 4903, Pitch_bend_c, 1, 6144
3, 4905, Pitch_bend_c, 1, 5888
3, 4907, Pitch_bend_c, 1, 5760
3, 4909, Pitch_bend_c, 1, 5504
3, 4911, Pitch_bend_c, 1, 5120
3, 4913, Pitch_bend_c, 1, 4864
3, 4915, Pitch_bend_c, 1, 4608
3, 4917, Pitch_bend_c, 1, 4480
3, 4919, Pitch_bend_c, 1, 4096
3, 4921, Pitch_bend_c, 1, 3840
3, 4923, Pitch_bend_c, 1, 3584
3, 4925, Pitch_bend_c, 1, 3328
3, 4927, Pitch_bend_c, 1, 3072
3, 4929, Pitch_bend_c, 1, 2816
3, 4931, Pitch_bend_c, 1, 2560
3, 4933, Pitch_bend_c, 1, 2304
3, 4935, Pitch_bend_c, 1, 1920
3, 4937, Pitch_bend_c, 1, 1792
3, 4939, Pitch_bend_c, 1, 1536
3, 4941, Pitch_bend_c, 1, 1280
3, 4944, Pitch_bend_c, 1, 1024
3, 4945, Pitch_bend_c, 1, 768
3, 4947, Pitch_bend_c, 1, 640
3, 4949, Pitch_bend_c, 1, 384
3, 4951, Pitch_bend_c, 1, 256
3, 4953, Pitch_bend_c, 1, 128
3, 4973, Note_on_c, 1, 43, 0
3, 5003, Pitch_bend_c, 1, 512
3, 5005, Pitch_bend_c, 1, 1280
3, 5007, Pitch_bend_c, 1, 2304
3, 5009, Pitch_bend_c, 1, 2432
3, 5025, Pitch_bend_c, 1, 2560
3, 5027, Pitch_bend_c, 1, 2688
3, 5029, Pitch_bend_c, 1, 2944
3, 5031, Pitch_bend_c, 1, 3328
3, 5033, Pitch_bend_c, 1, 3712
3, 5035, Pitch_bend_c, 1, 4224
3, 5037, Pitch_bend_c, 1, 4736
3, 5039, Pitch_bend_c, 1, 5632
3, 5041, Pitch_bend_c, 1, 6784
3, 5043, Pitch_bend_c, 1, 8192
3, 5044, Pitch_bend_c, 1, 8192
3, 5287, Note_on_c, 1, 40, 94
3, 5367, Note_on_c, 1, 40, 0
3, 5368, Note_on_c, 1, 39, 56
3, 5399, Note_on_c, 1, 39, 0
3, 5412, Note_on_c, 1, 40, 37
3, 5459, Note_on_c, 1, 40, 0
3, 5489, Note_on_c, 1, 45, 89
3, 5580, Pitch_bend_c, 1, 8192
3, 5581, Pitch_bend_c, 1, 8192
3, 5585, Pitch_bend_c, 1, 8192
3, 5586, Pitch_bend_c, 1, 7680
3, 5588, Pitch_bend_c, 1, 7424
3, 5590, Pitch_bend_c, 1, 7296
3, 5592, Pitch_bend_c, 1, 7040
3, 5594, Pitch_bend_c, 1, 6784
3, 5596, Pitch_bend_c, 1, 6656
3, 5599, Pitch_bend_c, 1, 6528
3, 5601, Pitch_bend_c, 1, 6272
3, 5603, Pitch_bend_c, 1, 6016
3, 5605, Pitch_bend_c, 1, 5888
3, 5607, Pitch_bend_c, 1, 5760
3, 5608, Pitch_bend_c, 1, 5632
3, 5610, Pitch_bend_c, 1, 5504
3, 5615, Pitch_bend_c, 1, 5376
3, 5617, Pitch_bend_c, 1, 5120
3, 5619, Pitch_bend_c, 1, 4992
3, 5621, Pitch_bend_c, 1, 4736
3, 5623, Pitch_bend_c, 1, 4608
3, 5625, Pitch_bend_c, 1, 4480
3, 5627, Pitch_bend_c, 1, 4352
3, 5629, Pitch_bend_c, 1, 4224
3, 5631, Pitch_bend_c, 1, 4096
3, 5633, Pitch_bend_c, 1, 3840
3, 5635, Pitch_bend_c, 1, 3712
3, 5637, Pitch_bend_c, 1, 3584
3, 5639, Pitch_bend_c, 1, 3328
3, 5641, Pitch_bend_c, 1, 3200
3, 5643, Pitch_bend_c, 1, 2944
3, 5645, Pitch_bend_c, 1, 2688
3, 5647, Pitch_bend_c, 1, 2560
3, 5649, Pitch_bend_c, 1, 2432
3, 5651, Pitch_bend_c, 1, 2176
3, 5653, Pitch_bend_c, 1, 2048
3, 5655, Pitch_bend_c, 1, 1920
3, 5657, Pitch_bend_c, 1, 1792
3, 5661, Pitch_bend_c, 1, 1536
3, 5665, Pitch_bend_c, 1, 1280
3, 5676, Pitch_bend_c, 1, 1792
3, 5678, Note_on_c, 1, 45, 0
3, 5678, Pitch_bend_c, 1, 2688
3, 5680, Pitch_bend_c, 1, 3968
3, 5682, Pitch_bend_c, 1, 5760
3, 5684, Pitch_bend_c, 1, 7552
3, 5686, Pitch_bend_c, 1, 8192
3, 5878, Note_on_c, 1, 43, 95
3, 5956, Note_on_c, 1, 43, 0
3, 5966, Note_on_c, 1, 40, 59
3, 6008, Note_on_c, 1, 41, 74
3, 6011, Note_on_c, 1, 40, 0
3, 6088, Note_on_c, 1, 41, 0
3, 6090, Note_on_c, 1, 37, 42
3, 6118, Note_on_c, 1, 37, 0
3, 6128, Note_on_c, 1, 40, 61
3, 6211, Note_on_c, 1, 37, 42
3, 6218, Note_on_c, 1, 40, 0
3, 6251, Note_on_c, 1, 38, 69
3, 6268, Note_on_c, 1, 37, 0
3, 6332, Note_on_c, 1, 33, 27
3, 6338, Note_on_c, 1, 38, 0
3, 6346, Note_on_c, 1, 33, 0
3, 6366, Note_on_c, 1, 36, 59
3, 6447, Note_on_c, 1, 36, 0
3, 6453, Note_on_c, 1, 33, 35
3, 6475, Note_on_c, 1, 33, 0
3, 6490, Note_on_c, 1, 35, 48
3, 6566, Note_on_c, 1, 35, 0
3, 6566, Note_on_c, 1, 31, 71
3, 6725, Note_on_c, 1, 45, 85
3, 6734, Note_on_c, 1, 31, 0
3, 6799, Note_on_c, 1, 45, 0
3, 6804, Note_on_c, 1, 42, 47
3, 6838, Note_on_c, 1, 42, 0
3, 6851, Note_on_c, 1, 43, 58
3, 6911, Note_on_c, 1, 43, 0
3, 6970, Note_on_c, 1, 38, 40
3, 7063, Note_on_c, 1, 38, 0
3, 7082, Note_on_c, 1, 50, 96
3, 7155, Note_on_c, 1, 50, 0
3, 7194, Note_on_c, 1, 48, 90
3, 7214, Pitch_bend_c, 1, 8192
3, 7218, Pitch_bend_c, 1, 8192
3, 7222, Pitch_bend_c, 1, 7680
3, 7223, Pitch_bend_c, 1, 7552
3, 7225, Pitch_bend_c, 1, 7424
3, 7228, Pitch_bend_c, 1, 7296
3, 7230, Pitch_bend_c, 1, 7168
3, 7232, Pitch_bend_c, 1, 6912
3, 7234, Pitch_bend_c, 1, 6784
3, 7236, Pitch_bend_c, 1, 6656
3, 7238, Pitch_bend_c, 1, 6400
3, 7240, Pitch_bend_c, 1, 6272
3, 7242, Pitch_bend_c, 1, 6016
3, 7244, Pitch_bend_c, 1, 5760
3, 7246, Pitch_bend_c, 1, 5632
3, 7248, Pitch_bend_c, 1, 5376
3, 7250, Pitch_bend_c, 1, 5120
3, 7252, Pitch_bend_c, 1, 4864
3, 7254, Pitch_bend_c, 1, 4608
3, 7256, Pitch_bend_c, 1, 4480
3, 7258, Pitch_bend_c, 1, 4224
3, 7260, Pitch_bend_c, 1, 3968
3, 7262, Pitch_bend_c, 1, 3712
3, 7264, Pitch_bend_c, 1, 3584
3, 7266, Pitch_bend_c, 1, 3456
3, 7268, Pitch_bend_c, 1, 3200
3, 7270, Pitch_bend_c, 1, 2944
3, 7272, Pitch_bend_c, 1, 2816
3, 7274, Pitch_bend_c, 1, 2560
3, 7276, Pitch_bend_c, 1, 2432
3, 7278, Pitch_bend_c, 1, 2176
3, 7280, Pitch_bend_c, 1, 1920
3, 7282, Pitch_bend_c, 1, 1792
3, 7284, Pitch_bend_c, 1, 1664
3, 7285, Note_on_c, 1, 48, 0
3, 7286, Pitch_bend_c, 1, 1536
3, 7288, Pitch_bend_c, 1, 1280
3, 7290, Pitch_bend_c, 1, 1152
3, 7296, Pitch_bend_c, 1, 1664
3, 7299, Pitch_bend_c, 1, 2432
3, 7300, Pitch_bend_c, 1, 3328
3, 7302, Pitch_bend_c, 1, 4352
3, 7304, Pitch_bend_c, 1, 5504
3, 7306, Pitch_bend_c, 1, 6400
3, 7308, Pitch_bend_c, 1, 6784
3, 7311, Pitch_bend_c, 1, 7296
3, 7313, Pitch_bend_c, 1, 8192
3, 7314, Pitch_bend_c, 1, 8192
3, 7651, Note_on_c, 1, 55, 105
3, 7694, Note_on_c, 1, 55, 0
3, 7716, Note_on_c, 1, 53, 84
3, 7929, Note_on_c, 1, 53, 0
3, 7937, Note_on_c, 1, 48, 63
3, 8157, Note_on_c, 1, 48, 0
3, 8167, Note_on_c, 1, 44, 57
3, 8364, Note_on_c, 1, 35, 61
3, 8377, Note_on_c, 1, 44, 0
3, 8407, Note_on_c, 1, 35, 0
3, 8408, Note_on_c, 1, 38, 65
3, 8522, Note_on_c, 1, 38, 0
3, 8525, Note_on_c, 1, 32, 71
3, 8756, Note_on_c, 1, 32, 0
3, 8765, Note_on_c, 1, 31, 69
3, 8962, Note_on_c, 1, 50, 89
3, 8997, Note_on_c, 1, 50, 0
3, 9009, Note_on_c, 1, 46, 64
3, 9016, Note_on_c, 1, 31, 0
3, 9090, Note_on_c, 1, 31, 38
3, 9104, Note_on_c, 1, 46, 0
3, 9106, Note_on_c, 1, 31, 0
3, 9129, Note_on_c, 1, 48, 90
3, 9325, Note_on_c, 1, 43, 60
3, 9327, Note_on_c, 1, 48, 0
3, 9341, Note_on_c, 1, 43, 0
3, 9369, Note_on_c, 1, 36, 62
3, 9483, Note_on_c, 1, 43, 68
3, 9494, Note_on_c, 1, 36, 0
3, 9578, Note_on_c, 1, 43, 0
3, 9609, Note_on_c, 1, 41, 79
3, 9678, Note_on_c, 1, 41, 0
3, 9723, Note_on_c, 1, 36, 76
3, 9814, Note_on_c, 1, 36, 0
3, 9961, Note_on_c, 1, 38, 99
3, 10203, Note_on_c, 1, 50, 110
3, 10433, Note_on_c, 1, 38, 0
3, 10435, Note_on_c, 1, 50, 0
3, 10438, Note_on_c, 1, 32, 78
3, 10544, Note_on_c, 1, 32, 0
3, 10563, Note_on_c, 1, 43, 110
3, 10653, Pitch_bend_c, 1, 8192
3, 10657, Pitch_bend_c, 1, 8192
3, 10662, Pitch_bend_c, 1, 8192
3, 10668, Pitch_bend_c, 1, 8192
3, 10673, Pitch_bend_c, 1, 7680
3, 10675, Pitch_bend_c, 1, 7552
3, 10677, Pitch_bend_c, 1, 7424
3, 10679, Pitch_bend_c, 1, 7296
3, 10681, Pitch_bend_c, 1, 7168
3, 10683, Pitch_bend_c, 1, 7040
3, 10685, Pitch_bend_c, 1, 6912
3, 10688, Pitch_bend_c, 1, 6784
3, 10690, Pitch_bend_c, 1, 6528
3, 10692, Pitch_bend_c, 1, 6400
3, 10694, Pitch_bend_c, 1, 6144
3, 10695, Pitch_bend_c, 1, 5888
3, 10697, Pitch_bend_c, 1, 5760
3, 10700, Pitch_bend_c, 1, 5504
3, 10702, Pitch_bend_c, 1, 5376
3, 10704, Pitch_bend_c, 1, 5120
3, 10706, Pitch_bend_c, 1, 4992
3, 10708, Pitch_bend_c, 1, 4736
3, 10710, Pitch_bend_c, 1, 4608
3, 10712, Pitch_bend_c, 1, 4480
3, 10714, Pitch_bend_c, 1, 4352
3, 10716, Pitch_bend_c, 1, 4224
3, 10718, Pitch_bend_c, 1, 4096
3, 10720, Pitch_bend_c, 1, 3968
3, 10724, Pitch_bend_c, 1, 3712
3, 10729, Pitch_bend_c, 1, 3584
3, 10735, Pitch_bend_c, 1, 3328
3, 10739, Pitch_bend_c, 1, 3200
3, 10743, Pitch_bend_c, 1, 3072
3, 10745, Pitch_bend_c, 1, 2944
3, 10749, Pitch_bend_c, 1, 2688
3, 10753, Pitch_bend_c, 1, 2560
3, 10757, Pitch_bend_c, 1, 2432
3, 10761, Pitch_bend_c, 1, 2176
3, 10764, Note_on_c, 1, 43, 0
3, 10765, Pitch_bend_c, 1, 1920
3, 10769, Pitch_bend_c, 1, 1792
3, 10771, Pitch_bend_c, 1, 1664
3, 10775, Pitch_bend_c, 1, 1536
3, 10777, Pitch_bend_c, 1, 1408
3, 10779, Pitch_bend_c, 1, 1280
3, 10783, Pitch_bend_c, 1, 1152
3, 10787, Pitch_bend_c, 1, 896
3, 10791, Pitch_bend_c, 1, 768
3, 10795, Pitch_bend_c, 1, 640
3, 10797, Pitch_bend_c, 1, 512
3, 10802, Pitch_bend_c, 1, 384
3, 10806, Pitch_bend_c, 1, 128
3, 10814, Pitch_bend_c, 1, 0
3, 10852, Pitch_bend_c, 1, 256
3, 10856, Pitch_bend_c, 1, 384
3, 10858, Pitch_bend_c, 1, 512
3, 10860, Pitch_bend_c, 1, 640
3, 10866, Pitch_bend_c, 1, 768
3, 10869, Pitch_bend_c, 1, 1024
3, 10872, Pitch_bend_c, 1, 1152
3, 10874, Pitch_bend_c, 1, 1280
3, 10876, Pitch_bend_c, 1, 1536
3, 10878, Pitch_bend_c, 1, 1664
3, 10880, Pitch_bend_c, 1, 1920
3, 10882, Pitch_bend_c, 1, 2560
3, 10884, Pitch_bend_c, 1, 3072
3, 10886, Pitch_bend_c, 1, 3840
3, 10888, Pitch_bend_c, 1, 4352
3, 10890, Pitch_bend_c, 1, 4608
3, 10892, Pitch_bend_c, 1, 4736
3, 10894, Pitch_bend_c, 1, 4992
3, 10896, Pitch_bend_c, 1, 5376
3, 10899, Pitch_bend_c, 1, 5504
3, 10900, Pitch_bend_c, 1, 5632
3, 10902, Pitch_bend_c, 1, 5760
3, 10904, Pitch_bend_c, 1, 6016
3, 10907, Pitch_bend_c, 1, 6144
3, 10909, Pitch_bend_c, 1, 6272
3, 10911, Pitch_bend_c, 1, 6400
3, 10913, Pitch_bend_c, 1, 6528
3, 10917, Pitch_bend_c, 1, 6656
3, 10921, Pitch_bend_c, 1, 6784
3, 10926, Pitch_bend_c, 1, 6912
3, 10933, Pitch_bend_c, 1, 7040
3, 10939, Pitch_bend_c, 1, 7168
3, 10947, Pitch_bend_c, 1, 7296
3, 10952, Pitch_bend_c, 1, 7424
3, 10959, Pitch_bend_c, 1, 7552
3, 10967, Pitch_bend_c, 1, 7680
3, 10992, Pitch_bend_c, 1, 8192
3, 10995, Pitch_bend_c, 1, 8192
3, 10998, Pitch_bend_c, 1, 8192
3, 11160, Note_on_c, 1, 48, 118
3, 11642, Note_on_c, 1, 48, 0
3, 11642, Note_on_c, 1, 41, 88
3, 11766, Note_on_c, 1, 53, 90
3, 11851, Note_on_c, 1, 53, 0
3, 11887, Note_on_c, 1, 53, 89
3, 11916, Note_on_c, 1, 41, 0
3, 12006, Note_on_c, 1, 53, 0
3, 12010, Note_on_c, 1, 41, 62
3, 12135, Note_on_c, 1, 53, 88
3, 12142, Note_on_c, 1, 52, 35
3, 12153, Note_on_c, 1, 52, 0
3, 12216, Note_on_c, 1, 53, 0
3, 12252, Note_on_c, 1, 53, 82
3, 12351, Note_on_c, 1, 41, 0
3, 12370, Note_on_c, 1, 33, 78
3, 12375, Note_on_c, 1, 53, 0
3, 12486, Note_on_c, 1, 34, 77
3, 12494, Note_on_c, 1, 33, 0
3, 12592, Note_on_c, 1, 34, 0
3, 12605, Note_on_c, 1, 34, 80
3, 12813, Note_on_c, 1, 34, 0
3, 12831, Note_on_c, 1, 39, 77
3, 13083, Note_on_c, 1, 55, 95
3, 13450, Note_on_c, 1, 55, 0
3, 13451, Note_on_c, 1, 39, 0
3, 13452, Note_on_c, 1, 45, 87
3, 13694, Note_on_c, 1, 44, 80
3, 13699, Note_on_c, 1, 45, 0
3, 13889, Note_on_c, 1, 38, 53
3, 13899, Note_on_c, 1, 38, 0
3, 13910, Note_on_c, 1, 44, 0
3, 13929, Note_on_c, 1, 43, 59
3, 14038, Note_on_c, 1, 43, 0
3, 14041, Note_on_c, 1, 36, 80
3, 14515, Note_on_c, 1, 36, 0
3, 14537, Note_on_c, 1, 36, 96
3, 14841, Note_on_c, 1, 45, 82
3, 14873, Note_on_c, 1, 45, 0
3, 14887, Note_on_c, 1, 43, 82
3, 14888, Note_on_c, 1, 36, 0
3, 14985, Note_on_c, 1, 43, 0
3, 15000, Note_on_c, 1, 48, 80
3, 15327, Note_on_c, 1, 40, 55
3, 15337, Note_on_c, 1, 48, 0
3, 15356, Note_on_c, 1, 40, 0
3, 15365, Note_on_c, 1, 41, 77
3, 15727, Note_on_c, 1, 41, 0
3, 15728, Note_on_c, 1, 32, 83
3, 15924, Note_on_c, 1, 47, 90
3, 15956, Note_on_c, 1, 47, 0
3, 15969, Note_on_c, 1, 32, 0
3, 15972, Note_on_c, 1, 44, 74
3, 16089, Note_on_c, 1, 41, 73
3, 16106, Note_on_c, 1, 44, 0
3, 16184, Note_on_c, 1, 41, 0
3, 16202, Note_on_c, 1, 31, 91
3, 16320, Note_on_c, 1, 45, 110
3, 16334, Note_on_c, 1, 31, 0
3, 16552, Note_on_c, 1, 45, 0
3, 16556, Note_on_c, 1, 43, 70
3, 16678, Note_on_c, 1, 36, 92
3, 16687, Note_on_c, 1, 43, 0
3, 17047, Note_on_c, 1, 48, 95
3, 17064, Note_on_c, 1, 36, 0
3, 17067, Note_on_c, 1, 48, 0
3, 17115, Note_on_c, 1, 48, 74
3, 17147, Note_on_c, 1, 48, 0
3, 17160, Note_on_c, 1, 46, 71
3, 17186, Note_on_c, 1, 46, 0
3, 17236, Note_on_c, 1, 46, 72
3, 17263, Note_on_c, 1, 46, 0
3, 17278, Note_on_c, 1, 45, 68
3, 17312, Note_on_c, 1, 45, 0
3, 17359, Note_on_c, 1, 45, 52
3, 17381, Note_on_c, 1, 45, 0
3, 17403, Note_on_c, 1, 43, 49
3, 17518, Note_on_c, 1, 43, 0
3, 17527, Note_on_c, 1, 42, 79
3, 17639, Note_on_c, 1, 42, 0
3, 17641, Note_on_c, 1, 38, 88
3, 17770, Note_on_c, 1, 50, 101
3, 18010, Note_on_c, 1, 45, 84
3, 18022, Note_on_c, 1, 50, 0
3, 18055, Note_on_c, 1, 38, 0
3, 18220, Note_on_c, 1, 45, 0
3, 18247, Note_on_c, 1, 46, 88
3, 18309, Note_on_c, 1, 46, 0
3, 18322, Note_on_c, 1, 45, 76
3, 18329, Note_on_c, 1, 46, 20
3, 18342, Note_on_c, 1, 46, 0
3, 18349, Note_on_c, 1, 45, 0
3, 18370, Note_on_c, 1, 43, 58
3, 18528, Note_on_c, 1, 43, 0
3, 18558, Note_on_c, 1, 41, 68
3, 18595, Note_on_c, 1, 41, 0
3, 18608, Note_on_c, 1, 38, 47
3, 18667, Note_on_c, 1, 38, 0
3, 18679, Note_on_c, 1, 39, 59
3, 18713, Note_on_c, 1, 39, 0
3, 18724, Note_on_c, 1, 40, 52
3, 18831, Note_on_c, 1, 40, 0
3, 18839, Note_on_c, 1, 50, 74
3, 19050, Note_on_c, 1, 50, 0
3, 19080, Note_on_c, 1, 48, 80
3, 19127, Note_on_c, 1, 48, 0
3, 19158, Note_on_c, 1, 46, 73
3, 19196, Note_on_c, 1, 46, 0
3, 19210, Note_on_c, 1, 45, 71
3, 19271, Note_on_c, 1, 45, 0
3, 19290, Note_on_c, 1, 40, 61
3, 19334, Note_on_c, 1, 33, 74
3, 19538, Note_on_c, 1, 33, 0
3, 19565, Note_on_c, 1, 40, 0
3, 19565, Note_on_c, 1, 32, 82
3, 19930, Note_on_c, 1, 50, 108
3, 19988, Note_on_c, 1, 50, 0
3, 20022, Note_on_c, 1, 47, 81
3, 20067, Note_on_c, 1, 47, 0
3, 20090, Note_on_c, 1, 32, 0
3, 20103, Note_on_c, 1, 44, 71
3, 20139, Note_on_c, 1, 41, 74
3, 20141, Note_on_c, 1, 44, 0
3, 20159, Note_on_c, 1, 41, 0
3, 20183, Note_on_c, 1, 31, 74
3, 20483, Note_on_c, 1, 50, 84
3, 20507, Note_on_c, 1, 31, 0
3, 20512, Note_on_c, 1, 50, 0
3, 20532, Note_on_c, 1, 46, 63
3, 20560, Note_on_c, 1, 46, 0
3, 20652, Note_on_c, 1, 43, 79
3, 20660, Note_on_c, 1, 44, 35
3, 20670, Note_on_c, 1, 44, 0
3, 20683, Note_on_c, 1, 43, 0
3, 20769, Note_on_c, 1, 40, 80
3, 20809, Note_on_c, 1, 40, 0
3, 20890, Note_on_c, 1, 45, 115
3, 20939, Note_on_c, 1, 45, 0
3, 21078, Note_on_c, 1, 39, 84
3, 21116, Note_on_c, 1, 39, 0
3, 21137, Note_on_c, 1, 38, 95
3, 21174, Pitch_bend_c, 1, 8192
3, 21178, Pitch_bend_c, 1, 8192
3, 21183, Pitch_bend_c, 1, 8192
3, 21188, Pitch_bend_c, 1, 7680
3, 21190, Pitch_bend_c, 1, 7552
3, 21192, Pitch_bend_c, 1, 7424
3, 21194, Pitch_bend_c, 1, 7296
3, 21196, Pitch_bend_c, 1, 7168
3, 21198, Pitch_bend_c, 1, 7040
3, 21200, Pitch_bend_c, 1, 6912
3, 21203, Pitch_bend_c, 1, 6784
3, 21206, Pitch_bend_c, 1, 6528
3, 21210, Pitch_bend_c, 1, 6272
3, 21212, Pitch_bend_c, 1, 6144
3, 21214, Pitch_bend_c, 1, 6016
3, 21216, Pitch_bend_c, 1, 5888
3, 21218, Pitch_bend_c, 1, 5760
3, 21221, Pitch_bend_c, 1, 5504
3, 21223, Pitch_bend_c, 1, 5376
3, 21225, Pitch_bend_c, 1, 5120
3, 21226, Pitch_bend_c, 1, 4864
3, 21228, Pitch_bend_c, 1, 4736
3, 21230, Pitch_bend_c, 1, 4608
3, 21233, Pitch_bend_c, 1, 4352
3, 21235, Pitch_bend_c, 1, 4096
3, 21237, Pitch_bend_c, 1, 3968
3, 21239, Pitch_bend_c, 1, 3712
3, 21241, Pitch_bend_c, 1, 3584
3, 21243, Pitch_bend_c, 1, 3456
3, 21245, Note_on_c, 1, 38, 0
3, 21245, Pitch_bend_c, 1, 3328
3, 21247, Pitch_bend_c, 1, 3072
3, 21249, Pitch_bend_c, 1, 2944
3, 21251, Pitch_bend_c, 1, 2816
3, 21255, Pitch_bend_c, 1, 2688
3, 21259, Pitch_bend_c, 1, 2560
3, 21265, Pitch_bend_c, 1, 2432
3, 21280, Pitch_bend_c, 1, 2688
3, 21284, Pitch_bend_c, 1, 2816
3, 21286, Pitch_bend_c, 1, 3072
3, 21288, Pitch_bend_c, 1, 3328
3, 21290, Pitch_bend_c, 1, 3584
3, 21292, Pitch_bend_c, 1, 3968
3, 21294, Pitch_bend_c, 1, 4352
3, 21296, Pitch_bend_c, 1, 4864
3, 21298, Pitch_bend_c, 1, 5760
3, 21300, Pitch_bend_c, 1, 6784
3, 21302, Pitch_bend_c, 1, 7296
3, 21304, Pitch_bend_c, 1, 7552
3, 21306, Pitch_bend_c, 1, 8192
3, 21307, Pitch_bend_c, 1, 8192
3, 21310, Pitch_bend_c, 1, 8192
3, 21313, Pitch_bend_c, 1, 8192
3, 21481, Note_on_c, 1, 45, 110
3, 21534, Note_on_c, 1, 45, 0
3, 21558, Note_on_c, 1, 44, 93
3, 21604, Note_on_c, 1, 44, 0
3, 21624, Note_on_c, 1, 43, 91
3, 21671, Pitch_bend_c, 1, 8192
3, 21675, Pitch_bend_c, 1, 8192
3, 21679, Pitch_bend_c, 1, 8192
3, 21684, Pitch_bend_c, 1, 7552
3, 21688, Pitch_bend_c, 1, 7424
3, 21690, Pitch_bend_c, 1, 7296
3, 21694, Pitch_bend_c, 1, 7040
3, 21698, Pitch_bend_c, 1, 6912
3, 21703, Pitch_bend_c, 1, 6784
3, 21705, Pitch_bend_c, 1, 6656
3, 21709, Pitch_bend_c, 1, 6528
3, 21711, Pitch_bend_c, 1, 6400
3, 21713, Pitch_bend_c, 1, 6272
3, 21715, Pitch_bend_c, 1, 6016
3, 21719, Pitch_bend_c, 1, 5888
3, 21721, Pitch_bend_c, 1, 5760
3, 21723, Pitch_bend_c, 1, 5632
3, 21725, Pitch_bend_c, 1, 5504
3, 21729, Pitch_bend_c, 1, 5120
3, 21731, Pitch_bend_c, 1, 4992
3, 21733, Pitch_bend_c, 1, 4864
3, 21735, Pitch_bend_c, 1, 4736
3, 21737, Pitch_bend_c, 1, 4608
3, 21739, Pitch_bend_c, 1, 4352
3, 21741, Pitch_bend_c, 1, 4224
3, 21743, Pitch_bend_c, 1, 3968
3, 21744, Note_on_c, 1, 43, 0
3, 21745, Pitch_bend_c, 1, 3840
3, 21747, Pitch_bend_c, 1, 3584
3, 21750, Pitch_bend_c, 1, 3456
3, 21752, Pitch_bend_c, 1, 3328
3, 21754, Pitch_bend_c, 1, 3072
3, 21756, Pitch_bend_c, 1, 2944
3, 21757, Pitch_bend_c, 1, 2688
3, 21759, Pitch_bend_c, 1, 2560
3, 21761, Pitch_bend_c, 1, 2432
3, 21763, Pitch_bend_c, 1, 2176
3, 21766, Pitch_bend_c, 1, 2048
3, 21768, Pitch_bend_c, 1, 1792
3, 21772, Pitch_bend_c, 1, 1664
3, 21774, Pitch_bend_c, 1, 1408
3, 21776, Pitch_bend_c, 1, 1280
3, 21778, Pitch_bend_c, 1, 1152
3, 21783, Pitch_bend_c, 1, 1024
3, 21794, Pitch_bend_c, 1, 1280
3, 21796, Pitch_bend_c, 1, 1664
3, 21798, Pitch_bend_c, 1, 1920
3, 21800, Pitch_bend_c, 1, 2432
3, 21801, Pitch_bend_c, 1, 2816
3, 21804, Pitch_bend_c, 1, 3456
3, 21805, Pitch_bend_c, 1, 4352
3, 21808, Pitch_bend_c, 1, 5632
3, 21810, Pitch_bend_c, 1, 7168
3, 21812, Pitch_bend_c, 1, 8192
3, 22042, Note_on_c, 1, 48, 103
3, 22085, Note_on_c, 1, 48, 0
3, 22097, Note_on_c, 1, 46, 82
3, 22177, Note_on_c, 1, 46, 0
3, 22285, Note_on_c, 1, 45, 103
3, 22326, Note_on_c, 1, 45, 0
3, 22343, Note_on_c, 1, 43, 82
3, 22413, Note_on_c, 1, 43, 0
3, 22448, Note_on_c, 1, 42, 39
3, 22459, Note_on_c, 1, 42, 0
3, 22518, Note_on_c, 1, 41, 88
3, 22550, Note_on_c, 1, 41, 0
3, 22572, Note_on_c, 1, 40, 75
3, 22596, Note_on_c, 1, 40, 0
3, 22642, Note_on_c, 1, 38, 82
3, 22661, Note_on_c, 1, 38, 0
3, 22691, Note_on_c, 1, 36, 103
3, 22717, Pitch_bend_c, 1, 8192
3, 22743, Pitch_bend_c, 1, 8192
3, 22748, Pitch_bend_c, 1, 8192
3, 22752, Pitch_bend_c, 1, 8192
3, 22757, Pitch_bend_c, 1, 7680
3, 22761, Pitch_bend_c, 1, 7552
3, 22763, Pitch_bend_c, 1, 7424
3, 22765, Pitch_bend_c, 1, 7296
3, 22767, Pitch_bend_c, 1, 7168
3, 22769, Pitch_bend_c, 1, 7040
3, 22771, Pitch_bend_c, 1, 6784
3, 22773, Pitch_bend_c, 1, 6656
3, 22775, Pitch_bend_c, 1, 6528
3, 22777, Pitch_bend_c, 1, 6272
3, 22779, Pitch_bend_c, 1, 6144
3, 22781, Pitch_bend_c, 1, 5888
3, 22783, Pitch_bend_c, 1, 5760
3, 22785, Pitch_bend_c, 1, 5504
3, 22787, Pitch_bend_c, 1, 5376
3, 22789, Pitch_bend_c, 1, 5120
3, 22791, Pitch_bend_c, 1, 4864
3, 22793, Pitch_bend_c, 1, 4736
3, 22795, Pitch_bend_c, 1, 4608
3, 22797, Pitch_bend_c, 1, 4480
3, 22799, Pitch_bend_c, 1, 4224
3, 22801, Note_on_c, 1, 36, 0
3, 22801, Pitch_bend_c, 1, 4096
3, 22803, Pitch_bend_c, 1, 3840
3, 22805, Pitch_bend_c, 1, 3712
3, 22807, Pitch_bend_c, 1, 3584
3, 22809, Pitch_bend_c, 1, 3456
3, 22811, Pitch_bend_c, 1, 3328
3, 22813, Pitch_bend_c, 1, 3200
3, 22815, Pitch_bend_c, 1, 3072
3, 22817, Pitch_bend_c, 1, 2816
3, 22819, Pitch_bend_c, 1, 2688
3, 22821, Pitch_bend_c, 1, 2560
3, 22823, Pitch_bend_c, 1, 2304
3, 22825, Pitch_bend_c, 1, 2176
3, 22827, Pitch_bend_c, 1, 1920
3, 22829, Pitch_bend_c, 1, 1792
3, 22831, Pitch_bend_c, 1, 1536
3, 22833, Pitch_bend_c, 1, 1408
3, 22836, Pitch_bend_c, 1, 1152
3, 22838, Pitch_bend_c, 1, 1024
3, 22840, Pitch_bend_c, 1, 768
3, 22841, Pitch_bend_c, 1, 640
3, 22843, Pitch_bend_c, 1, 512
3, 22845, Pitch_bend_c, 1, 384
3, 22850, Pitch_bend_c, 1, 256
3, 22854, Pitch_bend_c, 1, 128
3, 22862, Pitch_bend_c, 1, 256
3, 22867, Pitch_bend_c, 1, 384
3, 22869, Pitch_bend_c, 1, 512
3, 22871, Pitch_bend_c, 1, 640
3, 22873, Pitch_bend_c, 1, 896
3, 22874, Pitch_bend_c, 1, 1024
3, 22876, Pitch_bend_c, 1, 1408
3, 22878, Pitch_bend_c, 1, 1664
3, 22880, Pitch_bend_c, 1, 2048
3, 22883, Pitch_bend_c, 1, 2432
3, 22885, Pitch_bend_c, 1, 2816
3, 22887, Pitch_bend_c, 1, 3328
3, 22889, Pitch_bend_c, 1, 3712
3, 22891, Pitch_bend_c, 1, 4352
3, 22893, Pitch_bend_c, 1, 4864
3, 22895, Pitch_bend_c, 1, 5760
3, 22897, Pitch_bend_c, 1, 6656
3, 22899, Pitch_bend_c, 1, 7552
3, 22901, Pitch_bend_c, 1, 8192
3, 23173, Note_on_c, 1, 41, 115
3, 23253, Note_on_c, 1, 41, 0
3, 23253, Note_on_c, 1, 40, 67
3, 23276, Note_on_c, 1, 40, 0
3, 23291, Note_on_c, 1, 41, 72
3, 23346, Note_on_c, 1, 41, 0
3, 23407, Note_on_c, 1, 36, 105
3, 23475, Note_on_c, 1, 36, 0
3, 23528, Note_on_c, 1, 32, 102
3, 23750, Note_on_c, 1, 32, 0
3, 23769, Note_on_c, 1, 34, 43
3, 23770, Note_on_c, 1, 35, 96
3, 23840, Note_on_c, 1, 34, 0
3, 23993, Note_on_c, 1, 35, 0
3, 24008, Note_on_c, 1, 36, 89
3, 24013, Note_on_c, 1, 35, 70
3, 24018, Note_on_c, 1, 36, 0
3, 24021, Note_on_c, 1, 38, 50
3, 24031, Note_on_c, 1, 36, 36
3, 24042, Note_on_c, 1, 36, 0
3, 24046, Note_on_c, 1, 38, 0
3, 24182, Note_on_c, 1, 35, 0
3, 24242, Note_on_c, 1, 31, 95
3, 24343, Note_on_c, 1, 31, 0
3, 24362, Note_on_c, 1, 38, 87
3, 24466, Note_on_c, 1, 38, 0
3, 24484, Note_on_c, 1, 36, 89
3, 24616, Note_on_c, 1, 36, 0
3, 24680, Note_on_c, 1, 43, 87
3, 24723, Note_on_c, 1, 43, 0
3, 24734, Note_on_c, 1, 41, 87
3, 24838, Note_on_c, 1, 41, 0
3, 24851, Note_on_c, 1, 40, 90
3, 24947, Note_on_c, 1, 40, 0
3, 24971, Note_on_c, 1, 41, 94
3, 25199, Note_on_c, 1, 41, 0
3, 25206, Note_on_c, 1, 36, 92
3, 25324, Note_on_c, 1, 50, 103
3, 25510, Note_on_c, 1, 36, 0
3, 25558, Note_on_c, 1, 50, 0
3, 25559, Note_on_c, 1, 38, 25
3, 25569, Note_on_c, 1, 38, 0
3, 25570, Note_on_c, 1, 48, 85
3, 25682, Note_on_c, 1, 48, 0
3, 25692, Note_on_c, 1, 45, 72
3, 25794, Note_on_c, 1, 45, 0
3, 25805, Note_on_c, 1, 38, 91
3, 25925, Note_on_c, 1, 38, 0
3, 25927, Note_on_c, 1, 43, 105
3, 26036, Note_on_c, 1, 43, 0
3, 26044, Note_on_c, 1, 34, 80
3, 26169, Note_on_c, 1, 38, 90
3, 26171, Note_on_c, 1, 34, 0
3, 26293, Note_on_c, 1, 35, 88
3, 26306, Note_on_c, 1, 38, 0
3, 26526, Note_on_c, 1, 36, 101
3, 26544, Note_on_c, 1, 35, 0
3, 26726, Note_on_c, 1, 38, 80
3, 26744, Note_on_c, 1, 38, 0
3, 26769, Note_on_c, 1, 40, 94
3, 26865, Note_on_c, 1, 40, 0
3, 26885, Note_on_c, 1, 41, 95
3, 26902, Note_on_c, 1, 36, 0
3, 27247, Note_on_c, 1, 29, 91
3, 27248, Note_on_c, 1, 41, 0
3, 27486, Note_on_c, 1, 55, 110
3, 27493, Note_on_c, 1, 53, 40
3, 27503, Note_on_c, 1, 53, 0
3, 27690, Note_on_c, 1, 53, 76
3, 27700, Note_on_c, 1, 55, 0
3, 27717, Note_on_c, 1, 53, 0
3, 27721, Note_on_c, 1, 29, 0
3, 27740, Note_on_c, 1, 50, 61
3, 27839, Note_on_c, 1, 50, 0
3, 27850, Note_on_c, 1, 46, 72
3, 28086, Note_on_c, 1, 46, 0
3, 28091, Note_on_c, 1, 41, 71
3, 28322, Note_on_c, 1, 39, 68
3, 28329, Note_on_c, 1, 41, 0
3, 28520, Note_on_c, 1, 53, 81
3, 28548, Note_on_c, 1, 53, 0
3, 28574, Note_on_c, 1, 51, 76
3, 28642, Note_on_c, 1, 39, 0
3, 28682, Note_on_c, 1, 51, 0
3, 28684, Note_on_c, 1, 39, 71
3, 28804, Note_on_c, 1, 45, 101
3, 28811, Note_on_c, 1, 39, 0
3, 28925, Note_on_c, 1, 45, 0
3, 28925, Note_on_c, 1, 36, 85
3, 29166, Note_on_c, 1, 32, 82
3, 29175, Note_on_c, 1, 36, 0
3, 29271, Note_on_c, 1, 32, 0
3, 29284, Note_on_c, 1, 31, 71
3, 29402, Note_on_c, 1, 38, 88
3, 29430, Note_on_c, 1, 31, 0
3, 29512, Note_on_c, 1, 38, 0
3, 29518, Note_on_c, 1, 36, 84
3, 29637, Note_on_c, 1, 50, 92
3, 29758, Note_on_c, 1, 50, 0
3, 29768, Note_on_c, 1, 48, 81
3, 29786, Note_on_c, 1, 36, 0
3, 29884, Note_on_c, 1, 36, 108
3, 29948, Note_on_c, 1, 48, 0
3, 30128, Note_on_c, 1, 45, 123
3, 30143, Note_on_c, 1, 36, 0
3, 30434, Note_on_c, 1, 36, 71
3, 30444, Note_on_c, 1, 36, 0
3, 30470, Note_on_c, 1, 45, 0
3, 30476, Note_on_c, 1, 41, 68
3, 30554, Note_on_c, 1, 41, 0
3, 30562, Note_on_c, 1, 40, 99
3, 30705, Note_on_c, 1, 40, 48
3, 30712, Note_on_c, 1, 40, 0
3, 30715, Note_on_c, 1, 40, 0
3, 30723, Note_on_c, 1, 41, 69
3, 30729, Note_on_c, 1, 41, 90
3, 30843, Note_on_c, 1, 36, 65
3, 30845, Note_on_c, 1, 41, 0
3, 30956, Note_on_c, 1, 41, 0
3, 30971, Note_on_c, 1, 33, 53
3, 30972, Note_on_c, 1, 36, 0
3, 31086, Note_on_c, 1, 33, 0
3, 31093, Note_on_c, 1, 36, 64
3, 31171, Note_on_c, 1, 33, 53
3, 31182, Note_on_c, 1, 36, 0
3, 31214, Note_on_c, 1, 32, 54
3, 31215, Note_on_c, 1, 33, 0
3, 31332, Note_on_c, 1, 35, 51
3, 31336, Note_on_c, 1, 32, 0
3, 31424, Note_on_c, 1, 38, 34
3, 31433, Note_on_c, 1, 35, 0
3, 31439, Note_on_c, 1, 38, 0
3, 31454, Note_on_c, 1, 41, 89
3, 31522, Note_on_c, 1, 41, 0
3, 31532, Note_on_c, 1, 38, 42
3, 31542, Note_on_c, 1, 35, 36
3, 31561, Note_on_c, 1, 35, 0
3, 31563, Note_on_c, 1, 38, 0
3, 31571, Note_on_c, 1, 44, 75
3, 31651, Note_on_c, 1, 42, 51
3, 31661, Note_on_c, 1, 44, 0
3, 31676, Note_on_c, 1, 42, 0
3, 31686, Note_on_c, 1, 43, 69
3, 31758, Note_on_c, 1, 43, 0
3, 31765, Note_on_c, 1, 38, 73
3, 31793, Note_on_c, 1, 38, 0
3, 31808, Note_on_c, 1, 34, 57
3, 31923, Note_on_c, 1, 34, 0
3, 31925, Note_on_c, 1, 38, 64
3, 32039, Note_on_c, 1, 38, 0
3, 32044, Note_on_c, 1, 35, 66
3, 32164, Note_on_c, 1, 36, 74
3, 32168, Note_on_c, 1, 35, 0
3, 32248, Note_on_c, 1, 50, 96
3, 32269, Note_on_c, 1, 36, 0
3, 32288, Note_on_c, 1, 48, 80
3, 32305, Note_on_c, 1, 50, 0
3, 32372, Note_on_c, 1, 36, 46
3, 32384, Note_on_c, 1, 36, 0
3, 32392, Note_on_c, 1, 48, 0
3, 32406, Note_on_c, 1, 46, 71
3, 32504, Note_on_c, 1, 46, 0
3, 32522, Note_on_c, 1, 45, 85
3, 32565, Note_on_c, 1, 45, 0
3, 32604, Note_on_c, 1, 43, 79
3, 32633, Note_on_c, 1, 43, 0
3, 32654, Note_on_c, 1, 41, 61
3, 32694, Note_on_c, 1, 41, 0
3, 32724, Note_on_c, 1, 41, 68
3, 32752, Note_on_c, 1, 41, 0
3, 32765, Note_on_c, 1, 40, 66
3, 32869, Note_on_c, 1, 40, 0
3, 32882, Note_on_c, 1, 38, 68
3, 32978, Note_on_c, 1, 38, 0
3, 32986, Note_on_c, 1, 33, 24
3, 32997, Note_on_c, 1, 33, 0
3, 32999, Note_on_c, 1, 37, 77
3, 33106, Note_on_c, 1, 37, 0
3, 33114, Note_on_c, 1, 38, 66
3, 33182, Note_on_c, 1, 38, 0
3, 33201, Note_on_c, 1, 45, 80
3, 33236, Note_on_c, 1, 45, 0
3, 33248, Note_on_c, 1, 42, 82
3, 33357, Note_on_c, 1, 38, 64
3, 33375, Note_on_c, 1, 42, 0
3, 33382, Note_on_c, 1, 38, 0
3, 33444, Note_on_c, 1, 33, 56
3, 33463, Note_on_c, 1, 33, 0
3, 33486, Note_on_c, 1, 32, 68
3, 33604, Note_on_c, 1, 31, 69
3, 33618, Note_on_c, 1, 32, 0
3, 33665, Note_on_c, 1, 31, 0
3, 33685, Note_on_c, 1, 31, 60
3, 33721, Note_on_c, 1, 33, 68
3, 33726, Note_on_c, 1, 31, 0
3, 33845, Note_on_c, 1, 33, 0
3, 33845, Note_on_c, 1, 34, 70
3, 33907, Note_on_c, 1, 34, 0
3, 33928, Note_on_c, 1, 34, 49
3, 33962, Note_on_c, 1, 34, 0
3, 33963, Note_on_c, 1, 35, 81
3, 34087, Note_on_c, 1, 35, 0
3, 34090, Note_on_c, 1, 36, 82
3, 34156, Note_on_c, 1, 36, 0
3, 34172, Note_on_c, 1, 36, 91
3, 34205, Note_on_c, 1, 36, 0
3, 34205, Note_on_c, 1, 38, 92
3, 34313, Note_on_c, 1, 38, 0
3, 34325, Note_on_c, 1, 39, 73
3, 34407, Note_on_c, 1, 36, 53
3, 34426, Note_on_c, 1, 36, 0
3, 34430, Note_on_c, 1, 39, 0
3, 34441, Note_on_c, 1, 40, 69
3, 34528, Note_on_c, 1, 36, 55
3, 34541, Note_on_c, 1, 40, 0
3, 34546, Note_on_c, 1, 36, 0
3, 34563, Note_on_c, 1, 45, 78
3, 34673, Note_on_c, 1, 45, 0
3, 34686, Note_on_c, 1, 40, 65
3, 34809, Note_on_c, 1, 33, 61
3, 34815, Note_on_c, 1, 40, 0
3, 34895, Note_on_c, 1, 40, 45
3, 34909, Note_on_c, 1, 40, 0
3, 34931, Note_on_c, 1, 50, 115
3, 34936, Note_on_c, 1, 33, 0
3, 35038, Note_on_c, 1, 50, 0
3, 35045, Note_on_c, 1, 47, 77
3, 35160, Note_on_c, 1, 44, 83
3, 35166, Note_on_c, 1, 47, 0
3, 35286, Note_on_c, 1, 53, 94
3, 35316, Note_on_c, 1, 44, 0
3, 35380, Note_on_c, 1, 44, 30
3, 35386, Note_on_c, 1, 53, 0
3, 35400, Note_on_c, 1, 44, 0
3, 35408, Note_on_c, 1, 54, 86
3, 35493, Note_on_c, 1, 44, 34
3, 35513, Note_on_c, 1, 54, 0
3, 35519, Note_on_c, 1, 44, 0
3, 35529, Note_on_c, 1, 55, 94
3, 35631, Note_on_c, 1, 55, 0
3, 35651, Note_on_c, 1, 50, 68
3, 35735, Note_on_c, 1, 43, 30
3, 35753, Note_on_c, 1, 43, 0
3, 35769, Note_on_c, 1, 50, 0
3, 35772, Note_on_c, 1, 46, 75
3, 35890, Note_on_c, 1, 39, 85
3, 35895, Note_on_c, 1, 46, 0
3, 36006, Note_on_c, 1, 40, 91
3, 36019, Note_on_c, 1, 39, 0
3, 36125, Note_on_c, 1, 52, 103
3, 36141, Note_on_c, 1, 40, 0
3, 36231, Note_on_c, 1, 52, 0
3, 36243, Note_on_c, 1, 45, 78
3, 36258, Note_on_c, 1, 52, 19
3, 36348, Note_on_c, 1, 45, 0
3, 36359, Note_on_c, 1, 39, 79
3, 36374, Note_on_c, 1, 52, 0
3, 36480, Note_on_c, 1, 39, 0
3, 36480, Note_on_c, 1, 38, 83
3, 36565, Note_on_c, 1, 52, 115
3, 36596, Note_on_c, 1, 38, 0
3, 36613, Note_on_c, 1, 50, 57
3, 36621, Note_on_c, 1, 52, 0
3, 36705, Note_on_c, 1, 38, 33
3, 36719, Note_on_c, 1, 38, 0
3, 36725, Note_on_c, 1, 45, 78
3, 36742, Note_on_c, 1, 50, 0
3, 36829, Note_on_c, 1, 45, 0
3, 36837, Note_on_c, 1, 38, 80
3, 36963, Note_on_c, 1, 31, 79
3, 36974, Note_on_c, 1, 38, 0
3, 37050, Note_on_c, 1, 38, 53
3, 37073, Note_on_c, 1, 38, 0
3, 37084, Note_on_c, 1, 48, 108
3, 37086, Note_on_c, 1, 31, 0
3, 37198, Note_on_c, 1, 48, 0
3, 37201, Note_on_c, 1, 47, 84
3, 37323, Note_on_c, 1, 47, 0
3, 37325, Note_on_c, 1, 31, 85
3, 37412, Note_on_c, 1, 38, 47
3, 37436, Note_on_c, 1, 38, 0
3, 37446, Note_on_c, 1, 48, 95
3, 37463, Note_on_c, 1, 31, 0
3, 37536, Note_on_c, 1, 38, 40
3, 37549, Note_on_c, 1, 38, 0
3, 37556, Note_on_c, 1, 48, 0
3, 37565, Note_on_c, 1, 46, 85
3, 37690, Note_on_c, 1, 43, 68
3, 37706, Note_on_c, 1, 46, 0
3, 37773, Note_on_c, 1, 31, 80
3, 37777, Note_on_c, 1, 43, 0
3, 37812, Note_on_c, 1, 48, 87
3, 37813, Note_on_c, 1, 31, 0
3, 37910, Note_on_c, 1, 48, 0
3, 37919, Note_on_c, 1, 46, 74
3, 38019, Note_on_c, 1, 46, 0
3, 38034, Note_on_c, 1, 36, 95
3, 38161, Note_on_c, 1, 45, 90
3, 38163, Note_on_c, 1, 43, 71
3, 38169, Note_on_c, 1, 36, 0
3, 38172, Note_on_c, 1, 43, 0
3, 38261, Note_on_c, 1, 36, 48
3, 38273, Note_on_c, 1, 45, 0
3, 38276, Note_on_c, 1, 36, 0
3, 38284, Note_on_c, 1, 43, 82
3, 38401, Note_on_c, 1, 43, 0
3, 38412, Note_on_c, 1, 41, 75
3, 38487, Note_on_c, 1, 41, 0
3, 38496, Note_on_c, 1, 36, 67
3, 38519, Note_on_c, 1, 36, 0
3, 38533, Note_on_c, 1, 33, 85
3, 38693, Note_on_c, 1, 43, 65
3, 38707, Note_on_c, 1, 33, 0
3, 38725, Note_on_c, 1, 43, 0
3, 38729, Note_on_c, 1, 41, 71
3, 38741, Note_on_c, 1, 41, 0
3, 38784, Note_on_c, 1, 32, 77
3, 39084, Note_on_c, 1, 43, 92
3, 39115, Note_on_c, 1, 43, 0
3, 39132, Note_on_c, 1, 41, 78
3, 39152, Note_on_c, 1, 32, 0
3, 39192, Note_on_c, 1, 41, 0
3, 39212, Note_on_c, 1, 38, 66
3, 39239, Note_on_c, 1, 38, 0
3, 39260, Note_on_c, 1, 32, 80
3, 39363, Note_on_c, 1, 32, 0
3, 39373, Note_on_c, 1, 31, 66
3, 39524, Note_on_c, 1, 43, 71
3, 39527, Note_on_c, 1, 31, 0
3, 39557, Note_on_c, 1, 43, 0
3, 39563, Note_on_c, 1, 41, 78
3, 39581, Note_on_c, 1, 41, 0
3, 39615, Note_on_c, 1, 32, 80
3, 39718, Note_on_c, 1, 32, 0
3, 39726, Note_on_c, 1, 31, 77
3, 39842, Note_on_c, 1, 31, 0
3, 39851, Note_on_c, 1, 36, 90
3, 39966, Note_on_c, 1, 34, 33
3, 39972, Note_on_c, 1, 50, 88
3, 39995, Note_on_c, 1, 36, 0
3, 40005, Note_on_c, 1, 34, 0
3, 40086, Note_on_c, 1, 50, 0
3, 40087, Note_on_c, 1, 48, 76
3, 40188, Note_on_c, 1, 48, 0
3, 40205, Note_on_c, 1, 40, 65
3, 40327, Note_on_c, 1, 41, 76
3, 40336, Note_on_c, 1, 40, 0
3, 40418, Note_on_c, 1, 39, 40
3, 40447, Note_on_c, 1, 51, 86
3, 40464, Note_on_c, 1, 39, 0
3, 40465, Note_on_c, 1, 52, 26
3, 40472, Note_on_c, 1, 41, 0
3, 40549, Note_on_c, 1, 52, 0
3, 40564, Note_on_c, 1, 51, 0
3, 40570, Note_on_c, 1, 50, 70
3, 40682, Note_on_c, 1, 50, 0
3, 40689, Note_on_c, 1, 45, 83
3, 40807, Note_on_c, 1, 45, 0
3, 40807, Note_on_c, 1, 39, 62
3, 40920, Note_on_c, 1, 39, 0
3, 40924, Note_on_c, 1, 37, 68
3, 41037, Note_on_c, 1, 37, 0
3, 41049, Note_on_c, 1, 38, 67
3, 41164, Note_on_c, 1, 32, 73
3, 41174, Note_on_c, 1, 38, 0
3, 41280, Note_on_c, 1, 32, 0
3, 41286, Note_on_c, 1, 31, 68
3, 41378, Note_on_c, 1, 32, 53
3, 41409, Note_on_c, 1, 32, 0
3, 41412, Note_on_c, 1, 50, 101
3, 41416, Note_on_c, 1, 31, 0
3, 41521, Note_on_c, 1, 50, 0
3, 41529, Note_on_c, 1, 46, 82
3, 41640, Note_on_c, 1, 46, 0
3, 41645, Note_on_c, 1, 47, 75
3, 41757, Note_on_c, 1, 47, 0
3, 41767, Note_on_c, 1, 48, 79
3, 41882, Note_on_c, 1, 48, 0
3, 41887, Note_on_c, 1, 40, 91
3, 42004, Note_on_c, 1, 40, 0
3, 42006, Note_on_c, 1, 41, 79
3, 42124, Note_on_c, 1, 41, 0
3, 42126, Note_on_c, 1, 36, 67
3, 42248, Note_on_c, 1, 36, 0
3, 42249, Note_on_c, 1, 41, 118
3, 42320, Note_on_c, 1, 41, 0
3, 42333, Note_on_c, 1, 41, 84
3, 42361, Note_on_c, 1, 41, 0
3, 42375, Note_on_c, 1, 36, 72
3, 42493, Note_on_c, 1, 36, 0
3, 42495, Note_on_c, 1, 29, 51
3, 42577, Note_on_c, 1, 36, 52
3, 42592, Note_on_c, 1, 29, 0
3, 42606, Note_on_c, 1, 36, 0
3, 42609, Note_on_c, 1, 43, 101
3, 42691, Note_on_c, 1, 36, 38
3, 42710, Note_on_c, 1, 36, 0
3, 42724, Note_on_c, 1, 43, 0
3, 42729, Note_on_c, 1, 41, 74
3, 42816, Note_on_c, 1, 36, 62
3, 42817, Note_on_c, 1, 41, 0
3, 42838, Note_on_c, 1, 36, 0
3, 42847, Note_on_c, 1, 50, 84
3, 42945, Note_on_c, 1, 50, 0
3, 42962, Note_on_c, 1, 48, 83
3, 43065, Note_on_c, 1, 48, 0
3, 43083, Note_on_c, 1, 47, 83
3, 43089, Note_on_c, 1, 48, 47
3, 43099, Note_on_c, 1, 48, 0
3, 43188, Note_on_c, 1, 47, 0
3, 43200, Note_on_c, 1, 46, 80
3, 43300, Note_on_c, 1, 46, 0
3, 43327, Note_on_c, 1, 41, 78
3, 43438, Note_on_c, 1, 41, 0
3, 43440, Note_on_c, 1, 34, 63
3, 43559, Note_on_c, 1, 34, 0
3, 43562, Note_on_c, 1, 38, 73
3, 43671, Note_on_c, 1, 38, 0
3, 43682, Note_on_c, 1, 39, 69
3, 43802, Note_on_c, 1, 55, 81
3, 43920, Note_on_c, 1, 55, 0
3, 43933, Note_on_c, 1, 53, 66
3, 43967, Note_on_c, 1, 39, 0
3, 44008, Note_on_c, 1, 39, 52
3, 44034, Note_on_c, 1, 53, 0
3, 44048, Note_on_c, 1, 48, 69
3, 44054, Note_on_c, 1, 39, 0
3, 44131, Note_on_c, 1, 39, 39
3, 44142, Note_on_c, 1, 39, 0
3, 44147, Note_on_c, 1, 48, 0
3, 44170, Note_on_c, 1, 45, 79
3, 44288, Note_on_c, 1, 40, 70
3, 44377, Note_on_c, 1, 45, 0
3, 44398, Note_on_c, 1, 40, 0
3, 44408, Note_on_c, 1, 44, 72
3, 44513, Note_on_c, 1, 44, 0
3, 44518, Note_on_c, 1, 32, 69
3, 44643, Note_on_c, 1, 32, 0
3, 44645, Note_on_c, 1, 31, 68
3, 44730, Note_on_c, 1, 38, 48
3, 44759, Note_on_c, 1, 31, 0
3, 44761, Note_on_c, 1, 46, 74
3, 44764, Note_on_c, 1, 38, 0
3, 44869, Note_on_c, 1, 46, 0
3, 44889, Note_on_c, 1, 48, 79
3, 44991, Note_on_c, 1, 48, 0
3, 45002, Note_on_c, 1, 36, 78
3, 45125, Note_on_c, 1, 43, 85
3, 45137, Note_on_c, 1, 36, 0
3, 45207, Note_on_c, 1, 36, 51
3, 45216, Note_on_c, 1, 43, 0
3, 45233, Note_on_c, 1, 36, 0
3, 45247, Note_on_c, 1, 41, 80
3, 45366, Note_on_c, 1, 36, 79
3, 45368, Note_on_c, 1, 41, 0
3, 45462, Note_on_c, 1, 36, 0
3, 45479, Note_on_c, 1, 32, 69
3, 45588, Note_on_c, 1, 32, 0
3, 45600, Note_on_c, 1, 31, 68
3, 45723, Note_on_c, 1, 35, 73
3, 45726, Note_on_c, 1, 31, 0
3, 45840, Note_on_c, 1, 35, 0
3, 45845, Note_on_c, 1, 36, 80
3, 45928, Note_on_c, 1, 50, 82
3, 45945, Note_on_c, 1, 36, 0
3, 45955, Note_on_c, 1, 50, 0
3, 45970, Note_on_c, 1, 48, 62
3, 46005, Note_on_c, 1, 48, 0
3, 46043, Note_on_c, 1, 46, 73
3, 46073, Note_on_c, 1, 46, 0
3, 46089, Note_on_c, 1, 45, 71
3, 46179, Note_on_c, 1, 40, 34
3, 46182, Note_on_c, 1, 45, 0
3, 46193, Note_on_c, 1, 40, 0
3, 46202, Note_on_c, 1, 43, 65
3, 46308, Note_on_c, 1, 43, 0
3, 46321, Note_on_c, 1, 41, 66
3, 46430, Note_on_c, 1, 41, 0
3, 46440, Note_on_c, 1, 38, 85
3, 46561, Note_on_c, 1, 38, 0
3, 46561, Note_on_c, 1, 35, 73
3, 46676, Note_on_c, 1, 35, 0
3, 46689, Note_on_c, 1, 32, 69
3, 46810, Note_on_c, 1, 29, 70
3, 46811, Note_on_c, 1, 32, 0
3, 46913, Note_on_c, 1, 29, 0
3, 46925, Note_on_c, 1, 30, 84
3, 47027, Note_on_c, 1, 30, 0
3, 47044, Note_on_c, 1, 31, 94
3, 47115, Note_on_c, 1, 31, 0
3, 47130, Note_on_c, 1, 31, 81
3, 47167, Note_on_c, 1, 33, 84
3, 47185, Note_on_c, 1, 31, 0
3, 47271, Note_on_c, 1, 33, 0
3, 47291, Note_on_c, 1, 34, 85
3, 47404, Note_on_c, 1, 34, 0
3, 47412, Note_on_c, 1, 35, 85
3, 47533, Note_on_c, 1, 35, 0
3, 47534, Note_on_c, 1, 36, 90
3, 47617, Note_on_c, 1, 48, 94
3, 47652, Note_on_c, 1, 48, 0
3, 47665, Note_on_c, 1, 49, 79
3, 47747, Note_on_c, 1, 36, 0
3, 47763, Note_on_c, 1, 49, 0
3, 47777, Note_on_c, 1, 50, 82
3, 47858, Note_on_c, 1, 38, 43
3, 47877, Note_on_c, 1, 50, 0
3, 47883, Note_on_c, 1, 38, 0
3, 47893, Note_on_c, 1, 52, 85
3, 47998, Note_on_c, 1, 52, 0
3, 48016, Note_on_c, 1, 53, 87
3, 48100, Note_on_c, 1, 41, 54
3, 48113, Note_on_c, 1, 53, 0
3, 48120, Note_on_c, 1, 41, 0
3, 48130, Note_on_c, 1, 46, 85
3, 48249, Note_on_c, 1, 45, 76
3, 48255, Note_on_c, 1, 46, 0
3, 48335, Note_on_c, 1, 41, 45
3, 48347, Note_on_c, 1, 41, 0
3, 48356, Note_on_c, 1, 45, 0
3, 48372, Note_on_c, 1, 50, 81
3, 48487, Note_on_c, 1, 50, 0
3, 48492, Note_on_c, 1, 45, 74
3, 48610, Note_on_c, 1, 45, 0
3, 48615, Note_on_c, 1, 38, 94
3, 48735, Note_on_c, 1, 42, 85
3, 48737, Note_on_c, 1, 38, 0
3, 48844, Note_on_c, 1, 42, 0
3, 48851, Note_on_c, 1, 32, 87
3, 49028, Note_on_c, 1, 32, 0
3, 49049, Note_on_c, 1, 31, 80
3, 49205, Note_on_c, 1, 45, 115
3, 49211, Note_on_c, 1, 31, 0
3, 49290, Note_on_c, 1, 45, 0
3, 49290, Note_on_c, 1, 42, 80
3, 49326, Note_on_c, 1, 42, 0
3, 49331, Note_on_c, 1, 43, 70
3, 49398, Note_on_c, 1, 43, 0
3, 49413, Note_on_c, 1, 50, 89
3, 49492, Note_on_c, 1, 48, 84
3, 49515, Note_on_c, 1, 50, 0
3, 49555, Note_on_c, 1, 35, 36
3, 49562, Note_on_c, 1, 48, 0
3, 49580, Note_on_c, 1, 46, 81
3, 49586, Note_on_c, 1, 35, 0
3, 49648, Note_on_c, 1, 46, 0
3, 49663, Note_on_c, 1, 45, 78
3, 49721, Note_on_c, 1, 45, 0
3, 49735, Note_on_c, 1, 43, 72
3, 49780, Note_on_c, 1, 43, 0
3, 49804, Note_on_c, 1, 34, 72
3, 49873, Note_on_c, 1, 34, 0
3, 49886, Note_on_c, 1, 33, 87
3, 49889, Note_on_c, 1, 34, 71
3, 49913, Note_on_c, 1, 34, 0
3, 49997, Note_on_c, 1, 36, 58
3, 50024, Note_on_c, 1, 36, 0
3, 50041, Note_on_c, 1, 40, 81
3, 50062, Note_on_c, 1, 33, 0
3, 50099, Note_on_c, 1, 40, 0
3, 50122, Note_on_c, 1, 40, 59
3, 50150, Note_on_c, 1, 40, 0
3, 50161, Note_on_c, 1, 43, 76
3, 50262, Note_on_c, 1, 43, 0
3, 50287, Note_on_c, 1, 40, 75
3, 50358, Note_on_c, 1, 40, 0
3, 50369, Note_on_c, 1, 32, 85
3, 50463, Note_on_c, 1, 32, 0
3, 50485, Note_on_c, 1, 32, 54
3, 50526, Note_on_c, 1, 41, 95
3, 50545, Note_on_c, 1, 32, 0
3, 50584, Note_on_c, 1, 41, 0
3, 50608, Note_on_c, 1, 41, 56
3, 50610, Note_on_c, 1, 32, 39
3, 50627, Note_on_c, 1, 32, 0
3, 50629, Note_on_c, 1, 41, 0
3, 50642, Note_on_c, 1, 44, 86
3, 50766, Note_on_c, 1, 41, 82
3, 50822, Note_on_c, 1, 41, 0
3, 50838, Note_on_c, 1, 44, 0
3, 50858, Note_on_c, 1, 32, 53
3, 50869, Note_on_c, 1, 32, 0
3, 50886, Note_on_c, 1, 31, 70
3, 50956, Note_on_c, 1, 31, 0
3, 50972, Note_on_c, 1, 31, 78
3, 51002, Note_on_c, 1, 31, 0
3, 51018, Note_on_c, 1, 38, 80
3, 51018, Note_on_c, 1, 36, 79
3, 51028, Note_on_c, 1, 36, 0
3, 51127, Note_on_c, 1, 50, 103
3, 51147, Note_on_c, 1, 38, 0
3, 51214, Note_on_c, 1, 38, 37
3, 51228, Note_on_c, 1, 38, 0
3, 51230, Note_on_c, 1, 50, 0
3, 51246, Note_on_c, 1, 46, 80
3, 51342, Note_on_c, 1, 46, 0
3, 51445, Note_on_c, 1, 40, 96
3, 51580, Note_on_c, 1, 39, 30
3, 51596, Note_on_c, 1, 39, 0
3, 51636, Note_on_c, 1, 40, 0
3, 51661, Note_on_c, 1, 45, 66
3, 51662, Note_on_c, 1, 43, 66
3, 51671, Note_on_c, 1, 43, 0
3, 51677, Note_on_c, 1, 45, 0
3, 51703, Note_on_c, 1, 37, 50
3, 51713, Note_on_c, 1, 37, 0
3, 51736, Note_on_c, 1, 37, 70
3, 51829, Note_on_c, 1, 37, 0
3, 51850, Note_on_c, 1, 38, 81
3, 52044, Note_on_c, 1, 52, 92
3, 52074, Note_on_c, 1, 52, 0
3, 52088, Note_on_c, 1, 38, 0
3, 52091, Note_on_c, 1, 50, 74
3, 52186, Note_on_c, 1, 38, 30
3, 52197, Note_on_c, 1, 38, 0
3, 52248, Note_on_c, 1, 50, 0
3, 52259, Note_on_c, 1, 45, 73
3, 52280, Note_on_c, 1, 45, 0
3, 52296, Note_on_c, 1, 44, 60
3, 52325, Note_on_c, 1, 44, 0
3, 52331, Note_on_c, 1, 43, 68
3, 52413, Note_on_c, 1, 43, 0
3, 52413, Note_on_c, 1, 38, 60
3, 52426, Note_on_c, 1, 38, 0
3, 52450, Note_on_c, 1, 31, 75
3, 52620, Note_on_c, 1, 44, 57
3, 52633, Note_on_c, 1, 31, 0
3, 52635, Note_on_c, 1, 44, 0
3, 52647, Note_on_c, 1, 43, 61
3, 52660, Note_on_c, 1, 43, 0
3, 52695, Note_on_c, 1, 31, 89
3, 52889, Note_on_c, 1, 50, 92
3, 52901, Note_on_c, 1, 31, 0
3, 52926, Note_on_c, 1, 50, 0
3, 52931, Note_on_c, 1, 46, 61
3, 53045, Note_on_c, 1, 37, 85
3, 53047, Note_on_c, 1, 46, 0
3, 53255, Note_on_c, 1, 34, 46
3, 53266, Note_on_c, 1, 37, 0
3, 53279, Note_on_c, 1, 34, 0
3, 53285, Note_on_c, 1, 36, 82
3, 53383, Note_on_c, 1, 34, 39
3, 53412, Note_on_c, 1, 42, 95
3, 53415, Note_on_c, 1, 36, 0
3, 53431, Note_on_c, 1, 34, 0
3, 53603, Note_on_c, 1, 30, 83
3, 53611, Note_on_c, 1, 42, 0
3, 53752, Note_on_c, 1, 30, 0
3, 53766, Note_on_c, 1, 29, 67
3, 53861, Note_on_c, 1, 30, 58
3, 53879, Note_on_c, 1, 29, 0
3, 53880, Note_on_c, 1, 30, 0
3, 53890, Note_on_c, 1, 43, 94
3, 54001, Note_on_c, 1, 43, 0
3, 54008, Note_on_c, 1, 41, 70
3, 54217, Note_on_c, 1, 38, 53
3, 54228, Note_on_c, 1, 38, 0
3, 54228, Note_on_c, 1, 41, 0
3, 54249, Note_on_c, 1, 44, 75
3, 54305, Note_on_c, 1, 44, 0
3, 54330, Note_on_c, 1, 41, 71
3, 54363, Note_on_c, 1, 41, 0
3, 54371, Note_on_c, 1, 38, 69
3, 54497, Note_on_c, 1, 35, 31
3, 54514, Note_on_c, 1, 35, 0
3, 54523, Note_on_c, 1, 38, 0
3, 54533, Note_on_c, 1, 44, 39
3, 54558, Note_on_c, 1, 44, 0
3, 54567, Note_on_c, 1, 41, 71
3, 54583, Note_on_c, 1, 41, 0
3, 54609, Note_on_c, 1, 35, 87
3, 54715, Note_on_c, 1, 35, 0
3, 54733, Note_on_c, 1, 34, 80
3, 54931, Note_on_c, 1, 34, 0
3, 54931, Note_on_c, 1, 33, 78
3, 54960, Note_on_c, 1, 33, 0
3, 54977, Note_on_c, 1, 31, 78
3, 55079, Note_on_c, 1, 31, 0
3, 55089, Note_on_c, 1, 35, 80
3, 55272, Note_on_c, 1, 35, 0
3, 55286, Note_on_c, 1, 36, 96
3, 55404, Note_on_c, 1, 50, 85
3, 55434, Note_on_c, 1, 50, 0
3, 55442, Note_on_c, 1, 36, 0
3, 55450, Note_on_c, 1, 48, 84
3, 55551, Note_on_c, 1, 48, 0
3, 55561, Note_on_c, 1, 46, 84
3, 55661, Note_on_c, 1, 46, 0
3, 55680, Note_on_c, 1, 45, 75
3, 55721, Note_on_c, 1, 45, 0
3, 55762, Note_on_c, 1, 43, 63
3, 55788, Note_on_c, 1, 43, 0
3, 55807, Note_on_c, 1, 41, 77
3, 55984, Note_on_c, 1, 41, 0
3, 55993, Note_on_c, 1, 40, 72
3, 56013, Note_on_c, 1, 40, 0
3, 56044, Note_on_c, 1, 38, 89
3, 56233, Note_on_c, 1, 52, 78
3, 56266, Note_on_c, 1, 52, 0
3, 56286, Note_on_c, 1, 50, 80
3, 56373, Note_on_c, 1, 50, 0
3, 56403, Note_on_c, 1, 54, 82
3, 56528, Note_on_c, 1, 42, 73
3, 56541, Note_on_c, 1, 38, 0
3, 56625, Note_on_c, 1, 54, 0
3, 56652, Note_on_c, 1, 43, 89
3, 56666, Note_on_c, 1, 42, 0
3, 56772, Note_on_c, 1, 50, 96
3, 56791, Note_on_c, 1, 43, 0
3, 56881, Note_on_c, 1, 50, 0
3, 56892, Note_on_c, 1, 46, 74
3, 56926, Note_on_c, 1, 46, 0
3, 57005, Note_on_c, 1, 38, 82
3, 57074, Note_on_c, 1, 38, 0
3, 57122, Note_on_c, 1, 36, 108
3, 57162, Pitch_bend_c, 1, 8192
3, 57165, Pitch_bend_c, 1, 8192
3, 57170, Pitch_bend_c, 1, 8192
3, 57175, Pitch_bend_c, 1, 7552
3, 57177, Pitch_bend_c, 1, 7424
3, 57179, Pitch_bend_c, 1, 7296
3, 57181, Pitch_bend_c, 1, 7040
3, 57183, Pitch_bend_c, 1, 6784
3, 57185, Pitch_bend_c, 1, 6656
3, 57187, Pitch_bend_c, 1, 6400
3, 57189, Pitch_bend_c, 1, 6144
3, 57191, Pitch_bend_c, 1, 5888
3, 57193, Pitch_bend_c, 1, 5632
3, 57195, Pitch_bend_c, 1, 5504
3, 57197, Pitch_bend_c, 1, 5376
3, 57199, Pitch_bend_c, 1, 4992
3, 57201, Pitch_bend_c, 1, 4864
3, 57203, Pitch_bend_c, 1, 4736
3, 57205, Pitch_bend_c, 1, 4480
3, 57209, Pitch_bend_c, 1, 4224
3, 57212, Pitch_bend_c, 1, 4096
3, 57214, Pitch_bend_c, 1, 3840
3, 57216, Pitch_bend_c, 1, 3712
3, 57218, Pitch_bend_c, 1, 3584
3, 57220, Pitch_bend_c, 1, 3456
3, 57222, Pitch_bend_c, 1, 3200
3, 57224, Pitch_bend_c, 1, 3072
3, 57226, Pitch_bend_c, 1, 2816
3, 57228, Pitch_bend_c, 1, 2688
3, 57230, Pitch_bend_c, 1, 2560
3, 57232, Pitch_bend_c, 1, 2432
3, 57234, Pitch_bend_c, 1, 2176
3, 57236, Pitch_bend_c, 1, 2048
3, 57238, Pitch_bend_c, 1, 1920
3, 57240, Pitch_bend_c, 1, 1792
3, 57242, Pitch_bend_c, 1, 1664
3, 57244, Pitch_bend_c, 1, 1408
3, 57246, Pitch_bend_c, 1, 1280
3, 57248, Pitch_bend_c, 1, 1024
3, 57250, Pitch_bend_c, 1, 896
3, 57252, Pitch_bend_c, 1, 768
3, 57254, Pitch_bend_c, 1, 640
3, 57256, Pitch_bend_c, 1, 512
3, 57260, Note_on_c, 1, 36, 0
3, 57260, Pitch_bend_c, 1, 384
3, 57262, Pitch_bend_c, 1, 256
3, 57264, Pitch_bend_c, 1, 128
3, 57288, Pitch_bend_c, 1, 768
3, 57290, Pitch_bend_c, 1, 1664
3, 57292, Pitch_bend_c, 1, 2560
3, 57294, Pitch_bend_c, 1, 3456
3, 57296, Pitch_bend_c, 1, 3840
3, 57298, Pitch_bend_c, 1, 3968
3, 57317, Pitch_bend_c, 1, 4096
3, 57330, Pitch_bend_c, 1, 4352
3, 57332, Pitch_bend_c, 1, 4608
3, 57334, Pitch_bend_c, 1, 4864
3, 57336, Pitch_bend_c, 1, 5376
3, 57338, Pitch_bend_c, 1, 6144
3, 57340, Pitch_bend_c, 1, 7296
3, 57342, Pitch_bend_c, 1, 8192
3, 57567, Note_on_c, 1, 40, 71
3, 57589, Note_on_c, 1, 40, 0
3, 57610, Note_on_c, 1, 41, 87
3, 57679, Note_on_c, 1, 41, 0
3, 57691, Note_on_c, 1, 40, 54
3, 57715, Note_on_c, 1, 40, 0
3, 57734, Note_on_c, 1, 41, 64
3, 57841, Note_on_c, 1, 41, 0
3, 57850, Note_on_c, 1, 29, 73
3, 57969, Note_on_c, 1, 41, 96
3, 57978, Note_on_c, 1, 29, 0
3, 58051, Note_on_c, 1, 41, 0
3, 58054, Note_on_c, 1, 40, 64
3, 58069, Note_on_c, 1, 36, 24
3, 58076, Note_on_c, 1, 40, 0
3, 58079, Note_on_c, 1, 36, 0
3, 58091, Note_on_c, 1, 41, 71
3, 58210, Note_on_c, 1, 29, 90
3, 58214, Note_on_c, 1, 41, 0
3, 58330, Note_on_c, 1, 41, 103
3, 58353, Note_on_c, 1, 29, 0
3, 58413, Note_on_c, 1, 41, 0
3, 58413, Note_on_c, 1, 40, 60
3, 58436, Note_on_c, 1, 40, 0
3, 58450, Note_on_c, 1, 41, 79
3, 58517, Note_on_c, 1, 29, 35
3, 58537, Note_on_c, 1, 29, 0
3, 58572, Note_on_c, 1, 41, 0
3, 58577, Note_on_c, 1, 29, 91
3, 58691, Note_on_c, 1, 41, 101
3, 58718, Note_on_c, 1, 29, 0
3, 58762, Note_on_c, 1, 41, 0
3, 58768, Note_on_c, 1, 40, 63
3, 58793, Note_on_c, 1, 40, 0
3, 58811, Note_on_c, 1, 41, 77
3, 58875, Note_on_c, 1, 41, 0
3, 58886, Note_on_c, 1, 40, 92
3, 59044, Note_on_c, 1, 39, 83
3, 59052, Note_on_c, 1, 40, 0
3, 59133, Note_on_c, 1, 55, 91
3, 59393, Note_on_c, 1, 55, 0
3, 59534, Note_on_c, 1, 45, 103
3, 59546, Note_on_c, 1, 39, 0
3, 59744, Note_on_c, 1, 39, 42
3, 59754, Note_on_c, 1, 39, 0
3, 59761, Note_on_c, 1, 45, 0
3, 59774, Note_on_c, 1, 44, 72
3, 59971, Note_on_c, 1, 37, 45
3, 60004, Note_on_c, 1, 37, 0
3, 60020, Note_on_c, 1, 38, 66
3, 60034, Note_on_c, 1, 38, 0
3, 60095, Note_on_c, 1, 35, 71
3, 60111, Note_on_c, 1, 44, 0
3, 60130, Note_on_c, 1, 35, 0
3, 60134, Note_on_c, 1, 36, 88
3, 60333, Note_on_c, 1, 34, 34
3, 60363, Note_on_c, 1, 40, 55
3, 60364, Note_on_c, 1, 36, 0
3, 60380, Note_on_c, 1, 34, 0
3, 60473, Note_on_c, 1, 40, 0
3, 60487, Note_on_c, 1, 41, 69
3, 60699, Note_on_c, 1, 34, 47
3, 60714, Note_on_c, 1, 41, 0
3, 60719, Note_on_c, 1, 34, 0
3, 60736, Note_on_c, 1, 44, 69
3, 60961, Note_on_c, 1, 44, 0
3, 60975, Note_on_c, 1, 43, 49
3, 60986, Note_on_c, 1, 43, 0
3, 61057, Note_on_c, 1, 35, 65
3, 61085, Note_on_c, 1, 35, 0
3, 61103, Note_on_c, 1, 36, 73
3, 61213, Note_on_c, 1, 50, 101
3, 61226, Note_on_c, 1, 36, 0
3, 61291, Note_on_c, 1, 34, 34
3, 61320, Note_on_c, 1, 34, 0
3, 61324, Note_on_c, 1, 50, 0
3, 61330, Note_on_c, 1, 48, 76
3, 61443, Note_on_c, 1, 48, 0
3, 61456, Note_on_c, 1, 45, 73
3, 61666, Note_on_c, 1, 39, 48
3, 61668, Note_on_c, 1, 45, 0
3, 61679, Note_on_c, 1, 39, 0
3, 61697, Note_on_c, 1, 44, 75
3, 61901, Note_on_c, 1, 44, 0
3, 61918, Note_on_c, 1, 43, 58
3, 61928, Note_on_c, 1, 43, 0
3, 62008, Note_on_c, 1, 35, 81
3, 62162, Note_on_c, 1, 35, 0
3, 62172, Note_on_c, 1, 36, 66
3, 62293, Note_on_c, 1, 32, 74
3, 62299, Note_on_c, 1, 36, 0
3, 62382, Note_on_c, 1, 32, 0
3, 62384, Note_on_c, 1, 33, 79
3, 62655, Note_on_c, 1, 33, 0
3, 62655, Note_on_c, 1, 34, 60
3, 62704, Note_on_c, 1, 34, 0
3, 62775, Note_on_c, 1, 35, 60
3, 62833, Note_on_c, 1, 35, 0
3, 62902, Note_on_c, 1, 36, 63
3, 63096, Note_on_c, 1, 29, 70
3, 63100, Note_on_c, 1, 36, 0
3, 63551, Note_on_c, 1, 29, 0
3, 63551, End_track
4, 0, Start_track
4, 0, Title_t, ""
4, 0, Program_c, 9, 32
4, 0, Control_c, 9, 7, 120
4, 120, Note_on_c, 9, 59, 94
4, 166, Note_on_c, 9, 59, 0
4, 274, Note_on_c, 9, 59, 25
4, 302, Note_on_c, 9, 59, 0
4, 372, Note_on_c, 9, 59, 88
4, 437, Note_on_c, 9, 59, 0
4, 608, Note_on_c, 9, 59, 89
4, 647, Note_on_c, 9, 59, 0
4, 846, Note_on_c, 9, 59, 94
4, 919, Note_on_c, 9, 59, 0
4, 1029, Note_on_c, 9, 59, 68
4, 1051, Note_on_c, 9, 59, 0
4, 1080, Note_on_c, 9, 59, 81
4, 1175, Note_on_c, 9, 59, 0
4, 1324, Note_on_c, 9, 59, 96
4, 1393, Note_on_c, 9, 59, 0
4, 1564, Note_on_c, 9, 59, 95
4, 1648, Note_on_c, 9, 59, 0
4, 1803, Note_on_c, 9, 59, 83
4, 1877, Note_on_c, 9, 59, 0
4, 2048, Note_on_c, 9, 59, 72
4, 2120, Note_on_c, 9, 59, 0
4, 2284, Note_on_c, 9, 59, 89
4, 2351, Note_on_c, 9, 59, 0
4, 2526, Note_on_c, 9, 59, 78
4, 2586, Note_on_c, 9, 59, 0
4, 2762, Note_on_c, 9, 59, 82
4, 2811, Note_on_c, 9, 59, 0
4, 3005, Note_on_c, 9, 59, 83
4, 3069, Note_on_c, 9, 59, 0
4, 3243, Note_on_c, 9, 59, 83
4, 3284, Note_on_c, 9, 59, 0
4, 3478, Note_on_c, 9, 53, 72
4, 3486, Note_on_c, 9, 59, 81
4, 3492, Note_on_c, 9, 53, 0
4, 3563, Note_on_c, 9, 59, 0
4, 3723, Note_on_c, 9, 59, 77
4, 3784, Note_on_c, 9, 59, 0
4, 3970, Note_on_c, 9, 59, 80
4, 4033, Note_on_c, 9, 59, 0
4, 4208, Note_on_c, 9, 59, 76
4, 4264, Note_on_c, 9, 59, 0
4, 4403, Note_on_c, 9, 59, 49
4, 4419, Note_on_c, 9, 59, 0
4, 4447, Note_on_c, 9, 59, 78
4, 4530, Note_on_c, 9, 59, 0
4, 4679, Note_on_c, 9, 59, 79
4, 4715, Note_on_c, 9, 59, 0
4, 4874, Note_on_c, 9, 59, 66
4, 4893, Note_on_c, 9, 59, 0
4, 4923, Note_on_c, 9, 59, 78
4, 5004, Note_on_c, 9, 59, 0
4, 5169, Note_on_c, 9, 59, 80
4, 5232, Note_on_c, 9, 59, 0
4, 5410, Note_on_c, 9, 59, 80
4, 5449, Note_on_c, 9, 59, 0
4, 5654, Note_on_c, 9, 59, 80
4, 5712, Note_on_c, 9, 59, 0
4, 5898, Note_on_c, 9, 59, 75
4, 5953, Note_on_c, 9, 59, 0
4, 6132, Note_on_c, 9, 59, 75
4, 6174, Note_on_c, 9, 59, 0
4, 6376, Note_on_c, 9, 59, 72
4, 6414, Note_on_c, 9, 59, 0
4, 6610, Note_on_c, 9, 59, 76
4, 6642, Note_on_c, 9, 59, 0
4, 6824, Note_on_c, 9, 53, 63
4, 6835, Note_on_c, 9, 59, 81
4, 6837, Note_on_c, 9, 53, 0
4, 6923, Note_on_c, 9, 59, 0
4, 7057, Note_on_c, 9, 53, 55
4, 7067, Note_on_c, 9, 59, 79
4, 7070, Note_on_c, 9, 53, 0
4, 7154, Note_on_c, 9, 59, 0
4, 7324, Note_on_c, 9, 59, 83
4, 7392, Note_on_c, 9, 59, 0
4, 7562, Note_on_c, 9, 59, 94
4, 7632, Note_on_c, 9, 59, 0
4, 7812, Note_on_c, 9, 59, 71
4, 7861, Note_on_c, 9, 59, 0
4, 8047, Note_on_c, 9, 59, 69
4, 8096, Note_on_c, 9, 59, 0
4, 8284, Note_on_c, 9, 59, 66
4, 8330, Note_on_c, 9, 59, 0
4, 8522, Note_on_c, 9, 59, 92
4, 8576, Note_on_c, 9, 59, 0
4, 8767, Note_on_c, 9, 59, 65
4, 8809, Note_on_c, 9, 59, 0
4, 9002, Note_on_c, 9, 59, 80
4, 9055, Note_on_c, 9, 59, 0
4, 9243, Note_on_c, 9, 59, 84
4, 9282, Note_on_c, 9, 59, 0
4, 9482, Note_on_c, 9, 59, 81
4, 9534, Note_on_c, 9, 59, 0
4, 9676, Note_on_c, 9, 59, 62
4, 9697, Note_on_c, 9, 59, 0
4, 9727, Note_on_c, 9, 59, 75
4, 9804, Note_on_c, 9, 59, 0
4, 9962, Note_on_c, 9, 59, 83
4, 10024, Note_on_c, 9, 59, 0
4, 10204, Note_on_c, 9, 59, 83
4, 10256, Note_on_c, 9, 59, 0
4, 10439, Note_on_c, 9, 59, 80
4, 10496, Note_on_c, 9, 59, 0
4, 10684, Note_on_c, 9, 59, 83
4, 10727, Note_on_c, 9, 59, 0
4, 10924, Note_on_c, 9, 59, 82
4, 10972, Note_on_c, 9, 59, 0
4, 11161, Note_on_c, 9, 59, 81
4, 11201, Note_on_c, 9, 59, 0
4, 11398, Note_on_c, 9, 59, 83
4, 11456, Note_on_c, 9, 59, 0
4, 11645, Note_on_c, 9, 59, 84
4, 11686, Note_on_c, 9, 59, 0
4, 11883, Note_on_c, 9, 59, 92
4, 11950, Note_on_c, 9, 59, 0
4, 12116, Note_on_c, 9, 59, 85
4, 12174, Note_on_c, 9, 59, 0
4, 12354, Note_on_c, 9, 59, 85
4, 12403, Note_on_c, 9, 59, 0
4, 12597, Note_on_c, 9, 59, 89
4, 12643, Note_on_c, 9, 59, 0
4, 12833, Note_on_c, 9, 59, 88
4, 12876, Note_on_c, 9, 59, 0
4, 13075, Note_on_c, 9, 59, 84
4, 13118, Note_on_c, 9, 59, 0
4, 13316, Note_on_c, 9, 59, 91
4, 13356, Note_on_c, 9, 59, 0
4, 13558, Note_on_c, 9, 59, 81
4, 13600, Note_on_c, 9, 59, 0
4, 13800, Note_on_c, 9, 59, 85
4, 13857, Note_on_c, 9, 59, 0
4, 14044, Note_on_c, 9, 59, 84
4, 14086, Note_on_c, 9, 59, 0
4, 14242, Note_on_c, 9, 59, 71
4, 14260, Note_on_c, 9, 59, 0
4, 14290, Note_on_c, 9, 59, 77
4, 14353, Note_on_c, 9, 59, 0
4, 14520, Note_on_c, 9, 59, 80
4, 14556, Note_on_c, 9, 59, 0
4, 14768, Note_on_c, 9, 59, 82
4, 14796, Note_on_c, 9, 59, 0
4, 14966, Note_on_c, 9, 53, 73
4, 14990, Note_on_c, 9, 53, 0
4, 14990, Note_on_c, 9, 59, 84
4, 15026, Note_on_c, 9, 59, 0
4, 15195, Note_on_c, 9, 53, 85
4, 15221, Note_on_c, 9, 53, 0
4, 15233, Note_on_c, 9, 59, 81
4, 15280, Note_on_c, 9, 59, 0
4, 15482, Note_on_c, 9, 59, 90
4, 15521, Note_on_c, 9, 59, 0
4, 15728, Note_on_c, 9, 59, 80
4, 15762, Note_on_c, 9, 59, 0
4, 15962, Note_on_c, 9, 59, 87
4, 15987, Note_on_c, 9, 59, 0
4, 16201, Note_on_c, 9, 59, 89
4, 16229, Note_on_c, 9, 59, 0
4, 16439, Note_on_c, 9, 59, 88
4, 16473, Note_on_c, 9, 59, 0
4, 16684, Note_on_c, 9, 59, 87
4, 16740, Note_on_c, 9, 59, 0
4, 16914, Note_on_c, 9, 59, 74
4, 16973, Note_on_c, 9, 59, 0
4, 17150, Note_on_c, 9, 59, 78
4, 17201, Note_on_c, 9, 59, 0
4, 17402, Note_on_c, 9, 59, 90
4, 17437, Note_on_c, 9, 59, 0
4, 17641, Note_on_c, 9, 59, 92
4, 17675, Note_on_c, 9, 59, 0
4, 17882, Note_on_c, 9, 59, 89
4, 17915, Note_on_c, 9, 59, 0
4, 18126, Note_on_c, 9, 59, 91
4, 18160, Note_on_c, 9, 59, 0
4, 18367, Note_on_c, 9, 59, 87
4, 18401, Note_on_c, 9, 59, 0
4, 18606, Note_on_c, 9, 59, 80
4, 18634, Note_on_c, 9, 59, 0
4, 18846, Note_on_c, 9, 59, 80
4, 18848, Note_on_c, 9, 51, 74
4, 18876, Note_on_c, 9, 59, 0
4, 18882, Note_on_c, 9, 51, 0
4, 19076, Note_on_c, 9, 59, 83
4, 19106, Note_on_c, 9, 59, 0
4, 19321, Note_on_c, 9, 59, 85
4, 19352, Note_on_c, 9, 59, 0
4, 19566, Note_on_c, 9, 59, 83
4, 19595, Note_on_c, 9, 59, 0
4, 19803, Note_on_c, 9, 59, 83
4, 19831, Note_on_c, 9, 59, 0
4, 20043, Note_on_c, 9, 59, 80
4, 20044, Note_on_c, 9, 46, 70
4, 20074, Note_on_c, 9, 46, 0
4, 20074, Note_on_c, 9, 59, 0
4, 20276, Note_on_c, 9, 59, 83
4, 20306, Note_on_c, 9, 59, 0
4, 20519, Note_on_c, 9, 59, 89
4, 20552, Note_on_c, 9, 59, 0
4, 20758, Note_on_c, 9, 59, 81
4, 20789, Note_on_c, 9, 59, 0
4, 20994, Note_on_c, 9, 59, 84
4, 21025, Note_on_c, 9, 59, 0
4, 21238, Note_on_c, 9, 59, 83
4, 21273, Note_on_c, 9, 59, 0
4, 21487, Note_on_c, 9, 59, 80
4, 21517, Note_on_c, 9, 59, 0
4, 21715, Note_on_c, 9, 53, 60
4, 21720, Note_on_c, 9, 59, 80
4, 21728, Note_on_c, 9, 53, 0
4, 21748, Note_on_c, 9, 59, 0
4, 21959, Note_on_c, 9, 59, 80
4, 21987, Note_on_c, 9, 59, 0
4, 22202, Note_on_c, 9, 59, 80
4, 22231, Note_on_c, 9, 59, 0
4, 22401, Note_on_c, 9, 59, 80
4, 22416, Note_on_c, 9, 59, 0
4, 22444, Note_on_c, 9, 59, 74
4, 22478, Note_on_c, 9, 59, 0
4, 22681, Note_on_c, 9, 59, 78
4, 22708, Note_on_c, 9, 59, 0
4, 22916, Note_on_c, 9, 59, 83
4, 22932, Note_on_c, 9, 59, 0
4, 23156, Note_on_c, 9, 59, 83
4, 23158, Note_on_c, 9, 53, 76
4, 23172, Note_on_c, 9, 53, 0
4, 23180, Note_on_c, 9, 59, 0
4, 23388, Note_on_c, 9, 59, 74
4, 23409, Note_on_c, 9, 59, 0
4, 23634, Note_on_c, 9, 59, 81
4, 23660, Note_on_c, 9, 59, 0
4, 23875, Note_on_c, 9, 59, 81
4, 23902, Note_on_c, 9, 59, 0
4, 24113, Note_on_c, 9, 59, 83
4, 24140, Note_on_c, 9, 59, 0
4, 24353, Note_on_c, 9, 59, 85
4, 24380, Note_on_c, 9, 59, 0
4, 24596, Note_on_c, 9, 59, 87
4, 24624, Note_on_c, 9, 59, 0
4, 24838, Note_on_c, 9, 59, 83
4, 24864, Note_on_c, 9, 59, 0
4, 25028, Note_on_c, 9, 59, 64
4, 25042, Note_on_c, 9, 59, 0
4, 25083, Note_on_c, 9, 59, 68
4, 25120, Note_on_c, 9, 59, 0
4, 25320, Note_on_c, 9, 59, 85
4, 25346, Note_on_c, 9, 59, 0
4, 25516, Note_on_c, 9, 59, 66
4, 25530, Note_on_c, 9, 59, 0
4, 25569, Note_on_c, 9, 59, 74
4, 25609, Note_on_c, 9, 59, 0
4, 25803, Note_on_c, 9, 59, 87
4, 25835, Note_on_c, 9, 59, 0
4, 26040, Note_on_c, 9, 59, 89
4, 26076, Note_on_c, 9, 59, 0
4, 26282, Note_on_c, 9, 59, 88
4, 26318, Note_on_c, 9, 59, 0
4, 26519, Note_on_c, 9, 59, 88
4, 26552, Note_on_c, 9, 59, 0
4, 26755, Note_on_c, 9, 59, 85
4, 26792, Note_on_c, 9, 59, 0
4, 26994, Note_on_c, 9, 59, 85
4, 27030, Note_on_c, 9, 59, 0
4, 27234, Note_on_c, 9, 59, 84
4, 27270, Note_on_c, 9, 59, 0
4, 27478, Note_on_c, 9, 59, 87
4, 27508, Note_on_c, 9, 59, 0
4, 27721, Note_on_c, 9, 59, 82
4, 27748, Note_on_c, 9, 59, 0
4, 27961, Note_on_c, 9, 59, 82
4, 27989, Note_on_c, 9, 59, 0
4, 28158, Note_on_c, 9, 59, 83
4, 28178, Note_on_c, 9, 59, 0
4, 28208, Note_on_c, 9, 59, 83
4, 28248, Note_on_c, 9, 59, 0
4, 28443, Note_on_c, 9, 59, 85
4, 28470, Note_on_c, 9, 59, 0
4, 28684, Note_on_c, 9, 59, 87
4, 28709, Note_on_c, 9, 59, 0
4, 28920, Note_on_c, 9, 59, 82
4, 28948, Note_on_c, 9, 59, 0
4, 29103, Note_on_c, 9, 59, 69
4, 29120, Note_on_c, 9, 59, 0
4, 29158, Note_on_c, 9, 59, 76
4, 29201, Note_on_c, 9, 59, 0
4, 29400, Note_on_c, 9, 59, 83
4, 29428, Note_on_c, 9, 59, 0
4, 29646, Note_on_c, 9, 59, 85
4, 29674, Note_on_c, 9, 59, 0
4, 29832, Note_on_c, 9, 59, 68
4, 29845, Note_on_c, 9, 59, 0
4, 29882, Note_on_c, 9, 59, 74
4, 29918, Note_on_c, 9, 59, 0
4, 30002, Note_on_c, 9, 59, 90
4, 30036, Note_on_c, 9, 59, 0
4, 30200, Note_on_c, 9, 59, 80
4, 30214, Note_on_c, 9, 59, 0
4, 30250, Note_on_c, 9, 59, 76
4, 30253, Note_on_c, 9, 59, 74
4, 30256, Note_on_c, 9, 53, 74
4, 30276, Note_on_c, 9, 59, 0
4, 30277, Note_on_c, 9, 53, 0
4, 30289, Note_on_c, 9, 59, 0
4, 30368, Note_on_c, 9, 59, 96
4, 30375, Note_on_c, 9, 59, 70
4, 30381, Note_on_c, 9, 53, 61
4, 30394, Note_on_c, 9, 53, 0
4, 30399, Note_on_c, 9, 59, 0
4, 30408, Note_on_c, 9, 59, 0
4, 30499, Note_on_c, 9, 59, 66
4, 30502, Note_on_c, 9, 53, 50
4, 30516, Note_on_c, 9, 53, 0
4, 30520, Note_on_c, 9, 59, 0
4, 30603, Note_on_c, 9, 59, 85
4, 30608, Note_on_c, 9, 59, 62
4, 30609, Note_on_c, 9, 53, 60
4, 30624, Note_on_c, 9, 53, 0
4, 30627, Note_on_c, 9, 59, 0
4, 30640, Note_on_c, 9, 59, 0
4, 30723, Note_on_c, 9, 59, 71
4, 30727, Note_on_c, 9, 53, 60
4, 30751, Note_on_c, 9, 53, 0
4, 30758, Note_on_c, 9, 59, 0
4, 30844, Note_on_c, 9, 59, 69
4, 30846, Note_on_c, 9, 53, 62
4, 30875, Note_on_c, 9, 53, 0
4, 30877, Note_on_c, 9, 59, 0
4, 30968, Note_on_c, 9, 59, 72
4, 30969, Note_on_c, 9, 53, 63
4, 30981, Note_on_c, 9, 53, 0
4, 30991, Note_on_c, 9, 59, 0
4, 31082, Note_on_c, 9, 59, 92
4, 31120, Note_on_c, 9, 59, 0
4, 31201, Note_on_c, 9, 59, 65
4, 31203, Note_on_c, 9, 53, 61
4, 31238, Note_on_c, 9, 53, 0
4, 31246, Note_on_c, 9, 59, 0
4, 31321, Note_on_c, 9, 59, 74
4, 31325, Note_on_c, 9, 53, 62
4, 31353, Note_on_c, 9, 53, 0
4, 31366, Note_on_c, 9, 59, 0
4, 31449, Note_on_c, 9, 53, 54
4, 31452, Note_on_c, 9, 59, 31
4, 31458, Note_on_c, 9, 60, 24
4, 31462, Note_on_c, 9, 53, 0
4, 31471, Note_on_c, 9, 60, 0
4, 31480, Note_on_c, 9, 59, 0
4, 31521, Note_on_c, 9, 59, 88
4, 31637, Note_on_c, 9, 59, 0
4, 31649, Note_on_c, 9, 53, 67
4, 31662, Note_on_c, 9, 53, 0
4, 31697, Note_on_c, 9, 53, 75
4, 31698, Note_on_c, 9, 59, 80
4, 31772, Note_on_c, 9, 53, 0
4, 31783, Note_on_c, 9, 59, 0
4, 31812, Note_on_c, 9, 59, 62
4, 31818, Note_on_c, 9, 53, 56
4, 31847, Note_on_c, 9, 53, 0
4, 31851, Note_on_c, 9, 59, 0
4, 31931, Note_on_c, 9, 59, 80
4, 31933, Note_on_c, 9, 53, 74
4, 31966, Note_on_c, 9, 53, 0
4, 31983, Note_on_c, 9, 59, 0
4, 32046, Note_on_c, 9, 59, 59
4, 32077, Note_on_c, 9, 59, 0
4, 32130, Note_on_c, 9, 59, 76
4, 32152, Note_on_c, 9, 59, 0
4, 32176, Note_on_c, 9, 59, 85
4, 32240, Note_on_c, 9, 59, 0
4, 32291, Note_on_c, 9, 59, 91
4, 32359, Note_on_c, 9, 59, 0
4, 32406, Note_on_c, 9, 59, 43
4, 32434, Note_on_c, 9, 59, 0
4, 32487, Note_on_c, 9, 59, 99
4, 32577, Note_on_c, 9, 59, 0
4, 32609, Note_on_c, 9, 59, 61
4, 32627, Note_on_c, 9, 59, 0
4, 32657, Note_on_c, 9, 59, 92
4, 32732, Note_on_c, 9, 59, 0
4, 32769, Note_on_c, 9, 59, 47
4, 32783, Note_on_c, 9, 59, 0
4, 32835, Note_on_c, 9, 59, 88
4, 32896, Note_on_c, 9, 59, 0
4, 32951, Note_on_c, 9, 59, 37
4, 32967, Note_on_c, 9, 59, 0
4, 32995, Note_on_c, 9, 59, 74
4, 33070, Note_on_c, 9, 59, 0
4, 33123, Note_on_c, 9, 59, 92
4, 33181, Note_on_c, 9, 59, 0
4, 33234, Note_on_c, 9, 59, 85
4, 33287, Note_on_c, 9, 59, 0
4, 33325, Note_on_c, 9, 59, 64
4, 33353, Note_on_c, 9, 59, 0
4, 33369, Note_on_c, 9, 59, 87
4, 33430, Note_on_c, 9, 59, 0
4, 33480, Note_on_c, 9, 59, 89
4, 33532, Note_on_c, 9, 59, 0
4, 33601, Note_on_c, 9, 59, 87
4, 33664, Note_on_c, 9, 59, 0
4, 33687, Note_on_c, 9, 59, 69
4, 33707, Note_on_c, 9, 59, 0
4, 33730, Note_on_c, 9, 59, 85
4, 33777, Note_on_c, 9, 59, 0
4, 33803, Note_on_c, 9, 59, 83
4, 33888, Note_on_c, 9, 59, 0
4, 33927, Note_on_c, 9, 59, 60
4, 33954, Note_on_c, 9, 59, 0
4, 33967, Note_on_c, 9, 59, 76
4, 34045, Note_on_c, 9, 59, 0
4, 34087, Note_on_c, 9, 59, 89
4, 34153, Note_on_c, 9, 59, 0
4, 34206, Note_on_c, 9, 59, 94
4, 34261, Note_on_c, 9, 59, 0
4, 34323, Note_on_c, 9, 59, 87
4, 34376, Note_on_c, 9, 59, 0
4, 34447, Note_on_c, 9, 59, 89
4, 34486, Note_on_c, 9, 59, 0
4, 34557, Note_on_c, 9, 53, 71
4, 34569, Note_on_c, 9, 53, 0
4, 34574, Note_on_c, 9, 59, 92
4, 34639, Note_on_c, 9, 59, 0
4, 34684, Note_on_c, 9, 59, 68
4, 34728, Note_on_c, 9, 59, 0
4, 34802, Note_on_c, 9, 59, 82
4, 34837, Note_on_c, 9, 59, 0
4, 34920, Note_on_c, 9, 59, 78
4, 34949, Note_on_c, 9, 59, 0
4, 34993, Note_on_c, 9, 59, 79
4, 35045, Note_on_c, 9, 59, 0
4, 35122, Note_on_c, 9, 59, 67
4, 35135, Note_on_c, 9, 59, 0
4, 35168, Note_on_c, 9, 59, 74
4, 35228, Note_on_c, 9, 59, 0
4, 35284, Note_on_c, 9, 59, 71
4, 35323, Note_on_c, 9, 59, 0
4, 35400, Note_on_c, 9, 59, 90
4, 35454, Note_on_c, 9, 59, 0
4, 35484, Note_on_c, 9, 59, 57
4, 35516, Note_on_c, 9, 59, 0
4, 35528, Note_on_c, 9, 59, 66
4, 35592, Note_on_c, 9, 59, 0
4, 35646, Note_on_c, 9, 59, 95
4, 35724, Note_on_c, 9, 59, 0
4, 35771, Note_on_c, 9, 59, 79
4, 35827, Note_on_c, 9, 59, 0
4, 35850, Note_on_c, 9, 59, 67
4, 35872, Note_on_c, 9, 59, 0
4, 35896, Note_on_c, 9, 59, 81
4, 35898, Note_on_c, 9, 60, 83
4, 35938, Note_on_c, 9, 60, 0
4, 35944, Note_on_c, 9, 59, 0
4, 35971, Note_on_c, 9, 59, 80
4, 36047, Note_on_c, 9, 59, 0
4, 36089, Note_on_c, 9, 59, 65
4, 36116, Note_on_c, 9, 59, 0
4, 36136, Note_on_c, 9, 59, 85
4, 36187, Note_on_c, 9, 59, 0
4, 36215, Note_on_c, 9, 59, 85
4, 36276, Note_on_c, 9, 59, 0
4, 36323, Note_on_c, 9, 59, 88
4, 36380, Note_on_c, 9, 59, 0
4, 36440, Note_on_c, 9, 59, 74
4, 36467, Note_on_c, 9, 59, 0
4, 36485, Note_on_c, 9, 59, 91
4, 36556, Note_on_c, 9, 59, 0
4, 36604, Note_on_c, 9, 59, 85
4, 36646, Note_on_c, 9, 59, 0
4, 36669, Note_on_c, 9, 59, 80
4, 36711, Note_on_c, 9, 59, 0
4, 36798, Note_on_c, 9, 59, 92
4, 36875, Note_on_c, 9, 59, 0
4, 36923, Note_on_c, 9, 59, 69
4, 36953, Note_on_c, 9, 59, 0
4, 37043, Note_on_c, 9, 59, 89
4, 37073, Note_on_c, 9, 59, 0
4, 37163, Note_on_c, 9, 59, 61
4, 37177, Note_on_c, 9, 59, 0
4, 37202, Note_on_c, 9, 59, 89
4, 37276, Note_on_c, 9, 59, 0
4, 37318, Note_on_c, 9, 59, 49
4, 37339, Note_on_c, 9, 59, 0
4, 37388, Note_on_c, 9, 59, 96
4, 37453, Note_on_c, 9, 59, 0
4, 37511, Note_on_c, 9, 59, 82
4, 37534, Note_on_c, 9, 59, 0
4, 37561, Note_on_c, 9, 53, 101
4, 37736, Note_on_c, 9, 53, 0
4, 37760, Note_on_c, 9, 59, 99
4, 37778, Note_on_c, 9, 53, 88
4, 37789, Note_on_c, 9, 59, 0
4, 37923, Note_on_c, 9, 53, 0
4, 37937, Note_on_c, 9, 51, 97
4, 38092, Note_on_c, 9, 51, 0
4, 38126, Note_on_c, 9, 51, 88
4, 38225, Note_on_c, 9, 51, 0
4, 38257, Note_on_c, 9, 51, 51
4, 38282, Note_on_c, 9, 51, 0
4, 38300, Note_on_c, 9, 51, 93
4, 38377, Note_on_c, 9, 51, 0
4, 38413, Note_on_c, 9, 51, 79
4, 38480, Note_on_c, 9, 51, 0
4, 38533, Note_on_c, 9, 51, 77
4, 38574, Note_on_c, 9, 51, 0
4, 38609, Note_on_c, 9, 51, 56
4, 38635, Note_on_c, 9, 51, 0
4, 38651, Note_on_c, 9, 51, 77
4, 38693, Note_on_c, 9, 51, 0
4, 38762, Note_on_c, 9, 51, 91
4, 38806, Note_on_c, 9, 51, 0
4, 38855, Note_on_c, 9, 51, 40
4, 38867, Note_on_c, 9, 51, 0
4, 38884, Note_on_c, 9, 51, 71
4, 38922, Note_on_c, 9, 51, 0
4, 38998, Note_on_c, 9, 51, 92
4, 39052, Note_on_c, 9, 51, 0
4, 39117, Note_on_c, 9, 51, 71
4, 39144, Note_on_c, 9, 51, 0
4, 39235, Note_on_c, 9, 51, 92
4, 39273, Note_on_c, 9, 51, 0
4, 39356, Note_on_c, 9, 51, 76
4, 39411, Note_on_c, 9, 51, 0
4, 39477, Note_on_c, 9, 51, 82
4, 39533, Note_on_c, 9, 51, 0
4, 39595, Note_on_c, 9, 53, 79
4, 39605, Note_on_c, 9, 52, 54
4, 39607, Note_on_c, 9, 50, 50
4, 39619, Note_on_c, 9, 50, 0
4, 39629, Note_on_c, 9, 52, 0
4, 39656, Note_on_c, 9, 53, 0
4, 39724, Note_on_c, 9, 51, 73
4, 39783, Note_on_c, 9, 51, 0
4, 39840, Note_on_c, 9, 51, 84
4, 39911, Note_on_c, 9, 51, 0
4, 39962, Note_on_c, 9, 51, 81
4, 40031, Note_on_c, 9, 51, 0
4, 40087, Note_on_c, 9, 51, 78
4, 40134, Note_on_c, 9, 51, 0
4, 40157, Note_on_c, 9, 51, 70
4, 40216, Note_on_c, 9, 51, 0
4, 40278, Note_on_c, 9, 51, 83
4, 40347, Note_on_c, 9, 51, 0
4, 40404, Note_on_c, 9, 51, 75
4, 40427, Note_on_c, 9, 51, 0
4, 40448, Note_on_c, 9, 51, 78
4, 40527, Note_on_c, 9, 51, 0
4, 40575, Note_on_c, 9, 51, 88
4, 40642, Note_on_c, 9, 51, 0
4, 40690, Note_on_c, 9, 51, 46
4, 40714, Note_on_c, 9, 51, 0
4, 40755, Note_on_c, 9, 51, 84
4, 40829, Note_on_c, 9, 51, 0
4, 40877, Note_on_c, 9, 51, 67
4, 40901, Note_on_c, 9, 51, 0
4, 40925, Note_on_c, 9, 51, 79
4, 40997, Note_on_c, 9, 51, 0
4, 41044, Note_on_c, 9, 51, 80
4, 41111, Note_on_c, 9, 51, 0
4, 41161, Note_on_c, 9, 51, 88
4, 41209, Note_on_c, 9, 51, 0
4, 41251, Note_on_c, 9, 51, 50
4, 41263, Note_on_c, 9, 51, 0
4, 41286, Note_on_c, 9, 51, 72
4, 41337, Note_on_c, 9, 51, 0
4, 41400, Note_on_c, 9, 51, 92
4, 41446, Note_on_c, 9, 51, 0
4, 41488, Note_on_c, 9, 51, 59
4, 41501, Note_on_c, 9, 51, 0
4, 41525, Note_on_c, 9, 51, 72
4, 41568, Note_on_c, 9, 51, 0
4, 41645, Note_on_c, 9, 51, 92
4, 41690, Note_on_c, 9, 51, 0
4, 41763, Note_on_c, 9, 51, 87
4, 41797, Note_on_c, 9, 51, 0
4, 41881, Note_on_c, 9, 51, 86
4, 41925, Note_on_c, 9, 51, 0
4, 42007, Note_on_c, 9, 51, 87
4, 42046, Note_on_c, 9, 51, 0
4, 42096, Note_on_c, 9, 51, 71
4, 42109, Note_on_c, 9, 51, 0
4, 42134, Note_on_c, 9, 51, 67
4, 42157, Note_on_c, 9, 51, 0
4, 42211, Note_on_c, 9, 51, 94
4, 42266, Note_on_c, 9, 51, 0
4, 42329, Note_on_c, 9, 51, 92
4, 42375, Note_on_c, 9, 51, 0
4, 42446, Note_on_c, 9, 51, 65
4, 42458, Note_on_c, 9, 51, 0
4, 42483, Note_on_c, 9, 51, 76
4, 42534, Note_on_c, 9, 51, 0
4, 42594, Note_on_c, 9, 51, 90
4, 42598, Note_on_c, 9, 53, 80
4, 42661, Note_on_c, 9, 53, 0
4, 42675, Note_on_c, 9, 51, 0
4, 42728, Note_on_c, 9, 51, 64
4, 42760, Note_on_c, 9, 51, 0
4, 42844, Note_on_c, 9, 51, 92
4, 42901, Note_on_c, 9, 51, 0
4, 42970, Note_on_c, 9, 51, 70
4, 42990, Note_on_c, 9, 51, 0
4, 43046, Note_on_c, 9, 51, 94
4, 43117, Note_on_c, 9, 51, 0
4, 43166, Note_on_c, 9, 51, 60
4, 43178, Note_on_c, 9, 51, 0
4, 43211, Note_on_c, 9, 51, 84
4, 43267, Note_on_c, 9, 51, 0
4, 43319, Note_on_c, 9, 51, 55
4, 43337, Note_on_c, 9, 51, 0
4, 43395, Note_on_c, 9, 51, 94
4, 43448, Note_on_c, 9, 51, 0
4, 43525, Note_on_c, 9, 51, 67
4, 43537, Note_on_c, 9, 51, 0
4, 43568, Note_on_c, 9, 51, 81
4, 43619, Note_on_c, 9, 51, 0
4, 43685, Note_on_c, 9, 51, 94
4, 43733, Note_on_c, 9, 51, 0
4, 43802, Note_on_c, 9, 51, 87
4, 43805, Note_on_c, 9, 53, 80
4, 43904, Note_on_c, 9, 51, 0
4, 43925, Note_on_c, 9, 53, 0
4, 44008, Note_on_c, 9, 51, 91
4, 44012, Note_on_c, 9, 53, 82
4, 44111, Note_on_c, 9, 53, 0
4, 44112, Note_on_c, 9, 51, 0
4, 44174, Note_on_c, 9, 53, 84
4, 44174, Note_on_c, 9, 51, 86
4, 44245, Note_on_c, 9, 53, 0
4, 44249, Note_on_c, 9, 51, 0
4, 44355, Note_on_c, 9, 51, 95
4, 44418, Note_on_c, 9, 51, 0
4, 44526, Note_on_c, 9, 51, 85
4, 44581, Note_on_c, 9, 51, 0
4, 44600, Note_on_c, 9, 51, 90
4, 44659, Note_on_c, 9, 51, 0
4, 44717, Note_on_c, 9, 51, 90
4, 44720, Note_on_c, 9, 53, 81
4, 44792, Note_on_c, 9, 53, 0
4, 44793, Note_on_c, 9, 51, 0
4, 44837, Note_on_c, 9, 51, 59
4, 44851, Note_on_c, 9, 51, 0
4, 44888, Note_on_c, 9, 51, 91
4, 44891, Note_on_c, 9, 53, 82
4, 44954, Note_on_c, 9, 51, 0
4, 44957, Note_on_c, 9, 53, 0
4, 44995, Note_on_c, 9, 51, 50
4, 45011, Note_on_c, 9, 51, 0
4, 45069, Note_on_c, 9, 51, 92
4, 45076, Note_on_c, 9, 53, 64
4, 45086, Note_on_c, 9, 52, 45
4, 45098, Note_on_c, 9, 52, 0
4, 45113, Note_on_c, 9, 53, 0
4, 45128, Note_on_c, 9, 51, 0
4, 45193, Note_on_c, 9, 51, 62
4, 45205, Note_on_c, 9, 51, 0
4, 45241, Note_on_c, 9, 51, 83
4, 45244, Note_on_c, 9, 53, 84
4, 45299, Note_on_c, 9, 53, 0
4, 45300, Note_on_c, 9, 51, 0
4, 45356, Note_on_c, 9, 51, 64
4, 45391, Note_on_c, 9, 51, 0
4, 45420, Note_on_c, 9, 51, 64
4, 45441, Note_on_c, 9, 55, 27
4, 45444, Note_on_c, 9, 51, 0
4, 45453, Note_on_c, 9, 55, 0
4, 45538, Note_on_c, 9, 57, 92
4, 45539, Note_on_c, 9, 59, 82
4, 45559, Note_on_c, 9, 57, 0
4, 45566, Note_on_c, 9, 59, 0
4, 45725, Note_on_c, 9, 59, 87
4, 45868, Note_on_c, 9, 59, 0
4, 45924, Note_on_c, 9, 59, 33
4, 45940, Note_on_c, 9, 59, 0
4, 45962, Note_on_c, 9, 59, 80
4, 46007, Note_on_c, 9, 59, 0
4, 46039, Note_on_c, 9, 59, 90
4, 46099, Note_on_c, 9, 59, 0
4, 46168, Note_on_c, 9, 59, 83
4, 46228, Note_on_c, 9, 59, 0
4, 46280, Note_on_c, 9, 59, 79
4, 46304, Note_on_c, 9, 59, 0
4, 46328, Note_on_c, 9, 59, 88
4, 46386, Note_on_c, 9, 59, 0
4, 46445, Note_on_c, 9, 59, 91
4, 46492, Note_on_c, 9, 59, 0
4, 46530, Note_on_c, 9, 59, 58
4, 46559, Note_on_c, 9, 59, 0
4, 46567, Note_on_c, 9, 59, 60
4, 46623, Note_on_c, 9, 59, 0
4, 46683, Note_on_c, 9, 59, 91
4, 46737, Note_on_c, 9, 59, 0
4, 46802, Note_on_c, 9, 59, 77
4, 46845, Note_on_c, 9, 59, 0
4, 46931, Note_on_c, 9, 59, 92
4, 46983, Note_on_c, 9, 59, 0
4, 47015, Note_on_c, 9, 59, 57
4, 47043, Note_on_c, 9, 59, 0
4, 47055, Note_on_c, 9, 59, 71
4, 47099, Note_on_c, 9, 59, 0
4, 47170, Note_on_c, 9, 59, 95
4, 47221, Note_on_c, 9, 59, 0
4, 47306, Note_on_c, 9, 59, 58
4, 47318, Note_on_c, 9, 59, 0
4, 47412, Note_on_c, 9, 59, 92
4, 47459, Note_on_c, 9, 59, 0
4, 47529, Note_on_c, 9, 59, 51
4, 47546, Note_on_c, 9, 59, 0
4, 47605, Note_on_c, 9, 59, 94
4, 47657, Note_on_c, 9, 59, 0
4, 47731, Note_on_c, 9, 59, 35
4, 47747, Note_on_c, 9, 59, 0
4, 47777, Note_on_c, 9, 59, 87
4, 47838, Note_on_c, 9, 59, 0
4, 47896, Note_on_c, 9, 59, 62
4, 47908, Note_on_c, 9, 59, 0
4, 47965, Note_on_c, 9, 59, 94
4, 47999, Note_on_c, 9, 59, 0
4, 48134, Note_on_c, 9, 59, 94
4, 48188, Note_on_c, 9, 59, 0
4, 48373, Note_on_c, 9, 59, 91
4, 48405, Note_on_c, 9, 59, 0
4, 48612, Note_on_c, 9, 59, 89
4, 48645, Note_on_c, 9, 59, 0
4, 48842, Note_on_c, 9, 59, 89
4, 48881, Note_on_c, 9, 59, 0
4, 48963, Note_on_c, 9, 59, 48
4, 48976, Note_on_c, 9, 59, 0
4, 49078, Note_on_c, 9, 59, 88
4, 49113, Note_on_c, 9, 59, 0
4, 49159, Note_on_c, 9, 59, 78
4, 49189, Note_on_c, 9, 59, 0
4, 49326, Note_on_c, 9, 59, 85
4, 49379, Note_on_c, 9, 59, 0
4, 49569, Note_on_c, 9, 59, 89
4, 49608, Note_on_c, 9, 59, 0
4, 49748, Note_on_c, 9, 59, 79
4, 49782, Note_on_c, 9, 59, 0
4, 49929, Note_on_c, 9, 59, 91
4, 49985, Note_on_c, 9, 59, 0
4, 50042, Note_on_c, 9, 59, 43
4, 50057, Note_on_c, 9, 59, 0
4, 50112, Note_on_c, 9, 59, 94
4, 50141, Note_on_c, 9, 59, 0
4, 50291, Note_on_c, 9, 59, 96
4, 50326, Note_on_c, 9, 59, 0
4, 50536, Note_on_c, 9, 59, 90
4, 50569, Note_on_c, 9, 59, 0
4, 50771, Note_on_c, 9, 59, 88
4, 50802, Note_on_c, 9, 59, 0
4, 51004, Note_on_c, 9, 59, 89
4, 51035, Note_on_c, 9, 59, 0
4, 51202, Note_on_c, 9, 59, 44
4, 51216, Note_on_c, 9, 59, 0
4, 51241, Note_on_c, 9, 59, 75
4, 51293, Note_on_c, 9, 59, 0
4, 51487, Note_on_c, 9, 59, 88
4, 51519, Note_on_c, 9, 59, 0
4, 51683, Note_on_c, 9, 59, 85
4, 51715, Note_on_c, 9, 59, 0
4, 51810, Note_on_c, 9, 59, 53
4, 51823, Note_on_c, 9, 59, 0
4, 51852, Note_on_c, 9, 59, 76
4, 51899, Note_on_c, 9, 59, 0
4, 51965, Note_on_c, 9, 59, 81
4, 52000, Note_on_c, 9, 59, 0
4, 52026, Note_on_c, 9, 59, 74
4, 52063, Note_on_c, 9, 59, 0
4, 52160, Note_on_c, 9, 59, 57
4, 52173, Note_on_c, 9, 59, 0
4, 52197, Note_on_c, 9, 59, 79
4, 52250, Note_on_c, 9, 59, 0
4, 52322, Note_on_c, 9, 59, 79
4, 52349, Note_on_c, 9, 59, 0
4, 52448, Note_on_c, 9, 59, 99
4, 52475, Note_on_c, 9, 59, 0
4, 52690, Note_on_c, 9, 59, 89
4, 52723, Note_on_c, 9, 59, 0
4, 52886, Note_on_c, 9, 59, 54
4, 52898, Note_on_c, 9, 59, 0
4, 52927, Note_on_c, 9, 59, 72
4, 52988, Note_on_c, 9, 59, 0
4, 53132, Note_on_c, 9, 59, 91
4, 53163, Note_on_c, 9, 59, 0
4, 53254, Note_on_c, 9, 59, 36
4, 53270, Note_on_c, 9, 59, 0
4, 53407, Note_on_c, 9, 59, 95
4, 53436, Note_on_c, 9, 59, 0
4, 53646, Note_on_c, 9, 59, 89
4, 53679, Note_on_c, 9, 59, 0
4, 53886, Note_on_c, 9, 59, 89
4, 53922, Note_on_c, 9, 59, 0
4, 54090, Note_on_c, 9, 59, 53
4, 54102, Note_on_c, 9, 59, 0
4, 54126, Note_on_c, 9, 59, 74
4, 54170, Note_on_c, 9, 59, 0
4, 54366, Note_on_c, 9, 53, 78
4, 54366, Note_on_c, 9, 59, 83
4, 54398, Note_on_c, 9, 53, 0
4, 54424, Note_on_c, 9, 59, 0
4, 54566, Note_on_c, 9, 59, 71
4, 54598, Note_on_c, 9, 59, 0
4, 54693, Note_on_c, 9, 59, 66
4, 54705, Note_on_c, 9, 59, 0
4, 54746, Note_on_c, 9, 59, 78
4, 54749, Note_on_c, 9, 53, 81
4, 54786, Note_on_c, 9, 53, 0
4, 54805, Note_on_c, 9, 59, 0
4, 54842, Note_on_c, 9, 59, 60
4, 54866, Note_on_c, 9, 59, 0
4, 54927, Note_on_c, 9, 59, 82
4, 54952, Note_on_c, 9, 59, 0
4, 55048, Note_on_c, 9, 59, 70
4, 55060, Note_on_c, 9, 59, 0
4, 55097, Note_on_c, 9, 59, 76
4, 55103, Note_on_c, 9, 53, 81
4, 55133, Note_on_c, 9, 53, 0
4, 55149, Note_on_c, 9, 59, 0
4, 55217, Note_on_c, 9, 59, 68
4, 55243, Note_on_c, 9, 59, 0
4, 55280, Note_on_c, 9, 59, 70
4, 55307, Note_on_c, 9, 59, 0
4, 55394, Note_on_c, 9, 59, 72
4, 55410, Note_on_c, 9, 59, 0
4, 55454, Note_on_c, 9, 53, 80
4, 55454, Note_on_c, 9, 59, 73
4, 55499, Note_on_c, 9, 53, 0
4, 55514, Note_on_c, 9, 59, 0
4, 55568, Note_on_c, 9, 59, 76
4, 55595, Note_on_c, 9, 59, 0
4, 55636, Note_on_c, 9, 59, 78
4, 55668, Note_on_c, 9, 59, 0
4, 55751, Note_on_c, 9, 59, 73
4, 55771, Note_on_c, 9, 59, 0
4, 55804, Note_on_c, 9, 59, 79
4, 55808, Note_on_c, 9, 53, 81
4, 55854, Note_on_c, 9, 53, 0
4, 55864, Note_on_c, 9, 59, 0
4, 55925, Note_on_c, 9, 59, 73
4, 55952, Note_on_c, 9, 59, 0
4, 55995, Note_on_c, 9, 59, 80
4, 56029, Note_on_c, 9, 59, 0
4, 56111, Note_on_c, 9, 59, 72
4, 56139, Note_on_c, 9, 59, 0
4, 56166, Note_on_c, 9, 59, 77
4, 56171, Note_on_c, 9, 53, 80
4, 56210, Note_on_c, 9, 53, 0
4, 56227, Note_on_c, 9, 59, 0
4, 56285, Note_on_c, 9, 59, 66
4, 56308, Note_on_c, 9, 59, 0
4, 56356, Note_on_c, 9, 59, 85
4, 56394, Note_on_c, 9, 59, 0
4, 56473, Note_on_c, 9, 59, 73
4, 56488, Note_on_c, 9, 59, 0
4, 56524, Note_on_c, 9, 59, 85
4, 56574, Note_on_c, 9, 59, 0
4, 56708, Note_on_c, 9, 59, 71
4, 56744, Note_on_c, 9, 59, 0
4, 56828, Note_on_c, 9, 59, 60
4, 56842, Note_on_c, 9, 59, 0
4, 56879, Note_on_c, 9, 59, 75
4, 56920, Note_on_c, 9, 59, 0
4, 57007, Note_on_c, 9, 59, 36
4, 57023, Note_on_c, 9, 59, 0
4, 57071, Note_on_c, 9, 57, 89
4, 57071, Note_on_c, 9, 59, 80
4, 57113, Note_on_c, 9, 57, 0
4, 57123, Note_on_c, 9, 59, 0
4, 57248, Note_on_c, 9, 59, 39
4, 57276, Note_on_c, 9, 59, 0
4, 57373, Note_on_c, 9, 59, 58
4, 57405, Note_on_c, 9, 59, 0
4, 57481, Note_on_c, 9, 59, 81
4, 57518, Note_on_c, 9, 59, 0
4, 57559, Note_on_c, 9, 59, 69
4, 57593, Note_on_c, 9, 59, 0
4, 57683, Note_on_c, 9, 59, 91
4, 57722, Note_on_c, 9, 59, 0
4, 57806, Note_on_c, 9, 59, 63
4, 57818, Note_on_c, 9, 59, 0
4, 57850, Note_on_c, 9, 59, 75
4, 57909, Note_on_c, 9, 59, 0
4, 57966, Note_on_c, 9, 59, 91
4, 58008, Note_on_c, 9, 59, 0
4, 58175, Note_on_c, 9, 59, 89
4, 58215, Note_on_c, 9, 59, 0
4, 58279, Note_on_c, 9, 59, 68
4, 58291, Note_on_c, 9, 59, 0
4, 58336, Note_on_c, 9, 59, 99
4, 58393, Note_on_c, 9, 59, 0
4, 58444, Note_on_c, 9, 59, 48
4, 58457, Note_on_c, 9, 59, 0
4, 58511, Note_on_c, 9, 59, 94
4, 58567, Note_on_c, 9, 59, 0
4, 58631, Note_on_c, 9, 59, 49
4, 58644, Note_on_c, 9, 59, 0
4, 58687, Note_on_c, 9, 59, 92
4, 58740, Note_on_c, 9, 59, 0
4, 58803, Note_on_c, 9, 59, 58
4, 58828, Note_on_c, 9, 59, 0
4, 58874, Note_on_c, 9, 59, 91
4, 58927, Note_on_c, 9, 59, 0
4, 58998, Note_on_c, 9, 59, 68
4, 59015, Note_on_c, 9, 59, 0
4, 59050, Note_on_c, 9, 59, 88
4, 59095, Note_on_c, 9, 59, 0
4, 59173, Note_on_c, 9, 59, 103
4, 59221, Note_on_c, 9, 59, 0
4, 59297, Note_on_c, 9, 59, 103
4, 59332, Note_on_c, 9, 59, 0
4, 59362, Note_on_c, 9, 59, 68
4, 59395, Note_on_c, 9, 59, 0
4, 59488, Note_on_c, 9, 59, 110
4, 59521, Note_on_c, 9, 59, 0
4, 59606, Note_on_c, 9, 59, 96
4, 59642, Note_on_c, 9, 59, 0
4, 59717, Note_on_c, 9, 59, 80
4, 59731, Note_on_c, 9, 59, 0
4, 59772, Note_on_c, 9, 59, 89
4, 59806, Note_on_c, 9, 59, 0
4, 59888, Note_on_c, 9, 59, 101
4, 59906, Note_on_c, 9, 59, 0
4, 60010, Note_on_c, 9, 59, 123
4, 60059, Note_on_c, 9, 59, 0
4, 60059, End_track
5, 0, Start_track
5, 0, Title_t, ""
5, 0, Program_c, 9, 32
5, 0, Control_c, 9, 7, 120
5, 433, Note_on_c, 9, 40, 39
5, 448, Note_on_c, 9, 40, 0
5, 484, Note_on_c, 9, 40, 48
5, 507, Note_on_c, 9, 40, 0
5, 558, Note_on_c, 9, 40, 33
5, 569, Note_on_c, 9, 40, 0
5, 785, Note_on_c, 9, 40, 59
5, 794, Note_on_c, 9, 40, 0
5, 842, Note_on_c, 9, 36, 28
5, 892, Note_on_c, 9, 36, 0
5, 966, Note_on_c, 9, 36, 32
5, 983, Note_on_c, 9, 36, 0
5, 1637, Note_on_c, 9, 44, 39
5, 1649, Note_on_c, 9, 44, 0
5, 1716, Note_on_c, 9, 44, 52
5, 1749, Note_on_c, 9, 44, 0
5, 1808, Note_on_c, 9, 44, 83
5, 1842, Note_on_c, 9, 44, 0
5, 1888, Note_on_c, 9, 44, 83
5, 1913, Note_on_c, 9, 44, 0
5, 2237, Note_on_c, 9, 40, 39
5, 2249, Note_on_c, 9, 40, 0
5, 2316, Note_on_c, 9, 40, 37
5, 2343, Note_on_c, 9, 40, 0
5, 2413, Note_on_c, 9, 40, 44
5, 2422, Note_on_c, 9, 40, 0
5, 2483, Note_on_c, 9, 36, 33
5, 2498, Note_on_c, 9, 36, 0
5, 2838, Note_on_c, 9, 50, 34
5, 2851, Note_on_c, 9, 50, 0
5, 2881, Note_on_c, 9, 50, 31
5, 2900, Note_on_c, 9, 50, 0
5, 2945, Note_on_c, 9, 50, 41
5, 2955, Note_on_c, 9, 50, 0
5, 2988, Note_on_c, 9, 47, 30
5, 3004, Note_on_c, 9, 47, 0
5, 3060, Note_on_c, 9, 50, 47
5, 3079, Note_on_c, 9, 50, 0
5, 3112, Note_on_c, 9, 50, 27
5, 3128, Note_on_c, 9, 50, 0
5, 3191, Note_on_c, 9, 50, 33
5, 3202, Note_on_c, 9, 50, 0
5, 3238, Note_on_c, 9, 47, 37
5, 3250, Note_on_c, 9, 47, 0
5, 3806, Note_on_c, 9, 36, 50
5, 3826, Note_on_c, 9, 36, 0
5, 3852, Note_on_c, 9, 36, 38
5, 3893, Note_on_c, 9, 36, 0
5, 4526, Note_on_c, 9, 45, 45
5, 4535, Note_on_c, 9, 45, 0
5, 4639, Note_on_c, 9, 45, 48
5, 4648, Note_on_c, 9, 45, 0
5, 4758, Note_on_c, 9, 36, 63
5, 4786, Note_on_c, 9, 36, 0
5, 4808, Note_on_c, 9, 36, 61
5, 4836, Note_on_c, 9, 36, 0
5, 5316, Note_on_c, 9, 46, 43
5, 5346, Note_on_c, 9, 46, 0
5, 5405, Note_on_c, 9, 46, 46
5, 5458, Note_on_c, 9, 46, 0
5, 5493, Note_on_c, 9, 46, 44
5, 5520, Note_on_c, 9, 46, 0
5, 5561, Note_on_c, 9, 36, 47
5, 5592, Note_on_c, 9, 36, 0
5, 5648, Note_on_c, 9, 36, 58
5, 5699, Note_on_c, 9, 36, 0
5, 6194, Note_on_c, 9, 44, 56
5, 6203, Note_on_c, 9, 44, 0
5, 6233, Note_on_c, 9, 36, 40
5, 6260, Note_on_c, 9, 36, 0
5, 6323, Note_on_c, 9, 36, 36
5, 6334, Note_on_c, 9, 36, 0
5, 6549, Note_on_c, 9, 44, 69
5, 6559, Note_on_c, 9, 44, 0
5, 6597, Note_on_c, 9, 36, 29
5, 6617, Note_on_c, 9, 36, 0
5, 6684, Note_on_c, 9, 36, 22
5, 6693, Note_on_c, 9, 36, 0
5, 7073, Note_on_c, 9, 37, 52
5, 7089, Note_on_c, 9, 37, 0
5, 7107, Note_on_c, 9, 37, 60
5, 7118, Note_on_c, 9, 37, 0
5, 7275, Note_on_c, 9, 36, 62
5, 7286, Note_on_c, 9, 36, 0
5, 7315, Note_on_c, 9, 36, 45
5, 7357, Note_on_c, 9, 36, 0
5, 7754, Note_on_c, 9, 50, 40
5, 7766, Note_on_c, 9, 50, 0
5, 7812, Note_on_c, 9, 50, 24
5, 7840, Note_on_c, 9, 50, 0
5, 7880, Note_on_c, 9, 36, 58
5, 7900, Note_on_c, 9, 36, 0
5, 7931, Note_on_c, 9, 36, 34
5, 7963, Note_on_c, 9, 36, 0
5, 8154, Note_on_c, 9, 50, 34
5, 8167, Note_on_c, 9, 50, 0
5, 8243, Note_on_c, 9, 50, 46
5, 8254, Note_on_c, 9, 50, 0
5, 8292, Note_on_c, 9, 36, 36
5, 8333, Note_on_c, 9, 36, 0
5, 8359, Note_on_c, 9, 36, 60
5, 8385, Note_on_c, 9, 36, 0
5, 8410, Note_on_c, 9, 36, 49
5, 8428, Note_on_c, 9, 36, 0
5, 8837, Note_on_c, 9, 46, 39
5, 8847, Note_on_c, 9, 46, 0
5, 8885, Note_on_c, 9, 46, 64
5, 8921, Note_on_c, 9, 46, 0
5, 8961, Note_on_c, 9, 36, 60
5, 8985, Note_on_c, 9, 36, 0
5, 9318, Note_on_c, 9, 44, 68
5, 9329, Note_on_c, 9, 44, 0
5, 9368, Note_on_c, 9, 36, 31
5, 9378, Note_on_c, 9, 36, 0
5, 9483, Note_on_c, 9, 44, 64
5, 9499, Note_on_c, 9, 44, 0
5, 9558, Note_on_c, 9, 44, 76
5, 9570, Note_on_c, 9, 44, 0
5, 9677, Note_on_c, 9, 36, 48
5, 9686, Note_on_c, 9, 36, 0
5, 9727, Note_on_c, 9, 44, 39
5, 9736, Note_on_c, 9, 44, 0
5, 9796, Note_on_c, 9, 44, 90
5, 9812, Note_on_c, 9, 44, 0
5, 9848, Note_on_c, 9, 44, 88
5, 9878, Note_on_c, 9, 44, 0
5, 9912, Note_on_c, 9, 36, 62
5, 9929, Note_on_c, 9, 36, 0
5, 9960, Note_on_c, 9, 44, 39
5, 9970, Note_on_c, 9, 44, 0
5, 10030, Note_on_c, 9, 44, 82
5, 10050, Note_on_c, 9, 44, 0
5, 10454, Note_on_c, 9, 38, 26
5, 10471, Note_on_c, 9, 38, 0
5, 10487, Note_on_c, 9, 38, 51
5, 10499, Note_on_c, 9, 38, 0
5, 10525, Note_on_c, 9, 36, 51
5, 10551, Note_on_c, 9, 36, 0
5, 10877, Note_on_c, 9, 50, 42
5, 10887, Note_on_c, 9, 50, 0
5, 10932, Note_on_c, 9, 36, 43
5, 10942, Note_on_c, 9, 36, 0
5, 11117, Note_on_c, 9, 50, 50
5, 11128, Note_on_c, 9, 50, 0
5, 11168, Note_on_c, 9, 50, 30
5, 11193, Note_on_c, 9, 50, 0
5, 11237, Note_on_c, 9, 48, 48
5, 11249, Note_on_c, 9, 48, 0
5, 11356, Note_on_c, 9, 36, 45
5, 11365, Note_on_c, 9, 36, 0
5, 11405, Note_on_c, 9, 50, 48
5, 11450, Note_on_c, 9, 50, 0
5, 11468, Note_on_c, 9, 47, 55
5, 11477, Note_on_c, 9, 47, 0
5, 11839, Note_on_c, 9, 50, 62
5, 11857, Note_on_c, 9, 50, 0
5, 11891, Note_on_c, 9, 47, 34
5, 11902, Note_on_c, 9, 47, 0
5, 12313, Note_on_c, 9, 50, 34
5, 12335, Note_on_c, 9, 50, 0
5, 12428, Note_on_c, 9, 50, 33
5, 12438, Note_on_c, 9, 50, 0
5, 12484, Note_on_c, 9, 50, 39
5, 12498, Note_on_c, 9, 50, 0
5, 12545, Note_on_c, 9, 50, 45
5, 12566, Note_on_c, 9, 50, 0
5, 12600, Note_on_c, 9, 47, 29
5, 12637, Note_on_c, 9, 47, 0
5, 13154, Note_on_c, 9, 44, 51
5, 13162, Note_on_c, 9, 44, 0
5, 13281, Note_on_c, 9, 44, 51
5, 13290, Note_on_c, 9, 44, 0
5, 13399, Note_on_c, 9, 36, 68
5, 13410, Note_on_c, 9, 36, 0
5, 13759, Note_on_c, 9, 47, 57
5, 13781, Note_on_c, 9, 47, 0
5, 13808, Note_on_c, 9, 47, 35
5, 13819, Note_on_c, 9, 47, 0
5, 14037, Note_on_c, 9, 38, 31
5, 14054, Note_on_c, 9, 38, 0
5, 14113, Note_on_c, 9, 38, 73
5, 14131, Note_on_c, 9, 38, 0
5, 14240, Note_on_c, 9, 36, 50
5, 14249, Note_on_c, 9, 36, 0
5, 14518, Note_on_c, 9, 40, 43
5, 14529, Note_on_c, 9, 40, 0
5, 14549, Note_on_c, 9, 40, 69
5, 14562, Note_on_c, 9, 40, 0
5, 14709, Note_on_c, 9, 36, 56
5, 14720, Note_on_c, 9, 36, 0
5, 14750, Note_on_c, 9, 36, 43
5, 14776, Note_on_c, 9, 36, 0
5, 15321, Note_on_c, 9, 37, 77
5, 15339, Note_on_c, 9, 37, 0
5, 15483, Note_on_c, 9, 36, 51
5, 15495, Note_on_c, 9, 36, 0
5, 15962, Note_on_c, 9, 47, 46
5, 16014, Note_on_c, 9, 47, 0
5, 16042, Note_on_c, 9, 47, 54
5, 16050, Note_on_c, 9, 47, 0
5, 16401, Note_on_c, 9, 44, 59
5, 16421, Note_on_c, 9, 44, 0
5, 16444, Note_on_c, 9, 44, 37
5, 16473, Note_on_c, 9, 44, 0
5, 16520, Note_on_c, 9, 36, 31
5, 16530, Note_on_c, 9, 36, 0
5, 16564, Note_on_c, 9, 44, 51
5, 16616, Note_on_c, 9, 44, 0
5, 16634, Note_on_c, 9, 44, 61
5, 16651, Note_on_c, 9, 44, 0
5, 16762, Note_on_c, 9, 36, 27
5, 16771, Note_on_c, 9, 36, 0
5, 16802, Note_on_c, 9, 44, 61
5, 16855, Note_on_c, 9, 44, 0
5, 16873, Note_on_c, 9, 44, 64
5, 16894, Note_on_c, 9, 44, 0
5, 17116, Note_on_c, 9, 47, 74
5, 17137, Note_on_c, 9, 47, 0
5, 17163, Note_on_c, 9, 47, 51
5, 17186, Note_on_c, 9, 47, 0
5, 17233, Note_on_c, 9, 36, 49
5, 17243, Note_on_c, 9, 36, 0
5, 17898, Note_on_c, 9, 40, 32
5, 17908, Note_on_c, 9, 40, 0
5, 17964, Note_on_c, 9, 40, 66
5, 17975, Note_on_c, 9, 40, 0
5, 18033, Note_on_c, 9, 40, 56
5, 18054, Note_on_c, 9, 40, 0
5, 18121, Note_on_c, 9, 36, 37
5, 18133, Note_on_c, 9, 36, 0
5, 18202, Note_on_c, 9, 36, 54
5, 18213, Note_on_c, 9, 36, 0
5, 18931, Note_on_c, 9, 50, 29
5, 18941, Note_on_c, 9, 50, 0
5, 18969, Note_on_c, 9, 50, 35
5, 19015, Note_on_c, 9, 50, 0
5, 19046, Note_on_c, 9, 47, 46
5, 19055, Note_on_c, 9, 47, 0
5, 19160, Note_on_c, 9, 36, 44
5, 19170, Note_on_c, 9, 36, 0
5, 19200, Note_on_c, 9, 50, 43
5, 19247, Note_on_c, 9, 50, 0
5, 19278, Note_on_c, 9, 50, 44
5, 19299, Note_on_c, 9, 50, 0
5, 19935, Note_on_c, 9, 50, 56
5, 19958, Note_on_c, 9, 50, 0
5, 20009, Note_on_c, 9, 50, 59
5, 20034, Note_on_c, 9, 50, 0
5, 20115, Note_on_c, 9, 48, 48
5, 20136, Note_on_c, 9, 48, 0
5, 20182, Note_on_c, 9, 47, 17
5, 20195, Note_on_c, 9, 47, 0
5, 20884, Note_on_c, 9, 40, 44
5, 20895, Note_on_c, 9, 40, 0
5, 20918, Note_on_c, 9, 40, 52
5, 20926, Note_on_c, 9, 40, 0
5, 21013, Note_on_c, 9, 36, 36
5, 21034, Note_on_c, 9, 36, 0
5, 21090, Note_on_c, 9, 36, 54
5, 21103, Note_on_c, 9, 36, 0
5, 21438, Note_on_c, 9, 46, 60
5, 21446, Note_on_c, 9, 46, 0
5, 21917, Note_on_c, 9, 44, 84
5, 21931, Note_on_c, 9, 44, 0
5, 21965, Note_on_c, 9, 44, 78
5, 21979, Note_on_c, 9, 44, 0
5, 22034, Note_on_c, 9, 36, 52
5, 22044, Note_on_c, 9, 36, 0
5, 22516, Note_on_c, 9, 44, 58
5, 22529, Note_on_c, 9, 44, 0
5, 22638, Note_on_c, 9, 44, 58
5, 22646, Note_on_c, 9, 44, 0
5, 22761, Note_on_c, 9, 44, 59
5, 22771, Note_on_c, 9, 44, 0
5, 22873, Note_on_c, 9, 44, 67
5, 22887, Note_on_c, 9, 44, 0
5, 22998, Note_on_c, 9, 57, 80
5, 23006, Note_on_c, 9, 57, 0
5, 23607, Note_on_c, 9, 40, 49
5, 23617, Note_on_c, 9, 40, 0
5, 23722, Note_on_c, 9, 40, 63
5, 23736, Note_on_c, 9, 40, 0
5, 23843, Note_on_c, 9, 40, 62
5, 23856, Note_on_c, 9, 40, 0
5, 23959, Note_on_c, 9, 40, 74
5, 23977, Note_on_c, 9, 40, 0
5, 24005, Note_on_c, 9, 36, 52
5, 24027, Note_on_c, 9, 36, 0
5, 24326, Note_on_c, 9, 40, 35
5, 24336, Note_on_c, 9, 40, 0
5, 24442, Note_on_c, 9, 40, 47
5, 24455, Note_on_c, 9, 40, 0
5, 24563, Note_on_c, 9, 40, 48
5, 24578, Note_on_c, 9, 40, 0
5, 24679, Note_on_c, 9, 40, 58
5, 24692, Note_on_c, 9, 40, 0
5, 24727, Note_on_c, 9, 57, 65
5, 24728, Note_on_c, 9, 36, 54
5, 24738, Note_on_c, 9, 36, 0
5, 24741, Note_on_c, 9, 57, 0
5, 24922, Note_on_c, 9, 40, 58
5, 24931, Note_on_c, 9, 40, 0
5, 24972, Note_on_c, 9, 57, 50
5, 24972, Note_on_c, 9, 36, 49
5, 24980, Note_on_c, 9, 57, 0
5, 24982, Note_on_c, 9, 36, 0
5, 25518, Note_on_c, 9, 44, 46
5, 25526, Note_on_c, 9, 44, 0
5, 25647, Note_on_c, 9, 40, 49
5, 25657, Note_on_c, 9, 40, 0
5, 25871, Note_on_c, 9, 44, 67
5, 25879, Note_on_c, 9, 44, 0
5, 26429, Note_on_c, 9, 50, 49
5, 26437, Note_on_c, 9, 50, 0
5, 26524, Note_on_c, 9, 50, 57
5, 26532, Note_on_c, 9, 50, 0
5, 26607, Note_on_c, 9, 50, 62
5, 26617, Note_on_c, 9, 50, 0
5, 26690, Note_on_c, 9, 50, 42
5, 26699, Note_on_c, 9, 50, 0
5, 26734, Note_on_c, 9, 40, 49
5, 26744, Note_on_c, 9, 40, 0
5, 26772, Note_on_c, 9, 50, 58
5, 26795, Note_on_c, 9, 50, 0
5, 26840, Note_on_c, 9, 50, 58
5, 26849, Note_on_c, 9, 50, 0
5, 27790, Note_on_c, 9, 50, 60
5, 27798, Note_on_c, 9, 50, 0
5, 28403, Note_on_c, 9, 36, 58
5, 28411, Note_on_c, 9, 36, 0
5, 28449, Note_on_c, 9, 50, 39
5, 28458, Note_on_c, 9, 50, 0
5, 28524, Note_on_c, 9, 50, 45
5, 28533, Note_on_c, 9, 50, 0
5, 28645, Note_on_c, 9, 36, 54
5, 28653, Note_on_c, 9, 36, 0
5, 28874, Note_on_c, 9, 40, 62
5, 28894, Note_on_c, 9, 40, 0
5, 28921, Note_on_c, 9, 40, 44
5, 28948, Note_on_c, 9, 40, 0
5, 28995, Note_on_c, 9, 36, 57
5, 29007, Note_on_c, 9, 36, 0
5, 29244, Note_on_c, 9, 40, 57
5, 29258, Note_on_c, 9, 40, 0
5, 29289, Note_on_c, 9, 40, 49
5, 29313, Note_on_c, 9, 40, 0
5, 29364, Note_on_c, 9, 36, 66
5, 29375, Note_on_c, 9, 36, 0
5, 29528, Note_on_c, 9, 40, 37
5, 29584, Note_on_c, 9, 40, 0
5, 29604, Note_on_c, 9, 40, 61
5, 29613, Note_on_c, 9, 40, 0
5, 29723, Note_on_c, 9, 40, 68
5, 29730, Note_on_c, 9, 36, 38
5, 29734, Note_on_c, 9, 40, 0
5, 29739, Note_on_c, 9, 36, 0
5, 29771, Note_on_c, 9, 44, 69
5, 29827, Note_on_c, 9, 44, 0
5, 29962, Note_on_c, 9, 40, 39
5, 29972, Note_on_c, 9, 40, 0
5, 30072, Note_on_c, 9, 40, 58
5, 30090, Note_on_c, 9, 40, 0
5, 30117, Note_on_c, 9, 36, 63
5, 30121, Note_on_c, 9, 57, 66
5, 30138, Note_on_c, 9, 36, 0
5, 30144, Note_on_c, 9, 57, 0
5, 30235, Note_on_c, 9, 40, 62
5, 30244, Note_on_c, 9, 40, 0
5, 30318, Note_on_c, 9, 57, 68
5, 30320, Note_on_c, 9, 36, 68
5, 30324, Note_on_c, 9, 40, 30
5, 30326, Note_on_c, 9, 57, 0
5, 30328, Note_on_c, 9, 36, 0
5, 30334, Note_on_c, 9, 40, 0
5, 30436, Note_on_c, 9, 40, 64
5, 30449, Note_on_c, 9, 40, 0
5, 30485, Note_on_c, 9, 57, 68
5, 30488, Note_on_c, 9, 36, 71
5, 30493, Note_on_c, 9, 57, 0
5, 30534, Note_on_c, 9, 36, 0
5, 30603, Note_on_c, 9, 40, 53
5, 30613, Note_on_c, 9, 40, 0
5, 30679, Note_on_c, 9, 36, 75
5, 30682, Note_on_c, 9, 40, 57
5, 30687, Note_on_c, 9, 36, 0
5, 30692, Note_on_c, 9, 40, 0
5, 30723, Note_on_c, 9, 40, 58
5, 30731, Note_on_c, 9, 40, 0
5, 30805, Note_on_c, 9, 36, 62
5, 30814, Note_on_c, 9, 36, 0
5, 31175, Note_on_c, 9, 40, 44
5, 31183, Note_on_c, 9, 40, 0
5, 31531, Note_on_c, 9, 40, 52
5, 31538, Note_on_c, 9, 40, 0
5, 31573, Note_on_c, 9, 36, 35
5, 31593, Note_on_c, 9, 36, 0
5, 31646, Note_on_c, 9, 36, 73
5, 31667, Note_on_c, 9, 36, 0
5, 31691, Note_on_c, 9, 36, 34
5, 31707, Note_on_c, 9, 36, 0
5, 32045, Note_on_c, 9, 40, 35
5, 32055, Note_on_c, 9, 40, 0
5, 32080, Note_on_c, 9, 40, 53
5, 32088, Note_on_c, 9, 40, 0
5, 32123, Note_on_c, 9, 36, 36
5, 32132, Note_on_c, 9, 36, 0
5, 32329, Note_on_c, 9, 40, 53
5, 32337, Note_on_c, 9, 40, 0
5, 32365, Note_on_c, 9, 40, 68
5, 32371, Note_on_c, 9, 40, 0
5, 32446, Note_on_c, 9, 40, 68
5, 32456, Note_on_c, 9, 40, 0
5, 32530, Note_on_c, 9, 40, 80
5, 32538, Note_on_c, 9, 40, 0
5, 32606, Note_on_c, 9, 40, 80
5, 32613, Note_on_c, 9, 40, 0
5, 32647, Note_on_c, 9, 36, 68
5, 32663, Note_on_c, 9, 36, 0
5, 33082, Note_on_c, 9, 40, 66
5, 33090, Note_on_c, 9, 40, 0
5, 33193, Note_on_c, 9, 40, 77
5, 33214, Note_on_c, 9, 40, 0
5, 33282, Note_on_c, 9, 40, 64
5, 33300, Note_on_c, 9, 40, 0
5, 33364, Note_on_c, 9, 40, 71
5, 33381, Note_on_c, 9, 40, 0
5, 33448, Note_on_c, 9, 40, 68
5, 33466, Note_on_c, 9, 40, 0
5, 33527, Note_on_c, 9, 40, 57
5, 33557, Note_on_c, 9, 40, 0
5, 33560, Note_on_c, 9, 37, 73
5, 33582, Note_on_c, 9, 37, 0
5, 33600, Note_on_c, 9, 36, 70
5, 33604, Note_on_c, 9, 57, 49
5, 33611, Note_on_c, 9, 57, 0
5, 33621, Note_on_c, 9, 36, 0
5, 34166, Note_on_c, 9, 44, 56
5, 34172, Note_on_c, 9, 44, 0
5, 34285, Note_on_c, 9, 44, 72
5, 34295, Note_on_c, 9, 44, 0
5, 34410, Note_on_c, 9, 44, 77
5, 34421, Note_on_c, 9, 44, 0
5, 34530, Note_on_c, 9, 40, 76
5, 34535, Note_on_c, 9, 57, 57
5, 34541, Note_on_c, 9, 57, 0
5, 34545, Note_on_c, 9, 40, 0
5, 35089, Note_on_c, 9, 40, 56
5, 35096, Note_on_c, 9, 40, 0
5, 35128, Note_on_c, 9, 40, 51
5, 35135, Note_on_c, 9, 40, 0
5, 35162, Note_on_c, 9, 36, 38
5, 35184, Note_on_c, 9, 36, 0
5, 35202, Note_on_c, 9, 40, 46
5, 35209, Note_on_c, 9, 40, 0
5, 35357, Note_on_c, 9, 40, 27
5, 35365, Note_on_c, 9, 40, 0
5, 35842, Note_on_c, 9, 40, 40
5, 35851, Note_on_c, 9, 40, 0
5, 35893, Note_on_c, 9, 40, 37
5, 35902, Note_on_c, 9, 40, 0
5, 35961, Note_on_c, 9, 36, 57
5, 35969, Note_on_c, 9, 36, 0
5, 36203, Note_on_c, 9, 40, 43
5, 36212, Note_on_c, 9, 40, 0
5, 36324, Note_on_c, 9, 40, 66
5, 36339, Note_on_c, 9, 40, 0
5, 36413, Note_on_c, 9, 40, 64
5, 36420, Note_on_c, 9, 40, 0
5, 36443, Note_on_c, 9, 40, 77
5, 36461, Note_on_c, 9, 40, 0
5, 36484, Note_on_c, 9, 36, 71
5, 36510, Note_on_c, 9, 36, 0
5, 36809, Note_on_c, 9, 40, 29
5, 36820, Note_on_c, 9, 40, 0
5, 36901, Note_on_c, 9, 44, 46
5, 36915, Note_on_c, 9, 44, 0
5, 37037, Note_on_c, 9, 44, 67
5, 37048, Note_on_c, 9, 44, 0
5, 37155, Note_on_c, 9, 46, 60
5, 37155, Note_on_c, 9, 44, 69
5, 37165, Note_on_c, 9, 46, 0
5, 37166, Note_on_c, 9, 44, 0
5, 37272, Note_on_c, 9, 46, 74
5, 37286, Note_on_c, 9, 46, 0
5, 37394, Note_on_c, 9, 46, 70
5, 37408, Note_on_c, 9, 46, 0
5, 37513, Note_on_c, 9, 46, 74
5, 37528, Note_on_c, 9, 46, 0
5, 37631, Note_on_c, 9, 40, 65
5, 37638, Note_on_c, 9, 40, 0
5, 37686, Note_on_c, 9, 40, 30
5, 37693, Note_on_c, 9, 40, 0
5, 37752, Note_on_c, 9, 40, 64
5, 37759, Note_on_c, 9, 40, 0
5, 37799, Note_on_c, 9, 40, 64
5, 37809, Note_on_c, 9, 40, 0
5, 37874, Note_on_c, 9, 36, 74
5, 37890, Note_on_c, 9, 36, 0
5, 37922, Note_on_c, 9, 36, 59
5, 37947, Note_on_c, 9, 36, 0
5, 38175, Note_on_c, 9, 40, 68
5, 38187, Note_on_c, 9, 40, 0
5, 38207, Note_on_c, 9, 40, 83
5, 38227, Note_on_c, 9, 40, 0
5, 38294, Note_on_c, 9, 40, 96
5, 38312, Note_on_c, 9, 40, 0
5, 38367, Note_on_c, 9, 37, 85
5, 38368, Note_on_c, 9, 40, 91
5, 38382, Note_on_c, 9, 40, 0
5, 38384, Note_on_c, 9, 37, 0
5, 38410, Note_on_c, 9, 40, 84
5, 38410, Note_on_c, 9, 36, 89
5, 38412, Note_on_c, 9, 57, 87
5, 38442, Note_on_c, 9, 57, 0
5, 38657, Note_on_c, 9, 40, 0
5, 38667, Note_on_c, 9, 36, 0
5, 38689, Note_on_c, 9, 40, 74
5, 38708, Note_on_c, 9, 40, 0
5, 38726, Note_on_c, 9, 37, 75
5, 38727, Note_on_c, 9, 40, 58
5, 38740, Note_on_c, 9, 40, 0
5, 38746, Note_on_c, 9, 37, 0
5, 38768, Note_on_c, 9, 36, 84
5, 38769, Note_on_c, 9, 40, 76
5, 38770, Note_on_c, 9, 57, 89
5, 38831, Note_on_c, 9, 57, 0
5, 38960, Note_on_c, 9, 36, 0
5, 38974, Note_on_c, 9, 40, 0
5, 39845, Note_on_c, 9, 40, 44
5, 39853, Note_on_c, 9, 40, 0
5, 39916, Note_on_c, 9, 40, 51
5, 39923, Note_on_c, 9, 40, 0
5, 39972, Note_on_c, 9, 40, 53
5, 39987, Note_on_c, 9, 40, 0
5, 40004, Note_on_c, 9, 40, 57
5, 40013, Note_on_c, 9, 40, 0
5, 40275, Note_on_c, 9, 40, 71
5, 40282, Note_on_c, 9, 40, 0
5, 40588, Note_on_c, 9, 40, 60
5, 40595, Note_on_c, 9, 40, 0
5, 40671, Note_on_c, 9, 40, 66
5, 40686, Note_on_c, 9, 40, 0
5, 40864, Note_on_c, 9, 40, 54
5, 40872, Note_on_c, 9, 40, 0
5, 40933, Note_on_c, 9, 40, 61
5, 40942, Note_on_c, 9, 40, 0
5, 41600, Note_on_c, 9, 44, 36
5, 41607, Note_on_c, 9, 44, 0
5, 41646, Note_on_c, 9, 44, 31
5, 41653, Note_on_c, 9, 44, 0
5, 41719, Note_on_c, 9, 44, 61
5, 41726, Note_on_c, 9, 44, 0
5, 41844, Note_on_c, 9, 44, 37
5, 41851, Note_on_c, 9, 44, 0
5, 41888, Note_on_c, 9, 44, 47
5, 41894, Note_on_c, 9, 44, 0
5, 41957, Note_on_c, 9, 40, 62
5, 41973, Note_on_c, 9, 40, 0
5, 42327, Note_on_c, 9, 44, 36
5, 42334, Note_on_c, 9, 44, 0
5, 42374, Note_on_c, 9, 44, 40
5, 42381, Note_on_c, 9, 44, 0
5, 42445, Note_on_c, 9, 40, 66
5, 42451, Note_on_c, 9, 40, 0
5, 42561, Note_on_c, 9, 44, 37
5, 42568, Note_on_c, 9, 44, 0
5, 42679, Note_on_c, 9, 40, 50
5, 42689, Note_on_c, 9, 40, 0
5, 43113, Note_on_c, 9, 44, 44
5, 43133, Note_on_c, 9, 44, 0
5, 43152, Note_on_c, 9, 44, 57
5, 43167, Note_on_c, 9, 44, 0
5, 43244, Note_on_c, 9, 44, 43
5, 43255, Note_on_c, 9, 44, 0
5, 43277, Note_on_c, 9, 44, 53
5, 43292, Note_on_c, 9, 44, 0
5, 43369, Note_on_c, 9, 44, 46
5, 43382, Note_on_c, 9, 44, 0
5, 43404, Note_on_c, 9, 44, 52
5, 43419, Note_on_c, 9, 44, 0
5, 43638, Note_on_c, 9, 44, 56
5, 43645, Note_on_c, 9, 44, 0
5, 43750, Note_on_c, 9, 44, 44
5, 43765, Note_on_c, 9, 44, 0
5, 43794, Note_on_c, 9, 44, 36
5, 43807, Note_on_c, 9, 44, 0
5, 43918, Note_on_c, 9, 44, 55
5, 43935, Note_on_c, 9, 44, 0
5, 44045, Note_on_c, 9, 44, 38
5, 44100, Note_on_c, 9, 44, 0
5, 44125, Note_on_c, 9, 44, 78
5, 44154, Note_on_c, 9, 44, 0
5, 44171, Note_on_c, 9, 44, 51
5, 44231, Note_on_c, 9, 44, 0
5, 44277, Note_on_c, 9, 44, 73
5, 44352, Note_on_c, 9, 44, 0
5, 44398, Note_on_c, 9, 44, 62
5, 44472, Note_on_c, 9, 44, 0
5, 44518, Note_on_c, 9, 44, 75
5, 44592, Note_on_c, 9, 44, 0
5, 44639, Note_on_c, 9, 44, 72
5, 44714, Note_on_c, 9, 44, 0
5, 44755, Note_on_c, 9, 46, 76
5, 44839, Note_on_c, 9, 46, 0
5, 44874, Note_on_c, 9, 44, 67
5, 44958, Note_on_c, 9, 44, 0
5, 44999, Note_on_c, 9, 44, 72
5, 45073, Note_on_c, 9, 44, 0
5, 45114, Note_on_c, 9, 44, 68
5, 45173, Note_on_c, 9, 44, 0
5, 45199, Note_on_c, 9, 40, 61
5, 45218, Note_on_c, 9, 40, 0
5, 45243, Note_on_c, 9, 40, 36
5, 45272, Note_on_c, 9, 40, 0
5, 45319, Note_on_c, 9, 40, 80
5, 45339, Note_on_c, 9, 40, 0
5, 45370, Note_on_c, 9, 40, 63
5, 45391, Note_on_c, 9, 40, 0
5, 45448, Note_on_c, 9, 40, 29
5, 45455, Note_on_c, 9, 40, 0
5, 45559, Note_on_c, 9, 40, 75
5, 45578, Note_on_c, 9, 40, 0
5, 45604, Note_on_c, 9, 40, 64
5, 45626, Note_on_c, 9, 40, 0
5, 45676, Note_on_c, 9, 44, 67
5, 45681, Note_on_c, 9, 40, 58
5, 45690, Note_on_c, 9, 44, 0
5, 45691, Note_on_c, 9, 40, 0
5, 45799, Note_on_c, 9, 40, 75
5, 45818, Note_on_c, 9, 40, 0
5, 45849, Note_on_c, 9, 40, 31
5, 45857, Note_on_c, 9, 40, 0
5, 45918, Note_on_c, 9, 37, 71
5, 45936, Note_on_c, 9, 37, 0
5, 46036, Note_on_c, 9, 37, 77
5, 46037, Note_on_c, 9, 40, 84
5, 46049, Note_on_c, 9, 40, 0
5, 46052, Note_on_c, 9, 37, 0
5, 46076, Note_on_c, 9, 36, 77
5, 46077, Note_on_c, 9, 40, 78
5, 46081, Note_on_c, 9, 69, 79
5, 46092, Note_on_c, 9, 36, 0
5, 46096, Note_on_c, 9, 69, 0
5, 46103, Note_on_c, 9, 40, 0
5, 46405, Note_on_c, 9, 40, 90
5, 46475, Note_on_c, 9, 40, 0
5, 46766, Note_on_c, 9, 40, 33
5, 46774, Note_on_c, 9, 40, 0
5, 46879, Note_on_c, 9, 40, 47
5, 46887, Note_on_c, 9, 40, 0
5, 47488, Note_on_c, 9, 76, 36
5, 47496, Note_on_c, 9, 76, 0
5, 47601, Note_on_c, 9, 40, 22
5, 47611, Note_on_c, 9, 40, 0
5, 47645, Note_on_c, 9, 76, 44
5, 47653, Note_on_c, 9, 76, 0
5, 47720, Note_on_c, 9, 76, 89
5, 47738, Note_on_c, 9, 76, 0
5, 47844, Note_on_c, 9, 40, 33
5, 47852, Note_on_c, 9, 40, 0
5, 48211, Note_on_c, 9, 40, 29
5, 48219, Note_on_c, 9, 40, 0
5, 48450, Note_on_c, 9, 40, 62
5, 48460, Note_on_c, 9, 40, 0
5, 48493, Note_on_c, 9, 40, 57
5, 48518, Note_on_c, 9, 40, 0
5, 48805, Note_on_c, 9, 40, 39
5, 48817, Note_on_c, 9, 40, 0
5, 48915, Note_on_c, 9, 64, 90
5, 48938, Note_on_c, 9, 64, 0
5, 48967, Note_on_c, 9, 64, 52
5, 49014, Note_on_c, 9, 64, 0
5, 49029, Note_on_c, 9, 40, 37
5, 49037, Note_on_c, 9, 40, 0
5, 49161, Note_on_c, 9, 63, 67
5, 49173, Note_on_c, 9, 63, 0
5, 49336, Note_on_c, 9, 64, 32
5, 49343, Note_on_c, 9, 64, 0
5, 49406, Note_on_c, 9, 64, 113
5, 49434, Note_on_c, 9, 64, 0
5, 49448, Note_on_c, 9, 64, 87
5, 49517, Note_on_c, 9, 40, 41
5, 49525, Note_on_c, 9, 40, 0
5, 49526, Note_on_c, 9, 64, 0
5, 49564, Note_on_c, 9, 63, 59
5, 49585, Note_on_c, 9, 63, 0
5, 49640, Note_on_c, 9, 63, 95
5, 49667, Note_on_c, 9, 63, 0
5, 49970, Note_on_c, 9, 64, 58
5, 49988, Note_on_c, 9, 64, 0
5, 50010, Note_on_c, 9, 64, 59
5, 50035, Note_on_c, 9, 64, 0
5, 50053, Note_on_c, 9, 64, 73
5, 50112, Note_on_c, 9, 64, 0
5, 50132, Note_on_c, 9, 62, 46
5, 50139, Note_on_c, 9, 62, 0
5, 50174, Note_on_c, 9, 63, 50
5, 50233, Note_on_c, 9, 63, 0
5, 50247, Note_on_c, 9, 63, 51
5, 50266, Note_on_c, 9, 63, 0
5, 50490, Note_on_c, 9, 64, 66
5, 50499, Note_on_c, 9, 64, 0
5, 50701, Note_on_c, 9, 62, 79
5, 50706, Note_on_c, 9, 63, 80
5, 50714, Note_on_c, 9, 62, 0
5, 50736, Note_on_c, 9, 63, 0
5, 50775, Note_on_c, 9, 62, 74
5, 50780, Note_on_c, 9, 63, 82
5, 50792, Note_on_c, 9, 62, 0
5, 50811, Note_on_c, 9, 63, 0
5, 50844, Note_on_c, 9, 62, 72
5, 50850, Note_on_c, 9, 63, 77
5, 50861, Note_on_c, 9, 62, 0
5, 50877, Note_on_c, 9, 63, 0
5, 50914, Note_on_c, 9, 62, 67
5, 50919, Note_on_c, 9, 63, 80
5, 50937, Note_on_c, 9, 62, 0
5, 50954, Note_on_c, 9, 63, 0
5, 50992, Note_on_c, 9, 62, 74
5, 50996, Note_on_c, 9, 63, 70
5, 51007, Note_on_c, 9, 62, 0
5, 51023, Note_on_c, 9, 63, 0
5, 51067, Note_on_c, 9, 62, 64
5, 51074, Note_on_c, 9, 63, 67
5, 51085, Note_on_c, 9, 62, 0
5, 51096, Note_on_c, 9, 63, 0
5, 51247, Note_on_c, 9, 64, 58
5, 51258, Note_on_c, 9, 64, 0
5, 51325, Note_on_c, 9, 64, 71
5, 51332, Note_on_c, 9, 64, 0
5, 51490, Note_on_c, 9, 62, 61
5, 51491, Note_on_c, 9, 63, 60
5, 51500, Note_on_c, 9, 62, 0
5, 51534, Note_on_c, 9, 63, 0
5, 51569, Note_on_c, 9, 62, 67
5, 51572, Note_on_c, 9, 63, 65
5, 51581, Note_on_c, 9, 62, 0
5, 51600, Note_on_c, 9, 63, 0
5, 51736, Note_on_c, 9, 64, 54
5, 51744, Note_on_c, 9, 64, 0
5, 51808, Note_on_c, 9, 64, 127
5, 51824, Note_on_c, 9, 64, 0
5, 52284, Note_on_c, 9, 64, 85
5, 52298, Note_on_c, 9, 64, 0
5, 52443, Note_on_c, 9, 62, 44
5, 52454, Note_on_c, 9, 63, 36
5, 52455, Note_on_c, 9, 62, 0
5, 52475, Note_on_c, 9, 63, 0
5, 52525, Note_on_c, 9, 62, 81
5, 52529, Note_on_c, 9, 63, 74
5, 52539, Note_on_c, 9, 62, 0
5, 52561, Note_on_c, 9, 63, 0
5, 52595, Note_on_c, 9, 62, 70
5, 52605, Note_on_c, 9, 63, 56
5, 52620, Note_on_c, 9, 62, 0
5, 52639, Note_on_c, 9, 63, 0
5, 52680, Note_on_c, 9, 62, 68
5, 52684, Note_on_c, 9, 63, 74
5, 52694, Note_on_c, 9, 62, 0
5, 52717, Note_on_c, 9, 63, 0
5, 52762, Note_on_c, 9, 64, 74
5, 52772, Note_on_c, 9, 64, 0
5, 52930, Note_on_c, 9, 64, 83
5, 52953, Note_on_c, 9, 64, 0
5, 53008, Note_on_c, 9, 64, 113
5, 53034, Note_on_c, 9, 64, 0
5, 53250, Note_on_c, 9, 64, 76
5, 53276, Note_on_c, 9, 64, 0
5, 53407, Note_on_c, 9, 64, 71
5, 53417, Note_on_c, 9, 64, 0
5, 53481, Note_on_c, 9, 64, 125
5, 53509, Note_on_c, 9, 64, 0
5, 53645, Note_on_c, 9, 63, 64
5, 53646, Note_on_c, 9, 62, 70
5, 53684, Note_on_c, 9, 62, 0
5, 53689, Note_on_c, 9, 63, 0
5, 53724, Note_on_c, 9, 63, 86
5, 53725, Note_on_c, 9, 62, 79
5, 53743, Note_on_c, 9, 62, 0
5, 53757, Note_on_c, 9, 63, 0
5, 53888, Note_on_c, 9, 64, 73
5, 53897, Note_on_c, 9, 64, 0
5, 53969, Note_on_c, 9, 64, 118
5, 53989, Note_on_c, 9, 64, 0
5, 54131, Note_on_c, 9, 63, 78
5, 54133, Note_on_c, 9, 62, 77
5, 54164, Note_on_c, 9, 62, 0
5, 54175, Note_on_c, 9, 63, 0
5, 54211, Note_on_c, 9, 63, 87
5, 54212, Note_on_c, 9, 62, 82
5, 54235, Note_on_c, 9, 62, 0
5, 54247, Note_on_c, 9, 63, 0
5, 54377, Note_on_c, 9, 64, 68
5, 54392, Note_on_c, 9, 64, 0
5, 54454, Note_on_c, 9, 64, 115
5, 54480, Note_on_c, 9, 64, 0
5, 54686, Note_on_c, 9, 63, 86
5, 54688, Note_on_c, 9, 62, 85
5, 54700, Note_on_c, 9, 62, 0
5, 54707, Note_on_c, 9, 63, 0
5, 54926, Note_on_c, 9, 64, 90
5, 54956, Note_on_c, 9, 64, 0
5, 54975, Note_on_c, 9, 64, 66
5, 55017, Note_on_c, 9, 64, 0
5, 55042, Note_on_c, 9, 64, 64
5, 55054, Note_on_c, 9, 64, 0
5, 55329, Note_on_c, 9, 64, 66
5, 55356, Note_on_c, 9, 64, 0
5, 55409, Note_on_c, 9, 64, 92
5, 55426, Note_on_c, 9, 64, 0
5, 55574, Note_on_c, 9, 62, 71
5, 55594, Note_on_c, 9, 62, 0
5, 55642, Note_on_c, 9, 62, 84
5, 55664, Note_on_c, 9, 62, 0
5, 55802, Note_on_c, 9, 64, 82
5, 55819, Note_on_c, 9, 64, 0
5, 55882, Note_on_c, 9, 64, 108
5, 55989, Note_on_c, 9, 64, 0
5, 56007, Note_on_c, 9, 64, 51
5, 56015, Note_on_c, 9, 64, 0
5, 56041, Note_on_c, 9, 63, 98
5, 56086, Note_on_c, 9, 63, 0
5, 56118, Note_on_c, 9, 63, 104
5, 56161, Note_on_c, 9, 63, 0
5, 56227, Note_on_c, 9, 64, 59
5, 56235, Note_on_c, 9, 64, 0
5, 56261, Note_on_c, 9, 64, 34
5, 56274, Note_on_c, 9, 64, 0
5, 56298, Note_on_c, 9, 64, 84
5, 56340, Note_on_c, 9, 64, 0
5, 56370, Note_on_c, 9, 64, 105
5, 56402, Note_on_c, 9, 64, 0
5, 56482, Note_on_c, 9, 64, 55
5, 56488, Note_on_c, 9, 64, 0
5, 56528, Note_on_c, 9, 63, 38
5, 56534, Note_on_c, 9, 63, 0
5, 56564, Note_on_c, 9, 63, 92
5, 56613, Note_on_c, 9, 63, 0
5, 56764, Note_on_c, 9, 64, 73
5, 56782, Note_on_c, 9, 64, 0
5, 56843, Note_on_c, 9, 64, 87
5, 56858, Note_on_c, 9, 64, 0
5, 56920, Note_on_c, 9, 62, 74
5, 56921, Note_on_c, 9, 63, 55
5, 56936, Note_on_c, 9, 62, 0
5, 56950, Note_on_c, 9, 63, 0
5, 57001, Note_on_c, 9, 63, 73
5, 57003, Note_on_c, 9, 62, 72
5, 57019, Note_on_c, 9, 62, 0
5, 57037, Note_on_c, 9, 63, 0
5, 57077, Note_on_c, 9, 64, 77
5, 57099, Note_on_c, 9, 64, 0
5, 57124, Note_on_c, 9, 64, 61
5, 57143, Note_on_c, 9, 64, 0
5, 57481, Note_on_c, 9, 63, 57
5, 57481, Note_on_c, 9, 62, 67
5, 57502, Note_on_c, 9, 62, 0
5, 57509, Note_on_c, 9, 63, 0
5, 57562, Note_on_c, 9, 63, 80
5, 57564, Note_on_c, 9, 62, 76
5, 57578, Note_on_c, 9, 62, 0
5, 57592, Note_on_c, 9, 63, 0
5, 57725, Note_on_c, 9, 64, 77
5, 57768, Note_on_c, 9, 64, 0
5, 57810, Note_on_c, 9, 64, 84
5, 57903, Note_on_c, 9, 64, 0
5, 57967, Note_on_c, 9, 63, 38
5, 57968, Note_on_c, 9, 62, 60
5, 57997, Note_on_c, 9, 62, 0
5, 58005, Note_on_c, 9, 63, 0
5, 58045, Note_on_c, 9, 63, 86
5, 58047, Note_on_c, 9, 62, 83
5, 58061, Note_on_c, 9, 62, 0
5, 58077, Note_on_c, 9, 63, 0
5, 58208, Note_on_c, 9, 64, 79
5, 58233, Note_on_c, 9, 64, 0
5, 58290, Note_on_c, 9, 64, 103
5, 58351, Note_on_c, 9, 64, 0
5, 58452, Note_on_c, 9, 62, 61
5, 58454, Note_on_c, 9, 63, 49
5, 58478, Note_on_c, 9, 62, 0
5, 58488, Note_on_c, 9, 63, 0
5, 58527, Note_on_c, 9, 63, 71
5, 58528, Note_on_c, 9, 62, 73
5, 58545, Note_on_c, 9, 62, 0
5, 58558, Note_on_c, 9, 63, 0
5, 58683, Note_on_c, 9, 64, 62
5, 58718, Note_on_c, 9, 64, 0
5, 58763, Note_on_c, 9, 64, 80
5, 58872, Note_on_c, 9, 64, 0
5, 58875, Note_on_c, 9, 40, 69
5, 58891, Note_on_c, 9, 40, 0
5, 58924, Note_on_c, 9, 62, 37
5, 58925, Note_on_c, 9, 63, 29
5, 58960, Note_on_c, 9, 62, 0
5, 58975, Note_on_c, 9, 63, 0
5, 59001, Note_on_c, 9, 63, 59
5, 59002, Note_on_c, 9, 62, 62
5, 59010, Note_on_c, 9, 62, 0
5, 59019, Note_on_c, 9, 63, 0
5, 59122, Note_on_c, 9, 47, 71
5, 59129, Note_on_c, 9, 47, 0
5, 59164, Note_on_c, 9, 64, 64
5, 59201, Note_on_c, 9, 64, 0
5, 59245, Note_on_c, 9, 64, 79
5, 59332, Note_on_c, 9, 64, 0
5, 59415, Note_on_c, 9, 63, 67
5, 59417, Note_on_c, 9, 62, 70
5, 59460, Note_on_c, 9, 62, 0
5, 59465, Note_on_c, 9, 63, 0
5, 59490, Note_on_c, 9, 63, 62
5, 59493, Note_on_c, 9, 62, 60
5, 59509, Note_on_c, 9, 62, 0
5, 59516, Note_on_c, 9, 63, 0
5, 59657, Note_on_c, 9, 64, 64
5, 59665, Note_on_c, 9, 64, 0
5, 59728, Note_on_c, 9, 64, 95
5, 59752, Note_on_c, 9, 64, 0
5, 59888, Note_on_c, 9, 63, 83
5, 59889, Note_on_c, 9, 62, 89
5, 59913, Note_on_c, 9, 62, 0
5, 59930, Note_on_c, 9, 63, 0
5, 60128, Note_on_c, 9, 64, 70
5, 60144, Note_on_c, 9, 64, 0
5, 60203, Note_on_c, 9, 62, 73
5, 60207, Note_on_c, 9, 63, 46
5, 60220, Note_on_c, 9, 62, 0
5, 60230, Note_on_c, 9, 63, 0
5, 60280, Note_on_c, 9, 62, 54
5, 60288, Note_on_c, 9, 63, 62
5, 60299, Note_on_c, 9, 62, 0
5, 60320, Note_on_c, 9, 63, 0
5, 60362, Note_on_c, 9, 62, 66
5, 60364, Note_on_c, 9, 63, 62
5, 60374, Note_on_c, 9, 62, 0
5, 60395, Note_on_c, 9, 63, 0
5, 60437, Note_on_c, 9, 62, 60
5, 60439, Note_on_c, 9, 63, 52
5, 60451, Note_on_c, 9, 62, 0
5, 60461, Note_on_c, 9, 63, 0
5, 60610, Note_on_c, 9, 64, 44
5, 60622, Note_on_c, 9, 64, 0
5, 61566, Note_on_c, 9, 53, 54
5, 61573, Note_on_c, 9, 53, 0
5, 61641, Note_on_c, 9, 53, 82
5, 61654, Note_on_c, 9, 53, 0
5, 61718, Note_on_c, 9, 53, 46
5, 61727, Note_on_c, 9, 53, 0
5, 61800, Note_on_c, 9, 53, 60
5, 61807, Note_on_c, 9, 53, 0
5, 61883, Note_on_c, 9, 53, 57
5, 61889, Note_on_c, 9, 53, 0
5, 62203, Note_on_c, 9, 53, 48
5, 62211, Note_on_c, 9, 53, 0
5, 62241, Note_on_c, 9, 53, 44
5, 62251, Note_on_c, 9, 53, 0
5, 62285, Note_on_c, 9, 53, 70
5, 62328, Note_on_c, 9, 53, 0
5, 62365, Note_on_c, 9, 53, 68
5, 62390, Note_on_c, 9, 53, 0
5, 62444, Note_on_c, 9, 53, 36
5, 62458, Note_on_c, 9, 53, 0
5, 62534, Note_on_c, 9, 53, 40
5, 62551, Note_on_c, 9, 53, 0
5, 62686, Note_on_c, 9, 53, 39
5, 62696, Note_on_c, 9, 53, 0
5, 62732, Note_on_c, 9, 39, 26
5, 62749, Note_on_c, 9, 39, 0
5, 62772, Note_on_c, 9, 53, 50
5, 62788, Note_on_c, 9, 53, 0
5, 62850, Note_on_c, 9, 53, 46
5, 62872, Note_on_c, 9, 53, 0
5, 62931, Note_on_c, 9, 53, 46
5, 62941, Note_on_c, 9, 53, 0
5, 62974, Note_on_c, 9, 40, 25
5, 62990, Note_on_c, 9, 40, 0
5, 63017, Note_on_c, 9, 53, 44
5, 63033, Note_on_c, 9, 53, 0
5, 63054, Note_on_c, 9, 40, 44
5, 63077, Note_on_c, 9, 40, 0
5, 63084, Note_on_c, 9, 53, 45
5, 63112, Note_on_c, 9, 53, 0
5, 63130, Note_on_c, 9, 40, 22
5, 63142, Note_on_c, 9, 40, 0
5, 63167, Note_on_c, 9, 53, 39
5, 63184, Note_on_c, 9, 53, 0
5, 63211, Note_on_c, 9, 40, 30
5, 63225, Note_on_c, 9, 40, 0
5, 63254, Note_on_c, 9, 53, 24
5, 63264, Note_on_c, 9, 53, 0
5, 63326, Note_on_c, 9, 53, 40
5, 63334, Note_on_c, 9, 53, 0
5, 63334, End_track
6, 0, Start_track
6, 0, Title_t, ""
6, 0, Program_c, 0, 0
6, 0, End_track
0, 0, End_of_file
