0, 0, Header, 1, 5, 120
1, 0, Start_track
1, 0, Title_t, "Why Did I Choose You"
1, 0, Copyright_t, "Copyright © 1998 by Doug McKenzie"
1, 0, Text_t, "Doug McKenzie\012"
1, 0, Text_t, "dougmck@pipeline.com.au\012"
1, 0, Time_signature, 4, 2, 24, 8
1, 0, Key_signature, -1, "major"
1, 0, Tempo, 750000
1, 0, Marker_t, "Why Did I Choose You  by  Michael Leonard"
1, 0, End_track
2, 0, Start_track
2, 0, MIDI_port, 0
2, 0, Title_t, "dougmck2pipeline.com.au"
2, 0, Program_c, 0, 0
2, 215, Control_c, 0, 64, 127
2, 348, Note_on_c, 0, 69, 62
2, 351, Note_on_c, 0, 62, 52
2, 351, Note_on_c, 0, 64, 58
2, 353, Note_on_c, 0, 57, 44
2, 354, Control_c, 0, 64, 0
2, 355, Note_on_c, 0, 41, 36
2, 387, Control_c, 0, 64, 127
2, 400, Note_on_c, 0, 57, 0
2, 428, Note_on_c, 0, 62, 0
2, 433, Note_on_c, 0, 64, 0
2, 462, Note_on_c, 0, 69, 0
2, 540, Note_on_c, 0, 41, 0
2, 570, Note_on_c, 0, 67, 53
2, 593, Note_on_c, 0, 67, 0
2, 623, Note_on_c, 0, 69, 59
2, 624, Note_on_c, 0, 47, 42
2, 625, Control_c, 0, 64, 0
2, 625, Note_on_c, 0, 65, 63
2, 627, Note_on_c, 0, 57, 39
2, 649, Control_c, 0, 64, 127
2, 671, Note_on_c, 0, 72, 74
2, 678, Note_on_c, 0, 69, 0
2, 682, Note_on_c, 0, 65, 0
2, 690, Note_on_c, 0, 72, 0
2, 692, Note_on_c, 0, 47, 0
2, 693, Note_on_c, 0, 57, 0
2, 732, Note_on_c, 0, 74, 58
2, 733, Note_on_c, 0, 65, 51
2, 733, Note_on_c, 0, 69, 53
2, 734, Control_c, 0, 64, 0
2, 734, Note_on_c, 0, 46, 35
2, 734, Note_on_c, 0, 62, 48
2, 755, Control_c, 0, 64, 127
2, 758, Note_on_c, 0, 62, 0
2, 765, Note_on_c, 0, 65, 0
2, 770, Note_on_c, 0, 69, 0
2, 774, Note_on_c, 0, 74, 0
2, 786, Note_on_c, 0, 57, 49
2, 789, Note_on_c, 0, 46, 0
2, 796, Note_on_c, 0, 57, 0
2, 858, Note_on_c, 0, 60, 22
2, 862, Note_on_c, 0, 65, 13
2, 873, Note_on_c, 0, 62, 1
2, 911, Note_on_c, 0, 62, 0
2, 929, Note_on_c, 0, 65, 0
2, 1005, Note_on_c, 0, 69, 36
2, 1008, Note_on_c, 0, 74, 30
2, 1010, Note_on_c, 0, 62, 17
2, 1011, Note_on_c, 0, 65, 24
2, 1124, Note_on_c, 0, 69, 0
2, 1146, Note_on_c, 0, 65, 0
2, 1154, Note_on_c, 0, 74, 0
2, 1158, Note_on_c, 0, 62, 0
2, 1159, Note_on_c, 0, 60, 0
2, 1209, Note_on_c, 0, 67, 36
2, 1254, Note_on_c, 0, 67, 0
2, 1308, Note_on_c, 0, 74, 81
2, 1312, Note_on_c, 0, 67, 72
2, 1313, Note_on_c, 0, 63, 70
2, 1314, Note_on_c, 0, 69, 66
2, 1315, Note_on_c, 0, 62, 54
2, 1319, Control_c, 0, 64, 0
2, 1335, Control_c, 0, 64, 127
2, 1354, Note_on_c, 0, 74, 0
2, 1366, Note_on_c, 0, 69, 0
2, 1370, Note_on_c, 0, 75, 77
2, 1374, Note_on_c, 0, 50, 36
2, 1386, Note_on_c, 0, 67, 0
2, 1394, Note_on_c, 0, 75, 0
2, 1398, Note_on_c, 0, 62, 0
2, 1400, Note_on_c, 0, 63, 0
2, 1436, Note_on_c, 0, 74, 50
2, 1437, Control_c, 0, 64, 0
2, 1437, Note_on_c, 0, 66, 36
2, 1438, Note_on_c, 0, 64, 42
2, 1439, Note_on_c, 0, 60, 52
2, 1440, Note_on_c, 0, 69, 41
2, 1460, Control_c, 0, 64, 127
2, 1506, Note_on_c, 0, 50, 0
2, 1575, Note_on_c, 0, 69, 0
2, 1589, Note_on_c, 0, 74, 0
2, 1603, Note_on_c, 0, 60, 0
2, 1608, Note_on_c, 0, 64, 0
2, 1613, Note_on_c, 0, 66, 0
2, 1617, Note_on_c, 0, 69, 42
2, 1635, Note_on_c, 0, 69, 0
2, 1686, Note_on_c, 0, 70, 42
2, 1688, Control_c, 0, 64, 0
2, 1688, Note_on_c, 0, 67, 35
2, 1689, Note_on_c, 0, 63, 44
2, 1690, Note_on_c, 0, 56, 30
2, 1691, Note_on_c, 0, 59, 28
2, 1692, Note_on_c, 0, 49, 33
2, 1710, Control_c, 0, 64, 127
2, 1713, Note_on_c, 0, 59, 0
2, 1714, Note_on_c, 0, 67, 0
2, 1719, Note_on_c, 0, 63, 0
2, 1724, Note_on_c, 0, 70, 0
2, 1764, Note_on_c, 0, 82, 57
2, 1767, Note_on_c, 0, 70, 31
2, 1775, Note_on_c, 0, 70, 0
2, 1783, Note_on_c, 0, 82, 0
2, 1842, Note_on_c, 0, 92, 47
2, 1844, Note_on_c, 0, 80, 31
2, 1945, Note_on_c, 0, 80, 0
2, 1948, Note_on_c, 0, 92, 0
2, 1975, Note_on_c, 0, 94, 47
2, 1978, Note_on_c, 0, 56, 0
2, 1978, Note_on_c, 0, 82, 28
2, 1985, Note_on_c, 0, 49, 0
2, 2026, Note_on_c, 0, 94, 0
2, 2031, Note_on_c, 0, 82, 0
2, 2096, Note_on_c, 0, 96, 43
2, 2099, Note_on_c, 0, 36, 30
2, 2099, Note_on_c, 0, 24, 29
2, 2100, Note_on_c, 0, 84, 32
2, 2103, Control_c, 0, 64, 0
2, 2125, Control_c, 0, 64, 127
2, 2145, Note_on_c, 0, 96, 0
2, 2158, Note_on_c, 0, 84, 0
2, 2159, Note_on_c, 0, 36, 0
2, 2160, Note_on_c, 0, 24, 0
2, 2293, Note_on_c, 0, 84, 42
2, 2294, Note_on_c, 0, 74, 26
2, 2295, Note_on_c, 0, 79, 43
2, 2296, Note_on_c, 0, 70, 34
2, 2381, Note_on_c, 0, 70, 0
2, 2384, Note_on_c, 0, 84, 0
2, 2396, Note_on_c, 0, 79, 0
2, 2412, Note_on_c, 0, 74, 0
2, 2570, Note_on_c, 0, 60, 49
2, 2570, Note_on_c, 0, 55, 46
2, 2571, Note_on_c, 0, 57, 40
2, 2571, Note_on_c, 0, 41, 45
2, 2576, Control_c, 0, 64, 0
2, 2606, Control_c, 0, 64, 127
2, 2611, Note_on_c, 0, 55, 0
2, 2627, Note_on_c, 0, 57, 0
2, 2646, Note_on_c, 0, 60, 0
2, 2677, Note_on_c, 0, 48, 50
2, 2761, Note_on_c, 0, 57, 61
2, 2794, Note_on_c, 0, 48, 0
2, 2850, Note_on_c, 0, 72, 83
2, 2852, Note_on_c, 0, 65, 85
2, 2855, Note_on_c, 0, 48, 54
2, 2894, Note_on_c, 0, 65, 0
2, 2894, Note_on_c, 0, 72, 0
2, 2895, Note_on_c, 0, 57, 0
2, 2899, Note_on_c, 0, 41, 0
2, 2922, Control_c, 0, 64, 0
2, 2923, Note_on_c, 0, 65, 85
2, 2923, Note_on_c, 0, 72, 81
2, 2926, Note_on_c, 0, 41, 55
2, 2935, Note_on_c, 0, 48, 0
2, 2937, Control_c, 0, 64, 127
2, 2946, Note_on_c, 0, 65, 0
2, 2951, Note_on_c, 0, 72, 0
2, 2991, Note_on_c, 0, 48, 66
2, 2991, Note_on_c, 0, 81, 89
2, 2992, Note_on_c, 0, 72, 81
2, 3031, Note_on_c, 0, 72, 0
2, 3037, Note_on_c, 0, 81, 0
2, 3065, Note_on_c, 0, 57, 55
2, 3066, Note_on_c, 0, 81, 83
2, 3068, Note_on_c, 0, 72, 71
2, 3095, Note_on_c, 0, 48, 0
2, 3120, Note_on_c, 0, 72, 0
2, 3124, Note_on_c, 0, 81, 0
2, 3151, Note_on_c, 0, 48, 43
2, 3151, Note_on_c, 0, 81, 61
2, 3152, Note_on_c, 0, 72, 46
2, 3173, Note_on_c, 0, 57, 0
2, 3183, Note_on_c, 0, 41, 0
2, 3184, Note_on_c, 0, 72, 0
2, 3195, Note_on_c, 0, 81, 0
2, 3231, Note_on_c, 0, 81, 73
2, 3232, Note_on_c, 0, 41, 60
2, 3233, Note_on_c, 0, 48, 0
2, 3233, Note_on_c, 0, 71, 48
2, 3233, Note_on_c, 0, 74, 56
2, 3236, Control_c, 0, 64, 0
2, 3258, Control_c, 0, 64, 127
2, 3302, Note_on_c, 0, 50, 73
2, 3330, Note_on_c, 0, 41, 0
2, 3355, Note_on_c, 0, 71, 0
2, 3357, Note_on_c, 0, 74, 0
2, 3367, Note_on_c, 0, 81, 0
2, 3372, Note_on_c, 0, 79, 66
2, 3373, Note_on_c, 0, 74, 50
2, 3374, Note_on_c, 0, 71, 55
2, 3377, Note_on_c, 0, 50, 0
2, 3377, Note_on_c, 0, 59, 71
2, 3445, Note_on_c, 0, 62, 63
2, 3450, Note_on_c, 0, 59, 0
2, 3470, Note_on_c, 0, 71, 0
2, 3476, Note_on_c, 0, 74, 0
2, 3528, Note_on_c, 0, 71, 29
2, 3529, Note_on_c, 0, 74, 41
2, 3531, Note_on_c, 0, 67, 42
2, 3584, Note_on_c, 0, 62, 0
2, 3598, Note_on_c, 0, 74, 0
2, 3600, Note_on_c, 0, 71, 0
2, 3614, Note_on_c, 0, 79, 0
2, 3616, Note_on_c, 0, 81, 68
2, 3617, Note_on_c, 0, 74, 48
2, 3617, Note_on_c, 0, 71, 38
2, 3622, Note_on_c, 0, 62, 35
2, 3640, Note_on_c, 0, 67, 0
2, 3680, Note_on_c, 0, 81, 0
2, 3722, Note_on_c, 0, 71, 0
2, 3744, Note_on_c, 0, 74, 0
2, 3751, Note_on_c, 0, 55, 54
2, 3752, Note_on_c, 0, 79, 55
2, 3752, Note_on_c, 0, 74, 35
2, 3753, Note_on_c, 0, 71, 41
2, 3855, Note_on_c, 0, 55, 0
2, 3892, Note_on_c, 0, 71, 0
2, 3901, Note_on_c, 0, 74, 0
2, 3903, Note_on_c, 0, 79, 0
2, 3908, Note_on_c, 0, 71, 40
2, 3909, Note_on_c, 0, 74, 29
2, 3909, Note_on_c, 0, 77, 56
2, 3911, Note_on_c, 0, 53, 38
2, 3933, Note_on_c, 0, 62, 0
2, 3945, Note_on_c, 0, 74, 0
2, 3946, Note_on_c, 0, 71, 0
2, 3949, Note_on_c, 0, 53, 0
2, 3959, Note_on_c, 0, 77, 0
2, 3994, Note_on_c, 0, 79, 60
2, 3995, Note_on_c, 0, 71, 55
2, 3996, Note_on_c, 0, 40, 37
2, 3996, Note_on_c, 0, 67, 43
2, 4001, Control_c, 0, 64, 0
2, 4022, Control_c, 0, 64, 127
2, 4035, Note_on_c, 0, 79, 0
2, 4041, Note_on_c, 0, 71, 0
2, 4043, Note_on_c, 0, 67, 0
2, 4048, Note_on_c, 0, 47, 33
2, 4085, Note_on_c, 0, 47, 0
2, 4085, Note_on_c, 0, 40, 0
2, 4088, Note_on_c, 0, 62, 50
2, 4089, Note_on_c, 0, 55, 54
2, 4090, Note_on_c, 0, 59, 51
2, 4093, Note_on_c, 0, 52, 27
2, 4098, Note_on_c, 0, 52, 0
2, 4102, Note_on_c, 0, 55, 0
2, 4111, Note_on_c, 0, 59, 0
2, 4118, Note_on_c, 0, 62, 0
2, 4137, Note_on_c, 0, 59, 41
2, 4139, Note_on_c, 0, 57, 38
2, 4144, Note_on_c, 0, 57, 0
2, 4182, Note_on_c, 0, 74, 79
2, 4183, Note_on_c, 0, 67, 80
2, 4187, Note_on_c, 0, 62, 63
2, 4199, Note_on_c, 0, 67, 0
2, 4199, Note_on_c, 0, 59, 0
2, 4205, Note_on_c, 0, 74, 0
2, 4237, Note_on_c, 0, 81, 78
2, 4239, Note_on_c, 0, 74, 73
2, 4241, Note_on_c, 0, 59, 51
2, 4242, Note_on_c, 0, 62, 0
2, 4263, Note_on_c, 0, 74, 0
2, 4265, Note_on_c, 0, 81, 0
2, 4293, Note_on_c, 0, 79, 55
2, 4293, Note_on_c, 0, 52, 53
2, 4295, Control_c, 0, 64, 0
2, 4295, Note_on_c, 0, 74, 58
2, 4297, Note_on_c, 0, 62, 40
2, 4298, Note_on_c, 0, 59, 0
2, 4298, Note_on_c, 0, 67, 47
2, 4311, Control_c, 0, 64, 127
2, 4313, Note_on_c, 0, 74, 0
2, 4313, Note_on_c, 0, 79, 0
2, 4322, Note_on_c, 0, 67, 0
2, 4344, Note_on_c, 0, 62, 0
2, 4354, Note_on_c, 0, 74, 50
2, 4354, Note_on_c, 0, 59, 40
2, 4356, Note_on_c, 0, 71, 46
2, 4359, Note_on_c, 0, 67, 27
2, 4372, Note_on_c, 0, 59, 0
2, 4374, Note_on_c, 0, 71, 0
2, 4376, Note_on_c, 0, 74, 0
2, 4379, Note_on_c, 0, 67, 0
2, 4382, Note_on_c, 0, 52, 0
2, 4541, Note_on_c, 0, 63, 44
2, 4543, Note_on_c, 0, 55, 29
2, 4543, Note_on_c, 0, 58, 42
2, 4544, Note_on_c, 0, 61, 46
2, 4544, Note_on_c, 0, 45, 32
2, 4545, Note_on_c, 0, 52, 33
2, 4548, Control_c, 0, 64, 0
2, 4569, Control_c, 0, 64, 127
2, 4585, Note_on_c, 0, 55, 0
2, 4598, Note_on_c, 0, 63, 0
2, 4598, Note_on_c, 0, 58, 0
2, 4605, Note_on_c, 0, 61, 0
2, 4613, Note_on_c, 0, 64, 54
2, 4614, Note_on_c, 0, 58, 46
2, 4614, Note_on_c, 0, 61, 20
2, 4617, Note_on_c, 0, 52, 0
2, 4618, Note_on_c, 0, 55, 35
2, 4620, Control_c, 0, 64, 0
2, 4650, Control_c, 0, 64, 127
2, 4674, Note_on_c, 0, 64, 0
2, 4677, Note_on_c, 0, 61, 0
2, 4678, Note_on_c, 0, 58, 0
2, 4700, Note_on_c, 0, 55, 0
2, 4760, Note_on_c, 0, 45, 0
2, 4781, Note_on_c, 0, 69, 90
2, 4803, Note_on_c, 0, 69, 0
2, 4878, Note_on_c, 0, 55, 67
2, 4884, Note_on_c, 0, 69, 64
2, 4887, Note_on_c, 0, 72, 58
2, 4888, Note_on_c, 0, 61, 53
2, 4896, Note_on_c, 0, 77, 47
2, 4897, Note_on_c, 0, 66, 59
2, 4901, Note_on_c, 0, 81, 80
2, 4905, Control_c, 0, 64, 0
2, 4931, Control_c, 0, 64, 127
2, 5065, Note_on_c, 0, 66, 0
2, 5074, Note_on_c, 0, 77, 0
2, 5074, Note_on_c, 0, 81, 0
2, 5079, Note_on_c, 0, 72, 0
2, 5081, Note_on_c, 0, 69, 0
2, 5128, Note_on_c, 0, 61, 0
2, 5130, Note_on_c, 0, 55, 0
2, 5137, Note_on_c, 0, 77, 66
2, 5166, Note_on_c, 0, 77, 0
2, 5218, Note_on_c, 0, 76, 60
2, 5220, Control_c, 0, 64, 0
2, 5220, Note_on_c, 0, 69, 53
2, 5221, Note_on_c, 0, 65, 35
2, 5224, Note_on_c, 0, 50, 34
2, 5225, Note_on_c, 0, 60, 24
2, 5239, Control_c, 0, 64, 127
2, 5248, Note_on_c, 0, 65, 0
2, 5251, Note_on_c, 0, 69, 0
2, 5254, Note_on_c, 0, 76, 0
2, 5256, Note_on_c, 0, 60, 0
2, 5287, Note_on_c, 0, 79, 66
2, 5289, Note_on_c, 0, 73, 63
2, 5290, Note_on_c, 0, 69, 40
2, 5290, Note_on_c, 0, 61, 53
2, 5293, Control_c, 0, 64, 0
2, 5303, Control_c, 0, 64, 127
2, 5331, Note_on_c, 0, 79, 0
2, 5336, Note_on_c, 0, 69, 0
2, 5341, Note_on_c, 0, 61, 0
2, 5346, Note_on_c, 0, 73, 0
2, 5357, Note_on_c, 0, 77, 53
2, 5361, Note_on_c, 0, 69, 24
2, 5361, Note_on_c, 0, 72, 50
2, 5362, Control_c, 0, 64, 0
2, 5363, Note_on_c, 0, 60, 39
2, 5380, Control_c, 0, 64, 127
2, 5391, Note_on_c, 0, 72, 0
2, 5394, Note_on_c, 0, 77, 0
2, 5398, Note_on_c, 0, 69, 0
2, 5425, Note_on_c, 0, 60, 0
2, 5432, Note_on_c, 0, 69, 57
2, 5433, Note_on_c, 0, 65, 44
2, 5434, Note_on_c, 0, 57, 30
2, 5459, Note_on_c, 0, 69, 0
2, 5460, Note_on_c, 0, 57, 0
2, 5466, Note_on_c, 0, 65, 0
2, 5470, Note_on_c, 0, 50, 0
2, 5532, Note_on_c, 0, 60, 57
2, 5532, Note_on_c, 0, 43, 37
2, 5533, Note_on_c, 0, 53, 29
2, 5534, Note_on_c, 0, 57, 38
2, 5537, Note_on_c, 0, 50, 24
2, 5544, Control_c, 0, 64, 0
2, 5579, Control_c, 0, 64, 127
2, 5616, Note_on_c, 0, 53, 0
2, 5620, Note_on_c, 0, 57, 0
2, 5627, Note_on_c, 0, 60, 0
2, 5647, Note_on_c, 0, 57, 34
2, 5673, Note_on_c, 0, 43, 0
2, 5689, Note_on_c, 0, 57, 0
2, 5696, Note_on_c, 0, 50, 0
2, 5765, Note_on_c, 0, 61, 38
2, 5766, Note_on_c, 0, 55, 29
2, 5766, Note_on_c, 0, 59, 46
2, 5768, Note_on_c, 0, 43, 31
2, 5769, Note_on_c, 0, 53, 31
2, 5776, Control_c, 0, 64, 0
2, 5829, Control_c, 0, 64, 127
2, 5917, Note_on_c, 0, 55, 0
2, 5922, Note_on_c, 0, 61, 0
2, 5939, Note_on_c, 0, 59, 0
2, 5991, Note_on_c, 0, 67, 68
2, 5992, Note_on_c, 0, 55, 75
2, 6009, Note_on_c, 0, 55, 0
2, 6018, Note_on_c, 0, 67, 0
2, 6024, Note_on_c, 0, 53, 0
2, 6125, Note_on_c, 0, 69, 71
2, 6128, Note_on_c, 0, 61, 58
2, 6129, Note_on_c, 0, 59, 64
2, 6129, Note_on_c, 0, 64, 62
2, 6131, Note_on_c, 0, 53, 43
2, 6133, Control_c, 0, 64, 0
2, 6158, Control_c, 0, 64, 127
2, 6260, Note_on_c, 0, 69, 0
2, 6269, Note_on_c, 0, 64, 0
2, 6269, Note_on_c, 0, 53, 0
2, 6271, Note_on_c, 0, 59, 0
2, 6275, Note_on_c, 0, 61, 0
2, 6317, Control_c, 0, 64, 0
2, 6320, Note_on_c, 0, 67, 44
2, 6321, Note_on_c, 0, 64, 44
2, 6321, Note_on_c, 0, 59, 43
2, 6321, Note_on_c, 0, 61, 49
2, 6322, Note_on_c, 0, 53, 37
2, 6339, Control_c, 0, 64, 127
2, 6356, Note_on_c, 0, 43, 0
2, 6363, Note_on_c, 0, 53, 0
2, 6372, Note_on_c, 0, 64, 0
2, 6379, Note_on_c, 0, 59, 0
2, 6381, Note_on_c, 0, 61, 0
2, 6399, Note_on_c, 0, 67, 0
2, 6430, Note_on_c, 0, 36, 40
2, 6430, Note_on_c, 0, 62, 49
2, 6431, Note_on_c, 0, 57, 34
2, 6431, Control_c, 0, 64, 0
2, 6432, Note_on_c, 0, 59, 46
2, 6434, Note_on_c, 0, 52, 36
2, 6458, Control_c, 0, 64, 127
2, 6459, Note_on_c, 0, 57, 0
2, 6467, Note_on_c, 0, 59, 0
2, 6470, Note_on_c, 0, 62, 0
2, 6477, Note_on_c, 0, 52, 0
2, 6477, Note_on_c, 0, 43, 40
2, 6505, Note_on_c, 0, 36, 0
2, 6513, Note_on_c, 0, 43, 0
2, 6523, Note_on_c, 0, 74, 58
2, 6523, Note_on_c, 0, 52, 25
2, 6524, Note_on_c, 0, 71, 49
2, 6525, Note_on_c, 0, 67, 44
2, 6525, Note_on_c, 0, 64, 48
2, 6528, Note_on_c, 0, 52, 0
2, 6573, Note_on_c, 0, 67, 0
2, 6573, Note_on_c, 0, 55, 60
2, 6577, Note_on_c, 0, 64, 0
2, 6577, Note_on_c, 0, 71, 0
2, 6615, Note_on_c, 0, 74, 0
2, 6661, Note_on_c, 0, 55, 0
2, 6710, Note_on_c, 0, 66, 76
2, 6711, Note_on_c, 0, 74, 78
2, 6711, Note_on_c, 0, 63, 68
2, 6712, Note_on_c, 0, 54, 69
2, 6713, Note_on_c, 0, 48, 66
2, 6716, Control_c, 0, 64, 0
2, 6746, Control_c, 0, 64, 127
2, 6757, Note_on_c, 0, 55, 85
2, 6764, Note_on_c, 0, 54, 0
2, 6769, Note_on_c, 0, 63, 0
2, 6769, Note_on_c, 0, 66, 0
2, 6771, Note_on_c, 0, 74, 0
2, 6792, Note_on_c, 0, 56, 83
2, 6798, Note_on_c, 0, 55, 0
2, 6829, Note_on_c, 0, 76, 68
2, 6829, Note_on_c, 0, 67, 59
2, 6830, Note_on_c, 0, 69, 65
2, 6830, Note_on_c, 0, 72, 60
2, 6832, Control_c, 0, 64, 0
2, 6833, Note_on_c, 0, 56, 0
2, 6833, Note_on_c, 0, 57, 69
2, 6860, Control_c, 0, 64, 127
2, 6904, Note_on_c, 0, 76, 0
2, 6925, Note_on_c, 0, 69, 0
2, 6925, Note_on_c, 0, 67, 0
2, 6925, Note_on_c, 0, 72, 0
2, 6933, Note_on_c, 0, 48, 0
2, 6949, Note_on_c, 0, 57, 0
2, 6965, Note_on_c, 0, 76, 57
2, 6966, Note_on_c, 0, 47, 53
2, 6966, Note_on_c, 0, 62, 42
2, 6967, Note_on_c, 0, 69, 54
2, 6973, Control_c, 0, 64, 0
2, 7001, Control_c, 0, 64, 127
2, 7007, Note_on_c, 0, 47, 0
2, 7008, Note_on_c, 0, 62, 0
2, 7011, Note_on_c, 0, 57, 54
2, 7021, Note_on_c, 0, 57, 0
2, 7032, Note_on_c, 0, 69, 0
2, 7052, Note_on_c, 0, 62, 68
2, 7056, Note_on_c, 0, 76, 0
2, 7080, Note_on_c, 0, 62, 0
2, 7094, Note_on_c, 0, 67, 69
2, 7112, Note_on_c, 0, 67, 0
2, 7160, Note_on_c, 0, 52, 80
2, 7167, Control_c, 0, 64, 0
2, 7177, Control_c, 0, 64, 127
2, 7180, Note_on_c, 0, 52, 0
2, 7220, Note_on_c, 0, 77, 83
2, 7221, Note_on_c, 0, 70, 92
2, 7221, Note_on_c, 0, 74, 79
2, 7222, Note_on_c, 0, 62, 68
2, 7222, Note_on_c, 0, 56, 68
2, 7222, Note_on_c, 0, 67, 74
2, 7226, Control_c, 0, 64, 0
2, 7245, Control_c, 0, 64, 127
2, 7253, Note_on_c, 0, 74, 0
2, 7256, Note_on_c, 0, 67, 0
2, 7261, Note_on_c, 0, 77, 0
2, 7262, Note_on_c, 0, 62, 0
2, 7265, Note_on_c, 0, 56, 0
2, 7266, Note_on_c, 0, 70, 0
2, 7295, Note_on_c, 0, 76, 74
2, 7297, Note_on_c, 0, 67, 60
2, 7298, Note_on_c, 0, 72, 61
2, 7299, Note_on_c, 0, 56, 52
2, 7299, Note_on_c, 0, 62, 53
2, 7301, Control_c, 0, 64, 0
2, 7318, Control_c, 0, 64, 127
2, 7323, Note_on_c, 0, 62, 0
2, 7323, Note_on_c, 0, 72, 0
2, 7326, Note_on_c, 0, 76, 0
2, 7329, Note_on_c, 0, 67, 0
2, 7330, Note_on_c, 0, 56, 0
2, 7358, Note_on_c, 0, 71, 57
2, 7358, Note_on_c, 0, 68, 56
2, 7358, Note_on_c, 0, 64, 56
2, 7359, Note_on_c, 0, 56, 52
2, 7360, Control_c, 0, 64, 0
2, 7361, Note_on_c, 0, 46, 37
2, 7377, Control_c, 0, 64, 127
2, 7387, Note_on_c, 0, 64, 0
2, 7392, Note_on_c, 0, 68, 0
2, 7395, Note_on_c, 0, 56, 0
2, 7398, Note_on_c, 0, 71, 0
2, 7405, Note_on_c, 0, 46, 0
2, 7488, Note_on_c, 0, 45, 48
2, 7503, Note_on_c, 0, 60, 60
2, 7504, Note_on_c, 0, 52, 34
2, 7506, Note_on_c, 0, 67, 49
2, 7514, Note_on_c, 0, 74, 70
2, 7514, Note_on_c, 0, 59, 57
2, 7519, Control_c, 0, 64, 0
2, 7542, Control_c, 0, 64, 127
2, 7566, Note_on_c, 0, 59, 0
2, 7594, Note_on_c, 0, 58, 65
2, 7596, Control_c, 0, 64, 0
2, 7608, Control_c, 0, 64, 127
2, 7623, Note_on_c, 0, 74, 0
2, 7632, Note_on_c, 0, 60, 0
2, 7635, Note_on_c, 0, 67, 0
2, 7639, Note_on_c, 0, 58, 0
2, 7673, Note_on_c, 0, 72, 48
2, 7674, Note_on_c, 0, 67, 44
2, 7675, Note_on_c, 0, 60, 44
2, 7676, Note_on_c, 0, 57, 45
2, 7676, Control_c, 0, 64, 0
2, 7703, Control_c, 0, 64, 127
2, 7730, Note_on_c, 0, 45, 0
2, 7799, Note_on_c, 0, 45, 38
2, 7828, Note_on_c, 0, 57, 0
2, 7830, Note_on_c, 0, 52, 0
2, 7839, Note_on_c, 0, 45, 0
2, 7893, Control_c, 0, 64, 0
2, 7895, Note_on_c, 0, 27, 59
2, 7904, Note_on_c, 0, 27, 0
2, 7910, Control_c, 0, 64, 127
2, 7921, Note_on_c, 0, 60, 0
2, 7940, Note_on_c, 0, 67, 0
2, 7979, Note_on_c, 0, 72, 0
2, 8002, Note_on_c, 0, 65, 48
2, 8004, Note_on_c, 0, 61, 32
2, 8006, Note_on_c, 0, 60, 24
2, 8008, Note_on_c, 0, 55, 34
2, 8103, Note_on_c, 0, 65, 0
2, 8136, Note_on_c, 0, 72, 64
2, 8143, Note_on_c, 0, 60, 0
2, 8147, Note_on_c, 0, 61, 0
2, 8152, Note_on_c, 0, 55, 0
2, 8165, Note_on_c, 0, 71, 64
2, 8183, Note_on_c, 0, 72, 0
2, 8193, Note_on_c, 0, 71, 0
2, 8207, Note_on_c, 0, 69, 62
2, 8207, Note_on_c, 0, 65, 51
2, 8210, Note_on_c, 0, 50, 44
2, 8212, Control_c, 0, 64, 0
2, 8237, Control_c, 0, 64, 127
2, 8258, Note_on_c, 0, 65, 0
2, 8259, Note_on_c, 0, 57, 26
2, 8266, Note_on_c, 0, 69, 0
2, 8274, Note_on_c, 0, 57, 0
2, 8275, Note_on_c, 0, 50, 0
2, 8322, Note_on_c, 0, 71, 48
2, 8322, Note_on_c, 0, 68, 43
2, 8323, Note_on_c, 0, 63, 47
2, 8325, Note_on_c, 0, 59, 33
2, 8325, Note_on_c, 0, 49, 33
2, 8328, Control_c, 0, 64, 0
2, 8359, Control_c, 0, 64, 127
2, 8366, Note_on_c, 0, 59, 0
2, 8387, Note_on_c, 0, 56, 37
2, 8400, Note_on_c, 0, 71, 0
2, 8401, Note_on_c, 0, 63, 0
2, 8405, Note_on_c, 0, 68, 0
2, 8412, Note_on_c, 0, 56, 0
2, 8416, Note_on_c, 0, 49, 0
2, 8454, Control_c, 0, 64, 0
2, 8454, Note_on_c, 0, 72, 52
2, 8456, Note_on_c, 0, 65, 44
2, 8458, Note_on_c, 0, 62, 49
2, 8458, Note_on_c, 0, 58, 30
2, 8459, Note_on_c, 0, 48, 33
2, 8475, Control_c, 0, 64, 127
2, 8482, Note_on_c, 0, 62, 0
2, 8484, Note_on_c, 0, 65, 0
2, 8490, Note_on_c, 0, 72, 0
2, 8518, Note_on_c, 0, 58, 0
2, 8521, Note_on_c, 0, 84, 59
2, 8544, Note_on_c, 0, 84, 0
2, 8584, Note_on_c, 0, 84, 57
2, 8589, Note_on_c, 0, 60, 37
2, 8591, Note_on_c, 0, 72, 46
2, 8615, Note_on_c, 0, 48, 0
2, 8637, Note_on_c, 0, 84, 0
2, 8643, Note_on_c, 0, 72, 0
2, 8652, Note_on_c, 0, 84, 51
2, 8653, Note_on_c, 0, 48, 44
2, 8665, Note_on_c, 0, 60, 0
2, 8672, Note_on_c, 0, 84, 0
2, 8693, Note_on_c, 0, 48, 0
2, 8720, Note_on_c, 0, 84, 69
2, 8722, Note_on_c, 0, 57, 47
2, 8725, Note_on_c, 0, 72, 53
2, 8725, Note_on_c, 0, 48, 50
2, 8735, Control_c, 0, 64, 0
2, 8747, Control_c, 0, 64, 127
2, 8780, Note_on_c, 0, 84, 0
2, 8797, Note_on_c, 0, 84, 58
2, 8829, Note_on_c, 0, 72, 0
2, 8832, Note_on_c, 0, 84, 0
2, 8840, Note_on_c, 0, 57, 0
2, 8857, Note_on_c, 0, 54, 47
2, 8857, Note_on_c, 0, 84, 63
2, 8860, Note_on_c, 0, 72, 53
2, 8903, Note_on_c, 0, 72, 0
2, 8907, Note_on_c, 0, 84, 0
2, 8932, Note_on_c, 0, 84, 54
2, 8933, Note_on_c, 0, 72, 40
2, 8949, Note_on_c, 0, 48, 0
2, 8954, Note_on_c, 0, 72, 0
2, 8971, Note_on_c, 0, 84, 0
2, 8991, Note_on_c, 0, 54, 0
2, 9010, Note_on_c, 0, 53, 44
2, 9012, Note_on_c, 0, 84, 63
2, 9012, Note_on_c, 0, 74, 52
2, 9014, Note_on_c, 0, 77, 56
2, 9015, Note_on_c, 0, 48, 44
2, 9018, Control_c, 0, 64, 0
2, 9025, Note_on_c, 0, 58, 11
2, 9044, Control_c, 0, 64, 127
2, 9070, Note_on_c, 0, 84, 0
2, 9085, Note_on_c, 0, 58, 0
2, 9090, Note_on_c, 0, 74, 0
2, 9095, Note_on_c, 0, 84, 57
2, 9107, Note_on_c, 0, 77, 0
2, 9128, Note_on_c, 0, 84, 0
2, 9167, Note_on_c, 0, 84, 50
2, 9171, Note_on_c, 0, 77, 34
2, 9171, Note_on_c, 0, 74, 26
2, 9172, Note_on_c, 0, 58, 27
2, 9198, Note_on_c, 0, 48, 0
2, 9204, Note_on_c, 0, 84, 0
2, 9216, Note_on_c, 0, 77, 0
2, 9220, Note_on_c, 0, 74, 0
2, 9254, Note_on_c, 0, 48, 36
2, 9287, Note_on_c, 0, 48, 0
2, 9288, Note_on_c, 0, 53, 0
2, 9303, Note_on_c, 0, 58, 0
2, 9382, Note_on_c, 0, 48, 47
2, 9406, Note_on_c, 0, 64, 37
2, 9409, Note_on_c, 0, 58, 33
2, 9426, Note_on_c, 0, 68, 40
2, 9428, Note_on_c, 0, 73, 56
2, 9429, Note_on_c, 0, 76, 53
2, 9430, Control_c, 0, 64, 0
2, 9463, Control_c, 0, 64, 127
2, 9481, Note_on_c, 0, 58, 0
2, 9483, Note_on_c, 0, 48, 0
2, 9624, Note_on_c, 0, 24, 37
2, 9625, Note_on_c, 0, 36, 39
2, 9681, Note_on_c, 0, 24, 0
2, 9692, Note_on_c, 0, 36, 0
2, 9725, Note_on_c, 0, 76, 0
2, 9727, Note_on_c, 0, 73, 0
2, 9728, Note_on_c, 0, 68, 0
2, 9729, Note_on_c, 0, 64, 0
2, 9989, Note_on_c, 0, 60, 26
2, 9992, Note_on_c, 0, 41, 33
2, 9992, Note_on_c, 0, 52, 39
2, 9992, Note_on_c, 0, 55, 43
2, 9993, Note_on_c, 0, 50, 37
2, 9994, Note_on_c, 0, 57, 30
2, 9994, Note_on_c, 0, 48, 34
2, 10003, Control_c, 0, 64, 0
2, 10044, Control_c, 0, 64, 127
2, 10060, Note_on_c, 0, 50, 0
2, 10061, Note_on_c, 0, 52, 0
2, 10065, Note_on_c, 0, 55, 0
2, 10068, Note_on_c, 0, 57, 0
2, 10077, Note_on_c, 0, 60, 0
2, 10082, Note_on_c, 0, 48, 0
2, 10084, Note_on_c, 0, 41, 0
2, 10249, Note_on_c, 0, 57, 54
2, 10250, Note_on_c, 0, 93, 74
2, 10268, Note_on_c, 0, 57, 0
2, 10270, Note_on_c, 0, 93, 0
2, 10274, Note_on_c, 0, 55, 56
2, 10275, Note_on_c, 0, 91, 55
2, 10285, Note_on_c, 0, 91, 0
2, 10299, Note_on_c, 0, 55, 0
2, 10303, Note_on_c, 0, 57, 60
2, 10304, Note_on_c, 0, 93, 79
2, 10355, Note_on_c, 0, 57, 0
2, 10365, Note_on_c, 0, 93, 0
2, 10399, Control_c, 0, 64, 0
2, 10399, Note_on_c, 0, 96, 78
2, 10400, Note_on_c, 0, 57, 46
2, 10400, Note_on_c, 0, 47, 46
2, 10401, Note_on_c, 0, 84, 59
2, 10416, Control_c, 0, 64, 127
2, 10429, Note_on_c, 0, 84, 0
2, 10432, Note_on_c, 0, 47, 0
2, 10433, Note_on_c, 0, 96, 0
2, 10439, Note_on_c, 0, 57, 0
2, 10464, Note_on_c, 0, 98, 70
2, 10465, Note_on_c, 0, 46, 59
2, 10466, Note_on_c, 0, 86, 54
2, 10467, Control_c, 0, 64, 0
2, 10486, Control_c, 0, 64, 127
2, 10494, Note_on_c, 0, 98, 0
2, 10503, Note_on_c, 0, 86, 0
2, 10512, Note_on_c, 0, 57, 36
2, 10514, Note_on_c, 0, 46, 0
2, 10521, Note_on_c, 0, 57, 0
2, 10561, Note_on_c, 0, 60, 32
2, 10605, Note_on_c, 0, 62, 48
2, 10607, Note_on_c, 0, 81, 54
2, 10608, Note_on_c, 0, 74, 41
2, 10635, Note_on_c, 0, 74, 0
2, 10651, Note_on_c, 0, 81, 0
2, 10660, Note_on_c, 0, 77, 51
2, 10662, Note_on_c, 0, 69, 37
2, 10665, Note_on_c, 0, 65, 38
2, 10677, Note_on_c, 0, 62, 0
2, 10695, Note_on_c, 0, 77, 0
2, 10711, Note_on_c, 0, 69, 0
2, 10714, Note_on_c, 0, 62, 43
2, 10715, Note_on_c, 0, 65, 0
2, 10733, Note_on_c, 0, 60, 0
2, 10754, Note_on_c, 0, 62, 0
2, 10767, Note_on_c, 0, 62, 55
2, 10770, Note_on_c, 0, 65, 50
2, 10785, Note_on_c, 0, 62, 0
2, 10795, Note_on_c, 0, 62, 11
2, 10828, Note_on_c, 0, 60, 50
2, 10835, Note_on_c, 0, 65, 0
2, 10838, Note_on_c, 0, 60, 0
2, 10844, Note_on_c, 0, 62, 0
2, 10901, Note_on_c, 0, 74, 75
2, 10905, Note_on_c, 0, 45, 47
2, 10906, Note_on_c, 0, 67, 71
2, 10906, Control_c, 0, 64, 0
2, 10907, Note_on_c, 0, 69, 67
2, 10909, Note_on_c, 0, 55, 49
2, 10910, Note_on_c, 0, 63, 38
2, 10930, Control_c, 0, 64, 127
2, 10932, Note_on_c, 0, 45, 0
2, 10942, Note_on_c, 0, 55, 0
2, 10976, Note_on_c, 0, 62, 64
2, 10988, Note_on_c, 0, 67, 0
2, 11009, Note_on_c, 0, 63, 0
2, 11039, Note_on_c, 0, 63, 56
2, 11041, Note_on_c, 0, 67, 49
2, 11073, Note_on_c, 0, 74, 0
2, 11079, Note_on_c, 0, 69, 0
2, 11103, Note_on_c, 0, 75, 63
2, 11104, Note_on_c, 0, 50, 41
2, 11114, Note_on_c, 0, 67, 0
2, 11129, Note_on_c, 0, 75, 0
2, 11133, Note_on_c, 0, 50, 0
2, 11135, Note_on_c, 0, 62, 0
2, 11135, Note_on_c, 0, 63, 0
2, 11176, Note_on_c, 0, 74, 40
2, 11178, Note_on_c, 0, 64, 42
2, 11179, Note_on_c, 0, 50, 35
2, 11179, Note_on_c, 0, 60, 35
2, 11180, Control_c, 0, 64, 0
2, 11202, Control_c, 0, 64, 127
2, 11230, Note_on_c, 0, 74, 0
2, 11253, Note_on_c, 0, 72, 60
2, 11271, Note_on_c, 0, 60, 0
2, 11272, Note_on_c, 0, 64, 0
2, 11297, Note_on_c, 0, 72, 0
2, 11328, Note_on_c, 0, 64, 57
2, 11328, Note_on_c, 0, 72, 54
2, 11330, Note_on_c, 0, 60, 45
2, 11333, Note_on_c, 0, 66, 35
2, 11375, Note_on_c, 0, 50, 0
2, 11399, Note_on_c, 0, 66, 0
2, 11412, Note_on_c, 0, 64, 0
2, 11451, Note_on_c, 0, 72, 0
2, 11455, Note_on_c, 0, 50, 46
2, 11456, Note_on_c, 0, 69, 53
2, 11460, Note_on_c, 0, 60, 0
2, 11485, Note_on_c, 0, 50, 0
2, 11490, Note_on_c, 0, 69, 0
2, 11566, Note_on_c, 0, 70, 51
2, 11567, Note_on_c, 0, 63, 56
2, 11569, Note_on_c, 0, 49, 28
2, 11569, Note_on_c, 0, 59, 30
2, 11569, Note_on_c, 0, 67, 45
2, 11569, Control_c, 0, 64, 0
2, 11570, Note_on_c, 0, 58, 34
2, 11589, Note_on_c, 0, 58, 0
2, 11590, Control_c, 0, 64, 127
2, 11591, Note_on_c, 0, 67, 0
2, 11592, Note_on_c, 0, 63, 0
2, 11597, Note_on_c, 0, 70, 0
2, 11627, Note_on_c, 0, 82, 71
2, 11628, Note_on_c, 0, 59, 0
2, 11631, Note_on_c, 0, 53, 28
2, 11636, Note_on_c, 0, 53, 0
2, 11639, Note_on_c, 0, 49, 0
2, 11644, Note_on_c, 0, 82, 0
2, 11693, Note_on_c, 0, 82, 59
2, 11696, Note_on_c, 0, 59, 45
2, 11696, Note_on_c, 0, 75, 38
2, 11697, Note_on_c, 0, 79, 36
2, 11699, Note_on_c, 0, 71, 34
2, 11741, Note_on_c, 0, 82, 0
2, 11746, Note_on_c, 0, 75, 0
2, 11750, Note_on_c, 0, 71, 0
2, 11754, Note_on_c, 0, 79, 0
2, 11766, Note_on_c, 0, 63, 32
2, 11766, Note_on_c, 0, 82, 67
2, 11783, Note_on_c, 0, 59, 0
2, 11796, Note_on_c, 0, 63, 0
2, 11825, Note_on_c, 0, 82, 0
2, 11847, Note_on_c, 0, 82, 52
2, 11849, Note_on_c, 0, 70, 46
2, 11851, Note_on_c, 0, 74, 48
2, 11851, Note_on_c, 0, 58, 34
2, 11852, Note_on_c, 0, 64, 30
2, 11853, Control_c, 0, 64, 0
2, 11870, Control_c, 0, 64, 127
2, 11871, Note_on_c, 0, 64, 0
2, 11873, Note_on_c, 0, 58, 0
2, 11894, Note_on_c, 0, 82, 0
2, 11902, Note_on_c, 0, 74, 0
2, 11919, Note_on_c, 0, 70, 0
2, 11929, Note_on_c, 0, 48, 45
2, 12025, Note_on_c, 0, 48, 0
2, 12078, Note_on_c, 0, 48, 41
2, 12106, Note_on_c, 0, 48, 0
2, 12169, Note_on_c, 0, 60, 58
2, 12171, Note_on_c, 0, 55, 34
2, 12171, Control_c, 0, 64, 0
2, 12171, Note_on_c, 0, 41, 44
2, 12172, Note_on_c, 0, 57, 38
2, 12193, Control_c, 0, 64, 127
2, 12199, Note_on_c, 0, 55, 0
2, 12210, Note_on_c, 0, 57, 0
2, 12215, Note_on_c, 0, 60, 0
2, 12232, Note_on_c, 0, 48, 50
2, 12294, Note_on_c, 0, 72, 63
2, 12294, Note_on_c, 0, 57, 47
2, 12294, Note_on_c, 0, 65, 66
2, 12300, Note_on_c, 0, 48, 0
2, 12371, Note_on_c, 0, 48, 49
2, 12390, Note_on_c, 0, 57, 0
2, 12401, Note_on_c, 0, 65, 0
2, 12432, Note_on_c, 0, 72, 0
2, 12445, Note_on_c, 0, 65, 58
2, 12447, Note_on_c, 0, 60, 53
2, 12447, Note_on_c, 0, 57, 45
2, 12465, Note_on_c, 0, 48, 0
2, 12494, Note_on_c, 0, 60, 0
2, 12508, Note_on_c, 0, 65, 0
2, 12510, Note_on_c, 0, 48, 61
2, 12551, Note_on_c, 0, 41, 0
2, 12557, Note_on_c, 0, 57, 0
2, 12574, Note_on_c, 0, 41, 60
2, 12574, Note_on_c, 0, 81, 85
2, 12576, Note_on_c, 0, 69, 80
2, 12576, Note_on_c, 0, 77, 77
2, 12624, Note_on_c, 0, 41, 0
2, 12628, Note_on_c, 0, 81, 0
2, 12630, Note_on_c, 0, 69, 0
2, 12638, Note_on_c, 0, 77, 0
2, 12652, Note_on_c, 0, 81, 75
2, 12682, Note_on_c, 0, 81, 0
2, 12723, Note_on_c, 0, 81, 87
2, 12724, Note_on_c, 0, 48, 0
2, 12724, Note_on_c, 0, 41, 66
2, 12725, Note_on_c, 0, 74, 77
2, 12726, Note_on_c, 0, 71, 75
2, 12728, Control_c, 0, 64, 0
2, 12747, Control_c, 0, 64, 127
2, 12779, Note_on_c, 0, 50, 77
2, 12782, Note_on_c, 0, 74, 0
2, 12785, Note_on_c, 0, 71, 0
2, 12786, Note_on_c, 0, 81, 0
2, 12834, Note_on_c, 0, 79, 70
2, 12835, Note_on_c, 0, 41, 0
2, 12835, Note_on_c, 0, 71, 66
2, 12836, Note_on_c, 0, 74, 54
2, 12837, Note_on_c, 0, 67, 63
2, 12839, Note_on_c, 0, 50, 0
2, 12841, Note_on_c, 0, 55, 55
2, 12893, Note_on_c, 0, 59, 59
2, 12895, Note_on_c, 0, 55, 0
2, 12905, Note_on_c, 0, 71, 0
2, 12908, Note_on_c, 0, 74, 0
2, 12912, Note_on_c, 0, 67, 0
2, 12932, Note_on_c, 0, 79, 0
2, 12955, Note_on_c, 0, 71, 47
2, 12956, Note_on_c, 0, 62, 47
2, 12956, Note_on_c, 0, 67, 37
2, 12957, Note_on_c, 0, 74, 36
2, 13002, Note_on_c, 0, 59, 0
2, 13011, Note_on_c, 0, 67, 0
2, 13012, Note_on_c, 0, 74, 0
2, 13020, Note_on_c, 0, 67, 17
2, 13021, Note_on_c, 0, 79, 76
2, 13025, Note_on_c, 0, 59, 40
2, 13047, Note_on_c, 0, 62, 0
2, 13055, Note_on_c, 0, 71, 0
2, 13057, Note_on_c, 0, 67, 0
2, 13070, Note_on_c, 0, 79, 0
2, 13076, Note_on_c, 0, 59, 0
2, 13091, Note_on_c, 0, 79, 53
2, 13094, Note_on_c, 0, 67, 36
2, 13094, Note_on_c, 0, 59, 35
2, 13094, Note_on_c, 0, 71, 34
2, 13096, Note_on_c, 0, 74, 33
2, 13132, Note_on_c, 0, 79, 0
2, 13165, Note_on_c, 0, 77, 47
2, 13190, Note_on_c, 0, 71, 0
2, 13191, Note_on_c, 0, 67, 0
2, 13193, Note_on_c, 0, 74, 0
2, 13201, Note_on_c, 0, 77, 0
2, 13207, Note_on_c, 0, 59, 0
2, 13298, Note_on_c, 0, 79, 55
2, 13300, Note_on_c, 0, 76, 54
2, 13301, Note_on_c, 0, 72, 48
2, 13302, Note_on_c, 0, 67, 33
2, 13303, Control_c, 0, 64, 0
2, 13303, Note_on_c, 0, 46, 40
2, 13304, Note_on_c, 0, 62, 26
2, 13304, Note_on_c, 0, 56, 34
2, 13326, Control_c, 0, 64, 127
2, 13338, Note_on_c, 0, 46, 0
2, 13344, Note_on_c, 0, 56, 0
2, 13352, Note_on_c, 0, 62, 0
2, 13369, Note_on_c, 0, 67, 0
2, 13371, Note_on_c, 0, 72, 0
2, 13373, Note_on_c, 0, 62, 63
2, 13390, Note_on_c, 0, 76, 0
2, 13406, Note_on_c, 0, 62, 0
2, 13414, Note_on_c, 0, 79, 0
2, 13423, Note_on_c, 0, 72, 66
2, 13424, Note_on_c, 0, 67, 54
2, 13444, Note_on_c, 0, 72, 0
2, 13449, Note_on_c, 0, 67, 0
2, 13466, Note_on_c, 0, 56, 80
2, 13515, Note_on_c, 0, 67, 55
2, 13516, Note_on_c, 0, 64, 59
2, 13517, Note_on_c, 0, 60, 58
2, 13565, Note_on_c, 0, 64, 0
2, 13567, Note_on_c, 0, 67, 0
2, 13569, Note_on_c, 0, 56, 0
2, 13572, Note_on_c, 0, 60, 0
2, 13572, Note_on_c, 0, 46, 59
2, 13626, Note_on_c, 0, 46, 0
2, 13635, Note_on_c, 0, 55, 44
2, 13636, Note_on_c, 0, 60, 56
2, 13693, Note_on_c, 0, 60, 0
2, 13696, Note_on_c, 0, 55, 0
2, 13780, Note_on_c, 0, 55, 24
2, 13781, Note_on_c, 0, 61, 31
2, 13781, Note_on_c, 0, 57, 44
2, 13782, Note_on_c, 0, 45, 38
2, 13782, Note_on_c, 0, 33, 41
2, 13784, Control_c, 0, 64, 0
2, 13819, Control_c, 0, 64, 127
2, 13845, Note_on_c, 0, 57, 0
2, 13846, Note_on_c, 0, 55, 0
2, 13861, Note_on_c, 0, 33, 0
2, 13866, Note_on_c, 0, 61, 0
2, 13869, Note_on_c, 0, 45, 0
2, 13941, Note_on_c, 0, 69, 80
2, 13941, Note_on_c, 0, 61, 83
2, 13942, Note_on_c, 0, 58, 86
2, 13942, Note_on_c, 0, 57, 92
2, 13942, Note_on_c, 0, 64, 77
2, 13946, Note_on_c, 0, 67, 38
2, 13950, Control_c, 0, 64, 0
2, 13962, Control_c, 0, 64, 127
2, 13978, Note_on_c, 0, 61, 0
2, 13997, Note_on_c, 0, 69, 0
2, 14000, Note_on_c, 0, 58, 0
2, 14001, Note_on_c, 0, 67, 0
2, 14009, Note_on_c, 0, 64, 0
2, 14024, Note_on_c, 0, 69, 83
2, 14037, Note_on_c, 0, 57, 0
2, 14040, Note_on_c, 0, 69, 0
2, 14102, Note_on_c, 0, 81, 88
2, 14102, Note_on_c, 0, 73, 84
2, 14103, Note_on_c, 0, 70, 84
2, 14104, Note_on_c, 0, 76, 70
2, 14105, Note_on_c, 0, 69, 94
2, 14112, Note_on_c, 0, 79, 24
2, 14113, Control_c, 0, 64, 0
2, 14118, Note_on_c, 0, 79, 0
2, 14135, Control_c, 0, 64, 127
2, 14288, Note_on_c, 0, 81, 0
2, 14331, Note_on_c, 0, 76, 0
2, 14334, Note_on_c, 0, 69, 0
2, 14349, Note_on_c, 0, 73, 0
2, 14352, Note_on_c, 0, 70, 0
2, 14410, Note_on_c, 0, 71, 55
2, 14411, Note_on_c, 0, 79, 45
2, 14411, Note_on_c, 0, 68, 52
2, 14411, Note_on_c, 0, 67, 49
2, 14413, Note_on_c, 0, 74, 39
2, 14418, Note_on_c, 0, 67, 0
2, 14431, Note_on_c, 0, 79, 0
2, 14437, Note_on_c, 0, 71, 0
2, 14438, Note_on_c, 0, 74, 0
2, 14439, Note_on_c, 0, 68, 0
2, 14479, Note_on_c, 0, 76, 43
2, 14479, Note_on_c, 0, 65, 41
2, 14481, Note_on_c, 0, 69, 55
2, 14482, Control_c, 0, 64, 0
2, 14482, Note_on_c, 0, 60, 34
2, 14484, Note_on_c, 0, 50, 32
2, 14496, Control_c, 0, 64, 127
2, 14502, Note_on_c, 0, 60, 0
2, 14502, Note_on_c, 0, 65, 0
2, 14503, Note_on_c, 0, 69, 0
2, 14509, Note_on_c, 0, 76, 0
2, 14534, Note_on_c, 0, 79, 57
2, 14535, Note_on_c, 0, 72, 51
2, 14535, Note_on_c, 0, 61, 50
2, 14536, Note_on_c, 0, 69, 56
2, 14562, Note_on_c, 0, 69, 0
2, 14565, Note_on_c, 0, 79, 0
2, 14570, Note_on_c, 0, 72, 0
2, 14574, Note_on_c, 0, 61, 0
2, 14592, Note_on_c, 0, 77, 54
2, 14596, Control_c, 0, 64, 0
2, 14597, Note_on_c, 0, 60, 47
2, 14597, Note_on_c, 0, 65, 34
2, 14597, Note_on_c, 0, 72, 42
2, 14616, Control_c, 0, 64, 127
2, 14625, Note_on_c, 0, 72, 0
2, 14631, Note_on_c, 0, 77, 0
2, 14636, Note_on_c, 0, 60, 0
2, 14638, Note_on_c, 0, 65, 0
2, 14652, Note_on_c, 0, 65, 50
2, 14654, Note_on_c, 0, 69, 71
2, 14655, Note_on_c, 0, 61, 49
2, 14661, Control_c, 0, 64, 0
2, 14672, Control_c, 0, 64, 127
2, 14699, Note_on_c, 0, 69, 0
2, 14704, Note_on_c, 0, 65, 0
2, 14706, Note_on_c, 0, 61, 0
2, 14721, Note_on_c, 0, 76, 64
2, 14724, Note_on_c, 0, 65, 48
2, 14725, Note_on_c, 0, 69, 66
2, 14726, Note_on_c, 0, 60, 50
2, 14727, Control_c, 0, 64, 0
2, 14747, Control_c, 0, 64, 127
2, 14763, Note_on_c, 0, 76, 0
2, 14774, Note_on_c, 0, 60, 0
2, 14776, Note_on_c, 0, 50, 0
2, 14783, Note_on_c, 0, 69, 0
2, 14789, Note_on_c, 0, 74, 49
2, 14791, Note_on_c, 0, 69, 31
2, 14792, Note_on_c, 0, 50, 36
2, 14813, Note_on_c, 0, 69, 0
2, 14818, Note_on_c, 0, 65, 0
2, 14833, Note_on_c, 0, 74, 0
2, 14854, Note_on_c, 0, 69, 47
2, 14856, Note_on_c, 0, 65, 42
2, 14858, Note_on_c, 0, 60, 35
2, 14859, Note_on_c, 0, 57, 29
2, 14860, Control_c, 0, 64, 0
2, 14865, Control_c, 0, 64, 127
2, 14885, Note_on_c, 0, 50, 0
2, 14901, Note_on_c, 0, 60, 0
2, 14916, Note_on_c, 0, 69, 0
2, 14925, Note_on_c, 0, 60, 41
2, 14926, Note_on_c, 0, 65, 0
2, 14927, Note_on_c, 0, 50, 39
2, 14930, Note_on_c, 0, 57, 0
2, 14945, Note_on_c, 0, 50, 0
2, 14956, Note_on_c, 0, 60, 0
2, 15004, Note_on_c, 0, 61, 35
2, 15006, Note_on_c, 0, 43, 34
2, 15006, Note_on_c, 0, 59, 34
2, 15007, Note_on_c, 0, 53, 22
2, 15008, Note_on_c, 0, 50, 20
2, 15013, Control_c, 0, 64, 0
2, 15031, Control_c, 0, 64, 127
2, 15042, Note_on_c, 0, 53, 0
2, 15054, Note_on_c, 0, 59, 0
2, 15073, Note_on_c, 0, 61, 0
2, 15085, Note_on_c, 0, 50, 0
2, 15085, Note_on_c, 0, 62, 46
2, 15087, Control_c, 0, 64, 0
2, 15088, Note_on_c, 0, 59, 44
2, 15088, Note_on_c, 0, 53, 38
2, 15109, Control_c, 0, 64, 127
2, 15152, Note_on_c, 0, 59, 0
2, 15157, Note_on_c, 0, 62, 0
2, 15239, Note_on_c, 0, 43, 0
2, 15254, Note_on_c, 0, 53, 0
2, 15261, Note_on_c, 0, 74, 78
2, 15293, Note_on_c, 0, 74, 0
2, 15344, Note_on_c, 0, 76, 59
2, 15349, Note_on_c, 0, 53, 32
2, 15352, Control_c, 0, 64, 0
2, 15371, Control_c, 0, 64, 127
2, 15396, Note_on_c, 0, 62, 37
2, 15442, Note_on_c, 0, 65, 66
2, 15451, Note_on_c, 0, 76, 0
2, 15459, Note_on_c, 0, 53, 0
2, 15482, Note_on_c, 0, 65, 0
2, 15487, Note_on_c, 0, 77, 72
2, 15489, Note_on_c, 0, 53, 41
2, 15506, Note_on_c, 0, 77, 0
2, 15508, Note_on_c, 0, 53, 0
2, 15535, Note_on_c, 0, 62, 0
2, 15540, Note_on_c, 0, 78, 74
2, 15541, Note_on_c, 0, 52, 61
2, 15542, Control_c, 0, 64, 0
2, 15571, Control_c, 0, 64, 127
2, 15590, Note_on_c, 0, 59, 36
2, 15642, Note_on_c, 0, 66, 42
2, 15644, Note_on_c, 0, 71, 40
2, 15644, Note_on_c, 0, 62, 35
2, 15650, Note_on_c, 0, 71, 0
2, 15652, Note_on_c, 0, 78, 0
2, 15658, Note_on_c, 0, 66, 0
2, 15783, Note_on_c, 0, 59, 0
2, 15784, Note_on_c, 0, 81, 61
2, 15788, Note_on_c, 0, 62, 0
2, 15803, Note_on_c, 0, 81, 0
2, 15803, Note_on_c, 0, 52, 0
2, 15864, Note_on_c, 0, 79, 46
2, 15866, Note_on_c, 0, 72, 44
2, 15868, Note_on_c, 0, 65, 27
2, 15868, Note_on_c, 0, 60, 39
2, 15870, Note_on_c, 0, 50, 40
2, 15875, Control_c, 0, 64, 0
2, 15909, Control_c, 0, 64, 127
2, 15913, Note_on_c, 0, 57, 47
2, 15915, Note_on_c, 0, 60, 0
2, 15922, Note_on_c, 0, 72, 0
2, 15924, Note_on_c, 0, 65, 0
2, 15962, Note_on_c, 0, 79, 0
2, 15964, Note_on_c, 0, 72, 56
2, 15965, Note_on_c, 0, 60, 40
2, 15967, Note_on_c, 0, 65, 38
2, 15972, Note_on_c, 0, 60, 0
2, 15977, Note_on_c, 0, 50, 0
2, 15980, Note_on_c, 0, 72, 0
2, 16000, Note_on_c, 0, 65, 0
2, 16023, Note_on_c, 0, 50, 36
2, 16025, Note_on_c, 0, 57, 0
2, 16036, Note_on_c, 0, 50, 0
2, 16091, Note_on_c, 0, 62, 42
2, 16091, Note_on_c, 0, 65, 49
2, 16092, Control_c, 0, 64, 0
2, 16092, Note_on_c, 0, 58, 34
2, 16092, Note_on_c, 0, 48, 43
2, 16094, Note_on_c, 0, 57, 20
2, 16116, Control_c, 0, 64, 127
2, 16123, Note_on_c, 0, 57, 0
2, 16133, Note_on_c, 0, 58, 0
2, 16139, Note_on_c, 0, 62, 0
2, 16147, Note_on_c, 0, 65, 0
2, 16152, Note_on_c, 0, 55, 38
2, 16215, Note_on_c, 0, 72, 80
2, 16217, Note_on_c, 0, 67, 72
2, 16218, Note_on_c, 0, 64, 74
2, 16219, Note_on_c, 0, 60, 44
2, 16236, Note_on_c, 0, 48, 0
2, 16276, Note_on_c, 0, 48, 60
2, 16303, Note_on_c, 0, 64, 0
2, 16303, Note_on_c, 0, 67, 0
2, 16307, Note_on_c, 0, 72, 0
2, 16308, Note_on_c, 0, 55, 0
2, 16309, Note_on_c, 0, 48, 0
2, 16311, Note_on_c, 0, 60, 0
2, 16344, Note_on_c, 0, 71, 75
2, 16345, Note_on_c, 0, 63, 70
2, 16345, Note_on_c, 0, 66, 71
2, 16346, Note_on_c, 0, 48, 61
2, 16346, Control_c, 0, 64, 0
2, 16368, Control_c, 0, 64, 127
2, 16383, Note_on_c, 0, 48, 0
2, 16412, Note_on_c, 0, 48, 66
2, 16446, Note_on_c, 0, 71, 0
2, 16450, Note_on_c, 0, 63, 0
2, 16452, Note_on_c, 0, 66, 0
2, 16484, Note_on_c, 0, 70, 60
2, 16484, Note_on_c, 0, 72, 66
2, 16485, Note_on_c, 0, 67, 51
2, 16485, Note_on_c, 0, 64, 55
2, 16487, Note_on_c, 0, 60, 53
2, 16505, Note_on_c, 0, 48, 0
2, 16527, Note_on_c, 0, 64, 0
2, 16544, Note_on_c, 0, 70, 0
2, 16557, Note_on_c, 0, 67, 0
2, 16559, Note_on_c, 0, 72, 0
2, 16567, Note_on_c, 0, 48, 54
2, 16577, Note_on_c, 0, 60, 0
2, 16588, Note_on_c, 0, 48, 0
2, 16665, Note_on_c, 0, 84, 94
2, 16667, Control_c, 0, 64, 0
2, 16667, Note_on_c, 0, 41, 67
2, 16667, Note_on_c, 0, 76, 87
2, 16690, Control_c, 0, 64, 127
2, 16712, Note_on_c, 0, 84, 0
2, 16719, Note_on_c, 0, 76, 0
2, 16737, Note_on_c, 0, 83, 79
2, 16738, Note_on_c, 0, 48, 44
2, 16741, Note_on_c, 0, 74, 75
2, 16775, Note_on_c, 0, 74, 0
2, 16779, Note_on_c, 0, 83, 0
2, 16815, Note_on_c, 0, 83, 73
2, 16817, Note_on_c, 0, 57, 42
2, 16820, Note_on_c, 0, 74, 64
2, 16865, Note_on_c, 0, 48, 0
2, 16902, Note_on_c, 0, 74, 0
2, 16904, Note_on_c, 0, 83, 0
2, 16975, Note_on_c, 0, 48, 32
2, 16978, Note_on_c, 0, 81, 52
2, 16980, Note_on_c, 0, 72, 37
2, 16998, Note_on_c, 0, 57, 0
2, 17011, Note_on_c, 0, 41, 0
2, 17011, Note_on_c, 0, 72, 0
2, 17020, Note_on_c, 0, 48, 0
2, 17022, Note_on_c, 0, 81, 0
2, 17097, Note_on_c, 0, 81, 66
2, 17100, Note_on_c, 0, 72, 49
2, 17101, Note_on_c, 0, 50, 44
2, 17102, Note_on_c, 0, 60, 44
2, 17103, Control_c, 0, 64, 0
2, 17120, Control_c, 0, 64, 127
2, 17144, Note_on_c, 0, 81, 0
2, 17149, Note_on_c, 0, 72, 0
2, 17184, Note_on_c, 0, 60, 0
2, 17189, Note_on_c, 0, 79, 54
2, 17189, Note_on_c, 0, 57, 31
2, 17189, Note_on_c, 0, 71, 47
2, 17214, Note_on_c, 0, 50, 0
2, 17219, Note_on_c, 0, 79, 0
2, 17219, Note_on_c, 0, 57, 0
2, 17225, Note_on_c, 0, 71, 0
2, 17285, Note_on_c, 0, 65, 44
2, 17286, Note_on_c, 0, 69, 52
2, 17287, Note_on_c, 0, 64, 24
2, 17288, Note_on_c, 0, 59, 36
2, 17288, Note_on_c, 0, 53, 32
2, 17297, Control_c, 0, 64, 0
2, 17318, Control_c, 0, 64, 127
2, 17401, Note_on_c, 0, 65, 0
2, 17428, Note_on_c, 0, 69, 0
2, 17530, Note_on_c, 0, 69, 31
2, 17543, Note_on_c, 0, 70, 42
2, 17549, Note_on_c, 0, 69, 0
2, 17552, Note_on_c, 0, 71, 67
2, 17555, Note_on_c, 0, 70, 0
2, 17564, Note_on_c, 0, 71, 0
2, 17569, Note_on_c, 0, 72, 85
2, 17596, Note_on_c, 0, 59, 0
2, 17604, Note_on_c, 0, 53, 0
2, 17608, Note_on_c, 0, 72, 0
2, 17614, Note_on_c, 0, 74, 89
2, 17621, Note_on_c, 0, 64, 0
2, 17644, Note_on_c, 0, 74, 0
2, 17665, Note_on_c, 0, 75, 52
2, 17670, Note_on_c, 0, 56, 38
2, 17670, Note_on_c, 0, 62, 40
2, 17671, Note_on_c, 0, 67, 36
2, 17676, Control_c, 0, 64, 0
2, 17677, Note_on_c, 0, 76, 66
2, 17678, Note_on_c, 0, 75, 0
2, 17709, Control_c, 0, 64, 127
2, 17736, Note_on_c, 0, 79, 60
2, 17742, Note_on_c, 0, 76, 0
2, 17777, Note_on_c, 0, 79, 0
2, 17791, Note_on_c, 0, 67, 0
2, 17795, Note_on_c, 0, 76, 62
2, 17798, Note_on_c, 0, 62, 0
2, 17808, Note_on_c, 0, 56, 0
2, 17811, Note_on_c, 0, 76, 0
2, 18121, Note_on_c, 0, 64, 54
2, 18121, Note_on_c, 0, 67, 34
2, 18122, Note_on_c, 0, 56, 33
2, 18122, Note_on_c, 0, 46, 34
2, 18124, Note_on_c, 0, 60, 20
2, 18125, Control_c, 0, 64, 0
2, 18136, Control_c, 0, 64, 127
2, 18159, Note_on_c, 0, 64, 0
2, 18162, Note_on_c, 0, 67, 0
2, 18163, Note_on_c, 0, 56, 0
2, 18166, Note_on_c, 0, 60, 0
2, 18174, Note_on_c, 0, 46, 0
2, 18241, Note_on_c, 0, 63, 40
2, 18242, Note_on_c, 0, 55, 38
2, 18244, Note_on_c, 0, 61, 40
2, 18245, Note_on_c, 0, 58, 38
2, 18245, Control_c, 0, 64, 0
2, 18246, Note_on_c, 0, 45, 40
2, 18267, Control_c, 0, 64, 127
2, 18380, Note_on_c, 0, 55, 0
2, 18388, Note_on_c, 0, 58, 0
2, 18392, Note_on_c, 0, 61, 0
2, 18395, Note_on_c, 0, 63, 0
2, 18401, Note_on_c, 0, 45, 0
2, 18516, Note_on_c, 0, 68, 76
2, 18517, Note_on_c, 0, 80, 74
2, 18518, Note_on_c, 0, 56, 67
2, 18571, Note_on_c, 0, 68, 0
2, 18572, Note_on_c, 0, 80, 0
2, 18597, Note_on_c, 0, 56, 0
2, 18597, Note_on_c, 0, 81, 64
2, 18598, Note_on_c, 0, 69, 57
2, 18600, Note_on_c, 0, 57, 47
2, 18620, Note_on_c, 0, 57, 0
2, 18628, Note_on_c, 0, 69, 0
2, 18645, Note_on_c, 0, 81, 0
2, 18765, Note_on_c, 0, 55, 51
2, 18775, Note_on_c, 0, 60, 36
2, 18779, Note_on_c, 0, 79, 50
2, 18786, Note_on_c, 0, 84, 68
2, 18787, Note_on_c, 0, 61, 50
2, 18788, Note_on_c, 0, 65, 53
2, 18797, Note_on_c, 0, 91, 64
2, 18955, Note_on_c, 0, 65, 0
2, 18968, Note_on_c, 0, 60, 0
2, 18971, Note_on_c, 0, 61, 0
2, 18972, Note_on_c, 0, 91, 0
2, 18976, Note_on_c, 0, 55, 0
2, 18983, Note_on_c, 0, 89, 71
2, 19013, Note_on_c, 0, 89, 0
2, 19013, Note_on_c, 0, 84, 0
2, 19023, Note_on_c, 0, 79, 0
2, 19075, Note_on_c, 0, 50, 48
2, 19075, Note_on_c, 0, 88, 71
2, 19078, Control_c, 0, 64, 0
2, 19096, Control_c, 0, 64, 127
2, 19116, Note_on_c, 0, 88, 0
2, 19130, Note_on_c, 0, 57, 33
2, 19192, Note_on_c, 0, 57, 0
2, 19192, Note_on_c, 0, 50, 0
2, 19192, Note_on_c, 0, 65, 35
2, 19192, Note_on_c, 0, 69, 53
2, 19194, Note_on_c, 0, 60, 42
2, 19229, Note_on_c, 0, 60, 0
2, 19262, Note_on_c, 0, 64, 45
2, 19296, Note_on_c, 0, 65, 0
2, 19303, Note_on_c, 0, 69, 0
2, 19336, Note_on_c, 0, 65, 48
2, 19337, Note_on_c, 0, 69, 49
2, 19395, Note_on_c, 0, 64, 0
2, 19489, Note_on_c, 0, 65, 0
2, 19508, Note_on_c, 0, 69, 0
2, 19515, Note_on_c, 0, 77, 69
2, 19539, Note_on_c, 0, 77, 0
2, 19614, Note_on_c, 0, 65, 53
2, 19614, Note_on_c, 0, 74, 50
2, 19616, Note_on_c, 0, 70, 51
2, 19616, Note_on_c, 0, 62, 53
2, 19657, Note_on_c, 0, 62, 0
2, 19657, Note_on_c, 0, 61, 52
2, 19672, Note_on_c, 0, 61, 0
2, 19677, Note_on_c, 0, 60, 46
2, 19695, Note_on_c, 0, 60, 0
2, 19698, Note_on_c, 0, 59, 40
2, 19704, Control_c, 0, 64, 0
2, 19720, Note_on_c, 0, 59, 0
2, 19726, Control_c, 0, 64, 127
2, 19730, Note_on_c, 0, 58, 36
2, 19759, Note_on_c, 0, 57, 42
2, 19762, Control_c, 0, 64, 0
2, 19763, Note_on_c, 0, 58, 0
2, 19785, Note_on_c, 0, 65, 0
2, 19792, Control_c, 0, 64, 127
2, 19797, Note_on_c, 0, 46, 42
2, 19799, Note_on_c, 0, 57, 0
2, 19799, Note_on_c, 0, 56, 35
2, 19859, Note_on_c, 0, 56, 0
2, 19874, Note_on_c, 0, 74, 0
2, 19878, Note_on_c, 0, 66, 46
2, 19880, Note_on_c, 0, 60, 43
2, 19882, Note_on_c, 0, 54, 29
2, 19911, Note_on_c, 0, 46, 0
2, 19923, Note_on_c, 0, 60, 0
2, 19941, Note_on_c, 0, 66, 0
2, 19944, Note_on_c, 0, 70, 0
2, 19949, Note_on_c, 0, 44, 36
2, 19950, Note_on_c, 0, 60, 55
2, 19970, Note_on_c, 0, 54, 0
2, 19980, Note_on_c, 0, 60, 0
2, 19999, Note_on_c, 0, 44, 0
2, 20053, Note_on_c, 0, 43, 40
2, 20054, Note_on_c, 0, 53, 36
2, 20055, Note_on_c, 0, 60, 48
2, 20056, Note_on_c, 0, 57, 37
2, 20057, Note_on_c, 0, 50, 40
2, 20059, Control_c, 0, 64, 0
2, 20087, Control_c, 0, 64, 127
2, 20097, Note_on_c, 0, 50, 0
2, 20105, Note_on_c, 0, 43, 0
2, 20179, Note_on_c, 0, 53, 0
2, 20198, Note_on_c, 0, 57, 0
2, 20205, Note_on_c, 0, 60, 0
2, 20240, Note_on_c, 0, 43, 42
2, 20242, Note_on_c, 0, 31, 35
2, 20282, Note_on_c, 0, 31, 0
2, 20288, Note_on_c, 0, 43, 0
2, 20385, Note_on_c, 0, 64, 64
2, 20388, Note_on_c, 0, 76, 82
2, 20431, Note_on_c, 0, 76, 0
2, 20460, Note_on_c, 0, 64, 0
2, 20484, Note_on_c, 0, 74, 67
2, 20489, Note_on_c, 0, 62, 43
2, 20521, Note_on_c, 0, 62, 0
2, 20532, Note_on_c, 0, 74, 0
2, 20679, Note_on_c, 0, 72, 44
2, 20680, Note_on_c, 0, 68, 53
2, 20681, Note_on_c, 0, 65, 45
2, 20681, Note_on_c, 0, 60, 38
2, 20682, Note_on_c, 0, 53, 44
2, 20682, Note_on_c, 0, 43, 43
2, 20686, Control_c, 0, 64, 0
2, 20731, Control_c, 0, 64, 127
2, 20826, Note_on_c, 0, 53, 0
2, 20836, Note_on_c, 0, 60, 0
2, 20837, Note_on_c, 0, 65, 0
2, 20855, Note_on_c, 0, 68, 0
2, 20904, Note_on_c, 0, 72, 0
2, 20904, Note_on_c, 0, 68, 23
2, 20906, Note_on_c, 0, 65, 36
2, 20908, Note_on_c, 0, 60, 43
2, 20912, Note_on_c, 0, 53, 31
2, 20980, Note_on_c, 0, 43, 0
2, 21018, Note_on_c, 0, 53, 0
2, 21089, Note_on_c, 0, 68, 0
2, 21090, Note_on_c, 0, 65, 0
2, 21092, Note_on_c, 0, 60, 0
2, 21094, Note_on_c, 0, 71, 44
2, 21157, Note_on_c, 0, 71, 0
2, 21202, Note_on_c, 0, 72, 44
2, 21205, Note_on_c, 0, 67, 37
2, 21206, Note_on_c, 0, 48, 32
2, 21206, Note_on_c, 0, 64, 35
2, 21207, Control_c, 0, 64, 0
2, 21225, Control_c, 0, 64, 127
2, 21228, Note_on_c, 0, 64, 0
2, 21232, Note_on_c, 0, 67, 0
2, 21236, Note_on_c, 0, 72, 0
2, 21256, Note_on_c, 0, 55, 29
2, 21301, Note_on_c, 0, 79, 68
2, 21305, Note_on_c, 0, 60, 39
2, 21311, Note_on_c, 0, 55, 0
2, 21340, Note_on_c, 0, 79, 0
2, 21356, Note_on_c, 0, 60, 0
2, 21356, Note_on_c, 0, 55, 37
2, 21410, Note_on_c, 0, 74, 49
2, 21415, Note_on_c, 0, 67, 37
2, 21415, Note_on_c, 0, 64, 40
2, 21416, Note_on_c, 0, 60, 34
2, 21424, Note_on_c, 0, 55, 0
2, 21468, Note_on_c, 0, 64, 0
2, 21473, Note_on_c, 0, 67, 0
2, 21473, Note_on_c, 0, 55, 36
2, 21555, Note_on_c, 0, 48, 0
2, 21607, Note_on_c, 0, 48, 35
2, 21670, Note_on_c, 0, 48, 0
2, 21739, Note_on_c, 0, 48, 44
2, 21762, Note_on_c, 0, 60, 0
2, 21782, Note_on_c, 0, 74, 0
2, 21817, Note_on_c, 0, 70, 49
2, 21818, Note_on_c, 0, 66, 38
2, 21818, Note_on_c, 0, 65, 62
2, 21819, Note_on_c, 0, 55, 0
2, 21819, Note_on_c, 0, 62, 60
2, 21820, Note_on_c, 0, 58, 40
2, 21823, Control_c, 0, 64, 0
2, 21841, Control_c, 0, 64, 127
2, 21846, Note_on_c, 0, 48, 0
2, 21849, Note_on_c, 0, 66, 0
2, 21877, Note_on_c, 0, 62, 0
2, 21880, Note_on_c, 0, 65, 0
2, 21880, Note_on_c, 0, 48, 51
2, 21886, Note_on_c, 0, 70, 0
2, 21907, Note_on_c, 0, 58, 0
2, 21945, Note_on_c, 0, 77, 76
2, 21947, Note_on_c, 0, 70, 81
2, 21951, Note_on_c, 0, 58, 42
2, 21971, Note_on_c, 0, 48, 0
2, 22024, Note_on_c, 0, 48, 51
2, 22031, Note_on_c, 0, 58, 0
2, 22035, Note_on_c, 0, 77, 0
2, 22061, Note_on_c, 0, 70, 0
2, 22123, Note_on_c, 0, 76, 37
2, 22125, Note_on_c, 0, 73, 54
2, 22125, Note_on_c, 0, 68, 53
2, 22126, Note_on_c, 0, 58, 38
2, 22129, Note_on_c, 0, 64, 52
2, 22134, Control_c, 0, 64, 0
2, 22153, Control_c, 0, 64, 127
2, 22162, Note_on_c, 0, 48, 0
2, 22182, Note_on_c, 0, 58, 0
2, 22232, Note_on_c, 0, 48, 44
2, 22249, Note_on_c, 0, 48, 0
2, 22341, Note_on_c, 0, 43, 38
2, 22355, Note_on_c, 0, 43, 0
2, 22502, Note_on_c, 0, 24, 53
2, 22502, Note_on_c, 0, 36, 60
2, 22923, Control_c, 0, 64, 0
2, 23040, Control_c, 0, 64, 127
2, 23040, Control_c, 0, 64, 0
2, 23040, Note_on_c, 0, 62, 31
2, 23040, Note_on_c, 0, 65, 37
2, 23040, Note_on_c, 0, 55, 38
2, 23041, Note_on_c, 0, 64, 0
2, 23041, Note_on_c, 0, 60, 39
2, 23044, Note_on_c, 0, 68, 0
2, 23046, Note_on_c, 0, 76, 0
2, 23046, Note_on_c, 0, 73, 0
2, 23052, Note_on_c, 0, 36, 0
2, 23053, Note_on_c, 0, 24, 0
2, 23101, Control_c, 0, 64, 127
2, 23165, Note_on_c, 0, 81, 113
2, 23184, Note_on_c, 0, 81, 0
2, 23220, Note_on_c, 0, 81, 105
2, 23221, Note_on_c, 0, 55, 0
2, 23224, Note_on_c, 0, 60, 0
2, 23225, Note_on_c, 0, 62, 0
2, 23226, Note_on_c, 0, 65, 0
2, 23233, Note_on_c, 0, 81, 0
2, 23255, Note_on_c, 0, 81, 84
2, 23270, Note_on_c, 0, 81, 0
2, 23277, Note_on_c, 0, 79, 64
2, 23284, Control_c, 0, 64, 0
2, 23290, Note_on_c, 0, 79, 0
2, 23295, Note_on_c, 0, 63, 49
2, 23296, Note_on_c, 0, 68, 49
2, 23297, Note_on_c, 0, 57, 34
2, 23298, Note_on_c, 0, 81, 74
2, 23299, Note_on_c, 0, 61, 49
2, 23316, Control_c, 0, 64, 127
2, 23438, Note_on_c, 0, 57, 0
2, 23449, Note_on_c, 0, 68, 0
2, 23457, Note_on_c, 0, 81, 0
2, 23469, Note_on_c, 0, 84, 63
2, 23470, Note_on_c, 0, 72, 54
2, 23474, Note_on_c, 0, 61, 0
2, 23476, Note_on_c, 0, 63, 0
2, 23483, Note_on_c, 0, 72, 0
2, 23486, Note_on_c, 0, 84, 0
2, 23519, Control_c, 0, 64, 0
2, 23519, Note_on_c, 0, 86, 60
2, 23520, Note_on_c, 0, 62, 34
2, 23521, Note_on_c, 0, 81, 42
2, 23521, Note_on_c, 0, 77, 34
2, 23522, Note_on_c, 0, 55, 44
2, 23523, Note_on_c, 0, 74, 31
2, 23523, Note_on_c, 0, 60, 39
2, 23524, Note_on_c, 0, 65, 36
2, 23559, Control_c, 0, 64, 127
2, 23618, Note_on_c, 0, 86, 0
2, 23631, Note_on_c, 0, 81, 0
2, 23634, Note_on_c, 0, 65, 0
2, 23636, Note_on_c, 0, 77, 0
2, 23640, Note_on_c, 0, 74, 0
2, 23671, Note_on_c, 0, 62, 0
2, 23673, Note_on_c, 0, 60, 0
2, 23704, Note_on_c, 0, 55, 0
2, 23999, Note_on_c, 0, 60, 20
2, 24000, Note_on_c, 0, 63, 31
2, 24002, Note_on_c, 0, 74, 33
2, 24003, Note_on_c, 0, 55, 31
2, 24003, Control_c, 0, 64, 0
2, 24008, Note_on_c, 0, 57, 22
2, 24029, Control_c, 0, 64, 127
2, 24043, Note_on_c, 0, 74, 0
2, 24044, Note_on_c, 0, 55, 0
2, 24044, Note_on_c, 0, 57, 0
2, 24045, Note_on_c, 0, 60, 0
2, 24048, Note_on_c, 0, 63, 0
2, 24132, Note_on_c, 0, 63, 82
2, 24132, Note_on_c, 0, 55, 76
2, 24133, Note_on_c, 0, 86, 91
2, 24133, Note_on_c, 0, 60, 74
2, 24133, Note_on_c, 0, 57, 68
2, 24134, Note_on_c, 0, 74, 92
2, 24134, Note_on_c, 0, 81, 91
2, 24156, Note_on_c, 0, 86, 0
2, 24157, Note_on_c, 0, 74, 0
2, 24163, Note_on_c, 0, 55, 0
2, 24163, Note_on_c, 0, 81, 0
2, 24164, Note_on_c, 0, 57, 0
2, 24166, Note_on_c, 0, 63, 0
2, 24169, Note_on_c, 0, 60, 0
2, 24180, Note_on_c, 0, 87, 83
2, 24180, Note_on_c, 0, 63, 64
2, 24181, Note_on_c, 0, 75, 79
2, 24182, Note_on_c, 0, 55, 64
2, 24183, Note_on_c, 0, 81, 68
2, 24183, Note_on_c, 0, 60, 61
2, 24187, Control_c, 0, 64, 0
2, 24188, Note_on_c, 0, 60, 0
2, 24196, Note_on_c, 0, 87, 0
2, 24197, Note_on_c, 0, 81, 0
2, 24197, Note_on_c, 0, 75, 0
2, 24198, Note_on_c, 0, 63, 0
2, 24200, Note_on_c, 0, 55, 0
2, 24218, Note_on_c, 0, 63, 56
2, 24220, Control_c, 0, 64, 127
2, 24220, Note_on_c, 0, 55, 43
2, 24221, Note_on_c, 0, 81, 64
2, 24222, Note_on_c, 0, 86, 62
2, 24222, Note_on_c, 0, 74, 50
2, 24224, Control_c, 0, 64, 0
2, 24227, Note_on_c, 0, 60, 17
2, 24233, Note_on_c, 0, 60, 0
2, 24233, Note_on_c, 0, 81, 0
2, 24233, Note_on_c, 0, 86, 0
2, 24234, Note_on_c, 0, 74, 0
2, 24236, Note_on_c, 0, 55, 0
2, 24244, Note_on_c, 0, 63, 0
2, 24263, Note_on_c, 0, 80, 59
2, 24263, Note_on_c, 0, 84, 68
2, 24264, Note_on_c, 0, 72, 54
2, 24264, Note_on_c, 0, 60, 54
2, 24265, Note_on_c, 0, 64, 55
2, 24267, Note_on_c, 0, 78, 35
2, 24267, Note_on_c, 0, 54, 50
2, 24271, Note_on_c, 0, 78, 0
2, 24282, Note_on_c, 0, 80, 0
2, 24285, Note_on_c, 0, 81, 40
2, 24286, Note_on_c, 0, 60, 0
2, 24291, Note_on_c, 0, 54, 0
2, 24291, Note_on_c, 0, 64, 0
2, 24291, Note_on_c, 0, 72, 0
2, 24291, Note_on_c, 0, 81, 0
2, 24292, Note_on_c, 0, 84, 0
2, 24327, Note_on_c, 0, 69, 54
2, 24327, Note_on_c, 0, 81, 46
2, 24328, Note_on_c, 0, 64, 54
2, 24329, Note_on_c, 0, 77, 48
2, 24330, Note_on_c, 0, 60, 46
2, 24331, Note_on_c, 0, 54, 39
2, 24350, Control_c, 0, 64, 127
2, 24414, Note_on_c, 0, 54, 0
2, 24424, Note_on_c, 0, 69, 0
2, 24425, Note_on_c, 0, 77, 0
2, 24428, Note_on_c, 0, 81, 0
2, 24434, Note_on_c, 0, 54, 47
2, 24446, Note_on_c, 0, 60, 0
2, 24447, Note_on_c, 0, 64, 0
2, 24461, Note_on_c, 0, 54, 0
2, 24483, Note_on_c, 0, 82, 55
2, 24483, Note_on_c, 0, 63, 42
2, 24484, Control_c, 0, 64, 0
2, 24485, Note_on_c, 0, 70, 47
2, 24485, Note_on_c, 0, 75, 50
2, 24485, Note_on_c, 0, 59, 48
2, 24486, Note_on_c, 0, 56, 43
2, 24486, Note_on_c, 0, 79, 53
2, 24487, Note_on_c, 0, 53, 28
2, 24507, Control_c, 0, 64, 127
2, 24555, Note_on_c, 0, 63, 0
2, 24563, Note_on_c, 0, 59, 0
2, 24564, Note_on_c, 0, 75, 0
2, 24567, Note_on_c, 0, 79, 0
2, 24570, Note_on_c, 0, 70, 0
2, 24578, Note_on_c, 0, 56, 0
2, 24600, Note_on_c, 0, 56, 21
2, 24601, Note_on_c, 0, 63, 35
2, 24601, Note_on_c, 0, 79, 46
2, 24602, Note_on_c, 0, 70, 50
2, 24603, Note_on_c, 0, 75, 45
2, 24604, Note_on_c, 0, 59, 35
2, 24635, Note_on_c, 0, 79, 0
2, 24640, Note_on_c, 0, 82, 0
2, 24646, Note_on_c, 0, 59, 0
2, 24658, Note_on_c, 0, 70, 0
2, 24658, Note_on_c, 0, 75, 0
2, 24662, Note_on_c, 0, 63, 0
2, 24665, Note_on_c, 0, 53, 0
2, 24685, Note_on_c, 0, 56, 0
2, 24723, Note_on_c, 0, 74, 40
2, 24723, Note_on_c, 0, 70, 35
2, 24724, Control_c, 0, 64, 0
2, 24724, Note_on_c, 0, 58, 31
2, 24725, Note_on_c, 0, 65, 40
2, 24725, Note_on_c, 0, 62, 44
2, 24727, Note_on_c, 0, 52, 44
2, 24759, Control_c, 0, 64, 127
2, 24780, Note_on_c, 0, 65, 0
2, 24789, Note_on_c, 0, 62, 0
2, 24802, Note_on_c, 0, 58, 0
2, 24808, Note_on_c, 0, 74, 0
2, 24818, Note_on_c, 0, 70, 0
2, 24841, Note_on_c, 0, 70, 46
2, 24845, Note_on_c, 0, 58, 31
2, 24846, Note_on_c, 0, 64, 42
2, 24846, Note_on_c, 0, 65, 37
2, 24848, Note_on_c, 0, 60, 36
2, 24893, Note_on_c, 0, 52, 0
2, 24896, Note_on_c, 0, 65, 0
2, 24900, Note_on_c, 0, 70, 0
2, 24901, Note_on_c, 0, 64, 0
2, 24903, Note_on_c, 0, 60, 0
2, 24903, Note_on_c, 0, 58, 0
2, 24966, Control_c, 0, 64, 0
2, 24966, Note_on_c, 0, 62, 22
2, 24968, Note_on_c, 0, 69, 38
2, 24969, Note_on_c, 0, 57, 36
2, 24969, Note_on_c, 0, 53, 24
2, 24969, Note_on_c, 0, 64, 26
2, 24970, Note_on_c, 0, 60, 26
2, 24971, Note_on_c, 0, 67, 20
2, 25003, Control_c, 0, 64, 127
2, 25015, Note_on_c, 0, 64, 0
2, 25028, Note_on_c, 0, 67, 0
2, 25035, Note_on_c, 0, 69, 0
2, 25094, Note_on_c, 0, 62, 0
2, 25100, Note_on_c, 0, 57, 0
2, 25102, Note_on_c, 0, 60, 0
2, 25126, Note_on_c, 0, 72, 101
2, 25143, Note_on_c, 0, 72, 0
2, 25168, Note_on_c, 0, 72, 88
2, 25194, Note_on_c, 0, 72, 0
2, 25237, Note_on_c, 0, 81, 96
2, 25274, Note_on_c, 0, 81, 0
2, 25319, Note_on_c, 0, 81, 92
2, 25374, Note_on_c, 0, 81, 0
2, 25393, Note_on_c, 0, 81, 64
2, 25395, Note_on_c, 0, 53, 0
2, 25417, Note_on_c, 0, 81, 0
2, 25446, Note_on_c, 0, 81, 62
2, 25448, Control_c, 0, 64, 0
2, 25448, Note_on_c, 0, 53, 30
2, 25449, Note_on_c, 0, 74, 54
2, 25450, Note_on_c, 0, 62, 32
2, 25451, Note_on_c, 0, 59, 41
2, 25451, Note_on_c, 0, 55, 40
2, 25451, Note_on_c, 0, 71, 43
2, 25492, Control_c, 0, 64, 127
2, 25515, Note_on_c, 0, 59, 0
2, 25515, Note_on_c, 0, 62, 0
2, 25520, Note_on_c, 0, 74, 0
2, 25521, Note_on_c, 0, 71, 0
2, 25556, Note_on_c, 0, 59, 34
2, 25556, Note_on_c, 0, 71, 33
2, 25557, Note_on_c, 0, 62, 26
2, 25558, Note_on_c, 0, 74, 26
2, 25632, Note_on_c, 0, 71, 0
2, 25632, Note_on_c, 0, 81, 0
2, 25637, Note_on_c, 0, 53, 0
2, 25638, Note_on_c, 0, 74, 0
2, 25644, Note_on_c, 0, 62, 0
2, 25651, Note_on_c, 0, 55, 0
2, 25651, Note_on_c, 0, 59, 0
2, 25680, Note_on_c, 0, 79, 81
2, 25680, Note_on_c, 0, 53, 43
2, 25681, Note_on_c, 0, 71, 87
2, 25682, Note_on_c, 0, 59, 51
2, 25683, Note_on_c, 0, 62, 58
2, 25683, Note_on_c, 0, 55, 58
2, 25691, Control_c, 0, 64, 0
2, 25719, Control_c, 0, 64, 127
2, 25739, Note_on_c, 0, 59, 0
2, 25753, Note_on_c, 0, 62, 0
2, 25772, Note_on_c, 0, 71, 0
2, 25809, Note_on_c, 0, 71, 27
2, 25810, Note_on_c, 0, 62, 26
2, 25810, Note_on_c, 0, 59, 28
2, 25810, Note_on_c, 0, 67, 30
2, 25839, Note_on_c, 0, 79, 0
2, 25866, Note_on_c, 0, 62, 0
2, 25869, Note_on_c, 0, 67, 0
2, 25873, Note_on_c, 0, 59, 0
2, 25876, Note_on_c, 0, 53, 0
2, 25876, Note_on_c, 0, 71, 0
2, 25877, Note_on_c, 0, 55, 0
2, 25893, Note_on_c, 0, 77, 55
2, 25908, Note_on_c, 0, 77, 0
2, 25926, Note_on_c, 0, 74, 45
2, 25927, Note_on_c, 0, 79, 55
2, 25927, Note_on_c, 0, 67, 43
2, 25928, Control_c, 0, 64, 0
2, 25929, Note_on_c, 0, 62, 28
2, 25929, Note_on_c, 0, 52, 35
2, 25930, Note_on_c, 0, 59, 32
2, 25930, Note_on_c, 0, 55, 36
2, 25963, Control_c, 0, 64, 127
2, 26071, Note_on_c, 0, 62, 0
2, 26077, Note_on_c, 0, 74, 0
2, 26080, Note_on_c, 0, 79, 0
2, 26086, Note_on_c, 0, 67, 0
2, 26121, Note_on_c, 0, 59, 0
2, 26133, Note_on_c, 0, 55, 0
2, 26221, Note_on_c, 0, 62, 46
2, 26225, Note_on_c, 0, 62, 0
2, 26226, Note_on_c, 0, 52, 0
2, 26247, Note_on_c, 0, 67, 70
2, 26249, Control_c, 0, 64, 0
2, 26257, Note_on_c, 0, 67, 0
2, 26278, Note_on_c, 0, 71, 66
2, 26290, Note_on_c, 0, 71, 0
2, 26308, Note_on_c, 0, 73, 68
2, 26319, Note_on_c, 0, 73, 0
2, 26337, Note_on_c, 0, 77, 66
2, 26349, Note_on_c, 0, 77, 0
2, 26362, Note_on_c, 0, 82, 69
2, 26376, Note_on_c, 0, 82, 0
2, 26390, Note_on_c, 0, 66, 34
2, 26390, Note_on_c, 0, 61, 45
2, 26392, Note_on_c, 0, 55, 36
2, 26392, Note_on_c, 0, 84, 38
2, 26404, Note_on_c, 0, 84, 0
2, 26416, Note_on_c, 0, 89, 51
2, 26431, Note_on_c, 0, 89, 0
2, 26446, Note_on_c, 0, 94, 55
2, 26460, Note_on_c, 0, 94, 0
2, 26471, Note_on_c, 0, 96, 72
2, 26488, Note_on_c, 0, 96, 0
2, 26500, Note_on_c, 0, 94, 55
2, 26540, Control_c, 0, 64, 127
2, 26549, Note_on_c, 0, 94, 0
2, 26569, Note_on_c, 0, 55, 0
2, 26595, Note_on_c, 0, 55, 48
2, 26607, Note_on_c, 0, 55, 0
2, 26614, Note_on_c, 0, 66, 0
2, 26616, Note_on_c, 0, 61, 0
2, 26654, Note_on_c, 0, 85, 82
2, 26654, Note_on_c, 0, 93, 87
2, 26655, Note_on_c, 0, 55, 68
2, 26655, Note_on_c, 0, 81, 84
2, 26656, Note_on_c, 0, 61, 55
2, 26656, Control_c, 0, 64, 0
2, 26656, Note_on_c, 0, 88, 69
2, 26656, Note_on_c, 0, 65, 71
2, 26681, Control_c, 0, 64, 127
2, 26697, Note_on_c, 0, 55, 0
2, 26697, Note_on_c, 0, 85, 0
2, 26699, Note_on_c, 0, 81, 0
2, 26700, Note_on_c, 0, 93, 0
2, 26701, Note_on_c, 0, 88, 0
2, 26703, Note_on_c, 0, 65, 0
2, 26707, Note_on_c, 0, 61, 0
2, 26720, Note_on_c, 0, 55, 68
2, 26720, Note_on_c, 0, 61, 50
2, 26720, Note_on_c, 0, 93, 84
2, 26720, Note_on_c, 0, 85, 72
2, 26721, Note_on_c, 0, 81, 74
2, 26721, Note_on_c, 0, 65, 64
2, 26723, Note_on_c, 0, 88, 69
2, 26749, Note_on_c, 0, 81, 0
2, 26752, Note_on_c, 0, 93, 0
2, 26755, Note_on_c, 0, 88, 0
2, 26756, Note_on_c, 0, 85, 0
2, 26758, Note_on_c, 0, 55, 0
2, 26759, Note_on_c, 0, 65, 0
2, 26763, Note_on_c, 0, 61, 0
2, 26836, Note_on_c, 0, 89, 71
2, 26836, Note_on_c, 0, 61, 56
2, 26838, Note_on_c, 0, 55, 55
2, 26839, Note_on_c, 0, 64, 51
2, 26839, Note_on_c, 0, 77, 47
2, 26839, Note_on_c, 0, 84, 61
2, 26849, Note_on_c, 0, 64, 0
2, 26851, Note_on_c, 0, 55, 0
2, 26854, Note_on_c, 0, 61, 0
2, 26856, Note_on_c, 0, 77, 0
2, 26857, Note_on_c, 0, 84, 0
2, 26862, Note_on_c, 0, 89, 0
2, 26894, Note_on_c, 0, 88, 64
2, 26895, Note_on_c, 0, 76, 55
2, 26896, Control_c, 0, 64, 0
2, 26896, Note_on_c, 0, 81, 64
2, 26896, Note_on_c, 0, 60, 48
2, 26897, Note_on_c, 0, 84, 60
2, 26897, Note_on_c, 0, 50, 33
2, 26897, Note_on_c, 0, 57, 42
2, 26897, Note_on_c, 0, 53, 49
2, 26929, Control_c, 0, 64, 127
2, 26986, Note_on_c, 0, 88, 0
2, 26990, Note_on_c, 0, 84, 0
2, 26993, Note_on_c, 0, 81, 0
2, 27000, Note_on_c, 0, 76, 0
2, 27014, Note_on_c, 0, 50, 0
2, 27015, Note_on_c, 0, 53, 0
2, 27019, Note_on_c, 0, 60, 0
2, 27019, Note_on_c, 0, 57, 0
2, 27065, Note_on_c, 0, 79, 88
2, 27066, Note_on_c, 0, 72, 88
2, 27066, Note_on_c, 0, 69, 89
2, 27066, Note_on_c, 0, 64, 74
2, 27084, Control_c, 0, 64, 0
2, 27099, Note_on_c, 0, 63, 39
2, 27101, Control_c, 0, 64, 127
2, 27102, Note_on_c, 0, 79, 0
2, 27104, Note_on_c, 0, 72, 0
2, 27107, Note_on_c, 0, 64, 0
2, 27110, Note_on_c, 0, 69, 0
2, 27121, Note_on_c, 0, 61, 36
2, 27124, Note_on_c, 0, 63, 0
2, 27140, Note_on_c, 0, 61, 0
2, 27142, Note_on_c, 0, 76, 56
2, 27142, Note_on_c, 0, 60, 54
2, 27144, Note_on_c, 0, 65, 40
2, 27145, Note_on_c, 0, 69, 49
2, 27145, Control_c, 0, 64, 0
2, 27145, Note_on_c, 0, 72, 49
2, 27193, Control_c, 0, 64, 127
2, 27211, Note_on_c, 0, 65, 0
2, 27211, Note_on_c, 0, 76, 0
2, 27218, Note_on_c, 0, 69, 0
2, 27219, Note_on_c, 0, 72, 0
2, 27254, Note_on_c, 0, 77, 58
2, 27258, Note_on_c, 0, 69, 33
2, 27259, Note_on_c, 0, 65, 31
2, 27289, Note_on_c, 0, 69, 0
2, 27299, Note_on_c, 0, 65, 0
2, 27315, Note_on_c, 0, 69, 41
2, 27318, Note_on_c, 0, 60, 0
2, 27327, Note_on_c, 0, 77, 0
2, 27343, Note_on_c, 0, 69, 0
2, 27370, Note_on_c, 0, 64, 31
2, 27371, Note_on_c, 0, 59, 38
2, 27371, Note_on_c, 0, 68, 50
2, 27373, Note_on_c, 0, 53, 36
2, 27376, Control_c, 0, 64, 0
2, 27411, Control_c, 0, 64, 127
2, 27475, Note_on_c, 0, 64, 0
2, 27516, Note_on_c, 0, 53, 0
2, 27525, Note_on_c, 0, 59, 0
2, 27544, Note_on_c, 0, 67, 70
2, 27547, Note_on_c, 0, 64, 53
2, 27547, Note_on_c, 0, 53, 42
2, 27547, Note_on_c, 0, 59, 54
2, 27549, Note_on_c, 0, 68, 0
2, 27556, Note_on_c, 0, 64, 0
2, 27558, Note_on_c, 0, 53, 0
2, 27559, Note_on_c, 0, 67, 0
2, 27561, Note_on_c, 0, 59, 0
2, 27605, Note_on_c, 0, 79, 75
2, 27606, Note_on_c, 0, 71, 75
2, 27607, Note_on_c, 0, 67, 75
2, 27608, Note_on_c, 0, 59, 66
2, 27608, Note_on_c, 0, 53, 71
2, 27609, Control_c, 0, 64, 0
2, 27609, Note_on_c, 0, 64, 69
2, 27636, Control_c, 0, 64, 127
2, 27695, Note_on_c, 0, 79, 0
2, 27700, Note_on_c, 0, 71, 0
2, 27701, Note_on_c, 0, 64, 0
2, 27709, Note_on_c, 0, 59, 0
2, 27716, Note_on_c, 0, 67, 0
2, 27718, Note_on_c, 0, 53, 0
2, 27781, Note_on_c, 0, 74, 67
2, 27782, Control_c, 0, 64, 0
2, 27782, Note_on_c, 0, 71, 60
2, 27782, Note_on_c, 0, 68, 64
2, 27782, Note_on_c, 0, 64, 71
2, 27783, Note_on_c, 0, 59, 57
2, 27783, Note_on_c, 0, 53, 53
2, 27811, Note_on_c, 0, 64, 0
2, 27811, Control_c, 0, 64, 127
2, 27814, Note_on_c, 0, 59, 0
2, 27814, Note_on_c, 0, 53, 0
2, 27818, Note_on_c, 0, 71, 0
2, 27820, Note_on_c, 0, 74, 0
2, 27821, Note_on_c, 0, 68, 0
2, 27851, Note_on_c, 0, 74, 54
2, 27851, Note_on_c, 0, 71, 54
2, 27852, Control_c, 0, 64, 0
2, 27852, Note_on_c, 0, 67, 55
2, 27853, Note_on_c, 0, 64, 54
2, 27854, Note_on_c, 0, 57, 45
2, 27855, Note_on_c, 0, 52, 43
2, 27878, Control_c, 0, 64, 127
2, 27899, Note_on_c, 0, 64, 0
2, 27899, Note_on_c, 0, 74, 0
2, 27907, Note_on_c, 0, 67, 0
2, 27910, Note_on_c, 0, 71, 0
2, 27916, Note_on_c, 0, 76, 72
2, 27945, Note_on_c, 0, 57, 0
2, 27951, Note_on_c, 0, 76, 0
2, 27974, Note_on_c, 0, 76, 57
2, 28039, Note_on_c, 0, 52, 0
2, 28040, Note_on_c, 0, 76, 0
2, 28134, Note_on_c, 0, 66, 37
2, 28136, Note_on_c, 0, 62, 37
2, 28136, Note_on_c, 0, 74, 22
2, 28137, Note_on_c, 0, 48, 31
2, 28137, Note_on_c, 0, 54, 34
2, 28141, Control_c, 0, 64, 0
2, 28159, Note_on_c, 0, 66, 0
2, 28161, Note_on_c, 0, 62, 0
2, 28170, Note_on_c, 0, 62, 26
2, 28171, Note_on_c, 0, 67, 43
2, 28172, Note_on_c, 0, 54, 0
2, 28172, Note_on_c, 0, 55, 53
2, 28181, Note_on_c, 0, 67, 0
2, 28188, Note_on_c, 0, 62, 0
2, 28200, Note_on_c, 0, 55, 0
2, 28200, Note_on_c, 0, 56, 46
2, 28201, Note_on_c, 0, 68, 49
2, 28204, Note_on_c, 0, 74, 0
2, 28221, Note_on_c, 0, 68, 0
2, 28232, Note_on_c, 0, 64, 37
2, 28234, Note_on_c, 0, 69, 58
2, 28235, Note_on_c, 0, 57, 48
2, 28237, Note_on_c, 0, 56, 0
2, 28247, Note_on_c, 0, 48, 0
2, 28255, Control_c, 0, 64, 127
2, 28270, Note_on_c, 0, 64, 0
2, 28272, Note_on_c, 0, 48, 37
2, 28273, Note_on_c, 0, 69, 0
2, 28298, Note_on_c, 0, 48, 0
2, 28305, Note_on_c, 0, 57, 0
2, 28327, Control_c, 0, 64, 0
2, 28327, Note_on_c, 0, 62, 45
2, 28328, Note_on_c, 0, 47, 45
2, 28329, Note_on_c, 0, 69, 47
2, 28331, Note_on_c, 0, 57, 30
2, 28353, Control_c, 0, 64, 127
2, 28354, Note_on_c, 0, 47, 0
2, 28358, Note_on_c, 0, 62, 0
2, 28364, Note_on_c, 0, 57, 0
2, 28375, Note_on_c, 0, 69, 0
2, 28448, Note_on_c, 0, 65, 39
2, 28449, Note_on_c, 0, 57, 36
2, 28450, Note_on_c, 0, 62, 34
2, 28463, Note_on_c, 0, 65, 0
2, 28491, Note_on_c, 0, 67, 62
2, 28505, Note_on_c, 0, 67, 0
2, 28518, Note_on_c, 0, 57, 0
2, 28520, Note_on_c, 0, 62, 0
2, 28539, Note_on_c, 0, 79, 96
2, 28568, Note_on_c, 0, 79, 0
2, 28575, Note_on_c, 0, 62, 42
2, 28576, Note_on_c, 0, 67, 42
2, 28576, Note_on_c, 0, 56, 44
2, 28578, Note_on_c, 0, 74, 79
2, 28578, Note_on_c, 0, 77, 72
2, 28580, Control_c, 0, 64, 0
2, 28614, Control_c, 0, 64, 127
2, 28662, Note_on_c, 0, 67, 0
2, 28673, Note_on_c, 0, 62, 0
2, 28728, Note_on_c, 0, 74, 0
2, 28749, Note_on_c, 0, 77, 0
2, 28756, Note_on_c, 0, 56, 0
2, 28787, Note_on_c, 0, 76, 73
2, 28808, Note_on_c, 0, 76, 0
2, 28814, Note_on_c, 0, 71, 51
2, 28816, Note_on_c, 0, 59, 30
2, 28816, Note_on_c, 0, 55, 32
2, 28817, Note_on_c, 0, 64, 22
2, 28817, Note_on_c, 0, 60, 34
2, 28820, Control_c, 0, 64, 0
2, 28829, Note_on_c, 0, 71, 0
2, 28852, Note_on_c, 0, 73, 62
2, 28864, Note_on_c, 0, 73, 0
2, 28864, Note_on_c, 0, 74, 68
2, 28938, Control_c, 0, 64, 127
2, 29010, Note_on_c, 0, 74, 0
2, 29033, Note_on_c, 0, 60, 0
2, 29033, Note_on_c, 0, 72, 55
2, 29035, Note_on_c, 0, 59, 0
2, 29035, Note_on_c, 0, 64, 0
2, 29045, Note_on_c, 0, 72, 0
2, 29046, Note_on_c, 0, 74, 60
2, 29047, Control_c, 0, 64, 0
2, 29063, Control_c, 0, 64, 127
2, 29064, Note_on_c, 0, 74, 0
2, 29065, Note_on_c, 0, 72, 45
2, 29082, Note_on_c, 0, 72, 0
2, 29085, Note_on_c, 0, 71, 49
2, 29092, Control_c, 0, 64, 0
2, 29096, Note_on_c, 0, 71, 0
2, 29103, Note_on_c, 0, 59, 14
2, 29104, Note_on_c, 0, 64, 35
2, 29105, Note_on_c, 0, 60, 33
2, 29106, Note_on_c, 0, 72, 58
2, 29123, Control_c, 0, 64, 127
2, 29160, Note_on_c, 0, 59, 0
2, 29167, Note_on_c, 0, 60, 0
2, 29168, Note_on_c, 0, 64, 0
2, 29174, Note_on_c, 0, 55, 0
2, 29190, Note_on_c, 0, 72, 0
2, 29217, Note_on_c, 0, 63, 49
2, 29219, Note_on_c, 0, 71, 65
2, 29221, Note_on_c, 0, 54, 35
2, 29222, Note_on_c, 0, 60, 33
2, 29223, Note_on_c, 0, 72, 62
2, 29224, Note_on_c, 0, 57, 32
2, 29230, Note_on_c, 0, 71, 0
2, 29231, Note_on_c, 0, 60, 0
2, 29237, Note_on_c, 0, 57, 0
2, 29244, Note_on_c, 0, 63, 0
2, 29248, Note_on_c, 0, 71, 50
2, 29250, Note_on_c, 0, 72, 0
2, 29250, Note_on_c, 0, 54, 0
2, 29269, Note_on_c, 0, 71, 0
2, 29269, Control_c, 0, 64, 0
2, 29272, Note_on_c, 0, 64, 35
2, 29272, Note_on_c, 0, 60, 36
2, 29273, Note_on_c, 0, 53, 37
2, 29274, Note_on_c, 0, 57, 28
2, 29276, Note_on_c, 0, 69, 57
2, 29306, Control_c, 0, 64, 127
2, 29372, Note_on_c, 0, 64, 0
2, 29373, Note_on_c, 0, 57, 0
2, 29376, Note_on_c, 0, 60, 0
2, 29406, Note_on_c, 0, 64, 26
2, 29407, Note_on_c, 0, 60, 32
2, 29409, Note_on_c, 0, 57, 27
2, 29463, Note_on_c, 0, 60, 0
2, 29465, Note_on_c, 0, 69, 0
2, 29471, Note_on_c, 0, 64, 0
2, 29472, Note_on_c, 0, 57, 0
2, 29478, Note_on_c, 0, 53, 0
2, 29515, Control_c, 0, 64, 0
2, 29586, Note_on_c, 0, 80, 55
2, 29586, Note_on_c, 0, 64, 58
2, 29587, Note_on_c, 0, 59, 58
2, 29587, Note_on_c, 0, 76, 69
2, 29587, Note_on_c, 0, 53, 54
2, 29587, Note_on_c, 0, 71, 69
2, 29587, Note_on_c, 0, 83, 78
2, 29595, Control_c, 0, 64, 127
2, 29612, Note_on_c, 0, 71, 0
2, 29615, Note_on_c, 0, 76, 0
2, 29617, Note_on_c, 0, 64, 0
2, 29621, Note_on_c, 0, 53, 0
2, 29621, Note_on_c, 0, 83, 0
2, 29622, Note_on_c, 0, 80, 0
2, 29625, Note_on_c, 0, 59, 0
2, 29705, Note_on_c, 0, 86, 77
2, 29705, Note_on_c, 0, 64, 53
2, 29705, Control_c, 0, 64, 0
2, 29706, Note_on_c, 0, 59, 50
2, 29706, Note_on_c, 0, 53, 49
2, 29707, Note_on_c, 0, 74, 57
2, 29708, Note_on_c, 0, 79, 51
2, 29724, Note_on_c, 0, 59, 0
2, 29727, Control_c, 0, 64, 127
2, 29729, Note_on_c, 0, 64, 0
2, 29732, Note_on_c, 0, 74, 0
2, 29735, Note_on_c, 0, 86, 0
2, 29736, Note_on_c, 0, 53, 0
2, 29738, Note_on_c, 0, 79, 0
2, 29811, Control_c, 0, 64, 0
2, 29821, Note_on_c, 0, 62, 43
2, 29822, Note_on_c, 0, 58, 40
2, 29822, Note_on_c, 0, 57, 38
2, 29822, Note_on_c, 0, 84, 68
2, 29823, Note_on_c, 0, 52, 50
2, 29824, Note_on_c, 0, 72, 53
2, 29825, Note_on_c, 0, 79, 54
2, 29831, Note_on_c, 0, 79, 0
2, 29832, Note_on_c, 0, 72, 0
2, 29833, Note_on_c, 0, 62, 0
2, 29833, Note_on_c, 0, 57, 0
2, 29833, Note_on_c, 0, 84, 0
2, 29835, Note_on_c, 0, 58, 0
2, 29835, Note_on_c, 0, 52, 0
2, 29886, Note_on_c, 0, 84, 53
2, 29887, Note_on_c, 0, 62, 47
2, 29888, Note_on_c, 0, 79, 46
2, 29889, Note_on_c, 0, 57, 46
2, 29889, Note_on_c, 0, 58, 32
2, 29889, Note_on_c, 0, 72, 36
2, 29890, Control_c, 0, 64, 127
2, 29891, Note_on_c, 0, 52, 45
2, 29939, Note_on_c, 0, 52, 0
2, 29940, Note_on_c, 0, 57, 0
2, 29944, Note_on_c, 0, 58, 0
2, 29947, Note_on_c, 0, 79, 0
2, 29947, Note_on_c, 0, 72, 0
2, 29948, Note_on_c, 0, 62, 0
2, 29954, Note_on_c, 0, 84, 0
2, 30062, Note_on_c, 0, 63, 55
2, 30064, Note_on_c, 0, 60, 61
2, 30064, Note_on_c, 0, 78, 57
2, 30064, Note_on_c, 0, 54, 48
2, 30064, Note_on_c, 0, 84, 68
2, 30065, Note_on_c, 0, 81, 62
2, 30065, Note_on_c, 0, 57, 54
2, 30065, Note_on_c, 0, 72, 63
2, 30068, Control_c, 0, 64, 0
2, 30092, Control_c, 0, 64, 127
2, 30117, Note_on_c, 0, 84, 0
2, 30118, Note_on_c, 0, 72, 0
2, 30120, Note_on_c, 0, 63, 0
2, 30121, Note_on_c, 0, 78, 0
2, 30123, Note_on_c, 0, 81, 0
2, 30124, Note_on_c, 0, 60, 0
2, 30144, Note_on_c, 0, 63, 46
2, 30146, Note_on_c, 0, 84, 67
2, 30146, Note_on_c, 0, 78, 53
2, 30147, Note_on_c, 0, 72, 56
2, 30147, Note_on_c, 0, 60, 44
2, 30148, Note_on_c, 0, 81, 55
2, 30159, Note_on_c, 0, 72, 0
2, 30165, Note_on_c, 0, 78, 0
2, 30168, Note_on_c, 0, 81, 0
2, 30172, Note_on_c, 0, 84, 0
2, 30185, Note_on_c, 0, 63, 0
2, 30190, Note_on_c, 0, 60, 0
2, 30190, Note_on_c, 0, 54, 0
2, 30190, Note_on_c, 0, 57, 0
2, 30200, Note_on_c, 0, 54, 59
2, 30200, Note_on_c, 0, 96, 83
2, 30214, Note_on_c, 0, 96, 0
2, 30229, Note_on_c, 0, 54, 0
2, 30233, Note_on_c, 0, 90, 29
2, 30238, Note_on_c, 0, 90, 0
2, 30249, Note_on_c, 0, 93, 68
2, 30250, Control_c, 0, 64, 0
2, 30251, Note_on_c, 0, 53, 44
2, 30251, Note_on_c, 0, 62, 53
2, 30251, Note_on_c, 0, 57, 43
2, 30251, Note_on_c, 0, 58, 45
2, 30252, Note_on_c, 0, 89, 54
2, 30252, Note_on_c, 0, 86, 51
2, 30253, Note_on_c, 0, 81, 52
2, 30277, Control_c, 0, 64, 127
2, 30323, Note_on_c, 0, 93, 0
2, 30327, Note_on_c, 0, 58, 0
2, 30327, Note_on_c, 0, 86, 0
2, 30328, Note_on_c, 0, 57, 0
2, 30329, Note_on_c, 0, 89, 0
2, 30330, Note_on_c, 0, 81, 0
2, 30331, Note_on_c, 0, 62, 0
2, 30421, Note_on_c, 0, 89, 62
2, 30423, Note_on_c, 0, 62, 36
2, 30423, Note_on_c, 0, 77, 50
2, 30424, Note_on_c, 0, 82, 49
2, 30424, Note_on_c, 0, 58, 38
2, 30425, Note_on_c, 0, 86, 39
2, 30434, Note_on_c, 0, 86, 0
2, 30438, Note_on_c, 0, 53, 0
2, 30440, Note_on_c, 0, 82, 0
2, 30440, Note_on_c, 0, 77, 0
2, 30441, Note_on_c, 0, 89, 0
2, 30443, Note_on_c, 0, 58, 0
2, 30443, Note_on_c, 0, 62, 0
2, 30484, Note_on_c, 0, 88, 65
2, 30486, Note_on_c, 0, 85, 51
2, 30486, Note_on_c, 0, 61, 51
2, 30486, Note_on_c, 0, 76, 57
2, 30487, Control_c, 0, 64, 0
2, 30488, Note_on_c, 0, 58, 33
2, 30488, Note_on_c, 0, 81, 51
2, 30489, Note_on_c, 0, 64, 35
2, 30516, Control_c, 0, 64, 127
2, 30546, Note_on_c, 0, 64, 0
2, 30561, Note_on_c, 0, 81, 0
2, 30569, Note_on_c, 0, 58, 0
2, 30570, Note_on_c, 0, 61, 0
2, 30583, Note_on_c, 0, 76, 0
2, 30584, Note_on_c, 0, 85, 0
2, 30606, Note_on_c, 0, 88, 0
2, 30608, Note_on_c, 0, 76, 40
2, 30608, Note_on_c, 0, 81, 48
2, 30610, Note_on_c, 0, 64, 32
2, 30610, Note_on_c, 0, 61, 37
2, 30612, Note_on_c, 0, 58, 32
2, 30636, Note_on_c, 0, 81, 0
2, 30651, Note_on_c, 0, 76, 0
2, 30673, Note_on_c, 0, 64, 0
2, 30682, Note_on_c, 0, 61, 0
2, 30684, Note_on_c, 0, 58, 0
2, 30723, Note_on_c, 0, 67, 32
2, 30724, Note_on_c, 0, 69, 44
2, 30724, Note_on_c, 0, 64, 33
2, 30725, Note_on_c, 0, 60, 36
2, 30726, Note_on_c, 0, 53, 32
2, 30727, Note_on_c, 0, 57, 35
2, 30727, Control_c, 0, 64, 0
2, 30762, Control_c, 0, 64, 127
2, 30793, Note_on_c, 0, 67, 0
2, 30799, Note_on_c, 0, 64, 0
2, 30808, Note_on_c, 0, 57, 0
2, 30809, Note_on_c, 0, 60, 0
2, 30811, Note_on_c, 0, 69, 0
2, 30845, Note_on_c, 0, 60, 37
2, 30846, Note_on_c, 0, 64, 31
2, 30847, Note_on_c, 0, 57, 30
2, 30894, Note_on_c, 0, 64, 0
2, 30895, Note_on_c, 0, 57, 0
2, 30895, Note_on_c, 0, 53, 0
2, 30898, Note_on_c, 0, 60, 0
2, 30921, Note_on_c, 0, 69, 95
2, 30941, Note_on_c, 0, 69, 0
2, 30943, Note_on_c, 0, 67, 71
2, 30955, Note_on_c, 0, 67, 0
2, 30970, Note_on_c, 0, 69, 85
2, 30970, Note_on_c, 0, 57, 58
2, 30971, Note_on_c, 0, 63, 52
2, 30972, Control_c, 0, 64, 0
2, 30973, Note_on_c, 0, 61, 52
2, 30973, Note_on_c, 0, 66, 42
2, 31012, Control_c, 0, 64, 127
2, 31085, Note_on_c, 0, 66, 0
2, 31087, Note_on_c, 0, 57, 0
2, 31100, Note_on_c, 0, 63, 0
2, 31108, Note_on_c, 0, 61, 0
2, 31155, Note_on_c, 0, 72, 62
2, 31156, Note_on_c, 0, 63, 18
2, 31161, Note_on_c, 0, 69, 0
2, 31165, Note_on_c, 0, 63, 0
2, 31189, Note_on_c, 0, 72, 0
2, 31208, Control_c, 0, 64, 0
2, 31213, Note_on_c, 0, 74, 53
2, 31214, Note_on_c, 0, 55, 34
2, 31215, Note_on_c, 0, 62, 30
2, 31215, Note_on_c, 0, 65, 33
2, 31217, Note_on_c, 0, 60, 31
2, 31234, Control_c, 0, 64, 127
2, 31269, Note_on_c, 0, 74, 0
2, 31346, Note_on_c, 0, 87, 78
2, 31358, Note_on_c, 0, 87, 0
2, 31365, Control_c, 0, 64, 0
2, 31378, Note_on_c, 0, 86, 69
2, 31389, Note_on_c, 0, 86, 0
2, 31405, Note_on_c, 0, 82, 67
2, 31421, Note_on_c, 0, 82, 0
2, 31422, Note_on_c, 0, 65, 0
2, 31433, Note_on_c, 0, 77, 44
2, 31444, Note_on_c, 0, 77, 0
2, 31454, Note_on_c, 0, 62, 0
2, 31463, Note_on_c, 0, 75, 57
2, 31473, Note_on_c, 0, 65, 29
2, 31475, Note_on_c, 0, 62, 16
2, 31480, Note_on_c, 0, 75, 0
2, 31489, Note_on_c, 0, 65, 0
2, 31490, Note_on_c, 0, 74, 36
2, 31501, Note_on_c, 0, 74, 0
2, 31518, Note_on_c, 0, 70, 47
2, 31538, Note_on_c, 0, 60, 0
2, 31539, Note_on_c, 0, 70, 0
2, 31549, Note_on_c, 0, 65, 30
2, 31554, Control_c, 0, 64, 127
2, 31570, Note_on_c, 0, 65, 0
2, 31571, Note_on_c, 0, 62, 0
2, 31590, Note_on_c, 0, 62, 19
2, 31593, Note_on_c, 0, 65, 46
2, 31596, Note_on_c, 0, 60, 25
2, 31608, Note_on_c, 0, 65, 0
2, 31626, Note_on_c, 0, 60, 0
2, 31630, Note_on_c, 0, 65, 49
2, 31632, Note_on_c, 0, 55, 0
2, 31646, Note_on_c, 0, 65, 0
2, 31648, Note_on_c, 0, 62, 0
2, 31663, Note_on_c, 0, 65, 41
2, 31673, Note_on_c, 0, 65, 0
2, 31690, Note_on_c, 0, 65, 43
2, 31700, Note_on_c, 0, 65, 0
2, 31719, Note_on_c, 0, 65, 54
2, 31721, Note_on_c, 0, 63, 28
2, 31724, Note_on_c, 0, 60, 26
2, 31724, Note_on_c, 0, 55, 15
2, 31726, Control_c, 0, 64, 0
2, 31726, Note_on_c, 0, 57, 33
2, 31765, Control_c, 0, 64, 127
2, 31784, Note_on_c, 0, 57, 0
2, 31794, Note_on_c, 0, 65, 0
2, 31798, Note_on_c, 0, 60, 0
2, 31816, Note_on_c, 0, 63, 0
2, 31863, Note_on_c, 0, 63, 61
2, 31863, Note_on_c, 0, 74, 91
2, 31865, Note_on_c, 0, 67, 88
2, 31869, Note_on_c, 0, 60, 30
2, 31870, Note_on_c, 0, 57, 32
2, 31886, Note_on_c, 0, 60, 0
2, 31887, Note_on_c, 0, 74, 0
2, 31895, Note_on_c, 0, 75, 74
2, 31899, Note_on_c, 0, 57, 0
2, 31901, Note_on_c, 0, 55, 0
2, 31906, Note_on_c, 0, 67, 0
2, 31909, Note_on_c, 0, 63, 0
2, 31912, Note_on_c, 0, 75, 0
2, 31928, Note_on_c, 0, 74, 63
2, 31929, Note_on_c, 0, 66, 61
2, 31930, Note_on_c, 0, 60, 35
2, 31930, Note_on_c, 0, 54, 50
2, 31930, Note_on_c, 0, 64, 48
2, 31932, Control_c, 0, 64, 0
2, 31961, Control_c, 0, 64, 127
2, 31998, Note_on_c, 0, 64, 0
2, 32000, Note_on_c, 0, 74, 0
2, 32003, Note_on_c, 0, 66, 0
2, 32006, Note_on_c, 0, 60, 0
2, 32055, Note_on_c, 0, 72, 53
2, 32055, Note_on_c, 0, 66, 43
2, 32056, Note_on_c, 0, 62, 34
2, 32056, Note_on_c, 0, 63, 35
2, 32057, Note_on_c, 0, 60, 30
2, 32094, Note_on_c, 0, 60, 0
2, 32106, Note_on_c, 0, 62, 0
2, 32116, Note_on_c, 0, 54, 0
2, 32118, Note_on_c, 0, 63, 0
2, 32120, Note_on_c, 0, 72, 0
2, 32121, Note_on_c, 0, 69, 65
2, 32133, Note_on_c, 0, 69, 0
2, 32135, Note_on_c, 0, 66, 0
2, 32178, Note_on_c, 0, 70, 51
2, 32180, Note_on_c, 0, 67, 41
2, 32181, Note_on_c, 0, 63, 42
2, 32182, Note_on_c, 0, 53, 38
2, 32182, Note_on_c, 0, 59, 35
2, 32183, Control_c, 0, 64, 0
2, 32207, Control_c, 0, 64, 127
2, 32208, Note_on_c, 0, 63, 0
2, 32209, Note_on_c, 0, 67, 0
2, 32213, Note_on_c, 0, 70, 0
2, 32241, Note_on_c, 0, 82, 59
2, 32262, Note_on_c, 0, 59, 0
2, 32290, Note_on_c, 0, 82, 0
2, 32302, Note_on_c, 0, 79, 42
2, 32302, Note_on_c, 0, 63, 30
2, 32302, Note_on_c, 0, 59, 32
2, 32303, Note_on_c, 0, 71, 37
2, 32303, Note_on_c, 0, 75, 37
2, 32343, Note_on_c, 0, 71, 0
2, 32346, Note_on_c, 0, 53, 0
2, 32350, Note_on_c, 0, 79, 0
2, 32355, Note_on_c, 0, 59, 0
2, 32360, Note_on_c, 0, 75, 0
2, 32361, Note_on_c, 0, 63, 0
2, 32419, Note_on_c, 0, 77, 42
2, 32420, Note_on_c, 0, 74, 37
2, 32420, Note_on_c, 0, 70, 38
2, 32421, Note_on_c, 0, 64, 31
2, 32421, Note_on_c, 0, 58, 35
2, 32421, Note_on_c, 0, 67, 22
2, 32426, Control_c, 0, 64, 0
2, 32440, Note_on_c, 0, 64, 0
2, 32447, Note_on_c, 0, 58, 0
2, 32447, Control_c, 0, 64, 127
2, 32462, Note_on_c, 0, 74, 0
2, 32463, Note_on_c, 0, 77, 0
2, 32471, Note_on_c, 0, 70, 0
2, 32475, Note_on_c, 0, 48, 43
2, 32481, Note_on_c, 0, 67, 0
2, 32536, Note_on_c, 0, 70, 46
2, 32540, Note_on_c, 0, 62, 36
2, 32542, Note_on_c, 0, 58, 33
2, 32542, Note_on_c, 0, 65, 36
2, 32586, Note_on_c, 0, 58, 0
2, 32595, Note_on_c, 0, 62, 0
2, 32597, Note_on_c, 0, 65, 0
2, 32598, Note_on_c, 0, 55, 34
2, 32601, Note_on_c, 0, 70, 0
2, 32648, Note_on_c, 0, 55, 0
2, 32658, Note_on_c, 0, 69, 43
2, 32659, Note_on_c, 0, 60, 35
2, 32659, Note_on_c, 0, 64, 44
2, 32660, Note_on_c, 0, 57, 34
2, 32663, Control_c, 0, 64, 0
2, 32692, Control_c, 0, 64, 127
2, 32701, Note_on_c, 0, 60, 0
2, 32716, Note_on_c, 0, 64, 0
2, 32722, Note_on_c, 0, 69, 0
2, 32854, Note_on_c, 0, 57, 0
2, 32886, Note_on_c, 0, 57, 37
2, 32942, Note_on_c, 0, 72, 103
2, 32965, Note_on_c, 0, 72, 0
2, 32983, Note_on_c, 0, 72, 82
2, 32997, Note_on_c, 0, 72, 0
2, 33031, Note_on_c, 0, 81, 91
2, 33043, Note_on_c, 0, 48, 0
2, 33051, Note_on_c, 0, 81, 0
2, 33052, Note_on_c, 0, 57, 0
2, 33074, Note_on_c, 0, 81, 87
2, 33099, Note_on_c, 0, 81, 0
2, 33113, Note_on_c, 0, 53, 47
2, 33115, Note_on_c, 0, 81, 77
2, 33116, Note_on_c, 0, 59, 38
2, 33116, Note_on_c, 0, 62, 43
2, 33117, Control_c, 0, 64, 0
2, 33117, Note_on_c, 0, 74, 66
2, 33118, Note_on_c, 0, 71, 59
2, 33123, Note_on_c, 0, 55, 39
2, 33154, Control_c, 0, 64, 127
2, 33209, Note_on_c, 0, 59, 0
2, 33210, Note_on_c, 0, 62, 0
2, 33221, Note_on_c, 0, 55, 0
2, 33324, Note_on_c, 0, 71, 0
2, 33326, Note_on_c, 0, 74, 0
2, 33341, Note_on_c, 0, 81, 0
2, 33366, Note_on_c, 0, 81, 79
2, 33368, Note_on_c, 0, 62, 45
2, 33369, Note_on_c, 0, 74, 74
2, 33369, Note_on_c, 0, 71, 75
2, 33370, Control_c, 0, 64, 0
2, 33370, Note_on_c, 0, 59, 39
2, 33371, Note_on_c, 0, 55, 24
2, 33385, Control_c, 0, 64, 127
2, 33415, Note_on_c, 0, 71, 0
2, 33418, Note_on_c, 0, 81, 0
2, 33419, Note_on_c, 0, 62, 0
2, 33421, Note_on_c, 0, 59, 0
2, 33423, Note_on_c, 0, 74, 0
2, 33435, Note_on_c, 0, 79, 62
2, 33437, Note_on_c, 0, 74, 57
2, 33440, Note_on_c, 0, 62, 47
2, 33441, Note_on_c, 0, 59, 22
2, 33459, Note_on_c, 0, 62, 0
2, 33459, Note_on_c, 0, 74, 0
2, 33463, Note_on_c, 0, 79, 0
2, 33465, Note_on_c, 0, 59, 0
2, 33497, Control_c, 0, 64, 0
2, 33497, Note_on_c, 0, 77, 45
2, 33498, Note_on_c, 0, 62, 34
2, 33499, Note_on_c, 0, 72, 41
2, 33499, Note_on_c, 0, 65, 49
2, 33506, Control_c, 0, 64, 127
2, 33531, Note_on_c, 0, 53, 0
2, 33535, Note_on_c, 0, 59, 1
2, 33556, Note_on_c, 0, 53, 39
2, 33567, Note_on_c, 0, 59, 0
2, 33571, Note_on_c, 0, 65, 0
2, 33577, Note_on_c, 0, 72, 0
2, 33580, Note_on_c, 0, 77, 0
2, 33581, Note_on_c, 0, 62, 0
2, 33585, Note_on_c, 0, 55, 0
2, 33587, Note_on_c, 0, 53, 0
2, 33609, Note_on_c, 0, 79, 47
2, 33610, Note_on_c, 0, 67, 44
2, 33611, Control_c, 0, 64, 0
2, 33611, Note_on_c, 0, 62, 38
2, 33611, Note_on_c, 0, 74, 40
2, 33614, Note_on_c, 0, 52, 40
2, 33614, Note_on_c, 0, 58, 25
2, 33643, Control_c, 0, 64, 127
2, 33687, Note_on_c, 0, 62, 0
2, 33689, Note_on_c, 0, 58, 0
2, 33700, Note_on_c, 0, 74, 0
2, 33702, Note_on_c, 0, 79, 0
2, 33707, Note_on_c, 0, 67, 0
2, 33776, Note_on_c, 0, 57, 49
2, 33788, Note_on_c, 0, 57, 0
2, 33795, Note_on_c, 0, 58, 26
2, 33799, Note_on_c, 0, 58, 0
2, 33803, Control_c, 0, 64, 0
2, 33811, Note_on_c, 0, 62, 64
2, 33824, Note_on_c, 0, 62, 0
2, 33825, Note_on_c, 0, 52, 0
2, 33828, Note_on_c, 0, 66, 72
2, 33839, Note_on_c, 0, 66, 0
2, 33847, Note_on_c, 0, 69, 76
2, 33861, Note_on_c, 0, 69, 0
2, 33866, Note_on_c, 0, 66, 63
2, 33874, Note_on_c, 0, 66, 0
2, 33880, Note_on_c, 0, 67, 54
2, 33897, Note_on_c, 0, 67, 0
2, 33898, Note_on_c, 0, 69, 55
2, 33910, Note_on_c, 0, 69, 0
2, 33915, Note_on_c, 0, 70, 68
2, 33923, Note_on_c, 0, 70, 0
2, 33932, Note_on_c, 0, 72, 55
2, 33942, Note_on_c, 0, 72, 0
2, 33945, Note_on_c, 0, 73, 58
2, 33956, Note_on_c, 0, 73, 0
2, 33960, Note_on_c, 0, 75, 62
2, 33968, Note_on_c, 0, 75, 0
2, 33975, Note_on_c, 0, 76, 51
2, 33983, Note_on_c, 0, 76, 0
2, 33989, Note_on_c, 0, 78, 38
2, 33993, Note_on_c, 0, 78, 0
2, 34004, Note_on_c, 0, 79, 55
2, 34018, Note_on_c, 0, 79, 0
2, 34018, Note_on_c, 0, 81, 60
2, 34030, Note_on_c, 0, 81, 0
2, 34033, Note_on_c, 0, 82, 59
2, 34039, Note_on_c, 0, 82, 0
2, 34050, Note_on_c, 0, 84, 49
2, 34058, Note_on_c, 0, 84, 0
2, 34059, Note_on_c, 0, 85, 50
2, 34070, Note_on_c, 0, 85, 0
2, 34071, Note_on_c, 0, 87, 52
2, 34073, Control_c, 0, 64, 127
2, 34084, Note_on_c, 0, 87, 0
2, 34088, Note_on_c, 0, 88, 40
2, 34103, Note_on_c, 0, 88, 0
2, 34103, Note_on_c, 0, 61, 29
2, 34103, Note_on_c, 0, 66, 28
2, 34104, Control_c, 0, 64, 0
2, 34105, Note_on_c, 0, 91, 58
2, 34108, Note_on_c, 0, 55, 30
2, 34120, Note_on_c, 0, 91, 0
2, 34131, Note_on_c, 0, 88, 25
2, 34138, Note_on_c, 0, 88, 0
2, 34150, Note_on_c, 0, 89, 54
2, 34169, Control_c, 0, 64, 127
2, 34179, Note_on_c, 0, 89, 0
2, 34188, Note_on_c, 0, 55, 0
2, 34197, Note_on_c, 0, 66, 0
2, 34199, Note_on_c, 0, 61, 0
2, 34211, Note_on_c, 0, 93, 79
2, 34212, Note_on_c, 0, 61, 49
2, 34212, Note_on_c, 0, 66, 51
2, 34212, Note_on_c, 0, 81, 66
2, 34214, Note_on_c, 0, 55, 50
2, 34234, Note_on_c, 0, 81, 0
2, 34235, Note_on_c, 0, 55, 0
2, 34237, Note_on_c, 0, 93, 0
2, 34239, Note_on_c, 0, 66, 0
2, 34252, Note_on_c, 0, 61, 0
2, 34272, Note_on_c, 0, 61, 70
2, 34272, Note_on_c, 0, 55, 80
2, 34272, Note_on_c, 0, 96, 92
2, 34272, Note_on_c, 0, 66, 83
2, 34273, Note_on_c, 0, 84, 91
2, 34273, Control_c, 0, 64, 0
2, 34289, Control_c, 0, 64, 127
2, 34305, Note_on_c, 0, 84, 0
2, 34305, Note_on_c, 0, 66, 0
2, 34307, Note_on_c, 0, 55, 0
2, 34309, Note_on_c, 0, 96, 0
2, 34310, Note_on_c, 0, 61, 0
2, 34331, Note_on_c, 0, 55, 79
2, 34333, Note_on_c, 0, 61, 73
2, 34333, Note_on_c, 0, 65, 77
2, 34333, Note_on_c, 0, 96, 91
2, 34334, Note_on_c, 0, 84, 89
2, 34334, Control_c, 0, 64, 0
2, 34358, Control_c, 0, 64, 127
2, 34367, Note_on_c, 0, 96, 0
2, 34373, Note_on_c, 0, 84, 0
2, 34379, Note_on_c, 0, 55, 0
2, 34380, Note_on_c, 0, 65, 0
2, 34385, Note_on_c, 0, 61, 0
2, 34398, Note_on_c, 0, 93, 76
2, 34398, Note_on_c, 0, 81, 71
2, 34398, Note_on_c, 0, 61, 51
2, 34399, Note_on_c, 0, 55, 64
2, 34400, Note_on_c, 0, 65, 60
2, 34401, Control_c, 0, 64, 0
2, 34415, Control_c, 0, 64, 127
2, 34437, Note_on_c, 0, 55, 0
2, 34437, Note_on_c, 0, 81, 0
2, 34437, Note_on_c, 0, 93, 0
2, 34439, Note_on_c, 0, 65, 0
2, 34443, Note_on_c, 0, 61, 0
2, 34456, Note_on_c, 0, 55, 63
2, 34456, Control_c, 0, 64, 0
2, 34457, Note_on_c, 0, 93, 69
2, 34457, Note_on_c, 0, 61, 51
2, 34458, Note_on_c, 0, 81, 66
2, 34458, Note_on_c, 0, 65, 54
2, 34468, Control_c, 0, 64, 127
2, 34476, Note_on_c, 0, 93, 0
2, 34483, Note_on_c, 0, 81, 0
2, 34485, Note_on_c, 0, 65, 0
2, 34491, Note_on_c, 0, 55, 0
2, 34493, Note_on_c, 0, 61, 0
2, 34511, Note_on_c, 0, 55, 53
2, 34511, Note_on_c, 0, 61, 53
2, 34512, Control_c, 0, 64, 0
2, 34512, Note_on_c, 0, 91, 55
2, 34513, Note_on_c, 0, 79, 57
2, 34514, Note_on_c, 0, 64, 44
2, 34522, Note_on_c, 0, 64, 0
2, 34524, Note_on_c, 0, 89, 14
2, 34526, Note_on_c, 0, 55, 0
2, 34528, Control_c, 0, 64, 127
2, 34529, Note_on_c, 0, 79, 0
2, 34531, Note_on_c, 0, 61, 0
2, 34533, Note_on_c, 0, 91, 0
2, 34534, Note_on_c, 0, 89, 0
2, 34569, Note_on_c, 0, 50, 47
2, 34569, Note_on_c, 0, 88, 60
2, 34571, Note_on_c, 0, 76, 46
2, 34571, Note_on_c, 0, 53, 60
2, 34571, Note_on_c, 0, 57, 33
2, 34572, Note_on_c, 0, 60, 52
2, 34573, Note_on_c, 0, 81, 42
2, 34573, Control_c, 0, 64, 0
2, 34574, Note_on_c, 0, 84, 44
2, 34580, Note_on_c, 0, 86, 18
2, 34601, Control_c, 0, 64, 127
2, 34654, Note_on_c, 0, 88, 0
2, 34664, Note_on_c, 0, 86, 0
2, 34671, Note_on_c, 0, 81, 0
2, 34672, Note_on_c, 0, 84, 0
2, 34676, Note_on_c, 0, 76, 0
2, 34690, Note_on_c, 0, 50, 0
2, 34690, Note_on_c, 0, 53, 0
2, 34694, Note_on_c, 0, 60, 0
2, 34695, Note_on_c, 0, 57, 0
2, 34728, Note_on_c, 0, 61, 53
2, 34732, Note_on_c, 0, 61, 0
2, 34733, Note_on_c, 0, 63, 54
2, 34733, Note_on_c, 0, 79, 83
2, 34735, Note_on_c, 0, 72, 89
2, 34736, Note_on_c, 0, 69, 87
2, 34737, Note_on_c, 0, 64, 78
2, 34743, Note_on_c, 0, 63, 0
2, 34745, Control_c, 0, 64, 0
2, 34762, Control_c, 0, 64, 127
2, 34784, Note_on_c, 0, 69, 0
2, 34784, Note_on_c, 0, 79, 0
2, 34786, Note_on_c, 0, 64, 0
2, 34787, Note_on_c, 0, 72, 0
2, 34800, Note_on_c, 0, 77, 74
2, 34801, Note_on_c, 0, 62, 73
2, 34801, Note_on_c, 0, 69, 72
2, 34802, Note_on_c, 0, 72, 71
2, 34803, Control_c, 0, 64, 0
2, 34829, Control_c, 0, 64, 127
2, 34836, Note_on_c, 0, 72, 0
2, 34842, Note_on_c, 0, 69, 0
2, 34843, Note_on_c, 0, 77, 0
2, 34864, Note_on_c, 0, 69, 56
2, 34864, Note_on_c, 0, 65, 58
2, 34866, Note_on_c, 0, 61, 59
2, 34869, Note_on_c, 0, 62, 0
2, 34870, Control_c, 0, 64, 0
2, 34888, Control_c, 0, 64, 127
2, 34906, Note_on_c, 0, 65, 0
2, 34907, Note_on_c, 0, 69, 0
2, 34921, Note_on_c, 0, 61, 0
2, 34923, Note_on_c, 0, 76, 58
2, 34924, Note_on_c, 0, 60, 56
2, 34926, Control_c, 0, 64, 0
2, 34926, Note_on_c, 0, 69, 58
2, 34927, Note_on_c, 0, 65, 48
2, 34945, Control_c, 0, 64, 127
2, 34964, Note_on_c, 0, 69, 0
2, 34966, Note_on_c, 0, 76, 0
2, 34968, Note_on_c, 0, 65, 0
2, 34985, Note_on_c, 0, 74, 63
2, 34991, Note_on_c, 0, 59, 32
2, 34991, Note_on_c, 0, 65, 26
2, 34993, Note_on_c, 0, 60, 0
2, 34996, Note_on_c, 0, 65, 0
2, 35015, Note_on_c, 0, 59, 0
2, 35015, Note_on_c, 0, 74, 0
2, 35044, Note_on_c, 0, 71, 53
2, 35046, Note_on_c, 0, 65, 55
2, 35046, Note_on_c, 0, 53, 42
2, 35047, Note_on_c, 0, 59, 38
2, 35049, Control_c, 0, 64, 0
2, 35050, Note_on_c, 0, 64, 39
2, 35075, Control_c, 0, 64, 127
2, 35087, Note_on_c, 0, 64, 0
2, 35097, Note_on_c, 0, 65, 0
2, 35142, Note_on_c, 0, 53, 0
2, 35160, Note_on_c, 0, 59, 0
2, 35171, Note_on_c, 0, 59, 18
2, 35172, Note_on_c, 0, 65, 53
2, 35173, Note_on_c, 0, 62, 36
2, 35174, Note_on_c, 0, 53, 36
2, 35179, Control_c, 0, 64, 0
2, 35192, Control_c, 0, 64, 127
2, 35194, Note_on_c, 0, 62, 0
2, 35197, Note_on_c, 0, 65, 0
2, 35202, Note_on_c, 0, 71, 0
2, 35213, Note_on_c, 0, 53, 0
2, 35229, Note_on_c, 0, 59, 0
2, 35235, Note_on_c, 0, 74, 74
2, 35236, Note_on_c, 0, 59, 44
2, 35236, Note_on_c, 0, 62, 80
2, 35237, Note_on_c, 0, 53, 66
2, 35237, Note_on_c, 0, 69, 75
2, 35256, Note_on_c, 0, 62, 0
2, 35262, Note_on_c, 0, 69, 0
2, 35262, Note_on_c, 0, 74, 0
2, 35264, Note_on_c, 0, 59, 0
2, 35267, Note_on_c, 0, 53, 0
2, 35297, Note_on_c, 0, 76, 63
2, 35298, Note_on_c, 0, 53, 58
2, 35299, Note_on_c, 0, 67, 71
2, 35301, Control_c, 0, 64, 0
2, 35301, Note_on_c, 0, 62, 54
2, 35302, Note_on_c, 0, 59, 51
2, 35330, Control_c, 0, 64, 127
2, 35341, Note_on_c, 0, 53, 0
2, 35355, Note_on_c, 0, 53, 51
2, 35375, Note_on_c, 0, 76, 0
2, 35382, Note_on_c, 0, 62, 0
2, 35386, Note_on_c, 0, 67, 0
2, 35387, Note_on_c, 0, 59, 0
2, 35406, Note_on_c, 0, 77, 64
2, 35407, Note_on_c, 0, 59, 29
2, 35408, Note_on_c, 0, 62, 48
2, 35408, Note_on_c, 0, 67, 60
2, 35432, Note_on_c, 0, 53, 0
2, 35460, Note_on_c, 0, 53, 59
2, 35467, Note_on_c, 0, 77, 0
2, 35473, Note_on_c, 0, 67, 0
2, 35477, Note_on_c, 0, 62, 0
2, 35479, Note_on_c, 0, 53, 0
2, 35482, Note_on_c, 0, 59, 0
2, 35518, Note_on_c, 0, 78, 74
2, 35519, Control_c, 0, 64, 0
2, 35520, Note_on_c, 0, 59, 36
2, 35520, Note_on_c, 0, 52, 56
2, 35520, Note_on_c, 0, 62, 56
2, 35521, Note_on_c, 0, 71, 70
2, 35521, Note_on_c, 0, 55, 64
2, 35521, Note_on_c, 0, 74, 60
2, 35522, Note_on_c, 0, 66, 73
2, 35546, Control_c, 0, 64, 127
2, 35564, Note_on_c, 0, 59, 0
2, 35585, Note_on_c, 0, 59, 36
2, 35597, Note_on_c, 0, 62, 0
2, 35615, Note_on_c, 0, 71, 0
2, 35615, Note_on_c, 0, 74, 0
2, 35623, Note_on_c, 0, 66, 0
2, 35646, Note_on_c, 0, 62, 36
2, 35646, Note_on_c, 0, 66, 47
2, 35647, Note_on_c, 0, 71, 40
2, 35652, Note_on_c, 0, 74, 17
2, 35656, Note_on_c, 0, 66, 0
2, 35657, Note_on_c, 0, 74, 0
2, 35657, Note_on_c, 0, 71, 0
2, 35665, Note_on_c, 0, 78, 0
2, 35665, Note_on_c, 0, 62, 0
2, 35672, Note_on_c, 0, 59, 0
2, 35681, Note_on_c, 0, 55, 0
2, 35707, Note_on_c, 0, 81, 67
2, 35708, Note_on_c, 0, 62, 42
2, 35709, Note_on_c, 0, 59, 35
2, 35710, Note_on_c, 0, 69, 64
2, 35712, Note_on_c, 0, 55, 17
2, 35719, Note_on_c, 0, 62, 0
2, 35721, Note_on_c, 0, 69, 0
2, 35723, Note_on_c, 0, 81, 0
2, 35724, Note_on_c, 0, 59, 0
2, 35727, Note_on_c, 0, 55, 0
2, 35733, Note_on_c, 0, 52, 0
2, 35767, Note_on_c, 0, 79, 64
2, 35769, Note_on_c, 0, 72, 58
2, 35769, Note_on_c, 0, 65, 47
2, 35770, Note_on_c, 0, 50, 44
2, 35771, Control_c, 0, 64, 0
2, 35773, Note_on_c, 0, 60, 31
2, 35811, Control_c, 0, 64, 127
2, 35831, Note_on_c, 0, 57, 42
2, 35848, Note_on_c, 0, 65, 0
2, 35849, Note_on_c, 0, 60, 0
2, 35850, Note_on_c, 0, 72, 0
2, 35881, Note_on_c, 0, 79, 0
2, 35891, Note_on_c, 0, 72, 51
2, 35892, Note_on_c, 0, 65, 52
2, 35892, Note_on_c, 0, 60, 40
2, 35905, Note_on_c, 0, 72, 0
2, 35920, Note_on_c, 0, 65, 0
2, 35920, Note_on_c, 0, 60, 0
2, 35922, Note_on_c, 0, 50, 0
2, 35926, Note_on_c, 0, 57, 0
2, 35949, Note_on_c, 0, 49, 59
2, 35951, Note_on_c, 0, 59, 36
2, 35953, Note_on_c, 0, 56, 32
2, 35980, Note_on_c, 0, 59, 0
2, 35988, Note_on_c, 0, 56, 0
2, 35994, Note_on_c, 0, 49, 0
2, 36007, Note_on_c, 0, 55, 54
2, 36008, Note_on_c, 0, 62, 39
2, 36008, Note_on_c, 0, 65, 57
2, 36009, Control_c, 0, 64, 0
2, 36011, Note_on_c, 0, 58, 53
2, 36014, Note_on_c, 0, 48, 39
2, 36041, Control_c, 0, 64, 127
2, 36054, Note_on_c, 0, 58, 0
2, 36055, Note_on_c, 0, 65, 0
2, 36056, Note_on_c, 0, 62, 0
2, 36073, Note_on_c, 0, 64, 55
2, 36075, Note_on_c, 0, 60, 57
2, 36076, Note_on_c, 0, 58, 35
2, 36089, Note_on_c, 0, 60, 0
2, 36093, Note_on_c, 0, 64, 0
2, 36106, Note_on_c, 0, 58, 0
2, 36135, Note_on_c, 0, 55, 0
2, 36136, Note_on_c, 0, 72, 89
2, 36136, Note_on_c, 0, 65, 94
2, 36136, Note_on_c, 0, 58, 75
2, 36136, Note_on_c, 0, 62, 88
2, 36139, Control_c, 0, 64, 0
2, 36158, Control_c, 0, 64, 127
2, 36168, Note_on_c, 0, 48, 0
2, 36193, Note_on_c, 0, 48, 64
2, 36206, Note_on_c, 0, 72, 0
2, 36208, Note_on_c, 0, 62, 0
2, 36213, Note_on_c, 0, 48, 0
2, 36219, Note_on_c, 0, 65, 0
2, 36225, Note_on_c, 0, 58, 0
2, 36251, Note_on_c, 0, 71, 74
2, 36252, Note_on_c, 0, 68, 65
2, 36252, Note_on_c, 0, 65, 72
2, 36253, Note_on_c, 0, 62, 70
2, 36253, Control_c, 0, 64, 0
2, 36254, Note_on_c, 0, 58, 61
2, 36254, Note_on_c, 0, 48, 60
2, 36282, Control_c, 0, 64, 127
2, 36298, Note_on_c, 0, 48, 0
2, 36316, Note_on_c, 0, 48, 58
2, 36334, Note_on_c, 0, 71, 0
2, 36334, Note_on_c, 0, 62, 0
2, 36337, Note_on_c, 0, 65, 0
2, 36341, Note_on_c, 0, 68, 0
2, 36346, Note_on_c, 0, 58, 0
2, 36377, Control_c, 0, 64, 0
2, 36377, Note_on_c, 0, 72, 51
2, 36377, Note_on_c, 0, 65, 66
2, 36377, Note_on_c, 0, 58, 45
2, 36378, Note_on_c, 0, 62, 65
2, 36394, Note_on_c, 0, 48, 0
2, 36398, Note_on_c, 0, 62, 0
2, 36402, Control_c, 0, 64, 127
2, 36412, Note_on_c, 0, 65, 0
2, 36421, Note_on_c, 0, 72, 0
2, 36421, Note_on_c, 0, 58, 0
2, 36432, Note_on_c, 0, 48, 47
2, 36438, Note_on_c, 0, 48, 0
2, 36489, Note_on_c, 0, 84, 74
2, 36489, Control_c, 0, 64, 0
2, 36491, Note_on_c, 0, 41, 62
2, 36519, Control_c, 0, 64, 127
2, 36524, Note_on_c, 0, 84, 0
2, 36549, Note_on_c, 0, 48, 48
2, 36569, Note_on_c, 0, 41, 0
2, 36598, Note_on_c, 0, 48, 0
2, 36609, Note_on_c, 0, 57, 47
2, 36621, Note_on_c, 0, 57, 0
2, 36699, Note_on_c, 0, 83, 61
2, 36700, Note_on_c, 0, 64, 42
2, 36701, Note_on_c, 0, 71, 50
2, 36702, Note_on_c, 0, 60, 43
2, 36702, Note_on_c, 0, 79, 45
2, 36702, Note_on_c, 0, 76, 49
2, 36703, Note_on_c, 0, 57, 37
2, 36704, Note_on_c, 0, 53, 26
2, 36704, Control_c, 0, 64, 0
2, 36707, Note_on_c, 0, 76, 0
2, 36708, Note_on_c, 0, 71, 0
2, 36708, Note_on_c, 0, 79, 0
2, 36711, Note_on_c, 0, 83, 0
2, 36711, Note_on_c, 0, 57, 0
2, 36712, Note_on_c, 0, 64, 0
2, 36712, Note_on_c, 0, 60, 0
2, 36714, Note_on_c, 0, 53, 0
2, 36743, Note_on_c, 0, 83, 55
2, 36744, Note_on_c, 0, 79, 44
2, 36744, Note_on_c, 0, 71, 42
2, 36744, Note_on_c, 0, 76, 44
2, 36744, Note_on_c, 0, 60, 44
2, 36745, Note_on_c, 0, 64, 46
2, 36746, Note_on_c, 0, 53, 30
2, 36747, Note_on_c, 0, 57, 42
2, 36755, Control_c, 0, 64, 127
2, 36816, Note_on_c, 0, 64, 0
2, 36841, Note_on_c, 0, 83, 0
2, 36842, Note_on_c, 0, 79, 0
2, 36843, Note_on_c, 0, 71, 0
2, 36857, Note_on_c, 0, 57, 0
2, 36858, Note_on_c, 0, 60, 0
2, 36868, Note_on_c, 0, 76, 0
2, 36875, Note_on_c, 0, 53, 0
2, 36928, Note_on_c, 0, 81, 60
2, 36942, Note_on_c, 0, 81, 0
2, 36958, Note_on_c, 0, 81, 55
2, 36959, Control_c, 0, 64, 0
2, 36960, Note_on_c, 0, 69, 46
2, 36960, Note_on_c, 0, 60, 53
2, 36961, Note_on_c, 0, 77, 44
2, 36961, Note_on_c, 0, 53, 48
2, 36961, Note_on_c, 0, 57, 40
2, 36961, Note_on_c, 0, 50, 32
2, 36993, Control_c, 0, 64, 127
2, 37097, Note_on_c, 0, 69, 0
2, 37099, Note_on_c, 0, 81, 0
2, 37102, Note_on_c, 0, 77, 0
2, 37106, Note_on_c, 0, 57, 0
2, 37109, Note_on_c, 0, 60, 0
2, 37110, Note_on_c, 0, 53, 0
2, 37121, Note_on_c, 0, 50, 0
2, 37139, Control_c, 0, 64, 0
2, 37139, Note_on_c, 0, 79, 69
2, 37140, Note_on_c, 0, 75, 63
2, 37140, Note_on_c, 0, 67, 60
2, 37142, Note_on_c, 0, 57, 34
2, 37143, Note_on_c, 0, 50, 40
2, 37143, Note_on_c, 0, 60, 44
2, 37144, Note_on_c, 0, 53, 33
2, 37162, Note_on_c, 0, 67, 0
2, 37163, Note_on_c, 0, 75, 0
2, 37164, Note_on_c, 0, 76, 55
2, 37169, Note_on_c, 0, 76, 0
2, 37170, Note_on_c, 0, 50, 0
2, 37172, Note_on_c, 0, 57, 0
2, 37172, Note_on_c, 0, 53, 0
2, 37174, Note_on_c, 0, 79, 0
2, 37175, Note_on_c, 0, 60, 0
2, 37232, Control_c, 0, 64, 127
2, 37253, Note_on_c, 0, 64, 57
2, 37254, Note_on_c, 0, 69, 58
2, 37255, Note_on_c, 0, 59, 45
2, 37255, Note_on_c, 0, 53, 40
2, 37315, Note_on_c, 0, 64, 0
2, 37323, Note_on_c, 0, 53, 0
2, 37328, Note_on_c, 0, 59, 0
2, 37330, Note_on_c, 0, 69, 0
2, 37409, Note_on_c, 0, 72, 82
2, 37420, Note_on_c, 0, 72, 0
2, 37456, Control_c, 0, 64, 0
2, 37459, Note_on_c, 0, 62, 32
2, 37461, Note_on_c, 0, 56, 36
2, 37462, Note_on_c, 0, 67, 27
2, 37466, Note_on_c, 0, 74, 43
2, 37479, Note_on_c, 0, 75, 73
2, 37482, Note_on_c, 0, 74, 0
2, 37486, Note_on_c, 0, 75, 0
2, 37487, Note_on_c, 0, 76, 61
2, 37507, Note_on_c, 0, 76, 0
2, 37523, Note_on_c, 0, 76, 57
2, 37537, Note_on_c, 0, 76, 0
2, 37559, Note_on_c, 0, 76, 60
2, 37577, Note_on_c, 0, 76, 0
2, 37588, Note_on_c, 0, 74, 27
2, 37597, Note_on_c, 0, 74, 0
2, 37611, Note_on_c, 0, 76, 63
2, 37630, Control_c, 0, 64, 127
2, 37660, Note_on_c, 0, 62, 0
2, 37662, Note_on_c, 0, 56, 0
2, 37664, Note_on_c, 0, 67, 0
2, 37741, Control_c, 0, 64, 0
2, 37746, Note_on_c, 0, 67, 41
2, 37746, Note_on_c, 0, 62, 53
2, 37747, Note_on_c, 0, 56, 45
2, 37753, Note_on_c, 0, 67, 0
2, 37755, Note_on_c, 0, 62, 0
2, 37757, Note_on_c, 0, 56, 0
2, 37807, Note_on_c, 0, 62, 49
2, 37808, Note_on_c, 0, 67, 38
2, 37809, Note_on_c, 0, 56, 37
2, 37810, Control_c, 0, 64, 127
2, 37853, Note_on_c, 0, 62, 0
2, 37862, Note_on_c, 0, 56, 0
2, 37862, Note_on_c, 0, 67, 0
2, 37921, Note_on_c, 0, 65, 35
2, 37922, Note_on_c, 0, 61, 38
2, 37925, Note_on_c, 0, 60, 34
2, 37925, Note_on_c, 0, 55, 35
2, 37925, Control_c, 0, 64, 0
2, 37960, Control_c, 0, 64, 127
2, 37996, Note_on_c, 0, 76, 0
2, 38096, Note_on_c, 0, 68, 69
2, 38118, Note_on_c, 0, 68, 0
2, 38128, Note_on_c, 0, 69, 68
2, 38147, Note_on_c, 0, 69, 0
2, 38148, Note_on_c, 0, 65, 0
2, 38148, Note_on_c, 0, 61, 0
2, 38150, Note_on_c, 0, 60, 0
2, 38151, Note_on_c, 0, 55, 0
2, 38169, Control_c, 0, 64, 0
2, 38171, Note_on_c, 0, 61, 67
2, 38171, Note_on_c, 0, 79, 82
2, 38171, Note_on_c, 0, 65, 66
2, 38172, Note_on_c, 0, 72, 85
2, 38172, Note_on_c, 0, 55, 66
2, 38180, Note_on_c, 0, 72, 0
2, 38181, Note_on_c, 0, 65, 0
2, 38182, Note_on_c, 0, 55, 0
2, 38183, Note_on_c, 0, 61, 0
2, 38185, Note_on_c, 0, 79, 0
2, 38228, Note_on_c, 0, 61, 53
2, 38228, Note_on_c, 0, 55, 67
2, 38228, Note_on_c, 0, 79, 81
2, 38228, Note_on_c, 0, 72, 87
2, 38229, Note_on_c, 0, 65, 55
2, 38236, Control_c, 0, 64, 127
2, 38272, Note_on_c, 0, 72, 0
2, 38274, Note_on_c, 0, 65, 0
2, 38275, Note_on_c, 0, 79, 0
2, 38279, Note_on_c, 0, 55, 0
2, 38284, Note_on_c, 0, 61, 0
2, 38292, Note_on_c, 0, 72, 55
2, 38296, Note_on_c, 0, 61, 23
2, 38296, Note_on_c, 0, 55, 19
2, 38311, Note_on_c, 0, 55, 0
2, 38317, Note_on_c, 0, 61, 0
2, 38319, Note_on_c, 0, 72, 0
2, 38346, Note_on_c, 0, 61, 55
2, 38346, Note_on_c, 0, 77, 64
2, 38346, Note_on_c, 0, 55, 54
2, 38347, Note_on_c, 0, 70, 67
2, 38365, Note_on_c, 0, 77, 0
2, 38368, Note_on_c, 0, 55, 0
2, 38378, Note_on_c, 0, 70, 0
2, 38386, Note_on_c, 0, 61, 0
2, 38406, Note_on_c, 0, 76, 80
2, 38407, Note_on_c, 0, 69, 78
2, 38407, Note_on_c, 0, 65, 72
2, 38408, Note_on_c, 0, 64, 64
2, 38410, Control_c, 0, 64, 0
2, 38450, Control_c, 0, 64, 127
2, 38531, Note_on_c, 0, 65, 0
2, 38537, Note_on_c, 0, 69, 0
2, 38539, Note_on_c, 0, 76, 0
2, 38544, Note_on_c, 0, 64, 0
2, 38582, Note_on_c, 0, 77, 75
2, 38583, Note_on_c, 0, 69, 77
2, 38584, Note_on_c, 0, 65, 54
2, 38586, Note_on_c, 0, 73, 45
2, 38590, Note_on_c, 0, 73, 0
2, 38598, Note_on_c, 0, 65, 0
2, 38612, Note_on_c, 0, 77, 0
2, 38626, Note_on_c, 0, 69, 0
2, 38650, Note_on_c, 0, 74, 59
2, 38651, Note_on_c, 0, 65, 53
2, 38651, Note_on_c, 0, 70, 55
2, 38652, Note_on_c, 0, 54, 46
2, 38654, Control_c, 0, 64, 0
2, 38655, Note_on_c, 0, 60, 36
2, 38686, Control_c, 0, 64, 127
2, 38726, Note_on_c, 0, 70, 0
2, 38730, Note_on_c, 0, 65, 0
2, 38737, Note_on_c, 0, 60, 0
2, 38770, Note_on_c, 0, 70, 46
2, 38771, Note_on_c, 0, 65, 32
2, 38772, Note_on_c, 0, 60, 30
2, 38813, Note_on_c, 0, 60, 0
2, 38824, Note_on_c, 0, 65, 0
2, 38833, Note_on_c, 0, 54, 0
2, 38837, Note_on_c, 0, 74, 0
2, 38845, Note_on_c, 0, 70, 0
2, 38885, Note_on_c, 0, 69, 48
2, 38886, Control_c, 0, 64, 0
2, 38886, Note_on_c, 0, 53, 29
2, 38886, Note_on_c, 0, 65, 46
2, 38886, Note_on_c, 0, 60, 36
2, 38887, Note_on_c, 0, 55, 38
2, 38910, Control_c, 0, 64, 127
2, 38924, Note_on_c, 0, 53, 0
2, 38925, Note_on_c, 0, 55, 0
2, 38948, Note_on_c, 0, 55, 87
2, 38994, Note_on_c, 0, 69, 0
2, 38994, Note_on_c, 0, 60, 0
2, 38995, Note_on_c, 0, 65, 0
2, 39008, Control_c, 0, 64, 0
2, 39010, Note_on_c, 0, 43, 46
2, 39019, Control_c, 0, 64, 127
2, 39062, Note_on_c, 0, 43, 0
2, 39076, Note_on_c, 0, 43, 46
2, 39088, Note_on_c, 0, 55, 0
2, 39134, Note_on_c, 0, 64, 56
2, 39137, Note_on_c, 0, 59, 50
2, 39137, Note_on_c, 0, 56, 43
2, 39139, Note_on_c, 0, 55, 48
2, 39140, Control_c, 0, 64, 0
2, 39163, Control_c, 0, 64, 127
2, 39258, Note_on_c, 0, 59, 0
2, 39260, Note_on_c, 0, 56, 0
2, 39272, Note_on_c, 0, 64, 0
2, 39290, Note_on_c, 0, 55, 0
2, 39296, Note_on_c, 0, 62, 68
2, 39335, Note_on_c, 0, 60, 57
2, 39342, Note_on_c, 0, 62, 0
2, 39351, Note_on_c, 0, 60, 0
2, 39355, Note_on_c, 0, 59, 47
2, 39357, Note_on_c, 0, 43, 0
2, 39372, Note_on_c, 0, 59, 0
2, 39376, Control_c, 0, 64, 0
2, 39377, Note_on_c, 0, 43, 29
2, 39381, Note_on_c, 0, 60, 60
2, 39383, Note_on_c, 0, 52, 46
2, 39421, Control_c, 0, 64, 127
2, 39496, Note_on_c, 0, 55, 42
2, 39529, Note_on_c, 0, 43, 0
2, 39545, Note_on_c, 0, 55, 0
2, 39546, Note_on_c, 0, 43, 49
2, 39577, Note_on_c, 0, 60, 0
2, 39599, Note_on_c, 0, 43, 0
2, 39611, Note_on_c, 0, 43, 55
2, 39691, Note_on_c, 0, 52, 0
2, 39788, Note_on_c, 0, 52, 38
2, 39803, Note_on_c, 0, 52, 0
2, 39846, Note_on_c, 0, 69, 50
2, 39847, Note_on_c, 0, 53, 49
2, 39847, Note_on_c, 0, 58, 42
2, 39847, Note_on_c, 0, 62, 51
2, 39849, Note_on_c, 0, 65, 44
2, 39853, Control_c, 0, 64, 0
2, 39889, Note_on_c, 0, 43, 0
2, 39907, Control_c, 0, 64, 127
2, 39910, Note_on_c, 0, 43, 53
2, 39924, Note_on_c, 0, 58, 0
2, 39932, Note_on_c, 0, 62, 0
2, 39936, Note_on_c, 0, 65, 0
2, 39954, Note_on_c, 0, 69, 0
2, 39967, Note_on_c, 0, 43, 0
2, 39974, Note_on_c, 0, 53, 0
2, 40032, Note_on_c, 0, 72, 91
2, 40056, Note_on_c, 0, 72, 0
2, 40088, Note_on_c, 0, 73, 67
2, 40090, Note_on_c, 0, 64, 58
2, 40091, Control_c, 0, 64, 0
2, 40091, Note_on_c, 0, 70, 54
2, 40091, Note_on_c, 0, 68, 51
2, 40092, Note_on_c, 0, 58, 40
2, 40092, Note_on_c, 0, 61, 39
2, 40122, Control_c, 0, 64, 127
2, 40214, Note_on_c, 0, 64, 0
2, 40227, Note_on_c, 0, 68, 0
2, 40232, Note_on_c, 0, 73, 0
2, 40238, Note_on_c, 0, 58, 0
2, 40242, Note_on_c, 0, 70, 0
2, 40258, Note_on_c, 0, 61, 0
2, 40320, Note_on_c, 0, 64, 22
2, 40321, Note_on_c, 0, 60, 36
2, 40321, Note_on_c, 0, 57, 37
2, 40322, Note_on_c, 0, 53, 24
2, 40322, Control_c, 0, 64, 0
2, 40373, Control_c, 0, 64, 127
2, 40450, Note_on_c, 0, 53, 0
2, 40453, Note_on_c, 0, 60, 0
2, 40454, Note_on_c, 0, 57, 0
2, 40454, Note_on_c, 0, 64, 0
2, 40505, Note_on_c, 0, 88, 47
2, 40509, Note_on_c, 0, 88, 0
2, 40518, Control_c, 0, 64, 0
2, 40530, Note_on_c, 0, 91, 91
2, 40549, Note_on_c, 0, 91, 0
2, 40560, Note_on_c, 0, 89, 77
2, 40577, Note_on_c, 0, 89, 0
2, 40577, Note_on_c, 0, 63, 33
2, 40578, Note_on_c, 0, 68, 33
2, 40579, Note_on_c, 0, 57, 32
2, 40582, Note_on_c, 0, 61, 35
2, 40596, Note_on_c, 0, 87, 52
2, 40621, Note_on_c, 0, 87, 0
2, 40630, Note_on_c, 0, 81, 30
2, 40645, Note_on_c, 0, 81, 0
2, 40717, Note_on_c, 0, 83, 66
2, 40730, Note_on_c, 0, 83, 0
2, 40748, Note_on_c, 0, 68, 0
2, 40754, Note_on_c, 0, 84, 69
2, 40766, Note_on_c, 0, 57, 0
2, 40767, Note_on_c, 0, 84, 0
2, 40775, Note_on_c, 0, 63, 0
2, 40776, Note_on_c, 0, 61, 0
2, 40781, Note_on_c, 0, 85, 62
2, 40795, Note_on_c, 0, 85, 0
2, 40796, Note_on_c, 0, 62, 24
2, 40798, Note_on_c, 0, 65, 29
2, 40799, Note_on_c, 0, 60, 20
2, 40802, Note_on_c, 0, 55, 32
2, 40806, Note_on_c, 0, 86, 67
2, 40822, Note_on_c, 0, 86, 0
2, 40848, Note_on_c, 0, 84, 66
2, 40879, Note_on_c, 0, 84, 0
2, 40904, Control_c, 0, 64, 127
2, 40906, Note_on_c, 0, 81, 55
2, 40917, Note_on_c, 0, 81, 0
2, 40935, Note_on_c, 0, 65, 0
2, 40936, Note_on_c, 0, 62, 0
2, 40943, Note_on_c, 0, 60, 0
2, 40944, Note_on_c, 0, 77, 48
2, 40956, Control_c, 0, 64, 0
2, 40968, Note_on_c, 0, 77, 0
2, 40971, Note_on_c, 0, 74, 49
2, 40975, Control_c, 0, 64, 127
2, 40981, Note_on_c, 0, 65, 24
2, 40989, Note_on_c, 0, 74, 0
2, 40992, Note_on_c, 0, 65, 0
2, 41013, Note_on_c, 0, 74, 61
2, 41016, Control_c, 0, 64, 0
2, 41018, Note_on_c, 0, 65, 29
2, 41019, Note_on_c, 0, 62, 17
2, 41021, Note_on_c, 0, 60, 17
2, 41030, Note_on_c, 0, 74, 0
2, 41040, Note_on_c, 0, 74, 50
2, 41056, Note_on_c, 0, 74, 0
2, 41066, Note_on_c, 0, 74, 50
2, 41080, Note_on_c, 0, 74, 0
2, 41091, Note_on_c, 0, 74, 51
2, 41103, Note_on_c, 0, 74, 0
2, 41118, Note_on_c, 0, 65, 0
2, 41122, Note_on_c, 0, 74, 49
2, 41129, Note_on_c, 0, 60, 0
2, 41131, Note_on_c, 0, 62, 0
2, 41135, Note_on_c, 0, 74, 0
2, 41138, Control_c, 0, 64, 127
2, 41170, Control_c, 0, 64, 0
2, 41181, Note_on_c, 0, 65, 27
2, 41181, Note_on_c, 0, 62, 28
2, 41186, Note_on_c, 0, 60, 26
2, 41198, Control_c, 0, 64, 127
2, 41206, Note_on_c, 0, 55, 0
2, 41225, Note_on_c, 0, 55, 37
2, 41226, Note_on_c, 0, 65, 0
2, 41238, Note_on_c, 0, 60, 0
2, 41240, Note_on_c, 0, 62, 0
2, 41254, Note_on_c, 0, 55, 0
2, 41288, Control_c, 0, 64, 0
2, 41290, Note_on_c, 0, 55, 33
2, 41291, Note_on_c, 0, 60, 31
2, 41291, Note_on_c, 0, 63, 28
2, 41294, Note_on_c, 0, 57, 29
2, 41336, Control_c, 0, 64, 127
2, 41399, Control_c, 0, 64, 0
2, 41409, Note_on_c, 0, 67, 43
2, 41420, Note_on_c, 0, 67, 0
2, 41435, Note_on_c, 0, 72, 56
2, 41453, Note_on_c, 0, 72, 0
2, 41458, Note_on_c, 0, 75, 62
2, 41465, Note_on_c, 0, 75, 0
2, 41474, Note_on_c, 0, 55, 0
2, 41478, Note_on_c, 0, 63, 0
2, 41478, Note_on_c, 0, 79, 70
2, 41480, Note_on_c, 0, 60, 0
2, 41480, Note_on_c, 0, 57, 0
2, 41487, Note_on_c, 0, 79, 0
2, 41498, Note_on_c, 0, 84, 76
2, 41510, Note_on_c, 0, 84, 0
2, 41516, Note_on_c, 0, 87, 78
2, 41533, Note_on_c, 0, 87, 0
2, 41537, Note_on_c, 0, 65, 29
2, 41538, Note_on_c, 0, 60, 37
2, 41539, Note_on_c, 0, 54, 35
2, 41539, Note_on_c, 0, 58, 27
2, 41540, Note_on_c, 0, 89, 75
2, 41558, Note_on_c, 0, 89, 0
2, 41571, Note_on_c, 0, 86, 57
2, 41582, Note_on_c, 0, 86, 0
2, 41600, Note_on_c, 0, 84, 57
2, 41612, Note_on_c, 0, 84, 0
2, 41629, Note_on_c, 0, 82, 68
2, 41642, Note_on_c, 0, 82, 0
2, 41660, Note_on_c, 0, 81, 73
2, 41678, Note_on_c, 0, 81, 0
2, 41682, Note_on_c, 0, 82, 61
2, 41683, Note_on_c, 0, 65, 0
2, 41692, Note_on_c, 0, 60, 0
2, 41699, Note_on_c, 0, 82, 0
2, 41705, Note_on_c, 0, 84, 70
2, 41717, Note_on_c, 0, 54, 0
2, 41723, Note_on_c, 0, 84, 0
2, 41729, Note_on_c, 0, 58, 0
2, 41741, Note_on_c, 0, 81, 55
2, 41754, Note_on_c, 0, 81, 0
2, 41779, Note_on_c, 0, 82, 74
2, 41780, Note_on_c, 0, 63, 48
2, 41781, Note_on_c, 0, 56, 33
2, 41784, Note_on_c, 0, 59, 39
2, 41787, Note_on_c, 0, 53, 18
2, 41820, Note_on_c, 0, 79, 66
2, 41830, Note_on_c, 0, 82, 0
2, 41836, Note_on_c, 0, 79, 0
2, 41854, Note_on_c, 0, 75, 64
2, 41870, Note_on_c, 0, 75, 0
2, 41872, Note_on_c, 0, 63, 0
2, 41880, Note_on_c, 0, 71, 50
2, 41884, Note_on_c, 0, 59, 0
2, 41885, Control_c, 0, 64, 127
2, 41900, Note_on_c, 0, 71, 0
2, 41907, Control_c, 0, 64, 0
2, 41910, Note_on_c, 0, 70, 54
2, 41914, Note_on_c, 0, 63, 23
2, 41914, Note_on_c, 0, 59, 29
2, 41932, Note_on_c, 0, 70, 0
2, 41939, Note_on_c, 0, 68, 64
2, 41948, Note_on_c, 0, 59, 0
2, 41952, Note_on_c, 0, 63, 0
2, 41954, Note_on_c, 0, 68, 0
2, 41965, Note_on_c, 0, 53, 0
2, 41965, Note_on_c, 0, 67, 53
2, 41977, Control_c, 0, 64, 127
2, 41987, Note_on_c, 0, 67, 0
2, 41988, Note_on_c, 0, 56, 0
2, 41991, Note_on_c, 0, 65, 49
2, 42002, Control_c, 0, 64, 0
2, 42008, Note_on_c, 0, 65, 0
2, 42008, Note_on_c, 0, 62, 20
2, 42009, Note_on_c, 0, 52, 37
2, 42010, Note_on_c, 0, 58, 13
2, 42020, Note_on_c, 0, 64, 53
2, 42050, Note_on_c, 0, 64, 0
2, 42054, Note_on_c, 0, 65, 53
2, 42058, Note_on_c, 0, 62, 0
2, 42063, Note_on_c, 0, 65, 0
2, 42078, Note_on_c, 0, 67, 70
2, 42098, Note_on_c, 0, 67, 0
2, 42109, Note_on_c, 0, 64, 58
2, 42114, Note_on_c, 0, 58, 0
2, 42128, Note_on_c, 0, 64, 0
2, 42135, Note_on_c, 0, 60, 48
2, 42150, Note_on_c, 0, 58, 2
2, 42152, Note_on_c, 0, 60, 0
2, 42163, Note_on_c, 0, 62, 63
2, 42174, Note_on_c, 0, 62, 0
2, 42190, Note_on_c, 0, 64, 64
2, 42193, Note_on_c, 0, 52, 0
2, 42204, Note_on_c, 0, 58, 0
2, 42207, Note_on_c, 0, 64, 0
2, 42213, Control_c, 0, 64, 127
2, 42220, Note_on_c, 0, 65, 68
2, 42235, Note_on_c, 0, 65, 0
2, 42238, Control_c, 0, 64, 0
2, 42246, Note_on_c, 0, 67, 57
2, 42247, Note_on_c, 0, 57, 32
2, 42247, Note_on_c, 0, 60, 32
2, 42248, Note_on_c, 0, 53, 30
2, 42277, Note_on_c, 0, 67, 0
2, 42283, Note_on_c, 0, 64, 45
2, 42296, Note_on_c, 0, 64, 0
2, 42304, Note_on_c, 0, 65, 69
2, 42311, Note_on_c, 0, 60, 0
2, 42345, Control_c, 0, 64, 127
2, 42361, Note_on_c, 0, 60, 61
2, 42362, Note_on_c, 0, 65, 0
2, 42365, Control_c, 0, 64, 0
2, 42395, Note_on_c, 0, 60, 0
2, 42397, Control_c, 0, 64, 127
2, 42405, Note_on_c, 0, 60, 67
2, 42447, Note_on_c, 0, 53, 0
2, 42458, Note_on_c, 0, 60, 0
2, 42459, Note_on_c, 0, 57, 0
2, 42484, Control_c, 0, 64, 0
2, 42484, Note_on_c, 0, 60, 53
2, 42488, Note_on_c, 0, 53, 35
2, 42490, Note_on_c, 0, 57, 35
2, 42506, Control_c, 0, 64, 127
2, 42521, Note_on_c, 0, 60, 0
2, 42633, Note_on_c, 0, 84, 103
2, 42649, Note_on_c, 0, 57, 0
2, 42658, Note_on_c, 0, 83, 88
2, 42665, Note_on_c, 0, 84, 0
2, 42667, Note_on_c, 0, 53, 0
2, 42677, Note_on_c, 0, 83, 0
2, 42682, Note_on_c, 0, 79, 84
2, 42699, Note_on_c, 0, 79, 0
2, 42706, Note_on_c, 0, 74, 57
2, 42711, Note_on_c, 0, 53, 24
2, 42713, Note_on_c, 0, 55, 40
2, 42714, Control_c, 0, 64, 0
2, 42714, Note_on_c, 0, 59, 35
2, 42715, Note_on_c, 0, 62, 27
2, 42722, Note_on_c, 0, 74, 0
2, 42733, Note_on_c, 0, 71, 60
2, 42758, Note_on_c, 0, 71, 0
2, 42760, Note_on_c, 0, 67, 40
2, 42774, Control_c, 0, 64, 127
2, 42778, Note_on_c, 0, 67, 0
2, 42790, Note_on_c, 0, 67, 54
2, 42808, Note_on_c, 0, 67, 0
2, 42819, Note_on_c, 0, 67, 50
2, 42828, Note_on_c, 0, 62, 0
2, 42833, Note_on_c, 0, 67, 0
2, 42835, Note_on_c, 0, 59, 0
2, 42851, Note_on_c, 0, 59, 19
2, 42851, Note_on_c, 0, 67, 35
2, 42853, Note_on_c, 0, 62, 32
2, 42870, Note_on_c, 0, 67, 0
2, 42885, Note_on_c, 0, 67, 47
2, 42901, Note_on_c, 0, 67, 0
2, 42914, Note_on_c, 0, 67, 44
2, 42928, Note_on_c, 0, 67, 0
2, 42929, Note_on_c, 0, 62, 0
2, 42930, Note_on_c, 0, 59, 0
2, 42943, Note_on_c, 0, 67, 45
2, 42957, Note_on_c, 0, 67, 0
2, 42973, Note_on_c, 0, 67, 38
2, 42973, Note_on_c, 0, 62, 32
2, 42974, Note_on_c, 0, 59, 27
2, 42977, Control_c, 0, 64, 0
2, 43001, Control_c, 0, 64, 127
2, 43034, Note_on_c, 0, 55, 0
2, 43045, Note_on_c, 0, 62, 0
2, 43053, Note_on_c, 0, 59, 0
2, 43082, Note_on_c, 0, 67, 0
2, 43087, Note_on_c, 0, 62, 35
2, 43089, Note_on_c, 0, 55, 37
2, 43089, Note_on_c, 0, 59, 33
2, 43156, Note_on_c, 0, 67, 48
2, 43169, Note_on_c, 0, 55, 0
2, 43169, Note_on_c, 0, 62, 0
2, 43170, Note_on_c, 0, 67, 0
2, 43173, Note_on_c, 0, 53, 0
2, 43181, Note_on_c, 0, 59, 0
2, 43181, Note_on_c, 0, 81, 80
2, 43200, Note_on_c, 0, 81, 0
2, 43211, Note_on_c, 0, 59, 24
2, 43212, Note_on_c, 0, 62, 24
2, 43212, Note_on_c, 0, 79, 64
2, 43212, Note_on_c, 0, 52, 40
2, 43213, Control_c, 0, 64, 0
2, 43214, Note_on_c, 0, 55, 37
2, 43254, Note_on_c, 0, 67, 36
2, 43263, Note_on_c, 0, 67, 0
2, 43303, Note_on_c, 0, 62, 0
2, 43305, Note_on_c, 0, 59, 0
2, 43312, Note_on_c, 0, 55, 0
2, 43328, Note_on_c, 0, 67, 47
2, 43330, Note_on_c, 0, 55, 42
2, 43331, Note_on_c, 0, 62, 28
2, 43331, Note_on_c, 0, 59, 32
2, 43352, Control_c, 0, 64, 127
2, 43399, Note_on_c, 0, 62, 0
2, 43403, Note_on_c, 0, 55, 0
2, 43416, Note_on_c, 0, 59, 0
2, 43425, Note_on_c, 0, 67, 0
2, 43448, Note_on_c, 0, 62, 28
2, 43448, Note_on_c, 0, 59, 28
2, 43449, Note_on_c, 0, 67, 41
2, 43452, Note_on_c, 0, 55, 28
2, 43573, Note_on_c, 0, 55, 0
2, 43573, Note_on_c, 0, 59, 0
2, 43579, Note_on_c, 0, 62, 0
2, 43584, Note_on_c, 0, 67, 0
2, 43593, Note_on_c, 0, 52, 0
2, 43632, Note_on_c, 0, 79, 0
2, 43632, Note_on_c, 0, 67, 27
2, 43638, Note_on_c, 0, 67, 0
2, 43689, Control_c, 0, 64, 0
2, 43689, Note_on_c, 0, 79, 35
2, 43690, Note_on_c, 0, 73, 50
2, 43691, Note_on_c, 0, 67, 34
2, 43691, Note_on_c, 0, 61, 44
2, 43692, Note_on_c, 0, 55, 33
2, 43693, Note_on_c, 0, 65, 26
2, 43706, Control_c, 0, 64, 127
2, 43715, Note_on_c, 0, 67, 0
2, 43718, Note_on_c, 0, 65, 0
2, 43719, Note_on_c, 0, 55, 0
2, 43720, Note_on_c, 0, 73, 0
2, 43725, Note_on_c, 0, 61, 0
2, 43735, Note_on_c, 0, 79, 0
2, 43877, Note_on_c, 0, 93, 87
2, 43877, Note_on_c, 0, 60, 68
2, 43878, Note_on_c, 0, 61, 53
2, 43878, Note_on_c, 0, 65, 75
2, 43878, Note_on_c, 0, 81, 81
2, 43879, Note_on_c, 0, 88, 75
2, 43880, Note_on_c, 0, 55, 60
2, 43881, Note_on_c, 0, 58, 35
2, 43891, Control_c, 0, 64, 0
2, 43892, Note_on_c, 0, 88, 0
2, 43892, Note_on_c, 0, 81, 0
2, 43893, Note_on_c, 0, 65, 0
2, 43895, Note_on_c, 0, 55, 0
2, 43897, Note_on_c, 0, 93, 0
2, 43898, Note_on_c, 0, 58, 0
2, 43898, Note_on_c, 0, 61, 0
2, 43898, Note_on_c, 0, 60, 0
2, 43910, Control_c, 0, 64, 127
2, 43915, Note_on_c, 0, 61, 53
2, 43915, Note_on_c, 0, 65, 66
2, 43915, Note_on_c, 0, 93, 77
2, 43915, Note_on_c, 0, 81, 68
2, 43916, Note_on_c, 0, 60, 63
2, 43916, Note_on_c, 0, 88, 69
2, 43921, Note_on_c, 0, 81, 0
2, 43924, Note_on_c, 0, 65, 0
2, 43926, Note_on_c, 0, 60, 0
2, 43926, Note_on_c, 0, 88, 0
2, 43927, Note_on_c, 0, 61, 0
2, 43927, Control_c, 0, 64, 0
2, 43929, Note_on_c, 0, 93, 0
2, 43954, Control_c, 0, 64, 127
2, 43964, Note_on_c, 0, 105, 87
2, 43964, Note_on_c, 0, 93, 82
2, 43964, Note_on_c, 0, 100, 79
2, 43965, Note_on_c, 0, 60, 79
2, 43966, Note_on_c, 0, 61, 60
2, 43966, Note_on_c, 0, 65, 74
2, 43968, Note_on_c, 0, 55, 52
2, 43985, Note_on_c, 0, 55, 0
2, 43985, Note_on_c, 0, 100, 0
2, 43985, Note_on_c, 0, 65, 0
2, 43986, Note_on_c, 0, 60, 0
2, 43987, Note_on_c, 0, 93, 0
2, 43988, Note_on_c, 0, 61, 0
2, 43992, Note_on_c, 0, 105, 0
2, 44006, Control_c, 0, 64, 0
2, 44011, Note_on_c, 0, 61, 60
2, 44011, Note_on_c, 0, 105, 77
2, 44012, Note_on_c, 0, 60, 68
2, 44012, Note_on_c, 0, 100, 71
2, 44013, Note_on_c, 0, 93, 66
2, 44013, Note_on_c, 0, 65, 69
2, 44013, Note_on_c, 0, 55, 66
2, 44017, Control_c, 0, 64, 127
2, 44027, Note_on_c, 0, 100, 0
2, 44027, Note_on_c, 0, 105, 0
2, 44029, Note_on_c, 0, 65, 0
2, 44029, Note_on_c, 0, 55, 0
2, 44030, Note_on_c, 0, 93, 0
2, 44032, Note_on_c, 0, 60, 0
2, 44034, Note_on_c, 0, 61, 0
2, 44051, Control_c, 0, 64, 0
2, 44052, Note_on_c, 0, 61, 60
2, 44052, Note_on_c, 0, 100, 64
2, 44053, Note_on_c, 0, 88, 66
2, 44053, Note_on_c, 0, 65, 64
2, 44054, Note_on_c, 0, 60, 57
2, 44054, Note_on_c, 0, 95, 59
2, 44056, Note_on_c, 0, 55, 37
2, 44058, Control_c, 0, 64, 127
2, 44061, Note_on_c, 0, 65, 0
2, 44062, Note_on_c, 0, 55, 0
2, 44064, Note_on_c, 0, 95, 0
2, 44065, Note_on_c, 0, 88, 0
2, 44066, Note_on_c, 0, 60, 0
2, 44069, Note_on_c, 0, 100, 0
2, 44069, Note_on_c, 0, 61, 0
2, 44084, Note_on_c, 0, 61, 54
2, 44086, Note_on_c, 0, 65, 51
2, 44088, Note_on_c, 0, 60, 34
2, 44088, Note_on_c, 0, 55, 38
2, 44089, Note_on_c, 0, 100, 63
2, 44089, Note_on_c, 0, 88, 58
2, 44089, Note_on_c, 0, 95, 67
2, 44090, Note_on_c, 0, 65, 0
2, 44092, Note_on_c, 0, 60, 0
2, 44093, Note_on_c, 0, 88, 0
2, 44093, Note_on_c, 0, 55, 0
2, 44093, Note_on_c, 0, 95, 0
2, 44094, Note_on_c, 0, 61, 0
2, 44099, Note_on_c, 0, 100, 0
2, 44099, Control_c, 0, 64, 0
2, 44119, Note_on_c, 0, 60, 71
2, 44119, Note_on_c, 0, 57, 51
2, 44120, Note_on_c, 0, 103, 74
2, 44120, Note_on_c, 0, 98, 74
2, 44120, Note_on_c, 0, 53, 48
2, 44120, Note_on_c, 0, 91, 67
2, 44122, Note_on_c, 0, 50, 30
2, 44124, Note_on_c, 0, 52, 31
2, 44126, Note_on_c, 0, 91, 0
2, 44128, Note_on_c, 0, 98, 0
2, 44129, Note_on_c, 0, 52, 0
2, 44129, Note_on_c, 0, 57, 0
2, 44130, Note_on_c, 0, 53, 0
2, 44130, Note_on_c, 0, 50, 0
2, 44130, Note_on_c, 0, 103, 0
2, 44131, Note_on_c, 0, 60, 0
2, 44157, Note_on_c, 0, 57, 39
2, 44157, Note_on_c, 0, 53, 40
2, 44157, Note_on_c, 0, 60, 59
2, 44158, Note_on_c, 0, 103, 78
2, 44160, Note_on_c, 0, 50, 43
2, 44160, Note_on_c, 0, 91, 59
2, 44161, Note_on_c, 0, 98, 71
2, 44173, Note_on_c, 0, 98, 0
2, 44173, Note_on_c, 0, 103, 0
2, 44173, Note_on_c, 0, 91, 0
2, 44177, Note_on_c, 0, 60, 0
2, 44177, Note_on_c, 0, 50, 0
2, 44179, Note_on_c, 0, 53, 0
2, 44180, Note_on_c, 0, 57, 0
2, 44193, Note_on_c, 0, 100, 61
2, 44194, Note_on_c, 0, 60, 49
2, 44195, Note_on_c, 0, 57, 38
2, 44195, Note_on_c, 0, 88, 50
2, 44195, Note_on_c, 0, 95, 61
2, 44196, Note_on_c, 0, 53, 38
2, 44198, Note_on_c, 0, 50, 27
2, 44203, Note_on_c, 0, 88, 0
2, 44204, Note_on_c, 0, 60, 0
2, 44205, Note_on_c, 0, 95, 0
2, 44206, Note_on_c, 0, 53, 0
2, 44206, Note_on_c, 0, 57, 0
2, 44206, Note_on_c, 0, 50, 0
2, 44209, Note_on_c, 0, 100, 0
2, 44227, Note_on_c, 0, 53, 43
2, 44228, Note_on_c, 0, 57, 36
2, 44228, Note_on_c, 0, 60, 50
2, 44228, Note_on_c, 0, 95, 64
2, 44228, Note_on_c, 0, 100, 55
2, 44228, Note_on_c, 0, 88, 59
2, 44229, Note_on_c, 0, 50, 40
2, 44234, Note_on_c, 0, 88, 0
2, 44237, Note_on_c, 0, 60, 0
2, 44238, Note_on_c, 0, 95, 0
2, 44238, Note_on_c, 0, 57, 0
2, 44239, Note_on_c, 0, 53, 0
2, 44239, Note_on_c, 0, 50, 0
2, 44240, Note_on_c, 0, 100, 0
2, 44258, Note_on_c, 0, 60, 46
2, 44258, Note_on_c, 0, 50, 41
2, 44258, Note_on_c, 0, 53, 44
2, 44258, Note_on_c, 0, 101, 76
2, 44259, Note_on_c, 0, 57, 43
2, 44260, Note_on_c, 0, 96, 74
2, 44260, Note_on_c, 0, 89, 65
2, 44297, Control_c, 0, 64, 127
2, 44299, Note_on_c, 0, 57, 0
2, 44299, Note_on_c, 0, 101, 0
2, 44299, Note_on_c, 0, 60, 0
2, 44299, Note_on_c, 0, 50, 0
2, 44300, Note_on_c, 0, 53, 0
2, 44300, Note_on_c, 0, 96, 0
2, 44301, Note_on_c, 0, 89, 0
2, 44313, Note_on_c, 0, 100, 63
2, 44314, Note_on_c, 0, 60, 52
2, 44314, Note_on_c, 0, 88, 45
2, 44315, Note_on_c, 0, 57, 45
2, 44315, Note_on_c, 0, 95, 61
2, 44315, Note_on_c, 0, 53, 36
2, 44316, Note_on_c, 0, 50, 39
2, 44329, Note_on_c, 0, 95, 0
2, 44331, Note_on_c, 0, 100, 0
2, 44334, Note_on_c, 0, 88, 0
2, 44337, Note_on_c, 0, 53, 0
2, 44338, Note_on_c, 0, 60, 0
2, 44338, Note_on_c, 0, 57, 0
2, 44341, Note_on_c, 0, 50, 0
2, 44353, Note_on_c, 0, 96, 66
2, 44356, Note_on_c, 0, 60, 39
2, 44356, Note_on_c, 0, 84, 31
2, 44357, Note_on_c, 0, 91, 52
2, 44357, Control_c, 0, 64, 0
2, 44358, Note_on_c, 0, 57, 39
2, 44358, Note_on_c, 0, 50, 33
2, 44359, Note_on_c, 0, 53, 44
2, 44367, Note_on_c, 0, 91, 0
2, 44369, Note_on_c, 0, 84, 0
2, 44369, Note_on_c, 0, 96, 0
2, 44373, Note_on_c, 0, 60, 0
2, 44375, Note_on_c, 0, 57, 0
2, 44375, Control_c, 0, 64, 127
2, 44377, Note_on_c, 0, 53, 0
2, 44382, Note_on_c, 0, 50, 0
2, 44401, Note_on_c, 0, 93, 62
2, 44403, Note_on_c, 0, 81, 49
2, 44404, Note_on_c, 0, 60, 43
2, 44404, Note_on_c, 0, 88, 65
2, 44406, Note_on_c, 0, 57, 40
2, 44407, Note_on_c, 0, 50, 28
2, 44407, Note_on_c, 0, 53, 43
2, 44408, Control_c, 0, 64, 0
2, 44430, Control_c, 0, 64, 127
2, 44462, Note_on_c, 0, 93, 0
2, 44465, Note_on_c, 0, 88, 0
2, 44469, Note_on_c, 0, 81, 0
2, 44486, Note_on_c, 0, 53, 0
2, 44488, Note_on_c, 0, 60, 0
2, 44495, Note_on_c, 0, 57, 0
2, 44531, Note_on_c, 0, 60, 36
2, 44531, Note_on_c, 0, 53, 28
2, 44531, Note_on_c, 0, 57, 34
2, 44599, Note_on_c, 0, 53, 0
2, 44599, Note_on_c, 0, 50, 0
2, 44600, Note_on_c, 0, 57, 0
2, 44607, Note_on_c, 0, 60, 0
2, 44633, Note_on_c, 0, 69, 60
2, 44643, Note_on_c, 0, 70, 59
2, 44651, Note_on_c, 0, 69, 0
2, 44654, Note_on_c, 0, 70, 0
2, 44655, Note_on_c, 0, 71, 70
2, 44656, Control_c, 0, 64, 0
2, 44659, Note_on_c, 0, 64, 29
2, 44659, Note_on_c, 0, 59, 35
2, 44661, Note_on_c, 0, 53, 31
2, 44668, Note_on_c, 0, 71, 0
2, 44673, Note_on_c, 0, 76, 71
2, 44687, Note_on_c, 0, 76, 0
2, 44715, Note_on_c, 0, 76, 76
2, 44739, Control_c, 0, 64, 127
2, 44750, Note_on_c, 0, 74, 52
2, 44763, Note_on_c, 0, 76, 0
2, 44784, Note_on_c, 0, 69, 62
2, 44800, Note_on_c, 0, 69, 0
2, 44812, Note_on_c, 0, 74, 0
2, 44820, Note_on_c, 0, 69, 64
2, 44826, Note_on_c, 0, 69, 0
2, 44855, Note_on_c, 0, 81, 63
2, 44873, Note_on_c, 0, 53, 0
2, 44875, Note_on_c, 0, 64, 0
2, 44875, Note_on_c, 0, 59, 0
2, 44877, Note_on_c, 0, 81, 0
2, 44901, Control_c, 0, 64, 0
2, 44903, Note_on_c, 0, 81, 81
2, 44903, Note_on_c, 0, 64, 42
2, 44903, Note_on_c, 0, 59, 48
2, 44906, Note_on_c, 0, 53, 27
2, 44923, Control_c, 0, 64, 127
2, 44929, Note_on_c, 0, 81, 0
2, 44938, Note_on_c, 0, 64, 0
2, 44945, Note_on_c, 0, 79, 65
2, 44946, Note_on_c, 0, 64, 24
2, 44983, Note_on_c, 0, 64, 0
2, 44991, Note_on_c, 0, 59, 0
2, 45011, Note_on_c, 0, 79, 0
2, 45014, Note_on_c, 0, 67, 52
2, 45016, Note_on_c, 0, 59, 33
2, 45017, Note_on_c, 0, 64, 30
2, 45044, Note_on_c, 0, 53, 0
2, 45061, Note_on_c, 0, 67, 0
2, 45064, Note_on_c, 0, 64, 0
2, 45068, Note_on_c, 0, 74, 58
2, 45070, Note_on_c, 0, 53, 36
2, 45077, Note_on_c, 0, 59, 0
2, 45082, Note_on_c, 0, 74, 0
2, 45087, Note_on_c, 0, 53, 0
2, 45128, Control_c, 0, 64, 0
2, 45129, Note_on_c, 0, 71, 63
2, 45129, Note_on_c, 0, 52, 58
2, 45129, Note_on_c, 0, 68, 64
2, 45130, Note_on_c, 0, 74, 62
2, 45130, Note_on_c, 0, 64, 69
2, 45131, Note_on_c, 0, 59, 37
2, 45150, Control_c, 0, 64, 127
2, 45165, Note_on_c, 0, 74, 0
2, 45168, Note_on_c, 0, 64, 0
2, 45232, Note_on_c, 0, 71, 0
2, 45233, Note_on_c, 0, 68, 0
2, 45237, Note_on_c, 0, 76, 65
2, 45242, Note_on_c, 0, 59, 0
2, 45255, Note_on_c, 0, 76, 0
2, 45363, Note_on_c, 0, 74, 35
2, 45363, Note_on_c, 0, 67, 44
2, 45365, Note_on_c, 0, 64, 38
2, 45368, Note_on_c, 0, 60, 37
2, 45369, Control_c, 0, 64, 0
2, 45395, Control_c, 0, 64, 127
2, 45428, Note_on_c, 0, 67, 0
2, 45431, Note_on_c, 0, 74, 0
2, 45436, Note_on_c, 0, 64, 0
2, 45442, Note_on_c, 0, 60, 0
2, 45483, Note_on_c, 0, 67, 37
2, 45485, Note_on_c, 0, 64, 41
2, 45485, Note_on_c, 0, 62, 26
2, 45487, Note_on_c, 0, 60, 24
2, 45502, Note_on_c, 0, 52, 0
2, 45508, Note_on_c, 0, 62, 0
2, 45520, Note_on_c, 0, 64, 0
2, 45530, Note_on_c, 0, 67, 0
2, 45554, Note_on_c, 0, 52, 38
2, 45563, Note_on_c, 0, 60, 0
2, 45567, Note_on_c, 0, 52, 0
2, 45612, Control_c, 0, 64, 0
2, 45618, Note_on_c, 0, 76, 52
2, 45618, Note_on_c, 0, 57, 35
2, 45619, Note_on_c, 0, 47, 37
2, 45620, Note_on_c, 0, 65, 37
2, 45622, Note_on_c, 0, 69, 49
2, 45623, Note_on_c, 0, 71, 26
2, 45624, Control_c, 0, 64, 127
2, 45636, Note_on_c, 0, 57, 0
2, 45640, Note_on_c, 0, 76, 0
2, 45641, Note_on_c, 0, 47, 0
2, 45643, Note_on_c, 0, 71, 0
2, 45644, Note_on_c, 0, 65, 0
2, 45645, Note_on_c, 0, 69, 0
2, 45695, Note_on_c, 0, 40, 62
2, 45696, Note_on_c, 0, 43, 48
2, 45708, Note_on_c, 0, 45, 36
2, 45709, Note_on_c, 0, 40, 0
2, 45710, Note_on_c, 0, 43, 0
2, 45717, Note_on_c, 0, 45, 0
2, 45718, Note_on_c, 0, 41, 39
2, 45721, Note_on_c, 0, 47, 63
2, 45723, Note_on_c, 0, 41, 0
2, 45724, Control_c, 0, 64, 0
2, 45727, Note_on_c, 0, 43, 46
2, 45730, Note_on_c, 0, 47, 0
2, 45730, Note_on_c, 0, 48, 64
2, 45734, Note_on_c, 0, 43, 0
2, 45738, Note_on_c, 0, 45, 57
2, 45740, Note_on_c, 0, 50, 44
2, 45741, Note_on_c, 0, 48, 0
2, 45745, Note_on_c, 0, 45, 0
2, 45748, Note_on_c, 0, 47, 59
2, 45749, Note_on_c, 0, 52, 29
2, 45752, Note_on_c, 0, 50, 0
2, 45755, Note_on_c, 0, 47, 0
2, 45758, Note_on_c, 0, 48, 49
2, 45759, Note_on_c, 0, 53, 44
2, 45761, Note_on_c, 0, 52, 0
2, 45763, Note_on_c, 0, 48, 0
2, 45767, Note_on_c, 0, 50, 46
2, 45768, Note_on_c, 0, 55, 39
2, 45771, Note_on_c, 0, 53, 0
2, 45772, Note_on_c, 0, 50, 0
2, 45776, Note_on_c, 0, 52, 50
2, 45777, Note_on_c, 0, 57, 34
2, 45780, Note_on_c, 0, 55, 0
2, 45781, Note_on_c, 0, 52, 0
2, 45786, Note_on_c, 0, 53, 68
2, 45787, Note_on_c, 0, 59, 19
2, 45790, Note_on_c, 0, 57, 0
2, 45792, Note_on_c, 0, 53, 0
2, 45795, Note_on_c, 0, 55, 63
2, 45797, Note_on_c, 0, 60, 44
2, 45799, Note_on_c, 0, 59, 0
2, 45801, Note_on_c, 0, 55, 0
2, 45804, Note_on_c, 0, 57, 57
2, 45805, Note_on_c, 0, 62, 35
2, 45807, Note_on_c, 0, 60, 0
2, 45810, Note_on_c, 0, 57, 0
2, 45813, Note_on_c, 0, 59, 55
2, 45814, Note_on_c, 0, 64, 34
2, 45817, Note_on_c, 0, 62, 0
2, 45819, Note_on_c, 0, 59, 0
2, 45822, Note_on_c, 0, 60, 58
2, 45824, Note_on_c, 0, 65, 44
2, 45827, Note_on_c, 0, 60, 0
2, 45827, Note_on_c, 0, 64, 0
2, 45831, Note_on_c, 0, 62, 51
2, 45832, Note_on_c, 0, 67, 40
2, 45836, Note_on_c, 0, 62, 0
2, 45836, Note_on_c, 0, 65, 0
2, 45840, Note_on_c, 0, 64, 41
2, 45842, Note_on_c, 0, 69, 45
2, 45845, Note_on_c, 0, 64, 0
2, 45845, Note_on_c, 0, 67, 0
2, 45850, Note_on_c, 0, 65, 38
2, 45852, Note_on_c, 0, 71, 45
2, 45854, Note_on_c, 0, 69, 0
2, 45855, Note_on_c, 0, 65, 0
2, 45859, Note_on_c, 0, 67, 31
2, 45862, Note_on_c, 0, 72, 47
2, 45865, Note_on_c, 0, 67, 0
2, 45865, Note_on_c, 0, 71, 0
2, 45869, Note_on_c, 0, 69, 47
2, 45872, Note_on_c, 0, 74, 45
2, 45873, Note_on_c, 0, 72, 0
2, 45875, Note_on_c, 0, 69, 0
2, 45876, Note_on_c, 0, 67, 38
2, 45877, Note_on_c, 0, 62, 33
2, 45878, Note_on_c, 0, 56, 33
2, 45879, Note_on_c, 0, 71, 39
2, 45881, Note_on_c, 0, 76, 51
2, 45882, Note_on_c, 0, 74, 0
2, 45884, Note_on_c, 0, 71, 0
2, 45891, Note_on_c, 0, 76, 0
2, 45891, Note_on_c, 0, 72, 30
2, 45892, Note_on_c, 0, 77, 55
2, 45895, Note_on_c, 0, 72, 0
2, 45898, Note_on_c, 0, 74, 28
2, 45902, Note_on_c, 0, 77, 0
2, 45902, Note_on_c, 0, 79, 44
2, 45906, Note_on_c, 0, 74, 0
2, 45908, Note_on_c, 0, 76, 29
2, 45912, Note_on_c, 0, 79, 0
2, 45913, Note_on_c, 0, 81, 47
2, 45916, Note_on_c, 0, 76, 0
2, 45923, Note_on_c, 0, 81, 0
2, 45924, Note_on_c, 0, 77, 18
2, 45924, Note_on_c, 0, 83, 54
2, 45929, Note_on_c, 0, 77, 0
2, 45935, Note_on_c, 0, 79, 28
2, 45936, Note_on_c, 0, 83, 0
2, 45937, Note_on_c, 0, 84, 58
2, 45941, Note_on_c, 0, 79, 0
2, 45947, Note_on_c, 0, 84, 0
2, 45952, Note_on_c, 0, 86, 54
2, 45961, Note_on_c, 0, 86, 0
2, 45964, Note_on_c, 0, 83, 22
2, 45965, Control_c, 0, 64, 127
2, 45965, Note_on_c, 0, 88, 58
2, 45968, Note_on_c, 0, 83, 0
2, 45975, Note_on_c, 0, 88, 0
2, 45979, Note_on_c, 0, 89, 63
2, 45990, Note_on_c, 0, 89, 0
2, 45993, Note_on_c, 0, 86, 22
2, 45995, Note_on_c, 0, 91, 57
2, 45998, Note_on_c, 0, 86, 0
2, 46004, Note_on_c, 0, 91, 0
2, 46008, Note_on_c, 0, 88, 20
2, 46008, Note_on_c, 0, 93, 60
2, 46012, Note_on_c, 0, 88, 0
2, 46019, Note_on_c, 0, 93, 0
2, 46021, Note_on_c, 0, 89, 32
2, 46023, Note_on_c, 0, 67, 0
2, 46023, Note_on_c, 0, 95, 53
2, 46026, Note_on_c, 0, 89, 0
2, 46032, Note_on_c, 0, 62, 0
2, 46033, Note_on_c, 0, 95, 0
2, 46035, Note_on_c, 0, 91, 32
2, 46038, Note_on_c, 0, 96, 51
2, 46043, Note_on_c, 0, 91, 0
2, 46049, Note_on_c, 0, 96, 0
2, 46052, Note_on_c, 0, 56, 0
2, 46054, Note_on_c, 0, 93, 27
2, 46056, Note_on_c, 0, 98, 46
2, 46060, Note_on_c, 0, 93, 0
2, 46068, Note_on_c, 0, 98, 0
2, 46073, Note_on_c, 0, 95, 18
2, 46073, Note_on_c, 0, 100, 33
2, 46077, Note_on_c, 0, 95, 0
2, 46084, Note_on_c, 0, 100, 0
2, 46089, Note_on_c, 0, 101, 30
2, 46093, Note_on_c, 0, 55, 35
2, 46095, Note_on_c, 0, 64, 34
2, 46095, Note_on_c, 0, 60, 46
2, 46095, Note_on_c, 0, 59, 36
2, 46102, Note_on_c, 0, 101, 0
2, 46107, Control_c, 0, 64, 0
2, 46129, Control_c, 0, 64, 127
2, 46176, Note_on_c, 0, 64, 0
2, 46181, Note_on_c, 0, 60, 0
2, 46214, Note_on_c, 0, 67, 51
2, 46215, Note_on_c, 0, 60, 18
2, 46215, Note_on_c, 0, 64, 20
2, 46226, Note_on_c, 0, 64, 0
2, 46228, Note_on_c, 0, 60, 0
2, 46235, Note_on_c, 0, 59, 0
2, 46236, Note_on_c, 0, 55, 0
2, 46243, Note_on_c, 0, 71, 64
2, 46247, Note_on_c, 0, 67, 0
2, 46263, Note_on_c, 0, 71, 0
2, 46269, Note_on_c, 0, 74, 67
2, 46278, Note_on_c, 0, 74, 0
2, 46297, Note_on_c, 0, 79, 67
2, 46312, Note_on_c, 0, 79, 0
2, 46324, Control_c, 0, 64, 0
2, 46326, Note_on_c, 0, 64, 36
2, 46327, Note_on_c, 0, 60, 40
2, 46328, Note_on_c, 0, 59, 37
2, 46328, Note_on_c, 0, 55, 36
2, 46332, Note_on_c, 0, 86, 69
2, 46332, Note_on_c, 0, 74, 61
2, 46335, Note_on_c, 0, 59, 0
2, 46335, Note_on_c, 0, 60, 0
2, 46336, Note_on_c, 0, 86, 0
2, 46338, Note_on_c, 0, 64, 0
2, 46339, Note_on_c, 0, 74, 0
2, 46340, Note_on_c, 0, 55, 0
2, 46375, Note_on_c, 0, 74, 71
2, 46375, Note_on_c, 0, 86, 72
2, 46377, Note_on_c, 0, 60, 49
2, 46377, Note_on_c, 0, 64, 43
2, 46379, Note_on_c, 0, 55, 39
2, 46379, Note_on_c, 0, 59, 34
2, 46382, Note_on_c, 0, 60, 0
2, 46383, Note_on_c, 0, 64, 0
2, 46383, Note_on_c, 0, 74, 0
2, 46384, Note_on_c, 0, 59, 0
2, 46384, Note_on_c, 0, 55, 0
2, 46385, Note_on_c, 0, 86, 0
2, 46416, Note_on_c, 0, 86, 72
2, 46416, Note_on_c, 0, 64, 49
2, 46417, Note_on_c, 0, 74, 64
2, 46417, Note_on_c, 0, 60, 50
2, 46418, Note_on_c, 0, 59, 31
2, 46422, Note_on_c, 0, 60, 0
2, 46422, Note_on_c, 0, 64, 0
2, 46424, Note_on_c, 0, 59, 0
2, 46425, Note_on_c, 0, 74, 0
2, 46427, Note_on_c, 0, 86, 0
2, 46444, Control_c, 0, 64, 127
2, 46449, Note_on_c, 0, 64, 41
2, 46449, Note_on_c, 0, 86, 67
2, 46449, Note_on_c, 0, 60, 43
2, 46449, Note_on_c, 0, 59, 35
2, 46450, Note_on_c, 0, 55, 37
2, 46450, Note_on_c, 0, 74, 55
2, 46460, Note_on_c, 0, 64, 0
2, 46464, Note_on_c, 0, 55, 0
2, 46464, Note_on_c, 0, 86, 0
2, 46466, Note_on_c, 0, 59, 0
2, 46466, Note_on_c, 0, 74, 0
2, 46467, Note_on_c, 0, 60, 0
2, 46484, Note_on_c, 0, 84, 55
2, 46486, Note_on_c, 0, 55, 41
2, 46486, Note_on_c, 0, 72, 36
2, 46487, Note_on_c, 0, 60, 40
2, 46490, Note_on_c, 0, 59, 22
2, 46493, Note_on_c, 0, 60, 0
2, 46495, Note_on_c, 0, 72, 0
2, 46495, Note_on_c, 0, 59, 0
2, 46498, Note_on_c, 0, 84, 0
2, 46499, Note_on_c, 0, 55, 0
2, 46524, Note_on_c, 0, 74, 53
2, 46524, Note_on_c, 0, 86, 65
2, 46525, Note_on_c, 0, 63, 42
2, 46526, Note_on_c, 0, 81, 50
2, 46526, Note_on_c, 0, 78, 35
2, 46527, Note_on_c, 0, 60, 35
2, 46528, Note_on_c, 0, 54, 36
2, 46539, Note_on_c, 0, 74, 0
2, 46541, Note_on_c, 0, 60, 0
2, 46541, Note_on_c, 0, 63, 0
2, 46541, Note_on_c, 0, 86, 0
2, 46541, Note_on_c, 0, 54, 0
2, 46542, Note_on_c, 0, 78, 0
2, 46547, Note_on_c, 0, 81, 0
2, 46560, Control_c, 0, 64, 0
2, 46563, Note_on_c, 0, 84, 60
2, 46565, Note_on_c, 0, 72, 45
2, 46570, Note_on_c, 0, 72, 0
2, 46574, Note_on_c, 0, 84, 0
2, 46614, Note_on_c, 0, 84, 61
2, 46616, Note_on_c, 0, 64, 36
2, 46616, Note_on_c, 0, 72, 47
2, 46617, Note_on_c, 0, 81, 47
2, 46617, Note_on_c, 0, 57, 34
2, 46618, Note_on_c, 0, 60, 44
2, 46619, Note_on_c, 0, 53, 25
2, 46620, Note_on_c, 0, 77, 37
2, 46625, Note_on_c, 0, 81, 0
2, 46626, Note_on_c, 0, 77, 0
2, 46629, Note_on_c, 0, 84, 0
2, 46630, Note_on_c, 0, 64, 0
2, 46631, Note_on_c, 0, 72, 0
2, 46631, Note_on_c, 0, 60, 0
2, 46633, Control_c, 0, 64, 127
2, 46637, Note_on_c, 0, 57, 0
2, 46639, Note_on_c, 0, 53, 0
2, 46675, Note_on_c, 0, 81, 56
2, 46676, Note_on_c, 0, 77, 44
2, 46678, Note_on_c, 0, 69, 45
2, 46679, Note_on_c, 0, 74, 42
2, 46679, Note_on_c, 0, 60, 39
2, 46679, Note_on_c, 0, 64, 31
2, 46680, Note_on_c, 0, 53, 30
2, 46680, Note_on_c, 0, 57, 40
2, 46681, Control_c, 0, 64, 0
2, 46703, Control_c, 0, 64, 127
2, 46754, Note_on_c, 0, 69, 0
2, 46756, Note_on_c, 0, 60, 0
2, 46756, Note_on_c, 0, 74, 0
2, 46756, Note_on_c, 0, 64, 0
2, 46762, Note_on_c, 0, 77, 0
2, 46763, Note_on_c, 0, 81, 0
2, 46764, Note_on_c, 0, 53, 0
2, 46765, Note_on_c, 0, 57, 0
2, 46798, Note_on_c, 0, 83, 58
2, 46800, Note_on_c, 0, 71, 43
2, 46800, Note_on_c, 0, 59, 38
2, 46801, Note_on_c, 0, 76, 45
2, 46801, Note_on_c, 0, 64, 32
2, 46801, Control_c, 0, 64, 0
2, 46802, Note_on_c, 0, 53, 36
2, 46829, Control_c, 0, 64, 127
2, 46864, Note_on_c, 0, 64, 0
2, 46883, Note_on_c, 0, 59, 0
2, 46890, Note_on_c, 0, 76, 0
2, 46890, Note_on_c, 0, 71, 0
2, 46919, Note_on_c, 0, 71, 42
2, 46920, Note_on_c, 0, 76, 36
2, 46922, Note_on_c, 0, 59, 35
2, 46926, Note_on_c, 0, 64, 16
2, 46951, Note_on_c, 0, 83, 0
2, 46958, Note_on_c, 0, 76, 0
2, 46965, Note_on_c, 0, 71, 0
2, 46969, Note_on_c, 0, 64, 0
2, 46972, Note_on_c, 0, 59, 0
2, 46983, Note_on_c, 0, 53, 0
2, 47015, Note_on_c, 0, 72, 62
2, 47026, Note_on_c, 0, 72, 0
2, 47045, Note_on_c, 0, 62, 29
2, 47045, Note_on_c, 0, 72, 68
2, 47046, Note_on_c, 0, 58, 29
2, 47047, Control_c, 0, 64, 0
2, 47047, Note_on_c, 0, 57, 28
2, 47048, Note_on_c, 0, 52, 39
2, 47183, Control_c, 0, 64, 127
2, 47206, Note_on_c, 0, 72, 0
2, 47207, Note_on_c, 0, 69, 63
2, 47229, Control_c, 0, 64, 0
2, 47230, Note_on_c, 0, 70, 74
2, 47231, Note_on_c, 0, 69, 0
2, 47241, Note_on_c, 0, 70, 0
2, 47249, Note_on_c, 0, 62, 0
2, 47253, Note_on_c, 0, 57, 0
2, 47255, Note_on_c, 0, 74, 69
2, 47266, Note_on_c, 0, 74, 0
2, 47278, Note_on_c, 0, 58, 0
2, 47279, Note_on_c, 0, 78, 55
2, 47292, Note_on_c, 0, 78, 0
2, 47303, Note_on_c, 0, 81, 69
2, 47315, Note_on_c, 0, 81, 0
2, 47330, Note_on_c, 0, 84, 80
2, 47331, Note_on_c, 0, 54, 36
2, 47334, Note_on_c, 0, 60, 36
2, 47346, Note_on_c, 0, 84, 0
2, 47361, Note_on_c, 0, 57, 1
2, 47363, Note_on_c, 0, 82, 64
2, 47379, Note_on_c, 0, 82, 0
2, 47395, Note_on_c, 0, 81, 66
2, 47408, Note_on_c, 0, 81, 0
2, 47427, Note_on_c, 0, 78, 56
2, 47441, Note_on_c, 0, 78, 0
2, 47453, Control_c, 0, 64, 127
2, 47458, Note_on_c, 0, 75, 57
2, 47467, Note_on_c, 0, 52, 0
2, 47471, Control_c, 0, 64, 0
2, 47482, Note_on_c, 0, 75, 0
2, 47492, Note_on_c, 0, 72, 31
2, 47495, Note_on_c, 0, 52, 34
2, 47502, Control_c, 0, 64, 127
2, 47510, Note_on_c, 0, 57, 0
2, 47512, Note_on_c, 0, 72, 0
2, 47513, Note_on_c, 0, 54, 0
2, 47517, Note_on_c, 0, 60, 0
2, 47534, Note_on_c, 0, 77, 59
2, 47535, Note_on_c, 0, 70, 60
2, 47537, Note_on_c, 0, 62, 46
2, 47538, Control_c, 0, 64, 0
2, 47539, Note_on_c, 0, 58, 46
2, 47568, Control_c, 0, 64, 127
2, 47610, Note_on_c, 0, 62, 0
2, 47614, Note_on_c, 0, 58, 0
2, 47624, Note_on_c, 0, 70, 0
2, 47643, Note_on_c, 0, 74, 46
2, 47644, Note_on_c, 0, 70, 36
2, 47645, Note_on_c, 0, 69, 46
2, 47645, Note_on_c, 0, 62, 31
2, 47646, Note_on_c, 0, 58, 37
2, 47683, Note_on_c, 0, 52, 0
2, 47703, Note_on_c, 0, 69, 0
2, 47703, Note_on_c, 0, 74, 0
2, 47704, Note_on_c, 0, 52, 54
2, 47708, Note_on_c, 0, 77, 0
2, 47716, Note_on_c, 0, 70, 0
2, 47722, Note_on_c, 0, 62, 0
2, 47739, Note_on_c, 0, 58, 0
2, 47755, Note_on_c, 0, 58, 56
2, 47759, Note_on_c, 0, 64, 68
2, 47762, Note_on_c, 0, 68, 74
2, 47766, Note_on_c, 0, 73, 61
2, 47768, Note_on_c, 0, 61, 61
2, 47768, Note_on_c, 0, 76, 73
2, 47769, Control_c, 0, 64, 0
2, 47774, Note_on_c, 0, 58, 0
2, 47796, Control_c, 0, 64, 127
2, 47814, Note_on_c, 0, 52, 0
2, 47814, Note_on_c, 0, 76, 0
2, 47826, Note_on_c, 0, 75, 75
2, 47828, Note_on_c, 0, 52, 51
2, 47854, Note_on_c, 0, 75, 0
2, 47865, Note_on_c, 0, 61, 0
2, 47865, Note_on_c, 0, 64, 0
2, 47870, Note_on_c, 0, 68, 0
2, 47875, Note_on_c, 0, 73, 0
2, 47887, Note_on_c, 0, 73, 57
2, 47888, Note_on_c, 0, 68, 67
2, 47890, Control_c, 0, 64, 0
2, 47890, Note_on_c, 0, 61, 43
2, 47890, Note_on_c, 0, 64, 48
2, 47894, Note_on_c, 0, 58, 27
2, 47902, Control_c, 0, 64, 127
2, 47911, Note_on_c, 0, 58, 0
2, 47918, Note_on_c, 0, 73, 0
2, 47918, Note_on_c, 0, 61, 0
2, 47922, Note_on_c, 0, 68, 0
2, 47922, Note_on_c, 0, 64, 0
2, 47946, Note_on_c, 0, 61, 52
2, 47947, Note_on_c, 0, 72, 61
2, 47949, Note_on_c, 0, 58, 31
2, 47950, Note_on_c, 0, 64, 34
2, 47951, Note_on_c, 0, 70, 44
2, 47969, Note_on_c, 0, 52, 0
2, 47974, Note_on_c, 0, 58, 0
2, 47976, Note_on_c, 0, 61, 0
2, 47977, Note_on_c, 0, 64, 0
2, 47980, Note_on_c, 0, 70, 0
2, 47987, Note_on_c, 0, 72, 0
2, 48004, Note_on_c, 0, 64, 44
2, 48004, Note_on_c, 0, 69, 62
2, 48007, Note_on_c, 0, 60, 49
2, 48008, Control_c, 0, 64, 0
2, 48009, Note_on_c, 0, 53, 32
2, 48009, Note_on_c, 0, 57, 39
2, 48031, Control_c, 0, 64, 127
2, 48055, Note_on_c, 0, 69, 0
2, 48058, Note_on_c, 0, 60, 0
2, 48061, Note_on_c, 0, 64, 0
2, 48063, Note_on_c, 0, 57, 0
2, 48070, Note_on_c, 0, 53, 0
2, 48129, Note_on_c, 0, 53, 47
2, 48129, Note_on_c, 0, 69, 71
2, 48131, Note_on_c, 0, 60, 59
2, 48131, Note_on_c, 0, 57, 44
2, 48132, Note_on_c, 0, 64, 65
2, 48133, Note_on_c, 0, 81, 87
2, 48133, Note_on_c, 0, 76, 84
2, 48141, Control_c, 0, 64, 0
2, 48155, Control_c, 0, 64, 127
2, 48178, Note_on_c, 0, 76, 0
2, 48178, Note_on_c, 0, 81, 0
2, 48179, Note_on_c, 0, 69, 0
2, 48181, Note_on_c, 0, 64, 0
2, 48183, Note_on_c, 0, 60, 0
2, 48187, Note_on_c, 0, 57, 0
2, 48193, Note_on_c, 0, 64, 47
2, 48194, Note_on_c, 0, 67, 70
2, 48195, Note_on_c, 0, 60, 34
2, 48195, Note_on_c, 0, 79, 69
2, 48197, Note_on_c, 0, 57, 17
2, 48208, Note_on_c, 0, 60, 0
2, 48209, Note_on_c, 0, 64, 0
2, 48213, Note_on_c, 0, 57, 0
2, 48215, Note_on_c, 0, 53, 0
2, 48217, Note_on_c, 0, 67, 0
2, 48222, Note_on_c, 0, 79, 0
2, 48256, Note_on_c, 0, 63, 50
2, 48257, Note_on_c, 0, 81, 70
2, 48258, Note_on_c, 0, 57, 57
2, 48259, Note_on_c, 0, 67, 59
2, 48259, Note_on_c, 0, 77, 71
2, 48259, Note_on_c, 0, 62, 66
2, 48260, Note_on_c, 0, 69, 81
2, 48261, Control_c, 0, 64, 0
2, 48293, Control_c, 0, 64, 127
2, 48322, Note_on_c, 0, 69, 0
2, 48325, Note_on_c, 0, 62, 0
2, 48328, Note_on_c, 0, 67, 0
2, 48329, Note_on_c, 0, 77, 0
2, 48332, Note_on_c, 0, 81, 0
2, 48337, Note_on_c, 0, 63, 0
2, 48354, Note_on_c, 0, 57, 0
2, 48372, Note_on_c, 0, 84, 68
2, 48374, Control_c, 0, 64, 0
2, 48374, Note_on_c, 0, 79, 66
2, 48374, Note_on_c, 0, 63, 38
2, 48374, Note_on_c, 0, 67, 49
2, 48375, Note_on_c, 0, 72, 55
2, 48375, Note_on_c, 0, 57, 45
2, 48376, Note_on_c, 0, 62, 48
2, 48385, Control_c, 0, 64, 127
2, 48407, Note_on_c, 0, 62, 0
2, 48420, Note_on_c, 0, 67, 0
2, 48421, Note_on_c, 0, 72, 0
2, 48422, Note_on_c, 0, 79, 0
2, 48424, Note_on_c, 0, 57, 0
2, 48427, Note_on_c, 0, 63, 0
2, 48429, Note_on_c, 0, 84, 0
2, 48487, Note_on_c, 0, 86, 54
2, 48488, Control_c, 0, 64, 0
2, 48489, Note_on_c, 0, 65, 45
2, 48490, Note_on_c, 0, 81, 54
2, 48490, Note_on_c, 0, 77, 37
2, 48491, Note_on_c, 0, 62, 32
2, 48491, Note_on_c, 0, 74, 39
2, 48492, Note_on_c, 0, 55, 35
2, 48492, Note_on_c, 0, 60, 37
2, 48509, Control_c, 0, 64, 127
2, 48605, Note_on_c, 0, 86, 0
2, 48608, Note_on_c, 0, 81, 0
2, 48610, Note_on_c, 0, 77, 0
2, 48613, Note_on_c, 0, 74, 0
2, 48619, Note_on_c, 0, 65, 0
2, 48622, Note_on_c, 0, 60, 0
2, 48626, Note_on_c, 0, 55, 0
2, 48628, Note_on_c, 0, 62, 0
2, 48665, Note_on_c, 0, 81, 47
2, 48668, Note_on_c, 0, 65, 29
2, 48668, Note_on_c, 0, 69, 35
2, 48668, Note_on_c, 0, 77, 34
2, 48669, Note_on_c, 0, 74, 32
2, 48669, Note_on_c, 0, 62, 20
2, 48670, Note_on_c, 0, 55, 28
2, 48671, Note_on_c, 0, 60, 27
2, 48671, Control_c, 0, 64, 0
2, 48679, Control_c, 0, 64, 127
2, 48689, Note_on_c, 0, 77, 0
2, 48691, Note_on_c, 0, 74, 0
2, 48691, Note_on_c, 0, 81, 0
2, 48694, Note_on_c, 0, 65, 0
2, 48695, Note_on_c, 0, 60, 0
2, 48695, Note_on_c, 0, 69, 0
2, 48704, Note_on_c, 0, 55, 0
2, 48704, Note_on_c, 0, 62, 0
2, 48732, Note_on_c, 0, 77, 48
2, 48733, Control_c, 0, 64, 0
2, 48735, Note_on_c, 0, 62, 29
2, 48736, Note_on_c, 0, 65, 31
2, 48736, Note_on_c, 0, 72, 42
2, 48737, Note_on_c, 0, 55, 32
2, 48738, Note_on_c, 0, 60, 35
2, 48760, Control_c, 0, 64, 127
2, 48798, Note_on_c, 0, 72, 0
2, 48804, Note_on_c, 0, 77, 0
2, 48810, Note_on_c, 0, 60, 0
2, 48811, Note_on_c, 0, 65, 0
2, 48817, Note_on_c, 0, 62, 0
2, 48861, Note_on_c, 0, 62, 32
2, 48861, Note_on_c, 0, 65, 40
2, 48862, Note_on_c, 0, 69, 46
2, 48864, Note_on_c, 0, 60, 35
2, 48904, Note_on_c, 0, 62, 0
2, 48905, Note_on_c, 0, 60, 0
2, 48914, Note_on_c, 0, 65, 0
2, 48921, Note_on_c, 0, 55, 0
2, 48931, Note_on_c, 0, 69, 0
2, 48977, Note_on_c, 0, 63, 35
2, 48977, Note_on_c, 0, 60, 34
2, 48980, Note_on_c, 0, 55, 34
2, 48980, Control_c, 0, 64, 0
2, 48981, Note_on_c, 0, 72, 46
2, 48983, Note_on_c, 0, 57, 33
2, 49004, Control_c, 0, 64, 127
2, 49011, Note_on_c, 0, 72, 0
2, 49014, Note_on_c, 0, 55, 0
2, 49014, Note_on_c, 0, 60, 0
2, 49015, Note_on_c, 0, 57, 0
2, 49018, Note_on_c, 0, 63, 0
2, 49091, Control_c, 0, 64, 0
2, 49091, Note_on_c, 0, 86, 83
2, 49091, Note_on_c, 0, 63, 79
2, 49092, Note_on_c, 0, 60, 68
2, 49092, Note_on_c, 0, 55, 68
2, 49092, Note_on_c, 0, 74, 80
2, 49092, Note_on_c, 0, 81, 82
2, 49094, Note_on_c, 0, 57, 59
2, 49109, Control_c, 0, 64, 127
2, 49116, Note_on_c, 0, 74, 0
2, 49116, Note_on_c, 0, 86, 0
2, 49118, Note_on_c, 0, 85, 49
2, 49120, Note_on_c, 0, 63, 0
2, 49120, Note_on_c, 0, 57, 0
2, 49121, Note_on_c, 0, 55, 0
2, 49122, Note_on_c, 0, 85, 0
2, 49123, Note_on_c, 0, 81, 0
2, 49125, Note_on_c, 0, 60, 0
2, 49133, Control_c, 0, 64, 0
2, 49135, Note_on_c, 0, 87, 75
2, 49136, Note_on_c, 0, 55, 57
2, 49136, Note_on_c, 0, 63, 65
2, 49137, Note_on_c, 0, 75, 69
2, 49139, Note_on_c, 0, 60, 44
2, 49143, Note_on_c, 0, 75, 0
2, 49144, Note_on_c, 0, 87, 0
2, 49144, Note_on_c, 0, 60, 0
2, 49148, Note_on_c, 0, 63, 0
2, 49151, Note_on_c, 0, 55, 0
2, 49180, Note_on_c, 0, 63, 62
2, 49181, Note_on_c, 0, 86, 60
2, 49181, Note_on_c, 0, 74, 63
2, 49181, Note_on_c, 0, 55, 42
2, 49182, Note_on_c, 0, 81, 62
2, 49187, Note_on_c, 0, 60, 26
2, 49188, Note_on_c, 0, 81, 0
2, 49188, Control_c, 0, 64, 127
2, 49192, Note_on_c, 0, 86, 0
2, 49192, Note_on_c, 0, 74, 0
2, 49192, Note_on_c, 0, 55, 0
2, 49192, Note_on_c, 0, 60, 0
2, 49201, Note_on_c, 0, 63, 0
2, 49215, Control_c, 0, 64, 0
2, 49220, Note_on_c, 0, 80, 56
2, 49220, Note_on_c, 0, 72, 56
2, 49220, Note_on_c, 0, 84, 60
2, 49222, Note_on_c, 0, 64, 59
2, 49222, Note_on_c, 0, 60, 60
2, 49223, Note_on_c, 0, 54, 54
2, 49242, Note_on_c, 0, 80, 0
2, 49243, Note_on_c, 0, 81, 42
2, 49261, Control_c, 0, 64, 127
2, 49318, Note_on_c, 0, 64, 0
2, 49322, Note_on_c, 0, 60, 0
2, 49335, Note_on_c, 0, 64, 36
2, 49336, Note_on_c, 0, 72, 0
2, 49336, Note_on_c, 0, 60, 31
2, 49351, Note_on_c, 0, 81, 0
2, 49365, Note_on_c, 0, 84, 0
2, 49397, Note_on_c, 0, 60, 0
2, 49398, Note_on_c, 0, 64, 0
2, 49412, Note_on_c, 0, 81, 43
2, 49413, Note_on_c, 0, 79, 40
2, 49414, Note_on_c, 0, 54, 0
2, 49418, Note_on_c, 0, 79, 0
2, 49418, Note_on_c, 0, 81, 0
2, 49448, Control_c, 0, 64, 0
2, 49449, Note_on_c, 0, 59, 36
2, 49451, Note_on_c, 0, 56, 35
2, 49451, Note_on_c, 0, 63, 38
2, 49453, Note_on_c, 0, 75, 45
2, 49454, Note_on_c, 0, 70, 48
2, 49454, Note_on_c, 0, 82, 54
2, 49456, Note_on_c, 0, 79, 36
2, 49457, Note_on_c, 0, 53, 19
2, 49466, Note_on_c, 0, 53, 0
2, 49466, Note_on_c, 0, 70, 0
2, 49466, Note_on_c, 0, 75, 0
2, 49468, Note_on_c, 0, 63, 0
2, 49469, Note_on_c, 0, 79, 0
2, 49471, Note_on_c, 0, 59, 0
2, 49472, Note_on_c, 0, 82, 0
2, 49473, Note_on_c, 0, 56, 0
2, 49495, Note_on_c, 0, 82, 48
2, 49495, Note_on_c, 0, 63, 37
2, 49496, Note_on_c, 0, 70, 38
2, 49497, Note_on_c, 0, 59, 37
2, 49497, Note_on_c, 0, 56, 29
2, 49499, Note_on_c, 0, 75, 39
2, 49500, Note_on_c, 0, 79, 36
2, 49512, Note_on_c, 0, 79, 0
2, 49512, Note_on_c, 0, 70, 0
2, 49515, Note_on_c, 0, 82, 0
2, 49518, Note_on_c, 0, 59, 0
2, 49518, Note_on_c, 0, 63, 0
2, 49518, Note_on_c, 0, 75, 0
2, 49520, Note_on_c, 0, 56, 0
2, 49541, Note_on_c, 0, 80, 39
2, 49544, Note_on_c, 0, 68, 38
2, 49544, Note_on_c, 0, 75, 43
2, 49545, Note_on_c, 0, 63, 28
2, 49547, Note_on_c, 0, 56, 27
2, 49549, Note_on_c, 0, 59, 31
2, 49553, Note_on_c, 0, 75, 0
2, 49553, Note_on_c, 0, 68, 0
2, 49553, Control_c, 0, 64, 127
2, 49559, Note_on_c, 0, 63, 0
2, 49559, Note_on_c, 0, 59, 0
2, 49560, Note_on_c, 0, 80, 0
2, 49562, Control_c, 0, 64, 0
2, 49563, Note_on_c, 0, 56, 0
2, 49579, Note_on_c, 0, 63, 39
2, 49580, Note_on_c, 0, 82, 62
2, 49583, Note_on_c, 0, 70, 40
2, 49583, Note_on_c, 0, 59, 35
2, 49584, Note_on_c, 0, 75, 38
2, 49584, Note_on_c, 0, 56, 25
2, 49590, Note_on_c, 0, 75, 0
2, 49593, Note_on_c, 0, 70, 0
2, 49595, Note_on_c, 0, 63, 0
2, 49597, Note_on_c, 0, 59, 0
2, 49599, Note_on_c, 0, 56, 0
2, 49599, Note_on_c, 0, 82, 0
2, 49618, Note_on_c, 0, 82, 56
2, 49619, Note_on_c, 0, 63, 42
2, 49621, Note_on_c, 0, 70, 52
2, 49621, Note_on_c, 0, 75, 56
2, 49622, Note_on_c, 0, 59, 43
2, 49624, Note_on_c, 0, 56, 25
2, 49630, Note_on_c, 0, 70, 0
2, 49631, Note_on_c, 0, 59, 0
2, 49632, Note_on_c, 0, 75, 0
2, 49633, Note_on_c, 0, 63, 0
2, 49635, Note_on_c, 0, 82, 0
2, 49637, Note_on_c, 0, 56, 0
2, 49656, Note_on_c, 0, 63, 36
2, 49657, Note_on_c, 0, 80, 49
2, 49658, Note_on_c, 0, 53, 43
2, 49659, Note_on_c, 0, 75, 51
2, 49660, Control_c, 0, 64, 127
2, 49660, Note_on_c, 0, 68, 46
2, 49660, Note_on_c, 0, 56, 29
2, 49663, Note_on_c, 0, 63, 0
2, 49665, Note_on_c, 0, 53, 0
2, 49671, Note_on_c, 0, 68, 0
2, 49671, Note_on_c, 0, 56, 0
2, 49672, Note_on_c, 0, 75, 0
2, 49675, Note_on_c, 0, 80, 0
2, 49681, Control_c, 0, 64, 0
2, 49693, Note_on_c, 0, 76, 50
2, 49693, Note_on_c, 0, 58, 37
2, 49693, Note_on_c, 0, 67, 49
2, 49693, Note_on_c, 0, 52, 48
2, 49694, Note_on_c, 0, 62, 32
2, 49698, Note_on_c, 0, 79, 29
2, 49703, Note_on_c, 0, 62, 0
2, 49703, Note_on_c, 0, 52, 0
2, 49703, Note_on_c, 0, 67, 0
2, 49704, Note_on_c, 0, 79, 0
2, 49705, Note_on_c, 0, 76, 0
2, 49707, Note_on_c, 0, 58, 0
2, 49736, Note_on_c, 0, 58, 37
2, 49737, Note_on_c, 0, 79, 50
2, 49737, Note_on_c, 0, 52, 44
2, 49739, Note_on_c, 0, 67, 48
2, 49739, Note_on_c, 0, 76, 43
2, 49739, Note_on_c, 0, 62, 35
2, 49743, Note_on_c, 0, 77, 32
2, 49747, Note_on_c, 0, 76, 0
2, 49749, Note_on_c, 0, 77, 0
2, 49750, Note_on_c, 0, 79, 0
2, 49752, Note_on_c, 0, 67, 0
2, 49752, Note_on_c, 0, 62, 0
2, 49752, Control_c, 0, 64, 127
2, 49757, Note_on_c, 0, 52, 0
2, 49767, Note_on_c, 0, 58, 0
2, 49780, Control_c, 0, 64, 0
2, 49780, Note_on_c, 0, 76, 58
2, 49782, Note_on_c, 0, 58, 38
2, 49783, Note_on_c, 0, 62, 40
2, 49784, Note_on_c, 0, 52, 51
2, 49787, Control_c, 0, 64, 127
2, 49794, Note_on_c, 0, 62, 0
2, 49798, Note_on_c, 0, 52, 0
2, 49805, Note_on_c, 0, 58, 0
2, 49805, Note_on_c, 0, 76, 0
2, 49817, Note_on_c, 0, 74, 45
2, 49819, Control_c, 0, 64, 0
2, 49820, Note_on_c, 0, 64, 55
2, 49823, Note_on_c, 0, 58, 32
2, 49824, Note_on_c, 0, 61, 25
2, 49824, Note_on_c, 0, 52, 36
2, 49837, Note_on_c, 0, 64, 0
2, 49841, Control_c, 0, 64, 127
2, 49843, Note_on_c, 0, 52, 0
2, 49847, Note_on_c, 0, 74, 0
2, 49850, Note_on_c, 0, 58, 0
2, 49850, Note_on_c, 0, 61, 0
2, 49863, Note_on_c, 0, 74, 49
2, 49864, Control_c, 0, 64, 0
2, 49865, Note_on_c, 0, 61, 37
2, 49867, Note_on_c, 0, 64, 54
2, 49867, Note_on_c, 0, 68, 49
2, 49867, Note_on_c, 0, 52, 41
2, 49868, Note_on_c, 0, 58, 33
2, 49878, Note_on_c, 0, 68, 0
2, 49880, Note_on_c, 0, 64, 0
2, 49881, Note_on_c, 0, 61, 0
2, 49882, Note_on_c, 0, 74, 0
2, 49882, Note_on_c, 0, 52, 0
2, 49883, Control_c, 0, 64, 127
2, 49887, Note_on_c, 0, 58, 0
2, 49896, Control_c, 0, 64, 0
2, 49906, Note_on_c, 0, 73, 60
2, 49906, Control_c, 0, 64, 127
2, 49906, Note_on_c, 0, 61, 26
2, 49906, Note_on_c, 0, 52, 35
2, 49907, Note_on_c, 0, 58, 38
2, 49908, Note_on_c, 0, 68, 53
2, 49911, Note_on_c, 0, 64, 35
2, 49914, Note_on_c, 0, 52, 0
2, 49918, Note_on_c, 0, 64, 0
2, 49919, Note_on_c, 0, 73, 0
2, 49919, Note_on_c, 0, 61, 0
2, 49923, Note_on_c, 0, 68, 0
2, 49926, Note_on_c, 0, 58, 0
2, 49946, Note_on_c, 0, 72, 58
2, 49946, Note_on_c, 0, 53, 35
2, 49947, Control_c, 0, 64, 0
2, 49947, Note_on_c, 0, 67, 51
2, 49947, Note_on_c, 0, 62, 42
2, 49949, Note_on_c, 0, 60, 40
2, 49973, Control_c, 0, 64, 127
2, 49998, Note_on_c, 0, 62, 0
2, 50022, Note_on_c, 0, 67, 0
2, 50046, Note_on_c, 0, 72, 0
2, 50049, Note_on_c, 0, 60, 0
2, 50057, Note_on_c, 0, 60, 22
2, 50105, Note_on_c, 0, 72, 63
2, 50121, Note_on_c, 0, 72, 0
2, 50134, Note_on_c, 0, 72, 62
2, 50153, Note_on_c, 0, 72, 0
2, 50167, Note_on_c, 0, 72, 68
2, 50167, Note_on_c, 0, 65, 42
2, 50197, Note_on_c, 0, 53, 0
2, 50206, Note_on_c, 0, 72, 0
2, 50210, Note_on_c, 0, 81, 81
2, 50210, Note_on_c, 0, 53, 61
2, 50227, Note_on_c, 0, 81, 0
2, 50258, Note_on_c, 0, 79, 96
2, 50277, Note_on_c, 0, 65, 0
2, 50279, Note_on_c, 0, 79, 0
2, 50287, Note_on_c, 0, 60, 0
2, 50296, Note_on_c, 0, 79, 85
2, 50296, Note_on_c, 0, 60, 32
2, 50298, Note_on_c, 0, 65, 43
2, 50322, Note_on_c, 0, 79, 0
2, 50328, Note_on_c, 0, 81, 81
2, 50334, Note_on_c, 0, 53, 0
2, 50344, Note_on_c, 0, 81, 0
2, 50357, Note_on_c, 0, 53, 53
2, 50359, Note_on_c, 0, 81, 82
2, 50375, Note_on_c, 0, 53, 0
2, 50375, Note_on_c, 0, 65, 0
2, 50378, Note_on_c, 0, 81, 0
2, 50382, Note_on_c, 0, 60, 0
2, 50399, Control_c, 0, 64, 0
2, 50399, Note_on_c, 0, 81, 81
2, 50400, Note_on_c, 0, 53, 48
2, 50403, Note_on_c, 0, 59, 49
2, 50403, Note_on_c, 0, 62, 42
2, 50434, Note_on_c, 0, 81, 0
2, 50435, Note_on_c, 0, 83, 64
2, 50448, Control_c, 0, 64, 127
2, 50461, Note_on_c, 0, 83, 0
2, 50467, Note_on_c, 0, 79, 58
2, 50483, Note_on_c, 0, 79, 0
2, 50488, Note_on_c, 0, 62, 0
2, 50489, Note_on_c, 0, 59, 0
2, 50502, Note_on_c, 0, 79, 58
2, 50539, Note_on_c, 0, 74, 46
2, 50540, Note_on_c, 0, 62, 31
2, 50544, Note_on_c, 0, 59, 24
2, 50546, Note_on_c, 0, 55, 30
2, 50574, Note_on_c, 0, 71, 45
2, 50586, Note_on_c, 0, 71, 0
2, 50594, Note_on_c, 0, 59, 0
2, 50598, Note_on_c, 0, 62, 0
2, 50617, Note_on_c, 0, 55, 0
2, 50638, Note_on_c, 0, 71, 40
2, 50643, Note_on_c, 0, 62, 30
2, 50643, Note_on_c, 0, 59, 30
2, 50645, Control_c, 0, 64, 0
2, 50646, Note_on_c, 0, 55, 9
2, 50652, Note_on_c, 0, 79, 0
2, 50654, Note_on_c, 0, 71, 0
2, 50657, Control_c, 0, 64, 127
2, 50674, Note_on_c, 0, 71, 38
2, 50695, Note_on_c, 0, 55, 0
2, 50699, Note_on_c, 0, 62, 0
2, 50702, Note_on_c, 0, 59, 0
2, 50706, Note_on_c, 0, 67, 47
2, 50718, Note_on_c, 0, 67, 0
2, 50733, Note_on_c, 0, 71, 0
2, 50760, Note_on_c, 0, 62, 32
2, 50761, Note_on_c, 0, 55, 27
2, 50762, Note_on_c, 0, 67, 46
2, 50764, Note_on_c, 0, 59, 30
2, 50767, Note_on_c, 0, 71, 15
2, 50779, Note_on_c, 0, 71, 0
2, 50780, Note_on_c, 0, 74, 0
2, 50785, Note_on_c, 0, 53, 0
2, 50791, Note_on_c, 0, 67, 0
2, 50822, Note_on_c, 0, 55, 0
2, 50824, Note_on_c, 0, 59, 0
2, 50824, Note_on_c, 0, 53, 40
2, 50833, Note_on_c, 0, 62, 0
2, 50840, Note_on_c, 0, 53, 0
2, 50858, Note_on_c, 0, 81, 68
2, 50874, Note_on_c, 0, 81, 0
2, 50891, Note_on_c, 0, 79, 57
2, 50892, Control_c, 0, 64, 0
2, 50892, Note_on_c, 0, 62, 29
2, 50892, Note_on_c, 0, 58, 31
2, 50893, Note_on_c, 0, 57, 31
2, 50893, Note_on_c, 0, 67, 44
2, 50893, Note_on_c, 0, 52, 36
2, 50926, Control_c, 0, 64, 127
2, 50985, Note_on_c, 0, 57, 0
2, 50986, Note_on_c, 0, 62, 0
2, 50988, Note_on_c, 0, 58, 0
2, 50992, Note_on_c, 0, 79, 0
2, 50997, Note_on_c, 0, 67, 0
2, 51025, Note_on_c, 0, 62, 32
2, 51026, Note_on_c, 0, 58, 36
2, 51028, Note_on_c, 0, 57, 35
2, 51031, Note_on_c, 0, 62, 0
2, 51034, Note_on_c, 0, 57, 0
2, 51034, Note_on_c, 0, 58, 0
2, 51043, Note_on_c, 0, 52, 0
2, 51055, Control_c, 0, 64, 0
2, 51060, Note_on_c, 0, 57, 54
2, 51074, Note_on_c, 0, 57, 0
2, 51077, Note_on_c, 0, 58, 45
2, 51082, Note_on_c, 0, 58, 0
2, 51095, Note_on_c, 0, 62, 62
2, 51106, Note_on_c, 0, 62, 0
2, 51111, Note_on_c, 0, 66, 72
2, 51118, Note_on_c, 0, 66, 0
2, 51128, Note_on_c, 0, 69, 75
2, 51141, Note_on_c, 0, 69, 0
2, 51147, Note_on_c, 0, 66, 55
2, 51153, Note_on_c, 0, 66, 0
2, 51163, Note_on_c, 0, 67, 33
2, 51176, Note_on_c, 0, 67, 0
2, 51176, Note_on_c, 0, 69, 58
2, 51183, Note_on_c, 0, 69, 0
2, 51195, Note_on_c, 0, 70, 71
2, 51204, Note_on_c, 0, 70, 0
2, 51214, Note_on_c, 0, 72, 58
2, 51225, Note_on_c, 0, 72, 0
2, 51231, Note_on_c, 0, 73, 60
2, 51240, Note_on_c, 0, 73, 0
2, 51253, Note_on_c, 0, 75, 51
2, 51257, Note_on_c, 0, 75, 0
2, 51268, Note_on_c, 0, 76, 56
2, 51274, Note_on_c, 0, 76, 0
2, 51285, Note_on_c, 0, 78, 40
2, 51289, Note_on_c, 0, 78, 0
2, 51298, Note_on_c, 0, 79, 52
2, 51309, Note_on_c, 0, 79, 0
2, 51314, Note_on_c, 0, 81, 54
2, 51326, Note_on_c, 0, 81, 0
2, 51329, Note_on_c, 0, 82, 34
2, 51339, Note_on_c, 0, 82, 0
2, 51341, Note_on_c, 0, 83, 50
2, 51352, Note_on_c, 0, 83, 0
2, 51362, Note_on_c, 0, 86, 77
2, 51376, Note_on_c, 0, 86, 0
2, 51387, Note_on_c, 0, 83, 37
2, 51393, Note_on_c, 0, 83, 0
2, 51399, Note_on_c, 0, 66, 23
2, 51400, Note_on_c, 0, 55, 32
2, 51400, Note_on_c, 0, 61, 43
2, 51407, Note_on_c, 0, 84, 57
2, 51416, Note_on_c, 0, 84, 0
2, 51433, Note_on_c, 0, 81, 57
2, 51437, Note_on_c, 0, 81, 0
2, 51483, Note_on_c, 0, 73, 49
2, 51500, Note_on_c, 0, 73, 0
2, 51507, Note_on_c, 0, 72, 41
2, 51513, Control_c, 0, 64, 127
2, 51528, Note_on_c, 0, 72, 0
2, 51545, Note_on_c, 0, 66, 0
2, 51569, Note_on_c, 0, 69, 22
2, 51588, Note_on_c, 0, 55, 0
2, 51596, Note_on_c, 0, 69, 0
2, 51602, Note_on_c, 0, 61, 0
2, 51624, Note_on_c, 0, 81, 83
2, 51624, Control_c, 0, 64, 0
2, 51624, Note_on_c, 0, 61, 64
2, 51625, Note_on_c, 0, 66, 69
2, 51625, Note_on_c, 0, 55, 72
2, 51625, Note_on_c, 0, 69, 85
2, 51640, Control_c, 0, 64, 127
2, 51656, Note_on_c, 0, 55, 0
2, 51658, Note_on_c, 0, 69, 0
2, 51659, Note_on_c, 0, 66, 0
2, 51660, Note_on_c, 0, 81, 0
2, 51666, Note_on_c, 0, 61, 0
2, 51687, Note_on_c, 0, 66, 76
2, 51688, Note_on_c, 0, 61, 61
2, 51688, Note_on_c, 0, 55, 73
2, 51688, Note_on_c, 0, 81, 89
2, 51689, Note_on_c, 0, 69, 88
2, 51690, Control_c, 0, 64, 0
2, 51696, Control_c, 0, 64, 127
2, 51714, Note_on_c, 0, 81, 0
2, 51717, Note_on_c, 0, 66, 0
2, 51719, Note_on_c, 0, 55, 0
2, 51720, Note_on_c, 0, 69, 0
2, 51729, Note_on_c, 0, 61, 0
2, 51741, Control_c, 0, 64, 0
2, 51742, Note_on_c, 0, 79, 70
2, 51743, Note_on_c, 0, 61, 55
2, 51743, Note_on_c, 0, 67, 68
2, 51743, Note_on_c, 0, 76, 61
2, 51744, Note_on_c, 0, 73, 62
2, 51744, Note_on_c, 0, 65, 66
2, 51744, Note_on_c, 0, 55, 63
2, 51760, Control_c, 0, 64, 127
2, 51779, Note_on_c, 0, 65, 0
2, 51779, Note_on_c, 0, 67, 0
2, 51781, Note_on_c, 0, 73, 0
2, 51781, Note_on_c, 0, 79, 0
2, 51782, Note_on_c, 0, 55, 0
2, 51784, Note_on_c, 0, 61, 0
2, 51787, Note_on_c, 0, 76, 0
2, 51796, Note_on_c, 0, 61, 44
2, 51797, Note_on_c, 0, 55, 54
2, 51801, Note_on_c, 0, 79, 70
2, 51802, Note_on_c, 0, 73, 59
2, 51802, Note_on_c, 0, 67, 61
2, 51810, Note_on_c, 0, 61, 0
2, 51810, Note_on_c, 0, 77, 19
2, 51811, Note_on_c, 0, 55, 0
2, 51816, Note_on_c, 0, 67, 0
2, 51816, Note_on_c, 0, 73, 0
2, 51817, Note_on_c, 0, 77, 0
2, 51822, Note_on_c, 0, 79, 0
2, 51856, Note_on_c, 0, 76, 50
2, 51857, Note_on_c, 0, 57, 36
2, 51857, Note_on_c, 0, 68, 25
2, 51858, Note_on_c, 0, 50, 50
2, 51858, Note_on_c, 0, 69, 57
2, 51858, Note_on_c, 0, 60, 48
2, 51859, Control_c, 0, 64, 0
2, 51859, Note_on_c, 0, 72, 39
2, 51861, Note_on_c, 0, 64, 30
2, 51862, Note_on_c, 0, 68, 0
2, 51862, Note_on_c, 0, 71, 29
2, 51862, Note_on_c, 0, 65, 28
2, 51866, Note_on_c, 0, 71, 0
2, 51882, Control_c, 0, 64, 127
2, 51883, Note_on_c, 0, 64, 0
2, 51890, Note_on_c, 0, 57, 0
2, 51923, Note_on_c, 0, 57, 50
2, 51929, Note_on_c, 0, 60, 0
2, 51942, Note_on_c, 0, 72, 0
2, 51944, Note_on_c, 0, 69, 0
2, 51954, Note_on_c, 0, 65, 0
2, 51976, Note_on_c, 0, 65, 55
2, 51977, Note_on_c, 0, 60, 44
2, 51977, Note_on_c, 0, 72, 50
2, 51979, Note_on_c, 0, 69, 50
2, 51985, Note_on_c, 0, 69, 0
2, 51985, Note_on_c, 0, 65, 0
2, 51987, Note_on_c, 0, 76, 0
2, 51988, Note_on_c, 0, 60, 0
2, 51988, Note_on_c, 0, 72, 0
2, 52030, Note_on_c, 0, 79, 83
2, 52032, Note_on_c, 0, 62, 68
2, 52032, Note_on_c, 0, 72, 79
2, 52032, Note_on_c, 0, 69, 75
2, 52036, Control_c, 0, 64, 0
2, 52039, Control_c, 0, 64, 127
2, 52055, Note_on_c, 0, 72, 0
2, 52056, Note_on_c, 0, 79, 0
2, 52060, Note_on_c, 0, 69, 0
2, 52061, Note_on_c, 0, 62, 0
2, 52089, Control_c, 0, 64, 0
2, 52089, Note_on_c, 0, 77, 66
2, 52089, Note_on_c, 0, 69, 64
2, 52090, Note_on_c, 0, 60, 55
2, 52091, Note_on_c, 0, 72, 68
2, 52113, Note_on_c, 0, 57, 0
2, 52116, Control_c, 0, 64, 127
2, 52142, Note_on_c, 0, 72, 0
2, 52145, Note_on_c, 0, 57, 45
2, 52150, Note_on_c, 0, 69, 0
2, 52157, Note_on_c, 0, 77, 0
2, 52189, Note_on_c, 0, 60, 0
2, 52205, Note_on_c, 0, 69, 55
2, 52205, Note_on_c, 0, 65, 48
2, 52206, Note_on_c, 0, 60, 36
2, 52229, Note_on_c, 0, 50, 0
2, 52261, Note_on_c, 0, 50, 45
2, 52262, Note_on_c, 0, 65, 0
2, 52262, Note_on_c, 0, 76, 60
2, 52270, Note_on_c, 0, 50, 0
2, 52272, Note_on_c, 0, 69, 0
2, 52275, Note_on_c, 0, 60, 0
2, 52277, Note_on_c, 0, 57, 0
2, 52294, Note_on_c, 0, 76, 0
2, 52323, Note_on_c, 0, 73, 50
2, 52324, Note_on_c, 0, 76, 55
2, 52325, Note_on_c, 0, 69, 56
2, 52325, Control_c, 0, 64, 0
2, 52325, Note_on_c, 0, 64, 34
2, 52327, Note_on_c, 0, 59, 40
2, 52328, Note_on_c, 0, 53, 29
2, 52353, Control_c, 0, 64, 127
2, 52395, Note_on_c, 0, 64, 0
2, 52397, Note_on_c, 0, 73, 0
2, 52407, Note_on_c, 0, 69, 0
2, 52409, Note_on_c, 0, 59, 0
2, 52421, Note_on_c, 0, 76, 0
2, 52443, Note_on_c, 0, 74, 47
2, 52443, Note_on_c, 0, 62, 38
2, 52445, Note_on_c, 0, 65, 33
2, 52446, Note_on_c, 0, 59, 29
2, 52446, Note_on_c, 0, 69, 49
2, 52447, Control_c, 0, 64, 0
2, 52447, Note_on_c, 0, 71, 35
2, 52475, Control_c, 0, 64, 127
2, 52495, Note_on_c, 0, 65, 0
2, 52498, Note_on_c, 0, 74, 0
2, 52498, Note_on_c, 0, 69, 0
2, 52501, Note_on_c, 0, 71, 0
2, 52508, Note_on_c, 0, 74, 79
2, 52520, Note_on_c, 0, 53, 0
2, 52524, Note_on_c, 0, 59, 0
2, 52525, Note_on_c, 0, 62, 0
2, 52541, Note_on_c, 0, 74, 0
2, 52563, Note_on_c, 0, 76, 68
2, 52565, Control_c, 0, 64, 0
2, 52567, Note_on_c, 0, 71, 68
2, 52568, Note_on_c, 0, 62, 47
2, 52568, Note_on_c, 0, 53, 31
2, 52568, Note_on_c, 0, 67, 60
2, 52606, Control_c, 0, 64, 127
2, 52613, Note_on_c, 0, 53, 0
2, 52628, Note_on_c, 0, 53, 74
2, 52654, Note_on_c, 0, 67, 0
2, 52655, Note_on_c, 0, 71, 0
2, 52666, Note_on_c, 0, 62, 0
2, 52684, Note_on_c, 0, 62, 28
2, 52687, Note_on_c, 0, 71, 43
2, 52687, Note_on_c, 0, 67, 31
2, 52687, Note_on_c, 0, 59, 37
2, 52692, Note_on_c, 0, 76, 0
2, 52718, Note_on_c, 0, 71, 0
2, 52728, Note_on_c, 0, 53, 0
2, 52742, Note_on_c, 0, 53, 53
2, 52754, Note_on_c, 0, 67, 0
2, 52769, Note_on_c, 0, 62, 0
2, 52771, Note_on_c, 0, 53, 0
2, 52773, Note_on_c, 0, 59, 0
2, 52804, Note_on_c, 0, 78, 57
2, 52806, Control_c, 0, 64, 0
2, 52808, Note_on_c, 0, 74, 45
2, 52809, Note_on_c, 0, 71, 54
2, 52809, Note_on_c, 0, 62, 34
2, 52809, Note_on_c, 0, 52, 58
2, 52811, Note_on_c, 0, 66, 35
2, 52816, Note_on_c, 0, 62, 0
2, 52847, Control_c, 0, 64, 127
2, 52868, Note_on_c, 0, 59, 47
2, 52887, Note_on_c, 0, 71, 0
2, 52888, Note_on_c, 0, 74, 0
2, 52889, Note_on_c, 0, 66, 0
2, 52910, Note_on_c, 0, 59, 0
2, 52927, Note_on_c, 0, 66, 48
2, 52929, Note_on_c, 0, 71, 45
2, 52930, Note_on_c, 0, 59, 43
2, 52936, Note_on_c, 0, 71, 0
2, 52940, Note_on_c, 0, 66, 0
2, 52940, Note_on_c, 0, 78, 0
2, 52956, Note_on_c, 0, 52, 0
2, 52973, Note_on_c, 0, 59, 0
2, 52988, Note_on_c, 0, 81, 43
2, 53000, Note_on_c, 0, 81, 0
2, 53044, Note_on_c, 0, 79, 53
2, 53046, Note_on_c, 0, 57, 35
2, 53047, Note_on_c, 0, 72, 45
2, 53047, Control_c, 0, 64, 0
2, 53048, Note_on_c, 0, 65, 33
2, 53048, Note_on_c, 0, 60, 38
2, 53049, Note_on_c, 0, 50, 35
2, 53080, Control_c, 0, 64, 127
2, 53114, Note_on_c, 0, 60, 0
2, 53118, Note_on_c, 0, 57, 0
2, 53125, Note_on_c, 0, 50, 0
2, 53127, Note_on_c, 0, 72, 0
2, 53127, Note_on_c, 0, 79, 0
2, 53132, Note_on_c, 0, 65, 0
2, 53168, Note_on_c, 0, 65, 49
2, 53168, Note_on_c, 0, 56, 26
2, 53168, Note_on_c, 0, 71, 40
2, 53168, Note_on_c, 0, 59, 32
2, 53170, Note_on_c, 0, 49, 34
2, 53172, Control_c, 0, 64, 0
2, 53193, Control_c, 0, 64, 127
2, 53209, Note_on_c, 0, 71, 0
2, 53223, Note_on_c, 0, 65, 0
2, 53224, Note_on_c, 0, 59, 0
2, 53236, Note_on_c, 0, 56, 0
2, 53244, Note_on_c, 0, 49, 0
2, 53285, Note_on_c, 0, 70, 44
2, 53285, Note_on_c, 0, 67, 36
2, 53285, Note_on_c, 0, 64, 35
2, 53285, Note_on_c, 0, 58, 37
2, 53285, Control_c, 0, 64, 0
2, 53289, Note_on_c, 0, 48, 33
2, 53317, Control_c, 0, 64, 127
2, 53343, Note_on_c, 0, 58, 0
2, 53344, Note_on_c, 0, 67, 0
2, 53365, Note_on_c, 0, 64, 0
2, 53409, Note_on_c, 0, 67, 36
2, 53410, Note_on_c, 0, 58, 28
2, 53411, Note_on_c, 0, 64, 32
2, 53421, Note_on_c, 0, 64, 0
2, 53423, Note_on_c, 0, 48, 0
2, 53425, Note_on_c, 0, 67, 0
2, 53426, Note_on_c, 0, 70, 0
2, 53434, Note_on_c, 0, 58, 0
2, 53477, Note_on_c, 0, 84, 85
2, 53478, Note_on_c, 0, 72, 85
2, 53501, Note_on_c, 0, 72, 0
2, 53506, Note_on_c, 0, 84, 0
2, 53533, Control_c, 0, 64, 0
2, 53534, Note_on_c, 0, 52, 55
2, 53534, Note_on_c, 0, 60, 52
2, 53535, Note_on_c, 0, 58, 36
2, 53537, Note_on_c, 0, 84, 77
2, 53538, Note_on_c, 0, 72, 66
2, 53553, Control_c, 0, 64, 127
2, 53600, Note_on_c, 0, 84, 0
2, 53600, Note_on_c, 0, 60, 0
2, 53602, Note_on_c, 0, 52, 0
2, 53605, Note_on_c, 0, 72, 0
2, 53606, Note_on_c, 0, 58, 0
2, 53692, Control_c, 0, 64, 0
2, 53694, Note_on_c, 0, 83, 60
2, 53694, Note_on_c, 0, 75, 59
2, 53694, Note_on_c, 0, 80, 47
2, 53694, Note_on_c, 0, 61, 39
2, 53695, Note_on_c, 0, 71, 62
2, 53696, Note_on_c, 0, 64, 48
2, 53696, Note_on_c, 0, 58, 42
2, 53700, Control_c, 0, 64, 127
2, 53708, Note_on_c, 0, 75, 0
2, 53710, Note_on_c, 0, 71, 0
2, 53712, Note_on_c, 0, 83, 0
2, 53715, Note_on_c, 0, 80, 0
2, 53729, Note_on_c, 0, 64, 0
2, 53732, Note_on_c, 0, 84, 64
2, 53745, Note_on_c, 0, 84, 0
2, 53756, Note_on_c, 0, 58, 0
2, 53756, Note_on_c, 0, 61, 0
2, 53769, Control_c, 0, 64, 0
2, 53783, Note_on_c, 0, 96, 80
2, 53785, Note_on_c, 0, 60, 51
2, 53785, Note_on_c, 0, 64, 54
2, 53786, Note_on_c, 0, 57, 50
2, 53787, Note_on_c, 0, 84, 33
2, 53788, Note_on_c, 0, 96, 0
2, 53789, Note_on_c, 0, 60, 0
2, 53789, Note_on_c, 0, 64, 0
2, 53791, Note_on_c, 0, 57, 0
2, 53791, Note_on_c, 0, 84, 0
2, 53844, Note_on_c, 0, 64, 53
2, 53845, Note_on_c, 0, 60, 46
2, 53846, Control_c, 0, 64, 127
2, 53846, Note_on_c, 0, 53, 34
2, 53846, Note_on_c, 0, 57, 45
2, 53847, Note_on_c, 0, 96, 72
2, 53848, Note_on_c, 0, 84, 62
2, 53879, Note_on_c, 0, 84, 0
2, 53880, Note_on_c, 0, 96, 0
2, 53881, Note_on_c, 0, 64, 0
2, 53882, Note_on_c, 0, 60, 0
2, 53886, Note_on_c, 0, 57, 0
2, 53942, Note_on_c, 0, 53, 0
2, 53962, Note_on_c, 0, 95, 80
2, 53964, Note_on_c, 0, 53, 50
2, 53966, Note_on_c, 0, 86, 64
2, 53985, Note_on_c, 0, 53, 0
2, 53990, Note_on_c, 0, 86, 0
2, 53991, Note_on_c, 0, 95, 0
2, 54023, Note_on_c, 0, 95, 82
2, 54025, Control_c, 0, 64, 0
2, 54026, Note_on_c, 0, 53, 45
2, 54029, Note_on_c, 0, 86, 68
2, 54038, Control_c, 0, 64, 127
2, 54091, Note_on_c, 0, 65, 29
2, 54103, Note_on_c, 0, 86, 0
2, 54145, Note_on_c, 0, 95, 0
2, 54146, Note_on_c, 0, 86, 56
2, 54162, Note_on_c, 0, 53, 0
2, 54182, Note_on_c, 0, 86, 0
2, 54196, Note_on_c, 0, 53, 44
2, 54198, Note_on_c, 0, 93, 76
2, 54199, Note_on_c, 0, 84, 57
2, 54214, Note_on_c, 0, 53, 0
2, 54216, Note_on_c, 0, 65, 0
2, 54226, Note_on_c, 0, 84, 0
2, 54230, Note_on_c, 0, 93, 0
2, 54262, Note_on_c, 0, 93, 83
2, 54264, Note_on_c, 0, 84, 70
2, 54268, Note_on_c, 0, 60, 66
2, 54268, Control_c, 0, 64, 0
2, 54271, Note_on_c, 0, 50, 56
2, 54309, Control_c, 0, 64, 127
2, 54324, Note_on_c, 0, 60, 0
2, 54324, Note_on_c, 0, 57, 35
2, 54361, Note_on_c, 0, 84, 0
2, 54379, Note_on_c, 0, 60, 40
2, 54382, Note_on_c, 0, 84, 38
2, 54383, Note_on_c, 0, 93, 0
2, 54412, Note_on_c, 0, 50, 0
2, 54413, Note_on_c, 0, 57, 0
2, 54423, Note_on_c, 0, 84, 0
2, 54427, Note_on_c, 0, 60, 0
2, 54440, Note_on_c, 0, 91, 53
2, 54458, Note_on_c, 0, 91, 0
2, 54492, Note_on_c, 0, 93, 66
2, 54493, Note_on_c, 0, 53, 43
2, 54494, Note_on_c, 0, 59, 38
2, 54494, Note_on_c, 0, 64, 31
2, 54495, Note_on_c, 0, 81, 45
2, 54495, Note_on_c, 0, 88, 48
2, 54495, Control_c, 0, 64, 0
2, 54523, Control_c, 0, 64, 127
2, 54565, Note_on_c, 0, 93, 0
2, 54571, Note_on_c, 0, 59, 0
2, 54573, Note_on_c, 0, 64, 0
2, 54577, Note_on_c, 0, 88, 0
2, 54578, Note_on_c, 0, 81, 0
2, 54604, Note_on_c, 0, 64, 37
2, 54606, Note_on_c, 0, 59, 33
2, 54661, Note_on_c, 0, 53, 0
2, 54662, Note_on_c, 0, 59, 0
2, 54668, Note_on_c, 0, 64, 0
2, 54697, Note_on_c, 0, 72, 74
2, 54716, Note_on_c, 0, 72, 0
2, 54738, Control_c, 0, 64, 0
2, 54745, Note_on_c, 0, 56, 38
2, 54747, Note_on_c, 0, 67, 27
2, 54747, Note_on_c, 0, 62, 35
2, 54749, Note_on_c, 0, 75, 60
2, 54764, Note_on_c, 0, 75, 0
2, 54767, Note_on_c, 0, 76, 51
2, 54781, Note_on_c, 0, 76, 0
2, 54793, Note_on_c, 0, 79, 71
2, 54805, Note_on_c, 0, 79, 0
2, 54832, Note_on_c, 0, 79, 73
2, 54845, Note_on_c, 0, 79, 0
2, 54864, Note_on_c, 0, 79, 71
2, 54881, Note_on_c, 0, 79, 0
2, 54892, Note_on_c, 0, 75, 51
2, 54896, Note_on_c, 0, 75, 0
2, 54898, Note_on_c, 0, 76, 53
2, 54917, Note_on_c, 0, 76, 0
2, 54927, Note_on_c, 0, 72, 36
2, 54935, Note_on_c, 0, 72, 0
2, 54955, Note_on_c, 0, 74, 55
2, 54966, Note_on_c, 0, 67, 0
2, 54971, Note_on_c, 0, 74, 0
2, 54978, Note_on_c, 0, 69, 45
2, 54986, Note_on_c, 0, 69, 0
2, 54996, Note_on_c, 0, 62, 0
2, 55003, Note_on_c, 0, 72, 57
2, 55020, Note_on_c, 0, 72, 0
2, 55023, Control_c, 0, 64, 127
2, 55027, Note_on_c, 0, 74, 51
2, 55036, Note_on_c, 0, 56, 0
2, 55047, Note_on_c, 0, 74, 0
2, 55052, Note_on_c, 0, 72, 57
2, 55104, Note_on_c, 0, 67, 59
2, 55105, Note_on_c, 0, 64, 47
2, 55105, Control_c, 0, 64, 0
2, 55105, Note_on_c, 0, 56, 37
2, 55107, Note_on_c, 0, 60, 42
2, 55128, Control_c, 0, 64, 127
2, 55159, Note_on_c, 0, 60, 0
2, 55162, Note_on_c, 0, 67, 0
2, 55171, Note_on_c, 0, 56, 0
2, 55187, Note_on_c, 0, 64, 0
2, 55206, Control_c, 0, 64, 0
2, 55208, Note_on_c, 0, 55, 51
2, 55208, Note_on_c, 0, 61, 37
2, 55209, Note_on_c, 0, 65, 44
2, 55209, Note_on_c, 0, 60, 41
2, 55248, Control_c, 0, 64, 127
2, 55281, Note_on_c, 0, 60, 0
2, 55285, Note_on_c, 0, 65, 0
2, 55295, Note_on_c, 0, 61, 0
2, 55318, Note_on_c, 0, 61, 36
2, 55319, Note_on_c, 0, 65, 46
2, 55320, Note_on_c, 0, 60, 34
2, 55354, Note_on_c, 0, 65, 0
2, 55363, Note_on_c, 0, 61, 0
2, 55363, Note_on_c, 0, 60, 0
2, 55363, Note_on_c, 0, 72, 0
2, 55364, Note_on_c, 0, 55, 0
2, 55381, Note_on_c, 0, 68, 83
2, 55383, Note_on_c, 0, 60, 49
2, 55383, Note_on_c, 0, 65, 54
2, 55383, Note_on_c, 0, 55, 48
2, 55384, Note_on_c, 0, 61, 43
2, 55394, Note_on_c, 0, 65, 0
2, 55400, Note_on_c, 0, 61, 0
2, 55401, Note_on_c, 0, 55, 0
2, 55403, Note_on_c, 0, 60, 0
2, 55409, Note_on_c, 0, 68, 0
2, 55414, Note_on_c, 0, 69, 75
2, 55415, Note_on_c, 0, 61, 48
2, 55415, Note_on_c, 0, 65, 44
2, 55415, Note_on_c, 0, 55, 36
2, 55418, Note_on_c, 0, 60, 35
2, 55421, Note_on_c, 0, 58, 20
2, 55423, Note_on_c, 0, 60, 0
2, 55425, Note_on_c, 0, 65, 0
2, 55430, Note_on_c, 0, 69, 0
2, 55431, Note_on_c, 0, 55, 0
2, 55432, Note_on_c, 0, 58, 0
2, 55433, Note_on_c, 0, 61, 0
2, 55455, Note_on_c, 0, 79, 74
2, 55456, Control_c, 0, 64, 0
2, 55459, Note_on_c, 0, 55, 75
2, 55460, Note_on_c, 0, 64, 71
2, 55460, Note_on_c, 0, 61, 62
2, 55482, Control_c, 0, 64, 127
2, 55522, Note_on_c, 0, 64, 0
2, 55532, Note_on_c, 0, 61, 0
2, 55570, Note_on_c, 0, 79, 0
2, 55570, Note_on_c, 0, 70, 58
2, 55571, Note_on_c, 0, 61, 43
2, 55572, Note_on_c, 0, 64, 45
2, 55593, Note_on_c, 0, 70, 0
2, 55608, Note_on_c, 0, 64, 0
2, 55618, Note_on_c, 0, 61, 0
2, 55626, Note_on_c, 0, 77, 84
2, 55627, Note_on_c, 0, 55, 0
2, 55645, Note_on_c, 0, 77, 0
2, 55685, Control_c, 0, 64, 0
2, 55686, Note_on_c, 0, 76, 87
2, 55688, Note_on_c, 0, 69, 82
2, 55688, Note_on_c, 0, 57, 39
2, 55688, Note_on_c, 0, 65, 80
2, 55691, Note_on_c, 0, 60, 69
2, 55691, Note_on_c, 0, 50, 55
2, 55703, Note_on_c, 0, 57, 0
2, 55717, Control_c, 0, 64, 127
2, 55753, Note_on_c, 0, 57, 71
2, 55760, Note_on_c, 0, 60, 0
2, 55773, Note_on_c, 0, 69, 0
2, 55779, Note_on_c, 0, 65, 0
2, 55809, Note_on_c, 0, 60, 60
2, 55811, Note_on_c, 0, 69, 65
2, 55812, Note_on_c, 0, 76, 0
2, 55812, Note_on_c, 0, 65, 50
2, 55824, Note_on_c, 0, 69, 0
2, 55825, Note_on_c, 0, 60, 0
2, 55850, Note_on_c, 0, 65, 0
2, 55866, Note_on_c, 0, 60, 61
2, 55868, Note_on_c, 0, 77, 78
2, 55869, Note_on_c, 0, 65, 33
2, 55870, Note_on_c, 0, 60, 0
2, 55879, Note_on_c, 0, 57, 0
2, 55884, Note_on_c, 0, 77, 0
2, 55885, Note_on_c, 0, 65, 0
2, 55886, Note_on_c, 0, 50, 0
2, 55932, Control_c, 0, 64, 0
2, 55934, Note_on_c, 0, 74, 74
2, 55935, Note_on_c, 0, 65, 76
2, 55936, Note_on_c, 0, 70, 69
2, 55936, Note_on_c, 0, 54, 57
2, 55937, Note_on_c, 0, 44, 51
2, 55957, Control_c, 0, 64, 127
2, 55984, Note_on_c, 0, 74, 0
2, 55988, Note_on_c, 0, 70, 0
2, 55993, Note_on_c, 0, 65, 0
2, 55993, Note_on_c, 0, 54, 0
2, 56039, Note_on_c, 0, 44, 0
2, 56056, Note_on_c, 0, 62, 55
2, 56057, Note_on_c, 0, 58, 44
2, 56057, Note_on_c, 0, 44, 40
2, 56059, Note_on_c, 0, 54, 42
2, 56089, Note_on_c, 0, 54, 0
2, 56114, Note_on_c, 0, 44, 0
2, 56139, Note_on_c, 0, 58, 0
2, 56139, Note_on_c, 0, 62, 0
2, 56182, Note_on_c, 0, 62, 44
2, 56183, Control_c, 0, 64, 0
2, 56183, Note_on_c, 0, 57, 45
2, 56183, Note_on_c, 0, 53, 36
2, 56183, Note_on_c, 0, 43, 46
2, 56184, Note_on_c, 0, 60, 55
2, 56184, Note_on_c, 0, 50, 44
2, 56215, Control_c, 0, 64, 127
2, 56239, Note_on_c, 0, 53, 0
2, 56256, Note_on_c, 0, 60, 0
2, 56257, Note_on_c, 0, 57, 0
2, 56270, Note_on_c, 0, 62, 0
2, 56308, Note_on_c, 0, 60, 55
2, 56309, Note_on_c, 0, 55, 45
2, 56311, Note_on_c, 0, 57, 44
2, 56342, Note_on_c, 0, 43, 0
2, 56350, Note_on_c, 0, 57, 0
2, 56357, Note_on_c, 0, 60, 0
2, 56377, Note_on_c, 0, 43, 50
2, 56393, Note_on_c, 0, 50, 0
2, 56394, Note_on_c, 0, 43, 0
2, 56401, Note_on_c, 0, 55, 0
2, 56436, Note_on_c, 0, 53, 51
2, 56444, Note_on_c, 0, 65, 53
2, 56449, Note_on_c, 0, 68, 64
2, 56449, Note_on_c, 0, 59, 42
2, 56456, Note_on_c, 0, 71, 43
2, 56458, Note_on_c, 0, 64, 63
2, 56460, Control_c, 0, 64, 0
2, 56460, Note_on_c, 0, 76, 71
2, 56480, Control_c, 0, 64, 127
2, 56517, Note_on_c, 0, 76, 0
2, 56528, Note_on_c, 0, 64, 0
2, 56539, Note_on_c, 0, 59, 0
2, 56540, Note_on_c, 0, 76, 65
2, 56552, Note_on_c, 0, 53, 0
2, 56579, Note_on_c, 0, 65, 0
2, 56583, Note_on_c, 0, 68, 0
2, 56587, Note_on_c, 0, 71, 0
2, 56587, Note_on_c, 0, 76, 0
2, 56625, Note_on_c, 0, 65, 40
2, 56628, Note_on_c, 0, 68, 46
2, 56631, Note_on_c, 0, 76, 60
2, 56631, Note_on_c, 0, 43, 29
2, 56632, Note_on_c, 0, 71, 47
2, 56633, Note_on_c, 0, 53, 34
2, 56702, Note_on_c, 0, 76, 0
2, 56739, Note_on_c, 0, 43, 0
2, 56751, Note_on_c, 0, 76, 42
2, 56754, Note_on_c, 0, 53, 0
2, 56794, Note_on_c, 0, 76, 0
2, 56801, Note_on_c, 0, 65, 0
2, 56802, Note_on_c, 0, 71, 0
2, 56809, Note_on_c, 0, 68, 0
2, 57069, Note_on_c, 0, 72, 24
2, 57070, Note_on_c, 0, 36, 44
2, 57070, Note_on_c, 0, 67, 38
2, 57073, Note_on_c, 0, 62, 27
2, 57074, Note_on_c, 0, 52, 38
2, 57074, Control_c, 0, 64, 0
2, 57075, Note_on_c, 0, 64, 24
2, 57113, Control_c, 0, 64, 127
2, 57117, Note_on_c, 0, 62, 0
2, 57121, Note_on_c, 0, 64, 0
2, 57129, Note_on_c, 0, 67, 0
2, 57133, Note_on_c, 0, 72, 0
2, 57136, Note_on_c, 0, 43, 43
2, 57141, Note_on_c, 0, 52, 0
2, 57173, Note_on_c, 0, 36, 0
2, 57189, Note_on_c, 0, 43, 0
2, 57191, Note_on_c, 0, 79, 47
2, 57195, Note_on_c, 0, 69, 44
2, 57195, Note_on_c, 0, 74, 43
2, 57196, Note_on_c, 0, 52, 49
2, 57203, Note_on_c, 0, 52, 0
2, 57240, Note_on_c, 0, 69, 0
2, 57245, Note_on_c, 0, 74, 0
2, 57249, Note_on_c, 0, 79, 0
2, 57254, Note_on_c, 0, 60, 47
2, 57315, Note_on_c, 0, 83, 61
2, 57317, Note_on_c, 0, 76, 64
2, 57318, Note_on_c, 0, 64, 48
2, 57318, Note_on_c, 0, 71, 53
2, 57331, Note_on_c, 0, 60, 0
2, 57378, Note_on_c, 0, 83, 0
2, 57381, Note_on_c, 0, 76, 0
2, 57383, Note_on_c, 0, 60, 31
2, 57386, Note_on_c, 0, 71, 0
2, 57392, Note_on_c, 0, 64, 0
2, 57445, Note_on_c, 0, 79, 43
2, 57447, Note_on_c, 0, 74, 40
2, 57448, Note_on_c, 0, 69, 37
2, 57448, Note_on_c, 0, 64, 32
2, 57478, Note_on_c, 0, 60, 0
2, 57523, Note_on_c, 0, 60, 30
2, 57531, Note_on_c, 0, 79, 0
2, 57534, Note_on_c, 0, 74, 0
2, 57555, Note_on_c, 0, 69, 0
2, 57555, Note_on_c, 0, 64, 0
2, 57568, Note_on_c, 0, 60, 0
2, 57637, Note_on_c, 0, 36, 72
2, 57642, Control_c, 0, 64, 0
2, 57664, Control_c, 0, 64, 127
2, 57704, Note_on_c, 0, 43, 46
2, 57725, Note_on_c, 0, 43, 0
2, 57771, Note_on_c, 0, 71, 66
2, 57774, Note_on_c, 0, 67, 50
2, 57774, Note_on_c, 0, 59, 58
2, 57777, Note_on_c, 0, 36, 0
2, 57778, Note_on_c, 0, 48, 44
2, 57792, Note_on_c, 0, 48, 0
2, 57827, Note_on_c, 0, 59, 0
2, 57837, Note_on_c, 0, 55, 53
2, 57843, Note_on_c, 0, 67, 0
2, 57850, Note_on_c, 0, 71, 0
2, 57906, Note_on_c, 0, 74, 68
2, 57907, Note_on_c, 0, 66, 54
2, 57907, Note_on_c, 0, 62, 50
2, 57910, Note_on_c, 0, 69, 46
2, 57946, Note_on_c, 0, 55, 0
2, 57976, Note_on_c, 0, 62, 0
2, 57979, Note_on_c, 0, 55, 34
2, 57982, Note_on_c, 0, 74, 0
2, 57984, Note_on_c, 0, 69, 0
2, 57991, Note_on_c, 0, 66, 0
2, 57993, Note_on_c, 0, 55, 0
2, 58048, Note_on_c, 0, 66, 36
2, 58049, Note_on_c, 0, 69, 50
2, 58050, Note_on_c, 0, 62, 44
2, 58051, Note_on_c, 0, 57, 40
2, 58052, Note_on_c, 0, 48, 30
2, 58074, Note_on_c, 0, 48, 0
2, 58103, Note_on_c, 0, 69, 0
2, 58104, Note_on_c, 0, 62, 0
2, 58113, Note_on_c, 0, 66, 0
2, 58115, Note_on_c, 0, 57, 0
2, 58445, Note_on_c, 0, 36, 61
2, 58506, Note_on_c, 0, 43, 56
2, 58564, Note_on_c, 0, 52, 53
2, 58589, Control_c, 0, 64, 127
2, 58616, Note_on_c, 0, 59, 45
2, 58657, Note_on_c, 0, 59, 0
2, 58660, Note_on_c, 0, 64, 57
2, 58696, Note_on_c, 0, 66, 55
2, 58700, Note_on_c, 0, 64, 0
2, 58728, Note_on_c, 0, 66, 0
2, 58735, Note_on_c, 0, 71, 62
2, 58749, Note_on_c, 0, 71, 0
2, 58778, Note_on_c, 0, 76, 62
2, 58807, Note_on_c, 0, 76, 0
2, 58817, Note_on_c, 0, 78, 45
2, 58848, Note_on_c, 0, 78, 0
2, 58858, Note_on_c, 0, 83, 57
2, 58871, Note_on_c, 0, 83, 0
2, 58908, Note_on_c, 0, 88, 48
2, 58950, Note_on_c, 0, 90, 38
2, 58952, Note_on_c, 0, 88, 0
2, 58986, Note_on_c, 0, 90, 0
2, 58996, Note_on_c, 0, 95, 46
2, 59007, Note_on_c, 0, 95, 0
2, 59051, Note_on_c, 0, 100, 35
2, 59098, Note_on_c, 0, 102, 38
2, 59153, Note_on_c, 0, 107, 66
2, 59196, Note_on_c, 0, 107, 0
2, 59210, Note_on_c, 0, 100, 0
2, 59219, Note_on_c, 0, 102, 0
2, 59294, Note_on_c, 0, 52, 0
2, 59296, Note_on_c, 0, 36, 0
2, 59297, Note_on_c, 0, 43, 0
2, 59447, Note_on_c, 0, 24, 44
2, 59459, Note_on_c, 0, 24, 0
2, 59894, Control_c, 0, 64, 0
2, 59894, End_track
3, 0, Start_track
3, 0, MIDI_port, 1
3, 0, Title_t, ""
3, 0, Program_c, 1, 32
3, 23049, Note_on_c, 1, 41, 84
3, 23287, Note_on_c, 1, 35, 82
3, 23292, Note_on_c, 1, 41, 0
3, 23409, Note_on_c, 1, 47, 92
3, 23421, Note_on_c, 1, 35, 0
3, 23526, Note_on_c, 1, 47, 0
3, 23530, Note_on_c, 1, 46, 65
3, 23707, Note_on_c, 1, 36, 68
3, 23718, Note_on_c, 1, 36, 0
3, 23735, Note_on_c, 1, 33, 67
3, 23752, Note_on_c, 1, 46, 0
3, 23766, Note_on_c, 1, 33, 0
3, 23768, Note_on_c, 1, 34, 74
3, 23886, Note_on_c, 1, 46, 94
3, 23902, Note_on_c, 1, 34, 0
3, 23982, Note_on_c, 1, 34, 61
3, 23992, Note_on_c, 1, 34, 0
3, 23997, Note_on_c, 1, 46, 0
3, 24004, Note_on_c, 1, 45, 89
3, 24257, Note_on_c, 1, 38, 90
3, 24269, Note_on_c, 1, 45, 0
3, 24488, Note_on_c, 1, 37, 83
3, 24494, Note_on_c, 1, 38, 0
3, 24666, Note_on_c, 1, 51, 73
3, 24699, Note_on_c, 1, 48, 61
3, 24700, Note_on_c, 1, 51, 0
3, 24720, Note_on_c, 1, 48, 0
3, 24730, Note_on_c, 1, 49, 67
3, 24732, Note_on_c, 1, 37, 0
3, 24769, Note_on_c, 1, 37, 64
3, 24778, Note_on_c, 1, 37, 0
3, 24790, Note_on_c, 1, 49, 0
3, 24798, Note_on_c, 1, 48, 82
3, 24890, Note_on_c, 1, 43, 65
3, 24900, Note_on_c, 1, 43, 0
3, 24914, Note_on_c, 1, 36, 80
3, 24967, Note_on_c, 1, 48, 0
3, 24968, Note_on_c, 1, 36, 0
3, 24969, Note_on_c, 1, 41, 87
3, 25084, Note_on_c, 1, 29, 81
3, 25096, Note_on_c, 1, 41, 0
3, 25105, Note_on_c, 1, 41, 62
3, 25118, Note_on_c, 1, 41, 0
3, 25387, Note_on_c, 1, 41, 77
3, 25393, Note_on_c, 1, 29, 0
3, 25421, Note_on_c, 1, 29, 68
3, 25425, Note_on_c, 1, 41, 0
3, 25442, Note_on_c, 1, 29, 0
3, 25448, Note_on_c, 1, 41, 94
3, 25622, Note_on_c, 1, 29, 67
3, 25666, Note_on_c, 1, 41, 0
3, 25870, Note_on_c, 1, 41, 55
3, 25879, Note_on_c, 1, 29, 0
3, 25887, Note_on_c, 1, 41, 0
3, 25906, Note_on_c, 1, 29, 73
3, 25935, Note_on_c, 1, 29, 0
3, 25939, Note_on_c, 1, 28, 80
3, 26058, Note_on_c, 1, 40, 87
3, 26136, Note_on_c, 1, 28, 0
3, 26341, Note_on_c, 1, 52, 72
3, 26364, Note_on_c, 1, 40, 0
3, 26396, Note_on_c, 1, 52, 0
3, 26400, Note_on_c, 1, 58, 68
3, 26432, Note_on_c, 1, 58, 0
3, 26434, Note_on_c, 1, 56, 43
3, 26454, Note_on_c, 1, 56, 0
3, 26465, Note_on_c, 1, 57, 71
3, 26647, Note_on_c, 1, 52, 69
3, 26648, Note_on_c, 1, 57, 0
3, 26775, Note_on_c, 1, 52, 0
3, 26775, Note_on_c, 1, 45, 75
3, 26898, Note_on_c, 1, 45, 0
3, 26899, Note_on_c, 1, 38, 64
3, 27122, Note_on_c, 1, 45, 80
3, 27132, Note_on_c, 1, 38, 0
3, 27309, Note_on_c, 1, 44, 65
3, 27313, Note_on_c, 1, 45, 0
3, 27369, Note_on_c, 1, 44, 0
3, 27375, Note_on_c, 1, 43, 67
3, 27522, Note_on_c, 1, 57, 74
3, 27537, Note_on_c, 1, 57, 0
3, 27548, Note_on_c, 1, 56, 73
3, 27571, Note_on_c, 1, 56, 0
3, 27606, Note_on_c, 1, 55, 77
3, 27625, Note_on_c, 1, 43, 0
3, 27700, Note_on_c, 1, 50, 75
3, 27707, Note_on_c, 1, 55, 0
3, 27710, Note_on_c, 1, 50, 0
3, 27725, Note_on_c, 1, 43, 53
3, 27810, Note_on_c, 1, 35, 55
3, 27814, Note_on_c, 1, 43, 0
3, 27828, Note_on_c, 1, 35, 0
3, 27833, Note_on_c, 1, 36, 65
3, 28065, Note_on_c, 1, 50, 54
3, 28078, Note_on_c, 1, 36, 0
3, 28079, Note_on_c, 1, 50, 0
3, 28086, Note_on_c, 1, 48, 64
3, 28259, Note_on_c, 1, 36, 68
3, 28273, Note_on_c, 1, 48, 0
3, 28322, Note_on_c, 1, 35, 77
3, 28327, Note_on_c, 1, 36, 0
3, 28445, Note_on_c, 1, 47, 99
3, 28449, Note_on_c, 1, 35, 0
3, 28479, Note_on_c, 1, 47, 0
3, 28486, Note_on_c, 1, 35, 50
3, 28507, Note_on_c, 1, 35, 0
3, 28512, Note_on_c, 1, 40, 87
3, 28634, Note_on_c, 1, 53, 103
3, 28689, Note_on_c, 1, 53, 0
3, 28696, Note_on_c, 1, 52, 80
3, 28700, Note_on_c, 1, 40, 0
3, 28767, Note_on_c, 1, 52, 0
3, 28786, Note_on_c, 1, 40, 58
3, 28791, Note_on_c, 1, 40, 0
3, 28810, Note_on_c, 1, 45, 80
3, 29028, Note_on_c, 1, 37, 39
3, 29042, Note_on_c, 1, 37, 0
3, 29048, Note_on_c, 1, 39, 58
3, 29051, Note_on_c, 1, 45, 0
3, 29271, Note_on_c, 1, 37, 31
3, 29281, Note_on_c, 1, 39, 0
3, 29284, Note_on_c, 1, 38, 64
3, 29285, Note_on_c, 1, 37, 0
3, 29520, Note_on_c, 1, 37, 23
3, 29523, Note_on_c, 1, 43, 64
3, 29529, Note_on_c, 1, 38, 0
3, 29531, Note_on_c, 1, 37, 0
3, 29706, Note_on_c, 1, 43, 0
3, 29706, Note_on_c, 1, 49, 77
3, 29766, Note_on_c, 1, 49, 0
3, 29769, Note_on_c, 1, 48, 71
3, 29829, Note_on_c, 1, 36, 78
3, 29957, Note_on_c, 1, 48, 0
3, 29993, Note_on_c, 1, 43, 34
3, 30001, Note_on_c, 1, 43, 0
3, 30011, Note_on_c, 1, 48, 81
3, 30020, Note_on_c, 1, 48, 0
3, 30067, Note_on_c, 1, 48, 87
3, 30146, Note_on_c, 1, 36, 0
3, 30180, Note_on_c, 1, 36, 89
3, 30185, Note_on_c, 1, 48, 0
3, 30312, Note_on_c, 1, 48, 99
3, 30326, Note_on_c, 1, 48, 0
3, 30368, Note_on_c, 1, 48, 110
3, 30407, Note_on_c, 1, 36, 0
3, 30428, Note_on_c, 1, 36, 94
3, 30474, Note_on_c, 1, 48, 0
3, 30602, Note_on_c, 1, 48, 95
3, 30627, Note_on_c, 1, 36, 0
3, 30703, Note_on_c, 1, 40, 58
3, 30710, Note_on_c, 1, 48, 0
3, 30723, Note_on_c, 1, 41, 80
3, 30727, Note_on_c, 1, 40, 0
3, 30967, Note_on_c, 1, 41, 0
3, 30968, Note_on_c, 1, 35, 78
3, 31204, Note_on_c, 1, 34, 60
3, 31205, Note_on_c, 1, 35, 0
3, 31443, Note_on_c, 1, 48, 66
3, 31462, Note_on_c, 1, 48, 0
3, 31466, Note_on_c, 1, 45, 42
3, 31486, Note_on_c, 1, 45, 0
3, 31492, Note_on_c, 1, 46, 54
3, 31532, Note_on_c, 1, 34, 0
3, 31648, Note_on_c, 1, 34, 46
3, 31655, Note_on_c, 1, 34, 0
3, 31658, Note_on_c, 1, 41, 34
3, 31661, Note_on_c, 1, 46, 0
3, 31671, Note_on_c, 1, 41, 0
3, 31677, Note_on_c, 1, 45, 76
3, 31928, Note_on_c, 1, 38, 67
3, 31943, Note_on_c, 1, 45, 0
3, 32171, Note_on_c, 1, 37, 57
3, 32172, Note_on_c, 1, 38, 0
3, 32243, Note_on_c, 1, 53, 71
3, 32417, Note_on_c, 1, 53, 0
3, 32419, Note_on_c, 1, 37, 0
3, 32422, Note_on_c, 1, 36, 68
3, 32487, Note_on_c, 1, 52, 66
3, 32619, Note_on_c, 1, 36, 0
3, 32660, Note_on_c, 1, 41, 77
3, 32663, Note_on_c, 1, 52, 0
3, 32994, Note_on_c, 1, 41, 0
3, 33007, Note_on_c, 1, 41, 99
3, 33115, Note_on_c, 1, 41, 0
3, 33126, Note_on_c, 1, 41, 94
3, 33152, Control_c, 1, 1, 1
3, 33152, Control_c, 1, 1, 3
3, 33153, Control_c, 1, 1, 6
3, 33154, Control_c, 1, 1, 7
3, 33154, Control_c, 1, 1, 8
3, 33155, Control_c, 1, 1, 9
3, 33155, Control_c, 1, 1, 11
3, 33156, Control_c, 1, 1, 13
3, 33156, Control_c, 1, 1, 15
3, 33157, Control_c, 1, 1, 16
3, 33158, Control_c, 1, 1, 18
3, 33158, Control_c, 1, 1, 20
3, 33159, Control_c, 1, 1, 22
3, 33159, Control_c, 1, 1, 24
3, 33160, Control_c, 1, 1, 26
3, 33161, Control_c, 1, 1, 27
3, 33161, Control_c, 1, 1, 29
3, 33163, Control_c, 1, 1, 32
3, 33164, Control_c, 1, 1, 33
3, 33164, Control_c, 1, 1, 34
3, 33165, Control_c, 1, 1, 35
3, 33165, Control_c, 1, 1, 37
3, 33167, Control_c, 1, 1, 39
3, 33167, Control_c, 1, 1, 40
3, 33168, Control_c, 1, 1, 41
3, 33170, Control_c, 1, 1, 43
3, 33171, Control_c, 1, 1, 45
3, 33173, Control_c, 1, 1, 47
3, 33175, Control_c, 1, 1, 49
3, 33175, Control_c, 1, 1, 50
3, 33176, Control_c, 1, 1, 51
3, 33176, Control_c, 1, 1, 52
3, 33178, Control_c, 1, 1, 54
3, 33179, Control_c, 1, 1, 57
3, 33181, Control_c, 1, 1, 59
3, 33182, Control_c, 1, 1, 60
3, 33182, Control_c, 1, 1, 61
3, 33184, Control_c, 1, 1, 63
3, 33184, Control_c, 1, 1, 64
3, 33186, Control_c, 1, 1, 66
3, 33187, Control_c, 1, 1, 67
3, 33187, Control_c, 1, 1, 68
3, 33188, Control_c, 1, 1, 69
3, 33189, Control_c, 1, 1, 71
3, 33191, Control_c, 1, 1, 73
3, 33193, Control_c, 1, 1, 75
3, 33193, Control_c, 1, 1, 76
3, 33194, Control_c, 1, 1, 77
3, 33195, Control_c, 1, 1, 79
3, 33197, Control_c, 1, 1, 80
3, 33199, Control_c, 1, 1, 81
3, 33200, Control_c, 1, 1, 82
3, 33202, Control_c, 1, 1, 83
3, 33204, Control_c, 1, 1, 84
3, 33208, Control_c, 1, 1, 85
3, 33210, Control_c, 1, 1, 86
3, 33231, Control_c, 1, 1, 85
3, 33234, Control_c, 1, 1, 84
3, 33236, Control_c, 1, 1, 83
3, 33238, Control_c, 1, 1, 82
3, 33239, Control_c, 1, 1, 80
3, 33242, Control_c, 1, 1, 79
3, 33244, Control_c, 1, 1, 77
3, 33245, Control_c, 1, 1, 75
3, 33247, Control_c, 1, 1, 73
3, 33249, Control_c, 1, 1, 71
3, 33249, Control_c, 1, 1, 70
3, 33250, Control_c, 1, 1, 69
3, 33250, Control_c, 1, 1, 68
3, 33252, Control_c, 1, 1, 66
3, 33252, Control_c, 1, 1, 65
3, 33254, Control_c, 1, 1, 63
3, 33256, Control_c, 1, 1, 61
3, 33256, Control_c, 1, 1, 60
3, 33258, Control_c, 1, 1, 57
3, 33259, Control_c, 1, 1, 56
3, 33259, Control_c, 1, 1, 55
3, 33260, Control_c, 1, 1, 54
3, 33260, Control_c, 1, 1, 53
3, 33261, Control_c, 1, 1, 52
3, 33261, Control_c, 1, 1, 50
3, 33262, Control_c, 1, 1, 49
3, 33262, Control_c, 1, 1, 47
3, 33263, Control_c, 1, 1, 46
3, 33264, Control_c, 1, 1, 44
3, 33264, Control_c, 1, 1, 42
3, 33265, Control_c, 1, 1, 40
3, 33265, Control_c, 1, 1, 38
3, 33266, Control_c, 1, 1, 36
3, 33267, Control_c, 1, 1, 34
3, 33267, Control_c, 1, 1, 32
3, 33268, Control_c, 1, 1, 29
3, 33268, Control_c, 1, 1, 27
3, 33269, Control_c, 1, 1, 24
3, 33270, Control_c, 1, 1, 22
3, 33270, Control_c, 1, 1, 19
3, 33271, Control_c, 1, 1, 17
3, 33272, Control_c, 1, 1, 15
3, 33272, Control_c, 1, 1, 13
3, 33273, Control_c, 1, 1, 10
3, 33273, Control_c, 1, 1, 7
3, 33274, Control_c, 1, 1, 5
3, 33274, Control_c, 1, 1, 3
3, 33275, Control_c, 1, 1, 1
3, 33279, Control_c, 1, 1, 0
3, 33486, Note_on_c, 1, 29, 75
3, 33494, Note_on_c, 1, 41, 0
3, 33586, Note_on_c, 1, 41, 54
3, 33598, Note_on_c, 1, 29, 0
3, 33603, Note_on_c, 1, 41, 0
3, 33611, Note_on_c, 1, 40, 73
3, 34074, Note_on_c, 1, 45, 62
3, 34083, Note_on_c, 1, 40, 0
3, 34202, Note_on_c, 1, 39, 71
3, 34260, Note_on_c, 1, 45, 0
3, 34459, Note_on_c, 1, 45, 105
3, 34472, Note_on_c, 1, 39, 0
3, 34561, Note_on_c, 1, 37, 71
3, 34573, Note_on_c, 1, 45, 0
3, 34583, Note_on_c, 1, 37, 0
3, 34586, Note_on_c, 1, 38, 69
3, 34782, Note_on_c, 1, 37, 32
3, 34790, Note_on_c, 1, 37, 0
3, 34806, Note_on_c, 1, 38, 0
3, 34806, Note_on_c, 1, 44, 90
3, 35027, Note_on_c, 1, 42, 51
3, 35041, Note_on_c, 1, 44, 0
3, 35045, Note_on_c, 1, 42, 0
3, 35049, Note_on_c, 1, 43, 66
3, 35171, Note_on_c, 1, 43, 0
3, 35171, Note_on_c, 1, 41, 91
3, 35298, Note_on_c, 1, 53, 95
3, 35344, Note_on_c, 1, 41, 0
3, 35471, Note_on_c, 1, 41, 67
3, 35517, Note_on_c, 1, 53, 0
3, 35525, Note_on_c, 1, 41, 0
3, 35525, Note_on_c, 1, 52, 91
3, 35766, Note_on_c, 1, 50, 91
3, 35771, Note_on_c, 1, 52, 0
3, 36013, Note_on_c, 1, 48, 79
3, 36016, Note_on_c, 1, 50, 0
3, 36078, Note_on_c, 1, 36, 94
3, 36089, Note_on_c, 1, 48, 0
3, 36198, Note_on_c, 1, 50, 108
3, 36269, Note_on_c, 1, 36, 0
3, 36315, Note_on_c, 1, 36, 91
3, 36335, Note_on_c, 1, 50, 0
3, 36383, Note_on_c, 1, 48, 91
3, 36393, Note_on_c, 1, 36, 0
3, 36437, Note_on_c, 1, 40, 78
3, 36441, Note_on_c, 1, 48, 0
3, 36494, Note_on_c, 1, 40, 0
3, 36496, Note_on_c, 1, 41, 94
3, 36802, Note_on_c, 1, 55, 70
3, 36819, Note_on_c, 1, 55, 0
3, 36831, Note_on_c, 1, 52, 43
3, 36856, Note_on_c, 1, 52, 0
3, 36860, Note_on_c, 1, 53, 73
3, 36954, Note_on_c, 1, 53, 0
3, 36955, Note_on_c, 1, 49, 46
3, 36972, Note_on_c, 1, 49, 0
3, 36982, Note_on_c, 1, 50, 80
3, 36988, Note_on_c, 1, 41, 0
3, 37207, Note_on_c, 1, 43, 71
3, 37212, Note_on_c, 1, 50, 0
3, 37380, Note_on_c, 1, 41, 70
3, 37383, Note_on_c, 1, 43, 0
3, 37439, Note_on_c, 1, 41, 0
3, 37441, Note_on_c, 1, 40, 74
3, 37804, Note_on_c, 1, 46, 85
3, 37870, Note_on_c, 1, 40, 0
3, 37890, Note_on_c, 1, 46, 0
3, 37893, Note_on_c, 1, 48, 65
3, 37906, Note_on_c, 1, 48, 0
3, 37912, Note_on_c, 1, 46, 57
3, 37926, Note_on_c, 1, 46, 0
3, 37935, Note_on_c, 1, 45, 66
3, 38040, Note_on_c, 1, 45, 0
3, 38043, Note_on_c, 1, 33, 82
3, 38291, Note_on_c, 1, 49, 85
3, 38353, Note_on_c, 1, 33, 0
3, 38392, Note_on_c, 1, 38, 44
3, 38397, Note_on_c, 1, 38, 0
3, 38411, Note_on_c, 1, 49, 0
3, 38413, Note_on_c, 1, 50, 76
3, 38649, Note_on_c, 1, 44, 72
3, 38652, Note_on_c, 1, 50, 0
3, 38886, Note_on_c, 1, 43, 68
3, 38888, Note_on_c, 1, 44, 0
3, 39074, Note_on_c, 1, 57, 82
3, 39104, Note_on_c, 1, 54, 53
3, 39107, Note_on_c, 1, 57, 0
3, 39130, Note_on_c, 1, 54, 0
3, 39135, Note_on_c, 1, 55, 73
3, 39213, Note_on_c, 1, 43, 0
3, 39254, Note_on_c, 1, 43, 66
3, 39369, Note_on_c, 1, 48, 78
3, 39377, Note_on_c, 1, 43, 0
3, 39397, Note_on_c, 1, 55, 0
3, 39673, Note_on_c, 1, 60, 79
3, 39776, Note_on_c, 1, 50, 65
3, 39846, Note_on_c, 1, 36, 77
3, 39906, Note_on_c, 1, 50, 0
3, 39906, Note_on_c, 1, 60, 0
3, 39908, Note_on_c, 1, 48, 68
3, 39971, Note_on_c, 1, 48, 0
3, 40092, Note_on_c, 1, 48, 80
3, 40146, Note_on_c, 1, 36, 0
3, 40263, Note_on_c, 1, 36, 62
3, 40266, Note_on_c, 1, 48, 0
3, 40322, Note_on_c, 1, 41, 57
3, 40325, Note_on_c, 1, 36, 0
3, 40328, Note_on_c, 1, 41, 62
3, 40335, Note_on_c, 1, 48, 0
3, 40458, Note_on_c, 1, 41, 0
3, 40556, Note_on_c, 1, 41, 0
3, 40559, Note_on_c, 1, 35, 62
3, 40787, Note_on_c, 1, 47, 56
3, 40795, Note_on_c, 1, 35, 0
3, 40802, Note_on_c, 1, 47, 0
3, 40810, Note_on_c, 1, 46, 50
3, 41038, Note_on_c, 1, 34, 49
3, 41040, Note_on_c, 1, 46, 0
3, 41160, Note_on_c, 1, 46, 91
3, 41166, Note_on_c, 1, 34, 0
3, 41260, Note_on_c, 1, 44, 59
3, 41266, Note_on_c, 1, 46, 0
3, 41275, Note_on_c, 1, 44, 0
3, 41288, Note_on_c, 1, 45, 80
3, 41324, Pitch_bend_c, 1, 8192
3, 41326, Pitch_bend_c, 1, 8192
3, 41327, Pitch_bend_c, 1, 8712
3, 41328, Pitch_bend_c, 1, 8972
3, 41328, Pitch_bend_c, 1, 9232
3, 41329, Pitch_bend_c, 1, 9362
3, 41330, Pitch_bend_c, 1, 9622
3, 41331, Pitch_bend_c, 1, 9882
3, 41332, Pitch_bend_c, 1, 10012
3, 41333, Pitch_bend_c, 1, 10142
3, 41334, Pitch_bend_c, 1, 10272
3, 41335, Pitch_bend_c, 1, 10532
3, 41336, Pitch_bend_c, 1, 10662
3, 41337, Pitch_bend_c, 1, 10792
3, 41338, Pitch_bend_c, 1, 10922
3, 41340, Pitch_bend_c, 1, 11052
3, 41348, Pitch_bend_c, 1, 10792
3, 41349, Pitch_bend_c, 1, 10662
3, 41350, Pitch_bend_c, 1, 10402
3, 41351, Pitch_bend_c, 1, 10142
3, 41351, Pitch_bend_c, 1, 9882
3, 41352, Pitch_bend_c, 1, 9492
3, 41353, Pitch_bend_c, 1, 9232
3, 41354, Pitch_bend_c, 1, 8712
3, 41355, Pitch_bend_c, 1, 8192
3, 41356, Pitch_bend_c, 1, 8192
3, 41385, Pitch_bend_c, 1, 8192
3, 41386, Pitch_bend_c, 1, 8192
3, 41388, Pitch_bend_c, 1, 8712
3, 41389, Pitch_bend_c, 1, 8972
3, 41390, Pitch_bend_c, 1, 9102
3, 41391, Pitch_bend_c, 1, 9232
3, 41391, Pitch_bend_c, 1, 9362
3, 41392, Pitch_bend_c, 1, 9492
3, 41393, Pitch_bend_c, 1, 9752
3, 41395, Pitch_bend_c, 1, 9882
3, 41400, Pitch_bend_c, 1, 9622
3, 41400, Pitch_bend_c, 1, 9362
3, 41401, Pitch_bend_c, 1, 9232
3, 41402, Pitch_bend_c, 1, 9102
3, 41403, Pitch_bend_c, 1, 8972
3, 41404, Pitch_bend_c, 1, 8712
3, 41405, Pitch_bend_c, 1, 8192
3, 41405, Pitch_bend_c, 1, 8192
3, 41473, Note_on_c, 1, 50, 75
3, 41476, Note_on_c, 1, 45, 0
3, 41529, Note_on_c, 1, 50, 0
3, 41538, Note_on_c, 1, 50, 77
3, 41765, Note_on_c, 1, 50, 0
3, 41771, Note_on_c, 1, 49, 59
3, 41894, Note_on_c, 1, 37, 71
3, 41900, Note_on_c, 1, 49, 0
3, 42077, Note_on_c, 1, 36, 91
3, 42078, Note_on_c, 1, 37, 0
3, 42139, Note_on_c, 1, 50, 110
3, 42143, Note_on_c, 1, 36, 0
3, 42196, Note_on_c, 1, 50, 0
3, 42200, Note_on_c, 1, 48, 80
3, 42258, Note_on_c, 1, 48, 0
3, 42258, Note_on_c, 1, 41, 83
3, 42475, Note_on_c, 1, 29, 54
3, 42505, Note_on_c, 1, 41, 0
3, 42725, Note_on_c, 1, 41, 103
3, 42727, Note_on_c, 1, 29, 0
3, 42752, Pitch_bend_c, 1, 9088
3, 42772, Pitch_bend_c, 1, 9216
3, 42780, Pitch_bend_c, 1, 9344
3, 42784, Pitch_bend_c, 1, 9472
3, 42788, Pitch_bend_c, 1, 9984
3, 42792, Pitch_bend_c, 1, 10112
3, 42808, Pitch_bend_c, 1, 9984
3, 42816, Pitch_bend_c, 1, 9856
3, 42820, Pitch_bend_c, 1, 9600
3, 42824, Pitch_bend_c, 1, 9472
3, 42828, Pitch_bend_c, 1, 9344
3, 42832, Pitch_bend_c, 1, 7808
3, 42836, Pitch_bend_c, 1, 8320
3, 42840, Pitch_bend_c, 1, 9600
3, 42852, Pitch_bend_c, 1, 9856
3, 42856, Pitch_bend_c, 1, 10112
3, 42868, Pitch_bend_c, 1, 9728
3, 42872, Pitch_bend_c, 1, 9600
3, 42880, Pitch_bend_c, 1, 7552
3, 42884, Pitch_bend_c, 1, 7424
3, 42888, Pitch_bend_c, 1, 7680
3, 42892, Pitch_bend_c, 1, 7936
3, 42900, Pitch_bend_c, 1, 8064
3, 42904, Pitch_bend_c, 1, 8320
3, 42912, Pitch_bend_c, 1, 8192
3, 42924, Pitch_bend_c, 1, 8064
3, 43088, Note_on_c, 1, 29, 68
3, 43093, Note_on_c, 1, 41, 0
3, 43213, Note_on_c, 1, 28, 69
3, 43214, Note_on_c, 1, 29, 0
3, 43328, Note_on_c, 1, 40, 83
3, 43331, Note_on_c, 1, 28, 0
3, 43491, Note_on_c, 1, 54, 87
3, 43530, Note_on_c, 1, 54, 0
3, 43530, Note_on_c, 1, 52, 80
3, 43538, Note_on_c, 1, 40, 0
3, 43619, Note_on_c, 1, 47, 71
3, 43624, Note_on_c, 1, 52, 0
3, 43639, Note_on_c, 1, 47, 0
3, 43650, Note_on_c, 1, 43, 56
3, 43682, Note_on_c, 1, 43, 0
3, 43686, Note_on_c, 1, 45, 71
3, 43906, Note_on_c, 1, 40, 37
3, 43913, Note_on_c, 1, 40, 0
3, 43925, Note_on_c, 1, 33, 77
3, 43931, Note_on_c, 1, 45, 0
3, 44040, Note_on_c, 1, 39, 83
3, 44041, Note_on_c, 1, 33, 0
3, 44162, Note_on_c, 1, 39, 0
3, 44163, Note_on_c, 1, 38, 72
3, 44396, Note_on_c, 1, 52, 74
3, 44520, Note_on_c, 1, 38, 0
3, 44526, Note_on_c, 1, 50, 75
3, 44530, Note_on_c, 1, 52, 0
3, 44625, Note_on_c, 1, 42, 68
3, 44640, Note_on_c, 1, 42, 0
3, 44642, Note_on_c, 1, 50, 0
3, 44649, Note_on_c, 1, 43, 63
3, 44780, Note_on_c, 1, 31, 62
3, 44905, Note_on_c, 1, 43, 0
3, 45032, Note_on_c, 1, 43, 68
3, 45038, Note_on_c, 1, 31, 0
3, 45146, Note_on_c, 1, 50, 92
3, 45150, Note_on_c, 1, 43, 0
3, 45185, Note_on_c, 1, 47, 54
3, 45186, Note_on_c, 1, 50, 0
3, 45221, Note_on_c, 1, 48, 80
3, 45224, Note_on_c, 1, 47, 0
3, 45363, Note_on_c, 1, 43, 66
3, 45366, Note_on_c, 1, 48, 0
3, 45551, Note_on_c, 1, 36, 62
3, 45562, Note_on_c, 1, 43, 0
3, 45566, Note_on_c, 1, 36, 0
3, 45585, Note_on_c, 1, 36, 72
3, 45611, Note_on_c, 1, 36, 0
3, 45617, Note_on_c, 1, 35, 75
3, 45741, Note_on_c, 1, 47, 110
3, 45748, Note_on_c, 1, 35, 0
3, 45962, Note_on_c, 1, 40, 85
3, 45971, Note_on_c, 1, 47, 0
3, 46057, Note_on_c, 1, 46, 76
3, 46070, Note_on_c, 1, 40, 0
3, 46080, Pitch_bend_c, 1, 8192
3, 46084, Note_on_c, 1, 46, 0
3, 46086, Note_on_c, 1, 45, 80
3, 46112, Pitch_bend_c, 1, 8448
3, 46116, Pitch_bend_c, 1, 8576
3, 46120, Pitch_bend_c, 1, 8704
3, 46124, Pitch_bend_c, 1, 8832
3, 46128, Pitch_bend_c, 1, 9216
3, 46132, Pitch_bend_c, 1, 9472
3, 46140, Pitch_bend_c, 1, 9600
3, 46144, Pitch_bend_c, 1, 9984
3, 46148, Pitch_bend_c, 1, 10112
3, 46152, Pitch_bend_c, 1, 10368
3, 46160, Pitch_bend_c, 1, 10112
3, 46164, Pitch_bend_c, 1, 9600
3, 46168, Pitch_bend_c, 1, 9344
3, 46172, Pitch_bend_c, 1, 9088
3, 46176, Pitch_bend_c, 1, 8960
3, 46180, Pitch_bend_c, 1, 8832
3, 46184, Pitch_bend_c, 1, 8704
3, 46188, Pitch_bend_c, 1, 8576
3, 46196, Pitch_bend_c, 1, 8448
3, 46200, Pitch_bend_c, 1, 8320
3, 46204, Pitch_bend_c, 1, 8064
3, 46212, Pitch_bend_c, 1, 8448
3, 46220, Pitch_bend_c, 1, 8832
3, 46224, Pitch_bend_c, 1, 9472
3, 46236, Pitch_bend_c, 1, 9088
3, 46240, Pitch_bend_c, 1, 7680
3, 46244, Pitch_bend_c, 1, 7168
3, 46248, Pitch_bend_c, 1, 7040
3, 46252, Pitch_bend_c, 1, 6784
3, 46256, Pitch_bend_c, 1, 6656
3, 46260, Pitch_bend_c, 1, 6784
3, 46264, Pitch_bend_c, 1, 6912
3, 46268, Pitch_bend_c, 1, 7296
3, 46272, Pitch_bend_c, 1, 8064
3, 46276, Pitch_bend_c, 1, 8192
3, 46284, Pitch_bend_c, 1, 8320
3, 46292, Pitch_bend_c, 1, 8192
3, 46296, Pitch_bend_c, 1, 8064
3, 46304, Pitch_bend_c, 1, 8192
3, 46337, Note_on_c, 1, 39, 73
3, 46351, Note_on_c, 1, 45, 0
3, 46566, Note_on_c, 1, 38, 71
3, 46567, Note_on_c, 1, 39, 0
3, 46745, Note_on_c, 1, 44, 80
3, 46757, Note_on_c, 1, 38, 0
3, 46805, Note_on_c, 1, 44, 0
3, 46806, Note_on_c, 1, 43, 74
3, 46926, Note_on_c, 1, 31, 80
3, 46929, Note_on_c, 1, 43, 0
3, 47046, Note_on_c, 1, 36, 75
3, 47050, Note_on_c, 1, 31, 0
3, 47213, Note_on_c, 1, 50, 82
3, 47230, Note_on_c, 1, 50, 0
3, 47241, Note_on_c, 1, 48, 74
3, 47306, Note_on_c, 1, 36, 0
3, 47520, Note_on_c, 1, 36, 75
3, 47528, Note_on_c, 1, 48, 0
3, 47714, Note_on_c, 1, 48, 94
3, 47741, Note_on_c, 1, 48, 0
3, 47755, Note_on_c, 1, 36, 0
3, 47773, Note_on_c, 1, 48, 95
3, 47806, Pitch_bend_c, 1, 8192
3, 47806, Pitch_bend_c, 1, 8192
3, 47807, Pitch_bend_c, 1, 8712
3, 47808, Pitch_bend_c, 1, 9102
3, 47809, Pitch_bend_c, 1, 9362
3, 47810, Pitch_bend_c, 1, 9622
3, 47811, Pitch_bend_c, 1, 9882
3, 47812, Pitch_bend_c, 1, 10142
3, 47813, Pitch_bend_c, 1, 10402
3, 47814, Pitch_bend_c, 1, 10532
3, 47815, Pitch_bend_c, 1, 10792
3, 47816, Pitch_bend_c, 1, 11052
3, 47818, Pitch_bend_c, 1, 11442
3, 47826, Pitch_bend_c, 1, 11052
3, 47827, Pitch_bend_c, 1, 10922
3, 47828, Pitch_bend_c, 1, 10792
3, 47828, Pitch_bend_c, 1, 10662
3, 47830, Pitch_bend_c, 1, 10402
3, 47830, Pitch_bend_c, 1, 10142
3, 47831, Pitch_bend_c, 1, 10012
3, 47832, Pitch_bend_c, 1, 9752
3, 47833, Pitch_bend_c, 1, 9362
3, 47834, Pitch_bend_c, 1, 9102
3, 47835, Pitch_bend_c, 1, 8712
3, 47836, Pitch_bend_c, 1, 8192
3, 47836, Pitch_bend_c, 1, 8192
3, 47861, Pitch_bend_c, 1, 8192
3, 47863, Pitch_bend_c, 1, 8712
3, 47864, Pitch_bend_c, 1, 8842
3, 47864, Pitch_bend_c, 1, 9102
3, 47865, Pitch_bend_c, 1, 9362
3, 47866, Pitch_bend_c, 1, 9622
3, 47867, Pitch_bend_c, 1, 9882
3, 47868, Pitch_bend_c, 1, 10012
3, 47869, Pitch_bend_c, 1, 10142
3, 47870, Pitch_bend_c, 1, 10272
3, 47871, Pitch_bend_c, 1, 10402
3, 47872, Pitch_bend_c, 1, 10532
3, 47873, Pitch_bend_c, 1, 10662
3, 47875, Pitch_bend_c, 1, 10792
3, 47880, Pitch_bend_c, 1, 10662
3, 47881, Pitch_bend_c, 1, 10532
3, 47882, Pitch_bend_c, 1, 10272
3, 47883, Pitch_bend_c, 1, 10142
3, 47884, Pitch_bend_c, 1, 9882
3, 47885, Pitch_bend_c, 1, 9752
3, 47886, Pitch_bend_c, 1, 9362
3, 47887, Pitch_bend_c, 1, 9102
3, 47888, Pitch_bend_c, 1, 8712
3, 47889, Pitch_bend_c, 1, 8192
3, 47889, Pitch_bend_c, 1, 8192
3, 48008, Note_on_c, 1, 48, 0
3, 48009, Note_on_c, 1, 41, 75
3, 48250, Note_on_c, 1, 35, 85
3, 48253, Note_on_c, 1, 41, 0
3, 48488, Note_on_c, 1, 35, 0
3, 48488, Note_on_c, 1, 34, 62
3, 48654, Note_on_c, 1, 48, 71
3, 48665, Note_on_c, 1, 34, 0
3, 48672, Note_on_c, 1, 48, 0
3, 48680, Note_on_c, 1, 46, 62
3, 48853, Note_on_c, 1, 41, 62
3, 48857, Note_on_c, 1, 46, 0
3, 48888, Note_on_c, 1, 41, 0
3, 48896, Note_on_c, 1, 34, 65
3, 48912, Note_on_c, 1, 34, 0
3, 48945, Note_on_c, 1, 34, 65
3, 48956, Note_on_c, 1, 34, 0
3, 48967, Note_on_c, 1, 34, 65
3, 48979, Note_on_c, 1, 34, 0
3, 48987, Note_on_c, 1, 33, 73
3, 49181, Note_on_c, 1, 33, 0
3, 49182, Note_on_c, 1, 39, 60
3, 49204, Note_on_c, 1, 39, 0
3, 49205, Note_on_c, 1, 38, 74
3, 49395, Note_on_c, 1, 50, 82
3, 49403, Note_on_c, 1, 38, 0
3, 49432, Note_on_c, 1, 38, 49
3, 49444, Note_on_c, 1, 38, 0
3, 49445, Note_on_c, 1, 50, 0
3, 49457, Note_on_c, 1, 49, 81
3, 49571, Note_on_c, 1, 37, 63
3, 49578, Note_on_c, 1, 49, 0
3, 49674, Note_on_c, 1, 34, 35
3, 49681, Note_on_c, 1, 37, 0
3, 49692, Note_on_c, 1, 34, 0
3, 49693, Note_on_c, 1, 36, 70
3, 49797, Note_on_c, 1, 34, 56
3, 49814, Note_on_c, 1, 36, 0
3, 49817, Note_on_c, 1, 48, 96
3, 49818, Note_on_c, 1, 34, 0
3, 49841, Note_on_c, 1, 48, 0
3, 49880, Note_on_c, 1, 42, 77
3, 49889, Note_on_c, 1, 43, 33
3, 49925, Note_on_c, 1, 36, 40
3, 49930, Note_on_c, 1, 36, 0
3, 49934, Note_on_c, 1, 43, 0
3, 49937, Note_on_c, 1, 42, 0
3, 49943, Note_on_c, 1, 41, 64
3, 50060, Note_on_c, 1, 29, 62
3, 50062, Note_on_c, 1, 31, 36
3, 50067, Note_on_c, 1, 31, 0
3, 50143, Note_on_c, 1, 41, 0
3, 50346, Note_on_c, 1, 41, 101
3, 50373, Note_on_c, 1, 41, 0
3, 50407, Note_on_c, 1, 41, 89
3, 50410, Note_on_c, 1, 29, 0
3, 50466, Note_on_c, 1, 29, 84
3, 50481, Note_on_c, 1, 41, 0
3, 50761, Note_on_c, 1, 41, 95
3, 50767, Note_on_c, 1, 29, 0
3, 50844, Note_on_c, 1, 41, 0
3, 50860, Note_on_c, 1, 41, 67
3, 50879, Note_on_c, 1, 41, 0
3, 50889, Note_on_c, 1, 40, 62
3, 51108, Note_on_c, 1, 34, 31
3, 51112, Note_on_c, 1, 34, 0
3, 51125, Note_on_c, 1, 40, 0
3, 51129, Note_on_c, 1, 46, 71
3, 51348, Note_on_c, 1, 32, 43
3, 51359, Note_on_c, 1, 46, 0
3, 51361, Note_on_c, 1, 32, 0
3, 51370, Note_on_c, 1, 33, 63
3, 51545, Note_on_c, 1, 47, 77
3, 51569, Note_on_c, 1, 47, 0
3, 51572, Note_on_c, 1, 44, 50
3, 51590, Note_on_c, 1, 44, 0
3, 51601, Note_on_c, 1, 33, 0
3, 51602, Note_on_c, 1, 45, 65
3, 51736, Note_on_c, 1, 40, 71
3, 51742, Note_on_c, 1, 45, 0
3, 51834, Note_on_c, 1, 37, 51
3, 51835, Note_on_c, 1, 40, 0
3, 51856, Note_on_c, 1, 37, 0
3, 51866, Note_on_c, 1, 38, 75
3, 51979, Note_on_c, 1, 52, 94
3, 51995, Note_on_c, 1, 38, 0
3, 52079, Note_on_c, 1, 38, 58
3, 52090, Note_on_c, 1, 38, 0
3, 52091, Note_on_c, 1, 52, 0
3, 52101, Note_on_c, 1, 50, 75
3, 52246, Note_on_c, 1, 45, 74
3, 52270, Note_on_c, 1, 45, 0
3, 52274, Note_on_c, 1, 50, 0
3, 52285, Note_on_c, 1, 44, 69
3, 52324, Note_on_c, 1, 44, 0
3, 52326, Note_on_c, 1, 43, 74
3, 52482, Note_on_c, 1, 42, 69
3, 52494, Note_on_c, 1, 43, 0
3, 52570, Note_on_c, 1, 41, 79
3, 52571, Note_on_c, 1, 42, 0
3, 52648, Note_on_c, 1, 41, 0
3, 52661, Note_on_c, 1, 41, 68
3, 52749, Note_on_c, 1, 41, 0
3, 52749, Note_on_c, 1, 40, 80
3, 52962, Note_on_c, 1, 52, 95
3, 52997, Note_on_c, 1, 52, 0
3, 53005, Note_on_c, 1, 51, 83
3, 53032, Note_on_c, 1, 40, 0
3, 53045, Note_on_c, 1, 51, 0
3, 53050, Note_on_c, 1, 50, 79
3, 53111, Note_on_c, 1, 38, 80
3, 53120, Note_on_c, 1, 50, 0
3, 53166, Note_on_c, 1, 38, 0
3, 53169, Note_on_c, 1, 37, 81
3, 53223, Note_on_c, 1, 37, 0
3, 53231, Note_on_c, 1, 37, 75
3, 53287, Note_on_c, 1, 37, 0
3, 53292, Note_on_c, 1, 36, 79
3, 53536, Note_on_c, 1, 48, 96
3, 53544, Note_on_c, 1, 36, 0
3, 53712, Note_on_c, 1, 48, 0
3, 53714, Note_on_c, 1, 42, 78
3, 53773, Note_on_c, 1, 42, 0
3, 53776, Note_on_c, 1, 41, 74
3, 54137, Note_on_c, 1, 29, 74
3, 54142, Note_on_c, 1, 41, 0
3, 54257, Note_on_c, 1, 38, 81
3, 54258, Note_on_c, 1, 29, 0
3, 54376, Note_on_c, 1, 45, 92
3, 54384, Note_on_c, 1, 38, 0
3, 54495, Note_on_c, 1, 45, 0
3, 54498, Note_on_c, 1, 43, 62
3, 54664, Note_on_c, 1, 41, 87
3, 54665, Note_on_c, 1, 43, 0
3, 54721, Note_on_c, 1, 41, 0
3, 54724, Note_on_c, 1, 40, 83
3, 54962, Note_on_c, 1, 46, 57
3, 54972, Note_on_c, 1, 40, 0
3, 55192, Note_on_c, 1, 45, 62
3, 55193, Note_on_c, 1, 46, 0
3, 55385, Note_on_c, 1, 58, 77
3, 55437, Note_on_c, 1, 58, 0
3, 55443, Note_on_c, 1, 57, 70
3, 55445, Note_on_c, 1, 45, 0
3, 55562, Note_on_c, 1, 57, 0
3, 55566, Note_on_c, 1, 49, 79
3, 55661, Note_on_c, 1, 49, 0
3, 55661, Note_on_c, 1, 52, 68
3, 55676, Note_on_c, 1, 49, 38
3, 55677, Note_on_c, 1, 52, 0
3, 55691, Note_on_c, 1, 49, 0
3, 55699, Note_on_c, 1, 50, 71
3, 55816, Note_on_c, 1, 44, 82
3, 55853, Note_on_c, 1, 50, 0
3, 55928, Note_on_c, 1, 56, 87
3, 56022, Note_on_c, 1, 44, 0
3, 56058, Note_on_c, 1, 44, 91
3, 56066, Note_on_c, 1, 56, 0
3, 56177, Note_on_c, 1, 44, 0
3, 56178, Note_on_c, 1, 43, 88
3, 56307, Note_on_c, 1, 31, 68
3, 56362, Note_on_c, 1, 43, 0
3, 56441, Note_on_c, 1, 43, 80
3, 56471, Note_on_c, 1, 31, 0
3, 56596, Note_on_c, 1, 31, 68
3, 56693, Note_on_c, 1, 43, 0
3, 57032, Note_on_c, 1, 36, 31
3, 57037, Note_on_c, 1, 36, 0
3, 57099, Note_on_c, 1, 36, 82
3, 57107, Note_on_c, 1, 31, 0
3, 57322, Note_on_c, 1, 48, 73
3, 57607, Note_on_c, 1, 36, 0
3, 57621, Note_on_c, 1, 48, 0
3, 57624, Note_on_c, 1, 36, 78
3, 58477, Note_on_c, 1, 36, 64
3, 58516, Note_on_c, 1, 36, 0
3, 58918, Note_on_c, 1, 45, 57
3, 58958, Note_on_c, 1, 36, 0
3, 58961, Note_on_c, 1, 45, 0
3, 58968, Note_on_c, 1, 43, 47
3, 59048, Note_on_c, 1, 50, 53
3, 59099, Note_on_c, 1, 50, 0
3, 59099, Note_on_c, 1, 43, 0
3, 59106, Note_on_c, 1, 48, 50
3, 59829, Note_on_c, 1, 48, 0
3, 59829, End_track
4, 0, Start_track
4, 0, MIDI_port, 0
4, 0, Title_t, ""
4, 0, End_track
5, 0, Start_track
5, 0, MIDI_port, 0
5, 0, Title_t, ""
5, 0, Program_c, 9, 0
5, 0, End_track
0, 0, End_of_file
