0, 0, Header, 1, 2, 120
1, 0, Start_track
1, 0, Title_t, "Witchcraft (Cy Colman)"
1, 0, Text_t, "Doug McKenzie dougmck@pipeline.com.au\012"
1, 0, Text_t, "Recorded in real time - minimal editing. Markers will show up in 'Cakewalk'\012"
1, 0, Text_t, "See The New Real Book Vol 1 (Sher Music) p 407\012"
1, 0, Time_signature, 4, 2, 24, 8
1, 0, Key_signature, -1, "major"
1, 0, Tempo, 428571
1, 7680, Marker_t, "FMaj7/C"
1, 8640, Marker_t, "C7susb9 (Phrygian chord)"
1, 11525, Marker_t, "Am chord over next 4 bars with 5th (E) rising to b6 (F) then 6th (F#) then back."
1, 14386, Marker_t, "Db7 #11"
1, 14724, Marker_t, "C7 - diminished scale"
1, 15541, Marker_t, "'Locked hands' - Block chords, melody doubled in LH with grace notes"
1, 18243, Marker_t, "A 5-stack of Perfect 4ths "
1, 19200, Marker_t, "Walking bass line in LH - RH plays single note lines."
1, 20291, Marker_t, "An Ab dim arpeggio with some auxilliary tones and change of direction"
1, 21111, Marker_t, "Lick based on a Gm9(Maj7) arpeggio with surround tones on the root"
1, 22058, Marker_t, "F chord with 5th (C) surround tones."
1, 25053, Marker_t, "on AbMaj7 2 pairs of 4ths alternate in triplet rhythm"
1, 28073, Marker_t, "On C7susb9 - an Ab Major scale (= phygian mode)"
1, 29760, Marker_t, "G/Ab , Bb/B, Db/D, E/F - all are part of the E7 diminished scale "
1, 30826, Marker_t, "On Am 'bluesy' licks "
1, 37017, Marker_t, "on C7 diminished (Wtone 1/2 tone) scale"
1, 38400, Marker_t, "Rough stride style"
1, 39840, Marker_t, "On Abdim lick based on dim scale 4steps up, back 1, 4 steps up etc.."
1, 40878, Marker_t, "Instead of just the Bass walking, chords on each beat move in simoilar way to walking line"
1, 44246, Marker_t, "A 3 stack of 4ths in each hand"
1, 50880, Marker_t, "'Errol Garner' style 4 to the bar in LH"
1, 53764, Marker_t, "Basically 4th-y voicings"
1, 57602, Marker_t, "Back to walking bass"
1, 68160, Marker_t, "Tremolo in RH while LH plays (counter) melody"
1, 68160, End_track
2, 0, Start_track
2, 0, Title_t, ""
2, 84, Note_on_c, 0, 62, 71
2, 85, Note_on_c, 0, 53, 79
2, 86, Note_on_c, 0, 57, 64
2, 87, Note_on_c, 0, 50, 66
2, 88, Note_on_c, 0, 60, 61
2, 88, Note_on_c, 0, 41, 60
2, 137, Control_c, 0, 64, 127
2, 195, Control_c, 0, 64, 0
2, 214, Note_on_c, 0, 50, 0
2, 214, Note_on_c, 0, 57, 0
2, 215, Note_on_c, 0, 62, 0
2, 217, Note_on_c, 0, 53, 0
2, 224, Note_on_c, 0, 60, 0
2, 240, Note_on_c, 0, 50, 43
2, 240, Note_on_c, 0, 62, 54
2, 242, Note_on_c, 0, 57, 48
2, 244, Note_on_c, 0, 53, 33
2, 285, Control_c, 0, 64, 127
2, 307, Note_on_c, 0, 41, 0
2, 314, Note_on_c, 0, 62, 0
2, 328, Note_on_c, 0, 53, 0
2, 334, Note_on_c, 0, 57, 0
2, 337, Note_on_c, 0, 50, 0
2, 338, Note_on_c, 0, 49, 42
2, 343, Note_on_c, 0, 50, 30
2, 349, Control_c, 0, 64, 0
2, 352, Note_on_c, 0, 50, 0
2, 352, Note_on_c, 0, 49, 0
2, 355, Note_on_c, 0, 57, 50
2, 355, Note_on_c, 0, 64, 55
2, 357, Note_on_c, 0, 60, 61
2, 357, Note_on_c, 0, 53, 49
2, 360, Note_on_c, 0, 52, 68
2, 441, Note_on_c, 0, 53, 0
2, 442, Note_on_c, 0, 57, 0
2, 444, Note_on_c, 0, 60, 0
2, 446, Note_on_c, 0, 64, 0
2, 451, Note_on_c, 0, 52, 0
2, 452, Note_on_c, 0, 48, 15
2, 453, Note_on_c, 0, 49, 30
2, 473, Note_on_c, 0, 48, 0
2, 476, Note_on_c, 0, 49, 0
2, 477, Note_on_c, 0, 52, 49
2, 479, Note_on_c, 0, 53, 46
2, 479, Note_on_c, 0, 64, 50
2, 480, Note_on_c, 0, 57, 50
2, 483, Note_on_c, 0, 60, 45
2, 528, Note_on_c, 0, 53, 0
2, 531, Note_on_c, 0, 57, 0
2, 534, Control_c, 0, 64, 127
2, 539, Note_on_c, 0, 60, 0
2, 540, Note_on_c, 0, 51, 36
2, 541, Note_on_c, 0, 64, 0
2, 541, Note_on_c, 0, 52, 0
2, 555, Note_on_c, 0, 52, 42
2, 562, Note_on_c, 0, 51, 0
2, 562, Control_c, 0, 64, 0
2, 562, Note_on_c, 0, 65, 68
2, 563, Note_on_c, 0, 60, 66
2, 563, Note_on_c, 0, 57, 62
2, 565, Note_on_c, 0, 62, 66
2, 565, Note_on_c, 0, 53, 62
2, 579, Note_on_c, 0, 52, 0
2, 649, Note_on_c, 0, 57, 0
2, 653, Note_on_c, 0, 62, 0
2, 653, Note_on_c, 0, 60, 0
2, 654, Note_on_c, 0, 65, 0
2, 655, Note_on_c, 0, 53, 0
2, 655, Note_on_c, 0, 50, 31
2, 664, Note_on_c, 0, 51, 37
2, 670, Note_on_c, 0, 51, 0
2, 671, Note_on_c, 0, 50, 0
2, 671, Note_on_c, 0, 52, 68
2, 675, Note_on_c, 0, 65, 74
2, 676, Note_on_c, 0, 57, 80
2, 676, Note_on_c, 0, 60, 78
2, 676, Note_on_c, 0, 62, 76
2, 677, Note_on_c, 0, 53, 74
2, 695, Note_on_c, 0, 52, 0
2, 724, Note_on_c, 0, 53, 0
2, 791, Note_on_c, 0, 47, 85
2, 826, Note_on_c, 0, 46, 69
2, 830, Note_on_c, 0, 47, 0
2, 845, Note_on_c, 0, 46, 0
2, 861, Note_on_c, 0, 45, 78
2, 913, Note_on_c, 0, 60, 0
2, 914, Note_on_c, 0, 62, 0
2, 923, Note_on_c, 0, 57, 0
2, 930, Note_on_c, 0, 65, 0
2, 942, Note_on_c, 0, 45, 0
2, 955, Note_on_c, 0, 44, 58
2, 1033, Note_on_c, 0, 62, 77
2, 1034, Note_on_c, 0, 59, 75
2, 1034, Note_on_c, 0, 56, 69
2, 1034, Note_on_c, 0, 53, 80
2, 1035, Note_on_c, 0, 50, 73
2, 1158, Note_on_c, 0, 50, 0
2, 1160, Note_on_c, 0, 53, 0
2, 1164, Note_on_c, 0, 56, 0
2, 1167, Note_on_c, 0, 62, 0
2, 1174, Note_on_c, 0, 59, 0
2, 1196, Note_on_c, 0, 50, 46
2, 1198, Note_on_c, 0, 62, 61
2, 1199, Note_on_c, 0, 53, 54
2, 1200, Note_on_c, 0, 56, 37
2, 1203, Note_on_c, 0, 59, 47
2, 1344, Note_on_c, 0, 59, 0
2, 1369, Note_on_c, 0, 56, 0
2, 1374, Note_on_c, 0, 53, 0
2, 1379, Note_on_c, 0, 50, 0
2, 1391, Note_on_c, 0, 62, 0
2, 1394, Note_on_c, 0, 44, 0
2, 1404, Note_on_c, 0, 64, 74
2, 1405, Note_on_c, 0, 49, 83
2, 1406, Note_on_c, 0, 53, 72
2, 1406, Note_on_c, 0, 56, 67
2, 1408, Note_on_c, 0, 59, 72
2, 1439, Note_on_c, 0, 59, 0
2, 1439, Note_on_c, 0, 53, 0
2, 1440, Note_on_c, 0, 56, 0
2, 1440, Note_on_c, 0, 64, 0
2, 1450, Note_on_c, 0, 49, 0
2, 1464, Note_on_c, 0, 56, 43
2, 1465, Note_on_c, 0, 64, 57
2, 1466, Note_on_c, 0, 49, 64
2, 1468, Note_on_c, 0, 53, 47
2, 1470, Note_on_c, 0, 59, 53
2, 1484, Note_on_c, 0, 59, 0
2, 1494, Control_c, 0, 64, 127
2, 1495, Note_on_c, 0, 56, 0
2, 1499, Note_on_c, 0, 64, 0
2, 1499, Note_on_c, 0, 53, 0
2, 1532, Control_c, 0, 64, 0
2, 1537, Note_on_c, 0, 65, 65
2, 1540, Note_on_c, 0, 56, 57
2, 1541, Note_on_c, 0, 59, 60
2, 1542, Note_on_c, 0, 62, 58
2, 1543, Note_on_c, 0, 50, 69
2, 1546, Note_on_c, 0, 49, 0
2, 1553, Note_on_c, 0, 56, 0
2, 1558, Note_on_c, 0, 59, 0
2, 1558, Note_on_c, 0, 50, 0
2, 1561, Note_on_c, 0, 65, 0
2, 1563, Note_on_c, 0, 62, 0
2, 1627, Control_c, 0, 64, 127
2, 1637, Control_c, 0, 64, 0
2, 1637, Note_on_c, 0, 49, 37
2, 1646, Note_on_c, 0, 50, 69
2, 1647, Note_on_c, 0, 65, 61
2, 1647, Note_on_c, 0, 59, 67
2, 1648, Note_on_c, 0, 56, 59
2, 1648, Note_on_c, 0, 62, 62
2, 1657, Control_c, 0, 64, 127
2, 1659, Note_on_c, 0, 49, 0
2, 1705, Note_on_c, 0, 56, 0
2, 1719, Note_on_c, 0, 59, 0
2, 1728, Note_on_c, 0, 50, 0
2, 1764, Note_on_c, 0, 50, 58
2, 1779, Note_on_c, 0, 50, 0
2, 1787, Note_on_c, 0, 62, 0
2, 1791, Control_c, 0, 64, 0
2, 1796, Note_on_c, 0, 54, 60
2, 1800, Note_on_c, 0, 44, 43
2, 1802, Note_on_c, 0, 59, 50
2, 1841, Note_on_c, 0, 59, 0
2, 1844, Note_on_c, 0, 65, 0
2, 1849, Control_c, 0, 64, 127
2, 1852, Note_on_c, 0, 54, 0
2, 1867, Note_on_c, 0, 44, 0
2, 1869, Control_c, 0, 64, 0
2, 1874, Note_on_c, 0, 53, 61
2, 1876, Note_on_c, 0, 43, 53
2, 1877, Note_on_c, 0, 58, 68
2, 1901, Note_on_c, 0, 53, 0
2, 1919, Control_c, 0, 64, 127
2, 1962, Note_on_c, 0, 58, 0
2, 1973, Note_on_c, 0, 46, 38
2, 1986, Note_on_c, 0, 49, 58
2, 1989, Note_on_c, 0, 43, 0
2, 1989, Note_on_c, 0, 53, 76
2, 1990, Note_on_c, 0, 62, 70
2, 1992, Note_on_c, 0, 58, 46
2, 1992, Note_on_c, 0, 50, 76
2, 1993, Note_on_c, 0, 55, 71
2, 1999, Note_on_c, 0, 46, 0
2, 2002, Control_c, 0, 64, 0
2, 2004, Note_on_c, 0, 49, 0
2, 2022, Note_on_c, 0, 55, 0
2, 2034, Note_on_c, 0, 49, 63
2, 2035, Note_on_c, 0, 50, 0
2, 2049, Note_on_c, 0, 62, 0
2, 2108, Note_on_c, 0, 58, 0
2, 2111, Note_on_c, 0, 53, 0
2, 2126, Note_on_c, 0, 46, 30
2, 2154, Note_on_c, 0, 53, 48
2, 2155, Note_on_c, 0, 58, 43
2, 2156, Note_on_c, 0, 55, 62
2, 2157, Note_on_c, 0, 49, 0
2, 2157, Note_on_c, 0, 62, 38
2, 2157, Note_on_c, 0, 50, 46
2, 2167, Note_on_c, 0, 46, 0
2, 2221, Note_on_c, 0, 55, 0
2, 2239, Note_on_c, 0, 62, 0
2, 2239, Note_on_c, 0, 53, 0
2, 2249, Note_on_c, 0, 58, 0
2, 2252, Note_on_c, 0, 50, 0
2, 2255, Note_on_c, 0, 49, 28
2, 2272, Note_on_c, 0, 64, 60
2, 2273, Note_on_c, 0, 58, 59
2, 2274, Note_on_c, 0, 52, 58
2, 2276, Note_on_c, 0, 55, 32
2, 2279, Note_on_c, 0, 49, 0
2, 2280, Note_on_c, 0, 61, 31
2, 2321, Note_on_c, 0, 64, 0
2, 2323, Note_on_c, 0, 55, 0
2, 2327, Note_on_c, 0, 52, 0
2, 2328, Note_on_c, 0, 58, 0
2, 2328, Note_on_c, 0, 61, 0
2, 2393, Note_on_c, 0, 52, 50
2, 2395, Note_on_c, 0, 61, 36
2, 2395, Note_on_c, 0, 58, 40
2, 2398, Note_on_c, 0, 64, 36
2, 2399, Note_on_c, 0, 55, 53
2, 2431, Note_on_c, 0, 64, 0
2, 2436, Note_on_c, 0, 55, 0
2, 2447, Control_c, 0, 64, 127
2, 2466, Note_on_c, 0, 52, 0
2, 2466, Note_on_c, 0, 61, 0
2, 2471, Note_on_c, 0, 58, 0
2, 2484, Note_on_c, 0, 58, 64
2, 2485, Note_on_c, 0, 65, 66
2, 2486, Note_on_c, 0, 53, 55
2, 2486, Note_on_c, 0, 62, 65
2, 2487, Control_c, 0, 64, 0
2, 2517, Note_on_c, 0, 53, 0
2, 2518, Note_on_c, 0, 65, 0
2, 2520, Note_on_c, 0, 58, 0
2, 2526, Note_on_c, 0, 62, 0
2, 2529, Control_c, 0, 64, 127
2, 2541, Control_c, 0, 64, 0
2, 2571, Control_c, 0, 64, 127
2, 2585, Control_c, 0, 64, 0
2, 2595, Note_on_c, 0, 47, 50
2, 2599, Note_on_c, 0, 58, 55
2, 2600, Note_on_c, 0, 65, 44
2, 2600, Note_on_c, 0, 62, 53
2, 2601, Note_on_c, 0, 48, 62
2, 2603, Note_on_c, 0, 55, 60
2, 2611, Note_on_c, 0, 47, 0
2, 2680, Control_c, 0, 64, 127
2, 2699, Note_on_c, 0, 62, 0
2, 2702, Note_on_c, 0, 65, 0
2, 2725, Note_on_c, 0, 55, 0
2, 2726, Note_on_c, 0, 36, 41
2, 2728, Note_on_c, 0, 48, 0
2, 2733, Note_on_c, 0, 58, 0
2, 2735, Note_on_c, 0, 36, 0
2, 2748, Note_on_c, 0, 64, 61
2, 2784, Note_on_c, 0, 64, 0
2, 2997, Control_c, 0, 64, 0
2, 3001, Note_on_c, 0, 76, 69
2, 3002, Note_on_c, 0, 68, 71
2, 3003, Note_on_c, 0, 71, 71
2, 3004, Note_on_c, 0, 64, 70
2, 3006, Note_on_c, 0, 53, 62
2, 3017, Note_on_c, 0, 60, 25
2, 3045, Control_c, 0, 64, 127
2, 3085, Note_on_c, 0, 64, 0
2, 3107, Note_on_c, 0, 68, 0
2, 3108, Note_on_c, 0, 71, 0
2, 3109, Note_on_c, 0, 76, 0
2, 3110, Note_on_c, 0, 60, 0
2, 3111, Control_c, 0, 64, 0
2, 3115, Note_on_c, 0, 74, 33
2, 3120, Note_on_c, 0, 62, 47
2, 3121, Note_on_c, 0, 69, 59
2, 3121, Note_on_c, 0, 65, 45
2, 3151, Control_c, 0, 64, 127
2, 3171, Note_on_c, 0, 53, 0
2, 3193, Note_on_c, 0, 65, 0
2, 3199, Note_on_c, 0, 53, 59
2, 3207, Note_on_c, 0, 53, 0
2, 3209, Note_on_c, 0, 69, 0
2, 3211, Note_on_c, 0, 62, 0
2, 3220, Note_on_c, 0, 74, 0
2, 3319, Note_on_c, 0, 86, 96
2, 3319, Note_on_c, 0, 79, 91
2, 3319, Note_on_c, 0, 63, 53
2, 3320, Note_on_c, 0, 58, 63
2, 3320, Note_on_c, 0, 62, 54
2, 3320, Note_on_c, 0, 67, 65
2, 3330, Control_c, 0, 64, 0
2, 3364, Note_on_c, 0, 86, 0
2, 3365, Note_on_c, 0, 79, 0
2, 3372, Control_c, 0, 64, 127
2, 3376, Control_c, 0, 64, 0
2, 3376, Note_on_c, 0, 84, 63
2, 3376, Note_on_c, 0, 74, 53
2, 3378, Note_on_c, 0, 79, 37
2, 3412, Control_c, 0, 64, 127
2, 3426, Note_on_c, 0, 84, 0
2, 3432, Note_on_c, 0, 79, 0
2, 3448, Note_on_c, 0, 74, 0
2, 3482, Note_on_c, 0, 62, 0
2, 3491, Note_on_c, 0, 67, 0
2, 3499, Note_on_c, 0, 63, 0
2, 3519, Note_on_c, 0, 58, 0
2, 3556, Note_on_c, 0, 67, 68
2, 3557, Note_on_c, 0, 74, 87
2, 3558, Note_on_c, 0, 63, 39
2, 3558, Note_on_c, 0, 81, 71
2, 3559, Note_on_c, 0, 57, 36
2, 3570, Control_c, 0, 64, 0
2, 3594, Note_on_c, 0, 74, 0
2, 3600, Note_on_c, 0, 81, 0
2, 3603, Note_on_c, 0, 67, 0
2, 3610, Note_on_c, 0, 74, 41
2, 3611, Note_on_c, 0, 78, 35
2, 3614, Note_on_c, 0, 69, 35
2, 3616, Control_c, 0, 64, 127
2, 3659, Note_on_c, 0, 63, 0
2, 3666, Note_on_c, 0, 57, 0
2, 3678, Note_on_c, 0, 74, 0
2, 3679, Note_on_c, 0, 57, 41
2, 3679, Note_on_c, 0, 63, 34
2, 3683, Note_on_c, 0, 78, 0
2, 3689, Note_on_c, 0, 63, 0
2, 3693, Note_on_c, 0, 69, 0
2, 3695, Note_on_c, 0, 57, 0
2, 3792, Note_on_c, 0, 53, 55
2, 3807, Note_on_c, 0, 53, 0
2, 3827, Control_c, 0, 64, 0
2, 3834, Note_on_c, 0, 46, 46
2, 3920, Note_on_c, 0, 53, 56
2, 3931, Note_on_c, 0, 53, 0
2, 4024, Note_on_c, 0, 46, 0
2, 4032, Note_on_c, 0, 46, 33
2, 4033, Note_on_c, 0, 53, 55
2, 4053, Note_on_c, 0, 53, 0
2, 4075, Note_on_c, 0, 65, 62
2, 4075, Note_on_c, 0, 57, 59
2, 4075, Note_on_c, 0, 62, 64
2, 4076, Note_on_c, 0, 53, 51
2, 4082, Note_on_c, 0, 57, 0
2, 4084, Note_on_c, 0, 62, 0
2, 4086, Note_on_c, 0, 65, 0
2, 4091, Note_on_c, 0, 53, 0
2, 4151, Note_on_c, 0, 53, 47
2, 4154, Note_on_c, 0, 65, 49
2, 4155, Note_on_c, 0, 57, 28
2, 4162, Note_on_c, 0, 57, 0
2, 4162, Note_on_c, 0, 65, 0
2, 4168, Control_c, 0, 64, 127
2, 4180, Control_c, 0, 64, 0
2, 4183, Note_on_c, 0, 53, 0
2, 4194, Note_on_c, 0, 67, 68
2, 4196, Note_on_c, 0, 64, 53
2, 4197, Note_on_c, 0, 55, 57
2, 4198, Note_on_c, 0, 62, 55
2, 4202, Note_on_c, 0, 53, 14
2, 4208, Note_on_c, 0, 55, 0
2, 4230, Note_on_c, 0, 53, 0
2, 4241, Note_on_c, 0, 64, 0
2, 4242, Note_on_c, 0, 62, 0
2, 4248, Note_on_c, 0, 46, 0
2, 4253, Note_on_c, 0, 67, 0
2, 4276, Control_c, 0, 64, 127
2, 4290, Control_c, 0, 64, 0
2, 4307, Note_on_c, 0, 46, 55
2, 4311, Note_on_c, 0, 61, 60
2, 4311, Note_on_c, 0, 67, 66
2, 4313, Note_on_c, 0, 58, 52
2, 4313, Note_on_c, 0, 64, 60
2, 4369, Control_c, 0, 64, 127
2, 4396, Note_on_c, 0, 58, 0
2, 4399, Note_on_c, 0, 67, 0
2, 4402, Note_on_c, 0, 64, 0
2, 4417, Note_on_c, 0, 61, 0
2, 4419, Control_c, 0, 64, 0
2, 4437, Note_on_c, 0, 65, 41
2, 4437, Note_on_c, 0, 62, 50
2, 4440, Note_on_c, 0, 69, 41
2, 4461, Note_on_c, 0, 60, 1
2, 4469, Control_c, 0, 64, 127
2, 4484, Note_on_c, 0, 65, 0
2, 4486, Note_on_c, 0, 60, 0
2, 4487, Note_on_c, 0, 62, 0
2, 4490, Note_on_c, 0, 69, 0
2, 4520, Note_on_c, 0, 53, 47
2, 4520, Note_on_c, 0, 62, 60
2, 4521, Note_on_c, 0, 69, 55
2, 4522, Note_on_c, 0, 60, 58
2, 4523, Note_on_c, 0, 65, 49
2, 4529, Control_c, 0, 64, 0
2, 4563, Control_c, 0, 64, 127
2, 4573, Note_on_c, 0, 69, 0
2, 4599, Note_on_c, 0, 62, 0
2, 4600, Note_on_c, 0, 60, 0
2, 4615, Note_on_c, 0, 53, 0
2, 4616, Note_on_c, 0, 65, 0
2, 4635, Note_on_c, 0, 68, 58
2, 4637, Note_on_c, 0, 62, 62
2, 4639, Note_on_c, 0, 65, 39
2, 4641, Note_on_c, 0, 60, 54
2, 4656, Note_on_c, 0, 60, 0
2, 4661, Note_on_c, 0, 68, 0
2, 4663, Note_on_c, 0, 46, 0
2, 4663, Note_on_c, 0, 65, 0
2, 4668, Note_on_c, 0, 55, 41
2, 4683, Note_on_c, 0, 67, 49
2, 4684, Note_on_c, 0, 60, 50
2, 4686, Note_on_c, 0, 55, 0
2, 4686, Note_on_c, 0, 46, 25
2, 4699, Note_on_c, 0, 46, 0
2, 4699, Note_on_c, 0, 60, 0
2, 4702, Note_on_c, 0, 62, 0
2, 4728, Note_on_c, 0, 67, 0
2, 4745, Control_c, 0, 64, 0
2, 4759, Note_on_c, 0, 61, 58
2, 4759, Note_on_c, 0, 46, 52
2, 4759, Note_on_c, 0, 39, 56
2, 4760, Note_on_c, 0, 65, 58
2, 4761, Note_on_c, 0, 55, 55
2, 4776, Control_c, 0, 64, 127
2, 4791, Note_on_c, 0, 55, 0
2, 4812, Note_on_c, 0, 61, 0
2, 4815, Note_on_c, 0, 39, 0
2, 4818, Note_on_c, 0, 65, 0
2, 4821, Note_on_c, 0, 46, 0
2, 4881, Note_on_c, 0, 77, 91
2, 4943, Note_on_c, 0, 77, 0
2, 4994, Note_on_c, 0, 61, 60
2, 4994, Note_on_c, 0, 65, 69
2, 4995, Note_on_c, 0, 77, 77
2, 4995, Note_on_c, 0, 72, 81
2, 4996, Note_on_c, 0, 55, 72
2, 5002, Control_c, 0, 64, 0
2, 5026, Control_c, 0, 64, 127
2, 5123, Note_on_c, 0, 72, 0
2, 5128, Note_on_c, 0, 77, 0
2, 5135, Note_on_c, 0, 65, 0
2, 5146, Note_on_c, 0, 55, 0
2, 5148, Note_on_c, 0, 61, 0
2, 5158, Note_on_c, 0, 79, 65
2, 5162, Note_on_c, 0, 72, 46
2, 5164, Note_on_c, 0, 67, 59
2, 5219, Note_on_c, 0, 67, 0
2, 5220, Note_on_c, 0, 72, 0
2, 5226, Note_on_c, 0, 79, 0
2, 5231, Note_on_c, 0, 46, 72
2, 5231, Note_on_c, 0, 39, 75
2, 5247, Control_c, 0, 64, 0
2, 5271, Control_c, 0, 64, 127
2, 5278, Note_on_c, 0, 72, 54
2, 5278, Note_on_c, 0, 79, 68
2, 5280, Note_on_c, 0, 67, 68
2, 5293, Note_on_c, 0, 39, 0
2, 5302, Note_on_c, 0, 46, 0
2, 5337, Note_on_c, 0, 67, 0
2, 5342, Note_on_c, 0, 79, 0
2, 5350, Note_on_c, 0, 72, 0
2, 5396, Note_on_c, 0, 80, 67
2, 5398, Note_on_c, 0, 72, 63
2, 5399, Note_on_c, 0, 68, 60
2, 5440, Note_on_c, 0, 72, 0
2, 5441, Note_on_c, 0, 68, 0
2, 5447, Note_on_c, 0, 80, 0
2, 5475, Note_on_c, 0, 80, 70
2, 5476, Note_on_c, 0, 68, 71
2, 5477, Note_on_c, 0, 72, 59
2, 5478, Control_c, 0, 64, 0
2, 5479, Note_on_c, 0, 61, 69
2, 5479, Note_on_c, 0, 65, 73
2, 5480, Note_on_c, 0, 75, 53
2, 5480, Note_on_c, 0, 55, 75
2, 5486, Note_on_c, 0, 65, 0
2, 5487, Note_on_c, 0, 55, 0
2, 5494, Note_on_c, 0, 61, 0
2, 5512, Control_c, 0, 64, 127
2, 5533, Note_on_c, 0, 72, 0
2, 5537, Note_on_c, 0, 68, 0
2, 5542, Note_on_c, 0, 80, 0
2, 5551, Note_on_c, 0, 79, 58
2, 5553, Note_on_c, 0, 72, 42
2, 5553, Note_on_c, 0, 67, 68
2, 5557, Note_on_c, 0, 77, 43
2, 5588, Note_on_c, 0, 79, 0
2, 5593, Note_on_c, 0, 67, 0
2, 5598, Note_on_c, 0, 72, 0
2, 5605, Note_on_c, 0, 77, 0
2, 5610, Note_on_c, 0, 75, 0
2, 5628, Note_on_c, 0, 78, 59
2, 5631, Note_on_c, 0, 66, 64
2, 5632, Note_on_c, 0, 72, 48
2, 5665, Note_on_c, 0, 72, 0
2, 5676, Note_on_c, 0, 78, 0
2, 5679, Note_on_c, 0, 66, 0
2, 5713, Note_on_c, 0, 72, 64
2, 5713, Note_on_c, 0, 77, 73
2, 5714, Note_on_c, 0, 44, 73
2, 5714, Note_on_c, 0, 51, 68
2, 5715, Note_on_c, 0, 65, 71
2, 5718, Control_c, 0, 64, 0
2, 5742, Control_c, 0, 64, 127
2, 5753, Note_on_c, 0, 77, 0
2, 5756, Note_on_c, 0, 72, 0
2, 5770, Note_on_c, 0, 65, 0
2, 5874, Note_on_c, 0, 51, 0
2, 5875, Note_on_c, 0, 58, 35
2, 5875, Note_on_c, 0, 65, 46
2, 5876, Note_on_c, 0, 53, 50
2, 5876, Note_on_c, 0, 60, 55
2, 5877, Note_on_c, 0, 63, 35
2, 5879, Control_c, 0, 64, 0
2, 5942, Note_on_c, 0, 60, 0
2, 5942, Note_on_c, 0, 65, 0
2, 5950, Note_on_c, 0, 58, 0
2, 5951, Note_on_c, 0, 53, 0
2, 5953, Note_on_c, 0, 63, 0
2, 5960, Note_on_c, 0, 51, 44
2, 5996, Note_on_c, 0, 65, 55
2, 5996, Note_on_c, 0, 58, 46
2, 5997, Note_on_c, 0, 53, 55
2, 5999, Note_on_c, 0, 60, 55
2, 6003, Note_on_c, 0, 63, 33
2, 6007, Control_c, 0, 64, 127
2, 6010, Note_on_c, 0, 51, 0
2, 6025, Note_on_c, 0, 65, 0
2, 6046, Note_on_c, 0, 44, 0
2, 6054, Note_on_c, 0, 63, 0
2, 6055, Note_on_c, 0, 58, 0
2, 6078, Note_on_c, 0, 44, 56
2, 6081, Note_on_c, 0, 67, 68
2, 6087, Control_c, 0, 64, 0
2, 6095, Note_on_c, 0, 53, 0
2, 6096, Note_on_c, 0, 67, 0
2, 6101, Note_on_c, 0, 60, 0
2, 6104, Note_on_c, 0, 44, 0
2, 6166, Control_c, 0, 64, 127
2, 6180, Control_c, 0, 64, 0
2, 6193, Note_on_c, 0, 67, 61
2, 6195, Note_on_c, 0, 43, 50
2, 6195, Note_on_c, 0, 60, 64
2, 6195, Note_on_c, 0, 53, 47
2, 6196, Note_on_c, 0, 57, 57
2, 6197, Note_on_c, 0, 65, 43
2, 6214, Control_c, 0, 64, 127
2, 6264, Note_on_c, 0, 43, 0
2, 6286, Note_on_c, 0, 67, 0
2, 6292, Note_on_c, 0, 65, 0
2, 6295, Note_on_c, 0, 60, 0
2, 6324, Note_on_c, 0, 57, 0
2, 6325, Note_on_c, 0, 53, 0
2, 6329, Note_on_c, 0, 51, 46
2, 6329, Note_on_c, 0, 50, 50
2, 6346, Note_on_c, 0, 50, 0
2, 6347, Note_on_c, 0, 51, 0
2, 6348, Control_c, 0, 64, 0
2, 6348, Note_on_c, 0, 52, 74
2, 6354, Note_on_c, 0, 53, 79
2, 6354, Note_on_c, 0, 68, 67
2, 6354, Note_on_c, 0, 59, 72
2, 6355, Note_on_c, 0, 65, 71
2, 6355, Note_on_c, 0, 62, 71
2, 6364, Note_on_c, 0, 52, 0
2, 6406, Note_on_c, 0, 50, 18
2, 6407, Note_on_c, 0, 68, 0
2, 6408, Note_on_c, 0, 59, 0
2, 6409, Note_on_c, 0, 65, 0
2, 6410, Note_on_c, 0, 62, 0
2, 6415, Note_on_c, 0, 53, 0
2, 6417, Note_on_c, 0, 51, 55
2, 6427, Note_on_c, 0, 50, 0
2, 6429, Note_on_c, 0, 52, 62
2, 6432, Note_on_c, 0, 51, 0
2, 6433, Note_on_c, 0, 68, 56
2, 6436, Note_on_c, 0, 65, 62
2, 6436, Note_on_c, 0, 62, 62
2, 6436, Note_on_c, 0, 59, 58
2, 6438, Note_on_c, 0, 53, 62
2, 6451, Note_on_c, 0, 52, 0
2, 6474, Control_c, 0, 64, 127
2, 6518, Note_on_c, 0, 59, 0
2, 6522, Note_on_c, 0, 62, 0
2, 6525, Note_on_c, 0, 65, 0
2, 6527, Note_on_c, 0, 68, 0
2, 6540, Note_on_c, 0, 53, 0
2, 6547, Note_on_c, 0, 52, 55
2, 6548, Note_on_c, 0, 59, 60
2, 6549, Note_on_c, 0, 67, 63
2, 6550, Note_on_c, 0, 62, 49
2, 6557, Note_on_c, 0, 52, 0
2, 6567, Control_c, 0, 64, 0
2, 6568, Note_on_c, 0, 59, 0
2, 6569, Control_c, 0, 64, 127
2, 6575, Note_on_c, 0, 62, 0
2, 6581, Note_on_c, 0, 67, 0
2, 6594, Note_on_c, 0, 65, 54
2, 6596, Note_on_c, 0, 59, 36
2, 6622, Note_on_c, 0, 65, 0
2, 6652, Note_on_c, 0, 59, 0
2, 6664, Note_on_c, 0, 43, 50
2, 6671, Note_on_c, 0, 43, 0
2, 6699, Control_c, 0, 64, 0
2, 6707, Note_on_c, 0, 64, 55
2, 6710, Note_on_c, 0, 36, 43
2, 6737, Control_c, 0, 64, 127
2, 6781, Note_on_c, 0, 24, 62
2, 6785, Note_on_c, 0, 36, 0
2, 6788, Note_on_c, 0, 64, 0
2, 6798, Note_on_c, 0, 24, 0
2, 6944, Control_c, 0, 64, 0
2, 6951, Note_on_c, 0, 63, 39
2, 6952, Note_on_c, 0, 67, 50
2, 6954, Note_on_c, 0, 59, 44
2, 6956, Note_on_c, 0, 56, 36
2, 6959, Note_on_c, 0, 49, 33
2, 6962, Control_c, 0, 64, 127
2, 6996, Note_on_c, 0, 59, 0
2, 7011, Note_on_c, 0, 67, 0
2, 7028, Note_on_c, 0, 70, 64
2, 7031, Note_on_c, 0, 63, 0
2, 7042, Note_on_c, 0, 70, 0
2, 7052, Note_on_c, 0, 49, 0
2, 7058, Note_on_c, 0, 56, 0
2, 7072, Note_on_c, 0, 80, 36
2, 7125, Note_on_c, 0, 80, 0
2, 7150, Note_on_c, 0, 85, 26
2, 7151, Note_on_c, 0, 86, 68
2, 7157, Note_on_c, 0, 86, 0
2, 7171, Note_on_c, 0, 85, 0
2, 7196, Control_c, 0, 64, 0
2, 7205, Note_on_c, 0, 60, 37
2, 7207, Note_on_c, 0, 84, 47
2, 7208, Note_on_c, 0, 72, 37
2, 7209, Note_on_c, 0, 52, 31
2, 7210, Note_on_c, 0, 58, 35
2, 7211, Note_on_c, 0, 83, 34
2, 7219, Note_on_c, 0, 83, 0
2, 7223, Note_on_c, 0, 72, 0
2, 7225, Note_on_c, 0, 84, 0
2, 7226, Note_on_c, 0, 60, 0
2, 7227, Note_on_c, 0, 58, 0
2, 7228, Note_on_c, 0, 52, 0
2, 7284, Note_on_c, 0, 84, 51
2, 7285, Note_on_c, 0, 72, 36
2, 7285, Note_on_c, 0, 60, 36
2, 7285, Note_on_c, 0, 52, 36
2, 7287, Note_on_c, 0, 58, 32
2, 7293, Control_c, 0, 64, 127
2, 7312, Note_on_c, 0, 84, 0
2, 7325, Note_on_c, 0, 72, 0
2, 7363, Note_on_c, 0, 58, 0
2, 7371, Note_on_c, 0, 60, 0
2, 7427, Control_c, 0, 64, 0
2, 7433, Note_on_c, 0, 60, 108
2, 7483, Note_on_c, 0, 60, 0
2, 7497, Note_on_c, 0, 62, 66
2, 7514, Note_on_c, 0, 60, 61
2, 7522, Note_on_c, 0, 62, 0
2, 7537, Note_on_c, 0, 52, 0
2, 7543, Note_on_c, 0, 60, 0
2, 7552, Note_on_c, 0, 59, 37
2, 7605, Control_c, 0, 64, 127
2, 7633, Note_on_c, 0, 60, 46
2, 7634, Note_on_c, 0, 59, 0
2, 7645, Note_on_c, 0, 60, 0
2, 7660, Control_c, 0, 64, 0
2, 7674, Note_on_c, 0, 72, 53
2, 7696, Control_c, 0, 64, 127
2, 7752, Note_on_c, 0, 48, 46
2, 7770, Note_on_c, 0, 48, 0
2, 7800, Note_on_c, 0, 48, 40
2, 7830, Note_on_c, 0, 72, 0
2, 7875, Note_on_c, 0, 67, 43
2, 7879, Note_on_c, 0, 64, 47
2, 7879, Note_on_c, 0, 60, 33
2, 7879, Note_on_c, 0, 57, 44
2, 7880, Control_c, 0, 64, 0
2, 7912, Control_c, 0, 64, 127
2, 7945, Note_on_c, 0, 48, 0
2, 7976, Note_on_c, 0, 60, 0
2, 7990, Note_on_c, 0, 48, 60
2, 7994, Note_on_c, 0, 64, 0
2, 8002, Note_on_c, 0, 67, 0
2, 8013, Note_on_c, 0, 48, 0
2, 8039, Note_on_c, 0, 48, 35
2, 8043, Note_on_c, 0, 57, 0
2, 8114, Note_on_c, 0, 57, 60
2, 8114, Note_on_c, 0, 84, 81
2, 8115, Note_on_c, 0, 76, 75
2, 8146, Note_on_c, 0, 84, 0
2, 8157, Note_on_c, 0, 76, 0
2, 8172, Note_on_c, 0, 48, 0
2, 8234, Note_on_c, 0, 48, 53
2, 8234, Note_on_c, 0, 79, 54
2, 8236, Note_on_c, 0, 67, 48
2, 8236, Note_on_c, 0, 76, 42
2, 8239, Note_on_c, 0, 72, 29
2, 8266, Note_on_c, 0, 79, 0
2, 8269, Note_on_c, 0, 76, 0
2, 8275, Note_on_c, 0, 72, 0
2, 8282, Note_on_c, 0, 67, 0
2, 8307, Note_on_c, 0, 48, 0
2, 8359, Note_on_c, 0, 48, 55
2, 8372, Note_on_c, 0, 57, 0
2, 8399, Note_on_c, 0, 60, 105
2, 8399, Note_on_c, 0, 57, 61
2, 8400, Control_c, 0, 64, 0
2, 8457, Note_on_c, 0, 60, 0
2, 8460, Note_on_c, 0, 48, 0
2, 8468, Note_on_c, 0, 62, 68
2, 8488, Note_on_c, 0, 60, 60
2, 8498, Note_on_c, 0, 62, 0
2, 8511, Note_on_c, 0, 48, 49
2, 8512, Control_c, 0, 64, 127
2, 8518, Note_on_c, 0, 57, 0
2, 8521, Note_on_c, 0, 60, 0
2, 8522, Note_on_c, 0, 59, 37
2, 8553, Note_on_c, 0, 48, 0
2, 8583, Note_on_c, 0, 59, 0
2, 8584, Note_on_c, 0, 60, 75
2, 8589, Note_on_c, 0, 48, 63
2, 8594, Note_on_c, 0, 60, 0
2, 8615, Note_on_c, 0, 48, 0
2, 8645, Control_c, 0, 64, 0
2, 8645, Note_on_c, 0, 72, 76
2, 8646, Note_on_c, 0, 60, 82
2, 8647, Note_on_c, 0, 65, 82
2, 8647, Note_on_c, 0, 61, 88
2, 8649, Note_on_c, 0, 67, 71
2, 8657, Note_on_c, 0, 70, 26
2, 8703, Note_on_c, 0, 60, 0
2, 8715, Control_c, 0, 64, 127
2, 8725, Note_on_c, 0, 60, 62
2, 8794, Note_on_c, 0, 67, 0
2, 8801, Note_on_c, 0, 65, 0
2, 8826, Note_on_c, 0, 61, 0
2, 8835, Note_on_c, 0, 48, 62
2, 8851, Control_c, 0, 64, 0
2, 8866, Note_on_c, 0, 60, 0
2, 8879, Control_c, 0, 64, 127
2, 8905, Note_on_c, 0, 61, 42
2, 8907, Note_on_c, 0, 65, 49
2, 8908, Note_on_c, 0, 67, 44
2, 8909, Note_on_c, 0, 60, 53
2, 8940, Note_on_c, 0, 60, 0
2, 8965, Note_on_c, 0, 65, 0
2, 8969, Note_on_c, 0, 67, 0
2, 8972, Note_on_c, 0, 61, 0
2, 8983, Control_c, 0, 64, 0
2, 8992, Note_on_c, 0, 61, 50
2, 8995, Note_on_c, 0, 65, 58
2, 8995, Note_on_c, 0, 67, 47
2, 8996, Note_on_c, 0, 72, 0
2, 8997, Note_on_c, 0, 60, 59
2, 9006, Note_on_c, 0, 70, 0
2, 9013, Control_c, 0, 64, 127
2, 9030, Note_on_c, 0, 48, 0
2, 9075, Note_on_c, 0, 48, 63
2, 9082, Control_c, 0, 64, 0
2, 9112, Control_c, 0, 64, 127
2, 9139, Note_on_c, 0, 60, 0
2, 9197, Note_on_c, 0, 60, 95
2, 9254, Note_on_c, 0, 48, 0
2, 9286, Note_on_c, 0, 65, 0
2, 9290, Note_on_c, 0, 67, 0
2, 9308, Note_on_c, 0, 61, 0
2, 9313, Note_on_c, 0, 60, 0
2, 9318, Note_on_c, 0, 48, 52
2, 9356, Control_c, 0, 64, 0
2, 9358, Note_on_c, 0, 60, 94
2, 9410, Note_on_c, 0, 60, 0
2, 9415, Note_on_c, 0, 61, 49
2, 9432, Note_on_c, 0, 60, 65
2, 9449, Note_on_c, 0, 61, 0
2, 9453, Control_c, 0, 64, 127
2, 9465, Note_on_c, 0, 60, 0
2, 9466, Note_on_c, 0, 59, 64
2, 9503, Control_c, 0, 64, 0
2, 9505, Note_on_c, 0, 48, 0
2, 9517, Control_c, 0, 64, 127
2, 9546, Note_on_c, 0, 48, 64
2, 9547, Note_on_c, 0, 60, 77
2, 9565, Note_on_c, 0, 59, 0
2, 9575, Note_on_c, 0, 60, 0
2, 9588, Note_on_c, 0, 48, 0
2, 9593, Control_c, 0, 64, 0
2, 9610, Note_on_c, 0, 72, 70
2, 9611, Note_on_c, 0, 64, 77
2, 9611, Note_on_c, 0, 48, 56
2, 9613, Note_on_c, 0, 67, 64
2, 9649, Note_on_c, 0, 48, 0
2, 9659, Control_c, 0, 64, 127
2, 9686, Note_on_c, 0, 48, 68
2, 9708, Note_on_c, 0, 67, 0
2, 9708, Note_on_c, 0, 72, 0
2, 9717, Note_on_c, 0, 64, 0
2, 9797, Note_on_c, 0, 67, 64
2, 9799, Note_on_c, 0, 64, 62
2, 9800, Control_c, 0, 64, 0
2, 9800, Note_on_c, 0, 60, 56
2, 9801, Note_on_c, 0, 57, 59
2, 9838, Control_c, 0, 64, 127
2, 9844, Note_on_c, 0, 48, 0
2, 9911, Note_on_c, 0, 48, 82
2, 9914, Note_on_c, 0, 60, 0
2, 9932, Note_on_c, 0, 57, 0
2, 9946, Note_on_c, 0, 64, 0
2, 9947, Note_on_c, 0, 67, 0
2, 10047, Note_on_c, 0, 56, 42
2, 10051, Note_on_c, 0, 48, 0
2, 10070, Control_c, 0, 64, 0
2, 10076, Note_on_c, 0, 57, 83
2, 10077, Note_on_c, 0, 72, 79
2, 10078, Note_on_c, 0, 67, 94
2, 10078, Note_on_c, 0, 62, 94
2, 10082, Note_on_c, 0, 56, 0
2, 10107, Note_on_c, 0, 57, 0
2, 10114, Note_on_c, 0, 72, 0
2, 10115, Note_on_c, 0, 67, 0
2, 10122, Note_on_c, 0, 62, 0
2, 10195, Note_on_c, 0, 67, 64
2, 10196, Note_on_c, 0, 62, 71
2, 10197, Note_on_c, 0, 55, 66
2, 10200, Note_on_c, 0, 57, 55
2, 10242, Note_on_c, 0, 62, 0
2, 10246, Note_on_c, 0, 67, 0
2, 10246, Note_on_c, 0, 57, 0
2, 10252, Note_on_c, 0, 55, 0
2, 10307, Control_c, 0, 64, 127
2, 10317, Note_on_c, 0, 57, 43
2, 10318, Note_on_c, 0, 65, 51
2, 10321, Note_on_c, 0, 60, 48
2, 10322, Note_on_c, 0, 53, 56
2, 10332, Note_on_c, 0, 60, 0
2, 10334, Note_on_c, 0, 57, 0
2, 10335, Note_on_c, 0, 65, 0
2, 10385, Note_on_c, 0, 53, 0
2, 10396, Note_on_c, 0, 69, 57
2, 10397, Note_on_c, 0, 57, 49
2, 10398, Note_on_c, 0, 62, 50
2, 10398, Note_on_c, 0, 59, 44
2, 10406, Note_on_c, 0, 59, 0
2, 10407, Note_on_c, 0, 62, 0
2, 10413, Note_on_c, 0, 69, 0
2, 10422, Note_on_c, 0, 57, 0
2, 10438, Note_on_c, 0, 60, 57
2, 10439, Note_on_c, 0, 72, 60
2, 10458, Note_on_c, 0, 72, 0
2, 10476, Note_on_c, 0, 60, 0
2, 10516, Note_on_c, 0, 76, 82
2, 10517, Note_on_c, 0, 65, 87
2, 10517, Note_on_c, 0, 71, 76
2, 10517, Note_on_c, 0, 69, 83
2, 10519, Note_on_c, 0, 64, 85
2, 10526, Control_c, 0, 64, 0
2, 10604, Control_c, 0, 64, 127
2, 10649, Note_on_c, 0, 65, 0
2, 10658, Note_on_c, 0, 69, 0
2, 10665, Note_on_c, 0, 76, 0
2, 10667, Note_on_c, 0, 71, 0
2, 10672, Note_on_c, 0, 64, 0
2, 10675, Note_on_c, 0, 65, 44
2, 10677, Note_on_c, 0, 62, 51
2, 10678, Note_on_c, 0, 74, 43
2, 10680, Note_on_c, 0, 69, 24
2, 10685, Note_on_c, 0, 65, 0
2, 10688, Note_on_c, 0, 69, 0
2, 10697, Note_on_c, 0, 74, 0
2, 10720, Note_on_c, 0, 62, 0
2, 10758, Note_on_c, 0, 79, 77
2, 10758, Note_on_c, 0, 72, 73
2, 10760, Note_on_c, 0, 67, 88
2, 10760, Note_on_c, 0, 68, 69
2, 10762, Note_on_c, 0, 74, 56
2, 10764, Control_c, 0, 64, 0
2, 10805, Control_c, 0, 64, 127
2, 10814, Note_on_c, 0, 79, 0
2, 10833, Note_on_c, 0, 72, 0
2, 10837, Note_on_c, 0, 67, 0
2, 10839, Note_on_c, 0, 74, 0
2, 10847, Note_on_c, 0, 68, 0
2, 10873, Note_on_c, 0, 77, 67
2, 10873, Note_on_c, 0, 68, 67
2, 10874, Note_on_c, 0, 65, 68
2, 10875, Note_on_c, 0, 72, 58
2, 10879, Control_c, 0, 64, 0
2, 10880, Note_on_c, 0, 74, 42
2, 10895, Control_c, 0, 64, 127
2, 10907, Note_on_c, 0, 74, 0
2, 10917, Note_on_c, 0, 72, 0
2, 10918, Note_on_c, 0, 65, 0
2, 10918, Note_on_c, 0, 77, 0
2, 10924, Note_on_c, 0, 68, 0
2, 10991, Note_on_c, 0, 76, 55
2, 10991, Note_on_c, 0, 71, 59
2, 10991, Note_on_c, 0, 64, 51
2, 10992, Note_on_c, 0, 65, 65
2, 10992, Note_on_c, 0, 68, 55
2, 11027, Note_on_c, 0, 64, 0
2, 11031, Note_on_c, 0, 76, 0
2, 11042, Note_on_c, 0, 68, 0
2, 11042, Note_on_c, 0, 65, 0
2, 11045, Note_on_c, 0, 71, 0
2, 11107, Note_on_c, 0, 62, 61
2, 11108, Note_on_c, 0, 71, 44
2, 11108, Note_on_c, 0, 68, 48
2, 11109, Note_on_c, 0, 65, 57
2, 11109, Note_on_c, 0, 74, 45
2, 11111, Note_on_c, 0, 56, 39
2, 11161, Note_on_c, 0, 62, 0
2, 11172, Note_on_c, 0, 56, 0
2, 11176, Note_on_c, 0, 71, 0
2, 11183, Note_on_c, 0, 74, 0
2, 11185, Note_on_c, 0, 68, 0
2, 11196, Note_on_c, 0, 65, 0
2, 11273, Note_on_c, 0, 71, 46
2, 11273, Note_on_c, 0, 62, 39
2, 11274, Note_on_c, 0, 68, 35
2, 11276, Note_on_c, 0, 65, 48
2, 11277, Note_on_c, 0, 56, 35
2, 11280, Control_c, 0, 64, 0
2, 11314, Control_c, 0, 64, 127
2, 11373, Note_on_c, 0, 65, 0
2, 11375, Note_on_c, 0, 62, 0
2, 11398, Note_on_c, 0, 46, 39
2, 11418, Note_on_c, 0, 68, 0
2, 11420, Note_on_c, 0, 71, 0
2, 11474, Note_on_c, 0, 56, 0
2, 11474, Note_on_c, 0, 65, 58
2, 11500, Note_on_c, 0, 46, 0
2, 11508, Note_on_c, 0, 65, 0
2, 11517, Control_c, 0, 64, 0
2, 11518, Note_on_c, 0, 52, 38
2, 11520, Note_on_c, 0, 45, 42
2, 11525, Note_on_c, 0, 64, 31
2, 11587, Control_c, 0, 64, 127
2, 11598, Note_on_c, 0, 72, 72
2, 11660, Note_on_c, 0, 45, 0
2, 11709, Note_on_c, 0, 64, 0
2, 11712, Note_on_c, 0, 72, 0
2, 11716, Note_on_c, 0, 52, 0
2, 11721, Note_on_c, 0, 45, 30
2, 11731, Note_on_c, 0, 45, 0
2, 11757, Control_c, 0, 64, 0
2, 11761, Note_on_c, 0, 45, 57
2, 11762, Note_on_c, 0, 52, 49
2, 11766, Note_on_c, 0, 72, 40
2, 11775, Note_on_c, 0, 72, 0
2, 11879, Note_on_c, 0, 71, 64
2, 11881, Note_on_c, 0, 62, 50
2, 11901, Note_on_c, 0, 45, 0
2, 11916, Note_on_c, 0, 62, 0
2, 11921, Note_on_c, 0, 71, 0
2, 11928, Note_on_c, 0, 52, 0
2, 11997, Note_on_c, 0, 71, 66
2, 11998, Note_on_c, 0, 53, 46
2, 11999, Note_on_c, 0, 64, 54
2, 12001, Note_on_c, 0, 45, 34
2, 12002, Note_on_c, 0, 60, 47
2, 12036, Control_c, 0, 64, 127
2, 12091, Note_on_c, 0, 60, 0
2, 12095, Note_on_c, 0, 64, 0
2, 12106, Control_c, 0, 64, 0
2, 12107, Note_on_c, 0, 71, 0
2, 12111, Note_on_c, 0, 53, 0
2, 12117, Note_on_c, 0, 45, 0
2, 12120, Note_on_c, 0, 69, 44
2, 12121, Note_on_c, 0, 64, 32
2, 12136, Note_on_c, 0, 64, 0
2, 12144, Note_on_c, 0, 69, 0
2, 12154, Control_c, 0, 64, 127
2, 12195, Note_on_c, 0, 53, 57
2, 12196, Note_on_c, 0, 45, 46
2, 12197, Note_on_c, 0, 64, 46
2, 12198, Note_on_c, 0, 69, 49
2, 12198, Note_on_c, 0, 60, 44
2, 12207, Control_c, 0, 64, 0
2, 12273, Note_on_c, 0, 64, 0
2, 12290, Note_on_c, 0, 60, 0
2, 12300, Note_on_c, 0, 69, 0
2, 12306, Note_on_c, 0, 66, 32
2, 12317, Note_on_c, 0, 60, 32
2, 12323, Note_on_c, 0, 68, 46
2, 12324, Note_on_c, 0, 66, 0
2, 12337, Control_c, 0, 64, 127
2, 12340, Note_on_c, 0, 68, 0
2, 12353, Note_on_c, 0, 60, 0
2, 12364, Note_on_c, 0, 68, 23
2, 12373, Note_on_c, 0, 68, 0
2, 12376, Note_on_c, 0, 69, 42
2, 12377, Note_on_c, 0, 45, 0
2, 12388, Note_on_c, 0, 53, 0
2, 12390, Note_on_c, 0, 69, 0
2, 12423, Control_c, 0, 64, 0
2, 12425, Control_c, 0, 64, 127
2, 12427, Control_c, 0, 64, 0
2, 12433, Note_on_c, 0, 66, 80
2, 12434, Note_on_c, 0, 72, 71
2, 12435, Note_on_c, 0, 54, 70
2, 12435, Note_on_c, 0, 64, 78
2, 12435, Note_on_c, 0, 45, 71
2, 12478, Note_on_c, 0, 72, 0
2, 12488, Note_on_c, 0, 64, 0
2, 12490, Note_on_c, 0, 66, 0
2, 12505, Note_on_c, 0, 72, 47
2, 12509, Note_on_c, 0, 66, 38
2, 12511, Note_on_c, 0, 64, 19
2, 12535, Note_on_c, 0, 66, 0
2, 12537, Note_on_c, 0, 64, 0
2, 12543, Note_on_c, 0, 72, 0
2, 12546, Control_c, 0, 64, 127
2, 12582, Control_c, 0, 64, 0
2, 12593, Note_on_c, 0, 72, 53
2, 12595, Note_on_c, 0, 66, 52
2, 12597, Note_on_c, 0, 64, 33
2, 12604, Note_on_c, 0, 45, 0
2, 12613, Note_on_c, 0, 64, 0
2, 12618, Note_on_c, 0, 54, 0
2, 12622, Note_on_c, 0, 66, 0
2, 12624, Note_on_c, 0, 72, 0
2, 12634, Control_c, 0, 64, 127
2, 12664, Control_c, 0, 64, 0
2, 12673, Note_on_c, 0, 72, 56
2, 12675, Note_on_c, 0, 66, 57
2, 12675, Note_on_c, 0, 54, 56
2, 12677, Note_on_c, 0, 45, 52
2, 12689, Note_on_c, 0, 66, 0
2, 12690, Note_on_c, 0, 45, 0
2, 12691, Note_on_c, 0, 72, 0
2, 12693, Note_on_c, 0, 54, 0
2, 12793, Note_on_c, 0, 71, 72
2, 12793, Note_on_c, 0, 54, 65
2, 12793, Note_on_c, 0, 66, 71
2, 12795, Note_on_c, 0, 64, 66
2, 12797, Note_on_c, 0, 45, 55
2, 12815, Control_c, 0, 64, 127
2, 12852, Note_on_c, 0, 45, 0
2, 12890, Note_on_c, 0, 64, 0
2, 12904, Note_on_c, 0, 66, 0
2, 12908, Note_on_c, 0, 71, 0
2, 12909, Note_on_c, 0, 45, 36
2, 12933, Note_on_c, 0, 45, 0
2, 12937, Note_on_c, 0, 54, 0
2, 12949, Control_c, 0, 64, 0
2, 12952, Note_on_c, 0, 45, 31
2, 12953, Note_on_c, 0, 71, 66
2, 12954, Note_on_c, 0, 53, 60
2, 12956, Note_on_c, 0, 65, 58
2, 12957, Note_on_c, 0, 60, 53
2, 13037, Control_c, 0, 64, 127
2, 13061, Note_on_c, 0, 60, 0
2, 13067, Note_on_c, 0, 65, 0
2, 13068, Note_on_c, 0, 71, 0
2, 13071, Control_c, 0, 64, 0
2, 13080, Note_on_c, 0, 60, 40
2, 13080, Note_on_c, 0, 69, 54
2, 13082, Note_on_c, 0, 65, 40
2, 13083, Control_c, 0, 64, 127
2, 13093, Note_on_c, 0, 45, 0
2, 13129, Note_on_c, 0, 60, 0
2, 13136, Note_on_c, 0, 69, 0
2, 13141, Note_on_c, 0, 65, 0
2, 13158, Note_on_c, 0, 45, 44
2, 13165, Note_on_c, 0, 53, 0
2, 13176, Note_on_c, 0, 45, 0
2, 13182, Control_c, 0, 64, 0
2, 13197, Note_on_c, 0, 45, 38
2, 13197, Note_on_c, 0, 65, 44
2, 13198, Note_on_c, 0, 52, 47
2, 13198, Note_on_c, 0, 69, 54
2, 13198, Note_on_c, 0, 60, 49
2, 13249, Note_on_c, 0, 69, 0
2, 13251, Note_on_c, 0, 60, 0
2, 13262, Control_c, 0, 64, 127
2, 13263, Note_on_c, 0, 65, 0
2, 13288, Note_on_c, 0, 68, 20
2, 13290, Note_on_c, 0, 52, 0
2, 13301, Note_on_c, 0, 68, 0
2, 13305, Control_c, 0, 64, 0
2, 13317, Note_on_c, 0, 52, 34
2, 13317, Note_on_c, 0, 69, 62
2, 13318, Note_on_c, 0, 60, 53
2, 13319, Note_on_c, 0, 65, 54
2, 13325, Control_c, 0, 64, 127
2, 13342, Note_on_c, 0, 65, 0
2, 13355, Note_on_c, 0, 69, 0
2, 13358, Note_on_c, 0, 60, 0
2, 13365, Note_on_c, 0, 45, 0
2, 13372, Note_on_c, 0, 52, 0
2, 13401, Note_on_c, 0, 70, 64
2, 13402, Note_on_c, 0, 58, 67
2, 13402, Note_on_c, 0, 65, 59
2, 13404, Note_on_c, 0, 53, 68
2, 13404, Note_on_c, 0, 62, 62
2, 13404, Note_on_c, 0, 43, 64
2, 13409, Control_c, 0, 64, 0
2, 13423, Control_c, 0, 64, 127
2, 13486, Note_on_c, 0, 53, 0
2, 13495, Note_on_c, 0, 43, 0
2, 13525, Note_on_c, 0, 46, 65
2, 13543, Note_on_c, 0, 46, 0
2, 13568, Note_on_c, 0, 49, 86
2, 13571, Control_c, 0, 64, 0
2, 13609, Control_c, 0, 64, 127
2, 13622, Control_c, 0, 64, 0
2, 13631, Note_on_c, 0, 49, 0
2, 13643, Note_on_c, 0, 50, 94
2, 13680, Control_c, 0, 64, 127
2, 13752, Note_on_c, 0, 65, 0
2, 13762, Note_on_c, 0, 70, 0
2, 13763, Note_on_c, 0, 58, 0
2, 13763, Note_on_c, 0, 62, 0
2, 13798, Note_on_c, 0, 57, 54
2, 13798, Note_on_c, 0, 69, 67
2, 13801, Note_on_c, 0, 58, 46
2, 13803, Note_on_c, 0, 62, 53
2, 13804, Control_c, 0, 64, 0
2, 13806, Note_on_c, 0, 57, 0
2, 13807, Note_on_c, 0, 65, 36
2, 13812, Control_c, 0, 64, 127
2, 13823, Note_on_c, 0, 50, 0
2, 13834, Note_on_c, 0, 62, 0
2, 13835, Note_on_c, 0, 65, 0
2, 13836, Note_on_c, 0, 58, 0
2, 13847, Note_on_c, 0, 69, 0
2, 13883, Note_on_c, 0, 69, 64
2, 13885, Note_on_c, 0, 61, 57
2, 13888, Note_on_c, 0, 65, 56
2, 13890, Note_on_c, 0, 66, 30
2, 13890, Note_on_c, 0, 55, 49
2, 13891, Note_on_c, 0, 57, 43
2, 13891, Control_c, 0, 64, 0
2, 13891, Note_on_c, 0, 67, 29
2, 13892, Note_on_c, 0, 46, 60
2, 13898, Note_on_c, 0, 67, 0
2, 13904, Note_on_c, 0, 46, 0
2, 13995, Note_on_c, 0, 43, 76
2, 14017, Note_on_c, 0, 55, 0
2, 14017, Note_on_c, 0, 57, 0
2, 14035, Note_on_c, 0, 61, 0
2, 14042, Note_on_c, 0, 66, 0
2, 14051, Control_c, 0, 64, 127
2, 14082, Note_on_c, 0, 69, 0
2, 14099, Note_on_c, 0, 65, 0
2, 14112, Note_on_c, 0, 51, 67
2, 14113, Note_on_c, 0, 67, 75
2, 14113, Control_c, 0, 64, 0
2, 14114, Note_on_c, 0, 63, 71
2, 14114, Note_on_c, 0, 58, 74
2, 14151, Note_on_c, 0, 58, 0
2, 14155, Note_on_c, 0, 67, 0
2, 14157, Note_on_c, 0, 51, 0
2, 14168, Note_on_c, 0, 51, 43
2, 14170, Note_on_c, 0, 58, 58
2, 14171, Note_on_c, 0, 67, 68
2, 14200, Control_c, 0, 64, 127
2, 14221, Note_on_c, 0, 58, 0
2, 14230, Note_on_c, 0, 67, 0
2, 14239, Note_on_c, 0, 65, 48
2, 14256, Note_on_c, 0, 63, 0
2, 14266, Note_on_c, 0, 65, 0
2, 14278, Note_on_c, 0, 58, 49
2, 14279, Note_on_c, 0, 63, 49
2, 14279, Note_on_c, 0, 67, 60
2, 14299, Note_on_c, 0, 43, 0
2, 14345, Note_on_c, 0, 58, 0
2, 14351, Note_on_c, 0, 67, 0
2, 14353, Note_on_c, 0, 43, 43
2, 14355, Note_on_c, 0, 63, 0
2, 14361, Note_on_c, 0, 43, 0
2, 14371, Note_on_c, 0, 51, 0
2, 14392, Control_c, 0, 64, 0
2, 14397, Note_on_c, 0, 70, 69
2, 14397, Note_on_c, 0, 49, 69
2, 14397, Note_on_c, 0, 63, 67
2, 14398, Note_on_c, 0, 67, 68
2, 14399, Note_on_c, 0, 59, 65
2, 14422, Control_c, 0, 64, 127
2, 14436, Note_on_c, 0, 59, 0
2, 14454, Note_on_c, 0, 67, 0
2, 14456, Note_on_c, 0, 63, 0
2, 14463, Note_on_c, 0, 49, 0
2, 14467, Note_on_c, 0, 70, 0
2, 14596, Note_on_c, 0, 82, 74
2, 14597, Note_on_c, 0, 63, 62
2, 14598, Note_on_c, 0, 59, 58
2, 14598, Note_on_c, 0, 53, 61
2, 14598, Note_on_c, 0, 75, 74
2, 14643, Note_on_c, 0, 63, 0
2, 14648, Note_on_c, 0, 59, 0
2, 14654, Note_on_c, 0, 53, 0
2, 14672, Note_on_c, 0, 75, 0
2, 14675, Note_on_c, 0, 82, 0
2, 14677, Note_on_c, 0, 71, 57
2, 14708, Note_on_c, 0, 71, 0
2, 14715, Note_on_c, 0, 73, 51
2, 14743, Control_c, 0, 64, 0
2, 14753, Note_on_c, 0, 75, 47
2, 14760, Note_on_c, 0, 73, 0
2, 14781, Note_on_c, 0, 75, 0
2, 14793, Note_on_c, 0, 76, 47
2, 14817, Note_on_c, 0, 76, 0
2, 14829, Note_on_c, 0, 78, 64
2, 14852, Note_on_c, 0, 36, 62
2, 14858, Note_on_c, 0, 52, 41
2, 14861, Note_on_c, 0, 78, 0
2, 14879, Note_on_c, 0, 79, 28
2, 14882, Note_on_c, 0, 36, 0
2, 14897, Note_on_c, 0, 79, 0
2, 14905, Note_on_c, 0, 52, 0
2, 14919, Note_on_c, 0, 81, 52
2, 14938, Note_on_c, 0, 81, 0
2, 14954, Note_on_c, 0, 82, 64
2, 14973, Note_on_c, 0, 82, 0
2, 14990, Note_on_c, 0, 84, 67
2, 15005, Note_on_c, 0, 84, 0
2, 15028, Note_on_c, 0, 85, 75
2, 15048, Note_on_c, 0, 85, 0
2, 15067, Note_on_c, 0, 64, 62
2, 15067, Note_on_c, 0, 87, 75
2, 15068, Note_on_c, 0, 58, 54
2, 15078, Note_on_c, 0, 64, 0
2, 15092, Note_on_c, 0, 58, 0
2, 15094, Note_on_c, 0, 87, 0
2, 15113, Note_on_c, 0, 88, 44
2, 15132, Note_on_c, 0, 88, 0
2, 15148, Note_on_c, 0, 90, 52
2, 15170, Note_on_c, 0, 90, 0
2, 15193, Note_on_c, 0, 91, 45
2, 15193, Note_on_c, 0, 93, 64
2, 15203, Note_on_c, 0, 93, 0
2, 15208, Note_on_c, 0, 91, 0
2, 15237, Note_on_c, 0, 93, 77
2, 15239, Note_on_c, 0, 62, 64
2, 15240, Note_on_c, 0, 58, 53
2, 15242, Note_on_c, 0, 52, 51
2, 15253, Note_on_c, 0, 52, 0
2, 15255, Note_on_c, 0, 62, 0
2, 15256, Note_on_c, 0, 93, 0
2, 15259, Control_c, 0, 64, 127
2, 15269, Note_on_c, 0, 58, 0
2, 15274, Note_on_c, 0, 94, 73
2, 15296, Note_on_c, 0, 94, 0
2, 15305, Note_on_c, 0, 96, 62
2, 15324, Note_on_c, 0, 96, 0
2, 15335, Note_on_c, 0, 97, 73
2, 15347, Control_c, 0, 64, 0
2, 15353, Note_on_c, 0, 97, 0
2, 15358, Note_on_c, 0, 62, 36
2, 15359, Note_on_c, 0, 57, 52
2, 15360, Note_on_c, 0, 60, 44
2, 15362, Note_on_c, 0, 53, 36
2, 15366, Note_on_c, 0, 98, 58
2, 15373, Control_c, 0, 64, 127
2, 15386, Note_on_c, 0, 98, 0
2, 15424, Note_on_c, 0, 62, 0
2, 15449, Note_on_c, 0, 60, 0
2, 15456, Note_on_c, 0, 57, 0
2, 15463, Note_on_c, 0, 53, 0
2, 15553, Note_on_c, 0, 41, 45
2, 15553, Note_on_c, 0, 62, 64
2, 15555, Note_on_c, 0, 53, 65
2, 15555, Note_on_c, 0, 50, 61
2, 15556, Note_on_c, 0, 57, 60
2, 15556, Note_on_c, 0, 60, 43
2, 15559, Control_c, 0, 64, 0
2, 15595, Note_on_c, 0, 50, 0
2, 15597, Note_on_c, 0, 62, 0
2, 15600, Note_on_c, 0, 53, 0
2, 15602, Note_on_c, 0, 60, 0
2, 15603, Note_on_c, 0, 57, 0
2, 15614, Note_on_c, 0, 62, 49
2, 15619, Note_on_c, 0, 57, 50
2, 15619, Note_on_c, 0, 53, 59
2, 15620, Note_on_c, 0, 50, 37
2, 15622, Control_c, 0, 64, 127
2, 15633, Note_on_c, 0, 41, 0
2, 15652, Note_on_c, 0, 62, 0
2, 15668, Note_on_c, 0, 57, 0
2, 15672, Note_on_c, 0, 53, 0
2, 15676, Note_on_c, 0, 50, 0
2, 15692, Control_c, 0, 64, 0
2, 15695, Note_on_c, 0, 50, 36
2, 15696, Note_on_c, 0, 57, 66
2, 15697, Note_on_c, 0, 64, 68
2, 15697, Note_on_c, 0, 53, 68
2, 15697, Note_on_c, 0, 60, 61
2, 15699, Note_on_c, 0, 52, 72
2, 15700, Note_on_c, 0, 51, 57
2, 15704, Note_on_c, 0, 50, 0
2, 15710, Note_on_c, 0, 51, 0
2, 15772, Note_on_c, 0, 57, 0
2, 15773, Note_on_c, 0, 53, 0
2, 15774, Note_on_c, 0, 52, 0
2, 15776, Note_on_c, 0, 60, 0
2, 15779, Note_on_c, 0, 48, 19
2, 15782, Note_on_c, 0, 64, 0
2, 15794, Note_on_c, 0, 50, 50
2, 15803, Note_on_c, 0, 48, 0
2, 15808, Note_on_c, 0, 51, 71
2, 15809, Note_on_c, 0, 50, 0
2, 15811, Note_on_c, 0, 64, 54
2, 15813, Note_on_c, 0, 53, 60
2, 15813, Note_on_c, 0, 52, 71
2, 15814, Note_on_c, 0, 57, 59
2, 15814, Note_on_c, 0, 60, 63
2, 15822, Note_on_c, 0, 51, 0
2, 15873, Note_on_c, 0, 60, 0
2, 15875, Note_on_c, 0, 57, 0
2, 15878, Note_on_c, 0, 64, 0
2, 15884, Note_on_c, 0, 53, 0
2, 15890, Control_c, 0, 64, 127
2, 15903, Note_on_c, 0, 48, 15
2, 15908, Note_on_c, 0, 52, 0
2, 15910, Note_on_c, 0, 50, 57
2, 15915, Note_on_c, 0, 51, 44
2, 15922, Note_on_c, 0, 48, 0
2, 15922, Control_c, 0, 64, 0
2, 15926, Note_on_c, 0, 65, 66
2, 15926, Note_on_c, 0, 52, 66
2, 15927, Note_on_c, 0, 57, 59
2, 15929, Note_on_c, 0, 60, 64
2, 15929, Note_on_c, 0, 62, 60
2, 15931, Note_on_c, 0, 51, 0
2, 15933, Note_on_c, 0, 53, 65
2, 15937, Note_on_c, 0, 50, 0
2, 15946, Note_on_c, 0, 52, 0
2, 15998, Note_on_c, 0, 60, 0
2, 16001, Note_on_c, 0, 50, 30
2, 16003, Note_on_c, 0, 62, 0
2, 16004, Note_on_c, 0, 57, 0
2, 16012, Note_on_c, 0, 53, 0
2, 16012, Note_on_c, 0, 65, 0
2, 16024, Note_on_c, 0, 51, 43
2, 16037, Note_on_c, 0, 50, 0
2, 16038, Note_on_c, 0, 51, 0
2, 16039, Note_on_c, 0, 52, 68
2, 16047, Note_on_c, 0, 57, 53
2, 16047, Note_on_c, 0, 53, 58
2, 16047, Note_on_c, 0, 65, 53
2, 16049, Note_on_c, 0, 60, 64
2, 16050, Note_on_c, 0, 62, 57
2, 16057, Note_on_c, 0, 52, 0
2, 16099, Control_c, 0, 64, 127
2, 16100, Note_on_c, 0, 57, 0
2, 16101, Note_on_c, 0, 60, 0
2, 16111, Control_c, 0, 64, 0
2, 16139, Note_on_c, 0, 65, 0
2, 16148, Note_on_c, 0, 62, 0
2, 16150, Note_on_c, 0, 53, 0
2, 16160, Note_on_c, 0, 52, 48
2, 16164, Note_on_c, 0, 65, 53
2, 16165, Note_on_c, 0, 62, 36
2, 16166, Note_on_c, 0, 57, 62
2, 16166, Note_on_c, 0, 60, 66
2, 16168, Note_on_c, 0, 52, 0
2, 16168, Note_on_c, 0, 53, 51
2, 16205, Control_c, 0, 64, 127
2, 16235, Control_c, 0, 64, 0
2, 16247, Control_c, 0, 64, 127
2, 16281, Note_on_c, 0, 50, 62
2, 16300, Note_on_c, 0, 50, 0
2, 16306, Control_c, 0, 64, 0
2, 16319, Note_on_c, 0, 53, 0
2, 16321, Note_on_c, 0, 57, 0
2, 16322, Note_on_c, 0, 44, 62
2, 16324, Note_on_c, 0, 60, 0
2, 16327, Note_on_c, 0, 62, 0
2, 16332, Note_on_c, 0, 65, 0
2, 16334, Control_c, 0, 64, 127
2, 16396, Note_on_c, 0, 49, 53
2, 16401, Note_on_c, 0, 62, 74
2, 16402, Note_on_c, 0, 56, 71
2, 16402, Note_on_c, 0, 59, 72
2, 16403, Note_on_c, 0, 53, 78
2, 16404, Note_on_c, 0, 50, 76
2, 16406, Control_c, 0, 64, 0
2, 16409, Note_on_c, 0, 49, 0
2, 16514, Control_c, 0, 64, 127
2, 16530, Note_on_c, 0, 50, 0
2, 16536, Note_on_c, 0, 62, 0
2, 16537, Note_on_c, 0, 53, 0
2, 16539, Note_on_c, 0, 59, 0
2, 16539, Note_on_c, 0, 56, 0
2, 16545, Note_on_c, 0, 49, 31
2, 16560, Control_c, 0, 64, 0
2, 16565, Note_on_c, 0, 49, 0
2, 16565, Note_on_c, 0, 50, 57
2, 16565, Note_on_c, 0, 62, 62
2, 16567, Note_on_c, 0, 53, 53
2, 16567, Note_on_c, 0, 56, 44
2, 16571, Note_on_c, 0, 59, 42
2, 16614, Note_on_c, 0, 62, 0
2, 16628, Note_on_c, 0, 59, 0
2, 16635, Note_on_c, 0, 56, 0
2, 16636, Note_on_c, 0, 53, 0
2, 16644, Note_on_c, 0, 50, 0
2, 16650, Note_on_c, 0, 49, 33
2, 16664, Note_on_c, 0, 51, 25
2, 16673, Note_on_c, 0, 51, 0
2, 16674, Note_on_c, 0, 49, 0
2, 16675, Note_on_c, 0, 52, 61
2, 16675, Note_on_c, 0, 53, 50
2, 16676, Note_on_c, 0, 64, 43
2, 16677, Note_on_c, 0, 56, 38
2, 16677, Note_on_c, 0, 59, 53
2, 16747, Note_on_c, 0, 59, 0
2, 16749, Note_on_c, 0, 53, 0
2, 16750, Note_on_c, 0, 64, 0
2, 16750, Note_on_c, 0, 56, 0
2, 16753, Note_on_c, 0, 52, 0
2, 16761, Note_on_c, 0, 49, 25
2, 16787, Note_on_c, 0, 49, 0
2, 16792, Note_on_c, 0, 52, 50
2, 16793, Note_on_c, 0, 56, 46
2, 16795, Note_on_c, 0, 53, 52
2, 16796, Note_on_c, 0, 59, 48
2, 16797, Note_on_c, 0, 64, 36
2, 16833, Note_on_c, 0, 44, 0
2, 16846, Note_on_c, 0, 59, 0
2, 16853, Note_on_c, 0, 64, 0
2, 16860, Note_on_c, 0, 56, 0
2, 16871, Note_on_c, 0, 53, 0
2, 16871, Control_c, 0, 64, 127
2, 16883, Note_on_c, 0, 52, 0
2, 16885, Note_on_c, 0, 51, 40
2, 16903, Control_c, 0, 64, 0
2, 16904, Note_on_c, 0, 52, 54
2, 16908, Note_on_c, 0, 51, 0
2, 16914, Note_on_c, 0, 65, 58
2, 16915, Note_on_c, 0, 56, 53
2, 16915, Note_on_c, 0, 53, 44
2, 16918, Note_on_c, 0, 62, 53
2, 16918, Note_on_c, 0, 59, 64
2, 16924, Note_on_c, 0, 52, 0
2, 16979, Note_on_c, 0, 59, 0
2, 16980, Note_on_c, 0, 65, 0
2, 16981, Note_on_c, 0, 56, 0
2, 16984, Note_on_c, 0, 62, 0
2, 16991, Note_on_c, 0, 53, 0
2, 16994, Note_on_c, 0, 50, 27
2, 17010, Note_on_c, 0, 51, 28
2, 17017, Note_on_c, 0, 51, 0
2, 17019, Note_on_c, 0, 52, 53
2, 17021, Note_on_c, 0, 50, 0
2, 17032, Note_on_c, 0, 53, 56
2, 17032, Note_on_c, 0, 56, 48
2, 17036, Note_on_c, 0, 59, 58
2, 17037, Note_on_c, 0, 65, 40
2, 17038, Note_on_c, 0, 62, 50
2, 17040, Note_on_c, 0, 52, 0
2, 17088, Note_on_c, 0, 53, 0
2, 17092, Control_c, 0, 64, 127
2, 17116, Note_on_c, 0, 49, 77
2, 17122, Control_c, 0, 64, 0
2, 17138, Note_on_c, 0, 59, 0
2, 17152, Note_on_c, 0, 56, 0
2, 17152, Note_on_c, 0, 62, 0
2, 17163, Note_on_c, 0, 49, 0
2, 17163, Note_on_c, 0, 50, 68
2, 17206, Control_c, 0, 64, 127
2, 17221, Note_on_c, 0, 50, 0
2, 17231, Note_on_c, 0, 43, 90
2, 17232, Control_c, 0, 64, 0
2, 17252, Note_on_c, 0, 65, 0
2, 17276, Control_c, 0, 64, 127
2, 17288, Control_c, 0, 64, 0
2, 17314, Control_c, 0, 64, 127
2, 17345, Note_on_c, 0, 49, 69
2, 17347, Note_on_c, 0, 58, 79
2, 17348, Note_on_c, 0, 50, 92
2, 17348, Note_on_c, 0, 62, 80
2, 17349, Note_on_c, 0, 55, 83
2, 17349, Note_on_c, 0, 53, 81
2, 17351, Control_c, 0, 64, 0
2, 17356, Note_on_c, 0, 49, 0
2, 17405, Control_c, 0, 64, 127
2, 17411, Control_c, 0, 64, 0
2, 17475, Control_c, 0, 64, 127
2, 17478, Note_on_c, 0, 55, 0
2, 17482, Note_on_c, 0, 53, 0
2, 17488, Note_on_c, 0, 50, 0
2, 17488, Note_on_c, 0, 62, 0
2, 17489, Note_on_c, 0, 58, 0
2, 17494, Note_on_c, 0, 49, 30
2, 17503, Control_c, 0, 64, 0
2, 17517, Note_on_c, 0, 58, 43
2, 17518, Note_on_c, 0, 53, 49
2, 17518, Note_on_c, 0, 62, 46
2, 17519, Note_on_c, 0, 55, 62
2, 17521, Note_on_c, 0, 50, 57
2, 17523, Note_on_c, 0, 49, 0
2, 17559, Note_on_c, 0, 55, 0
2, 17567, Note_on_c, 0, 53, 0
2, 17568, Note_on_c, 0, 62, 0
2, 17576, Note_on_c, 0, 58, 0
2, 17594, Note_on_c, 0, 50, 0
2, 17634, Note_on_c, 0, 58, 51
2, 17635, Note_on_c, 0, 50, 49
2, 17636, Note_on_c, 0, 64, 43
2, 17636, Note_on_c, 0, 55, 49
2, 17667, Note_on_c, 0, 43, 0
2, 17673, Note_on_c, 0, 50, 0
2, 17675, Note_on_c, 0, 55, 0
2, 17680, Note_on_c, 0, 64, 0
2, 17685, Note_on_c, 0, 58, 0
2, 17758, Note_on_c, 0, 48, 36
2, 17760, Note_on_c, 0, 58, 36
2, 17760, Note_on_c, 0, 64, 37
2, 17763, Note_on_c, 0, 55, 38
2, 17788, Control_c, 0, 64, 127
2, 17816, Note_on_c, 0, 64, 0
2, 17828, Note_on_c, 0, 55, 0
2, 17835, Note_on_c, 0, 36, 46
2, 17839, Note_on_c, 0, 58, 0
2, 17839, Note_on_c, 0, 48, 0
2, 17843, Note_on_c, 0, 36, 0
2, 17872, Note_on_c, 0, 65, 55
2, 17900, Note_on_c, 0, 65, 0
2, 17988, Control_c, 0, 64, 0
2, 17999, Note_on_c, 0, 74, 61
2, 18001, Note_on_c, 0, 66, 47
2, 18004, Note_on_c, 0, 64, 41
2, 18004, Note_on_c, 0, 58, 46
2, 18007, Note_on_c, 0, 69, 35
2, 18020, Control_c, 0, 64, 127
2, 18061, Note_on_c, 0, 69, 0
2, 18075, Note_on_c, 0, 64, 0
2, 18077, Note_on_c, 0, 66, 0
2, 18090, Note_on_c, 0, 74, 0
2, 18127, Note_on_c, 0, 58, 0
2, 18184, Note_on_c, 0, 73, 46
2, 18184, Note_on_c, 0, 76, 62
2, 18185, Note_on_c, 0, 58, 60
2, 18186, Note_on_c, 0, 64, 62
2, 18207, Note_on_c, 0, 64, 0
2, 18216, Note_on_c, 0, 76, 0
2, 18237, Note_on_c, 0, 58, 0
2, 18237, Note_on_c, 0, 73, 0
2, 18245, Control_c, 0, 64, 0
2, 18249, Note_on_c, 0, 77, 63
2, 18250, Note_on_c, 0, 72, 48
2, 18251, Note_on_c, 0, 67, 57
2, 18253, Note_on_c, 0, 62, 35
2, 18254, Note_on_c, 0, 57, 42
2, 18309, Note_on_c, 0, 77, 0
2, 18311, Note_on_c, 0, 67, 0
2, 18312, Note_on_c, 0, 72, 0
2, 18312, Note_on_c, 0, 62, 0
2, 18314, Note_on_c, 0, 57, 0
2, 18317, Control_c, 0, 64, 127
2, 18326, Note_on_c, 0, 77, 48
2, 18328, Note_on_c, 0, 62, 46
2, 18329, Note_on_c, 0, 72, 58
2, 18329, Note_on_c, 0, 67, 61
2, 18329, Note_on_c, 0, 57, 56
2, 18343, Control_c, 0, 64, 0
2, 18432, Control_c, 0, 64, 127
2, 18441, Note_on_c, 0, 67, 0
2, 18446, Note_on_c, 0, 72, 0
2, 18458, Note_on_c, 0, 77, 0
2, 18473, Note_on_c, 0, 62, 0
2, 18477, Note_on_c, 0, 57, 0
2, 18478, Note_on_c, 0, 77, 39
2, 18481, Note_on_c, 0, 67, 52
2, 18482, Note_on_c, 0, 72, 40
2, 18557, Note_on_c, 0, 47, 67
2, 18558, Note_on_c, 0, 67, 0
2, 18559, Note_on_c, 0, 77, 0
2, 18562, Note_on_c, 0, 72, 0
2, 18570, Control_c, 0, 64, 0
2, 18593, Note_on_c, 0, 47, 0
2, 18603, Note_on_c, 0, 48, 53
2, 18672, Note_on_c, 0, 36, 70
2, 18800, Note_on_c, 0, 48, 0
2, 18806, Note_on_c, 0, 43, 34
2, 18832, Note_on_c, 0, 43, 0
2, 18836, Note_on_c, 0, 65, 54
2, 18837, Note_on_c, 0, 53, 45
2, 18837, Note_on_c, 0, 58, 47
2, 18838, Note_on_c, 0, 55, 50
2, 18838, Note_on_c, 0, 62, 60
2, 18840, Note_on_c, 0, 48, 47
2, 19013, Note_on_c, 0, 62, 0
2, 19022, Note_on_c, 0, 65, 0
2, 19037, Note_on_c, 0, 36, 0
2, 19038, Note_on_c, 0, 39, 50
2, 19044, Note_on_c, 0, 58, 0
2, 19045, Note_on_c, 0, 48, 0
2, 19047, Note_on_c, 0, 55, 0
2, 19053, Note_on_c, 0, 53, 0
2, 19069, Note_on_c, 0, 56, 46
2, 19070, Note_on_c, 0, 39, 0
2, 19074, Note_on_c, 0, 40, 52
2, 19136, Note_on_c, 0, 56, 0
2, 19154, Note_on_c, 0, 39, 50
2, 19162, Note_on_c, 0, 57, 59
2, 19175, Note_on_c, 0, 57, 0
2, 19198, Note_on_c, 0, 39, 0
2, 19199, Note_on_c, 0, 40, 0
2, 19204, Note_on_c, 0, 41, 48
2, 19211, Note_on_c, 0, 62, 75
2, 19308, Note_on_c, 0, 41, 0
2, 19313, Note_on_c, 0, 36, 37
2, 19418, Note_on_c, 0, 36, 0
2, 19427, Note_on_c, 0, 38, 35
2, 19514, Note_on_c, 0, 62, 0
2, 19542, Note_on_c, 0, 38, 0
2, 19551, Note_on_c, 0, 33, 37
2, 19553, Note_on_c, 0, 60, 84
2, 19640, Note_on_c, 0, 38, 30
2, 19644, Note_on_c, 0, 53, 48
2, 19656, Note_on_c, 0, 60, 0
2, 19656, Note_on_c, 0, 33, 0
2, 19662, Note_on_c, 0, 53, 0
2, 19665, Note_on_c, 0, 38, 0
2, 19673, Note_on_c, 0, 29, 22
2, 19681, Note_on_c, 0, 57, 56
2, 19740, Note_on_c, 0, 57, 0
2, 19754, Note_on_c, 0, 48, 70
2, 19766, Note_on_c, 0, 36, 38
2, 19769, Note_on_c, 0, 48, 0
2, 19790, Note_on_c, 0, 36, 0
2, 19797, Note_on_c, 0, 29, 0
2, 19817, Note_on_c, 0, 41, 6
2, 19880, Note_on_c, 0, 41, 0
2, 19882, Note_on_c, 0, 37, 27
2, 19884, Note_on_c, 0, 39, 37
2, 19905, Note_on_c, 0, 37, 0
2, 19911, Note_on_c, 0, 39, 0
2, 19915, Note_on_c, 0, 45, 46
2, 20031, Note_on_c, 0, 45, 0
2, 20041, Note_on_c, 0, 44, 63
2, 20149, Note_on_c, 0, 44, 0
2, 20153, Note_on_c, 0, 47, 49
2, 20261, Note_on_c, 0, 47, 0
2, 20269, Note_on_c, 0, 50, 33
2, 20273, Note_on_c, 0, 56, 31
2, 20293, Note_on_c, 0, 56, 0
2, 20304, Note_on_c, 0, 59, 50
2, 20325, Note_on_c, 0, 59, 0
2, 20335, Note_on_c, 0, 62, 60
2, 20357, Note_on_c, 0, 62, 0
2, 20362, Note_on_c, 0, 65, 68
2, 20364, Note_on_c, 0, 50, 0
2, 20366, Note_on_c, 0, 56, 33
2, 20377, Note_on_c, 0, 65, 0
2, 20399, Note_on_c, 0, 68, 40
2, 20422, Note_on_c, 0, 68, 0
2, 20427, Note_on_c, 0, 71, 60
2, 20444, Note_on_c, 0, 71, 0
2, 20454, Note_on_c, 0, 76, 91
2, 20486, Note_on_c, 0, 74, 75
2, 20497, Note_on_c, 0, 76, 0
2, 20501, Note_on_c, 0, 64, 26
2, 20512, Note_on_c, 0, 71, 69
2, 20513, Note_on_c, 0, 74, 0
2, 20516, Note_on_c, 0, 64, 0
2, 20551, Note_on_c, 0, 71, 0
2, 20551, Note_on_c, 0, 68, 54
2, 20574, Note_on_c, 0, 68, 0
2, 20577, Note_on_c, 0, 65, 58
2, 20594, Note_on_c, 0, 65, 0
2, 20610, Note_on_c, 0, 62, 36
2, 20631, Note_on_c, 0, 62, 0
2, 20640, Note_on_c, 0, 56, 0
2, 20705, Note_on_c, 0, 59, 53
2, 20706, Control_c, 0, 64, 127
2, 20735, Note_on_c, 0, 53, 52
2, 20739, Control_c, 0, 64, 0
2, 20740, Note_on_c, 0, 59, 0
2, 20751, Note_on_c, 0, 65, 48
2, 20823, Note_on_c, 0, 56, 67
2, 20826, Note_on_c, 0, 53, 0
2, 20833, Note_on_c, 0, 50, 38
2, 20846, Note_on_c, 0, 65, 0
2, 20859, Note_on_c, 0, 56, 0
2, 20875, Note_on_c, 0, 55, 39
2, 20930, Note_on_c, 0, 55, 0
2, 20946, Note_on_c, 0, 53, 52
2, 20968, Note_on_c, 0, 50, 0
2, 20977, Note_on_c, 0, 53, 0
2, 20982, Note_on_c, 0, 44, 27
2, 20991, Note_on_c, 0, 50, 24
2, 21041, Note_on_c, 0, 50, 0
2, 21066, Note_on_c, 0, 49, 55
2, 21097, Note_on_c, 0, 49, 0
2, 21100, Note_on_c, 0, 44, 0
2, 21107, Note_on_c, 0, 43, 36
2, 21107, Note_on_c, 0, 50, 38
2, 21186, Note_on_c, 0, 50, 0
2, 21187, Note_on_c, 0, 54, 42
2, 21196, Note_on_c, 0, 46, 37
2, 21215, Note_on_c, 0, 54, 0
2, 21216, Note_on_c, 0, 43, 0
2, 21230, Note_on_c, 0, 46, 0
2, 21231, Note_on_c, 0, 57, 52
2, 21234, Note_on_c, 0, 50, 46
2, 21260, Note_on_c, 0, 57, 0
2, 21266, Note_on_c, 0, 54, 40
2, 21290, Note_on_c, 0, 54, 0
2, 21307, Note_on_c, 0, 55, 54
2, 21333, Note_on_c, 0, 55, 0
2, 21344, Note_on_c, 0, 50, 0
2, 21347, Note_on_c, 0, 57, 53
2, 21348, Note_on_c, 0, 46, 31
2, 21371, Note_on_c, 0, 57, 0
2, 21386, Note_on_c, 0, 58, 51
2, 21406, Note_on_c, 0, 58, 0
2, 21425, Note_on_c, 0, 62, 80
2, 21446, Note_on_c, 0, 62, 0
2, 21468, Note_on_c, 0, 50, 47
2, 21472, Note_on_c, 0, 65, 73
2, 21474, Note_on_c, 0, 46, 0
2, 21485, Note_on_c, 0, 65, 0
2, 21497, Note_on_c, 0, 50, 0
2, 21509, Note_on_c, 0, 69, 94
2, 21537, Note_on_c, 0, 69, 0
2, 21548, Note_on_c, 0, 66, 88
2, 21576, Note_on_c, 0, 66, 0
2, 21585, Note_on_c, 0, 48, 43
2, 21586, Note_on_c, 0, 58, 35
2, 21588, Note_on_c, 0, 67, 70
2, 21616, Note_on_c, 0, 67, 0
2, 21629, Note_on_c, 0, 65, 50
2, 21667, Note_on_c, 0, 48, 0
2, 21676, Note_on_c, 0, 65, 0
2, 21713, Note_on_c, 0, 50, 47
2, 21816, Note_on_c, 0, 58, 0
2, 21818, Note_on_c, 0, 50, 0
2, 21833, Note_on_c, 0, 51, 42
2, 21836, Note_on_c, 0, 58, 19
2, 21877, Note_on_c, 0, 64, 57
2, 21896, Note_on_c, 0, 64, 0
2, 21914, Note_on_c, 0, 66, 74
2, 21934, Note_on_c, 0, 51, 0
2, 21943, Note_on_c, 0, 66, 0
2, 21951, Note_on_c, 0, 67, 71
2, 21954, Note_on_c, 0, 52, 46
2, 21974, Note_on_c, 0, 58, 0
2, 21976, Note_on_c, 0, 67, 0
2, 21992, Note_on_c, 0, 68, 62
2, 21993, Note_on_c, 0, 67, 29
2, 22001, Note_on_c, 0, 67, 0
2, 22010, Note_on_c, 0, 68, 0
2, 22030, Note_on_c, 0, 69, 90
2, 22058, Note_on_c, 0, 69, 0
2, 22065, Note_on_c, 0, 52, 0
2, 22070, Note_on_c, 0, 74, 81
2, 22073, Note_on_c, 0, 53, 44
2, 22078, Note_on_c, 0, 73, 28
2, 22087, Note_on_c, 0, 73, 0
2, 22101, Note_on_c, 0, 74, 0
2, 22114, Note_on_c, 0, 71, 60
2, 22135, Note_on_c, 0, 71, 0
2, 22148, Note_on_c, 0, 72, 80
2, 22176, Note_on_c, 0, 72, 0
2, 22177, Note_on_c, 0, 53, 0
2, 22185, Note_on_c, 0, 69, 62
2, 22186, Note_on_c, 0, 48, 32
2, 22214, Note_on_c, 0, 69, 0
2, 22224, Note_on_c, 0, 65, 52
2, 22246, Note_on_c, 0, 65, 0
2, 22263, Note_on_c, 0, 60, 36
2, 22296, Note_on_c, 0, 60, 0
2, 22305, Note_on_c, 0, 41, 30
2, 22306, Note_on_c, 0, 48, 0
2, 22392, Note_on_c, 0, 58, 58
2, 22394, Note_on_c, 0, 65, 47
2, 22399, Note_on_c, 0, 61, 37
2, 22406, Note_on_c, 0, 48, 37
2, 22419, Note_on_c, 0, 65, 0
2, 22427, Note_on_c, 0, 58, 0
2, 22430, Note_on_c, 0, 61, 0
2, 22443, Note_on_c, 0, 56, 40
2, 22444, Note_on_c, 0, 58, 29
2, 22447, Note_on_c, 0, 61, 34
2, 22489, Note_on_c, 0, 58, 0
2, 22504, Note_on_c, 0, 56, 0
2, 22506, Note_on_c, 0, 61, 0
2, 22523, Note_on_c, 0, 65, 51
2, 22524, Note_on_c, 0, 57, 59
2, 22524, Note_on_c, 0, 60, 62
2, 22537, Note_on_c, 0, 57, 0
2, 22546, Note_on_c, 0, 65, 0
2, 22548, Note_on_c, 0, 60, 0
2, 22575, Note_on_c, 0, 48, 0
2, 22580, Note_on_c, 0, 53, 39
2, 22581, Note_on_c, 0, 41, 0
2, 22582, Note_on_c, 0, 58, 52
2, 22583, Note_on_c, 0, 67, 52
2, 22585, Note_on_c, 0, 63, 40
2, 22664, Note_on_c, 0, 53, 0
2, 22664, Control_c, 0, 64, 127
2, 22691, Note_on_c, 0, 53, 45
2, 22712, Control_c, 0, 64, 0
2, 22744, Control_c, 0, 64, 127
2, 22768, Note_on_c, 0, 67, 0
2, 22768, Note_on_c, 0, 41, 38
2, 22770, Note_on_c, 0, 53, 0
2, 22777, Note_on_c, 0, 63, 0
2, 22778, Note_on_c, 0, 58, 0
2, 22790, Control_c, 0, 64, 0
2, 22804, Note_on_c, 0, 57, 54
2, 22804, Note_on_c, 0, 66, 40
2, 22805, Note_on_c, 0, 62, 51
2, 22809, Note_on_c, 0, 53, 45
2, 22823, Note_on_c, 0, 41, 0
2, 22876, Note_on_c, 0, 53, 0
2, 22883, Control_c, 0, 64, 127
2, 22884, Note_on_c, 0, 48, 63
2, 22897, Control_c, 0, 64, 0
2, 22901, Note_on_c, 0, 48, 0
2, 22922, Note_on_c, 0, 45, 50
2, 22931, Note_on_c, 0, 62, 0
2, 22945, Control_c, 0, 64, 127
2, 22959, Control_c, 0, 64, 0
2, 22985, Control_c, 0, 64, 127
2, 22988, Note_on_c, 0, 66, 0
2, 23008, Note_on_c, 0, 57, 0
2, 23028, Note_on_c, 0, 45, 0
2, 23033, Control_c, 0, 64, 0
2, 23039, Note_on_c, 0, 57, 28
2, 23039, Note_on_c, 0, 58, 30
2, 23039, Note_on_c, 0, 62, 40
2, 23040, Note_on_c, 0, 46, 33
2, 23041, Note_on_c, 0, 65, 24
2, 23068, Note_on_c, 0, 46, 0
2, 23118, Note_on_c, 0, 50, 61
2, 23137, Note_on_c, 0, 50, 0
2, 23157, Note_on_c, 0, 48, 40
2, 23214, Note_on_c, 0, 57, 0
2, 23226, Note_on_c, 0, 58, 0
2, 23227, Note_on_c, 0, 65, 0
2, 23228, Note_on_c, 0, 62, 0
2, 23240, Control_c, 0, 64, 127
2, 23265, Note_on_c, 0, 48, 0
2, 23266, Control_c, 0, 64, 0
2, 23274, Note_on_c, 0, 46, 35
2, 23282, Note_on_c, 0, 65, 57
2, 23284, Note_on_c, 0, 64, 47
2, 23291, Note_on_c, 0, 64, 0
2, 23313, Note_on_c, 0, 65, 0
2, 23321, Note_on_c, 0, 67, 42
2, 23341, Note_on_c, 0, 65, 36
2, 23347, Note_on_c, 0, 67, 0
2, 23362, Note_on_c, 0, 65, 0
2, 23364, Note_on_c, 0, 64, 50
2, 23376, Note_on_c, 0, 64, 0
2, 23381, Note_on_c, 0, 46, 0
2, 23388, Note_on_c, 0, 45, 36
2, 23393, Note_on_c, 0, 65, 69
2, 23462, Note_on_c, 0, 65, 0
2, 23483, Note_on_c, 0, 67, 74
2, 23498, Note_on_c, 0, 45, 0
2, 23503, Note_on_c, 0, 43, 34
2, 23506, Note_on_c, 0, 67, 0
2, 23529, Note_on_c, 0, 69, 76
2, 23620, Note_on_c, 0, 69, 0
2, 23628, Note_on_c, 0, 43, 0
2, 23633, Note_on_c, 0, 68, 63
2, 23634, Note_on_c, 0, 41, 48
2, 23722, Control_c, 0, 64, 127
2, 23740, Note_on_c, 0, 68, 0
2, 23740, Control_c, 0, 64, 0
2, 23756, Note_on_c, 0, 67, 59
2, 23757, Note_on_c, 0, 41, 0
2, 23757, Note_on_c, 0, 39, 38
2, 23844, Note_on_c, 0, 37, 32
2, 23850, Note_on_c, 0, 39, 0
2, 23858, Note_on_c, 0, 37, 0
2, 23872, Note_on_c, 0, 67, 0
2, 23872, Note_on_c, 0, 38, 68
2, 23962, Control_c, 0, 64, 127
2, 23979, Note_on_c, 0, 38, 0
2, 23986, Control_c, 0, 64, 0
2, 23995, Note_on_c, 0, 39, 64
2, 24078, Control_c, 0, 64, 127
2, 24109, Control_c, 0, 64, 0
2, 24111, Note_on_c, 0, 39, 0
2, 24119, Note_on_c, 0, 46, 57
2, 24124, Note_on_c, 0, 65, 57
2, 24124, Note_on_c, 0, 61, 47
2, 24153, Control_c, 0, 64, 127
2, 24190, Note_on_c, 0, 61, 0
2, 24195, Note_on_c, 0, 65, 0
2, 24207, Note_on_c, 0, 46, 0
2, 24209, Note_on_c, 0, 61, 85
2, 24209, Note_on_c, 0, 65, 80
2, 24210, Note_on_c, 0, 72, 80
2, 24213, Note_on_c, 0, 69, 69
2, 24223, Control_c, 0, 64, 0
2, 24227, Note_on_c, 0, 60, 76
2, 24255, Control_c, 0, 64, 127
2, 24256, Note_on_c, 0, 72, 0
2, 24260, Note_on_c, 0, 61, 0
2, 24267, Note_on_c, 0, 65, 0
2, 24269, Note_on_c, 0, 69, 0
2, 24280, Note_on_c, 0, 72, 49
2, 24282, Note_on_c, 0, 61, 55
2, 24284, Note_on_c, 0, 65, 62
2, 24288, Note_on_c, 0, 69, 40
2, 24338, Note_on_c, 0, 72, 0
2, 24342, Note_on_c, 0, 69, 0
2, 24344, Note_on_c, 0, 65, 0
2, 24344, Note_on_c, 0, 61, 0
2, 24353, Note_on_c, 0, 60, 0
2, 24353, Control_c, 0, 64, 0
2, 24361, Note_on_c, 0, 61, 53
2, 24361, Note_on_c, 0, 58, 43
2, 24361, Note_on_c, 0, 70, 56
2, 24365, Note_on_c, 0, 65, 47
2, 24401, Control_c, 0, 64, 127
2, 24438, Note_on_c, 0, 61, 0
2, 24441, Note_on_c, 0, 65, 0
2, 24452, Note_on_c, 0, 56, 26
2, 24462, Note_on_c, 0, 70, 0
2, 24468, Control_c, 0, 64, 0
2, 24471, Note_on_c, 0, 58, 0
2, 24472, Note_on_c, 0, 56, 0
2, 24474, Note_on_c, 0, 61, 42
2, 24475, Note_on_c, 0, 69, 53
2, 24478, Note_on_c, 0, 57, 44
2, 24479, Note_on_c, 0, 65, 40
2, 24550, Control_c, 0, 64, 127
2, 24565, Note_on_c, 0, 61, 0
2, 24566, Note_on_c, 0, 65, 0
2, 24569, Note_on_c, 0, 69, 0
2, 24590, Control_c, 0, 64, 0
2, 24599, Note_on_c, 0, 61, 48
2, 24600, Note_on_c, 0, 56, 44
2, 24602, Note_on_c, 0, 57, 0
2, 24602, Note_on_c, 0, 65, 47
2, 24604, Note_on_c, 0, 70, 53
2, 24676, Control_c, 0, 64, 127
2, 24687, Note_on_c, 0, 65, 0
2, 24689, Note_on_c, 0, 61, 0
2, 24697, Note_on_c, 0, 70, 0
2, 24702, Control_c, 0, 64, 0
2, 24711, Note_on_c, 0, 56, 0
2, 24714, Note_on_c, 0, 61, 49
2, 24718, Note_on_c, 0, 55, 45
2, 24720, Note_on_c, 0, 69, 40
2, 24721, Note_on_c, 0, 65, 46
2, 24740, Control_c, 0, 64, 127
2, 24760, Control_c, 0, 64, 0
2, 24778, Control_c, 0, 64, 127
2, 24792, Note_on_c, 0, 65, 0
2, 24805, Note_on_c, 0, 55, 0
2, 24810, Note_on_c, 0, 61, 0
2, 24812, Note_on_c, 0, 69, 0
2, 24829, Control_c, 0, 64, 0
2, 24831, Note_on_c, 0, 61, 47
2, 24834, Note_on_c, 0, 54, 39
2, 24835, Note_on_c, 0, 66, 52
2, 24851, Control_c, 0, 64, 127
2, 24906, Note_on_c, 0, 61, 0
2, 24920, Note_on_c, 0, 65, 53
2, 24923, Note_on_c, 0, 60, 54
2, 24926, Note_on_c, 0, 54, 0
2, 24944, Note_on_c, 0, 51, 34
2, 24947, Control_c, 0, 64, 0
2, 24950, Note_on_c, 0, 44, 25
2, 24959, Note_on_c, 0, 66, 0
2, 24964, Note_on_c, 0, 65, 0
2, 24990, Note_on_c, 0, 60, 0
2, 24991, Control_c, 0, 64, 127
2, 25004, Note_on_c, 0, 51, 0
2, 25029, Note_on_c, 0, 51, 46
2, 25069, Note_on_c, 0, 51, 0
2, 25069, Control_c, 0, 64, 0
2, 25070, Note_on_c, 0, 75, 64
2, 25071, Note_on_c, 0, 70, 71
2, 25104, Note_on_c, 0, 75, 0
2, 25113, Note_on_c, 0, 44, 0
2, 25113, Note_on_c, 0, 67, 54
2, 25115, Note_on_c, 0, 72, 38
2, 25116, Note_on_c, 0, 70, 0
2, 25142, Note_on_c, 0, 67, 0
2, 25143, Control_c, 0, 64, 127
2, 25144, Note_on_c, 0, 72, 0
2, 25151, Note_on_c, 0, 75, 65
2, 25151, Note_on_c, 0, 70, 68
2, 25181, Note_on_c, 0, 75, 0
2, 25188, Control_c, 0, 64, 0
2, 25188, Note_on_c, 0, 51, 37
2, 25190, Note_on_c, 0, 67, 60
2, 25190, Note_on_c, 0, 72, 48
2, 25198, Note_on_c, 0, 70, 0
2, 25228, Note_on_c, 0, 67, 0
2, 25235, Note_on_c, 0, 75, 57
2, 25237, Note_on_c, 0, 70, 55
2, 25242, Note_on_c, 0, 72, 0
2, 25266, Control_c, 0, 64, 127
2, 25267, Note_on_c, 0, 75, 0
2, 25275, Note_on_c, 0, 72, 61
2, 25277, Note_on_c, 0, 67, 68
2, 25291, Note_on_c, 0, 70, 0
2, 25306, Control_c, 0, 64, 0
2, 25310, Note_on_c, 0, 67, 0
2, 25314, Note_on_c, 0, 51, 0
2, 25315, Note_on_c, 0, 55, 66
2, 25315, Note_on_c, 0, 75, 64
2, 25316, Note_on_c, 0, 70, 62
2, 25325, Note_on_c, 0, 72, 0
2, 25351, Note_on_c, 0, 75, 0
2, 25359, Note_on_c, 0, 67, 44
2, 25361, Note_on_c, 0, 70, 0
2, 25361, Note_on_c, 0, 72, 34
2, 25378, Control_c, 0, 64, 127
2, 25385, Note_on_c, 0, 55, 0
2, 25387, Note_on_c, 0, 67, 0
2, 25389, Note_on_c, 0, 72, 0
2, 25396, Note_on_c, 0, 51, 25
2, 25397, Note_on_c, 0, 75, 74
2, 25397, Note_on_c, 0, 70, 76
2, 25400, Control_c, 0, 64, 0
2, 25403, Note_on_c, 0, 51, 0
2, 25413, Note_on_c, 0, 53, 42
2, 25441, Note_on_c, 0, 75, 0
2, 25442, Note_on_c, 0, 67, 55
2, 25445, Note_on_c, 0, 72, 36
2, 25449, Note_on_c, 0, 70, 0
2, 25472, Note_on_c, 0, 67, 0
2, 25477, Note_on_c, 0, 72, 0
2, 25482, Control_c, 0, 64, 127
2, 25484, Note_on_c, 0, 75, 69
2, 25486, Note_on_c, 0, 70, 64
2, 25510, Note_on_c, 0, 53, 0
2, 25523, Note_on_c, 0, 67, 69
2, 25524, Note_on_c, 0, 75, 0
2, 25524, Note_on_c, 0, 72, 46
2, 25532, Note_on_c, 0, 51, 38
2, 25536, Note_on_c, 0, 70, 0
2, 25537, Control_c, 0, 64, 0
2, 25552, Note_on_c, 0, 67, 0
2, 25557, Note_on_c, 0, 72, 0
2, 25563, Note_on_c, 0, 75, 64
2, 25564, Note_on_c, 0, 70, 60
2, 25579, Control_c, 0, 64, 127
2, 25593, Note_on_c, 0, 75, 0
2, 25593, Control_c, 0, 64, 0
2, 25601, Control_c, 0, 64, 127
2, 25609, Note_on_c, 0, 67, 50
2, 25610, Note_on_c, 0, 72, 34
2, 25625, Note_on_c, 0, 70, 0
2, 25633, Note_on_c, 0, 67, 0
2, 25640, Note_on_c, 0, 72, 0
2, 25641, Note_on_c, 0, 51, 0
2, 25646, Note_on_c, 0, 75, 49
2, 25647, Note_on_c, 0, 71, 74
2, 25650, Note_on_c, 0, 76, 84
2, 25661, Control_c, 0, 64, 0
2, 25663, Note_on_c, 0, 75, 0
2, 25668, Note_on_c, 0, 43, 35
2, 25697, Control_c, 0, 64, 127
2, 25756, Note_on_c, 0, 53, 64
2, 25758, Note_on_c, 0, 71, 0
2, 25772, Note_on_c, 0, 43, 0
2, 25773, Note_on_c, 0, 53, 0
2, 25785, Note_on_c, 0, 76, 0
2, 25785, Control_c, 0, 64, 0
2, 25791, Note_on_c, 0, 67, 48
2, 25793, Note_on_c, 0, 71, 50
2, 25793, Note_on_c, 0, 47, 48
2, 25813, Control_c, 0, 64, 127
2, 25833, Control_c, 0, 64, 0
2, 25847, Note_on_c, 0, 71, 0
2, 25848, Note_on_c, 0, 67, 0
2, 25853, Control_c, 0, 64, 127
2, 25868, Note_on_c, 0, 46, 49
2, 25875, Note_on_c, 0, 76, 71
2, 25877, Note_on_c, 0, 67, 65
2, 25879, Note_on_c, 0, 72, 44
2, 25880, Note_on_c, 0, 71, 53
2, 25895, Note_on_c, 0, 72, 0
2, 25896, Note_on_c, 0, 71, 0
2, 25897, Note_on_c, 0, 76, 0
2, 25902, Note_on_c, 0, 67, 0
2, 25905, Note_on_c, 0, 47, 0
2, 25912, Control_c, 0, 64, 0
2, 25914, Note_on_c, 0, 46, 0
2, 25917, Note_on_c, 0, 48, 47
2, 25923, Note_on_c, 0, 72, 47
2, 25929, Note_on_c, 0, 48, 0
2, 25929, Note_on_c, 0, 64, 40
2, 25934, Note_on_c, 0, 67, 24
2, 25972, Note_on_c, 0, 67, 0
2, 25980, Note_on_c, 0, 72, 0
2, 25986, Note_on_c, 0, 64, 0
2, 25992, Control_c, 0, 64, 127
2, 26001, Note_on_c, 0, 66, 32
2, 26005, Note_on_c, 0, 50, 36
2, 26009, Note_on_c, 0, 66, 0
2, 26012, Note_on_c, 0, 50, 0
2, 26028, Control_c, 0, 64, 0
2, 26036, Note_on_c, 0, 58, 73
2, 26037, Note_on_c, 0, 70, 60
2, 26037, Note_on_c, 0, 67, 61
2, 26037, Note_on_c, 0, 63, 55
2, 26038, Note_on_c, 0, 59, 67
2, 26066, Control_c, 0, 64, 127
2, 26088, Control_c, 0, 64, 0
2, 26092, Control_c, 0, 64, 127
2, 26126, Note_on_c, 0, 67, 0
2, 26130, Note_on_c, 0, 59, 0
2, 26138, Note_on_c, 0, 63, 0
2, 26139, Note_on_c, 0, 58, 0
2, 26143, Note_on_c, 0, 70, 0
2, 26157, Note_on_c, 0, 68, 59
2, 26158, Note_on_c, 0, 63, 46
2, 26159, Note_on_c, 0, 59, 55
2, 26235, Note_on_c, 0, 37, 88
2, 26236, Note_on_c, 0, 25, 73
2, 26251, Control_c, 0, 64, 0
2, 26271, Control_c, 0, 64, 127
2, 26361, Note_on_c, 0, 59, 0
2, 26385, Note_on_c, 0, 63, 0
2, 26388, Note_on_c, 0, 37, 0
2, 26394, Note_on_c, 0, 25, 0
2, 26402, Note_on_c, 0, 36, 69
2, 26407, Control_c, 0, 64, 0
2, 26412, Note_on_c, 0, 68, 0
2, 26486, Note_on_c, 0, 24, 80
2, 26506, Note_on_c, 0, 36, 0
2, 26516, Note_on_c, 0, 24, 0
2, 26533, Note_on_c, 0, 60, 46
2, 26555, Note_on_c, 0, 60, 0
2, 26565, Note_on_c, 0, 62, 74
2, 26633, Note_on_c, 0, 62, 0
2, 26648, Note_on_c, 0, 65, 66
2, 26670, Control_c, 0, 64, 127
2, 26702, Note_on_c, 0, 65, 0
2, 26721, Note_on_c, 0, 74, 89
2, 26760, Note_on_c, 0, 74, 0
2, 26768, Note_on_c, 0, 72, 57
2, 26840, Note_on_c, 0, 72, 0
2, 26840, Note_on_c, 0, 69, 65
2, 26876, Control_c, 0, 64, 0
2, 26885, Note_on_c, 0, 64, 45
2, 26916, Control_c, 0, 64, 127
2, 26954, Note_on_c, 0, 64, 0
2, 26963, Note_on_c, 0, 48, 37
2, 26969, Note_on_c, 0, 57, 30
2, 26981, Note_on_c, 0, 57, 0
2, 26991, Control_c, 0, 64, 0
2, 26992, Note_on_c, 0, 69, 0
2, 27000, Note_on_c, 0, 64, 76
2, 27004, Note_on_c, 0, 57, 46
2, 27021, Control_c, 0, 64, 127
2, 27069, Note_on_c, 0, 48, 0
2, 27083, Note_on_c, 0, 64, 0
2, 27095, Note_on_c, 0, 57, 0
2, 27113, Control_c, 0, 64, 0
2, 27118, Note_on_c, 0, 48, 35
2, 27120, Note_on_c, 0, 57, 49
2, 27124, Note_on_c, 0, 64, 75
2, 27141, Control_c, 0, 64, 127
2, 27182, Note_on_c, 0, 57, 0
2, 27198, Note_on_c, 0, 64, 0
2, 27207, Note_on_c, 0, 60, 33
2, 27217, Note_on_c, 0, 48, 0
2, 27228, Note_on_c, 0, 60, 0
2, 27231, Control_c, 0, 64, 0
2, 27240, Note_on_c, 0, 62, 60
2, 27242, Note_on_c, 0, 48, 32
2, 27247, Note_on_c, 0, 57, 24
2, 27249, Control_c, 0, 64, 127
2, 27281, Note_on_c, 0, 48, 0
2, 27293, Note_on_c, 0, 57, 0
2, 27310, Note_on_c, 0, 62, 0
2, 27318, Note_on_c, 0, 64, 72
2, 27319, Note_on_c, 0, 57, 48
2, 27319, Note_on_c, 0, 48, 46
2, 27330, Control_c, 0, 64, 0
2, 27353, Note_on_c, 0, 48, 0
2, 27355, Note_on_c, 0, 57, 0
2, 27363, Note_on_c, 0, 64, 0
2, 27372, Control_c, 0, 64, 127
2, 27378, Note_on_c, 0, 48, 34
2, 27379, Note_on_c, 0, 60, 34
2, 27382, Note_on_c, 0, 57, 20
2, 27423, Note_on_c, 0, 57, 0
2, 27429, Note_on_c, 0, 60, 0
2, 27430, Note_on_c, 0, 48, 0
2, 27448, Note_on_c, 0, 60, 61
2, 27448, Note_on_c, 0, 48, 28
2, 27449, Note_on_c, 0, 57, 44
2, 27452, Control_c, 0, 64, 0
2, 27464, Note_on_c, 0, 60, 0
2, 27465, Note_on_c, 0, 57, 0
2, 27471, Note_on_c, 0, 48, 0
2, 27532, Control_c, 0, 64, 127
2, 27559, Note_on_c, 0, 60, 63
2, 27561, Note_on_c, 0, 48, 51
2, 27564, Note_on_c, 0, 57, 47
2, 27629, Note_on_c, 0, 60, 0
2, 27637, Note_on_c, 0, 48, 0
2, 27642, Note_on_c, 0, 62, 40
2, 27658, Note_on_c, 0, 62, 0
2, 27658, Note_on_c, 0, 60, 48
2, 27686, Note_on_c, 0, 59, 60
2, 27687, Note_on_c, 0, 60, 0
2, 27706, Note_on_c, 0, 59, 0
2, 27715, Control_c, 0, 64, 0
2, 27720, Note_on_c, 0, 48, 41
2, 27721, Note_on_c, 0, 60, 67
2, 27738, Note_on_c, 0, 48, 0
2, 27747, Control_c, 0, 64, 127
2, 27755, Note_on_c, 0, 57, 0
2, 27798, Note_on_c, 0, 48, 78
2, 27803, Note_on_c, 0, 60, 0
2, 27914, Note_on_c, 0, 72, 72
2, 27915, Note_on_c, 0, 61, 93
2, 27916, Note_on_c, 0, 60, 83
2, 27916, Note_on_c, 0, 65, 82
2, 27918, Note_on_c, 0, 67, 71
2, 27923, Control_c, 0, 64, 0
2, 27924, Note_on_c, 0, 70, 31
2, 27963, Control_c, 0, 64, 127
2, 28072, Note_on_c, 0, 60, 0
2, 28074, Note_on_c, 0, 70, 0
2, 28075, Note_on_c, 0, 72, 0
2, 28078, Note_on_c, 0, 67, 0
2, 28079, Note_on_c, 0, 61, 0
2, 28079, Note_on_c, 0, 65, 0
2, 28080, Note_on_c, 0, 56, 33
2, 28108, Note_on_c, 0, 60, 42
2, 28118, Note_on_c, 0, 60, 0
2, 28122, Note_on_c, 0, 61, 54
2, 28144, Note_on_c, 0, 63, 52
2, 28146, Note_on_c, 0, 61, 0
2, 28155, Note_on_c, 0, 63, 0
2, 28162, Note_on_c, 0, 65, 62
2, 28182, Note_on_c, 0, 65, 0
2, 28184, Control_c, 0, 64, 0
2, 28184, Note_on_c, 0, 67, 64
2, 28201, Note_on_c, 0, 68, 28
2, 28206, Note_on_c, 0, 67, 0
2, 28210, Note_on_c, 0, 48, 0
2, 28214, Note_on_c, 0, 70, 58
2, 28216, Note_on_c, 0, 68, 0
2, 28227, Note_on_c, 0, 70, 0
2, 28236, Note_on_c, 0, 72, 58
2, 28246, Note_on_c, 0, 56, 0
2, 28251, Note_on_c, 0, 72, 0
2, 28252, Note_on_c, 0, 73, 47
2, 28270, Note_on_c, 0, 73, 0
2, 28272, Note_on_c, 0, 75, 55
2, 28274, Control_c, 0, 64, 127
2, 28284, Note_on_c, 0, 75, 0
2, 28292, Note_on_c, 0, 77, 58
2, 28313, Note_on_c, 0, 77, 0
2, 28316, Control_c, 0, 64, 0
2, 28319, Note_on_c, 0, 79, 75
2, 28321, Note_on_c, 0, 60, 56
2, 28322, Note_on_c, 0, 48, 37
2, 28338, Note_on_c, 0, 79, 0
2, 28355, Note_on_c, 0, 80, 75
2, 28381, Note_on_c, 0, 80, 0
2, 28391, Note_on_c, 0, 82, 80
2, 28417, Note_on_c, 0, 82, 0
2, 28429, Note_on_c, 0, 84, 83
2, 28434, Note_on_c, 0, 60, 0
2, 28452, Note_on_c, 0, 84, 0
2, 28471, Note_on_c, 0, 48, 0
2, 28471, Note_on_c, 0, 84, 73
2, 28474, Note_on_c, 0, 80, 60
2, 28477, Note_on_c, 0, 82, 44
2, 28479, Note_on_c, 0, 48, 20
2, 28481, Note_on_c, 0, 60, 54
2, 28518, Note_on_c, 0, 60, 0
2, 28532, Note_on_c, 0, 84, 0
2, 28532, Note_on_c, 0, 80, 0
2, 28536, Note_on_c, 0, 82, 0
2, 28537, Note_on_c, 0, 48, 0
2, 28559, Note_on_c, 0, 80, 73
2, 28563, Note_on_c, 0, 60, 62
2, 28564, Note_on_c, 0, 48, 39
2, 28570, Note_on_c, 0, 79, 48
2, 28579, Note_on_c, 0, 84, 16
2, 28580, Note_on_c, 0, 80, 0
2, 28611, Note_on_c, 0, 60, 0
2, 28624, Note_on_c, 0, 84, 0
2, 28631, Control_c, 0, 64, 127
2, 28635, Note_on_c, 0, 79, 0
2, 28637, Note_on_c, 0, 77, 75
2, 28637, Note_on_c, 0, 60, 76
2, 28675, Note_on_c, 0, 77, 0
2, 28683, Note_on_c, 0, 75, 48
2, 28697, Note_on_c, 0, 48, 0
2, 28751, Note_on_c, 0, 60, 0
2, 28758, Note_on_c, 0, 48, 57
2, 28770, Note_on_c, 0, 75, 0
2, 28796, Control_c, 0, 64, 0
2, 28799, Note_on_c, 0, 57, 60
2, 28799, Note_on_c, 0, 79, 58
2, 28801, Note_on_c, 0, 74, 60
2, 28802, Note_on_c, 0, 69, 50
2, 28830, Control_c, 0, 64, 127
2, 28834, Note_on_c, 0, 79, 0
2, 28835, Note_on_c, 0, 48, 0
2, 28842, Note_on_c, 0, 74, 0
2, 28856, Note_on_c, 0, 69, 0
2, 28879, Note_on_c, 0, 57, 0
2, 28879, Note_on_c, 0, 48, 57
2, 28905, Control_c, 0, 64, 0
2, 28906, Note_on_c, 0, 48, 0
2, 28916, Note_on_c, 0, 74, 68
2, 28916, Note_on_c, 0, 68, 67
2, 28917, Note_on_c, 0, 48, 24
2, 28918, Note_on_c, 0, 64, 61
2, 28920, Note_on_c, 0, 58, 62
2, 28949, Control_c, 0, 64, 127
2, 28971, Note_on_c, 0, 74, 0
2, 28976, Note_on_c, 0, 58, 0
2, 28981, Note_on_c, 0, 64, 0
2, 28984, Note_on_c, 0, 68, 0
2, 29001, Note_on_c, 0, 72, 56
2, 29002, Note_on_c, 0, 67, 68
2, 29003, Note_on_c, 0, 57, 60
2, 29003, Note_on_c, 0, 62, 64
2, 29005, Control_c, 0, 64, 0
2, 29037, Control_c, 0, 64, 127
2, 29041, Note_on_c, 0, 72, 0
2, 29042, Note_on_c, 0, 67, 0
2, 29065, Note_on_c, 0, 48, 0
2, 29071, Note_on_c, 0, 62, 0
2, 29111, Control_c, 0, 64, 0
2, 29118, Note_on_c, 0, 67, 64
2, 29119, Note_on_c, 0, 64, 62
2, 29119, Note_on_c, 0, 60, 66
2, 29120, Note_on_c, 0, 48, 54
2, 29135, Control_c, 0, 64, 127
2, 29147, Note_on_c, 0, 57, 0
2, 29168, Note_on_c, 0, 60, 0
2, 29173, Note_on_c, 0, 64, 0
2, 29175, Note_on_c, 0, 67, 0
2, 29239, Control_c, 0, 64, 0
2, 29241, Note_on_c, 0, 72, 80
2, 29241, Note_on_c, 0, 57, 78
2, 29241, Note_on_c, 0, 67, 94
2, 29241, Note_on_c, 0, 62, 96
2, 29282, Control_c, 0, 64, 127
2, 29322, Note_on_c, 0, 72, 0
2, 29327, Note_on_c, 0, 67, 0
2, 29342, Note_on_c, 0, 62, 0
2, 29344, Note_on_c, 0, 57, 0
2, 29377, Note_on_c, 0, 51, 36
2, 29394, Note_on_c, 0, 51, 0
2, 29397, Note_on_c, 0, 48, 0
2, 29398, Control_c, 0, 64, 0
2, 29399, Note_on_c, 0, 53, 50
2, 29400, Note_on_c, 0, 67, 72
2, 29401, Note_on_c, 0, 59, 71
2, 29402, Note_on_c, 0, 62, 72
2, 29403, Note_on_c, 0, 55, 74
2, 29409, Note_on_c, 0, 53, 0
2, 29463, Note_on_c, 0, 62, 0
2, 29470, Note_on_c, 0, 67, 0
2, 29484, Note_on_c, 0, 59, 0
2, 29518, Control_c, 0, 64, 127
2, 29519, Note_on_c, 0, 55, 0
2, 29520, Note_on_c, 0, 65, 55
2, 29524, Note_on_c, 0, 60, 64
2, 29525, Note_on_c, 0, 57, 41
2, 29528, Note_on_c, 0, 53, 48
2, 29533, Note_on_c, 0, 57, 0
2, 29537, Note_on_c, 0, 65, 0
2, 29540, Note_on_c, 0, 60, 0
2, 29593, Note_on_c, 0, 53, 0
2, 29597, Note_on_c, 0, 69, 68
2, 29600, Note_on_c, 0, 57, 58
2, 29601, Note_on_c, 0, 62, 43
2, 29610, Note_on_c, 0, 62, 0
2, 29614, Note_on_c, 0, 57, 0
2, 29614, Note_on_c, 0, 69, 0
2, 29627, Control_c, 0, 64, 0
2, 29639, Note_on_c, 0, 72, 60
2, 29644, Note_on_c, 0, 60, 50
2, 29645, Note_on_c, 0, 62, 38
2, 29649, Control_c, 0, 64, 127
2, 29654, Note_on_c, 0, 62, 0
2, 29662, Note_on_c, 0, 72, 0
2, 29705, Note_on_c, 0, 60, 0
2, 29715, Note_on_c, 0, 76, 81
2, 29718, Note_on_c, 0, 64, 51
2, 29720, Note_on_c, 0, 62, 62
2, 29721, Control_c, 0, 64, 0
2, 29726, Note_on_c, 0, 62, 0
2, 29729, Note_on_c, 0, 64, 0
2, 29737, Note_on_c, 0, 76, 0
2, 29767, Control_c, 0, 64, 127
2, 29769, Control_c, 0, 64, 0
2, 29791, Note_on_c, 0, 71, 66
2, 29793, Note_on_c, 0, 62, 62
2, 29793, Note_on_c, 0, 67, 61
2, 29796, Note_on_c, 0, 56, 72
2, 29815, Control_c, 0, 64, 127
2, 29841, Control_c, 0, 64, 0
2, 29842, Note_on_c, 0, 62, 0
2, 29853, Note_on_c, 0, 71, 0
2, 29856, Note_on_c, 0, 67, 0
2, 29867, Note_on_c, 0, 56, 0
2, 29872, Note_on_c, 0, 74, 71
2, 29873, Note_on_c, 0, 70, 58
2, 29875, Note_on_c, 0, 59, 61
2, 29879, Note_on_c, 0, 64, 29
2, 29880, Note_on_c, 0, 65, 31
2, 29886, Note_on_c, 0, 64, 0
2, 29887, Control_c, 0, 64, 127
2, 29890, Note_on_c, 0, 65, 0
2, 29895, Note_on_c, 0, 70, 0
2, 29897, Note_on_c, 0, 74, 0
2, 29948, Control_c, 0, 64, 0
2, 29950, Note_on_c, 0, 77, 68
2, 29952, Note_on_c, 0, 68, 69
2, 29955, Note_on_c, 0, 62, 71
2, 29957, Note_on_c, 0, 59, 0
2, 29960, Note_on_c, 0, 73, 31
2, 29972, Note_on_c, 0, 73, 0
2, 29980, Note_on_c, 0, 77, 0
2, 29984, Control_c, 0, 64, 127
2, 29990, Note_on_c, 0, 68, 0
2, 30020, Note_on_c, 0, 71, 40
2, 30022, Note_on_c, 0, 62, 0
2, 30029, Note_on_c, 0, 80, 68
2, 30032, Note_on_c, 0, 65, 61
2, 30033, Note_on_c, 0, 76, 37
2, 30041, Note_on_c, 0, 76, 0
2, 30056, Note_on_c, 0, 80, 0
2, 30099, Note_on_c, 0, 65, 0
2, 30106, Note_on_c, 0, 68, 60
2, 30109, Note_on_c, 0, 83, 64
2, 30120, Note_on_c, 0, 68, 0
2, 30126, Note_on_c, 0, 83, 0
2, 30140, Note_on_c, 0, 71, 0
2, 30188, Note_on_c, 0, 86, 71
2, 30188, Control_c, 0, 64, 0
2, 30190, Note_on_c, 0, 74, 48
2, 30190, Note_on_c, 0, 67, 61
2, 30192, Note_on_c, 0, 81, 56
2, 30194, Note_on_c, 0, 62, 50
2, 30195, Note_on_c, 0, 56, 35
2, 30206, Control_c, 0, 64, 127
2, 30229, Note_on_c, 0, 67, 0
2, 30235, Note_on_c, 0, 62, 0
2, 30242, Note_on_c, 0, 56, 0
2, 30341, Control_c, 0, 64, 0
2, 30347, Note_on_c, 0, 40, 59
2, 30352, Note_on_c, 0, 28, 51
2, 30375, Control_c, 0, 64, 127
2, 30411, Note_on_c, 0, 28, 0
2, 30417, Note_on_c, 0, 40, 0
2, 30433, Note_on_c, 0, 40, 80
2, 30434, Note_on_c, 0, 86, 0
2, 30434, Note_on_c, 0, 28, 83
2, 30441, Note_on_c, 0, 81, 0
2, 30448, Note_on_c, 0, 74, 0
2, 30456, Note_on_c, 0, 28, 0
2, 30464, Note_on_c, 0, 40, 0
2, 30557, Note_on_c, 0, 76, 83
2, 30557, Note_on_c, 0, 71, 83
2, 30558, Note_on_c, 0, 68, 80
2, 30559, Note_on_c, 0, 65, 95
2, 30559, Note_on_c, 0, 64, 87
2, 30562, Note_on_c, 0, 56, 69
2, 30567, Control_c, 0, 64, 0
2, 30569, Note_on_c, 0, 56, 0
2, 30605, Control_c, 0, 64, 127
2, 30654, Note_on_c, 0, 64, 0
2, 30671, Note_on_c, 0, 76, 0
2, 30678, Note_on_c, 0, 71, 0
2, 30681, Note_on_c, 0, 62, 51
2, 30689, Note_on_c, 0, 62, 0
2, 30690, Note_on_c, 0, 68, 0
2, 30693, Note_on_c, 0, 65, 0
2, 30720, Note_on_c, 0, 72, 50
2, 30721, Note_on_c, 0, 69, 66
2, 30722, Control_c, 0, 64, 0
2, 30793, Note_on_c, 0, 69, 0
2, 30796, Control_c, 0, 64, 127
2, 30803, Note_on_c, 0, 45, 52
2, 30805, Note_on_c, 0, 52, 32
2, 30807, Note_on_c, 0, 72, 0
2, 30828, Control_c, 0, 64, 0
2, 30843, Note_on_c, 0, 64, 42
2, 30845, Note_on_c, 0, 60, 36
2, 30892, Note_on_c, 0, 60, 0
2, 30906, Note_on_c, 0, 64, 0
2, 30926, Note_on_c, 0, 52, 0
2, 30967, Note_on_c, 0, 64, 37
2, 30968, Note_on_c, 0, 57, 36
2, 30968, Note_on_c, 0, 52, 25
2, 30970, Note_on_c, 0, 60, 26
2, 31014, Note_on_c, 0, 45, 0
2, 31037, Note_on_c, 0, 60, 0
2, 31041, Note_on_c, 0, 45, 53
2, 31102, Note_on_c, 0, 64, 0
2, 31128, Note_on_c, 0, 45, 0
2, 31164, Note_on_c, 0, 45, 36
2, 31179, Note_on_c, 0, 52, 0
2, 31198, Note_on_c, 0, 67, 46
2, 31215, Note_on_c, 0, 68, 34
2, 31227, Note_on_c, 0, 67, 0
2, 31233, Note_on_c, 0, 68, 0
2, 31242, Note_on_c, 0, 69, 36
2, 31250, Note_on_c, 0, 57, 0
2, 31260, Note_on_c, 0, 69, 0
2, 31276, Note_on_c, 0, 72, 82
2, 31282, Note_on_c, 0, 57, 47
2, 31283, Note_on_c, 0, 53, 49
2, 31301, Note_on_c, 0, 72, 0
2, 31321, Note_on_c, 0, 74, 96
2, 31348, Note_on_c, 0, 57, 0
2, 31367, Note_on_c, 0, 74, 0
2, 31396, Note_on_c, 0, 72, 84
2, 31400, Note_on_c, 0, 57, 48
2, 31426, Note_on_c, 0, 72, 0
2, 31472, Note_on_c, 0, 57, 0
2, 31472, Note_on_c, 0, 68, 47
2, 31473, Note_on_c, 0, 67, 42
2, 31481, Note_on_c, 0, 67, 0
2, 31492, Note_on_c, 0, 68, 0
2, 31494, Note_on_c, 0, 69, 65
2, 31502, Note_on_c, 0, 53, 0
2, 31514, Note_on_c, 0, 69, 0
2, 31555, Note_on_c, 0, 53, 41
2, 31557, Note_on_c, 0, 60, 53
2, 31598, Note_on_c, 0, 60, 0
2, 31603, Note_on_c, 0, 53, 0
2, 31612, Note_on_c, 0, 45, 0
2, 31636, Note_on_c, 0, 62, 95
2, 31638, Note_on_c, 0, 45, 38
2, 31638, Note_on_c, 0, 69, 80
2, 31640, Note_on_c, 0, 54, 49
2, 31690, Note_on_c, 0, 62, 0
2, 31696, Note_on_c, 0, 63, 48
2, 31710, Note_on_c, 0, 69, 0
2, 31715, Note_on_c, 0, 62, 58
2, 31732, Note_on_c, 0, 63, 0
2, 31748, Note_on_c, 0, 62, 0
2, 31752, Note_on_c, 0, 60, 53
2, 31774, Note_on_c, 0, 60, 0
2, 31781, Note_on_c, 0, 57, 37
2, 31799, Note_on_c, 0, 57, 0
2, 31814, Note_on_c, 0, 62, 66
2, 31851, Note_on_c, 0, 62, 0
2, 31885, Note_on_c, 0, 60, 91
2, 31971, Note_on_c, 0, 45, 0
2, 32004, Note_on_c, 0, 45, 37
2, 32008, Note_on_c, 0, 54, 0
2, 32040, Note_on_c, 0, 54, 46
2, 32042, Note_on_c, 0, 60, 0
2, 32044, Note_on_c, 0, 57, 51
2, 32066, Note_on_c, 0, 45, 0
2, 32073, Control_c, 0, 64, 127
2, 32106, Note_on_c, 0, 54, 0
2, 32120, Note_on_c, 0, 45, 60
2, 32122, Note_on_c, 0, 57, 0
2, 32130, Control_c, 0, 64, 0
2, 32158, Note_on_c, 0, 53, 48
2, 32221, Note_on_c, 0, 53, 0
2, 32236, Note_on_c, 0, 64, 79
2, 32237, Note_on_c, 0, 69, 75
2, 32240, Note_on_c, 0, 53, 55
2, 32268, Note_on_c, 0, 69, 0
2, 32269, Note_on_c, 0, 64, 0
2, 32283, Note_on_c, 0, 60, 40
2, 32291, Note_on_c, 0, 45, 0
2, 32352, Note_on_c, 0, 53, 0
2, 32358, Note_on_c, 0, 45, 44
2, 32360, Note_on_c, 0, 60, 0
2, 32394, Note_on_c, 0, 63, 54
2, 32394, Note_on_c, 0, 60, 58
2, 32397, Note_on_c, 0, 52, 44
2, 32398, Note_on_c, 0, 67, 47
2, 32404, Note_on_c, 0, 45, 0
2, 32422, Note_on_c, 0, 63, 0
2, 32423, Note_on_c, 0, 64, 45
2, 32437, Note_on_c, 0, 67, 0
2, 32437, Note_on_c, 0, 60, 0
2, 32445, Note_on_c, 0, 64, 0
2, 32463, Note_on_c, 0, 52, 0
2, 32467, Control_c, 0, 64, 127
2, 32470, Note_on_c, 0, 50, 48
2, 32478, Note_on_c, 0, 50, 0
2, 32486, Note_on_c, 0, 44, 69
2, 32489, Control_c, 0, 64, 0
2, 32492, Note_on_c, 0, 54, 71
2, 32601, Note_on_c, 0, 59, 82
2, 32601, Control_c, 0, 64, 127
2, 32601, Note_on_c, 0, 60, 88
2, 32625, Note_on_c, 0, 54, 0
2, 32625, Note_on_c, 0, 50, 29
2, 32636, Note_on_c, 0, 60, 0
2, 32638, Note_on_c, 0, 59, 0
2, 32640, Note_on_c, 0, 50, 0
2, 32641, Note_on_c, 0, 44, 0
2, 32643, Note_on_c, 0, 53, 34
2, 32647, Note_on_c, 0, 43, 44
2, 32647, Control_c, 0, 64, 0
2, 32659, Note_on_c, 0, 58, 62
2, 32729, Note_on_c, 0, 57, 55
2, 32731, Note_on_c, 0, 58, 0
2, 32745, Control_c, 0, 64, 127
2, 32749, Control_c, 0, 64, 0
2, 32762, Note_on_c, 0, 57, 0
2, 32770, Note_on_c, 0, 58, 53
2, 32792, Note_on_c, 0, 58, 0
2, 32805, Note_on_c, 0, 62, 66
2, 32825, Note_on_c, 0, 62, 0
2, 32843, Note_on_c, 0, 65, 75
2, 32866, Note_on_c, 0, 65, 0
2, 32903, Note_on_c, 0, 70, 83
2, 32953, Note_on_c, 0, 70, 0
2, 32956, Control_c, 0, 64, 127
2, 32976, Note_on_c, 0, 69, 83
2, 32980, Control_c, 0, 64, 0
2, 33010, Note_on_c, 0, 69, 0
2, 33015, Note_on_c, 0, 43, 0
2, 33027, Note_on_c, 0, 70, 72
2, 33032, Note_on_c, 0, 53, 0
2, 33034, Control_c, 0, 64, 127
2, 33070, Note_on_c, 0, 70, 0
2, 33083, Note_on_c, 0, 72, 80
2, 33112, Control_c, 0, 64, 0
2, 33121, Note_on_c, 0, 72, 0
2, 33145, Control_c, 0, 64, 127
2, 33150, Note_on_c, 0, 74, 53
2, 33182, Note_on_c, 0, 74, 0
2, 33201, Note_on_c, 0, 75, 71
2, 33206, Note_on_c, 0, 63, 56
2, 33207, Control_c, 0, 64, 0
2, 33215, Note_on_c, 0, 55, 34
2, 33235, Note_on_c, 0, 75, 0
2, 33247, Note_on_c, 0, 63, 0
2, 33247, Note_on_c, 0, 67, 48
2, 33251, Control_c, 0, 64, 127
2, 33277, Control_c, 0, 64, 0
2, 33283, Control_c, 0, 64, 127
2, 33300, Note_on_c, 0, 67, 0
2, 33313, Control_c, 0, 64, 0
2, 33316, Note_on_c, 0, 70, 57
2, 33341, Note_on_c, 0, 70, 0
2, 33355, Control_c, 0, 64, 127
2, 33359, Note_on_c, 0, 75, 53
2, 33388, Note_on_c, 0, 75, 0
2, 33396, Note_on_c, 0, 55, 0
2, 33425, Note_on_c, 0, 79, 58
2, 33425, Note_on_c, 0, 55, 44
2, 33428, Note_on_c, 0, 63, 30
2, 33431, Note_on_c, 0, 61, 35
2, 33434, Note_on_c, 0, 63, 0
2, 33438, Note_on_c, 0, 61, 0
2, 33450, Note_on_c, 0, 55, 0
2, 33455, Note_on_c, 0, 79, 0
2, 33473, Note_on_c, 0, 82, 51
2, 33528, Note_on_c, 0, 82, 0
2, 33545, Note_on_c, 0, 44, 74
2, 33547, Note_on_c, 0, 37, 74
2, 33547, Note_on_c, 0, 87, 73
2, 33560, Control_c, 0, 64, 0
2, 33592, Control_c, 0, 64, 127
2, 33610, Note_on_c, 0, 37, 0
2, 33619, Note_on_c, 0, 44, 0
2, 33629, Note_on_c, 0, 87, 0
2, 33631, Note_on_c, 0, 83, 58
2, 33659, Note_on_c, 0, 83, 0
2, 33668, Note_on_c, 0, 85, 64
2, 33697, Note_on_c, 0, 85, 0
2, 33704, Note_on_c, 0, 63, 55
2, 33705, Note_on_c, 0, 56, 44
2, 33707, Note_on_c, 0, 53, 38
2, 33707, Note_on_c, 0, 59, 52
2, 33709, Note_on_c, 0, 87, 50
2, 33712, Control_c, 0, 64, 0
2, 33731, Note_on_c, 0, 87, 0
2, 33746, Note_on_c, 0, 89, 57
2, 33770, Note_on_c, 0, 89, 0
2, 33783, Note_on_c, 0, 91, 70
2, 33791, Note_on_c, 0, 63, 0
2, 33806, Note_on_c, 0, 91, 0
2, 33810, Note_on_c, 0, 59, 0
2, 33819, Note_on_c, 0, 56, 0
2, 33821, Note_on_c, 0, 53, 0
2, 33823, Note_on_c, 0, 92, 67
2, 33843, Note_on_c, 0, 92, 0
2, 33859, Note_on_c, 0, 94, 63
2, 33882, Note_on_c, 0, 94, 0
2, 33898, Note_on_c, 0, 95, 75
2, 33907, Control_c, 0, 64, 127
2, 33924, Note_on_c, 0, 95, 0
2, 33937, Note_on_c, 0, 96, 71
2, 33949, Note_on_c, 0, 44, 32
2, 33951, Control_c, 0, 64, 0
2, 33951, Note_on_c, 0, 37, 31
2, 33964, Note_on_c, 0, 96, 0
2, 33974, Note_on_c, 0, 37, 0
2, 33974, Note_on_c, 0, 97, 69
2, 33985, Control_c, 0, 64, 127
2, 33986, Note_on_c, 0, 44, 0
2, 33997, Note_on_c, 0, 97, 0
2, 34009, Note_on_c, 0, 98, 62
2, 34026, Note_on_c, 0, 98, 0
2, 34041, Note_on_c, 0, 99, 71
2, 34072, Note_on_c, 0, 99, 0
2, 34072, Note_on_c, 0, 100, 81
2, 34088, Note_on_c, 0, 43, 1
2, 34094, Note_on_c, 0, 36, 35
2, 34095, Control_c, 0, 64, 0
2, 34098, Note_on_c, 0, 52, 58
2, 34101, Note_on_c, 0, 100, 0
2, 34111, Note_on_c, 0, 97, 56
2, 34139, Control_c, 0, 64, 127
2, 34169, Note_on_c, 0, 97, 0
2, 34173, Note_on_c, 0, 36, 0
2, 34189, Note_on_c, 0, 43, 0
2, 34202, Note_on_c, 0, 96, 79
2, 34203, Note_on_c, 0, 52, 0
2, 34241, Note_on_c, 0, 96, 0
2, 34276, Note_on_c, 0, 94, 83
2, 34280, Note_on_c, 0, 64, 58
2, 34284, Note_on_c, 0, 58, 36
2, 34286, Note_on_c, 0, 60, 47
2, 34294, Control_c, 0, 64, 0
2, 34318, Note_on_c, 0, 94, 0
2, 34323, Note_on_c, 0, 93, 60
2, 34345, Note_on_c, 0, 93, 0
2, 34355, Note_on_c, 0, 94, 61
2, 34378, Note_on_c, 0, 94, 0
2, 34394, Note_on_c, 0, 96, 74
2, 34395, Note_on_c, 0, 64, 0
2, 34398, Control_c, 0, 64, 127
2, 34423, Note_on_c, 0, 96, 0
2, 34424, Note_on_c, 0, 64, 14
2, 34440, Note_on_c, 0, 89, 27
2, 34456, Note_on_c, 0, 89, 0
2, 34469, Note_on_c, 0, 91, 52
2, 34472, Note_on_c, 0, 64, 0
2, 34491, Note_on_c, 0, 58, 0
2, 34492, Note_on_c, 0, 91, 0
2, 34496, Note_on_c, 0, 60, 0
2, 34512, Note_on_c, 0, 93, 76
2, 34532, Note_on_c, 0, 93, 0
2, 34549, Note_on_c, 0, 60, 38
2, 34549, Note_on_c, 0, 64, 24
2, 34551, Note_on_c, 0, 53, 24
2, 34553, Note_on_c, 0, 57, 37
2, 34554, Note_on_c, 0, 88, 58
2, 34558, Control_c, 0, 64, 0
2, 34581, Note_on_c, 0, 64, 0
2, 34587, Note_on_c, 0, 60, 0
2, 34589, Note_on_c, 0, 57, 0
2, 34589, Note_on_c, 0, 88, 0
2, 34589, Note_on_c, 0, 89, 64
2, 34604, Note_on_c, 0, 53, 0
2, 34610, Note_on_c, 0, 89, 0
2, 34625, Note_on_c, 0, 91, 75
2, 34631, Control_c, 0, 64, 127
2, 34646, Note_on_c, 0, 91, 0
2, 34653, Control_c, 0, 64, 0
2, 34665, Note_on_c, 0, 84, 55
2, 34666, Note_on_c, 0, 41, 39
2, 34666, Note_on_c, 0, 48, 38
2, 34676, Note_on_c, 0, 41, 0
2, 34687, Note_on_c, 0, 48, 0
2, 34695, Note_on_c, 0, 84, 0
2, 34701, Note_on_c, 0, 86, 69
2, 34722, Note_on_c, 0, 86, 0
2, 34737, Control_c, 0, 64, 127
2, 34740, Note_on_c, 0, 88, 80
2, 34763, Note_on_c, 0, 88, 0
2, 34781, Control_c, 0, 64, 0
2, 34782, Note_on_c, 0, 62, 42
2, 34783, Note_on_c, 0, 81, 46
2, 34784, Note_on_c, 0, 60, 43
2, 34786, Note_on_c, 0, 53, 26
2, 34786, Note_on_c, 0, 57, 35
2, 34799, Note_on_c, 0, 62, 0
2, 34803, Note_on_c, 0, 57, 0
2, 34805, Note_on_c, 0, 60, 0
2, 34806, Note_on_c, 0, 53, 0
2, 34840, Note_on_c, 0, 81, 0
2, 34862, Note_on_c, 0, 81, 60
2, 34864, Note_on_c, 0, 62, 46
2, 34866, Note_on_c, 0, 60, 44
2, 34867, Control_c, 0, 64, 127
2, 34868, Note_on_c, 0, 57, 39
2, 34878, Note_on_c, 0, 81, 0
2, 34879, Control_c, 0, 64, 0
2, 34881, Note_on_c, 0, 62, 0
2, 34884, Note_on_c, 0, 60, 0
2, 34885, Note_on_c, 0, 57, 0
2, 34996, Note_on_c, 0, 48, 59
2, 35023, Note_on_c, 0, 48, 0
2, 35032, Control_c, 0, 64, 127
2, 35040, Note_on_c, 0, 41, 60
2, 35047, Note_on_c, 0, 41, 0
2, 35088, Control_c, 0, 64, 0
2, 35115, Note_on_c, 0, 58, 60
2, 35117, Note_on_c, 0, 68, 83
2, 35119, Note_on_c, 0, 74, 75
2, 35120, Note_on_c, 0, 64, 78
2, 35122, Control_c, 0, 64, 127
2, 35138, Note_on_c, 0, 74, 0
2, 35145, Note_on_c, 0, 64, 0
2, 35150, Note_on_c, 0, 68, 0
2, 35150, Note_on_c, 0, 58, 0
2, 35150, Control_c, 0, 64, 0
2, 35163, Note_on_c, 0, 72, 46
2, 35164, Note_on_c, 0, 67, 68
2, 35166, Note_on_c, 0, 62, 62
2, 35167, Note_on_c, 0, 57, 48
2, 35181, Note_on_c, 0, 72, 0
2, 35185, Note_on_c, 0, 67, 0
2, 35192, Note_on_c, 0, 62, 0
2, 35216, Note_on_c, 0, 57, 0
2, 35240, Note_on_c, 0, 69, 72
2, 35242, Note_on_c, 0, 64, 68
2, 35242, Note_on_c, 0, 53, 51
2, 35246, Note_on_c, 0, 60, 60
2, 35260, Note_on_c, 0, 64, 0
2, 35261, Note_on_c, 0, 69, 0
2, 35265, Note_on_c, 0, 60, 0
2, 35272, Note_on_c, 0, 53, 0
2, 35292, Note_on_c, 0, 52, 37
2, 35293, Note_on_c, 0, 62, 40
2, 35295, Note_on_c, 0, 60, 35
2, 35313, Note_on_c, 0, 57, 7
2, 35315, Note_on_c, 0, 62, 0
2, 35345, Note_on_c, 0, 57, 0
2, 35347, Note_on_c, 0, 60, 0
2, 35363, Note_on_c, 0, 67, 67
2, 35364, Note_on_c, 0, 60, 71
2, 35365, Note_on_c, 0, 52, 0
2, 35366, Note_on_c, 0, 55, 62
2, 35367, Note_on_c, 0, 57, 64
2, 35391, Note_on_c, 0, 67, 0
2, 35393, Note_on_c, 0, 60, 0
2, 35393, Note_on_c, 0, 57, 0
2, 35402, Note_on_c, 0, 55, 0
2, 35409, Note_on_c, 0, 65, 51
2, 35409, Note_on_c, 0, 53, 51
2, 35411, Note_on_c, 0, 60, 53
2, 35411, Note_on_c, 0, 57, 37
2, 35427, Note_on_c, 0, 53, 0
2, 35429, Control_c, 0, 64, 127
2, 35473, Note_on_c, 0, 57, 0
2, 35489, Note_on_c, 0, 60, 0
2, 35489, Note_on_c, 0, 65, 0
2, 35489, Note_on_c, 0, 50, 48
2, 35506, Control_c, 0, 64, 0
2, 35509, Note_on_c, 0, 50, 0
2, 35523, Note_on_c, 0, 56, 45
2, 35524, Note_on_c, 0, 53, 44
2, 35524, Note_on_c, 0, 59, 57
2, 35525, Note_on_c, 0, 62, 57
2, 35528, Note_on_c, 0, 44, 27
2, 35580, Control_c, 0, 64, 127
2, 35582, Note_on_c, 0, 44, 0
2, 35596, Note_on_c, 0, 53, 0
2, 35601, Note_on_c, 0, 44, 71
2, 35606, Note_on_c, 0, 56, 0
2, 35649, Note_on_c, 0, 44, 0
2, 35652, Note_on_c, 0, 59, 0
2, 35676, Note_on_c, 0, 62, 0
2, 35755, Note_on_c, 0, 76, 79
2, 35755, Note_on_c, 0, 68, 70
2, 35756, Note_on_c, 0, 71, 76
2, 35756, Note_on_c, 0, 65, 89
2, 35756, Control_c, 0, 64, 0
2, 35758, Note_on_c, 0, 64, 75
2, 35763, Note_on_c, 0, 74, 26
2, 35768, Note_on_c, 0, 65, 0
2, 35771, Note_on_c, 0, 68, 0
2, 35771, Note_on_c, 0, 74, 0
2, 35772, Note_on_c, 0, 64, 0
2, 35773, Note_on_c, 0, 76, 0
2, 35776, Note_on_c, 0, 71, 0
2, 35791, Note_on_c, 0, 76, 67
2, 35792, Note_on_c, 0, 64, 54
2, 35793, Note_on_c, 0, 68, 57
2, 35795, Note_on_c, 0, 71, 49
2, 35795, Note_on_c, 0, 65, 58
2, 35806, Note_on_c, 0, 65, 0
2, 35811, Note_on_c, 0, 68, 0
2, 35811, Note_on_c, 0, 76, 0
2, 35812, Note_on_c, 0, 71, 0
2, 35814, Note_on_c, 0, 64, 0
2, 35831, Note_on_c, 0, 62, 60
2, 35833, Note_on_c, 0, 74, 60
2, 35841, Note_on_c, 0, 62, 0
2, 35849, Note_on_c, 0, 74, 0
2, 35873, Note_on_c, 0, 67, 79
2, 35874, Note_on_c, 0, 78, 40
2, 35875, Note_on_c, 0, 68, 78
2, 35877, Note_on_c, 0, 79, 78
2, 35878, Note_on_c, 0, 71, 72
2, 35881, Note_on_c, 0, 74, 50
2, 35890, Note_on_c, 0, 74, 0
2, 35908, Note_on_c, 0, 68, 0
2, 35910, Note_on_c, 0, 79, 0
2, 35911, Note_on_c, 0, 78, 0
2, 35912, Note_on_c, 0, 67, 0
2, 35914, Note_on_c, 0, 71, 0
2, 35947, Note_on_c, 0, 79, 71
2, 35949, Note_on_c, 0, 71, 63
2, 35949, Note_on_c, 0, 67, 74
2, 35950, Note_on_c, 0, 68, 52
2, 35958, Note_on_c, 0, 74, 34
2, 35963, Control_c, 0, 64, 127
2, 35968, Note_on_c, 0, 79, 0
2, 35969, Note_on_c, 0, 67, 0
2, 35979, Control_c, 0, 64, 0
2, 35980, Note_on_c, 0, 68, 0
2, 35982, Note_on_c, 0, 74, 0
2, 35982, Note_on_c, 0, 71, 0
2, 35993, Note_on_c, 0, 78, 46
2, 35995, Note_on_c, 0, 65, 52
2, 36000, Note_on_c, 0, 78, 0
2, 36001, Note_on_c, 0, 71, 53
2, 36002, Note_on_c, 0, 67, 36
2, 36002, Note_on_c, 0, 77, 62
2, 36017, Note_on_c, 0, 65, 0
2, 36019, Note_on_c, 0, 67, 0
2, 36021, Note_on_c, 0, 77, 0
2, 36027, Note_on_c, 0, 71, 0
2, 36068, Note_on_c, 0, 77, 54
2, 36072, Note_on_c, 0, 71, 71
2, 36074, Note_on_c, 0, 65, 70
2, 36075, Note_on_c, 0, 67, 48
2, 36076, Note_on_c, 0, 69, 58
2, 36079, Control_c, 0, 64, 127
2, 36083, Note_on_c, 0, 69, 0
2, 36089, Note_on_c, 0, 65, 0
2, 36093, Note_on_c, 0, 77, 0
2, 36093, Note_on_c, 0, 71, 0
2, 36094, Note_on_c, 0, 67, 0
2, 36105, Control_c, 0, 64, 0
2, 36118, Note_on_c, 0, 65, 66
2, 36120, Note_on_c, 0, 64, 54
2, 36122, Note_on_c, 0, 76, 31
2, 36123, Note_on_c, 0, 68, 34
2, 36124, Note_on_c, 0, 74, 34
2, 36124, Note_on_c, 0, 73, 19
2, 36133, Control_c, 0, 64, 127
2, 36134, Note_on_c, 0, 73, 0
2, 36164, Note_on_c, 0, 74, 0
2, 36167, Note_on_c, 0, 76, 0
2, 36167, Note_on_c, 0, 64, 0
2, 36169, Note_on_c, 0, 68, 0
2, 36170, Note_on_c, 0, 65, 0
2, 36193, Note_on_c, 0, 74, 64
2, 36194, Control_c, 0, 64, 0
2, 36194, Note_on_c, 0, 62, 64
2, 36195, Note_on_c, 0, 68, 57
2, 36195, Note_on_c, 0, 71, 58
2, 36196, Note_on_c, 0, 65, 66
2, 36215, Note_on_c, 0, 71, 0
2, 36218, Note_on_c, 0, 74, 0
2, 36220, Note_on_c, 0, 68, 0
2, 36227, Note_on_c, 0, 65, 0
2, 36230, Control_c, 0, 64, 127
2, 36236, Note_on_c, 0, 62, 0
2, 36249, Note_on_c, 0, 71, 55
2, 36254, Note_on_c, 0, 59, 51
2, 36255, Note_on_c, 0, 65, 39
2, 36257, Note_on_c, 0, 62, 50
2, 36262, Note_on_c, 0, 68, 25
2, 36283, Note_on_c, 0, 68, 0
2, 36283, Note_on_c, 0, 65, 0
2, 36293, Note_on_c, 0, 71, 0
2, 36293, Note_on_c, 0, 59, 0
2, 36302, Note_on_c, 0, 62, 0
2, 36348, Control_c, 0, 64, 0
2, 36357, Note_on_c, 0, 44, 45
2, 36357, Note_on_c, 0, 54, 42
2, 36360, Note_on_c, 0, 59, 51
2, 36362, Note_on_c, 0, 62, 40
2, 36374, Control_c, 0, 64, 127
2, 36375, Note_on_c, 0, 62, 0
2, 36422, Note_on_c, 0, 59, 0
2, 36429, Note_on_c, 0, 54, 0
2, 36436, Note_on_c, 0, 44, 0
2, 36436, Note_on_c, 0, 58, 60
2, 36442, Note_on_c, 0, 53, 46
2, 36447, Note_on_c, 0, 43, 37
2, 36456, Control_c, 0, 64, 0
2, 36498, Note_on_c, 0, 58, 0
2, 36515, Note_on_c, 0, 60, 19
2, 36532, Note_on_c, 0, 58, 38
2, 36540, Note_on_c, 0, 60, 0
2, 36540, Note_on_c, 0, 50, 24
2, 36562, Note_on_c, 0, 57, 45
2, 36568, Note_on_c, 0, 58, 0
2, 36581, Note_on_c, 0, 57, 0
2, 36584, Note_on_c, 0, 43, 0
2, 36590, Note_on_c, 0, 50, 0
2, 36600, Note_on_c, 0, 43, 53
2, 36666, Note_on_c, 0, 53, 0
2, 36677, Note_on_c, 0, 50, 45
2, 36721, Note_on_c, 0, 53, 31
2, 36743, Note_on_c, 0, 53, 0
2, 36749, Note_on_c, 0, 57, 52
2, 36767, Note_on_c, 0, 57, 0
2, 36778, Note_on_c, 0, 60, 67
2, 36794, Note_on_c, 0, 50, 0
2, 36802, Note_on_c, 0, 53, 32
2, 36805, Note_on_c, 0, 59, 54
2, 36808, Note_on_c, 0, 60, 0
2, 36823, Note_on_c, 0, 59, 0
2, 36831, Note_on_c, 0, 57, 59
2, 36848, Note_on_c, 0, 57, 0
2, 36861, Note_on_c, 0, 58, 45
2, 36868, Note_on_c, 0, 58, 0
2, 36885, Note_on_c, 0, 62, 59
2, 36889, Note_on_c, 0, 43, 0
2, 36903, Note_on_c, 0, 53, 0
2, 36907, Note_on_c, 0, 62, 0
2, 36912, Note_on_c, 0, 66, 62
2, 36934, Note_on_c, 0, 66, 0
2, 36948, Note_on_c, 0, 69, 77
2, 36973, Note_on_c, 0, 66, 56
2, 36975, Note_on_c, 0, 69, 0
2, 36997, Note_on_c, 0, 66, 0
2, 37012, Note_on_c, 0, 67, 50
2, 37025, Note_on_c, 0, 62, 51
2, 37032, Note_on_c, 0, 62, 0
2, 37037, Note_on_c, 0, 67, 0
2, 37043, Note_on_c, 0, 69, 24
2, 37074, Note_on_c, 0, 69, 0
2, 37078, Note_on_c, 0, 70, 54
2, 37092, Control_c, 0, 64, 127
2, 37096, Note_on_c, 0, 70, 0
2, 37111, Note_on_c, 0, 72, 50
2, 37112, Control_c, 0, 64, 0
2, 37116, Control_c, 0, 64, 127
2, 37118, Control_c, 0, 64, 0
2, 37130, Control_c, 0, 64, 127
2, 37132, Note_on_c, 0, 72, 0
2, 37138, Note_on_c, 0, 73, 52
2, 37166, Note_on_c, 0, 75, 55
2, 37168, Note_on_c, 0, 73, 0
2, 37170, Control_c, 0, 64, 0
2, 37188, Note_on_c, 0, 75, 0
2, 37196, Note_on_c, 0, 76, 50
2, 37199, Note_on_c, 0, 62, 26
2, 37200, Note_on_c, 0, 52, 30
2, 37200, Note_on_c, 0, 58, 27
2, 37207, Control_c, 0, 64, 127
2, 37217, Note_on_c, 0, 76, 0
2, 37229, Note_on_c, 0, 78, 47
2, 37241, Note_on_c, 0, 62, 0
2, 37244, Note_on_c, 0, 78, 0
2, 37259, Note_on_c, 0, 79, 58
2, 37273, Note_on_c, 0, 62, 33
2, 37278, Note_on_c, 0, 79, 0
2, 37288, Note_on_c, 0, 81, 48
2, 37295, Note_on_c, 0, 62, 0
2, 37312, Note_on_c, 0, 58, 0
2, 37317, Note_on_c, 0, 52, 0
2, 37319, Note_on_c, 0, 82, 37
2, 37322, Note_on_c, 0, 81, 0
2, 37342, Note_on_c, 0, 82, 0
2, 37350, Note_on_c, 0, 83, 35
2, 37369, Note_on_c, 0, 83, 0
2, 37383, Note_on_c, 0, 84, 68
2, 37402, Note_on_c, 0, 84, 0
2, 37423, Note_on_c, 0, 86, 85
2, 37433, Control_c, 0, 64, 0
2, 37440, Note_on_c, 0, 86, 0
2, 37440, System_exclusive, 10, 67, 16, 42, 0, 0, 0, 25, 0, 0, 247
2, 37456, Note_on_c, 0, 84, 60
2, 37458, Note_on_c, 0, 48, 51
2, 37567, Note_on_c, 0, 81, 62
2, 37574, Control_c, 0, 64, 127
2, 37576, Note_on_c, 0, 84, 0
2, 37638, Note_on_c, 0, 72, 52
2, 37640, Note_on_c, 0, 36, 57
2, 37649, Note_on_c, 0, 81, 0
2, 37658, Note_on_c, 0, 72, 0
2, 37660, Note_on_c, 0, 36, 0
2, 37684, Note_on_c, 0, 36, 40
2, 37712, Note_on_c, 0, 36, 0
2, 37762, Note_on_c, 0, 36, 58
2, 37777, Note_on_c, 0, 36, 0
2, 37799, Note_on_c, 0, 48, 0
2, 37881, Note_on_c, 0, 62, 71
2, 37882, Note_on_c, 0, 58, 68
2, 37883, Note_on_c, 0, 69, 66
2, 37884, Note_on_c, 0, 65, 55
2, 37885, Note_on_c, 0, 57, 74
2, 37890, Control_c, 0, 64, 0
2, 38002, Note_on_c, 0, 48, 58
2, 38003, Control_c, 0, 64, 127
2, 38009, Note_on_c, 0, 58, 0
2, 38016, Note_on_c, 0, 65, 0
2, 38021, Note_on_c, 0, 48, 0
2, 38024, Note_on_c, 0, 62, 0
2, 38025, Note_on_c, 0, 69, 0
2, 38039, Note_on_c, 0, 57, 0
2, 38048, Note_on_c, 0, 48, 45
2, 38095, Note_on_c, 0, 48, 0
2, 38119, Note_on_c, 0, 75, 58
2, 38119, Control_c, 0, 64, 0
2, 38119, Note_on_c, 0, 48, 17
2, 38120, Note_on_c, 0, 58, 63
2, 38121, Note_on_c, 0, 68, 53
2, 38121, Note_on_c, 0, 72, 41
2, 38123, Note_on_c, 0, 64, 54
2, 38150, Note_on_c, 0, 48, 0
2, 38238, Note_on_c, 0, 38, 57
2, 38266, Note_on_c, 0, 38, 0
2, 38269, Note_on_c, 0, 64, 0
2, 38274, Note_on_c, 0, 68, 0
2, 38275, Note_on_c, 0, 72, 0
2, 38279, Note_on_c, 0, 75, 0
2, 38284, Note_on_c, 0, 36, 48
2, 38288, Note_on_c, 0, 58, 0
2, 38294, Note_on_c, 0, 36, 0
2, 38364, Note_on_c, 0, 33, 47
2, 38391, Note_on_c, 0, 33, 0
2, 38405, Note_on_c, 0, 84, 53
2, 38405, Note_on_c, 0, 50, 32
2, 38406, Note_on_c, 0, 41, 36
2, 38410, Note_on_c, 0, 72, 18
2, 38411, Note_on_c, 0, 79, 35
2, 38417, Note_on_c, 0, 41, 0
2, 38429, Note_on_c, 0, 50, 0
2, 38448, Note_on_c, 0, 84, 0
2, 38453, Note_on_c, 0, 79, 0
2, 38467, Note_on_c, 0, 72, 0
2, 38473, Control_c, 0, 64, 127
2, 38533, Note_on_c, 0, 62, 46
2, 38540, Note_on_c, 0, 60, 35
2, 38541, Note_on_c, 0, 53, 28
2, 38542, Note_on_c, 0, 57, 31
2, 38543, Note_on_c, 0, 62, 0
2, 38547, Control_c, 0, 64, 0
2, 38550, Note_on_c, 0, 60, 0
2, 38554, Note_on_c, 0, 57, 0
2, 38570, Note_on_c, 0, 53, 0
2, 38634, Note_on_c, 0, 81, 56
2, 38635, Note_on_c, 0, 69, 51
2, 38636, Note_on_c, 0, 76, 58
2, 38653, Note_on_c, 0, 81, 0
2, 38656, Note_on_c, 0, 69, 0
2, 38658, Note_on_c, 0, 76, 0
2, 38662, Note_on_c, 0, 36, 29
2, 38663, Note_on_c, 0, 48, 22
2, 38675, Note_on_c, 0, 36, 0
2, 38687, Control_c, 0, 64, 127
2, 38690, Note_on_c, 0, 48, 0
2, 38750, Note_on_c, 0, 67, 62
2, 38752, Note_on_c, 0, 79, 45
2, 38752, Note_on_c, 0, 72, 45
2, 38753, Note_on_c, 0, 76, 40
2, 38767, Note_on_c, 0, 79, 0
2, 38767, Note_on_c, 0, 67, 0
2, 38773, Note_on_c, 0, 72, 0
2, 38775, Note_on_c, 0, 76, 0
2, 38780, Control_c, 0, 64, 0
2, 38783, Note_on_c, 0, 62, 54
2, 38788, Note_on_c, 0, 60, 36
2, 38789, Note_on_c, 0, 53, 31
2, 38791, Note_on_c, 0, 62, 0
2, 38797, Note_on_c, 0, 60, 0
2, 38815, Note_on_c, 0, 53, 0
2, 38867, Note_on_c, 0, 77, 65
2, 38868, Note_on_c, 0, 72, 60
2, 38869, Note_on_c, 0, 65, 57
2, 38887, Note_on_c, 0, 65, 0
2, 38891, Note_on_c, 0, 72, 0
2, 38891, Note_on_c, 0, 77, 0
2, 38899, Note_on_c, 0, 41, 40
2, 38900, Note_on_c, 0, 50, 33
2, 38910, Note_on_c, 0, 41, 0
2, 38921, Note_on_c, 0, 50, 0
2, 38930, Control_c, 0, 64, 127
2, 38988, Note_on_c, 0, 76, 71
2, 38989, Note_on_c, 0, 69, 72
2, 38990, Note_on_c, 0, 64, 68
2, 38992, Note_on_c, 0, 72, 39
2, 39000, Control_c, 0, 64, 0
2, 39012, Note_on_c, 0, 62, 63
2, 39017, Note_on_c, 0, 53, 42
2, 39018, Note_on_c, 0, 60, 45
2, 39019, Note_on_c, 0, 57, 45
2, 39036, Control_c, 0, 64, 127
2, 39038, Note_on_c, 0, 62, 0
2, 39039, Note_on_c, 0, 60, 0
2, 39048, Note_on_c, 0, 57, 0
2, 39065, Note_on_c, 0, 53, 0
2, 39096, Note_on_c, 0, 76, 0
2, 39100, Note_on_c, 0, 64, 0
2, 39101, Note_on_c, 0, 72, 0
2, 39106, Note_on_c, 0, 69, 0
2, 39134, Control_c, 0, 64, 0
2, 39147, Note_on_c, 0, 41, 55
2, 39147, Note_on_c, 0, 74, 36
2, 39150, Note_on_c, 0, 69, 56
2, 39151, Note_on_c, 0, 50, 36
2, 39154, Note_on_c, 0, 62, 36
2, 39170, Control_c, 0, 64, 127
2, 39173, Note_on_c, 0, 41, 0
2, 39183, Note_on_c, 0, 50, 0
2, 39193, Note_on_c, 0, 69, 0
2, 39198, Note_on_c, 0, 74, 0
2, 39218, Note_on_c, 0, 62, 0
2, 39257, Control_c, 0, 64, 0
2, 39266, Note_on_c, 0, 55, 55
2, 39268, Note_on_c, 0, 72, 51
2, 39270, Note_on_c, 0, 67, 58
2, 39271, Note_on_c, 0, 60, 53
2, 39281, Control_c, 0, 64, 127
2, 39301, Note_on_c, 0, 55, 0
2, 39307, Note_on_c, 0, 67, 0
2, 39312, Note_on_c, 0, 72, 0
2, 39324, Note_on_c, 0, 60, 0
2, 39368, Control_c, 0, 64, 0
2, 39385, Note_on_c, 0, 44, 46
2, 39386, Note_on_c, 0, 53, 52
2, 39387, Note_on_c, 0, 71, 58
2, 39390, Note_on_c, 0, 68, 42
2, 39391, Note_on_c, 0, 59, 34
2, 39392, Note_on_c, 0, 65, 40
2, 39397, Control_c, 0, 64, 127
2, 39406, Note_on_c, 0, 44, 0
2, 39410, Note_on_c, 0, 53, 0
2, 39430, Note_on_c, 0, 59, 0
2, 39455, Note_on_c, 0, 65, 0
2, 39473, Note_on_c, 0, 68, 0
2, 39507, Note_on_c, 0, 62, 66
2, 39508, Note_on_c, 0, 56, 47
2, 39514, Note_on_c, 0, 59, 33
2, 39516, Note_on_c, 0, 62, 0
2, 39523, Note_on_c, 0, 59, 0
2, 39529, Note_on_c, 0, 71, 0
2, 39530, Note_on_c, 0, 56, 0
2, 39623, Note_on_c, 0, 56, 54
2, 39628, Note_on_c, 0, 47, 45
2, 39640, Note_on_c, 0, 56, 0
2, 39647, Control_c, 0, 64, 0
2, 39649, Note_on_c, 0, 47, 0
2, 39667, Note_on_c, 0, 55, 55
2, 39689, Note_on_c, 0, 55, 0
2, 39701, Note_on_c, 0, 56, 67
2, 39727, Note_on_c, 0, 56, 0
2, 39739, Note_on_c, 0, 58, 59
2, 39767, Note_on_c, 0, 58, 0
2, 39778, Note_on_c, 0, 59, 55
2, 39798, Note_on_c, 0, 59, 0
2, 39816, Note_on_c, 0, 61, 71
2, 39846, Note_on_c, 0, 61, 0
2, 39857, Note_on_c, 0, 56, 37
2, 39858, Note_on_c, 0, 47, 45
2, 39941, Note_on_c, 0, 47, 0
2, 39941, Control_c, 0, 64, 127
2, 39951, Note_on_c, 0, 56, 0
2, 39984, Control_c, 0, 64, 0
2, 39989, Note_on_c, 0, 56, 46
2, 39994, Note_on_c, 0, 59, 76
2, 40008, Note_on_c, 0, 56, 0
2, 40013, Note_on_c, 0, 59, 0
2, 40023, Note_on_c, 0, 61, 62
2, 40055, Note_on_c, 0, 61, 0
2, 40055, Note_on_c, 0, 62, 69
2, 40063, Control_c, 0, 64, 127
2, 40081, Note_on_c, 0, 62, 0
2, 40082, Note_on_c, 0, 64, 62
2, 40085, Control_c, 0, 64, 0
2, 40096, Note_on_c, 0, 56, 34
2, 40101, Note_on_c, 0, 64, 0
2, 40107, Note_on_c, 0, 53, 19
2, 40108, Note_on_c, 0, 61, 60
2, 40110, Note_on_c, 0, 56, 0
2, 40129, Note_on_c, 0, 61, 0
2, 40142, Note_on_c, 0, 62, 43
2, 40143, Control_c, 0, 64, 127
2, 40165, Note_on_c, 0, 64, 46
2, 40168, Note_on_c, 0, 53, 0
2, 40175, Note_on_c, 0, 62, 0
2, 40190, Note_on_c, 0, 64, 0
2, 40192, Note_on_c, 0, 65, 66
2, 40209, Note_on_c, 0, 65, 0
2, 40214, Note_on_c, 0, 56, 52
2, 40221, Note_on_c, 0, 64, 62
2, 40222, Control_c, 0, 64, 0
2, 40237, Note_on_c, 0, 56, 0
2, 40249, Note_on_c, 0, 65, 40
2, 40261, Control_c, 0, 64, 127
2, 40267, Note_on_c, 0, 64, 0
2, 40270, Note_on_c, 0, 65, 0
2, 40271, Note_on_c, 0, 66, 36
2, 40289, Note_on_c, 0, 67, 44
2, 40292, Note_on_c, 0, 66, 0
2, 40304, Note_on_c, 0, 67, 0
2, 40305, Note_on_c, 0, 68, 45
2, 40309, Note_on_c, 0, 54, 32
2, 40325, Note_on_c, 0, 54, 0
2, 40330, Note_on_c, 0, 68, 0
2, 40332, Note_on_c, 0, 69, 72
2, 40335, Control_c, 0, 64, 0
2, 40337, Note_on_c, 0, 44, 21
2, 40343, Note_on_c, 0, 69, 0
2, 40343, Note_on_c, 0, 53, 54
2, 40345, Note_on_c, 0, 43, 60
2, 40346, Note_on_c, 0, 44, 0
2, 40354, Note_on_c, 0, 43, 0
2, 40358, Note_on_c, 0, 53, 0
2, 40362, Note_on_c, 0, 72, 75
2, 40381, Control_c, 0, 64, 127
2, 40424, Note_on_c, 0, 69, 83
2, 40426, Note_on_c, 0, 72, 0
2, 40437, Note_on_c, 0, 71, 24
2, 40448, Note_on_c, 0, 71, 0
2, 40451, Control_c, 0, 64, 0
2, 40454, Note_on_c, 0, 69, 0
2, 40455, Note_on_c, 0, 62, 60
2, 40459, Note_on_c, 0, 58, 46
2, 40464, Note_on_c, 0, 62, 0
2, 40471, Note_on_c, 0, 65, 53
2, 40475, Note_on_c, 0, 58, 0
2, 40494, Control_c, 0, 64, 127
2, 40541, Note_on_c, 0, 65, 0
2, 40542, Note_on_c, 0, 62, 71
2, 40544, Note_on_c, 0, 50, 40
2, 40573, Note_on_c, 0, 62, 0
2, 40573, Control_c, 0, 64, 0
2, 40579, Note_on_c, 0, 50, 0
2, 40583, Note_on_c, 0, 53, 61
2, 40592, Note_on_c, 0, 58, 32
2, 40601, Note_on_c, 0, 53, 0
2, 40612, Control_c, 0, 64, 127
2, 40661, Note_on_c, 0, 43, 70
2, 40689, Note_on_c, 0, 43, 0
2, 40692, Control_c, 0, 64, 0
2, 40705, Note_on_c, 0, 51, 74
2, 40707, Note_on_c, 0, 49, 49
2, 40707, Note_on_c, 0, 37, 55
2, 40716, Note_on_c, 0, 49, 0
2, 40717, Note_on_c, 0, 58, 0
2, 40720, Control_c, 0, 64, 127
2, 40741, Note_on_c, 0, 37, 0
2, 40752, Note_on_c, 0, 51, 0
2, 40783, Note_on_c, 0, 36, 57
2, 40807, Control_c, 0, 64, 0
2, 40808, Note_on_c, 0, 36, 0
2, 40824, Note_on_c, 0, 52, 62
2, 40841, Control_c, 0, 64, 127
2, 40871, Note_on_c, 0, 52, 0
2, 40945, Note_on_c, 0, 64, 66
2, 40949, Note_on_c, 0, 58, 44
2, 40950, Note_on_c, 0, 60, 59
2, 40951, Control_c, 0, 64, 0
2, 40958, Note_on_c, 0, 64, 0
2, 40960, Note_on_c, 0, 60, 0
2, 40971, Note_on_c, 0, 58, 0
2, 41017, Note_on_c, 0, 48, 57
2, 41038, Note_on_c, 0, 48, 0
2, 41060, Note_on_c, 0, 72, 52
2, 41063, Note_on_c, 0, 68, 70
2, 41064, Note_on_c, 0, 64, 77
2, 41069, Note_on_c, 0, 58, 83
2, 41079, Control_c, 0, 64, 127
2, 41120, Note_on_c, 0, 72, 0
2, 41131, Note_on_c, 0, 58, 0
2, 41135, Note_on_c, 0, 68, 0
2, 41151, Note_on_c, 0, 64, 0
2, 41178, Control_c, 0, 64, 0
2, 41181, Note_on_c, 0, 75, 76
2, 41182, Note_on_c, 0, 68, 74
2, 41184, Note_on_c, 0, 64, 72
2, 41185, Note_on_c, 0, 61, 37
2, 41204, Control_c, 0, 64, 127
2, 41221, Note_on_c, 0, 61, 0
2, 41242, Note_on_c, 0, 64, 0
2, 41243, Note_on_c, 0, 75, 0
2, 41256, Note_on_c, 0, 68, 0
2, 41300, Control_c, 0, 64, 0
2, 41304, Note_on_c, 0, 76, 72
2, 41306, Note_on_c, 0, 64, 67
2, 41307, Note_on_c, 0, 58, 35
2, 41308, Note_on_c, 0, 69, 64
2, 41308, Note_on_c, 0, 72, 47
2, 41336, Control_c, 0, 64, 127
2, 41346, Note_on_c, 0, 64, 0
2, 41358, Note_on_c, 0, 69, 0
2, 41360, Note_on_c, 0, 72, 0
2, 41367, Note_on_c, 0, 76, 0
2, 41426, Note_on_c, 0, 79, 74
2, 41427, Note_on_c, 0, 73, 64
2, 41428, Control_c, 0, 64, 0
2, 41428, Note_on_c, 0, 64, 65
2, 41429, Note_on_c, 0, 69, 80
2, 41440, Note_on_c, 0, 77, 24
2, 41441, Note_on_c, 0, 58, 0
2, 41443, Control_c, 0, 64, 127
2, 41505, Note_on_c, 0, 79, 0
2, 41507, Note_on_c, 0, 69, 0
2, 41517, Note_on_c, 0, 77, 0
2, 41520, Note_on_c, 0, 73, 0
2, 41523, Note_on_c, 0, 64, 0
2, 41539, Control_c, 0, 64, 0
2, 41544, Note_on_c, 0, 77, 66
2, 41548, Note_on_c, 0, 67, 59
2, 41548, Note_on_c, 0, 72, 53
2, 41549, Note_on_c, 0, 62, 58
2, 41558, Control_c, 0, 64, 127
2, 41599, Note_on_c, 0, 77, 0
2, 41601, Note_on_c, 0, 72, 0
2, 41607, Note_on_c, 0, 67, 0
2, 41648, Note_on_c, 0, 62, 0
2, 41657, Control_c, 0, 64, 0
2, 41666, Note_on_c, 0, 74, 66
2, 41668, Note_on_c, 0, 64, 60
2, 41668, Note_on_c, 0, 70, 56
2, 41673, Note_on_c, 0, 58, 49
2, 41688, Control_c, 0, 64, 127
2, 41734, Note_on_c, 0, 70, 0
2, 41738, Note_on_c, 0, 74, 0
2, 41750, Note_on_c, 0, 64, 0
2, 41776, Note_on_c, 0, 58, 0
2, 41782, Control_c, 0, 64, 0
2, 41787, Note_on_c, 0, 72, 39
2, 41788, Note_on_c, 0, 67, 57
2, 41788, Note_on_c, 0, 57, 45
2, 41790, Note_on_c, 0, 62, 43
2, 41796, Control_c, 0, 64, 127
2, 41819, Note_on_c, 0, 72, 0
2, 41823, Note_on_c, 0, 67, 0
2, 41843, Note_on_c, 0, 62, 0
2, 41889, Note_on_c, 0, 57, 0
2, 41895, Control_c, 0, 64, 0
2, 41906, Note_on_c, 0, 69, 45
2, 41906, Note_on_c, 0, 64, 49
2, 41908, Note_on_c, 0, 53, 39
2, 41910, Note_on_c, 0, 60, 34
2, 41919, Control_c, 0, 64, 127
2, 41931, Note_on_c, 0, 69, 0
2, 41936, Note_on_c, 0, 53, 0
2, 41941, Note_on_c, 0, 64, 0
2, 41948, Note_on_c, 0, 60, 0
2, 42027, Note_on_c, 0, 66, 46
2, 42027, Control_c, 0, 64, 0
2, 42028, Note_on_c, 0, 61, 43
2, 42029, Note_on_c, 0, 63, 37
2, 42031, Note_on_c, 0, 57, 33
2, 42034, Note_on_c, 0, 47, 33
2, 42107, Control_c, 0, 64, 127
2, 42119, Note_on_c, 0, 57, 0
2, 42120, Note_on_c, 0, 61, 0
2, 42131, Note_on_c, 0, 63, 0
2, 42143, Note_on_c, 0, 66, 0
2, 42150, Note_on_c, 0, 35, 43
2, 42150, Note_on_c, 0, 61, 35
2, 42153, Note_on_c, 0, 63, 36
2, 42154, Note_on_c, 0, 47, 0
2, 42168, Note_on_c, 0, 35, 0
2, 42218, Note_on_c, 0, 61, 0
2, 42235, Note_on_c, 0, 63, 0
2, 42249, Control_c, 0, 64, 0
2, 42268, Control_c, 0, 64, 127
2, 42269, Note_on_c, 0, 62, 43
2, 42269, Note_on_c, 0, 34, 43
2, 42272, Note_on_c, 0, 65, 40
2, 42274, Note_on_c, 0, 46, 27
2, 42286, Note_on_c, 0, 34, 0
2, 42291, Note_on_c, 0, 62, 0
2, 42294, Note_on_c, 0, 46, 0
2, 42299, Note_on_c, 0, 65, 0
2, 42394, Note_on_c, 0, 84, 71
2, 42395, Note_on_c, 0, 72, 57
2, 42395, Note_on_c, 0, 65, 37
2, 42401, Note_on_c, 0, 62, 32
2, 42405, Control_c, 0, 64, 0
2, 42407, Note_on_c, 0, 65, 0
2, 42412, Note_on_c, 0, 72, 0
2, 42413, Note_on_c, 0, 84, 0
2, 42431, Note_on_c, 0, 60, 2
2, 42436, Note_on_c, 0, 81, 40
2, 42444, Control_c, 0, 64, 127
2, 42451, Note_on_c, 0, 81, 0
2, 42473, Control_c, 0, 64, 0
2, 42473, Note_on_c, 0, 84, 77
2, 42474, Note_on_c, 0, 72, 59
2, 42495, Note_on_c, 0, 53, 46
2, 42514, Note_on_c, 0, 62, 0
2, 42523, Note_on_c, 0, 60, 0
2, 42533, Note_on_c, 0, 72, 0
2, 42533, Control_c, 0, 64, 127
2, 42534, Note_on_c, 0, 84, 0
2, 42554, Note_on_c, 0, 81, 62
2, 42577, Note_on_c, 0, 81, 0
2, 42593, Note_on_c, 0, 77, 53
2, 42610, Note_on_c, 0, 77, 0
2, 42619, Control_c, 0, 64, 0
2, 42626, Note_on_c, 0, 65, 49
2, 42627, Note_on_c, 0, 81, 63
2, 42628, Note_on_c, 0, 60, 46
2, 42629, Note_on_c, 0, 74, 60
2, 42630, Note_on_c, 0, 62, 47
2, 42665, Control_c, 0, 64, 127
2, 42691, Note_on_c, 0, 53, 0
2, 42693, Note_on_c, 0, 65, 0
2, 42707, Note_on_c, 0, 74, 0
2, 42718, Note_on_c, 0, 81, 0
2, 42730, Control_c, 0, 64, 0
2, 42734, Note_on_c, 0, 60, 0
2, 42739, Note_on_c, 0, 53, 50
2, 42742, Note_on_c, 0, 84, 80
2, 42754, Note_on_c, 0, 62, 0
2, 42765, Note_on_c, 0, 84, 0
2, 42782, Note_on_c, 0, 81, 39
2, 42796, Note_on_c, 0, 81, 0
2, 42824, Note_on_c, 0, 84, 90
2, 42825, Note_on_c, 0, 74, 84
2, 42835, Note_on_c, 0, 65, 49
2, 42837, Note_on_c, 0, 62, 45
2, 42844, Note_on_c, 0, 60, 25
2, 42870, Control_c, 0, 64, 127
2, 42884, Note_on_c, 0, 84, 0
2, 42885, Note_on_c, 0, 74, 0
2, 42900, Note_on_c, 0, 65, 0
2, 42902, Note_on_c, 0, 81, 60
2, 42919, Note_on_c, 0, 53, 0
2, 42924, Note_on_c, 0, 81, 0
2, 42937, Note_on_c, 0, 77, 64
2, 42963, Note_on_c, 0, 77, 0
2, 42971, Control_c, 0, 64, 0
2, 42976, Note_on_c, 0, 53, 58
2, 42977, Note_on_c, 0, 60, 0
2, 42978, Note_on_c, 0, 81, 74
2, 42983, Note_on_c, 0, 74, 56
2, 42996, Note_on_c, 0, 62, 0
2, 43014, Control_c, 0, 64, 127
2, 43059, Note_on_c, 0, 74, 0
2, 43081, Note_on_c, 0, 81, 0
2, 43081, Note_on_c, 0, 53, 0
2, 43098, Note_on_c, 0, 84, 80
2, 43101, Note_on_c, 0, 65, 33
2, 43103, Note_on_c, 0, 77, 48
2, 43103, Control_c, 0, 64, 0
2, 43108, Note_on_c, 0, 61, 27
2, 43108, Note_on_c, 0, 74, 27
2, 43115, Note_on_c, 0, 77, 0
2, 43116, Note_on_c, 0, 74, 0
2, 43127, Note_on_c, 0, 84, 0
2, 43140, Note_on_c, 0, 81, 45
2, 43167, Note_on_c, 0, 81, 0
2, 43178, Note_on_c, 0, 84, 83
2, 43180, Note_on_c, 0, 77, 73
2, 43182, Note_on_c, 0, 73, 61
2, 43201, Note_on_c, 0, 55, 63
2, 43204, Note_on_c, 0, 61, 0
2, 43208, Note_on_c, 0, 65, 0
2, 43228, Control_c, 0, 64, 127
2, 43255, Note_on_c, 0, 77, 0
2, 43258, Note_on_c, 0, 84, 0
2, 43264, Note_on_c, 0, 81, 58
2, 43266, Note_on_c, 0, 73, 0
2, 43302, Note_on_c, 0, 81, 0
2, 43306, Note_on_c, 0, 77, 57
2, 43333, Note_on_c, 0, 77, 0
2, 43337, Control_c, 0, 64, 0
2, 43343, Note_on_c, 0, 81, 69
2, 43343, Note_on_c, 0, 65, 54
2, 43343, Note_on_c, 0, 61, 50
2, 43344, Note_on_c, 0, 73, 51
2, 43346, Note_on_c, 0, 77, 40
2, 43349, Note_on_c, 0, 60, 40
2, 43363, Note_on_c, 0, 60, 0
2, 43365, Note_on_c, 0, 65, 0
2, 43370, Control_c, 0, 64, 127
2, 43375, Note_on_c, 0, 61, 0
2, 43375, Note_on_c, 0, 55, 0
2, 43471, Note_on_c, 0, 39, 65
2, 43475, Note_on_c, 0, 46, 37
2, 43490, Note_on_c, 0, 39, 0
2, 43493, Note_on_c, 0, 46, 0
2, 43593, Note_on_c, 0, 65, 53
2, 43594, Note_on_c, 0, 61, 47
2, 43594, Note_on_c, 0, 60, 49
2, 43599, Control_c, 0, 64, 0
2, 43601, Note_on_c, 0, 55, 47
2, 43628, Control_c, 0, 64, 127
2, 43659, Note_on_c, 0, 73, 0
2, 43668, Note_on_c, 0, 55, 0
2, 43672, Note_on_c, 0, 77, 0
2, 43673, Note_on_c, 0, 65, 0
2, 43675, Note_on_c, 0, 61, 0
2, 43676, Note_on_c, 0, 60, 0
2, 43677, Note_on_c, 0, 81, 0
2, 43710, Note_on_c, 0, 84, 84
2, 43713, Note_on_c, 0, 77, 74
2, 43719, Note_on_c, 0, 65, 54
2, 43722, Control_c, 0, 64, 0
2, 43722, Note_on_c, 0, 60, 32
2, 43726, Note_on_c, 0, 61, 25
2, 43731, Note_on_c, 0, 65, 0
2, 43734, Note_on_c, 0, 60, 0
2, 43740, Note_on_c, 0, 84, 0
2, 43748, Note_on_c, 0, 81, 59
2, 43751, Note_on_c, 0, 61, 0
2, 43761, Note_on_c, 0, 77, 0
2, 43783, Note_on_c, 0, 81, 0
2, 43789, Note_on_c, 0, 84, 80
2, 43792, Note_on_c, 0, 77, 62
2, 43808, Note_on_c, 0, 55, 74
2, 43844, Control_c, 0, 64, 127
2, 43858, Note_on_c, 0, 84, 0
2, 43867, Note_on_c, 0, 73, 46
2, 43869, Note_on_c, 0, 81, 65
2, 43883, Note_on_c, 0, 77, 0
2, 43909, Note_on_c, 0, 81, 0
2, 43909, Note_on_c, 0, 77, 52
2, 43918, Note_on_c, 0, 73, 0
2, 43933, Control_c, 0, 64, 0
2, 43939, Note_on_c, 0, 77, 0
2, 43945, Note_on_c, 0, 61, 53
2, 43947, Note_on_c, 0, 60, 53
2, 43948, Note_on_c, 0, 73, 50
2, 43948, Note_on_c, 0, 65, 53
2, 43949, Note_on_c, 0, 77, 35
2, 43949, Note_on_c, 0, 81, 66
2, 43958, Note_on_c, 0, 55, 0
2, 43972, Control_c, 0, 64, 127
2, 44014, Note_on_c, 0, 73, 0
2, 44029, Note_on_c, 0, 60, 0
2, 44029, Note_on_c, 0, 77, 0
2, 44029, Note_on_c, 0, 81, 0
2, 44039, Note_on_c, 0, 65, 0
2, 44054, Note_on_c, 0, 84, 52
2, 44055, Note_on_c, 0, 85, 27
2, 44056, Note_on_c, 0, 77, 46
2, 44057, Note_on_c, 0, 73, 37
2, 44058, Note_on_c, 0, 55, 51
2, 44063, Note_on_c, 0, 85, 0
2, 44067, Note_on_c, 0, 61, 0
2, 44070, Note_on_c, 0, 55, 0
2, 44075, Note_on_c, 0, 84, 0
2, 44079, Note_on_c, 0, 77, 0
2, 44082, Note_on_c, 0, 73, 0
2, 44094, Note_on_c, 0, 81, 46
2, 44125, Note_on_c, 0, 81, 0
2, 44141, Note_on_c, 0, 84, 80
2, 44142, Note_on_c, 0, 77, 70
2, 44143, Note_on_c, 0, 72, 62
2, 44145, Control_c, 0, 64, 0
2, 44150, Note_on_c, 0, 51, 62
2, 44151, Note_on_c, 0, 44, 67
2, 44181, Control_c, 0, 64, 127
2, 44197, Note_on_c, 0, 44, 0
2, 44204, Note_on_c, 0, 51, 0
2, 44264, Note_on_c, 0, 84, 0
2, 44270, Note_on_c, 0, 72, 0
2, 44270, Note_on_c, 0, 77, 0
2, 44304, Control_c, 0, 64, 0
2, 44305, Note_on_c, 0, 63, 64
2, 44308, Note_on_c, 0, 82, 69
2, 44309, Note_on_c, 0, 77, 68
2, 44310, Note_on_c, 0, 53, 54
2, 44310, Note_on_c, 0, 58, 50
2, 44311, Note_on_c, 0, 72, 48
2, 44328, Control_c, 0, 64, 127
2, 44358, Note_on_c, 0, 82, 0
2, 44362, Note_on_c, 0, 53, 0
2, 44365, Note_on_c, 0, 77, 0
2, 44375, Note_on_c, 0, 72, 0
2, 44383, Note_on_c, 0, 58, 0
2, 44384, Note_on_c, 0, 63, 0
2, 44427, Control_c, 0, 64, 0
2, 44430, Note_on_c, 0, 80, 59
2, 44433, Note_on_c, 0, 65, 57
2, 44435, Note_on_c, 0, 75, 55
2, 44435, Note_on_c, 0, 70, 38
2, 44438, Note_on_c, 0, 55, 45
2, 44439, Note_on_c, 0, 60, 52
2, 44456, Control_c, 0, 64, 127
2, 44466, Note_on_c, 0, 80, 0
2, 44467, Note_on_c, 0, 55, 0
2, 44469, Note_on_c, 0, 75, 0
2, 44473, Note_on_c, 0, 65, 0
2, 44473, Note_on_c, 0, 70, 0
2, 44478, Note_on_c, 0, 60, 0
2, 44553, Note_on_c, 0, 75, 55
2, 44555, Note_on_c, 0, 63, 53
2, 44556, Note_on_c, 0, 53, 55
2, 44559, Note_on_c, 0, 70, 57
2, 44563, Note_on_c, 0, 65, 37
2, 44563, Note_on_c, 0, 58, 37
2, 44595, Note_on_c, 0, 63, 0
2, 44610, Note_on_c, 0, 70, 0
2, 44617, Note_on_c, 0, 75, 0
2, 44617, Note_on_c, 0, 53, 0
2, 44618, Note_on_c, 0, 58, 0
2, 44626, Note_on_c, 0, 65, 0
2, 44668, Control_c, 0, 64, 0
2, 44672, Note_on_c, 0, 64, 50
2, 44673, Note_on_c, 0, 74, 60
2, 44674, Note_on_c, 0, 65, 60
2, 44674, Note_on_c, 0, 68, 45
2, 44675, Note_on_c, 0, 71, 57
2, 44716, Control_c, 0, 64, 127
2, 44768, Note_on_c, 0, 64, 0
2, 44786, Note_on_c, 0, 59, 64
2, 44788, Note_on_c, 0, 74, 0
2, 44799, Note_on_c, 0, 71, 0
2, 44805, Note_on_c, 0, 68, 0
2, 44806, Note_on_c, 0, 59, 0
2, 44815, Note_on_c, 0, 65, 0
2, 44910, Note_on_c, 0, 53, 50
2, 44911, Control_c, 0, 64, 0
2, 44911, Note_on_c, 0, 68, 48
2, 44913, Note_on_c, 0, 63, 44
2, 44915, Note_on_c, 0, 59, 42
2, 44968, Control_c, 0, 64, 127
2, 45023, Note_on_c, 0, 43, 47
2, 45031, Note_on_c, 0, 53, 0
2, 45036, Note_on_c, 0, 43, 0
2, 45053, Note_on_c, 0, 59, 0
2, 45064, Note_on_c, 0, 68, 0
2, 45078, Note_on_c, 0, 63, 0
2, 45151, Note_on_c, 0, 36, 67
2, 45161, Control_c, 0, 64, 0
2, 45239, Note_on_c, 0, 43, 76
2, 45281, Control_c, 0, 64, 127
2, 45293, Note_on_c, 0, 36, 0
2, 45334, Note_on_c, 0, 67, 63
2, 45336, Note_on_c, 0, 57, 63
2, 45337, Note_on_c, 0, 62, 67
2, 45338, Note_on_c, 0, 52, 62
2, 45385, Note_on_c, 0, 52, 0
2, 45386, Note_on_c, 0, 57, 0
2, 45389, Note_on_c, 0, 67, 0
2, 45392, Control_c, 0, 64, 0
2, 45395, Note_on_c, 0, 62, 0
2, 45412, Note_on_c, 0, 52, 49
2, 45413, Note_on_c, 0, 67, 48
2, 45414, Note_on_c, 0, 57, 53
2, 45414, Note_on_c, 0, 62, 50
2, 45451, Note_on_c, 0, 57, 0
2, 45458, Note_on_c, 0, 67, 0
2, 45459, Control_c, 0, 64, 127
2, 45460, Note_on_c, 0, 62, 0
2, 45460, Note_on_c, 0, 52, 0
2, 45479, Control_c, 0, 64, 0
2, 45491, Note_on_c, 0, 62, 51
2, 45492, Note_on_c, 0, 67, 42
2, 45493, Note_on_c, 0, 57, 54
2, 45494, Note_on_c, 0, 52, 36
2, 45511, Note_on_c, 0, 57, 0
2, 45513, Note_on_c, 0, 43, 0
2, 45519, Note_on_c, 0, 67, 0
2, 45523, Note_on_c, 0, 62, 0
2, 45531, Note_on_c, 0, 52, 0
2, 45534, Control_c, 0, 64, 127
2, 45587, Control_c, 0, 64, 0
2, 45591, Note_on_c, 0, 67, 50
2, 45592, Note_on_c, 0, 62, 54
2, 45593, Note_on_c, 0, 57, 45
2, 45595, Note_on_c, 0, 52, 46
2, 45633, Control_c, 0, 64, 127
2, 45685, Note_on_c, 0, 52, 0
2, 45711, Note_on_c, 0, 52, 65
2, 45750, Note_on_c, 0, 57, 0
2, 45776, Note_on_c, 0, 62, 0
2, 45777, Note_on_c, 0, 52, 0
2, 45783, Note_on_c, 0, 67, 0
2, 45875, Note_on_c, 0, 86, 80
2, 45883, Control_c, 0, 64, 0
2, 45900, Note_on_c, 0, 86, 0
2, 45912, Note_on_c, 0, 84, 48
2, 45931, Note_on_c, 0, 84, 0
2, 45948, Note_on_c, 0, 86, 85
2, 45983, Note_on_c, 0, 84, 64
2, 45984, Note_on_c, 0, 86, 0
2, 46016, Note_on_c, 0, 84, 0
2, 46020, Note_on_c, 0, 81, 57
2, 46059, Note_on_c, 0, 81, 0
2, 46063, Note_on_c, 0, 77, 44
2, 46099, Note_on_c, 0, 77, 0
2, 46112, Note_on_c, 0, 48, 55
2, 46117, Note_on_c, 0, 84, 44
2, 46179, Control_c, 0, 64, 127
2, 46235, Note_on_c, 0, 60, 29
2, 46239, Note_on_c, 0, 57, 26
2, 46257, Note_on_c, 0, 60, 0
2, 46259, Note_on_c, 0, 84, 0
2, 46265, Note_on_c, 0, 57, 0
2, 46315, Note_on_c, 0, 79, 37
2, 46317, Note_on_c, 0, 76, 30
2, 46319, Control_c, 0, 64, 0
2, 46319, Note_on_c, 0, 60, 35
2, 46320, Note_on_c, 0, 57, 38
2, 46380, Note_on_c, 0, 57, 0
2, 46384, Note_on_c, 0, 60, 0
2, 46384, Control_c, 0, 64, 127
2, 46436, Note_on_c, 0, 60, 44
2, 46438, Note_on_c, 0, 57, 45
2, 46460, Note_on_c, 0, 76, 0
2, 46473, Note_on_c, 0, 60, 0
2, 46473, Note_on_c, 0, 57, 0
2, 46473, Note_on_c, 0, 79, 0
2, 46559, Note_on_c, 0, 60, 63
2, 46560, Note_on_c, 0, 57, 58
2, 46606, Note_on_c, 0, 86, 94
2, 46607, Control_c, 0, 64, 0
2, 46630, Note_on_c, 0, 48, 0
2, 46634, Note_on_c, 0, 86, 0
2, 46647, Note_on_c, 0, 84, 60
2, 46662, Note_on_c, 0, 84, 0
2, 46681, Note_on_c, 0, 86, 99
2, 46688, Note_on_c, 0, 48, 63
2, 46718, Note_on_c, 0, 84, 66
2, 46721, Note_on_c, 0, 86, 0
2, 46732, Note_on_c, 0, 60, 0
2, 46736, Note_on_c, 0, 57, 0
2, 46745, Control_c, 0, 64, 127
2, 46754, Note_on_c, 0, 81, 52
2, 46766, Note_on_c, 0, 84, 0
2, 46788, Note_on_c, 0, 77, 54
2, 46792, Note_on_c, 0, 81, 0
2, 46815, Note_on_c, 0, 77, 0
2, 46830, Note_on_c, 0, 60, 48
2, 46831, Control_c, 0, 64, 0
2, 46831, Note_on_c, 0, 57, 50
2, 46865, Control_c, 0, 64, 127
2, 46888, Note_on_c, 0, 48, 0
2, 46911, Note_on_c, 0, 48, 52
2, 46918, Control_c, 0, 64, 0
2, 46942, Control_c, 0, 64, 127
2, 46963, Note_on_c, 0, 48, 0
2, 47019, Note_on_c, 0, 57, 0
2, 47024, Note_on_c, 0, 60, 0
2, 47030, Note_on_c, 0, 48, 68
2, 47149, Note_on_c, 0, 60, 73
2, 47192, Control_c, 0, 64, 0
2, 47197, Note_on_c, 0, 72, 59
2, 47198, Note_on_c, 0, 61, 72
2, 47199, Note_on_c, 0, 65, 65
2, 47202, Note_on_c, 0, 67, 62
2, 47228, Note_on_c, 0, 48, 0
2, 47240, Control_c, 0, 64, 127
2, 47274, Note_on_c, 0, 48, 66
2, 47275, Note_on_c, 0, 61, 0
2, 47284, Note_on_c, 0, 65, 0
2, 47287, Note_on_c, 0, 67, 0
2, 47294, Note_on_c, 0, 72, 0
2, 47331, Note_on_c, 0, 60, 0
2, 47392, Note_on_c, 0, 60, 75
2, 47438, Note_on_c, 0, 84, 89
2, 47454, Note_on_c, 0, 60, 0
2, 47455, Control_c, 0, 64, 0
2, 47461, Note_on_c, 0, 84, 0
2, 47478, Note_on_c, 0, 82, 47
2, 47491, Note_on_c, 0, 82, 0
2, 47514, Note_on_c, 0, 84, 89
2, 47529, Note_on_c, 0, 60, 47
2, 47550, Note_on_c, 0, 77, 53
2, 47551, Note_on_c, 0, 84, 0
2, 47584, Note_on_c, 0, 73, 42
2, 47589, Note_on_c, 0, 77, 0
2, 47594, Note_on_c, 0, 60, 0
2, 47599, Control_c, 0, 64, 127
2, 47612, Note_on_c, 0, 73, 0
2, 47625, Note_on_c, 0, 72, 36
2, 47655, Note_on_c, 0, 72, 0
2, 47666, Control_c, 0, 64, 0
2, 47669, Note_on_c, 0, 60, 56
2, 47705, Control_c, 0, 64, 127
2, 47722, Note_on_c, 0, 48, 0
2, 47748, Note_on_c, 0, 48, 58
2, 47782, Control_c, 0, 64, 0
2, 47798, Note_on_c, 0, 70, 77
2, 47804, Note_on_c, 0, 60, 0
2, 47831, Note_on_c, 0, 70, 0
2, 47864, Note_on_c, 0, 68, 79
2, 47872, Note_on_c, 0, 60, 60
2, 47894, Note_on_c, 0, 68, 0
2, 47912, Note_on_c, 0, 67, 64
2, 47917, Control_c, 0, 64, 127
2, 47933, Note_on_c, 0, 48, 0
2, 47984, Note_on_c, 0, 60, 0
2, 47984, Note_on_c, 0, 48, 59
2, 47987, Note_on_c, 0, 65, 67
2, 47988, Note_on_c, 0, 67, 0
2, 48012, Note_on_c, 0, 65, 0
2, 48032, Control_c, 0, 64, 0
2, 48036, Note_on_c, 0, 64, 57
2, 48038, Note_on_c, 0, 57, 44
2, 48101, Note_on_c, 0, 64, 0
2, 48108, Note_on_c, 0, 65, 66
2, 48140, Note_on_c, 0, 65, 0
2, 48155, Control_c, 0, 64, 127
2, 48155, Note_on_c, 0, 64, 40
2, 48181, Note_on_c, 0, 48, 0
2, 48225, Note_on_c, 0, 60, 64
2, 48227, Note_on_c, 0, 48, 42
2, 48297, Note_on_c, 0, 48, 0
2, 48297, Note_on_c, 0, 64, 0
2, 48343, Note_on_c, 0, 48, 58
2, 48344, Note_on_c, 0, 60, 0
2, 48352, Note_on_c, 0, 57, 0
2, 48388, Control_c, 0, 64, 0
2, 48391, Note_on_c, 0, 64, 108
2, 48394, Note_on_c, 0, 57, 64
2, 48446, Note_on_c, 0, 48, 0
2, 48451, Note_on_c, 0, 64, 0
2, 48463, Note_on_c, 0, 65, 62
2, 48470, Note_on_c, 0, 48, 44
2, 48497, Note_on_c, 0, 65, 0
2, 48509, Control_c, 0, 64, 127
2, 48511, Note_on_c, 0, 64, 41
2, 48532, Note_on_c, 0, 48, 0
2, 48584, Note_on_c, 0, 48, 56
2, 48585, Note_on_c, 0, 60, 58
2, 48633, Note_on_c, 0, 60, 0
2, 48647, Note_on_c, 0, 64, 0
2, 48651, Note_on_c, 0, 57, 0
2, 48713, Note_on_c, 0, 55, 31
2, 48725, Note_on_c, 0, 55, 0
2, 48740, Control_c, 0, 64, 0
2, 48746, Note_on_c, 0, 72, 58
2, 48748, Note_on_c, 0, 62, 61
2, 48749, Note_on_c, 0, 67, 66
2, 48750, Note_on_c, 0, 57, 57
2, 48756, Note_on_c, 0, 48, 0
2, 48787, Note_on_c, 0, 72, 0
2, 48795, Control_c, 0, 64, 127
2, 48796, Note_on_c, 0, 62, 0
2, 48810, Note_on_c, 0, 67, 0
2, 48811, Note_on_c, 0, 57, 0
2, 48821, Note_on_c, 0, 58, 51
2, 48824, Note_on_c, 0, 74, 51
2, 48824, Note_on_c, 0, 67, 53
2, 48825, Note_on_c, 0, 64, 49
2, 48837, Note_on_c, 0, 74, 0
2, 48843, Note_on_c, 0, 64, 0
2, 48846, Control_c, 0, 64, 0
2, 48864, Note_on_c, 0, 58, 0
2, 48865, Control_c, 0, 64, 127
2, 48868, Note_on_c, 0, 72, 26
2, 48870, Note_on_c, 0, 57, 50
2, 48916, Note_on_c, 0, 67, 0
2, 48917, Note_on_c, 0, 72, 0
2, 48935, Control_c, 0, 64, 0
2, 48938, Note_on_c, 0, 57, 0
2, 48943, Note_on_c, 0, 47, 74
2, 48966, Control_c, 0, 64, 127
2, 48991, Note_on_c, 0, 47, 0
2, 49101, Control_c, 0, 64, 0
2, 49105, Note_on_c, 0, 74, 64
2, 49107, Note_on_c, 0, 69, 70
2, 49107, Note_on_c, 0, 65, 66
2, 49108, Note_on_c, 0, 71, 66
2, 49110, Note_on_c, 0, 64, 60
2, 49127, Control_c, 0, 64, 127
2, 49158, Note_on_c, 0, 74, 0
2, 49162, Note_on_c, 0, 64, 0
2, 49172, Note_on_c, 0, 65, 0
2, 49176, Note_on_c, 0, 69, 0
2, 49181, Note_on_c, 0, 71, 0
2, 49183, Note_on_c, 0, 64, 58
2, 49183, Note_on_c, 0, 76, 71
2, 49188, Note_on_c, 0, 69, 40
2, 49189, Note_on_c, 0, 71, 26
2, 49189, Note_on_c, 0, 65, 56
2, 49219, Note_on_c, 0, 65, 0
2, 49219, Note_on_c, 0, 76, 0
2, 49219, Control_c, 0, 64, 0
2, 49221, Note_on_c, 0, 71, 0
2, 49221, Note_on_c, 0, 69, 0
2, 49233, Note_on_c, 0, 64, 0
2, 49235, Note_on_c, 0, 65, 31
2, 49236, Note_on_c, 0, 62, 52
2, 49236, Note_on_c, 0, 74, 50
2, 49243, Note_on_c, 0, 69, 30
2, 49243, Control_c, 0, 64, 127
2, 49244, Note_on_c, 0, 71, 41
2, 49258, Note_on_c, 0, 69, 0
2, 49280, Note_on_c, 0, 65, 0
2, 49287, Note_on_c, 0, 71, 0
2, 49295, Note_on_c, 0, 74, 0
2, 49297, Note_on_c, 0, 62, 0
2, 49307, Note_on_c, 0, 69, 68
2, 49308, Note_on_c, 0, 65, 54
2, 49317, Control_c, 0, 64, 0
2, 49358, Control_c, 0, 64, 127
2, 49400, Note_on_c, 0, 65, 0
2, 49409, Note_on_c, 0, 69, 0
2, 49417, Note_on_c, 0, 40, 70
2, 49426, Note_on_c, 0, 52, 43
2, 49433, Note_on_c, 0, 40, 0
2, 49435, Note_on_c, 0, 52, 0
2, 49478, Note_on_c, 0, 68, 69
2, 49481, Note_on_c, 0, 74, 65
2, 49483, Note_on_c, 0, 72, 57
2, 49486, Note_on_c, 0, 67, 62
2, 49487, Note_on_c, 0, 69, 62
2, 49495, Note_on_c, 0, 69, 0
2, 49532, Note_on_c, 0, 68, 0
2, 49535, Note_on_c, 0, 72, 0
2, 49538, Note_on_c, 0, 74, 0
2, 49538, Note_on_c, 0, 67, 0
2, 49548, Note_on_c, 0, 79, 74
2, 49551, Note_on_c, 0, 68, 51
2, 49552, Note_on_c, 0, 72, 64
2, 49554, Note_on_c, 0, 67, 78
2, 49556, Note_on_c, 0, 74, 55
2, 49580, Note_on_c, 0, 79, 0
2, 49580, Control_c, 0, 64, 0
2, 49583, Note_on_c, 0, 74, 0
2, 49588, Note_on_c, 0, 72, 0
2, 49589, Note_on_c, 0, 68, 0
2, 49597, Control_c, 0, 64, 127
2, 49599, Note_on_c, 0, 68, 28
2, 49603, Note_on_c, 0, 77, 49
2, 49609, Note_on_c, 0, 65, 49
2, 49610, Note_on_c, 0, 67, 0
2, 49643, Note_on_c, 0, 74, 22
2, 49647, Note_on_c, 0, 77, 0
2, 49652, Note_on_c, 0, 65, 0
2, 49657, Note_on_c, 0, 68, 0
2, 49661, Note_on_c, 0, 74, 0
2, 49672, Note_on_c, 0, 68, 56
2, 49675, Note_on_c, 0, 76, 60
2, 49676, Note_on_c, 0, 72, 58
2, 49676, Note_on_c, 0, 65, 40
2, 49680, Note_on_c, 0, 64, 45
2, 49682, Note_on_c, 0, 74, 42
2, 49686, Control_c, 0, 64, 0
2, 49688, Note_on_c, 0, 64, 0
2, 49696, Note_on_c, 0, 74, 0
2, 49710, Control_c, 0, 64, 127
2, 49711, Note_on_c, 0, 65, 0
2, 49764, Note_on_c, 0, 68, 0
2, 49770, Note_on_c, 0, 72, 0
2, 49777, Note_on_c, 0, 76, 0
2, 49790, Note_on_c, 0, 46, 53
2, 49792, Note_on_c, 0, 68, 57
2, 49793, Note_on_c, 0, 74, 65
2, 49798, Note_on_c, 0, 72, 22
2, 49806, Note_on_c, 0, 72, 0
2, 49813, Control_c, 0, 64, 0
2, 49817, Note_on_c, 0, 74, 0
2, 49817, Note_on_c, 0, 68, 0
2, 49830, Control_c, 0, 64, 127
2, 49897, Note_on_c, 0, 46, 0
2, 49908, Note_on_c, 0, 72, 55
2, 49909, Note_on_c, 0, 67, 63
2, 49914, Note_on_c, 0, 60, 43
2, 49917, Note_on_c, 0, 45, 51
2, 49918, Note_on_c, 0, 52, 36
2, 49919, Control_c, 0, 64, 0
2, 49953, Control_c, 0, 64, 127
2, 49978, Note_on_c, 0, 67, 0
2, 49981, Note_on_c, 0, 72, 0
2, 49996, Note_on_c, 0, 45, 0
2, 49997, Note_on_c, 0, 60, 0
2, 50029, Note_on_c, 0, 45, 54
2, 50071, Control_c, 0, 64, 0
2, 50074, Note_on_c, 0, 60, 53
2, 50093, Note_on_c, 0, 60, 0
2, 50115, Note_on_c, 0, 52, 0
2, 50148, Note_on_c, 0, 60, 64
2, 50152, Note_on_c, 0, 52, 37
2, 50162, Note_on_c, 0, 60, 0
2, 50196, Note_on_c, 0, 62, 43
2, 50212, Note_on_c, 0, 57, 19
2, 50217, Note_on_c, 0, 63, 29
2, 50229, Note_on_c, 0, 62, 0
2, 50237, Note_on_c, 0, 63, 0
2, 50239, Note_on_c, 0, 57, 0
2, 50240, Note_on_c, 0, 64, 50
2, 50263, Note_on_c, 0, 64, 0
2, 50331, Note_on_c, 0, 57, 51
2, 50365, Note_on_c, 0, 45, 0
2, 50388, Note_on_c, 0, 57, 0
2, 50398, Note_on_c, 0, 45, 65
2, 50426, Note_on_c, 0, 45, 0
2, 50452, Note_on_c, 0, 45, 58
2, 50463, Control_c, 0, 64, 127
2, 50496, Note_on_c, 0, 45, 0
2, 50511, Note_on_c, 0, 52, 0
2, 50526, Note_on_c, 0, 45, 45
2, 50526, Note_on_c, 0, 53, 66
2, 50542, Control_c, 0, 64, 0
2, 50588, Control_c, 0, 64, 127
2, 50614, Note_on_c, 0, 45, 0
2, 50635, Note_on_c, 0, 45, 67
2, 50668, Control_c, 0, 64, 0
2, 50682, Control_c, 0, 64, 127
2, 50716, Note_on_c, 0, 45, 0
2, 50751, Note_on_c, 0, 45, 66
2, 50791, Control_c, 0, 64, 0
2, 50805, Note_on_c, 0, 60, 50
2, 50819, Note_on_c, 0, 45, 0
2, 50847, Note_on_c, 0, 60, 0
2, 50865, Note_on_c, 0, 45, 56
2, 50873, Note_on_c, 0, 65, 61
2, 50879, Note_on_c, 0, 53, 0
2, 50886, Note_on_c, 0, 65, 0
2, 50892, Note_on_c, 0, 45, 0
2, 50914, Note_on_c, 0, 45, 49
2, 50916, Note_on_c, 0, 54, 42
2, 50923, Note_on_c, 0, 72, 30
2, 50923, Note_on_c, 0, 69, 54
2, 50925, Note_on_c, 0, 64, 32
2, 50960, Note_on_c, 0, 64, 0
2, 50963, Note_on_c, 0, 69, 0
2, 50965, Note_on_c, 0, 72, 0
2, 50969, Note_on_c, 0, 45, 0
2, 50982, Note_on_c, 0, 54, 0
2, 50989, Note_on_c, 0, 72, 44
2, 50992, Note_on_c, 0, 64, 60
2, 50994, Note_on_c, 0, 69, 55
2, 51016, Note_on_c, 0, 69, 0
2, 51017, Note_on_c, 0, 64, 0
2, 51021, Note_on_c, 0, 72, 0
2, 51021, Note_on_c, 0, 54, 38
2, 51027, Note_on_c, 0, 45, 35
2, 51045, Note_on_c, 0, 72, 24
2, 51048, Note_on_c, 0, 64, 18
2, 51049, Note_on_c, 0, 69, 34
2, 51079, Note_on_c, 0, 45, 0
2, 51083, Note_on_c, 0, 69, 0
2, 51086, Note_on_c, 0, 72, 0
2, 51092, Note_on_c, 0, 64, 0
2, 51113, Note_on_c, 0, 54, 0
2, 51114, Note_on_c, 0, 64, 57
2, 51114, Note_on_c, 0, 72, 43
2, 51116, Note_on_c, 0, 69, 61
2, 51128, Note_on_c, 0, 71, 26
2, 51139, Note_on_c, 0, 71, 0
2, 51141, Note_on_c, 0, 64, 0
2, 51146, Note_on_c, 0, 69, 0
2, 51146, Note_on_c, 0, 72, 0
2, 51147, Note_on_c, 0, 54, 37
2, 51154, Note_on_c, 0, 45, 36
2, 51167, Note_on_c, 0, 72, 36
2, 51171, Note_on_c, 0, 64, 30
2, 51172, Note_on_c, 0, 69, 36
2, 51199, Note_on_c, 0, 64, 0
2, 51202, Note_on_c, 0, 69, 0
2, 51210, Note_on_c, 0, 45, 0
2, 51213, Note_on_c, 0, 72, 0
2, 51235, Note_on_c, 0, 54, 0
2, 51264, Note_on_c, 0, 54, 38
2, 51270, Note_on_c, 0, 45, 38
2, 51308, Note_on_c, 0, 45, 0
2, 51346, Note_on_c, 0, 68, 78
2, 51347, Note_on_c, 0, 74, 79
2, 51349, Note_on_c, 0, 62, 74
2, 51361, Note_on_c, 0, 54, 0
2, 51361, Note_on_c, 0, 69, 64
2, 51363, Note_on_c, 0, 68, 0
2, 51386, Note_on_c, 0, 69, 0
2, 51386, Note_on_c, 0, 45, 33
2, 51388, Note_on_c, 0, 62, 0
2, 51391, Note_on_c, 0, 74, 0
2, 51423, Note_on_c, 0, 66, 53
2, 51425, Note_on_c, 0, 72, 35
2, 51426, Note_on_c, 0, 60, 48
2, 51444, Note_on_c, 0, 66, 0
2, 51445, Note_on_c, 0, 67, 57
2, 51457, Note_on_c, 0, 45, 0
2, 51473, Note_on_c, 0, 60, 0
2, 51474, Note_on_c, 0, 67, 0
2, 51476, Note_on_c, 0, 72, 0
2, 51503, Note_on_c, 0, 53, 48
2, 51503, Note_on_c, 0, 45, 41
2, 51561, Note_on_c, 0, 53, 0
2, 51588, Note_on_c, 0, 71, 74
2, 51589, Note_on_c, 0, 66, 53
2, 51590, Note_on_c, 0, 59, 70
2, 51591, Note_on_c, 0, 64, 62
2, 51618, Note_on_c, 0, 71, 0
2, 51619, Note_on_c, 0, 52, 36
2, 51623, Note_on_c, 0, 59, 0
2, 51627, Note_on_c, 0, 66, 0
2, 51629, Note_on_c, 0, 64, 0
2, 51642, Control_c, 0, 64, 127
2, 51657, Note_on_c, 0, 64, 40
2, 51658, Note_on_c, 0, 69, 36
2, 51658, Note_on_c, 0, 57, 48
2, 51663, Note_on_c, 0, 66, 29
2, 51664, Note_on_c, 0, 45, 0
2, 51697, Note_on_c, 0, 64, 0
2, 51705, Note_on_c, 0, 57, 0
2, 51709, Note_on_c, 0, 66, 0
2, 51712, Note_on_c, 0, 52, 0
2, 51720, Note_on_c, 0, 50, 36
2, 51733, Note_on_c, 0, 50, 0
2, 51733, Note_on_c, 0, 69, 0
2, 51736, Control_c, 0, 64, 0
2, 51747, Note_on_c, 0, 44, 52
2, 51747, Note_on_c, 0, 54, 53
2, 51751, Note_on_c, 0, 57, 42
2, 51754, Note_on_c, 0, 62, 40
2, 51765, Note_on_c, 0, 57, 0
2, 51770, Control_c, 0, 64, 127
2, 51807, Note_on_c, 0, 62, 0
2, 51815, Note_on_c, 0, 54, 0
2, 51830, Note_on_c, 0, 44, 0
2, 51832, Note_on_c, 0, 62, 56
2, 51836, Note_on_c, 0, 58, 43
2, 51836, Note_on_c, 0, 43, 54
2, 51840, Control_c, 0, 64, 0
2, 51844, Note_on_c, 0, 53, 37
2, 51869, Control_c, 0, 64, 127
2, 51877, Note_on_c, 0, 43, 0
2, 51904, Note_on_c, 0, 53, 0
2, 51914, Note_on_c, 0, 62, 0
2, 51917, Note_on_c, 0, 58, 0
2, 51953, Note_on_c, 0, 58, 73
2, 51954, Note_on_c, 0, 69, 68
2, 51955, Note_on_c, 0, 57, 62
2, 51955, Note_on_c, 0, 62, 71
2, 51967, Note_on_c, 0, 65, 32
2, 51997, Note_on_c, 0, 65, 0
2, 51997, Note_on_c, 0, 58, 0
2, 52002, Note_on_c, 0, 62, 0
2, 52005, Note_on_c, 0, 69, 0
2, 52031, Note_on_c, 0, 57, 0
2, 52076, Note_on_c, 0, 72, 60
2, 52077, Note_on_c, 0, 62, 77
2, 52077, Note_on_c, 0, 69, 70
2, 52078, Note_on_c, 0, 65, 60
2, 52078, Note_on_c, 0, 60, 85
2, 52079, Note_on_c, 0, 64, 67
2, 52081, Control_c, 0, 64, 0
2, 52110, Note_on_c, 0, 64, 0
2, 52124, Control_c, 0, 64, 127
2, 52129, Note_on_c, 0, 65, 0
2, 52133, Note_on_c, 0, 69, 0
2, 52141, Note_on_c, 0, 72, 0
2, 52145, Note_on_c, 0, 62, 0
2, 52177, Note_on_c, 0, 60, 0
2, 52184, Note_on_c, 0, 58, 29
2, 52194, Control_c, 0, 64, 0
2, 52195, Note_on_c, 0, 74, 70
2, 52196, Note_on_c, 0, 61, 29
2, 52196, Note_on_c, 0, 70, 70
2, 52197, Note_on_c, 0, 67, 73
2, 52198, Note_on_c, 0, 65, 75
2, 52199, Note_on_c, 0, 62, 81
2, 52207, Note_on_c, 0, 58, 0
2, 52218, Note_on_c, 0, 61, 0
2, 52221, Control_c, 0, 64, 127
2, 52231, Note_on_c, 0, 67, 0
2, 52231, Note_on_c, 0, 65, 0
2, 52236, Note_on_c, 0, 74, 0
2, 52238, Note_on_c, 0, 70, 0
2, 52279, Note_on_c, 0, 62, 0
2, 52291, Note_on_c, 0, 63, 30
2, 52311, Note_on_c, 0, 77, 68
2, 52311, Note_on_c, 0, 70, 77
2, 52312, Note_on_c, 0, 65, 78
2, 52313, Note_on_c, 0, 67, 78
2, 52314, Note_on_c, 0, 74, 61
2, 52317, Control_c, 0, 64, 0
2, 52323, Note_on_c, 0, 63, 0
2, 52344, Note_on_c, 0, 67, 0
2, 52346, Control_c, 0, 64, 127
2, 52353, Note_on_c, 0, 74, 0
2, 52355, Note_on_c, 0, 70, 0
2, 52357, Note_on_c, 0, 77, 0
2, 52399, Note_on_c, 0, 65, 0
2, 52411, Note_on_c, 0, 62, 19
2, 52421, Note_on_c, 0, 63, 21
2, 52427, Note_on_c, 0, 66, 53
2, 52428, Note_on_c, 0, 79, 73
2, 52429, Note_on_c, 0, 75, 74
2, 52430, Note_on_c, 0, 67, 80
2, 52430, Note_on_c, 0, 70, 81
2, 52431, Note_on_c, 0, 62, 0
2, 52438, Control_c, 0, 64, 0
2, 52443, Note_on_c, 0, 66, 0
2, 52446, Note_on_c, 0, 63, 0
2, 52462, Control_c, 0, 64, 127
2, 52469, Note_on_c, 0, 79, 0
2, 52469, Note_on_c, 0, 70, 0
2, 52473, Note_on_c, 0, 75, 0
2, 52519, Note_on_c, 0, 67, 0
2, 52547, Note_on_c, 0, 82, 67
2, 52548, Note_on_c, 0, 75, 74
2, 52550, Note_on_c, 0, 70, 78
2, 52551, Note_on_c, 0, 79, 59
2, 52554, Note_on_c, 0, 67, 62
2, 52555, Note_on_c, 0, 63, 63
2, 52555, Control_c, 0, 64, 0
2, 52575, Note_on_c, 0, 70, 0
2, 52580, Control_c, 0, 64, 127
2, 52582, Note_on_c, 0, 79, 0
2, 52583, Note_on_c, 0, 75, 0
2, 52586, Note_on_c, 0, 67, 0
2, 52590, Note_on_c, 0, 82, 0
2, 52592, Note_on_c, 0, 63, 0
2, 52668, Note_on_c, 0, 87, 76
2, 52669, Note_on_c, 0, 75, 67
2, 52669, Note_on_c, 0, 79, 66
2, 52670, Note_on_c, 0, 63, 67
2, 52672, Note_on_c, 0, 82, 49
2, 52673, Note_on_c, 0, 67, 54
2, 52682, Note_on_c, 0, 67, 0
2, 52696, Note_on_c, 0, 79, 0
2, 52697, Note_on_c, 0, 63, 0
2, 52707, Note_on_c, 0, 82, 0
2, 52708, Note_on_c, 0, 75, 0
2, 52709, Note_on_c, 0, 87, 0
2, 52784, Note_on_c, 0, 87, 70
2, 52784, Note_on_c, 0, 63, 67
2, 52785, Note_on_c, 0, 80, 55
2, 52787, Note_on_c, 0, 53, 54
2, 52788, Note_on_c, 0, 56, 48
2, 52788, Note_on_c, 0, 59, 60
2, 52788, Note_on_c, 0, 76, 54
2, 52789, Control_c, 0, 64, 0
2, 52789, Note_on_c, 0, 83, 53
2, 52797, Note_on_c, 0, 59, 0
2, 52803, Note_on_c, 0, 63, 0
2, 52812, Note_on_c, 0, 76, 0
2, 52815, Note_on_c, 0, 83, 0
2, 52815, Note_on_c, 0, 80, 0
2, 52816, Control_c, 0, 64, 127
2, 52820, Note_on_c, 0, 56, 0
2, 52821, Note_on_c, 0, 53, 0
2, 52821, Note_on_c, 0, 87, 0
2, 52901, Note_on_c, 0, 37, 51
2, 52902, Note_on_c, 0, 89, 58
2, 52904, Note_on_c, 0, 44, 49
2, 52906, Note_on_c, 0, 77, 36
2, 52907, Control_c, 0, 64, 0
2, 52907, Note_on_c, 0, 84, 56
2, 52919, Control_c, 0, 64, 127
2, 52930, Note_on_c, 0, 37, 0
2, 52940, Note_on_c, 0, 44, 0
2, 52942, Note_on_c, 0, 84, 0
2, 52948, Note_on_c, 0, 89, 0
2, 52950, Note_on_c, 0, 77, 0
2, 53021, Note_on_c, 0, 91, 60
2, 53023, Note_on_c, 0, 79, 45
2, 53024, Note_on_c, 0, 87, 48
2, 53025, Note_on_c, 0, 63, 57
2, 53027, Note_on_c, 0, 53, 39
2, 53030, Note_on_c, 0, 59, 45
2, 53030, Control_c, 0, 64, 0
2, 53035, Note_on_c, 0, 56, 28
2, 53041, Note_on_c, 0, 59, 0
2, 53044, Note_on_c, 0, 63, 0
2, 53047, Control_c, 0, 64, 127
2, 53054, Note_on_c, 0, 79, 0
2, 53055, Note_on_c, 0, 91, 0
2, 53057, Note_on_c, 0, 56, 0
2, 53059, Note_on_c, 0, 53, 0
2, 53060, Note_on_c, 0, 87, 0
2, 53137, Note_on_c, 0, 37, 45
2, 53138, Note_on_c, 0, 94, 67
2, 53140, Note_on_c, 0, 87, 61
2, 53142, Note_on_c, 0, 82, 36
2, 53145, Control_c, 0, 64, 0
2, 53158, Note_on_c, 0, 82, 0
2, 53159, Note_on_c, 0, 87, 0
2, 53162, Note_on_c, 0, 37, 0
2, 53166, Note_on_c, 0, 94, 0
2, 53169, Control_c, 0, 64, 127
2, 53252, Note_on_c, 0, 24, 53
2, 53255, Note_on_c, 0, 36, 45
2, 53256, Control_c, 0, 64, 0
2, 53257, Note_on_c, 0, 95, 50
2, 53259, Note_on_c, 0, 88, 48
2, 53259, Note_on_c, 0, 83, 38
2, 53282, Note_on_c, 0, 88, 0
2, 53284, Note_on_c, 0, 83, 0
2, 53285, Control_c, 0, 64, 127
2, 53291, Note_on_c, 0, 95, 0
2, 53296, Note_on_c, 0, 24, 0
2, 53310, Note_on_c, 0, 36, 0
2, 53377, Note_on_c, 0, 38, 50
2, 53379, Note_on_c, 0, 96, 51
2, 53380, Note_on_c, 0, 26, 50
2, 53381, Note_on_c, 0, 91, 48
2, 53382, Note_on_c, 0, 84, 46
2, 53386, Control_c, 0, 64, 0
2, 53417, Control_c, 0, 64, 127
2, 53479, Note_on_c, 0, 96, 0
2, 53490, Note_on_c, 0, 91, 0
2, 53492, Note_on_c, 0, 26, 0
2, 53498, Note_on_c, 0, 84, 0
2, 53504, Note_on_c, 0, 38, 0
2, 53543, Note_on_c, 0, 98, 52
2, 53543, Note_on_c, 0, 28, 47
2, 53544, Note_on_c, 0, 40, 39
2, 53545, Control_c, 0, 64, 0
2, 53548, Note_on_c, 0, 86, 43
2, 53552, Note_on_c, 0, 91, 28
2, 53567, Note_on_c, 0, 91, 0
2, 53578, Note_on_c, 0, 86, 0
2, 53581, Note_on_c, 0, 98, 0
2, 53593, Note_on_c, 0, 40, 0
2, 53611, Note_on_c, 0, 28, 0
2, 53615, Control_c, 0, 64, 127
2, 53648, Control_c, 0, 64, 0
2, 53671, Note_on_c, 0, 28, 50
2, 53672, Note_on_c, 0, 100, 50
2, 53674, Note_on_c, 0, 40, 41
2, 53674, Note_on_c, 0, 88, 47
2, 53675, Control_c, 0, 64, 127
2, 53699, Note_on_c, 0, 28, 0
2, 53704, Note_on_c, 0, 88, 0
2, 53710, Note_on_c, 0, 40, 0
2, 53710, Note_on_c, 0, 100, 0
2, 53776, Control_c, 0, 64, 0
2, 53791, Note_on_c, 0, 29, 40
2, 53791, Note_on_c, 0, 101, 59
2, 53792, Note_on_c, 0, 41, 50
2, 53793, Note_on_c, 0, 89, 49
2, 53795, Control_c, 0, 64, 127
2, 53796, Note_on_c, 0, 96, 40
2, 53800, Note_on_c, 0, 101, 0
2, 53804, Note_on_c, 0, 96, 0
2, 53808, Note_on_c, 0, 29, 0
2, 53812, Note_on_c, 0, 41, 0
2, 53812, Note_on_c, 0, 89, 0
2, 53916, Note_on_c, 0, 91, 80
2, 53916, Control_c, 0, 64, 0
2, 53917, Note_on_c, 0, 81, 82
2, 53917, Note_on_c, 0, 75, 77
2, 53917, Note_on_c, 0, 86, 89
2, 53952, Control_c, 0, 64, 127
2, 53962, Note_on_c, 0, 86, 0
2, 53967, Note_on_c, 0, 91, 0
2, 53982, Note_on_c, 0, 81, 0
2, 53988, Note_on_c, 0, 75, 0
2, 53995, Note_on_c, 0, 89, 64
2, 53999, Note_on_c, 0, 74, 64
2, 54000, Note_on_c, 0, 79, 64
2, 54000, Note_on_c, 0, 84, 74
2, 54001, Control_c, 0, 64, 0
2, 54014, Note_on_c, 0, 89, 0
2, 54017, Note_on_c, 0, 84, 0
2, 54022, Note_on_c, 0, 79, 0
2, 54025, Note_on_c, 0, 74, 0
2, 54067, Note_on_c, 0, 80, 62
2, 54068, Note_on_c, 0, 86, 54
2, 54069, Note_on_c, 0, 70, 59
2, 54070, Control_c, 0, 64, 127
2, 54070, Note_on_c, 0, 76, 53
2, 54110, Note_on_c, 0, 86, 0
2, 54123, Note_on_c, 0, 80, 0
2, 54133, Note_on_c, 0, 76, 0
2, 54138, Note_on_c, 0, 70, 0
2, 54138, Control_c, 0, 64, 0
2, 54154, Note_on_c, 0, 69, 48
2, 54155, Note_on_c, 0, 84, 36
2, 54157, Control_c, 0, 64, 127
2, 54157, Note_on_c, 0, 79, 47
2, 54158, Note_on_c, 0, 74, 44
2, 54167, Note_on_c, 0, 84, 0
2, 54170, Note_on_c, 0, 79, 0
2, 54182, Note_on_c, 0, 74, 0
2, 54199, Note_on_c, 0, 69, 0
2, 54227, Note_on_c, 0, 79, 53
2, 54228, Note_on_c, 0, 74, 58
2, 54231, Note_on_c, 0, 69, 59
2, 54232, Control_c, 0, 64, 0
2, 54232, Note_on_c, 0, 65, 40
2, 54245, Note_on_c, 0, 65, 0
2, 54248, Note_on_c, 0, 74, 0
2, 54250, Note_on_c, 0, 79, 0
2, 54254, Note_on_c, 0, 69, 0
2, 54284, Control_c, 0, 64, 127
2, 54302, Note_on_c, 0, 77, 40
2, 54305, Note_on_c, 0, 67, 63
2, 54306, Note_on_c, 0, 72, 39
2, 54306, Note_on_c, 0, 64, 25
2, 54319, Note_on_c, 0, 72, 0
2, 54320, Note_on_c, 0, 64, 0
2, 54322, Note_on_c, 0, 77, 0
2, 54330, Note_on_c, 0, 67, 0
2, 54371, Control_c, 0, 64, 0
2, 54381, Note_on_c, 0, 74, 59
2, 54384, Note_on_c, 0, 68, 59
2, 54387, Note_on_c, 0, 64, 37
2, 54388, Note_on_c, 0, 58, 44
2, 54400, Control_c, 0, 64, 127
2, 54418, Note_on_c, 0, 74, 0
2, 54431, Note_on_c, 0, 68, 0
2, 54438, Note_on_c, 0, 64, 0
2, 54456, Note_on_c, 0, 58, 0
2, 54458, Control_c, 0, 64, 0
2, 54464, Note_on_c, 0, 72, 38
2, 54467, Note_on_c, 0, 67, 58
2, 54468, Note_on_c, 0, 62, 59
2, 54471, Note_on_c, 0, 57, 42
2, 54481, Note_on_c, 0, 67, 0
2, 54483, Note_on_c, 0, 72, 0
2, 54502, Note_on_c, 0, 62, 0
2, 54508, Control_c, 0, 64, 127
2, 54531, Note_on_c, 0, 57, 0
2, 54547, Note_on_c, 0, 69, 49
2, 54551, Note_on_c, 0, 53, 43
2, 54555, Note_on_c, 0, 59, 32
2, 54556, Note_on_c, 0, 60, 31
2, 54562, Note_on_c, 0, 69, 0
2, 54569, Note_on_c, 0, 59, 0
2, 54575, Note_on_c, 0, 60, 0
2, 54616, Control_c, 0, 64, 0
2, 54619, Note_on_c, 0, 53, 0
2, 54625, Note_on_c, 0, 50, 45
2, 54628, Note_on_c, 0, 65, 37
2, 54628, Note_on_c, 0, 57, 41
2, 54628, Note_on_c, 0, 60, 53
2, 54633, Note_on_c, 0, 62, 37
2, 54636, Note_on_c, 0, 50, 0
2, 54636, Control_c, 0, 64, 127
2, 54661, Note_on_c, 0, 57, 0
2, 54666, Note_on_c, 0, 60, 0
2, 54672, Note_on_c, 0, 62, 0
2, 54679, Note_on_c, 0, 65, 0
2, 54712, Note_on_c, 0, 62, 44
2, 54713, Control_c, 0, 64, 0
2, 54714, Note_on_c, 0, 59, 56
2, 54717, Note_on_c, 0, 56, 32
2, 54717, Note_on_c, 0, 53, 44
2, 54718, Note_on_c, 0, 44, 33
2, 54742, Control_c, 0, 64, 127
2, 54766, Note_on_c, 0, 56, 0
2, 54770, Note_on_c, 0, 59, 0
2, 54780, Note_on_c, 0, 62, 0
2, 54782, Note_on_c, 0, 44, 0
2, 54800, Note_on_c, 0, 53, 0
2, 54862, Control_c, 0, 64, 0
2, 54868, Note_on_c, 0, 56, 55
2, 54870, Note_on_c, 0, 71, 59
2, 54870, Note_on_c, 0, 62, 61
2, 54871, Note_on_c, 0, 67, 60
2, 54892, Note_on_c, 0, 67, 0
2, 54892, Note_on_c, 0, 62, 0
2, 54893, Control_c, 0, 64, 127
2, 54895, Note_on_c, 0, 71, 0
2, 54911, Note_on_c, 0, 62, 30
2, 54911, Note_on_c, 0, 67, 58
2, 54913, Note_on_c, 0, 71, 53
2, 54922, Control_c, 0, 64, 0
2, 54924, Note_on_c, 0, 62, 0
2, 54928, Note_on_c, 0, 67, 0
2, 54942, Note_on_c, 0, 71, 0
2, 54982, Note_on_c, 0, 65, 70
2, 54983, Note_on_c, 0, 62, 62
2, 54983, Note_on_c, 0, 74, 60
2, 54986, Note_on_c, 0, 70, 47
2, 55015, Note_on_c, 0, 62, 0
2, 55029, Note_on_c, 0, 70, 0
2, 55035, Note_on_c, 0, 65, 0
2, 55041, Note_on_c, 0, 74, 0
2, 55044, Note_on_c, 0, 56, 0
2, 55183, Note_on_c, 0, 53, 38
2, 55189, Note_on_c, 0, 62, 47
2, 55190, Note_on_c, 0, 68, 35
2, 55192, Note_on_c, 0, 65, 47
2, 55208, Note_on_c, 0, 65, 0
2, 55214, Note_on_c, 0, 68, 0
2, 55216, Note_on_c, 0, 62, 0
2, 55229, Note_on_c, 0, 53, 0
2, 55231, Note_on_c, 0, 56, 53
2, 55234, Note_on_c, 0, 62, 47
2, 55237, Note_on_c, 0, 71, 54
2, 55240, Note_on_c, 0, 65, 36
2, 55270, Note_on_c, 0, 65, 0
2, 55277, Note_on_c, 0, 71, 0
2, 55278, Note_on_c, 0, 62, 0
2, 55285, Note_on_c, 0, 56, 0
2, 55304, Note_on_c, 0, 71, 63
2, 55304, Note_on_c, 0, 56, 52
2, 55308, Note_on_c, 0, 62, 60
2, 55312, Note_on_c, 0, 65, 31
2, 55321, Note_on_c, 0, 65, 0
2, 55326, Note_on_c, 0, 62, 0
2, 55327, Note_on_c, 0, 71, 0
2, 55328, Note_on_c, 0, 56, 0
2, 55422, Note_on_c, 0, 50, 40
2, 55426, Note_on_c, 0, 62, 42
2, 55450, Note_on_c, 0, 62, 0
2, 55461, Note_on_c, 0, 50, 0
2, 55469, Note_on_c, 0, 59, 44
2, 55470, Note_on_c, 0, 53, 45
2, 55473, Note_on_c, 0, 65, 46
2, 55474, Note_on_c, 0, 62, 27
2, 55512, Note_on_c, 0, 65, 0
2, 55513, Note_on_c, 0, 53, 0
2, 55518, Note_on_c, 0, 59, 0
2, 55518, Note_on_c, 0, 62, 0
2, 55541, Note_on_c, 0, 53, 46
2, 55543, Note_on_c, 0, 62, 43
2, 55544, Note_on_c, 0, 59, 50
2, 55544, Note_on_c, 0, 65, 42
2, 55554, Note_on_c, 0, 65, 0
2, 55555, Note_on_c, 0, 59, 0
2, 55560, Note_on_c, 0, 62, 0
2, 55567, Note_on_c, 0, 53, 0
2, 55601, Control_c, 0, 64, 127
2, 55665, Note_on_c, 0, 44, 42
2, 55683, Note_on_c, 0, 44, 0
2, 55688, Control_c, 0, 64, 0
2, 55705, Note_on_c, 0, 53, 50
2, 55707, Note_on_c, 0, 62, 60
2, 55709, Note_on_c, 0, 43, 33
2, 55710, Note_on_c, 0, 58, 38
2, 55711, Note_on_c, 0, 50, 32
2, 55767, Control_c, 0, 64, 127
2, 55769, Note_on_c, 0, 50, 0
2, 55769, Note_on_c, 0, 53, 0
2, 55773, Note_on_c, 0, 62, 0
2, 55787, Note_on_c, 0, 61, 32
2, 55792, Note_on_c, 0, 49, 29
2, 55798, Note_on_c, 0, 58, 0
2, 55806, Note_on_c, 0, 61, 0
2, 55810, Control_c, 0, 64, 0
2, 55819, Note_on_c, 0, 43, 0
2, 55827, Note_on_c, 0, 58, 38
2, 55828, Note_on_c, 0, 49, 0
2, 55829, Note_on_c, 0, 50, 46
2, 55830, Note_on_c, 0, 62, 58
2, 55831, Note_on_c, 0, 53, 36
2, 55834, Control_c, 0, 64, 127
2, 55855, Note_on_c, 0, 53, 0
2, 55857, Note_on_c, 0, 62, 0
2, 55880, Note_on_c, 0, 50, 0
2, 55884, Note_on_c, 0, 58, 0
2, 55888, Note_on_c, 0, 51, 31
2, 55908, Note_on_c, 0, 58, 54
2, 55909, Note_on_c, 0, 65, 62
2, 55912, Note_on_c, 0, 55, 62
2, 55913, Note_on_c, 0, 62, 57
2, 55914, Note_on_c, 0, 53, 73
2, 55915, Note_on_c, 0, 51, 0
2, 55921, Note_on_c, 0, 55, 0
2, 55924, Note_on_c, 0, 62, 0
2, 55929, Note_on_c, 0, 58, 0
2, 55935, Note_on_c, 0, 65, 0
2, 55948, Note_on_c, 0, 53, 0
2, 55964, Control_c, 0, 64, 0
2, 55966, Note_on_c, 0, 55, 41
2, 55972, Note_on_c, 0, 69, 70
2, 55973, Note_on_c, 0, 58, 57
2, 55975, Note_on_c, 0, 55, 0
2, 55975, Note_on_c, 0, 57, 71
2, 55977, Note_on_c, 0, 62, 51
2, 55979, Note_on_c, 0, 65, 31
2, 56005, Control_c, 0, 64, 127
2, 56027, Note_on_c, 0, 65, 0
2, 56035, Note_on_c, 0, 58, 0
2, 56037, Note_on_c, 0, 62, 0
2, 56046, Control_c, 0, 64, 0
2, 56047, Note_on_c, 0, 69, 0
2, 56048, Note_on_c, 0, 58, 40
2, 56051, Note_on_c, 0, 65, 66
2, 56052, Note_on_c, 0, 62, 29
2, 56053, Note_on_c, 0, 53, 57
2, 56057, Note_on_c, 0, 58, 0
2, 56060, Note_on_c, 0, 57, 0
2, 56063, Note_on_c, 0, 62, 0
2, 56067, Note_on_c, 0, 65, 0
2, 56070, Note_on_c, 0, 53, 0
2, 56077, Control_c, 0, 64, 127
2, 56150, Note_on_c, 0, 65, 75
2, 56151, Note_on_c, 0, 72, 56
2, 56151, Note_on_c, 0, 69, 69
2, 56151, Note_on_c, 0, 62, 83
2, 56153, Note_on_c, 0, 60, 85
2, 56153, Note_on_c, 0, 59, 24
2, 56155, Control_c, 0, 64, 0
2, 56161, Note_on_c, 0, 71, 37
2, 56163, Note_on_c, 0, 59, 0
2, 56188, Note_on_c, 0, 62, 0
2, 56191, Note_on_c, 0, 65, 0
2, 56196, Note_on_c, 0, 69, 0
2, 56198, Control_c, 0, 64, 127
2, 56200, Note_on_c, 0, 71, 0
2, 56201, Note_on_c, 0, 72, 0
2, 56219, Note_on_c, 0, 60, 0
2, 56264, Note_on_c, 0, 75, 77
2, 56266, Note_on_c, 0, 67, 85
2, 56267, Note_on_c, 0, 70, 76
2, 56267, Note_on_c, 0, 64, 80
2, 56268, Note_on_c, 0, 63, 87
2, 56270, Control_c, 0, 64, 0
2, 56320, Control_c, 0, 64, 127
2, 56323, Note_on_c, 0, 63, 0
2, 56329, Note_on_c, 0, 67, 0
2, 56332, Note_on_c, 0, 75, 0
2, 56332, Note_on_c, 0, 70, 0
2, 56335, Note_on_c, 0, 62, 38
2, 56354, Note_on_c, 0, 64, 0
2, 56356, Note_on_c, 0, 62, 0
2, 56360, Note_on_c, 0, 61, 57
2, 56383, Note_on_c, 0, 61, 0
2, 56390, Note_on_c, 0, 72, 62
2, 56393, Note_on_c, 0, 64, 74
2, 56395, Note_on_c, 0, 60, 77
2, 56396, Note_on_c, 0, 67, 57
2, 56397, Control_c, 0, 64, 0
2, 56406, Note_on_c, 0, 67, 0
2, 56411, Note_on_c, 0, 72, 0
2, 56411, Note_on_c, 0, 64, 0
2, 56414, Note_on_c, 0, 60, 0
2, 56455, Note_on_c, 0, 57, 69
2, 56456, Note_on_c, 0, 69, 78
2, 56457, Note_on_c, 0, 61, 65
2, 56471, Note_on_c, 0, 64, 18
2, 56476, Note_on_c, 0, 58, 17
2, 56488, Note_on_c, 0, 57, 0
2, 56496, Control_c, 0, 64, 127
2, 56499, Note_on_c, 0, 64, 0
2, 56508, Note_on_c, 0, 61, 0
2, 56509, Note_on_c, 0, 69, 0
2, 56511, Note_on_c, 0, 58, 0
2, 56527, Note_on_c, 0, 64, 60
2, 56527, Note_on_c, 0, 55, 50
2, 56530, Note_on_c, 0, 61, 39
2, 56531, Note_on_c, 0, 58, 53
2, 56532, Control_c, 0, 64, 0
2, 56544, Note_on_c, 0, 55, 0
2, 56568, Control_c, 0, 64, 127
2, 56598, Note_on_c, 0, 58, 0
2, 56608, Note_on_c, 0, 64, 0
2, 56612, Note_on_c, 0, 61, 0
2, 56635, Note_on_c, 0, 57, 71
2, 56635, Note_on_c, 0, 67, 59
2, 56635, Note_on_c, 0, 60, 69
2, 56636, Note_on_c, 0, 64, 55
2, 56641, Control_c, 0, 64, 0
2, 56643, Note_on_c, 0, 53, 26
2, 56662, Note_on_c, 0, 53, 0
2, 56696, Control_c, 0, 64, 127
2, 56713, Note_on_c, 0, 57, 0
2, 56718, Note_on_c, 0, 60, 0
2, 56722, Note_on_c, 0, 67, 0
2, 56724, Note_on_c, 0, 64, 0
2, 56757, Note_on_c, 0, 53, 58
2, 56757, Note_on_c, 0, 67, 66
2, 56762, Note_on_c, 0, 57, 51
2, 56762, Note_on_c, 0, 60, 58
2, 56783, Note_on_c, 0, 53, 0
2, 56786, Note_on_c, 0, 57, 0
2, 56787, Note_on_c, 0, 67, 0
2, 56792, Note_on_c, 0, 60, 0
2, 56802, Control_c, 0, 64, 0
2, 56804, Note_on_c, 0, 52, 38
2, 56807, Note_on_c, 0, 65, 38
2, 56813, Note_on_c, 0, 57, 22
2, 56819, Note_on_c, 0, 60, 20
2, 56836, Note_on_c, 0, 60, 0
2, 56851, Note_on_c, 0, 57, 0
2, 56860, Note_on_c, 0, 65, 0
2, 56875, Note_on_c, 0, 52, 0
2, 56882, Note_on_c, 0, 57, 54
2, 56882, Note_on_c, 0, 67, 53
2, 56883, Note_on_c, 0, 53, 53
2, 56883, Note_on_c, 0, 60, 57
2, 56885, Note_on_c, 0, 64, 43
2, 56897, Note_on_c, 0, 53, 0
2, 56929, Control_c, 0, 64, 127
2, 56997, Note_on_c, 0, 47, 62
2, 57014, Control_c, 0, 64, 0
2, 57027, Note_on_c, 0, 47, 0
2, 57043, Note_on_c, 0, 48, 52
2, 57116, Note_on_c, 0, 36, 56
2, 57122, Note_on_c, 0, 64, 0
2, 57132, Note_on_c, 0, 57, 0
2, 57137, Note_on_c, 0, 60, 0
2, 57138, Note_on_c, 0, 36, 0
2, 57139, Note_on_c, 0, 67, 0
2, 57159, Note_on_c, 0, 36, 46
2, 57168, Control_c, 0, 64, 127
2, 57190, Note_on_c, 0, 48, 0
2, 57237, Note_on_c, 0, 65, 38
2, 57240, Note_on_c, 0, 58, 37
2, 57240, Note_on_c, 0, 62, 53
2, 57241, Note_on_c, 0, 48, 37
2, 57242, Note_on_c, 0, 55, 47
2, 57245, Control_c, 0, 64, 0
2, 57288, Control_c, 0, 64, 127
2, 57343, Note_on_c, 0, 48, 0
2, 57353, Note_on_c, 0, 43, 36
2, 57354, Note_on_c, 0, 62, 0
2, 57354, Note_on_c, 0, 55, 0
2, 57359, Note_on_c, 0, 65, 0
2, 57364, Note_on_c, 0, 58, 0
2, 57381, Note_on_c, 0, 43, 0
2, 57389, Control_c, 0, 64, 0
2, 57396, Note_on_c, 0, 55, 48
2, 57397, Note_on_c, 0, 48, 28
2, 57398, Note_on_c, 0, 58, 31
2, 57399, Note_on_c, 0, 62, 44
2, 57401, Note_on_c, 0, 65, 35
2, 57453, Note_on_c, 0, 36, 0
2, 57462, Note_on_c, 0, 48, 0
2, 57470, Note_on_c, 0, 39, 52
2, 57496, Note_on_c, 0, 65, 0
2, 57499, Note_on_c, 0, 39, 0
2, 57503, Note_on_c, 0, 62, 0
2, 57509, Note_on_c, 0, 40, 47
2, 57558, Note_on_c, 0, 58, 0
2, 57559, Note_on_c, 0, 55, 0
2, 57587, Note_on_c, 0, 39, 35
2, 57618, Note_on_c, 0, 40, 0
2, 57620, Note_on_c, 0, 39, 0
2, 57625, Note_on_c, 0, 53, 40
2, 57627, Note_on_c, 0, 62, 38
2, 57629, Note_on_c, 0, 41, 43
2, 57630, Note_on_c, 0, 57, 40
2, 57632, Note_on_c, 0, 60, 42
2, 57679, Note_on_c, 0, 57, 0
2, 57681, Note_on_c, 0, 60, 0
2, 57685, Note_on_c, 0, 62, 0
2, 57686, Note_on_c, 0, 53, 0
2, 57727, Note_on_c, 0, 41, 0
2, 57748, Note_on_c, 0, 35, 41
2, 57832, Note_on_c, 0, 34, 25
2, 57858, Note_on_c, 0, 34, 0
2, 57859, Note_on_c, 0, 35, 0
2, 57870, Note_on_c, 0, 36, 46
2, 57871, Note_on_c, 0, 53, 49
2, 57874, Note_on_c, 0, 62, 50
2, 57875, Note_on_c, 0, 57, 43
2, 57882, Note_on_c, 0, 60, 34
2, 57902, Note_on_c, 0, 53, 0
2, 57903, Note_on_c, 0, 60, 0
2, 57904, Note_on_c, 0, 57, 0
2, 57913, Note_on_c, 0, 62, 0
2, 57983, Note_on_c, 0, 36, 0
2, 57991, Note_on_c, 0, 28, 45
2, 57993, Note_on_c, 0, 64, 41
2, 57994, Note_on_c, 0, 53, 43
2, 57995, Note_on_c, 0, 57, 49
2, 57999, Note_on_c, 0, 60, 43
2, 58038, Note_on_c, 0, 64, 0
2, 58039, Note_on_c, 0, 53, 0
2, 58051, Note_on_c, 0, 57, 0
2, 58054, Note_on_c, 0, 60, 0
2, 58105, Note_on_c, 0, 28, 0
2, 58119, Note_on_c, 0, 29, 33
2, 58120, Note_on_c, 0, 53, 34
2, 58120, Note_on_c, 0, 64, 36
2, 58121, Note_on_c, 0, 57, 44
2, 58124, Note_on_c, 0, 60, 45
2, 58156, Note_on_c, 0, 53, 0
2, 58164, Note_on_c, 0, 57, 0
2, 58170, Note_on_c, 0, 60, 0
2, 58182, Note_on_c, 0, 64, 0
2, 58209, Note_on_c, 0, 28, 37
2, 58227, Note_on_c, 0, 28, 0
2, 58230, Note_on_c, 0, 29, 0
2, 58232, Note_on_c, 0, 57, 48
2, 58235, Note_on_c, 0, 62, 34
2, 58236, Note_on_c, 0, 65, 35
2, 58237, Note_on_c, 0, 60, 37
2, 58247, Note_on_c, 0, 36, 19
2, 58248, Note_on_c, 0, 35, 17
2, 58262, Note_on_c, 0, 35, 0
2, 58293, Note_on_c, 0, 65, 0
2, 58304, Note_on_c, 0, 60, 0
2, 58305, Note_on_c, 0, 57, 0
2, 58309, Note_on_c, 0, 62, 0
2, 58318, Note_on_c, 0, 37, 49
2, 58320, Note_on_c, 0, 36, 0
2, 58345, Note_on_c, 0, 37, 0
2, 58349, Note_on_c, 0, 57, 51
2, 58351, Note_on_c, 0, 65, 45
2, 58352, Note_on_c, 0, 41, 58
2, 58352, Note_on_c, 0, 62, 56
2, 58353, Note_on_c, 0, 60, 55
2, 58457, Note_on_c, 0, 41, 0
2, 58469, Note_on_c, 0, 40, 42
2, 58548, Note_on_c, 0, 57, 0
2, 58553, Note_on_c, 0, 65, 0
2, 58557, Note_on_c, 0, 62, 0
2, 58557, Note_on_c, 0, 60, 0
2, 58591, Note_on_c, 0, 56, 42
2, 58592, Note_on_c, 0, 40, 0
2, 58593, Note_on_c, 0, 62, 35
2, 58594, Note_on_c, 0, 59, 53
2, 58597, Note_on_c, 0, 38, 53
2, 58598, Note_on_c, 0, 65, 22
2, 58610, Note_on_c, 0, 59, 0
2, 58610, Note_on_c, 0, 56, 0
2, 58614, Note_on_c, 0, 65, 0
2, 58628, Note_on_c, 0, 62, 0
2, 58711, Note_on_c, 0, 38, 0
2, 58715, Note_on_c, 0, 44, 55
2, 58820, Note_on_c, 0, 44, 0
2, 58831, Note_on_c, 0, 56, 69
2, 58834, Note_on_c, 0, 62, 74
2, 58834, Note_on_c, 0, 45, 71
2, 58834, Note_on_c, 0, 59, 74
2, 58855, Note_on_c, 0, 45, 0
2, 58879, Note_on_c, 0, 56, 0
2, 58887, Note_on_c, 0, 59, 0
2, 58892, Note_on_c, 0, 62, 0
2, 58901, Note_on_c, 0, 47, 20
2, 58917, Note_on_c, 0, 62, 66
2, 58918, Note_on_c, 0, 56, 46
2, 58923, Note_on_c, 0, 59, 50
2, 58933, Note_on_c, 0, 59, 0
2, 58935, Note_on_c, 0, 56, 0
2, 58948, Note_on_c, 0, 47, 0
2, 58954, Note_on_c, 0, 56, 59
2, 58955, Note_on_c, 0, 50, 48
2, 58957, Note_on_c, 0, 59, 62
2, 58957, Note_on_c, 0, 64, 66
2, 59039, Note_on_c, 0, 50, 0
2, 59039, Note_on_c, 0, 51, 45
2, 59042, Note_on_c, 0, 64, 0
2, 59043, Note_on_c, 0, 56, 0
2, 59048, Note_on_c, 0, 59, 0
2, 59054, Note_on_c, 0, 62, 0
2, 59074, Note_on_c, 0, 51, 0
2, 59076, Note_on_c, 0, 56, 57
2, 59078, Note_on_c, 0, 53, 60
2, 59079, Note_on_c, 0, 64, 53
2, 59080, Note_on_c, 0, 59, 60
2, 59161, Note_on_c, 0, 56, 0
2, 59162, Note_on_c, 0, 59, 0
2, 59175, Note_on_c, 0, 64, 0
2, 59192, Note_on_c, 0, 65, 47
2, 59192, Note_on_c, 0, 56, 38
2, 59194, Note_on_c, 0, 53, 0
2, 59196, Note_on_c, 0, 59, 57
2, 59197, Note_on_c, 0, 50, 51
2, 59197, Note_on_c, 0, 62, 44
2, 59241, Note_on_c, 0, 65, 0
2, 59251, Note_on_c, 0, 56, 0
2, 59253, Note_on_c, 0, 59, 0
2, 59261, Note_on_c, 0, 62, 0
2, 59275, Note_on_c, 0, 56, 67
2, 59276, Note_on_c, 0, 65, 61
2, 59277, Note_on_c, 0, 59, 62
2, 59286, Note_on_c, 0, 59, 0
2, 59286, Note_on_c, 0, 65, 0
2, 59289, Note_on_c, 0, 50, 0
2, 59290, Note_on_c, 0, 56, 0
2, 59302, Note_on_c, 0, 47, 42
2, 59366, Note_on_c, 0, 47, 0
2, 59401, Note_on_c, 0, 41, 36
2, 59401, Note_on_c, 0, 40, 55
2, 59410, Note_on_c, 0, 40, 0
2, 59412, Note_on_c, 0, 41, 0
2, 59420, Note_on_c, 0, 42, 55
2, 59517, Note_on_c, 0, 39, 25
2, 59537, Note_on_c, 0, 39, 0
2, 59545, Note_on_c, 0, 42, 0
2, 59545, Note_on_c, 0, 43, 44
2, 59545, Note_on_c, 0, 62, 52
2, 59546, Note_on_c, 0, 58, 50
2, 59551, Note_on_c, 0, 53, 27
2, 59571, Note_on_c, 0, 62, 0
2, 59586, Note_on_c, 0, 53, 0
2, 59586, Note_on_c, 0, 58, 0
2, 59660, Note_on_c, 0, 45, 60
2, 59665, Note_on_c, 0, 43, 0
2, 59776, Note_on_c, 0, 45, 0
2, 59786, Note_on_c, 0, 46, 42
2, 59787, Note_on_c, 0, 58, 55
2, 59788, Note_on_c, 0, 62, 61
2, 59789, Note_on_c, 0, 53, 62
2, 59790, Note_on_c, 0, 55, 60
2, 59799, Note_on_c, 0, 55, 0
2, 59803, Note_on_c, 0, 53, 0
2, 59813, Note_on_c, 0, 62, 0
2, 59819, Note_on_c, 0, 58, 0
2, 59894, Note_on_c, 0, 46, 0
2, 59907, Note_on_c, 0, 47, 36
2, 59911, Note_on_c, 0, 64, 69
2, 59912, Note_on_c, 0, 58, 64
2, 59913, Note_on_c, 0, 55, 72
2, 59925, Note_on_c, 0, 55, 0
2, 59937, Note_on_c, 0, 64, 0
2, 59940, Note_on_c, 0, 58, 0
2, 59993, Note_on_c, 0, 46, 37
2, 60021, Note_on_c, 0, 46, 0
2, 60025, Note_on_c, 0, 47, 0
2, 60031, Note_on_c, 0, 64, 66
2, 60031, Note_on_c, 0, 58, 65
2, 60033, Note_on_c, 0, 48, 55
2, 60034, Note_on_c, 0, 55, 67
2, 60098, Control_c, 0, 64, 127
2, 60113, Note_on_c, 0, 64, 0
2, 60122, Note_on_c, 0, 55, 0
2, 60131, Note_on_c, 0, 58, 0
2, 60134, Control_c, 0, 64, 0
2, 60151, Note_on_c, 0, 48, 0
2, 60151, Note_on_c, 0, 36, 48
2, 60156, Note_on_c, 0, 65, 57
2, 60211, Note_on_c, 0, 65, 0
2, 60216, Control_c, 0, 64, 127
2, 60238, Control_c, 0, 64, 0
2, 60242, Note_on_c, 0, 43, 42
2, 60266, Note_on_c, 0, 43, 0
2, 60266, Note_on_c, 0, 58, 57
2, 60269, Note_on_c, 0, 65, 55
2, 60271, Note_on_c, 0, 53, 49
2, 60271, Note_on_c, 0, 62, 57
2, 60272, Note_on_c, 0, 36, 0
2, 60277, Note_on_c, 0, 55, 31
2, 60277, Note_on_c, 0, 48, 42
2, 60305, Control_c, 0, 64, 127
2, 60320, Note_on_c, 0, 62, 0
2, 60327, Note_on_c, 0, 65, 0
2, 60329, Note_on_c, 0, 55, 0
2, 60334, Note_on_c, 0, 53, 0
2, 60353, Note_on_c, 0, 58, 0
2, 60365, Control_c, 0, 64, 0
2, 60382, Control_c, 0, 64, 127
2, 60387, Note_on_c, 0, 36, 44
2, 60390, Note_on_c, 0, 57, 59
2, 60390, Note_on_c, 0, 64, 55
2, 60396, Note_on_c, 0, 36, 0
2, 60402, Note_on_c, 0, 57, 0
2, 60405, Note_on_c, 0, 48, 0
2, 60416, Note_on_c, 0, 64, 0
2, 60469, Note_on_c, 0, 48, 51
2, 60505, Control_c, 0, 64, 0
2, 60511, Note_on_c, 0, 69, 85
2, 60511, Note_on_c, 0, 73, 57
2, 60512, Note_on_c, 0, 76, 80
2, 60513, Note_on_c, 0, 64, 82
2, 60516, Note_on_c, 0, 57, 73
2, 60553, Control_c, 0, 64, 127
2, 60566, Note_on_c, 0, 48, 0
2, 60627, Note_on_c, 0, 48, 54
2, 60642, Note_on_c, 0, 69, 0
2, 60649, Note_on_c, 0, 76, 0
2, 60649, Note_on_c, 0, 73, 0
2, 60668, Note_on_c, 0, 64, 0
2, 60684, Note_on_c, 0, 48, 0
2, 60712, Note_on_c, 0, 48, 44
2, 60716, Note_on_c, 0, 57, 0
2, 60754, Note_on_c, 0, 74, 61
2, 60755, Control_c, 0, 64, 0
2, 60759, Note_on_c, 0, 65, 50
2, 60760, Note_on_c, 0, 62, 66
2, 60761, Note_on_c, 0, 69, 43
2, 60762, Note_on_c, 0, 60, 46
2, 60762, Note_on_c, 0, 57, 48
2, 60808, Control_c, 0, 64, 127
2, 60839, Note_on_c, 0, 48, 0
2, 60853, Note_on_c, 0, 62, 0
2, 60865, Note_on_c, 0, 60, 0
2, 60868, Note_on_c, 0, 57, 0
2, 60868, Note_on_c, 0, 65, 0
2, 60882, Note_on_c, 0, 74, 0
2, 60882, Note_on_c, 0, 69, 0
2, 60882, Note_on_c, 0, 48, 65
2, 60918, Note_on_c, 0, 48, 0
2, 60954, Note_on_c, 0, 48, 58
2, 60986, Control_c, 0, 64, 0
2, 60990, Note_on_c, 0, 77, 76
2, 60990, Note_on_c, 0, 75, 75
2, 60992, Note_on_c, 0, 67, 87
2, 60992, Note_on_c, 0, 70, 83
2, 60999, Note_on_c, 0, 60, 78
2, 61034, Control_c, 0, 64, 127
2, 61063, Note_on_c, 0, 48, 0
2, 61093, Note_on_c, 0, 77, 0
2, 61105, Note_on_c, 0, 70, 0
2, 61106, Note_on_c, 0, 75, 0
2, 61109, Note_on_c, 0, 48, 38
2, 61116, Note_on_c, 0, 67, 0
2, 61119, Note_on_c, 0, 48, 0
2, 61123, Note_on_c, 0, 60, 0
2, 61187, Note_on_c, 0, 48, 35
2, 61201, Note_on_c, 0, 48, 0
2, 61241, Control_c, 0, 64, 0
2, 61281, Note_on_c, 0, 68, 50
2, 61284, Note_on_c, 0, 61, 51
2, 61286, Note_on_c, 0, 63, 46
2, 61287, Note_on_c, 0, 47, 59
2, 61287, Note_on_c, 0, 57, 41
2, 61302, Note_on_c, 0, 57, 0
2, 61306, Note_on_c, 0, 61, 0
2, 61309, Note_on_c, 0, 47, 0
2, 61310, Note_on_c, 0, 63, 0
2, 61314, Note_on_c, 0, 68, 0
2, 61357, Control_c, 0, 64, 127
2, 61361, Note_on_c, 0, 68, 39
2, 61364, Note_on_c, 0, 63, 43
2, 61365, Note_on_c, 0, 61, 38
2, 61367, Note_on_c, 0, 57, 31
2, 61368, Note_on_c, 0, 47, 39
2, 61383, Note_on_c, 0, 47, 0
2, 61408, Note_on_c, 0, 57, 0
2, 61410, Note_on_c, 0, 68, 0
2, 61419, Note_on_c, 0, 63, 0
2, 61424, Note_on_c, 0, 61, 0
2, 61437, Note_on_c, 0, 62, 45
2, 61437, Note_on_c, 0, 57, 36
2, 61437, Note_on_c, 0, 65, 51
2, 61448, Note_on_c, 0, 46, 34
2, 61455, Control_c, 0, 64, 0
2, 61552, Note_on_c, 0, 53, 49
2, 61580, Note_on_c, 0, 53, 0
2, 61594, Note_on_c, 0, 55, 49
2, 61612, Note_on_c, 0, 57, 0
2, 61671, Note_on_c, 0, 55, 0
2, 61673, Note_on_c, 0, 65, 0
2, 61677, Note_on_c, 0, 62, 0
2, 61682, Note_on_c, 0, 51, 33
2, 61692, Note_on_c, 0, 51, 0
2, 61705, Note_on_c, 0, 53, 47
2, 61798, Note_on_c, 0, 53, 0
2, 61817, Note_on_c, 0, 67, 63
2, 61820, Note_on_c, 0, 60, 56
2, 61821, Note_on_c, 0, 62, 60
2, 61826, Note_on_c, 0, 52, 24
2, 61864, Note_on_c, 0, 60, 0
2, 61875, Note_on_c, 0, 62, 0
2, 61880, Note_on_c, 0, 67, 0
2, 61914, Note_on_c, 0, 49, 31
2, 61916, Note_on_c, 0, 52, 0
2, 61941, Note_on_c, 0, 49, 0
2, 61944, Note_on_c, 0, 67, 59
2, 61946, Note_on_c, 0, 50, 40
2, 61948, Note_on_c, 0, 62, 49
2, 61951, Note_on_c, 0, 60, 42
2, 61957, Note_on_c, 0, 46, 0
2, 62011, Note_on_c, 0, 67, 0
2, 62021, Note_on_c, 0, 60, 0
2, 62028, Note_on_c, 0, 62, 0
2, 62065, Note_on_c, 0, 50, 0
2, 62070, Note_on_c, 0, 62, 50
2, 62070, Note_on_c, 0, 46, 39
2, 62074, Note_on_c, 0, 69, 38
2, 62075, Note_on_c, 0, 65, 40
2, 62085, Note_on_c, 0, 57, 26
2, 62139, Note_on_c, 0, 57, 0
2, 62146, Note_on_c, 0, 62, 0
2, 62146, Note_on_c, 0, 65, 0
2, 62150, Note_on_c, 0, 69, 0
2, 62175, Note_on_c, 0, 46, 0
2, 62189, Note_on_c, 0, 57, 58
2, 62190, Note_on_c, 0, 62, 62
2, 62190, Note_on_c, 0, 69, 63
2, 62191, Note_on_c, 0, 65, 51
2, 62269, Note_on_c, 0, 41, 66
2, 62291, Note_on_c, 0, 41, 0
2, 62315, Note_on_c, 0, 40, 49
2, 62352, Note_on_c, 0, 57, 0
2, 62372, Note_on_c, 0, 69, 0
2, 62376, Note_on_c, 0, 62, 0
2, 62383, Note_on_c, 0, 65, 0
2, 62428, Note_on_c, 0, 40, 0
2, 62434, Note_on_c, 0, 39, 55
2, 62493, Control_c, 0, 64, 127
2, 62549, Note_on_c, 0, 39, 0
2, 62549, Control_c, 0, 64, 0
2, 62553, Note_on_c, 0, 65, 56
2, 62553, Note_on_c, 0, 60, 66
2, 62553, Note_on_c, 0, 61, 49
2, 62554, Note_on_c, 0, 46, 49
2, 62559, Note_on_c, 0, 55, 34
2, 62570, Note_on_c, 0, 55, 0
2, 62579, Note_on_c, 0, 60, 0
2, 62587, Note_on_c, 0, 61, 0
2, 62593, Note_on_c, 0, 65, 0
2, 62645, Control_c, 0, 64, 127
2, 62662, Control_c, 0, 64, 0
2, 62672, Note_on_c, 0, 61, 62
2, 62673, Note_on_c, 0, 65, 65
2, 62675, Note_on_c, 0, 55, 77
2, 62675, Note_on_c, 0, 60, 77
2, 62687, Note_on_c, 0, 46, 0
2, 62793, Note_on_c, 0, 55, 0
2, 62795, Note_on_c, 0, 54, 54
2, 62815, Note_on_c, 0, 60, 0
2, 62816, Note_on_c, 0, 65, 0
2, 62859, Note_on_c, 0, 61, 0
2, 62869, Control_c, 0, 64, 127
2, 62896, Note_on_c, 0, 51, 25
2, 62902, Control_c, 0, 64, 0
2, 62906, Note_on_c, 0, 51, 0
2, 62911, Note_on_c, 0, 61, 56
2, 62911, Note_on_c, 0, 67, 57
2, 62912, Note_on_c, 0, 54, 0
2, 62914, Note_on_c, 0, 58, 45
2, 62918, Note_on_c, 0, 53, 43
2, 62982, Note_on_c, 0, 67, 0
2, 62991, Control_c, 0, 64, 127
2, 62999, Note_on_c, 0, 61, 0
2, 63000, Note_on_c, 0, 58, 0
2, 63020, Control_c, 0, 64, 0
2, 63027, Note_on_c, 0, 53, 0
2, 63030, Note_on_c, 0, 51, 52
2, 63030, Note_on_c, 0, 68, 50
2, 63031, Note_on_c, 0, 58, 49
2, 63034, Note_on_c, 0, 61, 45
2, 63047, Note_on_c, 0, 65, 27
2, 63048, Note_on_c, 0, 51, 0
2, 63071, Control_c, 0, 64, 127
2, 63080, Note_on_c, 0, 65, 0
2, 63087, Note_on_c, 0, 68, 0
2, 63091, Note_on_c, 0, 58, 0
2, 63093, Note_on_c, 0, 61, 0
2, 63115, Note_on_c, 0, 68, 60
2, 63117, Note_on_c, 0, 58, 62
2, 63118, Note_on_c, 0, 61, 52
2, 63121, Note_on_c, 0, 65, 46
2, 63124, Control_c, 0, 64, 0
2, 63141, Note_on_c, 0, 65, 0
2, 63144, Note_on_c, 0, 39, 44
2, 63146, Note_on_c, 0, 58, 0
2, 63152, Note_on_c, 0, 61, 0
2, 63153, Note_on_c, 0, 68, 0
2, 63192, Note_on_c, 0, 67, 53
2, 63193, Note_on_c, 0, 61, 54
2, 63196, Note_on_c, 0, 63, 39
2, 63196, Note_on_c, 0, 55, 63
2, 63220, Control_c, 0, 64, 127
2, 63228, Note_on_c, 0, 67, 0
2, 63230, Note_on_c, 0, 55, 0
2, 63234, Note_on_c, 0, 39, 0
2, 63247, Note_on_c, 0, 61, 0
2, 63247, Note_on_c, 0, 63, 0
2, 63266, Control_c, 0, 64, 0
2, 63270, Note_on_c, 0, 43, 40
2, 63271, Note_on_c, 0, 66, 56
2, 63271, Note_on_c, 0, 56, 47
2, 63272, Note_on_c, 0, 61, 44
2, 63324, Control_c, 0, 64, 127
2, 63333, Note_on_c, 0, 61, 0
2, 63333, Note_on_c, 0, 56, 0
2, 63335, Note_on_c, 0, 66, 0
2, 63351, Note_on_c, 0, 65, 59
2, 63354, Note_on_c, 0, 55, 66
2, 63354, Note_on_c, 0, 60, 67
2, 63358, Note_on_c, 0, 43, 0
2, 63367, Control_c, 0, 64, 0
2, 63379, Note_on_c, 0, 55, 0
2, 63381, Note_on_c, 0, 44, 42
2, 63385, Note_on_c, 0, 65, 0
2, 63387, Note_on_c, 0, 60, 0
2, 63421, Note_on_c, 0, 65, 37
2, 63426, Note_on_c, 0, 60, 36
2, 63428, Note_on_c, 0, 55, 36
2, 63430, Control_c, 0, 64, 127
2, 63479, Note_on_c, 0, 65, 0
2, 63480, Note_on_c, 0, 55, 0
2, 63480, Note_on_c, 0, 60, 0
2, 63494, Control_c, 0, 64, 0
2, 63507, Note_on_c, 0, 44, 0
2, 63510, Note_on_c, 0, 39, 39
2, 63512, Note_on_c, 0, 65, 48
2, 63515, Note_on_c, 0, 55, 39
2, 63516, Note_on_c, 0, 60, 40
2, 63547, Control_c, 0, 64, 127
2, 63561, Note_on_c, 0, 65, 0
2, 63562, Note_on_c, 0, 55, 0
2, 63565, Note_on_c, 0, 60, 0
2, 63594, Note_on_c, 0, 65, 49
2, 63594, Note_on_c, 0, 55, 68
2, 63595, Note_on_c, 0, 60, 54
2, 63602, Note_on_c, 0, 55, 0
2, 63609, Note_on_c, 0, 65, 0
2, 63610, Note_on_c, 0, 60, 0
2, 63613, Control_c, 0, 64, 0
2, 63622, Note_on_c, 0, 32, 46
2, 63623, Note_on_c, 0, 39, 0
2, 63685, Control_c, 0, 64, 127
2, 63713, Note_on_c, 0, 39, 42
2, 63724, Note_on_c, 0, 32, 0
2, 63737, Note_on_c, 0, 39, 0
2, 63743, Control_c, 0, 64, 0
2, 63744, Note_on_c, 0, 44, 63
2, 63746, Note_on_c, 0, 57, 55
2, 63748, Note_on_c, 0, 67, 50
2, 63748, Note_on_c, 0, 62, 53
2, 63799, Note_on_c, 0, 62, 0
2, 63810, Control_c, 0, 64, 127
2, 63814, Note_on_c, 0, 57, 0
2, 63822, Note_on_c, 0, 67, 0
2, 63832, Note_on_c, 0, 39, 37
2, 63843, Note_on_c, 0, 44, 0
2, 63860, Control_c, 0, 64, 0
2, 63870, Note_on_c, 0, 39, 0
2, 63872, Note_on_c, 0, 67, 57
2, 63872, Note_on_c, 0, 63, 37
2, 63872, Note_on_c, 0, 59, 63
2, 63873, Note_on_c, 0, 55, 45
2, 63873, Note_on_c, 0, 43, 57
2, 63937, Note_on_c, 0, 55, 0
2, 63939, Note_on_c, 0, 67, 0
2, 63944, Note_on_c, 0, 59, 0
2, 63957, Control_c, 0, 64, 127
2, 63972, Note_on_c, 0, 63, 0
2, 63978, Control_c, 0, 64, 0
2, 63985, Note_on_c, 0, 43, 0
2, 63990, Note_on_c, 0, 68, 63
2, 63991, Note_on_c, 0, 63, 51
2, 63991, Note_on_c, 0, 31, 62
2, 63994, Note_on_c, 0, 56, 35
2, 63997, Note_on_c, 0, 59, 34
2, 64062, Note_on_c, 0, 59, 0
2, 64063, Note_on_c, 0, 56, 0
2, 64074, Note_on_c, 0, 68, 0
2, 64082, Note_on_c, 0, 63, 0
2, 64097, Note_on_c, 0, 31, 0
2, 64108, Note_on_c, 0, 68, 51
2, 64109, Note_on_c, 0, 33, 57
2, 64110, Note_on_c, 0, 63, 34
2, 64111, Note_on_c, 0, 56, 43
2, 64112, Note_on_c, 0, 59, 57
2, 64156, Note_on_c, 0, 59, 0
2, 64160, Note_on_c, 0, 56, 0
2, 64168, Note_on_c, 0, 63, 0
2, 64171, Note_on_c, 0, 68, 0
2, 64189, Note_on_c, 0, 33, 0
2, 64190, Note_on_c, 0, 34, 56
2, 64193, Note_on_c, 0, 67, 69
2, 64198, Note_on_c, 0, 63, 30
2, 64198, Note_on_c, 0, 59, 43
2, 64212, Note_on_c, 0, 59, 0
2, 64219, Note_on_c, 0, 63, 0
2, 64221, Note_on_c, 0, 67, 0
2, 64221, Note_on_c, 0, 34, 0
2, 64234, Note_on_c, 0, 35, 45
2, 64237, Note_on_c, 0, 65, 24
2, 64290, Note_on_c, 0, 65, 0
2, 64308, Control_c, 0, 64, 127
2, 64314, Note_on_c, 0, 34, 44
2, 64327, Control_c, 0, 64, 0
2, 64343, Note_on_c, 0, 34, 0
2, 64345, Note_on_c, 0, 35, 0
2, 64350, Note_on_c, 0, 36, 36
2, 64351, Note_on_c, 0, 55, 45
2, 64352, Note_on_c, 0, 64, 49
2, 64375, Control_c, 0, 64, 127
2, 64403, Note_on_c, 0, 64, 0
2, 64429, Note_on_c, 0, 55, 0
2, 64430, Note_on_c, 0, 34, 49
2, 64435, Note_on_c, 0, 36, 0
2, 64464, Note_on_c, 0, 34, 0
2, 64465, Control_c, 0, 64, 0
2, 64467, Note_on_c, 0, 36, 48
2, 64491, Control_c, 0, 64, 127
2, 64551, Note_on_c, 0, 34, 37
2, 64554, Note_on_c, 0, 36, 0
2, 64573, Control_c, 0, 64, 0
2, 64582, Note_on_c, 0, 34, 0
2, 64585, Note_on_c, 0, 38, 54
2, 64597, Note_on_c, 0, 53, 60
2, 64615, Note_on_c, 0, 53, 0
2, 64673, Note_on_c, 0, 34, 37
2, 64679, Note_on_c, 0, 38, 0
2, 64704, Note_on_c, 0, 38, 39
2, 64706, Note_on_c, 0, 34, 0
2, 64706, Note_on_c, 0, 53, 53
2, 64795, Note_on_c, 0, 37, 45
2, 64797, Note_on_c, 0, 53, 0
2, 64807, Note_on_c, 0, 38, 0
2, 64826, Note_on_c, 0, 54, 69
2, 64831, Note_on_c, 0, 37, 0
2, 64831, Note_on_c, 0, 39, 52
2, 64917, Note_on_c, 0, 39, 0
2, 64925, Note_on_c, 0, 37, 25
2, 64938, Note_on_c, 0, 37, 0
2, 64943, Note_on_c, 0, 39, 60
2, 64945, Note_on_c, 0, 54, 0
2, 64996, Control_c, 0, 64, 127
2, 65029, Note_on_c, 0, 39, 0
2, 65030, Note_on_c, 0, 55, 87
2, 65033, Note_on_c, 0, 40, 66
2, 65035, Control_c, 0, 64, 0
2, 65044, Control_c, 0, 64, 127
2, 65064, Note_on_c, 0, 55, 0
2, 65144, Note_on_c, 0, 40, 0
2, 65148, Note_on_c, 0, 28, 66
2, 65150, Note_on_c, 0, 60, 84
2, 65165, Note_on_c, 0, 28, 0
2, 65194, Note_on_c, 0, 60, 0
2, 65230, Note_on_c, 0, 60, 78
2, 65268, Note_on_c, 0, 60, 0
2, 65297, Note_on_c, 0, 60, 79
2, 65313, Note_on_c, 0, 60, 0
2, 65360, Control_c, 0, 64, 0
2, 65373, Note_on_c, 0, 72, 66
2, 65374, Note_on_c, 0, 67, 83
2, 65374, Note_on_c, 0, 64, 84
2, 65375, Note_on_c, 0, 69, 79
2, 65449, Note_on_c, 0, 60, 56
2, 65473, Note_on_c, 0, 60, 0
2, 65507, Control_c, 0, 64, 127
2, 65533, Note_on_c, 0, 60, 60
2, 65556, Note_on_c, 0, 60, 0
2, 65615, Note_on_c, 0, 60, 59
2, 65638, Note_on_c, 0, 60, 0
2, 65691, Note_on_c, 0, 60, 45
2, 65727, Note_on_c, 0, 67, 0
2, 65729, Note_on_c, 0, 64, 0
2, 65748, Note_on_c, 0, 69, 0
2, 65760, Note_on_c, 0, 64, 41
2, 65761, Note_on_c, 0, 67, 51
2, 65762, Note_on_c, 0, 48, 50
2, 65767, Control_c, 0, 64, 0
2, 65784, Note_on_c, 0, 60, 0
2, 65800, Control_c, 0, 64, 127
2, 65876, Note_on_c, 0, 60, 51
2, 65897, Note_on_c, 0, 60, 0
2, 65962, Note_on_c, 0, 60, 63
2, 65995, Note_on_c, 0, 60, 0
2, 66043, Note_on_c, 0, 60, 58
2, 66044, Note_on_c, 0, 64, 0
2, 66052, Note_on_c, 0, 67, 0
2, 66062, Note_on_c, 0, 60, 0
2, 66078, Note_on_c, 0, 72, 0
2, 66121, Note_on_c, 0, 60, 55
2, 66143, Note_on_c, 0, 60, 0
2, 66206, Note_on_c, 0, 60, 53
2, 66216, Note_on_c, 0, 60, 0
2, 66239, Note_on_c, 0, 60, 58
2, 66248, Note_on_c, 0, 60, 0
2, 66274, Control_c, 0, 64, 0
2, 66275, Note_on_c, 0, 84, 80
2, 66278, Note_on_c, 0, 73, 62
2, 66278, Note_on_c, 0, 60, 71
2, 66279, Note_on_c, 0, 77, 71
2, 66282, Note_on_c, 0, 79, 60
2, 66284, Note_on_c, 0, 48, 0
2, 66320, Control_c, 0, 64, 127
2, 66354, Note_on_c, 0, 48, 63
2, 66355, Note_on_c, 0, 84, 0
2, 66361, Note_on_c, 0, 79, 0
2, 66368, Note_on_c, 0, 77, 0
2, 66379, Note_on_c, 0, 73, 0
2, 66385, Note_on_c, 0, 48, 0
2, 66467, Note_on_c, 0, 48, 46
2, 66483, Note_on_c, 0, 60, 0
2, 66541, Note_on_c, 0, 72, 53
2, 66543, Note_on_c, 0, 61, 47
2, 66545, Note_on_c, 0, 60, 39
2, 66547, Note_on_c, 0, 65, 54
2, 66551, Note_on_c, 0, 67, 43
2, 66568, Note_on_c, 0, 60, 0
2, 66630, Note_on_c, 0, 60, 60
2, 66652, Note_on_c, 0, 60, 0
2, 66718, Note_on_c, 0, 60, 60
2, 66740, Note_on_c, 0, 60, 0
2, 66804, Note_on_c, 0, 60, 64
2, 66827, Note_on_c, 0, 60, 0
2, 66844, Note_on_c, 0, 65, 0
2, 66845, Note_on_c, 0, 61, 0
2, 66877, Note_on_c, 0, 67, 0
2, 66885, Note_on_c, 0, 61, 48
2, 66887, Note_on_c, 0, 65, 52
2, 66889, Note_on_c, 0, 60, 53
2, 66893, Control_c, 0, 64, 0
2, 66917, Control_c, 0, 64, 127
2, 66921, Note_on_c, 0, 48, 0
2, 66963, Note_on_c, 0, 48, 50
2, 66995, Note_on_c, 0, 48, 0
2, 67039, Note_on_c, 0, 48, 60
2, 67069, Note_on_c, 0, 61, 0
2, 67083, Note_on_c, 0, 65, 0
2, 67085, Note_on_c, 0, 48, 0
2, 67100, Note_on_c, 0, 72, 0
2, 67107, Note_on_c, 0, 60, 0
2, 67122, Note_on_c, 0, 48, 74
2, 67155, Note_on_c, 0, 48, 0
2, 67198, Note_on_c, 0, 72, 74
2, 67199, Note_on_c, 0, 67, 89
2, 67200, Note_on_c, 0, 62, 85
2, 67200, Note_on_c, 0, 57, 81
2, 67203, Control_c, 0, 64, 0
2, 67254, Control_c, 0, 64, 127
2, 67270, Note_on_c, 0, 48, 54
2, 67314, Note_on_c, 0, 48, 0
2, 67357, Note_on_c, 0, 48, 51
2, 67385, Note_on_c, 0, 48, 0
2, 67439, Note_on_c, 0, 48, 71
2, 67463, Note_on_c, 0, 67, 0
2, 67464, Note_on_c, 0, 72, 0
2, 67488, Note_on_c, 0, 62, 0
2, 67501, Note_on_c, 0, 57, 0
2, 67550, Note_on_c, 0, 64, 62
2, 67551, Note_on_c, 0, 67, 59
2, 67552, Note_on_c, 0, 60, 62
2, 67556, Note_on_c, 0, 57, 55
2, 67562, Control_c, 0, 64, 0
2, 67588, Control_c, 0, 64, 127
2, 67617, Note_on_c, 0, 48, 0
2, 67654, Note_on_c, 0, 60, 0
2, 67659, Note_on_c, 0, 64, 0
2, 67665, Note_on_c, 0, 67, 0
2, 67669, Note_on_c, 0, 48, 62
2, 67682, Note_on_c, 0, 57, 0
2, 67708, Note_on_c, 0, 72, 77
2, 67710, Note_on_c, 0, 67, 82
2, 67711, Note_on_c, 0, 57, 81
2, 67711, Control_c, 0, 64, 0
2, 67711, Note_on_c, 0, 62, 71
2, 67713, Note_on_c, 0, 64, 74
2, 67721, Note_on_c, 0, 64, 0
2, 67752, Note_on_c, 0, 62, 0
2, 67758, Note_on_c, 0, 67, 0
2, 67761, Note_on_c, 0, 57, 0
2, 67768, Note_on_c, 0, 72, 0
2, 67769, Note_on_c, 0, 48, 0
2, 67839, Control_c, 0, 64, 127
2, 67912, Note_on_c, 0, 53, 74
2, 67913, Note_on_c, 0, 65, 83
2, 67940, Control_c, 0, 64, 0
2, 67946, Note_on_c, 0, 53, 0
2, 67948, Note_on_c, 0, 65, 0
2, 67959, Note_on_c, 0, 57, 52
2, 67960, Note_on_c, 0, 69, 68
2, 67993, Control_c, 0, 64, 127
2, 68014, Note_on_c, 0, 69, 0
2, 68027, Note_on_c, 0, 57, 0
2, 68031, Note_on_c, 0, 72, 54
2, 68035, Note_on_c, 0, 60, 65
2, 68046, Note_on_c, 0, 60, 0
2, 68053, Control_c, 0, 64, 0
2, 68055, Note_on_c, 0, 72, 0
2, 68077, Note_on_c, 0, 74, 48
2, 68077, Note_on_c, 0, 62, 45
2, 68079, Control_c, 0, 64, 127
2, 68080, Note_on_c, 0, 64, 35
2, 68089, Note_on_c, 0, 64, 0
2, 68126, Note_on_c, 0, 74, 0
2, 68145, Note_on_c, 0, 76, 80
2, 68147, Note_on_c, 0, 62, 0
2, 68149, Note_on_c, 0, 71, 76
2, 68149, Note_on_c, 0, 69, 78
2, 68149, Note_on_c, 0, 65, 80
2, 68151, Note_on_c, 0, 64, 76
2, 68154, Control_c, 0, 64, 0
2, 68156, Note_on_c, 0, 74, 29
2, 68179, Note_on_c, 0, 65, 0
2, 68185, Note_on_c, 0, 74, 0
2, 68193, Note_on_c, 0, 69, 0
2, 68197, Note_on_c, 0, 76, 0
2, 68197, Note_on_c, 0, 65, 50
2, 68199, Note_on_c, 0, 71, 0
2, 68214, Note_on_c, 0, 64, 0
2, 68220, Note_on_c, 0, 65, 0
2, 68220, Note_on_c, 0, 76, 22
2, 68225, Note_on_c, 0, 71, 35
2, 68227, Note_on_c, 0, 69, 42
2, 68239, Note_on_c, 0, 69, 0
2, 68243, Note_on_c, 0, 65, 32
2, 68244, Note_on_c, 0, 76, 0
2, 68245, Control_c, 0, 64, 127
2, 68247, Note_on_c, 0, 71, 0
2, 68263, Note_on_c, 0, 65, 0
2, 68275, Note_on_c, 0, 71, 32
2, 68277, Note_on_c, 0, 69, 26
2, 68288, Note_on_c, 0, 69, 0
2, 68288, Note_on_c, 0, 65, 41
2, 68289, Control_c, 0, 64, 0
2, 68291, Note_on_c, 0, 71, 0
2, 68311, Note_on_c, 0, 65, 0
2, 68316, Note_on_c, 0, 76, 24
2, 68318, Note_on_c, 0, 71, 43
2, 68318, Note_on_c, 0, 69, 37
2, 68334, Note_on_c, 0, 65, 34
2, 68339, Note_on_c, 0, 69, 0
2, 68342, Note_on_c, 0, 71, 0
2, 68343, Note_on_c, 0, 76, 0
2, 68360, Note_on_c, 0, 65, 0
2, 68364, Note_on_c, 0, 69, 41
2, 68365, Note_on_c, 0, 76, 22
2, 68367, Note_on_c, 0, 71, 50
2, 68382, Note_on_c, 0, 64, 89
2, 68385, Note_on_c, 0, 65, 57
2, 68386, Note_on_c, 0, 69, 0
2, 68387, Note_on_c, 0, 71, 0
2, 68396, Note_on_c, 0, 76, 0
2, 68405, Note_on_c, 0, 64, 0
2, 68409, Note_on_c, 0, 65, 0
2, 68411, Note_on_c, 0, 76, 17
2, 68413, Note_on_c, 0, 69, 41
2, 68413, Note_on_c, 0, 71, 40
2, 68425, Note_on_c, 0, 69, 0
2, 68428, Note_on_c, 0, 71, 0
2, 68429, Note_on_c, 0, 65, 49
2, 68429, Control_c, 0, 64, 127
2, 68454, Note_on_c, 0, 65, 0
2, 68458, Note_on_c, 0, 69, 46
2, 68458, Note_on_c, 0, 71, 45
2, 68473, Note_on_c, 0, 69, 0
2, 68476, Note_on_c, 0, 65, 45
2, 68483, Note_on_c, 0, 71, 0
2, 68487, Note_on_c, 0, 76, 0
2, 68501, Note_on_c, 0, 76, 33
2, 68503, Note_on_c, 0, 69, 57
2, 68504, Note_on_c, 0, 65, 0
2, 68505, Note_on_c, 0, 71, 55
2, 68509, Note_on_c, 0, 53, 73
2, 68512, Note_on_c, 0, 41, 69
2, 68517, Control_c, 0, 64, 0
2, 68523, Note_on_c, 0, 41, 0
2, 68524, Note_on_c, 0, 65, 42
2, 68525, Note_on_c, 0, 69, 0
2, 68527, Note_on_c, 0, 53, 0
2, 68529, Note_on_c, 0, 71, 0
2, 68548, Note_on_c, 0, 65, 0
2, 68548, Note_on_c, 0, 69, 49
2, 68550, Note_on_c, 0, 71, 46
2, 68566, Note_on_c, 0, 69, 0
2, 68566, Control_c, 0, 64, 127
2, 68567, Note_on_c, 0, 65, 42
2, 68572, Note_on_c, 0, 71, 0
2, 68573, Note_on_c, 0, 76, 0
2, 68590, Note_on_c, 0, 65, 0
2, 68598, Note_on_c, 0, 76, 33
2, 68598, Note_on_c, 0, 69, 34
2, 68600, Note_on_c, 0, 71, 37
2, 68622, Note_on_c, 0, 65, 20
2, 68624, Note_on_c, 0, 69, 0
2, 68625, Note_on_c, 0, 71, 0
2, 68631, Note_on_c, 0, 52, 91
2, 68632, Note_on_c, 0, 40, 91
2, 68636, Note_on_c, 0, 76, 0
2, 68637, Note_on_c, 0, 50, 41
2, 68646, Note_on_c, 0, 50, 0
2, 68653, Note_on_c, 0, 52, 0
2, 68654, Note_on_c, 0, 40, 0
2, 68656, Note_on_c, 0, 65, 0
2, 68662, Control_c, 0, 64, 0
2, 68667, Note_on_c, 0, 68, 25
2, 68683, Note_on_c, 0, 68, 0
2, 68684, Note_on_c, 0, 65, 37
2, 68712, Note_on_c, 0, 65, 0
2, 68716, Note_on_c, 0, 68, 31
2, 68720, Note_on_c, 0, 76, 25
2, 68721, Note_on_c, 0, 70, 29
2, 68741, Note_on_c, 0, 68, 0
2, 68741, Note_on_c, 0, 65, 49
2, 68742, Note_on_c, 0, 70, 0
2, 68745, Note_on_c, 0, 76, 0
2, 68754, Note_on_c, 0, 56, 69
2, 68754, Note_on_c, 0, 62, 74
2, 68758, Control_c, 0, 64, 127
2, 68764, Note_on_c, 0, 68, 37
2, 68765, Note_on_c, 0, 76, 58
2, 68767, Note_on_c, 0, 65, 0
2, 68767, Note_on_c, 0, 70, 39
2, 68772, Note_on_c, 0, 62, 0
2, 68777, Control_c, 0, 64, 0
2, 68780, Note_on_c, 0, 56, 0
2, 68787, Note_on_c, 0, 68, 0
2, 68789, Note_on_c, 0, 70, 0
2, 68789, Note_on_c, 0, 65, 43
2, 68798, Note_on_c, 0, 76, 0
2, 68813, Note_on_c, 0, 65, 0
2, 68813, Note_on_c, 0, 76, 29
2, 68815, Note_on_c, 0, 68, 36
2, 68816, Note_on_c, 0, 70, 36
2, 68840, Note_on_c, 0, 68, 0
2, 68841, Note_on_c, 0, 70, 0
2, 68841, Note_on_c, 0, 65, 47
2, 68845, Note_on_c, 0, 76, 0
2, 68866, Note_on_c, 0, 68, 54
2, 68868, Note_on_c, 0, 56, 92
2, 68869, Note_on_c, 0, 70, 56
2, 68871, Note_on_c, 0, 65, 0
2, 68873, Note_on_c, 0, 76, 56
2, 68889, Note_on_c, 0, 68, 0
2, 68890, Note_on_c, 0, 70, 0
2, 68896, Note_on_c, 0, 65, 45
2, 68899, Note_on_c, 0, 76, 0
2, 68917, Note_on_c, 0, 65, 0
2, 68921, Note_on_c, 0, 68, 33
2, 68923, Note_on_c, 0, 70, 33
2, 68925, Note_on_c, 0, 76, 31
2, 68940, Note_on_c, 0, 65, 40
2, 68941, Note_on_c, 0, 68, 0
2, 68944, Note_on_c, 0, 76, 0
2, 68944, Note_on_c, 0, 70, 0
2, 68968, Note_on_c, 0, 65, 0
2, 68970, Note_on_c, 0, 68, 34
2, 68975, Note_on_c, 0, 70, 34
2, 68982, Note_on_c, 0, 76, 24
2, 68993, Note_on_c, 0, 68, 0
2, 68997, Note_on_c, 0, 46, 83
2, 69001, Note_on_c, 0, 65, 59
2, 69002, Note_on_c, 0, 70, 0
2, 69005, Note_on_c, 0, 48, 45
2, 69013, Note_on_c, 0, 48, 0
2, 69025, Note_on_c, 0, 65, 0
2, 69027, Note_on_c, 0, 70, 28
2, 69028, Note_on_c, 0, 68, 28
2, 69042, Note_on_c, 0, 76, 0
2, 69047, Note_on_c, 0, 68, 0
2, 69047, Note_on_c, 0, 65, 43
2, 69049, Note_on_c, 0, 70, 0
2, 69052, Control_c, 0, 64, 127
2, 69066, Note_on_c, 0, 65, 0
2, 69074, Note_on_c, 0, 70, 34
2, 69074, Note_on_c, 0, 76, 20
2, 69102, Note_on_c, 0, 76, 0
2, 69109, Note_on_c, 0, 56, 0
2, 69110, Note_on_c, 0, 65, 38
2, 69113, Note_on_c, 0, 68, 1
2, 69131, Note_on_c, 0, 65, 0
2, 69131, Note_on_c, 0, 52, 37
2, 69134, Note_on_c, 0, 45, 42
2, 69135, Note_on_c, 0, 46, 0
2, 69139, Note_on_c, 0, 70, 0
2, 69141, Note_on_c, 0, 68, 0
2, 69158, Control_c, 0, 64, 0
2, 69162, Note_on_c, 0, 74, 64
2, 69163, Note_on_c, 0, 67, 67
2, 69163, Note_on_c, 0, 71, 35
2, 69165, Note_on_c, 0, 64, 66
2, 69165, Note_on_c, 0, 57, 74
2, 69171, Note_on_c, 0, 52, 0
2, 69190, Note_on_c, 0, 45, 0
2, 69194, Control_c, 0, 64, 127
2, 69213, Note_on_c, 0, 45, 14
2, 69255, Note_on_c, 0, 64, 0
2, 69256, Note_on_c, 0, 57, 0
2, 69256, Note_on_c, 0, 67, 0
2, 69260, Note_on_c, 0, 71, 0
2, 69265, Note_on_c, 0, 74, 0
2, 69271, Note_on_c, 0, 45, 0
2, 69274, Control_c, 0, 64, 0
2, 69278, Note_on_c, 0, 64, 54
2, 69279, Note_on_c, 0, 67, 56
2, 69280, Note_on_c, 0, 72, 40
2, 69283, Note_on_c, 0, 45, 22
2, 69286, Note_on_c, 0, 57, 48
2, 69319, Control_c, 0, 64, 127
2, 69340, Note_on_c, 0, 45, 0
2, 69342, Note_on_c, 0, 67, 0
2, 69344, Note_on_c, 0, 57, 0
2, 69355, Note_on_c, 0, 64, 0
2, 69367, Note_on_c, 0, 72, 0
2, 69382, Control_c, 0, 64, 0
2, 69398, Note_on_c, 0, 74, 60
2, 69400, Note_on_c, 0, 71, 47
2, 69400, Note_on_c, 0, 67, 57
2, 69401, Note_on_c, 0, 64, 58
2, 69402, Note_on_c, 0, 57, 44
2, 69404, Control_c, 0, 64, 127
2, 69449, Note_on_c, 0, 57, 0
2, 69451, Note_on_c, 0, 64, 0
2, 69458, Note_on_c, 0, 71, 0
2, 69459, Note_on_c, 0, 67, 0
2, 69464, Note_on_c, 0, 74, 0
2, 69479, Note_on_c, 0, 45, 55
2, 69482, Note_on_c, 0, 67, 55
2, 69482, Note_on_c, 0, 64, 53
2, 69483, Note_on_c, 0, 72, 36
2, 69495, Note_on_c, 0, 67, 0
2, 69501, Note_on_c, 0, 64, 0
2, 69531, Note_on_c, 0, 72, 0
2, 69557, Note_on_c, 0, 45, 0
2, 69593, Note_on_c, 0, 65, 55
2, 69594, Control_c, 0, 64, 0
2, 69595, Note_on_c, 0, 45, 44
2, 69596, Note_on_c, 0, 60, 53
2, 69597, Note_on_c, 0, 53, 53
2, 69598, Note_on_c, 0, 57, 51
2, 69632, Control_c, 0, 64, 127
2, 69664, Note_on_c, 0, 45, 0
2, 69711, Note_on_c, 0, 45, 66
2, 69740, Note_on_c, 0, 45, 0
2, 69821, Note_on_c, 0, 45, 79
2, 69836, Note_on_c, 0, 57, 0
2, 69863, Note_on_c, 0, 45, 0
2, 69871, Note_on_c, 0, 60, 0
2, 69875, Note_on_c, 0, 53, 0
2, 69943, Note_on_c, 0, 53, 83
2, 69946, Note_on_c, 0, 45, 71
2, 69960, Note_on_c, 0, 65, 0
2, 69989, Note_on_c, 0, 60, 62
2, 69994, Note_on_c, 0, 65, 20
2, 69995, Note_on_c, 0, 45, 0
2, 70040, Note_on_c, 0, 60, 0
2, 70042, Note_on_c, 0, 65, 0
2, 70053, Note_on_c, 0, 53, 0
2, 70071, Note_on_c, 0, 45, 63
2, 70111, Note_on_c, 0, 74, 84
2, 70112, Note_on_c, 0, 66, 80
2, 70112, Note_on_c, 0, 69, 83
2, 70113, Note_on_c, 0, 64, 85
2, 70114, Control_c, 0, 64, 0
2, 70114, Note_on_c, 0, 54, 68
2, 70114, Note_on_c, 0, 57, 88
2, 70121, Note_on_c, 0, 72, 29
2, 70185, Note_on_c, 0, 74, 0
2, 70186, Note_on_c, 0, 64, 0
2, 70186, Control_c, 0, 64, 127
2, 70188, Note_on_c, 0, 72, 0
2, 70195, Note_on_c, 0, 57, 0
2, 70199, Note_on_c, 0, 66, 0
2, 70204, Note_on_c, 0, 69, 0
2, 70207, Note_on_c, 0, 54, 0
2, 70215, Control_c, 0, 64, 0
2, 70229, Note_on_c, 0, 72, 58
2, 70230, Note_on_c, 0, 66, 71
2, 70231, Note_on_c, 0, 54, 39
2, 70232, Note_on_c, 0, 57, 68
2, 70233, Note_on_c, 0, 69, 64
2, 70235, Note_on_c, 0, 60, 70
2, 70285, Note_on_c, 0, 60, 0
2, 70287, Note_on_c, 0, 72, 0
2, 70287, Control_c, 0, 64, 127
2, 70298, Note_on_c, 0, 57, 0
2, 70300, Note_on_c, 0, 69, 0
2, 70303, Note_on_c, 0, 66, 0
2, 70303, Note_on_c, 0, 54, 0
2, 70326, Control_c, 0, 64, 0
2, 70352, Note_on_c, 0, 74, 79
2, 70353, Note_on_c, 0, 66, 69
2, 70356, Note_on_c, 0, 54, 51
2, 70356, Note_on_c, 0, 62, 68
2, 70357, Control_c, 0, 64, 127
2, 70357, Note_on_c, 0, 69, 57
2, 70358, Note_on_c, 0, 64, 66
2, 70359, Note_on_c, 0, 57, 62
2, 70378, Note_on_c, 0, 57, 0
2, 70388, Note_on_c, 0, 74, 0
2, 70398, Note_on_c, 0, 64, 0
2, 70399, Note_on_c, 0, 66, 0
2, 70401, Note_on_c, 0, 62, 0
2, 70410, Note_on_c, 0, 54, 0
2, 70414, Note_on_c, 0, 69, 0
2, 70434, Note_on_c, 0, 54, 50
2, 70434, Note_on_c, 0, 72, 61
2, 70436, Note_on_c, 0, 66, 73
2, 70441, Note_on_c, 0, 57, 55
2, 70443, Control_c, 0, 64, 0
2, 70447, Note_on_c, 0, 62, 25
2, 70447, Note_on_c, 0, 60, 34
2, 70452, Note_on_c, 0, 57, 0
2, 70455, Note_on_c, 0, 60, 0
2, 70456, Note_on_c, 0, 62, 0
2, 70465, Note_on_c, 0, 54, 0
2, 70471, Note_on_c, 0, 66, 0
2, 70475, Note_on_c, 0, 72, 0
2, 70484, Control_c, 0, 64, 127
2, 70547, Note_on_c, 0, 53, 64
2, 70547, Note_on_c, 0, 57, 71
2, 70548, Note_on_c, 0, 65, 79
2, 70548, Note_on_c, 0, 69, 74
2, 70550, Note_on_c, 0, 60, 80
2, 70552, Control_c, 0, 64, 0
2, 70589, Note_on_c, 0, 45, 0
2, 70591, Control_c, 0, 64, 127
2, 70671, Note_on_c, 0, 45, 73
2, 70684, Note_on_c, 0, 65, 0
2, 70687, Note_on_c, 0, 60, 0
2, 70697, Note_on_c, 0, 53, 0
2, 70717, Note_on_c, 0, 57, 0
2, 70721, Note_on_c, 0, 65, 38
2, 70729, Note_on_c, 0, 69, 0
2, 70753, Note_on_c, 0, 65, 0
2, 70793, Note_on_c, 0, 64, 62
2, 70795, Note_on_c, 0, 57, 55
2, 70795, Note_on_c, 0, 60, 50
2, 70797, Note_on_c, 0, 52, 52
2, 70800, Control_c, 0, 64, 0
2, 70823, Note_on_c, 0, 45, 0
2, 70825, Note_on_c, 0, 57, 0
2, 70827, Note_on_c, 0, 52, 0
2, 70833, Control_c, 0, 64, 127
2, 70882, Note_on_c, 0, 64, 0
2, 70887, Note_on_c, 0, 60, 0
2, 70910, Note_on_c, 0, 44, 62
2, 70950, Note_on_c, 0, 54, 54
2, 70955, Note_on_c, 0, 59, 63
2, 70966, Control_c, 0, 64, 0
2, 70985, Note_on_c, 0, 59, 0
2, 70995, Note_on_c, 0, 60, 44
2, 71008, Note_on_c, 0, 54, 0
2, 71020, Note_on_c, 0, 60, 0
2, 71021, Note_on_c, 0, 59, 43
2, 71050, Note_on_c, 0, 59, 0
2, 71052, Note_on_c, 0, 44, 0
2, 71053, Note_on_c, 0, 57, 60
2, 71071, Note_on_c, 0, 53, 32
2, 71075, Note_on_c, 0, 43, 29
2, 71076, Note_on_c, 0, 57, 0
2, 71084, Note_on_c, 0, 58, 56
2, 71166, Note_on_c, 0, 53, 0
2, 71173, Note_on_c, 0, 50, 44
2, 71200, Note_on_c, 0, 50, 0
2, 71269, Note_on_c, 0, 58, 0
2, 71271, Note_on_c, 0, 54, 57
2, 71307, Note_on_c, 0, 54, 0
2, 71317, Note_on_c, 0, 57, 69
2, 71358, Note_on_c, 0, 43, 0
2, 71392, Note_on_c, 0, 43, 62
2, 71415, Note_on_c, 0, 43, 0
2, 71473, Control_c, 0, 64, 127
2, 71504, Note_on_c, 0, 42, 57
2, 71504, Note_on_c, 0, 43, 71
2, 71505, Note_on_c, 0, 54, 59
2, 71511, Note_on_c, 0, 57, 0
2, 71525, Note_on_c, 0, 42, 0
2, 71534, Control_c, 0, 64, 0
2, 71535, Note_on_c, 0, 54, 0
2, 71553, Note_on_c, 0, 55, 62
2, 71577, Note_on_c, 0, 43, 0
2, 71616, Control_c, 0, 64, 127
2, 71621, Note_on_c, 0, 43, 70
2, 71640, Note_on_c, 0, 43, 0
2, 71655, Note_on_c, 0, 55, 0
2, 71737, Note_on_c, 0, 46, 46
2, 71740, Note_on_c, 0, 43, 47
2, 71741, Note_on_c, 0, 58, 65
2, 71767, Note_on_c, 0, 58, 0
2, 71771, Note_on_c, 0, 46, 0
2, 71773, Note_on_c, 0, 43, 0
2, 71774, Control_c, 0, 64, 0
2, 71787, Note_on_c, 0, 43, 25
2, 71792, Note_on_c, 0, 63, 33
2, 71797, Note_on_c, 0, 51, 42
2, 71818, Control_c, 0, 64, 127
2, 71828, Note_on_c, 0, 51, 0
2, 71851, Note_on_c, 0, 63, 0
2, 71855, Note_on_c, 0, 43, 0
2, 71858, Note_on_c, 0, 67, 82
2, 71860, Note_on_c, 0, 58, 74
2, 71865, Note_on_c, 0, 55, 62
2, 71886, Note_on_c, 0, 55, 0
2, 71891, Note_on_c, 0, 58, 0
2, 71897, Control_c, 0, 64, 0
2, 71898, Note_on_c, 0, 67, 0
2, 71909, Note_on_c, 0, 63, 37
2, 71910, Note_on_c, 0, 51, 38
2, 71936, Control_c, 0, 64, 127
2, 71957, Note_on_c, 0, 51, 0
2, 71967, Note_on_c, 0, 63, 0
2, 71983, Note_on_c, 0, 51, 34
2, 71987, Note_on_c, 0, 49, 39
2, 71996, Note_on_c, 0, 51, 0
2, 71997, Note_on_c, 0, 49, 0
2, 72010, Control_c, 0, 64, 0
2, 72021, Note_on_c, 0, 63, 57
2, 72021, Note_on_c, 0, 56, 56
2, 72024, Note_on_c, 0, 65, 62
2, 72025, Note_on_c, 0, 59, 59
2, 72030, Note_on_c, 0, 70, 38
2, 72044, Note_on_c, 0, 70, 0
2, 72071, Note_on_c, 0, 56, 0
2, 72073, Control_c, 0, 64, 127
2, 72074, Note_on_c, 0, 59, 0
2, 72079, Note_on_c, 0, 63, 0
2, 72083, Note_on_c, 0, 65, 0
2, 72099, Note_on_c, 0, 70, 70
2, 72102, Note_on_c, 0, 58, 55
2, 72102, Note_on_c, 0, 63, 53
2, 72104, Note_on_c, 0, 59, 70
2, 72107, Note_on_c, 0, 65, 40
2, 72119, Control_c, 0, 64, 0
2, 72124, Note_on_c, 0, 65, 0
2, 72124, Note_on_c, 0, 70, 0
2, 72125, Note_on_c, 0, 58, 0
2, 72125, Note_on_c, 0, 59, 0
2, 72135, Note_on_c, 0, 63, 0
2, 72140, Note_on_c, 0, 56, 36
2, 72149, Note_on_c, 0, 68, 42
2, 72152, Note_on_c, 0, 59, 41
2, 72154, Note_on_c, 0, 63, 33
2, 72162, Control_c, 0, 64, 127
2, 72191, Note_on_c, 0, 59, 0
2, 72205, Note_on_c, 0, 63, 0
2, 72207, Note_on_c, 0, 56, 0
2, 72213, Note_on_c, 0, 68, 0
2, 72222, Note_on_c, 0, 49, 44
2, 72230, Note_on_c, 0, 49, 0
2, 72249, Control_c, 0, 64, 0
2, 72258, Note_on_c, 0, 59, 68
2, 72262, Note_on_c, 0, 71, 40
2, 72266, Note_on_c, 0, 65, 50
2, 72273, Note_on_c, 0, 68, 28
2, 72287, Control_c, 0, 64, 127
2, 72289, Note_on_c, 0, 68, 0
2, 72312, Note_on_c, 0, 65, 0
2, 72324, Note_on_c, 0, 71, 0
2, 72334, Note_on_c, 0, 59, 0
2, 72335, Note_on_c, 0, 75, 69
2, 72337, Note_on_c, 0, 63, 61
2, 72338, Note_on_c, 0, 68, 49
2, 72339, Note_on_c, 0, 65, 67
2, 72349, Note_on_c, 0, 71, 22
2, 72359, Note_on_c, 0, 71, 0
2, 72359, Control_c, 0, 64, 0
2, 72361, Note_on_c, 0, 68, 0
2, 72361, Note_on_c, 0, 65, 0
2, 72366, Note_on_c, 0, 75, 0
2, 72372, Note_on_c, 0, 63, 0
2, 72381, Note_on_c, 0, 59, 36
2, 72381, Note_on_c, 0, 71, 40
2, 72383, Note_on_c, 0, 68, 26
2, 72385, Note_on_c, 0, 65, 46
2, 72391, Control_c, 0, 64, 127
2, 72429, Note_on_c, 0, 65, 0
2, 72440, Note_on_c, 0, 68, 0
2, 72440, Note_on_c, 0, 59, 0
2, 72441, Note_on_c, 0, 71, 0
2, 72459, Note_on_c, 0, 58, 38
2, 72477, Control_c, 0, 64, 0
2, 72490, Note_on_c, 0, 58, 0
2, 72497, Note_on_c, 0, 74, 59
2, 72498, Note_on_c, 0, 62, 67
2, 72500, Note_on_c, 0, 67, 51
2, 72500, Note_on_c, 0, 70, 48
2, 72509, Control_c, 0, 64, 127
2, 72530, Note_on_c, 0, 74, 0
2, 72531, Note_on_c, 0, 70, 0
2, 72540, Note_on_c, 0, 67, 0
2, 72545, Note_on_c, 0, 62, 0
2, 72573, Note_on_c, 0, 65, 70
2, 72576, Note_on_c, 0, 77, 69
2, 72576, Note_on_c, 0, 70, 67
2, 72577, Note_on_c, 0, 67, 79
2, 72582, Note_on_c, 0, 74, 43
2, 72592, Note_on_c, 0, 74, 0
2, 72603, Note_on_c, 0, 70, 0
2, 72603, Note_on_c, 0, 67, 0
2, 72607, Control_c, 0, 64, 0
2, 72608, Note_on_c, 0, 65, 0
2, 72612, Note_on_c, 0, 77, 0
2, 72619, Note_on_c, 0, 62, 43
2, 72628, Note_on_c, 0, 74, 30
2, 72629, Note_on_c, 0, 70, 23
2, 72629, Note_on_c, 0, 67, 36
2, 72636, Control_c, 0, 64, 127
2, 72650, Note_on_c, 0, 67, 0
2, 72650, Note_on_c, 0, 70, 0
2, 72654, Note_on_c, 0, 74, 0
2, 72675, Note_on_c, 0, 62, 0
2, 72703, Note_on_c, 0, 70, 82
2, 72704, Note_on_c, 0, 74, 74
2, 72705, Note_on_c, 0, 81, 72
2, 72706, Note_on_c, 0, 69, 77
2, 72707, Note_on_c, 0, 77, 57
2, 72711, Control_c, 0, 64, 0
2, 72731, Note_on_c, 0, 69, 0
2, 72741, Note_on_c, 0, 74, 0
2, 72742, Note_on_c, 0, 70, 0
2, 72743, Note_on_c, 0, 81, 0
2, 72751, Note_on_c, 0, 77, 0
2, 72754, Control_c, 0, 64, 127
2, 72771, Note_on_c, 0, 67, 64
2, 72774, Note_on_c, 0, 79, 64
2, 72774, Note_on_c, 0, 70, 75
2, 72779, Note_on_c, 0, 73, 37
2, 72784, Note_on_c, 0, 76, 41
2, 72817, Note_on_c, 0, 79, 0
2, 72827, Note_on_c, 0, 70, 0
2, 72832, Note_on_c, 0, 67, 0
2, 72838, Note_on_c, 0, 73, 0
2, 72842, Note_on_c, 0, 76, 0
2, 72860, Control_c, 0, 64, 0
2, 72865, Note_on_c, 0, 76, 40
2, 72869, Note_on_c, 0, 65, 33
2, 72870, Note_on_c, 0, 73, 34
2, 72870, Note_on_c, 0, 70, 61
2, 72879, Control_c, 0, 64, 127
2, 72894, Note_on_c, 0, 65, 0
2, 72897, Note_on_c, 0, 76, 0
2, 72900, Note_on_c, 0, 70, 0
2, 72903, Note_on_c, 0, 73, 0
2, 72949, Note_on_c, 0, 76, 64
2, 72949, Note_on_c, 0, 64, 54
2, 72950, Note_on_c, 0, 72, 66
2, 72952, Note_on_c, 0, 69, 70
2, 72956, Control_c, 0, 64, 0
2, 72988, Note_on_c, 0, 72, 0
2, 72990, Control_c, 0, 64, 127
2, 72994, Note_on_c, 0, 76, 0
2, 73000, Note_on_c, 0, 64, 0
2, 73000, Note_on_c, 0, 69, 0
2, 73066, Note_on_c, 0, 53, 54
2, 73086, Note_on_c, 0, 53, 0
2, 73190, Note_on_c, 0, 41, 81
2, 73190, Note_on_c, 0, 74, 76
2, 73191, Note_on_c, 0, 62, 77
2, 73195, Control_c, 0, 64, 0
2, 73226, Control_c, 0, 64, 127
2, 73238, Note_on_c, 0, 41, 0
2, 73259, Note_on_c, 0, 62, 0
2, 73273, Note_on_c, 0, 74, 0
2, 73433, Note_on_c, 0, 76, 60
2, 73434, Note_on_c, 0, 53, 50
2, 73434, Note_on_c, 0, 73, 46
2, 73437, Note_on_c, 0, 64, 62
2, 73438, Note_on_c, 0, 61, 40
2, 73444, Note_on_c, 0, 74, 33
2, 73453, Note_on_c, 0, 74, 0
2, 73462, Note_on_c, 0, 64, 0
2, 73464, Note_on_c, 0, 61, 0
2, 73466, Note_on_c, 0, 53, 0
2, 73468, Note_on_c, 0, 73, 0
2, 73469, Note_on_c, 0, 76, 0
2, 73474, Control_c, 0, 64, 0
2, 73505, Control_c, 0, 64, 127
2, 73506, Note_on_c, 0, 76, 54
2, 73506, Note_on_c, 0, 70, 53
2, 73506, Note_on_c, 0, 73, 33
2, 73508, Note_on_c, 0, 61, 36
2, 73509, Note_on_c, 0, 64, 56
2, 73512, Note_on_c, 0, 53, 45
2, 73539, Note_on_c, 0, 64, 0
2, 73558, Note_on_c, 0, 76, 0
2, 73571, Note_on_c, 0, 70, 0
2, 73573, Note_on_c, 0, 53, 0
2, 73586, Note_on_c, 0, 73, 0
2, 73589, Note_on_c, 0, 61, 0
2, 73596, Control_c, 0, 64, 0
2, 73601, Note_on_c, 0, 77, 54
2, 73602, Note_on_c, 0, 67, 50
2, 73604, Note_on_c, 0, 72, 44
2, 73604, Note_on_c, 0, 62, 53
2, 73608, Note_on_c, 0, 53, 28
2, 73625, Control_c, 0, 64, 127
2, 73656, Note_on_c, 0, 67, 0
2, 73659, Note_on_c, 0, 62, 0
2, 73660, Note_on_c, 0, 77, 0
2, 73661, Note_on_c, 0, 72, 0
2, 73684, Note_on_c, 0, 72, 46
2, 73685, Control_c, 0, 64, 0
2, 73686, Note_on_c, 0, 77, 60
2, 73686, Note_on_c, 0, 67, 54
2, 73690, Note_on_c, 0, 62, 62
2, 73712, Note_on_c, 0, 53, 0
2, 73712, Control_c, 0, 64, 127
2, 73794, Note_on_c, 0, 62, 0
2, 73800, Note_on_c, 0, 53, 56
2, 73819, Note_on_c, 0, 53, 0
2, 73909, Note_on_c, 0, 53, 75
2, 73910, Note_on_c, 0, 44, 74
2, 73912, Control_c, 0, 64, 0
2, 73932, Note_on_c, 0, 44, 0
2, 73940, Note_on_c, 0, 77, 0
2, 73940, Note_on_c, 0, 53, 0
2, 73941, Control_c, 0, 64, 127
2, 73944, Note_on_c, 0, 72, 0
2, 73959, Note_on_c, 0, 67, 0
2, 74033, Note_on_c, 0, 74, 80
2, 74033, Note_on_c, 0, 71, 83
2, 74033, Note_on_c, 0, 68, 81
2, 74034, Note_on_c, 0, 64, 94
2, 74034, Note_on_c, 0, 65, 90
2, 74043, Note_on_c, 0, 72, 24
2, 74051, Note_on_c, 0, 72, 0
2, 74052, Control_c, 0, 64, 0
2, 74140, Control_c, 0, 64, 127
2, 74171, Note_on_c, 0, 65, 0
2, 74172, Note_on_c, 0, 74, 0
2, 74176, Note_on_c, 0, 68, 0
2, 74182, Note_on_c, 0, 64, 0
2, 74187, Note_on_c, 0, 71, 0
2, 74196, Control_c, 0, 64, 0
2, 74203, Note_on_c, 0, 74, 56
2, 74204, Note_on_c, 0, 68, 53
2, 74204, Note_on_c, 0, 71, 51
2, 74205, Note_on_c, 0, 65, 53
2, 74206, Note_on_c, 0, 62, 62
2, 74227, Control_c, 0, 64, 127
2, 74259, Note_on_c, 0, 74, 0
2, 74264, Note_on_c, 0, 68, 0
2, 74275, Note_on_c, 0, 65, 0
2, 74291, Note_on_c, 0, 71, 0
2, 74306, Control_c, 0, 64, 0
2, 74311, Note_on_c, 0, 71, 30
2, 74312, Note_on_c, 0, 62, 0
2, 74312, Note_on_c, 0, 76, 60
2, 74315, Note_on_c, 0, 65, 50
2, 74316, Note_on_c, 0, 68, 46
2, 74316, Note_on_c, 0, 59, 49
2, 74369, Control_c, 0, 64, 127
2, 74379, Note_on_c, 0, 68, 0
2, 74382, Note_on_c, 0, 65, 0
2, 74386, Note_on_c, 0, 71, 0
2, 74391, Note_on_c, 0, 76, 0
2, 74405, Control_c, 0, 64, 0
2, 74416, Note_on_c, 0, 59, 0
2, 74427, Control_c, 0, 64, 127
2, 74431, Note_on_c, 0, 71, 46
2, 74431, Note_on_c, 0, 56, 40
2, 74431, Note_on_c, 0, 76, 42
2, 74433, Note_on_c, 0, 68, 36
2, 74434, Note_on_c, 0, 65, 43
2, 74463, Note_on_c, 0, 56, 0
2, 74468, Note_on_c, 0, 71, 0
2, 74469, Note_on_c, 0, 68, 0
2, 74493, Note_on_c, 0, 76, 0
2, 74510, Note_on_c, 0, 65, 0
2, 74539, Note_on_c, 0, 53, 54
2, 74545, Note_on_c, 0, 71, 42
2, 74547, Note_on_c, 0, 77, 40
2, 74547, Control_c, 0, 64, 0
2, 74548, Note_on_c, 0, 65, 30
2, 74581, Control_c, 0, 64, 127
2, 74627, Note_on_c, 0, 77, 0
2, 74627, Note_on_c, 0, 53, 0
2, 74629, Note_on_c, 0, 71, 0
2, 74632, Note_on_c, 0, 65, 0
2, 74663, Note_on_c, 0, 77, 47
2, 74667, Note_on_c, 0, 54, 61
2, 74669, Note_on_c, 0, 71, 43
2, 74670, Note_on_c, 0, 65, 45
2, 74684, Note_on_c, 0, 71, 0
2, 74689, Note_on_c, 0, 77, 0
2, 74699, Note_on_c, 0, 65, 0
2, 74766, Note_on_c, 0, 54, 0
2, 74769, Note_on_c, 0, 44, 31
2, 74787, Note_on_c, 0, 54, 40
2, 74791, Note_on_c, 0, 59, 55
2, 74793, Control_c, 0, 64, 0
2, 74836, Control_c, 0, 64, 127
2, 74865, Note_on_c, 0, 54, 0
2, 74873, Note_on_c, 0, 58, 67
2, 74875, Note_on_c, 0, 44, 0
2, 74878, Note_on_c, 0, 53, 49
2, 74881, Note_on_c, 0, 43, 50
2, 74882, Control_c, 0, 64, 0
2, 74886, Note_on_c, 0, 59, 0
2, 74911, Note_on_c, 0, 53, 0
2, 74911, Control_c, 0, 64, 127
2, 74923, Note_on_c, 0, 58, 0
2, 74974, Note_on_c, 0, 46, 36
2, 74994, Note_on_c, 0, 62, 68
2, 74994, Note_on_c, 0, 49, 42
2, 74995, Note_on_c, 0, 55, 78
2, 74995, Note_on_c, 0, 58, 69
2, 74995, Note_on_c, 0, 53, 74
2, 74998, Note_on_c, 0, 50, 74
2, 75002, Control_c, 0, 64, 0
2, 75009, Note_on_c, 0, 46, 0
2, 75010, Note_on_c, 0, 49, 0
2, 75024, Note_on_c, 0, 43, 0
2, 75055, Control_c, 0, 64, 127
2, 75125, Note_on_c, 0, 62, 0
2, 75129, Note_on_c, 0, 53, 0
2, 75134, Note_on_c, 0, 50, 0
2, 75135, Note_on_c, 0, 55, 0
2, 75138, Note_on_c, 0, 49, 33
2, 75142, Control_c, 0, 64, 0
2, 75156, Note_on_c, 0, 53, 50
2, 75158, Note_on_c, 0, 49, 0
2, 75158, Note_on_c, 0, 62, 43
2, 75158, Note_on_c, 0, 55, 40
2, 75160, Note_on_c, 0, 50, 40
2, 75178, Note_on_c, 0, 55, 0
2, 75182, Control_c, 0, 64, 127
2, 75186, Note_on_c, 0, 62, 0
2, 75197, Note_on_c, 0, 53, 0
2, 75202, Note_on_c, 0, 50, 0
2, 75205, Note_on_c, 0, 58, 0
2, 75243, Note_on_c, 0, 58, 56
2, 75246, Note_on_c, 0, 52, 57
2, 75247, Note_on_c, 0, 64, 54
2, 75248, Note_on_c, 0, 55, 31
2, 75252, Control_c, 0, 64, 0
2, 75254, Note_on_c, 0, 52, 0
2, 75256, Note_on_c, 0, 55, 0
2, 75256, Note_on_c, 0, 64, 0
2, 75260, Note_on_c, 0, 58, 0
2, 75315, Control_c, 0, 64, 127
2, 75354, Note_on_c, 0, 64, 59
2, 75355, Note_on_c, 0, 58, 57
2, 75356, Control_c, 0, 64, 0
2, 75358, Note_on_c, 0, 36, 31
2, 75366, Note_on_c, 0, 64, 0
2, 75371, Note_on_c, 0, 58, 0
2, 75435, Control_c, 0, 64, 127
2, 75466, Control_c, 0, 64, 0
2, 75468, Note_on_c, 0, 65, 47
2, 75469, Note_on_c, 0, 53, 56
2, 75469, Note_on_c, 0, 62, 58
2, 75470, Note_on_c, 0, 58, 51
2, 75471, Note_on_c, 0, 24, 52
2, 75499, Note_on_c, 0, 53, 0
2, 75505, Control_c, 0, 64, 127
2, 75513, Note_on_c, 0, 65, 0
2, 75517, Note_on_c, 0, 58, 0
2, 75522, Note_on_c, 0, 24, 0
2, 75533, Note_on_c, 0, 62, 0
2, 75536, Note_on_c, 0, 36, 0
2, 75700, Note_on_c, 0, 74, 67
2, 75702, Note_on_c, 0, 69, 68
2, 75705, Control_c, 0, 64, 0
2, 75705, Note_on_c, 0, 58, 55
2, 75709, Note_on_c, 0, 64, 39
2, 75737, Note_on_c, 0, 69, 0
2, 75737, Note_on_c, 0, 74, 0
2, 75738, Control_c, 0, 64, 127
2, 75743, Note_on_c, 0, 64, 0
2, 75747, Note_on_c, 0, 58, 0
2, 75792, Note_on_c, 0, 76, 62
2, 75795, Note_on_c, 0, 70, 62
2, 75797, Note_on_c, 0, 58, 57
2, 75799, Note_on_c, 0, 64, 41
2, 75823, Note_on_c, 0, 76, 0
2, 75828, Note_on_c, 0, 70, 0
2, 75832, Note_on_c, 0, 64, 0
2, 75859, Note_on_c, 0, 58, 0
2, 75871, Control_c, 0, 64, 0
2, 75876, Note_on_c, 0, 77, 60
2, 75876, Note_on_c, 0, 67, 58
2, 75877, Note_on_c, 0, 72, 50
2, 75881, Note_on_c, 0, 57, 54
2, 75881, Note_on_c, 0, 62, 44
2, 75924, Control_c, 0, 64, 127
2, 75990, Note_on_c, 0, 67, 0
2, 76003, Note_on_c, 0, 72, 0
2, 76009, Note_on_c, 0, 57, 0
2, 76013, Note_on_c, 0, 62, 0
2, 76018, Note_on_c, 0, 77, 0
2, 76231, Note_on_c, 0, 93, 64
2, 76235, Note_on_c, 0, 85, 46
2, 76236, Note_on_c, 0, 81, 41
2, 76237, Note_on_c, 0, 88, 48
2, 76240, Note_on_c, 0, 70, 37
2, 76265, Note_on_c, 0, 88, 0
2, 76270, Note_on_c, 0, 81, 0
2, 76273, Note_on_c, 0, 85, 0
2, 76285, Note_on_c, 0, 70, 0
2, 76293, Note_on_c, 0, 93, 0
2, 76323, Note_on_c, 0, 81, 48
2, 76323, Note_on_c, 0, 89, 56
2, 76326, Note_on_c, 0, 86, 71
2, 76329, Note_on_c, 0, 74, 48
2, 76330, Note_on_c, 0, 69, 54
2, 76331, Control_c, 0, 64, 0
2, 76369, Control_c, 0, 64, 127
2, 76439, Note_on_c, 0, 81, 0
2, 76442, Note_on_c, 0, 69, 0
2, 76444, Note_on_c, 0, 86, 0
2, 76447, Note_on_c, 0, 74, 0
2, 76455, Note_on_c, 0, 89, 0
2, 76594, Note_on_c, 0, 88, 39
2, 76595, Note_on_c, 0, 82, 39
2, 76596, Note_on_c, 0, 105, 62
2, 76598, Control_c, 0, 64, 0
2, 76598, Note_on_c, 0, 93, 44
2, 76598, Note_on_c, 0, 97, 38
2, 76599, Note_on_c, 0, 100, 49
2, 76615, Control_c, 0, 64, 127
2, 76662, Note_on_c, 0, 88, 0
2, 76672, Note_on_c, 0, 105, 0
2, 76677, Note_on_c, 0, 93, 0
2, 76681, Note_on_c, 0, 100, 0
2, 76684, Note_on_c, 0, 82, 0
2, 76688, Note_on_c, 0, 97, 0
2, 76782, Note_on_c, 0, 101, 51
2, 76784, Note_on_c, 0, 96, 42
2, 76784, Note_on_c, 0, 91, 36
2, 76787, Note_on_c, 0, 81, 38
2, 76787, Note_on_c, 0, 84, 45
2, 76793, Control_c, 0, 64, 0
2, 76797, Note_on_c, 0, 84, 0
2, 76802, Control_c, 0, 64, 127
2, 76804, Note_on_c, 0, 81, 0
2, 76812, Note_on_c, 0, 96, 0
2, 76813, Note_on_c, 0, 91, 0
2, 76822, Note_on_c, 0, 101, 0
2, 76905, Note_on_c, 0, 47, 55
2, 76944, Note_on_c, 0, 47, 0
2, 76954, Control_c, 0, 64, 0
2, 76959, Note_on_c, 0, 48, 44
2, 76971, Note_on_c, 0, 48, 0
2, 77075, Note_on_c, 0, 40, 45
2, 77125, Control_c, 0, 64, 127
2, 77140, Note_on_c, 0, 40, 0
2, 77149, Note_on_c, 0, 41, 47
2, 77161, Note_on_c, 0, 41, 0
2, 77185, Control_c, 0, 64, 0
2, 77203, Note_on_c, 0, 35, 35
2, 77238, Control_c, 0, 64, 127
2, 77263, Note_on_c, 0, 35, 0
2, 77271, Note_on_c, 0, 36, 35
2, 77305, Note_on_c, 0, 36, 0
2, 77310, Control_c, 0, 64, 0
2, 77321, Note_on_c, 0, 29, 40
2, 77377, Note_on_c, 0, 29, 0
2, 77434, Note_on_c, 0, 28, 39
2, 77502, Note_on_c, 0, 28, 0
2, 77512, Note_on_c, 0, 29, 48
2, 77806, Note_on_c, 0, 29, 0
2, 77806, End_track
0, 0, End_of_file
