0, 0, Header, 1, 2, 960
1, 0, Start_track
1, 0, Text_t, "dougmck@tpg.com.au\012"
1, 0, Time_signature, 4, 2, 24, 8
1, 0, Key_signature, 0, "major"
1, 0, Tempo, 502092
1, 0, End_track
2, 0, Start_track
2, 0, Title_t, "Yesterdays - midi is synced to video"
2, 0, Note_on_c, 0, 62, 1
2, 960, Note_on_c, 0, 62, 0
2, 14972, Control_c, 0, 11, 127
2, 14972, Control_c, 0, 94, 0
2, 14972, Control_c, 0, 101, 0
2, 14973, Control_c, 0, 100, 1
2, 14974, Control_c, 0, 6, 64
2, 14975, Control_c, 0, 38, 0
2, 14975, Pitch_bend_c, 0, 8192
2, 14975, Control_c, 0, 71, 43
2, 14975, Control_c, 0, 74, 46
2, 14975, Control_c, 0, 64, 127
2, 16892, Note_on_c, 0, 57, 66
2, 16892, Control_c, 0, 64, 0
2, 16892, Note_on_c, 0, 64, 80
2, 16892, Note_on_c, 0, 69, 78
2, 16892, Note_on_c, 0, 65, 72
2, 16922, Note_on_c, 0, 50, 55
2, 17152, Control_c, 0, 64, 127
2, 17682, Note_on_c, 0, 57, 0
2, 17772, Note_on_c, 0, 50, 0
2, 17912, Note_on_c, 0, 64, 0
2, 17992, Note_on_c, 0, 65, 0
2, 18062, Note_on_c, 0, 69, 0
2, 18432, Control_c, 0, 64, 0
2, 18442, Note_on_c, 0, 65, 52
2, 18462, Note_on_c, 0, 48, 50
2, 18472, Note_on_c, 0, 60, 54
2, 18472, Note_on_c, 0, 57, 54
2, 18472, Note_on_c, 0, 62, 55
2, 18712, Control_c, 0, 64, 127
2, 19412, Note_on_c, 0, 62, 0
2, 19412, Note_on_c, 0, 60, 0
2, 19482, Note_on_c, 0, 48, 0
2, 19492, Note_on_c, 0, 57, 0
2, 19752, Note_on_c, 0, 65, 0
2, 20012, Control_c, 0, 64, 0
2, 20022, Note_on_c, 0, 46, 54
2, 20022, Note_on_c, 0, 56, 51
2, 20032, Note_on_c, 0, 60, 48
2, 20042, Note_on_c, 0, 64, 50
2, 20042, Note_on_c, 0, 67, 53
2, 20412, Control_c, 0, 64, 127
2, 20892, Note_on_c, 0, 60, 0
2, 20932, Note_on_c, 0, 56, 0
2, 20972, Note_on_c, 0, 67, 0
2, 21002, Note_on_c, 0, 46, 0
2, 21062, Note_on_c, 0, 64, 0
2, 21922, Control_c, 0, 64, 0
2, 22032, Note_on_c, 0, 61, 43
2, 22042, Note_on_c, 0, 66, 45
2, 22042, Note_on_c, 0, 45, 40
2, 22042, Note_on_c, 0, 70, 42
2, 22072, Note_on_c, 0, 55, 35
2, 22212, Control_c, 0, 64, 127
2, 22372, Note_on_c, 0, 66, 0
2, 22422, Note_on_c, 0, 61, 0
2, 22502, Note_on_c, 0, 45, 0
2, 22512, Note_on_c, 0, 70, 0
2, 22632, Note_on_c, 0, 55, 0
2, 25422, Note_on_c, 0, 88, 64
2, 25562, Note_on_c, 0, 84, 58
2, 25702, Note_on_c, 0, 81, 58
2, 25782, Note_on_c, 0, 84, 0
2, 25852, Note_on_c, 0, 88, 0
2, 25902, Note_on_c, 0, 81, 0
2, 25932, Note_on_c, 0, 85, 58
2, 26092, Note_on_c, 0, 96, 75
2, 27062, Note_on_c, 0, 85, 0
2, 27312, Note_on_c, 0, 96, 0
2, 29722, Control_c, 0, 64, 0
2, 29722, Note_on_c, 0, 64, 84
2, 29722, Note_on_c, 0, 69, 82
2, 29732, Note_on_c, 0, 65, 73
2, 29752, Note_on_c, 0, 57, 60
2, 29762, Note_on_c, 0, 50, 54
2, 29982, Control_c, 0, 64, 56
2, 29992, Control_c, 0, 64, 127
2, 30512, Note_on_c, 0, 69, 0
2, 30762, Note_on_c, 0, 57, 0
2, 30822, Note_on_c, 0, 69, 72
2, 30852, Note_on_c, 0, 50, 0
2, 31232, Note_on_c, 0, 64, 0
2, 31652, Note_on_c, 0, 69, 0
2, 31742, Note_on_c, 0, 65, 0
2, 32512, Note_on_c, 0, 63, 66
2, 32512, Note_on_c, 0, 65, 56
2, 32512, Note_on_c, 0, 58, 63
2, 32522, Control_c, 0, 64, 0
2, 32532, Note_on_c, 0, 55, 46
2, 32542, Note_on_c, 0, 48, 48
2, 32762, Control_c, 0, 64, 127
2, 33112, Note_on_c, 0, 65, 0
2, 33402, Note_on_c, 0, 55, 0
2, 33442, Note_on_c, 0, 65, 67
2, 33552, Note_on_c, 0, 48, 0
2, 33742, Note_on_c, 0, 58, 0
2, 34042, Note_on_c, 0, 65, 0
2, 34342, Note_on_c, 0, 63, 0
2, 35862, Note_on_c, 0, 67, 50
2, 35872, Note_on_c, 0, 56, 54
2, 35882, Note_on_c, 0, 64, 60
2, 35882, Note_on_c, 0, 60, 47
2, 35892, Control_c, 0, 64, 0
2, 35892, Note_on_c, 0, 46, 49
2, 36282, Control_c, 0, 64, 127
2, 36572, Note_on_c, 0, 67, 0
2, 36842, Note_on_c, 0, 67, 61
2, 37212, Note_on_c, 0, 56, 0
2, 37312, Note_on_c, 0, 60, 0
2, 37312, Note_on_c, 0, 64, 0
2, 37432, Note_on_c, 0, 46, 0
2, 37452, Note_on_c, 0, 67, 0
2, 38222, Note_on_c, 0, 58, 45
2, 38242, Note_on_c, 0, 45, 39
2, 38272, Note_on_c, 0, 61, 42
2, 38302, Note_on_c, 0, 63, 42
2, 38312, Note_on_c, 0, 55, 32
2, 38332, Control_c, 0, 64, 0
2, 38352, Note_on_c, 0, 67, 33
2, 38772, Control_c, 0, 64, 127
2, 39252, Note_on_c, 0, 63, 0
2, 39312, Note_on_c, 0, 58, 0
2, 39402, Note_on_c, 0, 67, 0
2, 39512, Note_on_c, 0, 55, 0
2, 39532, Note_on_c, 0, 64, 48
2, 39542, Note_on_c, 0, 58, 41
2, 39602, Note_on_c, 0, 52, 39
2, 39622, Control_c, 0, 64, 0
2, 39812, Control_c, 0, 64, 127
2, 40392, Note_on_c, 0, 58, 0
2, 40522, Note_on_c, 0, 52, 0
2, 40542, Note_on_c, 0, 64, 0
2, 40732, Note_on_c, 0, 61, 0
2, 40842, Note_on_c, 0, 45, 0
2, 41722, Control_c, 0, 64, 0
2, 41822, Note_on_c, 0, 62, 64
2, 41832, Note_on_c, 0, 53, 61
2, 41832, Note_on_c, 0, 57, 60
2, 41862, Note_on_c, 0, 50, 51
2, 42032, Control_c, 0, 64, 127
2, 42202, Note_on_c, 0, 53, 0
2, 42232, Note_on_c, 0, 57, 0
2, 42522, Note_on_c, 0, 62, 0
2, 42622, Control_c, 0, 64, 0
2, 42682, Note_on_c, 0, 64, 67
2, 42692, Note_on_c, 0, 58, 68
2, 42692, Note_on_c, 0, 55, 68
2, 42702, Note_on_c, 0, 61, 63
2, 42712, Note_on_c, 0, 49, 60
2, 42762, Note_on_c, 0, 50, 0
2, 42842, Control_c, 0, 64, 127
2, 43022, Note_on_c, 0, 64, 0
2, 43042, Note_on_c, 0, 55, 0
2, 43222, Note_on_c, 0, 58, 0
2, 43282, Note_on_c, 0, 61, 0
2, 43552, Control_c, 0, 64, 0
2, 43592, Note_on_c, 0, 65, 76
2, 43602, Note_on_c, 0, 49, 0
2, 43602, Note_on_c, 0, 60, 74
2, 43622, Note_on_c, 0, 57, 66
2, 43642, Note_on_c, 0, 48, 56
2, 43982, Control_c, 0, 64, 127
2, 44122, Note_on_c, 0, 57, 0
2, 44282, Note_on_c, 0, 60, 0
2, 44352, Note_on_c, 0, 65, 0
2, 45152, Note_on_c, 0, 48, 0
2, 45342, Control_c, 0, 64, 0
2, 45372, Note_on_c, 0, 67, 72
2, 45392, Note_on_c, 0, 47, 47
2, 45412, Note_on_c, 0, 62, 63
2, 45412, Note_on_c, 0, 55, 53
2, 45422, Note_on_c, 0, 59, 52
2, 45622, Control_c, 0, 64, 127
2, 45682, Note_on_c, 0, 59, 0
2, 45892, Note_on_c, 0, 47, 0
2, 45972, Note_on_c, 0, 67, 0
2, 45982, Note_on_c, 0, 55, 0
2, 46042, Note_on_c, 0, 62, 0
2, 46482, Control_c, 0, 64, 0
2, 46532, Note_on_c, 0, 46, 56
2, 46552, Note_on_c, 0, 68, 61
2, 46562, Note_on_c, 0, 56, 51
2, 46562, Note_on_c, 0, 63, 63
2, 46582, Note_on_c, 0, 60, 56
2, 46792, Control_c, 0, 64, 127
2, 47032, Note_on_c, 0, 60, 0
2, 47262, Note_on_c, 0, 56, 0
2, 47262, Note_on_c, 0, 68, 0
2, 47382, Note_on_c, 0, 63, 0
2, 47412, Note_on_c, 0, 46, 0
2, 48452, Control_c, 0, 64, 0
2, 48612, Note_on_c, 0, 69, 57
2, 48622, Note_on_c, 0, 57, 58
2, 48622, Note_on_c, 0, 62, 61
2, 48652, Note_on_c, 0, 65, 48
2, 48662, Note_on_c, 0, 53, 41
2, 48662, Note_on_c, 0, 45, 40
2, 48812, Control_c, 0, 64, 127
2, 48842, Note_on_c, 0, 45, 0
2, 48882, Note_on_c, 0, 57, 0
2, 48972, Note_on_c, 0, 65, 0
2, 48982, Note_on_c, 0, 62, 0
2, 49032, Note_on_c, 0, 53, 0
2, 49042, Note_on_c, 0, 69, 0
2, 49652, Note_on_c, 0, 71, 74
2, 49662, Note_on_c, 0, 68, 67
2, 49672, Note_on_c, 0, 62, 75
2, 49672, Note_on_c, 0, 65, 75
2, 49702, Control_c, 0, 64, 0
2, 49712, Note_on_c, 0, 56, 66
2, 49872, Control_c, 0, 64, 127
2, 50092, Note_on_c, 0, 62, 0
2, 50152, Note_on_c, 0, 65, 0
2, 50212, Note_on_c, 0, 71, 0
2, 50262, Note_on_c, 0, 68, 0
2, 50812, Note_on_c, 0, 56, 0
2, 50952, Note_on_c, 0, 72, 67
2, 50962, Control_c, 0, 64, 0
2, 50962, Note_on_c, 0, 70, 57
2, 50962, Note_on_c, 0, 67, 66
2, 50972, Note_on_c, 0, 64, 61
2, 50992, Note_on_c, 0, 57, 55
2, 51302, Control_c, 0, 64, 127
2, 52332, Note_on_c, 0, 57, 0
2, 52352, Note_on_c, 0, 64, 0
2, 52502, Note_on_c, 0, 67, 0
2, 52602, Note_on_c, 0, 72, 0
2, 52632, Note_on_c, 0, 70, 0
2, 54332, Note_on_c, 0, 69, 68
2, 54632, Note_on_c, 0, 69, 0
2, 54712, Note_on_c, 0, 70, 66
2, 54822, Note_on_c, 0, 70, 0
2, 54922, Note_on_c, 0, 71, 62
2, 55112, Note_on_c, 0, 71, 0
2, 55122, Note_on_c, 0, 72, 61
2, 55302, Note_on_c, 0, 72, 0
2, 55302, Note_on_c, 0, 73, 47
2, 55382, Note_on_c, 0, 73, 0
2, 55452, Note_on_c, 0, 74, 65
2, 55542, Note_on_c, 0, 74, 0
2, 55632, Note_on_c, 0, 75, 50
2, 55862, Note_on_c, 0, 75, 0
2, 55882, Note_on_c, 0, 76, 59
2, 56052, Note_on_c, 0, 76, 0
2, 56082, Control_c, 0, 64, 0
2, 56112, Note_on_c, 0, 77, 72
2, 56172, Note_on_c, 0, 62, 31
2, 56182, Note_on_c, 0, 52, 39
2, 56592, Control_c, 0, 64, 127
2, 56782, Note_on_c, 0, 52, 0
2, 56802, Note_on_c, 0, 56, 48
2, 56842, Note_on_c, 0, 62, 0
2, 56912, Note_on_c, 0, 56, 0
2, 57562, Note_on_c, 0, 62, 41
2, 58172, Note_on_c, 0, 62, 0
2, 58262, Note_on_c, 0, 64, 43
2, 58352, Note_on_c, 0, 64, 0
2, 59102, Note_on_c, 0, 65, 49
2, 59922, Note_on_c, 0, 35, 48
2, 60162, Note_on_c, 0, 35, 0
2, 60262, Note_on_c, 0, 77, 0
2, 60382, Note_on_c, 0, 65, 0
2, 61842, Note_on_c, 0, 71, 54
2, 62212, Note_on_c, 0, 71, 0
2, 62922, Control_c, 0, 64, 0
2, 62922, Note_on_c, 0, 72, 48
2, 62922, Note_on_c, 0, 76, 48
2, 62942, Note_on_c, 0, 67, 38
2, 62982, Note_on_c, 0, 56, 36
2, 63022, Note_on_c, 0, 62, 30
2, 63302, Control_c, 0, 64, 127
2, 64612, Note_on_c, 0, 76, 0
2, 65202, Note_on_c, 0, 76, 61
2, 65282, Note_on_c, 0, 62, 0
2, 65342, Note_on_c, 0, 67, 0
2, 65382, Note_on_c, 0, 72, 0
2, 65442, Note_on_c, 0, 76, 0
2, 65532, Note_on_c, 0, 56, 0
2, 66622, Note_on_c, 0, 77, 68
2, 66692, Note_on_c, 0, 72, 62
2, 66732, Note_on_c, 0, 69, 63
2, 66772, Control_c, 0, 64, 0
2, 66812, Note_on_c, 0, 55, 45
2, 66842, Note_on_c, 0, 61, 39
2, 66872, Note_on_c, 0, 65, 44
2, 67092, Control_c, 0, 64, 127
2, 67292, Note_on_c, 0, 77, 0
2, 67642, Note_on_c, 0, 77, 83
2, 68132, Note_on_c, 0, 77, 0
2, 68202, Note_on_c, 0, 65, 0
2, 68312, Note_on_c, 0, 72, 0
2, 68352, Note_on_c, 0, 77, 79
2, 68382, Note_on_c, 0, 69, 0
2, 68742, Note_on_c, 0, 77, 0
2, 68782, Note_on_c, 0, 69, 69
2, 68912, Note_on_c, 0, 55, 0
2, 69012, Note_on_c, 0, 69, 0
2, 69262, Note_on_c, 0, 61, 0
2, 69352, Note_on_c, 0, 76, 58
2, 69362, Control_c, 0, 64, 0
2, 69392, Note_on_c, 0, 54, 50
2, 69392, Note_on_c, 0, 68, 52
2, 69402, Note_on_c, 0, 71, 54
2, 69402, Note_on_c, 0, 64, 54
2, 69452, Note_on_c, 0, 60, 45
2, 69452, Note_on_c, 0, 74, 35
2, 69882, Note_on_c, 0, 76, 0
2, 69892, Note_on_c, 0, 74, 0
2, 69922, Control_c, 0, 64, 127
2, 70032, Note_on_c, 0, 76, 77
2, 70142, Note_on_c, 0, 74, 29
2, 70422, Note_on_c, 0, 76, 0
2, 70552, Note_on_c, 0, 74, 0
2, 70722, Note_on_c, 0, 76, 77
2, 70842, Note_on_c, 0, 71, 0
2, 71062, Note_on_c, 0, 68, 0
2, 71182, Note_on_c, 0, 64, 0
2, 71232, Note_on_c, 0, 60, 0
2, 71302, Note_on_c, 0, 69, 65
2, 71342, Note_on_c, 0, 76, 0
2, 71482, Note_on_c, 0, 54, 0
2, 71532, Note_on_c, 0, 69, 0
2, 71942, Control_c, 0, 64, 0
2, 72042, Note_on_c, 0, 76, 60
2, 72062, Note_on_c, 0, 73, 52
2, 72072, Note_on_c, 0, 59, 43
2, 72072, Note_on_c, 0, 65, 45
2, 72082, Note_on_c, 0, 69, 56
2, 72132, Note_on_c, 0, 53, 42
2, 72242, Control_c, 0, 64, 127
2, 72252, Note_on_c, 0, 59, 0
2, 72352, Note_on_c, 0, 53, 0
2, 72922, Note_on_c, 0, 31, 63
2, 73102, Note_on_c, 0, 31, 0
2, 73492, Note_on_c, 0, 69, 0
2, 73512, Note_on_c, 0, 65, 0
2, 73622, Note_on_c, 0, 73, 0
2, 73622, Note_on_c, 0, 76, 0
2, 73962, Note_on_c, 0, 76, 57
2, 73982, Note_on_c, 0, 73, 48
2, 74002, Note_on_c, 0, 65, 48
2, 74012, Note_on_c, 0, 69, 55
2, 74012, Note_on_c, 0, 59, 46
2, 74922, Note_on_c, 0, 64, 59
2, 75172, Note_on_c, 0, 73, 0
2, 75182, Note_on_c, 0, 64, 0
2, 75232, Note_on_c, 0, 59, 0
2, 75412, Note_on_c, 0, 76, 0
2, 75412, Note_on_c, 0, 65, 0
2, 75422, Note_on_c, 0, 69, 0
2, 76532, Control_c, 0, 64, 0
2, 76582, Note_on_c, 0, 74, 53
2, 76582, Note_on_c, 0, 66, 44
2, 76602, Note_on_c, 0, 58, 42
2, 76622, Note_on_c, 0, 62, 45
2, 76632, Note_on_c, 0, 48, 39
2, 76642, Note_on_c, 0, 69, 45
2, 76942, Control_c, 0, 64, 127
2, 77632, Note_on_c, 0, 58, 0
2, 77682, Note_on_c, 0, 55, 55
2, 77832, Note_on_c, 0, 62, 0
2, 77922, Note_on_c, 0, 69, 0
2, 78142, Note_on_c, 0, 66, 0
2, 78652, Note_on_c, 0, 74, 0
2, 78772, Note_on_c, 0, 67, 60
2, 78802, Note_on_c, 0, 62, 51
2, 78822, Note_on_c, 0, 58, 40
2, 79122, Note_on_c, 0, 48, 0
2, 79242, Note_on_c, 0, 55, 0
2, 79252, Note_on_c, 0, 58, 0
2, 79322, Note_on_c, 0, 62, 0
2, 79822, Note_on_c, 0, 69, 78
2, 79982, Note_on_c, 0, 67, 0
2, 80222, Note_on_c, 0, 69, 0
2, 80302, Note_on_c, 0, 70, 84
2, 80622, Note_on_c, 0, 70, 0
2, 80692, Note_on_c, 0, 71, 76
2, 81012, Note_on_c, 0, 71, 0
2, 81102, Note_on_c, 0, 72, 82
2, 81402, Note_on_c, 0, 72, 0
2, 81522, Note_on_c, 0, 73, 75
2, 81882, Note_on_c, 0, 73, 0
2, 81962, Note_on_c, 0, 75, 76
2, 82252, Note_on_c, 0, 75, 0
2, 82442, Control_c, 0, 64, 0
2, 82472, Note_on_c, 0, 41, 48
2, 82502, Note_on_c, 0, 74, 61
2, 82552, Note_on_c, 0, 57, 38
2, 82842, Control_c, 0, 64, 127
2, 83132, Note_on_c, 0, 57, 0
2, 83212, Note_on_c, 0, 48, 48
2, 83222, Note_on_c, 0, 41, 0
2, 83322, Note_on_c, 0, 48, 0
2, 84042, Note_on_c, 0, 63, 47
2, 84052, Note_on_c, 0, 67, 49
2, 84092, Note_on_c, 0, 62, 48
2, 84952, Note_on_c, 0, 74, 0
2, 85122, Note_on_c, 0, 67, 0
2, 86052, Note_on_c, 0, 62, 0
2, 86372, Note_on_c, 0, 69, 67
2, 86432, Note_on_c, 0, 63, 0
2, 86982, Note_on_c, 0, 69, 0
2, 87072, Control_c, 0, 64, 0
2, 87202, Note_on_c, 0, 72, 60
2, 87212, Note_on_c, 0, 67, 64
2, 87232, Note_on_c, 0, 62, 54
2, 87232, Note_on_c, 0, 57, 48
2, 87392, Control_c, 0, 64, 127
2, 87712, Note_on_c, 0, 72, 0
2, 87862, Note_on_c, 0, 62, 0
2, 87882, Note_on_c, 0, 67, 0
2, 87942, Note_on_c, 0, 57, 0
2, 87972, Note_on_c, 0, 70, 59
2, 87972, Note_on_c, 0, 62, 23
2, 88012, Note_on_c, 0, 56, 50
2, 88092, Note_on_c, 0, 70, 0
2, 88132, Note_on_c, 0, 62, 0
2, 88722, Control_c, 0, 64, 72
2, 88722, Control_c, 0, 64, 0
2, 88762, Note_on_c, 0, 56, 0
2, 88782, Note_on_c, 0, 58, 50
2, 88792, Note_on_c, 0, 55, 46
2, 88802, Note_on_c, 0, 62, 54
2, 88812, Note_on_c, 0, 65, 46
2, 89062, Control_c, 0, 64, 127
2, 89712, Control_c, 0, 64, 0
2, 89762, Note_on_c, 0, 55, 0
2, 89792, Note_on_c, 0, 67, 61
2, 89822, Note_on_c, 0, 53, 48
2, 89942, Note_on_c, 0, 65, 0
2, 89972, Control_c, 0, 64, 127
2, 90332, Note_on_c, 0, 58, 0
2, 90422, Note_on_c, 0, 62, 0
2, 90742, Note_on_c, 0, 67, 0
2, 91232, Note_on_c, 0, 53, 0
2, 91352, Control_c, 0, 64, 0
2, 91432, Note_on_c, 0, 69, 54
2, 91442, Note_on_c, 0, 66, 54
2, 91452, Note_on_c, 0, 58, 43
2, 91452, Note_on_c, 0, 62, 56
2, 91492, Note_on_c, 0, 52, 45
2, 91632, Control_c, 0, 64, 127
2, 92082, Note_on_c, 0, 62, 0
2, 92082, Note_on_c, 0, 58, 0
2, 92092, Note_on_c, 0, 52, 0
2, 92132, Note_on_c, 0, 69, 0
2, 92202, Note_on_c, 0, 66, 0
2, 92662, Note_on_c, 0, 69, 63
2, 92992, Note_on_c, 0, 69, 0
2, 94142, Control_c, 0, 64, 0
2, 94142, Note_on_c, 0, 69, 50
2, 94142, Note_on_c, 0, 66, 50
2, 94152, Note_on_c, 0, 58, 49
2, 94172, Note_on_c, 0, 40, 43
2, 94182, Note_on_c, 0, 62, 54
2, 94222, Note_on_c, 0, 55, 35
2, 94432, Control_c, 0, 64, 127
2, 95272, Note_on_c, 0, 62, 0
2, 95282, Note_on_c, 0, 69, 0
2, 95292, Note_on_c, 0, 58, 0
2, 95382, Note_on_c, 0, 66, 0
2, 95582, Note_on_c, 0, 40, 0
2, 95872, Note_on_c, 0, 58, 51
2, 95892, Note_on_c, 0, 66, 50
2, 95892, Note_on_c, 0, 69, 41
2, 95942, Note_on_c, 0, 62, 42
2, 95952, Note_on_c, 0, 55, 0
2, 96752, Note_on_c, 0, 62, 0
2, 96802, Note_on_c, 0, 58, 0
2, 96962, Note_on_c, 0, 69, 0
2, 97082, Note_on_c, 0, 66, 0
2, 98082, Note_on_c, 0, 72, 81
2, 98092, Note_on_c, 0, 61, 82
2, 98102, Note_on_c, 0, 65, 78
2, 98112, Control_c, 0, 64, 0
2, 98112, Note_on_c, 0, 69, 66
2, 98122, Note_on_c, 0, 60, 75
2, 98432, Control_c, 0, 64, 127
2, 98492, Note_on_c, 0, 69, 0
2, 98542, Note_on_c, 0, 72, 0
2, 98582, Note_on_c, 0, 60, 0
2, 98602, Note_on_c, 0, 65, 0
2, 98762, Note_on_c, 0, 61, 0
2, 99162, Control_c, 0, 64, 0
2, 99172, Note_on_c, 0, 61, 66
2, 99182, Note_on_c, 0, 69, 63
2, 99192, Note_on_c, 0, 58, 66
2, 99222, Note_on_c, 0, 57, 62
2, 99222, Note_on_c, 0, 64, 57
2, 99382, Control_c, 0, 64, 127
2, 99662, Note_on_c, 0, 69, 0
2, 99842, Note_on_c, 0, 57, 0
2, 99852, Note_on_c, 0, 64, 0
2, 100142, Note_on_c, 0, 58, 0
2, 100202, Note_on_c, 0, 61, 0
2, 103422, Note_on_c, 0, 58, 43
2, 103432, Note_on_c, 0, 63, 45
2, 103442, Note_on_c, 0, 61, 44
2, 103452, Note_on_c, 0, 55, 40
2, 103462, Control_c, 0, 64, 0
2, 103462, Note_on_c, 0, 45, 41
2, 103482, Note_on_c, 0, 69, 45
2, 103522, Note_on_c, 0, 68, 13
2, 103952, Control_c, 0, 64, 127
2, 104412, Note_on_c, 0, 58, 0
2, 104432, Note_on_c, 0, 69, 0
2, 104452, Note_on_c, 0, 63, 0
2, 104502, Note_on_c, 0, 68, 0
2, 104532, Note_on_c, 0, 61, 0
2, 104682, Note_on_c, 0, 55, 0
2, 104702, Note_on_c, 0, 61, 27
2, 104712, Note_on_c, 0, 58, 41
2, 104742, Note_on_c, 0, 52, 39
2, 104772, Note_on_c, 0, 69, 36
2, 104792, Note_on_c, 0, 64, 41
2, 105272, Note_on_c, 0, 52, 0
2, 105302, Note_on_c, 0, 58, 0
2, 105422, Note_on_c, 0, 69, 0
2, 105472, Note_on_c, 0, 45, 0
2, 105482, Note_on_c, 0, 64, 0
2, 105512, Note_on_c, 0, 61, 0
2, 107662, Control_c, 0, 64, 0
2, 107702, Note_on_c, 0, 69, 75
2, 107712, Note_on_c, 0, 60, 77
2, 107722, Note_on_c, 0, 65, 68
2, 107722, Note_on_c, 0, 45, 68
2, 107722, Note_on_c, 0, 38, 66
2, 108112, Control_c, 0, 64, 127
2, 108792, Note_on_c, 0, 45, 0
2, 108842, Note_on_c, 0, 38, 0
2, 109162, Control_c, 0, 64, 0
2, 109202, Note_on_c, 0, 44, 84
2, 109272, Note_on_c, 0, 37, 39
2, 109282, Note_on_c, 0, 36, 46
2, 109552, Note_on_c, 0, 36, 0
2, 109562, Note_on_c, 0, 37, 0
2, 109732, Note_on_c, 0, 44, 0
2, 109862, Note_on_c, 0, 43, 75
2, 109882, Note_on_c, 0, 36, 64
2, 110112, Note_on_c, 0, 43, 0
2, 110142, Note_on_c, 0, 36, 0
2, 110642, Note_on_c, 0, 42, 57
2, 110652, Note_on_c, 0, 35, 57
2, 110702, Note_on_c, 0, 69, 0
2, 110752, Note_on_c, 0, 65, 0
2, 110772, Control_c, 0, 64, 127
2, 110862, Note_on_c, 0, 60, 0
2, 111112, Note_on_c, 0, 35, 0
2, 111242, Note_on_c, 0, 42, 0
2, 111492, Note_on_c, 0, 67, 45
2, 111512, Control_c, 0, 64, 0
2, 111512, Note_on_c, 0, 56, 50
2, 111522, Note_on_c, 0, 62, 55
2, 111572, Note_on_c, 0, 41, 48
2, 111572, Note_on_c, 0, 34, 49
2, 111962, Control_c, 0, 64, 127
2, 112342, Note_on_c, 0, 41, 0
2, 112432, Note_on_c, 0, 34, 0
2, 112562, Note_on_c, 0, 56, 0
2, 112742, Note_on_c, 0, 56, 55
2, 112762, Note_on_c, 0, 62, 0
2, 112992, Note_on_c, 0, 56, 0
2, 113212, Note_on_c, 0, 67, 0
2, 113692, Note_on_c, 0, 61, 49
2, 113702, Control_c, 0, 64, 0
2, 113732, Note_on_c, 0, 45, 45
2, 113742, Note_on_c, 0, 55, 41
2, 113922, Note_on_c, 0, 55, 0
2, 114082, Control_c, 0, 64, 127
2, 114442, Note_on_c, 0, 61, 0
2, 114692, Note_on_c, 0, 61, 46
2, 114692, Note_on_c, 0, 55, 49
2, 114692, Note_on_c, 0, 64, 43
2, 114742, Note_on_c, 0, 52, 38
2, 115192, Note_on_c, 0, 52, 0
2, 115222, Note_on_c, 0, 55, 0
2, 115362, Note_on_c, 0, 45, 0
2, 115402, Note_on_c, 0, 64, 0
2, 115502, Note_on_c, 0, 61, 0
2, 116322, Control_c, 0, 64, 0
2, 116392, Note_on_c, 0, 69, 65
2, 116392, Note_on_c, 0, 38, 58
2, 116422, Note_on_c, 0, 57, 49
2, 116432, Note_on_c, 0, 62, 48
2, 116692, Control_c, 0, 64, 127
2, 117042, Note_on_c, 0, 45, 72
2, 117192, Note_on_c, 0, 57, 0
2, 117202, Note_on_c, 0, 38, 0
2, 117282, Note_on_c, 0, 62, 0
2, 117632, Note_on_c, 0, 52, 82
2, 117662, Note_on_c, 0, 45, 0
2, 118082, Note_on_c, 0, 69, 0
2, 118202, Note_on_c, 0, 52, 0
2, 118232, Note_on_c, 0, 53, 82
2, 118812, Note_on_c, 0, 57, 81
2, 118942, Note_on_c, 0, 63, 28
2, 119232, Note_on_c, 0, 57, 0
2, 119282, Note_on_c, 0, 63, 0
2, 119372, Note_on_c, 0, 60, 79
2, 119922, Note_on_c, 0, 60, 0
2, 120102, Note_on_c, 0, 53, 0
2, 121302, Note_on_c, 0, 62, 81
2, 121302, Note_on_c, 0, 65, 74
2, 121302, Note_on_c, 0, 48, 50
2, 121302, Note_on_c, 0, 55, 52
2, 121332, Control_c, 0, 64, 0
2, 121692, Control_c, 0, 64, 127
2, 121932, Note_on_c, 0, 62, 0
2, 121992, Note_on_c, 0, 65, 0
2, 122052, Note_on_c, 0, 63, 60
2, 122062, Note_on_c, 0, 60, 66
2, 122212, Note_on_c, 0, 48, 0
2, 122292, Note_on_c, 0, 55, 0
2, 122342, Note_on_c, 0, 60, 0
2, 122522, Note_on_c, 0, 63, 0
2, 122922, Note_on_c, 0, 56, 50
2, 122932, Note_on_c, 0, 46, 52
2, 122942, Note_on_c, 0, 67, 57
2, 122952, Note_on_c, 0, 60, 49
2, 122962, Control_c, 0, 64, 0
2, 122962, Note_on_c, 0, 64, 60
2, 123422, Control_c, 0, 64, 127
2, 123742, Note_on_c, 0, 60, 0
2, 123832, Note_on_c, 0, 56, 0
2, 123832, Note_on_c, 0, 62, 58
2, 123872, Note_on_c, 0, 53, 47
2, 124052, Note_on_c, 0, 67, 0
2, 124062, Note_on_c, 0, 62, 0
2, 124062, Note_on_c, 0, 64, 0
2, 124312, Note_on_c, 0, 53, 0
2, 124472, Note_on_c, 0, 46, 0
2, 124772, Note_on_c, 0, 70, 57
2, 124772, Note_on_c, 0, 61, 56
2, 124782, Control_c, 0, 64, 0
2, 124812, Note_on_c, 0, 66, 52
2, 124812, Note_on_c, 0, 55, 45
2, 124832, Note_on_c, 0, 45, 45
2, 125112, Control_c, 0, 64, 127
2, 125652, Note_on_c, 0, 70, 0
2, 125692, Note_on_c, 0, 61, 0
2, 125702, Note_on_c, 0, 72, 61
2, 125722, Note_on_c, 0, 52, 49
2, 125862, Note_on_c, 0, 45, 0
2, 125882, Note_on_c, 0, 55, 0
2, 125932, Note_on_c, 0, 52, 0
2, 126012, Note_on_c, 0, 66, 0
2, 126042, Note_on_c, 0, 72, 0
2, 127432, Note_on_c, 0, 65, 54
2, 127442, Control_c, 0, 64, 0
2, 127442, Note_on_c, 0, 74, 63
2, 127452, Note_on_c, 0, 69, 63
2, 127452, Note_on_c, 0, 64, 56
2, 127722, Control_c, 0, 64, 127
2, 128522, Note_on_c, 0, 64, 0
2, 128582, Note_on_c, 0, 76, 74
2, 128652, Note_on_c, 0, 62, 45
2, 128662, Control_c, 0, 64, 0
2, 128862, Control_c, 0, 64, 127
2, 129112, Note_on_c, 0, 76, 0
2, 129112, Note_on_c, 0, 69, 0
2, 129112, Note_on_c, 0, 74, 0
2, 129222, Note_on_c, 0, 65, 0
2, 129572, Note_on_c, 0, 73, 56
2, 129582, Note_on_c, 0, 77, 66
2, 129602, Note_on_c, 0, 69, 58
2, 129612, Control_c, 0, 64, 0
2, 129622, Note_on_c, 0, 65, 41
2, 129652, Note_on_c, 0, 61, 49
2, 129712, Note_on_c, 0, 62, 0
2, 129892, Control_c, 0, 64, 127
2, 130212, Note_on_c, 0, 61, 0
2, 130452, Note_on_c, 0, 61, 55
2, 130542, Note_on_c, 0, 69, 0
2, 130542, Note_on_c, 0, 65, 0
2, 130662, Note_on_c, 0, 73, 0
2, 130732, Note_on_c, 0, 77, 0
2, 131202, Note_on_c, 0, 79, 63
2, 131482, Note_on_c, 0, 79, 0
2, 131812, Note_on_c, 0, 61, 0
2, 131932, Control_c, 0, 64, 0
2, 131962, Note_on_c, 0, 80, 64
2, 131982, Note_on_c, 0, 60, 52
2, 131982, Note_on_c, 0, 68, 49
2, 132022, Note_on_c, 0, 74, 60
2, 132192, Control_c, 0, 64, 127
2, 132472, Note_on_c, 0, 60, 0
2, 132952, Note_on_c, 0, 60, 52
2, 133282, Note_on_c, 0, 74, 0
2, 133412, Note_on_c, 0, 68, 0
2, 133542, Note_on_c, 0, 80, 0
2, 133802, Note_on_c, 0, 60, 0
2, 133872, Note_on_c, 0, 81, 60
2, 133892, Note_on_c, 0, 69, 54
2, 133902, Note_on_c, 0, 77, 57
2, 134112, Note_on_c, 0, 69, 0
2, 134182, Note_on_c, 0, 77, 0
2, 134262, Note_on_c, 0, 81, 0
2, 134602, Note_on_c, 0, 83, 73
2, 134622, Note_on_c, 0, 60, 54
2, 134622, Note_on_c, 0, 72, 61
2, 134652, Note_on_c, 0, 79, 63
2, 134942, Note_on_c, 0, 79, 0
2, 134942, Note_on_c, 0, 72, 0
2, 135022, Note_on_c, 0, 83, 0
2, 135252, Note_on_c, 0, 84, 75
2, 135352, Note_on_c, 0, 60, 0
2, 135472, Note_on_c, 0, 84, 0
2, 136632, Note_on_c, 0, 89, 74
2, 136662, Note_on_c, 0, 47, 51
2, 136742, Control_c, 0, 64, 0
2, 136942, Control_c, 0, 64, 127
2, 137232, Note_on_c, 0, 89, 0
2, 137412, Note_on_c, 0, 47, 0
2, 137452, Note_on_c, 0, 57, 52
2, 137562, Note_on_c, 0, 57, 0
2, 138322, Note_on_c, 0, 77, 58
2, 138352, Note_on_c, 0, 69, 49
2, 138362, Note_on_c, 0, 62, 43
2, 139032, Note_on_c, 0, 69, 0
2, 139272, Note_on_c, 0, 77, 0
2, 139712, Note_on_c, 0, 71, 48
2, 139772, Note_on_c, 0, 65, 47
2, 139902, Note_on_c, 0, 65, 0
2, 140012, Note_on_c, 0, 62, 0
2, 140202, Note_on_c, 0, 71, 0
2, 142492, Control_c, 0, 64, 0
2, 142522, Note_on_c, 0, 67, 51
2, 142542, Note_on_c, 0, 76, 56
2, 142562, Note_on_c, 0, 62, 39
2, 142562, Note_on_c, 0, 72, 51
2, 142572, Note_on_c, 0, 56, 39
2, 142742, Control_c, 0, 64, 127
2, 142982, Note_on_c, 0, 72, 0
2, 143042, Note_on_c, 0, 76, 0
2, 143112, Note_on_c, 0, 67, 0
2, 143602, Note_on_c, 0, 62, 0
2, 143612, Note_on_c, 0, 56, 0
2, 144112, Note_on_c, 0, 70, 66
2, 144122, Note_on_c, 0, 68, 66
2, 144162, Note_on_c, 0, 62, 43
2, 144172, Note_on_c, 0, 56, 46
2, 144182, Control_c, 0, 64, 0
2, 144392, Control_c, 0, 64, 127
2, 144952, Note_on_c, 0, 56, 0
2, 144962, Note_on_c, 0, 62, 0
2, 145302, Note_on_c, 0, 68, 0
2, 145422, Note_on_c, 0, 70, 0
2, 145652, Note_on_c, 0, 67, 59
2, 145652, Control_c, 0, 64, 0
2, 145682, Note_on_c, 0, 62, 48
2, 145692, Note_on_c, 0, 71, 58
2, 145702, Note_on_c, 0, 56, 45
2, 146012, Control_c, 0, 64, 127
2, 146392, Note_on_c, 0, 71, 0
2, 146412, Note_on_c, 0, 67, 0
2, 146632, Note_on_c, 0, 62, 0
2, 146792, Note_on_c, 0, 56, 0
2, 146912, Note_on_c, 0, 68, 66
2, 146922, Note_on_c, 0, 74, 64
2, 147012, Note_on_c, 0, 56, 38
2, 147202, Note_on_c, 0, 74, 0
2, 147252, Note_on_c, 0, 56, 0
2, 147302, Note_on_c, 0, 68, 0
2, 148232, Note_on_c, 0, 77, 68
2, 148252, Note_on_c, 0, 69, 49
2, 148262, Note_on_c, 0, 72, 54
2, 148272, Note_on_c, 0, 65, 55
2, 148302, Control_c, 0, 64, 0
2, 148332, Note_on_c, 0, 45, 39
2, 148562, Control_c, 0, 64, 127
2, 148652, Note_on_c, 0, 45, 0
2, 149282, Note_on_c, 0, 60, 58
2, 150072, Note_on_c, 0, 61, 68
2, 150092, Note_on_c, 0, 60, 0
2, 150312, Note_on_c, 0, 77, 0
2, 150522, Note_on_c, 0, 65, 0
2, 150862, Note_on_c, 0, 69, 0
2, 150882, Note_on_c, 0, 72, 0
2, 150882, Note_on_c, 0, 64, 77
2, 151862, Note_on_c, 0, 65, 75
2, 152432, Note_on_c, 0, 65, 0
2, 152532, Note_on_c, 0, 67, 81
2, 152992, Note_on_c, 0, 67, 0
2, 153062, Note_on_c, 0, 64, 0
2, 153082, Note_on_c, 0, 69, 82
2, 153142, Note_on_c, 0, 61, 0
2, 153362, Note_on_c, 0, 73, 13
2, 153472, Note_on_c, 0, 69, 0
2, 153482, Note_on_c, 0, 73, 0
2, 153682, Note_on_c, 0, 72, 82
2, 154042, Note_on_c, 0, 72, 0
2, 154322, Note_on_c, 0, 76, 78
2, 154382, Note_on_c, 0, 50, 45
2, 154482, Control_c, 0, 64, 0
2, 154982, Note_on_c, 0, 68, 57
2, 155152, Note_on_c, 0, 60, 31
2, 155192, Control_c, 0, 64, 127
2, 155732, Note_on_c, 0, 60, 0
2, 155862, Note_on_c, 0, 57, 45
2, 155872, Note_on_c, 0, 50, 0
2, 156072, Note_on_c, 0, 57, 0
2, 156642, Note_on_c, 0, 66, 43
2, 156682, Note_on_c, 0, 64, 48
2, 156752, Note_on_c, 0, 68, 0
2, 156822, Note_on_c, 0, 69, 36
2, 157342, Control_c, 0, 64, 0
2, 157492, Note_on_c, 0, 63, 45
2, 157542, Control_c, 0, 64, 127
2, 157622, Note_on_c, 0, 64, 0
2, 157912, Note_on_c, 0, 69, 0
2, 158092, Note_on_c, 0, 66, 0
2, 158292, Note_on_c, 0, 63, 0
2, 158292, Note_on_c, 0, 66, 48
2, 158302, Note_on_c, 0, 70, 63
2, 158352, Note_on_c, 0, 62, 39
2, 159142, Note_on_c, 0, 62, 0
2, 159142, Note_on_c, 0, 61, 40
2, 159632, Note_on_c, 0, 76, 0
2, 159722, Note_on_c, 0, 70, 0
2, 159782, Note_on_c, 0, 66, 0
2, 159972, Note_on_c, 0, 61, 0
2, 159992, Note_on_c, 0, 66, 43
2, 160002, Note_on_c, 0, 69, 56
2, 160062, Note_on_c, 0, 60, 38
2, 160252, Note_on_c, 0, 66, 0
2, 160562, Note_on_c, 0, 69, 0
2, 160782, Control_c, 0, 64, 0
2, 160892, Note_on_c, 0, 65, 46
2, 160902, Note_on_c, 0, 60, 0
2, 160912, Note_on_c, 0, 72, 52
2, 160922, Note_on_c, 0, 69, 48
2, 160952, Note_on_c, 0, 59, 45
2, 161022, Note_on_c, 0, 59, 0
2, 161042, Control_c, 0, 64, 127
2, 161832, Note_on_c, 0, 31, 36
2, 161942, Note_on_c, 0, 65, 0
2, 161952, Note_on_c, 0, 31, 0
2, 162002, Note_on_c, 0, 69, 0
2, 162082, Note_on_c, 0, 72, 0
2, 162842, Note_on_c, 0, 76, 72
2, 162852, Note_on_c, 0, 65, 64
2, 162862, Note_on_c, 0, 68, 63
2, 162872, Note_on_c, 0, 71, 61
2, 162872, Note_on_c, 0, 64, 57
2, 163252, Note_on_c, 0, 65, 0
2, 163262, Note_on_c, 0, 64, 0
2, 163292, Note_on_c, 0, 76, 0
2, 163292, Note_on_c, 0, 68, 0
2, 163312, Note_on_c, 0, 71, 0
2, 163722, Note_on_c, 0, 76, 89
2, 163732, Note_on_c, 0, 65, 86
2, 163732, Note_on_c, 0, 68, 82
2, 163742, Note_on_c, 0, 71, 74
2, 163752, Note_on_c, 0, 64, 81
2, 164102, Note_on_c, 0, 65, 0
2, 164102, Note_on_c, 0, 76, 0
2, 164132, Note_on_c, 0, 68, 0
2, 164152, Note_on_c, 0, 71, 0
2, 164152, Note_on_c, 0, 64, 0
2, 164562, Note_on_c, 0, 68, 88
2, 164562, Note_on_c, 0, 76, 89
2, 164562, Note_on_c, 0, 65, 99
2, 164572, Note_on_c, 0, 71, 81
2, 164592, Note_on_c, 0, 64, 84
2, 164912, Note_on_c, 0, 76, 0
2, 164932, Note_on_c, 0, 65, 0
2, 164962, Note_on_c, 0, 68, 0
2, 164982, Note_on_c, 0, 71, 0
2, 164992, Note_on_c, 0, 64, 0
2, 165452, Note_on_c, 0, 64, 73
2, 165452, Note_on_c, 0, 68, 90
2, 165462, Note_on_c, 0, 76, 85
2, 165472, Note_on_c, 0, 65, 89
2, 165492, Note_on_c, 0, 71, 67
2, 165642, Note_on_c, 0, 64, 0
2, 166022, Note_on_c, 0, 76, 0
2, 166032, Note_on_c, 0, 71, 0
2, 166102, Note_on_c, 0, 65, 0
2, 166132, Note_on_c, 0, 68, 0
2, 168742, Note_on_c, 0, 59, 50
2, 168762, Note_on_c, 0, 62, 49
2, 168762, Note_on_c, 0, 67, 48
2, 168782, Note_on_c, 0, 53, 39
2, 168852, Control_c, 0, 64, 0
2, 169292, Control_c, 0, 64, 127
2, 169632, Note_on_c, 0, 59, 0
2, 169812, Note_on_c, 0, 62, 0
2, 169902, Note_on_c, 0, 53, 0
2, 169932, Note_on_c, 0, 67, 0
2, 171812, Control_c, 0, 64, 0
2, 171822, Note_on_c, 0, 74, 55
2, 171832, Note_on_c, 0, 67, 43
2, 171842, Note_on_c, 0, 62, 43
2, 171852, Note_on_c, 0, 58, 32
2, 171892, Note_on_c, 0, 48, 39
2, 172232, Control_c, 0, 64, 127
2, 172612, Note_on_c, 0, 58, 0
2, 172722, Note_on_c, 0, 48, 0
2, 172732, Note_on_c, 0, 55, 52
2, 172752, Note_on_c, 0, 62, 0
2, 172932, Note_on_c, 0, 55, 0
2, 173062, Note_on_c, 0, 67, 0
2, 173662, Note_on_c, 0, 58, 54
2, 175092, Note_on_c, 0, 74, 0
2, 175282, Note_on_c, 0, 58, 0
2, 176252, Control_c, 0, 64, 0
2, 176432, Note_on_c, 0, 56, 51
2, 176492, Control_c, 0, 64, 127
2, 177022, Note_on_c, 0, 56, 0
2, 177092, Note_on_c, 0, 60, 53
2, 177272, Note_on_c, 0, 60, 0
2, 177372, Note_on_c, 0, 62, 57
2, 177602, Note_on_c, 0, 62, 0
2, 177602, Note_on_c, 0, 64, 58
2, 177742, Note_on_c, 0, 64, 0
2, 177742, Note_on_c, 0, 68, 63
2, 177912, Note_on_c, 0, 68, 0
2, 178012, Note_on_c, 0, 72, 57
2, 178192, Note_on_c, 0, 72, 0
2, 178192, Note_on_c, 0, 74, 61
2, 178352, Note_on_c, 0, 74, 0
2, 178382, Note_on_c, 0, 76, 52
2, 178442, Note_on_c, 0, 76, 0
2, 178552, Note_on_c, 0, 80, 52
2, 178622, Note_on_c, 0, 80, 0
2, 178732, Note_on_c, 0, 84, 42
2, 178922, Note_on_c, 0, 84, 0
2, 178932, Note_on_c, 0, 86, 56
2, 179082, Note_on_c, 0, 88, 50
2, 179092, Note_on_c, 0, 86, 0
2, 179152, Note_on_c, 0, 88, 0
2, 179472, Note_on_c, 0, 96, 40
2, 179642, Note_on_c, 0, 98, 65
2, 179662, Note_on_c, 0, 96, 0
2, 179872, Note_on_c, 0, 100, 54
2, 179922, Note_on_c, 0, 98, 0
2, 180172, Note_on_c, 0, 100, 0
2, 182482, Note_on_c, 0, 67, 45
2, 183042, Note_on_c, 0, 67, 0
2, 183832, Note_on_c, 0, 41, 39
2, 183922, Note_on_c, 0, 74, 68
2, 183922, Note_on_c, 0, 48, 38
2, 184052, Note_on_c, 0, 71, 63
2, 184062, Note_on_c, 0, 72, 33
2, 184072, Control_c, 0, 64, 0
2, 184112, Note_on_c, 0, 57, 43
2, 184172, Note_on_c, 0, 67, 48
2, 184312, Note_on_c, 0, 63, 54
2, 184642, Control_c, 0, 64, 127
2, 185162, Note_on_c, 0, 41, 0
2, 185272, Note_on_c, 0, 57, 0
2, 185292, Note_on_c, 0, 48, 0
2, 186752, Note_on_c, 0, 59, 56
2, 187412, Note_on_c, 0, 59, 0
2, 187442, Note_on_c, 0, 60, 63
2, 187602, Note_on_c, 0, 71, 0
2, 187672, Note_on_c, 0, 74, 0
2, 187672, Note_on_c, 0, 72, 0
2, 187672, Note_on_c, 0, 67, 0
2, 187872, Note_on_c, 0, 63, 0
2, 187982, Note_on_c, 0, 60, 0
2, 188192, Note_on_c, 0, 69, 68
2, 188192, Note_on_c, 0, 63, 57
2, 188532, Note_on_c, 0, 63, 0
2, 188672, Note_on_c, 0, 69, 0
2, 189272, Note_on_c, 0, 65, 71
2, 189282, Note_on_c, 0, 72, 68
2, 189282, Note_on_c, 0, 57, 57
2, 189292, Note_on_c, 0, 62, 71
2, 189312, Control_c, 0, 64, 0
2, 189562, Control_c, 0, 64, 127
2, 189862, Note_on_c, 0, 72, 0
2, 189912, Note_on_c, 0, 62, 0
2, 189992, Note_on_c, 0, 65, 0
2, 190162, Note_on_c, 0, 57, 0
2, 190182, Control_c, 0, 64, 0
2, 190192, Note_on_c, 0, 65, 56
2, 190192, Note_on_c, 0, 70, 63
2, 190192, Note_on_c, 0, 62, 66
2, 190242, Note_on_c, 0, 55, 49
2, 190282, Control_c, 0, 64, 127
2, 190402, Note_on_c, 0, 55, 0
2, 190442, Note_on_c, 0, 65, 0
2, 190452, Note_on_c, 0, 70, 0
2, 190552, Note_on_c, 0, 62, 0
2, 191242, Note_on_c, 0, 58, 56
2, 191242, Note_on_c, 0, 65, 53
2, 191242, Note_on_c, 0, 62, 60
2, 191282, Control_c, 0, 64, 0
2, 191282, Note_on_c, 0, 50, 42
2, 191552, Control_c, 0, 64, 127
2, 194392, Note_on_c, 0, 67, 54
2, 194422, Note_on_c, 0, 65, 0
2, 195022, Note_on_c, 0, 50, 0
2, 195332, Note_on_c, 0, 58, 0
2, 195392, Note_on_c, 0, 62, 0
2, 195402, Note_on_c, 0, 67, 0
2, 197072, Control_c, 0, 64, 0
2, 197162, Note_on_c, 0, 69, 54
2, 197162, Note_on_c, 0, 62, 51
2, 197182, Note_on_c, 0, 46, 43
2, 197182, Note_on_c, 0, 56, 39
2, 197322, Control_c, 0, 64, 127
2, 197372, Note_on_c, 0, 46, 0
2, 197432, Note_on_c, 0, 62, 0
2, 197532, Note_on_c, 0, 56, 0
2, 197602, Note_on_c, 0, 69, 0
2, 198402, Note_on_c, 0, 94, 77
2, 198712, Note_on_c, 0, 94, 0
2, 198812, Note_on_c, 0, 92, 80
2, 199032, Note_on_c, 0, 92, 0
2, 199122, Note_on_c, 0, 91, 56
2, 199222, Note_on_c, 0, 91, 0
2, 199442, Note_on_c, 0, 87, 75
2, 199602, Note_on_c, 0, 87, 0
2, 199702, Note_on_c, 0, 86, 61
2, 199762, Note_on_c, 0, 86, 0
2, 200002, Note_on_c, 0, 82, 62
2, 200162, Note_on_c, 0, 82, 0
2, 200202, Note_on_c, 0, 80, 56
2, 200272, Note_on_c, 0, 80, 0
2, 200472, Control_c, 0, 64, 0
2, 200612, Note_on_c, 0, 56, 33
2, 200622, Note_on_c, 0, 62, 31
2, 200652, Note_on_c, 0, 75, 55
2, 200652, Note_on_c, 0, 67, 16
2, 200842, Note_on_c, 0, 75, 0
2, 200902, Control_c, 0, 64, 127
2, 200922, Note_on_c, 0, 67, 0
2, 201162, Note_on_c, 0, 70, 52
2, 201292, Note_on_c, 0, 70, 0
2, 201372, Note_on_c, 0, 68, 52
2, 201442, Note_on_c, 0, 62, 0
2, 201492, Note_on_c, 0, 68, 0
2, 201592, Note_on_c, 0, 65, 50
2, 201612, Note_on_c, 0, 56, 0
2, 201722, Note_on_c, 0, 65, 0
2, 201882, Note_on_c, 0, 63, 31
2, 201982, Note_on_c, 0, 63, 0
2, 202052, Note_on_c, 0, 62, 54
2, 202142, Note_on_c, 0, 62, 0
2, 202332, Note_on_c, 0, 61, 33
2, 202422, Note_on_c, 0, 61, 0
2, 202452, Note_on_c, 0, 60, 42
2, 202542, Note_on_c, 0, 60, 0
2, 202632, Note_on_c, 0, 59, 48
2, 202732, Note_on_c, 0, 59, 0
2, 202762, Note_on_c, 0, 46, 22
2, 202842, Note_on_c, 0, 58, 56
2, 202912, Note_on_c, 0, 46, 0
2, 203012, Note_on_c, 0, 58, 0
2, 203072, Note_on_c, 0, 57, 53
2, 203172, Note_on_c, 0, 57, 0
2, 203242, Note_on_c, 0, 55, 60
2, 203352, Note_on_c, 0, 55, 0
2, 203432, Control_c, 0, 64, 0
2, 203452, Note_on_c, 0, 45, 42
2, 203502, Note_on_c, 0, 57, 57
2, 203772, Note_on_c, 0, 57, 0
2, 203792, Note_on_c, 0, 58, 58
2, 203972, Note_on_c, 0, 57, 49
2, 204032, Note_on_c, 0, 58, 0
2, 204082, Note_on_c, 0, 57, 0
2, 204102, Note_on_c, 0, 55, 51
2, 204272, Control_c, 0, 64, 127
2, 204452, Note_on_c, 0, 58, 57
2, 204522, Note_on_c, 0, 58, 0
2, 204572, Control_c, 0, 64, 0
2, 204632, Note_on_c, 0, 60, 63
2, 204702, Note_on_c, 0, 60, 0
2, 204722, Note_on_c, 0, 45, 0
2, 204902, Control_c, 0, 64, 127
2, 204922, Note_on_c, 0, 63, 48
2, 205002, Note_on_c, 0, 63, 0
2, 205032, Note_on_c, 0, 55, 0
2, 205102, Note_on_c, 0, 64, 60
2, 205172, Note_on_c, 0, 64, 0
2, 205292, Note_on_c, 0, 66, 48
2, 205302, Control_c, 0, 64, 0
2, 205362, Note_on_c, 0, 66, 0
2, 205472, Note_on_c, 0, 67, 45
2, 205582, Note_on_c, 0, 67, 0
2, 205632, Note_on_c, 0, 69, 15
2, 205722, Note_on_c, 0, 69, 0
2, 205752, Note_on_c, 0, 70, 60
2, 205822, Note_on_c, 0, 70, 0
2, 205962, Note_on_c, 0, 72, 63
2, 206032, Note_on_c, 0, 72, 0
2, 206122, Note_on_c, 0, 73, 49
2, 206192, Note_on_c, 0, 73, 0
2, 206272, Note_on_c, 0, 75, 49
2, 206342, Note_on_c, 0, 75, 0
2, 206372, Note_on_c, 0, 61, 34
2, 206412, Note_on_c, 0, 64, 30
2, 206412, Note_on_c, 0, 55, 36
2, 206442, Note_on_c, 0, 76, 51
2, 206542, Note_on_c, 0, 76, 0
2, 206692, Note_on_c, 0, 78, 28
2, 206772, Note_on_c, 0, 78, 0
2, 207002, Note_on_c, 0, 81, 26
2, 207172, Note_on_c, 0, 81, 0
2, 207182, Note_on_c, 0, 82, 56
2, 207252, Note_on_c, 0, 82, 0
2, 207382, Note_on_c, 0, 84, 58
2, 207472, Note_on_c, 0, 84, 0
2, 207562, Note_on_c, 0, 85, 45
2, 207652, Note_on_c, 0, 85, 0
2, 207702, Note_on_c, 0, 87, 48
2, 207862, Note_on_c, 0, 87, 0
2, 207872, Note_on_c, 0, 88, 57
2, 208062, Note_on_c, 0, 88, 0
2, 208092, Note_on_c, 0, 91, 78
2, 208312, Note_on_c, 0, 91, 0
2, 208322, Control_c, 0, 64, 127
2, 208432, Note_on_c, 0, 89, 69
2, 209322, Note_on_c, 0, 64, 0
2, 209392, Note_on_c, 0, 61, 0
2, 209592, Note_on_c, 0, 55, 0
2, 209952, Note_on_c, 0, 88, 62
2, 210042, Note_on_c, 0, 89, 0
2, 210312, Note_on_c, 0, 88, 0
2, 210412, Note_on_c, 0, 86, 57
2, 210722, Note_on_c, 0, 86, 0
2, 210742, Note_on_c, 0, 85, 63
2, 210932, Note_on_c, 0, 85, 0
2, 211112, Note_on_c, 0, 86, 66
2, 211322, Note_on_c, 0, 86, 0
2, 211392, Note_on_c, 0, 87, 65
2, 211552, Note_on_c, 0, 87, 0
2, 211642, Note_on_c, 0, 88, 57
2, 211842, Note_on_c, 0, 88, 0
2, 211862, Note_on_c, 0, 89, 54
2, 212032, Note_on_c, 0, 89, 0
2, 212052, Note_on_c, 0, 90, 60
2, 212142, Note_on_c, 0, 90, 0
2, 212462, Note_on_c, 0, 92, 45
2, 212702, Note_on_c, 0, 92, 0
2, 212722, Note_on_c, 0, 93, 68
2, 212762, Control_c, 0, 64, 0
2, 212852, Note_on_c, 0, 38, 47
2, 212932, Note_on_c, 0, 93, 0
2, 212942, Note_on_c, 0, 53, 29
2, 213002, Control_c, 0, 64, 127
2, 213182, Note_on_c, 0, 38, 0
2, 213412, Note_on_c, 0, 53, 0
2, 214162, Note_on_c, 0, 60, 40
2, 214252, Note_on_c, 0, 57, 37
2, 214272, Note_on_c, 0, 53, 35
2, 214272, Note_on_c, 0, 50, 31
2, 214372, Control_c, 0, 64, 0
2, 214542, Control_c, 0, 64, 127
2, 214552, Note_on_c, 0, 60, 0
2, 214602, Note_on_c, 0, 53, 0
2, 214672, Note_on_c, 0, 57, 0
2, 214782, Note_on_c, 0, 50, 0
2, 215112, Note_on_c, 0, 69, 53
2, 215112, Note_on_c, 0, 64, 58
2, 215112, Note_on_c, 0, 60, 55
2, 215142, Note_on_c, 0, 65, 46
2, 215172, Note_on_c, 0, 60, 0
2, 215192, Note_on_c, 0, 69, 0
2, 215192, Note_on_c, 0, 64, 0
2, 215212, Note_on_c, 0, 65, 0
2, 215422, Control_c, 0, 64, 0
2, 215522, Note_on_c, 0, 48, 50
2, 215522, Note_on_c, 0, 57, 40
2, 215702, Control_c, 0, 64, 127
2, 215932, Note_on_c, 0, 57, 0
2, 216442, Note_on_c, 0, 48, 0
2, 216702, Control_c, 0, 64, 0
2, 216832, Note_on_c, 0, 48, 40
2, 216842, Note_on_c, 0, 58, 56
2, 216872, Note_on_c, 0, 57, 31
2, 216882, Note_on_c, 0, 63, 44
2, 216892, Note_on_c, 0, 65, 45
2, 216932, Control_c, 0, 64, 127
2, 217282, Note_on_c, 0, 57, 0
2, 217352, Note_on_c, 0, 58, 0
2, 217392, Note_on_c, 0, 48, 0
2, 217592, Note_on_c, 0, 65, 0
2, 217762, Note_on_c, 0, 63, 0
2, 218132, Note_on_c, 0, 56, 48
2, 218152, Control_c, 0, 64, 0
2, 218162, Note_on_c, 0, 46, 41
2, 218182, Note_on_c, 0, 67, 52
2, 218182, Note_on_c, 0, 62, 55
2, 218342, Note_on_c, 0, 46, 0
2, 218452, Control_c, 0, 64, 127
2, 218602, Note_on_c, 0, 56, 0
2, 218862, Note_on_c, 0, 62, 0
2, 219392, Control_c, 0, 64, 0
2, 219442, Note_on_c, 0, 62, 48
2, 219452, Note_on_c, 0, 56, 37
2, 219452, Note_on_c, 0, 46, 37
2, 219462, Note_on_c, 0, 60, 42
2, 219592, Control_c, 0, 64, 127
2, 219702, Note_on_c, 0, 67, 0
2, 219792, Note_on_c, 0, 62, 0
2, 219862, Note_on_c, 0, 56, 0
2, 219872, Note_on_c, 0, 60, 0
2, 220292, Note_on_c, 0, 46, 0
2, 220402, Note_on_c, 0, 63, 45
2, 220422, Note_on_c, 0, 58, 49
2, 220422, Note_on_c, 0, 61, 49
2, 220432, Note_on_c, 0, 55, 34
2, 220562, Note_on_c, 0, 55, 0
2, 220582, Control_c, 0, 64, 0
2, 220702, Note_on_c, 0, 52, 38
2, 220752, Note_on_c, 0, 45, 36
2, 220802, Note_on_c, 0, 63, 0
2, 220822, Note_on_c, 0, 61, 0
2, 220892, Note_on_c, 0, 58, 0
2, 221062, Note_on_c, 0, 57, 57
2, 221242, Note_on_c, 0, 57, 0
2, 221402, Note_on_c, 0, 58, 52
2, 221582, Note_on_c, 0, 58, 0
2, 221652, Note_on_c, 0, 60, 69
2, 221832, Note_on_c, 0, 60, 0
2, 221932, Note_on_c, 0, 61, 63
2, 222052, Note_on_c, 0, 55, 43
2, 222182, Note_on_c, 0, 45, 0
2, 222192, Note_on_c, 0, 61, 0
2, 222212, Note_on_c, 0, 52, 0
2, 222222, Note_on_c, 0, 63, 52
2, 222312, Note_on_c, 0, 63, 0
2, 222502, Note_on_c, 0, 64, 50
2, 222702, Note_on_c, 0, 64, 0
2, 222742, Note_on_c, 0, 65, 57
2, 222932, Note_on_c, 0, 65, 0
2, 222982, Note_on_c, 0, 66, 54
2, 223062, Note_on_c, 0, 66, 0
2, 223062, Note_on_c, 0, 55, 0
2, 223182, Note_on_c, 0, 67, 58
2, 223262, Note_on_c, 0, 57, 39
2, 223262, Note_on_c, 0, 50, 36
2, 223282, Note_on_c, 0, 67, 0
2, 223422, Note_on_c, 0, 68, 49
2, 223502, Note_on_c, 0, 68, 0
2, 223692, Note_on_c, 0, 69, 51
2, 223792, Note_on_c, 0, 69, 0
2, 223922, Note_on_c, 0, 72, 49
2, 224112, Note_on_c, 0, 72, 0
2, 224152, Note_on_c, 0, 76, 60
2, 224242, Note_on_c, 0, 50, 0
2, 224302, Note_on_c, 0, 76, 0
2, 224402, Note_on_c, 0, 79, 102
2, 224562, Note_on_c, 0, 64, 49
2, 224682, Note_on_c, 0, 77, 83
2, 224772, Note_on_c, 0, 79, 0
2, 224832, Note_on_c, 0, 64, 0
2, 224972, Note_on_c, 0, 77, 0
2, 225042, Note_on_c, 0, 73, 59
2, 225182, Note_on_c, 0, 57, 0
2, 225202, Note_on_c, 0, 73, 0
2, 225332, Note_on_c, 0, 76, 73
2, 225582, Note_on_c, 0, 76, 0
2, 225632, Note_on_c, 0, 73, 70
2, 225802, Note_on_c, 0, 73, 0
2, 225872, Note_on_c, 0, 57, 49
2, 225922, Note_on_c, 0, 48, 48
2, 225942, Note_on_c, 0, 74, 64
2, 226052, Control_c, 0, 64, 127
2, 226172, Note_on_c, 0, 74, 0
2, 226262, Note_on_c, 0, 57, 0
2, 226332, Note_on_c, 0, 69, 44
2, 226492, Note_on_c, 0, 69, 0
2, 226692, Note_on_c, 0, 65, 54
2, 227052, Control_c, 0, 64, 0
2, 227062, Note_on_c, 0, 65, 0
2, 227192, Note_on_c, 0, 57, 45
2, 227202, Note_on_c, 0, 62, 42
2, 227302, Control_c, 0, 64, 127
2, 227342, Note_on_c, 0, 62, 0
2, 227452, Note_on_c, 0, 62, 16
2, 227612, Note_on_c, 0, 48, 0
2, 227932, Note_on_c, 0, 62, 0
2, 227942, Note_on_c, 0, 57, 0
2, 228062, Note_on_c, 0, 48, 44
2, 228182, Note_on_c, 0, 48, 0
2, 228512, Control_c, 0, 64, 0
2, 228542, Note_on_c, 0, 56, 55
2, 228572, Note_on_c, 0, 62, 38
2, 228572, Note_on_c, 0, 65, 46
2, 228912, Control_c, 0, 64, 127
2, 229532, Note_on_c, 0, 56, 0
2, 229552, Note_on_c, 0, 62, 0
2, 229552, Note_on_c, 0, 53, 19
2, 229742, Note_on_c, 0, 53, 0
2, 229742, Note_on_c, 0, 65, 0
2, 229762, Control_c, 0, 64, 0
2, 229822, Note_on_c, 0, 62, 48
2, 229822, Note_on_c, 0, 56, 39
2, 229842, Note_on_c, 0, 46, 41
2, 229842, Note_on_c, 0, 60, 39
2, 229972, Control_c, 0, 64, 127
2, 230232, Note_on_c, 0, 62, 0
2, 230272, Note_on_c, 0, 56, 0
2, 230332, Note_on_c, 0, 60, 0
2, 230492, Note_on_c, 0, 46, 0
2, 231052, Control_c, 0, 64, 0
2, 231162, Note_on_c, 0, 63, 51
2, 231162, Note_on_c, 0, 45, 48
2, 231202, Note_on_c, 0, 58, 45
2, 231252, Note_on_c, 0, 55, 31
2, 231282, Note_on_c, 0, 61, 31
2, 231392, Note_on_c, 0, 55, 0
2, 231402, Note_on_c, 0, 61, 0
2, 231432, Note_on_c, 0, 63, 0
2, 231442, Note_on_c, 0, 58, 0
2, 231582, Note_on_c, 0, 58, 27
2, 231602, Note_on_c, 0, 49, 50
2, 231672, Note_on_c, 0, 58, 0
2, 231752, Note_on_c, 0, 45, 0
2, 231892, Note_on_c, 0, 49, 0
2, 232042, Note_on_c, 0, 67, 56
2, 232062, Note_on_c, 0, 52, 58
2, 232082, Note_on_c, 0, 61, 48
2, 232172, Note_on_c, 0, 61, 0
2, 232182, Note_on_c, 0, 67, 0
2, 232392, Note_on_c, 0, 52, 0
2, 232472, Note_on_c, 0, 55, 68
2, 232472, Note_on_c, 0, 63, 74
2, 232492, Note_on_c, 0, 61, 66
2, 232492, Note_on_c, 0, 70, 73
2, 232542, Note_on_c, 0, 63, 0
2, 232692, Control_c, 0, 64, 127
2, 233112, Note_on_c, 0, 55, 0
2, 233132, Note_on_c, 0, 61, 0
2, 233172, Note_on_c, 0, 70, 0
2, 233292, Note_on_c, 0, 61, 61
2, 233312, Note_on_c, 0, 55, 55
2, 233322, Note_on_c, 0, 69, 73
2, 233652, Note_on_c, 0, 69, 0
2, 233702, Note_on_c, 0, 55, 0
2, 233732, Note_on_c, 0, 61, 0
2, 233792, Control_c, 0, 64, 0
2, 234652, Note_on_c, 0, 50, 54
2, 235142, Note_on_c, 0, 62, 48
2, 235272, Note_on_c, 0, 62, 0
2, 235422, Control_c, 0, 64, 127
2, 235432, Note_on_c, 0, 50, 0
2, 235532, Note_on_c, 0, 64, 58
2, 235732, Note_on_c, 0, 64, 0
2, 235962, Note_on_c, 0, 49, 57
2, 235982, Note_on_c, 0, 65, 62
2, 235982, Note_on_c, 0, 61, 68
2, 235992, Control_c, 0, 64, 0
2, 235992, Note_on_c, 0, 57, 55
2, 236392, Control_c, 0, 64, 127
2, 237292, Note_on_c, 0, 57, 0
2, 237352, Note_on_c, 0, 49, 0
2, 237702, Note_on_c, 0, 49, 45
2, 238342, Note_on_c, 0, 65, 0
2, 238372, Note_on_c, 0, 49, 0
2, 238512, Note_on_c, 0, 67, 56
2, 238622, Note_on_c, 0, 67, 0
2, 238702, Note_on_c, 0, 61, 0
2, 238832, Control_c, 0, 64, 0
2, 238982, Note_on_c, 0, 56, 46
2, 238992, Note_on_c, 0, 60, 50
2, 239012, Note_on_c, 0, 68, 43
2, 239012, Note_on_c, 0, 62, 49
2, 239032, Note_on_c, 0, 48, 39
2, 239162, Control_c, 0, 64, 127
2, 239532, Note_on_c, 0, 60, 0
2, 239562, Note_on_c, 0, 62, 0
2, 239702, Note_on_c, 0, 68, 0
2, 239922, Note_on_c, 0, 56, 0
2, 240212, Control_c, 0, 64, 0
2, 240302, Note_on_c, 0, 69, 58
2, 240322, Note_on_c, 0, 62, 54
2, 240332, Note_on_c, 0, 57, 41
2, 240352, Note_on_c, 0, 60, 42
2, 240432, Control_c, 0, 64, 127
2, 240492, Note_on_c, 0, 57, 0
2, 240642, Note_on_c, 0, 62, 0
2, 240712, Note_on_c, 0, 48, 0
2, 240762, Note_on_c, 0, 60, 0
2, 240852, Note_on_c, 0, 69, 0
2, 241602, Control_c, 0, 64, 0
2, 241662, Note_on_c, 0, 71, 56
2, 241662, Note_on_c, 0, 62, 45
2, 241662, Note_on_c, 0, 65, 52
2, 241682, Note_on_c, 0, 48, 44
2, 241702, Note_on_c, 0, 57, 31
2, 241932, Control_c, 0, 64, 127
2, 242182, Note_on_c, 0, 57, 0
2, 242182, Note_on_c, 0, 71, 0
2, 242242, Note_on_c, 0, 65, 0
2, 242322, Note_on_c, 0, 62, 0
2, 242942, Note_on_c, 0, 72, 57
2, 242942, Note_on_c, 0, 65, 52
2, 242952, Note_on_c, 0, 57, 41
2, 242992, Note_on_c, 0, 62, 38
2, 243082, Note_on_c, 0, 57, 0
2, 243102, Note_on_c, 0, 62, 0
2, 243182, Note_on_c, 0, 65, 0
2, 243332, Note_on_c, 0, 48, 0
2, 243352, Note_on_c, 0, 72, 0
2, 244132, Control_c, 0, 64, 0
2, 244262, Note_on_c, 0, 77, 66
2, 244272, Note_on_c, 0, 47, 31
2, 244282, Note_on_c, 0, 57, 39
2, 244392, Note_on_c, 0, 47, 0
2, 244412, Control_c, 0, 64, 127
2, 244512, Note_on_c, 0, 57, 0
2, 245032, Note_on_c, 0, 77, 0
2, 245572, Note_on_c, 0, 65, 38
2, 245592, Note_on_c, 0, 62, 45
2, 245612, Note_on_c, 0, 57, 38
2, 245722, Control_c, 0, 64, 0
2, 245832, Control_c, 0, 64, 127
2, 246372, Note_on_c, 0, 62, 0
2, 246382, Note_on_c, 0, 57, 0
2, 246422, Note_on_c, 0, 65, 0
2, 246462, Note_on_c, 0, 71, 54
2, 246582, Note_on_c, 0, 71, 0
2, 246602, Note_on_c, 0, 72, 56
2, 246672, Note_on_c, 0, 72, 0
2, 246732, Note_on_c, 0, 71, 48
2, 246852, Control_c, 0, 64, 0
2, 246942, Note_on_c, 0, 70, 56
2, 246972, Note_on_c, 0, 71, 0
2, 247062, Note_on_c, 0, 65, 33
2, 247092, Note_on_c, 0, 62, 33
2, 247122, Note_on_c, 0, 57, 39
2, 247262, Note_on_c, 0, 70, 0
2, 247582, Note_on_c, 0, 71, 76
2, 247722, Note_on_c, 0, 62, 0
2, 247782, Note_on_c, 0, 65, 0
2, 247782, Note_on_c, 0, 71, 0
2, 247922, Note_on_c, 0, 72, 81
2, 248222, Note_on_c, 0, 72, 0
2, 248312, Note_on_c, 0, 74, 79
2, 248322, Note_on_c, 0, 65, 39
2, 248362, Note_on_c, 0, 62, 42
2, 248502, Note_on_c, 0, 65, 0
2, 248552, Note_on_c, 0, 74, 0
2, 248682, Note_on_c, 0, 75, 72
2, 248692, Note_on_c, 0, 57, 0
2, 248692, Control_c, 0, 64, 127
2, 248762, Note_on_c, 0, 62, 0
2, 248932, Note_on_c, 0, 75, 0
2, 249092, Note_on_c, 0, 77, 88
2, 249402, Note_on_c, 0, 77, 0
2, 249402, Control_c, 0, 64, 0
2, 249582, Note_on_c, 0, 76, 60
2, 249622, Note_on_c, 0, 62, 40
2, 249642, Note_on_c, 0, 52, 39
2, 249712, Control_c, 0, 64, 127
2, 249932, Note_on_c, 0, 52, 0
2, 250062, Note_on_c, 0, 62, 0
2, 250812, Control_c, 0, 64, 0
2, 250862, Note_on_c, 0, 67, 52
2, 250902, Note_on_c, 0, 62, 41
2, 250912, Note_on_c, 0, 56, 48
2, 251092, Control_c, 0, 64, 127
2, 251332, Note_on_c, 0, 62, 0
2, 251382, Note_on_c, 0, 56, 0
2, 251532, Note_on_c, 0, 67, 0
2, 252092, Note_on_c, 0, 76, 0
2, 252092, Control_c, 0, 64, 0
2, 252152, Note_on_c, 0, 68, 56
2, 252202, Note_on_c, 0, 63, 45
2, 252212, Note_on_c, 0, 57, 42
2, 252452, Control_c, 0, 64, 127
2, 252772, Note_on_c, 0, 57, 0
2, 252912, Note_on_c, 0, 68, 0
2, 253012, Note_on_c, 0, 63, 0
2, 253382, Control_c, 0, 64, 0
2, 253472, Note_on_c, 0, 67, 48
2, 253502, Note_on_c, 0, 56, 41
2, 253542, Note_on_c, 0, 62, 48
2, 253662, Control_c, 0, 64, 127
2, 253982, Note_on_c, 0, 67, 0
2, 254022, Note_on_c, 0, 62, 0
2, 254262, Note_on_c, 0, 56, 0
2, 254722, Control_c, 0, 64, 0
2, 254802, Note_on_c, 0, 66, 49
2, 254812, Note_on_c, 0, 77, 70
2, 254822, Note_on_c, 0, 69, 57
2, 254852, Note_on_c, 0, 61, 39
2, 254852, Note_on_c, 0, 55, 38
2, 254972, Note_on_c, 0, 66, 0
2, 255102, Note_on_c, 0, 69, 0
2, 255142, Note_on_c, 0, 61, 0
2, 255162, Note_on_c, 0, 55, 0
2, 255172, Note_on_c, 0, 77, 0
2, 255222, Control_c, 0, 64, 127
2, 255272, Note_on_c, 0, 72, 49
2, 255492, Note_on_c, 0, 72, 0
2, 255552, Control_c, 0, 64, 0
2, 255692, Note_on_c, 0, 69, 67
2, 255712, Note_on_c, 0, 77, 66
2, 255712, Note_on_c, 0, 72, 52
2, 255742, Control_c, 0, 64, 127
2, 255782, Note_on_c, 0, 61, 39
2, 256072, Note_on_c, 0, 77, 0
2, 256112, Note_on_c, 0, 61, 0
2, 256162, Note_on_c, 0, 72, 0
2, 256202, Note_on_c, 0, 69, 0
2, 256672, Note_on_c, 0, 65, 53
2, 256702, Note_on_c, 0, 61, 49
2, 256712, Note_on_c, 0, 72, 48
2, 256722, Note_on_c, 0, 69, 46
2, 256802, Note_on_c, 0, 69, 0
2, 256822, Note_on_c, 0, 55, 34
2, 256902, Note_on_c, 0, 65, 0
2, 256972, Note_on_c, 0, 72, 0
2, 256992, Note_on_c, 0, 55, 0
2, 257012, Note_on_c, 0, 61, 0
2, 257112, Note_on_c, 0, 69, 57
2, 257222, Control_c, 0, 64, 0
2, 257322, Note_on_c, 0, 69, 0
2, 257502, Note_on_c, 0, 61, 60
2, 257532, Note_on_c, 0, 72, 63
2, 257532, Note_on_c, 0, 69, 48
2, 257532, Note_on_c, 0, 65, 57
2, 257582, Control_c, 0, 64, 127
2, 257602, Note_on_c, 0, 55, 43
2, 257802, Note_on_c, 0, 65, 0
2, 257822, Note_on_c, 0, 69, 0
2, 257902, Note_on_c, 0, 55, 0
2, 257952, Note_on_c, 0, 61, 0
2, 257972, Note_on_c, 0, 72, 0
2, 258552, Control_c, 0, 64, 0
2, 258572, Note_on_c, 0, 69, 59
2, 258582, Note_on_c, 0, 65, 54
2, 258582, Note_on_c, 0, 61, 55
2, 258602, Note_on_c, 0, 60, 52
2, 258652, Note_on_c, 0, 55, 46
2, 258932, Control_c, 0, 64, 127
2, 259352, Note_on_c, 0, 60, 0
2, 259492, Note_on_c, 0, 55, 0
2, 259552, Note_on_c, 0, 65, 0
2, 259592, Note_on_c, 0, 61, 0
2, 259632, Note_on_c, 0, 69, 0
2, 260352, Control_c, 0, 64, 0
2, 260402, Note_on_c, 0, 76, 72
2, 260412, Note_on_c, 0, 66, 61
2, 260452, Note_on_c, 0, 69, 46
2, 260452, Note_on_c, 0, 72, 52
2, 260832, Note_on_c, 0, 69, 0
2, 261232, Note_on_c, 0, 64, 81
2, 261602, Note_on_c, 0, 66, 0
2, 261632, Control_c, 0, 64, 127
2, 261782, Note_on_c, 0, 72, 0
2, 261862, Note_on_c, 0, 64, 0
2, 262062, Note_on_c, 0, 76, 0
2, 262162, Control_c, 0, 64, 0
2, 262202, Note_on_c, 0, 62, 62
2, 262212, Note_on_c, 0, 66, 57
2, 262222, Note_on_c, 0, 76, 41
2, 262232, Note_on_c, 0, 72, 34
2, 262292, Note_on_c, 0, 68, 39
2, 262392, Control_c, 0, 64, 127
2, 262442, Note_on_c, 0, 62, 0
2, 263212, Control_c, 0, 64, 0
2, 263232, Note_on_c, 0, 44, 63
2, 263392, Control_c, 0, 64, 127
2, 263492, Note_on_c, 0, 44, 0
2, 263622, Note_on_c, 0, 76, 0
2, 263662, Note_on_c, 0, 72, 0
2, 263712, Note_on_c, 0, 66, 0
2, 263722, Note_on_c, 0, 68, 0
2, 264172, Control_c, 0, 64, 0
2, 264242, Note_on_c, 0, 54, 52
2, 264242, Note_on_c, 0, 65, 44
2, 264252, Note_on_c, 0, 72, 48
2, 264252, Note_on_c, 0, 68, 52
2, 264252, Note_on_c, 0, 60, 49
2, 264362, Control_c, 0, 64, 127
2, 264602, Note_on_c, 0, 60, 0
2, 264692, Note_on_c, 0, 54, 0
2, 264752, Note_on_c, 0, 72, 0
2, 264872, Note_on_c, 0, 68, 0
2, 264932, Note_on_c, 0, 65, 0
2, 265142, Note_on_c, 0, 54, 53
2, 265312, Control_c, 0, 64, 0
2, 265382, Note_on_c, 0, 54, 0
2, 265482, Control_c, 0, 64, 127
2, 265612, Note_on_c, 0, 44, 50
2, 265722, Note_on_c, 0, 44, 0
2, 266022, Control_c, 0, 64, 0
2, 266142, Note_on_c, 0, 53, 43
2, 266152, Note_on_c, 0, 43, 45
2, 266312, Control_c, 0, 64, 127
2, 266562, Note_on_c, 0, 53, 0
2, 267002, Control_c, 0, 64, 0
2, 267002, Note_on_c, 0, 67, 61
2, 267002, Note_on_c, 0, 59, 72
2, 267002, Note_on_c, 0, 64, 66
2, 267032, Note_on_c, 0, 53, 58
2, 267282, Note_on_c, 0, 53, 0
2, 267292, Control_c, 0, 64, 127
2, 267432, Note_on_c, 0, 43, 0
2, 268152, Control_c, 0, 64, 0
2, 268252, Note_on_c, 0, 37, 81
2, 268402, Control_c, 0, 64, 127
2, 268582, Note_on_c, 0, 37, 0
2, 268702, Note_on_c, 0, 59, 0
2, 268952, Note_on_c, 0, 44, 63
2, 268982, Note_on_c, 0, 64, 0
2, 269222, Note_on_c, 0, 44, 0
2, 269382, Note_on_c, 0, 44, 31
2, 269662, Note_on_c, 0, 67, 0
2, 269852, Note_on_c, 0, 67, 55
2, 269872, Note_on_c, 0, 59, 63
2, 269872, Control_c, 0, 64, 0
2, 269882, Note_on_c, 0, 63, 61
2, 269902, Note_on_c, 0, 53, 56
2, 270152, Control_c, 0, 64, 127
2, 270422, Note_on_c, 0, 44, 0
2, 270452, Note_on_c, 0, 53, 0
2, 270532, Note_on_c, 0, 59, 0
2, 270942, Note_on_c, 0, 67, 0
2, 270992, Note_on_c, 0, 63, 0
2, 271272, Note_on_c, 0, 43, 48
2, 271692, Control_c, 0, 64, 0
2, 271742, Note_on_c, 0, 43, 0
2, 271792, Note_on_c, 0, 36, 45
2, 271832, Note_on_c, 0, 52, 38
2, 271932, Control_c, 0, 64, 127
2, 272022, Note_on_c, 0, 36, 0
2, 272252, Note_on_c, 0, 52, 0
2, 273102, Control_c, 0, 64, 0
2, 273132, Note_on_c, 0, 74, 61
2, 273142, Note_on_c, 0, 70, 51
2, 273162, Note_on_c, 0, 67, 36
2, 273172, Note_on_c, 0, 58, 49
2, 273212, Control_c, 0, 64, 127
2, 273242, Note_on_c, 0, 62, 23
2, 273272, Note_on_c, 0, 64, 19
2, 273492, Note_on_c, 0, 58, 0
2, 273612, Note_on_c, 0, 67, 0
2, 273622, Note_on_c, 0, 64, 0
2, 273652, Note_on_c, 0, 62, 0
2, 274042, Note_on_c, 0, 70, 0
2, 274362, Note_on_c, 0, 74, 0
2, 274482, Note_on_c, 0, 62, 54
2, 274482, Note_on_c, 0, 66, 55
2, 274492, Control_c, 0, 64, 0
2, 274502, Note_on_c, 0, 58, 48
2, 274532, Note_on_c, 0, 50, 48
2, 274702, Note_on_c, 0, 62, 0
2, 274802, Note_on_c, 0, 66, 0
2, 274862, Note_on_c, 0, 50, 0
2, 274952, Note_on_c, 0, 51, 47
2, 275052, Control_c, 0, 64, 127
2, 275202, Note_on_c, 0, 51, 0
2, 275202, Control_c, 0, 64, 0
2, 275272, Note_on_c, 0, 58, 0
2, 275422, Note_on_c, 0, 67, 64
2, 275422, Note_on_c, 0, 64, 60
2, 275432, Note_on_c, 0, 58, 63
2, 275482, Note_on_c, 0, 52, 48
2, 275752, Control_c, 0, 64, 127
2, 276042, Note_on_c, 0, 64, 0
2, 276052, Note_on_c, 0, 67, 0
2, 276352, Note_on_c, 0, 58, 0
2, 276392, Note_on_c, 0, 52, 0
2, 276612, Note_on_c, 0, 74, 75
2, 276852, Note_on_c, 0, 74, 0
2, 276912, Note_on_c, 0, 72, 58
2, 277152, Note_on_c, 0, 72, 0
2, 277162, Control_c, 0, 64, 0
2, 277292, Note_on_c, 0, 74, 76
2, 277302, Note_on_c, 0, 63, 61
2, 277342, Note_on_c, 0, 69, 58
2, 277352, Note_on_c, 0, 62, 57
2, 277572, Control_c, 0, 64, 127
2, 278542, Control_c, 0, 64, 0
2, 278562, Note_on_c, 0, 62, 0
2, 278602, Note_on_c, 0, 60, 61
2, 278822, Control_c, 0, 64, 127
2, 278992, Note_on_c, 0, 60, 0
2, 279932, Note_on_c, 0, 48, 48
2, 280522, Note_on_c, 0, 69, 0
2, 280522, Note_on_c, 0, 63, 0
2, 280952, Note_on_c, 0, 74, 0
2, 281052, Note_on_c, 0, 48, 0
2, 281202, Note_on_c, 0, 41, 49
2, 281242, Control_c, 0, 64, 0
2, 281372, Note_on_c, 0, 57, 17
2, 281382, Control_c, 0, 64, 127
2, 281412, Note_on_c, 0, 41, 0
2, 281622, Note_on_c, 0, 57, 0
2, 282062, Note_on_c, 0, 69, 58
2, 282282, Note_on_c, 0, 69, 0
2, 282552, Control_c, 0, 64, 0
2, 282582, Note_on_c, 0, 57, 63
2, 282592, Note_on_c, 0, 72, 66
2, 282592, Note_on_c, 0, 65, 66
2, 282592, Note_on_c, 0, 69, 58
2, 282592, Note_on_c, 0, 62, 65
2, 282862, Control_c, 0, 64, 127
2, 283172, Note_on_c, 0, 69, 0
2, 283242, Note_on_c, 0, 62, 0
2, 283332, Note_on_c, 0, 65, 0
2, 283362, Note_on_c, 0, 72, 0
2, 283682, Control_c, 0, 64, 0
2, 283702, Note_on_c, 0, 57, 0
2, 283822, Note_on_c, 0, 70, 60
2, 283842, Note_on_c, 0, 65, 54
2, 283842, Note_on_c, 0, 62, 51
2, 283882, Note_on_c, 0, 55, 49
2, 283952, Control_c, 0, 64, 127
2, 284142, Note_on_c, 0, 70, 0
2, 284202, Note_on_c, 0, 65, 0
2, 284212, Note_on_c, 0, 55, 0
2, 284312, Note_on_c, 0, 62, 0
2, 285102, Control_c, 0, 64, 0
2, 285132, Note_on_c, 0, 58, 56
2, 285132, Note_on_c, 0, 65, 54
2, 285162, Note_on_c, 0, 55, 51
2, 285162, Note_on_c, 0, 62, 58
2, 285832, Note_on_c, 0, 53, 80
2, 286042, Note_on_c, 0, 55, 0
2, 286202, Note_on_c, 0, 62, 0
2, 286272, Note_on_c, 0, 58, 0
2, 286282, Note_on_c, 0, 65, 0
2, 286452, Control_c, 0, 64, 127
2, 286452, Note_on_c, 0, 58, 42
2, 286482, Note_on_c, 0, 62, 46
2, 286482, Note_on_c, 0, 55, 46
2, 286722, Note_on_c, 0, 55, 0
2, 286862, Note_on_c, 0, 58, 0
2, 286882, Note_on_c, 0, 62, 0
2, 287012, Control_c, 0, 64, 0
2, 287122, Note_on_c, 0, 67, 81
2, 287392, Control_c, 0, 64, 127
2, 287642, Control_c, 0, 64, 0
2, 287712, Note_on_c, 0, 52, 81
2, 287742, Note_on_c, 0, 67, 0
2, 287752, Note_on_c, 0, 53, 0
2, 288032, Control_c, 0, 64, 127
2, 288252, Control_c, 0, 64, 0
2, 288372, Note_on_c, 0, 69, 72
2, 288382, Note_on_c, 0, 58, 65
2, 288422, Note_on_c, 0, 62, 54
2, 288512, Control_c, 0, 64, 127
2, 288932, Control_c, 0, 64, 0
2, 289012, Note_on_c, 0, 52, 0
2, 289012, Note_on_c, 0, 57, 96
2, 289302, Note_on_c, 0, 62, 0
2, 289472, Note_on_c, 0, 58, 0
2, 289692, Note_on_c, 0, 58, 55
2, 289722, Note_on_c, 0, 62, 57
2, 289902, Control_c, 0, 64, 127
2, 290142, Note_on_c, 0, 62, 0
2, 290222, Note_on_c, 0, 58, 0
2, 290372, Note_on_c, 0, 69, 0
2, 290412, Note_on_c, 0, 62, 43
2, 290412, Note_on_c, 0, 58, 50
2, 291012, Control_c, 0, 64, 0
2, 291052, Note_on_c, 0, 45, 86
2, 291062, Note_on_c, 0, 62, 0
2, 291122, Note_on_c, 0, 58, 0
2, 291682, Note_on_c, 0, 58, 45
2, 291712, Note_on_c, 0, 62, 48
2, 291722, Control_c, 0, 64, 127
2, 292012, Note_on_c, 0, 62, 0
2, 292122, Note_on_c, 0, 58, 0
2, 292352, Note_on_c, 0, 58, 56
2, 292382, Note_on_c, 0, 62, 54
2, 292532, Note_on_c, 0, 57, 0
2, 292622, Note_on_c, 0, 62, 0
2, 292702, Note_on_c, 0, 58, 0
2, 292912, Control_c, 0, 64, 0
2, 292942, Note_on_c, 0, 61, 75
2, 292942, Note_on_c, 0, 58, 72
2, 292952, Note_on_c, 0, 63, 66
2, 293002, Note_on_c, 0, 55, 73
2, 293442, Note_on_c, 0, 58, 0
2, 293462, Note_on_c, 0, 61, 0
2, 293502, Note_on_c, 0, 63, 0
2, 293522, Note_on_c, 0, 69, 1
2, 293602, Note_on_c, 0, 61, 63
2, 293622, Note_on_c, 0, 58, 57
2, 293642, Note_on_c, 0, 63, 48
2, 293962, Note_on_c, 0, 45, 0
2, 294212, Note_on_c, 0, 45, 92
2, 294422, Note_on_c, 0, 58, 0
2, 294552, Note_on_c, 0, 69, 0
2, 294622, Note_on_c, 0, 61, 0
2, 294852, Note_on_c, 0, 61, 49
2, 294862, Note_on_c, 0, 57, 54
2, 295152, Note_on_c, 0, 57, 0
2, 295252, Note_on_c, 0, 61, 0
2, 295292, Note_on_c, 0, 63, 0
2, 295492, Control_c, 0, 64, 127
2, 295492, Note_on_c, 0, 61, 47
2, 295492, Note_on_c, 0, 63, 44
2, 295552, Note_on_c, 0, 57, 41
2, 295832, Note_on_c, 0, 45, 0
2, 295892, Note_on_c, 0, 57, 0
2, 295982, Note_on_c, 0, 63, 0
2, 295992, Note_on_c, 0, 61, 0
2, 296162, Note_on_c, 0, 45, 107
2, 296202, Control_c, 0, 64, 0
2, 296832, Note_on_c, 0, 61, 82
2, 296832, Note_on_c, 0, 67, 81
2, 296842, Note_on_c, 0, 57, 84
2, 296852, Note_on_c, 0, 63, 64
2, 296902, Note_on_c, 0, 55, 0
2, 296922, Note_on_c, 0, 45, 0
2, 297052, Control_c, 0, 64, 127
2, 297082, Note_on_c, 0, 57, 0
2, 297142, Note_on_c, 0, 63, 0
2, 297152, Note_on_c, 0, 67, 0
2, 297182, Note_on_c, 0, 61, 0
2, 297432, Note_on_c, 0, 61, 80
2, 297442, Note_on_c, 0, 67, 72
2, 297452, Note_on_c, 0, 57, 71
2, 297462, Note_on_c, 0, 63, 61
2, 297642, Note_on_c, 0, 57, 0
2, 297762, Note_on_c, 0, 67, 0
2, 297832, Note_on_c, 0, 63, 0
2, 297852, Note_on_c, 0, 61, 0
2, 298002, Control_c, 0, 64, 0
2, 298022, Note_on_c, 0, 38, 76
2, 298052, Note_on_c, 0, 53, 79
2, 298702, Note_on_c, 0, 69, 67
2, 298722, Note_on_c, 0, 60, 57
2, 298722, Note_on_c, 0, 64, 64
2, 298722, Note_on_c, 0, 65, 72
2, 298742, Control_c, 0, 64, 127
2, 298882, Note_on_c, 0, 60, 0
2, 298992, Note_on_c, 0, 69, 0
2, 299002, Note_on_c, 0, 64, 0
2, 299002, Note_on_c, 0, 38, 0
2, 299002, Note_on_c, 0, 65, 0
2, 299192, Note_on_c, 0, 53, 0
2, 299332, Note_on_c, 0, 69, 79
2, 299342, Note_on_c, 0, 64, 77
2, 299352, Note_on_c, 0, 60, 68
2, 299382, Note_on_c, 0, 65, 57
2, 299412, Note_on_c, 0, 60, 0
2, 299452, Note_on_c, 0, 65, 0
2, 299482, Note_on_c, 0, 64, 0
2, 299542, Note_on_c, 0, 69, 0
2, 299962, Control_c, 0, 64, 0
2, 299982, Note_on_c, 0, 76, 98
2, 299982, Note_on_c, 0, 69, 96
2, 299982, Note_on_c, 0, 64, 98
2, 299982, Note_on_c, 0, 72, 81
2, 299982, Note_on_c, 0, 65, 96
2, 300082, Note_on_c, 0, 74, 37
2, 300172, Note_on_c, 0, 74, 0
2, 300332, Control_c, 0, 64, 127
2, 300432, Note_on_c, 0, 76, 0
2, 300472, Note_on_c, 0, 65, 0
2, 300532, Note_on_c, 0, 64, 0
2, 300542, Note_on_c, 0, 69, 0
2, 300552, Note_on_c, 0, 72, 0
2, 300642, Note_on_c, 0, 76, 71
2, 300642, Note_on_c, 0, 64, 66
2, 300662, Note_on_c, 0, 69, 78
2, 300662, Note_on_c, 0, 72, 60
2, 300672, Note_on_c, 0, 65, 67
2, 300952, Note_on_c, 0, 64, 0
2, 301062, Note_on_c, 0, 65, 0
2, 301142, Note_on_c, 0, 76, 0
2, 301142, Note_on_c, 0, 69, 0
2, 301182, Note_on_c, 0, 72, 0
2, 301282, Note_on_c, 0, 65, 59
2, 301302, Note_on_c, 0, 69, 56
2, 301302, Note_on_c, 0, 74, 70
2, 301372, Note_on_c, 0, 72, 39
2, 301472, Note_on_c, 0, 72, 0
2, 301562, Note_on_c, 0, 65, 0
2, 301592, Note_on_c, 0, 69, 0
2, 301692, Note_on_c, 0, 74, 0
2, 301822, Control_c, 0, 64, 0
2, 301892, Note_on_c, 0, 76, 68
2, 301892, Note_on_c, 0, 69, 60
2, 301902, Control_c, 0, 64, 127
2, 301912, Note_on_c, 0, 72, 56
2, 301912, Note_on_c, 0, 62, 48
2, 301922, Note_on_c, 0, 65, 56
2, 302272, Note_on_c, 0, 65, 0
2, 302292, Note_on_c, 0, 72, 0
2, 302352, Note_on_c, 0, 62, 0
2, 302352, Note_on_c, 0, 76, 0
2, 302382, Note_on_c, 0, 69, 0
2, 302532, Note_on_c, 0, 74, 67
2, 302692, Note_on_c, 0, 74, 0
2, 302992, Control_c, 0, 64, 0
2, 303102, Note_on_c, 0, 79, 61
2, 303112, Note_on_c, 0, 74, 58
2, 303132, Note_on_c, 0, 67, 39
2, 303142, Note_on_c, 0, 62, 41
2, 303152, Note_on_c, 0, 58, 43
2, 303162, Note_on_c, 0, 52, 41
2, 303282, Control_c, 0, 64, 127
2, 303552, Note_on_c, 0, 52, 0
2, 303572, Note_on_c, 0, 58, 0
2, 303652, Note_on_c, 0, 67, 0
2, 303772, Note_on_c, 0, 62, 0
2, 304052, Note_on_c, 0, 74, 0
2, 304132, Note_on_c, 0, 79, 0
2, 304422, Note_on_c, 0, 56, 63
2, 304432, Note_on_c, 0, 67, 57
2, 304442, Note_on_c, 0, 62, 60
2, 304502, Control_c, 0, 64, 0
2, 304862, Control_c, 0, 64, 127
2, 304882, Note_on_c, 0, 84, 122
2, 305042, Note_on_c, 0, 67, 0
2, 305132, Note_on_c, 0, 62, 0
2, 305202, Note_on_c, 0, 84, 0
2, 305322, Note_on_c, 0, 82, 88
2, 305332, Note_on_c, 0, 56, 0
2, 305662, Control_c, 0, 64, 0
2, 305722, Note_on_c, 0, 82, 0
2, 305732, Note_on_c, 0, 66, 52
2, 305732, Note_on_c, 0, 55, 55
2, 305742, Note_on_c, 0, 61, 49
2, 305752, Note_on_c, 0, 78, 68
2, 305942, Note_on_c, 0, 66, 0
2, 306062, Note_on_c, 0, 55, 0
2, 306062, Note_on_c, 0, 61, 0
2, 306132, Note_on_c, 0, 78, 0
2, 306132, Note_on_c, 0, 77, 63
2, 306272, Control_c, 0, 64, 127
2, 306322, Note_on_c, 0, 77, 0
2, 306512, Note_on_c, 0, 75, 79
2, 306762, Note_on_c, 0, 75, 0
2, 306862, Control_c, 0, 64, 0
2, 306962, Note_on_c, 0, 76, 69
2, 306962, Note_on_c, 0, 45, 43
2, 306982, Note_on_c, 0, 55, 42
2, 307262, Note_on_c, 0, 76, 0
2, 307322, Note_on_c, 0, 73, 71
2, 307412, Note_on_c, 0, 45, 0
2, 307492, Control_c, 0, 64, 127
2, 307582, Note_on_c, 0, 73, 0
2, 307652, Note_on_c, 0, 72, 66
2, 307682, Note_on_c, 0, 55, 0
2, 307852, Note_on_c, 0, 72, 0
2, 308012, Note_on_c, 0, 70, 68
2, 308112, Control_c, 0, 64, 0
2, 308192, Note_on_c, 0, 50, 39
2, 308212, Note_on_c, 0, 57, 38
2, 308302, Note_on_c, 0, 70, 0
2, 308392, Note_on_c, 0, 69, 59
2, 308652, Note_on_c, 0, 69, 0
2, 308712, Note_on_c, 0, 67, 63
2, 308952, Note_on_c, 0, 67, 0
2, 308982, Note_on_c, 0, 65, 52
2, 309002, Control_c, 0, 64, 127
2, 309242, Note_on_c, 0, 65, 0
2, 309282, Note_on_c, 0, 64, 47
2, 309312, Control_c, 0, 64, 0
2, 309422, Note_on_c, 0, 60, 49
2, 309452, Note_on_c, 0, 64, 0
2, 309502, Note_on_c, 0, 67, 72
2, 309672, Note_on_c, 0, 60, 0
2, 309832, Note_on_c, 0, 67, 0
2, 309832, Control_c, 0, 64, 127
2, 309892, Note_on_c, 0, 64, 35
2, 310002, Note_on_c, 0, 64, 0
2, 310112, Note_on_c, 0, 65, 60
2, 310122, Note_on_c, 0, 50, 0
2, 310162, Note_on_c, 0, 57, 0
2, 310492, Note_on_c, 0, 62, 54
2, 310632, Note_on_c, 0, 65, 0
2, 310652, Control_c, 0, 64, 0
2, 310732, Note_on_c, 0, 62, 0
2, 310752, Note_on_c, 0, 50, 44
2, 310792, Note_on_c, 0, 57, 49
2, 310892, Note_on_c, 0, 66, 15
2, 310962, Control_c, 0, 64, 127
2, 311082, Note_on_c, 0, 57, 0
2, 311252, Note_on_c, 0, 57, 49
2, 311412, Note_on_c, 0, 57, 0
2, 311612, Note_on_c, 0, 57, 60
2, 311802, Note_on_c, 0, 57, 0
2, 312022, Note_on_c, 0, 50, 0
2, 312022, Note_on_c, 0, 57, 60
2, 312442, Note_on_c, 0, 66, 0
2, 312522, Note_on_c, 0, 50, 54
2, 312612, Note_on_c, 0, 50, 0
2, 312732, Note_on_c, 0, 57, 0
2, 312892, Note_on_c, 0, 50, 48
2, 313002, Note_on_c, 0, 50, 0
2, 313302, Control_c, 0, 64, 0
2, 313352, Note_on_c, 0, 46, 57
2, 313352, Note_on_c, 0, 67, 48
2, 313372, Note_on_c, 0, 64, 48
2, 313372, Note_on_c, 0, 60, 35
2, 313372, Note_on_c, 0, 56, 47
2, 313682, Control_c, 0, 64, 127
2, 313812, Note_on_c, 0, 60, 0
2, 313882, Note_on_c, 0, 64, 0
2, 313892, Note_on_c, 0, 46, 0
2, 313902, Note_on_c, 0, 67, 0
2, 314152, Note_on_c, 0, 56, 0
2, 314612, Control_c, 0, 64, 0
2, 314702, Note_on_c, 0, 72, 62
2, 314712, Note_on_c, 0, 56, 52
2, 314712, Note_on_c, 0, 67, 56
2, 314712, Note_on_c, 0, 64, 52
2, 314792, Note_on_c, 0, 64, 0
2, 314792, Note_on_c, 0, 67, 0
2, 314802, Note_on_c, 0, 72, 0
2, 314962, Note_on_c, 0, 56, 0
2, 315122, Note_on_c, 0, 46, 54
2, 315222, Note_on_c, 0, 46, 0
2, 315552, Note_on_c, 0, 61, 72
2, 315552, Note_on_c, 0, 70, 70
2, 315572, Note_on_c, 0, 66, 62
2, 315632, Note_on_c, 0, 55, 63
2, 315662, Note_on_c, 0, 45, 48
2, 315852, Control_c, 0, 64, 127
2, 316172, Note_on_c, 0, 70, 0
2, 316182, Note_on_c, 0, 66, 0
2, 316212, Note_on_c, 0, 61, 0
2, 316302, Note_on_c, 0, 55, 0
2, 316372, Control_c, 0, 64, 0
2, 316442, Note_on_c, 0, 69, 68
2, 316492, Note_on_c, 0, 61, 55
2, 316492, Note_on_c, 0, 58, 52
2, 316512, Note_on_c, 0, 55, 57
2, 316522, Note_on_c, 0, 64, 49
2, 316732, Control_c, 0, 64, 127
2, 317132, Note_on_c, 0, 64, 0
2, 317132, Note_on_c, 0, 61, 0
2, 317132, Note_on_c, 0, 58, 0
2, 317192, Note_on_c, 0, 69, 0
2, 317272, Control_c, 0, 64, 0
2, 317322, Note_on_c, 0, 58, 69
2, 317352, Note_on_c, 0, 45, 0
2, 317362, Note_on_c, 0, 61, 49
2, 317382, Note_on_c, 0, 55, 0
2, 317422, Note_on_c, 0, 67, 43
2, 317432, Note_on_c, 0, 61, 0
2, 317432, Note_on_c, 0, 52, 22
2, 317442, Note_on_c, 0, 58, 0
2, 317512, Note_on_c, 0, 67, 0
2, 317582, Note_on_c, 0, 52, 0
2, 317702, Note_on_c, 0, 49, 67
2, 317882, Note_on_c, 0, 49, 0
2, 318132, Note_on_c, 0, 57, 73
2, 318132, Note_on_c, 0, 65, 63
2, 318142, Note_on_c, 0, 62, 67
2, 318172, Note_on_c, 0, 50, 72
2, 318212, Control_c, 0, 64, 127
2, 318582, Note_on_c, 0, 57, 0
2, 318752, Note_on_c, 0, 62, 0
2, 318812, Note_on_c, 0, 65, 0
2, 319232, Note_on_c, 0, 50, 0
2, 319282, Note_on_c, 0, 38, 81
2, 319512, Note_on_c, 0, 38, 0
2, 319702, Control_c, 0, 64, 0
2, 319822, Note_on_c, 0, 74, 68
2, 319832, Note_on_c, 0, 65, 54
2, 319852, Note_on_c, 0, 69, 56
2, 319892, Note_on_c, 0, 74, 0
2, 319902, Note_on_c, 0, 65, 0
2, 319912, Note_on_c, 0, 69, 0
2, 320232, Note_on_c, 0, 65, 60
2, 320252, Note_on_c, 0, 74, 52
2, 320252, Note_on_c, 0, 69, 52
2, 320302, Note_on_c, 0, 65, 0
2, 320312, Note_on_c, 0, 69, 0
2, 320312, Note_on_c, 0, 74, 0
2, 320692, Note_on_c, 0, 72, 64
2, 320692, Note_on_c, 0, 64, 68
2, 320692, Note_on_c, 0, 65, 59
2, 320762, Note_on_c, 0, 65, 0
2, 320762, Note_on_c, 0, 69, 31
2, 320842, Note_on_c, 0, 69, 0
2, 320852, Note_on_c, 0, 72, 0
2, 321552, Note_on_c, 0, 74, 77
2, 321572, Note_on_c, 0, 65, 68
2, 321602, Note_on_c, 0, 64, 0
2, 321602, Note_on_c, 0, 69, 61
2, 321602, Note_on_c, 0, 62, 56
2, 321682, Note_on_c, 0, 69, 0
2, 321732, Note_on_c, 0, 65, 0
2, 321932, Note_on_c, 0, 65, 13
2, 322082, Note_on_c, 0, 65, 0
2, 322122, Note_on_c, 0, 74, 0
2, 322372, Note_on_c, 0, 76, 79
2, 322382, Note_on_c, 0, 65, 68
2, 322392, Note_on_c, 0, 69, 64
2, 322412, Note_on_c, 0, 62, 0
2, 322412, Note_on_c, 0, 61, 58
2, 322512, Control_c, 0, 64, 127
2, 322852, Note_on_c, 0, 76, 0
2, 322952, Note_on_c, 0, 65, 0
2, 322992, Note_on_c, 0, 69, 0
2, 323162, Note_on_c, 0, 61, 0
2, 323292, Note_on_c, 0, 77, 73
2, 323312, Note_on_c, 0, 73, 47
2, 323352, Note_on_c, 0, 61, 43
2, 323352, Note_on_c, 0, 70, 31
2, 323362, Note_on_c, 0, 69, 38
2, 323372, Note_on_c, 0, 71, 36
2, 323382, Note_on_c, 0, 65, 44
2, 323402, Note_on_c, 0, 67, 39
2, 323472, Note_on_c, 0, 71, 0
2, 323502, Note_on_c, 0, 67, 0
2, 323542, Note_on_c, 0, 69, 0
2, 323552, Note_on_c, 0, 70, 0
2, 323622, Note_on_c, 0, 65, 0
2, 323762, Note_on_c, 0, 61, 0
2, 323782, Note_on_c, 0, 77, 0
2, 323792, Note_on_c, 0, 73, 0
2, 324332, Control_c, 0, 64, 0
2, 324342, Note_on_c, 0, 68, 57
2, 324342, Note_on_c, 0, 75, 61
2, 324342, Note_on_c, 0, 80, 60
2, 324572, Note_on_c, 0, 68, 0
2, 324652, Note_on_c, 0, 80, 0
2, 324652, Note_on_c, 0, 75, 0
2, 324672, Control_c, 0, 64, 127
2, 324772, Note_on_c, 0, 69, 64
2, 324782, Note_on_c, 0, 81, 63
2, 324842, Note_on_c, 0, 57, 41
2, 324882, Note_on_c, 0, 76, 36
2, 324952, Note_on_c, 0, 69, 0
2, 324972, Control_c, 0, 64, 0
2, 325002, Note_on_c, 0, 81, 0
2, 325022, Note_on_c, 0, 76, 0
2, 325052, Note_on_c, 0, 57, 0
2, 325252, Note_on_c, 0, 76, 59
2, 325262, Note_on_c, 0, 83, 70
2, 325292, Note_on_c, 0, 71, 49
2, 325312, Note_on_c, 0, 50, 51
2, 325392, Control_c, 0, 64, 127
2, 325582, Note_on_c, 0, 71, 0
2, 325632, Note_on_c, 0, 76, 0
2, 325712, Note_on_c, 0, 83, 0
2, 326492, Control_c, 0, 64, 0
2, 326572, Note_on_c, 0, 84, 66
2, 326592, Note_on_c, 0, 79, 62
2, 326612, Note_on_c, 0, 62, 43
2, 326622, Note_on_c, 0, 72, 47
2, 326642, Note_on_c, 0, 57, 40
2, 326652, Control_c, 0, 64, 127
2, 326762, Note_on_c, 0, 62, 0
2, 326822, Note_on_c, 0, 50, 0
2, 327182, Note_on_c, 0, 72, 0
2, 327242, Note_on_c, 0, 84, 0
2, 327322, Note_on_c, 0, 79, 0
2, 327792, Control_c, 0, 64, 0
2, 327892, Note_on_c, 0, 48, 50
2, 328012, Control_c, 0, 64, 127
2, 328192, Note_on_c, 0, 57, 0
2, 328352, Note_on_c, 0, 48, 0
2, 328982, Control_c, 0, 64, 0
2, 329152, Note_on_c, 0, 47, 51
2, 329152, Note_on_c, 0, 89, 67
2, 329202, Control_c, 0, 64, 127
2, 329262, Note_on_c, 0, 47, 0
2, 329502, Note_on_c, 0, 89, 0
2, 330402, Note_on_c, 0, 67, 51
2, 330402, Control_c, 0, 64, 0
2, 330402, Note_on_c, 0, 63, 41
2, 330452, Note_on_c, 0, 62, 31
2, 330502, Note_on_c, 0, 57, 33
2, 330822, Note_on_c, 0, 77, 63
2, 330832, Note_on_c, 0, 74, 63
2, 331022, Note_on_c, 0, 77, 0
2, 331042, Note_on_c, 0, 74, 0
2, 331062, Note_on_c, 0, 67, 0
2, 331062, Note_on_c, 0, 63, 0
2, 331072, Control_c, 0, 64, 127
2, 331202, Note_on_c, 0, 72, 36
2, 331212, Note_on_c, 0, 76, 53
2, 331372, Control_c, 0, 64, 0
2, 331412, Note_on_c, 0, 72, 0
2, 331432, Note_on_c, 0, 76, 0
2, 331572, Note_on_c, 0, 67, 40
2, 331602, Note_on_c, 0, 77, 63
2, 331602, Note_on_c, 0, 74, 61
2, 331612, Note_on_c, 0, 63, 39
2, 331652, Control_c, 0, 64, 127
2, 331832, Note_on_c, 0, 74, 0
2, 331862, Note_on_c, 0, 77, 0
2, 331972, Note_on_c, 0, 63, 0
2, 331992, Note_on_c, 0, 67, 0
2, 332422, Note_on_c, 0, 83, 85
2, 332812, Note_on_c, 0, 83, 0
2, 332902, Note_on_c, 0, 67, 38
2, 332912, Note_on_c, 0, 79, 63
2, 332912, Note_on_c, 0, 63, 38
2, 333042, Note_on_c, 0, 67, 0
2, 333052, Note_on_c, 0, 57, 0
2, 333152, Note_on_c, 0, 79, 0
2, 333212, Note_on_c, 0, 63, 0
2, 333282, Note_on_c, 0, 74, 55
2, 333352, Note_on_c, 0, 62, 0
2, 333372, Note_on_c, 0, 74, 0
2, 333772, Note_on_c, 0, 57, 30
2, 333792, Note_on_c, 0, 63, 24
2, 333872, Note_on_c, 0, 57, 0
2, 333952, Note_on_c, 0, 63, 0
2, 334032, Control_c, 0, 64, 0
2, 334222, Note_on_c, 0, 56, 58
2, 334642, Note_on_c, 0, 72, 41
2, 334652, Note_on_c, 0, 76, 50
2, 334672, Note_on_c, 0, 71, 42
2, 334752, Note_on_c, 0, 71, 0
2, 334792, Note_on_c, 0, 72, 0
2, 334902, Note_on_c, 0, 76, 0
2, 335032, Control_c, 0, 64, 127
2, 335102, Note_on_c, 0, 67, 22
2, 335202, Note_on_c, 0, 67, 0
2, 335212, Control_c, 0, 64, 0
2, 335492, Note_on_c, 0, 67, 58
2, 335512, Note_on_c, 0, 68, 50
2, 335522, Note_on_c, 0, 79, 57
2, 335522, Note_on_c, 0, 78, 22
2, 335522, Note_on_c, 0, 72, 54
2, 335662, Note_on_c, 0, 68, 0
2, 335682, Note_on_c, 0, 67, 0
2, 335722, Note_on_c, 0, 79, 0
2, 335722, Note_on_c, 0, 72, 0
2, 335782, Note_on_c, 0, 78, 0
2, 335842, Note_on_c, 0, 56, 0
2, 336372, Note_on_c, 0, 68, 71
2, 336382, Note_on_c, 0, 76, 74
2, 336392, Note_on_c, 0, 56, 52
2, 336392, Note_on_c, 0, 65, 66
2, 336432, Note_on_c, 0, 64, 46
2, 336432, Note_on_c, 0, 71, 50
2, 336922, Note_on_c, 0, 76, 0
2, 336972, Control_c, 0, 64, 127
2, 337002, Note_on_c, 0, 71, 0
2, 337042, Note_on_c, 0, 65, 0
2, 337062, Note_on_c, 0, 68, 0
2, 337072, Note_on_c, 0, 64, 0
2, 337242, Note_on_c, 0, 65, 57
2, 337242, Note_on_c, 0, 68, 56
2, 337262, Note_on_c, 0, 74, 58
2, 337312, Note_on_c, 0, 73, 48
2, 337312, Note_on_c, 0, 62, 45
2, 337322, Note_on_c, 0, 71, 39
2, 337442, Note_on_c, 0, 71, 0
2, 337452, Note_on_c, 0, 73, 0
2, 337472, Note_on_c, 0, 62, 0
2, 337542, Note_on_c, 0, 56, 0
2, 337542, Note_on_c, 0, 74, 0
2, 337562, Note_on_c, 0, 68, 0
2, 337572, Note_on_c, 0, 65, 0
2, 337982, Control_c, 0, 64, 88
2, 337992, Control_c, 0, 64, 0
2, 338122, Control_c, 0, 64, 127
2, 338162, Note_on_c, 0, 65, 37
2, 338352, Note_on_c, 0, 65, 0
2, 338942, Control_c, 0, 64, 0
2, 338982, Note_on_c, 0, 61, 52
2, 339022, Note_on_c, 0, 64, 50
2, 339032, Note_on_c, 0, 45, 43
2, 339032, Note_on_c, 0, 55, 42
2, 339332, Control_c, 0, 64, 127
2, 339412, Note_on_c, 0, 45, 0
2, 339412, Note_on_c, 0, 61, 0
2, 339452, Note_on_c, 0, 64, 0
2, 339582, Note_on_c, 0, 55, 0
2, 340512, Note_on_c, 0, 65, 82
2, 340522, Note_on_c, 0, 69, 68
2, 340522, Note_on_c, 0, 66, 78
2, 340532, Note_on_c, 0, 77, 74
2, 340552, Note_on_c, 0, 72, 56
2, 340572, Control_c, 0, 64, 0
2, 340612, Note_on_c, 0, 75, 39
2, 341032, Control_c, 0, 64, 127
2, 341192, Note_on_c, 0, 77, 0
2, 341252, Note_on_c, 0, 75, 0
2, 341322, Note_on_c, 0, 72, 0
2, 341352, Note_on_c, 0, 66, 0
2, 341362, Note_on_c, 0, 69, 0
2, 341382, Control_c, 0, 64, 0
2, 341422, Note_on_c, 0, 65, 0
2, 341452, Note_on_c, 0, 75, 61
2, 341452, Note_on_c, 0, 66, 48
2, 341492, Note_on_c, 0, 63, 57
2, 341612, Note_on_c, 0, 75, 0
2, 341652, Note_on_c, 0, 63, 0
2, 341692, Note_on_c, 0, 66, 0
2, 341802, Control_c, 0, 64, 127
2, 341952, Note_on_c, 0, 57, 39
2, 342072, Note_on_c, 0, 57, 0
2, 342162, Control_c, 0, 64, 0
2, 342332, Note_on_c, 0, 72, 60
2, 342362, Note_on_c, 0, 61, 57
2, 342372, Note_on_c, 0, 64, 60
2, 342382, Note_on_c, 0, 60, 51
2, 342552, Control_c, 0, 64, 127
2, 342922, Note_on_c, 0, 60, 0
2, 342972, Note_on_c, 0, 72, 0
2, 342992, Note_on_c, 0, 61, 0
2, 343062, Note_on_c, 0, 64, 0
2, 343182, Note_on_c, 0, 61, 56
2, 343222, Note_on_c, 0, 70, 55
2, 343222, Note_on_c, 0, 57, 39
2, 343232, Note_on_c, 0, 64, 57
2, 343302, Note_on_c, 0, 64, 0
2, 343312, Note_on_c, 0, 70, 0
2, 343492, Note_on_c, 0, 61, 0
2, 343702, Note_on_c, 0, 57, 0
2, 343972, Note_on_c, 0, 58, 52
2, 343992, Note_on_c, 0, 61, 48
2, 344012, Note_on_c, 0, 64, 48
2, 344072, Note_on_c, 0, 52, 29
2, 344092, Note_on_c, 0, 61, 0
2, 344112, Note_on_c, 0, 58, 0
2, 344112, Note_on_c, 0, 64, 0
2, 344112, Control_c, 0, 64, 0
2, 344322, Note_on_c, 0, 52, 0
2, 344362, Note_on_c, 0, 49, 54
2, 344402, Control_c, 0, 64, 127
2, 344442, Note_on_c, 0, 49, 0
2, 344782, Control_c, 0, 64, 0
2, 344872, Note_on_c, 0, 62, 39
2, 344882, Note_on_c, 0, 50, 43
2, 345002, Note_on_c, 0, 62, 0
2, 345122, Control_c, 0, 64, 127
2, 345372, Note_on_c, 0, 50, 0
2, 345402, Note_on_c, 0, 38, 70
2, 345482, Note_on_c, 0, 38, 0
2, 346352, Note_on_c, 0, 66, 63
2, 346352, Note_on_c, 0, 76, 63
2, 346362, Note_on_c, 0, 60, 61
2, 346362, Note_on_c, 0, 68, 60
2, 346382, Control_c, 0, 64, 0
2, 346392, Note_on_c, 0, 72, 57
2, 346622, Control_c, 0, 64, 127
2, 347072, Note_on_c, 0, 72, 0
2, 347402, Note_on_c, 0, 76, 0
2, 347432, Note_on_c, 0, 68, 0
2, 347442, Note_on_c, 0, 66, 0
2, 347502, Note_on_c, 0, 60, 0
2, 347682, Control_c, 0, 64, 0
2, 347762, Note_on_c, 0, 65, 48
2, 347772, Note_on_c, 0, 74, 63
2, 347772, Note_on_c, 0, 68, 45
2, 347782, Note_on_c, 0, 60, 38
2, 347802, Note_on_c, 0, 71, 56
2, 347832, Note_on_c, 0, 50, 45
2, 347972, Control_c, 0, 64, 127
2, 348162, Note_on_c, 0, 74, 0
2, 348222, Note_on_c, 0, 71, 0
2, 348322, Note_on_c, 0, 60, 0
2, 348322, Note_on_c, 0, 68, 0
2, 348332, Note_on_c, 0, 65, 0
2, 348452, Note_on_c, 0, 50, 0
2, 348972, Control_c, 0, 64, 0
2, 349042, Note_on_c, 0, 68, 56
2, 349052, Note_on_c, 0, 65, 53
2, 349062, Note_on_c, 0, 44, 45
2, 349062, Note_on_c, 0, 54, 42
2, 349062, Note_on_c, 0, 60, 48
2, 349212, Control_c, 0, 64, 127
2, 349622, Note_on_c, 0, 54, 0
2, 349832, Note_on_c, 0, 44, 0
2, 349912, Note_on_c, 0, 65, 0
2, 349962, Note_on_c, 0, 60, 0
2, 349992, Note_on_c, 0, 50, 46
2, 350222, Control_c, 0, 64, 0
2, 350412, Note_on_c, 0, 50, 0
2, 350432, Note_on_c, 0, 64, 55
2, 350432, Note_on_c, 0, 59, 54
2, 350452, Note_on_c, 0, 43, 48
2, 350452, Note_on_c, 0, 53, 52
2, 350722, Control_c, 0, 64, 127
2, 350852, Note_on_c, 0, 53, 0
2, 351052, Note_on_c, 0, 64, 0
2, 351072, Note_on_c, 0, 59, 0
2, 351292, Note_on_c, 0, 63, 70
2, 351292, Note_on_c, 0, 54, 60
2, 351292, Note_on_c, 0, 59, 59
2, 351632, Control_c, 0, 64, 0
2, 351652, Note_on_c, 0, 54, 0
2, 351662, Note_on_c, 0, 59, 0
2, 351792, Note_on_c, 0, 63, 0
2, 351832, Note_on_c, 0, 62, 72
2, 351832, Note_on_c, 0, 59, 57
2, 351842, Note_on_c, 0, 53, 58
2, 351882, Control_c, 0, 64, 127
2, 351992, Note_on_c, 0, 43, 0
2, 352012, Note_on_c, 0, 59, 0
2, 352142, Note_on_c, 0, 68, 0
2, 352152, Note_on_c, 0, 62, 0
2, 352512, Note_on_c, 0, 53, 0
2, 352632, Note_on_c, 0, 43, 59
2, 352692, Note_on_c, 0, 43, 0
2, 353022, Control_c, 0, 64, 0
2, 353092, Note_on_c, 0, 76, 75
2, 353102, Note_on_c, 0, 69, 78
2, 353162, Note_on_c, 0, 64, 54
2, 353212, Note_on_c, 0, 53, 39
2, 353252, Note_on_c, 0, 59, 31
2, 353302, Note_on_c, 0, 69, 0
2, 353322, Note_on_c, 0, 76, 0
2, 353502, Note_on_c, 0, 76, 59
2, 353502, Note_on_c, 0, 69, 61
2, 353552, Control_c, 0, 64, 127
2, 353622, Note_on_c, 0, 64, 0
2, 353752, Note_on_c, 0, 59, 0
2, 353762, Note_on_c, 0, 69, 0
2, 353782, Note_on_c, 0, 76, 0
2, 353862, Note_on_c, 0, 73, 57
2, 353862, Note_on_c, 0, 65, 60
2, 354072, Note_on_c, 0, 73, 0
2, 354092, Note_on_c, 0, 65, 0
2, 354182, Note_on_c, 0, 53, 0
2, 354222, Control_c, 0, 64, 0
2, 354332, Note_on_c, 0, 64, 51
2, 354342, Note_on_c, 0, 76, 69
2, 354352, Note_on_c, 0, 69, 63
2, 354362, Note_on_c, 0, 59, 43
2, 354392, Note_on_c, 0, 53, 35
2, 354422, Note_on_c, 0, 65, 42
2, 354442, Note_on_c, 0, 64, 0
2, 354452, Note_on_c, 0, 59, 0
2, 354512, Note_on_c, 0, 65, 0
2, 354522, Control_c, 0, 64, 127
2, 354562, Note_on_c, 0, 76, 0
2, 354582, Note_on_c, 0, 69, 0
2, 354622, Note_on_c, 0, 53, 0
2, 354752, Note_on_c, 0, 76, 64
2, 354792, Note_on_c, 0, 69, 40
2, 355002, Note_on_c, 0, 69, 0
2, 355022, Note_on_c, 0, 76, 0
2, 355162, Note_on_c, 0, 73, 50
2, 355252, Note_on_c, 0, 73, 0
2, 355522, Note_on_c, 0, 36, 45
2, 355572, Control_c, 0, 64, 0
2, 355612, Note_on_c, 0, 74, 58
2, 355612, Note_on_c, 0, 70, 36
2, 355642, Note_on_c, 0, 52, 45
2, 355672, Note_on_c, 0, 62, 31
2, 355672, Note_on_c, 0, 64, 31
2, 355682, Note_on_c, 0, 66, 38
2, 355752, Note_on_c, 0, 36, 0
2, 355802, Note_on_c, 0, 66, 0
2, 355812, Note_on_c, 0, 64, 0
2, 355822, Note_on_c, 0, 62, 0
2, 355852, Note_on_c, 0, 70, 0
2, 355882, Note_on_c, 0, 74, 0
2, 355892, Note_on_c, 0, 52, 0
2, 355892, Control_c, 0, 64, 127
2, 356052, Note_on_c, 0, 74, 69
2, 356292, Note_on_c, 0, 74, 0
2, 356432, Note_on_c, 0, 69, 45
2, 356672, Note_on_c, 0, 69, 0
2, 356832, Control_c, 0, 64, 0
2, 356852, Note_on_c, 0, 66, 45
2, 356852, Note_on_c, 0, 74, 59
2, 356882, Note_on_c, 0, 62, 49
2, 356882, Note_on_c, 0, 60, 45
2, 356932, Note_on_c, 0, 58, 35
2, 356962, Note_on_c, 0, 60, 0
2, 356962, Note_on_c, 0, 55, 24
2, 357022, Note_on_c, 0, 62, 0
2, 357032, Note_on_c, 0, 58, 0
2, 357042, Note_on_c, 0, 74, 0
2, 357062, Note_on_c, 0, 66, 0
2, 357062, Note_on_c, 0, 55, 0
2, 357252, Note_on_c, 0, 74, 54
2, 357262, Note_on_c, 0, 66, 51
2, 357282, Note_on_c, 0, 62, 48
2, 357322, Control_c, 0, 64, 127
2, 357402, Note_on_c, 0, 62, 0
2, 357422, Note_on_c, 0, 66, 0
2, 357532, Note_on_c, 0, 74, 0
2, 357692, Note_on_c, 0, 69, 43
2, 357882, Note_on_c, 0, 69, 0
2, 357972, Control_c, 0, 64, 0
2, 358072, Note_on_c, 0, 66, 56
2, 358082, Note_on_c, 0, 48, 57
2, 358102, Note_on_c, 0, 62, 56
2, 358112, Note_on_c, 0, 74, 54
2, 358122, Note_on_c, 0, 58, 43
2, 358342, Note_on_c, 0, 62, 0
2, 358342, Note_on_c, 0, 48, 0
2, 358372, Note_on_c, 0, 66, 0
2, 358382, Note_on_c, 0, 74, 0
2, 358522, Note_on_c, 0, 50, 49
2, 358622, Note_on_c, 0, 58, 0
2, 358742, Note_on_c, 0, 50, 0
2, 358852, Control_c, 0, 64, 127
2, 358942, Note_on_c, 0, 58, 65
2, 358962, Note_on_c, 0, 51, 61
2, 359012, Control_c, 0, 64, 0
2, 359272, Note_on_c, 0, 58, 0
2, 359382, Note_on_c, 0, 66, 66
2, 359402, Note_on_c, 0, 58, 27
2, 359412, Note_on_c, 0, 62, 55
2, 359432, Note_on_c, 0, 51, 0
2, 359472, Note_on_c, 0, 52, 57
2, 359512, Control_c, 0, 64, 127
2, 359832, Note_on_c, 0, 58, 0
2, 359902, Note_on_c, 0, 52, 0
2, 360002, Note_on_c, 0, 66, 0
2, 360032, Note_on_c, 0, 62, 0
2, 360242, Note_on_c, 0, 52, 52
2, 360532, Note_on_c, 0, 52, 0
2, 360532, Control_c, 0, 64, 0
2, 360662, Note_on_c, 0, 65, 58
2, 360662, Note_on_c, 0, 62, 66
2, 360702, Note_on_c, 0, 53, 61
2, 360832, Control_c, 0, 64, 127
2, 360982, Note_on_c, 0, 65, 0
2, 361012, Note_on_c, 0, 62, 0
2, 361062, Note_on_c, 0, 53, 0
2, 361142, Note_on_c, 0, 41, 75
2, 361262, Note_on_c, 0, 41, 0
2, 362082, Note_on_c, 0, 86, 115
2, 362092, Note_on_c, 0, 74, 102
2, 362092, Note_on_c, 0, 83, 88
2, 362102, Note_on_c, 0, 79, 96
2, 362102, Note_on_c, 0, 67, 94
2, 362102, Note_on_c, 0, 62, 78
2, 362102, Note_on_c, 0, 63, 78
2, 362112, Note_on_c, 0, 57, 81
2, 362112, Control_c, 0, 64, 0
2, 362142, Note_on_c, 0, 76, 65
2, 362202, Note_on_c, 0, 76, 0
2, 362222, Control_c, 0, 64, 127
2, 362642, Note_on_c, 0, 57, 0
2, 362652, Note_on_c, 0, 74, 0
2, 362662, Note_on_c, 0, 79, 0
2, 362692, Note_on_c, 0, 67, 0
2, 362702, Note_on_c, 0, 86, 0
2, 362732, Note_on_c, 0, 83, 0
2, 362732, Note_on_c, 0, 63, 0
2, 362742, Note_on_c, 0, 62, 0
2, 362932, Note_on_c, 0, 62, 68
2, 362932, Note_on_c, 0, 67, 82
2, 362942, Note_on_c, 0, 63, 63
2, 362942, Note_on_c, 0, 86, 86
2, 362952, Note_on_c, 0, 57, 72
2, 362962, Note_on_c, 0, 79, 86
2, 362962, Note_on_c, 0, 74, 88
2, 362962, Note_on_c, 0, 83, 77
2, 363242, Note_on_c, 0, 57, 0
2, 363242, Note_on_c, 0, 67, 0
2, 363262, Note_on_c, 0, 74, 0
2, 363292, Note_on_c, 0, 79, 0
2, 363302, Note_on_c, 0, 86, 0
2, 363342, Note_on_c, 0, 62, 0
2, 363352, Note_on_c, 0, 63, 0
2, 363382, Note_on_c, 0, 83, 0
2, 363462, Note_on_c, 0, 86, 72
2, 363482, Note_on_c, 0, 79, 75
2, 363482, Note_on_c, 0, 62, 72
2, 363482, Note_on_c, 0, 67, 73
2, 363492, Note_on_c, 0, 63, 66
2, 363492, Note_on_c, 0, 74, 68
2, 363522, Note_on_c, 0, 57, 64
2, 363672, Note_on_c, 0, 86, 0
2, 363692, Note_on_c, 0, 79, 0
2, 363772, Note_on_c, 0, 67, 0
2, 363772, Note_on_c, 0, 74, 0
2, 363802, Note_on_c, 0, 57, 0
2, 363872, Note_on_c, 0, 63, 0
2, 364012, Note_on_c, 0, 62, 0
2, 364332, Note_on_c, 0, 81, 69
2, 364332, Note_on_c, 0, 62, 62
2, 364332, Note_on_c, 0, 67, 71
2, 364332, Note_on_c, 0, 74, 72
2, 364332, Note_on_c, 0, 69, 65
2, 364332, Note_on_c, 0, 63, 61
2, 364332, Note_on_c, 0, 57, 61
2, 364332, Note_on_c, 0, 77, 65
2, 364412, Control_c, 0, 64, 0
2, 364572, Note_on_c, 0, 69, 0
2, 364582, Note_on_c, 0, 67, 0
2, 364612, Note_on_c, 0, 57, 0
2, 364622, Control_c, 0, 64, 127
2, 364632, Note_on_c, 0, 81, 0
2, 364642, Note_on_c, 0, 62, 0
2, 364652, Note_on_c, 0, 74, 0
2, 364662, Note_on_c, 0, 63, 0
2, 364662, Note_on_c, 0, 77, 0
2, 364842, Note_on_c, 0, 63, 47
2, 364852, Note_on_c, 0, 74, 56
2, 364852, Note_on_c, 0, 62, 57
2, 364852, Note_on_c, 0, 67, 55
2, 364852, Note_on_c, 0, 77, 58
2, 364852, Note_on_c, 0, 81, 46
2, 364852, Note_on_c, 0, 57, 36
2, 364852, Note_on_c, 0, 69, 45
2, 364962, Note_on_c, 0, 69, 0
2, 365032, Note_on_c, 0, 67, 0
2, 365032, Note_on_c, 0, 74, 0
2, 365042, Note_on_c, 0, 62, 0
2, 365052, Note_on_c, 0, 77, 0
2, 365072, Note_on_c, 0, 63, 0
2, 365082, Note_on_c, 0, 57, 0
2, 365102, Note_on_c, 0, 81, 0
2, 365372, Note_on_c, 0, 82, 31
2, 365492, Note_on_c, 0, 82, 0
2, 365672, Control_c, 0, 64, 0
2, 365732, Note_on_c, 0, 84, 68
2, 365732, Note_on_c, 0, 65, 72
2, 365732, Note_on_c, 0, 60, 62
2, 365762, Note_on_c, 0, 62, 56
2, 365762, Note_on_c, 0, 72, 52
2, 365762, Note_on_c, 0, 81, 62
2, 365762, Note_on_c, 0, 77, 56
2, 365802, Note_on_c, 0, 55, 52
2, 365862, Note_on_c, 0, 77, 0
2, 365862, Note_on_c, 0, 58, 28
2, 365922, Note_on_c, 0, 65, 0
2, 365922, Note_on_c, 0, 72, 0
2, 365942, Note_on_c, 0, 55, 0
2, 365972, Note_on_c, 0, 58, 0
2, 365972, Note_on_c, 0, 62, 0
2, 365982, Note_on_c, 0, 81, 0
2, 366002, Note_on_c, 0, 60, 0
2, 366032, Note_on_c, 0, 84, 0
2, 366392, Control_c, 0, 64, 127
2, 366632, Note_on_c, 0, 84, 62
2, 366652, Note_on_c, 0, 77, 63
2, 366652, Note_on_c, 0, 72, 55
2, 366652, Note_on_c, 0, 81, 52
2, 366672, Note_on_c, 0, 65, 57
2, 366672, Note_on_c, 0, 60, 53
2, 366682, Note_on_c, 0, 62, 48
2, 366692, Note_on_c, 0, 55, 50
2, 366982, Note_on_c, 0, 84, 0
2, 367002, Note_on_c, 0, 81, 0
2, 367052, Note_on_c, 0, 72, 0
2, 367122, Note_on_c, 0, 60, 0
2, 367132, Note_on_c, 0, 65, 0
2, 367162, Note_on_c, 0, 55, 0
2, 367182, Note_on_c, 0, 62, 0
2, 367182, Note_on_c, 0, 77, 0
2, 367542, Note_on_c, 0, 82, 60
2, 367552, Note_on_c, 0, 65, 52
2, 367562, Note_on_c, 0, 62, 49
2, 367562, Note_on_c, 0, 60, 53
2, 367572, Note_on_c, 0, 77, 63
2, 367582, Note_on_c, 0, 55, 47
2, 367582, Note_on_c, 0, 70, 50
2, 367962, Note_on_c, 0, 77, 0
2, 367962, Note_on_c, 0, 82, 0
2, 368052, Note_on_c, 0, 65, 0
2, 368062, Note_on_c, 0, 70, 0
2, 368072, Note_on_c, 0, 62, 0
2, 368092, Note_on_c, 0, 60, 0
2, 368362, Note_on_c, 0, 55, 0
2, 369702, Control_c, 0, 64, 0
2, 369742, Note_on_c, 0, 55, 60
2, 369742, Note_on_c, 0, 77, 63
2, 369752, Note_on_c, 0, 70, 68
2, 369752, Note_on_c, 0, 62, 61
2, 369752, Note_on_c, 0, 58, 56
2, 369772, Note_on_c, 0, 65, 68
2, 369782, Note_on_c, 0, 74, 56
2, 369972, Control_c, 0, 64, 127
2, 370152, Note_on_c, 0, 65, 0
2, 370172, Note_on_c, 0, 77, 0
2, 370172, Note_on_c, 0, 74, 0
2, 370212, Note_on_c, 0, 70, 0
2, 370572, Note_on_c, 0, 79, 74
2, 370622, Note_on_c, 0, 62, 0
2, 370642, Note_on_c, 0, 58, 0
2, 370712, Note_on_c, 0, 55, 0
2, 370852, Note_on_c, 0, 79, 0
2, 371522, Control_c, 0, 64, 0
2, 371612, Note_on_c, 0, 81, 62
2, 371612, Note_on_c, 0, 78, 52
2, 371622, Note_on_c, 0, 62, 46
2, 371622, Note_on_c, 0, 58, 49
2, 371642, Note_on_c, 0, 74, 62
2, 371652, Note_on_c, 0, 69, 49
2, 371662, Note_on_c, 0, 52, 40
2, 371712, Control_c, 0, 64, 24
2, 371722, Control_c, 0, 64, 127
2, 372022, Note_on_c, 0, 81, 0
2, 372082, Note_on_c, 0, 78, 0
2, 372122, Note_on_c, 0, 74, 0
2, 372202, Note_on_c, 0, 62, 0
2, 372202, Note_on_c, 0, 69, 0
2, 372302, Note_on_c, 0, 58, 0
2, 373042, Note_on_c, 0, 69, 66
2, 373092, Note_on_c, 0, 52, 0
2, 373152, Note_on_c, 0, 64, 57
2, 373172, Control_c, 0, 64, 72
2, 373172, Note_on_c, 0, 62, 63
2, 373182, Control_c, 0, 64, 0
2, 373332, Note_on_c, 0, 58, 48
2, 373512, Control_c, 0, 64, 127
2, 374492, Control_c, 0, 64, 0
2, 374592, Note_on_c, 0, 57, 56
2, 374622, Control_c, 0, 64, 127
2, 375852, Control_c, 0, 64, 0
2, 375932, Control_c, 0, 64, 127
2, 375962, Note_on_c, 0, 45, 49
2, 376032, Note_on_c, 0, 57, 0
2, 376262, Note_on_c, 0, 69, 0
2, 376472, Note_on_c, 0, 64, 0
2, 376482, Note_on_c, 0, 62, 0
2, 376532, Note_on_c, 0, 58, 0
2, 377322, Note_on_c, 0, 55, 51
2, 377332, Control_c, 0, 64, 0
2, 377342, Note_on_c, 0, 58, 51
2, 377352, Note_on_c, 0, 63, 48
2, 377352, Note_on_c, 0, 61, 49
2, 377712, Control_c, 0, 64, 127
2, 378342, Note_on_c, 0, 55, 0
2, 378372, Note_on_c, 0, 58, 0
2, 378382, Note_on_c, 0, 61, 0
2, 378412, Note_on_c, 0, 63, 0
2, 378602, Control_c, 0, 64, 0
2, 378672, Note_on_c, 0, 58, 58
2, 378682, Note_on_c, 0, 45, 0
2, 378682, Note_on_c, 0, 64, 55
2, 378692, Note_on_c, 0, 55, 51
2, 378702, Note_on_c, 0, 49, 51
2, 378722, Note_on_c, 0, 61, 42
2, 378802, Control_c, 0, 64, 127
2, 379022, Note_on_c, 0, 55, 0
2, 379032, Note_on_c, 0, 64, 0
2, 379122, Note_on_c, 0, 61, 0
2, 379152, Note_on_c, 0, 58, 0
2, 379932, Control_c, 0, 64, 0
2, 380032, Note_on_c, 0, 67, 57
2, 380032, Note_on_c, 0, 61, 57
2, 380032, Note_on_c, 0, 58, 58
2, 380072, Control_c, 0, 64, 127
2, 380112, Note_on_c, 0, 52, 38
2, 380312, Note_on_c, 0, 58, 0
2, 380342, Note_on_c, 0, 49, 0
2, 380362, Note_on_c, 0, 67, 0
2, 380382, Note_on_c, 0, 61, 0
2, 380952, Note_on_c, 0, 70, 68
2, 380972, Note_on_c, 0, 61, 59
2, 381002, Note_on_c, 0, 64, 57
2, 381072, Note_on_c, 0, 67, 31
2, 381182, Note_on_c, 0, 61, 0
2, 381192, Note_on_c, 0, 67, 0
2, 381212, Note_on_c, 0, 64, 0
2, 381232, Note_on_c, 0, 52, 0
2, 381352, Note_on_c, 0, 70, 0
2, 381412, Note_on_c, 0, 55, 36
2, 381502, Note_on_c, 0, 55, 0
2, 381502, Note_on_c, 0, 68, 50
2, 381502, Control_c, 0, 64, 0
2, 381582, Note_on_c, 0, 68, 0
2, 381902, Note_on_c, 0, 69, 63
2, 382082, Note_on_c, 0, 69, 0
2, 382112, Control_c, 0, 64, 40
2, 382122, Control_c, 0, 64, 127
2, 382302, Note_on_c, 0, 76, 83
2, 382362, Note_on_c, 0, 74, 43
2, 382442, Note_on_c, 0, 74, 0
2, 382542, Note_on_c, 0, 76, 0
2, 382572, Control_c, 0, 64, 0
2, 382572, Note_on_c, 0, 38, 47
2, 382692, Note_on_c, 0, 53, 34
2, 382842, Note_on_c, 0, 38, 0
2, 382912, Note_on_c, 0, 67, 41
2, 382922, Note_on_c, 0, 74, 43
2, 383072, Note_on_c, 0, 53, 0
2, 383402, Control_c, 0, 64, 127
2, 383652, Note_on_c, 0, 67, 0
2, 383662, Note_on_c, 0, 74, 0
2, 383842, Control_c, 0, 64, 0
2, 383992, Note_on_c, 0, 60, 45
2, 384002, Note_on_c, 0, 65, 57
2, 384032, Note_on_c, 0, 69, 49
2, 384052, Note_on_c, 0, 50, 32
2, 384062, Note_on_c, 0, 53, 39
2, 384072, Note_on_c, 0, 57, 39
2, 384252, Control_c, 0, 64, 127
2, 384422, Note_on_c, 0, 65, 0
2, 384462, Note_on_c, 0, 60, 0
2, 384702, Note_on_c, 0, 57, 0
2, 384722, Note_on_c, 0, 69, 0
2, 384892, Note_on_c, 0, 65, 49
2, 384902, Note_on_c, 0, 62, 48
2, 385142, Note_on_c, 0, 53, 0
2, 385252, Control_c, 0, 64, 0
2, 385262, Note_on_c, 0, 60, 58
2, 385312, Note_on_c, 0, 57, 50
2, 385342, Note_on_c, 0, 60, 0
2, 385392, Note_on_c, 0, 57, 0
2, 385572, Note_on_c, 0, 50, 0
2, 385612, Control_c, 0, 64, 127
2, 386142, Note_on_c, 0, 50, 66
2, 386402, Note_on_c, 0, 50, 0
2, 386482, Control_c, 0, 64, 0
2, 386742, Note_on_c, 0, 45, 37
2, 386832, Note_on_c, 0, 45, 0
2, 387012, Control_c, 0, 64, 127
2, 387532, Note_on_c, 0, 36, 54
2, 387672, Note_on_c, 0, 36, 0
2, 388012, Control_c, 0, 64, 0
2, 388042, Note_on_c, 0, 22, 66
2, 388052, Note_on_c, 0, 62, 0
2, 388122, Note_on_c, 0, 65, 0
2, 388142, Control_c, 0, 64, 127
2, 388232, Note_on_c, 0, 22, 0
2, 389452, Note_on_c, 0, 56, 70
2, 389472, Note_on_c, 0, 62, 63
2, 389472, Note_on_c, 0, 76, 81
2, 389482, Note_on_c, 0, 72, 75
2, 389482, Note_on_c, 0, 67, 76
2, 389792, Note_on_c, 0, 67, 0
2, 389872, Note_on_c, 0, 76, 0
2, 389902, Note_on_c, 0, 79, 78
2, 390082, Note_on_c, 0, 72, 0
2, 390172, Note_on_c, 0, 56, 0
2, 390172, Note_on_c, 0, 62, 0
2, 390172, Note_on_c, 0, 79, 0
2, 390262, Control_c, 0, 64, 0
2, 390312, Note_on_c, 0, 56, 70
2, 390342, Note_on_c, 0, 62, 72
2, 390342, Note_on_c, 0, 76, 83
2, 390352, Note_on_c, 0, 67, 73
2, 390352, Note_on_c, 0, 72, 81
2, 390502, Control_c, 0, 64, 127
2, 390662, Note_on_c, 0, 67, 0
2, 390852, Note_on_c, 0, 79, 51
2, 390962, Note_on_c, 0, 72, 0
2, 390982, Note_on_c, 0, 62, 0
2, 390992, Note_on_c, 0, 76, 0
2, 391032, Note_on_c, 0, 79, 0
2, 391152, Note_on_c, 0, 56, 0
2, 391882, Control_c, 0, 64, 0
2, 391902, Note_on_c, 0, 77, 78
2, 391912, Note_on_c, 0, 65, 61
2, 391922, Note_on_c, 0, 73, 66
2, 391922, Note_on_c, 0, 69, 71
2, 391932, Note_on_c, 0, 61, 60
2, 391942, Note_on_c, 0, 55, 56
2, 392202, Control_c, 0, 64, 127
2, 392222, Note_on_c, 0, 69, 0
2, 392242, Note_on_c, 0, 73, 0
2, 392352, Note_on_c, 0, 81, 68
2, 392362, Note_on_c, 0, 77, 0
2, 392402, Note_on_c, 0, 65, 0
2, 392432, Note_on_c, 0, 55, 0
2, 392482, Note_on_c, 0, 61, 0
2, 392522, Note_on_c, 0, 81, 0
2, 392612, Control_c, 0, 64, 0
2, 392792, Note_on_c, 0, 61, 61
2, 392802, Note_on_c, 0, 73, 67
2, 392802, Note_on_c, 0, 77, 66
2, 392812, Note_on_c, 0, 55, 57
2, 392822, Note_on_c, 0, 69, 68
2, 392832, Note_on_c, 0, 65, 56
2, 392942, Note_on_c, 0, 65, 0
2, 393032, Control_c, 0, 64, 127
2, 393042, Note_on_c, 0, 69, 0
2, 393102, Note_on_c, 0, 77, 0
2, 393112, Note_on_c, 0, 73, 0
2, 393182, Note_on_c, 0, 61, 0
2, 393242, Note_on_c, 0, 55, 0
2, 393262, Control_c, 0, 64, 0
2, 393282, Note_on_c, 0, 79, 67
2, 393412, Control_c, 0, 64, 127
2, 393442, Note_on_c, 0, 79, 0
2, 393572, Control_c, 0, 64, 0
2, 393732, Note_on_c, 0, 72, 68
2, 393742, Note_on_c, 0, 64, 75
2, 393742, Note_on_c, 0, 76, 82
2, 393742, Note_on_c, 0, 69, 68
2, 394202, Control_c, 0, 64, 127
2, 394392, Note_on_c, 0, 69, 0
2, 394412, Note_on_c, 0, 72, 0
2, 394452, Note_on_c, 0, 76, 0
2, 394512, Note_on_c, 0, 64, 0
2, 394692, Note_on_c, 0, 72, 48
2, 394702, Note_on_c, 0, 69, 43
2, 394832, Note_on_c, 0, 69, 0
2, 394932, Note_on_c, 0, 72, 0
2, 395112, Note_on_c, 0, 77, 81
2, 395162, Note_on_c, 0, 62, 59
2, 395332, Note_on_c, 0, 77, 0
2, 395402, Control_c, 0, 64, 0
2, 395582, Note_on_c, 0, 62, 0
2, 395602, Note_on_c, 0, 65, 56
2, 395612, Note_on_c, 0, 69, 62
2, 395632, Note_on_c, 0, 61, 57
2, 395722, Control_c, 0, 64, 127
2, 396442, Note_on_c, 0, 69, 0
2, 396452, Note_on_c, 0, 65, 0
2, 396662, Note_on_c, 0, 61, 0
2, 396972, Control_c, 0, 64, 0
2, 397022, Note_on_c, 0, 60, 55
2, 397032, Note_on_c, 0, 69, 57
2, 397042, Note_on_c, 0, 74, 58
2, 397052, Note_on_c, 0, 65, 49
2, 397152, Control_c, 0, 64, 127
2, 397542, Note_on_c, 0, 69, 0
2, 397552, Note_on_c, 0, 65, 0
2, 397682, Note_on_c, 0, 60, 0
2, 398022, Note_on_c, 0, 74, 0
2, 398262, Control_c, 0, 64, 0
2, 398352, Note_on_c, 0, 67, 50
2, 398362, Note_on_c, 0, 62, 42
2, 398392, Note_on_c, 0, 58, 43
2, 398452, Note_on_c, 0, 52, 29
2, 398482, Note_on_c, 0, 62, 0
2, 398632, Control_c, 0, 64, 72
2, 398632, Control_c, 0, 64, 127
2, 398652, Note_on_c, 0, 67, 0
2, 398762, Control_c, 0, 64, 0
2, 398912, Note_on_c, 0, 70, 51
2, 399052, Note_on_c, 0, 69, 56
2, 399122, Note_on_c, 0, 58, 0
2, 399152, Note_on_c, 0, 70, 0
2, 399232, Note_on_c, 0, 69, 0
2, 399232, Note_on_c, 0, 67, 52
2, 399322, Note_on_c, 0, 67, 0
2, 399482, Note_on_c, 0, 69, 48
2, 399582, Note_on_c, 0, 69, 0
2, 399662, Note_on_c, 0, 70, 52
2, 399672, Note_on_c, 0, 62, 22
2, 399682, Note_on_c, 0, 58, 30
2, 399732, Note_on_c, 0, 70, 0
2, 399902, Note_on_c, 0, 72, 52
2, 399992, Note_on_c, 0, 52, 0
2, 400002, Note_on_c, 0, 58, 0
2, 400012, Note_on_c, 0, 72, 0
2, 400142, Note_on_c, 0, 73, 64
2, 400212, Note_on_c, 0, 73, 0
2, 400342, Note_on_c, 0, 62, 0
2, 400442, Note_on_c, 0, 75, 71
2, 400502, Note_on_c, 0, 75, 0
2, 400712, Note_on_c, 0, 76, 61
2, 400892, Note_on_c, 0, 76, 0
2, 400902, Note_on_c, 0, 61, 42
2, 400902, Note_on_c, 0, 55, 42
2, 401042, Note_on_c, 0, 61, 0
2, 401062, Note_on_c, 0, 78, 63
2, 401132, Note_on_c, 0, 55, 0
2, 401212, Note_on_c, 0, 78, 0
2, 401442, Note_on_c, 0, 84, 94
2, 401642, Note_on_c, 0, 84, 0
2, 401772, Note_on_c, 0, 82, 78
2, 402042, Note_on_c, 0, 82, 0
2, 402102, Note_on_c, 0, 73, 63
2, 402192, Note_on_c, 0, 45, 43
2, 402202, Note_on_c, 0, 55, 41
2, 402412, Note_on_c, 0, 73, 0
2, 402482, Note_on_c, 0, 72, 52
2, 402622, Note_on_c, 0, 72, 0
2, 402662, Note_on_c, 0, 45, 0
2, 402772, Note_on_c, 0, 79, 78
2, 403042, Note_on_c, 0, 79, 0
2, 403092, Note_on_c, 0, 77, 63
2, 403152, Note_on_c, 0, 55, 0
2, 403332, Note_on_c, 0, 77, 0
2, 403372, Note_on_c, 0, 76, 63
2, 403592, Note_on_c, 0, 76, 0
2, 403622, Note_on_c, 0, 57, 36
2, 403632, Note_on_c, 0, 50, 40
2, 403732, Note_on_c, 0, 73, 57
2, 403902, Note_on_c, 0, 73, 0
2, 404072, Note_on_c, 0, 76, 63
2, 404282, Note_on_c, 0, 76, 0
2, 404372, Note_on_c, 0, 74, 63
2, 404442, Note_on_c, 0, 57, 0
2, 404572, Note_on_c, 0, 74, 0
2, 404712, Note_on_c, 0, 69, 61
2, 404872, Note_on_c, 0, 69, 0
2, 405012, Note_on_c, 0, 57, 37
2, 405032, Note_on_c, 0, 67, 48
2, 405102, Control_c, 0, 64, 127
2, 405292, Note_on_c, 0, 67, 0
2, 405372, Note_on_c, 0, 65, 59
2, 405442, Note_on_c, 0, 57, 0
2, 405502, Note_on_c, 0, 65, 0
2, 405512, Note_on_c, 0, 50, 0
2, 405692, Note_on_c, 0, 67, 69
2, 405932, Note_on_c, 0, 67, 0
2, 406032, Note_on_c, 0, 69, 64
2, 406232, Note_on_c, 0, 69, 0
2, 406242, Control_c, 0, 64, 0
2, 406382, Note_on_c, 0, 57, 44
2, 406402, Note_on_c, 0, 65, 62
2, 406402, Note_on_c, 0, 49, 36
2, 406762, Note_on_c, 0, 65, 0
2, 406772, Control_c, 0, 64, 127
2, 406912, Note_on_c, 0, 65, 70
2, 407212, Note_on_c, 0, 57, 0
2, 407232, Note_on_c, 0, 65, 0
2, 407282, Note_on_c, 0, 64, 57
2, 407412, Note_on_c, 0, 49, 0
2, 407602, Note_on_c, 0, 64, 0
2, 407662, Control_c, 0, 64, 0
2, 407702, Note_on_c, 0, 49, 40
2, 407742, Note_on_c, 0, 65, 67
2, 407752, Note_on_c, 0, 57, 37
2, 407822, Control_c, 0, 64, 127
2, 408072, Note_on_c, 0, 65, 0
2, 408182, Note_on_c, 0, 67, 56
2, 408432, Note_on_c, 0, 67, 0
2, 408462, Note_on_c, 0, 57, 0
2, 408612, Note_on_c, 0, 64, 60
2, 408862, Note_on_c, 0, 49, 0
2, 409072, Control_c, 0, 64, 0
2, 409132, Note_on_c, 0, 57, 45
2, 409142, Note_on_c, 0, 48, 48
2, 409412, Control_c, 0, 64, 127
2, 409852, Note_on_c, 0, 64, 0
2, 410212, Note_on_c, 0, 57, 0
2, 410342, Note_on_c, 0, 48, 0
2, 410542, Note_on_c, 0, 48, 49
2, 410562, Note_on_c, 0, 57, 55
2, 410622, Control_c, 0, 64, 0
2, 411182, Control_c, 0, 64, 127
2, 411552, Note_on_c, 0, 48, 0
2, 411582, Note_on_c, 0, 57, 0
2, 411962, Control_c, 0, 64, 0
2, 411972, Note_on_c, 0, 57, 52
2, 411982, Note_on_c, 0, 47, 39
2, 412542, Control_c, 0, 64, 127
2, 412762, Note_on_c, 0, 57, 0
2, 412892, Note_on_c, 0, 64, 102
2, 413292, Control_c, 0, 64, 0
2, 413362, Note_on_c, 0, 57, 48
2, 413382, Note_on_c, 0, 65, 68
2, 413482, Note_on_c, 0, 64, 0
2, 413542, Note_on_c, 0, 47, 0
2, 413712, Note_on_c, 0, 65, 0
2, 413732, Note_on_c, 0, 57, 0
2, 413752, Control_c, 0, 64, 127
2, 413802, Note_on_c, 0, 66, 68
2, 414102, Note_on_c, 0, 66, 0
2, 414242, Note_on_c, 0, 67, 63
2, 414552, Note_on_c, 0, 67, 0
2, 414622, Control_c, 0, 64, 0
2, 414702, Note_on_c, 0, 68, 74
2, 414982, Note_on_c, 0, 68, 0
2, 415122, Note_on_c, 0, 69, 79
2, 415412, Note_on_c, 0, 69, 0
2, 415552, Control_c, 0, 64, 127
2, 415562, Note_on_c, 0, 70, 77
2, 415852, Note_on_c, 0, 70, 0
2, 415962, Control_c, 0, 64, 0
2, 416032, Note_on_c, 0, 71, 45
2, 416062, Note_on_c, 0, 67, 46
2, 416062, Note_on_c, 0, 72, 35
2, 416142, Note_on_c, 0, 67, 0
2, 416162, Note_on_c, 0, 72, 0
2, 416172, Note_on_c, 0, 71, 0
2, 416402, Note_on_c, 0, 74, 57
2, 416632, Note_on_c, 0, 74, 0
2, 416872, Note_on_c, 0, 77, 69
2, 416882, Control_c, 0, 64, 127
2, 416882, Note_on_c, 0, 71, 74
2, 416882, Note_on_c, 0, 67, 51
2, 416952, Note_on_c, 0, 74, 39
2, 417032, Note_on_c, 0, 74, 0
2, 417092, Note_on_c, 0, 67, 0
2, 417092, Note_on_c, 0, 77, 0
2, 417112, Note_on_c, 0, 71, 0
2, 417222, Control_c, 0, 64, 0
2, 417392, Note_on_c, 0, 76, 55
2, 417422, Note_on_c, 0, 69, 42
2, 417422, Note_on_c, 0, 64, 48
2, 417462, Note_on_c, 0, 71, 43
2, 417492, Note_on_c, 0, 65, 41
2, 417502, Note_on_c, 0, 70, 31
2, 417752, Control_c, 0, 64, 127
2, 417932, Note_on_c, 0, 65, 0
2, 417972, Note_on_c, 0, 70, 0
2, 418002, Note_on_c, 0, 69, 0
2, 418002, Note_on_c, 0, 71, 0
2, 418062, Note_on_c, 0, 76, 0
2, 418102, Note_on_c, 0, 64, 0
2, 418262, Note_on_c, 0, 74, 58
2, 418272, Note_on_c, 0, 65, 49
2, 418272, Note_on_c, 0, 69, 56
2, 418312, Note_on_c, 0, 62, 39
2, 418432, Note_on_c, 0, 62, 0
2, 418462, Note_on_c, 0, 69, 0
2, 418532, Note_on_c, 0, 65, 0
2, 418582, Control_c, 0, 64, 0
2, 418602, Note_on_c, 0, 74, 0
2, 418772, Note_on_c, 0, 65, 48
2, 418802, Note_on_c, 0, 69, 54
2, 418822, Note_on_c, 0, 59, 41
2, 418822, Note_on_c, 0, 71, 48
2, 418912, Control_c, 0, 64, 127
2, 418952, Note_on_c, 0, 59, 0
2, 419442, Note_on_c, 0, 65, 0
2, 419442, Note_on_c, 0, 69, 0
2, 419492, Note_on_c, 0, 71, 0
2, 419662, Note_on_c, 0, 56, 56
2, 419742, Note_on_c, 0, 56, 0
2, 420102, Control_c, 0, 64, 40
2, 420112, Control_c, 0, 64, 0
2, 420232, Note_on_c, 0, 68, 52
2, 420242, Note_on_c, 0, 64, 49
2, 420372, Note_on_c, 0, 52, 31
2, 420612, Control_c, 0, 64, 127
2, 420932, Note_on_c, 0, 64, 0
2, 420962, Note_on_c, 0, 68, 0
2, 421652, Note_on_c, 0, 59, 39
2, 421652, Note_on_c, 0, 64, 48
2, 421672, Note_on_c, 0, 62, 37
2, 421762, Note_on_c, 0, 59, 0
2, 421932, Note_on_c, 0, 52, 0
2, 422222, Note_on_c, 0, 64, 0
2, 422282, Note_on_c, 0, 62, 0
2, 423032, Control_c, 0, 64, 72
2, 423042, Control_c, 0, 64, 0
2, 423072, Note_on_c, 0, 62, 63
2, 423082, Note_on_c, 0, 64, 60
2, 423252, Note_on_c, 0, 64, 0
2, 423282, Note_on_c, 0, 62, 0
2, 423522, Note_on_c, 0, 64, 44
2, 423522, Note_on_c, 0, 62, 44
2, 423642, Note_on_c, 0, 64, 0
2, 423782, Note_on_c, 0, 62, 0
2, 423932, Note_on_c, 0, 58, 54
2, 423962, Note_on_c, 0, 56, 41
2, 424142, Note_on_c, 0, 56, 0
2, 424192, Note_on_c, 0, 58, 0
2, 424382, Note_on_c, 0, 58, 56
2, 424412, Note_on_c, 0, 56, 37
2, 424522, Note_on_c, 0, 56, 0
2, 424612, Note_on_c, 0, 58, 0
2, 424852, Note_on_c, 0, 62, 42
2, 424872, Note_on_c, 0, 58, 26
2, 424892, Note_on_c, 0, 64, 47
2, 424962, Note_on_c, 0, 62, 0
2, 424982, Note_on_c, 0, 58, 0
2, 425002, Note_on_c, 0, 64, 0
2, 425262, Note_on_c, 0, 58, 51
2, 425272, Note_on_c, 0, 64, 45
2, 425432, Note_on_c, 0, 64, 0
2, 425452, Note_on_c, 0, 58, 0
2, 425692, Note_on_c, 0, 63, 54
2, 425702, Note_on_c, 0, 61, 47
2, 425792, Note_on_c, 0, 61, 0
2, 425872, Note_on_c, 0, 63, 0
2, 426122, Note_on_c, 0, 63, 48
2, 426122, Note_on_c, 0, 61, 52
2, 426312, Note_on_c, 0, 63, 0
2, 426382, Note_on_c, 0, 61, 0
2, 426532, Note_on_c, 0, 45, 46
2, 426572, Note_on_c, 0, 55, 35
2, 426572, Note_on_c, 0, 57, 37
2, 426752, Note_on_c, 0, 57, 0
2, 426752, Note_on_c, 0, 55, 0
2, 427002, Note_on_c, 0, 57, 37
2, 427012, Note_on_c, 0, 55, 33
2, 427142, Note_on_c, 0, 55, 0
2, 427192, Note_on_c, 0, 57, 0
2, 427442, Note_on_c, 0, 61, 52
2, 427452, Note_on_c, 0, 63, 54
2, 427492, Note_on_c, 0, 55, 46
2, 427602, Note_on_c, 0, 55, 0
2, 427642, Note_on_c, 0, 63, 0
2, 427662, Note_on_c, 0, 61, 0
2, 427842, Note_on_c, 0, 61, 46
2, 427862, Note_on_c, 0, 63, 48
2, 428052, Note_on_c, 0, 63, 0
2, 428112, Note_on_c, 0, 61, 0
2, 428112, Note_on_c, 0, 45, 0
2, 428252, Note_on_c, 0, 57, 52
2, 428282, Note_on_c, 0, 55, 52
2, 428452, Note_on_c, 0, 57, 0
2, 428472, Note_on_c, 0, 55, 0
2, 428682, Note_on_c, 0, 55, 45
2, 428762, Note_on_c, 0, 61, 31
2, 428842, Note_on_c, 0, 55, 0
2, 428882, Note_on_c, 0, 61, 0
2, 429092, Note_on_c, 0, 45, 51
2, 429112, Note_on_c, 0, 61, 55
2, 429122, Note_on_c, 0, 63, 58
2, 429312, Note_on_c, 0, 63, 0
2, 429322, Note_on_c, 0, 61, 0
2, 429522, Note_on_c, 0, 61, 52
2, 429562, Note_on_c, 0, 63, 48
2, 429582, Note_on_c, 0, 45, 0
2, 429702, Note_on_c, 0, 63, 0
2, 429782, Note_on_c, 0, 61, 0
2, 429992, Note_on_c, 0, 57, 47
2, 430142, Note_on_c, 0, 57, 0
2, 430372, Note_on_c, 0, 61, 50
2, 430392, Note_on_c, 0, 55, 33
2, 430542, Note_on_c, 0, 55, 0
2, 430782, Note_on_c, 0, 38, 47
2, 430792, Note_on_c, 0, 26, 45
2, 430802, Note_on_c, 0, 62, 58
2, 430882, Note_on_c, 0, 60, 30
2, 430902, Note_on_c, 0, 61, 0
2, 431002, Note_on_c, 0, 62, 0
2, 431002, Note_on_c, 0, 60, 0
2, 431052, Note_on_c, 0, 26, 0
2, 431222, Note_on_c, 0, 38, 0
2, 431232, Note_on_c, 0, 62, 40
2, 431242, Note_on_c, 0, 60, 50
2, 431362, Note_on_c, 0, 62, 0
2, 431492, Note_on_c, 0, 60, 0
2, 431632, Note_on_c, 0, 54, 51
2, 431642, Note_on_c, 0, 60, 34
2, 431642, Note_on_c, 0, 56, 52
2, 431802, Note_on_c, 0, 54, 0
2, 431852, Note_on_c, 0, 56, 0
2, 431882, Note_on_c, 0, 60, 0
2, 432072, Note_on_c, 0, 56, 38
2, 432072, Note_on_c, 0, 54, 43
2, 432132, Note_on_c, 0, 60, 43
2, 432152, Note_on_c, 0, 54, 0
2, 432202, Note_on_c, 0, 56, 0
2, 432222, Note_on_c, 0, 60, 0
2, 432552, Note_on_c, 0, 50, 66
2, 432582, Control_c, 0, 64, 127
2, 432742, Note_on_c, 0, 50, 0
2, 433022, Note_on_c, 0, 74, 99
2, 433492, Note_on_c, 0, 68, 72
2, 433502, Note_on_c, 0, 66, 66
2, 433622, Note_on_c, 0, 62, 48
2, 434042, Note_on_c, 0, 62, 0
2, 434322, Note_on_c, 0, 66, 0
2, 434412, Note_on_c, 0, 68, 0
2, 434642, Note_on_c, 0, 74, 0
2, 434932, Note_on_c, 0, 66, 42
2, 434962, Note_on_c, 0, 68, 51
2, 434962, Note_on_c, 0, 54, 40
2, 435002, Note_on_c, 0, 44, 37
2, 435252, Note_on_c, 0, 54, 0
2, 435352, Note_on_c, 0, 44, 0
2, 435812, Note_on_c, 0, 50, 55
2, 436102, Control_c, 0, 64, 0
2, 436132, Note_on_c, 0, 50, 0
2, 436172, Note_on_c, 0, 66, 0
2, 436292, Note_on_c, 0, 43, 62
2, 436332, Note_on_c, 0, 68, 0
2, 436382, Control_c, 0, 64, 127
2, 436512, Note_on_c, 0, 43, 0
2, 437182, Note_on_c, 0, 64, 75
2, 437212, Note_on_c, 0, 76, 81
2, 437212, Note_on_c, 0, 65, 82
2, 437222, Note_on_c, 0, 69, 75
2, 437232, Control_c, 0, 64, 0
2, 437242, Note_on_c, 0, 71, 61
2, 437332, Note_on_c, 0, 71, 0
2, 437382, Note_on_c, 0, 65, 0
2, 437412, Note_on_c, 0, 69, 0
2, 437442, Note_on_c, 0, 76, 0
2, 437542, Note_on_c, 0, 64, 0
2, 437592, Note_on_c, 0, 63, 57
2, 437902, Note_on_c, 0, 63, 0
2, 438012, Note_on_c, 0, 64, 65
2, 438042, Note_on_c, 0, 76, 75
2, 438052, Note_on_c, 0, 69, 75
2, 438062, Note_on_c, 0, 65, 69
2, 438082, Note_on_c, 0, 71, 60
2, 438662, Note_on_c, 0, 71, 0
2, 438712, Note_on_c, 0, 65, 0
2, 438712, Control_c, 0, 64, 56
2, 438722, Control_c, 0, 64, 127
2, 438762, Note_on_c, 0, 69, 0
2, 438792, Note_on_c, 0, 64, 0
2, 438822, Note_on_c, 0, 76, 0
2, 438922, Control_c, 0, 64, 0
2, 439002, Note_on_c, 0, 76, 61
2, 439002, Note_on_c, 0, 65, 68
2, 439012, Note_on_c, 0, 73, 60
2, 439022, Note_on_c, 0, 69, 63
2, 439032, Note_on_c, 0, 62, 57
2, 439282, Control_c, 0, 64, 127
2, 439922, Note_on_c, 0, 65, 0
2, 439932, Note_on_c, 0, 69, 0
2, 440042, Note_on_c, 0, 73, 0
2, 440282, Note_on_c, 0, 76, 0
2, 440342, Note_on_c, 0, 62, 0
2, 440372, Note_on_c, 0, 65, 49
2, 440382, Note_on_c, 0, 69, 56
2, 440382, Note_on_c, 0, 61, 47
2, 440492, Note_on_c, 0, 61, 0
2, 440962, Note_on_c, 0, 69, 0
2, 440992, Note_on_c, 0, 65, 0
2, 441272, Note_on_c, 0, 55, 32
2, 441592, Note_on_c, 0, 55, 0
2, 441732, Control_c, 0, 64, 0
2, 441762, Note_on_c, 0, 48, 40
2, 441762, Note_on_c, 0, 74, 49
2, 441762, Note_on_c, 0, 64, 39
2, 441762, Note_on_c, 0, 67, 43
2, 441782, Note_on_c, 0, 58, 31
2, 441782, Note_on_c, 0, 70, 42
2, 442002, Note_on_c, 0, 64, 0
2, 442002, Control_c, 0, 64, 127
2, 442032, Note_on_c, 0, 48, 0
2, 442042, Note_on_c, 0, 67, 0
2, 442142, Note_on_c, 0, 70, 0
2, 442172, Note_on_c, 0, 74, 0
2, 442232, Note_on_c, 0, 58, 0
2, 442652, Note_on_c, 0, 86, 107
2, 443082, Note_on_c, 0, 82, 75
2, 443122, Note_on_c, 0, 86, 0
2, 443152, Note_on_c, 0, 58, 42
2, 443182, Control_c, 0, 64, 0
2, 443252, Note_on_c, 0, 58, 0
2, 443342, Note_on_c, 0, 82, 0
2, 443362, Note_on_c, 0, 79, 63
2, 443482, Note_on_c, 0, 79, 0
2, 443552, Note_on_c, 0, 76, 61
2, 443702, Note_on_c, 0, 76, 0
2, 443822, Note_on_c, 0, 75, 50
2, 443922, Note_on_c, 0, 75, 0
2, 444002, Note_on_c, 0, 74, 43
2, 444072, Note_on_c, 0, 74, 0
2, 444082, Note_on_c, 0, 73, 59
2, 444152, Note_on_c, 0, 73, 0
2, 444252, Note_on_c, 0, 72, 43
2, 444412, Note_on_c, 0, 72, 0
2, 444442, Note_on_c, 0, 71, 51
2, 444512, Note_on_c, 0, 58, 39
2, 444592, Note_on_c, 0, 71, 0
2, 444732, Note_on_c, 0, 70, 41
2, 444762, Note_on_c, 0, 58, 0
2, 444822, Note_on_c, 0, 70, 0
2, 444852, Note_on_c, 0, 74, 69
2, 444992, Note_on_c, 0, 70, 51
2, 445042, Note_on_c, 0, 74, 0
2, 445112, Note_on_c, 0, 70, 0
2, 445512, Note_on_c, 0, 63, 57
2, 445552, Note_on_c, 0, 58, 31
2, 445662, Note_on_c, 0, 58, 0
2, 445692, Note_on_c, 0, 63, 0
2, 445842, Note_on_c, 0, 61, 57
2, 445992, Note_on_c, 0, 61, 0
2, 446212, Note_on_c, 0, 59, 61
2, 446282, Note_on_c, 0, 59, 0
2, 446412, Note_on_c, 0, 58, 54
2, 446482, Note_on_c, 0, 58, 0
2, 446602, Note_on_c, 0, 57, 58
2, 446762, Note_on_c, 0, 57, 0
2, 446762, Note_on_c, 0, 42, 29
2, 446882, Note_on_c, 0, 55, 39
2, 447052, Note_on_c, 0, 55, 0
2, 447062, Note_on_c, 0, 48, 32
2, 447112, Note_on_c, 0, 56, 52
2, 447142, Note_on_c, 0, 42, 0
2, 447252, Note_on_c, 0, 48, 0
2, 447312, Note_on_c, 0, 56, 0
2, 447342, Note_on_c, 0, 51, 50
2, 447362, Note_on_c, 0, 57, 58
2, 447362, Note_on_c, 0, 41, 48
2, 447702, Note_on_c, 0, 51, 0
2, 447762, Note_on_c, 0, 57, 0
2, 447842, Note_on_c, 0, 60, 66
2, 448042, Note_on_c, 0, 60, 0
2, 448202, Note_on_c, 0, 62, 74
2, 448432, Note_on_c, 0, 62, 0
2, 448582, Note_on_c, 0, 63, 74
2, 448802, Note_on_c, 0, 48, 31
2, 448852, Note_on_c, 0, 63, 0
2, 448872, Note_on_c, 0, 57, 29
2, 448952, Note_on_c, 0, 62, 58
2, 449012, Note_on_c, 0, 57, 0
2, 449242, Note_on_c, 0, 62, 0
2, 449332, Note_on_c, 0, 59, 54
2, 449422, Note_on_c, 0, 59, 0
2, 449632, Note_on_c, 0, 60, 57
2, 449852, Note_on_c, 0, 60, 0
2, 450002, Note_on_c, 0, 62, 74
2, 450082, Note_on_c, 0, 41, 0
2, 450122, Note_on_c, 0, 57, 49
2, 450202, Note_on_c, 0, 48, 0
2, 450272, Note_on_c, 0, 62, 0
2, 450312, Note_on_c, 0, 63, 57
2, 450312, Control_c, 0, 64, 127
2, 450362, Note_on_c, 0, 57, 0
2, 450472, Note_on_c, 0, 63, 0
2, 450692, Note_on_c, 0, 67, 75
2, 450882, Note_on_c, 0, 67, 0
2, 451022, Note_on_c, 0, 70, 78
2, 451222, Note_on_c, 0, 70, 0
2, 451362, Note_on_c, 0, 71, 122
2, 451522, Control_c, 0, 64, 0
2, 451592, Note_on_c, 0, 71, 0
2, 451662, Note_on_c, 0, 63, 56
2, 451662, Note_on_c, 0, 67, 63
2, 451672, Note_on_c, 0, 62, 54
2, 451692, Note_on_c, 0, 74, 111
2, 451712, Note_on_c, 0, 57, 45
2, 452022, Note_on_c, 0, 74, 0
2, 452112, Note_on_c, 0, 71, 58
2, 452162, Note_on_c, 0, 67, 0
2, 452232, Control_c, 0, 64, 127
2, 452302, Note_on_c, 0, 71, 0
2, 452322, Note_on_c, 0, 62, 0
2, 452342, Note_on_c, 0, 63, 0
2, 452412, Note_on_c, 0, 72, 87
2, 452422, Note_on_c, 0, 57, 0
2, 452712, Note_on_c, 0, 72, 0
2, 452802, Note_on_c, 0, 69, 71
2, 453012, Control_c, 0, 64, 0
2, 453082, Note_on_c, 0, 69, 0
2, 453142, Note_on_c, 0, 60, 39
2, 453162, Note_on_c, 0, 62, 37
2, 453182, Note_on_c, 0, 65, 51
2, 453312, Note_on_c, 0, 62, 0
2, 453412, Note_on_c, 0, 60, 0
2, 453532, Note_on_c, 0, 65, 0
2, 453532, Control_c, 0, 64, 127
2, 453552, Note_on_c, 0, 62, 45
2, 453652, Note_on_c, 0, 62, 0
2, 453902, Note_on_c, 0, 72, 82
2, 454172, Note_on_c, 0, 72, 0
2, 454282, Note_on_c, 0, 69, 60
2, 454432, Control_c, 0, 64, 0
2, 454482, Note_on_c, 0, 69, 0
2, 454592, Note_on_c, 0, 70, 63
2, 454602, Note_on_c, 0, 62, 43
2, 454672, Note_on_c, 0, 62, 0
2, 454672, Note_on_c, 0, 71, 43
2, 454762, Control_c, 0, 64, 127
2, 454872, Note_on_c, 0, 71, 0
2, 454902, Note_on_c, 0, 70, 0
2, 455032, Note_on_c, 0, 65, 58
2, 455552, Note_on_c, 0, 65, 0
2, 456082, Control_c, 0, 64, 0
2, 456082, Note_on_c, 0, 58, 59
2, 456122, Note_on_c, 0, 62, 57
2, 456152, Note_on_c, 0, 53, 50
2, 456162, Note_on_c, 0, 65, 48
2, 456362, Control_c, 0, 64, 127
2, 456662, Note_on_c, 0, 53, 0
2, 456782, Note_on_c, 0, 58, 0
2, 457082, Note_on_c, 0, 62, 0
2, 457342, Note_on_c, 0, 65, 0
2, 457502, Control_c, 0, 64, 0
2, 457592, Note_on_c, 0, 55, 48
2, 457622, Note_on_c, 0, 67, 52
2, 457622, Note_on_c, 0, 58, 46
2, 457632, Note_on_c, 0, 62, 50
2, 457762, Control_c, 0, 64, 127
2, 457852, Note_on_c, 0, 55, 0
2, 458082, Note_on_c, 0, 58, 0
2, 458142, Note_on_c, 0, 62, 0
2, 458602, Note_on_c, 0, 67, 0
2, 458792, Control_c, 0, 64, 0
2, 458952, Note_on_c, 0, 40, 32
2, 458992, Note_on_c, 0, 62, 49
2, 459002, Note_on_c, 0, 69, 43
2, 459002, Note_on_c, 0, 55, 40
2, 459012, Note_on_c, 0, 66, 37
2, 459022, Control_c, 0, 64, 127
2, 459052, Note_on_c, 0, 40, 0
2, 459072, Note_on_c, 0, 62, 0
2, 459142, Note_on_c, 0, 66, 0
2, 459182, Note_on_c, 0, 69, 0
2, 459242, Note_on_c, 0, 55, 0
2, 459732, Note_on_c, 0, 81, 63
2, 459732, Note_on_c, 0, 74, 61
2, 459922, Note_on_c, 0, 74, 0
2, 459922, Note_on_c, 0, 81, 0
2, 460132, Note_on_c, 0, 78, 63
2, 460172, Note_on_c, 0, 69, 49
2, 460342, Note_on_c, 0, 69, 0
2, 460382, Note_on_c, 0, 78, 0
2, 460432, Control_c, 0, 64, 0
2, 460542, Note_on_c, 0, 62, 36
2, 460552, Note_on_c, 0, 57, 38
2, 460562, Note_on_c, 0, 58, 42
2, 460582, Note_on_c, 0, 52, 36
2, 460582, Note_on_c, 0, 74, 57
2, 460602, Note_on_c, 0, 81, 55
2, 460832, Control_c, 0, 64, 127
2, 460882, Note_on_c, 0, 81, 0
2, 460892, Note_on_c, 0, 74, 0
2, 460982, Note_on_c, 0, 58, 0
2, 461002, Note_on_c, 0, 78, 43
2, 461082, Note_on_c, 0, 52, 0
2, 461082, Note_on_c, 0, 57, 0
2, 461112, Note_on_c, 0, 62, 0
2, 461232, Note_on_c, 0, 78, 0
2, 461512, Note_on_c, 0, 62, 50
2, 461522, Note_on_c, 0, 81, 61
2, 461542, Control_c, 0, 64, 0
2, 461552, Note_on_c, 0, 74, 54
2, 461572, Note_on_c, 0, 69, 45
2, 461572, Note_on_c, 0, 58, 44
2, 461572, Note_on_c, 0, 57, 39
2, 461602, Note_on_c, 0, 52, 38
2, 461792, Note_on_c, 0, 69, 0
2, 461922, Control_c, 0, 64, 127
2, 462162, Note_on_c, 0, 74, 0
2, 462262, Note_on_c, 0, 58, 0
2, 462282, Note_on_c, 0, 81, 0
2, 462312, Note_on_c, 0, 52, 0
2, 462322, Note_on_c, 0, 62, 0
2, 462332, Note_on_c, 0, 57, 0
2, 462652, Note_on_c, 0, 81, 66
2, 462652, Note_on_c, 0, 74, 63
2, 462652, Note_on_c, 0, 62, 48
2, 462662, Note_on_c, 0, 69, 56
2, 462712, Note_on_c, 0, 57, 43
2, 462722, Note_on_c, 0, 58, 44
2, 462742, Note_on_c, 0, 52, 35
2, 462832, Note_on_c, 0, 69, 0
2, 462872, Note_on_c, 0, 81, 0
2, 462892, Control_c, 0, 64, 0
2, 462912, Note_on_c, 0, 74, 0
2, 462972, Note_on_c, 0, 58, 0
2, 462972, Note_on_c, 0, 52, 0
2, 462992, Note_on_c, 0, 57, 0
2, 463022, Note_on_c, 0, 62, 0
2, 463062, Note_on_c, 0, 78, 64
2, 463292, Note_on_c, 0, 78, 0
2, 463462, Control_c, 0, 64, 127
2, 463472, Note_on_c, 0, 62, 55
2, 463492, Note_on_c, 0, 81, 75
2, 463502, Note_on_c, 0, 58, 49
2, 463512, Note_on_c, 0, 57, 45
2, 463512, Note_on_c, 0, 74, 61
2, 463532, Note_on_c, 0, 69, 56
2, 463682, Note_on_c, 0, 69, 0
2, 463772, Note_on_c, 0, 74, 0
2, 463782, Note_on_c, 0, 81, 0
2, 463822, Note_on_c, 0, 57, 0
2, 463872, Note_on_c, 0, 58, 0
2, 463942, Note_on_c, 0, 62, 0
2, 463972, Note_on_c, 0, 78, 64
2, 464172, Note_on_c, 0, 78, 0
2, 464342, Control_c, 0, 64, 0
2, 464392, Note_on_c, 0, 65, 57
2, 464402, Note_on_c, 0, 84, 85
2, 464422, Note_on_c, 0, 77, 82
2, 464432, Note_on_c, 0, 61, 51
2, 464432, Note_on_c, 0, 60, 52
2, 464442, Note_on_c, 0, 55, 49
2, 464522, Note_on_c, 0, 58, 35
2, 464722, Control_c, 0, 64, 127
2, 464842, Note_on_c, 0, 84, 0
2, 464862, Note_on_c, 0, 81, 49
2, 464872, Note_on_c, 0, 72, 35
2, 464882, Note_on_c, 0, 77, 0
2, 464932, Note_on_c, 0, 58, 0
2, 464972, Note_on_c, 0, 61, 0
2, 464982, Note_on_c, 0, 65, 0
2, 464982, Note_on_c, 0, 60, 0
2, 464982, Note_on_c, 0, 55, 0
2, 465042, Note_on_c, 0, 72, 0
2, 465132, Note_on_c, 0, 81, 0
2, 465292, Note_on_c, 0, 84, 81
2, 465292, Note_on_c, 0, 65, 63
2, 465292, Note_on_c, 0, 77, 83
2, 465322, Note_on_c, 0, 60, 57
2, 465322, Note_on_c, 0, 61, 52
2, 465342, Note_on_c, 0, 55, 48
2, 465602, Note_on_c, 0, 77, 0
2, 465632, Note_on_c, 0, 84, 0
2, 465702, Note_on_c, 0, 61, 0
2, 465732, Note_on_c, 0, 60, 0
2, 465732, Note_on_c, 0, 55, 0
2, 465742, Note_on_c, 0, 72, 41
2, 465762, Note_on_c, 0, 81, 48
2, 465772, Note_on_c, 0, 65, 0
2, 465872, Note_on_c, 0, 72, 0
2, 465982, Note_on_c, 0, 81, 0
2, 466002, Control_c, 0, 64, 0
2, 466182, Note_on_c, 0, 77, 89
2, 466182, Note_on_c, 0, 84, 85
2, 466182, Note_on_c, 0, 65, 74
2, 466202, Note_on_c, 0, 60, 57
2, 466202, Note_on_c, 0, 61, 58
2, 466212, Note_on_c, 0, 55, 58
2, 466212, Control_c, 0, 64, 127
2, 466662, Note_on_c, 0, 84, 0
2, 466742, Note_on_c, 0, 77, 0
2, 466762, Note_on_c, 0, 61, 0
2, 466762, Note_on_c, 0, 55, 0
2, 466802, Note_on_c, 0, 65, 0
2, 466852, Note_on_c, 0, 60, 0
2, 467082, Note_on_c, 0, 81, 83
2, 467082, Note_on_c, 0, 73, 83
2, 467092, Control_c, 0, 64, 0
2, 467102, Note_on_c, 0, 69, 77
2, 467112, Note_on_c, 0, 65, 85
2, 467122, Note_on_c, 0, 77, 78
2, 467122, Note_on_c, 0, 61, 68
2, 467132, Note_on_c, 0, 60, 74
2, 467142, Note_on_c, 0, 55, 73
2, 467482, Control_c, 0, 64, 127
2, 467892, Note_on_c, 0, 65, 0
2, 468022, Note_on_c, 0, 69, 0
2, 468022, Note_on_c, 0, 60, 0
2, 468032, Note_on_c, 0, 55, 0
2, 468042, Note_on_c, 0, 61, 0
2, 468152, Note_on_c, 0, 81, 0
2, 468172, Note_on_c, 0, 73, 0
2, 468192, Note_on_c, 0, 77, 0
2, 468522, Note_on_c, 0, 73, 87
2, 468532, Note_on_c, 0, 81, 78
2, 468532, Note_on_c, 0, 65, 86
2, 468542, Note_on_c, 0, 69, 85
2, 468542, Note_on_c, 0, 61, 68
2, 468542, Note_on_c, 0, 77, 73
2, 468552, Note_on_c, 0, 60, 63
2, 468572, Note_on_c, 0, 55, 59
2, 468652, Note_on_c, 0, 58, 31
2, 468692, Note_on_c, 0, 65, 0
2, 468752, Note_on_c, 0, 60, 0
2, 468802, Note_on_c, 0, 69, 0
2, 468822, Note_on_c, 0, 61, 0
2, 468832, Note_on_c, 0, 58, 0
2, 468862, Note_on_c, 0, 81, 0
2, 468862, Note_on_c, 0, 55, 0
2, 468882, Note_on_c, 0, 73, 0
2, 468932, Note_on_c, 0, 77, 0
2, 469092, Note_on_c, 0, 81, 60
2, 469102, Note_on_c, 0, 73, 68
2, 469112, Note_on_c, 0, 69, 72
2, 469132, Note_on_c, 0, 79, 54
2, 469142, Note_on_c, 0, 77, 47
2, 469292, Note_on_c, 0, 69, 0
2, 469312, Note_on_c, 0, 81, 0
2, 469362, Note_on_c, 0, 79, 0
2, 469452, Note_on_c, 0, 77, 0
2, 469462, Note_on_c, 0, 73, 0
2, 469992, Note_on_c, 0, 73, 90
2, 469992, Note_on_c, 0, 68, 115
2, 469992, Note_on_c, 0, 80, 92
2, 470052, Note_on_c, 0, 77, 57
2, 470112, Note_on_c, 0, 77, 0
2, 470112, Note_on_c, 0, 68, 0
2, 470232, Note_on_c, 0, 80, 0
2, 470232, Note_on_c, 0, 73, 0
2, 470412, Control_c, 0, 64, 0
2, 470462, Note_on_c, 0, 38, 54
2, 470492, Note_on_c, 0, 45, 40
2, 470512, Note_on_c, 0, 80, 72
2, 470512, Note_on_c, 0, 53, 52
2, 470512, Note_on_c, 0, 68, 77
2, 470532, Note_on_c, 0, 73, 61
2, 470592, Note_on_c, 0, 73, 0
2, 470592, Note_on_c, 0, 77, 50
2, 470702, Note_on_c, 0, 38, 0
2, 470832, Note_on_c, 0, 45, 0
2, 470872, Note_on_c, 0, 80, 0
2, 470872, Note_on_c, 0, 77, 0
2, 470902, Note_on_c, 0, 68, 0
2, 470902, Note_on_c, 0, 69, 63
2, 470922, Note_on_c, 0, 53, 0
2, 471072, Note_on_c, 0, 69, 0
2, 471102, Note_on_c, 0, 81, 33
2, 471142, Note_on_c, 0, 77, 54
2, 471202, Note_on_c, 0, 81, 0
2, 471332, Note_on_c, 0, 69, 47
2, 471382, Note_on_c, 0, 77, 0
2, 471582, Note_on_c, 0, 81, 31
2, 471612, Note_on_c, 0, 69, 0
2, 471612, Note_on_c, 0, 74, 58
2, 471672, Note_on_c, 0, 74, 0
2, 471672, Note_on_c, 0, 81, 0
2, 471842, Note_on_c, 0, 60, 61
2, 471862, Note_on_c, 0, 77, 76
2, 471882, Note_on_c, 0, 50, 41
2, 471912, Note_on_c, 0, 57, 42
2, 471912, Note_on_c, 0, 53, 49
2, 471912, Note_on_c, 0, 72, 66
2, 471922, Note_on_c, 0, 65, 48
2, 472472, Note_on_c, 0, 77, 0
2, 472522, Note_on_c, 0, 72, 0
2, 472532, Note_on_c, 0, 53, 0
2, 472552, Note_on_c, 0, 50, 0
2, 472562, Note_on_c, 0, 57, 0
2, 472562, Control_c, 0, 64, 127
2, 472742, Note_on_c, 0, 65, 0
2, 472792, Note_on_c, 0, 60, 0
2, 473052, Control_c, 0, 64, 0
2, 473112, Note_on_c, 0, 62, 59
2, 473252, Note_on_c, 0, 76, 77
2, 473252, Note_on_c, 0, 65, 80
2, 473252, Note_on_c, 0, 69, 77
2, 473272, Note_on_c, 0, 68, 48
2, 473282, Note_on_c, 0, 64, 63
2, 473312, Note_on_c, 0, 62, 0
2, 473352, Note_on_c, 0, 68, 0
2, 473602, Control_c, 0, 64, 127
2, 473892, Note_on_c, 0, 64, 0
2, 473902, Note_on_c, 0, 65, 0
2, 473992, Note_on_c, 0, 69, 0
2, 474002, Note_on_c, 0, 76, 0
2, 474092, Note_on_c, 0, 62, 69
2, 474092, Note_on_c, 0, 65, 62
2, 474112, Note_on_c, 0, 74, 68
2, 474122, Note_on_c, 0, 69, 50
2, 474332, Note_on_c, 0, 69, 0
2, 474382, Note_on_c, 0, 65, 0
2, 474412, Control_c, 0, 64, 0
2, 474532, Note_on_c, 0, 62, 0
2, 474572, Control_c, 0, 64, 127
2, 474602, Note_on_c, 0, 65, 49
2, 474612, Note_on_c, 0, 60, 63
2, 474612, Note_on_c, 0, 69, 60
2, 474722, Note_on_c, 0, 74, 0
2, 474812, Note_on_c, 0, 60, 0
2, 474942, Note_on_c, 0, 69, 0
2, 474972, Note_on_c, 0, 65, 0
2, 475462, Note_on_c, 0, 34, 52
2, 475542, Note_on_c, 0, 34, 0
2, 475842, Control_c, 0, 64, 0
2, 475942, Note_on_c, 0, 56, 68
2, 475962, Note_on_c, 0, 67, 63
2, 475962, Note_on_c, 0, 60, 68
2, 475982, Note_on_c, 0, 62, 56
2, 476012, Note_on_c, 0, 57, 47
2, 476212, Control_c, 0, 64, 127
2, 476272, Note_on_c, 0, 57, 0
2, 476882, Note_on_c, 0, 56, 0
2, 476922, Note_on_c, 0, 60, 0
2, 476932, Note_on_c, 0, 67, 0
2, 476952, Note_on_c, 0, 62, 0
2, 477222, Control_c, 0, 64, 0
2, 477322, Note_on_c, 0, 56, 56
2, 477352, Note_on_c, 0, 46, 48
2, 477372, Note_on_c, 0, 60, 49
2, 477392, Note_on_c, 0, 65, 36
2, 477482, Note_on_c, 0, 62, 25
2, 477512, Control_c, 0, 64, 127
2, 477762, Note_on_c, 0, 65, 0
2, 477802, Note_on_c, 0, 62, 0
2, 477862, Note_on_c, 0, 60, 0
2, 477892, Note_on_c, 0, 46, 0
2, 477912, Note_on_c, 0, 56, 0
2, 478292, Note_on_c, 0, 55, 54
2, 478292, Note_on_c, 0, 64, 51
2, 478302, Note_on_c, 0, 58, 52
2, 478332, Note_on_c, 0, 61, 43
2, 478372, Note_on_c, 0, 55, 0
2, 478442, Control_c, 0, 64, 0
2, 478552, Note_on_c, 0, 58, 0
2, 478622, Note_on_c, 0, 64, 0
2, 478632, Note_on_c, 0, 61, 0
2, 478672, Note_on_c, 0, 45, 43
2, 478692, Note_on_c, 0, 52, 39
2, 479292, Note_on_c, 0, 68, 85
2, 479502, Note_on_c, 0, 68, 0
2, 479652, Note_on_c, 0, 69, 82
2, 479892, Note_on_c, 0, 69, 0
2, 479962, Note_on_c, 0, 52, 0
2, 480042, Note_on_c, 0, 55, 50
2, 480062, Note_on_c, 0, 74, 77
2, 480122, Note_on_c, 0, 45, 0
2, 480152, Note_on_c, 0, 55, 0
2, 480252, Note_on_c, 0, 74, 0
2, 480502, Note_on_c, 0, 76, 50
2, 480592, Note_on_c, 0, 76, 0
2, 480822, Control_c, 0, 64, 127
2, 480932, Note_on_c, 0, 79, 120
2, 481132, Control_c, 0, 64, 0
2, 481252, Note_on_c, 0, 79, 0
2, 481322, Note_on_c, 0, 38, 47
2, 481392, Note_on_c, 0, 53, 49
2, 481392, Note_on_c, 0, 77, 75
2, 481422, Control_c, 0, 64, 127
2, 481472, Note_on_c, 0, 79, 36
2, 481552, Note_on_c, 0, 79, 0
2, 481572, Note_on_c, 0, 38, 0
2, 481802, Note_on_c, 0, 53, 0
2, 481882, Note_on_c, 0, 77, 0
2, 481882, Note_on_c, 0, 69, 48
2, 482152, Note_on_c, 0, 69, 0
2, 482362, Note_on_c, 0, 69, 13
2, 482512, Note_on_c, 0, 69, 0
2, 482712, Control_c, 0, 64, 0
2, 482782, Note_on_c, 0, 60, 51
2, 482792, Note_on_c, 0, 69, 63
2, 482812, Note_on_c, 0, 74, 57
2, 482852, Note_on_c, 0, 57, 42
2, 482872, Note_on_c, 0, 53, 41
2, 482882, Note_on_c, 0, 50, 34
2, 482972, Control_c, 0, 64, 104
2, 482982, Control_c, 0, 64, 127
2, 483222, Note_on_c, 0, 57, 0
2, 483242, Note_on_c, 0, 60, 0
2, 483252, Note_on_c, 0, 53, 0
2, 483322, Note_on_c, 0, 69, 0
2, 483342, Note_on_c, 0, 50, 0
2, 483652, Note_on_c, 0, 74, 0
2, 484192, Control_c, 0, 64, 0
2, 484262, Note_on_c, 0, 58, 56
2, 484262, Note_on_c, 0, 63, 64
2, 484272, Note_on_c, 0, 67, 60
2, 484272, Note_on_c, 0, 48, 52
2, 484282, Note_on_c, 0, 62, 60
2, 484492, Control_c, 0, 64, 127
2, 485022, Note_on_c, 0, 58, 0
2, 485142, Note_on_c, 0, 62, 0
2, 485202, Note_on_c, 0, 63, 0
2, 485292, Note_on_c, 0, 67, 0
2, 485292, Note_on_c, 0, 48, 0
2, 485662, Control_c, 0, 64, 0
2, 485682, Note_on_c, 0, 62, 79
2, 485702, Note_on_c, 0, 57, 55
2, 485712, Note_on_c, 0, 66, 57
2, 485752, Note_on_c, 0, 47, 43
2, 485992, Control_c, 0, 64, 127
2, 486492, Note_on_c, 0, 47, 0
2, 486562, Note_on_c, 0, 57, 0
2, 486592, Note_on_c, 0, 62, 0
2, 486672, Note_on_c, 0, 66, 0
2, 486932, Control_c, 0, 64, 0
2, 487082, Note_on_c, 0, 46, 53
2, 487102, Note_on_c, 0, 65, 57
2, 487102, Note_on_c, 0, 61, 52
2, 487102, Note_on_c, 0, 56, 43
2, 487342, Control_c, 0, 64, 127
2, 487552, Note_on_c, 0, 61, 0
2, 487552, Note_on_c, 0, 46, 0
2, 487582, Note_on_c, 0, 65, 0
2, 487622, Note_on_c, 0, 56, 0
2, 488412, Control_c, 0, 64, 0
2, 488472, Note_on_c, 0, 76, 72
2, 488472, Note_on_c, 0, 67, 71
2, 488492, Note_on_c, 0, 72, 64
2, 488532, Note_on_c, 0, 56, 61
2, 488542, Note_on_c, 0, 62, 58
2, 488662, Control_c, 0, 64, 127
2, 488982, Note_on_c, 0, 76, 0
2, 489002, Note_on_c, 0, 67, 0
2, 489012, Note_on_c, 0, 62, 0
2, 489032, Note_on_c, 0, 72, 0
2, 489422, Note_on_c, 0, 56, 0
2, 489702, Control_c, 0, 64, 0
2, 489842, Note_on_c, 0, 77, 60
2, 489852, Note_on_c, 0, 69, 58
2, 489852, Note_on_c, 0, 72, 58
2, 489872, Note_on_c, 0, 65, 56
2, 489892, Note_on_c, 0, 61, 50
2, 489892, Note_on_c, 0, 55, 53
2, 490002, Control_c, 0, 64, 127
2, 490092, Note_on_c, 0, 77, 0
2, 490122, Note_on_c, 0, 61, 0
2, 490162, Note_on_c, 0, 55, 0
2, 490212, Note_on_c, 0, 72, 0
2, 490232, Note_on_c, 0, 69, 0
2, 490292, Note_on_c, 0, 65, 0
2, 490742, Note_on_c, 0, 45, 43
2, 491092, Control_c, 0, 64, 0
2, 491192, Note_on_c, 0, 55, 54
2, 491212, Note_on_c, 0, 45, 0
2, 491222, Note_on_c, 0, 70, 65
2, 491232, Note_on_c, 0, 66, 66
2, 491262, Note_on_c, 0, 61, 56
2, 491372, Control_c, 0, 64, 127
2, 491452, Note_on_c, 0, 55, 0
2, 491812, Note_on_c, 0, 61, 0
2, 491842, Note_on_c, 0, 70, 0
2, 491882, Note_on_c, 0, 66, 0
2, 492102, Note_on_c, 0, 62, 65
2, 492112, Note_on_c, 0, 65, 63
2, 492112, Note_on_c, 0, 69, 61
2, 492192, Note_on_c, 0, 62, 0
2, 492282, Note_on_c, 0, 65, 0
2, 492302, Note_on_c, 0, 69, 0
2, 492412, Control_c, 0, 64, 0
2, 492462, Note_on_c, 0, 38, 49
2, 492552, Note_on_c, 0, 53, 33
2, 492682, Control_c, 0, 64, 127
2, 492812, Note_on_c, 0, 38, 0
2, 492992, Note_on_c, 0, 53, 0
2, 493462, Note_on_c, 0, 62, 81
2, 494522, Note_on_c, 0, 62, 0
2, 494802, Note_on_c, 0, 61, 77
2, 494822, Note_on_c, 0, 64, 73
2, 494852, Control_c, 0, 64, 0
2, 495012, Control_c, 0, 64, 127
2, 495312, Note_on_c, 0, 64, 0
2, 495322, Note_on_c, 0, 61, 0
2, 495512, Control_c, 0, 64, 0
2, 495612, Note_on_c, 0, 62, 71
2, 495612, Note_on_c, 0, 65, 66
2, 495652, Note_on_c, 0, 60, 57
2, 495862, Control_c, 0, 64, 127
2, 496892, Note_on_c, 0, 65, 0
2, 496952, Note_on_c, 0, 62, 0
2, 496982, Note_on_c, 0, 60, 0
2, 497762, Control_c, 0, 64, 0
2, 497792, Note_on_c, 0, 67, 80
2, 497792, Note_on_c, 0, 62, 85
2, 497812, Control_c, 0, 64, 127
2, 497822, Note_on_c, 0, 59, 60
2, 497992, Note_on_c, 0, 67, 0
2, 498052, Note_on_c, 0, 62, 0
2, 498122, Note_on_c, 0, 59, 0
2, 498712, Note_on_c, 0, 68, 68
2, 498722, Note_on_c, 0, 65, 69
2, 498742, Note_on_c, 0, 62, 69
2, 498762, Note_on_c, 0, 58, 68
2, 498762, Control_c, 0, 64, 0
2, 499042, Control_c, 0, 64, 127
2, 499232, Note_on_c, 0, 62, 0
2, 499252, Note_on_c, 0, 68, 0
2, 499272, Note_on_c, 0, 65, 0
2, 499552, Note_on_c, 0, 58, 0
2, 499582, Control_c, 0, 64, 0
2, 499622, Note_on_c, 0, 69, 69
2, 499632, Note_on_c, 0, 57, 64
2, 499632, Note_on_c, 0, 65, 68
2, 499632, Note_on_c, 0, 62, 72
2, 499912, Control_c, 0, 64, 127
2, 500082, Note_on_c, 0, 62, 0
2, 500122, Note_on_c, 0, 65, 0
2, 500132, Note_on_c, 0, 69, 0
2, 500762, Control_c, 0, 64, 0
2, 500812, Note_on_c, 0, 71, 68
2, 500822, Note_on_c, 0, 68, 63
2, 500832, Note_on_c, 0, 65, 68
2, 500832, Note_on_c, 0, 62, 68
2, 500852, Note_on_c, 0, 56, 66
2, 500922, Note_on_c, 0, 57, 0
2, 501102, Control_c, 0, 64, 127
2, 501472, Note_on_c, 0, 62, 0
2, 501502, Note_on_c, 0, 65, 0
2, 501502, Note_on_c, 0, 71, 0
2, 501562, Note_on_c, 0, 68, 0
2, 502202, Note_on_c, 0, 72, 76
2, 502212, Note_on_c, 0, 56, 0
2, 502222, Control_c, 0, 64, 0
2, 502222, Note_on_c, 0, 67, 73
2, 502232, Note_on_c, 0, 64, 70
2, 502282, Note_on_c, 0, 55, 56
2, 502592, Control_c, 0, 64, 127
2, 503242, Note_on_c, 0, 64, 0
2, 503412, Note_on_c, 0, 55, 0
2, 503412, Note_on_c, 0, 67, 0
2, 503432, Note_on_c, 0, 72, 0
2, 504242, Note_on_c, 0, 65, 44
2, 504242, Note_on_c, 0, 76, 55
2, 504262, Note_on_c, 0, 69, 48
2, 504272, Control_c, 0, 64, 0
2, 504292, Note_on_c, 0, 71, 41
2, 504762, Note_on_c, 0, 65, 0
2, 504822, Control_c, 0, 64, 127
2, 504832, Note_on_c, 0, 76, 0
2, 504892, Note_on_c, 0, 69, 0
2, 504932, Note_on_c, 0, 71, 0
2, 505172, Note_on_c, 0, 77, 63
2, 505202, Note_on_c, 0, 76, 50
2, 505202, Note_on_c, 0, 64, 54
2, 505212, Note_on_c, 0, 71, 47
2, 505222, Note_on_c, 0, 69, 41
2, 505262, Control_c, 0, 64, 0
2, 505352, Control_c, 0, 64, 127
2, 505752, Note_on_c, 0, 76, 0
2, 505872, Note_on_c, 0, 77, 0
2, 505902, Note_on_c, 0, 64, 0
2, 505922, Note_on_c, 0, 69, 0
2, 505992, Note_on_c, 0, 71, 0
2, 506612, Note_on_c, 0, 77, 63
2, 506632, Note_on_c, 0, 71, 58
2, 506642, Note_on_c, 0, 69, 56
2, 506652, Note_on_c, 0, 65, 56
2, 506912, Note_on_c, 0, 65, 0
2, 507122, Note_on_c, 0, 77, 0
2, 507192, Note_on_c, 0, 59, 52
2, 507212, Note_on_c, 0, 69, 0
2, 507232, Note_on_c, 0, 71, 0
2, 507962, Control_c, 0, 64, 0
2, 508242, Note_on_c, 0, 71, 36
2, 508342, Note_on_c, 0, 71, 0
2, 508342, Note_on_c, 0, 72, 43
2, 508402, Note_on_c, 0, 59, 0
2, 508462, Note_on_c, 0, 72, 0
2, 508472, Note_on_c, 0, 74, 44
2, 508552, Note_on_c, 0, 74, 0
2, 508622, Note_on_c, 0, 76, 45
2, 508692, Note_on_c, 0, 76, 0
2, 508772, Note_on_c, 0, 77, 46
2, 508832, Note_on_c, 0, 77, 0
2, 508922, Note_on_c, 0, 79, 41
2, 508992, Note_on_c, 0, 79, 0
2, 509042, Note_on_c, 0, 81, 48
2, 509112, Note_on_c, 0, 81, 0
2, 509202, Note_on_c, 0, 83, 39
2, 509282, Note_on_c, 0, 83, 0
2, 509322, Note_on_c, 0, 84, 45
2, 509392, Note_on_c, 0, 84, 0
2, 509472, Note_on_c, 0, 86, 48
2, 509532, Note_on_c, 0, 86, 0
2, 509592, Note_on_c, 0, 88, 51
2, 509662, Note_on_c, 0, 88, 0
2, 509722, Note_on_c, 0, 89, 58
2, 509832, Note_on_c, 0, 89, 0
2, 509992, Note_on_c, 0, 52, 47
2, 509992, Note_on_c, 0, 62, 45
2, 510052, Note_on_c, 0, 88, 83
2, 510432, Note_on_c, 0, 52, 0
2, 510552, Note_on_c, 0, 88, 0
2, 510602, Note_on_c, 0, 62, 0
2, 510622, Note_on_c, 0, 89, 63
2, 510802, Note_on_c, 0, 88, 60
2, 510812, Note_on_c, 0, 89, 0
2, 510982, Note_on_c, 0, 88, 0
2, 510992, Note_on_c, 0, 86, 57
2, 511152, Note_on_c, 0, 86, 0
2, 511272, Note_on_c, 0, 84, 55
2, 511402, Note_on_c, 0, 56, 39
2, 511462, Note_on_c, 0, 62, 35
2, 511522, Note_on_c, 0, 84, 0
2, 511572, Note_on_c, 0, 83, 46
2, 511812, Note_on_c, 0, 83, 0
2, 511812, Note_on_c, 0, 62, 0
2, 511932, Note_on_c, 0, 86, 66
2, 511982, Note_on_c, 0, 56, 0
2, 512162, Note_on_c, 0, 86, 0
2, 512312, Note_on_c, 0, 83, 56
2, 512482, Note_on_c, 0, 83, 0
2, 512712, Note_on_c, 0, 62, 33
2, 512722, Note_on_c, 0, 56, 41
2, 512792, Note_on_c, 0, 52, 20
2, 512852, Note_on_c, 0, 80, 52
2, 513112, Note_on_c, 0, 52, 0
2, 513172, Note_on_c, 0, 56, 0
2, 513202, Note_on_c, 0, 80, 0
2, 513232, Control_c, 0, 64, 127
2, 513272, Note_on_c, 0, 76, 61
2, 513302, Note_on_c, 0, 62, 0
2, 513582, Note_on_c, 0, 76, 0
2, 514002, Note_on_c, 0, 56, 56
2, 514032, Note_on_c, 0, 67, 41
2, 514072, Note_on_c, 0, 62, 42
2, 514082, Control_c, 0, 64, 0
2, 514132, Note_on_c, 0, 67, 0
2, 514162, Note_on_c, 0, 62, 0
2, 514342, Note_on_c, 0, 56, 0
2, 514472, Note_on_c, 0, 74, 63
2, 514702, Control_c, 0, 64, 127
2, 514742, Note_on_c, 0, 74, 0
2, 514852, Note_on_c, 0, 72, 67
2, 514872, Note_on_c, 0, 52, 49
2, 515072, Note_on_c, 0, 72, 0
2, 515152, Control_c, 0, 64, 0
2, 515222, Note_on_c, 0, 52, 0
2, 515332, Note_on_c, 0, 55, 49
2, 515332, Note_on_c, 0, 45, 46
2, 515342, Note_on_c, 0, 77, 81
2, 515402, Control_c, 0, 64, 127
2, 515442, Note_on_c, 0, 45, 0
2, 515552, Note_on_c, 0, 55, 0
2, 515812, Note_on_c, 0, 65, 30
2, 515952, Note_on_c, 0, 65, 0
2, 516122, Note_on_c, 0, 77, 0
2, 516222, Note_on_c, 0, 70, 69
2, 516482, Note_on_c, 0, 70, 0
2, 516722, Note_on_c, 0, 69, 51
2, 517272, Note_on_c, 0, 69, 0
2, 518102, Control_c, 0, 64, 0
2, 518102, Note_on_c, 0, 72, 67
2, 518142, Note_on_c, 0, 65, 69
2, 518142, Note_on_c, 0, 61, 62
2, 518172, Note_on_c, 0, 60, 56
2, 518182, Note_on_c, 0, 69, 48
2, 518442, Note_on_c, 0, 69, 0
2, 518452, Note_on_c, 0, 61, 0
2, 518472, Note_on_c, 0, 72, 0
2, 518502, Note_on_c, 0, 65, 0
2, 518572, Note_on_c, 0, 60, 0
2, 518642, Note_on_c, 0, 58, 44
2, 519052, Note_on_c, 0, 58, 0
2, 519062, Note_on_c, 0, 70, 63
2, 519072, Note_on_c, 0, 61, 63
2, 519072, Note_on_c, 0, 65, 58
2, 519092, Note_on_c, 0, 57, 54
2, 519502, Control_c, 0, 64, 127
2, 519742, Note_on_c, 0, 70, 0
2, 519792, Note_on_c, 0, 61, 0
2, 519832, Note_on_c, 0, 65, 0
2, 519972, Note_on_c, 0, 57, 0
2, 519972, Note_on_c, 0, 69, 61
2, 520212, Note_on_c, 0, 69, 0
2, 520442, Note_on_c, 0, 57, 46
2, 520612, Note_on_c, 0, 57, 0
2, 520662, Control_c, 0, 64, 0
2, 520962, Note_on_c, 0, 50, 44
2, 520962, Note_on_c, 0, 60, 40
2, 520972, Note_on_c, 0, 64, 46
2, 520972, Note_on_c, 0, 68, 39
2, 520972, Note_on_c, 0, 74, 44
2, 521002, Note_on_c, 0, 71, 49
2, 521032, Note_on_c, 0, 54, 45
2, 521122, Control_c, 0, 64, 127
2, 521592, Note_on_c, 0, 54, 0
2, 521632, Note_on_c, 0, 64, 0
2, 521662, Note_on_c, 0, 60, 0
2, 521802, Note_on_c, 0, 68, 0
2, 521832, Note_on_c, 0, 71, 0
2, 521922, Note_on_c, 0, 50, 0
2, 521992, Note_on_c, 0, 74, 0
2, 522382, Control_c, 0, 64, 0
2, 522412, Note_on_c, 0, 61, 59
2, 522412, Note_on_c, 0, 51, 63
2, 522572, Control_c, 0, 64, 127
2, 523112, Note_on_c, 0, 61, 0
2, 523212, Note_on_c, 0, 51, 0
2, 523272, Note_on_c, 0, 68, 75
2, 523282, Note_on_c, 0, 74, 63
2, 523302, Note_on_c, 0, 71, 63
2, 523312, Note_on_c, 0, 50, 63
2, 523322, Note_on_c, 0, 60, 58
2, 523322, Control_c, 0, 64, 0
2, 523342, Note_on_c, 0, 54, 48
2, 523622, Note_on_c, 0, 74, 0
2, 523642, Note_on_c, 0, 68, 0
2, 523682, Note_on_c, 0, 60, 0
2, 523682, Note_on_c, 0, 71, 0
2, 523842, Note_on_c, 0, 68, 67
2, 523842, Note_on_c, 0, 74, 63
2, 523842, Note_on_c, 0, 60, 70
2, 523862, Note_on_c, 0, 71, 69
2, 523862, Note_on_c, 0, 64, 68
2, 523942, Control_c, 0, 64, 127
2, 524252, Note_on_c, 0, 50, 0
2, 524382, Note_on_c, 0, 64, 0
2, 524442, Note_on_c, 0, 68, 0
2, 524472, Note_on_c, 0, 74, 0
2, 524472, Note_on_c, 0, 71, 0
2, 524592, Note_on_c, 0, 60, 0
2, 524732, Note_on_c, 0, 50, 68
2, 524732, Note_on_c, 0, 68, 79
2, 524732, Note_on_c, 0, 74, 68
2, 524752, Note_on_c, 0, 71, 70
2, 524752, Note_on_c, 0, 64, 70
2, 524832, Note_on_c, 0, 54, 0
2, 524902, Note_on_c, 0, 50, 0
2, 525222, Control_c, 0, 64, 0
2, 525312, Note_on_c, 0, 45, 55
2, 525332, Note_on_c, 0, 43, 63
2, 525342, Note_on_c, 0, 33, 57
2, 525342, Note_on_c, 0, 31, 57
2, 525402, Note_on_c, 0, 43, 0
2, 525412, Note_on_c, 0, 31, 0
2, 525512, Control_c, 0, 64, 127
2, 525872, Note_on_c, 0, 33, 0
2, 525912, Note_on_c, 0, 45, 0
2, 525992, Control_c, 0, 64, 0
2, 526122, Control_c, 0, 64, 127
2, 526162, Note_on_c, 0, 64, 0
2, 526242, Note_on_c, 0, 74, 0
2, 526252, Note_on_c, 0, 71, 0
2, 526272, Note_on_c, 0, 44, 82
2, 526282, Note_on_c, 0, 32, 81
2, 526302, Note_on_c, 0, 68, 0
2, 526452, Note_on_c, 0, 44, 0
2, 526552, Note_on_c, 0, 32, 0
2, 526582, Control_c, 0, 64, 0
2, 526842, Note_on_c, 0, 31, 77
2, 526862, Note_on_c, 0, 43, 68
2, 526862, Note_on_c, 0, 76, 85
2, 526862, Note_on_c, 0, 73, 74
2, 526872, Note_on_c, 0, 69, 85
2, 526902, Note_on_c, 0, 64, 68
2, 526902, Control_c, 0, 64, 127
2, 527042, Note_on_c, 0, 31, 0
2, 527102, Note_on_c, 0, 43, 0
2, 527262, Note_on_c, 0, 64, 0
2, 527402, Note_on_c, 0, 69, 0
2, 527462, Note_on_c, 0, 73, 0
2, 527482, Note_on_c, 0, 76, 0
2, 527832, Note_on_c, 0, 73, 81
2, 527832, Note_on_c, 0, 76, 89
2, 527842, Note_on_c, 0, 53, 73
2, 527842, Note_on_c, 0, 65, 88
2, 527842, Note_on_c, 0, 64, 73
2, 527842, Note_on_c, 0, 69, 86
2, 527862, Note_on_c, 0, 59, 67
2, 528202, Note_on_c, 0, 65, 0
2, 528252, Note_on_c, 0, 64, 0
2, 528252, Note_on_c, 0, 76, 0
2, 528262, Note_on_c, 0, 53, 0
2, 528282, Note_on_c, 0, 69, 0
2, 528332, Note_on_c, 0, 73, 0
2, 528362, Note_on_c, 0, 59, 0
2, 528432, Note_on_c, 0, 76, 75
2, 528442, Note_on_c, 0, 69, 78
2, 528442, Note_on_c, 0, 73, 81
2, 528452, Note_on_c, 0, 53, 71
2, 528452, Note_on_c, 0, 65, 80
2, 528472, Note_on_c, 0, 59, 62
2, 528472, Note_on_c, 0, 64, 75
2, 528712, Note_on_c, 0, 65, 0
2, 528752, Note_on_c, 0, 53, 0
2, 528752, Note_on_c, 0, 76, 0
2, 528752, Note_on_c, 0, 69, 0
2, 528762, Note_on_c, 0, 64, 0
2, 528802, Note_on_c, 0, 73, 0
2, 528832, Note_on_c, 0, 59, 0
2, 528912, Note_on_c, 0, 65, 53
2, 528922, Note_on_c, 0, 53, 57
2, 528922, Note_on_c, 0, 59, 40
2, 528922, Note_on_c, 0, 76, 48
2, 528922, Note_on_c, 0, 69, 61
2, 528922, Note_on_c, 0, 73, 64
2, 528922, Note_on_c, 0, 64, 55
2, 529052, Note_on_c, 0, 65, 0
2, 529102, Note_on_c, 0, 69, 0
2, 529102, Note_on_c, 0, 76, 0
2, 529112, Note_on_c, 0, 53, 0
2, 529112, Note_on_c, 0, 64, 0
2, 529142, Note_on_c, 0, 73, 0
2, 529182, Note_on_c, 0, 59, 0
2, 529192, Control_c, 0, 64, 0
2, 529452, Note_on_c, 0, 73, 71
2, 529452, Note_on_c, 0, 76, 80
2, 529452, Note_on_c, 0, 65, 83
2, 529452, Note_on_c, 0, 69, 81
2, 529452, Note_on_c, 0, 53, 78
2, 529452, Note_on_c, 0, 59, 75
2, 529452, Note_on_c, 0, 64, 78
2, 529722, Control_c, 0, 64, 127
2, 529732, Note_on_c, 0, 65, 0
2, 529742, Note_on_c, 0, 69, 0
2, 529762, Note_on_c, 0, 64, 0
2, 529772, Note_on_c, 0, 76, 0
2, 529782, Note_on_c, 0, 53, 0
2, 529802, Note_on_c, 0, 73, 0
2, 529812, Note_on_c, 0, 59, 0
2, 529962, Note_on_c, 0, 65, 42
2, 529962, Note_on_c, 0, 73, 55
2, 529992, Note_on_c, 0, 69, 57
2, 529992, Note_on_c, 0, 76, 45
2, 529992, Note_on_c, 0, 64, 39
2, 529992, Note_on_c, 0, 53, 40
2, 530012, Note_on_c, 0, 59, 41
2, 530062, Control_c, 0, 64, 0
2, 530072, Note_on_c, 0, 69, 0
2, 530092, Note_on_c, 0, 76, 0
2, 530102, Note_on_c, 0, 59, 0
2, 530112, Note_on_c, 0, 64, 0
2, 530112, Note_on_c, 0, 65, 0
2, 530122, Note_on_c, 0, 53, 0
2, 530142, Note_on_c, 0, 73, 0
2, 530462, Note_on_c, 0, 73, 68
2, 530462, Note_on_c, 0, 65, 82
2, 530462, Note_on_c, 0, 69, 81
2, 530462, Note_on_c, 0, 76, 76
2, 530482, Note_on_c, 0, 64, 84
2, 530492, Note_on_c, 0, 59, 79
2, 530492, Note_on_c, 0, 53, 82
2, 530752, Control_c, 0, 64, 127
2, 530982, Note_on_c, 0, 69, 0
2, 530982, Note_on_c, 0, 65, 0
2, 531042, Note_on_c, 0, 76, 0
2, 531042, Note_on_c, 0, 73, 0
2, 531042, Note_on_c, 0, 53, 0
2, 531082, Note_on_c, 0, 59, 0
2, 531082, Note_on_c, 0, 64, 0
2, 531232, Control_c, 0, 64, 0
2, 531392, Note_on_c, 0, 65, 81
2, 531392, Note_on_c, 0, 73, 67
2, 531392, Note_on_c, 0, 69, 76
2, 531392, Note_on_c, 0, 76, 78
2, 531392, Note_on_c, 0, 64, 74
2, 531392, Note_on_c, 0, 59, 68
2, 531392, Note_on_c, 0, 53, 71
2, 531442, Control_c, 0, 64, 127
2, 531542, Note_on_c, 0, 64, 0
2, 531612, Note_on_c, 0, 59, 0
2, 531742, Note_on_c, 0, 53, 0
2, 531852, Note_on_c, 0, 65, 0
2, 531872, Note_on_c, 0, 69, 0
2, 531962, Note_on_c, 0, 73, 0
2, 531992, Note_on_c, 0, 76, 0
2, 532332, Note_on_c, 0, 76, 73
2, 532342, Note_on_c, 0, 73, 63
2, 532352, Note_on_c, 0, 69, 75
2, 532352, Note_on_c, 0, 65, 72
2, 532522, Note_on_c, 0, 69, 0
2, 532562, Note_on_c, 0, 76, 0
2, 532572, Note_on_c, 0, 73, 0
2, 532612, Note_on_c, 0, 65, 0
2, 532792, Note_on_c, 0, 36, 60
2, 532852, Control_c, 0, 64, 0
2, 532922, Note_on_c, 0, 43, 47
2, 532982, Note_on_c, 0, 74, 79
2, 533002, Note_on_c, 0, 52, 66
2, 533012, Note_on_c, 0, 70, 71
2, 533012, Note_on_c, 0, 67, 77
2, 533022, Note_on_c, 0, 64, 75
2, 533152, Control_c, 0, 64, 127
2, 533272, Note_on_c, 0, 36, 0
2, 533392, Note_on_c, 0, 43, 0
2, 533472, Note_on_c, 0, 52, 0
2, 533752, Note_on_c, 0, 64, 0
2, 533802, Note_on_c, 0, 67, 0
2, 533852, Note_on_c, 0, 70, 0
2, 534152, Note_on_c, 0, 74, 0
2, 534462, Note_on_c, 0, 70, 80
2, 534462, Note_on_c, 0, 67, 82
2, 534462, Note_on_c, 0, 58, 75
2, 534472, Note_on_c, 0, 64, 78
2, 534742, Note_on_c, 0, 58, 0
2, 535052, Note_on_c, 0, 67, 0
2, 535082, Note_on_c, 0, 70, 0
2, 535092, Note_on_c, 0, 64, 0
2, 535912, Control_c, 0, 64, 0
2, 535972, Note_on_c, 0, 65, 83
2, 535982, Note_on_c, 0, 62, 75
2, 535982, Note_on_c, 0, 50, 66
2, 535992, Note_on_c, 0, 58, 66
2, 536532, Note_on_c, 0, 58, 0
2, 536612, Note_on_c, 0, 50, 0
2, 536642, Control_c, 0, 64, 127
2, 536672, Note_on_c, 0, 58, 46
2, 536722, Note_on_c, 0, 51, 66
2, 537142, Note_on_c, 0, 62, 0
2, 537152, Note_on_c, 0, 65, 0
2, 537392, Note_on_c, 0, 58, 0
2, 537432, Note_on_c, 0, 51, 0
2, 537432, Control_c, 0, 64, 0
2, 537512, Note_on_c, 0, 64, 72
2, 537512, Note_on_c, 0, 52, 63
2, 537532, Note_on_c, 0, 60, 64
2, 537622, Control_c, 0, 64, 127
2, 537702, Note_on_c, 0, 52, 0
2, 537932, Note_on_c, 0, 64, 0
2, 538042, Note_on_c, 0, 60, 0
2, 538342, Control_c, 0, 64, 0
2, 538362, Note_on_c, 0, 42, 66
2, 538392, Note_on_c, 0, 52, 63
2, 538452, Control_c, 0, 64, 127
2, 538652, Note_on_c, 0, 52, 0
2, 538992, Note_on_c, 0, 42, 0
2, 539162, Control_c, 0, 64, 0
2, 539332, Note_on_c, 0, 62, 58
2, 539342, Note_on_c, 0, 55, 68
2, 539362, Note_on_c, 0, 57, 62
2, 539372, Note_on_c, 0, 51, 55
2, 539382, Note_on_c, 0, 41, 56
2, 539412, Control_c, 0, 64, 127
2, 539522, Note_on_c, 0, 55, 0
2, 539562, Note_on_c, 0, 57, 0
2, 539572, Note_on_c, 0, 41, 0
2, 539612, Note_on_c, 0, 62, 0
2, 539652, Note_on_c, 0, 51, 0
2, 540302, Note_on_c, 0, 74, 90
2, 540312, Note_on_c, 0, 63, 85
2, 540322, Note_on_c, 0, 67, 83
2, 540342, Note_on_c, 0, 62, 84
2, 540352, Note_on_c, 0, 69, 66
2, 540862, Note_on_c, 0, 74, 0
2, 540932, Note_on_c, 0, 63, 0
2, 540932, Note_on_c, 0, 69, 0
2, 540952, Note_on_c, 0, 67, 0
2, 540982, Note_on_c, 0, 62, 0
2, 541422, Note_on_c, 0, 67, 82
2, 541432, Note_on_c, 0, 63, 82
2, 541432, Note_on_c, 0, 74, 83
2, 541452, Note_on_c, 0, 62, 83
2, 541502, Note_on_c, 0, 69, 36
2, 542062, Note_on_c, 0, 74, 0
2, 542092, Note_on_c, 0, 69, 0
2, 542122, Note_on_c, 0, 67, 0
2, 542122, Note_on_c, 0, 63, 0
2, 542192, Note_on_c, 0, 62, 0
2, 542452, Note_on_c, 0, 63, 68
2, 542452, Note_on_c, 0, 74, 66
2, 542472, Note_on_c, 0, 67, 61
2, 542492, Note_on_c, 0, 62, 62
2, 542532, Note_on_c, 0, 69, 46
2, 542872, Note_on_c, 0, 69, 0
2, 542872, Note_on_c, 0, 74, 0
2, 542942, Note_on_c, 0, 67, 0
2, 542992, Note_on_c, 0, 62, 0
2, 543002, Note_on_c, 0, 63, 0
2, 543622, Control_c, 0, 64, 0
2, 543662, Note_on_c, 0, 71, 63
2, 543662, Note_on_c, 0, 67, 61
2, 543662, Note_on_c, 0, 74, 68
2, 543662, Note_on_c, 0, 62, 46
2, 543662, Note_on_c, 0, 63, 59
2, 543712, Note_on_c, 0, 53, 44
2, 543952, Control_c, 0, 64, 127
2, 544312, Note_on_c, 0, 71, 0
2, 544412, Note_on_c, 0, 67, 0
2, 544542, Note_on_c, 0, 63, 0
2, 544742, Note_on_c, 0, 63, 48
2, 544752, Note_on_c, 0, 70, 56
2, 544762, Note_on_c, 0, 62, 0
2, 544792, Note_on_c, 0, 61, 36
2, 544832, Note_on_c, 0, 67, 39
2, 545232, Note_on_c, 0, 70, 0
2, 545302, Note_on_c, 0, 63, 0
2, 545342, Note_on_c, 0, 67, 0
2, 545382, Note_on_c, 0, 61, 0
2, 545532, Note_on_c, 0, 74, 0
2, 545732, Control_c, 0, 64, 0
2, 545832, Note_on_c, 0, 63, 44
2, 545852, Note_on_c, 0, 69, 43
2, 545852, Note_on_c, 0, 60, 43
2, 545882, Note_on_c, 0, 67, 44
2, 545972, Control_c, 0, 64, 127
2, 546252, Note_on_c, 0, 53, 0
2, 546722, Note_on_c, 0, 69, 0
2, 546912, Note_on_c, 0, 67, 0
2, 546922, Note_on_c, 0, 63, 0
2, 547002, Note_on_c, 0, 69, 58
2, 547032, Note_on_c, 0, 53, 43
2, 547042, Note_on_c, 0, 60, 0
2, 547272, Note_on_c, 0, 53, 0
2, 547442, Note_on_c, 0, 69, 0
2, 549272, Control_c, 0, 64, 0
2, 549302, Note_on_c, 0, 56, 57
2, 549382, Note_on_c, 0, 72, 76
2, 549382, Note_on_c, 0, 67, 75
2, 549382, Note_on_c, 0, 57, 61
2, 549402, Note_on_c, 0, 62, 74
2, 549512, Note_on_c, 0, 56, 0
2, 549542, Control_c, 0, 64, 127
2, 549682, Note_on_c, 0, 67, 0
2, 549712, Note_on_c, 0, 72, 0
2, 549892, Note_on_c, 0, 62, 0
2, 550102, Control_c, 0, 64, 0
2, 550132, Note_on_c, 0, 57, 0
2, 550162, Note_on_c, 0, 70, 68
2, 550192, Note_on_c, 0, 65, 68
2, 550212, Note_on_c, 0, 60, 58
2, 550222, Note_on_c, 0, 55, 52
2, 550242, Control_c, 0, 64, 127
2, 550302, Note_on_c, 0, 55, 0
2, 550362, Note_on_c, 0, 65, 0
2, 550382, Note_on_c, 0, 70, 0
2, 550482, Note_on_c, 0, 60, 0
2, 550992, Control_c, 0, 64, 0
2, 551022, Note_on_c, 0, 58, 66
2, 551032, Note_on_c, 0, 65, 54
2, 551062, Note_on_c, 0, 53, 44
2, 551072, Note_on_c, 0, 43, 41
2, 551072, Note_on_c, 0, 62, 50
2, 551202, Control_c, 0, 64, 127
2, 551262, Note_on_c, 0, 65, 0
2, 552682, Note_on_c, 0, 62, 0
2, 552712, Note_on_c, 0, 58, 0
2, 553192, Note_on_c, 0, 43, 0
2, 553212, Note_on_c, 0, 53, 0
2, 553352, Note_on_c, 0, 67, 61
2, 553692, Note_on_c, 0, 67, 0
2, 554842, Note_on_c, 0, 69, 58
2, 554962, Note_on_c, 0, 66, 57
2, 555092, Note_on_c, 0, 62, 50
2, 555222, Note_on_c, 0, 40, 46
2, 555242, Control_c, 0, 64, 0
2, 555322, Note_on_c, 0, 58, 52
2, 555342, Note_on_c, 0, 55, 37
2, 555542, Control_c, 0, 64, 127
2, 555982, Note_on_c, 0, 58, 0
2, 556072, Note_on_c, 0, 62, 0
2, 556132, Note_on_c, 0, 69, 0
2, 556162, Note_on_c, 0, 66, 0
2, 556272, Note_on_c, 0, 55, 0
2, 556352, Note_on_c, 0, 47, 36
2, 556692, Note_on_c, 0, 40, 0
2, 556782, Note_on_c, 0, 47, 0
2, 556922, Note_on_c, 0, 81, 70
2, 556952, Note_on_c, 0, 74, 52
2, 557362, Note_on_c, 0, 81, 0
2, 557382, Note_on_c, 0, 78, 68
2, 557562, Note_on_c, 0, 58, 24
2, 557822, Note_on_c, 0, 70, 67
2, 558242, Note_on_c, 0, 70, 0
2, 558312, Note_on_c, 0, 69, 44
2, 558472, Note_on_c, 0, 58, 0
2, 558522, Note_on_c, 0, 74, 0
2, 558672, Note_on_c, 0, 78, 0
2, 558792, Note_on_c, 0, 69, 0
2, 558862, Note_on_c, 0, 74, 67
2, 559032, Note_on_c, 0, 62, 30
2, 559412, Note_on_c, 0, 70, 54
2, 559652, Note_on_c, 0, 74, 0
2, 559742, Note_on_c, 0, 62, 0
2, 559772, Note_on_c, 0, 70, 0
2, 560012, Note_on_c, 0, 69, 50
2, 560022, Note_on_c, 0, 62, 31
2, 560072, Note_on_c, 0, 52, 40
2, 560792, Note_on_c, 0, 58, 39
2, 560932, Note_on_c, 0, 67, 23
2, 561002, Note_on_c, 0, 69, 0
2, 561572, Note_on_c, 0, 67, 0
2, 561822, Note_on_c, 0, 66, 40
2, 561842, Note_on_c, 0, 62, 0
2, 561972, Note_on_c, 0, 66, 0
2, 562702, Note_on_c, 0, 62, 41
2, 563162, Note_on_c, 0, 58, 0
2, 563292, Note_on_c, 0, 52, 0
2, 563582, Note_on_c, 0, 62, 0
2, 564672, Control_c, 0, 64, 0
2, 564762, Note_on_c, 0, 45, 54
2, 564872, Control_c, 0, 64, 127
2, 564972, Note_on_c, 0, 45, 0
2, 565952, Note_on_c, 0, 61, 42
2, 565962, Note_on_c, 0, 60, 49
2, 565982, Note_on_c, 0, 65, 42
2, 565982, Note_on_c, 0, 55, 46
2, 565992, Note_on_c, 0, 69, 47
2, 566472, Note_on_c, 0, 60, 0
2, 566502, Note_on_c, 0, 61, 0
2, 566522, Note_on_c, 0, 65, 0
2, 566532, Note_on_c, 0, 55, 0
2, 566602, Note_on_c, 0, 69, 0
2, 567022, Note_on_c, 0, 65, 52
2, 567022, Note_on_c, 0, 61, 40
2, 567032, Note_on_c, 0, 69, 51
2, 567062, Note_on_c, 0, 60, 41
2, 567072, Note_on_c, 0, 55, 48
2, 567512, Note_on_c, 0, 60, 0
2, 567522, Note_on_c, 0, 55, 0
2, 567542, Note_on_c, 0, 61, 0
2, 567572, Note_on_c, 0, 65, 0
2, 567662, Note_on_c, 0, 69, 0
2, 568022, Note_on_c, 0, 61, 45
2, 568032, Note_on_c, 0, 69, 46
2, 568042, Note_on_c, 0, 60, 42
2, 568052, Note_on_c, 0, 65, 49
2, 568072, Note_on_c, 0, 55, 46
2, 568522, Note_on_c, 0, 61, 0
2, 568562, Note_on_c, 0, 60, 0
2, 568592, Note_on_c, 0, 55, 0
2, 568612, Note_on_c, 0, 65, 0
2, 568712, Note_on_c, 0, 69, 0
2, 569162, Note_on_c, 0, 61, 42
2, 569192, Note_on_c, 0, 65, 48
2, 569192, Note_on_c, 0, 69, 46
2, 569202, Note_on_c, 0, 60, 40
2, 569222, Note_on_c, 0, 55, 41
2, 569542, Note_on_c, 0, 60, 0
2, 569842, Note_on_c, 0, 65, 0
2, 570032, Note_on_c, 0, 69, 0
2, 570392, Note_on_c, 0, 69, 90
2, 570872, Note_on_c, 0, 69, 0
2, 571092, Note_on_c, 0, 69, 92
2, 571482, Note_on_c, 0, 69, 0
2, 571882, Note_on_c, 0, 69, 99
2, 572402, Note_on_c, 0, 61, 0
2, 572462, Note_on_c, 0, 69, 0
2, 572482, Note_on_c, 0, 55, 0
2, 572712, Note_on_c, 0, 69, 81
2, 573182, Note_on_c, 0, 69, 0
2, 573522, Note_on_c, 0, 69, 66
2, 574042, Note_on_c, 0, 69, 0
2, 574342, Note_on_c, 0, 69, 61
2, 574782, Note_on_c, 0, 69, 0
2, 575192, Note_on_c, 0, 69, 58
2, 575542, Note_on_c, 0, 69, 0
2, 576012, Note_on_c, 0, 69, 55
2, 576252, Note_on_c, 0, 69, 0
2, 577462, Control_c, 0, 64, 0
2, 577522, Note_on_c, 0, 76, 50
2, 577522, Note_on_c, 0, 69, 50
2, 577532, Note_on_c, 0, 73, 48
2, 577532, Note_on_c, 0, 65, 35
2, 577562, Note_on_c, 0, 38, 40
2, 577632, Note_on_c, 0, 53, 29
2, 577762, Control_c, 0, 64, 127
2, 578382, Note_on_c, 0, 53, 0
2, 578422, Note_on_c, 0, 45, 48
2, 578632, Note_on_c, 0, 38, 0
2, 579062, Note_on_c, 0, 45, 0
2, 579152, Note_on_c, 0, 53, 55
2, 579852, Note_on_c, 0, 57, 61
2, 579902, Note_on_c, 0, 69, 0
2, 579912, Note_on_c, 0, 53, 0
2, 579962, Note_on_c, 0, 65, 0
2, 580052, Note_on_c, 0, 73, 0
2, 580612, Note_on_c, 0, 57, 0
2, 580612, Note_on_c, 0, 65, 41
2, 580622, Note_on_c, 0, 69, 47
2, 580652, Note_on_c, 0, 73, 31
2, 580672, Note_on_c, 0, 60, 48
2, 581222, Note_on_c, 0, 65, 0
2, 581372, Note_on_c, 0, 69, 0
2, 581422, Note_on_c, 0, 60, 0
2, 581452, Note_on_c, 0, 64, 56
2, 582152, Note_on_c, 0, 73, 0
2, 582282, Note_on_c, 0, 64, 0
2, 582302, Note_on_c, 0, 65, 57
2, 582912, Note_on_c, 0, 65, 0
2, 583212, Note_on_c, 0, 76, 0
2, 583262, Note_on_c, 0, 67, 39
2, 583362, Note_on_c, 0, 67, 0
2, 584802, Control_c, 0, 64, 0
2, 584852, Note_on_c, 0, 73, 47
2, 584862, Note_on_c, 0, 65, 48
2, 584882, Note_on_c, 0, 69, 48
2, 584892, Note_on_c, 0, 31, 44
2, 584932, Note_on_c, 0, 43, 26
2, 585032, Control_c, 0, 64, 127
2, 585372, Note_on_c, 0, 31, 0
2, 585512, Note_on_c, 0, 43, 0
2, 586002, Note_on_c, 0, 69, 0
2, 586032, Note_on_c, 0, 65, 0
2, 586222, Note_on_c, 0, 73, 0
2, 586342, Note_on_c, 0, 53, 39
2, 586922, Note_on_c, 0, 59, 43
2, 587442, Note_on_c, 0, 61, 51
2, 587722, Note_on_c, 0, 61, 0
2, 587982, Note_on_c, 0, 65, 48
2, 588272, Note_on_c, 0, 65, 0
2, 588552, Note_on_c, 0, 69, 57
2, 588882, Note_on_c, 0, 69, 0
2, 589182, Note_on_c, 0, 75, 57
2, 589582, Note_on_c, 0, 75, 0
2, 589602, Note_on_c, 0, 69, 45
2, 589842, Note_on_c, 0, 69, 0
2, 589902, Note_on_c, 0, 71, 41
2, 590152, Note_on_c, 0, 71, 0
2, 590272, Note_on_c, 0, 73, 49
2, 590532, Note_on_c, 0, 73, 0
2, 591392, Note_on_c, 0, 77, 49
2, 591632, Note_on_c, 0, 77, 0
2, 591802, Note_on_c, 0, 79, 43
2, 591902, Note_on_c, 0, 79, 0
2, 592222, Note_on_c, 0, 83, 48
2, 592412, Note_on_c, 0, 83, 0
2, 592642, Note_on_c, 0, 85, 48
2, 592772, Note_on_c, 0, 85, 0
2, 593112, Note_on_c, 0, 88, 54
2, 593362, Note_on_c, 0, 88, 0
2, 593782, Note_on_c, 0, 91, 38
2, 593952, Note_on_c, 0, 91, 0
2, 594312, Note_on_c, 0, 93, 49
2, 594442, Note_on_c, 0, 93, 0
2, 594812, Note_on_c, 0, 95, 49
2, 594922, Note_on_c, 0, 95, 0
2, 595322, Note_on_c, 0, 97, 37
2, 595442, Note_on_c, 0, 97, 0
2, 596242, Note_on_c, 0, 103, 38
2, 596422, Note_on_c, 0, 103, 0
2, 596772, Note_on_c, 0, 105, 52
2, 601002, Note_on_c, 0, 105, 0
2, 601102, Control_c, 0, 64, 0
2, 601122, Note_on_c, 0, 59, 0
2, 601172, Note_on_c, 0, 53, 0
2, 601172, End_track
0, 0, End_of_file
