0, 0, Header, 1, 4, 960
1, 0, Start_track
1, 0, Title_t, "Yesterday"
1, 0, Text_t, "The Beatles - done in the Ahmad Jamal 'Poinciana' style\012"
1, 0, Text_t, "dougmck@pipeline.com.au (also dougmck@tpg.com.au)\012"
1, 0, Time_signature, 4, 2, 24, 8
1, 0, Key_signature, -1, "major"
1, 0, Tempo, 674157
1, 0, Marker_t, "Drums play cymbals on offbeats (2 and 4)  all the way through"
1, 7680, Marker_t, "Bass plays in 2 all the way"
1, 7680, End_track
2, 0, Start_track
2, 0, Title_t, "Piano"
2, 0, Control_c, 0, 7, 99
2, 0, Control_c, 0, 93, 0
2, 0, Control_c, 0, 64, 127
2, 0, Control_c, 0, 64, 0
2, 0, Control_c, 0, 64, 127
2, 0, Control_c, 0, 64, 0
2, 0, Control_c, 0, 64, 127
2, 0, Control_c, 0, 64, 0
2, 7, Note_on_c, 0, 91, 59
2, 12, Note_on_c, 0, 64, 34
2, 21, Note_on_c, 0, 60, 37
2, 24, Note_on_c, 0, 86, 42
2, 28, Note_on_c, 0, 53, 29
2, 29, Note_on_c, 0, 57, 41
2, 35, Note_on_c, 0, 79, 29
2, 52, Control_c, 0, 64, 127
2, 505, Note_on_c, 0, 91, 0
2, 518, Note_on_c, 0, 86, 0
2, 519, Note_on_c, 0, 53, 0
2, 526, Note_on_c, 0, 64, 0
2, 562, Note_on_c, 0, 79, 0
2, 572, Note_on_c, 0, 57, 0
2, 575, Note_on_c, 0, 60, 0
2, 720, Note_on_c, 0, 89, 57
2, 724, Control_c, 0, 64, 0
2, 734, Note_on_c, 0, 77, 39
2, 753, Note_on_c, 0, 64, 57
2, 767, Note_on_c, 0, 84, 32
2, 768, Note_on_c, 0, 60, 35
2, 794, Note_on_c, 0, 57, 34
2, 804, Note_on_c, 0, 77, 0
2, 813, Note_on_c, 0, 64, 0
2, 823, Note_on_c, 0, 84, 0
2, 837, Note_on_c, 0, 60, 0
2, 855, Note_on_c, 0, 89, 0
2, 865, Note_on_c, 0, 57, 0
2, 1406, Note_on_c, 0, 89, 57
2, 1429, Note_on_c, 0, 60, 32
2, 1436, Note_on_c, 0, 64, 46
2, 1436, Note_on_c, 0, 77, 28
2, 1449, Note_on_c, 0, 57, 41
2, 1456, Note_on_c, 0, 84, 35
2, 1461, Note_on_c, 0, 53, 31
2, 2007, Control_c, 0, 64, 127
2, 2091, Note_on_c, 0, 53, 0
2, 2123, Note_on_c, 0, 57, 0
2, 2163, Note_on_c, 0, 60, 0
2, 2215, Note_on_c, 0, 64, 0
2, 2961, Note_on_c, 0, 89, 0
2, 2996, Note_on_c, 0, 84, 0
2, 3151, Note_on_c, 0, 77, 0
2, 3894, Note_on_c, 0, 62, 27
2, 3907, Note_on_c, 0, 58, 30
2, 3917, Note_on_c, 0, 52, 26
2, 3991, Control_c, 0, 64, 0
2, 4806, Control_c, 0, 64, 127
2, 5137, Note_on_c, 0, 69, 67
2, 5211, Note_on_c, 0, 52, 0
2, 5244, Note_on_c, 0, 69, 0
2, 5288, Note_on_c, 0, 58, 0
2, 5435, Note_on_c, 0, 62, 0
2, 5455, Note_on_c, 0, 71, 81
2, 5621, Note_on_c, 0, 71, 0
2, 5780, Note_on_c, 0, 61, 40
2, 5782, Note_on_c, 0, 55, 40
2, 5794, Note_on_c, 0, 73, 70
2, 5802, Note_on_c, 0, 65, 49
2, 5819, Control_c, 0, 64, 0
2, 6127, Note_on_c, 0, 73, 0
2, 6200, Note_on_c, 0, 74, 71
2, 6365, Note_on_c, 0, 74, 0
2, 6620, Note_on_c, 0, 76, 81
2, 6689, Control_c, 0, 64, 127
2, 7060, Note_on_c, 0, 65, 0
2, 7121, Note_on_c, 0, 61, 0
2, 7148, Note_on_c, 0, 55, 0
2, 7191, Note_on_c, 0, 76, 0
2, 7474, Note_on_c, 0, 77, 65
2, 7655, Note_on_c, 0, 77, 0
2, 7702, Control_c, 0, 64, 0
2, 7712, Note_on_c, 0, 57, 32
2, 7730, Note_on_c, 0, 50, 26
2, 7738, Note_on_c, 0, 53, 25
2, 7777, Note_on_c, 0, 77, 19
2, 7876, Note_on_c, 0, 77, 0
2, 8149, Note_on_c, 0, 74, 37
2, 8353, Note_on_c, 0, 74, 0
2, 8686, Note_on_c, 0, 74, 53
2, 8814, Note_on_c, 0, 74, 0
2, 8815, Note_on_c, 0, 57, 0
2, 8844, Note_on_c, 0, 53, 0
2, 8917, Note_on_c, 0, 50, 0
2, 9124, Note_on_c, 0, 74, 31
2, 9317, Note_on_c, 0, 74, 0
2, 9369, Note_on_c, 0, 73, 34
2, 9569, Note_on_c, 0, 57, 28
2, 9579, Note_on_c, 0, 74, 54
2, 9580, Note_on_c, 0, 73, 0
2, 9607, Note_on_c, 0, 48, 23
2, 9757, Note_on_c, 0, 74, 0
2, 9852, Note_on_c, 0, 48, 0
2, 9854, Note_on_c, 0, 57, 0
2, 10372, Note_on_c, 0, 57, 33
2, 10405, Note_on_c, 0, 48, 21
2, 10529, Note_on_c, 0, 57, 0
2, 10561, Note_on_c, 0, 48, 0
2, 11057, Note_on_c, 0, 53, 26
2, 11058, Note_on_c, 0, 46, 34
2, 11557, Control_c, 0, 64, 127
2, 12160, Note_on_c, 0, 46, 0
2, 12192, Note_on_c, 0, 53, 0
2, 12572, Note_on_c, 0, 74, 97
2, 12714, Note_on_c, 0, 74, 0
2, 12892, Note_on_c, 0, 74, 90
2, 13011, Control_c, 0, 64, 0
2, 13120, Note_on_c, 0, 74, 0
2, 13218, Note_on_c, 0, 72, 67
2, 13283, Note_on_c, 0, 58, 30
2, 13297, Note_on_c, 0, 60, 28
2, 13317, Note_on_c, 0, 52, 29
2, 13384, Note_on_c, 0, 72, 0
2, 13481, Note_on_c, 0, 72, 47
2, 13777, Note_on_c, 0, 72, 0
2, 13916, Note_on_c, 0, 70, 43
2, 14089, Note_on_c, 0, 70, 0
2, 14423, Note_on_c, 0, 69, 42
2, 14590, Note_on_c, 0, 69, 0
2, 14691, Note_on_c, 0, 52, 0
2, 14801, Note_on_c, 0, 58, 0
2, 14885, Note_on_c, 0, 67, 48
2, 14902, Note_on_c, 0, 60, 0
2, 15011, Note_on_c, 0, 67, 0
2, 15364, Note_on_c, 0, 69, 46
2, 15393, Note_on_c, 0, 70, 65
2, 15451, Note_on_c, 0, 69, 0
2, 15648, Note_on_c, 0, 70, 0
2, 15891, Note_on_c, 0, 69, 46
2, 16031, Note_on_c, 0, 69, 0
2, 16357, Note_on_c, 0, 69, 39
2, 16563, Note_on_c, 0, 69, 0
2, 16806, Note_on_c, 0, 68, 26
2, 16986, Note_on_c, 0, 68, 0
2, 17082, Note_on_c, 0, 69, 33
2, 18631, Note_on_c, 0, 57, 34
2, 18643, Note_on_c, 0, 69, 0
2, 18694, Note_on_c, 0, 57, 0
2, 18738, Note_on_c, 0, 67, 76
2, 19084, Note_on_c, 0, 67, 0
2, 19189, Note_on_c, 0, 57, 39
2, 19219, Note_on_c, 0, 60, 40
2, 19238, Note_on_c, 0, 50, 19
2, 19241, Note_on_c, 0, 53, 26
2, 19252, Note_on_c, 0, 65, 65
2, 19621, Control_c, 0, 64, 127
2, 19802, Note_on_c, 0, 57, 0
2, 19981, Note_on_c, 0, 57, 31
2, 20092, Note_on_c, 0, 60, 0
2, 20156, Note_on_c, 0, 50, 0
2, 20247, Note_on_c, 0, 57, 0
2, 20368, Note_on_c, 0, 53, 0
2, 20692, Note_on_c, 0, 69, 58
2, 20766, Note_on_c, 0, 65, 0
2, 20915, Note_on_c, 0, 69, 0
2, 21019, Control_c, 0, 64, 0
2, 21142, Note_on_c, 0, 63, 47
2, 21170, Note_on_c, 0, 59, 25
2, 21187, Note_on_c, 0, 67, 36
2, 21194, Note_on_c, 0, 43, 31
2, 21209, Note_on_c, 0, 53, 32
2, 21313, Note_on_c, 0, 63, 0
2, 21327, Note_on_c, 0, 64, 37
2, 21576, Control_c, 0, 64, 127
2, 21764, Note_on_c, 0, 64, 0
2, 22000, Note_on_c, 0, 59, 0
2, 22002, Note_on_c, 0, 50, 21
2, 22111, Note_on_c, 0, 62, 37
2, 22128, Note_on_c, 0, 59, 13
2, 22161, Note_on_c, 0, 50, 0
2, 22319, Note_on_c, 0, 67, 0
2, 22534, Note_on_c, 0, 53, 0
2, 22591, Note_on_c, 0, 62, 0
2, 22615, Note_on_c, 0, 59, 0
2, 22903, Note_on_c, 0, 43, 0
2, 22915, Note_on_c, 0, 46, 36
2, 22996, Note_on_c, 0, 61, 43
2, 23027, Note_on_c, 0, 46, 0
2, 23037, Note_on_c, 0, 47, 34
2, 23078, Note_on_c, 0, 48, 37
2, 23107, Note_on_c, 0, 47, 0
2, 23161, Control_c, 0, 64, 0
2, 23189, Note_on_c, 0, 62, 45
2, 23202, Note_on_c, 0, 61, 0
2, 23389, Note_on_c, 0, 62, 0
2, 23393, Note_on_c, 0, 65, 58
2, 23431, Note_on_c, 0, 58, 2
2, 23440, Note_on_c, 0, 53, 25
2, 23497, Note_on_c, 0, 53, 0
2, 23517, Note_on_c, 0, 58, 0
2, 23551, Note_on_c, 0, 65, 0
2, 23869, Note_on_c, 0, 48, 0
2, 23880, Note_on_c, 0, 46, 21
2, 23955, Note_on_c, 0, 46, 0
2, 23983, Note_on_c, 0, 65, 45
2, 23985, Note_on_c, 0, 58, 41
2, 23995, Note_on_c, 0, 62, 41
2, 24007, Note_on_c, 0, 53, 25
2, 24018, Note_on_c, 0, 48, 26
2, 25016, Control_c, 0, 64, 127
2, 25018, Note_on_c, 0, 53, 0
2, 25051, Note_on_c, 0, 48, 0
2, 25385, Note_on_c, 0, 58, 0
2, 25425, Note_on_c, 0, 62, 0
2, 25882, Note_on_c, 0, 65, 0
2, 25935, Note_on_c, 0, 62, 36
2, 25945, Note_on_c, 0, 57, 33
2, 25945, Note_on_c, 0, 58, 38
2, 26043, Control_c, 0, 64, 0
2, 26446, Note_on_c, 0, 69, 38
2, 26684, Note_on_c, 0, 69, 0
2, 26722, Note_on_c, 0, 70, 66
2, 26840, Note_on_c, 0, 70, 0
2, 26950, Note_on_c, 0, 74, 69
2, 27152, Note_on_c, 0, 77, 68
2, 27154, Note_on_c, 0, 74, 0
2, 27255, Note_on_c, 0, 58, 0
2, 27406, Note_on_c, 0, 62, 0
2, 27414, Note_on_c, 0, 77, 0
2, 27424, Note_on_c, 0, 81, 44
2, 27552, Note_on_c, 0, 81, 0
2, 27642, Note_on_c, 0, 72, 65
2, 27644, Note_on_c, 0, 84, 76
2, 27725, Note_on_c, 0, 58, 35
2, 27762, Note_on_c, 0, 72, 0
2, 27856, Note_on_c, 0, 84, 0
2, 27887, Note_on_c, 0, 81, 52
2, 27928, Note_on_c, 0, 58, 0
2, 28115, Note_on_c, 0, 81, 0
2, 28276, Note_on_c, 0, 77, 36
2, 28427, Note_on_c, 0, 77, 0
2, 28445, Note_on_c, 0, 57, 0
2, 28754, Note_on_c, 0, 62, 23
2, 28907, Note_on_c, 0, 62, 0
2, 29508, Note_on_c, 0, 58, 38
2, 29641, Note_on_c, 0, 58, 0
2, 29743, Note_on_c, 0, 74, 78
2, 30047, Note_on_c, 0, 58, 45
2, 30049, Note_on_c, 0, 70, 62
2, 30052, Note_on_c, 0, 74, 0
2, 30060, Note_on_c, 0, 62, 37
2, 30064, Note_on_c, 0, 57, 33
2, 30211, Note_on_c, 0, 70, 0
2, 30277, Note_on_c, 0, 69, 34
2, 30371, Note_on_c, 0, 58, 0
2, 30375, Note_on_c, 0, 57, 0
2, 30462, Note_on_c, 0, 62, 0
2, 30466, Note_on_c, 0, 69, 0
2, 30677, Note_on_c, 0, 60, 30
2, 30682, Note_on_c, 0, 67, 45
2, 30687, Note_on_c, 0, 57, 32
2, 30724, Note_on_c, 0, 53, 31
2, 31010, Note_on_c, 0, 67, 0
2, 31184, Note_on_c, 0, 67, 37
2, 31226, Note_on_c, 0, 53, 0
2, 31290, Note_on_c, 0, 60, 0
2, 31306, Note_on_c, 0, 57, 0
2, 31501, Note_on_c, 0, 67, 0
2, 31672, Note_on_c, 0, 67, 37
2, 32015, Note_on_c, 0, 67, 0
2, 32129, Note_on_c, 0, 65, 38
2, 32373, Note_on_c, 0, 65, 0
2, 32443, Note_on_c, 0, 64, 42
2, 32566, Note_on_c, 0, 64, 0
2, 32672, Note_on_c, 0, 65, 28
2, 32954, Note_on_c, 0, 65, 0
2, 33125, Note_on_c, 0, 65, 44
2, 33264, Note_on_c, 0, 65, 0
2, 34083, Note_on_c, 0, 58, 46
2, 34107, Note_on_c, 0, 62, 36
2, 34168, Note_on_c, 0, 62, 0
2, 34251, Note_on_c, 0, 58, 0
2, 34905, Note_on_c, 0, 62, 35
2, 34920, Note_on_c, 0, 58, 36
2, 34940, Note_on_c, 0, 57, 23
2, 35010, Note_on_c, 0, 57, 0
2, 35033, Note_on_c, 0, 62, 0
2, 35047, Note_on_c, 0, 58, 0
2, 35553, Note_on_c, 0, 62, 32
2, 35557, Note_on_c, 0, 58, 38
2, 35584, Note_on_c, 0, 57, 32
2, 35602, Note_on_c, 0, 52, 25
2, 35743, Note_on_c, 0, 62, 0
2, 35770, Note_on_c, 0, 58, 0
2, 35789, Note_on_c, 0, 52, 0
2, 35823, Note_on_c, 0, 57, 0
2, 36101, Note_on_c, 0, 69, 49
2, 36265, Note_on_c, 0, 69, 0
2, 36357, Note_on_c, 0, 70, 64
2, 36450, Note_on_c, 0, 61, 29
2, 36471, Note_on_c, 0, 64, 35
2, 36484, Note_on_c, 0, 58, 26
2, 36485, Note_on_c, 0, 70, 0
2, 36535, Note_on_c, 0, 55, 18
2, 36635, Note_on_c, 0, 73, 68
2, 36764, Note_on_c, 0, 64, 0
2, 36838, Note_on_c, 0, 73, 0
2, 36858, Note_on_c, 0, 61, 0
2, 36977, Note_on_c, 0, 58, 0
2, 36978, Note_on_c, 0, 74, 88
2, 36981, Note_on_c, 0, 55, 0
2, 37190, Note_on_c, 0, 74, 0
2, 37334, Note_on_c, 0, 76, 91
2, 37371, Note_on_c, 0, 61, 51
2, 37381, Note_on_c, 0, 64, 58
2, 37385, Note_on_c, 0, 58, 46
2, 37424, Note_on_c, 0, 55, 27
2, 37520, Note_on_c, 0, 64, 0
2, 37572, Note_on_c, 0, 61, 0
2, 37583, Note_on_c, 0, 76, 0
2, 37703, Note_on_c, 0, 58, 0
2, 37734, Note_on_c, 0, 55, 0
2, 37745, Note_on_c, 0, 77, 84
2, 37761, Control_c, 0, 64, 127
2, 37943, Note_on_c, 0, 77, 0
2, 38101, Note_on_c, 0, 79, 82
2, 38312, Note_on_c, 0, 79, 0
2, 38319, Control_c, 0, 64, 0
2, 38396, Note_on_c, 0, 77, 63
2, 38449, Note_on_c, 0, 57, 23
2, 38465, Note_on_c, 0, 53, 21
2, 38467, Note_on_c, 0, 50, 15
2, 38628, Note_on_c, 0, 77, 0
2, 38798, Note_on_c, 0, 76, 55
2, 38910, Note_on_c, 0, 57, 0
2, 38937, Note_on_c, 0, 76, 0
2, 38949, Note_on_c, 0, 53, 0
2, 39011, Note_on_c, 0, 50, 0
2, 39157, Note_on_c, 0, 74, 52
2, 39209, Note_on_c, 0, 57, 36
2, 39319, Note_on_c, 0, 74, 0
2, 39486, Note_on_c, 0, 74, 55
2, 39490, Control_c, 0, 64, 127
2, 39638, Note_on_c, 0, 74, 0
2, 39746, Note_on_c, 0, 57, 0
2, 39884, Note_on_c, 0, 69, 35
2, 40028, Note_on_c, 0, 69, 0
2, 40260, Control_c, 0, 64, 0
2, 40323, Note_on_c, 0, 69, 25
2, 40351, Note_on_c, 0, 57, 31
2, 40619, Note_on_c, 0, 69, 0
2, 40697, Note_on_c, 0, 57, 0
2, 40853, Note_on_c, 0, 65, 27
2, 40945, Note_on_c, 0, 65, 0
2, 41767, Note_on_c, 0, 45, 45
2, 41888, Note_on_c, 0, 45, 0
2, 42284, Note_on_c, 0, 86, 78
2, 42288, Note_on_c, 0, 74, 75
2, 42613, Note_on_c, 0, 86, 0
2, 42653, Note_on_c, 0, 74, 0
2, 43098, Note_on_c, 0, 84, 68
2, 43121, Note_on_c, 0, 72, 46
2, 43226, Note_on_c, 0, 72, 0
2, 43276, Note_on_c, 0, 84, 0
2, 43741, Note_on_c, 0, 82, 69
2, 43762, Note_on_c, 0, 70, 50
2, 43788, Note_on_c, 0, 58, 31
2, 43884, Note_on_c, 0, 58, 0
2, 43938, Note_on_c, 0, 70, 0
2, 43967, Note_on_c, 0, 82, 0
2, 44114, Control_c, 0, 64, 127
2, 44428, Control_c, 0, 64, 0
2, 44514, Note_on_c, 0, 81, 62
2, 44524, Note_on_c, 0, 69, 58
2, 44549, Note_on_c, 0, 62, 30
2, 44562, Note_on_c, 0, 58, 28
2, 44571, Note_on_c, 0, 52, 25
2, 44770, Control_c, 0, 64, 127
2, 44987, Note_on_c, 0, 81, 0
2, 45038, Note_on_c, 0, 62, 0
2, 45113, Note_on_c, 0, 69, 0
2, 45156, Control_c, 0, 64, 0
2, 45179, Note_on_c, 0, 79, 48
2, 45197, Note_on_c, 0, 62, 32
2, 45261, Note_on_c, 0, 69, 20
2, 45277, Note_on_c, 0, 62, 0
2, 45360, Note_on_c, 0, 69, 0
2, 45364, Note_on_c, 0, 79, 0
2, 45391, Note_on_c, 0, 58, 0
2, 45623, Note_on_c, 0, 52, 0
2, 45694, Note_on_c, 0, 62, 29
2, 45699, Control_c, 0, 64, 127
2, 45708, Note_on_c, 0, 58, 20
2, 45767, Note_on_c, 0, 58, 0
2, 45771, Note_on_c, 0, 62, 0
2, 46099, Control_c, 0, 64, 0
2, 46104, Note_on_c, 0, 82, 59
2, 46134, Note_on_c, 0, 57, 49
2, 46141, Note_on_c, 0, 60, 36
2, 46163, Note_on_c, 0, 53, 31
2, 46398, Control_c, 0, 64, 127
2, 46557, Note_on_c, 0, 53, 0
2, 46564, Note_on_c, 0, 57, 0
2, 46571, Note_on_c, 0, 60, 0
2, 46638, Note_on_c, 0, 82, 0
2, 46782, Control_c, 0, 64, 0
2, 46811, Note_on_c, 0, 64, 39
2, 46819, Note_on_c, 0, 69, 40
2, 46822, Note_on_c, 0, 81, 43
2, 46828, Note_on_c, 0, 60, 30
2, 46842, Note_on_c, 0, 57, 35
2, 46919, Note_on_c, 0, 64, 0
2, 46936, Note_on_c, 0, 69, 0
2, 46964, Note_on_c, 0, 60, 0
2, 46966, Note_on_c, 0, 81, 0
2, 47046, Note_on_c, 0, 57, 0
2, 47527, Note_on_c, 0, 60, 38
2, 47534, Note_on_c, 0, 64, 49
2, 47537, Note_on_c, 0, 69, 37
2, 47540, Control_c, 0, 64, 127
2, 47541, Note_on_c, 0, 57, 38
2, 47550, Note_on_c, 0, 77, 33
2, 47561, Note_on_c, 0, 81, 30
2, 47590, Note_on_c, 0, 53, 19
2, 48240, Note_on_c, 0, 64, 0
2, 48340, Note_on_c, 0, 60, 0
2, 48482, Note_on_c, 0, 57, 0
2, 48508, Note_on_c, 0, 53, 0
2, 48649, Note_on_c, 0, 69, 0
2, 48652, Note_on_c, 0, 81, 0
2, 48707, Note_on_c, 0, 77, 0
2, 49229, Note_on_c, 0, 76, 83
2, 49231, Note_on_c, 0, 79, 73
2, 49852, Control_c, 0, 64, 0
2, 49855, Note_on_c, 0, 79, 0
2, 49857, Note_on_c, 0, 76, 0
2, 49928, Note_on_c, 0, 60, 32
2, 49931, Note_on_c, 0, 74, 45
2, 49932, Note_on_c, 0, 77, 42
2, 49946, Note_on_c, 0, 53, 25
2, 49952, Note_on_c, 0, 57, 28
2, 49985, Note_on_c, 0, 50, 19
2, 50336, Control_c, 0, 64, 127
2, 50534, Note_on_c, 0, 77, 0
2, 50566, Note_on_c, 0, 57, 0
2, 50613, Note_on_c, 0, 74, 0
2, 50739, Note_on_c, 0, 57, 34
2, 50900, Note_on_c, 0, 81, 60
2, 50902, Note_on_c, 0, 77, 59
2, 51036, Note_on_c, 0, 57, 0
2, 51058, Note_on_c, 0, 50, 0
2, 51097, Note_on_c, 0, 53, 0
2, 51181, Note_on_c, 0, 60, 0
2, 51318, Note_on_c, 0, 81, 0
2, 51358, Note_on_c, 0, 77, 0
2, 51806, Note_on_c, 0, 73, 44
2, 51810, Note_on_c, 0, 59, 30
2, 51812, Note_on_c, 0, 64, 41
2, 51815, Note_on_c, 0, 79, 53
2, 51822, Control_c, 0, 64, 0
2, 51849, Note_on_c, 0, 67, 27
2, 51860, Note_on_c, 0, 53, 26
2, 51966, Note_on_c, 0, 73, 0
2, 52038, Note_on_c, 0, 74, 23
2, 52192, Control_c, 0, 64, 127
2, 52903, Note_on_c, 0, 74, 0
2, 52904, Note_on_c, 0, 67, 0
2, 53025, Note_on_c, 0, 79, 0
2, 53249, Note_on_c, 0, 64, 0
2, 53287, Note_on_c, 0, 59, 0
2, 53301, Note_on_c, 0, 74, 60
2, 53350, Note_on_c, 0, 53, 0
2, 53474, Note_on_c, 0, 74, 0
2, 53820, Control_c, 0, 64, 0
2, 54217, Note_on_c, 0, 73, 54
2, 54288, Note_on_c, 0, 74, 59
2, 54298, Note_on_c, 0, 73, 0
2, 54463, Note_on_c, 0, 74, 0
2, 54704, Note_on_c, 0, 77, 75
2, 54720, Note_on_c, 0, 65, 76
2, 54926, Note_on_c, 0, 77, 0
2, 54927, Note_on_c, 0, 65, 0
2, 55019, Note_on_c, 0, 77, 61
2, 55040, Note_on_c, 0, 65, 30
2, 55303, Note_on_c, 0, 77, 0
2, 55313, Note_on_c, 0, 65, 0
2, 55514, Note_on_c, 0, 55, 25
2, 55630, Note_on_c, 0, 55, 0
2, 55649, Note_on_c, 0, 77, 75
2, 55655, Note_on_c, 0, 65, 75
2, 55936, Note_on_c, 0, 55, 25
2, 56005, Note_on_c, 0, 55, 0
2, 56293, Note_on_c, 0, 65, 0
2, 56342, Note_on_c, 0, 77, 0
2, 56424, Note_on_c, 0, 74, 58
2, 56588, Note_on_c, 0, 74, 0
2, 56666, Note_on_c, 0, 65, 33
2, 56938, Note_on_c, 0, 65, 0
2, 57130, Note_on_c, 0, 48, 27
2, 57270, Note_on_c, 0, 48, 0
2, 57610, Note_on_c, 0, 62, 41
2, 57625, Note_on_c, 0, 58, 28
2, 57813, Note_on_c, 0, 58, 0
2, 57822, Note_on_c, 0, 62, 0
2, 58097, Note_on_c, 0, 62, 34
2, 58103, Note_on_c, 0, 58, 28
2, 58123, Note_on_c, 0, 53, 18
2, 58127, Note_on_c, 0, 55, 17
2, 58311, Note_on_c, 0, 62, 0
2, 58321, Note_on_c, 0, 58, 0
2, 58321, Note_on_c, 0, 53, 0
2, 58322, Note_on_c, 0, 55, 0
2, 58868, Note_on_c, 0, 62, 37
2, 58881, Note_on_c, 0, 58, 31
2, 58970, Note_on_c, 0, 58, 0
2, 59017, Note_on_c, 0, 62, 0
2, 59551, Note_on_c, 0, 62, 44
2, 59580, Note_on_c, 0, 58, 29
2, 59914, Control_c, 0, 64, 127
2, 59990, Note_on_c, 0, 58, 0
2, 60114, Note_on_c, 0, 62, 0
2, 60332, Note_on_c, 0, 48, 38
2, 60427, Note_on_c, 0, 48, 0
2, 60987, Note_on_c, 0, 80, 57
2, 60998, Note_on_c, 0, 68, 41
2, 61129, Note_on_c, 0, 68, 0
2, 61197, Note_on_c, 0, 80, 0
2, 61400, Control_c, 0, 64, 0
2, 61502, Note_on_c, 0, 81, 59
2, 61513, Note_on_c, 0, 62, 39
2, 61515, Note_on_c, 0, 58, 44
2, 61526, Note_on_c, 0, 57, 28
2, 61528, Note_on_c, 0, 69, 40
2, 61562, Note_on_c, 0, 52, 29
2, 61912, Control_c, 0, 64, 127
2, 62765, Note_on_c, 0, 69, 0
2, 62812, Note_on_c, 0, 81, 0
2, 62834, Note_on_c, 0, 52, 0
2, 62883, Note_on_c, 0, 57, 0
2, 62930, Note_on_c, 0, 58, 0
2, 62959, Note_on_c, 0, 62, 0
2, 63382, Note_on_c, 0, 81, 69
2, 63390, Note_on_c, 0, 69, 76
2, 63393, Note_on_c, 0, 73, 54
2, 63395, Note_on_c, 0, 76, 63
2, 63396, Note_on_c, 0, 61, 62
2, 63400, Control_c, 0, 64, 0
2, 63410, Note_on_c, 0, 64, 67
2, 63423, Note_on_c, 0, 55, 46
2, 63701, Control_c, 0, 64, 127
2, 63926, Note_on_c, 0, 69, 0
2, 63934, Note_on_c, 0, 64, 0
2, 63949, Note_on_c, 0, 55, 0
2, 63960, Note_on_c, 0, 73, 0
2, 63973, Note_on_c, 0, 81, 0
2, 64001, Note_on_c, 0, 76, 0
2, 64017, Note_on_c, 0, 61, 0
2, 64142, Note_on_c, 0, 73, 47
2, 64144, Note_on_c, 0, 81, 54
2, 64149, Note_on_c, 0, 76, 55
2, 64155, Note_on_c, 0, 69, 56
2, 64156, Note_on_c, 0, 61, 51
2, 64178, Note_on_c, 0, 64, 60
2, 64185, Note_on_c, 0, 55, 49
2, 64206, Note_on_c, 0, 79, 25
2, 64373, Note_on_c, 0, 64, 0
2, 64427, Note_on_c, 0, 81, 0
2, 64487, Note_on_c, 0, 61, 0
2, 64490, Note_on_c, 0, 55, 0
2, 64491, Note_on_c, 0, 79, 0
2, 64537, Note_on_c, 0, 76, 0
2, 64554, Note_on_c, 0, 69, 0
2, 64559, Note_on_c, 0, 73, 0
2, 65283, Control_c, 0, 64, 0
2, 65314, Note_on_c, 0, 74, 82
2, 65324, Note_on_c, 0, 65, 84
2, 65327, Note_on_c, 0, 69, 81
2, 65338, Note_on_c, 0, 62, 70
2, 65639, Control_c, 0, 64, 127
2, 65911, Note_on_c, 0, 74, 0
2, 66005, Note_on_c, 0, 69, 0
2, 66029, Note_on_c, 0, 65, 0
2, 66166, Note_on_c, 0, 62, 0
2, 66282, Note_on_c, 0, 76, 76
2, 66291, Note_on_c, 0, 69, 73
2, 66297, Note_on_c, 0, 65, 72
2, 66312, Control_c, 0, 64, 0
2, 66314, Note_on_c, 0, 60, 61
2, 66597, Control_c, 0, 64, 127
2, 66690, Note_on_c, 0, 65, 0
2, 66703, Note_on_c, 0, 69, 0
2, 66769, Note_on_c, 0, 76, 0
2, 67162, Note_on_c, 0, 60, 0
2, 67197, Control_c, 0, 64, 0
2, 67231, Note_on_c, 0, 77, 58
2, 67234, Note_on_c, 0, 62, 41
2, 67237, Note_on_c, 0, 58, 46
2, 67238, Note_on_c, 0, 74, 51
2, 67239, Note_on_c, 0, 65, 59
2, 67245, Note_on_c, 0, 70, 47
2, 67558, Control_c, 0, 64, 127
2, 67749, Note_on_c, 0, 74, 0
2, 67887, Note_on_c, 0, 77, 0
2, 68211, Note_on_c, 0, 65, 0
2, 68250, Note_on_c, 0, 70, 0
2, 68386, Note_on_c, 0, 62, 0
2, 68453, Note_on_c, 0, 76, 70
2, 68538, Note_on_c, 0, 58, 0
2, 68692, Note_on_c, 0, 76, 0
2, 68816, Note_on_c, 0, 74, 65
2, 69011, Note_on_c, 0, 74, 0
2, 69139, Note_on_c, 0, 76, 79
2, 69145, Note_on_c, 0, 62, 48
2, 69150, Note_on_c, 0, 55, 27
2, 69197, Control_c, 0, 64, 0
2, 69599, Control_c, 0, 64, 127
2, 69620, Note_on_c, 0, 62, 0
2, 69788, Note_on_c, 0, 76, 0
2, 69844, Note_on_c, 0, 74, 64
2, 69855, Control_c, 0, 64, 0
2, 69881, Note_on_c, 0, 62, 34
2, 69911, Note_on_c, 0, 58, 34
2, 69941, Control_c, 0, 64, 127
2, 70055, Note_on_c, 0, 62, 0
2, 70156, Note_on_c, 0, 55, 0
2, 70157, Note_on_c, 0, 58, 0
2, 70361, Note_on_c, 0, 74, 0
2, 70550, Note_on_c, 0, 72, 48
2, 70579, Note_on_c, 0, 58, 34
2, 70580, Note_on_c, 0, 62, 35
2, 70584, Control_c, 0, 64, 0
2, 70623, Note_on_c, 0, 52, 30
2, 70940, Control_c, 0, 64, 127
2, 71234, Note_on_c, 0, 62, 0
2, 71256, Note_on_c, 0, 52, 0
2, 71279, Note_on_c, 0, 58, 0
2, 72235, Note_on_c, 0, 72, 0
2, 72470, Note_on_c, 0, 74, 67
2, 72682, Control_c, 0, 64, 0
2, 72689, Note_on_c, 0, 74, 0
2, 72958, Note_on_c, 0, 41, 28
2, 72981, Note_on_c, 0, 69, 33
2, 73025, Note_on_c, 0, 48, 25
2, 73140, Note_on_c, 0, 69, 0
2, 73976, Note_on_c, 0, 48, 0
2, 74257, Note_on_c, 0, 48, 23
2, 74290, Note_on_c, 0, 41, 0
2, 74392, Note_on_c, 0, 64, 54
2, 74394, Note_on_c, 0, 67, 42
2, 74425, Note_on_c, 0, 48, 0
2, 74556, Note_on_c, 0, 67, 0
2, 74586, Note_on_c, 0, 64, 0
2, 75160, Note_on_c, 0, 57, 49
2, 75168, Note_on_c, 0, 67, 37
2, 75178, Note_on_c, 0, 52, 30
2, 75187, Note_on_c, 0, 62, 43
2, 75329, Note_on_c, 0, 57, 0
2, 75331, Note_on_c, 0, 62, 0
2, 75358, Note_on_c, 0, 67, 0
2, 75480, Note_on_c, 0, 52, 0
2, 75674, Note_on_c, 0, 50, 33
2, 75825, Note_on_c, 0, 57, 51
2, 75826, Note_on_c, 0, 67, 47
2, 75828, Note_on_c, 0, 50, 0
2, 75839, Note_on_c, 0, 62, 48
2, 75840, Note_on_c, 0, 52, 35
2, 76082, Note_on_c, 0, 57, 0
2, 76165, Note_on_c, 0, 62, 0
2, 76168, Note_on_c, 0, 67, 0
2, 76256, Note_on_c, 0, 52, 0
2, 76313, Note_on_c, 0, 65, 56
2, 76461, Note_on_c, 0, 65, 0
2, 76812, Note_on_c, 0, 66, 65
2, 76813, Note_on_c, 0, 69, 72
2, 76819, Note_on_c, 0, 62, 77
2, 76837, Note_on_c, 0, 58, 54
2, 76847, Note_on_c, 0, 52, 39
2, 77234, Control_c, 0, 64, 127
2, 77293, Control_c, 0, 64, 0
2, 77421, Control_c, 0, 64, 127
2, 77478, Control_c, 0, 64, 0
2, 77649, Control_c, 0, 64, 127
2, 77827, Note_on_c, 0, 58, 0
2, 77901, Note_on_c, 0, 52, 0
2, 78200, Note_on_c, 0, 62, 0
2, 78318, Note_on_c, 0, 69, 0
2, 78349, Note_on_c, 0, 66, 0
2, 78740, Note_on_c, 0, 69, 55
2, 78747, Control_c, 0, 64, 0
2, 78750, Note_on_c, 0, 64, 60
2, 78751, Note_on_c, 0, 61, 57
2, 78775, Note_on_c, 0, 55, 45
2, 78782, Note_on_c, 0, 45, 42
2, 79034, Control_c, 0, 64, 127
2, 79281, Note_on_c, 0, 45, 0
2, 79416, Note_on_c, 0, 55, 0
2, 79745, Note_on_c, 0, 64, 0
2, 79782, Note_on_c, 0, 69, 0
2, 79808, Note_on_c, 0, 61, 0
2, 80588, Control_c, 0, 64, 0
2, 80682, Note_on_c, 0, 74, 81
2, 80690, Note_on_c, 0, 53, 47
2, 80692, Note_on_c, 0, 46, 57
2, 80693, Note_on_c, 0, 69, 73
2, 80695, Note_on_c, 0, 62, 76
2, 80710, Note_on_c, 0, 57, 52
2, 80846, Control_c, 0, 64, 127
2, 80970, Note_on_c, 0, 53, 0
2, 80997, Note_on_c, 0, 46, 0
2, 81066, Note_on_c, 0, 62, 0
2, 81099, Note_on_c, 0, 57, 0
2, 81159, Note_on_c, 0, 69, 0
2, 81176, Note_on_c, 0, 74, 0
2, 81573, Control_c, 0, 64, 0
2, 81595, Note_on_c, 0, 55, 52
2, 81609, Note_on_c, 0, 76, 75
2, 81610, Note_on_c, 0, 60, 54
2, 81612, Note_on_c, 0, 48, 49
2, 81619, Note_on_c, 0, 72, 67
2, 81626, Note_on_c, 0, 64, 75
2, 81803, Control_c, 0, 64, 127
2, 81811, Note_on_c, 0, 48, 0
2, 81908, Note_on_c, 0, 60, 0
2, 81934, Note_on_c, 0, 55, 0
2, 81959, Note_on_c, 0, 64, 0
2, 82025, Note_on_c, 0, 72, 0
2, 82060, Note_on_c, 0, 76, 0
2, 82587, Control_c, 0, 64, 0
2, 82590, Note_on_c, 0, 77, 61
2, 82592, Note_on_c, 0, 57, 40
2, 82597, Note_on_c, 0, 72, 46
2, 82606, Note_on_c, 0, 65, 45
2, 82609, Note_on_c, 0, 50, 31
2, 82660, Note_on_c, 0, 60, 16
2, 82888, Control_c, 0, 64, 127
2, 82956, Note_on_c, 0, 50, 0
2, 82960, Note_on_c, 0, 57, 0
2, 82986, Note_on_c, 0, 77, 0
2, 83024, Note_on_c, 0, 72, 0
2, 83034, Note_on_c, 0, 60, 0
2, 83161, Note_on_c, 0, 65, 0
2, 83822, Note_on_c, 0, 76, 61
2, 84026, Note_on_c, 0, 76, 0
2, 84211, Note_on_c, 0, 74, 58
2, 84362, Note_on_c, 0, 74, 0
2, 84488, Note_on_c, 0, 76, 60
2, 84491, Note_on_c, 0, 57, 27
2, 84503, Note_on_c, 0, 62, 28
2, 84517, Note_on_c, 0, 58, 38
2, 84528, Control_c, 0, 64, 0
2, 85122, Note_on_c, 0, 76, 0
2, 85256, Note_on_c, 0, 74, 52
2, 85442, Control_c, 0, 64, 127
2, 85482, Note_on_c, 0, 62, 0
2, 85516, Note_on_c, 0, 58, 0
2, 85590, Note_on_c, 0, 57, 0
2, 86456, Control_c, 0, 64, 0
2, 86795, Note_on_c, 0, 74, 0
2, 86872, Note_on_c, 0, 72, 30
2, 86952, Note_on_c, 0, 73, 36
2, 87059, Note_on_c, 0, 72, 0
2, 87066, Note_on_c, 0, 73, 0
2, 87147, Note_on_c, 0, 74, 19
2, 87211, Note_on_c, 0, 74, 0
2, 87396, Note_on_c, 0, 77, 75
2, 87405, Note_on_c, 0, 65, 75
2, 87430, Note_on_c, 0, 67, 37
2, 87487, Note_on_c, 0, 67, 0
2, 87625, Note_on_c, 0, 65, 0
2, 87642, Note_on_c, 0, 77, 0
2, 87856, Note_on_c, 0, 77, 79
2, 87869, Note_on_c, 0, 65, 86
2, 88124, Note_on_c, 0, 77, 0
2, 88186, Note_on_c, 0, 65, 0
2, 88332, Note_on_c, 0, 77, 75
2, 88555, Note_on_c, 0, 77, 0
2, 88622, Note_on_c, 0, 74, 52
2, 88782, Note_on_c, 0, 74, 0
2, 89284, Note_on_c, 0, 65, 45
2, 89649, Note_on_c, 0, 65, 0
2, 89764, Note_on_c, 0, 62, 33
2, 90029, Note_on_c, 0, 62, 0
2, 90263, Note_on_c, 0, 65, 57
2, 90717, Note_on_c, 0, 62, 35
2, 90743, Note_on_c, 0, 65, 0
2, 90835, Note_on_c, 0, 62, 0
2, 90969, Note_on_c, 0, 64, 73
2, 91123, Note_on_c, 0, 64, 0
2, 91185, Note_on_c, 0, 65, 81
2, 91571, Note_on_c, 0, 65, 0
2, 91648, Note_on_c, 0, 62, 64
2, 92374, Note_on_c, 0, 62, 0
2, 92426, Note_on_c, 0, 57, 56
2, 92906, Note_on_c, 0, 46, 26
2, 92961, Note_on_c, 0, 46, 0
2, 92990, Note_on_c, 0, 57, 0
2, 93086, Note_on_c, 0, 60, 68
2, 93844, Note_on_c, 0, 60, 0
2, 93860, Note_on_c, 0, 58, 49
2, 94028, Note_on_c, 0, 58, 0
2, 94149, Note_on_c, 0, 57, 25
2, 94287, Note_on_c, 0, 57, 0
2, 94397, Note_on_c, 0, 58, 48
2, 94509, Note_on_c, 0, 58, 0
2, 94594, Note_on_c, 0, 60, 65
2, 94882, Note_on_c, 0, 48, 30
2, 94948, Note_on_c, 0, 48, 0
2, 94990, Note_on_c, 0, 60, 0
2, 95062, Note_on_c, 0, 57, 50
2, 95482, Note_on_c, 0, 57, 0
2, 95558, Note_on_c, 0, 53, 36
2, 96010, Note_on_c, 0, 41, 33
2, 96028, Note_on_c, 0, 53, 0
2, 96110, Note_on_c, 0, 48, 23
2, 96514, Note_on_c, 0, 48, 0
2, 96756, Note_on_c, 0, 41, 0
2, 96777, Note_on_c, 0, 57, 63
2, 96785, Note_on_c, 0, 67, 54
2, 96796, Note_on_c, 0, 62, 47
2, 96802, Note_on_c, 0, 52, 35
2, 96869, Note_on_c, 0, 62, 0
2, 96870, Note_on_c, 0, 52, 0
2, 96893, Note_on_c, 0, 57, 0
2, 96934, Note_on_c, 0, 67, 0
2, 97431, Note_on_c, 0, 65, 48
2, 97438, Note_on_c, 0, 60, 47
2, 97441, Note_on_c, 0, 52, 31
2, 97442, Note_on_c, 0, 55, 27
2, 97615, Note_on_c, 0, 52, 0
2, 97618, Note_on_c, 0, 55, 0
2, 97632, Note_on_c, 0, 60, 0
2, 97652, Note_on_c, 0, 65, 0
2, 97965, Note_on_c, 0, 52, 32
2, 97968, Note_on_c, 0, 65, 47
2, 97975, Note_on_c, 0, 60, 42
2, 97989, Note_on_c, 0, 55, 27
2, 98331, Control_c, 0, 64, 127
2, 98778, Note_on_c, 0, 55, 0
2, 98858, Note_on_c, 0, 52, 0
2, 99010, Note_on_c, 0, 60, 0
2, 99060, Note_on_c, 0, 65, 0
2, 99815, Control_c, 0, 64, 0
2, 99835, Note_on_c, 0, 81, 51
2, 99839, Note_on_c, 0, 57, 38
2, 99849, Note_on_c, 0, 69, 43
2, 99850, Note_on_c, 0, 76, 46
2, 99856, Note_on_c, 0, 62, 42
2, 99863, Note_on_c, 0, 58, 36
2, 99877, Note_on_c, 0, 52, 36
2, 100272, Control_c, 0, 64, 127
2, 100541, Note_on_c, 0, 69, 0
2, 100604, Note_on_c, 0, 81, 0
2, 100675, Note_on_c, 0, 76, 0
2, 100693, Note_on_c, 0, 52, 0
2, 100753, Note_on_c, 0, 62, 0
2, 100763, Note_on_c, 0, 57, 0
2, 100807, Note_on_c, 0, 58, 0
2, 101086, Note_on_c, 0, 83, 66
2, 101092, Note_on_c, 0, 71, 64
2, 101105, Note_on_c, 0, 62, 51
2, 101111, Note_on_c, 0, 57, 47
2, 101116, Note_on_c, 0, 58, 53
2, 101148, Note_on_c, 0, 76, 25
2, 101169, Note_on_c, 0, 52, 27
2, 101209, Note_on_c, 0, 76, 0
2, 101390, Note_on_c, 0, 52, 0
2, 101398, Note_on_c, 0, 71, 0
2, 101432, Note_on_c, 0, 83, 0
2, 101438, Note_on_c, 0, 57, 0
2, 101474, Note_on_c, 0, 58, 0
2, 101532, Note_on_c, 0, 62, 0
2, 101791, Note_on_c, 0, 85, 69
2, 101801, Note_on_c, 0, 61, 48
2, 101807, Note_on_c, 0, 73, 51
2, 101808, Note_on_c, 0, 64, 67
2, 101813, Note_on_c, 0, 58, 62
2, 101820, Note_on_c, 0, 55, 42
2, 101828, Control_c, 0, 64, 0
2, 102127, Control_c, 0, 64, 127
2, 102307, Note_on_c, 0, 55, 0
2, 102337, Note_on_c, 0, 73, 0
2, 102341, Note_on_c, 0, 64, 0
2, 102350, Note_on_c, 0, 58, 0
2, 102374, Note_on_c, 0, 61, 0
2, 102404, Note_on_c, 0, 85, 0
2, 102528, Note_on_c, 0, 61, 54
2, 102529, Note_on_c, 0, 86, 68
2, 102540, Note_on_c, 0, 74, 67
2, 102540, Note_on_c, 0, 64, 54
2, 102542, Note_on_c, 0, 58, 54
2, 102557, Note_on_c, 0, 55, 38
2, 102630, Note_on_c, 0, 55, 0
2, 102641, Note_on_c, 0, 64, 0
2, 102651, Note_on_c, 0, 74, 0
2, 102681, Note_on_c, 0, 61, 0
2, 102687, Note_on_c, 0, 58, 0
2, 102693, Note_on_c, 0, 86, 0
2, 102774, Control_c, 0, 64, 0
2, 102807, Note_on_c, 0, 61, 49
2, 102809, Note_on_c, 0, 88, 69
2, 102811, Note_on_c, 0, 64, 41
2, 102817, Note_on_c, 0, 58, 49
2, 102824, Note_on_c, 0, 55, 26
2, 102825, Note_on_c, 0, 76, 65
2, 102935, Note_on_c, 0, 64, 0
2, 102942, Note_on_c, 0, 76, 0
2, 102966, Note_on_c, 0, 88, 0
2, 102975, Note_on_c, 0, 55, 0
2, 102978, Note_on_c, 0, 61, 0
2, 103017, Note_on_c, 0, 58, 0
2, 103101, Control_c, 0, 64, 127
2, 103128, Note_on_c, 0, 89, 68
2, 103130, Note_on_c, 0, 64, 41
2, 103133, Note_on_c, 0, 61, 40
2, 103141, Note_on_c, 0, 58, 50
2, 103154, Note_on_c, 0, 55, 20
2, 103156, Note_on_c, 0, 77, 40
2, 103193, Note_on_c, 0, 64, 0
2, 103200, Note_on_c, 0, 61, 0
2, 103224, Note_on_c, 0, 55, 0
2, 103225, Note_on_c, 0, 77, 0
2, 103235, Note_on_c, 0, 58, 0
2, 103279, Note_on_c, 0, 89, 0
2, 103345, Control_c, 0, 64, 0
2, 103486, Note_on_c, 0, 57, 55
2, 103504, Note_on_c, 0, 88, 66
2, 103523, Note_on_c, 0, 53, 34
2, 103530, Note_on_c, 0, 76, 51
2, 103537, Note_on_c, 0, 50, 29
2, 103597, Note_on_c, 0, 76, 0
2, 103638, Note_on_c, 0, 88, 0
2, 103640, Note_on_c, 0, 50, 0
2, 103698, Note_on_c, 0, 57, 0
2, 103699, Note_on_c, 0, 53, 0
2, 104003, Note_on_c, 0, 86, 59
2, 104023, Note_on_c, 0, 74, 58
2, 104028, Note_on_c, 0, 57, 32
2, 104068, Note_on_c, 0, 53, 21
2, 104112, Note_on_c, 0, 74, 0
2, 104128, Note_on_c, 0, 86, 0
2, 104232, Note_on_c, 0, 86, 45
2, 104268, Note_on_c, 0, 74, 37
2, 104387, Note_on_c, 0, 74, 0
2, 104417, Note_on_c, 0, 86, 0
2, 104476, Note_on_c, 0, 57, 0
2, 104511, Note_on_c, 0, 53, 0
2, 104688, Note_on_c, 0, 86, 61
2, 104715, Note_on_c, 0, 57, 30
2, 104723, Note_on_c, 0, 74, 45
2, 104785, Note_on_c, 0, 74, 0
2, 104830, Note_on_c, 0, 86, 0
2, 104883, Note_on_c, 0, 57, 0
2, 105588, Note_on_c, 0, 57, 35
2, 105629, Note_on_c, 0, 48, 23
2, 105737, Note_on_c, 0, 57, 0
2, 105763, Note_on_c, 0, 48, 0
2, 106331, Note_on_c, 0, 57, 39
2, 106342, Note_on_c, 0, 48, 34
2, 106492, Note_on_c, 0, 57, 0
2, 106575, Note_on_c, 0, 48, 0
2, 107015, Note_on_c, 0, 57, 47
2, 107027, Note_on_c, 0, 46, 35
2, 107497, Control_c, 0, 64, 127
2, 107583, Control_c, 0, 64, 0
2, 107627, Control_c, 0, 64, 127
2, 107718, Note_on_c, 0, 57, 0
2, 107843, Note_on_c, 0, 53, 21
2, 107912, Control_c, 0, 64, 0
2, 108023, Note_on_c, 0, 74, 81
2, 108046, Note_on_c, 0, 53, 0
2, 108073, Note_on_c, 0, 65, 33
2, 108131, Note_on_c, 0, 65, 0
2, 108196, Note_on_c, 0, 74, 0
2, 108288, Note_on_c, 0, 74, 75
2, 108443, Note_on_c, 0, 74, 0
2, 108506, Note_on_c, 0, 74, 59
2, 108699, Note_on_c, 0, 46, 0
2, 108735, Note_on_c, 0, 74, 0
2, 108907, Note_on_c, 0, 74, 72
2, 109067, Note_on_c, 0, 74, 0
2, 109179, Note_on_c, 0, 74, 51
2, 109373, Note_on_c, 0, 74, 0
2, 109425, Note_on_c, 0, 60, 30
2, 109427, Note_on_c, 0, 58, 38
2, 109467, Note_on_c, 0, 72, 43
2, 109470, Note_on_c, 0, 52, 21
2, 109650, Note_on_c, 0, 72, 0
2, 109865, Note_on_c, 0, 60, 0
2, 109911, Note_on_c, 0, 70, 52
2, 109957, Note_on_c, 0, 58, 0
2, 110109, Note_on_c, 0, 70, 0
2, 110382, Note_on_c, 0, 69, 47
2, 110495, Note_on_c, 0, 52, 0
2, 110586, Note_on_c, 0, 69, 0
2, 110844, Note_on_c, 0, 67, 44
2, 111039, Note_on_c, 0, 67, 0
2, 111284, Note_on_c, 0, 57, 39
2, 111295, Note_on_c, 0, 60, 25
2, 111315, Note_on_c, 0, 53, 26
2, 111358, Note_on_c, 0, 70, 61
2, 111601, Note_on_c, 0, 70, 0
2, 111812, Note_on_c, 0, 69, 55
2, 111843, Note_on_c, 0, 57, 0
2, 111860, Note_on_c, 0, 60, 0
2, 111947, Note_on_c, 0, 53, 0
2, 112057, Note_on_c, 0, 69, 0
2, 112117, Note_on_c, 0, 70, 37
2, 112198, Note_on_c, 0, 69, 34
2, 112263, Note_on_c, 0, 70, 0
2, 112372, Note_on_c, 0, 69, 0
2, 112375, Note_on_c, 0, 67, 33
2, 112561, Note_on_c, 0, 67, 0
2, 112689, Note_on_c, 0, 69, 57
2, 112863, Note_on_c, 0, 69, 0
2, 113082, Note_on_c, 0, 69, 59
2, 113148, Note_on_c, 0, 60, 20
2, 113266, Note_on_c, 0, 69, 0
2, 113287, Note_on_c, 0, 60, 0
2, 113397, Note_on_c, 0, 69, 48
2, 114051, Note_on_c, 0, 69, 0
2, 114110, Note_on_c, 0, 67, 68
2, 114673, Note_on_c, 0, 67, 0
2, 114781, Note_on_c, 0, 57, 26
2, 114794, Note_on_c, 0, 67, 33
2, 114795, Note_on_c, 0, 53, 25
2, 114797, Note_on_c, 0, 59, 25
2, 114815, Note_on_c, 0, 50, 19
2, 114817, Note_on_c, 0, 65, 34
2, 115016, Note_on_c, 0, 67, 0
2, 115064, Note_on_c, 0, 65, 0
2, 115203, Note_on_c, 0, 65, 37
2, 115734, Control_c, 0, 64, 127
2, 115768, Note_on_c, 0, 59, 0
2, 115791, Control_c, 0, 64, 0
2, 115792, Note_on_c, 0, 57, 0
2, 115828, Note_on_c, 0, 53, 0
2, 115848, Note_on_c, 0, 50, 0
2, 116061, Note_on_c, 0, 65, 0
2, 116178, Note_on_c, 0, 69, 76
2, 116661, Control_c, 0, 64, 127
2, 116775, Note_on_c, 0, 69, 0
2, 117134, Control_c, 0, 64, 0
2, 117165, Note_on_c, 0, 62, 51
2, 117166, Note_on_c, 0, 67, 53
2, 117169, Note_on_c, 0, 59, 54
2, 117233, Note_on_c, 0, 53, 23
2, 117715, Note_on_c, 0, 53, 0
2, 117834, Note_on_c, 0, 50, 30
2, 117918, Note_on_c, 0, 62, 0
2, 117949, Note_on_c, 0, 59, 0
2, 118065, Note_on_c, 0, 62, 50
2, 118068, Note_on_c, 0, 67, 0
2, 118085, Note_on_c, 0, 50, 0
2, 118118, Control_c, 0, 64, 127
2, 118119, Note_on_c, 0, 53, 23
2, 118244, Note_on_c, 0, 53, 0
2, 118670, Note_on_c, 0, 62, 0
2, 118835, Note_on_c, 0, 46, 31
2, 118980, Note_on_c, 0, 46, 0
2, 119012, Note_on_c, 0, 48, 41
2, 119016, Control_c, 0, 64, 0
2, 119349, Note_on_c, 0, 57, 56
2, 119361, Note_on_c, 0, 65, 56
2, 119395, Note_on_c, 0, 62, 27
2, 119406, Note_on_c, 0, 57, 0
2, 119446, Note_on_c, 0, 62, 0
2, 119492, Note_on_c, 0, 65, 0
2, 119758, Note_on_c, 0, 46, 33
2, 119794, Note_on_c, 0, 48, 0
2, 119957, Note_on_c, 0, 46, 0
2, 119982, Note_on_c, 0, 57, 59
2, 119994, Note_on_c, 0, 69, 42
2, 119996, Note_on_c, 0, 62, 45
2, 120007, Note_on_c, 0, 65, 52
2, 120023, Note_on_c, 0, 48, 33
2, 120590, Note_on_c, 0, 57, 0
2, 120706, Note_on_c, 0, 69, 0
2, 120760, Note_on_c, 0, 48, 0
2, 120796, Note_on_c, 0, 62, 0
2, 120819, Note_on_c, 0, 65, 0
2, 120907, Note_on_c, 0, 69, 48
2, 120909, Note_on_c, 0, 48, 40
2, 120921, Note_on_c, 0, 58, 31
2, 120928, Note_on_c, 0, 62, 54
2, 120951, Note_on_c, 0, 65, 32
2, 121215, Control_c, 0, 64, 127
2, 121343, Note_on_c, 0, 48, 0
2, 121406, Note_on_c, 0, 62, 0
2, 121421, Note_on_c, 0, 58, 0
2, 121467, Note_on_c, 0, 69, 0
2, 121471, Note_on_c, 0, 65, 0
2, 121501, Control_c, 0, 64, 0
2, 121650, Note_on_c, 0, 58, 51
2, 121653, Note_on_c, 0, 69, 41
2, 121672, Note_on_c, 0, 62, 49
2, 121695, Note_on_c, 0, 48, 32
2, 121703, Note_on_c, 0, 65, 36
2, 121713, Control_c, 0, 64, 127
2, 121904, Note_on_c, 0, 58, 0
2, 121934, Note_on_c, 0, 48, 0
2, 121995, Note_on_c, 0, 62, 0
2, 122069, Note_on_c, 0, 65, 0
2, 122174, Note_on_c, 0, 69, 0
2, 122867, Note_on_c, 0, 81, 76
2, 122871, Control_c, 0, 64, 0
2, 122878, Note_on_c, 0, 58, 56
2, 122891, Note_on_c, 0, 57, 54
2, 122892, Note_on_c, 0, 62, 57
2, 122896, Note_on_c, 0, 69, 77
2, 122916, Note_on_c, 0, 53, 38
2, 123129, Control_c, 0, 64, 127
2, 123318, Note_on_c, 0, 81, 0
2, 123433, Note_on_c, 0, 53, 0
2, 123459, Note_on_c, 0, 62, 0
2, 123526, Note_on_c, 0, 57, 0
2, 123537, Note_on_c, 0, 58, 0
2, 123551, Note_on_c, 0, 69, 0
2, 123621, Note_on_c, 0, 62, 63
2, 123624, Note_on_c, 0, 70, 78
2, 123631, Note_on_c, 0, 58, 64
2, 123637, Note_on_c, 0, 57, 57
2, 123647, Note_on_c, 0, 53, 57
2, 124040, Note_on_c, 0, 53, 0
2, 124070, Note_on_c, 0, 62, 0
2, 124134, Note_on_c, 0, 57, 0
2, 124157, Note_on_c, 0, 58, 0
2, 124261, Note_on_c, 0, 70, 0
2, 124326, Note_on_c, 0, 72, 75
2, 124332, Note_on_c, 0, 62, 71
2, 124336, Note_on_c, 0, 58, 68
2, 124342, Note_on_c, 0, 57, 65
2, 124362, Note_on_c, 0, 53, 56
2, 124397, Control_c, 0, 64, 0
2, 124625, Control_c, 0, 64, 127
2, 124840, Note_on_c, 0, 53, 0
2, 124884, Note_on_c, 0, 62, 0
2, 124923, Note_on_c, 0, 57, 0
2, 124924, Note_on_c, 0, 58, 0
2, 124968, Note_on_c, 0, 72, 0
2, 125040, Note_on_c, 0, 74, 81
2, 125051, Note_on_c, 0, 58, 61
2, 125052, Note_on_c, 0, 62, 62
2, 125054, Note_on_c, 0, 57, 58
2, 125075, Note_on_c, 0, 53, 51
2, 125628, Note_on_c, 0, 53, 0
2, 125653, Note_on_c, 0, 58, 0
2, 125656, Note_on_c, 0, 62, 0
2, 125705, Note_on_c, 0, 74, 0
2, 125716, Note_on_c, 0, 57, 0
2, 125770, Note_on_c, 0, 57, 25
2, 125777, Note_on_c, 0, 62, 56
2, 125779, Note_on_c, 0, 58, 52
2, 125784, Note_on_c, 0, 76, 66
2, 125800, Note_on_c, 0, 53, 30
2, 125974, Note_on_c, 0, 62, 0
2, 125978, Note_on_c, 0, 53, 0
2, 125994, Note_on_c, 0, 76, 0
2, 126012, Note_on_c, 0, 58, 0
2, 126041, Control_c, 0, 64, 0
2, 126048, Note_on_c, 0, 57, 0
2, 126076, Note_on_c, 0, 77, 69
2, 126212, Note_on_c, 0, 62, 44
2, 126224, Note_on_c, 0, 58, 50
2, 126229, Note_on_c, 0, 57, 33
2, 126243, Note_on_c, 0, 53, 27
2, 126276, Note_on_c, 0, 79, 69
2, 126374, Note_on_c, 0, 77, 0
2, 126418, Note_on_c, 0, 53, 0
2, 126475, Note_on_c, 0, 79, 0
2, 126493, Note_on_c, 0, 58, 0
2, 126495, Note_on_c, 0, 57, 0
2, 126509, Note_on_c, 0, 62, 0
2, 126696, Note_on_c, 0, 60, 44
2, 126798, Note_on_c, 0, 60, 0
2, 127213, Note_on_c, 0, 79, 70
2, 127316, Note_on_c, 0, 79, 0
2, 127694, Note_on_c, 0, 79, 73
2, 128100, Note_on_c, 0, 79, 0
2, 128164, Note_on_c, 0, 77, 59
2, 128352, Note_on_c, 0, 77, 0
2, 128479, Note_on_c, 0, 76, 20
2, 128612, Note_on_c, 0, 76, 0
2, 128639, Note_on_c, 0, 77, 52
2, 129091, Note_on_c, 0, 77, 0
2, 129132, Note_on_c, 0, 76, 37
2, 129424, Note_on_c, 0, 74, 46
2, 129458, Note_on_c, 0, 76, 0
2, 129556, Note_on_c, 0, 74, 0
2, 129627, Note_on_c, 0, 76, 34
2, 130085, Note_on_c, 0, 76, 0
2, 130092, Note_on_c, 0, 74, 56
2, 130485, Note_on_c, 0, 74, 0
2, 130567, Note_on_c, 0, 71, 43
2, 130573, Note_on_c, 0, 62, 29
2, 130604, Note_on_c, 0, 59, 25
2, 130608, Note_on_c, 0, 55, 18
2, 130898, Note_on_c, 0, 71, 0
2, 130987, Note_on_c, 0, 62, 0
2, 131068, Note_on_c, 0, 67, 53
2, 131093, Note_on_c, 0, 59, 0
2, 131095, Note_on_c, 0, 55, 0
2, 131287, Note_on_c, 0, 67, 0
2, 131567, Note_on_c, 0, 67, 41
2, 131885, Note_on_c, 0, 67, 0
2, 132329, Note_on_c, 0, 61, 36
2, 132355, Note_on_c, 0, 65, 38
2, 132387, Note_on_c, 0, 55, 23
2, 132821, Note_on_c, 0, 69, 46
2, 132835, Note_on_c, 0, 55, 0
2, 132842, Note_on_c, 0, 65, 0
2, 132948, Note_on_c, 0, 69, 0
2, 133020, Note_on_c, 0, 61, 0
2, 133032, Note_on_c, 0, 70, 40
2, 133231, Note_on_c, 0, 70, 0
2, 133299, Note_on_c, 0, 72, 56
2, 133324, Note_on_c, 0, 61, 52
2, 133361, Note_on_c, 0, 65, 34
2, 133425, Note_on_c, 0, 65, 0
2, 133460, Note_on_c, 0, 72, 0
2, 133511, Note_on_c, 0, 61, 0
2, 133516, Note_on_c, 0, 73, 40
2, 133714, Note_on_c, 0, 73, 0
2, 133761, Note_on_c, 0, 75, 71
2, 133926, Note_on_c, 0, 75, 0
2, 133960, Note_on_c, 0, 76, 74
2, 134189, Note_on_c, 0, 76, 0
2, 134218, Note_on_c, 0, 79, 84
2, 134301, Note_on_c, 0, 60, 43
2, 134331, Note_on_c, 0, 57, 39
2, 134344, Note_on_c, 0, 53, 32
2, 134358, Note_on_c, 0, 60, 0
2, 134390, Note_on_c, 0, 79, 0
2, 134469, Note_on_c, 0, 77, 63
2, 134486, Note_on_c, 0, 53, 0
2, 134498, Note_on_c, 0, 57, 0
2, 134812, Note_on_c, 0, 77, 0
2, 134905, Note_on_c, 0, 76, 39
2, 135149, Note_on_c, 0, 76, 0
2, 135203, Note_on_c, 0, 74, 42
2, 135353, Note_on_c, 0, 74, 0
2, 135431, Note_on_c, 0, 76, 33
2, 135738, Note_on_c, 0, 76, 0
2, 135971, Note_on_c, 0, 72, 15
2, 136126, Note_on_c, 0, 72, 0
2, 136873, Note_on_c, 0, 69, 46
2, 137028, Note_on_c, 0, 69, 0
2, 137349, Note_on_c, 0, 69, 41
2, 137683, Note_on_c, 0, 69, 0
2, 137824, Note_on_c, 0, 65, 35
2, 137947, Note_on_c, 0, 65, 0
2, 140103, Note_on_c, 0, 60, 19
2, 140170, Note_on_c, 0, 60, 0
2, 140440, Note_on_c, 0, 75, 56
2, 140520, Note_on_c, 0, 76, 75
2, 140576, Note_on_c, 0, 75, 0
2, 140631, Note_on_c, 0, 76, 0
2, 140688, Note_on_c, 0, 77, 81
2, 140733, Note_on_c, 0, 76, 38
2, 140796, Note_on_c, 0, 76, 0
2, 141412, Note_on_c, 0, 76, 73
2, 141480, Note_on_c, 0, 77, 0
2, 141585, Note_on_c, 0, 76, 0
2, 141632, Note_on_c, 0, 74, 38
2, 141841, Note_on_c, 0, 74, 0
2, 141924, Note_on_c, 0, 72, 37
2, 142005, Note_on_c, 0, 72, 0
2, 142104, Note_on_c, 0, 74, 53
2, 142117, Note_on_c, 0, 76, 49
2, 142251, Note_on_c, 0, 76, 0
2, 142509, Note_on_c, 0, 74, 0
2, 142588, Note_on_c, 0, 72, 34
2, 142812, Note_on_c, 0, 72, 0
2, 143029, Note_on_c, 0, 69, 47
2, 143176, Note_on_c, 0, 69, 0
2, 143545, Note_on_c, 0, 65, 29
2, 143734, Note_on_c, 0, 65, 0
2, 143809, Note_on_c, 0, 69, 47
2, 143939, Note_on_c, 0, 69, 0
2, 144286, Note_on_c, 0, 57, 37
2, 144371, Note_on_c, 0, 57, 0
2, 145199, Note_on_c, 0, 61, 74
2, 145202, Note_on_c, 0, 81, 70
2, 145205, Note_on_c, 0, 55, 65
2, 145206, Note_on_c, 0, 69, 79
2, 145207, Note_on_c, 0, 64, 79
2, 145216, Note_on_c, 0, 73, 57
2, 145223, Note_on_c, 0, 76, 61
2, 145264, Note_on_c, 0, 79, 32
2, 145335, Note_on_c, 0, 64, 0
2, 145389, Note_on_c, 0, 69, 0
2, 145391, Note_on_c, 0, 73, 0
2, 145395, Note_on_c, 0, 55, 0
2, 145423, Note_on_c, 0, 79, 0
2, 145431, Note_on_c, 0, 61, 0
2, 145438, Note_on_c, 0, 81, 0
2, 145445, Note_on_c, 0, 76, 0
2, 145581, Note_on_c, 0, 81, 55
2, 145592, Note_on_c, 0, 73, 54
2, 145602, Note_on_c, 0, 69, 66
2, 145604, Note_on_c, 0, 61, 65
2, 145607, Note_on_c, 0, 76, 62
2, 145608, Note_on_c, 0, 55, 59
2, 145611, Note_on_c, 0, 64, 72
2, 145628, Note_on_c, 0, 79, 41
2, 145778, Note_on_c, 0, 64, 0
2, 145779, Note_on_c, 0, 81, 0
2, 145782, Note_on_c, 0, 79, 0
2, 145796, Note_on_c, 0, 55, 0
2, 145819, Note_on_c, 0, 69, 0
2, 145839, Note_on_c, 0, 73, 0
2, 145860, Note_on_c, 0, 76, 0
2, 145883, Note_on_c, 0, 61, 0
2, 145942, Note_on_c, 0, 79, 67
2, 145949, Note_on_c, 0, 76, 66
2, 145954, Note_on_c, 0, 69, 66
2, 145958, Note_on_c, 0, 72, 67
2, 145961, Note_on_c, 0, 64, 73
2, 146160, Note_on_c, 0, 79, 0
2, 146164, Note_on_c, 0, 72, 0
2, 146166, Note_on_c, 0, 76, 0
2, 146166, Note_on_c, 0, 69, 0
2, 146299, Note_on_c, 0, 64, 0
2, 146412, Note_on_c, 0, 63, 52
2, 146416, Note_on_c, 0, 78, 53
2, 146433, Note_on_c, 0, 69, 34
2, 146437, Note_on_c, 0, 72, 39
2, 146618, Note_on_c, 0, 78, 0
2, 146632, Note_on_c, 0, 72, 0
2, 146640, Note_on_c, 0, 69, 0
2, 146696, Note_on_c, 0, 63, 0
2, 146713, Note_on_c, 0, 69, 19
2, 146723, Note_on_c, 0, 77, 53
2, 146730, Note_on_c, 0, 72, 37
2, 146753, Note_on_c, 0, 62, 40
2, 146847, Note_on_c, 0, 69, 0
2, 146865, Note_on_c, 0, 72, 0
2, 146877, Note_on_c, 0, 77, 0
2, 146908, Note_on_c, 0, 62, 0
2, 148313, Note_on_c, 0, 59, 30
2, 148314, Note_on_c, 0, 64, 37
2, 148342, Note_on_c, 0, 53, 31
2, 148511, Note_on_c, 0, 64, 0
2, 148560, Note_on_c, 0, 53, 0
2, 148849, Note_on_c, 0, 73, 47
2, 148868, Note_on_c, 0, 59, 0
2, 148933, Note_on_c, 0, 73, 0
2, 148964, Note_on_c, 0, 74, 52
2, 149107, Note_on_c, 0, 74, 0
2, 149169, Note_on_c, 0, 79, 80
2, 149182, Note_on_c, 0, 67, 76
2, 149200, Note_on_c, 0, 64, 50
2, 149202, Note_on_c, 0, 59, 46
2, 149256, Note_on_c, 0, 64, 0
2, 149330, Note_on_c, 0, 59, 0
2, 149350, Note_on_c, 0, 67, 0
2, 149368, Note_on_c, 0, 79, 0
2, 149614, Note_on_c, 0, 79, 75
2, 149621, Note_on_c, 0, 67, 72
2, 149663, Note_on_c, 0, 69, 35
2, 149715, Note_on_c, 0, 69, 0
2, 149741, Note_on_c, 0, 67, 0
2, 149744, Note_on_c, 0, 79, 0
2, 149863, Note_on_c, 0, 58, 44
2, 149879, Note_on_c, 0, 62, 23
2, 149899, Note_on_c, 0, 57, 27
2, 149924, Note_on_c, 0, 77, 68
2, 149937, Note_on_c, 0, 65, 67
2, 150092, Note_on_c, 0, 62, 0
2, 150169, Note_on_c, 0, 77, 0
2, 150175, Note_on_c, 0, 65, 0
2, 150274, Note_on_c, 0, 57, 0
2, 150305, Note_on_c, 0, 77, 62
2, 150307, Note_on_c, 0, 58, 0
2, 150325, Note_on_c, 0, 65, 56
2, 150492, Note_on_c, 0, 77, 0
2, 150493, Note_on_c, 0, 65, 0
2, 150607, Note_on_c, 0, 77, 54
2, 150621, Note_on_c, 0, 65, 63
2, 150644, Note_on_c, 0, 62, 40
2, 150667, Note_on_c, 0, 58, 46
2, 150769, Note_on_c, 0, 62, 0
2, 150820, Note_on_c, 0, 77, 0
2, 150825, Note_on_c, 0, 58, 0
2, 150827, Note_on_c, 0, 65, 0
2, 151009, Note_on_c, 0, 77, 67
2, 151033, Note_on_c, 0, 65, 56
2, 151126, Note_on_c, 0, 77, 0
2, 151143, Note_on_c, 0, 65, 0
2, 151254, Note_on_c, 0, 77, 47
2, 151260, Note_on_c, 0, 65, 58
2, 151385, Note_on_c, 0, 65, 0
2, 151409, Note_on_c, 0, 77, 0
2, 151954, Note_on_c, 0, 57, 32
2, 151955, Note_on_c, 0, 62, 33
2, 151957, Note_on_c, 0, 58, 44
2, 152037, Note_on_c, 0, 62, 0
2, 152074, Note_on_c, 0, 57, 0
2, 152087, Note_on_c, 0, 58, 0
2, 152520, Note_on_c, 0, 58, 36
2, 152587, Note_on_c, 0, 58, 0
2, 152640, Note_on_c, 0, 69, 52
2, 152706, Note_on_c, 0, 69, 0
2, 152800, Note_on_c, 0, 70, 65
2, 152936, Note_on_c, 0, 70, 0
2, 152960, Note_on_c, 0, 72, 68
2, 153023, Note_on_c, 0, 72, 0
2, 153120, Note_on_c, 0, 70, 56
2, 153264, Note_on_c, 0, 70, 0
2, 153280, Note_on_c, 0, 72, 36
2, 153440, Note_on_c, 0, 74, 58
2, 153462, Note_on_c, 0, 72, 0
2, 153579, Note_on_c, 0, 74, 0
2, 153612, Note_on_c, 0, 72, 58
2, 153736, Note_on_c, 0, 72, 0
2, 153779, Note_on_c, 0, 74, 52
2, 153929, Note_on_c, 0, 76, 60
2, 153948, Note_on_c, 0, 74, 0
2, 154066, Note_on_c, 0, 76, 0
2, 154077, Note_on_c, 0, 74, 44
2, 154260, Note_on_c, 0, 76, 50
2, 154273, Note_on_c, 0, 74, 0
2, 154441, Note_on_c, 0, 77, 61
2, 154451, Note_on_c, 0, 76, 0
2, 154553, Note_on_c, 0, 77, 0
2, 154579, Note_on_c, 0, 76, 45
2, 154740, Note_on_c, 0, 77, 64
2, 154754, Note_on_c, 0, 76, 0
2, 154912, Note_on_c, 0, 79, 55
2, 154913, Note_on_c, 0, 77, 0
2, 154940, Note_on_c, 0, 62, 31
2, 155001, Note_on_c, 0, 62, 0
2, 155011, Note_on_c, 0, 79, 0
2, 155038, Note_on_c, 0, 77, 53
2, 155178, Note_on_c, 0, 77, 0
2, 155221, Note_on_c, 0, 79, 35
2, 155367, Note_on_c, 0, 81, 66
2, 155382, Note_on_c, 0, 79, 0
2, 155441, Note_on_c, 0, 62, 34
2, 155475, Note_on_c, 0, 81, 0
2, 155494, Note_on_c, 0, 62, 0
2, 155528, Note_on_c, 0, 79, 52
2, 155724, Note_on_c, 0, 81, 43
2, 155727, Note_on_c, 0, 79, 0
2, 155789, Note_on_c, 0, 81, 0
2, 155925, Note_on_c, 0, 81, 70
2, 156105, Note_on_c, 0, 81, 0
2, 156348, Note_on_c, 0, 82, 83
2, 156429, Note_on_c, 0, 58, 40
2, 156439, Note_on_c, 0, 57, 32
2, 156440, Note_on_c, 0, 62, 33
2, 156490, Note_on_c, 0, 62, 0
2, 156490, Note_on_c, 0, 82, 0
2, 156503, Note_on_c, 0, 57, 0
2, 156556, Note_on_c, 0, 58, 0
2, 156587, Note_on_c, 0, 83, 63
2, 156699, Note_on_c, 0, 83, 0
2, 156833, Note_on_c, 0, 86, 56
2, 156836, Note_on_c, 0, 84, 65
2, 156863, Note_on_c, 0, 62, 62
2, 156867, Note_on_c, 0, 58, 56
2, 156870, Note_on_c, 0, 57, 48
2, 156883, Note_on_c, 0, 84, 0
2, 156943, Note_on_c, 0, 86, 0
2, 156974, Note_on_c, 0, 57, 0
2, 157005, Note_on_c, 0, 62, 0
2, 157045, Note_on_c, 0, 87, 56
2, 157073, Note_on_c, 0, 58, 0
2, 157123, Note_on_c, 0, 87, 0
2, 157273, Note_on_c, 0, 87, 30
2, 157295, Note_on_c, 0, 88, 73
2, 157321, Note_on_c, 0, 87, 0
2, 157344, Note_on_c, 0, 60, 53
2, 157350, Note_on_c, 0, 64, 66
2, 157357, Note_on_c, 0, 57, 58
2, 157414, Note_on_c, 0, 53, 28
2, 157429, Note_on_c, 0, 88, 0
2, 157451, Note_on_c, 0, 64, 0
2, 157513, Note_on_c, 0, 91, 89
2, 157547, Note_on_c, 0, 53, 0
2, 157610, Note_on_c, 0, 57, 0
2, 157628, Note_on_c, 0, 60, 0
2, 157754, Note_on_c, 0, 88, 68
2, 157776, Note_on_c, 0, 91, 0
2, 157808, Note_on_c, 0, 60, 25
2, 157884, Note_on_c, 0, 88, 0
2, 157902, Note_on_c, 0, 60, 0
2, 157961, Note_on_c, 0, 89, 74
2, 158184, Note_on_c, 0, 64, 54
2, 158185, Note_on_c, 0, 89, 0
2, 158188, Note_on_c, 0, 84, 67
2, 158242, Note_on_c, 0, 64, 0
2, 158325, Note_on_c, 0, 84, 0
2, 158420, Note_on_c, 0, 81, 39
2, 158658, Note_on_c, 0, 64, 61
2, 158672, Note_on_c, 0, 81, 0
2, 158698, Note_on_c, 0, 60, 33
2, 158715, Note_on_c, 0, 64, 0
2, 158732, Note_on_c, 0, 57, 36
2, 158809, Note_on_c, 0, 57, 0
2, 158866, Note_on_c, 0, 60, 0
2, 158891, Note_on_c, 0, 81, 68
2, 159067, Note_on_c, 0, 81, 0
2, 159832, Note_on_c, 0, 85, 91
2, 159835, Note_on_c, 0, 92, 86
2, 159837, Note_on_c, 0, 63, 82
2, 159840, Note_on_c, 0, 57, 83
2, 159842, Note_on_c, 0, 89, 76
2, 159859, Note_on_c, 0, 68, 63
2, 159863, Note_on_c, 0, 66, 63
2, 159870, Note_on_c, 0, 84, 65
2, 159917, Note_on_c, 0, 84, 0
2, 160001, Note_on_c, 0, 66, 0
2, 160318, Control_c, 0, 64, 127
2, 160370, Note_on_c, 0, 57, 0
2, 160391, Note_on_c, 0, 68, 0
2, 160402, Note_on_c, 0, 85, 0
2, 160452, Note_on_c, 0, 92, 0
2, 160467, Note_on_c, 0, 63, 0
2, 160474, Note_on_c, 0, 89, 0
2, 160559, Note_on_c, 0, 63, 69
2, 160565, Note_on_c, 0, 89, 72
2, 160566, Note_on_c, 0, 68, 80
2, 160576, Note_on_c, 0, 57, 77
2, 160593, Note_on_c, 0, 85, 59
2, 160791, Note_on_c, 0, 68, 0
2, 160795, Note_on_c, 0, 85, 0
2, 160842, Note_on_c, 0, 57, 0
2, 160855, Note_on_c, 0, 63, 0
2, 160880, Note_on_c, 0, 89, 0
2, 160970, Note_on_c, 0, 90, 19
2, 161098, Note_on_c, 0, 90, 0
2, 161237, Note_on_c, 0, 59, 54
2, 161243, Note_on_c, 0, 52, 61
2, 161247, Note_on_c, 0, 55, 52
2, 161249, Note_on_c, 0, 62, 68
2, 161255, Note_on_c, 0, 86, 66
2, 161263, Note_on_c, 0, 79, 58
2, 161284, Note_on_c, 0, 91, 46
2, 161301, Note_on_c, 0, 89, 52
2, 161364, Note_on_c, 0, 89, 0
2, 161389, Control_c, 0, 64, 0
2, 161592, Note_on_c, 0, 91, 0
2, 161603, Control_c, 0, 64, 127
2, 161644, Note_on_c, 0, 86, 0
2, 161704, Note_on_c, 0, 79, 0
2, 161817, Note_on_c, 0, 52, 0
2, 161852, Note_on_c, 0, 62, 0
2, 161886, Note_on_c, 0, 55, 0
2, 161904, Note_on_c, 0, 59, 0
2, 162016, Note_on_c, 0, 86, 63
2, 162022, Note_on_c, 0, 79, 58
2, 162025, Note_on_c, 0, 59, 51
2, 162026, Note_on_c, 0, 74, 65
2, 162028, Note_on_c, 0, 55, 36
2, 162029, Note_on_c, 0, 83, 57
2, 162032, Note_on_c, 0, 62, 65
2, 162033, Note_on_c, 0, 52, 63
2, 162062, Note_on_c, 0, 84, 39
2, 162223, Note_on_c, 0, 83, 0
2, 162246, Note_on_c, 0, 86, 0
2, 162273, Note_on_c, 0, 79, 0
2, 162294, Note_on_c, 0, 84, 0
2, 162332, Note_on_c, 0, 74, 0
2, 162450, Note_on_c, 0, 52, 0
2, 162463, Note_on_c, 0, 62, 0
2, 162479, Note_on_c, 0, 78, 20
2, 162480, Note_on_c, 0, 55, 0
2, 162504, Note_on_c, 0, 59, 0
2, 162554, Note_on_c, 0, 78, 0
2, 162713, Note_on_c, 0, 71, 61
2, 162715, Note_on_c, 0, 83, 58
2, 162720, Note_on_c, 0, 76, 56
2, 162730, Note_on_c, 0, 62, 66
2, 162736, Control_c, 0, 64, 0
2, 162737, Note_on_c, 0, 59, 56
2, 162742, Note_on_c, 0, 55, 43
2, 162743, Note_on_c, 0, 52, 54
2, 162766, Note_on_c, 0, 79, 32
2, 163042, Note_on_c, 0, 83, 0
2, 163049, Control_c, 0, 64, 127
2, 163063, Note_on_c, 0, 79, 0
2, 163104, Note_on_c, 0, 76, 0
2, 163111, Note_on_c, 0, 52, 0
2, 163161, Note_on_c, 0, 55, 0
2, 163168, Note_on_c, 0, 59, 0
2, 163191, Note_on_c, 0, 71, 0
2, 163218, Note_on_c, 0, 62, 0
2, 163465, Control_c, 0, 64, 0
2, 163485, Note_on_c, 0, 73, 54
2, 163493, Note_on_c, 0, 81, 61
2, 163500, Note_on_c, 0, 69, 66
2, 163505, Note_on_c, 0, 64, 67
2, 163507, Note_on_c, 0, 61, 44
2, 163517, Note_on_c, 0, 58, 47
2, 163521, Note_on_c, 0, 55, 36
2, 163531, Note_on_c, 0, 76, 43
2, 163544, Note_on_c, 0, 79, 32
2, 163793, Control_c, 0, 64, 127
2, 163820, Control_c, 0, 64, 0
2, 163892, Control_c, 0, 64, 127
2, 163896, Note_on_c, 0, 81, 0
2, 164016, Note_on_c, 0, 69, 0
2, 164043, Note_on_c, 0, 79, 0
2, 164069, Note_on_c, 0, 64, 0
2, 164070, Note_on_c, 0, 61, 0
2, 164073, Note_on_c, 0, 73, 0
2, 164161, Note_on_c, 0, 76, 0
2, 164208, Control_c, 0, 64, 0
2, 164233, Note_on_c, 0, 61, 49
2, 164243, Note_on_c, 0, 73, 38
2, 164248, Note_on_c, 0, 64, 53
2, 164259, Note_on_c, 0, 79, 47
2, 164261, Note_on_c, 0, 69, 52
2, 164263, Note_on_c, 0, 76, 21
2, 164679, Note_on_c, 0, 61, 0
2, 164712, Note_on_c, 0, 76, 0
2, 164759, Note_on_c, 0, 79, 0
2, 164780, Note_on_c, 0, 64, 0
2, 164811, Note_on_c, 0, 73, 0
2, 164815, Note_on_c, 0, 69, 0
2, 164915, Note_on_c, 0, 55, 0
2, 164939, Note_on_c, 0, 69, 45
2, 164942, Note_on_c, 0, 77, 47
2, 164963, Note_on_c, 0, 72, 38
2, 165016, Note_on_c, 0, 62, 43
2, 165021, Note_on_c, 0, 58, 0
2, 165038, Note_on_c, 0, 69, 0
2, 165041, Note_on_c, 0, 72, 0
2, 165056, Note_on_c, 0, 77, 0
2, 165401, Note_on_c, 0, 57, 53
2, 165427, Note_on_c, 0, 62, 0
2, 165563, Note_on_c, 0, 57, 0
2, 165591, Note_on_c, 0, 68, 37
2, 165614, Note_on_c, 0, 74, 36
2, 165722, Note_on_c, 0, 68, 0
2, 165768, Note_on_c, 0, 69, 25
2, 165856, Note_on_c, 0, 74, 0
2, 165924, Note_on_c, 0, 69, 0
2, 165985, Note_on_c, 0, 57, 29
2, 166088, Note_on_c, 0, 74, 53
2, 166094, Note_on_c, 0, 68, 51
2, 166105, Note_on_c, 0, 57, 0
2, 166246, Note_on_c, 0, 68, 0
2, 166280, Note_on_c, 0, 69, 30
2, 166443, Note_on_c, 0, 69, 0
2, 166469, Note_on_c, 0, 57, 34
2, 166476, Note_on_c, 0, 74, 0
2, 166560, Note_on_c, 0, 65, 45
2, 166570, Note_on_c, 0, 57, 0
2, 166735, Note_on_c, 0, 65, 0
2, 167042, Note_on_c, 0, 67, 76
2, 167058, Note_on_c, 0, 74, 65
2, 167082, Note_on_c, 0, 57, 34
2, 167098, Note_on_c, 0, 48, 28
2, 167268, Note_on_c, 0, 67, 0
2, 167351, Note_on_c, 0, 69, 41
2, 167362, Note_on_c, 0, 74, 0
2, 167422, Note_on_c, 0, 69, 0
2, 167429, Note_on_c, 0, 67, 41
2, 167484, Note_on_c, 0, 57, 0
2, 167595, Note_on_c, 0, 65, 44
2, 167605, Note_on_c, 0, 67, 0
2, 167634, Note_on_c, 0, 48, 0
2, 167757, Note_on_c, 0, 65, 0
2, 167858, Note_on_c, 0, 64, 41
2, 167997, Note_on_c, 0, 64, 0
2, 168261, Note_on_c, 0, 57, 44
2, 168289, Note_on_c, 0, 48, 37
2, 168325, Note_on_c, 0, 57, 0
2, 168416, Note_on_c, 0, 65, 67
2, 168449, Note_on_c, 0, 48, 0
2, 168833, Note_on_c, 0, 46, 32
2, 168901, Note_on_c, 0, 65, 0
2, 168976, Note_on_c, 0, 62, 47
2, 168982, Note_on_c, 0, 46, 0
2, 169197, Note_on_c, 0, 62, 0
2, 169275, Note_on_c, 0, 57, 50
2, 169379, Note_on_c, 0, 57, 0
2, 169704, Note_on_c, 0, 57, 61
2, 169835, Note_on_c, 0, 57, 0
2, 169966, Note_on_c, 0, 57, 58
2, 170226, Note_on_c, 0, 46, 28
2, 170246, Note_on_c, 0, 57, 0
2, 170279, Note_on_c, 0, 46, 0
2, 170433, Note_on_c, 0, 57, 59
2, 171107, Note_on_c, 0, 57, 0
2, 171705, Note_on_c, 0, 48, 48
2, 171779, Note_on_c, 0, 48, 0
2, 171856, Note_on_c, 0, 60, 28
2, 172054, Note_on_c, 0, 62, 48
2, 172098, Note_on_c, 0, 60, 0
2, 172143, Note_on_c, 0, 62, 0
2, 172225, Note_on_c, 0, 65, 76
2, 172358, Note_on_c, 0, 65, 0
2, 172431, Note_on_c, 0, 65, 66
2, 172584, Note_on_c, 0, 65, 0
2, 172663, Note_on_c, 0, 65, 75
2, 172732, Note_on_c, 0, 48, 40
2, 172877, Note_on_c, 0, 48, 0
2, 172886, Note_on_c, 0, 65, 0
2, 172893, Note_on_c, 0, 60, 40
2, 172931, Note_on_c, 0, 61, 58
2, 172984, Note_on_c, 0, 61, 0
2, 173012, Note_on_c, 0, 60, 0
2, 173211, Note_on_c, 0, 62, 75
2, 173310, Note_on_c, 0, 62, 0
2, 173406, Note_on_c, 0, 62, 75
2, 173499, Note_on_c, 0, 62, 0
2, 173610, Note_on_c, 0, 62, 68
2, 173645, Note_on_c, 0, 48, 37
2, 173708, Note_on_c, 0, 62, 0
2, 173766, Note_on_c, 0, 48, 0
2, 173807, Note_on_c, 0, 62, 73
2, 174082, Note_on_c, 0, 48, 35
2, 174137, Note_on_c, 0, 62, 0
2, 174232, Note_on_c, 0, 60, 57
2, 174255, Note_on_c, 0, 48, 0
2, 174378, Note_on_c, 0, 60, 0
2, 174484, Note_on_c, 0, 60, 59
2, 174605, Note_on_c, 0, 60, 0
2, 174709, Note_on_c, 0, 60, 65
2, 174943, Note_on_c, 0, 48, 35
2, 174962, Note_on_c, 0, 60, 0
2, 175171, Note_on_c, 0, 57, 60
2, 175177, Note_on_c, 0, 48, 0
2, 175396, Note_on_c, 0, 57, 0
2, 175476, Note_on_c, 0, 48, 33
2, 175490, Note_on_c, 0, 57, 74
2, 175568, Note_on_c, 0, 48, 0
2, 175606, Note_on_c, 0, 57, 0
2, 175682, Note_on_c, 0, 57, 69
2, 175937, Note_on_c, 0, 51, 38
2, 175972, Note_on_c, 0, 57, 0
2, 176058, Note_on_c, 0, 51, 0
2, 176127, Note_on_c, 0, 61, 57
2, 176150, Note_on_c, 0, 58, 59
2, 176502, Note_on_c, 0, 49, 32
2, 176521, Note_on_c, 0, 58, 0
2, 176552, Note_on_c, 0, 49, 0
2, 176554, Note_on_c, 0, 61, 0
2, 176644, Note_on_c, 0, 64, 67
2, 176657, Note_on_c, 0, 52, 59
2, 176670, Note_on_c, 0, 60, 49
2, 176673, Note_on_c, 0, 57, 59
2, 176681, Note_on_c, 0, 53, 50
2, 177032, Note_on_c, 0, 53, 0
2, 177040, Note_on_c, 0, 52, 0
2, 177052, Note_on_c, 0, 57, 0
2, 177085, Note_on_c, 0, 64, 0
2, 177105, Note_on_c, 0, 60, 0
2, 177138, Note_on_c, 0, 62, 56
2, 177155, Note_on_c, 0, 57, 53
2, 177159, Note_on_c, 0, 53, 39
2, 177171, Note_on_c, 0, 50, 54
2, 177369, Note_on_c, 0, 53, 0
2, 177411, Note_on_c, 0, 57, 0
2, 177466, Note_on_c, 0, 62, 0
2, 177468, Note_on_c, 0, 50, 0
2, 177922, Note_on_c, 0, 65, 57
2, 177929, Note_on_c, 0, 60, 52
2, 177943, Note_on_c, 0, 53, 54
2, 177944, Note_on_c, 0, 62, 46
2, 177947, Note_on_c, 0, 57, 47
2, 178110, Control_c, 0, 64, 127
2, 178334, Note_on_c, 0, 57, 0
2, 178357, Note_on_c, 0, 62, 0
2, 178377, Note_on_c, 0, 60, 0
2, 178419, Note_on_c, 0, 65, 0
2, 178430, Note_on_c, 0, 51, 36
2, 178456, Note_on_c, 0, 53, 0
2, 178574, Note_on_c, 0, 59, 49
2, 178577, Note_on_c, 0, 62, 50
2, 178578, Note_on_c, 0, 67, 49
2, 178593, Note_on_c, 0, 55, 47
2, 178611, Control_c, 0, 64, 0
2, 178615, Note_on_c, 0, 64, 45
2, 178650, Note_on_c, 0, 51, 0
2, 178908, Control_c, 0, 64, 127
2, 179267, Control_c, 0, 64, 0
2, 179335, Note_on_c, 0, 43, 47
2, 179480, Control_c, 0, 64, 127
2, 179504, Note_on_c, 0, 59, 0
2, 179565, Note_on_c, 0, 43, 0
2, 179641, Note_on_c, 0, 62, 0
2, 179698, Note_on_c, 0, 55, 0
2, 179705, Note_on_c, 0, 64, 0
2, 179705, Note_on_c, 0, 67, 0
2, 180429, Note_on_c, 0, 80, 48
2, 180436, Note_on_c, 0, 68, 57
2, 180442, Note_on_c, 0, 58, 56
2, 180449, Note_on_c, 0, 62, 52
2, 180452, Control_c, 0, 64, 0
2, 180459, Note_on_c, 0, 57, 45
2, 180471, Note_on_c, 0, 74, 53
2, 180481, Note_on_c, 0, 53, 36
2, 180484, Note_on_c, 0, 77, 39
2, 180572, Note_on_c, 0, 80, 0
2, 180576, Note_on_c, 0, 68, 0
2, 180609, Note_on_c, 0, 69, 34
2, 180677, Note_on_c, 0, 77, 0
2, 180716, Note_on_c, 0, 74, 0
2, 180771, Note_on_c, 0, 53, 0
2, 180789, Note_on_c, 0, 62, 0
2, 180793, Note_on_c, 0, 69, 0
2, 180834, Note_on_c, 0, 57, 0
2, 180840, Note_on_c, 0, 58, 0
2, 180853, Note_on_c, 0, 81, 30
2, 180864, Note_on_c, 0, 77, 39
2, 180878, Note_on_c, 0, 74, 33
2, 180962, Note_on_c, 0, 69, 33
2, 180965, Note_on_c, 0, 81, 0
2, 180966, Note_on_c, 0, 74, 0
2, 180967, Note_on_c, 0, 77, 0
2, 181041, Note_on_c, 0, 69, 0
2, 181218, Note_on_c, 0, 84, 75
2, 181222, Note_on_c, 0, 72, 66
2, 181231, Note_on_c, 0, 77, 59
2, 181234, Note_on_c, 0, 80, 35
2, 181269, Note_on_c, 0, 72, 0
2, 181280, Note_on_c, 0, 81, 30
2, 181282, Note_on_c, 0, 77, 0
2, 181287, Note_on_c, 0, 80, 0
2, 181331, Note_on_c, 0, 81, 0
2, 181333, Note_on_c, 0, 84, 0
2, 181926, Note_on_c, 0, 62, 61
2, 181932, Note_on_c, 0, 58, 46
2, 182025, Note_on_c, 0, 62, 0
2, 182107, Note_on_c, 0, 58, 0
2, 182736, Note_on_c, 0, 62, 61
2, 182738, Note_on_c, 0, 58, 54
2, 182745, Note_on_c, 0, 57, 49
2, 182752, Note_on_c, 0, 53, 46
2, 182805, Note_on_c, 0, 57, 0
2, 182828, Note_on_c, 0, 62, 0
2, 182838, Note_on_c, 0, 53, 0
2, 182857, Note_on_c, 0, 58, 0
2, 183401, Note_on_c, 0, 62, 62
2, 183404, Note_on_c, 0, 58, 53
2, 183409, Note_on_c, 0, 57, 50
2, 183463, Note_on_c, 0, 62, 0
2, 183479, Note_on_c, 0, 57, 0
2, 183513, Note_on_c, 0, 58, 0
2, 184130, Note_on_c, 0, 62, 56
2, 184132, Note_on_c, 0, 57, 58
2, 184166, Note_on_c, 0, 58, 41
2, 184178, Note_on_c, 0, 62, 0
2, 184213, Note_on_c, 0, 58, 0
2, 184243, Note_on_c, 0, 57, 0
2, 184299, Note_on_c, 0, 80, 54
2, 184308, Note_on_c, 0, 68, 64
2, 184335, Note_on_c, 0, 74, 60
2, 184374, Note_on_c, 0, 77, 46
2, 184391, Note_on_c, 0, 68, 0
2, 184392, Note_on_c, 0, 81, 59
2, 184402, Note_on_c, 0, 69, 58
2, 184411, Note_on_c, 0, 80, 0
2, 184577, Note_on_c, 0, 69, 0
2, 184609, Note_on_c, 0, 74, 0
2, 184635, Note_on_c, 0, 81, 0
2, 184654, Note_on_c, 0, 77, 0
2, 184692, Note_on_c, 0, 62, 63
2, 184718, Note_on_c, 0, 57, 32
2, 184742, Note_on_c, 0, 62, 0
2, 184776, Note_on_c, 0, 57, 0
2, 184816, Note_on_c, 0, 84, 82
2, 184819, Note_on_c, 0, 72, 82
2, 184822, Note_on_c, 0, 77, 81
2, 184834, Note_on_c, 0, 81, 69
2, 184867, Note_on_c, 0, 83, 48
2, 184945, Note_on_c, 0, 83, 0
2, 185065, Note_on_c, 0, 72, 0
2, 185083, Note_on_c, 0, 77, 0
2, 185100, Note_on_c, 0, 84, 0
2, 185102, Note_on_c, 0, 81, 0
2, 185581, Note_on_c, 0, 58, 61
2, 185584, Note_on_c, 0, 57, 66
2, 185588, Note_on_c, 0, 62, 69
2, 185638, Note_on_c, 0, 62, 0
2, 185695, Note_on_c, 0, 57, 0
2, 185696, Note_on_c, 0, 58, 0
2, 186245, Note_on_c, 0, 58, 68
2, 186248, Note_on_c, 0, 62, 69
2, 186249, Note_on_c, 0, 57, 69
2, 186299, Note_on_c, 0, 57, 0
2, 186302, Note_on_c, 0, 62, 0
2, 186356, Note_on_c, 0, 58, 0
2, 186989, Note_on_c, 0, 58, 70
2, 186993, Note_on_c, 0, 62, 69
2, 186999, Note_on_c, 0, 57, 63
2, 187050, Note_on_c, 0, 57, 0
2, 187064, Note_on_c, 0, 62, 0
2, 187084, Note_on_c, 0, 58, 0
2, 187491, Note_on_c, 0, 62, 37
2, 187491, Note_on_c, 0, 58, 28
2, 187491, Note_on_c, 0, 57, 72
2, 187539, Note_on_c, 0, 62, 0
2, 187636, Note_on_c, 0, 58, 0
2, 187641, Note_on_c, 0, 57, 0
2, 187644, Note_on_c, 0, 53, 7
2, 187657, Note_on_c, 0, 70, 74
2, 187660, Note_on_c, 0, 62, 70
2, 187701, Note_on_c, 0, 82, 47
2, 187727, Note_on_c, 0, 74, 41
2, 187878, Note_on_c, 0, 53, 0
2, 187883, Note_on_c, 0, 62, 0
2, 187892, Note_on_c, 0, 82, 0
2, 187937, Note_on_c, 0, 74, 0
2, 187939, Note_on_c, 0, 70, 0
2, 188114, Note_on_c, 0, 52, 57
2, 188118, Note_on_c, 0, 81, 72
2, 188121, Note_on_c, 0, 62, 67
2, 188126, Note_on_c, 0, 69, 73
2, 188133, Note_on_c, 0, 55, 45
2, 188135, Note_on_c, 0, 59, 63
2, 188138, Note_on_c, 0, 74, 78
2, 188279, Control_c, 0, 64, 127
2, 188887, Note_on_c, 0, 81, 0
2, 188889, Note_on_c, 0, 52, 0
2, 188934, Note_on_c, 0, 62, 0
2, 188940, Note_on_c, 0, 74, 0
2, 188953, Note_on_c, 0, 69, 0
2, 188974, Note_on_c, 0, 59, 0
2, 188977, Note_on_c, 0, 55, 0
2, 190385, Note_on_c, 0, 69, 69
2, 190388, Control_c, 0, 64, 0
2, 190396, Note_on_c, 0, 66, 64
2, 190402, Note_on_c, 0, 59, 60
2, 190403, Note_on_c, 0, 62, 56
2, 190416, Note_on_c, 0, 55, 41
2, 190422, Note_on_c, 0, 57, 51
2, 190456, Note_on_c, 0, 62, 0
2, 190477, Note_on_c, 0, 57, 0
2, 190496, Note_on_c, 0, 55, 0
2, 190497, Note_on_c, 0, 66, 0
2, 190502, Note_on_c, 0, 59, 0
2, 190513, Note_on_c, 0, 69, 0
2, 190743, Note_on_c, 0, 59, 61
2, 190750, Note_on_c, 0, 55, 50
2, 190756, Note_on_c, 0, 57, 56
2, 190765, Note_on_c, 0, 66, 75
2, 190772, Note_on_c, 0, 69, 65
2, 190776, Note_on_c, 0, 62, 70
2, 190853, Note_on_c, 0, 59, 0
2, 190860, Note_on_c, 0, 62, 0
2, 190890, Note_on_c, 0, 57, 0
2, 190893, Note_on_c, 0, 55, 0
2, 190900, Note_on_c, 0, 69, 0
2, 190968, Note_on_c, 0, 66, 0
2, 191079, Note_on_c, 0, 66, 57
2, 191086, Note_on_c, 0, 61, 64
2, 191090, Note_on_c, 0, 59, 58
2, 191092, Note_on_c, 0, 69, 63
2, 191097, Note_on_c, 0, 57, 63
2, 191107, Note_on_c, 0, 55, 44
2, 191290, Note_on_c, 0, 59, 0
2, 191308, Note_on_c, 0, 61, 0
2, 191322, Note_on_c, 0, 66, 0
2, 191329, Note_on_c, 0, 69, 0
2, 191335, Note_on_c, 0, 55, 0
2, 191342, Note_on_c, 0, 57, 0
2, 191420, Note_on_c, 0, 61, 60
2, 191427, Note_on_c, 0, 66, 53
2, 191444, Note_on_c, 0, 69, 56
2, 191464, Note_on_c, 0, 59, 45
2, 191468, Note_on_c, 0, 57, 49
2, 191478, Note_on_c, 0, 55, 32
2, 191540, Note_on_c, 0, 57, 0
2, 191541, Note_on_c, 0, 59, 0
2, 191545, Note_on_c, 0, 55, 0
2, 191609, Note_on_c, 0, 61, 0
2, 191611, Note_on_c, 0, 69, 0
2, 191652, Note_on_c, 0, 66, 0
2, 191823, Note_on_c, 0, 59, 55
2, 191824, Note_on_c, 0, 66, 61
2, 191831, Note_on_c, 0, 69, 57
2, 191840, Note_on_c, 0, 61, 53
2, 191884, Note_on_c, 0, 59, 0
2, 191951, Note_on_c, 0, 61, 0
2, 192011, Note_on_c, 0, 66, 0
2, 192086, Note_on_c, 0, 60, 59
2, 192087, Note_on_c, 0, 67, 61
2, 192097, Note_on_c, 0, 64, 63
2, 192100, Note_on_c, 0, 57, 49
2, 192134, Note_on_c, 0, 55, 23
2, 192228, Note_on_c, 0, 53, 13
2, 192474, Control_c, 0, 64, 127
2, 192662, Note_on_c, 0, 64, 0
2, 192779, Note_on_c, 0, 57, 0
2, 192862, Note_on_c, 0, 60, 0
2, 192871, Note_on_c, 0, 55, 0
2, 192928, Note_on_c, 0, 69, 0
2, 192959, Note_on_c, 0, 67, 0
2, 192993, Note_on_c, 0, 65, 61
2, 193014, Note_on_c, 0, 57, 46
2, 193026, Note_on_c, 0, 60, 47
2, 193057, Control_c, 0, 64, 0
2, 193401, Control_c, 0, 64, 127
2, 193492, Note_on_c, 0, 53, 0
2, 194120, Note_on_c, 0, 57, 0
2, 194327, Note_on_c, 0, 65, 0
2, 194576, Note_on_c, 0, 60, 0
2, 194728, Note_on_c, 0, 57, 49
2, 194771, Note_on_c, 0, 53, 31
2, 194796, Note_on_c, 0, 57, 0
2, 194837, Note_on_c, 0, 53, 0
2, 194941, Note_on_c, 0, 62, 51
2, 195101, Control_c, 0, 64, 0
2, 195108, Note_on_c, 0, 62, 0
2, 195190, Note_on_c, 0, 67, 77
2, 195267, Note_on_c, 0, 57, 31
2, 195352, Note_on_c, 0, 57, 0
2, 195371, Note_on_c, 0, 62, 45
2, 195416, Note_on_c, 0, 67, 0
2, 195676, Note_on_c, 0, 57, 49
2, 195739, Note_on_c, 0, 62, 0
2, 195750, Note_on_c, 0, 57, 0
2, 195756, Note_on_c, 0, 50, 27
2, 195881, Note_on_c, 0, 50, 0
2, 195891, Note_on_c, 0, 65, 83
2, 196246, Note_on_c, 0, 65, 0
2, 196372, Note_on_c, 0, 62, 55
2, 196703, Note_on_c, 0, 50, 27
2, 196716, Note_on_c, 0, 62, 0
2, 196767, Note_on_c, 0, 50, 0
2, 196827, Note_on_c, 0, 55, 51
2, 197205, Note_on_c, 0, 55, 0
2, 197314, Note_on_c, 0, 55, 58
2, 198523, Note_on_c, 0, 38, 50
2, 198543, Note_on_c, 0, 50, 40
2, 198596, Note_on_c, 0, 38, 0
2, 198602, Note_on_c, 0, 50, 0
2, 198625, Note_on_c, 0, 55, 0
2, 198709, Note_on_c, 0, 57, 58
2, 198899, Note_on_c, 0, 57, 0
2, 198982, Note_on_c, 0, 58, 51
2, 199104, Note_on_c, 0, 58, 0
2, 199237, Note_on_c, 0, 59, 26
2, 199358, Note_on_c, 0, 59, 0
2, 199438, Note_on_c, 0, 62, 67
2, 199636, Note_on_c, 0, 62, 0
2, 199694, Note_on_c, 0, 59, 44
2, 200079, Note_on_c, 0, 59, 0
2, 200146, Note_on_c, 0, 60, 68
2, 200543, Note_on_c, 0, 55, 23
2, 200607, Note_on_c, 0, 55, 0
2, 200908, Note_on_c, 0, 57, 54
2, 200968, Note_on_c, 0, 57, 0
2, 200972, Note_on_c, 0, 48, 19
2, 201029, Note_on_c, 0, 48, 0
2, 201383, Note_on_c, 0, 60, 0
2, 201393, Note_on_c, 0, 59, 51
2, 201483, Note_on_c, 0, 59, 0
2, 201594, Note_on_c, 0, 60, 61
2, 202349, Note_on_c, 0, 62, 65
2, 202416, Note_on_c, 0, 60, 0
2, 202450, Note_on_c, 0, 48, 34
2, 202510, Note_on_c, 0, 62, 0
2, 202530, Note_on_c, 0, 48, 0
2, 202626, Note_on_c, 0, 63, 46
2, 202781, Note_on_c, 0, 63, 0
2, 202850, Note_on_c, 0, 64, 46
2, 202859, Note_on_c, 0, 62, 34
2, 202906, Note_on_c, 0, 62, 0
2, 202945, Note_on_c, 0, 64, 0
2, 203037, Note_on_c, 0, 65, 39
2, 203172, Note_on_c, 0, 65, 0
2, 203293, Note_on_c, 0, 66, 71
2, 203438, Note_on_c, 0, 66, 0
2, 203475, Note_on_c, 0, 58, 32
2, 203528, Note_on_c, 0, 57, 17
2, 203551, Note_on_c, 0, 67, 51
2, 203639, Note_on_c, 0, 57, 0
2, 203649, Note_on_c, 0, 58, 0
2, 203721, Note_on_c, 0, 67, 0
2, 203809, Note_on_c, 0, 68, 53
2, 203855, Note_on_c, 0, 57, 25
2, 203913, Note_on_c, 0, 68, 0
2, 203952, Note_on_c, 0, 57, 0
2, 204046, Note_on_c, 0, 69, 44
2, 204172, Note_on_c, 0, 69, 0
2, 204299, Note_on_c, 0, 69, 65
2, 204413, Note_on_c, 0, 58, 38
2, 204448, Note_on_c, 0, 69, 0
2, 204537, Note_on_c, 0, 58, 0
2, 204553, Note_on_c, 0, 68, 31
2, 204740, Note_on_c, 0, 68, 0
2, 204775, Note_on_c, 0, 69, 56
2, 204894, Note_on_c, 0, 69, 0
2, 204968, Note_on_c, 0, 69, 55
2, 205091, Note_on_c, 0, 69, 0
2, 205190, Note_on_c, 0, 69, 68
2, 205331, Note_on_c, 0, 58, 36
2, 205338, Note_on_c, 0, 64, 38
2, 205354, Note_on_c, 0, 61, 26
2, 205391, Note_on_c, 0, 69, 0
2, 205401, Note_on_c, 0, 64, 0
2, 205438, Note_on_c, 0, 61, 0
2, 205445, Note_on_c, 0, 68, 34
2, 205476, Note_on_c, 0, 58, 0
2, 205595, Note_on_c, 0, 68, 0
2, 205658, Note_on_c, 0, 69, 48
2, 205776, Note_on_c, 0, 69, 0
2, 205879, Note_on_c, 0, 69, 57
2, 206011, Note_on_c, 0, 69, 0
2, 206136, Note_on_c, 0, 69, 69
2, 206210, Note_on_c, 0, 61, 40
2, 206244, Note_on_c, 0, 64, 25
2, 206246, Note_on_c, 0, 58, 28
2, 206292, Note_on_c, 0, 64, 0
2, 206308, Note_on_c, 0, 61, 0
2, 206309, Note_on_c, 0, 69, 0
2, 206358, Note_on_c, 0, 68, 52
2, 206359, Note_on_c, 0, 58, 0
2, 206577, Note_on_c, 0, 68, 0
2, 206606, Note_on_c, 0, 69, 61
2, 206663, Note_on_c, 0, 61, 47
2, 206676, Note_on_c, 0, 58, 40
2, 206686, Note_on_c, 0, 64, 34
2, 206748, Note_on_c, 0, 64, 0
2, 206755, Note_on_c, 0, 69, 0
2, 206779, Note_on_c, 0, 61, 0
2, 206813, Note_on_c, 0, 58, 0
2, 206863, Note_on_c, 0, 74, 67
2, 207010, Note_on_c, 0, 74, 0
2, 207754, Note_on_c, 0, 57, 20
2, 207840, Note_on_c, 0, 57, 0
2, 208153, Note_on_c, 0, 53, 34
2, 208167, Note_on_c, 0, 57, 40
2, 208241, Note_on_c, 0, 57, 0
2, 208313, Note_on_c, 0, 53, 0
2, 208366, Note_on_c, 0, 69, 37
2, 208594, Note_on_c, 0, 69, 0
2, 208864, Note_on_c, 0, 74, 100
2, 208916, Note_on_c, 0, 57, 45
2, 208985, Note_on_c, 0, 57, 0
2, 209240, Note_on_c, 0, 74, 0
2, 209347, Note_on_c, 0, 69, 81
2, 209585, Note_on_c, 0, 69, 0
2, 209643, Note_on_c, 0, 65, 61
2, 209775, Note_on_c, 0, 65, 0
2, 209839, Note_on_c, 0, 62, 36
2, 210081, Note_on_c, 0, 62, 0
2, 210298, Note_on_c, 0, 62, 61
2, 211047, Note_on_c, 0, 62, 0
2, 211099, Note_on_c, 0, 52, 21
2, 211198, Note_on_c, 0, 52, 0
2, 211203, Note_on_c, 0, 55, 27
2, 211225, Note_on_c, 0, 65, 58
2, 211245, Note_on_c, 0, 60, 39
2, 211274, Note_on_c, 0, 55, 0
2, 211369, Note_on_c, 0, 65, 0
2, 211379, Note_on_c, 0, 60, 0
2, 211981, Note_on_c, 0, 65, 72
2, 211986, Note_on_c, 0, 58, 72
2, 211988, Note_on_c, 0, 55, 67
2, 211989, Note_on_c, 0, 62, 63
2, 212019, Note_on_c, 0, 53, 64
2, 212042, Note_on_c, 0, 64, 41
2, 212113, Control_c, 0, 64, 127
2, 212457, Note_on_c, 0, 62, 0
2, 212499, Note_on_c, 0, 55, 0
2, 212558, Control_c, 0, 64, 0
2, 212564, Note_on_c, 0, 58, 0
2, 212594, Note_on_c, 0, 64, 0
2, 212607, Note_on_c, 0, 65, 0
2, 212641, Note_on_c, 0, 58, 35
2, 212642, Note_on_c, 0, 62, 49
2, 212644, Note_on_c, 0, 55, 45
2, 212665, Note_on_c, 0, 50, 46
2, 212675, Note_on_c, 0, 53, 0
2, 212831, Note_on_c, 0, 55, 0
2, 212863, Note_on_c, 0, 62, 0
2, 212903, Note_on_c, 0, 58, 0
2, 213131, Note_on_c, 0, 64, 72
2, 213154, Note_on_c, 0, 58, 60
2, 213156, Note_on_c, 0, 52, 55
2, 213158, Note_on_c, 0, 55, 47
2, 213168, Note_on_c, 0, 50, 0
2, 213559, Control_c, 0, 64, 127
2, 213686, Note_on_c, 0, 55, 0
2, 213718, Note_on_c, 0, 58, 0
2, 213750, Note_on_c, 0, 64, 0
2, 213797, Note_on_c, 0, 52, 0
2, 213865, Note_on_c, 0, 65, 64
2, 213878, Note_on_c, 0, 58, 38
2, 213896, Note_on_c, 0, 53, 47
2, 213918, Control_c, 0, 64, 0
2, 213938, Note_on_c, 0, 58, 0
2, 213988, Note_on_c, 0, 65, 0
2, 214089, Note_on_c, 0, 53, 0
2, 214097, Note_on_c, 0, 67, 65
2, 214102, Note_on_c, 0, 55, 54
2, 214148, Note_on_c, 0, 59, 33
2, 214502, Control_c, 0, 64, 127
2, 214583, Note_on_c, 0, 59, 0
2, 214609, Note_on_c, 0, 67, 0
2, 214868, Note_on_c, 0, 55, 0
2, 215100, Control_c, 0, 64, 0
2, 215301, Control_c, 0, 64, 127
2, 215515, Control_c, 0, 64, 0
2, 215554, Note_on_c, 0, 65, 81
2, 215562, Note_on_c, 0, 62, 80
2, 215563, Note_on_c, 0, 72, 74
2, 215583, Note_on_c, 0, 58, 71
2, 215844, Control_c, 0, 64, 127
2, 215852, Note_on_c, 0, 62, 0
2, 215917, Note_on_c, 0, 65, 0
2, 215967, Note_on_c, 0, 72, 0
2, 216008, Note_on_c, 0, 58, 0
2, 216321, Note_on_c, 0, 69, 81
2, 216324, Note_on_c, 0, 81, 81
2, 216337, Note_on_c, 0, 58, 65
2, 216352, Note_on_c, 0, 62, 62
2, 216357, Note_on_c, 0, 57, 56
2, 216371, Control_c, 0, 64, 0
2, 216485, Control_c, 0, 64, 127
2, 216642, Note_on_c, 0, 69, 0
2, 216696, Note_on_c, 0, 62, 0
2, 216715, Note_on_c, 0, 57, 0
2, 216731, Note_on_c, 0, 81, 0
2, 216746, Note_on_c, 0, 58, 0
2, 216994, Note_on_c, 0, 84, 77
2, 216999, Control_c, 0, 64, 0
2, 217002, Note_on_c, 0, 72, 64
2, 217004, Note_on_c, 0, 58, 73
2, 217012, Note_on_c, 0, 62, 70
2, 217014, Note_on_c, 0, 57, 68
2, 217018, Note_on_c, 0, 79, 58
2, 217241, Control_c, 0, 64, 127
2, 217429, Note_on_c, 0, 72, 0
2, 217432, Note_on_c, 0, 62, 0
2, 217437, Note_on_c, 0, 79, 0
2, 217442, Note_on_c, 0, 84, 0
2, 217455, Note_on_c, 0, 57, 0
2, 217469, Note_on_c, 0, 58, 0
2, 217703, Note_on_c, 0, 86, 72
2, 217710, Note_on_c, 0, 79, 66
2, 217715, Control_c, 0, 64, 0
2, 217719, Note_on_c, 0, 74, 64
2, 217736, Note_on_c, 0, 57, 69
2, 217739, Note_on_c, 0, 58, 68
2, 217739, Note_on_c, 0, 62, 70
2, 217749, Note_on_c, 0, 82, 35
2, 217803, Note_on_c, 0, 82, 0
2, 217944, Control_c, 0, 64, 127
2, 217982, Note_on_c, 0, 74, 0
2, 217992, Note_on_c, 0, 79, 0
2, 218060, Note_on_c, 0, 86, 0
2, 218063, Note_on_c, 0, 62, 0
2, 218073, Note_on_c, 0, 57, 0
2, 218100, Note_on_c, 0, 58, 0
2, 218355, Control_c, 0, 64, 0
2, 218407, Note_on_c, 0, 89, 59
2, 218409, Note_on_c, 0, 58, 71
2, 218410, Note_on_c, 0, 62, 72
2, 218411, Note_on_c, 0, 77, 67
2, 218413, Note_on_c, 0, 57, 69
2, 218429, Note_on_c, 0, 53, 59
2, 218431, Note_on_c, 0, 88, 51
2, 218437, Note_on_c, 0, 84, 38
2, 218461, Note_on_c, 0, 83, 32
2, 218491, Note_on_c, 0, 88, 0
2, 218511, Note_on_c, 0, 83, 0
2, 218874, Control_c, 0, 64, 127
2, 218902, Note_on_c, 0, 77, 0
2, 218931, Control_c, 0, 64, 0
2, 218978, Note_on_c, 0, 84, 0
2, 218981, Note_on_c, 0, 53, 0
2, 219006, Note_on_c, 0, 62, 0
2, 219018, Control_c, 0, 64, 127
2, 219036, Note_on_c, 0, 57, 0
2, 219046, Note_on_c, 0, 89, 0
2, 219059, Note_on_c, 0, 58, 0
2, 219114, Control_c, 0, 64, 0
2, 219199, Note_on_c, 0, 58, 59
2, 219207, Note_on_c, 0, 62, 63
2, 219212, Note_on_c, 0, 57, 55
2, 219214, Note_on_c, 0, 88, 67
2, 219224, Note_on_c, 0, 53, 45
2, 219225, Note_on_c, 0, 81, 53
2, 219228, Note_on_c, 0, 93, 67
2, 219332, Note_on_c, 0, 62, 0
2, 219333, Note_on_c, 0, 81, 0
2, 219359, Note_on_c, 0, 57, 0
2, 219360, Note_on_c, 0, 88, 0
2, 219386, Note_on_c, 0, 58, 0
2, 219386, Note_on_c, 0, 53, 0
2, 219396, Note_on_c, 0, 93, 0
2, 219861, Note_on_c, 0, 92, 46
2, 219863, Note_on_c, 0, 96, 51
2, 219863, Note_on_c, 0, 62, 60
2, 219866, Note_on_c, 0, 58, 53
2, 219871, Note_on_c, 0, 57, 49
2, 219876, Note_on_c, 0, 84, 44
2, 219896, Note_on_c, 0, 53, 44
2, 219982, Note_on_c, 0, 92, 0
2, 220076, Note_on_c, 0, 93, 25
2, 220199, Control_c, 0, 64, 127
2, 220481, Note_on_c, 0, 53, 0
2, 220491, Note_on_c, 0, 93, 0
2, 220501, Note_on_c, 0, 84, 0
2, 220519, Note_on_c, 0, 62, 0
2, 220532, Note_on_c, 0, 58, 0
2, 220569, Note_on_c, 0, 57, 0
2, 220589, Note_on_c, 0, 96, 0
2, 220795, Note_on_c, 0, 96, 55
2, 220805, Note_on_c, 0, 62, 47
2, 220815, Note_on_c, 0, 57, 42
2, 220824, Note_on_c, 0, 84, 39
2, 220824, Note_on_c, 0, 58, 52
2, 220835, Note_on_c, 0, 93, 49
2, 220849, Note_on_c, 0, 53, 34
2, 220871, Control_c, 0, 64, 0
2, 221144, Control_c, 0, 64, 127
2, 221270, Control_c, 0, 64, 0
2, 221284, Control_c, 0, 64, 127
2, 221357, Note_on_c, 0, 53, 0
2, 221368, Note_on_c, 0, 62, 0
2, 221374, Note_on_c, 0, 58, 0
2, 221408, Note_on_c, 0, 57, 0
2, 221501, Note_on_c, 0, 84, 0
2, 221570, Control_c, 0, 64, 0
2, 221580, Note_on_c, 0, 62, 56
2, 221585, Note_on_c, 0, 58, 58
2, 221586, Note_on_c, 0, 93, 0
2, 221589, Note_on_c, 0, 57, 44
2, 221620, Note_on_c, 0, 53, 31
2, 221621, Note_on_c, 0, 96, 0
2, 221894, Note_on_c, 0, 58, 0
2, 221947, Note_on_c, 0, 62, 0
2, 222076, Note_on_c, 0, 58, 52
2, 222122, Note_on_c, 0, 62, 28
2, 222274, Note_on_c, 0, 98, 79
2, 222345, Note_on_c, 0, 58, 0
2, 222384, Note_on_c, 0, 53, 0
2, 222436, Note_on_c, 0, 62, 0
2, 222522, Note_on_c, 0, 57, 0
2, 222702, Note_on_c, 0, 57, 44
2, 222709, Note_on_c, 0, 62, 29
2, 222715, Note_on_c, 0, 60, 41
2, 222729, Note_on_c, 0, 53, 33
2, 223223, Note_on_c, 0, 98, 0
2, 223244, Note_on_c, 0, 62, 0
2, 223257, Note_on_c, 0, 96, 65
2, 223331, Note_on_c, 0, 60, 0
2, 223530, Note_on_c, 0, 93, 61
2, 223540, Note_on_c, 0, 60, 25
2, 223563, Note_on_c, 0, 96, 0
2, 223726, Note_on_c, 0, 93, 0
2, 223728, Note_on_c, 0, 60, 0
2, 223744, Note_on_c, 0, 89, 45
2, 223766, Note_on_c, 0, 53, 0
2, 223790, Note_on_c, 0, 57, 0
2, 224018, Note_on_c, 0, 89, 0
2, 224167, Note_on_c, 0, 94, 71
2, 224426, Note_on_c, 0, 94, 0
2, 224649, Note_on_c, 0, 93, 66
2, 224847, Note_on_c, 0, 93, 0
2, 224896, Note_on_c, 0, 89, 49
2, 225072, Note_on_c, 0, 89, 0
2, 225116, Note_on_c, 0, 84, 44
2, 225350, Note_on_c, 0, 84, 0
2, 225885, Note_on_c, 0, 57, 50
2, 225890, Note_on_c, 0, 62, 36
2, 225910, Note_on_c, 0, 60, 27
2, 225966, Note_on_c, 0, 62, 0
2, 225977, Note_on_c, 0, 60, 0
2, 226078, Note_on_c, 0, 57, 0
2, 226566, Note_on_c, 0, 62, 44
2, 226581, Note_on_c, 0, 58, 38
2, 226589, Note_on_c, 0, 57, 34
2, 226611, Note_on_c, 0, 52, 33
2, 226754, Note_on_c, 0, 62, 0
2, 226767, Note_on_c, 0, 57, 0
2, 226772, Note_on_c, 0, 58, 0
2, 226812, Note_on_c, 0, 52, 0
2, 227338, Note_on_c, 0, 62, 51
2, 227345, Note_on_c, 0, 58, 47
2, 227364, Note_on_c, 0, 57, 37
2, 227435, Note_on_c, 0, 57, 0
2, 227439, Note_on_c, 0, 62, 0
2, 227476, Note_on_c, 0, 58, 0
2, 227825, Note_on_c, 0, 57, 66
2, 227963, Note_on_c, 0, 57, 0
2, 228022, Note_on_c, 0, 69, 52
2, 228162, Note_on_c, 0, 69, 0
2, 228295, Note_on_c, 0, 70, 72
2, 228420, Note_on_c, 0, 70, 0
2, 228520, Note_on_c, 0, 72, 74
2, 228756, Note_on_c, 0, 72, 0
2, 228769, Note_on_c, 0, 61, 53
2, 228776, Note_on_c, 0, 64, 54
2, 228784, Note_on_c, 0, 73, 72
2, 228786, Note_on_c, 0, 58, 38
2, 228831, Note_on_c, 0, 64, 0
2, 228880, Note_on_c, 0, 61, 0
2, 228920, Note_on_c, 0, 58, 0
2, 229005, Note_on_c, 0, 73, 0
2, 229016, Note_on_c, 0, 74, 72
2, 229250, Note_on_c, 0, 74, 0
2, 229261, Note_on_c, 0, 61, 26
2, 229325, Note_on_c, 0, 61, 0
2, 229739, Note_on_c, 0, 61, 54
2, 229752, Note_on_c, 0, 58, 47
2, 229762, Note_on_c, 0, 64, 46
2, 229818, Note_on_c, 0, 64, 0
2, 229859, Note_on_c, 0, 61, 0
2, 229894, Note_on_c, 0, 58, 0
2, 230187, Note_on_c, 0, 60, 57
2, 230191, Note_on_c, 0, 57, 58
2, 230198, Note_on_c, 0, 53, 42
2, 230236, Note_on_c, 0, 60, 0
2, 230263, Note_on_c, 0, 57, 0
2, 230335, Note_on_c, 0, 53, 0
2, 230649, Note_on_c, 0, 75, 32
2, 230687, Note_on_c, 0, 76, 35
2, 230740, Note_on_c, 0, 75, 0
2, 230757, Note_on_c, 0, 76, 0
2, 230912, Note_on_c, 0, 76, 41
2, 231031, Note_on_c, 0, 76, 0
2, 231154, Note_on_c, 0, 79, 90
2, 231214, Note_on_c, 0, 53, 32
2, 231219, Note_on_c, 0, 57, 41
2, 231282, Note_on_c, 0, 79, 0
2, 231302, Note_on_c, 0, 57, 0
2, 231388, Note_on_c, 0, 53, 0
2, 231397, Note_on_c, 0, 77, 73
2, 231563, Note_on_c, 0, 77, 0
2, 231734, Note_on_c, 0, 57, 23
2, 231797, Note_on_c, 0, 57, 0
2, 232108, Note_on_c, 0, 74, 75
2, 232139, Note_on_c, 0, 57, 40
2, 232161, Note_on_c, 0, 53, 25
2, 232210, Note_on_c, 0, 57, 0
2, 232256, Note_on_c, 0, 74, 0
2, 232259, Note_on_c, 0, 53, 0
2, 232350, Note_on_c, 0, 69, 52
2, 232565, Note_on_c, 0, 69, 0
2, 232813, Note_on_c, 0, 69, 72
2, 233045, Note_on_c, 0, 69, 0
2, 233078, Note_on_c, 0, 57, 34
2, 233145, Note_on_c, 0, 57, 0
2, 233317, Note_on_c, 0, 67, 62
2, 233503, Note_on_c, 0, 67, 0
2, 233576, Note_on_c, 0, 65, 47
2, 233616, Note_on_c, 0, 57, 41
2, 233640, Note_on_c, 0, 48, 28
2, 233718, Note_on_c, 0, 65, 0
2, 233787, Note_on_c, 0, 57, 0
2, 233803, Note_on_c, 0, 62, 36
2, 233819, Note_on_c, 0, 48, 0
2, 234055, Note_on_c, 0, 62, 0
2, 234220, Note_on_c, 0, 57, 48
2, 234247, Note_on_c, 0, 46, 36
2, 234280, Note_on_c, 0, 53, 29
2, 234358, Note_on_c, 0, 53, 0
2, 234382, Note_on_c, 0, 57, 0
2, 234411, Note_on_c, 0, 46, 0
2, 235019, Note_on_c, 0, 57, 25
2, 235036, Note_on_c, 0, 53, 29
2, 235117, Note_on_c, 0, 57, 0
2, 235182, Note_on_c, 0, 53, 0
2, 235289, Note_on_c, 0, 61, 35
2, 235338, Note_on_c, 0, 61, 0
2, 235390, Note_on_c, 0, 62, 39
2, 235457, Note_on_c, 0, 62, 0
2, 235520, Note_on_c, 0, 57, 42
2, 235564, Note_on_c, 0, 65, 81
2, 235566, Note_on_c, 0, 53, 25
2, 235591, Note_on_c, 0, 57, 0
2, 235631, Note_on_c, 0, 53, 0
2, 235823, Note_on_c, 0, 65, 0
2, 235952, Note_on_c, 0, 62, 80
2, 236116, Note_on_c, 0, 62, 0
2, 236224, Note_on_c, 0, 64, 85
2, 236547, Note_on_c, 0, 43, 31
2, 236587, Note_on_c, 0, 64, 0
2, 236686, Note_on_c, 0, 43, 0
2, 236869, Note_on_c, 0, 62, 67
2, 237027, Note_on_c, 0, 62, 0
2, 237130, Note_on_c, 0, 60, 47
2, 237275, Note_on_c, 0, 60, 0
2, 237384, Note_on_c, 0, 48, 45
2, 237387, Note_on_c, 0, 58, 63
2, 237545, Note_on_c, 0, 48, 0
2, 237602, Note_on_c, 0, 58, 0
2, 237666, Note_on_c, 0, 57, 25
2, 237831, Note_on_c, 0, 57, 0
2, 237861, Note_on_c, 0, 54, 47
2, 237970, Note_on_c, 0, 54, 0
2, 238101, Note_on_c, 0, 58, 68
2, 238259, Note_on_c, 0, 48, 32
2, 238351, Note_on_c, 0, 58, 0
2, 238396, Note_on_c, 0, 56, 47
2, 238489, Note_on_c, 0, 48, 0
2, 238510, Note_on_c, 0, 56, 0
2, 238587, Note_on_c, 0, 57, 61
2, 238779, Note_on_c, 0, 48, 38
2, 238826, Note_on_c, 0, 57, 0
2, 238876, Note_on_c, 0, 48, 0
2, 239004, Note_on_c, 0, 53, 36
2, 239160, Note_on_c, 0, 53, 0
2, 239291, Note_on_c, 0, 48, 20
2, 239307, Note_on_c, 0, 53, 40
2, 239405, Note_on_c, 0, 48, 0
2, 239452, Note_on_c, 0, 53, 0
2, 239654, Note_on_c, 0, 53, 39
2, 239850, Note_on_c, 0, 53, 0
2, 240004, Note_on_c, 0, 53, 35
2, 240178, Note_on_c, 0, 53, 0
2, 240388, Note_on_c, 0, 53, 40
2, 240584, Note_on_c, 0, 53, 0
2, 240716, Note_on_c, 0, 53, 46
2, 240911, Note_on_c, 0, 53, 0
2, 241016, Note_on_c, 0, 53, 54
2, 241113, Note_on_c, 0, 49, 51
2, 241265, Note_on_c, 0, 49, 0
2, 241273, Note_on_c, 0, 53, 0
2, 241409, Note_on_c, 0, 52, 53
2, 241647, Note_on_c, 0, 52, 0
2, 241951, Note_on_c, 0, 50, 51
2, 242104, Note_on_c, 0, 50, 0
2, 242750, Note_on_c, 0, 57, 35
2, 242771, Note_on_c, 0, 53, 26
2, 242824, Note_on_c, 0, 57, 0
2, 242928, Note_on_c, 0, 65, 59
2, 242939, Note_on_c, 0, 53, 0
2, 243161, Note_on_c, 0, 65, 0
2, 243229, Note_on_c, 0, 69, 76
2, 243434, Note_on_c, 0, 69, 0
2, 243447, Control_c, 0, 64, 127
2, 243603, Note_on_c, 0, 72, 72
2, 243839, Note_on_c, 0, 72, 0
2, 243934, Note_on_c, 0, 66, 20
2, 243947, Note_on_c, 0, 59, 43
2, 243951, Note_on_c, 0, 64, 41
2, 243954, Note_on_c, 0, 53, 30
2, 243964, Note_on_c, 0, 68, 60
2, 243997, Note_on_c, 0, 66, 0
2, 244093, Control_c, 0, 64, 0
2, 244179, Note_on_c, 0, 69, 48
2, 244180, Note_on_c, 0, 68, 0
2, 244247, Note_on_c, 0, 64, 0
2, 244307, Note_on_c, 0, 69, 0
2, 244358, Note_on_c, 0, 59, 0
2, 244401, Note_on_c, 0, 62, 55
2, 244447, Note_on_c, 0, 53, 0
2, 244591, Note_on_c, 0, 62, 0
2, 244725, Note_on_c, 0, 65, 43
2, 244748, Control_c, 0, 64, 127
2, 245088, Note_on_c, 0, 59, 47
2, 245224, Note_on_c, 0, 59, 0
2, 245451, Control_c, 0, 64, 0
2, 245721, Control_c, 0, 64, 127
2, 245766, Note_on_c, 0, 58, 39
2, 245789, Note_on_c, 0, 62, 27
2, 245826, Note_on_c, 0, 57, 30
2, 245843, Note_on_c, 0, 53, 25
2, 246407, Control_c, 0, 64, 127
2, 246496, Note_on_c, 0, 65, 0
2, 246607, Control_c, 0, 64, 0
2, 247038, Note_on_c, 0, 57, 69
2, 247046, Note_on_c, 0, 62, 53
2, 247049, Note_on_c, 0, 58, 61
2, 247092, Note_on_c, 0, 62, 0
2, 247123, Note_on_c, 0, 57, 0
2, 247127, Note_on_c, 0, 58, 0
2, 247182, Note_on_c, 0, 62, 0
2, 247239, Note_on_c, 0, 57, 0
2, 247268, Note_on_c, 0, 58, 0
2, 247275, Note_on_c, 0, 53, 0
2, 247698, Note_on_c, 0, 62, 45
2, 247712, Note_on_c, 0, 58, 52
2, 247715, Note_on_c, 0, 57, 39
2, 248655, Note_on_c, 0, 69, 44
2, 248703, Note_on_c, 0, 62, 0
2, 248739, Note_on_c, 0, 58, 0
2, 248744, Note_on_c, 0, 57, 0
2, 248867, Note_on_c, 0, 69, 0
2, 248928, Note_on_c, 0, 70, 51
2, 249044, Note_on_c, 0, 70, 0
2, 249141, Note_on_c, 0, 74, 57
2, 249308, Note_on_c, 0, 74, 0
2, 249414, Note_on_c, 0, 77, 55
2, 249534, Note_on_c, 0, 77, 0
2, 249643, Note_on_c, 0, 81, 39
2, 249777, Note_on_c, 0, 81, 0
2, 249898, Note_on_c, 0, 84, 73
2, 249933, Note_on_c, 0, 72, 39
2, 249946, Note_on_c, 0, 74, 43
2, 249989, Note_on_c, 0, 72, 0
2, 250007, Note_on_c, 0, 74, 0
2, 250025, Note_on_c, 0, 84, 0
2, 250070, Note_on_c, 0, 84, 28
2, 250100, Note_on_c, 0, 72, 29
2, 250215, Note_on_c, 0, 72, 0
2, 250225, Note_on_c, 0, 84, 0
2, 250352, Note_on_c, 0, 84, 56
2, 250359, Note_on_c, 0, 72, 54
2, 250440, Note_on_c, 0, 58, 28
2, 250465, Note_on_c, 0, 72, 0
2, 250471, Note_on_c, 0, 84, 0
2, 250532, Note_on_c, 0, 84, 35
2, 250554, Note_on_c, 0, 72, 33
2, 250569, Note_on_c, 0, 58, 0
2, 250781, Note_on_c, 0, 72, 0
2, 250811, Note_on_c, 0, 84, 0
2, 250889, Note_on_c, 0, 58, 22
2, 250972, Note_on_c, 0, 58, 0
2, 251008, Note_on_c, 0, 84, 63
2, 251021, Note_on_c, 0, 72, 49
2, 251165, Note_on_c, 0, 72, 0
2, 251195, Note_on_c, 0, 84, 0
2, 251496, Note_on_c, 0, 84, 66
2, 251518, Note_on_c, 0, 72, 51
2, 251542, Note_on_c, 0, 58, 30
2, 251677, Note_on_c, 0, 58, 0
2, 252129, Note_on_c, 0, 72, 0
2, 252149, Note_on_c, 0, 84, 0
2, 252282, Note_on_c, 0, 60, 66
2, 252333, Note_on_c, 0, 84, 66
2, 252747, Note_on_c, 0, 60, 0
2, 252798, Note_on_c, 0, 84, 0
2, 252960, Note_on_c, 0, 60, 62
2, 253011, Note_on_c, 0, 84, 62
2, 253075, Note_on_c, 0, 60, 0
2, 253126, Note_on_c, 0, 84, 0
2, 253440, Note_on_c, 0, 55, 69
2, 253440, Note_on_c, 0, 79, 92
2, 253766, Note_on_c, 0, 79, 0
2, 253776, Note_on_c, 0, 55, 0
2, 253848, Note_on_c, 0, 78, 49
2, 253866, Note_on_c, 0, 54, 36
2, 253959, Note_on_c, 0, 54, 0
2, 253969, Note_on_c, 0, 77, 54
2, 253972, Note_on_c, 0, 78, 0
2, 254062, Note_on_c, 0, 76, 56
2, 254074, Note_on_c, 0, 52, 52
2, 254079, Note_on_c, 0, 77, 0
2, 254349, Note_on_c, 0, 76, 0
2, 254430, Note_on_c, 0, 52, 0
2, 254519, Note_on_c, 0, 55, 43
2, 254533, Note_on_c, 0, 79, 63
2, 254840, Note_on_c, 0, 55, 0
2, 254923, Note_on_c, 0, 79, 0
2, 254943, Note_on_c, 0, 52, 31
2, 254961, Note_on_c, 0, 76, 20
2, 255137, Note_on_c, 0, 76, 0
2, 255178, Note_on_c, 0, 52, 0
2, 255216, Note_on_c, 0, 77, 52
2, 255229, Note_on_c, 0, 53, 33
2, 255425, Note_on_c, 0, 77, 0
2, 255660, Note_on_c, 0, 53, 0
2, 255720, Note_on_c, 0, 48, 30
2, 255755, Note_on_c, 0, 72, 27
2, 255859, Note_on_c, 0, 48, 0
2, 255906, Note_on_c, 0, 72, 0
2, 256365, Note_on_c, 0, 72, 34
2, 256396, Note_on_c, 0, 48, 33
2, 256589, Note_on_c, 0, 48, 0
2, 256629, Note_on_c, 0, 72, 0
2, 257800, Note_on_c, 0, 54, 57
2, 257821, Note_on_c, 0, 78, 78
2, 257982, Note_on_c, 0, 78, 0
2, 258069, Note_on_c, 0, 55, 44
2, 258077, Note_on_c, 0, 79, 47
2, 258153, Note_on_c, 0, 54, 0
2, 258200, Note_on_c, 0, 79, 0
2, 258255, Note_on_c, 0, 55, 0
2, 258285, Note_on_c, 0, 57, 64
2, 258291, Note_on_c, 0, 81, 63
2, 258471, Note_on_c, 0, 57, 0
2, 258484, Note_on_c, 0, 81, 0
2, 258605, Note_on_c, 0, 52, 36
2, 258621, Note_on_c, 0, 76, 52
2, 258756, Note_on_c, 0, 76, 0
2, 258811, Note_on_c, 0, 52, 0
2, 259984, Note_on_c, 0, 49, 5
2, 260111, Note_on_c, 0, 49, 0
2, 260175, Note_on_c, 0, 52, 55
2, 260199, Note_on_c, 0, 76, 77
2, 260464, Note_on_c, 0, 51, 39
2, 260467, Note_on_c, 0, 75, 44
2, 260474, Note_on_c, 0, 52, 0
2, 260525, Note_on_c, 0, 76, 0
2, 260552, Note_on_c, 0, 51, 0
2, 260589, Note_on_c, 0, 50, 38
2, 260604, Note_on_c, 0, 75, 0
2, 260957, Note_on_c, 0, 73, 31
2, 260958, Note_on_c, 0, 50, 0
2, 260977, Note_on_c, 0, 49, 36
2, 261035, Note_on_c, 0, 73, 0
2, 261092, Note_on_c, 0, 49, 0
2, 261134, Note_on_c, 0, 76, 61
2, 261159, Note_on_c, 0, 52, 33
2, 261365, Note_on_c, 0, 52, 0
2, 261411, Note_on_c, 0, 76, 0
2, 261432, Note_on_c, 0, 49, 34
2, 261468, Note_on_c, 0, 73, 19
2, 261594, Note_on_c, 0, 73, 0
2, 261612, Note_on_c, 0, 49, 0
2, 261630, Note_on_c, 0, 74, 37
2, 261638, Note_on_c, 0, 50, 32
2, 261776, Note_on_c, 0, 74, 0
2, 261882, Note_on_c, 0, 75, 37
2, 261892, Note_on_c, 0, 51, 35
2, 261893, Note_on_c, 0, 50, 0
2, 261984, Note_on_c, 0, 51, 0
2, 262045, Note_on_c, 0, 52, 35
2, 262052, Note_on_c, 0, 75, 0
2, 262128, Note_on_c, 0, 76, 25
2, 262291, Note_on_c, 0, 76, 0
2, 262296, Note_on_c, 0, 52, 0
2, 262383, Note_on_c, 0, 79, 67
2, 262385, Note_on_c, 0, 55, 50
2, 262510, Note_on_c, 0, 79, 0
2, 262574, Note_on_c, 0, 55, 0
2, 263025, Note_on_c, 0, 79, 67
2, 263061, Note_on_c, 0, 55, 45
2, 263207, Note_on_c, 0, 79, 0
2, 263308, Note_on_c, 0, 55, 0
2, 263311, Note_on_c, 0, 78, 54
2, 263349, Note_on_c, 0, 54, 47
2, 263456, Note_on_c, 0, 78, 0
2, 263490, Note_on_c, 0, 54, 0
2, 263525, Note_on_c, 0, 77, 35
2, 263541, Note_on_c, 0, 53, 28
2, 263730, Note_on_c, 0, 77, 0
2, 263808, Note_on_c, 0, 53, 0
2, 264009, Note_on_c, 0, 77, 72
2, 264099, Note_on_c, 0, 53, 43
2, 264356, Note_on_c, 0, 77, 0
2, 264467, Note_on_c, 0, 74, 40
2, 264476, Note_on_c, 0, 53, 0
2, 264497, Note_on_c, 0, 50, 35
2, 264642, Note_on_c, 0, 74, 0
2, 264680, Note_on_c, 0, 50, 0
2, 264946, Note_on_c, 0, 50, 47
2, 264965, Note_on_c, 0, 74, 59
2, 265319, Note_on_c, 0, 74, 0
2, 265442, Note_on_c, 0, 70, 34
2, 265450, Note_on_c, 0, 50, 0
2, 265471, Note_on_c, 0, 46, 16
2, 265637, Note_on_c, 0, 46, 0
2, 265730, Note_on_c, 0, 70, 0
2, 265957, Note_on_c, 0, 46, 44
2, 265960, Note_on_c, 0, 70, 52
2, 266246, Note_on_c, 0, 70, 0
2, 266293, Note_on_c, 0, 46, 0
2, 266293, Note_on_c, 0, 67, 53
2, 266320, Note_on_c, 0, 43, 25
2, 266401, Note_on_c, 0, 67, 0
2, 266418, Note_on_c, 0, 43, 0
2, 267432, Note_on_c, 0, 69, 82
2, 267435, Note_on_c, 0, 57, 57
2, 267635, Note_on_c, 0, 57, 0
2, 267637, Note_on_c, 0, 69, 0
2, 267697, Note_on_c, 0, 68, 45
2, 267746, Note_on_c, 0, 56, 26
2, 267853, Note_on_c, 0, 68, 0
2, 267884, Note_on_c, 0, 56, 0
2, 267913, Note_on_c, 0, 57, 32
2, 268166, Note_on_c, 0, 70, 44
2, 268184, Note_on_c, 0, 58, 36
2, 268198, Note_on_c, 0, 57, 0
2, 268305, Note_on_c, 0, 70, 0
2, 268315, Note_on_c, 0, 58, 0
2, 268358, Note_on_c, 0, 59, 36
2, 268361, Note_on_c, 0, 71, 37
2, 268565, Note_on_c, 0, 71, 0
2, 268577, Note_on_c, 0, 59, 0
2, 268631, Note_on_c, 0, 72, 54
2, 268632, Note_on_c, 0, 60, 40
2, 268776, Note_on_c, 0, 72, 0
2, 268777, Note_on_c, 0, 60, 0
2, 268854, Note_on_c, 0, 69, 34
2, 268877, Note_on_c, 0, 57, 40
2, 269132, Note_on_c, 0, 69, 0
2, 269148, Note_on_c, 0, 57, 0
2, 269318, Note_on_c, 0, 65, 29
2, 269355, Note_on_c, 0, 53, 20
2, 269525, Note_on_c, 0, 65, 0
2, 269585, Note_on_c, 0, 53, 0
2, 269719, Note_on_c, 0, 57, 44
2, 269769, Note_on_c, 0, 65, 44
2, 269928, Note_on_c, 0, 57, 0
2, 270013, Note_on_c, 0, 65, 0
2, 270740, Note_on_c, 0, 65, 69
2, 270784, Note_on_c, 0, 55, 31
2, 270877, Note_on_c, 0, 55, 0
2, 270924, Note_on_c, 0, 65, 0
2, 271088, Note_on_c, 0, 65, 54
2, 271276, Note_on_c, 0, 64, 48
2, 271307, Note_on_c, 0, 65, 0
2, 271424, Note_on_c, 0, 64, 0
2, 271522, Note_on_c, 0, 62, 62
2, 271538, Note_on_c, 0, 55, 31
2, 271681, Note_on_c, 0, 62, 0
2, 271747, Note_on_c, 0, 55, 0
2, 271785, Note_on_c, 0, 61, 35
2, 271928, Note_on_c, 0, 61, 0
2, 272014, Note_on_c, 0, 64, 70
2, 272068, Note_on_c, 0, 55, 43
2, 272209, Note_on_c, 0, 61, 26
2, 272222, Note_on_c, 0, 64, 0
2, 272233, Note_on_c, 0, 55, 0
2, 272415, Note_on_c, 0, 49, 39
2, 272496, Note_on_c, 0, 61, 0
2, 272670, Note_on_c, 0, 49, 0
2, 272688, Note_on_c, 0, 50, 51
2, 272704, Note_on_c, 0, 62, 62
2, 273062, Note_on_c, 0, 62, 0
2, 273115, Note_on_c, 0, 50, 0
2, 273149, Note_on_c, 0, 52, 47
2, 273182, Note_on_c, 0, 64, 41
2, 273394, Note_on_c, 0, 64, 0
2, 273436, Note_on_c, 0, 52, 0
2, 273454, Note_on_c, 0, 65, 70
2, 273484, Note_on_c, 0, 53, 37
2, 273920, Note_on_c, 0, 53, 0
2, 273933, Note_on_c, 0, 62, 63
2, 273935, Note_on_c, 0, 65, 0
2, 273971, Note_on_c, 0, 50, 31
2, 274478, Note_on_c, 0, 50, 0
2, 274501, Note_on_c, 0, 62, 0
2, 274582, Note_on_c, 0, 59, 40
2, 274598, Note_on_c, 0, 47, 29
2, 274763, Note_on_c, 0, 59, 0
2, 274795, Note_on_c, 0, 47, 0
2, 274850, Note_on_c, 0, 60, 34
2, 274882, Note_on_c, 0, 48, 18
2, 275006, Note_on_c, 0, 48, 0
2, 275040, Note_on_c, 0, 50, 32
2, 275043, Note_on_c, 0, 60, 0
2, 275060, Note_on_c, 0, 62, 45
2, 275439, Note_on_c, 0, 62, 0
2, 275440, Note_on_c, 0, 50, 0
2, 275536, Note_on_c, 0, 43, 29
2, 275546, Note_on_c, 0, 55, 46
2, 276818, Note_on_c, 0, 55, 0
2, 276888, Note_on_c, 0, 43, 0
2, 277511, Note_on_c, 0, 57, 65
2, 277550, Note_on_c, 0, 45, 39
2, 277748, Note_on_c, 0, 57, 0
2, 277781, Note_on_c, 0, 45, 0
2, 277783, Note_on_c, 0, 56, 37
2, 277826, Note_on_c, 0, 44, 34
2, 277856, Note_on_c, 0, 56, 0
2, 277993, Note_on_c, 0, 57, 37
2, 278000, Note_on_c, 0, 44, 0
2, 278013, Note_on_c, 0, 45, 18
2, 278149, Note_on_c, 0, 57, 0
2, 278274, Note_on_c, 0, 58, 55
2, 278276, Note_on_c, 0, 45, 0
2, 278314, Note_on_c, 0, 46, 35
2, 278416, Note_on_c, 0, 58, 0
2, 278452, Note_on_c, 0, 60, 71
2, 278490, Note_on_c, 0, 46, 0
2, 278492, Note_on_c, 0, 48, 49
2, 278717, Note_on_c, 0, 48, 0
2, 278762, Note_on_c, 0, 60, 0
2, 278944, Note_on_c, 0, 60, 61
2, 278954, Note_on_c, 0, 48, 49
2, 279160, Note_on_c, 0, 48, 0
2, 279186, Note_on_c, 0, 60, 0
2, 279238, Note_on_c, 0, 59, 38
2, 279304, Note_on_c, 0, 47, 29
2, 279398, Note_on_c, 0, 59, 0
2, 279426, Note_on_c, 0, 48, 49
2, 279431, Note_on_c, 0, 47, 0
2, 279433, Note_on_c, 0, 60, 42
2, 279647, Note_on_c, 0, 48, 0
2, 279739, Note_on_c, 0, 60, 0
2, 280308, Note_on_c, 0, 50, 52
2, 280331, Note_on_c, 0, 62, 78
2, 280523, Note_on_c, 0, 62, 0
2, 280524, Note_on_c, 0, 50, 0
2, 280629, Note_on_c, 0, 60, 29
2, 280814, Note_on_c, 0, 60, 0
2, 280820, Note_on_c, 0, 50, 26
2, 280826, Note_on_c, 0, 62, 33
2, 280987, Note_on_c, 0, 50, 0
2, 281032, Note_on_c, 0, 62, 0
2, 281094, Note_on_c, 0, 64, 75
2, 281123, Note_on_c, 0, 52, 43
2, 281501, Note_on_c, 0, 52, 0
2, 281511, Note_on_c, 0, 64, 0
2, 281612, Note_on_c, 0, 50, 23
2, 281718, Note_on_c, 0, 50, 0
2, 281794, Note_on_c, 0, 65, 65
2, 281822, Note_on_c, 0, 53, 35
2, 282060, Note_on_c, 0, 65, 0
2, 282084, Note_on_c, 0, 53, 0
2, 282350, Note_on_c, 0, 53, 21
2, 282505, Note_on_c, 0, 53, 0
2, 282580, Note_on_c, 0, 67, 72
2, 282613, Note_on_c, 0, 55, 56
2, 283020, Note_on_c, 0, 55, 0
2, 283033, Note_on_c, 0, 67, 0
2, 283058, Note_on_c, 0, 53, 31
2, 283152, Note_on_c, 0, 53, 0
2, 283226, Note_on_c, 0, 55, 39
2, 283280, Note_on_c, 0, 67, 39
2, 283453, Note_on_c, 0, 67, 0
2, 283513, Note_on_c, 0, 68, 54
2, 283522, Note_on_c, 0, 55, 0
2, 283596, Note_on_c, 0, 56, 39
2, 283644, Note_on_c, 0, 56, 0
2, 283644, Note_on_c, 0, 68, 0
2, 283717, Note_on_c, 0, 69, 34
2, 283904, Note_on_c, 0, 69, 0
2, 283957, Note_on_c, 0, 70, 71
2, 283992, Note_on_c, 0, 58, 48
2, 284085, Note_on_c, 0, 70, 0
2, 284129, Note_on_c, 0, 58, 0
2, 284190, Note_on_c, 0, 69, 34
2, 284348, Note_on_c, 0, 69, 0
2, 284472, Note_on_c, 0, 68, 38
2, 284527, Note_on_c, 0, 56, 31
2, 284548, Note_on_c, 0, 68, 0
2, 284601, Note_on_c, 0, 56, 0
2, 284647, Note_on_c, 0, 57, 49
2, 284657, Note_on_c, 0, 69, 52
2, 284855, Note_on_c, 0, 69, 0
2, 284891, Note_on_c, 0, 57, 0
2, 285608, Note_on_c, 0, 65, 63
2, 285621, Note_on_c, 0, 53, 38
2, 285836, Note_on_c, 0, 65, 0
2, 285863, Note_on_c, 0, 53, 0
2, 285941, Note_on_c, 0, 52, 39
2, 285945, Note_on_c, 0, 64, 31
2, 286015, Note_on_c, 0, 52, 0
2, 286020, Note_on_c, 0, 64, 0
2, 286106, Note_on_c, 0, 53, 34
2, 286140, Note_on_c, 0, 65, 56
2, 286292, Note_on_c, 0, 53, 0
2, 286319, Note_on_c, 0, 65, 0
2, 286637, Note_on_c, 0, 60, 54
2, 286884, Note_on_c, 0, 60, 0
2, 286939, Note_on_c, 0, 59, 31
2, 287020, Note_on_c, 0, 59, 0
2, 287110, Note_on_c, 0, 60, 43
2, 287120, Note_on_c, 0, 48, 44
2, 287380, Note_on_c, 0, 60, 0
2, 287398, Note_on_c, 0, 48, 0
2, 288506, Note_on_c, 0, 50, 54
2, 288529, Note_on_c, 0, 62, 82
2, 288744, Note_on_c, 0, 50, 0
2, 289213, Note_on_c, 0, 62, 0
2, 289267, Note_on_c, 0, 59, 59
2, 289277, Note_on_c, 0, 47, 44
2, 289668, Note_on_c, 0, 47, 0
2, 289687, Note_on_c, 0, 59, 0
2, 289739, Note_on_c, 0, 55, 40
2, 289771, Note_on_c, 0, 43, 20
2, 289812, Note_on_c, 0, 55, 0
2, 289847, Note_on_c, 0, 43, 0
2, 289921, Note_on_c, 0, 45, 42
2, 289957, Note_on_c, 0, 57, 67
2, 290156, Note_on_c, 0, 45, 0
2, 290220, Note_on_c, 0, 57, 0
2, 290231, Note_on_c, 0, 45, 33
2, 290254, Note_on_c, 0, 58, 39
2, 290322, Note_on_c, 0, 45, 0
2, 290422, Note_on_c, 0, 58, 0
2, 290490, Note_on_c, 0, 60, 53
2, 290651, Note_on_c, 0, 60, 0
2, 290701, Note_on_c, 0, 61, 58
2, 290709, Note_on_c, 0, 49, 46
2, 290782, Note_on_c, 0, 49, 0
2, 290932, Note_on_c, 0, 63, 46
2, 290944, Note_on_c, 0, 61, 0
2, 290992, Note_on_c, 0, 49, 16
2, 291122, Note_on_c, 0, 63, 0
2, 291154, Note_on_c, 0, 49, 0
2, 291177, Note_on_c, 0, 64, 73
2, 291233, Note_on_c, 0, 51, 58
2, 291377, Note_on_c, 0, 64, 0
2, 291518, Note_on_c, 0, 51, 0
2, 291635, Note_on_c, 0, 49, 36
2, 291790, Note_on_c, 0, 49, 0
2, 291833, Note_on_c, 0, 67, 69
2, 291858, Note_on_c, 0, 53, 19
2, 292076, Note_on_c, 0, 53, 0
2, 292331, Note_on_c, 0, 67, 0
2, 292340, Note_on_c, 0, 50, 25
2, 292356, Note_on_c, 0, 65, 42
2, 292591, Note_on_c, 0, 50, 0
2, 292604, Note_on_c, 0, 65, 0
2, 292626, Note_on_c, 0, 62, 41
2, 292703, Note_on_c, 0, 53, 29
2, 292737, Note_on_c, 0, 62, 0
2, 292839, Note_on_c, 0, 53, 0
2, 292845, Note_on_c, 0, 65, 35
2, 292895, Note_on_c, 0, 57, 26
2, 293027, Note_on_c, 0, 65, 0
2, 293100, Note_on_c, 0, 69, 53
2, 293158, Note_on_c, 0, 57, 0
2, 293194, Note_on_c, 0, 60, 29
2, 293225, Note_on_c, 0, 69, 0
2, 293309, Note_on_c, 0, 72, 41
2, 293461, Note_on_c, 0, 72, 0
2, 293472, Note_on_c, 0, 60, 0
2, 293605, Note_on_c, 0, 79, 83
2, 293774, Note_on_c, 0, 64, 36
2, 293818, Note_on_c, 0, 77, 64
2, 293836, Note_on_c, 0, 79, 0
2, 294000, Note_on_c, 0, 64, 0
2, 294148, Note_on_c, 0, 77, 0
2, 294294, Note_on_c, 0, 77, 63
2, 294320, Note_on_c, 0, 62, 46
2, 294487, Note_on_c, 0, 77, 0
2, 294489, Note_on_c, 0, 62, 0
2, 294794, Note_on_c, 0, 76, 62
2, 294837, Note_on_c, 0, 65, 37
2, 294839, Note_on_c, 0, 60, 36
2, 295025, Note_on_c, 0, 76, 0
2, 295158, Note_on_c, 0, 65, 0
2, 295221, Note_on_c, 0, 60, 0
2, 295255, Note_on_c, 0, 72, 56
2, 295310, Note_on_c, 0, 60, 33
2, 295482, Note_on_c, 0, 72, 0
2, 295550, Note_on_c, 0, 60, 0
2, 295738, Note_on_c, 0, 76, 50
2, 295739, Note_on_c, 0, 70, 50
2, 295759, Note_on_c, 0, 67, 45
2, 295772, Note_on_c, 0, 60, 34
2, 296132, Note_on_c, 0, 76, 0
2, 296212, Note_on_c, 0, 67, 0
2, 296246, Note_on_c, 0, 70, 0
2, 296413, Note_on_c, 0, 60, 0
2, 296425, Note_on_c, 0, 74, 59
2, 296427, Note_on_c, 0, 65, 60
2, 296430, Note_on_c, 0, 70, 53
2, 296476, Note_on_c, 0, 58, 39
2, 296900, Note_on_c, 0, 74, 0
2, 296948, Note_on_c, 0, 65, 0
2, 296953, Note_on_c, 0, 70, 0
2, 296974, Note_on_c, 0, 58, 0
2, 297637, Note_on_c, 0, 72, 67
2, 297644, Note_on_c, 0, 67, 74
2, 297648, Note_on_c, 0, 57, 56
2, 297648, Note_on_c, 0, 62, 67
2, 297834, Note_on_c, 0, 62, 0
2, 297864, Note_on_c, 0, 67, 0
2, 297881, Note_on_c, 0, 72, 0
2, 297905, Note_on_c, 0, 57, 0
2, 298349, Note_on_c, 0, 70, 55
2, 298365, Note_on_c, 0, 65, 59
2, 298386, Note_on_c, 0, 60, 33
2, 298389, Note_on_c, 0, 55, 33
2, 298659, Note_on_c, 0, 70, 0
2, 298710, Note_on_c, 0, 60, 0
2, 298720, Note_on_c, 0, 65, 0
2, 298764, Note_on_c, 0, 55, 0
2, 299030, Note_on_c, 0, 68, 48
2, 299039, Note_on_c, 0, 63, 47
2, 299050, Note_on_c, 0, 53, 33
2, 299061, Note_on_c, 0, 60, 35
2, 299452, Note_on_c, 0, 53, 0
2, 299577, Note_on_c, 0, 60, 0
2, 299641, Note_on_c, 0, 68, 0
2, 299747, Note_on_c, 0, 63, 0
2, 299801, Note_on_c, 0, 64, 58
2, 299805, Note_on_c, 0, 69, 52
2, 299812, Note_on_c, 0, 53, 35
2, 299824, Note_on_c, 0, 60, 34
2, 300057, Note_on_c, 0, 64, 0
2, 300185, Note_on_c, 0, 60, 0
2, 300189, Note_on_c, 0, 69, 0
2, 300240, Note_on_c, 0, 53, 0
2, 300513, Note_on_c, 0, 60, 30
2, 300515, Note_on_c, 0, 65, 43
2, 300516, Note_on_c, 0, 53, 31
2, 300539, Note_on_c, 0, 62, 38
2, 300789, Note_on_c, 0, 62, 0
2, 300813, Note_on_c, 0, 65, 0
2, 300849, Note_on_c, 0, 60, 0
2, 300907, Note_on_c, 0, 53, 0
2, 301257, Note_on_c, 0, 60, 55
2, 301267, Note_on_c, 0, 62, 49
2, 301272, Note_on_c, 0, 53, 30
2, 301277, Note_on_c, 0, 65, 45
2, 301348, Note_on_c, 0, 53, 0
2, 301376, Note_on_c, 0, 60, 0
2, 301412, Note_on_c, 0, 62, 0
2, 301452, Note_on_c, 0, 65, 0
2, 301981, Note_on_c, 0, 65, 97
2, 301983, Note_on_c, 0, 55, 75
2, 301985, Note_on_c, 0, 72, 77
2, 301986, Note_on_c, 0, 61, 80
2, 301989, Note_on_c, 0, 69, 82
2, 302065, Note_on_c, 0, 65, 0
2, 302144, Note_on_c, 0, 72, 0
2, 302158, Note_on_c, 0, 69, 0
2, 302198, Note_on_c, 0, 61, 0
2, 302200, Note_on_c, 0, 55, 0
2, 302237, Note_on_c, 0, 65, 39
2, 302252, Note_on_c, 0, 69, 58
2, 302257, Note_on_c, 0, 72, 41
2, 302282, Note_on_c, 0, 55, 44
2, 302285, Note_on_c, 0, 61, 61
2, 302393, Note_on_c, 0, 72, 0
2, 302393, Note_on_c, 0, 69, 0
2, 302397, Note_on_c, 0, 65, 0
2, 302437, Note_on_c, 0, 65, 26
2, 302450, Note_on_c, 0, 72, 30
2, 302461, Note_on_c, 0, 69, 48
2, 302648, Note_on_c, 0, 65, 0
2, 302656, Note_on_c, 0, 69, 0
2, 302671, Note_on_c, 0, 61, 0
2, 302720, Note_on_c, 0, 65, 21
2, 302744, Note_on_c, 0, 69, 38
2, 302750, Note_on_c, 0, 61, 36
2, 302858, Note_on_c, 0, 65, 0
2, 302872, Note_on_c, 0, 69, 0
2, 302919, Note_on_c, 0, 65, 30
2, 302942, Note_on_c, 0, 69, 51
2, 303049, Note_on_c, 0, 65, 0
2, 303086, Note_on_c, 0, 69, 0
2, 303105, Note_on_c, 0, 72, 0
2, 303110, Note_on_c, 0, 61, 0
2, 303131, Note_on_c, 0, 55, 0
2, 303896, Note_on_c, 0, 57, 36
2, 303899, Note_on_c, 0, 64, 58
2, 303901, Note_on_c, 0, 67, 46
2, 303905, Note_on_c, 0, 60, 46
2, 303929, Note_on_c, 0, 55, 25
2, 303942, Note_on_c, 0, 53, 21
2, 303962, Note_on_c, 0, 50, 30
2, 304034, Note_on_c, 0, 60, 0
2, 304036, Note_on_c, 0, 64, 0
2, 304040, Note_on_c, 0, 55, 0
2, 304043, Note_on_c, 0, 57, 0
2, 304071, Note_on_c, 0, 50, 0
2, 304081, Note_on_c, 0, 67, 0
2, 304084, Note_on_c, 0, 53, 0
2, 304171, Note_on_c, 0, 64, 54
2, 304175, Note_on_c, 0, 60, 42
2, 304183, Note_on_c, 0, 67, 37
2, 304239, Note_on_c, 0, 57, 20
2, 304249, Note_on_c, 0, 55, 29
2, 304270, Note_on_c, 0, 53, 32
2, 304283, Note_on_c, 0, 64, 0
2, 304292, Note_on_c, 0, 60, 0
2, 304297, Note_on_c, 0, 50, 16
2, 304397, Note_on_c, 0, 64, 59
2, 304404, Note_on_c, 0, 60, 26
2, 304533, Note_on_c, 0, 64, 0
2, 304535, Note_on_c, 0, 60, 0
2, 304566, Note_on_c, 0, 57, 0
2, 304573, Note_on_c, 0, 50, 0
2, 304577, Note_on_c, 0, 67, 0
2, 304587, Note_on_c, 0, 55, 0
2, 304616, Note_on_c, 0, 53, 0
2, 304681, Note_on_c, 0, 64, 60
2, 304684, Note_on_c, 0, 67, 64
2, 304686, Note_on_c, 0, 60, 44
2, 304735, Note_on_c, 0, 55, 27
2, 304788, Note_on_c, 0, 60, 0
2, 304789, Note_on_c, 0, 64, 0
2, 304804, Note_on_c, 0, 55, 0
2, 304817, Note_on_c, 0, 67, 0
2, 305088, Note_on_c, 0, 55, 37
2, 305094, Note_on_c, 0, 57, 56
2, 305097, Note_on_c, 0, 64, 72
2, 305098, Note_on_c, 0, 60, 63
2, 305115, Note_on_c, 0, 67, 48
2, 305118, Note_on_c, 0, 53, 33
2, 305158, Note_on_c, 0, 57, 0
2, 305171, Note_on_c, 0, 60, 0
2, 305178, Note_on_c, 0, 67, 0
2, 305209, Note_on_c, 0, 55, 0
2, 305212, Note_on_c, 0, 64, 0
2, 305216, Note_on_c, 0, 53, 0
2, 305549, Note_on_c, 0, 59, 58
2, 305557, Note_on_c, 0, 62, 58
2, 305559, Note_on_c, 0, 67, 58
2, 305590, Note_on_c, 0, 55, 37
2, 305630, Note_on_c, 0, 47, 36
2, 306035, Note_on_c, 0, 59, 0
2, 306054, Note_on_c, 0, 47, 0
2, 306062, Note_on_c, 0, 55, 0
2, 306066, Note_on_c, 0, 62, 0
2, 306108, Note_on_c, 0, 67, 0
2, 306267, Note_on_c, 0, 67, 47
2, 306275, Note_on_c, 0, 47, 40
2, 306280, Note_on_c, 0, 59, 42
2, 306282, Note_on_c, 0, 62, 54
2, 306288, Note_on_c, 0, 55, 29
2, 306797, Note_on_c, 0, 59, 0
2, 306923, Note_on_c, 0, 55, 0
2, 307045, Note_on_c, 0, 51, 26
2, 307050, Note_on_c, 0, 62, 0
2, 307133, Note_on_c, 0, 67, 0
2, 307147, Note_on_c, 0, 47, 0
2, 307166, Note_on_c, 0, 51, 0
2, 307179, Note_on_c, 0, 52, 27
2, 307206, Note_on_c, 0, 62, 48
2, 307211, Note_on_c, 0, 58, 48
2, 307237, Note_on_c, 0, 53, 32
2, 307256, Note_on_c, 0, 65, 46
2, 307326, Note_on_c, 0, 52, 0
2, 307563, Note_on_c, 0, 58, 0
2, 307669, Note_on_c, 0, 62, 0
2, 307709, Note_on_c, 0, 65, 0
2, 308212, Note_on_c, 0, 84, 72
2, 308231, Note_on_c, 0, 77, 56
2, 308319, Note_on_c, 0, 53, 0
2, 308447, Note_on_c, 0, 84, 0
2, 308518, Note_on_c, 0, 81, 33
2, 308528, Note_on_c, 0, 72, 35
2, 308539, Note_on_c, 0, 77, 0
2, 308612, Note_on_c, 0, 72, 0
2, 308665, Note_on_c, 0, 81, 0
2, 308976, Note_on_c, 0, 84, 67
2, 308982, Note_on_c, 0, 77, 65
2, 309161, Note_on_c, 0, 77, 0
2, 309221, Note_on_c, 0, 84, 0
2, 309472, Note_on_c, 0, 81, 30
2, 309484, Note_on_c, 0, 72, 27
2, 309548, Note_on_c, 0, 72, 0
2, 309605, Note_on_c, 0, 81, 0
2, 309657, Note_on_c, 0, 84, 69
2, 309679, Note_on_c, 0, 77, 69
2, 309886, Note_on_c, 0, 77, 0
2, 310009, Note_on_c, 0, 84, 0
2, 310140, Note_on_c, 0, 83, 36
2, 310141, Note_on_c, 0, 76, 35
2, 310145, Note_on_c, 0, 81, 50
2, 310206, Note_on_c, 0, 83, 0
2, 310222, Note_on_c, 0, 76, 0
2, 310294, Note_on_c, 0, 81, 0
2, 310617, Note_on_c, 0, 62, 32
2, 310624, Note_on_c, 0, 58, 47
2, 310660, Note_on_c, 0, 57, 29
2, 310769, Note_on_c, 0, 62, 0
2, 310788, Note_on_c, 0, 57, 0
2, 310815, Note_on_c, 0, 58, 0
2, 311354, Note_on_c, 0, 58, 38
2, 311364, Note_on_c, 0, 62, 26
2, 311449, Note_on_c, 0, 62, 0
2, 311519, Note_on_c, 0, 58, 0
2, 312002, Note_on_c, 0, 58, 51
2, 312019, Note_on_c, 0, 62, 37
2, 312022, Note_on_c, 0, 57, 41
2, 312090, Note_on_c, 0, 62, 0
2, 312113, Note_on_c, 0, 57, 0
2, 312187, Note_on_c, 0, 58, 0
2, 312759, Note_on_c, 0, 57, 51
2, 312760, Note_on_c, 0, 62, 37
2, 312762, Note_on_c, 0, 58, 47
2, 312817, Note_on_c, 0, 62, 0
2, 312821, Note_on_c, 0, 57, 0
2, 312884, Note_on_c, 0, 58, 0
2, 312937, Note_on_c, 0, 77, 83
2, 312945, Note_on_c, 0, 84, 75
2, 313110, Note_on_c, 0, 84, 0
2, 313156, Note_on_c, 0, 77, 0
2, 313250, Note_on_c, 0, 81, 54
2, 313251, Note_on_c, 0, 72, 41
2, 313271, Note_on_c, 0, 62, 34
2, 313278, Note_on_c, 0, 58, 34
2, 313285, Note_on_c, 0, 57, 31
2, 313324, Note_on_c, 0, 62, 0
2, 313348, Note_on_c, 0, 57, 0
2, 313356, Note_on_c, 0, 58, 0
2, 313369, Note_on_c, 0, 72, 0
2, 313417, Note_on_c, 0, 81, 0
2, 313695, Note_on_c, 0, 84, 72
2, 313699, Note_on_c, 0, 77, 72
2, 313701, Note_on_c, 0, 58, 60
2, 313702, Note_on_c, 0, 62, 54
2, 313703, Note_on_c, 0, 57, 59
2, 313814, Note_on_c, 0, 77, 0
2, 313827, Note_on_c, 0, 62, 0
2, 313868, Note_on_c, 0, 57, 0
2, 313891, Note_on_c, 0, 84, 0
2, 313919, Note_on_c, 0, 58, 0
2, 314012, Control_c, 0, 64, 127
2, 314157, Note_on_c, 0, 74, 55
2, 314158, Note_on_c, 0, 58, 64
2, 314160, Note_on_c, 0, 86, 63
2, 314161, Note_on_c, 0, 62, 58
2, 314164, Note_on_c, 0, 57, 61
2, 314209, Note_on_c, 0, 86, 0
2, 314217, Note_on_c, 0, 74, 0
2, 314218, Note_on_c, 0, 62, 0
2, 314272, Note_on_c, 0, 57, 0
2, 314283, Note_on_c, 0, 58, 0
2, 314359, Note_on_c, 0, 62, 54
2, 314366, Note_on_c, 0, 57, 44
2, 314369, Note_on_c, 0, 58, 45
2, 314380, Note_on_c, 0, 88, 59
2, 314397, Note_on_c, 0, 76, 39
2, 314429, Note_on_c, 0, 88, 0
2, 314447, Note_on_c, 0, 62, 0
2, 314453, Note_on_c, 0, 57, 0
2, 314471, Note_on_c, 0, 76, 0
2, 314526, Note_on_c, 0, 58, 0
2, 314628, Note_on_c, 0, 58, 31
2, 314663, Note_on_c, 0, 79, 35
2, 314726, Note_on_c, 0, 79, 0
2, 314740, Note_on_c, 0, 58, 0
2, 314828, Note_on_c, 0, 62, 71
2, 314853, Note_on_c, 0, 81, 77
2, 314855, Note_on_c, 0, 59, 59
2, 314856, Note_on_c, 0, 93, 81
2, 314859, Note_on_c, 0, 55, 54
2, 314861, Note_on_c, 0, 88, 69
2, 314871, Note_on_c, 0, 52, 55
2, 314876, Control_c, 0, 64, 0
2, 314886, Note_on_c, 0, 90, 37
2, 315259, Control_c, 0, 64, 127
2, 315471, Note_on_c, 0, 90, 0
2, 315620, Note_on_c, 0, 81, 0
2, 315641, Note_on_c, 0, 93, 0
2, 315644, Note_on_c, 0, 88, 0
2, 315654, Note_on_c, 0, 52, 0
2, 315664, Note_on_c, 0, 62, 0
2, 315681, Note_on_c, 0, 55, 0
2, 315684, Note_on_c, 0, 59, 0
2, 315862, Note_on_c, 0, 62, 52
2, 315864, Note_on_c, 0, 93, 66
2, 315878, Note_on_c, 0, 59, 37
2, 315879, Note_on_c, 0, 88, 62
2, 315881, Note_on_c, 0, 81, 58
2, 315886, Note_on_c, 0, 55, 37
2, 315888, Note_on_c, 0, 52, 40
2, 315988, Note_on_c, 0, 62, 0
2, 316015, Note_on_c, 0, 81, 0
2, 316041, Note_on_c, 0, 88, 0
2, 316043, Note_on_c, 0, 93, 0
2, 316062, Note_on_c, 0, 59, 0
2, 316100, Note_on_c, 0, 55, 0
2, 316166, Note_on_c, 0, 62, 48
2, 316182, Note_on_c, 0, 93, 56
2, 316185, Note_on_c, 0, 55, 19
2, 316185, Note_on_c, 0, 88, 54
2, 316194, Note_on_c, 0, 59, 32
2, 316195, Note_on_c, 0, 81, 50
2, 316271, Note_on_c, 0, 52, 0
2, 316293, Note_on_c, 0, 81, 0
2, 316303, Note_on_c, 0, 59, 0
2, 316310, Note_on_c, 0, 88, 0
2, 316311, Note_on_c, 0, 55, 0
2, 316313, Note_on_c, 0, 93, 0
2, 316315, Note_on_c, 0, 62, 0
2, 316573, Control_c, 0, 64, 0
2, 316648, Note_on_c, 0, 93, 78
2, 316655, Note_on_c, 0, 61, 68
2, 316657, Note_on_c, 0, 55, 63
2, 316658, Note_on_c, 0, 86, 73
2, 316660, Note_on_c, 0, 65, 74
2, 316661, Note_on_c, 0, 81, 69
2, 316718, Note_on_c, 0, 81, 0
2, 316719, Note_on_c, 0, 65, 0
2, 316727, Note_on_c, 0, 86, 0
2, 316764, Note_on_c, 0, 93, 0
2, 316765, Note_on_c, 0, 55, 0
2, 316769, Note_on_c, 0, 61, 0
2, 317115, Note_on_c, 0, 91, 68
2, 317125, Note_on_c, 0, 79, 66
2, 317133, Note_on_c, 0, 85, 55
2, 317135, Note_on_c, 0, 61, 65
2, 317140, Note_on_c, 0, 55, 67
2, 317142, Note_on_c, 0, 88, 53
2, 317148, Note_on_c, 0, 64, 71
2, 317277, Control_c, 0, 64, 127
2, 317708, Note_on_c, 0, 79, 0
2, 317719, Note_on_c, 0, 91, 0
2, 317739, Note_on_c, 0, 55, 0
2, 317742, Note_on_c, 0, 88, 0
2, 317743, Note_on_c, 0, 64, 0
2, 317763, Note_on_c, 0, 61, 0
2, 317844, Note_on_c, 0, 89, 52
2, 317861, Control_c, 0, 64, 0
2, 317863, Note_on_c, 0, 55, 40
2, 317869, Note_on_c, 0, 64, 54
2, 317870, Note_on_c, 0, 61, 54
2, 317873, Note_on_c, 0, 77, 41
2, 318015, Note_on_c, 0, 64, 0
2, 318031, Note_on_c, 0, 55, 0
2, 318032, Note_on_c, 0, 77, 0
2, 318050, Note_on_c, 0, 89, 0
2, 318089, Note_on_c, 0, 85, 0
2, 318095, Note_on_c, 0, 61, 0
2, 318272, Note_on_c, 0, 88, 45
2, 318304, Note_on_c, 0, 61, 43
2, 318307, Note_on_c, 0, 55, 36
2, 318319, Note_on_c, 0, 64, 38
2, 318321, Note_on_c, 0, 76, 36
2, 318348, Control_c, 0, 64, 127
2, 318385, Note_on_c, 0, 64, 0
2, 318413, Note_on_c, 0, 61, 0
2, 318419, Note_on_c, 0, 55, 0
2, 318420, Note_on_c, 0, 76, 0
2, 318480, Note_on_c, 0, 88, 0
2, 318590, Control_c, 0, 64, 0
2, 318746, Note_on_c, 0, 50, 33
2, 318756, Note_on_c, 0, 62, 41
2, 318763, Note_on_c, 0, 89, 67
2, 318771, Note_on_c, 0, 57, 34
2, 318777, Note_on_c, 0, 77, 57
2, 318780, Note_on_c, 0, 53, 45
2, 318804, Note_on_c, 0, 84, 45
2, 318974, Note_on_c, 0, 89, 0
2, 318981, Note_on_c, 0, 77, 0
2, 319033, Note_on_c, 0, 84, 0
2, 319043, Note_on_c, 0, 62, 0
2, 319059, Note_on_c, 0, 50, 0
2, 319103, Note_on_c, 0, 57, 0
2, 319118, Note_on_c, 0, 53, 0
2, 319254, Note_on_c, 0, 86, 59
2, 319255, Note_on_c, 0, 57, 38
2, 319286, Note_on_c, 0, 74, 45
2, 319294, Note_on_c, 0, 53, 25
2, 319342, Note_on_c, 0, 57, 0
2, 319350, Note_on_c, 0, 74, 0
2, 319389, Note_on_c, 0, 53, 0
2, 319399, Note_on_c, 0, 86, 0
2, 319712, Note_on_c, 0, 57, 47
2, 319727, Note_on_c, 0, 86, 56
2, 319734, Note_on_c, 0, 48, 35
2, 319749, Note_on_c, 0, 74, 57
2, 319787, Note_on_c, 0, 81, 38
2, 319903, Control_c, 0, 64, 127
2, 320373, Note_on_c, 0, 48, 0
2, 320423, Note_on_c, 0, 57, 0
2, 320690, Note_on_c, 0, 57, 55
2, 320694, Note_on_c, 0, 46, 51
2, 320716, Control_c, 0, 64, 0
2, 321088, Control_c, 0, 64, 127
2, 321204, Note_on_c, 0, 57, 0
2, 321228, Note_on_c, 0, 46, 0
2, 321630, Note_on_c, 0, 45, 55
2, 321634, Note_on_c, 0, 55, 43
2, 321643, Control_c, 0, 64, 0
2, 321957, Control_c, 0, 64, 127
2, 322088, Note_on_c, 0, 45, 0
2, 322280, Note_on_c, 0, 55, 0
2, 322329, Note_on_c, 0, 74, 0
2, 322418, Note_on_c, 0, 81, 0
2, 322473, Control_c, 0, 64, 0
2, 322503, Note_on_c, 0, 86, 0
2, 322577, Note_on_c, 0, 43, 33
2, 322579, Note_on_c, 0, 55, 51
2, 322630, Control_c, 0, 64, 127
2, 322643, Note_on_c, 0, 43, 0
2, 322708, Note_on_c, 0, 55, 0
2, 323048, Note_on_c, 0, 62, 74
2, 323051, Note_on_c, 0, 53, 63
2, 323055, Note_on_c, 0, 58, 69
2, 323066, Note_on_c, 0, 57, 71
2, 323129, Control_c, 0, 64, 0
2, 323570, Note_on_c, 0, 88, 91
2, 323571, Note_on_c, 0, 84, 95
2, 323850, Note_on_c, 0, 84, 0
2, 323881, Note_on_c, 0, 88, 0
2, 323904, Note_on_c, 0, 86, 50
2, 323914, Note_on_c, 0, 82, 62
2, 324004, Note_on_c, 0, 57, 0
2, 324036, Note_on_c, 0, 53, 0
2, 324075, Note_on_c, 0, 62, 0
2, 324093, Note_on_c, 0, 86, 0
2, 324119, Note_on_c, 0, 58, 0
2, 324147, Note_on_c, 0, 82, 0
2, 324321, Note_on_c, 0, 81, 49
2, 324325, Note_on_c, 0, 84, 57
2, 324349, Note_on_c, 0, 64, 54
2, 324355, Note_on_c, 0, 58, 43
2, 324465, Note_on_c, 0, 81, 0
2, 324514, Note_on_c, 0, 84, 0
2, 324834, Note_on_c, 0, 82, 58
2, 324854, Note_on_c, 0, 79, 50
2, 324975, Note_on_c, 0, 79, 0
2, 324998, Control_c, 0, 64, 127
2, 325066, Note_on_c, 0, 82, 0
2, 325132, Note_on_c, 0, 64, 0
2, 325177, Note_on_c, 0, 58, 0
2, 325269, Control_c, 0, 64, 0
2, 325313, Note_on_c, 0, 77, 58
2, 325320, Note_on_c, 0, 81, 53
2, 325383, Note_on_c, 0, 58, 44
2, 325386, Note_on_c, 0, 64, 45
2, 325430, Note_on_c, 0, 77, 0
2, 325454, Note_on_c, 0, 81, 0
2, 325596, Note_on_c, 0, 76, 33
2, 325612, Note_on_c, 0, 79, 50
2, 325820, Note_on_c, 0, 79, 0
2, 325831, Note_on_c, 0, 64, 0
2, 325840, Note_on_c, 0, 58, 0
2, 325857, Note_on_c, 0, 76, 0
2, 325986, Note_on_c, 0, 74, 48
2, 325989, Note_on_c, 0, 77, 50
2, 326014, Note_on_c, 0, 58, 38
2, 326026, Control_c, 0, 64, 127
2, 326040, Note_on_c, 0, 64, 33
2, 326164, Note_on_c, 0, 64, 0
2, 326170, Note_on_c, 0, 74, 0
2, 326195, Note_on_c, 0, 77, 0
2, 326353, Note_on_c, 0, 58, 0
2, 326384, Control_c, 0, 64, 0
2, 326443, Note_on_c, 0, 64, 42
2, 326445, Note_on_c, 0, 72, 43
2, 326448, Note_on_c, 0, 76, 44
2, 326461, Note_on_c, 0, 57, 43
2, 326488, Note_on_c, 0, 53, 25
2, 326505, Note_on_c, 0, 60, 35
2, 326782, Control_c, 0, 64, 127
2, 326881, Note_on_c, 0, 72, 0
2, 326955, Note_on_c, 0, 53, 0
2, 326974, Note_on_c, 0, 64, 0
2, 327008, Note_on_c, 0, 60, 0
2, 327014, Note_on_c, 0, 57, 0
2, 327070, Note_on_c, 0, 76, 0
2, 327082, Control_c, 0, 64, 0
2, 327169, Note_on_c, 0, 74, 56
2, 327179, Note_on_c, 0, 71, 34
2, 327185, Note_on_c, 0, 64, 35
2, 327189, Note_on_c, 0, 57, 34
2, 327212, Note_on_c, 0, 60, 25
2, 327219, Note_on_c, 0, 53, 26
2, 327296, Control_c, 0, 64, 127
2, 327529, Note_on_c, 0, 71, 0
2, 327567, Note_on_c, 0, 53, 0
2, 327573, Note_on_c, 0, 64, 0
2, 327575, Note_on_c, 0, 60, 0
2, 327583, Note_on_c, 0, 57, 0
2, 327707, Note_on_c, 0, 74, 0
2, 327826, Control_c, 0, 64, 0
2, 327839, Note_on_c, 0, 69, 37
2, 327843, Note_on_c, 0, 64, 41
2, 327845, Note_on_c, 0, 72, 48
2, 327862, Note_on_c, 0, 57, 41
2, 327885, Note_on_c, 0, 53, 25
2, 327889, Note_on_c, 0, 60, 33
2, 328153, Control_c, 0, 64, 127
2, 328304, Note_on_c, 0, 64, 0
2, 328345, Note_on_c, 0, 69, 0
2, 328374, Note_on_c, 0, 60, 0
2, 328375, Note_on_c, 0, 53, 0
2, 328406, Note_on_c, 0, 57, 0
2, 328514, Note_on_c, 0, 72, 0
2, 328583, Control_c, 0, 64, 0
2, 328626, Note_on_c, 0, 67, 48
2, 328627, Note_on_c, 0, 70, 46
2, 328671, Note_on_c, 0, 60, 31
2, 328674, Note_on_c, 0, 57, 29
2, 328684, Note_on_c, 0, 53, 31
2, 328812, Control_c, 0, 64, 127
2, 328990, Note_on_c, 0, 60, 0
2, 329054, Note_on_c, 0, 57, 0
2, 329075, Note_on_c, 0, 53, 0
2, 329094, Note_on_c, 0, 67, 0
2, 329191, Note_on_c, 0, 70, 0
2, 329308, Note_on_c, 0, 69, 50
2, 329310, Note_on_c, 0, 65, 48
2, 329312, Note_on_c, 0, 57, 37
2, 329324, Note_on_c, 0, 60, 31
2, 329337, Control_c, 0, 64, 0
2, 329339, Note_on_c, 0, 53, 27
2, 329449, Note_on_c, 0, 65, 0
2, 329453, Note_on_c, 0, 60, 0
2, 329493, Note_on_c, 0, 53, 0
2, 329511, Note_on_c, 0, 57, 0
2, 329543, Note_on_c, 0, 69, 0
2, 329723, Control_c, 0, 64, 127
2, 329753, Note_on_c, 0, 65, 53
2, 329758, Note_on_c, 0, 67, 49
2, 329871, Note_on_c, 0, 65, 0
2, 329875, Note_on_c, 0, 67, 0
2, 330194, Control_c, 0, 64, 0
2, 330261, Note_on_c, 0, 69, 62
2, 330282, Note_on_c, 0, 62, 19
2, 330299, Note_on_c, 0, 52, 21
2, 330305, Note_on_c, 0, 58, 26
2, 330309, Note_on_c, 0, 57, 29
2, 330432, Note_on_c, 0, 69, 0
2, 330500, Note_on_c, 0, 70, 36
2, 330591, Note_on_c, 0, 69, 36
2, 330683, Note_on_c, 0, 70, 0
2, 330730, Note_on_c, 0, 67, 37
2, 330740, Note_on_c, 0, 62, 0
2, 330793, Note_on_c, 0, 69, 0
2, 330817, Note_on_c, 0, 58, 0
2, 330911, Note_on_c, 0, 67, 0
2, 331036, Note_on_c, 0, 69, 70
2, 331117, Note_on_c, 0, 58, 34
2, 331187, Note_on_c, 0, 69, 0
2, 331285, Note_on_c, 0, 70, 72
2, 331468, Note_on_c, 0, 70, 0
2, 331538, Note_on_c, 0, 72, 67
2, 331579, Note_on_c, 0, 52, 0
2, 331620, Note_on_c, 0, 57, 0
2, 331622, Note_on_c, 0, 62, 2
2, 331661, Note_on_c, 0, 58, 0
2, 331734, Note_on_c, 0, 72, 0
2, 331791, Note_on_c, 0, 70, 45
2, 331812, Note_on_c, 0, 62, 0
2, 331981, Note_on_c, 0, 70, 0
2, 332050, Note_on_c, 0, 69, 48
2, 332132, Note_on_c, 0, 61, 33
2, 332179, Note_on_c, 0, 55, 15
2, 332214, Note_on_c, 0, 69, 0
2, 332318, Note_on_c, 0, 67, 40
2, 332543, Note_on_c, 0, 67, 0
2, 332626, Note_on_c, 0, 61, 0
2, 332691, Note_on_c, 0, 65, 55
2, 332771, Note_on_c, 0, 55, 0
2, 332828, Note_on_c, 0, 65, 0
2, 332913, Note_on_c, 0, 55, 28
2, 332986, Note_on_c, 0, 63, 64
2, 333044, Note_on_c, 0, 55, 0
2, 333262, Note_on_c, 0, 58, 46
2, 333326, Note_on_c, 0, 63, 0
2, 333566, Note_on_c, 0, 58, 0
2, 333628, Note_on_c, 0, 55, 35
2, 333978, Note_on_c, 0, 55, 0
2, 334372, Note_on_c, 0, 50, 44
2, 334540, Note_on_c, 0, 50, 0
2, 335116, Note_on_c, 0, 57, 43
2, 335332, Note_on_c, 0, 57, 0
2, 335355, Note_on_c, 0, 60, 67
2, 335383, Note_on_c, 0, 48, 41
2, 335470, Note_on_c, 0, 48, 0
2, 335555, Note_on_c, 0, 60, 0
2, 335575, Note_on_c, 0, 62, 61
2, 335807, Note_on_c, 0, 62, 0
2, 335811, Note_on_c, 0, 64, 71
2, 335982, Note_on_c, 0, 64, 0
2, 336019, Note_on_c, 0, 46, 30
2, 336022, Note_on_c, 0, 57, 31
2, 336073, Note_on_c, 0, 65, 75
2, 336187, Note_on_c, 0, 57, 0
2, 336380, Note_on_c, 0, 46, 0
2, 336474, Note_on_c, 0, 65, 0
2, 336514, Note_on_c, 0, 62, 58
2, 336774, Note_on_c, 0, 62, 0
2, 336835, Note_on_c, 0, 55, 26
2, 336914, Note_on_c, 0, 55, 0
2, 337034, Note_on_c, 0, 62, 63
2, 337310, Note_on_c, 0, 45, 48
2, 337472, Note_on_c, 0, 55, 37
2, 337474, Note_on_c, 0, 45, 0
2, 337583, Note_on_c, 0, 62, 0
2, 337764, Note_on_c, 0, 55, 0
2, 337882, Note_on_c, 0, 50, 20
2, 337919, Note_on_c, 0, 43, 26
2, 337960, Note_on_c, 0, 58, 55
2, 338061, Note_on_c, 0, 50, 0
2, 338159, Note_on_c, 0, 43, 0
2, 338401, Note_on_c, 0, 58, 0
2, 338422, Note_on_c, 0, 57, 43
2, 338640, Note_on_c, 0, 57, 0
2, 338724, Note_on_c, 0, 58, 53
2, 338768, Note_on_c, 0, 50, 23
2, 338856, Note_on_c, 0, 58, 0
2, 338929, Note_on_c, 0, 62, 50
2, 338930, Note_on_c, 0, 50, 0
2, 339202, Note_on_c, 0, 62, 0
2, 339390, Note_on_c, 0, 65, 75
2, 339631, Note_on_c, 0, 65, 0
2, 339678, Note_on_c, 0, 69, 73
2, 339834, Note_on_c, 0, 69, 0
2, 339937, Note_on_c, 0, 69, 60
2, 339945, Note_on_c, 0, 48, 51
2, 339947, Note_on_c, 0, 58, 51
2, 340301, Note_on_c, 0, 58, 0
2, 340308, Note_on_c, 0, 69, 0
2, 340409, Note_on_c, 0, 69, 58
2, 340530, Note_on_c, 0, 48, 0
2, 340605, Note_on_c, 0, 69, 0
2, 340866, Note_on_c, 0, 69, 50
2, 340869, Note_on_c, 0, 58, 36
2, 340889, Note_on_c, 0, 48, 28
2, 341256, Note_on_c, 0, 69, 0
2, 341268, Note_on_c, 0, 58, 0
2, 341436, Note_on_c, 0, 48, 0
2, 342235, Note_on_c, 0, 58, 57
2, 342244, Note_on_c, 0, 62, 49
2, 342257, Note_on_c, 0, 57, 47
2, 342757, Control_c, 0, 64, 127
2, 343000, Note_on_c, 0, 80, 61
2, 343034, Note_on_c, 0, 68, 75
2, 343080, Note_on_c, 0, 62, 0
2, 343127, Control_c, 0, 64, 0
2, 343148, Note_on_c, 0, 58, 0
2, 343209, Note_on_c, 0, 57, 0
2, 343218, Note_on_c, 0, 80, 0
2, 343221, Note_on_c, 0, 68, 0
2, 343231, Note_on_c, 0, 69, 65
2, 343404, Note_on_c, 0, 69, 0
2, 343417, Note_on_c, 0, 81, 37
2, 343543, Note_on_c, 0, 69, 35
2, 343545, Note_on_c, 0, 81, 0
2, 343707, Note_on_c, 0, 69, 0
2, 343716, Note_on_c, 0, 81, 42
2, 343842, Note_on_c, 0, 69, 25
2, 343855, Note_on_c, 0, 81, 0
2, 344017, Note_on_c, 0, 69, 0
2, 344046, Note_on_c, 0, 81, 41
2, 344234, Note_on_c, 0, 69, 26
2, 344351, Note_on_c, 0, 81, 0
2, 344393, Note_on_c, 0, 69, 0
2, 344613, Note_on_c, 0, 62, 57
2, 344631, Note_on_c, 0, 84, 71
2, 344633, Note_on_c, 0, 58, 44
2, 344643, Note_on_c, 0, 57, 35
2, 344643, Note_on_c, 0, 72, 52
2, 344678, Note_on_c, 0, 62, 0
2, 344708, Note_on_c, 0, 57, 0
2, 344727, Note_on_c, 0, 84, 0
2, 344730, Note_on_c, 0, 58, 0
2, 344752, Note_on_c, 0, 72, 0
2, 345399, Note_on_c, 0, 69, 75
2, 345401, Note_on_c, 0, 81, 62
2, 345406, Note_on_c, 0, 74, 61
2, 345419, Note_on_c, 0, 62, 61
2, 345426, Note_on_c, 0, 77, 34
2, 345441, Note_on_c, 0, 58, 37
2, 345442, Note_on_c, 0, 57, 44
2, 345459, Note_on_c, 0, 74, 0
2, 345468, Note_on_c, 0, 62, 0
2, 345485, Note_on_c, 0, 69, 0
2, 345488, Note_on_c, 0, 77, 0
2, 345500, Note_on_c, 0, 57, 0
2, 345515, Note_on_c, 0, 81, 0
2, 345516, Note_on_c, 0, 58, 0
2, 345878, Note_on_c, 0, 81, 67
2, 345885, Note_on_c, 0, 69, 68
2, 345890, Note_on_c, 0, 62, 55
2, 345895, Note_on_c, 0, 58, 52
2, 345905, Note_on_c, 0, 74, 48
2, 345910, Note_on_c, 0, 57, 46
2, 345966, Note_on_c, 0, 57, 0
2, 345975, Note_on_c, 0, 62, 0
2, 345992, Note_on_c, 0, 74, 0
2, 346004, Note_on_c, 0, 81, 0
2, 346005, Note_on_c, 0, 69, 0
2, 346031, Note_on_c, 0, 58, 0
2, 346039, Control_c, 0, 64, 127
2, 346326, Note_on_c, 0, 77, 53
2, 346345, Note_on_c, 0, 65, 52
2, 346400, Note_on_c, 0, 65, 0
2, 346402, Note_on_c, 0, 58, 33
2, 346403, Note_on_c, 0, 57, 35
2, 346405, Note_on_c, 0, 77, 0
2, 346466, Control_c, 0, 64, 0
2, 346467, Note_on_c, 0, 57, 0
2, 346548, Note_on_c, 0, 62, 49
2, 346573, Note_on_c, 0, 57, 45
2, 346580, Note_on_c, 0, 81, 65
2, 346608, Note_on_c, 0, 69, 35
2, 346800, Note_on_c, 0, 81, 0
2, 346810, Control_c, 0, 64, 127
2, 346853, Note_on_c, 0, 69, 0
2, 346876, Note_on_c, 0, 62, 0
2, 346880, Note_on_c, 0, 58, 0
2, 346935, Note_on_c, 0, 57, 0
2, 347039, Note_on_c, 0, 77, 54
2, 347044, Note_on_c, 0, 62, 38
2, 347053, Control_c, 0, 64, 0
2, 347054, Note_on_c, 0, 57, 37
2, 347067, Note_on_c, 0, 58, 44
2, 347069, Note_on_c, 0, 65, 44
2, 347131, Note_on_c, 0, 65, 0
2, 347133, Note_on_c, 0, 57, 0
2, 347138, Note_on_c, 0, 62, 0
2, 347146, Note_on_c, 0, 58, 0
2, 347170, Note_on_c, 0, 77, 0
2, 347505, Note_on_c, 0, 77, 70
2, 347518, Note_on_c, 0, 65, 72
2, 347524, Note_on_c, 0, 62, 49
2, 347531, Note_on_c, 0, 57, 47
2, 347532, Note_on_c, 0, 58, 54
2, 347868, Note_on_c, 0, 65, 0
2, 347874, Note_on_c, 0, 77, 0
2, 348015, Note_on_c, 0, 74, 55
2, 348154, Note_on_c, 0, 74, 0
2, 348187, Note_on_c, 0, 62, 0
2, 348194, Note_on_c, 0, 58, 0
2, 348359, Note_on_c, 0, 58, 35
2, 348372, Note_on_c, 0, 70, 33
2, 348431, Note_on_c, 0, 70, 0
2, 348505, Note_on_c, 0, 74, 59
2, 348546, Note_on_c, 0, 62, 41
2, 348660, Note_on_c, 0, 58, 0
2, 348729, Note_on_c, 0, 62, 0
2, 348775, Note_on_c, 0, 74, 0
2, 348966, Control_c, 0, 64, 127
2, 348980, Note_on_c, 0, 70, 38
2, 349004, Note_on_c, 0, 62, 25
2, 349145, Note_on_c, 0, 57, 0
2, 349146, Note_on_c, 0, 62, 0
2, 349232, Note_on_c, 0, 70, 0
2, 349280, Note_on_c, 0, 65, 32
2, 349358, Note_on_c, 0, 65, 0
2, 349380, Control_c, 0, 64, 0
2, 349440, Note_on_c, 0, 53, 67
2, 349440, Note_on_c, 0, 57, 66
2, 349440, Note_on_c, 0, 60, 69
2, 349440, Note_on_c, 0, 64, 85
2, 349440, Note_on_c, 0, 88, 79
2, 349440, Note_on_c, 0, 91, 84
2, 349441, Note_on_c, 0, 84, 76
2, 349697, Control_c, 0, 64, 127
2, 349970, Note_on_c, 0, 53, 0
2, 350005, Note_on_c, 0, 91, 0
2, 350009, Note_on_c, 0, 64, 0
2, 350013, Note_on_c, 0, 57, 0
2, 350017, Note_on_c, 0, 84, 0
2, 350026, Note_on_c, 0, 88, 0
2, 350029, Note_on_c, 0, 60, 0
2, 350095, Note_on_c, 0, 64, 67
2, 350107, Note_on_c, 0, 60, 38
2, 350109, Note_on_c, 0, 89, 58
2, 350112, Note_on_c, 0, 57, 59
2, 350114, Note_on_c, 0, 77, 43
2, 350122, Note_on_c, 0, 84, 59
2, 350132, Note_on_c, 0, 53, 32
2, 350167, Control_c, 0, 64, 0
2, 350220, Note_on_c, 0, 77, 0
2, 350235, Note_on_c, 0, 84, 0
2, 350261, Note_on_c, 0, 89, 0
2, 350263, Note_on_c, 0, 64, 0
2, 350297, Note_on_c, 0, 53, 0
2, 350311, Note_on_c, 0, 57, 0
2, 350315, Note_on_c, 0, 60, 0
2, 350816, Note_on_c, 0, 89, 67
2, 350834, Note_on_c, 0, 60, 46
2, 350835, Note_on_c, 0, 64, 68
2, 350840, Note_on_c, 0, 53, 49
2, 350843, Note_on_c, 0, 77, 53
2, 350844, Note_on_c, 0, 57, 61
2, 350850, Note_on_c, 0, 84, 54
2, 351238, Control_c, 0, 64, 127
2, 352034, Note_on_c, 0, 64, 0
2, 352099, Note_on_c, 0, 60, 0
2, 352164, Note_on_c, 0, 89, 0
2, 352234, Note_on_c, 0, 84, 0
2, 352340, Note_on_c, 0, 77, 0
2, 352426, Note_on_c, 0, 57, 0
2, 352430, Note_on_c, 0, 53, 0
2, 352777, Note_on_c, 0, 64, 48
2, 352832, Note_on_c, 0, 57, 27
2, 352841, Note_on_c, 0, 53, 20
2, 352850, Note_on_c, 0, 64, 0
2, 352932, Note_on_c, 0, 57, 0
2, 352976, Note_on_c, 0, 53, 0
2, 353296, Note_on_c, 0, 62, 52
2, 353298, Note_on_c, 0, 69, 45
2, 353299, Note_on_c, 0, 59, 31
2, 353302, Note_on_c, 0, 66, 38
2, 353312, Control_c, 0, 64, 0
2, 353313, Note_on_c, 0, 52, 23
2, 353320, Note_on_c, 0, 55, 35
2, 353608, Control_c, 0, 64, 127
2, 353695, Note_on_c, 0, 62, 0
2, 353741, Note_on_c, 0, 69, 0
2, 353752, Note_on_c, 0, 59, 0
2, 353762, Note_on_c, 0, 66, 0
2, 354010, Note_on_c, 0, 55, 0
2, 354208, Note_on_c, 0, 71, 65
2, 354235, Note_on_c, 0, 59, 50
2, 354239, Note_on_c, 0, 67, 58
2, 354240, Note_on_c, 0, 62, 59
2, 354246, Note_on_c, 0, 66, 50
2, 354294, Control_c, 0, 64, 0
2, 354360, Note_on_c, 0, 52, 0
2, 354507, Control_c, 0, 64, 127
2, 354535, Note_on_c, 0, 62, 0
2, 354577, Note_on_c, 0, 67, 0
2, 354606, Note_on_c, 0, 66, 0
2, 354609, Note_on_c, 0, 59, 0
2, 354636, Note_on_c, 0, 71, 0
2, 355021, Control_c, 0, 64, 0
2, 355041, Note_on_c, 0, 73, 54
2, 355054, Note_on_c, 0, 69, 63
2, 355058, Note_on_c, 0, 64, 65
2, 355061, Note_on_c, 0, 57, 61
2, 355237, Control_c, 0, 64, 127
2, 355614, Note_on_c, 0, 69, 0
2, 355632, Note_on_c, 0, 64, 0
2, 355668, Note_on_c, 0, 73, 0
2, 355687, Note_on_c, 0, 57, 0
2, 355707, Control_c, 0, 64, 0
2, 355708, Note_on_c, 0, 74, 72
2, 355724, Note_on_c, 0, 59, 46
2, 355729, Note_on_c, 0, 69, 28
2, 355799, Note_on_c, 0, 69, 0
2, 355834, Note_on_c, 0, 74, 0
2, 356038, Note_on_c, 0, 59, 0
2, 356183, Note_on_c, 0, 61, 45
2, 356185, Note_on_c, 0, 76, 52
2, 356220, Note_on_c, 0, 70, 35
2, 356265, Note_on_c, 0, 76, 0
2, 356278, Note_on_c, 0, 70, 0
2, 356314, Note_on_c, 0, 61, 0
2, 357147, Note_on_c, 0, 76, 47
2, 357153, Note_on_c, 0, 65, 41
2, 357169, Note_on_c, 0, 72, 48
2, 357171, Note_on_c, 0, 64, 57
2, 357176, Note_on_c, 0, 69, 50
2, 357700, Note_on_c, 0, 65, 0
2, 357721, Note_on_c, 0, 69, 0
2, 357744, Note_on_c, 0, 64, 0
2, 357760, Note_on_c, 0, 72, 0
2, 357817, Note_on_c, 0, 76, 0
2, 357862, Note_on_c, 0, 65, 49
2, 357888, Note_on_c, 0, 69, 36
2, 357892, Note_on_c, 0, 74, 49
2, 357894, Note_on_c, 0, 62, 51
2, 357898, Note_on_c, 0, 72, 28
2, 358305, Note_on_c, 0, 65, 0
2, 358319, Note_on_c, 0, 69, 0
2, 358347, Note_on_c, 0, 74, 0
2, 358368, Note_on_c, 0, 72, 0
2, 358401, Note_on_c, 0, 62, 0
2, 358595, Note_on_c, 0, 62, 39
2, 358602, Note_on_c, 0, 74, 42
2, 358608, Note_on_c, 0, 65, 36
2, 358643, Note_on_c, 0, 69, 32
2, 358713, Note_on_c, 0, 69, 0
2, 358737, Note_on_c, 0, 65, 0
2, 358775, Note_on_c, 0, 74, 0
2, 358787, Note_on_c, 0, 62, 0
2, 358875, Note_on_c, 0, 61, 29
2, 358996, Note_on_c, 0, 61, 0
2, 359054, Note_on_c, 0, 74, 53
2, 359062, Note_on_c, 0, 65, 42
2, 359085, Note_on_c, 0, 69, 41
2, 359340, Note_on_c, 0, 69, 0
2, 359353, Note_on_c, 0, 74, 0
2, 359366, Note_on_c, 0, 65, 0
2, 359538, Note_on_c, 0, 65, 45
2, 359540, Note_on_c, 0, 74, 51
2, 359563, Note_on_c, 0, 69, 47
2, 359566, Note_on_c, 0, 60, 60
2, 359943, Control_c, 0, 64, 127
2, 360113, Note_on_c, 0, 65, 0
2, 360129, Note_on_c, 0, 60, 0
2, 360130, Note_on_c, 0, 69, 0
2, 360162, Note_on_c, 0, 74, 0
2, 360308, Note_on_c, 0, 74, 43
2, 360311, Note_on_c, 0, 60, 44
2, 360313, Note_on_c, 0, 69, 54
2, 360316, Note_on_c, 0, 65, 43
2, 360457, Note_on_c, 0, 60, 0
2, 360504, Note_on_c, 0, 74, 0
2, 360512, Note_on_c, 0, 69, 0
2, 360534, Note_on_c, 0, 65, 0
2, 360690, Control_c, 0, 64, 0
2, 360904, Note_on_c, 0, 74, 44
2, 360908, Note_on_c, 0, 69, 48
2, 360930, Note_on_c, 0, 62, 40
2, 360941, Note_on_c, 0, 46, 38
2, 360950, Note_on_c, 0, 57, 34
2, 360975, Note_on_c, 0, 53, 30
2, 361174, Note_on_c, 0, 62, 0
2, 361274, Control_c, 0, 64, 127
2, 361282, Note_on_c, 0, 53, 0
2, 361305, Note_on_c, 0, 46, 0
2, 361366, Note_on_c, 0, 69, 0
2, 361412, Note_on_c, 0, 74, 0
2, 361422, Note_on_c, 0, 57, 0
2, 361941, Note_on_c, 0, 74, 104
2, 361986, Control_c, 0, 64, 0
2, 362117, Note_on_c, 0, 74, 0
2, 362206, Note_on_c, 0, 74, 73
2, 362342, Note_on_c, 0, 74, 0
2, 362424, Note_on_c, 0, 74, 63
2, 362554, Note_on_c, 0, 74, 0
2, 362648, Note_on_c, 0, 74, 72
2, 362778, Note_on_c, 0, 74, 0
2, 362870, Note_on_c, 0, 74, 72
2, 362888, Note_on_c, 0, 62, 34
2, 362899, Note_on_c, 0, 58, 35
2, 362915, Note_on_c, 0, 52, 29
2, 363104, Note_on_c, 0, 74, 0
2, 363334, Note_on_c, 0, 72, 54
2, 363434, Note_on_c, 0, 62, 0
2, 363454, Note_on_c, 0, 58, 0
2, 363470, Note_on_c, 0, 72, 0
2, 363596, Note_on_c, 0, 72, 52
2, 363716, Note_on_c, 0, 72, 0
2, 363801, Note_on_c, 0, 72, 49
2, 363848, Note_on_c, 0, 58, 27
2, 363956, Note_on_c, 0, 72, 0
2, 364082, Note_on_c, 0, 70, 61
2, 364135, Note_on_c, 0, 62, 33
2, 364239, Note_on_c, 0, 70, 0
2, 364250, Note_on_c, 0, 52, 0
2, 364323, Note_on_c, 0, 69, 37
2, 364361, Note_on_c, 0, 58, 0
2, 364437, Note_on_c, 0, 62, 0
2, 364563, Note_on_c, 0, 69, 0
2, 364617, Note_on_c, 0, 67, 36
2, 364688, Note_on_c, 0, 67, 0
2, 364772, Note_on_c, 0, 62, 25
2, 364784, Note_on_c, 0, 57, 37
2, 364788, Note_on_c, 0, 60, 35
2, 364809, Note_on_c, 0, 53, 23
2, 364825, Note_on_c, 0, 70, 49
2, 365087, Note_on_c, 0, 70, 0
2, 365205, Note_on_c, 0, 62, 0
2, 365308, Note_on_c, 0, 69, 54
2, 365351, Note_on_c, 0, 60, 0
2, 365505, Note_on_c, 0, 69, 0
2, 365766, Note_on_c, 0, 69, 59
2, 365886, Note_on_c, 0, 57, 0
2, 365933, Note_on_c, 0, 53, 0
2, 366129, Note_on_c, 0, 69, 0
2, 366573, Note_on_c, 0, 69, 67
2, 366685, Control_c, 0, 64, 127
2, 367123, Note_on_c, 0, 57, 35
2, 367133, Note_on_c, 0, 60, 23
2, 367184, Note_on_c, 0, 60, 0
2, 367200, Note_on_c, 0, 69, 0
2, 367206, Note_on_c, 0, 57, 0
2, 367870, Control_c, 0, 64, 0
2, 368400, Note_on_c, 0, 67, 66
2, 368488, Note_on_c, 0, 61, 52
2, 368491, Note_on_c, 0, 58, 50
2, 368584, Note_on_c, 0, 58, 0
2, 368639, Note_on_c, 0, 61, 0
2, 368640, Note_on_c, 0, 67, 0
2, 368674, Note_on_c, 0, 50, 43
2, 368699, Note_on_c, 0, 65, 68
2, 368700, Note_on_c, 0, 57, 54
2, 368758, Note_on_c, 0, 60, 32
2, 369127, Control_c, 0, 64, 127
2, 369518, Note_on_c, 0, 57, 0
2, 369588, Note_on_c, 0, 50, 0
2, 369618, Note_on_c, 0, 60, 0
2, 369650, Note_on_c, 0, 65, 0
2, 370095, Note_on_c, 0, 69, 58
2, 370108, Note_on_c, 0, 57, 55
2, 370109, Note_on_c, 0, 60, 49
2, 370132, Note_on_c, 0, 65, 45
2, 370168, Control_c, 0, 64, 0
2, 370169, Note_on_c, 0, 57, 0
2, 370171, Note_on_c, 0, 60, 0
2, 370196, Note_on_c, 0, 65, 0
2, 370226, Note_on_c, 0, 69, 0
2, 370597, Note_on_c, 0, 64, 41
2, 370599, Note_on_c, 0, 59, 39
2, 370603, Note_on_c, 0, 67, 50
2, 370607, Note_on_c, 0, 43, 27
2, 370613, Note_on_c, 0, 53, 35
2, 371037, Control_c, 0, 64, 127
2, 371078, Control_c, 0, 64, 127
2, 371172, Note_on_c, 0, 64, 0
2, 371658, Note_on_c, 0, 53, 0
2, 371664, Note_on_c, 0, 59, 0
2, 371796, Note_on_c, 0, 50, 45
2, 371863, Note_on_c, 0, 50, 0
2, 371993, Control_c, 0, 64, 0
2, 371994, Control_c, 0, 64, 0
2, 372017, Note_on_c, 0, 62, 41
2, 372041, Note_on_c, 0, 59, 23
2, 372123, Note_on_c, 0, 59, 0
2, 372166, Note_on_c, 0, 67, 0
2, 372260, Note_on_c, 0, 62, 0
2, 372321, Note_on_c, 0, 43, 0
2, 372463, Note_on_c, 0, 47, 39
2, 372468, Note_on_c, 0, 48, 42
2, 372483, Note_on_c, 0, 58, 28
2, 372487, Note_on_c, 0, 62, 33
2, 372510, Note_on_c, 0, 65, 45
2, 372529, Note_on_c, 0, 47, 0
2, 372711, Note_on_c, 0, 62, 0
2, 372732, Note_on_c, 0, 58, 0
2, 372763, Note_on_c, 0, 65, 0
2, 372983, Note_on_c, 0, 69, 36
2, 372993, Note_on_c, 0, 62, 43
2, 373161, Note_on_c, 0, 62, 0
2, 373170, Note_on_c, 0, 69, 0
2, 373463, Note_on_c, 0, 69, 38
2, 373464, Note_on_c, 0, 58, 49
2, 373477, Note_on_c, 0, 62, 49
2, 373507, Note_on_c, 0, 65, 44
2, 373528, Note_on_c, 0, 62, 0
2, 373538, Note_on_c, 0, 69, 0
2, 373571, Note_on_c, 0, 65, 0
2, 373598, Note_on_c, 0, 58, 0
2, 373934, Note_on_c, 0, 58, 36
2, 373942, Note_on_c, 0, 57, 47
2, 373949, Note_on_c, 0, 62, 43
2, 374039, Note_on_c, 0, 57, 0
2, 374076, Note_on_c, 0, 58, 0
2, 374101, Note_on_c, 0, 62, 0
2, 374353, Note_on_c, 0, 43, 20
2, 374451, Note_on_c, 0, 62, 51
2, 374460, Note_on_c, 0, 58, 47
2, 374461, Note_on_c, 0, 57, 56
2, 374576, Note_on_c, 0, 43, 0
2, 374740, Note_on_c, 0, 43, 21
2, 374809, Note_on_c, 0, 62, 0
2, 374821, Note_on_c, 0, 57, 0
2, 374899, Note_on_c, 0, 65, 49
2, 374983, Note_on_c, 0, 65, 0
2, 375002, Note_on_c, 0, 43, 0
2, 375017, Note_on_c, 0, 58, 0
2, 375182, Note_on_c, 0, 43, 18
2, 375390, Note_on_c, 0, 65, 59
2, 375391, Note_on_c, 0, 43, 0
2, 375403, Note_on_c, 0, 58, 38
2, 375427, Note_on_c, 0, 62, 44
2, 375602, Note_on_c, 0, 62, 0
2, 375681, Note_on_c, 0, 58, 0
2, 375687, Note_on_c, 0, 65, 0
2, 375836, Note_on_c, 0, 58, 35
2, 375840, Note_on_c, 0, 36, 39
2, 375842, Note_on_c, 0, 62, 45
2, 375883, Note_on_c, 0, 53, 23
2, 375971, Note_on_c, 0, 62, 0
2, 376010, Note_on_c, 0, 36, 0
2, 376020, Note_on_c, 0, 58, 0
2, 376040, Note_on_c, 0, 53, 0
2, 376318, Note_on_c, 0, 62, 58
2, 376333, Note_on_c, 0, 58, 54
2, 376338, Note_on_c, 0, 53, 41
2, 376340, Note_on_c, 0, 36, 50
2, 376621, Note_on_c, 0, 53, 0
2, 376645, Note_on_c, 0, 58, 0
2, 376722, Note_on_c, 0, 48, 0
2, 376794, Note_on_c, 0, 62, 0
2, 376833, Control_c, 0, 64, 127
2, 376859, Note_on_c, 0, 58, 31
2, 376931, Control_c, 0, 64, 0
2, 377035, Note_on_c, 0, 58, 0
2, 377059, Control_c, 0, 64, 127
2, 377304, Note_on_c, 0, 58, 73
2, 377320, Note_on_c, 0, 48, 49
2, 377321, Note_on_c, 0, 53, 54
2, 377345, Control_c, 0, 64, 0
2, 377566, Note_on_c, 0, 53, 0
2, 377686, Note_on_c, 0, 58, 0
2, 377760, Control_c, 0, 64, 127
2, 377951, Note_on_c, 0, 36, 0
2, 378231, Note_on_c, 0, 36, 63
2, 378273, Control_c, 0, 64, 0
2, 378651, Note_on_c, 0, 48, 0
2, 378660, Control_c, 0, 64, 127
2, 378992, Note_on_c, 0, 48, 75
2, 379272, Control_c, 0, 64, 0
2, 379289, Note_on_c, 0, 36, 0
2, 379343, Control_c, 0, 64, 127
2, 379377, Note_on_c, 0, 48, 0
2, 379631, Control_c, 0, 64, 0
2, 380601, Note_on_c, 0, 58, 41
2, 380604, Note_on_c, 0, 62, 31
2, 380605, Note_on_c, 0, 57, 36
2, 382041, Note_on_c, 0, 81, 51
2, 382145, Note_on_c, 0, 81, 0
2, 382320, Note_on_c, 0, 82, 47
2, 382420, Note_on_c, 0, 82, 0
2, 382892, Note_on_c, 0, 86, 80
2, 382995, Note_on_c, 0, 86, 0
2, 383347, Note_on_c, 0, 86, 81
2, 383483, Note_on_c, 0, 86, 0
2, 383780, Note_on_c, 0, 84, 65
2, 383920, Note_on_c, 0, 84, 0
2, 384042, Note_on_c, 0, 82, 49
2, 384221, Note_on_c, 0, 82, 0
2, 384469, Note_on_c, 0, 81, 45
2, 384718, Note_on_c, 0, 81, 0
2, 385183, Note_on_c, 0, 77, 40
2, 385393, Note_on_c, 0, 77, 0
2, 385406, Note_on_c, 0, 62, 0
2, 385443, Control_c, 0, 64, 127
2, 385483, Note_on_c, 0, 58, 0
2, 385495, Note_on_c, 0, 57, 0
2, 385924, Note_on_c, 0, 62, 21
2, 385952, Note_on_c, 0, 58, 28
2, 385963, Note_on_c, 0, 57, 14
2, 386013, Control_c, 0, 64, 0
2, 386027, Note_on_c, 0, 79, 6
2, 386228, Control_c, 0, 64, 127
2, 386458, Note_on_c, 0, 62, 0
2, 386488, Note_on_c, 0, 58, 0
2, 386553, Note_on_c, 0, 57, 0
2, 386596, Note_on_c, 0, 79, 0
2, 386674, Note_on_c, 0, 74, 14
2, 386825, Note_on_c, 0, 74, 0
2, 386973, Note_on_c, 0, 77, 48
2, 386982, Note_on_c, 0, 57, 27
2, 386990, Note_on_c, 0, 62, 26
2, 387057, Note_on_c, 0, 58, 29
2, 387097, Control_c, 0, 64, 0
2, 387297, Control_c, 0, 64, 127
2, 387395, Note_on_c, 0, 77, 0
2, 387413, Note_on_c, 0, 74, 32
2, 387499, Note_on_c, 0, 62, 0
2, 387526, Note_on_c, 0, 58, 0
2, 387561, Note_on_c, 0, 57, 0
2, 387658, Note_on_c, 0, 74, 0
2, 387713, Control_c, 0, 64, 0
2, 387732, Note_on_c, 0, 76, 33
2, 387789, Note_on_c, 0, 62, 18
2, 387824, Note_on_c, 0, 58, 19
2, 387932, Note_on_c, 0, 62, 0
2, 387948, Note_on_c, 0, 58, 0
2, 388196, Note_on_c, 0, 72, 25
2, 388270, Note_on_c, 0, 76, 0
2, 388325, Note_on_c, 0, 72, 0
2, 388392, Note_on_c, 0, 74, 32
2, 388432, Note_on_c, 0, 58, 22
2, 388436, Note_on_c, 0, 62, 11
2, 388455, Control_c, 0, 64, 127
2, 388463, Note_on_c, 0, 57, 19
2, 388823, Note_on_c, 0, 62, 0
2, 388832, Note_on_c, 0, 70, 27
2, 388835, Note_on_c, 0, 58, 0
2, 388856, Note_on_c, 0, 57, 0
2, 389005, Note_on_c, 0, 74, 0
2, 389091, Note_on_c, 0, 70, 0
2, 389123, Control_c, 0, 64, 0
2, 389210, Note_on_c, 0, 62, 16
2, 389216, Note_on_c, 0, 72, 30
2, 389236, Note_on_c, 0, 58, 18
2, 389330, Note_on_c, 0, 58, 0
2, 389338, Note_on_c, 0, 62, 0
2, 389371, Note_on_c, 0, 72, 0
2, 389598, Note_on_c, 0, 69, 21
2, 389762, Note_on_c, 0, 69, 0
2, 389850, Note_on_c, 0, 62, 15
2, 389880, Note_on_c, 0, 58, 20
2, 389887, Note_on_c, 0, 70, 13
2, 389908, Note_on_c, 0, 57, 14
2, 389968, Control_c, 0, 64, 127
2, 390248, Note_on_c, 0, 62, 0
2, 390260, Note_on_c, 0, 58, 0
2, 390270, Note_on_c, 0, 67, 19
2, 390272, Note_on_c, 0, 70, 0
2, 390314, Note_on_c, 0, 57, 0
2, 390471, Note_on_c, 0, 67, 0
2, 390496, Control_c, 0, 64, 0
2, 390543, Note_on_c, 0, 69, 25
2, 390595, Note_on_c, 0, 62, 11
2, 390706, Note_on_c, 0, 62, 0
2, 390709, Note_on_c, 0, 69, 0
2, 390911, Control_c, 0, 64, 127
2, 391053, Note_on_c, 0, 65, 11
2, 391066, Control_c, 0, 64, 0
2, 391209, Note_on_c, 0, 65, 0
2, 391225, Note_on_c, 0, 62, 13
2, 391235, Note_on_c, 0, 67, 25
2, 391242, Note_on_c, 0, 58, 16
2, 391262, Note_on_c, 0, 57, 12
2, 391295, Control_c, 0, 64, 127
2, 391592, Note_on_c, 0, 62, 0
2, 391601, Note_on_c, 0, 67, 0
2, 391685, Note_on_c, 0, 64, 21
2, 391803, Note_on_c, 0, 64, 0
2, 391838, Note_on_c, 0, 58, 0
2, 392023, Control_c, 0, 64, 0
2, 392036, Note_on_c, 0, 65, 14
2, 392194, Note_on_c, 0, 65, 0
2, 392214, Note_on_c, 0, 57, 0
2, 392423, Note_on_c, 0, 62, 11
2, 392532, Note_on_c, 0, 62, 0
2, 392622, Note_on_c, 0, 58, 14
2, 392629, Note_on_c, 0, 64, 20
2, 392653, Note_on_c, 0, 57, 10
2, 392708, Control_c, 0, 64, 127
2, 393425, Note_on_c, 0, 58, 0
2, 393454, Note_on_c, 0, 57, 0
2, 393818, Note_on_c, 0, 64, 0
2, 393898, Note_on_c, 0, 64, 7
2, 394376, Note_on_c, 0, 64, 0
2, 397411, Note_on_c, 0, 65, 8
2, 397471, Note_on_c, 0, 62, 8
2, 397511, Note_on_c, 0, 58, 6
2, 397570, Note_on_c, 0, 57, 7
2, 397573, Control_c, 0, 64, 0
2, 398103, Control_c, 0, 64, 127
2, 398317, Control_c, 0, 64, 0
2, 398730, Control_c, 0, 64, 127
2, 398929, Control_c, 0, 64, 0
2, 399101, Note_on_c, 0, 43, 2
2, 400100, Control_c, 0, 64, 127
2, 400605, Note_on_c, 0, 43, 0
2, 402142, Note_on_c, 0, 57, 0
2, 402176, Note_on_c, 0, 58, 0
2, 402183, Note_on_c, 0, 62, 0
2, 402215, Note_on_c, 0, 65, 0
2, 404498, Control_c, 0, 64, 0
2, 404498, End_track
3, 0, Start_track
3, 0, Title_t, "Bass"
3, 0, Control_c, 1, 0, 0
3, 0, Control_c, 1, 7, 95
3, 1, Program_c, 1, 32
3, 5, Note_on_c, 1, 29, 55
3, 1445, Note_on_c, 1, 36, 49
3, 1500, Note_on_c, 1, 36, 0
3, 1720, Pitch_bend_c, 1, 8192
3, 1725, Pitch_bend_c, 1, 8192
3, 1744, Pitch_bend_c, 1, 7680
3, 1755, Pitch_bend_c, 1, 7296
3, 1765, Pitch_bend_c, 1, 6912
3, 1775, Pitch_bend_c, 1, 6528
3, 1785, Pitch_bend_c, 1, 5888
3, 1795, Pitch_bend_c, 1, 5504
3, 1805, Pitch_bend_c, 1, 4864
3, 1817, Pitch_bend_c, 1, 4480
3, 1826, Pitch_bend_c, 1, 3968
3, 1836, Pitch_bend_c, 1, 3584
3, 1846, Pitch_bend_c, 1, 3328
3, 1856, Pitch_bend_c, 1, 2944
3, 1866, Pitch_bend_c, 1, 2688
3, 1876, Pitch_bend_c, 1, 2560
3, 1888, Pitch_bend_c, 1, 2304
3, 1898, Pitch_bend_c, 1, 1920
3, 1908, Pitch_bend_c, 1, 1536
3, 1918, Pitch_bend_c, 1, 1024
3, 1928, Pitch_bend_c, 1, 640
3, 1938, Pitch_bend_c, 1, 512
3, 1940, Note_on_c, 1, 43, 82
3, 1949, Pitch_bend_c, 1, 384
3, 1959, Pitch_bend_c, 1, 256
3, 2003, Pitch_bend_c, 1, 512
3, 2014, Pitch_bend_c, 1, 640
3, 2024, Pitch_bend_c, 1, 896
3, 2033, Pitch_bend_c, 1, 1280
3, 2044, Pitch_bend_c, 1, 1920
3, 2054, Pitch_bend_c, 1, 2816
3, 2064, Pitch_bend_c, 1, 3968
3, 2074, Pitch_bend_c, 1, 5120
3, 2086, Pitch_bend_c, 1, 6528
3, 2093, Pitch_bend_c, 1, 7040
3, 2104, Pitch_bend_c, 1, 7424
3, 2116, Pitch_bend_c, 1, 7552
3, 2126, Pitch_bend_c, 1, 7680
3, 2155, Pitch_bend_c, 1, 8192
3, 2207, Pitch_bend_c, 1, 8192
3, 2231, Pitch_bend_c, 1, 8192
3, 2247, Pitch_bend_c, 1, 8192
3, 2578, Note_on_c, 1, 41, 74
3, 2595, Note_on_c, 1, 43, 0
3, 3364, Note_on_c, 1, 36, 54
3, 3444, Note_on_c, 1, 29, 0
3, 3639, Note_on_c, 1, 36, 0
3, 3822, Note_on_c, 1, 28, 50
3, 3844, Note_on_c, 1, 29, 40
3, 3847, Note_on_c, 1, 41, 0
3, 4076, Note_on_c, 1, 29, 0
3, 5277, Note_on_c, 1, 35, 74
3, 5297, Note_on_c, 1, 28, 0
3, 5614, Pitch_bend_c, 1, 8192
3, 5624, Pitch_bend_c, 1, 7680
3, 5636, Pitch_bend_c, 1, 7168
3, 5646, Pitch_bend_c, 1, 6656
3, 5656, Pitch_bend_c, 1, 6016
3, 5666, Pitch_bend_c, 1, 5632
3, 5676, Pitch_bend_c, 1, 5120
3, 5686, Pitch_bend_c, 1, 4736
3, 5697, Pitch_bend_c, 1, 4224
3, 5707, Pitch_bend_c, 1, 3712
3, 5715, Pitch_bend_c, 1, 3200
3, 5718, Note_on_c, 1, 35, 0
3, 5727, Pitch_bend_c, 1, 2688
3, 5737, Pitch_bend_c, 1, 2176
3, 5747, Pitch_bend_c, 1, 1792
3, 5758, Pitch_bend_c, 1, 1280
3, 5768, Pitch_bend_c, 1, 1024
3, 5777, Pitch_bend_c, 1, 768
3, 5777, Note_on_c, 1, 33, 66
3, 5788, Pitch_bend_c, 1, 512
3, 5824, Pitch_bend_c, 1, 896
3, 5831, Pitch_bend_c, 1, 1280
3, 5842, Pitch_bend_c, 1, 1920
3, 5854, Pitch_bend_c, 1, 2688
3, 5864, Pitch_bend_c, 1, 3968
3, 5874, Pitch_bend_c, 1, 5632
3, 5885, Pitch_bend_c, 1, 7424
3, 5893, Pitch_bend_c, 1, 8192
3, 7213, Note_on_c, 1, 33, 0
3, 7215, Note_on_c, 1, 40, 68
3, 7384, Note_on_c, 1, 40, 0
3, 7683, Note_on_c, 1, 38, 75
3, 9113, Note_on_c, 1, 45, 70
3, 9127, Note_on_c, 1, 38, 0
3, 9258, Note_on_c, 1, 45, 0
3, 9498, Pitch_bend_c, 1, 8192
3, 9506, Pitch_bend_c, 1, 7680
3, 9516, Pitch_bend_c, 1, 6912
3, 9526, Pitch_bend_c, 1, 6016
3, 9537, Pitch_bend_c, 1, 5120
3, 9547, Pitch_bend_c, 1, 4352
3, 9557, Pitch_bend_c, 1, 3712
3, 9567, Pitch_bend_c, 1, 2944
3, 9577, Pitch_bend_c, 1, 2304
3, 9587, Pitch_bend_c, 1, 1792
3, 9599, Pitch_bend_c, 1, 1280
3, 9604, Note_on_c, 1, 52, 96
3, 9609, Pitch_bend_c, 1, 896
3, 9619, Pitch_bend_c, 1, 768
3, 9629, Pitch_bend_c, 1, 512
3, 9649, Pitch_bend_c, 1, 384
3, 9680, Pitch_bend_c, 1, 640
3, 9688, Pitch_bend_c, 1, 1024
3, 9698, Pitch_bend_c, 1, 1664
3, 9710, Pitch_bend_c, 1, 2432
3, 9720, Pitch_bend_c, 1, 3712
3, 9730, Pitch_bend_c, 1, 5376
3, 9741, Pitch_bend_c, 1, 7040
3, 9750, Pitch_bend_c, 1, 8192
3, 10268, Note_on_c, 1, 52, 0
3, 10277, Note_on_c, 1, 50, 79
3, 11038, Note_on_c, 1, 45, 57
3, 11221, Note_on_c, 1, 45, 0
3, 11474, Note_on_c, 1, 50, 0
3, 11493, Note_on_c, 1, 34, 68
3, 12948, Note_on_c, 1, 34, 0
3, 12948, Note_on_c, 1, 41, 59
3, 13312, Note_on_c, 1, 41, 0
3, 13441, Note_on_c, 1, 36, 73
3, 14793, Note_on_c, 1, 36, 0
3, 14839, Note_on_c, 1, 40, 53
3, 14942, Note_on_c, 1, 40, 0
3, 15357, Note_on_c, 1, 41, 69
3, 16781, Note_on_c, 1, 48, 60
3, 16831, Note_on_c, 1, 41, 0
3, 16877, Note_on_c, 1, 48, 0
3, 16994, Pitch_bend_c, 1, 8192
3, 17009, Pitch_bend_c, 1, 8192
3, 17018, Note_on_c, 1, 41, 32
3, 17019, Pitch_bend_c, 1, 7552
3, 17029, Pitch_bend_c, 1, 7168
3, 17041, Pitch_bend_c, 1, 6656
3, 17049, Pitch_bend_c, 1, 6144
3, 17059, Pitch_bend_c, 1, 5504
3, 17070, Pitch_bend_c, 1, 4864
3, 17080, Pitch_bend_c, 1, 4352
3, 17090, Pitch_bend_c, 1, 3968
3, 17100, Pitch_bend_c, 1, 3456
3, 17110, Pitch_bend_c, 1, 2944
3, 17120, Pitch_bend_c, 1, 2560
3, 17132, Pitch_bend_c, 1, 2176
3, 17142, Pitch_bend_c, 1, 1920
3, 17152, Pitch_bend_c, 1, 1536
3, 17162, Pitch_bend_c, 1, 1152
3, 17172, Pitch_bend_c, 1, 1024
3, 17181, Pitch_bend_c, 1, 768
3, 17193, Pitch_bend_c, 1, 512
3, 17203, Pitch_bend_c, 1, 256
3, 17213, Pitch_bend_c, 1, 128
3, 17273, Note_on_c, 1, 41, 0
3, 17274, Note_on_c, 1, 55, 77
3, 17372, Pitch_bend_c, 1, 256
3, 17382, Pitch_bend_c, 1, 384
3, 17401, Pitch_bend_c, 1, 512
3, 17426, Pitch_bend_c, 1, 640
3, 17448, Pitch_bend_c, 1, 768
3, 17456, Pitch_bend_c, 1, 896
3, 17478, Pitch_bend_c, 1, 1152
3, 17498, Pitch_bend_c, 1, 1408
3, 17508, Pitch_bend_c, 1, 1536
3, 17518, Pitch_bend_c, 1, 1664
3, 17537, Pitch_bend_c, 1, 1792
3, 17563, Pitch_bend_c, 1, 1920
3, 17583, Pitch_bend_c, 1, 2048
3, 17593, Pitch_bend_c, 1, 2176
3, 17619, Pitch_bend_c, 1, 2432
3, 17629, Pitch_bend_c, 1, 2560
3, 17639, Pitch_bend_c, 1, 2688
3, 17649, Pitch_bend_c, 1, 2816
3, 17659, Pitch_bend_c, 1, 3072
3, 17670, Pitch_bend_c, 1, 3328
3, 17680, Pitch_bend_c, 1, 3584
3, 17690, Pitch_bend_c, 1, 3840
3, 17698, Pitch_bend_c, 1, 4096
3, 17710, Pitch_bend_c, 1, 4352
3, 17730, Pitch_bend_c, 1, 4480
3, 17741, Pitch_bend_c, 1, 4608
3, 17780, Pitch_bend_c, 1, 4736
3, 17805, Pitch_bend_c, 1, 4992
3, 17815, Pitch_bend_c, 1, 5120
3, 17825, Pitch_bend_c, 1, 5376
3, 17835, Pitch_bend_c, 1, 5632
3, 17847, Pitch_bend_c, 1, 5888
3, 17856, Pitch_bend_c, 1, 6272
3, 17866, Pitch_bend_c, 1, 6656
3, 17876, Pitch_bend_c, 1, 7040
3, 17886, Pitch_bend_c, 1, 7424
3, 17896, Pitch_bend_c, 1, 7680
3, 17908, Pitch_bend_c, 1, 8192
3, 17923, Pitch_bend_c, 1, 8192
3, 17978, Pitch_bend_c, 1, 8192
3, 18002, Pitch_bend_c, 1, 8192
3, 18023, Pitch_bend_c, 1, 8192
3, 18044, Note_on_c, 1, 53, 68
3, 18116, Note_on_c, 1, 55, 0
3, 18764, Note_on_c, 1, 40, 59
3, 18819, Note_on_c, 1, 53, 0
3, 19155, Note_on_c, 1, 40, 0
3, 19238, Note_on_c, 1, 38, 70
3, 20596, Note_on_c, 1, 38, 0
3, 20675, Note_on_c, 1, 38, 63
3, 21150, Note_on_c, 1, 43, 64
3, 21163, Note_on_c, 1, 38, 0
3, 22477, Note_on_c, 1, 43, 0
3, 22543, Note_on_c, 1, 38, 47
3, 22699, Note_on_c, 1, 38, 0
3, 23017, Note_on_c, 1, 36, 79
3, 24468, Note_on_c, 1, 43, 51
3, 24499, Note_on_c, 1, 36, 0
3, 24874, Pitch_bend_c, 1, 8192
3, 24877, Pitch_bend_c, 1, 8192
3, 24890, Pitch_bend_c, 1, 7552
3, 24900, Pitch_bend_c, 1, 6912
3, 24910, Pitch_bend_c, 1, 6272
3, 24920, Pitch_bend_c, 1, 5760
3, 24931, Pitch_bend_c, 1, 4992
3, 24939, Pitch_bend_c, 1, 4352
3, 24949, Pitch_bend_c, 1, 3584
3, 24961, Pitch_bend_c, 1, 2944
3, 24969, Note_on_c, 1, 50, 103
3, 24971, Pitch_bend_c, 1, 2176
3, 24981, Pitch_bend_c, 1, 1408
3, 24992, Pitch_bend_c, 1, 768
3, 25001, Pitch_bend_c, 1, 256
3, 25011, Pitch_bend_c, 1, 0
3, 25186, Pitch_bend_c, 1, 768
3, 25196, Pitch_bend_c, 1, 1024
3, 25206, Pitch_bend_c, 1, 1152
3, 25217, Pitch_bend_c, 1, 1408
3, 25261, Pitch_bend_c, 1, 1280
3, 25331, Pitch_bend_c, 1, 1408
3, 25341, Pitch_bend_c, 1, 1536
3, 25361, Pitch_bend_c, 1, 1664
3, 25371, Pitch_bend_c, 1, 1920
3, 25381, Pitch_bend_c, 1, 2304
3, 25392, Pitch_bend_c, 1, 2688
3, 25402, Pitch_bend_c, 1, 3456
3, 25411, Pitch_bend_c, 1, 3840
3, 25422, Pitch_bend_c, 1, 4224
3, 25432, Pitch_bend_c, 1, 4480
3, 25557, Pitch_bend_c, 1, 4608
3, 25577, Pitch_bend_c, 1, 4864
3, 25583, Note_on_c, 1, 50, 0
3, 25586, Pitch_bend_c, 1, 4992
3, 25597, Pitch_bend_c, 1, 5120
3, 25607, Pitch_bend_c, 1, 5504
3, 25619, Pitch_bend_c, 1, 5760
3, 25629, Pitch_bend_c, 1, 6144
3, 25639, Pitch_bend_c, 1, 6528
3, 25649, Pitch_bend_c, 1, 6656
3, 25649, Note_on_c, 1, 48, 75
3, 25659, Pitch_bend_c, 1, 6784
3, 25782, Pitch_bend_c, 1, 7040
3, 25794, Pitch_bend_c, 1, 7168
3, 25804, Pitch_bend_c, 1, 7424
3, 25814, Pitch_bend_c, 1, 7680
3, 25824, Pitch_bend_c, 1, 8192
3, 25827, Pitch_bend_c, 1, 8192
3, 25834, Pitch_bend_c, 1, 8192
3, 26093, Note_on_c, 1, 43, 0
3, 26382, Note_on_c, 1, 43, 38
3, 26551, Note_on_c, 1, 48, 0
3, 26818, Note_on_c, 1, 43, 0
3, 26869, Note_on_c, 1, 36, 76
3, 28326, Note_on_c, 1, 43, 38
3, 28388, Note_on_c, 1, 43, 0
3, 28549, Pitch_bend_c, 1, 8192
3, 28556, Pitch_bend_c, 1, 7552
3, 28568, Pitch_bend_c, 1, 7040
3, 28578, Pitch_bend_c, 1, 6528
3, 28589, Pitch_bend_c, 1, 5888
3, 28599, Pitch_bend_c, 1, 5504
3, 28602, Note_on_c, 1, 43, 54
3, 28611, Pitch_bend_c, 1, 4864
3, 28619, Pitch_bend_c, 1, 4352
3, 28629, Pitch_bend_c, 1, 3712
3, 28639, Pitch_bend_c, 1, 3200
3, 28650, Pitch_bend_c, 1, 2688
3, 28660, Pitch_bend_c, 1, 2176
3, 28670, Pitch_bend_c, 1, 1792
3, 28680, Pitch_bend_c, 1, 1280
3, 28690, Pitch_bend_c, 1, 896
3, 28700, Pitch_bend_c, 1, 640
3, 28712, Pitch_bend_c, 1, 384
3, 28713, Note_on_c, 1, 43, 0
3, 28722, Pitch_bend_c, 1, 128
3, 28747, Note_on_c, 1, 36, 0
3, 28810, Note_on_c, 1, 50, 94
3, 28847, Pitch_bend_c, 1, 384
3, 28855, Pitch_bend_c, 1, 512
3, 28865, Pitch_bend_c, 1, 768
3, 28875, Pitch_bend_c, 1, 1024
3, 28887, Pitch_bend_c, 1, 1664
3, 28897, Pitch_bend_c, 1, 2304
3, 28908, Pitch_bend_c, 1, 2944
3, 28917, Pitch_bend_c, 1, 3584
3, 28927, Pitch_bend_c, 1, 3840
3, 28996, Pitch_bend_c, 1, 3968
3, 29022, Pitch_bend_c, 1, 4224
3, 29031, Pitch_bend_c, 1, 4352
3, 29042, Pitch_bend_c, 1, 4608
3, 29052, Pitch_bend_c, 1, 4864
3, 29063, Pitch_bend_c, 1, 5376
3, 29073, Pitch_bend_c, 1, 5760
3, 29083, Pitch_bend_c, 1, 6272
3, 29090, Pitch_bend_c, 1, 6656
3, 29103, Pitch_bend_c, 1, 6784
3, 29135, Note_on_c, 1, 43, 28
3, 29173, Pitch_bend_c, 1, 6912
3, 29183, Pitch_bend_c, 1, 7040
3, 29194, Pitch_bend_c, 1, 7168
3, 29204, Pitch_bend_c, 1, 7424
3, 29213, Pitch_bend_c, 1, 7552
3, 29224, Pitch_bend_c, 1, 8192
3, 29230, Pitch_bend_c, 1, 8192
3, 29234, Pitch_bend_c, 1, 8192
3, 29240, Note_on_c, 1, 43, 0
3, 29240, Pitch_bend_c, 1, 8192
3, 29502, Note_on_c, 1, 48, 77
3, 29593, Note_on_c, 1, 50, 0
3, 29979, Note_on_c, 1, 43, 57
3, 29985, Note_on_c, 1, 48, 0
3, 30114, Note_on_c, 1, 43, 0
3, 30232, Note_on_c, 1, 36, 58
3, 30600, Note_on_c, 1, 36, 0
3, 30661, Note_on_c, 1, 29, 66
3, 32151, Note_on_c, 1, 36, 60
3, 32179, Note_on_c, 1, 29, 0
3, 32300, Note_on_c, 1, 36, 0
3, 32430, Pitch_bend_c, 1, 7680
3, 32441, Pitch_bend_c, 1, 6912
3, 32451, Pitch_bend_c, 1, 6016
3, 32461, Pitch_bend_c, 1, 5120
3, 32471, Pitch_bend_c, 1, 4608
3, 32481, Pitch_bend_c, 1, 3968
3, 32491, Pitch_bend_c, 1, 3328
3, 32501, Pitch_bend_c, 1, 2560
3, 32512, Pitch_bend_c, 1, 1792
3, 32522, Pitch_bend_c, 1, 1152
3, 32531, Pitch_bend_c, 1, 768
3, 32542, Pitch_bend_c, 1, 512
3, 32552, Pitch_bend_c, 1, 256
3, 32562, Pitch_bend_c, 1, 0
3, 32646, Pitch_bend_c, 1, 256
3, 32658, Pitch_bend_c, 1, 384
3, 32658, Note_on_c, 1, 43, 76
3, 32667, Pitch_bend_c, 1, 640
3, 32677, Pitch_bend_c, 1, 768
3, 32689, Pitch_bend_c, 1, 896
3, 32699, Pitch_bend_c, 1, 1152
3, 32707, Pitch_bend_c, 1, 1664
3, 32717, Pitch_bend_c, 1, 2176
3, 32729, Pitch_bend_c, 1, 2816
3, 32739, Pitch_bend_c, 1, 3584
3, 32750, Pitch_bend_c, 1, 4352
3, 32760, Pitch_bend_c, 1, 4864
3, 32769, Pitch_bend_c, 1, 5376
3, 32779, Pitch_bend_c, 1, 5632
3, 32790, Pitch_bend_c, 1, 5888
3, 32800, Pitch_bend_c, 1, 6144
3, 32811, Pitch_bend_c, 1, 6528
3, 32821, Pitch_bend_c, 1, 6784
3, 32828, Pitch_bend_c, 1, 7040
3, 32840, Pitch_bend_c, 1, 7424
3, 32851, Pitch_bend_c, 1, 8192
3, 32857, Pitch_bend_c, 1, 8192
3, 32861, Pitch_bend_c, 1, 8192
3, 33358, Note_on_c, 1, 41, 66
3, 33435, Note_on_c, 1, 43, 0
3, 34110, Note_on_c, 1, 41, 0
3, 34133, Note_on_c, 1, 36, 51
3, 34339, Note_on_c, 1, 36, 0
3, 34583, Note_on_c, 1, 28, 64
3, 35985, Note_on_c, 1, 35, 61
3, 36161, Note_on_c, 1, 28, 0
3, 36398, Note_on_c, 1, 35, 0
3, 36480, Note_on_c, 1, 33, 71
3, 37839, Note_on_c, 1, 33, 0
3, 37925, Note_on_c, 1, 37, 69
3, 38351, Note_on_c, 1, 37, 0
3, 38436, Note_on_c, 1, 38, 71
3, 39874, Note_on_c, 1, 45, 37
3, 39940, Note_on_c, 1, 45, 0
3, 40035, Pitch_bend_c, 1, 8192
3, 40045, Pitch_bend_c, 1, 7680
3, 40057, Pitch_bend_c, 1, 7296
3, 40065, Pitch_bend_c, 1, 6784
3, 40075, Pitch_bend_c, 1, 6144
3, 40087, Pitch_bend_c, 1, 5504
3, 40097, Pitch_bend_c, 1, 4992
3, 40106, Pitch_bend_c, 1, 4608
3, 40118, Pitch_bend_c, 1, 4096
3, 40126, Pitch_bend_c, 1, 3712
3, 40136, Pitch_bend_c, 1, 3584
3, 40148, Pitch_bend_c, 1, 3200
3, 40155, Note_on_c, 1, 45, 38
3, 40158, Pitch_bend_c, 1, 2944
3, 40168, Pitch_bend_c, 1, 2688
3, 40179, Pitch_bend_c, 1, 2432
3, 40188, Pitch_bend_c, 1, 2304
3, 40198, Pitch_bend_c, 1, 2048
3, 40209, Pitch_bend_c, 1, 1792
3, 40219, Pitch_bend_c, 1, 1664
3, 40223, Note_on_c, 1, 45, 0
3, 40229, Pitch_bend_c, 1, 1536
3, 40240, Pitch_bend_c, 1, 1280
3, 40249, Pitch_bend_c, 1, 1152
3, 40302, Note_on_c, 1, 38, 0
3, 40314, Pitch_bend_c, 1, 1408
3, 40324, Pitch_bend_c, 1, 1664
3, 40327, Note_on_c, 1, 52, 85
3, 40334, Pitch_bend_c, 1, 1920
3, 40344, Pitch_bend_c, 1, 2304
3, 40356, Pitch_bend_c, 1, 2816
3, 40363, Pitch_bend_c, 1, 3328
3, 40376, Pitch_bend_c, 1, 3968
3, 40386, Pitch_bend_c, 1, 4736
3, 40396, Pitch_bend_c, 1, 5632
3, 40407, Pitch_bend_c, 1, 6656
3, 40417, Pitch_bend_c, 1, 7552
3, 40425, Pitch_bend_c, 1, 8192
3, 40431, Pitch_bend_c, 1, 8192
3, 41068, Note_on_c, 1, 50, 68
3, 41163, Note_on_c, 1, 52, 0
3, 41777, Note_on_c, 1, 48, 54
3, 41884, Note_on_c, 1, 48, 0
3, 42217, Note_on_c, 1, 50, 0
3, 42242, Note_on_c, 1, 46, 63
3, 44246, Note_on_c, 1, 48, 85
3, 44361, Note_on_c, 1, 46, 0
3, 45606, Note_on_c, 1, 40, 51
3, 45619, Note_on_c, 1, 48, 0
3, 45731, Note_on_c, 1, 40, 0
3, 46083, Note_on_c, 1, 41, 62
3, 47377, Note_on_c, 1, 41, 0
3, 47768, Note_on_c, 1, 36, 38
3, 47835, Note_on_c, 1, 36, 0
3, 47954, Pitch_bend_c, 1, 8192
3, 47956, Note_on_c, 1, 43, 50
3, 47963, Pitch_bend_c, 1, 7680
3, 47974, Pitch_bend_c, 1, 6784
3, 47984, Pitch_bend_c, 1, 5632
3, 47994, Pitch_bend_c, 1, 4608
3, 48005, Pitch_bend_c, 1, 3712
3, 48014, Pitch_bend_c, 1, 2944
3, 48024, Pitch_bend_c, 1, 1792
3, 48035, Pitch_bend_c, 1, 768
3, 48045, Pitch_bend_c, 1, 128
3, 48181, Pitch_bend_c, 1, 640
3, 48191, Pitch_bend_c, 1, 1280
3, 48199, Pitch_bend_c, 1, 2432
3, 48210, Pitch_bend_c, 1, 3456
3, 48220, Pitch_bend_c, 1, 4224
3, 48230, Pitch_bend_c, 1, 4736
3, 48242, Pitch_bend_c, 1, 5120
3, 48250, Pitch_bend_c, 1, 5376
3, 48270, Pitch_bend_c, 1, 5504
3, 48390, Pitch_bend_c, 1, 5632
3, 48401, Pitch_bend_c, 1, 5760
3, 48411, Pitch_bend_c, 1, 6016
3, 48421, Pitch_bend_c, 1, 6272
3, 48431, Pitch_bend_c, 1, 6528
3, 48441, Pitch_bend_c, 1, 6656
3, 48451, Pitch_bend_c, 1, 6784
3, 48463, Pitch_bend_c, 1, 7040
3, 48472, Pitch_bend_c, 1, 7168
3, 48482, Pitch_bend_c, 1, 7424
3, 48492, Pitch_bend_c, 1, 7552
3, 48502, Pitch_bend_c, 1, 8192
3, 48508, Pitch_bend_c, 1, 8192
3, 48514, Pitch_bend_c, 1, 8192
3, 48518, Pitch_bend_c, 1, 8192
3, 48549, Note_on_c, 1, 43, 0
3, 48675, Note_on_c, 1, 41, 55
3, 49446, Note_on_c, 1, 36, 46
3, 49454, Note_on_c, 1, 41, 0
3, 49587, Note_on_c, 1, 36, 0
3, 49899, Note_on_c, 1, 38, 64
3, 51817, Note_on_c, 1, 38, 0
3, 51833, Note_on_c, 1, 31, 56
3, 52457, Note_on_c, 1, 31, 0
3, 52562, Note_on_c, 1, 31, 47
3, 53263, Note_on_c, 1, 31, 0
3, 53310, Note_on_c, 1, 36, 77
3, 55152, Note_on_c, 1, 43, 41
3, 55235, Note_on_c, 1, 43, 0
3, 55493, Pitch_bend_c, 1, 8192
3, 55506, Pitch_bend_c, 1, 7680
3, 55516, Pitch_bend_c, 1, 7040
3, 55526, Pitch_bend_c, 1, 6400
3, 55537, Pitch_bend_c, 1, 5632
3, 55547, Pitch_bend_c, 1, 4736
3, 55555, Pitch_bend_c, 1, 3968
3, 55567, Pitch_bend_c, 1, 3200
3, 55577, Pitch_bend_c, 1, 2688
3, 55587, Pitch_bend_c, 1, 2176
3, 55598, Pitch_bend_c, 1, 1792
3, 55608, Pitch_bend_c, 1, 1408
3, 55617, Pitch_bend_c, 1, 1024
3, 55628, Pitch_bend_c, 1, 768
3, 55638, Pitch_bend_c, 1, 640
3, 55648, Pitch_bend_c, 1, 512
3, 55657, Note_on_c, 1, 50, 89
3, 55688, Pitch_bend_c, 1, 768
3, 55698, Pitch_bend_c, 1, 1024
3, 55709, Pitch_bend_c, 1, 1408
3, 55712, Note_on_c, 1, 51, 26
3, 55719, Pitch_bend_c, 1, 1792
3, 55728, Pitch_bend_c, 1, 2304
3, 55739, Pitch_bend_c, 1, 2688
3, 55749, Pitch_bend_c, 1, 3200
3, 55759, Note_on_c, 1, 51, 0
3, 55761, Pitch_bend_c, 1, 3712
3, 55770, Pitch_bend_c, 1, 4096
3, 55780, Pitch_bend_c, 1, 4352
3, 55790, Pitch_bend_c, 1, 4480
3, 55800, Pitch_bend_c, 1, 4608
3, 55826, Pitch_bend_c, 1, 4864
3, 55846, Pitch_bend_c, 1, 5120
3, 55856, Pitch_bend_c, 1, 5376
3, 55866, Pitch_bend_c, 1, 5504
3, 55876, Pitch_bend_c, 1, 5760
3, 55887, Pitch_bend_c, 1, 6016
3, 55897, Pitch_bend_c, 1, 6400
3, 55906, Pitch_bend_c, 1, 6784
3, 55916, Pitch_bend_c, 1, 7296
3, 55927, Pitch_bend_c, 1, 7680
3, 55937, Pitch_bend_c, 1, 8192
3, 55943, Pitch_bend_c, 1, 8192
3, 55958, Pitch_bend_c, 1, 8192
3, 56357, Note_on_c, 1, 48, 74
3, 56400, Note_on_c, 1, 50, 0
3, 57098, Note_on_c, 1, 43, 29
3, 57157, Note_on_c, 1, 36, 0
3, 57199, Note_on_c, 1, 48, 0
3, 57620, Note_on_c, 1, 36, 68
3, 57710, Note_on_c, 1, 43, 0
3, 59071, Note_on_c, 1, 43, 24
3, 59133, Note_on_c, 1, 43, 0
3, 59325, Note_on_c, 1, 43, 31
3, 59397, Pitch_bend_c, 1, 7552
3, 59406, Pitch_bend_c, 1, 6528
3, 59416, Pitch_bend_c, 1, 5504
3, 59423, Note_on_c, 1, 43, 0
3, 59427, Pitch_bend_c, 1, 4480
3, 59437, Pitch_bend_c, 1, 3712
3, 59447, Pitch_bend_c, 1, 2944
3, 59459, Pitch_bend_c, 1, 2432
3, 59467, Pitch_bend_c, 1, 2048
3, 59477, Pitch_bend_c, 1, 1664
3, 59489, Pitch_bend_c, 1, 1408
3, 59499, Pitch_bend_c, 1, 1152
3, 59508, Pitch_bend_c, 1, 1024
3, 59568, Pitch_bend_c, 1, 1280
3, 59568, Note_on_c, 1, 50, 82
3, 59580, Pitch_bend_c, 1, 1408
3, 59587, Pitch_bend_c, 1, 1536
3, 59598, Pitch_bend_c, 1, 1664
3, 59620, Pitch_bend_c, 1, 1920
3, 59630, Pitch_bend_c, 1, 2048
3, 59639, Pitch_bend_c, 1, 2176
3, 59649, Pitch_bend_c, 1, 2304
3, 59659, Pitch_bend_c, 1, 2560
3, 59669, Pitch_bend_c, 1, 2816
3, 59681, Pitch_bend_c, 1, 3200
3, 59691, Pitch_bend_c, 1, 3584
3, 59701, Pitch_bend_c, 1, 3968
3, 59711, Pitch_bend_c, 1, 4480
3, 59721, Pitch_bend_c, 1, 4608
3, 59731, Pitch_bend_c, 1, 4736
3, 59812, Pitch_bend_c, 1, 4864
3, 59830, Pitch_bend_c, 1, 5120
3, 59850, Pitch_bend_c, 1, 5376
3, 59862, Pitch_bend_c, 1, 5504
3, 59872, Pitch_bend_c, 1, 5632
3, 59880, Pitch_bend_c, 1, 5760
3, 59892, Pitch_bend_c, 1, 6016
3, 59902, Pitch_bend_c, 1, 6272
3, 59911, Pitch_bend_c, 1, 6528
3, 59923, Pitch_bend_c, 1, 6656
3, 59941, Pitch_bend_c, 1, 6784
3, 59967, Pitch_bend_c, 1, 6912
3, 59998, Pitch_bend_c, 1, 7168
3, 60007, Pitch_bend_c, 1, 7296
3, 60017, Pitch_bend_c, 1, 7424
3, 60028, Pitch_bend_c, 1, 7680
3, 60038, Pitch_bend_c, 1, 8192
3, 60044, Pitch_bend_c, 1, 8192
3, 60050, Pitch_bend_c, 1, 8192
3, 60054, Pitch_bend_c, 1, 8192
3, 60121, Note_on_c, 1, 36, 0
3, 60235, Note_on_c, 1, 48, 66
3, 60280, Note_on_c, 1, 51, 13
3, 60312, Note_on_c, 1, 50, 0
3, 60361, Note_on_c, 1, 51, 0
3, 60958, Note_on_c, 1, 43, 38
3, 60964, Note_on_c, 1, 48, 0
3, 61427, Note_on_c, 1, 40, 69
3, 61435, Note_on_c, 1, 43, 0
3, 62730, Note_on_c, 1, 40, 0
3, 62879, Note_on_c, 1, 40, 51
3, 63370, Note_on_c, 1, 33, 62
3, 63379, Note_on_c, 1, 40, 0
3, 64831, Note_on_c, 1, 40, 62
3, 65055, Note_on_c, 1, 33, 0
3, 65227, Note_on_c, 1, 40, 0
3, 65330, Note_on_c, 1, 38, 74
3, 66228, Note_on_c, 1, 38, 0
3, 66291, Note_on_c, 1, 36, 73
3, 67164, Note_on_c, 1, 36, 0
3, 67185, Note_on_c, 1, 34, 67
3, 68124, Note_on_c, 1, 34, 0
3, 68169, Note_on_c, 1, 33, 63
3, 68980, Note_on_c, 1, 33, 0
3, 69101, Note_on_c, 1, 31, 57
3, 70582, Note_on_c, 1, 38, 67
3, 70936, Note_on_c, 1, 31, 0
3, 71019, Note_on_c, 1, 38, 0
3, 71022, Pitch_bend_c, 1, 8192
3, 71026, Pitch_bend_c, 1, 8192
3, 71036, Pitch_bend_c, 1, 7552
3, 71046, Pitch_bend_c, 1, 7040
3, 71056, Pitch_bend_c, 1, 6400
3, 71067, Pitch_bend_c, 1, 5632
3, 71070, Note_on_c, 1, 36, 69
3, 71077, Pitch_bend_c, 1, 5120
3, 71087, Pitch_bend_c, 1, 4608
3, 71097, Pitch_bend_c, 1, 4352
3, 71107, Pitch_bend_c, 1, 3968
3, 71117, Pitch_bend_c, 1, 3712
3, 71127, Pitch_bend_c, 1, 3584
3, 71138, Pitch_bend_c, 1, 3456
3, 71163, Pitch_bend_c, 1, 3328
3, 71222, Pitch_bend_c, 1, 3584
3, 71232, Pitch_bend_c, 1, 3712
3, 71244, Pitch_bend_c, 1, 3968
3, 71254, Pitch_bend_c, 1, 4352
3, 71264, Pitch_bend_c, 1, 4736
3, 71274, Pitch_bend_c, 1, 5504
3, 71284, Pitch_bend_c, 1, 6400
3, 71294, Pitch_bend_c, 1, 7424
3, 71305, Pitch_bend_c, 1, 8192
3, 71309, Pitch_bend_c, 1, 8192
3, 72396, Note_on_c, 1, 36, 0
3, 72467, Note_on_c, 1, 31, 49
3, 72826, Note_on_c, 1, 31, 0
3, 72955, Note_on_c, 1, 29, 58
3, 74432, Note_on_c, 1, 36, 39
3, 74503, Note_on_c, 1, 36, 0
3, 74727, Pitch_bend_c, 1, 7680
3, 74732, Note_on_c, 1, 36, 36
3, 74738, Pitch_bend_c, 1, 6784
3, 74748, Pitch_bend_c, 1, 5760
3, 74758, Pitch_bend_c, 1, 4736
3, 74770, Pitch_bend_c, 1, 4096
3, 74777, Pitch_bend_c, 1, 3456
3, 74788, Pitch_bend_c, 1, 2816
3, 74799, Pitch_bend_c, 1, 2176
3, 74809, Pitch_bend_c, 1, 1792
3, 74812, Note_on_c, 1, 36, 0
3, 74819, Pitch_bend_c, 1, 1536
3, 74831, Pitch_bend_c, 1, 1152
3, 74839, Pitch_bend_c, 1, 1024
3, 74849, Pitch_bend_c, 1, 896
3, 74861, Pitch_bend_c, 1, 768
3, 74886, Pitch_bend_c, 1, 640
3, 74910, Pitch_bend_c, 1, 512
3, 74936, Note_on_c, 1, 43, 75
3, 74976, Pitch_bend_c, 1, 640
3, 74996, Pitch_bend_c, 1, 896
3, 75006, Pitch_bend_c, 1, 1024
3, 75014, Pitch_bend_c, 1, 1280
3, 75026, Pitch_bend_c, 1, 1664
3, 75036, Pitch_bend_c, 1, 1920
3, 75047, Pitch_bend_c, 1, 2176
3, 75057, Pitch_bend_c, 1, 2560
3, 75067, Pitch_bend_c, 1, 2816
3, 75076, Pitch_bend_c, 1, 3328
3, 75087, Pitch_bend_c, 1, 3584
3, 75097, Pitch_bend_c, 1, 3840
3, 75107, Pitch_bend_c, 1, 4096
3, 75118, Pitch_bend_c, 1, 4224
3, 75128, Pitch_bend_c, 1, 4480
3, 75137, Pitch_bend_c, 1, 4608
3, 75148, Pitch_bend_c, 1, 4736
3, 75158, Pitch_bend_c, 1, 4864
3, 75168, Pitch_bend_c, 1, 4992
3, 75180, Pitch_bend_c, 1, 5120
3, 75188, Pitch_bend_c, 1, 5376
3, 75198, Pitch_bend_c, 1, 5504
3, 75210, Pitch_bend_c, 1, 5632
3, 75219, Pitch_bend_c, 1, 5760
3, 75229, Pitch_bend_c, 1, 5888
3, 75241, Pitch_bend_c, 1, 6016
3, 75249, Pitch_bend_c, 1, 6144
3, 75259, Pitch_bend_c, 1, 6400
3, 75271, Pitch_bend_c, 1, 6528
3, 75281, Pitch_bend_c, 1, 6784
3, 75291, Pitch_bend_c, 1, 7040
3, 75302, Pitch_bend_c, 1, 7296
3, 75311, Pitch_bend_c, 1, 7552
3, 75321, Pitch_bend_c, 1, 8192
3, 75326, Pitch_bend_c, 1, 8192
3, 75332, Pitch_bend_c, 1, 8192
3, 75338, Pitch_bend_c, 1, 8192
3, 75655, Note_on_c, 1, 41, 66
3, 75692, Note_on_c, 1, 43, 0
3, 75695, Note_on_c, 1, 44, 21
3, 75788, Note_on_c, 1, 44, 0
3, 76400, Note_on_c, 1, 36, 62
3, 76515, Note_on_c, 1, 29, 0
3, 76812, Note_on_c, 1, 36, 0
3, 76861, Note_on_c, 1, 40, 71
3, 76883, Note_on_c, 1, 41, 0
3, 78238, Note_on_c, 1, 40, 0
3, 78277, Note_on_c, 1, 34, 53
3, 78747, Note_on_c, 1, 33, 64
3, 78831, Note_on_c, 1, 34, 0
3, 80182, Note_on_c, 1, 37, 62
3, 80198, Note_on_c, 1, 33, 0
3, 80609, Note_on_c, 1, 37, 0
3, 80663, Note_on_c, 1, 38, 71
3, 81561, Note_on_c, 1, 38, 0
3, 81618, Note_on_c, 1, 36, 67
3, 82559, Note_on_c, 1, 34, 64
3, 82590, Note_on_c, 1, 36, 0
3, 83496, Note_on_c, 1, 34, 0
3, 83590, Note_on_c, 1, 34, 44
3, 84041, Note_on_c, 1, 34, 0
3, 84068, Note_on_c, 1, 38, 74
3, 84494, Note_on_c, 1, 38, 0
3, 84561, Note_on_c, 1, 31, 64
3, 85000, Control_c, 1, 64, 127
3, 85314, Control_c, 1, 64, 0
3, 85324, Note_on_c, 1, 31, 0
3, 85418, Note_on_c, 1, 31, 63
3, 86389, Note_on_c, 1, 36, 73
3, 86428, Note_on_c, 1, 31, 0
3, 87403, Note_on_c, 1, 36, 0
3, 87855, Note_on_c, 1, 36, 58
3, 88014, Note_on_c, 1, 36, 0
3, 88343, Note_on_c, 1, 36, 71
3, 89753, Note_on_c, 1, 43, 32
3, 89820, Note_on_c, 1, 43, 0
3, 90063, Pitch_bend_c, 1, 8192
3, 90069, Pitch_bend_c, 1, 8192
3, 90075, Pitch_bend_c, 1, 8192
3, 90083, Pitch_bend_c, 1, 7680
3, 90093, Pitch_bend_c, 1, 7168
3, 90105, Pitch_bend_c, 1, 6784
3, 90115, Pitch_bend_c, 1, 6400
3, 90125, Pitch_bend_c, 1, 5888
3, 90136, Pitch_bend_c, 1, 5632
3, 90144, Pitch_bend_c, 1, 5120
3, 90154, Pitch_bend_c, 1, 4608
3, 90166, Pitch_bend_c, 1, 4096
3, 90176, Pitch_bend_c, 1, 3584
3, 90186, Pitch_bend_c, 1, 3072
3, 90197, Pitch_bend_c, 1, 2432
3, 90206, Pitch_bend_c, 1, 1792
3, 90216, Pitch_bend_c, 1, 1408
3, 90227, Pitch_bend_c, 1, 1024
3, 90237, Pitch_bend_c, 1, 896
3, 90238, Note_on_c, 1, 50, 88
3, 90247, Pitch_bend_c, 1, 640
3, 90271, Pitch_bend_c, 1, 512
3, 90297, Pitch_bend_c, 1, 640
3, 90308, Pitch_bend_c, 1, 1024
3, 90318, Pitch_bend_c, 1, 1408
3, 90327, Pitch_bend_c, 1, 1920
3, 90338, Pitch_bend_c, 1, 2688
3, 90348, Pitch_bend_c, 1, 3584
3, 90358, Pitch_bend_c, 1, 4608
3, 90369, Pitch_bend_c, 1, 5760
3, 90378, Pitch_bend_c, 1, 6400
3, 90388, Pitch_bend_c, 1, 6656
3, 90399, Pitch_bend_c, 1, 6912
3, 90453, Pitch_bend_c, 1, 6784
3, 90539, Pitch_bend_c, 1, 6912
3, 90559, Pitch_bend_c, 1, 7168
3, 90589, Pitch_bend_c, 1, 7296
3, 90619, Pitch_bend_c, 1, 7424
3, 90644, Pitch_bend_c, 1, 7552
3, 90670, Pitch_bend_c, 1, 8192
3, 90674, Pitch_bend_c, 1, 8192
3, 90690, Pitch_bend_c, 1, 8192
3, 90696, Pitch_bend_c, 1, 8192
3, 90905, Note_on_c, 1, 48, 68
3, 90915, Note_on_c, 1, 50, 0
3, 90928, Note_on_c, 1, 51, 18
3, 91054, Note_on_c, 1, 51, 0
3, 91642, Note_on_c, 1, 43, 32
3, 91749, Note_on_c, 1, 36, 0
3, 91877, Note_on_c, 1, 43, 0
3, 92134, Note_on_c, 1, 36, 68
3, 92246, Note_on_c, 1, 48, 0
3, 93606, Note_on_c, 1, 43, 41
3, 93730, Note_on_c, 1, 43, 0
3, 93761, Pitch_bend_c, 1, 8192
3, 93771, Pitch_bend_c, 1, 7552
3, 93781, Pitch_bend_c, 1, 6912
3, 93793, Pitch_bend_c, 1, 6400
3, 93803, Pitch_bend_c, 1, 5760
3, 93814, Pitch_bend_c, 1, 5376
3, 93823, Pitch_bend_c, 1, 4864
3, 93833, Pitch_bend_c, 1, 4608
3, 93844, Pitch_bend_c, 1, 4352
3, 93854, Pitch_bend_c, 1, 4096
3, 93864, Pitch_bend_c, 1, 3712
3, 93875, Pitch_bend_c, 1, 3456
3, 93882, Pitch_bend_c, 1, 3200
3, 93894, Pitch_bend_c, 1, 2816
3, 93905, Pitch_bend_c, 1, 2432
3, 93915, Pitch_bend_c, 1, 2176
3, 93925, Pitch_bend_c, 1, 1920
3, 93937, Pitch_bend_c, 1, 1792
3, 93945, Pitch_bend_c, 1, 1664
3, 93955, Pitch_bend_c, 1, 1408
3, 93976, Pitch_bend_c, 1, 1280
3, 94036, Pitch_bend_c, 1, 1536
3, 94046, Pitch_bend_c, 1, 1664
3, 94056, Pitch_bend_c, 1, 1792
3, 94066, Pitch_bend_c, 1, 1920
3, 94076, Pitch_bend_c, 1, 2304
3, 94086, Pitch_bend_c, 1, 2560
3, 94097, Pitch_bend_c, 1, 2816
3, 94107, Pitch_bend_c, 1, 2944
3, 94116, Note_on_c, 1, 50, 87
3, 94116, Pitch_bend_c, 1, 3200
3, 94127, Pitch_bend_c, 1, 3328
3, 94153, Pitch_bend_c, 1, 3584
3, 94177, Pitch_bend_c, 1, 3712
3, 94187, Pitch_bend_c, 1, 3840
3, 94197, Pitch_bend_c, 1, 3968
3, 94209, Pitch_bend_c, 1, 4096
3, 94219, Pitch_bend_c, 1, 4352
3, 94228, Pitch_bend_c, 1, 4736
3, 94238, Pitch_bend_c, 1, 5120
3, 94248, Pitch_bend_c, 1, 5632
3, 94258, Pitch_bend_c, 1, 6144
3, 94270, Pitch_bend_c, 1, 6656
3, 94280, Pitch_bend_c, 1, 7040
3, 94290, Pitch_bend_c, 1, 7296
3, 94310, Pitch_bend_c, 1, 7424
3, 94335, Pitch_bend_c, 1, 7552
3, 94359, Pitch_bend_c, 1, 7680
3, 94385, Pitch_bend_c, 1, 8192
3, 94405, Pitch_bend_c, 1, 8192
3, 94425, Pitch_bend_c, 1, 8192
3, 94770, Note_on_c, 1, 48, 69
3, 94799, Note_on_c, 1, 51, 19
3, 94824, Note_on_c, 1, 36, 0
3, 94865, Note_on_c, 1, 50, 0
3, 95249, Note_on_c, 1, 48, 0
3, 95292, Note_on_c, 1, 43, 28
3, 95304, Note_on_c, 1, 41, 31
3, 95351, Note_on_c, 1, 51, 0
3, 95372, Note_on_c, 1, 43, 0
3, 95373, Note_on_c, 1, 41, 0
3, 95497, Note_on_c, 1, 36, 60
3, 95906, Note_on_c, 1, 36, 0
3, 95943, Note_on_c, 1, 29, 64
3, 97451, Note_on_c, 1, 36, 42
3, 97569, Note_on_c, 1, 36, 0
3, 97685, Pitch_bend_c, 1, 8192
3, 97696, Pitch_bend_c, 1, 7552
3, 97706, Pitch_bend_c, 1, 6912
3, 97716, Pitch_bend_c, 1, 6144
3, 97726, Pitch_bend_c, 1, 5376
3, 97736, Pitch_bend_c, 1, 4608
3, 97746, Pitch_bend_c, 1, 3968
3, 97756, Pitch_bend_c, 1, 3328
3, 97767, Pitch_bend_c, 1, 2560
3, 97777, Pitch_bend_c, 1, 2176
3, 97787, Pitch_bend_c, 1, 1664
3, 97797, Pitch_bend_c, 1, 1280
3, 97807, Pitch_bend_c, 1, 896
3, 97817, Pitch_bend_c, 1, 640
3, 97828, Pitch_bend_c, 1, 384
3, 97838, Pitch_bend_c, 1, 128
3, 97919, Note_on_c, 1, 43, 83
3, 97942, Pitch_bend_c, 1, 512
3, 97952, Pitch_bend_c, 1, 896
3, 97964, Pitch_bend_c, 1, 1152
3, 97972, Pitch_bend_c, 1, 1664
3, 97982, Pitch_bend_c, 1, 2048
3, 97994, Pitch_bend_c, 1, 2560
3, 98003, Pitch_bend_c, 1, 2944
3, 98013, Pitch_bend_c, 1, 3072
3, 98025, Pitch_bend_c, 1, 3328
3, 98043, Pitch_bend_c, 1, 3456
3, 98069, Pitch_bend_c, 1, 3584
3, 98090, Pitch_bend_c, 1, 3712
3, 98099, Pitch_bend_c, 1, 3840
3, 98109, Pitch_bend_c, 1, 3968
3, 98120, Pitch_bend_c, 1, 4224
3, 98130, Pitch_bend_c, 1, 4480
3, 98140, Pitch_bend_c, 1, 4736
3, 98150, Pitch_bend_c, 1, 4864
3, 98160, Pitch_bend_c, 1, 5120
3, 98180, Pitch_bend_c, 1, 5376
3, 98230, Pitch_bend_c, 1, 5504
3, 98256, Pitch_bend_c, 1, 5760
3, 98267, Pitch_bend_c, 1, 5888
3, 98275, Pitch_bend_c, 1, 6144
3, 98285, Pitch_bend_c, 1, 6528
3, 98297, Pitch_bend_c, 1, 6784
3, 98307, Pitch_bend_c, 1, 7168
3, 98317, Pitch_bend_c, 1, 7552
3, 98328, Pitch_bend_c, 1, 8192
3, 98332, Pitch_bend_c, 1, 8192
3, 98348, Pitch_bend_c, 1, 8192
3, 98613, Note_on_c, 1, 41, 69
3, 98684, Note_on_c, 1, 43, 0
3, 99248, Note_on_c, 1, 29, 0
3, 99353, Note_on_c, 1, 41, 0
3, 99369, Note_on_c, 1, 36, 68
3, 99727, Note_on_c, 1, 36, 0
3, 99819, Note_on_c, 1, 28, 68
3, 101290, Note_on_c, 1, 35, 71
3, 101348, Note_on_c, 1, 28, 0
3, 101690, Note_on_c, 1, 35, 0
3, 101773, Note_on_c, 1, 33, 71
3, 102485, Note_on_c, 1, 40, 74
3, 103099, Note_on_c, 1, 33, 0
3, 103164, Note_on_c, 1, 40, 0
3, 103215, Note_on_c, 1, 37, 53
3, 103627, Note_on_c, 1, 37, 0
3, 103698, Note_on_c, 1, 38, 66
3, 105099, Note_on_c, 1, 45, 30
3, 105158, Note_on_c, 1, 45, 0
3, 105363, Note_on_c, 1, 45, 43
3, 105437, Note_on_c, 1, 45, 0
3, 105526, Pitch_bend_c, 1, 8192
3, 105532, Pitch_bend_c, 1, 8192
3, 105542, Pitch_bend_c, 1, 7680
3, 105554, Pitch_bend_c, 1, 7168
3, 105564, Pitch_bend_c, 1, 6528
3, 105571, Pitch_bend_c, 1, 5888
3, 105583, Pitch_bend_c, 1, 5376
3, 105588, Note_on_c, 1, 52, 82
3, 105593, Pitch_bend_c, 1, 4736
3, 105603, Pitch_bend_c, 1, 4352
3, 105615, Pitch_bend_c, 1, 3840
3, 105625, Pitch_bend_c, 1, 3456
3, 105633, Pitch_bend_c, 1, 3072
3, 105643, Pitch_bend_c, 1, 2688
3, 105655, Pitch_bend_c, 1, 2560
3, 105665, Pitch_bend_c, 1, 2432
3, 105676, Pitch_bend_c, 1, 2304
3, 105704, Pitch_bend_c, 1, 2176
3, 105726, Pitch_bend_c, 1, 2304
3, 105736, Pitch_bend_c, 1, 2432
3, 105744, Pitch_bend_c, 1, 2560
3, 105754, Pitch_bend_c, 1, 2816
3, 105766, Pitch_bend_c, 1, 3072
3, 105776, Pitch_bend_c, 1, 3456
3, 105787, Pitch_bend_c, 1, 3840
3, 105797, Pitch_bend_c, 1, 4352
3, 105806, Pitch_bend_c, 1, 4992
3, 105817, Pitch_bend_c, 1, 5632
3, 105827, Pitch_bend_c, 1, 6016
3, 105837, Pitch_bend_c, 1, 6272
3, 105848, Pitch_bend_c, 1, 6400
3, 105882, Pitch_bend_c, 1, 6528
3, 105922, Pitch_bend_c, 1, 6656
3, 105952, Pitch_bend_c, 1, 6912
3, 105974, Pitch_bend_c, 1, 7040
3, 105982, Pitch_bend_c, 1, 7168
3, 105992, Pitch_bend_c, 1, 7424
3, 106004, Pitch_bend_c, 1, 7552
3, 106013, Pitch_bend_c, 1, 8192
3, 106019, Pitch_bend_c, 1, 8192
3, 106025, Pitch_bend_c, 1, 8192
3, 106031, Pitch_bend_c, 1, 8192
3, 106273, Note_on_c, 1, 50, 71
3, 106311, Note_on_c, 1, 38, 0
3, 106328, Note_on_c, 1, 52, 0
3, 106780, Note_on_c, 1, 45, 60
3, 106945, Note_on_c, 1, 45, 0
3, 106963, Note_on_c, 1, 50, 0
3, 106966, Note_on_c, 1, 38, 62
3, 107306, Note_on_c, 1, 38, 0
3, 107477, Note_on_c, 1, 34, 69
3, 108860, Note_on_c, 1, 34, 0
3, 108900, Note_on_c, 1, 34, 35
3, 109408, Note_on_c, 1, 36, 69
3, 109452, Note_on_c, 1, 34, 0
3, 110586, Note_on_c, 1, 36, 0
3, 111329, Note_on_c, 1, 29, 55
3, 112787, Note_on_c, 1, 36, 47
3, 112853, Note_on_c, 1, 36, 0
3, 113071, Pitch_bend_c, 1, 8192
3, 113081, Pitch_bend_c, 1, 7552
3, 113092, Pitch_bend_c, 1, 6784
3, 113102, Pitch_bend_c, 1, 6144
3, 113111, Pitch_bend_c, 1, 5504
3, 113122, Pitch_bend_c, 1, 4864
3, 113132, Pitch_bend_c, 1, 4224
3, 113142, Pitch_bend_c, 1, 3712
3, 113153, Pitch_bend_c, 1, 3200
3, 113162, Pitch_bend_c, 1, 2560
3, 113172, Pitch_bend_c, 1, 2304
3, 113183, Pitch_bend_c, 1, 1920
3, 113193, Pitch_bend_c, 1, 1664
3, 113203, Pitch_bend_c, 1, 1280
3, 113215, Pitch_bend_c, 1, 896
3, 113223, Pitch_bend_c, 1, 640
3, 113233, Pitch_bend_c, 1, 384
3, 113245, Pitch_bend_c, 1, 128
3, 113255, Pitch_bend_c, 1, 0
3, 113283, Note_on_c, 1, 43, 78
3, 113320, Pitch_bend_c, 1, 384
3, 113320, Note_on_c, 1, 44, 37
3, 113330, Pitch_bend_c, 1, 640
3, 113340, Pitch_bend_c, 1, 1024
3, 113350, Pitch_bend_c, 1, 1664
3, 113360, Pitch_bend_c, 1, 2048
3, 113370, Pitch_bend_c, 1, 2560
3, 113373, Note_on_c, 1, 44, 0
3, 113380, Pitch_bend_c, 1, 3072
3, 113391, Pitch_bend_c, 1, 3584
3, 113400, Pitch_bend_c, 1, 3968
3, 113410, Pitch_bend_c, 1, 4224
3, 113421, Pitch_bend_c, 1, 4480
3, 113431, Pitch_bend_c, 1, 4608
3, 113441, Pitch_bend_c, 1, 4736
3, 113461, Pitch_bend_c, 1, 4992
3, 113471, Pitch_bend_c, 1, 5120
3, 113481, Pitch_bend_c, 1, 5376
3, 113492, Pitch_bend_c, 1, 5504
3, 113502, Pitch_bend_c, 1, 5632
3, 113512, Pitch_bend_c, 1, 5760
3, 113521, Pitch_bend_c, 1, 5888
3, 113532, Pitch_bend_c, 1, 6272
3, 113542, Pitch_bend_c, 1, 6528
3, 113554, Pitch_bend_c, 1, 6912
3, 113564, Pitch_bend_c, 1, 7296
3, 113574, Pitch_bend_c, 1, 7680
3, 113583, Pitch_bend_c, 1, 8192
3, 113589, Pitch_bend_c, 1, 8192
3, 113747, Note_on_c, 1, 29, 0
3, 114031, Note_on_c, 1, 41, 65
3, 114048, Note_on_c, 1, 44, 25
3, 114108, Note_on_c, 1, 43, 0
3, 114159, Note_on_c, 1, 44, 0
3, 114713, Note_on_c, 1, 40, 42
3, 114802, Note_on_c, 1, 40, 0
3, 115185, Note_on_c, 1, 38, 70
3, 115227, Note_on_c, 1, 41, 0
3, 116547, Note_on_c, 1, 38, 0
3, 116594, Note_on_c, 1, 33, 37
3, 117032, Note_on_c, 1, 33, 0
3, 117079, Note_on_c, 1, 31, 57
3, 119012, Note_on_c, 1, 31, 0
3, 119063, Note_on_c, 1, 36, 60
3, 120772, Note_on_c, 1, 43, 31
3, 120844, Note_on_c, 1, 43, 0
3, 120988, Note_on_c, 1, 50, 90
3, 121665, Note_on_c, 1, 48, 69
3, 121692, Note_on_c, 1, 50, 0
3, 122402, Note_on_c, 1, 43, 28
3, 122449, Note_on_c, 1, 48, 0
3, 122640, Note_on_c, 1, 36, 0
3, 122877, Note_on_c, 1, 43, 0
3, 122901, Note_on_c, 1, 36, 63
3, 124282, Note_on_c, 1, 43, 28
3, 124355, Note_on_c, 1, 43, 0
3, 124503, Pitch_bend_c, 1, 8192
3, 124514, Pitch_bend_c, 1, 7552
3, 124524, Pitch_bend_c, 1, 6784
3, 124534, Pitch_bend_c, 1, 6016
3, 124545, Pitch_bend_c, 1, 5504
3, 124554, Pitch_bend_c, 1, 4736
3, 124564, Pitch_bend_c, 1, 4224
3, 124575, Pitch_bend_c, 1, 3840
3, 124580, Note_on_c, 1, 43, 46
3, 124585, Pitch_bend_c, 1, 3456
3, 124595, Pitch_bend_c, 1, 3200
3, 124607, Pitch_bend_c, 1, 2816
3, 124615, Pitch_bend_c, 1, 2560
3, 124625, Pitch_bend_c, 1, 2304
3, 124637, Pitch_bend_c, 1, 1920
3, 124647, Pitch_bend_c, 1, 1664
3, 124657, Pitch_bend_c, 1, 1408
3, 124668, Pitch_bend_c, 1, 1152
3, 124676, Pitch_bend_c, 1, 1024
3, 124686, Pitch_bend_c, 1, 896
3, 124705, Note_on_c, 1, 43, 0
3, 124708, Pitch_bend_c, 1, 640
3, 124758, Pitch_bend_c, 1, 896
3, 124768, Pitch_bend_c, 1, 1024
3, 124770, Note_on_c, 1, 36, 0
3, 124778, Pitch_bend_c, 1, 1408
3, 124789, Pitch_bend_c, 1, 1792
3, 124797, Pitch_bend_c, 1, 2176
3, 124807, Pitch_bend_c, 1, 2688
3, 124819, Pitch_bend_c, 1, 3456
3, 124829, Pitch_bend_c, 1, 4352
3, 124836, Note_on_c, 1, 50, 91
3, 124839, Pitch_bend_c, 1, 5376
3, 124850, Pitch_bend_c, 1, 6400
3, 124859, Pitch_bend_c, 1, 7296
3, 124869, Pitch_bend_c, 1, 8192
3, 124874, Pitch_bend_c, 1, 8192
3, 125507, Note_on_c, 1, 50, 0
3, 125535, Note_on_c, 1, 48, 74
3, 126153, Note_on_c, 1, 48, 0
3, 126239, Note_on_c, 1, 36, 58
3, 126274, Note_on_c, 1, 36, 65
3, 126330, Note_on_c, 1, 36, 0
3, 126361, Note_on_c, 1, 36, 0
3, 126725, Note_on_c, 1, 29, 63
3, 128160, Note_on_c, 1, 29, 0
3, 128178, Note_on_c, 1, 36, 68
3, 128228, Note_on_c, 1, 36, 0
3, 128666, Note_on_c, 1, 36, 76
3, 129955, Note_on_c, 1, 34, 55
3, 130047, Note_on_c, 1, 36, 0
3, 130057, Note_on_c, 1, 34, 0
3, 130128, Note_on_c, 1, 47, 92
3, 130642, Note_on_c, 1, 40, 65
3, 130659, Note_on_c, 1, 47, 0
3, 132311, Note_on_c, 1, 40, 0
3, 132330, Note_on_c, 1, 47, 67
3, 132492, Note_on_c, 1, 47, 0
3, 132522, Note_on_c, 1, 45, 63
3, 132625, Note_on_c, 1, 45, 0
3, 132968, Note_on_c, 1, 45, 66
3, 133432, Note_on_c, 1, 45, 0
3, 133473, Note_on_c, 1, 40, 42
3, 133615, Note_on_c, 1, 40, 0
3, 133923, Note_on_c, 1, 37, 46
3, 134228, Note_on_c, 1, 37, 0
3, 134394, Note_on_c, 1, 38, 51
3, 135909, Note_on_c, 1, 48, 99
3, 136060, Note_on_c, 1, 38, 0
3, 137547, Note_on_c, 1, 38, 42
3, 137601, Note_on_c, 1, 38, 0
3, 137730, Note_on_c, 1, 48, 0
3, 137757, Note_on_c, 1, 38, 53
3, 138247, Note_on_c, 1, 46, 71
3, 138250, Note_on_c, 1, 38, 0
3, 139682, Note_on_c, 1, 38, 58
3, 139794, Note_on_c, 1, 38, 0
3, 139896, Note_on_c, 1, 46, 0
3, 140173, Note_on_c, 1, 36, 63
3, 141085, Note_on_c, 1, 36, 0
3, 141138, Note_on_c, 1, 48, 78
3, 141256, Note_on_c, 1, 48, 0
3, 141423, Note_on_c, 1, 39, 57
3, 141565, Note_on_c, 1, 39, 0
3, 141622, Note_on_c, 1, 40, 57
3, 142023, Note_on_c, 1, 40, 0
3, 142077, Note_on_c, 1, 41, 48
3, 143322, Note_on_c, 1, 39, 45
3, 143422, Note_on_c, 1, 41, 0
3, 143490, Note_on_c, 1, 39, 0
3, 143519, Note_on_c, 1, 48, 44
3, 143822, Note_on_c, 1, 41, 35
3, 143857, Note_on_c, 1, 48, 0
3, 143941, Note_on_c, 1, 41, 0
3, 143991, Note_on_c, 1, 55, 71
3, 144423, Note_on_c, 1, 41, 24
3, 144516, Note_on_c, 1, 41, 0
3, 144703, Note_on_c, 1, 55, 0
3, 144745, Note_on_c, 1, 53, 60
3, 145268, Note_on_c, 1, 41, 43
3, 145335, Note_on_c, 1, 41, 0
3, 145449, Note_on_c, 1, 52, 59
3, 145488, Note_on_c, 1, 53, 0
3, 145838, Note_on_c, 1, 52, 0
3, 145928, Note_on_c, 1, 50, 50
3, 147157, Note_on_c, 1, 41, 26
3, 147192, Note_on_c, 1, 50, 0
3, 147215, Note_on_c, 1, 41, 0
3, 147323, Note_on_c, 1, 45, 48
3, 147384, Note_on_c, 1, 45, 0
3, 147599, Note_on_c, 1, 42, 44
3, 147744, Note_on_c, 1, 42, 0
3, 147834, Note_on_c, 1, 43, 34
3, 148026, Note_on_c, 1, 43, 0
3, 148162, Note_on_c, 1, 38, 55
3, 148247, Note_on_c, 1, 38, 0
3, 148314, Note_on_c, 1, 31, 59
3, 150143, Note_on_c, 1, 31, 0
3, 150274, Note_on_c, 1, 36, 61
3, 151051, Note_on_c, 1, 48, 58
3, 151416, Note_on_c, 1, 48, 0
3, 151490, Note_on_c, 1, 43, 24
3, 151666, Note_on_c, 1, 60, 65
3, 151698, Note_on_c, 1, 43, 0
3, 152386, Note_on_c, 1, 60, 0
3, 152441, Note_on_c, 1, 59, 59
3, 152549, Note_on_c, 1, 59, 0
3, 152657, Note_on_c, 1, 60, 81
3, 152872, Note_on_c, 1, 60, 0
3, 152896, Note_on_c, 1, 59, 58
3, 153026, Note_on_c, 1, 59, 0
3, 153110, Note_on_c, 1, 60, 80
3, 154379, Note_on_c, 1, 55, 58
3, 154398, Note_on_c, 1, 36, 0
3, 154412, Note_on_c, 1, 60, 0
3, 154518, Note_on_c, 1, 55, 0
3, 154572, Note_on_c, 1, 48, 55
3, 155009, Note_on_c, 1, 48, 0
3, 155031, Note_on_c, 1, 36, 71
3, 156342, Note_on_c, 1, 43, 26
3, 156405, Note_on_c, 1, 43, 0
3, 156480, Note_on_c, 1, 48, 53
3, 156534, Note_on_c, 1, 48, 0
3, 156571, Note_on_c, 1, 36, 0
3, 156736, Note_on_c, 1, 39, 69
3, 156884, Note_on_c, 1, 39, 0
3, 156989, Note_on_c, 1, 40, 40
3, 157399, Note_on_c, 1, 40, 0
3, 157420, Note_on_c, 1, 41, 53
3, 158669, Note_on_c, 1, 41, 0
3, 158738, Note_on_c, 1, 35, 52
3, 159345, Note_on_c, 1, 47, 99
3, 159350, Note_on_c, 1, 35, 0
3, 160593, Note_on_c, 1, 42, 43
3, 160695, Note_on_c, 1, 42, 0
3, 160729, Note_on_c, 1, 47, 0
3, 160819, Note_on_c, 1, 39, 55
3, 161261, Note_on_c, 1, 39, 0
3, 161335, Note_on_c, 1, 40, 32
3, 162726, Note_on_c, 1, 40, 0
3, 162754, Note_on_c, 1, 35, 50
3, 163103, Note_on_c, 1, 35, 0
3, 163269, Note_on_c, 1, 33, 52
3, 164668, Note_on_c, 1, 40, 56
3, 164721, Note_on_c, 1, 40, 0
3, 164843, Note_on_c, 1, 33, 0
3, 164940, Note_on_c, 1, 40, 63
3, 165021, Note_on_c, 1, 40, 0
3, 165139, Note_on_c, 1, 38, 58
3, 166491, Note_on_c, 1, 38, 0
3, 166513, Note_on_c, 1, 50, 55
3, 166570, Note_on_c, 1, 50, 0
3, 166803, Note_on_c, 1, 45, 43
3, 166875, Note_on_c, 1, 45, 0
3, 167012, Note_on_c, 1, 48, 56
3, 167096, Note_on_c, 1, 48, 0
3, 167525, Note_on_c, 1, 48, 62
3, 167693, Note_on_c, 1, 48, 0
3, 168022, Note_on_c, 1, 48, 62
3, 168137, Note_on_c, 1, 48, 0
3, 168544, Note_on_c, 1, 34, 58
3, 169959, Note_on_c, 1, 46, 44
3, 170011, Note_on_c, 1, 34, 0
3, 170095, Note_on_c, 1, 46, 0
3, 170275, Note_on_c, 1, 41, 35
3, 170464, Note_on_c, 1, 37, 36
3, 170707, Note_on_c, 1, 41, 0
3, 170741, Note_on_c, 1, 37, 0
3, 170937, Note_on_c, 1, 36, 65
3, 172133, Note_on_c, 1, 48, 35
3, 172191, Note_on_c, 1, 48, 0
3, 172347, Note_on_c, 1, 50, 64
3, 172551, Note_on_c, 1, 50, 0
3, 172594, Note_on_c, 1, 49, 50
3, 172600, Note_on_c, 1, 43, 28
3, 172662, Note_on_c, 1, 43, 0
3, 172665, Note_on_c, 1, 36, 0
3, 172736, Note_on_c, 1, 49, 0
3, 172796, Note_on_c, 1, 48, 52
3, 172954, Note_on_c, 1, 48, 0
3, 173085, Note_on_c, 1, 41, 67
3, 173194, Note_on_c, 1, 41, 0
3, 173259, Note_on_c, 1, 41, 37
3, 173687, Note_on_c, 1, 41, 0
3, 173766, Note_on_c, 1, 29, 44
3, 175021, Note_on_c, 1, 36, 45
3, 175120, Note_on_c, 1, 36, 0
3, 175188, Note_on_c, 1, 45, 72
3, 175278, Note_on_c, 1, 45, 0
3, 175397, Note_on_c, 1, 29, 0
3, 175666, Note_on_c, 1, 45, 101
3, 176358, Note_on_c, 1, 45, 0
3, 176377, Note_on_c, 1, 37, 60
3, 176554, Note_on_c, 1, 37, 0
3, 176596, Note_on_c, 1, 38, 70
3, 176967, Note_on_c, 1, 38, 0
3, 177079, Note_on_c, 1, 38, 66
3, 177581, Note_on_c, 1, 50, 84
3, 177618, Note_on_c, 1, 38, 0
3, 177796, Note_on_c, 1, 50, 0
3, 177858, Note_on_c, 1, 38, 53
3, 178008, Note_on_c, 1, 38, 0
3, 178060, Note_on_c, 1, 50, 81
3, 178870, Note_on_c, 1, 41, 35
3, 178928, Note_on_c, 1, 50, 0
3, 178941, Note_on_c, 1, 41, 0
3, 178999, Note_on_c, 1, 45, 69
3, 179317, Note_on_c, 1, 45, 0
3, 179363, Note_on_c, 1, 38, 19
3, 179416, Note_on_c, 1, 38, 0
3, 179495, Note_on_c, 1, 43, 49
3, 179825, Note_on_c, 1, 43, 0
3, 179835, Note_on_c, 1, 38, 64
3, 179842, Note_on_c, 1, 36, 79
3, 180057, Note_on_c, 1, 36, 0
3, 180415, Note_on_c, 1, 38, 0
3, 180472, Note_on_c, 1, 36, 70
3, 182761, Note_on_c, 1, 43, 32
3, 182841, Note_on_c, 1, 43, 0
3, 182886, Note_on_c, 1, 50, 83
3, 184153, Note_on_c, 1, 43, 37
3, 184214, Note_on_c, 1, 43, 0
3, 184243, Note_on_c, 1, 50, 0
3, 184326, Note_on_c, 1, 48, 56
3, 184494, Note_on_c, 1, 48, 0
3, 184637, Note_on_c, 1, 50, 66
3, 184770, Note_on_c, 1, 50, 0
3, 185598, Note_on_c, 1, 43, 24
3, 185661, Note_on_c, 1, 43, 0
3, 185735, Note_on_c, 1, 50, 92
3, 185814, Note_on_c, 1, 36, 0
3, 187050, Note_on_c, 1, 43, 44
3, 187104, Note_on_c, 1, 43, 0
3, 187130, Note_on_c, 1, 50, 0
3, 187220, Note_on_c, 1, 48, 56
3, 187273, Note_on_c, 1, 48, 0
3, 187500, Note_on_c, 1, 38, 43
3, 187657, Note_on_c, 1, 38, 0
3, 187704, Note_on_c, 1, 39, 50
3, 187822, Note_on_c, 1, 39, 0
3, 188163, Note_on_c, 1, 40, 51
3, 189316, Note_on_c, 1, 40, 0
3, 189379, Note_on_c, 1, 35, 36
3, 189446, Note_on_c, 1, 35, 0
3, 189588, Note_on_c, 1, 32, 50
3, 190029, Note_on_c, 1, 32, 0
3, 190089, Note_on_c, 1, 33, 54
3, 191531, Note_on_c, 1, 40, 48
3, 191561, Note_on_c, 1, 33, 0
3, 191596, Note_on_c, 1, 40, 0
3, 191833, Note_on_c, 1, 37, 53
3, 191935, Note_on_c, 1, 37, 0
3, 192057, Note_on_c, 1, 38, 66
3, 192811, Note_on_c, 1, 50, 79
3, 192890, Note_on_c, 1, 38, 0
3, 192957, Note_on_c, 1, 50, 0
3, 192998, Note_on_c, 1, 48, 71
3, 193759, Note_on_c, 1, 38, 47
3, 193832, Note_on_c, 1, 48, 0
3, 193937, Note_on_c, 1, 38, 0
3, 193957, Note_on_c, 1, 46, 77
3, 195204, Note_on_c, 1, 41, 59
3, 195251, Note_on_c, 1, 41, 0
3, 195255, Note_on_c, 1, 46, 0
3, 195362, Note_on_c, 1, 45, 60
3, 195652, Note_on_c, 1, 41, 37
3, 195668, Note_on_c, 1, 45, 0
3, 195724, Note_on_c, 1, 41, 0
3, 195882, Note_on_c, 1, 43, 57
3, 197073, Note_on_c, 1, 43, 0
3, 197078, Note_on_c, 1, 38, 57
3, 197131, Note_on_c, 1, 38, 0
3, 197272, Note_on_c, 1, 37, 59
3, 197696, Note_on_c, 1, 37, 0
3, 197775, Note_on_c, 1, 36, 56
3, 198722, Note_on_c, 1, 48, 70
3, 199267, Note_on_c, 1, 36, 0
3, 200420, Note_on_c, 1, 48, 0
3, 200439, Note_on_c, 1, 43, 34
3, 200501, Note_on_c, 1, 43, 0
3, 200647, Note_on_c, 1, 48, 90
3, 202434, Note_on_c, 1, 43, 33
3, 202495, Note_on_c, 1, 43, 0
3, 202808, Note_on_c, 1, 48, 0
3, 202843, Note_on_c, 1, 45, 75
3, 202893, Note_on_c, 1, 45, 0
3, 203060, Note_on_c, 1, 38, 50
3, 203064, Note_on_c, 1, 40, 54
3, 203428, Note_on_c, 1, 40, 0
3, 203488, Note_on_c, 1, 38, 0
3, 203552, Note_on_c, 1, 40, 54
3, 204773, Note_on_c, 1, 34, 64
3, 204826, Note_on_c, 1, 40, 0
3, 205389, Note_on_c, 1, 34, 0
3, 205446, Note_on_c, 1, 33, 59
3, 206698, Note_on_c, 1, 38, 55
3, 206763, Note_on_c, 1, 33, 0
3, 206825, Note_on_c, 1, 38, 0
3, 206880, Note_on_c, 1, 50, 68
3, 207120, Note_on_c, 1, 50, 0
3, 207393, Note_on_c, 1, 34, 71
3, 208366, Note_on_c, 1, 36, 70
3, 208414, Note_on_c, 1, 34, 0
3, 209161, Note_on_c, 1, 34, 35
3, 209259, Note_on_c, 1, 36, 0
3, 209314, Note_on_c, 1, 38, 58
3, 209412, Note_on_c, 1, 34, 0
3, 210730, Note_on_c, 1, 38, 0
3, 210752, Note_on_c, 1, 33, 62
3, 211166, Note_on_c, 1, 33, 0
3, 211225, Note_on_c, 1, 31, 58
3, 212716, Note_on_c, 1, 38, 58
3, 212767, Note_on_c, 1, 38, 0
3, 212821, Note_on_c, 1, 31, 0
3, 212975, Note_on_c, 1, 37, 58
3, 213076, Note_on_c, 1, 37, 0
3, 213188, Note_on_c, 1, 36, 73
3, 215854, Note_on_c, 1, 43, 24
3, 215936, Note_on_c, 1, 43, 0
3, 215975, Note_on_c, 1, 50, 68
3, 216180, Note_on_c, 1, 50, 0
3, 216213, Note_on_c, 1, 48, 62
3, 216331, Note_on_c, 1, 48, 0
3, 216449, Note_on_c, 1, 50, 72
3, 217729, Note_on_c, 1, 43, 25
3, 217787, Note_on_c, 1, 43, 0
3, 217842, Note_on_c, 1, 50, 0
3, 217912, Note_on_c, 1, 48, 62
3, 218057, Note_on_c, 1, 48, 0
3, 218119, Note_on_c, 1, 36, 0
3, 218191, Note_on_c, 1, 43, 55
3, 218305, Note_on_c, 1, 43, 0
3, 218363, Note_on_c, 1, 43, 49
3, 218833, Note_on_c, 1, 43, 0
3, 218862, Note_on_c, 1, 36, 73
3, 221085, Note_on_c, 1, 60, 84
3, 222039, Note_on_c, 1, 48, 55
3, 222099, Note_on_c, 1, 48, 0
3, 222159, Note_on_c, 1, 36, 0
3, 222241, Note_on_c, 1, 55, 46
3, 222575, Note_on_c, 1, 60, 0
3, 222637, Note_on_c, 1, 55, 0
3, 222732, Note_on_c, 1, 41, 60
3, 224507, Note_on_c, 1, 36, 45
3, 224510, Note_on_c, 1, 41, 0
3, 224567, Note_on_c, 1, 36, 0
3, 224688, Note_on_c, 1, 36, 49
3, 225087, Note_on_c, 1, 36, 0
3, 225168, Note_on_c, 1, 29, 55
3, 226436, Note_on_c, 1, 29, 0
3, 226623, Note_on_c, 1, 28, 63
3, 227994, Note_on_c, 1, 28, 0
3, 227999, Note_on_c, 1, 35, 58
3, 228063, Note_on_c, 1, 35, 0
3, 228274, Note_on_c, 1, 34, 56
3, 228343, Note_on_c, 1, 34, 0
3, 228497, Note_on_c, 1, 33, 49
3, 229423, Note_on_c, 1, 40, 78
3, 229535, Note_on_c, 1, 33, 0
3, 229741, Note_on_c, 1, 40, 0
3, 229912, Note_on_c, 1, 37, 57
3, 230308, Note_on_c, 1, 37, 0
3, 230403, Note_on_c, 1, 38, 66
3, 231576, Note_on_c, 1, 38, 0
3, 231684, Note_on_c, 1, 38, 48
3, 231731, Note_on_c, 1, 45, 50
3, 231810, Note_on_c, 1, 38, 0
3, 231817, Note_on_c, 1, 45, 0
3, 231913, Note_on_c, 1, 50, 76
3, 233157, Note_on_c, 1, 38, 54
3, 233169, Note_on_c, 1, 50, 0
3, 233228, Note_on_c, 1, 38, 0
3, 233308, Note_on_c, 1, 48, 79
3, 234129, Note_on_c, 1, 41, 43
3, 234210, Note_on_c, 1, 41, 0
3, 234223, Note_on_c, 1, 48, 0
3, 234265, Note_on_c, 1, 46, 74
3, 235241, Note_on_c, 1, 41, 59
3, 235323, Note_on_c, 1, 46, 0
3, 235376, Note_on_c, 1, 41, 0
3, 235711, Note_on_c, 1, 36, 69
3, 237048, Note_on_c, 1, 43, 37
3, 237108, Note_on_c, 1, 43, 0
3, 237152, Note_on_c, 1, 48, 94
3, 237176, Note_on_c, 1, 36, 0
3, 237908, Note_on_c, 1, 40, 50
3, 237974, Note_on_c, 1, 48, 0
3, 238025, Note_on_c, 1, 40, 0
3, 238109, Note_on_c, 1, 41, 64
3, 239318, Note_on_c, 1, 50, 68
3, 239373, Note_on_c, 1, 41, 0
3, 239443, Note_on_c, 1, 50, 0
3, 239511, Note_on_c, 1, 48, 66
3, 241306, Note_on_c, 1, 40, 59
3, 241355, Note_on_c, 1, 40, 0
3, 241386, Note_on_c, 1, 48, 0
3, 241467, Note_on_c, 1, 45, 62
3, 241949, Note_on_c, 1, 45, 0
3, 241999, Note_on_c, 1, 38, 62
3, 243149, Note_on_c, 1, 38, 0
3, 243257, Note_on_c, 1, 38, 61
3, 243372, Note_on_c, 1, 38, 0
3, 243375, Note_on_c, 1, 45, 66
3, 243803, Note_on_c, 1, 45, 0
3, 243855, Note_on_c, 1, 43, 60
3, 245079, Note_on_c, 1, 38, 50
3, 245097, Note_on_c, 1, 43, 0
3, 245153, Note_on_c, 1, 38, 0
3, 245258, Note_on_c, 1, 37, 64
3, 245645, Note_on_c, 1, 37, 0
3, 245756, Note_on_c, 1, 36, 62
3, 248429, Note_on_c, 1, 48, 66
3, 248519, Note_on_c, 1, 48, 0
3, 248652, Note_on_c, 1, 48, 63
3, 248756, Note_on_c, 1, 48, 0
3, 248908, Note_on_c, 1, 48, 63
3, 248989, Note_on_c, 1, 48, 0
3, 249115, Note_on_c, 1, 36, 0
3, 249138, Note_on_c, 1, 48, 79
3, 249867, Note_on_c, 1, 48, 0
3, 249958, Note_on_c, 1, 48, 70
3, 250073, Note_on_c, 1, 48, 0
3, 250392, Note_on_c, 1, 48, 53
3, 250464, Note_on_c, 1, 48, 0
3, 250638, Note_on_c, 1, 48, 80
3, 251848, Note_on_c, 1, 36, 68
3, 251945, Note_on_c, 1, 36, 0
3, 252045, Note_on_c, 1, 36, 68
3, 252288, Note_on_c, 1, 48, 0
3, 252384, Note_on_c, 1, 36, 0
3, 252543, Note_on_c, 1, 36, 69
3, 253393, Note_on_c, 1, 36, 0
3, 253449, Note_on_c, 1, 29, 48
3, 255288, Note_on_c, 1, 29, 0
3, 255393, Note_on_c, 1, 36, 57
3, 256179, Note_on_c, 1, 36, 0
3, 256204, Note_on_c, 1, 33, 44
3, 256231, Note_on_c, 1, 35, 55
3, 256273, Note_on_c, 1, 33, 0
3, 256283, Note_on_c, 1, 35, 0
3, 256292, Note_on_c, 1, 36, 48
3, 256333, Note_on_c, 1, 47, 90
3, 256361, Note_on_c, 1, 36, 0
3, 257146, Note_on_c, 1, 39, 50
3, 257237, Note_on_c, 1, 47, 0
3, 257259, Note_on_c, 1, 39, 0
3, 257323, Note_on_c, 1, 40, 51
3, 258723, Note_on_c, 1, 40, 0
3, 259019, Note_on_c, 1, 34, 51
3, 259082, Note_on_c, 1, 34, 0
3, 259257, Note_on_c, 1, 33, 56
3, 259564, Note_on_c, 1, 33, 0
3, 259695, Note_on_c, 1, 33, 50
3, 260456, Note_on_c, 1, 45, 65
3, 260484, Note_on_c, 1, 33, 0
3, 260518, Note_on_c, 1, 45, 0
3, 260669, Note_on_c, 1, 40, 41
3, 260757, Note_on_c, 1, 40, 0
3, 261012, Note_on_c, 1, 37, 59
3, 261155, Note_on_c, 1, 37, 0
3, 261238, Note_on_c, 1, 38, 56
3, 262020, Note_on_c, 1, 37, 35
3, 262079, Note_on_c, 1, 37, 0
3, 262100, Note_on_c, 1, 50, 79
3, 262143, Note_on_c, 1, 38, 0
3, 262885, Note_on_c, 1, 38, 53
3, 262935, Note_on_c, 1, 50, 0
3, 262961, Note_on_c, 1, 38, 0
3, 263051, Note_on_c, 1, 48, 66
3, 263802, Note_on_c, 1, 38, 48
3, 263828, Note_on_c, 1, 48, 0
3, 263920, Note_on_c, 1, 38, 0
3, 263993, Note_on_c, 1, 48, 89
3, 264807, Note_on_c, 1, 36, 38
3, 264869, Note_on_c, 1, 36, 0
3, 264889, Note_on_c, 1, 48, 0
3, 264973, Note_on_c, 1, 46, 58
3, 266217, Note_on_c, 1, 34, 53
3, 266259, Note_on_c, 1, 46, 0
3, 266315, Note_on_c, 1, 34, 0
3, 266389, Note_on_c, 1, 35, 47
3, 266886, Note_on_c, 1, 35, 0
3, 266925, Note_on_c, 1, 36, 36
3, 267670, Note_on_c, 1, 34, 35
3, 267765, Note_on_c, 1, 36, 0
3, 267805, Note_on_c, 1, 34, 0
3, 267864, Note_on_c, 1, 48, 68
3, 267986, Note_on_c, 1, 48, 0
3, 268320, Note_on_c, 1, 40, 50
3, 268491, Note_on_c, 1, 40, 0
3, 268809, Note_on_c, 1, 41, 58
3, 270254, Note_on_c, 1, 41, 0
3, 270263, Note_on_c, 1, 35, 45
3, 270354, Note_on_c, 1, 35, 0
3, 270756, Note_on_c, 1, 36, 59
3, 271527, Note_on_c, 1, 34, 46
3, 271601, Note_on_c, 1, 36, 0
3, 271648, Note_on_c, 1, 34, 0
3, 271683, Note_on_c, 1, 45, 94
3, 272424, Note_on_c, 1, 37, 50
3, 272478, Note_on_c, 1, 45, 0
3, 272558, Note_on_c, 1, 37, 0
3, 272627, Note_on_c, 1, 38, 56
3, 273936, Note_on_c, 1, 37, 47
3, 273955, Note_on_c, 1, 38, 0
3, 274026, Note_on_c, 1, 37, 0
3, 274052, Note_on_c, 1, 45, 90
3, 274399, Note_on_c, 1, 38, 32
3, 274469, Note_on_c, 1, 38, 0
3, 274505, Note_on_c, 1, 45, 0
3, 274570, Note_on_c, 1, 43, 57
3, 275844, Note_on_c, 1, 38, 68
3, 275893, Note_on_c, 1, 43, 0
3, 276065, Note_on_c, 1, 37, 67
3, 276139, Note_on_c, 1, 38, 0
3, 276456, Note_on_c, 1, 37, 0
3, 276512, Note_on_c, 1, 36, 67
3, 278227, Note_on_c, 1, 48, 63
3, 278309, Note_on_c, 1, 48, 0
3, 278426, Note_on_c, 1, 48, 66
3, 278542, Note_on_c, 1, 48, 0
3, 278724, Note_on_c, 1, 48, 68
3, 278791, Note_on_c, 1, 48, 0
3, 278895, Note_on_c, 1, 48, 71
3, 278956, Note_on_c, 1, 36, 0
3, 279204, Note_on_c, 1, 48, 0
3, 279370, Note_on_c, 1, 48, 83
3, 279779, Note_on_c, 1, 48, 0
3, 279855, Note_on_c, 1, 36, 64
3, 280135, Note_on_c, 1, 36, 0
3, 280334, Note_on_c, 1, 36, 76
3, 282028, Note_on_c, 1, 48, 68
3, 282145, Note_on_c, 1, 48, 0
3, 282186, Note_on_c, 1, 36, 0
3, 282244, Note_on_c, 1, 48, 64
3, 282425, Note_on_c, 1, 48, 0
3, 282517, Note_on_c, 1, 48, 74
3, 282618, Note_on_c, 1, 48, 0
3, 282705, Note_on_c, 1, 48, 66
3, 282857, Note_on_c, 1, 48, 0
3, 283210, Note_on_c, 1, 48, 87
3, 283949, Note_on_c, 1, 40, 58
3, 283953, Note_on_c, 1, 48, 0
3, 284121, Note_on_c, 1, 40, 0
3, 284165, Note_on_c, 1, 41, 61
3, 284417, Note_on_c, 1, 41, 0
3, 284619, Note_on_c, 1, 41, 61
3, 285996, Note_on_c, 1, 41, 0
3, 286127, Note_on_c, 1, 36, 70
3, 287287, Note_on_c, 1, 36, 0
3, 287312, Note_on_c, 1, 41, 53
3, 287403, Note_on_c, 1, 41, 0
3, 287520, Note_on_c, 1, 35, 60
3, 287976, Note_on_c, 1, 35, 0
3, 288009, Note_on_c, 1, 40, 67
3, 289804, Note_on_c, 1, 40, 0
3, 289811, Note_on_c, 1, 34, 51
3, 289871, Note_on_c, 1, 34, 0
3, 289993, Note_on_c, 1, 33, 65
3, 291200, Note_on_c, 1, 33, 0
3, 291203, Note_on_c, 1, 40, 46
3, 291279, Note_on_c, 1, 40, 0
3, 291380, Note_on_c, 1, 37, 38
3, 291890, Note_on_c, 1, 37, 0
3, 291904, Note_on_c, 1, 38, 61
3, 293163, Note_on_c, 1, 37, 65
3, 293211, Note_on_c, 1, 38, 0
3, 293301, Note_on_c, 1, 50, 92
3, 293318, Note_on_c, 1, 37, 0
3, 294141, Note_on_c, 1, 38, 54
3, 294242, Note_on_c, 1, 50, 0
3, 294282, Note_on_c, 1, 38, 0
3, 294305, Note_on_c, 1, 48, 72
3, 295040, Note_on_c, 1, 48, 0
3, 295045, Note_on_c, 1, 38, 52
3, 295187, Note_on_c, 1, 38, 0
3, 295206, Note_on_c, 1, 48, 87
3, 295674, Note_on_c, 1, 48, 0
3, 295726, Note_on_c, 1, 46, 71
3, 297131, Note_on_c, 1, 46, 0
3, 297153, Note_on_c, 1, 37, 51
3, 297500, Note_on_c, 1, 37, 0
3, 297621, Note_on_c, 1, 36, 55
3, 298381, Note_on_c, 1, 41, 46
3, 298450, Note_on_c, 1, 41, 0
3, 298537, Note_on_c, 1, 36, 0
3, 298573, Note_on_c, 1, 48, 87
3, 299012, Note_on_c, 1, 48, 0
3, 299065, Note_on_c, 1, 40, 42
3, 299527, Note_on_c, 1, 40, 0
3, 299558, Note_on_c, 1, 41, 52
3, 300538, Note_on_c, 1, 41, 0
3, 300569, Note_on_c, 1, 36, 34
3, 300638, Note_on_c, 1, 36, 0
3, 301002, Note_on_c, 1, 36, 66
3, 302630, Note_on_c, 1, 36, 0
3, 302705, Note_on_c, 1, 33, 64
3, 303339, Note_on_c, 1, 33, 0
3, 303382, Note_on_c, 1, 38, 62
3, 304140, Note_on_c, 1, 34, 46
3, 304241, Note_on_c, 1, 38, 0
3, 304318, Note_on_c, 1, 34, 0
3, 304321, Note_on_c, 1, 45, 75
3, 304526, Note_on_c, 1, 45, 0
3, 304657, Note_on_c, 1, 38, 24
3, 304776, Note_on_c, 1, 38, 0
3, 304794, Note_on_c, 1, 44, 67
3, 305106, Note_on_c, 1, 38, 32
3, 305124, Note_on_c, 1, 44, 0
3, 305180, Note_on_c, 1, 38, 0
3, 305301, Note_on_c, 1, 43, 64
3, 306289, Note_on_c, 1, 38, 66
3, 306310, Note_on_c, 1, 43, 0
3, 307150, Note_on_c, 1, 38, 0
3, 307260, Note_on_c, 1, 36, 64
3, 307732, Note_on_c, 1, 48, 58
3, 307797, Note_on_c, 1, 48, 0
3, 308050, Note_on_c, 1, 48, 64
3, 308114, Note_on_c, 1, 48, 0
3, 308255, Note_on_c, 1, 48, 69
3, 309162, Note_on_c, 1, 36, 0
3, 309373, Note_on_c, 1, 48, 0
3, 309383, Note_on_c, 1, 36, 47
3, 309442, Note_on_c, 1, 36, 0
3, 309567, Note_on_c, 1, 36, 61
3, 309933, Note_on_c, 1, 36, 0
3, 310101, Note_on_c, 1, 36, 71
3, 310872, Note_on_c, 1, 48, 54
3, 310934, Note_on_c, 1, 48, 0
3, 311038, Note_on_c, 1, 36, 0
3, 311083, Note_on_c, 1, 48, 67
3, 311503, Note_on_c, 1, 48, 0
3, 311534, Note_on_c, 1, 36, 78
3, 312277, Note_on_c, 1, 48, 62
3, 312349, Note_on_c, 1, 48, 0
3, 312463, Note_on_c, 1, 36, 0
3, 312497, Note_on_c, 1, 48, 78
3, 313259, Note_on_c, 1, 36, 57
3, 313291, Note_on_c, 1, 48, 0
3, 313321, Note_on_c, 1, 36, 0
3, 313432, Note_on_c, 1, 36, 64
3, 314153, Note_on_c, 1, 36, 0
3, 314199, Note_on_c, 1, 38, 67
3, 314315, Note_on_c, 1, 38, 0
3, 314409, Note_on_c, 1, 39, 61
3, 314809, Note_on_c, 1, 39, 0
3, 314874, Note_on_c, 1, 40, 55
3, 316284, Note_on_c, 1, 40, 0
3, 316339, Note_on_c, 1, 34, 50
3, 316736, Note_on_c, 1, 34, 0
3, 316830, Note_on_c, 1, 33, 55
3, 318063, Note_on_c, 1, 40, 47
3, 318121, Note_on_c, 1, 40, 0
3, 318152, Note_on_c, 1, 33, 0
3, 318543, Note_on_c, 1, 39, 67
3, 318671, Note_on_c, 1, 39, 0
3, 318786, Note_on_c, 1, 38, 62
3, 319483, Note_on_c, 1, 37, 36
3, 319516, Note_on_c, 1, 50, 69
3, 319567, Note_on_c, 1, 38, 0
3, 319596, Note_on_c, 1, 37, 0
3, 319719, Note_on_c, 1, 48, 71
3, 319762, Note_on_c, 1, 50, 0
3, 320497, Note_on_c, 1, 41, 53
3, 320568, Note_on_c, 1, 41, 0
3, 320578, Note_on_c, 1, 48, 0
3, 320689, Note_on_c, 1, 47, 66
3, 320897, Note_on_c, 1, 47, 0
3, 321096, Note_on_c, 1, 46, 71
3, 321522, Note_on_c, 1, 46, 0
3, 321608, Note_on_c, 1, 45, 81
3, 322414, Note_on_c, 1, 41, 45
3, 322476, Note_on_c, 1, 45, 0
3, 322491, Note_on_c, 1, 41, 0
3, 322588, Note_on_c, 1, 43, 48
3, 322861, Note_on_c, 1, 43, 0
3, 323077, Note_on_c, 1, 43, 58
3, 323835, Note_on_c, 1, 38, 63
3, 323866, Note_on_c, 1, 43, 0
3, 323965, Note_on_c, 1, 38, 0
3, 324303, Note_on_c, 1, 37, 60
3, 324466, Note_on_c, 1, 37, 0
3, 324518, Note_on_c, 1, 36, 63
3, 325667, Note_on_c, 1, 36, 0
3, 325789, Note_on_c, 1, 36, 45
3, 325921, Note_on_c, 1, 36, 0
3, 325935, Note_on_c, 1, 50, 74
3, 326399, Note_on_c, 1, 50, 0
3, 326466, Note_on_c, 1, 48, 65
3, 327676, Note_on_c, 1, 40, 53
3, 327732, Note_on_c, 1, 48, 0
3, 327834, Note_on_c, 1, 40, 0
3, 327874, Note_on_c, 1, 41, 57
3, 329104, Note_on_c, 1, 41, 0
3, 329154, Note_on_c, 1, 48, 75
3, 329248, Note_on_c, 1, 48, 0
3, 329326, Note_on_c, 1, 48, 71
3, 329718, Note_on_c, 1, 48, 0
3, 329761, Note_on_c, 1, 41, 62
3, 330210, Note_on_c, 1, 41, 0
3, 330281, Note_on_c, 1, 40, 69
3, 331425, Note_on_c, 1, 40, 0
3, 331517, Note_on_c, 1, 34, 72
3, 332139, Note_on_c, 1, 34, 0
3, 332211, Note_on_c, 1, 33, 61
3, 332960, Note_on_c, 1, 40, 66
3, 333080, Note_on_c, 1, 33, 0
3, 333212, Note_on_c, 1, 40, 0
3, 333419, Note_on_c, 1, 40, 60
3, 333554, Note_on_c, 1, 40, 0
3, 333608, Note_on_c, 1, 37, 62
3, 334134, Note_on_c, 1, 37, 0
3, 334141, Note_on_c, 1, 38, 65
3, 334903, Note_on_c, 1, 37, 57
3, 334984, Note_on_c, 1, 38, 0
3, 335029, Note_on_c, 1, 37, 0
3, 335098, Note_on_c, 1, 50, 80
3, 335279, Note_on_c, 1, 50, 0
3, 335546, Note_on_c, 1, 48, 83
3, 335978, Note_on_c, 1, 48, 0
3, 336045, Note_on_c, 1, 46, 80
3, 336977, Note_on_c, 1, 46, 0
3, 337024, Note_on_c, 1, 45, 74
3, 337809, Note_on_c, 1, 42, 50
3, 337836, Note_on_c, 1, 45, 0
3, 337860, Note_on_c, 1, 42, 0
3, 337951, Note_on_c, 1, 43, 64
3, 339197, Note_on_c, 1, 38, 54
3, 339225, Note_on_c, 1, 43, 0
3, 339321, Note_on_c, 1, 38, 0
3, 339390, Note_on_c, 1, 37, 51
3, 339762, Note_on_c, 1, 37, 0
3, 339858, Note_on_c, 1, 36, 65
3, 340630, Note_on_c, 1, 48, 63
3, 340690, Note_on_c, 1, 48, 0
3, 340785, Note_on_c, 1, 48, 65
3, 340936, Note_on_c, 1, 48, 0
3, 341273, Note_on_c, 1, 48, 99
3, 342379, Note_on_c, 1, 36, 0
3, 342702, Note_on_c, 1, 36, 68
3, 342782, Note_on_c, 1, 36, 0
3, 343207, Note_on_c, 1, 36, 75
3, 343299, Note_on_c, 1, 36, 0
3, 343685, Note_on_c, 1, 36, 84
3, 344314, Note_on_c, 1, 36, 0
3, 344446, Note_on_c, 1, 36, 72
3, 344594, Note_on_c, 1, 36, 0
3, 344914, Note_on_c, 1, 36, 78
3, 345030, Note_on_c, 1, 36, 0
3, 345366, Note_on_c, 1, 35, 63
3, 345499, Note_on_c, 1, 35, 0
3, 345582, Note_on_c, 1, 48, 0
3, 345606, Note_on_c, 1, 36, 78
3, 346579, Note_on_c, 1, 48, 83
3, 346683, Note_on_c, 1, 48, 0
3, 346831, Note_on_c, 1, 48, 75
3, 346934, Note_on_c, 1, 48, 0
3, 347345, Note_on_c, 1, 48, 88
3, 347448, Note_on_c, 1, 48, 0
3, 347799, Note_on_c, 1, 48, 82
3, 347937, Note_on_c, 1, 48, 0
3, 348319, Note_on_c, 1, 47, 43
3, 348381, Note_on_c, 1, 36, 0
3, 348383, Note_on_c, 1, 47, 0
3, 348483, Note_on_c, 1, 48, 67
3, 348661, Note_on_c, 1, 48, 0
3, 348786, Note_on_c, 1, 39, 63
3, 348827, Note_on_c, 1, 40, 55
3, 348880, Note_on_c, 1, 39, 0
3, 348897, Note_on_c, 1, 40, 0
3, 349026, Note_on_c, 1, 40, 34
3, 349417, Note_on_c, 1, 40, 0
3, 349440, Note_on_c, 1, 29, 64
3, 350891, Note_on_c, 1, 36, 42
3, 351009, Note_on_c, 1, 36, 0
3, 351125, Pitch_bend_c, 1, 8192
3, 351136, Pitch_bend_c, 1, 7552
3, 351146, Pitch_bend_c, 1, 6912
3, 351156, Pitch_bend_c, 1, 6144
3, 351166, Pitch_bend_c, 1, 5376
3, 351176, Pitch_bend_c, 1, 4608
3, 351186, Pitch_bend_c, 1, 3968
3, 351196, Pitch_bend_c, 1, 3328
3, 351207, Pitch_bend_c, 1, 2560
3, 351217, Pitch_bend_c, 1, 2176
3, 351227, Pitch_bend_c, 1, 1664
3, 351237, Pitch_bend_c, 1, 1280
3, 351247, Pitch_bend_c, 1, 896
3, 351257, Pitch_bend_c, 1, 640
3, 351268, Pitch_bend_c, 1, 384
3, 351278, Pitch_bend_c, 1, 128
3, 351359, Note_on_c, 1, 43, 83
3, 351382, Pitch_bend_c, 1, 512
3, 351392, Pitch_bend_c, 1, 896
3, 351404, Pitch_bend_c, 1, 1152
3, 351412, Pitch_bend_c, 1, 1664
3, 351422, Pitch_bend_c, 1, 2048
3, 351434, Pitch_bend_c, 1, 2560
3, 351443, Pitch_bend_c, 1, 2944
3, 351453, Pitch_bend_c, 1, 3072
3, 351465, Pitch_bend_c, 1, 3328
3, 351483, Pitch_bend_c, 1, 3456
3, 351509, Pitch_bend_c, 1, 3584
3, 351530, Pitch_bend_c, 1, 3712
3, 351539, Pitch_bend_c, 1, 3840
3, 351549, Pitch_bend_c, 1, 3968
3, 351560, Pitch_bend_c, 1, 4224
3, 351570, Pitch_bend_c, 1, 4480
3, 351580, Pitch_bend_c, 1, 4736
3, 351590, Pitch_bend_c, 1, 4864
3, 351600, Pitch_bend_c, 1, 5120
3, 351620, Pitch_bend_c, 1, 5376
3, 351670, Pitch_bend_c, 1, 5504
3, 351696, Pitch_bend_c, 1, 5760
3, 351707, Pitch_bend_c, 1, 5888
3, 351715, Pitch_bend_c, 1, 6144
3, 351725, Pitch_bend_c, 1, 6528
3, 351737, Pitch_bend_c, 1, 6784
3, 351747, Pitch_bend_c, 1, 7168
3, 351757, Pitch_bend_c, 1, 7552
3, 351768, Pitch_bend_c, 1, 8192
3, 351772, Pitch_bend_c, 1, 8192
3, 351788, Pitch_bend_c, 1, 8192
3, 352053, Note_on_c, 1, 41, 69
3, 352124, Note_on_c, 1, 43, 0
3, 352745, Note_on_c, 1, 29, 0
3, 352793, Note_on_c, 1, 41, 0
3, 352809, Note_on_c, 1, 36, 68
3, 353167, Note_on_c, 1, 36, 0
3, 353259, Note_on_c, 1, 28, 68
3, 354730, Note_on_c, 1, 35, 71
3, 354788, Note_on_c, 1, 28, 0
3, 355130, Note_on_c, 1, 35, 0
3, 355213, Note_on_c, 1, 33, 71
3, 355925, Note_on_c, 1, 40, 74
3, 356539, Note_on_c, 1, 33, 0
3, 356604, Note_on_c, 1, 40, 0
3, 356655, Note_on_c, 1, 37, 53
3, 357067, Note_on_c, 1, 37, 0
3, 357138, Note_on_c, 1, 38, 66
3, 358539, Note_on_c, 1, 45, 30
3, 358598, Note_on_c, 1, 45, 0
3, 358803, Note_on_c, 1, 45, 43
3, 358877, Note_on_c, 1, 45, 0
3, 358966, Pitch_bend_c, 1, 8192
3, 358972, Pitch_bend_c, 1, 8192
3, 358982, Pitch_bend_c, 1, 7680
3, 358994, Pitch_bend_c, 1, 7168
3, 359004, Pitch_bend_c, 1, 6528
3, 359011, Pitch_bend_c, 1, 5888
3, 359023, Pitch_bend_c, 1, 5376
3, 359028, Note_on_c, 1, 52, 82
3, 359033, Pitch_bend_c, 1, 4736
3, 359043, Pitch_bend_c, 1, 4352
3, 359055, Pitch_bend_c, 1, 3840
3, 359065, Pitch_bend_c, 1, 3456
3, 359073, Pitch_bend_c, 1, 3072
3, 359083, Pitch_bend_c, 1, 2688
3, 359095, Pitch_bend_c, 1, 2560
3, 359105, Pitch_bend_c, 1, 2432
3, 359116, Pitch_bend_c, 1, 2304
3, 359144, Pitch_bend_c, 1, 2176
3, 359166, Pitch_bend_c, 1, 2304
3, 359176, Pitch_bend_c, 1, 2432
3, 359184, Pitch_bend_c, 1, 2560
3, 359194, Pitch_bend_c, 1, 2816
3, 359206, Pitch_bend_c, 1, 3072
3, 359216, Pitch_bend_c, 1, 3456
3, 359227, Pitch_bend_c, 1, 3840
3, 359237, Pitch_bend_c, 1, 4352
3, 359246, Pitch_bend_c, 1, 4992
3, 359257, Pitch_bend_c, 1, 5632
3, 359267, Pitch_bend_c, 1, 6016
3, 359277, Pitch_bend_c, 1, 6272
3, 359288, Pitch_bend_c, 1, 6400
3, 359322, Pitch_bend_c, 1, 6528
3, 359362, Pitch_bend_c, 1, 6656
3, 359392, Pitch_bend_c, 1, 6912
3, 359414, Pitch_bend_c, 1, 7040
3, 359422, Pitch_bend_c, 1, 7168
3, 359432, Pitch_bend_c, 1, 7424
3, 359444, Pitch_bend_c, 1, 7552
3, 359453, Pitch_bend_c, 1, 8192
3, 359459, Pitch_bend_c, 1, 8192
3, 359465, Pitch_bend_c, 1, 8192
3, 359471, Pitch_bend_c, 1, 8192
3, 359713, Note_on_c, 1, 50, 71
3, 359751, Note_on_c, 1, 38, 0
3, 359768, Note_on_c, 1, 52, 0
3, 360220, Note_on_c, 1, 45, 60
3, 360385, Note_on_c, 1, 45, 0
3, 360403, Note_on_c, 1, 50, 0
3, 360406, Note_on_c, 1, 38, 62
3, 360746, Note_on_c, 1, 38, 0
3, 360917, Note_on_c, 1, 34, 69
3, 362300, Note_on_c, 1, 34, 0
3, 362340, Note_on_c, 1, 34, 35
3, 362848, Note_on_c, 1, 36, 69
3, 362892, Note_on_c, 1, 34, 0
3, 364026, Note_on_c, 1, 36, 0
3, 364769, Note_on_c, 1, 29, 55
3, 366227, Note_on_c, 1, 36, 47
3, 366293, Note_on_c, 1, 36, 0
3, 366511, Pitch_bend_c, 1, 8192
3, 366521, Pitch_bend_c, 1, 7552
3, 366532, Pitch_bend_c, 1, 6784
3, 366542, Pitch_bend_c, 1, 6144
3, 366551, Pitch_bend_c, 1, 5504
3, 366562, Pitch_bend_c, 1, 4864
3, 366572, Pitch_bend_c, 1, 4224
3, 366582, Pitch_bend_c, 1, 3712
3, 366593, Pitch_bend_c, 1, 3200
3, 366602, Pitch_bend_c, 1, 2560
3, 366612, Pitch_bend_c, 1, 2304
3, 366623, Pitch_bend_c, 1, 1920
3, 366633, Pitch_bend_c, 1, 1664
3, 366643, Pitch_bend_c, 1, 1280
3, 366655, Pitch_bend_c, 1, 896
3, 366663, Pitch_bend_c, 1, 640
3, 366673, Pitch_bend_c, 1, 384
3, 366685, Pitch_bend_c, 1, 128
3, 366695, Pitch_bend_c, 1, 0
3, 366723, Note_on_c, 1, 43, 78
3, 366760, Pitch_bend_c, 1, 384
3, 366760, Note_on_c, 1, 44, 37
3, 366770, Pitch_bend_c, 1, 640
3, 366780, Pitch_bend_c, 1, 1024
3, 366790, Pitch_bend_c, 1, 1664
3, 366800, Pitch_bend_c, 1, 2048
3, 366810, Pitch_bend_c, 1, 2560
3, 366813, Note_on_c, 1, 44, 0
3, 366820, Pitch_bend_c, 1, 3072
3, 366831, Pitch_bend_c, 1, 3584
3, 366840, Pitch_bend_c, 1, 3968
3, 366850, Pitch_bend_c, 1, 4224
3, 366861, Pitch_bend_c, 1, 4480
3, 366871, Pitch_bend_c, 1, 4608
3, 366881, Pitch_bend_c, 1, 4736
3, 366901, Pitch_bend_c, 1, 4992
3, 366911, Pitch_bend_c, 1, 5120
3, 366921, Pitch_bend_c, 1, 5376
3, 366932, Pitch_bend_c, 1, 5504
3, 366942, Pitch_bend_c, 1, 5632
3, 366952, Pitch_bend_c, 1, 5760
3, 366961, Pitch_bend_c, 1, 5888
3, 366972, Pitch_bend_c, 1, 6272
3, 366982, Pitch_bend_c, 1, 6528
3, 366994, Pitch_bend_c, 1, 6912
3, 367004, Pitch_bend_c, 1, 7296
3, 367014, Pitch_bend_c, 1, 7680
3, 367023, Pitch_bend_c, 1, 8192
3, 367029, Pitch_bend_c, 1, 8192
3, 367187, Note_on_c, 1, 29, 0
3, 367471, Note_on_c, 1, 41, 65
3, 367488, Note_on_c, 1, 44, 25
3, 367548, Note_on_c, 1, 43, 0
3, 367599, Note_on_c, 1, 44, 0
3, 368153, Note_on_c, 1, 40, 42
3, 368242, Note_on_c, 1, 40, 0
3, 368625, Note_on_c, 1, 38, 70
3, 368667, Note_on_c, 1, 41, 0
3, 369987, Note_on_c, 1, 38, 0
3, 370034, Note_on_c, 1, 33, 37
3, 370472, Note_on_c, 1, 33, 0
3, 370519, Note_on_c, 1, 31, 57
3, 372452, Note_on_c, 1, 31, 0
3, 372503, Note_on_c, 1, 36, 60
3, 374212, Note_on_c, 1, 43, 31
3, 374284, Note_on_c, 1, 43, 0
3, 374428, Note_on_c, 1, 50, 90
3, 375105, Note_on_c, 1, 48, 69
3, 375132, Note_on_c, 1, 50, 0
3, 375842, Note_on_c, 1, 43, 28
3, 375889, Note_on_c, 1, 48, 0
3, 376080, Note_on_c, 1, 36, 0
3, 376317, Note_on_c, 1, 43, 0
3, 376341, Note_on_c, 1, 36, 63
3, 377722, Note_on_c, 1, 43, 28
3, 377795, Note_on_c, 1, 43, 0
3, 377943, Pitch_bend_c, 1, 8192
3, 377954, Pitch_bend_c, 1, 7552
3, 377964, Pitch_bend_c, 1, 6784
3, 377974, Pitch_bend_c, 1, 6016
3, 377985, Pitch_bend_c, 1, 5504
3, 377994, Pitch_bend_c, 1, 4736
3, 378004, Pitch_bend_c, 1, 4224
3, 378015, Pitch_bend_c, 1, 3840
3, 378020, Note_on_c, 1, 43, 46
3, 378025, Pitch_bend_c, 1, 3456
3, 378035, Pitch_bend_c, 1, 3200
3, 378047, Pitch_bend_c, 1, 2816
3, 378055, Pitch_bend_c, 1, 2560
3, 378065, Pitch_bend_c, 1, 2304
3, 378077, Pitch_bend_c, 1, 1920
3, 378087, Pitch_bend_c, 1, 1664
3, 378097, Pitch_bend_c, 1, 1408
3, 378108, Pitch_bend_c, 1, 1152
3, 378116, Pitch_bend_c, 1, 1024
3, 378126, Pitch_bend_c, 1, 896
3, 378145, Note_on_c, 1, 43, 0
3, 378148, Pitch_bend_c, 1, 640
3, 378198, Pitch_bend_c, 1, 896
3, 378208, Pitch_bend_c, 1, 1024
3, 378210, Note_on_c, 1, 36, 0
3, 378218, Pitch_bend_c, 1, 1408
3, 378229, Pitch_bend_c, 1, 1792
3, 378237, Pitch_bend_c, 1, 2176
3, 378247, Pitch_bend_c, 1, 2688
3, 378259, Pitch_bend_c, 1, 3456
3, 378269, Pitch_bend_c, 1, 4352
3, 378276, Note_on_c, 1, 50, 91
3, 378279, Pitch_bend_c, 1, 5376
3, 378290, Pitch_bend_c, 1, 6400
3, 378299, Pitch_bend_c, 1, 7296
3, 378309, Pitch_bend_c, 1, 8192
3, 378314, Pitch_bend_c, 1, 8192
3, 378947, Note_on_c, 1, 50, 0
3, 378975, Note_on_c, 1, 48, 74
3, 379593, Note_on_c, 1, 48, 0
3, 379679, Note_on_c, 1, 36, 58
3, 379801, Note_on_c, 1, 36, 0
3, 380149, Note_on_c, 1, 36, 57
3, 380322, Note_on_c, 1, 36, 0
3, 380624, Note_on_c, 1, 36, 54
3, 382829, Note_on_c, 1, 41, 30
3, 382922, Note_on_c, 1, 41, 0
3, 383014, Note_on_c, 1, 50, 44
3, 383164, Note_on_c, 1, 50, 0
3, 383450, Note_on_c, 1, 36, 0
3, 383515, Note_on_c, 1, 50, 56
3, 383905, Note_on_c, 1, 50, 0
3, 384002, Note_on_c, 1, 48, 35
3, 384121, Note_on_c, 1, 48, 0
3, 384481, Note_on_c, 1, 36, 54
3, 384620, Note_on_c, 1, 36, 0
3, 384971, Note_on_c, 1, 36, 49
3, 385495, Note_on_c, 1, 36, 0
3, 385695, Note_on_c, 1, 36, 39
3, 385849, Note_on_c, 1, 36, 0
3, 386408, Note_on_c, 1, 36, 38
3, 389600, Note_on_c, 1, 48, 18
3, 389664, Note_on_c, 1, 48, 0
3, 389804, Note_on_c, 1, 48, 17
3, 389983, Note_on_c, 1, 48, 0
3, 390535, Note_on_c, 1, 48, 15
3, 390620, Note_on_c, 1, 48, 0
3, 390762, Note_on_c, 1, 36, 0
3, 391052, Note_on_c, 1, 36, 18
3, 391112, Note_on_c, 1, 36, 0
3, 391263, Note_on_c, 1, 36, 15
3, 393652, Note_on_c, 1, 48, 7
3, 393773, Note_on_c, 1, 48, 0
3, 394342, Note_on_c, 1, 48, 8
3, 394420, Note_on_c, 1, 36, 0
3, 394973, Note_on_c, 1, 48, 0
3, 395058, Note_on_c, 1, 36, 10
3, 398798, Note_on_c, 1, 36, 0
3, 399389, Note_on_c, 1, 36, 1
3, 407724, Note_on_c, 1, 36, 0
3, 407724, End_track
4, 0, Start_track
4, 0, Title_t, "Drums"
4, 0, Program_c, 9, 0
4, 0, Control_c, 9, 7, 99
4, 0, Control_c, 9, 93, 0
4, 480, Note_on_c, 9, 53, 47
4, 582, Note_on_c, 9, 53, 0
4, 746, Note_on_c, 9, 64, 47
4, 877, Note_on_c, 9, 64, 0
4, 956, Note_on_c, 9, 64, 32
4, 1142, Note_on_c, 9, 64, 0
4, 1440, Note_on_c, 9, 53, 46
4, 1538, Note_on_c, 9, 53, 0
4, 2400, Note_on_c, 9, 53, 20
4, 2476, Note_on_c, 9, 53, 0
4, 2647, Note_on_c, 9, 64, 46
4, 2759, Note_on_c, 9, 64, 0
4, 2860, Note_on_c, 9, 64, 26
4, 3075, Note_on_c, 9, 64, 0
4, 3360, Note_on_c, 9, 53, 61
4, 3472, Note_on_c, 9, 53, 0
4, 4320, Note_on_c, 9, 53, 29
4, 4382, Note_on_c, 9, 53, 0
4, 4610, Note_on_c, 9, 64, 49
4, 4680, Note_on_c, 9, 64, 0
4, 4811, Note_on_c, 9, 64, 56
4, 5058, Note_on_c, 9, 64, 0
4, 5280, Note_on_c, 9, 53, 31
4, 5339, Note_on_c, 9, 53, 0
4, 6240, Note_on_c, 9, 53, 39
4, 6297, Note_on_c, 9, 53, 0
4, 6507, Note_on_c, 9, 64, 49
4, 6590, Note_on_c, 9, 64, 0
4, 6721, Note_on_c, 9, 64, 32
4, 6943, Note_on_c, 9, 64, 0
4, 7200, Note_on_c, 9, 53, 49
4, 7256, Note_on_c, 9, 53, 0
4, 8160, Note_on_c, 9, 53, 37
4, 8220, Note_on_c, 9, 53, 0
4, 8467, Note_on_c, 9, 64, 45
4, 8545, Note_on_c, 9, 64, 0
4, 8700, Note_on_c, 9, 64, 39
4, 8880, Note_on_c, 9, 64, 0
4, 9120, Note_on_c, 9, 53, 40
4, 9182, Note_on_c, 9, 53, 0
4, 10080, Note_on_c, 9, 53, 37
4, 10149, Note_on_c, 9, 53, 0
4, 10353, Note_on_c, 9, 64, 44
4, 10477, Note_on_c, 9, 64, 0
4, 10564, Note_on_c, 9, 64, 19
4, 10798, Note_on_c, 9, 64, 0
4, 11040, Note_on_c, 9, 53, 43
4, 11109, Note_on_c, 9, 53, 0
4, 12000, Note_on_c, 9, 53, 41
4, 12057, Note_on_c, 9, 53, 0
4, 12313, Note_on_c, 9, 64, 45
4, 12407, Note_on_c, 9, 64, 0
4, 12539, Note_on_c, 9, 64, 24
4, 12751, Note_on_c, 9, 64, 0
4, 12960, Note_on_c, 9, 53, 42
4, 13022, Note_on_c, 9, 53, 0
4, 13920, Note_on_c, 9, 53, 29
4, 13984, Note_on_c, 9, 53, 0
4, 14181, Note_on_c, 9, 64, 47
4, 14306, Note_on_c, 9, 64, 0
4, 14393, Note_on_c, 9, 64, 16
4, 14588, Note_on_c, 9, 64, 0
4, 14880, Note_on_c, 9, 53, 27
4, 14945, Note_on_c, 9, 53, 0
4, 16104, Note_on_c, 9, 64, 28
4, 16266, Note_on_c, 9, 64, 0
4, 16341, Note_on_c, 9, 64, 18
4, 16484, Note_on_c, 9, 64, 0
4, 16800, Note_on_c, 9, 53, 42
4, 16894, Note_on_c, 9, 53, 0
4, 17760, Note_on_c, 9, 53, 45
4, 17853, Note_on_c, 9, 53, 0
4, 18013, Note_on_c, 9, 64, 50
4, 18131, Note_on_c, 9, 64, 0
4, 18242, Note_on_c, 9, 64, 42
4, 18419, Note_on_c, 9, 64, 0
4, 18720, Note_on_c, 9, 53, 36
4, 18807, Note_on_c, 9, 53, 0
4, 19680, Note_on_c, 9, 53, 35
4, 19754, Note_on_c, 9, 53, 0
4, 19977, Note_on_c, 9, 64, 47
4, 20039, Note_on_c, 9, 64, 0
4, 20205, Note_on_c, 9, 64, 25
4, 20354, Note_on_c, 9, 64, 0
4, 20640, Note_on_c, 9, 53, 45
4, 20640, Note_on_c, 9, 53, 41
4, 20723, Note_on_c, 9, 53, 0
4, 20755, Note_on_c, 9, 53, 0
4, 21600, Note_on_c, 9, 53, 55
4, 21719, Note_on_c, 9, 53, 0
4, 21901, Note_on_c, 9, 64, 47
4, 22010, Note_on_c, 9, 64, 0
4, 22138, Note_on_c, 9, 64, 31
4, 22282, Note_on_c, 9, 64, 0
4, 23520, Note_on_c, 9, 53, 28
4, 23610, Note_on_c, 9, 53, 0
4, 23792, Note_on_c, 9, 64, 36
4, 23869, Note_on_c, 9, 64, 0
4, 24014, Note_on_c, 9, 64, 40
4, 24088, Note_on_c, 9, 64, 0
4, 24480, Note_on_c, 9, 53, 30
4, 24589, Note_on_c, 9, 53, 0
4, 25418, Note_on_c, 9, 64, 67
4, 25440, Note_on_c, 9, 53, 42
4, 25544, Note_on_c, 9, 53, 0
4, 25562, Note_on_c, 9, 64, 0
4, 26187, Note_on_c, 9, 64, 59
4, 26335, Note_on_c, 9, 64, 0
4, 26400, Note_on_c, 9, 53, 47
4, 26532, Note_on_c, 9, 53, 0
4, 27360, Note_on_c, 9, 53, 53
4, 27484, Note_on_c, 9, 53, 0
4, 27639, Note_on_c, 9, 64, 42
4, 27701, Note_on_c, 9, 64, 0
4, 27847, Note_on_c, 9, 64, 49
4, 27978, Note_on_c, 9, 64, 0
4, 28320, Note_on_c, 9, 53, 33
4, 28447, Note_on_c, 9, 53, 0
4, 29258, Note_on_c, 9, 64, 40
4, 29280, Note_on_c, 9, 53, 48
4, 29334, Note_on_c, 9, 64, 0
4, 29428, Note_on_c, 9, 53, 0
4, 29503, Note_on_c, 9, 64, 46
4, 29653, Note_on_c, 9, 64, 0
4, 30003, Note_on_c, 9, 64, 32
4, 30079, Note_on_c, 9, 64, 0
4, 30195, Note_on_c, 9, 64, 31
4, 30240, Note_on_c, 9, 53, 52
4, 30272, Note_on_c, 9, 64, 0
4, 30372, Note_on_c, 9, 53, 0
4, 31200, Note_on_c, 9, 53, 51
4, 31332, Note_on_c, 9, 53, 0
4, 31436, Note_on_c, 9, 64, 44
4, 31535, Note_on_c, 9, 64, 0
4, 31675, Note_on_c, 9, 64, 47
4, 31816, Note_on_c, 9, 64, 0
4, 32160, Note_on_c, 9, 53, 50
4, 32300, Note_on_c, 9, 53, 0
4, 33120, Note_on_c, 9, 53, 48
4, 33248, Note_on_c, 9, 53, 0
4, 33401, Note_on_c, 9, 64, 42
4, 33512, Note_on_c, 9, 64, 0
4, 34080, Note_on_c, 9, 53, 48
4, 34230, Note_on_c, 9, 53, 0
4, 35040, Note_on_c, 9, 53, 51
4, 35170, Note_on_c, 9, 53, 0
4, 35333, Note_on_c, 9, 64, 33
4, 35404, Note_on_c, 9, 64, 0
4, 35527, Note_on_c, 9, 64, 31
4, 35668, Note_on_c, 9, 64, 0
4, 36000, Note_on_c, 9, 53, 50
4, 36140, Note_on_c, 9, 53, 0
4, 36960, Note_on_c, 9, 53, 51
4, 37011, Note_on_c, 9, 64, 35
4, 37075, Note_on_c, 9, 64, 0
4, 37100, Note_on_c, 9, 53, 0
4, 37239, Note_on_c, 9, 64, 40
4, 37334, Note_on_c, 9, 64, 0
4, 37920, Note_on_c, 9, 53, 53
4, 38077, Note_on_c, 9, 53, 0
4, 38880, Note_on_c, 9, 53, 49
4, 38993, Note_on_c, 9, 53, 0
4, 39219, Note_on_c, 9, 64, 18
4, 39282, Note_on_c, 9, 64, 0
4, 39359, Note_on_c, 9, 64, 25
4, 39501, Note_on_c, 9, 64, 0
4, 39840, Note_on_c, 9, 53, 46
4, 39958, Note_on_c, 9, 53, 0
4, 40800, Note_on_c, 9, 53, 38
4, 40900, Note_on_c, 9, 53, 0
4, 41073, Note_on_c, 9, 64, 30
4, 41186, Note_on_c, 9, 64, 0
4, 41260, Note_on_c, 9, 64, 11
4, 41424, Note_on_c, 9, 64, 0
4, 41760, Note_on_c, 9, 53, 25
4, 41837, Note_on_c, 9, 53, 0
4, 42720, Note_on_c, 9, 53, 24
4, 42784, Note_on_c, 9, 53, 0
4, 43040, Note_on_c, 9, 64, 28
4, 43124, Note_on_c, 9, 64, 0
4, 43251, Note_on_c, 9, 64, 29
4, 43414, Note_on_c, 9, 64, 0
4, 43680, Note_on_c, 9, 53, 39
4, 43742, Note_on_c, 9, 53, 0
4, 44640, Note_on_c, 9, 53, 42
4, 44697, Note_on_c, 9, 53, 0
4, 44985, Note_on_c, 9, 64, 37
4, 45103, Note_on_c, 9, 64, 0
4, 45226, Note_on_c, 9, 64, 35
4, 45364, Note_on_c, 9, 64, 0
4, 45600, Note_on_c, 9, 53, 36
4, 45654, Note_on_c, 9, 53, 0
4, 46560, Note_on_c, 9, 53, 28
4, 46623, Note_on_c, 9, 53, 0
4, 46899, Note_on_c, 9, 64, 33
4, 46983, Note_on_c, 9, 64, 0
4, 47107, Note_on_c, 9, 64, 30
4, 47235, Note_on_c, 9, 64, 0
4, 47520, Note_on_c, 9, 53, 33
4, 47577, Note_on_c, 9, 53, 0
4, 48753, Note_on_c, 9, 64, 36
4, 48824, Note_on_c, 9, 64, 0
4, 48951, Note_on_c, 9, 64, 28
4, 49108, Note_on_c, 9, 64, 0
4, 49440, Note_on_c, 9, 53, 46
4, 49500, Note_on_c, 9, 53, 0
4, 50400, Note_on_c, 9, 53, 41
4, 50463, Note_on_c, 9, 53, 0
4, 50690, Note_on_c, 9, 64, 37
4, 50768, Note_on_c, 9, 64, 0
4, 50900, Note_on_c, 9, 64, 36
4, 51017, Note_on_c, 9, 64, 0
4, 51360, Note_on_c, 9, 53, 41
4, 51360, Note_on_c, 9, 53, 45
4, 51446, Note_on_c, 9, 53, 0
4, 51475, Note_on_c, 9, 53, 0
4, 52320, Note_on_c, 9, 53, 43
4, 52396, Note_on_c, 9, 53, 0
4, 52604, Note_on_c, 9, 64, 16
4, 52660, Note_on_c, 9, 64, 0
4, 52794, Note_on_c, 9, 64, 29
4, 52931, Note_on_c, 9, 64, 0
4, 53280, Note_on_c, 9, 53, 42
4, 53378, Note_on_c, 9, 53, 0
4, 54240, Note_on_c, 9, 53, 48
4, 54350, Note_on_c, 9, 53, 0
4, 54606, Note_on_c, 9, 64, 38
4, 54667, Note_on_c, 9, 64, 0
4, 54791, Note_on_c, 9, 64, 30
4, 54872, Note_on_c, 9, 64, 0
4, 55200, Note_on_c, 9, 53, 47
4, 55287, Note_on_c, 9, 53, 0
4, 56160, Note_on_c, 9, 53, 41
4, 56251, Note_on_c, 9, 53, 0
4, 56447, Note_on_c, 9, 64, 26
4, 56512, Note_on_c, 9, 64, 0
4, 56648, Note_on_c, 9, 64, 39
4, 56723, Note_on_c, 9, 64, 0
4, 57120, Note_on_c, 9, 53, 47
4, 57241, Note_on_c, 9, 53, 0
4, 57899, Note_on_c, 9, 64, 58
4, 57953, Note_on_c, 9, 64, 0
4, 58080, Note_on_c, 9, 53, 58
4, 58202, Note_on_c, 9, 53, 0
4, 58325, Note_on_c, 9, 63, 32
4, 58403, Note_on_c, 9, 63, 0
4, 58547, Note_on_c, 9, 64, 56
4, 58697, Note_on_c, 9, 64, 0
4, 59003, Note_on_c, 9, 51, 35
4, 59040, Note_on_c, 9, 53, 38
4, 59128, Note_on_c, 9, 51, 0
4, 59223, Note_on_c, 9, 53, 0
4, 59823, Note_on_c, 9, 63, 40
4, 59877, Note_on_c, 9, 63, 0
4, 60000, Note_on_c, 9, 53, 62
4, 60020, Note_on_c, 9, 64, 53
4, 60125, Note_on_c, 9, 53, 0
4, 60141, Note_on_c, 9, 64, 0
4, 60742, Note_on_c, 9, 64, 49
4, 60843, Note_on_c, 9, 64, 0
4, 60960, Note_on_c, 9, 53, 37
4, 61100, Note_on_c, 9, 53, 0
4, 61920, Note_on_c, 9, 53, 25
4, 62014, Note_on_c, 9, 53, 0
4, 62264, Note_on_c, 9, 64, 25
4, 62348, Note_on_c, 9, 64, 0
4, 62478, Note_on_c, 9, 64, 34
4, 62620, Note_on_c, 9, 64, 0
4, 62880, Note_on_c, 9, 53, 31
4, 62990, Note_on_c, 9, 53, 0
4, 63840, Note_on_c, 9, 53, 30
4, 63840, Note_on_c, 9, 53, 45
4, 63936, Note_on_c, 9, 53, 0
4, 63996, Note_on_c, 9, 53, 0
4, 64129, Note_on_c, 9, 64, 27
4, 64199, Note_on_c, 9, 64, 0
4, 64320, Note_on_c, 9, 53, 41
4, 64337, Note_on_c, 9, 64, 35
4, 64504, Note_on_c, 9, 64, 0
4, 64625, Note_on_c, 9, 53, 0
4, 64800, Note_on_c, 9, 53, 36
4, 64915, Note_on_c, 9, 53, 0
4, 65760, Note_on_c, 9, 53, 30
4, 65857, Note_on_c, 9, 53, 0
4, 66063, Note_on_c, 9, 64, 23
4, 66160, Note_on_c, 9, 64, 0
4, 66301, Note_on_c, 9, 64, 16
4, 66395, Note_on_c, 9, 64, 0
4, 66720, Note_on_c, 9, 53, 36
4, 66838, Note_on_c, 9, 53, 0
4, 67680, Note_on_c, 9, 53, 36
4, 67788, Note_on_c, 9, 53, 0
4, 67983, Note_on_c, 9, 64, 24
4, 68047, Note_on_c, 9, 64, 0
4, 68193, Note_on_c, 9, 64, 36
4, 68344, Note_on_c, 9, 64, 0
4, 68640, Note_on_c, 9, 53, 37
4, 68738, Note_on_c, 9, 53, 0
4, 69600, Note_on_c, 9, 53, 41
4, 69684, Note_on_c, 9, 53, 0
4, 69874, Note_on_c, 9, 64, 34
4, 69956, Note_on_c, 9, 64, 0
4, 70089, Note_on_c, 9, 64, 29
4, 70260, Note_on_c, 9, 64, 0
4, 71520, Note_on_c, 9, 53, 30
4, 71652, Note_on_c, 9, 53, 0
4, 71835, Note_on_c, 9, 64, 28
4, 71922, Note_on_c, 9, 64, 0
4, 72054, Note_on_c, 9, 64, 22
4, 72209, Note_on_c, 9, 64, 0
4, 72480, Note_on_c, 9, 53, 54
4, 72620, Note_on_c, 9, 53, 0
4, 73440, Note_on_c, 9, 53, 46
4, 73570, Note_on_c, 9, 53, 0
4, 73713, Note_on_c, 9, 64, 27
4, 73834, Note_on_c, 9, 64, 0
4, 73962, Note_on_c, 9, 64, 44
4, 74167, Note_on_c, 9, 64, 0
4, 74400, Note_on_c, 9, 53, 35
4, 74477, Note_on_c, 9, 53, 0
4, 75360, Note_on_c, 9, 53, 35
4, 75421, Note_on_c, 9, 53, 0
4, 75641, Note_on_c, 9, 64, 39
4, 75715, Note_on_c, 9, 64, 0
4, 75850, Note_on_c, 9, 64, 30
4, 75998, Note_on_c, 9, 64, 0
4, 76320, Note_on_c, 9, 53, 32
4, 76396, Note_on_c, 9, 53, 0
4, 77280, Note_on_c, 9, 53, 28
4, 77344, Note_on_c, 9, 53, 0
4, 77526, Note_on_c, 9, 64, 34
4, 77608, Note_on_c, 9, 64, 0
4, 77750, Note_on_c, 9, 64, 31
4, 77929, Note_on_c, 9, 64, 0
4, 78240, Note_on_c, 9, 53, 43
4, 78290, Note_on_c, 9, 53, 0
4, 79200, Note_on_c, 9, 53, 31
4, 79263, Note_on_c, 9, 53, 0
4, 79473, Note_on_c, 9, 64, 41
4, 79543, Note_on_c, 9, 64, 0
4, 79708, Note_on_c, 9, 64, 26
4, 79869, Note_on_c, 9, 64, 0
4, 80160, Note_on_c, 9, 53, 42
4, 80224, Note_on_c, 9, 53, 0
4, 81120, Note_on_c, 9, 53, 40
4, 81176, Note_on_c, 9, 53, 0
4, 81401, Note_on_c, 9, 64, 19
4, 81462, Note_on_c, 9, 64, 0
4, 81609, Note_on_c, 9, 64, 32
4, 81796, Note_on_c, 9, 64, 0
4, 82080, Note_on_c, 9, 53, 47
4, 82135, Note_on_c, 9, 53, 0
4, 83040, Note_on_c, 9, 53, 38
4, 83117, Note_on_c, 9, 53, 0
4, 83348, Note_on_c, 9, 64, 17
4, 83396, Note_on_c, 9, 64, 0
4, 83527, Note_on_c, 9, 64, 37
4, 83689, Note_on_c, 9, 64, 0
4, 84000, Note_on_c, 9, 53, 32
4, 84071, Note_on_c, 9, 53, 0
4, 84960, Note_on_c, 9, 53, 42
4, 84960, Note_on_c, 9, 53, 21
4, 85045, Note_on_c, 9, 53, 0
4, 85177, Note_on_c, 9, 53, 0
4, 85263, Note_on_c, 9, 64, 33
4, 85336, Note_on_c, 9, 64, 0
4, 85501, Note_on_c, 9, 64, 17
4, 85625, Note_on_c, 9, 64, 0
4, 85920, Note_on_c, 9, 53, 25
4, 85920, Note_on_c, 9, 53, 39
4, 85998, Note_on_c, 9, 53, 0
4, 86133, Note_on_c, 9, 53, 0
4, 86703, Note_on_c, 9, 64, 33
4, 86772, Note_on_c, 9, 64, 0
4, 86880, Note_on_c, 9, 53, 33
4, 86880, Note_on_c, 9, 53, 42
4, 86947, Note_on_c, 9, 53, 0
4, 87051, Note_on_c, 9, 53, 0
4, 87840, Note_on_c, 9, 53, 30
4, 87840, Note_on_c, 9, 53, 42
4, 87906, Note_on_c, 9, 53, 0
4, 88037, Note_on_c, 9, 53, 0
4, 88739, Note_on_c, 9, 65, 27
4, 88790, Note_on_c, 9, 65, 0
4, 88800, Note_on_c, 9, 53, 41
4, 88867, Note_on_c, 9, 53, 0
4, 89029, Note_on_c, 9, 64, 41
4, 89101, Note_on_c, 9, 64, 0
4, 89243, Note_on_c, 9, 64, 40
4, 89444, Note_on_c, 9, 64, 0
4, 89482, Note_on_c, 9, 65, 27
4, 89581, Note_on_c, 9, 65, 0
4, 89760, Note_on_c, 9, 53, 49
4, 89760, Note_on_c, 9, 53, 34
4, 89864, Note_on_c, 9, 53, 0
4, 90004, Note_on_c, 9, 53, 0
4, 90219, Note_on_c, 9, 65, 28
4, 90292, Note_on_c, 9, 65, 0
4, 90720, Note_on_c, 9, 53, 42
4, 90720, Note_on_c, 9, 53, 32
4, 90733, Note_on_c, 9, 64, 33
4, 90797, Note_on_c, 9, 64, 0
4, 90809, Note_on_c, 9, 53, 0
4, 90906, Note_on_c, 9, 53, 0
4, 90921, Note_on_c, 9, 65, 30
4, 90987, Note_on_c, 9, 65, 0
4, 91460, Note_on_c, 9, 64, 42
4, 91517, Note_on_c, 9, 64, 0
4, 91671, Note_on_c, 9, 64, 19
4, 91680, Note_on_c, 9, 53, 33
4, 91680, Note_on_c, 9, 53, 45
4, 91749, Note_on_c, 9, 64, 0
4, 91788, Note_on_c, 9, 53, 0
4, 91877, Note_on_c, 9, 53, 0
4, 92640, Note_on_c, 9, 53, 43
4, 92724, Note_on_c, 9, 53, 0
4, 93538, Note_on_c, 9, 64, 41
4, 93600, Note_on_c, 9, 53, 38
4, 93609, Note_on_c, 9, 64, 0
4, 93670, Note_on_c, 9, 53, 0
4, 94352, Note_on_c, 9, 64, 38
4, 94414, Note_on_c, 9, 64, 0
4, 94560, Note_on_c, 9, 53, 40
4, 94652, Note_on_c, 9, 53, 0
4, 95349, Note_on_c, 9, 64, 30
4, 95416, Note_on_c, 9, 64, 0
4, 95520, Note_on_c, 9, 53, 38
4, 95608, Note_on_c, 9, 53, 0
4, 96480, Note_on_c, 9, 53, 40
4, 96544, Note_on_c, 9, 53, 0
4, 96763, Note_on_c, 9, 64, 24
4, 96836, Note_on_c, 9, 64, 0
4, 96984, Note_on_c, 9, 64, 29
4, 97104, Note_on_c, 9, 64, 0
4, 97440, Note_on_c, 9, 53, 43
4, 97549, Note_on_c, 9, 53, 0
4, 98400, Note_on_c, 9, 53, 38
4, 98476, Note_on_c, 9, 53, 0
4, 98666, Note_on_c, 9, 64, 30
4, 98740, Note_on_c, 9, 64, 0
4, 98881, Note_on_c, 9, 64, 28
4, 99033, Note_on_c, 9, 64, 0
4, 99360, Note_on_c, 9, 53, 44
4, 99456, Note_on_c, 9, 53, 0
4, 100320, Note_on_c, 9, 53, 34
4, 100399, Note_on_c, 9, 53, 0
4, 100625, Note_on_c, 9, 64, 30
4, 100701, Note_on_c, 9, 64, 0
4, 100836, Note_on_c, 9, 64, 22
4, 100968, Note_on_c, 9, 64, 0
4, 101280, Note_on_c, 9, 53, 36
4, 101367, Note_on_c, 9, 53, 0
4, 102240, Note_on_c, 9, 53, 42
4, 102324, Note_on_c, 9, 53, 0
4, 102495, Note_on_c, 9, 64, 35
4, 102609, Note_on_c, 9, 64, 0
4, 102728, Note_on_c, 9, 64, 27
4, 102903, Note_on_c, 9, 64, 0
4, 103200, Note_on_c, 9, 53, 43
4, 103305, Note_on_c, 9, 53, 0
4, 104160, Note_on_c, 9, 53, 41
4, 104265, Note_on_c, 9, 53, 0
4, 104414, Note_on_c, 9, 64, 43
4, 104480, Note_on_c, 9, 64, 0
4, 104628, Note_on_c, 9, 64, 51
4, 104874, Note_on_c, 9, 64, 0
4, 105120, Note_on_c, 9, 53, 40
4, 105211, Note_on_c, 9, 53, 0
4, 106080, Note_on_c, 9, 53, 42
4, 106174, Note_on_c, 9, 53, 0
4, 106342, Note_on_c, 9, 64, 40
4, 106404, Note_on_c, 9, 64, 0
4, 106563, Note_on_c, 9, 64, 32
4, 106751, Note_on_c, 9, 64, 0
4, 107040, Note_on_c, 9, 53, 40
4, 107160, Note_on_c, 9, 53, 0
4, 108000, Note_on_c, 9, 53, 32
4, 108091, Note_on_c, 9, 53, 0
4, 108289, Note_on_c, 9, 64, 35
4, 108353, Note_on_c, 9, 64, 0
4, 108470, Note_on_c, 9, 64, 32
4, 108703, Note_on_c, 9, 64, 0
4, 108960, Note_on_c, 9, 53, 47
4, 109072, Note_on_c, 9, 53, 0
4, 109920, Note_on_c, 9, 53, 33
4, 109982, Note_on_c, 9, 53, 0
4, 110241, Note_on_c, 9, 64, 24
4, 110301, Note_on_c, 9, 64, 0
4, 110434, Note_on_c, 9, 64, 37
4, 110609, Note_on_c, 9, 64, 0
4, 110880, Note_on_c, 9, 53, 45
4, 110948, Note_on_c, 9, 53, 0
4, 111840, Note_on_c, 9, 53, 39
4, 111840, Note_on_c, 9, 53, 44
4, 111921, Note_on_c, 9, 53, 0
4, 112055, Note_on_c, 9, 53, 0
4, 112097, Note_on_c, 9, 64, 25
4, 112162, Note_on_c, 9, 64, 0
4, 112312, Note_on_c, 9, 64, 28
4, 112443, Note_on_c, 9, 64, 0
4, 112800, Note_on_c, 9, 53, 44
4, 112800, Note_on_c, 9, 53, 46
4, 112885, Note_on_c, 9, 53, 0
4, 113067, Note_on_c, 9, 53, 0
4, 113760, Note_on_c, 9, 53, 43
4, 113867, Note_on_c, 9, 53, 0
4, 114019, Note_on_c, 9, 64, 39
4, 114098, Note_on_c, 9, 64, 0
4, 114203, Note_on_c, 9, 64, 16
4, 114401, Note_on_c, 9, 64, 0
4, 114720, Note_on_c, 9, 53, 42
4, 114823, Note_on_c, 9, 53, 0
4, 115680, Note_on_c, 9, 53, 42
4, 115770, Note_on_c, 9, 53, 0
4, 115950, Note_on_c, 9, 64, 33
4, 116033, Note_on_c, 9, 64, 0
4, 116150, Note_on_c, 9, 64, 20
4, 116319, Note_on_c, 9, 64, 0
4, 116640, Note_on_c, 9, 53, 38
4, 116731, Note_on_c, 9, 53, 0
4, 117600, Note_on_c, 9, 53, 29
4, 117693, Note_on_c, 9, 53, 0
4, 117868, Note_on_c, 9, 64, 33
4, 117947, Note_on_c, 9, 64, 0
4, 118109, Note_on_c, 9, 64, 16
4, 118244, Note_on_c, 9, 64, 0
4, 118560, Note_on_c, 9, 53, 49
4, 118647, Note_on_c, 9, 53, 0
4, 119520, Note_on_c, 9, 53, 43
4, 119631, Note_on_c, 9, 53, 0
4, 119828, Note_on_c, 9, 64, 35
4, 119896, Note_on_c, 9, 64, 0
4, 120046, Note_on_c, 9, 64, 22
4, 120198, Note_on_c, 9, 64, 0
4, 120480, Note_on_c, 9, 53, 34
4, 120562, Note_on_c, 9, 53, 0
4, 121440, Note_on_c, 9, 53, 33
4, 121557, Note_on_c, 9, 53, 0
4, 121743, Note_on_c, 9, 64, 38
4, 121806, Note_on_c, 9, 64, 0
4, 121940, Note_on_c, 9, 64, 41
4, 122078, Note_on_c, 9, 64, 0
4, 122400, Note_on_c, 9, 53, 40
4, 122517, Note_on_c, 9, 53, 0
4, 123360, Note_on_c, 9, 53, 40
4, 123455, Note_on_c, 9, 53, 0
4, 123644, Note_on_c, 9, 64, 42
4, 123707, Note_on_c, 9, 64, 0
4, 123839, Note_on_c, 9, 64, 34
4, 123993, Note_on_c, 9, 64, 0
4, 124320, Note_on_c, 9, 53, 37
4, 124429, Note_on_c, 9, 53, 0
4, 125280, Note_on_c, 9, 53, 41
4, 125418, Note_on_c, 9, 53, 0
4, 125565, Note_on_c, 9, 64, 43
4, 125632, Note_on_c, 9, 64, 0
4, 125779, Note_on_c, 9, 64, 48
4, 125941, Note_on_c, 9, 64, 0
4, 126240, Note_on_c, 9, 53, 42
4, 126351, Note_on_c, 9, 53, 0
4, 127200, Note_on_c, 9, 53, 47
4, 127302, Note_on_c, 9, 53, 0
4, 127466, Note_on_c, 9, 64, 47
4, 127597, Note_on_c, 9, 64, 0
4, 127676, Note_on_c, 9, 64, 32
4, 127862, Note_on_c, 9, 64, 0
4, 128160, Note_on_c, 9, 53, 46
4, 128258, Note_on_c, 9, 53, 0
4, 129120, Note_on_c, 9, 53, 20
4, 129196, Note_on_c, 9, 53, 0
4, 129367, Note_on_c, 9, 64, 46
4, 129479, Note_on_c, 9, 64, 0
4, 129580, Note_on_c, 9, 64, 26
4, 129795, Note_on_c, 9, 64, 0
4, 130080, Note_on_c, 9, 53, 61
4, 130192, Note_on_c, 9, 53, 0
4, 131040, Note_on_c, 9, 53, 29
4, 131102, Note_on_c, 9, 53, 0
4, 131330, Note_on_c, 9, 64, 49
4, 131400, Note_on_c, 9, 64, 0
4, 131531, Note_on_c, 9, 64, 56
4, 131778, Note_on_c, 9, 64, 0
4, 132000, Note_on_c, 9, 53, 31
4, 132059, Note_on_c, 9, 53, 0
4, 132960, Note_on_c, 9, 53, 39
4, 133017, Note_on_c, 9, 53, 0
4, 133227, Note_on_c, 9, 64, 49
4, 133310, Note_on_c, 9, 64, 0
4, 133441, Note_on_c, 9, 64, 32
4, 133663, Note_on_c, 9, 64, 0
4, 133920, Note_on_c, 9, 53, 49
4, 133976, Note_on_c, 9, 53, 0
4, 134880, Note_on_c, 9, 53, 37
4, 134940, Note_on_c, 9, 53, 0
4, 135187, Note_on_c, 9, 64, 45
4, 135265, Note_on_c, 9, 64, 0
4, 135420, Note_on_c, 9, 64, 39
4, 135600, Note_on_c, 9, 64, 0
4, 135840, Note_on_c, 9, 53, 40
4, 135902, Note_on_c, 9, 53, 0
4, 136800, Note_on_c, 9, 53, 37
4, 136869, Note_on_c, 9, 53, 0
4, 137073, Note_on_c, 9, 64, 44
4, 137197, Note_on_c, 9, 64, 0
4, 137284, Note_on_c, 9, 64, 19
4, 137518, Note_on_c, 9, 64, 0
4, 137760, Note_on_c, 9, 53, 43
4, 137829, Note_on_c, 9, 53, 0
4, 138720, Note_on_c, 9, 53, 41
4, 138777, Note_on_c, 9, 53, 0
4, 139033, Note_on_c, 9, 64, 45
4, 139127, Note_on_c, 9, 64, 0
4, 139259, Note_on_c, 9, 64, 24
4, 139471, Note_on_c, 9, 64, 0
4, 139680, Note_on_c, 9, 53, 42
4, 139742, Note_on_c, 9, 53, 0
4, 140640, Note_on_c, 9, 53, 29
4, 140704, Note_on_c, 9, 53, 0
4, 140901, Note_on_c, 9, 64, 47
4, 141026, Note_on_c, 9, 64, 0
4, 141113, Note_on_c, 9, 64, 16
4, 141308, Note_on_c, 9, 64, 0
4, 141600, Note_on_c, 9, 53, 27
4, 141665, Note_on_c, 9, 53, 0
4, 142824, Note_on_c, 9, 64, 28
4, 142986, Note_on_c, 9, 64, 0
4, 143061, Note_on_c, 9, 64, 18
4, 143204, Note_on_c, 9, 64, 0
4, 143520, Note_on_c, 9, 53, 42
4, 143614, Note_on_c, 9, 53, 0
4, 144480, Note_on_c, 9, 53, 45
4, 144573, Note_on_c, 9, 53, 0
4, 144733, Note_on_c, 9, 64, 50
4, 144851, Note_on_c, 9, 64, 0
4, 144962, Note_on_c, 9, 64, 42
4, 145139, Note_on_c, 9, 64, 0
4, 145440, Note_on_c, 9, 53, 36
4, 145527, Note_on_c, 9, 53, 0
4, 146400, Note_on_c, 9, 53, 35
4, 146474, Note_on_c, 9, 53, 0
4, 146697, Note_on_c, 9, 64, 47
4, 146759, Note_on_c, 9, 64, 0
4, 146925, Note_on_c, 9, 64, 25
4, 147074, Note_on_c, 9, 64, 0
4, 147360, Note_on_c, 9, 53, 45
4, 147360, Note_on_c, 9, 53, 41
4, 147443, Note_on_c, 9, 53, 0
4, 147475, Note_on_c, 9, 53, 0
4, 148320, Note_on_c, 9, 53, 55
4, 148439, Note_on_c, 9, 53, 0
4, 148621, Note_on_c, 9, 64, 47
4, 148730, Note_on_c, 9, 64, 0
4, 148858, Note_on_c, 9, 64, 31
4, 149002, Note_on_c, 9, 64, 0
4, 150240, Note_on_c, 9, 53, 28
4, 150330, Note_on_c, 9, 53, 0
4, 150512, Note_on_c, 9, 64, 36
4, 150589, Note_on_c, 9, 64, 0
4, 150734, Note_on_c, 9, 64, 40
4, 150808, Note_on_c, 9, 64, 0
4, 151200, Note_on_c, 9, 53, 30
4, 151309, Note_on_c, 9, 53, 0
4, 152138, Note_on_c, 9, 64, 67
4, 152160, Note_on_c, 9, 53, 42
4, 152264, Note_on_c, 9, 53, 0
4, 152282, Note_on_c, 9, 64, 0
4, 152907, Note_on_c, 9, 64, 59
4, 153055, Note_on_c, 9, 64, 0
4, 153120, Note_on_c, 9, 53, 47
4, 153252, Note_on_c, 9, 53, 0
4, 154080, Note_on_c, 9, 53, 53
4, 154204, Note_on_c, 9, 53, 0
4, 154359, Note_on_c, 9, 64, 42
4, 154421, Note_on_c, 9, 64, 0
4, 154567, Note_on_c, 9, 64, 49
4, 154698, Note_on_c, 9, 64, 0
4, 155040, Note_on_c, 9, 53, 33
4, 155167, Note_on_c, 9, 53, 0
4, 155978, Note_on_c, 9, 64, 40
4, 156000, Note_on_c, 9, 53, 48
4, 156054, Note_on_c, 9, 64, 0
4, 156148, Note_on_c, 9, 53, 0
4, 156223, Note_on_c, 9, 64, 46
4, 156373, Note_on_c, 9, 64, 0
4, 156723, Note_on_c, 9, 64, 32
4, 156799, Note_on_c, 9, 64, 0
4, 156915, Note_on_c, 9, 64, 31
4, 156960, Note_on_c, 9, 53, 52
4, 156992, Note_on_c, 9, 64, 0
4, 157092, Note_on_c, 9, 53, 0
4, 157920, Note_on_c, 9, 53, 51
4, 158052, Note_on_c, 9, 53, 0
4, 158156, Note_on_c, 9, 64, 44
4, 158255, Note_on_c, 9, 64, 0
4, 158395, Note_on_c, 9, 64, 47
4, 158536, Note_on_c, 9, 64, 0
4, 158880, Note_on_c, 9, 53, 50
4, 159020, Note_on_c, 9, 53, 0
4, 159840, Note_on_c, 9, 53, 48
4, 159968, Note_on_c, 9, 53, 0
4, 160121, Note_on_c, 9, 64, 42
4, 160232, Note_on_c, 9, 64, 0
4, 160800, Note_on_c, 9, 53, 48
4, 160950, Note_on_c, 9, 53, 0
4, 161760, Note_on_c, 9, 53, 51
4, 161890, Note_on_c, 9, 53, 0
4, 162053, Note_on_c, 9, 64, 33
4, 162124, Note_on_c, 9, 64, 0
4, 162247, Note_on_c, 9, 64, 31
4, 162388, Note_on_c, 9, 64, 0
4, 162720, Note_on_c, 9, 53, 50
4, 162860, Note_on_c, 9, 53, 0
4, 163680, Note_on_c, 9, 53, 51
4, 163731, Note_on_c, 9, 64, 35
4, 163795, Note_on_c, 9, 64, 0
4, 163820, Note_on_c, 9, 53, 0
4, 163959, Note_on_c, 9, 64, 40
4, 164054, Note_on_c, 9, 64, 0
4, 164640, Note_on_c, 9, 53, 53
4, 164797, Note_on_c, 9, 53, 0
4, 165600, Note_on_c, 9, 53, 49
4, 165713, Note_on_c, 9, 53, 0
4, 165939, Note_on_c, 9, 64, 18
4, 166002, Note_on_c, 9, 64, 0
4, 166079, Note_on_c, 9, 64, 25
4, 166221, Note_on_c, 9, 64, 0
4, 166560, Note_on_c, 9, 53, 46
4, 166678, Note_on_c, 9, 53, 0
4, 167520, Note_on_c, 9, 53, 38
4, 167620, Note_on_c, 9, 53, 0
4, 167793, Note_on_c, 9, 64, 30
4, 167906, Note_on_c, 9, 64, 0
4, 167980, Note_on_c, 9, 64, 11
4, 168144, Note_on_c, 9, 64, 0
4, 168480, Note_on_c, 9, 53, 25
4, 168557, Note_on_c, 9, 53, 0
4, 169440, Note_on_c, 9, 53, 24
4, 169504, Note_on_c, 9, 53, 0
4, 169760, Note_on_c, 9, 64, 28
4, 169844, Note_on_c, 9, 64, 0
4, 169971, Note_on_c, 9, 64, 29
4, 170134, Note_on_c, 9, 64, 0
4, 170400, Note_on_c, 9, 53, 39
4, 170462, Note_on_c, 9, 53, 0
4, 171360, Note_on_c, 9, 53, 42
4, 171417, Note_on_c, 9, 53, 0
4, 171705, Note_on_c, 9, 64, 37
4, 171823, Note_on_c, 9, 64, 0
4, 171946, Note_on_c, 9, 64, 35
4, 172084, Note_on_c, 9, 64, 0
4, 172320, Note_on_c, 9, 53, 36
4, 172374, Note_on_c, 9, 53, 0
4, 173280, Note_on_c, 9, 53, 28
4, 173343, Note_on_c, 9, 53, 0
4, 173619, Note_on_c, 9, 64, 33
4, 173703, Note_on_c, 9, 64, 0
4, 173827, Note_on_c, 9, 64, 30
4, 173955, Note_on_c, 9, 64, 0
4, 174240, Note_on_c, 9, 53, 33
4, 174297, Note_on_c, 9, 53, 0
4, 175473, Note_on_c, 9, 64, 36
4, 175544, Note_on_c, 9, 64, 0
4, 175671, Note_on_c, 9, 64, 28
4, 175828, Note_on_c, 9, 64, 0
4, 176160, Note_on_c, 9, 53, 46
4, 176220, Note_on_c, 9, 53, 0
4, 177120, Note_on_c, 9, 53, 41
4, 177183, Note_on_c, 9, 53, 0
4, 177410, Note_on_c, 9, 64, 37
4, 177488, Note_on_c, 9, 64, 0
4, 177620, Note_on_c, 9, 64, 36
4, 177737, Note_on_c, 9, 64, 0
4, 178080, Note_on_c, 9, 53, 41
4, 178080, Note_on_c, 9, 53, 45
4, 178166, Note_on_c, 9, 53, 0
4, 178195, Note_on_c, 9, 53, 0
4, 179040, Note_on_c, 9, 53, 43
4, 179116, Note_on_c, 9, 53, 0
4, 179324, Note_on_c, 9, 64, 16
4, 179380, Note_on_c, 9, 64, 0
4, 179514, Note_on_c, 9, 64, 29
4, 179651, Note_on_c, 9, 64, 0
4, 180000, Note_on_c, 9, 53, 42
4, 180098, Note_on_c, 9, 53, 0
4, 180960, Note_on_c, 9, 53, 48
4, 181070, Note_on_c, 9, 53, 0
4, 181326, Note_on_c, 9, 64, 38
4, 181387, Note_on_c, 9, 64, 0
4, 181511, Note_on_c, 9, 64, 30
4, 181592, Note_on_c, 9, 64, 0
4, 181920, Note_on_c, 9, 53, 47
4, 182007, Note_on_c, 9, 53, 0
4, 182880, Note_on_c, 9, 53, 41
4, 182971, Note_on_c, 9, 53, 0
4, 183167, Note_on_c, 9, 64, 26
4, 183232, Note_on_c, 9, 64, 0
4, 183368, Note_on_c, 9, 64, 39
4, 183443, Note_on_c, 9, 64, 0
4, 183840, Note_on_c, 9, 53, 47
4, 183961, Note_on_c, 9, 53, 0
4, 184619, Note_on_c, 9, 64, 58
4, 184673, Note_on_c, 9, 64, 0
4, 184800, Note_on_c, 9, 53, 58
4, 184922, Note_on_c, 9, 53, 0
4, 185045, Note_on_c, 9, 63, 32
4, 185123, Note_on_c, 9, 63, 0
4, 185267, Note_on_c, 9, 64, 56
4, 185417, Note_on_c, 9, 64, 0
4, 185723, Note_on_c, 9, 51, 35
4, 185760, Note_on_c, 9, 53, 38
4, 185848, Note_on_c, 9, 51, 0
4, 185943, Note_on_c, 9, 53, 0
4, 186543, Note_on_c, 9, 63, 40
4, 186597, Note_on_c, 9, 63, 0
4, 186720, Note_on_c, 9, 53, 62
4, 186740, Note_on_c, 9, 64, 53
4, 186845, Note_on_c, 9, 53, 0
4, 186861, Note_on_c, 9, 64, 0
4, 187462, Note_on_c, 9, 64, 49
4, 187563, Note_on_c, 9, 64, 0
4, 187680, Note_on_c, 9, 53, 37
4, 187820, Note_on_c, 9, 53, 0
4, 188640, Note_on_c, 9, 53, 25
4, 188734, Note_on_c, 9, 53, 0
4, 188984, Note_on_c, 9, 64, 25
4, 189068, Note_on_c, 9, 64, 0
4, 189198, Note_on_c, 9, 64, 34
4, 189340, Note_on_c, 9, 64, 0
4, 189600, Note_on_c, 9, 53, 31
4, 189710, Note_on_c, 9, 53, 0
4, 190560, Note_on_c, 9, 53, 30
4, 190560, Note_on_c, 9, 53, 45
4, 190656, Note_on_c, 9, 53, 0
4, 190716, Note_on_c, 9, 53, 0
4, 190849, Note_on_c, 9, 64, 27
4, 190919, Note_on_c, 9, 64, 0
4, 191040, Note_on_c, 9, 53, 41
4, 191057, Note_on_c, 9, 64, 35
4, 191224, Note_on_c, 9, 64, 0
4, 191345, Note_on_c, 9, 53, 0
4, 191520, Note_on_c, 9, 53, 36
4, 191635, Note_on_c, 9, 53, 0
4, 192480, Note_on_c, 9, 53, 30
4, 192577, Note_on_c, 9, 53, 0
4, 192783, Note_on_c, 9, 64, 23
4, 192880, Note_on_c, 9, 64, 0
4, 193021, Note_on_c, 9, 64, 16
4, 193115, Note_on_c, 9, 64, 0
4, 193440, Note_on_c, 9, 53, 36
4, 193558, Note_on_c, 9, 53, 0
4, 194400, Note_on_c, 9, 53, 36
4, 194508, Note_on_c, 9, 53, 0
4, 194703, Note_on_c, 9, 64, 24
4, 194767, Note_on_c, 9, 64, 0
4, 194913, Note_on_c, 9, 64, 36
4, 195064, Note_on_c, 9, 64, 0
4, 195360, Note_on_c, 9, 53, 37
4, 195458, Note_on_c, 9, 53, 0
4, 196320, Note_on_c, 9, 53, 41
4, 196404, Note_on_c, 9, 53, 0
4, 196594, Note_on_c, 9, 64, 34
4, 196676, Note_on_c, 9, 64, 0
4, 196809, Note_on_c, 9, 64, 29
4, 196980, Note_on_c, 9, 64, 0
4, 198240, Note_on_c, 9, 53, 30
4, 198372, Note_on_c, 9, 53, 0
4, 198555, Note_on_c, 9, 64, 28
4, 198642, Note_on_c, 9, 64, 0
4, 198774, Note_on_c, 9, 64, 22
4, 198929, Note_on_c, 9, 64, 0
4, 199200, Note_on_c, 9, 53, 54
4, 199340, Note_on_c, 9, 53, 0
4, 200160, Note_on_c, 9, 53, 46
4, 200290, Note_on_c, 9, 53, 0
4, 200433, Note_on_c, 9, 64, 27
4, 200554, Note_on_c, 9, 64, 0
4, 200682, Note_on_c, 9, 64, 44
4, 200887, Note_on_c, 9, 64, 0
4, 201120, Note_on_c, 9, 53, 35
4, 201197, Note_on_c, 9, 53, 0
4, 202080, Note_on_c, 9, 53, 35
4, 202141, Note_on_c, 9, 53, 0
4, 202361, Note_on_c, 9, 64, 39
4, 202435, Note_on_c, 9, 64, 0
4, 202570, Note_on_c, 9, 64, 30
4, 202718, Note_on_c, 9, 64, 0
4, 203040, Note_on_c, 9, 53, 32
4, 203116, Note_on_c, 9, 53, 0
4, 204000, Note_on_c, 9, 53, 28
4, 204064, Note_on_c, 9, 53, 0
4, 204246, Note_on_c, 9, 64, 34
4, 204328, Note_on_c, 9, 64, 0
4, 204470, Note_on_c, 9, 64, 31
4, 204649, Note_on_c, 9, 64, 0
4, 204960, Note_on_c, 9, 53, 43
4, 205010, Note_on_c, 9, 53, 0
4, 205920, Note_on_c, 9, 53, 31
4, 205983, Note_on_c, 9, 53, 0
4, 206193, Note_on_c, 9, 64, 41
4, 206263, Note_on_c, 9, 64, 0
4, 206428, Note_on_c, 9, 64, 26
4, 206589, Note_on_c, 9, 64, 0
4, 206880, Note_on_c, 9, 53, 42
4, 206944, Note_on_c, 9, 53, 0
4, 207840, Note_on_c, 9, 53, 40
4, 207896, Note_on_c, 9, 53, 0
4, 208121, Note_on_c, 9, 64, 19
4, 208182, Note_on_c, 9, 64, 0
4, 208329, Note_on_c, 9, 64, 32
4, 208516, Note_on_c, 9, 64, 0
4, 208800, Note_on_c, 9, 53, 47
4, 208855, Note_on_c, 9, 53, 0
4, 209760, Note_on_c, 9, 53, 38
4, 209837, Note_on_c, 9, 53, 0
4, 210068, Note_on_c, 9, 64, 17
4, 210116, Note_on_c, 9, 64, 0
4, 210247, Note_on_c, 9, 64, 37
4, 210409, Note_on_c, 9, 64, 0
4, 210720, Note_on_c, 9, 53, 32
4, 210791, Note_on_c, 9, 53, 0
4, 211680, Note_on_c, 9, 53, 42
4, 211680, Note_on_c, 9, 53, 21
4, 211765, Note_on_c, 9, 53, 0
4, 211897, Note_on_c, 9, 53, 0
4, 211983, Note_on_c, 9, 64, 33
4, 212056, Note_on_c, 9, 64, 0
4, 212221, Note_on_c, 9, 64, 17
4, 212345, Note_on_c, 9, 64, 0
4, 212640, Note_on_c, 9, 53, 25
4, 212640, Note_on_c, 9, 53, 39
4, 212718, Note_on_c, 9, 53, 0
4, 212853, Note_on_c, 9, 53, 0
4, 213423, Note_on_c, 9, 64, 33
4, 213492, Note_on_c, 9, 64, 0
4, 213600, Note_on_c, 9, 53, 33
4, 213600, Note_on_c, 9, 53, 42
4, 213667, Note_on_c, 9, 53, 0
4, 213771, Note_on_c, 9, 53, 0
4, 214560, Note_on_c, 9, 53, 30
4, 214560, Note_on_c, 9, 53, 42
4, 214626, Note_on_c, 9, 53, 0
4, 214757, Note_on_c, 9, 53, 0
4, 215459, Note_on_c, 9, 65, 27
4, 215510, Note_on_c, 9, 65, 0
4, 215520, Note_on_c, 9, 53, 41
4, 215587, Note_on_c, 9, 53, 0
4, 215749, Note_on_c, 9, 64, 41
4, 215821, Note_on_c, 9, 64, 0
4, 215963, Note_on_c, 9, 64, 40
4, 216164, Note_on_c, 9, 64, 0
4, 216202, Note_on_c, 9, 65, 27
4, 216301, Note_on_c, 9, 65, 0
4, 216480, Note_on_c, 9, 53, 49
4, 216480, Note_on_c, 9, 53, 34
4, 216584, Note_on_c, 9, 53, 0
4, 216724, Note_on_c, 9, 53, 0
4, 216939, Note_on_c, 9, 65, 28
4, 217012, Note_on_c, 9, 65, 0
4, 217440, Note_on_c, 9, 53, 42
4, 217440, Note_on_c, 9, 53, 32
4, 217453, Note_on_c, 9, 64, 33
4, 217517, Note_on_c, 9, 64, 0
4, 217529, Note_on_c, 9, 53, 0
4, 217626, Note_on_c, 9, 53, 0
4, 217641, Note_on_c, 9, 65, 30
4, 217707, Note_on_c, 9, 65, 0
4, 218180, Note_on_c, 9, 64, 42
4, 218237, Note_on_c, 9, 64, 0
4, 218391, Note_on_c, 9, 64, 19
4, 218400, Note_on_c, 9, 53, 33
4, 218400, Note_on_c, 9, 53, 45
4, 218469, Note_on_c, 9, 64, 0
4, 218508, Note_on_c, 9, 53, 0
4, 218597, Note_on_c, 9, 53, 0
4, 219360, Note_on_c, 9, 53, 43
4, 219444, Note_on_c, 9, 53, 0
4, 220258, Note_on_c, 9, 64, 41
4, 220320, Note_on_c, 9, 53, 38
4, 220329, Note_on_c, 9, 64, 0
4, 220390, Note_on_c, 9, 53, 0
4, 221072, Note_on_c, 9, 64, 38
4, 221134, Note_on_c, 9, 64, 0
4, 221280, Note_on_c, 9, 53, 40
4, 221372, Note_on_c, 9, 53, 0
4, 222069, Note_on_c, 9, 64, 30
4, 222136, Note_on_c, 9, 64, 0
4, 222240, Note_on_c, 9, 53, 38
4, 222328, Note_on_c, 9, 53, 0
4, 223200, Note_on_c, 9, 53, 40
4, 223264, Note_on_c, 9, 53, 0
4, 223483, Note_on_c, 9, 64, 24
4, 223556, Note_on_c, 9, 64, 0
4, 223704, Note_on_c, 9, 64, 29
4, 223824, Note_on_c, 9, 64, 0
4, 224160, Note_on_c, 9, 53, 43
4, 224269, Note_on_c, 9, 53, 0
4, 225120, Note_on_c, 9, 53, 38
4, 225196, Note_on_c, 9, 53, 0
4, 225386, Note_on_c, 9, 64, 30
4, 225460, Note_on_c, 9, 64, 0
4, 225601, Note_on_c, 9, 64, 28
4, 225753, Note_on_c, 9, 64, 0
4, 226080, Note_on_c, 9, 53, 44
4, 226176, Note_on_c, 9, 53, 0
4, 227040, Note_on_c, 9, 53, 34
4, 227119, Note_on_c, 9, 53, 0
4, 227345, Note_on_c, 9, 64, 30
4, 227421, Note_on_c, 9, 64, 0
4, 227556, Note_on_c, 9, 64, 22
4, 227688, Note_on_c, 9, 64, 0
4, 228000, Note_on_c, 9, 53, 36
4, 228087, Note_on_c, 9, 53, 0
4, 228960, Note_on_c, 9, 53, 42
4, 229044, Note_on_c, 9, 53, 0
4, 229215, Note_on_c, 9, 64, 35
4, 229329, Note_on_c, 9, 64, 0
4, 229448, Note_on_c, 9, 64, 27
4, 229623, Note_on_c, 9, 64, 0
4, 229920, Note_on_c, 9, 53, 43
4, 230025, Note_on_c, 9, 53, 0
4, 230880, Note_on_c, 9, 53, 41
4, 230985, Note_on_c, 9, 53, 0
4, 231134, Note_on_c, 9, 64, 43
4, 231200, Note_on_c, 9, 64, 0
4, 231348, Note_on_c, 9, 64, 51
4, 231594, Note_on_c, 9, 64, 0
4, 231840, Note_on_c, 9, 53, 40
4, 231931, Note_on_c, 9, 53, 0
4, 232800, Note_on_c, 9, 53, 42
4, 232894, Note_on_c, 9, 53, 0
4, 233062, Note_on_c, 9, 64, 40
4, 233124, Note_on_c, 9, 64, 0
4, 233283, Note_on_c, 9, 64, 32
4, 233471, Note_on_c, 9, 64, 0
4, 233760, Note_on_c, 9, 53, 40
4, 233880, Note_on_c, 9, 53, 0
4, 234720, Note_on_c, 9, 53, 32
4, 234811, Note_on_c, 9, 53, 0
4, 235009, Note_on_c, 9, 64, 35
4, 235073, Note_on_c, 9, 64, 0
4, 235190, Note_on_c, 9, 64, 32
4, 235423, Note_on_c, 9, 64, 0
4, 235680, Note_on_c, 9, 53, 47
4, 235792, Note_on_c, 9, 53, 0
4, 236640, Note_on_c, 9, 53, 33
4, 236702, Note_on_c, 9, 53, 0
4, 236961, Note_on_c, 9, 64, 24
4, 237021, Note_on_c, 9, 64, 0
4, 237154, Note_on_c, 9, 64, 37
4, 237329, Note_on_c, 9, 64, 0
4, 237600, Note_on_c, 9, 53, 45
4, 237668, Note_on_c, 9, 53, 0
4, 238560, Note_on_c, 9, 53, 39
4, 238560, Note_on_c, 9, 53, 44
4, 238641, Note_on_c, 9, 53, 0
4, 238775, Note_on_c, 9, 53, 0
4, 238817, Note_on_c, 9, 64, 25
4, 238882, Note_on_c, 9, 64, 0
4, 239032, Note_on_c, 9, 64, 28
4, 239163, Note_on_c, 9, 64, 0
4, 239520, Note_on_c, 9, 53, 44
4, 239520, Note_on_c, 9, 53, 46
4, 239605, Note_on_c, 9, 53, 0
4, 239787, Note_on_c, 9, 53, 0
4, 240480, Note_on_c, 9, 53, 43
4, 240587, Note_on_c, 9, 53, 0
4, 240739, Note_on_c, 9, 64, 39
4, 240818, Note_on_c, 9, 64, 0
4, 240923, Note_on_c, 9, 64, 16
4, 241121, Note_on_c, 9, 64, 0
4, 241440, Note_on_c, 9, 53, 42
4, 241543, Note_on_c, 9, 53, 0
4, 242400, Note_on_c, 9, 53, 42
4, 242490, Note_on_c, 9, 53, 0
4, 242670, Note_on_c, 9, 64, 33
4, 242753, Note_on_c, 9, 64, 0
4, 242870, Note_on_c, 9, 64, 20
4, 243039, Note_on_c, 9, 64, 0
4, 243360, Note_on_c, 9, 53, 38
4, 243451, Note_on_c, 9, 53, 0
4, 244320, Note_on_c, 9, 53, 29
4, 244413, Note_on_c, 9, 53, 0
4, 244588, Note_on_c, 9, 64, 33
4, 244667, Note_on_c, 9, 64, 0
4, 244829, Note_on_c, 9, 64, 16
4, 244964, Note_on_c, 9, 64, 0
4, 245280, Note_on_c, 9, 53, 49
4, 245367, Note_on_c, 9, 53, 0
4, 246240, Note_on_c, 9, 53, 43
4, 246351, Note_on_c, 9, 53, 0
4, 246548, Note_on_c, 9, 64, 35
4, 246616, Note_on_c, 9, 64, 0
4, 246766, Note_on_c, 9, 64, 22
4, 246918, Note_on_c, 9, 64, 0
4, 247200, Note_on_c, 9, 53, 34
4, 247282, Note_on_c, 9, 53, 0
4, 248160, Note_on_c, 9, 53, 33
4, 248277, Note_on_c, 9, 53, 0
4, 248463, Note_on_c, 9, 64, 38
4, 248526, Note_on_c, 9, 64, 0
4, 248660, Note_on_c, 9, 64, 41
4, 248798, Note_on_c, 9, 64, 0
4, 249120, Note_on_c, 9, 53, 40
4, 249237, Note_on_c, 9, 53, 0
4, 250080, Note_on_c, 9, 53, 40
4, 250175, Note_on_c, 9, 53, 0
4, 250364, Note_on_c, 9, 64, 42
4, 250427, Note_on_c, 9, 64, 0
4, 250559, Note_on_c, 9, 64, 34
4, 250713, Note_on_c, 9, 64, 0
4, 251040, Note_on_c, 9, 53, 37
4, 251149, Note_on_c, 9, 53, 0
4, 252000, Note_on_c, 9, 53, 41
4, 252138, Note_on_c, 9, 53, 0
4, 252285, Note_on_c, 9, 64, 43
4, 252352, Note_on_c, 9, 64, 0
4, 252499, Note_on_c, 9, 64, 48
4, 252661, Note_on_c, 9, 64, 0
4, 252960, Note_on_c, 9, 53, 42
4, 253071, Note_on_c, 9, 53, 0
4, 253920, Note_on_c, 9, 53, 47
4, 254022, Note_on_c, 9, 53, 0
4, 254186, Note_on_c, 9, 64, 47
4, 254317, Note_on_c, 9, 64, 0
4, 254396, Note_on_c, 9, 64, 32
4, 254582, Note_on_c, 9, 64, 0
4, 254880, Note_on_c, 9, 53, 46
4, 254978, Note_on_c, 9, 53, 0
4, 255840, Note_on_c, 9, 53, 20
4, 255916, Note_on_c, 9, 53, 0
4, 256087, Note_on_c, 9, 64, 46
4, 256199, Note_on_c, 9, 64, 0
4, 256300, Note_on_c, 9, 64, 26
4, 256515, Note_on_c, 9, 64, 0
4, 256800, Note_on_c, 9, 53, 61
4, 256912, Note_on_c, 9, 53, 0
4, 257760, Note_on_c, 9, 53, 29
4, 257822, Note_on_c, 9, 53, 0
4, 258050, Note_on_c, 9, 64, 49
4, 258120, Note_on_c, 9, 64, 0
4, 258251, Note_on_c, 9, 64, 56
4, 258498, Note_on_c, 9, 64, 0
4, 258720, Note_on_c, 9, 53, 31
4, 258779, Note_on_c, 9, 53, 0
4, 259680, Note_on_c, 9, 53, 39
4, 259737, Note_on_c, 9, 53, 0
4, 259947, Note_on_c, 9, 64, 49
4, 260030, Note_on_c, 9, 64, 0
4, 260161, Note_on_c, 9, 64, 32
4, 260383, Note_on_c, 9, 64, 0
4, 260640, Note_on_c, 9, 53, 49
4, 260696, Note_on_c, 9, 53, 0
4, 261600, Note_on_c, 9, 53, 37
4, 261660, Note_on_c, 9, 53, 0
4, 261907, Note_on_c, 9, 64, 45
4, 261985, Note_on_c, 9, 64, 0
4, 262140, Note_on_c, 9, 64, 39
4, 262320, Note_on_c, 9, 64, 0
4, 262560, Note_on_c, 9, 53, 40
4, 262622, Note_on_c, 9, 53, 0
4, 263520, Note_on_c, 9, 53, 37
4, 263589, Note_on_c, 9, 53, 0
4, 263793, Note_on_c, 9, 64, 44
4, 263917, Note_on_c, 9, 64, 0
4, 264004, Note_on_c, 9, 64, 19
4, 264238, Note_on_c, 9, 64, 0
4, 264480, Note_on_c, 9, 53, 43
4, 264549, Note_on_c, 9, 53, 0
4, 265440, Note_on_c, 9, 53, 41
4, 265497, Note_on_c, 9, 53, 0
4, 265753, Note_on_c, 9, 64, 45
4, 265847, Note_on_c, 9, 64, 0
4, 265979, Note_on_c, 9, 64, 24
4, 266191, Note_on_c, 9, 64, 0
4, 266400, Note_on_c, 9, 53, 42
4, 266462, Note_on_c, 9, 53, 0
4, 267360, Note_on_c, 9, 53, 29
4, 267424, Note_on_c, 9, 53, 0
4, 267621, Note_on_c, 9, 64, 47
4, 267746, Note_on_c, 9, 64, 0
4, 267833, Note_on_c, 9, 64, 16
4, 268028, Note_on_c, 9, 64, 0
4, 268320, Note_on_c, 9, 53, 27
4, 268385, Note_on_c, 9, 53, 0
4, 269544, Note_on_c, 9, 64, 28
4, 269706, Note_on_c, 9, 64, 0
4, 269781, Note_on_c, 9, 64, 18
4, 269924, Note_on_c, 9, 64, 0
4, 270240, Note_on_c, 9, 53, 42
4, 270334, Note_on_c, 9, 53, 0
4, 271200, Note_on_c, 9, 53, 45
4, 271293, Note_on_c, 9, 53, 0
4, 271453, Note_on_c, 9, 64, 50
4, 271571, Note_on_c, 9, 64, 0
4, 271682, Note_on_c, 9, 64, 42
4, 271859, Note_on_c, 9, 64, 0
4, 272160, Note_on_c, 9, 53, 36
4, 272247, Note_on_c, 9, 53, 0
4, 273120, Note_on_c, 9, 53, 35
4, 273194, Note_on_c, 9, 53, 0
4, 273417, Note_on_c, 9, 64, 47
4, 273479, Note_on_c, 9, 64, 0
4, 273645, Note_on_c, 9, 64, 25
4, 273794, Note_on_c, 9, 64, 0
4, 274080, Note_on_c, 9, 53, 45
4, 274080, Note_on_c, 9, 53, 41
4, 274163, Note_on_c, 9, 53, 0
4, 274195, Note_on_c, 9, 53, 0
4, 275040, Note_on_c, 9, 53, 55
4, 275159, Note_on_c, 9, 53, 0
4, 275341, Note_on_c, 9, 64, 47
4, 275450, Note_on_c, 9, 64, 0
4, 275578, Note_on_c, 9, 64, 31
4, 275722, Note_on_c, 9, 64, 0
4, 276960, Note_on_c, 9, 53, 28
4, 277050, Note_on_c, 9, 53, 0
4, 277232, Note_on_c, 9, 64, 36
4, 277309, Note_on_c, 9, 64, 0
4, 277454, Note_on_c, 9, 64, 40
4, 277528, Note_on_c, 9, 64, 0
4, 277920, Note_on_c, 9, 53, 30
4, 278029, Note_on_c, 9, 53, 0
4, 278858, Note_on_c, 9, 64, 67
4, 278880, Note_on_c, 9, 53, 42
4, 278984, Note_on_c, 9, 53, 0
4, 279002, Note_on_c, 9, 64, 0
4, 279627, Note_on_c, 9, 64, 59
4, 279775, Note_on_c, 9, 64, 0
4, 279840, Note_on_c, 9, 53, 47
4, 279972, Note_on_c, 9, 53, 0
4, 280800, Note_on_c, 9, 53, 53
4, 280924, Note_on_c, 9, 53, 0
4, 281079, Note_on_c, 9, 64, 42
4, 281141, Note_on_c, 9, 64, 0
4, 281287, Note_on_c, 9, 64, 49
4, 281418, Note_on_c, 9, 64, 0
4, 281760, Note_on_c, 9, 53, 33
4, 281887, Note_on_c, 9, 53, 0
4, 282698, Note_on_c, 9, 64, 40
4, 282720, Note_on_c, 9, 53, 48
4, 282774, Note_on_c, 9, 64, 0
4, 282868, Note_on_c, 9, 53, 0
4, 282943, Note_on_c, 9, 64, 46
4, 283093, Note_on_c, 9, 64, 0
4, 283443, Note_on_c, 9, 64, 32
4, 283519, Note_on_c, 9, 64, 0
4, 283635, Note_on_c, 9, 64, 31
4, 283680, Note_on_c, 9, 53, 52
4, 283712, Note_on_c, 9, 64, 0
4, 283812, Note_on_c, 9, 53, 0
4, 284640, Note_on_c, 9, 53, 51
4, 284772, Note_on_c, 9, 53, 0
4, 284876, Note_on_c, 9, 64, 44
4, 284975, Note_on_c, 9, 64, 0
4, 285115, Note_on_c, 9, 64, 47
4, 285256, Note_on_c, 9, 64, 0
4, 285600, Note_on_c, 9, 53, 50
4, 285740, Note_on_c, 9, 53, 0
4, 286560, Note_on_c, 9, 53, 48
4, 286688, Note_on_c, 9, 53, 0
4, 286841, Note_on_c, 9, 64, 42
4, 286952, Note_on_c, 9, 64, 0
4, 287520, Note_on_c, 9, 53, 48
4, 287670, Note_on_c, 9, 53, 0
4, 288480, Note_on_c, 9, 53, 51
4, 288610, Note_on_c, 9, 53, 0
4, 288773, Note_on_c, 9, 64, 33
4, 288844, Note_on_c, 9, 64, 0
4, 288967, Note_on_c, 9, 64, 31
4, 289108, Note_on_c, 9, 64, 0
4, 289440, Note_on_c, 9, 53, 50
4, 289580, Note_on_c, 9, 53, 0
4, 290400, Note_on_c, 9, 53, 51
4, 290451, Note_on_c, 9, 64, 35
4, 290515, Note_on_c, 9, 64, 0
4, 290540, Note_on_c, 9, 53, 0
4, 290679, Note_on_c, 9, 64, 40
4, 290774, Note_on_c, 9, 64, 0
4, 291360, Note_on_c, 9, 53, 53
4, 291517, Note_on_c, 9, 53, 0
4, 292320, Note_on_c, 9, 53, 49
4, 292433, Note_on_c, 9, 53, 0
4, 292659, Note_on_c, 9, 64, 18
4, 292722, Note_on_c, 9, 64, 0
4, 292799, Note_on_c, 9, 64, 25
4, 292941, Note_on_c, 9, 64, 0
4, 293280, Note_on_c, 9, 53, 46
4, 293398, Note_on_c, 9, 53, 0
4, 294240, Note_on_c, 9, 53, 38
4, 294340, Note_on_c, 9, 53, 0
4, 294513, Note_on_c, 9, 64, 30
4, 294626, Note_on_c, 9, 64, 0
4, 294700, Note_on_c, 9, 64, 11
4, 294864, Note_on_c, 9, 64, 0
4, 295200, Note_on_c, 9, 53, 25
4, 295277, Note_on_c, 9, 53, 0
4, 296160, Note_on_c, 9, 53, 24
4, 296224, Note_on_c, 9, 53, 0
4, 296480, Note_on_c, 9, 64, 28
4, 296564, Note_on_c, 9, 64, 0
4, 296691, Note_on_c, 9, 64, 29
4, 296854, Note_on_c, 9, 64, 0
4, 297120, Note_on_c, 9, 53, 39
4, 297182, Note_on_c, 9, 53, 0
4, 298080, Note_on_c, 9, 53, 42
4, 298137, Note_on_c, 9, 53, 0
4, 298425, Note_on_c, 9, 64, 37
4, 298543, Note_on_c, 9, 64, 0
4, 298666, Note_on_c, 9, 64, 35
4, 298804, Note_on_c, 9, 64, 0
4, 299040, Note_on_c, 9, 53, 36
4, 299094, Note_on_c, 9, 53, 0
4, 300000, Note_on_c, 9, 53, 28
4, 300063, Note_on_c, 9, 53, 0
4, 300339, Note_on_c, 9, 64, 33
4, 300423, Note_on_c, 9, 64, 0
4, 300547, Note_on_c, 9, 64, 30
4, 300675, Note_on_c, 9, 64, 0
4, 300960, Note_on_c, 9, 53, 33
4, 301017, Note_on_c, 9, 53, 0
4, 302193, Note_on_c, 9, 64, 36
4, 302264, Note_on_c, 9, 64, 0
4, 302391, Note_on_c, 9, 64, 28
4, 302548, Note_on_c, 9, 64, 0
4, 302880, Note_on_c, 9, 53, 46
4, 302940, Note_on_c, 9, 53, 0
4, 303840, Note_on_c, 9, 53, 41
4, 303903, Note_on_c, 9, 53, 0
4, 304130, Note_on_c, 9, 64, 37
4, 304208, Note_on_c, 9, 64, 0
4, 304340, Note_on_c, 9, 64, 36
4, 304457, Note_on_c, 9, 64, 0
4, 304800, Note_on_c, 9, 53, 41
4, 304800, Note_on_c, 9, 53, 45
4, 304886, Note_on_c, 9, 53, 0
4, 304915, Note_on_c, 9, 53, 0
4, 305760, Note_on_c, 9, 53, 43
4, 305836, Note_on_c, 9, 53, 0
4, 306044, Note_on_c, 9, 64, 16
4, 306100, Note_on_c, 9, 64, 0
4, 306234, Note_on_c, 9, 64, 29
4, 306371, Note_on_c, 9, 64, 0
4, 306720, Note_on_c, 9, 53, 42
4, 306818, Note_on_c, 9, 53, 0
4, 307680, Note_on_c, 9, 53, 48
4, 307790, Note_on_c, 9, 53, 0
4, 308046, Note_on_c, 9, 64, 38
4, 308107, Note_on_c, 9, 64, 0
4, 308231, Note_on_c, 9, 64, 30
4, 308312, Note_on_c, 9, 64, 0
4, 308640, Note_on_c, 9, 53, 47
4, 308727, Note_on_c, 9, 53, 0
4, 309600, Note_on_c, 9, 53, 41
4, 309691, Note_on_c, 9, 53, 0
4, 309887, Note_on_c, 9, 64, 26
4, 309952, Note_on_c, 9, 64, 0
4, 310088, Note_on_c, 9, 64, 39
4, 310163, Note_on_c, 9, 64, 0
4, 310560, Note_on_c, 9, 53, 47
4, 310681, Note_on_c, 9, 53, 0
4, 311339, Note_on_c, 9, 64, 58
4, 311393, Note_on_c, 9, 64, 0
4, 311520, Note_on_c, 9, 53, 58
4, 311642, Note_on_c, 9, 53, 0
4, 311765, Note_on_c, 9, 63, 32
4, 311843, Note_on_c, 9, 63, 0
4, 311987, Note_on_c, 9, 64, 56
4, 312137, Note_on_c, 9, 64, 0
4, 312443, Note_on_c, 9, 51, 35
4, 312480, Note_on_c, 9, 53, 38
4, 312568, Note_on_c, 9, 51, 0
4, 312663, Note_on_c, 9, 53, 0
4, 313263, Note_on_c, 9, 63, 40
4, 313317, Note_on_c, 9, 63, 0
4, 313440, Note_on_c, 9, 53, 62
4, 313460, Note_on_c, 9, 64, 53
4, 313565, Note_on_c, 9, 53, 0
4, 313581, Note_on_c, 9, 64, 0
4, 314182, Note_on_c, 9, 64, 49
4, 314283, Note_on_c, 9, 64, 0
4, 314400, Note_on_c, 9, 53, 37
4, 314540, Note_on_c, 9, 53, 0
4, 315360, Note_on_c, 9, 53, 25
4, 315454, Note_on_c, 9, 53, 0
4, 315704, Note_on_c, 9, 64, 25
4, 315788, Note_on_c, 9, 64, 0
4, 315918, Note_on_c, 9, 64, 34
4, 316060, Note_on_c, 9, 64, 0
4, 316320, Note_on_c, 9, 53, 31
4, 316430, Note_on_c, 9, 53, 0
4, 317280, Note_on_c, 9, 53, 30
4, 317280, Note_on_c, 9, 53, 45
4, 317376, Note_on_c, 9, 53, 0
4, 317436, Note_on_c, 9, 53, 0
4, 317569, Note_on_c, 9, 64, 27
4, 317639, Note_on_c, 9, 64, 0
4, 317760, Note_on_c, 9, 53, 41
4, 317777, Note_on_c, 9, 64, 35
4, 317944, Note_on_c, 9, 64, 0
4, 318065, Note_on_c, 9, 53, 0
4, 318240, Note_on_c, 9, 53, 36
4, 318355, Note_on_c, 9, 53, 0
4, 319200, Note_on_c, 9, 53, 30
4, 319297, Note_on_c, 9, 53, 0
4, 319503, Note_on_c, 9, 64, 23
4, 319600, Note_on_c, 9, 64, 0
4, 319741, Note_on_c, 9, 64, 16
4, 319835, Note_on_c, 9, 64, 0
4, 320160, Note_on_c, 9, 53, 36
4, 320278, Note_on_c, 9, 53, 0
4, 321120, Note_on_c, 9, 53, 36
4, 321228, Note_on_c, 9, 53, 0
4, 321423, Note_on_c, 9, 64, 24
4, 321487, Note_on_c, 9, 64, 0
4, 321633, Note_on_c, 9, 64, 36
4, 321784, Note_on_c, 9, 64, 0
4, 322080, Note_on_c, 9, 53, 37
4, 322178, Note_on_c, 9, 53, 0
4, 323040, Note_on_c, 9, 53, 41
4, 323124, Note_on_c, 9, 53, 0
4, 323314, Note_on_c, 9, 64, 34
4, 323396, Note_on_c, 9, 64, 0
4, 323529, Note_on_c, 9, 64, 29
4, 323700, Note_on_c, 9, 64, 0
4, 324960, Note_on_c, 9, 53, 30
4, 325092, Note_on_c, 9, 53, 0
4, 325275, Note_on_c, 9, 64, 28
4, 325362, Note_on_c, 9, 64, 0
4, 325494, Note_on_c, 9, 64, 22
4, 325649, Note_on_c, 9, 64, 0
4, 325920, Note_on_c, 9, 53, 54
4, 326060, Note_on_c, 9, 53, 0
4, 326880, Note_on_c, 9, 53, 46
4, 327010, Note_on_c, 9, 53, 0
4, 327153, Note_on_c, 9, 64, 27
4, 327274, Note_on_c, 9, 64, 0
4, 327402, Note_on_c, 9, 64, 44
4, 327607, Note_on_c, 9, 64, 0
4, 327840, Note_on_c, 9, 53, 35
4, 327917, Note_on_c, 9, 53, 0
4, 328800, Note_on_c, 9, 53, 35
4, 328861, Note_on_c, 9, 53, 0
4, 329081, Note_on_c, 9, 64, 39
4, 329155, Note_on_c, 9, 64, 0
4, 329290, Note_on_c, 9, 64, 30
4, 329438, Note_on_c, 9, 64, 0
4, 329760, Note_on_c, 9, 53, 32
4, 329836, Note_on_c, 9, 53, 0
4, 330720, Note_on_c, 9, 53, 28
4, 330784, Note_on_c, 9, 53, 0
4, 330966, Note_on_c, 9, 64, 34
4, 331048, Note_on_c, 9, 64, 0
4, 331190, Note_on_c, 9, 64, 31
4, 331369, Note_on_c, 9, 64, 0
4, 331680, Note_on_c, 9, 53, 43
4, 331730, Note_on_c, 9, 53, 0
4, 332640, Note_on_c, 9, 53, 31
4, 332703, Note_on_c, 9, 53, 0
4, 332913, Note_on_c, 9, 64, 41
4, 332983, Note_on_c, 9, 64, 0
4, 333148, Note_on_c, 9, 64, 26
4, 333309, Note_on_c, 9, 64, 0
4, 333600, Note_on_c, 9, 53, 42
4, 333664, Note_on_c, 9, 53, 0
4, 334560, Note_on_c, 9, 53, 40
4, 334616, Note_on_c, 9, 53, 0
4, 334841, Note_on_c, 9, 64, 19
4, 334902, Note_on_c, 9, 64, 0
4, 335049, Note_on_c, 9, 64, 32
4, 335236, Note_on_c, 9, 64, 0
4, 335520, Note_on_c, 9, 53, 47
4, 335575, Note_on_c, 9, 53, 0
4, 336480, Note_on_c, 9, 53, 38
4, 336557, Note_on_c, 9, 53, 0
4, 336788, Note_on_c, 9, 64, 17
4, 336836, Note_on_c, 9, 64, 0
4, 336967, Note_on_c, 9, 64, 37
4, 337129, Note_on_c, 9, 64, 0
4, 337440, Note_on_c, 9, 53, 32
4, 337511, Note_on_c, 9, 53, 0
4, 338400, Note_on_c, 9, 53, 42
4, 338400, Note_on_c, 9, 53, 21
4, 338485, Note_on_c, 9, 53, 0
4, 338617, Note_on_c, 9, 53, 0
4, 338703, Note_on_c, 9, 64, 33
4, 338776, Note_on_c, 9, 64, 0
4, 338941, Note_on_c, 9, 64, 17
4, 339065, Note_on_c, 9, 64, 0
4, 339360, Note_on_c, 9, 53, 25
4, 339360, Note_on_c, 9, 53, 39
4, 339438, Note_on_c, 9, 53, 0
4, 339573, Note_on_c, 9, 53, 0
4, 340143, Note_on_c, 9, 64, 33
4, 340212, Note_on_c, 9, 64, 0
4, 340320, Note_on_c, 9, 53, 33
4, 340320, Note_on_c, 9, 53, 42
4, 340387, Note_on_c, 9, 53, 0
4, 340491, Note_on_c, 9, 53, 0
4, 341280, Note_on_c, 9, 53, 30
4, 341280, Note_on_c, 9, 53, 42
4, 341346, Note_on_c, 9, 53, 0
4, 341477, Note_on_c, 9, 53, 0
4, 342179, Note_on_c, 9, 65, 27
4, 342230, Note_on_c, 9, 65, 0
4, 342240, Note_on_c, 9, 53, 41
4, 342307, Note_on_c, 9, 53, 0
4, 342469, Note_on_c, 9, 64, 41
4, 342541, Note_on_c, 9, 64, 0
4, 342683, Note_on_c, 9, 64, 40
4, 342884, Note_on_c, 9, 64, 0
4, 342922, Note_on_c, 9, 65, 27
4, 343021, Note_on_c, 9, 65, 0
4, 343200, Note_on_c, 9, 53, 49
4, 343200, Note_on_c, 9, 53, 34
4, 343304, Note_on_c, 9, 53, 0
4, 343444, Note_on_c, 9, 53, 0
4, 343659, Note_on_c, 9, 65, 28
4, 343732, Note_on_c, 9, 65, 0
4, 344160, Note_on_c, 9, 53, 42
4, 344160, Note_on_c, 9, 53, 32
4, 344173, Note_on_c, 9, 64, 33
4, 344237, Note_on_c, 9, 64, 0
4, 344249, Note_on_c, 9, 53, 0
4, 344346, Note_on_c, 9, 53, 0
4, 344361, Note_on_c, 9, 65, 30
4, 344427, Note_on_c, 9, 65, 0
4, 344900, Note_on_c, 9, 64, 42
4, 344957, Note_on_c, 9, 64, 0
4, 345111, Note_on_c, 9, 64, 19
4, 345120, Note_on_c, 9, 53, 33
4, 345120, Note_on_c, 9, 53, 45
4, 345189, Note_on_c, 9, 64, 0
4, 345228, Note_on_c, 9, 53, 0
4, 345317, Note_on_c, 9, 53, 0
4, 346080, Note_on_c, 9, 53, 43
4, 346164, Note_on_c, 9, 53, 0
4, 346978, Note_on_c, 9, 64, 41
4, 347040, Note_on_c, 9, 53, 38
4, 347049, Note_on_c, 9, 64, 0
4, 347110, Note_on_c, 9, 53, 0
4, 347792, Note_on_c, 9, 64, 38
4, 347854, Note_on_c, 9, 64, 0
4, 348000, Note_on_c, 9, 53, 40
4, 348092, Note_on_c, 9, 53, 0
4, 348789, Note_on_c, 9, 64, 30
4, 348856, Note_on_c, 9, 64, 0
4, 348960, Note_on_c, 9, 53, 38
4, 349048, Note_on_c, 9, 53, 0
4, 349920, Note_on_c, 9, 53, 40
4, 349984, Note_on_c, 9, 53, 0
4, 350203, Note_on_c, 9, 64, 24
4, 350276, Note_on_c, 9, 64, 0
4, 350424, Note_on_c, 9, 64, 29
4, 350544, Note_on_c, 9, 64, 0
4, 350880, Note_on_c, 9, 53, 43
4, 350989, Note_on_c, 9, 53, 0
4, 351840, Note_on_c, 9, 53, 38
4, 351916, Note_on_c, 9, 53, 0
4, 352106, Note_on_c, 9, 64, 30
4, 352180, Note_on_c, 9, 64, 0
4, 352321, Note_on_c, 9, 64, 28
4, 352473, Note_on_c, 9, 64, 0
4, 352800, Note_on_c, 9, 53, 44
4, 352896, Note_on_c, 9, 53, 0
4, 353760, Note_on_c, 9, 53, 34
4, 353839, Note_on_c, 9, 53, 0
4, 354065, Note_on_c, 9, 64, 30
4, 354141, Note_on_c, 9, 64, 0
4, 354276, Note_on_c, 9, 64, 22
4, 354408, Note_on_c, 9, 64, 0
4, 354720, Note_on_c, 9, 53, 36
4, 354807, Note_on_c, 9, 53, 0
4, 355680, Note_on_c, 9, 53, 42
4, 355764, Note_on_c, 9, 53, 0
4, 355935, Note_on_c, 9, 64, 35
4, 356049, Note_on_c, 9, 64, 0
4, 356168, Note_on_c, 9, 64, 27
4, 356343, Note_on_c, 9, 64, 0
4, 356640, Note_on_c, 9, 53, 43
4, 356745, Note_on_c, 9, 53, 0
4, 357600, Note_on_c, 9, 53, 41
4, 357705, Note_on_c, 9, 53, 0
4, 357854, Note_on_c, 9, 64, 43
4, 357920, Note_on_c, 9, 64, 0
4, 358068, Note_on_c, 9, 64, 51
4, 358314, Note_on_c, 9, 64, 0
4, 358560, Note_on_c, 9, 53, 40
4, 358651, Note_on_c, 9, 53, 0
4, 359520, Note_on_c, 9, 53, 42
4, 359614, Note_on_c, 9, 53, 0
4, 359782, Note_on_c, 9, 64, 40
4, 359844, Note_on_c, 9, 64, 0
4, 360003, Note_on_c, 9, 64, 32
4, 360191, Note_on_c, 9, 64, 0
4, 360480, Note_on_c, 9, 53, 40
4, 360600, Note_on_c, 9, 53, 0
4, 361440, Note_on_c, 9, 53, 32
4, 361531, Note_on_c, 9, 53, 0
4, 361729, Note_on_c, 9, 64, 35
4, 361793, Note_on_c, 9, 64, 0
4, 361910, Note_on_c, 9, 64, 32
4, 362143, Note_on_c, 9, 64, 0
4, 362400, Note_on_c, 9, 53, 47
4, 362512, Note_on_c, 9, 53, 0
4, 363360, Note_on_c, 9, 53, 33
4, 363422, Note_on_c, 9, 53, 0
4, 363681, Note_on_c, 9, 64, 24
4, 363741, Note_on_c, 9, 64, 0
4, 363874, Note_on_c, 9, 64, 37
4, 364049, Note_on_c, 9, 64, 0
4, 364320, Note_on_c, 9, 53, 45
4, 364388, Note_on_c, 9, 53, 0
4, 365280, Note_on_c, 9, 53, 39
4, 365280, Note_on_c, 9, 53, 44
4, 365361, Note_on_c, 9, 53, 0
4, 365495, Note_on_c, 9, 53, 0
4, 365537, Note_on_c, 9, 64, 25
4, 365602, Note_on_c, 9, 64, 0
4, 365752, Note_on_c, 9, 64, 28
4, 365883, Note_on_c, 9, 64, 0
4, 366240, Note_on_c, 9, 53, 44
4, 366240, Note_on_c, 9, 53, 46
4, 366325, Note_on_c, 9, 53, 0
4, 366507, Note_on_c, 9, 53, 0
4, 367200, Note_on_c, 9, 53, 43
4, 367307, Note_on_c, 9, 53, 0
4, 367459, Note_on_c, 9, 64, 39
4, 367538, Note_on_c, 9, 64, 0
4, 367643, Note_on_c, 9, 64, 16
4, 367841, Note_on_c, 9, 64, 0
4, 368160, Note_on_c, 9, 53, 42
4, 368263, Note_on_c, 9, 53, 0
4, 369120, Note_on_c, 9, 53, 42
4, 369210, Note_on_c, 9, 53, 0
4, 369390, Note_on_c, 9, 64, 33
4, 369473, Note_on_c, 9, 64, 0
4, 369590, Note_on_c, 9, 64, 20
4, 369759, Note_on_c, 9, 64, 0
4, 370080, Note_on_c, 9, 53, 38
4, 370171, Note_on_c, 9, 53, 0
4, 371040, Note_on_c, 9, 53, 29
4, 371133, Note_on_c, 9, 53, 0
4, 371308, Note_on_c, 9, 64, 33
4, 371387, Note_on_c, 9, 64, 0
4, 371549, Note_on_c, 9, 64, 16
4, 371684, Note_on_c, 9, 64, 0
4, 372000, Note_on_c, 9, 53, 49
4, 372087, Note_on_c, 9, 53, 0
4, 372960, Note_on_c, 9, 53, 43
4, 373071, Note_on_c, 9, 53, 0
4, 373268, Note_on_c, 9, 64, 35
4, 373336, Note_on_c, 9, 64, 0
4, 373486, Note_on_c, 9, 64, 22
4, 373638, Note_on_c, 9, 64, 0
4, 373920, Note_on_c, 9, 53, 34
4, 374002, Note_on_c, 9, 53, 0
4, 374880, Note_on_c, 9, 53, 33
4, 374997, Note_on_c, 9, 53, 0
4, 375183, Note_on_c, 9, 64, 38
4, 375246, Note_on_c, 9, 64, 0
4, 375380, Note_on_c, 9, 64, 41
4, 375518, Note_on_c, 9, 64, 0
4, 375840, Note_on_c, 9, 53, 40
4, 375957, Note_on_c, 9, 53, 0
4, 376800, Note_on_c, 9, 53, 40
4, 376895, Note_on_c, 9, 53, 0
4, 377084, Note_on_c, 9, 64, 42
4, 377147, Note_on_c, 9, 64, 0
4, 377279, Note_on_c, 9, 64, 34
4, 377433, Note_on_c, 9, 64, 0
4, 377760, Note_on_c, 9, 53, 37
4, 377869, Note_on_c, 9, 53, 0
4, 378720, Note_on_c, 9, 53, 41
4, 378858, Note_on_c, 9, 53, 0
4, 379005, Note_on_c, 9, 64, 43
4, 379072, Note_on_c, 9, 64, 0
4, 379219, Note_on_c, 9, 64, 48
4, 379381, Note_on_c, 9, 64, 0
4, 379680, Note_on_c, 9, 53, 42
4, 379791, Note_on_c, 9, 53, 0
4, 380640, Note_on_c, 9, 53, 47
4, 380742, Note_on_c, 9, 53, 0
4, 380906, Note_on_c, 9, 64, 47
4, 381037, Note_on_c, 9, 64, 0
4, 381116, Note_on_c, 9, 64, 32
4, 381302, Note_on_c, 9, 64, 0
4, 381600, Note_on_c, 9, 53, 46
4, 381698, Note_on_c, 9, 53, 0
4, 382560, Note_on_c, 9, 53, 20
4, 382636, Note_on_c, 9, 53, 0
4, 382807, Note_on_c, 9, 64, 46
4, 382919, Note_on_c, 9, 64, 0
4, 383020, Note_on_c, 9, 64, 26
4, 383235, Note_on_c, 9, 64, 0
4, 383520, Note_on_c, 9, 53, 60
4, 383632, Note_on_c, 9, 53, 0
4, 384480, Note_on_c, 9, 53, 26
4, 384542, Note_on_c, 9, 53, 0
4, 384770, Note_on_c, 9, 64, 44
4, 384840, Note_on_c, 9, 64, 0
4, 384971, Note_on_c, 9, 64, 50
4, 385218, Note_on_c, 9, 64, 0
4, 385440, Note_on_c, 9, 53, 26
4, 385499, Note_on_c, 9, 53, 0
4, 386400, Note_on_c, 9, 53, 30
4, 386457, Note_on_c, 9, 53, 0
4, 386667, Note_on_c, 9, 64, 38
4, 386750, Note_on_c, 9, 64, 0
4, 386881, Note_on_c, 9, 64, 23
4, 387103, Note_on_c, 9, 64, 0
4, 387360, Note_on_c, 9, 53, 35
4, 387416, Note_on_c, 9, 53, 0
4, 388320, Note_on_c, 9, 53, 23
4, 388380, Note_on_c, 9, 53, 0
4, 388627, Note_on_c, 9, 64, 28
4, 388705, Note_on_c, 9, 64, 0
4, 388860, Note_on_c, 9, 64, 23
4, 389040, Note_on_c, 9, 64, 0
4, 389280, Note_on_c, 9, 53, 23
4, 389342, Note_on_c, 9, 53, 0
4, 390240, Note_on_c, 9, 53, 18
4, 390309, Note_on_c, 9, 53, 0
4, 390513, Note_on_c, 9, 64, 22
4, 390637, Note_on_c, 9, 64, 0
4, 390724, Note_on_c, 9, 64, 7
4, 390958, Note_on_c, 9, 64, 0
4, 391200, Note_on_c, 9, 53, 19
4, 391269, Note_on_c, 9, 53, 0
4, 392160, Note_on_c, 9, 53, 15
4, 392217, Note_on_c, 9, 53, 0
4, 392473, Note_on_c, 9, 64, 16
4, 392567, Note_on_c, 9, 64, 0
4, 392699, Note_on_c, 9, 64, 6
4, 392911, Note_on_c, 9, 64, 0
4, 393120, Note_on_c, 9, 53, 13
4, 393182, Note_on_c, 9, 53, 0
4, 394080, Note_on_c, 9, 53, 5
4, 394144, Note_on_c, 9, 53, 0
4, 394341, Note_on_c, 9, 64, 11
4, 394466, Note_on_c, 9, 64, 0
4, 394553, Note_on_c, 9, 64, 1
4, 394748, Note_on_c, 9, 64, 0
4, 395040, Note_on_c, 9, 53, 2
4, 395105, Note_on_c, 9, 53, 0
4, 396264, Note_on_c, 9, 64, 1
4, 396426, Note_on_c, 9, 64, 0
4, 396501, Note_on_c, 9, 64, 1
4, 396644, Note_on_c, 9, 64, 0
4, 396960, Note_on_c, 9, 53, 1
4, 397054, Note_on_c, 9, 53, 0
4, 397920, Note_on_c, 9, 53, 1
4, 398013, Note_on_c, 9, 53, 0
4, 398173, Note_on_c, 9, 64, 1
4, 398291, Note_on_c, 9, 64, 0
4, 398402, Note_on_c, 9, 64, 1
4, 398579, Note_on_c, 9, 64, 0
4, 398579, End_track
0, 0, End_of_file
