0, 0, Header, 1, 5, 960
1, 0, Start_track
1, 0, Title_t, "You Are So Beautiful"
1, 0, Text_t, "Played in real Time unedited  - using Steinberg's 'The Grand'\012"
1, 0, Time_signature, 4, 2, 24, 8
1, 0, Key_signature, 0, "major"
1, 0, Tempo, 600000
1, 0, End_track
2, 0, Start_track
2, 0, End_track
3, 0, Start_track
3, 0, Title_t, "MIDI 1"
3, 0, Control_c, 0, 0, 0
3, 1, Control_c, 0, 32, 0
3, 2, Program_c, 0, 0
3, 57, Note_on_c, 0, 53, 31
3, 61, Note_on_c, 0, 81, 60
3, 136, Control_c, 0, 64, 127
3, 881, Note_on_c, 0, 60, 30
3, 1622, Note_on_c, 0, 81, 0
3, 1647, Note_on_c, 0, 69, 37
3, 1655, Note_on_c, 0, 65, 25
3, 2156, Note_on_c, 0, 69, 0
3, 2570, Note_on_c, 0, 81, 94
3, 2597, Note_on_c, 0, 65, 0
3, 3248, Note_on_c, 0, 81, 0
3, 3512, Note_on_c, 0, 81, 76
3, 3547, Note_on_c, 0, 76, 82
3, 3571, Note_on_c, 0, 69, 73
3, 3583, Note_on_c, 0, 64, 50
3, 3599, Note_on_c, 0, 60, 0
3, 3926, Note_on_c, 0, 53, 0
3, 3944, Note_on_c, 0, 64, 0
3, 4852, Note_on_c, 0, 48, 58
3, 4983, Note_on_c, 0, 48, 0
3, 5917, Note_on_c, 0, 41, 44
3, 6652, Note_on_c, 0, 76, 0
3, 6662, Note_on_c, 0, 69, 0
3, 6835, Note_on_c, 0, 81, 0
3, 6995, Note_on_c, 0, 41, 0
3, 7147, Note_on_c, 0, 81, 43
3, 7163, Note_on_c, 0, 75, 44
3, 7180, Note_on_c, 0, 69, 41
3, 7183, Note_on_c, 0, 29, 28
3, 7341, Note_on_c, 0, 29, 0
3, 8200, Note_on_c, 0, 69, 0
3, 8285, Note_on_c, 0, 81, 0
3, 8401, Note_on_c, 0, 75, 0
3, 8711, Note_on_c, 0, 81, 38
3, 8745, Note_on_c, 0, 74, 43
3, 8767, Note_on_c, 0, 69, 34
3, 8776, Note_on_c, 0, 22, 34
3, 8816, Control_c, 0, 64, 0
3, 9395, Control_c, 0, 64, 127
3, 9591, Note_on_c, 0, 22, 0
3, 10081, Note_on_c, 0, 81, 0
3, 10135, Note_on_c, 0, 79, 45
3, 10493, Note_on_c, 0, 69, 0
3, 10869, Note_on_c, 0, 74, 0
3, 10957, Note_on_c, 0, 79, 0
3, 11116, Note_on_c, 0, 60, 31
3, 11118, Note_on_c, 0, 65, 22
3, 11130, Note_on_c, 0, 77, 38
3, 11133, Note_on_c, 0, 62, 33
3, 11809, Note_on_c, 0, 62, 0
3, 11824, Note_on_c, 0, 65, 0
3, 11854, Note_on_c, 0, 60, 0
3, 12120, Note_on_c, 0, 65, 43
3, 12132, Note_on_c, 0, 62, 50
3, 12140, Note_on_c, 0, 60, 41
3, 12852, Note_on_c, 0, 65, 0
3, 12856, Note_on_c, 0, 60, 0
3, 13142, Note_on_c, 0, 62, 0
3, 13883, Note_on_c, 0, 62, 56
3, 13886, Note_on_c, 0, 65, 51
3, 13911, Note_on_c, 0, 60, 43
3, 14301, Note_on_c, 0, 60, 0
3, 14309, Note_on_c, 0, 62, 0
3, 14324, Note_on_c, 0, 65, 0
3, 15190, Note_on_c, 0, 62, 54
3, 15205, Note_on_c, 0, 65, 53
3, 15218, Note_on_c, 0, 60, 41
3, 15487, Note_on_c, 0, 62, 0
3, 15529, Note_on_c, 0, 65, 0
3, 15551, Note_on_c, 0, 77, 0
3, 15586, Note_on_c, 0, 60, 0
3, 16107, Control_c, 0, 64, 0
3, 16108, Note_on_c, 0, 77, 37
3, 16150, Note_on_c, 0, 72, 29
3, 16156, Note_on_c, 0, 65, 46
3, 16157, Note_on_c, 0, 61, 37
3, 16159, Note_on_c, 0, 67, 42
3, 16177, Note_on_c, 0, 55, 33
3, 16444, Control_c, 0, 64, 127
3, 16479, Note_on_c, 0, 65, 0
3, 16536, Note_on_c, 0, 61, 0
3, 16562, Note_on_c, 0, 55, 0
3, 16786, Note_on_c, 0, 67, 0
3, 16905, Note_on_c, 0, 72, 0
3, 16950, Note_on_c, 0, 77, 0
3, 17228, Note_on_c, 0, 39, 34
3, 17233, Note_on_c, 0, 77, 43
3, 17256, Note_on_c, 0, 72, 32
3, 17257, Note_on_c, 0, 67, 36
3, 17310, Note_on_c, 0, 27, 23
3, 17416, Note_on_c, 0, 67, 0
3, 17535, Note_on_c, 0, 72, 0
3, 17603, Note_on_c, 0, 27, 0
3, 17680, Note_on_c, 0, 39, 0
3, 17721, Note_on_c, 0, 77, 0
3, 18961, Note_on_c, 0, 61, 28
3, 18969, Note_on_c, 0, 89, 45
3, 18991, Note_on_c, 0, 65, 34
3, 19012, Note_on_c, 0, 79, 30
3, 19014, Note_on_c, 0, 55, 33
3, 19030, Note_on_c, 0, 84, 35
3, 19138, Note_on_c, 0, 79, 0
3, 19191, Note_on_c, 0, 84, 0
3, 19209, Note_on_c, 0, 65, 0
3, 19232, Note_on_c, 0, 55, 0
3, 19276, Note_on_c, 0, 61, 0
3, 19284, Note_on_c, 0, 89, 0
3, 20053, Note_on_c, 0, 89, 38
3, 20086, Note_on_c, 0, 61, 25
3, 20106, Note_on_c, 0, 65, 26
3, 20123, Note_on_c, 0, 60, 29
3, 20126, Note_on_c, 0, 79, 27
3, 20129, Note_on_c, 0, 84, 30
3, 20136, Note_on_c, 0, 55, 25
3, 20961, Note_on_c, 0, 79, 0
3, 20988, Note_on_c, 0, 89, 0
3, 21039, Note_on_c, 0, 84, 0
3, 21734, Note_on_c, 0, 65, 0
3, 21739, Note_on_c, 0, 55, 0
3, 21750, Note_on_c, 0, 60, 0
3, 21762, Note_on_c, 0, 61, 0
3, 23532, Note_on_c, 0, 96, 57
3, 23572, Note_on_c, 0, 60, 50
3, 25137, Note_on_c, 0, 96, 0
3, 25207, Note_on_c, 0, 69, 42
3, 25213, Note_on_c, 0, 105, 57
3, 25287, Control_c, 0, 64, 0
3, 25351, Control_c, 0, 64, 127
3, 25537, Note_on_c, 0, 60, 0
3, 25683, Note_on_c, 0, 69, 0
3, 25979, Note_on_c, 0, 105, 0
3, 26230, Note_on_c, 0, 53, 57
3, 28039, Note_on_c, 0, 60, 49
3, 28752, Note_on_c, 0, 65, 37
3, 28780, Note_on_c, 0, 69, 52
3, 29184, Note_on_c, 0, 69, 0
3, 29325, Note_on_c, 0, 72, 66
3, 29589, Note_on_c, 0, 72, 0
3, 29838, Note_on_c, 0, 76, 92
3, 29898, Note_on_c, 0, 65, 0
3, 30176, Note_on_c, 0, 53, 0
3, 30271, Note_on_c, 0, 76, 0
3, 30397, Note_on_c, 0, 79, 94
3, 30922, Note_on_c, 0, 79, 0
3, 30988, Note_on_c, 0, 60, 0
3, 31000, Note_on_c, 0, 53, 44
3, 31004, Note_on_c, 0, 77, 66
3, 31026, Control_c, 0, 64, 0
3, 31508, Control_c, 0, 64, 127
3, 31650, Note_on_c, 0, 69, 47
3, 31683, Note_on_c, 0, 60, 34
3, 32296, Note_on_c, 0, 77, 0
3, 32354, Note_on_c, 0, 63, 33
3, 32360, Note_on_c, 0, 75, 52
3, 32452, Control_c, 0, 64, 0
3, 32548, Control_c, 0, 64, 127
3, 32784, Note_on_c, 0, 63, 0
3, 33038, Note_on_c, 0, 60, 0
3, 33192, Note_on_c, 0, 79, 48
3, 33238, Note_on_c, 0, 53, 0
3, 34166, Note_on_c, 0, 79, 0
3, 34184, Note_on_c, 0, 75, 0
3, 34218, Note_on_c, 0, 77, 43
3, 34239, Note_on_c, 0, 29, 40
3, 34298, Control_c, 0, 64, 0
3, 34492, Control_c, 0, 64, 127
3, 34766, Note_on_c, 0, 29, 0
3, 35085, Note_on_c, 0, 69, 0
3, 35169, Note_on_c, 0, 77, 0
3, 35229, Note_on_c, 0, 74, 42
3, 35551, Note_on_c, 0, 74, 0
3, 36401, Note_on_c, 0, 69, 38
3, 36412, Note_on_c, 0, 62, 30
3, 36417, Note_on_c, 0, 66, 32
3, 36433, Note_on_c, 0, 57, 31
3, 36454, Note_on_c, 0, 51, 32
3, 36527, Control_c, 0, 64, 0
3, 36993, Control_c, 0, 64, 127
3, 38251, Note_on_c, 0, 72, 58
3, 38928, Note_on_c, 0, 69, 0
3, 39082, Note_on_c, 0, 62, 0
3, 39275, Note_on_c, 0, 66, 0
3, 39286, Note_on_c, 0, 72, 0
3, 39347, Control_c, 0, 64, 0
3, 39365, Note_on_c, 0, 57, 0
3, 39365, Note_on_c, 0, 46, 30
3, 39368, Note_on_c, 0, 69, 54
3, 39369, Note_on_c, 0, 51, 0
3, 39608, Control_c, 0, 64, 127
3, 39840, Note_on_c, 0, 69, 0
3, 40136, Note_on_c, 0, 53, 36
3, 40229, Note_on_c, 0, 46, 0
3, 40315, Note_on_c, 0, 53, 0
3, 40952, Note_on_c, 0, 81, 87
3, 41013, Note_on_c, 0, 72, 70
3, 41021, Note_on_c, 0, 60, 39
3, 41029, Note_on_c, 0, 65, 52
3, 41343, Note_on_c, 0, 81, 0
3, 41465, Note_on_c, 0, 72, 0
3, 41741, Note_on_c, 0, 65, 0
3, 41759, Note_on_c, 0, 79, 64
3, 41823, Note_on_c, 0, 70, 69
3, 41833, Note_on_c, 0, 62, 41
3, 42174, Note_on_c, 0, 79, 0
3, 42374, Note_on_c, 0, 70, 0
3, 42713, Note_on_c, 0, 77, 55
3, 42758, Note_on_c, 0, 65, 43
3, 42778, Note_on_c, 0, 69, 50
3, 43312, Note_on_c, 0, 60, 0
3, 43556, Note_on_c, 0, 77, 0
3, 43697, Note_on_c, 0, 65, 0
3, 43743, Note_on_c, 0, 77, 48
3, 43762, Note_on_c, 0, 60, 38
3, 43777, Note_on_c, 0, 62, 0
3, 43965, Note_on_c, 0, 60, 0
3, 44377, Note_on_c, 0, 69, 0
3, 44509, Note_on_c, 0, 77, 0
3, 44816, Note_on_c, 0, 77, 50
3, 44820, Control_c, 0, 64, 0
3, 44836, Note_on_c, 0, 39, 33
3, 44843, Note_on_c, 0, 67, 36
3, 44863, Note_on_c, 0, 27, 30
3, 45075, Control_c, 0, 64, 127
3, 45292, Note_on_c, 0, 27, 0
3, 45324, Note_on_c, 0, 67, 0
3, 45402, Note_on_c, 0, 39, 0
3, 45455, Note_on_c, 0, 77, 0
3, 45997, Note_on_c, 0, 82, 46
3, 46004, Note_on_c, 0, 72, 30
3, 46008, Note_on_c, 0, 61, 33
3, 46194, Note_on_c, 0, 72, 0
3, 46312, Note_on_c, 0, 82, 0
3, 47116, Note_on_c, 0, 89, 36
3, 47128, Note_on_c, 0, 55, 42
3, 47130, Note_on_c, 0, 96, 50
3, 47144, Note_on_c, 0, 84, 44
3, 47154, Note_on_c, 0, 65, 33
3, 47504, Note_on_c, 0, 61, 0
3, 48341, Note_on_c, 0, 65, 0
3, 48375, Note_on_c, 0, 61, 25
3, 48708, Note_on_c, 0, 89, 0
3, 48745, Note_on_c, 0, 84, 0
3, 49468, Note_on_c, 0, 96, 0
3, 51061, Note_on_c, 0, 72, 92
3, 51760, Note_on_c, 0, 72, 0
3, 51783, Note_on_c, 0, 74, 63
3, 51918, Note_on_c, 0, 72, 43
3, 51961, Note_on_c, 0, 74, 0
3, 52156, Note_on_c, 0, 71, 68
3, 52162, Note_on_c, 0, 72, 0
3, 52651, Note_on_c, 0, 72, 68
3, 52778, Note_on_c, 0, 71, 0
3, 52818, Note_on_c, 0, 72, 0
3, 53316, Note_on_c, 0, 86, 87
3, 53459, Note_on_c, 0, 55, 0
3, 53613, Note_on_c, 0, 61, 0
3, 54168, Note_on_c, 0, 84, 70
3, 54288, Note_on_c, 0, 86, 0
3, 54802, Note_on_c, 0, 84, 0
3, 54867, Note_on_c, 0, 81, 60
3, 54909, Note_on_c, 0, 53, 32
3, 55024, Control_c, 0, 64, 0
3, 55408, Control_c, 0, 64, 127
3, 55574, Note_on_c, 0, 60, 42
3, 56292, Note_on_c, 0, 72, 40
3, 56451, Note_on_c, 0, 81, 0
3, 57073, Note_on_c, 0, 81, 59
3, 57190, Note_on_c, 0, 72, 0
3, 57645, Note_on_c, 0, 81, 0
3, 57902, Note_on_c, 0, 81, 48
3, 57927, Note_on_c, 0, 76, 55
3, 57939, Note_on_c, 0, 64, 34
3, 57953, Note_on_c, 0, 69, 36
3, 58019, Control_c, 0, 64, 0
3, 58039, Note_on_c, 0, 60, 0
3, 58052, Note_on_c, 0, 69, 0
3, 58236, Note_on_c, 0, 69, 14
3, 58406, Control_c, 0, 64, 127
3, 58806, Note_on_c, 0, 69, 0
3, 58858, Note_on_c, 0, 60, 34
3, 59305, Note_on_c, 0, 76, 0
3, 59411, Note_on_c, 0, 81, 0
3, 60212, Note_on_c, 0, 81, 67
3, 60239, Note_on_c, 0, 64, 0
3, 60265, Note_on_c, 0, 72, 60
3, 60543, Note_on_c, 0, 81, 0
3, 60642, Note_on_c, 0, 72, 0
3, 60973, Note_on_c, 0, 82, 67
3, 60975, Note_on_c, 0, 53, 0
3, 61019, Note_on_c, 0, 74, 70
3, 61311, Note_on_c, 0, 74, 0
3, 61391, Note_on_c, 0, 82, 0
3, 61769, Note_on_c, 0, 60, 0
3, 61823, Control_c, 0, 64, 0
3, 61850, Note_on_c, 0, 53, 55
3, 61875, Note_on_c, 0, 84, 75
3, 61883, Note_on_c, 0, 75, 70
3, 61897, Note_on_c, 0, 63, 52
3, 62112, Control_c, 0, 64, 127
3, 62434, Note_on_c, 0, 84, 0
3, 62571, Note_on_c, 0, 75, 0
3, 62573, Note_on_c, 0, 63, 0
3, 62589, Note_on_c, 0, 58, 63
3, 62957, Note_on_c, 0, 60, 74
3, 63269, Note_on_c, 0, 63, 72
3, 63559, Note_on_c, 0, 67, 72
3, 63789, Note_on_c, 0, 69, 74
3, 63853, Note_on_c, 0, 67, 0
3, 64024, Note_on_c, 0, 70, 78
3, 64046, Note_on_c, 0, 69, 0
3, 64161, Note_on_c, 0, 70, 0
3, 64217, Note_on_c, 0, 72, 65
3, 64367, Note_on_c, 0, 53, 0
3, 64396, Note_on_c, 0, 74, 55
3, 64447, Note_on_c, 0, 72, 0
3, 64460, Note_on_c, 0, 63, 0
3, 64590, Note_on_c, 0, 75, 76
3, 64619, Note_on_c, 0, 74, 0
3, 64666, Note_on_c, 0, 60, 0
3, 64708, Note_on_c, 0, 75, 0
3, 64751, Note_on_c, 0, 77, 63
3, 64758, Note_on_c, 0, 58, 0
3, 64930, Note_on_c, 0, 79, 58
3, 65010, Note_on_c, 0, 77, 0
3, 65087, Note_on_c, 0, 81, 31
3, 65205, Note_on_c, 0, 79, 0
3, 65243, Note_on_c, 0, 82, 59
3, 65255, Note_on_c, 0, 81, 0
3, 65337, Note_on_c, 0, 82, 0
3, 65426, Note_on_c, 0, 84, 56
3, 65598, Note_on_c, 0, 84, 0
3, 65623, Note_on_c, 0, 86, 58
3, 65820, Note_on_c, 0, 87, 35
3, 65823, Note_on_c, 0, 86, 0
3, 65989, Note_on_c, 0, 87, 0
3, 66002, Note_on_c, 0, 88, 47
3, 66106, Control_c, 0, 64, 0
3, 66142, Note_on_c, 0, 29, 31
3, 66156, Note_on_c, 0, 88, 0
3, 66210, Note_on_c, 0, 89, 49
3, 66410, Control_c, 0, 64, 127
3, 66598, Note_on_c, 0, 29, 0
3, 66838, Note_on_c, 0, 91, 44
3, 66932, Note_on_c, 0, 89, 0
3, 67428, Note_on_c, 0, 91, 0
3, 67470, Note_on_c, 0, 86, 55
3, 67510, Note_on_c, 0, 67, 30
3, 67539, Note_on_c, 0, 63, 26
3, 67572, Note_on_c, 0, 57, 33
3, 67839, Note_on_c, 0, 86, 0
3, 68317, Note_on_c, 0, 98, 38
3, 68664, Note_on_c, 0, 67, 0
3, 68851, Note_on_c, 0, 63, 0
3, 69140, Note_on_c, 0, 98, 0
3, 69285, Note_on_c, 0, 96, 44
3, 70287, Note_on_c, 0, 93, 56
3, 70454, Note_on_c, 0, 96, 0
3, 71244, Note_on_c, 0, 89, 54
3, 71247, Note_on_c, 0, 63, 29
3, 71274, Note_on_c, 0, 67, 24
3, 72460, Note_on_c, 0, 67, 0
3, 72801, Note_on_c, 0, 93, 0
3, 72811, Note_on_c, 0, 86, 64
3, 72875, Note_on_c, 0, 89, 0
3, 72934, Note_on_c, 0, 63, 0
3, 73099, Note_on_c, 0, 57, 0
3, 73520, Note_on_c, 0, 87, 64
3, 73630, Note_on_c, 0, 86, 0
3, 73721, Note_on_c, 0, 88, 76
3, 73750, Note_on_c, 0, 87, 0
3, 73855, Note_on_c, 0, 88, 0
3, 73943, Note_on_c, 0, 89, 87
3, 73992, Note_on_c, 0, 88, 34
3, 74055, Note_on_c, 0, 88, 0
3, 74200, Note_on_c, 0, 89, 0
3, 74360, Note_on_c, 0, 89, 88
3, 74629, Note_on_c, 0, 89, 0
3, 74861, Control_c, 0, 64, 0
3, 74861, Note_on_c, 0, 89, 90
3, 74876, Note_on_c, 0, 65, 43
3, 74905, Note_on_c, 0, 62, 43
3, 74934, Note_on_c, 0, 60, 35
3, 75053, Control_c, 0, 64, 127
3, 75146, Note_on_c, 0, 65, 0
3, 75165, Note_on_c, 0, 60, 0
3, 75168, Note_on_c, 0, 62, 0
3, 75584, Note_on_c, 0, 89, 0
3, 75664, Note_on_c, 0, 34, 61
3, 75681, Note_on_c, 0, 89, 69
3, 75889, Note_on_c, 0, 34, 0
3, 75985, Note_on_c, 0, 89, 0
3, 76680, Note_on_c, 0, 89, 51
3, 76700, Note_on_c, 0, 65, 30
3, 76816, Note_on_c, 0, 62, 18
3, 76902, Note_on_c, 0, 65, 0
3, 76926, Note_on_c, 0, 89, 0
3, 76997, Note_on_c, 0, 62, 0
3, 78123, Note_on_c, 0, 98, 73
3, 78192, Note_on_c, 0, 86, 77
3, 78657, Note_on_c, 0, 86, 0
3, 78721, Note_on_c, 0, 98, 0
3, 79127, Note_on_c, 0, 98, 68
3, 79138, Note_on_c, 0, 65, 36
3, 79160, Note_on_c, 0, 62, 33
3, 79169, Note_on_c, 0, 60, 31
3, 79182, Note_on_c, 0, 86, 65
3, 79384, Note_on_c, 0, 65, 0
3, 79437, Note_on_c, 0, 60, 0
3, 79444, Note_on_c, 0, 62, 0
3, 79883, Note_on_c, 0, 86, 0
3, 79922, Note_on_c, 0, 98, 0
3, 80178, Note_on_c, 0, 98, 51
3, 80189, Note_on_c, 0, 86, 57
3, 80531, Note_on_c, 0, 98, 0
3, 80594, Note_on_c, 0, 86, 0
3, 81049, Note_on_c, 0, 34, 36
3, 81082, Note_on_c, 0, 97, 57
3, 81107, Note_on_c, 0, 85, 38
3, 81289, Note_on_c, 0, 34, 0
3, 81880, Note_on_c, 0, 85, 0
3, 81949, Note_on_c, 0, 97, 0
3, 82315, Note_on_c, 0, 98, 55
3, 82335, Note_on_c, 0, 86, 49
3, 82694, Note_on_c, 0, 86, 0
3, 82763, Note_on_c, 0, 98, 0
3, 83572, Note_on_c, 0, 100, 53
3, 83596, Note_on_c, 0, 88, 33
3, 83602, Control_c, 0, 64, 0
3, 83603, Note_on_c, 0, 45, 34
3, 83618, Note_on_c, 0, 33, 33
3, 83873, Control_c, 0, 64, 127
3, 84049, Note_on_c, 0, 33, 0
3, 84160, Note_on_c, 0, 45, 0
3, 84328, Note_on_c, 0, 100, 0
3, 84422, Note_on_c, 0, 88, 0
3, 84835, Note_on_c, 0, 55, 45
3, 85800, Note_on_c, 0, 61, 59
3, 86695, Note_on_c, 0, 65, 68
3, 87164, Note_on_c, 0, 65, 0
3, 87724, Note_on_c, 0, 88, 79
3, 87740, Note_on_c, 0, 76, 66
3, 87759, Note_on_c, 0, 64, 54
3, 87840, Note_on_c, 0, 61, 0
3, 87899, Control_c, 0, 64, 0
3, 88264, Control_c, 0, 64, 127
3, 88762, Note_on_c, 0, 61, 52
3, 89014, Note_on_c, 0, 55, 0
3, 89964, Note_on_c, 0, 55, 34
3, 92269, Note_on_c, 0, 88, 0
3, 92455, Note_on_c, 0, 76, 0
3, 92896, Note_on_c, 0, 64, 0
3, 92945, Note_on_c, 0, 61, 0
3, 93028, Note_on_c, 0, 55, 0
3, 93036, Note_on_c, 0, 88, 35
3, 93395, Note_on_c, 0, 88, 0
3, 93896, Control_c, 0, 64, 0
3, 93975, Note_on_c, 0, 50, 30
3, 93986, Note_on_c, 0, 89, 47
3, 94297, Control_c, 0, 64, 127
3, 94506, Note_on_c, 0, 89, 0
3, 94691, Note_on_c, 0, 57, 34
3, 95427, Note_on_c, 0, 65, 41
3, 95437, Note_on_c, 0, 62, 41
3, 95907, Note_on_c, 0, 65, 0
3, 96190, Note_on_c, 0, 62, 0
3, 96258, Note_on_c, 0, 77, 89
3, 96408, Note_on_c, 0, 50, 0
3, 96745, Note_on_c, 0, 77, 0
3, 97166, Note_on_c, 0, 76, 67
3, 97169, Note_on_c, 0, 57, 0
3, 97188, Note_on_c, 0, 50, 36
3, 97214, Note_on_c, 0, 69, 54
3, 97227, Note_on_c, 0, 61, 36
3, 97234, Note_on_c, 0, 65, 51
3, 97248, Control_c, 0, 64, 0
3, 97954, Control_c, 0, 64, 127
3, 98217, Note_on_c, 0, 57, 46
3, 98235, Note_on_c, 0, 61, 0
3, 98567, Note_on_c, 0, 65, 0
3, 98688, Note_on_c, 0, 69, 0
3, 99081, Note_on_c, 0, 76, 0
3, 99325, Note_on_c, 0, 74, 48
3, 99369, Note_on_c, 0, 65, 26
3, 99377, Note_on_c, 0, 69, 36
3, 99397, Control_c, 0, 64, 0
3, 99400, Note_on_c, 0, 60, 24
3, 99844, Control_c, 0, 64, 127
3, 99891, Note_on_c, 0, 50, 0
3, 100501, Note_on_c, 0, 50, 35
3, 100679, Note_on_c, 0, 60, 0
3, 100682, Note_on_c, 0, 57, 0
3, 100851, Note_on_c, 0, 74, 0
3, 100854, Note_on_c, 0, 50, 0
3, 100956, Note_on_c, 0, 69, 0
3, 101037, Note_on_c, 0, 65, 0
3, 102147, Note_on_c, 0, 69, 48
3, 102174, Note_on_c, 0, 64, 45
3, 102186, Note_on_c, 0, 59, 31
3, 102189, Note_on_c, 0, 43, 29
3, 102219, Control_c, 0, 64, 0
3, 102254, Note_on_c, 0, 53, 26
3, 102829, Control_c, 0, 64, 127
3, 103347, Note_on_c, 0, 59, 0
3, 103352, Note_on_c, 0, 50, 28
3, 103374, Note_on_c, 0, 64, 0
3, 103486, Note_on_c, 0, 53, 0
3, 103835, Note_on_c, 0, 50, 0
3, 104516, Note_on_c, 0, 69, 0
3, 104539, Note_on_c, 0, 59, 30
3, 104541, Note_on_c, 0, 64, 39
3, 104572, Note_on_c, 0, 53, 29
3, 106568, Note_on_c, 0, 59, 0
3, 106744, Note_on_c, 0, 69, 40
3, 106799, Note_on_c, 0, 64, 0
3, 107039, Note_on_c, 0, 69, 0
3, 107102, Note_on_c, 0, 43, 0
3, 107487, Note_on_c, 0, 53, 0
3, 110991, Note_on_c, 0, 77, 45
3, 111011, Note_on_c, 0, 73, 34
3, 111019, Note_on_c, 0, 70, 34
3, 111038, Note_on_c, 0, 65, 34
3, 111046, Note_on_c, 0, 48, 37
3, 111078, Note_on_c, 0, 58, 25
3, 111104, Control_c, 0, 64, 0
3, 111410, Control_c, 0, 64, 127
3, 111711, Note_on_c, 0, 48, 0
3, 111918, Note_on_c, 0, 58, 0
3, 113750, Note_on_c, 0, 60, 39
3, 113755, Note_on_c, 0, 77, 0
3, 113768, Note_on_c, 0, 65, 0
3, 113965, Note_on_c, 0, 73, 0
3, 114057, Note_on_c, 0, 70, 0
3, 114142, Note_on_c, 0, 67, 51
3, 114358, Note_on_c, 0, 67, 0
3, 114367, Note_on_c, 0, 68, 52
3, 114564, Note_on_c, 0, 70, 64
3, 114594, Note_on_c, 0, 68, 0
3, 114698, Note_on_c, 0, 70, 0
3, 114748, Note_on_c, 0, 72, 53
3, 114868, Note_on_c, 0, 73, 48
3, 114879, Note_on_c, 0, 72, 0
3, 115025, Note_on_c, 0, 75, 62
3, 115052, Note_on_c, 0, 73, 0
3, 115134, Note_on_c, 0, 75, 0
3, 115169, Note_on_c, 0, 77, 55
3, 115334, Note_on_c, 0, 79, 60
3, 115364, Note_on_c, 0, 77, 0
3, 115451, Note_on_c, 0, 80, 50
3, 115533, Note_on_c, 0, 79, 0
3, 115586, Note_on_c, 0, 82, 55
3, 115603, Note_on_c, 0, 80, 0
3, 115658, Note_on_c, 0, 82, 0
3, 115763, Note_on_c, 0, 84, 60
3, 115866, Note_on_c, 0, 84, 0
3, 115890, Note_on_c, 0, 85, 59
3, 116029, Note_on_c, 0, 85, 0
3, 116062, Note_on_c, 0, 87, 54
3, 116116, Note_on_c, 0, 87, 0
3, 116192, Note_on_c, 0, 89, 46
3, 116349, Note_on_c, 0, 91, 57
3, 116371, Note_on_c, 0, 89, 0
3, 116377, Note_on_c, 0, 60, 0
3, 116470, Note_on_c, 0, 92, 55
3, 116530, Note_on_c, 0, 91, 0
3, 116624, Note_on_c, 0, 92, 0
3, 116645, Note_on_c, 0, 94, 44
3, 116699, Note_on_c, 0, 94, 0
3, 116798, Note_on_c, 0, 96, 41
3, 116887, Note_on_c, 0, 96, 0
3, 116984, Note_on_c, 0, 97, 50
3, 117178, Note_on_c, 0, 97, 0
3, 117189, Note_on_c, 0, 99, 46
3, 117278, Note_on_c, 0, 99, 0
3, 117335, Note_on_c, 0, 100, 54
3, 117512, Note_on_c, 0, 100, 0
3, 117532, Note_on_c, 0, 101, 45
3, 117701, Note_on_c, 0, 102, 46
3, 117703, Note_on_c, 0, 101, 0
3, 117812, Note_on_c, 0, 102, 0
3, 117914, Note_on_c, 0, 103, 38
3, 118048, Note_on_c, 0, 103, 0
3, 118072, Note_on_c, 0, 104, 35
3, 118187, Note_on_c, 0, 104, 0
3, 118319, Note_on_c, 0, 105, 24
3, 118432, Note_on_c, 0, 105, 0
3, 118452, Note_on_c, 0, 106, 52
3, 118689, Note_on_c, 0, 106, 0
3, 118732, Control_c, 0, 64, 0
3, 118736, Note_on_c, 0, 105, 47
3, 118772, Note_on_c, 0, 41, 42
3, 118828, Note_on_c, 0, 57, 44
3, 119206, Control_c, 0, 64, 127
3, 119289, Note_on_c, 0, 105, 0
3, 119631, Note_on_c, 0, 57, 0
3, 119781, Note_on_c, 0, 48, 42
3, 119822, Note_on_c, 0, 41, 0
3, 119926, Note_on_c, 0, 48, 0
3, 120622, Note_on_c, 0, 72, 37
3, 120630, Note_on_c, 0, 60, 34
3, 121003, Note_on_c, 0, 72, 0
3, 121415, Note_on_c, 0, 81, 95
3, 121442, Note_on_c, 0, 65, 49
3, 121766, Note_on_c, 0, 65, 0
3, 122084, Note_on_c, 0, 81, 0
3, 122328, Note_on_c, 0, 81, 77
3, 122362, Note_on_c, 0, 76, 77
3, 122386, Note_on_c, 0, 53, 29
3, 122395, Control_c, 0, 64, 0
3, 122405, Note_on_c, 0, 69, 64
3, 122410, Note_on_c, 0, 64, 42
3, 122412, Note_on_c, 0, 60, 0
3, 123069, Control_c, 0, 64, 127
3, 123150, Note_on_c, 0, 60, 47
3, 123249, Note_on_c, 0, 64, 0
3, 123539, Note_on_c, 0, 69, 0
3, 123938, Note_on_c, 0, 64, 36
3, 123955, Note_on_c, 0, 69, 49
3, 124145, Note_on_c, 0, 64, 0
3, 124302, Note_on_c, 0, 76, 0
3, 124380, Note_on_c, 0, 69, 0
3, 124535, Note_on_c, 0, 81, 0
3, 124909, Note_on_c, 0, 81, 63
3, 124917, Note_on_c, 0, 63, 43
3, 124926, Note_on_c, 0, 75, 60
3, 124956, Note_on_c, 0, 69, 58
3, 125031, Note_on_c, 0, 63, 0
3, 125049, Note_on_c, 0, 60, 0
3, 125147, Note_on_c, 0, 53, 0
3, 125575, Note_on_c, 0, 69, 0
3, 125649, Note_on_c, 0, 81, 0
3, 125733, Note_on_c, 0, 75, 0
3, 125914, Note_on_c, 0, 81, 57
3, 125922, Note_on_c, 0, 34, 38
3, 125923, Note_on_c, 0, 74, 62
3, 125937, Note_on_c, 0, 46, 25
3, 125958, Note_on_c, 0, 69, 53
3, 125969, Control_c, 0, 64, 0
3, 126246, Note_on_c, 0, 34, 0
3, 126274, Control_c, 0, 64, 127
3, 126319, Note_on_c, 0, 46, 0
3, 126948, Note_on_c, 0, 65, 30
3, 126961, Note_on_c, 0, 62, 40
3, 126978, Note_on_c, 0, 60, 36
3, 127394, Note_on_c, 0, 60, 0
3, 127440, Note_on_c, 0, 62, 0
3, 127441, Note_on_c, 0, 65, 0
3, 127857, Note_on_c, 0, 65, 49
3, 127886, Note_on_c, 0, 62, 45
3, 127889, Note_on_c, 0, 60, 35
3, 128143, Note_on_c, 0, 81, 0
3, 128268, Note_on_c, 0, 62, 0
3, 128286, Note_on_c, 0, 65, 0
3, 128307, Note_on_c, 0, 69, 0
3, 128309, Note_on_c, 0, 60, 0
3, 128323, Note_on_c, 0, 74, 0
3, 128700, Note_on_c, 0, 65, 58
3, 128702, Note_on_c, 0, 79, 71
3, 128704, Note_on_c, 0, 74, 80
3, 128705, Note_on_c, 0, 62, 62
3, 128723, Note_on_c, 0, 60, 55
3, 128824, Note_on_c, 0, 65, 0
3, 128855, Note_on_c, 0, 62, 0
3, 128912, Note_on_c, 0, 60, 0
3, 129171, Note_on_c, 0, 79, 0
3, 129280, Note_on_c, 0, 74, 0
3, 129562, Note_on_c, 0, 39, 61
3, 129580, Note_on_c, 0, 77, 69
3, 129581, Note_on_c, 0, 27, 62
3, 129592, Note_on_c, 0, 72, 65
3, 129626, Control_c, 0, 64, 0
3, 129847, Control_c, 0, 64, 127
3, 129921, Note_on_c, 0, 27, 0
3, 130015, Note_on_c, 0, 39, 0
3, 130657, Note_on_c, 0, 65, 53
3, 130673, Note_on_c, 0, 61, 52
3, 130688, Note_on_c, 0, 60, 56
3, 130692, Note_on_c, 0, 55, 36
3, 131146, Note_on_c, 0, 55, 0
3, 131170, Note_on_c, 0, 60, 0
3, 131220, Note_on_c, 0, 61, 0
3, 131264, Note_on_c, 0, 65, 0
3, 131746, Note_on_c, 0, 61, 40
3, 131753, Note_on_c, 0, 65, 54
3, 131759, Note_on_c, 0, 60, 49
3, 131786, Note_on_c, 0, 55, 49
3, 132155, Note_on_c, 0, 55, 0
3, 132220, Note_on_c, 0, 60, 0
3, 132228, Note_on_c, 0, 65, 0
3, 132242, Note_on_c, 0, 61, 0
3, 132456, Note_on_c, 0, 72, 0
3, 132937, Note_on_c, 0, 77, 0
3, 133006, Note_on_c, 0, 72, 44
3, 133007, Note_on_c, 0, 61, 40
3, 133018, Note_on_c, 0, 65, 45
3, 133023, Note_on_c, 0, 60, 40
3, 133052, Note_on_c, 0, 55, 36
3, 133358, Note_on_c, 0, 65, 0
3, 133389, Note_on_c, 0, 60, 0
3, 133455, Note_on_c, 0, 55, 0
3, 133462, Note_on_c, 0, 61, 0
3, 135207, Control_c, 0, 64, 0
3, 135217, Note_on_c, 0, 72, 0
3, 135254, Note_on_c, 0, 77, 55
3, 135262, Note_on_c, 0, 29, 36
3, 135265, Note_on_c, 0, 69, 53
3, 135280, Note_on_c, 0, 41, 37
3, 135562, Control_c, 0, 64, 127
3, 135735, Note_on_c, 0, 29, 0
3, 135808, Note_on_c, 0, 41, 0
3, 136288, Note_on_c, 0, 69, 0
3, 136348, Note_on_c, 0, 53, 44
3, 136379, Note_on_c, 0, 60, 39
3, 136642, Note_on_c, 0, 77, 0
3, 136848, Note_on_c, 0, 60, 0
3, 137189, Note_on_c, 0, 65, 41
3, 137197, Note_on_c, 0, 69, 46
3, 137205, Note_on_c, 0, 72, 27
3, 137266, Note_on_c, 0, 60, 24
3, 137747, Note_on_c, 0, 65, 0
3, 137761, Note_on_c, 0, 60, 0
3, 137898, Note_on_c, 0, 69, 0
3, 138025, Note_on_c, 0, 72, 0
3, 138037, Note_on_c, 0, 65, 70
3, 138834, Note_on_c, 0, 72, 39
3, 138839, Note_on_c, 0, 67, 58
3, 138842, Note_on_c, 0, 69, 60
3, 139388, Note_on_c, 0, 65, 0
3, 139659, Note_on_c, 0, 64, 94
3, 140080, Note_on_c, 0, 67, 0
3, 140129, Note_on_c, 0, 69, 0
3, 140224, Note_on_c, 0, 72, 0
3, 140487, Note_on_c, 0, 72, 41
3, 140494, Note_on_c, 0, 67, 58
3, 140496, Note_on_c, 0, 69, 64
3, 141332, Note_on_c, 0, 60, 90
3, 141364, Note_on_c, 0, 64, 0
3, 141460, Note_on_c, 0, 53, 0
3, 141749, Note_on_c, 0, 60, 0
3, 141909, Note_on_c, 0, 67, 0
3, 142345, Control_c, 0, 64, 0
3, 142361, Note_on_c, 0, 41, 85
3, 142412, Note_on_c, 0, 69, 0
3, 142566, Control_c, 0, 64, 127
3, 142753, Note_on_c, 0, 41, 0
3, 143238, Note_on_c, 0, 60, 68
3, 143363, Note_on_c, 0, 72, 0
3, 144132, Note_on_c, 0, 69, 57
3, 144134, Note_on_c, 0, 63, 48
3, 144146, Note_on_c, 0, 65, 49
3, 144347, Note_on_c, 0, 65, 0
3, 144419, Note_on_c, 0, 69, 0
3, 144624, Note_on_c, 0, 60, 0
3, 145097, Note_on_c, 0, 81, 95
3, 145113, Note_on_c, 0, 60, 55
3, 145168, Note_on_c, 0, 63, 0
3, 145836, Note_on_c, 0, 81, 0
3, 146235, Note_on_c, 0, 81, 60
3, 146243, Note_on_c, 0, 75, 52
3, 146272, Note_on_c, 0, 69, 56
3, 146274, Note_on_c, 0, 53, 49
3, 146281, Note_on_c, 0, 60, 0
3, 146283, Note_on_c, 0, 63, 42
3, 146323, Control_c, 0, 64, 0
3, 147044, Control_c, 0, 64, 127
3, 147352, Note_on_c, 0, 60, 39
3, 147433, Note_on_c, 0, 63, 0
3, 147725, Note_on_c, 0, 75, 0
3, 147772, Note_on_c, 0, 69, 0
3, 148501, Note_on_c, 0, 75, 40
3, 148506, Note_on_c, 0, 63, 30
3, 148520, Note_on_c, 0, 69, 32
3, 148912, Note_on_c, 0, 81, 0
3, 149178, Note_on_c, 0, 53, 0
3, 149392, Note_on_c, 0, 63, 0
3, 149792, Note_on_c, 0, 60, 0
3, 149814, Note_on_c, 0, 81, 54
3, 149836, Note_on_c, 0, 53, 31
3, 150085, Note_on_c, 0, 53, 0
3, 150842, Note_on_c, 0, 69, 0
3, 151118, Note_on_c, 0, 75, 0
3, 151211, Note_on_c, 0, 81, 0
3, 151664, Note_on_c, 0, 81, 44
3, 151676, Control_c, 0, 64, 0
3, 151687, Note_on_c, 0, 74, 40
3, 151723, Note_on_c, 0, 34, 25
3, 151726, Note_on_c, 0, 69, 39
3, 151736, Note_on_c, 0, 22, 26
3, 152032, Control_c, 0, 64, 127
3, 152098, Note_on_c, 0, 22, 0
3, 152185, Note_on_c, 0, 34, 0
3, 152968, Note_on_c, 0, 69, 0
3, 153005, Note_on_c, 0, 65, 38
3, 153027, Note_on_c, 0, 62, 44
3, 153039, Note_on_c, 0, 60, 38
3, 153409, Note_on_c, 0, 60, 0
3, 153537, Note_on_c, 0, 62, 0
3, 153578, Note_on_c, 0, 65, 0
3, 153939, Note_on_c, 0, 65, 57
3, 153963, Note_on_c, 0, 62, 58
3, 153970, Note_on_c, 0, 60, 48
3, 154350, Note_on_c, 0, 60, 0
3, 154366, Note_on_c, 0, 65, 0
3, 154404, Note_on_c, 0, 81, 0
3, 154416, Note_on_c, 0, 62, 0
3, 154417, Note_on_c, 0, 74, 0
3, 154683, Note_on_c, 0, 79, 87
3, 154694, Note_on_c, 0, 62, 65
3, 154697, Note_on_c, 0, 65, 57
3, 154710, Note_on_c, 0, 60, 57
3, 155008, Note_on_c, 0, 65, 0
3, 155024, Note_on_c, 0, 60, 0
3, 155045, Note_on_c, 0, 62, 0
3, 155288, Note_on_c, 0, 79, 0
3, 155407, Note_on_c, 0, 77, 91
3, 155417, Note_on_c, 0, 65, 62
3, 155419, Note_on_c, 0, 62, 65
3, 155421, Note_on_c, 0, 60, 58
3, 155772, Note_on_c, 0, 60, 0
3, 155790, Note_on_c, 0, 62, 0
3, 155848, Note_on_c, 0, 65, 0
3, 156153, Note_on_c, 0, 65, 58
3, 156167, Note_on_c, 0, 62, 63
3, 156197, Note_on_c, 0, 60, 44
3, 156281, Note_on_c, 0, 60, 0
3, 156285, Note_on_c, 0, 65, 0
3, 156308, Note_on_c, 0, 62, 0
3, 156877, Note_on_c, 0, 46, 46
3, 157148, Note_on_c, 0, 46, 0
3, 157639, Note_on_c, 0, 34, 53
3, 157883, Note_on_c, 0, 34, 0
3, 158463, Control_c, 0, 64, 0
3, 158486, Note_on_c, 0, 27, 63
3, 158652, Note_on_c, 0, 27, 0
3, 158704, Control_c, 0, 64, 127
3, 159335, Note_on_c, 0, 61, 39
3, 159340, Note_on_c, 0, 60, 40
3, 159344, Note_on_c, 0, 65, 49
3, 159368, Note_on_c, 0, 55, 35
3, 159802, Note_on_c, 0, 55, 0
3, 159811, Note_on_c, 0, 60, 0
3, 159824, Note_on_c, 0, 61, 0
3, 159832, Note_on_c, 0, 65, 0
3, 160213, Note_on_c, 0, 65, 38
3, 160221, Note_on_c, 0, 61, 32
3, 160222, Note_on_c, 0, 60, 33
3, 160256, Note_on_c, 0, 55, 35
3, 160499, Note_on_c, 0, 55, 0
3, 160523, Note_on_c, 0, 60, 0
3, 160565, Note_on_c, 0, 65, 0
3, 160583, Note_on_c, 0, 61, 0
3, 161109, Note_on_c, 0, 65, 42
3, 161123, Note_on_c, 0, 61, 37
3, 161130, Note_on_c, 0, 60, 33
3, 161147, Note_on_c, 0, 55, 29
3, 161289, Note_on_c, 0, 65, 0
3, 161306, Note_on_c, 0, 55, 0
3, 161326, Note_on_c, 0, 60, 0
3, 161398, Note_on_c, 0, 61, 0
3, 162005, Note_on_c, 0, 51, 67
3, 162192, Note_on_c, 0, 51, 0
3, 162911, Note_on_c, 0, 60, 31
3, 162929, Note_on_c, 0, 65, 27
3, 162931, Note_on_c, 0, 61, 31
3, 162945, Note_on_c, 0, 55, 31
3, 163020, Note_on_c, 0, 77, 0
3, 163176, Note_on_c, 0, 65, 0
3, 163201, Note_on_c, 0, 55, 0
3, 163208, Note_on_c, 0, 60, 0
3, 163268, Note_on_c, 0, 61, 0
3, 163907, Note_on_c, 0, 61, 46
3, 163907, Note_on_c, 0, 60, 43
3, 163911, Note_on_c, 0, 84, 101
3, 163912, Note_on_c, 0, 65, 50
3, 163931, Note_on_c, 0, 55, 45
3, 164025, Control_c, 0, 64, 0
3, 164090, Control_c, 0, 64, 127
3, 164645, Note_on_c, 0, 65, 0
3, 164658, Note_on_c, 0, 61, 0
3, 164664, Note_on_c, 0, 84, 0
3, 164709, Note_on_c, 0, 86, 74
3, 164760, Note_on_c, 0, 60, 0
3, 164912, Note_on_c, 0, 84, 72
3, 164967, Note_on_c, 0, 86, 0
3, 165183, Note_on_c, 0, 84, 0
3, 165223, Note_on_c, 0, 83, 79
3, 165281, Note_on_c, 0, 61, 51
3, 165301, Note_on_c, 0, 60, 22
3, 165309, Note_on_c, 0, 65, 58
3, 165639, Note_on_c, 0, 83, 0
3, 165877, Note_on_c, 0, 84, 62
3, 165937, Note_on_c, 0, 60, 0
3, 166055, Note_on_c, 0, 84, 0
3, 166402, Note_on_c, 0, 55, 0
3, 166486, Note_on_c, 0, 98, 90
3, 166500, Note_on_c, 0, 61, 0
3, 167130, Note_on_c, 0, 98, 0
3, 167165, Note_on_c, 0, 96, 74
3, 167594, Note_on_c, 0, 96, 0
3, 167914, Note_on_c, 0, 108, 84
3, 167955, Note_on_c, 0, 53, 51
3, 167961, Note_on_c, 0, 65, 0
3, 168100, Control_c, 0, 64, 0
3, 168895, Note_on_c, 0, 105, 73
3, 168921, Note_on_c, 0, 60, 39
3, 168952, Note_on_c, 0, 108, 0
3, 169511, Control_c, 0, 64, 127
3, 169552, Note_on_c, 0, 105, 0
3, 169569, Note_on_c, 0, 100, 69
3, 169639, Note_on_c, 0, 69, 36
3, 170117, Note_on_c, 0, 103, 80
3, 170188, Note_on_c, 0, 100, 0
3, 170359, Note_on_c, 0, 60, 0
3, 170627, Note_on_c, 0, 101, 79
3, 170652, Note_on_c, 0, 69, 0
3, 170711, Note_on_c, 0, 60, 43
3, 170749, Note_on_c, 0, 103, 0
3, 170942, Note_on_c, 0, 53, 0
3, 171055, Note_on_c, 0, 96, 70
3, 171084, Note_on_c, 0, 101, 0
3, 171386, Note_on_c, 0, 96, 0
3, 171440, Note_on_c, 0, 100, 83
3, 171807, Note_on_c, 0, 98, 84
3, 172093, Control_c, 0, 64, 0
3, 172167, Note_on_c, 0, 98, 0
3, 172170, Note_on_c, 0, 100, 0
3, 172184, Note_on_c, 0, 53, 33
3, 172190, Note_on_c, 0, 93, 66
3, 172342, Note_on_c, 0, 60, 0
3, 172367, Control_c, 0, 64, 127
3, 172576, Note_on_c, 0, 93, 0
3, 172601, Note_on_c, 0, 98, 71
3, 172938, Note_on_c, 0, 98, 0
3, 173024, Note_on_c, 0, 96, 60
3, 173356, Note_on_c, 0, 96, 0
3, 173440, Note_on_c, 0, 93, 62
3, 173894, Note_on_c, 0, 89, 50
3, 173953, Note_on_c, 0, 69, 30
3, 174138, Note_on_c, 0, 93, 0
3, 174397, Note_on_c, 0, 89, 0
3, 174416, Note_on_c, 0, 88, 43
3, 174461, Note_on_c, 0, 69, 0
3, 174825, Note_on_c, 0, 88, 0
3, 174892, Note_on_c, 0, 86, 49
3, 175422, Note_on_c, 0, 91, 44
3, 175520, Note_on_c, 0, 86, 0
3, 175919, Note_on_c, 0, 63, 31
3, 175921, Note_on_c, 0, 87, 48
3, 175955, Note_on_c, 0, 67, 35
3, 175956, Note_on_c, 0, 91, 0
3, 175960, Control_c, 0, 64, 0
3, 176603, Control_c, 0, 64, 127
3, 176610, Note_on_c, 0, 81, 31
3, 176652, Note_on_c, 0, 87, 0
3, 176714, Note_on_c, 0, 63, 0
3, 177200, Note_on_c, 0, 53, 0
3, 177251, Note_on_c, 0, 88, 35
3, 177254, Note_on_c, 0, 86, 36
3, 177551, Note_on_c, 0, 88, 0
3, 177740, Note_on_c, 0, 81, 0
3, 177836, Note_on_c, 0, 86, 0
3, 177840, Note_on_c, 0, 67, 0
3, 177911, Note_on_c, 0, 84, 58
3, 178245, Note_on_c, 0, 84, 0
3, 178909, Note_on_c, 0, 75, 32
3, 178915, Note_on_c, 0, 63, 30
3, 178928, Note_on_c, 0, 69, 35
3, 178941, Note_on_c, 0, 53, 32
3, 179039, Control_c, 0, 64, 0
3, 179329, Control_c, 0, 64, 127
3, 180229, Note_on_c, 0, 60, 32
3, 180410, Note_on_c, 0, 69, 0
3, 180584, Note_on_c, 0, 63, 0
3, 180894, Note_on_c, 0, 75, 0
3, 181370, Note_on_c, 0, 63, 30
3, 182105, Note_on_c, 0, 81, 99
3, 182983, Note_on_c, 0, 82, 31
3, 183114, Note_on_c, 0, 81, 0
3, 183140, Note_on_c, 0, 83, 74
3, 183157, Note_on_c, 0, 82, 0
3, 183280, Note_on_c, 0, 83, 0
3, 183318, Control_c, 0, 64, 0
3, 183323, Note_on_c, 0, 84, 89
3, 183577, Control_c, 0, 64, 127
3, 184084, Note_on_c, 0, 84, 0
3, 184185, Note_on_c, 0, 84, 80
3, 184566, Note_on_c, 0, 63, 0
3, 184730, Note_on_c, 0, 53, 0
3, 184961, Note_on_c, 0, 84, 0
3, 184969, Note_on_c, 0, 81, 53
3, 185002, Note_on_c, 0, 60, 0
3, 185517, Note_on_c, 0, 81, 0
3, 185784, Note_on_c, 0, 34, 45
3, 185797, Note_on_c, 0, 81, 51
3, 185820, Control_c, 0, 64, 0
3, 186014, Control_c, 0, 64, 127
3, 186188, Note_on_c, 0, 34, 0
3, 186855, Note_on_c, 0, 65, 28
3, 186902, Note_on_c, 0, 62, 32
3, 186906, Note_on_c, 0, 60, 32
3, 187260, Note_on_c, 0, 60, 0
3, 187387, Note_on_c, 0, 62, 0
3, 187388, Note_on_c, 0, 65, 0
3, 187702, Note_on_c, 0, 65, 38
3, 187710, Note_on_c, 0, 62, 44
3, 187712, Note_on_c, 0, 60, 43
3, 187968, Note_on_c, 0, 60, 0
3, 188021, Note_on_c, 0, 65, 0
3, 188028, Note_on_c, 0, 62, 0
3, 188233, Note_on_c, 0, 81, 0
3, 188375, Note_on_c, 0, 79, 80
3, 188380, Note_on_c, 0, 65, 53
3, 188381, Note_on_c, 0, 62, 56
3, 188407, Note_on_c, 0, 60, 46
3, 188644, Note_on_c, 0, 60, 0
3, 188655, Note_on_c, 0, 65, 0
3, 188701, Note_on_c, 0, 62, 0
3, 188999, Note_on_c, 0, 79, 0
3, 189056, Note_on_c, 0, 77, 63
3, 189080, Note_on_c, 0, 65, 51
3, 189085, Note_on_c, 0, 62, 60
3, 189107, Note_on_c, 0, 60, 46
3, 189340, Note_on_c, 0, 60, 0
3, 189409, Note_on_c, 0, 65, 0
3, 189423, Note_on_c, 0, 62, 0
3, 189769, Note_on_c, 0, 65, 60
3, 189772, Note_on_c, 0, 62, 64
3, 189794, Note_on_c, 0, 60, 55
3, 189961, Note_on_c, 0, 65, 0
3, 190009, Note_on_c, 0, 60, 0
3, 190077, Note_on_c, 0, 62, 0
3, 190521, Note_on_c, 0, 62, 60
3, 190525, Note_on_c, 0, 65, 53
3, 190550, Note_on_c, 0, 60, 50
3, 190812, Note_on_c, 0, 77, 0
3, 190819, Note_on_c, 0, 60, 0
3, 190859, Note_on_c, 0, 65, 0
3, 190868, Note_on_c, 0, 62, 0
3, 191303, Note_on_c, 0, 65, 54
3, 191318, Note_on_c, 0, 62, 58
3, 191322, Note_on_c, 0, 60, 53
3, 191374, Note_on_c, 0, 65, 0
3, 191390, Note_on_c, 0, 62, 0
3, 191411, Note_on_c, 0, 60, 0
3, 192186, Note_on_c, 0, 77, 55
3, 192188, Note_on_c, 0, 39, 34
3, 192190, Note_on_c, 0, 27, 44
3, 192202, Note_on_c, 0, 72, 33
3, 192204, Note_on_c, 0, 67, 44
3, 192242, Control_c, 0, 64, 0
3, 192450, Control_c, 0, 64, 127
3, 192473, Note_on_c, 0, 27, 0
3, 192561, Note_on_c, 0, 39, 0
3, 192836, Note_on_c, 0, 67, 0
3, 192899, Note_on_c, 0, 72, 0
3, 192933, Note_on_c, 0, 77, 0
3, 193097, Note_on_c, 0, 55, 30
3, 193099, Note_on_c, 0, 72, 24
3, 193101, Note_on_c, 0, 61, 25
3, 193103, Note_on_c, 0, 77, 43
3, 193105, Note_on_c, 0, 67, 42
3, 193362, Note_on_c, 0, 67, 0
3, 193379, Note_on_c, 0, 55, 0
3, 193394, Note_on_c, 0, 72, 0
3, 193578, Note_on_c, 0, 77, 0
3, 193755, Note_on_c, 0, 61, 0
3, 193990, Note_on_c, 0, 67, 32
3, 193992, Note_on_c, 0, 61, 25
3, 193994, Note_on_c, 0, 72, 29
3, 194031, Note_on_c, 0, 60, 24
3, 194387, Note_on_c, 0, 60, 0
3, 194423, Note_on_c, 0, 72, 0
3, 194427, Note_on_c, 0, 67, 0
3, 194483, Note_on_c, 0, 61, 0
3, 194894, Note_on_c, 0, 67, 40
3, 194895, Note_on_c, 0, 61, 33
3, 194916, Note_on_c, 0, 72, 26
3, 194922, Note_on_c, 0, 60, 28
3, 194933, Note_on_c, 0, 55, 40
3, 195737, Note_on_c, 0, 55, 0
3, 195959, Note_on_c, 0, 60, 0
3, 195962, Note_on_c, 0, 61, 0
3, 196162, Note_on_c, 0, 67, 0
3, 196266, Note_on_c, 0, 72, 0
3, 196625, Note_on_c, 0, 61, 21
3, 196639, Note_on_c, 0, 65, 32
3, 196642, Note_on_c, 0, 60, 34
3, 196654, Note_on_c, 0, 55, 32
3, 197008, Note_on_c, 0, 60, 0
3, 197030, Note_on_c, 0, 55, 0
3, 197037, Note_on_c, 0, 65, 0
3, 197082, Note_on_c, 0, 61, 0
3, 197545, Note_on_c, 0, 72, 103
3, 197550, Note_on_c, 0, 60, 49
3, 197557, Note_on_c, 0, 61, 43
3, 197560, Note_on_c, 0, 65, 54
3, 197571, Note_on_c, 0, 55, 50
3, 198066, Note_on_c, 0, 65, 0
3, 198108, Note_on_c, 0, 61, 0
3, 198146, Note_on_c, 0, 60, 0
3, 198156, Note_on_c, 0, 55, 0
3, 198244, Note_on_c, 0, 72, 0
3, 198431, Note_on_c, 0, 72, 64
3, 198460, Note_on_c, 0, 55, 40
3, 198465, Note_on_c, 0, 60, 30
3, 198466, Note_on_c, 0, 61, 32
3, 198468, Note_on_c, 0, 65, 43
3, 198674, Note_on_c, 0, 72, 0
3, 198719, Note_on_c, 0, 60, 0
3, 198744, Note_on_c, 0, 65, 0
3, 198829, Note_on_c, 0, 61, 0
3, 198838, Note_on_c, 0, 55, 0
3, 199349, Note_on_c, 0, 81, 77
3, 199366, Note_on_c, 0, 53, 50
3, 199443, Control_c, 0, 64, 0
3, 199748, Control_c, 0, 64, 127
3, 200119, Note_on_c, 0, 60, 39
3, 200620, Note_on_c, 0, 81, 0
3, 200820, Note_on_c, 0, 62, 63
3, 200846, Note_on_c, 0, 60, 0
3, 201464, Note_on_c, 0, 65, 71
3, 202080, Note_on_c, 0, 65, 0
3, 202134, Note_on_c, 0, 67, 80
3, 202650, Note_on_c, 0, 67, 0
3, 202687, Note_on_c, 0, 69, 88
3, 202708, Note_on_c, 0, 67, 43
3, 202766, Note_on_c, 0, 67, 0
3, 203130, Note_on_c, 0, 69, 0
3, 203204, Note_on_c, 0, 72, 67
3, 203376, Note_on_c, 0, 62, 0
3, 203394, Note_on_c, 0, 53, 0
3, 203567, Note_on_c, 0, 72, 0
3, 203700, Note_on_c, 0, 74, 83
3, 204073, Note_on_c, 0, 74, 0
3, 204163, Note_on_c, 0, 75, 69
3, 204172, Note_on_c, 0, 63, 37
3, 204185, Note_on_c, 0, 53, 33
3, 204201, Note_on_c, 0, 58, 48
3, 204220, Control_c, 0, 64, 0
3, 204575, Control_c, 0, 64, 127
3, 204594, Note_on_c, 0, 75, 0
3, 204666, Note_on_c, 0, 77, 56
3, 204713, Note_on_c, 0, 60, 44
3, 204718, Note_on_c, 0, 63, 0
3, 205095, Note_on_c, 0, 77, 0
3, 205156, Note_on_c, 0, 79, 53
3, 205244, Note_on_c, 0, 63, 23
3, 205574, Note_on_c, 0, 82, 58
3, 205582, Note_on_c, 0, 79, 0
3, 205824, Note_on_c, 0, 82, 0
3, 205954, Note_on_c, 0, 84, 61
3, 206232, Note_on_c, 0, 63, 0
3, 206247, Note_on_c, 0, 53, 0
3, 206261, Note_on_c, 0, 84, 0
3, 206310, Note_on_c, 0, 89, 37
3, 206329, Note_on_c, 0, 88, 33
3, 206526, Note_on_c, 0, 88, 0
3, 206612, Note_on_c, 0, 89, 0
3, 206662, Note_on_c, 0, 53, 11
3, 206708, Note_on_c, 0, 60, 0
3, 206888, Note_on_c, 0, 58, 0
3, 206996, Note_on_c, 0, 99, 74
3, 207256, Note_on_c, 0, 99, 0
3, 207341, Note_on_c, 0, 103, 73
3, 207647, Note_on_c, 0, 99, 55
3, 207734, Note_on_c, 0, 103, 0
3, 207871, Note_on_c, 0, 96, 60
3, 207917, Note_on_c, 0, 99, 0
3, 208057, Note_on_c, 0, 96, 0
3, 208097, Note_on_c, 0, 93, 60
3, 208261, Note_on_c, 0, 93, 0
3, 208321, Note_on_c, 0, 92, 42
3, 208524, Note_on_c, 0, 92, 0
3, 208554, Note_on_c, 0, 91, 40
3, 208705, Note_on_c, 0, 91, 0
3, 208718, Note_on_c, 0, 90, 45
3, 208818, Note_on_c, 0, 90, 0
3, 208834, Note_on_c, 0, 89, 48
3, 208991, Note_on_c, 0, 89, 0
3, 209212, Note_on_c, 0, 63, 36
3, 209229, Note_on_c, 0, 65, 28
3, 209232, Note_on_c, 0, 87, 54
3, 209304, Control_c, 0, 64, 0
3, 209363, Note_on_c, 0, 87, 0
3, 209461, Note_on_c, 0, 91, 55
3, 209559, Note_on_c, 0, 87, 43
3, 209637, Note_on_c, 0, 91, 0
3, 209741, Note_on_c, 0, 84, 34
3, 209748, Note_on_c, 0, 87, 0
3, 209773, Note_on_c, 0, 63, 0
3, 209800, Note_on_c, 0, 84, 0
3, 209862, Note_on_c, 0, 81, 37
3, 209957, Note_on_c, 0, 81, 0
3, 210056, Note_on_c, 0, 80, 31
3, 210099, Note_on_c, 0, 53, 0
3, 210176, Note_on_c, 0, 65, 0
3, 210229, Note_on_c, 0, 80, 0
3, 210329, Note_on_c, 0, 78, 50
3, 210467, Note_on_c, 0, 78, 0
3, 210489, Note_on_c, 0, 77, 55
3, 210643, Note_on_c, 0, 77, 0
3, 210735, Note_on_c, 0, 76, 18
3, 210812, Note_on_c, 0, 76, 0
3, 210870, Note_on_c, 0, 75, 49
3, 211006, Note_on_c, 0, 63, 30
3, 211022, Note_on_c, 0, 53, 34
3, 211754, Note_on_c, 0, 72, 41
3, 211797, Note_on_c, 0, 75, 0
3, 212161, Control_c, 0, 64, 127
3, 212162, Note_on_c, 0, 72, 0
3, 212175, Note_on_c, 0, 69, 55
3, 212450, Note_on_c, 0, 63, 0
3, 212591, Note_on_c, 0, 68, 61
3, 212650, Note_on_c, 0, 69, 0
3, 212928, Note_on_c, 0, 68, 0
3, 213063, Note_on_c, 0, 67, 76
3, 213285, Note_on_c, 0, 53, 0
3, 213515, Note_on_c, 0, 67, 0
3, 213530, Note_on_c, 0, 66, 71
3, 213944, Note_on_c, 0, 66, 0
3, 214042, Note_on_c, 0, 65, 67
3, 215327, Note_on_c, 0, 63, 56
3, 215449, Note_on_c, 0, 65, 0
3, 215999, Note_on_c, 0, 63, 0
3, 216083, Note_on_c, 0, 46, 32
3, 216092, Note_on_c, 0, 62, 41
3, 216169, Control_c, 0, 64, 0
3, 216634, Control_c, 0, 64, 127
3, 216747, Note_on_c, 0, 65, 66
3, 216770, Note_on_c, 0, 62, 0
3, 216780, Note_on_c, 0, 53, 27
3, 216892, Note_on_c, 0, 65, 0
3, 217350, Note_on_c, 0, 53, 0
3, 217412, Note_on_c, 0, 46, 0
3, 217424, Note_on_c, 0, 74, 60
3, 217448, Note_on_c, 0, 57, 38
3, 217549, Note_on_c, 0, 74, 0
3, 218116, Note_on_c, 0, 86, 70
3, 218161, Note_on_c, 0, 57, 0
3, 218199, Note_on_c, 0, 58, 35
3, 218452, Note_on_c, 0, 86, 0
3, 218861, Note_on_c, 0, 86, 66
3, 218934, Note_on_c, 0, 62, 33
3, 218958, Note_on_c, 0, 74, 55
3, 219572, Note_on_c, 0, 65, 45
3, 220030, Note_on_c, 0, 65, 0
3, 220091, Note_on_c, 0, 74, 0
3, 220094, Note_on_c, 0, 86, 0
3, 220337, Note_on_c, 0, 85, 68
3, 220356, Note_on_c, 0, 73, 50
3, 220370, Note_on_c, 0, 67, 49
3, 220557, Note_on_c, 0, 62, 0
3, 220850, Note_on_c, 0, 73, 0
3, 220857, Note_on_c, 0, 85, 0
3, 220924, Note_on_c, 0, 67, 0
3, 221025, Note_on_c, 0, 86, 72
3, 221032, Note_on_c, 0, 74, 63
3, 221141, Note_on_c, 0, 58, 0
3, 221232, Note_on_c, 0, 74, 0
3, 221265, Note_on_c, 0, 86, 0
3, 221827, Control_c, 0, 64, 0
3, 221900, Note_on_c, 0, 45, 41
3, 221904, Note_on_c, 0, 88, 66
3, 221919, Note_on_c, 0, 33, 41
3, 221922, Note_on_c, 0, 76, 53
3, 222056, Control_c, 0, 64, 127
3, 222179, Note_on_c, 0, 88, 0
3, 222291, Note_on_c, 0, 33, 0
3, 222317, Note_on_c, 0, 76, 0
3, 222517, Note_on_c, 0, 45, 0
3, 223531, Note_on_c, 0, 46, 45
3, 223884, Note_on_c, 0, 46, 0
3, 223906, Note_on_c, 0, 48, 64
3, 224167, Note_on_c, 0, 49, 69
3, 224168, Note_on_c, 0, 48, 0
3, 224395, Note_on_c, 0, 49, 0
3, 224398, Note_on_c, 0, 51, 64
3, 224548, Note_on_c, 0, 51, 0
3, 224556, Control_c, 0, 64, 0
3, 224560, Note_on_c, 0, 52, 75
3, 224733, Note_on_c, 0, 52, 0
3, 224747, Note_on_c, 0, 54, 67
3, 224914, Note_on_c, 0, 54, 0
3, 224983, Note_on_c, 0, 55, 66
3, 225132, Note_on_c, 0, 55, 0
3, 225157, Note_on_c, 0, 57, 60
3, 225324, Note_on_c, 0, 57, 0
3, 225338, Note_on_c, 0, 58, 61
3, 225457, Note_on_c, 0, 58, 0
3, 225506, Note_on_c, 0, 60, 64
3, 225626, Note_on_c, 0, 60, 0
3, 225653, Note_on_c, 0, 61, 31
3, 225764, Note_on_c, 0, 63, 57
3, 225817, Note_on_c, 0, 61, 0
3, 225888, Note_on_c, 0, 63, 0
3, 225921, Note_on_c, 0, 64, 67
3, 225940, Note_on_c, 0, 55, 41
3, 226013, Note_on_c, 0, 55, 0
3, 226056, Note_on_c, 0, 64, 0
3, 226080, Note_on_c, 0, 66, 63
3, 226134, Note_on_c, 0, 66, 0
3, 226252, Note_on_c, 0, 67, 68
3, 226384, Note_on_c, 0, 67, 0
3, 226394, Note_on_c, 0, 69, 64
3, 226498, Control_c, 0, 64, 127
3, 226530, Note_on_c, 0, 69, 0
3, 226538, Note_on_c, 0, 70, 64
3, 226637, Note_on_c, 0, 70, 0
3, 226688, Note_on_c, 0, 72, 49
3, 226829, Note_on_c, 0, 72, 0
3, 226843, Note_on_c, 0, 73, 33
3, 226973, Note_on_c, 0, 75, 46
3, 226995, Note_on_c, 0, 73, 0
3, 227099, Note_on_c, 0, 75, 0
3, 227142, Note_on_c, 0, 76, 58
3, 227148, Control_c, 0, 64, 0
3, 227302, Note_on_c, 0, 76, 0
3, 227317, Note_on_c, 0, 78, 47
3, 227367, Note_on_c, 0, 61, 33
3, 227371, Note_on_c, 0, 66, 30
3, 227413, Note_on_c, 0, 55, 40
3, 227453, Note_on_c, 0, 78, 0
3, 227556, Note_on_c, 0, 79, 40
3, 227723, Note_on_c, 0, 79, 0
3, 227828, Note_on_c, 0, 81, 48
3, 227930, Note_on_c, 0, 81, 0
3, 228062, Note_on_c, 0, 82, 60
3, 228171, Note_on_c, 0, 82, 0
3, 228307, Note_on_c, 0, 84, 64
3, 228376, Note_on_c, 0, 84, 0
3, 228584, Note_on_c, 0, 85, 51
3, 228644, Note_on_c, 0, 85, 0
3, 228877, Note_on_c, 0, 87, 49
3, 228961, Note_on_c, 0, 87, 0
3, 229185, Note_on_c, 0, 88, 63
3, 229261, Note_on_c, 0, 88, 0
3, 229611, Note_on_c, 0, 88, 68
3, 229620, Note_on_c, 0, 91, 63
3, 229794, Note_on_c, 0, 88, 0
3, 229836, Note_on_c, 0, 91, 0
3, 230028, Note_on_c, 0, 90, 47
3, 230035, Note_on_c, 0, 87, 54
3, 230395, Note_on_c, 0, 90, 0
3, 230407, Note_on_c, 0, 87, 0
3, 230458, Control_c, 0, 64, 127
3, 230482, Note_on_c, 0, 86, 54
3, 230510, Note_on_c, 0, 89, 53
3, 230854, Note_on_c, 0, 89, 0
3, 230905, Note_on_c, 0, 86, 0
3, 230992, Note_on_c, 0, 88, 45
3, 230997, Note_on_c, 0, 85, 39
3, 231115, Note_on_c, 0, 66, 0
3, 231263, Note_on_c, 0, 85, 0
3, 231320, Note_on_c, 0, 88, 0
3, 231496, Note_on_c, 0, 89, 58
3, 231507, Note_on_c, 0, 86, 74
3, 231509, Note_on_c, 0, 66, 34
3, 231700, Note_on_c, 0, 55, 0
3, 231732, Note_on_c, 0, 89, 0
3, 231828, Note_on_c, 0, 86, 0
3, 231846, Note_on_c, 0, 66, 0
3, 232061, Note_on_c, 0, 90, 59
3, 232066, Note_on_c, 0, 87, 72
3, 232131, Note_on_c, 0, 55, 35
3, 232219, Note_on_c, 0, 55, 0
3, 232245, Note_on_c, 0, 61, 0
3, 232634, Note_on_c, 0, 90, 0
3, 232653, Note_on_c, 0, 87, 0
3, 232698, Control_c, 0, 64, 0
3, 232733, Note_on_c, 0, 91, 53
3, 232738, Note_on_c, 0, 88, 45
3, 232741, Note_on_c, 0, 50, 45
3, 232743, Note_on_c, 0, 84, 41
3, 233042, Control_c, 0, 64, 127
3, 233307, Note_on_c, 0, 91, 0
3, 233323, Note_on_c, 0, 88, 0
3, 233334, Note_on_c, 0, 84, 0
3, 233446, Note_on_c, 0, 57, 42
3, 234125, Note_on_c, 0, 57, 0
3, 234127, Note_on_c, 0, 69, 56
3, 234134, Note_on_c, 0, 50, 0
3, 234150, Note_on_c, 0, 62, 50
3, 234376, Note_on_c, 0, 62, 0
3, 234577, Note_on_c, 0, 69, 0
3, 234989, Note_on_c, 0, 67, 60
3, 235014, Note_on_c, 0, 77, 91
3, 235122, Note_on_c, 0, 67, 0
3, 235592, Note_on_c, 0, 77, 0
3, 235926, Note_on_c, 0, 50, 33
3, 235956, Note_on_c, 0, 76, 67
3, 235993, Note_on_c, 0, 61, 53
3, 236012, Note_on_c, 0, 65, 53
3, 236028, Note_on_c, 0, 69, 42
3, 236116, Control_c, 0, 64, 0
3, 236712, Control_c, 0, 64, 127
3, 236905, Note_on_c, 0, 57, 41
3, 237034, Note_on_c, 0, 61, 0
3, 237412, Note_on_c, 0, 65, 0
3, 237438, Note_on_c, 0, 69, 0
3, 237786, Note_on_c, 0, 76, 0
3, 237929, Note_on_c, 0, 74, 51
3, 237953, Note_on_c, 0, 65, 36
3, 237958, Note_on_c, 0, 69, 44
3, 238009, Note_on_c, 0, 60, 14
3, 238290, Note_on_c, 0, 50, 0
3, 238999, Note_on_c, 0, 50, 33
3, 239057, Note_on_c, 0, 65, 0
3, 239198, Note_on_c, 0, 57, 0
3, 239218, Note_on_c, 0, 69, 0
3, 239334, Note_on_c, 0, 50, 0
3, 239416, Note_on_c, 0, 74, 0
3, 239461, Note_on_c, 0, 60, 0
3, 240904, Note_on_c, 0, 81, 57
3, 240906, Note_on_c, 0, 71, 56
3, 240913, Note_on_c, 0, 76, 50
3, 240921, Note_on_c, 0, 53, 48
3, 240928, Note_on_c, 0, 64, 40
3, 240936, Note_on_c, 0, 59, 39
3, 240945, Control_c, 0, 64, 0
3, 241160, Note_on_c, 0, 71, 0
3, 241181, Note_on_c, 0, 81, 0
3, 241184, Note_on_c, 0, 64, 0
3, 241186, Note_on_c, 0, 59, 0
3, 241199, Note_on_c, 0, 76, 0
3, 241212, Note_on_c, 0, 53, 0
3, 241710, Note_on_c, 0, 71, 30
3, 241711, Note_on_c, 0, 53, 35
3, 241713, Note_on_c, 0, 81, 35
3, 241716, Note_on_c, 0, 76, 40
3, 241736, Note_on_c, 0, 64, 24
3, 241741, Note_on_c, 0, 59, 40
3, 241990, Note_on_c, 0, 59, 0
3, 242002, Note_on_c, 0, 53, 0
3, 242013, Note_on_c, 0, 81, 0
3, 242015, Note_on_c, 0, 71, 0
3, 242023, Note_on_c, 0, 64, 0
3, 242032, Note_on_c, 0, 76, 0
3, 242583, Note_on_c, 0, 81, 33
3, 242586, Note_on_c, 0, 71, 29
3, 242590, Note_on_c, 0, 76, 44
3, 242602, Note_on_c, 0, 53, 26
3, 242623, Note_on_c, 0, 59, 36
3, 242629, Note_on_c, 0, 64, 20
3, 242678, Control_c, 0, 64, 127
3, 243978, Note_on_c, 0, 71, 0
3, 244007, Note_on_c, 0, 81, 0
3, 244063, Note_on_c, 0, 76, 0
3, 244404, Note_on_c, 0, 64, 0
3, 244455, Note_on_c, 0, 81, 85
3, 244497, Note_on_c, 0, 59, 0
3, 244661, Note_on_c, 0, 53, 0
3, 244795, Note_on_c, 0, 81, 0
3, 245937, Note_on_c, 0, 77, 63
3, 245959, Note_on_c, 0, 73, 46
3, 245965, Control_c, 0, 64, 0
3, 245967, Note_on_c, 0, 70, 58
3, 245979, Note_on_c, 0, 65, 59
3, 246000, Note_on_c, 0, 48, 46
3, 246030, Note_on_c, 0, 58, 31
3, 246287, Control_c, 0, 64, 127
3, 246388, Note_on_c, 0, 48, 0
3, 246565, Note_on_c, 0, 58, 0
3, 247513, Note_on_c, 0, 60, 53
3, 247953, Note_on_c, 0, 61, 40
3, 247955, Note_on_c, 0, 60, 0
3, 248167, Note_on_c, 0, 65, 0
3, 248173, Note_on_c, 0, 77, 0
3, 248296, Note_on_c, 0, 70, 0
3, 248320, Note_on_c, 0, 73, 0
3, 248391, Note_on_c, 0, 63, 46
3, 248775, Note_on_c, 0, 65, 49
3, 249159, Note_on_c, 0, 67, 55
3, 249510, Note_on_c, 0, 68, 36
3, 249673, Note_on_c, 0, 68, 0
3, 250219, Note_on_c, 0, 67, 0
3, 250335, Note_on_c, 0, 68, 43
3, 250854, Note_on_c, 0, 70, 56
3, 250871, Note_on_c, 0, 68, 0
3, 251144, Note_on_c, 0, 70, 0
3, 251188, Note_on_c, 0, 72, 59
3, 251508, Note_on_c, 0, 72, 0
3, 251641, Note_on_c, 0, 72, 53
3, 251935, Note_on_c, 0, 73, 64
3, 251991, Note_on_c, 0, 72, 0
3, 252218, Note_on_c, 0, 73, 0
3, 252340, Note_on_c, 0, 73, 42
3, 252671, Note_on_c, 0, 75, 75
3, 252758, Note_on_c, 0, 73, 0
3, 253064, Note_on_c, 0, 75, 0
3, 253108, Note_on_c, 0, 77, 63
3, 253576, Note_on_c, 0, 79, 63
3, 253637, Note_on_c, 0, 77, 0
3, 253638, Note_on_c, 0, 65, 0
3, 253706, Note_on_c, 0, 63, 0
3, 253737, Note_on_c, 0, 61, 0
3, 254115, Note_on_c, 0, 80, 62
3, 254154, Note_on_c, 0, 79, 0
3, 254659, Note_on_c, 0, 82, 46
3, 255152, Note_on_c, 0, 80, 0
3, 255189, Note_on_c, 0, 82, 0
3, 255240, Note_on_c, 0, 41, 36
3, 255260, Note_on_c, 0, 81, 54
3, 255284, Control_c, 0, 64, 0
3, 255305, Note_on_c, 0, 57, 35
3, 255750, Control_c, 0, 64, 127
3, 255889, Note_on_c, 0, 57, 0
3, 255912, Note_on_c, 0, 48, 39
3, 256078, Note_on_c, 0, 41, 0
3, 256376, Note_on_c, 0, 48, 0
3, 256509, Note_on_c, 0, 69, 49
3, 256534, Note_on_c, 0, 57, 33
3, 256608, Note_on_c, 0, 57, 0
3, 256617, Note_on_c, 0, 81, 0
3, 257131, Note_on_c, 0, 69, 0
3, 257168, Note_on_c, 0, 81, 73
3, 257193, Note_on_c, 0, 69, 22
3, 257202, Note_on_c, 0, 60, 50
3, 257441, Note_on_c, 0, 69, 0
3, 257601, Note_on_c, 0, 81, 0
3, 258305, Note_on_c, 0, 81, 60
3, 258340, Note_on_c, 0, 73, 46
3, 258366, Note_on_c, 0, 69, 55
3, 258370, Note_on_c, 0, 53, 40
3, 258383, Note_on_c, 0, 60, 0
3, 258410, Note_on_c, 0, 61, 35
3, 258506, Control_c, 0, 64, 0
3, 259198, Note_on_c, 0, 61, 0
3, 259213, Control_c, 0, 64, 127
3, 259362, Note_on_c, 0, 69, 0
3, 259395, Note_on_c, 0, 61, 30
3, 260157, Note_on_c, 0, 69, 48
3, 260183, Note_on_c, 0, 81, 0
3, 261317, Note_on_c, 0, 81, 58
3, 261345, Note_on_c, 0, 61, 0
3, 263274, Note_on_c, 0, 53, 0
3, 263283, Note_on_c, 0, 69, 0
3, 263352, Note_on_c, 0, 73, 0
3, 263595, Note_on_c, 0, 81, 0
3, 264504, Note_on_c, 0, 81, 60
3, 264537, Note_on_c, 0, 46, 36
3, 264567, Control_c, 0, 64, 0
3, 264760, Control_c, 0, 64, 127
3, 264919, Note_on_c, 0, 46, 0
3, 265504, Note_on_c, 0, 65, 34
3, 265527, Note_on_c, 0, 62, 48
3, 265534, Note_on_c, 0, 60, 38
3, 265967, Note_on_c, 0, 60, 0
3, 265975, Note_on_c, 0, 65, 0
3, 266032, Note_on_c, 0, 62, 0
3, 266427, Note_on_c, 0, 65, 48
3, 266435, Note_on_c, 0, 62, 54
3, 266467, Note_on_c, 0, 60, 38
3, 266468, Note_on_c, 0, 81, 0
3, 266684, Note_on_c, 0, 65, 0
3, 266735, Note_on_c, 0, 60, 0
3, 266799, Note_on_c, 0, 62, 0
3, 267432, Note_on_c, 0, 79, 61
3, 267438, Note_on_c, 0, 65, 44
3, 267474, Note_on_c, 0, 62, 41
3, 267477, Note_on_c, 0, 60, 34
3, 267621, Note_on_c, 0, 65, 0
3, 267685, Note_on_c, 0, 60, 0
3, 267696, Note_on_c, 0, 62, 0
3, 267838, Note_on_c, 0, 79, 0
3, 268777, Note_on_c, 0, 77, 57
3, 268797, Control_c, 0, 64, 0
3, 268802, Note_on_c, 0, 72, 37
3, 268814, Note_on_c, 0, 39, 37
3, 268816, Note_on_c, 0, 67, 42
3, 268818, Note_on_c, 0, 27, 49
3, 269172, Control_c, 0, 64, 127
3, 269251, Note_on_c, 0, 27, 0
3, 269348, Note_on_c, 0, 39, 0
3, 269867, Note_on_c, 0, 67, 0
3, 270253, Note_on_c, 0, 61, 28
3, 270270, Note_on_c, 0, 65, 26
3, 270277, Note_on_c, 0, 55, 33
3, 270279, Note_on_c, 0, 60, 34
3, 270697, Note_on_c, 0, 60, 0
3, 270702, Note_on_c, 0, 55, 0
3, 270749, Note_on_c, 0, 65, 0
3, 270780, Note_on_c, 0, 61, 0
3, 271522, Note_on_c, 0, 72, 0
3, 271634, Note_on_c, 0, 61, 29
3, 271670, Note_on_c, 0, 65, 18
3, 271672, Note_on_c, 0, 60, 31
3, 271682, Note_on_c, 0, 55, 30
3, 273547, Note_on_c, 0, 77, 0
3, 274722, Note_on_c, 0, 84, 62
3, 274834, Note_on_c, 0, 60, 0
3, 274840, Note_on_c, 0, 65, 0
3, 274847, Note_on_c, 0, 61, 0
3, 275036, Note_on_c, 0, 55, 0
3, 277865, Note_on_c, 0, 89, 50
3, 277867, Note_on_c, 0, 84, 0
3, 277898, Note_on_c, 0, 53, 34
3, 277976, Control_c, 0, 64, 0
3, 278312, Control_c, 0, 64, 127
3, 278707, Note_on_c, 0, 89, 0
3, 278862, Note_on_c, 0, 60, 24
3, 279776, Note_on_c, 0, 72, 25
3, 279811, Note_on_c, 0, 65, 26
3, 280276, Note_on_c, 0, 60, 0
3, 280705, Note_on_c, 0, 84, 54
3, 280747, Note_on_c, 0, 60, 32
3, 280966, Note_on_c, 0, 84, 0
3, 281006, Note_on_c, 0, 53, 0
3, 281253, Note_on_c, 0, 65, 0
3, 281695, Note_on_c, 0, 72, 0
3, 281763, Note_on_c, 0, 81, 60
3, 281777, Note_on_c, 0, 53, 38
3, 281857, Note_on_c, 0, 60, 0
3, 281869, Control_c, 0, 64, 0
3, 282192, Control_c, 0, 64, 127
3, 282606, Note_on_c, 0, 64, 42
3, 283585, Note_on_c, 0, 73, 29
3, 283604, Note_on_c, 0, 69, 49
3, 284246, Note_on_c, 0, 53, 0
3, 284616, Note_on_c, 0, 81, 0
3, 284718, Note_on_c, 0, 81, 36
3, 284722, Note_on_c, 0, 53, 27
3, 284817, Note_on_c, 0, 73, 0
3, 284986, Note_on_c, 0, 64, 0
3, 285249, Note_on_c, 0, 53, 0
3, 285623, Note_on_c, 0, 69, 0
3, 286088, Note_on_c, 0, 81, 0
3, 287035, Note_on_c, 0, 81, 54
3, 287036, Note_on_c, 0, 78, 36
3, 287051, Control_c, 0, 64, 0
3, 287053, Note_on_c, 0, 74, 55
3, 287054, Note_on_c, 0, 46, 50
3, 287059, Note_on_c, 0, 69, 44
3, 287645, Control_c, 0, 64, 127
3, 287965, Control_c, 0, 64, 0
3, 287971, Note_on_c, 0, 54, 74
3, 288110, Control_c, 0, 64, 127
3, 288848, Control_c, 0, 64, 0
3, 289115, Note_on_c, 0, 55, 57
3, 289119, Control_c, 0, 64, 127
3, 289122, Note_on_c, 0, 54, 0
3, 289280, Note_on_c, 0, 46, 0
3, 289490, Note_on_c, 0, 78, 0
3, 289538, Note_on_c, 0, 81, 0
3, 290157, Note_on_c, 0, 55, 0
3, 290292, Note_on_c, 0, 79, 53
3, 290852, Note_on_c, 0, 79, 0
3, 290898, Note_on_c, 0, 74, 0
3, 290976, Note_on_c, 0, 69, 0
3, 291760, Note_on_c, 0, 77, 58
3, 291767, Note_on_c, 0, 72, 42
3, 291781, Note_on_c, 0, 27, 46
3, 291785, Control_c, 0, 64, 0
3, 291789, Note_on_c, 0, 39, 35
3, 292106, Control_c, 0, 64, 127
3, 292250, Note_on_c, 0, 27, 0
3, 292378, Note_on_c, 0, 39, 0
3, 292425, Note_on_c, 0, 72, 0
3, 292499, Note_on_c, 0, 77, 0
3, 293400, Note_on_c, 0, 96, 38
3, 293416, Note_on_c, 0, 61, 34
3, 293430, Note_on_c, 0, 65, 35
3, 293432, Note_on_c, 0, 84, 33
3, 293447, Note_on_c, 0, 60, 30
3, 293697, Note_on_c, 0, 84, 0
3, 293779, Note_on_c, 0, 65, 0
3, 293810, Note_on_c, 0, 61, 0
3, 293852, Note_on_c, 0, 96, 0
3, 293853, Note_on_c, 0, 60, 0
3, 295444, Note_on_c, 0, 108, 50
3, 295454, Note_on_c, 0, 61, 31
3, 295463, Note_on_c, 0, 65, 44
3, 295481, Note_on_c, 0, 96, 24
3, 295497, Note_on_c, 0, 60, 34
3, 295799, Note_on_c, 0, 108, 0
3, 296054, Note_on_c, 0, 60, 0
3, 296077, Note_on_c, 0, 96, 0
3, 296114, Note_on_c, 0, 61, 0
3, 296130, Note_on_c, 0, 65, 0
3, 299521, Note_on_c, 0, 72, 36
3, 303747, Note_on_c, 0, 77, 53
3, 303791, Note_on_c, 0, 53, 27
3, 303794, Note_on_c, 0, 72, 0
3, 303891, Control_c, 0, 64, 0
3, 304225, Control_c, 0, 64, 127
3, 304689, Note_on_c, 0, 60, 35
3, 304732, Note_on_c, 0, 77, 0
3, 305428, Note_on_c, 0, 53, 0
3, 305622, Note_on_c, 0, 67, 38
3, 305628, Note_on_c, 0, 60, 0
3, 306529, Note_on_c, 0, 69, 48
3, 306558, Note_on_c, 0, 67, 0
3, 307423, Note_on_c, 0, 74, 45
3, 308088, Note_on_c, 0, 74, 0
3, 308461, Note_on_c, 0, 76, 45
3, 309386, Note_on_c, 0, 79, 31
3, 310368, Note_on_c, 0, 81, 35
3, 310489, Note_on_c, 0, 79, 0
3, 311166, Note_on_c, 0, 81, 0
3, 311215, Note_on_c, 0, 88, 34
3, 311501, Note_on_c, 0, 88, 0
3, 311889, Note_on_c, 0, 93, 55
3, 312381, Note_on_c, 0, 93, 0
3, 312591, Note_on_c, 0, 100, 69
3, 313169, Note_on_c, 0, 76, 0
3, 313262, Note_on_c, 0, 100, 0
3, 313352, Note_on_c, 0, 98, 44
3, 313453, Note_on_c, 0, 69, 0
3, 313552, Note_on_c, 0, 98, 0
3, 314252, Note_on_c, 0, 105, 51
3, 315358, Note_on_c, 0, 105, 0
3, 315373, Note_on_c, 0, 108, 42
3, 316330, Note_on_c, 0, 108, 0
3, 316729, Note_on_c, 0, 29, 29
3, 317279, Note_on_c, 0, 29, 0
3, 323099, Control_c, 0, 64, 0
3, 323099, End_track
4, 0, Start_track
4, 0, Title_t, "MIDI 1"
4, 0, End_track
5, 0, Start_track
5, 0, Title_t, "MIDI 2"
5, 0, End_track
0, 0, End_of_file
