0, 0, Header, 1, 7, 120
1, 0, Start_track
1, 0, Title_t, "You Do Something To me"
1, 0, Text_t, "dougmck@pipeline.com.au. Piano solo played in real time. Jessica Williams plays versions of this - \012"
1, 0, Time_signature, 4, 2, 24, 8
1, 0, Key_signature, -1, "major"
1, 0, Tempo, 413793
1, 0, Marker_t, "Bar 1 First chorus LH walking line, RH melody with chord stabs"
1, 360, Marker_t, "Bar 1 - Pass the melody notes across octaves"
1, 15337, Marker_t, "Bar 33 - 2nd chorus - Cross hands - LH plays chord clusters on 'ands' while RH plays right down in bass register"
1, 30720, Marker_t, "Bar 65 3rd chorus - starts with an exaggerated stride style"
1, 39739, Marker_t, "Bar 83 beat 4 - On F# dim a wholestep/half step scale"
1, 42755, Marker_t, "Bar 90 - White note glissando on B half dim and E7b9"
1, 46082, Marker_t, " Bar 97 - Bass and drums (Brush kit) in"
1, 49654, Marker_t, "Bar 104 beat 2 -This prhase is chord tones (Gm9) with neighbouring tones"
1, 59802, Marker_t, "Bar 125 beat 3Bluesy phrases on the turn-around,"
1, 60960, Marker_t, "Bar 128 - Drums - change to sticks on last chorus"
1, 64982, Marker_t, "Bar 136 beat 2 - Cliche gospel type phrase"
1, 68160, Marker_t, "Bar 143 - On C7 chord neighbouring tones of chord tones"
1, 73839, Marker_t, "Bar 155 - Final 8 bars using 'Red Garland' type voicings - LH plays rootless voicings, while RH plays melody in Octaves with note between a perfect 5th"
1, 73839, End_track
2, 0, Start_track
2, 0, Title_t, "Piano played in real time"
2, 0, Note_on_c, 0, 37, 29
2, 0, Note_on_c, 0, 37, 0
2, 13, Note_on_c, 0, 41, 74
2, 13, Note_on_c, 0, 29, 44
2, 25, Note_on_c, 0, 41, 0
2, 94, Note_on_c, 0, 29, 0
2, 123, Note_on_c, 0, 40, 43
2, 215, Note_on_c, 0, 40, 0
2, 242, Note_on_c, 0, 38, 47
2, 356, Note_on_c, 0, 38, 0
2, 359, Note_on_c, 0, 36, 53
2, 475, Note_on_c, 0, 36, 0
2, 484, Note_on_c, 0, 34, 50
2, 487, Note_on_c, 0, 51, 93
2, 552, Note_on_c, 0, 51, 0
2, 561, Note_on_c, 0, 52, 66
2, 598, Note_on_c, 0, 46, 45
2, 600, Note_on_c, 0, 52, 0
2, 697, Note_on_c, 0, 34, 0
2, 725, Note_on_c, 0, 41, 43
2, 733, Note_on_c, 0, 46, 0
2, 846, Note_on_c, 0, 34, 33
2, 847, Note_on_c, 0, 41, 0
2, 929, Note_on_c, 0, 40, 44
2, 942, Note_on_c, 0, 34, 0
2, 954, Note_on_c, 0, 40, 0
2, 967, Note_on_c, 0, 33, 46
2, 1050, Note_on_c, 0, 40, 51
2, 1073, Note_on_c, 0, 40, 0
2, 1077, Note_on_c, 0, 33, 0
2, 1080, Note_on_c, 0, 65, 99
2, 1086, Note_on_c, 0, 45, 53
2, 1137, Note_on_c, 0, 65, 0
2, 1145, Note_on_c, 0, 45, 0
2, 1168, Note_on_c, 0, 41, 42
2, 1188, Note_on_c, 0, 41, 0
2, 1194, Note_on_c, 0, 34, 60
2, 1196, Note_on_c, 0, 79, 96
2, 1304, Note_on_c, 0, 79, 0
2, 1318, Note_on_c, 0, 44, 49
2, 1318, Note_on_c, 0, 88, 59
2, 1389, Note_on_c, 0, 44, 0
2, 1396, Note_on_c, 0, 98, 66
2, 1402, Note_on_c, 0, 88, 0
2, 1420, Note_on_c, 0, 34, 0
2, 1432, Note_on_c, 0, 43, 40
2, 1441, Note_on_c, 0, 98, 0
2, 1514, Note_on_c, 0, 43, 0
2, 1519, Note_on_c, 0, 38, 59
2, 1538, Note_on_c, 0, 38, 0
2, 1563, Note_on_c, 0, 35, 39
2, 1642, Note_on_c, 0, 34, 36
2, 1656, Note_on_c, 0, 35, 0
2, 1671, Note_on_c, 0, 34, 0
2, 1672, Note_on_c, 0, 36, 26
2, 1674, Note_on_c, 0, 62, 39
2, 1680, Note_on_c, 0, 53, 25
2, 1681, Note_on_c, 0, 56, 27
2, 1682, Note_on_c, 0, 58, 31
2, 1738, Note_on_c, 0, 56, 0
2, 1746, Note_on_c, 0, 53, 0
2, 1746, Note_on_c, 0, 58, 0
2, 1746, Note_on_c, 0, 62, 0
2, 1758, Note_on_c, 0, 62, 29
2, 1758, Note_on_c, 0, 53, 40
2, 1761, Note_on_c, 0, 56, 52
2, 1764, Note_on_c, 0, 58, 27
2, 1774, Note_on_c, 0, 58, 0
2, 1774, Note_on_c, 0, 53, 0
2, 1776, Note_on_c, 0, 56, 0
2, 1780, Note_on_c, 0, 62, 0
2, 1784, Note_on_c, 0, 40, 46
2, 1789, Note_on_c, 0, 36, 0
2, 1881, Note_on_c, 0, 39, 30
2, 1911, Note_on_c, 0, 39, 0
2, 1915, Note_on_c, 0, 40, 0
2, 1916, Note_on_c, 0, 62, 55
2, 1917, Note_on_c, 0, 53, 44
2, 1922, Note_on_c, 0, 57, 44
2, 1924, Note_on_c, 0, 41, 31
2, 1927, Note_on_c, 0, 53, 0
2, 1932, Note_on_c, 0, 57, 0
2, 1940, Note_on_c, 0, 62, 0
2, 2039, Note_on_c, 0, 41, 0
2, 2040, Note_on_c, 0, 39, 39
2, 2156, Note_on_c, 0, 39, 0
2, 2159, Note_on_c, 0, 64, 71
2, 2161, Note_on_c, 0, 55, 80
2, 2161, Note_on_c, 0, 57, 74
2, 2163, Note_on_c, 0, 34, 52
2, 2164, Note_on_c, 0, 60, 68
2, 2188, Note_on_c, 0, 55, 0
2, 2193, Note_on_c, 0, 57, 0
2, 2194, Note_on_c, 0, 60, 0
2, 2203, Note_on_c, 0, 64, 0
2, 2248, Note_on_c, 0, 41, 25
2, 2264, Note_on_c, 0, 41, 0
2, 2275, Note_on_c, 0, 44, 44
2, 2278, Note_on_c, 0, 55, 60
2, 2281, Note_on_c, 0, 60, 62
2, 2281, Note_on_c, 0, 57, 46
2, 2319, Note_on_c, 0, 60, 0
2, 2327, Note_on_c, 0, 57, 0
2, 2330, Note_on_c, 0, 55, 0
2, 2360, Note_on_c, 0, 44, 0
2, 2367, Note_on_c, 0, 40, 26
2, 2378, Note_on_c, 0, 34, 0
2, 2379, Note_on_c, 0, 40, 0
2, 2389, Note_on_c, 0, 33, 42
2, 2393, Note_on_c, 0, 45, 41
2, 2396, Note_on_c, 0, 53, 55
2, 2396, Note_on_c, 0, 62, 47
2, 2400, Note_on_c, 0, 57, 53
2, 2402, Note_on_c, 0, 59, 42
2, 2444, Note_on_c, 0, 53, 0
2, 2449, Note_on_c, 0, 57, 0
2, 2450, Note_on_c, 0, 59, 0
2, 2459, Note_on_c, 0, 62, 0
2, 2484, Note_on_c, 0, 45, 0
2, 2489, Note_on_c, 0, 33, 0
2, 2511, Note_on_c, 0, 39, 57
2, 2515, Note_on_c, 0, 65, 56
2, 2517, Note_on_c, 0, 57, 58
2, 2517, Note_on_c, 0, 60, 62
2, 2519, Note_on_c, 0, 62, 51
2, 2552, Note_on_c, 0, 57, 0
2, 2555, Note_on_c, 0, 62, 0
2, 2559, Note_on_c, 0, 60, 0
2, 2562, Note_on_c, 0, 65, 0
2, 2623, Note_on_c, 0, 39, 0
2, 2636, Note_on_c, 0, 38, 41
2, 2639, Note_on_c, 0, 69, 64
2, 2642, Note_on_c, 0, 60, 62
2, 2642, Note_on_c, 0, 63, 46
2, 2644, Note_on_c, 0, 66, 48
2, 2668, Note_on_c, 0, 63, 0
2, 2673, Note_on_c, 0, 69, 0
2, 2681, Note_on_c, 0, 66, 0
2, 2690, Note_on_c, 0, 60, 0
2, 2728, Note_on_c, 0, 62, 72
2, 2729, Note_on_c, 0, 72, 62
2, 2730, Note_on_c, 0, 67, 58
2, 2731, Note_on_c, 0, 65, 57
2, 2732, Note_on_c, 0, 69, 54
2, 2734, Note_on_c, 0, 38, 0
2, 2741, Note_on_c, 0, 67, 0
2, 2742, Note_on_c, 0, 69, 0
2, 2744, Note_on_c, 0, 65, 0
2, 2747, Note_on_c, 0, 62, 0
2, 2754, Note_on_c, 0, 72, 0
2, 2755, Note_on_c, 0, 44, 28
2, 2836, Note_on_c, 0, 39, 27
2, 2844, Note_on_c, 0, 65, 69
2, 2844, Note_on_c, 0, 58, 62
2, 2847, Note_on_c, 0, 72, 47
2, 2851, Note_on_c, 0, 44, 0
2, 2853, Note_on_c, 0, 71, 36
2, 2861, Note_on_c, 0, 43, 46
2, 2862, Note_on_c, 0, 39, 0
2, 2864, Note_on_c, 0, 71, 0
2, 2929, Note_on_c, 0, 43, 0
2, 2962, Note_on_c, 0, 42, 57
2, 2987, Note_on_c, 0, 42, 0
2, 3001, Note_on_c, 0, 43, 37
2, 3067, Note_on_c, 0, 43, 0
2, 3085, Note_on_c, 0, 38, 45
2, 3099, Note_on_c, 0, 38, 0
2, 3116, Note_on_c, 0, 41, 34
2, 3200, Note_on_c, 0, 37, 20
2, 3201, Note_on_c, 0, 41, 0
2, 3219, Note_on_c, 0, 37, 0
2, 3236, Note_on_c, 0, 39, 33
2, 3250, Note_on_c, 0, 58, 0
2, 3293, Note_on_c, 0, 65, 0
2, 3301, Note_on_c, 0, 71, 1
2, 3332, Note_on_c, 0, 72, 0
2, 3343, Note_on_c, 0, 71, 0
2, 3345, Note_on_c, 0, 39, 0
2, 3354, Note_on_c, 0, 60, 47
2, 3355, Note_on_c, 0, 40, 43
2, 3357, Note_on_c, 0, 64, 51
2, 3394, Note_on_c, 0, 64, 0
2, 3405, Note_on_c, 0, 60, 0
2, 3439, Note_on_c, 0, 40, 0
2, 3442, Note_on_c, 0, 34, 59
2, 3474, Note_on_c, 0, 34, 0
2, 3481, Note_on_c, 0, 35, 55
2, 3589, Note_on_c, 0, 35, 0
2, 3596, Note_on_c, 0, 58, 36
2, 3598, Note_on_c, 0, 55, 53
2, 3601, Note_on_c, 0, 36, 36
2, 3677, Note_on_c, 0, 36, 0
2, 3723, Note_on_c, 0, 42, 68
2, 3731, Note_on_c, 0, 55, 0
2, 3797, Note_on_c, 0, 58, 0
2, 3808, Note_on_c, 0, 39, 14
2, 3831, Note_on_c, 0, 39, 0
2, 3834, Note_on_c, 0, 43, 55
2, 3836, Note_on_c, 0, 42, 0
2, 3947, Note_on_c, 0, 43, 0
2, 3956, Note_on_c, 0, 70, 73
2, 3957, Note_on_c, 0, 62, 79
2, 3958, Note_on_c, 0, 58, 71
2, 3961, Note_on_c, 0, 31, 66
2, 4047, Note_on_c, 0, 31, 0
2, 4082, Note_on_c, 0, 36, 49
2, 4186, Note_on_c, 0, 36, 0
2, 4193, Note_on_c, 0, 37, 45
2, 4194, Note_on_c, 0, 62, 0
2, 4214, Note_on_c, 0, 58, 0
2, 4220, Note_on_c, 0, 70, 0
2, 4300, Note_on_c, 0, 37, 0
2, 4314, Note_on_c, 0, 69, 54
2, 4314, Note_on_c, 0, 63, 37
2, 4315, Note_on_c, 0, 60, 45
2, 4316, Note_on_c, 0, 66, 32
2, 4324, Note_on_c, 0, 38, 33
2, 4418, Note_on_c, 0, 38, 0
2, 4438, Note_on_c, 0, 42, 44
2, 4529, Note_on_c, 0, 39, 14
2, 4550, Note_on_c, 0, 39, 0
2, 4553, Note_on_c, 0, 42, 0
2, 4555, Note_on_c, 0, 45, 53
2, 4649, Note_on_c, 0, 45, 0
2, 4674, Note_on_c, 0, 44, 44
2, 4705, Note_on_c, 0, 69, 0
2, 4723, Note_on_c, 0, 60, 0
2, 4751, Note_on_c, 0, 66, 0
2, 4757, Note_on_c, 0, 42, 30
2, 4758, Note_on_c, 0, 63, 0
2, 4782, Note_on_c, 0, 44, 0
2, 4790, Note_on_c, 0, 42, 0
2, 4794, Note_on_c, 0, 43, 36
2, 4797, Note_on_c, 0, 70, 39
2, 4799, Note_on_c, 0, 62, 40
2, 4805, Note_on_c, 0, 58, 25
2, 4828, Note_on_c, 0, 62, 0
2, 4829, Note_on_c, 0, 58, 0
2, 4846, Note_on_c, 0, 70, 0
2, 4886, Note_on_c, 0, 43, 0
2, 4886, Note_on_c, 0, 42, 33
2, 4915, Note_on_c, 0, 74, 62
2, 4917, Note_on_c, 0, 42, 0
2, 4917, Note_on_c, 0, 62, 53
2, 4918, Note_on_c, 0, 70, 39
2, 4918, Note_on_c, 0, 67, 53
2, 4919, Note_on_c, 0, 43, 41
2, 4996, Note_on_c, 0, 67, 0
2, 4997, Note_on_c, 0, 74, 0
2, 5002, Note_on_c, 0, 39, 26
2, 5006, Note_on_c, 0, 43, 0
2, 5006, Note_on_c, 0, 70, 0
2, 5030, Note_on_c, 0, 62, 0
2, 5039, Note_on_c, 0, 39, 0
2, 5039, Note_on_c, 0, 41, 40
2, 5118, Note_on_c, 0, 41, 0
2, 5119, Note_on_c, 0, 70, 57
2, 5121, Note_on_c, 0, 58, 48
2, 5123, Note_on_c, 0, 62, 57
2, 5123, Note_on_c, 0, 39, 20
2, 5128, Note_on_c, 0, 65, 43
2, 5131, Note_on_c, 0, 58, 0
2, 5134, Note_on_c, 0, 62, 0
2, 5138, Note_on_c, 0, 65, 0
2, 5142, Note_on_c, 0, 70, 0
2, 5146, Note_on_c, 0, 41, 37
2, 5147, Note_on_c, 0, 39, 0
2, 5236, Note_on_c, 0, 69, 49
2, 5237, Note_on_c, 0, 61, 61
2, 5240, Note_on_c, 0, 65, 60
2, 5244, Note_on_c, 0, 41, 0
2, 5247, Note_on_c, 0, 55, 32
2, 5256, Note_on_c, 0, 39, 52
2, 5403, Note_on_c, 0, 51, 70
2, 5433, Note_on_c, 0, 55, 0
2, 5435, Note_on_c, 0, 69, 0
2, 5489, Note_on_c, 0, 42, 25
2, 5496, Note_on_c, 0, 65, 0
2, 5498, Note_on_c, 0, 51, 0
2, 5507, Note_on_c, 0, 39, 0
2, 5508, Note_on_c, 0, 50, 43
2, 5522, Note_on_c, 0, 54, 56
2, 5524, Note_on_c, 0, 42, 0
2, 5601, Note_on_c, 0, 38, 55
2, 5606, Note_on_c, 0, 50, 0
2, 5612, Note_on_c, 0, 66, 1
2, 5628, Note_on_c, 0, 38, 0
2, 5641, Note_on_c, 0, 44, 35
2, 5663, Note_on_c, 0, 54, 0
2, 5687, Note_on_c, 0, 66, 0
2, 5708, Note_on_c, 0, 61, 0
2, 5724, Note_on_c, 0, 42, 38
2, 5743, Note_on_c, 0, 44, 0
2, 5745, Note_on_c, 0, 42, 0
2, 5753, Note_on_c, 0, 59, 46
2, 5754, Note_on_c, 0, 67, 47
2, 5754, Note_on_c, 0, 43, 33
2, 5757, Note_on_c, 0, 64, 45
2, 5828, Note_on_c, 0, 67, 0
2, 5830, Note_on_c, 0, 59, 0
2, 5845, Note_on_c, 0, 64, 0
2, 5860, Note_on_c, 0, 43, 0
2, 5872, Note_on_c, 0, 69, 60
2, 5873, Note_on_c, 0, 31, 37
2, 5873, Note_on_c, 0, 59, 61
2, 5875, Note_on_c, 0, 64, 66
2, 5940, Note_on_c, 0, 31, 0
2, 6001, Note_on_c, 0, 38, 48
2, 6099, Note_on_c, 0, 38, 0
2, 6128, Note_on_c, 0, 42, 71
2, 6226, Note_on_c, 0, 42, 0
2, 6240, Note_on_c, 0, 43, 52
2, 6251, Note_on_c, 0, 64, 0
2, 6282, Note_on_c, 0, 69, 0
2, 6288, Note_on_c, 0, 59, 0
2, 6325, Note_on_c, 0, 62, 49
2, 6343, Note_on_c, 0, 62, 0
2, 6348, Note_on_c, 0, 43, 0
2, 6362, Note_on_c, 0, 67, 63
2, 6363, Note_on_c, 0, 38, 25
2, 6364, Note_on_c, 0, 59, 54
2, 6367, Note_on_c, 0, 62, 47
2, 6412, Note_on_c, 0, 62, 0
2, 6414, Note_on_c, 0, 59, 0
2, 6427, Note_on_c, 0, 67, 0
2, 6442, Note_on_c, 0, 62, 66
2, 6443, Note_on_c, 0, 69, 64
2, 6446, Note_on_c, 0, 59, 61
2, 6449, Note_on_c, 0, 67, 42
2, 6454, Note_on_c, 0, 65, 40
2, 6456, Note_on_c, 0, 38, 0
2, 6462, Note_on_c, 0, 43, 37
2, 6467, Note_on_c, 0, 59, 0
2, 6469, Note_on_c, 0, 62, 0
2, 6478, Note_on_c, 0, 69, 0
2, 6482, Note_on_c, 0, 65, 0
2, 6484, Note_on_c, 0, 67, 0
2, 6510, Note_on_c, 0, 71, 57
2, 6516, Note_on_c, 0, 67, 27
2, 6516, Note_on_c, 0, 64, 30
2, 6533, Note_on_c, 0, 64, 0
2, 6542, Note_on_c, 0, 67, 0
2, 6546, Note_on_c, 0, 71, 0
2, 6587, Note_on_c, 0, 43, 0
2, 6598, Note_on_c, 0, 76, 69
2, 6600, Note_on_c, 0, 71, 57
2, 6604, Note_on_c, 0, 72, 38
2, 6605, Note_on_c, 0, 65, 38
2, 6607, Note_on_c, 0, 67, 28
2, 6616, Note_on_c, 0, 67, 0
2, 6636, Note_on_c, 0, 72, 0
2, 6637, Note_on_c, 0, 71, 0
2, 6642, Note_on_c, 0, 76, 0
2, 6652, Note_on_c, 0, 65, 0
2, 6682, Note_on_c, 0, 74, 54
2, 6684, Note_on_c, 0, 70, 56
2, 6688, Note_on_c, 0, 64, 51
2, 6692, Note_on_c, 0, 48, 47
2, 6699, Note_on_c, 0, 64, 0
2, 6704, Note_on_c, 0, 74, 0
2, 6705, Note_on_c, 0, 70, 0
2, 6795, Note_on_c, 0, 43, 42
2, 6807, Note_on_c, 0, 48, 0
2, 6817, Note_on_c, 0, 43, 0
2, 6824, Note_on_c, 0, 36, 38
2, 6828, Note_on_c, 0, 52, 55
2, 6896, Note_on_c, 0, 52, 0
2, 6917, Note_on_c, 0, 48, 34
2, 6929, Note_on_c, 0, 36, 0
2, 6942, Note_on_c, 0, 48, 0
2, 6947, Note_on_c, 0, 38, 53
2, 6951, Note_on_c, 0, 53, 49
2, 6953, Note_on_c, 0, 60, 50
2, 7074, Note_on_c, 0, 52, 53
2, 7075, Note_on_c, 0, 53, 0
2, 7077, Note_on_c, 0, 48, 38
2, 7133, Note_on_c, 0, 38, 0
2, 7160, Note_on_c, 0, 38, 40
2, 7163, Note_on_c, 0, 60, 0
2, 7184, Note_on_c, 0, 52, 0
2, 7192, Note_on_c, 0, 38, 0
2, 7200, Note_on_c, 0, 54, 58
2, 7202, Note_on_c, 0, 60, 57
2, 7202, Note_on_c, 0, 39, 47
2, 7295, Note_on_c, 0, 48, 0
2, 7322, Note_on_c, 0, 48, 41
2, 7322, Note_on_c, 0, 52, 44
2, 7378, Note_on_c, 0, 60, 0
2, 7381, Note_on_c, 0, 52, 0
2, 7396, Note_on_c, 0, 54, 0
2, 7404, Note_on_c, 0, 55, 71
2, 7405, Note_on_c, 0, 48, 0
2, 7405, Note_on_c, 0, 60, 54
2, 7407, Note_on_c, 0, 39, 0
2, 7411, Note_on_c, 0, 40, 49
2, 7452, Note_on_c, 0, 40, 0
2, 7521, Note_on_c, 0, 40, 66
2, 7550, Note_on_c, 0, 40, 0
2, 7568, Note_on_c, 0, 43, 55
2, 7577, Note_on_c, 0, 43, 0
2, 7639, Note_on_c, 0, 44, 61
2, 7653, Note_on_c, 0, 55, 0
2, 7663, Note_on_c, 0, 60, 0
2, 7675, Note_on_c, 0, 44, 0
2, 7684, Note_on_c, 0, 45, 47
2, 7759, Note_on_c, 0, 45, 0
2, 7762, Note_on_c, 0, 42, 23
2, 7784, Note_on_c, 0, 42, 0
2, 7792, Note_on_c, 0, 72, 38
2, 7795, Note_on_c, 0, 64, 42
2, 7795, Note_on_c, 0, 67, 51
2, 7797, Note_on_c, 0, 45, 49
2, 7799, Note_on_c, 0, 69, 42
2, 7837, Note_on_c, 0, 69, 0
2, 7838, Note_on_c, 0, 67, 0
2, 7840, Note_on_c, 0, 72, 0
2, 7840, Note_on_c, 0, 64, 0
2, 7896, Note_on_c, 0, 45, 0
2, 7912, Note_on_c, 0, 72, 33
2, 7913, Note_on_c, 0, 40, 36
2, 7914, Note_on_c, 0, 64, 37
2, 7917, Note_on_c, 0, 67, 37
2, 7937, Note_on_c, 0, 64, 0
2, 7940, Note_on_c, 0, 67, 0
2, 7941, Note_on_c, 0, 72, 0
2, 8033, Note_on_c, 0, 40, 0
2, 8037, Note_on_c, 0, 33, 34
2, 8116, Note_on_c, 0, 40, 54
2, 8117, Note_on_c, 0, 33, 0
2, 8129, Note_on_c, 0, 40, 0
2, 8156, Note_on_c, 0, 65, 59
2, 8157, Note_on_c, 0, 56, 50
2, 8157, Note_on_c, 0, 59, 62
2, 8159, Note_on_c, 0, 62, 56
2, 8161, Note_on_c, 0, 53, 69
2, 8267, Note_on_c, 0, 53, 0
2, 8272, Note_on_c, 0, 51, 59
2, 8386, Note_on_c, 0, 51, 0
2, 8398, Note_on_c, 0, 50, 54
2, 8482, Note_on_c, 0, 50, 0
2, 8482, Note_on_c, 0, 47, 34
2, 8496, Note_on_c, 0, 47, 0
2, 8521, Note_on_c, 0, 42, 42
2, 8571, Note_on_c, 0, 59, 0
2, 8578, Note_on_c, 0, 62, 0
2, 8596, Note_on_c, 0, 56, 0
2, 8608, Note_on_c, 0, 65, 0
2, 8634, Note_on_c, 0, 42, 0
2, 8639, Note_on_c, 0, 64, 51
2, 8641, Note_on_c, 0, 58, 37
2, 8641, Note_on_c, 0, 55, 39
2, 8642, Note_on_c, 0, 43, 30
2, 8739, Note_on_c, 0, 43, 0
2, 8754, Note_on_c, 0, 46, 35
2, 8789, Note_on_c, 0, 55, 0
2, 8806, Note_on_c, 0, 64, 0
2, 8825, Note_on_c, 0, 58, 0
2, 8873, Note_on_c, 0, 50, 47
2, 8874, Note_on_c, 0, 58, 34
2, 8876, Note_on_c, 0, 46, 0
2, 8876, Note_on_c, 0, 55, 40
2, 8919, Note_on_c, 0, 55, 0
2, 8940, Note_on_c, 0, 58, 0
2, 8967, Note_on_c, 0, 50, 0
2, 8985, Note_on_c, 0, 46, 30
2, 8993, Note_on_c, 0, 55, 38
2, 8994, Note_on_c, 0, 58, 28
2, 8998, Note_on_c, 0, 60, 44
2, 9060, Note_on_c, 0, 55, 0
2, 9080, Note_on_c, 0, 58, 0
2, 9086, Note_on_c, 0, 42, 35
2, 9099, Note_on_c, 0, 46, 0
2, 9099, Note_on_c, 0, 60, 0
2, 9113, Note_on_c, 0, 62, 66
2, 9116, Note_on_c, 0, 50, 30
2, 9118, Note_on_c, 0, 57, 46
2, 9194, Note_on_c, 0, 50, 0
2, 9210, Note_on_c, 0, 49, 44
2, 9229, Note_on_c, 0, 49, 0
2, 9231, Note_on_c, 0, 42, 0
2, 9240, Note_on_c, 0, 54, 76
2, 9288, Note_on_c, 0, 44, 12
2, 9330, Note_on_c, 0, 54, 0
2, 9353, Note_on_c, 0, 44, 0
2, 9370, Note_on_c, 0, 50, 27
2, 9465, Note_on_c, 0, 57, 0
2, 9474, Note_on_c, 0, 44, 47
2, 9477, Note_on_c, 0, 62, 0
2, 9479, Note_on_c, 0, 50, 0
2, 9496, Control_c, 0, 64, 127
2, 9497, Note_on_c, 0, 44, 0
2, 9573, Control_c, 0, 64, 0
2, 9591, Note_on_c, 0, 73, 53
2, 9593, Note_on_c, 0, 65, 70
2, 9594, Note_on_c, 0, 56, 48
2, 9594, Note_on_c, 0, 61, 53
2, 9609, Control_c, 0, 64, 127
2, 9648, Control_c, 0, 64, 0
2, 9669, Note_on_c, 0, 56, 0
2, 9708, Note_on_c, 0, 50, 43
2, 9777, Note_on_c, 0, 73, 0
2, 9784, Note_on_c, 0, 65, 0
2, 9793, Note_on_c, 0, 61, 0
2, 9820, Note_on_c, 0, 50, 0
2, 9828, Note_on_c, 0, 61, 33
2, 9830, Note_on_c, 0, 51, 42
2, 9833, Note_on_c, 0, 68, 27
2, 9896, Note_on_c, 0, 51, 0
2, 9903, Note_on_c, 0, 61, 0
2, 9916, Note_on_c, 0, 68, 0
2, 9948, Note_on_c, 0, 46, 56
2, 9949, Note_on_c, 0, 61, 60
2, 9951, Note_on_c, 0, 70, 57
2, 10040, Note_on_c, 0, 61, 0
2, 10050, Note_on_c, 0, 46, 0
2, 10053, Note_on_c, 0, 70, 0
2, 10067, Note_on_c, 0, 72, 53
2, 10070, Note_on_c, 0, 60, 37
2, 10074, Note_on_c, 0, 45, 32
2, 10157, Note_on_c, 0, 45, 0
2, 10187, Note_on_c, 0, 51, 56
2, 10198, Note_on_c, 0, 72, 0
2, 10261, Note_on_c, 0, 60, 0
2, 10273, Note_on_c, 0, 51, 0
2, 10274, Note_on_c, 0, 46, 33
2, 10302, Note_on_c, 0, 46, 0
2, 10309, Note_on_c, 0, 50, 43
2, 10313, Note_on_c, 0, 60, 32
2, 10314, Note_on_c, 0, 67, 39
2, 10318, Note_on_c, 0, 64, 37
2, 10370, Note_on_c, 0, 60, 0
2, 10373, Note_on_c, 0, 64, 0
2, 10387, Note_on_c, 0, 67, 0
2, 10398, Note_on_c, 0, 69, 63
2, 10398, Note_on_c, 0, 64, 50
2, 10398, Note_on_c, 0, 60, 40
2, 10407, Note_on_c, 0, 64, 0
2, 10408, Note_on_c, 0, 60, 0
2, 10412, Note_on_c, 0, 69, 0
2, 10412, Note_on_c, 0, 50, 0
2, 10423, Note_on_c, 0, 38, 34
2, 10507, Note_on_c, 0, 38, 0
2, 10509, Note_on_c, 0, 42, 40
2, 10516, Note_on_c, 0, 71, 61
2, 10518, Note_on_c, 0, 63, 47
2, 10518, Note_on_c, 0, 68, 50
2, 10518, Note_on_c, 0, 59, 62
2, 10530, Note_on_c, 0, 42, 0
2, 10540, Note_on_c, 0, 44, 39
2, 10675, Note_on_c, 0, 37, 47
2, 10687, Note_on_c, 0, 44, 0
2, 10712, Note_on_c, 0, 71, 0
2, 10738, Note_on_c, 0, 59, 0
2, 10743, Note_on_c, 0, 68, 0
2, 10763, Note_on_c, 0, 63, 0
2, 10767, Note_on_c, 0, 39, 20
2, 10774, Note_on_c, 0, 42, 25
2, 10786, Note_on_c, 0, 42, 0
2, 10788, Note_on_c, 0, 39, 0
2, 10790, Note_on_c, 0, 37, 0
2, 10791, Note_on_c, 0, 43, 48
2, 10794, Note_on_c, 0, 63, 40
2, 10794, Note_on_c, 0, 65, 54
2, 10795, Note_on_c, 0, 59, 46
2, 10865, Note_on_c, 0, 59, 0
2, 10870, Note_on_c, 0, 63, 0
2, 10881, Note_on_c, 0, 65, 0
2, 10899, Note_on_c, 0, 43, 0
2, 10911, Note_on_c, 0, 67, 55
2, 10912, Note_on_c, 0, 63, 49
2, 10914, Note_on_c, 0, 47, 33
2, 10915, Note_on_c, 0, 59, 45
2, 10969, Note_on_c, 0, 47, 0
2, 10997, Note_on_c, 0, 59, 0
2, 11015, Note_on_c, 0, 63, 0
2, 11026, Note_on_c, 0, 67, 0
2, 11034, Note_on_c, 0, 62, 28
2, 11035, Note_on_c, 0, 57, 54
2, 11037, Note_on_c, 0, 58, 64
2, 11039, Note_on_c, 0, 65, 52
2, 11040, Note_on_c, 0, 69, 64
2, 11118, Note_on_c, 0, 57, 0
2, 11122, Note_on_c, 0, 48, 71
2, 11142, Control_c, 0, 64, 127
2, 11225, Note_on_c, 0, 58, 0
2, 11234, Note_on_c, 0, 62, 0
2, 11242, Note_on_c, 0, 69, 0
2, 11244, Note_on_c, 0, 65, 0
2, 11356, Note_on_c, 0, 73, 57
2, 11358, Note_on_c, 0, 68, 67
2, 11360, Note_on_c, 0, 64, 68
2, 11363, Note_on_c, 0, 58, 64
2, 11364, Note_on_c, 0, 70, 47
2, 11376, Control_c, 0, 64, 0
2, 11409, Control_c, 0, 64, 127
2, 11476, Note_on_c, 0, 58, 0
2, 11495, Note_on_c, 0, 73, 0
2, 11497, Note_on_c, 0, 64, 0
2, 11502, Note_on_c, 0, 68, 0
2, 11507, Note_on_c, 0, 70, 0
2, 11508, Control_c, 0, 64, 0
2, 11521, Note_on_c, 0, 57, 58
2, 11523, Note_on_c, 0, 72, 59
2, 11523, Note_on_c, 0, 67, 67
2, 11524, Note_on_c, 0, 62, 60
2, 11526, Note_on_c, 0, 48, 0
2, 11606, Note_on_c, 0, 48, 63
2, 11613, Note_on_c, 0, 57, 0
2, 11621, Control_c, 0, 64, 127
2, 11625, Note_on_c, 0, 72, 0
2, 11627, Note_on_c, 0, 67, 0
2, 11644, Note_on_c, 0, 48, 0
2, 11652, Note_on_c, 0, 62, 0
2, 11722, Control_c, 0, 64, 0
2, 11724, Note_on_c, 0, 47, 50
2, 11724, Note_on_c, 0, 65, 54
2, 11724, Note_on_c, 0, 57, 54
2, 11725, Note_on_c, 0, 60, 62
2, 11727, Note_on_c, 0, 62, 47
2, 11729, Note_on_c, 0, 48, 55
2, 11733, Note_on_c, 0, 47, 0
2, 11838, Note_on_c, 0, 48, 0
2, 11846, Note_on_c, 0, 45, 51
2, 11871, Note_on_c, 0, 45, 0
2, 11888, Note_on_c, 0, 46, 38
2, 11918, Note_on_c, 0, 65, 0
2, 11920, Note_on_c, 0, 62, 0
2, 11932, Note_on_c, 0, 60, 0
2, 11943, Note_on_c, 0, 57, 0
2, 11986, Note_on_c, 0, 46, 0
2, 11993, Note_on_c, 0, 57, 46
2, 11994, Note_on_c, 0, 47, 43
2, 11994, Note_on_c, 0, 59, 46
2, 11995, Note_on_c, 0, 64, 40
2, 12085, Note_on_c, 0, 57, 0
2, 12108, Note_on_c, 0, 47, 0
2, 12109, Note_on_c, 0, 59, 0
2, 12112, Note_on_c, 0, 64, 0
2, 12114, Note_on_c, 0, 57, 48
2, 12116, Note_on_c, 0, 41, 35
2, 12227, Note_on_c, 0, 57, 0
2, 12233, Note_on_c, 0, 41, 0
2, 12234, Note_on_c, 0, 56, 38
2, 12235, Note_on_c, 0, 40, 44
2, 12316, Note_on_c, 0, 39, 39
2, 12337, Note_on_c, 0, 40, 0
2, 12348, Note_on_c, 0, 46, 47
2, 12358, Note_on_c, 0, 39, 0
2, 12365, Note_on_c, 0, 56, 0
2, 12431, Note_on_c, 0, 39, 19
2, 12455, Note_on_c, 0, 46, 0
2, 12473, Note_on_c, 0, 65, 51
2, 12474, Note_on_c, 0, 55, 53
2, 12477, Note_on_c, 0, 45, 39
2, 12479, Note_on_c, 0, 60, 50
2, 12496, Note_on_c, 0, 39, 0
2, 12569, Note_on_c, 0, 45, 0
2, 12592, Note_on_c, 0, 45, 49
2, 12600, Note_on_c, 0, 65, 0
2, 12622, Note_on_c, 0, 55, 0
2, 12656, Note_on_c, 0, 60, 0
2, 12689, Note_on_c, 0, 45, 0
2, 12692, Note_on_c, 0, 44, 32
2, 12711, Note_on_c, 0, 44, 0
2, 12714, Note_on_c, 0, 67, 62
2, 12714, Note_on_c, 0, 56, 53
2, 12718, Note_on_c, 0, 60, 59
2, 12722, Note_on_c, 0, 46, 42
2, 12772, Note_on_c, 0, 67, 0
2, 12792, Note_on_c, 0, 60, 0
2, 12811, Note_on_c, 0, 56, 0
2, 12834, Note_on_c, 0, 64, 53
2, 12836, Note_on_c, 0, 39, 40
2, 12837, Note_on_c, 0, 55, 36
2, 12838, Note_on_c, 0, 60, 48
2, 12842, Note_on_c, 0, 46, 0
2, 12917, Note_on_c, 0, 55, 0
2, 12919, Note_on_c, 0, 60, 0
2, 12930, Note_on_c, 0, 39, 0
2, 12932, Note_on_c, 0, 42, 20
2, 12938, Note_on_c, 0, 64, 0
2, 12945, Note_on_c, 0, 42, 0
2, 12950, Note_on_c, 0, 45, 50
2, 12954, Note_on_c, 0, 62, 51
2, 12954, Note_on_c, 0, 55, 49
2, 12955, Note_on_c, 0, 60, 51
2, 13068, Note_on_c, 0, 45, 0
2, 13070, Note_on_c, 0, 39, 48
2, 13083, Note_on_c, 0, 55, 0
2, 13158, Note_on_c, 0, 54, 67
2, 13159, Note_on_c, 0, 39, 0
2, 13180, Note_on_c, 0, 38, 37
2, 13283, Note_on_c, 0, 42, 30
2, 13294, Note_on_c, 0, 38, 0
2, 13312, Note_on_c, 0, 42, 0
2, 13313, Note_on_c, 0, 44, 47
2, 13334, Note_on_c, 0, 54, 0
2, 13367, Note_on_c, 0, 62, 0
2, 13370, Note_on_c, 0, 60, 0
2, 13393, Note_on_c, 0, 42, 32
2, 13419, Note_on_c, 0, 44, 0
2, 13427, Note_on_c, 0, 42, 0
2, 13431, Note_on_c, 0, 43, 38
2, 13436, Note_on_c, 0, 61, 38
2, 13441, Note_on_c, 0, 53, 32
2, 13442, Note_on_c, 0, 59, 41
2, 13479, Note_on_c, 0, 59, 0
2, 13480, Note_on_c, 0, 43, 0
2, 13484, Note_on_c, 0, 53, 0
2, 13491, Note_on_c, 0, 61, 0
2, 13557, Note_on_c, 0, 62, 54
2, 13558, Note_on_c, 0, 53, 39
2, 13559, Note_on_c, 0, 43, 36
2, 13559, Note_on_c, 0, 59, 36
2, 13609, Note_on_c, 0, 59, 0
2, 13610, Note_on_c, 0, 43, 0
2, 13611, Note_on_c, 0, 62, 0
2, 13612, Note_on_c, 0, 53, 0
2, 13675, Note_on_c, 0, 53, 36
2, 13676, Note_on_c, 0, 62, 48
2, 13677, Note_on_c, 0, 59, 40
2, 13678, Note_on_c, 0, 43, 40
2, 13737, Note_on_c, 0, 43, 0
2, 13737, Note_on_c, 0, 53, 0
2, 13737, Note_on_c, 0, 62, 0
2, 13742, Note_on_c, 0, 59, 0
2, 13761, Note_on_c, 0, 43, 40
2, 13761, Note_on_c, 0, 53, 38
2, 13761, Note_on_c, 0, 59, 45
2, 13763, Note_on_c, 0, 62, 52
2, 13774, Control_c, 0, 64, 127
2, 13776, Note_on_c, 0, 53, 0
2, 13781, Note_on_c, 0, 43, 0
2, 13785, Note_on_c, 0, 59, 0
2, 13791, Note_on_c, 0, 62, 0
2, 13892, Control_c, 0, 64, 0
2, 13921, Note_on_c, 0, 67, 55
2, 13923, Note_on_c, 0, 58, 37
2, 13923, Note_on_c, 0, 65, 49
2, 13926, Note_on_c, 0, 62, 51
2, 14002, Note_on_c, 0, 48, 56
2, 14005, Note_on_c, 0, 47, 47
2, 14013, Note_on_c, 0, 47, 0
2, 14091, Note_on_c, 0, 67, 0
2, 14097, Note_on_c, 0, 62, 0
2, 14101, Note_on_c, 0, 65, 0
2, 14115, Note_on_c, 0, 58, 0
2, 14240, Note_on_c, 0, 58, 50
2, 14240, Note_on_c, 0, 65, 52
2, 14241, Note_on_c, 0, 62, 58
2, 14245, Note_on_c, 0, 53, 43
2, 14245, Note_on_c, 0, 55, 45
2, 14294, Note_on_c, 0, 48, 0
2, 14363, Note_on_c, 0, 48, 75
2, 14367, Note_on_c, 0, 47, 60
2, 14375, Note_on_c, 0, 47, 0
2, 14440, Note_on_c, 0, 53, 0
2, 14449, Note_on_c, 0, 55, 0
2, 14456, Note_on_c, 0, 58, 0
2, 14457, Note_on_c, 0, 65, 0
2, 14475, Note_on_c, 0, 62, 0
2, 14493, Note_on_c, 0, 47, 32
2, 14503, Note_on_c, 0, 47, 0
2, 14521, Note_on_c, 0, 57, 53
2, 14521, Note_on_c, 0, 65, 54
2, 14523, Note_on_c, 0, 60, 58
2, 14525, Note_on_c, 0, 62, 53
2, 14540, Note_on_c, 0, 48, 0
2, 14604, Note_on_c, 0, 48, 70
2, 14607, Note_on_c, 0, 47, 58
2, 14615, Note_on_c, 0, 47, 0
2, 14751, Control_c, 0, 64, 127
2, 14782, Note_on_c, 0, 65, 0
2, 14784, Note_on_c, 0, 60, 0
2, 14797, Note_on_c, 0, 57, 0
2, 14806, Note_on_c, 0, 62, 0
2, 14833, Control_c, 0, 64, 0
2, 14840, Note_on_c, 0, 65, 58
2, 14842, Note_on_c, 0, 56, 52
2, 14843, Note_on_c, 0, 59, 62
2, 14844, Note_on_c, 0, 62, 45
2, 14879, Note_on_c, 0, 48, 0
2, 14952, Note_on_c, 0, 48, 72
2, 14956, Note_on_c, 0, 47, 58
2, 14964, Note_on_c, 0, 47, 0
2, 14976, Note_on_c, 0, 56, 0
2, 14989, Note_on_c, 0, 59, 0
2, 14999, Control_c, 0, 64, 127
2, 15000, Note_on_c, 0, 62, 0
2, 15012, Note_on_c, 0, 48, 0
2, 15033, Note_on_c, 0, 65, 0
2, 15074, Control_c, 0, 64, 0
2, 15074, Note_on_c, 0, 61, 56
2, 15074, Note_on_c, 0, 65, 61
2, 15075, Note_on_c, 0, 58, 56
2, 15076, Note_on_c, 0, 55, 64
2, 15108, Control_c, 0, 64, 127
2, 15180, Note_on_c, 0, 58, 0
2, 15194, Note_on_c, 0, 61, 0
2, 15196, Note_on_c, 0, 55, 0
2, 15202, Note_on_c, 0, 65, 0
2, 15358, Note_on_c, 0, 60, 26
2, 15360, Note_on_c, 0, 69, 38
2, 15360, Control_c, 0, 64, 0
2, 15361, Note_on_c, 0, 65, 35
2, 15363, Note_on_c, 0, 62, 20
2, 15377, Note_on_c, 0, 60, 0
2, 15379, Note_on_c, 0, 69, 0
2, 15380, Note_on_c, 0, 65, 0
2, 15383, Note_on_c, 0, 62, 0
2, 15437, Note_on_c, 0, 69, 43
2, 15439, Note_on_c, 0, 65, 43
2, 15442, Note_on_c, 0, 60, 30
2, 15443, Note_on_c, 0, 62, 34
2, 15456, Note_on_c, 0, 60, 0
2, 15461, Note_on_c, 0, 69, 0
2, 15466, Note_on_c, 0, 65, 0
2, 15477, Note_on_c, 0, 62, 0
2, 15482, Note_on_c, 0, 41, 53
2, 15552, Note_on_c, 0, 69, 53
2, 15554, Note_on_c, 0, 65, 45
2, 15558, Note_on_c, 0, 62, 32
2, 15564, Note_on_c, 0, 69, 0
2, 15565, Note_on_c, 0, 65, 0
2, 15582, Note_on_c, 0, 62, 0
2, 15674, Note_on_c, 0, 69, 52
2, 15677, Note_on_c, 0, 65, 50
2, 15686, Note_on_c, 0, 65, 0
2, 15686, Note_on_c, 0, 69, 0
2, 15795, Note_on_c, 0, 69, 52
2, 15798, Note_on_c, 0, 65, 50
2, 15807, Note_on_c, 0, 65, 0
2, 15807, Note_on_c, 0, 69, 0
2, 15836, Note_on_c, 0, 40, 70
2, 15846, Note_on_c, 0, 41, 0
2, 15909, Note_on_c, 0, 56, 49
2, 15912, Note_on_c, 0, 65, 49
2, 15912, Note_on_c, 0, 62, 52
2, 15925, Note_on_c, 0, 65, 0
2, 15930, Note_on_c, 0, 62, 0
2, 15932, Note_on_c, 0, 56, 0
2, 16033, Note_on_c, 0, 62, 50
2, 16035, Note_on_c, 0, 65, 44
2, 16035, Note_on_c, 0, 56, 34
2, 16049, Note_on_c, 0, 65, 0
2, 16055, Note_on_c, 0, 56, 0
2, 16056, Note_on_c, 0, 62, 0
2, 16152, Note_on_c, 0, 56, 44
2, 16154, Note_on_c, 0, 65, 48
2, 16154, Note_on_c, 0, 62, 54
2, 16166, Note_on_c, 0, 65, 0
2, 16170, Note_on_c, 0, 62, 0
2, 16182, Note_on_c, 0, 56, 0
2, 16266, Note_on_c, 0, 65, 43
2, 16270, Note_on_c, 0, 57, 43
2, 16272, Note_on_c, 0, 60, 34
2, 16275, Note_on_c, 0, 65, 0
2, 16285, Note_on_c, 0, 60, 0
2, 16291, Note_on_c, 0, 57, 0
2, 16292, Note_on_c, 0, 40, 0
2, 16309, Note_on_c, 0, 41, 60
2, 16368, Note_on_c, 0, 41, 0
2, 16386, Note_on_c, 0, 65, 37
2, 16388, Note_on_c, 0, 57, 34
2, 16390, Note_on_c, 0, 60, 36
2, 16396, Note_on_c, 0, 65, 0
2, 16405, Note_on_c, 0, 60, 0
2, 16409, Note_on_c, 0, 57, 0
2, 16432, Note_on_c, 0, 43, 75
2, 16535, Note_on_c, 0, 56, 43
2, 16536, Note_on_c, 0, 65, 44
2, 16540, Note_on_c, 0, 62, 48
2, 16553, Note_on_c, 0, 65, 0
2, 16555, Note_on_c, 0, 56, 0
2, 16563, Note_on_c, 0, 62, 0
2, 16627, Note_on_c, 0, 56, 63
2, 16629, Note_on_c, 0, 62, 63
2, 16630, Note_on_c, 0, 65, 65
2, 16638, Note_on_c, 0, 65, 0
2, 16648, Note_on_c, 0, 62, 0
2, 16649, Note_on_c, 0, 56, 0
2, 16653, Note_on_c, 0, 43, 0
2, 16670, Note_on_c, 0, 40, 59
2, 16751, Note_on_c, 0, 58, 57
2, 16752, Note_on_c, 0, 62, 64
2, 16754, Note_on_c, 0, 41, 55
2, 16761, Note_on_c, 0, 62, 0
2, 16764, Note_on_c, 0, 41, 0
2, 16765, Note_on_c, 0, 40, 0
2, 16769, Note_on_c, 0, 58, 0
2, 16795, Note_on_c, 0, 38, 44
2, 16873, Note_on_c, 0, 62, 60
2, 16874, Note_on_c, 0, 58, 46
2, 16874, Note_on_c, 0, 53, 47
2, 16883, Note_on_c, 0, 62, 0
2, 16884, Note_on_c, 0, 53, 0
2, 16892, Note_on_c, 0, 58, 0
2, 16990, Note_on_c, 0, 58, 60
2, 16991, Note_on_c, 0, 62, 67
2, 16999, Note_on_c, 0, 62, 0
2, 17012, Note_on_c, 0, 58, 0
2, 17103, Note_on_c, 0, 38, 0
2, 17110, Note_on_c, 0, 52, 64
2, 17110, Note_on_c, 0, 58, 56
2, 17112, Note_on_c, 0, 60, 60
2, 17126, Note_on_c, 0, 60, 0
2, 17133, Note_on_c, 0, 52, 0
2, 17138, Note_on_c, 0, 58, 0
2, 17231, Note_on_c, 0, 58, 45
2, 17233, Note_on_c, 0, 52, 29
2, 17236, Note_on_c, 0, 60, 34
2, 17243, Note_on_c, 0, 52, 0
2, 17245, Note_on_c, 0, 60, 0
2, 17250, Note_on_c, 0, 58, 0
2, 17273, Note_on_c, 0, 38, 68
2, 17337, Note_on_c, 0, 38, 0
2, 17352, Note_on_c, 0, 40, 60
2, 17353, Note_on_c, 0, 62, 57
2, 17362, Note_on_c, 0, 62, 0
2, 17368, Note_on_c, 0, 57, 20
2, 17380, Note_on_c, 0, 57, 0
2, 17387, Note_on_c, 0, 40, 0
2, 17397, Note_on_c, 0, 38, 49
2, 17591, Note_on_c, 0, 65, 60
2, 17591, Note_on_c, 0, 62, 56
2, 17595, Note_on_c, 0, 56, 27
2, 17599, Note_on_c, 0, 65, 0
2, 17605, Note_on_c, 0, 62, 0
2, 17609, Note_on_c, 0, 56, 0
2, 17704, Note_on_c, 0, 64, 55
2, 17707, Note_on_c, 0, 55, 50
2, 17710, Note_on_c, 0, 60, 62
2, 17725, Note_on_c, 0, 64, 0
2, 17732, Note_on_c, 0, 60, 0
2, 17734, Note_on_c, 0, 55, 0
2, 17807, Note_on_c, 0, 38, 0
2, 17828, Note_on_c, 0, 64, 61
2, 17832, Note_on_c, 0, 60, 50
2, 17833, Note_on_c, 0, 55, 51
2, 17837, Note_on_c, 0, 64, 0
2, 17844, Note_on_c, 0, 60, 0
2, 17850, Note_on_c, 0, 55, 0
2, 17872, Note_on_c, 0, 38, 26
2, 17918, Note_on_c, 0, 38, 0
2, 17941, Note_on_c, 0, 41, 51
2, 17947, Note_on_c, 0, 54, 36
2, 17947, Note_on_c, 0, 64, 44
2, 17947, Note_on_c, 0, 60, 53
2, 17956, Note_on_c, 0, 64, 0
2, 17957, Note_on_c, 0, 60, 0
2, 17967, Note_on_c, 0, 54, 0
2, 17973, Note_on_c, 0, 41, 0
2, 17994, Note_on_c, 0, 45, 56
2, 18044, Note_on_c, 0, 45, 0
2, 18065, Note_on_c, 0, 48, 76
2, 18065, Note_on_c, 0, 60, 58
2, 18066, Note_on_c, 0, 64, 55
2, 18067, Note_on_c, 0, 54, 51
2, 18083, Note_on_c, 0, 64, 0
2, 18084, Note_on_c, 0, 60, 0
2, 18095, Note_on_c, 0, 48, 0
2, 18103, Note_on_c, 0, 54, 0
2, 18115, Note_on_c, 0, 45, 40
2, 18161, Note_on_c, 0, 45, 0
2, 18180, Note_on_c, 0, 58, 56
2, 18185, Note_on_c, 0, 46, 55
2, 18185, Note_on_c, 0, 62, 47
2, 18195, Note_on_c, 0, 62, 0
2, 18204, Note_on_c, 0, 58, 0
2, 18208, Note_on_c, 0, 46, 0
2, 18230, Note_on_c, 0, 50, 57
2, 18258, Note_on_c, 0, 50, 0
2, 18298, Note_on_c, 0, 53, 58
2, 18299, Note_on_c, 0, 55, 80
2, 18301, Note_on_c, 0, 62, 52
2, 18311, Note_on_c, 0, 62, 0
2, 18318, Note_on_c, 0, 55, 0
2, 18320, Note_on_c, 0, 53, 0
2, 18348, Note_on_c, 0, 50, 64
2, 18391, Note_on_c, 0, 50, 0
2, 18422, Note_on_c, 0, 46, 60
2, 18423, Note_on_c, 0, 62, 44
2, 18427, Note_on_c, 0, 53, 27
2, 18427, Note_on_c, 0, 58, 30
2, 18430, Note_on_c, 0, 57, 34
2, 18436, Note_on_c, 0, 62, 0
2, 18443, Note_on_c, 0, 58, 0
2, 18448, Note_on_c, 0, 53, 0
2, 18452, Note_on_c, 0, 46, 0
2, 18458, Note_on_c, 0, 57, 0
2, 18469, Note_on_c, 0, 41, 49
2, 18518, Note_on_c, 0, 41, 0
2, 18538, Note_on_c, 0, 62, 48
2, 18541, Note_on_c, 0, 53, 35
2, 18548, Note_on_c, 0, 62, 0
2, 18569, Note_on_c, 0, 53, 0
2, 18583, Note_on_c, 0, 41, 59
2, 18638, Note_on_c, 0, 41, 0
2, 18663, Note_on_c, 0, 62, 45
2, 18664, Note_on_c, 0, 58, 48
2, 18666, Note_on_c, 0, 39, 63
2, 18669, Note_on_c, 0, 52, 30
2, 18675, Note_on_c, 0, 62, 0
2, 18679, Note_on_c, 0, 52, 0
2, 18686, Note_on_c, 0, 58, 0
2, 18702, Note_on_c, 0, 39, 0
2, 18720, Note_on_c, 0, 40, 45
2, 18757, Note_on_c, 0, 40, 0
2, 18788, Note_on_c, 0, 43, 65
2, 18790, Note_on_c, 0, 60, 55
2, 18790, Note_on_c, 0, 58, 46
2, 18792, Note_on_c, 0, 52, 39
2, 18800, Note_on_c, 0, 60, 0
2, 18803, Note_on_c, 0, 52, 0
2, 18811, Note_on_c, 0, 58, 0
2, 18813, Note_on_c, 0, 43, 0
2, 18836, Note_on_c, 0, 46, 38
2, 18900, Note_on_c, 0, 46, 0
2, 18907, Note_on_c, 0, 50, 77
2, 18909, Note_on_c, 0, 58, 53
2, 18909, Note_on_c, 0, 62, 64
2, 18913, Note_on_c, 0, 52, 40
2, 18916, Note_on_c, 0, 44, 25
2, 18919, Note_on_c, 0, 62, 0
2, 18924, Note_on_c, 0, 52, 0
2, 18924, Note_on_c, 0, 44, 0
2, 18937, Note_on_c, 0, 50, 0
2, 18938, Note_on_c, 0, 58, 0
2, 18957, Note_on_c, 0, 48, 56
2, 19026, Note_on_c, 0, 62, 53
2, 19029, Note_on_c, 0, 58, 35
2, 19036, Note_on_c, 0, 62, 0
2, 19051, Note_on_c, 0, 58, 0
2, 19137, Note_on_c, 0, 48, 0
2, 19148, Note_on_c, 0, 46, 67
2, 19151, Note_on_c, 0, 58, 48
2, 19151, Note_on_c, 0, 62, 61
2, 19154, Note_on_c, 0, 55, 49
2, 19160, Note_on_c, 0, 62, 0
2, 19169, Note_on_c, 0, 55, 0
2, 19177, Note_on_c, 0, 58, 0
2, 19185, Note_on_c, 0, 46, 0
2, 19201, Note_on_c, 0, 45, 47
2, 19255, Note_on_c, 0, 45, 0
2, 19272, Note_on_c, 0, 43, 48
2, 19274, Note_on_c, 0, 58, 46
2, 19289, Note_on_c, 0, 58, 0
2, 19308, Note_on_c, 0, 43, 0
2, 19317, Note_on_c, 0, 42, 35
2, 19361, Note_on_c, 0, 42, 0
2, 19390, Note_on_c, 0, 62, 68
2, 19392, Note_on_c, 0, 58, 43
2, 19395, Note_on_c, 0, 55, 38
2, 19399, Note_on_c, 0, 62, 0
2, 19405, Note_on_c, 0, 55, 0
2, 19415, Note_on_c, 0, 58, 0
2, 19508, Note_on_c, 0, 53, 59
2, 19511, Note_on_c, 0, 62, 47
2, 19512, Note_on_c, 0, 58, 35
2, 19513, Note_on_c, 0, 55, 48
2, 19522, Note_on_c, 0, 55, 0
2, 19522, Note_on_c, 0, 62, 0
2, 19523, Note_on_c, 0, 53, 0
2, 19533, Note_on_c, 0, 58, 0
2, 19546, Note_on_c, 0, 45, 81
2, 19610, Note_on_c, 0, 45, 0
2, 19626, Note_on_c, 0, 62, 62
2, 19628, Note_on_c, 0, 60, 45
2, 19628, Note_on_c, 0, 42, 37
2, 19629, Note_on_c, 0, 54, 38
2, 19636, Note_on_c, 0, 62, 0
2, 19637, Note_on_c, 0, 60, 0
2, 19652, Note_on_c, 0, 42, 0
2, 19652, Note_on_c, 0, 54, 0
2, 19671, Note_on_c, 0, 43, 65
2, 19717, Note_on_c, 0, 43, 0
2, 19751, Note_on_c, 0, 62, 70
2, 19752, Note_on_c, 0, 60, 64
2, 19752, Note_on_c, 0, 54, 48
2, 19759, Note_on_c, 0, 62, 0
2, 19760, Note_on_c, 0, 60, 0
2, 19770, Note_on_c, 0, 54, 0
2, 19795, Note_on_c, 0, 45, 57
2, 19843, Note_on_c, 0, 45, 0
2, 19870, Note_on_c, 0, 51, 82
2, 19877, Note_on_c, 0, 54, 39
2, 19877, Note_on_c, 0, 62, 52
2, 19888, Note_on_c, 0, 62, 0
2, 19901, Note_on_c, 0, 54, 0
2, 19910, Note_on_c, 0, 51, 0
2, 19918, Note_on_c, 0, 50, 61
2, 19965, Note_on_c, 0, 50, 0
2, 19988, Note_on_c, 0, 60, 55
2, 19988, Note_on_c, 0, 62, 58
2, 19989, Note_on_c, 0, 54, 33
2, 19997, Note_on_c, 0, 62, 0
2, 19998, Note_on_c, 0, 60, 0
2, 20014, Note_on_c, 0, 54, 0
2, 20111, Note_on_c, 0, 48, 88
2, 20117, Note_on_c, 0, 62, 44
2, 20120, Note_on_c, 0, 55, 36
2, 20121, Note_on_c, 0, 58, 28
2, 20128, Note_on_c, 0, 62, 0
2, 20134, Note_on_c, 0, 55, 0
2, 20136, Note_on_c, 0, 58, 0
2, 20138, Note_on_c, 0, 48, 0
2, 20166, Note_on_c, 0, 46, 51
2, 20206, Note_on_c, 0, 46, 0
2, 20237, Note_on_c, 0, 62, 39
2, 20237, Note_on_c, 0, 45, 60
2, 20239, Note_on_c, 0, 58, 28
2, 20250, Note_on_c, 0, 62, 0
2, 20255, Note_on_c, 0, 45, 0
2, 20263, Note_on_c, 0, 58, 0
2, 20279, Note_on_c, 0, 46, 52
2, 20338, Note_on_c, 0, 46, 0
2, 20353, Note_on_c, 0, 48, 70
2, 20358, Note_on_c, 0, 62, 67
2, 20361, Note_on_c, 0, 53, 51
2, 20367, Note_on_c, 0, 62, 0
2, 20371, Note_on_c, 0, 53, 0
2, 20381, Note_on_c, 0, 48, 0
2, 20404, Note_on_c, 0, 46, 50
2, 20435, Note_on_c, 0, 46, 0
2, 20474, Note_on_c, 0, 62, 55
2, 20475, Note_on_c, 0, 53, 43
2, 20476, Note_on_c, 0, 58, 37
2, 20482, Note_on_c, 0, 62, 0
2, 20485, Note_on_c, 0, 53, 0
2, 20497, Note_on_c, 0, 58, 0
2, 20586, Note_on_c, 0, 61, 47
2, 20586, Note_on_c, 0, 60, 68
2, 20589, Note_on_c, 0, 65, 54
2, 20597, Note_on_c, 0, 65, 0
2, 20607, Note_on_c, 0, 60, 0
2, 20615, Note_on_c, 0, 61, 0
2, 20706, Note_on_c, 0, 61, 51
2, 20706, Note_on_c, 0, 65, 66
2, 20709, Note_on_c, 0, 60, 55
2, 20717, Note_on_c, 0, 65, 0
2, 20719, Note_on_c, 0, 60, 0
2, 20731, Note_on_c, 0, 61, 0
2, 20755, Note_on_c, 0, 43, 36
2, 20785, Note_on_c, 0, 43, 0
2, 20795, Note_on_c, 0, 46, 49
2, 20819, Note_on_c, 0, 46, 0
2, 20826, Note_on_c, 0, 48, 44
2, 20844, Note_on_c, 0, 64, 40
2, 20846, Note_on_c, 0, 48, 0
2, 20855, Note_on_c, 0, 64, 0
2, 20867, Note_on_c, 0, 53, 72
2, 20912, Note_on_c, 0, 51, 67
2, 20913, Note_on_c, 0, 53, 0
2, 20946, Note_on_c, 0, 51, 0
2, 20965, Note_on_c, 0, 50, 80
2, 20976, Note_on_c, 0, 64, 47
2, 20978, Note_on_c, 0, 54, 31
2, 20986, Note_on_c, 0, 64, 0
2, 20993, Note_on_c, 0, 50, 0
2, 21001, Note_on_c, 0, 54, 0
2, 21013, Note_on_c, 0, 48, 55
2, 21054, Note_on_c, 0, 48, 0
2, 21068, Note_on_c, 0, 46, 64
2, 21074, Note_on_c, 0, 59, 53
2, 21082, Note_on_c, 0, 53, 22
2, 21100, Note_on_c, 0, 46, 0
2, 21103, Note_on_c, 0, 53, 0
2, 21111, Note_on_c, 0, 59, 0
2, 21119, Note_on_c, 0, 45, 36
2, 21177, Note_on_c, 0, 45, 0
2, 21190, Note_on_c, 0, 47, 48
2, 21192, Note_on_c, 0, 62, 48
2, 21194, Note_on_c, 0, 59, 42
2, 21205, Note_on_c, 0, 62, 0
2, 21210, Note_on_c, 0, 47, 0
2, 21216, Note_on_c, 0, 59, 0
2, 21230, Note_on_c, 0, 52, 84
2, 21285, Note_on_c, 0, 52, 0
2, 21308, Note_on_c, 0, 46, 38
2, 21319, Note_on_c, 0, 59, 24
2, 21338, Note_on_c, 0, 59, 0
2, 21345, Note_on_c, 0, 46, 0
2, 21359, Note_on_c, 0, 47, 42
2, 21422, Note_on_c, 0, 47, 0
2, 21430, Note_on_c, 0, 50, 63
2, 21435, Note_on_c, 0, 62, 38
2, 21436, Note_on_c, 0, 59, 46
2, 21445, Note_on_c, 0, 62, 0
2, 21458, Note_on_c, 0, 59, 0
2, 21461, Note_on_c, 0, 50, 0
2, 21480, Note_on_c, 0, 41, 36
2, 21526, Note_on_c, 0, 41, 0
2, 21554, Note_on_c, 0, 62, 51
2, 21555, Note_on_c, 0, 59, 52
2, 21563, Note_on_c, 0, 62, 0
2, 21567, Note_on_c, 0, 59, 0
2, 21675, Note_on_c, 0, 45, 80
2, 21683, Note_on_c, 0, 59, 39
2, 21689, Note_on_c, 0, 53, 25
2, 21700, Note_on_c, 0, 45, 0
2, 21701, Note_on_c, 0, 53, 0
2, 21705, Note_on_c, 0, 59, 0
2, 21723, Note_on_c, 0, 49, 44
2, 21750, Note_on_c, 0, 50, 53
2, 21751, Note_on_c, 0, 49, 0
2, 21771, Note_on_c, 0, 50, 0
2, 21771, Note_on_c, 0, 49, 39
2, 21790, Note_on_c, 0, 62, 31
2, 21794, Note_on_c, 0, 59, 41
2, 21800, Note_on_c, 0, 62, 0
2, 21802, Note_on_c, 0, 49, 0
2, 21806, Note_on_c, 0, 45, 48
2, 21819, Note_on_c, 0, 45, 0
2, 21822, Note_on_c, 0, 59, 0
2, 21843, Note_on_c, 0, 48, 62
2, 21864, Note_on_c, 0, 48, 0
2, 21867, Note_on_c, 0, 50, 31
2, 21888, Note_on_c, 0, 48, 41
2, 21897, Note_on_c, 0, 50, 0
2, 21925, Note_on_c, 0, 48, 0
2, 21927, Note_on_c, 0, 57, 20
2, 21937, Note_on_c, 0, 57, 0
2, 21964, Note_on_c, 0, 47, 60
2, 22023, Note_on_c, 0, 47, 0
2, 22030, Note_on_c, 0, 50, 76
2, 22037, Note_on_c, 0, 62, 47
2, 22043, Note_on_c, 0, 58, 28
2, 22048, Note_on_c, 0, 62, 0
2, 22056, Note_on_c, 0, 50, 0
2, 22060, Note_on_c, 0, 58, 0
2, 22080, Note_on_c, 0, 46, 46
2, 22133, Note_on_c, 0, 46, 0
2, 22151, Note_on_c, 0, 62, 57
2, 22151, Note_on_c, 0, 41, 65
2, 22151, Note_on_c, 0, 58, 42
2, 22158, Note_on_c, 0, 57, 28
2, 22161, Note_on_c, 0, 62, 0
2, 22166, Note_on_c, 0, 57, 0
2, 22172, Note_on_c, 0, 58, 0
2, 22179, Note_on_c, 0, 41, 0
2, 22197, Note_on_c, 0, 38, 44
2, 22248, Note_on_c, 0, 38, 0
2, 22271, Note_on_c, 0, 42, 59
2, 22275, Note_on_c, 0, 62, 38
2, 22275, Note_on_c, 0, 58, 33
2, 22288, Note_on_c, 0, 62, 0
2, 22298, Note_on_c, 0, 42, 0
2, 22300, Note_on_c, 0, 58, 0
2, 22316, Note_on_c, 0, 45, 69
2, 22385, Note_on_c, 0, 45, 0
2, 22397, Note_on_c, 0, 42, 37
2, 22399, Note_on_c, 0, 62, 28
2, 22404, Note_on_c, 0, 58, 23
2, 22407, Note_on_c, 0, 42, 0
2, 22409, Note_on_c, 0, 62, 0
2, 22418, Note_on_c, 0, 58, 0
2, 22434, Note_on_c, 0, 43, 68
2, 22512, Note_on_c, 0, 38, 55
2, 22512, Note_on_c, 0, 62, 58
2, 22515, Note_on_c, 0, 58, 37
2, 22516, Note_on_c, 0, 52, 37
2, 22521, Note_on_c, 0, 62, 0
2, 22526, Note_on_c, 0, 43, 0
2, 22526, Note_on_c, 0, 38, 0
2, 22527, Note_on_c, 0, 52, 0
2, 22539, Note_on_c, 0, 58, 0
2, 22554, Note_on_c, 0, 41, 69
2, 22627, Note_on_c, 0, 41, 0
2, 22632, Note_on_c, 0, 58, 43
2, 22635, Note_on_c, 0, 62, 52
2, 22635, Note_on_c, 0, 52, 52
2, 22638, Note_on_c, 0, 38, 38
2, 22650, Note_on_c, 0, 38, 0
2, 22659, Note_on_c, 0, 58, 0
2, 22660, Note_on_c, 0, 62, 0
2, 22662, Note_on_c, 0, 52, 0
2, 22678, Note_on_c, 0, 39, 50
2, 22731, Note_on_c, 0, 39, 0
2, 22751, Note_on_c, 0, 40, 57
2, 22753, Note_on_c, 0, 58, 38
2, 22755, Note_on_c, 0, 60, 49
2, 22764, Note_on_c, 0, 60, 0
2, 22771, Note_on_c, 0, 58, 0
2, 22774, Note_on_c, 0, 40, 0
2, 22803, Note_on_c, 0, 43, 45
2, 22853, Note_on_c, 0, 43, 0
2, 22867, Note_on_c, 0, 50, 78
2, 22873, Note_on_c, 0, 58, 47
2, 22874, Note_on_c, 0, 60, 64
2, 22892, Note_on_c, 0, 60, 0
2, 22892, Note_on_c, 0, 58, 0
2, 22902, Note_on_c, 0, 50, 0
2, 22915, Note_on_c, 0, 48, 58
2, 22987, Note_on_c, 0, 62, 57
2, 22992, Note_on_c, 0, 60, 47
2, 22995, Note_on_c, 0, 57, 45
2, 22996, Note_on_c, 0, 62, 0
2, 23003, Note_on_c, 0, 60, 0
2, 23014, Note_on_c, 0, 57, 0
2, 23108, Note_on_c, 0, 62, 69
2, 23113, Note_on_c, 0, 60, 47
2, 23119, Note_on_c, 0, 62, 0
2, 23122, Note_on_c, 0, 57, 22
2, 23123, Note_on_c, 0, 60, 0
2, 23135, Note_on_c, 0, 57, 0
2, 23222, Note_on_c, 0, 62, 58
2, 23225, Note_on_c, 0, 45, 49
2, 23228, Note_on_c, 0, 48, 0
2, 23230, Note_on_c, 0, 62, 0
2, 23231, Note_on_c, 0, 57, 30
2, 23232, Note_on_c, 0, 60, 24
2, 23240, Note_on_c, 0, 60, 0
2, 23244, Note_on_c, 0, 57, 0
2, 23254, Note_on_c, 0, 45, 0
2, 23275, Note_on_c, 0, 48, 70
2, 23322, Note_on_c, 0, 48, 0
2, 23344, Note_on_c, 0, 50, 82
2, 23348, Note_on_c, 0, 62, 61
2, 23353, Note_on_c, 0, 60, 46
2, 23357, Note_on_c, 0, 62, 0
2, 23357, Note_on_c, 0, 53, 24
2, 23365, Note_on_c, 0, 60, 0
2, 23370, Note_on_c, 0, 53, 0
2, 23370, Note_on_c, 0, 50, 0
2, 23386, Note_on_c, 0, 48, 53
2, 23467, Note_on_c, 0, 44, 71
2, 23469, Note_on_c, 0, 48, 0
2, 23475, Note_on_c, 0, 62, 36
2, 23475, Note_on_c, 0, 56, 25
2, 23478, Note_on_c, 0, 59, 28
2, 23485, Note_on_c, 0, 62, 0
2, 23489, Note_on_c, 0, 59, 0
2, 23500, Note_on_c, 0, 56, 0
2, 23500, Note_on_c, 0, 44, 0
2, 23516, Note_on_c, 0, 52, 77
2, 23564, Note_on_c, 0, 52, 0
2, 23586, Note_on_c, 0, 62, 47
2, 23592, Note_on_c, 0, 59, 32
2, 23597, Note_on_c, 0, 62, 0
2, 23604, Note_on_c, 0, 59, 0
2, 23623, Note_on_c, 0, 50, 64
2, 23705, Note_on_c, 0, 62, 40
2, 23715, Note_on_c, 0, 62, 0
2, 23833, Note_on_c, 0, 62, 53
2, 23835, Note_on_c, 0, 56, 34
2, 23837, Note_on_c, 0, 59, 38
2, 23844, Note_on_c, 0, 62, 0
2, 23847, Note_on_c, 0, 59, 0
2, 23857, Note_on_c, 0, 56, 0
2, 23949, Note_on_c, 0, 62, 65
2, 23951, Note_on_c, 0, 58, 51
2, 23951, Note_on_c, 0, 55, 58
2, 23956, Note_on_c, 0, 50, 0
2, 23960, Note_on_c, 0, 62, 0
2, 23961, Note_on_c, 0, 55, 0
2, 23970, Note_on_c, 0, 58, 0
2, 23991, Note_on_c, 0, 46, 57
2, 24066, Note_on_c, 0, 46, 0
2, 24072, Note_on_c, 0, 58, 42
2, 24080, Note_on_c, 0, 42, 29
2, 24092, Note_on_c, 0, 58, 0
2, 24094, Note_on_c, 0, 42, 0
2, 24113, Note_on_c, 0, 45, 66
2, 24182, Note_on_c, 0, 45, 0
2, 24195, Note_on_c, 0, 42, 28
2, 24200, Note_on_c, 0, 58, 25
2, 24220, Note_on_c, 0, 42, 0
2, 24222, Note_on_c, 0, 58, 0
2, 24236, Note_on_c, 0, 43, 40
2, 24275, Note_on_c, 0, 43, 0
2, 24305, Note_on_c, 0, 45, 65
2, 24310, Note_on_c, 0, 53, 39
2, 24311, Note_on_c, 0, 58, 33
2, 24313, Note_on_c, 0, 62, 36
2, 24320, Note_on_c, 0, 53, 0
2, 24324, Note_on_c, 0, 62, 0
2, 24329, Note_on_c, 0, 58, 0
2, 24336, Note_on_c, 0, 45, 0
2, 24359, Note_on_c, 0, 47, 37
2, 24426, Note_on_c, 0, 48, 69
2, 24427, Note_on_c, 0, 47, 0
2, 24427, Note_on_c, 0, 63, 35
2, 24430, Note_on_c, 0, 60, 41
2, 24441, Note_on_c, 0, 60, 0
2, 24441, Note_on_c, 0, 63, 0
2, 24466, Note_on_c, 0, 48, 0
2, 24487, Note_on_c, 0, 50, 58
2, 24526, Note_on_c, 0, 50, 0
2, 24548, Note_on_c, 0, 51, 71
2, 24552, Note_on_c, 0, 63, 36
2, 24570, Note_on_c, 0, 63, 0
2, 24588, Note_on_c, 0, 51, 0
2, 24604, Note_on_c, 0, 45, 50
2, 24669, Note_on_c, 0, 63, 35
2, 24672, Note_on_c, 0, 60, 38
2, 24679, Note_on_c, 0, 63, 0
2, 24684, Note_on_c, 0, 60, 0
2, 24688, Note_on_c, 0, 45, 0
2, 24713, Note_on_c, 0, 48, 62
2, 24788, Note_on_c, 0, 42, 67
2, 24790, Note_on_c, 0, 63, 40
2, 24792, Note_on_c, 0, 54, 32
2, 24800, Note_on_c, 0, 63, 0
2, 24805, Note_on_c, 0, 48, 0
2, 24807, Note_on_c, 0, 42, 0
2, 24811, Note_on_c, 0, 54, 0
2, 24836, Note_on_c, 0, 45, 60
2, 24888, Note_on_c, 0, 45, 0
2, 24906, Note_on_c, 0, 65, 53
2, 24910, Note_on_c, 0, 48, 51
2, 24911, Note_on_c, 0, 61, 25
2, 24920, Note_on_c, 0, 65, 0
2, 24926, Note_on_c, 0, 48, 0
2, 24935, Note_on_c, 0, 61, 0
2, 25029, Note_on_c, 0, 65, 43
2, 25031, Note_on_c, 0, 61, 33
2, 25032, Note_on_c, 0, 56, 31
2, 25035, Note_on_c, 0, 60, 29
2, 25040, Note_on_c, 0, 65, 0
2, 25043, Note_on_c, 0, 60, 0
2, 25046, Note_on_c, 0, 33, 38
2, 25054, Note_on_c, 0, 56, 0
2, 25056, Note_on_c, 0, 61, 0
2, 25061, Note_on_c, 0, 33, 0
2, 25079, Note_on_c, 0, 34, 49
2, 25099, Note_on_c, 0, 34, 0
2, 25111, Note_on_c, 0, 36, 56
2, 25139, Note_on_c, 0, 36, 0
2, 25142, Note_on_c, 0, 37, 59
2, 25142, Note_on_c, 0, 61, 45
2, 25148, Note_on_c, 0, 64, 25
2, 25149, Note_on_c, 0, 55, 31
2, 25156, Note_on_c, 0, 64, 0
2, 25159, Note_on_c, 0, 55, 0
2, 25168, Note_on_c, 0, 61, 0
2, 25181, Note_on_c, 0, 37, 0
2, 25181, Note_on_c, 0, 39, 46
2, 25207, Note_on_c, 0, 39, 0
2, 25222, Note_on_c, 0, 41, 45
2, 25246, Note_on_c, 0, 41, 0
2, 25258, Note_on_c, 0, 61, 35
2, 25263, Note_on_c, 0, 43, 48
2, 25268, Note_on_c, 0, 55, 18
2, 25270, Note_on_c, 0, 64, 20
2, 25278, Note_on_c, 0, 55, 0
2, 25279, Note_on_c, 0, 64, 0
2, 25282, Note_on_c, 0, 43, 0
2, 25293, Note_on_c, 0, 61, 0
2, 25305, Note_on_c, 0, 45, 57
2, 25332, Note_on_c, 0, 45, 0
2, 25349, Note_on_c, 0, 46, 51
2, 25375, Note_on_c, 0, 46, 0
2, 25386, Note_on_c, 0, 47, 58
2, 25393, Note_on_c, 0, 64, 40
2, 25395, Note_on_c, 0, 57, 47
2, 25398, Note_on_c, 0, 60, 42
2, 25404, Note_on_c, 0, 64, 0
2, 25415, Note_on_c, 0, 60, 0
2, 25423, Note_on_c, 0, 47, 0
2, 25424, Note_on_c, 0, 57, 0
2, 25431, Note_on_c, 0, 48, 35
2, 25464, Note_on_c, 0, 48, 0
2, 25478, Note_on_c, 0, 52, 62
2, 25503, Note_on_c, 0, 52, 0
2, 25524, Note_on_c, 0, 53, 72
2, 25565, Note_on_c, 0, 53, 0
2, 25582, Note_on_c, 0, 52, 41
2, 25602, Note_on_c, 0, 52, 0
2, 25632, Note_on_c, 0, 54, 68
2, 25643, Note_on_c, 0, 64, 33
2, 25647, Note_on_c, 0, 60, 31
2, 25654, Note_on_c, 0, 64, 0
2, 25656, Note_on_c, 0, 54, 0
2, 25662, Note_on_c, 0, 60, 0
2, 25679, Note_on_c, 0, 51, 62
2, 25725, Note_on_c, 0, 51, 0
2, 25747, Note_on_c, 0, 50, 76
2, 25758, Note_on_c, 0, 54, 31
2, 25762, Note_on_c, 0, 60, 24
2, 25773, Note_on_c, 0, 50, 0
2, 25775, Note_on_c, 0, 60, 0
2, 25782, Note_on_c, 0, 54, 0
2, 25796, Note_on_c, 0, 48, 36
2, 25843, Note_on_c, 0, 48, 0
2, 25857, Note_on_c, 0, 46, 51
2, 25880, Note_on_c, 0, 46, 0
2, 25897, Note_on_c, 0, 63, 47
2, 25918, Note_on_c, 0, 63, 0
2, 25986, Note_on_c, 0, 63, 57
2, 25991, Note_on_c, 0, 59, 45
2, 25996, Note_on_c, 0, 58, 28
2, 26004, Note_on_c, 0, 59, 0
2, 26005, Note_on_c, 0, 63, 0
2, 26009, Note_on_c, 0, 58, 0
2, 26027, Note_on_c, 0, 46, 75
2, 26111, Note_on_c, 0, 63, 38
2, 26114, Note_on_c, 0, 46, 0
2, 26116, Note_on_c, 0, 59, 37
2, 26116, Note_on_c, 0, 44, 39
2, 26123, Note_on_c, 0, 63, 0
2, 26135, Note_on_c, 0, 44, 0
2, 26143, Note_on_c, 0, 59, 0
2, 26154, Note_on_c, 0, 46, 77
2, 26225, Note_on_c, 0, 46, 0
2, 26232, Note_on_c, 0, 59, 40
2, 26232, Note_on_c, 0, 63, 27
2, 26237, Note_on_c, 0, 44, 30
2, 26243, Note_on_c, 0, 63, 0
2, 26248, Note_on_c, 0, 44, 0
2, 26256, Note_on_c, 0, 59, 0
2, 26354, Note_on_c, 0, 45, 110
2, 26358, Note_on_c, 0, 58, 40
2, 26358, Note_on_c, 0, 62, 57
2, 26362, Note_on_c, 0, 53, 24
2, 26364, Note_on_c, 0, 57, 33
2, 26375, Note_on_c, 0, 57, 0
2, 26381, Note_on_c, 0, 62, 0
2, 26384, Note_on_c, 0, 53, 0
2, 26399, Note_on_c, 0, 58, 0
2, 26467, Note_on_c, 0, 45, 0
2, 26479, Note_on_c, 0, 58, 31
2, 26479, Note_on_c, 0, 53, 33
2, 26506, Note_on_c, 0, 53, 0
2, 26510, Note_on_c, 0, 58, 0
2, 26513, Note_on_c, 0, 45, 78
2, 26577, Note_on_c, 0, 45, 0
2, 26589, Note_on_c, 0, 42, 42
2, 26590, Note_on_c, 0, 58, 39
2, 26617, Note_on_c, 0, 58, 0
2, 26622, Note_on_c, 0, 42, 0
2, 26637, Note_on_c, 0, 43, 62
2, 26671, Note_on_c, 0, 43, 0
2, 26704, Note_on_c, 0, 45, 73
2, 26716, Note_on_c, 0, 58, 26
2, 26734, Note_on_c, 0, 45, 0
2, 26739, Note_on_c, 0, 58, 0
2, 26758, Note_on_c, 0, 46, 34
2, 26797, Note_on_c, 0, 46, 0
2, 26828, Note_on_c, 0, 47, 40
2, 26828, Note_on_c, 0, 57, 43
2, 26830, Note_on_c, 0, 53, 26
2, 26831, Note_on_c, 0, 48, 38
2, 26832, Note_on_c, 0, 60, 27
2, 26840, Note_on_c, 0, 48, 0
2, 26844, Note_on_c, 0, 60, 0
2, 26850, Note_on_c, 0, 53, 0
2, 26850, Note_on_c, 0, 47, 0
2, 26856, Note_on_c, 0, 57, 0
2, 26869, Note_on_c, 0, 50, 88
2, 26930, Note_on_c, 0, 50, 0
2, 26953, Note_on_c, 0, 47, 34
2, 26957, Note_on_c, 0, 57, 28
2, 26968, Note_on_c, 0, 47, 0
2, 26980, Note_on_c, 0, 57, 0
2, 26994, Note_on_c, 0, 48, 76
2, 27043, Note_on_c, 0, 48, 0
2, 27060, Note_on_c, 0, 62, 37
2, 27064, Note_on_c, 0, 45, 34
2, 27068, Note_on_c, 0, 60, 29
2, 27072, Note_on_c, 0, 62, 0
2, 27077, Note_on_c, 0, 57, 18
2, 27084, Note_on_c, 0, 45, 0
2, 27085, Note_on_c, 0, 60, 0
2, 27100, Note_on_c, 0, 57, 0
2, 27110, Note_on_c, 0, 38, 50
2, 27161, Note_on_c, 0, 38, 0
2, 27185, Note_on_c, 0, 38, 59
2, 27197, Note_on_c, 0, 62, 35
2, 27198, Note_on_c, 0, 60, 31
2, 27204, Note_on_c, 0, 38, 0
2, 27206, Note_on_c, 0, 60, 0
2, 27207, Note_on_c, 0, 62, 0
2, 27304, Note_on_c, 0, 66, 50
2, 27305, Note_on_c, 0, 57, 57
2, 27309, Note_on_c, 0, 62, 42
2, 27312, Note_on_c, 0, 66, 0
2, 27321, Note_on_c, 0, 62, 0
2, 27334, Note_on_c, 0, 57, 0
2, 27425, Note_on_c, 0, 66, 53
2, 27426, Note_on_c, 0, 57, 46
2, 27433, Note_on_c, 0, 62, 33
2, 27438, Note_on_c, 0, 57, 0
2, 27446, Note_on_c, 0, 66, 0
2, 27457, Note_on_c, 0, 62, 0
2, 27470, Note_on_c, 0, 47, 52
2, 27529, Note_on_c, 0, 47, 0
2, 27547, Note_on_c, 0, 52, 83
2, 27550, Note_on_c, 0, 56, 57
2, 27551, Note_on_c, 0, 65, 66
2, 27551, Note_on_c, 0, 62, 55
2, 27573, Note_on_c, 0, 65, 0
2, 27584, Note_on_c, 0, 56, 0
2, 27586, Note_on_c, 0, 52, 0
2, 27586, Note_on_c, 0, 62, 0
2, 27598, Note_on_c, 0, 50, 36
2, 27647, Note_on_c, 0, 50, 0
2, 27660, Note_on_c, 0, 56, 48
2, 27663, Note_on_c, 0, 65, 42
2, 27665, Note_on_c, 0, 48, 52
2, 27670, Note_on_c, 0, 62, 24
2, 27678, Note_on_c, 0, 62, 0
2, 27679, Note_on_c, 0, 65, 0
2, 27706, Note_on_c, 0, 56, 0
2, 27707, Note_on_c, 0, 48, 0
2, 27728, Note_on_c, 0, 47, 15
2, 27789, Note_on_c, 0, 47, 0
2, 27797, Note_on_c, 0, 45, 34
2, 27798, Note_on_c, 0, 57, 33
2, 27809, Note_on_c, 0, 45, 0
2, 27818, Note_on_c, 0, 57, 0
2, 27832, Note_on_c, 0, 48, 74
2, 27906, Note_on_c, 0, 48, 0
2, 27906, Note_on_c, 0, 55, 50
2, 27907, Note_on_c, 0, 45, 55
2, 27916, Note_on_c, 0, 64, 17
2, 27916, Note_on_c, 0, 60, 30
2, 27922, Note_on_c, 0, 55, 0
2, 27926, Note_on_c, 0, 60, 0
2, 27928, Note_on_c, 0, 64, 0
2, 27956, Note_on_c, 0, 40, 24
2, 27961, Note_on_c, 0, 45, 0
2, 28031, Note_on_c, 0, 40, 0
2, 28071, Note_on_c, 0, 44, 75
2, 28171, Note_on_c, 0, 56, 30
2, 28171, Note_on_c, 0, 62, 38
2, 28171, Note_on_c, 0, 62, 0
2, 28171, Note_on_c, 0, 65, 36
2, 28171, Note_on_c, 0, 65, 0
2, 28182, Note_on_c, 0, 56, 0
2, 28269, Note_on_c, 0, 64, 42
2, 28273, Note_on_c, 0, 40, 58
2, 28273, Note_on_c, 0, 60, 41
2, 28280, Note_on_c, 0, 64, 0
2, 28280, Note_on_c, 0, 44, 0
2, 28294, Note_on_c, 0, 40, 0
2, 28295, Note_on_c, 0, 60, 0
2, 28321, Note_on_c, 0, 43, 49
2, 28382, Note_on_c, 0, 43, 0
2, 28391, Note_on_c, 0, 48, 57
2, 28393, Note_on_c, 0, 55, 44
2, 28401, Note_on_c, 0, 60, 24
2, 28405, Note_on_c, 0, 55, 0
2, 28410, Note_on_c, 0, 60, 0
2, 28412, Note_on_c, 0, 48, 0
2, 28432, Note_on_c, 0, 50, 55
2, 28477, Note_on_c, 0, 50, 0
2, 28512, Note_on_c, 0, 51, 76
2, 28518, Note_on_c, 0, 54, 44
2, 28519, Note_on_c, 0, 64, 47
2, 28521, Note_on_c, 0, 60, 41
2, 28534, Note_on_c, 0, 64, 0
2, 28535, Note_on_c, 0, 60, 0
2, 28546, Note_on_c, 0, 54, 0
2, 28620, Note_on_c, 0, 51, 0
2, 28633, Note_on_c, 0, 50, 73
2, 28634, Note_on_c, 0, 54, 53
2, 28636, Note_on_c, 0, 60, 51
2, 28636, Note_on_c, 0, 64, 48
2, 28663, Note_on_c, 0, 64, 0
2, 28687, Note_on_c, 0, 60, 0
2, 28718, Note_on_c, 0, 54, 0
2, 28751, Note_on_c, 0, 50, 0
2, 28755, Note_on_c, 0, 53, 42
2, 28759, Note_on_c, 0, 59, 28
2, 28777, Note_on_c, 0, 53, 0
2, 28787, Note_on_c, 0, 59, 0
2, 28797, Note_on_c, 0, 49, 78
2, 28858, Note_on_c, 0, 49, 0
2, 28873, Note_on_c, 0, 50, 59
2, 28878, Note_on_c, 0, 59, 34
2, 28879, Note_on_c, 0, 53, 33
2, 28899, Note_on_c, 0, 50, 0
2, 28907, Note_on_c, 0, 53, 0
2, 28915, Note_on_c, 0, 38, 53
2, 28917, Note_on_c, 0, 59, 0
2, 28980, Note_on_c, 0, 38, 0
2, 28997, Note_on_c, 0, 38, 62
2, 29012, Note_on_c, 0, 59, 29
2, 29017, Note_on_c, 0, 38, 0
2, 29027, Note_on_c, 0, 59, 0
2, 29113, Note_on_c, 0, 64, 38
2, 29117, Note_on_c, 0, 59, 39
2, 29123, Note_on_c, 0, 64, 0
2, 29143, Note_on_c, 0, 59, 0
2, 29154, Note_on_c, 0, 45, 62
2, 29230, Note_on_c, 0, 49, 56
2, 29239, Note_on_c, 0, 45, 0
2, 29261, Note_on_c, 0, 49, 0
2, 29285, Note_on_c, 0, 50, 51
2, 29355, Note_on_c, 0, 36, 62
2, 29357, Note_on_c, 0, 50, 0
2, 29358, Note_on_c, 0, 35, 49
2, 29366, Note_on_c, 0, 35, 0
2, 29474, Note_on_c, 0, 65, 74
2, 29491, Note_on_c, 0, 36, 0
2, 29499, Control_c, 0, 64, 127
2, 29516, Note_on_c, 0, 65, 0
2, 29524, Note_on_c, 0, 62, 53
2, 29529, Note_on_c, 0, 55, 36
2, 29532, Note_on_c, 0, 58, 27
2, 29571, Control_c, 0, 64, 0
2, 29597, Note_on_c, 0, 53, 62
2, 29609, Note_on_c, 0, 55, 0
2, 29615, Control_c, 0, 64, 127
2, 29617, Note_on_c, 0, 58, 0
2, 29625, Note_on_c, 0, 62, 0
2, 29659, Note_on_c, 0, 53, 0
2, 29716, Note_on_c, 0, 74, 48
2, 29718, Note_on_c, 0, 72, 47
2, 29735, Control_c, 0, 64, 0
2, 29739, Note_on_c, 0, 74, 0
2, 29740, Note_on_c, 0, 72, 0
2, 29766, Note_on_c, 0, 67, 53
2, 29768, Note_on_c, 0, 62, 46
2, 29769, Note_on_c, 0, 72, 33
2, 29841, Note_on_c, 0, 57, 65
2, 29865, Control_c, 0, 64, 127
2, 29869, Note_on_c, 0, 72, 0
2, 29872, Note_on_c, 0, 67, 0
2, 29890, Note_on_c, 0, 62, 0
2, 29943, Note_on_c, 0, 57, 0
2, 29957, Note_on_c, 0, 69, 63
2, 29959, Control_c, 0, 64, 0
2, 29959, Note_on_c, 0, 53, 58
2, 29959, Note_on_c, 0, 65, 53
2, 29961, Note_on_c, 0, 62, 55
2, 29963, Note_on_c, 0, 60, 55
2, 29988, Note_on_c, 0, 65, 0
2, 29993, Note_on_c, 0, 62, 0
2, 29994, Note_on_c, 0, 69, 0
2, 30000, Control_c, 0, 64, 127
2, 30001, Note_on_c, 0, 60, 0
2, 30006, Note_on_c, 0, 53, 0
2, 30079, Control_c, 0, 64, 0
2, 30080, Note_on_c, 0, 67, 68
2, 30080, Note_on_c, 0, 59, 62
2, 30081, Note_on_c, 0, 56, 51
2, 30084, Note_on_c, 0, 62, 53
2, 30086, Note_on_c, 0, 53, 55
2, 30120, Control_c, 0, 64, 127
2, 30127, Note_on_c, 0, 67, 0
2, 30146, Note_on_c, 0, 59, 0
2, 30153, Note_on_c, 0, 56, 0
2, 30164, Note_on_c, 0, 62, 0
2, 30178, Note_on_c, 0, 53, 0
2, 30192, Control_c, 0, 64, 0
2, 30198, Note_on_c, 0, 65, 60
2, 30199, Note_on_c, 0, 58, 57
2, 30201, Note_on_c, 0, 55, 60
2, 30202, Note_on_c, 0, 62, 49
2, 30204, Note_on_c, 0, 43, 37
2, 30206, Note_on_c, 0, 50, 28
2, 30233, Control_c, 0, 64, 127
2, 30235, Note_on_c, 0, 50, 0
2, 30273, Note_on_c, 0, 55, 0
2, 30276, Note_on_c, 0, 62, 0
2, 30284, Note_on_c, 0, 58, 0
2, 30291, Note_on_c, 0, 65, 0
2, 30320, Note_on_c, 0, 50, 54
2, 30325, Note_on_c, 0, 62, 30
2, 30326, Note_on_c, 0, 43, 0
2, 30332, Note_on_c, 0, 65, 17
2, 30336, Note_on_c, 0, 62, 0
2, 30337, Note_on_c, 0, 50, 0
2, 30341, Note_on_c, 0, 65, 0
2, 30433, Control_c, 0, 64, 0
2, 30433, Note_on_c, 0, 58, 63
2, 30434, Note_on_c, 0, 73, 52
2, 30436, Note_on_c, 0, 70, 59
2, 30437, Note_on_c, 0, 68, 54
2, 30439, Note_on_c, 0, 64, 50
2, 30453, Note_on_c, 0, 58, 0
2, 30464, Control_c, 0, 64, 127
2, 30492, Note_on_c, 0, 73, 0
2, 30493, Note_on_c, 0, 64, 0
2, 30499, Note_on_c, 0, 68, 0
2, 30504, Note_on_c, 0, 70, 0
2, 30549, Note_on_c, 0, 42, 64
2, 30549, Note_on_c, 0, 49, 60
2, 30551, Control_c, 0, 64, 0
2, 30589, Control_c, 0, 64, 127
2, 30614, Note_on_c, 0, 49, 0
2, 30669, Note_on_c, 0, 42, 0
2, 30670, Note_on_c, 0, 48, 41
2, 30681, Control_c, 0, 64, 0
2, 30685, Note_on_c, 0, 48, 0
2, 30707, Note_on_c, 0, 89, 55
2, 30707, Note_on_c, 0, 77, 41
2, 30709, Note_on_c, 0, 50, 40
2, 30713, Note_on_c, 0, 86, 44
2, 30713, Note_on_c, 0, 84, 36
2, 30718, Note_on_c, 0, 50, 0
2, 30719, Control_c, 0, 64, 127
2, 30724, Note_on_c, 0, 84, 0
2, 30734, Note_on_c, 0, 89, 0
2, 30737, Note_on_c, 0, 77, 0
2, 30738, Note_on_c, 0, 86, 0
2, 30743, Control_c, 0, 64, 0
2, 30791, Control_c, 0, 64, 127
2, 30798, Control_c, 0, 64, 0
2, 30832, Note_on_c, 0, 62, 35
2, 30834, Note_on_c, 0, 60, 36
2, 30836, Note_on_c, 0, 57, 43
2, 30842, Note_on_c, 0, 53, 17
2, 30854, Note_on_c, 0, 62, 0
2, 30855, Note_on_c, 0, 60, 0
2, 30859, Note_on_c, 0, 57, 0
2, 30875, Note_on_c, 0, 53, 0
2, 30957, Note_on_c, 0, 36, 47
2, 30957, Control_c, 0, 64, 127
2, 30963, Note_on_c, 0, 48, 31
2, 30971, Note_on_c, 0, 36, 0
2, 30977, Note_on_c, 0, 48, 0
2, 31059, Control_c, 0, 64, 0
2, 31079, Note_on_c, 0, 62, 64
2, 31081, Note_on_c, 0, 60, 56
2, 31082, Note_on_c, 0, 53, 42
2, 31086, Note_on_c, 0, 57, 48
2, 31092, Note_on_c, 0, 62, 0
2, 31095, Note_on_c, 0, 60, 0
2, 31097, Note_on_c, 0, 57, 0
2, 31097, Control_c, 0, 64, 127
2, 31109, Control_c, 0, 64, 0
2, 31111, Note_on_c, 0, 53, 0
2, 31203, Note_on_c, 0, 46, 46
2, 31203, Note_on_c, 0, 56, 57
2, 31204, Note_on_c, 0, 76, 80
2, 31205, Note_on_c, 0, 84, 80
2, 31206, Note_on_c, 0, 88, 68
2, 31206, Note_on_c, 0, 89, 82
2, 31207, Note_on_c, 0, 85, 46
2, 31208, Note_on_c, 0, 77, 75
2, 31214, Note_on_c, 0, 89, 0
2, 31216, Note_on_c, 0, 77, 0
2, 31216, Note_on_c, 0, 85, 0
2, 31222, Note_on_c, 0, 46, 0
2, 31225, Note_on_c, 0, 56, 0
2, 31232, Control_c, 0, 64, 127
2, 31267, Note_on_c, 0, 88, 0
2, 31276, Note_on_c, 0, 84, 0
2, 31293, Note_on_c, 0, 76, 0
2, 31316, Note_on_c, 0, 67, 57
2, 31319, Note_on_c, 0, 62, 57
2, 31324, Note_on_c, 0, 56, 21
2, 31328, Note_on_c, 0, 67, 0
2, 31341, Note_on_c, 0, 62, 0
2, 31351, Note_on_c, 0, 56, 0
2, 31403, Note_on_c, 0, 67, 51
2, 31403, Note_on_c, 0, 60, 60
2, 31405, Note_on_c, 0, 64, 52
2, 31406, Note_on_c, 0, 65, 45
2, 31411, Note_on_c, 0, 60, 0
2, 31411, Control_c, 0, 64, 0
2, 31414, Note_on_c, 0, 56, 58
2, 31415, Note_on_c, 0, 65, 0
2, 31417, Note_on_c, 0, 64, 0
2, 31418, Note_on_c, 0, 67, 0
2, 31518, Note_on_c, 0, 46, 39
2, 31524, Note_on_c, 0, 56, 0
2, 31556, Note_on_c, 0, 56, 34
2, 31563, Control_c, 0, 64, 127
2, 31578, Note_on_c, 0, 56, 0
2, 31625, Note_on_c, 0, 46, 0
2, 31638, Note_on_c, 0, 65, 49
2, 31640, Note_on_c, 0, 60, 60
2, 31640, Note_on_c, 0, 62, 56
2, 31641, Note_on_c, 0, 57, 47
2, 31645, Note_on_c, 0, 45, 39
2, 31647, Note_on_c, 0, 53, 36
2, 31649, Control_c, 0, 64, 0
2, 31688, Control_c, 0, 64, 127
2, 31740, Note_on_c, 0, 65, 0
2, 31748, Note_on_c, 0, 53, 0
2, 31750, Note_on_c, 0, 57, 0
2, 31751, Note_on_c, 0, 60, 0
2, 31755, Note_on_c, 0, 62, 0
2, 31791, Control_c, 0, 64, 0
2, 31795, Note_on_c, 0, 55, 49
2, 31795, Note_on_c, 0, 60, 57
2, 31795, Note_on_c, 0, 57, 54
2, 31796, Note_on_c, 0, 67, 55
2, 31796, Note_on_c, 0, 62, 47
2, 31812, Note_on_c, 0, 45, 0
2, 31827, Control_c, 0, 64, 127
2, 31888, Note_on_c, 0, 55, 0
2, 31907, Control_c, 0, 64, 0
2, 31915, Note_on_c, 0, 46, 55
2, 31922, Note_on_c, 0, 67, 0
2, 31927, Note_on_c, 0, 57, 0
2, 31937, Note_on_c, 0, 60, 0
2, 31948, Note_on_c, 0, 62, 0
2, 31950, Control_c, 0, 64, 127
2, 31999, Note_on_c, 0, 56, 56
2, 32001, Note_on_c, 0, 64, 50
2, 32003, Note_on_c, 0, 60, 63
2, 32008, Control_c, 0, 64, 0
2, 32009, Note_on_c, 0, 62, 46
2, 32016, Note_on_c, 0, 55, 35
2, 32029, Note_on_c, 0, 55, 0
2, 32044, Control_c, 0, 64, 127
2, 32055, Note_on_c, 0, 64, 0
2, 32056, Note_on_c, 0, 62, 0
2, 32063, Note_on_c, 0, 56, 0
2, 32064, Note_on_c, 0, 60, 0
2, 32075, Note_on_c, 0, 46, 0
2, 32117, Note_on_c, 0, 62, 60
2, 32119, Note_on_c, 0, 53, 52
2, 32121, Control_c, 0, 64, 0
2, 32121, Note_on_c, 0, 58, 47
2, 32125, Note_on_c, 0, 43, 42
2, 32157, Control_c, 0, 64, 127
2, 32160, Note_on_c, 0, 62, 0
2, 32175, Note_on_c, 0, 53, 0
2, 32177, Note_on_c, 0, 43, 0
2, 32193, Note_on_c, 0, 58, 0
2, 32227, Control_c, 0, 64, 0
2, 32234, Note_on_c, 0, 58, 75
2, 32234, Note_on_c, 0, 65, 72
2, 32235, Note_on_c, 0, 55, 68
2, 32237, Note_on_c, 0, 62, 69
2, 32238, Note_on_c, 0, 57, 69
2, 32247, Note_on_c, 0, 57, 0
2, 32260, Note_on_c, 0, 58, 0
2, 32261, Note_on_c, 0, 62, 0
2, 32261, Control_c, 0, 64, 127
2, 32264, Note_on_c, 0, 65, 0
2, 32295, Note_on_c, 0, 55, 0
2, 32343, Control_c, 0, 64, 0
2, 32346, Note_on_c, 0, 62, 77
2, 32346, Note_on_c, 0, 69, 58
2, 32346, Note_on_c, 0, 58, 70
2, 32349, Note_on_c, 0, 59, 68
2, 32350, Note_on_c, 0, 68, 34
2, 32352, Note_on_c, 0, 65, 57
2, 32369, Note_on_c, 0, 58, 0
2, 32373, Note_on_c, 0, 68, 0
2, 32373, Note_on_c, 0, 62, 0
2, 32374, Control_c, 0, 64, 127
2, 32375, Note_on_c, 0, 65, 0
2, 32379, Note_on_c, 0, 69, 0
2, 32389, Note_on_c, 0, 59, 0
2, 32466, Note_on_c, 0, 73, 59
2, 32468, Note_on_c, 0, 68, 64
2, 32468, Note_on_c, 0, 63, 34
2, 32469, Note_on_c, 0, 64, 72
2, 32469, Note_on_c, 0, 61, 30
2, 32470, Note_on_c, 0, 70, 60
2, 32472, Control_c, 0, 64, 0
2, 32492, Note_on_c, 0, 63, 0
2, 32511, Control_c, 0, 64, 127
2, 32518, Note_on_c, 0, 61, 0
2, 32590, Note_on_c, 0, 64, 0
2, 32590, Note_on_c, 0, 56, 35
2, 32591, Note_on_c, 0, 73, 0
2, 32594, Note_on_c, 0, 68, 0
2, 32603, Note_on_c, 0, 70, 0
2, 32616, Note_on_c, 0, 56, 0
2, 32627, Note_on_c, 0, 72, 41
2, 32628, Note_on_c, 0, 67, 54
2, 32629, Note_on_c, 0, 62, 41
2, 32634, Note_on_c, 0, 57, 31
2, 32639, Control_c, 0, 64, 0
2, 32678, Note_on_c, 0, 67, 0
2, 32689, Note_on_c, 0, 62, 0
2, 32696, Note_on_c, 0, 72, 0
2, 32700, Note_on_c, 0, 57, 0
2, 32736, Note_on_c, 0, 56, 15
2, 32751, Note_on_c, 0, 56, 0
2, 32756, Note_on_c, 0, 72, 34
2, 32757, Note_on_c, 0, 67, 50
2, 32757, Note_on_c, 0, 57, 48
2, 32758, Note_on_c, 0, 62, 37
2, 32759, Control_c, 0, 64, 127
2, 32792, Note_on_c, 0, 72, 0
2, 32795, Note_on_c, 0, 67, 0
2, 32805, Note_on_c, 0, 57, 0
2, 32820, Note_on_c, 0, 62, 0
2, 32869, Control_c, 0, 64, 0
2, 32874, Note_on_c, 0, 67, 42
2, 32877, Note_on_c, 0, 60, 40
2, 32878, Note_on_c, 0, 64, 44
2, 32880, Note_on_c, 0, 56, 35
2, 32885, Note_on_c, 0, 46, 26
2, 32905, Note_on_c, 0, 46, 0
2, 32937, Control_c, 0, 64, 127
2, 32946, Control_c, 0, 64, 0
2, 32949, Note_on_c, 0, 67, 0
2, 32950, Note_on_c, 0, 56, 0
2, 32952, Note_on_c, 0, 64, 0
2, 32954, Note_on_c, 0, 60, 0
2, 32961, Note_on_c, 0, 46, 31
2, 32997, Note_on_c, 0, 64, 46
2, 32999, Note_on_c, 0, 67, 49
2, 33000, Control_c, 0, 64, 127
2, 33000, Note_on_c, 0, 56, 25
2, 33000, Note_on_c, 0, 60, 38
2, 33025, Note_on_c, 0, 56, 0
2, 33047, Note_on_c, 0, 64, 0
2, 33054, Note_on_c, 0, 46, 0
2, 33068, Note_on_c, 0, 60, 0
2, 33079, Note_on_c, 0, 67, 0
2, 33098, Control_c, 0, 64, 0
2, 33117, Control_c, 0, 64, 127
2, 33118, Note_on_c, 0, 45, 40
2, 33120, Note_on_c, 0, 62, 56
2, 33123, Note_on_c, 0, 60, 46
2, 33124, Note_on_c, 0, 55, 29
2, 33129, Note_on_c, 0, 45, 0
2, 33136, Note_on_c, 0, 60, 0
2, 33141, Note_on_c, 0, 62, 0
2, 33144, Note_on_c, 0, 55, 0
2, 33204, Note_on_c, 0, 64, 55
2, 33205, Note_on_c, 0, 67, 63
2, 33206, Note_on_c, 0, 74, 61
2, 33209, Note_on_c, 0, 69, 48
2, 33210, Note_on_c, 0, 62, 43
2, 33219, Note_on_c, 0, 62, 0
2, 33221, Note_on_c, 0, 69, 0
2, 33225, Note_on_c, 0, 64, 0
2, 33226, Note_on_c, 0, 67, 0
2, 33226, Control_c, 0, 64, 0
2, 33228, Note_on_c, 0, 74, 0
2, 33267, Control_c, 0, 64, 127
2, 33317, Control_c, 0, 64, 0
2, 33320, Note_on_c, 0, 63, 51
2, 33320, Note_on_c, 0, 58, 53
2, 33321, Note_on_c, 0, 66, 47
2, 33322, Note_on_c, 0, 50, 51
2, 33322, Note_on_c, 0, 70, 46
2, 33322, Note_on_c, 0, 60, 53
2, 33335, Note_on_c, 0, 60, 0
2, 33335, Note_on_c, 0, 50, 0
2, 33338, Note_on_c, 0, 63, 0
2, 33339, Note_on_c, 0, 66, 0
2, 33341, Note_on_c, 0, 58, 0
2, 33342, Note_on_c, 0, 70, 0
2, 33380, Control_c, 0, 64, 127
2, 33431, Control_c, 0, 64, 0
2, 33432, Note_on_c, 0, 63, 52
2, 33434, Note_on_c, 0, 60, 63
2, 33434, Note_on_c, 0, 71, 69
2, 33435, Note_on_c, 0, 66, 45
2, 33439, Note_on_c, 0, 59, 57
2, 33439, Note_on_c, 0, 50, 46
2, 33449, Note_on_c, 0, 59, 0
2, 33452, Note_on_c, 0, 60, 0
2, 33458, Note_on_c, 0, 63, 0
2, 33460, Note_on_c, 0, 66, 0
2, 33462, Note_on_c, 0, 71, 0
2, 33463, Note_on_c, 0, 50, 0
2, 33474, Control_c, 0, 64, 127
2, 33544, Control_c, 0, 64, 0
2, 33552, Note_on_c, 0, 65, 67
2, 33553, Note_on_c, 0, 58, 68
2, 33555, Note_on_c, 0, 43, 55
2, 33558, Note_on_c, 0, 72, 37
2, 33558, Note_on_c, 0, 53, 52
2, 33564, Note_on_c, 0, 71, 32
2, 33576, Note_on_c, 0, 71, 0
2, 33578, Note_on_c, 0, 43, 0
2, 33578, Control_c, 0, 64, 127
2, 33580, Note_on_c, 0, 53, 0
2, 33592, Note_on_c, 0, 58, 0
2, 33599, Note_on_c, 0, 65, 0
2, 33655, Note_on_c, 0, 72, 0
2, 33681, Note_on_c, 0, 62, 48
2, 33684, Note_on_c, 0, 57, 36
2, 33690, Note_on_c, 0, 58, 33
2, 33692, Note_on_c, 0, 69, 53
2, 33696, Control_c, 0, 64, 0
2, 33702, Note_on_c, 0, 58, 0
2, 33730, Note_on_c, 0, 62, 0
2, 33739, Note_on_c, 0, 69, 0
2, 33751, Control_c, 0, 64, 127
2, 33778, Control_c, 0, 64, 0
2, 33781, Note_on_c, 0, 70, 82
2, 33794, Note_on_c, 0, 58, 32
2, 33795, Note_on_c, 0, 62, 32
2, 33811, Note_on_c, 0, 70, 0
2, 33835, Note_on_c, 0, 62, 0
2, 33861, Note_on_c, 0, 58, 0
2, 33873, Note_on_c, 0, 76, 64
2, 33891, Note_on_c, 0, 76, 0
2, 33904, Note_on_c, 0, 77, 69
2, 33925, Note_on_c, 0, 77, 0
2, 33939, Control_c, 0, 64, 127
2, 33943, Note_on_c, 0, 81, 75
2, 33966, Note_on_c, 0, 81, 0
2, 33972, Control_c, 0, 64, 0
2, 33978, Note_on_c, 0, 84, 89
2, 33981, Note_on_c, 0, 62, 30
2, 33984, Note_on_c, 0, 58, 30
2, 33994, Note_on_c, 0, 62, 0
2, 33994, Control_c, 0, 64, 127
2, 34008, Note_on_c, 0, 58, 0
2, 34011, Note_on_c, 0, 57, 0
2, 34014, Note_on_c, 0, 84, 0
2, 34042, Control_c, 0, 64, 0
2, 34048, Note_on_c, 0, 82, 76
2, 34053, Note_on_c, 0, 62, 46
2, 34055, Note_on_c, 0, 52, 49
2, 34059, Note_on_c, 0, 58, 15
2, 34098, Control_c, 0, 64, 127
2, 34134, Note_on_c, 0, 78, 56
2, 34137, Note_on_c, 0, 62, 0
2, 34148, Note_on_c, 0, 82, 0
2, 34151, Control_c, 0, 64, 0
2, 34160, Note_on_c, 0, 58, 0
2, 34160, Note_on_c, 0, 52, 0
2, 34163, Note_on_c, 0, 78, 0
2, 34172, Note_on_c, 0, 76, 37
2, 34200, Note_on_c, 0, 76, 0
2, 34205, Note_on_c, 0, 75, 46
2, 34223, Note_on_c, 0, 75, 0
2, 34231, Note_on_c, 0, 74, 51
2, 34256, Note_on_c, 0, 74, 0
2, 34265, Note_on_c, 0, 73, 31
2, 34278, Control_c, 0, 64, 127
2, 34283, Note_on_c, 0, 73, 0
2, 34286, Note_on_c, 0, 72, 49
2, 34299, Note_on_c, 0, 72, 0
2, 34309, Control_c, 0, 64, 0
2, 34313, Note_on_c, 0, 58, 31
2, 34316, Note_on_c, 0, 48, 32
2, 34322, Note_on_c, 0, 71, 32
2, 34339, Note_on_c, 0, 58, 0
2, 34341, Note_on_c, 0, 71, 0
2, 34343, Note_on_c, 0, 48, 0
2, 34345, Control_c, 0, 64, 127
2, 34372, Note_on_c, 0, 66, 31
2, 34392, Note_on_c, 0, 66, 0
2, 34393, Note_on_c, 0, 64, 31
2, 34394, Control_c, 0, 64, 0
2, 34398, Note_on_c, 0, 54, 38
2, 34399, Note_on_c, 0, 44, 50
2, 34412, Note_on_c, 0, 64, 0
2, 34443, Note_on_c, 0, 62, 50
2, 34454, Control_c, 0, 64, 127
2, 34467, Note_on_c, 0, 62, 0
2, 34473, Note_on_c, 0, 61, 50
2, 34487, Note_on_c, 0, 61, 0
2, 34491, Note_on_c, 0, 54, 0
2, 34502, Note_on_c, 0, 60, 36
2, 34524, Note_on_c, 0, 60, 0
2, 34529, Note_on_c, 0, 59, 59
2, 34534, Note_on_c, 0, 44, 0
2, 34550, Note_on_c, 0, 59, 0
2, 34553, Control_c, 0, 64, 0
2, 34558, Note_on_c, 0, 43, 43
2, 34560, Note_on_c, 0, 58, 60
2, 34564, Note_on_c, 0, 53, 40
2, 34584, Note_on_c, 0, 43, 0
2, 34584, Control_c, 0, 64, 127
2, 34595, Note_on_c, 0, 53, 0
2, 34609, Note_on_c, 0, 58, 0
2, 34683, Note_on_c, 0, 62, 60
2, 34687, Note_on_c, 0, 58, 43
2, 34687, Note_on_c, 0, 57, 40
2, 34690, Control_c, 0, 64, 0
2, 34733, Note_on_c, 0, 62, 0
2, 34747, Control_c, 0, 64, 127
2, 34753, Note_on_c, 0, 57, 0
2, 34755, Note_on_c, 0, 58, 0
2, 34765, Note_on_c, 0, 72, 61
2, 34766, Note_on_c, 0, 65, 74
2, 34768, Note_on_c, 0, 62, 58
2, 34770, Note_on_c, 0, 69, 57
2, 34778, Note_on_c, 0, 69, 0
2, 34779, Control_c, 0, 64, 0
2, 34783, Note_on_c, 0, 62, 0
2, 34783, Note_on_c, 0, 65, 0
2, 34786, Note_on_c, 0, 72, 0
2, 34803, Note_on_c, 0, 57, 46
2, 34817, Control_c, 0, 64, 127
2, 34840, Note_on_c, 0, 69, 40
2, 34841, Note_on_c, 0, 62, 53
2, 34841, Note_on_c, 0, 58, 50
2, 34848, Note_on_c, 0, 65, 36
2, 34902, Note_on_c, 0, 69, 0
2, 34906, Note_on_c, 0, 58, 0
2, 34908, Note_on_c, 0, 57, 0
2, 34913, Note_on_c, 0, 65, 0
2, 34914, Note_on_c, 0, 62, 0
2, 34914, Control_c, 0, 64, 0
2, 34923, Note_on_c, 0, 53, 46
2, 34926, Control_c, 0, 64, 127
2, 34942, Note_on_c, 0, 53, 0
2, 35002, Note_on_c, 0, 63, 46
2, 35002, Note_on_c, 0, 57, 51
2, 35002, Note_on_c, 0, 69, 48
2, 35003, Note_on_c, 0, 66, 46
2, 35010, Control_c, 0, 64, 0
2, 35017, Note_on_c, 0, 57, 0
2, 35026, Note_on_c, 0, 38, 49
2, 35029, Note_on_c, 0, 63, 0
2, 35030, Note_on_c, 0, 66, 0
2, 35037, Note_on_c, 0, 69, 0
2, 35039, Control_c, 0, 64, 127
2, 35039, Note_on_c, 0, 50, 20
2, 35047, Note_on_c, 0, 50, 0
2, 35049, Note_on_c, 0, 38, 0
2, 35126, Note_on_c, 0, 81, 77
2, 35127, Note_on_c, 0, 75, 69
2, 35128, Note_on_c, 0, 69, 78
2, 35135, Note_on_c, 0, 75, 0
2, 35135, Control_c, 0, 64, 0
2, 35136, Note_on_c, 0, 78, 33
2, 35137, Note_on_c, 0, 74, 38
2, 35147, Note_on_c, 0, 74, 0
2, 35156, Note_on_c, 0, 64, 41
2, 35162, Note_on_c, 0, 60, 38
2, 35163, Note_on_c, 0, 54, 21
2, 35166, Note_on_c, 0, 64, 0
2, 35171, Control_c, 0, 64, 127
2, 35173, Note_on_c, 0, 60, 0
2, 35184, Note_on_c, 0, 54, 0
2, 35263, Note_on_c, 0, 69, 0
2, 35274, Control_c, 0, 64, 0
2, 35285, Note_on_c, 0, 75, 48
2, 35287, Note_on_c, 0, 69, 34
2, 35290, Note_on_c, 0, 54, 36
2, 35292, Note_on_c, 0, 45, 42
2, 35304, Control_c, 0, 64, 127
2, 35347, Note_on_c, 0, 45, 0
2, 35365, Note_on_c, 0, 54, 0
2, 35396, Note_on_c, 0, 69, 0
2, 35397, Control_c, 0, 64, 0
2, 35401, Note_on_c, 0, 81, 0
2, 35402, Note_on_c, 0, 54, 42
2, 35406, Note_on_c, 0, 44, 49
2, 35407, Control_c, 0, 64, 127
2, 35413, Note_on_c, 0, 78, 0
2, 35422, Note_on_c, 0, 75, 0
2, 35464, Note_on_c, 0, 54, 0
2, 35477, Note_on_c, 0, 44, 0
2, 35488, Note_on_c, 0, 82, 59
2, 35491, Note_on_c, 0, 70, 49
2, 35493, Note_on_c, 0, 74, 51
2, 35498, Note_on_c, 0, 77, 41
2, 35499, Control_c, 0, 64, 0
2, 35507, Note_on_c, 0, 43, 41
2, 35517, Note_on_c, 0, 74, 0
2, 35520, Note_on_c, 0, 43, 0
2, 35522, Control_c, 0, 64, 127
2, 35525, Note_on_c, 0, 70, 0
2, 35526, Note_on_c, 0, 77, 0
2, 35534, Note_on_c, 0, 82, 0
2, 35640, Control_c, 0, 64, 0
2, 35641, Note_on_c, 0, 86, 71
2, 35642, Note_on_c, 0, 62, 57
2, 35642, Note_on_c, 0, 82, 49
2, 35643, Note_on_c, 0, 74, 58
2, 35645, Note_on_c, 0, 79, 44
2, 35646, Note_on_c, 0, 58, 46
2, 35648, Note_on_c, 0, 55, 43
2, 35664, Note_on_c, 0, 62, 0
2, 35666, Note_on_c, 0, 55, 0
2, 35674, Control_c, 0, 64, 127
2, 35675, Note_on_c, 0, 58, 0
2, 35754, Control_c, 0, 64, 0
2, 35764, Note_on_c, 0, 41, 44
2, 35775, Control_c, 0, 64, 127
2, 35777, Note_on_c, 0, 41, 0
2, 35791, Note_on_c, 0, 86, 0
2, 35806, Note_on_c, 0, 79, 0
2, 35807, Note_on_c, 0, 82, 0
2, 35808, Note_on_c, 0, 74, 0
2, 35881, Control_c, 0, 64, 0
2, 35882, Note_on_c, 0, 53, 54
2, 35886, Note_on_c, 0, 58, 37
2, 35895, Note_on_c, 0, 53, 0
2, 35897, Note_on_c, 0, 58, 0
2, 35900, Control_c, 0, 64, 127
2, 35957, Note_on_c, 0, 82, 68
2, 35959, Note_on_c, 0, 70, 74
2, 35963, Note_on_c, 0, 75, 60
2, 35971, Note_on_c, 0, 75, 0
2, 35984, Control_c, 0, 64, 0
2, 35986, Note_on_c, 0, 70, 0
2, 35994, Note_on_c, 0, 82, 0
2, 35996, Note_on_c, 0, 39, 48
2, 36001, Note_on_c, 0, 51, 35
2, 36011, Control_c, 0, 64, 127
2, 36015, Note_on_c, 0, 81, 47
2, 36019, Note_on_c, 0, 73, 37
2, 36020, Note_on_c, 0, 39, 0
2, 36020, Note_on_c, 0, 69, 62
2, 36024, Note_on_c, 0, 77, 58
2, 36026, Note_on_c, 0, 51, 0
2, 36114, Control_c, 0, 64, 0
2, 36118, Note_on_c, 0, 65, 55
2, 36120, Note_on_c, 0, 61, 50
2, 36121, Note_on_c, 0, 55, 50
2, 36122, Note_on_c, 0, 81, 0
2, 36124, Control_c, 0, 64, 127
2, 36126, Note_on_c, 0, 77, 0
2, 36128, Note_on_c, 0, 65, 0
2, 36131, Note_on_c, 0, 69, 0
2, 36132, Note_on_c, 0, 73, 0
2, 36140, Note_on_c, 0, 61, 0
2, 36142, Note_on_c, 0, 55, 0
2, 36235, Control_c, 0, 64, 0
2, 36237, Note_on_c, 0, 54, 59
2, 36237, Note_on_c, 0, 38, 45
2, 36269, Control_c, 0, 64, 127
2, 36331, Note_on_c, 0, 54, 0
2, 36340, Note_on_c, 0, 38, 0
2, 36353, Control_c, 0, 64, 0
2, 36357, Note_on_c, 0, 54, 38
2, 36360, Note_on_c, 0, 44, 35
2, 36363, Note_on_c, 0, 60, 54
2, 36379, Control_c, 0, 64, 127
2, 36424, Note_on_c, 0, 54, 0
2, 36426, Note_on_c, 0, 60, 0
2, 36443, Note_on_c, 0, 53, 54
2, 36446, Note_on_c, 0, 59, 57
2, 36451, Control_c, 0, 64, 0
2, 36452, Note_on_c, 0, 44, 0
2, 36461, Note_on_c, 0, 43, 47
2, 36466, Note_on_c, 0, 53, 0
2, 36477, Note_on_c, 0, 59, 0
2, 36486, Note_on_c, 0, 43, 0
2, 36490, Control_c, 0, 64, 127
2, 36594, Note_on_c, 0, 53, 41
2, 36596, Note_on_c, 0, 69, 61
2, 36598, Control_c, 0, 64, 0
2, 36599, Note_on_c, 0, 59, 40
2, 36599, Note_on_c, 0, 64, 53
2, 36643, Note_on_c, 0, 69, 0
2, 36647, Note_on_c, 0, 64, 0
2, 36652, Note_on_c, 0, 59, 0
2, 36666, Control_c, 0, 64, 127
2, 36668, Note_on_c, 0, 53, 0
2, 36679, Note_on_c, 0, 68, 32
2, 36681, Note_on_c, 0, 52, 42
2, 36695, Control_c, 0, 64, 0
2, 36699, Note_on_c, 0, 68, 0
2, 36706, Note_on_c, 0, 52, 0
2, 36717, Note_on_c, 0, 64, 43
2, 36719, Note_on_c, 0, 69, 51
2, 36720, Note_on_c, 0, 59, 51
2, 36725, Note_on_c, 0, 53, 37
2, 36726, Control_c, 0, 64, 127
2, 36737, Note_on_c, 0, 69, 0
2, 36739, Note_on_c, 0, 64, 0
2, 36740, Note_on_c, 0, 53, 0
2, 36752, Note_on_c, 0, 59, 0
2, 36838, Note_on_c, 0, 53, 40
2, 36839, Control_c, 0, 64, 0
2, 36839, Note_on_c, 0, 43, 35
2, 36840, Note_on_c, 0, 64, 44
2, 36840, Note_on_c, 0, 61, 34
2, 36841, Note_on_c, 0, 52, 43
2, 36844, Note_on_c, 0, 57, 38
2, 36899, Note_on_c, 0, 57, 0
2, 36901, Note_on_c, 0, 61, 0
2, 36902, Control_c, 0, 64, 127
2, 36903, Note_on_c, 0, 53, 0
2, 36907, Note_on_c, 0, 52, 0
2, 36907, Note_on_c, 0, 64, 0
2, 36918, Note_on_c, 0, 51, 30
2, 36928, Control_c, 0, 64, 0
2, 36948, Note_on_c, 0, 51, 0
2, 36952, Note_on_c, 0, 53, 41
2, 36953, Note_on_c, 0, 64, 41
2, 36953, Note_on_c, 0, 61, 37
2, 36955, Note_on_c, 0, 57, 50
2, 36957, Note_on_c, 0, 52, 40
2, 36983, Control_c, 0, 64, 127
2, 37012, Note_on_c, 0, 52, 0
2, 37015, Note_on_c, 0, 53, 0
2, 37015, Note_on_c, 0, 57, 0
2, 37018, Note_on_c, 0, 61, 0
2, 37029, Note_on_c, 0, 64, 0
2, 37054, Note_on_c, 0, 43, 0
2, 37065, Control_c, 0, 64, 0
2, 37076, Note_on_c, 0, 62, 62
2, 37077, Note_on_c, 0, 43, 26
2, 37077, Note_on_c, 0, 53, 46
2, 37080, Note_on_c, 0, 57, 44
2, 37080, Note_on_c, 0, 50, 39
2, 37133, Control_c, 0, 64, 127
2, 37145, Note_on_c, 0, 57, 0
2, 37149, Note_on_c, 0, 53, 0
2, 37155, Note_on_c, 0, 50, 0
2, 37160, Note_on_c, 0, 62, 0
2, 37163, Note_on_c, 0, 49, 32
2, 37174, Control_c, 0, 64, 0
2, 37198, Note_on_c, 0, 49, 0
2, 37200, Note_on_c, 0, 62, 54
2, 37201, Note_on_c, 0, 50, 44
2, 37203, Note_on_c, 0, 57, 47
2, 37204, Note_on_c, 0, 53, 34
2, 37217, Control_c, 0, 64, 127
2, 37242, Note_on_c, 0, 43, 0
2, 37246, Note_on_c, 0, 53, 0
2, 37247, Note_on_c, 0, 57, 0
2, 37258, Note_on_c, 0, 62, 0
2, 37260, Note_on_c, 0, 50, 0
2, 37283, Note_on_c, 0, 43, 76
2, 37294, Control_c, 0, 64, 0
2, 37306, Note_on_c, 0, 43, 0
2, 37315, Control_c, 0, 64, 127
2, 37395, Control_c, 0, 64, 0
2, 37398, Note_on_c, 0, 69, 74
2, 37399, Note_on_c, 0, 62, 80
2, 37400, Note_on_c, 0, 58, 79
2, 37400, Note_on_c, 0, 57, 88
2, 37403, Note_on_c, 0, 65, 62
2, 37428, Control_c, 0, 64, 127
2, 37442, Note_on_c, 0, 58, 0
2, 37444, Note_on_c, 0, 65, 0
2, 37444, Note_on_c, 0, 62, 0
2, 37446, Note_on_c, 0, 69, 0
2, 37466, Note_on_c, 0, 57, 0
2, 37515, Control_c, 0, 64, 0
2, 37516, Note_on_c, 0, 72, 66
2, 37516, Note_on_c, 0, 65, 80
2, 37518, Note_on_c, 0, 69, 71
2, 37518, Note_on_c, 0, 62, 76
2, 37518, Note_on_c, 0, 60, 85
2, 37551, Control_c, 0, 64, 127
2, 37606, Note_on_c, 0, 69, 0
2, 37610, Note_on_c, 0, 62, 0
2, 37610, Note_on_c, 0, 65, 0
2, 37618, Note_on_c, 0, 72, 0
2, 37640, Note_on_c, 0, 60, 0
2, 37674, Control_c, 0, 64, 0
2, 37677, Note_on_c, 0, 74, 58
2, 37679, Note_on_c, 0, 70, 51
2, 37679, Note_on_c, 0, 67, 55
2, 37680, Note_on_c, 0, 62, 54
2, 37680, Note_on_c, 0, 65, 54
2, 37705, Control_c, 0, 64, 127
2, 37707, Note_on_c, 0, 67, 0
2, 37713, Note_on_c, 0, 74, 0
2, 37716, Note_on_c, 0, 70, 0
2, 37736, Note_on_c, 0, 65, 0
2, 37741, Note_on_c, 0, 62, 0
2, 37748, Note_on_c, 0, 63, 34
2, 37777, Control_c, 0, 64, 0
2, 37788, Note_on_c, 0, 63, 0
2, 37792, Note_on_c, 0, 70, 52
2, 37792, Note_on_c, 0, 77, 62
2, 37794, Note_on_c, 0, 65, 64
2, 37795, Note_on_c, 0, 74, 55
2, 37795, Note_on_c, 0, 67, 54
2, 37809, Control_c, 0, 64, 127
2, 37823, Note_on_c, 0, 67, 0
2, 37824, Note_on_c, 0, 74, 0
2, 37828, Note_on_c, 0, 70, 0
2, 37832, Note_on_c, 0, 77, 0
2, 37850, Note_on_c, 0, 65, 0
2, 37888, Note_on_c, 0, 66, 20
2, 37892, Note_on_c, 0, 65, 16
2, 37903, Control_c, 0, 64, 0
2, 37907, Note_on_c, 0, 65, 0
2, 37917, Note_on_c, 0, 67, 24
2, 37918, Note_on_c, 0, 70, 57
2, 37918, Note_on_c, 0, 73, 39
2, 37920, Note_on_c, 0, 81, 48
2, 37920, Note_on_c, 0, 76, 55
2, 37921, Note_on_c, 0, 69, 68
2, 37924, Note_on_c, 0, 80, 25
2, 37925, Note_on_c, 0, 67, 0
2, 37930, Note_on_c, 0, 66, 0
2, 37932, Control_c, 0, 64, 127
2, 37948, Note_on_c, 0, 73, 0
2, 37949, Note_on_c, 0, 80, 0
2, 37949, Note_on_c, 0, 76, 0
2, 37951, Note_on_c, 0, 81, 0
2, 37952, Note_on_c, 0, 70, 0
2, 37959, Note_on_c, 0, 69, 0
2, 38030, Control_c, 0, 64, 0
2, 38037, Note_on_c, 0, 72, 55
2, 38040, Note_on_c, 0, 84, 72
2, 38042, Note_on_c, 0, 73, 47
2, 38042, Note_on_c, 0, 76, 67
2, 38049, Note_on_c, 0, 79, 35
2, 38050, Note_on_c, 0, 82, 25
2, 38052, Control_c, 0, 64, 127
2, 38056, Note_on_c, 0, 72, 0
2, 38069, Note_on_c, 0, 84, 0
2, 38072, Note_on_c, 0, 79, 0
2, 38074, Note_on_c, 0, 76, 0
2, 38075, Note_on_c, 0, 82, 0
2, 38088, Note_on_c, 0, 73, 0
2, 38151, Control_c, 0, 64, 0
2, 38160, Note_on_c, 0, 64, 39
2, 38160, Note_on_c, 0, 70, 46
2, 38160, Note_on_c, 0, 76, 39
2, 38162, Note_on_c, 0, 73, 27
2, 38165, Control_c, 0, 64, 127
2, 38213, Note_on_c, 0, 70, 0
2, 38214, Note_on_c, 0, 73, 0
2, 38226, Note_on_c, 0, 64, 0
2, 38233, Note_on_c, 0, 76, 0
2, 38271, Control_c, 0, 64, 0
2, 38274, Note_on_c, 0, 73, 44
2, 38276, Note_on_c, 0, 64, 22
2, 38277, Note_on_c, 0, 70, 51
2, 38279, Note_on_c, 0, 79, 41
2, 38284, Note_on_c, 0, 64, 0
2, 38288, Control_c, 0, 64, 127
2, 38292, Note_on_c, 0, 79, 0
2, 38297, Note_on_c, 0, 70, 0
2, 38298, Note_on_c, 0, 73, 0
2, 38399, Control_c, 0, 64, 0
2, 38399, Note_on_c, 0, 72, 32
2, 38400, Note_on_c, 0, 64, 39
2, 38400, Note_on_c, 0, 67, 44
2, 38402, Note_on_c, 0, 69, 40
2, 38476, Note_on_c, 0, 57, 37
2, 38485, Note_on_c, 0, 57, 0
2, 38529, Note_on_c, 0, 45, 51
2, 38562, Control_c, 0, 64, 127
2, 38619, Note_on_c, 0, 45, 0
2, 38637, Control_c, 0, 64, 0
2, 38645, Note_on_c, 0, 57, 35
2, 38661, Note_on_c, 0, 57, 0
2, 38719, Note_on_c, 0, 45, 51
2, 38750, Control_c, 0, 64, 127
2, 38781, Note_on_c, 0, 69, 0
2, 38784, Note_on_c, 0, 45, 0
2, 38787, Note_on_c, 0, 67, 0
2, 38795, Note_on_c, 0, 72, 0
2, 38803, Note_on_c, 0, 64, 0
2, 38839, Control_c, 0, 64, 0
2, 38840, Note_on_c, 0, 62, 44
2, 38841, Note_on_c, 0, 65, 45
2, 38842, Note_on_c, 0, 44, 46
2, 38842, Note_on_c, 0, 53, 51
2, 38864, Note_on_c, 0, 44, 0
2, 38865, Control_c, 0, 64, 127
2, 38866, Note_on_c, 0, 62, 0
2, 38868, Note_on_c, 0, 53, 0
2, 38870, Note_on_c, 0, 65, 0
2, 38946, Note_on_c, 0, 64, 65
2, 38947, Note_on_c, 0, 76, 68
2, 38948, Note_on_c, 0, 68, 50
2, 38949, Note_on_c, 0, 65, 51
2, 38950, Note_on_c, 0, 71, 51
2, 38958, Note_on_c, 0, 65, 0
2, 38960, Note_on_c, 0, 71, 0
2, 38961, Note_on_c, 0, 68, 0
2, 38962, Note_on_c, 0, 76, 0
2, 38966, Note_on_c, 0, 64, 0
2, 38967, Control_c, 0, 64, 0
2, 38979, Note_on_c, 0, 63, 39
2, 39007, Note_on_c, 0, 63, 0
2, 39014, Note_on_c, 0, 74, 64
2, 39016, Note_on_c, 0, 71, 50
2, 39016, Note_on_c, 0, 68, 57
2, 39017, Note_on_c, 0, 65, 57
2, 39019, Control_c, 0, 64, 127
2, 39020, Note_on_c, 0, 62, 56
2, 39054, Note_on_c, 0, 74, 0
2, 39056, Note_on_c, 0, 71, 0
2, 39060, Note_on_c, 0, 62, 0
2, 39061, Note_on_c, 0, 68, 0
2, 39071, Note_on_c, 0, 65, 0
2, 39104, Control_c, 0, 64, 0
2, 39106, Note_on_c, 0, 71, 57
2, 39110, Note_on_c, 0, 65, 53
2, 39110, Note_on_c, 0, 59, 39
2, 39111, Note_on_c, 0, 62, 53
2, 39113, Note_on_c, 0, 68, 33
2, 39125, Note_on_c, 0, 68, 0
2, 39126, Control_c, 0, 64, 127
2, 39127, Note_on_c, 0, 65, 0
2, 39132, Note_on_c, 0, 71, 0
2, 39148, Note_on_c, 0, 62, 0
2, 39175, Note_on_c, 0, 59, 0
2, 39195, Note_on_c, 0, 68, 57
2, 39196, Note_on_c, 0, 56, 43
2, 39197, Note_on_c, 0, 62, 57
2, 39198, Note_on_c, 0, 59, 44
2, 39200, Note_on_c, 0, 65, 45
2, 39208, Control_c, 0, 64, 0
2, 39209, Note_on_c, 0, 56, 0
2, 39213, Note_on_c, 0, 59, 0
2, 39224, Note_on_c, 0, 65, 0
2, 39226, Note_on_c, 0, 62, 0
2, 39229, Note_on_c, 0, 68, 0
2, 39246, Control_c, 0, 64, 127
2, 39307, Note_on_c, 0, 58, 71
2, 39309, Note_on_c, 0, 54, 50
2, 39309, Note_on_c, 0, 44, 49
2, 39315, Note_on_c, 0, 57, 62
2, 39326, Control_c, 0, 64, 0
2, 39345, Note_on_c, 0, 54, 0
2, 39358, Note_on_c, 0, 44, 0
2, 39365, Note_on_c, 0, 43, 34
2, 39373, Note_on_c, 0, 57, 0
2, 39386, Note_on_c, 0, 58, 0
2, 39398, Note_on_c, 0, 60, 41
2, 39406, Note_on_c, 0, 53, 1
2, 39412, Note_on_c, 0, 60, 0
2, 39415, Note_on_c, 0, 58, 38
2, 39446, Note_on_c, 0, 58, 0
2, 39448, Note_on_c, 0, 57, 47
2, 39474, Note_on_c, 0, 57, 0
2, 39483, Note_on_c, 0, 43, 0
2, 39488, Note_on_c, 0, 58, 34
2, 39498, Note_on_c, 0, 58, 0
2, 39516, Note_on_c, 0, 53, 0
2, 39529, Note_on_c, 0, 62, 33
2, 39554, Note_on_c, 0, 66, 57
2, 39555, Note_on_c, 0, 62, 0
2, 39575, Note_on_c, 0, 66, 0
2, 39591, Note_on_c, 0, 69, 84
2, 39621, Note_on_c, 0, 69, 0
2, 39630, Note_on_c, 0, 66, 42
2, 39650, Note_on_c, 0, 66, 0
2, 39668, Note_on_c, 0, 67, 60
2, 39693, Note_on_c, 0, 67, 0
2, 39700, Note_on_c, 0, 69, 36
2, 39706, Note_on_c, 0, 62, 36
2, 39713, Note_on_c, 0, 58, 28
2, 39716, Note_on_c, 0, 57, 24
2, 39728, Note_on_c, 0, 69, 0
2, 39730, Control_c, 0, 64, 127
2, 39746, Note_on_c, 0, 70, 39
2, 39749, Note_on_c, 0, 57, 0
2, 39762, Note_on_c, 0, 70, 0
2, 39764, Note_on_c, 0, 58, 0
2, 39766, Note_on_c, 0, 62, 0
2, 39781, Note_on_c, 0, 72, 54
2, 39804, Note_on_c, 0, 72, 0
2, 39816, Note_on_c, 0, 74, 68
2, 39826, Control_c, 0, 64, 0
2, 39830, Note_on_c, 0, 63, 45
2, 39837, Note_on_c, 0, 54, 25
2, 39842, Note_on_c, 0, 74, 0
2, 39848, Note_on_c, 0, 63, 0
2, 39854, Note_on_c, 0, 75, 45
2, 39861, Note_on_c, 0, 54, 0
2, 39872, Control_c, 0, 64, 127
2, 39873, Note_on_c, 0, 75, 0
2, 39891, Note_on_c, 0, 77, 33
2, 39910, Note_on_c, 0, 77, 0
2, 39920, Note_on_c, 0, 78, 49
2, 39937, Note_on_c, 0, 42, 35
2, 39942, Control_c, 0, 64, 0
2, 39951, Note_on_c, 0, 78, 0
2, 39957, Note_on_c, 0, 42, 0
2, 39960, Note_on_c, 0, 80, 42
2, 39972, Note_on_c, 0, 80, 0
2, 39976, Control_c, 0, 64, 127
2, 39996, Note_on_c, 0, 81, 38
2, 40010, Note_on_c, 0, 81, 0
2, 40022, Note_on_c, 0, 83, 55
2, 40048, Note_on_c, 0, 83, 0
2, 40053, Note_on_c, 0, 84, 60
2, 40067, Control_c, 0, 64, 0
2, 40072, Note_on_c, 0, 84, 0
2, 40078, Note_on_c, 0, 54, 25
2, 40079, Note_on_c, 0, 86, 76
2, 40086, Control_c, 0, 64, 127
2, 40093, Note_on_c, 0, 54, 0
2, 40095, Note_on_c, 0, 86, 0
2, 40110, Note_on_c, 0, 87, 57
2, 40125, Note_on_c, 0, 87, 0
2, 40136, Note_on_c, 0, 84, 61
2, 40154, Note_on_c, 0, 84, 0
2, 40175, Note_on_c, 0, 86, 34
2, 40179, Note_on_c, 0, 88, 22
2, 40180, Control_c, 0, 64, 0
2, 40187, Note_on_c, 0, 88, 0
2, 40192, Note_on_c, 0, 86, 0
2, 40192, Note_on_c, 0, 54, 35
2, 40196, Note_on_c, 0, 44, 33
2, 40207, Control_c, 0, 64, 127
2, 40236, Note_on_c, 0, 44, 0
2, 40247, Note_on_c, 0, 90, 42
2, 40249, Note_on_c, 0, 54, 0
2, 40264, Note_on_c, 0, 90, 0
2, 40290, Note_on_c, 0, 93, 16
2, 40292, Note_on_c, 0, 94, 56
2, 40301, Note_on_c, 0, 93, 0
2, 40308, Control_c, 0, 64, 0
2, 40313, Note_on_c, 0, 94, 0
2, 40322, Note_on_c, 0, 46, 35
2, 40324, Note_on_c, 0, 56, 33
2, 40329, Control_c, 0, 64, 127
2, 40330, Note_on_c, 0, 97, 71
2, 40332, Note_on_c, 0, 46, 0
2, 40342, Note_on_c, 0, 56, 0
2, 40395, Note_on_c, 0, 97, 0
2, 40433, Control_c, 0, 64, 0
2, 40434, Note_on_c, 0, 65, 38
2, 40438, Note_on_c, 0, 56, 25
2, 40439, Note_on_c, 0, 60, 52
2, 40440, Note_on_c, 0, 61, 34
2, 40452, Control_c, 0, 64, 127
2, 40498, Note_on_c, 0, 60, 0
2, 40512, Note_on_c, 0, 65, 0
2, 40531, Note_on_c, 0, 61, 0
2, 40543, Note_on_c, 0, 56, 0
2, 40557, Note_on_c, 0, 64, 35
2, 40557, Note_on_c, 0, 61, 29
2, 40560, Note_on_c, 0, 55, 38
2, 40565, Control_c, 0, 64, 0
2, 40585, Note_on_c, 0, 64, 0
2, 40593, Note_on_c, 0, 67, 42
2, 40602, Note_on_c, 0, 61, 0
2, 40611, Note_on_c, 0, 67, 0
2, 40618, Control_c, 0, 64, 127
2, 40627, Note_on_c, 0, 69, 36
2, 40643, Note_on_c, 0, 69, 0
2, 40648, Note_on_c, 0, 70, 51
2, 40655, Note_on_c, 0, 61, 42
2, 40657, Note_on_c, 0, 70, 0
2, 40664, Control_c, 0, 64, 0
2, 40671, Note_on_c, 0, 71, 61
2, 40680, Note_on_c, 0, 61, 0
2, 40691, Note_on_c, 0, 71, 0
2, 40691, Note_on_c, 0, 55, 0
2, 40704, Note_on_c, 0, 76, 56
2, 40724, Control_c, 0, 64, 127
2, 40731, Note_on_c, 0, 76, 0
2, 40737, Note_on_c, 0, 71, 55
2, 40751, Note_on_c, 0, 71, 0
2, 40764, Note_on_c, 0, 72, 39
2, 40772, Control_c, 0, 64, 0
2, 40781, Note_on_c, 0, 72, 0
2, 40789, Note_on_c, 0, 79, 60
2, 40797, Note_on_c, 0, 79, 0
2, 40797, Note_on_c, 0, 45, 30
2, 40801, Note_on_c, 0, 52, 32
2, 40803, Note_on_c, 0, 55, 24
2, 40806, Control_c, 0, 64, 127
2, 40809, Note_on_c, 0, 45, 0
2, 40813, Note_on_c, 0, 55, 0
2, 40821, Note_on_c, 0, 52, 0
2, 40822, Note_on_c, 0, 83, 61
2, 40842, Note_on_c, 0, 83, 0
2, 40854, Note_on_c, 0, 86, 85
2, 40855, Note_on_c, 0, 74, 69
2, 40897, Note_on_c, 0, 74, 0
2, 40899, Note_on_c, 0, 86, 0
2, 40907, Note_on_c, 0, 85, 74
2, 40929, Control_c, 0, 64, 0
2, 40936, Note_on_c, 0, 64, 30
2, 40939, Note_on_c, 0, 85, 0
2, 40941, Note_on_c, 0, 60, 33
2, 40944, Note_on_c, 0, 55, 25
2, 40947, Note_on_c, 0, 59, 24
2, 40952, Note_on_c, 0, 84, 62
2, 40960, Control_c, 0, 64, 127
2, 40992, Note_on_c, 0, 59, 0
2, 40998, Note_on_c, 0, 55, 0
2, 40999, Note_on_c, 0, 84, 0
2, 40999, Note_on_c, 0, 64, 0
2, 41010, Note_on_c, 0, 60, 0
2, 41012, Note_on_c, 0, 83, 71
2, 41037, Control_c, 0, 64, 0
2, 41044, Note_on_c, 0, 83, 0
2, 41052, Note_on_c, 0, 54, 32
2, 41062, Note_on_c, 0, 81, 46
2, 41064, Control_c, 0, 64, 127
2, 41080, Note_on_c, 0, 54, 0
2, 41081, Note_on_c, 0, 81, 0
2, 41085, Note_on_c, 0, 83, 51
2, 41110, Note_on_c, 0, 81, 47
2, 41119, Note_on_c, 0, 83, 0
2, 41146, Note_on_c, 0, 81, 0
2, 41146, Note_on_c, 0, 79, 51
2, 41155, Control_c, 0, 64, 0
2, 41160, Note_on_c, 0, 54, 32
2, 41161, Note_on_c, 0, 50, 29
2, 41172, Note_on_c, 0, 79, 0
2, 41174, Note_on_c, 0, 50, 0
2, 41176, Note_on_c, 0, 57, 16
2, 41181, Control_c, 0, 64, 127
2, 41186, Note_on_c, 0, 57, 0
2, 41187, Note_on_c, 0, 78, 36
2, 41193, Note_on_c, 0, 54, 0
2, 41237, Note_on_c, 0, 78, 0
2, 41245, Note_on_c, 0, 82, 73
2, 41268, Control_c, 0, 64, 0
2, 41268, Note_on_c, 0, 63, 38
2, 41270, Note_on_c, 0, 54, 29
2, 41270, Note_on_c, 0, 59, 46
2, 41281, Note_on_c, 0, 58, 25
2, 41285, Note_on_c, 0, 82, 0
2, 41287, Note_on_c, 0, 63, 0
2, 41296, Note_on_c, 0, 78, 33
2, 41304, Control_c, 0, 64, 127
2, 41318, Note_on_c, 0, 59, 0
2, 41327, Note_on_c, 0, 58, 0
2, 41337, Note_on_c, 0, 54, 0
2, 41350, Note_on_c, 0, 78, 0
2, 41350, Note_on_c, 0, 77, 63
2, 41375, Note_on_c, 0, 77, 0
2, 41379, Control_c, 0, 64, 0
2, 41388, Note_on_c, 0, 63, 32
2, 41388, Note_on_c, 0, 54, 29
2, 41397, Note_on_c, 0, 75, 45
2, 41399, Note_on_c, 0, 59, 25
2, 41401, Note_on_c, 0, 58, 25
2, 41410, Control_c, 0, 64, 127
2, 41424, Note_on_c, 0, 59, 0
2, 41424, Note_on_c, 0, 63, 0
2, 41444, Note_on_c, 0, 54, 0
2, 41453, Note_on_c, 0, 75, 0
2, 41453, Note_on_c, 0, 58, 0
2, 41464, Note_on_c, 0, 73, 51
2, 41470, Note_on_c, 0, 63, 61
2, 41472, Note_on_c, 0, 59, 53
2, 41474, Note_on_c, 0, 58, 25
2, 41482, Control_c, 0, 64, 0
2, 41499, Note_on_c, 0, 63, 0
2, 41503, Note_on_c, 0, 59, 0
2, 41507, Note_on_c, 0, 73, 0
2, 41509, Note_on_c, 0, 58, 0
2, 41511, Control_c, 0, 64, 127
2, 41517, Note_on_c, 0, 71, 44
2, 41563, Note_on_c, 0, 71, 0
2, 41582, Note_on_c, 0, 54, 58
2, 41583, Note_on_c, 0, 70, 57
2, 41583, Note_on_c, 0, 44, 55
2, 41603, Note_on_c, 0, 70, 0
2, 41603, Control_c, 0, 64, 0
2, 41631, Control_c, 0, 64, 127
2, 41639, Note_on_c, 0, 54, 0
2, 41654, Note_on_c, 0, 44, 0
2, 41709, Note_on_c, 0, 43, 24
2, 41711, Note_on_c, 0, 58, 68
2, 41711, Note_on_c, 0, 69, 74
2, 41713, Note_on_c, 0, 62, 63
2, 41716, Note_on_c, 0, 53, 68
2, 41717, Note_on_c, 0, 65, 54
2, 41718, Control_c, 0, 64, 0
2, 41730, Note_on_c, 0, 43, 0
2, 41746, Note_on_c, 0, 53, 0
2, 41764, Control_c, 0, 64, 127
2, 41832, Note_on_c, 0, 57, 69
2, 41864, Note_on_c, 0, 57, 0
2, 41865, Control_c, 0, 64, 0
2, 41881, Note_on_c, 0, 56, 33
2, 41936, Note_on_c, 0, 65, 0
2, 41944, Control_c, 0, 64, 127
2, 41946, Note_on_c, 0, 62, 0
2, 41952, Note_on_c, 0, 69, 0
2, 41956, Note_on_c, 0, 54, 37
2, 41961, Note_on_c, 0, 58, 0
2, 41975, Note_on_c, 0, 56, 0
2, 41976, Control_c, 0, 64, 0
2, 41988, Note_on_c, 0, 54, 0
2, 41994, Note_on_c, 0, 58, 47
2, 41999, Note_on_c, 0, 55, 44
2, 42002, Note_on_c, 0, 61, 33
2, 42003, Note_on_c, 0, 64, 38
2, 42003, Note_on_c, 0, 67, 36
2, 42021, Control_c, 0, 64, 127
2, 42035, Note_on_c, 0, 67, 0
2, 42052, Note_on_c, 0, 64, 0
2, 42060, Note_on_c, 0, 61, 0
2, 42070, Note_on_c, 0, 55, 0
2, 42071, Note_on_c, 0, 58, 0
2, 42080, Note_on_c, 0, 51, 40
2, 42099, Note_on_c, 0, 51, 0
2, 42113, Control_c, 0, 64, 0
2, 42118, Note_on_c, 0, 58, 38
2, 42121, Note_on_c, 0, 61, 38
2, 42123, Note_on_c, 0, 66, 36
2, 42124, Note_on_c, 0, 52, 43
2, 42130, Note_on_c, 0, 63, 21
2, 42151, Control_c, 0, 64, 127
2, 42178, Note_on_c, 0, 58, 0
2, 42190, Note_on_c, 0, 61, 0
2, 42191, Note_on_c, 0, 66, 0
2, 42198, Note_on_c, 0, 63, 0
2, 42224, Note_on_c, 0, 52, 0
2, 42224, Control_c, 0, 64, 0
2, 42237, Note_on_c, 0, 53, 35
2, 42239, Note_on_c, 0, 65, 38
2, 42241, Note_on_c, 0, 60, 44
2, 42243, Note_on_c, 0, 57, 32
2, 42245, Note_on_c, 0, 62, 28
2, 42274, Control_c, 0, 64, 127
2, 42314, Note_on_c, 0, 57, 0
2, 42315, Note_on_c, 0, 60, 0
2, 42317, Note_on_c, 0, 53, 0
2, 42320, Note_on_c, 0, 65, 0
2, 42321, Note_on_c, 0, 62, 0
2, 42325, Note_on_c, 0, 52, 30
2, 42346, Control_c, 0, 64, 0
2, 42350, Note_on_c, 0, 52, 0
2, 42360, Note_on_c, 0, 65, 41
2, 42362, Note_on_c, 0, 57, 42
2, 42364, Note_on_c, 0, 60, 44
2, 42368, Note_on_c, 0, 53, 35
2, 42378, Control_c, 0, 64, 127
2, 42394, Note_on_c, 0, 65, 0
2, 42398, Note_on_c, 0, 53, 0
2, 42401, Note_on_c, 0, 60, 0
2, 42414, Note_on_c, 0, 57, 0
2, 42448, Note_on_c, 0, 46, 18
2, 42459, Note_on_c, 0, 46, 0
2, 42478, Note_on_c, 0, 48, 37
2, 42479, Note_on_c, 0, 52, 40
2, 42479, Control_c, 0, 64, 0
2, 42481, Note_on_c, 0, 55, 54
2, 42481, Note_on_c, 0, 60, 42
2, 42484, Note_on_c, 0, 57, 44
2, 42524, Control_c, 0, 64, 127
2, 42540, Note_on_c, 0, 60, 0
2, 42544, Note_on_c, 0, 55, 0
2, 42544, Note_on_c, 0, 57, 0
2, 42544, Note_on_c, 0, 48, 0
2, 42548, Note_on_c, 0, 52, 0
2, 42562, Note_on_c, 0, 47, 36
2, 42582, Note_on_c, 0, 47, 0
2, 42582, Control_c, 0, 64, 0
2, 42591, Note_on_c, 0, 48, 37
2, 42598, Note_on_c, 0, 60, 53
2, 42598, Note_on_c, 0, 55, 50
2, 42599, Note_on_c, 0, 52, 34
2, 42601, Control_c, 0, 64, 127
2, 42602, Note_on_c, 0, 48, 0
2, 42609, Note_on_c, 0, 52, 0
2, 42610, Note_on_c, 0, 55, 0
2, 42619, Note_on_c, 0, 60, 0
2, 42677, Note_on_c, 0, 76, 85
2, 42683, Note_on_c, 0, 47, 40
2, 42688, Control_c, 0, 64, 0
2, 42688, Note_on_c, 0, 57, 27
2, 42702, Note_on_c, 0, 76, 0
2, 42729, Control_c, 0, 64, 127
2, 42748, Control_c, 0, 64, 0
2, 42773, Note_on_c, 0, 62, 44
2, 42781, Note_on_c, 0, 57, 0
2, 42781, Note_on_c, 0, 47, 0
2, 42782, Note_on_c, 0, 62, 0
2, 42788, Note_on_c, 0, 64, 36
2, 42798, Note_on_c, 0, 64, 0
2, 42808, Note_on_c, 0, 65, 39
2, 42817, Note_on_c, 0, 65, 0
2, 42822, Note_on_c, 0, 67, 40
2, 42831, Note_on_c, 0, 67, 0
2, 42840, Note_on_c, 0, 69, 38
2, 42850, Note_on_c, 0, 69, 0
2, 42854, Note_on_c, 0, 71, 37
2, 42864, Note_on_c, 0, 71, 0
2, 42871, Note_on_c, 0, 72, 33
2, 42880, Note_on_c, 0, 72, 0
2, 42885, Control_c, 0, 64, 127
2, 42886, Note_on_c, 0, 74, 29
2, 42896, Note_on_c, 0, 74, 0
2, 42902, Note_on_c, 0, 76, 32
2, 42911, Note_on_c, 0, 76, 0
2, 42919, Note_on_c, 0, 77, 28
2, 42931, Note_on_c, 0, 77, 0
2, 42935, Note_on_c, 0, 79, 28
2, 42944, Note_on_c, 0, 79, 0
2, 42945, Note_on_c, 0, 81, 33
2, 42955, Note_on_c, 0, 83, 31
2, 42956, Note_on_c, 0, 81, 0
2, 42963, Note_on_c, 0, 67, 77
2, 42964, Note_on_c, 0, 56, 71
2, 42964, Note_on_c, 0, 62, 71
2, 42965, Control_c, 0, 64, 0
2, 42966, Note_on_c, 0, 83, 0
2, 42972, Note_on_c, 0, 88, 45
2, 43008, Control_c, 0, 64, 127
2, 43050, Note_on_c, 0, 67, 0
2, 43059, Note_on_c, 0, 88, 0
2, 43063, Control_c, 0, 64, 0
2, 43080, Note_on_c, 0, 86, 74
2, 43083, Control_c, 0, 64, 127
2, 43084, Note_on_c, 0, 65, 44
2, 43101, Note_on_c, 0, 65, 0
2, 43111, Note_on_c, 0, 62, 0
2, 43131, Note_on_c, 0, 56, 0
2, 43148, Note_on_c, 0, 86, 0
2, 43162, Note_on_c, 0, 88, 70
2, 43174, Control_c, 0, 64, 0
2, 43183, Note_on_c, 0, 57, 37
2, 43187, Note_on_c, 0, 64, 26
2, 43189, Note_on_c, 0, 60, 44
2, 43201, Control_c, 0, 64, 127
2, 43204, Note_on_c, 0, 64, 0
2, 43206, Note_on_c, 0, 60, 0
2, 43215, Note_on_c, 0, 57, 0
2, 43217, Note_on_c, 0, 89, 27
2, 43226, Note_on_c, 0, 88, 0
2, 43238, Note_on_c, 0, 89, 0
2, 43274, Note_on_c, 0, 89, 82
2, 43275, Note_on_c, 0, 77, 76
2, 43278, Note_on_c, 0, 84, 69
2, 43279, Note_on_c, 0, 85, 46
2, 43279, Note_on_c, 0, 45, 71
2, 43280, Note_on_c, 0, 55, 70
2, 43280, Control_c, 0, 64, 0
2, 43285, Note_on_c, 0, 52, 34
2, 43311, Control_c, 0, 64, 127
2, 43312, Note_on_c, 0, 52, 0
2, 43323, Note_on_c, 0, 45, 0
2, 43332, Note_on_c, 0, 85, 0
2, 43337, Note_on_c, 0, 55, 0
2, 43366, Note_on_c, 0, 77, 0
2, 43371, Note_on_c, 0, 89, 0
2, 43372, Note_on_c, 0, 84, 0
2, 43441, Control_c, 0, 64, 0
2, 43442, Note_on_c, 0, 62, 71
2, 43442, Note_on_c, 0, 56, 70
2, 43442, Note_on_c, 0, 67, 80
2, 43444, Note_on_c, 0, 91, 81
2, 43445, Note_on_c, 0, 86, 92
2, 43445, Note_on_c, 0, 79, 77
2, 43464, Note_on_c, 0, 67, 0
2, 43470, Note_on_c, 0, 86, 0
2, 43470, Note_on_c, 0, 91, 0
2, 43478, Note_on_c, 0, 79, 0
2, 43480, Note_on_c, 0, 56, 0
2, 43481, Note_on_c, 0, 62, 0
2, 43561, Note_on_c, 0, 56, 61
2, 43561, Note_on_c, 0, 62, 63
2, 43562, Note_on_c, 0, 76, 73
2, 43563, Note_on_c, 0, 67, 69
2, 43563, Note_on_c, 0, 88, 75
2, 43565, Note_on_c, 0, 84, 58
2, 43585, Note_on_c, 0, 67, 0
2, 43593, Note_on_c, 0, 88, 0
2, 43594, Note_on_c, 0, 62, 0
2, 43599, Note_on_c, 0, 84, 0
2, 43602, Note_on_c, 0, 76, 0
2, 43603, Note_on_c, 0, 56, 0
2, 43617, Control_c, 0, 64, 127
2, 43639, Control_c, 0, 64, 0
2, 43672, Control_c, 0, 64, 127
2, 43682, Note_on_c, 0, 64, 62
2, 43683, Note_on_c, 0, 74, 69
2, 43684, Note_on_c, 0, 86, 77
2, 43685, Note_on_c, 0, 55, 57
2, 43686, Note_on_c, 0, 57, 51
2, 43686, Note_on_c, 0, 60, 57
2, 43687, Note_on_c, 0, 83, 44
2, 43688, Note_on_c, 0, 79, 46
2, 43725, Note_on_c, 0, 55, 0
2, 43727, Note_on_c, 0, 79, 0
2, 43730, Note_on_c, 0, 86, 0
2, 43730, Note_on_c, 0, 74, 0
2, 43731, Note_on_c, 0, 57, 0
2, 43731, Note_on_c, 0, 64, 0
2, 43732, Note_on_c, 0, 60, 0
2, 43736, Note_on_c, 0, 83, 0
2, 43760, Note_on_c, 0, 64, 50
2, 43760, Note_on_c, 0, 55, 55
2, 43760, Note_on_c, 0, 86, 68
2, 43761, Note_on_c, 0, 57, 50
2, 43763, Note_on_c, 0, 74, 59
2, 43763, Note_on_c, 0, 83, 48
2, 43764, Note_on_c, 0, 79, 57
2, 43764, Note_on_c, 0, 60, 53
2, 43779, Note_on_c, 0, 55, 0
2, 43782, Note_on_c, 0, 64, 0
2, 43783, Note_on_c, 0, 57, 0
2, 43783, Note_on_c, 0, 79, 0
2, 43784, Note_on_c, 0, 74, 0
2, 43784, Note_on_c, 0, 60, 0
2, 43786, Note_on_c, 0, 86, 0
2, 43787, Note_on_c, 0, 83, 0
2, 43803, Note_on_c, 0, 86, 60
2, 43803, Note_on_c, 0, 64, 55
2, 43803, Note_on_c, 0, 55, 60
2, 43804, Note_on_c, 0, 74, 44
2, 43805, Note_on_c, 0, 57, 57
2, 43805, Note_on_c, 0, 60, 60
2, 43806, Note_on_c, 0, 79, 41
2, 43807, Note_on_c, 0, 83, 57
2, 43834, Note_on_c, 0, 55, 0
2, 43835, Note_on_c, 0, 74, 0
2, 43835, Note_on_c, 0, 79, 0
2, 43836, Note_on_c, 0, 64, 0
2, 43840, Note_on_c, 0, 83, 0
2, 43841, Note_on_c, 0, 86, 0
2, 43841, Note_on_c, 0, 57, 0
2, 43843, Note_on_c, 0, 60, 0
2, 43881, Note_on_c, 0, 55, 65
2, 43885, Note_on_c, 0, 86, 74
2, 43885, Note_on_c, 0, 64, 57
2, 43885, Note_on_c, 0, 74, 68
2, 43885, Note_on_c, 0, 83, 63
2, 43886, Note_on_c, 0, 60, 56
2, 43888, Note_on_c, 0, 79, 49
2, 43888, Note_on_c, 0, 57, 50
2, 43896, Note_on_c, 0, 79, 0
2, 43899, Note_on_c, 0, 57, 0
2, 43899, Note_on_c, 0, 64, 0
2, 43902, Note_on_c, 0, 55, 0
2, 43907, Note_on_c, 0, 86, 0
2, 43907, Note_on_c, 0, 74, 0
2, 43910, Note_on_c, 0, 60, 0
2, 43915, Note_on_c, 0, 83, 0
2, 43928, Control_c, 0, 64, 0
2, 43937, Note_on_c, 0, 60, 47
2, 43938, Note_on_c, 0, 54, 59
2, 43938, Note_on_c, 0, 64, 53
2, 43939, Note_on_c, 0, 86, 64
2, 43941, Note_on_c, 0, 83, 26
2, 43941, Note_on_c, 0, 80, 47
2, 43941, Note_on_c, 0, 74, 58
2, 43952, Control_c, 0, 64, 127
2, 43976, Note_on_c, 0, 64, 0
2, 43979, Note_on_c, 0, 74, 0
2, 43984, Note_on_c, 0, 54, 0
2, 43984, Note_on_c, 0, 80, 0
2, 43985, Note_on_c, 0, 86, 0
2, 43992, Note_on_c, 0, 83, 0
2, 43992, Note_on_c, 0, 60, 0
2, 44015, Control_c, 0, 64, 0
2, 44015, Note_on_c, 0, 54, 62
2, 44017, Note_on_c, 0, 86, 71
2, 44018, Note_on_c, 0, 80, 57
2, 44019, Note_on_c, 0, 64, 57
2, 44019, Note_on_c, 0, 74, 62
2, 44021, Note_on_c, 0, 83, 40
2, 44021, Note_on_c, 0, 60, 59
2, 44046, Control_c, 0, 64, 127
2, 44084, Note_on_c, 0, 86, 0
2, 44088, Note_on_c, 0, 83, 0
2, 44088, Note_on_c, 0, 60, 0
2, 44094, Note_on_c, 0, 74, 0
2, 44095, Note_on_c, 0, 80, 0
2, 44111, Note_on_c, 0, 64, 0
2, 44119, Note_on_c, 0, 54, 0
2, 44166, Control_c, 0, 64, 0
2, 44175, Note_on_c, 0, 80, 52
2, 44175, Note_on_c, 0, 85, 56
2, 44176, Note_on_c, 0, 64, 50
2, 44176, Note_on_c, 0, 59, 55
2, 44176, Note_on_c, 0, 53, 54
2, 44178, Note_on_c, 0, 73, 31
2, 44212, Note_on_c, 0, 80, 0
2, 44213, Note_on_c, 0, 64, 0
2, 44213, Note_on_c, 0, 85, 0
2, 44213, Note_on_c, 0, 73, 0
2, 44214, Note_on_c, 0, 53, 0
2, 44215, Note_on_c, 0, 59, 0
2, 44289, Note_on_c, 0, 86, 72
2, 44290, Note_on_c, 0, 53, 53
2, 44290, Note_on_c, 0, 64, 57
2, 44290, Note_on_c, 0, 59, 58
2, 44292, Note_on_c, 0, 74, 54
2, 44292, Note_on_c, 0, 81, 54
2, 44325, Note_on_c, 0, 81, 0
2, 44325, Note_on_c, 0, 86, 0
2, 44337, Note_on_c, 0, 74, 0
2, 44341, Note_on_c, 0, 59, 0
2, 44344, Note_on_c, 0, 53, 0
2, 44346, Note_on_c, 0, 64, 0
2, 44396, Control_c, 0, 64, 127
2, 44402, Note_on_c, 0, 81, 51
2, 44405, Note_on_c, 0, 53, 42
2, 44405, Note_on_c, 0, 74, 49
2, 44407, Note_on_c, 0, 69, 43
2, 44408, Note_on_c, 0, 64, 40
2, 44408, Note_on_c, 0, 77, 48
2, 44409, Note_on_c, 0, 59, 53
2, 44444, Note_on_c, 0, 64, 0
2, 44447, Note_on_c, 0, 59, 0
2, 44462, Note_on_c, 0, 77, 0
2, 44465, Note_on_c, 0, 53, 0
2, 44477, Note_on_c, 0, 69, 0
2, 44482, Note_on_c, 0, 74, 0
2, 44497, Note_on_c, 0, 81, 0
2, 44514, Note_on_c, 0, 74, 30
2, 44578, Note_on_c, 0, 74, 0
2, 44599, Note_on_c, 0, 77, 57
2, 44600, Note_on_c, 0, 48, 45
2, 44600, Note_on_c, 0, 69, 40
2, 44601, Note_on_c, 0, 47, 45
2, 44605, Control_c, 0, 64, 0
2, 44609, Note_on_c, 0, 47, 0
2, 44688, Note_on_c, 0, 77, 0
2, 44694, Note_on_c, 0, 69, 0
2, 44715, Note_on_c, 0, 36, 68
2, 44776, Control_c, 0, 64, 127
2, 44860, Note_on_c, 0, 36, 0
2, 44860, Control_c, 0, 64, 0
2, 44871, Note_on_c, 0, 62, 51
2, 44872, Note_on_c, 0, 65, 48
2, 44874, Note_on_c, 0, 58, 38
2, 44874, Note_on_c, 0, 55, 38
2, 44875, Note_on_c, 0, 53, 34
2, 44888, Note_on_c, 0, 48, 0
2, 44958, Note_on_c, 0, 48, 65
2, 44962, Note_on_c, 0, 47, 52
2, 44970, Note_on_c, 0, 47, 0
2, 45008, Note_on_c, 0, 53, 0
2, 45038, Control_c, 0, 64, 127
2, 45045, Note_on_c, 0, 55, 0
2, 45052, Note_on_c, 0, 58, 0
2, 45068, Note_on_c, 0, 65, 0
2, 45078, Note_on_c, 0, 62, 0
2, 45096, Control_c, 0, 64, 0
2, 45116, Note_on_c, 0, 57, 46
2, 45117, Note_on_c, 0, 60, 52
2, 45118, Note_on_c, 0, 65, 39
2, 45120, Note_on_c, 0, 62, 39
2, 45129, Note_on_c, 0, 48, 0
2, 45200, Note_on_c, 0, 48, 54
2, 45203, Note_on_c, 0, 47, 48
2, 45211, Note_on_c, 0, 47, 0
2, 45245, Control_c, 0, 64, 127
2, 45299, Note_on_c, 0, 60, 0
2, 45307, Note_on_c, 0, 57, 0
2, 45326, Note_on_c, 0, 65, 0
2, 45334, Note_on_c, 0, 62, 0
2, 45349, Control_c, 0, 64, 0
2, 45356, Note_on_c, 0, 65, 42
2, 45358, Note_on_c, 0, 48, 0
2, 45358, Note_on_c, 0, 56, 38
2, 45363, Note_on_c, 0, 62, 26
2, 45365, Note_on_c, 0, 59, 37
2, 45430, Note_on_c, 0, 48, 48
2, 45436, Note_on_c, 0, 47, 45
2, 45446, Note_on_c, 0, 47, 0
2, 45470, Note_on_c, 0, 56, 0
2, 45498, Control_c, 0, 64, 127
2, 45508, Note_on_c, 0, 59, 0
2, 45530, Note_on_c, 0, 62, 0
2, 45551, Note_on_c, 0, 65, 0
2, 45577, Control_c, 0, 64, 0
2, 45589, Note_on_c, 0, 55, 44
2, 45590, Note_on_c, 0, 65, 34
2, 45591, Note_on_c, 0, 58, 29
2, 45591, Note_on_c, 0, 62, 37
2, 45604, Note_on_c, 0, 48, 0
2, 45611, Control_c, 0, 64, 127
2, 45657, Note_on_c, 0, 55, 0
2, 45673, Control_c, 0, 64, 0
2, 45674, Note_on_c, 0, 48, 32
2, 45676, Note_on_c, 0, 58, 0
2, 45678, Note_on_c, 0, 62, 0
2, 45685, Note_on_c, 0, 65, 0
2, 45686, Control_c, 0, 64, 127
2, 45689, Note_on_c, 0, 48, 0
2, 45794, Note_on_c, 0, 74, 52
2, 45796, Note_on_c, 0, 68, 42
2, 45798, Note_on_c, 0, 70, 38
2, 45799, Note_on_c, 0, 64, 30
2, 45800, Note_on_c, 0, 58, 37
2, 45806, Control_c, 0, 64, 0
2, 45811, Note_on_c, 0, 64, 0
2, 45813, Note_on_c, 0, 68, 0
2, 45817, Note_on_c, 0, 74, 0
2, 45817, Note_on_c, 0, 70, 0
2, 45820, Note_on_c, 0, 58, 0
2, 45861, Control_c, 0, 64, 127
2, 45912, Control_c, 0, 64, 0
2, 45915, Note_on_c, 0, 58, 33
2, 45916, Note_on_c, 0, 74, 43
2, 45920, Note_on_c, 0, 70, 30
2, 45921, Note_on_c, 0, 68, 27
2, 45922, Note_on_c, 0, 64, 22
2, 45953, Control_c, 0, 64, 127
2, 45987, Note_on_c, 0, 74, 0
2, 45998, Note_on_c, 0, 58, 0
2, 46002, Note_on_c, 0, 64, 0
2, 46019, Note_on_c, 0, 70, 0
2, 46021, Note_on_c, 0, 68, 0
2, 46071, Control_c, 0, 64, 0
2, 46080, Note_on_c, 0, 65, 53
2, 46080, Note_on_c, 0, 55, 44
2, 46081, Note_on_c, 0, 77, 84
2, 46083, Note_on_c, 0, 60, 47
2, 46090, Note_on_c, 0, 55, 0
2, 46102, Note_on_c, 0, 77, 0
2, 46168, Note_on_c, 0, 60, 0
2, 46175, Note_on_c, 0, 65, 0
2, 46207, Note_on_c, 0, 77, 72
2, 46228, Note_on_c, 0, 77, 0
2, 46327, Note_on_c, 0, 74, 64
2, 46327, Note_on_c, 0, 67, 39
2, 46330, Note_on_c, 0, 57, 38
2, 46332, Note_on_c, 0, 62, 35
2, 46344, Note_on_c, 0, 62, 0
2, 46346, Note_on_c, 0, 67, 0
2, 46350, Note_on_c, 0, 57, 0
2, 46405, Note_on_c, 0, 74, 0
2, 46416, Note_on_c, 0, 72, 18
2, 46433, Note_on_c, 0, 72, 0
2, 46448, Note_on_c, 0, 74, 53
2, 46476, Control_c, 0, 64, 127
2, 46542, Control_c, 0, 64, 0
2, 46548, Note_on_c, 0, 74, 0
2, 46559, Note_on_c, 0, 76, 53
2, 46562, Note_on_c, 0, 56, 28
2, 46563, Note_on_c, 0, 67, 28
2, 46565, Note_on_c, 0, 62, 44
2, 46703, Control_c, 0, 64, 127
2, 46723, Note_on_c, 0, 56, 0
2, 46728, Note_on_c, 0, 62, 0
2, 46732, Note_on_c, 0, 67, 0
2, 46919, Control_c, 0, 64, 0
2, 46920, Note_on_c, 0, 64, 42
2, 46933, Note_on_c, 0, 64, 0
2, 47001, Note_on_c, 0, 64, 44
2, 47005, Note_on_c, 0, 60, 54
2, 47006, Note_on_c, 0, 58, 30
2, 47016, Note_on_c, 0, 60, 0
2, 47017, Note_on_c, 0, 58, 0
2, 47018, Note_on_c, 0, 64, 0
2, 47043, Note_on_c, 0, 57, 35
2, 47045, Note_on_c, 0, 65, 36
2, 47046, Note_on_c, 0, 60, 36
2, 47082, Note_on_c, 0, 76, 0
2, 47121, Note_on_c, 0, 65, 0
2, 47159, Note_on_c, 0, 60, 0
2, 47159, Note_on_c, 0, 77, 79
2, 47160, Note_on_c, 0, 65, 84
2, 47176, Note_on_c, 0, 65, 0
2, 47177, Note_on_c, 0, 57, 0
2, 47184, Note_on_c, 0, 77, 0
2, 47236, Control_c, 0, 64, 127
2, 47240, Note_on_c, 0, 65, 67
2, 47240, Note_on_c, 0, 77, 66
2, 47250, Note_on_c, 0, 65, 0
2, 47256, Note_on_c, 0, 77, 0
2, 47264, Control_c, 0, 64, 0
2, 47281, Note_on_c, 0, 56, 36
2, 47282, Note_on_c, 0, 65, 34
2, 47285, Note_on_c, 0, 75, 55
2, 47285, Note_on_c, 0, 79, 60
2, 47287, Note_on_c, 0, 62, 43
2, 47334, Note_on_c, 0, 76, 60
2, 47337, Note_on_c, 0, 75, 0
2, 47349, Note_on_c, 0, 79, 0
2, 47351, Note_on_c, 0, 76, 0
2, 47363, Note_on_c, 0, 65, 0
2, 47367, Note_on_c, 0, 62, 0
2, 47391, Note_on_c, 0, 56, 0
2, 47399, Control_c, 0, 64, 127
2, 47491, Control_c, 0, 64, 0
2, 47492, Note_on_c, 0, 62, 54
2, 47496, Note_on_c, 0, 58, 30
2, 47502, Note_on_c, 0, 62, 0
2, 47505, Note_on_c, 0, 58, 0
2, 47602, Note_on_c, 0, 76, 74
2, 47611, Note_on_c, 0, 62, 47
2, 47614, Note_on_c, 0, 57, 33
2, 47616, Note_on_c, 0, 58, 25
2, 47621, Note_on_c, 0, 62, 0
2, 47625, Note_on_c, 0, 57, 0
2, 47626, Note_on_c, 0, 58, 0
2, 47627, Note_on_c, 0, 76, 0
2, 47657, Note_on_c, 0, 74, 50
2, 47716, Note_on_c, 0, 74, 0
2, 47725, Note_on_c, 0, 65, 52
2, 47731, Note_on_c, 0, 62, 39
2, 47732, Note_on_c, 0, 58, 32
2, 47740, Note_on_c, 0, 62, 0
2, 47742, Note_on_c, 0, 58, 0
2, 47851, Note_on_c, 0, 58, 32
2, 47862, Note_on_c, 0, 58, 0
2, 47865, Note_on_c, 0, 65, 0
2, 47881, Note_on_c, 0, 64, 44
2, 47963, Note_on_c, 0, 64, 0
2, 47964, Note_on_c, 0, 63, 62
2, 47993, Note_on_c, 0, 63, 0
2, 48015, Note_on_c, 0, 62, 34
2, 48076, Note_on_c, 0, 62, 0
2, 48084, Note_on_c, 0, 60, 36
2, 48111, Note_on_c, 0, 60, 0
2, 48134, Note_on_c, 0, 57, 15
2, 48212, Note_on_c, 0, 57, 0
2, 48247, Note_on_c, 0, 60, 38
2, 48328, Note_on_c, 0, 62, 55
2, 48331, Note_on_c, 0, 60, 0
2, 48334, Note_on_c, 0, 56, 25
2, 48337, Note_on_c, 0, 46, 23
2, 48347, Note_on_c, 0, 56, 0
2, 48353, Note_on_c, 0, 46, 0
2, 48363, Note_on_c, 0, 62, 0
2, 48373, Note_on_c, 0, 60, 25
2, 48444, Note_on_c, 0, 60, 0
2, 48487, Note_on_c, 0, 45, 32
2, 48487, Note_on_c, 0, 53, 18
2, 48488, Note_on_c, 0, 60, 37
2, 48521, Note_on_c, 0, 53, 0
2, 48525, Note_on_c, 0, 45, 0
2, 48537, Note_on_c, 0, 60, 0
2, 48620, Control_c, 0, 64, 127
2, 48712, Control_c, 0, 64, 0
2, 48725, Note_on_c, 0, 54, 34
2, 48727, Note_on_c, 0, 60, 33
2, 48728, Note_on_c, 0, 65, 50
2, 48731, Note_on_c, 0, 50, 24
2, 48762, Note_on_c, 0, 65, 0
2, 48766, Note_on_c, 0, 66, 42
2, 48776, Note_on_c, 0, 66, 0
2, 48794, Note_on_c, 0, 71, 62
2, 48825, Note_on_c, 0, 71, 0
2, 48830, Note_on_c, 0, 77, 67
2, 48834, Note_on_c, 0, 50, 0
2, 48840, Note_on_c, 0, 54, 0
2, 48845, Note_on_c, 0, 60, 0
2, 48860, Note_on_c, 0, 82, 60
2, 48862, Note_on_c, 0, 77, 0
2, 48891, Note_on_c, 0, 82, 0
2, 48897, Note_on_c, 0, 84, 80
2, 48922, Note_on_c, 0, 84, 0
2, 48929, Note_on_c, 0, 82, 62
2, 48960, Note_on_c, 0, 62, 22
2, 48961, Note_on_c, 0, 82, 0
2, 48962, Note_on_c, 0, 78, 37
2, 48965, Note_on_c, 0, 58, 25
2, 48968, Note_on_c, 0, 57, 22
2, 48988, Note_on_c, 0, 78, 0
2, 48996, Note_on_c, 0, 81, 60
2, 49026, Note_on_c, 0, 81, 0
2, 49033, Note_on_c, 0, 78, 27
2, 49051, Note_on_c, 0, 78, 0
2, 49061, Note_on_c, 0, 79, 51
2, 49083, Note_on_c, 0, 58, 0
2, 49087, Note_on_c, 0, 79, 0
2, 49090, Note_on_c, 0, 57, 0
2, 49091, Note_on_c, 0, 62, 0
2, 49094, Note_on_c, 0, 74, 36
2, 49117, Note_on_c, 0, 74, 0
2, 49128, Note_on_c, 0, 77, 51
2, 49167, Note_on_c, 0, 77, 0
2, 49326, Note_on_c, 0, 62, 37
2, 49330, Note_on_c, 0, 58, 30
2, 49330, Note_on_c, 0, 57, 32
2, 49351, Note_on_c, 0, 62, 0
2, 49352, Note_on_c, 0, 57, 0
2, 49356, Note_on_c, 0, 58, 0
2, 49463, Control_c, 0, 64, 127
2, 49497, Control_c, 0, 64, 0
2, 49507, Control_c, 0, 64, 127
2, 49649, Note_on_c, 0, 58, 26
2, 49662, Note_on_c, 0, 58, 0
2, 49671, Control_c, 0, 64, 0
2, 49711, Note_on_c, 0, 69, 49
2, 49734, Note_on_c, 0, 69, 0
2, 49744, Note_on_c, 0, 72, 76
2, 49779, Note_on_c, 0, 71, 68
2, 49782, Note_on_c, 0, 72, 0
2, 49804, Note_on_c, 0, 71, 0
2, 49809, Note_on_c, 0, 69, 54
2, 49831, Note_on_c, 0, 69, 0
2, 49842, Note_on_c, 0, 70, 60
2, 49855, Note_on_c, 0, 70, 0
2, 49871, Note_on_c, 0, 74, 66
2, 49893, Note_on_c, 0, 74, 0
2, 49899, Note_on_c, 0, 77, 62
2, 49924, Note_on_c, 0, 77, 0
2, 49929, Note_on_c, 0, 81, 55
2, 49958, Note_on_c, 0, 81, 0
2, 49963, Note_on_c, 0, 84, 75
2, 49990, Note_on_c, 0, 84, 0
2, 49994, Note_on_c, 0, 82, 37
2, 50026, Note_on_c, 0, 82, 0
2, 50029, Note_on_c, 0, 78, 35
2, 50043, Note_on_c, 0, 78, 0
2, 50051, Note_on_c, 0, 81, 56
2, 50084, Note_on_c, 0, 81, 0
2, 50087, Note_on_c, 0, 78, 37
2, 50106, Note_on_c, 0, 78, 0
2, 50114, Note_on_c, 0, 79, 52
2, 50142, Note_on_c, 0, 79, 0
2, 50157, Note_on_c, 0, 74, 39
2, 50171, Note_on_c, 0, 74, 0
2, 50248, Note_on_c, 0, 62, 41
2, 50254, Note_on_c, 0, 55, 36
2, 50254, Note_on_c, 0, 57, 24
2, 50255, Note_on_c, 0, 58, 25
2, 50263, Note_on_c, 0, 57, 0
2, 50265, Note_on_c, 0, 55, 0
2, 50266, Note_on_c, 0, 62, 0
2, 50266, Note_on_c, 0, 58, 0
2, 50353, Control_c, 0, 64, 127
2, 50399, Control_c, 0, 64, 0
2, 50491, Note_on_c, 0, 64, 29
2, 50491, Note_on_c, 0, 60, 34
2, 50492, Note_on_c, 0, 54, 29
2, 50599, Note_on_c, 0, 64, 0
2, 50612, Note_on_c, 0, 54, 0
2, 50618, Note_on_c, 0, 60, 0
2, 50641, Note_on_c, 0, 62, 34
2, 50642, Note_on_c, 0, 54, 26
2, 50644, Note_on_c, 0, 60, 34
2, 50674, Note_on_c, 0, 60, 0
2, 50677, Note_on_c, 0, 54, 0
2, 50678, Note_on_c, 0, 62, 0
2, 50753, Note_on_c, 0, 54, 32
2, 50758, Note_on_c, 0, 62, 26
2, 50806, Note_on_c, 0, 62, 0
2, 50817, Note_on_c, 0, 54, 0
2, 50847, Note_on_c, 0, 72, 77
2, 50849, Note_on_c, 0, 62, 44
2, 50851, Note_on_c, 0, 58, 31
2, 50855, Note_on_c, 0, 55, 26
2, 50881, Note_on_c, 0, 72, 0
2, 50890, Note_on_c, 0, 69, 44
2, 50922, Note_on_c, 0, 69, 0
2, 50930, Note_on_c, 0, 70, 55
2, 50941, Note_on_c, 0, 62, 0
2, 50950, Note_on_c, 0, 58, 0
2, 50960, Note_on_c, 0, 70, 0
2, 50967, Note_on_c, 0, 66, 40
2, 50972, Note_on_c, 0, 62, 28
2, 50976, Note_on_c, 0, 58, 20
2, 50996, Note_on_c, 0, 62, 0
2, 51001, Note_on_c, 0, 66, 0
2, 51007, Note_on_c, 0, 69, 56
2, 51013, Note_on_c, 0, 58, 0
2, 51041, Note_on_c, 0, 69, 0
2, 51047, Note_on_c, 0, 67, 55
2, 51050, Note_on_c, 0, 55, 0
2, 51078, Note_on_c, 0, 67, 0
2, 51088, Note_on_c, 0, 64, 45
2, 51088, Note_on_c, 0, 62, 33
2, 51092, Note_on_c, 0, 58, 25
2, 51100, Note_on_c, 0, 62, 0
2, 51110, Note_on_c, 0, 58, 0
2, 51136, Note_on_c, 0, 64, 0
2, 51320, Note_on_c, 0, 61, 44
2, 51321, Note_on_c, 0, 55, 58
2, 51323, Note_on_c, 0, 60, 53
2, 51324, Note_on_c, 0, 65, 34
2, 51413, Note_on_c, 0, 69, 63
2, 51434, Note_on_c, 0, 69, 0
2, 51449, Note_on_c, 0, 70, 53
2, 51472, Note_on_c, 0, 70, 0
2, 51486, Note_on_c, 0, 72, 39
2, 51488, Note_on_c, 0, 65, 0
2, 51496, Note_on_c, 0, 60, 0
2, 51508, Note_on_c, 0, 61, 0
2, 51508, Note_on_c, 0, 55, 0
2, 51509, Note_on_c, 0, 72, 0
2, 51525, Note_on_c, 0, 74, 55
2, 51540, Note_on_c, 0, 74, 0
2, 51561, Note_on_c, 0, 75, 56
2, 51576, Note_on_c, 0, 75, 0
2, 51682, Note_on_c, 0, 64, 42
2, 51682, Note_on_c, 0, 54, 37
2, 51685, Note_on_c, 0, 60, 36
2, 51691, Note_on_c, 0, 64, 0
2, 51694, Note_on_c, 0, 60, 0
2, 51702, Note_on_c, 0, 54, 0
2, 51765, Note_on_c, 0, 75, 44
2, 51781, Note_on_c, 0, 75, 0
2, 51801, Control_c, 0, 64, 127
2, 51802, Note_on_c, 0, 79, 60
2, 51802, Note_on_c, 0, 54, 47
2, 51804, Note_on_c, 0, 60, 46
2, 51804, Note_on_c, 0, 64, 30
2, 51813, Note_on_c, 0, 60, 0
2, 51815, Note_on_c, 0, 64, 0
2, 51822, Note_on_c, 0, 79, 0
2, 51827, Control_c, 0, 64, 0
2, 51829, Note_on_c, 0, 54, 0
2, 51843, Note_on_c, 0, 84, 74
2, 51845, Note_on_c, 0, 64, 57
2, 51847, Note_on_c, 0, 59, 54
2, 51848, Note_on_c, 0, 53, 45
2, 51931, Note_on_c, 0, 59, 0
2, 51932, Note_on_c, 0, 64, 0
2, 51933, Note_on_c, 0, 53, 0
2, 51942, Note_on_c, 0, 84, 0
2, 51967, Note_on_c, 0, 81, 48
2, 51970, Note_on_c, 0, 64, 22
2, 51971, Note_on_c, 0, 59, 36
2, 51974, Note_on_c, 0, 53, 27
2, 52007, Note_on_c, 0, 59, 0
2, 52014, Note_on_c, 0, 53, 0
2, 52016, Note_on_c, 0, 64, 0
2, 52018, Note_on_c, 0, 81, 0
2, 52090, Control_c, 0, 64, 127
2, 52168, Note_on_c, 0, 59, 43
2, 52168, Note_on_c, 0, 64, 30
2, 52169, Note_on_c, 0, 53, 34
2, 52184, Note_on_c, 0, 64, 0
2, 52192, Control_c, 0, 64, 0
2, 52193, Note_on_c, 0, 59, 0
2, 52209, Note_on_c, 0, 72, 24
2, 52229, Note_on_c, 0, 53, 0
2, 52236, Note_on_c, 0, 72, 0
2, 52238, Note_on_c, 0, 76, 50
2, 52257, Note_on_c, 0, 76, 0
2, 52269, Note_on_c, 0, 79, 64
2, 52294, Note_on_c, 0, 79, 0
2, 52300, Note_on_c, 0, 78, 36
2, 52319, Note_on_c, 0, 78, 0
2, 52325, Note_on_c, 0, 76, 41
2, 52349, Note_on_c, 0, 76, 0
2, 52358, Note_on_c, 0, 77, 59
2, 52381, Note_on_c, 0, 77, 0
2, 52387, Note_on_c, 0, 81, 47
2, 52410, Note_on_c, 0, 81, 0
2, 52413, Note_on_c, 0, 84, 61
2, 52417, Note_on_c, 0, 59, 10
2, 52427, Note_on_c, 0, 84, 0
2, 52442, Note_on_c, 0, 88, 57
2, 52453, Note_on_c, 0, 59, 0
2, 52466, Note_on_c, 0, 88, 0
2, 52474, Note_on_c, 0, 91, 80
2, 52500, Note_on_c, 0, 89, 58
2, 52504, Note_on_c, 0, 91, 0
2, 52527, Note_on_c, 0, 89, 0
2, 52537, Note_on_c, 0, 85, 42
2, 52552, Note_on_c, 0, 85, 0
2, 52565, Note_on_c, 0, 88, 70
2, 52596, Note_on_c, 0, 88, 0
2, 52599, Note_on_c, 0, 85, 39
2, 52612, Note_on_c, 0, 85, 0
2, 52628, Note_on_c, 0, 86, 77
2, 52657, Note_on_c, 0, 86, 0
2, 52664, Note_on_c, 0, 81, 41
2, 52673, Note_on_c, 0, 81, 0
2, 52695, Note_on_c, 0, 84, 41
2, 52715, Note_on_c, 0, 84, 0
2, 52728, Note_on_c, 0, 86, 72
2, 52743, Note_on_c, 0, 86, 0
2, 52756, Note_on_c, 0, 87, 68
2, 52786, Note_on_c, 0, 87, 0
2, 52791, Note_on_c, 0, 88, 58
2, 52798, Note_on_c, 0, 62, 28
2, 52798, Note_on_c, 0, 58, 32
2, 52803, Note_on_c, 0, 57, 27
2, 52813, Note_on_c, 0, 88, 0
2, 52815, Note_on_c, 0, 57, 0
2, 52818, Note_on_c, 0, 58, 0
2, 52818, Note_on_c, 0, 62, 0
2, 52825, Note_on_c, 0, 89, 59
2, 52825, Note_on_c, 0, 77, 56
2, 52827, Note_on_c, 0, 62, 29
2, 52829, Note_on_c, 0, 57, 19
2, 52831, Note_on_c, 0, 58, 30
2, 52876, Note_on_c, 0, 58, 0
2, 52878, Note_on_c, 0, 89, 0
2, 52879, Note_on_c, 0, 62, 0
2, 52882, Note_on_c, 0, 77, 0
2, 52883, Note_on_c, 0, 57, 0
2, 52918, Note_on_c, 0, 89, 58
2, 52920, Note_on_c, 0, 62, 36
2, 52921, Note_on_c, 0, 77, 39
2, 52924, Note_on_c, 0, 57, 31
2, 52924, Note_on_c, 0, 58, 36
2, 52967, Note_on_c, 0, 57, 0
2, 52969, Note_on_c, 0, 62, 0
2, 52971, Note_on_c, 0, 58, 0
2, 52974, Note_on_c, 0, 89, 0
2, 52976, Note_on_c, 0, 77, 0
2, 53000, Note_on_c, 0, 77, 41
2, 53000, Note_on_c, 0, 89, 42
2, 53003, Note_on_c, 0, 62, 33
2, 53007, Note_on_c, 0, 58, 27
2, 53011, Note_on_c, 0, 57, 22
2, 53022, Note_on_c, 0, 57, 0
2, 53022, Note_on_c, 0, 89, 0
2, 53025, Note_on_c, 0, 62, 0
2, 53029, Note_on_c, 0, 58, 0
2, 53032, Note_on_c, 0, 77, 0
2, 53047, Note_on_c, 0, 62, 24
2, 53047, Note_on_c, 0, 77, 30
2, 53047, Note_on_c, 0, 89, 47
2, 53047, Control_c, 0, 64, 127
2, 53052, Note_on_c, 0, 58, 18
2, 53076, Note_on_c, 0, 62, 0
2, 53079, Note_on_c, 0, 58, 0
2, 53095, Note_on_c, 0, 77, 0
2, 53102, Note_on_c, 0, 89, 0
2, 53118, Note_on_c, 0, 86, 66
2, 53121, Note_on_c, 0, 62, 37
2, 53125, Note_on_c, 0, 58, 29
2, 53143, Control_c, 0, 64, 0
2, 53144, Note_on_c, 0, 62, 0
2, 53145, Note_on_c, 0, 86, 0
2, 53148, Note_on_c, 0, 58, 0
2, 53172, Note_on_c, 0, 82, 19
2, 53252, Note_on_c, 0, 82, 0
2, 53285, Note_on_c, 0, 86, 62
2, 53293, Note_on_c, 0, 62, 24
2, 53312, Note_on_c, 0, 62, 0
2, 53382, Note_on_c, 0, 86, 0
2, 53408, Note_on_c, 0, 85, 60
2, 53473, Note_on_c, 0, 85, 0
2, 53488, Note_on_c, 0, 84, 51
2, 53490, Note_on_c, 0, 62, 33
2, 53493, Note_on_c, 0, 58, 25
2, 53503, Note_on_c, 0, 62, 0
2, 53509, Note_on_c, 0, 58, 0
2, 53696, Note_on_c, 0, 84, 0
2, 53696, Note_on_c, 0, 83, 64
2, 53724, Note_on_c, 0, 83, 0
2, 53735, Note_on_c, 0, 82, 52
2, 53759, Note_on_c, 0, 63, 18
2, 53761, Note_on_c, 0, 57, 19
2, 53764, Note_on_c, 0, 82, 0
2, 53765, Note_on_c, 0, 65, 6
2, 53778, Note_on_c, 0, 81, 49
2, 53833, Note_on_c, 0, 81, 0
2, 53891, Note_on_c, 0, 80, 58
2, 53903, Note_on_c, 0, 65, 0
2, 53907, Note_on_c, 0, 57, 0
2, 53921, Note_on_c, 0, 80, 0
2, 53925, Note_on_c, 0, 63, 0
2, 53928, Note_on_c, 0, 82, 60
2, 53963, Note_on_c, 0, 80, 37
2, 53965, Note_on_c, 0, 82, 0
2, 53993, Note_on_c, 0, 80, 0
2, 54005, Note_on_c, 0, 81, 53
2, 54037, Note_on_c, 0, 81, 0
2, 54038, Note_on_c, 0, 76, 57
2, 54074, Note_on_c, 0, 76, 0
2, 54125, Note_on_c, 0, 72, 37
2, 54181, Note_on_c, 0, 72, 0
2, 54201, Note_on_c, 0, 69, 47
2, 54449, Note_on_c, 0, 62, 31
2, 54450, Note_on_c, 0, 59, 31
2, 54455, Note_on_c, 0, 56, 17
2, 54461, Note_on_c, 0, 62, 0
2, 54461, Note_on_c, 0, 69, 0
2, 54465, Note_on_c, 0, 56, 0
2, 54468, Note_on_c, 0, 59, 0
2, 54532, Note_on_c, 0, 67, 51
2, 54545, Note_on_c, 0, 67, 0
2, 54568, Note_on_c, 0, 68, 59
2, 54601, Note_on_c, 0, 68, 0
2, 54612, Note_on_c, 0, 70, 37
2, 54634, Note_on_c, 0, 70, 0
2, 54645, Note_on_c, 0, 71, 44
2, 54673, Note_on_c, 0, 71, 0
2, 54685, Note_on_c, 0, 72, 53
2, 54713, Note_on_c, 0, 72, 0
2, 54731, Note_on_c, 0, 74, 49
2, 54750, Note_on_c, 0, 74, 0
2, 54768, Note_on_c, 0, 75, 47
2, 54789, Note_on_c, 0, 75, 0
2, 54807, Note_on_c, 0, 76, 58
2, 54831, Note_on_c, 0, 76, 0
2, 54848, Note_on_c, 0, 67, 51
2, 54849, Note_on_c, 0, 79, 62
2, 54914, Note_on_c, 0, 67, 0
2, 54915, Note_on_c, 0, 79, 0
2, 54966, Note_on_c, 0, 79, 60
2, 54970, Note_on_c, 0, 67, 44
2, 55027, Note_on_c, 0, 67, 0
2, 55027, Note_on_c, 0, 79, 0
2, 55042, Note_on_c, 0, 64, 40
2, 55042, Note_on_c, 0, 76, 50
2, 55045, Note_on_c, 0, 60, 36
2, 55052, Note_on_c, 0, 64, 0
2, 55054, Note_on_c, 0, 60, 0
2, 55086, Note_on_c, 0, 72, 26
2, 55098, Note_on_c, 0, 76, 0
2, 55143, Control_c, 0, 64, 127
2, 55150, Note_on_c, 0, 72, 0
2, 55160, Note_on_c, 0, 78, 58
2, 55163, Note_on_c, 0, 66, 50
2, 55163, Control_c, 0, 64, 0
2, 55164, Note_on_c, 0, 63, 42
2, 55167, Note_on_c, 0, 54, 29
2, 55172, Note_on_c, 0, 63, 0
2, 55185, Note_on_c, 0, 54, 0
2, 55281, Note_on_c, 0, 66, 0
2, 55286, Note_on_c, 0, 78, 0
2, 55341, Control_c, 0, 64, 127
2, 55437, Control_c, 0, 64, 0
2, 55443, Note_on_c, 0, 54, 38
2, 55444, Note_on_c, 0, 60, 40
2, 55454, Note_on_c, 0, 60, 0
2, 55471, Note_on_c, 0, 54, 0
2, 55487, Note_on_c, 0, 69, 67
2, 55511, Note_on_c, 0, 69, 0
2, 55528, Note_on_c, 0, 72, 87
2, 55569, Note_on_c, 0, 72, 0
2, 55613, Note_on_c, 0, 66, 60
2, 55642, Note_on_c, 0, 66, 0
2, 55650, Note_on_c, 0, 69, 71
2, 55677, Note_on_c, 0, 69, 0
2, 55693, Note_on_c, 0, 68, 51
2, 55744, Note_on_c, 0, 68, 0
2, 55762, Note_on_c, 0, 65, 55
2, 55766, Note_on_c, 0, 56, 25
2, 55785, Note_on_c, 0, 56, 0
2, 55788, Note_on_c, 0, 65, 0
2, 55804, Note_on_c, 0, 62, 36
2, 55856, Note_on_c, 0, 62, 0
2, 55877, Note_on_c, 0, 59, 50
2, 55906, Note_on_c, 0, 59, 0
2, 55924, Note_on_c, 0, 56, 20
2, 55984, Note_on_c, 0, 56, 0
2, 56006, Note_on_c, 0, 53, 26
2, 56019, Note_on_c, 0, 53, 0
2, 56069, Control_c, 0, 64, 127
2, 56145, Control_c, 0, 64, 0
2, 56206, Note_on_c, 0, 77, 67
2, 56232, Note_on_c, 0, 77, 0
2, 56242, Note_on_c, 0, 76, 74
2, 56250, Note_on_c, 0, 64, 24
2, 56258, Note_on_c, 0, 64, 0
2, 56277, Note_on_c, 0, 76, 0
2, 56283, Note_on_c, 0, 72, 48
2, 56304, Note_on_c, 0, 72, 0
2, 56322, Note_on_c, 0, 67, 32
2, 56343, Note_on_c, 0, 67, 0
2, 56359, Note_on_c, 0, 65, 47
2, 56393, Note_on_c, 0, 65, 0
2, 56405, Note_on_c, 0, 64, 46
2, 56484, Control_c, 0, 64, 127
2, 56506, Note_on_c, 0, 64, 0
2, 56508, Control_c, 0, 64, 0
2, 56526, Note_on_c, 0, 63, 35
2, 56527, Note_on_c, 0, 54, 33
2, 56528, Note_on_c, 0, 60, 48
2, 56581, Note_on_c, 0, 60, 0
2, 56585, Control_c, 0, 64, 127
2, 56614, Note_on_c, 0, 63, 0
2, 56620, Note_on_c, 0, 54, 0
2, 56637, Control_c, 0, 64, 0
2, 56650, Note_on_c, 0, 53, 26
2, 56653, Note_on_c, 0, 62, 22
2, 56653, Note_on_c, 0, 58, 30
2, 56708, Note_on_c, 0, 58, 0
2, 56750, Note_on_c, 0, 62, 0
2, 56760, Note_on_c, 0, 74, 95
2, 56787, Note_on_c, 0, 53, 0
2, 56843, Note_on_c, 0, 74, 0
2, 56846, Note_on_c, 0, 73, 25
2, 56852, Note_on_c, 0, 58, 19
2, 56866, Note_on_c, 0, 73, 0
2, 56871, Note_on_c, 0, 58, 0
2, 56883, Note_on_c, 0, 74, 53
2, 56889, Control_c, 0, 64, 127
2, 56940, Note_on_c, 0, 74, 0
2, 56967, Note_on_c, 0, 77, 55
2, 56968, Note_on_c, 0, 65, 39
2, 56968, Note_on_c, 0, 79, 49
2, 56970, Control_c, 0, 64, 0
2, 56972, Note_on_c, 0, 62, 40
2, 56975, Note_on_c, 0, 58, 23
2, 56983, Note_on_c, 0, 62, 0
2, 56995, Note_on_c, 0, 79, 0
2, 56997, Note_on_c, 0, 58, 0
2, 57018, Control_c, 0, 64, 127
2, 57118, Control_c, 0, 64, 0
2, 57120, Note_on_c, 0, 65, 0
2, 57124, Note_on_c, 0, 62, 37
2, 57127, Note_on_c, 0, 58, 33
2, 57129, Note_on_c, 0, 57, 29
2, 57132, Note_on_c, 0, 52, 36
2, 57150, Note_on_c, 0, 77, 0
2, 57298, Note_on_c, 0, 65, 40
2, 57324, Note_on_c, 0, 65, 0
2, 57329, Note_on_c, 0, 69, 54
2, 57351, Note_on_c, 0, 69, 0
2, 57363, Note_on_c, 0, 72, 62
2, 57388, Note_on_c, 0, 72, 0
2, 57399, Note_on_c, 0, 71, 55
2, 57413, Note_on_c, 0, 62, 0
2, 57423, Note_on_c, 0, 58, 0
2, 57425, Note_on_c, 0, 71, 0
2, 57428, Note_on_c, 0, 57, 0
2, 57433, Note_on_c, 0, 69, 46
2, 57447, Note_on_c, 0, 69, 0
2, 57458, Note_on_c, 0, 70, 48
2, 57477, Note_on_c, 0, 70, 0
2, 57491, Note_on_c, 0, 74, 64
2, 57498, Note_on_c, 0, 52, 0
2, 57513, Note_on_c, 0, 74, 0
2, 57518, Note_on_c, 0, 77, 54
2, 57541, Note_on_c, 0, 77, 0
2, 57549, Note_on_c, 0, 81, 54
2, 57571, Note_on_c, 0, 81, 0
2, 57576, Note_on_c, 0, 84, 74
2, 57598, Note_on_c, 0, 84, 0
2, 57610, Note_on_c, 0, 82, 56
2, 57634, Note_on_c, 0, 82, 0
2, 57657, Note_on_c, 0, 81, 47
2, 57661, Note_on_c, 0, 79, 25
2, 57668, Note_on_c, 0, 79, 0
2, 57684, Note_on_c, 0, 81, 0
2, 57713, Note_on_c, 0, 77, 65
2, 57737, Note_on_c, 0, 77, 0
2, 57804, Note_on_c, 0, 74, 69
2, 57812, Note_on_c, 0, 62, 41
2, 57818, Note_on_c, 0, 57, 33
2, 57821, Note_on_c, 0, 62, 0
2, 57829, Note_on_c, 0, 74, 0
2, 57830, Note_on_c, 0, 57, 0
2, 57859, Note_on_c, 0, 72, 44
2, 57909, Note_on_c, 0, 72, 0
2, 57925, Note_on_c, 0, 74, 44
2, 57935, Note_on_c, 0, 72, 36
2, 57944, Note_on_c, 0, 57, 32
2, 57946, Note_on_c, 0, 74, 0
2, 57957, Note_on_c, 0, 57, 0
2, 57961, Note_on_c, 0, 72, 0
2, 57965, Note_on_c, 0, 69, 35
2, 58044, Note_on_c, 0, 69, 0
2, 58044, Note_on_c, 0, 70, 53
2, 58075, Note_on_c, 0, 70, 0
2, 58090, Note_on_c, 0, 71, 43
2, 58151, Note_on_c, 0, 71, 0
2, 58159, Note_on_c, 0, 72, 34
2, 58184, Note_on_c, 0, 72, 0
2, 58206, Note_on_c, 0, 76, 38
2, 58282, Note_on_c, 0, 79, 53
2, 58290, Note_on_c, 0, 76, 0
2, 58304, Note_on_c, 0, 79, 0
2, 58328, Note_on_c, 0, 66, 52
2, 58330, Note_on_c, 0, 57, 49
2, 58331, Note_on_c, 0, 62, 49
2, 58343, Note_on_c, 0, 57, 0
2, 58344, Note_on_c, 0, 62, 0
2, 58345, Note_on_c, 0, 66, 0
2, 58438, Note_on_c, 0, 66, 46
2, 58441, Note_on_c, 0, 62, 47
2, 58442, Note_on_c, 0, 56, 42
2, 58462, Note_on_c, 0, 62, 0
2, 58467, Note_on_c, 0, 66, 0
2, 58492, Note_on_c, 0, 56, 0
2, 58567, Note_on_c, 0, 67, 39
2, 58568, Note_on_c, 0, 76, 36
2, 58570, Note_on_c, 0, 55, 36
2, 58571, Note_on_c, 0, 57, 33
2, 58571, Note_on_c, 0, 72, 28
2, 58572, Note_on_c, 0, 60, 36
2, 58573, Note_on_c, 0, 64, 14
2, 58609, Note_on_c, 0, 67, 0
2, 58611, Note_on_c, 0, 60, 0
2, 58615, Note_on_c, 0, 64, 0
2, 58618, Note_on_c, 0, 72, 0
2, 58619, Note_on_c, 0, 55, 0
2, 58621, Note_on_c, 0, 57, 0
2, 58624, Note_on_c, 0, 76, 0
2, 58761, Note_on_c, 0, 57, 59
2, 58763, Note_on_c, 0, 69, 71
2, 58763, Note_on_c, 0, 77, 68
2, 58763, Note_on_c, 0, 72, 63
2, 58765, Note_on_c, 0, 62, 38
2, 58769, Note_on_c, 0, 65, 20
2, 58779, Note_on_c, 0, 65, 0
2, 58779, Control_c, 0, 64, 127
2, 58780, Note_on_c, 0, 69, 0
2, 58783, Note_on_c, 0, 57, 0
2, 58787, Note_on_c, 0, 72, 0
2, 58791, Note_on_c, 0, 77, 0
2, 58792, Note_on_c, 0, 62, 0
2, 58795, Control_c, 0, 64, 0
2, 58823, Note_on_c, 0, 56, 51
2, 58824, Note_on_c, 0, 67, 62
2, 58824, Note_on_c, 0, 79, 68
2, 58826, Note_on_c, 0, 72, 50
2, 58827, Note_on_c, 0, 62, 52
2, 58827, Note_on_c, 0, 76, 54
2, 58847, Control_c, 0, 64, 127
2, 58876, Note_on_c, 0, 79, 0
2, 58881, Note_on_c, 0, 72, 0
2, 58881, Note_on_c, 0, 76, 0
2, 58882, Note_on_c, 0, 67, 0
2, 58884, Note_on_c, 0, 62, 0
2, 58890, Note_on_c, 0, 56, 0
2, 58913, Control_c, 0, 64, 0
2, 58997, Note_on_c, 0, 56, 49
2, 59000, Note_on_c, 0, 62, 43
2, 59001, Note_on_c, 0, 72, 69
2, 59003, Note_on_c, 0, 76, 60
2, 59008, Control_c, 0, 64, 127
2, 59017, Note_on_c, 0, 62, 0
2, 59028, Note_on_c, 0, 56, 0
2, 59028, Note_on_c, 0, 72, 0
2, 59029, Note_on_c, 0, 76, 0
2, 59044, Control_c, 0, 64, 0
2, 59052, Note_on_c, 0, 55, 50
2, 59055, Note_on_c, 0, 64, 37
2, 59056, Note_on_c, 0, 74, 48
2, 59057, Note_on_c, 0, 67, 33
2, 59057, Note_on_c, 0, 71, 44
2, 59058, Note_on_c, 0, 57, 50
2, 59062, Note_on_c, 0, 60, 34
2, 59084, Note_on_c, 0, 60, 0
2, 59093, Note_on_c, 0, 67, 0
2, 59097, Note_on_c, 0, 64, 0
2, 59097, Note_on_c, 0, 57, 0
2, 59099, Note_on_c, 0, 55, 0
2, 59102, Note_on_c, 0, 71, 0
2, 59123, Note_on_c, 0, 74, 0
2, 59162, Control_c, 0, 64, 127
2, 59242, Control_c, 0, 64, 0
2, 59242, Note_on_c, 0, 80, 62
2, 59244, Note_on_c, 0, 76, 65
2, 59244, Note_on_c, 0, 84, 62
2, 59245, Note_on_c, 0, 54, 67
2, 59246, Note_on_c, 0, 64, 64
2, 59247, Note_on_c, 0, 88, 58
2, 59249, Note_on_c, 0, 60, 48
2, 59250, Note_on_c, 0, 86, 50
2, 59258, Note_on_c, 0, 86, 0
2, 59270, Note_on_c, 0, 80, 0
2, 59270, Note_on_c, 0, 81, 46
2, 59276, Note_on_c, 0, 64, 0
2, 59279, Note_on_c, 0, 60, 0
2, 59281, Note_on_c, 0, 88, 0
2, 59281, Note_on_c, 0, 84, 0
2, 59283, Note_on_c, 0, 76, 0
2, 59283, Note_on_c, 0, 54, 0
2, 59289, Note_on_c, 0, 81, 0
2, 59303, Note_on_c, 0, 54, 47
2, 59306, Note_on_c, 0, 64, 39
2, 59307, Note_on_c, 0, 84, 52
2, 59311, Note_on_c, 0, 60, 36
2, 59314, Note_on_c, 0, 72, 24
2, 59322, Note_on_c, 0, 79, 19
2, 59329, Note_on_c, 0, 79, 0
2, 59333, Note_on_c, 0, 60, 0
2, 59334, Note_on_c, 0, 64, 0
2, 59336, Note_on_c, 0, 84, 0
2, 59346, Note_on_c, 0, 54, 0
2, 59349, Note_on_c, 0, 72, 0
2, 59407, Control_c, 0, 64, 127
2, 59435, Control_c, 0, 64, 0
2, 59461, Control_c, 0, 64, 127
2, 59477, Note_on_c, 0, 54, 45
2, 59479, Note_on_c, 0, 74, 64
2, 59481, Note_on_c, 0, 81, 61
2, 59482, Note_on_c, 0, 77, 36
2, 59482, Note_on_c, 0, 64, 36
2, 59484, Note_on_c, 0, 69, 48
2, 59487, Note_on_c, 0, 58, 23
2, 59495, Note_on_c, 0, 69, 0
2, 59495, Note_on_c, 0, 64, 0
2, 59498, Note_on_c, 0, 74, 0
2, 59499, Note_on_c, 0, 81, 0
2, 59500, Note_on_c, 0, 77, 0
2, 59507, Note_on_c, 0, 58, 0
2, 59510, Note_on_c, 0, 54, 0
2, 59521, Control_c, 0, 64, 0
2, 59530, Note_on_c, 0, 64, 34
2, 59532, Note_on_c, 0, 53, 40
2, 59533, Note_on_c, 0, 73, 36
2, 59535, Note_on_c, 0, 59, 43
2, 59535, Note_on_c, 0, 69, 44
2, 59619, Note_on_c, 0, 69, 0
2, 59620, Note_on_c, 0, 64, 0
2, 59620, Note_on_c, 0, 53, 0
2, 59627, Note_on_c, 0, 59, 0
2, 59640, Note_on_c, 0, 73, 0
2, 59647, Note_on_c, 0, 69, 46
2, 59647, Note_on_c, 0, 74, 57
2, 59649, Note_on_c, 0, 59, 39
2, 59650, Note_on_c, 0, 64, 24
2, 59651, Note_on_c, 0, 53, 25
2, 59768, Control_c, 0, 64, 127
2, 59798, Note_on_c, 0, 74, 0
2, 59801, Note_on_c, 0, 69, 0
2, 59829, Note_on_c, 0, 59, 0
2, 59840, Note_on_c, 0, 65, 60
2, 59846, Note_on_c, 0, 64, 0
2, 59854, Note_on_c, 0, 65, 0
2, 59864, Control_c, 0, 64, 0
2, 59882, Note_on_c, 0, 68, 62
2, 59886, Note_on_c, 0, 74, 43
2, 59905, Note_on_c, 0, 53, 0
2, 59908, Note_on_c, 0, 74, 0
2, 59912, Note_on_c, 0, 68, 0
2, 59922, Note_on_c, 0, 74, 47
2, 59923, Note_on_c, 0, 69, 58
2, 59953, Note_on_c, 0, 69, 0
2, 59955, Note_on_c, 0, 74, 0
2, 59963, Note_on_c, 0, 65, 50
2, 59972, Note_on_c, 0, 59, 26
2, 59982, Note_on_c, 0, 59, 0
2, 59986, Note_on_c, 0, 65, 0
2, 60003, Note_on_c, 0, 62, 33
2, 60035, Note_on_c, 0, 62, 0
2, 60043, Note_on_c, 0, 65, 58
2, 60090, Note_on_c, 0, 65, 0
2, 60205, Note_on_c, 0, 65, 38
2, 60206, Note_on_c, 0, 62, 38
2, 60208, Note_on_c, 0, 58, 35
2, 60210, Note_on_c, 0, 57, 30
2, 60216, Note_on_c, 0, 62, 0
2, 60216, Note_on_c, 0, 65, 0
2, 60218, Note_on_c, 0, 57, 0
2, 60223, Note_on_c, 0, 58, 0
2, 60247, Note_on_c, 0, 68, 74
2, 60248, Note_on_c, 0, 74, 58
2, 60268, Note_on_c, 0, 74, 0
2, 60272, Note_on_c, 0, 68, 0
2, 60281, Note_on_c, 0, 74, 50
2, 60284, Note_on_c, 0, 69, 66
2, 60312, Note_on_c, 0, 74, 0
2, 60318, Note_on_c, 0, 69, 0
2, 60325, Note_on_c, 0, 65, 66
2, 60327, Note_on_c, 0, 62, 44
2, 60331, Note_on_c, 0, 58, 30
2, 60334, Note_on_c, 0, 57, 28
2, 60336, Note_on_c, 0, 62, 0
2, 60342, Note_on_c, 0, 58, 0
2, 60343, Note_on_c, 0, 57, 0
2, 60346, Note_on_c, 0, 65, 0
2, 60368, Note_on_c, 0, 62, 37
2, 60395, Note_on_c, 0, 62, 0
2, 60409, Note_on_c, 0, 65, 66
2, 60459, Note_on_c, 0, 65, 0
2, 60557, Note_on_c, 0, 48, 63
2, 60558, Note_on_c, 0, 65, 48
2, 60562, Note_on_c, 0, 47, 39
2, 60565, Note_on_c, 0, 48, 0
2, 60569, Note_on_c, 0, 47, 0
2, 60572, Note_on_c, 0, 65, 0
2, 60602, Note_on_c, 0, 68, 57
2, 60605, Note_on_c, 0, 74, 47
2, 60622, Note_on_c, 0, 74, 0
2, 60629, Note_on_c, 0, 68, 0
2, 60645, Note_on_c, 0, 74, 41
2, 60645, Note_on_c, 0, 69, 62
2, 60677, Note_on_c, 0, 69, 0
2, 60678, Note_on_c, 0, 74, 0
2, 60684, Note_on_c, 0, 65, 66
2, 60707, Note_on_c, 0, 65, 0
2, 60723, Note_on_c, 0, 62, 42
2, 60750, Note_on_c, 0, 62, 0
2, 60764, Note_on_c, 0, 65, 81
2, 60795, Note_on_c, 0, 65, 0
2, 60803, Note_on_c, 0, 67, 71
2, 60829, Note_on_c, 0, 67, 0
2, 60844, Note_on_c, 0, 65, 56
2, 60869, Note_on_c, 0, 65, 0
2, 60928, Note_on_c, 0, 48, 58
2, 60936, Note_on_c, 0, 47, 34
2, 60944, Note_on_c, 0, 47, 0
2, 60946, Note_on_c, 0, 48, 0
2, 61048, Note_on_c, 0, 60, 54
2, 61061, Note_on_c, 0, 60, 0
2, 61093, Note_on_c, 0, 62, 36
2, 61103, Note_on_c, 0, 62, 0
2, 61167, Note_on_c, 0, 65, 57
2, 61171, Note_on_c, 0, 64, 38
2, 61176, Note_on_c, 0, 48, 28
2, 61180, Note_on_c, 0, 64, 0
2, 61182, Note_on_c, 0, 65, 0
2, 61183, Note_on_c, 0, 48, 0
2, 61223, Note_on_c, 0, 59, 57
2, 61248, Note_on_c, 0, 58, 55
2, 61249, Note_on_c, 0, 59, 0
2, 61268, Note_on_c, 0, 56, 36
2, 61278, Note_on_c, 0, 58, 0
2, 61296, Note_on_c, 0, 56, 0
2, 61303, Note_on_c, 0, 53, 36
2, 61327, Note_on_c, 0, 53, 0
2, 61339, Note_on_c, 0, 51, 62
2, 61418, Note_on_c, 0, 51, 0
2, 61420, Note_on_c, 0, 52, 75
2, 61452, Note_on_c, 0, 52, 0
2, 61470, Note_on_c, 0, 55, 67
2, 61537, Note_on_c, 0, 55, 0
2, 61542, Note_on_c, 0, 52, 34
2, 61562, Note_on_c, 0, 52, 0
2, 61573, Note_on_c, 0, 53, 62
2, 61640, Note_on_c, 0, 53, 0
2, 61650, Note_on_c, 0, 48, 65
2, 61684, Note_on_c, 0, 48, 0
2, 61699, Note_on_c, 0, 48, 51
2, 61759, Note_on_c, 0, 48, 0
2, 61770, Note_on_c, 0, 48, 53
2, 61787, Note_on_c, 0, 48, 0
2, 61923, Note_on_c, 0, 46, 29
2, 61942, Note_on_c, 0, 46, 0
2, 62043, Note_on_c, 0, 56, 32
2, 62048, Note_on_c, 0, 62, 31
2, 62049, Note_on_c, 0, 67, 17
2, 62095, Note_on_c, 0, 67, 0
2, 62095, Note_on_c, 0, 62, 0
2, 62103, Note_on_c, 0, 56, 0
2, 62161, Note_on_c, 0, 67, 39
2, 62167, Note_on_c, 0, 56, 19
2, 62167, Note_on_c, 0, 62, 40
2, 62174, Note_on_c, 0, 60, 25
2, 62208, Note_on_c, 0, 60, 0
2, 62220, Note_on_c, 0, 62, 0
2, 62221, Note_on_c, 0, 67, 0
2, 62225, Note_on_c, 0, 56, 0
2, 62250, Note_on_c, 0, 67, 45
2, 62253, Note_on_c, 0, 56, 23
2, 62257, Note_on_c, 0, 62, 34
2, 62258, Note_on_c, 0, 60, 32
2, 62268, Note_on_c, 0, 60, 0
2, 62269, Note_on_c, 0, 62, 0
2, 62270, Note_on_c, 0, 67, 0
2, 62273, Note_on_c, 0, 56, 0
2, 62408, Note_on_c, 0, 67, 50
2, 62408, Note_on_c, 0, 77, 54
2, 62408, Note_on_c, 0, 64, 33
2, 62409, Note_on_c, 0, 72, 34
2, 62413, Note_on_c, 0, 57, 33
2, 62414, Note_on_c, 0, 62, 32
2, 62440, Note_on_c, 0, 62, 0
2, 62440, Note_on_c, 0, 67, 0
2, 62445, Note_on_c, 0, 57, 0
2, 62448, Note_on_c, 0, 72, 0
2, 62449, Note_on_c, 0, 64, 0
2, 62453, Note_on_c, 0, 77, 0
2, 62526, Note_on_c, 0, 65, 44
2, 62527, Note_on_c, 0, 79, 61
2, 62528, Note_on_c, 0, 74, 47
2, 62529, Note_on_c, 0, 69, 53
2, 62531, Note_on_c, 0, 57, 35
2, 62570, Note_on_c, 0, 65, 0
2, 62571, Note_on_c, 0, 79, 0
2, 62572, Note_on_c, 0, 57, 0
2, 62574, Note_on_c, 0, 74, 0
2, 62574, Note_on_c, 0, 69, 0
2, 62609, Note_on_c, 0, 77, 49
2, 62611, Note_on_c, 0, 67, 41
2, 62615, Note_on_c, 0, 72, 36
2, 62617, Note_on_c, 0, 62, 29
2, 62624, Note_on_c, 0, 67, 0
2, 62626, Note_on_c, 0, 72, 0
2, 62630, Note_on_c, 0, 77, 0
2, 62635, Note_on_c, 0, 62, 0
2, 62654, Note_on_c, 0, 64, 36
2, 62655, Note_on_c, 0, 74, 49
2, 62655, Note_on_c, 0, 79, 55
2, 62657, Note_on_c, 0, 69, 42
2, 62687, Note_on_c, 0, 79, 0
2, 62691, Note_on_c, 0, 74, 0
2, 62696, Note_on_c, 0, 69, 0
2, 62706, Note_on_c, 0, 64, 0
2, 62728, Note_on_c, 0, 77, 54
2, 62730, Note_on_c, 0, 72, 54
2, 62732, Note_on_c, 0, 56, 38
2, 62736, Note_on_c, 0, 62, 39
2, 62743, Note_on_c, 0, 65, 17
2, 62755, Note_on_c, 0, 72, 0
2, 62759, Note_on_c, 0, 62, 0
2, 62759, Note_on_c, 0, 77, 0
2, 62759, Note_on_c, 0, 65, 0
2, 62783, Note_on_c, 0, 56, 0
2, 62885, Note_on_c, 0, 62, 44
2, 62886, Note_on_c, 0, 74, 49
2, 62887, Note_on_c, 0, 65, 40
2, 62888, Note_on_c, 0, 70, 32
2, 62888, Note_on_c, 0, 67, 46
2, 62919, Note_on_c, 0, 65, 0
2, 62923, Note_on_c, 0, 67, 0
2, 62926, Note_on_c, 0, 62, 0
2, 62930, Note_on_c, 0, 74, 0
2, 62931, Note_on_c, 0, 70, 0
2, 63006, Note_on_c, 0, 65, 50
2, 63007, Note_on_c, 0, 67, 65
2, 63007, Note_on_c, 0, 74, 56
2, 63008, Note_on_c, 0, 77, 57
2, 63008, Note_on_c, 0, 70, 49
2, 63051, Note_on_c, 0, 74, 0
2, 63053, Note_on_c, 0, 67, 0
2, 63054, Note_on_c, 0, 77, 0
2, 63056, Note_on_c, 0, 65, 0
2, 63058, Note_on_c, 0, 70, 0
2, 63127, Note_on_c, 0, 76, 48
2, 63127, Note_on_c, 0, 67, 59
2, 63129, Note_on_c, 0, 70, 47
2, 63131, Note_on_c, 0, 64, 40
2, 63132, Note_on_c, 0, 72, 24
2, 63160, Note_on_c, 0, 72, 0
2, 63164, Note_on_c, 0, 70, 0
2, 63167, Note_on_c, 0, 76, 0
2, 63171, Note_on_c, 0, 67, 0
2, 63172, Note_on_c, 0, 64, 0
2, 63211, Note_on_c, 0, 64, 49
2, 63211, Note_on_c, 0, 68, 45
2, 63211, Note_on_c, 0, 74, 48
2, 63212, Note_on_c, 0, 70, 44
2, 63217, Note_on_c, 0, 58, 39
2, 63316, Note_on_c, 0, 74, 0
2, 63338, Note_on_c, 0, 56, 27
2, 63340, Note_on_c, 0, 64, 0
2, 63346, Note_on_c, 0, 68, 0
2, 63350, Note_on_c, 0, 70, 0
2, 63359, Note_on_c, 0, 58, 0
2, 63364, Note_on_c, 0, 56, 0
2, 63368, Note_on_c, 0, 57, 38
2, 63369, Note_on_c, 0, 67, 41
2, 63370, Note_on_c, 0, 62, 33
2, 63372, Note_on_c, 0, 72, 22
2, 63428, Note_on_c, 0, 67, 0
2, 63430, Note_on_c, 0, 62, 0
2, 63435, Note_on_c, 0, 57, 0
2, 63436, Note_on_c, 0, 72, 0
2, 63488, Note_on_c, 0, 67, 52
2, 63489, Note_on_c, 0, 72, 34
2, 63489, Note_on_c, 0, 57, 36
2, 63490, Note_on_c, 0, 62, 35
2, 63539, Note_on_c, 0, 62, 0
2, 63549, Note_on_c, 0, 57, 0
2, 63551, Note_on_c, 0, 67, 0
2, 63563, Note_on_c, 0, 72, 0
2, 63612, Control_c, 0, 64, 127
2, 63717, Control_c, 0, 64, 0
2, 63729, Note_on_c, 0, 56, 63
2, 63729, Note_on_c, 0, 79, 83
2, 63729, Note_on_c, 0, 67, 67
2, 63730, Note_on_c, 0, 62, 57
2, 63730, Note_on_c, 0, 72, 79
2, 63787, Control_c, 0, 64, 127
2, 63842, Note_on_c, 0, 67, 0
2, 63845, Note_on_c, 0, 62, 0
2, 63852, Note_on_c, 0, 56, 0
2, 63856, Note_on_c, 0, 79, 0
2, 63873, Note_on_c, 0, 72, 0
2, 64084, Control_c, 0, 64, 0
2, 64085, Note_on_c, 0, 76, 80
2, 64085, Note_on_c, 0, 65, 64
2, 64087, Note_on_c, 0, 54, 54
2, 64089, Note_on_c, 0, 60, 56
2, 64142, Control_c, 0, 64, 127
2, 64176, Control_c, 0, 64, 0
2, 64204, Control_c, 0, 64, 127
2, 64214, Note_on_c, 0, 60, 0
2, 64216, Note_on_c, 0, 65, 0
2, 64255, Note_on_c, 0, 54, 0
2, 64272, Note_on_c, 0, 76, 0
2, 64285, Note_on_c, 0, 62, 55
2, 64286, Note_on_c, 0, 74, 70
2, 64288, Note_on_c, 0, 57, 47
2, 64288, Note_on_c, 0, 53, 29
2, 64289, Note_on_c, 0, 58, 37
2, 64291, Control_c, 0, 64, 0
2, 64325, Note_on_c, 0, 74, 0
2, 64337, Note_on_c, 0, 69, 44
2, 64376, Note_on_c, 0, 72, 69
2, 64383, Note_on_c, 0, 69, 0
2, 64431, Note_on_c, 0, 72, 0
2, 64437, Note_on_c, 0, 62, 0
2, 64438, Note_on_c, 0, 57, 0
2, 64444, Note_on_c, 0, 53, 0
2, 64447, Note_on_c, 0, 58, 0
2, 64448, Note_on_c, 0, 70, 59
2, 64637, Note_on_c, 0, 62, 64
2, 64687, Note_on_c, 0, 70, 0
2, 64714, Note_on_c, 0, 69, 68
2, 64715, Note_on_c, 0, 62, 0
2, 64788, Note_on_c, 0, 69, 0
2, 64801, Note_on_c, 0, 67, 50
2, 64886, Note_on_c, 0, 62, 34
2, 64910, Note_on_c, 0, 62, 0
2, 64913, Note_on_c, 0, 67, 0
2, 65005, Note_on_c, 0, 62, 33
2, 65015, Note_on_c, 0, 62, 0
2, 65049, Note_on_c, 0, 64, 67
2, 65065, Note_on_c, 0, 64, 0
2, 65077, Note_on_c, 0, 72, 58
2, 65098, Note_on_c, 0, 72, 0
2, 65100, Note_on_c, 0, 64, 35
2, 65126, Note_on_c, 0, 64, 0
2, 65127, Note_on_c, 0, 63, 33
2, 65140, Note_on_c, 0, 63, 0
2, 65163, Note_on_c, 0, 62, 28
2, 65202, Note_on_c, 0, 62, 0
2, 65202, Note_on_c, 0, 61, 46
2, 65224, Note_on_c, 0, 61, 0
2, 65234, Note_on_c, 0, 60, 42
2, 65251, Note_on_c, 0, 60, 0
2, 65264, Note_on_c, 0, 59, 50
2, 65286, Note_on_c, 0, 59, 0
2, 65302, Note_on_c, 0, 58, 33
2, 65357, Note_on_c, 0, 58, 0
2, 65524, Note_on_c, 0, 53, 35
2, 65537, Note_on_c, 0, 53, 0
2, 65772, Note_on_c, 0, 53, 22
2, 65773, Note_on_c, 0, 57, 34
2, 65784, Note_on_c, 0, 53, 0
2, 65785, Note_on_c, 0, 57, 0
2, 65815, Note_on_c, 0, 65, 32
2, 65835, Note_on_c, 0, 65, 0
2, 65846, Note_on_c, 0, 69, 44
2, 65871, Note_on_c, 0, 69, 0
2, 65880, Note_on_c, 0, 72, 55
2, 65909, Note_on_c, 0, 72, 0
2, 65914, Note_on_c, 0, 71, 51
2, 65940, Note_on_c, 0, 71, 0
2, 66080, Note_on_c, 0, 54, 42
2, 66082, Note_on_c, 0, 62, 38
2, 66083, Note_on_c, 0, 60, 45
2, 66091, Note_on_c, 0, 62, 0
2, 66092, Note_on_c, 0, 60, 0
2, 66103, Note_on_c, 0, 54, 0
2, 66123, Note_on_c, 0, 66, 23
2, 66138, Note_on_c, 0, 66, 0
2, 66165, Note_on_c, 0, 69, 50
2, 66176, Note_on_c, 0, 69, 0
2, 66201, Note_on_c, 0, 72, 85
2, 66230, Note_on_c, 0, 62, 37
2, 66234, Note_on_c, 0, 72, 0
2, 66244, Note_on_c, 0, 70, 52
2, 66249, Note_on_c, 0, 62, 0
2, 66276, Note_on_c, 0, 70, 0
2, 66290, Note_on_c, 0, 69, 20
2, 66314, Note_on_c, 0, 69, 0
2, 66321, Note_on_c, 0, 70, 62
2, 66333, Note_on_c, 0, 62, 26
2, 66341, Note_on_c, 0, 70, 0
2, 66342, Note_on_c, 0, 62, 0
2, 66356, Note_on_c, 0, 74, 56
2, 66380, Note_on_c, 0, 74, 0
2, 66382, Note_on_c, 0, 78, 31
2, 66389, Note_on_c, 0, 78, 0
2, 66395, Note_on_c, 0, 77, 34
2, 66417, Note_on_c, 0, 77, 0
2, 66423, Note_on_c, 0, 81, 56
2, 66442, Note_on_c, 0, 81, 0
2, 66448, Note_on_c, 0, 84, 78
2, 66450, Note_on_c, 0, 72, 71
2, 66484, Note_on_c, 0, 84, 0
2, 66488, Note_on_c, 0, 72, 0
2, 66513, Note_on_c, 0, 84, 65
2, 66514, Note_on_c, 0, 72, 44
2, 66552, Note_on_c, 0, 84, 0
2, 66553, Note_on_c, 0, 72, 0
2, 66719, Note_on_c, 0, 61, 25
2, 66720, Note_on_c, 0, 55, 35
2, 66721, Note_on_c, 0, 65, 22
2, 66722, Note_on_c, 0, 60, 37
2, 66750, Note_on_c, 0, 55, 0
2, 66753, Note_on_c, 0, 61, 0
2, 66753, Note_on_c, 0, 65, 0
2, 66753, Note_on_c, 0, 60, 0
2, 66841, Note_on_c, 0, 61, 42
2, 66842, Note_on_c, 0, 60, 49
2, 66842, Note_on_c, 0, 65, 56
2, 66846, Note_on_c, 0, 84, 74
2, 66848, Note_on_c, 0, 55, 31
2, 66848, Note_on_c, 0, 72, 62
2, 66850, Note_on_c, 0, 65, 0
2, 66856, Note_on_c, 0, 55, 0
2, 66857, Note_on_c, 0, 61, 0
2, 66858, Note_on_c, 0, 60, 0
2, 66859, Note_on_c, 0, 72, 0
2, 66861, Note_on_c, 0, 84, 0
2, 66921, Note_on_c, 0, 65, 71
2, 66922, Note_on_c, 0, 61, 54
2, 66924, Note_on_c, 0, 55, 53
2, 66926, Note_on_c, 0, 85, 85
2, 66927, Note_on_c, 0, 73, 70
2, 66932, Note_on_c, 0, 55, 0
2, 66936, Note_on_c, 0, 65, 0
2, 66942, Note_on_c, 0, 73, 0
2, 66944, Note_on_c, 0, 85, 0
2, 66945, Note_on_c, 0, 61, 0
2, 66967, Note_on_c, 0, 54, 48
2, 66969, Note_on_c, 0, 72, 39
2, 66969, Note_on_c, 0, 64, 36
2, 66970, Note_on_c, 0, 84, 38
2, 66989, Note_on_c, 0, 64, 0
2, 66989, Note_on_c, 0, 54, 0
2, 66992, Note_on_c, 0, 84, 0
2, 66998, Note_on_c, 0, 72, 0
2, 67045, Note_on_c, 0, 54, 50
2, 67047, Note_on_c, 0, 64, 50
2, 67047, Note_on_c, 0, 70, 64
2, 67047, Note_on_c, 0, 82, 62
2, 67049, Note_on_c, 0, 60, 46
2, 67060, Note_on_c, 0, 64, 0
2, 67062, Note_on_c, 0, 60, 0
2, 67065, Note_on_c, 0, 82, 0
2, 67065, Note_on_c, 0, 70, 0
2, 67090, Note_on_c, 0, 64, 27
2, 67091, Note_on_c, 0, 81, 48
2, 67093, Note_on_c, 0, 60, 24
2, 67097, Note_on_c, 0, 69, 34
2, 67106, Note_on_c, 0, 64, 0
2, 67113, Note_on_c, 0, 60, 0
2, 67115, Note_on_c, 0, 81, 0
2, 67117, Note_on_c, 0, 69, 0
2, 67119, Note_on_c, 0, 54, 0
2, 67160, Note_on_c, 0, 54, 49
2, 67167, Note_on_c, 0, 68, 48
2, 67169, Note_on_c, 0, 80, 38
2, 67186, Note_on_c, 0, 80, 0
2, 67187, Note_on_c, 0, 68, 0
2, 67187, Note_on_c, 0, 54, 0
2, 67205, Note_on_c, 0, 53, 32
2, 67207, Note_on_c, 0, 81, 43
2, 67207, Note_on_c, 0, 62, 25
2, 67209, Note_on_c, 0, 59, 41
2, 67210, Note_on_c, 0, 69, 44
2, 67246, Note_on_c, 0, 81, 0
2, 67259, Note_on_c, 0, 69, 0
2, 67263, Note_on_c, 0, 59, 0
2, 67267, Note_on_c, 0, 62, 0
2, 67273, Note_on_c, 0, 53, 0
2, 67324, Note_on_c, 0, 62, 30
2, 67325, Note_on_c, 0, 65, 54
2, 67325, Note_on_c, 0, 77, 56
2, 67327, Note_on_c, 0, 53, 22
2, 67327, Note_on_c, 0, 59, 31
2, 67385, Note_on_c, 0, 59, 0
2, 67388, Note_on_c, 0, 77, 0
2, 67394, Note_on_c, 0, 65, 0
2, 67406, Note_on_c, 0, 62, 0
2, 67414, Note_on_c, 0, 76, 36
2, 67419, Note_on_c, 0, 53, 0
2, 67434, Note_on_c, 0, 76, 0
2, 67449, Note_on_c, 0, 53, 22
2, 67450, Note_on_c, 0, 77, 54
2, 67452, Note_on_c, 0, 62, 28
2, 67452, Note_on_c, 0, 59, 16
2, 67455, Note_on_c, 0, 65, 32
2, 67479, Note_on_c, 0, 77, 0
2, 67515, Note_on_c, 0, 53, 0
2, 67517, Note_on_c, 0, 62, 0
2, 67522, Note_on_c, 0, 59, 0
2, 67523, Note_on_c, 0, 65, 0
2, 67564, Note_on_c, 0, 69, 59
2, 67566, Note_on_c, 0, 74, 50
2, 67568, Note_on_c, 0, 62, 27
2, 67569, Note_on_c, 0, 59, 27
2, 67570, Note_on_c, 0, 53, 24
2, 67611, Note_on_c, 0, 74, 0
2, 67615, Note_on_c, 0, 62, 0
2, 67616, Note_on_c, 0, 53, 0
2, 67623, Note_on_c, 0, 59, 0
2, 67638, Note_on_c, 0, 69, 0
2, 67644, Note_on_c, 0, 68, 30
2, 67662, Note_on_c, 0, 68, 0
2, 67679, Note_on_c, 0, 62, 25
2, 67679, Note_on_c, 0, 74, 54
2, 67681, Note_on_c, 0, 69, 48
2, 67681, Note_on_c, 0, 59, 24
2, 67682, Note_on_c, 0, 53, 25
2, 67722, Note_on_c, 0, 69, 0
2, 67727, Note_on_c, 0, 53, 0
2, 67730, Note_on_c, 0, 62, 0
2, 67732, Note_on_c, 0, 74, 0
2, 67736, Note_on_c, 0, 59, 0
2, 67766, Note_on_c, 0, 65, 62
2, 67771, Note_on_c, 0, 62, 26
2, 67772, Note_on_c, 0, 59, 34
2, 67773, Note_on_c, 0, 53, 24
2, 67795, Note_on_c, 0, 62, 0
2, 67816, Note_on_c, 0, 65, 0
2, 67825, Note_on_c, 0, 67, 40
2, 67837, Note_on_c, 0, 65, 38
2, 67838, Note_on_c, 0, 67, 0
2, 67865, Note_on_c, 0, 65, 0
2, 67865, Note_on_c, 0, 62, 49
2, 67873, Note_on_c, 0, 62, 0
2, 67897, Note_on_c, 0, 53, 0
2, 67910, Note_on_c, 0, 59, 0
2, 68006, Note_on_c, 0, 62, 39
2, 68008, Note_on_c, 0, 59, 37
2, 68017, Note_on_c, 0, 62, 0
2, 68022, Note_on_c, 0, 59, 0
2, 68051, Note_on_c, 0, 65, 32
2, 68063, Note_on_c, 0, 65, 0
2, 68086, Note_on_c, 0, 67, 52
2, 68102, Note_on_c, 0, 67, 0
2, 68116, Note_on_c, 0, 68, 59
2, 68136, Note_on_c, 0, 68, 0
2, 68154, Note_on_c, 0, 69, 56
2, 68172, Note_on_c, 0, 69, 0
2, 68236, Note_on_c, 0, 74, 74
2, 68265, Note_on_c, 0, 74, 0
2, 68274, Note_on_c, 0, 71, 57
2, 68292, Note_on_c, 0, 71, 0
2, 68304, Note_on_c, 0, 72, 57
2, 68326, Note_on_c, 0, 72, 0
2, 68404, Note_on_c, 0, 70, 60
2, 68432, Note_on_c, 0, 70, 0
2, 68439, Note_on_c, 0, 66, 37
2, 68457, Note_on_c, 0, 66, 0
2, 68470, Note_on_c, 0, 69, 67
2, 68498, Note_on_c, 0, 69, 0
2, 68508, Note_on_c, 0, 66, 37
2, 68522, Note_on_c, 0, 66, 0
2, 68537, Note_on_c, 0, 67, 62
2, 68563, Note_on_c, 0, 67, 0
2, 68575, Note_on_c, 0, 64, 36
2, 68609, Note_on_c, 0, 64, 0
2, 68729, Note_on_c, 0, 62, 40
2, 68738, Note_on_c, 0, 62, 0
2, 68762, Note_on_c, 0, 63, 73
2, 68810, Note_on_c, 0, 63, 0
2, 68846, Note_on_c, 0, 61, 74
2, 68873, Note_on_c, 0, 61, 0
2, 68889, Note_on_c, 0, 60, 59
2, 68944, Note_on_c, 0, 60, 0
2, 68954, Note_on_c, 0, 61, 35
2, 68966, Note_on_c, 0, 60, 43
2, 68988, Note_on_c, 0, 61, 0
2, 68990, Note_on_c, 0, 60, 0
2, 68999, Note_on_c, 0, 59, 34
2, 69078, Note_on_c, 0, 58, 60
2, 69085, Note_on_c, 0, 43, 32
2, 69094, Note_on_c, 0, 43, 0
2, 69095, Note_on_c, 0, 59, 0
2, 69110, Note_on_c, 0, 58, 0
2, 69126, Note_on_c, 0, 57, 38
2, 69223, Note_on_c, 0, 57, 0
2, 69252, Note_on_c, 0, 60, 44
2, 69305, Note_on_c, 0, 60, 0
2, 69338, Note_on_c, 0, 45, 24
2, 69346, Note_on_c, 0, 45, 0
2, 69370, Note_on_c, 0, 69, 67
2, 69434, Note_on_c, 0, 69, 0
2, 69454, Note_on_c, 0, 60, 24
2, 69469, Note_on_c, 0, 60, 0
2, 69488, Note_on_c, 0, 65, 43
2, 69544, Note_on_c, 0, 65, 0
2, 69565, Note_on_c, 0, 69, 69
2, 69566, Note_on_c, 0, 62, 37
2, 69568, Note_on_c, 0, 56, 30
2, 69575, Note_on_c, 0, 62, 0
2, 69581, Note_on_c, 0, 56, 0
2, 69600, Note_on_c, 0, 69, 0
2, 69615, Note_on_c, 0, 68, 28
2, 69675, Note_on_c, 0, 68, 0
2, 69684, Note_on_c, 0, 76, 68
2, 69712, Note_on_c, 0, 76, 0
2, 69729, Note_on_c, 0, 65, 36
2, 69787, Note_on_c, 0, 65, 0
2, 69931, Note_on_c, 0, 62, 27
2, 69932, Note_on_c, 0, 56, 25
2, 69938, Note_on_c, 0, 62, 0
2, 69946, Note_on_c, 0, 56, 0
2, 70009, Note_on_c, 0, 71, 60
2, 70034, Note_on_c, 0, 71, 0
2, 70043, Note_on_c, 0, 74, 78
2, 70071, Note_on_c, 0, 74, 0
2, 70086, Note_on_c, 0, 72, 47
2, 70119, Note_on_c, 0, 72, 0
2, 70167, Note_on_c, 0, 67, 57
2, 70187, Note_on_c, 0, 67, 0
2, 70209, Note_on_c, 0, 67, 49
2, 70227, Note_on_c, 0, 67, 0
2, 70247, Note_on_c, 0, 67, 58
2, 70268, Note_on_c, 0, 67, 0
2, 70285, Note_on_c, 0, 64, 48
2, 70295, Note_on_c, 0, 64, 0
2, 70325, Note_on_c, 0, 67, 58
2, 70343, Note_on_c, 0, 67, 0
2, 70363, Note_on_c, 0, 67, 54
2, 70388, Note_on_c, 0, 67, 0
2, 70404, Note_on_c, 0, 64, 34
2, 70412, Note_on_c, 0, 64, 0
2, 70441, Note_on_c, 0, 67, 53
2, 70460, Note_on_c, 0, 67, 0
2, 70480, Note_on_c, 0, 67, 40
2, 70513, Note_on_c, 0, 67, 0
2, 70520, Note_on_c, 0, 63, 47
2, 70523, Note_on_c, 0, 60, 49
2, 70527, Note_on_c, 0, 63, 0
2, 70531, Note_on_c, 0, 60, 0
2, 70558, Note_on_c, 0, 69, 55
2, 70576, Note_on_c, 0, 69, 0
2, 70597, Note_on_c, 0, 69, 44
2, 70617, Note_on_c, 0, 69, 0
2, 70622, Note_on_c, 0, 42, 48
2, 70623, Note_on_c, 0, 54, 46
2, 70630, Note_on_c, 0, 54, 0
2, 70636, Note_on_c, 0, 42, 0
2, 70674, Note_on_c, 0, 72, 31
2, 70676, Note_on_c, 0, 60, 30
2, 70676, Note_on_c, 0, 66, 23
2, 70688, Note_on_c, 0, 60, 0
2, 70698, Note_on_c, 0, 66, 0
2, 70708, Note_on_c, 0, 72, 0
2, 70759, Note_on_c, 0, 75, 51
2, 70761, Note_on_c, 0, 69, 58
2, 70763, Note_on_c, 0, 66, 36
2, 70764, Note_on_c, 0, 60, 44
2, 70773, Note_on_c, 0, 60, 0
2, 70781, Note_on_c, 0, 69, 0
2, 70788, Note_on_c, 0, 66, 0
2, 70790, Note_on_c, 0, 75, 0
2, 70835, Note_on_c, 0, 78, 61
2, 70837, Note_on_c, 0, 69, 67
2, 70837, Note_on_c, 0, 63, 55
2, 70855, Note_on_c, 0, 78, 0
2, 70858, Note_on_c, 0, 69, 0
2, 70859, Note_on_c, 0, 63, 0
2, 70924, Note_on_c, 0, 81, 63
2, 70924, Note_on_c, 0, 75, 67
2, 70925, Note_on_c, 0, 67, 48
2, 70926, Note_on_c, 0, 63, 37
2, 70929, Note_on_c, 0, 71, 43
2, 70932, Note_on_c, 0, 67, 0
2, 70943, Note_on_c, 0, 63, 0
2, 70946, Note_on_c, 0, 71, 0
2, 70946, Note_on_c, 0, 81, 0
2, 70952, Note_on_c, 0, 75, 0
2, 71160, Note_on_c, 0, 71, 75
2, 71161, Note_on_c, 0, 68, 59
2, 71161, Note_on_c, 0, 67, 71
2, 71161, Note_on_c, 0, 79, 69
2, 71163, Note_on_c, 0, 78, 33
2, 71164, Note_on_c, 0, 74, 54
2, 71179, Note_on_c, 0, 67, 0
2, 71182, Note_on_c, 0, 68, 0
2, 71186, Note_on_c, 0, 79, 0
2, 71187, Note_on_c, 0, 71, 0
2, 71189, Note_on_c, 0, 74, 0
2, 71199, Note_on_c, 0, 78, 0
2, 71242, Note_on_c, 0, 65, 60
2, 71243, Note_on_c, 0, 77, 61
2, 71244, Note_on_c, 0, 71, 67
2, 71245, Note_on_c, 0, 68, 55
2, 71255, Note_on_c, 0, 65, 0
2, 71263, Note_on_c, 0, 77, 0
2, 71265, Note_on_c, 0, 71, 0
2, 71271, Note_on_c, 0, 68, 0
2, 71298, Note_on_c, 0, 62, 54
2, 71301, Note_on_c, 0, 74, 49
2, 71304, Note_on_c, 0, 68, 37
2, 71304, Note_on_c, 0, 65, 45
2, 71309, Note_on_c, 0, 71, 32
2, 71344, Note_on_c, 0, 71, 0
2, 71349, Note_on_c, 0, 65, 0
2, 71352, Note_on_c, 0, 68, 0
2, 71359, Note_on_c, 0, 74, 0
2, 71361, Note_on_c, 0, 62, 0
2, 71375, Note_on_c, 0, 68, 28
2, 71375, Note_on_c, 0, 71, 24
2, 71378, Note_on_c, 0, 65, 29
2, 71378, Note_on_c, 0, 59, 35
2, 71386, Note_on_c, 0, 65, 0
2, 71389, Note_on_c, 0, 59, 0
2, 71390, Note_on_c, 0, 71, 0
2, 71393, Note_on_c, 0, 68, 0
2, 71421, Note_on_c, 0, 58, 60
2, 71424, Note_on_c, 0, 63, 39
2, 71425, Note_on_c, 0, 68, 37
2, 71425, Note_on_c, 0, 73, 31
2, 71430, Note_on_c, 0, 70, 28
2, 71470, Note_on_c, 0, 63, 0
2, 71470, Note_on_c, 0, 58, 0
2, 71472, Note_on_c, 0, 68, 0
2, 71473, Note_on_c, 0, 70, 0
2, 71478, Note_on_c, 0, 73, 0
2, 71494, Note_on_c, 0, 56, 30
2, 71519, Note_on_c, 0, 56, 0
2, 71532, Note_on_c, 0, 67, 56
2, 71532, Note_on_c, 0, 57, 44
2, 71532, Note_on_c, 0, 72, 41
2, 71533, Note_on_c, 0, 62, 50
2, 71561, Note_on_c, 0, 72, 0
2, 71563, Note_on_c, 0, 67, 0
2, 71576, Note_on_c, 0, 57, 0
2, 71580, Note_on_c, 0, 62, 0
2, 71608, Note_on_c, 0, 67, 58
2, 71611, Note_on_c, 0, 60, 49
2, 71613, Note_on_c, 0, 55, 49
2, 71617, Note_on_c, 0, 64, 40
2, 71636, Note_on_c, 0, 55, 0
2, 71637, Note_on_c, 0, 60, 0
2, 71641, Note_on_c, 0, 67, 0
2, 71656, Note_on_c, 0, 52, 28
2, 71686, Note_on_c, 0, 64, 0
2, 71739, Note_on_c, 0, 52, 0
2, 71762, Note_on_c, 0, 48, 33
2, 71763, Note_on_c, 0, 60, 37
2, 71769, Note_on_c, 0, 55, 24
2, 71788, Note_on_c, 0, 55, 0
2, 71810, Note_on_c, 0, 60, 0
2, 71818, Note_on_c, 0, 48, 0
2, 71854, Note_on_c, 0, 48, 44
2, 71871, Note_on_c, 0, 48, 0
2, 71883, Note_on_c, 0, 63, 39
2, 71883, Note_on_c, 0, 66, 51
2, 71883, Note_on_c, 0, 51, 38
2, 71887, Note_on_c, 0, 60, 44
2, 71888, Note_on_c, 0, 57, 24
2, 71950, Note_on_c, 0, 66, 0
2, 71953, Note_on_c, 0, 60, 0
2, 71963, Note_on_c, 0, 57, 0
2, 71964, Note_on_c, 0, 63, 0
2, 71976, Note_on_c, 0, 49, 25
2, 71989, Note_on_c, 0, 51, 0
2, 71993, Note_on_c, 0, 49, 0
2, 72003, Note_on_c, 0, 50, 36
2, 72006, Note_on_c, 0, 65, 44
2, 72006, Note_on_c, 0, 58, 33
2, 72008, Note_on_c, 0, 62, 37
2, 72125, Control_c, 0, 64, 127
2, 72153, Note_on_c, 0, 58, 0
2, 72157, Note_on_c, 0, 50, 0
2, 72160, Note_on_c, 0, 62, 0
2, 72169, Note_on_c, 0, 65, 0
2, 72245, Note_on_c, 0, 77, 70
2, 72246, Note_on_c, 0, 70, 77
2, 72246, Note_on_c, 0, 62, 75
2, 72247, Control_c, 0, 64, 0
2, 72249, Note_on_c, 0, 65, 71
2, 72250, Note_on_c, 0, 74, 52
2, 72297, Control_c, 0, 64, 127
2, 72386, Note_on_c, 0, 74, 0
2, 72387, Note_on_c, 0, 77, 0
2, 72388, Note_on_c, 0, 62, 0
2, 72402, Note_on_c, 0, 65, 0
2, 72403, Note_on_c, 0, 70, 0
2, 72482, Control_c, 0, 64, 0
2, 72484, Note_on_c, 0, 70, 51
2, 72485, Note_on_c, 0, 62, 49
2, 72487, Note_on_c, 0, 65, 44
2, 72488, Note_on_c, 0, 48, 34
2, 72489, Note_on_c, 0, 58, 30
2, 72514, Control_c, 0, 64, 127
2, 72533, Note_on_c, 0, 65, 0
2, 72541, Note_on_c, 0, 62, 0
2, 72547, Note_on_c, 0, 58, 0
2, 72554, Note_on_c, 0, 70, 0
2, 72596, Control_c, 0, 64, 0
2, 72601, Note_on_c, 0, 57, 60
2, 72603, Note_on_c, 0, 72, 73
2, 72603, Note_on_c, 0, 65, 76
2, 72604, Note_on_c, 0, 62, 72
2, 72636, Control_c, 0, 64, 127
2, 72654, Note_on_c, 0, 72, 0
2, 72661, Note_on_c, 0, 65, 0
2, 72666, Note_on_c, 0, 57, 0
2, 72670, Note_on_c, 0, 62, 0
2, 72683, Note_on_c, 0, 48, 0
2, 72720, Control_c, 0, 64, 0
2, 72721, Note_on_c, 0, 69, 55
2, 72723, Note_on_c, 0, 61, 47
2, 72728, Note_on_c, 0, 57, 46
2, 72729, Note_on_c, 0, 48, 37
2, 72732, Note_on_c, 0, 64, 27
2, 72733, Note_on_c, 0, 58, 17
2, 72780, Note_on_c, 0, 69, 0
2, 72806, Note_on_c, 0, 61, 0
2, 72811, Note_on_c, 0, 58, 0
2, 72815, Note_on_c, 0, 64, 0
2, 72827, Note_on_c, 0, 48, 0
2, 72828, Note_on_c, 0, 57, 0
2, 72840, Note_on_c, 0, 68, 40
2, 72842, Note_on_c, 0, 56, 27
2, 72843, Note_on_c, 0, 58, 37
2, 72844, Note_on_c, 0, 61, 36
2, 72847, Note_on_c, 0, 64, 33
2, 72898, Note_on_c, 0, 68, 0
2, 72901, Note_on_c, 0, 58, 0
2, 72907, Note_on_c, 0, 64, 0
2, 72912, Note_on_c, 0, 66, 19
2, 72920, Note_on_c, 0, 66, 0
2, 72922, Note_on_c, 0, 61, 0
2, 72935, Note_on_c, 0, 56, 0
2, 72959, Note_on_c, 0, 67, 50
2, 72961, Note_on_c, 0, 55, 38
2, 72963, Note_on_c, 0, 60, 44
2, 72965, Note_on_c, 0, 57, 19
2, 73013, Note_on_c, 0, 65, 5
2, 73018, Note_on_c, 0, 60, 0
2, 73019, Note_on_c, 0, 67, 0
2, 73028, Note_on_c, 0, 57, 0
2, 73047, Note_on_c, 0, 65, 0
2, 73047, Note_on_c, 0, 51, 27
2, 73064, Note_on_c, 0, 55, 0
2, 73076, Note_on_c, 0, 51, 0
2, 73077, Note_on_c, 0, 58, 36
2, 73078, Note_on_c, 0, 61, 43
2, 73079, Note_on_c, 0, 54, 29
2, 73081, Note_on_c, 0, 66, 28
2, 73089, Note_on_c, 0, 63, 21
2, 73160, Note_on_c, 0, 66, 0
2, 73164, Note_on_c, 0, 58, 0
2, 73166, Note_on_c, 0, 51, 25
2, 73168, Note_on_c, 0, 61, 0
2, 73176, Note_on_c, 0, 63, 0
2, 73191, Note_on_c, 0, 54, 0
2, 73193, Note_on_c, 0, 51, 0
2, 73199, Note_on_c, 0, 53, 35
2, 73200, Note_on_c, 0, 65, 40
2, 73201, Note_on_c, 0, 57, 31
2, 73204, Note_on_c, 0, 60, 38
2, 73207, Note_on_c, 0, 62, 28
2, 73226, Control_c, 0, 64, 127
2, 73268, Note_on_c, 0, 57, 0
2, 73281, Note_on_c, 0, 41, 51
2, 73282, Note_on_c, 0, 60, 0
2, 73295, Note_on_c, 0, 41, 0
2, 73296, Note_on_c, 0, 62, 0
2, 73300, Note_on_c, 0, 65, 0
2, 73308, Note_on_c, 0, 53, 0
2, 73450, Note_on_c, 0, 76, 84
2, 73451, Note_on_c, 0, 56, 73
2, 73451, Note_on_c, 0, 72, 80
2, 73451, Note_on_c, 0, 67, 84
2, 73453, Note_on_c, 0, 62, 70
2, 73459, Control_c, 0, 64, 0
2, 73520, Note_on_c, 0, 56, 0
2, 73524, Note_on_c, 0, 67, 0
2, 73527, Note_on_c, 0, 62, 0
2, 73532, Note_on_c, 0, 72, 0
2, 73535, Note_on_c, 0, 76, 0
2, 73576, Note_on_c, 0, 76, 70
2, 73576, Note_on_c, 0, 57, 64
2, 73577, Note_on_c, 0, 74, 62
2, 73578, Note_on_c, 0, 69, 71
2, 73578, Note_on_c, 0, 62, 66
2, 73616, Note_on_c, 0, 69, 0
2, 73617, Note_on_c, 0, 76, 0
2, 73621, Note_on_c, 0, 62, 0
2, 73622, Note_on_c, 0, 74, 0
2, 73623, Note_on_c, 0, 57, 0
2, 73686, Note_on_c, 0, 76, 65
2, 73687, Note_on_c, 0, 68, 51
2, 73687, Note_on_c, 0, 56, 56
2, 73687, Note_on_c, 0, 74, 58
2, 73687, Note_on_c, 0, 62, 58
2, 73752, Control_c, 0, 64, 127
2, 73810, Note_on_c, 0, 68, 0
2, 73829, Note_on_c, 0, 74, 0
2, 73831, Note_on_c, 0, 56, 0
2, 73832, Note_on_c, 0, 62, 0
2, 73836, Note_on_c, 0, 76, 0
2, 73969, Control_c, 0, 64, 0
2, 74044, Note_on_c, 0, 64, 48
2, 74044, Note_on_c, 0, 55, 54
2, 74045, Note_on_c, 0, 89, 68
2, 74045, Note_on_c, 0, 77, 61
2, 74046, Note_on_c, 0, 57, 41
2, 74047, Note_on_c, 0, 60, 45
2, 74047, Note_on_c, 0, 84, 52
2, 74055, Note_on_c, 0, 55, 0
2, 74056, Note_on_c, 0, 60, 0
2, 74056, Note_on_c, 0, 84, 0
2, 74057, Note_on_c, 0, 64, 0
2, 74059, Note_on_c, 0, 57, 0
2, 74060, Note_on_c, 0, 77, 0
2, 74063, Note_on_c, 0, 89, 0
2, 74170, Note_on_c, 0, 67, 63
2, 74170, Note_on_c, 0, 56, 58
2, 74171, Note_on_c, 0, 91, 73
2, 74171, Note_on_c, 0, 62, 53
2, 74172, Note_on_c, 0, 79, 60
2, 74173, Note_on_c, 0, 86, 71
2, 74212, Control_c, 0, 64, 127
2, 74255, Note_on_c, 0, 91, 0
2, 74263, Note_on_c, 0, 86, 0
2, 74272, Note_on_c, 0, 79, 0
2, 74290, Note_on_c, 0, 67, 0
2, 74302, Note_on_c, 0, 56, 0
2, 74316, Note_on_c, 0, 62, 0
2, 74350, Control_c, 0, 64, 0
2, 74362, Note_on_c, 0, 56, 57
2, 74363, Note_on_c, 0, 82, 62
2, 74363, Note_on_c, 0, 88, 74
2, 74363, Note_on_c, 0, 62, 55
2, 74365, Note_on_c, 0, 76, 57
2, 74365, Note_on_c, 0, 67, 44
2, 74372, Control_c, 0, 64, 127
2, 74378, Control_c, 0, 64, 0
2, 74379, Note_on_c, 0, 67, 0
2, 74385, Note_on_c, 0, 62, 0
2, 74389, Note_on_c, 0, 83, 39
2, 74391, Note_on_c, 0, 82, 0
2, 74397, Note_on_c, 0, 56, 0
2, 74401, Note_on_c, 0, 88, 0
2, 74406, Note_on_c, 0, 83, 0
2, 74409, Note_on_c, 0, 76, 0
2, 74439, Note_on_c, 0, 74, 56
2, 74440, Note_on_c, 0, 86, 66
2, 74442, Note_on_c, 0, 80, 52
2, 74446, Note_on_c, 0, 64, 29
2, 74447, Note_on_c, 0, 55, 28
2, 74448, Note_on_c, 0, 57, 38
2, 74451, Note_on_c, 0, 60, 41
2, 74476, Note_on_c, 0, 80, 0
2, 74481, Note_on_c, 0, 60, 0
2, 74484, Note_on_c, 0, 55, 0
2, 74486, Note_on_c, 0, 74, 0
2, 74488, Note_on_c, 0, 57, 0
2, 74489, Note_on_c, 0, 64, 0
2, 74490, Note_on_c, 0, 86, 0
2, 74531, Note_on_c, 0, 80, 51
2, 74532, Note_on_c, 0, 86, 66
2, 74533, Note_on_c, 0, 74, 45
2, 74534, Note_on_c, 0, 64, 35
2, 74534, Note_on_c, 0, 55, 44
2, 74539, Note_on_c, 0, 57, 44
2, 74539, Note_on_c, 0, 60, 37
2, 74569, Note_on_c, 0, 80, 0
2, 74569, Control_c, 0, 64, 127
2, 74583, Note_on_c, 0, 74, 0
2, 74585, Note_on_c, 0, 55, 0
2, 74586, Note_on_c, 0, 64, 0
2, 74586, Note_on_c, 0, 60, 0
2, 74587, Note_on_c, 0, 57, 0
2, 74588, Note_on_c, 0, 86, 0
2, 74607, Control_c, 0, 64, 0
2, 74610, Note_on_c, 0, 86, 64
2, 74613, Note_on_c, 0, 80, 46
2, 74614, Note_on_c, 0, 74, 53
2, 74616, Note_on_c, 0, 64, 51
2, 74617, Note_on_c, 0, 54, 53
2, 74620, Note_on_c, 0, 60, 34
2, 74653, Control_c, 0, 64, 127
2, 74777, Note_on_c, 0, 64, 0
2, 74778, Note_on_c, 0, 60, 0
2, 74781, Note_on_c, 0, 54, 0
2, 74785, Note_on_c, 0, 86, 0
2, 74787, Note_on_c, 0, 74, 0
2, 74788, Note_on_c, 0, 80, 0
2, 74839, Note_on_c, 0, 54, 52
2, 74841, Note_on_c, 0, 86, 82
2, 74842, Note_on_c, 0, 74, 71
2, 74842, Note_on_c, 0, 81, 67
2, 74842, Note_on_c, 0, 64, 46
2, 74851, Note_on_c, 0, 64, 0
2, 74852, Note_on_c, 0, 74, 0
2, 74857, Note_on_c, 0, 86, 0
2, 74861, Note_on_c, 0, 54, 0
2, 74861, Note_on_c, 0, 81, 0
2, 74877, Control_c, 0, 64, 0
2, 74887, Note_on_c, 0, 53, 48
2, 74889, Note_on_c, 0, 73, 49
2, 74889, Note_on_c, 0, 85, 59
2, 74891, Note_on_c, 0, 64, 37
2, 74892, Note_on_c, 0, 59, 50
2, 74895, Note_on_c, 0, 81, 31
2, 74945, Note_on_c, 0, 81, 0
2, 74945, Note_on_c, 0, 53, 0
2, 74947, Note_on_c, 0, 64, 0
2, 74951, Note_on_c, 0, 85, 0
2, 74952, Note_on_c, 0, 73, 0
2, 74952, Note_on_c, 0, 59, 0
2, 74964, Note_on_c, 0, 53, 45
2, 74964, Note_on_c, 0, 64, 50
2, 74965, Note_on_c, 0, 74, 63
2, 74966, Note_on_c, 0, 59, 42
2, 74967, Note_on_c, 0, 86, 55
2, 74967, Note_on_c, 0, 81, 55
2, 74975, Note_on_c, 0, 86, 0
2, 74976, Note_on_c, 0, 59, 0
2, 74976, Note_on_c, 0, 64, 0
2, 74976, Note_on_c, 0, 81, 0
2, 74977, Note_on_c, 0, 74, 0
2, 74979, Note_on_c, 0, 53, 0
2, 75120, Control_c, 0, 64, 127
2, 75132, Control_c, 0, 64, 0
2, 75174, Control_c, 0, 64, 127
2, 75204, Note_on_c, 0, 76, 68
2, 75205, Note_on_c, 0, 69, 67
2, 75206, Note_on_c, 0, 81, 56
2, 75206, Control_c, 0, 64, 0
2, 75207, Note_on_c, 0, 59, 62
2, 75208, Note_on_c, 0, 64, 49
2, 75210, Note_on_c, 0, 53, 34
2, 75212, Note_on_c, 0, 69, 0
2, 75214, Note_on_c, 0, 81, 0
2, 75216, Note_on_c, 0, 76, 0
2, 75216, Note_on_c, 0, 64, 0
2, 75221, Note_on_c, 0, 59, 0
2, 75224, Note_on_c, 0, 53, 0
2, 75346, Note_on_c, 0, 55, 29
2, 75356, Note_on_c, 0, 55, 0
2, 75360, Note_on_c, 0, 67, 47
2, 75360, Note_on_c, 0, 58, 45
2, 75361, Note_on_c, 0, 62, 44
2, 75362, Note_on_c, 0, 65, 51
2, 75363, Note_on_c, 0, 57, 50
2, 75443, Note_on_c, 0, 54, 38
2, 75451, Note_on_c, 0, 57, 0
2, 75471, Note_on_c, 0, 54, 0
2, 75485, Note_on_c, 0, 56, 33
2, 75534, Note_on_c, 0, 62, 0
2, 75535, Note_on_c, 0, 65, 0
2, 75558, Note_on_c, 0, 58, 0
2, 75560, Control_c, 0, 64, 127
2, 75562, Note_on_c, 0, 54, 26
2, 75570, Note_on_c, 0, 67, 0
2, 75579, Control_c, 0, 64, 0
2, 75590, Note_on_c, 0, 56, 0
2, 75592, Note_on_c, 0, 54, 0
2, 75598, Note_on_c, 0, 58, 37
2, 75600, Note_on_c, 0, 61, 36
2, 75600, Note_on_c, 0, 64, 43
2, 75601, Note_on_c, 0, 55, 37
2, 75601, Note_on_c, 0, 69, 46
2, 75622, Control_c, 0, 64, 127
2, 75647, Note_on_c, 0, 69, 0
2, 75716, Note_on_c, 0, 58, 0
2, 75732, Note_on_c, 0, 55, 0
2, 75761, Note_on_c, 0, 64, 0
2, 75779, Note_on_c, 0, 61, 0
2, 75844, Control_c, 0, 64, 0
2, 75919, Note_on_c, 0, 64, 51
2, 75932, Note_on_c, 0, 64, 0
2, 75958, Note_on_c, 0, 65, 57
2, 75966, Note_on_c, 0, 65, 0
2, 75993, Note_on_c, 0, 72, 51
2, 76008, Note_on_c, 0, 72, 0
2, 76032, Note_on_c, 0, 76, 66
2, 76047, Note_on_c, 0, 76, 0
2, 76076, Note_on_c, 0, 79, 74
2, 76100, Note_on_c, 0, 79, 0
2, 76155, Note_on_c, 0, 76, 71
2, 76157, Note_on_c, 0, 64, 34
2, 76178, Note_on_c, 0, 64, 0
2, 76181, Note_on_c, 0, 76, 0
2, 76201, Note_on_c, 0, 72, 46
2, 76215, Note_on_c, 0, 72, 0
2, 76275, Note_on_c, 0, 69, 67
2, 76279, Note_on_c, 0, 57, 46
2, 76290, Note_on_c, 0, 57, 0
2, 76291, Note_on_c, 0, 69, 0
2, 76342, Note_on_c, 0, 64, 51
2, 76345, Note_on_c, 0, 52, 37
2, 76396, Note_on_c, 0, 64, 0
2, 76398, Note_on_c, 0, 52, 0
2, 76404, Note_on_c, 0, 67, 69
2, 76408, Note_on_c, 0, 55, 51
2, 76417, Note_on_c, 0, 55, 0
2, 76425, Note_on_c, 0, 67, 0
2, 76454, Note_on_c, 0, 53, 46
2, 76457, Note_on_c, 0, 65, 51
2, 76462, Note_on_c, 0, 53, 0
2, 76524, Note_on_c, 0, 65, 0
2, 76527, Note_on_c, 0, 60, 46
2, 76758, Note_on_c, 0, 60, 0
2, 76764, Note_on_c, 0, 41, 30
2, 76767, Note_on_c, 0, 29, 40
2, 77048, Note_on_c, 0, 67, 55
2, 77049, Note_on_c, 0, 48, 37
2, 77052, Control_c, 0, 64, 127
2, 77052, Note_on_c, 0, 60, 46
2, 77053, Note_on_c, 0, 41, 35
2, 77053, Note_on_c, 0, 59, 42
2, 77055, Note_on_c, 0, 64, 46
2, 77068, Note_on_c, 0, 29, 0
2, 77068, Note_on_c, 0, 41, 0
2, 77108, Note_on_c, 0, 59, 0
2, 77117, Note_on_c, 0, 60, 0
2, 77131, Note_on_c, 0, 64, 0
2, 77135, Note_on_c, 0, 67, 0
2, 77165, Note_on_c, 0, 41, 0
2, 77173, Note_on_c, 0, 48, 0
2, 77287, Note_on_c, 0, 59, 54
2, 77288, Note_on_c, 0, 83, 64
2, 77290, Note_on_c, 0, 71, 62
2, 77315, Note_on_c, 0, 71, 0
2, 77326, Note_on_c, 0, 83, 0
2, 77396, Note_on_c, 0, 59, 0
2, 77403, Note_on_c, 0, 88, 46
2, 77405, Note_on_c, 0, 76, 46
2, 77406, Note_on_c, 0, 64, 45
2, 77429, Note_on_c, 0, 76, 0
2, 77434, Note_on_c, 0, 88, 0
2, 77457, Note_on_c, 0, 64, 0
2, 77531, Note_on_c, 0, 95, 62
2, 77535, Note_on_c, 0, 83, 52
2, 77538, Note_on_c, 0, 71, 52
2, 77570, Note_on_c, 0, 95, 0
2, 77579, Note_on_c, 0, 83, 0
2, 77641, Note_on_c, 0, 91, 46
2, 77642, Note_on_c, 0, 67, 52
2, 77644, Note_on_c, 0, 79, 40
2, 77648, Note_on_c, 0, 71, 0
2, 77665, Note_on_c, 0, 67, 0
2, 77666, Note_on_c, 0, 79, 0
2, 77675, Note_on_c, 0, 91, 0
2, 77771, Note_on_c, 0, 76, 48
2, 77772, Note_on_c, 0, 100, 55
2, 77778, Note_on_c, 0, 88, 36
2, 77812, Note_on_c, 0, 100, 0
2, 77824, Note_on_c, 0, 88, 0
2, 77880, Note_on_c, 0, 71, 28
2, 77880, Note_on_c, 0, 96, 28
2, 77882, Note_on_c, 0, 84, 37
2, 77888, Note_on_c, 0, 76, 0
2, 77893, Note_on_c, 0, 84, 0
2, 77897, Note_on_c, 0, 71, 0
2, 77905, Note_on_c, 0, 96, 0
2, 78025, Note_on_c, 0, 107, 75
2, 78026, Note_on_c, 0, 83, 61
2, 78029, Note_on_c, 0, 100, 62
2, 78030, Note_on_c, 0, 95, 56
2, 78030, Note_on_c, 0, 103, 56
2, 78092, Note_on_c, 0, 103, 0
2, 78106, Note_on_c, 0, 100, 0
2, 78124, Note_on_c, 0, 95, 0
2, 78137, Note_on_c, 0, 82, 24
2, 78152, Note_on_c, 0, 106, 40
2, 78160, Note_on_c, 0, 107, 0
2, 78161, Note_on_c, 0, 105, 49
2, 78162, Note_on_c, 0, 106, 0
2, 78173, Note_on_c, 0, 83, 0
2, 78176, Note_on_c, 0, 82, 0
2, 78180, Note_on_c, 0, 81, 40
2, 78209, Note_on_c, 0, 105, 0
2, 78213, Note_on_c, 0, 81, 0
2, 78213, Note_on_c, 0, 79, 49
2, 78213, Note_on_c, 0, 103, 60
2, 78232, Control_c, 0, 64, 0
2, 78262, Control_c, 0, 64, 127
2, 78299, Note_on_c, 0, 103, 0
2, 78329, Note_on_c, 0, 79, 0
2, 78508, Control_c, 0, 64, 0
2, 78508, End_track
3, 0, Start_track
3, 0, Title_t, "dougmck@pipeline.com.au"
3, 0, Program_c, 1, 32
3, 0, End_track
4, 0, Start_track
4, 0, Title_t, ""
4, 0, Program_c, 9, 40
4, 46080, Note_on_c, 9, 36, 51
4, 46080, Note_on_c, 9, 36, 0
4, 46088, Note_on_c, 9, 40, 47
4, 46180, Note_on_c, 9, 40, 0
4, 46203, Note_on_c, 9, 44, 49
4, 46205, Note_on_c, 9, 40, 62
4, 46233, Note_on_c, 9, 44, 0
4, 46308, Note_on_c, 9, 40, 0
4, 46331, Note_on_c, 9, 40, 53
4, 46403, Note_on_c, 9, 39, 60
4, 46407, Note_on_c, 9, 40, 0
4, 46433, Note_on_c, 9, 39, 0
4, 46446, Note_on_c, 9, 40, 54
4, 46452, Note_on_c, 9, 44, 80
4, 46487, Note_on_c, 9, 44, 0
4, 46541, Note_on_c, 9, 40, 0
4, 46567, Note_on_c, 9, 40, 44
4, 46660, Note_on_c, 9, 40, 0
4, 46684, Note_on_c, 9, 44, 69
4, 46685, Note_on_c, 9, 40, 51
4, 46733, Note_on_c, 9, 44, 0
4, 46782, Note_on_c, 9, 40, 0
4, 46807, Note_on_c, 9, 40, 57
4, 46880, Note_on_c, 9, 39, 54
4, 46882, Note_on_c, 9, 40, 0
4, 46905, Note_on_c, 9, 39, 0
4, 46916, Note_on_c, 9, 40, 54
4, 46923, Note_on_c, 9, 46, 50
4, 46948, Note_on_c, 9, 46, 0
4, 46995, Note_on_c, 9, 40, 0
4, 46995, Note_on_c, 9, 36, 28
4, 47008, Note_on_c, 9, 36, 0
4, 47012, Note_on_c, 9, 40, 49
4, 47023, Note_on_c, 9, 40, 0
4, 47046, Note_on_c, 9, 40, 50
4, 47147, Note_on_c, 9, 40, 0
4, 47160, Note_on_c, 9, 40, 45
4, 47161, Note_on_c, 9, 44, 43
4, 47184, Note_on_c, 9, 44, 0
4, 47253, Note_on_c, 9, 40, 0
4, 47276, Note_on_c, 9, 40, 58
4, 47354, Note_on_c, 9, 40, 0
4, 47361, Note_on_c, 9, 38, 60
4, 47391, Note_on_c, 9, 38, 0
4, 47395, Note_on_c, 9, 40, 47
4, 47398, Note_on_c, 9, 44, 56
4, 47432, Note_on_c, 9, 44, 0
4, 47490, Note_on_c, 9, 40, 0
4, 47519, Note_on_c, 9, 40, 45
4, 47565, Note_on_c, 9, 38, 33
4, 47580, Note_on_c, 9, 38, 0
4, 47603, Note_on_c, 9, 38, 46
4, 47604, Note_on_c, 9, 40, 0
4, 47617, Note_on_c, 9, 36, 28
4, 47631, Note_on_c, 9, 38, 0
4, 47640, Note_on_c, 9, 44, 60
4, 47645, Note_on_c, 9, 36, 0
4, 47645, Note_on_c, 9, 40, 38
4, 47677, Note_on_c, 9, 44, 0
4, 47710, Note_on_c, 9, 40, 0
4, 47718, Note_on_c, 9, 39, 38
4, 47723, Note_on_c, 9, 38, 65
4, 47732, Note_on_c, 9, 39, 0
4, 47742, Note_on_c, 9, 38, 0
4, 47763, Note_on_c, 9, 40, 42
4, 47832, Note_on_c, 9, 38, 46
4, 47838, Note_on_c, 9, 40, 0
4, 47841, Note_on_c, 9, 39, 80
4, 47849, Note_on_c, 9, 38, 0
4, 47870, Note_on_c, 9, 36, 40
4, 47881, Note_on_c, 9, 44, 49
4, 47886, Note_on_c, 9, 36, 0
4, 47900, Note_on_c, 9, 40, 31
4, 47924, Note_on_c, 9, 44, 0
4, 47938, Note_on_c, 9, 40, 0
4, 47958, Note_on_c, 9, 36, 48
4, 47967, Note_on_c, 9, 40, 50
4, 47991, Note_on_c, 9, 40, 0
4, 47991, Note_on_c, 9, 39, 0
4, 48012, Note_on_c, 9, 40, 33
4, 48060, Note_on_c, 9, 36, 0
4, 48075, Note_on_c, 9, 40, 0
4, 48085, Note_on_c, 9, 39, 47
4, 48095, Note_on_c, 9, 39, 0
4, 48120, Note_on_c, 9, 44, 57
4, 48124, Note_on_c, 9, 40, 50
4, 48148, Note_on_c, 9, 44, 0
4, 48200, Note_on_c, 9, 40, 0
4, 48201, Note_on_c, 9, 39, 90
4, 48258, Note_on_c, 9, 39, 0
4, 48258, Note_on_c, 9, 40, 44
4, 48311, Note_on_c, 9, 40, 0
4, 48329, Note_on_c, 9, 40, 37
4, 48350, Note_on_c, 9, 40, 0
4, 48358, Note_on_c, 9, 44, 47
4, 48370, Note_on_c, 9, 40, 39
4, 48450, Note_on_c, 9, 40, 0
4, 48488, Note_on_c, 9, 40, 43
4, 48525, Note_on_c, 9, 44, 0
4, 48569, Note_on_c, 9, 40, 0
4, 48598, Note_on_c, 9, 44, 43
4, 48599, Note_on_c, 9, 40, 46
4, 48661, Note_on_c, 9, 44, 0
4, 48678, Note_on_c, 9, 40, 0
4, 48717, Note_on_c, 9, 40, 48
4, 48800, Note_on_c, 9, 39, 81
4, 48801, Note_on_c, 9, 40, 0
4, 48839, Note_on_c, 9, 39, 0
4, 48840, Note_on_c, 9, 44, 36
4, 48842, Note_on_c, 9, 40, 53
4, 48880, Note_on_c, 9, 44, 0
4, 48932, Note_on_c, 9, 40, 0
4, 48963, Note_on_c, 9, 40, 30
4, 49050, Note_on_c, 9, 40, 0
4, 49076, Note_on_c, 9, 44, 33
4, 49081, Note_on_c, 9, 40, 49
4, 49119, Note_on_c, 9, 44, 0
4, 49174, Note_on_c, 9, 40, 0
4, 49201, Note_on_c, 9, 40, 46
4, 49270, Note_on_c, 9, 40, 0
4, 49284, Note_on_c, 9, 40, 44
4, 49296, Note_on_c, 9, 40, 0
4, 49316, Note_on_c, 9, 44, 60
4, 49320, Note_on_c, 9, 40, 57
4, 49371, Note_on_c, 9, 44, 0
4, 49419, Note_on_c, 9, 40, 0
4, 49444, Note_on_c, 9, 40, 51
4, 49517, Note_on_c, 9, 44, 29
4, 49527, Note_on_c, 9, 44, 0
4, 49527, Note_on_c, 9, 40, 0
4, 49565, Note_on_c, 9, 40, 53
4, 49565, Note_on_c, 9, 44, 38
4, 49602, Note_on_c, 9, 44, 0
4, 49636, Note_on_c, 9, 40, 0
4, 49644, Note_on_c, 9, 36, 29
4, 49653, Note_on_c, 9, 40, 35
4, 49658, Note_on_c, 9, 36, 0
4, 49668, Note_on_c, 9, 40, 0
4, 49686, Note_on_c, 9, 40, 45
4, 49697, Note_on_c, 9, 36, 35
4, 49740, Note_on_c, 9, 36, 0
4, 49783, Note_on_c, 9, 40, 0
4, 49790, Note_on_c, 9, 46, 37
4, 49806, Note_on_c, 9, 40, 57
4, 49818, Note_on_c, 9, 46, 0
4, 49875, Note_on_c, 9, 40, 0
4, 49881, Note_on_c, 9, 36, 36
4, 49887, Note_on_c, 9, 39, 74
4, 49900, Note_on_c, 9, 36, 0
4, 49916, Note_on_c, 9, 39, 0
4, 49919, Note_on_c, 9, 40, 44
4, 49930, Note_on_c, 9, 36, 17
4, 49961, Note_on_c, 9, 36, 0
4, 49994, Note_on_c, 9, 40, 0
4, 50040, Note_on_c, 9, 44, 36
4, 50045, Note_on_c, 9, 40, 51
4, 50072, Note_on_c, 9, 44, 0
4, 50110, Note_on_c, 9, 36, 40
4, 50124, Note_on_c, 9, 36, 0
4, 50127, Note_on_c, 9, 40, 0
4, 50127, Note_on_c, 9, 39, 47
4, 50150, Note_on_c, 9, 39, 0
4, 50162, Note_on_c, 9, 40, 51
4, 50252, Note_on_c, 9, 40, 0
4, 50276, Note_on_c, 9, 44, 44
4, 50277, Note_on_c, 9, 40, 46
4, 50315, Note_on_c, 9, 44, 0
4, 50383, Note_on_c, 9, 40, 0
4, 50404, Note_on_c, 9, 40, 60
4, 50504, Note_on_c, 9, 40, 0
4, 50521, Note_on_c, 9, 44, 36
4, 50529, Note_on_c, 9, 40, 48
4, 50562, Note_on_c, 9, 44, 0
4, 50731, Note_on_c, 9, 40, 0
4, 50745, Note_on_c, 9, 39, 72
4, 50755, Note_on_c, 9, 44, 37
4, 50765, Note_on_c, 9, 39, 0
4, 50766, Note_on_c, 9, 40, 64
4, 50797, Note_on_c, 9, 44, 0
4, 50839, Note_on_c, 9, 36, 44
4, 50852, Note_on_c, 9, 36, 0
4, 50852, Note_on_c, 9, 40, 0
4, 50877, Note_on_c, 9, 40, 53
4, 50956, Note_on_c, 9, 40, 0
4, 50961, Note_on_c, 9, 39, 55
4, 50985, Note_on_c, 9, 39, 0
4, 50992, Note_on_c, 9, 44, 42
4, 50998, Note_on_c, 9, 40, 39
4, 51045, Note_on_c, 9, 44, 0
4, 51076, Note_on_c, 9, 40, 0
4, 51114, Note_on_c, 9, 40, 29
4, 51216, Note_on_c, 9, 40, 0
4, 51230, Note_on_c, 9, 44, 37
4, 51240, Note_on_c, 9, 40, 43
4, 51267, Note_on_c, 9, 44, 0
4, 51314, Note_on_c, 9, 40, 0
4, 51317, Note_on_c, 9, 38, 45
4, 51332, Note_on_c, 9, 38, 0
4, 51363, Note_on_c, 9, 40, 28
4, 51408, Note_on_c, 9, 40, 0
4, 51435, Note_on_c, 9, 40, 55
4, 51450, Note_on_c, 9, 40, 0
4, 51474, Note_on_c, 9, 44, 44
4, 51483, Note_on_c, 9, 40, 45
4, 51536, Note_on_c, 9, 44, 0
4, 51542, Note_on_c, 9, 40, 0
4, 51566, Note_on_c, 9, 38, 44
4, 51584, Note_on_c, 9, 38, 0
4, 51633, Note_on_c, 9, 40, 17
4, 51649, Note_on_c, 9, 40, 0
4, 51674, Note_on_c, 9, 40, 58
4, 51693, Note_on_c, 9, 36, 27
4, 51701, Note_on_c, 9, 40, 0
4, 51705, Note_on_c, 9, 36, 0
4, 51715, Note_on_c, 9, 44, 36
4, 51726, Note_on_c, 9, 40, 58
4, 51781, Note_on_c, 9, 40, 0
4, 51801, Note_on_c, 9, 36, 36
4, 51808, Note_on_c, 9, 38, 55
4, 51814, Note_on_c, 9, 36, 0
4, 51816, Note_on_c, 9, 44, 0
4, 51820, Note_on_c, 9, 38, 0
4, 51843, Note_on_c, 9, 36, 33
4, 51858, Note_on_c, 9, 40, 39
4, 51875, Note_on_c, 9, 36, 0
4, 51885, Note_on_c, 9, 40, 0
4, 51913, Note_on_c, 9, 40, 49
4, 51936, Note_on_c, 9, 40, 0
4, 51960, Note_on_c, 9, 40, 50
4, 51960, Note_on_c, 9, 44, 37
4, 52029, Note_on_c, 9, 40, 0
4, 52044, Note_on_c, 9, 39, 35
4, 52044, Note_on_c, 9, 36, 36
4, 52055, Note_on_c, 9, 39, 0
4, 52056, Note_on_c, 9, 36, 0
4, 52073, Note_on_c, 9, 44, 0
4, 52152, Note_on_c, 9, 39, 69
4, 52197, Note_on_c, 9, 44, 44
4, 52238, Note_on_c, 9, 39, 0
4, 52278, Note_on_c, 9, 40, 37
4, 52282, Note_on_c, 9, 44, 0
4, 52302, Note_on_c, 9, 40, 0
4, 52327, Note_on_c, 9, 40, 43
4, 52387, Note_on_c, 9, 39, 86
4, 52390, Note_on_c, 9, 40, 0
4, 52394, Note_on_c, 9, 34, 53
4, 52432, Note_on_c, 9, 34, 0
4, 52438, Note_on_c, 9, 40, 32
4, 52440, Note_on_c, 9, 44, 42
4, 52455, Note_on_c, 9, 39, 0
4, 52458, Note_on_c, 9, 40, 0
4, 52494, Note_on_c, 9, 44, 0
4, 52521, Note_on_c, 9, 39, 59
4, 52543, Note_on_c, 9, 39, 0
4, 52560, Note_on_c, 9, 40, 62
4, 52641, Note_on_c, 9, 40, 0
4, 52641, Note_on_c, 9, 39, 49
4, 52661, Note_on_c, 9, 39, 0
4, 52680, Note_on_c, 9, 46, 27
4, 52693, Note_on_c, 9, 40, 55
4, 52707, Note_on_c, 9, 46, 0
4, 52711, Note_on_c, 9, 40, 0
4, 52769, Note_on_c, 9, 39, 88
4, 52771, Note_on_c, 9, 40, 71
4, 52779, Note_on_c, 9, 34, 42
4, 52791, Note_on_c, 9, 34, 0
4, 52878, Note_on_c, 9, 40, 0
4, 52899, Note_on_c, 9, 40, 38
4, 52904, Note_on_c, 9, 39, 0
4, 52909, Note_on_c, 9, 44, 38
4, 52912, Note_on_c, 9, 40, 0
4, 52941, Note_on_c, 9, 40, 32
4, 52955, Note_on_c, 9, 44, 0
4, 53002, Note_on_c, 9, 39, 58
4, 53007, Note_on_c, 9, 40, 0
4, 53025, Note_on_c, 9, 39, 0
4, 53041, Note_on_c, 9, 40, 28
4, 53123, Note_on_c, 9, 40, 0
4, 53155, Note_on_c, 9, 44, 51
4, 53224, Note_on_c, 9, 44, 0
4, 53231, Note_on_c, 9, 39, 36
4, 53241, Note_on_c, 9, 39, 0
4, 53244, Note_on_c, 9, 36, 32
4, 53257, Note_on_c, 9, 36, 0
4, 53276, Note_on_c, 9, 40, 41
4, 53290, Note_on_c, 9, 36, 27
4, 53326, Note_on_c, 9, 36, 0
4, 53360, Note_on_c, 9, 40, 0
4, 53362, Note_on_c, 9, 39, 31
4, 53372, Note_on_c, 9, 39, 0
4, 53395, Note_on_c, 9, 40, 26
4, 53400, Note_on_c, 9, 44, 37
4, 53448, Note_on_c, 9, 44, 0
4, 53460, Note_on_c, 9, 40, 0
4, 53521, Note_on_c, 9, 40, 27
4, 53595, Note_on_c, 9, 39, 52
4, 53615, Note_on_c, 9, 39, 0
4, 53640, Note_on_c, 9, 44, 71
4, 53690, Note_on_c, 9, 44, 0
4, 53713, Note_on_c, 9, 49, 69
4, 53720, Note_on_c, 9, 36, 35
4, 53755, Note_on_c, 9, 57, 42
4, 53759, Note_on_c, 9, 49, 0
4, 53819, Note_on_c, 9, 57, 0
4, 53879, Note_on_c, 9, 44, 58
4, 53935, Note_on_c, 9, 44, 0
4, 53951, Note_on_c, 9, 39, 42
4, 53953, Note_on_c, 9, 36, 0
4, 53954, Note_on_c, 9, 40, 0
4, 53965, Note_on_c, 9, 39, 0
4, 53998, Note_on_c, 9, 40, 26
4, 54075, Note_on_c, 9, 40, 0
4, 54090, Note_on_c, 9, 36, 30
4, 54116, Note_on_c, 9, 44, 51
4, 54118, Note_on_c, 9, 40, 49
4, 54152, Note_on_c, 9, 36, 0
4, 54166, Note_on_c, 9, 44, 0
4, 54181, Note_on_c, 9, 40, 0
4, 54210, Note_on_c, 9, 40, 49
4, 54322, Note_on_c, 9, 40, 0
4, 54323, Note_on_c, 9, 39, 54
4, 54345, Note_on_c, 9, 39, 0
4, 54356, Note_on_c, 9, 44, 60
4, 54366, Note_on_c, 9, 40, 37
4, 54393, Note_on_c, 9, 44, 0
4, 54452, Note_on_c, 9, 40, 0
4, 54484, Note_on_c, 9, 40, 38
4, 54567, Note_on_c, 9, 40, 0
4, 54599, Note_on_c, 9, 40, 50
4, 54603, Note_on_c, 9, 44, 61
4, 54650, Note_on_c, 9, 44, 0
4, 54666, Note_on_c, 9, 40, 0
4, 54689, Note_on_c, 9, 40, 43
4, 54700, Note_on_c, 9, 40, 0
4, 54724, Note_on_c, 9, 40, 50
4, 54824, Note_on_c, 9, 40, 0
4, 54836, Note_on_c, 9, 44, 62
4, 54839, Note_on_c, 9, 40, 37
4, 54871, Note_on_c, 9, 44, 0
4, 54912, Note_on_c, 9, 40, 0
4, 54932, Note_on_c, 9, 40, 33
4, 54945, Note_on_c, 9, 40, 0
4, 54969, Note_on_c, 9, 40, 51
4, 55065, Note_on_c, 9, 40, 0
4, 55080, Note_on_c, 9, 40, 46
4, 55087, Note_on_c, 9, 44, 62
4, 55126, Note_on_c, 9, 44, 0
4, 55182, Note_on_c, 9, 40, 0
4, 55204, Note_on_c, 9, 40, 51
4, 55278, Note_on_c, 9, 40, 0
4, 55292, Note_on_c, 9, 40, 33
4, 55306, Note_on_c, 9, 40, 0
4, 55323, Note_on_c, 9, 39, 25
4, 55327, Note_on_c, 9, 44, 62
4, 55329, Note_on_c, 9, 40, 53
4, 55337, Note_on_c, 9, 39, 0
4, 55358, Note_on_c, 9, 39, 42
4, 55362, Note_on_c, 9, 44, 0
4, 55371, Note_on_c, 9, 39, 0
4, 55423, Note_on_c, 9, 40, 0
4, 55439, Note_on_c, 9, 40, 43
4, 55454, Note_on_c, 9, 39, 26
4, 55466, Note_on_c, 9, 39, 0
4, 55515, Note_on_c, 9, 39, 39
4, 55528, Note_on_c, 9, 39, 0
4, 55542, Note_on_c, 9, 40, 0
4, 55564, Note_on_c, 9, 36, 32
4, 55564, Note_on_c, 9, 44, 65
4, 55566, Note_on_c, 9, 40, 58
4, 55585, Note_on_c, 9, 36, 0
4, 55600, Note_on_c, 9, 44, 0
4, 55632, Note_on_c, 9, 40, 0
4, 55636, Note_on_c, 9, 36, 42
4, 55640, Note_on_c, 9, 39, 60
4, 55650, Note_on_c, 9, 36, 0
4, 55679, Note_on_c, 9, 36, 44
4, 55682, Note_on_c, 9, 40, 47
4, 55683, Note_on_c, 9, 39, 0
4, 55709, Note_on_c, 9, 36, 0
4, 55775, Note_on_c, 9, 40, 0
4, 55779, Note_on_c, 9, 39, 25
4, 55789, Note_on_c, 9, 39, 0
4, 55802, Note_on_c, 9, 44, 69
4, 55804, Note_on_c, 9, 40, 47
4, 55842, Note_on_c, 9, 44, 0
4, 55893, Note_on_c, 9, 40, 0
4, 55925, Note_on_c, 9, 40, 49
4, 55986, Note_on_c, 9, 39, 23
4, 55989, Note_on_c, 9, 40, 0
4, 55997, Note_on_c, 9, 39, 0
4, 56001, Note_on_c, 9, 38, 54
4, 56023, Note_on_c, 9, 38, 0
4, 56036, Note_on_c, 9, 40, 30
4, 56037, Note_on_c, 9, 44, 59
4, 56066, Note_on_c, 9, 44, 0
4, 56109, Note_on_c, 9, 36, 20
4, 56125, Note_on_c, 9, 38, 60
4, 56131, Note_on_c, 9, 36, 0
4, 56132, Note_on_c, 9, 40, 0
4, 56158, Note_on_c, 9, 40, 38
4, 56160, Note_on_c, 9, 38, 0
4, 56232, Note_on_c, 9, 40, 0
4, 56239, Note_on_c, 9, 38, 48
4, 56255, Note_on_c, 9, 38, 0
4, 56272, Note_on_c, 9, 46, 34
4, 56276, Note_on_c, 9, 40, 47
4, 56287, Note_on_c, 9, 46, 0
4, 56352, Note_on_c, 9, 40, 0
4, 56367, Note_on_c, 9, 38, 37
4, 56384, Note_on_c, 9, 38, 0
4, 56399, Note_on_c, 9, 40, 40
4, 56431, Note_on_c, 9, 40, 0
4, 56476, Note_on_c, 9, 39, 44
4, 56483, Note_on_c, 9, 38, 68
4, 56485, Note_on_c, 9, 40, 62
4, 56487, Note_on_c, 9, 39, 0
4, 56511, Note_on_c, 9, 44, 57
4, 56534, Note_on_c, 9, 44, 0
4, 56589, Note_on_c, 9, 38, 0
4, 56600, Note_on_c, 9, 36, 24
4, 56615, Note_on_c, 9, 36, 0
4, 56616, Note_on_c, 9, 38, 36
4, 56630, Note_on_c, 9, 40, 0
4, 56633, Note_on_c, 9, 39, 42
4, 56635, Note_on_c, 9, 38, 0
4, 56646, Note_on_c, 9, 39, 0
4, 56646, Note_on_c, 9, 36, 35
4, 56681, Note_on_c, 9, 36, 0
4, 56725, Note_on_c, 9, 40, 46
4, 56733, Note_on_c, 9, 38, 37
4, 56746, Note_on_c, 9, 38, 0
4, 56756, Note_on_c, 9, 40, 0
4, 56757, Note_on_c, 9, 44, 52
4, 56766, Note_on_c, 9, 39, 32
4, 56781, Note_on_c, 9, 44, 0
4, 56826, Note_on_c, 9, 39, 0
4, 56840, Note_on_c, 9, 40, 43
4, 56843, Note_on_c, 9, 38, 46
4, 56870, Note_on_c, 9, 38, 0
4, 56873, Note_on_c, 9, 40, 0
4, 56885, Note_on_c, 9, 40, 22
4, 56886, Note_on_c, 9, 38, 28
4, 56968, Note_on_c, 9, 40, 0
4, 56977, Note_on_c, 9, 38, 0
4, 56990, Note_on_c, 9, 46, 38
4, 56999, Note_on_c, 9, 40, 40
4, 56999, Note_on_c, 9, 38, 46
4, 57007, Note_on_c, 9, 46, 0
4, 57077, Note_on_c, 9, 39, 45
4, 57087, Note_on_c, 9, 40, 0
4, 57092, Note_on_c, 9, 39, 0
4, 57098, Note_on_c, 9, 38, 0
4, 57119, Note_on_c, 9, 40, 46
4, 57119, Note_on_c, 9, 36, 30
4, 57121, Note_on_c, 9, 38, 35
4, 57183, Note_on_c, 9, 40, 0
4, 57189, Note_on_c, 9, 36, 0
4, 57195, Note_on_c, 9, 38, 0
4, 57206, Note_on_c, 9, 40, 33
4, 57217, Note_on_c, 9, 38, 32
4, 57231, Note_on_c, 9, 40, 0
4, 57235, Note_on_c, 9, 38, 0
4, 57237, Note_on_c, 9, 46, 33
4, 57248, Note_on_c, 9, 40, 36
4, 57263, Note_on_c, 9, 46, 0
4, 57342, Note_on_c, 9, 40, 0
4, 57357, Note_on_c, 9, 39, 44
4, 57440, Note_on_c, 9, 39, 36
4, 57450, Note_on_c, 9, 39, 0
4, 57471, Note_on_c, 9, 46, 56
4, 57484, Note_on_c, 9, 40, 52
4, 57487, Note_on_c, 9, 39, 0
4, 57492, Note_on_c, 9, 46, 0
4, 57543, Note_on_c, 9, 40, 0
4, 57552, Note_on_c, 9, 36, 63
4, 57557, Note_on_c, 9, 39, 47
4, 57579, Note_on_c, 9, 39, 0
4, 57593, Note_on_c, 9, 36, 0
4, 57594, Note_on_c, 9, 40, 39
4, 57696, Note_on_c, 9, 40, 0
4, 57718, Note_on_c, 9, 44, 51
4, 57723, Note_on_c, 9, 40, 49
4, 57741, Note_on_c, 9, 44, 0
4, 57811, Note_on_c, 9, 40, 0
4, 57846, Note_on_c, 9, 40, 36
4, 57917, Note_on_c, 9, 39, 30
4, 57925, Note_on_c, 9, 40, 0
4, 57927, Note_on_c, 9, 39, 0
4, 57961, Note_on_c, 9, 44, 47
4, 57964, Note_on_c, 9, 40, 51
4, 57965, Note_on_c, 9, 36, 66
4, 57986, Note_on_c, 9, 44, 0
4, 58028, Note_on_c, 9, 40, 0
4, 58031, Note_on_c, 9, 39, 56
4, 58054, Note_on_c, 9, 36, 0
4, 58055, Note_on_c, 9, 39, 0
4, 58078, Note_on_c, 9, 40, 41
4, 58161, Note_on_c, 9, 40, 0
4, 58197, Note_on_c, 9, 40, 41
4, 58200, Note_on_c, 9, 44, 51
4, 58223, Note_on_c, 9, 44, 0
4, 58286, Note_on_c, 9, 40, 0
4, 58323, Note_on_c, 9, 40, 53
4, 58407, Note_on_c, 9, 40, 0
4, 58444, Note_on_c, 9, 44, 51
4, 58447, Note_on_c, 9, 40, 53
4, 58474, Note_on_c, 9, 44, 0
4, 58499, Note_on_c, 9, 40, 0
4, 58528, Note_on_c, 9, 40, 55
4, 58541, Note_on_c, 9, 40, 0
4, 58563, Note_on_c, 9, 40, 54
4, 58657, Note_on_c, 9, 40, 0
4, 58680, Note_on_c, 9, 40, 56
4, 58683, Note_on_c, 9, 44, 55
4, 58717, Note_on_c, 9, 44, 0
4, 58754, Note_on_c, 9, 40, 0
4, 58776, Note_on_c, 9, 40, 39
4, 58790, Note_on_c, 9, 40, 0
4, 58809, Note_on_c, 9, 40, 39
4, 58900, Note_on_c, 9, 40, 0
4, 58923, Note_on_c, 9, 44, 58
4, 58931, Note_on_c, 9, 40, 54
4, 58953, Note_on_c, 9, 44, 0
4, 58995, Note_on_c, 9, 40, 0
4, 59022, Note_on_c, 9, 40, 42
4, 59035, Note_on_c, 9, 40, 0
4, 59052, Note_on_c, 9, 40, 45
4, 59140, Note_on_c, 9, 40, 0
4, 59162, Note_on_c, 9, 44, 55
4, 59171, Note_on_c, 9, 40, 35
4, 59194, Note_on_c, 9, 44, 0
4, 59248, Note_on_c, 9, 39, 67
4, 59257, Note_on_c, 9, 40, 0
4, 59272, Note_on_c, 9, 39, 0
4, 59288, Note_on_c, 9, 40, 36
4, 59364, Note_on_c, 9, 40, 0
4, 59369, Note_on_c, 9, 39, 29
4, 59379, Note_on_c, 9, 39, 0
4, 59379, Note_on_c, 9, 40, 42
4, 59396, Note_on_c, 9, 40, 0
4, 59402, Note_on_c, 9, 44, 51
4, 59421, Note_on_c, 9, 40, 32
4, 59429, Note_on_c, 9, 44, 0
4, 59480, Note_on_c, 9, 40, 0
4, 59481, Note_on_c, 9, 36, 22
4, 59492, Note_on_c, 9, 36, 0
4, 59495, Note_on_c, 9, 40, 53
4, 59518, Note_on_c, 9, 40, 0
4, 59529, Note_on_c, 9, 36, 28
4, 59537, Note_on_c, 9, 40, 60
4, 59546, Note_on_c, 9, 36, 0
4, 59615, Note_on_c, 9, 40, 0
4, 59644, Note_on_c, 9, 40, 46
4, 59644, Note_on_c, 9, 44, 52
4, 59673, Note_on_c, 9, 44, 0
4, 59722, Note_on_c, 9, 40, 0
4, 59729, Note_on_c, 9, 36, 39
4, 59738, Note_on_c, 9, 40, 36
4, 59743, Note_on_c, 9, 36, 0
4, 59751, Note_on_c, 9, 40, 0
4, 59771, Note_on_c, 9, 40, 44
4, 59792, Note_on_c, 9, 40, 0
4, 59845, Note_on_c, 9, 40, 77
4, 59875, Note_on_c, 9, 40, 0
4, 59877, Note_on_c, 9, 44, 38
4, 59878, Note_on_c, 9, 46, 29
4, 59885, Note_on_c, 9, 40, 35
4, 59899, Note_on_c, 9, 44, 0
4, 59904, Note_on_c, 9, 46, 0
4, 59970, Note_on_c, 9, 40, 0
4, 60002, Note_on_c, 9, 40, 59
4, 60097, Note_on_c, 9, 39, 44
4, 60115, Note_on_c, 9, 44, 51
4, 60121, Note_on_c, 9, 39, 0
4, 60121, Note_on_c, 9, 59, 54
4, 60139, Note_on_c, 9, 44, 0
4, 60220, Note_on_c, 9, 40, 0
4, 60240, Note_on_c, 9, 40, 49
4, 60316, Note_on_c, 9, 59, 0
4, 60334, Note_on_c, 9, 39, 30
4, 60354, Note_on_c, 9, 39, 0
4, 60362, Note_on_c, 9, 46, 37
4, 60364, Note_on_c, 9, 40, 0
4, 60365, Note_on_c, 9, 59, 88
4, 60382, Note_on_c, 9, 46, 0
4, 60477, Note_on_c, 9, 40, 27
4, 60555, Note_on_c, 9, 59, 0
4, 60570, Note_on_c, 9, 39, 25
4, 60587, Note_on_c, 9, 39, 0
4, 60602, Note_on_c, 9, 59, 82
4, 60604, Note_on_c, 9, 46, 44
4, 60626, Note_on_c, 9, 40, 0
4, 60633, Note_on_c, 9, 46, 0
4, 60689, Note_on_c, 9, 40, 67
4, 60801, Note_on_c, 9, 59, 0
4, 60817, Note_on_c, 9, 39, 33
4, 60835, Note_on_c, 9, 37, 43
4, 60842, Note_on_c, 9, 39, 0
4, 60844, Note_on_c, 9, 46, 44
4, 60849, Note_on_c, 9, 59, 99
4, 60856, Note_on_c, 9, 40, 0
4, 60889, Note_on_c, 9, 46, 0
4, 60958, Note_on_c, 9, 37, 0
4, 61041, Note_on_c, 9, 40, 60
4, 61051, Note_on_c, 9, 40, 0
4, 61085, Note_on_c, 9, 46, 49
4, 61124, Note_on_c, 9, 46, 0
4, 61167, Note_on_c, 9, 59, 0
4, 61203, Note_on_c, 9, 59, 95
4, 61295, Note_on_c, 9, 59, 0
4, 61323, Note_on_c, 9, 59, 83
4, 61325, Note_on_c, 9, 46, 53
4, 61356, Note_on_c, 9, 46, 0
4, 61398, Note_on_c, 9, 59, 0
4, 61408, Note_on_c, 9, 38, 44
4, 61413, Note_on_c, 9, 59, 62
4, 61423, Note_on_c, 9, 38, 0
4, 61429, Note_on_c, 9, 59, 0
4, 61440, Program_c, 9, 32
4, 61449, Note_on_c, 9, 59, 85
4, 61458, Note_on_c, 9, 36, 27
4, 61491, Note_on_c, 9, 36, 0
4, 61549, Note_on_c, 9, 59, 0
4, 61566, Note_on_c, 9, 44, 62
4, 61580, Note_on_c, 9, 59, 77
4, 61591, Note_on_c, 9, 44, 0
4, 61655, Note_on_c, 9, 59, 0
4, 61693, Note_on_c, 9, 53, 66
4, 61694, Note_on_c, 9, 59, 64
4, 61808, Note_on_c, 9, 44, 70
4, 61838, Note_on_c, 9, 44, 0
4, 61869, Note_on_c, 9, 59, 0
4, 61873, Note_on_c, 9, 53, 0
4, 61887, Note_on_c, 9, 38, 64
4, 61894, Note_on_c, 9, 59, 53
4, 61907, Note_on_c, 9, 38, 0
4, 61908, Note_on_c, 9, 59, 0
4, 61931, Note_on_c, 9, 59, 67
4, 61931, Note_on_c, 9, 38, 57
4, 61955, Note_on_c, 9, 38, 0
4, 62008, Note_on_c, 9, 36, 30
4, 62020, Note_on_c, 9, 59, 0
4, 62030, Note_on_c, 9, 36, 0
4, 62043, Note_on_c, 9, 59, 75
4, 62044, Note_on_c, 9, 44, 64
4, 62073, Note_on_c, 9, 36, 19
4, 62089, Note_on_c, 9, 36, 0
4, 62103, Note_on_c, 9, 59, 0
4, 62117, Note_on_c, 9, 44, 0
4, 62132, Note_on_c, 9, 36, 59
4, 62134, Note_on_c, 9, 59, 51
4, 62145, Note_on_c, 9, 59, 0
4, 62168, Note_on_c, 9, 59, 75
4, 62172, Note_on_c, 9, 36, 0
4, 62253, Note_on_c, 9, 59, 0
4, 62284, Note_on_c, 9, 44, 54
4, 62285, Note_on_c, 9, 59, 91
4, 62341, Note_on_c, 9, 44, 0
4, 62347, Note_on_c, 9, 59, 0
4, 62367, Note_on_c, 9, 59, 68
4, 62384, Note_on_c, 9, 59, 0
4, 62405, Note_on_c, 9, 59, 87
4, 62485, Note_on_c, 9, 59, 0
4, 62518, Note_on_c, 9, 44, 67
4, 62526, Note_on_c, 9, 59, 101
4, 62586, Note_on_c, 9, 44, 0
4, 62595, Note_on_c, 9, 59, 0
4, 62621, Note_on_c, 9, 59, 37
4, 62634, Note_on_c, 9, 59, 0
4, 62641, Note_on_c, 9, 38, 33
4, 62650, Note_on_c, 9, 59, 87
4, 62653, Note_on_c, 9, 38, 0
4, 62683, Note_on_c, 9, 38, 28
4, 62695, Note_on_c, 9, 38, 0
4, 62713, Note_on_c, 9, 38, 45
4, 62724, Note_on_c, 9, 38, 0
4, 62729, Note_on_c, 9, 59, 0
4, 62760, Note_on_c, 9, 44, 67
4, 62763, Note_on_c, 9, 59, 99
4, 62765, Note_on_c, 9, 36, 28
4, 62781, Note_on_c, 9, 36, 0
4, 62808, Note_on_c, 9, 44, 0
4, 62846, Note_on_c, 9, 59, 0
4, 62887, Note_on_c, 9, 59, 92
4, 62953, Note_on_c, 9, 59, 0
4, 63001, Note_on_c, 9, 44, 64
4, 63005, Note_on_c, 9, 59, 87
4, 63089, Note_on_c, 9, 44, 0
4, 63091, Note_on_c, 9, 59, 0
4, 63122, Note_on_c, 9, 38, 26
4, 63124, Note_on_c, 9, 59, 95
4, 63135, Note_on_c, 9, 38, 0
4, 63155, Note_on_c, 9, 38, 52
4, 63165, Note_on_c, 9, 38, 0
4, 63194, Note_on_c, 9, 59, 0
4, 63215, Note_on_c, 9, 59, 60
4, 63226, Note_on_c, 9, 59, 0
4, 63238, Note_on_c, 9, 44, 68
4, 63247, Note_on_c, 9, 59, 87
4, 63252, Note_on_c, 9, 38, 40
4, 63263, Note_on_c, 9, 38, 0
4, 63279, Note_on_c, 9, 38, 45
4, 63289, Note_on_c, 9, 38, 0
4, 63302, Note_on_c, 9, 44, 0
4, 63306, Note_on_c, 9, 59, 0
4, 63330, Note_on_c, 9, 36, 33
4, 63334, Note_on_c, 9, 59, 94
4, 63343, Note_on_c, 9, 36, 0
4, 63361, Note_on_c, 9, 36, 36
4, 63389, Note_on_c, 9, 36, 0
4, 63429, Note_on_c, 9, 36, 48
4, 63447, Note_on_c, 9, 59, 0
4, 63458, Note_on_c, 9, 59, 43
4, 63473, Note_on_c, 9, 36, 0
4, 63474, Note_on_c, 9, 59, 0
4, 63482, Note_on_c, 9, 44, 62
4, 63496, Note_on_c, 9, 59, 82
4, 63550, Note_on_c, 9, 44, 0
4, 63576, Note_on_c, 9, 59, 0
4, 63610, Note_on_c, 9, 59, 85
4, 63686, Note_on_c, 9, 59, 0
4, 63713, Note_on_c, 9, 53, 39
4, 63722, Note_on_c, 9, 44, 64
4, 63726, Note_on_c, 9, 53, 0
4, 63731, Note_on_c, 9, 59, 61
4, 63808, Note_on_c, 9, 44, 0
4, 63817, Note_on_c, 9, 59, 0
4, 63846, Note_on_c, 9, 59, 69
4, 63925, Note_on_c, 9, 59, 0
4, 63926, Note_on_c, 9, 38, 37
4, 63939, Note_on_c, 9, 38, 0
4, 63959, Note_on_c, 9, 44, 62
4, 63963, Note_on_c, 9, 59, 76
4, 64027, Note_on_c, 9, 44, 0
4, 64030, Note_on_c, 9, 59, 0
4, 64055, Note_on_c, 9, 59, 51
4, 64067, Note_on_c, 9, 59, 0
4, 64094, Note_on_c, 9, 59, 64
4, 64158, Note_on_c, 9, 59, 0
4, 64168, Note_on_c, 9, 38, 24
4, 64182, Note_on_c, 9, 38, 0
4, 64197, Note_on_c, 9, 44, 69
4, 64211, Note_on_c, 9, 38, 35
4, 64212, Note_on_c, 9, 59, 101
4, 64223, Note_on_c, 9, 38, 0
4, 64251, Note_on_c, 9, 44, 0
4, 64278, Note_on_c, 9, 59, 0
4, 64288, Note_on_c, 9, 57, 54
4, 64291, Note_on_c, 9, 36, 42
4, 64298, Note_on_c, 9, 57, 0
4, 64308, Note_on_c, 9, 36, 0
4, 64326, Note_on_c, 9, 59, 103
4, 64392, Note_on_c, 9, 59, 0
4, 64432, Note_on_c, 9, 44, 67
4, 64439, Note_on_c, 9, 59, 105
4, 64488, Note_on_c, 9, 44, 0
4, 64514, Note_on_c, 9, 59, 0
4, 64557, Note_on_c, 9, 59, 103
4, 64629, Note_on_c, 9, 59, 0
4, 64638, Note_on_c, 9, 38, 43
4, 64649, Note_on_c, 9, 38, 0
4, 64680, Note_on_c, 9, 44, 64
4, 64681, Note_on_c, 9, 59, 95
4, 64741, Note_on_c, 9, 44, 0
4, 64756, Note_on_c, 9, 38, 48
4, 64758, Note_on_c, 9, 59, 0
4, 64766, Note_on_c, 9, 38, 0
4, 64803, Note_on_c, 9, 59, 88
4, 64862, Note_on_c, 9, 38, 55
4, 64873, Note_on_c, 9, 38, 0
4, 64879, Note_on_c, 9, 59, 0
4, 64910, Note_on_c, 9, 44, 59
4, 64923, Note_on_c, 9, 59, 83
4, 64971, Note_on_c, 9, 44, 0
4, 65006, Note_on_c, 9, 45, 84
4, 65007, Note_on_c, 9, 59, 0
4, 65025, Note_on_c, 9, 45, 0
4, 65031, Note_on_c, 9, 38, 35
4, 65049, Note_on_c, 9, 59, 55
4, 65074, Note_on_c, 9, 38, 0
4, 65117, Note_on_c, 9, 59, 0
4, 65135, Note_on_c, 9, 59, 51
4, 65147, Note_on_c, 9, 44, 62
4, 65148, Note_on_c, 9, 59, 0
4, 65157, Note_on_c, 9, 38, 46
4, 65168, Note_on_c, 9, 38, 0
4, 65171, Note_on_c, 9, 59, 62
4, 65216, Note_on_c, 9, 44, 0
4, 65231, Note_on_c, 9, 38, 37
4, 65235, Note_on_c, 9, 59, 0
4, 65246, Note_on_c, 9, 59, 46
4, 65264, Note_on_c, 9, 59, 0
4, 65264, Note_on_c, 9, 38, 0
4, 65280, Note_on_c, 9, 36, 43
4, 65284, Note_on_c, 9, 59, 78
4, 65328, Note_on_c, 9, 36, 0
4, 65365, Note_on_c, 9, 59, 0
4, 65388, Note_on_c, 9, 44, 64
4, 65403, Note_on_c, 9, 59, 88
4, 65440, Note_on_c, 9, 44, 0
4, 65468, Note_on_c, 9, 59, 0
4, 65493, Note_on_c, 9, 59, 51
4, 65505, Note_on_c, 9, 59, 0
4, 65529, Note_on_c, 9, 59, 78
4, 65601, Note_on_c, 9, 38, 45
4, 65612, Note_on_c, 9, 59, 0
4, 65614, Note_on_c, 9, 38, 0
4, 65639, Note_on_c, 9, 57, 45
4, 65640, Note_on_c, 9, 44, 63
4, 65645, Note_on_c, 9, 36, 39
4, 65646, Note_on_c, 9, 59, 80
4, 65662, Note_on_c, 9, 57, 0
4, 65687, Note_on_c, 9, 36, 0
4, 65707, Note_on_c, 9, 59, 0
4, 65716, Note_on_c, 9, 44, 0
4, 65730, Note_on_c, 9, 59, 60
4, 65756, Note_on_c, 9, 59, 0
4, 65770, Note_on_c, 9, 59, 57
4, 65847, Note_on_c, 9, 59, 0
4, 65877, Note_on_c, 9, 46, 44
4, 65888, Note_on_c, 9, 59, 80
4, 65915, Note_on_c, 9, 46, 0
4, 65995, Note_on_c, 9, 59, 0
4, 66078, Note_on_c, 9, 59, 66
4, 66088, Note_on_c, 9, 59, 0
4, 66117, Note_on_c, 9, 44, 60
4, 66122, Note_on_c, 9, 59, 85
4, 66178, Note_on_c, 9, 44, 0
4, 66203, Note_on_c, 9, 59, 0
4, 66234, Note_on_c, 9, 38, 34
4, 66242, Note_on_c, 9, 59, 55
4, 66246, Note_on_c, 9, 38, 0
4, 66253, Note_on_c, 9, 59, 0
4, 66267, Note_on_c, 9, 38, 51
4, 66282, Note_on_c, 9, 38, 0
4, 66319, Note_on_c, 9, 59, 83
4, 66355, Note_on_c, 9, 44, 65
4, 66399, Note_on_c, 9, 59, 0
4, 66411, Note_on_c, 9, 44, 0
4, 66495, Note_on_c, 9, 59, 87
4, 66571, Note_on_c, 9, 59, 0
4, 66598, Note_on_c, 9, 44, 61
4, 66616, Note_on_c, 9, 59, 53
4, 66641, Note_on_c, 9, 59, 0
4, 66657, Note_on_c, 9, 44, 0
4, 66688, Note_on_c, 9, 59, 89
4, 66786, Note_on_c, 9, 59, 0
4, 66799, Note_on_c, 9, 38, 45
4, 66813, Note_on_c, 9, 59, 51
4, 66833, Note_on_c, 9, 59, 0
4, 66841, Note_on_c, 9, 44, 64
4, 66854, Note_on_c, 9, 59, 80
4, 66902, Note_on_c, 9, 38, 0
4, 66904, Note_on_c, 9, 44, 0
4, 66939, Note_on_c, 9, 59, 0
4, 66965, Note_on_c, 9, 38, 47
4, 66971, Note_on_c, 9, 59, 76
4, 67031, Note_on_c, 9, 59, 0
4, 67053, Note_on_c, 9, 38, 0
4, 67076, Note_on_c, 9, 44, 51
4, 67079, Note_on_c, 9, 59, 74
4, 67132, Note_on_c, 9, 59, 0
4, 67137, Note_on_c, 9, 44, 0
4, 67164, Note_on_c, 9, 38, 43
4, 67168, Note_on_c, 9, 59, 64
4, 67192, Note_on_c, 9, 59, 0
4, 67206, Note_on_c, 9, 59, 64
4, 67237, Note_on_c, 9, 38, 0
4, 67281, Note_on_c, 9, 36, 34
4, 67288, Note_on_c, 9, 59, 0
4, 67295, Note_on_c, 9, 36, 0
4, 67323, Note_on_c, 9, 44, 51
4, 67324, Note_on_c, 9, 59, 80
4, 67337, Note_on_c, 9, 38, 22
4, 67374, Note_on_c, 9, 38, 0
4, 67383, Note_on_c, 9, 59, 0
4, 67401, Note_on_c, 9, 38, 35
4, 67406, Note_on_c, 9, 44, 0
4, 67413, Note_on_c, 9, 59, 50
4, 67420, Note_on_c, 9, 38, 0
4, 67441, Note_on_c, 9, 59, 0
4, 67447, Note_on_c, 9, 38, 42
4, 67451, Note_on_c, 9, 59, 42
4, 67498, Note_on_c, 9, 38, 0
4, 67530, Note_on_c, 9, 59, 0
4, 67563, Note_on_c, 9, 44, 52
4, 67569, Note_on_c, 9, 59, 82
4, 67635, Note_on_c, 9, 59, 0
4, 67659, Note_on_c, 9, 59, 57
4, 67661, Note_on_c, 9, 44, 0
4, 67686, Note_on_c, 9, 59, 0
4, 67694, Note_on_c, 9, 59, 46
4, 67774, Note_on_c, 9, 59, 0
4, 67803, Note_on_c, 9, 44, 55
4, 67809, Note_on_c, 9, 59, 79
4, 67870, Note_on_c, 9, 59, 0
4, 67883, Note_on_c, 9, 38, 27
4, 67896, Note_on_c, 9, 59, 48
4, 67898, Note_on_c, 9, 38, 0
4, 67904, Note_on_c, 9, 44, 0
4, 67919, Note_on_c, 9, 59, 0
4, 67924, Note_on_c, 9, 38, 32
4, 67929, Note_on_c, 9, 59, 47
4, 67968, Note_on_c, 9, 38, 0
4, 68002, Note_on_c, 9, 59, 0
4, 68003, Note_on_c, 9, 36, 27
4, 68015, Note_on_c, 9, 36, 0
4, 68042, Note_on_c, 9, 59, 80
4, 68044, Note_on_c, 9, 44, 56
4, 68102, Note_on_c, 9, 59, 0
4, 68121, Note_on_c, 9, 38, 32
4, 68133, Note_on_c, 9, 38, 0
4, 68136, Note_on_c, 9, 59, 49
4, 68146, Note_on_c, 9, 44, 0
4, 68151, Note_on_c, 9, 59, 0
4, 68168, Note_on_c, 9, 59, 65
4, 68248, Note_on_c, 9, 59, 0
4, 68279, Note_on_c, 9, 44, 55
4, 68282, Note_on_c, 9, 59, 80
4, 68346, Note_on_c, 9, 59, 0
4, 68346, Note_on_c, 9, 44, 0
4, 68370, Note_on_c, 9, 59, 47
4, 68388, Note_on_c, 9, 59, 0
4, 68403, Note_on_c, 9, 59, 60
4, 68481, Note_on_c, 9, 36, 23
4, 68493, Note_on_c, 9, 36, 0
4, 68495, Note_on_c, 9, 59, 0
4, 68518, Note_on_c, 9, 38, 36
4, 68521, Note_on_c, 9, 59, 80
4, 68521, Note_on_c, 9, 44, 67
4, 68529, Note_on_c, 9, 38, 0
4, 68552, Note_on_c, 9, 38, 36
4, 68563, Note_on_c, 9, 38, 0
4, 68577, Note_on_c, 9, 44, 0
4, 68604, Note_on_c, 9, 59, 0
4, 68643, Note_on_c, 9, 59, 76
4, 68711, Note_on_c, 9, 59, 0
4, 68731, Note_on_c, 9, 59, 60
4, 68745, Note_on_c, 9, 59, 0
4, 68766, Note_on_c, 9, 59, 85
4, 68766, Note_on_c, 9, 44, 58
4, 68820, Note_on_c, 9, 44, 0
4, 68842, Note_on_c, 9, 38, 40
4, 68853, Note_on_c, 9, 38, 0
4, 68859, Note_on_c, 9, 59, 0
4, 68887, Note_on_c, 9, 59, 81
4, 68958, Note_on_c, 9, 59, 0
4, 68959, Note_on_c, 9, 38, 48
4, 68978, Note_on_c, 9, 38, 0
4, 68979, Note_on_c, 9, 59, 60
4, 68997, Note_on_c, 9, 59, 0
4, 68999, Note_on_c, 9, 44, 64
4, 69013, Note_on_c, 9, 59, 80
4, 69054, Note_on_c, 9, 44, 0
4, 69084, Note_on_c, 9, 38, 49
4, 69096, Note_on_c, 9, 59, 0
4, 69102, Note_on_c, 9, 38, 0
4, 69127, Note_on_c, 9, 57, 63
4, 69128, Note_on_c, 9, 59, 82
4, 69130, Note_on_c, 9, 36, 52
4, 69150, Note_on_c, 9, 57, 0
4, 69157, Note_on_c, 9, 36, 0
4, 69193, Note_on_c, 9, 59, 0
4, 69215, Note_on_c, 9, 59, 59
4, 69226, Note_on_c, 9, 59, 0
4, 69240, Note_on_c, 9, 44, 60
4, 69245, Note_on_c, 9, 59, 80
4, 69303, Note_on_c, 9, 44, 0
4, 69336, Note_on_c, 9, 59, 0
4, 69366, Note_on_c, 9, 59, 83
4, 69416, Note_on_c, 9, 38, 56
4, 69437, Note_on_c, 9, 38, 0
4, 69453, Note_on_c, 9, 59, 0
4, 69466, Note_on_c, 9, 38, 21
4, 69477, Note_on_c, 9, 38, 0
4, 69477, Note_on_c, 9, 36, 46
4, 69483, Note_on_c, 9, 44, 62
4, 69484, Note_on_c, 9, 59, 83
4, 69497, Note_on_c, 9, 57, 49
4, 69520, Note_on_c, 9, 57, 0
4, 69535, Note_on_c, 9, 36, 0
4, 69536, Note_on_c, 9, 44, 0
4, 69543, Note_on_c, 9, 59, 0
4, 69582, Note_on_c, 9, 59, 54
4, 69593, Note_on_c, 9, 59, 0
4, 69609, Note_on_c, 9, 59, 88
4, 69698, Note_on_c, 9, 59, 0
4, 69722, Note_on_c, 9, 46, 36
4, 69731, Note_on_c, 9, 59, 85
4, 69753, Note_on_c, 9, 46, 0
4, 69798, Note_on_c, 9, 59, 0
4, 69824, Note_on_c, 9, 59, 44
4, 69837, Note_on_c, 9, 59, 0
4, 69854, Note_on_c, 9, 59, 81
4, 69918, Note_on_c, 9, 38, 44
4, 69928, Note_on_c, 9, 38, 0
4, 69945, Note_on_c, 9, 59, 0
4, 69968, Note_on_c, 9, 44, 48
4, 69970, Note_on_c, 9, 59, 82
4, 70004, Note_on_c, 9, 44, 0
4, 70036, Note_on_c, 9, 36, 34
4, 70045, Note_on_c, 9, 59, 0
4, 70049, Note_on_c, 9, 36, 0
4, 70075, Note_on_c, 9, 36, 24
4, 70082, Note_on_c, 9, 59, 88
4, 70096, Note_on_c, 9, 36, 0
4, 70168, Note_on_c, 9, 59, 0
4, 70196, Note_on_c, 9, 59, 87
4, 70200, Note_on_c, 9, 44, 63
4, 70237, Note_on_c, 9, 44, 0
4, 70260, Note_on_c, 9, 59, 0
4, 70325, Note_on_c, 9, 59, 87
4, 70407, Note_on_c, 9, 59, 0
4, 70437, Note_on_c, 9, 44, 59
4, 70441, Note_on_c, 9, 59, 85
4, 70473, Note_on_c, 9, 44, 0
4, 70526, Note_on_c, 9, 59, 0
4, 70560, Note_on_c, 9, 59, 63
4, 70562, Note_on_c, 9, 37, 22
4, 70572, Note_on_c, 9, 37, 0
4, 70575, Note_on_c, 9, 59, 0
4, 70596, Note_on_c, 9, 37, 36
4, 70598, Note_on_c, 9, 59, 80
4, 70616, Note_on_c, 9, 37, 0
4, 70617, Note_on_c, 9, 59, 0
4, 70678, Note_on_c, 9, 44, 61
4, 70691, Note_on_c, 9, 59, 92
4, 70695, Note_on_c, 9, 37, 36
4, 70705, Note_on_c, 9, 37, 0
4, 70727, Note_on_c, 9, 44, 0
4, 70731, Note_on_c, 9, 37, 28
4, 70743, Note_on_c, 9, 37, 0
4, 70773, Note_on_c, 9, 59, 0
4, 70794, Note_on_c, 9, 59, 64
4, 70805, Note_on_c, 9, 59, 0
4, 70818, Note_on_c, 9, 37, 40
4, 70828, Note_on_c, 9, 37, 0
4, 70828, Note_on_c, 9, 59, 84
4, 70853, Note_on_c, 9, 37, 29
4, 70863, Note_on_c, 9, 37, 0
4, 70877, Note_on_c, 9, 59, 0
4, 70925, Note_on_c, 9, 59, 90
4, 70927, Note_on_c, 9, 37, 41
4, 70927, Note_on_c, 9, 44, 61
4, 70937, Note_on_c, 9, 37, 0
4, 70965, Note_on_c, 9, 37, 36
4, 70969, Note_on_c, 9, 44, 0
4, 70976, Note_on_c, 9, 37, 0
4, 70979, Note_on_c, 9, 59, 0
4, 71007, Note_on_c, 9, 59, 71
4, 71050, Note_on_c, 9, 59, 0
4, 71087, Note_on_c, 9, 59, 81
4, 71132, Note_on_c, 9, 59, 0
4, 71166, Note_on_c, 9, 44, 61
4, 71183, Note_on_c, 9, 59, 89
4, 71207, Note_on_c, 9, 44, 0
4, 71239, Note_on_c, 9, 59, 0
4, 71264, Note_on_c, 9, 59, 71
4, 71296, Note_on_c, 9, 59, 0
4, 71347, Note_on_c, 9, 59, 72
4, 71373, Note_on_c, 9, 59, 0
4, 71402, Note_on_c, 9, 44, 46
4, 71415, Note_on_c, 9, 59, 77
4, 71450, Note_on_c, 9, 44, 0
4, 71459, Note_on_c, 9, 59, 0
4, 71515, Note_on_c, 9, 59, 85
4, 71609, Note_on_c, 9, 59, 0
4, 71636, Note_on_c, 9, 59, 70
4, 71643, Note_on_c, 9, 44, 50
4, 71655, Note_on_c, 9, 38, 42
4, 71673, Note_on_c, 9, 59, 0
4, 71682, Note_on_c, 9, 44, 0
4, 71698, Note_on_c, 9, 38, 0
4, 71728, Note_on_c, 9, 38, 48
4, 71731, Note_on_c, 9, 59, 57
4, 71741, Note_on_c, 9, 59, 0
4, 71753, Note_on_c, 9, 38, 0
4, 71760, Note_on_c, 9, 59, 71
4, 71776, Note_on_c, 9, 38, 43
4, 71820, Note_on_c, 9, 38, 0
4, 71843, Note_on_c, 9, 59, 0
4, 71849, Note_on_c, 9, 36, 40
4, 71871, Note_on_c, 9, 44, 69
4, 71873, Note_on_c, 9, 36, 0
4, 71881, Note_on_c, 9, 59, 84
4, 71897, Note_on_c, 9, 36, 36
4, 71909, Note_on_c, 9, 44, 0
4, 71930, Note_on_c, 9, 59, 0
4, 71937, Note_on_c, 9, 36, 0
4, 71964, Note_on_c, 9, 36, 63
4, 71969, Note_on_c, 9, 59, 57
4, 71980, Note_on_c, 9, 59, 0
4, 72004, Note_on_c, 9, 59, 75
4, 72033, Note_on_c, 9, 36, 0
4, 72068, Note_on_c, 9, 59, 0
4, 72121, Note_on_c, 9, 59, 88
4, 72123, Note_on_c, 9, 44, 45
4, 72183, Note_on_c, 9, 59, 0
4, 72189, Note_on_c, 9, 44, 0
4, 72243, Note_on_c, 9, 59, 82
4, 72292, Note_on_c, 9, 59, 0
4, 72328, Note_on_c, 9, 38, 40
4, 72329, Note_on_c, 9, 59, 62
4, 72341, Note_on_c, 9, 59, 0
4, 72355, Note_on_c, 9, 38, 0
4, 72361, Note_on_c, 9, 44, 56
4, 72366, Note_on_c, 9, 59, 74
4, 72388, Note_on_c, 9, 59, 0
4, 72403, Note_on_c, 9, 44, 0
4, 72443, Note_on_c, 9, 36, 47
4, 72445, Note_on_c, 9, 57, 42
4, 72447, Note_on_c, 9, 59, 110
4, 72458, Note_on_c, 9, 57, 0
4, 72471, Note_on_c, 9, 36, 0
4, 72542, Note_on_c, 9, 59, 0
4, 72569, Note_on_c, 9, 53, 61
4, 72580, Note_on_c, 9, 53, 0
4, 72600, Note_on_c, 9, 44, 49
4, 72604, Note_on_c, 9, 37, 46
4, 72607, Note_on_c, 9, 59, 72
4, 72638, Note_on_c, 9, 37, 0
4, 72639, Note_on_c, 9, 44, 0
4, 72680, Note_on_c, 9, 59, 0
4, 72720, Note_on_c, 9, 59, 67
4, 72792, Note_on_c, 9, 59, 0
4, 72804, Note_on_c, 9, 53, 91
4, 72804, Note_on_c, 9, 38, 54
4, 72816, Note_on_c, 9, 38, 0
4, 72834, Note_on_c, 9, 53, 0
4, 72836, Note_on_c, 9, 37, 46
4, 72843, Note_on_c, 9, 44, 34
4, 72851, Note_on_c, 9, 38, 39
4, 72853, Note_on_c, 9, 59, 34
4, 72863, Note_on_c, 9, 38, 0
4, 72867, Note_on_c, 9, 37, 0
4, 72876, Note_on_c, 9, 44, 0
4, 72920, Note_on_c, 9, 59, 0
4, 72921, Note_on_c, 9, 57, 51
4, 72923, Note_on_c, 9, 36, 56
4, 72933, Note_on_c, 9, 57, 0
4, 72938, Note_on_c, 9, 36, 0
4, 72966, Note_on_c, 9, 59, 76
4, 73028, Note_on_c, 9, 59, 0
4, 73076, Note_on_c, 9, 59, 85
4, 73079, Note_on_c, 9, 44, 47
4, 73131, Note_on_c, 9, 44, 0
4, 73137, Note_on_c, 9, 59, 0
4, 73173, Note_on_c, 9, 59, 54
4, 73197, Note_on_c, 9, 59, 0
4, 73207, Note_on_c, 9, 59, 43
4, 73275, Note_on_c, 9, 59, 0
4, 73279, Note_on_c, 9, 38, 43
4, 73294, Note_on_c, 9, 38, 0
4, 73322, Note_on_c, 9, 44, 46
4, 73326, Note_on_c, 9, 59, 95
4, 73366, Note_on_c, 9, 44, 0
4, 73389, Note_on_c, 9, 38, 58
4, 73411, Note_on_c, 9, 38, 0
4, 73440, Note_on_c, 9, 59, 0
4, 73515, Note_on_c, 9, 38, 52
4, 73533, Note_on_c, 9, 59, 66
4, 73540, Note_on_c, 9, 38, 0
4, 73546, Note_on_c, 9, 59, 0
4, 73565, Note_on_c, 9, 44, 47
4, 73570, Note_on_c, 9, 59, 80
4, 73603, Note_on_c, 9, 44, 0
4, 73642, Note_on_c, 9, 38, 49
4, 73652, Note_on_c, 9, 38, 0
4, 73693, Note_on_c, 9, 38, 32
4, 73702, Note_on_c, 9, 59, 0
4, 73727, Note_on_c, 9, 38, 0
4, 73766, Note_on_c, 9, 36, 44
4, 73767, Note_on_c, 9, 59, 79
4, 73781, Note_on_c, 9, 36, 0
4, 73804, Note_on_c, 9, 44, 46
4, 73812, Note_on_c, 9, 36, 36
4, 73840, Note_on_c, 9, 44, 0
4, 73853, Note_on_c, 9, 36, 0
4, 73866, Note_on_c, 9, 59, 0
4, 73885, Note_on_c, 9, 36, 53
4, 73911, Note_on_c, 9, 36, 0
4, 73924, Note_on_c, 9, 59, 92
4, 73932, Note_on_c, 9, 36, 52
4, 73974, Note_on_c, 9, 36, 0
4, 73993, Note_on_c, 9, 59, 0
4, 74040, Note_on_c, 9, 44, 42
4, 74046, Note_on_c, 9, 59, 101
4, 74073, Note_on_c, 9, 44, 0
4, 74131, Note_on_c, 9, 59, 0
4, 74169, Note_on_c, 9, 59, 66
4, 74185, Note_on_c, 9, 59, 0
4, 74248, Note_on_c, 9, 59, 99
4, 74278, Note_on_c, 9, 44, 37
4, 74318, Note_on_c, 9, 44, 0
4, 74342, Note_on_c, 9, 59, 0
4, 74370, Note_on_c, 9, 59, 52
4, 74382, Note_on_c, 9, 59, 0
4, 74420, Note_on_c, 9, 59, 95
4, 74485, Note_on_c, 9, 38, 36
4, 74497, Note_on_c, 9, 38, 0
4, 74497, Note_on_c, 9, 59, 0
4, 74514, Note_on_c, 9, 44, 46
4, 74532, Note_on_c, 9, 59, 51
4, 74543, Note_on_c, 9, 59, 0
4, 74555, Note_on_c, 9, 44, 0
4, 74607, Note_on_c, 9, 36, 25
4, 74609, Note_on_c, 9, 59, 95
4, 74616, Note_on_c, 9, 61, 46
4, 74624, Note_on_c, 9, 36, 0
4, 74626, Note_on_c, 9, 61, 0
4, 74696, Note_on_c, 9, 59, 0
4, 74733, Note_on_c, 9, 59, 44
4, 74744, Note_on_c, 9, 42, 40
4, 74745, Note_on_c, 9, 59, 0
4, 74762, Note_on_c, 9, 42, 0
4, 74775, Note_on_c, 9, 59, 90
4, 74825, Note_on_c, 9, 59, 0
4, 74847, Note_on_c, 9, 38, 32
4, 74848, Note_on_c, 9, 59, 68
4, 74859, Note_on_c, 9, 38, 0
4, 74869, Note_on_c, 9, 59, 0
4, 74884, Note_on_c, 9, 59, 68
4, 74952, Note_on_c, 9, 59, 0
4, 74965, Note_on_c, 9, 38, 36
4, 74987, Note_on_c, 9, 38, 0
4, 74999, Note_on_c, 9, 59, 88
4, 74999, Note_on_c, 9, 44, 38
4, 75039, Note_on_c, 9, 44, 0
4, 75055, Note_on_c, 9, 59, 0
4, 75079, Note_on_c, 9, 38, 44
4, 75091, Note_on_c, 9, 38, 0
4, 75093, Note_on_c, 9, 59, 61
4, 75103, Note_on_c, 9, 59, 0
4, 75123, Note_on_c, 9, 59, 79
4, 75202, Note_on_c, 9, 38, 43
4, 75207, Note_on_c, 9, 59, 0
4, 75213, Note_on_c, 9, 38, 0
4, 75241, Note_on_c, 9, 44, 50
4, 75242, Note_on_c, 9, 59, 87
4, 75270, Note_on_c, 9, 44, 0
4, 75303, Note_on_c, 9, 59, 0
4, 75331, Note_on_c, 9, 59, 51
4, 75331, Note_on_c, 9, 36, 36
4, 75342, Note_on_c, 9, 36, 0
4, 75346, Note_on_c, 9, 59, 0
4, 75368, Note_on_c, 9, 59, 80
4, 75372, Note_on_c, 9, 36, 43
4, 75386, Note_on_c, 9, 36, 0
4, 75452, Note_on_c, 9, 59, 0
4, 75482, Note_on_c, 9, 46, 34
4, 75486, Note_on_c, 9, 59, 85
4, 75510, Note_on_c, 9, 46, 0
4, 75549, Note_on_c, 9, 59, 0
4, 75579, Note_on_c, 9, 59, 44
4, 75594, Note_on_c, 9, 59, 0
4, 75612, Note_on_c, 9, 38, 20
4, 75615, Note_on_c, 9, 59, 79
4, 75624, Note_on_c, 9, 38, 0
4, 75676, Note_on_c, 9, 38, 46
4, 75690, Note_on_c, 9, 59, 0
4, 75695, Note_on_c, 9, 38, 0
4, 75712, Note_on_c, 9, 46, 58
4, 75726, Note_on_c, 9, 59, 92
4, 75742, Note_on_c, 9, 46, 0
4, 75804, Note_on_c, 9, 38, 49
4, 75814, Note_on_c, 9, 38, 0
4, 75815, Note_on_c, 9, 59, 0
4, 75853, Note_on_c, 9, 59, 64
4, 75863, Note_on_c, 9, 59, 0
4, 75927, Note_on_c, 9, 36, 23
4, 75929, Note_on_c, 9, 59, 103
4, 75938, Note_on_c, 9, 36, 0
4, 75958, Note_on_c, 9, 46, 46
4, 75988, Note_on_c, 9, 46, 0
4, 76035, Note_on_c, 9, 59, 0
4, 76043, Note_on_c, 9, 38, 51
4, 76053, Note_on_c, 9, 38, 0
4, 76088, Note_on_c, 9, 38, 37
4, 76092, Note_on_c, 9, 59, 94
4, 76099, Note_on_c, 9, 38, 0
4, 76157, Note_on_c, 9, 38, 41
4, 76168, Note_on_c, 9, 38, 0
4, 76186, Note_on_c, 9, 59, 0
4, 76198, Note_on_c, 9, 46, 37
4, 76232, Note_on_c, 9, 46, 0
4, 76333, Note_on_c, 9, 59, 89
4, 76335, Note_on_c, 9, 38, 23
4, 76349, Note_on_c, 9, 38, 0
4, 76392, Note_on_c, 9, 59, 0
4, 76401, Note_on_c, 9, 38, 44
4, 76422, Note_on_c, 9, 38, 0
4, 76449, Note_on_c, 9, 59, 53
4, 76452, Note_on_c, 9, 46, 25
4, 76461, Note_on_c, 9, 59, 0
4, 76473, Note_on_c, 9, 46, 0
4, 76520, Note_on_c, 9, 59, 83
4, 76526, Note_on_c, 9, 57, 67
4, 76531, Note_on_c, 9, 38, 57
4, 76540, Note_on_c, 9, 36, 52
4, 76643, Note_on_c, 9, 38, 0
4, 76644, Note_on_c, 9, 57, 0
4, 76651, Note_on_c, 9, 36, 0
4, 76692, Note_on_c, 9, 46, 25
4, 76713, Note_on_c, 9, 46, 0
4, 76718, Note_on_c, 9, 36, 59
4, 76719, Note_on_c, 9, 57, 69
4, 76719, Note_on_c, 9, 38, 52
4, 76758, Note_on_c, 9, 59, 0
4, 76770, Note_on_c, 9, 59, 39
4, 76784, Note_on_c, 9, 59, 0
4, 76806, Note_on_c, 9, 59, 77
4, 76806, Note_on_c, 9, 46, 44
4, 77128, Note_on_c, 9, 46, 0
4, 77184, Note_on_c, 9, 59, 0
4, 77227, Note_on_c, 9, 57, 0
4, 77377, Note_on_c, 9, 36, 0
4, 77415, Note_on_c, 9, 38, 0
4, 78426, Note_on_c, 9, 38, 57
4, 78445, Note_on_c, 9, 38, 0
4, 78476, Note_on_c, 9, 38, 54
4, 78500, Note_on_c, 9, 38, 0
4, 78544, Note_on_c, 9, 57, 76
4, 78547, Note_on_c, 9, 36, 66
4, 78764, Note_on_c, 9, 57, 0
4, 78853, Note_on_c, 9, 36, 0
4, 78853, End_track
5, 0, Start_track
5, 0, Title_t, ""
5, 0, End_track
6, 0, Start_track
6, 0, Title_t, ""
6, 0, Program_c, 1, 33
6, 0, Control_c, 1, 7, 100
6, 46080, Note_on_c, 1, 41, 71
6, 46187, Note_on_c, 1, 41, 0
6, 46200, Note_on_c, 1, 36, 53
6, 46303, Note_on_c, 1, 36, 0
6, 46320, Note_on_c, 1, 33, 49
6, 46417, Note_on_c, 1, 33, 0
6, 46448, Note_on_c, 1, 35, 52
6, 46520, Note_on_c, 1, 35, 0
6, 46525, Note_on_c, 1, 33, 70
6, 46551, Note_on_c, 1, 33, 0
6, 46568, Note_on_c, 1, 34, 50
6, 46682, Note_on_c, 1, 46, 77
6, 46692, Note_on_c, 1, 34, 0
6, 46800, Note_on_c, 1, 45, 68
6, 46833, Note_on_c, 1, 46, 0
6, 46903, Note_on_c, 1, 45, 0
6, 46928, Note_on_c, 1, 44, 75
6, 47036, Note_on_c, 1, 44, 0
6, 47049, Note_on_c, 1, 45, 50
6, 47146, Note_on_c, 1, 45, 0
6, 47165, Note_on_c, 1, 45, 62
6, 47270, Note_on_c, 1, 45, 0
6, 47279, Note_on_c, 1, 46, 53
6, 47372, Note_on_c, 1, 46, 0
6, 47400, Note_on_c, 1, 46, 70
6, 47513, Note_on_c, 1, 46, 0
6, 47520, Note_on_c, 1, 48, 70
6, 47615, Note_on_c, 1, 48, 0
6, 47640, Note_on_c, 1, 48, 80
6, 47746, Note_on_c, 1, 48, 0
6, 47760, Note_on_c, 1, 36, 46
6, 47840, Note_on_c, 1, 36, 0
6, 47844, Note_on_c, 1, 39, 43
6, 47854, Note_on_c, 1, 39, 0
6, 47881, Note_on_c, 1, 42, 70
6, 47983, Note_on_c, 1, 42, 0
6, 47997, Note_on_c, 1, 41, 64
6, 48110, Note_on_c, 1, 41, 0
6, 48120, Note_on_c, 1, 36, 52
6, 48234, Note_on_c, 1, 36, 0
6, 48242, Note_on_c, 1, 34, 58
6, 48331, Note_on_c, 1, 34, 0
6, 48356, Note_on_c, 1, 34, 70
6, 48461, Note_on_c, 1, 34, 0
6, 48479, Note_on_c, 1, 33, 59
6, 48543, Note_on_c, 1, 33, 0
6, 48555, Note_on_c, 1, 33, 37
6, 48594, Note_on_c, 1, 33, 0
6, 48603, Note_on_c, 1, 45, 125
6, 48702, Note_on_c, 1, 45, 0
6, 48720, Note_on_c, 1, 38, 62
6, 48811, Note_on_c, 1, 37, 56
6, 48817, Note_on_c, 1, 38, 0
6, 48832, Note_on_c, 1, 37, 0
6, 48840, Note_on_c, 1, 42, 93
6, 48947, Note_on_c, 1, 42, 0
6, 48959, Note_on_c, 1, 43, 86
6, 49059, Note_on_c, 1, 43, 0
6, 49082, Note_on_c, 1, 43, 89
6, 49189, Note_on_c, 1, 43, 0
6, 49196, Note_on_c, 1, 50, 96
6, 49290, Note_on_c, 1, 50, 0
6, 49319, Note_on_c, 1, 50, 80
6, 49426, Note_on_c, 1, 50, 0
6, 49440, Note_on_c, 1, 48, 83
6, 49549, Note_on_c, 1, 48, 0
6, 49560, Note_on_c, 1, 48, 107
6, 49656, Note_on_c, 1, 48, 0
6, 49681, Note_on_c, 1, 41, 93
6, 49757, Note_on_c, 1, 39, 71
6, 49771, Note_on_c, 1, 41, 0
6, 49786, Note_on_c, 1, 39, 0
6, 49791, Note_on_c, 1, 42, 87
6, 49880, Note_on_c, 1, 39, 46
6, 49900, Note_on_c, 1, 42, 0
6, 49911, Note_on_c, 1, 39, 0
6, 49913, Note_on_c, 1, 43, 70
6, 50011, Note_on_c, 1, 42, 43
6, 50026, Note_on_c, 1, 43, 0
6, 50028, Note_on_c, 1, 42, 0
6, 50031, Note_on_c, 1, 45, 84
6, 50127, Note_on_c, 1, 42, 41
6, 50137, Note_on_c, 1, 42, 0
6, 50141, Note_on_c, 1, 45, 0
6, 50156, Note_on_c, 1, 46, 70
6, 50244, Note_on_c, 1, 46, 0
6, 50247, Note_on_c, 1, 42, 52
6, 50258, Note_on_c, 1, 42, 0
6, 50274, Note_on_c, 1, 51, 92
6, 50393, Note_on_c, 1, 51, 0
6, 50398, Note_on_c, 1, 50, 67
6, 50513, Note_on_c, 1, 50, 0
6, 50522, Note_on_c, 1, 42, 74
6, 50628, Note_on_c, 1, 42, 0
6, 50643, Note_on_c, 1, 38, 50
6, 50748, Note_on_c, 1, 38, 0
6, 50754, Note_on_c, 1, 42, 84
6, 50858, Note_on_c, 1, 42, 0
6, 50877, Note_on_c, 1, 43, 73
6, 50973, Note_on_c, 1, 42, 53
6, 50998, Note_on_c, 1, 55, 119
6, 51002, Note_on_c, 1, 42, 0
6, 51006, Note_on_c, 1, 43, 0
6, 51104, Note_on_c, 1, 55, 0
6, 51114, Note_on_c, 1, 53, 80
6, 51226, Note_on_c, 1, 53, 0
6, 51234, Note_on_c, 1, 52, 84
6, 51347, Note_on_c, 1, 52, 0
6, 51356, Note_on_c, 1, 51, 80
6, 51450, Note_on_c, 1, 51, 0
6, 51480, Note_on_c, 1, 51, 71
6, 51577, Note_on_c, 1, 51, 0
6, 51593, Note_on_c, 1, 50, 78
6, 51692, Note_on_c, 1, 50, 0
6, 51717, Note_on_c, 1, 50, 83
6, 51795, Note_on_c, 1, 42, 78
6, 51802, Note_on_c, 1, 50, 0
6, 51824, Note_on_c, 1, 42, 0
6, 51845, Note_on_c, 1, 43, 50
6, 51931, Note_on_c, 1, 42, 43
6, 51943, Note_on_c, 1, 43, 0
6, 51946, Note_on_c, 1, 42, 0
6, 51954, Note_on_c, 1, 50, 75
6, 52062, Note_on_c, 1, 50, 0
6, 52078, Note_on_c, 1, 49, 67
6, 52182, Note_on_c, 1, 49, 0
6, 52195, Note_on_c, 1, 48, 77
6, 52276, Note_on_c, 1, 42, 44
6, 52287, Note_on_c, 1, 42, 0
6, 52296, Note_on_c, 1, 48, 0
6, 52314, Note_on_c, 1, 47, 71
6, 52424, Note_on_c, 1, 47, 0
6, 52430, Note_on_c, 1, 42, 77
6, 52538, Note_on_c, 1, 42, 0
6, 52548, Note_on_c, 1, 43, 73
6, 52671, Note_on_c, 1, 38, 73
6, 52672, Note_on_c, 1, 43, 0
6, 52782, Note_on_c, 1, 38, 0
6, 52802, Note_on_c, 1, 36, 71
6, 52919, Note_on_c, 1, 50, 116
6, 52929, Note_on_c, 1, 36, 0
6, 53025, Note_on_c, 1, 50, 0
6, 53043, Note_on_c, 1, 48, 68
6, 53145, Note_on_c, 1, 48, 0
6, 53157, Note_on_c, 1, 47, 86
6, 53249, Note_on_c, 1, 47, 0
6, 53282, Note_on_c, 1, 50, 119
6, 53367, Note_on_c, 1, 43, 49
6, 53381, Note_on_c, 1, 43, 0
6, 53391, Note_on_c, 1, 50, 0
6, 53401, Note_on_c, 1, 49, 81
6, 53502, Note_on_c, 1, 49, 0
6, 53516, Note_on_c, 1, 48, 56
6, 53602, Note_on_c, 1, 39, 71
6, 53612, Note_on_c, 1, 39, 0
6, 53614, Note_on_c, 1, 48, 0
6, 53641, Note_on_c, 1, 40, 40
6, 53704, Note_on_c, 1, 40, 0
6, 53716, Note_on_c, 1, 41, 84
6, 53727, Note_on_c, 1, 41, 0
6, 53754, Note_on_c, 1, 45, 80
6, 53842, Note_on_c, 1, 45, 0
6, 53872, Note_on_c, 1, 45, 74
6, 53981, Note_on_c, 1, 45, 0
6, 53993, Note_on_c, 1, 33, 61
6, 54081, Note_on_c, 1, 40, 52
6, 54082, Note_on_c, 1, 33, 0
6, 54098, Note_on_c, 1, 40, 0
6, 54116, Note_on_c, 1, 45, 55
6, 54213, Note_on_c, 1, 45, 0
6, 54229, Note_on_c, 1, 44, 53
6, 54343, Note_on_c, 1, 44, 0
6, 54362, Note_on_c, 1, 41, 49
6, 54471, Note_on_c, 1, 41, 0
6, 54472, Note_on_c, 1, 32, 77
6, 54565, Note_on_c, 1, 32, 0
6, 54594, Note_on_c, 1, 32, 55
6, 54689, Note_on_c, 1, 32, 0
6, 54718, Note_on_c, 1, 31, 59
6, 54809, Note_on_c, 1, 38, 29
6, 54816, Note_on_c, 1, 31, 0
6, 54828, Note_on_c, 1, 38, 0
6, 54836, Note_on_c, 1, 43, 92
6, 54935, Note_on_c, 1, 43, 0
6, 54961, Note_on_c, 1, 43, 78
6, 55072, Note_on_c, 1, 43, 0
6, 55080, Note_on_c, 1, 31, 70
6, 55176, Note_on_c, 1, 31, 0
6, 55199, Note_on_c, 1, 42, 70
6, 55304, Note_on_c, 1, 42, 0
6, 55317, Note_on_c, 1, 30, 77
6, 55436, Note_on_c, 1, 45, 102
6, 55444, Note_on_c, 1, 30, 0
6, 55516, Note_on_c, 1, 30, 62
6, 55535, Note_on_c, 1, 30, 0
6, 55536, Note_on_c, 1, 45, 0
6, 55556, Note_on_c, 1, 42, 65
6, 55649, Note_on_c, 1, 42, 0
6, 55677, Note_on_c, 1, 45, 68
6, 55767, Note_on_c, 1, 45, 0
6, 55796, Note_on_c, 1, 41, 68
6, 55890, Note_on_c, 1, 41, 0
6, 55913, Note_on_c, 1, 41, 89
6, 56018, Note_on_c, 1, 41, 0
6, 56040, Note_on_c, 1, 38, 89
6, 56143, Note_on_c, 1, 38, 0
6, 56153, Note_on_c, 1, 40, 81
6, 56255, Note_on_c, 1, 40, 0
6, 56277, Note_on_c, 1, 40, 92
6, 56374, Note_on_c, 1, 40, 0
6, 56392, Note_on_c, 1, 36, 84
6, 56502, Note_on_c, 1, 36, 0
6, 56517, Note_on_c, 1, 33, 68
6, 56579, Note_on_c, 1, 33, 0
6, 56592, Note_on_c, 1, 37, 67
6, 56625, Note_on_c, 1, 37, 0
6, 56640, Note_on_c, 1, 38, 78
6, 56733, Note_on_c, 1, 38, 0
6, 56756, Note_on_c, 1, 38, 87
6, 56863, Note_on_c, 1, 38, 0
6, 56874, Note_on_c, 1, 37, 65
6, 56971, Note_on_c, 1, 37, 0
6, 56994, Note_on_c, 1, 37, 68
6, 57080, Note_on_c, 1, 34, 43
6, 57090, Note_on_c, 1, 37, 0
6, 57104, Note_on_c, 1, 34, 0
6, 57117, Note_on_c, 1, 36, 52
6, 57213, Note_on_c, 1, 34, 40
6, 57220, Note_on_c, 1, 36, 0
6, 57237, Note_on_c, 1, 50, 104
6, 57246, Note_on_c, 1, 34, 0
6, 57341, Note_on_c, 1, 50, 0
6, 57360, Note_on_c, 1, 48, 55
6, 57445, Note_on_c, 1, 36, 80
6, 57453, Note_on_c, 1, 48, 0
6, 57459, Note_on_c, 1, 36, 0
6, 57477, Note_on_c, 1, 50, 110
6, 57585, Note_on_c, 1, 50, 0
6, 57602, Note_on_c, 1, 48, 56
6, 57686, Note_on_c, 1, 41, 96
6, 57691, Note_on_c, 1, 48, 0
6, 57708, Note_on_c, 1, 41, 0
6, 57720, Note_on_c, 1, 50, 74
6, 57826, Note_on_c, 1, 50, 0
6, 57847, Note_on_c, 1, 48, 68
6, 57927, Note_on_c, 1, 41, 67
6, 57934, Note_on_c, 1, 48, 0
6, 57946, Note_on_c, 1, 41, 0
6, 57960, Note_on_c, 1, 50, 86
6, 58059, Note_on_c, 1, 50, 0
6, 58080, Note_on_c, 1, 48, 68
6, 58153, Note_on_c, 1, 48, 0
6, 58158, Note_on_c, 1, 46, 64
6, 58182, Note_on_c, 1, 46, 0
6, 58200, Note_on_c, 1, 34, 77
6, 58310, Note_on_c, 1, 34, 0
6, 58319, Note_on_c, 1, 40, 87
6, 58419, Note_on_c, 1, 40, 0
6, 58441, Note_on_c, 1, 40, 95
6, 58547, Note_on_c, 1, 40, 0
6, 58555, Note_on_c, 1, 45, 84
6, 58655, Note_on_c, 1, 45, 0
6, 58680, Note_on_c, 1, 45, 127
6, 58800, Note_on_c, 1, 45, 0
6, 58807, Note_on_c, 1, 46, 83
6, 58897, Note_on_c, 1, 46, 0
6, 58920, Note_on_c, 1, 46, 68
6, 59025, Note_on_c, 1, 46, 0
6, 59040, Note_on_c, 1, 45, 89
6, 59071, Note_on_c, 1, 45, 0
6, 59122, Note_on_c, 1, 40, 86
6, 59149, Note_on_c, 1, 40, 0
6, 59169, Note_on_c, 1, 39, 64
6, 59257, Note_on_c, 1, 39, 0
6, 59276, Note_on_c, 1, 38, 68
6, 59357, Note_on_c, 1, 43, 53
6, 59370, Note_on_c, 1, 43, 0
6, 59385, Note_on_c, 1, 38, 0
6, 59398, Note_on_c, 1, 48, 90
6, 59454, Note_on_c, 1, 48, 0
6, 59479, Note_on_c, 1, 42, 83
6, 59506, Note_on_c, 1, 42, 0
6, 59517, Note_on_c, 1, 43, 64
6, 59604, Note_on_c, 1, 42, 53
6, 59619, Note_on_c, 1, 43, 0
6, 59630, Note_on_c, 1, 42, 0
6, 59637, Note_on_c, 1, 57, 84
6, 59839, Note_on_c, 1, 57, 0
6, 59844, Note_on_c, 1, 55, 110
6, 59877, Note_on_c, 1, 55, 0
6, 59964, Note_on_c, 1, 50, 47
6, 59975, Note_on_c, 1, 50, 0
6, 60000, Note_on_c, 1, 53, 83
6, 60101, Note_on_c, 1, 53, 0
6, 60120, Note_on_c, 1, 50, 43
6, 60199, Note_on_c, 1, 47, 50
6, 60212, Note_on_c, 1, 47, 0
6, 60216, Note_on_c, 1, 50, 0
6, 60237, Note_on_c, 1, 52, 52
6, 60318, Note_on_c, 1, 47, 44
6, 60331, Note_on_c, 1, 47, 0
6, 60344, Note_on_c, 1, 52, 0
6, 60354, Note_on_c, 1, 48, 59
6, 60451, Note_on_c, 1, 48, 0
6, 60468, Note_on_c, 1, 50, 73
6, 60596, Note_on_c, 1, 50, 0
6, 60600, Note_on_c, 1, 45, 53
6, 60693, Note_on_c, 1, 45, 0
6, 60714, Note_on_c, 1, 47, 74
6, 60814, Note_on_c, 1, 41, 38
6, 60824, Note_on_c, 1, 47, 0
6, 60826, Note_on_c, 1, 41, 0
6, 60842, Note_on_c, 1, 44, 56
6, 60943, Note_on_c, 1, 44, 0
6, 60957, Note_on_c, 1, 46, 70
6, 61079, Note_on_c, 1, 43, 59
6, 61082, Note_on_c, 1, 46, 0
6, 61156, Note_on_c, 1, 43, 0
6, 61164, Note_on_c, 1, 39, 46
6, 61177, Note_on_c, 1, 39, 0
6, 61200, Note_on_c, 1, 50, 74
6, 61302, Note_on_c, 1, 50, 0
6, 61319, Note_on_c, 1, 49, 68
6, 61412, Note_on_c, 1, 49, 0
6, 61436, Note_on_c, 1, 48, 71
6, 61532, Note_on_c, 1, 41, 43
6, 61542, Note_on_c, 1, 48, 0
6, 61543, Note_on_c, 1, 41, 0
6, 61561, Note_on_c, 1, 46, 56
6, 61677, Note_on_c, 1, 46, 0
6, 61695, Note_on_c, 1, 45, 59
6, 61738, Note_on_c, 1, 45, 0
6, 61770, Note_on_c, 1, 41, 80
6, 61796, Note_on_c, 1, 41, 0
6, 61818, Note_on_c, 1, 33, 59
6, 61923, Note_on_c, 1, 33, 0
6, 61926, Note_on_c, 1, 34, 71
6, 62025, Note_on_c, 1, 34, 0
6, 62046, Note_on_c, 1, 34, 86
6, 62160, Note_on_c, 1, 41, 53
6, 62162, Note_on_c, 1, 34, 0
6, 62239, Note_on_c, 1, 41, 0
6, 62283, Note_on_c, 1, 46, 75
6, 62390, Note_on_c, 1, 46, 0
6, 62399, Note_on_c, 1, 45, 65
6, 62500, Note_on_c, 1, 45, 0
6, 62525, Note_on_c, 1, 40, 53
6, 62630, Note_on_c, 1, 40, 0
6, 62644, Note_on_c, 1, 46, 68
6, 62730, Note_on_c, 1, 46, 0
6, 62761, Note_on_c, 1, 46, 59
6, 62852, Note_on_c, 1, 40, 46
6, 62861, Note_on_c, 1, 46, 0
6, 62866, Note_on_c, 1, 40, 0
6, 62882, Note_on_c, 1, 48, 80
6, 62975, Note_on_c, 1, 48, 0
6, 63001, Note_on_c, 1, 42, 71
6, 63112, Note_on_c, 1, 42, 0
6, 63124, Note_on_c, 1, 43, 68
6, 63230, Note_on_c, 1, 43, 0
6, 63239, Note_on_c, 1, 40, 74
6, 63339, Note_on_c, 1, 40, 0
6, 63363, Note_on_c, 1, 41, 62
6, 63473, Note_on_c, 1, 41, 0
6, 63480, Note_on_c, 1, 33, 78
6, 63580, Note_on_c, 1, 33, 0
6, 63600, Note_on_c, 1, 34, 77
6, 63687, Note_on_c, 1, 34, 0
6, 63716, Note_on_c, 1, 34, 84
6, 63825, Note_on_c, 1, 34, 0
6, 63835, Note_on_c, 1, 33, 70
6, 63907, Note_on_c, 1, 33, 0
6, 63926, Note_on_c, 1, 34, 67
6, 63943, Note_on_c, 1, 34, 0
6, 63962, Note_on_c, 1, 45, 80
6, 64064, Note_on_c, 1, 45, 0
6, 64077, Note_on_c, 1, 50, 89
6, 64179, Note_on_c, 1, 38, 44
6, 64191, Note_on_c, 1, 50, 0
6, 64192, Note_on_c, 1, 38, 0
6, 64202, Note_on_c, 1, 44, 78
6, 64300, Note_on_c, 1, 44, 0
6, 64316, Note_on_c, 1, 43, 80
6, 64422, Note_on_c, 1, 43, 0
6, 64435, Note_on_c, 1, 37, 99
6, 64543, Note_on_c, 1, 37, 0
6, 64557, Note_on_c, 1, 38, 73
6, 64657, Note_on_c, 1, 38, 0
6, 64674, Note_on_c, 1, 32, 108
6, 64784, Note_on_c, 1, 32, 0
6, 64797, Note_on_c, 1, 31, 84
6, 64916, Note_on_c, 1, 31, 0
6, 64916, Note_on_c, 1, 33, 95
6, 65025, Note_on_c, 1, 33, 0
6, 65035, Note_on_c, 1, 34, 78
6, 65146, Note_on_c, 1, 34, 0
6, 65157, Note_on_c, 1, 35, 92
6, 65248, Note_on_c, 1, 34, 46
6, 65262, Note_on_c, 1, 34, 0
6, 65262, Note_on_c, 1, 35, 0
6, 65280, Note_on_c, 1, 36, 59
6, 65365, Note_on_c, 1, 34, 43
6, 65386, Note_on_c, 1, 34, 0
6, 65399, Note_on_c, 1, 45, 95
6, 65405, Note_on_c, 1, 36, 0
6, 65499, Note_on_c, 1, 45, 0
6, 65517, Note_on_c, 1, 43, 65
6, 65617, Note_on_c, 1, 38, 41
6, 65623, Note_on_c, 1, 43, 0
6, 65631, Note_on_c, 1, 38, 0
6, 65640, Note_on_c, 1, 50, 86
6, 65730, Note_on_c, 1, 50, 0
6, 65760, Note_on_c, 1, 50, 56
6, 65879, Note_on_c, 1, 38, 86
6, 65881, Note_on_c, 1, 50, 0
6, 65998, Note_on_c, 1, 45, 102
6, 66000, Note_on_c, 1, 38, 0
6, 66087, Note_on_c, 1, 38, 58
6, 66094, Note_on_c, 1, 45, 0
6, 66099, Note_on_c, 1, 38, 0
6, 66108, Note_on_c, 1, 42, 71
6, 66225, Note_on_c, 1, 42, 0
6, 66237, Note_on_c, 1, 43, 80
6, 66343, Note_on_c, 1, 43, 0
6, 66360, Note_on_c, 1, 50, 84
6, 66468, Note_on_c, 1, 50, 0
6, 66480, Note_on_c, 1, 48, 68
6, 66560, Note_on_c, 1, 48, 0
6, 66600, Note_on_c, 1, 48, 70
6, 66689, Note_on_c, 1, 48, 0
6, 66720, Note_on_c, 1, 51, 59
6, 66804, Note_on_c, 1, 39, 29
6, 66817, Note_on_c, 1, 39, 0
6, 66820, Note_on_c, 1, 51, 0
6, 66840, Note_on_c, 1, 51, 92
6, 66949, Note_on_c, 1, 51, 0
6, 66959, Note_on_c, 1, 50, 73
6, 67047, Note_on_c, 1, 41, 47
6, 67050, Note_on_c, 1, 50, 0
6, 67069, Note_on_c, 1, 41, 0
6, 67084, Note_on_c, 1, 42, 62
6, 67168, Note_on_c, 1, 39, 44
6, 67182, Note_on_c, 1, 42, 0
6, 67184, Note_on_c, 1, 39, 0
6, 67201, Note_on_c, 1, 43, 52
6, 67286, Note_on_c, 1, 42, 55
6, 67298, Note_on_c, 1, 43, 0
6, 67313, Note_on_c, 1, 42, 0
6, 67318, Note_on_c, 1, 50, 84
6, 67423, Note_on_c, 1, 50, 0
6, 67438, Note_on_c, 1, 48, 70
6, 67540, Note_on_c, 1, 48, 0
6, 67558, Note_on_c, 1, 47, 59
6, 67661, Note_on_c, 1, 47, 0
6, 67685, Note_on_c, 1, 44, 73
6, 67788, Note_on_c, 1, 44, 0
6, 67802, Note_on_c, 1, 43, 65
6, 67920, Note_on_c, 1, 43, 0
6, 67924, Note_on_c, 1, 41, 96
6, 68019, Note_on_c, 1, 41, 0
6, 68036, Note_on_c, 1, 38, 47
6, 68124, Note_on_c, 1, 34, 59
6, 68125, Note_on_c, 1, 38, 0
6, 68134, Note_on_c, 1, 34, 0
6, 68160, Note_on_c, 1, 36, 50
6, 68244, Note_on_c, 1, 34, 49
6, 68250, Note_on_c, 1, 36, 0
6, 68275, Note_on_c, 1, 38, 71
6, 68276, Note_on_c, 1, 34, 0
6, 68364, Note_on_c, 1, 34, 37
6, 68378, Note_on_c, 1, 34, 0
6, 68388, Note_on_c, 1, 38, 0
6, 68393, Note_on_c, 1, 39, 74
6, 68508, Note_on_c, 1, 39, 0
6, 68519, Note_on_c, 1, 40, 73
6, 68621, Note_on_c, 1, 40, 0
6, 68639, Note_on_c, 1, 43, 80
6, 68744, Note_on_c, 1, 43, 0
6, 68760, Note_on_c, 1, 50, 92
6, 68868, Note_on_c, 1, 50, 0
6, 68885, Note_on_c, 1, 48, 81
6, 68972, Note_on_c, 1, 36, 41
6, 68976, Note_on_c, 1, 48, 0
6, 68983, Note_on_c, 1, 36, 0
6, 69006, Note_on_c, 1, 46, 56
6, 69108, Note_on_c, 1, 46, 0
6, 69127, Note_on_c, 1, 45, 62
6, 69209, Note_on_c, 1, 45, 0
6, 69238, Note_on_c, 1, 45, 61
6, 69334, Note_on_c, 1, 45, 0
6, 69358, Note_on_c, 1, 41, 56
6, 69469, Note_on_c, 1, 41, 0
6, 69481, Note_on_c, 1, 45, 71
6, 69556, Note_on_c, 1, 41, 52
6, 69573, Note_on_c, 1, 41, 0
6, 69577, Note_on_c, 1, 45, 0
6, 69604, Note_on_c, 1, 44, 53
6, 69700, Note_on_c, 1, 44, 0
6, 69717, Note_on_c, 1, 47, 59
6, 69802, Note_on_c, 1, 41, 50
6, 69818, Note_on_c, 1, 41, 0
6, 69818, Note_on_c, 1, 47, 0
6, 69843, Note_on_c, 1, 52, 98
6, 69933, Note_on_c, 1, 41, 35
6, 69935, Note_on_c, 1, 52, 0
6, 69948, Note_on_c, 1, 41, 0
6, 69963, Note_on_c, 1, 50, 89
6, 70057, Note_on_c, 1, 50, 0
6, 70081, Note_on_c, 1, 48, 81
6, 70172, Note_on_c, 1, 48, 0
6, 70198, Note_on_c, 1, 46, 55
6, 70317, Note_on_c, 1, 43, 71
6, 70335, Note_on_c, 1, 46, 0
6, 70405, Note_on_c, 1, 43, 0
6, 70405, Note_on_c, 1, 40, 50
6, 70418, Note_on_c, 1, 40, 0
6, 70437, Note_on_c, 1, 45, 77
6, 70548, Note_on_c, 1, 45, 0
6, 70559, Note_on_c, 1, 42, 58
6, 70638, Note_on_c, 1, 39, 41
6, 70671, Note_on_c, 1, 42, 0
6, 70674, Note_on_c, 1, 48, 95
6, 70681, Note_on_c, 1, 39, 0
6, 70779, Note_on_c, 1, 48, 0
6, 70797, Note_on_c, 1, 45, 68
6, 70857, Note_on_c, 1, 45, 0
6, 70881, Note_on_c, 1, 39, 64
6, 70894, Note_on_c, 1, 39, 0
6, 70917, Note_on_c, 1, 40, 59
6, 71019, Note_on_c, 1, 40, 0
6, 71034, Note_on_c, 1, 41, 53
6, 71133, Note_on_c, 1, 41, 0
6, 71163, Note_on_c, 1, 41, 61
6, 71269, Note_on_c, 1, 41, 0
6, 71286, Note_on_c, 1, 44, 56
6, 71364, Note_on_c, 1, 41, 84
6, 71377, Note_on_c, 1, 41, 0
6, 71490, Note_on_c, 1, 39, 64
6, 71499, Note_on_c, 1, 44, 0
6, 71510, Note_on_c, 1, 39, 0
6, 71528, Note_on_c, 1, 40, 73
6, 71634, Note_on_c, 1, 40, 0
6, 71635, Note_on_c, 1, 39, 37
6, 71651, Note_on_c, 1, 39, 0
6, 71651, Note_on_c, 1, 43, 81
6, 71742, Note_on_c, 1, 40, 32
6, 71746, Note_on_c, 1, 43, 0
6, 71752, Note_on_c, 1, 40, 0
6, 71766, Note_on_c, 1, 48, 78
6, 71847, Note_on_c, 1, 40, 59
6, 71859, Note_on_c, 1, 48, 0
6, 71861, Note_on_c, 1, 40, 0
6, 71889, Note_on_c, 1, 49, 67
6, 71996, Note_on_c, 1, 49, 0
6, 72005, Note_on_c, 1, 50, 80
6, 72101, Note_on_c, 1, 50, 0
6, 72117, Note_on_c, 1, 38, 77
6, 72244, Note_on_c, 1, 50, 95
6, 72250, Note_on_c, 1, 38, 0
6, 72323, Note_on_c, 1, 50, 0
6, 72324, Note_on_c, 1, 38, 68
6, 72348, Note_on_c, 1, 38, 0
6, 72367, Note_on_c, 1, 49, 81
6, 72462, Note_on_c, 1, 49, 0
6, 72483, Note_on_c, 1, 48, 78
6, 72531, Note_on_c, 1, 48, 0
6, 72565, Note_on_c, 1, 43, 74
6, 72578, Note_on_c, 1, 43, 0
6, 72603, Note_on_c, 1, 36, 84
6, 72692, Note_on_c, 1, 36, 0
6, 72721, Note_on_c, 1, 39, 62
6, 72813, Note_on_c, 1, 39, 0
6, 72834, Note_on_c, 1, 40, 68
6, 72916, Note_on_c, 1, 39, 50
6, 72930, Note_on_c, 1, 40, 0
6, 72942, Note_on_c, 1, 39, 0
6, 72956, Note_on_c, 1, 41, 55
6, 73054, Note_on_c, 1, 41, 0
6, 73081, Note_on_c, 1, 50, 104
6, 73182, Note_on_c, 1, 50, 0
6, 73200, Note_on_c, 1, 48, 71
6, 73284, Note_on_c, 1, 41, 71
6, 73296, Note_on_c, 1, 41, 0
6, 73300, Note_on_c, 1, 48, 0
6, 73321, Note_on_c, 1, 46, 74
6, 73416, Note_on_c, 1, 46, 0
6, 73440, Note_on_c, 1, 47, 74
6, 73528, Note_on_c, 1, 47, 0
6, 73562, Note_on_c, 1, 39, 87
6, 73670, Note_on_c, 1, 39, 0
6, 73689, Note_on_c, 1, 40, 70
6, 73788, Note_on_c, 1, 40, 0
6, 73805, Note_on_c, 1, 34, 86
6, 73923, Note_on_c, 1, 33, 81
6, 73925, Note_on_c, 1, 34, 0
6, 74010, Note_on_c, 1, 33, 0
6, 74038, Note_on_c, 1, 33, 71
6, 74165, Note_on_c, 1, 33, 0
6, 74166, Note_on_c, 1, 46, 89
6, 74258, Note_on_c, 1, 46, 0
6, 74285, Note_on_c, 1, 46, 83
6, 74385, Note_on_c, 1, 46, 0
6, 74404, Note_on_c, 1, 45, 80
6, 74499, Note_on_c, 1, 45, 0
6, 74522, Note_on_c, 1, 39, 70
6, 74617, Note_on_c, 1, 37, 34
6, 74628, Note_on_c, 1, 39, 0
6, 74629, Note_on_c, 1, 37, 0
6, 74645, Note_on_c, 1, 38, 53
6, 74729, Note_on_c, 1, 37, 50
6, 74733, Note_on_c, 1, 38, 0
6, 74754, Note_on_c, 1, 44, 111
6, 74762, Note_on_c, 1, 37, 0
6, 74833, Note_on_c, 1, 37, 50
6, 74856, Note_on_c, 1, 37, 0
6, 74868, Note_on_c, 1, 44, 0
6, 74883, Note_on_c, 1, 43, 83
6, 74911, Note_on_c, 1, 43, 0
6, 74961, Note_on_c, 1, 38, 83
6, 74985, Note_on_c, 1, 38, 0
6, 75000, Note_on_c, 1, 32, 84
6, 75105, Note_on_c, 1, 32, 0
6, 75124, Note_on_c, 1, 31, 80
6, 75207, Note_on_c, 1, 31, 0
6, 75234, Note_on_c, 1, 38, 95
6, 75307, Note_on_c, 1, 38, 0
6, 75314, Note_on_c, 1, 34, 52
6, 75340, Note_on_c, 1, 34, 0
6, 75353, Note_on_c, 1, 36, 75
6, 75450, Note_on_c, 1, 34, 52
6, 75461, Note_on_c, 1, 36, 0
6, 75472, Note_on_c, 1, 34, 0
6, 75476, Note_on_c, 1, 50, 123
6, 75548, Note_on_c, 1, 34, 37
6, 75561, Note_on_c, 1, 34, 0
6, 75582, Note_on_c, 1, 50, 0
6, 75601, Note_on_c, 1, 48, 96
6, 75644, Note_on_c, 1, 48, 0
6, 75684, Note_on_c, 1, 39, 68
6, 75707, Note_on_c, 1, 39, 0
6, 75718, Note_on_c, 1, 40, 80
6, 75788, Note_on_c, 1, 40, 0
6, 75804, Note_on_c, 1, 41, 105
6, 75908, Note_on_c, 1, 41, 0
6, 75919, Note_on_c, 1, 36, 101
6, 75941, Note_on_c, 1, 36, 0
6, 75966, Note_on_c, 1, 33, 80
6, 76067, Note_on_c, 1, 33, 0
6, 76078, Note_on_c, 1, 34, 70
6, 76178, Note_on_c, 1, 34, 0
6, 76193, Note_on_c, 1, 35, 71
6, 76278, Note_on_c, 1, 34, 46
6, 76306, Note_on_c, 1, 34, 0
6, 76308, Note_on_c, 1, 35, 0
6, 76322, Note_on_c, 1, 36, 46
6, 76394, Note_on_c, 1, 34, 52
6, 76400, Note_on_c, 1, 36, 0
6, 76420, Note_on_c, 1, 34, 0
6, 76436, Note_on_c, 1, 40, 64
6, 76517, Note_on_c, 1, 40, 0
6, 76526, Note_on_c, 1, 41, 92
6, 76678, Note_on_c, 1, 29, 64
6, 76687, Note_on_c, 1, 41, 0
6, 76766, Note_on_c, 1, 29, 0
6, 76782, Note_on_c, 1, 29, 98
6, 77478, Note_on_c, 1, 41, 80
6, 77568, Note_on_c, 1, 41, 0
6, 77663, Note_on_c, 1, 41, 81
6, 78159, Note_on_c, 1, 29, 0
6, 78240, Note_on_c, 1, 29, 52
6, 78283, Note_on_c, 1, 41, 0
6, 78595, Note_on_c, 1, 29, 0
6, 78595, End_track
7, 0, Start_track
7, 0, Title_t, ""
7, 0, End_track
0, 0, End_of_file
