0, 0, Header, 1, 4, 120
1, 0, Start_track
1, 0, Title_t, "YouSteppedOutOfADream"
1, 0, Time_signature, 4, 2, 24, 8
1, 0, Key_signature, 0, "major"
1, 0, Tempo, 389610
1, 0, Marker_t, "You Stepped Out of a Dream  -  pseudo salsa/jazz style  dougmck@pipeline.com.au"
1, 81120, Tempo, 375000
1, 81121, Tempo, 375000
1, 81192, Tempo, 377358
1, 81264, Tempo, 379747
1, 81336, Tempo, 382166
1, 81408, Tempo, 384615
1, 81480, Tempo, 387097
1, 81552, Tempo, 389610
1, 81624, Tempo, 392157
1, 81696, Tempo, 394737
1, 81768, Tempo, 397351
1, 81840, Tempo, 400000
1, 81912, Tempo, 402685
1, 81984, Tempo, 405405
1, 82056, Tempo, 408163
1, 82128, Tempo, 410959
1, 82200, Tempo, 413793
1, 82272, Tempo, 416667
1, 82344, Tempo, 419580
1, 82416, Tempo, 422535
1, 82488, Tempo, 425532
1, 82560, Tempo, 428571
1, 82631, Tempo, 431655
1, 82703, Tempo, 434783
1, 82775, Tempo, 437956
1, 82847, Tempo, 441176
1, 82919, Tempo, 444444
1, 82991, Tempo, 447761
1, 83063, Tempo, 451128
1, 83135, Tempo, 454545
1, 83207, Tempo, 458015
1, 83279, Tempo, 461538
1, 83351, Tempo, 465116
1, 83423, Tempo, 468750
1, 83495, Tempo, 472441
1, 83567, Tempo, 476190
1, 83639, Tempo, 480000
1, 83711, Tempo, 483871
1, 83783, Tempo, 487805
1, 83855, Tempo, 491803
1, 83927, Tempo, 495868
1, 83999, Tempo, 500000
1, 84000, Tempo, 375000
1, 84000, End_track
2, 0, Start_track
2, 0, MIDI_port, 0
2, 0, Program_c, 0, 0
2, 0, Control_c, 0, 7, 127
2, 0, Control_c, 0, 10, 88
2, 480, Note_on_c, 0, 88, 59
2, 481, Control_c, 0, 10, 72
2, 482, Note_on_c, 0, 62, 36
2, 482, Note_on_c, 0, 83, 57
2, 482, Control_c, 0, 10, 76
2, 483, Note_on_c, 0, 76, 47
2, 485, Control_c, 0, 10, 54
2, 486, Note_on_c, 0, 57, 47
2, 486, Note_on_c, 0, 52, 38
2, 487, Control_c, 0, 64, 0
2, 556, Control_c, 0, 64, 127
2, 902, Note_on_c, 0, 76, 0
2, 920, Note_on_c, 0, 88, 0
2, 923, Note_on_c, 0, 83, 0
2, 925, Note_on_c, 0, 52, 0
2, 926, Note_on_c, 0, 62, 0
2, 930, Note_on_c, 0, 57, 0
2, 1147, Control_c, 0, 10, 88
2, 1148, Note_on_c, 0, 88, 79
2, 1149, Control_c, 0, 10, 54
2, 1150, Note_on_c, 0, 52, 74
2, 1150, Note_on_c, 0, 57, 68
2, 1150, Control_c, 0, 10, 81
2, 1151, Note_on_c, 0, 81, 80
2, 1151, Control_c, 0, 10, 69
2, 1152, Note_on_c, 0, 62, 70
2, 1152, Note_on_c, 0, 76, 71
2, 1159, Control_c, 0, 64, 0
2, 1196, Control_c, 0, 64, 127
2, 1201, Note_on_c, 0, 52, 0
2, 1202, Note_on_c, 0, 76, 0
2, 1205, Note_on_c, 0, 81, 0
2, 1207, Note_on_c, 0, 62, 0
2, 1208, Note_on_c, 0, 88, 0
2, 1215, Note_on_c, 0, 57, 0
2, 1238, Control_c, 0, 10, 75
2, 1239, Note_on_c, 0, 88, 74
2, 1239, Note_on_c, 0, 62, 63
2, 1239, Control_c, 0, 10, 52
2, 1240, Note_on_c, 0, 52, 75
2, 1240, Control_c, 0, 10, 57
2, 1241, Note_on_c, 0, 57, 55
2, 1241, Control_c, 0, 10, 81
2, 1242, Note_on_c, 0, 81, 76
2, 1242, Control_c, 0, 10, 76
2, 1243, Note_on_c, 0, 76, 71
2, 1282, Note_on_c, 0, 52, 0
2, 1283, Note_on_c, 0, 76, 0
2, 1287, Note_on_c, 0, 81, 0
2, 1288, Note_on_c, 0, 88, 0
2, 1288, Note_on_c, 0, 62, 0
2, 1301, Note_on_c, 0, 57, 0
2, 1326, Control_c, 0, 10, 57
2, 1327, Note_on_c, 0, 57, 56
2, 1327, Control_c, 0, 10, 52
2, 1328, Note_on_c, 0, 52, 70
2, 1329, Control_c, 0, 10, 75
2, 1330, Note_on_c, 0, 62, 65
2, 1330, Note_on_c, 0, 88, 78
2, 1330, Control_c, 0, 10, 78
2, 1331, Note_on_c, 0, 76, 68
2, 1331, Note_on_c, 0, 81, 74
2, 1358, Note_on_c, 0, 76, 0
2, 1359, Note_on_c, 0, 52, 0
2, 1362, Note_on_c, 0, 62, 0
2, 1365, Note_on_c, 0, 81, 0
2, 1369, Note_on_c, 0, 57, 0
2, 1370, Note_on_c, 0, 88, 0
2, 1409, Control_c, 0, 10, 86
2, 1410, Note_on_c, 0, 89, 79
2, 1410, Note_on_c, 0, 84, 78
2, 1410, Control_c, 0, 10, 65
2, 1411, Note_on_c, 0, 53, 71
2, 1411, Note_on_c, 0, 77, 65
2, 1413, Control_c, 0, 10, 63
2, 1414, Note_on_c, 0, 63, 73
2, 1415, Control_c, 0, 10, 58
2, 1416, Note_on_c, 0, 58, 63
2, 1421, Control_c, 0, 64, 0
2, 1459, Note_on_c, 0, 89, 0
2, 1461, Note_on_c, 0, 53, 0
2, 1465, Note_on_c, 0, 77, 0
2, 1467, Note_on_c, 0, 84, 0
2, 1471, Note_on_c, 0, 63, 0
2, 1479, Note_on_c, 0, 58, 0
2, 1496, Control_c, 0, 10, 76
2, 1497, Note_on_c, 0, 63, 62
2, 1497, Note_on_c, 0, 89, 68
2, 1499, Control_c, 0, 10, 53
2, 1500, Note_on_c, 0, 53, 68
2, 1500, Control_c, 0, 10, 73
2, 1501, Note_on_c, 0, 77, 47
2, 1501, Note_on_c, 0, 84, 61
2, 1501, Note_on_c, 0, 58, 57
2, 1522, Control_c, 0, 64, 127
2, 1572, Note_on_c, 0, 77, 0
2, 1580, Note_on_c, 0, 84, 0
2, 1582, Note_on_c, 0, 53, 0
2, 1589, Note_on_c, 0, 89, 0
2, 1594, Note_on_c, 0, 58, 0
2, 1598, Note_on_c, 0, 63, 0
2, 1670, Control_c, 0, 10, 96
2, 1671, Note_on_c, 0, 96, 80
2, 1673, Control_c, 0, 10, 89
2, 1674, Note_on_c, 0, 89, 62
2, 1674, Control_c, 0, 10, 69
2, 1675, Note_on_c, 0, 84, 51
2, 1675, Note_on_c, 0, 55, 54
2, 1675, Control_c, 0, 10, 65
2, 1676, Note_on_c, 0, 65, 60
2, 1679, Control_c, 0, 10, 60
2, 1680, Note_on_c, 0, 60, 55
2, 1684, Control_c, 0, 64, 0
2, 1719, Control_c, 0, 64, 127
2, 1757, Control_c, 0, 10, 92
2, 1758, Note_on_c, 0, 92, 14
2, 1775, Note_on_c, 0, 96, 0
2, 1786, Note_on_c, 0, 89, 0
2, 1787, Note_on_c, 0, 92, 0
2, 1795, Note_on_c, 0, 55, 0
2, 1797, Note_on_c, 0, 65, 0
2, 1799, Note_on_c, 0, 84, 0
2, 1803, Note_on_c, 0, 60, 0
2, 1877, Note_on_c, 0, 92, 50
2, 1880, Control_c, 0, 10, 83
2, 1881, Note_on_c, 0, 80, 29
2, 1881, Note_on_c, 0, 87, 53
2, 1881, Control_c, 0, 10, 63
2, 1882, Note_on_c, 0, 63, 52
2, 1882, Control_c, 0, 10, 58
2, 1883, Note_on_c, 0, 58, 53
2, 1896, Control_c, 0, 64, 0
2, 1898, Control_c, 0, 10, 53
2, 1899, Note_on_c, 0, 53, 24
2, 1933, Control_c, 0, 64, 127
2, 2009, Note_on_c, 0, 63, 0
2, 2009, Note_on_c, 0, 92, 0
2, 2013, Note_on_c, 0, 87, 0
2, 2025, Note_on_c, 0, 80, 0
2, 2050, Note_on_c, 0, 53, 0
2, 2060, Note_on_c, 0, 58, 0
2, 2234, Control_c, 0, 10, 63
2, 2235, Note_on_c, 0, 63, 61
2, 2235, Control_c, 0, 10, 89
2, 2236, Note_on_c, 0, 89, 70
2, 2236, Control_c, 0, 10, 55
2, 2237, Note_on_c, 0, 53, 51
2, 2237, Note_on_c, 0, 58, 49
2, 2237, Control_c, 0, 10, 77
2, 2238, Note_on_c, 0, 77, 55
2, 2241, Control_c, 0, 10, 84
2, 2242, Note_on_c, 0, 84, 56
2, 2249, Control_c, 0, 64, 0
2, 2264, Note_on_c, 0, 77, 0
2, 2271, Note_on_c, 0, 84, 0
2, 2273, Note_on_c, 0, 89, 0
2, 2276, Note_on_c, 0, 63, 0
2, 2276, Note_on_c, 0, 53, 0
2, 2289, Note_on_c, 0, 58, 0
2, 2298, Control_c, 0, 64, 127
2, 2322, Control_c, 0, 10, 58
2, 2323, Note_on_c, 0, 58, 54
2, 2325, Note_on_c, 0, 63, 60
2, 2325, Note_on_c, 0, 53, 46
2, 2328, Control_c, 0, 10, 89
2, 2329, Note_on_c, 0, 89, 74
2, 2330, Control_c, 0, 10, 77
2, 2331, Note_on_c, 0, 77, 64
2, 2331, Control_c, 0, 10, 84
2, 2332, Note_on_c, 0, 84, 64
2, 2349, Note_on_c, 0, 53, 0
2, 2365, Note_on_c, 0, 77, 0
2, 2367, Note_on_c, 0, 84, 0
2, 2368, Note_on_c, 0, 58, 0
2, 2372, Note_on_c, 0, 63, 0
2, 2377, Note_on_c, 0, 89, 0
2, 2409, Control_c, 0, 10, 56
2, 2410, Note_on_c, 0, 56, 46
2, 2410, Control_c, 0, 10, 65
2, 2411, Note_on_c, 0, 65, 60
2, 2413, Control_c, 0, 10, 91
2, 2414, Note_on_c, 0, 91, 62
2, 2415, Control_c, 0, 10, 69
2, 2416, Note_on_c, 0, 60, 47
2, 2416, Note_on_c, 0, 79, 39
2, 2417, Control_c, 0, 10, 72
2, 2418, Note_on_c, 0, 84, 51
2, 2418, Note_on_c, 0, 61, 40
2, 2419, Control_c, 0, 64, 0
2, 2486, Note_on_c, 0, 84, 0
2, 2487, Note_on_c, 0, 91, 0
2, 2490, Note_on_c, 0, 79, 0
2, 2495, Note_on_c, 0, 60, 0
2, 2499, Note_on_c, 0, 65, 0
2, 2510, Note_on_c, 0, 56, 0
2, 2518, Control_c, 0, 64, 127
2, 2524, Note_on_c, 0, 61, 0
2, 2587, Control_c, 0, 10, 91
2, 2588, Note_on_c, 0, 91, 53
2, 2592, Control_c, 0, 10, 84
2, 2593, Note_on_c, 0, 84, 56
2, 2593, Control_c, 0, 10, 79
2, 2594, Note_on_c, 0, 79, 36
2, 2594, Control_c, 0, 10, 65
2, 2595, Control_c, 0, 64, 0
2, 2595, Note_on_c, 0, 65, 60
2, 2596, Control_c, 0, 10, 56
2, 2597, Note_on_c, 0, 56, 38
2, 2597, Control_c, 0, 10, 60
2, 2598, Note_on_c, 0, 60, 48
2, 2598, Control_c, 0, 10, 61
2, 2599, Note_on_c, 0, 61, 42
2, 2638, Control_c, 0, 64, 127
2, 2720, Note_on_c, 0, 79, 0
2, 2723, Note_on_c, 0, 84, 0
2, 2738, Note_on_c, 0, 91, 0
2, 2746, Note_on_c, 0, 60, 0
2, 2757, Note_on_c, 0, 65, 0
2, 2765, Note_on_c, 0, 61, 0
2, 2791, Note_on_c, 0, 56, 0
2, 2874, Control_c, 0, 10, 63
2, 2875, Note_on_c, 0, 66, 77
2, 2875, Note_on_c, 0, 61, 68
2, 2875, Control_c, 0, 10, 88
2, 2876, Note_on_c, 0, 91, 83
2, 2876, Note_on_c, 0, 85, 77
2, 2876, Control_c, 0, 10, 55
2, 2877, Note_on_c, 0, 55, 74
2, 2877, Control_c, 0, 10, 79
2, 2878, Note_on_c, 0, 79, 75
2, 2878, Control_c, 0, 10, 87
2, 2879, Note_on_c, 0, 87, 62
2, 2886, Control_c, 0, 64, 0
2, 2976, Control_c, 0, 64, 127
2, 3100, Note_on_c, 0, 55, 0
2, 3105, Note_on_c, 0, 66, 0
2, 3108, Note_on_c, 0, 91, 0
2, 3116, Note_on_c, 0, 87, 0
2, 3120, Note_on_c, 0, 79, 0
2, 3124, Note_on_c, 0, 85, 0
2, 3144, Note_on_c, 0, 61, 0
2, 3188, Control_c, 0, 10, 61
2, 3189, Note_on_c, 0, 61, 54
2, 3190, Control_c, 0, 10, 55
2, 3191, Note_on_c, 0, 55, 57
2, 3192, Control_c, 0, 10, 77
2, 3193, Note_on_c, 0, 89, 69
2, 3193, Note_on_c, 0, 65, 55
2, 3194, Note_on_c, 0, 77, 59
2, 3196, Control_c, 0, 10, 84
2, 3197, Note_on_c, 0, 84, 58
2, 3198, Control_c, 0, 64, 0
2, 3217, Note_on_c, 0, 89, 0
2, 3222, Note_on_c, 0, 65, 0
2, 3226, Note_on_c, 0, 77, 0
2, 3229, Note_on_c, 0, 84, 0
2, 3231, Control_c, 0, 64, 127
2, 3238, Note_on_c, 0, 55, 0
2, 3254, Note_on_c, 0, 61, 0
2, 3272, Control_c, 0, 10, 61
2, 3273, Note_on_c, 0, 61, 47
2, 3277, Control_c, 0, 10, 87
2, 3278, Note_on_c, 0, 87, 50
2, 3284, Control_c, 0, 10, 70
2, 3285, Note_on_c, 0, 55, 27
2, 3285, Note_on_c, 0, 75, 34
2, 3285, Note_on_c, 0, 82, 46
2, 3295, Note_on_c, 0, 55, 0
2, 3296, Note_on_c, 0, 82, 0
2, 3307, Note_on_c, 0, 87, 0
2, 3309, Note_on_c, 0, 61, 0
2, 3312, Note_on_c, 0, 75, 0
2, 3369, Control_c, 0, 10, 73
2, 3370, Note_on_c, 0, 63, 51
2, 3370, Note_on_c, 0, 84, 46
2, 3373, Control_c, 0, 64, 0
2, 3373, Control_c, 0, 10, 53
2, 3374, Note_on_c, 0, 53, 41
2, 3374, Control_c, 0, 10, 79
2, 3375, Note_on_c, 0, 79, 47
2, 3375, Control_c, 0, 10, 72
2, 3376, Note_on_c, 0, 72, 26
2, 3376, Control_c, 0, 10, 58
2, 3377, Note_on_c, 0, 58, 46
2, 3453, Control_c, 0, 64, 127
2, 3561, Note_on_c, 0, 84, 0
2, 3574, Note_on_c, 0, 79, 0
2, 3605, Note_on_c, 0, 72, 0
2, 3738, Note_on_c, 0, 53, 0
2, 3752, Note_on_c, 0, 63, 0
2, 3768, Note_on_c, 0, 58, 0
2, 4079, Control_c, 0, 10, 63
2, 4080, Note_on_c, 0, 63, 42
2, 4080, Control_c, 0, 10, 58
2, 4081, Note_on_c, 0, 58, 38
2, 4085, Control_c, 0, 10, 72
2, 4086, Note_on_c, 0, 72, 28
2, 4093, Control_c, 0, 10, 68
2, 4094, Note_on_c, 0, 68, 35
2, 4097, Note_on_c, 0, 72, 0
2, 4112, Note_on_c, 0, 68, 0
2, 4116, Note_on_c, 0, 63, 0
2, 4140, Note_on_c, 0, 58, 0
2, 4142, Control_c, 0, 10, 63
2, 4143, Note_on_c, 0, 63, 67
2, 4143, Control_c, 0, 10, 73
2, 4144, Note_on_c, 0, 73, 50
2, 4146, Control_c, 0, 10, 74
2, 4147, Note_on_c, 0, 74, 84
2, 4148, Control_c, 0, 10, 60
2, 4149, Note_on_c, 0, 60, 62
2, 4157, Note_on_c, 0, 73, 0
2, 4177, Note_on_c, 0, 63, 0
2, 4183, Note_on_c, 0, 60, 0
2, 4184, Note_on_c, 0, 74, 0
2, 4186, Control_c, 0, 64, 0
2, 4202, Control_c, 0, 10, 58
2, 4203, Note_on_c, 0, 58, 35
2, 4206, Control_c, 0, 10, 63
2, 4207, Note_on_c, 0, 63, 33
2, 4228, Note_on_c, 0, 63, 0
2, 4241, Control_c, 0, 64, 127
2, 4260, Control_c, 0, 10, 75
2, 4261, Note_on_c, 0, 75, 63
2, 4266, Control_c, 0, 10, 63
2, 4267, Note_on_c, 0, 63, 56
2, 4271, Control_c, 0, 10, 60
2, 4272, Note_on_c, 0, 60, 55
2, 4278, Note_on_c, 0, 75, 0
2, 4280, Note_on_c, 0, 58, 0
2, 4281, Note_on_c, 0, 60, 0
2, 4281, Control_c, 0, 10, 74
2, 4282, Note_on_c, 0, 74, 44
2, 4293, Note_on_c, 0, 74, 0
2, 4303, Note_on_c, 0, 63, 0
2, 4326, Control_c, 0, 10, 62
2, 4327, Note_on_c, 0, 62, 52
2, 4329, Control_c, 0, 10, 61
2, 4330, Note_on_c, 0, 58, 36
2, 4330, Note_on_c, 0, 65, 59
2, 4330, Control_c, 0, 10, 72
2, 4331, Control_c, 0, 64, 0
2, 4331, Note_on_c, 0, 72, 57
2, 4333, Control_c, 0, 10, 60
2, 4334, Note_on_c, 0, 60, 39
2, 4335, Control_c, 0, 10, 69
2, 4336, Note_on_c, 0, 69, 42
2, 4352, Note_on_c, 0, 65, 0
2, 4357, Note_on_c, 0, 72, 0
2, 4357, Note_on_c, 0, 62, 0
2, 4359, Note_on_c, 0, 60, 0
2, 4362, Note_on_c, 0, 69, 0
2, 4372, Note_on_c, 0, 58, 0
2, 4448, Control_c, 0, 10, 72
2, 4449, Note_on_c, 0, 72, 49
2, 4449, Control_c, 0, 10, 65
2, 4450, Note_on_c, 0, 65, 46
2, 4451, Control_c, 0, 10, 62
2, 4452, Note_on_c, 0, 62, 38
2, 4452, Control_c, 0, 10, 58
2, 4453, Note_on_c, 0, 58, 37
2, 4454, Control_c, 0, 10, 60
2, 4455, Note_on_c, 0, 60, 41
2, 4456, Control_c, 0, 10, 69
2, 4457, Note_on_c, 0, 69, 37
2, 4474, Note_on_c, 0, 65, 0
2, 4480, Note_on_c, 0, 62, 0
2, 4481, Note_on_c, 0, 60, 0
2, 4482, Note_on_c, 0, 72, 0
2, 4482, Note_on_c, 0, 69, 0
2, 4494, Note_on_c, 0, 58, 0
2, 4596, Control_c, 0, 64, 127
2, 4630, Control_c, 0, 64, 0
2, 4631, Control_c, 0, 10, 72
2, 4632, Note_on_c, 0, 72, 55
2, 4634, Control_c, 0, 10, 63
2, 4635, Note_on_c, 0, 65, 44
2, 4635, Note_on_c, 0, 62, 44
2, 4638, Control_c, 0, 10, 58
2, 4639, Note_on_c, 0, 58, 34
2, 4639, Control_c, 0, 10, 60
2, 4640, Note_on_c, 0, 60, 37
2, 4643, Control_c, 0, 10, 69
2, 4644, Note_on_c, 0, 69, 22
2, 4650, Note_on_c, 0, 60, 0
2, 4654, Note_on_c, 0, 65, 0
2, 4660, Note_on_c, 0, 72, 0
2, 4660, Note_on_c, 0, 69, 0
2, 4662, Note_on_c, 0, 62, 0
2, 4668, Control_c, 0, 64, 127
2, 4672, Note_on_c, 0, 58, 0
2, 4735, Control_c, 0, 10, 75
2, 4736, Note_on_c, 0, 75, 61
2, 4740, Control_c, 0, 10, 68
2, 4741, Note_on_c, 0, 68, 64
2, 4742, Control_c, 0, 64, 0
2, 4743, Control_c, 0, 10, 60
2, 4744, Note_on_c, 0, 63, 46
2, 4744, Note_on_c, 0, 58, 58
2, 4744, Control_c, 0, 10, 72
2, 4745, Note_on_c, 0, 72, 49
2, 4746, Control_c, 0, 10, 64
2, 4747, Note_on_c, 0, 64, 56
2, 4794, Control_c, 0, 64, 127
2, 4901, Note_on_c, 0, 64, 0
2, 4906, Note_on_c, 0, 72, 0
2, 4912, Note_on_c, 0, 75, 0
2, 4921, Note_on_c, 0, 58, 0
2, 4952, Note_on_c, 0, 68, 0
2, 4966, Note_on_c, 0, 63, 0
2, 5064, Control_c, 0, 64, 0
2, 5113, Control_c, 0, 10, 60
2, 5114, Note_on_c, 0, 58, 65
2, 5114, Note_on_c, 0, 63, 70
2, 5114, Control_c, 0, 10, 68
2, 5115, Note_on_c, 0, 68, 70
2, 5116, Note_on_c, 0, 72, 68
2, 5116, Note_on_c, 0, 64, 64
2, 5125, Note_on_c, 0, 72, 0
2, 5126, Note_on_c, 0, 64, 0
2, 5128, Note_on_c, 0, 63, 0
2, 5134, Note_on_c, 0, 68, 0
2, 5137, Note_on_c, 0, 58, 0
2, 5139, Control_c, 0, 64, 127
2, 5152, Control_c, 0, 64, 0
2, 5203, Control_c, 0, 10, 63
2, 5204, Note_on_c, 0, 63, 78
2, 5204, Control_c, 0, 10, 58
2, 5205, Note_on_c, 0, 58, 69
2, 5205, Control_c, 0, 10, 70
2, 5206, Note_on_c, 0, 68, 71
2, 5206, Note_on_c, 0, 72, 74
2, 5215, Control_c, 0, 64, 127
2, 5253, Note_on_c, 0, 72, 0
2, 5256, Note_on_c, 0, 63, 0
2, 5261, Note_on_c, 0, 58, 0
2, 5262, Note_on_c, 0, 68, 0
2, 5293, Control_c, 0, 10, 57
2, 5294, Note_on_c, 0, 57, 65
2, 5295, Control_c, 0, 10, 72
2, 5296, Note_on_c, 0, 72, 61
2, 5297, Control_c, 0, 64, 0
2, 5297, Control_c, 0, 10, 67
2, 5298, Note_on_c, 0, 67, 63
2, 5298, Control_c, 0, 10, 62
2, 5299, Note_on_c, 0, 62, 62
2, 5343, Control_c, 0, 64, 127
2, 5386, Note_on_c, 0, 72, 0
2, 5387, Note_on_c, 0, 57, 0
2, 5392, Note_on_c, 0, 67, 0
2, 5410, Note_on_c, 0, 62, 0
2, 5520, Control_c, 0, 64, 0
2, 5520, Control_c, 0, 10, 57
2, 5521, Note_on_c, 0, 55, 46
2, 5521, Note_on_c, 0, 60, 55
2, 5524, Control_c, 0, 10, 54
2, 5525, Note_on_c, 0, 57, 36
2, 5525, Note_on_c, 0, 52, 29
2, 5603, Note_on_c, 0, 52, 0
2, 5605, Note_on_c, 0, 55, 0
2, 5610, Control_c, 0, 64, 127
2, 5614, Note_on_c, 0, 57, 0
2, 5617, Note_on_c, 0, 60, 0
2, 5707, Control_c, 0, 10, 41
2, 5708, Note_on_c, 0, 41, 47
2, 5721, Control_c, 0, 64, 0
2, 5748, Control_c, 0, 64, 127
2, 5750, Note_on_c, 0, 41, 0
2, 5945, Control_c, 0, 10, 67
2, 5946, Note_on_c, 0, 67, 55
2, 5946, Control_c, 0, 10, 84
2, 5947, Note_on_c, 0, 84, 64
2, 5947, Control_c, 0, 10, 75
2, 5948, Note_on_c, 0, 72, 51
2, 5948, Note_on_c, 0, 79, 59
2, 5949, Control_c, 0, 10, 62
2, 5950, Note_on_c, 0, 62, 38
2, 5950, Control_c, 0, 10, 57
2, 5951, Note_on_c, 0, 57, 40
2, 5955, Note_on_c, 0, 67, 0
2, 5959, Note_on_c, 0, 84, 0
2, 5959, Note_on_c, 0, 72, 0
2, 5961, Note_on_c, 0, 79, 0
2, 5962, Note_on_c, 0, 62, 0
2, 5962, Note_on_c, 0, 57, 0
2, 5965, Control_c, 0, 64, 0
2, 6005, Control_c, 0, 10, 70
2, 6006, Note_on_c, 0, 84, 66
2, 6006, Note_on_c, 0, 57, 40
2, 6009, Control_c, 0, 10, 73
2, 6010, Note_on_c, 0, 79, 48
2, 6010, Note_on_c, 0, 67, 22
2, 6010, Control_c, 0, 10, 62
2, 6011, Note_on_c, 0, 62, 34
2, 6019, Note_on_c, 0, 67, 0
2, 6019, Note_on_c, 0, 57, 0
2, 6019, Note_on_c, 0, 84, 0
2, 6020, Note_on_c, 0, 79, 0
2, 6021, Note_on_c, 0, 62, 0
2, 6023, Control_c, 0, 64, 127
2, 6034, Control_c, 0, 64, 0
2, 6066, Control_c, 0, 10, 85
2, 6067, Note_on_c, 0, 85, 77
2, 6067, Control_c, 0, 10, 73
2, 6068, Note_on_c, 0, 73, 83
2, 6070, Control_c, 0, 10, 80
2, 6071, Note_on_c, 0, 80, 63
2, 6071, Control_c, 0, 10, 64
2, 6072, Note_on_c, 0, 62, 64
2, 6072, Note_on_c, 0, 67, 65
2, 6073, Control_c, 0, 10, 57
2, 6074, Note_on_c, 0, 57, 60
2, 6079, Control_c, 0, 64, 127
2, 6087, Control_c, 0, 64, 0
2, 6088, Note_on_c, 0, 57, 0
2, 6088, Note_on_c, 0, 67, 0
2, 6097, Note_on_c, 0, 62, 0
2, 6101, Note_on_c, 0, 73, 0
2, 6103, Note_on_c, 0, 85, 0
2, 6110, Note_on_c, 0, 80, 0
2, 6124, Note_on_c, 0, 57, 49
2, 6125, Control_c, 0, 10, 62
2, 6126, Note_on_c, 0, 62, 46
2, 6130, Control_c, 0, 10, 75
2, 6131, Note_on_c, 0, 84, 54
2, 6131, Note_on_c, 0, 67, 33
2, 6138, Control_c, 0, 10, 72
2, 6139, Note_on_c, 0, 72, 45
2, 6142, Note_on_c, 0, 67, 0
2, 6142, Note_on_c, 0, 62, 0
2, 6148, Note_on_c, 0, 72, 0
2, 6151, Note_on_c, 0, 57, 0
2, 6154, Note_on_c, 0, 84, 0
2, 6206, Control_c, 0, 64, 127
2, 6222, Control_c, 0, 64, 0
2, 6244, Control_c, 0, 10, 80
2, 6245, Note_on_c, 0, 74, 64
2, 6245, Note_on_c, 0, 86, 74
2, 6247, Control_c, 0, 10, 59
2, 6248, Note_on_c, 0, 64, 57
2, 6248, Note_on_c, 0, 55, 53
2, 6248, Note_on_c, 0, 59, 46
2, 6248, Control_c, 0, 10, 60
2, 6249, Note_on_c, 0, 60, 58
2, 6249, Control_c, 0, 10, 79
2, 6250, Note_on_c, 0, 79, 43
2, 6259, Note_on_c, 0, 60, 0
2, 6261, Note_on_c, 0, 59, 0
2, 6264, Note_on_c, 0, 79, 0
2, 6266, Note_on_c, 0, 74, 0
2, 6267, Note_on_c, 0, 64, 0
2, 6271, Note_on_c, 0, 55, 0
2, 6272, Note_on_c, 0, 86, 0
2, 6369, Control_c, 0, 10, 84
2, 6370, Note_on_c, 0, 84, 64
2, 6370, Control_c, 0, 10, 64
2, 6371, Note_on_c, 0, 64, 42
2, 6372, Control_c, 0, 10, 60
2, 6373, Note_on_c, 0, 60, 46
2, 6373, Control_c, 0, 10, 63
2, 6374, Note_on_c, 0, 55, 41
2, 6374, Note_on_c, 0, 72, 36
2, 6374, Control_c, 0, 10, 79
2, 6375, Note_on_c, 0, 79, 47
2, 6375, Control_c, 0, 10, 59
2, 6376, Note_on_c, 0, 59, 37
2, 6386, Control_c, 0, 64, 127
2, 6479, Note_on_c, 0, 84, 0
2, 6492, Note_on_c, 0, 79, 0
2, 6530, Note_on_c, 0, 72, 0
2, 6531, Note_on_c, 0, 64, 0
2, 6587, Note_on_c, 0, 60, 0
2, 6589, Note_on_c, 0, 59, 0
2, 6604, Note_on_c, 0, 55, 0
2, 6720, Control_c, 0, 64, 0
2, 6720, Control_c, 0, 10, 77
2, 6721, Note_on_c, 0, 89, 79
2, 6721, Note_on_c, 0, 65, 69
2, 6721, Control_c, 0, 10, 54
2, 6722, Note_on_c, 0, 54, 59
2, 6722, Control_c, 0, 10, 58
2, 6723, Note_on_c, 0, 58, 50
2, 6723, Control_c, 0, 10, 77
2, 6724, Note_on_c, 0, 77, 77
2, 6725, Control_c, 0, 10, 60
2, 6726, Note_on_c, 0, 60, 52
2, 6735, Note_on_c, 0, 60, 0
2, 6741, Note_on_c, 0, 89, 0
2, 6742, Note_on_c, 0, 77, 0
2, 6744, Note_on_c, 0, 65, 0
2, 6760, Note_on_c, 0, 54, 0
2, 6760, Control_c, 0, 10, 87
2, 6761, Note_on_c, 0, 87, 57
2, 6773, Note_on_c, 0, 58, 0
2, 6777, Note_on_c, 0, 87, 0
2, 6792, Control_c, 0, 10, 89
2, 6793, Note_on_c, 0, 89, 80
2, 6793, Control_c, 0, 10, 65
2, 6794, Note_on_c, 0, 65, 77
2, 6794, Note_on_c, 0, 77, 76
2, 6794, Note_on_c, 0, 54, 69
2, 6794, Control_c, 0, 10, 58
2, 6795, Note_on_c, 0, 58, 67
2, 6796, Control_c, 0, 10, 60
2, 6797, Note_on_c, 0, 60, 71
2, 6835, Control_c, 0, 64, 127
2, 6935, Note_on_c, 0, 89, 0
2, 6955, Control_c, 0, 10, 87
2, 6956, Note_on_c, 0, 87, 58
2, 6970, Note_on_c, 0, 65, 0
2, 6987, Note_on_c, 0, 60, 0
2, 6991, Note_on_c, 0, 77, 0
2, 6992, Note_on_c, 0, 54, 0
2, 6993, Note_on_c, 0, 58, 0
2, 7070, Note_on_c, 0, 87, 0
2, 7282, Control_c, 0, 64, 0
2, 7283, Note_on_c, 0, 87, 68
2, 7285, Control_c, 0, 10, 66
2, 7286, Note_on_c, 0, 75, 55
2, 7286, Note_on_c, 0, 58, 56
2, 7286, Control_c, 0, 10, 80
2, 7287, Note_on_c, 0, 80, 54
2, 7287, Control_c, 0, 10, 61
2, 7288, Note_on_c, 0, 61, 64
2, 7288, Control_c, 0, 10, 65
2, 7289, Note_on_c, 0, 65, 65
2, 7289, Control_c, 0, 10, 84
2, 7290, Note_on_c, 0, 84, 51
2, 7290, Control_c, 0, 10, 54
2, 7291, Note_on_c, 0, 54, 48
2, 7315, Note_on_c, 0, 80, 0
2, 7317, Note_on_c, 0, 65, 0
2, 7318, Note_on_c, 0, 84, 0
2, 7320, Note_on_c, 0, 75, 0
2, 7327, Control_c, 0, 64, 127
2, 7330, Note_on_c, 0, 54, 0
2, 7332, Note_on_c, 0, 61, 0
2, 7334, Note_on_c, 0, 58, 0
2, 7337, Note_on_c, 0, 87, 0
2, 7364, Control_c, 0, 10, 89
2, 7365, Note_on_c, 0, 89, 80
2, 7366, Control_c, 0, 10, 69
2, 7367, Note_on_c, 0, 61, 70
2, 7367, Note_on_c, 0, 77, 73
2, 7367, Control_c, 0, 10, 56
2, 7368, Note_on_c, 0, 54, 60
2, 7368, Note_on_c, 0, 58, 61
2, 7369, Control_c, 0, 10, 65
2, 7370, Note_on_c, 0, 65, 69
2, 7403, Note_on_c, 0, 89, 0
2, 7411, Note_on_c, 0, 77, 0
2, 7416, Note_on_c, 0, 65, 0
2, 7422, Note_on_c, 0, 54, 0
2, 7428, Note_on_c, 0, 61, 0
2, 7438, Note_on_c, 0, 58, 0
2, 7451, Control_c, 0, 10, 87
2, 7452, Note_on_c, 0, 87, 70
2, 7454, Control_c, 0, 64, 0
2, 7454, Control_c, 0, 10, 60
2, 7455, Note_on_c, 0, 60, 62
2, 7455, Control_c, 0, 10, 70
2, 7456, Note_on_c, 0, 65, 56
2, 7456, Note_on_c, 0, 75, 52
2, 7456, Control_c, 0, 10, 54
2, 7457, Note_on_c, 0, 54, 46
2, 7457, Control_c, 0, 10, 82
2, 7458, Note_on_c, 0, 82, 58
2, 7481, Control_c, 0, 64, 127
2, 7513, Note_on_c, 0, 75, 0
2, 7514, Note_on_c, 0, 87, 0
2, 7515, Note_on_c, 0, 82, 0
2, 7565, Note_on_c, 0, 82, 29
2, 7568, Control_c, 0, 10, 71
2, 7569, Note_on_c, 0, 71, 25
2, 7574, Control_c, 0, 10, 84
2, 7575, Note_on_c, 0, 84, 17
2, 7578, Note_on_c, 0, 71, 0
2, 7578, Note_on_c, 0, 54, 0
2, 7579, Note_on_c, 0, 60, 0
2, 7579, Note_on_c, 0, 65, 0
2, 7585, Note_on_c, 0, 84, 0
2, 7592, Note_on_c, 0, 82, 0
2, 7635, Control_c, 0, 10, 55
2, 7636, Note_on_c, 0, 55, 71
2, 7636, Control_c, 0, 10, 65
2, 7637, Note_on_c, 0, 65, 73
2, 7637, Control_c, 0, 10, 74
2, 7638, Note_on_c, 0, 88, 78
2, 7638, Note_on_c, 0, 60, 74
2, 7638, Control_c, 0, 10, 76
2, 7639, Note_on_c, 0, 76, 70
2, 7639, Control_c, 0, 10, 84
2, 7640, Note_on_c, 0, 84, 63
2, 7641, Control_c, 0, 10, 81
2, 7642, Note_on_c, 0, 81, 63
2, 7645, Control_c, 0, 64, 0
2, 7693, Control_c, 0, 64, 127
2, 7716, Note_on_c, 0, 88, 0
2, 7719, Note_on_c, 0, 76, 0
2, 7721, Note_on_c, 0, 84, 0
2, 7723, Note_on_c, 0, 81, 0
2, 7726, Note_on_c, 0, 65, 0
2, 7730, Note_on_c, 0, 55, 0
2, 7730, Note_on_c, 0, 60, 0
2, 7741, Control_c, 0, 10, 55
2, 7742, Note_on_c, 0, 55, 36
2, 7742, Control_c, 0, 10, 86
2, 7743, Note_on_c, 0, 86, 60
2, 7745, Control_c, 0, 10, 65
2, 7746, Note_on_c, 0, 65, 63
2, 7746, Control_c, 0, 10, 74
2, 7747, Note_on_c, 0, 74, 62
2, 7748, Control_c, 0, 10, 60
2, 7749, Note_on_c, 0, 60, 55
2, 7751, Control_c, 0, 64, 0
2, 7756, Control_c, 0, 10, 81
2, 7757, Note_on_c, 0, 81, 24
2, 7772, Control_c, 0, 64, 127
2, 7773, Note_on_c, 0, 81, 0
2, 7781, Note_on_c, 0, 86, 0
2, 7791, Note_on_c, 0, 74, 0
2, 7792, Note_on_c, 0, 65, 0
2, 7793, Note_on_c, 0, 60, 0
2, 7800, Note_on_c, 0, 55, 0
2, 7860, Control_c, 0, 10, 83
2, 7861, Note_on_c, 0, 83, 66
2, 7862, Control_c, 0, 10, 75
2, 7863, Note_on_c, 0, 75, 55
2, 7865, Control_c, 0, 10, 71
2, 7866, Note_on_c, 0, 71, 47
2, 7867, Control_c, 0, 10, 58
2, 7868, Note_on_c, 0, 53, 62
2, 7868, Note_on_c, 0, 64, 54
2, 7868, Control_c, 0, 10, 59
2, 7869, Note_on_c, 0, 59, 55
2, 7870, Control_c, 0, 64, 0
2, 7901, Note_on_c, 0, 75, 0
2, 7907, Control_c, 0, 64, 127
2, 7911, Control_c, 0, 10, 76
2, 7912, Note_on_c, 0, 76, 25
2, 7924, Note_on_c, 0, 83, 0
2, 7926, Note_on_c, 0, 71, 0
2, 7932, Note_on_c, 0, 53, 0
2, 7939, Note_on_c, 0, 64, 0
2, 7940, Note_on_c, 0, 76, 0
2, 7955, Note_on_c, 0, 59, 0
2, 7986, Control_c, 0, 10, 74
2, 7987, Note_on_c, 0, 68, 71
2, 7987, Note_on_c, 0, 80, 60
2, 7989, Control_c, 0, 10, 53
2, 7990, Note_on_c, 0, 53, 66
2, 7991, Control_c, 0, 64, 0
2, 7992, Control_c, 0, 10, 63
2, 7993, Note_on_c, 0, 63, 56
2, 7996, Control_c, 0, 10, 59
2, 7997, Note_on_c, 0, 59, 40
2, 7999, Control_c, 0, 10, 56
2, 8000, Note_on_c, 0, 56, 28
2, 8027, Control_c, 0, 64, 127
2, 8048, Note_on_c, 0, 59, 0
2, 8070, Note_on_c, 0, 53, 0
2, 8071, Note_on_c, 0, 80, 0
2, 8075, Note_on_c, 0, 68, 0
2, 8079, Note_on_c, 0, 63, 0
2, 8098, Note_on_c, 0, 56, 0
2, 8112, Control_c, 0, 10, 79
2, 8113, Note_on_c, 0, 79, 57
2, 8115, Control_c, 0, 10, 62
2, 8116, Note_on_c, 0, 62, 55
2, 8117, Control_c, 0, 10, 71
2, 8118, Note_on_c, 0, 69, 53
2, 8118, Note_on_c, 0, 74, 60
2, 8118, Control_c, 0, 10, 52
2, 8119, Note_on_c, 0, 52, 51
2, 8121, Control_c, 0, 10, 57
2, 8122, Note_on_c, 0, 57, 56
2, 8129, Control_c, 0, 64, 0
2, 8185, Control_c, 0, 64, 127
2, 8290, Note_on_c, 0, 74, 0
2, 8294, Note_on_c, 0, 79, 0
2, 8311, Note_on_c, 0, 69, 0
2, 8326, Note_on_c, 0, 62, 0
2, 8327, Note_on_c, 0, 57, 0
2, 8400, Control_c, 0, 10, 64
2, 8401, Note_on_c, 0, 64, 51
2, 8404, Control_c, 0, 10, 62
2, 8405, Note_on_c, 0, 62, 53
2, 8405, Control_c, 0, 10, 67
2, 8406, Note_on_c, 0, 67, 37
2, 8412, Control_c, 0, 64, 0
2, 8412, Control_c, 0, 10, 57
2, 8413, Note_on_c, 0, 57, 34
2, 8422, Note_on_c, 0, 64, 0
2, 8424, Note_on_c, 0, 62, 0
2, 8426, Note_on_c, 0, 57, 0
2, 8426, Note_on_c, 0, 67, 0
2, 8522, Control_c, 0, 10, 64
2, 8523, Note_on_c, 0, 64, 53
2, 8523, Control_c, 0, 10, 67
2, 8524, Note_on_c, 0, 67, 46
2, 8525, Control_c, 0, 10, 62
2, 8526, Note_on_c, 0, 62, 50
2, 8529, Control_c, 0, 10, 57
2, 8530, Note_on_c, 0, 57, 44
2, 8544, Note_on_c, 0, 64, 0
2, 8546, Note_on_c, 0, 57, 0
2, 8548, Note_on_c, 0, 62, 0
2, 8550, Note_on_c, 0, 67, 0
2, 8648, Control_c, 0, 10, 65
2, 8649, Note_on_c, 0, 64, 42
2, 8649, Note_on_c, 0, 67, 48
2, 8649, Control_c, 0, 10, 62
2, 8650, Note_on_c, 0, 62, 48
2, 8650, Control_c, 0, 10, 57
2, 8651, Control_c, 0, 64, 127
2, 8651, Note_on_c, 0, 57, 46
2, 8707, Note_on_c, 0, 64, 0
2, 8726, Note_on_c, 0, 67, 0
2, 8733, Note_on_c, 0, 62, 0
2, 8739, Note_on_c, 0, 57, 0
2, 8744, Note_on_c, 0, 52, 0
2, 8826, Control_c, 0, 10, 70
2, 8827, Note_on_c, 0, 76, 61
2, 8827, Note_on_c, 0, 64, 61
2, 8827, Control_c, 0, 10, 61
2, 8828, Note_on_c, 0, 71, 67
2, 8828, Note_on_c, 0, 52, 64
2, 8828, Note_on_c, 0, 62, 65
2, 8829, Control_c, 0, 10, 57
2, 8830, Note_on_c, 0, 57, 58
2, 8830, Control_c, 0, 64, 0
2, 8843, Note_on_c, 0, 64, 0
2, 8844, Note_on_c, 0, 57, 0
2, 8846, Note_on_c, 0, 71, 0
2, 8847, Note_on_c, 0, 62, 0
2, 8847, Note_on_c, 0, 76, 0
2, 8854, Note_on_c, 0, 52, 0
2, 8891, Control_c, 0, 10, 64
2, 8892, Note_on_c, 0, 52, 60
2, 8892, Note_on_c, 0, 76, 61
2, 8892, Control_c, 0, 10, 66
2, 8893, Note_on_c, 0, 62, 62
2, 8893, Note_on_c, 0, 71, 61
2, 8893, Control_c, 0, 10, 57
2, 8894, Note_on_c, 0, 57, 54
2, 8894, Control_c, 0, 10, 64
2, 8895, Note_on_c, 0, 64, 51
2, 8901, Note_on_c, 0, 52, 0
2, 8902, Note_on_c, 0, 62, 0
2, 8903, Note_on_c, 0, 76, 0
2, 8904, Note_on_c, 0, 57, 0
2, 8904, Note_on_c, 0, 64, 0
2, 8905, Note_on_c, 0, 71, 0
2, 8954, Control_c, 0, 10, 76
2, 8955, Note_on_c, 0, 76, 66
2, 8955, Control_c, 0, 10, 62
2, 8956, Note_on_c, 0, 62, 68
2, 8956, Control_c, 0, 10, 57
2, 8957, Note_on_c, 0, 57, 67
2, 8957, Control_c, 0, 10, 64
2, 8958, Note_on_c, 0, 64, 62
2, 8958, Control_c, 0, 10, 52
2, 8959, Note_on_c, 0, 52, 66
2, 8960, Control_c, 0, 10, 71
2, 8961, Note_on_c, 0, 71, 47
2, 8969, Note_on_c, 0, 62, 0
2, 8970, Note_on_c, 0, 52, 0
2, 8975, Note_on_c, 0, 57, 0
2, 8976, Note_on_c, 0, 71, 0
2, 8977, Note_on_c, 0, 76, 0
2, 8979, Note_on_c, 0, 64, 0
2, 9005, Control_c, 0, 64, 127
2, 9056, Control_c, 0, 10, 64
2, 9057, Note_on_c, 0, 52, 49
2, 9057, Note_on_c, 0, 76, 60
2, 9058, Control_c, 0, 10, 67
2, 9059, Note_on_c, 0, 64, 64
2, 9059, Note_on_c, 0, 71, 64
2, 9059, Control_c, 0, 10, 62
2, 9060, Note_on_c, 0, 62, 51
2, 9060, Control_c, 0, 10, 57
2, 9061, Note_on_c, 0, 57, 52
2, 9070, Note_on_c, 0, 52, 0
2, 9074, Note_on_c, 0, 62, 0
2, 9074, Note_on_c, 0, 64, 0
2, 9082, Note_on_c, 0, 57, 0
2, 9084, Note_on_c, 0, 71, 0
2, 9088, Note_on_c, 0, 76, 0
2, 9122, Control_c, 0, 10, 53
2, 9123, Note_on_c, 0, 53, 71
2, 9124, Control_c, 0, 10, 63
2, 9125, Note_on_c, 0, 63, 70
2, 9125, Control_c, 0, 10, 77
2, 9126, Note_on_c, 0, 77, 60
2, 9126, Control_c, 0, 10, 65
2, 9127, Note_on_c, 0, 65, 65
2, 9127, Control_c, 0, 64, 0
2, 9127, Control_c, 0, 10, 72
2, 9128, Note_on_c, 0, 72, 57
2, 9128, Control_c, 0, 10, 58
2, 9129, Note_on_c, 0, 58, 51
2, 9134, Control_c, 0, 10, 75
2, 9135, Note_on_c, 0, 75, 27
2, 9145, Note_on_c, 0, 75, 0
2, 9185, Control_c, 0, 64, 127
2, 9356, Note_on_c, 0, 65, 0
2, 9384, Note_on_c, 0, 53, 0
2, 9385, Note_on_c, 0, 72, 0
2, 9390, Note_on_c, 0, 77, 0
2, 9397, Note_on_c, 0, 63, 0
2, 9397, Note_on_c, 0, 58, 0
2, 9430, Control_c, 0, 10, 63
2, 9431, Note_on_c, 0, 63, 60
2, 9434, Control_c, 0, 10, 68
2, 9435, Note_on_c, 0, 68, 50
2, 9435, Control_c, 0, 10, 58
2, 9436, Note_on_c, 0, 58, 39
2, 9438, Control_c, 0, 10, 53
2, 9439, Note_on_c, 0, 53, 36
2, 9444, Note_on_c, 0, 68, 0
2, 9451, Note_on_c, 0, 53, 0
2, 9453, Note_on_c, 0, 63, 0
2, 9470, Note_on_c, 0, 58, 0
2, 9544, Control_c, 0, 10, 73
2, 9545, Note_on_c, 0, 84, 70
2, 9545, Note_on_c, 0, 63, 62
2, 9547, Control_c, 0, 10, 62
2, 9548, Note_on_c, 0, 53, 57
2, 9548, Note_on_c, 0, 72, 54
2, 9548, Control_c, 0, 10, 58
2, 9549, Note_on_c, 0, 58, 44
2, 9568, Note_on_c, 0, 72, 0
2, 9570, Note_on_c, 0, 63, 0
2, 9575, Note_on_c, 0, 53, 0
2, 9582, Note_on_c, 0, 84, 0
2, 9598, Note_on_c, 0, 58, 0
2, 9666, Control_c, 0, 10, 76
2, 9667, Note_on_c, 0, 89, 64
2, 9667, Note_on_c, 0, 63, 69
2, 9667, Control_c, 0, 10, 84
2, 9668, Note_on_c, 0, 84, 61
2, 9668, Control_c, 0, 10, 77
2, 9669, Note_on_c, 0, 77, 45
2, 9669, Control_c, 0, 10, 58
2, 9670, Note_on_c, 0, 58, 45
2, 9670, Control_c, 0, 10, 53
2, 9671, Note_on_c, 0, 53, 38
2, 9682, Note_on_c, 0, 77, 0
2, 9683, Note_on_c, 0, 53, 0
2, 9687, Note_on_c, 0, 63, 0
2, 9691, Note_on_c, 0, 84, 0
2, 9696, Note_on_c, 0, 89, 0
2, 9740, Note_on_c, 0, 58, 0
2, 9781, Control_c, 0, 10, 63
2, 9782, Note_on_c, 0, 63, 74
2, 9786, Control_c, 0, 10, 70
2, 9787, Note_on_c, 0, 58, 47
2, 9787, Note_on_c, 0, 53, 65
2, 9787, Note_on_c, 0, 80, 53
2, 9787, Note_on_c, 0, 92, 65
2, 9788, Control_c, 0, 10, 87
2, 9789, Note_on_c, 0, 87, 57
2, 9806, Note_on_c, 0, 80, 0
2, 9814, Note_on_c, 0, 87, 0
2, 9816, Note_on_c, 0, 53, 0
2, 9816, Note_on_c, 0, 63, 0
2, 9817, Note_on_c, 0, 92, 0
2, 9862, Note_on_c, 0, 58, 0
2, 9908, Control_c, 0, 10, 77
2, 9909, Note_on_c, 0, 96, 69
2, 9909, Note_on_c, 0, 58, 55
2, 9909, Control_c, 0, 10, 63
2, 9910, Note_on_c, 0, 63, 64
2, 9910, Control_c, 0, 10, 84
2, 9911, Note_on_c, 0, 84, 49
2, 9911, Control_c, 0, 10, 53
2, 9912, Note_on_c, 0, 53, 56
2, 9923, Control_c, 0, 64, 0
2, 9932, Note_on_c, 0, 84, 0
2, 9938, Control_c, 0, 64, 127
2, 9942, Note_on_c, 0, 96, 0
2, 9961, Note_on_c, 0, 63, 0
2, 9976, Note_on_c, 0, 58, 0
2, 10017, Control_c, 0, 10, 101
2, 10018, Note_on_c, 0, 101, 67
2, 10022, Control_c, 0, 10, 89
2, 10023, Note_on_c, 0, 89, 63
2, 10023, Control_c, 0, 10, 63
2, 10024, Note_on_c, 0, 63, 57
2, 10026, Note_on_c, 0, 53, 0
2, 10028, Control_c, 0, 10, 58
2, 10029, Note_on_c, 0, 58, 32
2, 10042, Note_on_c, 0, 58, 0
2, 10043, Note_on_c, 0, 89, 0
2, 10050, Note_on_c, 0, 63, 0
2, 10051, Note_on_c, 0, 101, 0
2, 10077, Control_c, 0, 10, 65
2, 10078, Note_on_c, 0, 65, 74
2, 10078, Control_c, 0, 10, 56
2, 10079, Note_on_c, 0, 56, 53
2, 10080, Control_c, 0, 10, 60
2, 10081, Note_on_c, 0, 60, 58
2, 10082, Control_c, 0, 10, 97
2, 10083, Note_on_c, 0, 91, 62
2, 10083, Note_on_c, 0, 103, 57
2, 10083, Control_c, 0, 10, 61
2, 10084, Note_on_c, 0, 61, 43
2, 10088, Control_c, 0, 10, 99
2, 10089, Note_on_c, 0, 99, 36
2, 10095, Control_c, 0, 64, 0
2, 10102, Note_on_c, 0, 99, 0
2, 10130, Note_on_c, 0, 91, 0
2, 10133, Note_on_c, 0, 103, 0
2, 10136, Note_on_c, 0, 60, 0
2, 10138, Note_on_c, 0, 65, 0
2, 10144, Note_on_c, 0, 56, 0
2, 10148, Note_on_c, 0, 61, 0
2, 10204, Control_c, 0, 10, 60
2, 10205, Note_on_c, 0, 56, 56
2, 10205, Note_on_c, 0, 65, 60
2, 10205, Note_on_c, 0, 61, 48
2, 10205, Control_c, 0, 10, 97
2, 10206, Note_on_c, 0, 91, 60
2, 10206, Note_on_c, 0, 103, 60
2, 10206, Control_c, 0, 10, 99
2, 10207, Note_on_c, 0, 99, 52
2, 10208, Control_c, 0, 10, 60
2, 10209, Note_on_c, 0, 60, 49
2, 10219, Note_on_c, 0, 60, 0
2, 10245, Note_on_c, 0, 91, 0
2, 10253, Note_on_c, 0, 99, 0
2, 10260, Control_c, 0, 64, 127
2, 10261, Note_on_c, 0, 56, 0
2, 10261, Note_on_c, 0, 103, 0
2, 10264, Note_on_c, 0, 65, 0
2, 10279, Note_on_c, 0, 61, 0
2, 10281, Control_c, 0, 64, 0
2, 10318, Control_c, 0, 10, 57
2, 10319, Note_on_c, 0, 57, 78
2, 10391, Control_c, 0, 10, 65
2, 10392, Note_on_c, 0, 65, 44
2, 10392, Control_c, 0, 10, 61
2, 10393, Note_on_c, 0, 61, 38
2, 10434, Control_c, 0, 64, 127
2, 10467, Note_on_c, 0, 57, 0
2, 10503, Control_c, 0, 10, 56
2, 10504, Note_on_c, 0, 56, 76
2, 10541, Control_c, 0, 64, 0
2, 10563, Note_on_c, 0, 65, 0
2, 10567, Note_on_c, 0, 61, 0
2, 10615, Control_c, 0, 64, 127
2, 10635, Control_c, 0, 10, 63
2, 10636, Note_on_c, 0, 61, 62
2, 10636, Note_on_c, 0, 65, 67
2, 10638, Control_c, 0, 64, 0
2, 10667, Control_c, 0, 64, 127
2, 10720, Note_on_c, 0, 56, 0
2, 10742, Control_c, 0, 10, 103
2, 10743, Note_on_c, 0, 103, 80
2, 10743, Control_c, 0, 10, 91
2, 10744, Note_on_c, 0, 91, 77
2, 10745, Control_c, 0, 10, 76
2, 10746, Note_on_c, 0, 55, 80
2, 10746, Note_on_c, 0, 97, 73
2, 10765, Control_c, 0, 64, 0
2, 10787, Note_on_c, 0, 65, 0
2, 10791, Note_on_c, 0, 97, 0
2, 10795, Note_on_c, 0, 91, 0
2, 10797, Note_on_c, 0, 103, 0
2, 10801, Note_on_c, 0, 61, 0
2, 10803, Control_c, 0, 64, 127
2, 10813, Control_c, 0, 10, 103
2, 10814, Note_on_c, 0, 103, 67
2, 10816, Control_c, 0, 10, 97
2, 10817, Note_on_c, 0, 97, 60
2, 10817, Control_c, 0, 10, 91
2, 10818, Note_on_c, 0, 91, 60
2, 10819, Control_c, 0, 10, 65
2, 10820, Note_on_c, 0, 65, 60
2, 10821, Control_c, 0, 10, 61
2, 10822, Note_on_c, 0, 61, 32
2, 10863, Note_on_c, 0, 65, 0
2, 10874, Note_on_c, 0, 91, 0
2, 10877, Note_on_c, 0, 103, 0
2, 10884, Note_on_c, 0, 61, 0
2, 10886, Note_on_c, 0, 97, 0
2, 10911, Control_c, 0, 64, 0
2, 10913, Note_on_c, 0, 61, 51
2, 10914, Control_c, 0, 10, 65
2, 10915, Note_on_c, 0, 65, 48
2, 10918, Control_c, 0, 10, 101
2, 10919, Note_on_c, 0, 101, 72
2, 10919, Control_c, 0, 10, 89
2, 10920, Note_on_c, 0, 89, 66
2, 10923, Control_c, 0, 10, 96
2, 10924, Note_on_c, 0, 96, 59
2, 10926, Note_on_c, 0, 65, 0
2, 10932, Control_c, 0, 64, 127
2, 10941, Note_on_c, 0, 55, 0
2, 10951, Note_on_c, 0, 61, 0
2, 10953, Note_on_c, 0, 96, 0
2, 10955, Note_on_c, 0, 101, 0
2, 10956, Note_on_c, 0, 89, 0
2, 10996, Control_c, 0, 10, 54
2, 10997, Note_on_c, 0, 54, 81
2, 11002, Control_c, 0, 10, 53
2, 11003, Note_on_c, 0, 53, 80
2, 11028, Note_on_c, 0, 53, 0
2, 11029, Note_on_c, 0, 54, 0
2, 11067, Control_c, 0, 64, 0
2, 11067, Control_c, 0, 10, 63
2, 11068, Note_on_c, 0, 63, 79
2, 11068, Control_c, 0, 10, 93
2, 11069, Note_on_c, 0, 99, 70
2, 11069, Note_on_c, 0, 87, 64
2, 11069, Control_c, 0, 10, 58
2, 11070, Note_on_c, 0, 58, 68
2, 11070, Control_c, 0, 10, 52
2, 11071, Note_on_c, 0, 52, 78
2, 11071, Control_c, 0, 10, 96
2, 11072, Note_on_c, 0, 96, 68
2, 11073, Control_c, 0, 10, 92
2, 11074, Note_on_c, 0, 92, 58
2, 11145, Note_on_c, 0, 52, 0
2, 11148, Note_on_c, 0, 87, 0
2, 11148, Note_on_c, 0, 92, 0
2, 11150, Note_on_c, 0, 96, 0
2, 11151, Note_on_c, 0, 63, 0
2, 11152, Note_on_c, 0, 99, 0
2, 11156, Note_on_c, 0, 58, 0
2, 11171, Control_c, 0, 10, 99
2, 11172, Note_on_c, 0, 99, 67
2, 11172, Control_c, 0, 10, 63
2, 11173, Note_on_c, 0, 63, 75
2, 11173, Control_c, 0, 10, 52
2, 11174, Note_on_c, 0, 52, 70
2, 11174, Control_c, 0, 10, 72
2, 11175, Note_on_c, 0, 87, 60
2, 11175, Note_on_c, 0, 58, 71
2, 11176, Control_c, 0, 10, 92
2, 11177, Note_on_c, 0, 92, 62
2, 11177, Control_c, 0, 10, 96
2, 11178, Note_on_c, 0, 96, 58
2, 11292, Control_c, 0, 64, 127
2, 11320, Note_on_c, 0, 58, 0
2, 11321, Note_on_c, 0, 52, 0
2, 11325, Note_on_c, 0, 63, 0
2, 11329, Note_on_c, 0, 92, 0
2, 11334, Note_on_c, 0, 87, 0
2, 11352, Control_c, 0, 10, 92
2, 11353, Note_on_c, 0, 92, 47
2, 11353, Control_c, 0, 10, 75
2, 11354, Note_on_c, 0, 63, 58
2, 11354, Note_on_c, 0, 87, 48
2, 11355, Control_c, 0, 10, 55
2, 11356, Note_on_c, 0, 58, 59
2, 11356, Note_on_c, 0, 52, 34
2, 11395, Note_on_c, 0, 96, 0
2, 11410, Note_on_c, 0, 99, 0
2, 11418, Note_on_c, 0, 52, 0
2, 11430, Note_on_c, 0, 87, 0
2, 11433, Note_on_c, 0, 92, 0
2, 11438, Note_on_c, 0, 63, 0
2, 11458, Note_on_c, 0, 58, 0
2, 11467, Control_c, 0, 10, 56
2, 11468, Note_on_c, 0, 62, 64
2, 11468, Note_on_c, 0, 51, 58
2, 11468, Control_c, 0, 10, 93
2, 11469, Note_on_c, 0, 93, 64
2, 11469, Control_c, 0, 10, 86
2, 11470, Note_on_c, 0, 86, 58
2, 11473, Control_c, 0, 10, 57
2, 11474, Note_on_c, 0, 57, 53
2, 11480, Control_c, 0, 64, 0
2, 11521, Control_c, 0, 64, 127
2, 11525, Note_on_c, 0, 93, 0
2, 11540, Note_on_c, 0, 86, 0
2, 11607, Note_on_c, 0, 57, 0
2, 11611, Note_on_c, 0, 51, 0
2, 11627, Note_on_c, 0, 62, 0
2, 11698, Control_c, 0, 10, 67
2, 11699, Note_on_c, 0, 67, 70
2, 11699, Control_c, 0, 10, 63
2, 11700, Note_on_c, 0, 63, 60
2, 11700, Control_c, 0, 10, 57
2, 11701, Note_on_c, 0, 57, 64
2, 11756, Control_c, 0, 64, 0
2, 11757, Control_c, 0, 10, 83
2, 11758, Note_on_c, 0, 83, 66
2, 11760, Control_c, 0, 10, 81
2, 11761, Note_on_c, 0, 81, 60
2, 11768, Control_c, 0, 10, 84
2, 11769, Note_on_c, 0, 84, 89
2, 11771, Note_on_c, 0, 81, 0
2, 11777, Note_on_c, 0, 83, 0
2, 11818, Note_on_c, 0, 84, 0
2, 11826, Control_c, 0, 10, 83
2, 11827, Note_on_c, 0, 83, 67
2, 11852, Note_on_c, 0, 67, 0
2, 11871, Note_on_c, 0, 83, 0
2, 11874, Note_on_c, 0, 63, 0
2, 11881, Note_on_c, 0, 57, 0
2, 11890, Control_c, 0, 10, 82
2, 11891, Note_on_c, 0, 82, 50
2, 11949, Note_on_c, 0, 82, 0
2, 11949, Control_c, 0, 10, 81
2, 11950, Note_on_c, 0, 81, 63
2, 11989, Note_on_c, 0, 81, 0
2, 12006, Control_c, 0, 10, 56
2, 12007, Note_on_c, 0, 56, 35
2, 12008, Control_c, 0, 10, 60
2, 12009, Note_on_c, 0, 60, 39
2, 12010, Control_c, 0, 10, 65
2, 12011, Note_on_c, 0, 50, 38
2, 12011, Note_on_c, 0, 80, 56
2, 12117, Note_on_c, 0, 80, 0
2, 12126, Control_c, 0, 10, 74
2, 12127, Note_on_c, 0, 74, 30
2, 12161, Control_c, 0, 64, 127
2, 12176, Note_on_c, 0, 74, 0
2, 12185, Control_c, 0, 64, 0
2, 12193, Note_on_c, 0, 74, 46
2, 12216, Note_on_c, 0, 74, 0
2, 12238, Note_on_c, 0, 60, 0
2, 12240, Note_on_c, 0, 56, 0
2, 12244, Note_on_c, 0, 50, 0
2, 12285, Control_c, 0, 64, 127
2, 12293, Control_c, 0, 64, 0
2, 12308, Control_c, 0, 10, 50
2, 12309, Note_on_c, 0, 50, 55
2, 12309, Control_c, 0, 10, 56
2, 12310, Note_on_c, 0, 56, 54
2, 12310, Control_c, 0, 10, 60
2, 12311, Note_on_c, 0, 60, 64
2, 12321, Note_on_c, 0, 50, 0
2, 12322, Note_on_c, 0, 60, 0
2, 12338, Note_on_c, 0, 56, 0
2, 12426, Control_c, 0, 10, 86
2, 12427, Note_on_c, 0, 86, 108
2, 12427, Control_c, 0, 10, 58
2, 12428, Note_on_c, 0, 59, 80
2, 12428, Note_on_c, 0, 53, 80
2, 12428, Note_on_c, 0, 64, 85
2, 12543, Control_c, 0, 10, 85
2, 12544, Note_on_c, 0, 85, 83
2, 12564, Note_on_c, 0, 86, 0
2, 12583, Note_on_c, 0, 85, 0
2, 12606, Control_c, 0, 10, 84
2, 12607, Note_on_c, 0, 84, 42
2, 12618, Note_on_c, 0, 64, 0
2, 12649, Note_on_c, 0, 53, 0
2, 12651, Note_on_c, 0, 84, 0
2, 12664, Control_c, 0, 64, 127
2, 12666, Control_c, 0, 10, 83
2, 12667, Note_on_c, 0, 83, 40
2, 12701, Note_on_c, 0, 59, 0
2, 12706, Note_on_c, 0, 83, 0
2, 12716, Control_c, 0, 64, 0
2, 12725, Control_c, 0, 10, 61
2, 12726, Note_on_c, 0, 63, 55
2, 12726, Note_on_c, 0, 59, 33
2, 12727, Control_c, 0, 10, 67
2, 12728, Note_on_c, 0, 53, 50
2, 12728, Note_on_c, 0, 82, 69
2, 12733, Control_c, 0, 10, 56
2, 12734, Note_on_c, 0, 56, 35
2, 12760, Control_c, 0, 64, 127
2, 12812, Control_c, 0, 64, 0
2, 12831, Control_c, 0, 64, 127
2, 12833, Note_on_c, 0, 53, 0
2, 12837, Note_on_c, 0, 63, 0
2, 12838, Note_on_c, 0, 59, 0
2, 12844, Control_c, 0, 10, 80
2, 12845, Note_on_c, 0, 80, 53
2, 12855, Note_on_c, 0, 56, 0
2, 12864, Note_on_c, 0, 82, 0
2, 12903, Note_on_c, 0, 80, 0
2, 12912, Control_c, 0, 10, 62
2, 12913, Note_on_c, 0, 62, 48
2, 12916, Control_c, 0, 10, 59
2, 12917, Note_on_c, 0, 59, 33
2, 12917, Control_c, 0, 10, 52
2, 12918, Note_on_c, 0, 52, 36
2, 12919, Control_c, 0, 10, 79
2, 12920, Note_on_c, 0, 79, 55
2, 12921, Control_c, 0, 10, 55
2, 12922, Note_on_c, 0, 55, 37
2, 12926, Control_c, 0, 64, 0
2, 12977, Control_c, 0, 64, 127
2, 13006, Note_on_c, 0, 79, 0
2, 13025, Control_c, 0, 10, 83
2, 13026, Note_on_c, 0, 83, 77
2, 13027, Control_c, 0, 10, 71
2, 13028, Note_on_c, 0, 71, 66
2, 13068, Note_on_c, 0, 71, 0
2, 13071, Note_on_c, 0, 83, 0
2, 13077, Control_c, 0, 64, 0
2, 13089, Control_c, 0, 10, 79
2, 13090, Note_on_c, 0, 79, 40
2, 13094, Note_on_c, 0, 55, 0
2, 13105, Note_on_c, 0, 59, 0
2, 13106, Note_on_c, 0, 79, 0
2, 13106, Note_on_c, 0, 52, 0
2, 13136, Note_on_c, 0, 62, 0
2, 13137, Control_c, 0, 64, 127
2, 13151, Note_on_c, 0, 79, 57
2, 13184, Note_on_c, 0, 79, 0
2, 13204, Control_c, 0, 64, 0
2, 13206, Control_c, 0, 10, 75
2, 13207, Note_on_c, 0, 75, 62
2, 13207, Control_c, 0, 10, 79
2, 13208, Note_on_c, 0, 79, 50
2, 13208, Control_c, 0, 10, 83
2, 13209, Note_on_c, 0, 83, 74
2, 13209, Control_c, 0, 10, 67
2, 13210, Note_on_c, 0, 71, 66
2, 13210, Note_on_c, 0, 63, 62
2, 13210, Control_c, 0, 10, 60
2, 13211, Note_on_c, 0, 60, 58
2, 13212, Control_c, 0, 10, 53
2, 13213, Note_on_c, 0, 53, 38
2, 13219, Control_c, 0, 10, 57
2, 13220, Note_on_c, 0, 57, 36
2, 13271, Note_on_c, 0, 79, 0
2, 13288, Note_on_c, 0, 71, 0
2, 13295, Note_on_c, 0, 75, 0
2, 13297, Note_on_c, 0, 60, 0
2, 13301, Note_on_c, 0, 57, 0
2, 13301, Note_on_c, 0, 83, 0
2, 13318, Note_on_c, 0, 53, 0
2, 13318, Note_on_c, 0, 63, 0
2, 13320, Control_c, 0, 64, 127
2, 13322, Control_c, 0, 10, 79
2, 13323, Note_on_c, 0, 79, 42
2, 13360, Note_on_c, 0, 79, 0
2, 13383, Control_c, 0, 10, 62
2, 13384, Note_on_c, 0, 62, 62
2, 13386, Control_c, 0, 10, 83
2, 13387, Note_on_c, 0, 83, 77
2, 13388, Control_c, 0, 10, 60
2, 13389, Note_on_c, 0, 59, 48
2, 13389, Note_on_c, 0, 52, 47
2, 13389, Note_on_c, 0, 71, 71
2, 13389, Control_c, 0, 64, 0
2, 13391, Control_c, 0, 10, 79
2, 13392, Note_on_c, 0, 79, 37
2, 13392, Control_c, 0, 10, 55
2, 13393, Note_on_c, 0, 55, 55
2, 13409, Note_on_c, 0, 79, 0
2, 13410, Note_on_c, 0, 71, 0
2, 13414, Note_on_c, 0, 83, 0
2, 13414, Note_on_c, 0, 62, 0
2, 13420, Note_on_c, 0, 52, 0
2, 13420, Note_on_c, 0, 55, 0
2, 13424, Note_on_c, 0, 59, 0
2, 13453, Control_c, 0, 10, 83
2, 13454, Note_on_c, 0, 83, 82
2, 13455, Control_c, 0, 10, 60
2, 13456, Note_on_c, 0, 59, 49
2, 13456, Note_on_c, 0, 62, 63
2, 13457, Control_c, 0, 10, 71
2, 13458, Note_on_c, 0, 71, 75
2, 13458, Control_c, 0, 10, 53
2, 13459, Note_on_c, 0, 55, 48
2, 13459, Note_on_c, 0, 52, 49
2, 13476, Control_c, 0, 64, 127
2, 13497, Control_c, 0, 64, 0
2, 13503, Note_on_c, 0, 71, 0
2, 13519, Note_on_c, 0, 83, 0
2, 13521, Control_c, 0, 64, 127
2, 13528, Note_on_c, 0, 55, 0
2, 13530, Note_on_c, 0, 52, 0
2, 13532, Note_on_c, 0, 59, 0
2, 13536, Control_c, 0, 10, 79
2, 13537, Note_on_c, 0, 79, 57
2, 13556, Note_on_c, 0, 62, 0
2, 13559, Note_on_c, 0, 79, 0
2, 13625, Control_c, 0, 10, 86
2, 13626, Note_on_c, 0, 86, 85
2, 13626, Control_c, 0, 10, 59
2, 13627, Note_on_c, 0, 64, 83
2, 13627, Note_on_c, 0, 55, 77
2, 13627, Control_c, 0, 10, 79
2, 13628, Note_on_c, 0, 79, 80
2, 13628, Control_c, 0, 10, 64
2, 13629, Note_on_c, 0, 60, 75
2, 13629, Note_on_c, 0, 59, 69
2, 13629, Note_on_c, 0, 74, 73
2, 13629, Control_c, 0, 10, 83
2, 13630, Note_on_c, 0, 83, 71
2, 13630, Control_c, 0, 64, 0
2, 13667, Note_on_c, 0, 83, 0
2, 13672, Note_on_c, 0, 79, 0
2, 13673, Note_on_c, 0, 74, 0
2, 13675, Control_c, 0, 64, 127
2, 13678, Note_on_c, 0, 86, 0
2, 13678, Note_on_c, 0, 64, 0
2, 13679, Note_on_c, 0, 60, 0
2, 13682, Note_on_c, 0, 59, 0
2, 13687, Note_on_c, 0, 55, 0
2, 13747, Control_c, 0, 10, 84
2, 13748, Note_on_c, 0, 84, 82
2, 13749, Control_c, 0, 10, 72
2, 13750, Control_c, 0, 64, 0
2, 13750, Note_on_c, 0, 72, 70
2, 13750, Control_c, 0, 10, 59
2, 13751, Note_on_c, 0, 55, 74
2, 13751, Note_on_c, 0, 64, 73
2, 13751, Control_c, 0, 10, 79
2, 13752, Note_on_c, 0, 79, 68
2, 13752, Control_c, 0, 10, 59
2, 13753, Note_on_c, 0, 59, 63
2, 13753, Note_on_c, 0, 60, 64
2, 13786, Note_on_c, 0, 84, 0
2, 13793, Note_on_c, 0, 79, 0
2, 13795, Control_c, 0, 64, 127
2, 13799, Note_on_c, 0, 72, 0
2, 13836, Note_on_c, 0, 55, 0
2, 13836, Note_on_c, 0, 59, 0
2, 13841, Note_on_c, 0, 60, 0
2, 13845, Note_on_c, 0, 64, 0
2, 13937, Control_c, 0, 10, 79
2, 13938, Note_on_c, 0, 79, 72
2, 13939, Control_c, 0, 10, 69
2, 13940, Note_on_c, 0, 69, 77
2, 13941, Control_c, 0, 10, 77
2, 13942, Note_on_c, 0, 77, 66
2, 13942, Control_c, 0, 10, 72
2, 13943, Note_on_c, 0, 72, 64
2, 13945, Control_c, 0, 64, 0
2, 13949, Control_c, 0, 10, 67
2, 13950, Note_on_c, 0, 67, 51
2, 14047, Control_c, 0, 10, 55
2, 14048, Note_on_c, 0, 55, 40
2, 14062, Control_c, 0, 64, 127
2, 14089, Note_on_c, 0, 55, 0
2, 14122, Note_on_c, 0, 55, 50
2, 14142, Note_on_c, 0, 67, 0
2, 14143, Note_on_c, 0, 69, 0
2, 14147, Note_on_c, 0, 72, 0
2, 14228, Control_c, 0, 10, 67
2, 14229, Note_on_c, 0, 67, 51
2, 14252, Note_on_c, 0, 67, 0
2, 14290, Control_c, 0, 10, 69
2, 14291, Note_on_c, 0, 69, 47
2, 14321, Note_on_c, 0, 79, 0
2, 14322, Note_on_c, 0, 69, 0
2, 14323, Note_on_c, 0, 77, 0
2, 14344, Control_c, 0, 10, 72
2, 14345, Note_on_c, 0, 72, 57
2, 14377, Note_on_c, 0, 72, 0
2, 14407, Control_c, 0, 10, 66
2, 14408, Note_on_c, 0, 65, 48
2, 14408, Note_on_c, 0, 67, 54
2, 14409, Control_c, 0, 10, 61
2, 14410, Note_on_c, 0, 61, 42
2, 14411, Control_c, 0, 10, 56
2, 14412, Note_on_c, 0, 56, 33
2, 14422, Control_c, 0, 64, 0
2, 14461, Control_c, 0, 64, 127
2, 14485, Note_on_c, 0, 67, 0
2, 14489, Control_c, 0, 10, 68
2, 14490, Note_on_c, 0, 68, 50
2, 14512, Note_on_c, 0, 68, 0
2, 14515, Control_c, 0, 10, 67
2, 14516, Note_on_c, 0, 65, 0
2, 14516, Note_on_c, 0, 67, 30
2, 14540, Note_on_c, 0, 67, 0
2, 14545, Control_c, 0, 10, 68
2, 14546, Note_on_c, 0, 68, 38
2, 14552, Note_on_c, 0, 61, 0
2, 14562, Note_on_c, 0, 68, 0
2, 14567, Control_c, 0, 10, 67
2, 14568, Note_on_c, 0, 67, 39
2, 14590, Note_on_c, 0, 67, 0
2, 14592, Note_on_c, 0, 56, 0
2, 14596, Control_c, 0, 10, 68
2, 14597, Note_on_c, 0, 68, 55
2, 14607, Control_c, 0, 64, 0
2, 14619, Note_on_c, 0, 68, 0
2, 14625, Control_c, 0, 10, 67
2, 14626, Note_on_c, 0, 67, 51
2, 14645, Note_on_c, 0, 67, 0
2, 14651, Control_c, 0, 10, 68
2, 14652, Note_on_c, 0, 68, 58
2, 14672, Note_on_c, 0, 68, 0
2, 14674, Control_c, 0, 10, 67
2, 14675, Note_on_c, 0, 67, 45
2, 14696, Note_on_c, 0, 67, 0
2, 14702, Control_c, 0, 10, 68
2, 14703, Note_on_c, 0, 68, 62
2, 14720, Control_c, 0, 10, 65
2, 14721, Note_on_c, 0, 65, 33
2, 14722, Note_on_c, 0, 68, 0
2, 14722, Control_c, 0, 10, 56
2, 14723, Note_on_c, 0, 56, 31
2, 14723, Control_c, 0, 10, 61
2, 14724, Note_on_c, 0, 61, 33
2, 14724, Control_c, 0, 10, 67
2, 14725, Note_on_c, 0, 67, 49
2, 14745, Note_on_c, 0, 67, 0
2, 14753, Control_c, 0, 10, 68
2, 14754, Note_on_c, 0, 68, 59
2, 14772, Note_on_c, 0, 68, 0
2, 14774, Note_on_c, 0, 55, 0
2, 14774, Control_c, 0, 10, 67
2, 14775, Note_on_c, 0, 67, 49
2, 14796, Note_on_c, 0, 67, 0
2, 14800, Control_c, 0, 10, 68
2, 14801, Note_on_c, 0, 68, 67
2, 14809, Control_c, 0, 64, 127
2, 14814, Control_c, 0, 10, 55
2, 14815, Note_on_c, 0, 55, 60
2, 14821, Note_on_c, 0, 68, 0
2, 14822, Control_c, 0, 10, 67
2, 14823, Note_on_c, 0, 67, 53
2, 14830, Control_c, 0, 64, 0
2, 14831, Note_on_c, 0, 56, 0
2, 14840, Note_on_c, 0, 61, 0
2, 14840, Note_on_c, 0, 65, 0
2, 14844, Note_on_c, 0, 67, 0
2, 14847, Control_c, 0, 10, 68
2, 14848, Note_on_c, 0, 68, 56
2, 14872, Note_on_c, 0, 68, 0
2, 14873, Control_c, 0, 10, 67
2, 14874, Note_on_c, 0, 67, 45
2, 14890, Control_c, 0, 64, 127
2, 14909, Control_c, 0, 64, 0
2, 14909, Control_c, 0, 10, 62
2, 14910, Note_on_c, 0, 62, 38
2, 14910, Control_c, 0, 10, 60
2, 14911, Note_on_c, 0, 60, 45
2, 14912, Control_c, 0, 10, 64
2, 14913, Note_on_c, 0, 64, 34
2, 14944, Note_on_c, 0, 64, 0
2, 14997, Note_on_c, 0, 55, 0
2, 15021, Control_c, 0, 64, 127
2, 15036, Control_c, 0, 10, 55
2, 15037, Note_on_c, 0, 55, 36
2, 15068, Note_on_c, 0, 60, 0
2, 15069, Note_on_c, 0, 62, 0
2, 15175, Note_on_c, 0, 67, 0
2, 15194, Control_c, 0, 10, 64
2, 15195, Note_on_c, 0, 64, 59
2, 15199, Control_c, 0, 10, 62
2, 15200, Note_on_c, 0, 62, 52
2, 15222, Note_on_c, 0, 64, 0
2, 15223, Note_on_c, 0, 62, 0
2, 15252, Control_c, 0, 10, 67
2, 15253, Note_on_c, 0, 67, 50
2, 15281, Note_on_c, 0, 67, 0
2, 15312, Control_c, 0, 10, 74
2, 15313, Note_on_c, 0, 74, 66
2, 15314, Control_c, 0, 10, 65
2, 15315, Note_on_c, 0, 61, 49
2, 15315, Note_on_c, 0, 65, 57
2, 15315, Note_on_c, 0, 70, 74
2, 15322, Control_c, 0, 64, 0
2, 15353, Control_c, 0, 64, 127
2, 15376, Note_on_c, 0, 65, 0
2, 15409, Note_on_c, 0, 61, 0
2, 15409, Note_on_c, 0, 70, 0
2, 15410, Note_on_c, 0, 74, 0
2, 15432, Control_c, 0, 10, 72
2, 15433, Note_on_c, 0, 72, 58
2, 15433, Control_c, 0, 10, 66
2, 15434, Note_on_c, 0, 69, 54
2, 15434, Note_on_c, 0, 64, 52
2, 15435, Control_c, 0, 10, 65
2, 15436, Note_on_c, 0, 65, 39
2, 15436, Control_c, 0, 10, 60
2, 15437, Note_on_c, 0, 60, 55
2, 15440, Control_c, 0, 64, 0
2, 15470, Control_c, 0, 64, 127
2, 15494, Note_on_c, 0, 60, 0
2, 15494, Note_on_c, 0, 64, 0
2, 15499, Note_on_c, 0, 55, 0
2, 15500, Note_on_c, 0, 69, 0
2, 15505, Note_on_c, 0, 72, 0
2, 15510, Note_on_c, 0, 65, 0
2, 15550, Control_c, 0, 10, 75
2, 15551, Note_on_c, 0, 75, 53
2, 15551, Control_c, 0, 10, 63
2, 15552, Note_on_c, 0, 63, 53
2, 15552, Control_c, 0, 10, 66
2, 15553, Note_on_c, 0, 68, 37
2, 15553, Note_on_c, 0, 65, 46
2, 15554, Control_c, 0, 10, 56
2, 15555, Note_on_c, 0, 59, 51
2, 15555, Note_on_c, 0, 53, 46
2, 15565, Control_c, 0, 64, 0
2, 15581, Control_c, 0, 64, 127
2, 15582, Note_on_c, 0, 65, 0
2, 15586, Note_on_c, 0, 68, 0
2, 15592, Note_on_c, 0, 75, 0
2, 15600, Note_on_c, 0, 53, 0
2, 15603, Note_on_c, 0, 63, 0
2, 15606, Note_on_c, 0, 59, 0
2, 15667, Control_c, 0, 10, 65
2, 15668, Note_on_c, 0, 79, 59
2, 15668, Note_on_c, 0, 63, 52
2, 15668, Note_on_c, 0, 53, 49
2, 15672, Control_c, 0, 10, 59
2, 15673, Note_on_c, 0, 59, 49
2, 15673, Control_c, 0, 10, 73
2, 15674, Note_on_c, 0, 73, 56
2, 15674, Control_c, 0, 64, 0
2, 15674, Control_c, 0, 10, 69
2, 15675, Note_on_c, 0, 69, 49
2, 15690, Note_on_c, 0, 69, 0
2, 15699, Note_on_c, 0, 73, 0
2, 15701, Control_c, 0, 64, 127
2, 15704, Note_on_c, 0, 79, 0
2, 15733, Note_on_c, 0, 63, 0
2, 15737, Note_on_c, 0, 53, 0
2, 15758, Note_on_c, 0, 59, 0
2, 15787, Control_c, 0, 10, 83
2, 15788, Note_on_c, 0, 83, 83
2, 15789, Control_c, 0, 10, 76
2, 15790, Note_on_c, 0, 76, 79
2, 15798, Control_c, 0, 10, 62
2, 15799, Note_on_c, 0, 62, 50
2, 15799, Control_c, 0, 10, 59
2, 15800, Note_on_c, 0, 59, 29
2, 15804, Control_c, 0, 10, 52
2, 15805, Note_on_c, 0, 52, 39
2, 15806, Control_c, 0, 10, 55
2, 15807, Note_on_c, 0, 55, 34
2, 15828, Note_on_c, 0, 83, 0
2, 15831, Note_on_c, 0, 76, 0
2, 15837, Control_c, 0, 64, 0
2, 15846, Control_c, 0, 10, 79
2, 15847, Note_on_c, 0, 79, 46
2, 15848, Control_c, 0, 10, 71
2, 15849, Note_on_c, 0, 71, 37
2, 15899, Note_on_c, 0, 71, 0
2, 15913, Note_on_c, 0, 79, 0
2, 15951, Note_on_c, 0, 59, 0
2, 15958, Note_on_c, 0, 62, 0
2, 15959, Control_c, 0, 10, 83
2, 15960, Note_on_c, 0, 83, 69
2, 15962, Control_c, 0, 10, 76
2, 15963, Note_on_c, 0, 76, 66
2, 15965, Note_on_c, 0, 55, 0
2, 15978, Note_on_c, 0, 52, 0
2, 16009, Note_on_c, 0, 76, 0
2, 16010, Note_on_c, 0, 83, 0
2, 16028, Control_c, 0, 10, 71
2, 16029, Note_on_c, 0, 71, 47
2, 16030, Control_c, 0, 10, 79
2, 16031, Note_on_c, 0, 79, 44
2, 16041, Note_on_c, 0, 71, 0
2, 16055, Note_on_c, 0, 79, 0
2, 16081, Control_c, 0, 10, 86
2, 16082, Note_on_c, 0, 86, 73
2, 16083, Control_c, 0, 10, 79
2, 16084, Note_on_c, 0, 79, 58
2, 16128, Note_on_c, 0, 79, 0
2, 16138, Note_on_c, 0, 86, 0
2, 16146, Control_c, 0, 10, 86
2, 16147, Note_on_c, 0, 86, 48
2, 16160, Control_c, 0, 10, 83
2, 16161, Note_on_c, 0, 83, 33
2, 16171, Note_on_c, 0, 83, 0
2, 16191, Note_on_c, 0, 86, 0
2, 16198, Note_on_c, 0, 83, 54
2, 16199, Control_c, 0, 10, 79
2, 16200, Note_on_c, 0, 79, 44
2, 16216, Note_on_c, 0, 79, 0
2, 16223, Note_on_c, 0, 83, 0
2, 16325, Control_c, 0, 10, 62
2, 16326, Note_on_c, 0, 62, 46
2, 16327, Control_c, 0, 10, 57
2, 16328, Note_on_c, 0, 57, 46
2, 16329, Control_c, 0, 10, 52
2, 16330, Note_on_c, 0, 52, 29
2, 16343, Note_on_c, 0, 57, 0
2, 16344, Note_on_c, 0, 62, 0
2, 16349, Note_on_c, 0, 52, 0
2, 16440, Control_c, 0, 10, 62
2, 16441, Note_on_c, 0, 62, 54
2, 16444, Control_c, 0, 10, 54
2, 16445, Note_on_c, 0, 52, 53
2, 16445, Note_on_c, 0, 57, 57
2, 16468, Note_on_c, 0, 62, 0
2, 16475, Note_on_c, 0, 57, 0
2, 16476, Note_on_c, 0, 52, 0
2, 16569, Control_c, 0, 10, 57
2, 16570, Note_on_c, 0, 62, 43
2, 16570, Note_on_c, 0, 52, 43
2, 16570, Note_on_c, 0, 57, 57
2, 16597, Note_on_c, 0, 62, 0
2, 16599, Note_on_c, 0, 52, 0
2, 16602, Note_on_c, 0, 57, 0
2, 16626, Note_on_c, 0, 62, 68
2, 16626, Note_on_c, 0, 52, 57
2, 16628, Note_on_c, 0, 57, 57
2, 16650, Note_on_c, 0, 62, 0
2, 16655, Note_on_c, 0, 52, 0
2, 16656, Note_on_c, 0, 57, 0
2, 16686, Control_c, 0, 10, 52
2, 16687, Note_on_c, 0, 52, 51
2, 16687, Control_c, 0, 10, 62
2, 16688, Note_on_c, 0, 62, 50
2, 16688, Control_c, 0, 10, 57
2, 16689, Note_on_c, 0, 57, 58
2, 16714, Note_on_c, 0, 62, 0
2, 16715, Note_on_c, 0, 52, 0
2, 16721, Note_on_c, 0, 57, 0
2, 16802, Control_c, 0, 10, 63
2, 16803, Note_on_c, 0, 63, 60
2, 16805, Control_c, 0, 10, 55
2, 16806, Note_on_c, 0, 53, 49
2, 16806, Note_on_c, 0, 58, 52
2, 16937, Control_c, 0, 64, 127
2, 17028, Note_on_c, 0, 53, 0
2, 17044, Note_on_c, 0, 58, 0
2, 17050, Note_on_c, 0, 63, 0
2, 17161, Control_c, 0, 64, 0
2, 17208, Control_c, 0, 10, 91
2, 17209, Note_on_c, 0, 91, 73
2, 17210, Control_c, 0, 10, 71
2, 17211, Note_on_c, 0, 63, 69
2, 17211, Note_on_c, 0, 79, 55
2, 17214, Control_c, 0, 10, 58
2, 17215, Note_on_c, 0, 58, 39
2, 17216, Control_c, 0, 10, 84
2, 17217, Note_on_c, 0, 84, 44
2, 17217, Control_c, 0, 10, 53
2, 17218, Note_on_c, 0, 53, 38
2, 17223, Note_on_c, 0, 63, 0
2, 17226, Note_on_c, 0, 79, 0
2, 17227, Note_on_c, 0, 58, 0
2, 17227, Note_on_c, 0, 84, 0
2, 17229, Note_on_c, 0, 53, 0
2, 17229, Note_on_c, 0, 91, 0
2, 17242, Control_c, 0, 10, 89
2, 17243, Note_on_c, 0, 89, 62
2, 17265, Note_on_c, 0, 89, 0
2, 17276, Control_c, 0, 10, 63
2, 17277, Note_on_c, 0, 63, 67
2, 17277, Control_c, 0, 10, 91
2, 17278, Note_on_c, 0, 91, 80
2, 17280, Control_c, 0, 10, 68
2, 17281, Note_on_c, 0, 84, 71
2, 17281, Note_on_c, 0, 53, 61
2, 17281, Control_c, 0, 10, 58
2, 17282, Note_on_c, 0, 58, 42
2, 17282, Control_c, 0, 10, 79
2, 17283, Note_on_c, 0, 79, 58
2, 17286, Control_c, 0, 10, 89
2, 17287, Note_on_c, 0, 89, 36
2, 17299, Note_on_c, 0, 89, 0
2, 17320, Note_on_c, 0, 79, 0
2, 17324, Note_on_c, 0, 91, 0
2, 17324, Note_on_c, 0, 84, 0
2, 17330, Note_on_c, 0, 53, 0
2, 17336, Note_on_c, 0, 58, 0
2, 17336, Note_on_c, 0, 63, 0
2, 17415, Control_c, 0, 64, 127
2, 17442, Control_c, 0, 64, 0
2, 17457, Control_c, 0, 10, 86
2, 17458, Note_on_c, 0, 89, 71
2, 17458, Note_on_c, 0, 84, 66
2, 17458, Control_c, 0, 10, 65
2, 17459, Note_on_c, 0, 65, 59
2, 17459, Control_c, 0, 10, 55
2, 17460, Note_on_c, 0, 55, 58
2, 17460, Control_c, 0, 10, 77
2, 17461, Note_on_c, 0, 77, 53
2, 17462, Control_c, 0, 10, 60
2, 17463, Note_on_c, 0, 60, 56
2, 17470, Note_on_c, 0, 65, 0
2, 17473, Note_on_c, 0, 77, 0
2, 17474, Note_on_c, 0, 60, 0
2, 17475, Note_on_c, 0, 89, 0
2, 17476, Note_on_c, 0, 84, 0
2, 17484, Note_on_c, 0, 55, 0
2, 17558, Control_c, 0, 10, 87
2, 17559, Note_on_c, 0, 87, 69
2, 17561, Control_c, 0, 10, 75
2, 17562, Note_on_c, 0, 75, 58
2, 17562, Control_c, 0, 10, 63
2, 17563, Note_on_c, 0, 63, 62
2, 17563, Control_c, 0, 10, 82
2, 17564, Note_on_c, 0, 82, 64
2, 17564, Control_c, 0, 10, 53
2, 17565, Note_on_c, 0, 53, 58
2, 17566, Control_c, 0, 10, 58
2, 17567, Note_on_c, 0, 58, 56
2, 17571, Control_c, 0, 64, 127
2, 17605, Note_on_c, 0, 87, 0
2, 17607, Note_on_c, 0, 82, 0
2, 17611, Note_on_c, 0, 75, 0
2, 17623, Note_on_c, 0, 63, 0
2, 17624, Control_c, 0, 64, 0
2, 17646, Control_c, 0, 10, 63
2, 17647, Note_on_c, 0, 63, 50
2, 17648, Control_c, 0, 10, 84
2, 17649, Note_on_c, 0, 84, 68
2, 17651, Control_c, 0, 64, 127
2, 17651, Control_c, 0, 10, 72
2, 17652, Note_on_c, 0, 72, 57
2, 17662, Note_on_c, 0, 53, 0
2, 17682, Note_on_c, 0, 58, 0
2, 17685, Note_on_c, 0, 63, 0
2, 17702, Note_on_c, 0, 84, 0
2, 17711, Note_on_c, 0, 72, 0
2, 17724, Control_c, 0, 10, 56
2, 17725, Note_on_c, 0, 56, 56
2, 17726, Control_c, 0, 10, 65
2, 17727, Note_on_c, 0, 65, 60
2, 17727, Control_c, 0, 10, 82
2, 17728, Note_on_c, 0, 82, 68
2, 17729, Control_c, 0, 10, 60
2, 17730, Note_on_c, 0, 60, 59
2, 17730, Note_on_c, 0, 61, 45
2, 17744, Control_c, 0, 64, 0
2, 17886, Control_c, 0, 64, 127
2, 17891, Note_on_c, 0, 60, 0
2, 17892, Note_on_c, 0, 65, 0
2, 17893, Note_on_c, 0, 56, 0
2, 17911, Note_on_c, 0, 61, 0
2, 17947, Control_c, 0, 10, 65
2, 17948, Note_on_c, 0, 65, 56
2, 17949, Control_c, 0, 10, 56
2, 17950, Note_on_c, 0, 56, 39
2, 17950, Control_c, 0, 10, 60
2, 17951, Note_on_c, 0, 61, 44
2, 17951, Note_on_c, 0, 60, 46
2, 17961, Control_c, 0, 64, 0
2, 17995, Control_c, 0, 64, 127
2, 18000, Note_on_c, 0, 82, 0
2, 18114, Control_c, 0, 64, 0
2, 18124, Control_c, 0, 10, 77
2, 18125, Note_on_c, 0, 77, 92
2, 18133, Note_on_c, 0, 65, 0
2, 18141, Note_on_c, 0, 60, 0
2, 18191, Control_c, 0, 64, 127
2, 18223, Control_c, 0, 64, 0
2, 18238, Control_c, 0, 64, 127
2, 18265, Note_on_c, 0, 61, 0
2, 18267, Note_on_c, 0, 56, 0
2, 18302, Note_on_c, 0, 77, 0
2, 18303, Control_c, 0, 10, 63
2, 18304, Note_on_c, 0, 66, 67
2, 18304, Note_on_c, 0, 61, 55
2, 18305, Control_c, 0, 10, 55
2, 18306, Note_on_c, 0, 55, 58
2, 18334, Control_c, 0, 64, 0
2, 18371, Control_c, 0, 10, 82
2, 18372, Note_on_c, 0, 82, 80
2, 18402, Note_on_c, 0, 82, 0
2, 18416, Control_c, 0, 10, 84
2, 18417, Note_on_c, 0, 84, 90
2, 18436, Note_on_c, 0, 66, 0
2, 18456, Note_on_c, 0, 84, 0
2, 18461, Control_c, 0, 10, 78
2, 18462, Note_on_c, 0, 78, 73
2, 18499, Note_on_c, 0, 55, 0
2, 18506, Control_c, 0, 10, 76
2, 18507, Note_on_c, 0, 76, 58
2, 18512, Note_on_c, 0, 78, 0
2, 18533, Note_on_c, 0, 76, 0
2, 18537, Control_c, 0, 64, 127
2, 18541, Note_on_c, 0, 61, 0
2, 18547, Control_c, 0, 10, 81
2, 18548, Note_on_c, 0, 81, 87
2, 18553, Control_c, 0, 10, 61
2, 18554, Note_on_c, 0, 61, 34
2, 18554, Control_c, 0, 10, 66
2, 18555, Note_on_c, 0, 66, 48
2, 18555, Control_c, 0, 10, 55
2, 18556, Note_on_c, 0, 55, 54
2, 18565, Control_c, 0, 64, 0
2, 18569, Note_on_c, 0, 66, 0
2, 18590, Note_on_c, 0, 55, 0
2, 18590, Control_c, 0, 10, 79
2, 18591, Note_on_c, 0, 79, 72
2, 18597, Note_on_c, 0, 81, 0
2, 18603, Note_on_c, 0, 61, 0
2, 18625, Note_on_c, 0, 79, 0
2, 18632, Control_c, 0, 10, 76
2, 18633, Note_on_c, 0, 76, 65
2, 18654, Control_c, 0, 64, 127
2, 18678, Note_on_c, 0, 76, 0
2, 18680, Control_c, 0, 10, 73
2, 18681, Note_on_c, 0, 73, 45
2, 18695, Control_c, 0, 10, 58
2, 18696, Note_on_c, 0, 58, 43
2, 18698, Control_c, 0, 10, 63
2, 18699, Note_on_c, 0, 63, 32
2, 18701, Control_c, 0, 64, 0
2, 18704, Control_c, 0, 10, 53
2, 18705, Note_on_c, 0, 53, 24
2, 18713, Note_on_c, 0, 73, 0
2, 18735, Control_c, 0, 10, 79
2, 18736, Note_on_c, 0, 79, 78
2, 18780, Control_c, 0, 10, 77
2, 18781, Note_on_c, 0, 77, 67
2, 18796, Note_on_c, 0, 79, 0
2, 18812, Note_on_c, 0, 63, 0
2, 18821, Note_on_c, 0, 58, 0
2, 18823, Control_c, 0, 10, 75
2, 18824, Note_on_c, 0, 75, 60
2, 18845, Note_on_c, 0, 53, 0
2, 18845, Note_on_c, 0, 77, 0
2, 18856, Note_on_c, 0, 75, 0
2, 18866, Control_c, 0, 10, 72
2, 18867, Note_on_c, 0, 72, 51
2, 18900, Note_on_c, 0, 72, 0
2, 18900, Control_c, 0, 64, 127
2, 18908, Control_c, 0, 10, 67
2, 18909, Note_on_c, 0, 67, 50
2, 18932, Control_c, 0, 10, 63
2, 18933, Note_on_c, 0, 63, 25
2, 18938, Note_on_c, 0, 67, 0
2, 18944, Note_on_c, 0, 63, 0
2, 18955, Control_c, 0, 10, 75
2, 18956, Note_on_c, 0, 75, 75
2, 18958, Control_c, 0, 64, 0
2, 18994, Note_on_c, 0, 75, 0
2, 19002, Control_c, 0, 10, 70
2, 19003, Note_on_c, 0, 70, 62
2, 19033, Note_on_c, 0, 70, 0
2, 19047, Control_c, 0, 10, 65
2, 19048, Note_on_c, 0, 65, 40
2, 19061, Control_c, 0, 10, 63
2, 19062, Note_on_c, 0, 63, 40
2, 19063, Note_on_c, 0, 65, 0
2, 19072, Control_c, 0, 10, 58
2, 19073, Note_on_c, 0, 63, 0
2, 19073, Note_on_c, 0, 58, 20
2, 19084, Note_on_c, 0, 58, 0
2, 19258, Control_c, 0, 10, 54
2, 19259, Note_on_c, 0, 54, 62
2, 19259, Control_c, 0, 10, 64
2, 19260, Note_on_c, 0, 64, 72
2, 19263, Control_c, 0, 10, 59
2, 19264, Note_on_c, 0, 59, 72
2, 19289, Note_on_c, 0, 64, 0
2, 19299, Note_on_c, 0, 59, 0
2, 19302, Note_on_c, 0, 54, 0
2, 19324, Control_c, 0, 10, 63
2, 19325, Note_on_c, 0, 63, 63
2, 19329, Control_c, 0, 10, 55
2, 19330, Note_on_c, 0, 53, 40
2, 19330, Note_on_c, 0, 58, 42
2, 19393, Control_c, 0, 64, 127
2, 19465, Note_on_c, 0, 63, 0
2, 19472, Note_on_c, 0, 53, 0
2, 19485, Note_on_c, 0, 58, 0
2, 19501, Control_c, 0, 10, 63
2, 19502, Note_on_c, 0, 63, 54
2, 19502, Control_c, 0, 10, 65
2, 19503, Note_on_c, 0, 65, 66
2, 19503, Control_c, 0, 10, 58
2, 19504, Note_on_c, 0, 58, 42
2, 19504, Control_c, 0, 10, 53
2, 19505, Note_on_c, 0, 53, 38
2, 19520, Note_on_c, 0, 53, 0
2, 19522, Note_on_c, 0, 63, 0
2, 19527, Note_on_c, 0, 65, 0
2, 19556, Control_c, 0, 64, 0
2, 19559, Control_c, 0, 10, 68
2, 19560, Note_on_c, 0, 58, 0
2, 19560, Note_on_c, 0, 68, 45
2, 19583, Control_c, 0, 64, 127
2, 19601, Note_on_c, 0, 68, 0
2, 19618, Control_c, 0, 10, 74
2, 19619, Note_on_c, 0, 74, 65
2, 19660, Note_on_c, 0, 74, 0
2, 19678, Control_c, 0, 10, 65
2, 19679, Note_on_c, 0, 65, 59
2, 19679, Control_c, 0, 10, 72
2, 19680, Note_on_c, 0, 72, 63
2, 19686, Control_c, 0, 10, 69
2, 19687, Note_on_c, 0, 69, 62
2, 19687, Control_c, 0, 64, 0
2, 19803, Control_c, 0, 10, 59
2, 19804, Note_on_c, 0, 58, 71
2, 19804, Note_on_c, 0, 60, 78
2, 19805, Control_c, 0, 10, 53
2, 19806, Note_on_c, 0, 53, 71
2, 19817, Note_on_c, 0, 53, 0
2, 19823, Note_on_c, 0, 60, 0
2, 19834, Note_on_c, 0, 58, 0
2, 19989, Control_c, 0, 10, 58
2, 19990, Note_on_c, 0, 58, 69
2, 19991, Control_c, 0, 10, 56
2, 19992, Note_on_c, 0, 60, 78
2, 19992, Note_on_c, 0, 53, 64
2, 20010, Note_on_c, 0, 60, 0
2, 20020, Note_on_c, 0, 53, 0
2, 20024, Note_on_c, 0, 58, 0
2, 20029, Note_on_c, 0, 65, 0
2, 20034, Note_on_c, 0, 69, 0
2, 20049, Note_on_c, 0, 72, 0
2, 20110, Control_c, 0, 10, 58
2, 20111, Note_on_c, 0, 58, 64
2, 20111, Control_c, 0, 10, 57
2, 20112, Note_on_c, 0, 57, 55
2, 20113, Control_c, 0, 10, 52
2, 20114, Note_on_c, 0, 52, 60
2, 20166, Note_on_c, 0, 58, 0
2, 20167, Note_on_c, 0, 57, 0
2, 20168, Note_on_c, 0, 52, 0
2, 20174, Control_c, 0, 10, 69
2, 20175, Note_on_c, 0, 69, 49
2, 20210, Note_on_c, 0, 69, 0
2, 20227, Control_c, 0, 10, 74
2, 20228, Note_on_c, 0, 74, 74
2, 20262, Note_on_c, 0, 74, 0
2, 20279, Control_c, 0, 10, 81
2, 20280, Note_on_c, 0, 81, 88
2, 20316, Note_on_c, 0, 81, 0
2, 20329, Control_c, 0, 64, 127
2, 20335, Control_c, 0, 10, 63
2, 20336, Note_on_c, 0, 63, 74
2, 20337, Control_c, 0, 10, 58
2, 20338, Note_on_c, 0, 58, 67
2, 20338, Control_c, 0, 10, 52
2, 20339, Note_on_c, 0, 52, 68
2, 20342, Control_c, 0, 10, 78
2, 20343, Note_on_c, 0, 78, 68
2, 20350, Control_c, 0, 64, 0
2, 20377, Note_on_c, 0, 78, 0
2, 20406, Control_c, 0, 10, 80
2, 20407, Note_on_c, 0, 80, 60
2, 20419, Control_c, 0, 64, 127
2, 20482, Note_on_c, 0, 63, 0
2, 20485, Note_on_c, 0, 58, 0
2, 20487, Note_on_c, 0, 52, 0
2, 20489, Note_on_c, 0, 80, 0
2, 20499, Control_c, 0, 64, 0
2, 20508, Control_c, 0, 10, 82
2, 20509, Note_on_c, 0, 82, 68
2, 20510, Control_c, 0, 10, 60
2, 20511, Note_on_c, 0, 52, 50
2, 20511, Note_on_c, 0, 63, 50
2, 20511, Note_on_c, 0, 58, 48
2, 20511, Note_on_c, 0, 70, 62
2, 20530, Control_c, 0, 64, 127
2, 20567, Note_on_c, 0, 52, 0
2, 20587, Note_on_c, 0, 58, 0
2, 20589, Note_on_c, 0, 63, 0
2, 20602, Note_on_c, 0, 70, 0
2, 20604, Note_on_c, 0, 82, 0
2, 20631, Control_c, 0, 64, 0
2, 20638, Control_c, 0, 10, 53
2, 20639, Note_on_c, 0, 53, 33
2, 20640, Control_c, 0, 10, 77
2, 20641, Note_on_c, 0, 71, 60
2, 20641, Note_on_c, 0, 83, 60
2, 20641, Control_c, 0, 10, 60
2, 20642, Note_on_c, 0, 60, 41
2, 20642, Control_c, 0, 10, 57
2, 20643, Note_on_c, 0, 57, 42
2, 20643, Control_c, 0, 10, 64
2, 20644, Note_on_c, 0, 64, 33
2, 20654, Control_c, 0, 64, 127
2, 20745, Note_on_c, 0, 60, 0
2, 20746, Note_on_c, 0, 71, 0
2, 20754, Note_on_c, 0, 57, 0
2, 20755, Note_on_c, 0, 64, 0
2, 20770, Note_on_c, 0, 83, 0
2, 20773, Note_on_c, 0, 53, 0
2, 20837, Note_on_c, 0, 64, 64
2, 20839, Control_c, 0, 10, 53
2, 20840, Note_on_c, 0, 53, 35
2, 20840, Control_c, 0, 10, 57
2, 20841, Note_on_c, 0, 57, 37
2, 20844, Control_c, 0, 10, 60
2, 20845, Note_on_c, 0, 60, 37
2, 20849, Note_on_c, 0, 64, 0
2, 20853, Note_on_c, 0, 53, 0
2, 20856, Note_on_c, 0, 57, 0
2, 20856, Note_on_c, 0, 60, 0
2, 20927, Control_c, 0, 64, 0
2, 20935, Control_c, 0, 10, 86
2, 20936, Note_on_c, 0, 86, 95
2, 20937, Control_c, 0, 10, 62
2, 20938, Note_on_c, 0, 57, 66
2, 20938, Note_on_c, 0, 67, 67
2, 20939, Note_on_c, 0, 62, 61
2, 21033, Note_on_c, 0, 67, 0
2, 21034, Note_on_c, 0, 62, 0
2, 21038, Control_c, 0, 64, 127
2, 21039, Control_c, 0, 10, 85
2, 21040, Note_on_c, 0, 57, 0
2, 21040, Note_on_c, 0, 85, 44
2, 21047, Note_on_c, 0, 86, 0
2, 21070, Control_c, 0, 10, 84
2, 21071, Note_on_c, 0, 84, 42
2, 21077, Note_on_c, 0, 85, 0
2, 21094, Control_c, 0, 10, 83
2, 21095, Note_on_c, 0, 83, 49
2, 21096, Note_on_c, 0, 84, 0
2, 21123, Note_on_c, 0, 83, 0
2, 21124, Control_c, 0, 64, 0
2, 21139, Control_c, 0, 10, 64
2, 21140, Note_on_c, 0, 64, 71
2, 21140, Control_c, 0, 10, 89
2, 21141, Note_on_c, 0, 89, 87
2, 21141, Control_c, 0, 10, 57
2, 21142, Note_on_c, 0, 57, 62
2, 21142, Control_c, 0, 10, 60
2, 21143, Note_on_c, 0, 60, 62
2, 21143, Control_c, 0, 10, 53
2, 21144, Note_on_c, 0, 53, 51
2, 21213, Control_c, 0, 64, 127
2, 21251, Note_on_c, 0, 89, 0
2, 21259, Control_c, 0, 10, 88
2, 21260, Note_on_c, 0, 88, 53
2, 21273, Note_on_c, 0, 64, 0
2, 21274, Note_on_c, 0, 60, 0
2, 21284, Note_on_c, 0, 57, 0
2, 21286, Note_on_c, 0, 53, 0
2, 21326, Note_on_c, 0, 88, 0
2, 21422, Control_c, 0, 10, 89
2, 21423, Note_on_c, 0, 89, 80
2, 21423, Control_c, 0, 10, 64
2, 21424, Note_on_c, 0, 64, 62
2, 21426, Control_c, 0, 10, 55
2, 21427, Note_on_c, 0, 57, 48
2, 21427, Note_on_c, 0, 53, 45
2, 21427, Control_c, 0, 10, 60
2, 21428, Note_on_c, 0, 60, 49
2, 21437, Note_on_c, 0, 60, 0
2, 21444, Note_on_c, 0, 64, 0
2, 21452, Note_on_c, 0, 57, 0
2, 21456, Note_on_c, 0, 53, 0
2, 21457, Note_on_c, 0, 89, 0
2, 21481, Control_c, 0, 10, 91
2, 21482, Note_on_c, 0, 91, 66
2, 21483, Control_c, 0, 10, 57
2, 21484, Note_on_c, 0, 57, 37
2, 21485, Control_c, 0, 64, 0
2, 21500, Note_on_c, 0, 57, 0
2, 21502, Note_on_c, 0, 91, 0
2, 21537, Control_c, 0, 64, 127
2, 21545, Control_c, 0, 10, 60
2, 21546, Note_on_c, 0, 60, 48
2, 21546, Control_c, 0, 10, 78
2, 21547, Note_on_c, 0, 93, 64
2, 21547, Note_on_c, 0, 64, 36
2, 21548, Control_c, 0, 10, 81
2, 21549, Note_on_c, 0, 81, 57
2, 21557, Note_on_c, 0, 60, 0
2, 21559, Note_on_c, 0, 81, 0
2, 21559, Note_on_c, 0, 64, 0
2, 21566, Note_on_c, 0, 93, 0
2, 21600, Control_c, 0, 64, 0
2, 21601, Control_c, 0, 10, 64
2, 21602, Note_on_c, 0, 64, 80
2, 21603, Control_c, 0, 10, 77
2, 21604, Note_on_c, 0, 95, 81
2, 21604, Note_on_c, 0, 60, 69
2, 21604, Control_c, 0, 10, 55
2, 21605, Note_on_c, 0, 55, 72
2, 21605, Control_c, 0, 10, 71
2, 21606, Note_on_c, 0, 59, 64
2, 21606, Note_on_c, 0, 83, 78
2, 21650, Control_c, 0, 64, 127
2, 21688, Note_on_c, 0, 83, 0
2, 21690, Note_on_c, 0, 55, 0
2, 21696, Note_on_c, 0, 64, 0
2, 21698, Note_on_c, 0, 95, 0
2, 21698, Note_on_c, 0, 59, 0
2, 21700, Note_on_c, 0, 60, 0
2, 21720, Control_c, 0, 10, 64
2, 21721, Note_on_c, 0, 64, 73
2, 21721, Control_c, 0, 10, 71
2, 21722, Control_c, 0, 64, 0
2, 21722, Note_on_c, 0, 98, 85
2, 21722, Note_on_c, 0, 60, 80
2, 21722, Note_on_c, 0, 55, 72
2, 21722, Control_c, 0, 10, 59
2, 21723, Note_on_c, 0, 59, 60
2, 21723, Control_c, 0, 10, 86
2, 21724, Note_on_c, 0, 86, 81
2, 21754, Control_c, 0, 64, 127
2, 21844, Note_on_c, 0, 98, 0
2, 21849, Note_on_c, 0, 86, 0
2, 21861, Note_on_c, 0, 64, 0
2, 21866, Note_on_c, 0, 55, 0
2, 21866, Note_on_c, 0, 60, 0
2, 21867, Note_on_c, 0, 59, 0
2, 21907, Control_c, 0, 10, 55
2, 21908, Note_on_c, 0, 55, 67
2, 21908, Control_c, 0, 10, 64
2, 21909, Note_on_c, 0, 64, 68
2, 21910, Control_c, 0, 10, 59
2, 21911, Note_on_c, 0, 59, 62
2, 21911, Control_c, 0, 10, 77
2, 21912, Note_on_c, 0, 60, 73
2, 21912, Note_on_c, 0, 95, 64
2, 21912, Control_c, 0, 10, 87
2, 21913, Note_on_c, 0, 81, 54
2, 21913, Note_on_c, 0, 93, 67
2, 21914, Control_c, 0, 10, 83
2, 21915, Note_on_c, 0, 83, 62
2, 21915, Control_c, 0, 64, 0
2, 21958, Control_c, 0, 64, 127
2, 21980, Note_on_c, 0, 81, 0
2, 21982, Note_on_c, 0, 83, 0
2, 21987, Note_on_c, 0, 93, 0
2, 21988, Note_on_c, 0, 95, 0
2, 22005, Note_on_c, 0, 59, 0
2, 22017, Note_on_c, 0, 60, 0
2, 22022, Note_on_c, 0, 55, 0
2, 22038, Note_on_c, 0, 64, 0
2, 22081, Control_c, 0, 10, 78
2, 22082, Note_on_c, 0, 58, 73
2, 22082, Note_on_c, 0, 99, 80
2, 22082, Control_c, 0, 10, 59
2, 22083, Note_on_c, 0, 65, 82
2, 22083, Note_on_c, 0, 60, 78
2, 22083, Note_on_c, 0, 54, 75
2, 22083, Control_c, 0, 10, 87
2, 22084, Note_on_c, 0, 87, 84
2, 22086, Control_c, 0, 64, 0
2, 22160, Control_c, 0, 64, 127
2, 22199, Note_on_c, 0, 99, 0
2, 22200, Note_on_c, 0, 87, 0
2, 22202, Note_on_c, 0, 65, 0
2, 22216, Note_on_c, 0, 60, 0
2, 22223, Note_on_c, 0, 54, 0
2, 22228, Note_on_c, 0, 58, 0
2, 22259, Control_c, 0, 10, 64
2, 22260, Note_on_c, 0, 64, 76
2, 22260, Control_c, 0, 10, 57
2, 22261, Note_on_c, 0, 54, 75
2, 22261, Note_on_c, 0, 60, 74
2, 22262, Control_c, 0, 10, 96
2, 22263, Note_on_c, 0, 96, 74
2, 22268, Control_c, 0, 10, 84
2, 22269, Note_on_c, 0, 84, 69
2, 22269, Control_c, 0, 64, 0
2, 22305, Control_c, 0, 64, 127
2, 22329, Note_on_c, 0, 84, 0
2, 22343, Note_on_c, 0, 96, 0
2, 22348, Note_on_c, 0, 60, 0
2, 22363, Note_on_c, 0, 54, 0
2, 22365, Note_on_c, 0, 64, 0
2, 22435, Control_c, 0, 10, 61
2, 22436, Note_on_c, 0, 61, 75
2, 22436, Control_c, 0, 10, 59
2, 22437, Note_on_c, 0, 58, 71
2, 22437, Note_on_c, 0, 65, 83
2, 22437, Note_on_c, 0, 54, 71
2, 22441, Control_c, 0, 10, 101
2, 22442, Note_on_c, 0, 101, 76
2, 22444, Control_c, 0, 64, 0
2, 22450, Control_c, 0, 10, 94
2, 22451, Note_on_c, 0, 89, 79
2, 22451, Note_on_c, 0, 100, 31
2, 22462, Note_on_c, 0, 100, 0
2, 22517, Control_c, 0, 64, 127
2, 22560, Note_on_c, 0, 101, 0
2, 22566, Note_on_c, 0, 89, 0
2, 22579, Note_on_c, 0, 54, 0
2, 22580, Note_on_c, 0, 65, 0
2, 22583, Note_on_c, 0, 58, 0
2, 22589, Note_on_c, 0, 61, 0
2, 22621, Control_c, 0, 10, 99
2, 22622, Note_on_c, 0, 99, 69
2, 22624, Control_c, 0, 10, 57
2, 22625, Note_on_c, 0, 61, 79
2, 22625, Note_on_c, 0, 54, 74
2, 22625, Control_c, 0, 10, 70
2, 22626, Note_on_c, 0, 87, 67
2, 22626, Note_on_c, 0, 58, 70
2, 22626, Note_on_c, 0, 65, 81
2, 22631, Control_c, 0, 10, 94
2, 22632, Note_on_c, 0, 94, 55
2, 22648, Control_c, 0, 64, 0
2, 22674, Control_c, 0, 64, 127
2, 22705, Note_on_c, 0, 87, 0
2, 22706, Note_on_c, 0, 94, 0
2, 22715, Note_on_c, 0, 99, 0
2, 22735, Note_on_c, 0, 65, 0
2, 22745, Note_on_c, 0, 54, 0
2, 22748, Note_on_c, 0, 61, 0
2, 22774, Note_on_c, 0, 58, 0
2, 22801, Control_c, 0, 10, 104
2, 22802, Note_on_c, 0, 104, 78
2, 22802, Control_c, 0, 10, 61
2, 22803, Note_on_c, 0, 65, 80
2, 22803, Note_on_c, 0, 60, 77
2, 22803, Note_on_c, 0, 58, 68
2, 22803, Control_c, 0, 10, 54
2, 22804, Note_on_c, 0, 54, 73
2, 22805, Control_c, 0, 10, 95
2, 22806, Note_on_c, 0, 92, 71
2, 22806, Note_on_c, 0, 99, 74
2, 22818, Control_c, 0, 64, 0
2, 22878, Control_c, 0, 64, 127
2, 22898, Note_on_c, 0, 92, 0
2, 22898, Note_on_c, 0, 60, 0
2, 22899, Note_on_c, 0, 54, 0
2, 22901, Note_on_c, 0, 104, 0
2, 22902, Note_on_c, 0, 65, 0
2, 22904, Note_on_c, 0, 99, 0
2, 22904, Note_on_c, 0, 58, 0
2, 22917, Control_c, 0, 64, 0
2, 22925, Control_c, 0, 10, 65
2, 22926, Note_on_c, 0, 65, 78
2, 22928, Control_c, 0, 10, 72
2, 22929, Note_on_c, 0, 60, 70
2, 22929, Note_on_c, 0, 55, 72
2, 22929, Note_on_c, 0, 103, 80
2, 22929, Control_c, 0, 10, 82
2, 22930, Note_on_c, 0, 57, 71
2, 22930, Note_on_c, 0, 91, 74
2, 22930, Note_on_c, 0, 98, 78
2, 23000, Control_c, 0, 64, 127
2, 23013, Note_on_c, 0, 91, 0
2, 23022, Note_on_c, 0, 98, 0
2, 23025, Note_on_c, 0, 103, 0
2, 23030, Note_on_c, 0, 65, 0
2, 23050, Note_on_c, 0, 60, 0
2, 23051, Note_on_c, 0, 55, 0
2, 23051, Note_on_c, 0, 57, 0
2, 23055, Control_c, 0, 10, 104
2, 23056, Note_on_c, 0, 104, 34
2, 23075, Note_on_c, 0, 104, 0
2, 23106, Control_c, 0, 10, 55
2, 23107, Note_on_c, 0, 55, 72
2, 23107, Control_c, 0, 10, 62
2, 23108, Note_on_c, 0, 65, 77
2, 23108, Note_on_c, 0, 60, 74
2, 23108, Control_c, 0, 10, 107
2, 23109, Note_on_c, 0, 107, 76
2, 23109, Control_c, 0, 10, 57
2, 23110, Note_on_c, 0, 57, 66
2, 23110, Control_c, 0, 10, 108
2, 23111, Note_on_c, 0, 108, 51
2, 23113, Control_c, 0, 10, 95
2, 23114, Note_on_c, 0, 95, 47
2, 23114, Control_c, 0, 10, 96
2, 23115, Note_on_c, 0, 96, 63
2, 23115, Control_c, 0, 10, 101
2, 23116, Note_on_c, 0, 101, 44
2, 23117, Control_c, 0, 10, 100
2, 23118, Note_on_c, 0, 100, 40
2, 23121, Note_on_c, 0, 108, 0
2, 23121, Control_c, 0, 64, 0
2, 23129, Note_on_c, 0, 100, 0
2, 23150, Control_c, 0, 64, 127
2, 23156, Note_on_c, 0, 101, 0
2, 23173, Note_on_c, 0, 96, 0
2, 23189, Note_on_c, 0, 107, 0
2, 23202, Note_on_c, 0, 55, 0
2, 23205, Note_on_c, 0, 57, 0
2, 23206, Note_on_c, 0, 65, 0
2, 23210, Note_on_c, 0, 95, 0
2, 23216, Note_on_c, 0, 60, 0
2, 23273, Control_c, 0, 10, 59
2, 23274, Note_on_c, 0, 56, 55
2, 23274, Note_on_c, 0, 63, 59
2, 23275, Note_on_c, 0, 59, 65
2, 23275, Control_c, 0, 10, 100
2, 23276, Note_on_c, 0, 106, 69
2, 23276, Note_on_c, 0, 94, 69
2, 23278, Control_c, 0, 64, 0
2, 23281, Control_c, 0, 10, 99
2, 23282, Note_on_c, 0, 99, 57
2, 23296, Note_on_c, 0, 63, 0
2, 23309, Note_on_c, 0, 94, 0
2, 23309, Note_on_c, 0, 99, 0
2, 23311, Note_on_c, 0, 59, 0
2, 23311, Note_on_c, 0, 106, 0
2, 23317, Note_on_c, 0, 56, 0
2, 23393, Control_c, 0, 10, 63
2, 23394, Note_on_c, 0, 63, 60
2, 23394, Control_c, 0, 10, 104
2, 23395, Note_on_c, 0, 104, 64
2, 23395, Control_c, 0, 10, 92
2, 23396, Note_on_c, 0, 92, 57
2, 23397, Control_c, 0, 10, 56
2, 23398, Note_on_c, 0, 56, 44
2, 23399, Control_c, 0, 10, 53
2, 23400, Note_on_c, 0, 53, 48
2, 23401, Control_c, 0, 10, 79
2, 23402, Note_on_c, 0, 99, 53
2, 23402, Note_on_c, 0, 59, 43
2, 23437, Note_on_c, 0, 59, 0
2, 23453, Note_on_c, 0, 53, 0
2, 23456, Note_on_c, 0, 104, 0
2, 23457, Note_on_c, 0, 99, 0
2, 23458, Note_on_c, 0, 92, 0
2, 23465, Note_on_c, 0, 63, 0
2, 23493, Note_on_c, 0, 56, 0
2, 23514, Control_c, 0, 10, 62
2, 23515, Note_on_c, 0, 62, 64
2, 23516, Control_c, 0, 10, 52
2, 23517, Note_on_c, 0, 52, 60
2, 23517, Control_c, 0, 10, 103
2, 23518, Note_on_c, 0, 103, 76
2, 23520, Control_c, 0, 10, 57
2, 23521, Note_on_c, 0, 57, 60
2, 23564, Note_on_c, 0, 103, 0
2, 23591, Control_c, 0, 10, 102
2, 23592, Note_on_c, 0, 102, 48
2, 23613, Note_on_c, 0, 102, 0
2, 23633, Control_c, 0, 10, 103
2, 23634, Note_on_c, 0, 103, 72
2, 23660, Note_on_c, 0, 62, 0
2, 23662, Note_on_c, 0, 52, 0
2, 23672, Note_on_c, 0, 57, 0
2, 23676, Note_on_c, 0, 103, 0
2, 23698, Control_c, 0, 10, 62
2, 23699, Note_on_c, 0, 62, 52
2, 23702, Control_c, 0, 10, 79
2, 23703, Note_on_c, 0, 57, 60
2, 23703, Note_on_c, 0, 102, 65
2, 23704, Control_c, 0, 10, 52
2, 23705, Note_on_c, 0, 52, 41
2, 23732, Note_on_c, 0, 102, 0
2, 23732, Note_on_c, 0, 62, 0
2, 23737, Note_on_c, 0, 52, 0
2, 23755, Control_c, 0, 10, 103
2, 23756, Note_on_c, 0, 103, 70
2, 23767, Note_on_c, 0, 57, 0
2, 23812, Note_on_c, 0, 103, 0
2, 23820, Control_c, 0, 10, 91
2, 23821, Note_on_c, 0, 91, 60
2, 23827, Control_c, 0, 10, 62
2, 23828, Note_on_c, 0, 62, 44
2, 23834, Control_c, 0, 10, 57
2, 23835, Note_on_c, 0, 57, 29
2, 23840, Note_on_c, 0, 62, 0
2, 23848, Note_on_c, 0, 91, 0
2, 23849, Note_on_c, 0, 57, 0
2, 24009, Control_c, 0, 10, 91
2, 24010, Note_on_c, 0, 91, 63
2, 24010, Control_c, 0, 10, 62
2, 24011, Note_on_c, 0, 62, 58
2, 24013, Control_c, 0, 10, 52
2, 24014, Note_on_c, 0, 52, 54
2, 24016, Control_c, 0, 10, 57
2, 24017, Note_on_c, 0, 57, 45
2, 24029, Note_on_c, 0, 57, 0
2, 24036, Note_on_c, 0, 62, 0
2, 24037, Note_on_c, 0, 91, 0
2, 24039, Note_on_c, 0, 52, 0
2, 24197, Control_c, 0, 10, 62
2, 24198, Note_on_c, 0, 62, 66
2, 24199, Control_c, 0, 10, 74
2, 24200, Note_on_c, 0, 57, 57
2, 24200, Note_on_c, 0, 91, 67
2, 24200, Control_c, 0, 10, 52
2, 24201, Note_on_c, 0, 52, 57
2, 24320, Note_on_c, 0, 91, 0
2, 24326, Note_on_c, 0, 52, 0
2, 24329, Note_on_c, 0, 62, 0
2, 24333, Note_on_c, 0, 57, 0
2, 24358, Control_c, 0, 10, 104
2, 24359, Note_on_c, 0, 104, 80
2, 24359, Control_c, 0, 10, 72
2, 24360, Note_on_c, 0, 92, 76
2, 24360, Note_on_c, 0, 53, 77
2, 24360, Control_c, 0, 10, 63
2, 24361, Note_on_c, 0, 63, 79
2, 24371, Control_c, 0, 10, 58
2, 24372, Note_on_c, 0, 58, 67
2, 24372, Control_c, 0, 10, 100
2, 24373, Note_on_c, 0, 100, 29
2, 24384, Note_on_c, 0, 100, 0
2, 24406, Note_on_c, 0, 92, 0
2, 24418, Note_on_c, 0, 104, 0
2, 24429, Control_c, 0, 10, 102
2, 24430, Note_on_c, 0, 102, 39
2, 24437, Note_on_c, 0, 53, 0
2, 24447, Note_on_c, 0, 63, 0
2, 24453, Note_on_c, 0, 58, 0
2, 24460, Note_on_c, 0, 102, 0
2, 24480, Control_c, 0, 10, 63
2, 24481, Note_on_c, 0, 63, 76
2, 24483, Control_c, 0, 10, 83
2, 24484, Note_on_c, 0, 104, 78
2, 24484, Note_on_c, 0, 92, 74
2, 24484, Note_on_c, 0, 53, 79
2, 24486, Control_c, 0, 10, 58
2, 24487, Note_on_c, 0, 58, 65
2, 24531, Note_on_c, 0, 104, 0
2, 24535, Note_on_c, 0, 92, 0
2, 24541, Note_on_c, 0, 53, 0
2, 24548, Control_c, 0, 10, 102
2, 24549, Note_on_c, 0, 102, 49
2, 24550, Note_on_c, 0, 63, 0
2, 24557, Note_on_c, 0, 58, 0
2, 24578, Note_on_c, 0, 102, 0
2, 24598, Control_c, 0, 10, 98
2, 24599, Note_on_c, 0, 92, 71
2, 24599, Note_on_c, 0, 104, 80
2, 24599, Control_c, 0, 10, 63
2, 24600, Note_on_c, 0, 63, 77
2, 24600, Control_c, 0, 10, 58
2, 24601, Note_on_c, 0, 58, 69
2, 24601, Control_c, 0, 10, 53
2, 24602, Note_on_c, 0, 53, 73
2, 24645, Note_on_c, 0, 53, 0
2, 24648, Note_on_c, 0, 92, 0
2, 24648, Note_on_c, 0, 104, 0
2, 24653, Note_on_c, 0, 63, 0
2, 24662, Note_on_c, 0, 58, 0
2, 24671, Control_c, 0, 10, 102
2, 24672, Note_on_c, 0, 102, 40
2, 24697, Note_on_c, 0, 102, 0
2, 24718, Control_c, 0, 10, 104
2, 24719, Note_on_c, 0, 104, 79
2, 24720, Control_c, 0, 10, 63
2, 24721, Note_on_c, 0, 63, 71
2, 24723, Control_c, 0, 10, 58
2, 24724, Note_on_c, 0, 58, 62
2, 24724, Control_c, 0, 10, 53
2, 24725, Note_on_c, 0, 53, 66
2, 24767, Note_on_c, 0, 53, 0
2, 24770, Note_on_c, 0, 63, 0
2, 24782, Note_on_c, 0, 58, 0
2, 24791, Control_c, 0, 10, 77
2, 24792, Note_on_c, 0, 63, 50
2, 24792, Note_on_c, 0, 92, 62
2, 24798, Control_c, 0, 10, 53
2, 24799, Note_on_c, 0, 53, 34
2, 24800, Control_c, 0, 10, 58
2, 24801, Note_on_c, 0, 58, 35
2, 24810, Note_on_c, 0, 63, 0
2, 24811, Note_on_c, 0, 104, 0
2, 24811, Note_on_c, 0, 92, 0
2, 24812, Note_on_c, 0, 53, 0
2, 24839, Note_on_c, 0, 58, 0
2, 24967, Control_c, 0, 10, 69
2, 24968, Note_on_c, 0, 92, 73
2, 24968, Note_on_c, 0, 53, 60
2, 24968, Note_on_c, 0, 63, 64
2, 24970, Control_c, 0, 10, 58
2, 24971, Note_on_c, 0, 58, 53
2, 24972, Control_c, 0, 10, 104
2, 24973, Note_on_c, 0, 104, 50
2, 24989, Note_on_c, 0, 104, 0
2, 24996, Note_on_c, 0, 63, 0
2, 24998, Note_on_c, 0, 53, 0
2, 24999, Note_on_c, 0, 92, 0
2, 25022, Note_on_c, 0, 58, 0
2, 25149, Control_c, 0, 10, 63
2, 25150, Note_on_c, 0, 63, 79
2, 25150, Control_c, 0, 10, 58
2, 25151, Note_on_c, 0, 58, 70
2, 25151, Control_c, 0, 10, 72
2, 25152, Note_on_c, 0, 53, 70
2, 25152, Note_on_c, 0, 92, 70
2, 25156, Control_c, 0, 10, 104
2, 25157, Note_on_c, 0, 104, 60
2, 25277, Note_on_c, 0, 53, 0
2, 25286, Note_on_c, 0, 63, 0
2, 25291, Note_on_c, 0, 92, 0
2, 25293, Note_on_c, 0, 104, 0
2, 25297, Note_on_c, 0, 58, 0
2, 25319, Control_c, 0, 10, 63
2, 25320, Note_on_c, 0, 63, 59
2, 25321, Control_c, 0, 10, 58
2, 25322, Note_on_c, 0, 58, 51
2, 25323, Control_c, 0, 10, 53
2, 25324, Note_on_c, 0, 53, 47
2, 25325, Control_c, 0, 10, 92
2, 25326, Note_on_c, 0, 92, 59
2, 25359, Note_on_c, 0, 53, 0
2, 25382, Note_on_c, 0, 58, 0
2, 25407, Note_on_c, 0, 63, 0
2, 25411, Note_on_c, 0, 92, 0
2, 25439, Control_c, 0, 10, 56
2, 25440, Note_on_c, 0, 56, 45
2, 25440, Control_c, 0, 10, 65
2, 25441, Note_on_c, 0, 65, 59
2, 25444, Control_c, 0, 10, 101
2, 25445, Note_on_c, 0, 101, 63
2, 25446, Control_c, 0, 10, 60
2, 25447, Note_on_c, 0, 60, 51
2, 25447, Control_c, 0, 10, 89
2, 25448, Note_on_c, 0, 89, 38
2, 25449, Control_c, 0, 10, 61
2, 25450, Note_on_c, 0, 61, 37
2, 25460, Note_on_c, 0, 60, 0
2, 25467, Note_on_c, 0, 101, 0
2, 25468, Note_on_c, 0, 89, 0
2, 25469, Note_on_c, 0, 65, 0
2, 25486, Note_on_c, 0, 56, 0
2, 25490, Note_on_c, 0, 61, 0
2, 25622, Control_c, 0, 10, 56
2, 25623, Note_on_c, 0, 56, 39
2, 25623, Control_c, 0, 10, 65
2, 25624, Note_on_c, 0, 65, 53
2, 25627, Control_c, 0, 10, 60
2, 25628, Note_on_c, 0, 60, 43
2, 25630, Control_c, 0, 10, 61
2, 25631, Note_on_c, 0, 61, 28
2, 25639, Note_on_c, 0, 60, 0
2, 25639, Note_on_c, 0, 65, 0
2, 25655, Note_on_c, 0, 56, 0
2, 25660, Note_on_c, 0, 61, 0
2, 25755, Control_c, 0, 10, 60
2, 25756, Note_on_c, 0, 60, 40
2, 25792, Control_c, 0, 10, 72
2, 25793, Note_on_c, 0, 72, 74
2, 25795, Note_on_c, 0, 60, 0
2, 25813, Note_on_c, 0, 72, 0
2, 25825, Control_c, 0, 10, 69
2, 25826, Note_on_c, 0, 69, 57
2, 25845, Note_on_c, 0, 69, 0
2, 25849, Control_c, 0, 10, 70
2, 25850, Note_on_c, 0, 70, 61
2, 25881, Note_on_c, 0, 70, 0
2, 25886, Control_c, 0, 10, 72
2, 25887, Note_on_c, 0, 72, 55
2, 25913, Note_on_c, 0, 72, 0
2, 25917, Control_c, 0, 10, 73
2, 25918, Note_on_c, 0, 73, 62
2, 25943, Note_on_c, 0, 73, 0
2, 25961, Control_c, 0, 10, 75
2, 25962, Note_on_c, 0, 75, 37
2, 25971, Note_on_c, 0, 75, 0
2, 25986, Control_c, 0, 10, 76
2, 25987, Note_on_c, 0, 76, 57
2, 26003, Note_on_c, 0, 76, 0
2, 26017, Control_c, 0, 10, 78
2, 26018, Note_on_c, 0, 78, 52
2, 26026, Note_on_c, 0, 78, 0
2, 26039, Control_c, 0, 10, 61
2, 26040, Note_on_c, 0, 61, 20
2, 26046, Control_c, 0, 10, 79
2, 26047, Note_on_c, 0, 79, 54
2, 26059, Note_on_c, 0, 61, 0
2, 26071, Note_on_c, 0, 79, 0
2, 26082, Control_c, 0, 10, 81
2, 26083, Note_on_c, 0, 81, 60
2, 26095, Note_on_c, 0, 81, 0
2, 26119, Control_c, 0, 10, 82
2, 26120, Note_on_c, 0, 82, 71
2, 26138, Note_on_c, 0, 82, 0
2, 26152, Control_c, 0, 10, 84
2, 26153, Note_on_c, 0, 84, 78
2, 26173, Note_on_c, 0, 84, 0
2, 26188, Control_c, 0, 10, 85
2, 26189, Note_on_c, 0, 85, 76
2, 26206, Note_on_c, 0, 85, 0
2, 26238, Control_c, 0, 10, 87
2, 26239, Note_on_c, 0, 87, 81
2, 26262, Note_on_c, 0, 87, 0
2, 26290, Control_c, 0, 10, 77
2, 26291, Note_on_c, 0, 88, 76
2, 26291, Note_on_c, 0, 66, 50
2, 26291, Control_c, 0, 10, 61
2, 26292, Note_on_c, 0, 61, 47
2, 26301, Note_on_c, 0, 66, 0
2, 26301, Control_c, 0, 10, 55
2, 26302, Note_on_c, 0, 55, 25
2, 26312, Note_on_c, 0, 55, 0
2, 26312, Note_on_c, 0, 88, 0
2, 26315, Note_on_c, 0, 61, 0
2, 26337, Control_c, 0, 10, 89
2, 26338, Note_on_c, 0, 89, 63
2, 26340, Control_c, 0, 10, 88
2, 26341, Note_on_c, 0, 88, 61
2, 26349, Note_on_c, 0, 88, 0
2, 26355, Note_on_c, 0, 89, 0
2, 26383, Control_c, 0, 10, 90
2, 26384, Note_on_c, 0, 90, 82
2, 26411, Note_on_c, 0, 90, 0
2, 26430, Control_c, 0, 10, 91
2, 26431, Note_on_c, 0, 91, 77
2, 26432, Control_c, 0, 10, 63
2, 26433, Note_on_c, 0, 63, 57
2, 26438, Control_c, 0, 10, 52
2, 26439, Note_on_c, 0, 52, 47
2, 26439, Control_c, 0, 10, 58
2, 26440, Note_on_c, 0, 58, 38
2, 26452, Note_on_c, 0, 52, 0
2, 26458, Note_on_c, 0, 63, 0
2, 26460, Note_on_c, 0, 58, 0
2, 26461, Note_on_c, 0, 91, 0
2, 26486, Control_c, 0, 10, 88
2, 26487, Note_on_c, 0, 88, 77
2, 26492, Control_c, 0, 10, 63
2, 26493, Note_on_c, 0, 63, 38
2, 26497, Control_c, 0, 10, 58
2, 26498, Note_on_c, 0, 58, 27
2, 26504, Note_on_c, 0, 63, 0
2, 26506, Note_on_c, 0, 88, 0
2, 26509, Note_on_c, 0, 58, 0
2, 26539, Control_c, 0, 10, 63
2, 26540, Note_on_c, 0, 63, 49
2, 26542, Control_c, 0, 10, 82
2, 26543, Note_on_c, 0, 82, 67
2, 26546, Control_c, 0, 10, 58
2, 26547, Note_on_c, 0, 58, 34
2, 26570, Note_on_c, 0, 63, 0
2, 26575, Note_on_c, 0, 82, 0
2, 26578, Note_on_c, 0, 58, 0
2, 26708, Control_c, 0, 10, 63
2, 26709, Note_on_c, 0, 63, 64
2, 26710, Control_c, 0, 10, 58
2, 26711, Note_on_c, 0, 58, 57
2, 26714, Control_c, 0, 10, 52
2, 26715, Note_on_c, 0, 52, 48
2, 26725, Note_on_c, 0, 52, 0
2, 26734, Note_on_c, 0, 58, 0
2, 26734, Note_on_c, 0, 63, 0
2, 26815, Control_c, 0, 10, 51
2, 26816, Note_on_c, 0, 51, 62
2, 26816, Control_c, 0, 10, 62
2, 26817, Note_on_c, 0, 62, 68
2, 26821, Control_c, 0, 10, 57
2, 26822, Note_on_c, 0, 57, 57
2, 26836, Note_on_c, 0, 57, 0
2, 26838, Note_on_c, 0, 62, 0
2, 26849, Note_on_c, 0, 51, 0
2, 26885, Control_c, 0, 10, 56
2, 26886, Note_on_c, 0, 62, 65
2, 26886, Note_on_c, 0, 51, 56
2, 26890, Control_c, 0, 10, 57
2, 26891, Note_on_c, 0, 57, 53
2, 26918, Note_on_c, 0, 62, 0
2, 26920, Note_on_c, 0, 57, 0
2, 26925, Note_on_c, 0, 51, 0
2, 27002, Control_c, 0, 10, 56
2, 27003, Note_on_c, 0, 62, 71
2, 27003, Note_on_c, 0, 51, 59
2, 27004, Control_c, 0, 10, 57
2, 27005, Note_on_c, 0, 57, 60
2, 27059, Note_on_c, 0, 51, 0
2, 27061, Note_on_c, 0, 57, 0
2, 27061, Note_on_c, 0, 62, 0
2, 27122, Control_c, 0, 10, 61
2, 27123, Note_on_c, 0, 61, 64
2, 27125, Control_c, 0, 10, 51
2, 27126, Note_on_c, 0, 51, 56
2, 27128, Control_c, 0, 10, 57
2, 27129, Note_on_c, 0, 57, 50
2, 27162, Note_on_c, 0, 61, 0
2, 27168, Note_on_c, 0, 57, 0
2, 27172, Note_on_c, 0, 51, 0
2, 27193, Control_c, 0, 10, 51
2, 27194, Note_on_c, 0, 51, 55
2, 27195, Control_c, 0, 10, 58
2, 27196, Note_on_c, 0, 60, 60
2, 27196, Note_on_c, 0, 57, 43
2, 27218, Note_on_c, 0, 60, 0
2, 27219, Note_on_c, 0, 57, 0
2, 27236, Note_on_c, 0, 51, 0
2, 27304, Control_c, 0, 10, 56
2, 27305, Note_on_c, 0, 56, 44
2, 27305, Control_c, 0, 10, 72
2, 27306, Note_on_c, 0, 72, 58
2, 27306, Control_c, 0, 10, 50
2, 27307, Note_on_c, 0, 50, 45
2, 27307, Control_c, 0, 10, 68
2, 27308, Note_on_c, 0, 68, 46
2, 27308, Control_c, 0, 10, 65
2, 27309, Note_on_c, 0, 65, 58
2, 27314, Control_c, 0, 10, 60
2, 27315, Note_on_c, 0, 60, 51
2, 27420, Note_on_c, 0, 65, 0
2, 27432, Note_on_c, 0, 60, 0
2, 27457, Note_on_c, 0, 72, 0
2, 27481, Note_on_c, 0, 68, 0
2, 27487, Note_on_c, 0, 60, 55
2, 27488, Note_on_c, 0, 56, 0
2, 27489, Control_c, 0, 10, 65
2, 27490, Note_on_c, 0, 65, 36
2, 27501, Note_on_c, 0, 65, 0
2, 27503, Control_c, 0, 64, 127
2, 27513, Note_on_c, 0, 60, 0
2, 27549, Control_c, 0, 10, 53
2, 27550, Note_on_c, 0, 53, 48
2, 27556, Note_on_c, 0, 50, 0
2, 27594, Note_on_c, 0, 53, 0
2, 27601, Control_c, 0, 10, 67
2, 27602, Note_on_c, 0, 67, 67
2, 27603, Control_c, 0, 64, 0
2, 27609, Control_c, 0, 10, 60
2, 27610, Note_on_c, 0, 60, 75
2, 27611, Control_c, 0, 10, 55
2, 27612, Note_on_c, 0, 55, 70
2, 27612, Control_c, 0, 10, 56
2, 27613, Note_on_c, 0, 56, 33
2, 27616, Control_c, 0, 10, 57
2, 27617, Note_on_c, 0, 57, 49
2, 27617, Control_c, 0, 10, 63
2, 27618, Note_on_c, 0, 63, 27
2, 27625, Note_on_c, 0, 57, 0
2, 27635, Note_on_c, 0, 67, 0
2, 27637, Note_on_c, 0, 56, 0
2, 27648, Note_on_c, 0, 60, 0
2, 27649, Note_on_c, 0, 63, 0
2, 27665, Control_c, 0, 10, 66
2, 27666, Note_on_c, 0, 66, 67
2, 27666, Control_c, 0, 10, 55
2, 27667, Note_on_c, 0, 56, 52
2, 27667, Note_on_c, 0, 54, 59
2, 27669, Note_on_c, 0, 55, 0
2, 27671, Control_c, 0, 10, 60
2, 27672, Note_on_c, 0, 60, 68
2, 27681, Note_on_c, 0, 60, 0
2, 27692, Note_on_c, 0, 60, 22
2, 27706, Note_on_c, 0, 60, 0
2, 27714, Note_on_c, 0, 54, 0
2, 27720, Note_on_c, 0, 66, 0
2, 27726, Control_c, 0, 10, 65
2, 27727, Note_on_c, 0, 65, 54
2, 27733, Control_c, 0, 10, 60
2, 27734, Note_on_c, 0, 60, 27
2, 27734, Control_c, 0, 10, 53
2, 27735, Note_on_c, 0, 53, 30
2, 27738, Note_on_c, 0, 65, 0
2, 27747, Note_on_c, 0, 60, 0
2, 27751, Note_on_c, 0, 56, 0
2, 27752, Note_on_c, 0, 53, 0
2, 27784, Control_c, 0, 10, 56
2, 27785, Note_on_c, 0, 56, 56
2, 27786, Control_c, 0, 10, 60
2, 27787, Note_on_c, 0, 61, 60
2, 27787, Note_on_c, 0, 59, 66
2, 27788, Control_c, 0, 10, 43
2, 27789, Note_on_c, 0, 43, 44
2, 27794, Control_c, 0, 10, 53
2, 27795, Note_on_c, 0, 53, 53
2, 27865, Control_c, 0, 64, 127
2, 27884, Note_on_c, 0, 53, 0
2, 27889, Note_on_c, 0, 56, 0
2, 27899, Note_on_c, 0, 61, 0
2, 27909, Control_c, 0, 10, 56
2, 27910, Note_on_c, 0, 56, 53
2, 27911, Control_c, 0, 10, 62
2, 27912, Note_on_c, 0, 62, 51
2, 27914, Control_c, 0, 10, 53
2, 27915, Note_on_c, 0, 53, 48
2, 27919, Control_c, 0, 64, 0
2, 27961, Control_c, 0, 64, 127
2, 28023, Control_c, 0, 10, 50
2, 28024, Note_on_c, 0, 53, 0
2, 28024, Note_on_c, 0, 50, 56
2, 28045, Note_on_c, 0, 56, 0
2, 28071, Control_c, 0, 64, 0
2, 28087, Control_c, 0, 10, 56
2, 28088, Note_on_c, 0, 56, 40
2, 28090, Note_on_c, 0, 50, 0
2, 28101, Note_on_c, 0, 56, 0
2, 28110, Note_on_c, 0, 59, 0
2, 28120, Note_on_c, 0, 43, 0
2, 28126, Note_on_c, 0, 62, 0
2, 28141, Control_c, 0, 64, 127
2, 28149, Control_c, 0, 10, 50
2, 28150, Note_on_c, 0, 50, 45
2, 28201, Note_on_c, 0, 50, 0
2, 28211, Control_c, 0, 10, 51
2, 28212, Note_on_c, 0, 51, 65
2, 28213, Control_c, 0, 10, 66
2, 28214, Note_on_c, 0, 66, 60
2, 28216, Control_c, 0, 10, 61
2, 28217, Note_on_c, 0, 61, 60
2, 28246, Note_on_c, 0, 51, 0
2, 28252, Note_on_c, 0, 66, 0
2, 28256, Note_on_c, 0, 61, 0
2, 28257, Control_c, 0, 64, 0
2, 28271, Control_c, 0, 10, 67
2, 28272, Note_on_c, 0, 67, 54
2, 28272, Control_c, 0, 10, 62
2, 28273, Note_on_c, 0, 62, 57
2, 28274, Control_c, 0, 10, 57
2, 28275, Note_on_c, 0, 57, 52
2, 28275, Control_c, 0, 10, 52
2, 28276, Note_on_c, 0, 52, 55
2, 28284, Note_on_c, 0, 57, 0
2, 28286, Note_on_c, 0, 52, 0
2, 28291, Control_c, 0, 64, 127
2, 28293, Note_on_c, 0, 62, 0
2, 28295, Note_on_c, 0, 67, 0
2, 28324, Control_c, 0, 64, 0
2, 28327, Control_c, 0, 10, 70
2, 28328, Note_on_c, 0, 67, 79
2, 28328, Note_on_c, 0, 74, 88
2, 28331, Control_c, 0, 10, 59
2, 28332, Note_on_c, 0, 59, 67
2, 28373, Control_c, 0, 64, 127
2, 28401, Note_on_c, 0, 67, 0
2, 28410, Control_c, 0, 64, 0
2, 28412, Note_on_c, 0, 74, 0
2, 28439, Control_c, 0, 64, 127
2, 28439, Control_c, 0, 10, 71
2, 28440, Note_on_c, 0, 71, 61
2, 28443, Control_c, 0, 10, 62
2, 28444, Note_on_c, 0, 62, 41
2, 28446, Control_c, 0, 10, 55
2, 28447, Note_on_c, 0, 55, 47
2, 28449, Control_c, 0, 10, 67
2, 28450, Note_on_c, 0, 67, 31
2, 28451, Note_on_c, 0, 59, 0
2, 28457, Note_on_c, 0, 55, 0
2, 28467, Note_on_c, 0, 67, 0
2, 28467, Note_on_c, 0, 62, 0
2, 28491, Note_on_c, 0, 71, 0
2, 28522, Note_on_c, 0, 67, 59
2, 28522, Control_c, 0, 10, 63
2, 28523, Note_on_c, 0, 63, 56
2, 28524, Control_c, 0, 10, 53
2, 28525, Note_on_c, 0, 53, 29
2, 28525, Control_c, 0, 10, 60
2, 28526, Note_on_c, 0, 60, 48
2, 28534, Control_c, 0, 64, 0
2, 28572, Control_c, 0, 64, 127
2, 28661, Note_on_c, 0, 60, 0
2, 28668, Note_on_c, 0, 63, 0
2, 28670, Note_on_c, 0, 53, 0
2, 28673, Note_on_c, 0, 67, 0
2, 28755, Control_c, 0, 10, 62
2, 28756, Note_on_c, 0, 62, 61
2, 28757, Control_c, 0, 10, 59
2, 28758, Note_on_c, 0, 59, 43
2, 28759, Control_c, 0, 10, 52
2, 28760, Control_c, 0, 64, 0
2, 28760, Note_on_c, 0, 52, 41
2, 28763, Control_c, 0, 10, 55
2, 28764, Note_on_c, 0, 55, 45
2, 28787, Control_c, 0, 64, 127
2, 28799, Note_on_c, 0, 62, 0
2, 28804, Note_on_c, 0, 55, 0
2, 28806, Note_on_c, 0, 52, 0
2, 28812, Note_on_c, 0, 59, 0
2, 28873, Control_c, 0, 10, 71
2, 28874, Note_on_c, 0, 71, 66
2, 28874, Control_c, 0, 10, 59
2, 28875, Note_on_c, 0, 59, 43
2, 28875, Control_c, 0, 10, 72
2, 28876, Note_on_c, 0, 83, 66
2, 28876, Note_on_c, 0, 62, 40
2, 28881, Control_c, 0, 10, 53
2, 28882, Note_on_c, 0, 71, 0
2, 28882, Note_on_c, 0, 55, 30
2, 28882, Note_on_c, 0, 52, 29
2, 28887, Note_on_c, 0, 62, 0
2, 28889, Note_on_c, 0, 59, 0
2, 28893, Note_on_c, 0, 55, 0
2, 28895, Note_on_c, 0, 52, 0
2, 28897, Note_on_c, 0, 83, 0
2, 28929, Control_c, 0, 10, 74
2, 28930, Note_on_c, 0, 74, 58
2, 28930, Control_c, 0, 10, 86
2, 28931, Note_on_c, 0, 86, 55
2, 28933, Control_c, 0, 10, 59
2, 28934, Note_on_c, 0, 59, 24
2, 28935, Control_c, 0, 10, 55
2, 28936, Note_on_c, 0, 55, 24
2, 28939, Note_on_c, 0, 74, 0
2, 28941, Note_on_c, 0, 86, 0
2, 28946, Note_on_c, 0, 59, 0
2, 28947, Note_on_c, 0, 55, 0
2, 28964, Control_c, 0, 64, 0
2, 28989, Control_c, 0, 10, 64
2, 28990, Note_on_c, 0, 64, 79
2, 28990, Control_c, 0, 10, 60
2, 28991, Note_on_c, 0, 60, 71
2, 28991, Control_c, 0, 10, 81
2, 28992, Note_on_c, 0, 75, 84
2, 28992, Note_on_c, 0, 87, 80
2, 28992, Control_c, 0, 10, 55
2, 28993, Note_on_c, 0, 55, 60
2, 28993, Control_c, 0, 10, 59
2, 28994, Note_on_c, 0, 59, 57
2, 29003, Note_on_c, 0, 59, 0
2, 29007, Note_on_c, 0, 75, 0
2, 29009, Note_on_c, 0, 64, 0
2, 29010, Note_on_c, 0, 87, 0
2, 29012, Note_on_c, 0, 60, 0
2, 29013, Note_on_c, 0, 55, 0
2, 29040, Control_c, 0, 10, 55
2, 29041, Note_on_c, 0, 55, 56
2, 29042, Control_c, 0, 10, 60
2, 29043, Note_on_c, 0, 60, 61
2, 29043, Control_c, 0, 10, 75
2, 29044, Note_on_c, 0, 64, 65
2, 29044, Note_on_c, 0, 87, 77
2, 29044, Note_on_c, 0, 75, 75
2, 29045, Control_c, 0, 10, 59
2, 29046, Note_on_c, 0, 59, 58
2, 29052, Control_c, 0, 10, 88
2, 29053, Note_on_c, 0, 88, 75
2, 29056, Note_on_c, 0, 59, 0
2, 29059, Note_on_c, 0, 75, 0
2, 29061, Note_on_c, 0, 87, 0
2, 29062, Control_c, 0, 10, 76
2, 29063, Note_on_c, 0, 76, 61
2, 29066, Control_c, 0, 10, 59
2, 29067, Note_on_c, 0, 59, 19
2, 29085, Control_c, 0, 64, 127
2, 29100, Note_on_c, 0, 76, 0
2, 29117, Note_on_c, 0, 88, 0
2, 29122, Note_on_c, 0, 59, 0
2, 29126, Note_on_c, 0, 55, 0
2, 29129, Note_on_c, 0, 64, 0
2, 29130, Note_on_c, 0, 60, 0
2, 29134, Control_c, 0, 64, 0
2, 29155, Note_on_c, 0, 55, 60
2, 29155, Note_on_c, 0, 64, 63
2, 29157, Note_on_c, 0, 60, 65
2, 29157, Note_on_c, 0, 59, 60
2, 29157, Control_c, 0, 10, 85
2, 29158, Note_on_c, 0, 91, 80
2, 29158, Note_on_c, 0, 79, 74
2, 29192, Control_c, 0, 64, 127
2, 29222, Note_on_c, 0, 79, 0
2, 29222, Note_on_c, 0, 59, 0
2, 29233, Note_on_c, 0, 91, 0
2, 29234, Note_on_c, 0, 60, 0
2, 29234, Note_on_c, 0, 64, 0
2, 29235, Note_on_c, 0, 55, 0
2, 29276, Control_c, 0, 64, 0
2, 29344, Control_c, 0, 64, 127
2, 29374, Control_c, 0, 64, 0
2, 29458, Control_c, 0, 10, 71
2, 29459, Note_on_c, 0, 60, 54
2, 29459, Note_on_c, 0, 64, 62
2, 29459, Note_on_c, 0, 91, 68
2, 29461, Control_c, 0, 10, 77
2, 29462, Note_on_c, 0, 77, 51
2, 29463, Control_c, 0, 10, 57
2, 29464, Note_on_c, 0, 57, 45
2, 29471, Note_on_c, 0, 64, 0
2, 29475, Note_on_c, 0, 60, 0
2, 29475, Note_on_c, 0, 57, 0
2, 29479, Note_on_c, 0, 77, 0
2, 29484, Note_on_c, 0, 91, 0
2, 29492, Control_c, 0, 10, 89
2, 29493, Note_on_c, 0, 89, 68
2, 29519, Note_on_c, 0, 89, 0
2, 29527, Control_c, 0, 10, 64
2, 29528, Note_on_c, 0, 64, 64
2, 29528, Control_c, 0, 10, 60
2, 29529, Note_on_c, 0, 60, 60
2, 29529, Control_c, 0, 10, 91
2, 29530, Note_on_c, 0, 91, 75
2, 29530, Control_c, 0, 10, 57
2, 29531, Note_on_c, 0, 57, 60
2, 29531, Control_c, 0, 10, 53
2, 29532, Note_on_c, 0, 53, 57
2, 29534, Control_c, 0, 10, 77
2, 29535, Note_on_c, 0, 77, 35
2, 29538, Control_c, 0, 10, 79
2, 29539, Note_on_c, 0, 79, 34
2, 29539, Control_c, 0, 10, 84
2, 29540, Note_on_c, 0, 84, 37
2, 29562, Note_on_c, 0, 84, 0
2, 29565, Note_on_c, 0, 79, 0
2, 29569, Note_on_c, 0, 77, 0
2, 29572, Note_on_c, 0, 91, 0
2, 29576, Note_on_c, 0, 64, 0
2, 29576, Note_on_c, 0, 60, 0
2, 29579, Note_on_c, 0, 57, 0
2, 29580, Note_on_c, 0, 53, 0
2, 29647, Control_c, 0, 10, 91
2, 29648, Note_on_c, 0, 91, 66
2, 29650, Control_c, 0, 10, 64
2, 29651, Note_on_c, 0, 64, 42
2, 29651, Control_c, 0, 10, 77
2, 29652, Note_on_c, 0, 77, 42
2, 29652, Control_c, 0, 10, 55
2, 29653, Note_on_c, 0, 53, 29
2, 29653, Note_on_c, 0, 57, 34
2, 29654, Control_c, 0, 10, 60
2, 29655, Note_on_c, 0, 60, 27
2, 29659, Note_on_c, 0, 91, 0
2, 29661, Note_on_c, 0, 64, 0
2, 29664, Note_on_c, 0, 77, 0
2, 29665, Note_on_c, 0, 60, 0
2, 29667, Note_on_c, 0, 57, 0
2, 29667, Note_on_c, 0, 53, 0
2, 29680, Control_c, 0, 10, 89
2, 29681, Note_on_c, 0, 89, 64
2, 29703, Note_on_c, 0, 89, 0
2, 29720, Control_c, 0, 10, 58
2, 29721, Note_on_c, 0, 53, 74
2, 29721, Note_on_c, 0, 64, 74
2, 29721, Control_c, 0, 10, 86
2, 29722, Note_on_c, 0, 80, 74
2, 29722, Note_on_c, 0, 92, 80
2, 29722, Control_c, 0, 10, 59
2, 29723, Note_on_c, 0, 59, 74
2, 29725, Control_c, 0, 10, 90
2, 29726, Note_on_c, 0, 90, 54
2, 29730, Control_c, 0, 10, 87
2, 29731, Note_on_c, 0, 87, 43
2, 29735, Note_on_c, 0, 90, 0
2, 29814, Control_c, 0, 64, 127
2, 29817, Note_on_c, 0, 87, 0
2, 29818, Note_on_c, 0, 80, 0
2, 29819, Note_on_c, 0, 53, 0
2, 29819, Note_on_c, 0, 59, 0
2, 29819, Note_on_c, 0, 64, 0
2, 29823, Note_on_c, 0, 92, 0
2, 29859, Control_c, 0, 64, 0
2, 29892, Control_c, 0, 10, 91
2, 29893, Note_on_c, 0, 91, 74
2, 29894, Control_c, 0, 10, 66
2, 29895, Note_on_c, 0, 79, 70
2, 29895, Note_on_c, 0, 53, 64
2, 29895, Control_c, 0, 10, 64
2, 29896, Note_on_c, 0, 64, 66
2, 29898, Control_c, 0, 10, 59
2, 29899, Note_on_c, 0, 59, 60
2, 29903, Control_c, 0, 10, 90
2, 29904, Note_on_c, 0, 90, 26
2, 29913, Note_on_c, 0, 90, 0
2, 29914, Note_on_c, 0, 79, 0
2, 29915, Note_on_c, 0, 64, 0
2, 29915, Note_on_c, 0, 59, 0
2, 29920, Note_on_c, 0, 53, 0
2, 29927, Note_on_c, 0, 91, 0
2, 29935, Control_c, 0, 10, 87
2, 29936, Note_on_c, 0, 87, 60
2, 29952, Note_on_c, 0, 87, 0
2, 29961, Control_c, 0, 10, 91
2, 29962, Note_on_c, 0, 91, 72
2, 29965, Control_c, 0, 10, 79
2, 29966, Note_on_c, 0, 79, 61
2, 29966, Control_c, 0, 10, 61
2, 29967, Note_on_c, 0, 64, 78
2, 29967, Note_on_c, 0, 59, 60
2, 29967, Control_c, 0, 10, 53
2, 29968, Note_on_c, 0, 53, 73
2, 30013, Note_on_c, 0, 79, 0
2, 30018, Note_on_c, 0, 91, 0
2, 30032, Note_on_c, 0, 64, 0
2, 30034, Note_on_c, 0, 53, 0
2, 30035, Note_on_c, 0, 59, 0
2, 30056, Control_c, 0, 10, 94
2, 30057, Note_on_c, 0, 94, 71
2, 30057, Control_c, 0, 10, 59
2, 30058, Note_on_c, 0, 59, 61
2, 30060, Control_c, 0, 10, 82
2, 30061, Note_on_c, 0, 82, 56
2, 30061, Control_c, 0, 10, 64
2, 30062, Note_on_c, 0, 64, 40
2, 30062, Control_c, 0, 10, 53
2, 30063, Note_on_c, 0, 53, 39
2, 30068, Control_c, 0, 64, 127
2, 30074, Note_on_c, 0, 64, 0
2, 30075, Note_on_c, 0, 94, 0
2, 30076, Note_on_c, 0, 82, 0
2, 30096, Note_on_c, 0, 59, 0
2, 30103, Control_c, 0, 10, 59
2, 30104, Note_on_c, 0, 59, 19
2, 30106, Control_c, 0, 10, 87
2, 30107, Note_on_c, 0, 87, 48
2, 30117, Note_on_c, 0, 87, 0
2, 30121, Note_on_c, 0, 53, 0
2, 30126, Control_c, 0, 64, 0
2, 30128, Note_on_c, 0, 59, 0
2, 30141, Control_c, 0, 10, 88
2, 30142, Note_on_c, 0, 94, 86
2, 30142, Note_on_c, 0, 82, 82
2, 30143, Control_c, 0, 10, 53
2, 30144, Note_on_c, 0, 53, 74
2, 30144, Control_c, 0, 10, 64
2, 30145, Note_on_c, 0, 64, 62
2, 30145, Control_c, 0, 10, 87
2, 30146, Note_on_c, 0, 87, 67
2, 30146, Control_c, 0, 10, 59
2, 30147, Note_on_c, 0, 59, 76
2, 30201, Note_on_c, 0, 87, 0
2, 30203, Control_c, 0, 64, 127
2, 30206, Note_on_c, 0, 82, 0
2, 30206, Note_on_c, 0, 94, 0
2, 30207, Note_on_c, 0, 64, 0
2, 30212, Note_on_c, 0, 53, 0
2, 30217, Note_on_c, 0, 59, 0
2, 30219, Control_c, 0, 64, 0
2, 30315, Control_c, 0, 10, 62
2, 30316, Note_on_c, 0, 62, 67
2, 30316, Control_c, 0, 10, 59
2, 30317, Note_on_c, 0, 59, 64
2, 30318, Control_c, 0, 10, 71
2, 30319, Note_on_c, 0, 91, 74
2, 30319, Note_on_c, 0, 52, 57
2, 30319, Control_c, 0, 10, 55
2, 30320, Note_on_c, 0, 55, 52
2, 30320, Control_c, 0, 10, 79
2, 30321, Note_on_c, 0, 79, 73
2, 30330, Note_on_c, 0, 55, 0
2, 30330, Note_on_c, 0, 52, 0
2, 30332, Note_on_c, 0, 59, 0
2, 30333, Note_on_c, 0, 79, 0
2, 30334, Note_on_c, 0, 62, 0
2, 30338, Note_on_c, 0, 91, 0
2, 30358, Control_c, 0, 10, 88
2, 30359, Note_on_c, 0, 88, 45
2, 30370, Note_on_c, 0, 88, 0
2, 30383, Control_c, 0, 10, 62
2, 30384, Note_on_c, 0, 62, 66
2, 30385, Control_c, 0, 10, 59
2, 30386, Note_on_c, 0, 59, 62
2, 30386, Control_c, 0, 10, 71
2, 30387, Note_on_c, 0, 91, 81
2, 30387, Note_on_c, 0, 52, 64
2, 30387, Control_c, 0, 10, 79
2, 30388, Note_on_c, 0, 79, 71
2, 30388, Control_c, 0, 10, 55
2, 30389, Note_on_c, 0, 55, 68
2, 30393, Control_c, 0, 10, 86
2, 30394, Note_on_c, 0, 86, 60
2, 30396, Control_c, 0, 64, 127
2, 30418, Note_on_c, 0, 79, 0
2, 30427, Note_on_c, 0, 86, 0
2, 30429, Note_on_c, 0, 52, 0
2, 30432, Note_on_c, 0, 91, 0
2, 30433, Note_on_c, 0, 55, 0
2, 30437, Note_on_c, 0, 59, 0
2, 30444, Note_on_c, 0, 62, 0
2, 30473, Control_c, 0, 64, 0
2, 30489, Control_c, 0, 10, 55
2, 30490, Note_on_c, 0, 55, 62
2, 30490, Control_c, 0, 10, 95
2, 30491, Note_on_c, 0, 95, 80
2, 30492, Control_c, 0, 10, 74
2, 30493, Note_on_c, 0, 65, 60
2, 30493, Note_on_c, 0, 83, 69
2, 30494, Control_c, 0, 10, 61
2, 30495, Note_on_c, 0, 61, 37
2, 30502, Note_on_c, 0, 65, 0
2, 30506, Note_on_c, 0, 61, 0
2, 30511, Note_on_c, 0, 55, 0
2, 30513, Note_on_c, 0, 83, 0
2, 30523, Control_c, 0, 64, 127
2, 30524, Note_on_c, 0, 95, 0
2, 30528, Control_c, 0, 10, 91
2, 30529, Note_on_c, 0, 91, 59
2, 30546, Control_c, 0, 64, 0
2, 30551, Note_on_c, 0, 91, 0
2, 30563, Control_c, 0, 10, 58
2, 30564, Note_on_c, 0, 55, 77
2, 30564, Note_on_c, 0, 61, 78
2, 30564, Control_c, 0, 10, 95
2, 30565, Note_on_c, 0, 95, 79
2, 30566, Control_c, 0, 10, 65
2, 30567, Note_on_c, 0, 65, 77
2, 30567, Control_c, 0, 10, 87
2, 30568, Note_on_c, 0, 83, 72
2, 30568, Note_on_c, 0, 91, 63
2, 30568, Control_c, 0, 10, 88
2, 30569, Note_on_c, 0, 88, 67
2, 30608, Control_c, 0, 64, 127
2, 30618, Note_on_c, 0, 91, 0
2, 30619, Note_on_c, 0, 95, 0
2, 30621, Note_on_c, 0, 88, 0
2, 30625, Note_on_c, 0, 83, 0
2, 30638, Note_on_c, 0, 65, 0
2, 30638, Note_on_c, 0, 55, 0
2, 30651, Note_on_c, 0, 61, 0
2, 30669, Control_c, 0, 10, 91
2, 30670, Note_on_c, 0, 91, 57
2, 30670, Control_c, 0, 10, 93
2, 30671, Note_on_c, 0, 93, 46
2, 30672, Control_c, 0, 10, 79
2, 30673, Note_on_c, 0, 79, 44
2, 30675, Control_c, 0, 10, 64
2, 30676, Note_on_c, 0, 64, 54
2, 30678, Control_c, 0, 10, 60
2, 30679, Note_on_c, 0, 60, 44
2, 30682, Note_on_c, 0, 93, 0
2, 30682, Control_c, 0, 10, 57
2, 30683, Note_on_c, 0, 57, 32
2, 30685, Note_on_c, 0, 64, 0
2, 30688, Note_on_c, 0, 60, 0
2, 30693, Note_on_c, 0, 79, 0
2, 30696, Note_on_c, 0, 57, 0
2, 30698, Note_on_c, 0, 91, 0
2, 30711, Control_c, 0, 64, 0
2, 30735, Control_c, 0, 10, 91
2, 30736, Note_on_c, 0, 91, 74
2, 30737, Control_c, 0, 10, 71
2, 30738, Note_on_c, 0, 64, 62
2, 30738, Note_on_c, 0, 79, 71
2, 30738, Control_c, 0, 10, 53
2, 30739, Note_on_c, 0, 53, 53
2, 30739, Control_c, 0, 10, 57
2, 30740, Note_on_c, 0, 57, 62
2, 30740, Control_c, 0, 10, 60
2, 30741, Note_on_c, 0, 60, 67
2, 30743, Control_c, 0, 10, 86
2, 30744, Note_on_c, 0, 86, 64
2, 30756, Control_c, 0, 64, 127
2, 30774, Note_on_c, 0, 79, 0
2, 30780, Note_on_c, 0, 86, 0
2, 30787, Note_on_c, 0, 91, 0
2, 30791, Note_on_c, 0, 64, 0
2, 30791, Note_on_c, 0, 60, 0
2, 30793, Note_on_c, 0, 53, 0
2, 30797, Note_on_c, 0, 57, 0
2, 30833, Control_c, 0, 64, 0
2, 30845, Control_c, 0, 10, 95
2, 30846, Control_c, 0, 64, 127
2, 30846, Note_on_c, 0, 95, 67
2, 30846, Note_on_c, 0, 96, 69
2, 30846, Control_c, 0, 10, 53
2, 30847, Note_on_c, 0, 53, 51
2, 30848, Control_c, 0, 10, 64
2, 30849, Note_on_c, 0, 64, 54
2, 30857, Note_on_c, 0, 64, 0
2, 30862, Note_on_c, 0, 53, 0
2, 30865, Note_on_c, 0, 96, 0
2, 30871, Note_on_c, 0, 95, 0
2, 30889, Control_c, 0, 10, 93
2, 30890, Note_on_c, 0, 93, 64
2, 30898, Note_on_c, 0, 93, 0
2, 30918, Control_c, 0, 10, 68
2, 30919, Control_c, 0, 64, 0
2, 30919, Note_on_c, 0, 53, 83
2, 30919, Note_on_c, 0, 59, 80
2, 30919, Note_on_c, 0, 64, 87
2, 30919, Note_on_c, 0, 96, 89
2, 30921, Control_c, 0, 10, 84
2, 30922, Note_on_c, 0, 84, 77
2, 30954, Control_c, 0, 64, 127
2, 30967, Note_on_c, 0, 96, 0
2, 30976, Note_on_c, 0, 84, 0
2, 30985, Note_on_c, 0, 59, 0
2, 30989, Note_on_c, 0, 64, 0
2, 30991, Note_on_c, 0, 53, 0
2, 31017, Control_c, 0, 10, 92
2, 31018, Note_on_c, 0, 93, 41
2, 31018, Note_on_c, 0, 91, 45
2, 31019, Control_c, 0, 10, 59
2, 31020, Note_on_c, 0, 59, 65
2, 31020, Control_c, 0, 10, 90
2, 31021, Note_on_c, 0, 90, 45
2, 31029, Note_on_c, 0, 93, 0
2, 31037, Note_on_c, 0, 91, 0
2, 31038, Note_on_c, 0, 90, 0
2, 31056, Control_c, 0, 10, 86
2, 31057, Note_on_c, 0, 86, 70
2, 31060, Note_on_c, 0, 59, 0
2, 31066, Note_on_c, 0, 86, 0
2, 31066, Control_c, 0, 64, 0
2, 31079, Control_c, 0, 10, 63
2, 31080, Note_on_c, 0, 63, 80
2, 31083, Control_c, 0, 10, 59
2, 31084, Note_on_c, 0, 59, 49
2, 31085, Control_c, 0, 10, 91
2, 31086, Note_on_c, 0, 91, 74
2, 31086, Control_c, 0, 10, 54
2, 31087, Note_on_c, 0, 53, 74
2, 31087, Note_on_c, 0, 56, 62
2, 31088, Control_c, 0, 10, 79
2, 31089, Note_on_c, 0, 79, 68
2, 31093, Control_c, 0, 10, 86
2, 31094, Note_on_c, 0, 86, 48
2, 31095, Control_c, 0, 64, 127
2, 31101, Note_on_c, 0, 79, 0
2, 31108, Note_on_c, 0, 86, 0
2, 31121, Note_on_c, 0, 91, 0
2, 31142, Note_on_c, 0, 53, 0
2, 31154, Note_on_c, 0, 63, 0
2, 31155, Note_on_c, 0, 56, 0
2, 31173, Note_on_c, 0, 59, 0
2, 31195, Control_c, 0, 64, 0
2, 31200, Control_c, 0, 10, 60
2, 31201, Note_on_c, 0, 59, 62
2, 31201, Note_on_c, 0, 62, 77
2, 31201, Control_c, 0, 10, 98
2, 31202, Note_on_c, 0, 98, 74
2, 31202, Control_c, 0, 10, 52
2, 31203, Note_on_c, 0, 52, 66
2, 31205, Control_c, 0, 10, 70
2, 31206, Note_on_c, 0, 55, 64
2, 31206, Note_on_c, 0, 86, 77
2, 31222, Note_on_c, 0, 62, 0
2, 31227, Note_on_c, 0, 86, 0
2, 31233, Note_on_c, 0, 52, 0
2, 31236, Note_on_c, 0, 55, 0
2, 31241, Note_on_c, 0, 98, 0
2, 31242, Control_c, 0, 10, 95
2, 31243, Note_on_c, 0, 95, 39
2, 31244, Note_on_c, 0, 59, 0
2, 31249, Control_c, 0, 64, 127
2, 31258, Note_on_c, 0, 95, 0
2, 31265, Control_c, 0, 64, 0
2, 31276, Control_c, 0, 10, 73
2, 31277, Note_on_c, 0, 98, 87
2, 31277, Note_on_c, 0, 59, 74
2, 31277, Note_on_c, 0, 62, 87
2, 31278, Control_c, 0, 10, 64
2, 31279, Note_on_c, 0, 55, 73
2, 31279, Note_on_c, 0, 52, 80
2, 31279, Note_on_c, 0, 86, 80
2, 31283, Control_c, 0, 10, 91
2, 31284, Note_on_c, 0, 91, 68
2, 31287, Control_c, 0, 10, 95
2, 31288, Note_on_c, 0, 95, 31
2, 31290, Control_c, 0, 10, 96
2, 31291, Note_on_c, 0, 96, 31
2, 31312, Control_c, 0, 64, 127
2, 31323, Note_on_c, 0, 96, 0
2, 31324, Note_on_c, 0, 95, 0
2, 31327, Note_on_c, 0, 91, 0
2, 31328, Note_on_c, 0, 98, 0
2, 31332, Note_on_c, 0, 86, 0
2, 31350, Note_on_c, 0, 52, 0
2, 31351, Note_on_c, 0, 59, 0
2, 31352, Note_on_c, 0, 55, 0
2, 31354, Note_on_c, 0, 62, 0
2, 31372, Control_c, 0, 10, 95
2, 31373, Note_on_c, 0, 95, 62
2, 31374, Control_c, 0, 10, 93
2, 31375, Note_on_c, 0, 93, 65
2, 31375, Control_c, 0, 10, 62
2, 31376, Note_on_c, 0, 62, 64
2, 31376, Control_c, 0, 10, 59
2, 31377, Note_on_c, 0, 59, 54
2, 31378, Control_c, 0, 10, 55
2, 31379, Note_on_c, 0, 55, 49
2, 31383, Control_c, 0, 10, 67
2, 31384, Note_on_c, 0, 83, 31
2, 31384, Note_on_c, 0, 52, 32
2, 31394, Note_on_c, 0, 83, 0
2, 31395, Note_on_c, 0, 52, 0
2, 31398, Note_on_c, 0, 62, 0
2, 31399, Note_on_c, 0, 59, 0
2, 31399, Note_on_c, 0, 95, 0
2, 31399, Note_on_c, 0, 93, 0
2, 31401, Note_on_c, 0, 55, 0
2, 31439, Control_c, 0, 64, 0
2, 31439, Control_c, 0, 10, 57
2, 31440, Note_on_c, 0, 52, 74
2, 31440, Note_on_c, 0, 62, 79
2, 31440, Control_c, 0, 10, 67
2, 31441, Note_on_c, 0, 59, 72
2, 31441, Note_on_c, 0, 55, 66
2, 31441, Note_on_c, 0, 87, 68
2, 31442, Control_c, 0, 10, 95
2, 31443, Note_on_c, 0, 95, 74
2, 31444, Control_c, 0, 10, 83
2, 31445, Note_on_c, 0, 83, 79
2, 31446, Control_c, 0, 10, 91
2, 31447, Note_on_c, 0, 91, 60
2, 31448, Control_c, 0, 10, 93
2, 31449, Note_on_c, 0, 93, 42
2, 31450, Control_c, 0, 10, 88
2, 31451, Note_on_c, 0, 88, 55
2, 31455, Note_on_c, 0, 87, 0
2, 31464, Note_on_c, 0, 88, 0
2, 31502, Control_c, 0, 64, 127
2, 31513, Note_on_c, 0, 91, 0
2, 31514, Note_on_c, 0, 95, 0
2, 31518, Note_on_c, 0, 93, 0
2, 31525, Note_on_c, 0, 83, 0
2, 31528, Note_on_c, 0, 62, 0
2, 31531, Control_c, 0, 64, 0
2, 31532, Note_on_c, 0, 52, 0
2, 31532, Note_on_c, 0, 59, 0
2, 31535, Note_on_c, 0, 55, 0
2, 31553, Control_c, 0, 10, 91
2, 31554, Note_on_c, 0, 91, 51
2, 31555, Control_c, 0, 10, 62
2, 31556, Note_on_c, 0, 62, 47
2, 31558, Control_c, 0, 10, 59
2, 31559, Note_on_c, 0, 59, 42
2, 31559, Control_c, 0, 10, 55
2, 31560, Note_on_c, 0, 55, 45
2, 31560, Control_c, 0, 10, 79
2, 31561, Note_on_c, 0, 79, 52
2, 31561, Control_c, 0, 10, 52
2, 31562, Note_on_c, 0, 52, 48
2, 31562, Control_c, 0, 10, 89
2, 31563, Note_on_c, 0, 89, 37
2, 31572, Note_on_c, 0, 89, 0
2, 31592, Control_c, 0, 64, 127
2, 31603, Note_on_c, 0, 62, 0
2, 31603, Note_on_c, 0, 52, 0
2, 31605, Note_on_c, 0, 55, 0
2, 31605, Note_on_c, 0, 79, 0
2, 31606, Note_on_c, 0, 59, 0
2, 31608, Note_on_c, 0, 91, 0
2, 31627, Control_c, 0, 10, 91
2, 31628, Note_on_c, 0, 91, 65
2, 31629, Control_c, 0, 10, 62
2, 31630, Note_on_c, 0, 62, 49
2, 31631, Control_c, 0, 10, 59
2, 31632, Note_on_c, 0, 59, 57
2, 31632, Control_c, 0, 10, 55
2, 31633, Note_on_c, 0, 55, 59
2, 31634, Control_c, 0, 10, 65
2, 31635, Note_on_c, 0, 52, 53
2, 31635, Note_on_c, 0, 79, 44
2, 31638, Control_c, 0, 10, 89
2, 31639, Note_on_c, 0, 89, 35
2, 31639, Control_c, 0, 64, 0
2, 31651, Note_on_c, 0, 89, 0
2, 31691, Control_c, 0, 64, 127
2, 31756, Note_on_c, 0, 91, 0
2, 31774, Note_on_c, 0, 79, 0
2, 31817, Note_on_c, 0, 55, 0
2, 31818, Note_on_c, 0, 62, 0
2, 31826, Note_on_c, 0, 59, 0
2, 31852, Note_on_c, 0, 52, 0
2, 31868, Control_c, 0, 10, 62
2, 31869, Note_on_c, 0, 62, 57
2, 31871, Control_c, 0, 10, 52
2, 31872, Note_on_c, 0, 52, 51
2, 31872, Control_c, 0, 10, 59
2, 31873, Note_on_c, 0, 59, 54
2, 31874, Control_c, 0, 10, 55
2, 31875, Note_on_c, 0, 55, 59
2, 31887, Control_c, 0, 64, 0
2, 31916, Control_c, 0, 64, 127
2, 32037, Note_on_c, 0, 62, 0
2, 32038, Note_on_c, 0, 59, 0
2, 32040, Note_on_c, 0, 52, 0
2, 32044, Note_on_c, 0, 55, 0
2, 32106, Control_c, 0, 10, 63
2, 32107, Note_on_c, 0, 63, 64
2, 32110, Control_c, 0, 10, 53
2, 32111, Note_on_c, 0, 53, 51
2, 32112, Control_c, 0, 10, 58
2, 32113, Note_on_c, 0, 58, 55
2, 32127, Control_c, 0, 64, 0
2, 32132, Note_on_c, 0, 63, 0
2, 32171, Control_c, 0, 10, 60
2, 32172, Note_on_c, 0, 60, 54
2, 32182, Note_on_c, 0, 58, 0
2, 32191, Note_on_c, 0, 60, 0
2, 32195, Control_c, 0, 10, 61
2, 32196, Note_on_c, 0, 61, 51
2, 32216, Control_c, 0, 10, 63
2, 32217, Note_on_c, 0, 63, 46
2, 32219, Control_c, 0, 10, 58
2, 32220, Note_on_c, 0, 61, 0
2, 32220, Note_on_c, 0, 58, 4
2, 32229, Note_on_c, 0, 63, 0
2, 32243, Control_c, 0, 10, 65
2, 32244, Note_on_c, 0, 65, 53
2, 32261, Note_on_c, 0, 53, 0
2, 32271, Note_on_c, 0, 65, 0
2, 32274, Control_c, 0, 10, 67
2, 32275, Note_on_c, 0, 67, 55
2, 32277, Note_on_c, 0, 58, 0
2, 32296, Control_c, 0, 10, 68
2, 32297, Note_on_c, 0, 68, 60
2, 32301, Note_on_c, 0, 67, 0
2, 32324, Note_on_c, 0, 68, 0
2, 32327, Control_c, 0, 10, 70
2, 32328, Note_on_c, 0, 70, 46
2, 32336, Note_on_c, 0, 70, 0
2, 32354, Control_c, 0, 10, 72
2, 32355, Note_on_c, 0, 72, 58
2, 32364, Note_on_c, 0, 72, 0
2, 32380, Control_c, 0, 10, 73
2, 32381, Note_on_c, 0, 73, 53
2, 32390, Note_on_c, 0, 73, 0
2, 32401, Control_c, 0, 10, 75
2, 32402, Note_on_c, 0, 75, 51
2, 32411, Note_on_c, 0, 75, 0
2, 32427, Control_c, 0, 10, 77
2, 32428, Note_on_c, 0, 77, 53
2, 32449, Note_on_c, 0, 77, 0
2, 32458, Control_c, 0, 10, 79
2, 32459, Note_on_c, 0, 79, 44
2, 32474, Note_on_c, 0, 79, 0
2, 32483, Control_c, 0, 10, 80
2, 32484, Note_on_c, 0, 80, 50
2, 32506, Note_on_c, 0, 80, 0
2, 32511, Control_c, 0, 10, 82
2, 32512, Note_on_c, 0, 82, 75
2, 32529, Control_c, 0, 10, 63
2, 32530, Note_on_c, 0, 63, 59
2, 32534, Control_c, 0, 10, 58
2, 32535, Note_on_c, 0, 58, 52
2, 32539, Control_c, 0, 10, 53
2, 32540, Note_on_c, 0, 53, 44
2, 32545, Control_c, 0, 10, 79
2, 32546, Note_on_c, 0, 79, 50
2, 32547, Note_on_c, 0, 82, 0
2, 32586, Note_on_c, 0, 53, 0
2, 32586, Note_on_c, 0, 79, 0
2, 32591, Note_on_c, 0, 58, 0
2, 32592, Note_on_c, 0, 63, 0
2, 32828, Control_c, 0, 10, 63
2, 32829, Note_on_c, 0, 63, 74
2, 32831, Control_c, 0, 10, 58
2, 32832, Note_on_c, 0, 58, 53
2, 32847, Note_on_c, 0, 63, 0
2, 32856, Note_on_c, 0, 58, 0
2, 32886, Control_c, 0, 10, 79
2, 32887, Note_on_c, 0, 79, 67
2, 32906, Note_on_c, 0, 79, 0
2, 32941, Control_c, 0, 10, 80
2, 32942, Note_on_c, 0, 80, 74
2, 32960, Note_on_c, 0, 80, 0
2, 32992, Control_c, 0, 10, 63
2, 32993, Note_on_c, 0, 63, 52
2, 32996, Control_c, 0, 10, 58
2, 32997, Note_on_c, 0, 58, 42
2, 33000, Control_c, 0, 10, 82
2, 33001, Note_on_c, 0, 82, 50
2, 33013, Note_on_c, 0, 82, 0
2, 33016, Note_on_c, 0, 63, 0
2, 33026, Note_on_c, 0, 58, 0
2, 33063, Control_c, 0, 10, 84
2, 33064, Note_on_c, 0, 84, 76
2, 33064, Control_c, 0, 10, 72
2, 33065, Note_on_c, 0, 72, 61
2, 33077, Note_on_c, 0, 72, 0
2, 33082, Note_on_c, 0, 84, 0
2, 33120, Control_c, 0, 10, 65
2, 33121, Note_on_c, 0, 65, 53
2, 33122, Control_c, 0, 10, 56
2, 33123, Note_on_c, 0, 56, 37
2, 33123, Control_c, 0, 10, 84
2, 33124, Note_on_c, 0, 84, 71
2, 33125, Control_c, 0, 10, 72
2, 33126, Note_on_c, 0, 72, 57
2, 33127, Control_c, 0, 10, 60
2, 33128, Note_on_c, 0, 61, 34
2, 33128, Note_on_c, 0, 60, 39
2, 33140, Note_on_c, 0, 60, 0
2, 33151, Note_on_c, 0, 65, 0
2, 33151, Note_on_c, 0, 72, 0
2, 33170, Note_on_c, 0, 61, 0
2, 33181, Note_on_c, 0, 56, 0
2, 33192, Note_on_c, 0, 84, 0
2, 33238, Control_c, 0, 10, 82
2, 33239, Note_on_c, 0, 82, 49
2, 33256, Note_on_c, 0, 82, 0
2, 33306, Control_c, 0, 10, 74
2, 33307, Note_on_c, 0, 84, 70
2, 33307, Note_on_c, 0, 65, 54
2, 33307, Control_c, 0, 10, 64
2, 33308, Note_on_c, 0, 56, 43
2, 33308, Note_on_c, 0, 72, 58
2, 33314, Control_c, 0, 10, 60
2, 33315, Note_on_c, 0, 60, 44
2, 33315, Note_on_c, 0, 61, 34
2, 33341, Note_on_c, 0, 65, 0
2, 33342, Note_on_c, 0, 72, 0
2, 33346, Note_on_c, 0, 84, 0
2, 33350, Note_on_c, 0, 60, 0
2, 33350, Note_on_c, 0, 61, 0
2, 33351, Note_on_c, 0, 56, 0
2, 33428, Control_c, 0, 10, 65
2, 33429, Note_on_c, 0, 65, 55
2, 33434, Control_c, 0, 10, 60
2, 33435, Note_on_c, 0, 60, 32
2, 33435, Note_on_c, 0, 61, 29
2, 33435, Control_c, 0, 10, 56
2, 33436, Note_on_c, 0, 56, 19
2, 33441, Note_on_c, 0, 65, 0
2, 33446, Note_on_c, 0, 60, 0
2, 33451, Note_on_c, 0, 56, 0
2, 33454, Note_on_c, 0, 61, 0
2, 33551, Control_c, 0, 10, 64
2, 33552, Note_on_c, 0, 64, 45
2, 33552, Control_c, 0, 10, 55
2, 33553, Note_on_c, 0, 55, 54
2, 33555, Control_c, 0, 10, 61
2, 33556, Note_on_c, 0, 61, 30
2, 33566, Note_on_c, 0, 64, 0
2, 33571, Note_on_c, 0, 61, 0
2, 33582, Note_on_c, 0, 55, 0
2, 33650, Control_c, 0, 10, 63
2, 33651, Note_on_c, 0, 63, 67
2, 33653, Control_c, 0, 10, 60
2, 33654, Note_on_c, 0, 60, 66
2, 33673, Note_on_c, 0, 63, 0
2, 33683, Note_on_c, 0, 60, 0
2, 33684, Control_c, 0, 10, 64
2, 33685, Note_on_c, 0, 64, 65
2, 33691, Control_c, 0, 10, 61
2, 33692, Note_on_c, 0, 61, 49
2, 33708, Note_on_c, 0, 64, 0
2, 33719, Control_c, 0, 10, 66
2, 33720, Note_on_c, 0, 66, 50
2, 33724, Control_c, 0, 10, 63
2, 33725, Note_on_c, 0, 63, 53
2, 33732, Note_on_c, 0, 61, 0
2, 33738, Note_on_c, 0, 66, 0
2, 33750, Note_on_c, 0, 63, 0
2, 33750, Control_c, 0, 10, 67
2, 33751, Note_on_c, 0, 67, 68
2, 33755, Control_c, 0, 10, 64
2, 33756, Note_on_c, 0, 64, 61
2, 33774, Note_on_c, 0, 67, 0
2, 33777, Note_on_c, 0, 64, 0
2, 33788, Control_c, 0, 10, 69
2, 33789, Note_on_c, 0, 69, 77
2, 33793, Control_c, 0, 10, 66
2, 33794, Note_on_c, 0, 66, 58
2, 33795, Control_c, 0, 10, 67
2, 33796, Note_on_c, 0, 67, 41
2, 33811, Note_on_c, 0, 69, 0
2, 33830, Note_on_c, 0, 67, 0
2, 33831, Note_on_c, 0, 66, 0
2, 33834, Control_c, 0, 10, 70
2, 33835, Note_on_c, 0, 70, 30
2, 33838, Control_c, 0, 10, 69
2, 33839, Note_on_c, 0, 69, 59
2, 33844, Note_on_c, 0, 70, 0
2, 33858, Control_c, 0, 10, 72
2, 33859, Note_on_c, 0, 72, 66
2, 33866, Note_on_c, 0, 69, 0
2, 33879, Control_c, 0, 10, 70
2, 33880, Note_on_c, 0, 70, 55
2, 33882, Note_on_c, 0, 72, 0
2, 33892, Control_c, 0, 10, 73
2, 33893, Note_on_c, 0, 73, 64
2, 33903, Note_on_c, 0, 70, 0
2, 33912, Note_on_c, 0, 73, 0
2, 33916, Control_c, 0, 10, 72
2, 33917, Note_on_c, 0, 72, 33
2, 33920, Control_c, 0, 10, 75
2, 33921, Note_on_c, 0, 75, 59
2, 33930, Note_on_c, 0, 75, 0
2, 33944, Control_c, 0, 10, 76
2, 33945, Note_on_c, 0, 76, 58
2, 33951, Control_c, 0, 10, 75
2, 33952, Note_on_c, 0, 75, 35
2, 33960, Note_on_c, 0, 75, 0
2, 33961, Note_on_c, 0, 72, 0
2, 33965, Note_on_c, 0, 76, 0
2, 34002, Control_c, 0, 10, 79
2, 34003, Note_on_c, 0, 79, 38
2, 34020, Note_on_c, 0, 79, 0
2, 34030, Control_c, 0, 10, 81
2, 34031, Note_on_c, 0, 81, 32
2, 34040, Control_c, 0, 10, 82
2, 34041, Note_on_c, 0, 82, 52
2, 34045, Note_on_c, 0, 81, 0
2, 34063, Note_on_c, 0, 82, 0
2, 34063, Control_c, 0, 10, 83
2, 34064, Note_on_c, 0, 83, 60
2, 34074, Note_on_c, 0, 83, 0
2, 34078, Control_c, 0, 10, 84
2, 34079, Note_on_c, 0, 84, 70
2, 34099, Control_c, 0, 10, 63
2, 34100, Note_on_c, 0, 63, 48
2, 34106, Control_c, 0, 10, 53
2, 34107, Note_on_c, 0, 53, 38
2, 34110, Control_c, 0, 10, 58
2, 34111, Note_on_c, 0, 58, 33
2, 34113, Control_c, 0, 10, 82
2, 34114, Note_on_c, 0, 82, 67
2, 34119, Note_on_c, 0, 84, 0
2, 34156, Note_on_c, 0, 82, 0
2, 34188, Control_c, 0, 10, 79
2, 34189, Note_on_c, 0, 79, 64
2, 34212, Note_on_c, 0, 53, 0
2, 34218, Note_on_c, 0, 79, 0
2, 34236, Note_on_c, 0, 58, 0
2, 34241, Note_on_c, 0, 63, 0
2, 34250, Control_c, 0, 10, 75
2, 34251, Note_on_c, 0, 75, 69
2, 34263, Control_c, 0, 10, 65
2, 34264, Note_on_c, 0, 65, 47
2, 34265, Control_c, 0, 10, 60
2, 34266, Note_on_c, 0, 60, 46
2, 34269, Control_c, 0, 10, 55
2, 34270, Note_on_c, 0, 55, 45
2, 34305, Control_c, 0, 10, 72
2, 34306, Note_on_c, 0, 75, 0
2, 34306, Note_on_c, 0, 72, 57
2, 34340, Note_on_c, 0, 72, 0
2, 34350, Control_c, 0, 10, 75
2, 34351, Note_on_c, 0, 75, 78
2, 34432, Control_c, 0, 10, 72
2, 34433, Note_on_c, 0, 72, 45
2, 34437, Note_on_c, 0, 65, 0
2, 34443, Note_on_c, 0, 75, 0
2, 34446, Note_on_c, 0, 55, 0
2, 34448, Note_on_c, 0, 60, 0
2, 34502, Control_c, 0, 10, 67
2, 34503, Note_on_c, 0, 67, 53
2, 34505, Control_c, 0, 10, 63
2, 34506, Note_on_c, 0, 63, 50
2, 34507, Control_c, 0, 10, 53
2, 34508, Note_on_c, 0, 53, 44
2, 34511, Control_c, 0, 10, 58
2, 34512, Note_on_c, 0, 58, 42
2, 34636, Note_on_c, 0, 72, 0
2, 34637, Note_on_c, 0, 67, 0
2, 34672, Note_on_c, 0, 53, 0
2, 34675, Control_c, 0, 64, 127
2, 34691, Note_on_c, 0, 63, 0
2, 34695, Note_on_c, 0, 58, 0
2, 34800, Control_c, 0, 10, 81
2, 34801, Control_c, 0, 64, 0
2, 34801, Note_on_c, 0, 84, 88
2, 34801, Note_on_c, 0, 79, 85
2, 34802, Control_c, 0, 10, 74
2, 34803, Note_on_c, 0, 74, 84
2, 34803, Control_c, 0, 10, 55
2, 34804, Note_on_c, 0, 55, 71
2, 34804, Control_c, 0, 10, 65
2, 34805, Note_on_c, 0, 65, 70
2, 34805, Control_c, 0, 10, 60
2, 34806, Note_on_c, 0, 60, 69
2, 34856, Control_c, 0, 64, 127
2, 34863, Note_on_c, 0, 84, 0
2, 34873, Control_c, 0, 10, 86
2, 34874, Note_on_c, 0, 86, 80
2, 34900, Control_c, 0, 64, 0
2, 34912, Note_on_c, 0, 79, 0
2, 34919, Note_on_c, 0, 74, 0
2, 34919, Note_on_c, 0, 86, 0
2, 34925, Control_c, 0, 10, 84
2, 34926, Note_on_c, 0, 84, 67
2, 34932, Control_c, 0, 64, 127
2, 34940, Note_on_c, 0, 65, 0
2, 34950, Note_on_c, 0, 60, 0
2, 34973, Note_on_c, 0, 55, 0
2, 34973, Note_on_c, 0, 84, 0
2, 34988, Control_c, 0, 10, 86
2, 34989, Note_on_c, 0, 86, 72
2, 34994, Control_c, 0, 10, 74
2, 34995, Note_on_c, 0, 74, 30
2, 34995, Control_c, 0, 10, 84
2, 34996, Note_on_c, 0, 84, 48
2, 34999, Control_c, 0, 10, 79
2, 35000, Note_on_c, 0, 79, 45
2, 35001, Control_c, 0, 10, 76
2, 35002, Note_on_c, 0, 76, 33
2, 35010, Note_on_c, 0, 79, 0
2, 35013, Note_on_c, 0, 76, 0
2, 35021, Note_on_c, 0, 74, 0
2, 35022, Note_on_c, 0, 84, 0
2, 35024, Note_on_c, 0, 86, 0
2, 35049, Control_c, 0, 10, 77
2, 35050, Note_on_c, 0, 77, 74
2, 35050, Control_c, 0, 10, 72
2, 35051, Note_on_c, 0, 72, 51
2, 35052, Control_c, 0, 10, 58
2, 35053, Note_on_c, 0, 58, 50
2, 35054, Control_c, 0, 10, 61
2, 35055, Note_on_c, 0, 60, 60
2, 35055, Note_on_c, 0, 62, 46
2, 35057, Control_c, 0, 64, 0
2, 35116, Control_c, 0, 10, 84
2, 35117, Note_on_c, 0, 84, 68
2, 35162, Control_c, 0, 64, 127
2, 35165, Note_on_c, 0, 72, 0
2, 35170, Note_on_c, 0, 77, 0
2, 35170, Note_on_c, 0, 84, 0
2, 35177, Control_c, 0, 10, 82
2, 35178, Note_on_c, 0, 82, 64
2, 35179, Note_on_c, 0, 62, 0
2, 35181, Note_on_c, 0, 60, 0
2, 35182, Note_on_c, 0, 58, 0
2, 35188, Control_c, 0, 10, 72
2, 35189, Note_on_c, 0, 72, 29
2, 35190, Control_c, 0, 10, 77
2, 35191, Note_on_c, 0, 77, 16
2, 35222, Note_on_c, 0, 77, 0
2, 35245, Note_on_c, 0, 72, 0
2, 35283, Control_c, 0, 10, 72
2, 35284, Note_on_c, 0, 72, 34
2, 35284, Control_c, 0, 10, 77
2, 35285, Note_on_c, 0, 77, 39
2, 35287, Control_c, 0, 64, 0
2, 35291, Control_c, 0, 10, 62
2, 35292, Note_on_c, 0, 62, 42
2, 35293, Control_c, 0, 10, 58
2, 35294, Note_on_c, 0, 58, 38
2, 35297, Control_c, 0, 10, 60
2, 35298, Note_on_c, 0, 60, 35
2, 35329, Control_c, 0, 64, 127
2, 35394, Note_on_c, 0, 60, 0
2, 35404, Note_on_c, 0, 62, 0
2, 35435, Note_on_c, 0, 58, 0
2, 35584, Control_c, 0, 10, 61
2, 35585, Note_on_c, 0, 58, 43
2, 35585, Note_on_c, 0, 64, 44
2, 35585, Note_on_c, 0, 61, 51
2, 35587, Control_c, 0, 64, 0
2, 35615, Control_c, 0, 64, 127
2, 35629, Note_on_c, 0, 82, 0
2, 35637, Note_on_c, 0, 77, 0
2, 35646, Note_on_c, 0, 72, 0
2, 35668, Note_on_c, 0, 64, 0
2, 35670, Note_on_c, 0, 58, 0
2, 35676, Note_on_c, 0, 61, 0
2, 35817, Control_c, 0, 64, 0
2, 35825, Control_c, 0, 10, 77
2, 35826, Note_on_c, 0, 85, 83
2, 35826, Note_on_c, 0, 70, 88
2, 35826, Control_c, 0, 10, 75
2, 35827, Note_on_c, 0, 75, 85
2, 35827, Control_c, 0, 10, 80
2, 35828, Note_on_c, 0, 80, 77
2, 35830, Control_c, 0, 64, 127
2, 35866, Note_on_c, 0, 75, 0
2, 35867, Note_on_c, 0, 85, 0
2, 35870, Note_on_c, 0, 80, 0
2, 35875, Note_on_c, 0, 70, 0
2, 35887, Control_c, 0, 10, 68
2, 35888, Note_on_c, 0, 68, 57
2, 35891, Control_c, 0, 10, 73
2, 35892, Note_on_c, 0, 73, 60
2, 35893, Control_c, 0, 64, 0
2, 35894, Control_c, 0, 10, 78
2, 35895, Note_on_c, 0, 78, 57
2, 35896, Control_c, 0, 10, 82
2, 35897, Note_on_c, 0, 82, 35
2, 35924, Note_on_c, 0, 73, 0
2, 35926, Note_on_c, 0, 82, 0
2, 35929, Note_on_c, 0, 78, 0
2, 35943, Note_on_c, 0, 68, 0
2, 35948, Control_c, 0, 10, 74
2, 35949, Note_on_c, 0, 74, 68
2, 35949, Control_c, 0, 10, 76
2, 35950, Note_on_c, 0, 84, 64
2, 35950, Note_on_c, 0, 69, 62
2, 35951, Control_c, 0, 10, 79
2, 35952, Note_on_c, 0, 79, 61
2, 35965, Note_on_c, 0, 84, 0
2, 35968, Note_on_c, 0, 79, 0
2, 35973, Note_on_c, 0, 74, 0
2, 35975, Note_on_c, 0, 69, 0
2, 36006, Control_c, 0, 10, 81
2, 36007, Note_on_c, 0, 81, 69
2, 36007, Control_c, 0, 10, 72
2, 36008, Note_on_c, 0, 72, 58
2, 36008, Control_c, 0, 10, 76
2, 36009, Note_on_c, 0, 76, 64
2, 36010, Control_c, 0, 10, 65
2, 36011, Note_on_c, 0, 65, 54
2, 36023, Note_on_c, 0, 65, 0
2, 36028, Note_on_c, 0, 76, 0
2, 36028, Note_on_c, 0, 81, 0
2, 36031, Note_on_c, 0, 72, 0
2, 36039, Control_c, 0, 64, 127
2, 36061, Control_c, 0, 10, 75
2, 36062, Note_on_c, 0, 75, 31
2, 36076, Control_c, 0, 64, 0
2, 36095, Note_on_c, 0, 75, 0
2, 36103, Control_c, 0, 10, 79
2, 36104, Note_on_c, 0, 79, 58
2, 36107, Control_c, 0, 10, 64
2, 36108, Note_on_c, 0, 64, 44
2, 36108, Control_c, 0, 10, 69
2, 36109, Note_on_c, 0, 69, 53
2, 36110, Control_c, 0, 10, 74
2, 36111, Note_on_c, 0, 72, 53
2, 36111, Note_on_c, 0, 76, 31
2, 36121, Control_c, 0, 64, 127
2, 36123, Note_on_c, 0, 76, 0
2, 36127, Note_on_c, 0, 72, 0
2, 36131, Note_on_c, 0, 79, 0
2, 36136, Note_on_c, 0, 69, 0
2, 36165, Note_on_c, 0, 64, 0
2, 36173, Control_c, 0, 64, 0
2, 36183, Control_c, 0, 10, 76
2, 36184, Note_on_c, 0, 76, 47
2, 36187, Control_c, 0, 10, 67
2, 36188, Note_on_c, 0, 67, 49
2, 36191, Control_c, 0, 10, 64
2, 36192, Note_on_c, 0, 60, 58
2, 36192, Note_on_c, 0, 69, 49
2, 36193, Control_c, 0, 10, 72
2, 36194, Note_on_c, 0, 72, 38
2, 36204, Note_on_c, 0, 72, 0
2, 36204, Note_on_c, 0, 69, 0
2, 36210, Note_on_c, 0, 76, 0
2, 36211, Note_on_c, 0, 67, 0
2, 36212, Note_on_c, 0, 60, 0
2, 36262, Note_on_c, 0, 72, 43
2, 36264, Control_c, 0, 10, 67
2, 36265, Note_on_c, 0, 67, 34
2, 36265, Control_c, 0, 10, 60
2, 36266, Note_on_c, 0, 57, 33
2, 36266, Note_on_c, 0, 64, 50
2, 36277, Control_c, 0, 64, 127
2, 36282, Note_on_c, 0, 67, 0
2, 36286, Note_on_c, 0, 72, 0
2, 36294, Note_on_c, 0, 64, 0
2, 36303, Note_on_c, 0, 57, 0
2, 36338, Control_c, 0, 64, 0
2, 36349, Control_c, 0, 10, 52
2, 36350, Note_on_c, 0, 52, 43
2, 36350, Control_c, 0, 10, 60
2, 36351, Note_on_c, 0, 60, 40
2, 36353, Control_c, 0, 64, 127
2, 36368, Note_on_c, 0, 60, 0
2, 36397, Note_on_c, 0, 52, 0
2, 36423, Control_c, 0, 10, 67
2, 36424, Note_on_c, 0, 67, 59
2, 36427, Control_c, 0, 10, 57
2, 36428, Note_on_c, 0, 57, 66
2, 36428, Control_c, 0, 10, 60
2, 36429, Note_on_c, 0, 60, 67
2, 36432, Control_c, 0, 10, 55
2, 36433, Note_on_c, 0, 55, 68
2, 36437, Control_c, 0, 10, 64
2, 36438, Control_c, 0, 64, 0
2, 36438, Note_on_c, 0, 64, 30
2, 36443, Control_c, 0, 10, 65
2, 36444, Note_on_c, 0, 65, 22
2, 36456, Note_on_c, 0, 65, 0
2, 36465, Note_on_c, 0, 64, 0
2, 36471, Note_on_c, 0, 67, 0
2, 36478, Note_on_c, 0, 57, 0
2, 36487, Note_on_c, 0, 55, 0
2, 36488, Control_c, 0, 10, 54
2, 36489, Note_on_c, 0, 54, 57
2, 36497, Control_c, 0, 10, 66
2, 36498, Note_on_c, 0, 66, 38
2, 36499, Note_on_c, 0, 60, 0
2, 36510, Note_on_c, 0, 66, 0
2, 36514, Note_on_c, 0, 54, 0
2, 36526, Control_c, 0, 10, 53
2, 36527, Note_on_c, 0, 53, 38
2, 36531, Control_c, 0, 64, 127
2, 36541, Note_on_c, 0, 53, 0
2, 36563, Control_c, 0, 64, 0
2, 36570, Control_c, 0, 10, 50
2, 36571, Note_on_c, 0, 50, 19
2, 36583, Control_c, 0, 10, 64
2, 36584, Note_on_c, 0, 64, 66
2, 36591, Control_c, 0, 10, 60
2, 36592, Note_on_c, 0, 60, 40
2, 36598, Note_on_c, 0, 50, 0
2, 36604, Note_on_c, 0, 60, 0
2, 36620, Note_on_c, 0, 64, 0
2, 36655, Control_c, 0, 10, 67
2, 36656, Note_on_c, 0, 67, 56
2, 36667, Control_c, 0, 10, 58
2, 36668, Note_on_c, 0, 60, 18
2, 36668, Note_on_c, 0, 57, 17
2, 36689, Note_on_c, 0, 60, 0
2, 36693, Note_on_c, 0, 57, 0
2, 36701, Note_on_c, 0, 67, 0
2, 36736, Control_c, 0, 10, 65
2, 36737, Note_on_c, 0, 65, 66
2, 36738, Control_c, 0, 10, 58
2, 36739, Note_on_c, 0, 57, 50
2, 36739, Note_on_c, 0, 60, 58
2, 36739, Control_c, 0, 10, 52
2, 36740, Note_on_c, 0, 52, 39
2, 36758, Control_c, 0, 64, 127
2, 36770, Note_on_c, 0, 60, 0
2, 36783, Note_on_c, 0, 57, 0
2, 36790, Note_on_c, 0, 52, 0
2, 36813, Control_c, 0, 10, 57
2, 36814, Note_on_c, 0, 57, 42
2, 36815, Control_c, 0, 10, 60
2, 36816, Note_on_c, 0, 65, 0
2, 36816, Note_on_c, 0, 60, 62
2, 36825, Note_on_c, 0, 60, 0
2, 36840, Note_on_c, 0, 57, 0
2, 36876, Control_c, 0, 10, 61
2, 36877, Note_on_c, 0, 61, 25
2, 36891, Note_on_c, 0, 61, 0
2, 36913, Control_c, 0, 10, 55
2, 36914, Note_on_c, 0, 55, 60
2, 36914, Control_c, 0, 10, 57
2, 36915, Note_on_c, 0, 57, 55
2, 36915, Control_c, 0, 10, 60
2, 36916, Note_on_c, 0, 60, 57
2, 36919, Control_c, 0, 10, 45
2, 36920, Note_on_c, 0, 45, 48
2, 36931, Control_c, 0, 64, 0
2, 36978, Control_c, 0, 64, 127
2, 36981, Note_on_c, 0, 55, 0
2, 36989, Note_on_c, 0, 45, 0
2, 37009, Note_on_c, 0, 57, 0
2, 37029, Note_on_c, 0, 60, 0
2, 37142, Control_c, 0, 10, 64
2, 37143, Note_on_c, 0, 64, 55
2, 37149, Control_c, 0, 10, 58
2, 37150, Note_on_c, 0, 55, 38
2, 37150, Note_on_c, 0, 59, 45
2, 37150, Note_on_c, 0, 60, 50
2, 37166, Control_c, 0, 64, 0
2, 37208, Control_c, 0, 64, 127
2, 37264, Control_c, 0, 10, 84
2, 37265, Note_on_c, 0, 84, 84
2, 37267, Control_c, 0, 10, 72
2, 37268, Note_on_c, 0, 72, 75
2, 37270, Control_c, 0, 10, 78
2, 37271, Note_on_c, 0, 78, 48
2, 37280, Note_on_c, 0, 78, 0
2, 37291, Note_on_c, 0, 72, 0
2, 37302, Control_c, 0, 64, 0
2, 37306, Note_on_c, 0, 84, 0
2, 37326, Control_c, 0, 10, 81
2, 37327, Note_on_c, 0, 81, 54
2, 37343, Control_c, 0, 64, 127
2, 37358, Note_on_c, 0, 81, 0
2, 37370, Note_on_c, 0, 59, 0
2, 37380, Control_c, 0, 10, 84
2, 37381, Note_on_c, 0, 84, 66
2, 37382, Control_c, 0, 10, 72
2, 37383, Note_on_c, 0, 72, 47
2, 37391, Note_on_c, 0, 64, 0
2, 37393, Note_on_c, 0, 72, 0
2, 37394, Note_on_c, 0, 55, 0
2, 37399, Note_on_c, 0, 60, 0
2, 37404, Note_on_c, 0, 84, 0
2, 37438, Control_c, 0, 64, 0
2, 37491, Control_c, 0, 10, 89
2, 37492, Note_on_c, 0, 89, 75
2, 37492, Control_c, 0, 10, 58
2, 37493, Note_on_c, 0, 58, 49
2, 37493, Control_c, 0, 10, 65
2, 37494, Note_on_c, 0, 65, 60
2, 37494, Control_c, 0, 10, 54
2, 37495, Note_on_c, 0, 54, 44
2, 37495, Control_c, 0, 10, 77
2, 37496, Note_on_c, 0, 77, 62
2, 37496, Control_c, 0, 10, 60
2, 37497, Note_on_c, 0, 60, 53
2, 37508, Note_on_c, 0, 60, 0
2, 37514, Note_on_c, 0, 77, 0
2, 37516, Note_on_c, 0, 89, 0
2, 37517, Note_on_c, 0, 65, 0
2, 37528, Control_c, 0, 10, 87
2, 37529, Note_on_c, 0, 87, 67
2, 37531, Note_on_c, 0, 54, 0
2, 37532, Note_on_c, 0, 58, 0
2, 37550, Note_on_c, 0, 87, 0
2, 37566, Control_c, 0, 10, 89
2, 37567, Note_on_c, 0, 89, 83
2, 37567, Control_c, 0, 10, 58
2, 37568, Note_on_c, 0, 58, 56
2, 37568, Control_c, 0, 10, 71
2, 37569, Note_on_c, 0, 65, 67
2, 37569, Note_on_c, 0, 77, 65
2, 37569, Control_c, 0, 10, 54
2, 37570, Note_on_c, 0, 54, 54
2, 37570, Control_c, 0, 10, 60
2, 37571, Note_on_c, 0, 60, 65
2, 37571, Control_c, 0, 10, 82
2, 37572, Note_on_c, 0, 82, 49
2, 37616, Control_c, 0, 64, 127
2, 37651, Note_on_c, 0, 82, 0
2, 37662, Note_on_c, 0, 65, 0
2, 37667, Note_on_c, 0, 89, 0
2, 37668, Note_on_c, 0, 60, 0
2, 37670, Note_on_c, 0, 77, 0
2, 37675, Control_c, 0, 10, 87
2, 37676, Note_on_c, 0, 87, 79
2, 37680, Control_c, 0, 10, 65
2, 37681, Note_on_c, 0, 65, 64
2, 37681, Control_c, 0, 10, 89
2, 37682, Note_on_c, 0, 89, 22
2, 37682, Control_c, 0, 10, 60
2, 37683, Note_on_c, 0, 60, 40
2, 37691, Note_on_c, 0, 89, 0
2, 37720, Note_on_c, 0, 65, 0
2, 37731, Note_on_c, 0, 60, 0
2, 37736, Note_on_c, 0, 54, 0
2, 37741, Note_on_c, 0, 58, 0
2, 37750, Control_c, 0, 10, 65
2, 37751, Note_on_c, 0, 65, 51
2, 37751, Control_c, 0, 10, 68
2, 37752, Note_on_c, 0, 54, 30
2, 37752, Note_on_c, 0, 82, 70
2, 37752, Control_c, 0, 10, 58
2, 37753, Note_on_c, 0, 58, 23
2, 37753, Control_c, 0, 10, 60
2, 37754, Note_on_c, 0, 60, 51
2, 37759, Control_c, 0, 64, 0
2, 37809, Control_c, 0, 64, 127
2, 37828, Note_on_c, 0, 65, 0
2, 37832, Note_on_c, 0, 87, 0
2, 37832, Note_on_c, 0, 60, 0
2, 37835, Note_on_c, 0, 82, 0
2, 37848, Note_on_c, 0, 58, 0
2, 37865, Note_on_c, 0, 54, 0
2, 37981, Control_c, 0, 10, 68
2, 37982, Note_on_c, 0, 68, 70
2, 37982, Control_c, 0, 10, 61
2, 37983, Note_on_c, 0, 61, 73
2, 37983, Control_c, 0, 10, 54
2, 37984, Note_on_c, 0, 54, 53
2, 37984, Control_c, 0, 10, 65
2, 37985, Note_on_c, 0, 65, 66
2, 37985, Control_c, 0, 10, 58
2, 37986, Note_on_c, 0, 58, 56
2, 37986, Control_c, 0, 10, 56
2, 37987, Note_on_c, 0, 56, 48
2, 38005, Control_c, 0, 64, 0
2, 38024, Note_on_c, 0, 58, 0
2, 38028, Note_on_c, 0, 68, 0
2, 38030, Note_on_c, 0, 61, 0
2, 38042, Control_c, 0, 10, 70
2, 38043, Note_on_c, 0, 70, 71
2, 38047, Control_c, 0, 64, 127
2, 38047, Control_c, 0, 10, 58
2, 38048, Note_on_c, 0, 58, 31
2, 38048, Control_c, 0, 10, 61
2, 38049, Note_on_c, 0, 61, 21
2, 38063, Note_on_c, 0, 61, 0
2, 38074, Control_c, 0, 64, 0
2, 38078, Note_on_c, 0, 54, 0
2, 38079, Note_on_c, 0, 65, 0
2, 38083, Note_on_c, 0, 58, 0
2, 38083, Note_on_c, 0, 56, 0
2, 38089, Note_on_c, 0, 70, 0
2, 38097, Control_c, 0, 64, 127
2, 38109, Control_c, 0, 10, 54
2, 38110, Note_on_c, 0, 54, 48
2, 38133, Note_on_c, 0, 54, 0
2, 38162, Control_c, 0, 64, 0
2, 38166, Note_on_c, 0, 54, 65
2, 38166, Control_c, 0, 10, 72
2, 38167, Note_on_c, 0, 72, 64
2, 38168, Control_c, 0, 10, 65
2, 38169, Note_on_c, 0, 65, 70
2, 38169, Control_c, 0, 10, 64
2, 38170, Note_on_c, 0, 60, 72
2, 38170, Note_on_c, 0, 69, 60
2, 38210, Note_on_c, 0, 60, 0
2, 38216, Note_on_c, 0, 72, 0
2, 38217, Control_c, 0, 64, 127
2, 38219, Note_on_c, 0, 65, 0
2, 38220, Note_on_c, 0, 54, 0
2, 38222, Note_on_c, 0, 69, 0
2, 38233, Control_c, 0, 64, 0
2, 38239, Control_c, 0, 10, 63
2, 38240, Note_on_c, 0, 72, 57
2, 38240, Note_on_c, 0, 54, 56
2, 38241, Control_c, 0, 10, 60
2, 38242, Note_on_c, 0, 60, 50
2, 38242, Control_c, 0, 10, 65
2, 38243, Note_on_c, 0, 65, 64
2, 38245, Control_c, 0, 10, 69
2, 38246, Note_on_c, 0, 69, 43
2, 38261, Note_on_c, 0, 69, 0
2, 38264, Note_on_c, 0, 60, 0
2, 38270, Note_on_c, 0, 65, 0
2, 38271, Note_on_c, 0, 54, 0
2, 38272, Note_on_c, 0, 72, 0
2, 38296, Control_c, 0, 64, 127
2, 38349, Control_c, 0, 10, 67
2, 38350, Note_on_c, 0, 67, 70
2, 38351, Control_c, 0, 10, 62
2, 38352, Note_on_c, 0, 60, 79
2, 38352, Note_on_c, 0, 64, 76
2, 38354, Control_c, 0, 10, 53
2, 38355, Note_on_c, 0, 53, 65
2, 38355, Control_c, 0, 10, 57
2, 38356, Note_on_c, 0, 57, 71
2, 38356, Control_c, 0, 10, 55
2, 38357, Note_on_c, 0, 55, 62
2, 38357, Control_c, 0, 64, 0
2, 38405, Control_c, 0, 64, 127
2, 38447, Note_on_c, 0, 67, 0
2, 38450, Note_on_c, 0, 60, 0
2, 38462, Control_c, 0, 10, 69
2, 38463, Note_on_c, 0, 69, 76
2, 38475, Note_on_c, 0, 57, 0
2, 38484, Note_on_c, 0, 55, 0
2, 38485, Note_on_c, 0, 64, 0
2, 38486, Note_on_c, 0, 53, 0
2, 38506, Note_on_c, 0, 69, 0
2, 38517, Control_c, 0, 10, 67
2, 38518, Note_on_c, 0, 67, 51
2, 38542, Note_on_c, 0, 67, 0
2, 38582, Control_c, 0, 10, 64
2, 38583, Note_on_c, 0, 70, 76
2, 38583, Note_on_c, 0, 59, 70
2, 38583, Control_c, 0, 10, 53
2, 38584, Note_on_c, 0, 53, 64
2, 38584, Control_c, 0, 10, 58
2, 38585, Note_on_c, 0, 58, 72
2, 38585, Control_c, 0, 10, 63
2, 38586, Note_on_c, 0, 63, 73
2, 38591, Control_c, 0, 64, 0
2, 38603, Note_on_c, 0, 58, 0
2, 38606, Note_on_c, 0, 59, 0
2, 38609, Note_on_c, 0, 63, 0
2, 38612, Note_on_c, 0, 70, 0
2, 38616, Note_on_c, 0, 53, 0
2, 38644, Control_c, 0, 10, 70
2, 38645, Note_on_c, 0, 70, 81
2, 38648, Control_c, 0, 10, 58
2, 38649, Note_on_c, 0, 58, 75
2, 38650, Note_on_c, 0, 63, 74
2, 38650, Note_on_c, 0, 53, 74
2, 38651, Control_c, 0, 10, 59
2, 38652, Note_on_c, 0, 59, 78
2, 38685, Control_c, 0, 64, 127
2, 38735, Note_on_c, 0, 59, 0
2, 38735, Note_on_c, 0, 63, 0
2, 38735, Note_on_c, 0, 53, 0
2, 38735, Note_on_c, 0, 58, 0
2, 38748, Note_on_c, 0, 70, 0
2, 38760, Control_c, 0, 10, 68
2, 38761, Note_on_c, 0, 68, 59
2, 38762, Control_c, 0, 10, 58
2, 38763, Note_on_c, 0, 58, 63
2, 38765, Note_on_c, 0, 63, 53
2, 38765, Note_on_c, 0, 53, 39
2, 38765, Control_c, 0, 10, 59
2, 38766, Note_on_c, 0, 59, 32
2, 38776, Note_on_c, 0, 59, 0
2, 38791, Note_on_c, 0, 53, 0
2, 38796, Note_on_c, 0, 68, 0
2, 38799, Note_on_c, 0, 58, 0
2, 38810, Note_on_c, 0, 63, 0
2, 38841, Control_c, 0, 10, 64
2, 38842, Note_on_c, 0, 67, 58
2, 38842, Note_on_c, 0, 62, 58
2, 38844, Control_c, 0, 10, 54
2, 38845, Note_on_c, 0, 57, 60
2, 38845, Note_on_c, 0, 52, 57
2, 38847, Control_c, 0, 64, 0
2, 38915, Control_c, 0, 64, 127
2, 38916, Note_on_c, 0, 67, 0
2, 38924, Note_on_c, 0, 57, 0
2, 38927, Note_on_c, 0, 62, 0
2, 38955, Note_on_c, 0, 52, 0
2, 38957, Control_c, 0, 10, 58
2, 38958, Note_on_c, 0, 66, 43
2, 38958, Note_on_c, 0, 51, 53
2, 38962, Note_on_c, 0, 56, 43
2, 38962, Note_on_c, 0, 61, 53
2, 38975, Note_on_c, 0, 56, 0
2, 38980, Control_c, 0, 64, 0
2, 38986, Note_on_c, 0, 66, 0
2, 38988, Note_on_c, 0, 61, 0
2, 39000, Note_on_c, 0, 51, 0
2, 39014, Control_c, 0, 10, 52
2, 39015, Note_on_c, 0, 52, 45
2, 39020, Control_c, 0, 10, 67
2, 39021, Note_on_c, 0, 67, 41
2, 39026, Note_on_c, 0, 52, 0
2, 39027, Control_c, 0, 64, 127
2, 39029, Note_on_c, 0, 67, 0
2, 39069, Control_c, 0, 10, 74
2, 39070, Note_on_c, 0, 74, 83
2, 39072, Control_c, 0, 10, 65
2, 39073, Note_on_c, 0, 64, 71
2, 39073, Note_on_c, 0, 67, 74
2, 39076, Control_c, 0, 10, 59
2, 39077, Note_on_c, 0, 59, 72
2, 39083, Control_c, 0, 64, 0
2, 39101, Note_on_c, 0, 59, 0
2, 39102, Note_on_c, 0, 67, 0
2, 39102, Note_on_c, 0, 64, 0
2, 39108, Note_on_c, 0, 74, 0
2, 39130, Control_c, 0, 10, 74
2, 39131, Note_on_c, 0, 74, 58
2, 39133, Control_c, 0, 10, 59
2, 39134, Note_on_c, 0, 59, 68
2, 39135, Control_c, 0, 10, 67
2, 39136, Note_on_c, 0, 67, 62
2, 39137, Control_c, 0, 10, 64
2, 39138, Note_on_c, 0, 64, 72
2, 39141, Control_c, 0, 64, 127
2, 39170, Note_on_c, 0, 67, 0
2, 39171, Note_on_c, 0, 74, 0
2, 39175, Note_on_c, 0, 59, 0
2, 39183, Note_on_c, 0, 64, 0
2, 39312, Control_c, 0, 10, 62
2, 39313, Note_on_c, 0, 62, 83
2, 39314, Control_c, 0, 10, 52
2, 39315, Note_on_c, 0, 52, 80
2, 39316, Control_c, 0, 10, 57
2, 39317, Note_on_c, 0, 57, 66
2, 39332, Control_c, 0, 64, 0
2, 39398, Control_c, 0, 64, 127
2, 39465, Note_on_c, 0, 57, 0
2, 39470, Control_c, 0, 10, 66
2, 39471, Note_on_c, 0, 66, 67
2, 39473, Note_on_c, 0, 52, 0
2, 39489, Note_on_c, 0, 66, 0
2, 39495, Note_on_c, 0, 62, 0
2, 39517, Control_c, 0, 10, 71
2, 39518, Note_on_c, 0, 71, 70
2, 39540, Note_on_c, 0, 71, 0
2, 39559, Control_c, 0, 64, 0
2, 39647, Control_c, 0, 64, 127
2, 39668, Control_c, 0, 64, 0
2, 39668, Control_c, 0, 10, 64
2, 39669, Note_on_c, 0, 64, 80
2, 39669, Control_c, 0, 10, 54
2, 39670, Note_on_c, 0, 54, 76
2, 39670, Control_c, 0, 10, 59
2, 39671, Note_on_c, 0, 59, 73
2, 39761, Control_c, 0, 64, 127
2, 39772, Control_c, 0, 10, 83
2, 39773, Note_on_c, 0, 83, 76
2, 39787, Note_on_c, 0, 59, 0
2, 39787, Note_on_c, 0, 64, 0
2, 39799, Note_on_c, 0, 83, 0
2, 39804, Note_on_c, 0, 54, 0
2, 39808, Control_c, 0, 10, 88
2, 39809, Note_on_c, 0, 88, 84
2, 39834, Note_on_c, 0, 88, 0
2, 39846, Control_c, 0, 10, 63
2, 39847, Note_on_c, 0, 63, 82
2, 39847, Control_c, 0, 10, 79
2, 39848, Control_c, 0, 64, 0
2, 39848, Note_on_c, 0, 79, 76
2, 39848, Control_c, 0, 10, 58
2, 39849, Note_on_c, 0, 58, 69
2, 39851, Control_c, 0, 10, 53
2, 39852, Note_on_c, 0, 53, 72
2, 39898, Control_c, 0, 64, 127
2, 39920, Control_c, 0, 64, 0
2, 39954, Control_c, 0, 64, 127
2, 39961, Note_on_c, 0, 53, 0
2, 39961, Control_c, 0, 10, 84
2, 39962, Note_on_c, 0, 84, 60
2, 39981, Note_on_c, 0, 58, 0
2, 39983, Note_on_c, 0, 63, 0
2, 39984, Note_on_c, 0, 79, 0
2, 39988, Note_on_c, 0, 84, 0
2, 40004, Control_c, 0, 10, 89
2, 40005, Note_on_c, 0, 89, 77
2, 40034, Note_on_c, 0, 89, 0
2, 40036, Control_c, 0, 64, 0
2, 40041, Control_c, 0, 10, 65
2, 40042, Note_on_c, 0, 65, 78
2, 40044, Control_c, 0, 10, 57
2, 40045, Note_on_c, 0, 60, 68
2, 40045, Note_on_c, 0, 55, 66
2, 40045, Control_c, 0, 10, 87
2, 40046, Note_on_c, 0, 87, 81
2, 40083, Control_c, 0, 64, 127
2, 40133, Note_on_c, 0, 55, 0
2, 40143, Note_on_c, 0, 65, 0
2, 40145, Note_on_c, 0, 60, 0
2, 40161, Control_c, 0, 10, 82
2, 40162, Note_on_c, 0, 82, 49
2, 40177, Note_on_c, 0, 87, 0
2, 40198, Control_c, 0, 10, 77
2, 40199, Note_on_c, 0, 77, 54
2, 40203, Note_on_c, 0, 82, 0
2, 40211, Note_on_c, 0, 77, 0
2, 40216, Control_c, 0, 64, 0
2, 40224, Control_c, 0, 10, 63
2, 40225, Note_on_c, 0, 63, 64
2, 40226, Control_c, 0, 10, 53
2, 40227, Note_on_c, 0, 53, 62
2, 40229, Control_c, 0, 10, 58
2, 40230, Note_on_c, 0, 58, 57
2, 40234, Control_c, 0, 10, 84
2, 40235, Note_on_c, 0, 84, 74
2, 40327, Control_c, 0, 64, 127
2, 40340, Note_on_c, 0, 53, 0
2, 40357, Note_on_c, 0, 63, 0
2, 40359, Note_on_c, 0, 58, 0
2, 40369, Note_on_c, 0, 84, 0
2, 40387, Control_c, 0, 10, 65
2, 40388, Note_on_c, 0, 65, 79
2, 40389, Control_c, 0, 10, 84
2, 40390, Note_on_c, 0, 84, 68
2, 40390, Control_c, 0, 10, 55
2, 40391, Note_on_c, 0, 55, 69
2, 40391, Control_c, 0, 10, 60
2, 40392, Note_on_c, 0, 60, 67
2, 40396, Control_c, 0, 10, 83
2, 40397, Note_on_c, 0, 83, 34
2, 40399, Control_c, 0, 64, 0
2, 40410, Note_on_c, 0, 83, 0
2, 40483, Control_c, 0, 64, 127
2, 40501, Control_c, 0, 10, 72
2, 40502, Note_on_c, 0, 72, 38
2, 40517, Note_on_c, 0, 72, 0
2, 40523, Control_c, 0, 64, 0
2, 40539, Note_on_c, 0, 84, 0
2, 40545, Note_on_c, 0, 55, 0
2, 40549, Note_on_c, 0, 65, 0
2, 40553, Note_on_c, 0, 60, 0
2, 40566, Control_c, 0, 10, 77
2, 40567, Note_on_c, 0, 77, 38
2, 40591, Note_on_c, 0, 77, 0
2, 40611, Control_c, 0, 64, 127
2, 40623, Control_c, 0, 10, 84
2, 40624, Note_on_c, 0, 84, 77
2, 40628, Control_c, 0, 10, 75
2, 40629, Note_on_c, 0, 78, 36
2, 40629, Note_on_c, 0, 72, 53
2, 40639, Note_on_c, 0, 78, 0
2, 40649, Note_on_c, 0, 72, 0
2, 40650, Note_on_c, 0, 84, 0
2, 40655, Control_c, 0, 64, 0
2, 40676, Control_c, 0, 10, 63
2, 40677, Note_on_c, 0, 63, 46
2, 40680, Control_c, 0, 10, 53
2, 40681, Note_on_c, 0, 53, 40
2, 40684, Control_c, 0, 10, 80
2, 40685, Note_on_c, 0, 80, 35
2, 40686, Control_c, 0, 10, 58
2, 40687, Note_on_c, 0, 58, 34
2, 40706, Note_on_c, 0, 53, 0
2, 40718, Note_on_c, 0, 80, 0
2, 40724, Note_on_c, 0, 58, 0
2, 40728, Note_on_c, 0, 63, 0
2, 40750, Control_c, 0, 10, 72
2, 40751, Note_on_c, 0, 72, 51
2, 40762, Note_on_c, 0, 72, 0
2, 40799, Control_c, 0, 10, 56
2, 40800, Note_on_c, 0, 56, 34
2, 40801, Control_c, 0, 10, 65
2, 40802, Note_on_c, 0, 65, 40
2, 40808, Control_c, 0, 10, 60
2, 40809, Note_on_c, 0, 60, 30
2, 40816, Note_on_c, 0, 65, 0
2, 40820, Note_on_c, 0, 60, 0
2, 40820, Control_c, 0, 10, 84
2, 40821, Note_on_c, 0, 84, 11
2, 40828, Note_on_c, 0, 56, 0
2, 40832, Note_on_c, 0, 84, 0
2, 40981, Control_c, 0, 10, 91
2, 40982, Note_on_c, 0, 91, 66
2, 40982, Control_c, 0, 10, 79
2, 40983, Note_on_c, 0, 79, 61
2, 40983, Control_c, 0, 10, 65
2, 40984, Note_on_c, 0, 65, 64
2, 40985, Control_c, 0, 10, 58
2, 40986, Note_on_c, 0, 56, 52
2, 40986, Note_on_c, 0, 61, 46
2, 40986, Control_c, 0, 10, 73
2, 40987, Note_on_c, 0, 87, 44
2, 40987, Note_on_c, 0, 60, 55
2, 40987, Control_c, 0, 10, 84
2, 40988, Note_on_c, 0, 84, 53
2, 40996, Note_on_c, 0, 60, 0
2, 40998, Note_on_c, 0, 84, 0
2, 41003, Note_on_c, 0, 79, 0
2, 41006, Note_on_c, 0, 65, 0
2, 41007, Note_on_c, 0, 87, 0
2, 41009, Note_on_c, 0, 91, 0
2, 41013, Note_on_c, 0, 56, 0
2, 41015, Note_on_c, 0, 61, 0
2, 41046, Control_c, 0, 10, 70
2, 41047, Note_on_c, 0, 91, 69
2, 41047, Note_on_c, 0, 56, 46
2, 41047, Note_on_c, 0, 65, 53
2, 41048, Control_c, 0, 10, 79
2, 41049, Note_on_c, 0, 79, 53
2, 41050, Control_c, 0, 10, 60
2, 41051, Note_on_c, 0, 60, 47
2, 41051, Control_c, 0, 10, 74
2, 41052, Note_on_c, 0, 61, 36
2, 41052, Note_on_c, 0, 87, 38
2, 41055, Control_c, 0, 10, 84
2, 41056, Note_on_c, 0, 84, 37
2, 41067, Note_on_c, 0, 84, 0
2, 41073, Note_on_c, 0, 79, 0
2, 41074, Note_on_c, 0, 65, 0
2, 41075, Note_on_c, 0, 60, 0
2, 41077, Note_on_c, 0, 87, 0
2, 41080, Note_on_c, 0, 91, 0
2, 41082, Note_on_c, 0, 56, 0
2, 41091, Note_on_c, 0, 61, 0
2, 41109, Control_c, 0, 10, 56
2, 41110, Note_on_c, 0, 56, 54
2, 41110, Control_c, 0, 10, 91
2, 41111, Note_on_c, 0, 91, 63
2, 41111, Control_c, 0, 10, 79
2, 41112, Note_on_c, 0, 79, 49
2, 41112, Control_c, 0, 10, 65
2, 41113, Note_on_c, 0, 65, 62
2, 41114, Control_c, 0, 10, 60
2, 41115, Note_on_c, 0, 60, 45
2, 41115, Control_c, 0, 10, 61
2, 41116, Note_on_c, 0, 61, 18
2, 41119, Control_c, 0, 10, 87
2, 41120, Note_on_c, 0, 87, 25
2, 41120, Control_c, 0, 10, 84
2, 41121, Note_on_c, 0, 84, 46
2, 41139, Note_on_c, 0, 84, 0
2, 41140, Note_on_c, 0, 79, 0
2, 41140, Note_on_c, 0, 91, 0
2, 41142, Note_on_c, 0, 65, 0
2, 41144, Note_on_c, 0, 87, 0
2, 41148, Note_on_c, 0, 60, 0
2, 41151, Note_on_c, 0, 56, 0
2, 41170, Note_on_c, 0, 61, 0
2, 41226, Control_c, 0, 10, 89
2, 41227, Note_on_c, 0, 89, 60
2, 41228, Control_c, 0, 10, 56
2, 41229, Note_on_c, 0, 56, 59
2, 41231, Control_c, 0, 10, 65
2, 41232, Note_on_c, 0, 65, 54
2, 41232, Control_c, 0, 10, 61
2, 41233, Note_on_c, 0, 61, 25
2, 41233, Control_c, 0, 10, 77
2, 41234, Note_on_c, 0, 77, 31
2, 41244, Note_on_c, 0, 77, 0
2, 41244, Note_on_c, 0, 65, 0
2, 41251, Note_on_c, 0, 89, 0
2, 41258, Note_on_c, 0, 61, 0
2, 41264, Note_on_c, 0, 56, 0
2, 41287, Control_c, 0, 10, 91
2, 41288, Note_on_c, 0, 91, 73
2, 41290, Control_c, 0, 10, 55
2, 41291, Note_on_c, 0, 55, 61
2, 41291, Control_c, 0, 10, 71
2, 41292, Note_on_c, 0, 64, 50
2, 41292, Note_on_c, 0, 79, 47
2, 41293, Control_c, 0, 10, 84
2, 41294, Note_on_c, 0, 84, 44
2, 41294, Control_c, 0, 10, 61
2, 41295, Note_on_c, 0, 61, 42
2, 41327, Note_on_c, 0, 84, 0
2, 41327, Note_on_c, 0, 79, 0
2, 41332, Note_on_c, 0, 91, 0
2, 41333, Note_on_c, 0, 64, 0
2, 41341, Note_on_c, 0, 55, 0
2, 41341, Note_on_c, 0, 61, 0
2, 41354, Control_c, 0, 10, 91
2, 41355, Note_on_c, 0, 91, 57
2, 41358, Control_c, 0, 10, 79
2, 41359, Note_on_c, 0, 79, 40
2, 41359, Control_c, 0, 10, 55
2, 41360, Note_on_c, 0, 55, 33
2, 41363, Control_c, 0, 10, 84
2, 41364, Note_on_c, 0, 84, 44
2, 41365, Control_c, 0, 10, 62
2, 41366, Note_on_c, 0, 64, 33
2, 41366, Note_on_c, 0, 61, 26
2, 41372, Note_on_c, 0, 79, 0
2, 41373, Note_on_c, 0, 84, 0
2, 41378, Note_on_c, 0, 64, 0
2, 41382, Note_on_c, 0, 55, 0
2, 41383, Note_on_c, 0, 61, 0
2, 41386, Note_on_c, 0, 91, 0
2, 41472, Control_c, 0, 10, 61
2, 41473, Note_on_c, 0, 61, 50
2, 41475, Control_c, 0, 10, 59
2, 41476, Note_on_c, 0, 64, 46
2, 41476, Note_on_c, 0, 55, 53
2, 41487, Note_on_c, 0, 64, 0
2, 41488, Note_on_c, 0, 55, 0
2, 41494, Note_on_c, 0, 61, 0
2, 41579, Control_c, 0, 10, 61
2, 41580, Note_on_c, 0, 61, 70
2, 41581, Control_c, 0, 10, 59
2, 41582, Note_on_c, 0, 55, 71
2, 41582, Note_on_c, 0, 64, 69
2, 41582, Control_c, 0, 10, 91
2, 41583, Note_on_c, 0, 91, 69
2, 41584, Control_c, 0, 10, 79
2, 41585, Note_on_c, 0, 79, 58
2, 41588, Control_c, 0, 10, 84
2, 41589, Note_on_c, 0, 84, 38
2, 41607, Note_on_c, 0, 84, 0
2, 41607, Note_on_c, 0, 64, 0
2, 41610, Note_on_c, 0, 79, 0
2, 41618, Note_on_c, 0, 61, 0
2, 41619, Note_on_c, 0, 91, 0
2, 41620, Note_on_c, 0, 55, 0
2, 41650, Control_c, 0, 10, 89
2, 41651, Note_on_c, 0, 89, 32
2, 41665, Note_on_c, 0, 89, 0
2, 41707, Control_c, 0, 10, 85
2, 41708, Note_on_c, 0, 91, 63
2, 41708, Note_on_c, 0, 79, 67
2, 41711, Control_c, 0, 10, 58
2, 41712, Note_on_c, 0, 58, 61
2, 41717, Note_on_c, 0, 79, 0
2, 41721, Note_on_c, 0, 58, 0
2, 41734, Note_on_c, 0, 91, 0
2, 41786, Note_on_c, 0, 58, 23
2, 41795, Note_on_c, 0, 58, 0
2, 41828, Note_on_c, 0, 58, 69
2, 41828, Control_c, 0, 10, 79
2, 41829, Note_on_c, 0, 63, 74
2, 41829, Note_on_c, 0, 96, 77
2, 41830, Control_c, 0, 10, 68
2, 41831, Note_on_c, 0, 52, 73
2, 41831, Note_on_c, 0, 84, 64
2, 41832, Control_c, 0, 10, 90
2, 41833, Note_on_c, 0, 90, 51
2, 41843, Note_on_c, 0, 90, 0
2, 41850, Note_on_c, 0, 84, 0
2, 41860, Note_on_c, 0, 96, 0
2, 41865, Note_on_c, 0, 52, 0
2, 41868, Note_on_c, 0, 63, 0
2, 41873, Note_on_c, 0, 58, 0
2, 41945, Control_c, 0, 10, 58
2, 41946, Note_on_c, 0, 58, 38
2, 41956, Note_on_c, 0, 58, 0
2, 42002, Control_c, 0, 10, 63
2, 42003, Note_on_c, 0, 63, 74
2, 42003, Control_c, 0, 10, 79
2, 42004, Note_on_c, 0, 96, 76
2, 42004, Note_on_c, 0, 58, 64
2, 42004, Note_on_c, 0, 84, 71
2, 42004, Control_c, 0, 10, 90
2, 42005, Note_on_c, 0, 90, 63
2, 42006, Control_c, 0, 10, 52
2, 42007, Note_on_c, 0, 52, 71
2, 42049, Note_on_c, 0, 90, 0
2, 42053, Note_on_c, 0, 84, 0
2, 42054, Note_on_c, 0, 52, 0
2, 42055, Note_on_c, 0, 96, 0
2, 42057, Note_on_c, 0, 63, 0
2, 42065, Note_on_c, 0, 58, 0
2, 42076, Control_c, 0, 10, 90
2, 42077, Note_on_c, 0, 90, 39
2, 42080, Control_c, 0, 10, 63
2, 42081, Note_on_c, 0, 63, 50
2, 42081, Control_c, 0, 10, 52
2, 42082, Note_on_c, 0, 52, 48
2, 42083, Control_c, 0, 10, 58
2, 42084, Note_on_c, 0, 58, 44
2, 42094, Note_on_c, 0, 90, 0
2, 42109, Note_on_c, 0, 63, 0
2, 42112, Note_on_c, 0, 52, 0
2, 42150, Note_on_c, 0, 58, 0
2, 42178, Control_c, 0, 10, 96
2, 42179, Note_on_c, 0, 96, 75
2, 42180, Control_c, 0, 10, 73
2, 42181, Note_on_c, 0, 84, 67
2, 42181, Note_on_c, 0, 62, 76
2, 42182, Control_c, 0, 10, 51
2, 42183, Note_on_c, 0, 51, 69
2, 42183, Control_c, 0, 10, 73
2, 42184, Note_on_c, 0, 57, 70
2, 42184, Note_on_c, 0, 89, 61
2, 42184, Control_c, 0, 10, 93
2, 42185, Note_on_c, 0, 93, 54
2, 42218, Note_on_c, 0, 89, 0
2, 42219, Note_on_c, 0, 84, 0
2, 42227, Note_on_c, 0, 96, 0
2, 42229, Note_on_c, 0, 93, 0
2, 42231, Note_on_c, 0, 62, 0
2, 42236, Note_on_c, 0, 57, 0
2, 42236, Note_on_c, 0, 51, 0
2, 42297, Control_c, 0, 10, 51
2, 42298, Note_on_c, 0, 51, 46
2, 42309, Note_on_c, 0, 51, 0
2, 42309, Control_c, 0, 10, 57
2, 42310, Note_on_c, 0, 57, 24
2, 42319, Note_on_c, 0, 57, 0
2, 42355, Control_c, 0, 10, 51
2, 42356, Note_on_c, 0, 51, 74
2, 42357, Control_c, 0, 10, 77
2, 42358, Note_on_c, 0, 62, 74
2, 42358, Note_on_c, 0, 92, 69
2, 42358, Control_c, 0, 10, 70
2, 42359, Note_on_c, 0, 57, 71
2, 42359, Note_on_c, 0, 84, 58
2, 42366, Control_c, 0, 10, 90
2, 42367, Note_on_c, 0, 90, 34
2, 42376, Note_on_c, 0, 90, 0
2, 42415, Control_c, 0, 10, 93
2, 42416, Note_on_c, 0, 93, 61
2, 42418, Note_on_c, 0, 92, 0
2, 42421, Note_on_c, 0, 84, 0
2, 42426, Note_on_c, 0, 93, 0
2, 42439, Note_on_c, 0, 57, 0
2, 42442, Note_on_c, 0, 62, 0
2, 42443, Note_on_c, 0, 51, 0
2, 42541, Control_c, 0, 10, 96
2, 42542, Note_on_c, 0, 96, 87
2, 42543, Control_c, 0, 10, 67
2, 42544, Note_on_c, 0, 84, 82
2, 42544, Note_on_c, 0, 51, 71
2, 42544, Control_c, 0, 10, 62
2, 42545, Note_on_c, 0, 62, 80
2, 42545, Control_c, 0, 10, 57
2, 42546, Note_on_c, 0, 57, 74
2, 42592, Note_on_c, 0, 84, 0
2, 42597, Note_on_c, 0, 62, 0
2, 42598, Note_on_c, 0, 96, 0
2, 42603, Note_on_c, 0, 57, 0
2, 42618, Note_on_c, 0, 51, 0
2, 42672, Control_c, 0, 10, 56
2, 42673, Note_on_c, 0, 56, 57
2, 42683, Note_on_c, 0, 56, 0
2, 42731, Control_c, 0, 10, 55
2, 42732, Note_on_c, 0, 56, 79
2, 42732, Note_on_c, 0, 50, 85
2, 42732, Note_on_c, 0, 60, 91
2, 42732, Control_c, 0, 10, 90
2, 42733, Note_on_c, 0, 84, 92
2, 42733, Note_on_c, 0, 92, 78
2, 42733, Note_on_c, 0, 96, 88
2, 42738, Note_on_c, 0, 90, 51
2, 42747, Note_on_c, 0, 90, 0
2, 42818, Note_on_c, 0, 50, 0
2, 42828, Note_on_c, 0, 56, 0
2, 42837, Note_on_c, 0, 60, 0
2, 42863, Note_on_c, 0, 84, 0
2, 42887, Note_on_c, 0, 96, 0
2, 42891, Note_on_c, 0, 92, 0
2, 42911, Control_c, 0, 10, 89
2, 42912, Note_on_c, 0, 89, 67
2, 42912, Control_c, 0, 10, 60
2, 42913, Note_on_c, 0, 60, 76
2, 42913, Control_c, 0, 10, 74
2, 42914, Note_on_c, 0, 84, 58
2, 42914, Note_on_c, 0, 65, 74
2, 42915, Control_c, 0, 10, 54
2, 42916, Note_on_c, 0, 54, 71
2, 42920, Control_c, 0, 10, 92
2, 42921, Note_on_c, 0, 92, 34
2, 42933, Note_on_c, 0, 92, 0
2, 42975, Note_on_c, 0, 89, 0
2, 42979, Control_c, 0, 64, 127
2, 42986, Note_on_c, 0, 84, 0
2, 43089, Note_on_c, 0, 60, 0
2, 43094, Note_on_c, 0, 65, 0
2, 43112, Note_on_c, 0, 54, 0
2, 43143, Control_c, 0, 10, 64
2, 43144, Note_on_c, 0, 64, 68
2, 43146, Control_c, 0, 10, 56
2, 43147, Note_on_c, 0, 53, 64
2, 43147, Note_on_c, 0, 59, 60
2, 43162, Control_c, 0, 64, 0
2, 43218, Control_c, 0, 64, 127
2, 43247, Control_c, 0, 64, 0
2, 43258, Control_c, 0, 10, 79
2, 43259, Note_on_c, 0, 79, 74
2, 43259, Control_c, 0, 10, 72
2, 43260, Note_on_c, 0, 78, 69
2, 43260, Note_on_c, 0, 67, 77
2, 43305, Control_c, 0, 64, 127
2, 43317, Note_on_c, 0, 67, 0
2, 43326, Note_on_c, 0, 79, 0
2, 43334, Note_on_c, 0, 78, 0
2, 43339, Note_on_c, 0, 64, 0
2, 43344, Note_on_c, 0, 53, 0
2, 43350, Note_on_c, 0, 59, 0
2, 43380, Control_c, 0, 10, 83
2, 43381, Note_on_c, 0, 83, 84
2, 43382, Control_c, 0, 10, 76
2, 43383, Note_on_c, 0, 71, 85
2, 43383, Note_on_c, 0, 82, 76
2, 43384, Control_c, 0, 64, 0
2, 43384, Control_c, 0, 10, 53
2, 43385, Note_on_c, 0, 53, 74
2, 43386, Control_c, 0, 10, 63
2, 43387, Note_on_c, 0, 63, 77
2, 43387, Control_c, 0, 10, 59
2, 43388, Note_on_c, 0, 59, 74
2, 43393, Control_c, 0, 10, 81
2, 43394, Note_on_c, 0, 81, 51
2, 43417, Note_on_c, 0, 82, 0
2, 43421, Note_on_c, 0, 81, 0
2, 43430, Control_c, 0, 64, 127
2, 43443, Note_on_c, 0, 83, 0
2, 43445, Note_on_c, 0, 71, 0
2, 43466, Note_on_c, 0, 53, 0
2, 43469, Note_on_c, 0, 63, 0
2, 43475, Note_on_c, 0, 59, 0
2, 43509, Control_c, 0, 10, 65
2, 43510, Note_on_c, 0, 78, 65
2, 43510, Note_on_c, 0, 53, 72
2, 43510, Control_c, 0, 10, 63
2, 43511, Note_on_c, 0, 63, 70
2, 43511, Control_c, 0, 10, 67
2, 43512, Note_on_c, 0, 67, 55
2, 43512, Control_c, 0, 10, 59
2, 43513, Note_on_c, 0, 59, 68
2, 43514, Control_c, 0, 10, 74
2, 43515, Control_c, 0, 64, 0
2, 43515, Note_on_c, 0, 69, 65
2, 43515, Note_on_c, 0, 79, 54
2, 43515, Control_c, 0, 10, 78
2, 43516, Note_on_c, 0, 81, 57
2, 43516, Note_on_c, 0, 75, 37
2, 43533, Note_on_c, 0, 75, 0
2, 43544, Note_on_c, 0, 69, 0
2, 43551, Note_on_c, 0, 81, 0
2, 43556, Note_on_c, 0, 67, 0
2, 43560, Control_c, 0, 64, 127
2, 43567, Note_on_c, 0, 79, 0
2, 43575, Note_on_c, 0, 78, 0
2, 43587, Note_on_c, 0, 53, 0
2, 43589, Note_on_c, 0, 63, 0
2, 43608, Note_on_c, 0, 59, 0
2, 43628, Control_c, 0, 10, 59
2, 43629, Note_on_c, 0, 59, 58
2, 43630, Control_c, 0, 10, 72
2, 43631, Note_on_c, 0, 83, 91
2, 43631, Note_on_c, 0, 62, 77
2, 43633, Control_c, 0, 10, 71
2, 43634, Note_on_c, 0, 71, 77
2, 43634, Control_c, 0, 10, 52
2, 43635, Note_on_c, 0, 52, 68
2, 43635, Control_c, 0, 10, 68
2, 43636, Note_on_c, 0, 55, 62
2, 43636, Note_on_c, 0, 82, 65
2, 43640, Control_c, 0, 64, 0
2, 43644, Control_c, 0, 10, 79
2, 43645, Note_on_c, 0, 79, 32
2, 43661, Note_on_c, 0, 79, 0
2, 43665, Note_on_c, 0, 71, 0
2, 43679, Note_on_c, 0, 82, 0
2, 43695, Note_on_c, 0, 83, 0
2, 43695, Control_c, 0, 64, 127
2, 43705, Note_on_c, 0, 62, 0
2, 43707, Note_on_c, 0, 52, 0
2, 43708, Note_on_c, 0, 55, 0
2, 43720, Note_on_c, 0, 59, 0
2, 43750, Control_c, 0, 64, 0
2, 43752, Control_c, 0, 10, 73
2, 43753, Note_on_c, 0, 73, 64
2, 43757, Control_c, 0, 10, 79
2, 43758, Note_on_c, 0, 79, 43
2, 43758, Control_c, 0, 10, 67
2, 43759, Note_on_c, 0, 67, 60
2, 43760, Control_c, 0, 10, 62
2, 43761, Note_on_c, 0, 77, 46
2, 43761, Note_on_c, 0, 59, 61
2, 43761, Note_on_c, 0, 52, 61
2, 43762, Note_on_c, 0, 62, 62
2, 43763, Control_c, 0, 10, 55
2, 43764, Note_on_c, 0, 55, 55
2, 43787, Note_on_c, 0, 67, 0
2, 43788, Note_on_c, 0, 62, 0
2, 43790, Control_c, 0, 64, 127
2, 43793, Note_on_c, 0, 73, 0
2, 43795, Note_on_c, 0, 52, 0
2, 43800, Note_on_c, 0, 79, 0
2, 43805, Note_on_c, 0, 77, 0
2, 43806, Note_on_c, 0, 59, 0
2, 43811, Note_on_c, 0, 55, 0
2, 43878, Control_c, 0, 10, 86
2, 43879, Note_on_c, 0, 86, 83
2, 43879, Control_c, 0, 10, 83
2, 43880, Note_on_c, 0, 83, 81
2, 43881, Control_c, 0, 10, 65
2, 43882, Note_on_c, 0, 57, 88
2, 43882, Note_on_c, 0, 74, 80
2, 43882, Control_c, 0, 10, 79
2, 43883, Note_on_c, 0, 79, 74
2, 43883, Control_c, 0, 10, 67
2, 43884, Note_on_c, 0, 67, 78
2, 43885, Control_c, 0, 10, 65
2, 43886, Note_on_c, 0, 65, 82
2, 43888, Control_c, 0, 64, 0
2, 43894, Note_on_c, 0, 65, 0
2, 43922, Note_on_c, 0, 83, 0
2, 43926, Note_on_c, 0, 86, 0
2, 43928, Control_c, 0, 64, 127
2, 43929, Note_on_c, 0, 79, 0
2, 43931, Note_on_c, 0, 74, 0
2, 43932, Note_on_c, 0, 67, 0
2, 43955, Note_on_c, 0, 57, 0
2, 44000, Control_c, 0, 10, 75
2, 44001, Note_on_c, 0, 75, 71
2, 44002, Control_c, 0, 10, 83
2, 44003, Control_c, 0, 64, 0
2, 44003, Note_on_c, 0, 83, 62
2, 44003, Control_c, 0, 10, 64
2, 44004, Note_on_c, 0, 71, 62
2, 44004, Note_on_c, 0, 57, 73
2, 44005, Control_c, 0, 10, 69
2, 44006, Note_on_c, 0, 63, 67
2, 44006, Note_on_c, 0, 79, 53
2, 44006, Note_on_c, 0, 67, 66
2, 44009, Control_c, 0, 10, 81
2, 44010, Note_on_c, 0, 81, 36
2, 44035, Note_on_c, 0, 67, 0
2, 44045, Control_c, 0, 64, 127
2, 44050, Note_on_c, 0, 63, 0
2, 44051, Note_on_c, 0, 57, 0
2, 44055, Note_on_c, 0, 79, 0
2, 44059, Note_on_c, 0, 71, 0
2, 44063, Note_on_c, 0, 83, 0
2, 44068, Note_on_c, 0, 81, 0
2, 44068, Note_on_c, 0, 75, 0
2, 44121, Control_c, 0, 10, 79
2, 44122, Note_on_c, 0, 79, 66
2, 44124, Control_c, 0, 10, 74
2, 44125, Note_on_c, 0, 74, 68
2, 44126, Control_c, 0, 10, 67
2, 44127, Note_on_c, 0, 67, 58
2, 44127, Control_c, 0, 10, 62
2, 44128, Note_on_c, 0, 62, 68
2, 44128, Control_c, 0, 10, 59
2, 44129, Note_on_c, 0, 59, 49
2, 44129, Control_c, 0, 10, 52
2, 44130, Note_on_c, 0, 52, 56
2, 44131, Control_c, 0, 10, 55
2, 44132, Note_on_c, 0, 55, 57
2, 44137, Control_c, 0, 64, 0
2, 44179, Control_c, 0, 64, 127
2, 44209, Note_on_c, 0, 59, 0
2, 44210, Note_on_c, 0, 62, 0
2, 44211, Note_on_c, 0, 74, 0
2, 44213, Note_on_c, 0, 52, 0
2, 44214, Note_on_c, 0, 55, 0
2, 44215, Note_on_c, 0, 67, 0
2, 44239, Note_on_c, 0, 79, 0
2, 44242, Control_c, 0, 10, 66
2, 44243, Note_on_c, 0, 74, 57
2, 44243, Note_on_c, 0, 59, 62
2, 44244, Control_c, 0, 10, 62
2, 44245, Note_on_c, 0, 62, 57
2, 44245, Control_c, 0, 10, 52
2, 44246, Note_on_c, 0, 52, 51
2, 44247, Control_c, 0, 10, 55
2, 44248, Note_on_c, 0, 55, 45
2, 44289, Note_on_c, 0, 74, 0
2, 44293, Note_on_c, 0, 55, 0
2, 44296, Note_on_c, 0, 52, 0
2, 44299, Note_on_c, 0, 62, 0
2, 44299, Control_c, 0, 10, 67
2, 44300, Note_on_c, 0, 67, 45
2, 44301, Note_on_c, 0, 59, 0
2, 44335, Note_on_c, 0, 67, 0
2, 44354, Control_c, 0, 10, 56
2, 44355, Note_on_c, 0, 56, 46
2, 44367, Control_c, 0, 10, 57
2, 44368, Note_on_c, 0, 57, 55
2, 44404, Note_on_c, 0, 57, 0
2, 44408, Note_on_c, 0, 56, 0
2, 44408, Control_c, 0, 10, 74
2, 44409, Note_on_c, 0, 74, 73
2, 44409, Control_c, 0, 64, 0
2, 44411, Control_c, 0, 10, 64
2, 44412, Note_on_c, 0, 64, 76
2, 44413, Control_c, 0, 10, 63
2, 44414, Note_on_c, 0, 67, 72
2, 44414, Note_on_c, 0, 59, 76
2, 44438, Control_c, 0, 10, 73
2, 44439, Note_on_c, 0, 73, 51
2, 44445, Note_on_c, 0, 74, 0
2, 44448, Note_on_c, 0, 73, 0
2, 44457, Note_on_c, 0, 64, 0
2, 44457, Note_on_c, 0, 67, 0
2, 44476, Control_c, 0, 10, 65
2, 44477, Note_on_c, 0, 58, 68
2, 44477, Note_on_c, 0, 73, 77
2, 44477, Control_c, 0, 10, 64
2, 44478, Note_on_c, 0, 64, 41
2, 44478, Control_c, 0, 10, 67
2, 44479, Note_on_c, 0, 67, 54
2, 44485, Note_on_c, 0, 59, 0
2, 44513, Note_on_c, 0, 64, 0
2, 44523, Note_on_c, 0, 58, 0
2, 44525, Note_on_c, 0, 67, 0
2, 44526, Note_on_c, 0, 73, 0
2, 44530, Control_c, 0, 10, 72
2, 44531, Note_on_c, 0, 72, 54
2, 44532, Control_c, 0, 10, 57
2, 44533, Note_on_c, 0, 57, 45
2, 44537, Control_c, 0, 10, 64
2, 44538, Note_on_c, 0, 64, 44
2, 44547, Note_on_c, 0, 72, 0
2, 44571, Control_c, 0, 64, 127
2, 44572, Note_on_c, 0, 64, 0
2, 44587, Note_on_c, 0, 57, 0
2, 44593, Control_c, 0, 10, 56
2, 44594, Note_on_c, 0, 56, 46
2, 44598, Control_c, 0, 10, 54
2, 44599, Note_on_c, 0, 54, 38
2, 44615, Note_on_c, 0, 56, 0
2, 44635, Note_on_c, 0, 54, 0
2, 44646, Control_c, 0, 64, 0
2, 44648, Control_c, 0, 10, 62
2, 44649, Note_on_c, 0, 57, 52
2, 44649, Note_on_c, 0, 67, 41
2, 44649, Control_c, 0, 10, 64
2, 44650, Note_on_c, 0, 64, 46
2, 44650, Control_c, 0, 10, 55
2, 44651, Note_on_c, 0, 55, 62
2, 44652, Control_c, 0, 10, 60
2, 44653, Note_on_c, 0, 60, 57
2, 44657, Control_c, 0, 10, 65
2, 44658, Note_on_c, 0, 65, 38
2, 44668, Note_on_c, 0, 65, 0
2, 44706, Control_c, 0, 64, 127
2, 44730, Control_c, 0, 64, 0
2, 44759, Control_c, 0, 64, 127
2, 44762, Note_on_c, 0, 57, 0
2, 44811, Note_on_c, 0, 67, 0
2, 44815, Note_on_c, 0, 60, 0
2, 44818, Note_on_c, 0, 64, 0
2, 44826, Control_c, 0, 10, 43
2, 44827, Note_on_c, 0, 43, 59
2, 44855, Control_c, 0, 64, 0
2, 44860, Note_on_c, 0, 55, 0
2, 44863, Control_c, 0, 64, 127
2, 44973, Control_c, 0, 10, 55
2, 44974, Note_on_c, 0, 55, 62
2, 44984, Note_on_c, 0, 55, 0
2, 44994, Control_c, 0, 64, 0
2, 45005, Note_on_c, 0, 55, 73
2, 45046, Note_on_c, 0, 55, 0
2, 45110, Note_on_c, 0, 43, 0
2, 45138, Note_on_c, 0, 55, 48
2, 45147, Note_on_c, 0, 55, 0
2, 45158, Note_on_c, 0, 55, 64
2, 45177, Note_on_c, 0, 55, 0
2, 45214, Control_c, 0, 10, 50
2, 45215, Note_on_c, 0, 50, 46
2, 45225, Note_on_c, 0, 50, 0
2, 45264, Control_c, 0, 10, 55
2, 45265, Note_on_c, 0, 55, 74
2, 45286, Note_on_c, 0, 55, 0
2, 45300, Note_on_c, 0, 55, 64
2, 45313, Note_on_c, 0, 55, 0
2, 45334, Control_c, 0, 10, 43
2, 45335, Note_on_c, 0, 43, 34
2, 45349, Note_on_c, 0, 43, 0
2, 45368, Control_c, 0, 10, 56
2, 45369, Note_on_c, 0, 56, 77
2, 45386, Note_on_c, 0, 56, 0
2, 45432, Note_on_c, 0, 56, 73
2, 45446, Note_on_c, 0, 56, 0
2, 45490, Note_on_c, 0, 56, 74
2, 45545, Note_on_c, 0, 56, 0
2, 45554, Control_c, 0, 10, 50
2, 45555, Note_on_c, 0, 50, 20
2, 45565, Note_on_c, 0, 50, 0
2, 45615, Control_c, 0, 10, 55
2, 45616, Note_on_c, 0, 55, 24
2, 45625, Note_on_c, 0, 55, 0
2, 45671, Control_c, 0, 10, 43
2, 45672, Note_on_c, 0, 43, 57
2, 45697, Note_on_c, 0, 43, 0
2, 45789, Control_c, 0, 10, 67
2, 45790, Note_on_c, 0, 67, 44
2, 45790, Control_c, 0, 10, 52
2, 45791, Note_on_c, 0, 52, 57
2, 45791, Control_c, 0, 10, 57
2, 45792, Note_on_c, 0, 57, 48
2, 45792, Control_c, 0, 10, 62
2, 45793, Note_on_c, 0, 62, 46
2, 45813, Note_on_c, 0, 57, 0
2, 45817, Note_on_c, 0, 52, 0
2, 45820, Note_on_c, 0, 62, 0
2, 45823, Note_on_c, 0, 67, 0
2, 45875, Control_c, 0, 64, 127
2, 45904, Control_c, 0, 10, 69
2, 45905, Note_on_c, 0, 69, 67
2, 45908, Control_c, 0, 10, 64
2, 45909, Note_on_c, 0, 64, 57
2, 45910, Control_c, 0, 10, 60
2, 45911, Note_on_c, 0, 60, 48
2, 45919, Note_on_c, 0, 60, 0
2, 45930, Note_on_c, 0, 64, 0
2, 45932, Note_on_c, 0, 69, 0
2, 45982, Control_c, 0, 10, 61
2, 45983, Note_on_c, 0, 61, 70
2, 45983, Control_c, 0, 10, 66
2, 45984, Note_on_c, 0, 66, 72
2, 45985, Control_c, 0, 10, 70
2, 45986, Note_on_c, 0, 70, 72
2, 45993, Control_c, 0, 64, 0
2, 46029, Control_c, 0, 64, 127
2, 46064, Note_on_c, 0, 61, 0
2, 46069, Note_on_c, 0, 66, 0
2, 46072, Note_on_c, 0, 70, 0
2, 46080, Control_c, 0, 64, 0
2, 46087, Control_c, 0, 64, 127
2, 46087, Control_c, 0, 10, 72
2, 46088, Note_on_c, 0, 72, 55
2, 46137, Note_on_c, 0, 72, 0
2, 46162, Control_c, 0, 64, 0
2, 46162, Control_c, 0, 10, 69
2, 46163, Note_on_c, 0, 69, 58
2, 46164, Control_c, 0, 10, 62
2, 46165, Note_on_c, 0, 60, 58
2, 46165, Note_on_c, 0, 65, 60
2, 46167, Control_c, 0, 10, 57
2, 46168, Note_on_c, 0, 57, 53
2, 46199, Control_c, 0, 64, 127
2, 46226, Note_on_c, 0, 57, 0
2, 46228, Note_on_c, 0, 60, 0
2, 46230, Note_on_c, 0, 65, 0
2, 46231, Note_on_c, 0, 69, 0
2, 46255, Control_c, 0, 10, 72
2, 46256, Note_on_c, 0, 72, 64
2, 46283, Note_on_c, 0, 72, 0
2, 46324, Control_c, 0, 64, 0
2, 46331, Control_c, 0, 10, 61
2, 46332, Note_on_c, 0, 59, 62
2, 46332, Note_on_c, 0, 63, 67
2, 46332, Control_c, 0, 10, 53
2, 46333, Note_on_c, 0, 53, 47
2, 46333, Control_c, 0, 10, 68
2, 46334, Note_on_c, 0, 68, 47
2, 46355, Control_c, 0, 64, 127
2, 46403, Note_on_c, 0, 63, 0
2, 46412, Note_on_c, 0, 59, 0
2, 46425, Note_on_c, 0, 68, 0
2, 46426, Note_on_c, 0, 53, 0
2, 46435, Control_c, 0, 10, 43
2, 46436, Note_on_c, 0, 43, 41
2, 46436, Control_c, 0, 10, 50
2, 46437, Note_on_c, 0, 50, 31
2, 46461, Note_on_c, 0, 50, 0
2, 46492, Control_c, 0, 64, 0
2, 46519, Control_c, 0, 10, 64
2, 46520, Note_on_c, 0, 67, 45
2, 46520, Note_on_c, 0, 62, 57
2, 46521, Control_c, 0, 10, 57
2, 46522, Note_on_c, 0, 57, 47
2, 46523, Note_on_c, 0, 43, 0
2, 46528, Control_c, 0, 10, 52
2, 46529, Note_on_c, 0, 52, 40
2, 46534, Note_on_c, 0, 57, 0
2, 46555, Note_on_c, 0, 52, 0
2, 46558, Note_on_c, 0, 62, 0
2, 46568, Note_on_c, 0, 67, 0
2, 46865, Control_c, 0, 10, 54
2, 46866, Note_on_c, 0, 54, 56
2, 46866, Control_c, 0, 10, 91
2, 46867, Note_on_c, 0, 91, 63
2, 46868, Control_c, 0, 10, 75
2, 46869, Note_on_c, 0, 64, 48
2, 46869, Note_on_c, 0, 86, 66
2, 46870, Control_c, 0, 10, 59
2, 46871, Note_on_c, 0, 59, 41
2, 46871, Control_c, 0, 64, 0
2, 46871, Control_c, 0, 10, 79
2, 46872, Note_on_c, 0, 79, 47
2, 46922, Control_c, 0, 64, 127
2, 46959, Note_on_c, 0, 59, 0
2, 46966, Note_on_c, 0, 64, 0
2, 46989, Note_on_c, 0, 54, 0
2, 47034, Control_c, 0, 10, 62
2, 47035, Control_c, 0, 64, 0
2, 47035, Note_on_c, 0, 62, 50
2, 47037, Control_c, 0, 10, 52
2, 47038, Note_on_c, 0, 52, 48
2, 47040, Control_c, 0, 10, 57
2, 47041, Note_on_c, 0, 57, 51
2, 47139, Control_c, 0, 64, 127
2, 47159, Note_on_c, 0, 86, 0
2, 47167, Note_on_c, 0, 91, 0
2, 47182, Note_on_c, 0, 79, 0
2, 47390, Control_c, 0, 64, 0
2, 47433, Note_on_c, 0, 52, 0
2, 47441, Note_on_c, 0, 57, 0
2, 47459, Note_on_c, 0, 62, 0
2, 47513, Control_c, 0, 10, 88
2, 47514, Note_on_c, 0, 88, 74
2, 47515, Control_c, 0, 10, 63
2, 47516, Note_on_c, 0, 63, 48
2, 47518, Control_c, 0, 10, 53
2, 47519, Note_on_c, 0, 53, 42
2, 47519, Control_c, 0, 10, 58
2, 47520, Note_on_c, 0, 58, 45
2, 47544, Control_c, 0, 10, 88
2, 47545, Note_on_c, 0, 88, 0
2, 47545, Note_on_c, 0, 88, 68
2, 47570, Note_on_c, 0, 88, 0
2, 47598, Control_c, 0, 10, 89
2, 47599, Note_on_c, 0, 89, 78
2, 47631, Note_on_c, 0, 89, 0
2, 47750, Note_on_c, 0, 53, 0
2, 47762, Note_on_c, 0, 58, 0
2, 47769, Note_on_c, 0, 63, 0
2, 47770, Note_on_c, 0, 89, 64
2, 47805, Note_on_c, 0, 89, 0
2, 47832, Control_c, 0, 10, 77
2, 47833, Note_on_c, 0, 77, 46
2, 47836, Control_c, 0, 10, 65
2, 47837, Note_on_c, 0, 65, 44
2, 47844, Note_on_c, 0, 77, 0
2, 47847, Note_on_c, 0, 65, 0
2, 47946, Control_c, 0, 10, 63
2, 47947, Note_on_c, 0, 63, 69
2, 47951, Control_c, 0, 10, 55
2, 47952, Note_on_c, 0, 53, 48
2, 47952, Note_on_c, 0, 58, 49
2, 47962, Note_on_c, 0, 53, 0
2, 47966, Note_on_c, 0, 63, 0
2, 47967, Note_on_c, 0, 58, 0
2, 48058, Control_c, 0, 10, 65
2, 48059, Note_on_c, 0, 65, 62
2, 48062, Control_c, 0, 10, 60
2, 48063, Note_on_c, 0, 60, 57
2, 48064, Control_c, 0, 10, 55
2, 48065, Note_on_c, 0, 55, 40
2, 48074, Note_on_c, 0, 60, 0
2, 48074, Note_on_c, 0, 65, 0
2, 48078, Note_on_c, 0, 55, 0
2, 48182, Control_c, 0, 10, 63
2, 48183, Note_on_c, 0, 63, 59
2, 48183, Control_c, 0, 10, 58
2, 48184, Note_on_c, 0, 58, 52
2, 48186, Control_c, 0, 10, 101
2, 48187, Note_on_c, 0, 101, 66
2, 48187, Control_c, 0, 10, 89
2, 48188, Note_on_c, 0, 89, 59
2, 48190, Control_c, 0, 10, 96
2, 48191, Note_on_c, 0, 96, 47
2, 48194, Note_on_c, 0, 63, 0
2, 48197, Note_on_c, 0, 89, 0
2, 48201, Note_on_c, 0, 96, 0
2, 48205, Note_on_c, 0, 101, 0
2, 48208, Note_on_c, 0, 58, 0
2, 48240, Control_c, 0, 10, 63
2, 48241, Note_on_c, 0, 63, 63
2, 48241, Control_c, 0, 10, 79
2, 48242, Note_on_c, 0, 101, 64
2, 48242, Note_on_c, 0, 58, 57
2, 48242, Control_c, 0, 10, 89
2, 48243, Note_on_c, 0, 89, 57
2, 48244, Control_c, 0, 10, 96
2, 48245, Note_on_c, 0, 96, 58
2, 48246, Control_c, 0, 10, 53
2, 48247, Note_on_c, 0, 53, 34
2, 48253, Note_on_c, 0, 89, 0
2, 48254, Note_on_c, 0, 96, 0
2, 48256, Note_on_c, 0, 63, 0
2, 48259, Note_on_c, 0, 53, 0
2, 48264, Note_on_c, 0, 101, 0
2, 48268, Note_on_c, 0, 58, 0
2, 48360, Control_c, 0, 10, 63
2, 48361, Note_on_c, 0, 63, 63
2, 48365, Control_c, 0, 10, 55
2, 48366, Note_on_c, 0, 53, 52
2, 48366, Note_on_c, 0, 58, 50
2, 48366, Control_c, 0, 10, 89
2, 48367, Note_on_c, 0, 89, 59
2, 48367, Control_c, 0, 10, 101
2, 48368, Note_on_c, 0, 101, 50
2, 48368, Control_c, 0, 10, 96
2, 48369, Note_on_c, 0, 96, 55
2, 48400, Note_on_c, 0, 53, 0
2, 48403, Note_on_c, 0, 89, 0
2, 48417, Control_c, 0, 64, 127
2, 48418, Note_on_c, 0, 58, 0
2, 48418, Note_on_c, 0, 96, 0
2, 48421, Note_on_c, 0, 63, 0
2, 48428, Note_on_c, 0, 101, 0
2, 48464, Control_c, 0, 64, 0
2, 48480, Control_c, 0, 10, 56
2, 48481, Note_on_c, 0, 56, 43
2, 48481, Control_c, 0, 10, 101
2, 48482, Note_on_c, 0, 101, 60
2, 48484, Control_c, 0, 10, 77
2, 48485, Note_on_c, 0, 65, 52
2, 48485, Note_on_c, 0, 89, 39
2, 48485, Control_c, 0, 10, 60
2, 48486, Note_on_c, 0, 60, 53
2, 48486, Note_on_c, 0, 61, 40
2, 48487, Control_c, 0, 10, 96
2, 48488, Note_on_c, 0, 96, 49
2, 48493, Control_c, 0, 64, 127
2, 48501, Note_on_c, 0, 96, 0
2, 48504, Note_on_c, 0, 89, 0
2, 48506, Note_on_c, 0, 65, 0
2, 48507, Note_on_c, 0, 60, 0
2, 48518, Note_on_c, 0, 61, 0
2, 48520, Note_on_c, 0, 56, 0
2, 48526, Note_on_c, 0, 101, 0
2, 48732, Control_c, 0, 10, 56
2, 48733, Note_on_c, 0, 56, 60
2, 48733, Control_c, 0, 10, 108
2, 48734, Note_on_c, 0, 108, 74
2, 48734, Control_c, 0, 10, 62
2, 48735, Note_on_c, 0, 60, 72
2, 48735, Note_on_c, 0, 65, 72
2, 48735, Control_c, 0, 10, 96
2, 48736, Note_on_c, 0, 96, 64
2, 48736, Control_c, 0, 10, 103
2, 48737, Note_on_c, 0, 103, 56
2, 48738, Control_c, 0, 10, 61
2, 48739, Note_on_c, 0, 61, 46
2, 48745, Note_on_c, 0, 96, 0
2, 48747, Note_on_c, 0, 103, 0
2, 48751, Note_on_c, 0, 108, 0
2, 48754, Note_on_c, 0, 60, 0
2, 48755, Note_on_c, 0, 65, 0
2, 48764, Control_c, 0, 10, 96
2, 48765, Note_on_c, 0, 96, 68
2, 48765, Control_c, 0, 10, 65
2, 48766, Note_on_c, 0, 65, 36
2, 48766, Control_c, 0, 10, 105
2, 48767, Note_on_c, 0, 103, 58
2, 48767, Note_on_c, 0, 108, 68
2, 48768, Control_c, 0, 10, 60
2, 48769, Note_on_c, 0, 60, 35
2, 48788, Note_on_c, 0, 108, 0
2, 48788, Note_on_c, 0, 103, 0
2, 48789, Note_on_c, 0, 65, 0
2, 48793, Note_on_c, 0, 96, 0
2, 48798, Note_on_c, 0, 60, 0
2, 48799, Note_on_c, 0, 61, 0
2, 48802, Control_c, 0, 64, 0
2, 48804, Note_on_c, 0, 56, 0
2, 48842, Control_c, 0, 10, 76
2, 48843, Note_on_c, 0, 93, 81
2, 48843, Note_on_c, 0, 60, 73
2, 48843, Note_on_c, 0, 105, 76
2, 48843, Note_on_c, 0, 65, 73
2, 48843, Note_on_c, 0, 61, 62
2, 48843, Control_c, 0, 10, 100
2, 48844, Note_on_c, 0, 100, 72
2, 48844, Control_c, 0, 10, 56
2, 48845, Note_on_c, 0, 56, 61
2, 48855, Note_on_c, 0, 93, 0
2, 48858, Note_on_c, 0, 100, 0
2, 48863, Note_on_c, 0, 105, 0
2, 48865, Note_on_c, 0, 65, 0
2, 48874, Control_c, 0, 64, 127
2, 48879, Control_c, 0, 10, 65
2, 48880, Note_on_c, 0, 65, 29
2, 48881, Control_c, 0, 10, 93
2, 48882, Note_on_c, 0, 93, 51
2, 48883, Control_c, 0, 10, 102
2, 48884, Note_on_c, 0, 105, 41
2, 48884, Note_on_c, 0, 100, 55
2, 48895, Note_on_c, 0, 93, 0
2, 48902, Note_on_c, 0, 105, 0
2, 48903, Note_on_c, 0, 65, 0
2, 48907, Note_on_c, 0, 60, 0
2, 48909, Note_on_c, 0, 100, 0
2, 48915, Note_on_c, 0, 61, 0
2, 48922, Note_on_c, 0, 56, 0
2, 48930, Control_c, 0, 64, 0
2, 48935, Control_c, 0, 10, 85
2, 48936, Note_on_c, 0, 64, 72
2, 48936, Note_on_c, 0, 106, 78
2, 48936, Control_c, 0, 10, 94
2, 48937, Note_on_c, 0, 94, 73
2, 48938, Control_c, 0, 10, 71
2, 48939, Note_on_c, 0, 61, 34
2, 48939, Note_on_c, 0, 99, 62
2, 48939, Note_on_c, 0, 55, 70
2, 48949, Note_on_c, 0, 99, 0
2, 48952, Note_on_c, 0, 94, 0
2, 48958, Note_on_c, 0, 106, 0
2, 48972, Control_c, 0, 64, 127
2, 48975, Control_c, 0, 10, 100
2, 48976, Note_on_c, 0, 94, 51
2, 48976, Note_on_c, 0, 106, 57
2, 48984, Control_c, 0, 10, 99
2, 48985, Note_on_c, 0, 99, 35
2, 48995, Note_on_c, 0, 99, 0
2, 48996, Note_on_c, 0, 64, 0
2, 48997, Note_on_c, 0, 106, 0
2, 48999, Note_on_c, 0, 94, 0
2, 49001, Note_on_c, 0, 61, 0
2, 49005, Note_on_c, 0, 55, 0
2, 49014, Control_c, 0, 64, 0
2, 49022, Control_c, 0, 10, 55
2, 49023, Note_on_c, 0, 55, 70
2, 49023, Control_c, 0, 10, 61
2, 49024, Note_on_c, 0, 61, 56
2, 49024, Control_c, 0, 10, 83
2, 49025, Note_on_c, 0, 103, 68
2, 49025, Note_on_c, 0, 64, 54
2, 49026, Control_c, 0, 10, 91
2, 49027, Note_on_c, 0, 91, 66
2, 49027, Control_c, 0, 10, 102
2, 49028, Note_on_c, 0, 102, 46
2, 49035, Note_on_c, 0, 102, 0
2, 49040, Note_on_c, 0, 91, 0
2, 49049, Note_on_c, 0, 103, 0
2, 49057, Control_c, 0, 10, 103
2, 49058, Note_on_c, 0, 103, 39
2, 49059, Control_c, 0, 10, 91
2, 49060, Note_on_c, 0, 91, 59
2, 49063, Control_c, 0, 64, 127
2, 49082, Note_on_c, 0, 103, 0
2, 49085, Note_on_c, 0, 91, 0
2, 49090, Note_on_c, 0, 64, 0
2, 49095, Note_on_c, 0, 55, 0
2, 49096, Note_on_c, 0, 61, 0
2, 49112, Control_c, 0, 10, 55
2, 49113, Note_on_c, 0, 55, 66
2, 49113, Control_c, 0, 10, 62
2, 49114, Note_on_c, 0, 64, 56
2, 49114, Note_on_c, 0, 61, 57
2, 49115, Control_c, 0, 64, 0
2, 49115, Control_c, 0, 10, 94
2, 49116, Note_on_c, 0, 100, 51
2, 49116, Note_on_c, 0, 88, 74
2, 49116, Control_c, 0, 10, 98
2, 49117, Note_on_c, 0, 98, 71
2, 49120, Control_c, 0, 10, 94
2, 49121, Note_on_c, 0, 94, 36
2, 49130, Note_on_c, 0, 94, 0
2, 49132, Note_on_c, 0, 88, 0
2, 49133, Note_on_c, 0, 98, 0
2, 49135, Note_on_c, 0, 100, 0
2, 49139, Note_on_c, 0, 64, 0
2, 49153, Control_c, 0, 10, 76
2, 49154, Note_on_c, 0, 64, 36
2, 49154, Note_on_c, 0, 88, 68
2, 49155, Control_c, 0, 10, 100
2, 49156, Note_on_c, 0, 100, 44
2, 49158, Control_c, 0, 10, 98
2, 49159, Note_on_c, 0, 98, 47
2, 49163, Control_c, 0, 64, 127
2, 49164, Control_c, 0, 10, 94
2, 49165, Note_on_c, 0, 94, 30
2, 49171, Note_on_c, 0, 98, 0
2, 49174, Note_on_c, 0, 94, 0
2, 49175, Note_on_c, 0, 100, 0
2, 49176, Note_on_c, 0, 88, 0
2, 49178, Note_on_c, 0, 64, 0
2, 49183, Note_on_c, 0, 55, 0
2, 49184, Note_on_c, 0, 61, 0
2, 49197, Control_c, 0, 64, 0
2, 49204, Control_c, 0, 10, 79
2, 49205, Note_on_c, 0, 55, 64
2, 49205, Note_on_c, 0, 97, 73
2, 49205, Note_on_c, 0, 85, 75
2, 49205, Control_c, 0, 10, 64
2, 49206, Note_on_c, 0, 64, 46
2, 49206, Control_c, 0, 10, 61
2, 49207, Note_on_c, 0, 61, 52
2, 49229, Note_on_c, 0, 85, 0
2, 49230, Note_on_c, 0, 64, 0
2, 49233, Note_on_c, 0, 97, 0
2, 49240, Control_c, 0, 64, 127
2, 49242, Control_c, 0, 10, 85
2, 49243, Note_on_c, 0, 85, 57
2, 49244, Control_c, 0, 10, 97
2, 49245, Note_on_c, 0, 97, 47
2, 49265, Note_on_c, 0, 85, 0
2, 49266, Note_on_c, 0, 97, 0
2, 49270, Note_on_c, 0, 55, 0
2, 49272, Note_on_c, 0, 61, 0
2, 49283, Control_c, 0, 64, 0
2, 49289, Control_c, 0, 10, 94
2, 49290, Note_on_c, 0, 94, 60
2, 49290, Control_c, 0, 10, 58
2, 49291, Note_on_c, 0, 55, 75
2, 49291, Note_on_c, 0, 61, 64
2, 49292, Control_c, 0, 10, 73
2, 49293, Note_on_c, 0, 64, 54
2, 49293, Note_on_c, 0, 82, 71
2, 49301, Control_c, 0, 10, 92
2, 49302, Note_on_c, 0, 92, 32
2, 49310, Note_on_c, 0, 94, 0
2, 49311, Note_on_c, 0, 92, 0
2, 49315, Note_on_c, 0, 82, 0
2, 49331, Control_c, 0, 10, 88
2, 49332, Note_on_c, 0, 94, 50
2, 49332, Note_on_c, 0, 82, 62
2, 49335, Control_c, 0, 64, 127
2, 49348, Note_on_c, 0, 64, 0
2, 49353, Note_on_c, 0, 55, 0
2, 49357, Note_on_c, 0, 82, 0
2, 49358, Note_on_c, 0, 94, 0
2, 49361, Note_on_c, 0, 61, 0
2, 49381, Control_c, 0, 10, 80
2, 49382, Note_on_c, 0, 63, 85
2, 49382, Note_on_c, 0, 96, 73
2, 49382, Note_on_c, 0, 83, 60
2, 49382, Control_c, 0, 10, 84
2, 49383, Note_on_c, 0, 84, 69
2, 49383, Control_c, 0, 64, 0
2, 49384, Control_c, 0, 10, 95
2, 49385, Note_on_c, 0, 95, 50
2, 49387, Control_c, 0, 10, 53
2, 49388, Note_on_c, 0, 53, 57
2, 49388, Control_c, 0, 10, 94
2, 49389, Note_on_c, 0, 94, 19
2, 49392, Note_on_c, 0, 83, 0
2, 49395, Note_on_c, 0, 95, 0
2, 49397, Note_on_c, 0, 84, 0
2, 49398, Note_on_c, 0, 94, 0
2, 49399, Note_on_c, 0, 96, 0
2, 49410, Note_on_c, 0, 63, 0
2, 49417, Control_c, 0, 10, 84
2, 49418, Note_on_c, 0, 84, 73
2, 49419, Note_on_c, 0, 53, 0
2, 49419, Control_c, 0, 10, 96
2, 49420, Note_on_c, 0, 96, 75
2, 49429, Control_c, 0, 64, 127
2, 49439, Note_on_c, 0, 84, 0
2, 49440, Note_on_c, 0, 96, 0
2, 49453, Control_c, 0, 64, 0
2, 49459, Control_c, 0, 10, 63
2, 49460, Note_on_c, 0, 63, 78
2, 49462, Control_c, 0, 10, 53
2, 49463, Note_on_c, 0, 53, 67
2, 49463, Control_c, 0, 10, 58
2, 49464, Note_on_c, 0, 58, 65
2, 49467, Control_c, 0, 10, 79
2, 49468, Note_on_c, 0, 79, 68
2, 49470, Control_c, 0, 10, 93
2, 49471, Note_on_c, 0, 93, 36
2, 49472, Control_c, 0, 10, 86
2, 49473, Note_on_c, 0, 81, 59
2, 49473, Note_on_c, 0, 91, 53
2, 49482, Note_on_c, 0, 81, 0
2, 49487, Note_on_c, 0, 93, 0
2, 49490, Note_on_c, 0, 91, 0
2, 49491, Note_on_c, 0, 79, 0
2, 49513, Control_c, 0, 64, 127
2, 49524, Note_on_c, 0, 53, 0
2, 49534, Note_on_c, 0, 58, 0
2, 49537, Note_on_c, 0, 63, 0
2, 49539, Control_c, 0, 64, 0
2, 49556, Control_c, 0, 10, 88
2, 49557, Note_on_c, 0, 94, 81
2, 49557, Note_on_c, 0, 82, 76
2, 49560, Control_c, 0, 10, 65
2, 49561, Note_on_c, 0, 65, 67
2, 49562, Control_c, 0, 10, 60
2, 49563, Note_on_c, 0, 60, 68
2, 49563, Control_c, 0, 10, 55
2, 49564, Note_on_c, 0, 55, 64
2, 49579, Control_c, 0, 10, 92
2, 49580, Note_on_c, 0, 92, 15
2, 49595, Note_on_c, 0, 94, 0
2, 49600, Note_on_c, 0, 82, 0
2, 49603, Note_on_c, 0, 92, 0
2, 49608, Note_on_c, 0, 65, 0
2, 49611, Note_on_c, 0, 55, 0
2, 49615, Note_on_c, 0, 60, 0
2, 49637, Control_c, 0, 10, 63
2, 49638, Note_on_c, 0, 63, 70
2, 49640, Control_c, 0, 10, 58
2, 49641, Note_on_c, 0, 58, 57
2, 49641, Control_c, 0, 10, 87
2, 49642, Note_on_c, 0, 87, 30
2, 49648, Note_on_c, 0, 63, 0
2, 49651, Note_on_c, 0, 58, 0
2, 49654, Note_on_c, 0, 87, 0
2, 49883, Control_c, 0, 64, 127
2, 49894, Control_c, 0, 64, 0
2, 49917, Control_c, 0, 10, 63
2, 49918, Note_on_c, 0, 63, 71
2, 49918, Control_c, 0, 10, 58
2, 49919, Note_on_c, 0, 58, 63
2, 49926, Control_c, 0, 10, 53
2, 49927, Note_on_c, 0, 53, 39
2, 49934, Note_on_c, 0, 63, 0
2, 49937, Note_on_c, 0, 53, 0
2, 49944, Note_on_c, 0, 58, 0
2, 50077, Control_c, 0, 64, 127
2, 50115, Control_c, 0, 10, 60
2, 50116, Note_on_c, 0, 63, 74
2, 50116, Note_on_c, 0, 58, 69
2, 50121, Control_c, 0, 10, 53
2, 50122, Note_on_c, 0, 53, 47
2, 50127, Control_c, 0, 64, 0
2, 50133, Note_on_c, 0, 53, 0
2, 50134, Note_on_c, 0, 63, 0
2, 50146, Note_on_c, 0, 58, 0
2, 50230, Control_c, 0, 64, 127
2, 50263, Control_c, 0, 64, 0
2, 50278, Control_c, 0, 10, 84
2, 50279, Note_on_c, 0, 84, 88
2, 50279, Control_c, 0, 10, 72
2, 50280, Note_on_c, 0, 72, 81
2, 50280, Control_c, 0, 10, 77
2, 50281, Note_on_c, 0, 77, 75
2, 50281, Control_c, 0, 10, 62
2, 50282, Note_on_c, 0, 62, 80
2, 50282, Control_c, 0, 10, 59
2, 50283, Note_on_c, 0, 58, 59
2, 50283, Note_on_c, 0, 60, 72
2, 50286, Control_c, 0, 10, 81
2, 50287, Note_on_c, 0, 81, 48
2, 50300, Note_on_c, 0, 81, 0
2, 50325, Note_on_c, 0, 72, 0
2, 50327, Note_on_c, 0, 62, 0
2, 50328, Note_on_c, 0, 77, 0
2, 50331, Note_on_c, 0, 84, 0
2, 50333, Note_on_c, 0, 60, 0
2, 50338, Note_on_c, 0, 58, 0
2, 50352, Control_c, 0, 10, 84
2, 50353, Note_on_c, 0, 84, 78
2, 50354, Control_c, 0, 10, 70
2, 50355, Note_on_c, 0, 72, 73
2, 50355, Note_on_c, 0, 77, 73
2, 50355, Note_on_c, 0, 62, 74
2, 50355, Control_c, 0, 10, 60
2, 50356, Note_on_c, 0, 60, 79
2, 50356, Control_c, 0, 10, 69
2, 50357, Note_on_c, 0, 81, 66
2, 50357, Note_on_c, 0, 58, 73
2, 50414, Control_c, 0, 64, 127
2, 50500, Note_on_c, 0, 84, 0
2, 50504, Note_on_c, 0, 81, 0
2, 50509, Note_on_c, 0, 77, 0
2, 50512, Note_on_c, 0, 72, 0
2, 50566, Note_on_c, 0, 60, 0
2, 50575, Note_on_c, 0, 62, 0
2, 50579, Note_on_c, 0, 58, 0
2, 50639, Control_c, 0, 64, 0
2, 50647, Control_c, 0, 10, 58
2, 50648, Note_on_c, 0, 58, 76
2, 50648, Control_c, 0, 10, 72
2, 50649, Note_on_c, 0, 72, 90
2, 50651, Control_c, 0, 10, 63
2, 50652, Note_on_c, 0, 60, 70
2, 50652, Note_on_c, 0, 69, 88
2, 50652, Note_on_c, 0, 62, 79
2, 50653, Control_c, 0, 10, 65
2, 50654, Note_on_c, 0, 65, 80
2, 50658, Control_c, 0, 10, 67
2, 50659, Note_on_c, 0, 67, 61
2, 50668, Note_on_c, 0, 67, 0
2, 50693, Note_on_c, 0, 62, 0
2, 50697, Control_c, 0, 64, 127
2, 50701, Note_on_c, 0, 72, 0
2, 50714, Control_c, 0, 10, 74
2, 50715, Note_on_c, 0, 74, 80
2, 50719, Control_c, 0, 10, 62
2, 50720, Note_on_c, 0, 62, 52
2, 50733, Note_on_c, 0, 60, 0
2, 50737, Control_c, 0, 64, 0
2, 50746, Note_on_c, 0, 65, 0
2, 50755, Note_on_c, 0, 69, 0
2, 50763, Note_on_c, 0, 74, 0
2, 50770, Control_c, 0, 10, 72
2, 50771, Note_on_c, 0, 72, 57
2, 50772, Note_on_c, 0, 62, 0
2, 50773, Control_c, 0, 10, 62
2, 50774, Note_on_c, 0, 65, 40
2, 50774, Note_on_c, 0, 60, 53
2, 50782, Control_c, 0, 64, 127
2, 50785, Note_on_c, 0, 60, 0
2, 50786, Note_on_c, 0, 65, 0
2, 50795, Note_on_c, 0, 72, 0
2, 50813, Note_on_c, 0, 58, 0
2, 50830, Control_c, 0, 10, 75
2, 50831, Note_on_c, 0, 75, 85
2, 50831, Control_c, 0, 10, 65
2, 50832, Note_on_c, 0, 63, 86
2, 50832, Note_on_c, 0, 68, 85
2, 50832, Control_c, 0, 10, 68
2, 50833, Note_on_c, 0, 64, 84
2, 50833, Note_on_c, 0, 72, 77
2, 50840, Control_c, 0, 64, 0
2, 50911, Control_c, 0, 64, 127
2, 50938, Note_on_c, 0, 72, 0
2, 50940, Note_on_c, 0, 64, 0
2, 50947, Control_c, 0, 10, 64
2, 50948, Note_on_c, 0, 64, 32
2, 50948, Control_c, 0, 10, 73
2, 50949, Note_on_c, 0, 73, 68
2, 50951, Control_c, 0, 10, 61
2, 50952, Note_on_c, 0, 61, 67
2, 50953, Control_c, 0, 64, 0
2, 50962, Note_on_c, 0, 75, 0
2, 50968, Note_on_c, 0, 63, 0
2, 50985, Note_on_c, 0, 61, 0
2, 50990, Control_c, 0, 64, 127
2, 50996, Note_on_c, 0, 64, 0
2, 51039, Note_on_c, 0, 68, 0
2, 51058, Note_on_c, 0, 73, 0
2, 51069, Control_c, 0, 10, 58
2, 51070, Note_on_c, 0, 58, 54
2, 51086, Note_on_c, 0, 58, 0
2, 51109, Control_c, 0, 64, 0
2, 51115, Control_c, 0, 10, 75
2, 51116, Note_on_c, 0, 75, 68
2, 51117, Control_c, 0, 10, 63
2, 51118, Note_on_c, 0, 63, 74
2, 51118, Control_c, 0, 10, 68
2, 51119, Note_on_c, 0, 68, 72
2, 51119, Control_c, 0, 10, 61
2, 51120, Note_on_c, 0, 58, 69
2, 51120, Note_on_c, 0, 64, 73
2, 51121, Control_c, 0, 10, 72
2, 51122, Note_on_c, 0, 72, 59
2, 51166, Note_on_c, 0, 75, 0
2, 51168, Note_on_c, 0, 64, 0
2, 51168, Note_on_c, 0, 58, 0
2, 51170, Note_on_c, 0, 63, 0
2, 51171, Note_on_c, 0, 72, 0
2, 51171, Note_on_c, 0, 68, 0
2, 51240, Control_c, 0, 10, 69
2, 51241, Note_on_c, 0, 75, 49
2, 51241, Note_on_c, 0, 63, 59
2, 51243, Control_c, 0, 10, 68
2, 51244, Note_on_c, 0, 68, 56
2, 51244, Control_c, 0, 10, 58
2, 51245, Note_on_c, 0, 58, 64
2, 51245, Control_c, 0, 10, 64
2, 51246, Note_on_c, 0, 64, 50
2, 51246, Control_c, 0, 10, 72
2, 51247, Note_on_c, 0, 72, 43
2, 51278, Note_on_c, 0, 64, 0
2, 51279, Control_c, 0, 64, 127
2, 51285, Note_on_c, 0, 72, 0
2, 51295, Note_on_c, 0, 75, 0
2, 51304, Note_on_c, 0, 63, 0
2, 51315, Note_on_c, 0, 68, 0
2, 51320, Note_on_c, 0, 58, 0
2, 51350, Control_c, 0, 64, 0
2, 51363, Note_on_c, 0, 72, 58
2, 51363, Control_c, 0, 10, 59
2, 51364, Note_on_c, 0, 57, 57
2, 51364, Note_on_c, 0, 62, 55
2, 51364, Control_c, 0, 10, 67
2, 51365, Note_on_c, 0, 67, 49
2, 51391, Note_on_c, 0, 62, 0
2, 51391, Note_on_c, 0, 72, 0
2, 51398, Note_on_c, 0, 67, 0
2, 51423, Control_c, 0, 64, 127
2, 51426, Control_c, 0, 10, 61
2, 51427, Note_on_c, 0, 57, 0
2, 51427, Note_on_c, 0, 61, 50
2, 51427, Control_c, 0, 10, 71
2, 51428, Note_on_c, 0, 71, 35
2, 51430, Control_c, 0, 10, 56
2, 51431, Note_on_c, 0, 56, 42
2, 51434, Control_c, 0, 10, 66
2, 51435, Note_on_c, 0, 66, 35
2, 51447, Note_on_c, 0, 66, 0
2, 51458, Note_on_c, 0, 61, 0
2, 51459, Control_c, 0, 64, 0
2, 51463, Note_on_c, 0, 71, 0
2, 51472, Note_on_c, 0, 56, 0
2, 51487, Control_c, 0, 10, 62
2, 51488, Note_on_c, 0, 62, 42
2, 51488, Control_c, 0, 10, 64
2, 51489, Note_on_c, 0, 72, 46
2, 51489, Note_on_c, 0, 57, 37
2, 51497, Control_c, 0, 10, 67
2, 51498, Note_on_c, 0, 67, 24
2, 51502, Note_on_c, 0, 62, 0
2, 51510, Note_on_c, 0, 67, 0
2, 51511, Note_on_c, 0, 72, 0
2, 51524, Note_on_c, 0, 57, 0
2, 51545, Control_c, 0, 10, 63
2, 51546, Note_on_c, 0, 63, 69
2, 51547, Control_c, 0, 10, 73
2, 51548, Note_on_c, 0, 73, 71
2, 51552, Control_c, 0, 10, 68
2, 51553, Note_on_c, 0, 68, 69
2, 51553, Control_c, 0, 10, 58
2, 51554, Note_on_c, 0, 58, 56
2, 51571, Note_on_c, 0, 63, 0
2, 51574, Control_c, 0, 10, 64
2, 51575, Note_on_c, 0, 64, 25
2, 51587, Note_on_c, 0, 73, 0
2, 51588, Note_on_c, 0, 64, 0
2, 51591, Note_on_c, 0, 68, 0
2, 51596, Note_on_c, 0, 58, 0
2, 51609, Control_c, 0, 10, 72
2, 51610, Note_on_c, 0, 72, 52
2, 51611, Control_c, 0, 10, 64
2, 51612, Note_on_c, 0, 64, 32
2, 51614, Control_c, 0, 10, 57
2, 51615, Note_on_c, 0, 57, 37
2, 51615, Control_c, 0, 10, 67
2, 51616, Note_on_c, 0, 67, 44
2, 51647, Control_c, 0, 64, 127
2, 51657, Note_on_c, 0, 72, 0
2, 51658, Note_on_c, 0, 64, 0
2, 51658, Note_on_c, 0, 67, 0
2, 51697, Control_c, 0, 64, 0
2, 51702, Note_on_c, 0, 57, 0
2, 51722, Control_c, 0, 10, 66
2, 51723, Note_on_c, 0, 66, 46
2, 51723, Control_c, 0, 10, 62
2, 51724, Note_on_c, 0, 56, 37
2, 51724, Note_on_c, 0, 61, 33
2, 51724, Note_on_c, 0, 71, 30
2, 51737, Control_c, 0, 64, 127
2, 51761, Note_on_c, 0, 61, 0
2, 51764, Note_on_c, 0, 71, 0
2, 51768, Note_on_c, 0, 66, 0
2, 51790, Control_c, 0, 64, 0
2, 51794, Control_c, 0, 10, 72
2, 51795, Note_on_c, 0, 72, 58
2, 51795, Control_c, 0, 10, 62
2, 51796, Note_on_c, 0, 62, 46
2, 51797, Note_on_c, 0, 57, 58
2, 51797, Note_on_c, 0, 67, 46
2, 51806, Note_on_c, 0, 56, 0
2, 51833, Control_c, 0, 64, 127
2, 51852, Note_on_c, 0, 57, 0
2, 51912, Control_c, 0, 10, 57
2, 51913, Note_on_c, 0, 57, 78
2, 51918, Note_on_c, 0, 67, 0
2, 51927, Control_c, 0, 64, 0
2, 51933, Note_on_c, 0, 72, 0
2, 51938, Note_on_c, 0, 62, 0
2, 51941, Control_c, 0, 64, 127
2, 52043, Note_on_c, 0, 57, 0
2, 52323, Control_c, 0, 10, 59
2, 52324, Note_on_c, 0, 59, 62
2, 52324, Control_c, 0, 64, 0
2, 52326, Control_c, 0, 10, 45
2, 52327, Note_on_c, 0, 45, 32
2, 52341, Note_on_c, 0, 45, 0
2, 52354, Note_on_c, 0, 59, 0
2, 52363, Control_c, 0, 10, 60
2, 52364, Note_on_c, 0, 60, 68
2, 52401, Note_on_c, 0, 60, 0
2, 52414, Control_c, 0, 10, 67
2, 52415, Note_on_c, 0, 67, 36
2, 52419, Control_c, 0, 10, 65
2, 52420, Note_on_c, 0, 65, 32
2, 52425, Note_on_c, 0, 67, 0
2, 52431, Note_on_c, 0, 65, 0
2, 52472, Control_c, 0, 10, 71
2, 52473, Note_on_c, 0, 71, 77
2, 52497, Note_on_c, 0, 71, 0
2, 52512, Control_c, 0, 10, 72
2, 52513, Note_on_c, 0, 72, 77
2, 52543, Note_on_c, 0, 72, 0
2, 52557, Control_c, 0, 10, 79
2, 52558, Note_on_c, 0, 79, 36
2, 52559, Control_c, 0, 10, 77
2, 52560, Note_on_c, 0, 77, 39
2, 52570, Note_on_c, 0, 79, 0
2, 52573, Note_on_c, 0, 77, 0
2, 52614, Control_c, 0, 10, 83
2, 52615, Note_on_c, 0, 83, 83
2, 52620, Control_c, 0, 10, 64
2, 52621, Note_on_c, 0, 64, 53
2, 52633, Control_c, 0, 10, 60
2, 52634, Note_on_c, 0, 60, 47
2, 52634, Note_on_c, 0, 60, 0
2, 52637, Note_on_c, 0, 64, 0
2, 52642, Note_on_c, 0, 83, 0
2, 52650, Control_c, 0, 10, 84
2, 52651, Note_on_c, 0, 84, 81
2, 52695, Control_c, 0, 10, 55
2, 52696, Note_on_c, 0, 84, 0
2, 52696, Note_on_c, 0, 55, 58
2, 52696, Control_c, 0, 10, 62
2, 52697, Note_on_c, 0, 64, 53
2, 52697, Note_on_c, 0, 60, 64
2, 52697, Control_c, 0, 10, 88
2, 52698, Note_on_c, 0, 88, 83
2, 52698, Control_c, 0, 10, 59
2, 52699, Note_on_c, 0, 59, 53
2, 52701, Control_c, 0, 10, 84
2, 52702, Note_on_c, 0, 84, 34
2, 52711, Note_on_c, 0, 84, 0
2, 52737, Note_on_c, 0, 88, 0
2, 52753, Control_c, 0, 10, 91
2, 52754, Note_on_c, 0, 91, 87
2, 52781, Note_on_c, 0, 59, 0
2, 52786, Note_on_c, 0, 64, 0
2, 52786, Note_on_c, 0, 55, 0
2, 52786, Note_on_c, 0, 91, 0
2, 52787, Note_on_c, 0, 60, 0
2, 52810, Control_c, 0, 10, 60
2, 52811, Note_on_c, 0, 60, 64
2, 52812, Control_c, 0, 10, 65
2, 52813, Note_on_c, 0, 65, 42
2, 52814, Control_c, 0, 10, 92
2, 52815, Note_on_c, 0, 92, 47
2, 52815, Control_c, 0, 10, 72
2, 52816, Note_on_c, 0, 54, 63
2, 52816, Note_on_c, 0, 90, 61
2, 52817, Control_c, 0, 10, 64
2, 52818, Note_on_c, 0, 64, 42
2, 52827, Control_c, 0, 10, 91
2, 52828, Note_on_c, 0, 64, 0
2, 52828, Note_on_c, 0, 92, 0
2, 52828, Note_on_c, 0, 91, 30
2, 52837, Note_on_c, 0, 91, 0
2, 52923, Control_c, 0, 64, 127
2, 52957, Note_on_c, 0, 65, 0
2, 52973, Note_on_c, 0, 60, 0
2, 52977, Note_on_c, 0, 54, 0
2, 52995, Note_on_c, 0, 90, 0
2, 52999, Control_c, 0, 10, 93
2, 53000, Note_on_c, 0, 93, 65
2, 53000, Control_c, 0, 10, 64
2, 53001, Note_on_c, 0, 64, 60
2, 53001, Control_c, 0, 10, 67
2, 53002, Note_on_c, 0, 54, 54
2, 53002, Note_on_c, 0, 81, 66
2, 53002, Control_c, 0, 10, 60
2, 53003, Note_on_c, 0, 60, 58
2, 53018, Control_c, 0, 64, 0
2, 53052, Control_c, 0, 64, 127
2, 53056, Note_on_c, 0, 81, 0
2, 53069, Note_on_c, 0, 93, 0
2, 53083, Note_on_c, 0, 64, 0
2, 53086, Note_on_c, 0, 60, 0
2, 53088, Note_on_c, 0, 54, 0
2, 53109, Control_c, 0, 10, 96
2, 53110, Note_on_c, 0, 96, 78
2, 53110, Control_c, 0, 10, 54
2, 53111, Note_on_c, 0, 54, 56
2, 53112, Control_c, 0, 10, 62
2, 53113, Note_on_c, 0, 60, 61
2, 53113, Note_on_c, 0, 64, 60
2, 53114, Control_c, 0, 10, 84
2, 53115, Note_on_c, 0, 84, 63
2, 53126, Control_c, 0, 64, 0
2, 53159, Control_c, 0, 64, 127
2, 53193, Note_on_c, 0, 54, 0
2, 53226, Control_c, 0, 10, 54
2, 53227, Note_on_c, 0, 54, 37
2, 53236, Note_on_c, 0, 60, 0
2, 53243, Note_on_c, 0, 64, 0
2, 53244, Note_on_c, 0, 54, 0
2, 53286, Control_c, 0, 10, 61
2, 53287, Note_on_c, 0, 65, 71
2, 53287, Note_on_c, 0, 58, 51
2, 53288, Control_c, 0, 64, 0
2, 53289, Control_c, 0, 10, 54
2, 53290, Note_on_c, 0, 54, 35
2, 53290, Control_c, 0, 10, 61
2, 53291, Note_on_c, 0, 61, 43
2, 53310, Note_on_c, 0, 65, 0
2, 53313, Note_on_c, 0, 54, 0
2, 53318, Note_on_c, 0, 61, 0
2, 53327, Note_on_c, 0, 58, 0
2, 53407, Note_on_c, 0, 61, 45
2, 53407, Control_c, 0, 10, 65
2, 53408, Note_on_c, 0, 65, 49
2, 53408, Control_c, 0, 10, 58
2, 53409, Note_on_c, 0, 58, 39
2, 53413, Control_c, 0, 10, 54
2, 53414, Note_on_c, 0, 54, 30
2, 53445, Note_on_c, 0, 96, 0
2, 53446, Control_c, 0, 64, 127
2, 53450, Note_on_c, 0, 84, 0
2, 53455, Note_on_c, 0, 65, 0
2, 53456, Note_on_c, 0, 54, 0
2, 53464, Note_on_c, 0, 61, 0
2, 53472, Note_on_c, 0, 58, 0
2, 53483, Control_c, 0, 10, 65
2, 53484, Control_c, 0, 64, 0
2, 53484, Note_on_c, 0, 65, 62
2, 53486, Control_c, 0, 10, 60
2, 53487, Note_on_c, 0, 60, 70
2, 53488, Control_c, 0, 10, 54
2, 53489, Note_on_c, 0, 54, 53
2, 53535, Control_c, 0, 64, 127
2, 53590, Control_c, 0, 10, 100
2, 53591, Note_on_c, 0, 100, 82
2, 53591, Control_c, 0, 10, 93
2, 53592, Note_on_c, 0, 93, 91
2, 53634, Note_on_c, 0, 93, 0
2, 53635, Note_on_c, 0, 100, 0
2, 53641, Note_on_c, 0, 65, 0
2, 53651, Control_c, 0, 10, 92
2, 53652, Note_on_c, 0, 96, 63
2, 53652, Note_on_c, 0, 89, 44
2, 53667, Note_on_c, 0, 60, 0
2, 53682, Note_on_c, 0, 54, 0
2, 53693, Note_on_c, 0, 89, 0
2, 53701, Note_on_c, 0, 96, 0
2, 53751, Control_c, 0, 64, 0
2, 53753, Control_c, 0, 10, 58
2, 53754, Note_on_c, 0, 64, 55
2, 53754, Note_on_c, 0, 53, 50
2, 53754, Control_c, 0, 10, 60
2, 53755, Note_on_c, 0, 60, 53
2, 53755, Control_c, 0, 10, 99
2, 53756, Note_on_c, 0, 96, 80
2, 53756, Note_on_c, 0, 103, 78
2, 53757, Control_c, 0, 10, 57
2, 53758, Note_on_c, 0, 57, 49
2, 53812, Note_on_c, 0, 96, 0
2, 53814, Note_on_c, 0, 103, 0
2, 53827, Control_c, 0, 10, 100
2, 53828, Note_on_c, 0, 100, 44
2, 53833, Control_c, 0, 64, 127
2, 53833, Control_c, 0, 10, 91
2, 53834, Note_on_c, 0, 91, 41
2, 53853, Note_on_c, 0, 91, 0
2, 53856, Note_on_c, 0, 100, 0
2, 53857, Note_on_c, 0, 60, 0
2, 53862, Note_on_c, 0, 64, 0
2, 53876, Note_on_c, 0, 57, 0
2, 53880, Note_on_c, 0, 53, 0
2, 53928, Control_c, 0, 64, 0
2, 53936, Control_c, 0, 10, 106
2, 53937, Note_on_c, 0, 106, 75
2, 53939, Control_c, 0, 10, 56
2, 53940, Note_on_c, 0, 53, 45
2, 53940, Note_on_c, 0, 59, 60
2, 53941, Control_c, 0, 10, 79
2, 53942, Note_on_c, 0, 64, 64
2, 53942, Note_on_c, 0, 94, 60
2, 53943, Control_c, 0, 10, 99
2, 53944, Note_on_c, 0, 99, 49
2, 53954, Note_on_c, 0, 99, 0
2, 53973, Note_on_c, 0, 94, 0
2, 53992, Note_on_c, 0, 106, 0
2, 54004, Control_c, 0, 10, 104
2, 54005, Note_on_c, 0, 104, 51
2, 54009, Control_c, 0, 10, 92
2, 54010, Note_on_c, 0, 92, 47
2, 54017, Control_c, 0, 10, 99
2, 54018, Note_on_c, 0, 99, 33
2, 54035, Note_on_c, 0, 64, 0
2, 54036, Note_on_c, 0, 53, 0
2, 54041, Note_on_c, 0, 92, 0
2, 54058, Note_on_c, 0, 99, 0
2, 54060, Note_on_c, 0, 104, 0
2, 54084, Note_on_c, 0, 59, 0
2, 54119, Control_c, 0, 10, 63
2, 54120, Note_on_c, 0, 63, 53
2, 54122, Control_c, 0, 10, 53
2, 54123, Note_on_c, 0, 53, 52
2, 54126, Control_c, 0, 10, 59
2, 54127, Note_on_c, 0, 59, 46
2, 54130, Control_c, 0, 10, 56
2, 54131, Note_on_c, 0, 56, 37
2, 54193, Note_on_c, 0, 53, 0
2, 54211, Note_on_c, 0, 63, 0
2, 54219, Note_on_c, 0, 56, 0
2, 54241, Control_c, 0, 10, 62
2, 54242, Note_on_c, 0, 62, 51
2, 54245, Control_c, 0, 10, 107
2, 54246, Note_on_c, 0, 107, 74
2, 54251, Control_c, 0, 10, 55
2, 54252, Note_on_c, 0, 55, 37
2, 54254, Control_c, 0, 10, 52
2, 54255, Note_on_c, 0, 52, 25
2, 54278, Note_on_c, 0, 107, 0
2, 54281, Control_c, 0, 10, 105
2, 54282, Note_on_c, 0, 105, 64
2, 54300, Note_on_c, 0, 62, 0
2, 54305, Note_on_c, 0, 105, 0
2, 54314, Control_c, 0, 10, 107
2, 54315, Note_on_c, 0, 107, 71
2, 54347, Note_on_c, 0, 107, 0
2, 54353, Control_c, 0, 10, 105
2, 54354, Note_on_c, 0, 105, 71
2, 54373, Note_on_c, 0, 105, 0
2, 54375, Note_on_c, 0, 59, 0
2, 54382, Control_c, 0, 10, 107
2, 54383, Note_on_c, 0, 107, 74
2, 54389, Note_on_c, 0, 55, 0
2, 54401, Note_on_c, 0, 52, 0
2, 54402, Note_on_c, 0, 107, 0
2, 54480, Control_c, 0, 10, 62
2, 54481, Note_on_c, 0, 62, 65
2, 54489, Control_c, 0, 10, 55
2, 54490, Note_on_c, 0, 55, 28
2, 54494, Note_on_c, 0, 62, 0
2, 54506, Note_on_c, 0, 55, 0
2, 54601, Control_c, 0, 10, 62
2, 54602, Note_on_c, 0, 62, 62
2, 54602, Control_c, 0, 10, 52
2, 54603, Note_on_c, 0, 52, 46
2, 54603, Control_c, 0, 10, 59
2, 54604, Note_on_c, 0, 59, 52
2, 54606, Control_c, 0, 10, 55
2, 54607, Note_on_c, 0, 55, 41
2, 54664, Note_on_c, 0, 59, 0
2, 54693, Control_c, 0, 10, 59
2, 54694, Note_on_c, 0, 59, 39
2, 54704, Note_on_c, 0, 62, 0
2, 54724, Control_c, 0, 10, 77
2, 54725, Note_on_c, 0, 71, 71
2, 54725, Note_on_c, 0, 83, 85
2, 54751, Note_on_c, 0, 71, 0
2, 54751, Note_on_c, 0, 59, 0
2, 54759, Control_c, 0, 10, 79
2, 54760, Note_on_c, 0, 79, 59
2, 54764, Note_on_c, 0, 83, 0
2, 54769, Control_c, 0, 10, 81
2, 54770, Note_on_c, 0, 81, 25
2, 54779, Note_on_c, 0, 55, 0
2, 54783, Note_on_c, 0, 81, 0
2, 54797, Control_c, 0, 10, 74
2, 54798, Note_on_c, 0, 74, 32
2, 54805, Note_on_c, 0, 79, 0
2, 54825, Note_on_c, 0, 74, 0
2, 54834, Control_c, 0, 10, 71
2, 54835, Note_on_c, 0, 71, 47
2, 54846, Note_on_c, 0, 71, 0
2, 54855, Control_c, 0, 10, 79
2, 54856, Note_on_c, 0, 79, 79
2, 54898, Note_on_c, 0, 79, 0
2, 54966, Note_on_c, 0, 52, 0
2, 55035, Control_c, 0, 10, 52
2, 55036, Note_on_c, 0, 52, 53
2, 55038, Control_c, 0, 10, 60
2, 55039, Note_on_c, 0, 59, 54
2, 55039, Note_on_c, 0, 62, 56
2, 55043, Control_c, 0, 10, 55
2, 55044, Note_on_c, 0, 55, 37
2, 55115, Note_on_c, 0, 59, 0
2, 55147, Note_on_c, 0, 52, 0
2, 55154, Note_on_c, 0, 62, 0
2, 55155, Note_on_c, 0, 55, 0
2, 55208, Control_c, 0, 10, 68
2, 55209, Note_on_c, 0, 89, 80
2, 55209, Note_on_c, 0, 63, 57
2, 55209, Note_on_c, 0, 53, 54
2, 55211, Control_c, 0, 10, 58
2, 55212, Note_on_c, 0, 58, 47
2, 55234, Note_on_c, 0, 89, 0
2, 55239, Control_c, 0, 10, 87
2, 55240, Note_on_c, 0, 87, 60
2, 55257, Note_on_c, 0, 87, 0
2, 55278, Control_c, 0, 10, 89
2, 55279, Note_on_c, 0, 89, 80
2, 55303, Control_c, 0, 10, 87
2, 55304, Note_on_c, 0, 87, 52
2, 55312, Note_on_c, 0, 89, 0
2, 55323, Control_c, 0, 10, 85
2, 55324, Note_on_c, 0, 85, 60
2, 55325, Note_on_c, 0, 53, 0
2, 55341, Note_on_c, 0, 87, 0
2, 55342, Note_on_c, 0, 63, 0
2, 55349, Note_on_c, 0, 58, 0
2, 55349, Note_on_c, 0, 85, 0
2, 55374, Control_c, 0, 10, 80
2, 55375, Note_on_c, 0, 80, 42
2, 55397, Note_on_c, 0, 80, 0
2, 55400, Control_c, 0, 64, 127
2, 55405, Control_c, 0, 10, 77
2, 55406, Note_on_c, 0, 77, 54
2, 55418, Note_on_c, 0, 77, 0
2, 55419, Control_c, 0, 64, 0
2, 55421, Control_c, 0, 10, 65
2, 55422, Note_on_c, 0, 65, 34
2, 55430, Control_c, 0, 10, 84
2, 55431, Note_on_c, 0, 84, 84
2, 55433, Note_on_c, 0, 65, 0
2, 55433, Control_c, 0, 10, 60
2, 55434, Note_on_c, 0, 60, 24
2, 55442, Control_c, 0, 10, 55
2, 55443, Note_on_c, 0, 55, 16
2, 55459, Note_on_c, 0, 84, 0
2, 55460, Note_on_c, 0, 60, 0
2, 55461, Control_c, 0, 10, 80
2, 55462, Note_on_c, 0, 55, 0
2, 55462, Note_on_c, 0, 80, 49
2, 55473, Note_on_c, 0, 80, 0
2, 55490, Control_c, 0, 10, 84
2, 55491, Note_on_c, 0, 84, 80
2, 55519, Control_c, 0, 10, 80
2, 55520, Note_on_c, 0, 80, 52
2, 55523, Control_c, 0, 10, 65
2, 55524, Note_on_c, 0, 65, 31
2, 55535, Note_on_c, 0, 84, 0
2, 55536, Control_c, 0, 10, 60
2, 55537, Note_on_c, 0, 60, 24
2, 55539, Note_on_c, 0, 65, 0
2, 55546, Control_c, 0, 10, 77
2, 55547, Note_on_c, 0, 77, 48
2, 55560, Note_on_c, 0, 80, 0
2, 55565, Note_on_c, 0, 60, 0
2, 55571, Note_on_c, 0, 77, 0
2, 55584, Control_c, 0, 10, 72
2, 55585, Note_on_c, 0, 72, 34
2, 55602, Note_on_c, 0, 72, 0
2, 55649, Control_c, 0, 64, 127
2, 55664, Control_c, 0, 10, 65
2, 55665, Note_on_c, 0, 65, 37
2, 55675, Note_on_c, 0, 65, 0
2, 55682, Control_c, 0, 10, 63
2, 55683, Note_on_c, 0, 63, 57
2, 55686, Control_c, 0, 64, 0
2, 55686, Control_c, 0, 10, 77
2, 55687, Note_on_c, 0, 77, 62
2, 55689, Control_c, 0, 10, 58
2, 55690, Note_on_c, 0, 58, 38
2, 55704, Control_c, 0, 10, 53
2, 55705, Note_on_c, 0, 53, 16
2, 55718, Note_on_c, 0, 77, 0
2, 55731, Note_on_c, 0, 63, 0
2, 55734, Note_on_c, 0, 58, 0
2, 55740, Control_c, 0, 10, 75
2, 55741, Note_on_c, 0, 75, 73
2, 55755, Control_c, 0, 10, 63
2, 55756, Note_on_c, 0, 63, 25
2, 55761, Control_c, 0, 10, 58
2, 55762, Note_on_c, 0, 58, 14
2, 55773, Note_on_c, 0, 63, 0
2, 55775, Note_on_c, 0, 75, 0
2, 55780, Note_on_c, 0, 53, 0
2, 55785, Note_on_c, 0, 58, 0
2, 55799, Control_c, 0, 10, 63
2, 55800, Note_on_c, 0, 63, 54
2, 55800, Control_c, 0, 10, 72
2, 55801, Note_on_c, 0, 72, 62
2, 55805, Control_c, 0, 10, 53
2, 55806, Note_on_c, 0, 53, 42
2, 55806, Control_c, 0, 10, 58
2, 55807, Note_on_c, 0, 58, 32
2, 55840, Control_c, 0, 64, 127
2, 55860, Note_on_c, 0, 72, 0
2, 55863, Control_c, 0, 10, 68
2, 55864, Note_on_c, 0, 68, 53
2, 55872, Note_on_c, 0, 63, 0
2, 55878, Note_on_c, 0, 53, 0
2, 55880, Note_on_c, 0, 58, 0
2, 55899, Note_on_c, 0, 68, 0
2, 55905, Control_c, 0, 64, 0
2, 55925, Note_on_c, 0, 68, 51
2, 55927, Control_c, 0, 10, 63
2, 55928, Note_on_c, 0, 63, 44
2, 55930, Control_c, 0, 10, 58
2, 55931, Note_on_c, 0, 58, 40
2, 55931, Control_c, 0, 10, 53
2, 55932, Note_on_c, 0, 53, 36
2, 55956, Note_on_c, 0, 53, 0
2, 55956, Note_on_c, 0, 63, 0
2, 55958, Note_on_c, 0, 68, 0
2, 55971, Note_on_c, 0, 58, 0
2, 55979, Control_c, 0, 64, 127
2, 55991, Control_c, 0, 10, 68
2, 55992, Note_on_c, 0, 68, 71
2, 55993, Control_c, 0, 10, 63
2, 55994, Note_on_c, 0, 63, 55
2, 55996, Control_c, 0, 10, 58
2, 55997, Note_on_c, 0, 58, 48
2, 55998, Control_c, 0, 10, 53
2, 55999, Note_on_c, 0, 53, 50
2, 56011, Control_c, 0, 64, 0
2, 56049, Note_on_c, 0, 68, 0
2, 56060, Control_c, 0, 10, 65
2, 56061, Note_on_c, 0, 65, 48
2, 56065, Note_on_c, 0, 63, 0
2, 56067, Note_on_c, 0, 53, 0
2, 56070, Control_c, 0, 64, 127
2, 56096, Note_on_c, 0, 65, 0
2, 56098, Note_on_c, 0, 58, 0
2, 56133, Control_c, 0, 10, 56
2, 56134, Note_on_c, 0, 56, 31
2, 56158, Note_on_c, 0, 56, 0
2, 56160, Control_c, 0, 10, 61
2, 56161, Note_on_c, 0, 61, 72
2, 56163, Control_c, 0, 10, 72
2, 56164, Note_on_c, 0, 72, 58
2, 56166, Control_c, 0, 10, 65
2, 56167, Note_on_c, 0, 65, 55
2, 56167, Control_c, 0, 10, 68
2, 56168, Note_on_c, 0, 68, 43
2, 56170, Control_c, 0, 10, 60
2, 56171, Note_on_c, 0, 60, 61
2, 56172, Control_c, 0, 64, 0
2, 56174, Note_on_c, 0, 72, 0
2, 56176, Note_on_c, 0, 65, 0
2, 56182, Note_on_c, 0, 61, 0
2, 56183, Note_on_c, 0, 68, 0
2, 56187, Note_on_c, 0, 60, 0
2, 56202, Control_c, 0, 10, 58
2, 56203, Note_on_c, 0, 58, 50
2, 56233, Control_c, 0, 10, 72
2, 56234, Note_on_c, 0, 72, 72
2, 56234, Control_c, 0, 10, 61
2, 56235, Note_on_c, 0, 61, 74
2, 56236, Note_on_c, 0, 58, 0
2, 56238, Control_c, 0, 10, 66
2, 56239, Note_on_c, 0, 68, 59
2, 56239, Note_on_c, 0, 65, 71
2, 56239, Control_c, 0, 10, 60
2, 56240, Note_on_c, 0, 60, 77
2, 56333, Note_on_c, 0, 61, 0
2, 56335, Note_on_c, 0, 65, 0
2, 56344, Note_on_c, 0, 72, 0
2, 56346, Control_c, 0, 10, 61
2, 56347, Note_on_c, 0, 61, 57
2, 56347, Control_c, 0, 10, 70
2, 56348, Note_on_c, 0, 70, 69
2, 56349, Control_c, 0, 10, 58
2, 56350, Note_on_c, 0, 58, 67
2, 56350, Control_c, 0, 10, 65
2, 56351, Note_on_c, 0, 65, 55
2, 56355, Note_on_c, 0, 60, 0
2, 56409, Control_c, 0, 64, 127
2, 56439, Note_on_c, 0, 68, 0
2, 56440, Note_on_c, 0, 65, 0
2, 56443, Note_on_c, 0, 61, 0
2, 56471, Control_c, 0, 10, 64
2, 56472, Note_on_c, 0, 61, 39
2, 56472, Note_on_c, 0, 68, 48
2, 56473, Control_c, 0, 10, 65
2, 56474, Note_on_c, 0, 65, 48
2, 56480, Control_c, 0, 64, 0
2, 56511, Control_c, 0, 64, 127
2, 56540, Note_on_c, 0, 65, 0
2, 56554, Note_on_c, 0, 70, 0
2, 56554, Note_on_c, 0, 68, 0
2, 56555, Note_on_c, 0, 61, 0
2, 56582, Note_on_c, 0, 58, 0
2, 56584, Control_c, 0, 10, 61
2, 56585, Note_on_c, 0, 61, 65
2, 56586, Control_c, 0, 10, 68
2, 56587, Note_on_c, 0, 72, 60
2, 56587, Note_on_c, 0, 64, 66
2, 56588, Control_c, 0, 64, 0
2, 56591, Control_c, 0, 10, 60
2, 56592, Note_on_c, 0, 60, 74
2, 56597, Control_c, 0, 10, 67
2, 56598, Note_on_c, 0, 67, 22
2, 56599, Control_c, 0, 10, 70
2, 56600, Note_on_c, 0, 70, 18
2, 56606, Note_on_c, 0, 61, 0
2, 56614, Note_on_c, 0, 67, 0
2, 56614, Note_on_c, 0, 60, 0
2, 56614, Note_on_c, 0, 64, 0
2, 56623, Note_on_c, 0, 70, 0
2, 56626, Note_on_c, 0, 72, 0
2, 56626, Control_c, 0, 64, 127
2, 56702, Control_c, 0, 10, 74
2, 56703, Note_on_c, 0, 76, 78
2, 56703, Note_on_c, 0, 73, 83
2, 56703, Control_c, 0, 10, 84
2, 56704, Note_on_c, 0, 84, 80
2, 56707, Control_c, 0, 10, 72
2, 56708, Note_on_c, 0, 72, 78
2, 56708, Control_c, 0, 10, 79
2, 56709, Note_on_c, 0, 79, 58
2, 56709, Control_c, 0, 10, 82
2, 56710, Note_on_c, 0, 82, 45
2, 56710, Control_c, 0, 10, 80
2, 56711, Note_on_c, 0, 80, 38
2, 56721, Control_c, 0, 64, 0
2, 56735, Note_on_c, 0, 80, 0
2, 56735, Note_on_c, 0, 84, 0
2, 56735, Note_on_c, 0, 79, 0
2, 56736, Note_on_c, 0, 76, 0
2, 56739, Note_on_c, 0, 82, 0
2, 56742, Note_on_c, 0, 72, 0
2, 56747, Note_on_c, 0, 73, 0
2, 56750, Control_c, 0, 64, 127
2, 56751, Control_c, 0, 10, 71
2, 56752, Note_on_c, 0, 71, 60
2, 56764, Control_c, 0, 10, 70
2, 56765, Note_on_c, 0, 70, 55
2, 56766, Note_on_c, 0, 71, 0
2, 56773, Control_c, 0, 64, 0
2, 56774, Note_on_c, 0, 70, 0
2, 56785, Control_c, 0, 10, 74
2, 56786, Note_on_c, 0, 81, 70
2, 56786, Note_on_c, 0, 69, 71
2, 56786, Note_on_c, 0, 73, 64
2, 56788, Control_c, 0, 10, 73
2, 56789, Note_on_c, 0, 70, 63
2, 56789, Note_on_c, 0, 76, 45
2, 56816, Note_on_c, 0, 70, 0
2, 56818, Note_on_c, 0, 81, 0
2, 56821, Note_on_c, 0, 76, 0
2, 56823, Note_on_c, 0, 73, 0
2, 56826, Control_c, 0, 64, 127
2, 56832, Note_on_c, 0, 69, 0
2, 56848, Control_c, 0, 64, 0
2, 56859, Control_c, 0, 10, 78
2, 56860, Note_on_c, 0, 78, 70
2, 56863, Control_c, 0, 10, 70
2, 56864, Note_on_c, 0, 70, 68
2, 56865, Note_on_c, 0, 73, 69
2, 56865, Note_on_c, 0, 67, 60
2, 56873, Control_c, 0, 10, 69
2, 56874, Note_on_c, 0, 69, 38
2, 56884, Note_on_c, 0, 69, 0
2, 56904, Control_c, 0, 64, 127
2, 56906, Note_on_c, 0, 73, 0
2, 56911, Note_on_c, 0, 67, 0
2, 56912, Note_on_c, 0, 70, 0
2, 56914, Note_on_c, 0, 78, 0
2, 56930, Control_c, 0, 64, 0
2, 56943, Control_c, 0, 10, 70
2, 56944, Note_on_c, 0, 70, 71
2, 56944, Control_c, 0, 10, 75
2, 56945, Note_on_c, 0, 75, 56
2, 56948, Control_c, 0, 10, 67
2, 56949, Note_on_c, 0, 62, 43
2, 56949, Note_on_c, 0, 67, 53
2, 56949, Note_on_c, 0, 73, 53
2, 56961, Note_on_c, 0, 62, 0
2, 56972, Control_c, 0, 64, 127
2, 56979, Note_on_c, 0, 73, 0
2, 56991, Note_on_c, 0, 70, 0
2, 56995, Note_on_c, 0, 67, 0
2, 57005, Note_on_c, 0, 75, 0
2, 57021, Control_c, 0, 10, 73
2, 57022, Note_on_c, 0, 73, 57
2, 57029, Control_c, 0, 10, 70
2, 57030, Note_on_c, 0, 70, 57
2, 57049, Note_on_c, 0, 73, 0
2, 57060, Note_on_c, 0, 70, 0
2, 57064, Control_c, 0, 10, 67
2, 57065, Note_on_c, 0, 67, 48
2, 57077, Note_on_c, 0, 67, 0
2, 57105, Control_c, 0, 10, 75
2, 57106, Note_on_c, 0, 75, 69
2, 57107, Control_c, 0, 10, 63
2, 57108, Control_c, 0, 64, 0
2, 57108, Note_on_c, 0, 63, 75
2, 57109, Control_c, 0, 10, 70
2, 57110, Note_on_c, 0, 68, 67
2, 57110, Note_on_c, 0, 72, 65
2, 57110, Control_c, 0, 10, 64
2, 57111, Note_on_c, 0, 64, 68
2, 57165, Note_on_c, 0, 75, 0
2, 57166, Note_on_c, 0, 72, 0
2, 57169, Note_on_c, 0, 68, 0
2, 57171, Note_on_c, 0, 64, 0
2, 57175, Note_on_c, 0, 63, 0
2, 57181, Control_c, 0, 10, 67
2, 57182, Note_on_c, 0, 61, 52
2, 57182, Note_on_c, 0, 73, 63
2, 57183, Control_c, 0, 10, 68
2, 57184, Note_on_c, 0, 68, 67
2, 57185, Control_c, 0, 10, 64
2, 57186, Note_on_c, 0, 64, 31
2, 57225, Note_on_c, 0, 73, 0
2, 57226, Note_on_c, 0, 64, 0
2, 57234, Note_on_c, 0, 61, 0
2, 57245, Control_c, 0, 10, 72
2, 57246, Note_on_c, 0, 72, 48
2, 57249, Control_c, 0, 10, 60
2, 57250, Note_on_c, 0, 60, 37
2, 57251, Control_c, 0, 10, 64
2, 57252, Note_on_c, 0, 64, 36
2, 57272, Control_c, 0, 64, 127
2, 57282, Note_on_c, 0, 68, 0
2, 57297, Note_on_c, 0, 60, 0
2, 57307, Control_c, 0, 10, 58
2, 57308, Note_on_c, 0, 58, 44
2, 57315, Note_on_c, 0, 72, 0
2, 57326, Note_on_c, 0, 64, 0
2, 57353, Control_c, 0, 64, 0
2, 57360, Note_on_c, 0, 58, 0
2, 57367, Control_c, 0, 10, 72
2, 57368, Note_on_c, 0, 72, 43
2, 57368, Control_c, 0, 10, 68
2, 57369, Note_on_c, 0, 68, 46
2, 57370, Control_c, 0, 10, 64
2, 57371, Note_on_c, 0, 64, 42
2, 57371, Control_c, 0, 10, 60
2, 57372, Note_on_c, 0, 60, 63
2, 57398, Control_c, 0, 64, 127
2, 57399, Note_on_c, 0, 60, 0
2, 57435, Note_on_c, 0, 64, 0
2, 57453, Note_on_c, 0, 68, 0
2, 57460, Note_on_c, 0, 72, 0
2, 57471, Control_c, 0, 10, 49
2, 57472, Note_on_c, 0, 49, 21
2, 57472, Control_c, 0, 64, 0
2, 57479, Control_c, 0, 10, 71
2, 57480, Note_on_c, 0, 71, 62
2, 57480, Control_c, 0, 10, 63
2, 57481, Note_on_c, 0, 63, 53
2, 57482, Control_c, 0, 10, 54
2, 57483, Note_on_c, 0, 41, 52
2, 57483, Note_on_c, 0, 67, 55
2, 57487, Note_on_c, 0, 49, 0
2, 57488, Control_c, 0, 10, 48
2, 57489, Note_on_c, 0, 48, 61
2, 57532, Note_on_c, 0, 41, 0
2, 57544, Note_on_c, 0, 48, 0
2, 57544, Control_c, 0, 64, 127
2, 57627, Note_on_c, 0, 63, 0
2, 57662, Control_c, 0, 10, 62
2, 57663, Note_on_c, 0, 62, 58
2, 57663, Control_c, 0, 10, 51
2, 57664, Note_on_c, 0, 51, 52
2, 57665, Control_c, 0, 10, 57
2, 57666, Note_on_c, 0, 57, 57
2, 57687, Control_c, 0, 64, 0
2, 57702, Note_on_c, 0, 67, 0
2, 57708, Control_c, 0, 64, 127
2, 57712, Note_on_c, 0, 71, 0
2, 57836, Control_c, 0, 10, 86
2, 57837, Note_on_c, 0, 86, 70
2, 57840, Control_c, 0, 10, 74
2, 57841, Note_on_c, 0, 74, 64
2, 57867, Note_on_c, 0, 74, 0
2, 57867, Note_on_c, 0, 86, 0
2, 57902, Control_c, 0, 10, 85
2, 57903, Note_on_c, 0, 85, 44
2, 57914, Note_on_c, 0, 85, 0
2, 57928, Control_c, 0, 64, 0
2, 57958, Control_c, 0, 10, 84
2, 57959, Note_on_c, 0, 84, 79
2, 57959, Control_c, 0, 10, 72
2, 57960, Note_on_c, 0, 72, 71
2, 57967, Note_on_c, 0, 57, 0
2, 57967, Note_on_c, 0, 62, 0
2, 58017, Note_on_c, 0, 51, 0
2, 58058, Control_c, 0, 10, 50
2, 58059, Note_on_c, 0, 50, 41
2, 58060, Control_c, 0, 10, 56
2, 58061, Note_on_c, 0, 56, 33
2, 58062, Control_c, 0, 10, 60
2, 58063, Note_on_c, 0, 60, 34
2, 58072, Note_on_c, 0, 50, 0
2, 58074, Note_on_c, 0, 60, 0
2, 58084, Note_on_c, 0, 56, 0
2, 58252, Note_on_c, 0, 72, 0
2, 58263, Control_c, 0, 10, 65
2, 58264, Note_on_c, 0, 65, 41
2, 58265, Control_c, 0, 10, 60
2, 58266, Note_on_c, 0, 60, 36
2, 58266, Control_c, 0, 10, 54
2, 58267, Note_on_c, 0, 54, 31
2, 58309, Note_on_c, 0, 84, 0
2, 58392, Note_on_c, 0, 65, 0
2, 58397, Note_on_c, 0, 60, 0
2, 58421, Note_on_c, 0, 54, 0
2, 58432, Control_c, 0, 10, 64
2, 58433, Note_on_c, 0, 64, 40
2, 58437, Control_c, 0, 10, 53
2, 58438, Note_on_c, 0, 53, 36
2, 58438, Control_c, 0, 10, 59
2, 58439, Note_on_c, 0, 59, 41
2, 58552, Control_c, 0, 10, 91
2, 58553, Note_on_c, 0, 91, 75
2, 58553, Control_c, 0, 10, 79
2, 58554, Note_on_c, 0, 79, 78
2, 58573, Note_on_c, 0, 79, 0
2, 58579, Note_on_c, 0, 64, 0
2, 58579, Note_on_c, 0, 91, 0
2, 58580, Note_on_c, 0, 59, 0
2, 58580, Note_on_c, 0, 53, 0
2, 58669, Control_c, 0, 10, 73
2, 58670, Note_on_c, 0, 94, 82
2, 58670, Note_on_c, 0, 53, 71
2, 58671, Note_on_c, 0, 64, 72
2, 58671, Note_on_c, 0, 82, 83
2, 58671, Control_c, 0, 10, 59
2, 58672, Note_on_c, 0, 59, 61
2, 58673, Control_c, 0, 10, 87
2, 58674, Note_on_c, 0, 87, 68
2, 58682, Note_on_c, 0, 87, 0
2, 58711, Control_c, 0, 10, 92
2, 58712, Note_on_c, 0, 92, 18
2, 58727, Note_on_c, 0, 94, 0
2, 58727, Control_c, 0, 10, 95
2, 58728, Note_on_c, 0, 95, 29
2, 58739, Note_on_c, 0, 95, 0
2, 58744, Note_on_c, 0, 82, 0
2, 58751, Note_on_c, 0, 92, 0
2, 58758, Note_on_c, 0, 53, 0
2, 58760, Note_on_c, 0, 64, 0
2, 58763, Note_on_c, 0, 59, 0
2, 58868, Control_c, 0, 10, 94
2, 58869, Note_on_c, 0, 94, 83
2, 58870, Control_c, 0, 10, 82
2, 58871, Note_on_c, 0, 82, 79
2, 58871, Control_c, 0, 10, 87
2, 58872, Note_on_c, 0, 87, 74
2, 58873, Control_c, 0, 10, 53
2, 58874, Note_on_c, 0, 53, 75
2, 58874, Control_c, 0, 10, 64
2, 58875, Note_on_c, 0, 64, 77
2, 58875, Control_c, 0, 10, 59
2, 58876, Note_on_c, 0, 59, 66
2, 58928, Note_on_c, 0, 87, 0
2, 58930, Note_on_c, 0, 82, 0
2, 58943, Control_c, 0, 10, 88
2, 58944, Note_on_c, 0, 88, 30
2, 58953, Note_on_c, 0, 94, 0
2, 58956, Note_on_c, 0, 88, 0
2, 58965, Note_on_c, 0, 64, 0
2, 58966, Note_on_c, 0, 59, 0
2, 58966, Note_on_c, 0, 53, 0
2, 58995, Control_c, 0, 10, 94
2, 58996, Note_on_c, 0, 94, 79
2, 58998, Control_c, 0, 10, 82
2, 58999, Note_on_c, 0, 82, 83
2, 59003, Control_c, 0, 10, 59
2, 59004, Note_on_c, 0, 59, 45
2, 59017, Note_on_c, 0, 59, 0
2, 59020, Note_on_c, 0, 82, 0
2, 59028, Note_on_c, 0, 94, 0
2, 59070, Control_c, 0, 10, 76
2, 59071, Note_on_c, 0, 59, 68
2, 59071, Note_on_c, 0, 94, 77
2, 59071, Control_c, 0, 10, 52
2, 59072, Note_on_c, 0, 52, 70
2, 59072, Control_c, 0, 10, 72
2, 59073, Note_on_c, 0, 82, 86
2, 59073, Note_on_c, 0, 62, 73
2, 59073, Control_c, 0, 10, 55
2, 59074, Note_on_c, 0, 55, 68
2, 59076, Control_c, 0, 10, 87
2, 59077, Note_on_c, 0, 87, 62
2, 59081, Control_c, 0, 10, 91
2, 59082, Note_on_c, 0, 91, 47
2, 59122, Note_on_c, 0, 87, 0
2, 59122, Control_c, 0, 10, 95
2, 59123, Note_on_c, 0, 95, 57
2, 59133, Note_on_c, 0, 82, 0
2, 59133, Control_c, 0, 10, 88
2, 59134, Note_on_c, 0, 94, 0
2, 59134, Note_on_c, 0, 88, 48
2, 59140, Note_on_c, 0, 95, 0
2, 59145, Note_on_c, 0, 88, 0
2, 59146, Note_on_c, 0, 91, 0
2, 59160, Note_on_c, 0, 59, 0
2, 59166, Note_on_c, 0, 62, 0
2, 59175, Control_c, 0, 10, 76
2, 59176, Note_on_c, 0, 91, 54
2, 59176, Note_on_c, 0, 62, 31
2, 59182, Control_c, 0, 10, 79
2, 59183, Note_on_c, 0, 79, 60
2, 59183, Control_c, 0, 10, 59
2, 59184, Note_on_c, 0, 59, 24
2, 59184, Control_c, 0, 10, 90
2, 59185, Note_on_c, 0, 90, 43
2, 59195, Note_on_c, 0, 52, 0
2, 59196, Note_on_c, 0, 55, 0
2, 59198, Note_on_c, 0, 90, 0
2, 59199, Note_on_c, 0, 59, 0
2, 59205, Note_on_c, 0, 79, 0
2, 59207, Note_on_c, 0, 62, 0
2, 59212, Note_on_c, 0, 91, 0
2, 59244, Control_c, 0, 10, 91
2, 59245, Note_on_c, 0, 91, 71
2, 59246, Control_c, 0, 10, 79
2, 59247, Note_on_c, 0, 79, 64
2, 59249, Control_c, 0, 10, 86
2, 59250, Note_on_c, 0, 86, 65
2, 59251, Control_c, 0, 10, 67
2, 59252, Note_on_c, 0, 67, 68
2, 59252, Control_c, 0, 10, 62
2, 59253, Note_on_c, 0, 62, 65
2, 59254, Control_c, 0, 10, 60
2, 59255, Note_on_c, 0, 63, 36
2, 59255, Note_on_c, 0, 57, 46
2, 59383, Note_on_c, 0, 67, 0
2, 59385, Note_on_c, 0, 62, 0
2, 59388, Note_on_c, 0, 63, 0
2, 59391, Note_on_c, 0, 91, 0
2, 59396, Note_on_c, 0, 57, 0
2, 59396, Note_on_c, 0, 86, 0
2, 59400, Control_c, 0, 64, 127
2, 59412, Note_on_c, 0, 79, 0
2, 59466, Control_c, 0, 10, 62
2, 59467, Note_on_c, 0, 62, 69
2, 59470, Control_c, 0, 10, 52
2, 59471, Note_on_c, 0, 52, 57
2, 59471, Control_c, 0, 10, 55
2, 59472, Note_on_c, 0, 55, 60
2, 59472, Control_c, 0, 10, 59
2, 59473, Note_on_c, 0, 59, 52
2, 59474, Control_c, 0, 64, 0
2, 59521, Control_c, 0, 64, 127
2, 59585, Control_c, 0, 10, 67
2, 59586, Note_on_c, 0, 67, 72
2, 59602, Note_on_c, 0, 52, 0
2, 59604, Note_on_c, 0, 55, 0
2, 59606, Note_on_c, 0, 67, 0
2, 59611, Control_c, 0, 64, 0
2, 59616, Note_on_c, 0, 59, 0
2, 59646, Note_on_c, 0, 62, 0
2, 59653, Control_c, 0, 10, 71
2, 59654, Note_on_c, 0, 71, 37
2, 59665, Note_on_c, 0, 71, 0
2, 59705, Control_c, 0, 10, 74
2, 59706, Note_on_c, 0, 74, 96
2, 59715, Control_c, 0, 64, 127
2, 59738, Note_on_c, 0, 74, 0
2, 59750, Control_c, 0, 64, 0
2, 59766, Control_c, 0, 10, 69
2, 59767, Note_on_c, 0, 74, 66
2, 59767, Note_on_c, 0, 64, 83
2, 59770, Note_on_c, 0, 71, 63
2, 59770, Note_on_c, 0, 67, 64
2, 59771, Control_c, 0, 10, 62
2, 59772, Note_on_c, 0, 62, 69
2, 59799, Control_c, 0, 64, 127
2, 59817, Note_on_c, 0, 71, 0
2, 59820, Note_on_c, 0, 74, 0
2, 59821, Note_on_c, 0, 64, 0
2, 59826, Note_on_c, 0, 67, 0
2, 59840, Control_c, 0, 10, 72
2, 59841, Note_on_c, 0, 72, 62
2, 59844, Note_on_c, 0, 62, 0
2, 59844, Control_c, 0, 10, 63
2, 59845, Note_on_c, 0, 64, 59
2, 59845, Note_on_c, 0, 67, 67
2, 59845, Note_on_c, 0, 60, 64
2, 59874, Note_on_c, 0, 67, 0
2, 59877, Note_on_c, 0, 64, 0
2, 59882, Note_on_c, 0, 60, 0
2, 59891, Note_on_c, 0, 72, 0
2, 59917, Control_c, 0, 10, 64
2, 59918, Note_on_c, 0, 64, 64
2, 59941, Note_on_c, 0, 64, 0
2, 60004, Control_c, 0, 10, 67
2, 60005, Note_on_c, 0, 67, 61
2, 60006, Control_c, 0, 10, 62
2, 60007, Note_on_c, 0, 64, 71
2, 60007, Note_on_c, 0, 60, 71
2, 60011, Control_c, 0, 10, 56
2, 60012, Note_on_c, 0, 55, 53
2, 60012, Note_on_c, 0, 57, 54
2, 60012, Control_c, 0, 10, 53
2, 60013, Note_on_c, 0, 53, 53
2, 60019, Control_c, 0, 64, 0
2, 60032, Note_on_c, 0, 57, 0
2, 60032, Note_on_c, 0, 60, 0
2, 60035, Note_on_c, 0, 64, 0
2, 60037, Note_on_c, 0, 55, 0
2, 60038, Note_on_c, 0, 53, 0
2, 60042, Note_on_c, 0, 67, 0
2, 60052, Control_c, 0, 10, 63
2, 60053, Note_on_c, 0, 67, 37
2, 60053, Note_on_c, 0, 60, 63
2, 60053, Control_c, 0, 10, 60
2, 60054, Note_on_c, 0, 57, 58
2, 60054, Note_on_c, 0, 64, 70
2, 60059, Control_c, 0, 10, 55
2, 60060, Note_on_c, 0, 55, 60
2, 60064, Control_c, 0, 10, 53
2, 60065, Note_on_c, 0, 53, 32
2, 60071, Note_on_c, 0, 60, 0
2, 60077, Note_on_c, 0, 64, 0
2, 60077, Note_on_c, 0, 57, 0
2, 60078, Note_on_c, 0, 53, 0
2, 60078, Note_on_c, 0, 55, 0
2, 60084, Note_on_c, 0, 67, 0
2, 60197, Control_c, 0, 10, 63
2, 60198, Note_on_c, 0, 60, 71
2, 60198, Note_on_c, 0, 67, 68
2, 60200, Control_c, 0, 10, 60
2, 60201, Note_on_c, 0, 57, 61
2, 60201, Note_on_c, 0, 64, 64
2, 60202, Control_c, 0, 10, 53
2, 60203, Note_on_c, 0, 53, 60
2, 60203, Control_c, 0, 10, 55
2, 60204, Note_on_c, 0, 55, 52
2, 60210, Note_on_c, 0, 64, 0
2, 60213, Note_on_c, 0, 55, 0
2, 60214, Note_on_c, 0, 57, 0
2, 60216, Note_on_c, 0, 53, 0
2, 60218, Note_on_c, 0, 60, 0
2, 60221, Note_on_c, 0, 67, 0
2, 60277, Control_c, 0, 10, 57
2, 60278, Note_on_c, 0, 57, 60
2, 60278, Control_c, 0, 10, 60
2, 60279, Note_on_c, 0, 67, 63
2, 60279, Note_on_c, 0, 53, 57
2, 60279, Control_c, 0, 10, 59
2, 60280, Note_on_c, 0, 60, 73
2, 60280, Note_on_c, 0, 55, 56
2, 60280, Note_on_c, 0, 64, 69
2, 60298, Note_on_c, 0, 60, 0
2, 60300, Note_on_c, 0, 57, 0
2, 60303, Note_on_c, 0, 55, 0
2, 60305, Note_on_c, 0, 53, 0
2, 60306, Note_on_c, 0, 67, 0
2, 60306, Note_on_c, 0, 64, 0
2, 60437, Control_c, 0, 64, 127
2, 60453, Control_c, 0, 64, 0
2, 60580, Control_c, 0, 10, 63
2, 60581, Note_on_c, 0, 61, 71
2, 60581, Note_on_c, 0, 65, 68
2, 60581, Control_c, 0, 10, 61
2, 60582, Note_on_c, 0, 63, 52
2, 60582, Note_on_c, 0, 59, 78
2, 60586, Control_c, 0, 10, 57
2, 60587, Note_on_c, 0, 57, 58
2, 60596, Note_on_c, 0, 61, 0
2, 60598, Note_on_c, 0, 59, 0
2, 60599, Note_on_c, 0, 63, 0
2, 60600, Note_on_c, 0, 65, 0
2, 60610, Control_c, 0, 10, 59
2, 60611, Note_on_c, 0, 59, 61
2, 60613, Control_c, 0, 10, 61
2, 60614, Note_on_c, 0, 61, 64
2, 60616, Control_c, 0, 10, 67
2, 60617, Note_on_c, 0, 67, 37
2, 60617, Control_c, 0, 10, 64
2, 60618, Note_on_c, 0, 63, 57
2, 60618, Note_on_c, 0, 65, 20
2, 60631, Note_on_c, 0, 67, 0
2, 60632, Note_on_c, 0, 59, 0
2, 60633, Note_on_c, 0, 63, 0
2, 60634, Note_on_c, 0, 65, 0
2, 60637, Note_on_c, 0, 61, 0
2, 60645, Note_on_c, 0, 57, 0
2, 60708, Control_c, 0, 10, 63
2, 60709, Note_on_c, 0, 63, 51
2, 60709, Control_c, 0, 10, 61
2, 60710, Note_on_c, 0, 59, 76
2, 60710, Note_on_c, 0, 65, 62
2, 60710, Note_on_c, 0, 61, 60
2, 60711, Control_c, 0, 10, 62
2, 60712, Note_on_c, 0, 67, 49
2, 60712, Note_on_c, 0, 57, 71
2, 60721, Note_on_c, 0, 67, 0
2, 60726, Note_on_c, 0, 61, 0
2, 60726, Note_on_c, 0, 59, 0
2, 60728, Note_on_c, 0, 65, 0
2, 60729, Note_on_c, 0, 63, 0
2, 60735, Note_on_c, 0, 57, 0
2, 60796, Control_c, 0, 10, 61
2, 60797, Note_on_c, 0, 61, 69
2, 60797, Note_on_c, 0, 59, 80
2, 60797, Note_on_c, 0, 63, 57
2, 60797, Control_c, 0, 10, 67
2, 60798, Note_on_c, 0, 67, 55
2, 60798, Control_c, 0, 10, 61
2, 60799, Note_on_c, 0, 57, 71
2, 60799, Note_on_c, 0, 65, 58
2, 60807, Note_on_c, 0, 67, 0
2, 60808, Note_on_c, 0, 65, 0
2, 60811, Note_on_c, 0, 59, 0
2, 60814, Note_on_c, 0, 61, 0
2, 60814, Note_on_c, 0, 63, 0
2, 60816, Note_on_c, 0, 57, 0
2, 60882, Control_c, 0, 10, 63
2, 60883, Note_on_c, 0, 63, 60
2, 60883, Control_c, 0, 10, 59
2, 60884, Note_on_c, 0, 61, 69
2, 60884, Note_on_c, 0, 57, 70
2, 60884, Control_c, 0, 10, 63
2, 60885, Note_on_c, 0, 59, 76
2, 60885, Note_on_c, 0, 67, 63
2, 60885, Control_c, 0, 10, 65
2, 60886, Note_on_c, 0, 65, 62
2, 60895, Note_on_c, 0, 65, 0
2, 60909, Note_on_c, 0, 65, 17
2, 60913, Control_c, 0, 64, 127
2, 60921, Note_on_c, 0, 57, 0
2, 60930, Note_on_c, 0, 67, 0
2, 60941, Note_on_c, 0, 59, 0
2, 60944, Note_on_c, 0, 65, 0
2, 60950, Note_on_c, 0, 61, 0
2, 60954, Note_on_c, 0, 63, 0
2, 60970, Control_c, 0, 64, 0
2, 60971, Control_c, 0, 10, 67
2, 60972, Note_on_c, 0, 67, 64
2, 60972, Control_c, 0, 10, 59
2, 60973, Note_on_c, 0, 57, 66
2, 60973, Note_on_c, 0, 62, 69
2, 60974, Control_c, 0, 10, 52
2, 60975, Note_on_c, 0, 52, 63
2, 61007, Control_c, 0, 64, 127
2, 61059, Note_on_c, 0, 57, 0
2, 61066, Note_on_c, 0, 67, 0
2, 61071, Note_on_c, 0, 62, 0
2, 61089, Note_on_c, 0, 52, 0
2, 61139, Control_c, 0, 10, 55
2, 61140, Note_on_c, 0, 55, 68
2, 61143, Control_c, 0, 10, 71
2, 61144, Note_on_c, 0, 71, 70
2, 61144, Control_c, 0, 10, 62
2, 61145, Note_on_c, 0, 62, 71
2, 61146, Control_c, 0, 10, 67
2, 61147, Note_on_c, 0, 67, 68
2, 61166, Note_on_c, 0, 62, 0
2, 61173, Note_on_c, 0, 67, 0
2, 61173, Note_on_c, 0, 55, 0
2, 61176, Note_on_c, 0, 71, 0
2, 61211, Control_c, 0, 64, 0
2, 61213, Control_c, 0, 10, 65
2, 61214, Note_on_c, 0, 70, 67
2, 61214, Note_on_c, 0, 61, 64
2, 61214, Note_on_c, 0, 66, 64
2, 61214, Control_c, 0, 10, 55
2, 61215, Note_on_c, 0, 55, 54
2, 61215, Control_c, 0, 10, 45
2, 61216, Note_on_c, 0, 45, 54
2, 61268, Control_c, 0, 64, 127
2, 61323, Note_on_c, 0, 45, 0
2, 61327, Note_on_c, 0, 55, 0
2, 61354, Note_on_c, 0, 66, 0
2, 61360, Note_on_c, 0, 61, 0
2, 61368, Note_on_c, 0, 70, 0
2, 61383, Control_c, 0, 10, 69
2, 61384, Note_on_c, 0, 69, 60
2, 61384, Control_c, 0, 10, 65
2, 61385, Note_on_c, 0, 65, 56
2, 61385, Control_c, 0, 10, 55
2, 61386, Note_on_c, 0, 50, 55
2, 61386, Note_on_c, 0, 60, 54
2, 61396, Control_c, 0, 64, 0
2, 61428, Control_c, 0, 64, 127
2, 61444, Note_on_c, 0, 50, 0
2, 61460, Note_on_c, 0, 69, 0
2, 61476, Note_on_c, 0, 65, 0
2, 61480, Note_on_c, 0, 60, 0
2, 61516, Control_c, 0, 10, 50
2, 61517, Note_on_c, 0, 50, 20
2, 61539, Note_on_c, 0, 50, 0
2, 61558, Control_c, 0, 10, 68
2, 61559, Note_on_c, 0, 68, 52
2, 61559, Control_c, 0, 10, 61
2, 61560, Note_on_c, 0, 64, 51
2, 61560, Note_on_c, 0, 59, 55
2, 61562, Control_c, 0, 64, 0
2, 61563, Control_c, 0, 10, 53
2, 61564, Note_on_c, 0, 53, 53
2, 61604, Control_c, 0, 64, 127
2, 61634, Control_c, 0, 64, 0
2, 61651, Note_on_c, 0, 53, 0
2, 61668, Control_c, 0, 64, 127
2, 61691, Note_on_c, 0, 59, 0
2, 61725, Note_on_c, 0, 64, 0
2, 61744, Note_on_c, 0, 68, 0
2, 61866, Control_c, 0, 10, 79
2, 61867, Note_on_c, 0, 79, 68
2, 61872, Control_c, 0, 10, 74
2, 61873, Note_on_c, 0, 74, 54
2, 61905, Note_on_c, 0, 74, 0
2, 61906, Note_on_c, 0, 79, 0
2, 61925, Control_c, 0, 10, 36
2, 61926, Note_on_c, 0, 36, 45
2, 61927, Control_c, 0, 64, 0
2, 61927, Control_c, 0, 10, 78
2, 61928, Note_on_c, 0, 78, 56
2, 61928, Control_c, 0, 10, 69
2, 61929, Note_on_c, 0, 69, 34
2, 61929, Control_c, 0, 10, 43
2, 61930, Note_on_c, 0, 43, 27
2, 61935, Control_c, 0, 10, 52
2, 61936, Note_on_c, 0, 52, 36
2, 61964, Control_c, 0, 64, 127
2, 61986, Note_on_c, 0, 36, 0
2, 61995, Note_on_c, 0, 43, 0
2, 62019, Note_on_c, 0, 52, 0
2, 62220, Control_c, 0, 10, 62
2, 62221, Note_on_c, 0, 62, 53
2, 62223, Control_c, 0, 10, 57
2, 62224, Note_on_c, 0, 57, 56
2, 62224, Control_c, 0, 10, 52
2, 62225, Note_on_c, 0, 52, 42
2, 62229, Control_c, 0, 64, 0
2, 62235, Note_on_c, 0, 52, 0
2, 62237, Note_on_c, 0, 57, 0
2, 62243, Note_on_c, 0, 62, 0
2, 62272, Note_on_c, 0, 69, 0
2, 62282, Control_c, 0, 10, 61
2, 62283, Note_on_c, 0, 64, 69
2, 62283, Note_on_c, 0, 59, 58
2, 62283, Control_c, 0, 10, 54
2, 62284, Note_on_c, 0, 54, 69
2, 62303, Note_on_c, 0, 78, 0
2, 62319, Control_c, 0, 64, 127
2, 62345, Control_c, 0, 64, 0
2, 62388, Control_c, 0, 64, 127
2, 62403, Note_on_c, 0, 59, 0
2, 62407, Note_on_c, 0, 64, 0
2, 62427, Note_on_c, 0, 54, 0
2, 62471, Control_c, 0, 10, 52
2, 62472, Note_on_c, 0, 52, 49
2, 62472, Control_c, 0, 10, 62
2, 62473, Note_on_c, 0, 62, 38
2, 62474, Control_c, 0, 10, 57
2, 62475, Note_on_c, 0, 57, 47
2, 62484, Control_c, 0, 64, 0
2, 62507, Control_c, 0, 64, 127
2, 62669, Note_on_c, 0, 57, 0
2, 62673, Note_on_c, 0, 52, 0
2, 62685, Note_on_c, 0, 62, 0
2, 62890, Control_c, 0, 10, 77
2, 62891, Note_on_c, 0, 91, 78
2, 62891, Note_on_c, 0, 79, 62
2, 62891, Note_on_c, 0, 63, 73
2, 62892, Control_c, 0, 10, 84
2, 62893, Note_on_c, 0, 84, 66
2, 62893, Control_c, 0, 10, 53
2, 62894, Note_on_c, 0, 53, 51
2, 62897, Control_c, 0, 10, 58
2, 62898, Note_on_c, 0, 58, 52
2, 62904, Control_c, 0, 64, 0
2, 62919, Note_on_c, 0, 84, 0
2, 62927, Note_on_c, 0, 91, 0
2, 62930, Control_c, 0, 10, 89
2, 62931, Note_on_c, 0, 89, 54
2, 62932, Note_on_c, 0, 79, 0
2, 62949, Note_on_c, 0, 53, 0
2, 62950, Note_on_c, 0, 58, 0
2, 62951, Note_on_c, 0, 63, 0
2, 62957, Note_on_c, 0, 89, 0
2, 63180, Control_c, 0, 10, 83
2, 63181, Note_on_c, 0, 77, 64
2, 63181, Note_on_c, 0, 89, 67
2, 63183, Control_c, 0, 10, 65
2, 63184, Note_on_c, 0, 65, 57
2, 63185, Control_c, 0, 10, 55
2, 63186, Note_on_c, 0, 55, 54
2, 63187, Control_c, 0, 10, 60
2, 63188, Note_on_c, 0, 60, 49
2, 63198, Note_on_c, 0, 60, 0
2, 63198, Note_on_c, 0, 65, 0
2, 63204, Note_on_c, 0, 89, 0
2, 63205, Note_on_c, 0, 55, 0
2, 63206, Note_on_c, 0, 77, 0
2, 63248, Control_c, 0, 10, 87
2, 63249, Note_on_c, 0, 87, 72
2, 63251, Control_c, 0, 10, 63
2, 63252, Note_on_c, 0, 63, 63
2, 63255, Control_c, 0, 10, 58
2, 63256, Note_on_c, 0, 58, 39
2, 63261, Control_c, 0, 10, 53
2, 63262, Note_on_c, 0, 53, 28
2, 63265, Note_on_c, 0, 63, 0
2, 63272, Note_on_c, 0, 87, 0
2, 63273, Note_on_c, 0, 53, 0
2, 63277, Note_on_c, 0, 58, 0
2, 63418, Control_c, 0, 10, 65
2, 63419, Note_on_c, 0, 65, 57
2, 63420, Control_c, 0, 10, 55
2, 63421, Note_on_c, 0, 55, 49
2, 63422, Control_c, 0, 10, 84
2, 63423, Note_on_c, 0, 84, 57
2, 63425, Control_c, 0, 10, 60
2, 63426, Note_on_c, 0, 60, 39
2, 63431, Note_on_c, 0, 65, 0
2, 63433, Note_on_c, 0, 84, 0
2, 63436, Note_on_c, 0, 60, 0
2, 63440, Note_on_c, 0, 55, 0
2, 63543, Note_on_c, 0, 63, 49
2, 63543, Note_on_c, 0, 58, 46
2, 63553, Note_on_c, 0, 63, 0
2, 63569, Note_on_c, 0, 58, 0
2, 63604, Control_c, 0, 10, 77
2, 63605, Note_on_c, 0, 77, 46
2, 63605, Control_c, 0, 10, 79
2, 63606, Note_on_c, 0, 79, 44
2, 63618, Note_on_c, 0, 79, 0
2, 63621, Note_on_c, 0, 77, 0
2, 63723, Control_c, 0, 10, 63
2, 63724, Note_on_c, 0, 63, 49
2, 63724, Control_c, 0, 10, 77
2, 63725, Note_on_c, 0, 77, 56
2, 63728, Control_c, 0, 10, 55
2, 63729, Note_on_c, 0, 58, 36
2, 63729, Note_on_c, 0, 53, 35
2, 63749, Note_on_c, 0, 53, 0
2, 63778, Note_on_c, 0, 58, 0
2, 63790, Note_on_c, 0, 63, 0
2, 63840, Control_c, 0, 10, 56
2, 63841, Note_on_c, 0, 56, 30
2, 63843, Control_c, 0, 10, 65
2, 63844, Note_on_c, 0, 65, 32
2, 63846, Control_c, 0, 10, 60
2, 63847, Note_on_c, 0, 60, 35
2, 63850, Control_c, 0, 10, 61
2, 63851, Note_on_c, 0, 61, 30
2, 63968, Note_on_c, 0, 65, 0
2, 63969, Note_on_c, 0, 60, 0
2, 63969, Note_on_c, 0, 56, 0
2, 63987, Note_on_c, 0, 61, 0
2, 64029, Control_c, 0, 10, 65
2, 64030, Note_on_c, 0, 65, 45
2, 64030, Control_c, 0, 10, 60
2, 64031, Note_on_c, 0, 60, 47
2, 64031, Note_on_c, 0, 61, 35
2, 64031, Control_c, 0, 10, 56
2, 64032, Note_on_c, 0, 56, 32
2, 64137, Note_on_c, 0, 65, 0
2, 64141, Note_on_c, 0, 60, 0
2, 64150, Note_on_c, 0, 61, 0
2, 64152, Note_on_c, 0, 56, 0
2, 64198, Control_c, 0, 10, 60
2, 64199, Note_on_c, 0, 65, 42
2, 64199, Note_on_c, 0, 55, 43
2, 64200, Control_c, 0, 10, 61
2, 64201, Note_on_c, 0, 61, 40
2, 64266, Note_on_c, 0, 77, 0
2, 64333, Note_on_c, 0, 65, 0
2, 64343, Note_on_c, 0, 55, 0
2, 64361, Note_on_c, 0, 61, 0
2, 64376, Note_on_c, 0, 61, 27
2, 64377, Control_c, 0, 10, 59
2, 64378, Note_on_c, 0, 64, 46
2, 64378, Note_on_c, 0, 55, 36
2, 64506, Control_c, 0, 10, 84
2, 64507, Note_on_c, 0, 84, 58
2, 64517, Note_on_c, 0, 84, 0
2, 64556, Note_on_c, 0, 64, 0
2, 64568, Note_on_c, 0, 84, 73
2, 64568, Control_c, 0, 10, 72
2, 64569, Note_on_c, 0, 72, 62
2, 64572, Note_on_c, 0, 61, 0
2, 64591, Note_on_c, 0, 72, 0
2, 64592, Note_on_c, 0, 84, 0
2, 64594, Note_on_c, 0, 55, 0
2, 64629, Control_c, 0, 10, 82
2, 64630, Note_on_c, 0, 82, 64
2, 64631, Control_c, 0, 10, 70
2, 64632, Note_on_c, 0, 70, 60
2, 64632, Control_c, 0, 10, 61
2, 64633, Note_on_c, 0, 61, 44
2, 64633, Control_c, 0, 10, 55
2, 64634, Note_on_c, 0, 55, 43
2, 64639, Control_c, 0, 10, 64
2, 64640, Note_on_c, 0, 64, 30
2, 64652, Note_on_c, 0, 70, 0
2, 64660, Note_on_c, 0, 82, 0
2, 64662, Note_on_c, 0, 64, 0
2, 64688, Note_on_c, 0, 61, 0
2, 64694, Note_on_c, 0, 55, 0
2, 64747, Control_c, 0, 10, 78
2, 64748, Note_on_c, 0, 78, 42
2, 64759, Note_on_c, 0, 78, 0
2, 64800, Note_on_c, 0, 72, 54
2, 64800, Note_on_c, 0, 80, 35
2, 64800, Note_on_c, 0, 84, 60
2, 64801, Control_c, 0, 10, 58
2, 64802, Note_on_c, 0, 63, 42
2, 64802, Note_on_c, 0, 53, 48
2, 64803, Control_c, 0, 10, 67
2, 64804, Note_on_c, 0, 77, 40
2, 64804, Note_on_c, 0, 58, 37
2, 64822, Note_on_c, 0, 72, 0
2, 64824, Note_on_c, 0, 77, 0
2, 64836, Note_on_c, 0, 80, 0
2, 64843, Note_on_c, 0, 84, 0
2, 64846, Note_on_c, 0, 53, 0
2, 64851, Note_on_c, 0, 63, 0
2, 64858, Note_on_c, 0, 58, 0
2, 64911, Control_c, 0, 10, 84
2, 64912, Note_on_c, 0, 84, 66
2, 64913, Control_c, 0, 10, 80
2, 64914, Note_on_c, 0, 80, 35
2, 64914, Control_c, 0, 10, 63
2, 64915, Note_on_c, 0, 63, 48
2, 64916, Control_c, 0, 10, 72
2, 64917, Note_on_c, 0, 72, 43
2, 64917, Control_c, 0, 10, 53
2, 64918, Note_on_c, 0, 53, 50
2, 64918, Control_c, 0, 10, 77
2, 64919, Note_on_c, 0, 77, 50
2, 64920, Control_c, 0, 10, 58
2, 64921, Note_on_c, 0, 58, 42
2, 65038, Control_c, 0, 64, 127
2, 65052, Note_on_c, 0, 63, 0
2, 65057, Note_on_c, 0, 53, 0
2, 65071, Note_on_c, 0, 72, 0
2, 65072, Note_on_c, 0, 77, 0
2, 65072, Note_on_c, 0, 58, 0
2, 65081, Note_on_c, 0, 80, 0
2, 65093, Note_on_c, 0, 84, 0
2, 65105, Control_c, 0, 10, 72
2, 65106, Note_on_c, 0, 72, 39
2, 65107, Control_c, 0, 10, 80
2, 65108, Note_on_c, 0, 80, 29
2, 65108, Control_c, 0, 10, 63
2, 65109, Note_on_c, 0, 63, 34
2, 65109, Control_c, 0, 10, 53
2, 65110, Note_on_c, 0, 53, 35
2, 65110, Control_c, 0, 10, 58
2, 65111, Note_on_c, 0, 58, 36
2, 65112, Control_c, 0, 10, 77
2, 65113, Note_on_c, 0, 77, 42
2, 65134, Note_on_c, 0, 72, 0
2, 65139, Note_on_c, 0, 53, 0
2, 65140, Note_on_c, 0, 77, 0
2, 65148, Note_on_c, 0, 80, 0
2, 65159, Note_on_c, 0, 63, 0
2, 65165, Note_on_c, 0, 58, 0
2, 65221, Control_c, 0, 10, 55
2, 65222, Note_on_c, 0, 55, 65
2, 65222, Control_c, 0, 10, 76
2, 65223, Note_on_c, 0, 65, 71
2, 65223, Note_on_c, 0, 87, 75
2, 65224, Control_c, 0, 10, 67
2, 65225, Note_on_c, 0, 60, 67
2, 65225, Note_on_c, 0, 75, 77
2, 65225, Control_c, 0, 10, 80
2, 65226, Note_on_c, 0, 80, 67
2, 65226, Control_c, 0, 10, 84
2, 65227, Note_on_c, 0, 84, 72
2, 65282, Note_on_c, 0, 84, 0
2, 65282, Note_on_c, 0, 87, 0
2, 65284, Note_on_c, 0, 75, 0
2, 65286, Note_on_c, 0, 65, 0
2, 65286, Note_on_c, 0, 80, 0
2, 65287, Note_on_c, 0, 55, 0
2, 65293, Note_on_c, 0, 60, 0
2, 65348, Control_c, 0, 10, 73
2, 65349, Note_on_c, 0, 63, 71
2, 65349, Note_on_c, 0, 84, 72
2, 65350, Control_c, 0, 10, 58
2, 65351, Note_on_c, 0, 58, 56
2, 65351, Control_c, 0, 10, 76
2, 65352, Note_on_c, 0, 72, 61
2, 65352, Note_on_c, 0, 80, 45
2, 65352, Control_c, 0, 10, 53
2, 65353, Note_on_c, 0, 53, 66
2, 65353, Control_c, 0, 10, 77
2, 65354, Note_on_c, 0, 77, 64
2, 65361, Control_c, 0, 64, 0
2, 65388, Note_on_c, 0, 84, 0
2, 65388, Control_c, 0, 64, 127
2, 65395, Note_on_c, 0, 80, 0
2, 65398, Note_on_c, 0, 77, 0
2, 65399, Note_on_c, 0, 72, 0
2, 65414, Note_on_c, 0, 63, 0
2, 65415, Note_on_c, 0, 53, 0
2, 65439, Note_on_c, 0, 58, 0
2, 65473, Control_c, 0, 10, 80
2, 65474, Note_on_c, 0, 80, 60
2, 65475, Control_c, 0, 10, 68
2, 65476, Note_on_c, 0, 68, 59
2, 65476, Control_c, 0, 10, 75
2, 65477, Note_on_c, 0, 75, 60
2, 65477, Control_c, 0, 10, 53
2, 65478, Note_on_c, 0, 53, 58
2, 65478, Control_c, 0, 10, 63
2, 65479, Note_on_c, 0, 63, 54
2, 65480, Control_c, 0, 10, 58
2, 65481, Note_on_c, 0, 58, 52
2, 65493, Control_c, 0, 64, 0
2, 65501, Control_c, 0, 64, 127
2, 65509, Note_on_c, 0, 68, 0
2, 65516, Note_on_c, 0, 80, 0
2, 65517, Note_on_c, 0, 75, 0
2, 65519, Note_on_c, 0, 63, 0
2, 65561, Note_on_c, 0, 58, 0
2, 65563, Note_on_c, 0, 53, 0
2, 65646, Control_c, 0, 10, 72
2, 65647, Note_on_c, 0, 72, 61
2, 65647, Control_c, 0, 10, 65
2, 65648, Note_on_c, 0, 65, 53
2, 65652, Note_on_c, 0, 62, 62
2, 65652, Note_on_c, 0, 69, 54
2, 65653, Control_c, 0, 10, 60
2, 65654, Note_on_c, 0, 60, 55
2, 65655, Control_c, 0, 10, 58
2, 65656, Note_on_c, 0, 58, 33
2, 65670, Control_c, 0, 64, 0
2, 65711, Control_c, 0, 64, 127
2, 65740, Control_c, 0, 64, 0
2, 65777, Control_c, 0, 64, 127
2, 65794, Note_on_c, 0, 60, 0
2, 65811, Note_on_c, 0, 62, 0
2, 65843, Note_on_c, 0, 58, 0
2, 65890, Note_on_c, 0, 65, 0
2, 65902, Note_on_c, 0, 69, 0
2, 65917, Note_on_c, 0, 72, 0
2, 65961, Control_c, 0, 10, 62
2, 65962, Note_on_c, 0, 62, 47
2, 65966, Control_c, 0, 10, 59
2, 65967, Note_on_c, 0, 60, 42
2, 65967, Note_on_c, 0, 58, 32
2, 66065, Control_c, 0, 64, 0
2, 66069, Control_c, 0, 10, 84
2, 66070, Note_on_c, 0, 84, 87
2, 66073, Control_c, 0, 10, 72
2, 66074, Note_on_c, 0, 72, 65
2, 66098, Note_on_c, 0, 72, 0
2, 66103, Note_on_c, 0, 84, 0
2, 66137, Control_c, 0, 10, 82
2, 66138, Note_on_c, 0, 82, 31
2, 66153, Note_on_c, 0, 60, 0
2, 66158, Note_on_c, 0, 82, 0
2, 66161, Note_on_c, 0, 62, 0
2, 66188, Control_c, 0, 10, 84
2, 66189, Note_on_c, 0, 84, 78
2, 66191, Control_c, 0, 10, 72
2, 66192, Note_on_c, 0, 72, 66
2, 66220, Note_on_c, 0, 72, 0
2, 66220, Note_on_c, 0, 84, 0
2, 66222, Note_on_c, 0, 58, 0
2, 66313, Control_c, 0, 10, 85
2, 66314, Note_on_c, 0, 85, 81
2, 66315, Control_c, 0, 10, 73
2, 66316, Note_on_c, 0, 73, 75
2, 66317, Control_c, 0, 10, 57
2, 66318, Note_on_c, 0, 63, 56
2, 66318, Note_on_c, 0, 52, 62
2, 66319, Control_c, 0, 10, 58
2, 66320, Note_on_c, 0, 58, 48
2, 66340, Note_on_c, 0, 63, 0
2, 66353, Note_on_c, 0, 73, 0
2, 66355, Note_on_c, 0, 85, 0
2, 66355, Note_on_c, 0, 52, 0
2, 66356, Note_on_c, 0, 58, 0
2, 66395, Control_c, 0, 10, 83
2, 66396, Note_on_c, 0, 83, 18
2, 66411, Note_on_c, 0, 83, 0
2, 66433, Control_c, 0, 10, 85
2, 66434, Note_on_c, 0, 85, 71
2, 66434, Control_c, 0, 10, 36
2, 66435, Note_on_c, 0, 36, 65
2, 66436, Control_c, 0, 10, 73
2, 66437, Note_on_c, 0, 73, 64
2, 66445, Note_on_c, 0, 36, 0
2, 66463, Note_on_c, 0, 73, 0
2, 66468, Note_on_c, 0, 85, 0
2, 66552, Control_c, 0, 10, 87
2, 66553, Note_on_c, 0, 87, 83
2, 66553, Control_c, 0, 10, 75
2, 66554, Note_on_c, 0, 75, 82
2, 66555, Control_c, 0, 10, 52
2, 66556, Note_on_c, 0, 52, 66
2, 66556, Control_c, 0, 10, 63
2, 66557, Note_on_c, 0, 63, 59
2, 66559, Control_c, 0, 10, 58
2, 66560, Note_on_c, 0, 58, 53
2, 66575, Note_on_c, 0, 63, 0
2, 66585, Note_on_c, 0, 75, 0
2, 66589, Note_on_c, 0, 87, 0
2, 66597, Note_on_c, 0, 52, 0
2, 66598, Note_on_c, 0, 58, 0
2, 66613, Control_c, 0, 10, 85
2, 66614, Note_on_c, 0, 85, 40
2, 66652, Note_on_c, 0, 85, 0
2, 66672, Control_c, 0, 10, 82
2, 66673, Note_on_c, 0, 87, 65
2, 66673, Note_on_c, 0, 75, 72
2, 66673, Note_on_c, 0, 85, 35
2, 66709, Note_on_c, 0, 75, 0
2, 66710, Note_on_c, 0, 87, 0
2, 66711, Note_on_c, 0, 85, 0
2, 66718, Control_c, 0, 10, 41
2, 66719, Note_on_c, 0, 41, 48
2, 66725, Control_c, 0, 10, 48
2, 66726, Note_on_c, 0, 48, 35
2, 66730, Note_on_c, 0, 41, 0
2, 66738, Note_on_c, 0, 48, 0
2, 66788, Control_c, 0, 10, 82
2, 66789, Note_on_c, 0, 76, 74
2, 66789, Note_on_c, 0, 88, 78
2, 66794, Control_c, 0, 10, 72
2, 66795, Note_on_c, 0, 81, 54
2, 66795, Note_on_c, 0, 64, 70
2, 66797, Control_c, 0, 10, 58
2, 66798, Note_on_c, 0, 58, 27
2, 66801, Control_c, 0, 10, 59
2, 66802, Note_on_c, 0, 59, 37
2, 66802, Control_c, 0, 10, 53
2, 66803, Note_on_c, 0, 53, 30
2, 66803, Control_c, 0, 10, 52
2, 66804, Note_on_c, 0, 81, 0
2, 66804, Note_on_c, 0, 52, 24
2, 66809, Note_on_c, 0, 58, 0
2, 66814, Note_on_c, 0, 52, 0
2, 66818, Note_on_c, 0, 64, 0
2, 66824, Note_on_c, 0, 76, 0
2, 66825, Note_on_c, 0, 88, 0
2, 66825, Note_on_c, 0, 59, 0
2, 66832, Note_on_c, 0, 53, 0
2, 66845, Control_c, 0, 10, 86
2, 66846, Note_on_c, 0, 86, 38
2, 66872, Control_c, 0, 64, 127
2, 66885, Note_on_c, 0, 86, 0
2, 66905, Control_c, 0, 10, 88
2, 66906, Note_on_c, 0, 88, 83
2, 66906, Control_c, 0, 10, 47
2, 66907, Note_on_c, 0, 47, 72
2, 66908, Control_c, 0, 10, 76
2, 66909, Note_on_c, 0, 76, 72
2, 66909, Control_c, 0, 10, 40
2, 66910, Note_on_c, 0, 40, 61
2, 66910, Control_c, 0, 10, 41
2, 66911, Note_on_c, 0, 41, 54
2, 66917, Control_c, 0, 64, 0
2, 66917, Control_c, 0, 10, 81
2, 66918, Note_on_c, 0, 81, 38
2, 66929, Note_on_c, 0, 81, 0
2, 66933, Note_on_c, 0, 40, 0
2, 66936, Note_on_c, 0, 41, 0
2, 66938, Note_on_c, 0, 76, 0
2, 66948, Note_on_c, 0, 47, 0
2, 66951, Note_on_c, 0, 88, 0
2, 66956, Control_c, 0, 64, 127
2, 67015, Control_c, 0, 64, 0
2, 67017, Control_c, 0, 10, 57
2, 67018, Note_on_c, 0, 62, 76
2, 67018, Note_on_c, 0, 52, 68
2, 67020, Note_on_c, 0, 57, 66
2, 67024, Control_c, 0, 10, 89
2, 67025, Note_on_c, 0, 89, 79
2, 67025, Control_c, 0, 10, 77
2, 67026, Note_on_c, 0, 77, 72
2, 67030, Control_c, 0, 10, 84
2, 67031, Note_on_c, 0, 84, 50
2, 67042, Note_on_c, 0, 84, 0
2, 67048, Note_on_c, 0, 62, 0
2, 67058, Note_on_c, 0, 77, 0
2, 67058, Note_on_c, 0, 57, 0
2, 67065, Note_on_c, 0, 89, 0
2, 67066, Note_on_c, 0, 52, 0
2, 67086, Control_c, 0, 10, 88
2, 67087, Note_on_c, 0, 88, 55
2, 67092, Control_c, 0, 64, 127
2, 67092, Control_c, 0, 10, 77
2, 67093, Note_on_c, 0, 77, 25
2, 67107, Note_on_c, 0, 77, 0
2, 67120, Note_on_c, 0, 88, 0
2, 67128, Control_c, 0, 64, 0
2, 67142, Control_c, 0, 10, 41
2, 67143, Note_on_c, 0, 41, 73
2, 67143, Control_c, 0, 10, 89
2, 67144, Note_on_c, 0, 89, 77
2, 67144, Control_c, 0, 10, 62
2, 67145, Note_on_c, 0, 48, 74
2, 67145, Note_on_c, 0, 77, 74
2, 67150, Control_c, 0, 10, 84
2, 67151, Note_on_c, 0, 84, 56
2, 67162, Note_on_c, 0, 84, 0
2, 67170, Note_on_c, 0, 41, 0
2, 67179, Note_on_c, 0, 77, 0
2, 67179, Note_on_c, 0, 48, 0
2, 67188, Control_c, 0, 64, 127
2, 67192, Note_on_c, 0, 89, 0
2, 67255, Control_c, 0, 10, 52
2, 67256, Note_on_c, 0, 52, 62
2, 67256, Control_c, 0, 10, 62
2, 67257, Note_on_c, 0, 62, 73
2, 67260, Control_c, 0, 10, 74
2, 67261, Note_on_c, 0, 91, 80
2, 67261, Note_on_c, 0, 57, 65
2, 67261, Control_c, 0, 10, 79
2, 67262, Note_on_c, 0, 79, 74
2, 67266, Control_c, 0, 10, 86
2, 67267, Control_c, 0, 64, 0
2, 67267, Note_on_c, 0, 86, 54
2, 67278, Note_on_c, 0, 86, 0
2, 67278, Note_on_c, 0, 62, 0
2, 67287, Note_on_c, 0, 79, 0
2, 67288, Note_on_c, 0, 57, 0
2, 67298, Note_on_c, 0, 91, 0
2, 67298, Note_on_c, 0, 52, 0
2, 67309, Control_c, 0, 64, 127
2, 67318, Control_c, 0, 10, 89
2, 67319, Note_on_c, 0, 89, 60
2, 67353, Note_on_c, 0, 89, 0
2, 67369, Control_c, 0, 64, 0
2, 67376, Control_c, 0, 10, 41
2, 67377, Note_on_c, 0, 41, 71
2, 67377, Control_c, 0, 10, 91
2, 67378, Note_on_c, 0, 91, 72
2, 67378, Control_c, 0, 10, 48
2, 67379, Note_on_c, 0, 48, 64
2, 67379, Control_c, 0, 10, 79
2, 67380, Note_on_c, 0, 79, 58
2, 67380, Control_c, 0, 10, 86
2, 67381, Note_on_c, 0, 86, 58
2, 67393, Note_on_c, 0, 86, 0
2, 67394, Note_on_c, 0, 79, 0
2, 67398, Note_on_c, 0, 41, 0
2, 67408, Note_on_c, 0, 48, 0
2, 67409, Note_on_c, 0, 91, 0
2, 67412, Control_c, 0, 64, 127
2, 67503, Control_c, 0, 10, 62
2, 67504, Note_on_c, 0, 62, 79
2, 67504, Control_c, 0, 10, 93
2, 67505, Note_on_c, 0, 93, 85
2, 67505, Control_c, 0, 10, 54
2, 67506, Note_on_c, 0, 57, 70
2, 67506, Note_on_c, 0, 52, 71
2, 67507, Control_c, 0, 10, 86
2, 67508, Note_on_c, 0, 86, 74
2, 67508, Control_c, 0, 10, 81
2, 67509, Note_on_c, 0, 81, 73
2, 67519, Note_on_c, 0, 86, 0
2, 67533, Control_c, 0, 64, 0
2, 67540, Note_on_c, 0, 81, 0
2, 67544, Note_on_c, 0, 93, 0
2, 67565, Control_c, 0, 64, 127
2, 67567, Control_c, 0, 10, 91
2, 67568, Note_on_c, 0, 91, 44
2, 67570, Note_on_c, 0, 62, 0
2, 67573, Note_on_c, 0, 52, 0
2, 67584, Note_on_c, 0, 57, 0
2, 67598, Note_on_c, 0, 91, 0
2, 67624, Control_c, 0, 10, 62
2, 67625, Note_on_c, 0, 62, 64
2, 67627, Control_c, 0, 10, 75
2, 67628, Note_on_c, 0, 93, 82
2, 67628, Note_on_c, 0, 57, 61
2, 67628, Control_c, 0, 10, 66
2, 67629, Note_on_c, 0, 81, 70
2, 67629, Note_on_c, 0, 52, 53
2, 67632, Control_c, 0, 10, 86
2, 67633, Note_on_c, 0, 86, 54
2, 67634, Note_on_c, 0, 62, 0
2, 67638, Note_on_c, 0, 57, 0
2, 67642, Note_on_c, 0, 86, 0
2, 67645, Note_on_c, 0, 81, 0
2, 67647, Note_on_c, 0, 52, 0
2, 67657, Note_on_c, 0, 93, 0
2, 67674, Control_c, 0, 64, 0
2, 67687, Control_c, 0, 10, 45
2, 67688, Note_on_c, 0, 45, 72
2, 67697, Note_on_c, 0, 45, 0
2, 67701, Control_c, 0, 64, 127
2, 67752, Control_c, 0, 10, 95
2, 67753, Note_on_c, 0, 95, 84
2, 67754, Control_c, 0, 10, 73
2, 67755, Note_on_c, 0, 83, 77
2, 67755, Note_on_c, 0, 64, 71
2, 67755, Control_c, 0, 10, 89
2, 67756, Note_on_c, 0, 88, 70
2, 67756, Note_on_c, 0, 91, 61
2, 67757, Control_c, 0, 10, 60
2, 67758, Note_on_c, 0, 62, 70
2, 67758, Note_on_c, 0, 59, 47
2, 67758, Control_c, 0, 10, 57
2, 67759, Note_on_c, 0, 60, 66
2, 67759, Control_c, 0, 64, 0
2, 67759, Note_on_c, 0, 55, 60
2, 67766, Note_on_c, 0, 62, 0
2, 67785, Note_on_c, 0, 91, 0
2, 67788, Note_on_c, 0, 83, 0
2, 67791, Note_on_c, 0, 95, 0
2, 67792, Note_on_c, 0, 88, 0
2, 67802, Control_c, 0, 64, 127
2, 67803, Note_on_c, 0, 60, 0
2, 67806, Note_on_c, 0, 59, 0
2, 67811, Control_c, 0, 10, 93
2, 67812, Note_on_c, 0, 93, 61
2, 67819, Control_c, 0, 10, 81
2, 67820, Note_on_c, 0, 81, 49
2, 67822, Control_c, 0, 10, 60
2, 67823, Note_on_c, 0, 60, 32
2, 67827, Control_c, 0, 10, 59
2, 67828, Note_on_c, 0, 59, 29
2, 67836, Note_on_c, 0, 81, 0
2, 67842, Note_on_c, 0, 55, 0
2, 67842, Note_on_c, 0, 59, 0
2, 67844, Note_on_c, 0, 64, 0
2, 67848, Note_on_c, 0, 93, 0
2, 67850, Note_on_c, 0, 60, 0
2, 67870, Control_c, 0, 64, 0
2, 67871, Control_c, 0, 10, 70
2, 67872, Note_on_c, 0, 60, 67
2, 67872, Note_on_c, 0, 55, 63
2, 67872, Note_on_c, 0, 95, 77
2, 67872, Control_c, 0, 10, 68
2, 67873, Note_on_c, 0, 64, 65
2, 67873, Note_on_c, 0, 59, 64
2, 67873, Note_on_c, 0, 83, 68
2, 67874, Control_c, 0, 10, 88
2, 67875, Note_on_c, 0, 88, 66
2, 67890, Note_on_c, 0, 83, 0
2, 67891, Note_on_c, 0, 88, 0
2, 67896, Note_on_c, 0, 60, 0
2, 67896, Note_on_c, 0, 64, 0
2, 67900, Note_on_c, 0, 55, 0
2, 67900, Note_on_c, 0, 59, 0
2, 67903, Note_on_c, 0, 95, 0
2, 67908, Control_c, 0, 64, 127
2, 67993, Control_c, 0, 10, 61
2, 67994, Note_on_c, 0, 64, 71
2, 67994, Note_on_c, 0, 60, 71
2, 67994, Note_on_c, 0, 59, 65
2, 67994, Control_c, 0, 10, 75
2, 67995, Note_on_c, 0, 55, 66
2, 67995, Note_on_c, 0, 96, 84
2, 67998, Control_c, 0, 10, 84
2, 67999, Note_on_c, 0, 84, 74
2, 68000, Control_c, 0, 10, 91
2, 68001, Note_on_c, 0, 91, 62
2, 68014, Control_c, 0, 64, 0
2, 68019, Note_on_c, 0, 84, 0
2, 68021, Note_on_c, 0, 91, 0
2, 68030, Note_on_c, 0, 96, 0
2, 68032, Note_on_c, 0, 64, 0
2, 68035, Note_on_c, 0, 55, 0
2, 68038, Note_on_c, 0, 59, 0
2, 68040, Note_on_c, 0, 60, 0
2, 68053, Control_c, 0, 10, 95
2, 68054, Note_on_c, 0, 95, 67
2, 68054, Control_c, 0, 10, 64
2, 68055, Note_on_c, 0, 64, 54
2, 68055, Control_c, 0, 10, 83
2, 68056, Note_on_c, 0, 83, 58
2, 68057, Control_c, 0, 10, 58
2, 68058, Note_on_c, 0, 55, 48
2, 68058, Note_on_c, 0, 59, 44
2, 68058, Note_on_c, 0, 60, 49
2, 68069, Control_c, 0, 64, 127
2, 68077, Note_on_c, 0, 83, 0
2, 68078, Note_on_c, 0, 64, 0
2, 68080, Note_on_c, 0, 55, 0
2, 68082, Note_on_c, 0, 59, 0
2, 68083, Note_on_c, 0, 60, 0
2, 68088, Note_on_c, 0, 95, 0
2, 68101, Control_c, 0, 64, 0
2, 68113, Control_c, 0, 10, 59
2, 68114, Note_on_c, 0, 59, 54
2, 68114, Control_c, 0, 10, 70
2, 68115, Note_on_c, 0, 60, 64
2, 68115, Note_on_c, 0, 96, 81
2, 68115, Note_on_c, 0, 55, 66
2, 68116, Control_c, 0, 10, 74
2, 68117, Note_on_c, 0, 84, 80
2, 68117, Note_on_c, 0, 64, 66
2, 68141, Note_on_c, 0, 84, 0
2, 68145, Note_on_c, 0, 96, 0
2, 68163, Note_on_c, 0, 59, 0
2, 68163, Note_on_c, 0, 60, 0
2, 68163, Note_on_c, 0, 64, 0
2, 68172, Note_on_c, 0, 55, 0
2, 68184, Control_c, 0, 64, 127
2, 68231, Control_c, 0, 10, 97
2, 68232, Note_on_c, 0, 97, 80
2, 68233, Control_c, 0, 10, 54
2, 68234, Note_on_c, 0, 54, 65
2, 68234, Control_c, 0, 10, 62
2, 68235, Note_on_c, 0, 65, 72
2, 68235, Note_on_c, 0, 60, 70
2, 68235, Control_c, 0, 10, 85
2, 68236, Note_on_c, 0, 85, 77
2, 68237, Control_c, 0, 64, 0
2, 68241, Control_c, 0, 10, 58
2, 68242, Note_on_c, 0, 58, 35
2, 68245, Control_c, 0, 10, 87
2, 68246, Note_on_c, 0, 87, 27
2, 68253, Note_on_c, 0, 58, 0
2, 68255, Note_on_c, 0, 87, 0
2, 68277, Note_on_c, 0, 65, 0
2, 68283, Note_on_c, 0, 97, 0
2, 68284, Note_on_c, 0, 60, 0
2, 68286, Note_on_c, 0, 85, 0
2, 68290, Control_c, 0, 64, 127
2, 68292, Control_c, 0, 10, 97
2, 68293, Note_on_c, 0, 97, 20
2, 68302, Note_on_c, 0, 97, 0
2, 68303, Control_c, 0, 10, 60
2, 68304, Note_on_c, 0, 60, 40
2, 68308, Control_c, 0, 10, 84
2, 68309, Note_on_c, 0, 84, 37
2, 68321, Note_on_c, 0, 84, 0
2, 68330, Note_on_c, 0, 60, 0
2, 68339, Note_on_c, 0, 54, 0
2, 68354, Control_c, 0, 10, 54
2, 68355, Note_on_c, 0, 54, 57
2, 68356, Control_c, 0, 10, 62
2, 68357, Note_on_c, 0, 65, 74
2, 68357, Note_on_c, 0, 60, 68
2, 68358, Control_c, 0, 10, 91
2, 68359, Note_on_c, 0, 85, 79
2, 68359, Note_on_c, 0, 97, 76
2, 68360, Control_c, 0, 10, 58
2, 68361, Note_on_c, 0, 58, 48
2, 68380, Control_c, 0, 64, 0
2, 68392, Note_on_c, 0, 85, 0
2, 68398, Note_on_c, 0, 97, 0
2, 68398, Note_on_c, 0, 65, 0
2, 68405, Note_on_c, 0, 60, 0
2, 68415, Note_on_c, 0, 58, 0
2, 68422, Control_c, 0, 64, 127
2, 68427, Note_on_c, 0, 54, 0
2, 68472, Control_c, 0, 64, 0
2, 68472, Control_c, 0, 10, 59
2, 68473, Note_on_c, 0, 54, 74
2, 68473, Note_on_c, 0, 64, 79
2, 68473, Control_c, 0, 10, 78
2, 68474, Note_on_c, 0, 59, 74
2, 68474, Note_on_c, 0, 98, 72
2, 68475, Control_c, 0, 10, 86
2, 68476, Note_on_c, 0, 86, 71
2, 68507, Note_on_c, 0, 86, 0
2, 68507, Note_on_c, 0, 98, 0
2, 68519, Note_on_c, 0, 59, 0
2, 68521, Note_on_c, 0, 64, 0
2, 68521, Note_on_c, 0, 54, 0
2, 68542, Control_c, 0, 64, 127
2, 68545, Control_c, 0, 10, 59
2, 68546, Note_on_c, 0, 59, 33
2, 68548, Control_c, 0, 10, 54
2, 68549, Note_on_c, 0, 54, 26
2, 68565, Note_on_c, 0, 59, 0
2, 68567, Note_on_c, 0, 54, 0
2, 68596, Control_c, 0, 10, 64
2, 68597, Note_on_c, 0, 64, 66
2, 68597, Control_c, 0, 10, 54
2, 68598, Note_on_c, 0, 54, 49
2, 68600, Control_c, 0, 10, 59
2, 68601, Note_on_c, 0, 59, 35
2, 68615, Note_on_c, 0, 59, 0
2, 68616, Note_on_c, 0, 54, 0
2, 68620, Note_on_c, 0, 64, 0
2, 68623, Control_c, 0, 64, 0
2, 68644, Control_c, 0, 10, 54
2, 68645, Note_on_c, 0, 54, 57
2, 68645, Control_c, 0, 10, 65
2, 68646, Note_on_c, 0, 65, 73
2, 68646, Control_c, 0, 10, 99
2, 68647, Note_on_c, 0, 99, 67
2, 68648, Control_c, 0, 10, 87
2, 68649, Note_on_c, 0, 87, 60
2, 68649, Control_c, 0, 10, 71
2, 68650, Note_on_c, 0, 61, 61
2, 68650, Note_on_c, 0, 94, 65
2, 68650, Note_on_c, 0, 58, 61
2, 68656, Control_c, 0, 10, 64
2, 68657, Note_on_c, 0, 64, 30
2, 68667, Note_on_c, 0, 64, 0
2, 68681, Control_c, 0, 64, 127
2, 68732, Note_on_c, 0, 65, 0
2, 68733, Note_on_c, 0, 54, 0
2, 68734, Note_on_c, 0, 87, 0
2, 68737, Note_on_c, 0, 99, 0
2, 68741, Note_on_c, 0, 94, 0
2, 68744, Note_on_c, 0, 61, 0
2, 68744, Note_on_c, 0, 58, 0
2, 68751, Control_c, 0, 64, 0
2, 68762, Control_c, 0, 10, 61
2, 68763, Note_on_c, 0, 61, 54
2, 68764, Control_c, 0, 10, 65
2, 68765, Note_on_c, 0, 65, 48
2, 68767, Control_c, 0, 10, 91
2, 68768, Note_on_c, 0, 97, 44
2, 68768, Note_on_c, 0, 85, 44
2, 68768, Control_c, 0, 10, 58
2, 68769, Note_on_c, 0, 58, 37
2, 68770, Control_c, 0, 10, 54
2, 68771, Note_on_c, 0, 54, 30
2, 68780, Control_c, 0, 64, 127
2, 68787, Note_on_c, 0, 85, 0
2, 68790, Note_on_c, 0, 97, 0
2, 68791, Note_on_c, 0, 65, 0
2, 68809, Note_on_c, 0, 54, 0
2, 68822, Note_on_c, 0, 61, 0
2, 68826, Note_on_c, 0, 58, 0
2, 68836, Control_c, 0, 10, 59
2, 68837, Note_on_c, 0, 54, 72
2, 68837, Note_on_c, 0, 60, 75
2, 68837, Note_on_c, 0, 64, 76
2, 68841, Control_c, 0, 10, 88
2, 68842, Note_on_c, 0, 88, 73
2, 68843, Control_c, 0, 64, 0
2, 68843, Control_c, 0, 10, 58
2, 68844, Note_on_c, 0, 58, 32
2, 68848, Control_c, 0, 10, 100
2, 68849, Note_on_c, 0, 100, 25
2, 68856, Note_on_c, 0, 58, 0
2, 68863, Note_on_c, 0, 100, 0
2, 68867, Note_on_c, 0, 88, 0
2, 68880, Control_c, 0, 64, 127
2, 68910, Note_on_c, 0, 54, 0
2, 68913, Note_on_c, 0, 64, 0
2, 68917, Note_on_c, 0, 60, 0
2, 68951, Control_c, 0, 10, 54
2, 68952, Note_on_c, 0, 54, 73
2, 68952, Control_c, 0, 10, 82
2, 68953, Note_on_c, 0, 101, 69
2, 68953, Note_on_c, 0, 64, 78
2, 68953, Control_c, 0, 10, 60
2, 68954, Note_on_c, 0, 60, 74
2, 68956, Control_c, 0, 10, 77
2, 68957, Note_on_c, 0, 96, 67
2, 68957, Note_on_c, 0, 58, 55
2, 68959, Control_c, 0, 10, 89
2, 68960, Note_on_c, 0, 89, 35
2, 68962, Control_c, 0, 10, 91
2, 68963, Note_on_c, 0, 91, 46
2, 68963, Control_c, 0, 64, 0
2, 68973, Note_on_c, 0, 91, 0
2, 68992, Note_on_c, 0, 89, 0
2, 68997, Note_on_c, 0, 96, 0
2, 68997, Control_c, 0, 64, 127
2, 69000, Note_on_c, 0, 101, 0
2, 69017, Note_on_c, 0, 58, 0
2, 69019, Note_on_c, 0, 64, 0
2, 69025, Note_on_c, 0, 60, 0
2, 69027, Note_on_c, 0, 54, 0
2, 69066, Control_c, 0, 10, 56
2, 69067, Note_on_c, 0, 60, 78
2, 69067, Note_on_c, 0, 53, 71
2, 69067, Control_c, 0, 10, 64
2, 69068, Note_on_c, 0, 64, 77
2, 69068, Control_c, 0, 10, 91
2, 69069, Note_on_c, 0, 91, 75
2, 69069, Control_c, 0, 10, 57
2, 69070, Note_on_c, 0, 57, 66
2, 69070, Control_c, 0, 10, 99
2, 69071, Note_on_c, 0, 96, 76
2, 69071, Note_on_c, 0, 103, 78
2, 69071, Control_c, 0, 10, 100
2, 69072, Note_on_c, 0, 100, 64
2, 69076, Control_c, 0, 64, 0
2, 69103, Note_on_c, 0, 64, 0
2, 69106, Note_on_c, 0, 60, 0
2, 69107, Control_c, 0, 64, 127
2, 69112, Note_on_c, 0, 57, 0
2, 69114, Note_on_c, 0, 96, 0
2, 69116, Note_on_c, 0, 91, 0
2, 69120, Note_on_c, 0, 53, 0
2, 69125, Note_on_c, 0, 100, 0
2, 69131, Note_on_c, 0, 103, 0
2, 69193, Control_c, 0, 10, 105
2, 69194, Note_on_c, 0, 105, 85
2, 69195, Control_c, 0, 10, 74
2, 69196, Note_on_c, 0, 93, 90
2, 69196, Note_on_c, 0, 55, 81
2, 69196, Control_c, 0, 64, 0
2, 69196, Control_c, 0, 10, 43
2, 69197, Note_on_c, 0, 43, 88
2, 69198, Control_c, 0, 10, 49
2, 69199, Note_on_c, 0, 49, 63
2, 69199, Control_c, 0, 10, 99
2, 69200, Note_on_c, 0, 99, 54
2, 69202, Control_c, 0, 10, 44
2, 69203, Note_on_c, 0, 44, 51
2, 69204, Control_c, 0, 10, 53
2, 69205, Note_on_c, 0, 53, 45
2, 69208, Note_on_c, 0, 99, 0
2, 69208, Note_on_c, 0, 49, 0
2, 69212, Note_on_c, 0, 44, 0
2, 69213, Note_on_c, 0, 53, 0
2, 69229, Control_c, 0, 64, 127
2, 69234, Note_on_c, 0, 55, 0
2, 69234, Note_on_c, 0, 43, 0
2, 69239, Note_on_c, 0, 93, 0
2, 69246, Note_on_c, 0, 105, 0
2, 69305, Note_on_c, 0, 53, 81
2, 69306, Control_c, 0, 10, 64
2, 69307, Note_on_c, 0, 64, 82
2, 69308, Control_c, 0, 10, 79
2, 69309, Note_on_c, 0, 59, 73
2, 69309, Note_on_c, 0, 99, 81
2, 69309, Control_c, 0, 10, 107
2, 69310, Note_on_c, 0, 107, 83
2, 69310, Control_c, 0, 10, 95
2, 69311, Note_on_c, 0, 95, 80
2, 69317, Control_c, 0, 64, 0
2, 69346, Control_c, 0, 64, 127
2, 69367, Note_on_c, 0, 107, 0
2, 69371, Note_on_c, 0, 64, 0
2, 69372, Note_on_c, 0, 53, 0
2, 69376, Note_on_c, 0, 95, 0
2, 69385, Note_on_c, 0, 59, 0
2, 69390, Note_on_c, 0, 99, 0
2, 69432, Control_c, 0, 10, 63
2, 69433, Note_on_c, 0, 63, 87
2, 69433, Control_c, 0, 10, 80
2, 69434, Note_on_c, 0, 104, 75
2, 69434, Note_on_c, 0, 56, 64
2, 69434, Control_c, 0, 10, 75
2, 69435, Note_on_c, 0, 92, 83
2, 69435, Note_on_c, 0, 99, 77
2, 69435, Note_on_c, 0, 53, 84
2, 69435, Note_on_c, 0, 59, 74
2, 69454, Control_c, 0, 64, 0
2, 69481, Control_c, 0, 64, 127
2, 69570, Note_on_c, 0, 53, 0
2, 69576, Note_on_c, 0, 92, 0
2, 69578, Note_on_c, 0, 63, 0
2, 69581, Note_on_c, 0, 56, 0
2, 69582, Note_on_c, 0, 104, 0
2, 69582, Note_on_c, 0, 59, 0
2, 69584, Note_on_c, 0, 99, 0
2, 69606, Control_c, 0, 10, 59
2, 69607, Note_on_c, 0, 59, 64
2, 69609, Control_c, 0, 10, 62
2, 69610, Note_on_c, 0, 62, 80
2, 69610, Control_c, 0, 10, 103
2, 69611, Note_on_c, 0, 103, 72
2, 69612, Control_c, 0, 10, 55
2, 69613, Note_on_c, 0, 55, 67
2, 69613, Control_c, 0, 10, 80
2, 69614, Note_on_c, 0, 91, 66
2, 69614, Note_on_c, 0, 98, 73
2, 69614, Note_on_c, 0, 52, 68
2, 69622, Control_c, 0, 64, 0
2, 69661, Control_c, 0, 64, 127
2, 69716, Note_on_c, 0, 59, 0
2, 69754, Note_on_c, 0, 55, 0
2, 69763, Note_on_c, 0, 62, 0
2, 69764, Note_on_c, 0, 91, 0
2, 69764, Note_on_c, 0, 52, 0
2, 69772, Note_on_c, 0, 98, 0
2, 69782, Note_on_c, 0, 103, 0
2, 69917, Control_c, 0, 10, 62
2, 69918, Note_on_c, 0, 62, 69
2, 69921, Control_c, 0, 10, 54
2, 69922, Note_on_c, 0, 52, 60
2, 69922, Note_on_c, 0, 57, 62
2, 69939, Control_c, 0, 64, 0
2, 69966, Control_c, 0, 64, 127
2, 70071, Note_on_c, 0, 57, 0
2, 70072, Note_on_c, 0, 62, 0
2, 70090, Control_c, 0, 10, 62
2, 70091, Note_on_c, 0, 62, 47
2, 70091, Control_c, 0, 10, 57
2, 70092, Note_on_c, 0, 57, 47
2, 70093, Control_c, 0, 10, 87
2, 70094, Note_on_c, 0, 88, 64
2, 70094, Note_on_c, 0, 86, 66
2, 70103, Control_c, 0, 64, 0
2, 70104, Note_on_c, 0, 86, 0
2, 70104, Note_on_c, 0, 88, 0
2, 70122, Control_c, 0, 10, 86
2, 70123, Note_on_c, 0, 86, 54
2, 70123, Control_c, 0, 10, 88
2, 70124, Note_on_c, 0, 88, 67
2, 70149, Note_on_c, 0, 88, 0
2, 70149, Control_c, 0, 64, 127
2, 70168, Note_on_c, 0, 86, 0
2, 70170, Control_c, 0, 64, 0
2, 70172, Note_on_c, 0, 57, 0
2, 70187, Control_c, 0, 10, 79
2, 70188, Note_on_c, 0, 79, 73
2, 70188, Control_c, 0, 10, 57
2, 70189, Note_on_c, 0, 57, 30
2, 70208, Note_on_c, 0, 79, 0
2, 70224, Control_c, 0, 10, 79
2, 70225, Note_on_c, 0, 79, 64
2, 70229, Note_on_c, 0, 62, 0
2, 70233, Control_c, 0, 64, 127
2, 70254, Note_on_c, 0, 79, 0
2, 70258, Note_on_c, 0, 57, 0
2, 70273, Control_c, 0, 10, 83
2, 70274, Note_on_c, 0, 83, 85
2, 70281, Control_c, 0, 10, 62
2, 70282, Note_on_c, 0, 62, 50
2, 70283, Control_c, 0, 10, 57
2, 70284, Note_on_c, 0, 57, 53
2, 70286, Control_c, 0, 64, 0
2, 70302, Note_on_c, 0, 83, 0
2, 70316, Control_c, 0, 10, 83
2, 70317, Note_on_c, 0, 83, 80
2, 70318, Note_on_c, 0, 62, 0
2, 70345, Control_c, 0, 64, 127
2, 70355, Note_on_c, 0, 83, 0
2, 70359, Control_c, 0, 10, 76
2, 70360, Note_on_c, 0, 76, 68
2, 70384, Note_on_c, 0, 76, 0
2, 70393, Control_c, 0, 10, 62
2, 70394, Note_on_c, 0, 62, 24
2, 70402, Control_c, 0, 10, 76
2, 70403, Note_on_c, 0, 76, 66
2, 70416, Control_c, 0, 64, 0
2, 70429, Note_on_c, 0, 76, 0
2, 70432, Note_on_c, 0, 57, 0
2, 70435, Note_on_c, 0, 62, 0
2, 70442, Note_on_c, 0, 52, 0
2, 70445, Control_c, 0, 64, 127
2, 70445, Control_c, 0, 10, 79
2, 70446, Note_on_c, 0, 79, 70
2, 70453, Control_c, 0, 10, 77
2, 70454, Note_on_c, 0, 77, 29
2, 70463, Note_on_c, 0, 77, 0
2, 70470, Note_on_c, 0, 79, 0
2, 70488, Control_c, 0, 10, 79
2, 70489, Note_on_c, 0, 79, 70
2, 70515, Note_on_c, 0, 79, 0
2, 70534, Control_c, 0, 10, 63
2, 70535, Note_on_c, 0, 63, 60
2, 70538, Control_c, 0, 10, 62
2, 70539, Note_on_c, 0, 71, 53
2, 70539, Note_on_c, 0, 53, 52
2, 70539, Control_c, 0, 10, 58
2, 70540, Note_on_c, 0, 58, 51
2, 70549, Control_c, 0, 64, 0
2, 70556, Note_on_c, 0, 71, 0
2, 70582, Control_c, 0, 10, 71
2, 70583, Note_on_c, 0, 71, 55
2, 70591, Control_c, 0, 64, 127
2, 70607, Note_on_c, 0, 71, 0
2, 70617, Control_c, 0, 64, 0
2, 70625, Control_c, 0, 10, 77
2, 70626, Note_on_c, 0, 77, 75
2, 70627, Note_on_c, 0, 53, 0
2, 70639, Note_on_c, 0, 58, 0
2, 70643, Note_on_c, 0, 63, 0
2, 70652, Note_on_c, 0, 77, 0
2, 70672, Note_on_c, 0, 77, 67
2, 70680, Control_c, 0, 64, 127
2, 70707, Note_on_c, 0, 77, 0
2, 70713, Control_c, 0, 64, 0
2, 70716, Control_c, 0, 10, 65
2, 70717, Note_on_c, 0, 65, 41
2, 70719, Control_c, 0, 10, 60
2, 70720, Note_on_c, 0, 60, 52
2, 70720, Control_c, 0, 10, 68
2, 70721, Note_on_c, 0, 68, 61
2, 70731, Note_on_c, 0, 65, 0
2, 70760, Control_c, 0, 64, 127
2, 70762, Note_on_c, 0, 60, 0
2, 70852, Note_on_c, 0, 68, 0
2, 70934, Control_c, 0, 10, 60
2, 70935, Note_on_c, 0, 60, 38
2, 70944, Note_on_c, 0, 60, 0
2, 70955, Control_c, 0, 64, 0
2, 70959, Control_c, 0, 10, 63
2, 70960, Note_on_c, 0, 63, 46
2, 70970, Note_on_c, 0, 63, 0
2, 70986, Control_c, 0, 10, 65
2, 70987, Note_on_c, 0, 65, 63
2, 71012, Note_on_c, 0, 65, 0
2, 71019, Control_c, 0, 10, 67
2, 71020, Note_on_c, 0, 67, 57
2, 71040, Note_on_c, 0, 67, 0
2, 71049, Control_c, 0, 10, 70
2, 71050, Note_on_c, 0, 70, 45
2, 71059, Note_on_c, 0, 70, 0
2, 71071, Control_c, 0, 10, 72
2, 71072, Note_on_c, 0, 72, 55
2, 71096, Note_on_c, 0, 72, 0
2, 71106, Control_c, 0, 10, 75
2, 71107, Note_on_c, 0, 75, 55
2, 71122, Note_on_c, 0, 75, 0
2, 71137, Control_c, 0, 10, 77
2, 71138, Note_on_c, 0, 77, 60
2, 71160, Control_c, 0, 10, 80
2, 71161, Note_on_c, 0, 80, 51
2, 71162, Note_on_c, 0, 77, 0
2, 71180, Note_on_c, 0, 80, 0
2, 71204, Control_c, 0, 10, 82
2, 71205, Note_on_c, 0, 82, 35
2, 71214, Note_on_c, 0, 82, 0
2, 71231, Control_c, 0, 10, 84
2, 71232, Note_on_c, 0, 84, 64
2, 71250, Note_on_c, 0, 84, 0
2, 71260, Control_c, 0, 10, 87
2, 71261, Note_on_c, 0, 87, 47
2, 71271, Note_on_c, 0, 87, 0
2, 71279, Control_c, 0, 10, 63
2, 71280, Note_on_c, 0, 63, 37
2, 71285, Control_c, 0, 10, 53
2, 71286, Note_on_c, 0, 53, 38
2, 71288, Control_c, 0, 10, 58
2, 71289, Note_on_c, 0, 58, 27
2, 71290, Control_c, 0, 10, 89
2, 71291, Note_on_c, 0, 89, 64
2, 71317, Note_on_c, 0, 89, 0
2, 71326, Control_c, 0, 10, 91
2, 71327, Note_on_c, 0, 91, 54
2, 71331, Note_on_c, 0, 63, 0
2, 71340, Note_on_c, 0, 58, 0
2, 71345, Note_on_c, 0, 53, 0
2, 71347, Note_on_c, 0, 91, 0
2, 71355, Control_c, 0, 10, 94
2, 71356, Note_on_c, 0, 94, 71
2, 71377, Note_on_c, 0, 94, 0
2, 71384, Control_c, 0, 10, 96
2, 71385, Note_on_c, 0, 96, 81
2, 71393, Control_c, 0, 10, 63
2, 71394, Note_on_c, 0, 63, 38
2, 71397, Control_c, 0, 10, 58
2, 71398, Note_on_c, 0, 58, 38
2, 71413, Control_c, 0, 10, 94
2, 71414, Note_on_c, 0, 94, 67
2, 71422, Note_on_c, 0, 96, 0
2, 71437, Note_on_c, 0, 94, 0
2, 71453, Note_on_c, 0, 58, 0
2, 71462, Note_on_c, 0, 63, 0
2, 71600, Control_c, 0, 10, 65
2, 71601, Note_on_c, 0, 65, 48
2, 71601, Control_c, 0, 10, 58
2, 71602, Note_on_c, 0, 56, 30
2, 71602, Note_on_c, 0, 61, 31
2, 71610, Note_on_c, 0, 65, 0
2, 71615, Note_on_c, 0, 56, 0
2, 71628, Note_on_c, 0, 61, 0
2, 71715, Control_c, 0, 10, 56
2, 71716, Note_on_c, 0, 56, 36
2, 71716, Control_c, 0, 10, 60
2, 71717, Note_on_c, 0, 60, 41
2, 71717, Control_c, 0, 10, 65
2, 71718, Note_on_c, 0, 65, 40
2, 71727, Note_on_c, 0, 60, 0
2, 71729, Note_on_c, 0, 65, 0
2, 71737, Note_on_c, 0, 56, 0
2, 71795, Control_c, 0, 10, 56
2, 71796, Note_on_c, 0, 56, 53
2, 71799, Control_c, 0, 10, 65
2, 71800, Note_on_c, 0, 65, 52
2, 71805, Control_c, 0, 10, 60
2, 71806, Note_on_c, 0, 60, 26
2, 71812, Note_on_c, 0, 65, 0
2, 71815, Note_on_c, 0, 60, 0
2, 71827, Note_on_c, 0, 56, 0
2, 71893, Control_c, 0, 10, 65
2, 71894, Note_on_c, 0, 65, 50
2, 71895, Control_c, 0, 10, 56
2, 71896, Note_on_c, 0, 56, 32
2, 71899, Control_c, 0, 10, 60
2, 71900, Note_on_c, 0, 60, 26
2, 71902, Control_c, 0, 10, 61
2, 71903, Note_on_c, 0, 61, 25
2, 71911, Note_on_c, 0, 60, 0
2, 71911, Note_on_c, 0, 65, 0
2, 71916, Note_on_c, 0, 61, 0
2, 71932, Note_on_c, 0, 56, 0
2, 71972, Control_c, 0, 10, 62
2, 71973, Note_on_c, 0, 64, 66
2, 71973, Note_on_c, 0, 61, 53
2, 71974, Control_c, 0, 10, 55
2, 71975, Note_on_c, 0, 55, 62
2, 71995, Note_on_c, 0, 61, 0
2, 72000, Note_on_c, 0, 64, 0
2, 72005, Note_on_c, 0, 55, 0
2, 72071, Control_c, 0, 10, 97
2, 72072, Note_on_c, 0, 97, 84
2, 72081, Control_c, 0, 10, 55
2, 72082, Note_on_c, 0, 55, 50
2, 72083, Control_c, 0, 10, 64
2, 72084, Note_on_c, 0, 64, 34
2, 72094, Note_on_c, 0, 64, 0
2, 72095, Note_on_c, 0, 97, 0
2, 72097, Note_on_c, 0, 55, 0
2, 72127, Control_c, 0, 10, 100
2, 72128, Note_on_c, 0, 100, 78
2, 72153, Note_on_c, 0, 100, 0
2, 72191, Control_c, 0, 10, 101
2, 72192, Note_on_c, 0, 101, 70
2, 72192, Control_c, 0, 10, 100
2, 72193, Note_on_c, 0, 100, 62
2, 72199, Control_c, 0, 10, 64
2, 72200, Note_on_c, 0, 64, 57
2, 72200, Control_c, 0, 10, 61
2, 72201, Note_on_c, 0, 61, 51
2, 72202, Control_c, 0, 10, 55
2, 72203, Note_on_c, 0, 55, 58
2, 72211, Note_on_c, 0, 101, 0
2, 72222, Note_on_c, 0, 100, 0
2, 72226, Note_on_c, 0, 64, 0
2, 72230, Note_on_c, 0, 61, 0
2, 72233, Note_on_c, 0, 55, 0
2, 72248, Control_c, 0, 10, 95
2, 72249, Note_on_c, 0, 95, 65
2, 72273, Note_on_c, 0, 95, 0
2, 72309, Note_on_c, 0, 95, 74
2, 72317, Control_c, 0, 10, 61
2, 72318, Note_on_c, 0, 61, 49
2, 72320, Control_c, 0, 10, 55
2, 72321, Note_on_c, 0, 55, 42
2, 72321, Control_c, 0, 10, 64
2, 72322, Note_on_c, 0, 64, 35
2, 72330, Note_on_c, 0, 95, 0
2, 72333, Note_on_c, 0, 64, 0
2, 72335, Note_on_c, 0, 55, 0
2, 72344, Note_on_c, 0, 61, 0
2, 72362, Control_c, 0, 10, 97
2, 72363, Note_on_c, 0, 97, 67
2, 72383, Note_on_c, 0, 97, 0
2, 72421, Note_on_c, 0, 97, 69
2, 72423, Control_c, 0, 10, 63
2, 72424, Note_on_c, 0, 63, 68
2, 72425, Control_c, 0, 10, 58
2, 72426, Note_on_c, 0, 58, 56
2, 72426, Control_c, 0, 10, 52
2, 72427, Note_on_c, 0, 52, 60
2, 72437, Note_on_c, 0, 52, 0
2, 72444, Note_on_c, 0, 63, 0
2, 72450, Note_on_c, 0, 97, 0
2, 72473, Note_on_c, 0, 58, 0
2, 72480, Control_c, 0, 10, 96
2, 72481, Note_on_c, 0, 96, 75
2, 72490, Control_c, 0, 10, 84
2, 72491, Note_on_c, 0, 84, 33
2, 72493, Control_c, 0, 10, 83
2, 72494, Note_on_c, 0, 83, 36
2, 72500, Note_on_c, 0, 96, 0
2, 72501, Note_on_c, 0, 84, 0
2, 72506, Note_on_c, 0, 83, 0
2, 72512, Control_c, 0, 10, 96
2, 72513, Note_on_c, 0, 96, 58
2, 72516, Control_c, 0, 10, 84
2, 72517, Note_on_c, 0, 84, 66
2, 72537, Note_on_c, 0, 84, 0
2, 72541, Note_on_c, 0, 96, 0
2, 72583, Control_c, 0, 10, 63
2, 72584, Note_on_c, 0, 63, 58
2, 72588, Control_c, 0, 10, 58
2, 72589, Note_on_c, 0, 58, 48
2, 72592, Control_c, 0, 10, 84
2, 72593, Note_on_c, 0, 84, 76
2, 72593, Control_c, 0, 10, 96
2, 72594, Note_on_c, 0, 96, 65
2, 72594, Control_c, 0, 10, 52
2, 72595, Note_on_c, 0, 52, 37
2, 72602, Note_on_c, 0, 84, 0
2, 72603, Note_on_c, 0, 96, 0
2, 72604, Note_on_c, 0, 63, 0
2, 72606, Note_on_c, 0, 52, 0
2, 72622, Note_on_c, 0, 58, 0
2, 72624, Control_c, 0, 10, 96
2, 72625, Note_on_c, 0, 96, 59
2, 72626, Control_c, 0, 10, 84
2, 72627, Note_on_c, 0, 84, 65
2, 72643, Note_on_c, 0, 84, 0
2, 72646, Note_on_c, 0, 96, 0
2, 72691, Control_c, 0, 10, 63
2, 72692, Note_on_c, 0, 63, 57
2, 72692, Control_c, 0, 10, 84
2, 72693, Note_on_c, 0, 84, 77
2, 72693, Control_c, 0, 10, 77
2, 72694, Note_on_c, 0, 96, 65
2, 72694, Note_on_c, 0, 58, 47
2, 72702, Note_on_c, 0, 84, 0
2, 72703, Note_on_c, 0, 63, 0
2, 72704, Note_on_c, 0, 96, 0
2, 72705, Note_on_c, 0, 58, 0
2, 72725, Control_c, 0, 10, 96
2, 72726, Note_on_c, 0, 96, 64
2, 72726, Control_c, 0, 10, 84
2, 72727, Note_on_c, 0, 84, 50
2, 72741, Note_on_c, 0, 84, 0
2, 72745, Note_on_c, 0, 96, 0
2, 72781, Control_c, 0, 10, 63
2, 72782, Note_on_c, 0, 63, 76
2, 72783, Control_c, 0, 10, 79
2, 72784, Note_on_c, 0, 58, 68
2, 72784, Note_on_c, 0, 96, 80
2, 72784, Note_on_c, 0, 84, 79
2, 72784, Control_c, 0, 10, 52
2, 72785, Note_on_c, 0, 52, 72
2, 72794, Note_on_c, 0, 52, 0
2, 72799, Note_on_c, 0, 84, 0
2, 72801, Note_on_c, 0, 96, 0
2, 72824, Control_c, 0, 10, 90
2, 72825, Note_on_c, 0, 96, 58
2, 72825, Note_on_c, 0, 84, 63
2, 72829, Note_on_c, 0, 63, 0
2, 72838, Note_on_c, 0, 84, 0
2, 72844, Note_on_c, 0, 96, 0
2, 72845, Note_on_c, 0, 58, 0
2, 72881, Control_c, 0, 10, 63
2, 72882, Note_on_c, 0, 63, 73
2, 72883, Control_c, 0, 10, 58
2, 72884, Note_on_c, 0, 58, 63
2, 72884, Control_c, 0, 10, 96
2, 72885, Note_on_c, 0, 96, 76
2, 72886, Control_c, 0, 10, 68
2, 72887, Note_on_c, 0, 84, 74
2, 72887, Note_on_c, 0, 52, 46
2, 72896, Note_on_c, 0, 84, 0
2, 72904, Note_on_c, 0, 96, 0
2, 72922, Control_c, 0, 10, 96
2, 72923, Note_on_c, 0, 96, 73
2, 72923, Control_c, 0, 10, 84
2, 72924, Note_on_c, 0, 84, 64
2, 72938, Note_on_c, 0, 84, 0
2, 72943, Note_on_c, 0, 52, 0
2, 72943, Note_on_c, 0, 96, 0
2, 72943, Note_on_c, 0, 63, 0
2, 72954, Note_on_c, 0, 58, 0
2, 72976, Control_c, 0, 10, 90
2, 72977, Note_on_c, 0, 96, 76
2, 72977, Note_on_c, 0, 84, 80
2, 72977, Control_c, 0, 10, 56
2, 72978, Note_on_c, 0, 51, 67
2, 72978, Note_on_c, 0, 62, 72
2, 72980, Control_c, 0, 10, 57
2, 72981, Note_on_c, 0, 57, 65
2, 72994, Note_on_c, 0, 84, 0
2, 72994, Note_on_c, 0, 96, 0
2, 72997, Note_on_c, 0, 62, 0
2, 72997, Note_on_c, 0, 57, 0
2, 73006, Note_on_c, 0, 51, 0
2, 73015, Control_c, 0, 10, 96
2, 73016, Note_on_c, 0, 96, 63
2, 73016, Control_c, 0, 10, 84
2, 73017, Note_on_c, 0, 84, 60
2, 73034, Note_on_c, 0, 96, 0
2, 73035, Note_on_c, 0, 84, 0
2, 73066, Control_c, 0, 10, 56
2, 73067, Note_on_c, 0, 51, 74
2, 73067, Note_on_c, 0, 62, 75
2, 73067, Control_c, 0, 10, 96
2, 73068, Note_on_c, 0, 96, 73
2, 73068, Control_c, 0, 10, 71
2, 73069, Note_on_c, 0, 57, 67
2, 73069, Note_on_c, 0, 86, 74
2, 73072, Control_c, 0, 10, 90
2, 73073, Note_on_c, 0, 90, 38
2, 73073, Control_c, 0, 10, 93
2, 73074, Note_on_c, 0, 93, 50
2, 73082, Note_on_c, 0, 93, 0
2, 73082, Note_on_c, 0, 90, 0
2, 73083, Note_on_c, 0, 57, 0
2, 73085, Note_on_c, 0, 86, 0
2, 73087, Note_on_c, 0, 62, 0
2, 73089, Note_on_c, 0, 96, 0
2, 73100, Note_on_c, 0, 51, 0
2, 73106, Control_c, 0, 10, 96
2, 73107, Note_on_c, 0, 96, 49
2, 73107, Control_c, 0, 10, 86
2, 73108, Note_on_c, 0, 86, 48
2, 73113, Control_c, 0, 10, 93
2, 73114, Note_on_c, 0, 93, 48
2, 73117, Control_c, 0, 10, 90
2, 73118, Note_on_c, 0, 90, 33
2, 73127, Note_on_c, 0, 90, 0
2, 73127, Note_on_c, 0, 93, 0
2, 73130, Note_on_c, 0, 86, 0
2, 73137, Note_on_c, 0, 96, 0
2, 73159, Control_c, 0, 10, 96
2, 73160, Note_on_c, 0, 96, 66
2, 73163, Control_c, 0, 10, 86
2, 73164, Note_on_c, 0, 86, 71
2, 73165, Control_c, 0, 10, 56
2, 73166, Note_on_c, 0, 51, 73
2, 73166, Note_on_c, 0, 62, 75
2, 73168, Control_c, 0, 10, 93
2, 73169, Note_on_c, 0, 93, 53
2, 73169, Control_c, 0, 10, 73
2, 73170, Note_on_c, 0, 90, 35
2, 73170, Note_on_c, 0, 57, 59
2, 73179, Note_on_c, 0, 57, 0
2, 73179, Note_on_c, 0, 93, 0
2, 73179, Note_on_c, 0, 90, 0
2, 73186, Note_on_c, 0, 86, 0
2, 73186, Note_on_c, 0, 96, 0
2, 73186, Note_on_c, 0, 62, 0
2, 73195, Note_on_c, 0, 51, 0
2, 73204, Control_c, 0, 10, 91
2, 73205, Note_on_c, 0, 96, 47
2, 73205, Note_on_c, 0, 86, 58
2, 73207, Control_c, 0, 10, 93
2, 73208, Note_on_c, 0, 93, 55
2, 73211, Control_c, 0, 10, 90
2, 73212, Note_on_c, 0, 90, 44
2, 73221, Note_on_c, 0, 90, 0
2, 73225, Note_on_c, 0, 86, 0
2, 73228, Note_on_c, 0, 93, 0
2, 73229, Note_on_c, 0, 96, 0
2, 73384, Control_c, 0, 10, 62
2, 73385, Note_on_c, 0, 62, 81
2, 73385, Control_c, 0, 10, 51
2, 73386, Note_on_c, 0, 51, 75
2, 73387, Control_c, 0, 10, 57
2, 73388, Note_on_c, 0, 57, 71
2, 73402, Note_on_c, 0, 62, 0
2, 73413, Note_on_c, 0, 57, 0
2, 73429, Note_on_c, 0, 51, 0
2, 73445, Control_c, 0, 10, 84
2, 73446, Note_on_c, 0, 84, 80
2, 73446, Control_c, 0, 10, 96
2, 73447, Note_on_c, 0, 96, 85
2, 73447, Control_c, 0, 10, 69
2, 73448, Note_on_c, 0, 92, 71
2, 73448, Note_on_c, 0, 60, 87
2, 73448, Note_on_c, 0, 56, 73
2, 73451, Note_on_c, 0, 50, 70
2, 73451, Note_on_c, 0, 89, 71
2, 73591, Control_c, 0, 64, 127
2, 73662, Note_on_c, 0, 96, 0
2, 73679, Note_on_c, 0, 50, 0
2, 73679, Note_on_c, 0, 89, 0
2, 73680, Note_on_c, 0, 92, 0
2, 73686, Note_on_c, 0, 84, 0
2, 73700, Note_on_c, 0, 60, 0
2, 73707, Note_on_c, 0, 56, 0
2, 73741, Control_c, 0, 10, 82
2, 73742, Note_on_c, 0, 82, 77
2, 73742, Control_c, 0, 10, 94
2, 73743, Note_on_c, 0, 94, 75
2, 73744, Control_c, 0, 10, 56
2, 73745, Note_on_c, 0, 56, 64
2, 73745, Control_c, 0, 10, 60
2, 73746, Note_on_c, 0, 60, 79
2, 73746, Control_c, 0, 10, 89
2, 73747, Note_on_c, 0, 89, 69
2, 73747, Control_c, 0, 10, 50
2, 73748, Note_on_c, 0, 50, 64
2, 73762, Control_c, 0, 64, 0
2, 73796, Note_on_c, 0, 94, 0
2, 73797, Note_on_c, 0, 89, 0
2, 73798, Note_on_c, 0, 60, 0
2, 73804, Control_c, 0, 64, 127
2, 73806, Note_on_c, 0, 82, 0
2, 73812, Note_on_c, 0, 56, 0
2, 73831, Control_c, 0, 10, 74
2, 73832, Note_on_c, 0, 92, 68
2, 73832, Note_on_c, 0, 56, 56
2, 73834, Control_c, 0, 10, 80
2, 73835, Note_on_c, 0, 80, 62
2, 73835, Control_c, 0, 10, 87
2, 73836, Note_on_c, 0, 87, 71
2, 73836, Control_c, 0, 10, 60
2, 73837, Note_on_c, 0, 60, 63
2, 73854, Note_on_c, 0, 50, 0
2, 73873, Note_on_c, 0, 60, 0
2, 73875, Note_on_c, 0, 56, 0
2, 73879, Note_on_c, 0, 87, 0
2, 73883, Note_on_c, 0, 92, 0
2, 73884, Note_on_c, 0, 80, 0
2, 73919, Control_c, 0, 64, 0
2, 73920, Control_c, 0, 10, 59
2, 73921, Note_on_c, 0, 59, 54
2, 73922, Control_c, 0, 10, 58
2, 73923, Note_on_c, 0, 53, 65
2, 73923, Note_on_c, 0, 64, 67
2, 73926, Control_c, 0, 10, 83
2, 73927, Note_on_c, 0, 87, 58
2, 73927, Note_on_c, 0, 79, 60
2, 73932, Control_c, 0, 10, 91
2, 73933, Note_on_c, 0, 91, 24
2, 73934, Note_on_c, 0, 79, 0
2, 73949, Note_on_c, 0, 59, 0
2, 73956, Note_on_c, 0, 64, 0
2, 73958, Control_c, 0, 64, 127
2, 73959, Note_on_c, 0, 87, 0
2, 73960, Control_c, 0, 10, 79
2, 73961, Note_on_c, 0, 79, 54
2, 73962, Note_on_c, 0, 91, 0
2, 73975, Control_c, 0, 10, 59
2, 73976, Note_on_c, 0, 59, 51
2, 73981, Control_c, 0, 10, 91
2, 73982, Note_on_c, 0, 91, 36
2, 73983, Note_on_c, 0, 53, 0
2, 73983, Control_c, 0, 10, 87
2, 73984, Note_on_c, 0, 79, 0
2, 73984, Note_on_c, 0, 87, 54
2, 73984, Control_c, 0, 10, 64
2, 73985, Note_on_c, 0, 64, 45
2, 74005, Control_c, 0, 10, 79
2, 74006, Note_on_c, 0, 79, 62
2, 74009, Note_on_c, 0, 87, 0
2, 74010, Note_on_c, 0, 91, 0
2, 74010, Note_on_c, 0, 59, 0
2, 74024, Note_on_c, 0, 64, 0
2, 74027, Note_on_c, 0, 79, 0
2, 74037, Control_c, 0, 64, 0
2, 74042, Control_c, 0, 10, 59
2, 74043, Note_on_c, 0, 59, 20
2, 74056, Note_on_c, 0, 59, 0
2, 74113, Control_c, 0, 10, 92
2, 74114, Note_on_c, 0, 92, 83
2, 74114, Control_c, 0, 10, 80
2, 74115, Note_on_c, 0, 80, 80
2, 74117, Control_c, 0, 10, 87
2, 74118, Note_on_c, 0, 87, 76
2, 74118, Control_c, 0, 10, 64
2, 74119, Note_on_c, 0, 64, 89
2, 74119, Control_c, 0, 10, 59
2, 74120, Note_on_c, 0, 59, 79
2, 74121, Control_c, 0, 10, 53
2, 74122, Note_on_c, 0, 53, 79
2, 74172, Control_c, 0, 64, 127
2, 74181, Note_on_c, 0, 87, 0
2, 74183, Note_on_c, 0, 92, 0
2, 74186, Note_on_c, 0, 80, 0
2, 74190, Note_on_c, 0, 64, 0
2, 74191, Note_on_c, 0, 53, 0
2, 74195, Note_on_c, 0, 59, 0
2, 74231, Control_c, 0, 10, 93
2, 74232, Note_on_c, 0, 93, 64
2, 74232, Control_c, 0, 10, 87
2, 74233, Note_on_c, 0, 87, 71
2, 74233, Control_c, 0, 10, 53
2, 74234, Note_on_c, 0, 53, 71
2, 74234, Control_c, 0, 10, 70
2, 74235, Note_on_c, 0, 59, 76
2, 74235, Note_on_c, 0, 81, 57
2, 74235, Control_c, 0, 10, 64
2, 74236, Note_on_c, 0, 64, 72
2, 74239, Control_c, 0, 10, 90
2, 74240, Note_on_c, 0, 90, 40
2, 74240, Note_on_c, 0, 91, 37
2, 74243, Control_c, 0, 10, 83
2, 74244, Note_on_c, 0, 83, 34
2, 74249, Note_on_c, 0, 81, 0
2, 74250, Note_on_c, 0, 90, 0
2, 74251, Note_on_c, 0, 91, 0
2, 74254, Note_on_c, 0, 83, 0
2, 74254, Note_on_c, 0, 93, 0
2, 74258, Note_on_c, 0, 64, 0
2, 74262, Note_on_c, 0, 87, 0
2, 74268, Note_on_c, 0, 53, 0
2, 74270, Note_on_c, 0, 59, 0
2, 74276, Control_c, 0, 64, 0
2, 74291, Control_c, 0, 10, 67
2, 74292, Note_on_c, 0, 82, 48
2, 74292, Note_on_c, 0, 53, 59
2, 74292, Control_c, 0, 10, 59
2, 74293, Note_on_c, 0, 59, 48
2, 74294, Control_c, 0, 10, 64
2, 74295, Note_on_c, 0, 64, 43
2, 74297, Control_c, 0, 10, 94
2, 74298, Note_on_c, 0, 94, 32
2, 74302, Note_on_c, 0, 82, 0
2, 74307, Note_on_c, 0, 64, 0
2, 74307, Note_on_c, 0, 94, 0
2, 74318, Control_c, 0, 64, 127
2, 74322, Note_on_c, 0, 53, 0
2, 74324, Note_on_c, 0, 59, 0
2, 74348, Control_c, 0, 10, 59
2, 74349, Note_on_c, 0, 59, 62
2, 74351, Control_c, 0, 10, 53
2, 74352, Note_on_c, 0, 53, 56
2, 74352, Control_c, 0, 10, 64
2, 74353, Note_on_c, 0, 64, 62
2, 74354, Control_c, 0, 10, 97
2, 74355, Note_on_c, 0, 98, 68
2, 74355, Note_on_c, 0, 96, 72
2, 74355, Control_c, 0, 10, 84
2, 74356, Note_on_c, 0, 84, 68
2, 74356, Control_c, 0, 10, 86
2, 74357, Note_on_c, 0, 86, 57
2, 74362, Note_on_c, 0, 53, 0
2, 74364, Note_on_c, 0, 98, 0
2, 74365, Note_on_c, 0, 96, 0
2, 74366, Note_on_c, 0, 86, 0
2, 74368, Note_on_c, 0, 84, 0
2, 74370, Note_on_c, 0, 64, 0
2, 74386, Note_on_c, 0, 59, 0
2, 74404, Control_c, 0, 10, 59
2, 74405, Note_on_c, 0, 59, 72
2, 74405, Control_c, 0, 10, 62
2, 74406, Control_c, 0, 64, 0
2, 74406, Note_on_c, 0, 62, 77
2, 74406, Control_c, 0, 10, 95
2, 74407, Note_on_c, 0, 95, 76
2, 74409, Control_c, 0, 10, 83
2, 74410, Note_on_c, 0, 83, 76
2, 74410, Control_c, 0, 10, 52
2, 74411, Note_on_c, 0, 52, 61
2, 74411, Control_c, 0, 10, 73
2, 74412, Note_on_c, 0, 55, 66
2, 74412, Note_on_c, 0, 91, 64
2, 74413, Control_c, 0, 10, 88
2, 74414, Note_on_c, 0, 88, 68
2, 74474, Note_on_c, 0, 88, 0
2, 74474, Note_on_c, 0, 83, 0
2, 74475, Note_on_c, 0, 52, 0
2, 74476, Note_on_c, 0, 62, 0
2, 74478, Note_on_c, 0, 95, 0
2, 74481, Note_on_c, 0, 91, 0
2, 74483, Note_on_c, 0, 55, 0
2, 74486, Note_on_c, 0, 59, 0
2, 74526, Control_c, 0, 10, 69
2, 74527, Note_on_c, 0, 59, 70
2, 74527, Note_on_c, 0, 62, 74
2, 74527, Note_on_c, 0, 87, 83
2, 74527, Control_c, 0, 10, 52
2, 74528, Note_on_c, 0, 52, 71
2, 74528, Control_c, 0, 10, 69
2, 74529, Note_on_c, 0, 55, 57
2, 74529, Note_on_c, 0, 83, 75
2, 74529, Control_c, 0, 10, 95
2, 74530, Note_on_c, 0, 95, 62
2, 74531, Control_c, 0, 10, 93
2, 74532, Note_on_c, 0, 93, 63
2, 74532, Control_c, 0, 10, 91
2, 74533, Note_on_c, 0, 91, 59
2, 74542, Note_on_c, 0, 93, 0
2, 74565, Control_c, 0, 10, 88
2, 74566, Note_on_c, 0, 88, 33
2, 74572, Note_on_c, 0, 87, 0
2, 74578, Note_on_c, 0, 52, 0
2, 74585, Note_on_c, 0, 55, 0
2, 74585, Note_on_c, 0, 83, 0
2, 74586, Note_on_c, 0, 88, 0
2, 74586, Note_on_c, 0, 95, 0
2, 74590, Note_on_c, 0, 59, 0
2, 74591, Note_on_c, 0, 91, 0
2, 74591, Note_on_c, 0, 62, 0
2, 74650, Control_c, 0, 64, 127
2, 74703, Control_c, 0, 10, 72
2, 74704, Note_on_c, 0, 67, 72
2, 74704, Note_on_c, 0, 62, 59
2, 74704, Note_on_c, 0, 87, 78
2, 74704, Control_c, 0, 10, 63
2, 74705, Note_on_c, 0, 63, 48
2, 74705, Control_c, 0, 10, 91
2, 74706, Note_on_c, 0, 91, 68
2, 74706, Control_c, 0, 10, 78
2, 74707, Note_on_c, 0, 57, 67
2, 74707, Note_on_c, 0, 83, 74
2, 74707, Note_on_c, 0, 95, 74
2, 74710, Control_c, 0, 64, 0
2, 74747, Control_c, 0, 64, 127
2, 74748, Control_c, 0, 10, 88
2, 74749, Note_on_c, 0, 88, 53
2, 74753, Note_on_c, 0, 87, 0
2, 74754, Note_on_c, 0, 67, 0
2, 74754, Note_on_c, 0, 62, 0
2, 74761, Note_on_c, 0, 63, 0
2, 74766, Note_on_c, 0, 95, 0
2, 74768, Note_on_c, 0, 57, 0
2, 74769, Note_on_c, 0, 83, 0
2, 74777, Note_on_c, 0, 91, 0
2, 74778, Note_on_c, 0, 88, 0
2, 74819, Control_c, 0, 10, 91
2, 74820, Note_on_c, 0, 91, 69
2, 74823, Control_c, 0, 10, 79
2, 74824, Note_on_c, 0, 79, 70
2, 74824, Control_c, 0, 10, 74
2, 74825, Note_on_c, 0, 62, 72
2, 74825, Note_on_c, 0, 86, 70
2, 74826, Control_c, 0, 10, 59
2, 74827, Note_on_c, 0, 59, 52
2, 74829, Control_c, 0, 10, 55
2, 74830, Note_on_c, 0, 55, 60
2, 74830, Control_c, 0, 10, 52
2, 74831, Note_on_c, 0, 52, 44
2, 74845, Note_on_c, 0, 79, 0
2, 74850, Note_on_c, 0, 62, 0
2, 74853, Note_on_c, 0, 86, 0
2, 74855, Note_on_c, 0, 59, 0
2, 74857, Note_on_c, 0, 91, 0
2, 74858, Note_on_c, 0, 55, 0
2, 74859, Note_on_c, 0, 52, 0
2, 74862, Control_c, 0, 64, 0
2, 74882, Control_c, 0, 10, 62
2, 74883, Note_on_c, 0, 62, 64
2, 74884, Control_c, 0, 10, 59
2, 74885, Note_on_c, 0, 59, 52
2, 74885, Control_c, 0, 10, 91
2, 74886, Note_on_c, 0, 91, 64
2, 74886, Control_c, 0, 10, 53
2, 74887, Note_on_c, 0, 52, 62
2, 74887, Note_on_c, 0, 55, 44
2, 74888, Control_c, 0, 10, 86
2, 74889, Note_on_c, 0, 86, 70
2, 74889, Control_c, 0, 10, 79
2, 74890, Note_on_c, 0, 79, 53
2, 74927, Control_c, 0, 64, 127
2, 74943, Note_on_c, 0, 79, 0
2, 74957, Note_on_c, 0, 86, 0
2, 74964, Note_on_c, 0, 91, 0
2, 74998, Note_on_c, 0, 52, 0
2, 75004, Note_on_c, 0, 55, 0
2, 75004, Note_on_c, 0, 62, 0
2, 75009, Note_on_c, 0, 59, 0
2, 75060, Control_c, 0, 10, 64
2, 75061, Note_on_c, 0, 64, 64
2, 75062, Control_c, 0, 10, 83
2, 75063, Note_on_c, 0, 83, 67
2, 75063, Control_c, 0, 10, 77
2, 75064, Note_on_c, 0, 95, 54
2, 75064, Note_on_c, 0, 60, 54
2, 75064, Control_c, 0, 10, 88
2, 75065, Note_on_c, 0, 88, 53
2, 75066, Control_c, 0, 10, 68
2, 75067, Note_on_c, 0, 59, 40
2, 75067, Note_on_c, 0, 91, 42
2, 75067, Note_on_c, 0, 55, 32
2, 75072, Note_on_c, 0, 64, 0
2, 75073, Note_on_c, 0, 60, 0
2, 75075, Note_on_c, 0, 83, 0
2, 75075, Note_on_c, 0, 88, 0
2, 75077, Note_on_c, 0, 55, 0
2, 75078, Note_on_c, 0, 59, 0
2, 75082, Note_on_c, 0, 91, 0
2, 75084, Note_on_c, 0, 95, 0
2, 75118, Control_c, 0, 64, 0
2, 75124, Control_c, 0, 10, 64
2, 75125, Note_on_c, 0, 64, 83
2, 75125, Control_c, 0, 10, 71
2, 75126, Note_on_c, 0, 60, 78
2, 75126, Note_on_c, 0, 55, 81
2, 75126, Note_on_c, 0, 98, 87
2, 75126, Control_c, 0, 10, 59
2, 75127, Note_on_c, 0, 59, 70
2, 75128, Control_c, 0, 10, 88
2, 75129, Note_on_c, 0, 91, 80
2, 75129, Note_on_c, 0, 86, 75
2, 75130, Control_c, 0, 10, 95
2, 75131, Note_on_c, 0, 95, 62
2, 75136, Control_c, 0, 10, 94
2, 75137, Note_on_c, 0, 94, 25
2, 75141, Note_on_c, 0, 95, 0
2, 75146, Note_on_c, 0, 94, 0
2, 75163, Control_c, 0, 64, 127
2, 75168, Note_on_c, 0, 86, 0
2, 75169, Note_on_c, 0, 98, 0
2, 75175, Note_on_c, 0, 64, 0
2, 75176, Note_on_c, 0, 55, 0
2, 75178, Note_on_c, 0, 91, 0
2, 75180, Note_on_c, 0, 59, 0
2, 75184, Note_on_c, 0, 60, 0
2, 75197, Control_c, 0, 64, 0
2, 75199, Control_c, 0, 10, 96
2, 75200, Note_on_c, 0, 96, 80
2, 75202, Control_c, 0, 10, 91
2, 75203, Note_on_c, 0, 91, 63
2, 75203, Control_c, 0, 10, 55
2, 75204, Note_on_c, 0, 55, 59
2, 75205, Control_c, 0, 10, 61
2, 75206, Note_on_c, 0, 64, 55
2, 75206, Note_on_c, 0, 59, 64
2, 75207, Control_c, 0, 10, 72
2, 75208, Note_on_c, 0, 84, 66
2, 75208, Note_on_c, 0, 60, 70
2, 75226, Note_on_c, 0, 96, 0
2, 75230, Note_on_c, 0, 91, 0
2, 75233, Note_on_c, 0, 84, 0
2, 75238, Control_c, 0, 64, 127
2, 75244, Note_on_c, 0, 64, 0
2, 75248, Note_on_c, 0, 55, 0
2, 75253, Note_on_c, 0, 60, 0
2, 75255, Note_on_c, 0, 59, 0
2, 75300, Control_c, 0, 10, 55
2, 75301, Note_on_c, 0, 55, 31
2, 75302, Control_c, 0, 10, 64
2, 75303, Note_on_c, 0, 64, 32
2, 75313, Control_c, 0, 10, 60
2, 75314, Note_on_c, 0, 55, 0
2, 75314, Note_on_c, 0, 60, 38
2, 75317, Note_on_c, 0, 60, 0
2, 75319, Note_on_c, 0, 64, 0
2, 75355, Control_c, 0, 10, 79
2, 75356, Note_on_c, 0, 79, 50
2, 75358, Control_c, 0, 10, 60
2, 75359, Note_on_c, 0, 65, 64
2, 75359, Note_on_c, 0, 55, 48
2, 75359, Control_c, 0, 10, 69
2, 75360, Note_on_c, 0, 69, 60
2, 75363, Control_c, 0, 10, 60
2, 75364, Note_on_c, 0, 60, 49
2, 75364, Control_c, 0, 10, 57
2, 75365, Note_on_c, 0, 57, 49
2, 75365, Control_c, 0, 64, 0
2, 75365, Control_c, 0, 10, 72
2, 75366, Note_on_c, 0, 72, 46
2, 75395, Note_on_c, 0, 65, 0
2, 75404, Note_on_c, 0, 60, 0
2, 75404, Note_on_c, 0, 55, 0
2, 75406, Note_on_c, 0, 72, 0
2, 75409, Note_on_c, 0, 69, 0
2, 75412, Note_on_c, 0, 57, 0
2, 75413, Note_on_c, 0, 79, 0
2, 75480, Control_c, 0, 10, 79
2, 75481, Note_on_c, 0, 79, 55
2, 75482, Control_c, 0, 10, 65
2, 75483, Note_on_c, 0, 65, 51
2, 75483, Control_c, 0, 10, 55
2, 75484, Note_on_c, 0, 55, 40
2, 75485, Control_c, 0, 10, 69
2, 75486, Note_on_c, 0, 69, 44
2, 75487, Control_c, 0, 10, 58
2, 75488, Note_on_c, 0, 57, 40
2, 75488, Note_on_c, 0, 60, 51
2, 75488, Control_c, 0, 10, 72
2, 75489, Note_on_c, 0, 72, 50
2, 75585, Control_c, 0, 64, 127
2, 75626, Note_on_c, 0, 65, 0
2, 75633, Note_on_c, 0, 69, 0
2, 75633, Note_on_c, 0, 72, 0
2, 75637, Note_on_c, 0, 60, 0
2, 75671, Control_c, 0, 10, 68
2, 75672, Note_on_c, 0, 72, 60
2, 75672, Note_on_c, 0, 65, 46
2, 75672, Control_c, 0, 10, 69
2, 75673, Note_on_c, 0, 69, 47
2, 75675, Control_c, 0, 10, 60
2, 75676, Note_on_c, 0, 60, 41
2, 75691, Note_on_c, 0, 60, 0
2, 75693, Note_on_c, 0, 65, 0
2, 75712, Note_on_c, 0, 72, 0
2, 75720, Note_on_c, 0, 79, 0
2, 75725, Note_on_c, 0, 69, 0
2, 75743, Note_on_c, 0, 55, 0
2, 75749, Note_on_c, 0, 57, 0
2, 75839, Control_c, 0, 10, 64
2, 75840, Note_on_c, 0, 64, 41
2, 75840, Control_c, 0, 10, 61
2, 75841, Note_on_c, 0, 73, 38
2, 75841, Note_on_c, 0, 53, 40
2, 75841, Note_on_c, 0, 59, 41
2, 75841, Control_c, 0, 10, 71
2, 75842, Note_on_c, 0, 71, 49
2, 75847, Control_c, 0, 64, 0
2, 75942, Control_c, 0, 64, 127
2, 75952, Note_on_c, 0, 64, 0
2, 75960, Note_on_c, 0, 73, 0
2, 75962, Note_on_c, 0, 71, 0
2, 75966, Note_on_c, 0, 53, 0
2, 75970, Note_on_c, 0, 59, 0
2, 76021, Control_c, 0, 10, 64
2, 76022, Note_on_c, 0, 64, 46
2, 76023, Control_c, 0, 10, 56
2, 76024, Note_on_c, 0, 53, 40
2, 76024, Note_on_c, 0, 59, 53
2, 76032, Note_on_c, 0, 64, 0
2, 76045, Note_on_c, 0, 59, 0
2, 76058, Note_on_c, 0, 53, 0
2, 76131, Control_c, 0, 10, 67
2, 76132, Note_on_c, 0, 67, 49
2, 76137, Control_c, 0, 10, 59
2, 76138, Note_on_c, 0, 60, 37
2, 76138, Note_on_c, 0, 55, 58
2, 76138, Note_on_c, 0, 63, 33
2, 76145, Note_on_c, 0, 59, 24
2, 76154, Note_on_c, 0, 59, 0
2, 76164, Note_on_c, 0, 60, 0
2, 76169, Note_on_c, 0, 67, 0
2, 76184, Note_on_c, 0, 63, 0
2, 76197, Control_c, 0, 64, 0
2, 76254, Note_on_c, 0, 55, 0
2, 76258, Control_c, 0, 10, 50
2, 76259, Note_on_c, 0, 50, 38
2, 76305, Note_on_c, 0, 50, 0
2, 76316, Control_c, 0, 10, 67
2, 76317, Note_on_c, 0, 67, 33
2, 76317, Control_c, 0, 10, 62
2, 76318, Note_on_c, 0, 62, 41
2, 76318, Control_c, 0, 10, 52
2, 76319, Note_on_c, 0, 52, 39
2, 76320, Control_c, 0, 10, 57
2, 76321, Note_on_c, 0, 57, 43
2, 76365, Note_on_c, 0, 57, 0
2, 76369, Note_on_c, 0, 67, 0
2, 76375, Note_on_c, 0, 62, 0
2, 76437, Note_on_c, 0, 52, 0
2, 76439, Control_c, 0, 10, 66
2, 76440, Note_on_c, 0, 66, 43
2, 76441, Control_c, 0, 10, 51
2, 76442, Note_on_c, 0, 51, 40
2, 76443, Control_c, 0, 10, 58
2, 76444, Note_on_c, 0, 61, 46
2, 76444, Note_on_c, 0, 56, 35
2, 76477, Note_on_c, 0, 56, 0
2, 76493, Note_on_c, 0, 61, 0
2, 76493, Note_on_c, 0, 66, 0
2, 76507, Control_c, 0, 10, 67
2, 76508, Note_on_c, 0, 67, 42
2, 76515, Note_on_c, 0, 51, 0
2, 76515, Control_c, 0, 10, 57
2, 76516, Note_on_c, 0, 57, 37
2, 76516, Control_c, 0, 10, 62
2, 76517, Note_on_c, 0, 62, 34
2, 76518, Control_c, 0, 10, 52
2, 76519, Note_on_c, 0, 52, 52
2, 76571, Note_on_c, 0, 57, 0
2, 76621, Control_c, 0, 10, 43
2, 76622, Note_on_c, 0, 43, 62
2, 76686, Control_c, 0, 64, 127
2, 76711, Note_on_c, 0, 52, 0
2, 76866, Control_c, 0, 10, 55
2, 76867, Note_on_c, 0, 55, 81
2, 76885, Control_c, 0, 64, 0
2, 76944, Control_c, 0, 64, 127
2, 76970, Note_on_c, 0, 43, 0
2, 76982, Control_c, 0, 10, 43
2, 76983, Note_on_c, 0, 43, 28
2, 77015, Control_c, 0, 64, 0
2, 77020, Note_on_c, 0, 43, 0
2, 77051, Note_on_c, 0, 43, 40
2, 77065, Control_c, 0, 64, 127
2, 77091, Note_on_c, 0, 62, 0
2, 77128, Note_on_c, 0, 67, 0
2, 77135, Note_on_c, 0, 55, 0
2, 77158, Control_c, 0, 10, 50
2, 77159, Note_on_c, 0, 50, 26
2, 77172, Control_c, 0, 64, 0
2, 77175, Control_c, 0, 10, 61
2, 77176, Note_on_c, 0, 61, 40
2, 77176, Control_c, 0, 10, 56
2, 77177, Note_on_c, 0, 56, 31
2, 77187, Note_on_c, 0, 50, 0
2, 77199, Note_on_c, 0, 56, 0
2, 77207, Note_on_c, 0, 61, 0
2, 77227, Control_c, 0, 64, 127
2, 77245, Control_c, 0, 10, 50
2, 77246, Note_on_c, 0, 50, 34
2, 77261, Control_c, 0, 64, 0
2, 77266, Note_on_c, 0, 50, 0
2, 77300, Control_c, 0, 10, 55
2, 77301, Note_on_c, 0, 55, 49
2, 77308, Control_c, 0, 64, 127
2, 77383, Control_c, 0, 64, 0
2, 77404, Control_c, 0, 64, 127
2, 77435, Note_on_c, 0, 55, 0
2, 77469, Control_c, 0, 10, 67
2, 77470, Note_on_c, 0, 67, 40
2, 77474, Control_c, 0, 10, 57
2, 77475, Note_on_c, 0, 57, 43
2, 77475, Control_c, 0, 10, 60
2, 77476, Note_on_c, 0, 60, 54
2, 77476, Control_c, 0, 10, 55
2, 77477, Note_on_c, 0, 55, 49
2, 77494, Control_c, 0, 64, 0
2, 77523, Control_c, 0, 64, 127
2, 77580, Note_on_c, 0, 55, 0
2, 77642, Note_on_c, 0, 55, 54
2, 77764, Note_on_c, 0, 60, 0
2, 77765, Note_on_c, 0, 57, 0
2, 77767, Note_on_c, 0, 55, 0
2, 77825, Control_c, 0, 10, 60
2, 77826, Note_on_c, 0, 60, 35
2, 77827, Control_c, 0, 10, 57
2, 77828, Note_on_c, 0, 57, 27
2, 77830, Control_c, 0, 10, 55
2, 77831, Note_on_c, 0, 55, 36
2, 77876, Note_on_c, 0, 43, 0
2, 77938, Note_on_c, 0, 57, 0
2, 77939, Note_on_c, 0, 60, 0
2, 77958, Control_c, 0, 10, 43
2, 77959, Note_on_c, 0, 55, 0
2, 77959, Note_on_c, 0, 43, 47
2, 77979, Note_on_c, 0, 67, 0
2, 78011, Control_c, 0, 10, 67
2, 78012, Note_on_c, 0, 67, 42
2, 78014, Control_c, 0, 10, 60
2, 78015, Note_on_c, 0, 59, 44
2, 78015, Note_on_c, 0, 61, 47
2, 78016, Control_c, 0, 10, 53
2, 78017, Note_on_c, 0, 53, 46
2, 78017, Control_c, 0, 10, 63
2, 78018, Note_on_c, 0, 63, 38
2, 78029, Control_c, 0, 64, 0
2, 78071, Control_c, 0, 64, 127
2, 78137, Note_on_c, 0, 59, 0
2, 78159, Note_on_c, 0, 53, 0
2, 78168, Note_on_c, 0, 67, 0
2, 78194, Note_on_c, 0, 61, 0
2, 78222, Note_on_c, 0, 63, 0
2, 78237, Control_c, 0, 10, 67
2, 78238, Note_on_c, 0, 67, 36
2, 78243, Control_c, 0, 10, 57
2, 78244, Note_on_c, 0, 57, 36
2, 78244, Control_c, 0, 10, 52
2, 78245, Note_on_c, 0, 52, 32
2, 78245, Control_c, 0, 10, 62
2, 78246, Note_on_c, 0, 62, 36
2, 78254, Control_c, 0, 64, 0
2, 78319, Control_c, 0, 64, 127
2, 78321, Note_on_c, 0, 43, 0
2, 78355, Note_on_c, 0, 52, 0
2, 78438, Control_c, 0, 10, 37
2, 78439, Note_on_c, 0, 43, 32
2, 78439, Note_on_c, 0, 31, 58
2, 78462, Note_on_c, 0, 43, 0
2, 78481, Note_on_c, 0, 31, 0
2, 78605, Control_c, 0, 10, 43
2, 78606, Note_on_c, 0, 43, 40
2, 78607, Control_c, 0, 10, 31
2, 78608, Note_on_c, 0, 31, 45
2, 78713, Note_on_c, 0, 43, 0
2, 78716, Note_on_c, 0, 31, 0
2, 78794, Control_c, 0, 10, 43
2, 78795, Note_on_c, 0, 43, 44
2, 78795, Control_c, 0, 10, 31
2, 78796, Note_on_c, 0, 31, 40
2, 78875, Note_on_c, 0, 31, 0
2, 78878, Note_on_c, 0, 43, 0
2, 78966, Control_c, 0, 10, 43
2, 78967, Note_on_c, 0, 43, 38
2, 78972, Control_c, 0, 10, 31
2, 78973, Note_on_c, 0, 31, 24
2, 79030, Note_on_c, 0, 57, 0
2, 79033, Note_on_c, 0, 62, 0
2, 79054, Note_on_c, 0, 67, 0
2, 79072, Note_on_c, 0, 31, 0
2, 79075, Note_on_c, 0, 43, 0
2, 79147, Control_c, 0, 10, 43
2, 79148, Note_on_c, 0, 43, 32
2, 79150, Control_c, 0, 10, 31
2, 79151, Note_on_c, 0, 31, 30
2, 79344, Control_c, 0, 64, 0
2, 79469, Note_on_c, 0, 43, 0
2, 79502, Note_on_c, 0, 31, 0
2, 79502, End_track
3, 0, Start_track
3, 0, MIDI_port, 0
3, 0, Program_c, 1, 32
3, 0, Control_c, 1, 7, 127
3, 0, Control_c, 1, 10, 60
3, 431, Note_on_c, 1, 36, 71
3, 666, Note_on_c, 1, 36, 0
3, 666, Note_on_c, 1, 43, 73
3, 847, Note_on_c, 1, 52, 80
3, 855, Note_on_c, 1, 43, 0
3, 1147, Note_on_c, 1, 43, 62
3, 1182, Note_on_c, 1, 52, 0
3, 1311, Note_on_c, 1, 43, 0
3, 1312, Note_on_c, 1, 37, 71
3, 1616, Note_on_c, 1, 44, 79
3, 1624, Note_on_c, 1, 37, 0
3, 1803, Note_on_c, 1, 53, 83
3, 1816, Note_on_c, 1, 44, 0
3, 2113, Note_on_c, 1, 44, 72
3, 2261, Note_on_c, 1, 44, 0
3, 2276, Note_on_c, 1, 34, 68
3, 2283, Note_on_c, 1, 33, 54
3, 2293, Note_on_c, 1, 53, 0
3, 2301, Note_on_c, 1, 33, 0
3, 2588, Note_on_c, 1, 39, 75
3, 2599, Note_on_c, 1, 34, 0
3, 2762, Note_on_c, 1, 51, 83
3, 2786, Note_on_c, 1, 39, 0
3, 3059, Note_on_c, 1, 51, 0
3, 3062, Note_on_c, 1, 46, 67
3, 3224, Note_on_c, 1, 46, 0
3, 3241, Note_on_c, 1, 44, 80
3, 3301, Pitch_bend_c, 1, 8192
3, 3304, Pitch_bend_c, 1, 8192
3, 3306, Pitch_bend_c, 1, 8192
3, 3308, Pitch_bend_c, 1, 8712
3, 3311, Pitch_bend_c, 1, 8972
3, 3312, Pitch_bend_c, 1, 9102
3, 3314, Pitch_bend_c, 1, 9232
3, 3317, Pitch_bend_c, 1, 9492
3, 3318, Pitch_bend_c, 1, 9622
3, 3321, Pitch_bend_c, 1, 9752
3, 3332, Pitch_bend_c, 1, 9882
3, 3345, Pitch_bend_c, 1, 9622
3, 3347, Pitch_bend_c, 1, 9492
3, 3349, Pitch_bend_c, 1, 9362
3, 3350, Pitch_bend_c, 1, 9102
3, 3352, Pitch_bend_c, 1, 8842
3, 3353, Pitch_bend_c, 1, 8192
3, 3354, Pitch_bend_c, 1, 8192
3, 3355, Pitch_bend_c, 1, 8192
3, 3549, Note_on_c, 1, 39, 72
3, 3573, Note_on_c, 1, 44, 0
3, 3720, Note_on_c, 1, 39, 0
3, 3733, Note_on_c, 1, 32, 74
3, 4019, Note_on_c, 1, 32, 0
3, 4022, Note_on_c, 1, 39, 77
3, 4205, Note_on_c, 1, 43, 60
3, 4210, Note_on_c, 1, 39, 0
3, 4500, Note_on_c, 1, 55, 73
3, 4518, Note_on_c, 1, 43, 0
3, 4662, Note_on_c, 1, 55, 0
3, 4678, Note_on_c, 1, 48, 79
3, 4699, Control_c, 1, 1, 3
3, 4700, Control_c, 1, 1, 4
3, 4701, Control_c, 1, 1, 6
3, 4701, Control_c, 1, 1, 7
3, 4701, Control_c, 1, 1, 8
3, 4702, Control_c, 1, 1, 10
3, 4704, Control_c, 1, 1, 12
3, 4705, Control_c, 1, 1, 13
3, 4705, Control_c, 1, 1, 15
3, 4706, Control_c, 1, 1, 17
3, 4707, Control_c, 1, 1, 19
3, 4707, Control_c, 1, 1, 21
3, 4708, Control_c, 1, 1, 23
3, 4709, Control_c, 1, 1, 25
3, 4711, Control_c, 1, 1, 27
3, 4711, Control_c, 1, 1, 29
3, 4712, Control_c, 1, 1, 31
3, 4713, Control_c, 1, 1, 33
3, 4714, Control_c, 1, 1, 35
3, 4714, Control_c, 1, 1, 37
3, 4715, Control_c, 1, 1, 39
3, 4716, Control_c, 1, 1, 41
3, 4717, Control_c, 1, 1, 43
3, 4718, Control_c, 1, 1, 46
3, 4719, Control_c, 1, 1, 47
3, 4719, Control_c, 1, 1, 49
3, 4720, Control_c, 1, 1, 51
3, 4721, Control_c, 1, 1, 53
3, 4722, Control_c, 1, 1, 55
3, 4723, Control_c, 1, 1, 57
3, 4724, Control_c, 1, 1, 59
3, 4725, Control_c, 1, 1, 61
3, 4725, Control_c, 1, 1, 63
3, 4725, Control_c, 1, 1, 65
3, 4727, Control_c, 1, 1, 66
3, 4728, Control_c, 1, 1, 68
3, 4729, Control_c, 1, 1, 70
3, 4729, Control_c, 1, 1, 72
3, 4730, Control_c, 1, 1, 74
3, 4731, Control_c, 1, 1, 75
3, 4732, Control_c, 1, 1, 77
3, 4733, Control_c, 1, 1, 78
3, 4733, Control_c, 1, 1, 80
3, 4734, Control_c, 1, 1, 81
3, 4735, Control_c, 1, 1, 83
3, 4736, Control_c, 1, 1, 84
3, 4737, Control_c, 1, 1, 86
3, 4737, Control_c, 1, 1, 87
3, 4738, Control_c, 1, 1, 89
3, 4739, Control_c, 1, 1, 90
3, 4740, Control_c, 1, 1, 91
3, 4741, Control_c, 1, 1, 92
3, 4742, Control_c, 1, 1, 94
3, 4743, Control_c, 1, 1, 95
3, 4745, Control_c, 1, 1, 97
3, 4746, Control_c, 1, 1, 98
3, 4747, Control_c, 1, 1, 99
3, 4747, Control_c, 1, 1, 100
3, 4750, Control_c, 1, 1, 102
3, 4752, Control_c, 1, 1, 104
3, 4754, Control_c, 1, 1, 106
3, 4757, Control_c, 1, 1, 107
3, 4759, Control_c, 1, 1, 109
3, 4762, Control_c, 1, 1, 111
3, 4765, Control_c, 1, 1, 112
3, 4768, Control_c, 1, 1, 113
3, 4785, Control_c, 1, 1, 112
3, 4788, Control_c, 1, 1, 111
3, 4791, Control_c, 1, 1, 109
3, 4794, Control_c, 1, 1, 108
3, 4797, Control_c, 1, 1, 106
3, 4800, Control_c, 1, 1, 105
3, 4803, Control_c, 1, 1, 103
3, 4805, Control_c, 1, 1, 101
3, 4808, Control_c, 1, 1, 100
3, 4810, Control_c, 1, 1, 98
3, 4812, Control_c, 1, 1, 96
3, 4812, Control_c, 1, 1, 95
3, 4816, Control_c, 1, 1, 93
3, 4816, Control_c, 1, 1, 91
3, 4819, Control_c, 1, 1, 89
3, 4820, Control_c, 1, 1, 87
3, 4822, Control_c, 1, 1, 86
3, 4823, Control_c, 1, 1, 85
3, 4824, Control_c, 1, 1, 84
3, 4824, Control_c, 1, 1, 83
3, 4825, Control_c, 1, 1, 81
3, 4825, Control_c, 1, 1, 80
3, 4828, Control_c, 1, 1, 78
3, 4829, Control_c, 1, 1, 76
3, 4830, Control_c, 1, 1, 75
3, 4831, Control_c, 1, 1, 74
3, 4832, Control_c, 1, 1, 73
3, 4832, Control_c, 1, 1, 72
3, 4833, Control_c, 1, 1, 71
3, 4834, Control_c, 1, 1, 69
3, 4835, Control_c, 1, 1, 68
3, 4835, Control_c, 1, 1, 67
3, 4836, Control_c, 1, 1, 66
3, 4837, Control_c, 1, 1, 65
3, 4838, Control_c, 1, 1, 63
3, 4839, Control_c, 1, 1, 62
3, 4841, Control_c, 1, 1, 59
3, 4842, Control_c, 1, 1, 57
3, 4843, Control_c, 1, 1, 56
3, 4844, Control_c, 1, 1, 55
3, 4845, Control_c, 1, 1, 54
3, 4846, Control_c, 1, 1, 53
3, 4846, Control_c, 1, 1, 52
3, 4847, Control_c, 1, 1, 50
3, 4848, Control_c, 1, 1, 49
3, 4849, Control_c, 1, 1, 48
3, 4850, Control_c, 1, 1, 47
3, 4850, Control_c, 1, 1, 46
3, 4851, Control_c, 1, 1, 45
3, 4851, Control_c, 1, 1, 43
3, 4853, Control_c, 1, 1, 42
3, 4854, Control_c, 1, 1, 41
3, 4855, Control_c, 1, 1, 40
3, 4855, Control_c, 1, 1, 39
3, 4855, Control_c, 1, 1, 38
3, 4857, Control_c, 1, 1, 37
3, 4858, Control_c, 1, 1, 35
3, 4859, Control_c, 1, 1, 34
3, 4861, Control_c, 1, 1, 32
3, 4862, Control_c, 1, 1, 31
3, 4863, Control_c, 1, 1, 30
3, 4864, Control_c, 1, 1, 29
3, 4866, Control_c, 1, 1, 27
3, 4867, Control_c, 1, 1, 25
3, 4869, Control_c, 1, 1, 24
3, 4870, Control_c, 1, 1, 23
3, 4871, Control_c, 1, 1, 22
3, 4872, Control_c, 1, 1, 20
3, 4873, Control_c, 1, 1, 19
3, 4875, Control_c, 1, 1, 17
3, 4876, Control_c, 1, 1, 16
3, 4878, Control_c, 1, 1, 13
3, 4879, Control_c, 1, 1, 12
3, 4879, Control_c, 1, 1, 11
3, 4880, Control_c, 1, 1, 10
3, 4881, Control_c, 1, 1, 8
3, 4881, Control_c, 1, 1, 7
3, 4883, Control_c, 1, 1, 6
3, 4883, Control_c, 1, 1, 5
3, 4884, Control_c, 1, 1, 3
3, 4885, Control_c, 1, 1, 2
3, 4886, Control_c, 1, 1, 1
3, 4985, Note_on_c, 1, 36, 71
3, 4994, Note_on_c, 1, 48, 0
3, 5156, Note_on_c, 1, 36, 0
3, 5161, Note_on_c, 1, 41, 85
3, 5272, Pitch_bend_c, 1, 8192
3, 5273, Pitch_bend_c, 1, 8192
3, 5274, Pitch_bend_c, 1, 8192
3, 5277, Pitch_bend_c, 1, 8842
3, 5278, Pitch_bend_c, 1, 9102
3, 5281, Pitch_bend_c, 1, 9232
3, 5309, Pitch_bend_c, 1, 9492
3, 5311, Pitch_bend_c, 1, 9622
3, 5314, Pitch_bend_c, 1, 9882
3, 5315, Pitch_bend_c, 1, 10142
3, 5317, Pitch_bend_c, 1, 10272
3, 5318, Pitch_bend_c, 1, 10532
3, 5320, Pitch_bend_c, 1, 10792
3, 5322, Pitch_bend_c, 1, 10922
3, 5323, Pitch_bend_c, 1, 11312
3, 5325, Pitch_bend_c, 1, 11572
3, 5327, Pitch_bend_c, 1, 11832
3, 5328, Pitch_bend_c, 1, 12092
3, 5329, Pitch_bend_c, 1, 12222
3, 5331, Pitch_bend_c, 1, 12482
3, 5333, Pitch_bend_c, 1, 12612
3, 5335, Pitch_bend_c, 1, 12872
3, 5336, Pitch_bend_c, 1, 13002
3, 5338, Pitch_bend_c, 1, 13132
3, 5341, Pitch_bend_c, 1, 13262
3, 5343, Pitch_bend_c, 1, 13392
3, 5343, Pitch_bend_c, 1, 13522
3, 5346, Pitch_bend_c, 1, 13652
3, 5350, Pitch_bend_c, 1, 13782
3, 5352, Pitch_bend_c, 1, 13912
3, 5354, Pitch_bend_c, 1, 14042
3, 5355, Pitch_bend_c, 1, 14172
3, 5357, Pitch_bend_c, 1, 14432
3, 5358, Pitch_bend_c, 1, 14562
3, 5360, Pitch_bend_c, 1, 14692
3, 5361, Pitch_bend_c, 1, 14822
3, 5363, Pitch_bend_c, 1, 15082
3, 5365, Pitch_bend_c, 1, 15212
3, 5368, Pitch_bend_c, 1, 15342
3, 5371, Pitch_bend_c, 1, 15472
3, 5377, Pitch_bend_c, 1, 15342
3, 5379, Pitch_bend_c, 1, 15212
3, 5383, Pitch_bend_c, 1, 14968
3, 5384, Pitch_bend_c, 1, 14822
3, 5386, Pitch_bend_c, 1, 14562
3, 5387, Pitch_bend_c, 1, 14302
3, 5389, Pitch_bend_c, 1, 14042
3, 5391, Pitch_bend_c, 1, 13782
3, 5391, Pitch_bend_c, 1, 13392
3, 5394, Pitch_bend_c, 1, 13002
3, 5395, Pitch_bend_c, 1, 12612
3, 5397, Pitch_bend_c, 1, 12222
3, 5399, Pitch_bend_c, 1, 11832
3, 5400, Pitch_bend_c, 1, 11442
3, 5402, Pitch_bend_c, 1, 10792
3, 5403, Pitch_bend_c, 1, 10272
3, 5405, Pitch_bend_c, 1, 9882
3, 5406, Pitch_bend_c, 1, 9232
3, 5408, Pitch_bend_c, 1, 8712
3, 5410, Pitch_bend_c, 1, 8192
3, 5411, Pitch_bend_c, 1, 8192
3, 5463, Pitch_bend_c, 1, 8192
3, 5464, Pitch_bend_c, 1, 8192
3, 5465, Pitch_bend_c, 1, 8192
3, 5467, Pitch_bend_c, 1, 8712
3, 5468, Pitch_bend_c, 1, 9102
3, 5470, Pitch_bend_c, 1, 9362
3, 5471, Pitch_bend_c, 1, 9752
3, 5473, Pitch_bend_c, 1, 10012
3, 5474, Pitch_bend_c, 1, 10272
3, 5476, Pitch_bend_c, 1, 10532
3, 5478, Pitch_bend_c, 1, 10792
3, 5479, Pitch_bend_c, 1, 10922
3, 5481, Pitch_bend_c, 1, 11312
3, 5484, Pitch_bend_c, 1, 11572
3, 5487, Pitch_bend_c, 1, 11702
3, 5488, Pitch_bend_c, 1, 11832
3, 5501, Pitch_bend_c, 1, 11702
3, 5503, Pitch_bend_c, 1, 11572
3, 5505, Pitch_bend_c, 1, 11442
3, 5506, Pitch_bend_c, 1, 11052
3, 5508, Pitch_bend_c, 1, 10792
3, 5509, Pitch_bend_c, 1, 10532
3, 5511, Pitch_bend_c, 1, 10142
3, 5512, Pitch_bend_c, 1, 9752
3, 5514, Pitch_bend_c, 1, 9102
3, 5515, Pitch_bend_c, 1, 8192
3, 5516, Pitch_bend_c, 1, 8192
3, 5596, Note_on_c, 1, 36, 68
3, 5598, Note_on_c, 1, 38, 58
3, 5606, Note_on_c, 1, 38, 0
3, 5748, Note_on_c, 1, 41, 0
3, 5759, Note_on_c, 1, 36, 0
3, 5762, Note_on_c, 1, 29, 66
3, 5946, Note_on_c, 1, 36, 82
3, 5951, Note_on_c, 1, 29, 0
3, 6024, Note_on_c, 1, 53, 78
3, 6105, Note_on_c, 1, 36, 0
3, 6115, Note_on_c, 1, 48, 80
3, 6117, Note_on_c, 1, 53, 0
3, 6231, Note_on_c, 1, 48, 0
3, 6243, Note_on_c, 1, 45, 66
3, 6425, Note_on_c, 1, 45, 0
3, 6428, Note_on_c, 1, 40, 67
3, 6612, Note_on_c, 1, 40, 0
3, 6619, Note_on_c, 1, 38, 72
3, 6766, Note_on_c, 1, 52, 43
3, 6800, Note_on_c, 1, 52, 0
3, 6804, Note_on_c, 1, 53, 51
3, 6821, Note_on_c, 1, 53, 0
3, 6841, Note_on_c, 1, 54, 79
3, 6956, Note_on_c, 1, 38, 0
3, 7032, Note_on_c, 1, 38, 56
3, 7196, Note_on_c, 1, 54, 0
3, 7198, Note_on_c, 1, 38, 0
3, 7202, Note_on_c, 1, 39, 79
3, 7388, Note_on_c, 1, 44, 81
3, 7404, Note_on_c, 1, 39, 0
3, 7560, Note_on_c, 1, 44, 0
3, 7560, Note_on_c, 1, 38, 80
3, 7795, Note_on_c, 1, 43, 88
3, 7809, Note_on_c, 1, 38, 0
3, 7983, Note_on_c, 1, 43, 0
3, 7990, Note_on_c, 1, 36, 71
3, 8000, Note_on_c, 1, 33, 60
3, 8000, Note_on_c, 1, 35, 64
3, 8008, Note_on_c, 1, 36, 0
3, 8015, Note_on_c, 1, 33, 0
3, 8277, Note_on_c, 1, 35, 0
3, 8281, Note_on_c, 1, 36, 74
3, 8399, Note_on_c, 1, 36, 0
3, 8400, Note_on_c, 1, 43, 70
3, 8471, Note_on_c, 1, 52, 72
3, 8651, Note_on_c, 1, 43, 0
3, 8701, Note_on_c, 1, 43, 48
3, 8711, Note_on_c, 1, 43, 0
3, 8757, Note_on_c, 1, 52, 0
3, 8760, Note_on_c, 1, 36, 75
3, 8926, Note_on_c, 1, 36, 0
3, 8947, Note_on_c, 1, 36, 72
3, 9107, Note_on_c, 1, 36, 0
3, 9117, Note_on_c, 1, 37, 71
3, 9302, Note_on_c, 1, 44, 77
3, 9313, Note_on_c, 1, 37, 0
3, 9493, Note_on_c, 1, 37, 67
3, 9497, Note_on_c, 1, 44, 0
3, 9783, Note_on_c, 1, 32, 62
3, 9791, Note_on_c, 1, 37, 0
3, 9941, Note_on_c, 1, 32, 0
3, 9955, Note_on_c, 1, 34, 67
3, 10267, Note_on_c, 1, 46, 74
3, 10354, Note_on_c, 1, 34, 0
3, 10433, Note_on_c, 1, 46, 0
3, 10438, Note_on_c, 1, 39, 71
3, 10624, Note_on_c, 1, 55, 60
3, 10862, Note_on_c, 1, 39, 0
3, 10875, Note_on_c, 1, 42, 87
3, 11004, Note_on_c, 1, 55, 0
3, 11102, Note_on_c, 1, 30, 74
3, 11394, Note_on_c, 1, 42, 0
3, 11397, Note_on_c, 1, 30, 0
3, 11401, Note_on_c, 1, 41, 79
3, 11588, Note_on_c, 1, 29, 80
3, 11710, Note_on_c, 1, 29, 0
3, 11760, Note_on_c, 1, 39, 73
3, 11768, Note_on_c, 1, 41, 0
3, 11876, Note_on_c, 1, 39, 0
3, 11884, Note_on_c, 1, 38, 91
3, 12189, Note_on_c, 1, 44, 77
3, 12227, Note_on_c, 1, 38, 0
3, 12293, Note_on_c, 1, 38, 42
3, 12303, Note_on_c, 1, 38, 0
3, 12344, Note_on_c, 1, 44, 0
3, 12352, Note_on_c, 1, 43, 69
3, 12669, Note_on_c, 1, 38, 74
3, 12685, Note_on_c, 1, 43, 0
3, 12815, Note_on_c, 1, 36, 17
3, 12828, Note_on_c, 1, 36, 0
3, 12831, Note_on_c, 1, 38, 0
3, 12841, Note_on_c, 1, 40, 79
3, 13147, Note_on_c, 1, 57, 74
3, 13149, Note_on_c, 1, 41, 60
3, 13160, Note_on_c, 1, 40, 0
3, 13301, Note_on_c, 1, 57, 0
3, 13311, Note_on_c, 1, 41, 0
3, 13314, Note_on_c, 1, 55, 60
3, 13318, Note_on_c, 1, 40, 60
3, 13621, Note_on_c, 1, 33, 87
3, 13627, Note_on_c, 1, 55, 0
3, 13630, Note_on_c, 1, 40, 0
3, 13802, Note_on_c, 1, 33, 0
3, 13807, Note_on_c, 1, 38, 91
3, 14107, Note_on_c, 1, 45, 89
3, 14119, Note_on_c, 1, 38, 0
3, 14219, Note_on_c, 1, 45, 0
3, 14221, Note_on_c, 1, 44, 64
3, 14272, Note_on_c, 1, 44, 0
3, 14282, Note_on_c, 1, 43, 65
3, 14471, Note_on_c, 1, 31, 82
3, 14573, Note_on_c, 1, 43, 0
3, 14645, Note_on_c, 1, 43, 70
3, 14658, Note_on_c, 1, 43, 0
3, 14709, Note_on_c, 1, 44, 71
3, 14732, Note_on_c, 1, 44, 0
3, 14754, Note_on_c, 1, 31, 0
3, 14765, Note_on_c, 1, 43, 85
3, 14801, Note_on_c, 1, 43, 0
3, 14821, Note_on_c, 1, 44, 67
3, 14842, Note_on_c, 1, 44, 0
3, 14884, Note_on_c, 1, 43, 99
3, 14950, Pitch_bend_c, 1, 8192
3, 14953, Pitch_bend_c, 1, 8192
3, 14953, Pitch_bend_c, 1, 8712
3, 14956, Pitch_bend_c, 1, 8972
3, 14956, Pitch_bend_c, 1, 9232
3, 14959, Pitch_bend_c, 1, 9492
3, 14961, Pitch_bend_c, 1, 9752
3, 14962, Pitch_bend_c, 1, 10012
3, 14964, Pitch_bend_c, 1, 10402
3, 14964, Pitch_bend_c, 1, 10662
3, 14967, Pitch_bend_c, 1, 10922
3, 14969, Pitch_bend_c, 1, 11312
3, 14970, Pitch_bend_c, 1, 11442
3, 14972, Pitch_bend_c, 1, 11702
3, 14973, Pitch_bend_c, 1, 11832
3, 14975, Pitch_bend_c, 1, 11962
3, 14978, Pitch_bend_c, 1, 12092
3, 14982, Pitch_bend_c, 1, 12222
3, 14992, Pitch_bend_c, 1, 12352
3, 15004, Pitch_bend_c, 1, 12222
3, 15006, Pitch_bend_c, 1, 12092
3, 15007, Pitch_bend_c, 1, 11832
3, 15009, Pitch_bend_c, 1, 11572
3, 15011, Pitch_bend_c, 1, 11312
3, 15012, Pitch_bend_c, 1, 10922
3, 15014, Pitch_bend_c, 1, 10662
3, 15015, Pitch_bend_c, 1, 10142
3, 15017, Pitch_bend_c, 1, 9882
3, 15018, Pitch_bend_c, 1, 9362
3, 15020, Pitch_bend_c, 1, 8972
3, 15022, Pitch_bend_c, 1, 8192
3, 15022, Pitch_bend_c, 1, 8192
3, 15048, Pitch_bend_c, 1, 8192
3, 15070, Pitch_bend_c, 1, 8192
3, 15071, Pitch_bend_c, 1, 8192
3, 15072, Pitch_bend_c, 1, 8192
3, 15074, Pitch_bend_c, 1, 8712
3, 15075, Pitch_bend_c, 1, 8972
3, 15077, Pitch_bend_c, 1, 9362
3, 15078, Pitch_bend_c, 1, 9622
3, 15080, Pitch_bend_c, 1, 9882
3, 15081, Pitch_bend_c, 1, 10142
3, 15083, Pitch_bend_c, 1, 10272
3, 15084, Pitch_bend_c, 1, 10532
3, 15086, Pitch_bend_c, 1, 10662
3, 15088, Pitch_bend_c, 1, 10792
3, 15091, Pitch_bend_c, 1, 11052
3, 15092, Pitch_bend_c, 1, 11312
3, 15095, Pitch_bend_c, 1, 11442
3, 15106, Pitch_bend_c, 1, 11572
3, 15110, Pitch_bend_c, 1, 11442
3, 15112, Pitch_bend_c, 1, 11312
3, 15114, Pitch_bend_c, 1, 11052
3, 15115, Pitch_bend_c, 1, 10922
3, 15117, Pitch_bend_c, 1, 10792
3, 15118, Pitch_bend_c, 1, 10532
3, 15120, Pitch_bend_c, 1, 10272
3, 15121, Pitch_bend_c, 1, 10012
3, 15124, Pitch_bend_c, 1, 9752
3, 15124, Pitch_bend_c, 1, 9362
3, 15126, Pitch_bend_c, 1, 8972
3, 15128, Pitch_bend_c, 1, 8712
3, 15129, Pitch_bend_c, 1, 8192
3, 15130, Pitch_bend_c, 1, 8192
3, 15254, Note_on_c, 1, 31, 80
3, 15298, Note_on_c, 1, 43, 0
3, 15431, Note_on_c, 1, 43, 108
3, 15537, Note_on_c, 1, 44, 83
3, 15551, Note_on_c, 1, 43, 0
3, 15587, Note_on_c, 1, 31, 0
3, 15591, Note_on_c, 1, 44, 0
3, 15597, Note_on_c, 1, 43, 39
3, 15655, Note_on_c, 1, 44, 64
3, 15671, Note_on_c, 1, 43, 0
3, 15703, Note_on_c, 1, 44, 0
3, 15716, Note_on_c, 1, 43, 47
3, 15777, Note_on_c, 1, 43, 0
3, 15782, Note_on_c, 1, 31, 51
3, 15834, Note_on_c, 1, 31, 0
3, 15842, Note_on_c, 1, 36, 80
3, 16026, Note_on_c, 1, 43, 74
3, 16028, Note_on_c, 1, 36, 0
3, 16193, Note_on_c, 1, 43, 0
3, 16198, Note_on_c, 1, 50, 71
3, 16503, Note_on_c, 1, 43, 68
3, 16505, Note_on_c, 1, 50, 0
3, 16628, Note_on_c, 1, 43, 62
3, 16658, Note_on_c, 1, 43, 0
3, 16675, Note_on_c, 1, 43, 0
3, 16689, Note_on_c, 1, 37, 70
3, 16980, Note_on_c, 1, 44, 64
3, 16989, Note_on_c, 1, 37, 0
3, 17164, Note_on_c, 1, 53, 79
3, 17167, Note_on_c, 1, 44, 0
3, 17469, Note_on_c, 1, 44, 72
3, 17643, Note_on_c, 1, 44, 0
3, 17646, Note_on_c, 1, 46, 77
3, 17665, Note_on_c, 1, 53, 0
3, 17946, Note_on_c, 1, 58, 74
3, 17990, Note_on_c, 1, 46, 0
3, 18112, Note_on_c, 1, 51, 80
3, 18117, Note_on_c, 1, 58, 0
3, 18312, Note_on_c, 1, 63, 86
3, 18368, Note_on_c, 1, 51, 0
3, 18548, Note_on_c, 1, 51, 68
3, 18567, Note_on_c, 1, 51, 0
3, 18584, Note_on_c, 1, 63, 0
3, 18607, Note_on_c, 1, 46, 52
3, 18793, Note_on_c, 1, 44, 70
3, 18794, Note_on_c, 1, 46, 0
3, 18965, Note_on_c, 1, 44, 0
3, 18968, Note_on_c, 1, 51, 70
3, 19087, Note_on_c, 1, 60, 103
3, 19093, Note_on_c, 1, 51, 0
3, 19385, Note_on_c, 1, 60, 0
3, 19392, Note_on_c, 1, 51, 67
3, 19501, Note_on_c, 1, 54, 64
3, 19523, Note_on_c, 1, 51, 0
3, 19535, Note_on_c, 1, 54, 0
3, 19564, Note_on_c, 1, 55, 87
3, 19865, Note_on_c, 1, 50, 67
3, 19886, Note_on_c, 1, 55, 0
3, 19991, Note_on_c, 1, 50, 0
3, 19993, Note_on_c, 1, 47, 34
3, 20018, Note_on_c, 1, 47, 0
3, 20046, Note_on_c, 1, 48, 67
3, 20160, Note_on_c, 1, 60, 99
3, 20187, Note_on_c, 1, 60, 0
3, 20281, Note_on_c, 1, 60, 108
3, 20292, Note_on_c, 1, 48, 0
3, 20473, Note_on_c, 1, 48, 76
3, 20584, Note_on_c, 1, 60, 0
3, 20735, Note_on_c, 1, 46, 27
3, 20771, Note_on_c, 1, 60, 90
3, 20771, Note_on_c, 1, 59, 87
3, 20776, Note_on_c, 1, 46, 0
3, 20781, Note_on_c, 1, 59, 0
3, 20795, Note_on_c, 1, 60, 0
3, 20890, Note_on_c, 1, 60, 105
3, 20903, Note_on_c, 1, 48, 0
3, 20956, Note_on_c, 1, 48, 72
3, 20971, Note_on_c, 1, 48, 0
3, 21131, Note_on_c, 1, 48, 80
3, 21152, Note_on_c, 1, 48, 0
3, 21306, Note_on_c, 1, 60, 0
3, 21308, Note_on_c, 1, 48, 82
3, 21363, Note_on_c, 1, 60, 79
3, 21398, Note_on_c, 1, 60, 0
3, 21477, Note_on_c, 1, 48, 0
3, 21484, Note_on_c, 1, 57, 101
3, 21785, Note_on_c, 1, 51, 67
3, 21793, Note_on_c, 1, 57, 0
3, 21959, Note_on_c, 1, 51, 0
3, 21963, Note_on_c, 1, 50, 77
3, 22269, Note_on_c, 1, 44, 62
3, 22274, Note_on_c, 1, 50, 0
3, 22437, Note_on_c, 1, 51, 81
3, 22449, Note_on_c, 1, 44, 0
3, 22743, Note_on_c, 1, 56, 74
3, 22754, Note_on_c, 1, 54, 36
3, 22765, Note_on_c, 1, 51, 0
3, 22772, Note_on_c, 1, 54, 0
3, 22909, Note_on_c, 1, 56, 0
3, 22924, Note_on_c, 1, 55, 74
3, 23113, Note_on_c, 1, 50, 34
3, 23126, Note_on_c, 1, 50, 0
3, 23143, Note_on_c, 1, 55, 0
3, 23167, Note_on_c, 1, 43, 73
3, 23352, Note_on_c, 1, 55, 81
3, 23362, Note_on_c, 1, 43, 0
3, 23706, Note_on_c, 1, 43, 78
3, 23718, Note_on_c, 1, 55, 0
3, 23837, Note_on_c, 1, 50, 37
3, 23858, Note_on_c, 1, 50, 0
3, 23875, Note_on_c, 1, 43, 0
3, 23888, Note_on_c, 1, 55, 92
3, 24188, Note_on_c, 1, 43, 67
3, 24316, Note_on_c, 1, 55, 0
3, 24363, Note_on_c, 1, 43, 0
3, 24363, Note_on_c, 1, 56, 75
3, 24542, Note_on_c, 1, 49, 67
3, 24658, Note_on_c, 1, 56, 0
3, 24724, Note_on_c, 1, 61, 83
3, 24750, Note_on_c, 1, 49, 0
3, 24913, Note_on_c, 1, 49, 74
3, 25006, Note_on_c, 1, 61, 0
3, 25089, Note_on_c, 1, 56, 80
3, 25106, Note_on_c, 1, 49, 0
3, 25267, Note_on_c, 1, 49, 74
3, 25408, Note_on_c, 1, 56, 0
3, 25432, Note_on_c, 1, 46, 62
3, 25437, Note_on_c, 1, 49, 0
3, 25630, Note_on_c, 1, 58, 68
3, 25674, Note_on_c, 1, 46, 0
3, 25794, Note_on_c, 1, 58, 0
3, 25802, Note_on_c, 1, 51, 74
3, 26102, Note_on_c, 1, 46, 62
3, 26109, Note_on_c, 1, 51, 0
3, 26267, Note_on_c, 1, 46, 0
3, 26272, Note_on_c, 1, 42, 71
3, 26583, Note_on_c, 1, 58, 71
3, 26709, Note_on_c, 1, 48, 36
3, 26723, Note_on_c, 1, 48, 0
3, 26731, Note_on_c, 1, 42, 0
3, 26749, Note_on_c, 1, 58, 0
3, 26768, Note_on_c, 1, 57, 76
3, 27078, Note_on_c, 1, 53, 64
3, 27086, Note_on_c, 1, 57, 0
3, 27219, Note_on_c, 1, 53, 0
3, 27254, Note_on_c, 1, 50, 73
3, 27541, Note_on_c, 1, 56, 75
3, 27552, Note_on_c, 1, 50, 0
3, 27664, Note_on_c, 1, 50, 36
3, 27676, Note_on_c, 1, 50, 0
3, 27712, Note_on_c, 1, 56, 0
3, 27724, Note_on_c, 1, 55, 72
3, 27854, Note_on_c, 1, 50, 18
3, 27868, Note_on_c, 1, 50, 0
3, 28507, Note_on_c, 1, 48, 61
3, 28510, Note_on_c, 1, 55, 0
3, 28531, Note_on_c, 1, 48, 0
3, 28568, Note_on_c, 1, 53, 79
3, 28742, Note_on_c, 1, 53, 0
3, 28752, Note_on_c, 1, 52, 64
3, 28910, Note_on_c, 1, 52, 0
3, 28923, Note_on_c, 1, 45, 67
3, 29109, Note_on_c, 1, 57, 76
3, 29115, Note_on_c, 1, 45, 0
3, 29284, Note_on_c, 1, 50, 64
3, 29285, Note_on_c, 1, 57, 0
3, 29477, Note_on_c, 1, 62, 68
3, 29526, Note_on_c, 1, 50, 0
3, 29588, Note_on_c, 1, 50, 38
3, 29602, Note_on_c, 1, 50, 0
3, 29639, Note_on_c, 1, 62, 0
3, 29648, Note_on_c, 1, 55, 71
3, 29826, Note_on_c, 1, 43, 74
3, 29959, Note_on_c, 1, 43, 0
3, 29997, Note_on_c, 1, 43, 80
3, 30005, Note_on_c, 1, 55, 0
3, 30248, Note_on_c, 1, 55, 83
3, 30254, Note_on_c, 1, 43, 0
3, 30433, Note_on_c, 1, 57, 79
3, 30446, Note_on_c, 1, 55, 0
3, 30586, Note_on_c, 1, 57, 0
3, 30607, Note_on_c, 1, 50, 72
3, 30902, Note_on_c, 1, 55, 76
3, 30905, Note_on_c, 1, 50, 0
3, 31033, Note_on_c, 1, 47, 40
3, 31044, Note_on_c, 1, 47, 0
3, 31061, Note_on_c, 1, 55, 0
3, 31087, Note_on_c, 1, 48, 77
3, 31387, Note_on_c, 1, 43, 66
3, 31390, Note_on_c, 1, 48, 0
3, 31554, Note_on_c, 1, 43, 0
3, 31559, Note_on_c, 1, 48, 62
3, 31855, Note_on_c, 1, 48, 0
3, 31859, Note_on_c, 1, 43, 64
3, 32027, Note_on_c, 1, 43, 0
3, 32040, Note_on_c, 1, 49, 79
3, 32346, Note_on_c, 1, 44, 72
3, 32359, Note_on_c, 1, 49, 0
3, 32511, Note_on_c, 1, 44, 0
3, 32524, Note_on_c, 1, 37, 64
3, 32821, Note_on_c, 1, 44, 70
3, 32864, Note_on_c, 1, 37, 0
3, 32998, Note_on_c, 1, 39, 62
3, 33001, Note_on_c, 1, 44, 0
3, 33306, Note_on_c, 1, 46, 67
3, 33449, Note_on_c, 1, 39, 0
3, 33483, Note_on_c, 1, 46, 0
3, 33485, Note_on_c, 1, 51, 74
3, 33782, Note_on_c, 1, 51, 0
3, 33784, Note_on_c, 1, 44, 59
3, 33942, Note_on_c, 1, 44, 0
3, 33966, Note_on_c, 1, 48, 79
3, 34266, Note_on_c, 1, 48, 0
3, 34269, Note_on_c, 1, 44, 51
3, 34510, Note_on_c, 1, 51, 82
3, 34534, Note_on_c, 1, 44, 0
3, 34756, Note_on_c, 1, 44, 61
3, 34768, Note_on_c, 1, 51, 0
3, 34919, Note_on_c, 1, 43, 70
3, 34932, Note_on_c, 1, 44, 0
3, 35232, Note_on_c, 1, 48, 75
3, 35243, Note_on_c, 1, 43, 0
3, 35377, Note_on_c, 1, 48, 0
3, 35406, Note_on_c, 1, 48, 68
3, 35701, Note_on_c, 1, 36, 71
3, 35855, Note_on_c, 1, 36, 0
3, 35866, Note_on_c, 1, 48, 0
3, 35877, Note_on_c, 1, 41, 71
3, 36170, Note_on_c, 1, 48, 60
3, 36202, Note_on_c, 1, 48, 0
3, 36238, Note_on_c, 1, 48, 76
3, 36255, Note_on_c, 1, 41, 0
3, 36370, Note_on_c, 1, 36, 50
3, 36547, Note_on_c, 1, 41, 78
3, 36552, Note_on_c, 1, 48, 0
3, 36572, Note_on_c, 1, 36, 0
3, 36785, Note_on_c, 1, 48, 80
3, 36795, Note_on_c, 1, 41, 0
3, 36848, Note_on_c, 1, 36, 58
3, 36871, Note_on_c, 1, 36, 0
3, 36882, Note_on_c, 1, 48, 0
3, 36908, Note_on_c, 1, 36, 69
3, 36914, Note_on_c, 1, 48, 6
3, 36934, Note_on_c, 1, 36, 0
3, 36943, Note_on_c, 1, 48, 0
3, 36968, Note_on_c, 1, 45, 78
3, 37146, Note_on_c, 1, 52, 83
3, 37165, Note_on_c, 1, 45, 0
3, 37267, Note_on_c, 1, 45, 36
3, 37275, Note_on_c, 1, 52, 0
3, 37313, Note_on_c, 1, 45, 0
3, 37324, Note_on_c, 1, 50, 80
3, 37501, Note_on_c, 1, 56, 74
3, 37552, Note_on_c, 1, 50, 0
3, 37737, Note_on_c, 1, 44, 56
3, 37765, Note_on_c, 1, 44, 0
3, 37783, Note_on_c, 1, 56, 0
3, 37802, Note_on_c, 1, 37, 62
3, 37820, Note_on_c, 1, 37, 0
3, 37838, Note_on_c, 1, 38, 22
3, 37862, Note_on_c, 1, 38, 0
3, 37927, Note_on_c, 1, 51, 74
3, 38111, Note_on_c, 1, 44, 69
3, 38117, Note_on_c, 1, 51, 0
3, 38279, Note_on_c, 1, 55, 88
3, 38300, Note_on_c, 1, 44, 0
3, 38462, Note_on_c, 1, 43, 57
3, 38485, Note_on_c, 1, 55, 0
3, 38524, Note_on_c, 1, 31, 84
3, 38715, Note_on_c, 1, 31, 0
3, 38715, Note_on_c, 1, 35, 70
3, 38728, Note_on_c, 1, 43, 0
3, 38748, Note_on_c, 1, 35, 0
3, 38765, Note_on_c, 1, 35, 57
3, 38772, Note_on_c, 1, 36, 96
3, 38812, Note_on_c, 1, 35, 0
3, 39066, Note_on_c, 1, 43, 82
3, 39083, Note_on_c, 1, 36, 0
3, 39189, Note_on_c, 1, 38, 33
3, 39209, Note_on_c, 1, 36, 22
3, 39227, Note_on_c, 1, 36, 0
3, 39232, Note_on_c, 1, 38, 0
3, 39237, Note_on_c, 1, 43, 0
3, 39245, Note_on_c, 1, 48, 96
3, 39543, Note_on_c, 1, 43, 76
3, 39571, Note_on_c, 1, 48, 0
3, 39678, Note_on_c, 1, 44, 28
3, 39706, Note_on_c, 1, 44, 0
3, 39717, Note_on_c, 1, 43, 0
3, 39720, Note_on_c, 1, 49, 83
3, 40032, Note_on_c, 1, 44, 70
3, 40178, Note_on_c, 1, 49, 0
3, 40195, Note_on_c, 1, 44, 0
3, 40198, Note_on_c, 1, 37, 67
3, 40395, Note_on_c, 1, 53, 62
3, 40621, Note_on_c, 1, 44, 56
3, 40623, Note_on_c, 1, 37, 0
3, 40660, Note_on_c, 1, 44, 0
3, 40661, Note_on_c, 1, 53, 0
3, 40679, Note_on_c, 1, 37, 60
3, 40866, Note_on_c, 1, 46, 74
3, 40886, Note_on_c, 1, 37, 0
3, 41034, Note_on_c, 1, 46, 0
3, 41038, Note_on_c, 1, 39, 68
3, 41220, Note_on_c, 1, 51, 81
3, 41311, Note_on_c, 1, 39, 0
3, 41408, Note_on_c, 1, 39, 73
3, 41421, Note_on_c, 1, 51, 0
3, 41590, Note_on_c, 1, 42, 83
3, 41595, Note_on_c, 1, 39, 0
3, 41885, Note_on_c, 1, 54, 84
3, 42012, Note_on_c, 1, 42, 0
3, 42060, Note_on_c, 1, 42, 82
3, 42082, Note_on_c, 1, 54, 0
3, 42102, Note_on_c, 1, 42, 0
3, 42128, Note_on_c, 1, 53, 103
3, 42302, Note_on_c, 1, 48, 59
3, 42319, Note_on_c, 1, 53, 0
3, 42338, Note_on_c, 1, 48, 0
3, 42370, Note_on_c, 1, 41, 84
3, 42485, Note_on_c, 1, 53, 71
3, 42491, Note_on_c, 1, 41, 0
3, 42511, Note_on_c, 1, 53, 0
3, 42548, Note_on_c, 1, 48, 51
3, 42558, Note_on_c, 1, 48, 0
3, 42603, Note_on_c, 1, 51, 76
3, 42710, Note_on_c, 1, 51, 0
3, 42721, Note_on_c, 1, 50, 67
3, 42797, Note_on_c, 1, 50, 0
3, 42797, Note_on_c, 1, 44, 70
3, 43015, Note_on_c, 1, 44, 0
3, 43020, Note_on_c, 1, 38, 64
3, 43047, Note_on_c, 1, 38, 0
3, 43086, Note_on_c, 1, 43, 83
3, 43267, Note_on_c, 1, 57, 72
3, 43295, Note_on_c, 1, 57, 0
3, 43333, Note_on_c, 1, 55, 88
3, 43369, Note_on_c, 1, 43, 0
3, 43510, Note_on_c, 1, 43, 78
3, 43623, Note_on_c, 1, 55, 0
3, 43738, Note_on_c, 1, 57, 77
3, 43776, Note_on_c, 1, 57, 0
3, 43835, Note_on_c, 1, 43, 0
3, 43835, Note_on_c, 1, 55, 90
3, 43990, Note_on_c, 1, 43, 76
3, 44139, Note_on_c, 1, 43, 0
3, 44144, Note_on_c, 1, 55, 0
3, 44152, Note_on_c, 1, 41, 73
3, 44437, Note_on_c, 1, 41, 0
3, 44456, Note_on_c, 1, 40, 73
3, 44521, Note_on_c, 1, 52, 72
3, 44522, Note_on_c, 1, 40, 0
3, 44563, Note_on_c, 1, 52, 0
3, 44585, Note_on_c, 1, 40, 59
3, 44604, Note_on_c, 1, 40, 0
3, 44642, Note_on_c, 1, 50, 77
3, 44944, Note_on_c, 1, 43, 51
3, 44963, Note_on_c, 1, 43, 0
3, 44966, Note_on_c, 1, 50, 0
3, 45003, Note_on_c, 1, 43, 55
3, 45177, Note_on_c, 1, 55, 36
3, 45201, Note_on_c, 1, 55, 0
3, 45245, Note_on_c, 1, 55, 33
3, 45257, Note_on_c, 1, 55, 0
3, 45351, Note_on_c, 1, 43, 0
3, 45360, Note_on_c, 1, 55, 44
3, 45363, Note_on_c, 1, 53, 54
3, 45406, Note_on_c, 1, 53, 0
3, 45423, Note_on_c, 1, 55, 0
3, 45424, Note_on_c, 1, 56, 53
3, 45494, Note_on_c, 1, 56, 0
3, 45495, Note_on_c, 1, 55, 45
3, 45552, Note_on_c, 1, 56, 53
3, 45562, Note_on_c, 1, 55, 0
3, 45610, Note_on_c, 1, 56, 0
3, 45617, Note_on_c, 1, 55, 60
3, 45787, Note_on_c, 1, 43, 66
3, 45811, Note_on_c, 1, 55, 0
3, 46025, Note_on_c, 1, 55, 58
3, 46126, Note_on_c, 1, 55, 0
3, 46140, Note_on_c, 1, 56, 58
3, 46192, Note_on_c, 1, 56, 0
3, 46201, Note_on_c, 1, 43, 0
3, 46204, Note_on_c, 1, 55, 39
3, 46254, Note_on_c, 1, 55, 0
3, 46268, Note_on_c, 1, 43, 36
3, 46298, Note_on_c, 1, 43, 0
3, 46321, Note_on_c, 1, 56, 69
3, 46444, Note_on_c, 1, 56, 0
3, 46447, Note_on_c, 1, 55, 52
3, 46508, Note_on_c, 1, 55, 0
3, 46511, Note_on_c, 1, 47, 31
3, 46550, Note_on_c, 1, 47, 0
3, 46574, Note_on_c, 1, 48, 58
3, 46735, Note_on_c, 1, 48, 0
3, 46750, Note_on_c, 1, 43, 62
3, 46909, Note_on_c, 1, 43, 0
3, 46926, Note_on_c, 1, 36, 61
3, 47225, Note_on_c, 1, 43, 65
3, 47248, Note_on_c, 1, 36, 0
3, 47371, Note_on_c, 1, 43, 0
3, 47386, Note_on_c, 1, 37, 68
3, 47701, Note_on_c, 1, 44, 67
3, 47714, Note_on_c, 1, 37, 0
3, 47892, Note_on_c, 1, 53, 77
3, 48109, Note_on_c, 1, 44, 0
3, 48174, Note_on_c, 1, 53, 0
3, 48184, Note_on_c, 1, 44, 72
3, 48334, Note_on_c, 1, 44, 0
3, 48356, Note_on_c, 1, 34, 69
3, 48658, Note_on_c, 1, 41, 68
3, 48668, Note_on_c, 1, 34, 0
3, 48826, Note_on_c, 1, 41, 0
3, 48839, Note_on_c, 1, 39, 69
3, 49144, Note_on_c, 1, 51, 76
3, 49227, Note_on_c, 1, 39, 0
3, 49318, Note_on_c, 1, 44, 63
3, 49323, Note_on_c, 1, 51, 0
3, 49616, Note_on_c, 1, 55, 82
3, 49794, Note_on_c, 1, 56, 78
3, 49796, Note_on_c, 1, 55, 0
3, 50106, Note_on_c, 1, 51, 67
3, 50196, Note_on_c, 1, 56, 0
3, 50251, Note_on_c, 1, 44, 0
3, 50278, Note_on_c, 1, 55, 82
3, 50288, Note_on_c, 1, 51, 0
3, 50590, Note_on_c, 1, 43, 67
3, 50683, Note_on_c, 1, 55, 0
3, 50724, Note_on_c, 1, 48, 30
3, 50737, Note_on_c, 1, 48, 0
3, 50755, Note_on_c, 1, 43, 0
3, 50760, Note_on_c, 1, 60, 82
3, 50946, Note_on_c, 1, 48, 61
3, 50959, Note_on_c, 1, 48, 0
3, 50973, Note_on_c, 1, 60, 0
3, 51044, Note_on_c, 1, 36, 78
3, 51194, Note_on_c, 1, 36, 0
3, 51196, Note_on_c, 1, 60, 87
3, 51542, Note_on_c, 1, 48, 57
3, 51559, Note_on_c, 1, 60, 0
3, 51570, Note_on_c, 1, 48, 0
3, 51600, Note_on_c, 1, 36, 71
3, 51728, Note_on_c, 1, 60, 92
3, 51742, Note_on_c, 1, 36, 0
3, 52027, Note_on_c, 1, 48, 80
3, 52129, Note_on_c, 1, 48, 0
3, 52141, Note_on_c, 1, 43, 55
3, 52161, Note_on_c, 1, 43, 0
3, 52194, Note_on_c, 1, 45, 85
3, 52209, Note_on_c, 1, 60, 0
3, 52505, Note_on_c, 1, 57, 61
3, 52541, Note_on_c, 1, 45, 0
3, 52672, Note_on_c, 1, 50, 62
3, 52674, Note_on_c, 1, 57, 0
3, 52866, Note_on_c, 1, 62, 89
3, 53068, Note_on_c, 1, 50, 0
3, 53096, Note_on_c, 1, 54, 61
3, 53110, Note_on_c, 1, 62, 0
3, 53116, Note_on_c, 1, 54, 0
3, 53161, Note_on_c, 1, 46, 42
3, 53280, Note_on_c, 1, 51, 67
3, 53281, Note_on_c, 1, 46, 0
3, 53470, Note_on_c, 1, 56, 67
3, 53480, Note_on_c, 1, 51, 0
3, 53639, Note_on_c, 1, 55, 77
3, 53661, Note_on_c, 1, 56, 0
3, 53827, Note_on_c, 1, 43, 74
3, 53838, Note_on_c, 1, 55, 0
3, 54000, Note_on_c, 1, 55, 69
3, 54012, Note_on_c, 1, 55, 0
3, 54067, Note_on_c, 1, 57, 75
3, 54091, Note_on_c, 1, 57, 0
3, 54122, Note_on_c, 1, 55, 96
3, 54131, Note_on_c, 1, 43, 0
3, 54311, Note_on_c, 1, 43, 88
3, 54322, Note_on_c, 1, 55, 0
3, 54605, Note_on_c, 1, 55, 103
3, 54737, Note_on_c, 1, 43, 0
3, 54793, Note_on_c, 1, 43, 92
3, 54889, Note_on_c, 1, 55, 0
3, 54970, Note_on_c, 1, 55, 84
3, 55083, Note_on_c, 1, 55, 0
3, 55089, Note_on_c, 1, 43, 0
3, 55096, Note_on_c, 1, 56, 79
3, 55210, Note_on_c, 1, 56, 0
3, 55210, Note_on_c, 1, 49, 79
3, 55376, Note_on_c, 1, 49, 0
3, 55379, Note_on_c, 1, 44, 65
3, 55559, Note_on_c, 1, 44, 0
3, 55561, Note_on_c, 1, 37, 58
3, 55864, Note_on_c, 1, 44, 71
3, 55975, Note_on_c, 1, 37, 0
3, 56027, Note_on_c, 1, 44, 0
3, 56045, Note_on_c, 1, 46, 81
3, 56340, Note_on_c, 1, 58, 73
3, 56367, Note_on_c, 1, 46, 0
3, 56506, Note_on_c, 1, 58, 0
3, 56520, Note_on_c, 1, 51, 80
3, 56828, Note_on_c, 1, 46, 64
3, 56830, Note_on_c, 1, 51, 0
3, 56990, Note_on_c, 1, 46, 0
3, 56997, Note_on_c, 1, 42, 67
3, 57307, Note_on_c, 1, 58, 71
3, 57441, Note_on_c, 1, 42, 0
3, 57480, Note_on_c, 1, 57, 73
3, 57494, Note_on_c, 1, 58, 0
3, 57665, Note_on_c, 1, 41, 75
3, 57851, Note_on_c, 1, 41, 0
3, 57936, Note_on_c, 1, 50, 95
3, 57937, Note_on_c, 1, 57, 0
3, 58264, Note_on_c, 1, 56, 74
3, 58387, Note_on_c, 1, 44, 46
3, 58409, Note_on_c, 1, 50, 0
3, 58413, Note_on_c, 1, 44, 0
3, 58425, Note_on_c, 1, 56, 0
3, 58453, Note_on_c, 1, 55, 85
3, 58633, Note_on_c, 1, 43, 90
3, 58650, Note_on_c, 1, 55, 0
3, 58797, Note_on_c, 1, 47, 82
3, 58813, Note_on_c, 1, 43, 0
3, 58968, Note_on_c, 1, 47, 0
3, 58986, Note_on_c, 1, 48, 87
3, 59348, Note_on_c, 1, 53, 80
3, 59375, Note_on_c, 1, 48, 0
3, 59524, Note_on_c, 1, 53, 0
3, 59524, Note_on_c, 1, 52, 80
3, 59709, Note_on_c, 1, 52, 0
3, 59714, Note_on_c, 1, 57, 79
3, 59876, Note_on_c, 1, 57, 0
3, 59886, Note_on_c, 1, 50, 90
3, 60306, Note_on_c, 1, 43, 80
3, 60317, Note_on_c, 1, 50, 0
3, 60550, Note_on_c, 1, 55, 90
3, 60674, Note_on_c, 1, 43, 0
3, 60731, Note_on_c, 1, 43, 81
3, 60971, Note_on_c, 1, 55, 0
3, 61031, Note_on_c, 1, 55, 99
3, 61217, Note_on_c, 1, 43, 0
3, 61265, Note_on_c, 1, 43, 81
3, 61511, Note_on_c, 1, 55, 0
3, 61568, Note_on_c, 1, 55, 90
3, 61681, Note_on_c, 1, 43, 0
3, 61756, Note_on_c, 1, 43, 75
3, 61762, Note_on_c, 1, 55, 0
3, 61920, Note_on_c, 1, 48, 68
3, 61932, Note_on_c, 1, 43, 0
3, 62103, Note_on_c, 1, 55, 69
3, 62108, Note_on_c, 1, 48, 0
3, 62251, Note_on_c, 1, 55, 0
3, 62280, Note_on_c, 1, 60, 74
3, 62581, Note_on_c, 1, 55, 62
3, 62599, Note_on_c, 1, 60, 0
3, 62762, Note_on_c, 1, 37, 74
3, 62766, Note_on_c, 1, 55, 0
3, 63065, Note_on_c, 1, 44, 71
3, 63066, Note_on_c, 1, 37, 0
3, 63244, Note_on_c, 1, 53, 91
3, 63251, Note_on_c, 1, 44, 0
3, 63548, Note_on_c, 1, 44, 67
3, 63587, Note_on_c, 1, 53, 0
3, 63693, Note_on_c, 1, 44, 0
3, 63717, Note_on_c, 1, 34, 73
3, 64017, Note_on_c, 1, 41, 66
3, 64032, Note_on_c, 1, 34, 0
3, 64190, Note_on_c, 1, 41, 0
3, 64203, Note_on_c, 1, 39, 63
3, 64503, Note_on_c, 1, 45, 80
3, 64523, Note_on_c, 1, 39, 0
3, 64677, Note_on_c, 1, 44, 72
3, 64681, Note_on_c, 1, 45, 0
3, 64980, Note_on_c, 1, 51, 74
3, 65009, Note_on_c, 1, 44, 0
3, 65159, Note_on_c, 1, 60, 95
3, 65163, Note_on_c, 1, 51, 0
3, 65349, Note_on_c, 1, 51, 75
3, 65358, Note_on_c, 1, 60, 0
3, 65580, Note_on_c, 1, 44, 65
3, 65605, Note_on_c, 1, 44, 0
3, 65614, Note_on_c, 1, 51, 0
3, 65639, Note_on_c, 1, 42, 52
3, 65748, Note_on_c, 1, 42, 0
3, 65760, Note_on_c, 1, 43, 67
3, 65951, Note_on_c, 1, 50, 45
3, 65972, Note_on_c, 1, 50, 0
3, 65984, Note_on_c, 1, 43, 0
3, 66010, Note_on_c, 1, 50, 63
3, 66108, Note_on_c, 1, 43, 19
3, 66128, Note_on_c, 1, 43, 0
3, 66190, Note_on_c, 1, 55, 71
3, 66197, Note_on_c, 1, 50, 0
3, 66311, Note_on_c, 1, 48, 68
3, 66364, Note_on_c, 1, 36, 76
3, 66367, Note_on_c, 1, 48, 0
3, 66381, Note_on_c, 1, 55, 0
3, 66557, Note_on_c, 1, 48, 74
3, 66627, Note_on_c, 1, 36, 0
3, 66786, Note_on_c, 1, 36, 60
3, 66790, Note_on_c, 1, 48, 0
3, 66796, Note_on_c, 1, 36, 0
3, 66846, Note_on_c, 1, 48, 90
3, 67154, Note_on_c, 1, 36, 77
3, 67188, Note_on_c, 1, 48, 0
3, 67316, Note_on_c, 1, 36, 0
3, 67326, Note_on_c, 1, 48, 108
3, 67515, Note_on_c, 1, 46, 75
3, 67536, Note_on_c, 1, 48, 0
3, 67661, Note_on_c, 1, 46, 0
3, 67665, Note_on_c, 1, 45, 89
3, 67871, Note_on_c, 1, 57, 89
3, 67934, Note_on_c, 1, 45, 0
3, 67988, Note_on_c, 1, 42, 37
3, 68010, Note_on_c, 1, 42, 0
3, 68047, Note_on_c, 1, 57, 0
3, 68051, Note_on_c, 1, 50, 83
3, 68348, Note_on_c, 1, 38, 76
3, 68372, Note_on_c, 1, 50, 0
3, 68507, Note_on_c, 1, 38, 0
3, 68521, Note_on_c, 1, 39, 77
3, 68819, Note_on_c, 1, 39, 0
3, 68819, Note_on_c, 1, 44, 82
3, 68999, Note_on_c, 1, 50, 85
3, 69003, Note_on_c, 1, 44, 0
3, 69219, Note_on_c, 1, 43, 15
3, 69234, Note_on_c, 1, 43, 0
3, 69302, Note_on_c, 1, 50, 0
3, 69307, Note_on_c, 1, 55, 78
3, 69473, Note_on_c, 1, 43, 67
3, 69491, Note_on_c, 1, 55, 0
3, 69664, Note_on_c, 1, 55, 84
3, 69875, Note_on_c, 1, 43, 0
3, 69905, Note_on_c, 1, 43, 74
3, 69931, Note_on_c, 1, 55, 0
3, 70178, Note_on_c, 1, 50, 22
3, 70187, Note_on_c, 1, 50, 0
3, 70212, Note_on_c, 1, 55, 101
3, 70263, Note_on_c, 1, 43, 0
3, 70397, Note_on_c, 1, 43, 87
3, 70412, Note_on_c, 1, 55, 0
3, 70557, Note_on_c, 1, 56, 78
3, 70588, Note_on_c, 1, 43, 0
3, 70738, Note_on_c, 1, 44, 65
3, 70760, Note_on_c, 1, 56, 0
3, 70765, Note_on_c, 1, 44, 0
3, 70800, Note_on_c, 1, 37, 78
3, 70981, Note_on_c, 1, 53, 92
3, 71082, Note_on_c, 1, 37, 0
3, 71158, Note_on_c, 1, 44, 83
3, 71168, Note_on_c, 1, 53, 0
3, 71343, Note_on_c, 1, 37, 77
3, 71344, Note_on_c, 1, 44, 0
3, 71646, Note_on_c, 1, 46, 83
3, 71648, Note_on_c, 1, 37, 0
3, 71830, Note_on_c, 1, 41, 71
3, 71834, Note_on_c, 1, 46, 0
3, 71986, Note_on_c, 1, 41, 0
3, 71994, Note_on_c, 1, 39, 63
3, 72089, Note_on_c, 1, 39, 0
3, 72189, Note_on_c, 1, 51, 86
3, 72332, Note_on_c, 1, 51, 0
3, 72355, Note_on_c, 1, 49, 74
3, 72525, Note_on_c, 1, 49, 0
3, 72546, Note_on_c, 1, 48, 78
3, 72718, Note_on_c, 1, 48, 0
3, 72720, Note_on_c, 1, 42, 75
3, 72889, Note_on_c, 1, 42, 0
3, 72909, Note_on_c, 1, 41, 57
3, 72910, Note_on_c, 1, 40, 58
3, 72920, Note_on_c, 1, 40, 0
3, 73094, Note_on_c, 1, 53, 95
3, 73272, Note_on_c, 1, 48, 79
3, 73283, Note_on_c, 1, 53, 0
3, 73304, Note_on_c, 1, 41, 0
3, 73429, Note_on_c, 1, 48, 0
3, 73451, Note_on_c, 1, 50, 62
3, 73629, Note_on_c, 1, 44, 79
3, 73632, Note_on_c, 1, 50, 0
3, 73793, Note_on_c, 1, 44, 0
3, 73801, Note_on_c, 1, 43, 75
3, 74112, Note_on_c, 1, 43, 0
3, 74112, Note_on_c, 1, 38, 72
3, 74279, Note_on_c, 1, 38, 0
3, 74280, Note_on_c, 1, 40, 71
3, 74572, Note_on_c, 1, 41, 78
3, 74623, Note_on_c, 1, 40, 0
3, 74763, Note_on_c, 1, 45, 84
3, 74777, Note_on_c, 1, 41, 0
3, 75216, Note_on_c, 1, 45, 0
3, 75245, Note_on_c, 1, 50, 80
3, 75549, Note_on_c, 1, 45, 74
3, 75560, Note_on_c, 1, 50, 0
3, 75701, Note_on_c, 1, 45, 0
3, 75715, Note_on_c, 1, 43, 69
3, 76015, Note_on_c, 1, 55, 62
3, 76057, Note_on_c, 1, 43, 0
3, 76200, Note_on_c, 1, 43, 59
3, 76217, Note_on_c, 1, 55, 0
3, 76500, Note_on_c, 1, 55, 65
3, 76530, Note_on_c, 1, 43, 0
3, 76683, Note_on_c, 1, 55, 0
3, 76685, Note_on_c, 1, 43, 63
3, 76992, Note_on_c, 1, 55, 62
3, 77010, Note_on_c, 1, 43, 0
3, 77089, Note_on_c, 1, 55, 0
3, 77166, Note_on_c, 1, 43, 56
3, 77216, Note_on_c, 1, 43, 0
3, 77285, Note_on_c, 1, 43, 57
3, 77336, Note_on_c, 1, 43, 0
3, 77503, Note_on_c, 1, 55, 54
3, 77702, Note_on_c, 1, 43, 55
3, 77746, Note_on_c, 1, 55, 0
3, 77943, Note_on_c, 1, 55, 58
3, 77954, Note_on_c, 1, 55, 0
3, 77966, Note_on_c, 1, 43, 0
3, 78004, Note_on_c, 1, 55, 58
3, 78192, Note_on_c, 1, 55, 0
3, 78204, Note_on_c, 1, 43, 29
3, 78485, Note_on_c, 1, 55, 40
3, 78496, Note_on_c, 1, 43, 0
3, 78732, Note_on_c, 1, 43, 34
3, 78794, Note_on_c, 1, 55, 0
3, 78979, Note_on_c, 1, 55, 45
3, 79115, Note_on_c, 1, 43, 0
3, 79208, Note_on_c, 1, 43, 46
3, 79495, Note_on_c, 1, 55, 0
3, 79814, Note_on_c, 1, 43, 0
3, 79814, End_track
4, 0, Start_track
4, 0, MIDI_port, 0
4, 0, Program_c, 9, 41
4, 0, Control_c, 9, 7, 105
4, 0, Control_c, 9, 10, 60
4, 0, Note_on_c, 9, 42, 100
4, 15, Note_on_c, 9, 42, 0
4, 133, Note_on_c, 9, 42, 58
4, 186, Note_on_c, 9, 42, 0
4, 252, Note_on_c, 9, 42, 49
4, 308, Note_on_c, 9, 42, 0
4, 371, Note_on_c, 9, 42, 67
4, 401, Note_on_c, 9, 42, 0
4, 484, Note_on_c, 9, 35, 79
4, 484, Note_on_c, 9, 69, 75
4, 484, Note_on_c, 9, 37, 57
4, 484, Note_on_c, 9, 42, 73
4, 492, Note_on_c, 9, 42, 68
4, 502, Note_on_c, 9, 69, 0
4, 503, Note_on_c, 9, 42, 0
4, 511, Note_on_c, 9, 35, 0
4, 511, Note_on_c, 9, 37, 0
4, 544, Note_on_c, 9, 69, 31
4, 562, Note_on_c, 9, 69, 0
4, 584, Note_on_c, 9, 42, 0
4, 604, Note_on_c, 9, 69, 28
4, 604, Note_on_c, 9, 42, 77
4, 622, Note_on_c, 9, 69, 0
4, 629, Note_on_c, 9, 42, 0
4, 664, Note_on_c, 9, 69, 59
4, 664, Note_on_c, 9, 37, 62
4, 664, Note_on_c, 9, 35, 52
4, 686, Note_on_c, 9, 69, 0
4, 689, Note_on_c, 9, 37, 0
4, 690, Note_on_c, 9, 35, 0
4, 724, Note_on_c, 9, 35, 52
4, 724, Note_on_c, 9, 69, 32
4, 749, Note_on_c, 9, 69, 0
4, 784, Note_on_c, 9, 69, 33
4, 800, Note_on_c, 9, 69, 0
4, 823, Note_on_c, 9, 35, 0
4, 844, Note_on_c, 9, 37, 72
4, 844, Note_on_c, 9, 69, 61
4, 844, Note_on_c, 9, 42, 79
4, 866, Note_on_c, 9, 37, 0
4, 869, Note_on_c, 9, 69, 0
4, 871, Note_on_c, 9, 42, 0
4, 904, Note_on_c, 9, 69, 37
4, 904, Note_on_c, 9, 35, 45
4, 924, Note_on_c, 9, 69, 0
4, 927, Note_on_c, 9, 35, 0
4, 964, Note_on_c, 9, 69, 59
4, 964, Note_on_c, 9, 35, 49
4, 989, Note_on_c, 9, 69, 0
4, 1006, Note_on_c, 9, 35, 0
4, 1024, Note_on_c, 9, 69, 31
4, 1044, Note_on_c, 9, 69, 0
4, 1084, Note_on_c, 9, 69, 51
4, 1084, Note_on_c, 9, 37, 70
4, 1084, Note_on_c, 9, 42, 74
4, 1103, Note_on_c, 9, 69, 0
4, 1109, Note_on_c, 9, 37, 0
4, 1114, Note_on_c, 9, 42, 0
4, 1144, Note_on_c, 9, 69, 59
4, 1144, Note_on_c, 9, 35, 44
4, 1165, Note_on_c, 9, 69, 0
4, 1171, Note_on_c, 9, 35, 0
4, 1204, Note_on_c, 9, 69, 42
4, 1204, Note_on_c, 9, 35, 47
4, 1225, Note_on_c, 9, 69, 0
4, 1237, Note_on_c, 9, 35, 0
4, 1264, Note_on_c, 9, 37, 70
4, 1264, Note_on_c, 9, 69, 42
4, 1264, Note_on_c, 9, 35, 47
4, 1280, Note_on_c, 9, 69, 0
4, 1289, Note_on_c, 9, 37, 0
4, 1294, Note_on_c, 9, 35, 0
4, 1324, Note_on_c, 9, 42, 79
4, 1324, Note_on_c, 9, 69, 61
4, 1347, Note_on_c, 9, 69, 0
4, 1352, Note_on_c, 9, 42, 0
4, 1384, Note_on_c, 9, 69, 41
4, 1384, Note_on_c, 9, 35, 40
4, 1400, Note_on_c, 9, 69, 0
4, 1410, Note_on_c, 9, 35, 0
4, 1444, Note_on_c, 9, 69, 58
4, 1444, Note_on_c, 9, 35, 41
4, 1444, Note_on_c, 9, 37, 72
4, 1466, Note_on_c, 9, 69, 0
4, 1468, Note_on_c, 9, 37, 0
4, 1472, Note_on_c, 9, 35, 0
4, 1504, Note_on_c, 9, 69, 30
4, 1523, Note_on_c, 9, 69, 0
4, 1564, Note_on_c, 9, 69, 42
4, 1564, Note_on_c, 9, 42, 77
4, 1582, Note_on_c, 9, 69, 0
4, 1589, Note_on_c, 9, 42, 0
4, 1624, Note_on_c, 9, 35, 54
4, 1624, Note_on_c, 9, 69, 59
4, 1624, Note_on_c, 9, 37, 64
4, 1646, Note_on_c, 9, 69, 0
4, 1647, Note_on_c, 9, 35, 0
4, 1650, Note_on_c, 9, 37, 0
4, 1684, Note_on_c, 9, 35, 44
4, 1684, Note_on_c, 9, 69, 32
4, 1707, Note_on_c, 9, 69, 0
4, 1718, Note_on_c, 9, 35, 0
4, 1744, Note_on_c, 9, 69, 33
4, 1764, Note_on_c, 9, 69, 0
4, 1804, Note_on_c, 9, 37, 68
4, 1804, Note_on_c, 9, 69, 53
4, 1804, Note_on_c, 9, 42, 79
4, 1827, Note_on_c, 9, 69, 0
4, 1830, Note_on_c, 9, 37, 0
4, 1831, Note_on_c, 9, 42, 0
4, 1864, Note_on_c, 9, 35, 45
4, 1864, Note_on_c, 9, 69, 42
4, 1884, Note_on_c, 9, 69, 0
4, 1890, Note_on_c, 9, 35, 0
4, 1924, Note_on_c, 9, 35, 52
4, 1924, Note_on_c, 9, 69, 59
4, 1949, Note_on_c, 9, 69, 0
4, 1954, Note_on_c, 9, 35, 0
4, 1984, Note_on_c, 9, 69, 32
4, 2003, Note_on_c, 9, 69, 0
4, 2044, Note_on_c, 9, 69, 32
4, 2044, Note_on_c, 9, 37, 70
4, 2044, Note_on_c, 9, 42, 74
4, 2063, Note_on_c, 9, 69, 0
4, 2072, Note_on_c, 9, 37, 0
4, 2074, Note_on_c, 9, 42, 0
4, 2104, Note_on_c, 9, 35, 50
4, 2104, Note_on_c, 9, 69, 58
4, 2128, Note_on_c, 9, 69, 0
4, 2128, Note_on_c, 9, 35, 0
4, 2164, Note_on_c, 9, 69, 44
4, 2164, Note_on_c, 9, 35, 47
4, 2189, Note_on_c, 9, 69, 0
4, 2193, Note_on_c, 9, 35, 0
4, 2224, Note_on_c, 9, 69, 41
4, 2224, Note_on_c, 9, 37, 68
4, 2224, Note_on_c, 9, 35, 46
4, 2244, Note_on_c, 9, 69, 0
4, 2250, Note_on_c, 9, 37, 0
4, 2255, Note_on_c, 9, 35, 0
4, 2284, Note_on_c, 9, 69, 61
4, 2284, Note_on_c, 9, 42, 79
4, 2310, Note_on_c, 9, 69, 0
4, 2312, Note_on_c, 9, 42, 0
4, 2344, Note_on_c, 9, 69, 44
4, 2344, Note_on_c, 9, 35, 42
4, 2365, Note_on_c, 9, 69, 0
4, 2370, Note_on_c, 9, 35, 0
4, 2404, Note_on_c, 9, 35, 50
4, 2404, Note_on_c, 9, 69, 59
4, 2404, Note_on_c, 9, 37, 74
4, 2428, Note_on_c, 9, 69, 0
4, 2431, Note_on_c, 9, 35, 0
4, 2432, Note_on_c, 9, 37, 0
4, 2464, Note_on_c, 9, 69, 35
4, 2485, Note_on_c, 9, 69, 0
4, 2524, Note_on_c, 9, 69, 42
4, 2525, Note_on_c, 9, 42, 77
4, 2542, Note_on_c, 9, 69, 0
4, 2550, Note_on_c, 9, 42, 0
4, 2584, Note_on_c, 9, 69, 58
4, 2584, Note_on_c, 9, 37, 72
4, 2584, Note_on_c, 9, 35, 49
4, 2607, Note_on_c, 9, 35, 0
4, 2607, Note_on_c, 9, 69, 0
4, 2611, Note_on_c, 9, 37, 0
4, 2644, Note_on_c, 9, 35, 41
4, 2644, Note_on_c, 9, 69, 44
4, 2666, Note_on_c, 9, 69, 0
4, 2674, Note_on_c, 9, 35, 0
4, 2704, Note_on_c, 9, 69, 35
4, 2724, Note_on_c, 9, 69, 0
4, 2764, Note_on_c, 9, 69, 56
4, 2764, Note_on_c, 9, 37, 72
4, 2765, Note_on_c, 9, 42, 79
4, 2788, Note_on_c, 9, 69, 0
4, 2792, Note_on_c, 9, 42, 0
4, 2792, Note_on_c, 9, 37, 0
4, 2824, Note_on_c, 9, 35, 53
4, 2824, Note_on_c, 9, 69, 36
4, 2846, Note_on_c, 9, 69, 0
4, 2846, Note_on_c, 9, 35, 0
4, 2884, Note_on_c, 9, 69, 58
4, 2884, Note_on_c, 9, 35, 40
4, 2907, Note_on_c, 9, 69, 0
4, 2914, Note_on_c, 9, 35, 0
4, 2944, Note_on_c, 9, 69, 36
4, 2963, Note_on_c, 9, 69, 0
4, 3004, Note_on_c, 9, 69, 45
4, 3004, Note_on_c, 9, 37, 70
4, 3005, Note_on_c, 9, 42, 74
4, 3021, Note_on_c, 9, 69, 0
4, 3031, Note_on_c, 9, 37, 0
4, 3035, Note_on_c, 9, 42, 0
4, 3064, Note_on_c, 9, 69, 58
4, 3064, Note_on_c, 9, 35, 49
4, 3084, Note_on_c, 9, 69, 0
4, 3089, Note_on_c, 9, 35, 0
4, 3124, Note_on_c, 9, 69, 47
4, 3124, Note_on_c, 9, 35, 40
4, 3143, Note_on_c, 9, 69, 0
4, 3154, Note_on_c, 9, 35, 0
4, 3184, Note_on_c, 9, 69, 33
4, 3184, Note_on_c, 9, 37, 68
4, 3202, Note_on_c, 9, 69, 0
4, 3210, Note_on_c, 9, 37, 0
4, 3244, Note_on_c, 9, 69, 62
4, 3245, Note_on_c, 9, 42, 79
4, 3267, Note_on_c, 9, 69, 0
4, 3273, Note_on_c, 9, 42, 0
4, 3304, Note_on_c, 9, 35, 50
4, 3304, Note_on_c, 9, 69, 45
4, 3325, Note_on_c, 9, 69, 0
4, 3329, Note_on_c, 9, 35, 0
4, 3364, Note_on_c, 9, 35, 50
4, 3364, Note_on_c, 9, 37, 70
4, 3364, Note_on_c, 9, 69, 47
4, 3389, Note_on_c, 9, 69, 0
4, 3391, Note_on_c, 9, 37, 0
4, 3392, Note_on_c, 9, 35, 0
4, 3424, Note_on_c, 9, 69, 31
4, 3444, Note_on_c, 9, 69, 0
4, 3484, Note_on_c, 9, 69, 42
4, 3485, Note_on_c, 9, 42, 77
4, 3504, Note_on_c, 9, 69, 0
4, 3510, Note_on_c, 9, 42, 0
4, 3544, Note_on_c, 9, 35, 50
4, 3544, Note_on_c, 9, 37, 72
4, 3544, Note_on_c, 9, 69, 61
4, 3565, Note_on_c, 9, 35, 0
4, 3568, Note_on_c, 9, 69, 0
4, 3570, Note_on_c, 9, 37, 0
4, 3604, Note_on_c, 9, 35, 56
4, 3604, Note_on_c, 9, 69, 35
4, 3627, Note_on_c, 9, 69, 0
4, 3634, Note_on_c, 9, 35, 0
4, 3664, Note_on_c, 9, 69, 36
4, 3682, Note_on_c, 9, 69, 0
4, 3724, Note_on_c, 9, 69, 58
4, 3724, Note_on_c, 9, 37, 68
4, 3725, Note_on_c, 9, 42, 79
4, 3749, Note_on_c, 9, 69, 0
4, 3752, Note_on_c, 9, 42, 0
4, 3754, Note_on_c, 9, 37, 0
4, 3784, Note_on_c, 9, 69, 37
4, 3784, Note_on_c, 9, 35, 56
4, 3803, Note_on_c, 9, 69, 0
4, 3811, Note_on_c, 9, 35, 0
4, 3844, Note_on_c, 9, 69, 56
4, 3867, Note_on_c, 9, 69, 0
4, 3904, Note_on_c, 9, 69, 40
4, 3904, Note_on_c, 9, 35, 54
4, 3926, Note_on_c, 9, 69, 0
4, 3932, Note_on_c, 9, 35, 0
4, 3964, Note_on_c, 9, 69, 44
4, 3964, Note_on_c, 9, 37, 72
4, 3965, Note_on_c, 9, 42, 74
4, 3983, Note_on_c, 9, 69, 0
4, 3992, Note_on_c, 9, 37, 0
4, 3995, Note_on_c, 9, 42, 0
4, 4024, Note_on_c, 9, 69, 59
4, 4024, Note_on_c, 9, 35, 46
4, 4047, Note_on_c, 9, 69, 0
4, 4050, Note_on_c, 9, 35, 0
4, 4084, Note_on_c, 9, 69, 33
4, 4110, Note_on_c, 9, 69, 0
4, 4144, Note_on_c, 9, 35, 50
4, 4144, Note_on_c, 9, 69, 32
4, 4144, Note_on_c, 9, 37, 72
4, 4164, Note_on_c, 9, 69, 0
4, 4171, Note_on_c, 9, 35, 0
4, 4173, Note_on_c, 9, 37, 0
4, 4204, Note_on_c, 9, 69, 59
4, 4205, Note_on_c, 9, 42, 79
4, 4227, Note_on_c, 9, 69, 0
4, 4233, Note_on_c, 9, 42, 0
4, 4264, Note_on_c, 9, 69, 44
4, 4264, Note_on_c, 9, 35, 54
4, 4282, Note_on_c, 9, 69, 0
4, 4288, Note_on_c, 9, 35, 0
4, 4324, Note_on_c, 9, 69, 61
4, 4324, Note_on_c, 9, 35, 57
4, 4324, Note_on_c, 9, 35, 79
4, 4324, Note_on_c, 9, 37, 72
4, 4324, Note_on_c, 9, 42, 73
4, 4324, Note_on_c, 9, 69, 75
4, 4325, Note_on_c, 9, 49, 36
4, 4342, Note_on_c, 9, 69, 0
4, 4343, Note_on_c, 9, 42, 0
4, 4348, Note_on_c, 9, 69, 0
4, 4351, Note_on_c, 9, 37, 0
4, 4351, Note_on_c, 9, 35, 0
4, 4351, Note_on_c, 9, 35, 0
4, 4384, Note_on_c, 9, 69, 31
4, 4402, Note_on_c, 9, 69, 0
4, 4444, Note_on_c, 9, 40, 46
4, 4444, Note_on_c, 9, 42, 77
4, 4444, Note_on_c, 9, 69, 28
4, 4462, Note_on_c, 9, 69, 0
4, 4469, Note_on_c, 9, 42, 0
4, 4476, Note_on_c, 9, 40, 0
4, 4504, Note_on_c, 9, 35, 52
4, 4504, Note_on_c, 9, 69, 59
4, 4504, Note_on_c, 9, 37, 62
4, 4526, Note_on_c, 9, 69, 0
4, 4529, Note_on_c, 9, 37, 0
4, 4530, Note_on_c, 9, 35, 0
4, 4564, Note_on_c, 9, 69, 32
4, 4564, Note_on_c, 9, 35, 52
4, 4589, Note_on_c, 9, 69, 0
4, 4624, Note_on_c, 9, 40, 53
4, 4624, Note_on_c, 9, 69, 33
4, 4640, Note_on_c, 9, 69, 0
4, 4655, Note_on_c, 9, 40, 0
4, 4663, Note_on_c, 9, 35, 0
4, 4684, Note_on_c, 9, 37, 72
4, 4684, Note_on_c, 9, 69, 61
4, 4684, Note_on_c, 9, 42, 79
4, 4706, Note_on_c, 9, 37, 0
4, 4709, Note_on_c, 9, 69, 0
4, 4711, Note_on_c, 9, 42, 0
4, 4744, Note_on_c, 9, 69, 37
4, 4744, Note_on_c, 9, 35, 45
4, 4764, Note_on_c, 9, 69, 0
4, 4767, Note_on_c, 9, 35, 0
4, 4804, Note_on_c, 9, 69, 59
4, 4804, Note_on_c, 9, 35, 49
4, 4829, Note_on_c, 9, 69, 0
4, 4846, Note_on_c, 9, 35, 0
4, 4864, Note_on_c, 9, 69, 31
4, 4884, Note_on_c, 9, 69, 0
4, 4893, Note_on_c, 9, 49, 0
4, 4924, Note_on_c, 9, 69, 51
4, 4924, Note_on_c, 9, 40, 61
4, 4924, Note_on_c, 9, 37, 70
4, 4924, Note_on_c, 9, 42, 74
4, 4943, Note_on_c, 9, 69, 0
4, 4949, Note_on_c, 9, 37, 0
4, 4954, Note_on_c, 9, 42, 0
4, 4957, Note_on_c, 9, 40, 0
4, 4984, Note_on_c, 9, 35, 44
4, 4984, Note_on_c, 9, 69, 59
4, 5005, Note_on_c, 9, 69, 0
4, 5011, Note_on_c, 9, 35, 0
4, 5044, Note_on_c, 9, 69, 42
4, 5044, Note_on_c, 9, 35, 47
4, 5065, Note_on_c, 9, 69, 0
4, 5077, Note_on_c, 9, 35, 0
4, 5104, Note_on_c, 9, 37, 70
4, 5104, Note_on_c, 9, 35, 47
4, 5104, Note_on_c, 9, 40, 51
4, 5104, Note_on_c, 9, 69, 42
4, 5120, Note_on_c, 9, 69, 0
4, 5129, Note_on_c, 9, 37, 0
4, 5134, Note_on_c, 9, 35, 0
4, 5136, Note_on_c, 9, 40, 0
4, 5164, Note_on_c, 9, 42, 79
4, 5164, Note_on_c, 9, 69, 61
4, 5187, Note_on_c, 9, 69, 0
4, 5192, Note_on_c, 9, 42, 0
4, 5224, Note_on_c, 9, 35, 40
4, 5224, Note_on_c, 9, 69, 41
4, 5240, Note_on_c, 9, 69, 0
4, 5250, Note_on_c, 9, 35, 0
4, 5284, Note_on_c, 9, 35, 41
4, 5284, Note_on_c, 9, 69, 58
4, 5284, Note_on_c, 9, 37, 72
4, 5306, Note_on_c, 9, 69, 0
4, 5308, Note_on_c, 9, 37, 0
4, 5312, Note_on_c, 9, 35, 0
4, 5344, Note_on_c, 9, 69, 30
4, 5363, Note_on_c, 9, 69, 0
4, 5404, Note_on_c, 9, 42, 77
4, 5404, Note_on_c, 9, 40, 46
4, 5404, Note_on_c, 9, 69, 42
4, 5422, Note_on_c, 9, 69, 0
4, 5429, Note_on_c, 9, 42, 0
4, 5436, Note_on_c, 9, 40, 0
4, 5464, Note_on_c, 9, 69, 59
4, 5464, Note_on_c, 9, 37, 64
4, 5464, Note_on_c, 9, 35, 54
4, 5486, Note_on_c, 9, 69, 0
4, 5487, Note_on_c, 9, 35, 0
4, 5490, Note_on_c, 9, 37, 0
4, 5524, Note_on_c, 9, 69, 32
4, 5524, Note_on_c, 9, 35, 44
4, 5547, Note_on_c, 9, 69, 0
4, 5558, Note_on_c, 9, 35, 0
4, 5584, Note_on_c, 9, 40, 53
4, 5584, Note_on_c, 9, 69, 33
4, 5604, Note_on_c, 9, 69, 0
4, 5615, Note_on_c, 9, 40, 0
4, 5644, Note_on_c, 9, 42, 79
4, 5644, Note_on_c, 9, 37, 68
4, 5644, Note_on_c, 9, 69, 53
4, 5667, Note_on_c, 9, 69, 0
4, 5670, Note_on_c, 9, 37, 0
4, 5671, Note_on_c, 9, 42, 0
4, 5704, Note_on_c, 9, 69, 42
4, 5704, Note_on_c, 9, 35, 45
4, 5724, Note_on_c, 9, 69, 0
4, 5730, Note_on_c, 9, 35, 0
4, 5764, Note_on_c, 9, 35, 52
4, 5764, Note_on_c, 9, 69, 59
4, 5789, Note_on_c, 9, 69, 0
4, 5794, Note_on_c, 9, 35, 0
4, 5824, Note_on_c, 9, 69, 32
4, 5843, Note_on_c, 9, 69, 0
4, 5884, Note_on_c, 9, 40, 61
4, 5884, Note_on_c, 9, 42, 74
4, 5884, Note_on_c, 9, 69, 32
4, 5884, Note_on_c, 9, 37, 70
4, 5903, Note_on_c, 9, 69, 0
4, 5912, Note_on_c, 9, 37, 0
4, 5914, Note_on_c, 9, 42, 0
4, 5917, Note_on_c, 9, 40, 0
4, 5944, Note_on_c, 9, 35, 50
4, 5944, Note_on_c, 9, 69, 58
4, 5968, Note_on_c, 9, 69, 0
4, 5968, Note_on_c, 9, 35, 0
4, 6004, Note_on_c, 9, 69, 44
4, 6004, Note_on_c, 9, 35, 47
4, 6029, Note_on_c, 9, 69, 0
4, 6033, Note_on_c, 9, 35, 0
4, 6064, Note_on_c, 9, 37, 68
4, 6064, Note_on_c, 9, 69, 41
4, 6064, Note_on_c, 9, 35, 46
4, 6064, Note_on_c, 9, 40, 51
4, 6084, Note_on_c, 9, 69, 0
4, 6090, Note_on_c, 9, 37, 0
4, 6095, Note_on_c, 9, 35, 0
4, 6096, Note_on_c, 9, 40, 0
4, 6124, Note_on_c, 9, 69, 61
4, 6124, Note_on_c, 9, 42, 79
4, 6150, Note_on_c, 9, 69, 0
4, 6152, Note_on_c, 9, 42, 0
4, 6184, Note_on_c, 9, 35, 42
4, 6184, Note_on_c, 9, 69, 44
4, 6205, Note_on_c, 9, 69, 0
4, 6210, Note_on_c, 9, 35, 0
4, 6244, Note_on_c, 9, 35, 50
4, 6244, Note_on_c, 9, 69, 59
4, 6244, Note_on_c, 9, 37, 74
4, 6268, Note_on_c, 9, 69, 0
4, 6271, Note_on_c, 9, 35, 0
4, 6272, Note_on_c, 9, 37, 0
4, 6304, Note_on_c, 9, 69, 35
4, 6325, Note_on_c, 9, 69, 0
4, 6364, Note_on_c, 9, 69, 42
4, 6364, Note_on_c, 9, 40, 46
4, 6365, Note_on_c, 9, 42, 77
4, 6382, Note_on_c, 9, 69, 0
4, 6390, Note_on_c, 9, 42, 0
4, 6396, Note_on_c, 9, 40, 0
4, 6424, Note_on_c, 9, 35, 49
4, 6424, Note_on_c, 9, 69, 58
4, 6424, Note_on_c, 9, 37, 72
4, 6447, Note_on_c, 9, 69, 0
4, 6447, Note_on_c, 9, 35, 0
4, 6451, Note_on_c, 9, 37, 0
4, 6484, Note_on_c, 9, 69, 44
4, 6484, Note_on_c, 9, 35, 41
4, 6506, Note_on_c, 9, 69, 0
4, 6514, Note_on_c, 9, 35, 0
4, 6544, Note_on_c, 9, 69, 35
4, 6544, Note_on_c, 9, 40, 53
4, 6564, Note_on_c, 9, 69, 0
4, 6575, Note_on_c, 9, 40, 0
4, 6604, Note_on_c, 9, 69, 56
4, 6604, Note_on_c, 9, 37, 72
4, 6605, Note_on_c, 9, 42, 79
4, 6628, Note_on_c, 9, 69, 0
4, 6632, Note_on_c, 9, 42, 0
4, 6632, Note_on_c, 9, 37, 0
4, 6664, Note_on_c, 9, 35, 53
4, 6664, Note_on_c, 9, 69, 36
4, 6686, Note_on_c, 9, 69, 0
4, 6686, Note_on_c, 9, 35, 0
4, 6724, Note_on_c, 9, 35, 40
4, 6724, Note_on_c, 9, 69, 58
4, 6747, Note_on_c, 9, 69, 0
4, 6754, Note_on_c, 9, 35, 0
4, 6784, Note_on_c, 9, 69, 36
4, 6803, Note_on_c, 9, 69, 0
4, 6844, Note_on_c, 9, 69, 45
4, 6844, Note_on_c, 9, 40, 61
4, 6844, Note_on_c, 9, 37, 70
4, 6845, Note_on_c, 9, 42, 74
4, 6861, Note_on_c, 9, 69, 0
4, 6871, Note_on_c, 9, 37, 0
4, 6875, Note_on_c, 9, 42, 0
4, 6877, Note_on_c, 9, 40, 0
4, 6904, Note_on_c, 9, 69, 58
4, 6904, Note_on_c, 9, 35, 49
4, 6924, Note_on_c, 9, 69, 0
4, 6929, Note_on_c, 9, 35, 0
4, 6964, Note_on_c, 9, 35, 40
4, 6964, Note_on_c, 9, 69, 47
4, 6983, Note_on_c, 9, 69, 0
4, 6994, Note_on_c, 9, 35, 0
4, 7024, Note_on_c, 9, 40, 51
4, 7024, Note_on_c, 9, 37, 68
4, 7024, Note_on_c, 9, 69, 33
4, 7042, Note_on_c, 9, 69, 0
4, 7050, Note_on_c, 9, 37, 0
4, 7056, Note_on_c, 9, 40, 0
4, 7084, Note_on_c, 9, 69, 62
4, 7085, Note_on_c, 9, 42, 79
4, 7107, Note_on_c, 9, 69, 0
4, 7113, Note_on_c, 9, 42, 0
4, 7144, Note_on_c, 9, 35, 50
4, 7144, Note_on_c, 9, 69, 45
4, 7165, Note_on_c, 9, 69, 0
4, 7169, Note_on_c, 9, 35, 0
4, 7204, Note_on_c, 9, 35, 50
4, 7204, Note_on_c, 9, 37, 70
4, 7204, Note_on_c, 9, 69, 47
4, 7229, Note_on_c, 9, 69, 0
4, 7231, Note_on_c, 9, 37, 0
4, 7232, Note_on_c, 9, 35, 0
4, 7264, Note_on_c, 9, 69, 31
4, 7284, Note_on_c, 9, 69, 0
4, 7324, Note_on_c, 9, 40, 46
4, 7324, Note_on_c, 9, 69, 42
4, 7325, Note_on_c, 9, 42, 77
4, 7344, Note_on_c, 9, 69, 0
4, 7350, Note_on_c, 9, 42, 0
4, 7356, Note_on_c, 9, 40, 0
4, 7384, Note_on_c, 9, 37, 72
4, 7384, Note_on_c, 9, 35, 50
4, 7384, Note_on_c, 9, 69, 61
4, 7405, Note_on_c, 9, 35, 0
4, 7408, Note_on_c, 9, 69, 0
4, 7410, Note_on_c, 9, 37, 0
4, 7444, Note_on_c, 9, 35, 56
4, 7444, Note_on_c, 9, 69, 35
4, 7467, Note_on_c, 9, 69, 0
4, 7474, Note_on_c, 9, 35, 0
4, 7504, Note_on_c, 9, 40, 53
4, 7504, Note_on_c, 9, 69, 36
4, 7522, Note_on_c, 9, 69, 0
4, 7535, Note_on_c, 9, 40, 0
4, 7564, Note_on_c, 9, 37, 68
4, 7564, Note_on_c, 9, 69, 58
4, 7565, Note_on_c, 9, 42, 79
4, 7589, Note_on_c, 9, 69, 0
4, 7592, Note_on_c, 9, 42, 0
4, 7594, Note_on_c, 9, 37, 0
4, 7624, Note_on_c, 9, 35, 56
4, 7624, Note_on_c, 9, 69, 37
4, 7643, Note_on_c, 9, 69, 0
4, 7651, Note_on_c, 9, 35, 0
4, 7684, Note_on_c, 9, 69, 56
4, 7707, Note_on_c, 9, 69, 0
4, 7744, Note_on_c, 9, 69, 40
4, 7744, Note_on_c, 9, 35, 54
4, 7766, Note_on_c, 9, 69, 0
4, 7772, Note_on_c, 9, 35, 0
4, 7804, Note_on_c, 9, 40, 61
4, 7804, Note_on_c, 9, 37, 72
4, 7804, Note_on_c, 9, 69, 44
4, 7805, Note_on_c, 9, 42, 74
4, 7823, Note_on_c, 9, 69, 0
4, 7832, Note_on_c, 9, 37, 0
4, 7835, Note_on_c, 9, 42, 0
4, 7837, Note_on_c, 9, 40, 0
4, 7864, Note_on_c, 9, 35, 46
4, 7864, Note_on_c, 9, 69, 59
4, 7887, Note_on_c, 9, 69, 0
4, 7890, Note_on_c, 9, 35, 0
4, 7924, Note_on_c, 9, 69, 33
4, 7950, Note_on_c, 9, 69, 0
4, 7984, Note_on_c, 9, 37, 72
4, 7984, Note_on_c, 9, 69, 32
4, 7984, Note_on_c, 9, 35, 50
4, 7984, Note_on_c, 9, 40, 51
4, 8004, Note_on_c, 9, 69, 0
4, 8011, Note_on_c, 9, 35, 0
4, 8013, Note_on_c, 9, 37, 0
4, 8016, Note_on_c, 9, 40, 0
4, 8044, Note_on_c, 9, 69, 59
4, 8045, Note_on_c, 9, 42, 79
4, 8067, Note_on_c, 9, 69, 0
4, 8073, Note_on_c, 9, 42, 0
4, 8104, Note_on_c, 9, 35, 54
4, 8104, Note_on_c, 9, 69, 44
4, 8122, Note_on_c, 9, 69, 0
4, 8128, Note_on_c, 9, 35, 0
4, 8164, Note_on_c, 9, 35, 57
4, 8164, Note_on_c, 9, 69, 61
4, 8164, Note_on_c, 9, 37, 72
4, 8165, Note_on_c, 9, 49, 37
4, 8188, Note_on_c, 9, 69, 0
4, 8191, Note_on_c, 9, 35, 0
4, 8192, Note_on_c, 9, 37, 0
4, 8224, Note_on_c, 9, 69, 32
4, 8245, Note_on_c, 9, 69, 0
4, 8284, Note_on_c, 9, 69, 62
4, 8284, Note_on_c, 9, 40, 46
4, 8285, Note_on_c, 9, 42, 77
4, 8306, Note_on_c, 9, 69, 0
4, 8310, Note_on_c, 9, 42, 0
4, 8316, Note_on_c, 9, 40, 0
4, 8344, Note_on_c, 9, 37, 72
4, 8344, Note_on_c, 9, 69, 53
4, 8344, Note_on_c, 9, 35, 63
4, 8361, Note_on_c, 9, 69, 0
4, 8368, Note_on_c, 9, 35, 0
4, 8373, Note_on_c, 9, 37, 0
4, 8404, Note_on_c, 9, 35, 52
4, 8404, Note_on_c, 9, 69, 33
4, 8427, Note_on_c, 9, 69, 0
4, 8433, Note_on_c, 9, 35, 0
4, 8464, Note_on_c, 9, 69, 32
4, 8464, Note_on_c, 9, 40, 53
4, 8481, Note_on_c, 9, 69, 0
4, 8495, Note_on_c, 9, 40, 0
4, 8524, Note_on_c, 9, 69, 62
4, 8524, Note_on_c, 9, 37, 72
4, 8525, Note_on_c, 9, 42, 79
4, 8548, Note_on_c, 9, 69, 0
4, 8552, Note_on_c, 9, 42, 0
4, 8553, Note_on_c, 9, 37, 0
4, 8584, Note_on_c, 9, 35, 61
4, 8584, Note_on_c, 9, 69, 44
4, 8602, Note_on_c, 9, 69, 0
4, 8609, Note_on_c, 9, 35, 0
4, 8644, Note_on_c, 9, 69, 48
4, 8644, Note_on_c, 9, 35, 52
4, 8662, Note_on_c, 9, 69, 0
4, 8676, Note_on_c, 9, 49, 0
4, 8678, Note_on_c, 9, 35, 0
4, 8704, Note_on_c, 9, 69, 44
4, 8721, Note_on_c, 9, 69, 0
4, 8764, Note_on_c, 9, 69, 61
4, 8764, Note_on_c, 9, 40, 61
4, 8764, Note_on_c, 9, 37, 72
4, 8765, Note_on_c, 9, 42, 74
4, 8787, Note_on_c, 9, 69, 0
4, 8793, Note_on_c, 9, 37, 0
4, 8795, Note_on_c, 9, 42, 0
4, 8797, Note_on_c, 9, 40, 0
4, 8824, Note_on_c, 9, 35, 58
4, 8824, Note_on_c, 9, 69, 35
4, 8844, Note_on_c, 9, 69, 0
4, 8848, Note_on_c, 9, 35, 0
4, 8884, Note_on_c, 9, 35, 52
4, 8884, Note_on_c, 9, 69, 33
4, 8907, Note_on_c, 9, 69, 0
4, 8912, Note_on_c, 9, 35, 0
4, 8944, Note_on_c, 9, 37, 77
4, 8944, Note_on_c, 9, 40, 51
4, 8944, Note_on_c, 9, 69, 33
4, 8944, Note_on_c, 9, 35, 53
4, 8963, Note_on_c, 9, 69, 0
4, 8970, Note_on_c, 9, 37, 0
4, 8973, Note_on_c, 9, 35, 0
4, 8976, Note_on_c, 9, 40, 0
4, 9004, Note_on_c, 9, 69, 62
4, 9005, Note_on_c, 9, 42, 79
4, 9026, Note_on_c, 9, 69, 0
4, 9033, Note_on_c, 9, 42, 0
4, 9064, Note_on_c, 9, 69, 48
4, 9064, Note_on_c, 9, 35, 58
4, 9082, Note_on_c, 9, 69, 0
4, 9091, Note_on_c, 9, 35, 0
4, 9124, Note_on_c, 9, 37, 72
4, 9124, Note_on_c, 9, 69, 42
4, 9124, Note_on_c, 9, 35, 53
4, 9142, Note_on_c, 9, 69, 0
4, 9152, Note_on_c, 9, 35, 0
4, 9153, Note_on_c, 9, 37, 0
4, 9184, Note_on_c, 9, 69, 40
4, 9201, Note_on_c, 9, 69, 0
4, 9244, Note_on_c, 9, 69, 59
4, 9244, Note_on_c, 9, 40, 46
4, 9245, Note_on_c, 9, 42, 77
4, 9266, Note_on_c, 9, 69, 0
4, 9270, Note_on_c, 9, 42, 0
4, 9276, Note_on_c, 9, 40, 0
4, 9304, Note_on_c, 9, 37, 70
4, 9304, Note_on_c, 9, 35, 57
4, 9304, Note_on_c, 9, 69, 47
4, 9325, Note_on_c, 9, 69, 0
4, 9330, Note_on_c, 9, 35, 0
4, 9332, Note_on_c, 9, 37, 0
4, 9364, Note_on_c, 9, 69, 42
4, 9364, Note_on_c, 9, 35, 42
4, 9387, Note_on_c, 9, 69, 0
4, 9393, Note_on_c, 9, 35, 0
4, 9424, Note_on_c, 9, 69, 32
4, 9424, Note_on_c, 9, 40, 53
4, 9443, Note_on_c, 9, 69, 0
4, 9455, Note_on_c, 9, 40, 0
4, 9484, Note_on_c, 9, 69, 59
4, 9484, Note_on_c, 9, 37, 72
4, 9485, Note_on_c, 9, 42, 79
4, 9508, Note_on_c, 9, 69, 0
4, 9512, Note_on_c, 9, 42, 0
4, 9512, Note_on_c, 9, 37, 0
4, 9544, Note_on_c, 9, 69, 45
4, 9544, Note_on_c, 9, 35, 63
4, 9563, Note_on_c, 9, 69, 0
4, 9572, Note_on_c, 9, 35, 0
4, 9604, Note_on_c, 9, 35, 42
4, 9604, Note_on_c, 9, 69, 48
4, 9624, Note_on_c, 9, 69, 0
4, 9635, Note_on_c, 9, 35, 0
4, 9664, Note_on_c, 9, 69, 32
4, 9681, Note_on_c, 9, 69, 0
4, 9724, Note_on_c, 9, 40, 61
4, 9724, Note_on_c, 9, 69, 61
4, 9724, Note_on_c, 9, 37, 72
4, 9725, Note_on_c, 9, 42, 74
4, 9745, Note_on_c, 9, 69, 0
4, 9750, Note_on_c, 9, 37, 0
4, 9755, Note_on_c, 9, 42, 0
4, 9757, Note_on_c, 9, 40, 0
4, 9784, Note_on_c, 9, 69, 44
4, 9784, Note_on_c, 9, 35, 40
4, 9805, Note_on_c, 9, 69, 0
4, 9810, Note_on_c, 9, 35, 0
4, 9844, Note_on_c, 9, 69, 58
4, 9844, Note_on_c, 9, 35, 53
4, 9863, Note_on_c, 9, 69, 0
4, 9871, Note_on_c, 9, 35, 0
4, 9904, Note_on_c, 9, 37, 70
4, 9904, Note_on_c, 9, 40, 51
4, 9904, Note_on_c, 9, 69, 41
4, 9924, Note_on_c, 9, 69, 0
4, 9932, Note_on_c, 9, 37, 0
4, 9936, Note_on_c, 9, 40, 0
4, 9964, Note_on_c, 9, 69, 59
4, 9965, Note_on_c, 9, 42, 79
4, 9987, Note_on_c, 9, 69, 0
4, 9993, Note_on_c, 9, 42, 0
4, 10024, Note_on_c, 9, 69, 48
4, 10024, Note_on_c, 9, 35, 58
4, 10043, Note_on_c, 9, 69, 0
4, 10052, Note_on_c, 9, 35, 0
4, 10084, Note_on_c, 9, 69, 44
4, 10084, Note_on_c, 9, 35, 52
4, 10084, Note_on_c, 9, 37, 77
4, 10101, Note_on_c, 9, 69, 0
4, 10110, Note_on_c, 9, 35, 0
4, 10111, Note_on_c, 9, 37, 0
4, 10144, Note_on_c, 9, 69, 45
4, 10160, Note_on_c, 9, 69, 0
4, 10204, Note_on_c, 9, 40, 46
4, 10204, Note_on_c, 9, 69, 62
4, 10206, Note_on_c, 9, 42, 77
4, 10224, Note_on_c, 9, 69, 0
4, 10231, Note_on_c, 9, 42, 0
4, 10236, Note_on_c, 9, 40, 0
4, 10264, Note_on_c, 9, 35, 53
4, 10264, Note_on_c, 9, 69, 53
4, 10264, Note_on_c, 9, 37, 74
4, 10281, Note_on_c, 9, 69, 0
4, 10289, Note_on_c, 9, 35, 0
4, 10295, Note_on_c, 9, 37, 0
4, 10324, Note_on_c, 9, 35, 50
4, 10324, Note_on_c, 9, 69, 44
4, 10345, Note_on_c, 9, 69, 0
4, 10352, Note_on_c, 9, 35, 0
4, 10384, Note_on_c, 9, 40, 53
4, 10384, Note_on_c, 9, 69, 33
4, 10405, Note_on_c, 9, 69, 0
4, 10415, Note_on_c, 9, 40, 0
4, 10444, Note_on_c, 9, 69, 71
4, 10444, Note_on_c, 9, 37, 72
4, 10446, Note_on_c, 9, 42, 79
4, 10467, Note_on_c, 9, 69, 0
4, 10473, Note_on_c, 9, 42, 0
4, 10474, Note_on_c, 9, 37, 0
4, 10504, Note_on_c, 9, 69, 50
4, 10504, Note_on_c, 9, 35, 54
4, 10521, Note_on_c, 9, 69, 0
4, 10531, Note_on_c, 9, 35, 0
4, 10564, Note_on_c, 9, 35, 40
4, 10564, Note_on_c, 9, 69, 42
4, 10584, Note_on_c, 9, 69, 0
4, 10596, Note_on_c, 9, 35, 0
4, 10624, Note_on_c, 9, 69, 48
4, 10641, Note_on_c, 9, 69, 0
4, 10684, Note_on_c, 9, 69, 62
4, 10684, Note_on_c, 9, 40, 61
4, 10684, Note_on_c, 9, 37, 72
4, 10686, Note_on_c, 9, 42, 74
4, 10705, Note_on_c, 9, 69, 0
4, 10715, Note_on_c, 9, 37, 0
4, 10716, Note_on_c, 9, 42, 0
4, 10717, Note_on_c, 9, 40, 0
4, 10744, Note_on_c, 9, 69, 48
4, 10744, Note_on_c, 9, 35, 60
4, 10761, Note_on_c, 9, 69, 0
4, 10767, Note_on_c, 9, 35, 0
4, 10804, Note_on_c, 9, 69, 42
4, 10804, Note_on_c, 9, 35, 49
4, 10826, Note_on_c, 9, 69, 0
4, 10828, Note_on_c, 9, 35, 0
4, 10864, Note_on_c, 9, 69, 45
4, 10864, Note_on_c, 9, 35, 60
4, 10864, Note_on_c, 9, 40, 51
4, 10864, Note_on_c, 9, 37, 72
4, 10882, Note_on_c, 9, 69, 0
4, 10891, Note_on_c, 9, 37, 0
4, 10892, Note_on_c, 9, 35, 0
4, 10896, Note_on_c, 9, 40, 0
4, 10924, Note_on_c, 9, 69, 62
4, 10926, Note_on_c, 9, 42, 79
4, 10947, Note_on_c, 9, 69, 0
4, 10954, Note_on_c, 9, 42, 0
4, 10984, Note_on_c, 9, 35, 50
4, 10984, Note_on_c, 9, 69, 47
4, 11002, Note_on_c, 9, 69, 0
4, 11009, Note_on_c, 9, 35, 0
4, 11044, Note_on_c, 9, 35, 50
4, 11044, Note_on_c, 9, 69, 47
4, 11044, Note_on_c, 9, 37, 72
4, 11065, Note_on_c, 9, 69, 0
4, 11073, Note_on_c, 9, 37, 0
4, 11073, Note_on_c, 9, 35, 0
4, 11104, Note_on_c, 9, 69, 42
4, 11120, Note_on_c, 9, 69, 0
4, 11164, Note_on_c, 9, 40, 46
4, 11164, Note_on_c, 9, 69, 62
4, 11166, Note_on_c, 9, 42, 77
4, 11186, Note_on_c, 9, 69, 0
4, 11191, Note_on_c, 9, 42, 0
4, 11196, Note_on_c, 9, 40, 0
4, 11224, Note_on_c, 9, 69, 50
4, 11224, Note_on_c, 9, 35, 49
4, 11224, Note_on_c, 9, 37, 72
4, 11240, Note_on_c, 9, 69, 0
4, 11251, Note_on_c, 9, 35, 0
4, 11253, Note_on_c, 9, 37, 0
4, 11284, Note_on_c, 9, 35, 53
4, 11284, Note_on_c, 9, 69, 41
4, 11305, Note_on_c, 9, 69, 0
4, 11315, Note_on_c, 9, 35, 0
4, 11344, Note_on_c, 9, 40, 53
4, 11344, Note_on_c, 9, 69, 47
4, 11363, Note_on_c, 9, 69, 0
4, 11375, Note_on_c, 9, 40, 0
4, 11404, Note_on_c, 9, 69, 62
4, 11404, Note_on_c, 9, 37, 70
4, 11406, Note_on_c, 9, 42, 79
4, 11427, Note_on_c, 9, 69, 0
4, 11432, Note_on_c, 9, 37, 0
4, 11433, Note_on_c, 9, 42, 0
4, 11464, Note_on_c, 9, 35, 57
4, 11464, Note_on_c, 9, 69, 48
4, 11482, Note_on_c, 9, 69, 0
4, 11489, Note_on_c, 9, 35, 0
4, 11524, Note_on_c, 9, 35, 50
4, 11524, Note_on_c, 9, 69, 58
4, 11545, Note_on_c, 9, 69, 0
4, 11555, Note_on_c, 9, 35, 0
4, 11584, Note_on_c, 9, 69, 47
4, 11602, Note_on_c, 9, 69, 0
4, 11644, Note_on_c, 9, 37, 68
4, 11644, Note_on_c, 9, 69, 59
4, 11644, Note_on_c, 9, 40, 61
4, 11646, Note_on_c, 9, 42, 74
4, 11666, Note_on_c, 9, 69, 0
4, 11676, Note_on_c, 9, 37, 0
4, 11676, Note_on_c, 9, 42, 0
4, 11677, Note_on_c, 9, 40, 0
4, 11704, Note_on_c, 9, 35, 57
4, 11704, Note_on_c, 9, 69, 52
4, 11723, Note_on_c, 9, 69, 0
4, 11729, Note_on_c, 9, 35, 0
4, 11764, Note_on_c, 9, 69, 44
4, 11764, Note_on_c, 9, 35, 58
4, 11788, Note_on_c, 9, 69, 0
4, 11789, Note_on_c, 9, 35, 0
4, 11824, Note_on_c, 9, 69, 41
4, 11824, Note_on_c, 9, 40, 51
4, 11824, Note_on_c, 9, 35, 46
4, 11824, Note_on_c, 9, 37, 68
4, 11845, Note_on_c, 9, 69, 0
4, 11852, Note_on_c, 9, 37, 0
4, 11852, Note_on_c, 9, 35, 0
4, 11856, Note_on_c, 9, 40, 0
4, 11884, Note_on_c, 9, 69, 61
4, 11886, Note_on_c, 9, 42, 79
4, 11907, Note_on_c, 9, 69, 0
4, 11914, Note_on_c, 9, 42, 0
4, 11944, Note_on_c, 9, 35, 60
4, 11944, Note_on_c, 9, 69, 59
4, 11964, Note_on_c, 9, 69, 0
4, 11968, Note_on_c, 9, 35, 0
4, 12004, Note_on_c, 9, 69, 75
4, 12004, Note_on_c, 9, 69, 59
4, 12004, Note_on_c, 9, 35, 66
4, 12004, Note_on_c, 9, 37, 57
4, 12005, Note_on_c, 9, 49, 35
4, 12022, Note_on_c, 9, 69, 0
4, 12025, Note_on_c, 9, 69, 0
4, 12031, Note_on_c, 9, 37, 0
4, 12045, Note_on_c, 9, 49, 0
4, 12063, Note_on_c, 9, 35, 0
4, 12064, Note_on_c, 9, 69, 31
4, 12082, Note_on_c, 9, 69, 0
4, 12124, Note_on_c, 9, 40, 46
4, 12124, Note_on_c, 9, 69, 28
4, 12126, Note_on_c, 9, 42, 77
4, 12142, Note_on_c, 9, 69, 0
4, 12151, Note_on_c, 9, 42, 0
4, 12156, Note_on_c, 9, 40, 0
4, 12184, Note_on_c, 9, 69, 59
4, 12184, Note_on_c, 9, 35, 52
4, 12184, Note_on_c, 9, 37, 62
4, 12206, Note_on_c, 9, 69, 0
4, 12209, Note_on_c, 9, 37, 0
4, 12210, Note_on_c, 9, 35, 0
4, 12244, Note_on_c, 9, 35, 52
4, 12244, Note_on_c, 9, 69, 32
4, 12269, Note_on_c, 9, 69, 0
4, 12304, Note_on_c, 9, 40, 53
4, 12304, Note_on_c, 9, 69, 33
4, 12320, Note_on_c, 9, 69, 0
4, 12335, Note_on_c, 9, 40, 0
4, 12343, Note_on_c, 9, 35, 0
4, 12364, Note_on_c, 9, 69, 61
4, 12364, Note_on_c, 9, 37, 72
4, 12366, Note_on_c, 9, 42, 79
4, 12386, Note_on_c, 9, 37, 0
4, 12389, Note_on_c, 9, 69, 0
4, 12393, Note_on_c, 9, 42, 0
4, 12424, Note_on_c, 9, 35, 45
4, 12424, Note_on_c, 9, 69, 37
4, 12444, Note_on_c, 9, 69, 0
4, 12447, Note_on_c, 9, 35, 0
4, 12484, Note_on_c, 9, 35, 49
4, 12484, Note_on_c, 9, 69, 59
4, 12509, Note_on_c, 9, 69, 0
4, 12526, Note_on_c, 9, 35, 0
4, 12544, Note_on_c, 9, 69, 31
4, 12564, Note_on_c, 9, 69, 0
4, 12604, Note_on_c, 9, 69, 51
4, 12604, Note_on_c, 9, 37, 70
4, 12604, Note_on_c, 9, 40, 61
4, 12606, Note_on_c, 9, 42, 74
4, 12623, Note_on_c, 9, 69, 0
4, 12629, Note_on_c, 9, 37, 0
4, 12636, Note_on_c, 9, 42, 0
4, 12637, Note_on_c, 9, 40, 0
4, 12664, Note_on_c, 9, 35, 44
4, 12664, Note_on_c, 9, 69, 59
4, 12685, Note_on_c, 9, 69, 0
4, 12691, Note_on_c, 9, 35, 0
4, 12724, Note_on_c, 9, 69, 42
4, 12724, Note_on_c, 9, 35, 47
4, 12745, Note_on_c, 9, 69, 0
4, 12757, Note_on_c, 9, 35, 0
4, 12784, Note_on_c, 9, 69, 42
4, 12784, Note_on_c, 9, 37, 70
4, 12784, Note_on_c, 9, 35, 47
4, 12784, Note_on_c, 9, 40, 51
4, 12800, Note_on_c, 9, 69, 0
4, 12809, Note_on_c, 9, 37, 0
4, 12814, Note_on_c, 9, 35, 0
4, 12816, Note_on_c, 9, 40, 0
4, 12844, Note_on_c, 9, 69, 61
4, 12846, Note_on_c, 9, 42, 79
4, 12867, Note_on_c, 9, 69, 0
4, 12874, Note_on_c, 9, 42, 0
4, 12904, Note_on_c, 9, 69, 41
4, 12904, Note_on_c, 9, 35, 40
4, 12920, Note_on_c, 9, 69, 0
4, 12930, Note_on_c, 9, 35, 0
4, 12964, Note_on_c, 9, 35, 41
4, 12964, Note_on_c, 9, 69, 58
4, 12964, Note_on_c, 9, 37, 72
4, 12986, Note_on_c, 9, 69, 0
4, 12988, Note_on_c, 9, 37, 0
4, 12992, Note_on_c, 9, 35, 0
4, 13024, Note_on_c, 9, 69, 30
4, 13043, Note_on_c, 9, 69, 0
4, 13084, Note_on_c, 9, 40, 46
4, 13084, Note_on_c, 9, 69, 42
4, 13086, Note_on_c, 9, 42, 77
4, 13102, Note_on_c, 9, 69, 0
4, 13111, Note_on_c, 9, 42, 0
4, 13116, Note_on_c, 9, 40, 0
4, 13144, Note_on_c, 9, 69, 59
4, 13144, Note_on_c, 9, 35, 54
4, 13144, Note_on_c, 9, 37, 64
4, 13166, Note_on_c, 9, 69, 0
4, 13167, Note_on_c, 9, 35, 0
4, 13170, Note_on_c, 9, 37, 0
4, 13204, Note_on_c, 9, 35, 44
4, 13204, Note_on_c, 9, 69, 32
4, 13227, Note_on_c, 9, 69, 0
4, 13238, Note_on_c, 9, 35, 0
4, 13264, Note_on_c, 9, 40, 53
4, 13264, Note_on_c, 9, 69, 33
4, 13284, Note_on_c, 9, 69, 0
4, 13295, Note_on_c, 9, 40, 0
4, 13324, Note_on_c, 9, 69, 53
4, 13324, Note_on_c, 9, 37, 68
4, 13326, Note_on_c, 9, 42, 79
4, 13347, Note_on_c, 9, 69, 0
4, 13350, Note_on_c, 9, 37, 0
4, 13353, Note_on_c, 9, 42, 0
4, 13384, Note_on_c, 9, 35, 45
4, 13384, Note_on_c, 9, 69, 42
4, 13404, Note_on_c, 9, 69, 0
4, 13410, Note_on_c, 9, 35, 0
4, 13444, Note_on_c, 9, 69, 59
4, 13444, Note_on_c, 9, 35, 52
4, 13469, Note_on_c, 9, 69, 0
4, 13474, Note_on_c, 9, 35, 0
4, 13504, Note_on_c, 9, 69, 32
4, 13523, Note_on_c, 9, 69, 0
4, 13564, Note_on_c, 9, 40, 61
4, 13564, Note_on_c, 9, 37, 70
4, 13564, Note_on_c, 9, 69, 32
4, 13566, Note_on_c, 9, 42, 74
4, 13583, Note_on_c, 9, 69, 0
4, 13592, Note_on_c, 9, 37, 0
4, 13596, Note_on_c, 9, 42, 0
4, 13597, Note_on_c, 9, 40, 0
4, 13624, Note_on_c, 9, 69, 58
4, 13624, Note_on_c, 9, 35, 50
4, 13648, Note_on_c, 9, 35, 0
4, 13648, Note_on_c, 9, 69, 0
4, 13684, Note_on_c, 9, 69, 44
4, 13684, Note_on_c, 9, 35, 47
4, 13709, Note_on_c, 9, 69, 0
4, 13713, Note_on_c, 9, 35, 0
4, 13744, Note_on_c, 9, 35, 46
4, 13744, Note_on_c, 9, 69, 41
4, 13744, Note_on_c, 9, 40, 51
4, 13744, Note_on_c, 9, 37, 68
4, 13764, Note_on_c, 9, 69, 0
4, 13770, Note_on_c, 9, 37, 0
4, 13775, Note_on_c, 9, 35, 0
4, 13776, Note_on_c, 9, 40, 0
4, 13804, Note_on_c, 9, 69, 61
4, 13806, Note_on_c, 9, 42, 79
4, 13830, Note_on_c, 9, 69, 0
4, 13834, Note_on_c, 9, 42, 0
4, 13864, Note_on_c, 9, 69, 44
4, 13864, Note_on_c, 9, 35, 42
4, 13885, Note_on_c, 9, 69, 0
4, 13890, Note_on_c, 9, 35, 0
4, 13924, Note_on_c, 9, 69, 59
4, 13924, Note_on_c, 9, 35, 50
4, 13924, Note_on_c, 9, 37, 74
4, 13948, Note_on_c, 9, 69, 0
4, 13951, Note_on_c, 9, 35, 0
4, 13952, Note_on_c, 9, 37, 0
4, 13984, Note_on_c, 9, 69, 35
4, 14005, Note_on_c, 9, 69, 0
4, 14044, Note_on_c, 9, 69, 42
4, 14044, Note_on_c, 9, 40, 46
4, 14047, Note_on_c, 9, 42, 77
4, 14062, Note_on_c, 9, 69, 0
4, 14072, Note_on_c, 9, 42, 0
4, 14076, Note_on_c, 9, 40, 0
4, 14104, Note_on_c, 9, 35, 49
4, 14104, Note_on_c, 9, 69, 58
4, 14104, Note_on_c, 9, 37, 72
4, 14127, Note_on_c, 9, 69, 0
4, 14127, Note_on_c, 9, 35, 0
4, 14131, Note_on_c, 9, 37, 0
4, 14164, Note_on_c, 9, 69, 44
4, 14164, Note_on_c, 9, 35, 41
4, 14186, Note_on_c, 9, 69, 0
4, 14194, Note_on_c, 9, 35, 0
4, 14224, Note_on_c, 9, 40, 53
4, 14224, Note_on_c, 9, 69, 35
4, 14244, Note_on_c, 9, 69, 0
4, 14255, Note_on_c, 9, 40, 0
4, 14284, Note_on_c, 9, 37, 72
4, 14284, Note_on_c, 9, 69, 56
4, 14287, Note_on_c, 9, 42, 79
4, 14308, Note_on_c, 9, 69, 0
4, 14312, Note_on_c, 9, 37, 0
4, 14314, Note_on_c, 9, 42, 0
4, 14344, Note_on_c, 9, 69, 36
4, 14344, Note_on_c, 9, 35, 53
4, 14366, Note_on_c, 9, 35, 0
4, 14366, Note_on_c, 9, 69, 0
4, 14404, Note_on_c, 9, 69, 58
4, 14404, Note_on_c, 9, 35, 40
4, 14427, Note_on_c, 9, 69, 0
4, 14434, Note_on_c, 9, 35, 0
4, 14464, Note_on_c, 9, 69, 36
4, 14483, Note_on_c, 9, 69, 0
4, 14524, Note_on_c, 9, 69, 45
4, 14524, Note_on_c, 9, 40, 61
4, 14524, Note_on_c, 9, 37, 70
4, 14527, Note_on_c, 9, 42, 74
4, 14541, Note_on_c, 9, 69, 0
4, 14551, Note_on_c, 9, 37, 0
4, 14557, Note_on_c, 9, 40, 0
4, 14557, Note_on_c, 9, 42, 0
4, 14584, Note_on_c, 9, 69, 58
4, 14584, Note_on_c, 9, 35, 49
4, 14604, Note_on_c, 9, 69, 0
4, 14609, Note_on_c, 9, 35, 0
4, 14644, Note_on_c, 9, 69, 47
4, 14644, Note_on_c, 9, 35, 40
4, 14663, Note_on_c, 9, 69, 0
4, 14674, Note_on_c, 9, 35, 0
4, 14704, Note_on_c, 9, 37, 68
4, 14704, Note_on_c, 9, 40, 51
4, 14704, Note_on_c, 9, 69, 33
4, 14722, Note_on_c, 9, 69, 0
4, 14730, Note_on_c, 9, 37, 0
4, 14736, Note_on_c, 9, 40, 0
4, 14764, Note_on_c, 9, 69, 62
4, 14767, Note_on_c, 9, 42, 79
4, 14787, Note_on_c, 9, 69, 0
4, 14795, Note_on_c, 9, 42, 0
4, 14824, Note_on_c, 9, 35, 50
4, 14824, Note_on_c, 9, 69, 45
4, 14845, Note_on_c, 9, 69, 0
4, 14849, Note_on_c, 9, 35, 0
4, 14884, Note_on_c, 9, 69, 47
4, 14884, Note_on_c, 9, 35, 50
4, 14884, Note_on_c, 9, 37, 70
4, 14909, Note_on_c, 9, 69, 0
4, 14911, Note_on_c, 9, 37, 0
4, 14912, Note_on_c, 9, 35, 0
4, 14944, Note_on_c, 9, 69, 31
4, 14964, Note_on_c, 9, 69, 0
4, 15004, Note_on_c, 9, 69, 42
4, 15004, Note_on_c, 9, 40, 46
4, 15007, Note_on_c, 9, 42, 77
4, 15024, Note_on_c, 9, 69, 0
4, 15032, Note_on_c, 9, 42, 0
4, 15036, Note_on_c, 9, 40, 0
4, 15064, Note_on_c, 9, 35, 50
4, 15064, Note_on_c, 9, 69, 61
4, 15064, Note_on_c, 9, 37, 72
4, 15085, Note_on_c, 9, 35, 0
4, 15088, Note_on_c, 9, 69, 0
4, 15090, Note_on_c, 9, 37, 0
4, 15124, Note_on_c, 9, 69, 35
4, 15124, Note_on_c, 9, 35, 56
4, 15147, Note_on_c, 9, 69, 0
4, 15154, Note_on_c, 9, 35, 0
4, 15184, Note_on_c, 9, 40, 53
4, 15184, Note_on_c, 9, 69, 36
4, 15202, Note_on_c, 9, 69, 0
4, 15215, Note_on_c, 9, 40, 0
4, 15244, Note_on_c, 9, 37, 68
4, 15244, Note_on_c, 9, 69, 58
4, 15247, Note_on_c, 9, 42, 79
4, 15269, Note_on_c, 9, 69, 0
4, 15274, Note_on_c, 9, 42, 0
4, 15274, Note_on_c, 9, 37, 0
4, 15304, Note_on_c, 9, 69, 37
4, 15304, Note_on_c, 9, 35, 56
4, 15323, Note_on_c, 9, 69, 0
4, 15331, Note_on_c, 9, 35, 0
4, 15364, Note_on_c, 9, 69, 56
4, 15387, Note_on_c, 9, 69, 0
4, 15424, Note_on_c, 9, 35, 54
4, 15424, Note_on_c, 9, 69, 40
4, 15446, Note_on_c, 9, 69, 0
4, 15452, Note_on_c, 9, 35, 0
4, 15484, Note_on_c, 9, 69, 44
4, 15484, Note_on_c, 9, 37, 72
4, 15484, Note_on_c, 9, 40, 61
4, 15487, Note_on_c, 9, 42, 74
4, 15503, Note_on_c, 9, 69, 0
4, 15512, Note_on_c, 9, 37, 0
4, 15517, Note_on_c, 9, 40, 0
4, 15517, Note_on_c, 9, 42, 0
4, 15544, Note_on_c, 9, 69, 59
4, 15544, Note_on_c, 9, 35, 46
4, 15567, Note_on_c, 9, 69, 0
4, 15570, Note_on_c, 9, 35, 0
4, 15604, Note_on_c, 9, 69, 33
4, 15630, Note_on_c, 9, 69, 0
4, 15664, Note_on_c, 9, 35, 50
4, 15664, Note_on_c, 9, 37, 72
4, 15664, Note_on_c, 9, 69, 32
4, 15664, Note_on_c, 9, 40, 51
4, 15684, Note_on_c, 9, 69, 0
4, 15691, Note_on_c, 9, 35, 0
4, 15693, Note_on_c, 9, 37, 0
4, 15696, Note_on_c, 9, 40, 0
4, 15724, Note_on_c, 9, 69, 59
4, 15727, Note_on_c, 9, 42, 79
4, 15747, Note_on_c, 9, 69, 0
4, 15755, Note_on_c, 9, 42, 0
4, 15784, Note_on_c, 9, 35, 54
4, 15784, Note_on_c, 9, 69, 44
4, 15802, Note_on_c, 9, 69, 0
4, 15808, Note_on_c, 9, 35, 0
4, 15837, Note_on_c, 9, 51, 115
4, 15844, Note_on_c, 9, 35, 57
4, 15844, Note_on_c, 9, 69, 61
4, 15844, Note_on_c, 9, 37, 72
4, 15868, Note_on_c, 9, 69, 0
4, 15871, Note_on_c, 9, 35, 0
4, 15872, Note_on_c, 9, 37, 0
4, 15904, Note_on_c, 9, 69, 32
4, 15908, Note_on_c, 9, 51, 0
4, 15925, Note_on_c, 9, 69, 0
4, 15964, Note_on_c, 9, 40, 46
4, 15964, Note_on_c, 9, 69, 62
4, 15967, Note_on_c, 9, 42, 77
4, 15969, Note_on_c, 9, 51, 44
4, 15982, Note_on_c, 9, 51, 0
4, 15986, Note_on_c, 9, 69, 0
4, 15992, Note_on_c, 9, 42, 0
4, 15996, Note_on_c, 9, 40, 0
4, 16024, Note_on_c, 9, 35, 63
4, 16024, Note_on_c, 9, 51, 86
4, 16024, Note_on_c, 9, 69, 53
4, 16024, Note_on_c, 9, 37, 72
4, 16041, Note_on_c, 9, 69, 0
4, 16048, Note_on_c, 9, 35, 0
4, 16053, Note_on_c, 9, 37, 0
4, 16056, Note_on_c, 9, 51, 0
4, 16084, Note_on_c, 9, 35, 52
4, 16084, Note_on_c, 9, 69, 33
4, 16088, Note_on_c, 9, 51, 43
4, 16107, Note_on_c, 9, 69, 0
4, 16113, Note_on_c, 9, 35, 0
4, 16116, Note_on_c, 9, 51, 0
4, 16144, Note_on_c, 9, 40, 53
4, 16144, Note_on_c, 9, 69, 32
4, 16161, Note_on_c, 9, 69, 0
4, 16161, Note_on_c, 9, 51, 15
4, 16173, Note_on_c, 9, 51, 0
4, 16175, Note_on_c, 9, 40, 0
4, 16204, Note_on_c, 9, 69, 62
4, 16204, Note_on_c, 9, 37, 72
4, 16207, Note_on_c, 9, 42, 79
4, 16228, Note_on_c, 9, 69, 0
4, 16233, Note_on_c, 9, 37, 0
4, 16234, Note_on_c, 9, 42, 0
4, 16256, Note_on_c, 9, 51, 82
4, 16264, Note_on_c, 9, 69, 44
4, 16264, Note_on_c, 9, 35, 61
4, 16280, Note_on_c, 9, 51, 0
4, 16282, Note_on_c, 9, 69, 0
4, 16289, Note_on_c, 9, 35, 0
4, 16320, Note_on_c, 9, 51, 34
4, 16324, Note_on_c, 9, 35, 52
4, 16324, Note_on_c, 9, 69, 48
4, 16338, Note_on_c, 9, 51, 0
4, 16342, Note_on_c, 9, 69, 0
4, 16358, Note_on_c, 9, 35, 0
4, 16384, Note_on_c, 9, 69, 44
4, 16385, Note_on_c, 9, 51, 50
4, 16401, Note_on_c, 9, 69, 0
4, 16405, Note_on_c, 9, 51, 0
4, 16444, Note_on_c, 9, 40, 61
4, 16444, Note_on_c, 9, 37, 72
4, 16444, Note_on_c, 9, 69, 61
4, 16447, Note_on_c, 9, 42, 74
4, 16450, Note_on_c, 9, 51, 24
4, 16466, Note_on_c, 9, 51, 0
4, 16467, Note_on_c, 9, 69, 0
4, 16473, Note_on_c, 9, 37, 0
4, 16477, Note_on_c, 9, 40, 0
4, 16477, Note_on_c, 9, 42, 0
4, 16503, Note_on_c, 9, 51, 127
4, 16504, Note_on_c, 9, 35, 58
4, 16504, Note_on_c, 9, 69, 35
4, 16524, Note_on_c, 9, 69, 0
4, 16528, Note_on_c, 9, 35, 0
4, 16532, Note_on_c, 9, 51, 0
4, 16563, Note_on_c, 9, 51, 62
4, 16564, Note_on_c, 9, 69, 33
4, 16564, Note_on_c, 9, 35, 52
4, 16587, Note_on_c, 9, 69, 0
4, 16592, Note_on_c, 9, 35, 0
4, 16599, Note_on_c, 9, 51, 0
4, 16624, Note_on_c, 9, 35, 53
4, 16624, Note_on_c, 9, 69, 33
4, 16624, Note_on_c, 9, 40, 51
4, 16624, Note_on_c, 9, 37, 77
4, 16632, Note_on_c, 9, 51, 62
4, 16643, Note_on_c, 9, 69, 0
4, 16650, Note_on_c, 9, 37, 0
4, 16650, Note_on_c, 9, 51, 0
4, 16653, Note_on_c, 9, 35, 0
4, 16656, Note_on_c, 9, 40, 0
4, 16682, Note_on_c, 9, 51, 106
4, 16684, Note_on_c, 9, 69, 62
4, 16687, Note_on_c, 9, 42, 79
4, 16706, Note_on_c, 9, 69, 0
4, 16714, Note_on_c, 9, 51, 0
4, 16715, Note_on_c, 9, 42, 0
4, 16744, Note_on_c, 9, 35, 58
4, 16744, Note_on_c, 9, 69, 48
4, 16747, Note_on_c, 9, 51, 65
4, 16762, Note_on_c, 9, 69, 0
4, 16769, Note_on_c, 9, 51, 0
4, 16771, Note_on_c, 9, 35, 0
4, 16801, Note_on_c, 9, 51, 115
4, 16804, Note_on_c, 9, 37, 72
4, 16804, Note_on_c, 9, 69, 42
4, 16804, Note_on_c, 9, 35, 53
4, 16822, Note_on_c, 9, 69, 0
4, 16832, Note_on_c, 9, 35, 0
4, 16833, Note_on_c, 9, 37, 0
4, 16864, Note_on_c, 9, 69, 40
4, 16879, Note_on_c, 9, 51, 0
4, 16881, Note_on_c, 9, 69, 0
4, 16924, Note_on_c, 9, 40, 46
4, 16924, Note_on_c, 9, 69, 59
4, 16927, Note_on_c, 9, 42, 77
4, 16946, Note_on_c, 9, 69, 0
4, 16952, Note_on_c, 9, 42, 0
4, 16956, Note_on_c, 9, 40, 0
4, 16984, Note_on_c, 9, 37, 70
4, 16984, Note_on_c, 9, 69, 47
4, 16984, Note_on_c, 9, 35, 57
4, 16991, Note_on_c, 9, 51, 96
4, 17005, Note_on_c, 9, 69, 0
4, 17010, Note_on_c, 9, 35, 0
4, 17012, Note_on_c, 9, 37, 0
4, 17018, Note_on_c, 9, 51, 0
4, 17044, Note_on_c, 9, 35, 42
4, 17044, Note_on_c, 9, 69, 42
4, 17047, Note_on_c, 9, 51, 50
4, 17067, Note_on_c, 9, 51, 0
4, 17067, Note_on_c, 9, 69, 0
4, 17073, Note_on_c, 9, 35, 0
4, 17104, Note_on_c, 9, 40, 53
4, 17104, Note_on_c, 9, 69, 32
4, 17107, Note_on_c, 9, 51, 65
4, 17123, Note_on_c, 9, 69, 0
4, 17135, Note_on_c, 9, 40, 0
4, 17138, Note_on_c, 9, 51, 0
4, 17164, Note_on_c, 9, 69, 59
4, 17164, Note_on_c, 9, 37, 72
4, 17167, Note_on_c, 9, 42, 79
4, 17178, Note_on_c, 9, 51, 21
4, 17187, Note_on_c, 9, 51, 0
4, 17188, Note_on_c, 9, 69, 0
4, 17192, Note_on_c, 9, 37, 0
4, 17194, Note_on_c, 9, 42, 0
4, 17223, Note_on_c, 9, 51, 82
4, 17224, Note_on_c, 9, 69, 45
4, 17224, Note_on_c, 9, 35, 63
4, 17243, Note_on_c, 9, 69, 0
4, 17247, Note_on_c, 9, 51, 0
4, 17252, Note_on_c, 9, 35, 0
4, 17284, Note_on_c, 9, 69, 48
4, 17284, Note_on_c, 9, 35, 42
4, 17285, Note_on_c, 9, 51, 77
4, 17304, Note_on_c, 9, 69, 0
4, 17315, Note_on_c, 9, 35, 0
4, 17320, Note_on_c, 9, 51, 0
4, 17344, Note_on_c, 9, 69, 32
4, 17353, Note_on_c, 9, 51, 31
4, 17361, Note_on_c, 9, 69, 0
4, 17368, Note_on_c, 9, 51, 0
4, 17404, Note_on_c, 9, 69, 61
4, 17404, Note_on_c, 9, 37, 72
4, 17404, Note_on_c, 9, 40, 61
4, 17407, Note_on_c, 9, 42, 74
4, 17425, Note_on_c, 9, 69, 0
4, 17430, Note_on_c, 9, 37, 0
4, 17437, Note_on_c, 9, 40, 0
4, 17437, Note_on_c, 9, 42, 0
4, 17461, Note_on_c, 9, 51, 92
4, 17464, Note_on_c, 9, 35, 40
4, 17464, Note_on_c, 9, 69, 44
4, 17485, Note_on_c, 9, 69, 0
4, 17486, Note_on_c, 9, 51, 0
4, 17490, Note_on_c, 9, 35, 0
4, 17518, Note_on_c, 9, 51, 73
4, 17524, Note_on_c, 9, 35, 53
4, 17524, Note_on_c, 9, 69, 58
4, 17543, Note_on_c, 9, 69, 0
4, 17545, Note_on_c, 9, 51, 0
4, 17551, Note_on_c, 9, 35, 0
4, 17579, Note_on_c, 9, 51, 92
4, 17584, Note_on_c, 9, 37, 70
4, 17584, Note_on_c, 9, 40, 51
4, 17584, Note_on_c, 9, 69, 41
4, 17604, Note_on_c, 9, 69, 0
4, 17610, Note_on_c, 9, 51, 0
4, 17612, Note_on_c, 9, 37, 0
4, 17616, Note_on_c, 9, 40, 0
4, 17644, Note_on_c, 9, 69, 59
4, 17644, Note_on_c, 9, 51, 56
4, 17647, Note_on_c, 9, 42, 79
4, 17661, Note_on_c, 9, 51, 0
4, 17667, Note_on_c, 9, 69, 0
4, 17675, Note_on_c, 9, 42, 0
4, 17703, Note_on_c, 9, 51, 59
4, 17704, Note_on_c, 9, 69, 48
4, 17704, Note_on_c, 9, 35, 58
4, 17722, Note_on_c, 9, 51, 0
4, 17723, Note_on_c, 9, 69, 0
4, 17732, Note_on_c, 9, 35, 0
4, 17764, Note_on_c, 9, 69, 44
4, 17764, Note_on_c, 9, 35, 52
4, 17764, Note_on_c, 9, 37, 77
4, 17765, Note_on_c, 9, 51, 96
4, 17781, Note_on_c, 9, 69, 0
4, 17790, Note_on_c, 9, 35, 0
4, 17791, Note_on_c, 9, 37, 0
4, 17824, Note_on_c, 9, 69, 45
4, 17840, Note_on_c, 9, 69, 0
4, 17842, Note_on_c, 9, 51, 0
4, 17884, Note_on_c, 9, 40, 46
4, 17884, Note_on_c, 9, 69, 62
4, 17888, Note_on_c, 9, 42, 77
4, 17904, Note_on_c, 9, 69, 0
4, 17913, Note_on_c, 9, 42, 0
4, 17916, Note_on_c, 9, 40, 0
4, 17944, Note_on_c, 9, 69, 53
4, 17944, Note_on_c, 9, 35, 53
4, 17944, Note_on_c, 9, 37, 74
4, 17946, Note_on_c, 9, 51, 96
4, 17961, Note_on_c, 9, 69, 0
4, 17969, Note_on_c, 9, 35, 0
4, 17975, Note_on_c, 9, 37, 0
4, 17975, Note_on_c, 9, 51, 0
4, 18004, Note_on_c, 9, 69, 44
4, 18004, Note_on_c, 9, 35, 50
4, 18025, Note_on_c, 9, 69, 0
4, 18032, Note_on_c, 9, 35, 0
4, 18064, Note_on_c, 9, 40, 53
4, 18064, Note_on_c, 9, 69, 33
4, 18085, Note_on_c, 9, 69, 0
4, 18095, Note_on_c, 9, 40, 0
4, 18122, Note_on_c, 9, 51, 50
4, 18124, Note_on_c, 9, 37, 72
4, 18124, Note_on_c, 9, 69, 71
4, 18128, Note_on_c, 9, 42, 79
4, 18134, Note_on_c, 9, 51, 0
4, 18147, Note_on_c, 9, 69, 0
4, 18154, Note_on_c, 9, 37, 0
4, 18155, Note_on_c, 9, 42, 0
4, 18178, Note_on_c, 9, 51, 96
4, 18184, Note_on_c, 9, 69, 50
4, 18184, Note_on_c, 9, 35, 54
4, 18201, Note_on_c, 9, 69, 0
4, 18207, Note_on_c, 9, 51, 0
4, 18211, Note_on_c, 9, 35, 0
4, 18244, Note_on_c, 9, 35, 40
4, 18244, Note_on_c, 9, 69, 42
4, 18247, Note_on_c, 9, 51, 31
4, 18264, Note_on_c, 9, 69, 0
4, 18268, Note_on_c, 9, 51, 0
4, 18276, Note_on_c, 9, 35, 0
4, 18304, Note_on_c, 9, 69, 48
4, 18308, Note_on_c, 9, 51, 86
4, 18321, Note_on_c, 9, 69, 0
4, 18342, Note_on_c, 9, 51, 0
4, 18364, Note_on_c, 9, 37, 72
4, 18364, Note_on_c, 9, 40, 61
4, 18364, Note_on_c, 9, 69, 62
4, 18368, Note_on_c, 9, 42, 74
4, 18379, Note_on_c, 9, 51, 33
4, 18385, Note_on_c, 9, 69, 0
4, 18395, Note_on_c, 9, 37, 0
4, 18397, Note_on_c, 9, 51, 0
4, 18397, Note_on_c, 9, 40, 0
4, 18398, Note_on_c, 9, 42, 0
4, 18424, Note_on_c, 9, 35, 60
4, 18424, Note_on_c, 9, 69, 48
4, 18441, Note_on_c, 9, 69, 0
4, 18442, Note_on_c, 9, 51, 44
4, 18447, Note_on_c, 9, 35, 0
4, 18453, Note_on_c, 9, 51, 0
4, 18484, Note_on_c, 9, 69, 42
4, 18484, Note_on_c, 9, 35, 49
4, 18489, Note_on_c, 9, 51, 44
4, 18504, Note_on_c, 9, 51, 0
4, 18506, Note_on_c, 9, 69, 0
4, 18508, Note_on_c, 9, 35, 0
4, 18544, Note_on_c, 9, 69, 45
4, 18544, Note_on_c, 9, 35, 60
4, 18544, Note_on_c, 9, 40, 51
4, 18544, Note_on_c, 9, 37, 72
4, 18547, Note_on_c, 9, 51, 106
4, 18562, Note_on_c, 9, 69, 0
4, 18571, Note_on_c, 9, 37, 0
4, 18572, Note_on_c, 9, 35, 0
4, 18576, Note_on_c, 9, 40, 0
4, 18582, Note_on_c, 9, 51, 0
4, 18604, Note_on_c, 9, 69, 62
4, 18608, Note_on_c, 9, 42, 79
4, 18610, Note_on_c, 9, 51, 62
4, 18627, Note_on_c, 9, 69, 0
4, 18634, Note_on_c, 9, 51, 0
4, 18636, Note_on_c, 9, 42, 0
4, 18664, Note_on_c, 9, 69, 47
4, 18664, Note_on_c, 9, 35, 50
4, 18670, Note_on_c, 9, 51, 68
4, 18682, Note_on_c, 9, 69, 0
4, 18689, Note_on_c, 9, 51, 0
4, 18689, Note_on_c, 9, 35, 0
4, 18724, Note_on_c, 9, 51, 115
4, 18724, Note_on_c, 9, 37, 72
4, 18724, Note_on_c, 9, 69, 47
4, 18724, Note_on_c, 9, 35, 50
4, 18745, Note_on_c, 9, 69, 0
4, 18753, Note_on_c, 9, 35, 0
4, 18753, Note_on_c, 9, 37, 0
4, 18784, Note_on_c, 9, 69, 42
4, 18800, Note_on_c, 9, 69, 0
4, 18807, Note_on_c, 9, 51, 0
4, 18844, Note_on_c, 9, 40, 46
4, 18844, Note_on_c, 9, 69, 62
4, 18848, Note_on_c, 9, 42, 77
4, 18851, Note_on_c, 9, 51, 13
4, 18860, Note_on_c, 9, 51, 0
4, 18866, Note_on_c, 9, 69, 0
4, 18873, Note_on_c, 9, 42, 0
4, 18876, Note_on_c, 9, 40, 0
4, 18899, Note_on_c, 9, 51, 115
4, 18904, Note_on_c, 9, 37, 72
4, 18904, Note_on_c, 9, 35, 49
4, 18904, Note_on_c, 9, 69, 50
4, 18920, Note_on_c, 9, 69, 0
4, 18931, Note_on_c, 9, 35, 0
4, 18933, Note_on_c, 9, 37, 0
4, 18939, Note_on_c, 9, 51, 0
4, 18963, Note_on_c, 9, 51, 30
4, 18964, Note_on_c, 9, 69, 41
4, 18964, Note_on_c, 9, 35, 53
4, 18985, Note_on_c, 9, 69, 0
4, 18990, Note_on_c, 9, 51, 0
4, 18995, Note_on_c, 9, 35, 0
4, 19024, Note_on_c, 9, 69, 47
4, 19024, Note_on_c, 9, 40, 53
4, 19037, Note_on_c, 9, 51, 30
4, 19043, Note_on_c, 9, 69, 0
4, 19050, Note_on_c, 9, 51, 0
4, 19055, Note_on_c, 9, 40, 0
4, 19084, Note_on_c, 9, 69, 62
4, 19084, Note_on_c, 9, 37, 70
4, 19088, Note_on_c, 9, 42, 79
4, 19089, Note_on_c, 9, 51, 56
4, 19107, Note_on_c, 9, 69, 0
4, 19108, Note_on_c, 9, 51, 0
4, 19112, Note_on_c, 9, 37, 0
4, 19115, Note_on_c, 9, 42, 0
4, 19140, Note_on_c, 9, 51, 127
4, 19144, Note_on_c, 9, 35, 57
4, 19144, Note_on_c, 9, 69, 48
4, 19162, Note_on_c, 9, 69, 0
4, 19169, Note_on_c, 9, 35, 0
4, 19191, Note_on_c, 9, 51, 0
4, 19204, Note_on_c, 9, 35, 50
4, 19204, Note_on_c, 9, 69, 58
4, 19225, Note_on_c, 9, 69, 0
4, 19235, Note_on_c, 9, 35, 0
4, 19264, Note_on_c, 9, 69, 47
4, 19269, Note_on_c, 9, 51, 77
4, 19282, Note_on_c, 9, 69, 0
4, 19289, Note_on_c, 9, 51, 0
4, 19321, Note_on_c, 9, 51, 65
4, 19324, Note_on_c, 9, 40, 61
4, 19324, Note_on_c, 9, 37, 68
4, 19324, Note_on_c, 9, 69, 59
4, 19328, Note_on_c, 9, 42, 74
4, 19342, Note_on_c, 9, 51, 0
4, 19346, Note_on_c, 9, 69, 0
4, 19356, Note_on_c, 9, 37, 0
4, 19357, Note_on_c, 9, 40, 0
4, 19358, Note_on_c, 9, 42, 0
4, 19381, Note_on_c, 9, 51, 127
4, 19384, Note_on_c, 9, 35, 57
4, 19384, Note_on_c, 9, 69, 52
4, 19403, Note_on_c, 9, 69, 0
4, 19409, Note_on_c, 9, 35, 0
4, 19418, Note_on_c, 9, 51, 0
4, 19441, Note_on_c, 9, 51, 68
4, 19444, Note_on_c, 9, 69, 44
4, 19444, Note_on_c, 9, 35, 58
4, 19468, Note_on_c, 9, 69, 0
4, 19469, Note_on_c, 9, 35, 0
4, 19470, Note_on_c, 9, 51, 0
4, 19501, Note_on_c, 9, 51, 68
4, 19504, Note_on_c, 9, 35, 46
4, 19504, Note_on_c, 9, 37, 68
4, 19504, Note_on_c, 9, 69, 41
4, 19504, Note_on_c, 9, 40, 51
4, 19525, Note_on_c, 9, 69, 0
4, 19527, Note_on_c, 9, 51, 0
4, 19532, Note_on_c, 9, 35, 0
4, 19532, Note_on_c, 9, 37, 0
4, 19536, Note_on_c, 9, 40, 0
4, 19564, Note_on_c, 9, 69, 61
4, 19564, Note_on_c, 9, 51, 82
4, 19568, Note_on_c, 9, 42, 79
4, 19587, Note_on_c, 9, 69, 0
4, 19596, Note_on_c, 9, 42, 0
4, 19596, Note_on_c, 9, 51, 0
4, 19624, Note_on_c, 9, 69, 59
4, 19624, Note_on_c, 9, 35, 60
4, 19627, Note_on_c, 9, 51, 56
4, 19644, Note_on_c, 9, 51, 0
4, 19644, Note_on_c, 9, 69, 0
4, 19648, Note_on_c, 9, 35, 0
4, 19682, Note_on_c, 9, 49, 41
4, 19684, Note_on_c, 9, 35, 79
4, 19684, Note_on_c, 9, 69, 75
4, 19684, Note_on_c, 9, 51, 127
4, 19684, Note_on_c, 9, 37, 57
4, 19702, Note_on_c, 9, 69, 0
4, 19711, Note_on_c, 9, 37, 0
4, 19711, Note_on_c, 9, 35, 0
4, 19744, Note_on_c, 9, 69, 31
4, 19762, Note_on_c, 9, 69, 0
4, 19773, Note_on_c, 9, 51, 0
4, 19804, Note_on_c, 9, 40, 46
4, 19804, Note_on_c, 9, 69, 28
4, 19808, Note_on_c, 9, 42, 77
4, 19815, Note_on_c, 9, 51, 127
4, 19822, Note_on_c, 9, 69, 0
4, 19833, Note_on_c, 9, 42, 0
4, 19836, Note_on_c, 9, 40, 0
4, 19864, Note_on_c, 9, 35, 52
4, 19864, Note_on_c, 9, 69, 59
4, 19864, Note_on_c, 9, 37, 62
4, 19869, Note_on_c, 9, 51, 0
4, 19886, Note_on_c, 9, 69, 0
4, 19889, Note_on_c, 9, 37, 0
4, 19890, Note_on_c, 9, 35, 0
4, 19924, Note_on_c, 9, 69, 32
4, 19924, Note_on_c, 9, 51, 62
4, 19924, Note_on_c, 9, 35, 52
4, 19944, Note_on_c, 9, 51, 0
4, 19949, Note_on_c, 9, 69, 0
4, 19980, Note_on_c, 9, 51, 106
4, 19984, Note_on_c, 9, 40, 53
4, 19984, Note_on_c, 9, 69, 33
4, 20000, Note_on_c, 9, 69, 0
4, 20015, Note_on_c, 9, 40, 0
4, 20023, Note_on_c, 9, 51, 0
4, 20023, Note_on_c, 9, 35, 0
4, 20044, Note_on_c, 9, 69, 61
4, 20044, Note_on_c, 9, 37, 72
4, 20045, Note_on_c, 9, 49, 0
4, 20047, Note_on_c, 9, 51, 41
4, 20048, Note_on_c, 9, 42, 79
4, 20066, Note_on_c, 9, 37, 0
4, 20069, Note_on_c, 9, 69, 0
4, 20069, Note_on_c, 9, 51, 0
4, 20075, Note_on_c, 9, 42, 0
4, 20101, Note_on_c, 9, 51, 127
4, 20104, Note_on_c, 9, 35, 45
4, 20104, Note_on_c, 9, 69, 37
4, 20124, Note_on_c, 9, 69, 0
4, 20127, Note_on_c, 9, 35, 0
4, 20164, Note_on_c, 9, 35, 49
4, 20164, Note_on_c, 9, 69, 59
4, 20165, Note_on_c, 9, 37, 57
4, 20165, Note_on_c, 9, 35, 79
4, 20165, Note_on_c, 9, 69, 75
4, 20165, Note_on_c, 9, 42, 73
4, 20180, Note_on_c, 9, 51, 0
4, 20183, Note_on_c, 9, 69, 0
4, 20184, Note_on_c, 9, 42, 0
4, 20189, Note_on_c, 9, 69, 0
4, 20192, Note_on_c, 9, 35, 0
4, 20192, Note_on_c, 9, 37, 0
4, 20206, Note_on_c, 9, 35, 0
4, 20223, Note_on_c, 9, 51, 53
4, 20225, Note_on_c, 9, 69, 31
4, 20243, Note_on_c, 9, 69, 0
4, 20244, Note_on_c, 9, 51, 0
4, 20281, Note_on_c, 9, 51, 56
4, 20284, Note_on_c, 9, 40, 61
4, 20285, Note_on_c, 9, 42, 77
4, 20285, Note_on_c, 9, 69, 28
4, 20298, Note_on_c, 9, 51, 0
4, 20303, Note_on_c, 9, 69, 0
4, 20310, Note_on_c, 9, 42, 0
4, 20317, Note_on_c, 9, 40, 0
4, 20337, Note_on_c, 9, 51, 106
4, 20345, Note_on_c, 9, 37, 62
4, 20345, Note_on_c, 9, 35, 52
4, 20345, Note_on_c, 9, 69, 59
4, 20367, Note_on_c, 9, 69, 0
4, 20370, Note_on_c, 9, 37, 0
4, 20371, Note_on_c, 9, 35, 0
4, 20378, Note_on_c, 9, 51, 0
4, 20405, Note_on_c, 9, 35, 52
4, 20405, Note_on_c, 9, 69, 32
4, 20430, Note_on_c, 9, 69, 0
4, 20462, Note_on_c, 9, 51, 96
4, 20464, Note_on_c, 9, 40, 51
4, 20465, Note_on_c, 9, 69, 33
4, 20481, Note_on_c, 9, 69, 0
4, 20493, Note_on_c, 9, 51, 0
4, 20496, Note_on_c, 9, 40, 0
4, 20504, Note_on_c, 9, 35, 0
4, 20522, Note_on_c, 9, 51, 62
4, 20525, Note_on_c, 9, 37, 72
4, 20525, Note_on_c, 9, 69, 61
4, 20525, Note_on_c, 9, 42, 79
4, 20547, Note_on_c, 9, 37, 0
4, 20550, Note_on_c, 9, 69, 0
4, 20552, Note_on_c, 9, 42, 0
4, 20553, Note_on_c, 9, 51, 0
4, 20585, Note_on_c, 9, 69, 37
4, 20585, Note_on_c, 9, 35, 45
4, 20587, Note_on_c, 9, 51, 44
4, 20602, Note_on_c, 9, 51, 0
4, 20605, Note_on_c, 9, 69, 0
4, 20608, Note_on_c, 9, 35, 0
4, 20645, Note_on_c, 9, 51, 50
4, 20645, Note_on_c, 9, 69, 59
4, 20645, Note_on_c, 9, 35, 49
4, 20665, Note_on_c, 9, 51, 0
4, 20670, Note_on_c, 9, 69, 0
4, 20687, Note_on_c, 9, 35, 0
4, 20705, Note_on_c, 9, 69, 31
4, 20725, Note_on_c, 9, 69, 0
4, 20764, Note_on_c, 9, 40, 46
4, 20765, Note_on_c, 9, 42, 74
4, 20765, Note_on_c, 9, 37, 70
4, 20765, Note_on_c, 9, 69, 51
4, 20766, Note_on_c, 9, 51, 106
4, 20784, Note_on_c, 9, 69, 0
4, 20790, Note_on_c, 9, 37, 0
4, 20795, Note_on_c, 9, 42, 0
4, 20796, Note_on_c, 9, 40, 0
4, 20799, Note_on_c, 9, 51, 0
4, 20825, Note_on_c, 9, 35, 44
4, 20825, Note_on_c, 9, 69, 59
4, 20835, Note_on_c, 9, 51, 50
4, 20846, Note_on_c, 9, 69, 0
4, 20852, Note_on_c, 9, 51, 0
4, 20852, Note_on_c, 9, 35, 0
4, 20885, Note_on_c, 9, 69, 42
4, 20885, Note_on_c, 9, 35, 47
4, 20889, Note_on_c, 9, 51, 21
4, 20906, Note_on_c, 9, 69, 0
4, 20911, Note_on_c, 9, 51, 0
4, 20918, Note_on_c, 9, 35, 0
4, 20944, Note_on_c, 9, 40, 53
4, 20945, Note_on_c, 9, 69, 42
4, 20945, Note_on_c, 9, 37, 70
4, 20945, Note_on_c, 9, 35, 47
4, 20961, Note_on_c, 9, 69, 0
4, 20970, Note_on_c, 9, 37, 0
4, 20975, Note_on_c, 9, 40, 0
4, 20975, Note_on_c, 9, 35, 0
4, 21004, Note_on_c, 9, 51, 36
4, 21005, Note_on_c, 9, 42, 79
4, 21005, Note_on_c, 9, 69, 61
4, 21016, Note_on_c, 9, 51, 0
4, 21028, Note_on_c, 9, 69, 0
4, 21033, Note_on_c, 9, 42, 0
4, 21054, Note_on_c, 9, 51, 92
4, 21065, Note_on_c, 9, 35, 40
4, 21065, Note_on_c, 9, 69, 41
4, 21081, Note_on_c, 9, 69, 0
4, 21091, Note_on_c, 9, 35, 0
4, 21094, Note_on_c, 9, 51, 0
4, 21125, Note_on_c, 9, 37, 72
4, 21125, Note_on_c, 9, 69, 58
4, 21125, Note_on_c, 9, 35, 41
4, 21147, Note_on_c, 9, 69, 0
4, 21149, Note_on_c, 9, 37, 0
4, 21153, Note_on_c, 9, 35, 0
4, 21181, Note_on_c, 9, 51, 68
4, 21185, Note_on_c, 9, 69, 30
4, 21204, Note_on_c, 9, 69, 0
4, 21207, Note_on_c, 9, 51, 0
4, 21244, Note_on_c, 9, 40, 61
4, 21245, Note_on_c, 9, 69, 42
4, 21245, Note_on_c, 9, 42, 77
4, 21263, Note_on_c, 9, 69, 0
4, 21270, Note_on_c, 9, 42, 0
4, 21277, Note_on_c, 9, 40, 0
4, 21295, Note_on_c, 9, 51, 62
4, 21305, Note_on_c, 9, 69, 59
4, 21305, Note_on_c, 9, 35, 54
4, 21305, Note_on_c, 9, 37, 64
4, 21320, Note_on_c, 9, 51, 0
4, 21327, Note_on_c, 9, 69, 0
4, 21328, Note_on_c, 9, 35, 0
4, 21331, Note_on_c, 9, 37, 0
4, 21353, Note_on_c, 9, 51, 62
4, 21365, Note_on_c, 9, 35, 44
4, 21365, Note_on_c, 9, 69, 32
4, 21375, Note_on_c, 9, 51, 0
4, 21388, Note_on_c, 9, 69, 0
4, 21399, Note_on_c, 9, 35, 0
4, 21422, Note_on_c, 9, 51, 82
4, 21424, Note_on_c, 9, 40, 51
4, 21425, Note_on_c, 9, 69, 33
4, 21445, Note_on_c, 9, 69, 0
4, 21450, Note_on_c, 9, 51, 0
4, 21456, Note_on_c, 9, 40, 0
4, 21480, Note_on_c, 9, 51, 68
4, 21485, Note_on_c, 9, 42, 79
4, 21485, Note_on_c, 9, 69, 53
4, 21485, Note_on_c, 9, 37, 68
4, 21507, Note_on_c, 9, 51, 0
4, 21508, Note_on_c, 9, 69, 0
4, 21511, Note_on_c, 9, 37, 0
4, 21512, Note_on_c, 9, 42, 0
4, 21544, Note_on_c, 9, 51, 50
4, 21545, Note_on_c, 9, 35, 45
4, 21545, Note_on_c, 9, 69, 42
4, 21563, Note_on_c, 9, 51, 0
4, 21565, Note_on_c, 9, 69, 0
4, 21571, Note_on_c, 9, 35, 0
4, 21599, Note_on_c, 9, 51, 68
4, 21605, Note_on_c, 9, 35, 52
4, 21605, Note_on_c, 9, 69, 59
4, 21627, Note_on_c, 9, 51, 0
4, 21630, Note_on_c, 9, 69, 0
4, 21635, Note_on_c, 9, 35, 0
4, 21665, Note_on_c, 9, 69, 32
4, 21684, Note_on_c, 9, 69, 0
4, 21724, Note_on_c, 9, 40, 46
4, 21725, Note_on_c, 9, 69, 32
4, 21725, Note_on_c, 9, 37, 70
4, 21725, Note_on_c, 9, 42, 74
4, 21731, Note_on_c, 9, 51, 86
4, 21744, Note_on_c, 9, 69, 0
4, 21753, Note_on_c, 9, 37, 0
4, 21755, Note_on_c, 9, 42, 0
4, 21756, Note_on_c, 9, 40, 0
4, 21760, Note_on_c, 9, 51, 0
4, 21785, Note_on_c, 9, 69, 58
4, 21785, Note_on_c, 9, 35, 50
4, 21807, Note_on_c, 9, 51, 36
4, 21809, Note_on_c, 9, 35, 0
4, 21809, Note_on_c, 9, 69, 0
4, 21820, Note_on_c, 9, 51, 0
4, 21845, Note_on_c, 9, 35, 47
4, 21845, Note_on_c, 9, 69, 44
4, 21853, Note_on_c, 9, 51, 43
4, 21865, Note_on_c, 9, 51, 0
4, 21870, Note_on_c, 9, 69, 0
4, 21874, Note_on_c, 9, 35, 0
4, 21904, Note_on_c, 9, 51, 86
4, 21904, Note_on_c, 9, 40, 53
4, 21905, Note_on_c, 9, 37, 68
4, 21905, Note_on_c, 9, 69, 41
4, 21905, Note_on_c, 9, 35, 46
4, 21925, Note_on_c, 9, 69, 0
4, 21925, Note_on_c, 9, 51, 0
4, 21931, Note_on_c, 9, 37, 0
4, 21935, Note_on_c, 9, 40, 0
4, 21936, Note_on_c, 9, 35, 0
4, 21965, Note_on_c, 9, 69, 61
4, 21965, Note_on_c, 9, 42, 79
4, 21969, Note_on_c, 9, 51, 36
4, 21979, Note_on_c, 9, 51, 0
4, 21991, Note_on_c, 9, 69, 0
4, 21993, Note_on_c, 9, 42, 0
4, 22024, Note_on_c, 9, 51, 59
4, 22025, Note_on_c, 9, 69, 44
4, 22025, Note_on_c, 9, 35, 42
4, 22040, Note_on_c, 9, 51, 0
4, 22046, Note_on_c, 9, 69, 0
4, 22051, Note_on_c, 9, 35, 0
4, 22078, Note_on_c, 9, 51, 92
4, 22085, Note_on_c, 9, 69, 59
4, 22085, Note_on_c, 9, 37, 74
4, 22085, Note_on_c, 9, 35, 50
4, 22109, Note_on_c, 9, 69, 0
4, 22112, Note_on_c, 9, 35, 0
4, 22113, Note_on_c, 9, 37, 0
4, 22118, Note_on_c, 9, 51, 0
4, 22145, Note_on_c, 9, 69, 35
4, 22147, Note_on_c, 9, 51, 43
4, 22166, Note_on_c, 9, 69, 0
4, 22168, Note_on_c, 9, 51, 0
4, 22196, Note_on_c, 9, 51, 23
4, 22204, Note_on_c, 9, 40, 61
4, 22205, Note_on_c, 9, 69, 42
4, 22205, Note_on_c, 9, 42, 77
4, 22219, Note_on_c, 9, 51, 0
4, 22223, Note_on_c, 9, 69, 0
4, 22230, Note_on_c, 9, 42, 0
4, 22237, Note_on_c, 9, 40, 0
4, 22265, Note_on_c, 9, 37, 72
4, 22265, Note_on_c, 9, 69, 58
4, 22265, Note_on_c, 9, 35, 49
4, 22265, Note_on_c, 9, 51, 86
4, 22288, Note_on_c, 9, 35, 0
4, 22288, Note_on_c, 9, 69, 0
4, 22292, Note_on_c, 9, 37, 0
4, 22296, Note_on_c, 9, 51, 0
4, 22325, Note_on_c, 9, 35, 41
4, 22325, Note_on_c, 9, 69, 44
4, 22325, Note_on_c, 9, 51, 47
4, 22339, Note_on_c, 9, 51, 0
4, 22347, Note_on_c, 9, 69, 0
4, 22355, Note_on_c, 9, 35, 0
4, 22384, Note_on_c, 9, 51, 92
4, 22384, Note_on_c, 9, 40, 51
4, 22385, Note_on_c, 9, 69, 35
4, 22405, Note_on_c, 9, 69, 0
4, 22413, Note_on_c, 9, 51, 0
4, 22416, Note_on_c, 9, 40, 0
4, 22445, Note_on_c, 9, 37, 72
4, 22445, Note_on_c, 9, 42, 79
4, 22445, Note_on_c, 9, 69, 56
4, 22450, Note_on_c, 9, 51, 30
4, 22459, Note_on_c, 9, 51, 0
4, 22469, Note_on_c, 9, 69, 0
4, 22472, Note_on_c, 9, 42, 0
4, 22473, Note_on_c, 9, 37, 0
4, 22503, Note_on_c, 9, 51, 62
4, 22505, Note_on_c, 9, 35, 53
4, 22505, Note_on_c, 9, 69, 36
4, 22519, Note_on_c, 9, 51, 0
4, 22527, Note_on_c, 9, 69, 0
4, 22527, Note_on_c, 9, 35, 0
4, 22563, Note_on_c, 9, 51, 106
4, 22565, Note_on_c, 9, 69, 58
4, 22565, Note_on_c, 9, 35, 40
4, 22588, Note_on_c, 9, 69, 0
4, 22595, Note_on_c, 9, 35, 0
4, 22625, Note_on_c, 9, 69, 36
4, 22644, Note_on_c, 9, 69, 0
4, 22648, Note_on_c, 9, 51, 0
4, 22684, Note_on_c, 9, 51, 106
4, 22684, Note_on_c, 9, 40, 46
4, 22685, Note_on_c, 9, 37, 70
4, 22685, Note_on_c, 9, 42, 74
4, 22685, Note_on_c, 9, 69, 45
4, 22702, Note_on_c, 9, 69, 0
4, 22712, Note_on_c, 9, 37, 0
4, 22715, Note_on_c, 9, 42, 0
4, 22716, Note_on_c, 9, 40, 0
4, 22718, Note_on_c, 9, 51, 0
4, 22745, Note_on_c, 9, 69, 58
4, 22745, Note_on_c, 9, 35, 49
4, 22749, Note_on_c, 9, 51, 59
4, 22765, Note_on_c, 9, 69, 0
4, 22770, Note_on_c, 9, 35, 0
4, 22777, Note_on_c, 9, 51, 0
4, 22805, Note_on_c, 9, 35, 40
4, 22805, Note_on_c, 9, 69, 47
4, 22810, Note_on_c, 9, 51, 41
4, 22824, Note_on_c, 9, 69, 0
4, 22831, Note_on_c, 9, 51, 0
4, 22835, Note_on_c, 9, 35, 0
4, 22864, Note_on_c, 9, 40, 53
4, 22865, Note_on_c, 9, 69, 33
4, 22865, Note_on_c, 9, 37, 68
4, 22871, Note_on_c, 9, 51, 96
4, 22883, Note_on_c, 9, 69, 0
4, 22891, Note_on_c, 9, 37, 0
4, 22895, Note_on_c, 9, 40, 0
4, 22905, Note_on_c, 9, 51, 0
4, 22925, Note_on_c, 9, 69, 62
4, 22925, Note_on_c, 9, 42, 79
4, 22929, Note_on_c, 9, 51, 56
4, 22948, Note_on_c, 9, 69, 0
4, 22952, Note_on_c, 9, 51, 0
4, 22953, Note_on_c, 9, 42, 0
4, 22984, Note_on_c, 9, 51, 65
4, 22984, Note_on_c, 9, 49, 62
4, 22985, Note_on_c, 9, 35, 50
4, 22985, Note_on_c, 9, 69, 45
4, 23003, Note_on_c, 9, 49, 0
4, 23006, Note_on_c, 9, 69, 0
4, 23009, Note_on_c, 9, 51, 0
4, 23010, Note_on_c, 9, 35, 0
4, 23045, Note_on_c, 9, 69, 47
4, 23045, Note_on_c, 9, 37, 70
4, 23045, Note_on_c, 9, 35, 50
4, 23053, Note_on_c, 9, 51, 33
4, 23064, Note_on_c, 9, 51, 0
4, 23070, Note_on_c, 9, 69, 0
4, 23072, Note_on_c, 9, 37, 0
4, 23073, Note_on_c, 9, 35, 0
4, 23104, Note_on_c, 9, 51, 73
4, 23105, Note_on_c, 9, 69, 31
4, 23125, Note_on_c, 9, 69, 0
4, 23129, Note_on_c, 9, 51, 0
4, 23162, Note_on_c, 9, 51, 59
4, 23164, Note_on_c, 9, 40, 61
4, 23165, Note_on_c, 9, 42, 77
4, 23165, Note_on_c, 9, 69, 42
4, 23180, Note_on_c, 9, 51, 0
4, 23185, Note_on_c, 9, 69, 0
4, 23190, Note_on_c, 9, 42, 0
4, 23197, Note_on_c, 9, 40, 0
4, 23213, Note_on_c, 9, 51, 73
4, 23214, Note_on_c, 9, 49, 59
4, 23225, Note_on_c, 9, 35, 50
4, 23225, Note_on_c, 9, 69, 61
4, 23225, Note_on_c, 9, 37, 72
4, 23227, Note_on_c, 9, 49, 0
4, 23236, Note_on_c, 9, 51, 0
4, 23246, Note_on_c, 9, 35, 0
4, 23249, Note_on_c, 9, 69, 0
4, 23251, Note_on_c, 9, 37, 0
4, 23283, Note_on_c, 9, 51, 34
4, 23285, Note_on_c, 9, 69, 35
4, 23285, Note_on_c, 9, 35, 56
4, 23297, Note_on_c, 9, 51, 0
4, 23308, Note_on_c, 9, 69, 0
4, 23315, Note_on_c, 9, 35, 0
4, 23340, Note_on_c, 9, 51, 68
4, 23344, Note_on_c, 9, 40, 51
4, 23345, Note_on_c, 9, 69, 36
4, 23363, Note_on_c, 9, 69, 0
4, 23366, Note_on_c, 9, 51, 0
4, 23376, Note_on_c, 9, 40, 0
4, 23402, Note_on_c, 9, 51, 82
4, 23405, Note_on_c, 9, 69, 58
4, 23405, Note_on_c, 9, 37, 68
4, 23405, Note_on_c, 9, 42, 79
4, 23430, Note_on_c, 9, 69, 0
4, 23432, Note_on_c, 9, 42, 0
4, 23435, Note_on_c, 9, 37, 0
4, 23439, Note_on_c, 9, 51, 0
4, 23465, Note_on_c, 9, 35, 56
4, 23465, Note_on_c, 9, 69, 37
4, 23484, Note_on_c, 9, 69, 0
4, 23492, Note_on_c, 9, 35, 0
4, 23521, Note_on_c, 9, 51, 86
4, 23525, Note_on_c, 9, 69, 56
4, 23548, Note_on_c, 9, 69, 0
4, 23585, Note_on_c, 9, 35, 54
4, 23585, Note_on_c, 9, 69, 40
4, 23602, Note_on_c, 9, 51, 0
4, 23607, Note_on_c, 9, 69, 0
4, 23613, Note_on_c, 9, 35, 0
4, 23644, Note_on_c, 9, 40, 46
4, 23645, Note_on_c, 9, 37, 72
4, 23645, Note_on_c, 9, 69, 44
4, 23645, Note_on_c, 9, 42, 74
4, 23664, Note_on_c, 9, 69, 0
4, 23673, Note_on_c, 9, 37, 0
4, 23675, Note_on_c, 9, 42, 0
4, 23676, Note_on_c, 9, 40, 0
4, 23705, Note_on_c, 9, 69, 59
4, 23705, Note_on_c, 9, 35, 46
4, 23708, Note_on_c, 9, 51, 77
4, 23727, Note_on_c, 9, 51, 0
4, 23728, Note_on_c, 9, 69, 0
4, 23731, Note_on_c, 9, 35, 0
4, 23765, Note_on_c, 9, 69, 33
4, 23767, Note_on_c, 9, 51, 43
4, 23782, Note_on_c, 9, 51, 0
4, 23791, Note_on_c, 9, 69, 0
4, 23824, Note_on_c, 9, 40, 53
4, 23824, Note_on_c, 9, 51, 92
4, 23825, Note_on_c, 9, 69, 32
4, 23825, Note_on_c, 9, 37, 72
4, 23825, Note_on_c, 9, 35, 50
4, 23845, Note_on_c, 9, 69, 0
4, 23851, Note_on_c, 9, 51, 0
4, 23852, Note_on_c, 9, 35, 0
4, 23854, Note_on_c, 9, 37, 0
4, 23855, Note_on_c, 9, 40, 0
4, 23885, Note_on_c, 9, 69, 59
4, 23885, Note_on_c, 9, 42, 79
4, 23889, Note_on_c, 9, 51, 56
4, 23903, Note_on_c, 9, 51, 0
4, 23908, Note_on_c, 9, 69, 0
4, 23913, Note_on_c, 9, 42, 0
4, 23945, Note_on_c, 9, 69, 44
4, 23945, Note_on_c, 9, 35, 54
4, 23949, Note_on_c, 9, 51, 92
4, 23963, Note_on_c, 9, 69, 0
4, 23965, Note_on_c, 9, 51, 0
4, 23969, Note_on_c, 9, 35, 0
4, 24005, Note_on_c, 9, 35, 57
4, 24005, Note_on_c, 9, 69, 61
4, 24005, Note_on_c, 9, 37, 72
4, 24008, Note_on_c, 9, 51, 106
4, 24029, Note_on_c, 9, 69, 0
4, 24032, Note_on_c, 9, 35, 0
4, 24033, Note_on_c, 9, 37, 0
4, 24060, Note_on_c, 9, 51, 0
4, 24065, Note_on_c, 9, 69, 32
4, 24086, Note_on_c, 9, 69, 0
4, 24124, Note_on_c, 9, 40, 61
4, 24125, Note_on_c, 9, 42, 77
4, 24125, Note_on_c, 9, 69, 62
4, 24126, Note_on_c, 9, 51, 68
4, 24146, Note_on_c, 9, 51, 0
4, 24147, Note_on_c, 9, 69, 0
4, 24150, Note_on_c, 9, 42, 0
4, 24157, Note_on_c, 9, 40, 0
4, 24183, Note_on_c, 9, 51, 96
4, 24185, Note_on_c, 9, 37, 72
4, 24185, Note_on_c, 9, 69, 53
4, 24185, Note_on_c, 9, 35, 63
4, 24202, Note_on_c, 9, 69, 0
4, 24209, Note_on_c, 9, 35, 0
4, 24212, Note_on_c, 9, 51, 0
4, 24214, Note_on_c, 9, 37, 0
4, 24245, Note_on_c, 9, 69, 33
4, 24245, Note_on_c, 9, 35, 52
4, 24248, Note_on_c, 9, 51, 92
4, 24268, Note_on_c, 9, 69, 0
4, 24274, Note_on_c, 9, 35, 0
4, 24304, Note_on_c, 9, 40, 51
4, 24305, Note_on_c, 9, 69, 32
4, 24322, Note_on_c, 9, 69, 0
4, 24328, Note_on_c, 9, 51, 0
4, 24336, Note_on_c, 9, 40, 0
4, 24365, Note_on_c, 9, 37, 72
4, 24365, Note_on_c, 9, 42, 79
4, 24365, Note_on_c, 9, 69, 62
4, 24365, Note_on_c, 9, 51, 56
4, 24388, Note_on_c, 9, 51, 0
4, 24389, Note_on_c, 9, 69, 0
4, 24392, Note_on_c, 9, 42, 0
4, 24394, Note_on_c, 9, 37, 0
4, 24424, Note_on_c, 9, 51, 86
4, 24425, Note_on_c, 9, 69, 44
4, 24425, Note_on_c, 9, 35, 61
4, 24443, Note_on_c, 9, 69, 0
4, 24445, Note_on_c, 9, 51, 0
4, 24450, Note_on_c, 9, 35, 0
4, 24485, Note_on_c, 9, 69, 48
4, 24485, Note_on_c, 9, 35, 52
4, 24486, Note_on_c, 9, 51, 106
4, 24503, Note_on_c, 9, 69, 0
4, 24519, Note_on_c, 9, 35, 0
4, 24545, Note_on_c, 9, 69, 44
4, 24560, Note_on_c, 9, 51, 0
4, 24562, Note_on_c, 9, 69, 0
4, 24599, Note_on_c, 9, 51, 50
4, 24604, Note_on_c, 9, 40, 46
4, 24605, Note_on_c, 9, 37, 72
4, 24605, Note_on_c, 9, 69, 61
4, 24605, Note_on_c, 9, 42, 74
4, 24618, Note_on_c, 9, 51, 0
4, 24628, Note_on_c, 9, 69, 0
4, 24634, Note_on_c, 9, 37, 0
4, 24635, Note_on_c, 9, 42, 0
4, 24636, Note_on_c, 9, 40, 0
4, 24660, Note_on_c, 9, 51, 127
4, 24665, Note_on_c, 9, 69, 35
4, 24665, Note_on_c, 9, 35, 58
4, 24685, Note_on_c, 9, 69, 0
4, 24689, Note_on_c, 9, 35, 0
4, 24693, Note_on_c, 9, 51, 0
4, 24724, Note_on_c, 9, 51, 65
4, 24725, Note_on_c, 9, 69, 33
4, 24725, Note_on_c, 9, 35, 52
4, 24748, Note_on_c, 9, 69, 0
4, 24749, Note_on_c, 9, 51, 0
4, 24753, Note_on_c, 9, 35, 0
4, 24784, Note_on_c, 9, 40, 53
4, 24785, Note_on_c, 9, 35, 53
4, 24785, Note_on_c, 9, 69, 33
4, 24785, Note_on_c, 9, 37, 77
4, 24786, Note_on_c, 9, 51, 50
4, 24804, Note_on_c, 9, 51, 0
4, 24804, Note_on_c, 9, 69, 0
4, 24811, Note_on_c, 9, 37, 0
4, 24814, Note_on_c, 9, 35, 0
4, 24815, Note_on_c, 9, 40, 0
4, 24845, Note_on_c, 9, 42, 79
4, 24845, Note_on_c, 9, 69, 62
4, 24848, Note_on_c, 9, 51, 56
4, 24860, Note_on_c, 9, 51, 0
4, 24867, Note_on_c, 9, 69, 0
4, 24873, Note_on_c, 9, 42, 0
4, 24897, Note_on_c, 9, 51, 115
4, 24905, Note_on_c, 9, 35, 58
4, 24905, Note_on_c, 9, 69, 48
4, 24923, Note_on_c, 9, 69, 0
4, 24924, Note_on_c, 9, 51, 0
4, 24932, Note_on_c, 9, 35, 0
4, 24958, Note_on_c, 9, 51, 96
4, 24965, Note_on_c, 9, 69, 42
4, 24965, Note_on_c, 9, 37, 72
4, 24965, Note_on_c, 9, 35, 53
4, 24983, Note_on_c, 9, 69, 0
4, 24993, Note_on_c, 9, 35, 0
4, 24994, Note_on_c, 9, 37, 0
4, 25025, Note_on_c, 9, 69, 40
4, 25030, Note_on_c, 9, 51, 0
4, 25042, Note_on_c, 9, 69, 0
4, 25074, Note_on_c, 9, 51, 50
4, 25084, Note_on_c, 9, 40, 61
4, 25085, Note_on_c, 9, 69, 59
4, 25086, Note_on_c, 9, 42, 77
4, 25092, Note_on_c, 9, 51, 0
4, 25107, Note_on_c, 9, 69, 0
4, 25111, Note_on_c, 9, 42, 0
4, 25117, Note_on_c, 9, 40, 0
4, 25135, Note_on_c, 9, 51, 106
4, 25145, Note_on_c, 9, 69, 47
4, 25145, Note_on_c, 9, 37, 70
4, 25145, Note_on_c, 9, 35, 57
4, 25166, Note_on_c, 9, 69, 0
4, 25167, Note_on_c, 9, 51, 0
4, 25171, Note_on_c, 9, 35, 0
4, 25173, Note_on_c, 9, 37, 0
4, 25203, Note_on_c, 9, 51, 86
4, 25205, Note_on_c, 9, 35, 42
4, 25205, Note_on_c, 9, 69, 42
4, 25228, Note_on_c, 9, 69, 0
4, 25234, Note_on_c, 9, 35, 0
4, 25262, Note_on_c, 9, 51, 0
4, 25264, Note_on_c, 9, 40, 51
4, 25265, Note_on_c, 9, 69, 32
4, 25284, Note_on_c, 9, 69, 0
4, 25296, Note_on_c, 9, 40, 0
4, 25311, Note_on_c, 9, 51, 77
4, 25325, Note_on_c, 9, 69, 59
4, 25325, Note_on_c, 9, 37, 72
4, 25326, Note_on_c, 9, 42, 79
4, 25333, Note_on_c, 9, 51, 0
4, 25349, Note_on_c, 9, 69, 0
4, 25353, Note_on_c, 9, 37, 0
4, 25353, Note_on_c, 9, 42, 0
4, 25372, Note_on_c, 9, 51, 96
4, 25385, Note_on_c, 9, 35, 63
4, 25385, Note_on_c, 9, 69, 45
4, 25399, Note_on_c, 9, 51, 0
4, 25404, Note_on_c, 9, 69, 0
4, 25413, Note_on_c, 9, 35, 0
4, 25432, Note_on_c, 9, 51, 86
4, 25445, Note_on_c, 9, 35, 42
4, 25445, Note_on_c, 9, 69, 48
4, 25465, Note_on_c, 9, 69, 0
4, 25476, Note_on_c, 9, 35, 0
4, 25505, Note_on_c, 9, 51, 0
4, 25505, Note_on_c, 9, 69, 32
4, 25522, Note_on_c, 9, 69, 0
4, 25555, Note_on_c, 9, 51, 43
4, 25564, Note_on_c, 9, 40, 46
4, 25565, Note_on_c, 9, 69, 61
4, 25565, Note_on_c, 9, 37, 72
4, 25566, Note_on_c, 9, 42, 74
4, 25572, Note_on_c, 9, 51, 0
4, 25586, Note_on_c, 9, 69, 0
4, 25591, Note_on_c, 9, 37, 0
4, 25596, Note_on_c, 9, 42, 0
4, 25596, Note_on_c, 9, 40, 0
4, 25619, Note_on_c, 9, 51, 92
4, 25625, Note_on_c, 9, 35, 40
4, 25625, Note_on_c, 9, 69, 44
4, 25646, Note_on_c, 9, 69, 0
4, 25649, Note_on_c, 9, 51, 0
4, 25651, Note_on_c, 9, 35, 0
4, 25685, Note_on_c, 9, 35, 53
4, 25685, Note_on_c, 9, 69, 58
4, 25691, Note_on_c, 9, 51, 20
4, 25700, Note_on_c, 9, 51, 0
4, 25704, Note_on_c, 9, 69, 0
4, 25712, Note_on_c, 9, 35, 0
4, 25738, Note_on_c, 9, 51, 92
4, 25744, Note_on_c, 9, 40, 53
4, 25745, Note_on_c, 9, 69, 41
4, 25745, Note_on_c, 9, 37, 70
4, 25765, Note_on_c, 9, 69, 0
4, 25767, Note_on_c, 9, 51, 0
4, 25773, Note_on_c, 9, 37, 0
4, 25775, Note_on_c, 9, 40, 0
4, 25805, Note_on_c, 9, 69, 59
4, 25805, Note_on_c, 9, 51, 43
4, 25806, Note_on_c, 9, 42, 79
4, 25823, Note_on_c, 9, 51, 0
4, 25828, Note_on_c, 9, 69, 0
4, 25834, Note_on_c, 9, 42, 0
4, 25859, Note_on_c, 9, 51, 96
4, 25865, Note_on_c, 9, 35, 58
4, 25865, Note_on_c, 9, 69, 48
4, 25884, Note_on_c, 9, 69, 0
4, 25886, Note_on_c, 9, 51, 0
4, 25893, Note_on_c, 9, 35, 0
4, 25922, Note_on_c, 9, 51, 92
4, 25925, Note_on_c, 9, 69, 44
4, 25925, Note_on_c, 9, 37, 77
4, 25925, Note_on_c, 9, 35, 52
4, 25942, Note_on_c, 9, 69, 0
4, 25951, Note_on_c, 9, 35, 0
4, 25952, Note_on_c, 9, 37, 0
4, 25985, Note_on_c, 9, 69, 45
4, 26001, Note_on_c, 9, 69, 0
4, 26010, Note_on_c, 9, 51, 0
4, 26042, Note_on_c, 9, 51, 68
4, 26044, Note_on_c, 9, 40, 61
4, 26045, Note_on_c, 9, 69, 62
4, 26046, Note_on_c, 9, 42, 77
4, 26065, Note_on_c, 9, 69, 0
4, 26065, Note_on_c, 9, 51, 0
4, 26071, Note_on_c, 9, 42, 0
4, 26077, Note_on_c, 9, 40, 0
4, 26103, Note_on_c, 9, 51, 115
4, 26105, Note_on_c, 9, 69, 53
4, 26105, Note_on_c, 9, 35, 53
4, 26105, Note_on_c, 9, 37, 74
4, 26122, Note_on_c, 9, 69, 0
4, 26130, Note_on_c, 9, 35, 0
4, 26136, Note_on_c, 9, 37, 0
4, 26141, Note_on_c, 9, 51, 0
4, 26165, Note_on_c, 9, 35, 50
4, 26165, Note_on_c, 9, 69, 44
4, 26168, Note_on_c, 9, 51, 50
4, 26186, Note_on_c, 9, 69, 0
4, 26190, Note_on_c, 9, 51, 0
4, 26193, Note_on_c, 9, 35, 0
4, 26224, Note_on_c, 9, 40, 51
4, 26225, Note_on_c, 9, 51, 96
4, 26225, Note_on_c, 9, 69, 33
4, 26246, Note_on_c, 9, 69, 0
4, 26256, Note_on_c, 9, 40, 0
4, 26260, Note_on_c, 9, 51, 0
4, 26285, Note_on_c, 9, 69, 71
4, 26285, Note_on_c, 9, 37, 72
4, 26286, Note_on_c, 9, 42, 79
4, 26292, Note_on_c, 9, 51, 44
4, 26306, Note_on_c, 9, 51, 0
4, 26308, Note_on_c, 9, 69, 0
4, 26313, Note_on_c, 9, 42, 0
4, 26315, Note_on_c, 9, 37, 0
4, 26345, Note_on_c, 9, 35, 54
4, 26345, Note_on_c, 9, 69, 50
4, 26349, Note_on_c, 9, 51, 86
4, 26362, Note_on_c, 9, 69, 0
4, 26367, Note_on_c, 9, 51, 0
4, 26372, Note_on_c, 9, 35, 0
4, 26405, Note_on_c, 9, 69, 42
4, 26405, Note_on_c, 9, 51, 115
4, 26405, Note_on_c, 9, 35, 40
4, 26425, Note_on_c, 9, 69, 0
4, 26437, Note_on_c, 9, 35, 0
4, 26465, Note_on_c, 9, 69, 48
4, 26482, Note_on_c, 9, 69, 0
4, 26496, Note_on_c, 9, 51, 0
4, 26518, Note_on_c, 9, 51, 59
4, 26524, Note_on_c, 9, 40, 46
4, 26525, Note_on_c, 9, 69, 62
4, 26525, Note_on_c, 9, 37, 72
4, 26526, Note_on_c, 9, 42, 74
4, 26543, Note_on_c, 9, 51, 0
4, 26546, Note_on_c, 9, 69, 0
4, 26556, Note_on_c, 9, 40, 0
4, 26556, Note_on_c, 9, 37, 0
4, 26556, Note_on_c, 9, 42, 0
4, 26583, Note_on_c, 9, 51, 115
4, 26585, Note_on_c, 9, 35, 60
4, 26585, Note_on_c, 9, 69, 48
4, 26602, Note_on_c, 9, 69, 0
4, 26608, Note_on_c, 9, 35, 0
4, 26616, Note_on_c, 9, 51, 0
4, 26645, Note_on_c, 9, 69, 42
4, 26645, Note_on_c, 9, 35, 49
4, 26650, Note_on_c, 9, 51, 73
4, 26667, Note_on_c, 9, 69, 0
4, 26669, Note_on_c, 9, 35, 0
4, 26686, Note_on_c, 9, 51, 0
4, 26704, Note_on_c, 9, 40, 53
4, 26705, Note_on_c, 9, 69, 45
4, 26705, Note_on_c, 9, 37, 72
4, 26705, Note_on_c, 9, 35, 60
4, 26708, Note_on_c, 9, 51, 82
4, 26723, Note_on_c, 9, 69, 0
4, 26732, Note_on_c, 9, 37, 0
4, 26733, Note_on_c, 9, 35, 0
4, 26735, Note_on_c, 9, 40, 0
4, 26765, Note_on_c, 9, 69, 62
4, 26766, Note_on_c, 9, 42, 79
4, 26781, Note_on_c, 9, 51, 0
4, 26788, Note_on_c, 9, 69, 0
4, 26794, Note_on_c, 9, 42, 0
4, 26820, Note_on_c, 9, 51, 82
4, 26825, Note_on_c, 9, 35, 50
4, 26825, Note_on_c, 9, 69, 47
4, 26843, Note_on_c, 9, 69, 0
4, 26850, Note_on_c, 9, 35, 0
4, 26861, Note_on_c, 9, 51, 0
4, 26885, Note_on_c, 9, 35, 50
4, 26885, Note_on_c, 9, 69, 47
4, 26885, Note_on_c, 9, 37, 72
4, 26890, Note_on_c, 9, 51, 41
4, 26906, Note_on_c, 9, 69, 0
4, 26910, Note_on_c, 9, 51, 0
4, 26914, Note_on_c, 9, 37, 0
4, 26914, Note_on_c, 9, 35, 0
4, 26945, Note_on_c, 9, 69, 42
4, 26948, Note_on_c, 9, 51, 115
4, 26961, Note_on_c, 9, 69, 0
4, 26991, Note_on_c, 9, 51, 0
4, 27004, Note_on_c, 9, 40, 61
4, 27005, Note_on_c, 9, 69, 62
4, 27006, Note_on_c, 9, 42, 77
4, 27010, Note_on_c, 9, 51, 82
4, 27027, Note_on_c, 9, 69, 0
4, 27031, Note_on_c, 9, 42, 0
4, 27037, Note_on_c, 9, 40, 0
4, 27046, Note_on_c, 9, 51, 0
4, 27063, Note_on_c, 9, 51, 92
4, 27065, Note_on_c, 9, 69, 50
4, 27065, Note_on_c, 9, 37, 72
4, 27065, Note_on_c, 9, 35, 49
4, 27081, Note_on_c, 9, 69, 0
4, 27092, Note_on_c, 9, 35, 0
4, 27094, Note_on_c, 9, 37, 0
4, 27103, Note_on_c, 9, 51, 0
4, 27125, Note_on_c, 9, 69, 41
4, 27125, Note_on_c, 9, 35, 53
4, 27140, Note_on_c, 9, 51, 34
4, 27146, Note_on_c, 9, 69, 0
4, 27156, Note_on_c, 9, 35, 0
4, 27158, Note_on_c, 9, 51, 0
4, 27184, Note_on_c, 9, 40, 51
4, 27185, Note_on_c, 9, 69, 47
4, 27194, Note_on_c, 9, 51, 127
4, 27204, Note_on_c, 9, 69, 0
4, 27216, Note_on_c, 9, 40, 0
4, 27225, Note_on_c, 9, 51, 0
4, 27245, Note_on_c, 9, 37, 70
4, 27245, Note_on_c, 9, 69, 62
4, 27246, Note_on_c, 9, 42, 79
4, 27258, Note_on_c, 9, 51, 62
4, 27268, Note_on_c, 9, 69, 0
4, 27273, Note_on_c, 9, 37, 0
4, 27273, Note_on_c, 9, 42, 0
4, 27281, Note_on_c, 9, 51, 0
4, 27305, Note_on_c, 9, 35, 57
4, 27305, Note_on_c, 9, 69, 48
4, 27317, Note_on_c, 9, 51, 62
4, 27323, Note_on_c, 9, 69, 0
4, 27330, Note_on_c, 9, 35, 0
4, 27336, Note_on_c, 9, 51, 0
4, 27365, Note_on_c, 9, 69, 58
4, 27365, Note_on_c, 9, 35, 50
4, 27369, Note_on_c, 9, 51, 127
4, 27386, Note_on_c, 9, 69, 0
4, 27396, Note_on_c, 9, 35, 0
4, 27425, Note_on_c, 9, 69, 47
4, 27443, Note_on_c, 9, 69, 0
4, 27453, Note_on_c, 9, 51, 0
4, 27484, Note_on_c, 9, 40, 46
4, 27485, Note_on_c, 9, 69, 59
4, 27485, Note_on_c, 9, 37, 68
4, 27486, Note_on_c, 9, 42, 74
4, 27496, Note_on_c, 9, 51, 39
4, 27507, Note_on_c, 9, 69, 0
4, 27511, Note_on_c, 9, 51, 0
4, 27516, Note_on_c, 9, 40, 0
4, 27516, Note_on_c, 9, 42, 0
4, 27517, Note_on_c, 9, 37, 0
4, 27545, Note_on_c, 9, 69, 52
4, 27545, Note_on_c, 9, 35, 57
4, 27557, Note_on_c, 9, 51, 92
4, 27564, Note_on_c, 9, 69, 0
4, 27570, Note_on_c, 9, 35, 0
4, 27593, Note_on_c, 9, 51, 0
4, 27605, Note_on_c, 9, 35, 58
4, 27605, Note_on_c, 9, 69, 44
4, 27629, Note_on_c, 9, 69, 0
4, 27630, Note_on_c, 9, 35, 0
4, 27664, Note_on_c, 9, 40, 53
4, 27665, Note_on_c, 9, 35, 46
4, 27665, Note_on_c, 9, 69, 41
4, 27665, Note_on_c, 9, 37, 68
4, 27675, Note_on_c, 9, 51, 92
4, 27686, Note_on_c, 9, 69, 0
4, 27693, Note_on_c, 9, 37, 0
4, 27693, Note_on_c, 9, 35, 0
4, 27695, Note_on_c, 9, 40, 0
4, 27708, Note_on_c, 9, 51, 0
4, 27725, Note_on_c, 9, 69, 61
4, 27726, Note_on_c, 9, 42, 79
4, 27748, Note_on_c, 9, 69, 0
4, 27754, Note_on_c, 9, 42, 0
4, 27782, Note_on_c, 9, 51, 96
4, 27785, Note_on_c, 9, 69, 59
4, 27785, Note_on_c, 9, 35, 60
4, 27805, Note_on_c, 9, 69, 0
4, 27809, Note_on_c, 9, 35, 0
4, 27823, Note_on_c, 9, 51, 0
4, 27845, Note_on_c, 9, 35, 79
4, 27845, Note_on_c, 9, 37, 57
4, 27845, Note_on_c, 9, 69, 75
4, 27863, Note_on_c, 9, 69, 0
4, 27869, Note_on_c, 9, 35, 0
4, 27872, Note_on_c, 9, 37, 0
4, 27903, Note_on_c, 9, 51, 96
4, 27905, Note_on_c, 9, 69, 31
4, 27923, Note_on_c, 9, 69, 0
4, 27932, Note_on_c, 9, 51, 0
4, 27964, Note_on_c, 9, 40, 61
4, 27965, Note_on_c, 9, 69, 28
4, 27966, Note_on_c, 9, 51, 56
4, 27966, Note_on_c, 9, 42, 77
4, 27983, Note_on_c, 9, 69, 0
4, 27985, Note_on_c, 9, 51, 0
4, 27991, Note_on_c, 9, 42, 0
4, 27997, Note_on_c, 9, 40, 0
4, 28024, Note_on_c, 9, 51, 106
4, 28025, Note_on_c, 9, 69, 59
4, 28025, Note_on_c, 9, 35, 52
4, 28025, Note_on_c, 9, 37, 62
4, 28047, Note_on_c, 9, 69, 0
4, 28050, Note_on_c, 9, 37, 0
4, 28051, Note_on_c, 9, 35, 0
4, 28064, Note_on_c, 9, 51, 0
4, 28085, Note_on_c, 9, 35, 52
4, 28085, Note_on_c, 9, 69, 32
4, 28089, Note_on_c, 9, 51, 19
4, 28104, Note_on_c, 9, 51, 0
4, 28110, Note_on_c, 9, 69, 0
4, 28144, Note_on_c, 9, 40, 51
4, 28144, Note_on_c, 9, 51, 96
4, 28145, Note_on_c, 9, 69, 33
4, 28161, Note_on_c, 9, 69, 0
4, 28175, Note_on_c, 9, 51, 0
4, 28176, Note_on_c, 9, 40, 0
4, 28184, Note_on_c, 9, 35, 0
4, 28205, Note_on_c, 9, 37, 72
4, 28205, Note_on_c, 9, 69, 61
4, 28206, Note_on_c, 9, 42, 79
4, 28212, Note_on_c, 9, 51, 50
4, 28227, Note_on_c, 9, 37, 0
4, 28230, Note_on_c, 9, 69, 0
4, 28232, Note_on_c, 9, 51, 0
4, 28233, Note_on_c, 9, 42, 0
4, 28265, Note_on_c, 9, 69, 37
4, 28265, Note_on_c, 9, 35, 45
4, 28273, Note_on_c, 9, 51, 68
4, 28285, Note_on_c, 9, 69, 0
4, 28287, Note_on_c, 9, 51, 0
4, 28288, Note_on_c, 9, 35, 0
4, 28325, Note_on_c, 9, 35, 49
4, 28325, Note_on_c, 9, 69, 59
4, 28331, Note_on_c, 9, 51, 86
4, 28350, Note_on_c, 9, 69, 0
4, 28367, Note_on_c, 9, 35, 0
4, 28385, Note_on_c, 9, 69, 31
4, 28401, Note_on_c, 9, 51, 0
4, 28405, Note_on_c, 9, 69, 0
4, 28444, Note_on_c, 9, 40, 46
4, 28445, Note_on_c, 9, 69, 51
4, 28445, Note_on_c, 9, 37, 70
4, 28446, Note_on_c, 9, 42, 74
4, 28449, Note_on_c, 9, 51, 62
4, 28464, Note_on_c, 9, 69, 0
4, 28470, Note_on_c, 9, 51, 0
4, 28470, Note_on_c, 9, 37, 0
4, 28476, Note_on_c, 9, 40, 0
4, 28476, Note_on_c, 9, 42, 0
4, 28505, Note_on_c, 9, 35, 44
4, 28505, Note_on_c, 9, 69, 59
4, 28512, Note_on_c, 9, 51, 106
4, 28526, Note_on_c, 9, 69, 0
4, 28532, Note_on_c, 9, 35, 0
4, 28538, Note_on_c, 9, 51, 0
4, 28565, Note_on_c, 9, 35, 47
4, 28565, Note_on_c, 9, 69, 42
4, 28578, Note_on_c, 9, 51, 68
4, 28586, Note_on_c, 9, 69, 0
4, 28598, Note_on_c, 9, 35, 0
4, 28624, Note_on_c, 9, 40, 53
4, 28625, Note_on_c, 9, 37, 70
4, 28625, Note_on_c, 9, 35, 47
4, 28625, Note_on_c, 9, 69, 42
4, 28641, Note_on_c, 9, 69, 0
4, 28650, Note_on_c, 9, 37, 0
4, 28652, Note_on_c, 9, 51, 0
4, 28655, Note_on_c, 9, 40, 0
4, 28655, Note_on_c, 9, 35, 0
4, 28685, Note_on_c, 9, 69, 61
4, 28686, Note_on_c, 9, 42, 79
4, 28688, Note_on_c, 9, 51, 96
4, 28708, Note_on_c, 9, 69, 0
4, 28712, Note_on_c, 9, 51, 0
4, 28714, Note_on_c, 9, 42, 0
4, 28745, Note_on_c, 9, 35, 40
4, 28745, Note_on_c, 9, 69, 41
4, 28747, Note_on_c, 9, 51, 106
4, 28761, Note_on_c, 9, 69, 0
4, 28771, Note_on_c, 9, 35, 0
4, 28805, Note_on_c, 9, 37, 72
4, 28805, Note_on_c, 9, 35, 41
4, 28805, Note_on_c, 9, 69, 58
4, 28827, Note_on_c, 9, 69, 0
4, 28827, Note_on_c, 9, 51, 0
4, 28829, Note_on_c, 9, 37, 0
4, 28833, Note_on_c, 9, 35, 0
4, 28865, Note_on_c, 9, 69, 30
4, 28867, Note_on_c, 9, 51, 96
4, 28884, Note_on_c, 9, 69, 0
4, 28924, Note_on_c, 9, 40, 61
4, 28925, Note_on_c, 9, 69, 42
4, 28927, Note_on_c, 9, 42, 77
4, 28942, Note_on_c, 9, 51, 0
4, 28943, Note_on_c, 9, 69, 0
4, 28952, Note_on_c, 9, 42, 0
4, 28957, Note_on_c, 9, 40, 0
4, 28985, Note_on_c, 9, 37, 64
4, 28985, Note_on_c, 9, 35, 54
4, 28985, Note_on_c, 9, 69, 59
4, 28994, Note_on_c, 9, 51, 106
4, 29007, Note_on_c, 9, 69, 0
4, 29008, Note_on_c, 9, 35, 0
4, 29011, Note_on_c, 9, 37, 0
4, 29021, Note_on_c, 9, 51, 0
4, 29045, Note_on_c, 9, 35, 44
4, 29045, Note_on_c, 9, 69, 32
4, 29068, Note_on_c, 9, 69, 0
4, 29079, Note_on_c, 9, 35, 0
4, 29104, Note_on_c, 9, 40, 51
4, 29105, Note_on_c, 9, 69, 33
4, 29115, Note_on_c, 9, 51, 77
4, 29125, Note_on_c, 9, 69, 0
4, 29136, Note_on_c, 9, 40, 0
4, 29139, Note_on_c, 9, 51, 0
4, 29164, Note_on_c, 9, 51, 47
4, 29165, Note_on_c, 9, 69, 53
4, 29165, Note_on_c, 9, 37, 68
4, 29167, Note_on_c, 9, 42, 79
4, 29188, Note_on_c, 9, 69, 0
4, 29191, Note_on_c, 9, 37, 0
4, 29193, Note_on_c, 9, 51, 0
4, 29194, Note_on_c, 9, 42, 0
4, 29225, Note_on_c, 9, 69, 42
4, 29225, Note_on_c, 9, 35, 45
4, 29229, Note_on_c, 9, 51, 62
4, 29245, Note_on_c, 9, 51, 0
4, 29245, Note_on_c, 9, 69, 0
4, 29251, Note_on_c, 9, 35, 0
4, 29285, Note_on_c, 9, 35, 52
4, 29285, Note_on_c, 9, 69, 59
4, 29296, Note_on_c, 9, 51, 96
4, 29310, Note_on_c, 9, 69, 0
4, 29315, Note_on_c, 9, 35, 0
4, 29336, Note_on_c, 9, 51, 0
4, 29345, Note_on_c, 9, 69, 32
4, 29364, Note_on_c, 9, 69, 0
4, 29404, Note_on_c, 9, 40, 46
4, 29405, Note_on_c, 9, 69, 32
4, 29405, Note_on_c, 9, 37, 70
4, 29407, Note_on_c, 9, 42, 74
4, 29408, Note_on_c, 9, 51, 96
4, 29424, Note_on_c, 9, 69, 0
4, 29432, Note_on_c, 9, 51, 0
4, 29433, Note_on_c, 9, 37, 0
4, 29436, Note_on_c, 9, 40, 0
4, 29437, Note_on_c, 9, 42, 0
4, 29465, Note_on_c, 9, 69, 58
4, 29465, Note_on_c, 9, 35, 50
4, 29472, Note_on_c, 9, 51, 68
4, 29489, Note_on_c, 9, 35, 0
4, 29489, Note_on_c, 9, 69, 0
4, 29525, Note_on_c, 9, 35, 47
4, 29525, Note_on_c, 9, 69, 44
4, 29550, Note_on_c, 9, 69, 0
4, 29554, Note_on_c, 9, 35, 0
4, 29560, Note_on_c, 9, 51, 0
4, 29584, Note_on_c, 9, 40, 53
4, 29585, Note_on_c, 9, 37, 68
4, 29585, Note_on_c, 9, 35, 46
4, 29585, Note_on_c, 9, 69, 41
4, 29589, Note_on_c, 9, 51, 96
4, 29605, Note_on_c, 9, 69, 0
4, 29611, Note_on_c, 9, 37, 0
4, 29614, Note_on_c, 9, 51, 0
4, 29615, Note_on_c, 9, 40, 0
4, 29616, Note_on_c, 9, 35, 0
4, 29645, Note_on_c, 9, 69, 61
4, 29645, Note_on_c, 9, 51, 77
4, 29647, Note_on_c, 9, 42, 79
4, 29664, Note_on_c, 9, 51, 0
4, 29671, Note_on_c, 9, 69, 0
4, 29675, Note_on_c, 9, 42, 0
4, 29705, Note_on_c, 9, 35, 42
4, 29705, Note_on_c, 9, 69, 44
4, 29707, Note_on_c, 9, 51, 115
4, 29726, Note_on_c, 9, 69, 0
4, 29731, Note_on_c, 9, 35, 0
4, 29765, Note_on_c, 9, 69, 59
4, 29765, Note_on_c, 9, 37, 74
4, 29765, Note_on_c, 9, 35, 50
4, 29789, Note_on_c, 9, 69, 0
4, 29792, Note_on_c, 9, 35, 0
4, 29793, Note_on_c, 9, 37, 0
4, 29795, Note_on_c, 9, 51, 0
4, 29825, Note_on_c, 9, 69, 35
4, 29830, Note_on_c, 9, 51, 65
4, 29846, Note_on_c, 9, 69, 0
4, 29851, Note_on_c, 9, 51, 0
4, 29884, Note_on_c, 9, 40, 61
4, 29885, Note_on_c, 9, 69, 42
4, 29887, Note_on_c, 9, 42, 77
4, 29887, Note_on_c, 9, 51, 39
4, 29903, Note_on_c, 9, 69, 0
4, 29905, Note_on_c, 9, 51, 0
4, 29912, Note_on_c, 9, 42, 0
4, 29917, Note_on_c, 9, 40, 0
4, 29945, Note_on_c, 9, 69, 58
4, 29945, Note_on_c, 9, 51, 92
4, 29945, Note_on_c, 9, 37, 72
4, 29945, Note_on_c, 9, 35, 49
4, 29968, Note_on_c, 9, 35, 0
4, 29968, Note_on_c, 9, 69, 0
4, 29972, Note_on_c, 9, 37, 0
4, 29976, Note_on_c, 9, 51, 0
4, 30005, Note_on_c, 9, 69, 44
4, 30005, Note_on_c, 9, 35, 41
4, 30017, Note_on_c, 9, 51, 19
4, 30027, Note_on_c, 9, 69, 0
4, 30029, Note_on_c, 9, 51, 0
4, 30035, Note_on_c, 9, 35, 0
4, 30064, Note_on_c, 9, 40, 51
4, 30065, Note_on_c, 9, 69, 35
4, 30070, Note_on_c, 9, 51, 50
4, 30083, Note_on_c, 9, 51, 0
4, 30085, Note_on_c, 9, 69, 0
4, 30096, Note_on_c, 9, 40, 0
4, 30125, Note_on_c, 9, 37, 72
4, 30125, Note_on_c, 9, 69, 56
4, 30127, Note_on_c, 9, 42, 79
4, 30129, Note_on_c, 9, 51, 73
4, 30149, Note_on_c, 9, 69, 0
4, 30153, Note_on_c, 9, 37, 0
4, 30153, Note_on_c, 9, 51, 0
4, 30154, Note_on_c, 9, 42, 0
4, 30185, Note_on_c, 9, 69, 36
4, 30185, Note_on_c, 9, 35, 53
4, 30207, Note_on_c, 9, 35, 0
4, 30207, Note_on_c, 9, 69, 0
4, 30245, Note_on_c, 9, 35, 40
4, 30245, Note_on_c, 9, 69, 58
4, 30250, Note_on_c, 9, 51, 106
4, 30268, Note_on_c, 9, 69, 0
4, 30275, Note_on_c, 9, 35, 0
4, 30305, Note_on_c, 9, 69, 36
4, 30317, Note_on_c, 9, 51, 0
4, 30324, Note_on_c, 9, 69, 0
4, 30364, Note_on_c, 9, 40, 46
4, 30365, Note_on_c, 9, 69, 45
4, 30365, Note_on_c, 9, 37, 70
4, 30367, Note_on_c, 9, 42, 74
4, 30367, Note_on_c, 9, 51, 53
4, 30378, Note_on_c, 9, 51, 0
4, 30382, Note_on_c, 9, 69, 0
4, 30392, Note_on_c, 9, 37, 0
4, 30396, Note_on_c, 9, 40, 0
4, 30397, Note_on_c, 9, 42, 0
4, 30419, Note_on_c, 9, 51, 106
4, 30425, Note_on_c, 9, 35, 49
4, 30425, Note_on_c, 9, 69, 58
4, 30445, Note_on_c, 9, 69, 0
4, 30450, Note_on_c, 9, 35, 0
4, 30450, Note_on_c, 9, 51, 0
4, 30485, Note_on_c, 9, 69, 47
4, 30485, Note_on_c, 9, 35, 40
4, 30504, Note_on_c, 9, 69, 0
4, 30515, Note_on_c, 9, 35, 0
4, 30542, Note_on_c, 9, 51, 96
4, 30544, Note_on_c, 9, 40, 53
4, 30545, Note_on_c, 9, 69, 33
4, 30545, Note_on_c, 9, 37, 68
4, 30563, Note_on_c, 9, 69, 0
4, 30571, Note_on_c, 9, 37, 0
4, 30575, Note_on_c, 9, 40, 0
4, 30577, Note_on_c, 9, 51, 0
4, 30605, Note_on_c, 9, 69, 62
4, 30607, Note_on_c, 9, 42, 79
4, 30628, Note_on_c, 9, 69, 0
4, 30635, Note_on_c, 9, 42, 0
4, 30663, Note_on_c, 9, 51, 106
4, 30665, Note_on_c, 9, 69, 45
4, 30665, Note_on_c, 9, 35, 50
4, 30685, Note_on_c, 9, 51, 0
4, 30686, Note_on_c, 9, 69, 0
4, 30690, Note_on_c, 9, 35, 0
4, 30725, Note_on_c, 9, 69, 47
4, 30725, Note_on_c, 9, 37, 70
4, 30725, Note_on_c, 9, 35, 50
4, 30730, Note_on_c, 9, 51, 68
4, 30745, Note_on_c, 9, 51, 0
4, 30750, Note_on_c, 9, 69, 0
4, 30752, Note_on_c, 9, 37, 0
4, 30753, Note_on_c, 9, 35, 0
4, 30785, Note_on_c, 9, 69, 31
4, 30788, Note_on_c, 9, 51, 115
4, 30805, Note_on_c, 9, 69, 0
4, 30827, Note_on_c, 9, 51, 0
4, 30844, Note_on_c, 9, 40, 61
4, 30845, Note_on_c, 9, 69, 42
4, 30847, Note_on_c, 9, 42, 77
4, 30865, Note_on_c, 9, 69, 0
4, 30872, Note_on_c, 9, 42, 0
4, 30877, Note_on_c, 9, 40, 0
4, 30905, Note_on_c, 9, 37, 72
4, 30905, Note_on_c, 9, 69, 61
4, 30905, Note_on_c, 9, 35, 50
4, 30911, Note_on_c, 9, 51, 68
4, 30926, Note_on_c, 9, 35, 0
4, 30929, Note_on_c, 9, 69, 0
4, 30931, Note_on_c, 9, 37, 0
4, 30933, Note_on_c, 9, 51, 0
4, 30965, Note_on_c, 9, 69, 35
4, 30965, Note_on_c, 9, 35, 56
4, 30969, Note_on_c, 9, 51, 96
4, 30988, Note_on_c, 9, 69, 0
4, 30995, Note_on_c, 9, 35, 0
4, 30996, Note_on_c, 9, 51, 0
4, 31024, Note_on_c, 9, 40, 51
4, 31025, Note_on_c, 9, 69, 36
4, 31034, Note_on_c, 9, 51, 50
4, 31043, Note_on_c, 9, 69, 0
4, 31045, Note_on_c, 9, 51, 0
4, 31056, Note_on_c, 9, 40, 0
4, 31085, Note_on_c, 9, 69, 58
4, 31085, Note_on_c, 9, 37, 68
4, 31086, Note_on_c, 9, 51, 127
4, 31087, Note_on_c, 9, 42, 79
4, 31110, Note_on_c, 9, 69, 0
4, 31114, Note_on_c, 9, 42, 0
4, 31115, Note_on_c, 9, 37, 0
4, 31119, Note_on_c, 9, 51, 0
4, 31145, Note_on_c, 9, 35, 56
4, 31145, Note_on_c, 9, 69, 37
4, 31155, Note_on_c, 9, 51, 34
4, 31164, Note_on_c, 9, 69, 0
4, 31169, Note_on_c, 9, 51, 0
4, 31172, Note_on_c, 9, 35, 0
4, 31205, Note_on_c, 9, 69, 56
4, 31212, Note_on_c, 9, 51, 106
4, 31228, Note_on_c, 9, 69, 0
4, 31265, Note_on_c, 9, 35, 54
4, 31265, Note_on_c, 9, 69, 40
4, 31270, Note_on_c, 9, 51, 0
4, 31287, Note_on_c, 9, 69, 0
4, 31293, Note_on_c, 9, 35, 0
4, 31324, Note_on_c, 9, 40, 46
4, 31325, Note_on_c, 9, 69, 44
4, 31325, Note_on_c, 9, 37, 72
4, 31327, Note_on_c, 9, 42, 74
4, 31344, Note_on_c, 9, 69, 0
4, 31353, Note_on_c, 9, 37, 0
4, 31356, Note_on_c, 9, 40, 0
4, 31357, Note_on_c, 9, 42, 0
4, 31385, Note_on_c, 9, 35, 46
4, 31385, Note_on_c, 9, 69, 59
4, 31390, Note_on_c, 9, 51, 92
4, 31408, Note_on_c, 9, 69, 0
4, 31411, Note_on_c, 9, 35, 0
4, 31412, Note_on_c, 9, 51, 0
4, 31445, Note_on_c, 9, 69, 33
4, 31452, Note_on_c, 9, 51, 68
4, 31471, Note_on_c, 9, 69, 0
4, 31479, Note_on_c, 9, 51, 0
4, 31504, Note_on_c, 9, 40, 53
4, 31505, Note_on_c, 9, 37, 72
4, 31505, Note_on_c, 9, 69, 32
4, 31505, Note_on_c, 9, 35, 50
4, 31518, Note_on_c, 9, 51, 56
4, 31525, Note_on_c, 9, 69, 0
4, 31532, Note_on_c, 9, 35, 0
4, 31534, Note_on_c, 9, 37, 0
4, 31535, Note_on_c, 9, 40, 0
4, 31558, Note_on_c, 9, 51, 0
4, 31565, Note_on_c, 9, 69, 59
4, 31567, Note_on_c, 9, 42, 79
4, 31588, Note_on_c, 9, 69, 0
4, 31595, Note_on_c, 9, 42, 0
4, 31625, Note_on_c, 9, 69, 44
4, 31625, Note_on_c, 9, 35, 54
4, 31632, Note_on_c, 9, 51, 106
4, 31643, Note_on_c, 9, 69, 0
4, 31649, Note_on_c, 9, 35, 0
4, 31662, Note_on_c, 9, 51, 0
4, 31685, Note_on_c, 9, 37, 72
4, 31685, Note_on_c, 9, 69, 61
4, 31685, Note_on_c, 9, 35, 57
4, 31709, Note_on_c, 9, 69, 0
4, 31712, Note_on_c, 9, 35, 0
4, 31713, Note_on_c, 9, 37, 0
4, 31745, Note_on_c, 9, 69, 32
4, 31752, Note_on_c, 9, 51, 86
4, 31766, Note_on_c, 9, 69, 0
4, 31783, Note_on_c, 9, 51, 0
4, 31804, Note_on_c, 9, 40, 61
4, 31805, Note_on_c, 9, 69, 62
4, 31807, Note_on_c, 9, 42, 77
4, 31819, Note_on_c, 9, 51, 36
4, 31827, Note_on_c, 9, 69, 0
4, 31831, Note_on_c, 9, 51, 0
4, 31832, Note_on_c, 9, 42, 0
4, 31837, Note_on_c, 9, 40, 0
4, 31865, Note_on_c, 9, 37, 72
4, 31865, Note_on_c, 9, 35, 63
4, 31865, Note_on_c, 9, 69, 53
4, 31870, Note_on_c, 9, 51, 86
4, 31882, Note_on_c, 9, 69, 0
4, 31889, Note_on_c, 9, 35, 0
4, 31894, Note_on_c, 9, 37, 0
4, 31904, Note_on_c, 9, 51, 0
4, 31925, Note_on_c, 9, 69, 33
4, 31925, Note_on_c, 9, 35, 52
4, 31931, Note_on_c, 9, 51, 50
4, 31948, Note_on_c, 9, 69, 0
4, 31954, Note_on_c, 9, 35, 0
4, 31956, Note_on_c, 9, 51, 0
4, 31984, Note_on_c, 9, 40, 51
4, 31985, Note_on_c, 9, 69, 32
4, 31991, Note_on_c, 9, 51, 106
4, 32002, Note_on_c, 9, 69, 0
4, 32016, Note_on_c, 9, 40, 0
4, 32026, Note_on_c, 9, 51, 0
4, 32045, Note_on_c, 9, 69, 62
4, 32045, Note_on_c, 9, 37, 72
4, 32047, Note_on_c, 9, 42, 79
4, 32052, Note_on_c, 9, 51, 59
4, 32069, Note_on_c, 9, 69, 0
4, 32074, Note_on_c, 9, 37, 0
4, 32074, Note_on_c, 9, 42, 0
4, 32078, Note_on_c, 9, 51, 0
4, 32105, Note_on_c, 9, 35, 61
4, 32105, Note_on_c, 9, 69, 44
4, 32115, Note_on_c, 9, 51, 59
4, 32123, Note_on_c, 9, 69, 0
4, 32130, Note_on_c, 9, 35, 0
4, 32134, Note_on_c, 9, 51, 0
4, 32161, Note_on_c, 9, 51, 127
4, 32165, Note_on_c, 9, 35, 52
4, 32165, Note_on_c, 9, 69, 48
4, 32183, Note_on_c, 9, 69, 0
4, 32199, Note_on_c, 9, 35, 0
4, 32225, Note_on_c, 9, 69, 44
4, 32242, Note_on_c, 9, 69, 0
4, 32252, Note_on_c, 9, 51, 0
4, 32284, Note_on_c, 9, 40, 46
4, 32285, Note_on_c, 9, 69, 61
4, 32285, Note_on_c, 9, 37, 72
4, 32287, Note_on_c, 9, 42, 74
4, 32290, Note_on_c, 9, 51, 36
4, 32304, Note_on_c, 9, 51, 0
4, 32308, Note_on_c, 9, 69, 0
4, 32314, Note_on_c, 9, 37, 0
4, 32316, Note_on_c, 9, 40, 0
4, 32317, Note_on_c, 9, 42, 0
4, 32343, Note_on_c, 9, 51, 115
4, 32345, Note_on_c, 9, 35, 58
4, 32345, Note_on_c, 9, 69, 35
4, 32365, Note_on_c, 9, 69, 0
4, 32369, Note_on_c, 9, 35, 0
4, 32373, Note_on_c, 9, 51, 0
4, 32405, Note_on_c, 9, 35, 52
4, 32405, Note_on_c, 9, 69, 33
4, 32428, Note_on_c, 9, 69, 0
4, 32433, Note_on_c, 9, 35, 0
4, 32464, Note_on_c, 9, 40, 53
4, 32465, Note_on_c, 9, 35, 53
4, 32465, Note_on_c, 9, 69, 33
4, 32465, Note_on_c, 9, 37, 77
4, 32473, Note_on_c, 9, 51, 92
4, 32484, Note_on_c, 9, 69, 0
4, 32491, Note_on_c, 9, 37, 0
4, 32494, Note_on_c, 9, 35, 0
4, 32495, Note_on_c, 9, 40, 0
4, 32510, Note_on_c, 9, 51, 0
4, 32525, Note_on_c, 9, 69, 62
4, 32527, Note_on_c, 9, 42, 79
4, 32538, Note_on_c, 9, 51, 23
4, 32547, Note_on_c, 9, 69, 0
4, 32555, Note_on_c, 9, 42, 0
4, 32556, Note_on_c, 9, 51, 0
4, 32585, Note_on_c, 9, 69, 48
4, 32585, Note_on_c, 9, 35, 58
4, 32586, Note_on_c, 9, 51, 106
4, 32603, Note_on_c, 9, 69, 0
4, 32612, Note_on_c, 9, 35, 0
4, 32645, Note_on_c, 9, 69, 42
4, 32645, Note_on_c, 9, 37, 72
4, 32645, Note_on_c, 9, 35, 53
4, 32663, Note_on_c, 9, 69, 0
4, 32673, Note_on_c, 9, 51, 0
4, 32673, Note_on_c, 9, 35, 0
4, 32674, Note_on_c, 9, 37, 0
4, 32705, Note_on_c, 9, 69, 40
4, 32708, Note_on_c, 9, 51, 65
4, 32722, Note_on_c, 9, 69, 0
4, 32729, Note_on_c, 9, 51, 0
4, 32764, Note_on_c, 9, 40, 61
4, 32765, Note_on_c, 9, 69, 59
4, 32768, Note_on_c, 9, 42, 77
4, 32787, Note_on_c, 9, 69, 0
4, 32793, Note_on_c, 9, 42, 0
4, 32797, Note_on_c, 9, 40, 0
4, 32822, Note_on_c, 9, 51, 96
4, 32825, Note_on_c, 9, 37, 70
4, 32825, Note_on_c, 9, 69, 47
4, 32825, Note_on_c, 9, 35, 57
4, 32846, Note_on_c, 9, 69, 0
4, 32851, Note_on_c, 9, 35, 0
4, 32853, Note_on_c, 9, 37, 0
4, 32853, Note_on_c, 9, 51, 0
4, 32885, Note_on_c, 9, 35, 42
4, 32885, Note_on_c, 9, 69, 42
4, 32908, Note_on_c, 9, 69, 0
4, 32914, Note_on_c, 9, 35, 0
4, 32939, Note_on_c, 9, 51, 86
4, 32944, Note_on_c, 9, 40, 51
4, 32945, Note_on_c, 9, 69, 32
4, 32964, Note_on_c, 9, 69, 0
4, 32971, Note_on_c, 9, 51, 0
4, 32976, Note_on_c, 9, 40, 0
4, 33005, Note_on_c, 9, 37, 72
4, 33005, Note_on_c, 9, 69, 59
4, 33008, Note_on_c, 9, 42, 79
4, 33012, Note_on_c, 9, 51, 38
4, 33026, Note_on_c, 9, 51, 0
4, 33029, Note_on_c, 9, 69, 0
4, 33033, Note_on_c, 9, 37, 0
4, 33035, Note_on_c, 9, 42, 0
4, 33061, Note_on_c, 9, 51, 62
4, 33065, Note_on_c, 9, 69, 45
4, 33065, Note_on_c, 9, 35, 63
4, 33084, Note_on_c, 9, 69, 0
4, 33087, Note_on_c, 9, 51, 0
4, 33093, Note_on_c, 9, 35, 0
4, 33120, Note_on_c, 9, 51, 127
4, 33125, Note_on_c, 9, 69, 48
4, 33125, Note_on_c, 9, 35, 42
4, 33145, Note_on_c, 9, 69, 0
4, 33156, Note_on_c, 9, 35, 0
4, 33185, Note_on_c, 9, 69, 32
4, 33200, Note_on_c, 9, 51, 0
4, 33202, Note_on_c, 9, 69, 0
4, 33244, Note_on_c, 9, 40, 46
4, 33245, Note_on_c, 9, 37, 72
4, 33245, Note_on_c, 9, 69, 61
4, 33246, Note_on_c, 9, 51, 127
4, 33248, Note_on_c, 9, 42, 74
4, 33266, Note_on_c, 9, 69, 0
4, 33271, Note_on_c, 9, 37, 0
4, 33276, Note_on_c, 9, 40, 0
4, 33278, Note_on_c, 9, 42, 0
4, 33289, Note_on_c, 9, 51, 0
4, 33305, Note_on_c, 9, 69, 44
4, 33305, Note_on_c, 9, 35, 40
4, 33312, Note_on_c, 9, 51, 59
4, 33326, Note_on_c, 9, 69, 0
4, 33331, Note_on_c, 9, 35, 0
4, 33344, Note_on_c, 9, 51, 0
4, 33365, Note_on_c, 9, 35, 53
4, 33365, Note_on_c, 9, 69, 58
4, 33384, Note_on_c, 9, 69, 0
4, 33392, Note_on_c, 9, 35, 0
4, 33424, Note_on_c, 9, 40, 53
4, 33425, Note_on_c, 9, 37, 70
4, 33425, Note_on_c, 9, 69, 41
4, 33429, Note_on_c, 9, 51, 106
4, 33445, Note_on_c, 9, 69, 0
4, 33453, Note_on_c, 9, 37, 0
4, 33455, Note_on_c, 9, 40, 0
4, 33465, Note_on_c, 9, 51, 0
4, 33485, Note_on_c, 9, 69, 59
4, 33488, Note_on_c, 9, 42, 79
4, 33508, Note_on_c, 9, 69, 0
4, 33516, Note_on_c, 9, 42, 0
4, 33542, Note_on_c, 9, 51, 92
4, 33545, Note_on_c, 9, 35, 58
4, 33545, Note_on_c, 9, 69, 48
4, 33564, Note_on_c, 9, 69, 0
4, 33565, Note_on_c, 9, 51, 0
4, 33573, Note_on_c, 9, 35, 0
4, 33605, Note_on_c, 9, 35, 52
4, 33605, Note_on_c, 9, 69, 44
4, 33605, Note_on_c, 9, 37, 77
4, 33622, Note_on_c, 9, 69, 0
4, 33631, Note_on_c, 9, 35, 0
4, 33632, Note_on_c, 9, 37, 0
4, 33665, Note_on_c, 9, 69, 45
4, 33670, Note_on_c, 9, 51, 96
4, 33681, Note_on_c, 9, 69, 0
4, 33706, Note_on_c, 9, 51, 0
4, 33724, Note_on_c, 9, 40, 61
4, 33725, Note_on_c, 9, 69, 62
4, 33728, Note_on_c, 9, 42, 77
4, 33745, Note_on_c, 9, 69, 0
4, 33753, Note_on_c, 9, 42, 0
4, 33757, Note_on_c, 9, 40, 0
4, 33785, Note_on_c, 9, 69, 53
4, 33785, Note_on_c, 9, 37, 74
4, 33785, Note_on_c, 9, 35, 53
4, 33788, Note_on_c, 9, 51, 96
4, 33802, Note_on_c, 9, 69, 0
4, 33810, Note_on_c, 9, 35, 0
4, 33816, Note_on_c, 9, 37, 0
4, 33817, Note_on_c, 9, 51, 0
4, 33845, Note_on_c, 9, 35, 50
4, 33845, Note_on_c, 9, 69, 44
4, 33866, Note_on_c, 9, 69, 0
4, 33873, Note_on_c, 9, 35, 0
4, 33904, Note_on_c, 9, 40, 51
4, 33905, Note_on_c, 9, 51, 106
4, 33905, Note_on_c, 9, 69, 33
4, 33926, Note_on_c, 9, 69, 0
4, 33936, Note_on_c, 9, 40, 0
4, 33940, Note_on_c, 9, 51, 0
4, 33965, Note_on_c, 9, 37, 72
4, 33965, Note_on_c, 9, 69, 71
4, 33968, Note_on_c, 9, 42, 79
4, 33971, Note_on_c, 9, 51, 39
4, 33988, Note_on_c, 9, 69, 0
4, 33995, Note_on_c, 9, 37, 0
4, 33995, Note_on_c, 9, 42, 0
4, 33997, Note_on_c, 9, 51, 0
4, 34025, Note_on_c, 9, 35, 54
4, 34025, Note_on_c, 9, 69, 50
4, 34027, Note_on_c, 9, 51, 38
4, 34042, Note_on_c, 9, 69, 0
4, 34048, Note_on_c, 9, 51, 0
4, 34052, Note_on_c, 9, 35, 0
4, 34083, Note_on_c, 9, 51, 115
4, 34085, Note_on_c, 9, 35, 40
4, 34085, Note_on_c, 9, 69, 42
4, 34105, Note_on_c, 9, 69, 0
4, 34117, Note_on_c, 9, 35, 0
4, 34145, Note_on_c, 9, 69, 48
4, 34158, Note_on_c, 9, 51, 0
4, 34162, Note_on_c, 9, 69, 0
4, 34196, Note_on_c, 9, 51, 115
4, 34204, Note_on_c, 9, 40, 46
4, 34205, Note_on_c, 9, 37, 72
4, 34205, Note_on_c, 9, 69, 62
4, 34208, Note_on_c, 9, 42, 74
4, 34226, Note_on_c, 9, 69, 0
4, 34235, Note_on_c, 9, 51, 0
4, 34236, Note_on_c, 9, 40, 0
4, 34236, Note_on_c, 9, 37, 0
4, 34238, Note_on_c, 9, 42, 0
4, 34265, Note_on_c, 9, 35, 60
4, 34265, Note_on_c, 9, 69, 48
4, 34267, Note_on_c, 9, 51, 62
4, 34282, Note_on_c, 9, 69, 0
4, 34288, Note_on_c, 9, 35, 0
4, 34313, Note_on_c, 9, 51, 0
4, 34325, Note_on_c, 9, 35, 49
4, 34325, Note_on_c, 9, 69, 42
4, 34347, Note_on_c, 9, 69, 0
4, 34349, Note_on_c, 9, 35, 0
4, 34382, Note_on_c, 9, 51, 115
4, 34384, Note_on_c, 9, 40, 53
4, 34385, Note_on_c, 9, 69, 45
4, 34385, Note_on_c, 9, 37, 72
4, 34385, Note_on_c, 9, 35, 60
4, 34403, Note_on_c, 9, 69, 0
4, 34412, Note_on_c, 9, 37, 0
4, 34413, Note_on_c, 9, 35, 0
4, 34415, Note_on_c, 9, 40, 0
4, 34444, Note_on_c, 9, 51, 0
4, 34445, Note_on_c, 9, 69, 62
4, 34448, Note_on_c, 9, 42, 79
4, 34468, Note_on_c, 9, 69, 0
4, 34476, Note_on_c, 9, 42, 0
4, 34502, Note_on_c, 9, 51, 115
4, 34505, Note_on_c, 9, 35, 50
4, 34505, Note_on_c, 9, 69, 47
4, 34523, Note_on_c, 9, 69, 0
4, 34530, Note_on_c, 9, 35, 0
4, 34565, Note_on_c, 9, 35, 50
4, 34565, Note_on_c, 9, 37, 72
4, 34565, Note_on_c, 9, 69, 47
4, 34583, Note_on_c, 9, 51, 0
4, 34586, Note_on_c, 9, 69, 0
4, 34594, Note_on_c, 9, 37, 0
4, 34594, Note_on_c, 9, 35, 0
4, 34625, Note_on_c, 9, 69, 42
4, 34630, Note_on_c, 9, 51, 73
4, 34641, Note_on_c, 9, 69, 0
4, 34663, Note_on_c, 9, 51, 0
4, 34684, Note_on_c, 9, 40, 61
4, 34685, Note_on_c, 9, 69, 62
4, 34688, Note_on_c, 9, 42, 77
4, 34707, Note_on_c, 9, 69, 0
4, 34713, Note_on_c, 9, 42, 0
4, 34717, Note_on_c, 9, 40, 0
4, 34739, Note_on_c, 9, 51, 106
4, 34745, Note_on_c, 9, 37, 72
4, 34745, Note_on_c, 9, 69, 50
4, 34745, Note_on_c, 9, 35, 49
4, 34761, Note_on_c, 9, 69, 0
4, 34772, Note_on_c, 9, 35, 0
4, 34774, Note_on_c, 9, 37, 0
4, 34777, Note_on_c, 9, 51, 0
4, 34805, Note_on_c, 9, 35, 53
4, 34805, Note_on_c, 9, 69, 41
4, 34826, Note_on_c, 9, 69, 0
4, 34836, Note_on_c, 9, 35, 0
4, 34854, Note_on_c, 9, 51, 86
4, 34864, Note_on_c, 9, 40, 51
4, 34865, Note_on_c, 9, 69, 47
4, 34884, Note_on_c, 9, 69, 0
4, 34889, Note_on_c, 9, 51, 0
4, 34896, Note_on_c, 9, 40, 0
4, 34910, Note_on_c, 9, 51, 65
4, 34925, Note_on_c, 9, 37, 70
4, 34925, Note_on_c, 9, 69, 62
4, 34928, Note_on_c, 9, 42, 79
4, 34938, Note_on_c, 9, 51, 0
4, 34948, Note_on_c, 9, 69, 0
4, 34953, Note_on_c, 9, 37, 0
4, 34955, Note_on_c, 9, 42, 0
4, 34973, Note_on_c, 9, 51, 59
4, 34985, Note_on_c, 9, 35, 57
4, 34985, Note_on_c, 9, 69, 48
4, 34989, Note_on_c, 9, 51, 0
4, 35003, Note_on_c, 9, 69, 0
4, 35010, Note_on_c, 9, 35, 0
4, 35033, Note_on_c, 9, 51, 127
4, 35045, Note_on_c, 9, 69, 58
4, 35045, Note_on_c, 9, 35, 50
4, 35047, Note_on_c, 9, 49, 56
4, 35066, Note_on_c, 9, 69, 0
4, 35076, Note_on_c, 9, 35, 0
4, 35101, Note_on_c, 9, 51, 0
4, 35105, Note_on_c, 9, 69, 47
4, 35123, Note_on_c, 9, 69, 0
4, 35162, Note_on_c, 9, 51, 127
4, 35164, Note_on_c, 9, 40, 46
4, 35165, Note_on_c, 9, 69, 59
4, 35165, Note_on_c, 9, 37, 68
4, 35168, Note_on_c, 9, 42, 74
4, 35187, Note_on_c, 9, 69, 0
4, 35196, Note_on_c, 9, 40, 0
4, 35197, Note_on_c, 9, 37, 0
4, 35198, Note_on_c, 9, 42, 0
4, 35225, Note_on_c, 9, 35, 57
4, 35225, Note_on_c, 9, 69, 52
4, 35244, Note_on_c, 9, 69, 0
4, 35245, Note_on_c, 9, 51, 0
4, 35250, Note_on_c, 9, 35, 0
4, 35285, Note_on_c, 9, 69, 44
4, 35285, Note_on_c, 9, 35, 58
4, 35286, Note_on_c, 9, 51, 44
4, 35304, Note_on_c, 9, 51, 0
4, 35309, Note_on_c, 9, 69, 0
4, 35310, Note_on_c, 9, 35, 0
4, 35342, Note_on_c, 9, 51, 115
4, 35344, Note_on_c, 9, 40, 53
4, 35345, Note_on_c, 9, 69, 41
4, 35345, Note_on_c, 9, 35, 46
4, 35345, Note_on_c, 9, 37, 68
4, 35366, Note_on_c, 9, 69, 0
4, 35373, Note_on_c, 9, 35, 0
4, 35373, Note_on_c, 9, 37, 0
4, 35375, Note_on_c, 9, 40, 0
4, 35379, Note_on_c, 9, 51, 0
4, 35405, Note_on_c, 9, 69, 61
4, 35408, Note_on_c, 9, 42, 79
4, 35428, Note_on_c, 9, 69, 0
4, 35436, Note_on_c, 9, 42, 0
4, 35465, Note_on_c, 9, 69, 59
4, 35465, Note_on_c, 9, 35, 60
4, 35470, Note_on_c, 9, 51, 82
4, 35485, Note_on_c, 9, 69, 0
4, 35489, Note_on_c, 9, 35, 0
4, 35490, Note_on_c, 9, 51, 0
4, 35525, Note_on_c, 9, 35, 79
4, 35525, Note_on_c, 9, 37, 57
4, 35525, Note_on_c, 9, 69, 75
4, 35543, Note_on_c, 9, 69, 0
4, 35547, Note_on_c, 9, 49, 0
4, 35552, Note_on_c, 9, 37, 0
4, 35552, Note_on_c, 9, 35, 0
4, 35582, Note_on_c, 9, 51, 115
4, 35585, Note_on_c, 9, 69, 31
4, 35603, Note_on_c, 9, 69, 0
4, 35617, Note_on_c, 9, 51, 0
4, 35644, Note_on_c, 9, 40, 61
4, 35645, Note_on_c, 9, 69, 28
4, 35648, Note_on_c, 9, 42, 77
4, 35663, Note_on_c, 9, 69, 0
4, 35673, Note_on_c, 9, 42, 0
4, 35677, Note_on_c, 9, 40, 0
4, 35698, Note_on_c, 9, 51, 115
4, 35705, Note_on_c, 9, 35, 52
4, 35705, Note_on_c, 9, 69, 59
4, 35705, Note_on_c, 9, 37, 62
4, 35727, Note_on_c, 9, 69, 0
4, 35730, Note_on_c, 9, 37, 0
4, 35730, Note_on_c, 9, 51, 0
4, 35731, Note_on_c, 9, 35, 0
4, 35765, Note_on_c, 9, 69, 32
4, 35765, Note_on_c, 9, 35, 52
4, 35790, Note_on_c, 9, 69, 0
4, 35815, Note_on_c, 9, 51, 92
4, 35824, Note_on_c, 9, 40, 51
4, 35825, Note_on_c, 9, 69, 33
4, 35841, Note_on_c, 9, 69, 0
4, 35846, Note_on_c, 9, 51, 0
4, 35856, Note_on_c, 9, 40, 0
4, 35864, Note_on_c, 9, 35, 0
4, 35882, Note_on_c, 9, 51, 41
4, 35885, Note_on_c, 9, 37, 72
4, 35885, Note_on_c, 9, 69, 61
4, 35888, Note_on_c, 9, 42, 79
4, 35896, Note_on_c, 9, 51, 0
4, 35907, Note_on_c, 9, 37, 0
4, 35910, Note_on_c, 9, 69, 0
4, 35915, Note_on_c, 9, 42, 0
4, 35942, Note_on_c, 9, 51, 62
4, 35945, Note_on_c, 9, 69, 37
4, 35945, Note_on_c, 9, 35, 45
4, 35955, Note_on_c, 9, 51, 0
4, 35965, Note_on_c, 9, 69, 0
4, 35968, Note_on_c, 9, 35, 0
4, 36001, Note_on_c, 9, 51, 115
4, 36004, Note_on_c, 9, 35, 41
4, 36004, Note_on_c, 9, 37, 72
4, 36004, Note_on_c, 9, 69, 58
4, 36005, Note_on_c, 9, 35, 49
4, 36005, Note_on_c, 9, 69, 59
4, 36027, Note_on_c, 9, 69, 0
4, 36028, Note_on_c, 9, 37, 0
4, 36029, Note_on_c, 9, 69, 0
4, 36032, Note_on_c, 9, 35, 0
4, 36046, Note_on_c, 9, 35, 0
4, 36062, Note_on_c, 9, 51, 0
4, 36064, Note_on_c, 9, 69, 30
4, 36083, Note_on_c, 9, 69, 0
4, 36124, Note_on_c, 9, 42, 77
4, 36124, Note_on_c, 9, 40, 53
4, 36124, Note_on_c, 9, 69, 42
4, 36128, Note_on_c, 9, 51, 73
4, 36142, Note_on_c, 9, 69, 0
4, 36143, Note_on_c, 9, 51, 0
4, 36149, Note_on_c, 9, 42, 0
4, 36156, Note_on_c, 9, 40, 0
4, 36184, Note_on_c, 9, 69, 59
4, 36184, Note_on_c, 9, 37, 64
4, 36184, Note_on_c, 9, 35, 54
4, 36186, Note_on_c, 9, 51, 115
4, 36206, Note_on_c, 9, 69, 0
4, 36207, Note_on_c, 9, 35, 0
4, 36210, Note_on_c, 9, 37, 0
4, 36244, Note_on_c, 9, 35, 44
4, 36244, Note_on_c, 9, 69, 32
4, 36267, Note_on_c, 9, 69, 0
4, 36277, Note_on_c, 9, 51, 0
4, 36278, Note_on_c, 9, 35, 0
4, 36304, Note_on_c, 9, 40, 61
4, 36304, Note_on_c, 9, 69, 33
4, 36318, Note_on_c, 9, 51, 77
4, 36324, Note_on_c, 9, 69, 0
4, 36335, Note_on_c, 9, 40, 0
4, 36338, Note_on_c, 9, 51, 0
4, 36364, Note_on_c, 9, 69, 53
4, 36364, Note_on_c, 9, 37, 68
4, 36364, Note_on_c, 9, 42, 79
4, 36387, Note_on_c, 9, 69, 0
4, 36390, Note_on_c, 9, 37, 0
4, 36391, Note_on_c, 9, 42, 0
4, 36424, Note_on_c, 9, 35, 45
4, 36424, Note_on_c, 9, 69, 42
4, 36424, Note_on_c, 9, 51, 96
4, 36444, Note_on_c, 9, 69, 0
4, 36450, Note_on_c, 9, 35, 0
4, 36458, Note_on_c, 9, 51, 0
4, 36484, Note_on_c, 9, 69, 59
4, 36484, Note_on_c, 9, 35, 52
4, 36507, Note_on_c, 9, 51, 21
4, 36509, Note_on_c, 9, 69, 0
4, 36514, Note_on_c, 9, 35, 0
4, 36516, Note_on_c, 9, 51, 0
4, 36544, Note_on_c, 9, 69, 32
4, 36546, Note_on_c, 9, 51, 96
4, 36563, Note_on_c, 9, 69, 0
4, 36604, Note_on_c, 9, 69, 32
4, 36604, Note_on_c, 9, 40, 68
4, 36604, Note_on_c, 9, 42, 74
4, 36604, Note_on_c, 9, 37, 70
4, 36623, Note_on_c, 9, 69, 0
4, 36632, Note_on_c, 9, 37, 0
4, 36634, Note_on_c, 9, 42, 0
4, 36637, Note_on_c, 9, 40, 0
4, 36649, Note_on_c, 9, 51, 0
4, 36664, Note_on_c, 9, 69, 58
4, 36664, Note_on_c, 9, 35, 50
4, 36668, Note_on_c, 9, 51, 82
4, 36688, Note_on_c, 9, 35, 0
4, 36688, Note_on_c, 9, 69, 0
4, 36700, Note_on_c, 9, 51, 0
4, 36722, Note_on_c, 9, 51, 41
4, 36724, Note_on_c, 9, 35, 47
4, 36724, Note_on_c, 9, 69, 44
4, 36749, Note_on_c, 9, 69, 0
4, 36753, Note_on_c, 9, 35, 0
4, 36762, Note_on_c, 9, 51, 0
4, 36784, Note_on_c, 9, 37, 68
4, 36784, Note_on_c, 9, 69, 41
4, 36784, Note_on_c, 9, 40, 59
4, 36784, Note_on_c, 9, 35, 46
4, 36791, Note_on_c, 9, 51, 68
4, 36804, Note_on_c, 9, 69, 0
4, 36810, Note_on_c, 9, 37, 0
4, 36815, Note_on_c, 9, 35, 0
4, 36815, Note_on_c, 9, 51, 0
4, 36816, Note_on_c, 9, 40, 0
4, 36841, Note_on_c, 9, 51, 106
4, 36844, Note_on_c, 9, 42, 79
4, 36844, Note_on_c, 9, 69, 61
4, 36870, Note_on_c, 9, 69, 0
4, 36872, Note_on_c, 9, 42, 0
4, 36881, Note_on_c, 9, 51, 0
4, 36903, Note_on_c, 9, 51, 50
4, 36904, Note_on_c, 9, 69, 44
4, 36904, Note_on_c, 9, 35, 42
4, 36925, Note_on_c, 9, 69, 0
4, 36928, Note_on_c, 9, 51, 0
4, 36930, Note_on_c, 9, 35, 0
4, 36959, Note_on_c, 9, 51, 127
4, 36964, Note_on_c, 9, 35, 50
4, 36964, Note_on_c, 9, 69, 59
4, 36964, Note_on_c, 9, 37, 74
4, 36988, Note_on_c, 9, 69, 0
4, 36991, Note_on_c, 9, 35, 0
4, 36992, Note_on_c, 9, 37, 0
4, 37024, Note_on_c, 9, 69, 35
4, 37044, Note_on_c, 9, 51, 0
4, 37045, Note_on_c, 9, 69, 0
4, 37084, Note_on_c, 9, 40, 53
4, 37084, Note_on_c, 9, 69, 42
4, 37085, Note_on_c, 9, 42, 77
4, 37086, Note_on_c, 9, 51, 115
4, 37102, Note_on_c, 9, 69, 0
4, 37110, Note_on_c, 9, 42, 0
4, 37116, Note_on_c, 9, 40, 0
4, 37144, Note_on_c, 9, 37, 72
4, 37144, Note_on_c, 9, 69, 58
4, 37144, Note_on_c, 9, 35, 49
4, 37162, Note_on_c, 9, 51, 0
4, 37167, Note_on_c, 9, 35, 0
4, 37167, Note_on_c, 9, 69, 0
4, 37171, Note_on_c, 9, 37, 0
4, 37203, Note_on_c, 9, 51, 65
4, 37204, Note_on_c, 9, 35, 41
4, 37204, Note_on_c, 9, 69, 44
4, 37224, Note_on_c, 9, 51, 0
4, 37226, Note_on_c, 9, 69, 0
4, 37234, Note_on_c, 9, 35, 0
4, 37261, Note_on_c, 9, 51, 127
4, 37264, Note_on_c, 9, 69, 35
4, 37264, Note_on_c, 9, 40, 61
4, 37284, Note_on_c, 9, 69, 0
4, 37295, Note_on_c, 9, 40, 0
4, 37324, Note_on_c, 9, 37, 72
4, 37324, Note_on_c, 9, 69, 56
4, 37325, Note_on_c, 9, 42, 79
4, 37342, Note_on_c, 9, 51, 0
4, 37348, Note_on_c, 9, 69, 0
4, 37352, Note_on_c, 9, 37, 0
4, 37352, Note_on_c, 9, 42, 0
4, 37384, Note_on_c, 9, 35, 53
4, 37384, Note_on_c, 9, 69, 36
4, 37391, Note_on_c, 9, 51, 50
4, 37406, Note_on_c, 9, 51, 0
4, 37406, Note_on_c, 9, 69, 0
4, 37406, Note_on_c, 9, 35, 0
4, 37444, Note_on_c, 9, 35, 40
4, 37444, Note_on_c, 9, 69, 58
4, 37445, Note_on_c, 9, 51, 92
4, 37467, Note_on_c, 9, 69, 0
4, 37474, Note_on_c, 9, 35, 0
4, 37504, Note_on_c, 9, 69, 36
4, 37517, Note_on_c, 9, 51, 0
4, 37523, Note_on_c, 9, 69, 0
4, 37563, Note_on_c, 9, 51, 44
4, 37564, Note_on_c, 9, 37, 70
4, 37564, Note_on_c, 9, 69, 45
4, 37564, Note_on_c, 9, 40, 68
4, 37565, Note_on_c, 9, 42, 74
4, 37581, Note_on_c, 9, 69, 0
4, 37585, Note_on_c, 9, 51, 0
4, 37591, Note_on_c, 9, 37, 0
4, 37595, Note_on_c, 9, 42, 0
4, 37597, Note_on_c, 9, 40, 0
4, 37624, Note_on_c, 9, 69, 58
4, 37624, Note_on_c, 9, 35, 49
4, 37626, Note_on_c, 9, 51, 96
4, 37644, Note_on_c, 9, 69, 0
4, 37649, Note_on_c, 9, 35, 0
4, 37684, Note_on_c, 9, 35, 40
4, 37684, Note_on_c, 9, 69, 47
4, 37695, Note_on_c, 9, 51, 0
4, 37703, Note_on_c, 9, 69, 0
4, 37714, Note_on_c, 9, 35, 0
4, 37744, Note_on_c, 9, 40, 59
4, 37744, Note_on_c, 9, 37, 68
4, 37744, Note_on_c, 9, 69, 33
4, 37753, Note_on_c, 9, 51, 96
4, 37762, Note_on_c, 9, 69, 0
4, 37770, Note_on_c, 9, 37, 0
4, 37776, Note_on_c, 9, 40, 0
4, 37789, Note_on_c, 9, 51, 0
4, 37804, Note_on_c, 9, 69, 62
4, 37805, Note_on_c, 9, 42, 79
4, 37827, Note_on_c, 9, 69, 0
4, 37833, Note_on_c, 9, 42, 0
4, 37864, Note_on_c, 9, 35, 50
4, 37864, Note_on_c, 9, 69, 45
4, 37869, Note_on_c, 9, 51, 77
4, 37885, Note_on_c, 9, 69, 0
4, 37889, Note_on_c, 9, 35, 0
4, 37894, Note_on_c, 9, 51, 0
4, 37924, Note_on_c, 9, 69, 47
4, 37924, Note_on_c, 9, 35, 50
4, 37924, Note_on_c, 9, 37, 70
4, 37927, Note_on_c, 9, 51, 96
4, 37949, Note_on_c, 9, 69, 0
4, 37951, Note_on_c, 9, 37, 0
4, 37952, Note_on_c, 9, 35, 0
4, 37984, Note_on_c, 9, 69, 31
4, 38000, Note_on_c, 9, 51, 0
4, 38004, Note_on_c, 9, 69, 0
4, 38044, Note_on_c, 9, 40, 53
4, 38044, Note_on_c, 9, 69, 42
4, 38045, Note_on_c, 9, 42, 77
4, 38048, Note_on_c, 9, 51, 73
4, 38064, Note_on_c, 9, 69, 0
4, 38066, Note_on_c, 9, 51, 0
4, 38070, Note_on_c, 9, 42, 0
4, 38076, Note_on_c, 9, 40, 0
4, 38104, Note_on_c, 9, 35, 50
4, 38104, Note_on_c, 9, 37, 72
4, 38104, Note_on_c, 9, 69, 61
4, 38107, Note_on_c, 9, 51, 115
4, 38125, Note_on_c, 9, 35, 0
4, 38128, Note_on_c, 9, 69, 0
4, 38130, Note_on_c, 9, 37, 0
4, 38164, Note_on_c, 9, 69, 35
4, 38164, Note_on_c, 9, 35, 56
4, 38187, Note_on_c, 9, 69, 0
4, 38194, Note_on_c, 9, 35, 0
4, 38194, Note_on_c, 9, 51, 0
4, 38224, Note_on_c, 9, 69, 36
4, 38224, Note_on_c, 9, 40, 61
4, 38228, Note_on_c, 9, 51, 68
4, 38242, Note_on_c, 9, 69, 0
4, 38252, Note_on_c, 9, 51, 0
4, 38255, Note_on_c, 9, 40, 0
4, 38284, Note_on_c, 9, 69, 58
4, 38284, Note_on_c, 9, 37, 68
4, 38285, Note_on_c, 9, 42, 79
4, 38291, Note_on_c, 9, 51, 33
4, 38299, Note_on_c, 9, 51, 0
4, 38309, Note_on_c, 9, 69, 0
4, 38312, Note_on_c, 9, 42, 0
4, 38314, Note_on_c, 9, 37, 0
4, 38343, Note_on_c, 9, 51, 127
4, 38344, Note_on_c, 9, 69, 37
4, 38344, Note_on_c, 9, 35, 56
4, 38363, Note_on_c, 9, 69, 0
4, 38371, Note_on_c, 9, 35, 0
4, 38379, Note_on_c, 9, 51, 0
4, 38404, Note_on_c, 9, 69, 56
4, 38427, Note_on_c, 9, 69, 0
4, 38461, Note_on_c, 9, 51, 127
4, 38464, Note_on_c, 9, 35, 54
4, 38464, Note_on_c, 9, 69, 40
4, 38486, Note_on_c, 9, 69, 0
4, 38492, Note_on_c, 9, 35, 0
4, 38524, Note_on_c, 9, 37, 72
4, 38524, Note_on_c, 9, 40, 68
4, 38524, Note_on_c, 9, 69, 44
4, 38525, Note_on_c, 9, 42, 74
4, 38543, Note_on_c, 9, 69, 0
4, 38543, Note_on_c, 9, 51, 0
4, 38552, Note_on_c, 9, 37, 0
4, 38555, Note_on_c, 9, 42, 0
4, 38557, Note_on_c, 9, 40, 0
4, 38584, Note_on_c, 9, 69, 59
4, 38584, Note_on_c, 9, 35, 46
4, 38588, Note_on_c, 9, 51, 92
4, 38601, Note_on_c, 9, 51, 0
4, 38607, Note_on_c, 9, 69, 0
4, 38610, Note_on_c, 9, 35, 0
4, 38644, Note_on_c, 9, 69, 33
4, 38663, Note_on_c, 9, 51, 47
4, 38670, Note_on_c, 9, 69, 0
4, 38679, Note_on_c, 9, 51, 0
4, 38704, Note_on_c, 9, 35, 50
4, 38704, Note_on_c, 9, 69, 32
4, 38704, Note_on_c, 9, 40, 59
4, 38704, Note_on_c, 9, 37, 72
4, 38714, Note_on_c, 9, 51, 77
4, 38724, Note_on_c, 9, 69, 0
4, 38731, Note_on_c, 9, 35, 0
4, 38733, Note_on_c, 9, 37, 0
4, 38736, Note_on_c, 9, 40, 0
4, 38741, Note_on_c, 9, 51, 0
4, 38764, Note_on_c, 9, 69, 59
4, 38765, Note_on_c, 9, 42, 79
4, 38773, Note_on_c, 9, 51, 96
4, 38787, Note_on_c, 9, 69, 0
4, 38793, Note_on_c, 9, 51, 0
4, 38793, Note_on_c, 9, 42, 0
4, 38824, Note_on_c, 9, 69, 44
4, 38824, Note_on_c, 9, 35, 54
4, 38825, Note_on_c, 9, 51, 65
4, 38842, Note_on_c, 9, 69, 0
4, 38848, Note_on_c, 9, 35, 0
4, 38864, Note_on_c, 9, 51, 0
4, 38884, Note_on_c, 9, 35, 57
4, 38884, Note_on_c, 9, 37, 72
4, 38884, Note_on_c, 9, 69, 61
4, 38908, Note_on_c, 9, 69, 0
4, 38911, Note_on_c, 9, 35, 0
4, 38912, Note_on_c, 9, 37, 0
4, 38944, Note_on_c, 9, 69, 32
4, 38965, Note_on_c, 9, 69, 0
4, 39004, Note_on_c, 9, 40, 53
4, 39004, Note_on_c, 9, 69, 62
4, 39005, Note_on_c, 9, 42, 77
4, 39026, Note_on_c, 9, 69, 0
4, 39030, Note_on_c, 9, 42, 0
4, 39036, Note_on_c, 9, 40, 0
4, 39064, Note_on_c, 9, 35, 63
4, 39064, Note_on_c, 9, 37, 72
4, 39064, Note_on_c, 9, 69, 53
4, 39081, Note_on_c, 9, 69, 0
4, 39088, Note_on_c, 9, 35, 0
4, 39093, Note_on_c, 9, 37, 0
4, 39124, Note_on_c, 9, 69, 33
4, 39124, Note_on_c, 9, 35, 52
4, 39147, Note_on_c, 9, 69, 0
4, 39153, Note_on_c, 9, 35, 0
4, 39184, Note_on_c, 9, 40, 61
4, 39184, Note_on_c, 9, 69, 32
4, 39185, Note_on_c, 9, 51, 96
4, 39201, Note_on_c, 9, 69, 0
4, 39215, Note_on_c, 9, 40, 0
4, 39227, Note_on_c, 9, 51, 0
4, 39244, Note_on_c, 9, 69, 62
4, 39244, Note_on_c, 9, 37, 72
4, 39245, Note_on_c, 9, 42, 79
4, 39268, Note_on_c, 9, 69, 0
4, 39272, Note_on_c, 9, 42, 0
4, 39273, Note_on_c, 9, 37, 0
4, 39304, Note_on_c, 9, 69, 44
4, 39304, Note_on_c, 9, 35, 61
4, 39307, Note_on_c, 9, 51, 96
4, 39322, Note_on_c, 9, 69, 0
4, 39329, Note_on_c, 9, 35, 0
4, 39347, Note_on_c, 9, 51, 0
4, 39364, Note_on_c, 9, 35, 52
4, 39364, Note_on_c, 9, 69, 48
4, 39382, Note_on_c, 9, 69, 0
4, 39398, Note_on_c, 9, 35, 0
4, 39423, Note_on_c, 9, 51, 68
4, 39424, Note_on_c, 9, 69, 44
4, 39441, Note_on_c, 9, 69, 0
4, 39460, Note_on_c, 9, 51, 0
4, 39484, Note_on_c, 9, 69, 61
4, 39484, Note_on_c, 9, 37, 72
4, 39484, Note_on_c, 9, 40, 68
4, 39485, Note_on_c, 9, 42, 74
4, 39507, Note_on_c, 9, 69, 0
4, 39513, Note_on_c, 9, 37, 0
4, 39515, Note_on_c, 9, 42, 0
4, 39517, Note_on_c, 9, 40, 0
4, 39544, Note_on_c, 9, 35, 58
4, 39544, Note_on_c, 9, 69, 35
4, 39564, Note_on_c, 9, 69, 0
4, 39568, Note_on_c, 9, 35, 0
4, 39604, Note_on_c, 9, 69, 33
4, 39604, Note_on_c, 9, 35, 52
4, 39627, Note_on_c, 9, 69, 0
4, 39632, Note_on_c, 9, 35, 0
4, 39656, Note_on_c, 9, 51, 106
4, 39664, Note_on_c, 9, 35, 53
4, 39664, Note_on_c, 9, 37, 77
4, 39664, Note_on_c, 9, 69, 33
4, 39664, Note_on_c, 9, 40, 59
4, 39683, Note_on_c, 9, 69, 0
4, 39689, Note_on_c, 9, 51, 0
4, 39690, Note_on_c, 9, 37, 0
4, 39693, Note_on_c, 9, 35, 0
4, 39696, Note_on_c, 9, 40, 0
4, 39713, Note_on_c, 9, 51, 86
4, 39724, Note_on_c, 9, 69, 62
4, 39725, Note_on_c, 9, 42, 79
4, 39746, Note_on_c, 9, 69, 0
4, 39753, Note_on_c, 9, 42, 0
4, 39759, Note_on_c, 9, 51, 0
4, 39784, Note_on_c, 9, 35, 58
4, 39784, Note_on_c, 9, 69, 48
4, 39802, Note_on_c, 9, 69, 0
4, 39811, Note_on_c, 9, 35, 0
4, 39844, Note_on_c, 9, 69, 42
4, 39844, Note_on_c, 9, 37, 72
4, 39844, Note_on_c, 9, 35, 53
4, 39850, Note_on_c, 9, 51, 96
4, 39862, Note_on_c, 9, 69, 0
4, 39872, Note_on_c, 9, 35, 0
4, 39873, Note_on_c, 9, 37, 0
4, 39904, Note_on_c, 9, 69, 40
4, 39905, Note_on_c, 9, 51, 0
4, 39921, Note_on_c, 9, 69, 0
4, 39964, Note_on_c, 9, 69, 59
4, 39964, Note_on_c, 9, 40, 53
4, 39965, Note_on_c, 9, 42, 77
4, 39986, Note_on_c, 9, 69, 0
4, 39990, Note_on_c, 9, 42, 0
4, 39996, Note_on_c, 9, 40, 0
4, 40023, Note_on_c, 9, 51, 106
4, 40024, Note_on_c, 9, 69, 47
4, 40024, Note_on_c, 9, 37, 70
4, 40024, Note_on_c, 9, 35, 57
4, 40045, Note_on_c, 9, 69, 0
4, 40050, Note_on_c, 9, 35, 0
4, 40052, Note_on_c, 9, 37, 0
4, 40058, Note_on_c, 9, 51, 0
4, 40084, Note_on_c, 9, 69, 42
4, 40084, Note_on_c, 9, 35, 42
4, 40107, Note_on_c, 9, 69, 0
4, 40113, Note_on_c, 9, 35, 0
4, 40135, Note_on_c, 9, 51, 106
4, 40144, Note_on_c, 9, 40, 61
4, 40144, Note_on_c, 9, 69, 32
4, 40163, Note_on_c, 9, 69, 0
4, 40173, Note_on_c, 9, 51, 0
4, 40175, Note_on_c, 9, 40, 0
4, 40204, Note_on_c, 9, 69, 59
4, 40204, Note_on_c, 9, 37, 72
4, 40205, Note_on_c, 9, 42, 79
4, 40228, Note_on_c, 9, 69, 0
4, 40232, Note_on_c, 9, 42, 0
4, 40232, Note_on_c, 9, 37, 0
4, 40264, Note_on_c, 9, 69, 45
4, 40264, Note_on_c, 9, 35, 63
4, 40283, Note_on_c, 9, 69, 0
4, 40292, Note_on_c, 9, 35, 0
4, 40324, Note_on_c, 9, 35, 42
4, 40324, Note_on_c, 9, 69, 48
4, 40344, Note_on_c, 9, 69, 0
4, 40355, Note_on_c, 9, 35, 0
4, 40384, Note_on_c, 9, 69, 32
4, 40390, Note_on_c, 9, 51, 106
4, 40401, Note_on_c, 9, 69, 0
4, 40444, Note_on_c, 9, 37, 72
4, 40444, Note_on_c, 9, 40, 68
4, 40444, Note_on_c, 9, 69, 61
4, 40445, Note_on_c, 9, 42, 74
4, 40447, Note_on_c, 9, 51, 0
4, 40465, Note_on_c, 9, 69, 0
4, 40470, Note_on_c, 9, 37, 0
4, 40475, Note_on_c, 9, 42, 0
4, 40477, Note_on_c, 9, 40, 0
4, 40504, Note_on_c, 9, 35, 40
4, 40504, Note_on_c, 9, 69, 44
4, 40525, Note_on_c, 9, 69, 0
4, 40530, Note_on_c, 9, 35, 0
4, 40564, Note_on_c, 9, 35, 53
4, 40564, Note_on_c, 9, 69, 58
4, 40583, Note_on_c, 9, 69, 0
4, 40591, Note_on_c, 9, 35, 0
4, 40624, Note_on_c, 9, 37, 70
4, 40624, Note_on_c, 9, 40, 59
4, 40624, Note_on_c, 9, 69, 41
4, 40625, Note_on_c, 9, 51, 115
4, 40644, Note_on_c, 9, 69, 0
4, 40652, Note_on_c, 9, 37, 0
4, 40656, Note_on_c, 9, 40, 0
4, 40674, Note_on_c, 9, 51, 0
4, 40684, Note_on_c, 9, 69, 59
4, 40685, Note_on_c, 9, 42, 79
4, 40707, Note_on_c, 9, 69, 0
4, 40713, Note_on_c, 9, 42, 0
4, 40744, Note_on_c, 9, 69, 48
4, 40744, Note_on_c, 9, 35, 58
4, 40763, Note_on_c, 9, 69, 0
4, 40772, Note_on_c, 9, 35, 0
4, 40795, Note_on_c, 9, 51, 96
4, 40804, Note_on_c, 9, 35, 52
4, 40804, Note_on_c, 9, 69, 44
4, 40804, Note_on_c, 9, 37, 77
4, 40821, Note_on_c, 9, 69, 0
4, 40830, Note_on_c, 9, 35, 0
4, 40831, Note_on_c, 9, 37, 0
4, 40864, Note_on_c, 9, 69, 45
4, 40880, Note_on_c, 9, 69, 0
4, 40884, Note_on_c, 9, 51, 0
4, 40924, Note_on_c, 9, 40, 53
4, 40924, Note_on_c, 9, 51, 106
4, 40924, Note_on_c, 9, 69, 62
4, 40926, Note_on_c, 9, 42, 77
4, 40944, Note_on_c, 9, 69, 0
4, 40951, Note_on_c, 9, 42, 0
4, 40956, Note_on_c, 9, 40, 0
4, 40984, Note_on_c, 9, 35, 53
4, 40984, Note_on_c, 9, 69, 53
4, 40984, Note_on_c, 9, 37, 74
4, 40993, Note_on_c, 9, 51, 0
4, 41001, Note_on_c, 9, 69, 0
4, 41009, Note_on_c, 9, 35, 0
4, 41015, Note_on_c, 9, 37, 0
4, 41044, Note_on_c, 9, 69, 44
4, 41044, Note_on_c, 9, 35, 50
4, 41065, Note_on_c, 9, 69, 0
4, 41072, Note_on_c, 9, 35, 0
4, 41104, Note_on_c, 9, 40, 61
4, 41104, Note_on_c, 9, 69, 33
4, 41125, Note_on_c, 9, 69, 0
4, 41135, Note_on_c, 9, 40, 0
4, 41164, Note_on_c, 9, 69, 71
4, 41164, Note_on_c, 9, 37, 72
4, 41166, Note_on_c, 9, 42, 79
4, 41174, Note_on_c, 9, 51, 59
4, 41187, Note_on_c, 9, 69, 0
4, 41193, Note_on_c, 9, 42, 0
4, 41194, Note_on_c, 9, 37, 0
4, 41194, Note_on_c, 9, 51, 0
4, 41224, Note_on_c, 9, 51, 96
4, 41224, Note_on_c, 9, 69, 50
4, 41224, Note_on_c, 9, 35, 54
4, 41241, Note_on_c, 9, 69, 0
4, 41251, Note_on_c, 9, 35, 0
4, 41282, Note_on_c, 9, 51, 0
4, 41284, Note_on_c, 9, 69, 42
4, 41284, Note_on_c, 9, 35, 40
4, 41304, Note_on_c, 9, 69, 0
4, 41316, Note_on_c, 9, 35, 0
4, 41344, Note_on_c, 9, 69, 48
4, 41361, Note_on_c, 9, 69, 0
4, 41404, Note_on_c, 9, 40, 68
4, 41404, Note_on_c, 9, 37, 72
4, 41404, Note_on_c, 9, 69, 62
4, 41406, Note_on_c, 9, 42, 74
4, 41425, Note_on_c, 9, 69, 0
4, 41435, Note_on_c, 9, 37, 0
4, 41436, Note_on_c, 9, 42, 0
4, 41437, Note_on_c, 9, 40, 0
4, 41458, Note_on_c, 9, 51, 115
4, 41464, Note_on_c, 9, 69, 48
4, 41464, Note_on_c, 9, 35, 60
4, 41481, Note_on_c, 9, 69, 0
4, 41487, Note_on_c, 9, 35, 0
4, 41490, Note_on_c, 9, 51, 0
4, 41523, Note_on_c, 9, 51, 86
4, 41524, Note_on_c, 9, 35, 49
4, 41524, Note_on_c, 9, 69, 42
4, 41546, Note_on_c, 9, 69, 0
4, 41548, Note_on_c, 9, 35, 0
4, 41570, Note_on_c, 9, 51, 0
4, 41584, Note_on_c, 9, 35, 60
4, 41584, Note_on_c, 9, 37, 72
4, 41584, Note_on_c, 9, 69, 45
4, 41584, Note_on_c, 9, 40, 59
4, 41602, Note_on_c, 9, 69, 0
4, 41611, Note_on_c, 9, 37, 0
4, 41612, Note_on_c, 9, 35, 0
4, 41616, Note_on_c, 9, 40, 0
4, 41644, Note_on_c, 9, 69, 62
4, 41646, Note_on_c, 9, 42, 79
4, 41667, Note_on_c, 9, 69, 0
4, 41674, Note_on_c, 9, 42, 0
4, 41704, Note_on_c, 9, 35, 50
4, 41704, Note_on_c, 9, 69, 47
4, 41709, Note_on_c, 9, 51, 65
4, 41722, Note_on_c, 9, 69, 0
4, 41726, Note_on_c, 9, 51, 0
4, 41729, Note_on_c, 9, 35, 0
4, 41764, Note_on_c, 9, 37, 72
4, 41764, Note_on_c, 9, 35, 50
4, 41764, Note_on_c, 9, 69, 47
4, 41774, Note_on_c, 9, 51, 86
4, 41785, Note_on_c, 9, 69, 0
4, 41793, Note_on_c, 9, 37, 0
4, 41793, Note_on_c, 9, 35, 0
4, 41812, Note_on_c, 9, 51, 0
4, 41824, Note_on_c, 9, 69, 42
4, 41840, Note_on_c, 9, 69, 0
4, 41871, Note_on_c, 9, 51, 96
4, 41884, Note_on_c, 9, 40, 53
4, 41884, Note_on_c, 9, 69, 62
4, 41886, Note_on_c, 9, 42, 77
4, 41906, Note_on_c, 9, 69, 0
4, 41911, Note_on_c, 9, 42, 0
4, 41916, Note_on_c, 9, 40, 0
4, 41922, Note_on_c, 9, 51, 0
4, 41944, Note_on_c, 9, 35, 49
4, 41944, Note_on_c, 9, 69, 50
4, 41944, Note_on_c, 9, 37, 72
4, 41960, Note_on_c, 9, 69, 0
4, 41971, Note_on_c, 9, 35, 0
4, 41973, Note_on_c, 9, 37, 0
4, 42004, Note_on_c, 9, 69, 41
4, 42004, Note_on_c, 9, 35, 53
4, 42025, Note_on_c, 9, 69, 0
4, 42035, Note_on_c, 9, 35, 0
4, 42060, Note_on_c, 9, 51, 86
4, 42064, Note_on_c, 9, 69, 47
4, 42064, Note_on_c, 9, 40, 61
4, 42083, Note_on_c, 9, 69, 0
4, 42095, Note_on_c, 9, 40, 0
4, 42109, Note_on_c, 9, 51, 0
4, 42124, Note_on_c, 9, 37, 70
4, 42124, Note_on_c, 9, 69, 62
4, 42126, Note_on_c, 9, 42, 79
4, 42147, Note_on_c, 9, 69, 0
4, 42152, Note_on_c, 9, 37, 0
4, 42153, Note_on_c, 9, 42, 0
4, 42179, Note_on_c, 9, 51, 96
4, 42184, Note_on_c, 9, 35, 57
4, 42184, Note_on_c, 9, 69, 48
4, 42202, Note_on_c, 9, 69, 0
4, 42209, Note_on_c, 9, 35, 0
4, 42232, Note_on_c, 9, 51, 0
4, 42244, Note_on_c, 9, 69, 58
4, 42244, Note_on_c, 9, 35, 50
4, 42265, Note_on_c, 9, 69, 0
4, 42275, Note_on_c, 9, 35, 0
4, 42304, Note_on_c, 9, 69, 47
4, 42322, Note_on_c, 9, 69, 0
4, 42364, Note_on_c, 9, 69, 59
4, 42364, Note_on_c, 9, 40, 68
4, 42364, Note_on_c, 9, 37, 68
4, 42366, Note_on_c, 9, 42, 74
4, 42386, Note_on_c, 9, 69, 0
4, 42396, Note_on_c, 9, 42, 0
4, 42396, Note_on_c, 9, 37, 0
4, 42397, Note_on_c, 9, 40, 0
4, 42417, Note_on_c, 9, 51, 96
4, 42424, Note_on_c, 9, 69, 52
4, 42424, Note_on_c, 9, 35, 57
4, 42443, Note_on_c, 9, 69, 0
4, 42449, Note_on_c, 9, 35, 0
4, 42484, Note_on_c, 9, 35, 58
4, 42484, Note_on_c, 9, 69, 44
4, 42486, Note_on_c, 9, 51, 0
4, 42508, Note_on_c, 9, 69, 0
4, 42509, Note_on_c, 9, 35, 0
4, 42544, Note_on_c, 9, 35, 46
4, 42544, Note_on_c, 9, 69, 41
4, 42544, Note_on_c, 9, 40, 59
4, 42544, Note_on_c, 9, 37, 68
4, 42546, Note_on_c, 9, 51, 96
4, 42565, Note_on_c, 9, 69, 0
4, 42572, Note_on_c, 9, 37, 0
4, 42572, Note_on_c, 9, 35, 0
4, 42576, Note_on_c, 9, 40, 0
4, 42603, Note_on_c, 9, 51, 0
4, 42604, Note_on_c, 9, 69, 61
4, 42606, Note_on_c, 9, 42, 79
4, 42627, Note_on_c, 9, 69, 0
4, 42634, Note_on_c, 9, 42, 0
4, 42664, Note_on_c, 9, 35, 60
4, 42664, Note_on_c, 9, 69, 59
4, 42668, Note_on_c, 9, 51, 20
4, 42677, Note_on_c, 9, 51, 0
4, 42684, Note_on_c, 9, 69, 0
4, 42688, Note_on_c, 9, 35, 0
4, 42722, Note_on_c, 9, 51, 115
4, 42724, Note_on_c, 9, 69, 75
4, 42724, Note_on_c, 9, 37, 57
4, 42724, Note_on_c, 9, 35, 79
4, 42742, Note_on_c, 9, 69, 0
4, 42748, Note_on_c, 9, 35, 0
4, 42751, Note_on_c, 9, 37, 0
4, 42784, Note_on_c, 9, 69, 31
4, 42802, Note_on_c, 9, 69, 0
4, 42833, Note_on_c, 9, 51, 0
4, 42844, Note_on_c, 9, 69, 28
4, 42844, Note_on_c, 9, 40, 53
4, 42846, Note_on_c, 9, 42, 77
4, 42862, Note_on_c, 9, 69, 0
4, 42871, Note_on_c, 9, 42, 0
4, 42876, Note_on_c, 9, 40, 0
4, 42899, Note_on_c, 9, 51, 82
4, 42904, Note_on_c, 9, 37, 62
4, 42904, Note_on_c, 9, 69, 59
4, 42904, Note_on_c, 9, 35, 52
4, 42926, Note_on_c, 9, 69, 0
4, 42929, Note_on_c, 9, 37, 0
4, 42930, Note_on_c, 9, 35, 0
4, 42964, Note_on_c, 9, 35, 52
4, 42964, Note_on_c, 9, 69, 32
4, 42986, Note_on_c, 9, 51, 0
4, 42989, Note_on_c, 9, 69, 0
4, 43017, Note_on_c, 9, 51, 115
4, 43024, Note_on_c, 9, 69, 33
4, 43024, Note_on_c, 9, 40, 61
4, 43040, Note_on_c, 9, 69, 0
4, 43055, Note_on_c, 9, 40, 0
4, 43063, Note_on_c, 9, 35, 0
4, 43084, Note_on_c, 9, 37, 72
4, 43084, Note_on_c, 9, 69, 61
4, 43086, Note_on_c, 9, 42, 79
4, 43106, Note_on_c, 9, 37, 0
4, 43108, Note_on_c, 9, 51, 0
4, 43109, Note_on_c, 9, 69, 0
4, 43113, Note_on_c, 9, 42, 0
4, 43136, Note_on_c, 9, 51, 127
4, 43144, Note_on_c, 9, 69, 37
4, 43144, Note_on_c, 9, 35, 45
4, 43164, Note_on_c, 9, 69, 0
4, 43167, Note_on_c, 9, 35, 0
4, 43204, Note_on_c, 9, 69, 59
4, 43204, Note_on_c, 9, 35, 49
4, 43229, Note_on_c, 9, 69, 0
4, 43236, Note_on_c, 9, 51, 0
4, 43246, Note_on_c, 9, 35, 0
4, 43264, Note_on_c, 9, 69, 31
4, 43284, Note_on_c, 9, 69, 0
4, 43324, Note_on_c, 9, 37, 70
4, 43324, Note_on_c, 9, 40, 68
4, 43324, Note_on_c, 9, 69, 51
4, 43326, Note_on_c, 9, 42, 74
4, 43343, Note_on_c, 9, 69, 0
4, 43349, Note_on_c, 9, 37, 0
4, 43356, Note_on_c, 9, 42, 0
4, 43357, Note_on_c, 9, 40, 0
4, 43381, Note_on_c, 9, 51, 92
4, 43384, Note_on_c, 9, 35, 44
4, 43384, Note_on_c, 9, 69, 59
4, 43405, Note_on_c, 9, 69, 0
4, 43411, Note_on_c, 9, 35, 0
4, 43444, Note_on_c, 9, 69, 42
4, 43444, Note_on_c, 9, 35, 47
4, 43465, Note_on_c, 9, 69, 0
4, 43470, Note_on_c, 9, 51, 0
4, 43477, Note_on_c, 9, 35, 0
4, 43504, Note_on_c, 9, 35, 47
4, 43504, Note_on_c, 9, 37, 70
4, 43504, Note_on_c, 9, 40, 59
4, 43504, Note_on_c, 9, 69, 42
4, 43507, Note_on_c, 9, 51, 115
4, 43520, Note_on_c, 9, 69, 0
4, 43529, Note_on_c, 9, 37, 0
4, 43534, Note_on_c, 9, 35, 0
4, 43536, Note_on_c, 9, 40, 0
4, 43564, Note_on_c, 9, 69, 61
4, 43566, Note_on_c, 9, 42, 79
4, 43575, Note_on_c, 9, 51, 0
4, 43587, Note_on_c, 9, 69, 0
4, 43594, Note_on_c, 9, 42, 0
4, 43624, Note_on_c, 9, 69, 41
4, 43624, Note_on_c, 9, 35, 40
4, 43627, Note_on_c, 9, 51, 73
4, 43640, Note_on_c, 9, 69, 0
4, 43650, Note_on_c, 9, 51, 0
4, 43650, Note_on_c, 9, 35, 0
4, 43684, Note_on_c, 9, 69, 58
4, 43684, Note_on_c, 9, 35, 41
4, 43684, Note_on_c, 9, 37, 72
4, 43686, Note_on_c, 9, 51, 127
4, 43706, Note_on_c, 9, 69, 0
4, 43708, Note_on_c, 9, 37, 0
4, 43712, Note_on_c, 9, 35, 0
4, 43744, Note_on_c, 9, 69, 30
4, 43763, Note_on_c, 9, 69, 0
4, 43804, Note_on_c, 9, 69, 42
4, 43804, Note_on_c, 9, 40, 53
4, 43806, Note_on_c, 9, 42, 77
4, 43817, Note_on_c, 9, 51, 0
4, 43822, Note_on_c, 9, 69, 0
4, 43831, Note_on_c, 9, 42, 0
4, 43836, Note_on_c, 9, 40, 0
4, 43864, Note_on_c, 9, 35, 54
4, 43864, Note_on_c, 9, 37, 64
4, 43864, Note_on_c, 9, 69, 59
4, 43874, Note_on_c, 9, 51, 82
4, 43886, Note_on_c, 9, 69, 0
4, 43887, Note_on_c, 9, 35, 0
4, 43890, Note_on_c, 9, 37, 0
4, 43898, Note_on_c, 9, 51, 0
4, 43924, Note_on_c, 9, 69, 32
4, 43924, Note_on_c, 9, 35, 44
4, 43932, Note_on_c, 9, 51, 127
4, 43947, Note_on_c, 9, 69, 0
4, 43958, Note_on_c, 9, 35, 0
4, 43984, Note_on_c, 9, 69, 33
4, 43984, Note_on_c, 9, 40, 61
4, 43987, Note_on_c, 9, 51, 0
4, 44004, Note_on_c, 9, 69, 0
4, 44011, Note_on_c, 9, 51, 86
4, 44015, Note_on_c, 9, 40, 0
4, 44043, Note_on_c, 9, 51, 0
4, 44044, Note_on_c, 9, 69, 53
4, 44044, Note_on_c, 9, 37, 68
4, 44046, Note_on_c, 9, 42, 79
4, 44067, Note_on_c, 9, 69, 0
4, 44070, Note_on_c, 9, 37, 0
4, 44073, Note_on_c, 9, 42, 0
4, 44104, Note_on_c, 9, 35, 45
4, 44104, Note_on_c, 9, 69, 42
4, 44111, Note_on_c, 9, 51, 96
4, 44124, Note_on_c, 9, 69, 0
4, 44130, Note_on_c, 9, 35, 0
4, 44164, Note_on_c, 9, 69, 59
4, 44164, Note_on_c, 9, 35, 52
4, 44186, Note_on_c, 9, 51, 0
4, 44189, Note_on_c, 9, 69, 0
4, 44194, Note_on_c, 9, 35, 0
4, 44224, Note_on_c, 9, 69, 32
4, 44243, Note_on_c, 9, 69, 0
4, 44284, Note_on_c, 9, 69, 32
4, 44284, Note_on_c, 9, 40, 68
4, 44284, Note_on_c, 9, 37, 70
4, 44286, Note_on_c, 9, 42, 74
4, 44303, Note_on_c, 9, 69, 0
4, 44312, Note_on_c, 9, 37, 0
4, 44316, Note_on_c, 9, 42, 0
4, 44317, Note_on_c, 9, 40, 0
4, 44344, Note_on_c, 9, 69, 58
4, 44344, Note_on_c, 9, 35, 50
4, 44353, Note_on_c, 9, 51, 96
4, 44368, Note_on_c, 9, 35, 0
4, 44368, Note_on_c, 9, 69, 0
4, 44390, Note_on_c, 9, 51, 0
4, 44404, Note_on_c, 9, 35, 47
4, 44404, Note_on_c, 9, 69, 44
4, 44417, Note_on_c, 9, 51, 92
4, 44429, Note_on_c, 9, 69, 0
4, 44433, Note_on_c, 9, 35, 0
4, 44464, Note_on_c, 9, 35, 46
4, 44464, Note_on_c, 9, 40, 59
4, 44464, Note_on_c, 9, 69, 41
4, 44464, Note_on_c, 9, 37, 68
4, 44481, Note_on_c, 9, 51, 0
4, 44484, Note_on_c, 9, 69, 0
4, 44490, Note_on_c, 9, 37, 0
4, 44495, Note_on_c, 9, 35, 0
4, 44496, Note_on_c, 9, 40, 0
4, 44524, Note_on_c, 9, 69, 61
4, 44526, Note_on_c, 9, 42, 79
4, 44550, Note_on_c, 9, 69, 0
4, 44554, Note_on_c, 9, 42, 0
4, 44584, Note_on_c, 9, 35, 42
4, 44584, Note_on_c, 9, 69, 44
4, 44587, Note_on_c, 9, 51, 92
4, 44605, Note_on_c, 9, 69, 0
4, 44610, Note_on_c, 9, 35, 0
4, 44614, Note_on_c, 9, 51, 0
4, 44644, Note_on_c, 9, 69, 59
4, 44644, Note_on_c, 9, 37, 74
4, 44644, Note_on_c, 9, 35, 50
4, 44647, Note_on_c, 9, 51, 127
4, 44668, Note_on_c, 9, 69, 0
4, 44671, Note_on_c, 9, 35, 0
4, 44672, Note_on_c, 9, 37, 0
4, 44704, Note_on_c, 9, 69, 35
4, 44725, Note_on_c, 9, 69, 0
4, 44762, Note_on_c, 9, 51, 0
4, 44764, Note_on_c, 9, 69, 42
4, 44764, Note_on_c, 9, 40, 53
4, 44767, Note_on_c, 9, 42, 77
4, 44782, Note_on_c, 9, 69, 0
4, 44792, Note_on_c, 9, 42, 0
4, 44796, Note_on_c, 9, 40, 0
4, 44818, Note_on_c, 9, 51, 92
4, 44824, Note_on_c, 9, 69, 58
4, 44824, Note_on_c, 9, 35, 49
4, 44824, Note_on_c, 9, 37, 72
4, 44847, Note_on_c, 9, 35, 0
4, 44847, Note_on_c, 9, 69, 0
4, 44850, Note_on_c, 9, 51, 0
4, 44851, Note_on_c, 9, 37, 0
4, 44884, Note_on_c, 9, 35, 41
4, 44884, Note_on_c, 9, 69, 44
4, 44887, Note_on_c, 9, 51, 106
4, 44906, Note_on_c, 9, 69, 0
4, 44914, Note_on_c, 9, 35, 0
4, 44944, Note_on_c, 9, 69, 35
4, 44944, Note_on_c, 9, 40, 61
4, 44964, Note_on_c, 9, 69, 0
4, 44975, Note_on_c, 9, 40, 0
4, 45002, Note_on_c, 9, 51, 0
4, 45004, Note_on_c, 9, 37, 72
4, 45004, Note_on_c, 9, 69, 56
4, 45007, Note_on_c, 9, 42, 79
4, 45028, Note_on_c, 9, 69, 0
4, 45032, Note_on_c, 9, 37, 0
4, 45034, Note_on_c, 9, 42, 0
4, 45058, Note_on_c, 9, 51, 77
4, 45064, Note_on_c, 9, 35, 53
4, 45064, Note_on_c, 9, 69, 36
4, 45086, Note_on_c, 9, 69, 0
4, 45086, Note_on_c, 9, 35, 0
4, 45124, Note_on_c, 9, 35, 40
4, 45124, Note_on_c, 9, 69, 58
4, 45143, Note_on_c, 9, 51, 0
4, 45147, Note_on_c, 9, 69, 0
4, 45154, Note_on_c, 9, 35, 0
4, 45177, Note_on_c, 9, 51, 127
4, 45184, Note_on_c, 9, 69, 36
4, 45203, Note_on_c, 9, 69, 0
4, 45244, Note_on_c, 9, 69, 45
4, 45244, Note_on_c, 9, 37, 70
4, 45244, Note_on_c, 9, 40, 68
4, 45247, Note_on_c, 9, 42, 74
4, 45251, Note_on_c, 9, 51, 0
4, 45261, Note_on_c, 9, 69, 0
4, 45271, Note_on_c, 9, 37, 0
4, 45277, Note_on_c, 9, 40, 0
4, 45277, Note_on_c, 9, 42, 0
4, 45304, Note_on_c, 9, 69, 58
4, 45304, Note_on_c, 9, 35, 49
4, 45309, Note_on_c, 9, 49, 43
4, 45315, Note_on_c, 9, 51, 43
4, 45319, Note_on_c, 9, 49, 0
4, 45324, Note_on_c, 9, 69, 0
4, 45328, Note_on_c, 9, 51, 0
4, 45329, Note_on_c, 9, 35, 0
4, 45364, Note_on_c, 9, 69, 47
4, 45364, Note_on_c, 9, 35, 40
4, 45369, Note_on_c, 9, 51, 96
4, 45383, Note_on_c, 9, 69, 0
4, 45394, Note_on_c, 9, 35, 0
4, 45421, Note_on_c, 9, 51, 0
4, 45424, Note_on_c, 9, 40, 59
4, 45424, Note_on_c, 9, 69, 33
4, 45424, Note_on_c, 9, 37, 68
4, 45442, Note_on_c, 9, 69, 0
4, 45450, Note_on_c, 9, 37, 0
4, 45456, Note_on_c, 9, 40, 0
4, 45484, Note_on_c, 9, 69, 62
4, 45486, Note_on_c, 9, 51, 59
4, 45487, Note_on_c, 9, 42, 79
4, 45501, Note_on_c, 9, 51, 0
4, 45507, Note_on_c, 9, 69, 0
4, 45515, Note_on_c, 9, 42, 0
4, 45542, Note_on_c, 9, 51, 92
4, 45544, Note_on_c, 9, 69, 45
4, 45544, Note_on_c, 9, 35, 50
4, 45565, Note_on_c, 9, 69, 0
4, 45565, Note_on_c, 9, 51, 0
4, 45569, Note_on_c, 9, 35, 0
4, 45599, Note_on_c, 9, 51, 92
4, 45604, Note_on_c, 9, 37, 70
4, 45604, Note_on_c, 9, 69, 47
4, 45604, Note_on_c, 9, 35, 50
4, 45629, Note_on_c, 9, 69, 0
4, 45631, Note_on_c, 9, 37, 0
4, 45632, Note_on_c, 9, 35, 0
4, 45664, Note_on_c, 9, 69, 31
4, 45684, Note_on_c, 9, 69, 0
4, 45715, Note_on_c, 9, 51, 0
4, 45724, Note_on_c, 9, 40, 53
4, 45724, Note_on_c, 9, 69, 42
4, 45727, Note_on_c, 9, 42, 77
4, 45744, Note_on_c, 9, 69, 0
4, 45752, Note_on_c, 9, 42, 0
4, 45756, Note_on_c, 9, 40, 0
4, 45780, Note_on_c, 9, 51, 82
4, 45784, Note_on_c, 9, 69, 61
4, 45784, Note_on_c, 9, 37, 72
4, 45784, Note_on_c, 9, 35, 50
4, 45805, Note_on_c, 9, 35, 0
4, 45807, Note_on_c, 9, 51, 0
4, 45808, Note_on_c, 9, 69, 0
4, 45810, Note_on_c, 9, 37, 0
4, 45844, Note_on_c, 9, 35, 56
4, 45844, Note_on_c, 9, 69, 35
4, 45852, Note_on_c, 9, 51, 73
4, 45867, Note_on_c, 9, 69, 0
4, 45874, Note_on_c, 9, 35, 0
4, 45904, Note_on_c, 9, 40, 61
4, 45904, Note_on_c, 9, 69, 36
4, 45918, Note_on_c, 9, 51, 0
4, 45922, Note_on_c, 9, 69, 0
4, 45935, Note_on_c, 9, 40, 0
4, 45964, Note_on_c, 9, 37, 68
4, 45964, Note_on_c, 9, 69, 58
4, 45967, Note_on_c, 9, 42, 79
4, 45989, Note_on_c, 9, 69, 0
4, 45994, Note_on_c, 9, 42, 0
4, 45994, Note_on_c, 9, 37, 0
4, 46024, Note_on_c, 9, 69, 37
4, 46024, Note_on_c, 9, 35, 56
4, 46026, Note_on_c, 9, 51, 106
4, 46043, Note_on_c, 9, 69, 0
4, 46051, Note_on_c, 9, 35, 0
4, 46084, Note_on_c, 9, 69, 56
4, 46107, Note_on_c, 9, 69, 0
4, 46144, Note_on_c, 9, 35, 54
4, 46144, Note_on_c, 9, 69, 40
4, 46166, Note_on_c, 9, 69, 0
4, 46172, Note_on_c, 9, 35, 0
4, 46174, Note_on_c, 9, 51, 0
4, 46204, Note_on_c, 9, 40, 68
4, 46204, Note_on_c, 9, 37, 72
4, 46204, Note_on_c, 9, 69, 44
4, 46207, Note_on_c, 9, 42, 74
4, 46223, Note_on_c, 9, 69, 0
4, 46232, Note_on_c, 9, 37, 0
4, 46237, Note_on_c, 9, 40, 0
4, 46237, Note_on_c, 9, 42, 0
4, 46253, Note_on_c, 9, 51, 106
4, 46264, Note_on_c, 9, 69, 59
4, 46264, Note_on_c, 9, 35, 46
4, 46287, Note_on_c, 9, 69, 0
4, 46290, Note_on_c, 9, 35, 0
4, 46324, Note_on_c, 9, 69, 33
4, 46330, Note_on_c, 9, 51, 0
4, 46350, Note_on_c, 9, 69, 0
4, 46373, Note_on_c, 9, 51, 96
4, 46384, Note_on_c, 9, 40, 59
4, 46384, Note_on_c, 9, 69, 32
4, 46384, Note_on_c, 9, 37, 72
4, 46384, Note_on_c, 9, 35, 50
4, 46404, Note_on_c, 9, 69, 0
4, 46411, Note_on_c, 9, 35, 0
4, 46413, Note_on_c, 9, 37, 0
4, 46416, Note_on_c, 9, 40, 0
4, 46444, Note_on_c, 9, 69, 59
4, 46447, Note_on_c, 9, 42, 79
4, 46459, Note_on_c, 9, 51, 0
4, 46467, Note_on_c, 9, 69, 0
4, 46475, Note_on_c, 9, 42, 0
4, 46504, Note_on_c, 9, 51, 62
4, 46504, Note_on_c, 9, 35, 54
4, 46504, Note_on_c, 9, 69, 44
4, 46522, Note_on_c, 9, 69, 0
4, 46528, Note_on_c, 9, 35, 0
4, 46529, Note_on_c, 9, 51, 0
4, 46560, Note_on_c, 9, 51, 73
4, 46560, Note_on_c, 9, 49, 73
4, 46564, Note_on_c, 9, 37, 72
4, 46564, Note_on_c, 9, 69, 61
4, 46564, Note_on_c, 9, 35, 57
4, 46564, Note_on_c, 9, 42, 73
4, 46582, Note_on_c, 9, 69, 0
4, 46583, Note_on_c, 9, 42, 0
4, 46591, Note_on_c, 9, 37, 0
4, 46591, Note_on_c, 9, 35, 0
4, 46610, Note_on_c, 9, 49, 0
4, 46611, Note_on_c, 9, 51, 0
4, 46624, Note_on_c, 9, 69, 32
4, 46642, Note_on_c, 9, 69, 0
4, 46684, Note_on_c, 9, 40, 53
4, 46684, Note_on_c, 9, 42, 77
4, 46684, Note_on_c, 9, 69, 62
4, 46687, Note_on_c, 9, 42, 77
4, 46688, Note_on_c, 9, 51, 77
4, 46702, Note_on_c, 9, 69, 0
4, 46709, Note_on_c, 9, 42, 0
4, 46712, Note_on_c, 9, 42, 0
4, 46715, Note_on_c, 9, 51, 0
4, 46716, Note_on_c, 9, 40, 0
4, 46744, Note_on_c, 9, 35, 63
4, 46744, Note_on_c, 9, 37, 72
4, 46744, Note_on_c, 9, 69, 53
4, 46761, Note_on_c, 9, 69, 0
4, 46768, Note_on_c, 9, 35, 0
4, 46769, Note_on_c, 9, 37, 0
4, 46804, Note_on_c, 9, 35, 52
4, 46804, Note_on_c, 9, 69, 33
4, 46827, Note_on_c, 9, 69, 0
4, 46833, Note_on_c, 9, 35, 0
4, 46860, Note_on_c, 9, 51, 96
4, 46864, Note_on_c, 9, 40, 61
4, 46864, Note_on_c, 9, 69, 32
4, 46880, Note_on_c, 9, 69, 0
4, 46895, Note_on_c, 9, 40, 0
4, 46907, Note_on_c, 9, 51, 0
4, 46924, Note_on_c, 9, 37, 72
4, 46924, Note_on_c, 9, 69, 62
4, 46924, Note_on_c, 9, 42, 79
4, 46927, Note_on_c, 9, 42, 79
4, 46946, Note_on_c, 9, 37, 0
4, 46948, Note_on_c, 9, 69, 0
4, 46951, Note_on_c, 9, 42, 0
4, 46954, Note_on_c, 9, 42, 0
4, 46984, Note_on_c, 9, 69, 44
4, 46984, Note_on_c, 9, 35, 61
4, 46984, Note_on_c, 9, 51, 96
4, 47002, Note_on_c, 9, 69, 0
4, 47007, Note_on_c, 9, 35, 0
4, 47044, Note_on_c, 9, 35, 52
4, 47044, Note_on_c, 9, 69, 48
4, 47062, Note_on_c, 9, 69, 0
4, 47078, Note_on_c, 9, 35, 0
4, 47078, Note_on_c, 9, 51, 0
4, 47104, Note_on_c, 9, 69, 44
4, 47121, Note_on_c, 9, 69, 0
4, 47164, Note_on_c, 9, 42, 74
4, 47164, Note_on_c, 9, 69, 61
4, 47164, Note_on_c, 9, 37, 72
4, 47164, Note_on_c, 9, 40, 68
4, 47167, Note_on_c, 9, 42, 74
4, 47183, Note_on_c, 9, 69, 0
4, 47189, Note_on_c, 9, 37, 0
4, 47194, Note_on_c, 9, 42, 0
4, 47197, Note_on_c, 9, 42, 0
4, 47197, Note_on_c, 9, 40, 0
4, 47217, Note_on_c, 9, 51, 96
4, 47224, Note_on_c, 9, 69, 35
4, 47224, Note_on_c, 9, 35, 58
4, 47244, Note_on_c, 9, 69, 0
4, 47248, Note_on_c, 9, 35, 0
4, 47284, Note_on_c, 9, 69, 33
4, 47284, Note_on_c, 9, 35, 52
4, 47305, Note_on_c, 9, 69, 0
4, 47312, Note_on_c, 9, 35, 0
4, 47320, Note_on_c, 9, 51, 0
4, 47344, Note_on_c, 9, 69, 33
4, 47344, Note_on_c, 9, 40, 59
4, 47344, Note_on_c, 9, 37, 77
4, 47344, Note_on_c, 9, 51, 86
4, 47344, Note_on_c, 9, 35, 53
4, 47360, Note_on_c, 9, 69, 0
4, 47369, Note_on_c, 9, 37, 0
4, 47373, Note_on_c, 9, 35, 0
4, 47376, Note_on_c, 9, 40, 0
4, 47399, Note_on_c, 9, 51, 0
4, 47404, Note_on_c, 9, 69, 62
4, 47404, Note_on_c, 9, 42, 79
4, 47407, Note_on_c, 9, 42, 79
4, 47426, Note_on_c, 9, 69, 0
4, 47432, Note_on_c, 9, 42, 0
4, 47435, Note_on_c, 9, 42, 0
4, 47459, Note_on_c, 9, 51, 53
4, 47464, Note_on_c, 9, 35, 58
4, 47464, Note_on_c, 9, 69, 48
4, 47480, Note_on_c, 9, 69, 0
4, 47482, Note_on_c, 9, 51, 0
4, 47490, Note_on_c, 9, 35, 0
4, 47524, Note_on_c, 9, 35, 53
4, 47524, Note_on_c, 9, 69, 42
4, 47524, Note_on_c, 9, 37, 72
4, 47525, Note_on_c, 9, 51, 106
4, 47542, Note_on_c, 9, 69, 0
4, 47548, Note_on_c, 9, 37, 0
4, 47552, Note_on_c, 9, 35, 0
4, 47584, Note_on_c, 9, 69, 40
4, 47601, Note_on_c, 9, 69, 0
4, 47644, Note_on_c, 9, 69, 59
4, 47644, Note_on_c, 9, 42, 77
4, 47644, Note_on_c, 9, 40, 53
4, 47647, Note_on_c, 9, 42, 77
4, 47652, Note_on_c, 9, 51, 0
4, 47662, Note_on_c, 9, 69, 0
4, 47669, Note_on_c, 9, 42, 0
4, 47672, Note_on_c, 9, 42, 0
4, 47676, Note_on_c, 9, 40, 0
4, 47703, Note_on_c, 9, 51, 82
4, 47704, Note_on_c, 9, 35, 57
4, 47704, Note_on_c, 9, 37, 70
4, 47704, Note_on_c, 9, 69, 47
4, 47724, Note_on_c, 9, 51, 0
4, 47725, Note_on_c, 9, 69, 0
4, 47727, Note_on_c, 9, 35, 0
4, 47730, Note_on_c, 9, 37, 0
4, 47760, Note_on_c, 9, 51, 92
4, 47764, Note_on_c, 9, 69, 42
4, 47764, Note_on_c, 9, 35, 42
4, 47787, Note_on_c, 9, 69, 0
4, 47793, Note_on_c, 9, 35, 0
4, 47824, Note_on_c, 9, 69, 32
4, 47824, Note_on_c, 9, 40, 61
4, 47843, Note_on_c, 9, 69, 0
4, 47855, Note_on_c, 9, 40, 0
4, 47884, Note_on_c, 9, 37, 72
4, 47884, Note_on_c, 9, 42, 79
4, 47884, Note_on_c, 9, 69, 59
4, 47887, Note_on_c, 9, 42, 79
4, 47907, Note_on_c, 9, 69, 0
4, 47910, Note_on_c, 9, 37, 0
4, 47911, Note_on_c, 9, 51, 0
4, 47911, Note_on_c, 9, 42, 0
4, 47914, Note_on_c, 9, 42, 0
4, 47944, Note_on_c, 9, 35, 63
4, 47944, Note_on_c, 9, 69, 45
4, 47948, Note_on_c, 9, 51, 92
4, 47963, Note_on_c, 9, 69, 0
4, 47970, Note_on_c, 9, 35, 0
4, 47971, Note_on_c, 9, 51, 0
4, 48004, Note_on_c, 9, 69, 48
4, 48004, Note_on_c, 9, 35, 42
4, 48008, Note_on_c, 9, 51, 92
4, 48024, Note_on_c, 9, 69, 0
4, 48034, Note_on_c, 9, 35, 0
4, 48064, Note_on_c, 9, 69, 40
4, 48064, Note_on_c, 9, 69, 40
4, 48064, Note_on_c, 9, 69, 40
4, 48064, Note_on_c, 9, 69, 40
4, 48064, Note_on_c, 9, 69, 40
4, 48064, Note_on_c, 9, 69, 40
4, 48064, Note_on_c, 9, 69, 32
4, 48081, Note_on_c, 9, 69, 0
4, 48081, Note_on_c, 9, 69, 0
4, 48081, Note_on_c, 9, 69, 0
4, 48081, Note_on_c, 9, 69, 0
4, 48081, Note_on_c, 9, 69, 0
4, 48081, Note_on_c, 9, 69, 0
4, 48081, Note_on_c, 9, 69, 0
4, 48124, Note_on_c, 9, 40, 68
4, 48124, Note_on_c, 9, 37, 72
4, 48124, Note_on_c, 9, 42, 74
4, 48124, Note_on_c, 9, 69, 61
4, 48127, Note_on_c, 9, 42, 74
4, 48143, Note_on_c, 9, 69, 0
4, 48149, Note_on_c, 9, 51, 0
4, 48150, Note_on_c, 9, 37, 0
4, 48154, Note_on_c, 9, 42, 0
4, 48157, Note_on_c, 9, 42, 0
4, 48157, Note_on_c, 9, 40, 0
4, 48184, Note_on_c, 9, 69, 44
4, 48184, Note_on_c, 9, 35, 40
4, 48188, Note_on_c, 9, 51, 86
4, 48205, Note_on_c, 9, 69, 0
4, 48208, Note_on_c, 9, 35, 0
4, 48212, Note_on_c, 9, 51, 0
4, 48244, Note_on_c, 9, 35, 53
4, 48244, Note_on_c, 9, 69, 58
4, 48263, Note_on_c, 9, 69, 0
4, 48271, Note_on_c, 9, 35, 0
4, 48304, Note_on_c, 9, 69, 41
4, 48304, Note_on_c, 9, 40, 59
4, 48304, Note_on_c, 9, 35, 46
4, 48304, Note_on_c, 9, 37, 70
4, 48307, Note_on_c, 9, 51, 106
4, 48324, Note_on_c, 9, 69, 0
4, 48330, Note_on_c, 9, 37, 0
4, 48335, Note_on_c, 9, 35, 0
4, 48336, Note_on_c, 9, 40, 0
4, 48349, Note_on_c, 9, 51, 0
4, 48364, Note_on_c, 9, 69, 59
4, 48364, Note_on_c, 9, 42, 79
4, 48367, Note_on_c, 9, 42, 79
4, 48387, Note_on_c, 9, 69, 0
4, 48392, Note_on_c, 9, 42, 0
4, 48395, Note_on_c, 9, 42, 0
4, 48424, Note_on_c, 9, 69, 48
4, 48424, Note_on_c, 9, 35, 58
4, 48435, Note_on_c, 9, 51, 77
4, 48443, Note_on_c, 9, 69, 0
4, 48448, Note_on_c, 9, 51, 0
4, 48450, Note_on_c, 9, 35, 0
4, 48484, Note_on_c, 9, 35, 52
4, 48484, Note_on_c, 9, 69, 44
4, 48484, Note_on_c, 9, 37, 77
4, 48493, Note_on_c, 9, 51, 127
4, 48501, Note_on_c, 9, 69, 0
4, 48510, Note_on_c, 9, 35, 0
4, 48511, Note_on_c, 9, 37, 0
4, 48544, Note_on_c, 9, 69, 45
4, 48560, Note_on_c, 9, 69, 0
4, 48604, Note_on_c, 9, 40, 53
4, 48604, Note_on_c, 9, 69, 62
4, 48605, Note_on_c, 9, 42, 77
4, 48608, Note_on_c, 9, 42, 77
4, 48616, Note_on_c, 9, 51, 0
4, 48622, Note_on_c, 9, 69, 0
4, 48630, Note_on_c, 9, 42, 0
4, 48633, Note_on_c, 9, 42, 0
4, 48636, Note_on_c, 9, 40, 0
4, 48664, Note_on_c, 9, 37, 74
4, 48664, Note_on_c, 9, 69, 53
4, 48664, Note_on_c, 9, 35, 53
4, 48676, Note_on_c, 9, 51, 115
4, 48681, Note_on_c, 9, 69, 0
4, 48687, Note_on_c, 9, 35, 0
4, 48691, Note_on_c, 9, 37, 0
4, 48724, Note_on_c, 9, 69, 44
4, 48724, Note_on_c, 9, 35, 50
4, 48745, Note_on_c, 9, 69, 0
4, 48752, Note_on_c, 9, 35, 0
4, 48755, Note_on_c, 9, 51, 0
4, 48784, Note_on_c, 9, 40, 61
4, 48784, Note_on_c, 9, 69, 33
4, 48791, Note_on_c, 9, 51, 92
4, 48804, Note_on_c, 9, 69, 0
4, 48815, Note_on_c, 9, 40, 0
4, 48844, Note_on_c, 9, 69, 71
4, 48844, Note_on_c, 9, 37, 72
4, 48845, Note_on_c, 9, 42, 79
4, 48848, Note_on_c, 9, 42, 79
4, 48855, Note_on_c, 9, 51, 0
4, 48867, Note_on_c, 9, 69, 0
4, 48872, Note_on_c, 9, 42, 0
4, 48872, Note_on_c, 9, 37, 0
4, 48875, Note_on_c, 9, 42, 0
4, 48904, Note_on_c, 9, 35, 54
4, 48904, Note_on_c, 9, 69, 50
4, 48913, Note_on_c, 9, 51, 92
4, 48921, Note_on_c, 9, 69, 0
4, 48926, Note_on_c, 9, 35, 0
4, 48929, Note_on_c, 9, 51, 0
4, 48964, Note_on_c, 9, 69, 42
4, 48964, Note_on_c, 9, 35, 40
4, 48978, Note_on_c, 9, 51, 127
4, 48984, Note_on_c, 9, 69, 0
4, 48994, Note_on_c, 9, 35, 0
4, 49024, Note_on_c, 9, 69, 48
4, 49041, Note_on_c, 9, 69, 0
4, 49084, Note_on_c, 9, 40, 68
4, 49084, Note_on_c, 9, 37, 72
4, 49084, Note_on_c, 9, 69, 62
4, 49085, Note_on_c, 9, 42, 74
4, 49088, Note_on_c, 9, 42, 74
4, 49089, Note_on_c, 9, 51, 0
4, 49101, Note_on_c, 9, 69, 0
4, 49111, Note_on_c, 9, 37, 0
4, 49115, Note_on_c, 9, 42, 0
4, 49117, Note_on_c, 9, 40, 0
4, 49118, Note_on_c, 9, 42, 0
4, 49142, Note_on_c, 9, 51, 82
4, 49144, Note_on_c, 9, 69, 48
4, 49144, Note_on_c, 9, 35, 60
4, 49160, Note_on_c, 9, 51, 0
4, 49161, Note_on_c, 9, 69, 0
4, 49167, Note_on_c, 9, 35, 0
4, 49204, Note_on_c, 9, 35, 49
4, 49204, Note_on_c, 9, 69, 42
4, 49223, Note_on_c, 9, 69, 0
4, 49228, Note_on_c, 9, 35, 0
4, 49264, Note_on_c, 9, 37, 72
4, 49264, Note_on_c, 9, 40, 59
4, 49264, Note_on_c, 9, 69, 45
4, 49264, Note_on_c, 9, 51, 115
4, 49264, Note_on_c, 9, 35, 60
4, 49282, Note_on_c, 9, 69, 0
4, 49290, Note_on_c, 9, 37, 0
4, 49292, Note_on_c, 9, 35, 0
4, 49296, Note_on_c, 9, 40, 0
4, 49321, Note_on_c, 9, 51, 0
4, 49324, Note_on_c, 9, 69, 62
4, 49325, Note_on_c, 9, 42, 79
4, 49328, Note_on_c, 9, 42, 79
4, 49347, Note_on_c, 9, 69, 0
4, 49353, Note_on_c, 9, 42, 0
4, 49356, Note_on_c, 9, 42, 0
4, 49384, Note_on_c, 9, 35, 50
4, 49384, Note_on_c, 9, 69, 47
4, 49390, Note_on_c, 9, 51, 62
4, 49401, Note_on_c, 9, 51, 0
4, 49402, Note_on_c, 9, 69, 0
4, 49409, Note_on_c, 9, 35, 0
4, 49444, Note_on_c, 9, 69, 47
4, 49444, Note_on_c, 9, 37, 72
4, 49444, Note_on_c, 9, 35, 50
4, 49447, Note_on_c, 9, 51, 106
4, 49450, Note_on_c, 9, 49, 35
4, 49465, Note_on_c, 9, 69, 0
4, 49471, Note_on_c, 9, 37, 0
4, 49472, Note_on_c, 9, 35, 0
4, 49504, Note_on_c, 9, 69, 42
4, 49520, Note_on_c, 9, 69, 0
4, 49534, Note_on_c, 9, 49, 0
4, 49555, Note_on_c, 9, 51, 0
4, 49564, Note_on_c, 9, 40, 53
4, 49564, Note_on_c, 9, 69, 62
4, 49565, Note_on_c, 9, 42, 77
4, 49568, Note_on_c, 9, 42, 77
4, 49584, Note_on_c, 9, 69, 0
4, 49590, Note_on_c, 9, 42, 0
4, 49593, Note_on_c, 9, 42, 0
4, 49596, Note_on_c, 9, 40, 0
4, 49616, Note_on_c, 9, 51, 106
4, 49624, Note_on_c, 9, 37, 72
4, 49624, Note_on_c, 9, 69, 50
4, 49624, Note_on_c, 9, 35, 49
4, 49637, Note_on_c, 9, 51, 0
4, 49640, Note_on_c, 9, 69, 0
4, 49645, Note_on_c, 9, 35, 0
4, 49650, Note_on_c, 9, 37, 0
4, 49684, Note_on_c, 9, 69, 41
4, 49684, Note_on_c, 9, 35, 53
4, 49705, Note_on_c, 9, 69, 0
4, 49705, Note_on_c, 9, 51, 127
4, 49714, Note_on_c, 9, 35, 0
4, 49744, Note_on_c, 9, 69, 47
4, 49744, Note_on_c, 9, 40, 61
4, 49762, Note_on_c, 9, 69, 0
4, 49775, Note_on_c, 9, 40, 0
4, 49801, Note_on_c, 9, 51, 0
4, 49804, Note_on_c, 9, 37, 70
4, 49804, Note_on_c, 9, 69, 62
4, 49805, Note_on_c, 9, 42, 79
4, 49808, Note_on_c, 9, 42, 79
4, 49827, Note_on_c, 9, 69, 0
4, 49832, Note_on_c, 9, 37, 0
4, 49832, Note_on_c, 9, 42, 0
4, 49835, Note_on_c, 9, 42, 0
4, 49857, Note_on_c, 9, 51, 106
4, 49864, Note_on_c, 9, 35, 57
4, 49864, Note_on_c, 9, 69, 48
4, 49882, Note_on_c, 9, 69, 0
4, 49889, Note_on_c, 9, 35, 0
4, 49924, Note_on_c, 9, 69, 58
4, 49924, Note_on_c, 9, 35, 50
4, 49936, Note_on_c, 9, 51, 0
4, 49945, Note_on_c, 9, 69, 0
4, 49955, Note_on_c, 9, 35, 0
4, 49984, Note_on_c, 9, 35, 54
4, 49984, Note_on_c, 9, 51, 92
4, 49984, Note_on_c, 9, 69, 47
4, 50002, Note_on_c, 9, 69, 0
4, 50012, Note_on_c, 9, 35, 0
4, 50038, Note_on_c, 9, 51, 0
4, 50044, Note_on_c, 9, 69, 59
4, 50044, Note_on_c, 9, 40, 68
4, 50044, Note_on_c, 9, 37, 68
4, 50045, Note_on_c, 9, 42, 74
4, 50048, Note_on_c, 9, 42, 74
4, 50063, Note_on_c, 9, 69, 0
4, 50072, Note_on_c, 9, 37, 0
4, 50075, Note_on_c, 9, 42, 0
4, 50077, Note_on_c, 9, 40, 0
4, 50078, Note_on_c, 9, 42, 0
4, 50099, Note_on_c, 9, 51, 73
4, 50104, Note_on_c, 9, 35, 57
4, 50104, Note_on_c, 9, 69, 52
4, 50112, Note_on_c, 9, 51, 0
4, 50123, Note_on_c, 9, 69, 0
4, 50129, Note_on_c, 9, 35, 0
4, 50164, Note_on_c, 9, 69, 44
4, 50164, Note_on_c, 9, 51, 127
4, 50164, Note_on_c, 9, 35, 58
4, 50186, Note_on_c, 9, 51, 0
4, 50188, Note_on_c, 9, 69, 0
4, 50189, Note_on_c, 9, 35, 0
4, 50224, Note_on_c, 9, 35, 46
4, 50224, Note_on_c, 9, 37, 68
4, 50224, Note_on_c, 9, 40, 59
4, 50224, Note_on_c, 9, 69, 41
4, 50230, Note_on_c, 9, 51, 62
4, 50243, Note_on_c, 9, 51, 0
4, 50244, Note_on_c, 9, 69, 0
4, 50251, Note_on_c, 9, 35, 0
4, 50252, Note_on_c, 9, 37, 0
4, 50256, Note_on_c, 9, 40, 0
4, 50284, Note_on_c, 9, 69, 61
4, 50285, Note_on_c, 9, 42, 79
4, 50288, Note_on_c, 9, 42, 79
4, 50291, Note_on_c, 9, 51, 127
4, 50307, Note_on_c, 9, 69, 0
4, 50313, Note_on_c, 9, 42, 0
4, 50314, Note_on_c, 9, 51, 0
4, 50316, Note_on_c, 9, 42, 0
4, 50340, Note_on_c, 9, 49, 44
4, 50344, Note_on_c, 9, 69, 59
4, 50344, Note_on_c, 9, 35, 60
4, 50358, Note_on_c, 9, 51, 65
4, 50362, Note_on_c, 9, 69, 0
4, 50368, Note_on_c, 9, 51, 0
4, 50368, Note_on_c, 9, 35, 0
4, 50404, Note_on_c, 9, 42, 73
4, 50404, Note_on_c, 9, 69, 58
4, 50404, Note_on_c, 9, 37, 72
4, 50404, Note_on_c, 9, 35, 41
4, 50405, Note_on_c, 9, 49, 36
4, 50410, Note_on_c, 9, 51, 127
4, 50422, Note_on_c, 9, 69, 0
4, 50423, Note_on_c, 9, 42, 0
4, 50428, Note_on_c, 9, 37, 0
4, 50431, Note_on_c, 9, 35, 0
4, 50464, Note_on_c, 9, 69, 30
4, 50482, Note_on_c, 9, 69, 0
4, 50524, Note_on_c, 9, 40, 53
4, 50524, Note_on_c, 9, 42, 77
4, 50524, Note_on_c, 9, 69, 42
4, 50533, Note_on_c, 9, 51, 0
4, 50542, Note_on_c, 9, 69, 0
4, 50549, Note_on_c, 9, 42, 0
4, 50556, Note_on_c, 9, 40, 0
4, 50583, Note_on_c, 9, 51, 65
4, 50584, Note_on_c, 9, 69, 59
4, 50584, Note_on_c, 9, 35, 54
4, 50584, Note_on_c, 9, 37, 64
4, 50600, Note_on_c, 9, 51, 0
4, 50606, Note_on_c, 9, 69, 0
4, 50607, Note_on_c, 9, 35, 0
4, 50609, Note_on_c, 9, 37, 0
4, 50644, Note_on_c, 9, 35, 44
4, 50644, Note_on_c, 9, 69, 32
4, 50667, Note_on_c, 9, 69, 0
4, 50678, Note_on_c, 9, 35, 0
4, 50704, Note_on_c, 9, 69, 33
4, 50704, Note_on_c, 9, 40, 61
4, 50707, Note_on_c, 9, 51, 115
4, 50720, Note_on_c, 9, 69, 0
4, 50735, Note_on_c, 9, 40, 0
4, 50758, Note_on_c, 9, 51, 0
4, 50764, Note_on_c, 9, 69, 53
4, 50764, Note_on_c, 9, 37, 68
4, 50764, Note_on_c, 9, 42, 79
4, 50786, Note_on_c, 9, 37, 0
4, 50787, Note_on_c, 9, 69, 0
4, 50791, Note_on_c, 9, 42, 0
4, 50811, Note_on_c, 9, 49, 0
4, 50824, Note_on_c, 9, 35, 45
4, 50824, Note_on_c, 9, 69, 42
4, 50833, Note_on_c, 9, 51, 77
4, 50844, Note_on_c, 9, 69, 0
4, 50847, Note_on_c, 9, 35, 0
4, 50850, Note_on_c, 9, 51, 0
4, 50884, Note_on_c, 9, 35, 52
4, 50884, Note_on_c, 9, 51, 86
4, 50884, Note_on_c, 9, 69, 59
4, 50909, Note_on_c, 9, 69, 0
4, 50914, Note_on_c, 9, 35, 0
4, 50944, Note_on_c, 9, 69, 32
4, 50963, Note_on_c, 9, 69, 0
4, 50973, Note_on_c, 9, 49, 0
4, 51004, Note_on_c, 9, 37, 70
4, 51004, Note_on_c, 9, 42, 74
4, 51004, Note_on_c, 9, 40, 68
4, 51004, Note_on_c, 9, 69, 32
4, 51005, Note_on_c, 9, 51, 0
4, 51023, Note_on_c, 9, 69, 0
4, 51029, Note_on_c, 9, 37, 0
4, 51034, Note_on_c, 9, 42, 0
4, 51037, Note_on_c, 9, 40, 0
4, 51064, Note_on_c, 9, 69, 58
4, 51064, Note_on_c, 9, 35, 50
4, 51071, Note_on_c, 9, 51, 82
4, 51085, Note_on_c, 9, 69, 0
4, 51088, Note_on_c, 9, 35, 0
4, 51098, Note_on_c, 9, 51, 0
4, 51124, Note_on_c, 9, 69, 44
4, 51124, Note_on_c, 9, 35, 47
4, 51145, Note_on_c, 9, 69, 0
4, 51153, Note_on_c, 9, 35, 0
4, 51184, Note_on_c, 9, 69, 41
4, 51184, Note_on_c, 9, 35, 46
4, 51184, Note_on_c, 9, 40, 59
4, 51184, Note_on_c, 9, 37, 68
4, 51188, Note_on_c, 9, 51, 92
4, 51200, Note_on_c, 9, 69, 0
4, 51209, Note_on_c, 9, 37, 0
4, 51214, Note_on_c, 9, 35, 0
4, 51216, Note_on_c, 9, 40, 0
4, 51230, Note_on_c, 9, 51, 0
4, 51244, Note_on_c, 9, 42, 79
4, 51244, Note_on_c, 9, 69, 61
4, 51267, Note_on_c, 9, 69, 0
4, 51272, Note_on_c, 9, 42, 0
4, 51304, Note_on_c, 9, 35, 42
4, 51304, Note_on_c, 9, 69, 44
4, 51313, Note_on_c, 9, 51, 62
4, 51320, Note_on_c, 9, 69, 0
4, 51325, Note_on_c, 9, 51, 0
4, 51330, Note_on_c, 9, 35, 0
4, 51352, Note_on_c, 9, 49, 44
4, 51364, Note_on_c, 9, 35, 50
4, 51364, Note_on_c, 9, 37, 74
4, 51364, Note_on_c, 9, 69, 59
4, 51370, Note_on_c, 9, 51, 127
4, 51386, Note_on_c, 9, 69, 0
4, 51386, Note_on_c, 9, 49, 0
4, 51388, Note_on_c, 9, 37, 0
4, 51391, Note_on_c, 9, 35, 0
4, 51424, Note_on_c, 9, 69, 35
4, 51443, Note_on_c, 9, 69, 0
4, 51484, Note_on_c, 9, 42, 77
4, 51484, Note_on_c, 9, 69, 42
4, 51484, Note_on_c, 9, 40, 53
4, 51485, Note_on_c, 9, 42, 77
4, 51488, Note_on_c, 9, 51, 0
4, 51502, Note_on_c, 9, 69, 0
4, 51509, Note_on_c, 9, 42, 0
4, 51510, Note_on_c, 9, 42, 0
4, 51516, Note_on_c, 9, 40, 0
4, 51544, Note_on_c, 9, 35, 49
4, 51544, Note_on_c, 9, 37, 72
4, 51544, Note_on_c, 9, 69, 58
4, 51550, Note_on_c, 9, 51, 56
4, 51566, Note_on_c, 9, 69, 0
4, 51567, Note_on_c, 9, 35, 0
4, 51570, Note_on_c, 9, 37, 0
4, 51571, Note_on_c, 9, 51, 0
4, 51604, Note_on_c, 9, 35, 41
4, 51604, Note_on_c, 9, 69, 44
4, 51626, Note_on_c, 9, 69, 0
4, 51634, Note_on_c, 9, 35, 0
4, 51664, Note_on_c, 9, 69, 35
4, 51664, Note_on_c, 9, 40, 61
4, 51671, Note_on_c, 9, 51, 127
4, 51684, Note_on_c, 9, 69, 0
4, 51695, Note_on_c, 9, 40, 0
4, 51723, Note_on_c, 9, 51, 0
4, 51724, Note_on_c, 9, 69, 56
4, 51724, Note_on_c, 9, 42, 79
4, 51724, Note_on_c, 9, 37, 72
4, 51725, Note_on_c, 9, 42, 79
4, 51747, Note_on_c, 9, 69, 0
4, 51750, Note_on_c, 9, 37, 0
4, 51751, Note_on_c, 9, 42, 0
4, 51752, Note_on_c, 9, 42, 0
4, 51784, Note_on_c, 9, 69, 36
4, 51784, Note_on_c, 9, 35, 53
4, 51804, Note_on_c, 9, 69, 0
4, 51806, Note_on_c, 9, 35, 0
4, 51844, Note_on_c, 9, 69, 58
4, 51844, Note_on_c, 9, 35, 40
4, 51859, Note_on_c, 9, 51, 127
4, 51867, Note_on_c, 9, 69, 0
4, 51874, Note_on_c, 9, 35, 0
4, 51904, Note_on_c, 9, 69, 36
4, 51923, Note_on_c, 9, 69, 0
4, 51961, Note_on_c, 9, 51, 0
4, 51964, Note_on_c, 9, 40, 68
4, 51964, Note_on_c, 9, 69, 45
4, 51964, Note_on_c, 9, 37, 70
4, 51964, Note_on_c, 9, 42, 74
4, 51965, Note_on_c, 9, 42, 74
4, 51981, Note_on_c, 9, 69, 0
4, 51991, Note_on_c, 9, 37, 0
4, 51994, Note_on_c, 9, 42, 0
4, 51995, Note_on_c, 9, 42, 0
4, 51997, Note_on_c, 9, 40, 0
4, 52024, Note_on_c, 9, 35, 49
4, 52024, Note_on_c, 9, 69, 58
4, 52026, Note_on_c, 9, 51, 106
4, 52044, Note_on_c, 9, 69, 0
4, 52048, Note_on_c, 9, 35, 0
4, 52050, Note_on_c, 9, 51, 0
4, 52084, Note_on_c, 9, 35, 40
4, 52084, Note_on_c, 9, 69, 47
4, 52103, Note_on_c, 9, 69, 0
4, 52113, Note_on_c, 9, 35, 0
4, 52144, Note_on_c, 9, 35, 46
4, 52144, Note_on_c, 9, 69, 33
4, 52144, Note_on_c, 9, 37, 68
4, 52144, Note_on_c, 9, 40, 59
4, 52153, Note_on_c, 9, 51, 115
4, 52162, Note_on_c, 9, 69, 0
4, 52170, Note_on_c, 9, 37, 0
4, 52175, Note_on_c, 9, 35, 0
4, 52176, Note_on_c, 9, 40, 0
4, 52201, Note_on_c, 9, 51, 0
4, 52204, Note_on_c, 9, 69, 62
4, 52204, Note_on_c, 9, 42, 79
4, 52205, Note_on_c, 9, 42, 79
4, 52227, Note_on_c, 9, 69, 0
4, 52232, Note_on_c, 9, 42, 0
4, 52233, Note_on_c, 9, 42, 0
4, 52264, Note_on_c, 9, 35, 50
4, 52264, Note_on_c, 9, 69, 45
4, 52270, Note_on_c, 9, 51, 82
4, 52285, Note_on_c, 9, 69, 0
4, 52286, Note_on_c, 9, 51, 0
4, 52289, Note_on_c, 9, 35, 0
4, 52324, Note_on_c, 9, 35, 50
4, 52324, Note_on_c, 9, 69, 47
4, 52324, Note_on_c, 9, 37, 70
4, 52324, Note_on_c, 9, 49, 42
4, 52330, Note_on_c, 9, 51, 127
4, 52348, Note_on_c, 9, 69, 0
4, 52351, Note_on_c, 9, 35, 0
4, 52351, Note_on_c, 9, 37, 0
4, 52384, Note_on_c, 9, 69, 31
4, 52404, Note_on_c, 9, 69, 0
4, 52444, Note_on_c, 9, 40, 53
4, 52444, Note_on_c, 9, 69, 42
4, 52445, Note_on_c, 9, 42, 77
4, 52462, Note_on_c, 9, 69, 0
4, 52463, Note_on_c, 9, 51, 0
4, 52470, Note_on_c, 9, 42, 0
4, 52476, Note_on_c, 9, 40, 0
4, 52504, Note_on_c, 9, 37, 72
4, 52504, Note_on_c, 9, 69, 61
4, 52504, Note_on_c, 9, 35, 50
4, 52511, Note_on_c, 9, 51, 92
4, 52525, Note_on_c, 9, 35, 0
4, 52527, Note_on_c, 9, 69, 0
4, 52530, Note_on_c, 9, 37, 0
4, 52538, Note_on_c, 9, 51, 0
4, 52564, Note_on_c, 9, 69, 35
4, 52564, Note_on_c, 9, 35, 56
4, 52572, Note_on_c, 9, 51, 59
4, 52586, Note_on_c, 9, 51, 0
4, 52586, Note_on_c, 9, 69, 0
4, 52594, Note_on_c, 9, 35, 0
4, 52624, Note_on_c, 9, 40, 61
4, 52624, Note_on_c, 9, 69, 36
4, 52626, Note_on_c, 9, 51, 106
4, 52642, Note_on_c, 9, 69, 0
4, 52655, Note_on_c, 9, 40, 0
4, 52684, Note_on_c, 9, 37, 68
4, 52684, Note_on_c, 9, 69, 58
4, 52685, Note_on_c, 9, 42, 79
4, 52692, Note_on_c, 9, 51, 0
4, 52703, Note_on_c, 9, 49, 0
4, 52708, Note_on_c, 9, 69, 0
4, 52712, Note_on_c, 9, 37, 0
4, 52712, Note_on_c, 9, 42, 0
4, 52744, Note_on_c, 9, 35, 56
4, 52744, Note_on_c, 9, 69, 37
4, 52763, Note_on_c, 9, 69, 0
4, 52766, Note_on_c, 9, 35, 0
4, 52804, Note_on_c, 9, 69, 56
4, 52804, Note_on_c, 9, 35, 40
4, 52807, Note_on_c, 9, 51, 127
4, 52827, Note_on_c, 9, 69, 0
4, 52834, Note_on_c, 9, 35, 0
4, 52839, Note_on_c, 9, 51, 0
4, 52864, Note_on_c, 9, 35, 54
4, 52864, Note_on_c, 9, 69, 40
4, 52870, Note_on_c, 9, 51, 59
4, 52883, Note_on_c, 9, 69, 0
4, 52892, Note_on_c, 9, 35, 0
4, 52893, Note_on_c, 9, 51, 0
4, 52924, Note_on_c, 9, 40, 68
4, 52924, Note_on_c, 9, 37, 72
4, 52924, Note_on_c, 9, 69, 44
4, 52925, Note_on_c, 9, 42, 74
4, 52941, Note_on_c, 9, 69, 0
4, 52951, Note_on_c, 9, 37, 0
4, 52955, Note_on_c, 9, 42, 0
4, 52957, Note_on_c, 9, 40, 0
4, 52984, Note_on_c, 9, 69, 59
4, 52984, Note_on_c, 9, 35, 46
4, 52992, Note_on_c, 9, 51, 77
4, 53004, Note_on_c, 9, 69, 0
4, 53009, Note_on_c, 9, 35, 0
4, 53014, Note_on_c, 9, 51, 0
4, 53044, Note_on_c, 9, 35, 40
4, 53044, Note_on_c, 9, 69, 33
4, 53063, Note_on_c, 9, 69, 0
4, 53074, Note_on_c, 9, 35, 0
4, 53104, Note_on_c, 9, 35, 50
4, 53104, Note_on_c, 9, 40, 59
4, 53104, Note_on_c, 9, 37, 72
4, 53104, Note_on_c, 9, 69, 32
4, 53113, Note_on_c, 9, 51, 127
4, 53122, Note_on_c, 9, 69, 0
4, 53130, Note_on_c, 9, 37, 0
4, 53131, Note_on_c, 9, 35, 0
4, 53136, Note_on_c, 9, 40, 0
4, 53137, Note_on_c, 9, 51, 0
4, 53164, Note_on_c, 9, 69, 59
4, 53165, Note_on_c, 9, 42, 79
4, 53187, Note_on_c, 9, 69, 0
4, 53193, Note_on_c, 9, 42, 0
4, 53221, Note_on_c, 9, 51, 73
4, 53224, Note_on_c, 9, 35, 54
4, 53224, Note_on_c, 9, 69, 44
4, 53239, Note_on_c, 9, 51, 0
4, 53242, Note_on_c, 9, 69, 0
4, 53248, Note_on_c, 9, 35, 0
4, 53281, Note_on_c, 9, 51, 127
4, 53282, Note_on_c, 9, 49, 36
4, 53284, Note_on_c, 9, 35, 57
4, 53284, Note_on_c, 9, 37, 72
4, 53284, Note_on_c, 9, 69, 61
4, 53308, Note_on_c, 9, 69, 0
4, 53311, Note_on_c, 9, 35, 0
4, 53311, Note_on_c, 9, 37, 0
4, 53344, Note_on_c, 9, 69, 32
4, 53364, Note_on_c, 9, 69, 0
4, 53404, Note_on_c, 9, 40, 53
4, 53404, Note_on_c, 9, 69, 62
4, 53405, Note_on_c, 9, 42, 77
4, 53407, Note_on_c, 9, 51, 0
4, 53424, Note_on_c, 9, 69, 0
4, 53430, Note_on_c, 9, 42, 0
4, 53436, Note_on_c, 9, 40, 0
4, 53464, Note_on_c, 9, 35, 63
4, 53464, Note_on_c, 9, 37, 72
4, 53464, Note_on_c, 9, 69, 53
4, 53465, Note_on_c, 9, 51, 96
4, 53481, Note_on_c, 9, 69, 0
4, 53485, Note_on_c, 9, 35, 0
4, 53490, Note_on_c, 9, 37, 0
4, 53501, Note_on_c, 9, 51, 0
4, 53524, Note_on_c, 9, 69, 33
4, 53524, Note_on_c, 9, 35, 52
4, 53547, Note_on_c, 9, 69, 0
4, 53553, Note_on_c, 9, 35, 0
4, 53584, Note_on_c, 9, 69, 32
4, 53584, Note_on_c, 9, 51, 127
4, 53584, Note_on_c, 9, 40, 61
4, 53601, Note_on_c, 9, 69, 0
4, 53615, Note_on_c, 9, 40, 0
4, 53643, Note_on_c, 9, 51, 0
4, 53644, Note_on_c, 9, 37, 72
4, 53644, Note_on_c, 9, 69, 62
4, 53645, Note_on_c, 9, 42, 79
4, 53668, Note_on_c, 9, 69, 0
4, 53672, Note_on_c, 9, 42, 0
4, 53673, Note_on_c, 9, 37, 0
4, 53704, Note_on_c, 9, 69, 44
4, 53704, Note_on_c, 9, 35, 61
4, 53710, Note_on_c, 9, 49, 0
4, 53710, Note_on_c, 9, 51, 115
4, 53722, Note_on_c, 9, 69, 0
4, 53729, Note_on_c, 9, 35, 0
4, 53764, Note_on_c, 9, 35, 52
4, 53764, Note_on_c, 9, 69, 48
4, 53776, Note_on_c, 9, 51, 0
4, 53782, Note_on_c, 9, 69, 0
4, 53798, Note_on_c, 9, 35, 0
4, 53824, Note_on_c, 9, 35, 54
4, 53824, Note_on_c, 9, 69, 44
4, 53832, Note_on_c, 9, 51, 115
4, 53841, Note_on_c, 9, 69, 0
4, 53852, Note_on_c, 9, 35, 0
4, 53884, Note_on_c, 9, 69, 61
4, 53884, Note_on_c, 9, 37, 72
4, 53884, Note_on_c, 9, 40, 68
4, 53885, Note_on_c, 9, 42, 74
4, 53890, Note_on_c, 9, 51, 0
4, 53903, Note_on_c, 9, 69, 0
4, 53912, Note_on_c, 9, 37, 0
4, 53915, Note_on_c, 9, 42, 0
4, 53917, Note_on_c, 9, 40, 0
4, 53944, Note_on_c, 9, 69, 35
4, 53944, Note_on_c, 9, 35, 58
4, 53964, Note_on_c, 9, 69, 0
4, 53968, Note_on_c, 9, 35, 0
4, 54004, Note_on_c, 9, 69, 33
4, 54004, Note_on_c, 9, 35, 52
4, 54027, Note_on_c, 9, 69, 0
4, 54032, Note_on_c, 9, 35, 0
4, 54060, Note_on_c, 9, 51, 127
4, 54064, Note_on_c, 9, 40, 59
4, 54064, Note_on_c, 9, 69, 33
4, 54064, Note_on_c, 9, 37, 77
4, 54064, Note_on_c, 9, 35, 53
4, 54083, Note_on_c, 9, 69, 0
4, 54090, Note_on_c, 9, 37, 0
4, 54091, Note_on_c, 9, 35, 0
4, 54096, Note_on_c, 9, 40, 0
4, 54124, Note_on_c, 9, 69, 62
4, 54125, Note_on_c, 9, 42, 79
4, 54146, Note_on_c, 9, 69, 0
4, 54153, Note_on_c, 9, 42, 0
4, 54184, Note_on_c, 9, 35, 58
4, 54184, Note_on_c, 9, 69, 48
4, 54199, Note_on_c, 9, 51, 0
4, 54202, Note_on_c, 9, 69, 0
4, 54208, Note_on_c, 9, 35, 0
4, 54240, Note_on_c, 9, 51, 127
4, 54243, Note_on_c, 9, 49, 36
4, 54244, Note_on_c, 9, 69, 42
4, 54244, Note_on_c, 9, 35, 53
4, 54244, Note_on_c, 9, 37, 72
4, 54245, Note_on_c, 9, 49, 37
4, 54262, Note_on_c, 9, 69, 0
4, 54271, Note_on_c, 9, 35, 0
4, 54272, Note_on_c, 9, 37, 0
4, 54304, Note_on_c, 9, 69, 40
4, 54321, Note_on_c, 9, 69, 0
4, 54364, Note_on_c, 9, 69, 59
4, 54364, Note_on_c, 9, 40, 53
4, 54365, Note_on_c, 9, 42, 77
4, 54386, Note_on_c, 9, 69, 0
4, 54388, Note_on_c, 9, 51, 0
4, 54390, Note_on_c, 9, 42, 0
4, 54396, Note_on_c, 9, 40, 0
4, 54424, Note_on_c, 9, 35, 57
4, 54424, Note_on_c, 9, 69, 47
4, 54424, Note_on_c, 9, 37, 70
4, 54426, Note_on_c, 9, 51, 86
4, 54441, Note_on_c, 9, 69, 0
4, 54448, Note_on_c, 9, 35, 0
4, 54450, Note_on_c, 9, 51, 0
4, 54452, Note_on_c, 9, 37, 0
4, 54484, Note_on_c, 9, 35, 42
4, 54484, Note_on_c, 9, 69, 42
4, 54485, Note_on_c, 9, 51, 92
4, 54507, Note_on_c, 9, 69, 0
4, 54513, Note_on_c, 9, 35, 0
4, 54544, Note_on_c, 9, 69, 32
4, 54544, Note_on_c, 9, 40, 61
4, 54561, Note_on_c, 9, 69, 0
4, 54575, Note_on_c, 9, 40, 0
4, 54604, Note_on_c, 9, 69, 59
4, 54604, Note_on_c, 9, 37, 72
4, 54605, Note_on_c, 9, 42, 79
4, 54619, Note_on_c, 9, 51, 0
4, 54628, Note_on_c, 9, 69, 0
4, 54632, Note_on_c, 9, 37, 0
4, 54632, Note_on_c, 9, 42, 0
4, 54649, Note_on_c, 9, 49, 0
4, 54664, Note_on_c, 9, 35, 63
4, 54664, Note_on_c, 9, 51, 96
4, 54664, Note_on_c, 9, 69, 45
4, 54682, Note_on_c, 9, 69, 0
4, 54689, Note_on_c, 9, 35, 0
4, 54724, Note_on_c, 9, 69, 48
4, 54724, Note_on_c, 9, 35, 42
4, 54742, Note_on_c, 9, 69, 0
4, 54744, Note_on_c, 9, 51, 0
4, 54755, Note_on_c, 9, 35, 0
4, 54756, Note_on_c, 9, 49, 0
4, 54784, Note_on_c, 9, 69, 32
4, 54784, Note_on_c, 9, 51, 127
4, 54801, Note_on_c, 9, 69, 0
4, 54844, Note_on_c, 9, 69, 61
4, 54844, Note_on_c, 9, 40, 68
4, 54844, Note_on_c, 9, 37, 72
4, 54845, Note_on_c, 9, 42, 74
4, 54865, Note_on_c, 9, 69, 0
4, 54865, Note_on_c, 9, 51, 0
4, 54870, Note_on_c, 9, 37, 0
4, 54875, Note_on_c, 9, 42, 0
4, 54877, Note_on_c, 9, 40, 0
4, 54904, Note_on_c, 9, 69, 44
4, 54904, Note_on_c, 9, 35, 40
4, 54924, Note_on_c, 9, 69, 0
4, 54928, Note_on_c, 9, 35, 0
4, 54964, Note_on_c, 9, 35, 53
4, 54964, Note_on_c, 9, 69, 58
4, 54983, Note_on_c, 9, 69, 0
4, 54991, Note_on_c, 9, 35, 0
4, 55016, Note_on_c, 9, 49, 41
4, 55023, Note_on_c, 9, 51, 127
4, 55024, Note_on_c, 9, 40, 59
4, 55024, Note_on_c, 9, 35, 53
4, 55024, Note_on_c, 9, 37, 70
4, 55024, Note_on_c, 9, 69, 41
4, 55043, Note_on_c, 9, 69, 0
4, 55050, Note_on_c, 9, 37, 0
4, 55051, Note_on_c, 9, 49, 0
4, 55053, Note_on_c, 9, 35, 0
4, 55056, Note_on_c, 9, 40, 0
4, 55084, Note_on_c, 9, 69, 59
4, 55085, Note_on_c, 9, 42, 79
4, 55106, Note_on_c, 9, 69, 0
4, 55113, Note_on_c, 9, 42, 0
4, 55128, Note_on_c, 9, 51, 0
4, 55144, Note_on_c, 9, 35, 58
4, 55144, Note_on_c, 9, 69, 48
4, 55162, Note_on_c, 9, 69, 0
4, 55171, Note_on_c, 9, 35, 0
4, 55197, Note_on_c, 9, 51, 115
4, 55201, Note_on_c, 9, 49, 51
4, 55204, Note_on_c, 9, 69, 44
4, 55204, Note_on_c, 9, 35, 52
4, 55204, Note_on_c, 9, 37, 77
4, 55221, Note_on_c, 9, 69, 0
4, 55230, Note_on_c, 9, 35, 0
4, 55231, Note_on_c, 9, 37, 0
4, 55260, Note_on_c, 9, 49, 0
4, 55264, Note_on_c, 9, 69, 45
4, 55280, Note_on_c, 9, 69, 0
4, 55324, Note_on_c, 9, 40, 53
4, 55324, Note_on_c, 9, 69, 62
4, 55325, Note_on_c, 9, 42, 77
4, 55326, Note_on_c, 9, 42, 77
4, 55337, Note_on_c, 9, 51, 0
4, 55344, Note_on_c, 9, 69, 0
4, 55350, Note_on_c, 9, 42, 0
4, 55351, Note_on_c, 9, 42, 0
4, 55356, Note_on_c, 9, 40, 0
4, 55384, Note_on_c, 9, 69, 53
4, 55384, Note_on_c, 9, 35, 53
4, 55384, Note_on_c, 9, 37, 74
4, 55385, Note_on_c, 9, 51, 92
4, 55401, Note_on_c, 9, 69, 0
4, 55409, Note_on_c, 9, 35, 0
4, 55412, Note_on_c, 9, 37, 0
4, 55444, Note_on_c, 9, 69, 44
4, 55444, Note_on_c, 9, 35, 50
4, 55465, Note_on_c, 9, 69, 0
4, 55465, Note_on_c, 9, 51, 0
4, 55472, Note_on_c, 9, 35, 0
4, 55497, Note_on_c, 9, 51, 92
4, 55504, Note_on_c, 9, 69, 33
4, 55504, Note_on_c, 9, 40, 61
4, 55523, Note_on_c, 9, 69, 0
4, 55535, Note_on_c, 9, 40, 0
4, 55564, Note_on_c, 9, 69, 71
4, 55564, Note_on_c, 9, 37, 72
4, 55565, Note_on_c, 9, 42, 79
4, 55566, Note_on_c, 9, 42, 79
4, 55586, Note_on_c, 9, 51, 0
4, 55587, Note_on_c, 9, 69, 0
4, 55592, Note_on_c, 9, 42, 0
4, 55592, Note_on_c, 9, 37, 0
4, 55593, Note_on_c, 9, 42, 0
4, 55617, Note_on_c, 9, 51, 86
4, 55624, Note_on_c, 9, 35, 54
4, 55624, Note_on_c, 9, 69, 50
4, 55639, Note_on_c, 9, 51, 0
4, 55641, Note_on_c, 9, 69, 0
4, 55651, Note_on_c, 9, 35, 0
4, 55678, Note_on_c, 9, 51, 106
4, 55684, Note_on_c, 9, 35, 40
4, 55684, Note_on_c, 9, 69, 42
4, 55704, Note_on_c, 9, 69, 0
4, 55715, Note_on_c, 9, 35, 0
4, 55744, Note_on_c, 9, 69, 48
4, 55761, Note_on_c, 9, 69, 0
4, 55804, Note_on_c, 9, 40, 68
4, 55804, Note_on_c, 9, 37, 72
4, 55804, Note_on_c, 9, 69, 62
4, 55805, Note_on_c, 9, 42, 74
4, 55806, Note_on_c, 9, 42, 74
4, 55808, Note_on_c, 9, 51, 0
4, 55825, Note_on_c, 9, 69, 0
4, 55830, Note_on_c, 9, 37, 0
4, 55835, Note_on_c, 9, 42, 0
4, 55836, Note_on_c, 9, 42, 0
4, 55837, Note_on_c, 9, 40, 0
4, 55850, Note_on_c, 9, 51, 92
4, 55864, Note_on_c, 9, 69, 48
4, 55864, Note_on_c, 9, 35, 60
4, 55881, Note_on_c, 9, 69, 0
4, 55887, Note_on_c, 9, 35, 0
4, 55924, Note_on_c, 9, 35, 49
4, 55924, Note_on_c, 9, 69, 42
4, 55932, Note_on_c, 9, 51, 0
4, 55943, Note_on_c, 9, 69, 0
4, 55948, Note_on_c, 9, 35, 0
4, 55971, Note_on_c, 9, 51, 96
4, 55984, Note_on_c, 9, 37, 72
4, 55984, Note_on_c, 9, 40, 59
4, 55984, Note_on_c, 9, 35, 60
4, 55984, Note_on_c, 9, 69, 45
4, 56002, Note_on_c, 9, 69, 0
4, 56011, Note_on_c, 9, 37, 0
4, 56012, Note_on_c, 9, 35, 0
4, 56016, Note_on_c, 9, 40, 0
4, 56044, Note_on_c, 9, 69, 62
4, 56045, Note_on_c, 9, 42, 79
4, 56046, Note_on_c, 9, 42, 79
4, 56067, Note_on_c, 9, 69, 0
4, 56073, Note_on_c, 9, 42, 0
4, 56074, Note_on_c, 9, 42, 0
4, 56104, Note_on_c, 9, 69, 47
4, 56104, Note_on_c, 9, 35, 50
4, 56113, Note_on_c, 9, 51, 0
4, 56122, Note_on_c, 9, 69, 0
4, 56129, Note_on_c, 9, 35, 0
4, 56156, Note_on_c, 9, 51, 115
4, 56164, Note_on_c, 9, 69, 47
4, 56164, Note_on_c, 9, 37, 72
4, 56164, Note_on_c, 9, 35, 50
4, 56165, Note_on_c, 9, 49, 44
4, 56181, Note_on_c, 9, 69, 0
4, 56190, Note_on_c, 9, 35, 0
4, 56191, Note_on_c, 9, 37, 0
4, 56214, Note_on_c, 9, 49, 0
4, 56224, Note_on_c, 9, 69, 42
4, 56240, Note_on_c, 9, 69, 0
4, 56284, Note_on_c, 9, 69, 62
4, 56284, Note_on_c, 9, 40, 53
4, 56286, Note_on_c, 9, 42, 77
4, 56288, Note_on_c, 9, 51, 0
4, 56304, Note_on_c, 9, 69, 0
4, 56311, Note_on_c, 9, 42, 0
4, 56316, Note_on_c, 9, 40, 0
4, 56333, Note_on_c, 9, 51, 106
4, 56344, Note_on_c, 9, 35, 49
4, 56344, Note_on_c, 9, 37, 72
4, 56344, Note_on_c, 9, 69, 50
4, 56360, Note_on_c, 9, 69, 0
4, 56369, Note_on_c, 9, 35, 0
4, 56373, Note_on_c, 9, 37, 0
4, 56404, Note_on_c, 9, 69, 41
4, 56404, Note_on_c, 9, 35, 53
4, 56413, Note_on_c, 9, 51, 0
4, 56425, Note_on_c, 9, 69, 0
4, 56432, Note_on_c, 9, 35, 0
4, 56459, Note_on_c, 9, 51, 92
4, 56464, Note_on_c, 9, 69, 47
4, 56464, Note_on_c, 9, 40, 61
4, 56483, Note_on_c, 9, 69, 0
4, 56495, Note_on_c, 9, 40, 0
4, 56524, Note_on_c, 9, 37, 70
4, 56524, Note_on_c, 9, 69, 62
4, 56526, Note_on_c, 9, 42, 79
4, 56539, Note_on_c, 9, 51, 0
4, 56547, Note_on_c, 9, 69, 0
4, 56552, Note_on_c, 9, 37, 0
4, 56553, Note_on_c, 9, 42, 0
4, 56584, Note_on_c, 9, 35, 57
4, 56584, Note_on_c, 9, 69, 48
4, 56591, Note_on_c, 9, 49, 45
4, 56601, Note_on_c, 9, 69, 0
4, 56609, Note_on_c, 9, 35, 0
4, 56641, Note_on_c, 9, 51, 115
4, 56644, Note_on_c, 9, 69, 58
4, 56644, Note_on_c, 9, 35, 50
4, 56664, Note_on_c, 9, 69, 0
4, 56675, Note_on_c, 9, 35, 0
4, 56704, Note_on_c, 9, 69, 47
4, 56721, Note_on_c, 9, 69, 0
4, 56760, Note_on_c, 9, 51, 0
4, 56764, Note_on_c, 9, 69, 59
4, 56764, Note_on_c, 9, 37, 68
4, 56764, Note_on_c, 9, 40, 68
4, 56766, Note_on_c, 9, 42, 74
4, 56785, Note_on_c, 9, 69, 0
4, 56795, Note_on_c, 9, 37, 0
4, 56796, Note_on_c, 9, 42, 0
4, 56797, Note_on_c, 9, 40, 0
4, 56819, Note_on_c, 9, 51, 115
4, 56824, Note_on_c, 9, 69, 52
4, 56824, Note_on_c, 9, 35, 57
4, 56841, Note_on_c, 9, 69, 0
4, 56841, Note_on_c, 9, 51, 0
4, 56847, Note_on_c, 9, 35, 0
4, 56883, Note_on_c, 9, 51, 92
4, 56884, Note_on_c, 9, 35, 58
4, 56884, Note_on_c, 9, 69, 44
4, 56888, Note_on_c, 9, 47, 82
4, 56906, Note_on_c, 9, 69, 0
4, 56908, Note_on_c, 9, 35, 0
4, 56910, Note_on_c, 9, 47, 0
4, 56944, Note_on_c, 9, 35, 46
4, 56944, Note_on_c, 9, 40, 59
4, 56944, Note_on_c, 9, 37, 68
4, 56944, Note_on_c, 9, 69, 41
4, 56950, Note_on_c, 9, 47, 62
4, 56962, Note_on_c, 9, 69, 0
4, 56971, Note_on_c, 9, 37, 0
4, 56972, Note_on_c, 9, 35, 0
4, 56975, Note_on_c, 9, 47, 0
4, 56976, Note_on_c, 9, 40, 0
4, 57004, Note_on_c, 9, 69, 61
4, 57006, Note_on_c, 9, 49, 0
4, 57006, Note_on_c, 9, 42, 79
4, 57009, Note_on_c, 9, 51, 0
4, 57010, Note_on_c, 9, 45, 56
4, 57027, Note_on_c, 9, 69, 0
4, 57032, Note_on_c, 9, 45, 0
4, 57034, Note_on_c, 9, 42, 0
4, 57055, Note_on_c, 9, 51, 92
4, 57064, Note_on_c, 9, 69, 59
4, 57064, Note_on_c, 9, 35, 60
4, 57069, Note_on_c, 9, 45, 62
4, 57071, Note_on_c, 9, 51, 0
4, 57082, Note_on_c, 9, 69, 0
4, 57088, Note_on_c, 9, 35, 0
4, 57096, Note_on_c, 9, 45, 0
4, 57118, Note_on_c, 9, 49, 40
4, 57121, Note_on_c, 9, 51, 127
4, 57124, Note_on_c, 9, 69, 75
4, 57124, Note_on_c, 9, 35, 79
4, 57124, Note_on_c, 9, 37, 57
4, 57124, Note_on_c, 9, 40, 53
4, 57132, Note_on_c, 9, 43, 79
4, 57142, Note_on_c, 9, 69, 0
4, 57148, Note_on_c, 9, 35, 0
4, 57151, Note_on_c, 9, 37, 0
4, 57156, Note_on_c, 9, 40, 0
4, 57169, Note_on_c, 9, 43, 0
4, 57184, Note_on_c, 9, 69, 31
4, 57200, Note_on_c, 9, 69, 0
4, 57244, Note_on_c, 9, 40, 46
4, 57244, Note_on_c, 9, 69, 62
4, 57246, Note_on_c, 9, 42, 77
4, 57249, Note_on_c, 9, 51, 0
4, 57266, Note_on_c, 9, 69, 0
4, 57271, Note_on_c, 9, 42, 0
4, 57276, Note_on_c, 9, 40, 0
4, 57282, Note_on_c, 9, 49, 0
4, 57303, Note_on_c, 9, 51, 106
4, 57304, Note_on_c, 9, 35, 49
4, 57304, Note_on_c, 9, 37, 72
4, 57304, Note_on_c, 9, 69, 50
4, 57320, Note_on_c, 9, 69, 0
4, 57331, Note_on_c, 9, 35, 0
4, 57333, Note_on_c, 9, 37, 0
4, 57341, Note_on_c, 9, 51, 0
4, 57364, Note_on_c, 9, 35, 53
4, 57364, Note_on_c, 9, 69, 41
4, 57385, Note_on_c, 9, 69, 0
4, 57395, Note_on_c, 9, 35, 0
4, 57422, Note_on_c, 9, 51, 115
4, 57424, Note_on_c, 9, 69, 47
4, 57424, Note_on_c, 9, 40, 53
4, 57443, Note_on_c, 9, 69, 0
4, 57455, Note_on_c, 9, 40, 0
4, 57484, Note_on_c, 9, 69, 62
4, 57484, Note_on_c, 9, 37, 70
4, 57486, Note_on_c, 9, 42, 79
4, 57494, Note_on_c, 9, 51, 0
4, 57507, Note_on_c, 9, 69, 0
4, 57512, Note_on_c, 9, 37, 0
4, 57513, Note_on_c, 9, 42, 0
4, 57544, Note_on_c, 9, 35, 57
4, 57544, Note_on_c, 9, 69, 48
4, 57547, Note_on_c, 9, 51, 82
4, 57562, Note_on_c, 9, 69, 0
4, 57569, Note_on_c, 9, 35, 0
4, 57604, Note_on_c, 9, 35, 50
4, 57604, Note_on_c, 9, 69, 58
4, 57619, Note_on_c, 9, 51, 0
4, 57625, Note_on_c, 9, 69, 0
4, 57635, Note_on_c, 9, 35, 0
4, 57657, Note_on_c, 9, 51, 96
4, 57664, Note_on_c, 9, 69, 47
4, 57682, Note_on_c, 9, 69, 0
4, 57714, Note_on_c, 9, 51, 0
4, 57724, Note_on_c, 9, 37, 68
4, 57724, Note_on_c, 9, 40, 61
4, 57724, Note_on_c, 9, 69, 59
4, 57726, Note_on_c, 9, 42, 74
4, 57746, Note_on_c, 9, 69, 0
4, 57756, Note_on_c, 9, 42, 0
4, 57756, Note_on_c, 9, 37, 0
4, 57757, Note_on_c, 9, 40, 0
4, 57784, Note_on_c, 9, 35, 57
4, 57784, Note_on_c, 9, 69, 52
4, 57803, Note_on_c, 9, 69, 0
4, 57809, Note_on_c, 9, 35, 0
4, 57844, Note_on_c, 9, 69, 44
4, 57844, Note_on_c, 9, 35, 58
4, 57868, Note_on_c, 9, 69, 0
4, 57869, Note_on_c, 9, 35, 0
4, 57900, Note_on_c, 9, 51, 115
4, 57904, Note_on_c, 9, 40, 51
4, 57904, Note_on_c, 9, 35, 46
4, 57904, Note_on_c, 9, 69, 41
4, 57904, Note_on_c, 9, 37, 68
4, 57925, Note_on_c, 9, 69, 0
4, 57932, Note_on_c, 9, 35, 0
4, 57932, Note_on_c, 9, 37, 0
4, 57936, Note_on_c, 9, 40, 0
4, 57964, Note_on_c, 9, 69, 61
4, 57966, Note_on_c, 9, 42, 79
4, 57967, Note_on_c, 9, 51, 0
4, 57987, Note_on_c, 9, 69, 0
4, 57994, Note_on_c, 9, 42, 0
4, 58023, Note_on_c, 9, 51, 65
4, 58024, Note_on_c, 9, 69, 59
4, 58024, Note_on_c, 9, 35, 60
4, 58044, Note_on_c, 9, 69, 0
4, 58048, Note_on_c, 9, 35, 0
4, 58075, Note_on_c, 9, 51, 0
4, 58084, Note_on_c, 9, 35, 79
4, 58084, Note_on_c, 9, 69, 75
4, 58084, Note_on_c, 9, 37, 57
4, 58085, Note_on_c, 9, 49, 35
4, 58102, Note_on_c, 9, 69, 0
4, 58108, Note_on_c, 9, 35, 0
4, 58111, Note_on_c, 9, 37, 0
4, 58125, Note_on_c, 9, 49, 0
4, 58144, Note_on_c, 9, 69, 31
4, 58162, Note_on_c, 9, 69, 0
4, 58203, Note_on_c, 9, 51, 77
4, 58204, Note_on_c, 9, 40, 46
4, 58204, Note_on_c, 9, 69, 28
4, 58205, Note_on_c, 9, 49, 82
4, 58206, Note_on_c, 9, 42, 77
4, 58222, Note_on_c, 9, 69, 0
4, 58231, Note_on_c, 9, 42, 0
4, 58236, Note_on_c, 9, 40, 0
4, 58256, Note_on_c, 9, 49, 0
4, 58264, Note_on_c, 9, 35, 52
4, 58264, Note_on_c, 9, 37, 62
4, 58264, Note_on_c, 9, 69, 59
4, 58270, Note_on_c, 9, 51, 0
4, 58286, Note_on_c, 9, 69, 0
4, 58289, Note_on_c, 9, 37, 0
4, 58290, Note_on_c, 9, 35, 0
4, 58324, Note_on_c, 9, 69, 32
4, 58324, Note_on_c, 9, 35, 52
4, 58349, Note_on_c, 9, 69, 0
4, 58384, Note_on_c, 9, 69, 33
4, 58384, Note_on_c, 9, 40, 53
4, 58390, Note_on_c, 9, 51, 82
4, 58400, Note_on_c, 9, 69, 0
4, 58415, Note_on_c, 9, 40, 0
4, 58419, Note_on_c, 9, 51, 0
4, 58423, Note_on_c, 9, 35, 0
4, 58444, Note_on_c, 9, 69, 61
4, 58444, Note_on_c, 9, 37, 72
4, 58446, Note_on_c, 9, 42, 79
4, 58466, Note_on_c, 9, 37, 0
4, 58469, Note_on_c, 9, 69, 0
4, 58473, Note_on_c, 9, 42, 0
4, 58501, Note_on_c, 9, 51, 82
4, 58504, Note_on_c, 9, 69, 37
4, 58504, Note_on_c, 9, 35, 45
4, 58522, Note_on_c, 9, 51, 0
4, 58524, Note_on_c, 9, 69, 0
4, 58527, Note_on_c, 9, 35, 0
4, 58564, Note_on_c, 9, 35, 49
4, 58564, Note_on_c, 9, 69, 59
4, 58564, Note_on_c, 9, 51, 115
4, 58589, Note_on_c, 9, 69, 0
4, 58606, Note_on_c, 9, 35, 0
4, 58624, Note_on_c, 9, 69, 31
4, 58644, Note_on_c, 9, 69, 0
4, 58684, Note_on_c, 9, 69, 51
4, 58684, Note_on_c, 9, 40, 61
4, 58684, Note_on_c, 9, 37, 70
4, 58686, Note_on_c, 9, 42, 74
4, 58703, Note_on_c, 9, 69, 0
4, 58707, Note_on_c, 9, 51, 0
4, 58709, Note_on_c, 9, 37, 0
4, 58716, Note_on_c, 9, 42, 0
4, 58717, Note_on_c, 9, 40, 0
4, 58741, Note_on_c, 9, 51, 106
4, 58744, Note_on_c, 9, 69, 59
4, 58744, Note_on_c, 9, 35, 44
4, 58765, Note_on_c, 9, 69, 0
4, 58771, Note_on_c, 9, 35, 0
4, 58804, Note_on_c, 9, 35, 47
4, 58804, Note_on_c, 9, 69, 42
4, 58825, Note_on_c, 9, 69, 0
4, 58830, Note_on_c, 9, 51, 0
4, 58837, Note_on_c, 9, 35, 0
4, 58864, Note_on_c, 9, 69, 42
4, 58864, Note_on_c, 9, 35, 47
4, 58864, Note_on_c, 9, 40, 51
4, 58864, Note_on_c, 9, 37, 70
4, 58867, Note_on_c, 9, 51, 92
4, 58880, Note_on_c, 9, 69, 0
4, 58889, Note_on_c, 9, 37, 0
4, 58894, Note_on_c, 9, 35, 0
4, 58896, Note_on_c, 9, 40, 0
4, 58918, Note_on_c, 9, 51, 0
4, 58924, Note_on_c, 9, 69, 61
4, 58926, Note_on_c, 9, 42, 79
4, 58947, Note_on_c, 9, 69, 0
4, 58954, Note_on_c, 9, 42, 0
4, 58983, Note_on_c, 9, 51, 77
4, 58984, Note_on_c, 9, 35, 40
4, 58984, Note_on_c, 9, 69, 41
4, 59000, Note_on_c, 9, 69, 0
4, 59003, Note_on_c, 9, 51, 0
4, 59010, Note_on_c, 9, 35, 0
4, 59038, Note_on_c, 9, 51, 115
4, 59044, Note_on_c, 9, 69, 58
4, 59044, Note_on_c, 9, 35, 41
4, 59044, Note_on_c, 9, 37, 72
4, 59066, Note_on_c, 9, 69, 0
4, 59068, Note_on_c, 9, 37, 0
4, 59072, Note_on_c, 9, 35, 0
4, 59104, Note_on_c, 9, 69, 30
4, 59123, Note_on_c, 9, 69, 0
4, 59164, Note_on_c, 9, 40, 46
4, 59164, Note_on_c, 9, 69, 42
4, 59166, Note_on_c, 9, 42, 77
4, 59180, Note_on_c, 9, 51, 0
4, 59182, Note_on_c, 9, 69, 0
4, 59191, Note_on_c, 9, 42, 0
4, 59196, Note_on_c, 9, 40, 0
4, 59224, Note_on_c, 9, 35, 54
4, 59224, Note_on_c, 9, 69, 59
4, 59224, Note_on_c, 9, 37, 64
4, 59224, Note_on_c, 9, 51, 86
4, 59246, Note_on_c, 9, 69, 0
4, 59247, Note_on_c, 9, 35, 0
4, 59249, Note_on_c, 9, 51, 0
4, 59250, Note_on_c, 9, 37, 0
4, 59276, Note_on_c, 9, 51, 82
4, 59284, Note_on_c, 9, 35, 44
4, 59284, Note_on_c, 9, 69, 32
4, 59307, Note_on_c, 9, 69, 0
4, 59318, Note_on_c, 9, 35, 0
4, 59344, Note_on_c, 9, 69, 33
4, 59344, Note_on_c, 9, 40, 53
4, 59364, Note_on_c, 9, 69, 0
4, 59375, Note_on_c, 9, 40, 0
4, 59404, Note_on_c, 9, 69, 53
4, 59404, Note_on_c, 9, 37, 68
4, 59406, Note_on_c, 9, 42, 79
4, 59427, Note_on_c, 9, 69, 0
4, 59428, Note_on_c, 9, 51, 0
4, 59430, Note_on_c, 9, 37, 0
4, 59433, Note_on_c, 9, 42, 0
4, 59464, Note_on_c, 9, 51, 96
4, 59464, Note_on_c, 9, 69, 42
4, 59464, Note_on_c, 9, 35, 45
4, 59484, Note_on_c, 9, 69, 0
4, 59490, Note_on_c, 9, 35, 0
4, 59524, Note_on_c, 9, 69, 59
4, 59524, Note_on_c, 9, 35, 52
4, 59540, Note_on_c, 9, 51, 0
4, 59549, Note_on_c, 9, 69, 0
4, 59554, Note_on_c, 9, 35, 0
4, 59578, Note_on_c, 9, 51, 96
4, 59584, Note_on_c, 9, 69, 32
4, 59603, Note_on_c, 9, 69, 0
4, 59644, Note_on_c, 9, 37, 70
4, 59644, Note_on_c, 9, 40, 61
4, 59644, Note_on_c, 9, 69, 32
4, 59646, Note_on_c, 9, 42, 74
4, 59663, Note_on_c, 9, 69, 0
4, 59667, Note_on_c, 9, 51, 0
4, 59672, Note_on_c, 9, 37, 0
4, 59676, Note_on_c, 9, 42, 0
4, 59677, Note_on_c, 9, 40, 0
4, 59704, Note_on_c, 9, 69, 58
4, 59704, Note_on_c, 9, 35, 50
4, 59712, Note_on_c, 9, 51, 96
4, 59728, Note_on_c, 9, 35, 0
4, 59728, Note_on_c, 9, 69, 0
4, 59764, Note_on_c, 9, 35, 47
4, 59764, Note_on_c, 9, 69, 44
4, 59789, Note_on_c, 9, 69, 0
4, 59793, Note_on_c, 9, 35, 0
4, 59793, Note_on_c, 9, 51, 0
4, 59824, Note_on_c, 9, 35, 46
4, 59824, Note_on_c, 9, 37, 68
4, 59824, Note_on_c, 9, 69, 41
4, 59824, Note_on_c, 9, 40, 51
4, 59826, Note_on_c, 9, 51, 106
4, 59844, Note_on_c, 9, 69, 0
4, 59850, Note_on_c, 9, 37, 0
4, 59855, Note_on_c, 9, 35, 0
4, 59856, Note_on_c, 9, 40, 0
4, 59884, Note_on_c, 9, 69, 61
4, 59886, Note_on_c, 9, 42, 79
4, 59896, Note_on_c, 9, 51, 0
4, 59910, Note_on_c, 9, 69, 0
4, 59914, Note_on_c, 9, 42, 0
4, 59944, Note_on_c, 9, 69, 44
4, 59944, Note_on_c, 9, 35, 42
4, 59947, Note_on_c, 9, 51, 62
4, 59965, Note_on_c, 9, 69, 0
4, 59968, Note_on_c, 9, 51, 0
4, 59970, Note_on_c, 9, 35, 0
4, 60003, Note_on_c, 9, 51, 115
4, 60004, Note_on_c, 9, 69, 59
4, 60004, Note_on_c, 9, 37, 74
4, 60004, Note_on_c, 9, 35, 50
4, 60028, Note_on_c, 9, 69, 0
4, 60031, Note_on_c, 9, 35, 0
4, 60032, Note_on_c, 9, 37, 0
4, 60064, Note_on_c, 9, 69, 35
4, 60085, Note_on_c, 9, 69, 0
4, 60124, Note_on_c, 9, 40, 46
4, 60124, Note_on_c, 9, 69, 42
4, 60127, Note_on_c, 9, 42, 77
4, 60137, Note_on_c, 9, 51, 0
4, 60142, Note_on_c, 9, 69, 0
4, 60152, Note_on_c, 9, 42, 0
4, 60156, Note_on_c, 9, 40, 0
4, 60184, Note_on_c, 9, 69, 58
4, 60184, Note_on_c, 9, 37, 72
4, 60184, Note_on_c, 9, 35, 49
4, 60186, Note_on_c, 9, 51, 96
4, 60207, Note_on_c, 9, 35, 0
4, 60207, Note_on_c, 9, 69, 0
4, 60210, Note_on_c, 9, 51, 0
4, 60211, Note_on_c, 9, 37, 0
4, 60244, Note_on_c, 9, 35, 41
4, 60244, Note_on_c, 9, 69, 44
4, 60266, Note_on_c, 9, 69, 0
4, 60274, Note_on_c, 9, 35, 0
4, 60304, Note_on_c, 9, 69, 35
4, 60304, Note_on_c, 9, 40, 53
4, 60306, Note_on_c, 9, 51, 127
4, 60324, Note_on_c, 9, 69, 0
4, 60335, Note_on_c, 9, 40, 0
4, 60364, Note_on_c, 9, 69, 56
4, 60364, Note_on_c, 9, 37, 72
4, 60367, Note_on_c, 9, 42, 79
4, 60374, Note_on_c, 9, 51, 0
4, 60388, Note_on_c, 9, 69, 0
4, 60392, Note_on_c, 9, 37, 0
4, 60394, Note_on_c, 9, 42, 0
4, 60424, Note_on_c, 9, 35, 53
4, 60424, Note_on_c, 9, 51, 56
4, 60424, Note_on_c, 9, 69, 36
4, 60440, Note_on_c, 9, 51, 0
4, 60446, Note_on_c, 9, 69, 0
4, 60446, Note_on_c, 9, 35, 0
4, 60484, Note_on_c, 9, 51, 106
4, 60484, Note_on_c, 9, 35, 40
4, 60484, Note_on_c, 9, 69, 58
4, 60507, Note_on_c, 9, 69, 0
4, 60514, Note_on_c, 9, 35, 0
4, 60544, Note_on_c, 9, 69, 36
4, 60563, Note_on_c, 9, 69, 0
4, 60602, Note_on_c, 9, 51, 0
4, 60604, Note_on_c, 9, 37, 70
4, 60604, Note_on_c, 9, 69, 45
4, 60604, Note_on_c, 9, 40, 61
4, 60607, Note_on_c, 9, 42, 74
4, 60621, Note_on_c, 9, 69, 0
4, 60631, Note_on_c, 9, 37, 0
4, 60637, Note_on_c, 9, 40, 0
4, 60637, Note_on_c, 9, 42, 0
4, 60653, Note_on_c, 9, 51, 86
4, 60664, Note_on_c, 9, 35, 49
4, 60664, Note_on_c, 9, 69, 58
4, 60678, Note_on_c, 9, 51, 0
4, 60684, Note_on_c, 9, 69, 0
4, 60689, Note_on_c, 9, 35, 0
4, 60724, Note_on_c, 9, 35, 40
4, 60724, Note_on_c, 9, 69, 47
4, 60743, Note_on_c, 9, 69, 0
4, 60754, Note_on_c, 9, 35, 0
4, 60784, Note_on_c, 9, 40, 51
4, 60784, Note_on_c, 9, 69, 33
4, 60784, Note_on_c, 9, 37, 68
4, 60787, Note_on_c, 9, 51, 106
4, 60802, Note_on_c, 9, 69, 0
4, 60810, Note_on_c, 9, 37, 0
4, 60816, Note_on_c, 9, 40, 0
4, 60844, Note_on_c, 9, 69, 62
4, 60847, Note_on_c, 9, 42, 79
4, 60854, Note_on_c, 9, 51, 0
4, 60867, Note_on_c, 9, 69, 0
4, 60875, Note_on_c, 9, 42, 0
4, 60901, Note_on_c, 9, 51, 92
4, 60904, Note_on_c, 9, 69, 45
4, 60904, Note_on_c, 9, 35, 50
4, 60925, Note_on_c, 9, 69, 0
4, 60929, Note_on_c, 9, 35, 0
4, 60931, Note_on_c, 9, 51, 0
4, 60964, Note_on_c, 9, 69, 47
4, 60964, Note_on_c, 9, 37, 70
4, 60964, Note_on_c, 9, 35, 50
4, 60989, Note_on_c, 9, 69, 0
4, 60991, Note_on_c, 9, 37, 0
4, 60992, Note_on_c, 9, 35, 0
4, 61022, Note_on_c, 9, 51, 96
4, 61024, Note_on_c, 9, 69, 31
4, 61044, Note_on_c, 9, 69, 0
4, 61063, Note_on_c, 9, 51, 0
4, 61084, Note_on_c, 9, 69, 42
4, 61084, Note_on_c, 9, 40, 46
4, 61087, Note_on_c, 9, 42, 77
4, 61104, Note_on_c, 9, 69, 0
4, 61112, Note_on_c, 9, 42, 0
4, 61116, Note_on_c, 9, 40, 0
4, 61140, Note_on_c, 9, 51, 82
4, 61144, Note_on_c, 9, 35, 50
4, 61144, Note_on_c, 9, 69, 61
4, 61144, Note_on_c, 9, 37, 72
4, 61165, Note_on_c, 9, 35, 0
4, 61167, Note_on_c, 9, 51, 0
4, 61168, Note_on_c, 9, 69, 0
4, 61170, Note_on_c, 9, 37, 0
4, 61204, Note_on_c, 9, 69, 35
4, 61204, Note_on_c, 9, 35, 56
4, 61227, Note_on_c, 9, 69, 0
4, 61234, Note_on_c, 9, 35, 0
4, 61258, Note_on_c, 9, 51, 106
4, 61264, Note_on_c, 9, 69, 36
4, 61264, Note_on_c, 9, 40, 53
4, 61282, Note_on_c, 9, 69, 0
4, 61295, Note_on_c, 9, 40, 0
4, 61324, Note_on_c, 9, 37, 68
4, 61324, Note_on_c, 9, 69, 58
4, 61326, Note_on_c, 9, 51, 0
4, 61327, Note_on_c, 9, 42, 79
4, 61349, Note_on_c, 9, 69, 0
4, 61354, Note_on_c, 9, 42, 0
4, 61354, Note_on_c, 9, 37, 0
4, 61375, Note_on_c, 9, 51, 82
4, 61384, Note_on_c, 9, 69, 37
4, 61384, Note_on_c, 9, 35, 56
4, 61394, Note_on_c, 9, 51, 0
4, 61403, Note_on_c, 9, 69, 0
4, 61411, Note_on_c, 9, 35, 0
4, 61441, Note_on_c, 9, 51, 127
4, 61444, Note_on_c, 9, 69, 56
4, 61467, Note_on_c, 9, 69, 0
4, 61487, Note_on_c, 9, 51, 0
4, 61504, Note_on_c, 9, 69, 40
4, 61504, Note_on_c, 9, 35, 54
4, 61526, Note_on_c, 9, 69, 0
4, 61527, Note_on_c, 9, 51, 127
4, 61532, Note_on_c, 9, 35, 0
4, 61563, Note_on_c, 9, 51, 0
4, 61564, Note_on_c, 9, 37, 72
4, 61564, Note_on_c, 9, 40, 61
4, 61564, Note_on_c, 9, 69, 44
4, 61567, Note_on_c, 9, 42, 74
4, 61583, Note_on_c, 9, 69, 0
4, 61592, Note_on_c, 9, 37, 0
4, 61597, Note_on_c, 9, 40, 0
4, 61597, Note_on_c, 9, 42, 0
4, 61609, Note_on_c, 9, 51, 127
4, 61624, Note_on_c, 9, 35, 46
4, 61624, Note_on_c, 9, 69, 59
4, 61643, Note_on_c, 9, 51, 0
4, 61647, Note_on_c, 9, 69, 0
4, 61650, Note_on_c, 9, 35, 0
4, 61684, Note_on_c, 9, 51, 115
4, 61684, Note_on_c, 9, 69, 33
4, 61710, Note_on_c, 9, 69, 0
4, 61731, Note_on_c, 9, 51, 0
4, 61744, Note_on_c, 9, 37, 72
4, 61744, Note_on_c, 9, 40, 51
4, 61744, Note_on_c, 9, 35, 50
4, 61744, Note_on_c, 9, 69, 32
4, 61764, Note_on_c, 9, 69, 0
4, 61771, Note_on_c, 9, 35, 0
4, 61773, Note_on_c, 9, 37, 0
4, 61776, Note_on_c, 9, 40, 0
4, 61802, Note_on_c, 9, 51, 127
4, 61804, Note_on_c, 9, 69, 59
4, 61807, Note_on_c, 9, 42, 79
4, 61827, Note_on_c, 9, 69, 0
4, 61835, Note_on_c, 9, 42, 0
4, 61864, Note_on_c, 9, 35, 54
4, 61864, Note_on_c, 9, 69, 44
4, 61882, Note_on_c, 9, 69, 0
4, 61887, Note_on_c, 9, 51, 0
4, 61888, Note_on_c, 9, 35, 0
4, 61914, Note_on_c, 9, 51, 106
4, 61924, Note_on_c, 9, 35, 57
4, 61924, Note_on_c, 9, 37, 72
4, 61924, Note_on_c, 9, 69, 61
4, 61948, Note_on_c, 9, 69, 0
4, 61951, Note_on_c, 9, 35, 0
4, 61952, Note_on_c, 9, 37, 0
4, 61984, Note_on_c, 9, 69, 32
4, 62005, Note_on_c, 9, 69, 0
4, 62021, Note_on_c, 9, 51, 0
4, 62039, Note_on_c, 9, 51, 96
4, 62040, Note_on_c, 9, 49, 115
4, 62044, Note_on_c, 9, 40, 46
4, 62044, Note_on_c, 9, 69, 62
4, 62047, Note_on_c, 9, 42, 77
4, 62066, Note_on_c, 9, 69, 0
4, 62072, Note_on_c, 9, 42, 0
4, 62076, Note_on_c, 9, 40, 0
4, 62104, Note_on_c, 9, 37, 72
4, 62104, Note_on_c, 9, 69, 53
4, 62104, Note_on_c, 9, 35, 63
4, 62121, Note_on_c, 9, 69, 0
4, 62128, Note_on_c, 9, 35, 0
4, 62133, Note_on_c, 9, 37, 0
4, 62164, Note_on_c, 9, 35, 52
4, 62164, Note_on_c, 9, 69, 33
4, 62176, Note_on_c, 9, 51, 0
4, 62181, Note_on_c, 9, 49, 0
4, 62187, Note_on_c, 9, 69, 0
4, 62193, Note_on_c, 9, 35, 0
4, 62215, Note_on_c, 9, 51, 96
4, 62224, Note_on_c, 9, 69, 32
4, 62224, Note_on_c, 9, 40, 53
4, 62241, Note_on_c, 9, 69, 0
4, 62255, Note_on_c, 9, 40, 0
4, 62274, Note_on_c, 9, 51, 0
4, 62284, Note_on_c, 9, 37, 72
4, 62284, Note_on_c, 9, 69, 62
4, 62287, Note_on_c, 9, 42, 79
4, 62308, Note_on_c, 9, 69, 0
4, 62313, Note_on_c, 9, 37, 0
4, 62314, Note_on_c, 9, 42, 0
4, 62344, Note_on_c, 9, 35, 61
4, 62344, Note_on_c, 9, 51, 68
4, 62344, Note_on_c, 9, 69, 44
4, 62362, Note_on_c, 9, 69, 0
4, 62369, Note_on_c, 9, 51, 0
4, 62369, Note_on_c, 9, 35, 0
4, 62404, Note_on_c, 9, 35, 52
4, 62404, Note_on_c, 9, 69, 48
4, 62406, Note_on_c, 9, 51, 106
4, 62422, Note_on_c, 9, 69, 0
4, 62438, Note_on_c, 9, 35, 0
4, 62464, Note_on_c, 9, 69, 44
4, 62481, Note_on_c, 9, 69, 0
4, 62524, Note_on_c, 9, 40, 61
4, 62524, Note_on_c, 9, 69, 61
4, 62524, Note_on_c, 9, 37, 72
4, 62527, Note_on_c, 9, 42, 74
4, 62532, Note_on_c, 9, 51, 0
4, 62547, Note_on_c, 9, 69, 0
4, 62553, Note_on_c, 9, 37, 0
4, 62557, Note_on_c, 9, 42, 0
4, 62557, Note_on_c, 9, 40, 0
4, 62584, Note_on_c, 9, 35, 58
4, 62584, Note_on_c, 9, 69, 35
4, 62586, Note_on_c, 9, 51, 92
4, 62604, Note_on_c, 9, 69, 0
4, 62608, Note_on_c, 9, 35, 0
4, 62612, Note_on_c, 9, 51, 0
4, 62644, Note_on_c, 9, 69, 33
4, 62644, Note_on_c, 9, 35, 52
4, 62657, Note_on_c, 9, 51, 2
4, 62666, Note_on_c, 9, 51, 0
4, 62667, Note_on_c, 9, 69, 0
4, 62672, Note_on_c, 9, 35, 0
4, 62704, Note_on_c, 9, 69, 33
4, 62704, Note_on_c, 9, 35, 53
4, 62704, Note_on_c, 9, 40, 51
4, 62704, Note_on_c, 9, 37, 77
4, 62706, Note_on_c, 9, 51, 92
4, 62723, Note_on_c, 9, 69, 0
4, 62730, Note_on_c, 9, 37, 0
4, 62733, Note_on_c, 9, 35, 0
4, 62736, Note_on_c, 9, 40, 0
4, 62764, Note_on_c, 9, 69, 62
4, 62767, Note_on_c, 9, 42, 79
4, 62778, Note_on_c, 9, 51, 0
4, 62786, Note_on_c, 9, 69, 0
4, 62795, Note_on_c, 9, 42, 0
4, 62824, Note_on_c, 9, 69, 48
4, 62824, Note_on_c, 9, 35, 58
4, 62830, Note_on_c, 9, 51, 68
4, 62842, Note_on_c, 9, 69, 0
4, 62851, Note_on_c, 9, 35, 0
4, 62854, Note_on_c, 9, 51, 0
4, 62884, Note_on_c, 9, 69, 42
4, 62884, Note_on_c, 9, 35, 53
4, 62884, Note_on_c, 9, 37, 72
4, 62887, Note_on_c, 9, 51, 115
4, 62902, Note_on_c, 9, 69, 0
4, 62912, Note_on_c, 9, 35, 0
4, 62913, Note_on_c, 9, 37, 0
4, 62944, Note_on_c, 9, 69, 40
4, 62961, Note_on_c, 9, 69, 0
4, 63004, Note_on_c, 9, 69, 59
4, 63004, Note_on_c, 9, 40, 46
4, 63007, Note_on_c, 9, 42, 77
4, 63026, Note_on_c, 9, 69, 0
4, 63032, Note_on_c, 9, 51, 0
4, 63032, Note_on_c, 9, 42, 0
4, 63036, Note_on_c, 9, 40, 0
4, 63064, Note_on_c, 9, 69, 47
4, 63064, Note_on_c, 9, 35, 57
4, 63064, Note_on_c, 9, 37, 70
4, 63075, Note_on_c, 9, 51, 92
4, 63085, Note_on_c, 9, 69, 0
4, 63090, Note_on_c, 9, 35, 0
4, 63092, Note_on_c, 9, 37, 0
4, 63124, Note_on_c, 9, 35, 42
4, 63124, Note_on_c, 9, 69, 42
4, 63147, Note_on_c, 9, 69, 0
4, 63153, Note_on_c, 9, 35, 0
4, 63168, Note_on_c, 9, 51, 0
4, 63184, Note_on_c, 9, 69, 32
4, 63184, Note_on_c, 9, 40, 53
4, 63194, Note_on_c, 9, 51, 82
4, 63203, Note_on_c, 9, 69, 0
4, 63215, Note_on_c, 9, 40, 0
4, 63244, Note_on_c, 9, 69, 59
4, 63244, Note_on_c, 9, 37, 72
4, 63247, Note_on_c, 9, 42, 79
4, 63268, Note_on_c, 9, 69, 0
4, 63272, Note_on_c, 9, 37, 0
4, 63274, Note_on_c, 9, 42, 0
4, 63275, Note_on_c, 9, 51, 0
4, 63304, Note_on_c, 9, 35, 63
4, 63304, Note_on_c, 9, 69, 45
4, 63314, Note_on_c, 9, 51, 106
4, 63323, Note_on_c, 9, 69, 0
4, 63332, Note_on_c, 9, 35, 0
4, 63364, Note_on_c, 9, 69, 48
4, 63364, Note_on_c, 9, 35, 42
4, 63384, Note_on_c, 9, 69, 0
4, 63395, Note_on_c, 9, 35, 0
4, 63405, Note_on_c, 9, 51, 0
4, 63424, Note_on_c, 9, 69, 32
4, 63429, Note_on_c, 9, 51, 82
4, 63441, Note_on_c, 9, 69, 0
4, 63484, Note_on_c, 9, 37, 72
4, 63484, Note_on_c, 9, 69, 61
4, 63484, Note_on_c, 9, 40, 61
4, 63487, Note_on_c, 9, 42, 74
4, 63501, Note_on_c, 9, 51, 0
4, 63505, Note_on_c, 9, 69, 0
4, 63510, Note_on_c, 9, 37, 0
4, 63517, Note_on_c, 9, 42, 0
4, 63517, Note_on_c, 9, 40, 0
4, 63544, Note_on_c, 9, 35, 40
4, 63544, Note_on_c, 9, 69, 44
4, 63555, Note_on_c, 9, 51, 96
4, 63565, Note_on_c, 9, 69, 0
4, 63570, Note_on_c, 9, 35, 0
4, 63603, Note_on_c, 9, 51, 0
4, 63604, Note_on_c, 9, 35, 53
4, 63604, Note_on_c, 9, 69, 58
4, 63623, Note_on_c, 9, 69, 0
4, 63631, Note_on_c, 9, 35, 0
4, 63664, Note_on_c, 9, 37, 70
4, 63664, Note_on_c, 9, 69, 41
4, 63664, Note_on_c, 9, 40, 51
4, 63670, Note_on_c, 9, 51, 127
4, 63684, Note_on_c, 9, 69, 0
4, 63692, Note_on_c, 9, 37, 0
4, 63696, Note_on_c, 9, 40, 0
4, 63724, Note_on_c, 9, 69, 59
4, 63727, Note_on_c, 9, 42, 79
4, 63738, Note_on_c, 9, 51, 0
4, 63747, Note_on_c, 9, 69, 0
4, 63755, Note_on_c, 9, 42, 0
4, 63784, Note_on_c, 9, 69, 48
4, 63784, Note_on_c, 9, 51, 68
4, 63784, Note_on_c, 9, 35, 58
4, 63801, Note_on_c, 9, 51, 0
4, 63803, Note_on_c, 9, 69, 0
4, 63812, Note_on_c, 9, 35, 0
4, 63842, Note_on_c, 9, 51, 127
4, 63844, Note_on_c, 9, 69, 44
4, 63844, Note_on_c, 9, 35, 52
4, 63844, Note_on_c, 9, 37, 77
4, 63861, Note_on_c, 9, 69, 0
4, 63870, Note_on_c, 9, 35, 0
4, 63871, Note_on_c, 9, 37, 0
4, 63904, Note_on_c, 9, 69, 45
4, 63920, Note_on_c, 9, 69, 0
4, 63964, Note_on_c, 9, 69, 62
4, 63964, Note_on_c, 9, 40, 46
4, 63968, Note_on_c, 9, 42, 77
4, 63981, Note_on_c, 9, 51, 0
4, 63984, Note_on_c, 9, 69, 0
4, 63993, Note_on_c, 9, 42, 0
4, 63996, Note_on_c, 9, 40, 0
4, 64024, Note_on_c, 9, 69, 53
4, 64024, Note_on_c, 9, 37, 74
4, 64024, Note_on_c, 9, 35, 53
4, 64031, Note_on_c, 9, 51, 77
4, 64041, Note_on_c, 9, 69, 0
4, 64049, Note_on_c, 9, 35, 0
4, 64055, Note_on_c, 9, 37, 0
4, 64084, Note_on_c, 9, 69, 44
4, 64084, Note_on_c, 9, 35, 50
4, 64105, Note_on_c, 9, 69, 0
4, 64110, Note_on_c, 9, 51, 0
4, 64112, Note_on_c, 9, 35, 0
4, 64144, Note_on_c, 9, 69, 33
4, 64144, Note_on_c, 9, 40, 53
4, 64147, Note_on_c, 9, 51, 106
4, 64165, Note_on_c, 9, 69, 0
4, 64175, Note_on_c, 9, 40, 0
4, 64204, Note_on_c, 9, 37, 72
4, 64204, Note_on_c, 9, 69, 71
4, 64208, Note_on_c, 9, 42, 79
4, 64217, Note_on_c, 9, 51, 0
4, 64227, Note_on_c, 9, 69, 0
4, 64234, Note_on_c, 9, 37, 0
4, 64235, Note_on_c, 9, 42, 0
4, 64264, Note_on_c, 9, 35, 54
4, 64264, Note_on_c, 9, 69, 50
4, 64270, Note_on_c, 9, 51, 77
4, 64281, Note_on_c, 9, 69, 0
4, 64291, Note_on_c, 9, 35, 0
4, 64294, Note_on_c, 9, 51, 0
4, 64324, Note_on_c, 9, 35, 40
4, 64324, Note_on_c, 9, 69, 42
4, 64331, Note_on_c, 9, 51, 115
4, 64344, Note_on_c, 9, 69, 0
4, 64356, Note_on_c, 9, 35, 0
4, 64384, Note_on_c, 9, 69, 48
4, 64401, Note_on_c, 9, 69, 0
4, 64444, Note_on_c, 9, 40, 61
4, 64444, Note_on_c, 9, 37, 72
4, 64444, Note_on_c, 9, 69, 62
4, 64448, Note_on_c, 9, 42, 74
4, 64450, Note_on_c, 9, 51, 0
4, 64465, Note_on_c, 9, 69, 0
4, 64475, Note_on_c, 9, 37, 0
4, 64477, Note_on_c, 9, 40, 0
4, 64478, Note_on_c, 9, 42, 0
4, 64504, Note_on_c, 9, 69, 48
4, 64504, Note_on_c, 9, 35, 60
4, 64507, Note_on_c, 9, 51, 127
4, 64521, Note_on_c, 9, 69, 0
4, 64527, Note_on_c, 9, 35, 0
4, 64564, Note_on_c, 9, 69, 42
4, 64564, Note_on_c, 9, 35, 49
4, 64586, Note_on_c, 9, 69, 0
4, 64588, Note_on_c, 9, 35, 0
4, 64589, Note_on_c, 9, 51, 0
4, 64624, Note_on_c, 9, 37, 72
4, 64624, Note_on_c, 9, 35, 60
4, 64624, Note_on_c, 9, 69, 45
4, 64624, Note_on_c, 9, 40, 51
4, 64626, Note_on_c, 9, 51, 106
4, 64642, Note_on_c, 9, 69, 0
4, 64651, Note_on_c, 9, 37, 0
4, 64652, Note_on_c, 9, 35, 0
4, 64656, Note_on_c, 9, 40, 0
4, 64684, Note_on_c, 9, 69, 62
4, 64688, Note_on_c, 9, 42, 79
4, 64694, Note_on_c, 9, 51, 0
4, 64707, Note_on_c, 9, 69, 0
4, 64716, Note_on_c, 9, 42, 0
4, 64743, Note_on_c, 9, 51, 92
4, 64744, Note_on_c, 9, 69, 47
4, 64744, Note_on_c, 9, 35, 50
4, 64762, Note_on_c, 9, 69, 0
4, 64762, Note_on_c, 9, 51, 0
4, 64769, Note_on_c, 9, 35, 0
4, 64804, Note_on_c, 9, 69, 47
4, 64804, Note_on_c, 9, 35, 50
4, 64804, Note_on_c, 9, 37, 72
4, 64806, Note_on_c, 9, 51, 127
4, 64825, Note_on_c, 9, 69, 0
4, 64833, Note_on_c, 9, 35, 0
4, 64833, Note_on_c, 9, 37, 0
4, 64864, Note_on_c, 9, 69, 42
4, 64880, Note_on_c, 9, 69, 0
4, 64924, Note_on_c, 9, 51, 0
4, 64924, Note_on_c, 9, 69, 62
4, 64924, Note_on_c, 9, 40, 46
4, 64928, Note_on_c, 9, 42, 77
4, 64946, Note_on_c, 9, 69, 0
4, 64953, Note_on_c, 9, 42, 0
4, 64956, Note_on_c, 9, 40, 0
4, 64978, Note_on_c, 9, 51, 96
4, 64984, Note_on_c, 9, 35, 49
4, 64984, Note_on_c, 9, 37, 72
4, 64984, Note_on_c, 9, 69, 50
4, 65000, Note_on_c, 9, 69, 0
4, 65011, Note_on_c, 9, 35, 0
4, 65013, Note_on_c, 9, 37, 0
4, 65044, Note_on_c, 9, 35, 53
4, 65044, Note_on_c, 9, 69, 41
4, 65063, Note_on_c, 9, 51, 0
4, 65065, Note_on_c, 9, 69, 0
4, 65075, Note_on_c, 9, 35, 0
4, 65095, Note_on_c, 9, 51, 73
4, 65104, Note_on_c, 9, 40, 53
4, 65104, Note_on_c, 9, 69, 47
4, 65123, Note_on_c, 9, 69, 0
4, 65135, Note_on_c, 9, 40, 0
4, 65164, Note_on_c, 9, 37, 70
4, 65164, Note_on_c, 9, 69, 62
4, 65168, Note_on_c, 9, 51, 0
4, 65168, Note_on_c, 9, 42, 79
4, 65187, Note_on_c, 9, 69, 0
4, 65192, Note_on_c, 9, 37, 0
4, 65195, Note_on_c, 9, 42, 0
4, 65222, Note_on_c, 9, 51, 68
4, 65224, Note_on_c, 9, 69, 48
4, 65224, Note_on_c, 9, 35, 57
4, 65242, Note_on_c, 9, 69, 0
4, 65249, Note_on_c, 9, 35, 0
4, 65250, Note_on_c, 9, 51, 0
4, 65284, Note_on_c, 9, 69, 58
4, 65284, Note_on_c, 9, 35, 50
4, 65297, Note_on_c, 9, 51, 86
4, 65305, Note_on_c, 9, 69, 0
4, 65315, Note_on_c, 9, 35, 0
4, 65340, Note_on_c, 9, 51, 0
4, 65344, Note_on_c, 9, 69, 47
4, 65362, Note_on_c, 9, 69, 0
4, 65404, Note_on_c, 9, 40, 61
4, 65404, Note_on_c, 9, 69, 59
4, 65404, Note_on_c, 9, 37, 68
4, 65408, Note_on_c, 9, 42, 74
4, 65411, Note_on_c, 9, 51, 38
4, 65426, Note_on_c, 9, 69, 0
4, 65428, Note_on_c, 9, 51, 0
4, 65436, Note_on_c, 9, 37, 0
4, 65437, Note_on_c, 9, 40, 0
4, 65438, Note_on_c, 9, 42, 0
4, 65464, Note_on_c, 9, 69, 52
4, 65464, Note_on_c, 9, 35, 57
4, 65466, Note_on_c, 9, 51, 92
4, 65483, Note_on_c, 9, 69, 0
4, 65489, Note_on_c, 9, 35, 0
4, 65516, Note_on_c, 9, 51, 0
4, 65524, Note_on_c, 9, 69, 44
4, 65524, Note_on_c, 9, 35, 58
4, 65548, Note_on_c, 9, 69, 0
4, 65549, Note_on_c, 9, 35, 0
4, 65582, Note_on_c, 9, 51, 106
4, 65584, Note_on_c, 9, 35, 46
4, 65584, Note_on_c, 9, 40, 51
4, 65584, Note_on_c, 9, 69, 41
4, 65584, Note_on_c, 9, 37, 68
4, 65605, Note_on_c, 9, 69, 0
4, 65612, Note_on_c, 9, 35, 0
4, 65612, Note_on_c, 9, 37, 0
4, 65616, Note_on_c, 9, 40, 0
4, 65644, Note_on_c, 9, 69, 61
4, 65648, Note_on_c, 9, 42, 79
4, 65659, Note_on_c, 9, 51, 0
4, 65667, Note_on_c, 9, 69, 0
4, 65676, Note_on_c, 9, 42, 0
4, 65704, Note_on_c, 9, 35, 60
4, 65704, Note_on_c, 9, 69, 59
4, 65707, Note_on_c, 9, 51, 65
4, 65724, Note_on_c, 9, 69, 0
4, 65727, Note_on_c, 9, 51, 0
4, 65728, Note_on_c, 9, 35, 0
4, 65761, Note_on_c, 9, 51, 115
4, 65762, Note_on_c, 9, 49, 41
4, 65764, Note_on_c, 9, 35, 79
4, 65764, Note_on_c, 9, 69, 75
4, 65764, Note_on_c, 9, 37, 57
4, 65782, Note_on_c, 9, 69, 0
4, 65791, Note_on_c, 9, 35, 0
4, 65791, Note_on_c, 9, 37, 0
4, 65824, Note_on_c, 9, 69, 31
4, 65842, Note_on_c, 9, 69, 0
4, 65884, Note_on_c, 9, 40, 46
4, 65884, Note_on_c, 9, 69, 28
4, 65888, Note_on_c, 9, 42, 77
4, 65895, Note_on_c, 9, 51, 0
4, 65902, Note_on_c, 9, 69, 0
4, 65913, Note_on_c, 9, 42, 0
4, 65916, Note_on_c, 9, 40, 0
4, 65944, Note_on_c, 9, 35, 52
4, 65944, Note_on_c, 9, 37, 62
4, 65944, Note_on_c, 9, 69, 59
4, 65950, Note_on_c, 9, 51, 68
4, 65966, Note_on_c, 9, 69, 0
4, 65969, Note_on_c, 9, 37, 0
4, 65970, Note_on_c, 9, 35, 0
4, 65975, Note_on_c, 9, 51, 0
4, 66004, Note_on_c, 9, 69, 32
4, 66004, Note_on_c, 9, 35, 52
4, 66029, Note_on_c, 9, 69, 0
4, 66064, Note_on_c, 9, 40, 53
4, 66064, Note_on_c, 9, 69, 33
4, 66064, Note_on_c, 9, 51, 127
4, 66080, Note_on_c, 9, 69, 0
4, 66095, Note_on_c, 9, 40, 0
4, 66097, Note_on_c, 9, 51, 0
4, 66103, Note_on_c, 9, 35, 0
4, 66124, Note_on_c, 9, 69, 61
4, 66124, Note_on_c, 9, 37, 72
4, 66125, Note_on_c, 9, 49, 0
4, 66128, Note_on_c, 9, 42, 79
4, 66146, Note_on_c, 9, 37, 0
4, 66149, Note_on_c, 9, 69, 0
4, 66155, Note_on_c, 9, 42, 0
4, 66183, Note_on_c, 9, 51, 86
4, 66184, Note_on_c, 9, 35, 45
4, 66184, Note_on_c, 9, 69, 37
4, 66204, Note_on_c, 9, 69, 0
4, 66206, Note_on_c, 9, 51, 0
4, 66207, Note_on_c, 9, 35, 0
4, 66244, Note_on_c, 9, 69, 59
4, 66244, Note_on_c, 9, 35, 49
4, 66245, Note_on_c, 9, 69, 75
4, 66245, Note_on_c, 9, 35, 79
4, 66245, Note_on_c, 9, 42, 73
4, 66245, Note_on_c, 9, 37, 57
4, 66255, Note_on_c, 9, 51, 96
4, 66263, Note_on_c, 9, 69, 0
4, 66264, Note_on_c, 9, 42, 0
4, 66269, Note_on_c, 9, 69, 0
4, 66272, Note_on_c, 9, 35, 0
4, 66272, Note_on_c, 9, 37, 0
4, 66286, Note_on_c, 9, 35, 0
4, 66305, Note_on_c, 9, 69, 31
4, 66323, Note_on_c, 9, 69, 0
4, 66364, Note_on_c, 9, 40, 61
4, 66365, Note_on_c, 9, 69, 28
4, 66365, Note_on_c, 9, 42, 77
4, 66378, Note_on_c, 9, 51, 0
4, 66383, Note_on_c, 9, 69, 0
4, 66390, Note_on_c, 9, 42, 0
4, 66397, Note_on_c, 9, 40, 0
4, 66425, Note_on_c, 9, 35, 52
4, 66425, Note_on_c, 9, 37, 62
4, 66425, Note_on_c, 9, 69, 59
4, 66427, Note_on_c, 9, 51, 106
4, 66447, Note_on_c, 9, 69, 0
4, 66450, Note_on_c, 9, 37, 0
4, 66451, Note_on_c, 9, 35, 0
4, 66474, Note_on_c, 9, 51, 0
4, 66485, Note_on_c, 9, 35, 52
4, 66485, Note_on_c, 9, 69, 32
4, 66510, Note_on_c, 9, 69, 0
4, 66519, Note_on_c, 9, 51, 86
4, 66544, Note_on_c, 9, 40, 51
4, 66545, Note_on_c, 9, 69, 33
4, 66561, Note_on_c, 9, 69, 0
4, 66576, Note_on_c, 9, 40, 0
4, 66584, Note_on_c, 9, 35, 0
4, 66605, Note_on_c, 9, 37, 72
4, 66605, Note_on_c, 9, 69, 61
4, 66605, Note_on_c, 9, 42, 79
4, 66614, Note_on_c, 9, 51, 0
4, 66627, Note_on_c, 9, 37, 0
4, 66630, Note_on_c, 9, 69, 0
4, 66632, Note_on_c, 9, 42, 0
4, 66658, Note_on_c, 9, 51, 92
4, 66665, Note_on_c, 9, 69, 37
4, 66665, Note_on_c, 9, 35, 45
4, 66679, Note_on_c, 9, 51, 0
4, 66685, Note_on_c, 9, 69, 0
4, 66688, Note_on_c, 9, 35, 0
4, 66718, Note_on_c, 9, 51, 127
4, 66725, Note_on_c, 9, 69, 59
4, 66725, Note_on_c, 9, 35, 49
4, 66750, Note_on_c, 9, 69, 0
4, 66767, Note_on_c, 9, 35, 0
4, 66785, Note_on_c, 9, 69, 31
4, 66805, Note_on_c, 9, 69, 0
4, 66844, Note_on_c, 9, 51, 0
4, 66844, Note_on_c, 9, 40, 46
4, 66845, Note_on_c, 9, 37, 70
4, 66845, Note_on_c, 9, 42, 74
4, 66845, Note_on_c, 9, 69, 51
4, 66864, Note_on_c, 9, 69, 0
4, 66870, Note_on_c, 9, 37, 0
4, 66875, Note_on_c, 9, 42, 0
4, 66876, Note_on_c, 9, 40, 0
4, 66905, Note_on_c, 9, 35, 44
4, 66905, Note_on_c, 9, 51, 86
4, 66905, Note_on_c, 9, 69, 59
4, 66926, Note_on_c, 9, 69, 0
4, 66930, Note_on_c, 9, 51, 0
4, 66932, Note_on_c, 9, 35, 0
4, 66964, Note_on_c, 9, 51, 96
4, 66965, Note_on_c, 9, 35, 47
4, 66965, Note_on_c, 9, 69, 42
4, 66986, Note_on_c, 9, 69, 0
4, 66998, Note_on_c, 9, 35, 0
4, 67024, Note_on_c, 9, 40, 53
4, 67025, Note_on_c, 9, 37, 70
4, 67025, Note_on_c, 9, 69, 42
4, 67025, Note_on_c, 9, 35, 47
4, 67041, Note_on_c, 9, 69, 0
4, 67050, Note_on_c, 9, 37, 0
4, 67055, Note_on_c, 9, 35, 0
4, 67055, Note_on_c, 9, 40, 0
4, 67085, Note_on_c, 9, 42, 79
4, 67085, Note_on_c, 9, 69, 61
4, 67104, Note_on_c, 9, 51, 0
4, 67108, Note_on_c, 9, 69, 0
4, 67113, Note_on_c, 9, 42, 0
4, 67145, Note_on_c, 9, 69, 41
4, 67145, Note_on_c, 9, 35, 40
4, 67151, Note_on_c, 9, 51, 86
4, 67161, Note_on_c, 9, 69, 0
4, 67171, Note_on_c, 9, 35, 0
4, 67205, Note_on_c, 9, 69, 58
4, 67205, Note_on_c, 9, 35, 41
4, 67205, Note_on_c, 9, 37, 72
4, 67214, Note_on_c, 9, 51, 0
4, 67227, Note_on_c, 9, 69, 0
4, 67229, Note_on_c, 9, 37, 0
4, 67233, Note_on_c, 9, 35, 0
4, 67265, Note_on_c, 9, 69, 30
4, 67267, Note_on_c, 9, 51, 127
4, 67284, Note_on_c, 9, 69, 0
4, 67324, Note_on_c, 9, 40, 61
4, 67325, Note_on_c, 9, 69, 42
4, 67325, Note_on_c, 9, 42, 77
4, 67343, Note_on_c, 9, 69, 0
4, 67350, Note_on_c, 9, 42, 0
4, 67357, Note_on_c, 9, 40, 0
4, 67365, Note_on_c, 9, 51, 0
4, 67385, Note_on_c, 9, 35, 54
4, 67385, Note_on_c, 9, 69, 59
4, 67385, Note_on_c, 9, 37, 64
4, 67395, Note_on_c, 9, 51, 2
4, 67407, Note_on_c, 9, 69, 0
4, 67408, Note_on_c, 9, 35, 0
4, 67411, Note_on_c, 9, 37, 0
4, 67445, Note_on_c, 9, 69, 32
4, 67445, Note_on_c, 9, 35, 44
4, 67461, Note_on_c, 9, 51, 0
4, 67468, Note_on_c, 9, 69, 0
4, 67479, Note_on_c, 9, 35, 0
4, 67504, Note_on_c, 9, 40, 51
4, 67505, Note_on_c, 9, 69, 33
4, 67509, Note_on_c, 9, 51, 106
4, 67525, Note_on_c, 9, 69, 0
4, 67536, Note_on_c, 9, 40, 0
4, 67565, Note_on_c, 9, 69, 53
4, 67565, Note_on_c, 9, 42, 79
4, 67565, Note_on_c, 9, 37, 68
4, 67588, Note_on_c, 9, 69, 0
4, 67591, Note_on_c, 9, 37, 0
4, 67592, Note_on_c, 9, 42, 0
4, 67625, Note_on_c, 9, 69, 42
4, 67625, Note_on_c, 9, 35, 45
4, 67639, Note_on_c, 9, 51, 0
4, 67645, Note_on_c, 9, 69, 0
4, 67651, Note_on_c, 9, 35, 0
4, 67685, Note_on_c, 9, 69, 59
4, 67685, Note_on_c, 9, 35, 52
4, 67688, Note_on_c, 9, 51, 115
4, 67710, Note_on_c, 9, 69, 0
4, 67715, Note_on_c, 9, 35, 0
4, 67745, Note_on_c, 9, 69, 32
4, 67764, Note_on_c, 9, 69, 0
4, 67769, Note_on_c, 9, 51, 0
4, 67804, Note_on_c, 9, 40, 46
4, 67805, Note_on_c, 9, 69, 32
4, 67805, Note_on_c, 9, 42, 74
4, 67805, Note_on_c, 9, 37, 70
4, 67808, Note_on_c, 9, 51, 127
4, 67824, Note_on_c, 9, 69, 0
4, 67833, Note_on_c, 9, 37, 0
4, 67835, Note_on_c, 9, 42, 0
4, 67836, Note_on_c, 9, 40, 0
4, 67865, Note_on_c, 9, 35, 50
4, 67865, Note_on_c, 9, 69, 58
4, 67889, Note_on_c, 9, 69, 0
4, 67889, Note_on_c, 9, 35, 0
4, 67894, Note_on_c, 9, 51, 0
4, 67925, Note_on_c, 9, 35, 47
4, 67925, Note_on_c, 9, 69, 44
4, 67950, Note_on_c, 9, 69, 0
4, 67954, Note_on_c, 9, 35, 0
4, 67984, Note_on_c, 9, 40, 53
4, 67985, Note_on_c, 9, 35, 46
4, 67985, Note_on_c, 9, 69, 41
4, 67985, Note_on_c, 9, 37, 68
4, 67987, Note_on_c, 9, 51, 96
4, 68005, Note_on_c, 9, 69, 0
4, 68011, Note_on_c, 9, 37, 0
4, 68015, Note_on_c, 9, 40, 0
4, 68016, Note_on_c, 9, 35, 0
4, 68045, Note_on_c, 9, 69, 61
4, 68045, Note_on_c, 9, 42, 79
4, 68068, Note_on_c, 9, 51, 0
4, 68071, Note_on_c, 9, 69, 0
4, 68073, Note_on_c, 9, 42, 0
4, 68105, Note_on_c, 9, 69, 44
4, 68105, Note_on_c, 9, 35, 42
4, 68126, Note_on_c, 9, 69, 0
4, 68131, Note_on_c, 9, 35, 0
4, 68164, Note_on_c, 9, 51, 127
4, 68165, Note_on_c, 9, 35, 50
4, 68165, Note_on_c, 9, 37, 74
4, 68165, Note_on_c, 9, 69, 59
4, 68189, Note_on_c, 9, 69, 0
4, 68192, Note_on_c, 9, 35, 0
4, 68193, Note_on_c, 9, 37, 0
4, 68225, Note_on_c, 9, 69, 35
4, 68246, Note_on_c, 9, 69, 0
4, 68284, Note_on_c, 9, 40, 61
4, 68285, Note_on_c, 9, 69, 42
4, 68285, Note_on_c, 9, 42, 77
4, 68303, Note_on_c, 9, 69, 0
4, 68309, Note_on_c, 9, 51, 0
4, 68310, Note_on_c, 9, 42, 0
4, 68317, Note_on_c, 9, 40, 0
4, 68345, Note_on_c, 9, 35, 49
4, 68345, Note_on_c, 9, 69, 58
4, 68345, Note_on_c, 9, 37, 72
4, 68354, Note_on_c, 9, 51, 106
4, 68368, Note_on_c, 9, 69, 0
4, 68368, Note_on_c, 9, 35, 0
4, 68372, Note_on_c, 9, 37, 0
4, 68392, Note_on_c, 9, 51, 0
4, 68405, Note_on_c, 9, 69, 44
4, 68405, Note_on_c, 9, 35, 41
4, 68427, Note_on_c, 9, 69, 0
4, 68435, Note_on_c, 9, 35, 0
4, 68464, Note_on_c, 9, 40, 51
4, 68465, Note_on_c, 9, 69, 35
4, 68468, Note_on_c, 9, 51, 106
4, 68485, Note_on_c, 9, 69, 0
4, 68496, Note_on_c, 9, 40, 0
4, 68525, Note_on_c, 9, 37, 72
4, 68525, Note_on_c, 9, 42, 79
4, 68525, Note_on_c, 9, 69, 56
4, 68549, Note_on_c, 9, 69, 0
4, 68552, Note_on_c, 9, 42, 0
4, 68553, Note_on_c, 9, 37, 0
4, 68585, Note_on_c, 9, 69, 36
4, 68585, Note_on_c, 9, 35, 53
4, 68596, Note_on_c, 9, 51, 0
4, 68607, Note_on_c, 9, 35, 0
4, 68607, Note_on_c, 9, 69, 0
4, 68640, Note_on_c, 9, 51, 106
4, 68645, Note_on_c, 9, 35, 40
4, 68645, Note_on_c, 9, 69, 58
4, 68668, Note_on_c, 9, 69, 0
4, 68675, Note_on_c, 9, 35, 0
4, 68705, Note_on_c, 9, 69, 36
4, 68707, Note_on_c, 9, 51, 0
4, 68724, Note_on_c, 9, 69, 0
4, 68763, Note_on_c, 9, 51, 115
4, 68764, Note_on_c, 9, 40, 46
4, 68765, Note_on_c, 9, 37, 70
4, 68765, Note_on_c, 9, 69, 45
4, 68765, Note_on_c, 9, 42, 74
4, 68782, Note_on_c, 9, 69, 0
4, 68792, Note_on_c, 9, 37, 0
4, 68795, Note_on_c, 9, 42, 0
4, 68796, Note_on_c, 9, 40, 0
4, 68825, Note_on_c, 9, 35, 49
4, 68825, Note_on_c, 9, 69, 58
4, 68845, Note_on_c, 9, 69, 0
4, 68850, Note_on_c, 9, 35, 0
4, 68884, Note_on_c, 9, 51, 0
4, 68885, Note_on_c, 9, 35, 40
4, 68885, Note_on_c, 9, 69, 47
4, 68904, Note_on_c, 9, 69, 0
4, 68915, Note_on_c, 9, 35, 0
4, 68941, Note_on_c, 9, 51, 127
4, 68944, Note_on_c, 9, 40, 53
4, 68945, Note_on_c, 9, 37, 68
4, 68945, Note_on_c, 9, 69, 33
4, 68963, Note_on_c, 9, 69, 0
4, 68971, Note_on_c, 9, 37, 0
4, 68975, Note_on_c, 9, 40, 0
4, 69005, Note_on_c, 9, 69, 62
4, 69005, Note_on_c, 9, 42, 79
4, 69028, Note_on_c, 9, 69, 0
4, 69033, Note_on_c, 9, 42, 0
4, 69065, Note_on_c, 9, 35, 50
4, 69065, Note_on_c, 9, 69, 45
4, 69079, Note_on_c, 9, 51, 0
4, 69086, Note_on_c, 9, 69, 0
4, 69090, Note_on_c, 9, 35, 0
4, 69120, Note_on_c, 9, 51, 127
4, 69125, Note_on_c, 9, 69, 47
4, 69125, Note_on_c, 9, 37, 70
4, 69125, Note_on_c, 9, 35, 50
4, 69150, Note_on_c, 9, 69, 0
4, 69152, Note_on_c, 9, 37, 0
4, 69153, Note_on_c, 9, 35, 0
4, 69185, Note_on_c, 9, 69, 31
4, 69205, Note_on_c, 9, 69, 0
4, 69244, Note_on_c, 9, 40, 61
4, 69245, Note_on_c, 9, 42, 77
4, 69245, Note_on_c, 9, 69, 42
4, 69259, Note_on_c, 9, 51, 0
4, 69265, Note_on_c, 9, 69, 0
4, 69270, Note_on_c, 9, 42, 0
4, 69277, Note_on_c, 9, 40, 0
4, 69305, Note_on_c, 9, 69, 61
4, 69305, Note_on_c, 9, 51, 127
4, 69305, Note_on_c, 9, 37, 72
4, 69305, Note_on_c, 9, 35, 50
4, 69326, Note_on_c, 9, 35, 0
4, 69329, Note_on_c, 9, 69, 0
4, 69331, Note_on_c, 9, 37, 0
4, 69365, Note_on_c, 9, 35, 56
4, 69365, Note_on_c, 9, 69, 35
4, 69378, Note_on_c, 9, 51, 0
4, 69388, Note_on_c, 9, 69, 0
4, 69395, Note_on_c, 9, 35, 0
4, 69423, Note_on_c, 9, 51, 127
4, 69424, Note_on_c, 9, 40, 51
4, 69425, Note_on_c, 9, 69, 36
4, 69443, Note_on_c, 9, 69, 0
4, 69456, Note_on_c, 9, 40, 0
4, 69485, Note_on_c, 9, 69, 58
4, 69485, Note_on_c, 9, 37, 68
4, 69485, Note_on_c, 9, 42, 79
4, 69510, Note_on_c, 9, 69, 0
4, 69512, Note_on_c, 9, 42, 0
4, 69515, Note_on_c, 9, 37, 0
4, 69515, Note_on_c, 9, 51, 0
4, 69545, Note_on_c, 9, 35, 56
4, 69545, Note_on_c, 9, 69, 37
4, 69548, Note_on_c, 9, 51, 77
4, 69564, Note_on_c, 9, 69, 0
4, 69572, Note_on_c, 9, 35, 0
4, 69573, Note_on_c, 9, 51, 0
4, 69605, Note_on_c, 9, 69, 56
4, 69628, Note_on_c, 9, 69, 0
4, 69664, Note_on_c, 9, 51, 43
4, 69665, Note_on_c, 9, 69, 40
4, 69665, Note_on_c, 9, 35, 54
4, 69687, Note_on_c, 9, 69, 0
4, 69693, Note_on_c, 9, 35, 0
4, 69724, Note_on_c, 9, 51, 0
4, 69724, Note_on_c, 9, 40, 46
4, 69725, Note_on_c, 9, 69, 44
4, 69725, Note_on_c, 9, 37, 72
4, 69725, Note_on_c, 9, 42, 74
4, 69744, Note_on_c, 9, 69, 0
4, 69753, Note_on_c, 9, 37, 0
4, 69755, Note_on_c, 9, 42, 0
4, 69756, Note_on_c, 9, 40, 0
4, 69785, Note_on_c, 9, 69, 59
4, 69785, Note_on_c, 9, 35, 46
4, 69797, Note_on_c, 9, 51, 31
4, 69808, Note_on_c, 9, 69, 0
4, 69811, Note_on_c, 9, 35, 0
4, 69819, Note_on_c, 9, 51, 0
4, 69845, Note_on_c, 9, 69, 33
4, 69871, Note_on_c, 9, 69, 0
4, 69904, Note_on_c, 9, 40, 53
4, 69905, Note_on_c, 9, 37, 72
4, 69905, Note_on_c, 9, 35, 50
4, 69905, Note_on_c, 9, 69, 32
4, 69921, Note_on_c, 9, 51, 127
4, 69925, Note_on_c, 9, 69, 0
4, 69932, Note_on_c, 9, 35, 0
4, 69934, Note_on_c, 9, 37, 0
4, 69935, Note_on_c, 9, 40, 0
4, 69965, Note_on_c, 9, 42, 79
4, 69965, Note_on_c, 9, 69, 59
4, 69988, Note_on_c, 9, 69, 0
4, 69993, Note_on_c, 9, 42, 0
4, 69993, Note_on_c, 9, 51, 0
4, 70025, Note_on_c, 9, 35, 54
4, 70025, Note_on_c, 9, 69, 44
4, 70043, Note_on_c, 9, 69, 0
4, 70049, Note_on_c, 9, 35, 0
4, 70085, Note_on_c, 9, 69, 61
4, 70085, Note_on_c, 9, 37, 72
4, 70085, Note_on_c, 9, 35, 57
4, 70092, Note_on_c, 9, 51, 115
4, 70109, Note_on_c, 9, 69, 0
4, 70112, Note_on_c, 9, 35, 0
4, 70113, Note_on_c, 9, 37, 0
4, 70145, Note_on_c, 9, 69, 32
4, 70166, Note_on_c, 9, 69, 0
4, 70204, Note_on_c, 9, 40, 61
4, 70205, Note_on_c, 9, 42, 77
4, 70205, Note_on_c, 9, 69, 62
4, 70222, Note_on_c, 9, 51, 0
4, 70227, Note_on_c, 9, 69, 0
4, 70230, Note_on_c, 9, 42, 0
4, 70237, Note_on_c, 9, 40, 0
4, 70261, Note_on_c, 9, 51, 106
4, 70265, Note_on_c, 9, 35, 63
4, 70265, Note_on_c, 9, 69, 53
4, 70265, Note_on_c, 9, 37, 72
4, 70282, Note_on_c, 9, 69, 0
4, 70289, Note_on_c, 9, 35, 0
4, 70294, Note_on_c, 9, 37, 0
4, 70325, Note_on_c, 9, 69, 33
4, 70325, Note_on_c, 9, 35, 52
4, 70342, Note_on_c, 9, 51, 0
4, 70348, Note_on_c, 9, 69, 0
4, 70354, Note_on_c, 9, 35, 0
4, 70384, Note_on_c, 9, 40, 51
4, 70385, Note_on_c, 9, 69, 32
4, 70387, Note_on_c, 9, 51, 106
4, 70402, Note_on_c, 9, 69, 0
4, 70416, Note_on_c, 9, 40, 0
4, 70445, Note_on_c, 9, 42, 79
4, 70445, Note_on_c, 9, 69, 62
4, 70445, Note_on_c, 9, 37, 72
4, 70469, Note_on_c, 9, 69, 0
4, 70472, Note_on_c, 9, 42, 0
4, 70474, Note_on_c, 9, 37, 0
4, 70505, Note_on_c, 9, 35, 61
4, 70505, Note_on_c, 9, 69, 44
4, 70523, Note_on_c, 9, 69, 0
4, 70530, Note_on_c, 9, 35, 0
4, 70530, Note_on_c, 9, 51, 0
4, 70565, Note_on_c, 9, 35, 52
4, 70565, Note_on_c, 9, 51, 115
4, 70565, Note_on_c, 9, 69, 48
4, 70583, Note_on_c, 9, 69, 0
4, 70599, Note_on_c, 9, 35, 0
4, 70625, Note_on_c, 9, 69, 44
4, 70642, Note_on_c, 9, 69, 0
4, 70650, Note_on_c, 9, 51, 0
4, 70680, Note_on_c, 9, 51, 115
4, 70684, Note_on_c, 9, 40, 46
4, 70685, Note_on_c, 9, 42, 74
4, 70685, Note_on_c, 9, 69, 61
4, 70685, Note_on_c, 9, 37, 72
4, 70708, Note_on_c, 9, 69, 0
4, 70714, Note_on_c, 9, 37, 0
4, 70715, Note_on_c, 9, 42, 0
4, 70716, Note_on_c, 9, 40, 0
4, 70745, Note_on_c, 9, 69, 35
4, 70745, Note_on_c, 9, 35, 58
4, 70765, Note_on_c, 9, 69, 0
4, 70769, Note_on_c, 9, 35, 0
4, 70805, Note_on_c, 9, 69, 33
4, 70805, Note_on_c, 9, 35, 52
4, 70828, Note_on_c, 9, 69, 0
4, 70831, Note_on_c, 9, 51, 0
4, 70833, Note_on_c, 9, 35, 0
4, 70860, Note_on_c, 9, 51, 115
4, 70864, Note_on_c, 9, 40, 53
4, 70865, Note_on_c, 9, 37, 77
4, 70865, Note_on_c, 9, 69, 33
4, 70865, Note_on_c, 9, 35, 53
4, 70884, Note_on_c, 9, 69, 0
4, 70891, Note_on_c, 9, 37, 0
4, 70894, Note_on_c, 9, 35, 0
4, 70895, Note_on_c, 9, 40, 0
4, 70925, Note_on_c, 9, 42, 79
4, 70925, Note_on_c, 9, 69, 62
4, 70933, Note_on_c, 9, 51, 0
4, 70947, Note_on_c, 9, 69, 0
4, 70953, Note_on_c, 9, 42, 0
4, 70985, Note_on_c, 9, 35, 58
4, 70985, Note_on_c, 9, 69, 48
4, 71003, Note_on_c, 9, 69, 0
4, 71012, Note_on_c, 9, 35, 0
4, 71045, Note_on_c, 9, 69, 42
4, 71045, Note_on_c, 9, 37, 72
4, 71045, Note_on_c, 9, 51, 127
4, 71045, Note_on_c, 9, 35, 53
4, 71063, Note_on_c, 9, 69, 0
4, 71073, Note_on_c, 9, 35, 0
4, 71074, Note_on_c, 9, 37, 0
4, 71105, Note_on_c, 9, 69, 40
4, 71122, Note_on_c, 9, 69, 0
4, 71164, Note_on_c, 9, 51, 0
4, 71164, Note_on_c, 9, 40, 61
4, 71165, Note_on_c, 9, 69, 59
4, 71166, Note_on_c, 9, 42, 77
4, 71187, Note_on_c, 9, 69, 0
4, 71191, Note_on_c, 9, 42, 0
4, 71197, Note_on_c, 9, 40, 0
4, 71219, Note_on_c, 9, 51, 86
4, 71225, Note_on_c, 9, 69, 47
4, 71225, Note_on_c, 9, 37, 70
4, 71225, Note_on_c, 9, 35, 57
4, 71238, Note_on_c, 9, 51, 0
4, 71246, Note_on_c, 9, 69, 0
4, 71251, Note_on_c, 9, 35, 0
4, 71253, Note_on_c, 9, 37, 0
4, 71285, Note_on_c, 9, 69, 42
4, 71285, Note_on_c, 9, 35, 42
4, 71286, Note_on_c, 9, 51, 127
4, 71308, Note_on_c, 9, 69, 0
4, 71314, Note_on_c, 9, 35, 0
4, 71344, Note_on_c, 9, 40, 51
4, 71345, Note_on_c, 9, 69, 32
4, 71364, Note_on_c, 9, 69, 0
4, 71376, Note_on_c, 9, 40, 0
4, 71400, Note_on_c, 9, 51, 0
4, 71405, Note_on_c, 9, 37, 72
4, 71405, Note_on_c, 9, 69, 59
4, 71406, Note_on_c, 9, 42, 79
4, 71429, Note_on_c, 9, 69, 0
4, 71433, Note_on_c, 9, 42, 0
4, 71433, Note_on_c, 9, 37, 0
4, 71463, Note_on_c, 9, 51, 50
4, 71465, Note_on_c, 9, 35, 63
4, 71465, Note_on_c, 9, 69, 45
4, 71474, Note_on_c, 9, 51, 0
4, 71484, Note_on_c, 9, 69, 0
4, 71493, Note_on_c, 9, 35, 0
4, 71523, Note_on_c, 9, 51, 86
4, 71525, Note_on_c, 9, 69, 48
4, 71525, Note_on_c, 9, 35, 42
4, 71545, Note_on_c, 9, 69, 0
4, 71552, Note_on_c, 9, 51, 0
4, 71556, Note_on_c, 9, 35, 0
4, 71585, Note_on_c, 9, 69, 32
4, 71602, Note_on_c, 9, 69, 0
4, 71644, Note_on_c, 9, 40, 46
4, 71644, Note_on_c, 9, 51, 115
4, 71645, Note_on_c, 9, 69, 61
4, 71645, Note_on_c, 9, 37, 72
4, 71646, Note_on_c, 9, 42, 74
4, 71666, Note_on_c, 9, 69, 0
4, 71671, Note_on_c, 9, 37, 0
4, 71676, Note_on_c, 9, 42, 0
4, 71676, Note_on_c, 9, 40, 0
4, 71705, Note_on_c, 9, 69, 44
4, 71705, Note_on_c, 9, 35, 40
4, 71726, Note_on_c, 9, 69, 0
4, 71731, Note_on_c, 9, 35, 0
4, 71765, Note_on_c, 9, 35, 53
4, 71765, Note_on_c, 9, 69, 58
4, 71766, Note_on_c, 9, 51, 0
4, 71784, Note_on_c, 9, 69, 0
4, 71792, Note_on_c, 9, 35, 0
4, 71824, Note_on_c, 9, 51, 96
4, 71824, Note_on_c, 9, 40, 53
4, 71825, Note_on_c, 9, 37, 70
4, 71825, Note_on_c, 9, 69, 41
4, 71845, Note_on_c, 9, 69, 0
4, 71853, Note_on_c, 9, 37, 0
4, 71855, Note_on_c, 9, 40, 0
4, 71862, Note_on_c, 9, 51, 0
4, 71885, Note_on_c, 9, 69, 59
4, 71886, Note_on_c, 9, 42, 79
4, 71908, Note_on_c, 9, 69, 0
4, 71914, Note_on_c, 9, 42, 0
4, 71945, Note_on_c, 9, 35, 58
4, 71945, Note_on_c, 9, 69, 48
4, 71948, Note_on_c, 9, 51, 82
4, 71964, Note_on_c, 9, 51, 0
4, 71964, Note_on_c, 9, 69, 0
4, 71973, Note_on_c, 9, 35, 0
4, 72005, Note_on_c, 9, 69, 44
4, 72005, Note_on_c, 9, 35, 52
4, 72005, Note_on_c, 9, 37, 77
4, 72008, Note_on_c, 9, 51, 106
4, 72022, Note_on_c, 9, 69, 0
4, 72031, Note_on_c, 9, 35, 0
4, 72032, Note_on_c, 9, 37, 0
4, 72065, Note_on_c, 9, 69, 45
4, 72081, Note_on_c, 9, 69, 0
4, 72122, Note_on_c, 9, 51, 0
4, 72124, Note_on_c, 9, 40, 61
4, 72125, Note_on_c, 9, 69, 62
4, 72126, Note_on_c, 9, 42, 77
4, 72145, Note_on_c, 9, 69, 0
4, 72151, Note_on_c, 9, 42, 0
4, 72157, Note_on_c, 9, 40, 0
4, 72179, Note_on_c, 9, 51, 115
4, 72185, Note_on_c, 9, 35, 53
4, 72185, Note_on_c, 9, 69, 53
4, 72185, Note_on_c, 9, 37, 74
4, 72202, Note_on_c, 9, 69, 0
4, 72210, Note_on_c, 9, 35, 0
4, 72216, Note_on_c, 9, 37, 0
4, 72230, Note_on_c, 9, 51, 0
4, 72245, Note_on_c, 9, 69, 44
4, 72245, Note_on_c, 9, 35, 50
4, 72266, Note_on_c, 9, 69, 0
4, 72273, Note_on_c, 9, 35, 0
4, 72296, Note_on_c, 9, 51, 127
4, 72304, Note_on_c, 9, 40, 51
4, 72305, Note_on_c, 9, 69, 33
4, 72326, Note_on_c, 9, 69, 0
4, 72336, Note_on_c, 9, 40, 0
4, 72365, Note_on_c, 9, 69, 71
4, 72365, Note_on_c, 9, 37, 72
4, 72366, Note_on_c, 9, 42, 79
4, 72388, Note_on_c, 9, 69, 0
4, 72393, Note_on_c, 9, 42, 0
4, 72395, Note_on_c, 9, 37, 0
4, 72397, Note_on_c, 9, 51, 0
4, 72425, Note_on_c, 9, 69, 50
4, 72425, Note_on_c, 9, 35, 54
4, 72442, Note_on_c, 9, 69, 0
4, 72452, Note_on_c, 9, 35, 0
4, 72482, Note_on_c, 9, 51, 127
4, 72485, Note_on_c, 9, 35, 40
4, 72485, Note_on_c, 9, 69, 42
4, 72505, Note_on_c, 9, 69, 0
4, 72517, Note_on_c, 9, 35, 0
4, 72545, Note_on_c, 9, 69, 48
4, 72562, Note_on_c, 9, 69, 0
4, 72604, Note_on_c, 9, 40, 46
4, 72605, Note_on_c, 9, 37, 72
4, 72605, Note_on_c, 9, 69, 62
4, 72606, Note_on_c, 9, 42, 74
4, 72607, Note_on_c, 9, 51, 0
4, 72626, Note_on_c, 9, 69, 0
4, 72636, Note_on_c, 9, 40, 0
4, 72636, Note_on_c, 9, 37, 0
4, 72636, Note_on_c, 9, 42, 0
4, 72664, Note_on_c, 9, 51, 92
4, 72665, Note_on_c, 9, 35, 60
4, 72665, Note_on_c, 9, 69, 48
4, 72682, Note_on_c, 9, 69, 0
4, 72688, Note_on_c, 9, 35, 0
4, 72725, Note_on_c, 9, 69, 42
4, 72725, Note_on_c, 9, 35, 49
4, 72735, Note_on_c, 9, 51, 0
4, 72747, Note_on_c, 9, 69, 0
4, 72749, Note_on_c, 9, 35, 0
4, 72779, Note_on_c, 9, 51, 96
4, 72784, Note_on_c, 9, 40, 53
4, 72785, Note_on_c, 9, 37, 72
4, 72785, Note_on_c, 9, 69, 45
4, 72785, Note_on_c, 9, 35, 60
4, 72803, Note_on_c, 9, 69, 0
4, 72812, Note_on_c, 9, 37, 0
4, 72813, Note_on_c, 9, 35, 0
4, 72815, Note_on_c, 9, 40, 0
4, 72845, Note_on_c, 9, 69, 62
4, 72846, Note_on_c, 9, 42, 79
4, 72859, Note_on_c, 9, 51, 0
4, 72868, Note_on_c, 9, 69, 0
4, 72874, Note_on_c, 9, 42, 0
4, 72903, Note_on_c, 9, 51, 68
4, 72905, Note_on_c, 9, 35, 50
4, 72905, Note_on_c, 9, 69, 47
4, 72918, Note_on_c, 9, 51, 0
4, 72923, Note_on_c, 9, 69, 0
4, 72930, Note_on_c, 9, 35, 0
4, 72952, Note_on_c, 9, 51, 96
4, 72965, Note_on_c, 9, 69, 47
4, 72965, Note_on_c, 9, 37, 72
4, 72965, Note_on_c, 9, 35, 50
4, 72986, Note_on_c, 9, 69, 0
4, 72994, Note_on_c, 9, 35, 0
4, 72994, Note_on_c, 9, 37, 0
4, 73019, Note_on_c, 9, 51, 0
4, 73025, Note_on_c, 9, 69, 42
4, 73041, Note_on_c, 9, 69, 0
4, 73084, Note_on_c, 9, 40, 61
4, 73085, Note_on_c, 9, 69, 62
4, 73086, Note_on_c, 9, 42, 77
4, 73107, Note_on_c, 9, 69, 0
4, 73111, Note_on_c, 9, 42, 0
4, 73117, Note_on_c, 9, 40, 0
4, 73145, Note_on_c, 9, 69, 50
4, 73145, Note_on_c, 9, 35, 49
4, 73145, Note_on_c, 9, 37, 72
4, 73146, Note_on_c, 9, 51, 115
4, 73161, Note_on_c, 9, 69, 0
4, 73172, Note_on_c, 9, 35, 0
4, 73174, Note_on_c, 9, 37, 0
4, 73182, Note_on_c, 9, 51, 0
4, 73205, Note_on_c, 9, 35, 53
4, 73205, Note_on_c, 9, 69, 41
4, 73221, Note_on_c, 9, 51, 96
4, 73226, Note_on_c, 9, 69, 0
4, 73236, Note_on_c, 9, 35, 0
4, 73264, Note_on_c, 9, 40, 51
4, 73265, Note_on_c, 9, 69, 47
4, 73274, Note_on_c, 9, 51, 0
4, 73284, Note_on_c, 9, 69, 0
4, 73296, Note_on_c, 9, 40, 0
4, 73325, Note_on_c, 9, 69, 62
4, 73325, Note_on_c, 9, 37, 70
4, 73326, Note_on_c, 9, 42, 79
4, 73328, Note_on_c, 9, 51, 127
4, 73348, Note_on_c, 9, 69, 0
4, 73353, Note_on_c, 9, 37, 0
4, 73353, Note_on_c, 9, 42, 0
4, 73382, Note_on_c, 9, 51, 0
4, 73385, Note_on_c, 9, 69, 48
4, 73385, Note_on_c, 9, 35, 57
4, 73403, Note_on_c, 9, 69, 0
4, 73410, Note_on_c, 9, 35, 0
4, 73442, Note_on_c, 9, 51, 127
4, 73445, Note_on_c, 9, 69, 58
4, 73445, Note_on_c, 9, 35, 50
4, 73466, Note_on_c, 9, 69, 0
4, 73476, Note_on_c, 9, 35, 0
4, 73505, Note_on_c, 9, 69, 47
4, 73523, Note_on_c, 9, 69, 0
4, 73564, Note_on_c, 9, 40, 46
4, 73565, Note_on_c, 9, 37, 68
4, 73565, Note_on_c, 9, 69, 59
4, 73566, Note_on_c, 9, 42, 74
4, 73572, Note_on_c, 9, 51, 0
4, 73587, Note_on_c, 9, 69, 0
4, 73596, Note_on_c, 9, 40, 0
4, 73596, Note_on_c, 9, 42, 0
4, 73597, Note_on_c, 9, 37, 0
4, 73625, Note_on_c, 9, 35, 57
4, 73625, Note_on_c, 9, 69, 52
4, 73628, Note_on_c, 9, 51, 82
4, 73644, Note_on_c, 9, 69, 0
4, 73650, Note_on_c, 9, 35, 0
4, 73657, Note_on_c, 9, 51, 0
4, 73685, Note_on_c, 9, 69, 44
4, 73685, Note_on_c, 9, 35, 58
4, 73709, Note_on_c, 9, 69, 0
4, 73710, Note_on_c, 9, 35, 0
4, 73744, Note_on_c, 9, 40, 53
4, 73745, Note_on_c, 9, 69, 41
4, 73745, Note_on_c, 9, 37, 68
4, 73745, Note_on_c, 9, 35, 46
4, 73746, Note_on_c, 9, 51, 82
4, 73766, Note_on_c, 9, 69, 0
4, 73773, Note_on_c, 9, 35, 0
4, 73773, Note_on_c, 9, 51, 0
4, 73773, Note_on_c, 9, 37, 0
4, 73775, Note_on_c, 9, 40, 0
4, 73805, Note_on_c, 9, 69, 61
4, 73806, Note_on_c, 9, 42, 79
4, 73828, Note_on_c, 9, 69, 0
4, 73834, Note_on_c, 9, 42, 0
4, 73860, Note_on_c, 9, 51, 77
4, 73865, Note_on_c, 9, 69, 59
4, 73865, Note_on_c, 9, 35, 60
4, 73882, Note_on_c, 9, 51, 0
4, 73885, Note_on_c, 9, 69, 0
4, 73889, Note_on_c, 9, 35, 0
4, 73921, Note_on_c, 9, 51, 106
4, 73925, Note_on_c, 9, 69, 75
4, 73925, Note_on_c, 9, 37, 57
4, 73925, Note_on_c, 9, 35, 79
4, 73943, Note_on_c, 9, 69, 0
4, 73949, Note_on_c, 9, 35, 0
4, 73952, Note_on_c, 9, 37, 0
4, 73985, Note_on_c, 9, 69, 31
4, 74003, Note_on_c, 9, 69, 0
4, 74044, Note_on_c, 9, 40, 61
4, 74045, Note_on_c, 9, 69, 28
4, 74046, Note_on_c, 9, 42, 77
4, 74047, Note_on_c, 9, 51, 0
4, 74063, Note_on_c, 9, 69, 0
4, 74071, Note_on_c, 9, 42, 0
4, 74077, Note_on_c, 9, 40, 0
4, 74105, Note_on_c, 9, 35, 52
4, 74105, Note_on_c, 9, 37, 62
4, 74105, Note_on_c, 9, 69, 59
4, 74106, Note_on_c, 9, 51, 82
4, 74127, Note_on_c, 9, 69, 0
4, 74130, Note_on_c, 9, 37, 0
4, 74131, Note_on_c, 9, 35, 0
4, 74146, Note_on_c, 9, 51, 0
4, 74165, Note_on_c, 9, 69, 32
4, 74165, Note_on_c, 9, 35, 52
4, 74190, Note_on_c, 9, 69, 0
4, 74224, Note_on_c, 9, 40, 51
4, 74225, Note_on_c, 9, 69, 33
4, 74228, Note_on_c, 9, 51, 106
4, 74241, Note_on_c, 9, 69, 0
4, 74256, Note_on_c, 9, 40, 0
4, 74264, Note_on_c, 9, 35, 0
4, 74285, Note_on_c, 9, 37, 72
4, 74285, Note_on_c, 9, 69, 61
4, 74286, Note_on_c, 9, 42, 79
4, 74289, Note_on_c, 9, 51, 0
4, 74307, Note_on_c, 9, 37, 0
4, 74310, Note_on_c, 9, 69, 0
4, 74313, Note_on_c, 9, 42, 0
4, 74345, Note_on_c, 9, 69, 37
4, 74345, Note_on_c, 9, 35, 45
4, 74349, Note_on_c, 9, 51, 59
4, 74365, Note_on_c, 9, 51, 0
4, 74365, Note_on_c, 9, 69, 0
4, 74368, Note_on_c, 9, 35, 0
4, 74405, Note_on_c, 9, 69, 59
4, 74405, Note_on_c, 9, 35, 49
4, 74406, Note_on_c, 9, 51, 115
4, 74430, Note_on_c, 9, 69, 0
4, 74447, Note_on_c, 9, 35, 0
4, 74465, Note_on_c, 9, 69, 31
4, 74485, Note_on_c, 9, 69, 0
4, 74524, Note_on_c, 9, 40, 46
4, 74525, Note_on_c, 9, 37, 70
4, 74525, Note_on_c, 9, 69, 51
4, 74526, Note_on_c, 9, 42, 74
4, 74529, Note_on_c, 9, 51, 0
4, 74544, Note_on_c, 9, 69, 0
4, 74550, Note_on_c, 9, 37, 0
4, 74556, Note_on_c, 9, 40, 0
4, 74556, Note_on_c, 9, 42, 0
4, 74585, Note_on_c, 9, 69, 59
4, 74585, Note_on_c, 9, 35, 44
4, 74591, Note_on_c, 9, 51, 82
4, 74606, Note_on_c, 9, 69, 0
4, 74612, Note_on_c, 9, 35, 0
4, 74645, Note_on_c, 9, 35, 47
4, 74645, Note_on_c, 9, 69, 42
4, 74666, Note_on_c, 9, 69, 0
4, 74673, Note_on_c, 9, 51, 0
4, 74678, Note_on_c, 9, 35, 0
4, 74704, Note_on_c, 9, 40, 53
4, 74705, Note_on_c, 9, 35, 47
4, 74705, Note_on_c, 9, 69, 42
4, 74705, Note_on_c, 9, 37, 70
4, 74716, Note_on_c, 9, 51, 96
4, 74721, Note_on_c, 9, 69, 0
4, 74730, Note_on_c, 9, 37, 0
4, 74735, Note_on_c, 9, 40, 0
4, 74735, Note_on_c, 9, 35, 0
4, 74765, Note_on_c, 9, 69, 61
4, 74766, Note_on_c, 9, 42, 79
4, 74788, Note_on_c, 9, 69, 0
4, 74788, Note_on_c, 9, 51, 0
4, 74794, Note_on_c, 9, 42, 0
4, 74825, Note_on_c, 9, 69, 41
4, 74825, Note_on_c, 9, 35, 40
4, 74835, Note_on_c, 9, 51, 92
4, 74841, Note_on_c, 9, 69, 0
4, 74851, Note_on_c, 9, 35, 0
4, 74857, Note_on_c, 9, 51, 0
4, 74885, Note_on_c, 9, 37, 72
4, 74885, Note_on_c, 9, 69, 58
4, 74885, Note_on_c, 9, 35, 41
4, 74907, Note_on_c, 9, 69, 0
4, 74909, Note_on_c, 9, 37, 0
4, 74913, Note_on_c, 9, 35, 0
4, 74945, Note_on_c, 9, 69, 30
4, 74952, Note_on_c, 9, 51, 127
4, 74964, Note_on_c, 9, 69, 0
4, 75004, Note_on_c, 9, 40, 61
4, 75005, Note_on_c, 9, 69, 42
4, 75007, Note_on_c, 9, 42, 77
4, 75023, Note_on_c, 9, 69, 0
4, 75032, Note_on_c, 9, 42, 0
4, 75037, Note_on_c, 9, 40, 0
4, 75065, Note_on_c, 9, 35, 54
4, 75065, Note_on_c, 9, 69, 59
4, 75065, Note_on_c, 9, 37, 64
4, 75087, Note_on_c, 9, 69, 0
4, 75088, Note_on_c, 9, 35, 0
4, 75091, Note_on_c, 9, 37, 0
4, 75125, Note_on_c, 9, 35, 44
4, 75125, Note_on_c, 9, 69, 32
4, 75148, Note_on_c, 9, 69, 0
4, 75148, Note_on_c, 9, 51, 0
4, 75159, Note_on_c, 9, 35, 0
4, 75184, Note_on_c, 9, 40, 51
4, 75185, Note_on_c, 9, 69, 33
4, 75192, Note_on_c, 9, 51, 127
4, 75205, Note_on_c, 9, 69, 0
4, 75216, Note_on_c, 9, 40, 0
4, 75217, Note_on_c, 9, 51, 0
4, 75245, Note_on_c, 9, 69, 53
4, 75245, Note_on_c, 9, 37, 68
4, 75247, Note_on_c, 9, 42, 79
4, 75250, Note_on_c, 9, 51, 96
4, 75268, Note_on_c, 9, 69, 0
4, 75271, Note_on_c, 9, 37, 0
4, 75274, Note_on_c, 9, 42, 0
4, 75305, Note_on_c, 9, 35, 45
4, 75305, Note_on_c, 9, 69, 42
4, 75309, Note_on_c, 9, 51, 0
4, 75325, Note_on_c, 9, 69, 0
4, 75331, Note_on_c, 9, 35, 0
4, 75365, Note_on_c, 9, 35, 52
4, 75365, Note_on_c, 9, 69, 59
4, 75373, Note_on_c, 9, 51, 115
4, 75390, Note_on_c, 9, 69, 0
4, 75395, Note_on_c, 9, 35, 0
4, 75425, Note_on_c, 9, 69, 32
4, 75444, Note_on_c, 9, 69, 0
4, 75454, Note_on_c, 9, 51, 0
4, 75484, Note_on_c, 9, 40, 46
4, 75485, Note_on_c, 9, 69, 32
4, 75485, Note_on_c, 9, 37, 70
4, 75487, Note_on_c, 9, 42, 74
4, 75504, Note_on_c, 9, 69, 0
4, 75513, Note_on_c, 9, 37, 0
4, 75516, Note_on_c, 9, 40, 0
4, 75517, Note_on_c, 9, 42, 0
4, 75537, Note_on_c, 9, 51, 92
4, 75545, Note_on_c, 9, 35, 50
4, 75545, Note_on_c, 9, 69, 58
4, 75561, Note_on_c, 9, 51, 0
4, 75569, Note_on_c, 9, 69, 0
4, 75569, Note_on_c, 9, 35, 0
4, 75601, Note_on_c, 9, 51, 106
4, 75605, Note_on_c, 9, 35, 47
4, 75605, Note_on_c, 9, 69, 44
4, 75630, Note_on_c, 9, 69, 0
4, 75634, Note_on_c, 9, 35, 0
4, 75664, Note_on_c, 9, 40, 53
4, 75665, Note_on_c, 9, 37, 68
4, 75665, Note_on_c, 9, 69, 41
4, 75665, Note_on_c, 9, 35, 46
4, 75685, Note_on_c, 9, 69, 0
4, 75691, Note_on_c, 9, 37, 0
4, 75695, Note_on_c, 9, 40, 0
4, 75696, Note_on_c, 9, 35, 0
4, 75725, Note_on_c, 9, 69, 61
4, 75727, Note_on_c, 9, 42, 79
4, 75739, Note_on_c, 9, 51, 0
4, 75751, Note_on_c, 9, 69, 0
4, 75755, Note_on_c, 9, 42, 0
4, 75775, Note_on_c, 9, 51, 77
4, 75785, Note_on_c, 9, 35, 42
4, 75785, Note_on_c, 9, 69, 44
4, 75795, Note_on_c, 9, 51, 0
4, 75806, Note_on_c, 9, 69, 0
4, 75811, Note_on_c, 9, 35, 0
4, 75838, Note_on_c, 9, 51, 115
4, 75845, Note_on_c, 9, 37, 74
4, 75845, Note_on_c, 9, 35, 50
4, 75845, Note_on_c, 9, 69, 59
4, 75869, Note_on_c, 9, 69, 0
4, 75872, Note_on_c, 9, 35, 0
4, 75873, Note_on_c, 9, 37, 0
4, 75905, Note_on_c, 9, 69, 35
4, 75926, Note_on_c, 9, 69, 0
4, 75964, Note_on_c, 9, 40, 61
4, 75965, Note_on_c, 9, 51, 0
4, 75965, Note_on_c, 9, 69, 42
4, 75967, Note_on_c, 9, 42, 77
4, 75983, Note_on_c, 9, 69, 0
4, 75992, Note_on_c, 9, 42, 0
4, 75997, Note_on_c, 9, 40, 0
4, 76025, Note_on_c, 9, 69, 58
4, 76025, Note_on_c, 9, 35, 49
4, 76025, Note_on_c, 9, 37, 72
4, 76026, Note_on_c, 9, 51, 68
4, 76040, Note_on_c, 9, 51, 0
4, 76048, Note_on_c, 9, 69, 0
4, 76048, Note_on_c, 9, 35, 0
4, 76052, Note_on_c, 9, 37, 0
4, 76085, Note_on_c, 9, 35, 41
4, 76085, Note_on_c, 9, 69, 44
4, 76107, Note_on_c, 9, 69, 0
4, 76115, Note_on_c, 9, 35, 0
4, 76144, Note_on_c, 9, 40, 51
4, 76145, Note_on_c, 9, 69, 35
4, 76152, Note_on_c, 9, 51, 96
4, 76165, Note_on_c, 9, 69, 0
4, 76176, Note_on_c, 9, 40, 0
4, 76205, Note_on_c, 9, 37, 72
4, 76205, Note_on_c, 9, 69, 56
4, 76207, Note_on_c, 9, 42, 79
4, 76217, Note_on_c, 9, 51, 0
4, 76229, Note_on_c, 9, 69, 0
4, 76233, Note_on_c, 9, 37, 0
4, 76234, Note_on_c, 9, 42, 0
4, 76265, Note_on_c, 9, 69, 36
4, 76265, Note_on_c, 9, 35, 53
4, 76277, Note_on_c, 9, 51, 73
4, 76287, Note_on_c, 9, 35, 0
4, 76287, Note_on_c, 9, 69, 0
4, 76288, Note_on_c, 9, 51, 0
4, 76325, Note_on_c, 9, 35, 40
4, 76325, Note_on_c, 9, 69, 58
4, 76331, Note_on_c, 9, 51, 115
4, 76348, Note_on_c, 9, 69, 0
4, 76355, Note_on_c, 9, 35, 0
4, 76385, Note_on_c, 9, 69, 36
4, 76404, Note_on_c, 9, 69, 0
4, 76444, Note_on_c, 9, 40, 46
4, 76445, Note_on_c, 9, 37, 70
4, 76445, Note_on_c, 9, 69, 45
4, 76447, Note_on_c, 9, 42, 74
4, 76454, Note_on_c, 9, 51, 0
4, 76462, Note_on_c, 9, 69, 0
4, 76472, Note_on_c, 9, 37, 0
4, 76476, Note_on_c, 9, 40, 0
4, 76477, Note_on_c, 9, 42, 0
4, 76505, Note_on_c, 9, 69, 58
4, 76505, Note_on_c, 9, 35, 49
4, 76507, Note_on_c, 9, 51, 92
4, 76525, Note_on_c, 9, 69, 0
4, 76527, Note_on_c, 9, 51, 0
4, 76530, Note_on_c, 9, 35, 0
4, 76565, Note_on_c, 9, 69, 47
4, 76565, Note_on_c, 9, 35, 40
4, 76574, Note_on_c, 9, 51, 92
4, 76584, Note_on_c, 9, 69, 0
4, 76595, Note_on_c, 9, 35, 0
4, 76624, Note_on_c, 9, 40, 53
4, 76625, Note_on_c, 9, 37, 68
4, 76625, Note_on_c, 9, 69, 33
4, 76643, Note_on_c, 9, 69, 0
4, 76651, Note_on_c, 9, 37, 0
4, 76655, Note_on_c, 9, 40, 0
4, 76685, Note_on_c, 9, 69, 62
4, 76687, Note_on_c, 9, 42, 79
4, 76693, Note_on_c, 9, 51, 0
4, 76708, Note_on_c, 9, 69, 0
4, 76715, Note_on_c, 9, 42, 0
4, 76745, Note_on_c, 9, 69, 45
4, 76745, Note_on_c, 9, 35, 50
4, 76754, Note_on_c, 9, 51, 65
4, 76765, Note_on_c, 9, 51, 0
4, 76766, Note_on_c, 9, 69, 0
4, 76770, Note_on_c, 9, 35, 0
4, 76805, Note_on_c, 9, 35, 50
4, 76805, Note_on_c, 9, 69, 47
4, 76805, Note_on_c, 9, 37, 70
4, 76811, Note_on_c, 9, 51, 115
4, 76830, Note_on_c, 9, 69, 0
4, 76832, Note_on_c, 9, 37, 0
4, 76833, Note_on_c, 9, 35, 0
4, 76865, Note_on_c, 9, 69, 31
4, 76885, Note_on_c, 9, 69, 0
4, 76924, Note_on_c, 9, 40, 61
4, 76925, Note_on_c, 9, 69, 42
4, 76927, Note_on_c, 9, 42, 77
4, 76936, Note_on_c, 9, 51, 0
4, 76945, Note_on_c, 9, 69, 0
4, 76952, Note_on_c, 9, 42, 0
4, 76957, Note_on_c, 9, 40, 0
4, 76985, Note_on_c, 9, 35, 50
4, 76985, Note_on_c, 9, 69, 61
4, 76985, Note_on_c, 9, 37, 72
4, 77001, Note_on_c, 9, 51, 68
4, 77006, Note_on_c, 9, 35, 0
4, 77009, Note_on_c, 9, 69, 0
4, 77011, Note_on_c, 9, 37, 0
4, 77013, Note_on_c, 9, 51, 0
4, 77045, Note_on_c, 9, 35, 56
4, 77045, Note_on_c, 9, 69, 35
4, 77068, Note_on_c, 9, 69, 0
4, 77075, Note_on_c, 9, 35, 0
4, 77104, Note_on_c, 9, 40, 51
4, 77105, Note_on_c, 9, 69, 36
4, 77117, Note_on_c, 9, 51, 115
4, 77123, Note_on_c, 9, 69, 0
4, 77136, Note_on_c, 9, 40, 0
4, 77160, Note_on_c, 9, 51, 0
4, 77165, Note_on_c, 9, 69, 58
4, 77165, Note_on_c, 9, 37, 68
4, 77167, Note_on_c, 9, 42, 79
4, 77190, Note_on_c, 9, 69, 0
4, 77194, Note_on_c, 9, 42, 0
4, 77195, Note_on_c, 9, 37, 0
4, 77225, Note_on_c, 9, 35, 56
4, 77225, Note_on_c, 9, 69, 37
4, 77244, Note_on_c, 9, 69, 0
4, 77252, Note_on_c, 9, 35, 0
4, 77277, Note_on_c, 9, 51, 127
4, 77284, Note_on_c, 9, 37, 57
4, 77284, Note_on_c, 9, 69, 75
4, 77284, Note_on_c, 9, 35, 79
4, 77284, Note_on_c, 9, 42, 73
4, 77302, Note_on_c, 9, 69, 0
4, 77303, Note_on_c, 9, 42, 0
4, 77311, Note_on_c, 9, 35, 0
4, 77311, Note_on_c, 9, 37, 0
4, 77344, Note_on_c, 9, 69, 31
4, 77362, Note_on_c, 9, 69, 0
4, 77404, Note_on_c, 9, 69, 28
4, 77404, Note_on_c, 9, 42, 77
4, 77408, Note_on_c, 9, 51, 0
4, 77422, Note_on_c, 9, 69, 0
4, 77429, Note_on_c, 9, 42, 0
4, 77457, Note_on_c, 9, 51, 92
4, 77464, Note_on_c, 9, 69, 59
4, 77464, Note_on_c, 9, 37, 62
4, 77464, Note_on_c, 9, 35, 52
4, 77476, Note_on_c, 9, 51, 0
4, 77486, Note_on_c, 9, 69, 0
4, 77489, Note_on_c, 9, 37, 0
4, 77490, Note_on_c, 9, 35, 0
4, 77519, Note_on_c, 9, 51, 106
4, 77524, Note_on_c, 9, 35, 52
4, 77524, Note_on_c, 9, 69, 32
4, 77549, Note_on_c, 9, 69, 0
4, 77584, Note_on_c, 9, 69, 33
4, 77600, Note_on_c, 9, 69, 0
4, 77623, Note_on_c, 9, 35, 0
4, 77644, Note_on_c, 9, 69, 61
4, 77644, Note_on_c, 9, 37, 72
4, 77644, Note_on_c, 9, 42, 79
4, 77666, Note_on_c, 9, 37, 0
4, 77669, Note_on_c, 9, 69, 0
4, 77671, Note_on_c, 9, 42, 0
4, 77672, Note_on_c, 9, 51, 0
4, 77704, Note_on_c, 9, 69, 37
4, 77704, Note_on_c, 9, 35, 45
4, 77723, Note_on_c, 9, 51, 50
4, 77724, Note_on_c, 9, 69, 0
4, 77727, Note_on_c, 9, 35, 0
4, 77734, Note_on_c, 9, 51, 0
4, 77764, Note_on_c, 9, 69, 59
4, 77764, Note_on_c, 9, 35, 49
4, 77775, Note_on_c, 9, 51, 127
4, 77789, Note_on_c, 9, 69, 0
4, 77806, Note_on_c, 9, 35, 0
4, 77824, Note_on_c, 9, 69, 31
4, 77825, Note_on_c, 9, 51, 0
4, 77844, Note_on_c, 9, 69, 0
4, 77884, Note_on_c, 9, 37, 70
4, 77884, Note_on_c, 9, 69, 51
4, 77884, Note_on_c, 9, 42, 74
4, 77889, Note_on_c, 9, 51, 92
4, 77903, Note_on_c, 9, 69, 0
4, 77909, Note_on_c, 9, 37, 0
4, 77914, Note_on_c, 9, 42, 0
4, 77944, Note_on_c, 9, 35, 44
4, 77944, Note_on_c, 9, 69, 59
4, 77957, Note_on_c, 9, 51, 0
4, 77965, Note_on_c, 9, 69, 0
4, 77971, Note_on_c, 9, 35, 0
4, 78004, Note_on_c, 9, 35, 47
4, 78004, Note_on_c, 9, 69, 42
4, 78016, Note_on_c, 9, 51, 82
4, 78025, Note_on_c, 9, 69, 0
4, 78037, Note_on_c, 9, 35, 0
4, 78048, Note_on_c, 9, 51, 0
4, 78064, Note_on_c, 9, 69, 42
4, 78064, Note_on_c, 9, 37, 70
4, 78064, Note_on_c, 9, 35, 47
4, 78080, Note_on_c, 9, 69, 0
4, 78084, Note_on_c, 9, 51, 56
4, 78089, Note_on_c, 9, 37, 0
4, 78094, Note_on_c, 9, 35, 0
4, 78124, Note_on_c, 9, 69, 61
4, 78124, Note_on_c, 9, 42, 79
4, 78135, Note_on_c, 9, 51, 0
4, 78147, Note_on_c, 9, 69, 0
4, 78152, Note_on_c, 9, 42, 0
4, 78184, Note_on_c, 9, 69, 41
4, 78184, Note_on_c, 9, 35, 40
4, 78193, Note_on_c, 9, 51, 56
4, 78200, Note_on_c, 9, 69, 0
4, 78204, Note_on_c, 9, 51, 0
4, 78210, Note_on_c, 9, 35, 0
4, 78244, Note_on_c, 9, 35, 41
4, 78244, Note_on_c, 9, 37, 72
4, 78244, Note_on_c, 9, 69, 58
4, 78247, Note_on_c, 9, 51, 127
4, 78266, Note_on_c, 9, 69, 0
4, 78268, Note_on_c, 9, 37, 0
4, 78272, Note_on_c, 9, 35, 0
4, 78304, Note_on_c, 9, 69, 30
4, 78323, Note_on_c, 9, 69, 0
4, 78364, Note_on_c, 9, 42, 77
4, 78364, Note_on_c, 9, 69, 42
4, 78382, Note_on_c, 9, 69, 0
4, 78382, Note_on_c, 9, 51, 0
4, 78389, Note_on_c, 9, 42, 0
4, 78423, Note_on_c, 9, 51, 106
4, 78424, Note_on_c, 9, 35, 54
4, 78424, Note_on_c, 9, 69, 59
4, 78424, Note_on_c, 9, 37, 64
4, 78446, Note_on_c, 9, 69, 0
4, 78447, Note_on_c, 9, 35, 0
4, 78450, Note_on_c, 9, 37, 0
4, 78484, Note_on_c, 9, 69, 32
4, 78484, Note_on_c, 9, 35, 44
4, 78507, Note_on_c, 9, 69, 0
4, 78511, Note_on_c, 9, 51, 0
4, 78518, Note_on_c, 9, 35, 0
4, 78544, Note_on_c, 9, 69, 33
4, 78547, Note_on_c, 9, 51, 73
4, 78564, Note_on_c, 9, 69, 0
4, 78576, Note_on_c, 9, 51, 0
4, 78604, Note_on_c, 9, 37, 68
4, 78604, Note_on_c, 9, 42, 79
4, 78604, Note_on_c, 9, 69, 53
4, 78618, Note_on_c, 9, 51, 68
4, 78627, Note_on_c, 9, 69, 0
4, 78630, Note_on_c, 9, 37, 0
4, 78631, Note_on_c, 9, 42, 0
4, 78634, Note_on_c, 9, 51, 0
4, 78664, Note_on_c, 9, 69, 42
4, 78664, Note_on_c, 9, 35, 45
4, 78674, Note_on_c, 9, 51, 68
4, 78684, Note_on_c, 9, 69, 0
4, 78689, Note_on_c, 9, 51, 0
4, 78690, Note_on_c, 9, 35, 0
4, 78724, Note_on_c, 9, 35, 52
4, 78724, Note_on_c, 9, 69, 59
4, 78731, Note_on_c, 9, 51, 127
4, 78749, Note_on_c, 9, 69, 0
4, 78754, Note_on_c, 9, 35, 0
4, 78784, Note_on_c, 9, 69, 32
4, 78803, Note_on_c, 9, 69, 0
4, 78844, Note_on_c, 9, 69, 32
4, 78844, Note_on_c, 9, 37, 70
4, 78844, Note_on_c, 9, 42, 74
4, 78863, Note_on_c, 9, 69, 0
4, 78872, Note_on_c, 9, 37, 0
4, 78873, Note_on_c, 9, 51, 0
4, 78874, Note_on_c, 9, 42, 0
4, 78904, Note_on_c, 9, 35, 50
4, 78904, Note_on_c, 9, 69, 58
4, 78917, Note_on_c, 9, 51, 106
4, 78928, Note_on_c, 9, 69, 0
4, 78928, Note_on_c, 9, 35, 0
4, 78938, Note_on_c, 9, 51, 0
4, 78964, Note_on_c, 9, 69, 44
4, 78964, Note_on_c, 9, 35, 47
4, 78978, Note_on_c, 9, 51, 82
4, 78989, Note_on_c, 9, 69, 0
4, 78993, Note_on_c, 9, 35, 0
4, 79000, Note_on_c, 9, 51, 0
4, 79024, Note_on_c, 9, 35, 46
4, 79024, Note_on_c, 9, 37, 68
4, 79024, Note_on_c, 9, 69, 41
4, 79035, Note_on_c, 9, 51, 86
4, 79036, Note_on_c, 9, 49, 86
4, 79044, Note_on_c, 9, 69, 0
4, 79050, Note_on_c, 9, 37, 0
4, 79055, Note_on_c, 9, 35, 0
4, 79084, Note_on_c, 9, 69, 61
4, 79084, Note_on_c, 9, 42, 79
4, 79090, Note_on_c, 9, 49, 0
4, 79091, Note_on_c, 9, 51, 0
4, 79110, Note_on_c, 9, 69, 0
4, 79112, Note_on_c, 9, 42, 0
4, 79144, Note_on_c, 9, 69, 44
4, 79144, Note_on_c, 9, 35, 42
4, 79150, Note_on_c, 9, 51, 92
4, 79165, Note_on_c, 9, 69, 0
4, 79170, Note_on_c, 9, 35, 0
4, 79178, Note_on_c, 9, 51, 0
4, 79204, Note_on_c, 9, 35, 50
4, 79204, Note_on_c, 9, 69, 59
4, 79204, Note_on_c, 9, 37, 74
4, 79211, Note_on_c, 9, 51, 86
4, 79228, Note_on_c, 9, 69, 0
4, 79231, Note_on_c, 9, 35, 0
4, 79232, Note_on_c, 9, 37, 0
4, 79242, Note_on_c, 9, 51, 0
4, 79264, Note_on_c, 9, 69, 35
4, 79279, Note_on_c, 9, 51, 68
4, 79283, Note_on_c, 9, 49, 50
4, 79285, Note_on_c, 9, 69, 0
4, 79314, Note_on_c, 9, 49, 0
4, 79324, Note_on_c, 9, 69, 42
4, 79325, Note_on_c, 9, 42, 77
4, 79333, Note_on_c, 9, 51, 0
4, 79342, Note_on_c, 9, 69, 0
4, 79350, Note_on_c, 9, 42, 0
4, 79383, Note_on_c, 9, 51, 106
4, 79384, Note_on_c, 9, 37, 72
4, 79384, Note_on_c, 9, 35, 49
4, 79384, Note_on_c, 9, 69, 58
4, 79407, Note_on_c, 9, 69, 0
4, 79407, Note_on_c, 9, 35, 0
4, 79411, Note_on_c, 9, 37, 0
4, 79439, Note_on_c, 9, 51, 0
4, 79444, Note_on_c, 9, 35, 41
4, 79444, Note_on_c, 9, 69, 44
4, 79466, Note_on_c, 9, 69, 0
4, 79474, Note_on_c, 9, 35, 0
4, 79503, Note_on_c, 9, 51, 92
4, 79504, Note_on_c, 9, 69, 35
4, 79524, Note_on_c, 9, 69, 0
4, 79582, Note_on_c, 9, 51, 0
4, 79582, End_track
0, 0, End_of_file
