0, 0, Header, 1, 5, 120
1, 0, Start_track
1, 0, Title_t, "You Don't Know What Love Is"
1, 0, Copyright_t, "Copyright © 1998 by Doug McKenzie"
1, 0, Text_t, "Doug McKenzie\012"
1, 0, SMPTE_offset, 96, 0, 3, 0, 0
1, 0, Time_signature, 4, 2, 24, 8
1, 0, Key_signature, -4, "major"
1, 0, Tempo, 480000
1, 0, End_track
2, 0, Start_track
2, 0, MIDI_port, 0
2, 0, Title_t, ""
2, 0, Program_c, 3, 35
2, 0, Control_c, 3, 7, 113
2, 46080, Note_on_c, 3, 29, 65
2, 46320, Note_on_c, 3, 38, 87
2, 46349, Note_on_c, 3, 29, 0
2, 46560, Note_on_c, 3, 38, 0
2, 46560, Note_on_c, 3, 32, 37
2, 46576, Note_on_c, 3, 32, 0
2, 46600, Note_on_c, 3, 37, 78
2, 46800, Note_on_c, 3, 32, 33
2, 46813, Note_on_c, 3, 32, 0
2, 46840, Note_on_c, 3, 36, 65
2, 46842, Note_on_c, 3, 37, 0
2, 46920, Note_on_c, 3, 32, 38
2, 46935, Note_on_c, 3, 36, 0
2, 46936, Note_on_c, 3, 32, 0
2, 46960, Note_on_c, 3, 40, 60
2, 47065, Note_on_c, 3, 40, 0
2, 47080, Note_on_c, 3, 41, 70
2, 47280, Note_on_c, 3, 35, 33
2, 47294, Note_on_c, 3, 35, 0
2, 47304, Note_on_c, 3, 41, 0
2, 47320, Note_on_c, 3, 36, 62
2, 47480, Note_on_c, 3, 34, 32
2, 47502, Note_on_c, 3, 34, 0
2, 47520, Note_on_c, 3, 37, 67
2, 47543, Note_on_c, 3, 36, 0
2, 47720, Note_on_c, 3, 36, 58
2, 47732, Note_on_c, 3, 36, 0
2, 47739, Note_on_c, 3, 37, 0
2, 47760, Note_on_c, 3, 39, 56
2, 47790, Note_on_c, 3, 39, 0
2, 47840, Note_on_c, 3, 32, 64
2, 47856, Note_on_c, 3, 32, 0
2, 47920, Note_on_c, 3, 30, 44
2, 47956, Note_on_c, 3, 30, 0
2, 48040, Note_on_c, 3, 31, 65
2, 48240, Note_on_c, 3, 36, 71
2, 48270, Note_on_c, 3, 31, 0
2, 48440, Note_on_c, 3, 31, 55
2, 48451, Note_on_c, 3, 36, 0
2, 48454, Note_on_c, 3, 31, 0
2, 48480, Note_on_c, 3, 41, 67
2, 48530, Note_on_c, 3, 41, 0
2, 48600, Note_on_c, 3, 40, 40
2, 48715, Note_on_c, 3, 40, 0
2, 48720, Note_on_c, 3, 39, 55
2, 48801, Note_on_c, 3, 39, 0
2, 48840, Note_on_c, 3, 37, 46
2, 48880, Note_on_c, 3, 38, 32
2, 48890, Note_on_c, 3, 38, 0
2, 48960, Note_on_c, 3, 38, 47
2, 48990, Note_on_c, 3, 37, 0
2, 49070, Note_on_c, 3, 38, 0
2, 49080, Note_on_c, 3, 32, 55
2, 49190, Note_on_c, 3, 32, 0
2, 49200, Note_on_c, 3, 31, 43
2, 49280, Note_on_c, 3, 32, 38
2, 49310, Note_on_c, 3, 31, 0
2, 49312, Note_on_c, 3, 32, 0
2, 49320, Note_on_c, 3, 43, 63
2, 49658, Note_on_c, 3, 43, 0
2, 49680, Note_on_c, 3, 36, 52
2, 49760, Note_on_c, 3, 34, 46
2, 49782, Note_on_c, 3, 36, 0
2, 49785, Note_on_c, 3, 34, 0
2, 49800, Note_on_c, 3, 42, 77
2, 49887, Note_on_c, 3, 42, 0
2, 49920, Note_on_c, 3, 41, 68
2, 49953, Note_on_c, 3, 41, 0
2, 50040, Note_on_c, 3, 36, 74
2, 50149, Note_on_c, 3, 36, 0
2, 50160, Note_on_c, 3, 38, 57
2, 50280, Note_on_c, 3, 44, 67
2, 50302, Note_on_c, 3, 38, 0
2, 50480, Note_on_c, 3, 38, 47
2, 50491, Note_on_c, 3, 38, 0
2, 50501, Note_on_c, 3, 44, 0
2, 50520, Note_on_c, 3, 43, 60
2, 50634, Note_on_c, 3, 43, 0
2, 50640, Note_on_c, 3, 36, 66
2, 50757, Note_on_c, 3, 36, 0
2, 50760, Note_on_c, 3, 42, 80
2, 50868, Note_on_c, 3, 42, 0
2, 50880, Note_on_c, 3, 41, 72
2, 50993, Note_on_c, 3, 41, 0
2, 51000, Note_on_c, 3, 36, 91
2, 51474, Note_on_c, 3, 36, 0
2, 51480, Note_on_c, 3, 34, 33
2, 51480, Note_on_c, 3, 37, 85
2, 51495, Note_on_c, 3, 34, 0
2, 51720, Note_on_c, 3, 42, 77
2, 51756, Note_on_c, 3, 37, 0
2, 51800, Note_on_c, 3, 37, 40
2, 51804, Note_on_c, 3, 42, 0
2, 51823, Note_on_c, 3, 37, 0
2, 51840, Note_on_c, 3, 43, 78
2, 52068, Note_on_c, 3, 43, 0
2, 52080, Note_on_c, 3, 36, 68
2, 52320, Note_on_c, 3, 41, 79
2, 52321, Note_on_c, 3, 36, 0
2, 52670, Note_on_c, 3, 41, 0
2, 52680, Note_on_c, 3, 38, 79
2, 52898, Note_on_c, 3, 38, 0
2, 52920, Note_on_c, 3, 37, 79
2, 53107, Note_on_c, 3, 37, 0
2, 53120, Note_on_c, 3, 36, 85
2, 53240, Note_on_c, 3, 34, 26
2, 53273, Note_on_c, 3, 36, 0
2, 53278, Note_on_c, 3, 34, 0
2, 53280, Note_on_c, 3, 41, 91
2, 53520, Note_on_c, 3, 36, 63
2, 53544, Note_on_c, 3, 41, 0
2, 53549, Note_on_c, 3, 36, 0
2, 53600, Note_on_c, 3, 36, 65
2, 53622, Note_on_c, 3, 36, 0
2, 53640, Note_on_c, 3, 35, 51
2, 53748, Note_on_c, 3, 35, 0
2, 53760, Note_on_c, 3, 34, 51
2, 53875, Note_on_c, 3, 34, 0
2, 53880, Note_on_c, 3, 39, 60
2, 54120, Note_on_c, 3, 51, 64
2, 54457, Note_on_c, 3, 39, 0
2, 54600, Note_on_c, 3, 39, 62
2, 54626, Note_on_c, 3, 51, 0
2, 54720, Note_on_c, 3, 46, 76
2, 54739, Note_on_c, 3, 39, 0
2, 54960, Note_on_c, 3, 39, 54
2, 54961, Note_on_c, 3, 46, 0
2, 55080, Note_on_c, 3, 44, 77
2, 55099, Note_on_c, 3, 39, 0
2, 55280, Note_on_c, 3, 39, 48
2, 55293, Note_on_c, 3, 39, 0
2, 55293, Note_on_c, 3, 44, 0
2, 55320, Note_on_c, 3, 43, 53
2, 55434, Note_on_c, 3, 43, 0
2, 55440, Note_on_c, 3, 41, 64
2, 55489, Note_on_c, 3, 41, 0
2, 55520, Note_on_c, 3, 39, 60
2, 55540, Note_on_c, 3, 39, 0
2, 55560, Note_on_c, 3, 37, 60
2, 55667, Note_on_c, 3, 37, 0
2, 55680, Note_on_c, 3, 38, 60
2, 55794, Note_on_c, 3, 38, 0
2, 55800, Note_on_c, 3, 45, 85
2, 56000, Note_on_c, 3, 43, 73
2, 56009, Note_on_c, 3, 45, 0
2, 56026, Note_on_c, 3, 43, 0
2, 56120, Note_on_c, 3, 35, 73
2, 56152, Note_on_c, 3, 35, 0
2, 56160, Note_on_c, 3, 35, 39
2, 56160, Note_on_c, 3, 36, 80
2, 56179, Note_on_c, 3, 35, 0
2, 56392, Note_on_c, 3, 36, 0
2, 56400, Note_on_c, 3, 43, 75
2, 56627, Note_on_c, 3, 43, 0
2, 56640, Note_on_c, 3, 37, 58
2, 56720, Note_on_c, 3, 53, 75
2, 57080, Note_on_c, 3, 34, 38
2, 57092, Note_on_c, 3, 37, 0
2, 57105, Note_on_c, 3, 53, 0
2, 57111, Note_on_c, 3, 34, 0
2, 57120, Note_on_c, 3, 36, 54
2, 57200, Note_on_c, 3, 52, 64
2, 57436, Note_on_c, 3, 36, 0
2, 57440, Note_on_c, 3, 39, 55
2, 57464, Note_on_c, 3, 39, 0
2, 57464, Note_on_c, 3, 52, 0
2, 57480, Note_on_c, 3, 40, 45
2, 57592, Note_on_c, 3, 40, 0
2, 57600, Note_on_c, 3, 41, 54
2, 57830, Note_on_c, 3, 41, 0
2, 57840, Note_on_c, 3, 38, 54
2, 57958, Note_on_c, 3, 38, 0
2, 57960, Note_on_c, 3, 37, 70
2, 58280, Note_on_c, 3, 49, 75
2, 58307, Note_on_c, 3, 37, 0
2, 58320, Note_on_c, 3, 48, 61
2, 58325, Note_on_c, 3, 49, 0
2, 58429, Note_on_c, 3, 48, 0
2, 58440, Note_on_c, 3, 42, 65
2, 58545, Note_on_c, 3, 42, 0
2, 58560, Note_on_c, 3, 41, 57
2, 58671, Note_on_c, 3, 41, 0
2, 58680, Note_on_c, 3, 36, 54
2, 58784, Note_on_c, 3, 36, 0
2, 58800, Note_on_c, 3, 36, 66
2, 59024, Note_on_c, 3, 36, 0
2, 59040, Note_on_c, 3, 37, 50
2, 59160, Note_on_c, 3, 53, 56
2, 59333, Note_on_c, 3, 53, 0
2, 59400, Note_on_c, 3, 43, 76
2, 59453, Note_on_c, 3, 37, 0
2, 59626, Note_on_c, 3, 43, 0
2, 59640, Note_on_c, 3, 49, 79
2, 59822, Note_on_c, 3, 49, 0
2, 59840, Note_on_c, 3, 48, 62
2, 59864, Note_on_c, 3, 48, 0
2, 59880, Note_on_c, 3, 40, 53
2, 59992, Note_on_c, 3, 40, 0
2, 60000, Note_on_c, 3, 41, 58
2, 60191, Note_on_c, 3, 41, 0
2, 60200, Note_on_c, 3, 40, 62
2, 60216, Note_on_c, 3, 40, 0
2, 60240, Note_on_c, 3, 39, 62
2, 60261, Note_on_c, 3, 39, 0
2, 60280, Note_on_c, 3, 38, 73
2, 60440, Note_on_c, 3, 31, 59
2, 60462, Note_on_c, 3, 31, 0
2, 60469, Note_on_c, 3, 38, 0
2, 60480, Note_on_c, 3, 43, 62
2, 60680, Note_on_c, 3, 37, 47
2, 60690, Note_on_c, 3, 43, 0
2, 60694, Note_on_c, 3, 37, 0
2, 60720, Note_on_c, 3, 36, 69
2, 60917, Note_on_c, 3, 36, 0
2, 60920, Note_on_c, 3, 40, 48
2, 60940, Note_on_c, 3, 40, 0
2, 60960, Note_on_c, 3, 41, 62
2, 61160, Note_on_c, 3, 36, 69
2, 61162, Note_on_c, 3, 41, 0
2, 61258, Note_on_c, 3, 36, 0
2, 61280, Note_on_c, 3, 36, 46
2, 61320, Note_on_c, 3, 42, 69
2, 61322, Note_on_c, 3, 36, 0
2, 61428, Note_on_c, 3, 42, 0
2, 61440, Note_on_c, 3, 41, 56
2, 61558, Note_on_c, 3, 41, 0
2, 61560, Note_on_c, 3, 39, 52
2, 61677, Note_on_c, 3, 39, 0
2, 61680, Note_on_c, 3, 38, 48
2, 61800, Note_on_c, 3, 50, 72
2, 61837, Note_on_c, 3, 38, 0
2, 61905, Note_on_c, 3, 50, 0
2, 61920, Note_on_c, 3, 37, 23
2, 61920, Note_on_c, 3, 49, 50
2, 61937, Note_on_c, 3, 37, 0
2, 62038, Note_on_c, 3, 49, 0
2, 62040, Note_on_c, 3, 37, 54
2, 62120, Note_on_c, 3, 34, 28
2, 62145, Note_on_c, 3, 34, 0
2, 62160, Note_on_c, 3, 36, 47
2, 62162, Note_on_c, 3, 37, 0
2, 62240, Note_on_c, 3, 34, 34
2, 62267, Note_on_c, 3, 36, 0
2, 62280, Note_on_c, 3, 40, 69
2, 62283, Note_on_c, 3, 34, 0
2, 62360, Note_on_c, 3, 36, 24
2, 62373, Note_on_c, 3, 36, 0
2, 62380, Note_on_c, 3, 40, 0
2, 62400, Note_on_c, 3, 41, 62
2, 62514, Note_on_c, 3, 41, 0
2, 62520, Note_on_c, 3, 37, 79
2, 62633, Note_on_c, 3, 37, 0
2, 62640, Note_on_c, 3, 36, 72
2, 62739, Note_on_c, 3, 36, 0
2, 62760, Note_on_c, 3, 36, 66
2, 62868, Note_on_c, 3, 36, 0
2, 62880, Note_on_c, 3, 37, 58
2, 63000, Note_on_c, 3, 53, 64
2, 63177, Note_on_c, 3, 37, 0
2, 63200, Note_on_c, 3, 36, 48
2, 63212, Note_on_c, 3, 36, 0
2, 63320, Note_on_c, 3, 42, 62
2, 63330, Note_on_c, 3, 53, 0
2, 63354, Note_on_c, 3, 42, 0
2, 63360, Note_on_c, 3, 43, 50
2, 63440, Note_on_c, 3, 39, 30
2, 63473, Note_on_c, 3, 39, 0
2, 63480, Note_on_c, 3, 46, 59
2, 63489, Note_on_c, 3, 43, 0
2, 63680, Note_on_c, 3, 43, 43
2, 63692, Note_on_c, 3, 43, 0
2, 63695, Note_on_c, 3, 46, 0
2, 63720, Note_on_c, 3, 48, 61
2, 63791, Note_on_c, 3, 48, 0
2, 63800, Note_on_c, 3, 40, 48
2, 63829, Note_on_c, 3, 40, 0
2, 63840, Note_on_c, 3, 41, 58
2, 63944, Note_on_c, 3, 41, 0
2, 63960, Note_on_c, 3, 41, 71
2, 64061, Note_on_c, 3, 41, 0
2, 64080, Note_on_c, 3, 38, 57
2, 64199, Note_on_c, 3, 38, 0
2, 64200, Note_on_c, 3, 42, 69
2, 64304, Note_on_c, 3, 42, 0
2, 64320, Note_on_c, 3, 43, 49
2, 64400, Note_on_c, 3, 38, 44
2, 64406, Note_on_c, 3, 43, 0
2, 64415, Note_on_c, 3, 38, 0
2, 64440, Note_on_c, 3, 37, 42
2, 64550, Note_on_c, 3, 37, 0
2, 64560, Note_on_c, 3, 35, 54
2, 64670, Note_on_c, 3, 35, 0
2, 64680, Note_on_c, 3, 36, 61
2, 64760, Note_on_c, 3, 34, 45
2, 64793, Note_on_c, 3, 36, 0
2, 64794, Note_on_c, 3, 34, 0
2, 64800, Note_on_c, 3, 48, 74
2, 64907, Note_on_c, 3, 48, 0
2, 64920, Note_on_c, 3, 49, 62
2, 65000, Note_on_c, 3, 42, 31
2, 65010, Note_on_c, 3, 42, 0
2, 65019, Note_on_c, 3, 49, 0
2, 65040, Note_on_c, 3, 48, 54
2, 65160, Note_on_c, 3, 40, 68
2, 65162, Note_on_c, 3, 48, 0
2, 65240, Note_on_c, 3, 39, 21
2, 65253, Note_on_c, 3, 39, 0
2, 65280, Note_on_c, 3, 41, 57
2, 65282, Note_on_c, 3, 40, 0
2, 65360, Note_on_c, 3, 39, 34
2, 65396, Note_on_c, 3, 41, 0
2, 65398, Note_on_c, 3, 39, 0
2, 65400, Note_on_c, 3, 48, 79
2, 65480, Note_on_c, 3, 39, 36
2, 65503, Note_on_c, 3, 39, 0
2, 65505, Note_on_c, 3, 48, 0
2, 65520, Note_on_c, 3, 44, 64
2, 65600, Note_on_c, 3, 38, 43
2, 65613, Note_on_c, 3, 38, 0
2, 65640, Note_on_c, 3, 41, 62
2, 65657, Note_on_c, 3, 44, 0
2, 65720, Note_on_c, 3, 37, 34
2, 65730, Note_on_c, 3, 37, 0
2, 65753, Note_on_c, 3, 41, 0
2, 65760, Note_on_c, 3, 49, 63
2, 65840, Note_on_c, 3, 37, 33
2, 65854, Note_on_c, 3, 37, 0
2, 65869, Note_on_c, 3, 49, 0
2, 65880, Note_on_c, 3, 43, 57
2, 65978, Note_on_c, 3, 43, 0
2, 66000, Note_on_c, 3, 37, 59
2, 66110, Note_on_c, 3, 37, 0
2, 66120, Note_on_c, 3, 36, 63
2, 66200, Note_on_c, 3, 37, 42
2, 66211, Note_on_c, 3, 37, 0
2, 66225, Note_on_c, 3, 36, 0
2, 66240, Note_on_c, 3, 41, 66
2, 66342, Note_on_c, 3, 41, 0
2, 66360, Note_on_c, 3, 41, 66
2, 66440, Note_on_c, 3, 36, 49
2, 66465, Note_on_c, 3, 36, 0
2, 66467, Note_on_c, 3, 41, 0
2, 66480, Note_on_c, 3, 48, 60
2, 66560, Note_on_c, 3, 36, 48
2, 66577, Note_on_c, 3, 48, 0
2, 66579, Note_on_c, 3, 36, 0
2, 66600, Note_on_c, 3, 48, 68
2, 66683, Note_on_c, 3, 48, 0
2, 66720, Note_on_c, 3, 49, 73
2, 66800, Note_on_c, 3, 37, 28
2, 66815, Note_on_c, 3, 37, 0
2, 66818, Note_on_c, 3, 49, 0
2, 66840, Note_on_c, 3, 49, 60
2, 66950, Note_on_c, 3, 49, 0
2, 66960, Note_on_c, 3, 44, 56
2, 67040, Note_on_c, 3, 37, 34
2, 67055, Note_on_c, 3, 37, 0
2, 67056, Note_on_c, 3, 44, 0
2, 67080, Note_on_c, 3, 44, 60
2, 67184, Note_on_c, 3, 44, 0
2, 67200, Note_on_c, 3, 43, 54
2, 67267, Note_on_c, 3, 43, 0
2, 67280, Note_on_c, 3, 37, 60
2, 67301, Note_on_c, 3, 37, 0
2, 67320, Note_on_c, 3, 36, 80
2, 67520, Note_on_c, 3, 48, 80
2, 67536, Note_on_c, 3, 36, 0
2, 67640, Note_on_c, 3, 36, 56
2, 67652, Note_on_c, 3, 36, 0
2, 67662, Note_on_c, 3, 48, 0
2, 67680, Note_on_c, 3, 41, 60
2, 67775, Note_on_c, 3, 41, 0
2, 67800, Note_on_c, 3, 41, 74
2, 67908, Note_on_c, 3, 41, 0
2, 67920, Note_on_c, 3, 32, 64
2, 68018, Note_on_c, 3, 32, 0
2, 68040, Note_on_c, 3, 32, 60
2, 68145, Note_on_c, 3, 32, 0
2, 68160, Note_on_c, 3, 37, 69
2, 68260, Note_on_c, 3, 37, 0
2, 68280, Note_on_c, 3, 37, 71
2, 68381, Note_on_c, 3, 37, 0
2, 68400, Note_on_c, 3, 36, 68
2, 68497, Note_on_c, 3, 36, 0
2, 68520, Note_on_c, 3, 36, 80
2, 68637, Note_on_c, 3, 36, 0
2, 68640, Note_on_c, 3, 41, 60
2, 68720, Note_on_c, 3, 36, 32
2, 68738, Note_on_c, 3, 41, 0
2, 68741, Note_on_c, 3, 36, 0
2, 68760, Note_on_c, 3, 41, 70
2, 68875, Note_on_c, 3, 41, 0
2, 68880, Note_on_c, 3, 36, 49
2, 68914, Note_on_c, 3, 36, 0
2, 68960, Note_on_c, 3, 36, 58
2, 68994, Note_on_c, 3, 36, 0
2, 69000, Note_on_c, 3, 35, 51
2, 69113, Note_on_c, 3, 35, 0
2, 69120, Note_on_c, 3, 34, 57
2, 69200, Note_on_c, 3, 37, 35
2, 69210, Note_on_c, 3, 37, 0
2, 69236, Note_on_c, 3, 34, 0
2, 69240, Note_on_c, 3, 41, 72
2, 69353, Note_on_c, 3, 41, 0
2, 69360, Note_on_c, 3, 39, 52
2, 69440, Note_on_c, 3, 37, 52
2, 69480, Note_on_c, 3, 51, 71
2, 69488, Note_on_c, 3, 39, 0
2, 69496, Note_on_c, 3, 37, 0
2, 69680, Note_on_c, 3, 39, 48
2, 69701, Note_on_c, 3, 39, 0
2, 69701, Note_on_c, 3, 51, 0
2, 69720, Note_on_c, 3, 49, 70
2, 69800, Note_on_c, 3, 42, 34
2, 69810, Note_on_c, 3, 42, 0
2, 69821, Note_on_c, 3, 49, 0
2, 69840, Note_on_c, 3, 48, 51
2, 69840, Note_on_c, 3, 49, 23
2, 69939, Note_on_c, 3, 49, 0
2, 69945, Note_on_c, 3, 48, 0
2, 69960, Note_on_c, 3, 44, 46
2, 70040, Note_on_c, 3, 42, 42
2, 70068, Note_on_c, 3, 44, 0
2, 70069, Note_on_c, 3, 42, 0
2, 70080, Note_on_c, 3, 46, 61
2, 70194, Note_on_c, 3, 46, 0
2, 70200, Note_on_c, 3, 41, 56
2, 70305, Note_on_c, 3, 41, 0
2, 70320, Note_on_c, 3, 39, 43
2, 70400, Note_on_c, 3, 41, 55
2, 70413, Note_on_c, 3, 41, 0
2, 70436, Note_on_c, 3, 39, 0
2, 70440, Note_on_c, 3, 51, 68
2, 70537, Note_on_c, 3, 51, 0
2, 70560, Note_on_c, 3, 44, 57
2, 70640, Note_on_c, 3, 39, 44
2, 70659, Note_on_c, 3, 39, 0
2, 70676, Note_on_c, 3, 44, 0
2, 70680, Note_on_c, 3, 48, 66
2, 70760, Note_on_c, 3, 37, 34
2, 70770, Note_on_c, 3, 37, 0
2, 70781, Note_on_c, 3, 48, 0
2, 70800, Note_on_c, 3, 39, 38
2, 70880, Note_on_c, 3, 39, 0
2, 70920, Note_on_c, 3, 37, 76
2, 71028, Note_on_c, 3, 37, 0
2, 71040, Note_on_c, 3, 38, 51
2, 71120, Note_on_c, 3, 34, 37
2, 71139, Note_on_c, 3, 38, 0
2, 71143, Note_on_c, 3, 34, 0
2, 71160, Note_on_c, 3, 45, 73
2, 71274, Note_on_c, 3, 45, 0
2, 71280, Note_on_c, 3, 43, 47
2, 71389, Note_on_c, 3, 43, 0
2, 71400, Note_on_c, 3, 31, 53
2, 71520, Note_on_c, 3, 31, 0
2, 71520, Note_on_c, 3, 36, 60
2, 71600, Note_on_c, 3, 34, 40
2, 71624, Note_on_c, 3, 34, 0
2, 71635, Note_on_c, 3, 36, 0
2, 71640, Note_on_c, 3, 45, 78
2, 71753, Note_on_c, 3, 45, 0
2, 71760, Note_on_c, 3, 43, 50
2, 71880, Note_on_c, 3, 40, 61
2, 71881, Note_on_c, 3, 43, 0
2, 72000, Note_on_c, 3, 37, 45
2, 72005, Note_on_c, 3, 40, 0
2, 72120, Note_on_c, 3, 53, 74
2, 72472, Note_on_c, 3, 37, 0
2, 72480, Note_on_c, 3, 36, 54
2, 72481, Note_on_c, 3, 53, 0
2, 72560, Note_on_c, 3, 52, 62
2, 72560, Note_on_c, 3, 51, 53
2, 72583, Note_on_c, 3, 52, 0
2, 72588, Note_on_c, 3, 51, 0
2, 72600, Note_on_c, 3, 52, 56
2, 72907, Note_on_c, 3, 36, 0
2, 72920, Note_on_c, 3, 40, 48
2, 72937, Note_on_c, 3, 52, 0
2, 72947, Note_on_c, 3, 40, 0
2, 72960, Note_on_c, 3, 41, 54
2, 73158, Note_on_c, 3, 41, 0
2, 73160, Note_on_c, 3, 37, 46
2, 73187, Note_on_c, 3, 37, 0
2, 73200, Note_on_c, 3, 38, 44
2, 73280, Note_on_c, 3, 37, 39
2, 73302, Note_on_c, 3, 38, 0
2, 73314, Note_on_c, 3, 37, 0
2, 73320, Note_on_c, 3, 44, 55
2, 73400, Note_on_c, 3, 37, 40
2, 73426, Note_on_c, 3, 44, 0
2, 73431, Note_on_c, 3, 37, 0
2, 73440, Note_on_c, 3, 49, 56
2, 73542, Note_on_c, 3, 49, 0
2, 73560, Note_on_c, 3, 37, 55
2, 73640, Note_on_c, 3, 34, 23
2, 73660, Note_on_c, 3, 34, 0
2, 73680, Note_on_c, 3, 37, 0
2, 73680, Note_on_c, 3, 36, 53
2, 73760, Note_on_c, 3, 37, 39
2, 73777, Note_on_c, 3, 37, 0
2, 73785, Note_on_c, 3, 36, 0
2, 73800, Note_on_c, 3, 42, 71
2, 73880, Note_on_c, 3, 36, 30
2, 73901, Note_on_c, 3, 36, 0
2, 73903, Note_on_c, 3, 42, 0
2, 73920, Note_on_c, 3, 41, 58
2, 74000, Note_on_c, 3, 36, 35
2, 74023, Note_on_c, 3, 41, 0
2, 74040, Note_on_c, 3, 41, 74
2, 74042, Note_on_c, 3, 36, 0
2, 74120, Note_on_c, 3, 34, 25
2, 74134, Note_on_c, 3, 41, 0
2, 74148, Note_on_c, 3, 34, 0
2, 74160, Note_on_c, 3, 36, 43
2, 74259, Note_on_c, 3, 36, 0
2, 74280, Note_on_c, 3, 36, 74
2, 74388, Note_on_c, 3, 36, 0
2, 74400, Note_on_c, 3, 37, 68
2, 74509, Note_on_c, 3, 37, 0
2, 74520, Note_on_c, 3, 37, 83
2, 74629, Note_on_c, 3, 37, 0
2, 74640, Note_on_c, 3, 32, 61
2, 74739, Note_on_c, 3, 32, 0
2, 74760, Note_on_c, 3, 32, 62
2, 74870, Note_on_c, 3, 32, 0
2, 74880, Note_on_c, 3, 31, 67
2, 74991, Note_on_c, 3, 31, 0
2, 75000, Note_on_c, 3, 34, 58
2, 75059, Note_on_c, 3, 34, 0
2, 75080, Note_on_c, 3, 35, 60
2, 75113, Note_on_c, 3, 35, 0
2, 75120, Note_on_c, 3, 36, 68
2, 75200, Note_on_c, 3, 30, 84
2, 75210, Note_on_c, 3, 36, 0
2, 75345, Note_on_c, 3, 30, 0
2, 75360, Note_on_c, 3, 29, 72
2, 75480, Note_on_c, 3, 36, 71
2, 75515, Note_on_c, 3, 29, 0
2, 75582, Note_on_c, 3, 36, 0
2, 75600, Note_on_c, 3, 32, 36
2, 75720, Note_on_c, 3, 42, 79
2, 75817, Note_on_c, 3, 42, 0
2, 75830, Note_on_c, 3, 32, 0
2, 75840, Note_on_c, 3, 37, 55
2, 75924, Note_on_c, 3, 37, 0
2, 75960, Note_on_c, 3, 37, 51
2, 76069, Note_on_c, 3, 37, 0
2, 76080, Note_on_c, 3, 34, 25
2, 76080, Note_on_c, 3, 36, 45
2, 76094, Note_on_c, 3, 34, 0
2, 76160, Note_on_c, 3, 34, 30
2, 76189, Note_on_c, 3, 36, 0
2, 76200, Note_on_c, 3, 40, 68
2, 76209, Note_on_c, 3, 34, 0
2, 76280, Note_on_c, 3, 36, 32
2, 76295, Note_on_c, 3, 36, 0
2, 76307, Note_on_c, 3, 40, 0
2, 76320, Note_on_c, 3, 41, 53
2, 76418, Note_on_c, 3, 41, 0
2, 76440, Note_on_c, 3, 37, 62
2, 76520, Note_on_c, 3, 34, 34
2, 76541, Note_on_c, 3, 37, 0
2, 76549, Note_on_c, 3, 34, 0
2, 76560, Note_on_c, 3, 36, 51
2, 76640, Note_on_c, 3, 34, 30
2, 76658, Note_on_c, 3, 36, 0
2, 76677, Note_on_c, 3, 34, 0
2, 76680, Note_on_c, 3, 40, 77
2, 76788, Note_on_c, 3, 40, 0
2, 76800, Note_on_c, 3, 41, 66
2, 76912, Note_on_c, 3, 41, 0
2, 76920, Note_on_c, 3, 37, 75
2, 77030, Note_on_c, 3, 37, 0
2, 77040, Note_on_c, 3, 38, 67
2, 77157, Note_on_c, 3, 38, 0
2, 77160, Note_on_c, 3, 32, 65
2, 77280, Note_on_c, 3, 37, 68
2, 77284, Note_on_c, 3, 32, 0
2, 77400, Note_on_c, 3, 30, 67
2, 77409, Note_on_c, 3, 37, 0
2, 77512, Note_on_c, 3, 30, 0
2, 77520, Note_on_c, 3, 31, 48
2, 77617, Note_on_c, 3, 31, 0
2, 77640, Note_on_c, 3, 36, 62
2, 77720, Note_on_c, 3, 33, 50
2, 77732, Note_on_c, 3, 36, 0
2, 77734, Note_on_c, 3, 33, 0
2, 77760, Note_on_c, 3, 29, 42
2, 77868, Note_on_c, 3, 29, 0
2, 77880, Note_on_c, 3, 41, 64
2, 77990, Note_on_c, 3, 41, 0
2, 78000, Note_on_c, 3, 36, 68
2, 78105, Note_on_c, 3, 36, 0
2, 78160, Note_on_c, 3, 36, 64
2, 78240, Note_on_c, 3, 37, 53
2, 78247, Note_on_c, 3, 36, 0
2, 78343, Note_on_c, 3, 37, 0
2, 78360, Note_on_c, 3, 37, 71
2, 78480, Note_on_c, 3, 53, 65
2, 78500, Note_on_c, 3, 37, 0
2, 78560, Note_on_c, 3, 37, 38
2, 78577, Note_on_c, 3, 53, 0
2, 78598, Note_on_c, 3, 37, 0
2, 78600, Note_on_c, 3, 49, 46
2, 78680, Note_on_c, 3, 37, 36
2, 78699, Note_on_c, 3, 49, 0
2, 78701, Note_on_c, 3, 37, 0
2, 78720, Note_on_c, 3, 41, 63
2, 78800, Note_on_c, 3, 37, 33
2, 78823, Note_on_c, 3, 41, 0
2, 78831, Note_on_c, 3, 37, 0
2, 78840, Note_on_c, 3, 49, 60
2, 78937, Note_on_c, 3, 49, 0
2, 78960, Note_on_c, 3, 48, 55
2, 79071, Note_on_c, 3, 48, 0
2, 79080, Note_on_c, 3, 40, 59
2, 79160, Note_on_c, 3, 39, 37
2, 79188, Note_on_c, 3, 40, 0
2, 79192, Note_on_c, 3, 39, 0
2, 79200, Note_on_c, 3, 41, 54
2, 79284, Note_on_c, 3, 41, 0
2, 79320, Note_on_c, 3, 41, 72
2, 79400, Note_on_c, 3, 39, 20
2, 79422, Note_on_c, 3, 39, 0
2, 79431, Note_on_c, 3, 41, 0
2, 79440, Note_on_c, 3, 44, 88
2, 79542, Note_on_c, 3, 44, 0
2, 79560, Note_on_c, 3, 41, 41
2, 79560, Note_on_c, 3, 44, 83
2, 79579, Note_on_c, 3, 41, 0
2, 79658, Note_on_c, 3, 44, 0
2, 79680, Note_on_c, 3, 43, 60
2, 79791, Note_on_c, 3, 43, 0
2, 79800, Note_on_c, 3, 31, 64
2, 79900, Note_on_c, 3, 31, 0
2, 79920, Note_on_c, 3, 38, 60
2, 80017, Note_on_c, 3, 38, 0
2, 80040, Note_on_c, 3, 37, 60
2, 80153, Note_on_c, 3, 37, 0
2, 80160, Note_on_c, 3, 34, 23
2, 80160, Note_on_c, 3, 36, 62
2, 80179, Note_on_c, 3, 34, 0
2, 80240, Note_on_c, 3, 34, 34
2, 80268, Note_on_c, 3, 34, 0
2, 80269, Note_on_c, 3, 36, 0
2, 80280, Note_on_c, 3, 37, 25
2, 80280, Note_on_c, 3, 49, 88
2, 80290, Note_on_c, 3, 37, 0
2, 80360, Note_on_c, 3, 40, 28
2, 80373, Note_on_c, 3, 40, 0
2, 80390, Note_on_c, 3, 49, 0
2, 80400, Note_on_c, 3, 48, 68
2, 80480, Note_on_c, 3, 39, 52
2, 80499, Note_on_c, 3, 48, 0
2, 80502, Note_on_c, 3, 39, 0
2, 80560, Note_on_c, 3, 40, 62
2, 80560, Note_on_c, 3, 41, 68
2, 80597, Note_on_c, 3, 40, 0
2, 80636, Note_on_c, 3, 41, 0
2, 80640, Note_on_c, 3, 41, 47
2, 80640, Note_on_c, 3, 48, 81
2, 80653, Note_on_c, 3, 41, 0
2, 80752, Note_on_c, 3, 48, 0
2, 80760, Note_on_c, 3, 36, 56
2, 80863, Note_on_c, 3, 36, 0
2, 80880, Note_on_c, 3, 38, 64
2, 80996, Note_on_c, 3, 38, 0
2, 81000, Note_on_c, 3, 44, 75
2, 81080, Note_on_c, 3, 38, 49
2, 81090, Note_on_c, 3, 38, 0
2, 81102, Note_on_c, 3, 44, 0
2, 81120, Note_on_c, 3, 37, 79
2, 81240, Note_on_c, 3, 49, 78
2, 81265, Note_on_c, 3, 37, 0
2, 81320, Note_on_c, 3, 37, 47
2, 81343, Note_on_c, 3, 37, 0
2, 81357, Note_on_c, 3, 49, 0
2, 81360, Note_on_c, 3, 48, 75
2, 81475, Note_on_c, 3, 48, 0
2, 81480, Note_on_c, 3, 36, 64
2, 81540, Note_on_c, 3, 36, 0
2, 81560, Note_on_c, 3, 36, 40
2, 81597, Note_on_c, 3, 36, 0
2, 81600, Note_on_c, 3, 41, 71
2, 81705, Note_on_c, 3, 41, 0
2, 81720, Note_on_c, 3, 41, 60
2, 81827, Note_on_c, 3, 41, 0
2, 81840, Note_on_c, 3, 37, 59
2, 81958, Note_on_c, 3, 37, 0
2, 81960, Note_on_c, 3, 36, 69
2, 82069, Note_on_c, 3, 36, 0
2, 82080, Note_on_c, 3, 37, 69
2, 82200, Note_on_c, 3, 53, 74
2, 82365, Note_on_c, 3, 37, 0
2, 82400, Note_on_c, 3, 37, 58
2, 82412, Note_on_c, 3, 53, 0
2, 82429, Note_on_c, 3, 37, 0
2, 82440, Note_on_c, 3, 51, 55
2, 82520, Note_on_c, 3, 42, 63
2, 82535, Note_on_c, 3, 51, 0
2, 82551, Note_on_c, 3, 42, 0
2, 82560, Note_on_c, 3, 43, 62
2, 82720, Note_on_c, 3, 38, 55
2, 82721, Note_on_c, 3, 43, 0
2, 82743, Note_on_c, 3, 38, 0
2, 82760, Note_on_c, 3, 37, 62
2, 82778, Note_on_c, 3, 37, 0
2, 82800, Note_on_c, 3, 36, 77
2, 82920, Note_on_c, 3, 42, 54
2, 82922, Note_on_c, 3, 36, 0
2, 82947, Note_on_c, 3, 42, 0
2, 83000, Note_on_c, 3, 41, 87
2, 83000, Note_on_c, 3, 42, 40
2, 83010, Note_on_c, 3, 42, 0
2, 83272, Note_on_c, 3, 41, 0
2, 83280, Note_on_c, 3, 32, 63
2, 83532, Note_on_c, 3, 32, 0
2, 83640, Note_on_c, 3, 37, 73
2, 83721, Note_on_c, 3, 37, 0
2, 83760, Note_on_c, 3, 31, 49
2, 83880, Note_on_c, 3, 31, 0
2, 83880, Note_on_c, 3, 35, 62
2, 83960, Note_on_c, 3, 34, 36
2, 83975, Note_on_c, 3, 35, 0
2, 83984, Note_on_c, 3, 34, 0
2, 84000, Note_on_c, 3, 36, 52
2, 84051, Note_on_c, 3, 36, 0
2, 84080, Note_on_c, 3, 41, 71
2, 84103, Note_on_c, 3, 41, 0
2, 84200, Note_on_c, 3, 36, 51
2, 84213, Note_on_c, 3, 36, 0
2, 84240, Note_on_c, 3, 41, 74
2, 84440, Note_on_c, 3, 35, 55
2, 84455, Note_on_c, 3, 35, 0
2, 84465, Note_on_c, 3, 41, 0
2, 84480, Note_on_c, 3, 34, 67
2, 84600, Note_on_c, 3, 51, 33
2, 84600, Note_on_c, 3, 52, 69
2, 84631, Note_on_c, 3, 52, 0
2, 84825, Note_on_c, 3, 34, 0
2, 84840, Note_on_c, 3, 51, 0
2, 84840, Note_on_c, 3, 39, 61
2, 84920, Note_on_c, 3, 37, 34
2, 84958, Note_on_c, 3, 37, 0
2, 84958, Note_on_c, 3, 39, 0
2, 84960, Note_on_c, 3, 44, 68
2, 85069, Note_on_c, 3, 44, 0
2, 85080, Note_on_c, 3, 39, 57
2, 85187, Note_on_c, 3, 39, 0
2, 85200, Note_on_c, 3, 36, 51
2, 85297, Note_on_c, 3, 36, 0
2, 85400, Note_on_c, 3, 35, 71
2, 85418, Note_on_c, 3, 35, 0
2, 85440, Note_on_c, 3, 34, 33
2, 85520, Note_on_c, 3, 37, 35
2, 85532, Note_on_c, 3, 37, 0
2, 85555, Note_on_c, 3, 34, 0
2, 85560, Note_on_c, 3, 46, 74
2, 85658, Note_on_c, 3, 46, 0
2, 85680, Note_on_c, 3, 37, 30
2, 85680, Note_on_c, 3, 39, 48
2, 85697, Note_on_c, 3, 37, 0
2, 85760, Note_on_c, 3, 37, 43
2, 85790, Note_on_c, 3, 39, 0
2, 85800, Note_on_c, 3, 51, 67
2, 85805, Note_on_c, 3, 37, 0
2, 85880, Note_on_c, 3, 39, 21
2, 85906, Note_on_c, 3, 51, 0
2, 85910, Note_on_c, 3, 39, 0
2, 85920, Note_on_c, 3, 48, 44
2, 85984, Note_on_c, 3, 48, 0
2, 86040, Note_on_c, 3, 44, 28
2, 86040, Note_on_c, 3, 46, 65
2, 86054, Note_on_c, 3, 44, 0
2, 86120, Note_on_c, 3, 42, 53
2, 86137, Note_on_c, 3, 46, 0
2, 86141, Note_on_c, 3, 42, 0
2, 86160, Note_on_c, 3, 44, 59
2, 86268, Note_on_c, 3, 44, 0
2, 86280, Note_on_c, 3, 39, 57
2, 86360, Note_on_c, 3, 37, 32
2, 86385, Note_on_c, 3, 39, 0
2, 86387, Note_on_c, 3, 37, 0
2, 86400, Note_on_c, 3, 38, 52
2, 86480, Note_on_c, 3, 37, 25
2, 86480, Note_on_c, 3, 45, 55
2, 86485, Note_on_c, 3, 38, 0
2, 86497, Note_on_c, 3, 37, 0
2, 86504, Note_on_c, 3, 45, 0
2, 86520, Note_on_c, 3, 44, 73
2, 86600, Note_on_c, 3, 38, 38
2, 86611, Note_on_c, 3, 38, 0
2, 86622, Note_on_c, 3, 44, 0
2, 86640, Note_on_c, 3, 43, 57
2, 86720, Note_on_c, 3, 38, 51
2, 86733, Note_on_c, 3, 43, 0
2, 86750, Note_on_c, 3, 38, 0
2, 86760, Note_on_c, 3, 31, 59
2, 86960, Note_on_c, 3, 43, 69
2, 87026, Note_on_c, 3, 31, 0
2, 87032, Note_on_c, 3, 43, 0
2, 87040, Note_on_c, 3, 38, 62
2, 87082, Note_on_c, 3, 38, 0
2, 87120, Note_on_c, 3, 31, 64
2, 87320, Note_on_c, 3, 38, 57
2, 87322, Note_on_c, 3, 31, 0
2, 87329, Note_on_c, 3, 38, 0
2, 87360, Note_on_c, 3, 37, 62
2, 87560, Note_on_c, 3, 53, 75
2, 87769, Note_on_c, 3, 37, 0
2, 87800, Note_on_c, 3, 37, 60
2, 87821, Note_on_c, 3, 37, 0
2, 87830, Note_on_c, 3, 53, 0
2, 87840, Note_on_c, 3, 48, 72
2, 88040, Note_on_c, 3, 43, 60
2, 88056, Note_on_c, 3, 43, 0
2, 88067, Note_on_c, 3, 48, 0
2, 88080, Note_on_c, 3, 36, 64
2, 88180, Note_on_c, 3, 36, 0
2, 88200, Note_on_c, 3, 39, 50
2, 88269, Note_on_c, 3, 39, 0
2, 88280, Note_on_c, 3, 40, 38
2, 88309, Note_on_c, 3, 40, 0
2, 88320, Note_on_c, 3, 41, 57
2, 88508, Note_on_c, 3, 41, 0
2, 88520, Note_on_c, 3, 37, 46
2, 88553, Note_on_c, 3, 37, 0
2, 88560, Note_on_c, 3, 38, 56
2, 88800, Note_on_c, 3, 37, 56
2, 88800, Note_on_c, 3, 53, 49
2, 88810, Note_on_c, 3, 38, 0
2, 89000, Note_on_c, 3, 34, 33
2, 89014, Note_on_c, 3, 37, 0
2, 89020, Note_on_c, 3, 53, 0
2, 89040, Note_on_c, 3, 52, 58
2, 89040, Note_on_c, 3, 36, 43
2, 89047, Note_on_c, 3, 34, 0
2, 89200, Note_on_c, 3, 39, 60
2, 89202, Note_on_c, 3, 36, 0
2, 89233, Note_on_c, 3, 39, 0
2, 89240, Note_on_c, 3, 40, 51
2, 89248, Note_on_c, 3, 52, 0
2, 89274, Note_on_c, 3, 40, 0
2, 89280, Note_on_c, 3, 41, 88
2, 89614, Note_on_c, 3, 41, 0
2, 89640, Note_on_c, 3, 39, 25
2, 89640, Note_on_c, 3, 43, 58
2, 89676, Note_on_c, 3, 39, 0
2, 89823, Note_on_c, 3, 43, 0
2, 89840, Note_on_c, 3, 37, 64
2, 89994, Note_on_c, 3, 37, 0
2, 90000, Note_on_c, 3, 44, 64
2, 90200, Note_on_c, 3, 42, 53
2, 90202, Note_on_c, 3, 44, 0
2, 90236, Note_on_c, 3, 42, 0
2, 90240, Note_on_c, 3, 43, 58
2, 90348, Note_on_c, 3, 43, 0
2, 90360, Note_on_c, 3, 39, 15
2, 90360, Note_on_c, 3, 49, 76
2, 90394, Note_on_c, 3, 39, 0
2, 90468, Note_on_c, 3, 49, 0
2, 90480, Note_on_c, 3, 48, 64
2, 90680, Note_on_c, 3, 42, 49
2, 90684, Note_on_c, 3, 48, 0
2, 90704, Note_on_c, 3, 42, 0
2, 90720, Note_on_c, 3, 41, 63
2, 90800, Note_on_c, 3, 37, 31
2, 90812, Note_on_c, 3, 41, 0
2, 90836, Note_on_c, 3, 37, 0
2, 90840, Note_on_c, 3, 40, 63
2, 90959, Note_on_c, 3, 40, 0
2, 90960, Note_on_c, 3, 39, 56
2, 91080, Note_on_c, 3, 37, 29
2, 91080, Note_on_c, 3, 38, 68
2, 91083, Note_on_c, 3, 39, 0
2, 91099, Note_on_c, 3, 37, 0
2, 91186, Note_on_c, 3, 38, 0
2, 91200, Note_on_c, 3, 37, 65
2, 91436, Note_on_c, 3, 37, 0
2, 91440, Note_on_c, 3, 36, 67
2, 91680, Note_on_c, 3, 41, 74
2, 91685, Note_on_c, 3, 36, 0
2, 92540, Note_on_c, 3, 41, 0
2, 92540, End_track
3, 0, Start_track
3, 0, MIDI_port, 0
3, 0, Title_t, ""
3, 46078, Note_on_c, 9, 59, 57
3, 46087, Note_on_c, 9, 59, 0
3, 46208, Note_on_c, 9, 59, 45
3, 46217, Note_on_c, 9, 59, 0
3, 46326, Note_on_c, 9, 59, 70
3, 46345, Note_on_c, 9, 59, 0
3, 46450, Note_on_c, 9, 59, 57
3, 46478, Note_on_c, 9, 59, 0
3, 46538, Note_on_c, 9, 59, 60
3, 46558, Note_on_c, 9, 59, 0
3, 46569, Note_on_c, 9, 59, 57
3, 46634, Note_on_c, 9, 59, 0
3, 46687, Note_on_c, 9, 59, 71
3, 46766, Note_on_c, 9, 59, 0
3, 46805, Note_on_c, 9, 59, 72
3, 46868, Note_on_c, 9, 59, 0
3, 46894, Note_on_c, 9, 59, 36
3, 46905, Note_on_c, 9, 59, 0
3, 46927, Note_on_c, 9, 59, 68
3, 46975, Note_on_c, 9, 59, 0
3, 47051, Note_on_c, 9, 59, 77
3, 47119, Note_on_c, 9, 59, 0
3, 47174, Note_on_c, 9, 59, 69
3, 47227, Note_on_c, 9, 59, 0
3, 47263, Note_on_c, 9, 59, 44
3, 47274, Note_on_c, 9, 59, 0
3, 47291, Note_on_c, 9, 59, 68
3, 47370, Note_on_c, 9, 59, 0
3, 47409, Note_on_c, 9, 59, 83
3, 47475, Note_on_c, 9, 59, 0
3, 47495, Note_on_c, 9, 59, 59
3, 47513, Note_on_c, 9, 59, 0
3, 47528, Note_on_c, 9, 59, 77
3, 47600, Note_on_c, 9, 59, 0
3, 47645, Note_on_c, 9, 59, 91
3, 47716, Note_on_c, 9, 59, 0
3, 47764, Note_on_c, 9, 59, 103
3, 47835, Note_on_c, 9, 59, 0
3, 47854, Note_on_c, 9, 59, 49
3, 47866, Note_on_c, 9, 59, 0
3, 47882, Note_on_c, 9, 59, 68
3, 47970, Note_on_c, 9, 59, 0
3, 47997, Note_on_c, 9, 59, 77
3, 48079, Note_on_c, 9, 59, 0
3, 48100, Note_on_c, 9, 59, 44
3, 48110, Note_on_c, 9, 59, 0
3, 48122, Note_on_c, 9, 59, 87
3, 48211, Note_on_c, 9, 59, 0
3, 48246, Note_on_c, 9, 59, 91
3, 48330, Note_on_c, 9, 59, 0
3, 48367, Note_on_c, 9, 59, 89
3, 48464, Note_on_c, 9, 59, 0
3, 48490, Note_on_c, 9, 59, 76
3, 48561, Note_on_c, 9, 59, 0
3, 48585, Note_on_c, 9, 59, 61
3, 48600, Note_on_c, 9, 59, 0
3, 48611, Note_on_c, 9, 59, 84
3, 48708, Note_on_c, 9, 59, 0
3, 48729, Note_on_c, 9, 59, 75
3, 48815, Note_on_c, 9, 59, 0
3, 48845, Note_on_c, 9, 59, 78
3, 48912, Note_on_c, 9, 59, 0
3, 48933, Note_on_c, 9, 59, 75
3, 49036, Note_on_c, 9, 59, 0
3, 49051, Note_on_c, 9, 59, 77
3, 49073, Note_on_c, 9, 59, 0
3, 49086, Note_on_c, 9, 59, 92
3, 49182, Note_on_c, 9, 59, 0
3, 49205, Note_on_c, 9, 59, 60
3, 49277, Note_on_c, 9, 59, 0
3, 49289, Note_on_c, 9, 59, 72
3, 49308, Note_on_c, 9, 59, 0
3, 49321, Note_on_c, 9, 59, 92
3, 49420, Note_on_c, 9, 59, 0
3, 49437, Note_on_c, 9, 59, 75
3, 49525, Note_on_c, 9, 59, 0
3, 49557, Note_on_c, 9, 59, 84
3, 49641, Note_on_c, 9, 59, 0
3, 49642, Note_on_c, 9, 53, 79
3, 49660, Note_on_c, 9, 53, 0
3, 49684, Note_on_c, 9, 59, 47
3, 49759, Note_on_c, 9, 59, 0
3, 49775, Note_on_c, 9, 59, 46
3, 49783, Note_on_c, 9, 59, 0
3, 49798, Note_on_c, 9, 59, 80
3, 49898, Note_on_c, 9, 59, 0
3, 49920, Note_on_c, 9, 59, 80
3, 49996, Note_on_c, 9, 59, 0
3, 50014, Note_on_c, 9, 59, 48
3, 50023, Note_on_c, 9, 59, 0
3, 50038, Note_on_c, 9, 59, 81
3, 50141, Note_on_c, 9, 59, 0
3, 50162, Note_on_c, 9, 59, 75
3, 50263, Note_on_c, 9, 59, 0
3, 50284, Note_on_c, 9, 59, 75
3, 50358, Note_on_c, 9, 59, 0
3, 50377, Note_on_c, 9, 59, 54
3, 50387, Note_on_c, 9, 59, 0
3, 50402, Note_on_c, 9, 59, 80
3, 50506, Note_on_c, 9, 59, 0
3, 50530, Note_on_c, 9, 59, 75
3, 50619, Note_on_c, 9, 59, 0
3, 50650, Note_on_c, 9, 59, 77
3, 50735, Note_on_c, 9, 59, 0
3, 50769, Note_on_c, 9, 59, 80
3, 50838, Note_on_c, 9, 59, 0
3, 50857, Note_on_c, 9, 59, 62
3, 50868, Note_on_c, 9, 59, 0
3, 50887, Note_on_c, 9, 59, 84
3, 50980, Note_on_c, 9, 59, 0
3, 51006, Note_on_c, 9, 59, 74
3, 51086, Note_on_c, 9, 59, 0
3, 51103, Note_on_c, 9, 59, 64
3, 51111, Note_on_c, 9, 59, 0
3, 51130, Note_on_c, 9, 59, 68
3, 51223, Note_on_c, 9, 59, 0
3, 51250, Note_on_c, 9, 59, 77
3, 51321, Note_on_c, 9, 59, 0
3, 51345, Note_on_c, 9, 59, 69
3, 51361, Note_on_c, 9, 59, 0
3, 51374, Note_on_c, 9, 59, 84
3, 51469, Note_on_c, 9, 59, 0
3, 51489, Note_on_c, 9, 59, 70
3, 51583, Note_on_c, 9, 59, 0
3, 51612, Note_on_c, 9, 59, 71
3, 51692, Note_on_c, 9, 59, 0
3, 51731, Note_on_c, 9, 59, 77
3, 51809, Note_on_c, 9, 59, 0
3, 51847, Note_on_c, 9, 59, 75
3, 51931, Note_on_c, 9, 59, 0
3, 51964, Note_on_c, 9, 59, 71
3, 52013, Note_on_c, 9, 59, 0
3, 52055, Note_on_c, 9, 59, 62
3, 52084, Note_on_c, 9, 59, 0
3, 52163, Note_on_c, 9, 59, 72
3, 52182, Note_on_c, 9, 59, 0
3, 52197, Note_on_c, 9, 59, 75
3, 52292, Note_on_c, 9, 59, 0
3, 52320, Note_on_c, 9, 59, 74
3, 52390, Note_on_c, 9, 59, 0
3, 52408, Note_on_c, 9, 59, 61
3, 52419, Note_on_c, 9, 59, 0
3, 52440, Note_on_c, 9, 59, 77
3, 52535, Note_on_c, 9, 59, 0
3, 52564, Note_on_c, 9, 59, 78
3, 52647, Note_on_c, 9, 59, 0
3, 52690, Note_on_c, 9, 59, 45
3, 52699, Note_on_c, 9, 59, 0
3, 52729, Note_on_c, 9, 59, 74
3, 52799, Note_on_c, 9, 59, 0
3, 52815, Note_on_c, 9, 59, 80
3, 52885, Note_on_c, 9, 59, 0
3, 52902, Note_on_c, 9, 59, 70
3, 52944, Note_on_c, 9, 59, 0
3, 52981, Note_on_c, 9, 59, 41
3, 52991, Note_on_c, 9, 59, 0
3, 53013, Note_on_c, 9, 59, 65
3, 53032, Note_on_c, 9, 59, 0
3, 53054, Note_on_c, 9, 59, 70
3, 53131, Note_on_c, 9, 59, 0
3, 53168, Note_on_c, 9, 59, 25
3, 53187, Note_on_c, 9, 59, 0
3, 53206, Note_on_c, 9, 59, 61
3, 53220, Note_on_c, 9, 59, 0
3, 53241, Note_on_c, 9, 59, 84
3, 53308, Note_on_c, 9, 59, 0
3, 53329, Note_on_c, 9, 59, 35
3, 53340, Note_on_c, 9, 59, 0
3, 53368, Note_on_c, 9, 59, 53
3, 53380, Note_on_c, 9, 59, 0
3, 53409, Note_on_c, 9, 59, 80
3, 53491, Note_on_c, 9, 59, 0
3, 53519, Note_on_c, 9, 59, 35
3, 53591, Note_on_c, 9, 59, 0
3, 53610, Note_on_c, 9, 59, 50
3, 53619, Note_on_c, 9, 59, 0
3, 53639, Note_on_c, 9, 59, 65
3, 53724, Note_on_c, 9, 59, 0
3, 53757, Note_on_c, 9, 59, 68
3, 53851, Note_on_c, 9, 59, 0
3, 53890, Note_on_c, 9, 59, 66
3, 53961, Note_on_c, 9, 59, 0
3, 53979, Note_on_c, 9, 59, 66
3, 53990, Note_on_c, 9, 59, 0
3, 54009, Note_on_c, 9, 59, 71
3, 54097, Note_on_c, 9, 59, 0
3, 54126, Note_on_c, 9, 59, 71
3, 54195, Note_on_c, 9, 59, 0
3, 54216, Note_on_c, 9, 59, 51
3, 54227, Note_on_c, 9, 59, 0
3, 54245, Note_on_c, 9, 59, 64
3, 54321, Note_on_c, 9, 59, 0
3, 54366, Note_on_c, 9, 59, 80
3, 54450, Note_on_c, 9, 59, 0
3, 54486, Note_on_c, 9, 59, 44
3, 54530, Note_on_c, 9, 59, 0
3, 54570, Note_on_c, 9, 59, 53
3, 54580, Note_on_c, 9, 59, 0
3, 54601, Note_on_c, 9, 59, 72
3, 54690, Note_on_c, 9, 59, 0
3, 54723, Note_on_c, 9, 59, 71
3, 54793, Note_on_c, 9, 59, 0
3, 54812, Note_on_c, 9, 59, 47
3, 54824, Note_on_c, 9, 59, 0
3, 54846, Note_on_c, 9, 59, 65
3, 54933, Note_on_c, 9, 59, 0
3, 54962, Note_on_c, 9, 59, 62
3, 55043, Note_on_c, 9, 59, 0
3, 55080, Note_on_c, 9, 59, 76
3, 55150, Note_on_c, 9, 59, 0
3, 55162, Note_on_c, 9, 59, 40
3, 55171, Note_on_c, 9, 59, 0
3, 55282, Note_on_c, 9, 59, 64
3, 55294, Note_on_c, 9, 59, 0
3, 55319, Note_on_c, 9, 59, 63
3, 55411, Note_on_c, 9, 59, 0
3, 55438, Note_on_c, 9, 59, 68
3, 55505, Note_on_c, 9, 59, 0
3, 55525, Note_on_c, 9, 59, 58
3, 55539, Note_on_c, 9, 59, 0
3, 55558, Note_on_c, 9, 59, 77
3, 55635, Note_on_c, 9, 59, 0
3, 55674, Note_on_c, 9, 59, 77
3, 55760, Note_on_c, 9, 59, 0
3, 55792, Note_on_c, 9, 59, 72
3, 55856, Note_on_c, 9, 59, 0
3, 55884, Note_on_c, 9, 59, 36
3, 55897, Note_on_c, 9, 59, 0
3, 55917, Note_on_c, 9, 59, 66
3, 56007, Note_on_c, 9, 59, 0
3, 56034, Note_on_c, 9, 59, 67
3, 56101, Note_on_c, 9, 59, 0
3, 56122, Note_on_c, 9, 59, 49
3, 56137, Note_on_c, 9, 59, 0
3, 56157, Note_on_c, 9, 59, 72
3, 56242, Note_on_c, 9, 59, 0
3, 56275, Note_on_c, 9, 59, 73
3, 56360, Note_on_c, 9, 59, 0
3, 56402, Note_on_c, 9, 59, 67
3, 56476, Note_on_c, 9, 59, 0
3, 56488, Note_on_c, 9, 53, 69
3, 56509, Note_on_c, 9, 53, 0
3, 56526, Note_on_c, 9, 59, 51
3, 56620, Note_on_c, 9, 59, 0
3, 56640, Note_on_c, 9, 59, 63
3, 56716, Note_on_c, 9, 59, 0
3, 56735, Note_on_c, 9, 59, 53
3, 56744, Note_on_c, 9, 59, 0
3, 56763, Note_on_c, 9, 59, 66
3, 56857, Note_on_c, 9, 59, 0
3, 56882, Note_on_c, 9, 59, 66
3, 56957, Note_on_c, 9, 59, 0
3, 56975, Note_on_c, 9, 59, 46
3, 56985, Note_on_c, 9, 59, 0
3, 57004, Note_on_c, 9, 59, 63
3, 57102, Note_on_c, 9, 59, 0
3, 57124, Note_on_c, 9, 59, 60
3, 57191, Note_on_c, 9, 59, 0
3, 57211, Note_on_c, 9, 59, 49
3, 57226, Note_on_c, 9, 59, 0
3, 57246, Note_on_c, 9, 59, 74
3, 57334, Note_on_c, 9, 59, 0
3, 57361, Note_on_c, 9, 59, 62
3, 57424, Note_on_c, 9, 59, 0
3, 57448, Note_on_c, 9, 59, 49
3, 57460, Note_on_c, 9, 59, 0
3, 57481, Note_on_c, 9, 59, 67
3, 57503, Note_on_c, 9, 59, 0
3, 57566, Note_on_c, 9, 59, 105
3, 57677, Note_on_c, 9, 59, 0
3, 57696, Note_on_c, 9, 59, 40
3, 57707, Note_on_c, 9, 59, 0
3, 57727, Note_on_c, 9, 59, 62
3, 57815, Note_on_c, 9, 59, 0
3, 57849, Note_on_c, 9, 59, 58
3, 57875, Note_on_c, 9, 59, 0
3, 57932, Note_on_c, 9, 59, 74
3, 57941, Note_on_c, 9, 59, 0
3, 57973, Note_on_c, 9, 59, 74
3, 58052, Note_on_c, 9, 59, 0
3, 58090, Note_on_c, 9, 59, 58
3, 58145, Note_on_c, 9, 59, 0
3, 58166, Note_on_c, 9, 59, 54
3, 58181, Note_on_c, 9, 59, 0
3, 58207, Note_on_c, 9, 59, 40
3, 58245, Note_on_c, 9, 59, 0
3, 58286, Note_on_c, 9, 59, 83
3, 58314, Note_on_c, 9, 59, 0
3, 58333, Note_on_c, 9, 59, 50
3, 58409, Note_on_c, 9, 59, 0
3, 58444, Note_on_c, 9, 59, 75
3, 58515, Note_on_c, 9, 59, 0
3, 58535, Note_on_c, 9, 59, 55
3, 58545, Note_on_c, 9, 59, 0
3, 58569, Note_on_c, 9, 59, 61
3, 58644, Note_on_c, 9, 59, 0
3, 58688, Note_on_c, 9, 59, 79
3, 58758, Note_on_c, 9, 59, 0
3, 58778, Note_on_c, 9, 59, 49
3, 58788, Note_on_c, 9, 59, 0
3, 58807, Note_on_c, 9, 59, 64
3, 58886, Note_on_c, 9, 59, 0
3, 58932, Note_on_c, 9, 59, 74
3, 59011, Note_on_c, 9, 59, 0
3, 59055, Note_on_c, 9, 59, 73
3, 59130, Note_on_c, 9, 59, 0
3, 59163, Note_on_c, 9, 59, 66
3, 59225, Note_on_c, 9, 59, 0
3, 59249, Note_on_c, 9, 59, 46
3, 59262, Note_on_c, 9, 59, 0
3, 59283, Note_on_c, 9, 59, 66
3, 59368, Note_on_c, 9, 59, 0
3, 59402, Note_on_c, 9, 59, 74
3, 59468, Note_on_c, 9, 59, 0
3, 59487, Note_on_c, 9, 59, 60
3, 59509, Note_on_c, 9, 59, 0
3, 59526, Note_on_c, 9, 59, 76
3, 59600, Note_on_c, 9, 59, 0
3, 59647, Note_on_c, 9, 59, 78
3, 59704, Note_on_c, 9, 59, 0
3, 59733, Note_on_c, 9, 59, 47
3, 59747, Note_on_c, 9, 59, 0
3, 59768, Note_on_c, 9, 59, 66
3, 59830, Note_on_c, 9, 59, 0
3, 59886, Note_on_c, 9, 59, 79
3, 59945, Note_on_c, 9, 59, 0
3, 59971, Note_on_c, 9, 59, 43
3, 59987, Note_on_c, 9, 59, 0
3, 60005, Note_on_c, 9, 59, 66
3, 60070, Note_on_c, 9, 59, 0
3, 60122, Note_on_c, 9, 59, 84
3, 60177, Note_on_c, 9, 59, 0
3, 60211, Note_on_c, 9, 59, 47
3, 60222, Note_on_c, 9, 59, 0
3, 60242, Note_on_c, 9, 59, 65
3, 60315, Note_on_c, 9, 59, 0
3, 60358, Note_on_c, 9, 59, 72
3, 60438, Note_on_c, 9, 59, 0
3, 60482, Note_on_c, 9, 59, 71
3, 60553, Note_on_c, 9, 59, 0
3, 60596, Note_on_c, 9, 59, 64
3, 60678, Note_on_c, 9, 59, 0
3, 60722, Note_on_c, 9, 59, 48
3, 60775, Note_on_c, 9, 59, 0
3, 60810, Note_on_c, 9, 59, 41
3, 60820, Note_on_c, 9, 59, 0
3, 60840, Note_on_c, 9, 59, 72
3, 60934, Note_on_c, 9, 59, 0
3, 60960, Note_on_c, 9, 59, 49
3, 61041, Note_on_c, 9, 59, 0
3, 61078, Note_on_c, 9, 59, 74
3, 61135, Note_on_c, 9, 59, 0
3, 61174, Note_on_c, 9, 59, 46
3, 61184, Note_on_c, 9, 59, 0
3, 61207, Note_on_c, 9, 59, 70
3, 61263, Note_on_c, 9, 59, 0
3, 61288, Note_on_c, 9, 59, 88
3, 61382, Note_on_c, 9, 59, 0
3, 61410, Note_on_c, 9, 59, 43
3, 61421, Note_on_c, 9, 59, 0
3, 61448, Note_on_c, 9, 59, 84
3, 61536, Note_on_c, 9, 59, 0
3, 61573, Note_on_c, 9, 59, 41
3, 61600, Note_on_c, 9, 59, 0
3, 61650, Note_on_c, 9, 59, 95
3, 61727, Note_on_c, 9, 59, 0
3, 61769, Note_on_c, 9, 59, 51
3, 61782, Note_on_c, 9, 59, 0
3, 61819, Note_on_c, 9, 59, 94
3, 61898, Note_on_c, 9, 59, 0
3, 61933, Note_on_c, 9, 59, 33
3, 61968, Note_on_c, 9, 59, 0
3, 62009, Note_on_c, 9, 59, 91
3, 62107, Note_on_c, 9, 59, 0
3, 62135, Note_on_c, 9, 59, 34
3, 62151, Note_on_c, 9, 59, 0
3, 62175, Note_on_c, 9, 59, 85
3, 62266, Note_on_c, 9, 59, 0
3, 62292, Note_on_c, 9, 59, 39
3, 62333, Note_on_c, 9, 59, 0
3, 62372, Note_on_c, 9, 53, 60
3, 62378, Note_on_c, 9, 59, 34
3, 62383, Note_on_c, 9, 53, 0
3, 62389, Note_on_c, 9, 59, 0
3, 62495, Note_on_c, 9, 59, 62
3, 62508, Note_on_c, 9, 59, 0
3, 62531, Note_on_c, 9, 59, 66
3, 62623, Note_on_c, 9, 59, 0
3, 62649, Note_on_c, 9, 59, 69
3, 62726, Note_on_c, 9, 59, 0
3, 62746, Note_on_c, 9, 59, 55
3, 62755, Note_on_c, 9, 59, 0
3, 62775, Note_on_c, 9, 59, 72
3, 62862, Note_on_c, 9, 59, 0
3, 62885, Note_on_c, 9, 59, 73
3, 62961, Note_on_c, 9, 59, 0
3, 63003, Note_on_c, 9, 59, 73
3, 63083, Note_on_c, 9, 59, 0
3, 63098, Note_on_c, 9, 59, 48
3, 63109, Note_on_c, 9, 59, 0
3, 63128, Note_on_c, 9, 59, 68
3, 63210, Note_on_c, 9, 59, 0
3, 63241, Note_on_c, 9, 59, 77
3, 63310, Note_on_c, 9, 59, 0
3, 63338, Note_on_c, 9, 59, 39
3, 63352, Note_on_c, 9, 59, 0
3, 63369, Note_on_c, 9, 59, 67
3, 63451, Note_on_c, 9, 59, 0
3, 63479, Note_on_c, 9, 59, 72
3, 63550, Note_on_c, 9, 59, 0
3, 63598, Note_on_c, 9, 59, 77
3, 63674, Note_on_c, 9, 59, 0
3, 63697, Note_on_c, 9, 59, 39
3, 63707, Note_on_c, 9, 59, 0
3, 63723, Note_on_c, 9, 59, 76
3, 63806, Note_on_c, 9, 59, 0
3, 63840, Note_on_c, 9, 59, 72
3, 63925, Note_on_c, 9, 59, 0
3, 63961, Note_on_c, 9, 59, 77
3, 64024, Note_on_c, 9, 59, 0
3, 64047, Note_on_c, 9, 59, 51
3, 64066, Note_on_c, 9, 59, 0
3, 64079, Note_on_c, 9, 59, 68
3, 64153, Note_on_c, 9, 59, 0
3, 64197, Note_on_c, 9, 59, 82
3, 64267, Note_on_c, 9, 59, 0
3, 64289, Note_on_c, 9, 59, 44
3, 64304, Note_on_c, 9, 59, 0
3, 64322, Note_on_c, 9, 59, 65
3, 64394, Note_on_c, 9, 59, 0
3, 64444, Note_on_c, 9, 59, 84
3, 64523, Note_on_c, 9, 59, 0
3, 64546, Note_on_c, 9, 59, 40
3, 64558, Note_on_c, 9, 59, 0
3, 64576, Note_on_c, 9, 59, 74
3, 64633, Note_on_c, 9, 59, 0
3, 64657, Note_on_c, 9, 59, 80
3, 64726, Note_on_c, 9, 59, 0
3, 64776, Note_on_c, 9, 59, 89
3, 64811, Note_on_c, 9, 59, 0
3, 64823, Note_on_c, 9, 59, 26
3, 64838, Note_on_c, 9, 59, 0
3, 64888, Note_on_c, 9, 59, 49
3, 64899, Note_on_c, 9, 59, 0
3, 64927, Note_on_c, 9, 59, 85
3, 65011, Note_on_c, 9, 59, 0
3, 65038, Note_on_c, 9, 59, 63
3, 65103, Note_on_c, 9, 59, 0
3, 65127, Note_on_c, 9, 59, 38
3, 65139, Note_on_c, 9, 59, 0
3, 65159, Note_on_c, 9, 59, 82
3, 65230, Note_on_c, 9, 59, 0
3, 65245, Note_on_c, 9, 59, 91
3, 65355, Note_on_c, 9, 59, 0
3, 65371, Note_on_c, 9, 59, 42
3, 65380, Note_on_c, 9, 59, 0
3, 65404, Note_on_c, 9, 59, 74
3, 65484, Note_on_c, 9, 59, 0
3, 65519, Note_on_c, 9, 59, 83
3, 65597, Note_on_c, 9, 59, 0
3, 65641, Note_on_c, 9, 59, 81
3, 65712, Note_on_c, 9, 59, 0
3, 65732, Note_on_c, 9, 59, 37
3, 65742, Note_on_c, 9, 59, 0
3, 65759, Note_on_c, 9, 59, 73
3, 65852, Note_on_c, 9, 59, 0
3, 65878, Note_on_c, 9, 59, 71
3, 65952, Note_on_c, 9, 59, 0
3, 65967, Note_on_c, 9, 59, 59
3, 65977, Note_on_c, 9, 59, 0
3, 65999, Note_on_c, 9, 59, 71
3, 66095, Note_on_c, 9, 59, 0
3, 66123, Note_on_c, 9, 59, 76
3, 66215, Note_on_c, 9, 59, 0
3, 66243, Note_on_c, 9, 59, 74
3, 66316, Note_on_c, 9, 59, 0
3, 66335, Note_on_c, 9, 59, 54
3, 66344, Note_on_c, 9, 59, 0
3, 66364, Note_on_c, 9, 59, 67
3, 66458, Note_on_c, 9, 59, 0
3, 66486, Note_on_c, 9, 59, 74
3, 66559, Note_on_c, 9, 59, 0
3, 66578, Note_on_c, 9, 59, 29
3, 66589, Note_on_c, 9, 59, 0
3, 66604, Note_on_c, 9, 59, 83
3, 66702, Note_on_c, 9, 59, 0
3, 66726, Note_on_c, 9, 59, 76
3, 66801, Note_on_c, 9, 59, 0
3, 66817, Note_on_c, 9, 59, 40
3, 66827, Note_on_c, 9, 59, 0
3, 66845, Note_on_c, 9, 59, 76
3, 66938, Note_on_c, 9, 59, 0
3, 66963, Note_on_c, 9, 59, 71
3, 67032, Note_on_c, 9, 59, 0
3, 67045, Note_on_c, 9, 59, 66
3, 67063, Note_on_c, 9, 59, 0
3, 67078, Note_on_c, 9, 59, 81
3, 67173, Note_on_c, 9, 59, 0
3, 67201, Note_on_c, 9, 59, 74
3, 67266, Note_on_c, 9, 59, 0
3, 67284, Note_on_c, 9, 59, 60
3, 67293, Note_on_c, 9, 59, 0
3, 67315, Note_on_c, 9, 59, 68
3, 67369, Note_on_c, 9, 59, 0
3, 67396, Note_on_c, 9, 59, 83
3, 67466, Note_on_c, 9, 59, 0
3, 67489, Note_on_c, 9, 59, 74
3, 67547, Note_on_c, 9, 59, 0
3, 67570, Note_on_c, 9, 59, 78
3, 67629, Note_on_c, 9, 59, 0
3, 67650, Note_on_c, 9, 59, 74
3, 67754, Note_on_c, 9, 59, 0
3, 67768, Note_on_c, 9, 59, 47
3, 67777, Note_on_c, 9, 59, 0
3, 67801, Note_on_c, 9, 59, 71
3, 67887, Note_on_c, 9, 59, 0
3, 67922, Note_on_c, 9, 59, 74
3, 68004, Note_on_c, 9, 59, 0
3, 68042, Note_on_c, 9, 59, 79
3, 68107, Note_on_c, 9, 59, 0
3, 68129, Note_on_c, 9, 59, 44
3, 68144, Note_on_c, 9, 59, 0
3, 68165, Note_on_c, 9, 59, 71
3, 68248, Note_on_c, 9, 59, 0
3, 68286, Note_on_c, 9, 59, 69
3, 68354, Note_on_c, 9, 59, 0
3, 68377, Note_on_c, 9, 59, 28
3, 68389, Note_on_c, 9, 59, 0
3, 68410, Note_on_c, 9, 59, 58
3, 68486, Note_on_c, 9, 59, 0
3, 68525, Note_on_c, 9, 59, 65
3, 68592, Note_on_c, 9, 59, 0
3, 68615, Note_on_c, 9, 59, 44
3, 68628, Note_on_c, 9, 59, 0
3, 68648, Note_on_c, 9, 59, 53
3, 68706, Note_on_c, 9, 59, 0
3, 68758, Note_on_c, 9, 59, 62
3, 68826, Note_on_c, 9, 59, 0
3, 68881, Note_on_c, 9, 59, 52
3, 68938, Note_on_c, 9, 59, 0
3, 68996, Note_on_c, 9, 59, 69
3, 69057, Note_on_c, 9, 59, 0
3, 69081, Note_on_c, 9, 59, 41
3, 69096, Note_on_c, 9, 59, 0
3, 69117, Note_on_c, 9, 59, 59
3, 69183, Note_on_c, 9, 59, 0
3, 69228, Note_on_c, 9, 59, 72
3, 69281, Note_on_c, 9, 59, 0
3, 69333, Note_on_c, 9, 59, 68
3, 69350, Note_on_c, 9, 59, 0
3, 69363, Note_on_c, 9, 59, 57
3, 69445, Note_on_c, 9, 59, 0
3, 69472, Note_on_c, 9, 59, 64
3, 69545, Note_on_c, 9, 59, 0
3, 69563, Note_on_c, 9, 59, 43
3, 69574, Note_on_c, 9, 59, 0
3, 69594, Note_on_c, 9, 59, 58
3, 69678, Note_on_c, 9, 59, 0
3, 69714, Note_on_c, 9, 59, 69
3, 69780, Note_on_c, 9, 59, 0
3, 69801, Note_on_c, 9, 59, 50
3, 69818, Note_on_c, 9, 59, 0
3, 69837, Note_on_c, 9, 59, 72
3, 69914, Note_on_c, 9, 59, 0
3, 69957, Note_on_c, 9, 59, 68
3, 70022, Note_on_c, 9, 59, 0
3, 70046, Note_on_c, 9, 59, 40
3, 70064, Note_on_c, 9, 59, 0
3, 70082, Note_on_c, 9, 59, 60
3, 70160, Note_on_c, 9, 59, 0
3, 70199, Note_on_c, 9, 59, 71
3, 70274, Note_on_c, 9, 59, 0
3, 70320, Note_on_c, 9, 59, 61
3, 70389, Note_on_c, 9, 59, 0
3, 70436, Note_on_c, 9, 59, 65
3, 70499, Note_on_c, 9, 59, 0
3, 70525, Note_on_c, 9, 59, 34
3, 70540, Note_on_c, 9, 59, 0
3, 70560, Note_on_c, 9, 59, 69
3, 70635, Note_on_c, 9, 59, 0
3, 70675, Note_on_c, 9, 59, 69
3, 70746, Note_on_c, 9, 59, 0
3, 70796, Note_on_c, 9, 59, 69
3, 70866, Note_on_c, 9, 59, 0
3, 70889, Note_on_c, 9, 59, 51
3, 70900, Note_on_c, 9, 59, 0
3, 70922, Note_on_c, 9, 59, 65
3, 71007, Note_on_c, 9, 59, 0
3, 71049, Note_on_c, 9, 59, 77
3, 71094, Note_on_c, 9, 59, 0
3, 71169, Note_on_c, 9, 59, 64
3, 71222, Note_on_c, 9, 59, 0
3, 71289, Note_on_c, 9, 59, 65
3, 71331, Note_on_c, 9, 59, 0
3, 71405, Note_on_c, 9, 59, 63
3, 71460, Note_on_c, 9, 59, 0
3, 71520, Note_on_c, 9, 59, 66
3, 71576, Note_on_c, 9, 59, 0
3, 71640, Note_on_c, 9, 59, 68
3, 71694, Note_on_c, 9, 59, 0
3, 71758, Note_on_c, 9, 59, 67
3, 71819, Note_on_c, 9, 59, 0
3, 71878, Note_on_c, 9, 59, 65
3, 71925, Note_on_c, 9, 59, 0
3, 71971, Note_on_c, 9, 59, 71
3, 71989, Note_on_c, 9, 59, 0
3, 72000, Note_on_c, 9, 59, 68
3, 72076, Note_on_c, 9, 59, 0
3, 72115, Note_on_c, 9, 59, 71
3, 72184, Note_on_c, 9, 59, 0
3, 72230, Note_on_c, 9, 59, 65
3, 72303, Note_on_c, 9, 59, 0
3, 72354, Note_on_c, 9, 59, 64
3, 72388, Note_on_c, 9, 59, 0
3, 72451, Note_on_c, 9, 59, 55
3, 72462, Note_on_c, 9, 59, 0
3, 72480, Note_on_c, 9, 59, 74
3, 72562, Note_on_c, 9, 59, 0
3, 72600, Note_on_c, 9, 59, 73
3, 72672, Note_on_c, 9, 59, 0
3, 72713, Note_on_c, 9, 59, 72
3, 72785, Note_on_c, 9, 59, 0
3, 72836, Note_on_c, 9, 59, 78
3, 72901, Note_on_c, 9, 59, 0
3, 72926, Note_on_c, 9, 59, 56
3, 72943, Note_on_c, 9, 59, 0
3, 72961, Note_on_c, 9, 59, 80
3, 73030, Note_on_c, 9, 59, 0
3, 73087, Note_on_c, 9, 59, 71
3, 73098, Note_on_c, 9, 59, 0
3, 73173, Note_on_c, 9, 59, 90
3, 73250, Note_on_c, 9, 59, 0
3, 73287, Note_on_c, 9, 59, 55
3, 73297, Note_on_c, 9, 59, 0
3, 73333, Note_on_c, 9, 59, 95
3, 73405, Note_on_c, 9, 59, 0
3, 73447, Note_on_c, 9, 59, 48
3, 73484, Note_on_c, 9, 59, 0
3, 73531, Note_on_c, 9, 59, 91
3, 73569, Note_on_c, 9, 59, 0
3, 73588, Note_on_c, 9, 59, 27
3, 73624, Note_on_c, 9, 59, 0
3, 73655, Note_on_c, 9, 59, 41
3, 73669, Note_on_c, 9, 59, 0
3, 73688, Note_on_c, 9, 59, 76
3, 73779, Note_on_c, 9, 59, 0
3, 73804, Note_on_c, 9, 59, 74
3, 73857, Note_on_c, 9, 59, 0
3, 73891, Note_on_c, 9, 59, 54
3, 73913, Note_on_c, 9, 59, 0
3, 73924, Note_on_c, 9, 59, 57
3, 74002, Note_on_c, 9, 59, 0
3, 74039, Note_on_c, 9, 59, 79
3, 74104, Note_on_c, 9, 59, 0
3, 74127, Note_on_c, 9, 59, 47
3, 74145, Note_on_c, 9, 59, 0
3, 74161, Note_on_c, 9, 59, 68
3, 74232, Note_on_c, 9, 59, 0
3, 74258, Note_on_c, 9, 53, 58
3, 74267, Note_on_c, 9, 53, 0
3, 74284, Note_on_c, 9, 59, 35
3, 74370, Note_on_c, 9, 59, 0
3, 74408, Note_on_c, 9, 59, 71
3, 74483, Note_on_c, 9, 59, 0
3, 74534, Note_on_c, 9, 59, 74
3, 74599, Note_on_c, 9, 59, 0
3, 74615, Note_on_c, 9, 59, 78
3, 74616, Note_on_c, 9, 53, 73
3, 74694, Note_on_c, 9, 53, 0
3, 74713, Note_on_c, 9, 59, 0
3, 74771, Note_on_c, 9, 59, 76
3, 74772, Note_on_c, 9, 53, 72
3, 74836, Note_on_c, 9, 53, 0
3, 74861, Note_on_c, 9, 59, 0
3, 74887, Note_on_c, 9, 53, 37
3, 74899, Note_on_c, 9, 53, 0
3, 74962, Note_on_c, 9, 53, 81
3, 74968, Note_on_c, 9, 59, 70
3, 75030, Note_on_c, 9, 53, 0
3, 75066, Note_on_c, 9, 59, 0
3, 75089, Note_on_c, 9, 53, 57
3, 75098, Note_on_c, 9, 53, 0
3, 75133, Note_on_c, 9, 53, 80
3, 75141, Note_on_c, 9, 59, 57
3, 75177, Note_on_c, 9, 53, 0
3, 75205, Note_on_c, 9, 59, 0
3, 75249, Note_on_c, 9, 59, 61
3, 75292, Note_on_c, 9, 59, 0
3, 75327, Note_on_c, 9, 59, 89
3, 75422, Note_on_c, 9, 59, 0
3, 75444, Note_on_c, 9, 59, 40
3, 75465, Note_on_c, 9, 59, 0
3, 75486, Note_on_c, 9, 59, 78
3, 75572, Note_on_c, 9, 59, 0
3, 75605, Note_on_c, 9, 59, 73
3, 75680, Note_on_c, 9, 59, 0
3, 75719, Note_on_c, 9, 59, 72
3, 75783, Note_on_c, 9, 59, 0
3, 75805, Note_on_c, 9, 59, 48
3, 75822, Note_on_c, 9, 59, 0
3, 75843, Note_on_c, 9, 59, 73
3, 75931, Note_on_c, 9, 59, 0
3, 75962, Note_on_c, 9, 59, 67
3, 76029, Note_on_c, 9, 59, 0
3, 76049, Note_on_c, 9, 59, 53
3, 76069, Note_on_c, 9, 59, 0
3, 76084, Note_on_c, 9, 59, 70
3, 76161, Note_on_c, 9, 59, 0
3, 76203, Note_on_c, 9, 59, 78
3, 76258, Note_on_c, 9, 59, 0
3, 76288, Note_on_c, 9, 59, 48
3, 76301, Note_on_c, 9, 59, 0
3, 76321, Note_on_c, 9, 59, 66
3, 76405, Note_on_c, 9, 59, 0
3, 76441, Note_on_c, 9, 59, 77
3, 76532, Note_on_c, 9, 59, 0
3, 76566, Note_on_c, 9, 59, 76
3, 76629, Note_on_c, 9, 59, 0
3, 76650, Note_on_c, 9, 53, 70
3, 76661, Note_on_c, 9, 53, 0
3, 76692, Note_on_c, 9, 53, 43
3, 76741, Note_on_c, 9, 53, 0
3, 76764, Note_on_c, 9, 51, 83
3, 76780, Note_on_c, 9, 51, 0
3, 76813, Note_on_c, 9, 51, 44
3, 76879, Note_on_c, 9, 51, 0
3, 76922, Note_on_c, 9, 51, 97
3, 76998, Note_on_c, 9, 51, 0
3, 77039, Note_on_c, 9, 51, 88
3, 77107, Note_on_c, 9, 51, 0
3, 77159, Note_on_c, 9, 51, 88
3, 77220, Note_on_c, 9, 51, 0
3, 77253, Note_on_c, 9, 51, 53
3, 77267, Note_on_c, 9, 51, 0
3, 77283, Note_on_c, 9, 51, 74
3, 77367, Note_on_c, 9, 51, 0
3, 77408, Note_on_c, 9, 51, 90
3, 77464, Note_on_c, 9, 51, 0
3, 77500, Note_on_c, 9, 51, 56
3, 77510, Note_on_c, 9, 51, 0
3, 77531, Note_on_c, 9, 51, 60
3, 77582, Note_on_c, 9, 51, 0
3, 77608, Note_on_c, 9, 51, 73
3, 77609, Note_on_c, 9, 53, 74
3, 77701, Note_on_c, 9, 51, 0
3, 77713, Note_on_c, 9, 53, 0
3, 77733, Note_on_c, 9, 51, 71
3, 77749, Note_on_c, 9, 51, 0
3, 77774, Note_on_c, 9, 53, 84
3, 77778, Note_on_c, 9, 51, 73
3, 77820, Note_on_c, 9, 53, 0
3, 77851, Note_on_c, 9, 51, 0
3, 77888, Note_on_c, 9, 51, 67
3, 77924, Note_on_c, 9, 51, 0
3, 77968, Note_on_c, 9, 53, 78
3, 77968, Note_on_c, 9, 51, 81
3, 78011, Note_on_c, 9, 53, 0
3, 78061, Note_on_c, 9, 51, 0
3, 78093, Note_on_c, 9, 51, 57
3, 78108, Note_on_c, 9, 51, 0
3, 78135, Note_on_c, 9, 51, 88
3, 78223, Note_on_c, 9, 51, 0
3, 78255, Note_on_c, 9, 51, 67
3, 78305, Note_on_c, 9, 51, 0
3, 78340, Note_on_c, 9, 59, 74
3, 78341, Note_on_c, 9, 51, 77
3, 78409, Note_on_c, 9, 51, 0
3, 78409, Note_on_c, 9, 59, 0
3, 78456, Note_on_c, 9, 51, 77
3, 78535, Note_on_c, 9, 51, 0
3, 78582, Note_on_c, 9, 51, 77
3, 78606, Note_on_c, 9, 51, 0
3, 78622, Note_on_c, 9, 51, 60
3, 78690, Note_on_c, 9, 51, 0
3, 78740, Note_on_c, 9, 51, 81
3, 78799, Note_on_c, 9, 51, 0
3, 78851, Note_on_c, 9, 51, 75
3, 78897, Note_on_c, 9, 51, 0
3, 78936, Note_on_c, 9, 51, 55
3, 78952, Note_on_c, 9, 51, 0
3, 78967, Note_on_c, 9, 51, 74
3, 79046, Note_on_c, 9, 51, 0
3, 79085, Note_on_c, 9, 51, 81
3, 79144, Note_on_c, 9, 51, 0
3, 79172, Note_on_c, 9, 51, 48
3, 79186, Note_on_c, 9, 51, 0
3, 79202, Note_on_c, 9, 51, 72
3, 79278, Note_on_c, 9, 51, 0
3, 79323, Note_on_c, 9, 51, 84
3, 79391, Note_on_c, 9, 51, 0
3, 79449, Note_on_c, 9, 51, 78
3, 79525, Note_on_c, 9, 51, 0
3, 79565, Note_on_c, 9, 51, 83
3, 79657, Note_on_c, 9, 51, 0
3, 79686, Note_on_c, 9, 51, 76
3, 79747, Note_on_c, 9, 51, 0
3, 79775, Note_on_c, 9, 51, 39
3, 79788, Note_on_c, 9, 51, 0
3, 79806, Note_on_c, 9, 51, 73
3, 79888, Note_on_c, 9, 51, 0
3, 79931, Note_on_c, 9, 51, 53
3, 79940, Note_on_c, 9, 51, 0
3, 79957, Note_on_c, 9, 51, 60
3, 79983, Note_on_c, 9, 51, 0
3, 80050, Note_on_c, 9, 51, 81
3, 80121, Note_on_c, 9, 51, 0
3, 80247, Note_on_c, 9, 51, 59
3, 80321, Note_on_c, 9, 51, 0
3, 80373, Note_on_c, 9, 51, 46
3, 80382, Note_on_c, 9, 51, 0
3, 80411, Note_on_c, 9, 51, 76
3, 80471, Note_on_c, 9, 51, 0
3, 80490, Note_on_c, 9, 51, 42
3, 80499, Note_on_c, 9, 51, 0
3, 80614, Note_on_c, 9, 51, 84
3, 80646, Note_on_c, 9, 51, 0
3, 80780, Note_on_c, 9, 51, 87
3, 80825, Note_on_c, 9, 51, 0
3, 80860, Note_on_c, 9, 51, 44
3, 80883, Note_on_c, 9, 51, 0
3, 80899, Note_on_c, 9, 51, 43
3, 80908, Note_on_c, 9, 51, 0
3, 80971, Note_on_c, 9, 51, 79
3, 81010, Note_on_c, 9, 51, 0
3, 81025, Note_on_c, 9, 51, 34
3, 81034, Note_on_c, 9, 51, 0
3, 81136, Note_on_c, 9, 51, 83
3, 81200, Note_on_c, 9, 51, 0
3, 81212, Note_on_c, 9, 51, 48
3, 81220, Note_on_c, 9, 51, 0
3, 81254, Note_on_c, 9, 51, 34
3, 81267, Note_on_c, 9, 51, 0
3, 81330, Note_on_c, 9, 51, 82
3, 81362, Note_on_c, 9, 51, 0
3, 81380, Note_on_c, 9, 51, 36
3, 81402, Note_on_c, 9, 51, 0
3, 81453, Note_on_c, 9, 51, 57
3, 81468, Note_on_c, 9, 51, 0
3, 81486, Note_on_c, 9, 51, 73
3, 81574, Note_on_c, 9, 51, 0
3, 81610, Note_on_c, 9, 51, 77
3, 81686, Note_on_c, 9, 51, 0
3, 81733, Note_on_c, 9, 51, 73
3, 81775, Note_on_c, 9, 51, 0
3, 81821, Note_on_c, 9, 51, 78
3, 81861, Note_on_c, 9, 51, 0
3, 81901, Note_on_c, 9, 51, 35
3, 81909, Note_on_c, 9, 51, 0
3, 81938, Note_on_c, 9, 51, 44
3, 81946, Note_on_c, 9, 51, 0
3, 81975, Note_on_c, 9, 51, 88
3, 82037, Note_on_c, 9, 51, 0
3, 82053, Note_on_c, 9, 51, 77
3, 82105, Note_on_c, 9, 51, 0
3, 82137, Note_on_c, 9, 51, 67
3, 82164, Note_on_c, 9, 51, 0
3, 82176, Note_on_c, 9, 51, 40
3, 82187, Note_on_c, 9, 51, 0
3, 82217, Note_on_c, 9, 51, 85
3, 82278, Note_on_c, 9, 51, 0
3, 82296, Note_on_c, 9, 51, 75
3, 82352, Note_on_c, 9, 51, 0
3, 82371, Note_on_c, 9, 51, 53
3, 82380, Note_on_c, 9, 51, 0
3, 82413, Note_on_c, 9, 51, 64
3, 82429, Note_on_c, 9, 51, 0
3, 82451, Note_on_c, 9, 51, 83
3, 82532, Note_on_c, 9, 51, 0
3, 82569, Note_on_c, 9, 51, 77
3, 82640, Note_on_c, 9, 51, 0
3, 82683, Note_on_c, 9, 51, 79
3, 82749, Note_on_c, 9, 51, 0
3, 82800, Note_on_c, 9, 51, 83
3, 82879, Note_on_c, 9, 51, 0
3, 82920, Note_on_c, 9, 51, 83
3, 82979, Note_on_c, 9, 51, 0
3, 83007, Note_on_c, 9, 51, 49
3, 83022, Note_on_c, 9, 51, 0
3, 83040, Note_on_c, 9, 51, 70
3, 83122, Note_on_c, 9, 51, 0
3, 83159, Note_on_c, 9, 51, 81
3, 83226, Note_on_c, 9, 51, 0
3, 83283, Note_on_c, 9, 51, 83
3, 83358, Note_on_c, 9, 51, 0
3, 83405, Note_on_c, 9, 51, 79
3, 83457, Note_on_c, 9, 51, 0
3, 83486, Note_on_c, 9, 51, 46
3, 83496, Note_on_c, 9, 51, 0
3, 83519, Note_on_c, 9, 51, 67
3, 83606, Note_on_c, 9, 51, 0
3, 83640, Note_on_c, 9, 51, 77
3, 83736, Note_on_c, 9, 51, 0
3, 83771, Note_on_c, 9, 51, 75
3, 83828, Note_on_c, 9, 51, 0
3, 83855, Note_on_c, 9, 51, 40
3, 83866, Note_on_c, 9, 51, 0
3, 83884, Note_on_c, 9, 51, 65
3, 83948, Note_on_c, 9, 51, 0
3, 83966, Note_on_c, 9, 51, 78
3, 84072, Note_on_c, 9, 51, 0
3, 84089, Note_on_c, 9, 51, 50
3, 84099, Note_on_c, 9, 51, 0
3, 84121, Note_on_c, 9, 51, 64
3, 84204, Note_on_c, 9, 51, 0
3, 84241, Note_on_c, 9, 51, 80
3, 84301, Note_on_c, 9, 51, 0
3, 84321, Note_on_c, 9, 51, 45
3, 84332, Note_on_c, 9, 51, 0
3, 84356, Note_on_c, 9, 51, 68
3, 84409, Note_on_c, 9, 51, 0
3, 84439, Note_on_c, 9, 51, 87
3, 84538, Note_on_c, 9, 51, 0
3, 84559, Note_on_c, 9, 51, 50
3, 84576, Note_on_c, 9, 51, 0
3, 84601, Note_on_c, 9, 51, 74
3, 84679, Note_on_c, 9, 51, 0
3, 84726, Note_on_c, 9, 51, 83
3, 84796, Note_on_c, 9, 51, 0
3, 84845, Note_on_c, 9, 51, 76
3, 84897, Note_on_c, 9, 51, 0
3, 84928, Note_on_c, 9, 51, 48
3, 84945, Note_on_c, 9, 51, 0
3, 84963, Note_on_c, 9, 51, 67
3, 85042, Note_on_c, 9, 51, 0
3, 85082, Note_on_c, 9, 51, 79
3, 85154, Note_on_c, 9, 51, 0
3, 85207, Note_on_c, 9, 51, 80
3, 85272, Note_on_c, 9, 51, 0
3, 85325, Note_on_c, 9, 51, 84
3, 85399, Note_on_c, 9, 51, 0
3, 85444, Note_on_c, 9, 51, 74
3, 85503, Note_on_c, 9, 51, 0
3, 85558, Note_on_c, 9, 51, 77
3, 85615, Note_on_c, 9, 51, 0
3, 85643, Note_on_c, 9, 51, 50
3, 85657, Note_on_c, 9, 51, 0
3, 85674, Note_on_c, 9, 51, 68
3, 85760, Note_on_c, 9, 51, 0
3, 85797, Note_on_c, 9, 51, 76
3, 85852, Note_on_c, 9, 51, 0
3, 85884, Note_on_c, 9, 51, 45
3, 85901, Note_on_c, 9, 51, 0
3, 85918, Note_on_c, 9, 51, 73
3, 85989, Note_on_c, 9, 51, 0
3, 86041, Note_on_c, 9, 51, 77
3, 86097, Note_on_c, 9, 51, 0
3, 86167, Note_on_c, 9, 51, 76
3, 86234, Note_on_c, 9, 51, 0
3, 86287, Note_on_c, 9, 51, 76
3, 86333, Note_on_c, 9, 51, 0
3, 86374, Note_on_c, 9, 51, 47
3, 86389, Note_on_c, 9, 51, 0
3, 86406, Note_on_c, 9, 51, 73
3, 86470, Note_on_c, 9, 51, 0
3, 86524, Note_on_c, 9, 51, 78
3, 86545, Note_on_c, 9, 51, 0
3, 86615, Note_on_c, 9, 51, 49
3, 86623, Note_on_c, 9, 51, 0
3, 86645, Note_on_c, 9, 51, 57
3, 86670, Note_on_c, 9, 51, 0
3, 86728, Note_on_c, 9, 53, 82
3, 86753, Note_on_c, 9, 53, 0
3, 86770, Note_on_c, 9, 51, 50
3, 86783, Note_on_c, 9, 51, 0
3, 86847, Note_on_c, 9, 51, 71
3, 86862, Note_on_c, 9, 51, 0
3, 86886, Note_on_c, 9, 51, 53
3, 86945, Note_on_c, 9, 51, 0
3, 87000, Note_on_c, 9, 51, 77
3, 87050, Note_on_c, 9, 51, 0
3, 87123, Note_on_c, 9, 51, 68
3, 87140, Note_on_c, 9, 51, 0
3, 87210, Note_on_c, 9, 51, 48
3, 87218, Note_on_c, 9, 51, 0
3, 87241, Note_on_c, 9, 51, 64
3, 87312, Note_on_c, 9, 51, 0
3, 87359, Note_on_c, 9, 51, 78
3, 87403, Note_on_c, 9, 51, 0
3, 87449, Note_on_c, 9, 51, 46
3, 87462, Note_on_c, 9, 51, 0
3, 87479, Note_on_c, 9, 51, 69
3, 87546, Note_on_c, 9, 51, 0
3, 87599, Note_on_c, 9, 51, 80
3, 87649, Note_on_c, 9, 51, 0
3, 87693, Note_on_c, 9, 51, 38
3, 87703, Note_on_c, 9, 51, 0
3, 87723, Note_on_c, 9, 51, 67
3, 87800, Note_on_c, 9, 51, 0
3, 87845, Note_on_c, 9, 51, 81
3, 87901, Note_on_c, 9, 51, 0
3, 87936, Note_on_c, 9, 51, 40
3, 87944, Note_on_c, 9, 51, 0
3, 87964, Note_on_c, 9, 51, 56
3, 88041, Note_on_c, 9, 51, 0
3, 88083, Note_on_c, 9, 51, 81
3, 88145, Note_on_c, 9, 51, 0
3, 88201, Note_on_c, 9, 51, 78
3, 88248, Note_on_c, 9, 51, 0
3, 88295, Note_on_c, 9, 51, 69
3, 88306, Note_on_c, 9, 51, 0
3, 88323, Note_on_c, 9, 51, 75
3, 88385, Note_on_c, 9, 51, 0
3, 88443, Note_on_c, 9, 51, 88
3, 88510, Note_on_c, 9, 51, 0
3, 88563, Note_on_c, 9, 51, 87
3, 88635, Note_on_c, 9, 51, 0
3, 88686, Note_on_c, 9, 51, 81
3, 88742, Note_on_c, 9, 51, 0
3, 88769, Note_on_c, 9, 51, 38
3, 88779, Note_on_c, 9, 51, 0
3, 88800, Note_on_c, 9, 51, 55
3, 88869, Note_on_c, 9, 51, 0
3, 88917, Note_on_c, 9, 51, 78
3, 88947, Note_on_c, 9, 51, 0
3, 89042, Note_on_c, 9, 51, 57
3, 89093, Note_on_c, 9, 51, 0
3, 89157, Note_on_c, 9, 51, 71
3, 89204, Note_on_c, 9, 51, 0
3, 89282, Note_on_c, 9, 51, 71
3, 89340, Note_on_c, 9, 51, 0
3, 89404, Note_on_c, 9, 51, 70
3, 89450, Note_on_c, 9, 51, 0
3, 89496, Note_on_c, 9, 51, 61
3, 89510, Note_on_c, 9, 51, 0
3, 89529, Note_on_c, 9, 51, 63
3, 89588, Note_on_c, 9, 51, 0
3, 89647, Note_on_c, 9, 51, 71
3, 89694, Note_on_c, 9, 51, 0
3, 89736, Note_on_c, 9, 51, 60
3, 89748, Note_on_c, 9, 51, 0
3, 89768, Note_on_c, 9, 51, 68
3, 89832, Note_on_c, 9, 51, 0
3, 89887, Note_on_c, 9, 51, 77
3, 89947, Note_on_c, 9, 51, 0
3, 90005, Note_on_c, 9, 51, 74
3, 90060, Note_on_c, 9, 51, 0
3, 90127, Note_on_c, 9, 51, 75
3, 90176, Note_on_c, 9, 51, 0
3, 90215, Note_on_c, 9, 51, 71
3, 90231, Note_on_c, 9, 51, 0
3, 90245, Note_on_c, 9, 51, 75
3, 90289, Note_on_c, 9, 51, 0
3, 90357, Note_on_c, 9, 51, 76
3, 90378, Note_on_c, 9, 51, 0
3, 90482, Note_on_c, 9, 51, 75
3, 90498, Note_on_c, 9, 51, 0
3, 90607, Note_on_c, 9, 51, 61
3, 90638, Note_on_c, 9, 51, 0
3, 90698, Note_on_c, 9, 51, 73
3, 90714, Note_on_c, 9, 51, 0
3, 90733, Note_on_c, 9, 51, 63
3, 90753, Note_on_c, 9, 51, 0
3, 90822, Note_on_c, 9, 51, 68
3, 90833, Note_on_c, 9, 51, 0
3, 90858, Note_on_c, 9, 51, 62
3, 90875, Note_on_c, 9, 51, 0
3, 90940, Note_on_c, 9, 51, 52
3, 90950, Note_on_c, 9, 51, 0
3, 90975, Note_on_c, 9, 51, 49
3, 90989, Note_on_c, 9, 51, 0
3, 91059, Note_on_c, 9, 51, 73
3, 91077, Note_on_c, 9, 51, 0
3, 91097, Note_on_c, 9, 51, 46
3, 91110, Note_on_c, 9, 51, 0
3, 91174, Note_on_c, 9, 51, 69
3, 91184, Note_on_c, 9, 51, 0
3, 91217, Note_on_c, 9, 51, 73
3, 91235, Note_on_c, 9, 51, 0
3, 91293, Note_on_c, 9, 53, 74
3, 91295, Note_on_c, 9, 51, 78
3, 91304, Note_on_c, 9, 53, 0
3, 91312, Note_on_c, 9, 51, 0
3, 91380, Note_on_c, 9, 53, 71
3, 91398, Note_on_c, 9, 53, 0
3, 91468, Note_on_c, 9, 53, 71
3, 91472, Note_on_c, 9, 51, 81
3, 91488, Note_on_c, 9, 53, 0
3, 91500, Note_on_c, 9, 51, 0
3, 91558, Note_on_c, 9, 53, 73
3, 91576, Note_on_c, 9, 53, 0
3, 91630, Note_on_c, 9, 53, 68
3, 91637, Note_on_c, 9, 51, 74
3, 91649, Note_on_c, 9, 53, 0
3, 91660, Note_on_c, 9, 51, 0
3, 91724, Note_on_c, 9, 53, 70
3, 91727, Note_on_c, 9, 51, 82
3, 91741, Note_on_c, 9, 53, 0
3, 91753, Note_on_c, 9, 51, 0
3, 91820, Note_on_c, 9, 53, 63
3, 91822, Note_on_c, 9, 51, 79
3, 91828, Note_on_c, 9, 53, 0
3, 91843, Note_on_c, 9, 51, 0
3, 91902, Note_on_c, 9, 53, 62
3, 91909, Note_on_c, 9, 51, 75
3, 91916, Note_on_c, 9, 53, 0
3, 91932, Note_on_c, 9, 51, 0
3, 91992, Note_on_c, 9, 53, 57
3, 91999, Note_on_c, 9, 51, 68
3, 92002, Note_on_c, 9, 53, 0
3, 92020, Note_on_c, 9, 51, 0
3, 92083, Note_on_c, 9, 53, 46
3, 92090, Note_on_c, 9, 51, 64
3, 92093, Note_on_c, 9, 53, 0
3, 92114, Note_on_c, 9, 51, 0
3, 92172, Note_on_c, 9, 51, 50
3, 92197, Note_on_c, 9, 51, 0
3, 92244, Note_on_c, 9, 51, 35
3, 92265, Note_on_c, 9, 51, 0
3, 92305, Note_on_c, 9, 51, 57
3, 92334, Note_on_c, 9, 51, 0
3, 92359, Note_on_c, 9, 51, 33
3, 92388, Note_on_c, 9, 51, 0
3, 92401, Note_on_c, 9, 51, 31
3, 92421, Note_on_c, 9, 51, 0
3, 92440, Note_on_c, 9, 51, 36
3, 92448, Note_on_c, 9, 51, 0
3, 92464, Note_on_c, 9, 51, 49
3, 92473, Note_on_c, 9, 51, 0
3, 92491, Note_on_c, 9, 51, 43
3, 92499, Note_on_c, 9, 51, 0
3, 92515, Note_on_c, 9, 51, 59
3, 92523, Note_on_c, 9, 51, 0
3, 92540, Note_on_c, 9, 51, 51
3, 92548, Note_on_c, 9, 51, 0
3, 92562, Note_on_c, 9, 51, 62
3, 92570, Note_on_c, 9, 51, 0
3, 92584, Note_on_c, 9, 51, 39
3, 92592, Note_on_c, 9, 51, 0
3, 92610, Note_on_c, 9, 51, 39
3, 92618, Note_on_c, 9, 51, 0
3, 92631, Note_on_c, 9, 51, 36
3, 92641, Note_on_c, 9, 51, 0
3, 92658, Note_on_c, 9, 51, 47
3, 92667, Note_on_c, 9, 51, 0
3, 92681, Note_on_c, 9, 51, 35
3, 92689, Note_on_c, 9, 51, 0
3, 92725, Note_on_c, 9, 51, 21
3, 92736, Note_on_c, 9, 51, 0
3, 92749, Note_on_c, 9, 51, 34
3, 92761, Note_on_c, 9, 51, 0
3, 92774, Note_on_c, 9, 51, 33
3, 92789, Note_on_c, 9, 51, 0
3, 92805, Note_on_c, 9, 51, 35
3, 92816, Note_on_c, 9, 51, 0
3, 92831, Note_on_c, 9, 51, 34
3, 92843, Note_on_c, 9, 51, 0
3, 92858, Note_on_c, 9, 51, 50
3, 92891, Note_on_c, 9, 51, 0
3, 92900, Note_on_c, 9, 51, 37
3, 93062, Note_on_c, 9, 51, 0
3, 93062, End_track
4, 0, Start_track
4, 0, MIDI_port, 0
4, 0, Title_t, ""
4, 0, Program_c, 0, 0
4, 324, Control_c, 0, 64, 127
4, 329, Note_on_c, 0, 60, 74
4, 393, Note_on_c, 0, 60, 0
4, 412, Note_on_c, 0, 60, 66
4, 460, Note_on_c, 0, 60, 0
4, 480, Note_on_c, 0, 60, 65
4, 506, Note_on_c, 0, 60, 0
4, 546, Note_on_c, 0, 60, 53
4, 563, Note_on_c, 0, 60, 0
4, 715, Note_on_c, 0, 67, 53
4, 717, Note_on_c, 0, 56, 66
4, 717, Note_on_c, 0, 64, 48
4, 717, Note_on_c, 0, 60, 58
4, 718, Note_on_c, 0, 29, 36
4, 719, Note_on_c, 0, 41, 34
4, 720, Control_c, 0, 64, 0
4, 754, Control_c, 0, 64, 127
4, 775, Note_on_c, 0, 56, 0
4, 806, Note_on_c, 0, 29, 0
4, 812, Note_on_c, 0, 60, 0
4, 826, Note_on_c, 0, 41, 0
4, 833, Note_on_c, 0, 64, 0
4, 850, Note_on_c, 0, 67, 0
4, 870, Note_on_c, 0, 41, 43
4, 920, Note_on_c, 0, 53, 32
4, 929, Note_on_c, 0, 56, 25
4, 938, Note_on_c, 0, 53, 0
4, 946, Note_on_c, 0, 60, 35
4, 959, Note_on_c, 0, 56, 0
4, 966, Note_on_c, 0, 48, 27
4, 973, Note_on_c, 0, 60, 0
4, 980, Note_on_c, 0, 48, 0
4, 982, Note_on_c, 0, 56, 33
4, 999, Note_on_c, 0, 60, 36
4, 1013, Note_on_c, 0, 64, 24
4, 1016, Note_on_c, 0, 67, 31
4, 1017, Note_on_c, 0, 56, 0
4, 1019, Note_on_c, 0, 41, 0
4, 1034, Note_on_c, 0, 55, 68
4, 1035, Note_on_c, 0, 60, 0
4, 1041, Note_on_c, 0, 67, 0
4, 1043, Note_on_c, 0, 64, 0
4, 1045, Note_on_c, 0, 56, 52
4, 1060, Note_on_c, 0, 60, 47
4, 1070, Note_on_c, 0, 64, 27
4, 1078, Note_on_c, 0, 56, 0
4, 1080, Note_on_c, 0, 67, 17
4, 1096, Note_on_c, 0, 60, 0
4, 1102, Note_on_c, 0, 56, 55
4, 1103, Note_on_c, 0, 64, 0
4, 1103, Note_on_c, 0, 67, 0
4, 1119, Note_on_c, 0, 60, 43
4, 1132, Note_on_c, 0, 56, 0
4, 1132, Note_on_c, 0, 64, 24
4, 1137, Note_on_c, 0, 67, 20
4, 1154, Note_on_c, 0, 55, 0
4, 1156, Note_on_c, 0, 60, 0
4, 1160, Note_on_c, 0, 56, 55
4, 1161, Note_on_c, 0, 67, 0
4, 1162, Note_on_c, 0, 64, 0
4, 1172, Note_on_c, 0, 55, 57
4, 1180, Note_on_c, 0, 60, 59
4, 1190, Note_on_c, 0, 67, 33
4, 1190, Note_on_c, 0, 64, 33
4, 1192, Note_on_c, 0, 56, 0
4, 1211, Note_on_c, 0, 60, 0
4, 1218, Note_on_c, 0, 67, 0
4, 1221, Note_on_c, 0, 56, 47
4, 1222, Note_on_c, 0, 64, 0
4, 1236, Note_on_c, 0, 60, 47
4, 1238, Note_on_c, 0, 55, 0
4, 1246, Note_on_c, 0, 64, 33
4, 1252, Note_on_c, 0, 56, 0
4, 1254, Note_on_c, 0, 67, 24
4, 1266, Note_on_c, 0, 55, 49
4, 1272, Note_on_c, 0, 67, 0
4, 1272, Note_on_c, 0, 60, 0
4, 1279, Note_on_c, 0, 64, 0
4, 1283, Note_on_c, 0, 56, 45
4, 1296, Note_on_c, 0, 60, 44
4, 1310, Note_on_c, 0, 55, 0
4, 1310, Note_on_c, 0, 64, 18
4, 1313, Note_on_c, 0, 67, 34
4, 1314, Note_on_c, 0, 56, 0
4, 1336, Note_on_c, 0, 60, 0
4, 1337, Note_on_c, 0, 67, 0
4, 1343, Note_on_c, 0, 55, 43
4, 1346, Note_on_c, 0, 64, 0
4, 1350, Note_on_c, 0, 56, 40
4, 1363, Note_on_c, 0, 60, 43
4, 1373, Note_on_c, 0, 55, 0
4, 1375, Note_on_c, 0, 64, 22
4, 1379, Note_on_c, 0, 56, 0
4, 1380, Note_on_c, 0, 67, 29
4, 1400, Note_on_c, 0, 60, 0
4, 1408, Note_on_c, 0, 64, 0
4, 1411, Note_on_c, 0, 55, 43
4, 1412, Note_on_c, 0, 67, 0
4, 1416, Note_on_c, 0, 56, 30
4, 1435, Note_on_c, 0, 60, 30
4, 1451, Note_on_c, 0, 67, 22
4, 1455, Note_on_c, 0, 56, 0
4, 1466, Note_on_c, 0, 60, 0
4, 1484, Note_on_c, 0, 56, 25
4, 1490, Note_on_c, 0, 55, 0
4, 1528, Note_on_c, 0, 56, 0
4, 1548, Note_on_c, 0, 55, 24
4, 1558, Note_on_c, 0, 67, 0
4, 1602, Note_on_c, 0, 56, 42
4, 1603, Note_on_c, 0, 65, 60
4, 1608, Note_on_c, 0, 60, 43
4, 1660, Note_on_c, 0, 41, 50
4, 1686, Note_on_c, 0, 60, 0
4, 1689, Note_on_c, 0, 65, 0
4, 1692, Note_on_c, 0, 56, 0
4, 1717, Note_on_c, 0, 55, 0
4, 1746, Note_on_c, 0, 64, 74
4, 1746, Note_on_c, 0, 59, 70
4, 1747, Note_on_c, 0, 68, 71
4, 1750, Note_on_c, 0, 53, 55
4, 1758, Control_c, 0, 64, 0
4, 1792, Control_c, 0, 64, 127
4, 1824, Note_on_c, 0, 68, 0
4, 1832, Note_on_c, 0, 53, 0
4, 1855, Note_on_c, 0, 55, 78
4, 1860, Note_on_c, 0, 66, 30
4, 1896, Note_on_c, 0, 41, 0
4, 1944, Note_on_c, 0, 55, 0
4, 1946, Note_on_c, 0, 66, 0
4, 1948, Note_on_c, 0, 56, 77
4, 1985, Note_on_c, 0, 59, 0
4, 2004, Note_on_c, 0, 64, 0
4, 2009, Note_on_c, 0, 59, 47
4, 2034, Note_on_c, 0, 64, 39
4, 2050, Note_on_c, 0, 59, 0
4, 2057, Note_on_c, 0, 68, 32
4, 2066, Note_on_c, 0, 64, 0
4, 2074, Note_on_c, 0, 59, 41
4, 2075, Note_on_c, 0, 68, 0
4, 2091, Note_on_c, 0, 64, 32
4, 2108, Note_on_c, 0, 59, 0
4, 2110, Note_on_c, 0, 68, 31
4, 2122, Note_on_c, 0, 59, 73
4, 2128, Note_on_c, 0, 64, 0
4, 2146, Note_on_c, 0, 68, 0
4, 2149, Note_on_c, 0, 56, 0
4, 2155, Note_on_c, 0, 64, 36
4, 2164, Note_on_c, 0, 68, 36
4, 2181, Note_on_c, 0, 59, 0
4, 2195, Note_on_c, 0, 64, 0
4, 2198, Note_on_c, 0, 53, 72
4, 2199, Note_on_c, 0, 59, 51
4, 2203, Note_on_c, 0, 68, 0
4, 2220, Note_on_c, 0, 64, 32
4, 2224, Note_on_c, 0, 68, 37
4, 2237, Note_on_c, 0, 59, 0
4, 2253, Note_on_c, 0, 64, 0
4, 2256, Note_on_c, 0, 59, 61
4, 2257, Note_on_c, 0, 68, 0
4, 2258, Note_on_c, 0, 41, 51
4, 2272, Note_on_c, 0, 68, 38
4, 2274, Note_on_c, 0, 64, 35
4, 2275, Note_on_c, 0, 53, 0
4, 2281, Note_on_c, 0, 59, 0
4, 2294, Note_on_c, 0, 41, 0
4, 2301, Note_on_c, 0, 68, 0
4, 2302, Note_on_c, 0, 59, 45
4, 2304, Note_on_c, 0, 64, 0
4, 2323, Note_on_c, 0, 68, 26
4, 2327, Note_on_c, 0, 64, 41
4, 2328, Note_on_c, 0, 41, 44
4, 2329, Note_on_c, 0, 59, 0
4, 2348, Note_on_c, 0, 64, 0
4, 2351, Note_on_c, 0, 59, 43
4, 2353, Note_on_c, 0, 68, 0
4, 2366, Note_on_c, 0, 68, 23
4, 2375, Note_on_c, 0, 64, 30
4, 2376, Note_on_c, 0, 59, 0
4, 2395, Note_on_c, 0, 68, 0
4, 2398, Note_on_c, 0, 59, 24
4, 2401, Note_on_c, 0, 64, 0
4, 2417, Note_on_c, 0, 29, 34
4, 2420, Note_on_c, 0, 68, 31
4, 2428, Note_on_c, 0, 59, 0
4, 2430, Note_on_c, 0, 64, 20
4, 2445, Note_on_c, 0, 64, 0
4, 2452, Note_on_c, 0, 59, 44
4, 2477, Note_on_c, 0, 64, 15
4, 2486, Note_on_c, 0, 41, 0
4, 2492, Note_on_c, 0, 59, 0
4, 2501, Note_on_c, 0, 64, 0
4, 2517, Note_on_c, 0, 59, 35
4, 2522, Note_on_c, 0, 68, 0
4, 2526, Note_on_c, 0, 64, 33
4, 2562, Note_on_c, 0, 68, 12
4, 2562, Note_on_c, 0, 41, 40
4, 2636, Note_on_c, 0, 68, 0
4, 2643, Note_on_c, 0, 64, 0
4, 2660, Note_on_c, 0, 59, 0
4, 2695, Note_on_c, 0, 29, 0
4, 2720, Note_on_c, 0, 41, 0
4, 2759, Note_on_c, 0, 67, 42
4, 2901, Note_on_c, 0, 67, 0
4, 2942, Note_on_c, 0, 29, 31
4, 2985, Note_on_c, 0, 41, 35
4, 2986, Note_on_c, 0, 29, 0
4, 3003, Note_on_c, 0, 41, 0
4, 3013, Note_on_c, 0, 29, 32
4, 3040, Note_on_c, 0, 41, 35
4, 3044, Note_on_c, 0, 29, 0
4, 3044, Note_on_c, 0, 53, 64
4, 3050, Note_on_c, 0, 65, 52
4, 3065, Note_on_c, 0, 41, 0
4, 3074, Note_on_c, 0, 29, 38
4, 3080, Note_on_c, 0, 53, 0
4, 3090, Note_on_c, 0, 65, 0
4, 3114, Note_on_c, 0, 29, 0
4, 3115, Note_on_c, 0, 41, 40
4, 3122, Note_on_c, 0, 55, 66
4, 3127, Note_on_c, 0, 67, 58
4, 3139, Note_on_c, 0, 41, 0
4, 3143, Note_on_c, 0, 29, 34
4, 3152, Note_on_c, 0, 55, 0
4, 3156, Note_on_c, 0, 67, 0
4, 3181, Note_on_c, 0, 41, 45
4, 3184, Note_on_c, 0, 29, 0
4, 3185, Note_on_c, 0, 56, 56
4, 3188, Note_on_c, 0, 68, 73
4, 3204, Note_on_c, 0, 41, 0
4, 3206, Note_on_c, 0, 56, 0
4, 3208, Note_on_c, 0, 29, 39
4, 3214, Note_on_c, 0, 68, 0
4, 3235, Note_on_c, 0, 58, 55
4, 3237, Note_on_c, 0, 70, 65
4, 3240, Note_on_c, 0, 41, 51
4, 3244, Note_on_c, 0, 29, 0
4, 3264, Note_on_c, 0, 70, 0
4, 3265, Note_on_c, 0, 41, 0
4, 3267, Note_on_c, 0, 58, 0
4, 3272, Note_on_c, 0, 29, 40
4, 3288, Note_on_c, 0, 60, 65
4, 3289, Note_on_c, 0, 72, 42
4, 3290, Note_on_c, 0, 74, 65
4, 3295, Note_on_c, 0, 41, 58
4, 3295, Note_on_c, 0, 62, 28
4, 3302, Note_on_c, 0, 62, 0
4, 3305, Note_on_c, 0, 74, 0
4, 3314, Note_on_c, 0, 72, 0
4, 3314, Note_on_c, 0, 29, 0
4, 3318, Note_on_c, 0, 60, 0
4, 3332, Note_on_c, 0, 41, 0
4, 3336, Note_on_c, 0, 29, 44
4, 3342, Note_on_c, 0, 70, 71
4, 3344, Note_on_c, 0, 58, 70
4, 3372, Note_on_c, 0, 70, 0
4, 3374, Note_on_c, 0, 58, 0
4, 3392, Note_on_c, 0, 41, 55
4, 3396, Note_on_c, 0, 68, 53
4, 3400, Note_on_c, 0, 56, 55
4, 3402, Note_on_c, 0, 29, 0
4, 3423, Note_on_c, 0, 68, 0
4, 3434, Note_on_c, 0, 56, 0
4, 3435, Note_on_c, 0, 41, 0
4, 3456, Note_on_c, 0, 67, 66
4, 3456, Note_on_c, 0, 29, 30
4, 3460, Note_on_c, 0, 55, 63
4, 3461, Note_on_c, 0, 41, 42
4, 3483, Note_on_c, 0, 29, 0
4, 3494, Note_on_c, 0, 41, 0
4, 3496, Note_on_c, 0, 67, 0
4, 3503, Note_on_c, 0, 55, 0
4, 3536, Note_on_c, 0, 33, 57
4, 3539, Note_on_c, 0, 65, 56
4, 3539, Note_on_c, 0, 45, 44
4, 3541, Note_on_c, 0, 60, 62
4, 3542, Note_on_c, 0, 53, 46
4, 3543, Note_on_c, 0, 55, 44
4, 3549, Control_c, 0, 64, 0
4, 3594, Control_c, 0, 64, 127
4, 3624, Note_on_c, 0, 53, 0
4, 3669, Note_on_c, 0, 45, 0
4, 3691, Note_on_c, 0, 45, 48
4, 3720, Note_on_c, 0, 60, 0
4, 3723, Note_on_c, 0, 55, 0
4, 3760, Note_on_c, 0, 45, 0
4, 3792, Note_on_c, 0, 65, 0
4, 3793, Note_on_c, 0, 63, 50
4, 3794, Note_on_c, 0, 55, 58
4, 3798, Note_on_c, 0, 60, 47
4, 3799, Note_on_c, 0, 45, 49
4, 3875, Note_on_c, 0, 33, 0
4, 3959, Note_on_c, 0, 55, 0
4, 4224, Note_on_c, 0, 63, 0
4, 4233, Note_on_c, 0, 45, 0
4, 4233, Note_on_c, 0, 60, 0
4, 4237, Note_on_c, 0, 65, 57
4, 4402, Note_on_c, 0, 65, 0
4, 4661, Note_on_c, 0, 79, 55
4, 4806, Note_on_c, 0, 79, 0
4, 4820, Note_on_c, 0, 70, 55
4, 4820, Note_on_c, 0, 80, 55
4, 4825, Note_on_c, 0, 65, 38
4, 4832, Control_c, 0, 64, 0
4, 4853, Control_c, 0, 64, 127
4, 4875, Note_on_c, 0, 70, 0
4, 4888, Note_on_c, 0, 80, 0
4, 4933, Note_on_c, 0, 65, 0
4, 4940, Note_on_c, 0, 82, 67
4, 4940, Note_on_c, 0, 64, 37
4, 4944, Note_on_c, 0, 73, 35
4, 4948, Control_c, 0, 64, 0
4, 4976, Control_c, 0, 64, 127
4, 5037, Note_on_c, 0, 82, 0
4, 5047, Note_on_c, 0, 73, 0
4, 5080, Note_on_c, 0, 84, 63
4, 5082, Note_on_c, 0, 74, 35
4, 5084, Note_on_c, 0, 63, 45
4, 5089, Control_c, 0, 64, 0
4, 5093, Note_on_c, 0, 64, 0
4, 5111, Control_c, 0, 64, 127
4, 5130, Note_on_c, 0, 74, 0
4, 5131, Note_on_c, 0, 84, 0
4, 5154, Note_on_c, 0, 63, 0
4, 5177, Note_on_c, 0, 62, 47
4, 5182, Note_on_c, 0, 85, 68
4, 5182, Note_on_c, 0, 76, 47
4, 5189, Control_c, 0, 64, 0
4, 5200, Note_on_c, 0, 70, 11
4, 5210, Control_c, 0, 64, 127
4, 5238, Note_on_c, 0, 85, 0
4, 5244, Note_on_c, 0, 76, 0
4, 5261, Note_on_c, 0, 62, 0
4, 5263, Note_on_c, 0, 61, 47
4, 5265, Note_on_c, 0, 74, 47
4, 5266, Note_on_c, 0, 84, 51
4, 5267, Control_c, 0, 64, 0
4, 5279, Control_c, 0, 64, 127
4, 5291, Note_on_c, 0, 84, 0
4, 5292, Note_on_c, 0, 74, 0
4, 5308, Note_on_c, 0, 70, 0
4, 5327, Note_on_c, 0, 61, 0
4, 5363, Note_on_c, 0, 76, 46
4, 5363, Note_on_c, 0, 87, 62
4, 5366, Note_on_c, 0, 70, 37
4, 5368, Note_on_c, 0, 80, 40
4, 5373, Control_c, 0, 64, 0
4, 5374, Note_on_c, 0, 60, 35
4, 5424, Control_c, 0, 64, 127
4, 5499, Note_on_c, 0, 70, 0
4, 5508, Note_on_c, 0, 60, 0
4, 5605, Note_on_c, 0, 87, 0
4, 5634, Note_on_c, 0, 85, 53
4, 5656, Note_on_c, 0, 80, 0
4, 5660, Note_on_c, 0, 85, 0
4, 5695, Note_on_c, 0, 76, 0
4, 5719, Note_on_c, 0, 84, 53
4, 5720, Note_on_c, 0, 53, 37
4, 5722, Control_c, 0, 64, 0
4, 5748, Control_c, 0, 64, 127
4, 5778, Note_on_c, 0, 53, 0
4, 5786, Note_on_c, 0, 60, 45
4, 5838, Note_on_c, 0, 84, 0
4, 5856, Note_on_c, 0, 67, 31
4, 5924, Note_on_c, 0, 72, 28
4, 5977, Note_on_c, 0, 67, 0
4, 5984, Note_on_c, 0, 77, 36
4, 6035, Note_on_c, 0, 84, 72
4, 6064, Note_on_c, 0, 84, 0
4, 6085, Note_on_c, 0, 84, 62
4, 6088, Note_on_c, 0, 52, 53
4, 6091, Note_on_c, 0, 77, 0
4, 6096, Note_on_c, 0, 60, 0
4, 6097, Control_c, 0, 64, 0
4, 6098, Note_on_c, 0, 72, 0
4, 6121, Control_c, 0, 64, 127
4, 6134, Note_on_c, 0, 60, 52
4, 6171, Note_on_c, 0, 84, 0
4, 6182, Note_on_c, 0, 72, 58
4, 6195, Note_on_c, 0, 52, 0
4, 6208, Note_on_c, 0, 60, 0
4, 6228, Note_on_c, 0, 77, 58
4, 6279, Note_on_c, 0, 84, 80
4, 6308, Note_on_c, 0, 84, 0
4, 6322, Note_on_c, 0, 77, 0
4, 6324, Note_on_c, 0, 72, 0
4, 6331, Note_on_c, 0, 84, 61
4, 6365, Note_on_c, 0, 84, 0
4, 6392, Note_on_c, 0, 85, 23
4, 6395, Note_on_c, 0, 84, 42
4, 6396, Note_on_c, 0, 78, 38
4, 6397, Note_on_c, 0, 61, 31
4, 6398, Note_on_c, 0, 85, 0
4, 6398, Note_on_c, 0, 51, 33
4, 6402, Control_c, 0, 64, 0
4, 6444, Control_c, 0, 64, 127
4, 6461, Note_on_c, 0, 61, 0
4, 6463, Note_on_c, 0, 84, 0
4, 6464, Note_on_c, 0, 58, 37
4, 6475, Note_on_c, 0, 78, 0
4, 6539, Note_on_c, 0, 61, 35
4, 6619, Note_on_c, 0, 66, 31
4, 6702, Note_on_c, 0, 70, 31
4, 6789, Note_on_c, 0, 77, 42
4, 6839, Note_on_c, 0, 70, 0
4, 6842, Note_on_c, 0, 77, 0
4, 6844, Note_on_c, 0, 66, 0
4, 6845, Note_on_c, 0, 58, 0
4, 6847, Note_on_c, 0, 61, 0
4, 6862, Note_on_c, 0, 51, 0
4, 6905, Note_on_c, 0, 77, 33
4, 6907, Note_on_c, 0, 65, 33
4, 6909, Control_c, 0, 64, 0
4, 6910, Note_on_c, 0, 60, 30
4, 6910, Note_on_c, 0, 50, 24
4, 6916, Note_on_c, 0, 54, 21
4, 6941, Control_c, 0, 64, 127
4, 6944, Note_on_c, 0, 60, 0
4, 6956, Note_on_c, 0, 54, 0
4, 6959, Note_on_c, 0, 50, 0
4, 7044, Note_on_c, 0, 26, 36
4, 7173, Note_on_c, 0, 26, 0
4, 7189, Note_on_c, 0, 77, 0
4, 7234, Note_on_c, 0, 65, 0
4, 7328, Note_on_c, 0, 72, 53
4, 7438, Note_on_c, 0, 72, 0
4, 7739, Note_on_c, 0, 70, 50
4, 7744, Note_on_c, 0, 67, 53
4, 7746, Note_on_c, 0, 63, 45
4, 7750, Note_on_c, 0, 58, 36
4, 7751, Note_on_c, 0, 59, 47
4, 7770, Control_c, 0, 64, 0
4, 7808, Control_c, 0, 64, 127
4, 7960, Note_on_c, 0, 58, 0
4, 7974, Note_on_c, 0, 59, 0
4, 7989, Note_on_c, 0, 70, 0
4, 8042, Note_on_c, 0, 70, 60
4, 8085, Note_on_c, 0, 67, 0
4, 8112, Note_on_c, 0, 63, 0
4, 8125, Note_on_c, 0, 70, 0
4, 8179, Note_on_c, 0, 70, 53
4, 8181, Note_on_c, 0, 66, 53
4, 8181, Note_on_c, 0, 61, 42
4, 8184, Note_on_c, 0, 55, 43
4, 8206, Control_c, 0, 64, 0
4, 8241, Control_c, 0, 64, 127
4, 8294, Note_on_c, 0, 66, 0
4, 8297, Note_on_c, 0, 61, 0
4, 8361, Note_on_c, 0, 70, 0
4, 8388, Note_on_c, 0, 55, 0
4, 8561, Note_on_c, 0, 68, 49
4, 8563, Note_on_c, 0, 53, 32
4, 8563, Note_on_c, 0, 64, 44
4, 8564, Note_on_c, 0, 59, 35
4, 8574, Note_on_c, 0, 53, 0
4, 8596, Note_on_c, 0, 64, 0
4, 8602, Note_on_c, 0, 59, 0
4, 8608, Note_on_c, 0, 68, 0
4, 8664, Note_on_c, 0, 58, 36
4, 8665, Note_on_c, 0, 67, 43
4, 8666, Note_on_c, 0, 36, 40
4, 8669, Note_on_c, 0, 63, 38
4, 8683, Control_c, 0, 64, 0
4, 8732, Control_c, 0, 64, 127
4, 8922, Note_on_c, 0, 48, 24
4, 8934, Note_on_c, 0, 67, 0
4, 8942, Note_on_c, 0, 63, 0
4, 8954, Note_on_c, 0, 58, 0
4, 9055, Note_on_c, 0, 48, 0
4, 9060, Note_on_c, 0, 49, 38
4, 9064, Note_on_c, 0, 37, 35
4, 9065, Note_on_c, 0, 36, 0
4, 9135, Note_on_c, 0, 39, 40
4, 9135, Note_on_c, 0, 51, 55
4, 9138, Note_on_c, 0, 49, 0
4, 9170, Note_on_c, 0, 37, 0
4, 9178, Note_on_c, 0, 39, 0
4, 9182, Note_on_c, 0, 51, 0
4, 9189, Note_on_c, 0, 40, 40
4, 9189, Note_on_c, 0, 52, 51
4, 9219, Note_on_c, 0, 52, 0
4, 9227, Note_on_c, 0, 40, 0
4, 9231, Note_on_c, 0, 42, 40
4, 9231, Note_on_c, 0, 54, 50
4, 9253, Control_c, 0, 64, 0
4, 9254, Note_on_c, 0, 54, 0
4, 9266, Note_on_c, 0, 43, 40
4, 9266, Note_on_c, 0, 55, 47
4, 9297, Note_on_c, 0, 43, 0
4, 9298, Note_on_c, 0, 55, 0
4, 9303, Note_on_c, 0, 42, 0
4, 9305, Note_on_c, 0, 45, 40
4, 9305, Note_on_c, 0, 57, 56
4, 9329, Note_on_c, 0, 57, 0
4, 9330, Note_on_c, 0, 45, 0
4, 9344, Note_on_c, 0, 46, 40
4, 9344, Note_on_c, 0, 58, 44
4, 9365, Note_on_c, 0, 58, 0
4, 9373, Note_on_c, 0, 46, 0
4, 9376, Note_on_c, 0, 60, 58
4, 9386, Note_on_c, 0, 48, 40
4, 9401, Note_on_c, 0, 60, 0
4, 9407, Note_on_c, 0, 61, 59
4, 9411, Note_on_c, 0, 48, 0
4, 9429, Note_on_c, 0, 61, 0
4, 9438, Note_on_c, 0, 63, 59
4, 9455, Note_on_c, 0, 63, 0
4, 9465, Note_on_c, 0, 52, 40
4, 9465, Note_on_c, 0, 64, 53
4, 9483, Note_on_c, 0, 64, 0
4, 9486, Control_c, 0, 64, 127
4, 9489, Note_on_c, 0, 54, 40
4, 9489, Note_on_c, 0, 66, 56
4, 9502, Note_on_c, 0, 52, 0
4, 9505, Note_on_c, 0, 66, 0
4, 9514, Note_on_c, 0, 67, 50
4, 9531, Note_on_c, 0, 54, 0
4, 9536, Note_on_c, 0, 67, 0
4, 9538, Note_on_c, 0, 55, 40
4, 9538, Note_on_c, 0, 69, 59
4, 9548, Note_on_c, 0, 55, 0
4, 9557, Note_on_c, 0, 69, 0
4, 9559, Note_on_c, 0, 58, 40
4, 9559, Note_on_c, 0, 70, 67
4, 9560, Control_c, 0, 64, 0
4, 9573, Note_on_c, 0, 70, 0
4, 9578, Control_c, 0, 64, 127
4, 9587, Note_on_c, 0, 72, 40
4, 9592, Note_on_c, 0, 58, 0
4, 9600, Note_on_c, 0, 72, 0
4, 9604, Note_on_c, 0, 73, 43
4, 9632, Note_on_c, 0, 73, 0
4, 9635, Note_on_c, 0, 63, 40
4, 9635, Note_on_c, 0, 75, 37
4, 9645, Note_on_c, 0, 63, 0
4, 9665, Note_on_c, 0, 75, 0
4, 9666, Note_on_c, 0, 64, 45
4, 9666, Note_on_c, 0, 76, 69
4, 9692, Control_c, 0, 64, 0
4, 9748, Control_c, 0, 64, 127
4, 9797, Note_on_c, 0, 72, 34
4, 9848, Note_on_c, 0, 73, 57
4, 9850, Note_on_c, 0, 61, 40
4, 9854, Note_on_c, 0, 72, 0
4, 9903, Note_on_c, 0, 73, 0
4, 9903, Note_on_c, 0, 75, 54
4, 9906, Note_on_c, 0, 64, 0
4, 9924, Note_on_c, 0, 61, 0
4, 9940, Note_on_c, 0, 76, 0
4, 9947, Note_on_c, 0, 75, 0
4, 9956, Note_on_c, 0, 76, 44
4, 10012, Note_on_c, 0, 79, 50
4, 10020, Note_on_c, 0, 61, 40
4, 10028, Note_on_c, 0, 61, 0
4, 10074, Note_on_c, 0, 61, 40
4, 10100, Note_on_c, 0, 61, 0
4, 10132, Note_on_c, 0, 66, 40
4, 10134, Note_on_c, 0, 84, 49
4, 10138, Note_on_c, 0, 76, 0
4, 10141, Note_on_c, 0, 79, 0
4, 10169, Note_on_c, 0, 84, 0
4, 10198, Note_on_c, 0, 70, 40
4, 10200, Note_on_c, 0, 88, 61
4, 10238, Note_on_c, 0, 66, 0
4, 10247, Note_on_c, 0, 88, 0
4, 10252, Note_on_c, 0, 70, 0
4, 10255, Note_on_c, 0, 73, 40
4, 10257, Note_on_c, 0, 91, 70
4, 10286, Note_on_c, 0, 73, 0
4, 10321, Note_on_c, 0, 91, 0
4, 10321, Note_on_c, 0, 79, 51
4, 10324, Note_on_c, 0, 76, 40
4, 10364, Note_on_c, 0, 79, 0
4, 10382, Note_on_c, 0, 76, 0
4, 10390, Note_on_c, 0, 84, 43
4, 10441, Note_on_c, 0, 84, 0
4, 10446, Note_on_c, 0, 91, 54
4, 10450, Note_on_c, 0, 82, 40
4, 10462, Note_on_c, 0, 91, 0
4, 10504, Note_on_c, 0, 96, 40
4, 10506, Note_on_c, 0, 95, 37
4, 10507, Note_on_c, 0, 84, 40
4, 10514, Note_on_c, 0, 95, 0
4, 10522, Note_on_c, 0, 96, 0
4, 10555, Note_on_c, 0, 84, 0
4, 10567, Note_on_c, 0, 99, 59
4, 10569, Note_on_c, 0, 88, 31
4, 10615, Note_on_c, 0, 88, 0
4, 10632, Note_on_c, 0, 82, 0
4, 10633, Note_on_c, 0, 91, 38
4, 10636, Note_on_c, 0, 99, 0
4, 10637, Note_on_c, 0, 84, 30
4, 10674, Note_on_c, 0, 84, 0
4, 10698, Note_on_c, 0, 91, 0
4, 10733, Note_on_c, 0, 94, 60
4, 10741, Note_on_c, 0, 81, 43
4, 10795, Note_on_c, 0, 81, 0
4, 10803, Note_on_c, 0, 94, 0
4, 10814, Note_on_c, 0, 87, 35
4, 10839, Note_on_c, 0, 73, 21
4, 10858, Note_on_c, 0, 73, 0
4, 10860, Note_on_c, 0, 87, 0
4, 10880, Note_on_c, 0, 76, 29
4, 10883, Note_on_c, 0, 93, 69
4, 10911, Note_on_c, 0, 93, 0
4, 10940, Note_on_c, 0, 76, 0
4, 10950, Note_on_c, 0, 82, 37
4, 10953, Note_on_c, 0, 73, 34
4, 11019, Note_on_c, 0, 91, 48
4, 11022, Note_on_c, 0, 73, 0
4, 11022, Note_on_c, 0, 82, 0
4, 11022, Note_on_c, 0, 67, 26
4, 11035, Note_on_c, 0, 91, 0
4, 11088, Note_on_c, 0, 67, 0
4, 11096, Note_on_c, 0, 70, 36
4, 11099, Note_on_c, 0, 79, 32
4, 11334, Note_on_c, 0, 70, 0
4, 11400, Note_on_c, 0, 79, 0
4, 11492, Note_on_c, 0, 85, 61
4, 11493, Note_on_c, 0, 63, 40
4, 11567, Note_on_c, 0, 81, 59
4, 11569, Note_on_c, 0, 67, 29
4, 11570, Note_on_c, 0, 76, 19
4, 11620, Note_on_c, 0, 76, 0
4, 11636, Note_on_c, 0, 81, 0
4, 11639, Note_on_c, 0, 85, 0
4, 11640, Note_on_c, 0, 76, 46
4, 11642, Note_on_c, 0, 70, 38
4, 11648, Note_on_c, 0, 67, 0
4, 11690, Note_on_c, 0, 70, 0
4, 11693, Note_on_c, 0, 76, 0
4, 11711, Note_on_c, 0, 63, 0
4, 11717, Note_on_c, 0, 76, 40
4, 11718, Note_on_c, 0, 73, 27
4, 11719, Note_on_c, 0, 67, 28
4, 11768, Note_on_c, 0, 67, 0
4, 11819, Note_on_c, 0, 76, 0
4, 11821, Note_on_c, 0, 79, 55
4, 11825, Note_on_c, 0, 73, 0
4, 11828, Note_on_c, 0, 58, 23
4, 11843, Control_c, 0, 64, 0
4, 11878, Control_c, 0, 64, 127
4, 11920, Note_on_c, 0, 76, 44
4, 11926, Note_on_c, 0, 63, 26
4, 11930, Note_on_c, 0, 72, 20
4, 11942, Note_on_c, 0, 72, 0
4, 12034, Note_on_c, 0, 72, 28
4, 12034, Note_on_c, 0, 67, 30
4, 12040, Note_on_c, 0, 66, 25
4, 12202, Note_on_c, 0, 66, 0
4, 12207, Note_on_c, 0, 79, 0
4, 12212, Note_on_c, 0, 76, 0
4, 12222, Note_on_c, 0, 72, 0
4, 12227, Note_on_c, 0, 63, 0
4, 12232, Note_on_c, 0, 67, 0
4, 12237, Note_on_c, 0, 58, 0
4, 12386, Note_on_c, 0, 48, 47
4, 12414, Note_on_c, 0, 48, 0
4, 12432, Note_on_c, 0, 48, 50
4, 12461, Note_on_c, 0, 48, 0
4, 12480, Note_on_c, 0, 48, 71
4, 12504, Note_on_c, 0, 48, 0
4, 12518, Note_on_c, 0, 48, 71
4, 12543, Note_on_c, 0, 48, 0
4, 12558, Note_on_c, 0, 48, 80
4, 12580, Note_on_c, 0, 48, 0
4, 12594, Note_on_c, 0, 48, 72
4, 12609, Note_on_c, 0, 48, 0
4, 12626, Note_on_c, 0, 48, 68
4, 12648, Note_on_c, 0, 48, 0
4, 12664, Note_on_c, 0, 48, 66
4, 12681, Note_on_c, 0, 48, 0
4, 12696, Control_c, 0, 64, 0
4, 12700, Note_on_c, 0, 48, 60
4, 12729, Note_on_c, 0, 48, 0
4, 12747, Note_on_c, 0, 48, 44
4, 12770, Note_on_c, 0, 48, 0
4, 12790, Note_on_c, 0, 48, 52
4, 12822, Note_on_c, 0, 48, 0
4, 12843, Note_on_c, 0, 48, 45
4, 12872, Note_on_c, 0, 48, 0
4, 12886, Control_c, 0, 64, 127
4, 12895, Note_on_c, 0, 48, 46
4, 12936, Note_on_c, 0, 48, 0
4, 12954, Note_on_c, 0, 48, 56
4, 12999, Note_on_c, 0, 48, 0
4, 13021, Note_on_c, 0, 48, 37
4, 13066, Note_on_c, 0, 48, 0
4, 13094, Note_on_c, 0, 48, 36
4, 13114, Note_on_c, 0, 48, 0
4, 13396, Note_on_c, 0, 67, 51
4, 13402, Control_c, 0, 64, 0
4, 13405, Note_on_c, 0, 29, 31
4, 13407, Note_on_c, 0, 64, 38
4, 13408, Note_on_c, 0, 60, 39
4, 13408, Note_on_c, 0, 41, 24
4, 13409, Note_on_c, 0, 56, 33
4, 13426, Control_c, 0, 64, 127
4, 13432, Note_on_c, 0, 29, 0
4, 13450, Note_on_c, 0, 41, 0
4, 13484, Note_on_c, 0, 67, 0
4, 13508, Note_on_c, 0, 56, 0
4, 13515, Note_on_c, 0, 60, 0
4, 13516, Note_on_c, 0, 64, 0
4, 13521, Note_on_c, 0, 67, 44
4, 13532, Note_on_c, 0, 60, 29
4, 13534, Note_on_c, 0, 64, 22
4, 13539, Note_on_c, 0, 56, 20
4, 13612, Note_on_c, 0, 41, 36
4, 13623, Note_on_c, 0, 64, 0
4, 13626, Note_on_c, 0, 60, 0
4, 13632, Note_on_c, 0, 56, 0
4, 13650, Note_on_c, 0, 67, 0
4, 13676, Note_on_c, 0, 56, 15
4, 13700, Note_on_c, 0, 60, 30
4, 13709, Note_on_c, 0, 56, 0
4, 13725, Note_on_c, 0, 60, 0
4, 13730, Note_on_c, 0, 55, 38
4, 13733, Note_on_c, 0, 41, 0
4, 13739, Note_on_c, 0, 56, 39
4, 13748, Note_on_c, 0, 55, 0
4, 13762, Note_on_c, 0, 41, 57
4, 13767, Note_on_c, 0, 60, 22
4, 13774, Note_on_c, 0, 56, 0
4, 13788, Note_on_c, 0, 60, 0
4, 13790, Note_on_c, 0, 41, 0
4, 13797, Note_on_c, 0, 56, 37
4, 13826, Note_on_c, 0, 60, 37
4, 13826, Note_on_c, 0, 41, 38
4, 13837, Note_on_c, 0, 56, 0
4, 13856, Note_on_c, 0, 60, 0
4, 13858, Note_on_c, 0, 41, 0
4, 13867, Note_on_c, 0, 56, 38
4, 13872, Note_on_c, 0, 55, 26
4, 13890, Note_on_c, 0, 55, 0
4, 13890, Note_on_c, 0, 60, 35
4, 13906, Note_on_c, 0, 56, 0
4, 13930, Note_on_c, 0, 56, 38
4, 13936, Note_on_c, 0, 60, 0
4, 13950, Note_on_c, 0, 41, 38
4, 13954, Note_on_c, 0, 60, 17
4, 13961, Note_on_c, 0, 56, 0
4, 13981, Note_on_c, 0, 60, 0
4, 13984, Note_on_c, 0, 56, 35
4, 13996, Note_on_c, 0, 29, 31
4, 14008, Note_on_c, 0, 60, 28
4, 14023, Note_on_c, 0, 60, 0
4, 14023, Note_on_c, 0, 29, 0
4, 14039, Note_on_c, 0, 41, 0
4, 14042, Note_on_c, 0, 56, 0
4, 14045, Note_on_c, 0, 29, 22
4, 14066, Note_on_c, 0, 56, 34
4, 14090, Note_on_c, 0, 41, 41
4, 14099, Note_on_c, 0, 29, 0
4, 14110, Note_on_c, 0, 56, 0
4, 14112, Note_on_c, 0, 41, 0
4, 14119, Note_on_c, 0, 29, 41
4, 14143, Note_on_c, 0, 56, 50
4, 14144, Note_on_c, 0, 41, 54
4, 14145, Note_on_c, 0, 60, 66
4, 14146, Note_on_c, 0, 65, 62
4, 14152, Control_c, 0, 64, 0
4, 14176, Note_on_c, 0, 29, 0
4, 14188, Note_on_c, 0, 29, 36
4, 14189, Control_c, 0, 64, 127
4, 14195, Note_on_c, 0, 41, 0
4, 14227, Note_on_c, 0, 41, 49
4, 14228, Note_on_c, 0, 29, 0
4, 14248, Note_on_c, 0, 56, 0
4, 14249, Note_on_c, 0, 60, 0
4, 14253, Note_on_c, 0, 41, 0
4, 14258, Note_on_c, 0, 29, 26
4, 14272, Note_on_c, 0, 65, 0
4, 14288, Note_on_c, 0, 41, 43
4, 14298, Note_on_c, 0, 29, 0
4, 14321, Note_on_c, 0, 41, 0
4, 14325, Note_on_c, 0, 29, 31
4, 14358, Note_on_c, 0, 41, 47
4, 14362, Note_on_c, 0, 29, 0
4, 14384, Note_on_c, 0, 41, 0
4, 14386, Note_on_c, 0, 29, 29
4, 14418, Note_on_c, 0, 29, 0
4, 14420, Note_on_c, 0, 41, 37
4, 14440, Note_on_c, 0, 41, 0
4, 14447, Note_on_c, 0, 29, 35
4, 14479, Note_on_c, 0, 41, 51
4, 14488, Note_on_c, 0, 29, 0
4, 14489, Note_on_c, 0, 68, 63
4, 14490, Note_on_c, 0, 64, 62
4, 14490, Note_on_c, 0, 59, 60
4, 14502, Control_c, 0, 64, 0
4, 14505, Note_on_c, 0, 29, 36
4, 14529, Note_on_c, 0, 41, 0
4, 14533, Control_c, 0, 64, 127
4, 14567, Note_on_c, 0, 41, 48
4, 14568, Note_on_c, 0, 59, 0
4, 14568, Note_on_c, 0, 64, 0
4, 14579, Note_on_c, 0, 68, 0
4, 14582, Note_on_c, 0, 29, 0
4, 14600, Note_on_c, 0, 41, 0
4, 14608, Note_on_c, 0, 68, 46
4, 14610, Note_on_c, 0, 64, 56
4, 14613, Note_on_c, 0, 59, 45
4, 14651, Note_on_c, 0, 41, 32
4, 14657, Note_on_c, 0, 64, 0
4, 14682, Note_on_c, 0, 59, 0
4, 14712, Note_on_c, 0, 53, 43
4, 14721, Note_on_c, 0, 53, 0
4, 14722, Note_on_c, 0, 68, 0
4, 14764, Note_on_c, 0, 68, 46
4, 14765, Note_on_c, 0, 63, 51
4, 14765, Note_on_c, 0, 59, 53
4, 14769, Note_on_c, 0, 53, 57
4, 14790, Note_on_c, 0, 59, 0
4, 14805, Note_on_c, 0, 53, 0
4, 14814, Note_on_c, 0, 59, 36
4, 14815, Note_on_c, 0, 63, 0
4, 14829, Note_on_c, 0, 49, 25
4, 14839, Note_on_c, 0, 59, 0
4, 14851, Note_on_c, 0, 49, 0
4, 14861, Note_on_c, 0, 53, 22
4, 14879, Note_on_c, 0, 53, 0
4, 14888, Note_on_c, 0, 49, 21
4, 14916, Note_on_c, 0, 49, 0
4, 14920, Note_on_c, 0, 68, 0
4, 14922, Note_on_c, 0, 53, 41
4, 14923, Note_on_c, 0, 56, 31
4, 14930, Note_on_c, 0, 59, 52
4, 14931, Note_on_c, 0, 63, 1
4, 14944, Note_on_c, 0, 53, 0
4, 14948, Note_on_c, 0, 56, 0
4, 14950, Note_on_c, 0, 68, 36
4, 14958, Note_on_c, 0, 49, 21
4, 14959, Note_on_c, 0, 59, 0
4, 14975, Note_on_c, 0, 56, 23
4, 14983, Note_on_c, 0, 49, 0
4, 14990, Note_on_c, 0, 68, 0
4, 14990, Note_on_c, 0, 53, 27
4, 14991, Note_on_c, 0, 59, 33
4, 14999, Note_on_c, 0, 56, 0
4, 15011, Note_on_c, 0, 68, 13
4, 15013, Note_on_c, 0, 59, 0
4, 15020, Note_on_c, 0, 53, 0
4, 15026, Note_on_c, 0, 56, 33
4, 15026, Note_on_c, 0, 49, 18
4, 15048, Note_on_c, 0, 59, 33
4, 15049, Note_on_c, 0, 49, 0
4, 15052, Note_on_c, 0, 41, 0
4, 15058, Note_on_c, 0, 56, 0
4, 15058, Note_on_c, 0, 59, 0
4, 15073, Note_on_c, 0, 41, 31
4, 15091, Note_on_c, 0, 63, 0
4, 15112, Note_on_c, 0, 58, 67
4, 15114, Note_on_c, 0, 61, 67
4, 15118, Note_on_c, 0, 53, 51
4, 15132, Control_c, 0, 64, 0
4, 15165, Control_c, 0, 64, 127
4, 15175, Note_on_c, 0, 41, 0
4, 15182, Note_on_c, 0, 61, 0
4, 15187, Note_on_c, 0, 53, 0
4, 15188, Note_on_c, 0, 41, 32
4, 15200, Note_on_c, 0, 61, 38
4, 15206, Note_on_c, 0, 58, 0
4, 15227, Note_on_c, 0, 61, 0
4, 15236, Note_on_c, 0, 53, 41
4, 15240, Note_on_c, 0, 58, 31
4, 15243, Note_on_c, 0, 53, 0
4, 15254, Note_on_c, 0, 61, 31
4, 15265, Note_on_c, 0, 58, 0
4, 15266, Note_on_c, 0, 41, 0
4, 15283, Note_on_c, 0, 61, 0
4, 15286, Note_on_c, 0, 58, 27
4, 15302, Note_on_c, 0, 41, 44
4, 15304, Note_on_c, 0, 61, 39
4, 15310, Note_on_c, 0, 29, 61
4, 15368, Note_on_c, 0, 29, 0
4, 15387, Note_on_c, 0, 29, 44
4, 15409, Note_on_c, 0, 41, 0
4, 15411, Note_on_c, 0, 68, 0
4, 15434, Note_on_c, 0, 58, 0
4, 15439, Note_on_c, 0, 41, 35
4, 15462, Note_on_c, 0, 41, 0
4, 15481, Note_on_c, 0, 61, 0
4, 15495, Note_on_c, 0, 41, 46
4, 15522, Note_on_c, 0, 41, 0
4, 15536, Note_on_c, 0, 55, 65
4, 15538, Note_on_c, 0, 67, 37
4, 15543, Note_on_c, 0, 41, 41
4, 15571, Note_on_c, 0, 29, 0
4, 15588, Note_on_c, 0, 67, 0
4, 15599, Note_on_c, 0, 29, 36
4, 15605, Note_on_c, 0, 41, 0
4, 15608, Note_on_c, 0, 55, 0
4, 15636, Note_on_c, 0, 41, 61
4, 15638, Note_on_c, 0, 65, 64
4, 15639, Note_on_c, 0, 53, 66
4, 15654, Control_c, 0, 64, 0
4, 15680, Control_c, 0, 64, 127
4, 15684, Note_on_c, 0, 65, 0
4, 15689, Note_on_c, 0, 53, 0
4, 15692, Note_on_c, 0, 41, 0
4, 15693, Note_on_c, 0, 36, 36
4, 15708, Note_on_c, 0, 36, 0
4, 15709, Note_on_c, 0, 67, 64
4, 15710, Note_on_c, 0, 55, 77
4, 15714, Note_on_c, 0, 41, 44
4, 15738, Note_on_c, 0, 67, 0
4, 15742, Note_on_c, 0, 55, 0
4, 15749, Note_on_c, 0, 41, 0
4, 15766, Note_on_c, 0, 68, 74
4, 15767, Note_on_c, 0, 56, 68
4, 15768, Note_on_c, 0, 41, 48
4, 15794, Note_on_c, 0, 56, 0
4, 15796, Note_on_c, 0, 29, 0
4, 15796, Note_on_c, 0, 68, 0
4, 15810, Note_on_c, 0, 41, 0
4, 15814, Note_on_c, 0, 29, 51
4, 15824, Note_on_c, 0, 58, 71
4, 15824, Note_on_c, 0, 70, 71
4, 15828, Note_on_c, 0, 41, 43
4, 15857, Note_on_c, 0, 29, 0
4, 15862, Note_on_c, 0, 70, 0
4, 15863, Note_on_c, 0, 58, 0
4, 15870, Note_on_c, 0, 41, 0
4, 15876, Note_on_c, 0, 29, 58
4, 15891, Note_on_c, 0, 72, 77
4, 15892, Note_on_c, 0, 60, 79
4, 15893, Note_on_c, 0, 41, 53
4, 15894, Control_c, 0, 64, 0
4, 15897, Note_on_c, 0, 62, 36
4, 15905, Note_on_c, 0, 62, 0
4, 15924, Control_c, 0, 64, 127
4, 15940, Note_on_c, 0, 72, 0
4, 15943, Note_on_c, 0, 60, 0
4, 15955, Note_on_c, 0, 41, 0
4, 15969, Note_on_c, 0, 29, 0
4, 15982, Note_on_c, 0, 70, 67
4, 15985, Note_on_c, 0, 58, 64
4, 16036, Note_on_c, 0, 70, 0
4, 16038, Note_on_c, 0, 58, 0
4, 16060, Note_on_c, 0, 68, 62
4, 16062, Note_on_c, 0, 44, 64
4, 16062, Note_on_c, 0, 56, 69
4, 16063, Note_on_c, 0, 32, 64
4, 16074, Control_c, 0, 64, 0
4, 16101, Control_c, 0, 64, 127
4, 16122, Note_on_c, 0, 68, 0
4, 16127, Note_on_c, 0, 56, 0
4, 16143, Note_on_c, 0, 67, 66
4, 16145, Note_on_c, 0, 55, 66
4, 16180, Note_on_c, 0, 55, 0
4, 16181, Note_on_c, 0, 32, 0
4, 16187, Note_on_c, 0, 67, 0
4, 16192, Note_on_c, 0, 44, 0
4, 16239, Note_on_c, 0, 65, 71
4, 16240, Note_on_c, 0, 63, 73
4, 16241, Note_on_c, 0, 55, 68
4, 16241, Note_on_c, 0, 45, 53
4, 16241, Note_on_c, 0, 33, 55
4, 16248, Control_c, 0, 64, 0
4, 16250, Note_on_c, 0, 58, 31
4, 16288, Control_c, 0, 64, 127
4, 16327, Note_on_c, 0, 65, 0
4, 16340, Note_on_c, 0, 63, 0
4, 16342, Note_on_c, 0, 55, 0
4, 16344, Note_on_c, 0, 58, 0
4, 16354, Note_on_c, 0, 65, 63
4, 16358, Note_on_c, 0, 63, 38
4, 16390, Note_on_c, 0, 63, 0
4, 16433, Note_on_c, 0, 33, 0
4, 16435, Note_on_c, 0, 65, 0
4, 16453, Note_on_c, 0, 65, 36
4, 16456, Note_on_c, 0, 57, 37
4, 16456, Note_on_c, 0, 63, 38
4, 16463, Note_on_c, 0, 45, 0
4, 16501, Note_on_c, 0, 65, 0
4, 16525, Note_on_c, 0, 57, 0
4, 16551, Note_on_c, 0, 63, 0
4, 16555, Note_on_c, 0, 51, 37
4, 16623, Note_on_c, 0, 51, 0
4, 16631, Note_on_c, 0, 57, 43
4, 16632, Note_on_c, 0, 77, 46
4, 16678, Note_on_c, 0, 57, 0
4, 16710, Note_on_c, 0, 63, 18
4, 16773, Note_on_c, 0, 69, 40
4, 16776, Note_on_c, 0, 77, 0
4, 16829, Note_on_c, 0, 69, 0
4, 16839, Note_on_c, 0, 79, 48
4, 16856, Note_on_c, 0, 79, 0
4, 16906, Note_on_c, 0, 89, 64
4, 16921, Note_on_c, 0, 69, 33
4, 16922, Note_on_c, 0, 63, 0
4, 16972, Note_on_c, 0, 89, 0
4, 16980, Note_on_c, 0, 69, 0
4, 16991, Note_on_c, 0, 87, 39
4, 17008, Note_on_c, 0, 72, 22
4, 17053, Note_on_c, 0, 72, 0
4, 17074, Note_on_c, 0, 75, 30
4, 17076, Note_on_c, 0, 81, 29
4, 17085, Note_on_c, 0, 81, 0
4, 17091, Note_on_c, 0, 87, 0
4, 17148, Note_on_c, 0, 75, 0
4, 17148, Note_on_c, 0, 101, 49
4, 17166, Note_on_c, 0, 77, 8
4, 17207, Note_on_c, 0, 101, 0
4, 17233, Note_on_c, 0, 101, 30
4, 17238, Note_on_c, 0, 81, 39
4, 17238, Note_on_c, 0, 89, 39
4, 17242, Note_on_c, 0, 77, 0
4, 17302, Note_on_c, 0, 89, 0
4, 17349, Note_on_c, 0, 89, 33
4, 17372, Note_on_c, 0, 101, 0
4, 17384, Note_on_c, 0, 81, 0
4, 17409, Note_on_c, 0, 89, 0
4, 17612, Note_on_c, 0, 77, 43
4, 17844, Note_on_c, 0, 79, 55
4, 17853, Control_c, 0, 64, 0
4, 17854, Note_on_c, 0, 77, 0
4, 17876, Control_c, 0, 64, 127
4, 17920, Note_on_c, 0, 79, 0
4, 17920, Note_on_c, 0, 80, 57
4, 17922, Note_on_c, 0, 76, 33
4, 17936, Control_c, 0, 64, 0
4, 17950, Control_c, 0, 64, 127
4, 17986, Note_on_c, 0, 80, 0
4, 17996, Note_on_c, 0, 76, 0
4, 17997, Note_on_c, 0, 82, 57
4, 17998, Control_c, 0, 64, 0
4, 18001, Note_on_c, 0, 75, 37
4, 18012, Control_c, 0, 64, 127
4, 18059, Note_on_c, 0, 82, 0
4, 18077, Note_on_c, 0, 73, 45
4, 18078, Note_on_c, 0, 84, 56
4, 18086, Note_on_c, 0, 75, 0
4, 18086, Control_c, 0, 64, 0
4, 18098, Control_c, 0, 64, 127
4, 18118, Note_on_c, 0, 84, 0
4, 18172, Note_on_c, 0, 76, 30
4, 18172, Note_on_c, 0, 85, 67
4, 18175, Note_on_c, 0, 73, 0
4, 18180, Note_on_c, 0, 72, 34
4, 18184, Control_c, 0, 64, 0
4, 18208, Control_c, 0, 64, 127
4, 18243, Note_on_c, 0, 85, 0
4, 18263, Note_on_c, 0, 72, 0
4, 18263, Note_on_c, 0, 84, 57
4, 18264, Note_on_c, 0, 70, 39
4, 18270, Control_c, 0, 64, 0
4, 18288, Control_c, 0, 64, 127
4, 18296, Note_on_c, 0, 84, 0
4, 18316, Note_on_c, 0, 76, 0
4, 18484, Note_on_c, 0, 76, 43
4, 18485, Note_on_c, 0, 87, 52
4, 18485, Note_on_c, 0, 68, 45
4, 18489, Note_on_c, 0, 80, 37
4, 18494, Note_on_c, 0, 70, 0
4, 18497, Control_c, 0, 64, 0
4, 18517, Control_c, 0, 64, 127
4, 18617, Note_on_c, 0, 87, 0
4, 18637, Note_on_c, 0, 85, 58
4, 18644, Note_on_c, 0, 66, 36
4, 18646, Note_on_c, 0, 68, 0
4, 18662, Note_on_c, 0, 80, 0
4, 18674, Note_on_c, 0, 66, 0
4, 18704, Note_on_c, 0, 85, 0
4, 18742, Note_on_c, 0, 76, 0
4, 18790, Note_on_c, 0, 41, 45
4, 18794, Note_on_c, 0, 84, 45
4, 18800, Control_c, 0, 64, 0
4, 18802, Note_on_c, 0, 72, 22
4, 18818, Note_on_c, 0, 84, 0
4, 18822, Control_c, 0, 64, 127
4, 18837, Note_on_c, 0, 72, 0
4, 18869, Note_on_c, 0, 48, 32
4, 18908, Note_on_c, 0, 53, 35
4, 18935, Note_on_c, 0, 41, 0
4, 18936, Note_on_c, 0, 48, 0
4, 18942, Note_on_c, 0, 53, 0
4, 18946, Note_on_c, 0, 60, 35
4, 18967, Note_on_c, 0, 60, 0
4, 18979, Note_on_c, 0, 65, 45
4, 19009, Note_on_c, 0, 65, 0
4, 19021, Note_on_c, 0, 72, 64
4, 19036, Note_on_c, 0, 72, 0
4, 19066, Note_on_c, 0, 79, 61
4, 19095, Note_on_c, 0, 79, 0
4, 19124, Note_on_c, 0, 40, 49
4, 19128, Note_on_c, 0, 79, 51
4, 19139, Control_c, 0, 64, 0
4, 19171, Control_c, 0, 64, 127
4, 19181, Note_on_c, 0, 40, 0
4, 19188, Note_on_c, 0, 52, 43
4, 19197, Note_on_c, 0, 52, 0
4, 19224, Note_on_c, 0, 79, 0
4, 19242, Note_on_c, 0, 56, 40
4, 19322, Note_on_c, 0, 56, 0
4, 19340, Note_on_c, 0, 64, 39
4, 19374, Note_on_c, 0, 64, 0
4, 19384, Note_on_c, 0, 67, 49
4, 19403, Note_on_c, 0, 67, 0
4, 19433, Note_on_c, 0, 73, 44
4, 19435, Note_on_c, 0, 66, 46
4, 19436, Note_on_c, 0, 39, 31
4, 19438, Note_on_c, 0, 54, 28
4, 19439, Note_on_c, 0, 61, 29
4, 19452, Control_c, 0, 64, 0
4, 19490, Note_on_c, 0, 54, 0
4, 19494, Note_on_c, 0, 46, 42
4, 19514, Control_c, 0, 64, 127
4, 19538, Note_on_c, 0, 66, 0
4, 19542, Note_on_c, 0, 39, 0
4, 19548, Note_on_c, 0, 54, 38
4, 19549, Note_on_c, 0, 61, 0
4, 19564, Note_on_c, 0, 46, 0
4, 19581, Note_on_c, 0, 54, 0
4, 19605, Note_on_c, 0, 61, 45
4, 19637, Note_on_c, 0, 73, 0
4, 19662, Note_on_c, 0, 61, 0
4, 19662, Note_on_c, 0, 66, 45
4, 19710, Note_on_c, 0, 73, 50
4, 19723, Note_on_c, 0, 66, 0
4, 19756, Note_on_c, 0, 73, 0
4, 19787, Note_on_c, 0, 64, 33
4, 19787, Note_on_c, 0, 68, 38
4, 19789, Note_on_c, 0, 71, 24
4, 19790, Note_on_c, 0, 60, 30
4, 19792, Note_on_c, 0, 50, 36
4, 19800, Control_c, 0, 64, 0
4, 19846, Control_c, 0, 64, 127
4, 19895, Note_on_c, 0, 54, 28
4, 19904, Note_on_c, 0, 60, 0
4, 19930, Note_on_c, 0, 68, 0
4, 19938, Note_on_c, 0, 64, 0
4, 19990, Note_on_c, 0, 60, 37
4, 19991, Note_on_c, 0, 68, 33
4, 19997, Note_on_c, 0, 64, 27
4, 20050, Note_on_c, 0, 60, 0
4, 20103, Note_on_c, 0, 64, 0
4, 20111, Note_on_c, 0, 71, 0
4, 20112, Note_on_c, 0, 68, 0
4, 20289, Note_on_c, 0, 50, 0
4, 20349, Note_on_c, 0, 72, 54
4, 20539, Note_on_c, 0, 54, 0
4, 20602, Note_on_c, 0, 72, 0
4, 20724, Note_on_c, 0, 70, 60
4, 20726, Note_on_c, 0, 63, 46
4, 20728, Note_on_c, 0, 67, 44
4, 20730, Note_on_c, 0, 58, 35
4, 20730, Note_on_c, 0, 59, 41
4, 20747, Control_c, 0, 64, 0
4, 20793, Control_c, 0, 64, 127
4, 20813, Note_on_c, 0, 58, 0
4, 20879, Note_on_c, 0, 43, 27
4, 20881, Control_c, 0, 64, 0
4, 20883, Control_c, 0, 64, 127
4, 20941, Note_on_c, 0, 59, 0
4, 20946, Note_on_c, 0, 63, 0
4, 20947, Note_on_c, 0, 67, 0
4, 20969, Note_on_c, 0, 70, 0
4, 20972, Note_on_c, 0, 43, 0
4, 20974, Note_on_c, 0, 63, 34
4, 20975, Note_on_c, 0, 59, 47
4, 20978, Note_on_c, 0, 55, 33
4, 20981, Note_on_c, 0, 68, 35
4, 21060, Note_on_c, 0, 55, 0
4, 21073, Note_on_c, 0, 56, 33
4, 21122, Note_on_c, 0, 59, 0
4, 21132, Note_on_c, 0, 68, 0
4, 21149, Note_on_c, 0, 63, 0
4, 21158, Note_on_c, 0, 56, 0
4, 21196, Note_on_c, 0, 67, 42
4, 21198, Note_on_c, 0, 58, 25
4, 21200, Note_on_c, 0, 48, 36
4, 21202, Note_on_c, 0, 61, 35
4, 21203, Note_on_c, 0, 55, 37
4, 21205, Note_on_c, 0, 64, 35
4, 21210, Control_c, 0, 64, 0
4, 21238, Control_c, 0, 64, 127
4, 21240, Note_on_c, 0, 55, 0
4, 21247, Note_on_c, 0, 48, 0
4, 21324, Note_on_c, 0, 24, 44
4, 21369, Note_on_c, 0, 67, 0
4, 21393, Note_on_c, 0, 64, 0
4, 21394, Note_on_c, 0, 58, 0
4, 21415, Note_on_c, 0, 61, 0
4, 21442, Note_on_c, 0, 60, 70
4, 21476, Note_on_c, 0, 60, 0
4, 21490, Note_on_c, 0, 60, 80
4, 21514, Note_on_c, 0, 60, 0
4, 21546, Note_on_c, 0, 60, 89
4, 21574, Note_on_c, 0, 60, 0
4, 21590, Note_on_c, 0, 60, 79
4, 21611, Note_on_c, 0, 60, 0
4, 21636, Control_c, 0, 64, 0
4, 21650, Note_on_c, 0, 60, 68
4, 21659, Note_on_c, 0, 60, 0
4, 21676, Note_on_c, 0, 60, 71
4, 21691, Note_on_c, 0, 60, 0
4, 21729, Note_on_c, 0, 60, 89
4, 21739, Control_c, 0, 64, 127
4, 21761, Note_on_c, 0, 60, 0
4, 21787, Note_on_c, 0, 60, 91
4, 21801, Note_on_c, 0, 24, 0
4, 21817, Note_on_c, 0, 60, 0
4, 21842, Note_on_c, 0, 60, 85
4, 21863, Note_on_c, 0, 60, 0
4, 21882, Note_on_c, 0, 60, 67
4, 21899, Note_on_c, 0, 60, 0
4, 21917, Note_on_c, 0, 60, 69
4, 21932, Note_on_c, 0, 60, 0
4, 21949, Note_on_c, 0, 60, 69
4, 21964, Note_on_c, 0, 60, 0
4, 21981, Note_on_c, 0, 60, 68
4, 21998, Note_on_c, 0, 60, 0
4, 22017, Note_on_c, 0, 60, 53
4, 22033, Note_on_c, 0, 60, 0
4, 22050, Note_on_c, 0, 60, 15
4, 22078, Note_on_c, 0, 60, 0
4, 22104, Note_on_c, 0, 60, 24
4, 22127, Note_on_c, 0, 60, 0
4, 22145, Note_on_c, 0, 60, 43
4, 22146, Control_c, 0, 64, 0
4, 22148, Note_on_c, 0, 41, 46
4, 22148, Note_on_c, 0, 56, 48
4, 22148, Note_on_c, 0, 64, 58
4, 22149, Note_on_c, 0, 29, 38
4, 22232, Control_c, 0, 64, 127
4, 22234, Note_on_c, 0, 67, 33
4, 22256, Note_on_c, 0, 29, 0
4, 22271, Note_on_c, 0, 41, 0
4, 22316, Note_on_c, 0, 48, 38
4, 22376, Note_on_c, 0, 56, 0
4, 22386, Note_on_c, 0, 55, 51
4, 22414, Note_on_c, 0, 60, 0
4, 22464, Note_on_c, 0, 60, 48
4, 22466, Note_on_c, 0, 56, 30
4, 22497, Note_on_c, 0, 55, 0
4, 22550, Note_on_c, 0, 55, 28
4, 22595, Note_on_c, 0, 60, 0
4, 22599, Note_on_c, 0, 56, 0
4, 22637, Note_on_c, 0, 56, 40
4, 22645, Note_on_c, 0, 60, 44
4, 22646, Note_on_c, 0, 55, 0
4, 22730, Note_on_c, 0, 55, 24
4, 22752, Note_on_c, 0, 55, 0
4, 22772, Note_on_c, 0, 60, 0
4, 22789, Note_on_c, 0, 56, 0
4, 22838, Note_on_c, 0, 56, 29
4, 22845, Note_on_c, 0, 41, 30
4, 22846, Note_on_c, 0, 60, 40
4, 22850, Note_on_c, 0, 53, 22
4, 22860, Control_c, 0, 64, 0
4, 22899, Control_c, 0, 64, 127
4, 22911, Note_on_c, 0, 53, 0
4, 22939, Note_on_c, 0, 52, 46
4, 22944, Note_on_c, 0, 48, 0
4, 23013, Note_on_c, 0, 60, 0
4, 23017, Note_on_c, 0, 56, 0
4, 23020, Note_on_c, 0, 65, 1
4, 23050, Note_on_c, 0, 56, 29
4, 23056, Note_on_c, 0, 60, 36
4, 23130, Note_on_c, 0, 48, 42
4, 23134, Note_on_c, 0, 60, 0
4, 23139, Note_on_c, 0, 64, 0
4, 23144, Note_on_c, 0, 56, 0
4, 23146, Note_on_c, 0, 52, 0
4, 23160, Note_on_c, 0, 65, 0
4, 23184, Note_on_c, 0, 67, 0
4, 23203, Note_on_c, 0, 65, 57
4, 23235, Note_on_c, 0, 65, 0
4, 23250, Note_on_c, 0, 65, 78
4, 23260, Note_on_c, 0, 41, 0
4, 23280, Note_on_c, 0, 48, 0
4, 23282, Note_on_c, 0, 65, 0
4, 23302, Note_on_c, 0, 65, 75
4, 23334, Note_on_c, 0, 65, 0
4, 23358, Note_on_c, 0, 65, 66
4, 23388, Note_on_c, 0, 65, 0
4, 23412, Note_on_c, 0, 65, 42
4, 23440, Note_on_c, 0, 65, 0
4, 23459, Note_on_c, 0, 65, 55
4, 23484, Note_on_c, 0, 65, 0
4, 23509, Note_on_c, 0, 65, 51
4, 23530, Note_on_c, 0, 65, 0
4, 23563, Note_on_c, 0, 65, 38
4, 23595, Note_on_c, 0, 65, 0
4, 23622, Note_on_c, 0, 75, 64
4, 23659, Control_c, 0, 64, 0
4, 23676, Note_on_c, 0, 51, 45
4, 23698, Control_c, 0, 64, 127
4, 23712, Note_on_c, 0, 51, 0
4, 23759, Note_on_c, 0, 68, 35
4, 23762, Note_on_c, 0, 72, 52
4, 23763, Note_on_c, 0, 65, 36
4, 23763, Note_on_c, 0, 61, 37
4, 23764, Note_on_c, 0, 63, 37
4, 23768, Note_on_c, 0, 75, 0
4, 24028, Note_on_c, 0, 65, 0
4, 24054, Note_on_c, 0, 75, 56
4, 24058, Note_on_c, 0, 63, 0
4, 24060, Note_on_c, 0, 61, 0
4, 24109, Note_on_c, 0, 68, 0
4, 24148, Note_on_c, 0, 72, 0
4, 24166, Note_on_c, 0, 75, 0
4, 24394, Note_on_c, 0, 75, 69
4, 24440, Note_on_c, 0, 75, 0
4, 24470, Note_on_c, 0, 75, 62
4, 24497, Note_on_c, 0, 75, 0
4, 24530, Note_on_c, 0, 75, 57
4, 24581, Note_on_c, 0, 75, 0
4, 24607, Note_on_c, 0, 77, 55
4, 24610, Note_on_c, 0, 51, 45
4, 24611, Note_on_c, 0, 73, 56
4, 24614, Note_on_c, 0, 61, 28
4, 24616, Note_on_c, 0, 68, 51
4, 24618, Control_c, 0, 64, 0
4, 24650, Control_c, 0, 64, 127
4, 24694, Note_on_c, 0, 61, 0
4, 24705, Note_on_c, 0, 58, 28
4, 24710, Note_on_c, 0, 68, 0
4, 24714, Note_on_c, 0, 73, 0
4, 24725, Note_on_c, 0, 77, 0
4, 24802, Note_on_c, 0, 65, 45
4, 24802, Note_on_c, 0, 68, 58
4, 24805, Note_on_c, 0, 61, 34
4, 25091, Note_on_c, 0, 73, 62
4, 25142, Note_on_c, 0, 61, 0
4, 25148, Note_on_c, 0, 73, 0
4, 25154, Note_on_c, 0, 65, 0
4, 25160, Note_on_c, 0, 75, 53
4, 25162, Note_on_c, 0, 58, 0
4, 25170, Note_on_c, 0, 68, 0
4, 25173, Note_on_c, 0, 51, 0
4, 25182, Note_on_c, 0, 75, 0
4, 25232, Note_on_c, 0, 72, 42
4, 25233, Note_on_c, 0, 67, 40
4, 25234, Note_on_c, 0, 60, 43
4, 25236, Note_on_c, 0, 44, 37
4, 25243, Control_c, 0, 64, 0
4, 25282, Control_c, 0, 64, 127
4, 25296, Note_on_c, 0, 67, 0
4, 25297, Note_on_c, 0, 51, 36
4, 25298, Note_on_c, 0, 72, 0
4, 25314, Note_on_c, 0, 60, 0
4, 25358, Note_on_c, 0, 44, 0
4, 25362, Note_on_c, 0, 63, 56
4, 25363, Note_on_c, 0, 51, 0
4, 25366, Note_on_c, 0, 55, 39
4, 25370, Note_on_c, 0, 60, 31
4, 25375, Note_on_c, 0, 55, 0
4, 25396, Note_on_c, 0, 60, 0
4, 25420, Note_on_c, 0, 63, 0
4, 25429, Note_on_c, 0, 67, 58
4, 25430, Note_on_c, 0, 60, 50
4, 25431, Note_on_c, 0, 63, 18
4, 25438, Note_on_c, 0, 60, 0
4, 25448, Note_on_c, 0, 63, 0
4, 25448, Note_on_c, 0, 67, 0
4, 25507, Note_on_c, 0, 68, 60
4, 25508, Note_on_c, 0, 63, 42
4, 25510, Note_on_c, 0, 57, 39
4, 25510, Note_on_c, 0, 61, 48
4, 25515, Control_c, 0, 64, 0
4, 25515, Note_on_c, 0, 58, 27
4, 25532, Note_on_c, 0, 57, 0
4, 25535, Control_c, 0, 64, 127
4, 25542, Note_on_c, 0, 61, 0
4, 25543, Note_on_c, 0, 63, 0
4, 25545, Note_on_c, 0, 68, 0
4, 25576, Note_on_c, 0, 58, 0
4, 25582, Note_on_c, 0, 80, 72
4, 25650, Note_on_c, 0, 80, 0
4, 25671, Note_on_c, 0, 70, 38
4, 25673, Note_on_c, 0, 69, 35
4, 25673, Note_on_c, 0, 73, 34
4, 25674, Note_on_c, 0, 75, 46
4, 25735, Note_on_c, 0, 70, 0
4, 25756, Note_on_c, 0, 78, 57
4, 25806, Note_on_c, 0, 78, 0
4, 25827, Note_on_c, 0, 75, 0
4, 25834, Note_on_c, 0, 69, 0
4, 25842, Note_on_c, 0, 77, 40
4, 25843, Note_on_c, 0, 65, 27
4, 25844, Note_on_c, 0, 61, 30
4, 25846, Note_on_c, 0, 60, 34
4, 25857, Note_on_c, 0, 73, 0
4, 25860, Control_c, 0, 64, 0
4, 25887, Control_c, 0, 64, 127
4, 25895, Note_on_c, 0, 60, 0
4, 25934, Note_on_c, 0, 57, 46
4, 25998, Note_on_c, 0, 77, 0
4, 26013, Note_on_c, 0, 65, 0
4, 26048, Note_on_c, 0, 57, 0
4, 26048, Note_on_c, 0, 56, 42
4, 26048, Note_on_c, 0, 65, 55
4, 26071, Control_c, 0, 64, 0
4, 26074, Note_on_c, 0, 65, 0
4, 26092, Note_on_c, 0, 67, 54
4, 26108, Note_on_c, 0, 67, 0
4, 26134, Note_on_c, 0, 68, 67
4, 26157, Note_on_c, 0, 68, 0
4, 26163, Control_c, 0, 64, 127
4, 26202, Note_on_c, 0, 70, 68
4, 26260, Note_on_c, 0, 61, 0
4, 26267, Note_on_c, 0, 70, 0
4, 26272, Note_on_c, 0, 56, 0
4, 26290, Note_on_c, 0, 61, 30
4, 26291, Note_on_c, 0, 55, 38
4, 26291, Note_on_c, 0, 72, 55
4, 26292, Note_on_c, 0, 65, 34
4, 26301, Control_c, 0, 64, 0
4, 26336, Control_c, 0, 64, 127
4, 26510, Note_on_c, 0, 72, 0
4, 26515, Note_on_c, 0, 73, 57
4, 26587, Note_on_c, 0, 73, 0
4, 26592, Note_on_c, 0, 75, 60
4, 26616, Note_on_c, 0, 75, 0
4, 26634, Note_on_c, 0, 65, 0
4, 26663, Note_on_c, 0, 84, 70
4, 26667, Note_on_c, 0, 61, 0
4, 26673, Note_on_c, 0, 55, 0
4, 26738, Note_on_c, 0, 84, 0
4, 26757, Note_on_c, 0, 79, 41
4, 26760, Note_on_c, 0, 72, 32
4, 26761, Note_on_c, 0, 76, 38
4, 26762, Note_on_c, 0, 44, 44
4, 26766, Control_c, 0, 64, 0
4, 26790, Control_c, 0, 64, 127
4, 26799, Note_on_c, 0, 79, 0
4, 26803, Note_on_c, 0, 76, 0
4, 26809, Note_on_c, 0, 72, 0
4, 26824, Note_on_c, 0, 51, 45
4, 26885, Note_on_c, 0, 44, 0
4, 26886, Note_on_c, 0, 56, 43
4, 26887, Note_on_c, 0, 67, 45
4, 26888, Note_on_c, 0, 64, 49
4, 26889, Note_on_c, 0, 51, 0
4, 26891, Note_on_c, 0, 60, 34
4, 26906, Note_on_c, 0, 56, 0
4, 26935, Note_on_c, 0, 60, 0
4, 26937, Note_on_c, 0, 64, 0
4, 26941, Note_on_c, 0, 67, 0
4, 26965, Note_on_c, 0, 79, 69
4, 26967, Note_on_c, 0, 72, 71
4, 26969, Note_on_c, 0, 60, 43
4, 27028, Note_on_c, 0, 72, 0
4, 27033, Note_on_c, 0, 79, 0
4, 27048, Note_on_c, 0, 76, 43
4, 27049, Note_on_c, 0, 72, 46
4, 27050, Note_on_c, 0, 60, 0
4, 27052, Note_on_c, 0, 67, 30
4, 27054, Note_on_c, 0, 56, 36
4, 27055, Control_c, 0, 64, 0
4, 27063, Control_c, 0, 64, 127
4, 27099, Note_on_c, 0, 76, 0
4, 27104, Note_on_c, 0, 72, 0
4, 27104, Note_on_c, 0, 67, 0
4, 27132, Note_on_c, 0, 75, 62
4, 27133, Note_on_c, 0, 60, 40
4, 27136, Note_on_c, 0, 70, 52
4, 27138, Note_on_c, 0, 65, 33
4, 27170, Note_on_c, 0, 75, 0
4, 27173, Note_on_c, 0, 70, 0
4, 27180, Note_on_c, 0, 65, 0
4, 27193, Note_on_c, 0, 60, 0
4, 27225, Note_on_c, 0, 72, 47
4, 27228, Note_on_c, 0, 67, 50
4, 27234, Note_on_c, 0, 56, 41
4, 27234, Note_on_c, 0, 62, 46
4, 27247, Note_on_c, 0, 56, 0
4, 27250, Note_on_c, 0, 56, 0
4, 27250, Note_on_c, 0, 72, 0
4, 27252, Note_on_c, 0, 67, 0
4, 27262, Note_on_c, 0, 62, 0
4, 27315, Note_on_c, 0, 67, 41
4, 27317, Note_on_c, 0, 63, 44
4, 27320, Note_on_c, 0, 51, 43
4, 27322, Note_on_c, 0, 59, 31
4, 27348, Note_on_c, 0, 59, 0
4, 27348, Note_on_c, 0, 67, 0
4, 27348, Note_on_c, 0, 63, 0
4, 27349, Note_on_c, 0, 51, 0
4, 27405, Control_c, 0, 64, 0
4, 27410, Note_on_c, 0, 64, 38
4, 27412, Note_on_c, 0, 43, 43
4, 27413, Note_on_c, 0, 53, 37
4, 27414, Note_on_c, 0, 57, 44
4, 27414, Note_on_c, 0, 60, 45
4, 27414, Note_on_c, 0, 50, 37
4, 27439, Note_on_c, 0, 53, 0
4, 27441, Control_c, 0, 64, 127
4, 27446, Note_on_c, 0, 57, 0
4, 27447, Note_on_c, 0, 60, 0
4, 27449, Note_on_c, 0, 43, 0
4, 27454, Note_on_c, 0, 64, 0
4, 27456, Note_on_c, 0, 50, 0
4, 27511, Note_on_c, 0, 76, 75
4, 27511, Note_on_c, 0, 69, 67
4, 27512, Note_on_c, 0, 64, 55
4, 27513, Note_on_c, 0, 65, 73
4, 27513, Note_on_c, 0, 72, 64
4, 27577, Note_on_c, 0, 64, 0
4, 27586, Note_on_c, 0, 65, 0
4, 27590, Note_on_c, 0, 69, 0
4, 27592, Note_on_c, 0, 76, 0
4, 27600, Note_on_c, 0, 72, 0
4, 27612, Note_on_c, 0, 76, 54
4, 27615, Note_on_c, 0, 72, 67
4, 27615, Note_on_c, 0, 69, 74
4, 27616, Note_on_c, 0, 65, 68
4, 27630, Note_on_c, 0, 69, 0
4, 27630, Note_on_c, 0, 72, 0
4, 27631, Note_on_c, 0, 76, 0
4, 27636, Note_on_c, 0, 65, 0
4, 27706, Note_on_c, 0, 64, 68
4, 27706, Note_on_c, 0, 43, 60
4, 27708, Note_on_c, 0, 50, 44
4, 27709, Control_c, 0, 64, 0
4, 27709, Note_on_c, 0, 57, 66
4, 27710, Note_on_c, 0, 60, 64
4, 27710, Note_on_c, 0, 53, 63
4, 27748, Control_c, 0, 64, 127
4, 27771, Note_on_c, 0, 53, 0
4, 27784, Note_on_c, 0, 57, 0
4, 27784, Note_on_c, 0, 60, 0
4, 27789, Note_on_c, 0, 43, 0
4, 27804, Note_on_c, 0, 50, 0
4, 27810, Note_on_c, 0, 64, 0
4, 27840, Note_on_c, 0, 64, 66
4, 27843, Note_on_c, 0, 56, 63
4, 27844, Note_on_c, 0, 43, 46
4, 27844, Note_on_c, 0, 59, 60
4, 27845, Note_on_c, 0, 62, 35
4, 27847, Note_on_c, 0, 53, 45
4, 27849, Control_c, 0, 64, 0
4, 27885, Control_c, 0, 64, 127
4, 27886, Note_on_c, 0, 59, 0
4, 27886, Note_on_c, 0, 56, 0
4, 27887, Note_on_c, 0, 62, 0
4, 27891, Note_on_c, 0, 43, 0
4, 27894, Note_on_c, 0, 64, 0
4, 27903, Note_on_c, 0, 53, 0
4, 27953, Note_on_c, 0, 76, 74
4, 27954, Note_on_c, 0, 68, 74
4, 27955, Note_on_c, 0, 64, 83
4, 27956, Note_on_c, 0, 71, 68
4, 27956, Note_on_c, 0, 65, 76
4, 27960, Note_on_c, 0, 74, 43
4, 28037, Note_on_c, 0, 65, 0
4, 28047, Note_on_c, 0, 68, 0
4, 28048, Note_on_c, 0, 71, 0
4, 28052, Note_on_c, 0, 64, 0
4, 28054, Note_on_c, 0, 76, 0
4, 28059, Note_on_c, 0, 74, 0
4, 28083, Note_on_c, 0, 76, 75
4, 28083, Note_on_c, 0, 64, 74
4, 28085, Note_on_c, 0, 71, 74
4, 28086, Note_on_c, 0, 68, 74
4, 28086, Note_on_c, 0, 65, 80
4, 28092, Note_on_c, 0, 74, 24
4, 28160, Note_on_c, 0, 64, 0
4, 28176, Note_on_c, 0, 65, 0
4, 28177, Note_on_c, 0, 76, 0
4, 28186, Note_on_c, 0, 74, 0
4, 28202, Note_on_c, 0, 68, 0
4, 28218, Note_on_c, 0, 71, 0
4, 28330, Note_on_c, 0, 68, 76
4, 28330, Note_on_c, 0, 74, 71
4, 28333, Note_on_c, 0, 64, 65
4, 28334, Note_on_c, 0, 59, 51
4, 28353, Note_on_c, 0, 59, 0
4, 28363, Note_on_c, 0, 74, 0
4, 28370, Note_on_c, 0, 68, 0
4, 28374, Note_on_c, 0, 64, 0
4, 28499, Note_on_c, 0, 36, 41
4, 28513, Note_on_c, 0, 43, 34
4, 28521, Note_on_c, 0, 57, 60
4, 28528, Note_on_c, 0, 52, 54
4, 28530, Note_on_c, 0, 62, 64
4, 28537, Note_on_c, 0, 67, 66
4, 28538, Control_c, 0, 64, 0
4, 28604, Control_c, 0, 64, 127
4, 28617, Note_on_c, 0, 67, 0
4, 28633, Note_on_c, 0, 67, 58
4, 28660, Note_on_c, 0, 57, 0
4, 28678, Note_on_c, 0, 62, 0
4, 28681, Note_on_c, 0, 67, 0
4, 28730, Note_on_c, 0, 36, 0
4, 28730, Note_on_c, 0, 79, 68
4, 28741, Note_on_c, 0, 43, 0
4, 28751, Note_on_c, 0, 52, 0
4, 28773, Note_on_c, 0, 79, 0
4, 28793, Note_on_c, 0, 79, 48
4, 28831, Note_on_c, 0, 79, 0
4, 28863, Note_on_c, 0, 79, 36
4, 28863, Note_on_c, 0, 67, 46
4, 28866, Note_on_c, 0, 74, 41
4, 28868, Note_on_c, 0, 64, 40
4, 28921, Note_on_c, 0, 79, 0
4, 28949, Note_on_c, 0, 79, 52
4, 28974, Note_on_c, 0, 67, 0
4, 28994, Note_on_c, 0, 79, 0
4, 28994, Note_on_c, 0, 74, 0
4, 29030, Note_on_c, 0, 64, 0
4, 29038, Note_on_c, 0, 79, 37
4, 29040, Note_on_c, 0, 60, 37
4, 29040, Note_on_c, 0, 74, 35
4, 29042, Note_on_c, 0, 67, 30
4, 29056, Note_on_c, 0, 79, 0
4, 29059, Note_on_c, 0, 74, 0
4, 29066, Note_on_c, 0, 67, 0
4, 29084, Note_on_c, 0, 60, 0
4, 29133, Note_on_c, 0, 67, 57
4, 29171, Note_on_c, 0, 67, 0
4, 29291, Note_on_c, 0, 67, 30
4, 29296, Note_on_c, 0, 59, 46
4, 29296, Note_on_c, 0, 53, 37
4, 29296, Note_on_c, 0, 55, 40
4, 29298, Note_on_c, 0, 37, 32
4, 29300, Note_on_c, 0, 44, 31
4, 29307, Control_c, 0, 64, 0
4, 29358, Control_c, 0, 64, 127
4, 29408, Note_on_c, 0, 53, 0
4, 29414, Note_on_c, 0, 55, 0
4, 29426, Note_on_c, 0, 37, 0
4, 29438, Note_on_c, 0, 44, 0
4, 29442, Note_on_c, 0, 59, 0
4, 29471, Note_on_c, 0, 67, 0
4, 29578, Note_on_c, 0, 58, 87
4, 29579, Note_on_c, 0, 63, 79
4, 29579, Note_on_c, 0, 67, 78
4, 29579, Note_on_c, 0, 52, 88
4, 29620, Note_on_c, 0, 67, 0
4, 29621, Note_on_c, 0, 58, 0
4, 29623, Note_on_c, 0, 63, 0
4, 29628, Note_on_c, 0, 52, 0
4, 29655, Note_on_c, 0, 58, 86
4, 29655, Note_on_c, 0, 67, 79
4, 29655, Note_on_c, 0, 52, 96
4, 29656, Note_on_c, 0, 63, 77
4, 29664, Control_c, 0, 64, 0
4, 29687, Note_on_c, 0, 58, 0
4, 29688, Note_on_c, 0, 67, 0
4, 29691, Note_on_c, 0, 63, 0
4, 29696, Note_on_c, 0, 52, 0
4, 29730, Note_on_c, 0, 52, 90
4, 29730, Note_on_c, 0, 67, 74
4, 29731, Note_on_c, 0, 58, 83
4, 29732, Note_on_c, 0, 63, 74
4, 29762, Note_on_c, 0, 58, 0
4, 29763, Note_on_c, 0, 67, 0
4, 29765, Note_on_c, 0, 63, 0
4, 29768, Note_on_c, 0, 52, 0
4, 29813, Note_on_c, 0, 52, 82
4, 29815, Note_on_c, 0, 58, 78
4, 29815, Note_on_c, 0, 63, 69
4, 29816, Note_on_c, 0, 67, 75
4, 29850, Note_on_c, 0, 67, 0
4, 29875, Note_on_c, 0, 58, 0
4, 29876, Note_on_c, 0, 63, 0
4, 29888, Note_on_c, 0, 68, 56
4, 29890, Note_on_c, 0, 59, 54
4, 29890, Note_on_c, 0, 64, 50
4, 29891, Note_on_c, 0, 53, 65
4, 29896, Note_on_c, 0, 52, 0
4, 29928, Note_on_c, 0, 68, 0
4, 29929, Note_on_c, 0, 64, 0
4, 29930, Control_c, 0, 64, 127
4, 29931, Note_on_c, 0, 59, 0
4, 29968, Note_on_c, 0, 53, 0
4, 29973, Control_c, 0, 64, 0
4, 29973, Note_on_c, 0, 58, 50
4, 29974, Note_on_c, 0, 63, 52
4, 29975, Note_on_c, 0, 67, 43
4, 29976, Note_on_c, 0, 52, 54
4, 30029, Control_c, 0, 64, 127
4, 30170, Note_on_c, 0, 52, 0
4, 30298, Note_on_c, 0, 36, 66
4, 30298, Note_on_c, 0, 24, 62
4, 30341, Note_on_c, 0, 24, 0
4, 30357, Note_on_c, 0, 36, 0
4, 30366, Note_on_c, 0, 67, 0
4, 30379, Note_on_c, 0, 58, 0
4, 30427, Note_on_c, 0, 63, 0
4, 30660, Note_on_c, 0, 68, 61
4, 30664, Note_on_c, 0, 64, 57
4, 30665, Note_on_c, 0, 59, 57
4, 30666, Note_on_c, 0, 53, 63
4, 30675, Control_c, 0, 64, 0
4, 30703, Control_c, 0, 64, 127
4, 30743, Note_on_c, 0, 59, 0
4, 30747, Note_on_c, 0, 64, 0
4, 30749, Note_on_c, 0, 53, 0
4, 30751, Note_on_c, 0, 68, 0
4, 30781, Note_on_c, 0, 68, 56
4, 30784, Note_on_c, 0, 59, 57
4, 30784, Note_on_c, 0, 53, 51
4, 30784, Note_on_c, 0, 64, 52
4, 30837, Note_on_c, 0, 53, 0
4, 30842, Note_on_c, 0, 64, 0
4, 30842, Note_on_c, 0, 59, 0
4, 30852, Note_on_c, 0, 68, 0
4, 30892, Note_on_c, 0, 53, 42
4, 30895, Note_on_c, 0, 68, 39
4, 30895, Note_on_c, 0, 59, 49
4, 30896, Note_on_c, 0, 64, 51
4, 30931, Note_on_c, 0, 53, 0
4, 30937, Note_on_c, 0, 59, 0
4, 30946, Note_on_c, 0, 64, 0
4, 30966, Note_on_c, 0, 68, 0
4, 31035, Note_on_c, 0, 67, 46
4, 31036, Note_on_c, 0, 63, 50
4, 31036, Note_on_c, 0, 58, 45
4, 31036, Note_on_c, 0, 64, 54
4, 31038, Note_on_c, 0, 48, 43
4, 31040, Control_c, 0, 64, 0
4, 31064, Control_c, 0, 64, 127
4, 31073, Note_on_c, 0, 58, 0
4, 31082, Note_on_c, 0, 48, 0
4, 31104, Note_on_c, 0, 63, 0
4, 31105, Note_on_c, 0, 67, 0
4, 31106, Note_on_c, 0, 64, 0
4, 31474, Note_on_c, 0, 58, 32
4, 31474, Note_on_c, 0, 67, 34
4, 31478, Note_on_c, 0, 24, 41
4, 31479, Note_on_c, 0, 64, 38
4, 31480, Control_c, 0, 64, 0
4, 31480, Note_on_c, 0, 36, 34
4, 31501, Control_c, 0, 64, 127
4, 31538, Note_on_c, 0, 67, 0
4, 31544, Note_on_c, 0, 64, 0
4, 31555, Note_on_c, 0, 24, 0
4, 31570, Note_on_c, 0, 58, 0
4, 31887, Note_on_c, 0, 36, 0
4, 31935, Note_on_c, 0, 60, 75
4, 32251, Note_on_c, 0, 29, 27
4, 32273, Note_on_c, 0, 60, 0
4, 32278, Note_on_c, 0, 29, 0
4, 32287, Note_on_c, 0, 41, 24
4, 32304, Note_on_c, 0, 41, 0
4, 32312, Note_on_c, 0, 29, 19
4, 32334, Note_on_c, 0, 29, 0
4, 32345, Note_on_c, 0, 41, 22
4, 32352, Note_on_c, 0, 41, 0
4, 32362, Note_on_c, 0, 29, 29
4, 32392, Note_on_c, 0, 29, 0
4, 32394, Note_on_c, 0, 41, 36
4, 32405, Note_on_c, 0, 67, 45
4, 32408, Note_on_c, 0, 60, 53
4, 32414, Note_on_c, 0, 56, 21
4, 32416, Note_on_c, 0, 29, 24
4, 32422, Note_on_c, 0, 41, 0
4, 32457, Note_on_c, 0, 29, 0
4, 32464, Note_on_c, 0, 56, 0
4, 32465, Note_on_c, 0, 60, 0
4, 32482, Note_on_c, 0, 67, 0
4, 32489, Note_on_c, 0, 29, 27
4, 32522, Note_on_c, 0, 29, 0
4, 32533, Note_on_c, 0, 41, 29
4, 32534, Note_on_c, 0, 67, 48
4, 32534, Note_on_c, 0, 56, 50
4, 32535, Note_on_c, 0, 64, 60
4, 32536, Note_on_c, 0, 60, 59
4, 32546, Note_on_c, 0, 29, 36
4, 32552, Control_c, 0, 64, 0
4, 32574, Note_on_c, 0, 41, 0
4, 32582, Note_on_c, 0, 29, 0
4, 32582, Control_c, 0, 64, 127
4, 32590, Note_on_c, 0, 56, 0
4, 32602, Note_on_c, 0, 29, 24
4, 32604, Note_on_c, 0, 60, 0
4, 32608, Note_on_c, 0, 64, 0
4, 32609, Note_on_c, 0, 56, 35
4, 32623, Note_on_c, 0, 29, 0
4, 32627, Note_on_c, 0, 56, 0
4, 32634, Note_on_c, 0, 41, 30
4, 32648, Note_on_c, 0, 41, 0
4, 32651, Note_on_c, 0, 29, 29
4, 32663, Note_on_c, 0, 56, 17
4, 32685, Note_on_c, 0, 67, 0
4, 32689, Note_on_c, 0, 60, 26
4, 32691, Note_on_c, 0, 29, 0
4, 32692, Note_on_c, 0, 41, 36
4, 32712, Note_on_c, 0, 41, 0
4, 32712, Note_on_c, 0, 56, 0
4, 32716, Note_on_c, 0, 29, 24
4, 32720, Note_on_c, 0, 60, 0
4, 32738, Note_on_c, 0, 56, 33
4, 32751, Note_on_c, 0, 29, 0
4, 32753, Note_on_c, 0, 41, 27
4, 32765, Note_on_c, 0, 60, 33
4, 32768, Note_on_c, 0, 41, 0
4, 32774, Note_on_c, 0, 56, 0
4, 32778, Note_on_c, 0, 29, 24
4, 32786, Note_on_c, 0, 60, 0
4, 32797, Note_on_c, 0, 56, 29
4, 32809, Note_on_c, 0, 29, 0
4, 32813, Note_on_c, 0, 41, 31
4, 32820, Note_on_c, 0, 60, 24
4, 32826, Note_on_c, 0, 41, 0
4, 32834, Note_on_c, 0, 60, 0
4, 32834, Note_on_c, 0, 29, 25
4, 32846, Note_on_c, 0, 67, 19
4, 32863, Note_on_c, 0, 29, 0
4, 32870, Note_on_c, 0, 41, 28
4, 32871, Note_on_c, 0, 56, 0
4, 32879, Note_on_c, 0, 67, 0
4, 32882, Note_on_c, 0, 41, 0
4, 32887, Note_on_c, 0, 29, 28
4, 32924, Note_on_c, 0, 41, 45
4, 32927, Note_on_c, 0, 29, 0
4, 32932, Note_on_c, 0, 55, 66
4, 32932, Note_on_c, 0, 65, 37
4, 32934, Note_on_c, 0, 60, 62
4, 32945, Note_on_c, 0, 29, 45
4, 32948, Note_on_c, 0, 41, 0
4, 32979, Note_on_c, 0, 29, 0
4, 32984, Note_on_c, 0, 41, 42
4, 33002, Note_on_c, 0, 41, 0
4, 33004, Note_on_c, 0, 29, 27
4, 33017, Note_on_c, 0, 60, 0
4, 33025, Note_on_c, 0, 55, 0
4, 33036, Note_on_c, 0, 29, 0
4, 33044, Note_on_c, 0, 41, 41
4, 33061, Note_on_c, 0, 41, 0
4, 33069, Note_on_c, 0, 29, 34
4, 33079, Note_on_c, 0, 65, 0
4, 33103, Note_on_c, 0, 29, 0
4, 33103, Note_on_c, 0, 41, 42
4, 33116, Note_on_c, 0, 63, 35
4, 33122, Note_on_c, 0, 67, 44
4, 33123, Note_on_c, 0, 29, 31
4, 33124, Note_on_c, 0, 65, 47
4, 33124, Note_on_c, 0, 59, 64
4, 33126, Note_on_c, 0, 56, 47
4, 33145, Control_c, 0, 64, 0
4, 33179, Control_c, 0, 64, 127
4, 33196, Note_on_c, 0, 41, 0
4, 33197, Note_on_c, 0, 63, 0
4, 33198, Note_on_c, 0, 59, 0
4, 33198, Note_on_c, 0, 56, 0
4, 33203, Note_on_c, 0, 67, 0
4, 33210, Note_on_c, 0, 65, 0
4, 33230, Note_on_c, 0, 67, 51
4, 33231, Note_on_c, 0, 59, 68
4, 33231, Note_on_c, 0, 64, 62
4, 33232, Note_on_c, 0, 56, 60
4, 33233, Note_on_c, 0, 41, 52
4, 33233, Note_on_c, 0, 65, 45
4, 33243, Control_c, 0, 64, 0
4, 33278, Control_c, 0, 64, 127
4, 33296, Note_on_c, 0, 67, 0
4, 33302, Note_on_c, 0, 65, 0
4, 33313, Note_on_c, 0, 41, 0
4, 33314, Note_on_c, 0, 56, 0
4, 33317, Note_on_c, 0, 59, 0
4, 33332, Note_on_c, 0, 56, 53
4, 33332, Note_on_c, 0, 65, 84
4, 33336, Note_on_c, 0, 59, 62
4, 33337, Note_on_c, 0, 41, 51
4, 33392, Note_on_c, 0, 41, 0
4, 33400, Note_on_c, 0, 59, 0
4, 33401, Note_on_c, 0, 56, 0
4, 33408, Note_on_c, 0, 64, 0
4, 33472, Note_on_c, 0, 29, 0
4, 33480, Control_c, 0, 64, 0
4, 33512, Note_on_c, 0, 29, 20
4, 33531, Note_on_c, 0, 29, 0
4, 33549, Note_on_c, 0, 56, 20
4, 33551, Note_on_c, 0, 29, 29
4, 33575, Note_on_c, 0, 56, 0
4, 33588, Note_on_c, 0, 41, 39
4, 33589, Note_on_c, 0, 29, 0
4, 33592, Note_on_c, 0, 65, 0
4, 33597, Note_on_c, 0, 56, 33
4, 33600, Control_c, 0, 64, 127
4, 33600, Note_on_c, 0, 68, 70
4, 33621, Note_on_c, 0, 41, 0
4, 33624, Note_on_c, 0, 56, 0
4, 33626, Note_on_c, 0, 59, 38
4, 33628, Note_on_c, 0, 29, 18
4, 33644, Note_on_c, 0, 56, 12
4, 33646, Note_on_c, 0, 59, 0
4, 33671, Note_on_c, 0, 56, 0
4, 33676, Note_on_c, 0, 29, 0
4, 33720, Note_on_c, 0, 68, 0
4, 33722, Note_on_c, 0, 68, 80
4, 33976, Note_on_c, 0, 67, 46
4, 33977, Note_on_c, 0, 41, 37
4, 33978, Note_on_c, 0, 58, 44
4, 33982, Note_on_c, 0, 64, 40
4, 33983, Note_on_c, 0, 61, 42
4, 33987, Note_on_c, 0, 68, 0
4, 33997, Control_c, 0, 64, 0
4, 34013, Control_c, 0, 64, 127
4, 34068, Note_on_c, 0, 41, 0
4, 34075, Note_on_c, 0, 64, 0
4, 34083, Note_on_c, 0, 67, 0
4, 34095, Note_on_c, 0, 58, 0
4, 34142, Note_on_c, 0, 61, 0
4, 34332, Note_on_c, 0, 65, 44
4, 34333, Note_on_c, 0, 56, 31
4, 34334, Note_on_c, 0, 48, 28
4, 34335, Note_on_c, 0, 41, 35
4, 34338, Note_on_c, 0, 60, 44
4, 34341, Control_c, 0, 64, 0
4, 34364, Control_c, 0, 64, 127
4, 34368, Note_on_c, 0, 56, 0
4, 34379, Note_on_c, 0, 60, 0
4, 34386, Note_on_c, 0, 65, 0
4, 34427, Note_on_c, 0, 41, 0
4, 34436, Note_on_c, 0, 48, 0
4, 34512, Note_on_c, 0, 79, 53
4, 34514, Note_on_c, 0, 67, 51
4, 34517, Note_on_c, 0, 55, 32
4, 34549, Note_on_c, 0, 79, 0
4, 34551, Note_on_c, 0, 67, 0
4, 34579, Note_on_c, 0, 55, 0
4, 34587, Note_on_c, 0, 80, 63
4, 34588, Note_on_c, 0, 56, 49
4, 34590, Note_on_c, 0, 68, 58
4, 34624, Note_on_c, 0, 68, 0
4, 34633, Note_on_c, 0, 80, 0
4, 34665, Note_on_c, 0, 58, 38
4, 34668, Note_on_c, 0, 82, 73
4, 34669, Note_on_c, 0, 70, 67
4, 34677, Note_on_c, 0, 58, 0
4, 34683, Note_on_c, 0, 56, 0
4, 34690, Note_on_c, 0, 70, 0
4, 34700, Note_on_c, 0, 82, 0
4, 34764, Note_on_c, 0, 44, 50
4, 34764, Note_on_c, 0, 32, 56
4, 34768, Note_on_c, 0, 84, 71
4, 34771, Note_on_c, 0, 72, 62
4, 34775, Control_c, 0, 64, 0
4, 34801, Control_c, 0, 64, 127
4, 34829, Note_on_c, 0, 32, 0
4, 34837, Note_on_c, 0, 84, 0
4, 34842, Note_on_c, 0, 44, 0
4, 34846, Note_on_c, 0, 72, 0
4, 34888, Note_on_c, 0, 82, 52
4, 34892, Note_on_c, 0, 70, 39
4, 34966, Note_on_c, 0, 82, 0
4, 34973, Note_on_c, 0, 70, 0
4, 35330, Note_on_c, 0, 80, 48
4, 35333, Note_on_c, 0, 56, 29
4, 35334, Note_on_c, 0, 67, 36
4, 35335, Note_on_c, 0, 60, 41
4, 35336, Note_on_c, 0, 63, 34
4, 35444, Note_on_c, 0, 80, 0
4, 35449, Note_on_c, 0, 67, 0
4, 35465, Note_on_c, 0, 63, 0
4, 35581, Note_on_c, 0, 60, 0
4, 35585, Note_on_c, 0, 79, 47
4, 35589, Note_on_c, 0, 67, 36
4, 35598, Note_on_c, 0, 56, 0
4, 35748, Note_on_c, 0, 79, 0
4, 35853, Note_on_c, 0, 77, 52
4, 35855, Note_on_c, 0, 69, 48
4, 35860, Note_on_c, 0, 45, 35
4, 35860, Note_on_c, 0, 65, 38
4, 35866, Control_c, 0, 64, 0
4, 35891, Note_on_c, 0, 67, 0
4, 35899, Control_c, 0, 64, 127
4, 35936, Note_on_c, 0, 45, 0
4, 35949, Note_on_c, 0, 57, 34
4, 36013, Note_on_c, 0, 57, 0
4, 36021, Note_on_c, 0, 60, 41
4, 36041, Note_on_c, 0, 60, 0
4, 36095, Note_on_c, 0, 63, 60
4, 36124, Note_on_c, 0, 65, 0
4, 36135, Note_on_c, 0, 69, 0
4, 36162, Note_on_c, 0, 77, 0
4, 36178, Note_on_c, 0, 65, 44
4, 36263, Note_on_c, 0, 69, 49
4, 36305, Note_on_c, 0, 65, 0
4, 36342, Note_on_c, 0, 69, 0
4, 36358, Note_on_c, 0, 72, 40
4, 36362, Note_on_c, 0, 65, 29
4, 36365, Note_on_c, 0, 69, 9
4, 36442, Note_on_c, 0, 72, 0
4, 36450, Note_on_c, 0, 69, 0
4, 36454, Note_on_c, 0, 65, 0
4, 36467, Note_on_c, 0, 75, 51
4, 36545, Note_on_c, 0, 63, 0
4, 36632, Note_on_c, 0, 75, 0
4, 36809, Note_on_c, 0, 67, 74
4, 36810, Note_on_c, 0, 63, 74
4, 36812, Note_on_c, 0, 58, 83
4, 36815, Note_on_c, 0, 55, 58
4, 36815, Note_on_c, 0, 57, 55
4, 36830, Control_c, 0, 64, 0
4, 36846, Control_c, 0, 64, 127
4, 36856, Note_on_c, 0, 57, 0
4, 36885, Note_on_c, 0, 54, 81
4, 36892, Note_on_c, 0, 55, 0
4, 36910, Note_on_c, 0, 67, 0
4, 36949, Note_on_c, 0, 58, 0
4, 36954, Note_on_c, 0, 63, 0
4, 36958, Note_on_c, 0, 68, 63
4, 36958, Note_on_c, 0, 53, 62
4, 36959, Note_on_c, 0, 64, 63
4, 36960, Note_on_c, 0, 59, 65
4, 36962, Note_on_c, 0, 54, 0
4, 36977, Control_c, 0, 64, 0
4, 37007, Control_c, 0, 64, 127
4, 37042, Note_on_c, 0, 52, 68
4, 37054, Note_on_c, 0, 53, 0
4, 37086, Note_on_c, 0, 64, 0
4, 37090, Note_on_c, 0, 59, 0
4, 37103, Note_on_c, 0, 68, 0
4, 37154, Note_on_c, 0, 70, 56
4, 37158, Note_on_c, 0, 66, 58
4, 37158, Note_on_c, 0, 61, 42
4, 37160, Note_on_c, 0, 51, 46
4, 37167, Note_on_c, 0, 52, 0
4, 37175, Control_c, 0, 64, 0
4, 37202, Control_c, 0, 64, 127
4, 37241, Note_on_c, 0, 50, 61
4, 37249, Note_on_c, 0, 66, 0
4, 37255, Note_on_c, 0, 61, 0
4, 37260, Note_on_c, 0, 70, 0
4, 37269, Note_on_c, 0, 51, 0
4, 37327, Note_on_c, 0, 63, 46
4, 37327, Note_on_c, 0, 68, 58
4, 37328, Note_on_c, 0, 72, 50
4, 37332, Note_on_c, 0, 49, 38
4, 37340, Control_c, 0, 64, 0
4, 37348, Note_on_c, 0, 50, 0
4, 37372, Control_c, 0, 64, 127
4, 37420, Note_on_c, 0, 49, 0
4, 37427, Note_on_c, 0, 48, 58
4, 37477, Note_on_c, 0, 72, 0
4, 37478, Note_on_c, 0, 48, 0
4, 37508, Note_on_c, 0, 63, 0
4, 37510, Note_on_c, 0, 68, 0
4, 37552, Note_on_c, 0, 64, 52
4, 37552, Note_on_c, 0, 73, 55
4, 37553, Note_on_c, 0, 46, 39
4, 37554, Note_on_c, 0, 69, 55
4, 37554, Note_on_c, 0, 34, 43
4, 37567, Control_c, 0, 64, 0
4, 37595, Control_c, 0, 64, 127
4, 37637, Note_on_c, 0, 46, 0
4, 37642, Note_on_c, 0, 34, 0
4, 37662, Note_on_c, 0, 45, 51
4, 37667, Control_c, 0, 64, 0
4, 37668, Note_on_c, 0, 33, 36
4, 37691, Control_c, 0, 64, 127
4, 37716, Note_on_c, 0, 69, 0
4, 37734, Note_on_c, 0, 64, 0
4, 37745, Note_on_c, 0, 33, 0
4, 37752, Note_on_c, 0, 45, 0
4, 37777, Note_on_c, 0, 73, 0
4, 37899, Note_on_c, 0, 64, 53
4, 37900, Note_on_c, 0, 72, 58
4, 37900, Note_on_c, 0, 44, 38
4, 37901, Note_on_c, 0, 68, 51
4, 37903, Note_on_c, 0, 32, 34
4, 37906, Control_c, 0, 64, 0
4, 37934, Control_c, 0, 64, 127
4, 37993, Note_on_c, 0, 32, 0
4, 37995, Note_on_c, 0, 44, 0
4, 38042, Note_on_c, 0, 72, 0
4, 38043, Note_on_c, 0, 64, 0
4, 38051, Note_on_c, 0, 68, 0
4, 38275, Note_on_c, 0, 75, 55
4, 38277, Note_on_c, 0, 30, 37
4, 38278, Control_c, 0, 64, 0
4, 38279, Note_on_c, 0, 64, 38
4, 38279, Note_on_c, 0, 72, 47
4, 38279, Note_on_c, 0, 42, 28
4, 38281, Note_on_c, 0, 68, 42
4, 38317, Note_on_c, 0, 30, 0
4, 38317, Control_c, 0, 64, 127
4, 38328, Note_on_c, 0, 42, 0
4, 38396, Note_on_c, 0, 63, 56
4, 38453, Note_on_c, 0, 68, 0
4, 38460, Note_on_c, 0, 64, 0
4, 38481, Note_on_c, 0, 72, 0
4, 38484, Note_on_c, 0, 63, 0
4, 38491, Note_on_c, 0, 61, 39
4, 38492, Note_on_c, 0, 68, 42
4, 38493, Note_on_c, 0, 75, 0
4, 38495, Note_on_c, 0, 64, 40
4, 38529, Note_on_c, 0, 61, 0
4, 38560, Note_on_c, 0, 73, 62
4, 38582, Note_on_c, 0, 73, 0
4, 38586, Note_on_c, 0, 68, 0
4, 38608, Note_on_c, 0, 64, 0
4, 38621, Note_on_c, 0, 41, 44
4, 38621, Note_on_c, 0, 72, 49
4, 38638, Control_c, 0, 64, 0
4, 38676, Control_c, 0, 64, 127
4, 38681, Note_on_c, 0, 48, 37
4, 38734, Note_on_c, 0, 48, 0
4, 38741, Note_on_c, 0, 41, 0
4, 38744, Note_on_c, 0, 60, 43
4, 38750, Note_on_c, 0, 53, 29
4, 38758, Note_on_c, 0, 53, 0
4, 38783, Note_on_c, 0, 60, 0
4, 38788, Note_on_c, 0, 72, 0
4, 38800, Note_on_c, 0, 60, 24
4, 38805, Note_on_c, 0, 65, 48
4, 38866, Note_on_c, 0, 65, 0
4, 38866, Note_on_c, 0, 72, 64
4, 38884, Note_on_c, 0, 72, 0
4, 38924, Note_on_c, 0, 77, 79
4, 38925, Note_on_c, 0, 60, 0
4, 38974, Note_on_c, 0, 77, 0
4, 38990, Note_on_c, 0, 77, 62
4, 38992, Note_on_c, 0, 50, 47
4, 39000, Control_c, 0, 64, 0
4, 39044, Control_c, 0, 64, 127
4, 39058, Note_on_c, 0, 50, 0
4, 39059, Note_on_c, 0, 54, 38
4, 39073, Note_on_c, 0, 54, 0
4, 39130, Note_on_c, 0, 66, 42
4, 39147, Note_on_c, 0, 60, 11
4, 39208, Note_on_c, 0, 65, 41
4, 39268, Note_on_c, 0, 66, 0
4, 39296, Note_on_c, 0, 66, 30
4, 39318, Note_on_c, 0, 65, 0
4, 39338, Note_on_c, 0, 60, 0
4, 39352, Note_on_c, 0, 77, 0
4, 39407, Note_on_c, 0, 60, 38
4, 39410, Note_on_c, 0, 66, 0
4, 39433, Note_on_c, 0, 60, 0
4, 39646, Note_on_c, 0, 67, 35
4, 39708, Note_on_c, 0, 68, 52
4, 39720, Note_on_c, 0, 67, 0
4, 39795, Note_on_c, 0, 68, 0
4, 39888, Note_on_c, 0, 70, 50
4, 39895, Note_on_c, 0, 63, 45
4, 39895, Note_on_c, 0, 59, 35
4, 39899, Note_on_c, 0, 53, 32
4, 39902, Note_on_c, 0, 43, 32
4, 39913, Control_c, 0, 64, 0
4, 39965, Control_c, 0, 64, 127
4, 39966, Note_on_c, 0, 70, 0
4, 39978, Note_on_c, 0, 70, 67
4, 40032, Note_on_c, 0, 70, 0
4, 40106, Note_on_c, 0, 70, 70
4, 40215, Note_on_c, 0, 68, 69
4, 40225, Note_on_c, 0, 70, 0
4, 40291, Note_on_c, 0, 68, 0
4, 40318, Note_on_c, 0, 68, 69
4, 40334, Note_on_c, 0, 63, 0
4, 40416, Note_on_c, 0, 63, 52
4, 40504, Note_on_c, 0, 63, 0
4, 40525, Note_on_c, 0, 64, 49
4, 40610, Note_on_c, 0, 53, 0
4, 40618, Note_on_c, 0, 43, 0
4, 40620, Note_on_c, 0, 68, 0
4, 40624, Note_on_c, 0, 64, 0
4, 40646, Note_on_c, 0, 68, 46
4, 40647, Note_on_c, 0, 64, 34
4, 40743, Note_on_c, 0, 64, 0
4, 40755, Note_on_c, 0, 59, 0
4, 40799, Note_on_c, 0, 68, 0
4, 40980, Note_on_c, 0, 70, 67
4, 40982, Note_on_c, 0, 58, 59
4, 40984, Note_on_c, 0, 64, 64
4, 40985, Note_on_c, 0, 24, 61
4, 40985, Note_on_c, 0, 36, 68
4, 40994, Control_c, 0, 64, 0
4, 41032, Control_c, 0, 64, 127
4, 41068, Note_on_c, 0, 70, 0
4, 41073, Note_on_c, 0, 64, 0
4, 41085, Note_on_c, 0, 24, 0
4, 41094, Note_on_c, 0, 58, 0
4, 41216, Note_on_c, 0, 49, 45
4, 41217, Note_on_c, 0, 37, 38
4, 41237, Note_on_c, 0, 36, 0
4, 41300, Note_on_c, 0, 51, 61
4, 41306, Note_on_c, 0, 49, 0
4, 41308, Note_on_c, 0, 39, 39
4, 41321, Note_on_c, 0, 37, 0
4, 41322, Control_c, 0, 64, 0
4, 41362, Note_on_c, 0, 51, 0
4, 41367, Note_on_c, 0, 52, 51
4, 41369, Note_on_c, 0, 39, 0
4, 41369, Note_on_c, 0, 40, 37
4, 41412, Note_on_c, 0, 52, 0
4, 41415, Note_on_c, 0, 42, 36
4, 41416, Note_on_c, 0, 40, 0
4, 41420, Note_on_c, 0, 54, 34
4, 41439, Note_on_c, 0, 54, 0
4, 41451, Note_on_c, 0, 55, 47
4, 41452, Note_on_c, 0, 42, 0
4, 41454, Note_on_c, 0, 43, 44
4, 41474, Note_on_c, 0, 55, 0
4, 41476, Note_on_c, 0, 56, 36
4, 41480, Note_on_c, 0, 43, 0
4, 41483, Note_on_c, 0, 56, 0
4, 41490, Note_on_c, 0, 57, 33
4, 41492, Note_on_c, 0, 45, 34
4, 41512, Note_on_c, 0, 57, 0
4, 41518, Note_on_c, 0, 58, 42
4, 41522, Note_on_c, 0, 45, 0
4, 41532, Note_on_c, 0, 46, 25
4, 41542, Note_on_c, 0, 58, 0
4, 41552, Note_on_c, 0, 60, 50
4, 41553, Note_on_c, 0, 46, 0
4, 41563, Note_on_c, 0, 48, 32
4, 41581, Note_on_c, 0, 60, 0
4, 41585, Note_on_c, 0, 61, 56
4, 41601, Note_on_c, 0, 48, 0
4, 41614, Note_on_c, 0, 61, 0
4, 41620, Note_on_c, 0, 49, 23
4, 41621, Note_on_c, 0, 63, 49
4, 41644, Note_on_c, 0, 63, 0
4, 41653, Note_on_c, 0, 49, 0
4, 41655, Note_on_c, 0, 64, 44
4, 41679, Note_on_c, 0, 64, 0
4, 41694, Note_on_c, 0, 66, 49
4, 41706, Note_on_c, 0, 54, 37
4, 41715, Note_on_c, 0, 66, 0
4, 41726, Note_on_c, 0, 67, 38
4, 41740, Note_on_c, 0, 55, 46
4, 41754, Note_on_c, 0, 67, 0
4, 41758, Note_on_c, 0, 54, 0
4, 41759, Note_on_c, 0, 69, 48
4, 41761, Note_on_c, 0, 55, 0
4, 41768, Note_on_c, 0, 57, 39
4, 41782, Note_on_c, 0, 69, 0
4, 41790, Note_on_c, 0, 58, 28
4, 41790, Note_on_c, 0, 70, 61
4, 41791, Note_on_c, 0, 57, 0
4, 41808, Note_on_c, 0, 70, 0
4, 41809, Note_on_c, 0, 58, 0
4, 41818, Note_on_c, 0, 72, 60
4, 41837, Note_on_c, 0, 72, 0
4, 41848, Note_on_c, 0, 73, 49
4, 41867, Note_on_c, 0, 73, 0
4, 41874, Note_on_c, 0, 61, 30
4, 41874, Note_on_c, 0, 75, 48
4, 41894, Note_on_c, 0, 75, 0
4, 41903, Note_on_c, 0, 61, 0
4, 41905, Note_on_c, 0, 76, 47
4, 41920, Control_c, 0, 64, 127
4, 41925, Note_on_c, 0, 76, 0
4, 41937, Note_on_c, 0, 63, 23
4, 41937, Note_on_c, 0, 78, 44
4, 41956, Note_on_c, 0, 78, 0
4, 41966, Note_on_c, 0, 79, 41
4, 41968, Control_c, 0, 64, 0
4, 41976, Note_on_c, 0, 63, 0
4, 41987, Note_on_c, 0, 79, 0
4, 41999, Note_on_c, 0, 81, 48
4, 42026, Note_on_c, 0, 81, 0
4, 42030, Note_on_c, 0, 67, 29
4, 42032, Note_on_c, 0, 82, 58
4, 42056, Control_c, 0, 64, 127
4, 42066, Note_on_c, 0, 82, 0
4, 42070, Note_on_c, 0, 84, 51
4, 42077, Note_on_c, 0, 84, 0
4, 42080, Note_on_c, 0, 67, 0
4, 42154, Control_c, 0, 64, 0
4, 42184, Note_on_c, 0, 60, 34
4, 42184, Note_on_c, 0, 63, 49
4, 42209, Note_on_c, 0, 63, 0
4, 42215, Note_on_c, 0, 60, 0
4, 42222, Note_on_c, 0, 61, 50
4, 42222, Note_on_c, 0, 64, 45
4, 42241, Note_on_c, 0, 64, 0
4, 42251, Note_on_c, 0, 63, 42
4, 42251, Note_on_c, 0, 66, 47
4, 42254, Note_on_c, 0, 61, 0
4, 42269, Note_on_c, 0, 66, 0
4, 42279, Note_on_c, 0, 63, 0
4, 42282, Note_on_c, 0, 67, 53
4, 42300, Note_on_c, 0, 67, 0
4, 42312, Note_on_c, 0, 69, 67
4, 42334, Note_on_c, 0, 69, 0
4, 42343, Note_on_c, 0, 67, 27
4, 42343, Note_on_c, 0, 70, 62
4, 42355, Note_on_c, 0, 67, 0
4, 42371, Note_on_c, 0, 70, 0
4, 42458, Note_on_c, 0, 63, 48
4, 42458, Note_on_c, 0, 66, 46
4, 42482, Note_on_c, 0, 66, 0
4, 42489, Note_on_c, 0, 64, 46
4, 42489, Note_on_c, 0, 67, 44
4, 42510, Note_on_c, 0, 64, 0
4, 42512, Note_on_c, 0, 67, 0
4, 42512, Note_on_c, 0, 63, 0
4, 42526, Note_on_c, 0, 66, 45
4, 42526, Note_on_c, 0, 69, 62
4, 42548, Note_on_c, 0, 69, 0
4, 42550, Note_on_c, 0, 66, 0
4, 42560, Note_on_c, 0, 67, 30
4, 42560, Note_on_c, 0, 70, 63
4, 42579, Note_on_c, 0, 70, 0
4, 42585, Note_on_c, 0, 67, 0
4, 42595, Note_on_c, 0, 72, 44
4, 42614, Note_on_c, 0, 69, 25
4, 42620, Note_on_c, 0, 72, 0
4, 42640, Note_on_c, 0, 73, 59
4, 42725, Note_on_c, 0, 69, 0
4, 42728, Note_on_c, 0, 73, 0
4, 42728, Note_on_c, 0, 67, 31
4, 42728, Note_on_c, 0, 72, 53
4, 42758, Note_on_c, 0, 72, 0
4, 42763, Note_on_c, 0, 67, 0
4, 42768, Note_on_c, 0, 69, 47
4, 42768, Note_on_c, 0, 73, 56
4, 42791, Note_on_c, 0, 73, 0
4, 42794, Note_on_c, 0, 69, 0
4, 42808, Note_on_c, 0, 70, 50
4, 42808, Note_on_c, 0, 75, 60
4, 42836, Note_on_c, 0, 75, 0
4, 42837, Note_on_c, 0, 70, 0
4, 42849, Note_on_c, 0, 76, 49
4, 42870, Note_on_c, 0, 76, 0
4, 42902, Control_c, 0, 64, 127
4, 42928, Control_c, 0, 64, 0
4, 43007, Note_on_c, 0, 69, 18
4, 43007, Note_on_c, 0, 73, 56
4, 43040, Note_on_c, 0, 69, 0
4, 43053, Control_c, 0, 64, 127
4, 43054, Note_on_c, 0, 70, 34
4, 43054, Note_on_c, 0, 75, 53
4, 43055, Note_on_c, 0, 73, 0
4, 43088, Note_on_c, 0, 75, 0
4, 43091, Note_on_c, 0, 70, 0
4, 43104, Note_on_c, 0, 72, 32
4, 43106, Note_on_c, 0, 76, 38
4, 43132, Note_on_c, 0, 72, 0
4, 43140, Note_on_c, 0, 76, 0
4, 43150, Note_on_c, 0, 79, 51
4, 43151, Note_on_c, 0, 73, 40
4, 43174, Note_on_c, 0, 79, 0
4, 43199, Note_on_c, 0, 70, 47
4, 43199, Note_on_c, 0, 87, 62
4, 43205, Note_on_c, 0, 73, 0
4, 43236, Note_on_c, 0, 87, 0
4, 43246, Note_on_c, 0, 70, 0
4, 43246, Note_on_c, 0, 79, 43
4, 43250, Note_on_c, 0, 67, 37
4, 43282, Note_on_c, 0, 79, 0
4, 43295, Note_on_c, 0, 82, 48
4, 43307, Note_on_c, 0, 73, 29
4, 43329, Note_on_c, 0, 82, 0
4, 43339, Note_on_c, 0, 87, 67
4, 43340, Note_on_c, 0, 73, 0
4, 43346, Note_on_c, 0, 67, 0
4, 43350, Note_on_c, 0, 76, 35
4, 43356, Note_on_c, 0, 87, 0
4, 43369, Note_on_c, 0, 76, 0
4, 43394, Note_on_c, 0, 88, 57
4, 43394, Note_on_c, 0, 77, 35
4, 43399, Note_on_c, 0, 96, 53
4, 43401, Note_on_c, 0, 95, 46
4, 43420, Note_on_c, 0, 77, 0
4, 43429, Note_on_c, 0, 96, 0
4, 43430, Note_on_c, 0, 95, 0
4, 43435, Note_on_c, 0, 88, 0
4, 43446, Note_on_c, 0, 91, 51
4, 43451, Note_on_c, 0, 84, 34
4, 43488, Note_on_c, 0, 84, 0
4, 43488, Note_on_c, 0, 91, 0
4, 43497, Note_on_c, 0, 78, 35
4, 43501, Note_on_c, 0, 88, 44
4, 43508, Note_on_c, 0, 91, 22
4, 43510, Note_on_c, 0, 88, 0
4, 43516, Note_on_c, 0, 91, 0
4, 43549, Note_on_c, 0, 78, 0
4, 43556, Note_on_c, 0, 103, 64
4, 43592, Note_on_c, 0, 103, 0
4, 43610, Note_on_c, 0, 100, 53
4, 43616, Note_on_c, 0, 91, 24
4, 43648, Note_on_c, 0, 91, 0
4, 43671, Note_on_c, 0, 96, 55
4, 43672, Note_on_c, 0, 91, 32
4, 43674, Note_on_c, 0, 87, 29
4, 43679, Note_on_c, 0, 96, 0
4, 43680, Note_on_c, 0, 91, 0
4, 43684, Note_on_c, 0, 87, 0
4, 43688, Note_on_c, 0, 100, 0
4, 43738, Note_on_c, 0, 108, 99
4, 43739, Note_on_c, 0, 88, 24
4, 43748, Note_on_c, 0, 88, 0
4, 43756, Note_on_c, 0, 108, 0
4, 44079, Note_on_c, 0, 60, 48
4, 44091, Note_on_c, 0, 60, 0
4, 44106, Note_on_c, 0, 60, 63
4, 44125, Note_on_c, 0, 60, 0
4, 44140, Note_on_c, 0, 60, 81
4, 44160, Note_on_c, 0, 60, 0
4, 44174, Note_on_c, 0, 60, 87
4, 44195, Note_on_c, 0, 60, 0
4, 44209, Note_on_c, 0, 60, 75
4, 44228, Note_on_c, 0, 60, 0
4, 44244, Note_on_c, 0, 60, 80
4, 44266, Note_on_c, 0, 60, 0
4, 44279, Note_on_c, 0, 60, 65
4, 44295, Note_on_c, 0, 60, 0
4, 44313, Note_on_c, 0, 60, 59
4, 44332, Note_on_c, 0, 60, 0
4, 44346, Note_on_c, 0, 60, 55
4, 44355, Note_on_c, 0, 60, 0
4, 44366, Control_c, 0, 64, 0
4, 44379, Note_on_c, 0, 60, 53
4, 44387, Note_on_c, 0, 60, 0
4, 44401, Note_on_c, 0, 60, 50
4, 44416, Note_on_c, 0, 60, 0
4, 44420, Control_c, 0, 64, 127
4, 44428, Note_on_c, 0, 60, 68
4, 44446, Note_on_c, 0, 60, 0
4, 44456, Note_on_c, 0, 60, 73
4, 44475, Note_on_c, 0, 60, 0
4, 44486, Note_on_c, 0, 60, 78
4, 44507, Note_on_c, 0, 60, 0
4, 44522, Note_on_c, 0, 60, 74
4, 44543, Note_on_c, 0, 60, 0
4, 44560, Note_on_c, 0, 60, 68
4, 44574, Note_on_c, 0, 60, 0
4, 44596, Note_on_c, 0, 60, 66
4, 44610, Note_on_c, 0, 60, 0
4, 44631, Note_on_c, 0, 60, 64
4, 44647, Note_on_c, 0, 60, 0
4, 44668, Note_on_c, 0, 60, 44
4, 44684, Note_on_c, 0, 60, 0
4, 44721, Note_on_c, 0, 60, 47
4, 44723, Note_on_c, 0, 64, 41
4, 44723, Note_on_c, 0, 67, 24
4, 44724, Note_on_c, 0, 56, 32
4, 44732, Note_on_c, 0, 52, 17
4, 44732, Note_on_c, 0, 41, 29
4, 44745, Control_c, 0, 64, 0
4, 44809, Control_c, 0, 64, 127
4, 44818, Note_on_c, 0, 52, 0
4, 44826, Note_on_c, 0, 48, 29
4, 44878, Note_on_c, 0, 64, 0
4, 44881, Note_on_c, 0, 56, 0
4, 44886, Note_on_c, 0, 60, 0
4, 44916, Note_on_c, 0, 56, 28
4, 44918, Note_on_c, 0, 64, 34
4, 44920, Note_on_c, 0, 60, 32
4, 44991, Note_on_c, 0, 55, 33
4, 45008, Note_on_c, 0, 55, 0
4, 45051, Note_on_c, 0, 56, 0
4, 45053, Note_on_c, 0, 55, 25
4, 45061, Note_on_c, 0, 60, 0
4, 45064, Note_on_c, 0, 48, 0
4, 45064, Note_on_c, 0, 55, 0
4, 45066, Note_on_c, 0, 64, 0
4, 45082, Note_on_c, 0, 56, 25
4, 45106, Note_on_c, 0, 60, 29
4, 45108, Note_on_c, 0, 56, 0
4, 45124, Note_on_c, 0, 60, 0
4, 45132, Note_on_c, 0, 56, 34
4, 45150, Note_on_c, 0, 60, 33
4, 45154, Note_on_c, 0, 64, 28
4, 45161, Note_on_c, 0, 56, 0
4, 45161, Note_on_c, 0, 55, 46
4, 45174, Note_on_c, 0, 60, 0
4, 45180, Note_on_c, 0, 64, 0
4, 45182, Note_on_c, 0, 55, 0
4, 45190, Note_on_c, 0, 56, 38
4, 45203, Note_on_c, 0, 60, 28
4, 45212, Note_on_c, 0, 64, 18
4, 45219, Note_on_c, 0, 56, 0
4, 45225, Note_on_c, 0, 55, 57
4, 45232, Note_on_c, 0, 60, 0
4, 45238, Note_on_c, 0, 64, 0
4, 45246, Note_on_c, 0, 56, 46
4, 45248, Note_on_c, 0, 55, 0
4, 45257, Note_on_c, 0, 60, 36
4, 45264, Note_on_c, 0, 64, 22
4, 45276, Note_on_c, 0, 56, 0
4, 45287, Note_on_c, 0, 60, 0
4, 45292, Note_on_c, 0, 64, 0
4, 45294, Note_on_c, 0, 55, 46
4, 45302, Note_on_c, 0, 56, 40
4, 45305, Note_on_c, 0, 55, 0
4, 45314, Note_on_c, 0, 60, 30
4, 45327, Note_on_c, 0, 64, 17
4, 45332, Note_on_c, 0, 56, 0
4, 45346, Note_on_c, 0, 60, 0
4, 45354, Note_on_c, 0, 64, 0
4, 45354, Note_on_c, 0, 55, 40
4, 45360, Note_on_c, 0, 56, 44
4, 45368, Note_on_c, 0, 55, 0
4, 45375, Note_on_c, 0, 60, 30
4, 45382, Note_on_c, 0, 64, 22
4, 45390, Note_on_c, 0, 56, 0
4, 45404, Note_on_c, 0, 60, 0
4, 45410, Note_on_c, 0, 55, 40
4, 45412, Note_on_c, 0, 64, 0
4, 45416, Note_on_c, 0, 56, 37
4, 45428, Note_on_c, 0, 55, 0
4, 45434, Note_on_c, 0, 60, 30
4, 45444, Note_on_c, 0, 64, 17
4, 45448, Note_on_c, 0, 56, 0
4, 45465, Note_on_c, 0, 60, 0
4, 45472, Note_on_c, 0, 64, 0
4, 45473, Note_on_c, 0, 55, 33
4, 45474, Note_on_c, 0, 56, 35
4, 45491, Note_on_c, 0, 55, 0
4, 45494, Note_on_c, 0, 60, 32
4, 45501, Note_on_c, 0, 64, 28
4, 45511, Note_on_c, 0, 56, 0
4, 45524, Note_on_c, 0, 60, 0
4, 45531, Note_on_c, 0, 55, 42
4, 45532, Note_on_c, 0, 64, 0
4, 45536, Note_on_c, 0, 56, 34
4, 45550, Note_on_c, 0, 55, 0
4, 45555, Note_on_c, 0, 60, 30
4, 45563, Note_on_c, 0, 64, 22
4, 45572, Note_on_c, 0, 56, 0
4, 45582, Note_on_c, 0, 60, 0
4, 45586, Note_on_c, 0, 55, 36
4, 45588, Note_on_c, 0, 64, 0
4, 45596, Note_on_c, 0, 56, 35
4, 45606, Note_on_c, 0, 55, 0
4, 45616, Note_on_c, 0, 60, 25
4, 45630, Note_on_c, 0, 56, 0
4, 45643, Note_on_c, 0, 60, 0
4, 45643, Note_on_c, 0, 55, 38
4, 45655, Note_on_c, 0, 56, 39
4, 45664, Note_on_c, 0, 55, 0
4, 45680, Note_on_c, 0, 60, 33
4, 45692, Note_on_c, 0, 56, 0
4, 45701, Note_on_c, 0, 55, 36
4, 45707, Note_on_c, 0, 60, 0
4, 45721, Note_on_c, 0, 56, 32
4, 45724, Note_on_c, 0, 55, 0
4, 45739, Note_on_c, 0, 60, 26
4, 45763, Note_on_c, 0, 55, 36
4, 45764, Note_on_c, 0, 56, 0
4, 45771, Note_on_c, 0, 60, 0
4, 45795, Note_on_c, 0, 67, 0
4, 45831, Note_on_c, 0, 41, 0
4, 45834, Note_on_c, 0, 55, 0
4, 46084, Note_on_c, 0, 60, 69
4, 46086, Note_on_c, 0, 64, 71
4, 46086, Control_c, 0, 64, 0
4, 46087, Note_on_c, 0, 67, 83
4, 46087, Note_on_c, 0, 79, 82
4, 46088, Note_on_c, 0, 53, 60
4, 46089, Note_on_c, 0, 54, 36
4, 46146, Note_on_c, 0, 79, 0
4, 46152, Note_on_c, 0, 67, 0
4, 46168, Note_on_c, 0, 67, 66
4, 46170, Note_on_c, 0, 79, 45
4, 46171, Note_on_c, 0, 54, 0
4, 46176, Note_on_c, 0, 64, 0
4, 46177, Note_on_c, 0, 60, 0
4, 46182, Note_on_c, 0, 67, 0
4, 46188, Note_on_c, 0, 79, 0
4, 46190, Note_on_c, 0, 53, 0
4, 46319, Note_on_c, 0, 56, 39
4, 46320, Note_on_c, 0, 60, 52
4, 46332, Note_on_c, 0, 60, 0
4, 46340, Note_on_c, 0, 56, 0
4, 46529, Note_on_c, 0, 67, 72
4, 46529, Note_on_c, 0, 63, 62
4, 46533, Note_on_c, 0, 59, 41
4, 46537, Note_on_c, 0, 63, 0
4, 46537, Note_on_c, 0, 56, 26
4, 46542, Note_on_c, 0, 59, 0
4, 46544, Note_on_c, 0, 67, 0
4, 46556, Note_on_c, 0, 56, 0
4, 46566, Note_on_c, 0, 68, 98
4, 46600, Note_on_c, 0, 70, 82
4, 46606, Note_on_c, 0, 68, 0
4, 46628, Note_on_c, 0, 70, 0
4, 46636, Note_on_c, 0, 68, 88
4, 46638, Note_on_c, 0, 63, 59
4, 46640, Note_on_c, 0, 59, 55
4, 46643, Note_on_c, 0, 56, 29
4, 46643, Note_on_c, 0, 53, 48
4, 46671, Note_on_c, 0, 68, 0
4, 46674, Note_on_c, 0, 70, 49
4, 46706, Note_on_c, 0, 70, 0
4, 46712, Note_on_c, 0, 68, 57
4, 46739, Note_on_c, 0, 68, 0
4, 46753, Note_on_c, 0, 59, 0
4, 46757, Note_on_c, 0, 53, 0
4, 46762, Note_on_c, 0, 63, 0
4, 46770, Note_on_c, 0, 56, 0
4, 46886, Note_on_c, 0, 63, 51
4, 46890, Note_on_c, 0, 58, 44
4, 46893, Note_on_c, 0, 52, 33
4, 46902, Note_on_c, 0, 52, 0
4, 46902, Note_on_c, 0, 63, 0
4, 46909, Note_on_c, 0, 58, 0
4, 47021, Note_on_c, 0, 66, 90
4, 47023, Note_on_c, 0, 60, 64
4, 47024, Note_on_c, 0, 64, 69
4, 47025, Note_on_c, 0, 67, 81
4, 47025, Note_on_c, 0, 56, 52
4, 47026, Note_on_c, 0, 53, 53
4, 47038, Note_on_c, 0, 64, 0
4, 47038, Note_on_c, 0, 66, 0
4, 47048, Note_on_c, 0, 60, 0
4, 47048, Note_on_c, 0, 53, 0
4, 47059, Note_on_c, 0, 67, 0
4, 47060, Note_on_c, 0, 56, 0
4, 47073, Note_on_c, 0, 65, 59
4, 47130, Note_on_c, 0, 65, 0
4, 47144, Note_on_c, 0, 67, 65
4, 47167, Note_on_c, 0, 67, 0
4, 47186, Note_on_c, 0, 68, 64
4, 47246, Note_on_c, 0, 68, 0
4, 47256, Note_on_c, 0, 63, 75
4, 47256, Note_on_c, 0, 70, 71
4, 47258, Note_on_c, 0, 58, 63
4, 47258, Note_on_c, 0, 52, 71
4, 47266, Note_on_c, 0, 52, 0
4, 47271, Note_on_c, 0, 63, 0
4, 47284, Note_on_c, 0, 70, 0
4, 47295, Note_on_c, 0, 70, 60
4, 47312, Note_on_c, 0, 70, 0
4, 47312, Note_on_c, 0, 71, 75
4, 47324, Note_on_c, 0, 72, 68
4, 47333, Note_on_c, 0, 58, 0
4, 47334, Note_on_c, 0, 71, 0
4, 47361, Note_on_c, 0, 72, 0
4, 47378, Note_on_c, 0, 70, 82
4, 47389, Note_on_c, 0, 63, 55
4, 47392, Note_on_c, 0, 58, 38
4, 47401, Note_on_c, 0, 63, 0
4, 47408, Note_on_c, 0, 70, 0
4, 47419, Note_on_c, 0, 58, 0
4, 47422, Note_on_c, 0, 68, 50
4, 47466, Note_on_c, 0, 68, 0
4, 47492, Note_on_c, 0, 67, 80
4, 47492, Note_on_c, 0, 60, 59
4, 47494, Note_on_c, 0, 62, 61
4, 47494, Note_on_c, 0, 56, 39
4, 47502, Note_on_c, 0, 62, 0
4, 47512, Note_on_c, 0, 60, 0
4, 47524, Note_on_c, 0, 56, 0
4, 47555, Note_on_c, 0, 67, 0
4, 47560, Note_on_c, 0, 68, 60
4, 47586, Note_on_c, 0, 67, 45
4, 47596, Note_on_c, 0, 68, 0
4, 47613, Note_on_c, 0, 67, 0
4, 47618, Note_on_c, 0, 65, 60
4, 47624, Note_on_c, 0, 56, 14
4, 47635, Note_on_c, 0, 65, 0
4, 47648, Note_on_c, 0, 56, 0
4, 47650, Note_on_c, 0, 64, 53
4, 47731, Note_on_c, 0, 65, 75
4, 47736, Note_on_c, 0, 64, 0
4, 47854, Note_on_c, 0, 65, 0
4, 47854, Note_on_c, 0, 63, 59
4, 47856, Note_on_c, 0, 59, 54
4, 47858, Note_on_c, 0, 56, 35
4, 47867, Note_on_c, 0, 63, 0
4, 47869, Note_on_c, 0, 59, 0
4, 47882, Note_on_c, 0, 56, 0
4, 47973, Note_on_c, 0, 72, 57
4, 47989, Note_on_c, 0, 72, 0
4, 48008, Note_on_c, 0, 58, 45
4, 48010, Note_on_c, 0, 61, 40
4, 48011, Note_on_c, 0, 79, 67
4, 48012, Note_on_c, 0, 67, 67
4, 48016, Note_on_c, 0, 53, 27
4, 48021, Note_on_c, 0, 61, 0
4, 48026, Note_on_c, 0, 67, 0
4, 48026, Note_on_c, 0, 53, 0
4, 48026, Note_on_c, 0, 79, 0
4, 48030, Note_on_c, 0, 58, 0
4, 48094, Note_on_c, 0, 68, 83
4, 48095, Note_on_c, 0, 80, 81
4, 48096, Note_on_c, 0, 58, 63
4, 48097, Note_on_c, 0, 61, 72
4, 48098, Note_on_c, 0, 53, 69
4, 48101, Note_on_c, 0, 55, 66
4, 48158, Note_on_c, 0, 68, 0
4, 48160, Note_on_c, 0, 53, 0
4, 48161, Note_on_c, 0, 80, 0
4, 48161, Note_on_c, 0, 55, 0
4, 48162, Note_on_c, 0, 61, 0
4, 48167, Note_on_c, 0, 58, 0
4, 48179, Note_on_c, 0, 61, 36
4, 48180, Note_on_c, 0, 53, 52
4, 48183, Note_on_c, 0, 70, 48
4, 48184, Note_on_c, 0, 58, 43
4, 48184, Note_on_c, 0, 82, 56
4, 48184, Note_on_c, 0, 55, 35
4, 48188, Note_on_c, 0, 53, 0
4, 48193, Note_on_c, 0, 61, 0
4, 48193, Note_on_c, 0, 55, 0
4, 48194, Note_on_c, 0, 70, 0
4, 48196, Note_on_c, 0, 82, 0
4, 48200, Note_on_c, 0, 58, 0
4, 48211, Note_on_c, 0, 61, 42
4, 48213, Note_on_c, 0, 58, 43
4, 48214, Note_on_c, 0, 53, 45
4, 48218, Note_on_c, 0, 71, 37
4, 48218, Note_on_c, 0, 84, 61
4, 48219, Note_on_c, 0, 83, 37
4, 48219, Note_on_c, 0, 72, 42
4, 48221, Note_on_c, 0, 53, 0
4, 48224, Note_on_c, 0, 84, 0
4, 48224, Note_on_c, 0, 61, 0
4, 48226, Note_on_c, 0, 71, 0
4, 48226, Note_on_c, 0, 83, 0
4, 48227, Note_on_c, 0, 72, 0
4, 48234, Note_on_c, 0, 58, 0
4, 48251, Note_on_c, 0, 58, 67
4, 48251, Note_on_c, 0, 63, 76
4, 48253, Note_on_c, 0, 73, 53
4, 48253, Note_on_c, 0, 85, 78
4, 48255, Note_on_c, 0, 52, 67
4, 48262, Note_on_c, 0, 52, 0
4, 48266, Note_on_c, 0, 63, 0
4, 48271, Note_on_c, 0, 73, 0
4, 48272, Note_on_c, 0, 85, 0
4, 48277, Note_on_c, 0, 58, 0
4, 48289, Note_on_c, 0, 72, 61
4, 48290, Note_on_c, 0, 84, 55
4, 48291, Note_on_c, 0, 58, 30
4, 48296, Note_on_c, 0, 84, 0
4, 48296, Note_on_c, 0, 72, 0
4, 48306, Note_on_c, 0, 58, 0
4, 48330, Note_on_c, 0, 75, 91
4, 48330, Note_on_c, 0, 87, 88
4, 48332, Note_on_c, 0, 58, 78
4, 48332, Note_on_c, 0, 63, 83
4, 48334, Note_on_c, 0, 52, 85
4, 48334, Note_on_c, 0, 85, 62
4, 48341, Note_on_c, 0, 85, 0
4, 48360, Note_on_c, 0, 87, 0
4, 48360, Note_on_c, 0, 75, 0
4, 48360, Note_on_c, 0, 52, 0
4, 48362, Note_on_c, 0, 63, 0
4, 48373, Note_on_c, 0, 58, 0
4, 48382, Note_on_c, 0, 63, 81
4, 48382, Note_on_c, 0, 87, 86
4, 48383, Note_on_c, 0, 58, 63
4, 48383, Note_on_c, 0, 75, 83
4, 48383, Note_on_c, 0, 52, 79
4, 48430, Note_on_c, 0, 63, 0
4, 48434, Note_on_c, 0, 75, 0
4, 48434, Note_on_c, 0, 87, 0
4, 48434, Note_on_c, 0, 52, 0
4, 48446, Note_on_c, 0, 63, 57
4, 48447, Note_on_c, 0, 52, 32
4, 48453, Note_on_c, 0, 85, 77
4, 48454, Note_on_c, 0, 73, 45
4, 48456, Note_on_c, 0, 75, 50
4, 48463, Note_on_c, 0, 52, 0
4, 48464, Note_on_c, 0, 75, 0
4, 48472, Note_on_c, 0, 63, 0
4, 48475, Note_on_c, 0, 85, 0
4, 48478, Note_on_c, 0, 58, 0
4, 48479, Note_on_c, 0, 73, 0
4, 48491, Note_on_c, 0, 64, 58
4, 48493, Note_on_c, 0, 84, 58
4, 48495, Note_on_c, 0, 60, 43
4, 48496, Note_on_c, 0, 53, 44
4, 48496, Note_on_c, 0, 56, 34
4, 48496, Note_on_c, 0, 72, 53
4, 48504, Note_on_c, 0, 72, 0
4, 48507, Note_on_c, 0, 60, 0
4, 48508, Note_on_c, 0, 64, 0
4, 48509, Note_on_c, 0, 84, 0
4, 48510, Note_on_c, 0, 53, 0
4, 48513, Note_on_c, 0, 56, 0
4, 48567, Note_on_c, 0, 84, 79
4, 48567, Note_on_c, 0, 60, 73
4, 48567, Note_on_c, 0, 72, 79
4, 48568, Note_on_c, 0, 56, 44
4, 48569, Note_on_c, 0, 64, 71
4, 48570, Note_on_c, 0, 53, 46
4, 48575, Note_on_c, 0, 64, 0
4, 48580, Note_on_c, 0, 72, 0
4, 48581, Note_on_c, 0, 84, 0
4, 48582, Note_on_c, 0, 60, 0
4, 48592, Note_on_c, 0, 53, 0
4, 48594, Note_on_c, 0, 56, 0
4, 48686, Note_on_c, 0, 67, 76
4, 48687, Note_on_c, 0, 57, 80
4, 48688, Note_on_c, 0, 62, 70
4, 48689, Note_on_c, 0, 52, 78
4, 48690, Note_on_c, 0, 66, 37
4, 48694, Note_on_c, 0, 51, 49
4, 48697, Note_on_c, 0, 66, 0
4, 48703, Note_on_c, 0, 51, 0
4, 48709, Note_on_c, 0, 67, 0
4, 48711, Note_on_c, 0, 57, 0
4, 48716, Note_on_c, 0, 62, 0
4, 48733, Note_on_c, 0, 66, 61
4, 48737, Note_on_c, 0, 61, 57
4, 48738, Note_on_c, 0, 56, 32
4, 48740, Note_on_c, 0, 51, 47
4, 48743, Note_on_c, 0, 52, 0
4, 48819, Note_on_c, 0, 66, 0
4, 48828, Note_on_c, 0, 61, 0
4, 48829, Note_on_c, 0, 49, 44
4, 48830, Note_on_c, 0, 56, 0
4, 48843, Note_on_c, 0, 51, 0
4, 48851, Note_on_c, 0, 54, 55
4, 48854, Note_on_c, 0, 65, 58
4, 48856, Note_on_c, 0, 49, 0
4, 48856, Note_on_c, 0, 60, 55
4, 48857, Note_on_c, 0, 50, 47
4, 48916, Note_on_c, 0, 60, 0
4, 48916, Note_on_c, 0, 65, 0
4, 48938, Note_on_c, 0, 46, 37
4, 48944, Note_on_c, 0, 54, 0
4, 48954, Note_on_c, 0, 50, 0
4, 48957, Note_on_c, 0, 46, 0
4, 48964, Note_on_c, 0, 63, 46
4, 48966, Note_on_c, 0, 49, 46
4, 48969, Note_on_c, 0, 56, 42
4, 48970, Note_on_c, 0, 53, 44
4, 48971, Note_on_c, 0, 59, 45
4, 48990, Note_on_c, 0, 53, 0
4, 48996, Note_on_c, 0, 56, 0
4, 48996, Note_on_c, 0, 59, 0
4, 48997, Control_c, 0, 64, 127
4, 49002, Note_on_c, 0, 63, 0
4, 49042, Note_on_c, 0, 49, 0
4, 49050, Note_on_c, 0, 70, 72
4, 49052, Note_on_c, 0, 63, 62
4, 49052, Note_on_c, 0, 59, 67
4, 49054, Note_on_c, 0, 58, 78
4, 49054, Note_on_c, 0, 67, 55
4, 49059, Control_c, 0, 64, 0
4, 49071, Note_on_c, 0, 58, 0
4, 49073, Note_on_c, 0, 59, 0
4, 49074, Note_on_c, 0, 67, 0
4, 49077, Note_on_c, 0, 63, 0
4, 49077, Note_on_c, 0, 70, 0
4, 49089, Note_on_c, 0, 68, 32
4, 49093, Note_on_c, 0, 56, 33
4, 49108, Note_on_c, 0, 68, 0
4, 49129, Note_on_c, 0, 56, 0
4, 49134, Note_on_c, 0, 70, 76
4, 49135, Note_on_c, 0, 63, 69
4, 49135, Note_on_c, 0, 67, 68
4, 49136, Note_on_c, 0, 58, 74
4, 49136, Note_on_c, 0, 59, 72
4, 49187, Note_on_c, 0, 67, 0
4, 49190, Note_on_c, 0, 63, 0
4, 49194, Note_on_c, 0, 59, 0
4, 49198, Note_on_c, 0, 70, 0
4, 49203, Note_on_c, 0, 58, 0
4, 49212, Note_on_c, 0, 56, 51
4, 49213, Note_on_c, 0, 68, 57
4, 49214, Note_on_c, 0, 63, 55
4, 49214, Note_on_c, 0, 59, 41
4, 49226, Control_c, 0, 64, 127
4, 49294, Control_c, 0, 64, 0
4, 49328, Control_c, 0, 64, 127
4, 49345, Note_on_c, 0, 56, 0
4, 49354, Note_on_c, 0, 68, 0
4, 49378, Note_on_c, 0, 59, 0
4, 49397, Note_on_c, 0, 63, 0
4, 49413, Note_on_c, 0, 54, 55
4, 49415, Note_on_c, 0, 65, 47
4, 49436, Note_on_c, 0, 65, 0
4, 49436, Control_c, 0, 64, 0
4, 49446, Note_on_c, 0, 54, 0
4, 49450, Note_on_c, 0, 58, 73
4, 49451, Note_on_c, 0, 67, 64
4, 49452, Note_on_c, 0, 61, 57
4, 49454, Note_on_c, 0, 55, 72
4, 49457, Note_on_c, 0, 65, 58
4, 49465, Note_on_c, 0, 65, 0
4, 49476, Note_on_c, 0, 58, 0
4, 49483, Note_on_c, 0, 61, 0
4, 49485, Note_on_c, 0, 67, 0
4, 49492, Note_on_c, 0, 55, 0
4, 49492, Note_on_c, 0, 54, 52
4, 49524, Note_on_c, 0, 54, 0
4, 49528, Note_on_c, 0, 61, 68
4, 49528, Note_on_c, 0, 58, 71
4, 49529, Note_on_c, 0, 67, 68
4, 49529, Note_on_c, 0, 55, 74
4, 49561, Note_on_c, 0, 58, 0
4, 49564, Note_on_c, 0, 55, 0
4, 49565, Note_on_c, 0, 54, 50
4, 49566, Note_on_c, 0, 67, 0
4, 49567, Note_on_c, 0, 61, 0
4, 49604, Note_on_c, 0, 54, 0
4, 49607, Note_on_c, 0, 61, 64
4, 49607, Note_on_c, 0, 58, 67
4, 49608, Note_on_c, 0, 65, 68
4, 49608, Note_on_c, 0, 55, 65
4, 49609, Note_on_c, 0, 67, 49
4, 49636, Note_on_c, 0, 58, 0
4, 49636, Note_on_c, 0, 61, 0
4, 49638, Note_on_c, 0, 65, 0
4, 49642, Note_on_c, 0, 55, 0
4, 49642, Note_on_c, 0, 67, 0
4, 49692, Note_on_c, 0, 75, 81
4, 49693, Note_on_c, 0, 68, 75
4, 49693, Note_on_c, 0, 63, 83
4, 49694, Note_on_c, 0, 64, 79
4, 49695, Note_on_c, 0, 72, 67
4, 49700, Note_on_c, 0, 73, 29
4, 49720, Note_on_c, 0, 64, 0
4, 49723, Note_on_c, 0, 72, 0
4, 49725, Note_on_c, 0, 75, 0
4, 49726, Note_on_c, 0, 68, 0
4, 49727, Note_on_c, 0, 73, 0
4, 49727, Note_on_c, 0, 63, 0
4, 49740, Note_on_c, 0, 61, 35
4, 49766, Note_on_c, 0, 61, 0
4, 49768, Note_on_c, 0, 75, 80
4, 49769, Note_on_c, 0, 68, 82
4, 49769, Note_on_c, 0, 63, 80
4, 49770, Note_on_c, 0, 72, 73
4, 49771, Note_on_c, 0, 64, 85
4, 49823, Note_on_c, 0, 68, 0
4, 49827, Note_on_c, 0, 64, 0
4, 49829, Note_on_c, 0, 75, 0
4, 49830, Note_on_c, 0, 72, 0
4, 49835, Note_on_c, 0, 63, 0
4, 49842, Note_on_c, 0, 73, 51
4, 49844, Note_on_c, 0, 61, 52
4, 49845, Note_on_c, 0, 64, 64
4, 49845, Note_on_c, 0, 68, 71
4, 49887, Note_on_c, 0, 61, 0
4, 49894, Note_on_c, 0, 64, 0
4, 49898, Note_on_c, 0, 68, 0
4, 49906, Note_on_c, 0, 73, 0
4, 49920, Note_on_c, 0, 64, 49
4, 49921, Note_on_c, 0, 60, 45
4, 49924, Note_on_c, 0, 53, 40
4, 49924, Note_on_c, 0, 56, 44
4, 49924, Note_on_c, 0, 72, 54
4, 49925, Note_on_c, 0, 67, 52
4, 49944, Note_on_c, 0, 67, 0
4, 49948, Note_on_c, 0, 72, 0
4, 50008, Note_on_c, 0, 79, 85
4, 50027, Note_on_c, 0, 64, 0
4, 50034, Note_on_c, 0, 79, 0
4, 50037, Note_on_c, 0, 60, 0
4, 50048, Note_on_c, 0, 77, 44
4, 50049, Note_on_c, 0, 53, 0
4, 50050, Note_on_c, 0, 56, 0
4, 50067, Note_on_c, 0, 77, 0
4, 50087, Note_on_c, 0, 72, 64
4, 50115, Note_on_c, 0, 72, 0
4, 50123, Note_on_c, 0, 68, 61
4, 50140, Note_on_c, 0, 68, 0
4, 50161, Note_on_c, 0, 67, 49
4, 50163, Note_on_c, 0, 56, 33
4, 50168, Note_on_c, 0, 60, 44
4, 50172, Note_on_c, 0, 50, 35
4, 50190, Note_on_c, 0, 67, 0
4, 50211, Note_on_c, 0, 67, 40
4, 50251, Note_on_c, 0, 67, 0
4, 50289, Note_on_c, 0, 67, 56
4, 50307, Note_on_c, 0, 50, 0
4, 50316, Note_on_c, 0, 56, 0
4, 50318, Note_on_c, 0, 60, 0
4, 50355, Note_on_c, 0, 67, 0
4, 50366, Note_on_c, 0, 65, 62
4, 50375, Note_on_c, 0, 65, 0
4, 50413, Note_on_c, 0, 63, 36
4, 50413, Note_on_c, 0, 65, 28
4, 50415, Note_on_c, 0, 66, 46
4, 50422, Note_on_c, 0, 59, 20
4, 50425, Note_on_c, 0, 65, 0
4, 50428, Note_on_c, 0, 67, 68
4, 50432, Note_on_c, 0, 56, 18
4, 50445, Note_on_c, 0, 66, 0
4, 50451, Note_on_c, 0, 68, 68
4, 50453, Note_on_c, 0, 67, 0
4, 50481, Note_on_c, 0, 59, 0
4, 50524, Note_on_c, 0, 59, 36
4, 50536, Note_on_c, 0, 63, 0
4, 50550, Note_on_c, 0, 59, 0
4, 50578, Note_on_c, 0, 56, 0
4, 50583, Note_on_c, 0, 67, 43
4, 50598, Note_on_c, 0, 66, 53
4, 50600, Note_on_c, 0, 68, 0
4, 50603, Note_on_c, 0, 67, 0
4, 50620, Note_on_c, 0, 65, 62
4, 50624, Note_on_c, 0, 66, 0
4, 50640, Note_on_c, 0, 65, 0
4, 50648, Note_on_c, 0, 64, 64
4, 50660, Note_on_c, 0, 63, 46
4, 50661, Note_on_c, 0, 58, 35
4, 50681, Note_on_c, 0, 63, 0
4, 50685, Note_on_c, 0, 58, 0
4, 50734, Note_on_c, 0, 63, 76
4, 50736, Note_on_c, 0, 58, 59
4, 50739, Note_on_c, 0, 52, 52
4, 50746, Note_on_c, 0, 52, 0
4, 50746, Note_on_c, 0, 63, 0
4, 50750, Note_on_c, 0, 58, 0
4, 50837, Note_on_c, 0, 64, 0
4, 50847, Note_on_c, 0, 60, 61
4, 50849, Note_on_c, 0, 56, 36
4, 50850, Note_on_c, 0, 68, 71
4, 50854, Note_on_c, 0, 60, 0
4, 50864, Note_on_c, 0, 56, 0
4, 50882, Note_on_c, 0, 68, 0
4, 50892, Note_on_c, 0, 65, 62
4, 50918, Note_on_c, 0, 65, 0
4, 50974, Note_on_c, 0, 66, 75
4, 50974, Note_on_c, 0, 67, 94
4, 51016, Note_on_c, 0, 67, 0
4, 51019, Note_on_c, 0, 66, 0
4, 51026, Note_on_c, 0, 65, 71
4, 51029, Note_on_c, 0, 68, 74
4, 51083, Note_on_c, 0, 68, 0
4, 51089, Note_on_c, 0, 64, 76
4, 51090, Note_on_c, 0, 65, 0
4, 51090, Note_on_c, 0, 69, 89
4, 51135, Note_on_c, 0, 69, 0
4, 51142, Note_on_c, 0, 64, 0
4, 51144, Note_on_c, 0, 63, 52
4, 51146, Note_on_c, 0, 70, 62
4, 51178, Note_on_c, 0, 70, 0
4, 51182, Note_on_c, 0, 63, 0
4, 51186, Note_on_c, 0, 71, 42
4, 51188, Note_on_c, 0, 62, 51
4, 51199, Note_on_c, 0, 62, 0
4, 51212, Note_on_c, 0, 71, 0
4, 51269, Note_on_c, 0, 61, 55
4, 51271, Note_on_c, 0, 72, 70
4, 51273, Note_on_c, 0, 66, 52
4, 51274, Note_on_c, 0, 64, 66
4, 51274, Note_on_c, 0, 68, 50
4, 51286, Note_on_c, 0, 72, 0
4, 51288, Note_on_c, 0, 64, 0
4, 51292, Note_on_c, 0, 66, 0
4, 51293, Note_on_c, 0, 68, 0
4, 51304, Note_on_c, 0, 61, 0
4, 51306, Note_on_c, 0, 73, 46
4, 51307, Note_on_c, 0, 64, 57
4, 51309, Note_on_c, 0, 60, 55
4, 51326, Note_on_c, 0, 73, 0
4, 51335, Note_on_c, 0, 60, 0
4, 51342, Note_on_c, 0, 64, 0
4, 51372, Note_on_c, 0, 59, 46
4, 51381, Note_on_c, 0, 59, 0
4, 51392, Note_on_c, 0, 59, 39
4, 51395, Note_on_c, 0, 53, 55
4, 51396, Note_on_c, 0, 63, 59
4, 51396, Note_on_c, 0, 56, 53
4, 51396, Note_on_c, 0, 77, 66
4, 51398, Note_on_c, 0, 65, 62
4, 51399, Note_on_c, 0, 71, 58
4, 51507, Control_c, 0, 64, 127
4, 51517, Note_on_c, 0, 77, 0
4, 51518, Note_on_c, 0, 63, 0
4, 51518, Note_on_c, 0, 71, 0
4, 51520, Note_on_c, 0, 59, 0
4, 51527, Note_on_c, 0, 65, 0
4, 51531, Note_on_c, 0, 53, 0
4, 51534, Note_on_c, 0, 56, 0
4, 51581, Control_c, 0, 64, 0
4, 51581, Note_on_c, 0, 70, 70
4, 51582, Note_on_c, 0, 63, 65
4, 51583, Note_on_c, 0, 67, 61
4, 51583, Note_on_c, 0, 59, 71
4, 51583, Note_on_c, 0, 58, 74
4, 51679, Note_on_c, 0, 59, 0
4, 51682, Note_on_c, 0, 67, 0
4, 51682, Note_on_c, 0, 63, 0
4, 51688, Note_on_c, 0, 70, 0
4, 51699, Note_on_c, 0, 68, 63
4, 51699, Note_on_c, 0, 63, 58
4, 51700, Note_on_c, 0, 59, 62
4, 51700, Note_on_c, 0, 56, 51
4, 51704, Note_on_c, 0, 58, 0
4, 51717, Note_on_c, 0, 59, 0
4, 51732, Note_on_c, 0, 63, 0
4, 51733, Note_on_c, 0, 68, 0
4, 51742, Note_on_c, 0, 59, 44
4, 51807, Note_on_c, 0, 59, 0
4, 51818, Note_on_c, 0, 54, 47
4, 51827, Note_on_c, 0, 56, 0
4, 51848, Note_on_c, 0, 54, 0
4, 51848, Note_on_c, 0, 67, 49
4, 51849, Note_on_c, 0, 55, 55
4, 51851, Note_on_c, 0, 58, 48
4, 51852, Note_on_c, 0, 61, 46
4, 51904, Note_on_c, 0, 61, 0
4, 51907, Note_on_c, 0, 58, 0
4, 51916, Note_on_c, 0, 67, 0
4, 51928, Note_on_c, 0, 58, 59
4, 51930, Note_on_c, 0, 55, 0
4, 51931, Note_on_c, 0, 57, 63
4, 51932, Note_on_c, 0, 61, 39
4, 51935, Note_on_c, 0, 69, 32
4, 51938, Note_on_c, 0, 65, 46
4, 51939, Note_on_c, 0, 61, 0
4, 51939, Note_on_c, 0, 67, 15
4, 51942, Note_on_c, 0, 58, 0
4, 51944, Note_on_c, 0, 69, 0
4, 51945, Note_on_c, 0, 65, 0
4, 51949, Note_on_c, 0, 67, 0
4, 51956, Note_on_c, 0, 57, 0
4, 51972, Note_on_c, 0, 70, 56
4, 51972, Note_on_c, 0, 58, 53
4, 51975, Note_on_c, 0, 61, 27
4, 51981, Note_on_c, 0, 65, 46
4, 52012, Note_on_c, 0, 65, 0
4, 52020, Note_on_c, 0, 61, 0
4, 52023, Note_on_c, 0, 70, 0
4, 52049, Note_on_c, 0, 58, 0
4, 52049, Note_on_c, 0, 72, 79
4, 52051, Note_on_c, 0, 66, 69
4, 52052, Note_on_c, 0, 64, 83
4, 52052, Note_on_c, 0, 68, 65
4, 52053, Note_on_c, 0, 60, 85
4, 52076, Note_on_c, 0, 64, 0
4, 52078, Note_on_c, 0, 72, 0
4, 52078, Note_on_c, 0, 66, 0
4, 52083, Note_on_c, 0, 68, 0
4, 52092, Note_on_c, 0, 60, 0
4, 52100, Note_on_c, 0, 61, 56
4, 52103, Note_on_c, 0, 73, 67
4, 52105, Note_on_c, 0, 68, 67
4, 52105, Note_on_c, 0, 64, 76
4, 52108, Note_on_c, 0, 70, 48
4, 52115, Note_on_c, 0, 70, 0
4, 52119, Note_on_c, 0, 64, 0
4, 52123, Note_on_c, 0, 68, 0
4, 52128, Note_on_c, 0, 73, 0
4, 52155, Note_on_c, 0, 60, 22
4, 52164, Note_on_c, 0, 60, 0
4, 52170, Note_on_c, 0, 61, 0
4, 52181, Note_on_c, 0, 63, 83
4, 52181, Note_on_c, 0, 75, 79
4, 52182, Note_on_c, 0, 68, 83
4, 52184, Note_on_c, 0, 72, 77
4, 52184, Note_on_c, 0, 64, 87
4, 52214, Note_on_c, 0, 72, 0
4, 52220, Note_on_c, 0, 68, 0
4, 52220, Note_on_c, 0, 64, 0
4, 52221, Note_on_c, 0, 63, 0
4, 52222, Note_on_c, 0, 75, 0
4, 52230, Note_on_c, 0, 61, 37
4, 52246, Note_on_c, 0, 73, 47
4, 52246, Note_on_c, 0, 68, 71
4, 52252, Note_on_c, 0, 64, 62
4, 52283, Note_on_c, 0, 68, 0
4, 52287, Note_on_c, 0, 73, 0
4, 52288, Note_on_c, 0, 64, 0
4, 52289, Note_on_c, 0, 61, 0
4, 52335, Note_on_c, 0, 60, 38
4, 52343, Note_on_c, 0, 60, 0
4, 52389, Note_on_c, 0, 66, 61
4, 52391, Note_on_c, 0, 72, 73
4, 52393, Note_on_c, 0, 60, 68
4, 52413, Note_on_c, 0, 66, 0
4, 52422, Note_on_c, 0, 72, 0
4, 52424, Note_on_c, 0, 60, 0
4, 52456, Note_on_c, 0, 58, 53
4, 52458, Note_on_c, 0, 70, 71
4, 52461, Note_on_c, 0, 60, 61
4, 52461, Note_on_c, 0, 63, 53
4, 52492, Note_on_c, 0, 63, 0
4, 52494, Note_on_c, 0, 60, 0
4, 52497, Note_on_c, 0, 58, 0
4, 52505, Note_on_c, 0, 70, 0
4, 52532, Note_on_c, 0, 56, 49
4, 52535, Note_on_c, 0, 67, 51
4, 52536, Note_on_c, 0, 60, 55
4, 52537, Note_on_c, 0, 63, 45
4, 52550, Note_on_c, 0, 67, 0
4, 52556, Note_on_c, 0, 56, 0
4, 52557, Note_on_c, 0, 63, 0
4, 52563, Note_on_c, 0, 60, 0
4, 52611, Note_on_c, 0, 54, 55
4, 52612, Note_on_c, 0, 65, 60
4, 52612, Note_on_c, 0, 60, 62
4, 52615, Note_on_c, 0, 50, 36
4, 52649, Note_on_c, 0, 50, 0
4, 52652, Note_on_c, 0, 60, 0
4, 52653, Note_on_c, 0, 65, 0
4, 52659, Note_on_c, 0, 54, 0
4, 52689, Note_on_c, 0, 49, 49
4, 52691, Note_on_c, 0, 54, 39
4, 52696, Note_on_c, 0, 60, 44
4, 52720, Note_on_c, 0, 60, 0
4, 52750, Note_on_c, 0, 54, 0
4, 52752, Note_on_c, 0, 49, 0
4, 52767, Note_on_c, 0, 61, 50
4, 52768, Note_on_c, 0, 59, 55
4, 52768, Note_on_c, 0, 53, 54
4, 52845, Note_on_c, 0, 53, 0
4, 52862, Note_on_c, 0, 59, 0
4, 52865, Note_on_c, 0, 61, 0
4, 52880, Note_on_c, 0, 43, 35
4, 52888, Note_on_c, 0, 43, 0
4, 52915, Note_on_c, 0, 58, 74
4, 52915, Note_on_c, 0, 63, 74
4, 52916, Note_on_c, 0, 70, 71
4, 52917, Note_on_c, 0, 59, 71
4, 52918, Note_on_c, 0, 67, 60
4, 52969, Note_on_c, 0, 67, 0
4, 52973, Note_on_c, 0, 59, 0
4, 52975, Note_on_c, 0, 58, 0
4, 52976, Note_on_c, 0, 63, 0
4, 52978, Note_on_c, 0, 70, 0
4, 52993, Note_on_c, 0, 63, 59
4, 52995, Note_on_c, 0, 56, 60
4, 52995, Note_on_c, 0, 68, 55
4, 52998, Note_on_c, 0, 59, 34
4, 53007, Note_on_c, 0, 59, 0
4, 53014, Note_on_c, 0, 68, 0
4, 53017, Note_on_c, 0, 63, 0
4, 53027, Note_on_c, 0, 56, 0
4, 53037, Note_on_c, 0, 61, 32
4, 53040, Note_on_c, 0, 55, 50
4, 53042, Note_on_c, 0, 58, 38
4, 53042, Note_on_c, 0, 68, 35
4, 53048, Note_on_c, 0, 64, 40
4, 53058, Note_on_c, 0, 66, 15
4, 53098, Note_on_c, 0, 64, 0
4, 53102, Note_on_c, 0, 61, 0
4, 53106, Note_on_c, 0, 68, 0
4, 53106, Note_on_c, 0, 58, 0
4, 53107, Note_on_c, 0, 66, 0
4, 53127, Note_on_c, 0, 54, 23
4, 53130, Note_on_c, 0, 51, 20
4, 53131, Note_on_c, 0, 55, 0
4, 53135, Note_on_c, 0, 54, 0
4, 53146, Note_on_c, 0, 51, 0
4, 53150, Note_on_c, 0, 68, 60
4, 53151, Note_on_c, 0, 61, 60
4, 53151, Note_on_c, 0, 58, 60
4, 53152, Note_on_c, 0, 64, 62
4, 53211, Note_on_c, 0, 64, 0
4, 53215, Note_on_c, 0, 68, 0
4, 53220, Note_on_c, 0, 58, 0
4, 53224, Note_on_c, 0, 61, 0
4, 53230, Note_on_c, 0, 47, 70
4, 53232, Note_on_c, 0, 48, 60
4, 53237, Note_on_c, 0, 47, 0
4, 53296, Note_on_c, 0, 53, 13
4, 53344, Note_on_c, 0, 53, 0
4, 53350, Note_on_c, 0, 56, 44
4, 53368, Note_on_c, 0, 56, 0
4, 53381, Note_on_c, 0, 58, 78
4, 53475, Note_on_c, 0, 58, 0
4, 53513, Note_on_c, 0, 58, 82
4, 53526, Note_on_c, 0, 59, 31
4, 53580, Note_on_c, 0, 59, 0
4, 53592, Note_on_c, 0, 58, 0
4, 53596, Note_on_c, 0, 56, 61
4, 53603, Note_on_c, 0, 46, 34
4, 53610, Note_on_c, 0, 48, 0
4, 53615, Note_on_c, 0, 46, 0
4, 53628, Note_on_c, 0, 56, 0
4, 53637, Note_on_c, 0, 53, 56
4, 53708, Note_on_c, 0, 53, 0
4, 53724, Note_on_c, 0, 53, 37
4, 53743, Note_on_c, 0, 53, 0
4, 53745, Note_on_c, 0, 46, 50
4, 53749, Note_on_c, 0, 56, 54
4, 53762, Note_on_c, 0, 46, 0
4, 53763, Note_on_c, 0, 56, 0
4, 53763, Note_on_c, 0, 63, 68
4, 53763, Note_on_c, 0, 75, 69
4, 53834, Note_on_c, 0, 63, 0
4, 53847, Note_on_c, 0, 75, 0
4, 53862, Note_on_c, 0, 72, 34
4, 53872, Note_on_c, 0, 72, 0
4, 53886, Note_on_c, 0, 75, 71
4, 53888, Note_on_c, 0, 65, 43
4, 53889, Note_on_c, 0, 63, 58
4, 53889, Note_on_c, 0, 56, 33
4, 53889, Note_on_c, 0, 61, 52
4, 53894, Note_on_c, 0, 60, 27
4, 53951, Note_on_c, 0, 65, 0
4, 53952, Note_on_c, 0, 75, 0
4, 53952, Note_on_c, 0, 60, 0
4, 53956, Note_on_c, 0, 63, 0
4, 53960, Note_on_c, 0, 56, 0
4, 53965, Note_on_c, 0, 61, 0
4, 53972, Note_on_c, 0, 75, 53
4, 53972, Note_on_c, 0, 63, 60
4, 53977, Note_on_c, 0, 61, 35
4, 53978, Note_on_c, 0, 55, 60
4, 53986, Note_on_c, 0, 55, 0
4, 53986, Note_on_c, 0, 63, 0
4, 53995, Note_on_c, 0, 75, 0
4, 53999, Note_on_c, 0, 61, 0
4, 54092, Note_on_c, 0, 61, 72
4, 54095, Note_on_c, 0, 55, 64
4, 54096, Note_on_c, 0, 65, 60
4, 54098, Note_on_c, 0, 73, 49
4, 54098, Note_on_c, 0, 85, 69
4, 54102, Note_on_c, 0, 55, 0
4, 54103, Note_on_c, 0, 65, 0
4, 54109, Note_on_c, 0, 73, 0
4, 54111, Note_on_c, 0, 61, 0
4, 54113, Note_on_c, 0, 85, 0
4, 54135, Note_on_c, 0, 61, 82
4, 54136, Note_on_c, 0, 65, 75
4, 54137, Note_on_c, 0, 75, 71
4, 54137, Note_on_c, 0, 87, 80
4, 54137, Note_on_c, 0, 55, 75
4, 54144, Note_on_c, 0, 55, 0
4, 54144, Note_on_c, 0, 65, 0
4, 54145, Note_on_c, 0, 75, 0
4, 54150, Note_on_c, 0, 87, 0
4, 54153, Note_on_c, 0, 61, 0
4, 54210, Note_on_c, 0, 60, 75
4, 54210, Note_on_c, 0, 89, 82
4, 54211, Note_on_c, 0, 63, 73
4, 54212, Note_on_c, 0, 58, 45
4, 54214, Note_on_c, 0, 77, 71
4, 54216, Note_on_c, 0, 53, 49
4, 54236, Note_on_c, 0, 89, 0
4, 54241, Note_on_c, 0, 77, 0
4, 54249, Note_on_c, 0, 53, 0
4, 54250, Note_on_c, 0, 63, 0
4, 54255, Note_on_c, 0, 58, 0
4, 54260, Note_on_c, 0, 60, 0
4, 54278, Note_on_c, 0, 84, 62
4, 54280, Note_on_c, 0, 72, 41
4, 54280, Note_on_c, 0, 60, 54
4, 54282, Note_on_c, 0, 80, 43
4, 54283, Note_on_c, 0, 63, 53
4, 54284, Note_on_c, 0, 78, 34
4, 54284, Note_on_c, 0, 58, 38
4, 54285, Note_on_c, 0, 53, 46
4, 54286, Note_on_c, 0, 74, 31
4, 54294, Note_on_c, 0, 78, 0
4, 54313, Note_on_c, 0, 74, 0
4, 54328, Note_on_c, 0, 53, 0
4, 54332, Note_on_c, 0, 63, 0
4, 54334, Note_on_c, 0, 72, 0
4, 54336, Note_on_c, 0, 80, 0
4, 54338, Note_on_c, 0, 60, 0
4, 54338, Note_on_c, 0, 58, 0
4, 54344, Note_on_c, 0, 84, 0
4, 54368, Note_on_c, 0, 63, 65
4, 54369, Note_on_c, 0, 72, 68
4, 54370, Note_on_c, 0, 60, 71
4, 54371, Note_on_c, 0, 58, 42
4, 54373, Note_on_c, 0, 53, 55
4, 54373, Note_on_c, 0, 84, 35
4, 54375, Note_on_c, 0, 80, 35
4, 54378, Note_on_c, 0, 78, 26
4, 54395, Note_on_c, 0, 78, 0
4, 54420, Note_on_c, 0, 80, 0
4, 54426, Note_on_c, 0, 72, 0
4, 54436, Note_on_c, 0, 53, 0
4, 54437, Note_on_c, 0, 84, 0
4, 54439, Note_on_c, 0, 60, 0
4, 54440, Note_on_c, 0, 63, 0
4, 54445, Note_on_c, 0, 58, 0
4, 54565, Note_on_c, 0, 63, 58
4, 54566, Note_on_c, 0, 60, 59
4, 54569, Note_on_c, 0, 58, 37
4, 54574, Note_on_c, 0, 60, 0
4, 54576, Note_on_c, 0, 63, 0
4, 54590, Note_on_c, 0, 58, 0
4, 54685, Note_on_c, 0, 63, 78
4, 54686, Note_on_c, 0, 78, 83
4, 54686, Note_on_c, 0, 58, 57
4, 54686, Note_on_c, 0, 60, 68
4, 54686, Note_on_c, 0, 90, 80
4, 54687, Note_on_c, 0, 85, 85
4, 54701, Note_on_c, 0, 60, 0
4, 54713, Note_on_c, 0, 58, 0
4, 54713, Note_on_c, 0, 63, 0
4, 54718, Note_on_c, 0, 85, 0
4, 54722, Note_on_c, 0, 90, 0
4, 54723, Note_on_c, 0, 78, 0
4, 54731, Note_on_c, 0, 60, 70
4, 54731, Note_on_c, 0, 65, 74
4, 54733, Note_on_c, 0, 61, 42
4, 54733, Note_on_c, 0, 89, 71
4, 54734, Note_on_c, 0, 56, 49
4, 54735, Note_on_c, 0, 84, 56
4, 54736, Note_on_c, 0, 77, 45
4, 54784, Note_on_c, 0, 77, 0
4, 54784, Note_on_c, 0, 89, 0
4, 54793, Note_on_c, 0, 65, 0
4, 54794, Note_on_c, 0, 56, 0
4, 54796, Note_on_c, 0, 84, 0
4, 54798, Note_on_c, 0, 60, 0
4, 54799, Note_on_c, 0, 61, 0
4, 54813, Note_on_c, 0, 90, 71
4, 54813, Note_on_c, 0, 56, 58
4, 54813, Note_on_c, 0, 61, 65
4, 54814, Note_on_c, 0, 60, 71
4, 54814, Note_on_c, 0, 65, 71
4, 54814, Note_on_c, 0, 78, 64
4, 54815, Note_on_c, 0, 84, 56
4, 54819, Note_on_c, 0, 87, 39
4, 54827, Note_on_c, 0, 87, 0
4, 54840, Note_on_c, 0, 84, 0
4, 54844, Note_on_c, 0, 65, 0
4, 54846, Note_on_c, 0, 90, 0
4, 54847, Note_on_c, 0, 78, 0
4, 54853, Note_on_c, 0, 65, 44
4, 54860, Note_on_c, 0, 79, 52
4, 54861, Note_on_c, 0, 87, 37
4, 54862, Note_on_c, 0, 91, 49
4, 54863, Note_on_c, 0, 84, 45
4, 54869, Note_on_c, 0, 89, 30
4, 54877, Note_on_c, 0, 89, 0
4, 54880, Note_on_c, 0, 91, 0
4, 54884, Note_on_c, 0, 79, 0
4, 54886, Note_on_c, 0, 84, 0
4, 54890, Note_on_c, 0, 65, 0
4, 54892, Note_on_c, 0, 87, 0
4, 54894, Note_on_c, 0, 56, 0
4, 54899, Note_on_c, 0, 60, 0
4, 54904, Note_on_c, 0, 61, 0
4, 54934, Note_on_c, 0, 56, 62
4, 54937, Note_on_c, 0, 65, 59
4, 54937, Note_on_c, 0, 80, 68
4, 54938, Note_on_c, 0, 92, 75
4, 54938, Note_on_c, 0, 61, 34
4, 54945, Note_on_c, 0, 65, 0
4, 54956, Note_on_c, 0, 80, 0
4, 54958, Note_on_c, 0, 92, 0
4, 54960, Note_on_c, 0, 56, 0
4, 54961, Note_on_c, 0, 61, 0
4, 54982, Note_on_c, 0, 94, 75
4, 54982, Note_on_c, 0, 55, 76
4, 54982, Note_on_c, 0, 65, 72
4, 54983, Note_on_c, 0, 82, 59
4, 54983, Note_on_c, 0, 61, 50
4, 55012, Note_on_c, 0, 94, 0
4, 55022, Note_on_c, 0, 82, 0
4, 55028, Note_on_c, 0, 65, 0
4, 55029, Note_on_c, 0, 55, 0
4, 55037, Note_on_c, 0, 61, 0
4, 55056, Note_on_c, 0, 78, 67
4, 55058, Note_on_c, 0, 85, 59
4, 55059, Note_on_c, 0, 61, 70
4, 55060, Note_on_c, 0, 55, 79
4, 55060, Note_on_c, 0, 91, 71
4, 55061, Note_on_c, 0, 65, 78
4, 55067, Note_on_c, 0, 78, 0
4, 55067, Note_on_c, 0, 89, 30
4, 55069, Note_on_c, 0, 79, 48
4, 55082, Note_on_c, 0, 89, 0
4, 55083, Note_on_c, 0, 91, 0
4, 55085, Note_on_c, 0, 79, 0
4, 55089, Note_on_c, 0, 55, 0
4, 55090, Note_on_c, 0, 85, 0
4, 55091, Note_on_c, 0, 65, 0
4, 55101, Note_on_c, 0, 61, 0
4, 55114, Note_on_c, 0, 75, 63
4, 55115, Note_on_c, 0, 61, 59
4, 55115, Note_on_c, 0, 87, 59
4, 55116, Note_on_c, 0, 55, 60
4, 55118, Note_on_c, 0, 65, 50
4, 55140, Note_on_c, 0, 65, 0
4, 55146, Note_on_c, 0, 87, 0
4, 55149, Note_on_c, 0, 55, 0
4, 55149, Note_on_c, 0, 75, 0
4, 55163, Note_on_c, 0, 61, 0
4, 55182, Note_on_c, 0, 60, 67
4, 55184, Note_on_c, 0, 63, 58
4, 55185, Note_on_c, 0, 58, 43
4, 55186, Note_on_c, 0, 72, 65
4, 55187, Note_on_c, 0, 84, 34
4, 55189, Note_on_c, 0, 82, 46
4, 55192, Note_on_c, 0, 53, 24
4, 55203, Note_on_c, 0, 84, 0
4, 55208, Note_on_c, 0, 82, 0
4, 55214, Note_on_c, 0, 63, 0
4, 55215, Note_on_c, 0, 72, 0
4, 55218, Note_on_c, 0, 53, 0
4, 55226, Note_on_c, 0, 60, 0
4, 55231, Note_on_c, 0, 58, 0
4, 55296, Note_on_c, 0, 54, 45
4, 55301, Note_on_c, 0, 56, 55
4, 55314, Note_on_c, 0, 54, 0
4, 55324, Note_on_c, 0, 56, 0
4, 55328, Note_on_c, 0, 70, 72
4, 55331, Note_on_c, 0, 60, 74
4, 55332, Note_on_c, 0, 63, 53
4, 55332, Note_on_c, 0, 58, 69
4, 55333, Note_on_c, 0, 67, 55
4, 55352, Note_on_c, 0, 67, 0
4, 55358, Note_on_c, 0, 60, 0
4, 55359, Note_on_c, 0, 58, 0
4, 55361, Note_on_c, 0, 70, 0
4, 55364, Note_on_c, 0, 63, 0
4, 55371, Note_on_c, 0, 67, 49
4, 55378, Note_on_c, 0, 55, 38
4, 55392, Note_on_c, 0, 67, 0
4, 55394, Note_on_c, 0, 55, 0
4, 55405, Note_on_c, 0, 68, 58
4, 55405, Note_on_c, 0, 56, 48
4, 55408, Note_on_c, 0, 60, 45
4, 55424, Note_on_c, 0, 56, 0
4, 55426, Note_on_c, 0, 60, 0
4, 55428, Note_on_c, 0, 68, 0
4, 55438, Note_on_c, 0, 70, 78
4, 55439, Note_on_c, 0, 58, 60
4, 55440, Note_on_c, 0, 60, 72
4, 55442, Note_on_c, 0, 63, 42
4, 55450, Note_on_c, 0, 63, 0
4, 55457, Note_on_c, 0, 60, 0
4, 55464, Note_on_c, 0, 58, 0
4, 55466, Note_on_c, 0, 70, 0
4, 55469, Note_on_c, 0, 55, 64
4, 55470, Note_on_c, 0, 67, 62
4, 55492, Note_on_c, 0, 67, 0
4, 55496, Note_on_c, 0, 55, 0
4, 55504, Note_on_c, 0, 63, 40
4, 55514, Note_on_c, 0, 53, 27
4, 55528, Note_on_c, 0, 63, 0
4, 55542, Note_on_c, 0, 53, 0
4, 55556, Note_on_c, 0, 67, 77
4, 55557, Note_on_c, 0, 55, 58
4, 55578, Note_on_c, 0, 55, 0
4, 55588, Note_on_c, 0, 63, 51
4, 55589, Note_on_c, 0, 67, 0
4, 55609, Note_on_c, 0, 63, 0
4, 55611, Note_on_c, 0, 60, 44
4, 55622, Note_on_c, 0, 60, 0
4, 55637, Note_on_c, 0, 58, 33
4, 55647, Note_on_c, 0, 58, 0
4, 55652, Note_on_c, 0, 48, 39
4, 55679, Note_on_c, 0, 48, 0
4, 55684, Note_on_c, 0, 50, 41
4, 55692, Note_on_c, 0, 50, 0
4, 55693, Note_on_c, 0, 53, 52
4, 55694, Note_on_c, 0, 64, 70
4, 55696, Note_on_c, 0, 57, 53
4, 55696, Note_on_c, 0, 52, 62
4, 55718, Note_on_c, 0, 64, 0
4, 55722, Note_on_c, 0, 57, 0
4, 55724, Note_on_c, 0, 53, 0
4, 55735, Note_on_c, 0, 52, 0
4, 55738, Note_on_c, 0, 51, 55
4, 55739, Note_on_c, 0, 63, 68
4, 55739, Note_on_c, 0, 57, 56
4, 55740, Note_on_c, 0, 53, 55
4, 55758, Note_on_c, 0, 63, 0
4, 55759, Note_on_c, 0, 53, 0
4, 55760, Note_on_c, 0, 57, 0
4, 55767, Note_on_c, 0, 51, 0
4, 55776, Note_on_c, 0, 62, 65
4, 55778, Note_on_c, 0, 50, 53
4, 55778, Note_on_c, 0, 57, 44
4, 55780, Note_on_c, 0, 53, 26
4, 55800, Note_on_c, 0, 57, 0
4, 55801, Note_on_c, 0, 62, 0
4, 55802, Note_on_c, 0, 53, 0
4, 55808, Note_on_c, 0, 50, 0
4, 55817, Note_on_c, 0, 60, 52
4, 55819, Note_on_c, 0, 57, 38
4, 55821, Note_on_c, 0, 48, 53
4, 55871, Note_on_c, 0, 48, 0
4, 55873, Note_on_c, 0, 57, 0
4, 55884, Note_on_c, 0, 60, 0
4, 55890, Note_on_c, 0, 45, 53
4, 55897, Note_on_c, 0, 45, 0
4, 55924, Note_on_c, 0, 53, 48
4, 55925, Note_on_c, 0, 59, 54
4, 55932, Note_on_c, 0, 43, 36
4, 55977, Note_on_c, 0, 53, 0
4, 55996, Note_on_c, 0, 59, 0
4, 55998, Note_on_c, 0, 56, 62
4, 55999, Note_on_c, 0, 53, 58
4, 56006, Note_on_c, 0, 53, 0
4, 56006, Note_on_c, 0, 50, 62
4, 56007, Note_on_c, 0, 43, 0
4, 56014, Note_on_c, 0, 56, 0
4, 56015, Note_on_c, 0, 50, 0
4, 56066, Note_on_c, 0, 72, 19
4, 56075, Note_on_c, 0, 72, 0
4, 56096, Note_on_c, 0, 56, 1
4, 56112, Note_on_c, 0, 56, 0
4, 56112, Note_on_c, 0, 58, 60
4, 56118, Note_on_c, 0, 59, 81
4, 56120, Note_on_c, 0, 74, 85
4, 56120, Note_on_c, 0, 68, 90
4, 56120, Note_on_c, 0, 70, 62
4, 56122, Note_on_c, 0, 58, 0
4, 56122, Note_on_c, 0, 65, 94
4, 56122, Note_on_c, 0, 57, 76
4, 56124, Note_on_c, 0, 72, 65
4, 56127, Note_on_c, 0, 71, 40
4, 56129, Note_on_c, 0, 57, 0
4, 56131, Note_on_c, 0, 72, 0
4, 56134, Note_on_c, 0, 71, 0
4, 56144, Note_on_c, 0, 70, 0
4, 56148, Note_on_c, 0, 68, 0
4, 56148, Note_on_c, 0, 74, 0
4, 56151, Note_on_c, 0, 65, 0
4, 56164, Note_on_c, 0, 59, 0
4, 56185, Note_on_c, 0, 55, 54
4, 56194, Note_on_c, 0, 67, 43
4, 56202, Note_on_c, 0, 67, 0
4, 56256, Note_on_c, 0, 55, 0
4, 56291, Note_on_c, 0, 67, 53
4, 56292, Note_on_c, 0, 64, 60
4, 56293, Note_on_c, 0, 55, 52
4, 56299, Note_on_c, 0, 59, 25
4, 56321, Note_on_c, 0, 67, 0
4, 56361, Note_on_c, 0, 64, 0
4, 56372, Note_on_c, 0, 59, 0
4, 56372, Note_on_c, 0, 51, 38
4, 56376, Note_on_c, 0, 55, 0
4, 56390, Note_on_c, 0, 51, 0
4, 56400, Note_on_c, 0, 52, 49
4, 56403, Note_on_c, 0, 67, 60
4, 56405, Note_on_c, 0, 62, 62
4, 56408, Note_on_c, 0, 57, 44
4, 56428, Note_on_c, 0, 67, 0
4, 56429, Note_on_c, 0, 57, 0
4, 56432, Note_on_c, 0, 62, 0
4, 56441, Note_on_c, 0, 52, 0
4, 56442, Note_on_c, 0, 51, 42
4, 56479, Note_on_c, 0, 51, 0
4, 56481, Note_on_c, 0, 67, 57
4, 56481, Note_on_c, 0, 62, 70
4, 56483, Note_on_c, 0, 57, 62
4, 56483, Note_on_c, 0, 52, 49
4, 56526, Control_c, 0, 64, 127
4, 56528, Note_on_c, 0, 52, 0
4, 56532, Note_on_c, 0, 57, 0
4, 56546, Note_on_c, 0, 62, 0
4, 56552, Note_on_c, 0, 67, 0
4, 56645, Control_c, 0, 64, 0
4, 56652, Note_on_c, 0, 53, 62
4, 56654, Note_on_c, 0, 70, 84
4, 56654, Note_on_c, 0, 59, 68
4, 56654, Note_on_c, 0, 79, 76
4, 56655, Note_on_c, 0, 75, 71
4, 56656, Note_on_c, 0, 64, 62
4, 56663, Note_on_c, 0, 64, 0
4, 56665, Note_on_c, 0, 70, 0
4, 56669, Note_on_c, 0, 75, 0
4, 56670, Note_on_c, 0, 79, 0
4, 56671, Note_on_c, 0, 53, 0
4, 56672, Note_on_c, 0, 59, 0
4, 56734, Note_on_c, 0, 64, 68
4, 56734, Note_on_c, 0, 59, 60
4, 56735, Note_on_c, 0, 70, 81
4, 56735, Note_on_c, 0, 79, 71
4, 56736, Note_on_c, 0, 53, 54
4, 56736, Note_on_c, 0, 75, 60
4, 56744, Note_on_c, 0, 79, 0
4, 56746, Note_on_c, 0, 64, 0
4, 56746, Note_on_c, 0, 70, 0
4, 56746, Note_on_c, 0, 53, 0
4, 56746, Note_on_c, 0, 75, 0
4, 56752, Note_on_c, 0, 59, 0
4, 56902, Control_c, 0, 64, 127
4, 56998, Control_c, 0, 64, 0
4, 57006, Note_on_c, 0, 53, 68
4, 57008, Note_on_c, 0, 75, 77
4, 57008, Note_on_c, 0, 65, 60
4, 57008, Note_on_c, 0, 70, 83
4, 57008, Note_on_c, 0, 79, 76
4, 57009, Note_on_c, 0, 59, 63
4, 57026, Note_on_c, 0, 70, 0
4, 57027, Note_on_c, 0, 65, 0
4, 57029, Note_on_c, 0, 79, 0
4, 57031, Note_on_c, 0, 53, 0
4, 57032, Note_on_c, 0, 75, 0
4, 57039, Note_on_c, 0, 53, 30
4, 57042, Note_on_c, 0, 65, 41
4, 57043, Note_on_c, 0, 70, 53
4, 57044, Note_on_c, 0, 79, 68
4, 57045, Note_on_c, 0, 75, 59
4, 57054, Note_on_c, 0, 65, 0
4, 57057, Note_on_c, 0, 79, 0
4, 57058, Note_on_c, 0, 70, 0
4, 57063, Note_on_c, 0, 75, 0
4, 57064, Note_on_c, 0, 59, 0
4, 57075, Note_on_c, 0, 53, 0
4, 57139, Note_on_c, 0, 54, 38
4, 57152, Note_on_c, 0, 54, 0
4, 57172, Note_on_c, 0, 68, 71
4, 57173, Note_on_c, 0, 58, 81
4, 57175, Note_on_c, 0, 61, 62
4, 57176, Note_on_c, 0, 64, 62
4, 57176, Note_on_c, 0, 57, 63
4, 57190, Note_on_c, 0, 58, 0
4, 57192, Note_on_c, 0, 68, 0
4, 57192, Note_on_c, 0, 61, 0
4, 57194, Note_on_c, 0, 64, 0
4, 57199, Note_on_c, 0, 57, 0
4, 57209, Note_on_c, 0, 68, 68
4, 57209, Note_on_c, 0, 58, 80
4, 57210, Note_on_c, 0, 56, 65
4, 57211, Note_on_c, 0, 61, 58
4, 57213, Note_on_c, 0, 64, 67
4, 57227, Note_on_c, 0, 64, 0
4, 57229, Note_on_c, 0, 61, 0
4, 57231, Note_on_c, 0, 58, 0
4, 57234, Note_on_c, 0, 68, 0
4, 57235, Note_on_c, 0, 56, 0
4, 57294, Note_on_c, 0, 58, 81
4, 57295, Note_on_c, 0, 55, 79
4, 57296, Note_on_c, 0, 61, 62
4, 57296, Note_on_c, 0, 64, 68
4, 57296, Note_on_c, 0, 67, 60
4, 57310, Note_on_c, 0, 58, 0
4, 57312, Note_on_c, 0, 61, 0
4, 57316, Note_on_c, 0, 64, 0
4, 57317, Note_on_c, 0, 67, 0
4, 57326, Note_on_c, 0, 61, 50
4, 57327, Note_on_c, 0, 67, 28
4, 57328, Note_on_c, 0, 58, 46
4, 57333, Note_on_c, 0, 64, 43
4, 57339, Note_on_c, 0, 58, 0
4, 57339, Note_on_c, 0, 48, 68
4, 57341, Note_on_c, 0, 61, 0
4, 57341, Note_on_c, 0, 64, 0
4, 57346, Note_on_c, 0, 48, 0
4, 57348, Note_on_c, 0, 55, 0
4, 57349, Note_on_c, 0, 67, 0
4, 57408, Note_on_c, 0, 75, 72
4, 57409, Note_on_c, 0, 63, 65
4, 57411, Note_on_c, 0, 68, 71
4, 57412, Note_on_c, 0, 64, 78
4, 57412, Note_on_c, 0, 72, 69
4, 57427, Note_on_c, 0, 64, 0
4, 57429, Note_on_c, 0, 63, 0
4, 57430, Note_on_c, 0, 75, 0
4, 57431, Note_on_c, 0, 68, 0
4, 57434, Note_on_c, 0, 72, 0
4, 57442, Note_on_c, 0, 63, 62
4, 57442, Note_on_c, 0, 75, 67
4, 57444, Note_on_c, 0, 68, 59
4, 57446, Note_on_c, 0, 64, 66
4, 57447, Note_on_c, 0, 72, 65
4, 57467, Note_on_c, 0, 68, 0
4, 57467, Note_on_c, 0, 63, 0
4, 57468, Note_on_c, 0, 72, 0
4, 57468, Note_on_c, 0, 64, 0
4, 57469, Note_on_c, 0, 75, 0
4, 57485, Note_on_c, 0, 61, 67
4, 57486, Note_on_c, 0, 73, 59
4, 57487, Note_on_c, 0, 64, 71
4, 57488, Note_on_c, 0, 68, 71
4, 57540, Note_on_c, 0, 68, 0
4, 57543, Note_on_c, 0, 61, 0
4, 57544, Note_on_c, 0, 73, 0
4, 57549, Note_on_c, 0, 64, 0
4, 57589, Note_on_c, 0, 53, 36
4, 57602, Note_on_c, 0, 53, 0
4, 57603, Note_on_c, 0, 67, 74
4, 57605, Note_on_c, 0, 55, 62
4, 57720, Note_on_c, 0, 55, 0
4, 57720, Note_on_c, 0, 67, 0
4, 57725, Note_on_c, 0, 52, 49
4, 57725, Note_on_c, 0, 64, 55
4, 57761, Note_on_c, 0, 64, 0
4, 57761, Note_on_c, 0, 65, 66
4, 57767, Note_on_c, 0, 53, 50
4, 57780, Note_on_c, 0, 52, 0
4, 57785, Note_on_c, 0, 65, 0
4, 57791, Note_on_c, 0, 53, 0
4, 57796, Note_on_c, 0, 67, 36
4, 57804, Note_on_c, 0, 55, 32
4, 57816, Note_on_c, 0, 67, 0
4, 57826, Note_on_c, 0, 68, 69
4, 57832, Note_on_c, 0, 55, 0
4, 57836, Note_on_c, 0, 56, 39
4, 57840, Note_on_c, 0, 68, 0
4, 57858, Note_on_c, 0, 56, 0
4, 57864, Note_on_c, 0, 72, 73
4, 57874, Note_on_c, 0, 60, 49
4, 57898, Note_on_c, 0, 72, 0
4, 57900, Note_on_c, 0, 60, 0
4, 57922, Note_on_c, 0, 64, 65
4, 57924, Note_on_c, 0, 76, 83
4, 57941, Note_on_c, 0, 64, 0
4, 57954, Note_on_c, 0, 76, 0
4, 57962, Note_on_c, 0, 67, 80
4, 57969, Note_on_c, 0, 79, 88
4, 58008, Note_on_c, 0, 67, 0
4, 58029, Note_on_c, 0, 79, 0
4, 58043, Note_on_c, 0, 77, 71
4, 58068, Note_on_c, 0, 77, 0
4, 58090, Note_on_c, 0, 68, 68
4, 58153, Note_on_c, 0, 68, 0
4, 58164, Note_on_c, 0, 68, 62
4, 58169, Note_on_c, 0, 63, 48
4, 58174, Note_on_c, 0, 58, 34
4, 58180, Note_on_c, 0, 68, 0
4, 58187, Note_on_c, 0, 63, 0
4, 58201, Note_on_c, 0, 58, 0
4, 58285, Note_on_c, 0, 63, 62
4, 58286, Note_on_c, 0, 58, 53
4, 58299, Note_on_c, 0, 63, 0
4, 58308, Note_on_c, 0, 58, 0
4, 58401, Note_on_c, 0, 75, 67
4, 58407, Note_on_c, 0, 78, 49
4, 58408, Note_on_c, 0, 66, 62
4, 58419, Note_on_c, 0, 66, 0
4, 58426, Note_on_c, 0, 78, 0
4, 58437, Note_on_c, 0, 75, 0
4, 58445, Note_on_c, 0, 78, 51
4, 58446, Note_on_c, 0, 66, 77
4, 58446, Note_on_c, 0, 75, 51
4, 58478, Note_on_c, 0, 79, 12
4, 58480, Note_on_c, 0, 66, 0
4, 58480, Note_on_c, 0, 67, 62
4, 58491, Note_on_c, 0, 78, 0
4, 58494, Note_on_c, 0, 75, 0
4, 58499, Note_on_c, 0, 79, 0
4, 58510, Note_on_c, 0, 67, 0
4, 58528, Note_on_c, 0, 67, 49
4, 58531, Note_on_c, 0, 75, 14
4, 58535, Note_on_c, 0, 79, 71
4, 58545, Note_on_c, 0, 60, 37
4, 58547, Note_on_c, 0, 56, 32
4, 58553, Note_on_c, 0, 67, 0
4, 58554, Note_on_c, 0, 60, 0
4, 58564, Note_on_c, 0, 75, 0
4, 58564, Note_on_c, 0, 79, 0
4, 58566, Note_on_c, 0, 56, 0
4, 58575, Note_on_c, 0, 65, 63
4, 58575, Note_on_c, 0, 77, 31
4, 58628, Note_on_c, 0, 65, 0
4, 58632, Note_on_c, 0, 77, 0
4, 58656, Note_on_c, 0, 79, 70
4, 58658, Note_on_c, 0, 67, 64
4, 58658, Note_on_c, 0, 75, 49
4, 58659, Note_on_c, 0, 72, 63
4, 58675, Note_on_c, 0, 67, 0
4, 58680, Note_on_c, 0, 79, 0
4, 58686, Note_on_c, 0, 72, 0
4, 58693, Note_on_c, 0, 75, 0
4, 58709, Note_on_c, 0, 80, 57
4, 58710, Note_on_c, 0, 68, 51
4, 58740, Note_on_c, 0, 68, 0
4, 58744, Note_on_c, 0, 80, 0
4, 58775, Note_on_c, 0, 63, 79
4, 58775, Note_on_c, 0, 70, 79
4, 58776, Note_on_c, 0, 82, 74
4, 58776, Note_on_c, 0, 58, 67
4, 58780, Note_on_c, 0, 52, 55
4, 58781, Note_on_c, 0, 80, 38
4, 58787, Note_on_c, 0, 52, 0
4, 58788, Note_on_c, 0, 80, 0
4, 58789, Note_on_c, 0, 63, 0
4, 58794, Note_on_c, 0, 70, 0
4, 58800, Note_on_c, 0, 82, 0
4, 58814, Note_on_c, 0, 58, 0
4, 58830, Note_on_c, 0, 78, 51
4, 58830, Note_on_c, 0, 72, 63
4, 58832, Note_on_c, 0, 84, 50
4, 58854, Note_on_c, 0, 78, 0
4, 58858, Note_on_c, 0, 79, 38
4, 58871, Note_on_c, 0, 72, 0
4, 58874, Note_on_c, 0, 84, 0
4, 58880, Note_on_c, 0, 79, 0
4, 58903, Note_on_c, 0, 82, 52
4, 58908, Note_on_c, 0, 83, 53
4, 58914, Note_on_c, 0, 71, 22
4, 58915, Note_on_c, 0, 83, 0
4, 58924, Note_on_c, 0, 71, 0
4, 58932, Note_on_c, 0, 82, 0
4, 58952, Note_on_c, 0, 80, 53
4, 58957, Note_on_c, 0, 68, 32
4, 58985, Note_on_c, 0, 68, 0
4, 58988, Note_on_c, 0, 80, 0
4, 59016, Note_on_c, 0, 79, 62
4, 59018, Note_on_c, 0, 67, 64
4, 59041, Note_on_c, 0, 79, 0
4, 59046, Note_on_c, 0, 67, 0
4, 59061, Note_on_c, 0, 77, 50
4, 59068, Note_on_c, 0, 65, 49
4, 59270, Note_on_c, 0, 77, 0
4, 59280, Note_on_c, 0, 63, 62
4, 59284, Note_on_c, 0, 56, 39
4, 59285, Note_on_c, 0, 65, 0
4, 59285, Note_on_c, 0, 59, 49
4, 59288, Note_on_c, 0, 53, 40
4, 59330, Note_on_c, 0, 59, 0
4, 59331, Note_on_c, 0, 63, 0
4, 59338, Note_on_c, 0, 56, 0
4, 59354, Note_on_c, 0, 53, 0
4, 59369, Note_on_c, 0, 54, 33
4, 59370, Note_on_c, 0, 56, 48
4, 59378, Note_on_c, 0, 54, 0
4, 59392, Note_on_c, 0, 56, 0
4, 59399, Note_on_c, 0, 58, 72
4, 59401, Note_on_c, 0, 63, 62
4, 59402, Note_on_c, 0, 70, 65
4, 59403, Note_on_c, 0, 59, 64
4, 59403, Note_on_c, 0, 65, 67
4, 59448, Note_on_c, 0, 59, 0
4, 59455, Note_on_c, 0, 63, 0
4, 59458, Note_on_c, 0, 58, 0
4, 59462, Note_on_c, 0, 70, 0
4, 59467, Note_on_c, 0, 65, 0
4, 59470, Note_on_c, 0, 54, 26
4, 59483, Note_on_c, 0, 54, 0
4, 59486, Note_on_c, 0, 67, 59
4, 59488, Note_on_c, 0, 58, 53
4, 59489, Note_on_c, 0, 61, 49
4, 59490, Note_on_c, 0, 65, 28
4, 59490, Note_on_c, 0, 55, 65
4, 59507, Note_on_c, 0, 58, 0
4, 59510, Note_on_c, 0, 55, 0
4, 59512, Note_on_c, 0, 65, 0
4, 59516, Note_on_c, 0, 61, 0
4, 59520, Note_on_c, 0, 67, 0
4, 59574, Note_on_c, 0, 67, 60
4, 59596, Note_on_c, 0, 67, 0
4, 59610, Note_on_c, 0, 68, 74
4, 59632, Note_on_c, 0, 68, 0
4, 59652, Note_on_c, 0, 70, 64
4, 59677, Note_on_c, 0, 70, 0
4, 59691, Note_on_c, 0, 72, 47
4, 59709, Note_on_c, 0, 72, 0
4, 59731, Note_on_c, 0, 73, 68
4, 59732, Note_on_c, 0, 64, 78
4, 59733, Note_on_c, 0, 63, 60
4, 59735, Note_on_c, 0, 68, 54
4, 59760, Note_on_c, 0, 68, 0
4, 59762, Note_on_c, 0, 64, 0
4, 59764, Note_on_c, 0, 63, 0
4, 59767, Note_on_c, 0, 73, 0
4, 59772, Note_on_c, 0, 72, 56
4, 59773, Note_on_c, 0, 61, 35
4, 59787, Note_on_c, 0, 70, 27
4, 59792, Note_on_c, 0, 72, 0
4, 59797, Note_on_c, 0, 70, 0
4, 59805, Note_on_c, 0, 61, 0
4, 59816, Note_on_c, 0, 75, 80
4, 59818, Note_on_c, 0, 63, 62
4, 59818, Note_on_c, 0, 68, 63
4, 59818, Note_on_c, 0, 64, 71
4, 59820, Note_on_c, 0, 70, 50
4, 59843, Note_on_c, 0, 70, 0
4, 59848, Note_on_c, 0, 75, 0
4, 59849, Note_on_c, 0, 68, 0
4, 59850, Note_on_c, 0, 64, 0
4, 59853, Note_on_c, 0, 63, 0
4, 59856, Note_on_c, 0, 61, 42
4, 59857, Note_on_c, 0, 73, 39
4, 59860, Note_on_c, 0, 64, 29
4, 59863, Note_on_c, 0, 70, 36
4, 59873, Note_on_c, 0, 70, 0
4, 59879, Note_on_c, 0, 64, 0
4, 59880, Note_on_c, 0, 73, 0
4, 59884, Note_on_c, 0, 61, 0
4, 59906, Note_on_c, 0, 72, 64
4, 59908, Note_on_c, 0, 64, 56
4, 59909, Note_on_c, 0, 60, 61
4, 59910, Note_on_c, 0, 67, 46
4, 59925, Note_on_c, 0, 67, 0
4, 59925, Note_on_c, 0, 72, 0
4, 59931, Note_on_c, 0, 64, 0
4, 59934, Note_on_c, 0, 60, 0
4, 59945, Note_on_c, 0, 70, 59
4, 59947, Note_on_c, 0, 58, 45
4, 59963, Note_on_c, 0, 70, 0
4, 59976, Note_on_c, 0, 58, 0
4, 60065, Note_on_c, 0, 53, 60
4, 60066, Note_on_c, 0, 64, 63
4, 60100, Note_on_c, 0, 53, 0
4, 60105, Note_on_c, 0, 56, 64
4, 60106, Note_on_c, 0, 64, 0
4, 60108, Note_on_c, 0, 67, 76
4, 60108, Note_on_c, 0, 65, 59
4, 60109, Note_on_c, 0, 60, 53
4, 60110, Note_on_c, 0, 55, 69
4, 60115, Note_on_c, 0, 65, 0
4, 60131, Note_on_c, 0, 67, 0
4, 60136, Note_on_c, 0, 56, 0
4, 60142, Note_on_c, 0, 60, 0
4, 60150, Note_on_c, 0, 55, 0
4, 60152, Note_on_c, 0, 66, 70
4, 60153, Note_on_c, 0, 54, 59
4, 60154, Note_on_c, 0, 56, 47
4, 60160, Note_on_c, 0, 60, 59
4, 60178, Note_on_c, 0, 66, 0
4, 60180, Note_on_c, 0, 56, 0
4, 60184, Note_on_c, 0, 54, 0
4, 60192, Note_on_c, 0, 53, 44
4, 60192, Note_on_c, 0, 65, 59
4, 60214, Note_on_c, 0, 65, 0
4, 60219, Note_on_c, 0, 53, 0
4, 60222, Note_on_c, 0, 60, 0
4, 60325, Note_on_c, 0, 54, 62
4, 60326, Note_on_c, 0, 51, 62
4, 60326, Note_on_c, 0, 63, 55
4, 60328, Note_on_c, 0, 60, 59
4, 60348, Note_on_c, 0, 54, 0
4, 60352, Note_on_c, 0, 60, 0
4, 60357, Note_on_c, 0, 63, 0
4, 60357, Note_on_c, 0, 51, 0
4, 60361, Note_on_c, 0, 53, 60
4, 60362, Note_on_c, 0, 65, 62
4, 60364, Note_on_c, 0, 54, 45
4, 60365, Note_on_c, 0, 60, 28
4, 60380, Note_on_c, 0, 65, 0
4, 60380, Note_on_c, 0, 53, 0
4, 60381, Note_on_c, 0, 54, 0
4, 60391, Note_on_c, 0, 60, 0
4, 60408, Note_on_c, 0, 50, 35
4, 60410, Note_on_c, 0, 54, 32
4, 60414, Note_on_c, 0, 62, 62
4, 60423, Note_on_c, 0, 54, 0
4, 60440, Note_on_c, 0, 50, 0
4, 60442, Note_on_c, 0, 54, 42
4, 60453, Note_on_c, 0, 62, 0
4, 60459, Note_on_c, 0, 54, 0
4, 60506, Note_on_c, 0, 49, 61
4, 60520, Note_on_c, 0, 49, 0
4, 60577, Note_on_c, 0, 58, 57
4, 60580, Note_on_c, 0, 70, 76
4, 60584, Note_on_c, 0, 63, 63
4, 60585, Note_on_c, 0, 59, 64
4, 60604, Note_on_c, 0, 59, 0
4, 60604, Note_on_c, 0, 58, 0
4, 60605, Note_on_c, 0, 70, 0
4, 60606, Note_on_c, 0, 63, 0
4, 60620, Note_on_c, 0, 56, 48
4, 60622, Note_on_c, 0, 68, 53
4, 60624, Note_on_c, 0, 63, 42
4, 60627, Note_on_c, 0, 59, 36
4, 60659, Note_on_c, 0, 68, 0
4, 60664, Note_on_c, 0, 59, 0
4, 60674, Note_on_c, 0, 63, 0
4, 60692, Note_on_c, 0, 49, 54
4, 60702, Note_on_c, 0, 56, 0
4, 60713, Note_on_c, 0, 49, 0
4, 60729, Note_on_c, 0, 58, 62
4, 60729, Note_on_c, 0, 68, 63
4, 60731, Note_on_c, 0, 61, 54
4, 60733, Note_on_c, 0, 64, 51
4, 60736, Note_on_c, 0, 57, 25
4, 60737, Note_on_c, 0, 55, 31
4, 60744, Note_on_c, 0, 57, 0
4, 60780, Note_on_c, 0, 64, 0
4, 60785, Note_on_c, 0, 58, 0
4, 60786, Note_on_c, 0, 68, 0
4, 60786, Note_on_c, 0, 61, 0
4, 60801, Note_on_c, 0, 55, 0
4, 60810, Note_on_c, 0, 48, 66
4, 60818, Note_on_c, 0, 53, 69
4, 60822, Note_on_c, 0, 55, 44
4, 60829, Note_on_c, 0, 55, 0
4, 60831, Note_on_c, 0, 48, 0
4, 60837, Note_on_c, 0, 53, 0
4, 60850, Note_on_c, 0, 56, 70
4, 60896, Note_on_c, 0, 56, 0
4, 60901, Note_on_c, 0, 58, 25
4, 60936, Note_on_c, 0, 56, 40
4, 60955, Note_on_c, 0, 56, 0
4, 60960, Note_on_c, 0, 58, 0
4, 60960, Note_on_c, 0, 53, 51
4, 60967, Note_on_c, 0, 53, 0
4, 60978, Note_on_c, 0, 58, 85
4, 60982, Note_on_c, 0, 48, 51
4, 60990, Note_on_c, 0, 48, 0
4, 61087, Note_on_c, 0, 56, 63
4, 61088, Note_on_c, 0, 58, 0
4, 61168, Note_on_c, 0, 53, 53
4, 61172, Note_on_c, 0, 56, 0
4, 61177, Note_on_c, 0, 53, 0
4, 61204, Note_on_c, 0, 58, 82
4, 61230, Note_on_c, 0, 58, 0
4, 61232, Note_on_c, 0, 59, 60
4, 61250, Note_on_c, 0, 58, 48
4, 61258, Note_on_c, 0, 59, 0
4, 61279, Note_on_c, 0, 58, 0
4, 61281, Note_on_c, 0, 56, 40
4, 61307, Note_on_c, 0, 53, 52
4, 61311, Note_on_c, 0, 56, 0
4, 61322, Note_on_c, 0, 53, 0
4, 61331, Note_on_c, 0, 58, 91
4, 61408, Note_on_c, 0, 56, 83
4, 61480, Note_on_c, 0, 56, 0
4, 61480, Note_on_c, 0, 58, 0
4, 61482, Note_on_c, 0, 51, 51
4, 61489, Note_on_c, 0, 51, 0
4, 61492, Note_on_c, 0, 52, 51
4, 61514, Note_on_c, 0, 52, 0
4, 61528, Note_on_c, 0, 55, 80
4, 61564, Note_on_c, 0, 55, 0
4, 61572, Note_on_c, 0, 52, 68
4, 61796, Note_on_c, 0, 52, 0
4, 61932, Note_on_c, 0, 56, 52
4, 61932, Note_on_c, 0, 60, 71
4, 61935, Note_on_c, 0, 50, 50
4, 61950, Note_on_c, 0, 60, 0
4, 61953, Note_on_c, 0, 50, 0
4, 61963, Note_on_c, 0, 56, 0
4, 62162, Note_on_c, 0, 63, 45
4, 62164, Note_on_c, 0, 59, 44
4, 62165, Note_on_c, 0, 56, 36
4, 62168, Note_on_c, 0, 53, 35
4, 62177, Note_on_c, 0, 53, 0
4, 62181, Note_on_c, 0, 63, 0
4, 62184, Note_on_c, 0, 59, 0
4, 62192, Note_on_c, 0, 56, 0
4, 62256, Note_on_c, 0, 59, 29
4, 62265, Note_on_c, 0, 59, 0
4, 62289, Note_on_c, 0, 67, 113
4, 62363, Note_on_c, 0, 67, 0
4, 62371, Note_on_c, 0, 68, 76
4, 62374, Note_on_c, 0, 63, 57
4, 62374, Note_on_c, 0, 58, 50
4, 62380, Note_on_c, 0, 52, 37
4, 62387, Note_on_c, 0, 63, 0
4, 62390, Note_on_c, 0, 52, 0
4, 62404, Note_on_c, 0, 58, 0
4, 62406, Note_on_c, 0, 68, 0
4, 62418, Note_on_c, 0, 67, 49
4, 62488, Note_on_c, 0, 67, 0
4, 62495, Note_on_c, 0, 65, 57
4, 62520, Note_on_c, 0, 65, 0
4, 62532, Note_on_c, 0, 60, 44
4, 62623, Note_on_c, 0, 60, 0
4, 62655, Note_on_c, 0, 60, 51
4, 62701, Note_on_c, 0, 60, 0
4, 62769, Note_on_c, 0, 63, 56
4, 62769, Note_on_c, 0, 59, 48
4, 62772, Note_on_c, 0, 53, 47
4, 62802, Note_on_c, 0, 53, 0
4, 62810, Note_on_c, 0, 59, 0
4, 62824, Note_on_c, 0, 63, 0
4, 62890, Note_on_c, 0, 64, 43
4, 62892, Note_on_c, 0, 54, 37
4, 62893, Note_on_c, 0, 59, 44
4, 63002, Note_on_c, 0, 64, 0
4, 63010, Note_on_c, 0, 59, 0
4, 63011, Note_on_c, 0, 71, 67
4, 63017, Note_on_c, 0, 54, 0
4, 63093, Note_on_c, 0, 82, 90
4, 63103, Note_on_c, 0, 71, 0
4, 63145, Note_on_c, 0, 82, 0
4, 63166, Note_on_c, 0, 80, 71
4, 63202, Note_on_c, 0, 80, 0
4, 63215, Note_on_c, 0, 75, 74
4, 63219, Note_on_c, 0, 64, 56
4, 63222, Note_on_c, 0, 59, 45
4, 63229, Note_on_c, 0, 64, 0
4, 63241, Note_on_c, 0, 59, 0
4, 63253, Note_on_c, 0, 75, 0
4, 63266, Note_on_c, 0, 71, 49
4, 63318, Note_on_c, 0, 71, 0
4, 63332, Note_on_c, 0, 70, 72
4, 63332, Note_on_c, 0, 61, 64
4, 63336, Note_on_c, 0, 53, 54
4, 63341, Note_on_c, 0, 58, 34
4, 63343, Note_on_c, 0, 53, 0
4, 63349, Note_on_c, 0, 61, 0
4, 63361, Note_on_c, 0, 70, 0
4, 63372, Note_on_c, 0, 58, 0
4, 63378, Note_on_c, 0, 68, 63
4, 63410, Note_on_c, 0, 68, 0
4, 63420, Note_on_c, 0, 70, 43
4, 63437, Note_on_c, 0, 68, 54
4, 63453, Note_on_c, 0, 70, 0
4, 63459, Note_on_c, 0, 67, 48
4, 63462, Note_on_c, 0, 68, 0
4, 63469, Note_on_c, 0, 61, 32
4, 63478, Note_on_c, 0, 61, 0
4, 63478, Note_on_c, 0, 58, 35
4, 63484, Note_on_c, 0, 67, 0
4, 63498, Note_on_c, 0, 65, 74
4, 63503, Note_on_c, 0, 58, 0
4, 63566, Note_on_c, 0, 65, 0
4, 63571, Note_on_c, 0, 62, 59
4, 63604, Note_on_c, 0, 62, 0
4, 63615, Note_on_c, 0, 63, 51
4, 63635, Note_on_c, 0, 63, 0
4, 63649, Note_on_c, 0, 64, 44
4, 63674, Note_on_c, 0, 64, 0
4, 63682, Note_on_c, 0, 70, 58
4, 63693, Note_on_c, 0, 63, 52
4, 63698, Note_on_c, 0, 58, 34
4, 63705, Note_on_c, 0, 63, 0
4, 63712, Note_on_c, 0, 70, 0
4, 63720, Note_on_c, 0, 75, 74
4, 63726, Note_on_c, 0, 58, 0
4, 63744, Note_on_c, 0, 75, 0
4, 63759, Note_on_c, 0, 73, 46
4, 63789, Note_on_c, 0, 73, 0
4, 63919, Note_on_c, 0, 60, 48
4, 63919, Note_on_c, 0, 56, 37
4, 63930, Note_on_c, 0, 60, 0
4, 63950, Note_on_c, 0, 56, 0
4, 63962, Note_on_c, 0, 67, 42
4, 63982, Note_on_c, 0, 67, 0
4, 63992, Note_on_c, 0, 68, 56
4, 64011, Note_on_c, 0, 68, 0
4, 64026, Note_on_c, 0, 72, 72
4, 64033, Note_on_c, 0, 71, 28
4, 64040, Note_on_c, 0, 71, 0
4, 64051, Note_on_c, 0, 72, 0
4, 64066, Note_on_c, 0, 74, 63
4, 64075, Note_on_c, 0, 74, 0
4, 64079, Note_on_c, 0, 65, 47
4, 64082, Note_on_c, 0, 60, 36
4, 64084, Note_on_c, 0, 54, 30
4, 64087, Note_on_c, 0, 65, 0
4, 64096, Note_on_c, 0, 60, 0
4, 64101, Note_on_c, 0, 77, 88
4, 64105, Note_on_c, 0, 54, 0
4, 64134, Note_on_c, 0, 77, 0
4, 64136, Note_on_c, 0, 75, 61
4, 64162, Note_on_c, 0, 75, 0
4, 64162, Note_on_c, 0, 72, 58
4, 64186, Note_on_c, 0, 72, 0
4, 64191, Note_on_c, 0, 60, 31
4, 64198, Note_on_c, 0, 58, 18
4, 64200, Note_on_c, 0, 60, 0
4, 64217, Note_on_c, 0, 58, 0
4, 64229, Note_on_c, 0, 65, 29
4, 64247, Note_on_c, 0, 65, 0
4, 64256, Note_on_c, 0, 63, 46
4, 64264, Note_on_c, 0, 63, 0
4, 64280, Note_on_c, 0, 62, 22
4, 64301, Note_on_c, 0, 62, 0
4, 64313, Note_on_c, 0, 59, 49
4, 64315, Note_on_c, 0, 56, 23
4, 64329, Note_on_c, 0, 56, 0
4, 64329, Note_on_c, 0, 59, 0
4, 64339, Note_on_c, 0, 70, 75
4, 64358, Note_on_c, 0, 70, 0
4, 64380, Note_on_c, 0, 68, 71
4, 64405, Note_on_c, 0, 68, 0
4, 64416, Note_on_c, 0, 63, 62
4, 64420, Note_on_c, 0, 56, 32
4, 64439, Note_on_c, 0, 56, 0
4, 64440, Note_on_c, 0, 63, 0
4, 64458, Note_on_c, 0, 59, 46
4, 64484, Note_on_c, 0, 59, 0
4, 64494, Note_on_c, 0, 58, 36
4, 64519, Note_on_c, 0, 58, 0
4, 64532, Note_on_c, 0, 56, 48
4, 64656, Note_on_c, 0, 44, 42
4, 64666, Note_on_c, 0, 44, 0
4, 64676, Note_on_c, 0, 56, 0
4, 64694, Note_on_c, 0, 55, 85
4, 64728, Note_on_c, 0, 55, 0
4, 64737, Note_on_c, 0, 56, 28
4, 64750, Note_on_c, 0, 55, 50
4, 64766, Note_on_c, 0, 56, 0
4, 64776, Note_on_c, 0, 55, 0
4, 64777, Note_on_c, 0, 53, 48
4, 64801, Note_on_c, 0, 53, 0
4, 64816, Note_on_c, 0, 52, 34
4, 64889, Note_on_c, 0, 52, 0
4, 64890, Note_on_c, 0, 55, 80
4, 64902, Note_on_c, 0, 43, 30
4, 64912, Note_on_c, 0, 43, 0
4, 64915, Note_on_c, 0, 55, 0
4, 64932, Note_on_c, 0, 49, 67
4, 65012, Note_on_c, 0, 49, 0
4, 65012, Note_on_c, 0, 43, 38
4, 65019, Note_on_c, 0, 43, 0
4, 65042, Note_on_c, 0, 48, 72
4, 65106, Note_on_c, 0, 48, 0
4, 65124, Note_on_c, 0, 51, 67
4, 65131, Note_on_c, 0, 44, 29
4, 65141, Note_on_c, 0, 44, 0
4, 65152, Note_on_c, 0, 51, 0
4, 65167, Note_on_c, 0, 52, 35
4, 65197, Note_on_c, 0, 52, 0
4, 65206, Note_on_c, 0, 55, 89
4, 65236, Note_on_c, 0, 55, 0
4, 65244, Note_on_c, 0, 52, 68
4, 65250, Note_on_c, 0, 41, 46
4, 65259, Note_on_c, 0, 41, 0
4, 65286, Note_on_c, 0, 52, 0
4, 65288, Note_on_c, 0, 53, 68
4, 65313, Note_on_c, 0, 53, 0
4, 65330, Note_on_c, 0, 55, 78
4, 65363, Note_on_c, 0, 55, 0
4, 65371, Note_on_c, 0, 56, 59
4, 65394, Note_on_c, 0, 56, 0
4, 65410, Note_on_c, 0, 60, 74
4, 65439, Note_on_c, 0, 60, 0
4, 65452, Note_on_c, 0, 64, 87
4, 65480, Note_on_c, 0, 64, 0
4, 65493, Note_on_c, 0, 56, 67
4, 65493, Note_on_c, 0, 67, 91
4, 65494, Note_on_c, 0, 60, 76
4, 65495, Note_on_c, 0, 50, 74
4, 65497, Note_on_c, 0, 66, 58
4, 65509, Note_on_c, 0, 60, 0
4, 65516, Note_on_c, 0, 50, 0
4, 65526, Note_on_c, 0, 67, 0
4, 65527, Note_on_c, 0, 66, 0
4, 65529, Note_on_c, 0, 56, 0
4, 65534, Note_on_c, 0, 64, 66
4, 65566, Note_on_c, 0, 64, 0
4, 65576, Note_on_c, 0, 65, 88
4, 65606, Note_on_c, 0, 65, 0
4, 65616, Note_on_c, 0, 67, 80
4, 65648, Note_on_c, 0, 67, 0
4, 65658, Note_on_c, 0, 68, 77
4, 65690, Note_on_c, 0, 68, 0
4, 65696, Note_on_c, 0, 69, 80
4, 65724, Note_on_c, 0, 69, 0
4, 65738, Note_on_c, 0, 63, 74
4, 65739, Note_on_c, 0, 70, 85
4, 65739, Note_on_c, 0, 59, 66
4, 65740, Note_on_c, 0, 56, 51
4, 65741, Note_on_c, 0, 53, 68
4, 65902, Note_on_c, 0, 59, 0
4, 65949, Note_on_c, 0, 53, 0
4, 65970, Note_on_c, 0, 63, 0
4, 65986, Note_on_c, 0, 56, 0
4, 66011, Note_on_c, 0, 63, 59
4, 66014, Note_on_c, 0, 58, 52
4, 66024, Note_on_c, 0, 63, 0
4, 66028, Note_on_c, 0, 58, 0
4, 66043, Note_on_c, 0, 70, 0
4, 66050, Note_on_c, 0, 72, 60
4, 66076, Note_on_c, 0, 72, 0
4, 66086, Note_on_c, 0, 73, 46
4, 66108, Note_on_c, 0, 73, 0
4, 66127, Note_on_c, 0, 75, 79
4, 66161, Note_on_c, 0, 76, 61
4, 66162, Note_on_c, 0, 75, 0
4, 66177, Note_on_c, 0, 75, 45
4, 66182, Note_on_c, 0, 76, 0
4, 66207, Note_on_c, 0, 75, 0
4, 66210, Note_on_c, 0, 73, 28
4, 66227, Note_on_c, 0, 72, 52
4, 66229, Note_on_c, 0, 73, 0
4, 66242, Note_on_c, 0, 72, 0
4, 66254, Note_on_c, 0, 75, 82
4, 66320, Note_on_c, 0, 75, 0
4, 66331, Note_on_c, 0, 73, 63
4, 66338, Note_on_c, 0, 62, 43
4, 66339, Note_on_c, 0, 56, 27
4, 66340, Note_on_c, 0, 60, 38
4, 66345, Note_on_c, 0, 62, 0
4, 66350, Note_on_c, 0, 60, 0
4, 66364, Note_on_c, 0, 56, 0
4, 66364, Note_on_c, 0, 73, 0
4, 66377, Note_on_c, 0, 72, 42
4, 66429, Note_on_c, 0, 72, 0
4, 66450, Note_on_c, 0, 70, 63
4, 66482, Note_on_c, 0, 70, 0
4, 66496, Note_on_c, 0, 68, 49
4, 66578, Note_on_c, 0, 68, 0
4, 66587, Note_on_c, 0, 59, 26
4, 66593, Note_on_c, 0, 53, 20
4, 66597, Note_on_c, 0, 59, 0
4, 66605, Note_on_c, 0, 53, 0
4, 66608, Note_on_c, 0, 66, 53
4, 66615, Note_on_c, 0, 67, 60
4, 66632, Note_on_c, 0, 66, 0
4, 66714, Note_on_c, 0, 67, 0
4, 66731, Note_on_c, 0, 65, 62
4, 66809, Note_on_c, 0, 65, 0
4, 66812, Note_on_c, 0, 64, 57
4, 66834, Note_on_c, 0, 64, 0
4, 66846, Note_on_c, 0, 65, 53
4, 66929, Note_on_c, 0, 65, 0
4, 66931, Note_on_c, 0, 53, 44
4, 66941, Note_on_c, 0, 53, 0
4, 66961, Note_on_c, 0, 67, 69
4, 66962, Note_on_c, 0, 58, 70
4, 66962, Note_on_c, 0, 63, 68
4, 66963, Note_on_c, 0, 59, 62
4, 67039, Note_on_c, 0, 67, 0
4, 67040, Note_on_c, 0, 63, 0
4, 67041, Note_on_c, 0, 58, 0
4, 67044, Note_on_c, 0, 59, 0
4, 67048, Note_on_c, 0, 53, 32
4, 67080, Note_on_c, 0, 63, 70
4, 67081, Note_on_c, 0, 67, 57
4, 67082, Note_on_c, 0, 59, 57
4, 67082, Note_on_c, 0, 58, 59
4, 67151, Note_on_c, 0, 59, 0
4, 67161, Note_on_c, 0, 63, 0
4, 67168, Note_on_c, 0, 54, 34
4, 67172, Note_on_c, 0, 58, 0
4, 67180, Note_on_c, 0, 53, 0
4, 67180, Note_on_c, 0, 67, 0
4, 67196, Note_on_c, 0, 54, 0
4, 67202, Note_on_c, 0, 55, 49
4, 67203, Note_on_c, 0, 58, 47
4, 67204, Note_on_c, 0, 65, 59
4, 67206, Note_on_c, 0, 61, 46
4, 67223, Note_on_c, 0, 55, 0
4, 67226, Note_on_c, 0, 58, 0
4, 67226, Note_on_c, 0, 61, 0
4, 67229, Note_on_c, 0, 65, 0
4, 67286, Note_on_c, 0, 70, 71
4, 67286, Note_on_c, 0, 58, 75
4, 67287, Note_on_c, 0, 65, 81
4, 67288, Note_on_c, 0, 61, 60
4, 67302, Note_on_c, 0, 58, 0
4, 67314, Note_on_c, 0, 61, 0
4, 67315, Note_on_c, 0, 65, 0
4, 67316, Note_on_c, 0, 70, 0
4, 67343, Note_on_c, 0, 72, 81
4, 67344, Note_on_c, 0, 65, 85
4, 67345, Note_on_c, 0, 61, 67
4, 67346, Note_on_c, 0, 60, 74
4, 67371, Note_on_c, 0, 60, 0
4, 67374, Note_on_c, 0, 65, 0
4, 67376, Note_on_c, 0, 61, 0
4, 67378, Note_on_c, 0, 72, 0
4, 67406, Note_on_c, 0, 61, 61
4, 67406, Note_on_c, 0, 70, 65
4, 67408, Note_on_c, 0, 58, 51
4, 67420, Note_on_c, 0, 61, 0
4, 67432, Note_on_c, 0, 58, 0
4, 67437, Note_on_c, 0, 70, 0
4, 67471, Note_on_c, 0, 73, 58
4, 67473, Note_on_c, 0, 63, 69
4, 67474, Note_on_c, 0, 68, 61
4, 67474, Note_on_c, 0, 70, 55
4, 67474, Note_on_c, 0, 64, 67
4, 67497, Note_on_c, 0, 64, 0
4, 67500, Note_on_c, 0, 68, 0
4, 67501, Note_on_c, 0, 70, 0
4, 67503, Note_on_c, 0, 73, 0
4, 67505, Note_on_c, 0, 63, 0
4, 67518, Note_on_c, 0, 75, 77
4, 67520, Note_on_c, 0, 63, 57
4, 67521, Note_on_c, 0, 68, 65
4, 67522, Note_on_c, 0, 64, 58
4, 67524, Note_on_c, 0, 70, 40
4, 67531, Note_on_c, 0, 64, 0
4, 67532, Note_on_c, 0, 70, 0
4, 67536, Note_on_c, 0, 63, 0
4, 67538, Note_on_c, 0, 68, 0
4, 67542, Note_on_c, 0, 75, 0
4, 67655, Note_on_c, 0, 67, 60
4, 67664, Note_on_c, 0, 55, 33
4, 67671, Note_on_c, 0, 67, 0
4, 67672, Note_on_c, 0, 55, 0
4, 67714, Note_on_c, 0, 67, 71
4, 67714, Note_on_c, 0, 64, 79
4, 67715, Note_on_c, 0, 72, 77
4, 67715, Note_on_c, 0, 58, 69
4, 67733, Note_on_c, 0, 58, 0
4, 67737, Note_on_c, 0, 64, 0
4, 67738, Note_on_c, 0, 67, 0
4, 67745, Note_on_c, 0, 72, 0
4, 67780, Note_on_c, 0, 72, 66
4, 67782, Note_on_c, 0, 67, 58
4, 67782, Note_on_c, 0, 58, 69
4, 67783, Note_on_c, 0, 64, 73
4, 67796, Note_on_c, 0, 72, 0
4, 67798, Note_on_c, 0, 67, 0
4, 67804, Note_on_c, 0, 58, 0
4, 67808, Note_on_c, 0, 64, 0
4, 67830, Note_on_c, 0, 70, 54
4, 67830, Note_on_c, 0, 56, 52
4, 67840, Note_on_c, 0, 60, 27
4, 67841, Note_on_c, 0, 62, 24
4, 67848, Note_on_c, 0, 62, 0
4, 67849, Note_on_c, 0, 70, 0
4, 67861, Note_on_c, 0, 60, 0
4, 67882, Note_on_c, 0, 56, 0
4, 67899, Note_on_c, 0, 55, 62
4, 67899, Note_on_c, 0, 68, 46
4, 67900, Note_on_c, 0, 63, 59
4, 67900, Note_on_c, 0, 60, 64
4, 67908, Note_on_c, 0, 68, 0
4, 67915, Note_on_c, 0, 60, 0
4, 67917, Note_on_c, 0, 63, 0
4, 67926, Note_on_c, 0, 55, 0
4, 67959, Note_on_c, 0, 65, 68
4, 67960, Note_on_c, 0, 60, 64
4, 67963, Note_on_c, 0, 54, 50
4, 68023, Note_on_c, 0, 60, 0
4, 68026, Note_on_c, 0, 54, 0
4, 68026, Note_on_c, 0, 65, 0
4, 68054, Note_on_c, 0, 54, 50
4, 68055, Note_on_c, 0, 60, 44
4, 68056, Note_on_c, 0, 49, 37
4, 68056, Note_on_c, 0, 63, 44
4, 68090, Note_on_c, 0, 60, 0
4, 68111, Note_on_c, 0, 63, 0
4, 68111, Note_on_c, 0, 49, 0
4, 68121, Note_on_c, 0, 54, 0
4, 68133, Note_on_c, 0, 62, 59
4, 68134, Note_on_c, 0, 58, 51
4, 68136, Note_on_c, 0, 53, 58
4, 68138, Note_on_c, 0, 43, 41
4, 68141, Note_on_c, 0, 50, 28
4, 68156, Note_on_c, 0, 53, 0
4, 68171, Note_on_c, 0, 62, 0
4, 68175, Note_on_c, 0, 58, 0
4, 68178, Note_on_c, 0, 43, 0
4, 68180, Control_c, 0, 64, 127
4, 68188, Note_on_c, 0, 50, 0
4, 68253, Note_on_c, 0, 70, 64
4, 68254, Control_c, 0, 64, 0
4, 68254, Note_on_c, 0, 63, 69
4, 68255, Note_on_c, 0, 58, 72
4, 68255, Note_on_c, 0, 67, 65
4, 68258, Note_on_c, 0, 55, 62
4, 68277, Note_on_c, 0, 67, 0
4, 68280, Note_on_c, 0, 70, 0
4, 68287, Note_on_c, 0, 58, 0
4, 68288, Note_on_c, 0, 63, 0
4, 68291, Note_on_c, 0, 55, 0
4, 68298, Note_on_c, 0, 53, 44
4, 68300, Note_on_c, 0, 68, 43
4, 68302, Note_on_c, 0, 58, 17
4, 68304, Note_on_c, 0, 63, 27
4, 68348, Note_on_c, 0, 63, 0
4, 68348, Note_on_c, 0, 58, 0
4, 68359, Note_on_c, 0, 68, 0
4, 68370, Note_on_c, 0, 53, 0
4, 68375, Note_on_c, 0, 55, 30
4, 68384, Note_on_c, 0, 55, 0
4, 68407, Note_on_c, 0, 68, 64
4, 68409, Note_on_c, 0, 58, 53
4, 68410, Note_on_c, 0, 61, 49
4, 68412, Note_on_c, 0, 57, 57
4, 68412, Note_on_c, 0, 64, 57
4, 68486, Note_on_c, 0, 64, 0
4, 68488, Note_on_c, 0, 57, 0
4, 68493, Note_on_c, 0, 61, 0
4, 68497, Note_on_c, 0, 51, 25
4, 68498, Note_on_c, 0, 58, 0
4, 68500, Note_on_c, 0, 68, 0
4, 68521, Note_on_c, 0, 51, 0
4, 68523, Note_on_c, 0, 61, 42
4, 68525, Note_on_c, 0, 58, 44
4, 68527, Note_on_c, 0, 55, 48
4, 68575, Note_on_c, 0, 58, 0
4, 68583, Note_on_c, 0, 61, 0
4, 68596, Note_on_c, 0, 55, 0
4, 68604, Note_on_c, 0, 60, 61
4, 68605, Note_on_c, 0, 65, 60
4, 68610, Note_on_c, 0, 53, 44
4, 68614, Note_on_c, 0, 60, 0
4, 68618, Note_on_c, 0, 53, 0
4, 68626, Note_on_c, 0, 65, 0
4, 68665, Control_c, 0, 64, 127
4, 68714, Note_on_c, 0, 53, 67
4, 68715, Note_on_c, 0, 63, 67
4, 68716, Note_on_c, 0, 72, 79
4, 68717, Note_on_c, 0, 58, 57
4, 68718, Note_on_c, 0, 68, 76
4, 68740, Note_on_c, 0, 53, 0
4, 68758, Note_on_c, 0, 58, 0
4, 68759, Note_on_c, 0, 63, 0
4, 68801, Note_on_c, 0, 68, 0
4, 68810, Note_on_c, 0, 72, 0
4, 68836, Note_on_c, 0, 70, 86
4, 68837, Note_on_c, 0, 60, 76
4, 68837, Note_on_c, 0, 55, 74
4, 68837, Note_on_c, 0, 74, 82
4, 68838, Note_on_c, 0, 65, 79
4, 68847, Note_on_c, 0, 64, 28
4, 68850, Control_c, 0, 64, 0
4, 68854, Note_on_c, 0, 64, 0
4, 68874, Control_c, 0, 64, 127
4, 68892, Note_on_c, 0, 55, 0
4, 68896, Note_on_c, 0, 60, 0
4, 68898, Note_on_c, 0, 74, 0
4, 68900, Note_on_c, 0, 65, 0
4, 68900, Note_on_c, 0, 70, 0
4, 68960, Note_on_c, 0, 75, 82
4, 68962, Note_on_c, 0, 72, 84
4, 68963, Note_on_c, 0, 66, 77
4, 68965, Note_on_c, 0, 56, 69
4, 68965, Note_on_c, 0, 61, 59
4, 68974, Control_c, 0, 64, 0
4, 68998, Control_c, 0, 64, 127
4, 69024, Note_on_c, 0, 66, 0
4, 69028, Note_on_c, 0, 56, 0
4, 69031, Note_on_c, 0, 72, 0
4, 69036, Note_on_c, 0, 75, 0
4, 69044, Note_on_c, 0, 61, 0
4, 69084, Note_on_c, 0, 61, 42
4, 69085, Note_on_c, 0, 72, 78
4, 69085, Note_on_c, 0, 77, 71
4, 69086, Note_on_c, 0, 56, 52
4, 69086, Note_on_c, 0, 60, 55
4, 69086, Control_c, 0, 64, 0
4, 69087, Note_on_c, 0, 65, 73
4, 69114, Control_c, 0, 64, 127
4, 69124, Note_on_c, 0, 65, 0
4, 69134, Note_on_c, 0, 72, 0
4, 69139, Note_on_c, 0, 77, 0
4, 69142, Note_on_c, 0, 61, 0
4, 69142, Note_on_c, 0, 56, 0
4, 69144, Note_on_c, 0, 60, 0
4, 69208, Note_on_c, 0, 56, 64
4, 69208, Note_on_c, 0, 60, 66
4, 69208, Note_on_c, 0, 61, 54
4, 69208, Note_on_c, 0, 87, 79
4, 69209, Note_on_c, 0, 65, 74
4, 69209, Note_on_c, 0, 75, 77
4, 69210, Note_on_c, 0, 82, 60
4, 69225, Control_c, 0, 64, 0
4, 69227, Note_on_c, 0, 65, 0
4, 69229, Note_on_c, 0, 75, 0
4, 69230, Note_on_c, 0, 60, 0
4, 69230, Note_on_c, 0, 56, 0
4, 69232, Note_on_c, 0, 87, 0
4, 69232, Note_on_c, 0, 82, 0
4, 69236, Note_on_c, 0, 61, 0
4, 69245, Note_on_c, 0, 56, 67
4, 69246, Note_on_c, 0, 65, 71
4, 69246, Note_on_c, 0, 61, 49
4, 69247, Note_on_c, 0, 84, 61
4, 69248, Note_on_c, 0, 89, 80
4, 69248, Note_on_c, 0, 60, 73
4, 69249, Note_on_c, 0, 77, 57
4, 69256, Note_on_c, 0, 79, 29
4, 69263, Note_on_c, 0, 79, 0
4, 69282, Note_on_c, 0, 89, 0
4, 69294, Note_on_c, 0, 77, 0
4, 69297, Note_on_c, 0, 84, 0
4, 69300, Note_on_c, 0, 56, 0
4, 69301, Note_on_c, 0, 65, 0
4, 69307, Note_on_c, 0, 60, 0
4, 69327, Note_on_c, 0, 56, 57
4, 69329, Note_on_c, 0, 65, 52
4, 69330, Note_on_c, 0, 87, 51
4, 69331, Note_on_c, 0, 75, 65
4, 69338, Note_on_c, 0, 65, 0
4, 69344, Note_on_c, 0, 75, 0
4, 69345, Note_on_c, 0, 87, 0
4, 69355, Note_on_c, 0, 61, 0
4, 69356, Note_on_c, 0, 56, 0
4, 69372, Note_on_c, 0, 72, 52
4, 69372, Note_on_c, 0, 55, 60
4, 69373, Note_on_c, 0, 78, 33
4, 69373, Note_on_c, 0, 64, 53
4, 69374, Note_on_c, 0, 61, 30
4, 69375, Note_on_c, 0, 84, 36
4, 69405, Note_on_c, 0, 78, 0
4, 69433, Note_on_c, 0, 72, 0
4, 69439, Note_on_c, 0, 84, 0
4, 69442, Note_on_c, 0, 55, 0
4, 69443, Note_on_c, 0, 64, 0
4, 69454, Note_on_c, 0, 61, 0
4, 69483, Note_on_c, 0, 82, 55
4, 69486, Note_on_c, 0, 55, 59
4, 69486, Note_on_c, 0, 61, 44
4, 69487, Note_on_c, 0, 64, 55
4, 69488, Note_on_c, 0, 70, 46
4, 69492, Note_on_c, 0, 75, 28
4, 69501, Note_on_c, 0, 75, 0
4, 69532, Note_on_c, 0, 55, 0
4, 69536, Note_on_c, 0, 64, 0
4, 69537, Note_on_c, 0, 82, 0
4, 69550, Note_on_c, 0, 70, 0
4, 69559, Note_on_c, 0, 61, 0
4, 69603, Note_on_c, 0, 75, 48
4, 69605, Note_on_c, 0, 79, 47
4, 69605, Note_on_c, 0, 63, 39
4, 69606, Note_on_c, 0, 67, 45
4, 69606, Note_on_c, 0, 60, 42
4, 69609, Note_on_c, 0, 58, 35
4, 69613, Note_on_c, 0, 53, 29
4, 69733, Control_c, 0, 64, 127
4, 69736, Note_on_c, 0, 60, 0
4, 69738, Note_on_c, 0, 67, 0
4, 69741, Note_on_c, 0, 63, 0
4, 69745, Note_on_c, 0, 58, 0
4, 69750, Note_on_c, 0, 75, 0
4, 69750, Note_on_c, 0, 53, 0
4, 69751, Note_on_c, 0, 79, 0
4, 69821, Control_c, 0, 64, 0
4, 69847, Note_on_c, 0, 53, 74
4, 69847, Note_on_c, 0, 63, 72
4, 69848, Note_on_c, 0, 87, 88
4, 69849, Note_on_c, 0, 75, 88
4, 69849, Note_on_c, 0, 58, 56
4, 69865, Note_on_c, 0, 75, 0
4, 69869, Note_on_c, 0, 87, 0
4, 69870, Note_on_c, 0, 53, 0
4, 69874, Note_on_c, 0, 63, 0
4, 69888, Note_on_c, 0, 84, 64
4, 69889, Note_on_c, 0, 72, 63
4, 69894, Note_on_c, 0, 64, 30
4, 69896, Note_on_c, 0, 72, 0
4, 69902, Note_on_c, 0, 64, 0
4, 69904, Note_on_c, 0, 84, 0
4, 69905, Note_on_c, 0, 58, 0
4, 69968, Note_on_c, 0, 94, 81
4, 69970, Note_on_c, 0, 82, 81
4, 69970, Note_on_c, 0, 65, 81
4, 69970, Note_on_c, 0, 55, 79
4, 69971, Note_on_c, 0, 60, 72
4, 69977, Note_on_c, 0, 58, 25
4, 69989, Note_on_c, 0, 58, 0
4, 69990, Note_on_c, 0, 94, 0
4, 69991, Note_on_c, 0, 65, 0
4, 69992, Note_on_c, 0, 55, 0
4, 69993, Note_on_c, 0, 82, 0
4, 70002, Note_on_c, 0, 60, 0
4, 70010, Note_on_c, 0, 65, 62
4, 70012, Note_on_c, 0, 91, 64
4, 70012, Note_on_c, 0, 55, 54
4, 70015, Note_on_c, 0, 79, 48
4, 70016, Note_on_c, 0, 60, 43
4, 70017, Note_on_c, 0, 90, 39
4, 70024, Note_on_c, 0, 60, 0
4, 70024, Note_on_c, 0, 65, 0
4, 70027, Note_on_c, 0, 90, 0
4, 70031, Note_on_c, 0, 91, 0
4, 70031, Note_on_c, 0, 79, 0
4, 70032, Note_on_c, 0, 55, 0
4, 70132, Note_on_c, 0, 65, 79
4, 70133, Note_on_c, 0, 56, 62
4, 70134, Note_on_c, 0, 89, 82
4, 70134, Note_on_c, 0, 60, 63
4, 70134, Note_on_c, 0, 61, 60
4, 70136, Note_on_c, 0, 77, 62
4, 70136, Note_on_c, 0, 84, 73
4, 70176, Note_on_c, 0, 89, 0
4, 70178, Note_on_c, 0, 84, 0
4, 70186, Note_on_c, 0, 65, 0
4, 70186, Note_on_c, 0, 77, 0
4, 70188, Note_on_c, 0, 56, 0
4, 70192, Note_on_c, 0, 60, 0
4, 70195, Note_on_c, 0, 61, 0
4, 70209, Note_on_c, 0, 61, 51
4, 70210, Note_on_c, 0, 60, 60
4, 70211, Note_on_c, 0, 84, 62
4, 70211, Note_on_c, 0, 56, 52
4, 70212, Note_on_c, 0, 65, 59
4, 70214, Note_on_c, 0, 72, 57
4, 70252, Note_on_c, 0, 65, 0
4, 70253, Note_on_c, 0, 84, 0
4, 70253, Note_on_c, 0, 72, 0
4, 70262, Note_on_c, 0, 72, 57
4, 70264, Note_on_c, 0, 65, 63
4, 70265, Note_on_c, 0, 84, 60
4, 70272, Note_on_c, 0, 72, 0
4, 70274, Note_on_c, 0, 65, 0
4, 70275, Note_on_c, 0, 60, 0
4, 70282, Note_on_c, 0, 61, 0
4, 70282, Note_on_c, 0, 84, 0
4, 70289, Note_on_c, 0, 56, 0
4, 70333, Note_on_c, 0, 61, 69
4, 70334, Note_on_c, 0, 64, 81
4, 70334, Note_on_c, 0, 55, 81
4, 70335, Note_on_c, 0, 87, 72
4, 70341, Note_on_c, 0, 88, 44
4, 70341, Note_on_c, 0, 76, 49
4, 70343, Note_on_c, 0, 89, 41
4, 70350, Note_on_c, 0, 89, 0
4, 70352, Note_on_c, 0, 76, 0
4, 70355, Note_on_c, 0, 88, 0
4, 70367, Note_on_c, 0, 87, 0
4, 70377, Note_on_c, 0, 64, 0
4, 70382, Note_on_c, 0, 61, 0
4, 70388, Note_on_c, 0, 55, 0
4, 70444, Note_on_c, 0, 61, 57
4, 70446, Note_on_c, 0, 82, 52
4, 70446, Note_on_c, 0, 55, 66
4, 70447, Note_on_c, 0, 64, 62
4, 70453, Note_on_c, 0, 80, 30
4, 70474, Note_on_c, 0, 64, 0
4, 70475, Note_on_c, 0, 80, 0
4, 70478, Note_on_c, 0, 82, 0
4, 70481, Note_on_c, 0, 55, 0
4, 70482, Note_on_c, 0, 61, 0
4, 70488, Note_on_c, 0, 70, 46
4, 70489, Note_on_c, 0, 82, 49
4, 70490, Note_on_c, 0, 55, 36
4, 70492, Note_on_c, 0, 64, 62
4, 70494, Note_on_c, 0, 61, 48
4, 70504, Note_on_c, 0, 70, 0
4, 70509, Note_on_c, 0, 64, 0
4, 70511, Note_on_c, 0, 55, 0
4, 70512, Note_on_c, 0, 82, 0
4, 70521, Note_on_c, 0, 61, 0
4, 70571, Note_on_c, 0, 60, 62
4, 70572, Note_on_c, 0, 63, 74
4, 70574, Note_on_c, 0, 87, 87
4, 70575, Note_on_c, 0, 58, 60
4, 70575, Note_on_c, 0, 75, 88
4, 70576, Note_on_c, 0, 53, 61
4, 70630, Note_on_c, 0, 87, 0
4, 70640, Note_on_c, 0, 75, 0
4, 70641, Note_on_c, 0, 53, 0
4, 70650, Note_on_c, 0, 63, 0
4, 70653, Note_on_c, 0, 60, 0
4, 70656, Note_on_c, 0, 58, 0
4, 70684, Note_on_c, 0, 80, 38
4, 70685, Note_on_c, 0, 68, 64
4, 70686, Note_on_c, 0, 63, 50
4, 70687, Note_on_c, 0, 58, 42
4, 70689, Note_on_c, 0, 60, 58
4, 70689, Note_on_c, 0, 53, 49
4, 70689, Note_on_c, 0, 78, 30
4, 70707, Note_on_c, 0, 63, 0
4, 70708, Note_on_c, 0, 68, 0
4, 70712, Note_on_c, 0, 53, 0
4, 70712, Note_on_c, 0, 78, 0
4, 70722, Note_on_c, 0, 68, 52
4, 70722, Note_on_c, 0, 63, 33
4, 70737, Note_on_c, 0, 68, 0
4, 70742, Note_on_c, 0, 63, 0
4, 70743, Note_on_c, 0, 60, 0
4, 70746, Note_on_c, 0, 80, 0
4, 70759, Note_on_c, 0, 58, 0
4, 70805, Note_on_c, 0, 84, 80
4, 70805, Note_on_c, 0, 63, 77
4, 70806, Note_on_c, 0, 60, 72
4, 70807, Note_on_c, 0, 72, 84
4, 70807, Note_on_c, 0, 53, 70
4, 70808, Note_on_c, 0, 58, 55
4, 70854, Note_on_c, 0, 84, 0
4, 70870, Note_on_c, 0, 72, 0
4, 70893, Note_on_c, 0, 63, 0
4, 70896, Note_on_c, 0, 60, 0
4, 70900, Note_on_c, 0, 53, 0
4, 70924, Note_on_c, 0, 79, 64
4, 70926, Note_on_c, 0, 67, 61
4, 70927, Note_on_c, 0, 63, 60
4, 70928, Note_on_c, 0, 60, 47
4, 70934, Note_on_c, 0, 69, 28
4, 70941, Note_on_c, 0, 69, 0
4, 70944, Note_on_c, 0, 67, 0
4, 70944, Note_on_c, 0, 63, 0
4, 70954, Note_on_c, 0, 60, 0
4, 70959, Note_on_c, 0, 67, 63
4, 70966, Note_on_c, 0, 63, 37
4, 70968, Note_on_c, 0, 79, 0
4, 70971, Note_on_c, 0, 60, 18
4, 70978, Note_on_c, 0, 67, 0
4, 70989, Note_on_c, 0, 63, 0
4, 70994, Note_on_c, 0, 60, 0
4, 71010, Note_on_c, 0, 58, 0
4, 71012, Note_on_c, 0, 79, 79
4, 71013, Note_on_c, 0, 69, 89
4, 71014, Note_on_c, 0, 72, 81
4, 71015, Note_on_c, 0, 64, 89
4, 71063, Note_on_c, 0, 79, 0
4, 71068, Note_on_c, 0, 69, 0
4, 71068, Note_on_c, 0, 72, 0
4, 71082, Note_on_c, 0, 78, 75
4, 71083, Note_on_c, 0, 69, 68
4, 71084, Note_on_c, 0, 72, 62
4, 71085, Note_on_c, 0, 63, 67
4, 71093, Note_on_c, 0, 64, 0
4, 71096, Note_on_c, 0, 69, 0
4, 71097, Note_on_c, 0, 72, 0
4, 71106, Note_on_c, 0, 78, 0
4, 71120, Note_on_c, 0, 63, 0
4, 71121, Note_on_c, 0, 69, 64
4, 71123, Note_on_c, 0, 77, 49
4, 71123, Note_on_c, 0, 62, 73
4, 71132, Note_on_c, 0, 77, 0
4, 71136, Note_on_c, 0, 69, 0
4, 71150, Note_on_c, 0, 62, 0
4, 71158, Note_on_c, 0, 76, 78
4, 71158, Note_on_c, 0, 65, 78
4, 71160, Note_on_c, 0, 61, 56
4, 71160, Note_on_c, 0, 69, 60
4, 71170, Note_on_c, 0, 69, 0
4, 71172, Note_on_c, 0, 65, 0
4, 71179, Note_on_c, 0, 76, 0
4, 71192, Note_on_c, 0, 61, 0
4, 71202, Note_on_c, 0, 72, 69
4, 71204, Note_on_c, 0, 65, 70
4, 71207, Note_on_c, 0, 60, 46
4, 71242, Note_on_c, 0, 65, 0
4, 71249, Note_on_c, 0, 60, 0
4, 71250, Note_on_c, 0, 72, 0
4, 71254, Note_on_c, 0, 65, 50
4, 71254, Note_on_c, 0, 69, 62
4, 71257, Note_on_c, 0, 57, 64
4, 71258, Note_on_c, 0, 62, 24
4, 71258, Note_on_c, 0, 60, 44
4, 71267, Note_on_c, 0, 60, 0
4, 71267, Note_on_c, 0, 62, 0
4, 71274, Note_on_c, 0, 65, 0
4, 71276, Note_on_c, 0, 69, 0
4, 71281, Note_on_c, 0, 57, 0
4, 71308, Note_on_c, 0, 70, 77
4, 71310, Note_on_c, 0, 63, 69
4, 71311, Note_on_c, 0, 59, 59
4, 71312, Note_on_c, 0, 58, 63
4, 71350, Note_on_c, 0, 63, 0
4, 71352, Note_on_c, 0, 59, 0
4, 71354, Note_on_c, 0, 70, 0
4, 71357, Note_on_c, 0, 58, 0
4, 71366, Note_on_c, 0, 68, 71
4, 71368, Note_on_c, 0, 63, 60
4, 71369, Note_on_c, 0, 59, 57
4, 71370, Note_on_c, 0, 56, 51
4, 71396, Note_on_c, 0, 59, 0
4, 71397, Note_on_c, 0, 68, 0
4, 71398, Note_on_c, 0, 63, 0
4, 71405, Note_on_c, 0, 56, 0
4, 71415, Note_on_c, 0, 59, 50
4, 71416, Note_on_c, 0, 67, 54
4, 71418, Note_on_c, 0, 63, 36
4, 71419, Note_on_c, 0, 55, 48
4, 71426, Note_on_c, 0, 63, 0
4, 71435, Note_on_c, 0, 59, 0
4, 71436, Note_on_c, 0, 67, 0
4, 71438, Note_on_c, 0, 55, 0
4, 71440, Note_on_c, 0, 66, 62
4, 71442, Note_on_c, 0, 54, 39
4, 71444, Note_on_c, 0, 63, 25
4, 71453, Note_on_c, 0, 63, 0
4, 71464, Note_on_c, 0, 66, 0
4, 71468, Note_on_c, 0, 54, 0
4, 71470, Note_on_c, 0, 53, 51
4, 71481, Note_on_c, 0, 59, 24
4, 71501, Note_on_c, 0, 53, 0
4, 71502, Note_on_c, 0, 59, 0
4, 71508, Note_on_c, 0, 49, 50
4, 71531, Note_on_c, 0, 67, 60
4, 71536, Note_on_c, 0, 57, 74
4, 71537, Note_on_c, 0, 49, 0
4, 71539, Note_on_c, 0, 52, 50
4, 71541, Note_on_c, 0, 66, 31
4, 71548, Note_on_c, 0, 66, 0
4, 71552, Note_on_c, 0, 67, 0
4, 71560, Note_on_c, 0, 57, 0
4, 71568, Note_on_c, 0, 52, 0
4, 71586, Note_on_c, 0, 56, 67
4, 71586, Note_on_c, 0, 66, 65
4, 71586, Note_on_c, 0, 61, 59
4, 71591, Note_on_c, 0, 51, 48
4, 71611, Note_on_c, 0, 66, 0
4, 71612, Note_on_c, 0, 61, 0
4, 71615, Note_on_c, 0, 56, 0
4, 71621, Note_on_c, 0, 51, 0
4, 71622, Note_on_c, 0, 67, 61
4, 71623, Note_on_c, 0, 62, 61
4, 71625, Note_on_c, 0, 57, 61
4, 71628, Note_on_c, 0, 52, 46
4, 71632, Note_on_c, 0, 62, 0
4, 71634, Note_on_c, 0, 67, 0
4, 71636, Note_on_c, 0, 52, 0
4, 71638, Note_on_c, 0, 57, 0
4, 71664, Note_on_c, 0, 64, 58
4, 71664, Note_on_c, 0, 55, 60
4, 71667, Note_on_c, 0, 48, 51
4, 71667, Note_on_c, 0, 59, 47
4, 71682, Note_on_c, 0, 59, 0
4, 71684, Note_on_c, 0, 55, 0
4, 71685, Note_on_c, 0, 48, 0
4, 71685, Note_on_c, 0, 64, 0
4, 71720, Note_on_c, 0, 56, 21
4, 71732, Note_on_c, 0, 45, 47
4, 71735, Note_on_c, 0, 59, 22
4, 71742, Note_on_c, 0, 56, 0
4, 71746, Note_on_c, 0, 45, 0
4, 71755, Note_on_c, 0, 59, 0
4, 71767, Note_on_c, 0, 50, 64
4, 71768, Note_on_c, 0, 52, 74
4, 71768, Note_on_c, 0, 62, 73
4, 71770, Note_on_c, 0, 55, 59
4, 71802, Note_on_c, 0, 55, 0
4, 71804, Note_on_c, 0, 62, 0
4, 71818, Note_on_c, 0, 52, 0
4, 71835, Note_on_c, 0, 50, 0
4, 71842, Note_on_c, 0, 49, 55
4, 71843, Note_on_c, 0, 61, 69
4, 71847, Note_on_c, 0, 55, 66
4, 71849, Note_on_c, 0, 52, 64
4, 71867, Note_on_c, 0, 52, 0
4, 71868, Note_on_c, 0, 61, 0
4, 71874, Note_on_c, 0, 49, 0
4, 71878, Note_on_c, 0, 55, 0
4, 71885, Note_on_c, 0, 60, 47
4, 71889, Note_on_c, 0, 48, 36
4, 71890, Note_on_c, 0, 55, 18
4, 71892, Note_on_c, 0, 52, 36
4, 71922, Note_on_c, 0, 52, 0
4, 71923, Note_on_c, 0, 55, 0
4, 71928, Note_on_c, 0, 60, 0
4, 71956, Note_on_c, 0, 48, 0
4, 71985, Note_on_c, 0, 51, 44
4, 71992, Note_on_c, 0, 51, 0
4, 71995, Note_on_c, 0, 67, 63
4, 71996, Note_on_c, 0, 58, 55
4, 71997, Note_on_c, 0, 63, 55
4, 71998, Note_on_c, 0, 52, 47
4, 72001, Note_on_c, 0, 57, 59
4, 72008, Control_c, 0, 64, 127
4, 72031, Note_on_c, 0, 57, 0
4, 72033, Note_on_c, 0, 52, 0
4, 72047, Note_on_c, 0, 63, 0
4, 72050, Note_on_c, 0, 67, 0
4, 72055, Note_on_c, 0, 58, 0
4, 72096, Control_c, 0, 64, 0
4, 72115, Note_on_c, 0, 67, 63
4, 72115, Note_on_c, 0, 59, 60
4, 72115, Note_on_c, 0, 79, 58
4, 72116, Note_on_c, 0, 78, 36
4, 72117, Note_on_c, 0, 49, 45
4, 72117, Note_on_c, 0, 53, 54
4, 72121, Note_on_c, 0, 67, 0
4, 72123, Note_on_c, 0, 78, 0
4, 72124, Note_on_c, 0, 59, 0
4, 72124, Note_on_c, 0, 53, 0
4, 72124, Control_c, 0, 64, 127
4, 72125, Note_on_c, 0, 79, 0
4, 72130, Note_on_c, 0, 49, 0
4, 72200, Note_on_c, 0, 63, 77
4, 72201, Note_on_c, 0, 53, 66
4, 72202, Note_on_c, 0, 56, 48
4, 72202, Note_on_c, 0, 59, 65
4, 72203, Control_c, 0, 64, 0
4, 72204, Note_on_c, 0, 72, 64
4, 72205, Note_on_c, 0, 74, 70
4, 72206, Note_on_c, 0, 86, 48
4, 72206, Note_on_c, 0, 84, 56
4, 72221, Note_on_c, 0, 74, 0
4, 72224, Note_on_c, 0, 72, 0
4, 72239, Control_c, 0, 64, 127
4, 72241, Note_on_c, 0, 86, 0
4, 72242, Note_on_c, 0, 84, 0
4, 72253, Note_on_c, 0, 53, 0
4, 72259, Note_on_c, 0, 63, 0
4, 72262, Note_on_c, 0, 59, 0
4, 72264, Note_on_c, 0, 56, 0
4, 72278, Note_on_c, 0, 63, 75
4, 72280, Note_on_c, 0, 59, 62
4, 72280, Note_on_c, 0, 79, 69
4, 72281, Note_on_c, 0, 91, 65
4, 72282, Note_on_c, 0, 56, 54
4, 72282, Note_on_c, 0, 53, 69
4, 72285, Note_on_c, 0, 89, 53
4, 72292, Note_on_c, 0, 89, 0
4, 72311, Note_on_c, 0, 79, 0
4, 72311, Note_on_c, 0, 91, 0
4, 72328, Note_on_c, 0, 53, 0
4, 72333, Note_on_c, 0, 63, 0
4, 72337, Note_on_c, 0, 59, 0
4, 72338, Note_on_c, 0, 56, 0
4, 72355, Control_c, 0, 64, 0
4, 72358, Note_on_c, 0, 63, 69
4, 72360, Note_on_c, 0, 92, 64
4, 72360, Note_on_c, 0, 59, 57
4, 72361, Note_on_c, 0, 53, 62
4, 72362, Note_on_c, 0, 56, 40
4, 72362, Note_on_c, 0, 80, 38
4, 72387, Note_on_c, 0, 92, 0
4, 72399, Note_on_c, 0, 80, 0
4, 72403, Note_on_c, 0, 59, 0
4, 72407, Note_on_c, 0, 53, 0
4, 72415, Note_on_c, 0, 56, 0
4, 72416, Note_on_c, 0, 63, 0
4, 72439, Note_on_c, 0, 94, 69
4, 72439, Note_on_c, 0, 63, 71
4, 72440, Note_on_c, 0, 59, 60
4, 72441, Note_on_c, 0, 82, 60
4, 72441, Note_on_c, 0, 56, 46
4, 72443, Note_on_c, 0, 53, 41
4, 72458, Note_on_c, 0, 63, 0
4, 72459, Note_on_c, 0, 53, 0
4, 72461, Note_on_c, 0, 59, 0
4, 72471, Note_on_c, 0, 94, 0
4, 72473, Note_on_c, 0, 56, 0
4, 72475, Note_on_c, 0, 82, 0
4, 72512, Note_on_c, 0, 92, 61
4, 72514, Note_on_c, 0, 58, 55
4, 72514, Note_on_c, 0, 63, 61
4, 72515, Note_on_c, 0, 80, 36
4, 72516, Note_on_c, 0, 87, 57
4, 72517, Note_on_c, 0, 52, 58
4, 72560, Note_on_c, 0, 52, 0
4, 72560, Note_on_c, 0, 87, 0
4, 72565, Note_on_c, 0, 80, 0
4, 72566, Note_on_c, 0, 63, 0
4, 72566, Note_on_c, 0, 92, 0
4, 72575, Note_on_c, 0, 58, 0
4, 72597, Note_on_c, 0, 92, 54
4, 72599, Note_on_c, 0, 80, 43
4, 72599, Note_on_c, 0, 63, 58
4, 72601, Note_on_c, 0, 58, 44
4, 72601, Note_on_c, 0, 87, 56
4, 72603, Note_on_c, 0, 52, 55
4, 72641, Note_on_c, 0, 52, 0
4, 72648, Note_on_c, 0, 87, 0
4, 72649, Note_on_c, 0, 92, 0
4, 72652, Note_on_c, 0, 63, 0
4, 72664, Note_on_c, 0, 80, 0
4, 72664, Note_on_c, 0, 58, 0
4, 72683, Note_on_c, 0, 91, 68
4, 72685, Note_on_c, 0, 63, 51
4, 72686, Note_on_c, 0, 79, 43
4, 72686, Note_on_c, 0, 58, 48
4, 72688, Note_on_c, 0, 52, 52
4, 72703, Note_on_c, 0, 91, 0
4, 72704, Note_on_c, 0, 79, 0
4, 72808, Note_on_c, 0, 82, 99
4, 72841, Note_on_c, 0, 63, 0
4, 72857, Note_on_c, 0, 82, 0
4, 72860, Note_on_c, 0, 83, 48
4, 72864, Note_on_c, 0, 52, 0
4, 72883, Note_on_c, 0, 82, 50
4, 72884, Note_on_c, 0, 58, 0
4, 72890, Note_on_c, 0, 83, 0
4, 72909, Note_on_c, 0, 82, 0
4, 72909, Note_on_c, 0, 80, 42
4, 72936, Note_on_c, 0, 77, 49
4, 72937, Note_on_c, 0, 80, 0
4, 72939, Note_on_c, 0, 56, 21
4, 72941, Note_on_c, 0, 60, 29
4, 72955, Note_on_c, 0, 56, 0
4, 72955, Note_on_c, 0, 77, 0
4, 72966, Note_on_c, 0, 60, 0
4, 72966, Note_on_c, 0, 82, 81
4, 73056, Note_on_c, 0, 80, 64
4, 73074, Note_on_c, 0, 82, 0
4, 73080, Note_on_c, 0, 80, 0
4, 73094, Note_on_c, 0, 77, 33
4, 73189, Note_on_c, 0, 77, 0
4, 73211, Note_on_c, 0, 56, 39
4, 73214, Note_on_c, 0, 60, 34
4, 73215, Note_on_c, 0, 72, 49
4, 73221, Note_on_c, 0, 60, 0
4, 73234, Note_on_c, 0, 56, 0
4, 73279, Note_on_c, 0, 72, 0
4, 73296, Note_on_c, 0, 72, 57
4, 73306, Note_on_c, 0, 72, 0
4, 73452, Note_on_c, 0, 63, 51
4, 73459, Note_on_c, 0, 59, 40
4, 73460, Note_on_c, 0, 56, 25
4, 73462, Note_on_c, 0, 53, 19
4, 73468, Note_on_c, 0, 59, 0
4, 73468, Note_on_c, 0, 63, 0
4, 73469, Note_on_c, 0, 53, 0
4, 73477, Note_on_c, 0, 56, 0
4, 73541, Note_on_c, 0, 77, 32
4, 73554, Note_on_c, 0, 77, 0
4, 73570, Note_on_c, 0, 80, 87
4, 73571, Note_on_c, 0, 68, 97
4, 73577, Note_on_c, 0, 78, 49
4, 73584, Note_on_c, 0, 78, 0
4, 73644, Note_on_c, 0, 68, 0
4, 73658, Note_on_c, 0, 63, 48
4, 73659, Note_on_c, 0, 80, 0
4, 73661, Note_on_c, 0, 58, 38
4, 73664, Note_on_c, 0, 63, 0
4, 73664, Note_on_c, 0, 75, 31
4, 73672, Note_on_c, 0, 75, 0
4, 73683, Note_on_c, 0, 58, 0
4, 73688, Note_on_c, 0, 82, 91
4, 73689, Note_on_c, 0, 70, 87
4, 73751, Note_on_c, 0, 82, 0
4, 73761, Note_on_c, 0, 70, 0
4, 73774, Note_on_c, 0, 80, 54
4, 73777, Note_on_c, 0, 68, 67
4, 73786, Note_on_c, 0, 52, 51
4, 73794, Note_on_c, 0, 52, 0
4, 73804, Note_on_c, 0, 80, 0
4, 73812, Note_on_c, 0, 68, 0
4, 73825, Note_on_c, 0, 79, 46
4, 73828, Note_on_c, 0, 67, 28
4, 73880, Note_on_c, 0, 67, 0
4, 73880, Note_on_c, 0, 79, 0
4, 73893, Note_on_c, 0, 77, 64
4, 73894, Note_on_c, 0, 64, 48
4, 73898, Note_on_c, 0, 60, 39
4, 73899, Note_on_c, 0, 56, 33
4, 73902, Note_on_c, 0, 64, 0
4, 73914, Note_on_c, 0, 60, 0
4, 73918, Note_on_c, 0, 56, 0
4, 73935, Note_on_c, 0, 77, 0
4, 73957, Note_on_c, 0, 72, 32
4, 74007, Note_on_c, 0, 72, 0
4, 74014, Note_on_c, 0, 68, 57
4, 74037, Note_on_c, 0, 68, 0
4, 74055, Note_on_c, 0, 67, 31
4, 74126, Note_on_c, 0, 67, 0
4, 74137, Note_on_c, 0, 70, 60
4, 74144, Note_on_c, 0, 56, 32
4, 74158, Note_on_c, 0, 56, 0
4, 74170, Note_on_c, 0, 70, 0
4, 74180, Note_on_c, 0, 68, 45
4, 74251, Note_on_c, 0, 68, 0
4, 74253, Note_on_c, 0, 64, 38
4, 74268, Note_on_c, 0, 64, 0
4, 74284, Note_on_c, 0, 66, 67
4, 74304, Note_on_c, 0, 67, 36
4, 74316, Note_on_c, 0, 66, 0
4, 74364, Note_on_c, 0, 67, 0
4, 74369, Note_on_c, 0, 59, 30
4, 74369, Note_on_c, 0, 66, 78
4, 74375, Note_on_c, 0, 56, 15
4, 74378, Note_on_c, 0, 59, 0
4, 74390, Note_on_c, 0, 65, 71
4, 74394, Note_on_c, 0, 56, 0
4, 74420, Note_on_c, 0, 66, 0
4, 74430, Note_on_c, 0, 65, 0
4, 74444, Note_on_c, 0, 63, 71
4, 74494, Note_on_c, 0, 56, 31
4, 74503, Note_on_c, 0, 63, 0
4, 74519, Note_on_c, 0, 56, 0
4, 74526, Note_on_c, 0, 61, 55
4, 74603, Note_on_c, 0, 61, 0
4, 74612, Note_on_c, 0, 59, 56
4, 74762, Note_on_c, 0, 59, 0
4, 74768, Note_on_c, 0, 58, 60
4, 74846, Note_on_c, 0, 58, 0
4, 74853, Note_on_c, 0, 57, 74
4, 74860, Note_on_c, 0, 53, 51
4, 74866, Note_on_c, 0, 43, 31
4, 74867, Note_on_c, 0, 53, 0
4, 74876, Note_on_c, 0, 43, 0
4, 74893, Note_on_c, 0, 57, 0
4, 74916, Note_on_c, 0, 56, 46
4, 74979, Note_on_c, 0, 56, 0
4, 74981, Note_on_c, 0, 54, 49
4, 75004, Note_on_c, 0, 54, 0
4, 75019, Note_on_c, 0, 55, 68
4, 75087, Note_on_c, 0, 55, 0
4, 75092, Note_on_c, 0, 48, 83
4, 75094, Note_on_c, 0, 43, 41
4, 75102, Note_on_c, 0, 43, 0
4, 75227, Note_on_c, 0, 45, 28
4, 75234, Note_on_c, 0, 45, 0
4, 75256, Note_on_c, 0, 48, 0
4, 75256, Note_on_c, 0, 49, 50
4, 75284, Note_on_c, 0, 49, 0
4, 75290, Note_on_c, 0, 51, 43
4, 75311, Note_on_c, 0, 51, 0
4, 75316, Note_on_c, 0, 52, 58
4, 75341, Note_on_c, 0, 52, 0
4, 75347, Note_on_c, 0, 55, 70
4, 75352, Note_on_c, 0, 48, 25
4, 75364, Note_on_c, 0, 48, 0
4, 75372, Note_on_c, 0, 55, 0
4, 75381, Note_on_c, 0, 52, 59
4, 75416, Note_on_c, 0, 52, 0
4, 75419, Note_on_c, 0, 53, 53
4, 75445, Note_on_c, 0, 53, 0
4, 75447, Note_on_c, 0, 55, 57
4, 75466, Note_on_c, 0, 55, 0
4, 75476, Note_on_c, 0, 56, 53
4, 75476, Note_on_c, 0, 48, 24
4, 75483, Note_on_c, 0, 48, 0
4, 75500, Note_on_c, 0, 56, 0
4, 75503, Note_on_c, 0, 53, 48
4, 75532, Note_on_c, 0, 53, 0
4, 75541, Note_on_c, 0, 55, 41
4, 75564, Note_on_c, 0, 55, 0
4, 75567, Note_on_c, 0, 56, 46
4, 75591, Note_on_c, 0, 56, 0
4, 75593, Note_on_c, 0, 58, 52
4, 75624, Note_on_c, 0, 58, 0
4, 75624, Note_on_c, 0, 55, 35
4, 75641, Note_on_c, 0, 55, 0
4, 75650, Note_on_c, 0, 56, 51
4, 75678, Note_on_c, 0, 56, 0
4, 75680, Note_on_c, 0, 58, 64
4, 75699, Note_on_c, 0, 50, 54
4, 75706, Note_on_c, 0, 58, 0
4, 75708, Note_on_c, 0, 60, 62
4, 75718, Note_on_c, 0, 50, 0
4, 75723, Note_on_c, 0, 60, 0
4, 75736, Note_on_c, 0, 56, 29
4, 75758, Note_on_c, 0, 56, 0
4, 75760, Note_on_c, 0, 58, 30
4, 75788, Note_on_c, 0, 58, 0
4, 75790, Note_on_c, 0, 60, 55
4, 75820, Note_on_c, 0, 60, 0
4, 75823, Note_on_c, 0, 62, 57
4, 75833, Note_on_c, 0, 53, 36
4, 75845, Note_on_c, 0, 62, 0
4, 75852, Note_on_c, 0, 53, 0
4, 75862, Note_on_c, 0, 59, 22
4, 75879, Note_on_c, 0, 59, 0
4, 75889, Note_on_c, 0, 61, 35
4, 75912, Note_on_c, 0, 61, 0
4, 75916, Note_on_c, 0, 63, 54
4, 75923, Note_on_c, 0, 63, 0
4, 75940, Note_on_c, 0, 65, 70
4, 75946, Note_on_c, 0, 64, 34
4, 75952, Note_on_c, 0, 63, 48
4, 75953, Note_on_c, 0, 64, 0
4, 75957, Note_on_c, 0, 59, 40
4, 75960, Note_on_c, 0, 63, 0
4, 75964, Note_on_c, 0, 65, 0
4, 75965, Note_on_c, 0, 56, 15
4, 75971, Note_on_c, 0, 66, 52
4, 75977, Note_on_c, 0, 59, 0
4, 75988, Note_on_c, 0, 56, 0
4, 75992, Note_on_c, 0, 66, 0
4, 76002, Note_on_c, 0, 67, 44
4, 76021, Note_on_c, 0, 67, 0
4, 76028, Note_on_c, 0, 68, 62
4, 76057, Note_on_c, 0, 63, 48
4, 76058, Note_on_c, 0, 68, 0
4, 76059, Note_on_c, 0, 70, 65
4, 76060, Note_on_c, 0, 58, 50
4, 76074, Note_on_c, 0, 63, 0
4, 76077, Note_on_c, 0, 70, 0
4, 76088, Note_on_c, 0, 58, 0
4, 76088, Note_on_c, 0, 72, 62
4, 76109, Note_on_c, 0, 72, 0
4, 76117, Note_on_c, 0, 73, 26
4, 76142, Note_on_c, 0, 73, 0
4, 76148, Note_on_c, 0, 75, 59
4, 76168, Note_on_c, 0, 75, 0
4, 76170, Note_on_c, 0, 48, 48
4, 76171, Note_on_c, 0, 58, 42
4, 76174, Note_on_c, 0, 76, 57
4, 76180, Note_on_c, 0, 48, 0
4, 76192, Note_on_c, 0, 58, 0
4, 76193, Note_on_c, 0, 76, 0
4, 76204, Note_on_c, 0, 78, 52
4, 76219, Note_on_c, 0, 78, 0
4, 76236, Note_on_c, 0, 79, 34
4, 76250, Note_on_c, 0, 79, 0
4, 76263, Note_on_c, 0, 82, 34
4, 76270, Note_on_c, 0, 82, 0
4, 76284, Note_on_c, 0, 60, 53
4, 76284, Note_on_c, 0, 64, 44
4, 76287, Note_on_c, 0, 56, 33
4, 76292, Note_on_c, 0, 64, 0
4, 76300, Note_on_c, 0, 60, 0
4, 76306, Note_on_c, 0, 56, 0
4, 76317, Note_on_c, 0, 84, 62
4, 76336, Note_on_c, 0, 84, 0
4, 76347, Note_on_c, 0, 88, 59
4, 76366, Note_on_c, 0, 88, 0
4, 76379, Note_on_c, 0, 91, 89
4, 76381, Note_on_c, 0, 79, 82
4, 76400, Note_on_c, 0, 79, 0
4, 76404, Note_on_c, 0, 91, 0
4, 76416, Note_on_c, 0, 91, 82
4, 76417, Note_on_c, 0, 60, 24
4, 76418, Note_on_c, 0, 79, 51
4, 76430, Note_on_c, 0, 60, 0
4, 76433, Note_on_c, 0, 79, 0
4, 76436, Note_on_c, 0, 91, 0
4, 76448, Note_on_c, 0, 91, 75
4, 76450, Note_on_c, 0, 79, 57
4, 76466, Note_on_c, 0, 79, 0
4, 76466, Note_on_c, 0, 91, 0
4, 76558, Note_on_c, 0, 63, 64
4, 76560, Note_on_c, 0, 53, 53
4, 76562, Note_on_c, 0, 58, 49
4, 76584, Note_on_c, 0, 53, 0
4, 76587, Note_on_c, 0, 63, 0
4, 76597, Note_on_c, 0, 58, 0
4, 76649, Note_on_c, 0, 63, 73
4, 76650, Note_on_c, 0, 52, 73
4, 76650, Note_on_c, 0, 58, 63
4, 76758, Note_on_c, 0, 52, 0
4, 76767, Note_on_c, 0, 58, 0
4, 76768, Note_on_c, 0, 63, 0
4, 76777, Note_on_c, 0, 88, 63
4, 76778, Note_on_c, 0, 64, 64
4, 76779, Note_on_c, 0, 89, 32
4, 76781, Note_on_c, 0, 60, 62
4, 76783, Note_on_c, 0, 56, 37
4, 76783, Note_on_c, 0, 53, 48
4, 76788, Note_on_c, 0, 89, 0
4, 76794, Note_on_c, 0, 64, 0
4, 76797, Note_on_c, 0, 88, 0
4, 76803, Note_on_c, 0, 53, 0
4, 76812, Note_on_c, 0, 56, 0
4, 76812, Note_on_c, 0, 78, 77
4, 76812, Note_on_c, 0, 90, 72
4, 76816, Note_on_c, 0, 60, 0
4, 76838, Note_on_c, 0, 88, 10
4, 76844, Note_on_c, 0, 90, 0
4, 76854, Note_on_c, 0, 78, 0
4, 76856, Note_on_c, 0, 88, 0
4, 76868, Note_on_c, 0, 77, 24
4, 76869, Note_on_c, 0, 79, 22
4, 76878, Note_on_c, 0, 77, 0
4, 76892, Note_on_c, 0, 91, 56
4, 76905, Note_on_c, 0, 79, 0
4, 76912, Note_on_c, 0, 60, 43
4, 76912, Note_on_c, 0, 56, 28
4, 76915, Note_on_c, 0, 91, 0
4, 76924, Note_on_c, 0, 60, 0
4, 76929, Note_on_c, 0, 77, 59
4, 76930, Note_on_c, 0, 89, 57
4, 76931, Note_on_c, 0, 56, 0
4, 76999, Note_on_c, 0, 89, 0
4, 76999, Note_on_c, 0, 77, 0
4, 77050, Note_on_c, 0, 56, 46
4, 77050, Note_on_c, 0, 60, 62
4, 77054, Note_on_c, 0, 91, 64
4, 77054, Note_on_c, 0, 79, 58
4, 77054, Note_on_c, 0, 50, 38
4, 77066, Note_on_c, 0, 50, 0
4, 77069, Note_on_c, 0, 60, 0
4, 77085, Note_on_c, 0, 56, 0
4, 77097, Note_on_c, 0, 91, 0
4, 77114, Note_on_c, 0, 79, 0
4, 77246, Note_on_c, 0, 63, 69
4, 77248, Note_on_c, 0, 89, 68
4, 77250, Note_on_c, 0, 53, 51
4, 77251, Note_on_c, 0, 77, 33
4, 77251, Note_on_c, 0, 59, 59
4, 77252, Note_on_c, 0, 56, 46
4, 77254, Note_on_c, 0, 79, 26
4, 77257, Note_on_c, 0, 53, 0
4, 77257, Note_on_c, 0, 63, 0
4, 77261, Note_on_c, 0, 77, 0
4, 77262, Note_on_c, 0, 79, 0
4, 77264, Note_on_c, 0, 89, 0
4, 77284, Note_on_c, 0, 59, 0
4, 77286, Note_on_c, 0, 56, 0
4, 77296, Note_on_c, 0, 80, 72
4, 77298, Note_on_c, 0, 92, 74
4, 77308, Note_on_c, 0, 90, 25
4, 77312, Note_on_c, 0, 80, 0
4, 77319, Note_on_c, 0, 92, 0
4, 77322, Note_on_c, 0, 87, 51
4, 77329, Note_on_c, 0, 90, 0
4, 77332, Note_on_c, 0, 80, 33
4, 77344, Note_on_c, 0, 87, 0
4, 77353, Note_on_c, 0, 92, 21
4, 77369, Note_on_c, 0, 87, 47
4, 77379, Note_on_c, 0, 80, 0
4, 77392, Note_on_c, 0, 92, 0
4, 77393, Note_on_c, 0, 87, 0
4, 77399, Note_on_c, 0, 63, 53
4, 77402, Note_on_c, 0, 53, 49
4, 77403, Note_on_c, 0, 56, 36
4, 77403, Note_on_c, 0, 59, 44
4, 77408, Note_on_c, 0, 79, 54
4, 77412, Note_on_c, 0, 91, 40
4, 77413, Note_on_c, 0, 89, 45
4, 77414, Note_on_c, 0, 63, 0
4, 77424, Note_on_c, 0, 53, 0
4, 77431, Note_on_c, 0, 59, 0
4, 77436, Note_on_c, 0, 89, 0
4, 77437, Note_on_c, 0, 91, 0
4, 77452, Note_on_c, 0, 79, 0
4, 77476, Note_on_c, 0, 56, 0
4, 77487, Note_on_c, 0, 92, 64
4, 77488, Note_on_c, 0, 63, 72
4, 77489, Note_on_c, 0, 58, 62
4, 77490, Note_on_c, 0, 52, 68
4, 77490, Note_on_c, 0, 80, 60
4, 77493, Note_on_c, 0, 87, 61
4, 77523, Note_on_c, 0, 80, 0
4, 77526, Note_on_c, 0, 87, 0
4, 77527, Note_on_c, 0, 52, 0
4, 77528, Note_on_c, 0, 63, 0
4, 77529, Note_on_c, 0, 92, 0
4, 77539, Note_on_c, 0, 58, 0
4, 77545, Note_on_c, 0, 63, 57
4, 77546, Note_on_c, 0, 58, 25
4, 77546, Note_on_c, 0, 94, 70
4, 77546, Note_on_c, 0, 82, 51
4, 77547, Note_on_c, 0, 52, 57
4, 77550, Note_on_c, 0, 87, 53
4, 77590, Note_on_c, 0, 87, 0
4, 77591, Note_on_c, 0, 94, 0
4, 77592, Note_on_c, 0, 52, 0
4, 77593, Note_on_c, 0, 82, 0
4, 77600, Note_on_c, 0, 63, 0
4, 77607, Note_on_c, 0, 58, 0
4, 77616, Note_on_c, 0, 92, 52
4, 77619, Note_on_c, 0, 63, 49
4, 77619, Note_on_c, 0, 87, 57
4, 77620, Note_on_c, 0, 58, 33
4, 77620, Note_on_c, 0, 52, 56
4, 77621, Note_on_c, 0, 80, 32
4, 77628, Note_on_c, 0, 80, 0
4, 77630, Note_on_c, 0, 87, 0
4, 77635, Note_on_c, 0, 92, 0
4, 77648, Note_on_c, 0, 63, 0
4, 77659, Note_on_c, 0, 52, 0
4, 77669, Note_on_c, 0, 58, 0
4, 77734, Note_on_c, 0, 64, 54
4, 77735, Note_on_c, 0, 60, 56
4, 77735, Note_on_c, 0, 56, 37
4, 77742, Note_on_c, 0, 64, 0
4, 77742, Note_on_c, 0, 53, 19
4, 77750, Note_on_c, 0, 60, 0
4, 77752, Note_on_c, 0, 53, 0
4, 77760, Note_on_c, 0, 56, 0
4, 77822, Note_on_c, 0, 76, 70
4, 77842, Note_on_c, 0, 76, 0
4, 77859, Note_on_c, 0, 79, 78
4, 77864, Note_on_c, 0, 60, 36
4, 77867, Note_on_c, 0, 56, 26
4, 77880, Note_on_c, 0, 60, 0
4, 77882, Note_on_c, 0, 79, 0
4, 77890, Note_on_c, 0, 56, 0
4, 77898, Note_on_c, 0, 77, 57
4, 77921, Note_on_c, 0, 77, 0
4, 77936, Note_on_c, 0, 72, 63
4, 77958, Note_on_c, 0, 72, 0
4, 78000, Note_on_c, 0, 68, 68
4, 78022, Note_on_c, 0, 68, 0
4, 78043, Note_on_c, 0, 72, 66
4, 78068, Note_on_c, 0, 72, 0
4, 78092, Note_on_c, 0, 70, 56
4, 78125, Note_on_c, 0, 70, 0
4, 78146, Note_on_c, 0, 67, 24
4, 78154, Note_on_c, 0, 67, 0
4, 78208, Note_on_c, 0, 65, 59
4, 78208, Note_on_c, 0, 64, 66
4, 78229, Note_on_c, 0, 65, 0
4, 78231, Note_on_c, 0, 64, 0
4, 78316, Note_on_c, 0, 64, 84
4, 78340, Note_on_c, 0, 64, 0
4, 78353, Note_on_c, 0, 66, 79
4, 78356, Note_on_c, 0, 52, 49
4, 78362, Note_on_c, 0, 58, 33
4, 78377, Note_on_c, 0, 52, 0
4, 78378, Note_on_c, 0, 66, 0
4, 78384, Note_on_c, 0, 58, 0
4, 78396, Note_on_c, 0, 65, 66
4, 78417, Note_on_c, 0, 65, 0
4, 78428, Note_on_c, 0, 63, 50
4, 78453, Note_on_c, 0, 63, 0
4, 78462, Note_on_c, 0, 59, 44
4, 78470, Note_on_c, 0, 53, 48
4, 78477, Note_on_c, 0, 53, 0
4, 78486, Note_on_c, 0, 59, 0
4, 78544, Note_on_c, 0, 56, 35
4, 78584, Note_on_c, 0, 56, 0
4, 78693, Note_on_c, 0, 44, 67
4, 78716, Note_on_c, 0, 44, 0
4, 78734, Note_on_c, 0, 53, 49
4, 78735, Note_on_c, 0, 43, 52
4, 78743, Note_on_c, 0, 53, 0
4, 78804, Note_on_c, 0, 43, 0
4, 78814, Note_on_c, 0, 61, 55
4, 78840, Note_on_c, 0, 61, 0
4, 78858, Note_on_c, 0, 65, 54
4, 78865, Note_on_c, 0, 65, 0
4, 78932, Note_on_c, 0, 63, 67
4, 78934, Note_on_c, 0, 58, 46
4, 78946, Note_on_c, 0, 63, 0
4, 78966, Note_on_c, 0, 58, 0
4, 78978, Note_on_c, 0, 87, 86
4, 78994, Note_on_c, 0, 87, 0
4, 79008, Note_on_c, 0, 85, 73
4, 79033, Note_on_c, 0, 85, 0
4, 79038, Note_on_c, 0, 82, 53
4, 79060, Note_on_c, 0, 82, 0
4, 79069, Note_on_c, 0, 76, 51
4, 79082, Note_on_c, 0, 63, 39
4, 79089, Note_on_c, 0, 58, 31
4, 79089, Note_on_c, 0, 52, 35
4, 79094, Note_on_c, 0, 76, 0
4, 79098, Note_on_c, 0, 75, 58
4, 79108, Note_on_c, 0, 63, 0
4, 79116, Note_on_c, 0, 52, 0
4, 79128, Note_on_c, 0, 73, 35
4, 79129, Note_on_c, 0, 58, 0
4, 79130, Note_on_c, 0, 75, 0
4, 79153, Note_on_c, 0, 73, 0
4, 79155, Note_on_c, 0, 72, 57
4, 79174, Note_on_c, 0, 72, 0
4, 79186, Note_on_c, 0, 70, 57
4, 79191, Note_on_c, 0, 62, 33
4, 79196, Note_on_c, 0, 56, 25
4, 79197, Note_on_c, 0, 60, 27
4, 79200, Note_on_c, 0, 62, 0
4, 79206, Note_on_c, 0, 70, 0
4, 79210, Note_on_c, 0, 60, 0
4, 79216, Note_on_c, 0, 68, 48
4, 79224, Note_on_c, 0, 56, 0
4, 79234, Note_on_c, 0, 68, 0
4, 79272, Note_on_c, 0, 65, 30
4, 79281, Note_on_c, 0, 65, 0
4, 79328, Note_on_c, 0, 67, 80
4, 79360, Note_on_c, 0, 67, 0
4, 79363, Note_on_c, 0, 68, 57
4, 79390, Note_on_c, 0, 67, 36
4, 79394, Note_on_c, 0, 68, 0
4, 79414, Note_on_c, 0, 67, 0
4, 79417, Note_on_c, 0, 65, 66
4, 79432, Note_on_c, 0, 60, 33
4, 79433, Note_on_c, 0, 54, 36
4, 79436, Note_on_c, 0, 65, 0
4, 79442, Note_on_c, 0, 60, 0
4, 79450, Note_on_c, 0, 77, 76
4, 79455, Note_on_c, 0, 54, 0
4, 79507, Note_on_c, 0, 77, 0
4, 79530, Note_on_c, 0, 75, 74
4, 79532, Note_on_c, 0, 60, 66
4, 79534, Note_on_c, 0, 54, 45
4, 79536, Note_on_c, 0, 50, 49
4, 79539, Note_on_c, 0, 60, 0
4, 79546, Note_on_c, 0, 50, 0
4, 79571, Note_on_c, 0, 54, 0
4, 79575, Note_on_c, 0, 66, 43
4, 79625, Note_on_c, 0, 66, 0
4, 79628, Note_on_c, 0, 75, 0
4, 79655, Note_on_c, 0, 65, 57
4, 79657, Note_on_c, 0, 59, 38
4, 79659, Note_on_c, 0, 53, 34
4, 79675, Note_on_c, 0, 59, 0
4, 79680, Note_on_c, 0, 65, 0
4, 79686, Note_on_c, 0, 53, 0
4, 79732, Note_on_c, 0, 66, 20
4, 79765, Note_on_c, 0, 66, 0
4, 79779, Note_on_c, 0, 54, 36
4, 79800, Note_on_c, 0, 54, 0
4, 79804, Note_on_c, 0, 70, 69
4, 79807, Note_on_c, 0, 59, 68
4, 79808, Note_on_c, 0, 63, 52
4, 79812, Note_on_c, 0, 58, 58
4, 79813, Note_on_c, 0, 67, 32
4, 79815, Note_on_c, 0, 56, 33
4, 79826, Note_on_c, 0, 56, 0
4, 79882, Note_on_c, 0, 70, 0
4, 79889, Note_on_c, 0, 59, 0
4, 79894, Note_on_c, 0, 58, 0
4, 79895, Note_on_c, 0, 63, 0
4, 79899, Note_on_c, 0, 56, 44
4, 79900, Note_on_c, 0, 67, 0
4, 79928, Note_on_c, 0, 56, 0
4, 79933, Note_on_c, 0, 70, 63
4, 79933, Note_on_c, 0, 58, 63
4, 79936, Note_on_c, 0, 59, 62
4, 79937, Note_on_c, 0, 63, 45
4, 79944, Note_on_c, 0, 67, 24
4, 79982, Note_on_c, 0, 67, 0
4, 79989, Note_on_c, 0, 63, 0
4, 79991, Note_on_c, 0, 59, 0
4, 80006, Note_on_c, 0, 70, 0
4, 80016, Note_on_c, 0, 68, 61
4, 80019, Note_on_c, 0, 63, 56
4, 80020, Note_on_c, 0, 56, 52
4, 80020, Note_on_c, 0, 59, 43
4, 80040, Note_on_c, 0, 58, 0
4, 80066, Note_on_c, 0, 56, 0
4, 80068, Control_c, 0, 64, 127
4, 80085, Note_on_c, 0, 59, 0
4, 80128, Note_on_c, 0, 63, 0
4, 80138, Control_c, 0, 64, 0
4, 80146, Note_on_c, 0, 68, 0
4, 80295, Note_on_c, 0, 84, 77
4, 80297, Note_on_c, 0, 75, 47
4, 80297, Note_on_c, 0, 79, 64
4, 80298, Note_on_c, 0, 67, 68
4, 80308, Note_on_c, 0, 79, 0
4, 80312, Note_on_c, 0, 84, 0
4, 80316, Note_on_c, 0, 67, 0
4, 80321, Note_on_c, 0, 75, 0
4, 80434, Note_on_c, 0, 76, 66
4, 80436, Note_on_c, 0, 61, 57
4, 80437, Note_on_c, 0, 70, 45
4, 80443, Note_on_c, 0, 73, 26
4, 80452, Note_on_c, 0, 70, 0
4, 80460, Note_on_c, 0, 73, 0
4, 80460, Note_on_c, 0, 76, 0
4, 80467, Note_on_c, 0, 79, 66
4, 80468, Note_on_c, 0, 70, 50
4, 80469, Note_on_c, 0, 61, 0
4, 80469, Note_on_c, 0, 64, 61
4, 80474, Note_on_c, 0, 73, 18
4, 80482, Note_on_c, 0, 73, 0
4, 80488, Note_on_c, 0, 79, 0
4, 80490, Note_on_c, 0, 70, 0
4, 80498, Note_on_c, 0, 64, 0
4, 80535, Note_on_c, 0, 68, 50
4, 80537, Note_on_c, 0, 72, 58
4, 80540, Note_on_c, 0, 58, 48
4, 80556, Note_on_c, 0, 68, 0
4, 80562, Note_on_c, 0, 72, 0
4, 80566, Note_on_c, 0, 58, 0
4, 80568, Note_on_c, 0, 75, 71
4, 80569, Note_on_c, 0, 68, 59
4, 80579, Note_on_c, 0, 60, 38
4, 80588, Note_on_c, 0, 60, 0
4, 80588, Note_on_c, 0, 68, 0
4, 80589, Note_on_c, 0, 75, 0
4, 80651, Note_on_c, 0, 68, 60
4, 80652, Note_on_c, 0, 65, 63
4, 80654, Note_on_c, 0, 58, 52
4, 80670, Note_on_c, 0, 65, 0
4, 80683, Note_on_c, 0, 58, 0
4, 80684, Note_on_c, 0, 74, 69
4, 80687, Note_on_c, 0, 65, 66
4, 80698, Note_on_c, 0, 68, 0
4, 80700, Note_on_c, 0, 74, 0
4, 80702, Note_on_c, 0, 65, 0
4, 80739, Note_on_c, 0, 70, 70
4, 80741, Note_on_c, 0, 63, 53
4, 80741, Note_on_c, 0, 67, 55
4, 80742, Note_on_c, 0, 60, 63
4, 80742, Note_on_c, 0, 58, 69
4, 80785, Note_on_c, 0, 67, 0
4, 80800, Note_on_c, 0, 60, 0
4, 80800, Note_on_c, 0, 58, 0
4, 80802, Note_on_c, 0, 70, 0
4, 80803, Note_on_c, 0, 63, 0
4, 80814, Note_on_c, 0, 67, 46
4, 80815, Note_on_c, 0, 60, 46
4, 80826, Note_on_c, 0, 60, 0
4, 80826, Note_on_c, 0, 53, 40
4, 80835, Note_on_c, 0, 67, 0
4, 80838, Note_on_c, 0, 53, 0
4, 80854, Note_on_c, 0, 51, 50
4, 80884, Note_on_c, 0, 51, 0
4, 80891, Note_on_c, 0, 67, 66
4, 80892, Note_on_c, 0, 56, 60
4, 80893, Note_on_c, 0, 55, 69
4, 80896, Note_on_c, 0, 60, 53
4, 80898, Note_on_c, 0, 63, 30
4, 80939, Note_on_c, 0, 67, 0
4, 80945, Note_on_c, 0, 60, 0
4, 80950, Note_on_c, 0, 56, 0
4, 80963, Note_on_c, 0, 63, 0
4, 80966, Note_on_c, 0, 55, 0
4, 80977, Note_on_c, 0, 66, 55
4, 80978, Note_on_c, 0, 54, 55
4, 80980, Note_on_c, 0, 56, 55
4, 80982, Note_on_c, 0, 60, 62
4, 80982, Note_on_c, 0, 63, 32
4, 81004, Note_on_c, 0, 66, 0
4, 81008, Note_on_c, 0, 54, 0
4, 81008, Note_on_c, 0, 56, 0
4, 81012, Note_on_c, 0, 60, 0
4, 81015, Note_on_c, 0, 63, 0
4, 81020, Note_on_c, 0, 60, 17
4, 81022, Note_on_c, 0, 56, 37
4, 81023, Note_on_c, 0, 65, 60
4, 81024, Note_on_c, 0, 53, 45
4, 81085, Note_on_c, 0, 60, 0
4, 81088, Note_on_c, 0, 56, 0
4, 81089, Note_on_c, 0, 65, 0
4, 81096, Note_on_c, 0, 53, 0
4, 81100, Note_on_c, 0, 50, 54
4, 81116, Note_on_c, 0, 50, 0
4, 81140, Note_on_c, 0, 49, 57
4, 81214, Note_on_c, 0, 58, 54
4, 81216, Note_on_c, 0, 68, 65
4, 81219, Note_on_c, 0, 63, 53
4, 81219, Note_on_c, 0, 59, 64
4, 81225, Note_on_c, 0, 65, 45
4, 81234, Note_on_c, 0, 65, 0
4, 81241, Note_on_c, 0, 59, 0
4, 81248, Note_on_c, 0, 68, 0
4, 81250, Note_on_c, 0, 49, 0
4, 81252, Note_on_c, 0, 58, 0
4, 81252, Note_on_c, 0, 56, 36
4, 81261, Note_on_c, 0, 65, 26
4, 81263, Note_on_c, 0, 59, 36
4, 81312, Note_on_c, 0, 59, 0
4, 81325, Note_on_c, 0, 65, 0
4, 81325, Note_on_c, 0, 56, 0
4, 81329, Note_on_c, 0, 63, 0
4, 81338, Note_on_c, 0, 54, 29
4, 81343, Note_on_c, 0, 56, 25
4, 81368, Note_on_c, 0, 54, 0
4, 81372, Note_on_c, 0, 61, 64
4, 81374, Note_on_c, 0, 70, 61
4, 81376, Note_on_c, 0, 56, 0
4, 81376, Note_on_c, 0, 58, 53
4, 81376, Note_on_c, 0, 66, 46
4, 81453, Note_on_c, 0, 58, 0
4, 81455, Note_on_c, 0, 51, 46
4, 81467, Note_on_c, 0, 54, 30
4, 81472, Note_on_c, 0, 70, 0
4, 81473, Note_on_c, 0, 66, 0
4, 81477, Note_on_c, 0, 61, 0
4, 81480, Note_on_c, 0, 54, 0
4, 81482, Note_on_c, 0, 51, 0
4, 81489, Note_on_c, 0, 56, 46
4, 81492, Note_on_c, 0, 68, 56
4, 81494, Note_on_c, 0, 63, 51
4, 81497, Note_on_c, 0, 60, 48
4, 81531, Note_on_c, 0, 68, 0
4, 81538, Note_on_c, 0, 63, 0
4, 81544, Note_on_c, 0, 60, 0
4, 81558, Note_on_c, 0, 56, 0
4, 81574, Note_on_c, 0, 60, 71
4, 81575, Note_on_c, 0, 56, 53
4, 81576, Note_on_c, 0, 52, 60
4, 81610, Note_on_c, 0, 56, 0
4, 81612, Note_on_c, 0, 60, 0
4, 81617, Note_on_c, 0, 52, 0
4, 81623, Note_on_c, 0, 67, 66
4, 81624, Note_on_c, 0, 56, 51
4, 81628, Note_on_c, 0, 55, 54
4, 81628, Note_on_c, 0, 60, 37
4, 81655, Note_on_c, 0, 67, 0
4, 81680, Note_on_c, 0, 60, 0
4, 81683, Note_on_c, 0, 56, 0
4, 81699, Note_on_c, 0, 55, 0
4, 81700, Note_on_c, 0, 56, 57
4, 81701, Note_on_c, 0, 66, 54
4, 81702, Note_on_c, 0, 54, 55
4, 81704, Note_on_c, 0, 60, 62
4, 81715, Note_on_c, 0, 66, 0
4, 81725, Note_on_c, 0, 56, 0
4, 81730, Note_on_c, 0, 54, 0
4, 81736, Note_on_c, 0, 56, 27
4, 81739, Note_on_c, 0, 65, 53
4, 81741, Note_on_c, 0, 53, 43
4, 81809, Note_on_c, 0, 65, 0
4, 81820, Note_on_c, 0, 60, 0
4, 81822, Note_on_c, 0, 53, 0
4, 81823, Note_on_c, 0, 49, 34
4, 81834, Note_on_c, 0, 56, 0
4, 81854, Note_on_c, 0, 49, 0
4, 81856, Note_on_c, 0, 52, 40
4, 81856, Note_on_c, 0, 58, 32
4, 81856, Note_on_c, 0, 55, 41
4, 81860, Note_on_c, 0, 61, 27
4, 81862, Note_on_c, 0, 64, 32
4, 81930, Note_on_c, 0, 64, 0
4, 81944, Note_on_c, 0, 49, 25
4, 81945, Note_on_c, 0, 52, 0
4, 81949, Note_on_c, 0, 61, 0
4, 81949, Note_on_c, 0, 55, 0
4, 81949, Note_on_c, 0, 51, 25
4, 81952, Note_on_c, 0, 58, 0
4, 81963, Note_on_c, 0, 51, 0
4, 81970, Note_on_c, 0, 58, 50
4, 81971, Note_on_c, 0, 49, 0
4, 81972, Note_on_c, 0, 53, 58
4, 81974, Note_on_c, 0, 65, 62
4, 81975, Note_on_c, 0, 61, 35
4, 81975, Note_on_c, 0, 55, 53
4, 82036, Note_on_c, 0, 55, 0
4, 82036, Note_on_c, 0, 65, 0
4, 82039, Note_on_c, 0, 58, 0
4, 82045, Note_on_c, 0, 61, 0
4, 82068, Note_on_c, 0, 53, 0
4, 82068, Note_on_c, 0, 54, 39
4, 82086, Note_on_c, 0, 54, 0
4, 82095, Note_on_c, 0, 55, 58
4, 82097, Note_on_c, 0, 59, 60
4, 82098, Note_on_c, 0, 67, 55
4, 82098, Note_on_c, 0, 61, 40
4, 82100, Note_on_c, 0, 63, 39
4, 82145, Note_on_c, 0, 67, 0
4, 82156, Note_on_c, 0, 61, 0
4, 82165, Note_on_c, 0, 59, 0
4, 82171, Note_on_c, 0, 63, 0
4, 82209, Note_on_c, 0, 68, 56
4, 82210, Note_on_c, 0, 60, 63
4, 82211, Note_on_c, 0, 63, 50
4, 82211, Note_on_c, 0, 56, 61
4, 82212, Note_on_c, 0, 65, 57
4, 82215, Note_on_c, 0, 55, 0
4, 82233, Control_c, 0, 64, 127
4, 82258, Note_on_c, 0, 65, 0
4, 82264, Note_on_c, 0, 60, 0
4, 82266, Note_on_c, 0, 68, 0
4, 82277, Note_on_c, 0, 63, 0
4, 82296, Note_on_c, 0, 54, 39
4, 82311, Control_c, 0, 64, 0
4, 82315, Note_on_c, 0, 56, 0
4, 82317, Note_on_c, 0, 54, 0
4, 82324, Note_on_c, 0, 63, 64
4, 82325, Note_on_c, 0, 58, 60
4, 82326, Note_on_c, 0, 70, 59
4, 82328, Note_on_c, 0, 67, 47
4, 82351, Control_c, 0, 64, 127
4, 82362, Note_on_c, 0, 67, 0
4, 82365, Note_on_c, 0, 63, 0
4, 82372, Note_on_c, 0, 70, 0
4, 82389, Note_on_c, 0, 58, 0
4, 82432, Control_c, 0, 64, 0
4, 82445, Note_on_c, 0, 73, 48
4, 82446, Note_on_c, 0, 58, 21
4, 82447, Note_on_c, 0, 68, 64
4, 82448, Note_on_c, 0, 63, 29
4, 82449, Note_on_c, 0, 70, 52
4, 82449, Note_on_c, 0, 65, 64
4, 82458, Control_c, 0, 64, 127
4, 82466, Note_on_c, 0, 65, 0
4, 82471, Note_on_c, 0, 63, 0
4, 82475, Note_on_c, 0, 68, 0
4, 82475, Note_on_c, 0, 70, 0
4, 82480, Note_on_c, 0, 73, 0
4, 82489, Note_on_c, 0, 58, 0
4, 82558, Control_c, 0, 64, 0
4, 82566, Note_on_c, 0, 82, 71
4, 82566, Note_on_c, 0, 70, 74
4, 82569, Note_on_c, 0, 53, 51
4, 82570, Note_on_c, 0, 61, 46
4, 82575, Note_on_c, 0, 58, 37
4, 82576, Note_on_c, 0, 55, 35
4, 82655, Note_on_c, 0, 55, 0
4, 82656, Note_on_c, 0, 70, 0
4, 82656, Note_on_c, 0, 53, 0
4, 82663, Note_on_c, 0, 61, 0
4, 82665, Note_on_c, 0, 82, 0
4, 82674, Note_on_c, 0, 58, 0
4, 82685, Note_on_c, 0, 61, 59
4, 82687, Note_on_c, 0, 84, 68
4, 82687, Note_on_c, 0, 53, 60
4, 82688, Note_on_c, 0, 72, 70
4, 82688, Note_on_c, 0, 58, 36
4, 82692, Note_on_c, 0, 55, 52
4, 82735, Note_on_c, 0, 58, 0
4, 82767, Note_on_c, 0, 84, 0
4, 82767, Note_on_c, 0, 55, 0
4, 82770, Note_on_c, 0, 53, 0
4, 82773, Note_on_c, 0, 58, 47
4, 82776, Note_on_c, 0, 61, 0
4, 82783, Note_on_c, 0, 72, 0
4, 82792, Note_on_c, 0, 58, 0
4, 82804, Note_on_c, 0, 58, 49
4, 82806, Note_on_c, 0, 63, 67
4, 82810, Note_on_c, 0, 52, 60
4, 82811, Note_on_c, 0, 85, 60
4, 82812, Note_on_c, 0, 73, 39
4, 82813, Note_on_c, 0, 80, 47
4, 82872, Note_on_c, 0, 52, 0
4, 82874, Note_on_c, 0, 73, 0
4, 82875, Note_on_c, 0, 85, 0
4, 82878, Note_on_c, 0, 63, 0
4, 82878, Note_on_c, 0, 80, 0
4, 82886, Note_on_c, 0, 58, 0
4, 82895, Note_on_c, 0, 63, 71
4, 82896, Note_on_c, 0, 87, 80
4, 82896, Note_on_c, 0, 58, 51
4, 82896, Note_on_c, 0, 75, 67
4, 82896, Note_on_c, 0, 52, 70
4, 82898, Note_on_c, 0, 80, 54
4, 83012, Note_on_c, 0, 52, 0
4, 83015, Note_on_c, 0, 80, 0
4, 83023, Note_on_c, 0, 58, 0
4, 83026, Note_on_c, 0, 63, 0
4, 83029, Note_on_c, 0, 75, 0
4, 83034, Note_on_c, 0, 87, 0
4, 83042, Note_on_c, 0, 64, 56
4, 83043, Note_on_c, 0, 88, 57
4, 83046, Note_on_c, 0, 56, 33
4, 83046, Note_on_c, 0, 53, 54
4, 83047, Note_on_c, 0, 60, 49
4, 83048, Note_on_c, 0, 81, 49
4, 83052, Note_on_c, 0, 76, 53
4, 83099, Note_on_c, 0, 60, 0
4, 83101, Note_on_c, 0, 56, 0
4, 83101, Note_on_c, 0, 81, 0
4, 83102, Note_on_c, 0, 53, 0
4, 83109, Note_on_c, 0, 76, 0
4, 83112, Note_on_c, 0, 88, 0
4, 83128, Note_on_c, 0, 64, 0
4, 83130, Note_on_c, 0, 60, 31
4, 83144, Note_on_c, 0, 60, 0
4, 83162, Note_on_c, 0, 60, 68
4, 83163, Note_on_c, 0, 56, 51
4, 83163, Note_on_c, 0, 53, 70
4, 83164, Note_on_c, 0, 64, 79
4, 83166, Note_on_c, 0, 84, 46
4, 83166, Note_on_c, 0, 89, 67
4, 83167, Note_on_c, 0, 77, 54
4, 83223, Note_on_c, 0, 77, 0
4, 83224, Note_on_c, 0, 84, 0
4, 83230, Note_on_c, 0, 89, 0
4, 83233, Note_on_c, 0, 53, 0
4, 83236, Note_on_c, 0, 60, 0
4, 83238, Note_on_c, 0, 64, 0
4, 83245, Note_on_c, 0, 56, 0
4, 83287, Note_on_c, 0, 65, 61
4, 83288, Note_on_c, 0, 54, 53
4, 83288, Note_on_c, 0, 60, 46
4, 83290, Note_on_c, 0, 58, 40
4, 83292, Note_on_c, 0, 78, 42
4, 83292, Note_on_c, 0, 85, 53
4, 83294, Note_on_c, 0, 90, 37
4, 83351, Note_on_c, 0, 85, 0
4, 83352, Note_on_c, 0, 54, 0
4, 83353, Note_on_c, 0, 65, 0
4, 83358, Note_on_c, 0, 58, 0
4, 83358, Note_on_c, 0, 60, 0
4, 83359, Note_on_c, 0, 90, 0
4, 83360, Note_on_c, 0, 78, 0
4, 83374, Note_on_c, 0, 91, 70
4, 83374, Note_on_c, 0, 54, 74
4, 83375, Note_on_c, 0, 65, 69
4, 83375, Note_on_c, 0, 58, 67
4, 83375, Note_on_c, 0, 60, 71
4, 83377, Note_on_c, 0, 79, 41
4, 83377, Note_on_c, 0, 86, 58
4, 83382, Note_on_c, 0, 81, 37
4, 83385, Note_on_c, 0, 89, 28
4, 83389, Note_on_c, 0, 81, 0
4, 83453, Note_on_c, 0, 54, 0
4, 83475, Note_on_c, 0, 89, 0
4, 83476, Note_on_c, 0, 91, 0
4, 83480, Note_on_c, 0, 79, 0
4, 83483, Note_on_c, 0, 86, 0
4, 83491, Note_on_c, 0, 54, 60
4, 83500, Note_on_c, 0, 60, 0
4, 83500, Note_on_c, 0, 65, 0
4, 83509, Note_on_c, 0, 54, 0
4, 83512, Note_on_c, 0, 58, 0
4, 83524, Note_on_c, 0, 53, 71
4, 83524, Note_on_c, 0, 64, 74
4, 83524, Note_on_c, 0, 92, 58
4, 83524, Note_on_c, 0, 87, 65
4, 83526, Note_on_c, 0, 80, 38
4, 83526, Note_on_c, 0, 59, 62
4, 83581, Note_on_c, 0, 59, 0
4, 83586, Note_on_c, 0, 92, 0
4, 83587, Note_on_c, 0, 80, 0
4, 83590, Note_on_c, 0, 87, 0
4, 83590, Note_on_c, 0, 53, 0
4, 83617, Note_on_c, 0, 64, 0
4, 83619, Note_on_c, 0, 59, 32
4, 83629, Note_on_c, 0, 59, 0
4, 83642, Note_on_c, 0, 94, 68
4, 83643, Note_on_c, 0, 59, 74
4, 83644, Note_on_c, 0, 87, 67
4, 83644, Note_on_c, 0, 64, 71
4, 83644, Note_on_c, 0, 53, 72
4, 83645, Note_on_c, 0, 82, 50
4, 83680, Note_on_c, 0, 87, 0
4, 83692, Note_on_c, 0, 94, 0
4, 83692, Note_on_c, 0, 82, 0
4, 83702, Note_on_c, 0, 53, 0
4, 83702, Note_on_c, 0, 64, 0
4, 83706, Note_on_c, 0, 59, 0
4, 83759, Note_on_c, 0, 58, 70
4, 83760, Note_on_c, 0, 63, 75
4, 83762, Note_on_c, 0, 52, 74
4, 83764, Note_on_c, 0, 96, 76
4, 83765, Note_on_c, 0, 84, 49
4, 83766, Note_on_c, 0, 91, 58
4, 83805, Note_on_c, 0, 91, 0
4, 83807, Note_on_c, 0, 96, 0
4, 83815, Note_on_c, 0, 52, 0
4, 83817, Note_on_c, 0, 84, 0
4, 83823, Note_on_c, 0, 63, 0
4, 83829, Note_on_c, 0, 58, 0
4, 83848, Note_on_c, 0, 58, 63
4, 83850, Note_on_c, 0, 85, 61
4, 83851, Note_on_c, 0, 97, 53
4, 83854, Note_on_c, 0, 52, 47
4, 83854, Note_on_c, 0, 92, 39
4, 83858, Note_on_c, 0, 97, 0
4, 83858, Note_on_c, 0, 85, 0
4, 83861, Note_on_c, 0, 52, 0
4, 83867, Note_on_c, 0, 92, 0
4, 83869, Note_on_c, 0, 58, 0
4, 83881, Note_on_c, 0, 87, 75
4, 83882, Note_on_c, 0, 52, 62
4, 83882, Note_on_c, 0, 63, 77
4, 83883, Note_on_c, 0, 58, 71
4, 83884, Note_on_c, 0, 99, 67
4, 83885, Note_on_c, 0, 92, 60
4, 83906, Note_on_c, 0, 92, 0
4, 83937, Note_on_c, 0, 52, 0
4, 83946, Note_on_c, 0, 63, 0
4, 83948, Note_on_c, 0, 87, 0
4, 83949, Note_on_c, 0, 99, 0
4, 83950, Note_on_c, 0, 58, 0
4, 83964, Note_on_c, 0, 60, 75
4, 83964, Note_on_c, 0, 64, 79
4, 83964, Note_on_c, 0, 53, 70
4, 83965, Note_on_c, 0, 56, 61
4, 83968, Note_on_c, 0, 100, 78
4, 83969, Note_on_c, 0, 88, 68
4, 83970, Note_on_c, 0, 93, 68
4, 83970, Note_on_c, 0, 96, 71
4, 83976, Note_on_c, 0, 98, 32
4, 84129, Note_on_c, 0, 96, 0
4, 84130, Note_on_c, 0, 93, 0
4, 84133, Note_on_c, 0, 100, 0
4, 84137, Note_on_c, 0, 98, 0
4, 84154, Note_on_c, 0, 88, 0
4, 84178, Note_on_c, 0, 64, 0
4, 84185, Note_on_c, 0, 60, 0
4, 84206, Note_on_c, 0, 90, 56
4, 84207, Note_on_c, 0, 96, 66
4, 84208, Note_on_c, 0, 60, 51
4, 84209, Note_on_c, 0, 84, 59
4, 84210, Note_on_c, 0, 62, 57
4, 84214, Note_on_c, 0, 96, 0
4, 84217, Note_on_c, 0, 90, 0
4, 84221, Note_on_c, 0, 62, 0
4, 84224, Note_on_c, 0, 84, 0
4, 84233, Note_on_c, 0, 60, 0
4, 84242, Note_on_c, 0, 62, 24
4, 84292, Note_on_c, 0, 62, 0
4, 84327, Note_on_c, 0, 60, 44
4, 84390, Note_on_c, 0, 60, 0
4, 84397, Note_on_c, 0, 56, 0
4, 84398, Note_on_c, 0, 53, 0
4, 84449, Note_on_c, 0, 65, 72
4, 84449, Note_on_c, 0, 61, 53
4, 84451, Note_on_c, 0, 56, 47
4, 84451, Note_on_c, 0, 60, 63
4, 84605, Note_on_c, 0, 65, 0
4, 84605, Note_on_c, 0, 75, 87
4, 84630, Note_on_c, 0, 60, 0
4, 84630, Note_on_c, 0, 56, 0
4, 84640, Note_on_c, 0, 77, 25
4, 84641, Note_on_c, 0, 75, 0
4, 84648, Note_on_c, 0, 61, 0
4, 84669, Note_on_c, 0, 75, 35
4, 84677, Note_on_c, 0, 77, 0
4, 84695, Note_on_c, 0, 74, 56
4, 84696, Note_on_c, 0, 75, 0
4, 84710, Note_on_c, 0, 74, 0
4, 84710, Note_on_c, 0, 61, 35
4, 84712, Note_on_c, 0, 56, 25
4, 84726, Note_on_c, 0, 56, 0
4, 84730, Note_on_c, 0, 75, 86
4, 84736, Note_on_c, 0, 61, 0
4, 84804, Note_on_c, 0, 75, 0
4, 84815, Note_on_c, 0, 72, 68
4, 84823, Note_on_c, 0, 61, 34
4, 84824, Note_on_c, 0, 64, 36
4, 84825, Note_on_c, 0, 55, 41
4, 84833, Note_on_c, 0, 64, 0
4, 84847, Note_on_c, 0, 61, 0
4, 84853, Note_on_c, 0, 55, 0
4, 84869, Note_on_c, 0, 70, 52
4, 84877, Note_on_c, 0, 72, 0
4, 84944, Note_on_c, 0, 63, 47
4, 84946, Note_on_c, 0, 60, 51
4, 84952, Note_on_c, 0, 63, 0
4, 84952, Note_on_c, 0, 58, 35
4, 84953, Note_on_c, 0, 60, 0
4, 84956, Note_on_c, 0, 70, 0
4, 84984, Note_on_c, 0, 66, 49
4, 85006, Note_on_c, 0, 67, 43
4, 85008, Note_on_c, 0, 58, 0
4, 85027, Note_on_c, 0, 66, 0
4, 85061, Note_on_c, 0, 67, 0
4, 85089, Note_on_c, 0, 63, 60
4, 85174, Note_on_c, 0, 63, 0
4, 85175, Note_on_c, 0, 60, 63
4, 85194, Note_on_c, 0, 60, 0
4, 85214, Note_on_c, 0, 55, 47
4, 85280, Note_on_c, 0, 55, 0
4, 85294, Note_on_c, 0, 55, 72
4, 85301, Note_on_c, 0, 55, 0
4, 85444, Note_on_c, 0, 56, 15
4, 85448, Note_on_c, 0, 65, 118
4, 85450, Note_on_c, 0, 56, 0
4, 85655, Note_on_c, 0, 55, 58
4, 85662, Note_on_c, 0, 55, 0
4, 85673, Note_on_c, 0, 65, 0
4, 85688, Note_on_c, 0, 63, 48
4, 85720, Note_on_c, 0, 63, 0
4, 85724, Note_on_c, 0, 60, 40
4, 85743, Note_on_c, 0, 60, 0
4, 85755, Note_on_c, 0, 61, 29
4, 85781, Note_on_c, 0, 61, 0
4, 85782, Note_on_c, 0, 63, 40
4, 85798, Note_on_c, 0, 63, 0
4, 85808, Note_on_c, 0, 65, 64
4, 85831, Note_on_c, 0, 65, 0
4, 85842, Note_on_c, 0, 66, 39
4, 85858, Note_on_c, 0, 66, 0
4, 85870, Note_on_c, 0, 67, 48
4, 85888, Note_on_c, 0, 67, 0
4, 85905, Note_on_c, 0, 69, 67
4, 85911, Note_on_c, 0, 66, 39
4, 85912, Note_on_c, 0, 61, 36
4, 85918, Note_on_c, 0, 66, 0
4, 85922, Note_on_c, 0, 69, 0
4, 85937, Note_on_c, 0, 61, 0
4, 85941, Note_on_c, 0, 70, 52
4, 85948, Note_on_c, 0, 70, 0
4, 85967, Note_on_c, 0, 72, 49
4, 85983, Note_on_c, 0, 72, 0
4, 85998, Note_on_c, 0, 73, 53
4, 86016, Note_on_c, 0, 73, 0
4, 86030, Note_on_c, 0, 75, 60
4, 86045, Note_on_c, 0, 75, 0
4, 86060, Note_on_c, 0, 76, 68
4, 86062, Note_on_c, 0, 63, 34
4, 86064, Note_on_c, 0, 60, 44
4, 86067, Note_on_c, 0, 58, 29
4, 86068, Note_on_c, 0, 53, 36
4, 86082, Note_on_c, 0, 63, 0
4, 86083, Note_on_c, 0, 76, 0
4, 86084, Note_on_c, 0, 53, 0
4, 86084, Note_on_c, 0, 60, 0
4, 86094, Note_on_c, 0, 77, 57
4, 86094, Note_on_c, 0, 63, 35
4, 86098, Note_on_c, 0, 53, 22
4, 86101, Note_on_c, 0, 60, 34
4, 86143, Note_on_c, 0, 53, 0
4, 86145, Note_on_c, 0, 63, 0
4, 86148, Note_on_c, 0, 60, 0
4, 86154, Note_on_c, 0, 58, 0
4, 86164, Note_on_c, 0, 63, 53
4, 86165, Note_on_c, 0, 78, 56
4, 86167, Note_on_c, 0, 66, 57
4, 86167, Note_on_c, 0, 53, 36
4, 86168, Note_on_c, 0, 58, 21
4, 86168, Note_on_c, 0, 60, 60
4, 86191, Note_on_c, 0, 66, 0
4, 86198, Note_on_c, 0, 78, 0
4, 86203, Note_on_c, 0, 67, 60
4, 86204, Note_on_c, 0, 79, 57
4, 86250, Note_on_c, 0, 60, 0
4, 86251, Note_on_c, 0, 79, 0
4, 86256, Note_on_c, 0, 67, 0
4, 86258, Note_on_c, 0, 63, 0
4, 86262, Note_on_c, 0, 77, 0
4, 86262, Note_on_c, 0, 53, 0
4, 86273, Note_on_c, 0, 58, 0
4, 86277, Note_on_c, 0, 53, 36
4, 86279, Note_on_c, 0, 63, 57
4, 86280, Note_on_c, 0, 68, 70
4, 86280, Note_on_c, 0, 80, 59
4, 86282, Note_on_c, 0, 60, 54
4, 86282, Note_on_c, 0, 58, 15
4, 86288, Note_on_c, 0, 78, 28
4, 86294, Note_on_c, 0, 63, 0
4, 86297, Note_on_c, 0, 68, 0
4, 86297, Note_on_c, 0, 78, 0
4, 86299, Note_on_c, 0, 80, 0
4, 86299, Note_on_c, 0, 60, 0
4, 86310, Note_on_c, 0, 63, 48
4, 86311, Note_on_c, 0, 69, 78
4, 86312, Note_on_c, 0, 81, 72
4, 86314, Note_on_c, 0, 60, 40
4, 86366, Note_on_c, 0, 81, 0
4, 86368, Note_on_c, 0, 69, 0
4, 86383, Note_on_c, 0, 53, 0
4, 86387, Note_on_c, 0, 63, 0
4, 86392, Note_on_c, 0, 58, 0
4, 86396, Note_on_c, 0, 60, 0
4, 86397, Note_on_c, 0, 82, 60
4, 86398, Note_on_c, 0, 70, 62
4, 86406, Note_on_c, 0, 53, 40
4, 86407, Note_on_c, 0, 60, 30
4, 86410, Note_on_c, 0, 70, 0
4, 86412, Note_on_c, 0, 82, 0
4, 86413, Note_on_c, 0, 57, 34
4, 86424, Note_on_c, 0, 57, 0
4, 86426, Note_on_c, 0, 53, 0
4, 86426, Note_on_c, 0, 60, 0
4, 86441, Note_on_c, 0, 53, 52
4, 86442, Note_on_c, 0, 71, 79
4, 86443, Note_on_c, 0, 83, 80
4, 86444, Note_on_c, 0, 60, 62
4, 86445, Note_on_c, 0, 57, 57
4, 86445, Note_on_c, 0, 64, 62
4, 86502, Note_on_c, 0, 64, 0
4, 86502, Note_on_c, 0, 71, 0
4, 86504, Note_on_c, 0, 83, 0
4, 86507, Note_on_c, 0, 53, 0
4, 86507, Note_on_c, 0, 60, 0
4, 86508, Note_on_c, 0, 57, 0
4, 86516, Note_on_c, 0, 53, 31
4, 86518, Note_on_c, 0, 64, 63
4, 86522, Note_on_c, 0, 60, 64
4, 86522, Note_on_c, 0, 72, 74
4, 86522, Note_on_c, 0, 57, 67
4, 86523, Note_on_c, 0, 84, 76
4, 86541, Note_on_c, 0, 72, 0
4, 86542, Note_on_c, 0, 84, 0
4, 86544, Note_on_c, 0, 64, 0
4, 86548, Note_on_c, 0, 60, 0
4, 86550, Note_on_c, 0, 57, 0
4, 86557, Note_on_c, 0, 64, 75
4, 86558, Note_on_c, 0, 60, 34
4, 86559, Note_on_c, 0, 57, 33
4, 86559, Note_on_c, 0, 73, 54
4, 86559, Note_on_c, 0, 85, 84
4, 86610, Note_on_c, 0, 53, 0
4, 86611, Note_on_c, 0, 60, 0
4, 86613, Note_on_c, 0, 64, 0
4, 86614, Note_on_c, 0, 73, 0
4, 86615, Note_on_c, 0, 85, 0
4, 86617, Note_on_c, 0, 57, 0
4, 86636, Note_on_c, 0, 53, 62
4, 86637, Note_on_c, 0, 64, 52
4, 86638, Note_on_c, 0, 86, 62
4, 86639, Note_on_c, 0, 74, 62
4, 86640, Note_on_c, 0, 59, 49
4, 86645, Note_on_c, 0, 84, 33
4, 86686, Note_on_c, 0, 86, 0
4, 86691, Note_on_c, 0, 84, 0
4, 86692, Note_on_c, 0, 74, 0
4, 86696, Note_on_c, 0, 53, 0
4, 86697, Note_on_c, 0, 64, 0
4, 86704, Note_on_c, 0, 59, 0
4, 86719, Note_on_c, 0, 59, 66
4, 86720, Note_on_c, 0, 75, 77
4, 86720, Note_on_c, 0, 87, 80
4, 86721, Note_on_c, 0, 53, 67
4, 86721, Note_on_c, 0, 64, 68
4, 86737, Note_on_c, 0, 64, 0
4, 86745, Note_on_c, 0, 53, 0
4, 86749, Note_on_c, 0, 59, 0
4, 86750, Note_on_c, 0, 75, 0
4, 86751, Note_on_c, 0, 87, 0
4, 86764, Note_on_c, 0, 53, 28
4, 86765, Note_on_c, 0, 59, 56
4, 86767, Note_on_c, 0, 64, 33
4, 86769, Note_on_c, 0, 76, 58
4, 86771, Note_on_c, 0, 88, 48
4, 86776, Note_on_c, 0, 64, 0
4, 86780, Note_on_c, 0, 76, 0
4, 86780, Note_on_c, 0, 53, 0
4, 86780, Note_on_c, 0, 59, 0
4, 86781, Note_on_c, 0, 88, 0
4, 86843, Note_on_c, 0, 64, 66
4, 86843, Note_on_c, 0, 53, 64
4, 86845, Note_on_c, 0, 59, 41
4, 86848, Note_on_c, 0, 76, 54
4, 86849, Note_on_c, 0, 89, 60
4, 86849, Note_on_c, 0, 77, 51
4, 86850, Note_on_c, 0, 64, 0
4, 86851, Note_on_c, 0, 53, 0
4, 86852, Note_on_c, 0, 88, 49
4, 86853, Note_on_c, 0, 59, 0
4, 86855, Note_on_c, 0, 76, 0
4, 86856, Note_on_c, 0, 89, 0
4, 86859, Note_on_c, 0, 88, 0
4, 86860, Note_on_c, 0, 77, 0
4, 86892, Note_on_c, 0, 78, 71
4, 86892, Note_on_c, 0, 90, 64
4, 86895, Note_on_c, 0, 59, 66
4, 86896, Note_on_c, 0, 62, 79
4, 86897, Note_on_c, 0, 52, 60
4, 86900, Note_on_c, 0, 55, 54
4, 86913, Note_on_c, 0, 78, 0
4, 86914, Note_on_c, 0, 62, 0
4, 86915, Note_on_c, 0, 90, 0
4, 86921, Note_on_c, 0, 62, 27
4, 86929, Note_on_c, 0, 91, 68
4, 86930, Note_on_c, 0, 79, 65
4, 86931, Note_on_c, 0, 89, 70
4, 86964, Note_on_c, 0, 91, 0
4, 86965, Note_on_c, 0, 89, 0
4, 86972, Note_on_c, 0, 79, 0
4, 86987, Note_on_c, 0, 62, 0
4, 86991, Note_on_c, 0, 59, 0
4, 86994, Note_on_c, 0, 52, 0
4, 87000, Note_on_c, 0, 55, 0
4, 87007, Note_on_c, 0, 73, 53
4, 87007, Note_on_c, 0, 85, 69
4, 87007, Note_on_c, 0, 62, 41
4, 87009, Note_on_c, 0, 52, 27
4, 87009, Note_on_c, 0, 59, 42
4, 87012, Note_on_c, 0, 55, 19
4, 87041, Note_on_c, 0, 86, 29
4, 87045, Note_on_c, 0, 73, 0
4, 87049, Note_on_c, 0, 74, 44
4, 87056, Note_on_c, 0, 85, 0
4, 87057, Note_on_c, 0, 86, 0
4, 87066, Note_on_c, 0, 74, 0
4, 87069, Note_on_c, 0, 59, 0
4, 87080, Note_on_c, 0, 62, 0
4, 87095, Note_on_c, 0, 59, 17
4, 87096, Note_on_c, 0, 82, 56
4, 87096, Note_on_c, 0, 70, 67
4, 87104, Note_on_c, 0, 62, 37
4, 87129, Note_on_c, 0, 71, 51
4, 87130, Note_on_c, 0, 70, 0
4, 87131, Note_on_c, 0, 83, 27
4, 87138, Note_on_c, 0, 83, 0
4, 87141, Note_on_c, 0, 82, 0
4, 87144, Note_on_c, 0, 71, 0
4, 87150, Note_on_c, 0, 62, 0
4, 87160, Note_on_c, 0, 59, 0
4, 87166, Note_on_c, 0, 79, 54
4, 87169, Note_on_c, 0, 59, 24
4, 87172, Note_on_c, 0, 62, 36
4, 87172, Note_on_c, 0, 78, 35
4, 87175, Note_on_c, 0, 67, 28
4, 87190, Note_on_c, 0, 78, 0
4, 87219, Note_on_c, 0, 62, 0
4, 87225, Note_on_c, 0, 59, 0
4, 87229, Note_on_c, 0, 67, 0
4, 87239, Note_on_c, 0, 79, 0
4, 87246, Note_on_c, 0, 76, 44
4, 87247, Note_on_c, 0, 67, 40
4, 87248, Note_on_c, 0, 62, 48
4, 87249, Note_on_c, 0, 59, 44
4, 87296, Note_on_c, 0, 77, 1
4, 87300, Note_on_c, 0, 59, 0
4, 87302, Note_on_c, 0, 55, 0
4, 87311, Note_on_c, 0, 52, 0
4, 87319, Note_on_c, 0, 76, 0
4, 87322, Note_on_c, 0, 67, 0
4, 87326, Note_on_c, 0, 62, 0
4, 87344, Note_on_c, 0, 77, 0
4, 87352, Control_c, 0, 64, 127
4, 87371, Note_on_c, 0, 70, 75
4, 87373, Note_on_c, 0, 79, 54
4, 87380, Note_on_c, 0, 70, 0
4, 87381, Note_on_c, 0, 79, 0
4, 87412, Control_c, 0, 64, 0
4, 87443, Note_on_c, 0, 65, 76
4, 87443, Note_on_c, 0, 75, 72
4, 87444, Note_on_c, 0, 70, 81
4, 87446, Note_on_c, 0, 79, 60
4, 87450, Note_on_c, 0, 65, 0
4, 87453, Note_on_c, 0, 79, 0
4, 87455, Note_on_c, 0, 70, 0
4, 87458, Note_on_c, 0, 75, 0
4, 87562, Note_on_c, 0, 49, 54
4, 87575, Note_on_c, 0, 49, 0
4, 87606, Note_on_c, 0, 49, 53
4, 87608, Note_on_c, 0, 59, 57
4, 87608, Note_on_c, 0, 63, 53
4, 87609, Note_on_c, 0, 67, 45
4, 87610, Note_on_c, 0, 53, 48
4, 87612, Note_on_c, 0, 71, 38
4, 87617, Note_on_c, 0, 63, 0
4, 87618, Note_on_c, 0, 53, 0
4, 87618, Note_on_c, 0, 67, 0
4, 87620, Note_on_c, 0, 59, 0
4, 87620, Note_on_c, 0, 71, 0
4, 87623, Note_on_c, 0, 49, 0
4, 87682, Note_on_c, 0, 63, 67
4, 87684, Note_on_c, 0, 67, 59
4, 87686, Note_on_c, 0, 49, 59
4, 87686, Note_on_c, 0, 71, 68
4, 87687, Note_on_c, 0, 59, 60
4, 87688, Note_on_c, 0, 53, 56
4, 87688, Note_on_c, 0, 70, 18
4, 87739, Control_c, 0, 64, 127
4, 87754, Note_on_c, 0, 59, 0
4, 87763, Note_on_c, 0, 53, 0
4, 87764, Note_on_c, 0, 71, 0
4, 87777, Note_on_c, 0, 67, 0
4, 87787, Note_on_c, 0, 70, 0
4, 87802, Note_on_c, 0, 63, 0
4, 87814, Note_on_c, 0, 54, 51
4, 87820, Note_on_c, 0, 49, 0
4, 87833, Control_c, 0, 64, 0
4, 87842, Note_on_c, 0, 54, 0
4, 87851, Note_on_c, 0, 68, 80
4, 87852, Note_on_c, 0, 61, 82
4, 87852, Note_on_c, 0, 58, 88
4, 87852, Note_on_c, 0, 64, 79
4, 87853, Note_on_c, 0, 56, 92
4, 87854, Note_on_c, 0, 54, 47
4, 87858, Note_on_c, 0, 51, 48
4, 87860, Note_on_c, 0, 54, 0
4, 87864, Note_on_c, 0, 51, 0
4, 87940, Note_on_c, 0, 68, 0
4, 87941, Note_on_c, 0, 58, 0
4, 87941, Note_on_c, 0, 53, 54
4, 87942, Note_on_c, 0, 56, 0
4, 87947, Note_on_c, 0, 61, 0
4, 87955, Note_on_c, 0, 64, 0
4, 87955, Note_on_c, 0, 54, 56
4, 87960, Note_on_c, 0, 53, 0
4, 87973, Note_on_c, 0, 56, 76
4, 87976, Note_on_c, 0, 68, 73
4, 87977, Note_on_c, 0, 64, 60
4, 87978, Note_on_c, 0, 58, 75
4, 87978, Note_on_c, 0, 61, 67
4, 87986, Note_on_c, 0, 54, 0
4, 88058, Note_on_c, 0, 61, 0
4, 88058, Note_on_c, 0, 54, 37
4, 88060, Note_on_c, 0, 58, 0
4, 88062, Note_on_c, 0, 64, 0
4, 88064, Note_on_c, 0, 56, 0
4, 88074, Note_on_c, 0, 68, 0
4, 88090, Note_on_c, 0, 58, 53
4, 88090, Note_on_c, 0, 61, 54
4, 88094, Note_on_c, 0, 55, 72
4, 88096, Note_on_c, 0, 64, 31
4, 88097, Note_on_c, 0, 67, 37
4, 88098, Note_on_c, 0, 58, 0
4, 88100, Control_c, 0, 64, 127
4, 88102, Note_on_c, 0, 54, 0
4, 88106, Note_on_c, 0, 64, 0
4, 88106, Note_on_c, 0, 61, 0
4, 88114, Note_on_c, 0, 67, 0
4, 88171, Note_on_c, 0, 48, 85
4, 88177, Note_on_c, 0, 51, 50
4, 88183, Note_on_c, 0, 55, 0
4, 88184, Note_on_c, 0, 51, 0
4, 88209, Note_on_c, 0, 48, 0
4, 88290, Note_on_c, 0, 72, 66
4, 88293, Note_on_c, 0, 60, 66
4, 88298, Note_on_c, 0, 56, 26
4, 88305, Note_on_c, 0, 72, 0
4, 88306, Note_on_c, 0, 56, 0
4, 88310, Note_on_c, 0, 60, 0
4, 88319, Control_c, 0, 64, 0
4, 88330, Note_on_c, 0, 53, 84
4, 88331, Note_on_c, 0, 56, 65
4, 88332, Note_on_c, 0, 60, 82
4, 88332, Note_on_c, 0, 64, 95
4, 88334, Note_on_c, 0, 79, 80
4, 88334, Note_on_c, 0, 91, 85
4, 88338, Note_on_c, 0, 86, 66
4, 88345, Note_on_c, 0, 86, 0
4, 88398, Note_on_c, 0, 53, 0
4, 88399, Note_on_c, 0, 91, 0
4, 88401, Note_on_c, 0, 64, 0
4, 88403, Note_on_c, 0, 79, 0
4, 88406, Note_on_c, 0, 60, 0
4, 88406, Note_on_c, 0, 56, 0
4, 88416, Note_on_c, 0, 53, 80
4, 88416, Note_on_c, 0, 64, 89
4, 88417, Note_on_c, 0, 60, 89
4, 88418, Note_on_c, 0, 56, 76
4, 88418, Note_on_c, 0, 91, 76
4, 88418, Note_on_c, 0, 79, 73
4, 88419, Note_on_c, 0, 86, 80
4, 88473, Control_c, 0, 64, 127
4, 88521, Note_on_c, 0, 60, 0
4, 88522, Note_on_c, 0, 64, 0
4, 88527, Note_on_c, 0, 53, 0
4, 88528, Note_on_c, 0, 56, 0
4, 88573, Control_c, 0, 64, 0
4, 88580, Note_on_c, 0, 50, 57
4, 88581, Note_on_c, 0, 60, 62
4, 88582, Note_on_c, 0, 56, 56
4, 88610, Control_c, 0, 64, 127
4, 88634, Control_c, 0, 64, 0
4, 88680, Control_c, 0, 64, 127
4, 88699, Note_on_c, 0, 86, 0
4, 88710, Note_on_c, 0, 91, 0
4, 88720, Note_on_c, 0, 79, 0
4, 88724, Note_on_c, 0, 50, 0
4, 88725, Note_on_c, 0, 56, 0
4, 88727, Note_on_c, 0, 60, 0
4, 88773, Note_on_c, 0, 56, 52
4, 88774, Note_on_c, 0, 60, 68
4, 88775, Note_on_c, 0, 89, 74
4, 88776, Note_on_c, 0, 84, 69
4, 88776, Note_on_c, 0, 77, 61
4, 88783, Note_on_c, 0, 60, 0
4, 88784, Note_on_c, 0, 56, 0
4, 88784, Note_on_c, 0, 77, 0
4, 88785, Note_on_c, 0, 84, 0
4, 88791, Note_on_c, 0, 89, 0
4, 88816, Control_c, 0, 64, 0
4, 88818, Note_on_c, 0, 53, 75
4, 88818, Note_on_c, 0, 59, 71
4, 88819, Note_on_c, 0, 63, 74
4, 88820, Note_on_c, 0, 80, 78
4, 88820, Note_on_c, 0, 92, 83
4, 88820, Note_on_c, 0, 56, 49
4, 88822, Note_on_c, 0, 87, 77
4, 88878, Note_on_c, 0, 80, 0
4, 88880, Note_on_c, 0, 53, 0
4, 88882, Note_on_c, 0, 92, 0
4, 88886, Note_on_c, 0, 87, 0
4, 88887, Note_on_c, 0, 63, 0
4, 88890, Note_on_c, 0, 59, 0
4, 88893, Note_on_c, 0, 56, 0
4, 88898, Note_on_c, 0, 63, 77
4, 88899, Note_on_c, 0, 94, 78
4, 88900, Note_on_c, 0, 82, 68
4, 88900, Note_on_c, 0, 53, 60
4, 88900, Note_on_c, 0, 87, 56
4, 88902, Note_on_c, 0, 59, 60
4, 88902, Note_on_c, 0, 56, 30
4, 88927, Note_on_c, 0, 94, 0
4, 88928, Note_on_c, 0, 82, 0
4, 88930, Note_on_c, 0, 87, 0
4, 88931, Note_on_c, 0, 63, 0
4, 88940, Note_on_c, 0, 63, 44
4, 88945, Note_on_c, 0, 92, 54
4, 88948, Note_on_c, 0, 80, 42
4, 88948, Note_on_c, 0, 87, 39
4, 88977, Note_on_c, 0, 59, 0
4, 88986, Note_on_c, 0, 53, 0
4, 88991, Note_on_c, 0, 87, 0
4, 88994, Note_on_c, 0, 63, 0
4, 88998, Note_on_c, 0, 80, 0
4, 88998, Note_on_c, 0, 92, 0
4, 89002, Note_on_c, 0, 56, 0
4, 89015, Note_on_c, 0, 63, 74
4, 89016, Note_on_c, 0, 58, 67
4, 89019, Note_on_c, 0, 52, 62
4, 89026, Note_on_c, 0, 52, 0
4, 89026, Note_on_c, 0, 63, 0
4, 89034, Note_on_c, 0, 58, 0
4, 89122, Note_on_c, 0, 54, 71
4, 89130, Note_on_c, 0, 55, 81
4, 89131, Note_on_c, 0, 61, 71
4, 89132, Note_on_c, 0, 58, 76
4, 89132, Note_on_c, 0, 67, 77
4, 89135, Note_on_c, 0, 65, 61
4, 89136, Note_on_c, 0, 64, 55
4, 89147, Note_on_c, 0, 54, 0
4, 89244, Note_on_c, 0, 64, 0
4, 89250, Note_on_c, 0, 67, 0
4, 89264, Note_on_c, 0, 58, 0
4, 89270, Note_on_c, 0, 61, 0
4, 89270, Note_on_c, 0, 65, 0
4, 89277, Note_on_c, 0, 55, 0
4, 89289, Note_on_c, 0, 65, 53
4, 89291, Note_on_c, 0, 56, 37
4, 89292, Note_on_c, 0, 53, 39
4, 89294, Note_on_c, 0, 60, 53
4, 89326, Note_on_c, 0, 60, 0
4, 89344, Note_on_c, 0, 56, 0
4, 89350, Control_c, 0, 64, 127
4, 89352, Note_on_c, 0, 65, 0
4, 89366, Note_on_c, 0, 56, 61
4, 89370, Note_on_c, 0, 53, 0
4, 89370, Note_on_c, 0, 63, 54
4, 89371, Note_on_c, 0, 67, 41
4, 89373, Note_on_c, 0, 65, 46
4, 89374, Note_on_c, 0, 55, 61
4, 89384, Note_on_c, 0, 67, 0
4, 89386, Note_on_c, 0, 56, 0
4, 89392, Note_on_c, 0, 65, 0
4, 89397, Note_on_c, 0, 63, 0
4, 89416, Note_on_c, 0, 56, 58
4, 89416, Control_c, 0, 64, 0
4, 89420, Note_on_c, 0, 55, 0
4, 89423, Note_on_c, 0, 60, 34
4, 89424, Note_on_c, 0, 63, 26
4, 89424, Note_on_c, 0, 65, 40
4, 89425, Note_on_c, 0, 68, 38
4, 89452, Note_on_c, 0, 68, 0
4, 89456, Note_on_c, 0, 65, 0
4, 89467, Note_on_c, 0, 60, 0
4, 89472, Note_on_c, 0, 63, 0
4, 89488, Control_c, 0, 64, 127
4, 89492, Note_on_c, 0, 63, 73
4, 89493, Note_on_c, 0, 58, 79
4, 89493, Note_on_c, 0, 70, 80
4, 89497, Note_on_c, 0, 60, 68
4, 89500, Note_on_c, 0, 56, 0
4, 89504, Note_on_c, 0, 60, 0
4, 89505, Note_on_c, 0, 68, 33
4, 89519, Note_on_c, 0, 63, 0
4, 89522, Note_on_c, 0, 68, 0
4, 89522, Note_on_c, 0, 56, 28
4, 89525, Note_on_c, 0, 70, 0
4, 89534, Control_c, 0, 64, 0
4, 89542, Note_on_c, 0, 62, 61
4, 89544, Note_on_c, 0, 72, 62
4, 89545, Note_on_c, 0, 68, 34
4, 89546, Note_on_c, 0, 60, 72
4, 89547, Note_on_c, 0, 64, 44
4, 89552, Note_on_c, 0, 58, 0
4, 89555, Note_on_c, 0, 64, 0
4, 89569, Note_on_c, 0, 56, 0
4, 89576, Note_on_c, 0, 68, 0
4, 89578, Note_on_c, 0, 62, 0
4, 89590, Note_on_c, 0, 60, 0
4, 89592, Note_on_c, 0, 72, 0
4, 89617, Note_on_c, 0, 58, 60
4, 89619, Note_on_c, 0, 70, 62
4, 89620, Note_on_c, 0, 66, 64
4, 89620, Note_on_c, 0, 68, 60
4, 89622, Note_on_c, 0, 64, 65
4, 89636, Note_on_c, 0, 70, 0
4, 89641, Note_on_c, 0, 68, 0
4, 89641, Note_on_c, 0, 64, 0
4, 89643, Note_on_c, 0, 66, 0
4, 89667, Note_on_c, 0, 58, 0
4, 89667, Note_on_c, 0, 56, 44
4, 89669, Note_on_c, 0, 68, 49
4, 89671, Note_on_c, 0, 63, 45
4, 89675, Note_on_c, 0, 60, 34
4, 89689, Note_on_c, 0, 68, 0
4, 89691, Note_on_c, 0, 60, 0
4, 89698, Note_on_c, 0, 63, 0
4, 89726, Note_on_c, 0, 56, 0
4, 89736, Note_on_c, 0, 67, 54
4, 89737, Note_on_c, 0, 63, 62
4, 89738, Note_on_c, 0, 55, 65
4, 89740, Note_on_c, 0, 59, 60
4, 89745, Control_c, 0, 64, 127
4, 89758, Note_on_c, 0, 59, 0
4, 89763, Note_on_c, 0, 67, 0
4, 89767, Note_on_c, 0, 63, 0
4, 89775, Control_c, 0, 64, 0
4, 89776, Note_on_c, 0, 55, 0
4, 89793, Note_on_c, 0, 59, 40
4, 89794, Note_on_c, 0, 63, 35
4, 89794, Note_on_c, 0, 53, 36
4, 89794, Note_on_c, 0, 65, 55
4, 89894, Control_c, 0, 64, 127
4, 89942, Note_on_c, 0, 59, 0
4, 89945, Note_on_c, 0, 65, 0
4, 89945, Note_on_c, 0, 53, 0
4, 89946, Note_on_c, 0, 63, 0
4, 89970, Note_on_c, 0, 65, 50
4, 89971, Note_on_c, 0, 59, 50
4, 89972, Note_on_c, 0, 63, 39
4, 89977, Note_on_c, 0, 53, 48
4, 89982, Control_c, 0, 64, 0
4, 90022, Control_c, 0, 64, 127
4, 90063, Note_on_c, 0, 59, 0
4, 90075, Note_on_c, 0, 53, 0
4, 90078, Note_on_c, 0, 63, 0
4, 90093, Note_on_c, 0, 65, 0
4, 90206, Note_on_c, 0, 75, 82
4, 90207, Note_on_c, 0, 61, 74
4, 90207, Note_on_c, 0, 58, 69
4, 90207, Note_on_c, 0, 79, 76
4, 90208, Note_on_c, 0, 67, 90
4, 90209, Control_c, 0, 64, 0
4, 90209, Note_on_c, 0, 53, 69
4, 90210, Note_on_c, 0, 55, 64
4, 90218, Note_on_c, 0, 55, 0
4, 90227, Note_on_c, 0, 55, 18
4, 90233, Note_on_c, 0, 61, 0
4, 90236, Note_on_c, 0, 67, 0
4, 90237, Note_on_c, 0, 55, 0
4, 90239, Note_on_c, 0, 53, 0
4, 90243, Note_on_c, 0, 79, 0
4, 90244, Note_on_c, 0, 75, 0
4, 90250, Note_on_c, 0, 58, 0
4, 90326, Note_on_c, 0, 53, 60
4, 90327, Note_on_c, 0, 68, 72
4, 90327, Note_on_c, 0, 61, 61
4, 90327, Note_on_c, 0, 80, 62
4, 90328, Note_on_c, 0, 58, 50
4, 90330, Note_on_c, 0, 75, 55
4, 90332, Note_on_c, 0, 55, 37
4, 90337, Note_on_c, 0, 75, 0
4, 90340, Note_on_c, 0, 68, 0
4, 90341, Note_on_c, 0, 55, 0
4, 90342, Note_on_c, 0, 80, 0
4, 90342, Note_on_c, 0, 61, 0
4, 90343, Note_on_c, 0, 53, 0
4, 90352, Note_on_c, 0, 58, 0
4, 90368, Note_on_c, 0, 61, 58
4, 90372, Note_on_c, 0, 70, 60
4, 90372, Note_on_c, 0, 82, 67
4, 90374, Note_on_c, 0, 58, 30
4, 90376, Note_on_c, 0, 53, 27
4, 90382, Note_on_c, 0, 70, 0
4, 90382, Note_on_c, 0, 61, 0
4, 90384, Note_on_c, 0, 53, 0
4, 90386, Note_on_c, 0, 82, 0
4, 90386, Note_on_c, 0, 58, 0
4, 90445, Note_on_c, 0, 58, 70
4, 90446, Note_on_c, 0, 84, 70
4, 90447, Note_on_c, 0, 72, 74
4, 90456, Note_on_c, 0, 72, 0
4, 90456, Note_on_c, 0, 84, 0
4, 90461, Note_on_c, 0, 58, 0
4, 90486, Note_on_c, 0, 63, 77
4, 90486, Note_on_c, 0, 58, 67
4, 90486, Note_on_c, 0, 73, 54
4, 90488, Note_on_c, 0, 85, 74
4, 90490, Note_on_c, 0, 52, 55
4, 90497, Note_on_c, 0, 52, 0
4, 90498, Note_on_c, 0, 63, 0
4, 90503, Note_on_c, 0, 73, 0
4, 90504, Note_on_c, 0, 58, 0
4, 90505, Note_on_c, 0, 85, 0
4, 90522, Note_on_c, 0, 72, 58
4, 90523, Note_on_c, 0, 84, 58
4, 90530, Note_on_c, 0, 84, 0
4, 90530, Note_on_c, 0, 72, 0
4, 90565, Note_on_c, 0, 87, 90
4, 90566, Note_on_c, 0, 75, 82
4, 90566, Note_on_c, 0, 63, 85
4, 90567, Note_on_c, 0, 58, 76
4, 90568, Note_on_c, 0, 52, 84
4, 90577, Note_on_c, 0, 88, 24
4, 90583, Note_on_c, 0, 88, 0
4, 90619, Note_on_c, 0, 87, 0
4, 90620, Note_on_c, 0, 52, 0
4, 90621, Note_on_c, 0, 63, 0
4, 90624, Note_on_c, 0, 75, 0
4, 90628, Note_on_c, 0, 58, 0
4, 90645, Note_on_c, 0, 85, 65
4, 90645, Note_on_c, 0, 63, 68
4, 90646, Note_on_c, 0, 52, 63
4, 90646, Note_on_c, 0, 58, 64
4, 90647, Note_on_c, 0, 73, 46
4, 90684, Note_on_c, 0, 52, 0
4, 90695, Note_on_c, 0, 58, 0
4, 90698, Note_on_c, 0, 85, 0
4, 90699, Note_on_c, 0, 63, 0
4, 90716, Note_on_c, 0, 73, 0
4, 90732, Note_on_c, 0, 84, 58
4, 90732, Note_on_c, 0, 53, 58
4, 90734, Note_on_c, 0, 64, 60
4, 90734, Note_on_c, 0, 60, 57
4, 90735, Note_on_c, 0, 56, 45
4, 90736, Note_on_c, 0, 72, 60
4, 90762, Note_on_c, 0, 84, 0
4, 90768, Note_on_c, 0, 64, 0
4, 90771, Control_c, 0, 64, 127
4, 90772, Note_on_c, 0, 60, 0
4, 90774, Note_on_c, 0, 72, 0
4, 90784, Note_on_c, 0, 56, 0
4, 90788, Note_on_c, 0, 53, 0
4, 90849, Note_on_c, 0, 62, 70
4, 90849, Note_on_c, 0, 52, 49
4, 90850, Note_on_c, 0, 67, 56
4, 90851, Control_c, 0, 64, 0
4, 90885, Control_c, 0, 64, 127
4, 90921, Note_on_c, 0, 62, 0
4, 90956, Note_on_c, 0, 67, 0
4, 90966, Control_c, 0, 64, 0
4, 90969, Note_on_c, 0, 52, 0
4, 90969, Note_on_c, 0, 61, 51
4, 90970, Note_on_c, 0, 66, 46
4, 90972, Note_on_c, 0, 51, 52
4, 90998, Control_c, 0, 64, 127
4, 91056, Note_on_c, 0, 66, 0
4, 91064, Note_on_c, 0, 49, 23
4, 91068, Note_on_c, 0, 61, 0
4, 91088, Control_c, 0, 64, 0
4, 91090, Note_on_c, 0, 51, 0
4, 91092, Note_on_c, 0, 49, 0
4, 91092, Note_on_c, 0, 50, 57
4, 91095, Note_on_c, 0, 65, 61
4, 91096, Note_on_c, 0, 60, 45
4, 91110, Control_c, 0, 64, 127
4, 91153, Note_on_c, 0, 65, 0
4, 91157, Note_on_c, 0, 60, 0
4, 91206, Note_on_c, 0, 50, 0
4, 91208, Control_c, 0, 64, 0
4, 91216, Note_on_c, 0, 67, 38
4, 91218, Note_on_c, 0, 63, 37
4, 91218, Note_on_c, 0, 49, 46
4, 91220, Note_on_c, 0, 59, 38
4, 91232, Control_c, 0, 64, 127
4, 91244, Note_on_c, 0, 59, 0
4, 91262, Note_on_c, 0, 63, 0
4, 91265, Note_on_c, 0, 67, 0
4, 91336, Note_on_c, 0, 70, 78
4, 91337, Note_on_c, 0, 63, 81
4, 91337, Note_on_c, 0, 58, 83
4, 91338, Note_on_c, 0, 67, 73
4, 91339, Note_on_c, 0, 59, 84
4, 91340, Control_c, 0, 64, 0
4, 91365, Control_c, 0, 64, 127
4, 91388, Note_on_c, 0, 67, 0
4, 91391, Note_on_c, 0, 58, 0
4, 91397, Note_on_c, 0, 70, 0
4, 91403, Note_on_c, 0, 59, 0
4, 91411, Note_on_c, 0, 49, 0
4, 91411, Note_on_c, 0, 63, 0
4, 91458, Note_on_c, 0, 68, 68
4, 91460, Note_on_c, 0, 64, 64
4, 91460, Note_on_c, 0, 58, 67
4, 91461, Note_on_c, 0, 61, 57
4, 91463, Control_c, 0, 64, 0
4, 91463, Note_on_c, 0, 48, 62
4, 91503, Control_c, 0, 64, 127
4, 91526, Note_on_c, 0, 68, 0
4, 91528, Note_on_c, 0, 64, 0
4, 91528, Note_on_c, 0, 58, 0
4, 91539, Note_on_c, 0, 61, 0
4, 91586, Note_on_c, 0, 60, 125
4, 91594, Note_on_c, 0, 48, 0
4, 91608, Note_on_c, 0, 60, 0
4, 91624, Note_on_c, 0, 60, 89
4, 91640, Note_on_c, 0, 60, 0
4, 91656, Note_on_c, 0, 60, 88
4, 91673, Note_on_c, 0, 60, 0
4, 91687, Note_on_c, 0, 60, 78
4, 91712, Note_on_c, 0, 60, 0
4, 91728, Note_on_c, 0, 67, 76
4, 91729, Note_on_c, 0, 60, 91
4, 91730, Note_on_c, 0, 56, 79
4, 91730, Note_on_c, 0, 41, 70
4, 91732, Note_on_c, 0, 64, 68
4, 91732, Control_c, 0, 64, 0
4, 91780, Control_c, 0, 64, 127
4, 91804, Note_on_c, 0, 48, 66
4, 91851, Note_on_c, 0, 41, 0
4, 91875, Note_on_c, 0, 67, 0
4, 91885, Note_on_c, 0, 60, 0
4, 91885, Note_on_c, 0, 55, 87
4, 91893, Note_on_c, 0, 46, 20
4, 91910, Note_on_c, 0, 56, 0
4, 91951, Note_on_c, 0, 56, 74
4, 91962, Note_on_c, 0, 64, 0
4, 91982, Note_on_c, 0, 56, 0
4, 91990, Note_on_c, 0, 60, 80
4, 92024, Note_on_c, 0, 60, 0
4, 92027, Note_on_c, 0, 67, 75
4, 92044, Note_on_c, 0, 67, 0
4, 92068, Note_on_c, 0, 72, 80
4, 92092, Note_on_c, 0, 72, 0
4, 92109, Note_on_c, 0, 76, 90
4, 92141, Note_on_c, 0, 76, 0
4, 92159, Note_on_c, 0, 77, 91
4, 92195, Note_on_c, 0, 77, 0
4, 92215, Note_on_c, 0, 79, 94
4, 92248, Note_on_c, 0, 79, 0
4, 92277, Note_on_c, 0, 72, 96
4, 92318, Note_on_c, 0, 72, 0
4, 92327, Note_on_c, 0, 55, 0
4, 92339, Note_on_c, 0, 72, 88
4, 92341, Note_on_c, 0, 46, 0
4, 92346, Note_on_c, 0, 48, 0
4, 92370, Note_on_c, 0, 72, 0
4, 92397, Note_on_c, 0, 72, 91
4, 92425, Note_on_c, 0, 72, 0
4, 92451, Note_on_c, 0, 72, 76
4, 92484, Note_on_c, 0, 72, 0
4, 92522, Note_on_c, 0, 22, 72
4, 92522, Note_on_c, 0, 34, 83
4, 92522, Note_on_c, 0, 79, 80
4, 92523, Note_on_c, 0, 72, 85
4, 92523, Note_on_c, 0, 68, 84
4, 92523, Note_on_c, 0, 76, 68
4, 92525, Control_c, 0, 64, 0
4, 92563, Control_c, 0, 64, 127
4, 92566, Note_on_c, 0, 79, 0
4, 92567, Note_on_c, 0, 22, 0
4, 92570, Note_on_c, 0, 76, 0
4, 92572, Note_on_c, 0, 72, 0
4, 92574, Note_on_c, 0, 34, 0
4, 92582, Note_on_c, 0, 68, 0
4, 92641, Note_on_c, 0, 64, 77
4, 92641, Note_on_c, 0, 46, 62
4, 92644, Note_on_c, 0, 60, 72
4, 92700, Note_on_c, 0, 60, 0
4, 92705, Note_on_c, 0, 64, 0
4, 92705, Note_on_c, 0, 56, 53
4, 92706, Note_on_c, 0, 67, 68
4, 92708, Note_on_c, 0, 46, 0
4, 92715, Note_on_c, 0, 56, 0
4, 92721, Note_on_c, 0, 67, 0
4, 92766, Note_on_c, 0, 72, 49
4, 92766, Note_on_c, 0, 79, 55
4, 92771, Note_on_c, 0, 62, 51
4, 92800, Note_on_c, 0, 72, 0
4, 92809, Note_on_c, 0, 79, 0
4, 92838, Note_on_c, 0, 67, 49
4, 92841, Note_on_c, 0, 84, 72
4, 92844, Note_on_c, 0, 91, 74
4, 92894, Note_on_c, 0, 84, 0
4, 92897, Note_on_c, 0, 91, 0
4, 92897, Note_on_c, 0, 62, 0
4, 92906, Note_on_c, 0, 79, 59
4, 92913, Note_on_c, 0, 88, 57
4, 92914, Note_on_c, 0, 62, 58
4, 92922, Note_on_c, 0, 79, 0
4, 92930, Note_on_c, 0, 88, 0
4, 92980, Note_on_c, 0, 96, 74
4, 92984, Note_on_c, 0, 103, 49
4, 92984, Note_on_c, 0, 105, 44
4, 92993, Note_on_c, 0, 105, 0
4, 93034, Note_on_c, 0, 96, 0
4, 93035, Note_on_c, 0, 103, 0
4, 93047, Note_on_c, 0, 56, 49
4, 93047, Note_on_c, 0, 91, 47
4, 93049, Note_on_c, 0, 67, 0
4, 93049, Note_on_c, 0, 100, 52
4, 93057, Note_on_c, 0, 62, 0
4, 93076, Note_on_c, 0, 56, 0
4, 93080, Note_on_c, 0, 91, 0
4, 93114, Note_on_c, 0, 100, 0
4, 93128, Note_on_c, 0, 46, 51
4, 93132, Note_on_c, 0, 96, 60
4, 93134, Note_on_c, 0, 103, 53
4, 93154, Note_on_c, 0, 46, 0
4, 93180, Note_on_c, 0, 96, 0
4, 93199, Note_on_c, 0, 103, 0
4, 93212, Note_on_c, 0, 46, 50
4, 93214, Note_on_c, 0, 100, 43
4, 93214, Note_on_c, 0, 91, 37
4, 93232, Note_on_c, 0, 46, 0
4, 93239, Note_on_c, 0, 91, 0
4, 93253, Note_on_c, 0, 100, 0
4, 93310, Note_on_c, 0, 34, 50
4, 93310, Note_on_c, 0, 103, 58
4, 93311, Note_on_c, 0, 91, 46
4, 93313, Note_on_c, 0, 96, 54
4, 93314, Note_on_c, 0, 100, 49
4, 93377, Note_on_c, 0, 96, 0
4, 93379, Note_on_c, 0, 103, 0
4, 93384, Note_on_c, 0, 100, 0
4, 93393, Note_on_c, 0, 91, 0
4, 93434, Note_on_c, 0, 22, 44
4, 93821, Control_c, 0, 64, 0
4, 93967, Note_on_c, 0, 22, 0
4, 93972, Note_on_c, 0, 34, 0
4, 93972, End_track
5, 0, Start_track
5, 0, MIDI_port, 0
5, 0, Title_t, ""
5, 46298, Note_on_c, 9, 35, 46
5, 46310, Note_on_c, 9, 35, 0
5, 46343, Note_on_c, 9, 35, 39
5, 46382, Note_on_c, 9, 35, 0
5, 46537, Note_on_c, 9, 35, 36
5, 46548, Note_on_c, 9, 35, 0
5, 47017, Note_on_c, 9, 44, 59
5, 47025, Note_on_c, 9, 44, 0
5, 47066, Note_on_c, 9, 35, 33
5, 47088, Note_on_c, 9, 35, 0
5, 47270, Note_on_c, 9, 35, 39
5, 47281, Note_on_c, 9, 35, 0
5, 47313, Note_on_c, 9, 35, 24
5, 47330, Note_on_c, 9, 35, 0
5, 47499, Note_on_c, 9, 46, 40
5, 47506, Note_on_c, 9, 46, 0
5, 47610, Note_on_c, 9, 46, 74
5, 47621, Note_on_c, 9, 46, 0
5, 47727, Note_on_c, 9, 46, 69
5, 47741, Note_on_c, 9, 46, 0
5, 47857, Note_on_c, 9, 35, 24
5, 47872, Note_on_c, 9, 35, 0
5, 47960, Note_on_c, 9, 40, 66
5, 47973, Note_on_c, 9, 40, 0
5, 48000, Note_on_c, 9, 35, 43
5, 48050, Note_on_c, 9, 35, 0
5, 48457, Note_on_c, 9, 35, 46
5, 48470, Note_on_c, 9, 35, 0
5, 48506, Note_on_c, 9, 35, 20
5, 48546, Note_on_c, 9, 35, 0
5, 48807, Note_on_c, 9, 30, 52
5, 48828, Note_on_c, 9, 30, 0
5, 49176, Note_on_c, 9, 35, 22
5, 49184, Note_on_c, 9, 35, 0
5, 49214, Note_on_c, 9, 35, 20
5, 49233, Note_on_c, 9, 35, 0
5, 49532, Note_on_c, 9, 29, 58
5, 49891, Note_on_c, 9, 34, 77
5, 49897, Note_on_c, 9, 29, 0
5, 49933, Note_on_c, 9, 35, 64
5, 49936, Note_on_c, 9, 34, 0
5, 49936, Note_on_c, 9, 57, 45
5, 49947, Note_on_c, 9, 57, 0
5, 49999, Note_on_c, 9, 35, 0
5, 50249, Note_on_c, 9, 35, 50
5, 50258, Note_on_c, 9, 35, 0
5, 50409, Note_on_c, 9, 35, 44
5, 50422, Note_on_c, 9, 35, 0
5, 50847, Note_on_c, 9, 38, 67
5, 50855, Note_on_c, 9, 38, 0
5, 50890, Note_on_c, 9, 35, 34
5, 50929, Note_on_c, 9, 35, 0
5, 50972, Note_on_c, 9, 35, 52
5, 50983, Note_on_c, 9, 35, 0
5, 51259, Note_on_c, 9, 40, 31
5, 51272, Note_on_c, 9, 40, 0
5, 51291, Note_on_c, 9, 40, 55
5, 51306, Note_on_c, 9, 40, 0
5, 51593, Note_on_c, 9, 40, 52
5, 51604, Note_on_c, 9, 40, 0
5, 51706, Note_on_c, 9, 40, 49
5, 51716, Note_on_c, 9, 40, 0
5, 51817, Note_on_c, 9, 40, 59
5, 51827, Note_on_c, 9, 40, 0
5, 51867, Note_on_c, 9, 35, 26
5, 51884, Note_on_c, 9, 35, 0
5, 51932, Note_on_c, 9, 35, 48
5, 51946, Note_on_c, 9, 35, 0
5, 52283, Note_on_c, 9, 40, 40
5, 52294, Note_on_c, 9, 40, 0
5, 52514, Note_on_c, 9, 40, 38
5, 52532, Note_on_c, 9, 40, 0
5, 52641, Note_on_c, 9, 40, 53
5, 52651, Note_on_c, 9, 40, 0
5, 52753, Note_on_c, 9, 40, 63
5, 52767, Note_on_c, 9, 40, 0
5, 52793, Note_on_c, 9, 57, 66
5, 52798, Note_on_c, 9, 35, 51
5, 52809, Note_on_c, 9, 57, 0
5, 52832, Note_on_c, 9, 35, 0
5, 53184, Note_on_c, 9, 40, 62
5, 53195, Note_on_c, 9, 40, 0
5, 53225, Note_on_c, 9, 40, 52
5, 53238, Note_on_c, 9, 40, 0
5, 53273, Note_on_c, 9, 35, 40
5, 53294, Note_on_c, 9, 35, 0
5, 53376, Note_on_c, 9, 40, 57
5, 53398, Note_on_c, 9, 40, 0
5, 53419, Note_on_c, 9, 40, 71
5, 53440, Note_on_c, 9, 40, 0
5, 53462, Note_on_c, 9, 35, 57
5, 53478, Note_on_c, 9, 35, 0
5, 53542, Note_on_c, 9, 40, 62
5, 53562, Note_on_c, 9, 40, 0
5, 53581, Note_on_c, 9, 40, 66
5, 53602, Note_on_c, 9, 40, 0
5, 53625, Note_on_c, 9, 35, 43
5, 53646, Note_on_c, 9, 35, 0
5, 53703, Note_on_c, 9, 35, 70
5, 53742, Note_on_c, 9, 35, 0
5, 54128, Note_on_c, 9, 46, 37
5, 54138, Note_on_c, 9, 46, 0
5, 54213, Note_on_c, 9, 46, 71
5, 54228, Note_on_c, 9, 46, 0
5, 54302, Note_on_c, 9, 46, 49
5, 54310, Note_on_c, 9, 46, 0
5, 54386, Note_on_c, 9, 46, 50
5, 54395, Note_on_c, 9, 46, 0
5, 54463, Note_on_c, 9, 46, 60
5, 54473, Note_on_c, 9, 46, 0
5, 54542, Note_on_c, 9, 46, 71
5, 54559, Note_on_c, 9, 46, 0
5, 54623, Note_on_c, 9, 46, 81
5, 54643, Note_on_c, 9, 46, 0
5, 54700, Note_on_c, 9, 35, 74
5, 54724, Note_on_c, 9, 35, 0
5, 54742, Note_on_c, 9, 35, 68
5, 54804, Note_on_c, 9, 35, 0
5, 54935, Note_on_c, 9, 35, 45
5, 54948, Note_on_c, 9, 35, 0
5, 54976, Note_on_c, 9, 35, 53
5, 55002, Note_on_c, 9, 35, 0
5, 55303, Note_on_c, 9, 35, 38
5, 55315, Note_on_c, 9, 35, 0
5, 55412, Note_on_c, 9, 35, 47
5, 55422, Note_on_c, 9, 35, 0
5, 55447, Note_on_c, 9, 45, 61
5, 55456, Note_on_c, 9, 45, 0
5, 55480, Note_on_c, 9, 45, 70
5, 55499, Note_on_c, 9, 45, 0
5, 55574, Note_on_c, 9, 43, 68
5, 55583, Note_on_c, 9, 43, 0
5, 55653, Note_on_c, 9, 35, 80
5, 55656, Note_on_c, 9, 34, 30
5, 55665, Note_on_c, 9, 34, 0
5, 55695, Note_on_c, 9, 57, 62
5, 55709, Note_on_c, 9, 57, 0
5, 55712, Note_on_c, 9, 35, 0
5, 56120, Note_on_c, 9, 35, 56
5, 56129, Note_on_c, 9, 35, 0
5, 56162, Note_on_c, 9, 35, 44
5, 56178, Note_on_c, 9, 35, 0
5, 56605, Note_on_c, 9, 35, 36
5, 56616, Note_on_c, 9, 35, 0
5, 56644, Note_on_c, 9, 40, 51
5, 56672, Note_on_c, 9, 40, 0
5, 56693, Note_on_c, 9, 40, 26
5, 56705, Note_on_c, 9, 40, 0
5, 56768, Note_on_c, 9, 40, 55
5, 56778, Note_on_c, 9, 40, 0
5, 56801, Note_on_c, 9, 40, 42
5, 56817, Note_on_c, 9, 40, 0
5, 56967, Note_on_c, 9, 35, 55
5, 56977, Note_on_c, 9, 35, 0
5, 57092, Note_on_c, 9, 35, 27
5, 57102, Note_on_c, 9, 35, 0
5, 57207, Note_on_c, 9, 35, 44
5, 57219, Note_on_c, 9, 35, 0
5, 57442, Note_on_c, 9, 29, 73
5, 57565, Note_on_c, 9, 34, 86
5, 57586, Note_on_c, 9, 29, 0
5, 57601, Note_on_c, 9, 34, 0
5, 57610, Note_on_c, 9, 35, 80
5, 57612, Note_on_c, 9, 40, 44
5, 57621, Note_on_c, 9, 40, 0
5, 57692, Note_on_c, 9, 35, 0
5, 58048, Note_on_c, 9, 35, 54
5, 58063, Note_on_c, 9, 35, 0
5, 58094, Note_on_c, 9, 35, 41
5, 58110, Note_on_c, 9, 35, 0
5, 58406, Note_on_c, 9, 35, 22
5, 58415, Note_on_c, 9, 35, 0
5, 58449, Note_on_c, 9, 37, 82
5, 58484, Note_on_c, 9, 37, 0
5, 58529, Note_on_c, 9, 35, 36
5, 58541, Note_on_c, 9, 35, 0
5, 58568, Note_on_c, 9, 35, 43
5, 58600, Note_on_c, 9, 35, 0
5, 58651, Note_on_c, 9, 35, 38
5, 58665, Note_on_c, 9, 35, 0
5, 58939, Note_on_c, 9, 34, 62
5, 58967, Note_on_c, 9, 34, 0
5, 59137, Note_on_c, 9, 35, 34
5, 59149, Note_on_c, 9, 35, 0
5, 59252, Note_on_c, 9, 40, 76
5, 59270, Note_on_c, 9, 40, 0
5, 59331, Note_on_c, 9, 40, 71
5, 59359, Note_on_c, 9, 40, 0
5, 59414, Note_on_c, 9, 40, 58
5, 59437, Note_on_c, 9, 40, 0
5, 59492, Note_on_c, 9, 35, 48
5, 59503, Note_on_c, 9, 35, 0
5, 59535, Note_on_c, 9, 35, 42
5, 59572, Note_on_c, 9, 35, 0
5, 59605, Note_on_c, 9, 35, 44
5, 59616, Note_on_c, 9, 35, 0
5, 59865, Note_on_c, 9, 35, 24
5, 59877, Note_on_c, 9, 35, 0
5, 59975, Note_on_c, 9, 35, 36
5, 59988, Note_on_c, 9, 35, 0
5, 60005, Note_on_c, 9, 40, 50
5, 60019, Note_on_c, 9, 40, 0
5, 60042, Note_on_c, 9, 40, 28
5, 60063, Note_on_c, 9, 40, 0
5, 60086, Note_on_c, 9, 40, 53
5, 60095, Note_on_c, 9, 40, 0
5, 60167, Note_on_c, 9, 40, 53
5, 60193, Note_on_c, 9, 40, 0
5, 60203, Note_on_c, 9, 40, 20
5, 60213, Note_on_c, 9, 40, 0
5, 60326, Note_on_c, 9, 35, 51
5, 60338, Note_on_c, 9, 35, 0
5, 60576, Note_on_c, 9, 35, 22
5, 60585, Note_on_c, 9, 35, 0
5, 60589, Note_on_c, 9, 40, 54
5, 60598, Note_on_c, 9, 40, 0
5, 60630, Note_on_c, 9, 40, 43
5, 60647, Note_on_c, 9, 40, 0
5, 60810, Note_on_c, 9, 35, 47
5, 60821, Note_on_c, 9, 35, 0
5, 60849, Note_on_c, 9, 40, 35
5, 60862, Note_on_c, 9, 40, 0
5, 60933, Note_on_c, 9, 40, 36
5, 60943, Note_on_c, 9, 40, 0
5, 61053, Note_on_c, 9, 35, 30
5, 61063, Note_on_c, 9, 35, 0
5, 61171, Note_on_c, 9, 35, 46
5, 61182, Note_on_c, 9, 35, 0
5, 61282, Note_on_c, 9, 34, 71
5, 61305, Note_on_c, 9, 34, 0
5, 61404, Note_on_c, 9, 34, 64
5, 61428, Note_on_c, 9, 34, 0
5, 61446, Note_on_c, 9, 57, 79
5, 61447, Note_on_c, 9, 35, 74
5, 61720, Note_on_c, 9, 35, 0
5, 61753, Note_on_c, 9, 57, 0
5, 61767, Note_on_c, 9, 34, 67
5, 61792, Note_on_c, 9, 34, 0
5, 61811, Note_on_c, 9, 57, 84
5, 61811, Note_on_c, 9, 35, 79
5, 61997, Note_on_c, 9, 57, 0
5, 62195, Note_on_c, 9, 35, 0
5, 62249, Note_on_c, 9, 35, 33
5, 62263, Note_on_c, 9, 35, 0
5, 62287, Note_on_c, 9, 40, 33
5, 62301, Note_on_c, 9, 40, 0
5, 62366, Note_on_c, 9, 40, 65
5, 62390, Note_on_c, 9, 40, 0
5, 62420, Note_on_c, 9, 40, 40
5, 62433, Note_on_c, 9, 40, 0
5, 62492, Note_on_c, 9, 35, 51
5, 62505, Note_on_c, 9, 35, 0
5, 62550, Note_on_c, 9, 35, 18
5, 62565, Note_on_c, 9, 35, 0
5, 62608, Note_on_c, 9, 35, 49
5, 62619, Note_on_c, 9, 35, 0
5, 62856, Note_on_c, 9, 35, 22
5, 62864, Note_on_c, 9, 35, 0
5, 62973, Note_on_c, 9, 35, 41
5, 62984, Note_on_c, 9, 35, 0
5, 63075, Note_on_c, 9, 44, 33
5, 63084, Note_on_c, 9, 44, 0
5, 63197, Note_on_c, 9, 44, 60
5, 63206, Note_on_c, 9, 44, 0
5, 63323, Note_on_c, 9, 44, 57
5, 63331, Note_on_c, 9, 44, 0
5, 63447, Note_on_c, 9, 35, 36
5, 63458, Note_on_c, 9, 35, 0
5, 63481, Note_on_c, 9, 35, 41
5, 63517, Note_on_c, 9, 35, 0
5, 63568, Note_on_c, 9, 35, 49
5, 63580, Note_on_c, 9, 35, 0
5, 63924, Note_on_c, 9, 35, 29
5, 63934, Note_on_c, 9, 35, 0
5, 63970, Note_on_c, 9, 44, 31
5, 63978, Note_on_c, 9, 44, 0
5, 64039, Note_on_c, 9, 44, 59
5, 64049, Note_on_c, 9, 44, 0
5, 64155, Note_on_c, 9, 35, 44
5, 64166, Note_on_c, 9, 35, 0
5, 64196, Note_on_c, 9, 40, 55
5, 64205, Note_on_c, 9, 40, 0
5, 64231, Note_on_c, 9, 40, 42
5, 64242, Note_on_c, 9, 40, 0
5, 64278, Note_on_c, 9, 35, 51
5, 64291, Note_on_c, 9, 35, 0
5, 64525, Note_on_c, 9, 40, 43
5, 64535, Note_on_c, 9, 40, 0
5, 64651, Note_on_c, 9, 40, 36
5, 64662, Note_on_c, 9, 40, 0
5, 64771, Note_on_c, 9, 40, 58
5, 64782, Note_on_c, 9, 40, 0
5, 64891, Note_on_c, 9, 35, 55
5, 64902, Note_on_c, 9, 35, 0
5, 65125, Note_on_c, 9, 40, 36
5, 65137, Note_on_c, 9, 40, 0
5, 65165, Note_on_c, 9, 44, 36
5, 65183, Note_on_c, 9, 44, 0
5, 65243, Note_on_c, 9, 40, 65
5, 65252, Note_on_c, 9, 40, 0
5, 65359, Note_on_c, 9, 40, 56
5, 65370, Note_on_c, 9, 40, 0
5, 65480, Note_on_c, 9, 40, 56
5, 65489, Note_on_c, 9, 40, 0
5, 65605, Note_on_c, 9, 40, 71
5, 65625, Note_on_c, 9, 40, 0
5, 65722, Note_on_c, 9, 40, 68
5, 65740, Note_on_c, 9, 40, 0
5, 65763, Note_on_c, 9, 57, 54
5, 65766, Note_on_c, 9, 35, 49
5, 65783, Note_on_c, 9, 57, 0
5, 65795, Note_on_c, 9, 35, 0
5, 66087, Note_on_c, 9, 40, 56
5, 66096, Note_on_c, 9, 40, 0
5, 66136, Note_on_c, 9, 35, 40
5, 66149, Note_on_c, 9, 35, 0
5, 66204, Note_on_c, 9, 35, 83
5, 66259, Note_on_c, 9, 35, 0
5, 66692, Note_on_c, 9, 40, 22
5, 66700, Note_on_c, 9, 40, 0
5, 66795, Note_on_c, 9, 44, 51
5, 66804, Note_on_c, 9, 44, 0
5, 66915, Note_on_c, 9, 44, 62
5, 66925, Note_on_c, 9, 44, 0
5, 67037, Note_on_c, 9, 44, 57
5, 67049, Note_on_c, 9, 44, 0
5, 67158, Note_on_c, 9, 35, 62
5, 67181, Note_on_c, 9, 35, 0
5, 67465, Note_on_c, 9, 46, 52
5, 67475, Note_on_c, 9, 46, 0
5, 67559, Note_on_c, 9, 46, 60
5, 67577, Note_on_c, 9, 46, 0
5, 67640, Note_on_c, 9, 35, 44
5, 67651, Note_on_c, 9, 35, 0
5, 67680, Note_on_c, 9, 35, 49
5, 67730, Note_on_c, 9, 35, 0
5, 67882, Note_on_c, 9, 35, 51
5, 67892, Note_on_c, 9, 35, 0
5, 68251, Note_on_c, 9, 35, 24
5, 68260, Note_on_c, 9, 35, 0
5, 68371, Note_on_c, 9, 37, 78
5, 68389, Note_on_c, 9, 37, 0
5, 68493, Note_on_c, 9, 35, 24
5, 68500, Note_on_c, 9, 35, 0
5, 68527, Note_on_c, 9, 35, 35
5, 68540, Note_on_c, 9, 35, 0
5, 68603, Note_on_c, 9, 40, 66
5, 68613, Note_on_c, 9, 40, 0
5, 68726, Note_on_c, 9, 40, 20
5, 68737, Note_on_c, 9, 40, 0
5, 68837, Note_on_c, 9, 40, 78
5, 68854, Note_on_c, 9, 40, 0
5, 68961, Note_on_c, 9, 40, 87
5, 68985, Note_on_c, 9, 40, 0
5, 69080, Note_on_c, 9, 34, 68
5, 69100, Note_on_c, 9, 34, 0
5, 69115, Note_on_c, 9, 57, 92
5, 69117, Note_on_c, 9, 35, 87
5, 69416, Note_on_c, 9, 35, 0
5, 69438, Note_on_c, 9, 57, 0
5, 69453, Note_on_c, 9, 35, 56
5, 69461, Note_on_c, 9, 35, 0
5, 69725, Note_on_c, 9, 40, 52
5, 69746, Note_on_c, 9, 40, 0
5, 69809, Note_on_c, 9, 40, 91
5, 69902, Note_on_c, 9, 40, 0
5, 69921, Note_on_c, 9, 40, 56
5, 69931, Note_on_c, 9, 40, 0
5, 70047, Note_on_c, 9, 35, 55
5, 70059, Note_on_c, 9, 35, 0
5, 70645, Note_on_c, 9, 29, 60
5, 70889, Note_on_c, 9, 32, 42
5, 70914, Note_on_c, 9, 29, 0
5, 70922, Note_on_c, 9, 34, 86
5, 70938, Note_on_c, 9, 32, 0
5, 70999, Note_on_c, 9, 57, 94
5, 71003, Note_on_c, 9, 35, 88
5, 71004, Note_on_c, 9, 34, 0
5, 71406, Note_on_c, 9, 35, 0
5, 71406, Note_on_c, 9, 57, 0
5, 71412, Note_on_c, 9, 34, 46
5, 71487, Note_on_c, 9, 34, 0
5, 71489, Note_on_c, 9, 35, 80
5, 71564, Note_on_c, 9, 35, 0
5, 71848, Note_on_c, 9, 40, 53
5, 71856, Note_on_c, 9, 40, 0
5, 71964, Note_on_c, 9, 40, 60
5, 71973, Note_on_c, 9, 40, 0
5, 72234, Note_on_c, 9, 40, 55
5, 72245, Note_on_c, 9, 40, 0
5, 72276, Note_on_c, 9, 40, 36
5, 72289, Note_on_c, 9, 40, 0
5, 72435, Note_on_c, 9, 35, 38
5, 72447, Note_on_c, 9, 35, 0
5, 72482, Note_on_c, 9, 40, 28
5, 72497, Note_on_c, 9, 40, 0
5, 72519, Note_on_c, 9, 40, 46
5, 72528, Note_on_c, 9, 40, 0
5, 72607, Note_on_c, 9, 40, 46
5, 72616, Note_on_c, 9, 40, 0
5, 72677, Note_on_c, 9, 40, 50
5, 72688, Note_on_c, 9, 40, 0
5, 72756, Note_on_c, 9, 40, 48
5, 72773, Note_on_c, 9, 40, 0
5, 72803, Note_on_c, 9, 35, 42
5, 72814, Note_on_c, 9, 35, 0
5, 72844, Note_on_c, 9, 44, 31
5, 72855, Note_on_c, 9, 44, 0
5, 72916, Note_on_c, 9, 44, 53
5, 72937, Note_on_c, 9, 44, 0
5, 72995, Note_on_c, 9, 44, 50
5, 73014, Note_on_c, 9, 44, 0
5, 73048, Note_on_c, 9, 35, 35
5, 73060, Note_on_c, 9, 35, 0
5, 73084, Note_on_c, 9, 44, 57
5, 73107, Note_on_c, 9, 44, 0
5, 73163, Note_on_c, 9, 44, 57
5, 73182, Note_on_c, 9, 44, 0
5, 73241, Note_on_c, 9, 44, 39
5, 73260, Note_on_c, 9, 44, 0
5, 73333, Note_on_c, 9, 35, 60
5, 73355, Note_on_c, 9, 35, 0
5, 73411, Note_on_c, 9, 35, 76
5, 73437, Note_on_c, 9, 35, 0
5, 73457, Note_on_c, 9, 35, 58
5, 73487, Note_on_c, 9, 35, 0
5, 73649, Note_on_c, 9, 35, 49
5, 73662, Note_on_c, 9, 35, 0
5, 73772, Note_on_c, 9, 35, 41
5, 73785, Note_on_c, 9, 35, 0
5, 73812, Note_on_c, 9, 46, 45
5, 73820, Note_on_c, 9, 46, 0
5, 73887, Note_on_c, 9, 46, 87
5, 73916, Note_on_c, 9, 46, 0
5, 74017, Note_on_c, 9, 35, 36
5, 74032, Note_on_c, 9, 35, 0
5, 74055, Note_on_c, 9, 40, 36
5, 74089, Note_on_c, 9, 40, 0
5, 74131, Note_on_c, 9, 40, 53
5, 74140, Note_on_c, 9, 40, 0
5, 74272, Note_on_c, 9, 35, 39
5, 74284, Note_on_c, 9, 35, 0
5, 74486, Note_on_c, 9, 35, 36
5, 74501, Note_on_c, 9, 35, 0
5, 74609, Note_on_c, 9, 35, 25
5, 74620, Note_on_c, 9, 35, 0
5, 74724, Note_on_c, 9, 57, 36
5, 74736, Note_on_c, 9, 57, 0
5, 74850, Note_on_c, 9, 35, 37
5, 74861, Note_on_c, 9, 35, 0
5, 74972, Note_on_c, 9, 35, 29
5, 74984, Note_on_c, 9, 35, 0
5, 75008, Note_on_c, 9, 40, 51
5, 75024, Note_on_c, 9, 40, 0
5, 75089, Note_on_c, 9, 40, 87
5, 75112, Note_on_c, 9, 40, 0
5, 75164, Note_on_c, 9, 40, 68
5, 75199, Note_on_c, 9, 40, 0
5, 75227, Note_on_c, 9, 35, 24
5, 75241, Note_on_c, 9, 35, 0
5, 75261, Note_on_c, 9, 40, 44
5, 75273, Note_on_c, 9, 40, 0
5, 75339, Note_on_c, 9, 40, 40
5, 75351, Note_on_c, 9, 40, 0
5, 75416, Note_on_c, 9, 40, 62
5, 75426, Note_on_c, 9, 40, 0
5, 75455, Note_on_c, 9, 35, 44
5, 75469, Note_on_c, 9, 35, 0
5, 75493, Note_on_c, 9, 40, 62
5, 75534, Note_on_c, 9, 40, 0
5, 75594, Note_on_c, 9, 40, 60
5, 75620, Note_on_c, 9, 40, 0
5, 75926, Note_on_c, 9, 35, 36
5, 75942, Note_on_c, 9, 35, 0
5, 75961, Note_on_c, 9, 40, 60
5, 75983, Note_on_c, 9, 40, 0
5, 76004, Note_on_c, 9, 40, 51
5, 76017, Note_on_c, 9, 40, 0
5, 76283, Note_on_c, 9, 35, 28
5, 76297, Note_on_c, 9, 35, 0
5, 76315, Note_on_c, 9, 40, 62
5, 76324, Note_on_c, 9, 40, 0
5, 76356, Note_on_c, 9, 40, 48
5, 76365, Note_on_c, 9, 40, 0
5, 76440, Note_on_c, 9, 40, 60
5, 76448, Note_on_c, 9, 40, 0
5, 76479, Note_on_c, 9, 40, 32
5, 76488, Note_on_c, 9, 40, 0
5, 76635, Note_on_c, 9, 35, 35
5, 76649, Note_on_c, 9, 35, 0
5, 76678, Note_on_c, 9, 40, 36
5, 76688, Note_on_c, 9, 40, 0
5, 76761, Note_on_c, 9, 34, 48
5, 76785, Note_on_c, 9, 34, 0
5, 76797, Note_on_c, 9, 57, 44
5, 76805, Note_on_c, 9, 35, 51
5, 77016, Note_on_c, 9, 57, 0
5, 77025, Note_on_c, 9, 35, 0
5, 77134, Note_on_c, 9, 35, 60
5, 77144, Note_on_c, 9, 35, 0
5, 77172, Note_on_c, 9, 35, 74
5, 77235, Note_on_c, 9, 35, 0
5, 77252, Note_on_c, 9, 35, 71
5, 77295, Note_on_c, 9, 35, 0
5, 77612, Note_on_c, 9, 35, 37
5, 77624, Note_on_c, 9, 35, 0
5, 77650, Note_on_c, 9, 37, 92
5, 77725, Note_on_c, 9, 37, 0
5, 77894, Note_on_c, 9, 35, 33
5, 77946, Note_on_c, 9, 35, 0
5, 77979, Note_on_c, 9, 35, 57
5, 78000, Note_on_c, 9, 35, 0
5, 78133, Note_on_c, 9, 37, 90
5, 78190, Note_on_c, 9, 37, 0
5, 78584, Note_on_c, 9, 35, 24
5, 78592, Note_on_c, 9, 35, 0
5, 78610, Note_on_c, 9, 37, 83
5, 78668, Note_on_c, 9, 37, 0
5, 78819, Note_on_c, 9, 35, 22
5, 78827, Note_on_c, 9, 35, 0
5, 78853, Note_on_c, 9, 44, 70
5, 78877, Note_on_c, 9, 44, 0
5, 79083, Note_on_c, 9, 37, 83
5, 79129, Note_on_c, 9, 37, 0
5, 79319, Note_on_c, 9, 44, 78
5, 79359, Note_on_c, 9, 44, 0
5, 79563, Note_on_c, 9, 44, 80
5, 79565, Note_on_c, 9, 37, 74
5, 79589, Note_on_c, 9, 44, 0
5, 79602, Note_on_c, 9, 37, 0
5, 80058, Note_on_c, 9, 37, 81
5, 80058, Note_on_c, 9, 44, 84
5, 80085, Note_on_c, 9, 44, 0
5, 80097, Note_on_c, 9, 37, 0
5, 80291, Note_on_c, 9, 44, 82
5, 80322, Note_on_c, 9, 44, 0
5, 80487, Note_on_c, 9, 37, 44
5, 80495, Note_on_c, 9, 37, 0
5, 80528, Note_on_c, 9, 46, 81
5, 80566, Note_on_c, 9, 46, 0
5, 80766, Note_on_c, 9, 35, 29
5, 80775, Note_on_c, 9, 35, 0
5, 80847, Note_on_c, 9, 35, 42
5, 80858, Note_on_c, 9, 35, 0
5, 80888, Note_on_c, 9, 35, 37
5, 80900, Note_on_c, 9, 35, 0
5, 81094, Note_on_c, 9, 35, 38
5, 81105, Note_on_c, 9, 35, 0
5, 81146, Note_on_c, 9, 44, 35
5, 81171, Note_on_c, 9, 44, 0
5, 81183, Note_on_c, 9, 44, 20
5, 81193, Note_on_c, 9, 44, 0
5, 81262, Note_on_c, 9, 44, 48
5, 81277, Note_on_c, 9, 44, 0
5, 81295, Note_on_c, 9, 44, 43
5, 81310, Note_on_c, 9, 44, 0
5, 81450, Note_on_c, 9, 35, 55
5, 81464, Note_on_c, 9, 35, 0
5, 81569, Note_on_c, 9, 35, 50
5, 81583, Note_on_c, 9, 35, 0
5, 81609, Note_on_c, 9, 46, 68
5, 81667, Note_on_c, 9, 46, 0
5, 81689, Note_on_c, 9, 46, 45
5, 81706, Note_on_c, 9, 46, 0
5, 81817, Note_on_c, 9, 35, 47
5, 81830, Note_on_c, 9, 35, 0
5, 81935, Note_on_c, 9, 35, 54
5, 81947, Note_on_c, 9, 35, 0
5, 81972, Note_on_c, 9, 40, 43
5, 81996, Note_on_c, 9, 40, 0
5, 82013, Note_on_c, 9, 40, 34
5, 82024, Note_on_c, 9, 40, 0
5, 82099, Note_on_c, 9, 40, 50
5, 82110, Note_on_c, 9, 40, 0
5, 82134, Note_on_c, 9, 40, 48
5, 82146, Note_on_c, 9, 40, 0
5, 82292, Note_on_c, 9, 35, 53
5, 82310, Note_on_c, 9, 35, 0
5, 82372, Note_on_c, 9, 40, 65
5, 82397, Note_on_c, 9, 40, 0
5, 82405, Note_on_c, 9, 38, 64
5, 82414, Note_on_c, 9, 38, 0
5, 82452, Note_on_c, 9, 35, 56
5, 82514, Note_on_c, 9, 42, 19
5, 82520, Note_on_c, 9, 35, 0
5, 82524, Note_on_c, 9, 42, 0
5, 82649, Note_on_c, 9, 35, 49
5, 82661, Note_on_c, 9, 35, 0
5, 82770, Note_on_c, 9, 35, 50
5, 82785, Note_on_c, 9, 35, 0
5, 82811, Note_on_c, 9, 40, 60
5, 82820, Note_on_c, 9, 40, 0
5, 82839, Note_on_c, 9, 40, 68
5, 82859, Note_on_c, 9, 40, 0
5, 82929, Note_on_c, 9, 40, 64
5, 82947, Note_on_c, 9, 40, 0
5, 83008, Note_on_c, 9, 40, 70
5, 83023, Note_on_c, 9, 40, 0
5, 83087, Note_on_c, 9, 40, 64
5, 83109, Note_on_c, 9, 40, 0
5, 83161, Note_on_c, 9, 57, 71
5, 83169, Note_on_c, 9, 35, 57
5, 83180, Note_on_c, 9, 57, 0
5, 83184, Note_on_c, 9, 35, 0
5, 83246, Note_on_c, 9, 57, 68
5, 83251, Note_on_c, 9, 35, 57
5, 83262, Note_on_c, 9, 57, 0
5, 83269, Note_on_c, 9, 35, 0
5, 83330, Note_on_c, 9, 57, 68
5, 83333, Note_on_c, 9, 35, 58
5, 83354, Note_on_c, 9, 57, 0
5, 83377, Note_on_c, 9, 35, 0
5, 83412, Note_on_c, 9, 57, 70
5, 83414, Note_on_c, 9, 35, 68
5, 83429, Note_on_c, 9, 57, 0
5, 83454, Note_on_c, 9, 35, 0
5, 83499, Note_on_c, 9, 35, 85
5, 83540, Note_on_c, 9, 35, 0
5, 83577, Note_on_c, 9, 35, 75
5, 83632, Note_on_c, 9, 35, 0
5, 83659, Note_on_c, 9, 35, 74
5, 83716, Note_on_c, 9, 35, 0
5, 83849, Note_on_c, 9, 35, 62
5, 83870, Note_on_c, 9, 35, 0
5, 83892, Note_on_c, 9, 40, 63
5, 83949, Note_on_c, 9, 40, 0
5, 83967, Note_on_c, 9, 40, 75
5, 84005, Note_on_c, 9, 40, 0
5, 84086, Note_on_c, 9, 40, 70
5, 84098, Note_on_c, 9, 40, 0
5, 84201, Note_on_c, 9, 40, 81
5, 84242, Note_on_c, 9, 40, 0
5, 84318, Note_on_c, 9, 40, 77
5, 84344, Note_on_c, 9, 40, 0
5, 84369, Note_on_c, 9, 34, 25
5, 84382, Note_on_c, 9, 34, 0
5, 84440, Note_on_c, 9, 34, 82
5, 84476, Note_on_c, 9, 34, 0
5, 84489, Note_on_c, 9, 35, 62
5, 84499, Note_on_c, 9, 57, 26
5, 84518, Note_on_c, 9, 57, 0
5, 84633, Note_on_c, 9, 35, 0
5, 84938, Note_on_c, 9, 40, 46
5, 84947, Note_on_c, 9, 40, 0
5, 85052, Note_on_c, 9, 29, 70
5, 85298, Note_on_c, 9, 32, 39
5, 85312, Note_on_c, 9, 29, 0
5, 85326, Note_on_c, 9, 34, 71
5, 85343, Note_on_c, 9, 32, 0
5, 85396, Note_on_c, 9, 34, 0
5, 85404, Note_on_c, 9, 35, 89
5, 85567, Note_on_c, 9, 40, 31
5, 85604, Note_on_c, 9, 35, 0
5, 85625, Note_on_c, 9, 40, 0
5, 85647, Note_on_c, 9, 40, 59
5, 85657, Note_on_c, 9, 40, 0
5, 85895, Note_on_c, 9, 35, 24
5, 85904, Note_on_c, 9, 35, 0
5, 86130, Note_on_c, 9, 35, 28
5, 86143, Note_on_c, 9, 35, 0
5, 86165, Note_on_c, 9, 40, 42
5, 86175, Note_on_c, 9, 40, 0
5, 86288, Note_on_c, 9, 40, 66
5, 86299, Note_on_c, 9, 40, 0
5, 86327, Note_on_c, 9, 40, 30
5, 86337, Note_on_c, 9, 40, 0
5, 86404, Note_on_c, 9, 40, 78
5, 86412, Note_on_c, 9, 40, 0
5, 86434, Note_on_c, 9, 40, 72
5, 86453, Note_on_c, 9, 40, 0
5, 86498, Note_on_c, 9, 35, 38
5, 86511, Note_on_c, 9, 35, 0
5, 86531, Note_on_c, 9, 40, 80
5, 86541, Note_on_c, 9, 40, 0
5, 86565, Note_on_c, 9, 40, 74
5, 86583, Note_on_c, 9, 40, 0
5, 86622, Note_on_c, 9, 35, 35
5, 86636, Note_on_c, 9, 35, 0
5, 86652, Note_on_c, 9, 40, 85
5, 86668, Note_on_c, 9, 40, 0
5, 86686, Note_on_c, 9, 40, 73
5, 86705, Note_on_c, 9, 40, 0
5, 86746, Note_on_c, 9, 35, 37
5, 86760, Note_on_c, 9, 35, 0
5, 86970, Note_on_c, 9, 35, 35
5, 86982, Note_on_c, 9, 35, 0
5, 87087, Note_on_c, 9, 35, 35
5, 87102, Note_on_c, 9, 35, 0
5, 87131, Note_on_c, 9, 40, 58
5, 87140, Note_on_c, 9, 40, 0
5, 87162, Note_on_c, 9, 40, 56
5, 87174, Note_on_c, 9, 40, 0
5, 87215, Note_on_c, 9, 35, 34
5, 87230, Note_on_c, 9, 35, 0
5, 87321, Note_on_c, 9, 34, 68
5, 87347, Note_on_c, 9, 34, 0
5, 87372, Note_on_c, 9, 35, 42
5, 87408, Note_on_c, 9, 35, 0
5, 87568, Note_on_c, 9, 35, 39
5, 87579, Note_on_c, 9, 35, 0
5, 87682, Note_on_c, 9, 35, 48
5, 87698, Note_on_c, 9, 35, 0
5, 87723, Note_on_c, 9, 40, 41
5, 87765, Note_on_c, 9, 40, 0
5, 87802, Note_on_c, 9, 40, 60
5, 87822, Note_on_c, 9, 40, 0
5, 87845, Note_on_c, 9, 40, 43
5, 87895, Note_on_c, 9, 40, 0
5, 87925, Note_on_c, 9, 35, 51
5, 87935, Note_on_c, 9, 35, 0
5, 87979, Note_on_c, 9, 40, 35
5, 87997, Note_on_c, 9, 40, 0
5, 88049, Note_on_c, 9, 40, 71
5, 88067, Note_on_c, 9, 40, 0
5, 88097, Note_on_c, 9, 40, 53
5, 88106, Note_on_c, 9, 40, 0
5, 88170, Note_on_c, 9, 40, 69
5, 88190, Note_on_c, 9, 40, 0
5, 88220, Note_on_c, 9, 34, 39
5, 88256, Note_on_c, 9, 34, 0
5, 88293, Note_on_c, 9, 34, 57
5, 88322, Note_on_c, 9, 34, 0
5, 88338, Note_on_c, 9, 57, 51
5, 88342, Note_on_c, 9, 35, 57
5, 88496, Note_on_c, 9, 35, 0
5, 88508, Note_on_c, 9, 57, 0
5, 88546, Note_on_c, 9, 35, 33
5, 88559, Note_on_c, 9, 35, 0
5, 88584, Note_on_c, 9, 35, 47
5, 88715, Note_on_c, 9, 35, 0
5, 88786, Note_on_c, 9, 35, 22
5, 88794, Note_on_c, 9, 35, 0
5, 88892, Note_on_c, 9, 40, 55
5, 88911, Note_on_c, 9, 40, 0
5, 88937, Note_on_c, 9, 40, 34
5, 88955, Note_on_c, 9, 40, 0
5, 89014, Note_on_c, 9, 35, 49
5, 89035, Note_on_c, 9, 35, 0
5, 89068, Note_on_c, 9, 35, 27
5, 89092, Note_on_c, 9, 35, 0
5, 89137, Note_on_c, 9, 35, 37
5, 89149, Note_on_c, 9, 35, 0
5, 89368, Note_on_c, 9, 35, 33
5, 89382, Note_on_c, 9, 35, 0
5, 89408, Note_on_c, 9, 40, 34
5, 89447, Note_on_c, 9, 40, 0
5, 89491, Note_on_c, 9, 40, 46
5, 89501, Note_on_c, 9, 40, 0
5, 89612, Note_on_c, 9, 35, 36
5, 89624, Note_on_c, 9, 35, 0
5, 89653, Note_on_c, 9, 44, 80
5, 89688, Note_on_c, 9, 44, 0
5, 89735, Note_on_c, 9, 35, 35
5, 89747, Note_on_c, 9, 35, 0
5, 89786, Note_on_c, 9, 40, 29
5, 89810, Note_on_c, 9, 40, 0
5, 89858, Note_on_c, 9, 40, 58
5, 89867, Note_on_c, 9, 40, 0
5, 89902, Note_on_c, 9, 40, 34
5, 89915, Note_on_c, 9, 40, 0
5, 89978, Note_on_c, 9, 35, 48
5, 89989, Note_on_c, 9, 35, 0
5, 90017, Note_on_c, 9, 46, 67
5, 90046, Note_on_c, 9, 46, 0
5, 90088, Note_on_c, 9, 46, 76
5, 90123, Note_on_c, 9, 46, 0
5, 90174, Note_on_c, 9, 46, 75
5, 90198, Note_on_c, 9, 46, 0
5, 90245, Note_on_c, 9, 35, 74
5, 90303, Note_on_c, 9, 35, 0
5, 90336, Note_on_c, 9, 40, 62
5, 90344, Note_on_c, 9, 40, 0
5, 90448, Note_on_c, 9, 35, 53
5, 90458, Note_on_c, 9, 35, 0
5, 90497, Note_on_c, 9, 40, 32
5, 90521, Note_on_c, 9, 40, 0
5, 90563, Note_on_c, 9, 40, 55
5, 90573, Note_on_c, 9, 40, 0
5, 90683, Note_on_c, 9, 35, 35
5, 90695, Note_on_c, 9, 35, 0
5, 90803, Note_on_c, 9, 35, 22
5, 90811, Note_on_c, 9, 35, 0
5, 90835, Note_on_c, 9, 40, 45
5, 90847, Note_on_c, 9, 40, 0
5, 90876, Note_on_c, 9, 40, 50
5, 90887, Note_on_c, 9, 40, 0
5, 91044, Note_on_c, 9, 35, 50
5, 91058, Note_on_c, 9, 35, 0
5, 91095, Note_on_c, 9, 40, 37
5, 91110, Note_on_c, 9, 40, 0
5, 91175, Note_on_c, 9, 40, 48
5, 91186, Note_on_c, 9, 40, 0
5, 91297, Note_on_c, 9, 35, 54
5, 91308, Note_on_c, 9, 35, 0
5, 91422, Note_on_c, 9, 35, 36
5, 91433, Note_on_c, 9, 35, 0
5, 91468, Note_on_c, 9, 35, 55
5, 91561, Note_on_c, 9, 35, 0
5, 91726, Note_on_c, 9, 29, 74
5, 91732, Note_on_c, 9, 28, 53
5, 91740, Note_on_c, 9, 28, 0
5, 92696, Note_on_c, 9, 34, 64
5, 92769, Note_on_c, 9, 29, 0
5, 92858, Note_on_c, 9, 57, 73
5, 92860, Note_on_c, 9, 35, 70
5, 92867, Note_on_c, 9, 34, 0
5, 93510, Note_on_c, 9, 57, 0
5, 93696, Note_on_c, 9, 35, 0
5, 93696, End_track
0, 0, End_of_file
