0, 0, Header, 1, 4, 120
1, 0, Start_track
1, 0, Title_t, "You'veChanged"
1, 0, Copyright_t, "Copyright © 1997 by Doug McKenzie"
1, 0, Text_t, "Doug McKenzie"
1, 0, Time_signature, 4, 2, 24, 8
1, 0, Key_signature, -3, "major"
1, 0, Tempo, 454545
1, 0, End_track
2, 0, Start_track
2, 0, MIDI_port, 0
2, 17, Control_c, 0, 64, 127
2, 305, Note_on_c, 0, 79, 66
2, 306, Note_on_c, 0, 75, 56
2, 308, Control_c, 0, 64, 0
2, 308, Note_on_c, 0, 71, 63
2, 308, Note_on_c, 0, 73, 55
2, 309, Note_on_c, 0, 64, 38
2, 311, Note_on_c, 0, 59, 42
2, 311, Note_on_c, 0, 53, 34
2, 334, Control_c, 0, 64, 127
2, 349, Note_on_c, 0, 71, 0
2, 350, Note_on_c, 0, 53, 0
2, 353, Note_on_c, 0, 64, 0
2, 355, Note_on_c, 0, 73, 0
2, 355, Note_on_c, 0, 79, 0
2, 356, Note_on_c, 0, 75, 0
2, 360, Note_on_c, 0, 59, 0
2, 419, Note_on_c, 0, 83, 66
2, 422, Note_on_c, 0, 71, 51
2, 422, Note_on_c, 0, 79, 52
2, 422, Control_c, 0, 64, 0
2, 423, Note_on_c, 0, 76, 51
2, 426, Note_on_c, 0, 62, 24
2, 427, Note_on_c, 0, 59, 29
2, 427, Note_on_c, 0, 52, 35
2, 429, Note_on_c, 0, 55, 38
2, 468, Control_c, 0, 64, 127
2, 488, Note_on_c, 0, 59, 0
2, 511, Note_on_c, 0, 83, 0
2, 517, Note_on_c, 0, 79, 0
2, 522, Note_on_c, 0, 76, 0
2, 524, Note_on_c, 0, 71, 0
2, 534, Note_on_c, 0, 59, 30
2, 543, Note_on_c, 0, 62, 0
2, 621, Note_on_c, 0, 79, 38
2, 630, Note_on_c, 0, 74, 30
2, 632, Note_on_c, 0, 62, 15
2, 636, Note_on_c, 0, 67, 16
2, 786, Note_on_c, 0, 67, 0
2, 810, Note_on_c, 0, 79, 0
2, 828, Note_on_c, 0, 74, 0
2, 913, Note_on_c, 0, 67, 118
2, 961, Note_on_c, 0, 67, 0
2, 989, Note_on_c, 0, 67, 80
2, 1024, Note_on_c, 0, 67, 0
2, 1038, Note_on_c, 0, 67, 76
2, 1067, Note_on_c, 0, 67, 0
2, 1080, Note_on_c, 0, 67, 70
2, 1098, Note_on_c, 0, 67, 0
2, 1118, Note_on_c, 0, 67, 57
2, 1143, Note_on_c, 0, 67, 0
2, 1147, Note_on_c, 0, 62, 0
2, 1155, Note_on_c, 0, 59, 0
2, 1159, Note_on_c, 0, 55, 0
2, 1160, Note_on_c, 0, 67, 57
2, 1168, Note_on_c, 0, 52, 0
2, 1170, Note_on_c, 0, 67, 0
2, 1194, Note_on_c, 0, 67, 58
2, 1216, Note_on_c, 0, 67, 0
2, 1239, Note_on_c, 0, 67, 49
2, 1250, Note_on_c, 0, 67, 0
2, 1285, Note_on_c, 0, 67, 59
2, 1298, Note_on_c, 0, 67, 0
2, 1333, Note_on_c, 0, 67, 50
2, 1345, Note_on_c, 0, 67, 0
2, 1384, Note_on_c, 0, 67, 40
2, 1394, Note_on_c, 0, 67, 0
2, 1433, Note_on_c, 0, 67, 56
2, 1445, Note_on_c, 0, 67, 0
2, 1496, Note_on_c, 0, 42, 51
2, 1518, Note_on_c, 0, 42, 0
2, 1591, Note_on_c, 0, 57, 71
2, 1592, Note_on_c, 0, 71, 76
2, 1593, Note_on_c, 0, 67, 74
2, 1593, Note_on_c, 0, 62, 70
2, 1595, Control_c, 0, 64, 0
2, 1623, Control_c, 0, 64, 127
2, 1640, Note_on_c, 0, 62, 0
2, 1642, Note_on_c, 0, 71, 0
2, 1658, Note_on_c, 0, 67, 0
2, 1680, Note_on_c, 0, 70, 62
2, 1682, Control_c, 0, 64, 0
2, 1682, Note_on_c, 0, 56, 51
2, 1682, Note_on_c, 0, 66, 60
2, 1684, Note_on_c, 0, 61, 50
2, 1686, Note_on_c, 0, 57, 0
2, 1702, Control_c, 0, 64, 127
2, 1730, Note_on_c, 0, 70, 0
2, 1731, Note_on_c, 0, 66, 0
2, 1733, Note_on_c, 0, 61, 0
2, 1744, Control_c, 0, 64, 0
2, 1752, Note_on_c, 0, 65, 58
2, 1752, Note_on_c, 0, 69, 49
2, 1754, Note_on_c, 0, 60, 54
2, 1754, Note_on_c, 0, 55, 50
2, 1755, Note_on_c, 0, 56, 0
2, 1768, Control_c, 0, 64, 127
2, 1774, Note_on_c, 0, 69, 0
2, 1783, Note_on_c, 0, 65, 0
2, 1786, Note_on_c, 0, 60, 0
2, 1808, Control_c, 0, 64, 0
2, 1813, Note_on_c, 0, 64, 51
2, 1813, Note_on_c, 0, 68, 52
2, 1814, Note_on_c, 0, 55, 0
2, 1815, Note_on_c, 0, 59, 51
2, 1817, Note_on_c, 0, 54, 46
2, 1824, Control_c, 0, 64, 127
2, 1838, Note_on_c, 0, 64, 0
2, 1844, Note_on_c, 0, 68, 0
2, 1844, Note_on_c, 0, 59, 0
2, 1884, Note_on_c, 0, 54, 0
2, 1884, Control_c, 0, 64, 0
2, 1888, Note_on_c, 0, 67, 43
2, 1890, Note_on_c, 0, 58, 37
2, 1891, Note_on_c, 0, 63, 44
2, 1891, Note_on_c, 0, 53, 42
2, 1918, Control_c, 0, 64, 127
2, 1965, Control_c, 0, 64, 0
2, 1967, Note_on_c, 0, 53, 0
2, 1967, Note_on_c, 0, 47, 42
2, 1984, Note_on_c, 0, 58, 0
2, 1987, Control_c, 0, 64, 127
2, 2028, Note_on_c, 0, 63, 0
2, 2040, Note_on_c, 0, 67, 0
2, 2054, Note_on_c, 0, 51, 36
2, 2055, Note_on_c, 0, 60, 42
2, 2056, Note_on_c, 0, 57, 27
2, 2058, Note_on_c, 0, 65, 43
2, 2058, Control_c, 0, 64, 0
2, 2084, Control_c, 0, 64, 127
2, 2105, Note_on_c, 0, 65, 0
2, 2164, Note_on_c, 0, 60, 0
2, 2178, Note_on_c, 0, 69, 66
2, 2236, Note_on_c, 0, 57, 0
2, 2253, Note_on_c, 0, 47, 0
2, 2255, Note_on_c, 0, 51, 0
2, 2284, Note_on_c, 0, 69, 0
2, 2337, Control_c, 0, 64, 0
2, 2346, Note_on_c, 0, 40, 54
2, 2352, Note_on_c, 0, 40, 0
2, 2357, Control_c, 0, 64, 127
2, 2415, Note_on_c, 0, 79, 74
2, 2420, Note_on_c, 0, 76, 73
2, 2422, Note_on_c, 0, 56, 52
2, 2426, Note_on_c, 0, 72, 73
2, 2432, Note_on_c, 0, 67, 66
2, 2444, Note_on_c, 0, 62, 9
2, 2449, Note_on_c, 0, 67, 0
2, 2454, Note_on_c, 0, 72, 0
2, 2462, Note_on_c, 0, 76, 0
2, 2462, Note_on_c, 0, 79, 0
2, 2501, Note_on_c, 0, 91, 87
2, 2502, Note_on_c, 0, 84, 83
2, 2512, Note_on_c, 0, 56, 0
2, 2537, Note_on_c, 0, 62, 0
2, 2563, Note_on_c, 0, 84, 0
2, 2583, Note_on_c, 0, 91, 0
2, 2588, Note_on_c, 0, 79, 60
2, 2588, Note_on_c, 0, 88, 58
2, 2591, Note_on_c, 0, 62, 46
2, 2593, Note_on_c, 0, 84, 42
2, 2662, Note_on_c, 0, 84, 0
2, 2662, Note_on_c, 0, 79, 0
2, 2686, Note_on_c, 0, 88, 0
2, 2687, Note_on_c, 0, 84, 54
2, 2692, Note_on_c, 0, 79, 50
2, 2693, Note_on_c, 0, 67, 39
2, 2710, Note_on_c, 0, 84, 0
2, 2718, Note_on_c, 0, 79, 0
2, 2739, Note_on_c, 0, 67, 0
2, 2762, Note_on_c, 0, 62, 0
2, 2880, Note_on_c, 0, 67, 68
2, 2882, Note_on_c, 0, 60, 81
2, 2883, Note_on_c, 0, 64, 67
2, 2884, Note_on_c, 0, 52, 81
2, 2886, Note_on_c, 0, 55, 74
2, 2887, Note_on_c, 0, 57, 66
2, 2888, Note_on_c, 0, 65, 53
2, 2894, Note_on_c, 0, 57, 0
2, 2900, Control_c, 0, 64, 0
2, 2932, Note_on_c, 0, 65, 0
2, 2956, Note_on_c, 0, 52, 0
2, 2956, Note_on_c, 0, 51, 61
2, 2978, Note_on_c, 0, 51, 0
2, 2987, Note_on_c, 0, 50, 56
2, 3006, Note_on_c, 0, 49, 40
2, 3014, Note_on_c, 0, 50, 0
2, 3030, Note_on_c, 0, 49, 0
2, 3033, Note_on_c, 0, 48, 54
2, 3053, Control_c, 0, 64, 127
2, 3059, Note_on_c, 0, 47, 36
2, 3061, Note_on_c, 0, 48, 0
2, 3076, Control_c, 0, 64, 0
2, 3080, Note_on_c, 0, 47, 0
2, 3085, Note_on_c, 0, 46, 64
2, 3138, Control_c, 0, 64, 127
2, 3146, Note_on_c, 0, 55, 0
2, 3169, Note_on_c, 0, 60, 0
2, 3169, Note_on_c, 0, 55, 57
2, 3196, Note_on_c, 0, 55, 0
2, 3202, Note_on_c, 0, 64, 0
2, 3214, Note_on_c, 0, 67, 0
2, 3217, Note_on_c, 0, 60, 52
2, 3251, Note_on_c, 0, 46, 0
2, 3253, Note_on_c, 0, 60, 0
2, 3268, Note_on_c, 0, 64, 46
2, 3314, Note_on_c, 0, 64, 0
2, 3330, Control_c, 0, 64, 0
2, 3336, Note_on_c, 0, 61, 57
2, 3336, Note_on_c, 0, 55, 38
2, 3340, Note_on_c, 0, 58, 33
2, 3341, Note_on_c, 0, 45, 27
2, 3353, Control_c, 0, 64, 127
2, 3361, Note_on_c, 0, 58, 0
2, 3373, Note_on_c, 0, 61, 0
2, 3397, Note_on_c, 0, 55, 0
2, 3410, Note_on_c, 0, 52, 61
2, 3414, Note_on_c, 0, 45, 0
2, 3426, Note_on_c, 0, 52, 0
2, 3499, Note_on_c, 0, 81, 78
2, 3501, Note_on_c, 0, 70, 74
2, 3502, Note_on_c, 0, 73, 71
2, 3502, Note_on_c, 0, 76, 71
2, 3504, Note_on_c, 0, 69, 73
2, 3504, Control_c, 0, 64, 0
2, 3512, Note_on_c, 0, 79, 24
2, 3513, Control_c, 0, 64, 127
2, 3536, Note_on_c, 0, 81, 0
2, 3542, Note_on_c, 0, 79, 0
2, 3546, Note_on_c, 0, 76, 0
2, 3554, Note_on_c, 0, 70, 0
2, 3558, Note_on_c, 0, 73, 0
2, 3567, Note_on_c, 0, 69, 0
2, 3578, Note_on_c, 0, 80, 68
2, 3579, Note_on_c, 0, 68, 59
2, 3579, Note_on_c, 0, 75, 50
2, 3581, Note_on_c, 0, 72, 42
2, 3582, Note_on_c, 0, 69, 63
2, 3583, Control_c, 0, 64, 0
2, 3597, Control_c, 0, 64, 127
2, 3614, Note_on_c, 0, 69, 0
2, 3616, Note_on_c, 0, 80, 0
2, 3620, Note_on_c, 0, 72, 0
2, 3631, Note_on_c, 0, 75, 0
2, 3634, Note_on_c, 0, 68, 0
2, 3648, Note_on_c, 0, 79, 62
2, 3649, Control_c, 0, 64, 0
2, 3650, Note_on_c, 0, 67, 44
2, 3652, Note_on_c, 0, 68, 43
2, 3655, Note_on_c, 0, 74, 51
2, 3656, Note_on_c, 0, 71, 57
2, 3669, Control_c, 0, 64, 127
2, 3678, Note_on_c, 0, 79, 0
2, 3679, Note_on_c, 0, 71, 0
2, 3685, Note_on_c, 0, 74, 0
2, 3693, Note_on_c, 0, 68, 0
2, 3706, Note_on_c, 0, 67, 0
2, 3719, Control_c, 0, 64, 0
2, 3719, Note_on_c, 0, 78, 49
2, 3721, Note_on_c, 0, 70, 56
2, 3723, Note_on_c, 0, 66, 38
2, 3725, Note_on_c, 0, 73, 45
2, 3727, Note_on_c, 0, 67, 37
2, 3735, Control_c, 0, 64, 127
2, 3737, Note_on_c, 0, 67, 0
2, 3750, Note_on_c, 0, 78, 0
2, 3763, Note_on_c, 0, 73, 0
2, 3764, Note_on_c, 0, 70, 0
2, 3774, Note_on_c, 0, 66, 0
2, 3796, Note_on_c, 0, 77, 54
2, 3796, Note_on_c, 0, 69, 64
2, 3797, Control_c, 0, 64, 0
2, 3798, Note_on_c, 0, 66, 34
2, 3798, Note_on_c, 0, 65, 36
2, 3801, Note_on_c, 0, 72, 36
2, 3815, Control_c, 0, 64, 127
2, 3878, Note_on_c, 0, 64, 54
2, 3884, Note_on_c, 0, 65, 0
2, 3911, Note_on_c, 0, 69, 0
2, 3912, Note_on_c, 0, 72, 0
2, 3932, Note_on_c, 0, 66, 0
2, 3953, Note_on_c, 0, 77, 0
2, 3972, Note_on_c, 0, 64, 0
2, 3972, Control_c, 0, 64, 0
2, 3974, Note_on_c, 0, 67, 38
2, 3974, Note_on_c, 0, 63, 47
2, 3974, Note_on_c, 0, 73, 45
2, 3989, Control_c, 0, 64, 127
2, 3996, Note_on_c, 0, 63, 0
2, 4016, Note_on_c, 0, 67, 0
2, 4017, Note_on_c, 0, 73, 0
2, 4066, Note_on_c, 0, 81, 64
2, 4068, Note_on_c, 0, 70, 33
2, 4068, Note_on_c, 0, 76, 45
2, 4068, Note_on_c, 0, 73, 44
2, 4071, Note_on_c, 0, 65, 27
2, 4071, Note_on_c, 0, 61, 37
2, 4072, Control_c, 0, 64, 0
2, 4082, Note_on_c, 0, 65, 0
2, 4088, Control_c, 0, 64, 127
2, 4101, Note_on_c, 0, 61, 0
2, 4105, Note_on_c, 0, 81, 0
2, 4115, Note_on_c, 0, 76, 0
2, 4122, Note_on_c, 0, 73, 0
2, 4123, Note_on_c, 0, 70, 0
2, 4178, Note_on_c, 0, 76, 48
2, 4178, Control_c, 0, 64, 0
2, 4182, Note_on_c, 0, 54, 33
2, 4183, Note_on_c, 0, 60, 24
2, 4183, Note_on_c, 0, 71, 48
2, 4185, Note_on_c, 0, 64, 33
2, 4186, Note_on_c, 0, 68, 35
2, 4206, Control_c, 0, 64, 127
2, 4215, Note_on_c, 0, 64, 0
2, 4220, Note_on_c, 0, 71, 0
2, 4222, Note_on_c, 0, 68, 0
2, 4223, Note_on_c, 0, 60, 0
2, 4230, Note_on_c, 0, 76, 0
2, 4267, Note_on_c, 0, 88, 76
2, 4268, Note_on_c, 0, 60, 25
2, 4324, Note_on_c, 0, 88, 0
2, 4347, Note_on_c, 0, 76, 45
2, 4348, Note_on_c, 0, 60, 0
2, 4348, Note_on_c, 0, 64, 32
2, 4349, Note_on_c, 0, 84, 59
2, 4353, Note_on_c, 0, 81, 52
2, 4356, Note_on_c, 0, 64, 0
2, 4360, Note_on_c, 0, 54, 0
2, 4363, Note_on_c, 0, 81, 0
2, 4420, Note_on_c, 0, 38, 52
2, 4426, Note_on_c, 0, 84, 0
2, 4429, Note_on_c, 0, 76, 0
2, 4433, Note_on_c, 0, 38, 0
2, 4508, Note_on_c, 0, 54, 47
2, 4511, Note_on_c, 0, 68, 38
2, 4512, Note_on_c, 0, 71, 60
2, 4513, Note_on_c, 0, 64, 44
2, 4523, Control_c, 0, 64, 0
2, 4535, Control_c, 0, 64, 127
2, 4580, Note_on_c, 0, 64, 0
2, 4582, Note_on_c, 0, 71, 0
2, 4593, Note_on_c, 0, 60, 33
2, 4594, Note_on_c, 0, 76, 49
2, 4610, Note_on_c, 0, 68, 0
2, 4617, Note_on_c, 0, 60, 0
2, 4628, Note_on_c, 0, 76, 0
2, 4703, Note_on_c, 0, 74, 45
2, 4704, Note_on_c, 0, 66, 15
2, 4706, Note_on_c, 0, 68, 30
2, 4706, Note_on_c, 0, 72, 44
2, 4707, Note_on_c, 0, 60, 36
2, 4864, Note_on_c, 0, 74, 0
2, 4874, Note_on_c, 0, 72, 0
2, 4888, Note_on_c, 0, 66, 0
2, 4889, Note_on_c, 0, 68, 0
2, 4920, Note_on_c, 0, 60, 0
2, 4957, Note_on_c, 0, 54, 0
2, 5002, Note_on_c, 0, 49, 69
2, 5009, Note_on_c, 0, 69, 79
2, 5010, Note_on_c, 0, 61, 72
2, 5010, Note_on_c, 0, 64, 75
2, 5012, Note_on_c, 0, 66, 62
2, 5015, Note_on_c, 0, 50, 53
2, 5020, Note_on_c, 0, 49, 0
2, 5028, Control_c, 0, 64, 0
2, 5103, Note_on_c, 0, 50, 0
2, 5107, Note_on_c, 0, 49, 44
2, 5122, Note_on_c, 0, 49, 0
2, 5129, Note_on_c, 0, 48, 55
2, 5148, Note_on_c, 0, 48, 0
2, 5155, Note_on_c, 0, 47, 37
2, 5181, Note_on_c, 0, 47, 0
2, 5182, Note_on_c, 0, 46, 38
2, 5189, Control_c, 0, 64, 127
2, 5199, Note_on_c, 0, 46, 0
2, 5212, Note_on_c, 0, 45, 29
2, 5219, Note_on_c, 0, 64, 0
2, 5234, Note_on_c, 0, 69, 0
2, 5237, Note_on_c, 0, 66, 0
2, 5238, Note_on_c, 0, 61, 0
2, 5240, Note_on_c, 0, 45, 0
2, 5240, Control_c, 0, 64, 0
2, 5244, Note_on_c, 0, 63, 69
2, 5248, Note_on_c, 0, 44, 42
2, 5281, Control_c, 0, 64, 127
2, 5307, Note_on_c, 0, 63, 0
2, 5345, Note_on_c, 0, 44, 0
2, 5401, Note_on_c, 0, 54, 47
2, 5458, Note_on_c, 0, 60, 35
2, 5530, Note_on_c, 0, 65, 39
2, 5629, Note_on_c, 0, 75, 46
2, 5629, Note_on_c, 0, 90, 50
2, 5703, Note_on_c, 0, 90, 0
2, 5711, Note_on_c, 0, 87, 53
2, 5730, Note_on_c, 0, 75, 0
2, 5732, Note_on_c, 0, 87, 0
2, 5759, Note_on_c, 0, 65, 0
2, 5765, Note_on_c, 0, 60, 0
2, 5772, Note_on_c, 0, 87, 53
2, 5772, Note_on_c, 0, 75, 43
2, 5801, Note_on_c, 0, 54, 0
2, 5808, Note_on_c, 0, 75, 0
2, 5811, Note_on_c, 0, 87, 0
2, 5834, Note_on_c, 0, 86, 49
2, 5835, Note_on_c, 0, 64, 33
2, 5836, Control_c, 0, 64, 0
2, 5838, Note_on_c, 0, 59, 36
2, 5842, Note_on_c, 0, 74, 36
2, 5843, Note_on_c, 0, 53, 24
2, 5864, Note_on_c, 0, 64, 0
2, 5864, Control_c, 0, 64, 127
2, 5866, Note_on_c, 0, 59, 0
2, 5872, Note_on_c, 0, 53, 0
2, 5892, Note_on_c, 0, 86, 0
2, 5904, Note_on_c, 0, 74, 0
2, 5914, Note_on_c, 0, 43, 51
2, 5995, Note_on_c, 0, 62, 40
2, 5997, Note_on_c, 0, 53, 39
2, 5998, Note_on_c, 0, 56, 39
2, 6002, Note_on_c, 0, 59, 37
2, 6056, Note_on_c, 0, 43, 0
2, 6062, Note_on_c, 0, 56, 0
2, 6085, Note_on_c, 0, 62, 0
2, 6085, Note_on_c, 0, 59, 0
2, 6087, Note_on_c, 0, 53, 0
2, 6255, Note_on_c, 0, 41, 44
2, 6259, Note_on_c, 0, 74, 99
2, 6260, Note_on_c, 0, 57, 58
2, 6261, Note_on_c, 0, 67, 101
2, 6270, Control_c, 0, 64, 0
2, 6294, Control_c, 0, 64, 127
2, 6316, Note_on_c, 0, 57, 0
2, 6316, Note_on_c, 0, 74, 0
2, 6317, Note_on_c, 0, 67, 0
2, 6320, Note_on_c, 0, 41, 0
2, 6324, Note_on_c, 0, 72, 75
2, 6362, Note_on_c, 0, 72, 0
2, 6405, Note_on_c, 0, 71, 58
2, 6405, Note_on_c, 0, 62, 56
2, 6406, Note_on_c, 0, 40, 38
2, 6406, Control_c, 0, 64, 0
2, 6406, Note_on_c, 0, 67, 57
2, 6430, Note_on_c, 0, 62, 0
2, 6440, Control_c, 0, 64, 127
2, 6443, Note_on_c, 0, 67, 0
2, 6448, Note_on_c, 0, 71, 0
2, 6463, Note_on_c, 0, 47, 57
2, 6498, Note_on_c, 0, 40, 0
2, 6504, Note_on_c, 0, 47, 0
2, 6514, Note_on_c, 0, 76, 70
2, 6515, Note_on_c, 0, 55, 41
2, 6516, Note_on_c, 0, 67, 62
2, 6517, Note_on_c, 0, 72, 65
2, 6522, Note_on_c, 0, 55, 0
2, 6547, Note_on_c, 0, 67, 0
2, 6561, Note_on_c, 0, 76, 0
2, 6568, Note_on_c, 0, 72, 0
2, 6572, Note_on_c, 0, 79, 79
2, 6572, Note_on_c, 0, 62, 62
2, 6586, Note_on_c, 0, 79, 0
2, 6604, Note_on_c, 0, 62, 0
2, 6644, Note_on_c, 0, 60, 61
2, 6646, Note_on_c, 0, 65, 65
2, 6647, Note_on_c, 0, 61, 56
2, 6650, Note_on_c, 0, 91, 74
2, 6652, Note_on_c, 0, 55, 55
2, 6652, Control_c, 0, 64, 0
2, 6653, Note_on_c, 0, 84, 71
2, 6690, Control_c, 0, 64, 127
2, 6708, Note_on_c, 0, 91, 0
2, 6710, Note_on_c, 0, 65, 0
2, 6710, Note_on_c, 0, 84, 0
2, 6714, Note_on_c, 0, 60, 0
2, 6720, Note_on_c, 0, 55, 0
2, 6720, Note_on_c, 0, 61, 0
2, 6721, Note_on_c, 0, 89, 75
2, 6780, Note_on_c, 0, 89, 0
2, 6797, Note_on_c, 0, 78, 49
2, 6798, Note_on_c, 0, 84, 66
2, 6801, Note_on_c, 0, 45, 38
2, 6803, Note_on_c, 0, 55, 41
2, 6805, Control_c, 0, 64, 0
2, 6831, Control_c, 0, 64, 127
2, 6858, Note_on_c, 0, 84, 0
2, 6867, Note_on_c, 0, 55, 0
2, 6870, Note_on_c, 0, 78, 0
2, 6877, Note_on_c, 0, 52, 57
2, 6879, Note_on_c, 0, 45, 0
2, 6882, Note_on_c, 0, 86, 77
2, 6885, Note_on_c, 0, 52, 0
2, 6956, Note_on_c, 0, 86, 0
2, 6976, Note_on_c, 0, 84, 74
2, 6976, Note_on_c, 0, 50, 50
2, 6977, Note_on_c, 0, 88, 64
2, 6977, Note_on_c, 0, 60, 37
2, 6985, Control_c, 0, 64, 0
2, 7019, Control_c, 0, 64, 127
2, 7044, Note_on_c, 0, 54, 55
2, 7046, Note_on_c, 0, 84, 0
2, 7049, Note_on_c, 0, 50, 0
2, 7054, Note_on_c, 0, 88, 0
2, 7062, Note_on_c, 0, 60, 0
2, 7063, Note_on_c, 0, 54, 0
2, 7116, Note_on_c, 0, 84, 71
2, 7116, Note_on_c, 0, 76, 58
2, 7117, Note_on_c, 0, 60, 48
2, 7118, Note_on_c, 0, 81, 60
2, 7161, Note_on_c, 0, 76, 0
2, 7166, Note_on_c, 0, 81, 0
2, 7174, Note_on_c, 0, 84, 0
2, 7186, Note_on_c, 0, 86, 74
2, 7189, Note_on_c, 0, 64, 44
2, 7212, Note_on_c, 0, 64, 0
2, 7215, Note_on_c, 0, 86, 0
2, 7216, Note_on_c, 0, 60, 0
2, 7264, Control_c, 0, 64, 0
2, 7264, Note_on_c, 0, 87, 59
2, 7265, Note_on_c, 0, 63, 48
2, 7265, Note_on_c, 0, 75, 49
2, 7266, Note_on_c, 0, 56, 44
2, 7266, Note_on_c, 0, 80, 52
2, 7268, Note_on_c, 0, 83, 59
2, 7300, Control_c, 0, 64, 127
2, 7335, Note_on_c, 0, 63, 0
2, 7347, Note_on_c, 0, 59, 48
2, 7356, Note_on_c, 0, 59, 0
2, 7368, Note_on_c, 0, 56, 0
2, 7438, Note_on_c, 0, 43, 53
2, 7445, Note_on_c, 0, 43, 0
2, 7445, Note_on_c, 0, 83, 0
2, 7450, Note_on_c, 0, 87, 0
2, 7453, Note_on_c, 0, 80, 0
2, 7453, Note_on_c, 0, 75, 0
2, 8036, Note_on_c, 0, 67, 70
2, 8036, Note_on_c, 0, 63, 64
2, 8037, Note_on_c, 0, 59, 66
2, 8042, Note_on_c, 0, 53, 54
2, 8044, Control_c, 0, 64, 0
2, 8078, Control_c, 0, 64, 127
2, 8122, Note_on_c, 0, 67, 0
2, 8130, Note_on_c, 0, 53, 0
2, 8134, Note_on_c, 0, 59, 0
2, 8135, Note_on_c, 0, 63, 0
2, 8145, Note_on_c, 0, 67, 58
2, 8204, Note_on_c, 0, 67, 0
2, 8301, Note_on_c, 0, 63, 59
2, 8302, Note_on_c, 0, 71, 59
2, 8303, Note_on_c, 0, 66, 60
2, 8304, Note_on_c, 0, 36, 50
2, 8305, Note_on_c, 0, 59, 56
2, 8308, Note_on_c, 0, 52, 45
2, 8313, Control_c, 0, 64, 0
2, 8351, Control_c, 0, 64, 127
2, 8386, Note_on_c, 0, 52, 0
2, 8394, Note_on_c, 0, 36, 0
2, 8394, Note_on_c, 0, 43, 45
2, 8396, Note_on_c, 0, 59, 0
2, 8403, Note_on_c, 0, 43, 0
2, 8422, Note_on_c, 0, 66, 0
2, 8438, Note_on_c, 0, 63, 0
2, 8461, Note_on_c, 0, 71, 0
2, 8468, Note_on_c, 0, 67, 48
2, 8470, Note_on_c, 0, 48, 46
2, 8470, Note_on_c, 0, 64, 49
2, 8471, Note_on_c, 0, 62, 35
2, 8473, Control_c, 0, 64, 0
2, 8501, Control_c, 0, 64, 127
2, 8502, Note_on_c, 0, 62, 0
2, 8508, Note_on_c, 0, 64, 0
2, 8509, Note_on_c, 0, 67, 0
2, 8524, Note_on_c, 0, 55, 52
2, 8527, Note_on_c, 0, 74, 66
2, 8569, Note_on_c, 0, 74, 0
2, 8590, Note_on_c, 0, 55, 0
2, 8596, Note_on_c, 0, 67, 51
2, 8597, Note_on_c, 0, 59, 46
2, 8601, Note_on_c, 0, 62, 35
2, 8629, Note_on_c, 0, 48, 0
2, 8637, Note_on_c, 0, 62, 0
2, 8641, Note_on_c, 0, 59, 0
2, 8651, Note_on_c, 0, 67, 0
2, 8674, Note_on_c, 0, 64, 68
2, 8743, Note_on_c, 0, 79, 75
2, 8744, Note_on_c, 0, 74, 80
2, 8745, Note_on_c, 0, 69, 70
2, 8774, Note_on_c, 0, 74, 0
2, 8774, Note_on_c, 0, 79, 0
2, 8785, Note_on_c, 0, 69, 0
2, 8814, Note_on_c, 0, 76, 67
2, 8816, Note_on_c, 0, 64, 0
2, 8816, Note_on_c, 0, 62, 44
2, 8816, Note_on_c, 0, 71, 68
2, 8818, Note_on_c, 0, 67, 51
2, 8823, Note_on_c, 0, 62, 0
2, 8836, Note_on_c, 0, 76, 0
2, 8837, Note_on_c, 0, 71, 0
2, 8838, Note_on_c, 0, 67, 0
2, 8895, Note_on_c, 0, 71, 60
2, 8896, Note_on_c, 0, 64, 66
2, 8897, Note_on_c, 0, 42, 58
2, 8902, Control_c, 0, 64, 0
2, 8904, Note_on_c, 0, 68, 27
2, 8910, Note_on_c, 0, 68, 0
2, 8929, Note_on_c, 0, 64, 0
2, 8931, Control_c, 0, 64, 127
2, 8937, Note_on_c, 0, 71, 0
2, 8955, Note_on_c, 0, 52, 60
2, 8960, Note_on_c, 0, 42, 0
2, 8971, Note_on_c, 0, 52, 0
2, 9019, Note_on_c, 0, 83, 94
2, 9020, Note_on_c, 0, 76, 94
2, 9021, Note_on_c, 0, 60, 65
2, 9052, Note_on_c, 0, 83, 0
2, 9064, Note_on_c, 0, 76, 0
2, 9072, Note_on_c, 0, 76, 58
2, 9072, Note_on_c, 0, 82, 82
2, 9076, Note_on_c, 0, 64, 55
2, 9093, Note_on_c, 0, 60, 0
2, 9094, Note_on_c, 0, 64, 0
2, 9103, Note_on_c, 0, 82, 0
2, 9106, Note_on_c, 0, 76, 0
2, 9118, Note_on_c, 0, 81, 80
2, 9125, Note_on_c, 0, 76, 43
2, 9133, Note_on_c, 0, 76, 0
2, 9144, Note_on_c, 0, 81, 0
2, 9158, Note_on_c, 0, 80, 62
2, 9189, Note_on_c, 0, 80, 0
2, 9202, Note_on_c, 0, 47, 57
2, 9203, Note_on_c, 0, 80, 40
2, 9205, Control_c, 0, 64, 0
2, 9210, Note_on_c, 0, 80, 0
2, 9210, Note_on_c, 0, 79, 63
2, 9236, Control_c, 0, 64, 127
2, 9254, Note_on_c, 0, 51, 53
2, 9256, Note_on_c, 0, 47, 0
2, 9270, Note_on_c, 0, 51, 0
2, 9297, Note_on_c, 0, 79, 0
2, 9306, Note_on_c, 0, 72, 49
2, 9306, Note_on_c, 0, 67, 45
2, 9310, Note_on_c, 0, 57, 35
2, 9336, Note_on_c, 0, 67, 0
2, 9344, Note_on_c, 0, 72, 0
2, 9365, Note_on_c, 0, 62, 36
2, 9370, Note_on_c, 0, 81, 55
2, 9379, Note_on_c, 0, 81, 0
2, 9451, Note_on_c, 0, 62, 0
2, 9472, Note_on_c, 0, 57, 0
2, 9545, Note_on_c, 0, 49, 30
2, 9567, Note_on_c, 0, 59, 58
2, 9569, Note_on_c, 0, 56, 33
2, 9569, Note_on_c, 0, 52, 56
2, 9570, Note_on_c, 0, 49, 0
2, 9570, Note_on_c, 0, 62, 36
2, 9572, Note_on_c, 0, 67, 28
2, 9588, Control_c, 0, 64, 0
2, 9612, Note_on_c, 0, 52, 0
2, 9639, Note_on_c, 0, 53, 65
2, 9654, Note_on_c, 0, 53, 0
2, 9688, Note_on_c, 0, 56, 0
2, 9689, Note_on_c, 0, 55, 50
2, 9701, Note_on_c, 0, 55, 0
2, 9706, Note_on_c, 0, 59, 0
2, 9731, Note_on_c, 0, 62, 0
2, 9738, Note_on_c, 0, 67, 0
2, 9740, Note_on_c, 0, 56, 51
2, 9774, Note_on_c, 0, 56, 0
2, 9779, Note_on_c, 0, 58, 55
2, 9798, Note_on_c, 0, 58, 0
2, 9813, Note_on_c, 0, 59, 27
2, 9826, Note_on_c, 0, 59, 0
2, 9841, Note_on_c, 0, 60, 49
2, 9853, Note_on_c, 0, 60, 0
2, 9875, Note_on_c, 0, 61, 46
2, 9893, Note_on_c, 0, 61, 0
2, 9908, Note_on_c, 0, 62, 37
2, 9923, Note_on_c, 0, 62, 0
2, 9942, Note_on_c, 0, 63, 46
2, 9964, Note_on_c, 0, 63, 0
2, 9986, Note_on_c, 0, 64, 45
2, 10014, Note_on_c, 0, 64, 0
2, 10055, Note_on_c, 0, 65, 54
2, 10074, Note_on_c, 0, 65, 0
2, 10087, Note_on_c, 0, 66, 60
2, 10093, Note_on_c, 0, 34, 36
2, 10101, Control_c, 0, 64, 127
2, 10103, Note_on_c, 0, 66, 0
2, 10114, Note_on_c, 0, 34, 0
2, 10115, Note_on_c, 0, 67, 60
2, 10128, Note_on_c, 0, 67, 0
2, 10147, Note_on_c, 0, 69, 66
2, 10167, Note_on_c, 0, 69, 0
2, 10178, Note_on_c, 0, 70, 75
2, 10208, Note_on_c, 0, 70, 0
2, 10220, Note_on_c, 0, 69, 62
2, 10220, Note_on_c, 0, 33, 45
2, 10222, Control_c, 0, 64, 0
2, 10231, Note_on_c, 0, 33, 0
2, 10248, Control_c, 0, 64, 127
2, 10290, Note_on_c, 0, 69, 0
2, 10292, Note_on_c, 0, 55, 58
2, 10363, Note_on_c, 0, 61, 48
2, 10438, Note_on_c, 0, 65, 53
2, 10467, Note_on_c, 0, 65, 0
2, 10477, Note_on_c, 0, 55, 0
2, 10501, Note_on_c, 0, 61, 0
2, 10527, Note_on_c, 0, 93, 91
2, 10528, Note_on_c, 0, 88, 88
2, 10528, Control_c, 0, 64, 0
2, 10529, Note_on_c, 0, 81, 80
2, 10530, Note_on_c, 0, 55, 74
2, 10530, Note_on_c, 0, 61, 69
2, 10530, Note_on_c, 0, 66, 77
2, 10554, Control_c, 0, 64, 127
2, 10578, Note_on_c, 0, 55, 0
2, 10578, Note_on_c, 0, 81, 0
2, 10579, Note_on_c, 0, 93, 0
2, 10585, Note_on_c, 0, 66, 0
2, 10586, Note_on_c, 0, 88, 0
2, 10604, Control_c, 0, 64, 0
2, 10606, Note_on_c, 0, 92, 79
2, 10607, Note_on_c, 0, 87, 81
2, 10607, Note_on_c, 0, 80, 73
2, 10608, Note_on_c, 0, 65, 74
2, 10609, Note_on_c, 0, 60, 66
2, 10610, Note_on_c, 0, 54, 63
2, 10622, Control_c, 0, 64, 127
2, 10644, Note_on_c, 0, 61, 0
2, 10645, Note_on_c, 0, 65, 0
2, 10650, Note_on_c, 0, 60, 0
2, 10654, Note_on_c, 0, 92, 0
2, 10656, Note_on_c, 0, 87, 0
2, 10657, Note_on_c, 0, 80, 0
2, 10665, Note_on_c, 0, 54, 0
2, 10672, Control_c, 0, 64, 0
2, 10676, Note_on_c, 0, 64, 66
2, 10677, Note_on_c, 0, 91, 69
2, 10677, Note_on_c, 0, 86, 74
2, 10678, Note_on_c, 0, 59, 64
2, 10679, Note_on_c, 0, 79, 68
2, 10679, Note_on_c, 0, 53, 60
2, 10683, Note_on_c, 0, 90, 34
2, 10693, Control_c, 0, 64, 127
2, 10700, Note_on_c, 0, 91, 0
2, 10704, Note_on_c, 0, 64, 0
2, 10706, Note_on_c, 0, 53, 0
2, 10707, Note_on_c, 0, 79, 0
2, 10708, Note_on_c, 0, 59, 0
2, 10710, Note_on_c, 0, 90, 0
2, 10715, Note_on_c, 0, 86, 0
2, 10735, Control_c, 0, 64, 0
2, 10737, Note_on_c, 0, 90, 70
2, 10739, Note_on_c, 0, 63, 63
2, 10739, Note_on_c, 0, 85, 75
2, 10740, Note_on_c, 0, 78, 63
2, 10742, Note_on_c, 0, 58, 50
2, 10743, Note_on_c, 0, 52, 51
2, 10747, Control_c, 0, 64, 127
2, 10762, Note_on_c, 0, 52, 0
2, 10772, Note_on_c, 0, 63, 0
2, 10776, Note_on_c, 0, 85, 0
2, 10778, Note_on_c, 0, 78, 0
2, 10780, Note_on_c, 0, 90, 0
2, 10782, Note_on_c, 0, 58, 0
2, 10794, Control_c, 0, 64, 0
2, 10800, Note_on_c, 0, 62, 35
2, 10801, Note_on_c, 0, 57, 64
2, 10804, Note_on_c, 0, 89, 71
2, 10805, Note_on_c, 0, 77, 62
2, 10805, Note_on_c, 0, 84, 74
2, 10807, Note_on_c, 0, 51, 47
2, 10816, Control_c, 0, 64, 127
2, 10818, Note_on_c, 0, 62, 0
2, 10830, Note_on_c, 0, 57, 0
2, 10844, Note_on_c, 0, 51, 0
2, 10853, Note_on_c, 0, 89, 0
2, 10857, Note_on_c, 0, 84, 0
2, 10866, Note_on_c, 0, 77, 0
2, 10868, Note_on_c, 0, 61, 69
2, 10872, Note_on_c, 0, 56, 46
2, 10874, Note_on_c, 0, 50, 42
2, 10878, Note_on_c, 0, 61, 0
2, 10882, Note_on_c, 0, 50, 0
2, 10885, Note_on_c, 0, 56, 0
2, 10928, Control_c, 0, 64, 0
2, 10934, Note_on_c, 0, 88, 70
2, 10935, Note_on_c, 0, 45, 66
2, 10935, Note_on_c, 0, 83, 71
2, 10936, Note_on_c, 0, 76, 63
2, 10956, Control_c, 0, 64, 127
2, 10993, Note_on_c, 0, 88, 0
2, 10995, Note_on_c, 0, 52, 69
2, 10998, Note_on_c, 0, 83, 0
2, 11000, Note_on_c, 0, 45, 0
2, 11007, Note_on_c, 0, 76, 0
2, 11012, Note_on_c, 0, 52, 0
2, 11062, Note_on_c, 0, 51, 51
2, 11063, Note_on_c, 0, 61, 38
2, 11063, Note_on_c, 0, 87, 59
2, 11065, Note_on_c, 0, 82, 57
2, 11066, Note_on_c, 0, 75, 46
2, 11101, Note_on_c, 0, 61, 0
2, 11102, Note_on_c, 0, 75, 0
2, 11104, Note_on_c, 0, 87, 0
2, 11109, Note_on_c, 0, 51, 0
2, 11110, Note_on_c, 0, 82, 0
2, 11121, Note_on_c, 0, 88, 56
2, 11122, Note_on_c, 0, 81, 60
2, 11122, Note_on_c, 0, 60, 53
2, 11122, Note_on_c, 0, 50, 48
2, 11123, Note_on_c, 0, 76, 38
2, 11124, Note_on_c, 0, 84, 64
2, 11129, Control_c, 0, 64, 0
2, 11163, Control_c, 0, 64, 127
2, 11175, Note_on_c, 0, 84, 0
2, 11175, Note_on_c, 0, 88, 0
2, 11178, Note_on_c, 0, 81, 0
2, 11179, Note_on_c, 0, 50, 0
2, 11181, Note_on_c, 0, 54, 52
2, 11184, Note_on_c, 0, 76, 0
2, 11188, Note_on_c, 0, 60, 0
2, 11197, Note_on_c, 0, 54, 0
2, 11228, Note_on_c, 0, 60, 30
2, 11270, Note_on_c, 0, 64, 49
2, 11271, Note_on_c, 0, 71, 51
2, 11272, Note_on_c, 0, 68, 48
2, 11294, Note_on_c, 0, 64, 0
2, 11302, Note_on_c, 0, 71, 0
2, 11313, Note_on_c, 0, 68, 0
2, 11313, Note_on_c, 0, 76, 58
2, 11326, Note_on_c, 0, 76, 0
2, 11358, Note_on_c, 0, 88, 72
2, 11390, Note_on_c, 0, 88, 0
2, 11407, Note_on_c, 0, 83, 48
2, 11408, Note_on_c, 0, 76, 35
2, 11409, Note_on_c, 0, 80, 36
2, 11418, Note_on_c, 0, 64, 27
2, 11425, Note_on_c, 0, 60, 0
2, 11452, Note_on_c, 0, 76, 0
2, 11456, Note_on_c, 0, 83, 0
2, 11459, Note_on_c, 0, 86, 66
2, 11464, Note_on_c, 0, 64, 0
2, 11464, Note_on_c, 0, 80, 0
2, 11475, Note_on_c, 0, 60, 26
2, 11500, Note_on_c, 0, 86, 0
2, 11510, Note_on_c, 0, 60, 0
2, 11515, Note_on_c, 0, 76, 42
2, 11515, Note_on_c, 0, 83, 47
2, 11516, Note_on_c, 0, 80, 33
2, 11525, Note_on_c, 0, 83, 0
2, 11528, Note_on_c, 0, 80, 0
2, 11532, Note_on_c, 0, 76, 0
2, 11577, Note_on_c, 0, 76, 25
2, 11578, Note_on_c, 0, 83, 39
2, 11582, Note_on_c, 0, 60, 32
2, 11610, Note_on_c, 0, 76, 0
2, 11622, Note_on_c, 0, 60, 0
2, 11622, Note_on_c, 0, 83, 0
2, 11629, Note_on_c, 0, 80, 45
2, 11631, Note_on_c, 0, 76, 34
2, 11636, Note_on_c, 0, 71, 29
2, 11654, Note_on_c, 0, 76, 0
2, 11664, Note_on_c, 0, 71, 0
2, 11669, Note_on_c, 0, 80, 0
2, 11696, Note_on_c, 0, 80, 46
2, 11700, Note_on_c, 0, 64, 17
2, 11700, Note_on_c, 0, 71, 36
2, 11737, Note_on_c, 0, 71, 0
2, 11753, Note_on_c, 0, 76, 39
2, 11755, Note_on_c, 0, 80, 0
2, 11778, Note_on_c, 0, 76, 0
2, 11818, Note_on_c, 0, 76, 34
2, 11874, Note_on_c, 0, 64, 0
2, 11885, Note_on_c, 0, 76, 0
2, 11890, Note_on_c, 0, 71, 35
2, 11898, Note_on_c, 0, 71, 0
2, 11964, Note_on_c, 0, 60, 32
2, 11965, Note_on_c, 0, 75, 36
2, 11966, Note_on_c, 0, 72, 45
2, 11966, Note_on_c, 0, 68, 44
2, 11969, Note_on_c, 0, 66, 23
2, 11971, Control_c, 0, 64, 0
2, 11993, Note_on_c, 0, 50, 2
2, 12032, Control_c, 0, 64, 127
2, 12044, Note_on_c, 0, 54, 44
2, 12045, Note_on_c, 0, 60, 0
2, 12058, Note_on_c, 0, 72, 0
2, 12060, Note_on_c, 0, 68, 0
2, 12065, Note_on_c, 0, 66, 0
2, 12066, Note_on_c, 0, 75, 0
2, 12110, Note_on_c, 0, 60, 51
2, 12119, Note_on_c, 0, 60, 0
2, 12138, Note_on_c, 0, 50, 0
2, 12139, Note_on_c, 0, 54, 0
2, 12209, Note_on_c, 0, 68, 52
2, 12213, Note_on_c, 0, 32, 51
2, 12214, Control_c, 0, 64, 0
2, 12221, Note_on_c, 0, 68, 0
2, 12232, Control_c, 0, 64, 127
2, 12246, Note_on_c, 0, 32, 0
2, 12296, Note_on_c, 0, 31, 67
2, 12302, Control_c, 0, 64, 0
2, 12310, Note_on_c, 0, 31, 0
2, 12318, Control_c, 0, 64, 127
2, 12386, Note_on_c, 0, 59, 46
2, 12386, Note_on_c, 0, 61, 46
2, 12387, Note_on_c, 0, 67, 40
2, 12388, Note_on_c, 0, 63, 43
2, 12388, Note_on_c, 0, 53, 39
2, 12390, Note_on_c, 0, 65, 36
2, 12391, Note_on_c, 0, 43, 34
2, 12394, Control_c, 0, 64, 0
2, 12426, Control_c, 0, 64, 127
2, 12436, Note_on_c, 0, 59, 0
2, 12440, Note_on_c, 0, 53, 0
2, 12440, Note_on_c, 0, 67, 0
2, 12449, Note_on_c, 0, 63, 0
2, 12451, Note_on_c, 0, 61, 0
2, 12468, Note_on_c, 0, 65, 0
2, 12505, Note_on_c, 0, 67, 38
2, 12506, Note_on_c, 0, 56, 40
2, 12506, Note_on_c, 0, 62, 43
2, 12508, Note_on_c, 0, 59, 55
2, 12510, Note_on_c, 0, 53, 36
2, 12525, Control_c, 0, 64, 0
2, 12565, Control_c, 0, 64, 127
2, 12654, Note_on_c, 0, 62, 0
2, 12658, Note_on_c, 0, 59, 0
2, 12661, Note_on_c, 0, 56, 0
2, 12706, Note_on_c, 0, 67, 0
2, 12770, Note_on_c, 0, 62, 71
2, 12824, Note_on_c, 0, 43, 0
2, 12838, Note_on_c, 0, 53, 0
2, 12868, Note_on_c, 0, 62, 0
2, 12908, Note_on_c, 0, 62, 55
2, 12911, Control_c, 0, 64, 0
2, 12914, Note_on_c, 0, 48, 47
2, 12916, Note_on_c, 0, 58, 30
2, 12939, Control_c, 0, 64, 127
2, 12955, Note_on_c, 0, 62, 0
2, 12962, Note_on_c, 0, 58, 0
2, 12965, Note_on_c, 0, 55, 56
2, 13016, Note_on_c, 0, 48, 0
2, 13017, Note_on_c, 0, 62, 70
2, 13019, Note_on_c, 0, 55, 0
2, 13019, Note_on_c, 0, 58, 38
2, 13038, Note_on_c, 0, 58, 0
2, 13038, Note_on_c, 0, 62, 0
2, 13068, Note_on_c, 0, 65, 79
2, 13091, Note_on_c, 0, 65, 0
2, 13125, Note_on_c, 0, 69, 105
2, 13128, Note_on_c, 0, 62, 46
2, 13130, Note_on_c, 0, 58, 39
2, 13130, Note_on_c, 0, 57, 49
2, 13136, Control_c, 0, 64, 0
2, 13168, Control_c, 0, 64, 127
2, 13182, Note_on_c, 0, 69, 0
2, 13185, Note_on_c, 0, 66, 62
2, 13205, Note_on_c, 0, 66, 0
2, 13206, Note_on_c, 0, 62, 0
2, 13215, Note_on_c, 0, 67, 68
2, 13234, Note_on_c, 0, 67, 0
2, 13249, Note_on_c, 0, 69, 79
2, 13278, Note_on_c, 0, 69, 0
2, 13283, Note_on_c, 0, 70, 79
2, 13303, Control_c, 0, 64, 0
2, 13304, Note_on_c, 0, 70, 0
2, 13316, Note_on_c, 0, 62, 33
2, 13321, Control_c, 0, 64, 127
2, 13323, Note_on_c, 0, 74, 78
2, 13347, Note_on_c, 0, 74, 0
2, 13364, Note_on_c, 0, 78, 65
2, 13379, Note_on_c, 0, 62, 0
2, 13388, Note_on_c, 0, 57, 0
2, 13393, Note_on_c, 0, 78, 0
2, 13399, Note_on_c, 0, 58, 0
2, 13407, Note_on_c, 0, 81, 71
2, 13434, Note_on_c, 0, 81, 0
2, 13454, Note_on_c, 0, 82, 69
2, 13479, Note_on_c, 0, 82, 0
2, 13500, Note_on_c, 0, 83, 55
2, 13527, Note_on_c, 0, 83, 0
2, 13554, Note_on_c, 0, 84, 57
2, 13555, Control_c, 0, 64, 0
2, 13556, Note_on_c, 0, 74, 33
2, 13556, Note_on_c, 0, 64, 34
2, 13557, Note_on_c, 0, 78, 33
2, 13558, Note_on_c, 0, 81, 42
2, 13560, Note_on_c, 0, 58, 35
2, 13584, Control_c, 0, 64, 127
2, 13588, Note_on_c, 0, 84, 0
2, 13599, Note_on_c, 0, 74, 0
2, 13604, Note_on_c, 0, 81, 0
2, 13608, Note_on_c, 0, 64, 0
2, 13611, Note_on_c, 0, 78, 0
2, 13618, Note_on_c, 0, 86, 51
2, 13620, Note_on_c, 0, 58, 0
2, 13637, Note_on_c, 0, 86, 0
2, 13683, Note_on_c, 0, 48, 50
2, 13684, Control_c, 0, 64, 0
2, 13685, Note_on_c, 0, 87, 51
2, 13688, Note_on_c, 0, 75, 32
2, 13692, Note_on_c, 0, 48, 0
2, 13692, Control_c, 0, 64, 127
2, 13723, Note_on_c, 0, 75, 0
2, 13724, Note_on_c, 0, 87, 0
2, 13748, Note_on_c, 0, 88, 47
2, 13750, Note_on_c, 0, 76, 44
2, 13762, Note_on_c, 0, 76, 0
2, 13769, Note_on_c, 0, 88, 0
2, 13822, Control_c, 0, 64, 0
2, 13822, Note_on_c, 0, 78, 33
2, 13823, Note_on_c, 0, 90, 44
2, 13823, Note_on_c, 0, 63, 32
2, 13825, Note_on_c, 0, 58, 33
2, 13828, Note_on_c, 0, 52, 34
2, 13837, Control_c, 0, 64, 127
2, 13842, Note_on_c, 0, 63, 0
2, 13843, Note_on_c, 0, 52, 0
2, 13848, Note_on_c, 0, 58, 0
2, 13860, Note_on_c, 0, 90, 0
2, 13864, Note_on_c, 0, 78, 0
2, 13904, Note_on_c, 0, 93, 37
2, 13906, Note_on_c, 0, 81, 35
2, 13935, Note_on_c, 0, 81, 0
2, 13940, Note_on_c, 0, 93, 0
2, 13998, Note_on_c, 0, 30, 37
2, 14002, Note_on_c, 0, 96, 38
2, 14002, Note_on_c, 0, 42, 25
2, 14005, Note_on_c, 0, 84, 38
2, 14021, Note_on_c, 0, 84, 0
2, 14021, Note_on_c, 0, 42, 0
2, 14024, Note_on_c, 0, 30, 0
2, 14027, Note_on_c, 0, 96, 0
2, 14348, Note_on_c, 0, 48, 36
2, 14351, Control_c, 0, 64, 0
2, 14353, Note_on_c, 0, 41, 27
2, 14353, Note_on_c, 0, 76, 46
2, 14354, Note_on_c, 0, 67, 40
2, 14356, Note_on_c, 0, 57, 36
2, 14357, Note_on_c, 0, 72, 43
2, 14378, Control_c, 0, 64, 127
2, 14386, Note_on_c, 0, 41, 0
2, 14390, Note_on_c, 0, 48, 0
2, 14407, Note_on_c, 0, 57, 0
2, 14410, Note_on_c, 0, 67, 0
2, 14429, Note_on_c, 0, 72, 0
2, 14443, Note_on_c, 0, 76, 0
2, 14474, Note_on_c, 0, 79, 74
2, 14476, Note_on_c, 0, 69, 71
2, 14477, Note_on_c, 0, 72, 70
2, 14477, Note_on_c, 0, 76, 71
2, 14477, Note_on_c, 0, 64, 67
2, 14480, Note_on_c, 0, 62, 40
2, 14486, Note_on_c, 0, 62, 0
2, 14492, Control_c, 0, 64, 0
2, 14509, Control_c, 0, 64, 127
2, 14514, Note_on_c, 0, 79, 0
2, 14515, Note_on_c, 0, 76, 0
2, 14517, Note_on_c, 0, 69, 0
2, 14520, Note_on_c, 0, 72, 0
2, 14532, Note_on_c, 0, 64, 0
2, 14534, Control_c, 0, 64, 0
2, 14536, Note_on_c, 0, 77, 56
2, 14537, Note_on_c, 0, 62, 36
2, 14540, Note_on_c, 0, 69, 32
2, 14540, Note_on_c, 0, 72, 52
2, 14554, Control_c, 0, 64, 127
2, 14564, Note_on_c, 0, 77, 0
2, 14567, Note_on_c, 0, 72, 0
2, 14578, Note_on_c, 0, 69, 0
2, 14605, Note_on_c, 0, 62, 0
2, 14611, Note_on_c, 0, 76, 45
2, 14613, Note_on_c, 0, 72, 40
2, 14616, Note_on_c, 0, 60, 33
2, 14616, Control_c, 0, 64, 0
2, 14621, Note_on_c, 0, 69, 24
2, 14624, Note_on_c, 0, 65, 24
2, 14638, Control_c, 0, 64, 127
2, 14660, Note_on_c, 0, 72, 0
2, 14666, Note_on_c, 0, 69, 0
2, 14668, Note_on_c, 0, 65, 0
2, 14681, Note_on_c, 0, 76, 0
2, 14686, Note_on_c, 0, 60, 0
2, 14688, Note_on_c, 0, 72, 47
2, 14690, Note_on_c, 0, 57, 37
2, 14695, Note_on_c, 0, 69, 30
2, 14696, Note_on_c, 0, 65, 20
2, 14706, Note_on_c, 0, 69, 0
2, 14716, Note_on_c, 0, 65, 0
2, 14736, Note_on_c, 0, 57, 0
2, 14742, Note_on_c, 0, 72, 0
2, 14766, Control_c, 0, 64, 0
2, 14767, Note_on_c, 0, 75, 46
2, 14768, Note_on_c, 0, 72, 43
2, 14770, Note_on_c, 0, 68, 46
2, 14774, Note_on_c, 0, 65, 36
2, 14790, Control_c, 0, 64, 127
2, 14808, Note_on_c, 0, 72, 0
2, 14810, Note_on_c, 0, 75, 0
2, 14815, Note_on_c, 0, 68, 0
2, 14820, Note_on_c, 0, 65, 0
2, 14822, Note_on_c, 0, 41, 46
2, 14858, Note_on_c, 0, 41, 0
2, 14858, Note_on_c, 0, 48, 51
2, 14882, Note_on_c, 0, 48, 0
2, 14889, Note_on_c, 0, 51, 48
2, 14915, Note_on_c, 0, 51, 0
2, 14932, Note_on_c, 0, 52, 63
2, 14948, Note_on_c, 0, 52, 0
2, 14950, Control_c, 0, 64, 0
2, 14974, Note_on_c, 0, 56, 53
2, 14976, Note_on_c, 0, 63, 55
2, 14979, Note_on_c, 0, 55, 46
2, 14988, Note_on_c, 0, 60, 20
2, 14998, Note_on_c, 0, 55, 0
2, 15031, Note_on_c, 0, 56, 0
2, 15038, Note_on_c, 0, 57, 58
2, 15039, Note_on_c, 0, 55, 58
2, 15074, Note_on_c, 0, 57, 0
2, 15075, Note_on_c, 0, 55, 0
2, 15098, Note_on_c, 0, 56, 55
2, 15117, Note_on_c, 0, 60, 0
2, 15117, Control_c, 0, 64, 127
2, 15129, Control_c, 0, 64, 0
2, 15132, Note_on_c, 0, 56, 0
2, 15141, Note_on_c, 0, 63, 0
2, 15149, Note_on_c, 0, 53, 55
2, 15154, Control_c, 0, 64, 127
2, 15164, Note_on_c, 0, 53, 0
2, 15190, Note_on_c, 0, 60, 54
2, 15232, Note_on_c, 0, 56, 44
2, 15238, Note_on_c, 0, 60, 0
2, 15254, Note_on_c, 0, 40, 29
2, 15256, Note_on_c, 0, 56, 0
2, 15270, Control_c, 0, 64, 0
2, 15273, Note_on_c, 0, 55, 72
2, 15315, Note_on_c, 0, 55, 0
2, 15318, Control_c, 0, 64, 127
2, 15322, Note_on_c, 0, 47, 58
2, 15333, Note_on_c, 0, 40, 0
2, 15360, Note_on_c, 0, 47, 0
2, 15368, Note_on_c, 0, 67, 53
2, 15369, Note_on_c, 0, 55, 55
2, 15369, Note_on_c, 0, 59, 52
2, 15385, Note_on_c, 0, 59, 0
2, 15389, Note_on_c, 0, 55, 0
2, 15407, Note_on_c, 0, 67, 0
2, 15426, Note_on_c, 0, 59, 35
2, 15465, Note_on_c, 0, 59, 0
2, 15483, Note_on_c, 0, 62, 59
2, 15484, Note_on_c, 0, 74, 76
2, 15484, Note_on_c, 0, 64, 76
2, 15484, Note_on_c, 0, 73, 42
2, 15485, Note_on_c, 0, 67, 66
2, 15485, Note_on_c, 0, 71, 65
2, 15492, Control_c, 0, 64, 0
2, 15518, Control_c, 0, 64, 127
2, 15525, Note_on_c, 0, 73, 0
2, 15533, Note_on_c, 0, 71, 0
2, 15548, Note_on_c, 0, 62, 0
2, 15570, Note_on_c, 0, 67, 0
2, 15571, Note_on_c, 0, 64, 0
2, 15590, Note_on_c, 0, 74, 0
2, 15599, Note_on_c, 0, 71, 60
2, 15601, Note_on_c, 0, 64, 40
2, 15621, Note_on_c, 0, 64, 0
2, 15628, Note_on_c, 0, 71, 0
2, 15638, Note_on_c, 0, 72, 64
2, 15668, Note_on_c, 0, 72, 0
2, 15683, Note_on_c, 0, 62, 34
2, 15685, Control_c, 0, 64, 0
2, 15685, Note_on_c, 0, 74, 57
2, 15686, Note_on_c, 0, 71, 46
2, 15688, Note_on_c, 0, 67, 37
2, 15688, Note_on_c, 0, 64, 41
2, 15689, Note_on_c, 0, 52, 38
2, 15725, Control_c, 0, 64, 127
2, 15738, Note_on_c, 0, 71, 0
2, 15743, Note_on_c, 0, 62, 0
2, 15747, Note_on_c, 0, 59, 40
2, 15755, Note_on_c, 0, 64, 0
2, 15760, Note_on_c, 0, 67, 0
2, 15775, Note_on_c, 0, 74, 0
2, 15790, Note_on_c, 0, 52, 0
2, 15793, Note_on_c, 0, 62, 30
2, 15798, Note_on_c, 0, 71, 60
2, 15800, Note_on_c, 0, 64, 49
2, 15805, Note_on_c, 0, 62, 0
2, 15815, Note_on_c, 0, 59, 0
2, 15822, Note_on_c, 0, 71, 0
2, 15822, Note_on_c, 0, 64, 0
2, 15834, Note_on_c, 0, 72, 64
2, 15860, Note_on_c, 0, 72, 0
2, 15869, Note_on_c, 0, 74, 69
2, 15887, Note_on_c, 0, 74, 0
2, 15905, Note_on_c, 0, 76, 78
2, 15924, Note_on_c, 0, 76, 0
2, 15949, Note_on_c, 0, 77, 81
2, 15971, Note_on_c, 0, 77, 0
2, 15996, Note_on_c, 0, 81, 76
2, 16016, Note_on_c, 0, 81, 0
2, 16046, Note_on_c, 0, 79, 68
2, 16051, Note_on_c, 0, 48, 48
2, 16052, Control_c, 0, 64, 0
2, 16081, Control_c, 0, 64, 127
2, 16086, Note_on_c, 0, 58, 45
2, 16087, Note_on_c, 0, 48, 0
2, 16103, Note_on_c, 0, 58, 0
2, 16116, Note_on_c, 0, 79, 0
2, 16135, Note_on_c, 0, 74, 41
2, 16136, Note_on_c, 0, 67, 41
2, 16137, Note_on_c, 0, 58, 36
2, 16138, Note_on_c, 0, 70, 42
2, 16160, Note_on_c, 0, 67, 0
2, 16168, Note_on_c, 0, 74, 0
2, 16173, Note_on_c, 0, 70, 0
2, 16180, Note_on_c, 0, 77, 62
2, 16182, Note_on_c, 0, 58, 0
2, 16186, Note_on_c, 0, 64, 49
2, 16201, Note_on_c, 0, 77, 0
2, 16202, Note_on_c, 0, 64, 0
2, 16234, Note_on_c, 0, 82, 67
2, 16240, Note_on_c, 0, 69, 63
2, 16240, Note_on_c, 0, 74, 70
2, 16240, Note_on_c, 0, 70, 72
2, 16241, Control_c, 0, 64, 0
2, 16243, Note_on_c, 0, 77, 41
2, 16251, Note_on_c, 0, 82, 0
2, 16253, Note_on_c, 0, 81, 68
2, 16266, Control_c, 0, 64, 127
2, 16273, Note_on_c, 0, 81, 0
2, 16285, Note_on_c, 0, 77, 0
2, 16290, Note_on_c, 0, 74, 0
2, 16294, Note_on_c, 0, 70, 0
2, 16296, Control_c, 0, 64, 0
2, 16300, Note_on_c, 0, 69, 0
2, 16302, Note_on_c, 0, 80, 60
2, 16304, Note_on_c, 0, 68, 61
2, 16305, Note_on_c, 0, 70, 37
2, 16309, Note_on_c, 0, 77, 31
2, 16310, Note_on_c, 0, 74, 31
2, 16316, Control_c, 0, 64, 127
2, 16323, Note_on_c, 0, 74, 0
2, 16324, Note_on_c, 0, 77, 0
2, 16337, Note_on_c, 0, 80, 0
2, 16348, Note_on_c, 0, 70, 0
2, 16357, Note_on_c, 0, 68, 0
2, 16360, Control_c, 0, 64, 0
2, 16368, Note_on_c, 0, 79, 60
2, 16370, Note_on_c, 0, 70, 46
2, 16370, Note_on_c, 0, 67, 39
2, 16374, Note_on_c, 0, 73, 49
2, 16374, Note_on_c, 0, 76, 34
2, 16375, Note_on_c, 0, 78, 25
2, 16376, Control_c, 0, 64, 127
2, 16385, Note_on_c, 0, 76, 0
2, 16405, Note_on_c, 0, 73, 0
2, 16408, Note_on_c, 0, 70, 0
2, 16411, Note_on_c, 0, 79, 0
2, 16418, Note_on_c, 0, 78, 0
2, 16418, Note_on_c, 0, 67, 0
2, 16429, Note_on_c, 0, 76, 51
2, 16430, Note_on_c, 0, 70, 39
2, 16434, Note_on_c, 0, 73, 42
2, 16436, Note_on_c, 0, 64, 29
2, 16443, Note_on_c, 0, 64, 0
2, 16451, Note_on_c, 0, 70, 0
2, 16456, Note_on_c, 0, 76, 0
2, 16460, Note_on_c, 0, 73, 0
2, 16489, Control_c, 0, 64, 0
2, 16492, Note_on_c, 0, 72, 57
2, 16493, Note_on_c, 0, 69, 49
2, 16500, Note_on_c, 0, 53, 32
2, 16504, Note_on_c, 0, 64, 17
2, 16521, Control_c, 0, 64, 127
2, 16542, Note_on_c, 0, 69, 0
2, 16544, Note_on_c, 0, 64, 0
2, 16549, Note_on_c, 0, 60, 40
2, 16557, Note_on_c, 0, 72, 0
2, 16600, Note_on_c, 0, 60, 0
2, 16604, Note_on_c, 0, 81, 90
2, 16605, Note_on_c, 0, 76, 78
2, 16607, Note_on_c, 0, 72, 87
2, 16609, Note_on_c, 0, 64, 64
2, 16640, Note_on_c, 0, 81, 0
2, 16645, Note_on_c, 0, 72, 0
2, 16647, Note_on_c, 0, 64, 0
2, 16656, Note_on_c, 0, 76, 0
2, 16667, Control_c, 0, 64, 0
2, 16672, Note_on_c, 0, 79, 62
2, 16674, Note_on_c, 0, 72, 74
2, 16676, Note_on_c, 0, 69, 68
2, 16678, Note_on_c, 0, 62, 49
2, 16685, Control_c, 0, 64, 127
2, 16697, Note_on_c, 0, 79, 0
2, 16698, Note_on_c, 0, 72, 0
2, 16709, Note_on_c, 0, 69, 0
2, 16738, Control_c, 0, 64, 0
2, 16742, Note_on_c, 0, 77, 66
2, 16743, Note_on_c, 0, 62, 0
2, 16746, Note_on_c, 0, 72, 57
2, 16747, Note_on_c, 0, 69, 48
2, 16750, Note_on_c, 0, 60, 35
2, 16754, Control_c, 0, 64, 127
2, 16758, Note_on_c, 0, 72, 0
2, 16765, Note_on_c, 0, 77, 0
2, 16767, Note_on_c, 0, 69, 0
2, 16802, Note_on_c, 0, 60, 0
2, 16810, Note_on_c, 0, 76, 57
2, 16813, Note_on_c, 0, 69, 46
2, 16814, Note_on_c, 0, 72, 52
2, 16815, Note_on_c, 0, 64, 42
2, 16837, Note_on_c, 0, 72, 0
2, 16845, Note_on_c, 0, 69, 0
2, 16854, Note_on_c, 0, 64, 0
2, 16856, Note_on_c, 0, 76, 0
2, 16865, Note_on_c, 0, 72, 62
2, 16870, Note_on_c, 0, 69, 35
2, 16873, Note_on_c, 0, 53, 0
2, 16884, Note_on_c, 0, 72, 0
2, 16886, Note_on_c, 0, 69, 0
2, 16920, Note_on_c, 0, 64, 41
2, 16929, Note_on_c, 0, 64, 0
2, 16934, Note_on_c, 0, 48, 38
2, 16982, Note_on_c, 0, 48, 0
2, 16982, Note_on_c, 0, 63, 39
2, 16986, Note_on_c, 0, 60, 36
2, 16990, Note_on_c, 0, 56, 30
2, 16990, Note_on_c, 0, 51, 33
2, 16992, Control_c, 0, 64, 0
2, 16997, Note_on_c, 0, 41, 30
2, 17025, Note_on_c, 0, 60, 0
2, 17026, Note_on_c, 0, 56, 0
2, 17027, Control_c, 0, 64, 127
2, 17032, Note_on_c, 0, 63, 0
2, 17042, Note_on_c, 0, 51, 0
2, 17044, Note_on_c, 0, 41, 0
2, 17046, Note_on_c, 0, 48, 43
2, 17054, Note_on_c, 0, 48, 0
2, 17104, Note_on_c, 0, 72, 52
2, 17104, Note_on_c, 0, 68, 38
2, 17110, Note_on_c, 0, 65, 32
2, 17112, Note_on_c, 0, 60, 43
2, 17170, Note_on_c, 0, 63, 48
2, 17174, Note_on_c, 0, 65, 0
2, 17198, Note_on_c, 0, 68, 0
2, 17200, Note_on_c, 0, 72, 0
2, 17240, Note_on_c, 0, 75, 46
2, 17241, Note_on_c, 0, 68, 36
2, 17244, Note_on_c, 0, 72, 43
2, 17245, Note_on_c, 0, 65, 25
2, 17252, Note_on_c, 0, 60, 0
2, 17316, Note_on_c, 0, 60, 34
2, 17337, Note_on_c, 0, 65, 0
2, 17346, Note_on_c, 0, 72, 0
2, 17352, Note_on_c, 0, 68, 0
2, 17358, Note_on_c, 0, 75, 0
2, 17373, Note_on_c, 0, 63, 0
2, 17390, Note_on_c, 0, 76, 61
2, 17391, Note_on_c, 0, 63, 42
2, 17392, Note_on_c, 0, 68, 42
2, 17405, Note_on_c, 0, 68, 0
2, 17413, Note_on_c, 0, 63, 0
2, 17414, Note_on_c, 0, 76, 0
2, 17423, Note_on_c, 0, 60, 0
2, 17446, Note_on_c, 0, 77, 66
2, 17473, Note_on_c, 0, 77, 0
2, 17502, Note_on_c, 0, 79, 57
2, 17504, Note_on_c, 0, 52, 58
2, 17504, Note_on_c, 0, 67, 47
2, 17504, Note_on_c, 0, 62, 40
2, 17504, Note_on_c, 0, 74, 50
2, 17507, Control_c, 0, 64, 0
2, 17540, Note_on_c, 0, 79, 0
2, 17544, Control_c, 0, 64, 127
2, 17559, Note_on_c, 0, 79, 66
2, 17592, Note_on_c, 0, 79, 0
2, 17613, Note_on_c, 0, 79, 72
2, 17623, Note_on_c, 0, 52, 0
2, 17645, Note_on_c, 0, 79, 0
2, 17646, Note_on_c, 0, 62, 0
2, 17658, Note_on_c, 0, 67, 0
2, 17658, Note_on_c, 0, 74, 0
2, 17671, Note_on_c, 0, 79, 71
2, 17702, Note_on_c, 0, 79, 0
2, 17733, Note_on_c, 0, 79, 64
2, 17760, Note_on_c, 0, 79, 0
2, 17799, Note_on_c, 0, 79, 54
2, 17816, Note_on_c, 0, 79, 0
2, 17874, Note_on_c, 0, 82, 63
2, 17875, Note_on_c, 0, 73, 46
2, 17878, Note_on_c, 0, 77, 55
2, 17879, Note_on_c, 0, 61, 37
2, 17880, Note_on_c, 0, 55, 30
2, 17881, Note_on_c, 0, 65, 28
2, 17884, Control_c, 0, 64, 0
2, 17932, Control_c, 0, 64, 127
2, 17939, Note_on_c, 0, 82, 0
2, 17954, Note_on_c, 0, 82, 55
2, 18000, Note_on_c, 0, 82, 0
2, 18028, Note_on_c, 0, 82, 52
2, 18063, Note_on_c, 0, 82, 0
2, 18112, Note_on_c, 0, 82, 55
2, 18122, Note_on_c, 0, 65, 0
2, 18124, Note_on_c, 0, 77, 0
2, 18129, Note_on_c, 0, 73, 0
2, 18135, Note_on_c, 0, 82, 0
2, 18136, Note_on_c, 0, 61, 0
2, 18196, Note_on_c, 0, 79, 53
2, 18199, Control_c, 0, 64, 0
2, 18200, Note_on_c, 0, 77, 51
2, 18206, Note_on_c, 0, 72, 26
2, 18207, Note_on_c, 0, 67, 26
2, 18212, Note_on_c, 0, 55, 0
2, 18225, Control_c, 0, 64, 127
2, 18226, Note_on_c, 0, 67, 0
2, 18227, Note_on_c, 0, 69, 2
2, 18252, Note_on_c, 0, 79, 0
2, 18253, Note_on_c, 0, 77, 0
2, 18258, Note_on_c, 0, 72, 0
2, 18264, Note_on_c, 0, 69, 0
2, 18294, Note_on_c, 0, 55, 44
2, 18391, Note_on_c, 0, 67, 22
2, 18392, Note_on_c, 0, 65, 19
2, 18393, Note_on_c, 0, 60, 31
2, 18396, Note_on_c, 0, 57, 24
2, 18507, Note_on_c, 0, 43, 28
2, 18522, Note_on_c, 0, 55, 0
2, 18544, Note_on_c, 0, 43, 0
2, 18551, Note_on_c, 0, 57, 0
2, 18561, Note_on_c, 0, 60, 0
2, 18562, Note_on_c, 0, 67, 0
2, 18584, Note_on_c, 0, 65, 0
2, 18627, Control_c, 0, 64, 0
2, 18631, Note_on_c, 0, 67, 53
2, 18632, Note_on_c, 0, 63, 44
2, 18634, Note_on_c, 0, 34, 48
2, 18634, Note_on_c, 0, 60, 54
2, 18636, Note_on_c, 0, 56, 34
2, 18637, Note_on_c, 0, 46, 31
2, 18652, Control_c, 0, 64, 127
2, 18660, Note_on_c, 0, 34, 0
2, 18671, Note_on_c, 0, 56, 0
2, 18671, Note_on_c, 0, 60, 0
2, 18673, Note_on_c, 0, 46, 0
2, 18675, Note_on_c, 0, 67, 0
2, 18686, Note_on_c, 0, 63, 0
2, 18754, Note_on_c, 0, 70, 62
2, 18754, Note_on_c, 0, 63, 59
2, 18756, Note_on_c, 0, 58, 38
2, 18757, Note_on_c, 0, 65, 55
2, 18759, Note_on_c, 0, 60, 47
2, 18793, Note_on_c, 0, 58, 0
2, 18823, Note_on_c, 0, 70, 0
2, 18824, Note_on_c, 0, 60, 0
2, 18828, Note_on_c, 0, 65, 0
2, 18855, Note_on_c, 0, 63, 0
2, 18926, Note_on_c, 0, 70, 49
2, 18927, Note_on_c, 0, 67, 46
2, 18928, Note_on_c, 0, 62, 40
2, 18933, Note_on_c, 0, 46, 30
2, 18934, Note_on_c, 0, 56, 25
2, 18937, Control_c, 0, 64, 0
2, 18977, Control_c, 0, 64, 127
2, 19062, Note_on_c, 0, 67, 0
2, 19070, Note_on_c, 0, 62, 0
2, 19071, Note_on_c, 0, 56, 0
2, 19086, Note_on_c, 0, 70, 0
2, 19244, Note_on_c, 0, 70, 78
2, 19246, Note_on_c, 0, 62, 66
2, 19247, Note_on_c, 0, 66, 72
2, 19249, Note_on_c, 0, 56, 40
2, 19270, Note_on_c, 0, 56, 0
2, 19280, Note_on_c, 0, 46, 0
2, 19289, Note_on_c, 0, 62, 0
2, 19293, Note_on_c, 0, 70, 0
2, 19294, Note_on_c, 0, 66, 0
2, 19334, Note_on_c, 0, 74, 88
2, 19335, Note_on_c, 0, 67, 91
2, 19338, Note_on_c, 0, 39, 64
2, 19340, Control_c, 0, 64, 0
2, 19376, Control_c, 0, 64, 127
2, 19387, Note_on_c, 0, 46, 67
2, 19388, Note_on_c, 0, 39, 0
2, 19394, Note_on_c, 0, 67, 0
2, 19421, Note_on_c, 0, 74, 0
2, 19426, Note_on_c, 0, 46, 0
2, 19432, Note_on_c, 0, 70, 68
2, 19434, Note_on_c, 0, 62, 62
2, 19435, Note_on_c, 0, 67, 63
2, 19436, Note_on_c, 0, 55, 57
2, 19452, Note_on_c, 0, 62, 0
2, 19460, Note_on_c, 0, 67, 0
2, 19471, Note_on_c, 0, 70, 0
2, 19482, Note_on_c, 0, 58, 59
2, 19492, Note_on_c, 0, 55, 0
2, 19533, Note_on_c, 0, 62, 67
2, 19535, Note_on_c, 0, 77, 89
2, 19535, Note_on_c, 0, 70, 95
2, 19586, Note_on_c, 0, 62, 0
2, 19598, Note_on_c, 0, 67, 69
2, 19623, Note_on_c, 0, 70, 0
2, 19635, Note_on_c, 0, 67, 0
2, 19652, Note_on_c, 0, 77, 0
2, 19660, Note_on_c, 0, 74, 68
2, 19661, Note_on_c, 0, 70, 71
2, 19662, Note_on_c, 0, 62, 66
2, 19663, Note_on_c, 0, 67, 63
2, 19669, Note_on_c, 0, 58, 0
2, 19698, Note_on_c, 0, 74, 0
2, 19717, Note_on_c, 0, 70, 0
2, 19718, Note_on_c, 0, 67, 0
2, 19718, Note_on_c, 0, 58, 62
2, 19719, Note_on_c, 0, 62, 0
2, 19731, Note_on_c, 0, 58, 0
2, 19784, Control_c, 0, 64, 0
2, 19785, Note_on_c, 0, 74, 89
2, 19786, Note_on_c, 0, 67, 80
2, 19787, Note_on_c, 0, 63, 78
2, 19787, Note_on_c, 0, 45, 71
2, 19789, Note_on_c, 0, 69, 64
2, 19808, Control_c, 0, 64, 127
2, 19810, Note_on_c, 0, 63, 0
2, 19820, Note_on_c, 0, 69, 0
2, 19822, Note_on_c, 0, 67, 0
2, 19828, Note_on_c, 0, 74, 0
2, 19854, Note_on_c, 0, 52, 69
2, 19860, Note_on_c, 0, 45, 0
2, 19872, Note_on_c, 0, 52, 0
2, 19929, Note_on_c, 0, 86, 90
2, 19931, Note_on_c, 0, 79, 90
2, 19932, Note_on_c, 0, 75, 90
2, 19932, Note_on_c, 0, 74, 94
2, 19934, Note_on_c, 0, 81, 80
2, 19940, Note_on_c, 0, 84, 38
2, 19949, Note_on_c, 0, 84, 0
2, 19995, Note_on_c, 0, 86, 0
2, 20003, Note_on_c, 0, 79, 0
2, 20007, Note_on_c, 0, 81, 0
2, 20008, Note_on_c, 0, 75, 0
2, 20019, Note_on_c, 0, 74, 0
2, 20026, Note_on_c, 0, 85, 86
2, 20027, Note_on_c, 0, 78, 79
2, 20028, Note_on_c, 0, 73, 77
2, 20029, Note_on_c, 0, 80, 74
2, 20029, Note_on_c, 0, 74, 80
2, 20034, Control_c, 0, 64, 0
2, 20034, Note_on_c, 0, 76, 60
2, 20041, Note_on_c, 0, 76, 0
2, 20050, Control_c, 0, 64, 127
2, 20074, Note_on_c, 0, 74, 0
2, 20078, Note_on_c, 0, 85, 0
2, 20088, Note_on_c, 0, 78, 0
2, 20089, Note_on_c, 0, 80, 0
2, 20100, Note_on_c, 0, 73, 0
2, 20103, Note_on_c, 0, 84, 87
2, 20106, Note_on_c, 0, 72, 76
2, 20108, Control_c, 0, 64, 0
2, 20109, Note_on_c, 0, 79, 60
2, 20111, Note_on_c, 0, 73, 56
2, 20111, Note_on_c, 0, 76, 60
2, 20112, Note_on_c, 0, 77, 42
2, 20119, Note_on_c, 0, 77, 0
2, 20128, Control_c, 0, 64, 127
2, 20150, Note_on_c, 0, 84, 0
2, 20155, Note_on_c, 0, 76, 0
2, 20158, Note_on_c, 0, 79, 0
2, 20163, Note_on_c, 0, 73, 0
2, 20175, Note_on_c, 0, 83, 82
2, 20175, Note_on_c, 0, 76, 76
2, 20177, Note_on_c, 0, 71, 74
2, 20179, Note_on_c, 0, 79, 57
2, 20181, Control_c, 0, 64, 0
2, 20197, Control_c, 0, 64, 127
2, 20206, Note_on_c, 0, 79, 0
2, 20211, Note_on_c, 0, 83, 0
2, 20221, Note_on_c, 0, 76, 0
2, 20225, Note_on_c, 0, 72, 0
2, 20250, Note_on_c, 0, 82, 77
2, 20253, Control_c, 0, 64, 0
2, 20253, Note_on_c, 0, 76, 80
2, 20253, Note_on_c, 0, 78, 69
2, 20254, Note_on_c, 0, 71, 0
2, 20254, Note_on_c, 0, 70, 67
2, 20255, Note_on_c, 0, 72, 74
2, 20271, Note_on_c, 0, 70, 0
2, 20273, Control_c, 0, 64, 127
2, 20307, Note_on_c, 0, 76, 0
2, 20319, Note_on_c, 0, 82, 0
2, 20347, Note_on_c, 0, 64, 36
2, 20349, Control_c, 0, 64, 0
2, 20355, Note_on_c, 0, 64, 0
2, 20359, Control_c, 0, 64, 127
2, 20372, Note_on_c, 0, 72, 0
2, 20375, Note_on_c, 0, 81, 26
2, 20400, Note_on_c, 0, 81, 0
2, 20411, Note_on_c, 0, 78, 0
2, 20424, Note_on_c, 0, 50, 66
2, 20446, Note_on_c, 0, 50, 0
2, 20517, Note_on_c, 0, 81, 62
2, 20519, Note_on_c, 0, 60, 39
2, 20520, Note_on_c, 0, 64, 41
2, 20521, Note_on_c, 0, 54, 36
2, 20523, Note_on_c, 0, 72, 35
2, 20524, Note_on_c, 0, 75, 31
2, 20527, Note_on_c, 0, 77, 29
2, 20561, Note_on_c, 0, 64, 0
2, 20563, Note_on_c, 0, 60, 0
2, 20575, Note_on_c, 0, 54, 0
2, 20575, Note_on_c, 0, 81, 0
2, 20592, Note_on_c, 0, 72, 0
2, 20601, Note_on_c, 0, 77, 0
2, 20606, Note_on_c, 0, 75, 0
2, 20713, Note_on_c, 0, 82, 60
2, 20718, Control_c, 0, 64, 0
2, 20719, Note_on_c, 0, 75, 60
2, 20720, Note_on_c, 0, 79, 50
2, 20723, Note_on_c, 0, 71, 53
2, 20726, Note_on_c, 0, 53, 42
2, 20726, Note_on_c, 0, 43, 36
2, 20738, Note_on_c, 0, 43, 0
2, 20746, Control_c, 0, 64, 127
2, 20747, Note_on_c, 0, 53, 0
2, 20781, Note_on_c, 0, 79, 0
2, 20786, Note_on_c, 0, 82, 0
2, 20788, Note_on_c, 0, 75, 0
2, 20791, Note_on_c, 0, 59, 55
2, 20794, Note_on_c, 0, 71, 0
2, 20850, Note_on_c, 0, 59, 0
2, 20851, Note_on_c, 0, 70, 57
2, 20853, Note_on_c, 0, 63, 65
2, 20856, Note_on_c, 0, 67, 62
2, 20915, Note_on_c, 0, 56, 70
2, 20937, Note_on_c, 0, 63, 0
2, 20952, Note_on_c, 0, 67, 0
2, 20967, Note_on_c, 0, 70, 0
2, 20976, Note_on_c, 0, 63, 67
2, 20977, Note_on_c, 0, 68, 62
2, 20980, Note_on_c, 0, 56, 0
2, 20980, Note_on_c, 0, 59, 50
2, 21036, Note_on_c, 0, 55, 79
2, 21069, Note_on_c, 0, 59, 0
2, 21072, Note_on_c, 0, 63, 0
2, 21080, Note_on_c, 0, 68, 0
2, 21091, Note_on_c, 0, 63, 49
2, 21094, Note_on_c, 0, 59, 58
2, 21096, Note_on_c, 0, 67, 55
2, 21097, Note_on_c, 0, 55, 0
2, 21150, Note_on_c, 0, 50, 65
2, 21153, Note_on_c, 0, 59, 0
2, 21157, Note_on_c, 0, 50, 0
2, 21183, Note_on_c, 0, 63, 0
2, 21204, Note_on_c, 0, 67, 0
2, 21240, Note_on_c, 0, 58, 65
2, 21240, Note_on_c, 0, 24, 55
2, 21241, Note_on_c, 0, 36, 64
2, 21242, Note_on_c, 0, 67, 56
2, 21242, Note_on_c, 0, 62, 62
2, 21244, Control_c, 0, 64, 0
2, 21244, Note_on_c, 0, 64, 62
2, 21258, Note_on_c, 0, 24, 0
2, 21262, Control_c, 0, 64, 127
2, 21284, Note_on_c, 0, 36, 0
2, 21311, Note_on_c, 0, 37, 63
2, 21338, Control_c, 0, 64, 0
2, 21346, Note_on_c, 0, 39, 65
2, 21352, Note_on_c, 0, 37, 0
2, 21366, Note_on_c, 0, 39, 0
2, 21378, Note_on_c, 0, 40, 55
2, 21393, Note_on_c, 0, 40, 0
2, 21409, Note_on_c, 0, 42, 49
2, 21431, Note_on_c, 0, 42, 0
2, 21436, Note_on_c, 0, 43, 48
2, 21454, Note_on_c, 0, 43, 0
2, 21476, Note_on_c, 0, 45, 25
2, 21486, Note_on_c, 0, 45, 0
2, 21500, Note_on_c, 0, 46, 37
2, 21528, Note_on_c, 0, 46, 0
2, 21539, Note_on_c, 0, 48, 53
2, 21578, Note_on_c, 0, 49, 37
2, 21608, Note_on_c, 0, 62, 0
2, 21609, Note_on_c, 0, 67, 0
2, 21613, Note_on_c, 0, 49, 0
2, 21614, Note_on_c, 0, 64, 0
2, 21620, Note_on_c, 0, 51, 44
2, 21622, Note_on_c, 0, 58, 0
2, 21659, Note_on_c, 0, 48, 0
2, 21659, Control_c, 0, 64, 127
2, 21668, Note_on_c, 0, 51, 0
2, 21668, Note_on_c, 0, 52, 52
2, 21683, Control_c, 0, 64, 0
2, 21702, Note_on_c, 0, 54, 50
2, 21724, Note_on_c, 0, 54, 0
2, 21733, Note_on_c, 0, 55, 61
2, 21737, Control_c, 0, 64, 127
2, 21752, Note_on_c, 0, 55, 0
2, 21762, Note_on_c, 0, 57, 67
2, 21781, Note_on_c, 0, 52, 0
2, 21782, Note_on_c, 0, 57, 0
2, 21793, Note_on_c, 0, 58, 65
2, 21812, Note_on_c, 0, 58, 0
2, 21822, Note_on_c, 0, 59, 67
2, 21844, Note_on_c, 0, 59, 0
2, 21854, Note_on_c, 0, 60, 59
2, 21873, Note_on_c, 0, 60, 0
2, 21884, Note_on_c, 0, 48, 13
2, 21889, Note_on_c, 0, 62, 62
2, 21907, Note_on_c, 0, 62, 0
2, 21924, Note_on_c, 0, 63, 69
2, 21931, Note_on_c, 0, 48, 0
2, 21946, Note_on_c, 0, 63, 0
2, 21959, Note_on_c, 0, 64, 64
2, 21975, Note_on_c, 0, 64, 0
2, 21999, Note_on_c, 0, 65, 52
2, 22021, Note_on_c, 0, 65, 0
2, 22041, Note_on_c, 0, 66, 71
2, 22063, Note_on_c, 0, 66, 0
2, 22090, Note_on_c, 0, 67, 52
2, 22094, Note_on_c, 0, 51, 26
2, 22097, Note_on_c, 0, 41, 35
2, 22100, Control_c, 0, 64, 0
2, 22140, Control_c, 0, 64, 127
2, 22145, Note_on_c, 0, 57, 58
2, 22146, Note_on_c, 0, 67, 0
2, 22153, Note_on_c, 0, 41, 0
2, 22173, Note_on_c, 0, 51, 0
2, 22174, Note_on_c, 0, 57, 0
2, 22190, Note_on_c, 0, 60, 66
2, 22217, Note_on_c, 0, 60, 0
2, 22224, Note_on_c, 0, 67, 78
2, 22240, Note_on_c, 0, 67, 0
2, 22270, Note_on_c, 0, 72, 92
2, 22298, Note_on_c, 0, 72, 0
2, 22310, Note_on_c, 0, 79, 87
2, 22354, Note_on_c, 0, 74, 74
2, 22357, Note_on_c, 0, 62, 24
2, 22357, Note_on_c, 0, 63, 29
2, 22358, Note_on_c, 0, 67, 36
2, 22359, Note_on_c, 0, 57, 40
2, 22365, Control_c, 0, 64, 0
2, 22371, Note_on_c, 0, 79, 0
2, 22405, Note_on_c, 0, 75, 61
2, 22411, Note_on_c, 0, 74, 0
2, 22449, Control_c, 0, 64, 127
2, 22452, Note_on_c, 0, 71, 58
2, 22453, Note_on_c, 0, 75, 0
2, 22493, Note_on_c, 0, 71, 0
2, 22498, Note_on_c, 0, 74, 71
2, 22545, Note_on_c, 0, 74, 0
2, 22545, Note_on_c, 0, 71, 62
2, 22576, Note_on_c, 0, 71, 0
2, 22587, Note_on_c, 0, 72, 77
2, 22621, Note_on_c, 0, 72, 0
2, 22629, Note_on_c, 0, 67, 0
2, 22630, Note_on_c, 0, 62, 0
2, 22632, Note_on_c, 0, 74, 83
2, 22643, Note_on_c, 0, 57, 0
2, 22648, Note_on_c, 0, 63, 0
2, 22660, Note_on_c, 0, 74, 0
2, 22674, Note_on_c, 0, 75, 73
2, 22711, Note_on_c, 0, 75, 0
2, 22724, Note_on_c, 0, 77, 73
2, 22769, Note_on_c, 0, 77, 0
2, 22780, Note_on_c, 0, 78, 60
2, 22849, Note_on_c, 0, 78, 0
2, 22970, Note_on_c, 0, 78, 69
2, 22972, Note_on_c, 0, 68, 43
2, 22974, Note_on_c, 0, 63, 44
2, 22974, Note_on_c, 0, 57, 49
2, 22989, Control_c, 0, 64, 0
2, 23028, Control_c, 0, 64, 127
2, 23039, Note_on_c, 0, 78, 0
2, 23052, Note_on_c, 0, 78, 53
2, 23075, Note_on_c, 0, 78, 0
2, 23111, Note_on_c, 0, 78, 53
2, 23134, Note_on_c, 0, 78, 0
2, 23162, Note_on_c, 0, 57, 0
2, 23168, Note_on_c, 0, 68, 0
2, 23174, Note_on_c, 0, 78, 39
2, 23190, Note_on_c, 0, 63, 0
2, 23192, Note_on_c, 0, 78, 0
2, 23231, Note_on_c, 0, 78, 46
2, 23243, Note_on_c, 0, 63, 33
2, 23246, Note_on_c, 0, 67, 35
2, 23246, Note_on_c, 0, 60, 38
2, 23248, Note_on_c, 0, 79, 64
2, 23250, Note_on_c, 0, 56, 31
2, 23252, Note_on_c, 0, 78, 0
2, 23253, Control_c, 0, 64, 0
2, 23305, Note_on_c, 0, 79, 0
2, 23305, Control_c, 0, 64, 127
2, 23328, Note_on_c, 0, 79, 48
2, 23363, Note_on_c, 0, 79, 0
2, 23418, Note_on_c, 0, 79, 49
2, 23510, Note_on_c, 0, 79, 0
2, 23566, Control_c, 0, 64, 127
2, 23627, Note_on_c, 0, 70, 55
2, 23629, Control_c, 0, 64, 0
2, 23632, Note_on_c, 0, 66, 37
2, 23632, Note_on_c, 0, 56, 36
2, 23634, Note_on_c, 0, 62, 34
2, 23649, Control_c, 0, 64, 127
2, 23659, Note_on_c, 0, 56, 0
2, 23666, Note_on_c, 0, 67, 0
2, 23693, Note_on_c, 0, 60, 0
2, 23706, Note_on_c, 0, 63, 0
2, 23714, Note_on_c, 0, 56, 0
2, 23740, Note_on_c, 0, 62, 0
2, 23747, Note_on_c, 0, 66, 0
2, 23751, Note_on_c, 0, 70, 0
2, 23791, Note_on_c, 0, 74, 62
2, 23792, Note_on_c, 0, 66, 45
2, 23793, Note_on_c, 0, 62, 43
2, 23798, Note_on_c, 0, 39, 33
2, 23799, Control_c, 0, 64, 0
2, 23821, Control_c, 0, 64, 127
2, 23876, Note_on_c, 0, 39, 0
2, 23884, Note_on_c, 0, 46, 36
2, 23912, Note_on_c, 0, 46, 0
2, 23935, Note_on_c, 0, 55, 36
2, 23951, Note_on_c, 0, 55, 0
2, 23978, Note_on_c, 0, 57, 58
2, 23993, Note_on_c, 0, 62, 0
2, 24005, Note_on_c, 0, 66, 0
2, 24022, Note_on_c, 0, 57, 0
2, 24023, Note_on_c, 0, 58, 70
2, 24029, Note_on_c, 0, 74, 0
2, 24076, Note_on_c, 0, 60, 50
2, 24145, Note_on_c, 0, 62, 60
2, 24146, Note_on_c, 0, 60, 0
2, 24182, Note_on_c, 0, 62, 0
2, 24188, Note_on_c, 0, 63, 55
2, 24202, Note_on_c, 0, 63, 0
2, 24211, Note_on_c, 0, 65, 58
2, 24225, Note_on_c, 0, 65, 0
2, 24237, Note_on_c, 0, 66, 49
2, 24254, Note_on_c, 0, 68, 58
2, 24255, Note_on_c, 0, 66, 0
2, 24262, Note_on_c, 0, 68, 0
2, 24276, Note_on_c, 0, 69, 56
2, 24294, Note_on_c, 0, 69, 0
2, 24298, Note_on_c, 0, 58, 0
2, 24305, Note_on_c, 0, 70, 62
2, 24312, Note_on_c, 0, 70, 0
2, 24348, Note_on_c, 0, 72, 60
2, 24365, Note_on_c, 0, 72, 0
2, 24375, Note_on_c, 0, 74, 39
2, 24409, Note_on_c, 0, 74, 0
2, 24409, Note_on_c, 0, 75, 61
2, 24433, Note_on_c, 0, 75, 0
2, 24436, Note_on_c, 0, 76, 57
2, 24451, Note_on_c, 0, 76, 0
2, 24461, Control_c, 0, 64, 0
2, 24464, Note_on_c, 0, 77, 54
2, 24468, Note_on_c, 0, 39, 29
2, 24500, Control_c, 0, 64, 127
2, 24520, Note_on_c, 0, 46, 38
2, 24522, Note_on_c, 0, 39, 0
2, 24522, Note_on_c, 0, 74, 44
2, 24546, Note_on_c, 0, 74, 0
2, 24559, Note_on_c, 0, 46, 0
2, 24579, Note_on_c, 0, 74, 24
2, 24583, Note_on_c, 0, 70, 29
2, 24584, Note_on_c, 0, 65, 24
2, 24593, Note_on_c, 0, 55, 34
2, 24648, Note_on_c, 0, 55, 0
2, 24652, Note_on_c, 0, 58, 25
2, 24656, Note_on_c, 0, 70, 0
2, 24657, Note_on_c, 0, 65, 0
2, 24723, Note_on_c, 0, 77, 0
2, 24724, Note_on_c, 0, 62, 32
2, 24727, Note_on_c, 0, 70, 35
2, 24734, Note_on_c, 0, 65, 20
2, 24754, Note_on_c, 0, 65, 0
2, 24754, Note_on_c, 0, 74, 0
2, 24800, Note_on_c, 0, 70, 0
2, 24817, Note_on_c, 0, 67, 27
2, 24909, Note_on_c, 0, 82, 67
2, 24921, Note_on_c, 0, 82, 0
2, 24924, Note_on_c, 0, 67, 0
2, 24924, Note_on_c, 0, 84, 58
2, 24927, Note_on_c, 0, 62, 0
2, 24939, Note_on_c, 0, 82, 47
2, 24940, Note_on_c, 0, 84, 0
2, 24951, Note_on_c, 0, 84, 54
2, 24952, Note_on_c, 0, 82, 0
2, 24968, Note_on_c, 0, 58, 0
2, 24974, Note_on_c, 0, 82, 55
2, 24980, Note_on_c, 0, 84, 0
2, 25009, Note_on_c, 0, 81, 38
2, 25010, Note_on_c, 0, 82, 0
2, 25030, Note_on_c, 0, 81, 0
2, 25056, Note_on_c, 0, 82, 71
2, 25083, Note_on_c, 0, 82, 0
2, 25100, Note_on_c, 0, 84, 90
2, 25134, Note_on_c, 0, 84, 0
2, 25147, Note_on_c, 0, 86, 74
2, 25171, Note_on_c, 0, 86, 0
2, 25198, Note_on_c, 0, 87, 65
2, 25228, Note_on_c, 0, 87, 0
2, 25258, Note_on_c, 0, 87, 70
2, 25276, Note_on_c, 0, 87, 0
2, 25320, Note_on_c, 0, 86, 77
2, 25330, Note_on_c, 0, 79, 53
2, 25331, Note_on_c, 0, 74, 49
2, 25332, Note_on_c, 0, 81, 35
2, 25333, Note_on_c, 0, 75, 50
2, 25333, Control_c, 0, 64, 0
2, 25361, Control_c, 0, 64, 127
2, 25445, Note_on_c, 0, 74, 0
2, 25505, Note_on_c, 0, 86, 0
2, 25547, Note_on_c, 0, 85, 55
2, 25625, Note_on_c, 0, 85, 0
2, 25639, Note_on_c, 0, 39, 45
2, 25654, Note_on_c, 0, 39, 0
2, 25679, Note_on_c, 0, 79, 0
2, 25693, Note_on_c, 0, 81, 0
2, 25703, Note_on_c, 0, 75, 0
2, 25758, Note_on_c, 0, 73, 69
2, 25759, Note_on_c, 0, 60, 41
2, 25763, Note_on_c, 0, 77, 66
2, 25764, Note_on_c, 0, 65, 45
2, 25766, Note_on_c, 0, 61, 38
2, 25770, Note_on_c, 0, 81, 63
2, 25772, Note_on_c, 0, 84, 70
2, 25821, Note_on_c, 0, 84, 0
2, 25829, Note_on_c, 0, 81, 0
2, 25842, Note_on_c, 0, 82, 74
2, 25853, Note_on_c, 0, 77, 0
2, 25861, Note_on_c, 0, 65, 0
2, 25861, Note_on_c, 0, 73, 0
2, 25870, Note_on_c, 0, 82, 0
2, 25871, Note_on_c, 0, 60, 0
2, 25910, Note_on_c, 0, 61, 0
2, 26057, Note_on_c, 0, 82, 55
2, 26060, Note_on_c, 0, 76, 54
2, 26060, Note_on_c, 0, 54, 39
2, 26060, Note_on_c, 0, 70, 49
2, 26061, Control_c, 0, 64, 0
2, 26061, Note_on_c, 0, 64, 38
2, 26064, Note_on_c, 0, 78, 46
2, 26089, Control_c, 0, 64, 127
2, 26108, Note_on_c, 0, 78, 0
2, 26108, Note_on_c, 0, 76, 0
2, 26112, Note_on_c, 0, 82, 0
2, 26115, Note_on_c, 0, 70, 0
2, 26125, Note_on_c, 0, 81, 66
2, 26128, Note_on_c, 0, 64, 0
2, 26130, Note_on_c, 0, 60, 40
2, 26159, Note_on_c, 0, 81, 0
2, 26193, Note_on_c, 0, 81, 55
2, 26195, Note_on_c, 0, 60, 0
2, 26197, Note_on_c, 0, 64, 44
2, 26198, Note_on_c, 0, 76, 49
2, 26199, Note_on_c, 0, 69, 37
2, 26204, Note_on_c, 0, 54, 0
2, 26208, Note_on_c, 0, 69, 0
2, 26210, Note_on_c, 0, 64, 0
2, 26212, Note_on_c, 0, 81, 0
2, 26217, Note_on_c, 0, 76, 0
2, 26264, Note_on_c, 0, 84, 36
2, 26265, Note_on_c, 0, 54, 36
2, 26271, Note_on_c, 0, 60, 19
2, 26278, Note_on_c, 0, 84, 0
2, 26280, Note_on_c, 0, 60, 0
2, 26291, Note_on_c, 0, 54, 0
2, 26345, Note_on_c, 0, 82, 51
2, 26352, Control_c, 0, 64, 0
2, 26354, Note_on_c, 0, 70, 34
2, 26366, Note_on_c, 0, 43, 36
2, 26382, Control_c, 0, 64, 127
2, 26397, Note_on_c, 0, 82, 0
2, 26406, Note_on_c, 0, 70, 0
2, 26429, Note_on_c, 0, 43, 0
2, 26433, Note_on_c, 0, 55, 40
2, 26499, Note_on_c, 0, 70, 46
2, 26499, Note_on_c, 0, 61, 29
2, 26502, Note_on_c, 0, 56, 43
2, 26503, Note_on_c, 0, 65, 47
2, 26504, Note_on_c, 0, 55, 0
2, 26534, Control_c, 0, 64, 0
2, 26556, Note_on_c, 0, 58, 51
2, 26573, Note_on_c, 0, 56, 0
2, 26578, Note_on_c, 0, 65, 0
2, 26581, Note_on_c, 0, 70, 0
2, 26585, Note_on_c, 0, 61, 0
2, 26600, Control_c, 0, 64, 127
2, 26607, Note_on_c, 0, 60, 36
2, 26615, Note_on_c, 0, 60, 0
2, 26624, Note_on_c, 0, 61, 52
2, 26644, Note_on_c, 0, 61, 0
2, 26646, Note_on_c, 0, 63, 55
2, 26652, Control_c, 0, 64, 0
2, 26653, Note_on_c, 0, 63, 0
2, 26665, Note_on_c, 0, 64, 63
2, 26671, Note_on_c, 0, 60, 20
2, 26674, Note_on_c, 0, 64, 0
2, 26678, Note_on_c, 0, 60, 0
2, 26687, Note_on_c, 0, 66, 44
2, 26692, Note_on_c, 0, 58, 0
2, 26694, Note_on_c, 0, 66, 0
2, 26710, Note_on_c, 0, 67, 37
2, 26731, Note_on_c, 0, 67, 0
2, 26817, Note_on_c, 0, 67, 35
2, 26817, Note_on_c, 0, 58, 38
2, 26821, Control_c, 0, 64, 127
2, 26825, Note_on_c, 0, 67, 0
2, 26834, Note_on_c, 0, 68, 55
2, 26851, Note_on_c, 0, 68, 0
2, 26855, Note_on_c, 0, 70, 40
2, 26862, Note_on_c, 0, 70, 0
2, 26879, Note_on_c, 0, 72, 29
2, 26886, Note_on_c, 0, 72, 0
2, 26893, Note_on_c, 0, 73, 56
2, 26908, Note_on_c, 0, 73, 0
2, 26912, Note_on_c, 0, 75, 48
2, 26918, Note_on_c, 0, 75, 0
2, 26931, Note_on_c, 0, 76, 63
2, 26948, Note_on_c, 0, 76, 0
2, 26967, Note_on_c, 0, 78, 34
2, 26995, Note_on_c, 0, 79, 37
2, 27008, Note_on_c, 0, 78, 0
2, 27018, Note_on_c, 0, 58, 0
2, 27028, Note_on_c, 0, 79, 0
2, 27038, Note_on_c, 0, 81, 51
2, 27059, Note_on_c, 0, 81, 0
2, 27075, Note_on_c, 0, 82, 67
2, 27090, Note_on_c, 0, 58, 34
2, 27094, Control_c, 0, 64, 0
2, 27098, Note_on_c, 0, 48, 39
2, 27136, Control_c, 0, 64, 127
2, 27137, Note_on_c, 0, 82, 0
2, 27141, Note_on_c, 0, 58, 0
2, 27146, Note_on_c, 0, 55, 54
2, 27150, Note_on_c, 0, 48, 0
2, 27155, Note_on_c, 0, 83, 30
2, 27164, Note_on_c, 0, 55, 0
2, 27204, Note_on_c, 0, 83, 0
2, 27228, Note_on_c, 0, 80, 62
2, 27229, Note_on_c, 0, 84, 81
2, 27230, Note_on_c, 0, 76, 69
2, 27234, Note_on_c, 0, 72, 42
2, 27234, Note_on_c, 0, 71, 42
2, 27242, Note_on_c, 0, 72, 0
2, 27298, Note_on_c, 0, 76, 0
2, 27307, Note_on_c, 0, 84, 0
2, 27320, Note_on_c, 0, 80, 0
2, 27338, Note_on_c, 0, 71, 0
2, 27494, Note_on_c, 0, 84, 83
2, 27494, Note_on_c, 0, 70, 72
2, 27495, Note_on_c, 0, 80, 68
2, 27496, Note_on_c, 0, 75, 74
2, 27544, Note_on_c, 0, 75, 0
2, 27544, Note_on_c, 0, 80, 0
2, 27547, Note_on_c, 0, 84, 0
2, 27553, Note_on_c, 0, 70, 0
2, 27553, Control_c, 0, 64, 0
2, 27553, Note_on_c, 0, 83, 61
2, 27553, Note_on_c, 0, 69, 51
2, 27555, Note_on_c, 0, 79, 61
2, 27556, Note_on_c, 0, 74, 61
2, 27559, Control_c, 0, 64, 127
2, 27573, Note_on_c, 0, 74, 0
2, 27577, Note_on_c, 0, 83, 0
2, 27585, Note_on_c, 0, 79, 0
2, 27605, Note_on_c, 0, 68, 54
2, 27606, Note_on_c, 0, 73, 52
2, 27606, Note_on_c, 0, 78, 52
2, 27606, Note_on_c, 0, 82, 37
2, 27608, Note_on_c, 0, 69, 0
2, 27637, Note_on_c, 0, 73, 0
2, 27638, Note_on_c, 0, 82, 0
2, 27640, Note_on_c, 0, 78, 0
2, 27654, Note_on_c, 0, 68, 0
2, 27657, Note_on_c, 0, 77, 58
2, 27658, Note_on_c, 0, 72, 53
2, 27659, Note_on_c, 0, 67, 39
2, 27660, Note_on_c, 0, 81, 46
2, 27677, Note_on_c, 0, 81, 0
2, 27685, Note_on_c, 0, 72, 0
2, 27687, Note_on_c, 0, 77, 0
2, 27711, Control_c, 0, 64, 0
2, 27713, Note_on_c, 0, 67, 0
2, 27720, Note_on_c, 0, 80, 55
2, 27721, Note_on_c, 0, 66, 51
2, 27724, Note_on_c, 0, 71, 51
2, 27724, Note_on_c, 0, 75, 55
2, 27737, Control_c, 0, 64, 127
2, 27843, Note_on_c, 0, 71, 0
2, 27880, Note_on_c, 0, 66, 0
2, 27896, Note_on_c, 0, 75, 0
2, 27900, Note_on_c, 0, 80, 0
2, 27943, Note_on_c, 0, 48, 58
2, 27962, Note_on_c, 0, 48, 0
2, 28038, Note_on_c, 0, 58, 53
2, 28060, Note_on_c, 0, 64, 52
2, 28061, Note_on_c, 0, 63, 44
2, 28070, Note_on_c, 0, 68, 55
2, 28087, Note_on_c, 0, 72, 65
2, 28104, Control_c, 0, 64, 0
2, 28116, Control_c, 0, 64, 127
2, 28202, Note_on_c, 0, 72, 0
2, 28212, Note_on_c, 0, 64, 0
2, 28222, Note_on_c, 0, 72, 53
2, 28230, Note_on_c, 0, 58, 0
2, 28256, Note_on_c, 0, 72, 0
2, 28262, Note_on_c, 0, 68, 0
2, 28266, Note_on_c, 0, 63, 0
2, 28331, Note_on_c, 0, 48, 32
2, 28342, Note_on_c, 0, 41, 42
2, 28344, Note_on_c, 0, 48, 0
2, 28352, Note_on_c, 0, 57, 53
2, 28355, Control_c, 0, 64, 0
2, 28358, Note_on_c, 0, 61, 45
2, 28362, Note_on_c, 0, 51, 25
2, 28368, Note_on_c, 0, 67, 25
2, 28380, Note_on_c, 0, 61, 0
2, 28383, Note_on_c, 0, 62, 58
2, 28395, Note_on_c, 0, 57, 0
2, 28395, Control_c, 0, 64, 127
2, 28407, Note_on_c, 0, 41, 0
2, 28425, Note_on_c, 0, 51, 0
2, 28438, Note_on_c, 0, 62, 0
2, 28444, Note_on_c, 0, 67, 0
2, 28476, Note_on_c, 0, 63, 57
2, 28484, Note_on_c, 0, 65, 48
2, 28485, Note_on_c, 0, 63, 0
2, 28495, Control_c, 0, 64, 0
2, 28497, Note_on_c, 0, 67, 57
2, 28498, Note_on_c, 0, 65, 0
2, 28512, Note_on_c, 0, 69, 46
2, 28516, Note_on_c, 0, 67, 0
2, 28520, Note_on_c, 0, 69, 0
2, 28520, Note_on_c, 0, 71, 66
2, 28527, Note_on_c, 0, 71, 0
2, 28534, Note_on_c, 0, 75, 62
2, 28550, Note_on_c, 0, 75, 0
2, 28555, Note_on_c, 0, 76, 33
2, 28556, Note_on_c, 0, 77, 38
2, 28563, Note_on_c, 0, 76, 0
2, 28565, Note_on_c, 0, 77, 0
2, 28570, Note_on_c, 0, 79, 51
2, 28577, Note_on_c, 0, 79, 0
2, 28588, Note_on_c, 0, 84, 64
2, 28595, Note_on_c, 0, 84, 0
2, 28598, Note_on_c, 0, 87, 71
2, 28612, Note_on_c, 0, 87, 0
2, 28614, Note_on_c, 0, 89, 58
2, 28630, Note_on_c, 0, 91, 32
2, 28632, Note_on_c, 0, 89, 0
2, 28641, Note_on_c, 0, 93, 51
2, 28652, Note_on_c, 0, 91, 0
2, 28657, Note_on_c, 0, 93, 0
2, 28674, Note_on_c, 0, 98, 72
2, 28702, Note_on_c, 0, 95, 64
2, 28704, Note_on_c, 0, 98, 0
2, 28709, Note_on_c, 0, 95, 0
2, 28866, Control_c, 0, 64, 127
2, 28956, Note_on_c, 0, 74, 71
2, 28996, Note_on_c, 0, 74, 0
2, 29020, Note_on_c, 0, 74, 57
2, 29047, Note_on_c, 0, 74, 0
2, 29071, Note_on_c, 0, 74, 56
2, 29088, Note_on_c, 0, 74, 0
2, 29150, Note_on_c, 0, 61, 35
2, 29151, Note_on_c, 0, 47, 40
2, 29155, Note_on_c, 0, 57, 31
2, 29156, Note_on_c, 0, 68, 38
2, 29158, Note_on_c, 0, 65, 36
2, 29163, Control_c, 0, 64, 0
2, 29203, Control_c, 0, 64, 127
2, 29210, Note_on_c, 0, 61, 0
2, 29212, Note_on_c, 0, 65, 0
2, 29219, Note_on_c, 0, 68, 0
2, 29222, Note_on_c, 0, 51, 46
2, 29224, Note_on_c, 0, 57, 0
2, 29278, Note_on_c, 0, 47, 0
2, 29279, Note_on_c, 0, 51, 0
2, 29285, Note_on_c, 0, 57, 51
2, 29293, Note_on_c, 0, 57, 0
2, 29348, Note_on_c, 0, 60, 50
2, 29351, Note_on_c, 0, 77, 62
2, 29353, Note_on_c, 0, 73, 60
2, 29356, Note_on_c, 0, 68, 45
2, 29359, Note_on_c, 0, 60, 0
2, 29370, Note_on_c, 0, 68, 0
2, 29373, Note_on_c, 0, 77, 0
2, 29377, Note_on_c, 0, 73, 0
2, 29423, Note_on_c, 0, 79, 75
2, 29426, Note_on_c, 0, 75, 61
2, 29426, Control_c, 0, 64, 0
2, 29426, Note_on_c, 0, 72, 66
2, 29427, Note_on_c, 0, 68, 53
2, 29428, Note_on_c, 0, 67, 45
2, 29444, Control_c, 0, 64, 127
2, 29455, Note_on_c, 0, 79, 0
2, 29483, Note_on_c, 0, 68, 0
2, 29488, Note_on_c, 0, 75, 0
2, 29491, Note_on_c, 0, 72, 0
2, 29496, Note_on_c, 0, 80, 70
2, 29498, Note_on_c, 0, 63, 37
2, 29505, Note_on_c, 0, 67, 0
2, 29527, Note_on_c, 0, 80, 0
2, 29555, Note_on_c, 0, 63, 0
2, 29572, Note_on_c, 0, 80, 48
2, 29576, Note_on_c, 0, 66, 43
2, 29578, Control_c, 0, 64, 0
2, 29579, Note_on_c, 0, 74, 59
2, 29580, Note_on_c, 0, 68, 40
2, 29581, Note_on_c, 0, 62, 29
2, 29610, Control_c, 0, 64, 127
2, 29620, Note_on_c, 0, 80, 0
2, 29628, Note_on_c, 0, 68, 0
2, 29651, Note_on_c, 0, 74, 0
2, 29664, Note_on_c, 0, 82, 56
2, 29667, Note_on_c, 0, 56, 29
2, 29679, Note_on_c, 0, 74, 24
2, 29689, Note_on_c, 0, 66, 0
2, 29694, Note_on_c, 0, 62, 0
2, 29715, Note_on_c, 0, 56, 0
2, 29720, Note_on_c, 0, 82, 0
2, 29727, Note_on_c, 0, 74, 0
2, 29852, Note_on_c, 0, 70, 59
2, 29856, Note_on_c, 0, 43, 36
2, 29857, Note_on_c, 0, 67, 51
2, 29859, Note_on_c, 0, 63, 49
2, 29864, Note_on_c, 0, 59, 45
2, 29865, Control_c, 0, 64, 0
2, 29866, Note_on_c, 0, 53, 30
2, 29904, Note_on_c, 0, 70, 0
2, 29905, Note_on_c, 0, 67, 0
2, 29907, Control_c, 0, 64, 127
2, 29916, Note_on_c, 0, 59, 0
2, 29917, Note_on_c, 0, 68, 72
2, 29941, Note_on_c, 0, 63, 0
2, 29964, Note_on_c, 0, 68, 0
2, 29978, Note_on_c, 0, 63, 23
2, 29983, Note_on_c, 0, 64, 62
2, 29989, Note_on_c, 0, 43, 0
2, 30000, Note_on_c, 0, 64, 0
2, 30012, Note_on_c, 0, 53, 0
2, 30020, Note_on_c, 0, 63, 0
2, 30035, Note_on_c, 0, 59, 47
2, 30045, Note_on_c, 0, 59, 0
2, 30111, Note_on_c, 0, 75, 77
2, 30113, Note_on_c, 0, 67, 74
2, 30115, Note_on_c, 0, 70, 64
2, 30116, Note_on_c, 0, 64, 72
2, 30118, Note_on_c, 0, 63, 65
2, 30126, Control_c, 0, 64, 0
2, 30172, Note_on_c, 0, 70, 0
2, 30173, Note_on_c, 0, 75, 0
2, 30173, Control_c, 0, 64, 127
2, 30181, Note_on_c, 0, 73, 69
2, 30187, Note_on_c, 0, 63, 0
2, 30209, Note_on_c, 0, 67, 0
2, 30223, Note_on_c, 0, 64, 0
2, 30223, Note_on_c, 0, 73, 0
2, 30239, Note_on_c, 0, 58, 38
2, 30247, Note_on_c, 0, 72, 66
2, 30247, Note_on_c, 0, 64, 37
2, 30271, Note_on_c, 0, 64, 0
2, 30291, Note_on_c, 0, 72, 0
2, 30291, Note_on_c, 0, 58, 0
2, 30304, Note_on_c, 0, 70, 59
2, 30314, Note_on_c, 0, 48, 28
2, 30320, Note_on_c, 0, 48, 0
2, 30323, Note_on_c, 0, 70, 0
2, 30406, Note_on_c, 0, 80, 68
2, 30407, Note_on_c, 0, 72, 51
2, 30410, Note_on_c, 0, 68, 33
2, 30414, Note_on_c, 0, 63, 36
2, 30414, Note_on_c, 0, 75, 26
2, 30416, Control_c, 0, 64, 0
2, 30468, Control_c, 0, 64, 127
2, 30481, Note_on_c, 0, 60, 40
2, 30507, Note_on_c, 0, 63, 0
2, 30509, Note_on_c, 0, 72, 0
2, 30518, Note_on_c, 0, 75, 0
2, 30523, Note_on_c, 0, 68, 0
2, 30526, Note_on_c, 0, 80, 0
2, 30561, Note_on_c, 0, 60, 0
2, 30561, Note_on_c, 0, 79, 58
2, 30565, Note_on_c, 0, 53, 41
2, 30565, Note_on_c, 0, 63, 34
2, 30566, Note_on_c, 0, 68, 25
2, 30568, Note_on_c, 0, 72, 35
2, 30643, Note_on_c, 0, 63, 0
2, 30644, Note_on_c, 0, 60, 46
2, 30646, Note_on_c, 0, 75, 1
2, 30658, Note_on_c, 0, 53, 0
2, 30664, Note_on_c, 0, 68, 0
2, 30667, Note_on_c, 0, 60, 0
2, 30674, Note_on_c, 0, 72, 0
2, 30691, Note_on_c, 0, 75, 0
2, 30707, Note_on_c, 0, 79, 0
2, 30748, Note_on_c, 0, 74, 57
2, 30749, Control_c, 0, 64, 0
2, 30750, Note_on_c, 0, 71, 45
2, 30750, Note_on_c, 0, 62, 27
2, 30750, Note_on_c, 0, 67, 24
2, 30753, Note_on_c, 0, 56, 21
2, 30754, Note_on_c, 0, 66, 20
2, 30791, Control_c, 0, 64, 127
2, 30833, Note_on_c, 0, 66, 0
2, 30839, Note_on_c, 0, 75, 51
2, 30842, Note_on_c, 0, 62, 0
2, 30850, Note_on_c, 0, 74, 0
2, 30859, Note_on_c, 0, 67, 0
2, 30862, Note_on_c, 0, 56, 0
2, 30880, Note_on_c, 0, 71, 0
2, 30906, Note_on_c, 0, 75, 0
2, 30942, Note_on_c, 0, 77, 50
2, 30942, Note_on_c, 0, 71, 48
2, 30944, Note_on_c, 0, 65, 29
2, 30947, Note_on_c, 0, 56, 20
2, 30948, Control_c, 0, 64, 0
2, 30948, Note_on_c, 0, 46, 30
2, 30978, Control_c, 0, 64, 127
2, 31026, Note_on_c, 0, 65, 0
2, 31028, Note_on_c, 0, 77, 0
2, 31048, Note_on_c, 0, 71, 0
2, 31064, Note_on_c, 0, 79, 65
2, 31066, Note_on_c, 0, 67, 49
2, 31068, Note_on_c, 0, 53, 37
2, 31074, Note_on_c, 0, 56, 0
2, 31093, Note_on_c, 0, 67, 0
2, 31096, Note_on_c, 0, 79, 0
2, 31200, Note_on_c, 0, 80, 64
2, 31201, Note_on_c, 0, 68, 70
2, 31203, Note_on_c, 0, 56, 27
2, 31222, Note_on_c, 0, 68, 0
2, 31227, Note_on_c, 0, 80, 0
2, 31245, Note_on_c, 0, 81, 65
2, 31245, Note_on_c, 0, 69, 69
2, 31252, Note_on_c, 0, 80, 29
2, 31258, Note_on_c, 0, 69, 0
2, 31260, Note_on_c, 0, 81, 0
2, 31261, Note_on_c, 0, 80, 0
2, 31269, Note_on_c, 0, 56, 0
2, 31285, Note_on_c, 0, 70, 63
2, 31285, Note_on_c, 0, 82, 67
2, 31289, Note_on_c, 0, 53, 0
2, 31302, Note_on_c, 0, 70, 0
2, 31307, Note_on_c, 0, 82, 0
2, 31311, Note_on_c, 0, 46, 0
2, 31323, Note_on_c, 0, 83, 73
2, 31323, Note_on_c, 0, 71, 76
2, 31329, Note_on_c, 0, 82, 32
2, 31336, Note_on_c, 0, 82, 0
2, 31338, Note_on_c, 0, 71, 0
2, 31338, Note_on_c, 0, 83, 0
2, 31364, Note_on_c, 0, 84, 73
2, 31364, Note_on_c, 0, 72, 66
2, 31370, Note_on_c, 0, 84, 0
2, 31372, Note_on_c, 0, 72, 0
2, 31405, Note_on_c, 0, 85, 70
2, 31406, Note_on_c, 0, 73, 58
2, 31420, Note_on_c, 0, 73, 0
2, 31422, Note_on_c, 0, 85, 0
2, 31451, Note_on_c, 0, 87, 79
2, 31454, Note_on_c, 0, 75, 70
2, 31468, Note_on_c, 0, 75, 0
2, 31474, Note_on_c, 0, 87, 0
2, 31498, Note_on_c, 0, 73, 53
2, 31498, Note_on_c, 0, 85, 46
2, 31525, Note_on_c, 0, 85, 0
2, 31525, Note_on_c, 0, 73, 0
2, 31548, Note_on_c, 0, 39, 48
2, 31550, Note_on_c, 0, 86, 62
2, 31550, Note_on_c, 0, 74, 62
2, 31551, Control_c, 0, 64, 0
2, 31581, Control_c, 0, 64, 127
2, 31592, Note_on_c, 0, 86, 0
2, 31604, Note_on_c, 0, 74, 0
2, 31614, Note_on_c, 0, 46, 42
2, 31625, Note_on_c, 0, 39, 0
2, 31661, Note_on_c, 0, 46, 0
2, 31675, Note_on_c, 0, 62, 39
2, 31677, Note_on_c, 0, 70, 45
2, 31680, Note_on_c, 0, 55, 44
2, 31682, Note_on_c, 0, 65, 34
2, 31724, Note_on_c, 0, 65, 0
2, 31724, Note_on_c, 0, 62, 0
2, 31739, Note_on_c, 0, 58, 35
2, 31747, Note_on_c, 0, 55, 0
2, 31748, Note_on_c, 0, 70, 0
2, 31800, Note_on_c, 0, 74, 60
2, 31803, Note_on_c, 0, 67, 56
2, 31808, Note_on_c, 0, 62, 31
2, 31848, Note_on_c, 0, 62, 0
2, 31855, Note_on_c, 0, 67, 0
2, 31876, Note_on_c, 0, 62, 44
2, 31960, Note_on_c, 0, 70, 47
2, 31961, Note_on_c, 0, 67, 47
2, 31962, Note_on_c, 0, 58, 0
2, 32044, Note_on_c, 0, 62, 0
2, 32051, Note_on_c, 0, 58, 48
2, 32070, Note_on_c, 0, 67, 0
2, 32094, Note_on_c, 0, 58, 0
2, 32099, Note_on_c, 0, 70, 0
2, 32104, Note_on_c, 0, 74, 0
2, 32140, Note_on_c, 0, 74, 80
2, 32147, Note_on_c, 0, 67, 82
2, 32148, Note_on_c, 0, 69, 77
2, 32148, Note_on_c, 0, 62, 89
2, 32150, Note_on_c, 0, 63, 82
2, 32155, Control_c, 0, 64, 0
2, 32187, Control_c, 0, 64, 127
2, 32206, Note_on_c, 0, 62, 0
2, 32218, Note_on_c, 0, 74, 0
2, 32241, Note_on_c, 0, 73, 77
2, 32308, Note_on_c, 0, 73, 0
2, 32315, Note_on_c, 0, 69, 0
2, 32326, Note_on_c, 0, 72, 71
2, 32327, Note_on_c, 0, 45, 50
2, 32333, Control_c, 0, 64, 0
2, 32357, Control_c, 0, 64, 127
2, 32398, Note_on_c, 0, 71, 69
2, 32399, Note_on_c, 0, 45, 0
2, 32411, Note_on_c, 0, 72, 0
2, 32427, Note_on_c, 0, 67, 0
2, 32429, Note_on_c, 0, 71, 0
2, 32439, Note_on_c, 0, 63, 0
2, 32487, Note_on_c, 0, 70, 45
2, 32489, Note_on_c, 0, 54, 55
2, 32493, Note_on_c, 0, 60, 29
2, 32493, Note_on_c, 0, 66, 38
2, 32493, Note_on_c, 0, 64, 52
2, 32504, Control_c, 0, 64, 0
2, 32573, Control_c, 0, 64, 127
2, 32577, Note_on_c, 0, 50, 57
2, 32580, Note_on_c, 0, 60, 0
2, 32585, Note_on_c, 0, 54, 0
2, 32588, Note_on_c, 0, 64, 0
2, 32595, Note_on_c, 0, 66, 0
2, 32605, Note_on_c, 0, 70, 0
2, 32664, Control_c, 0, 64, 0
2, 32668, Note_on_c, 0, 64, 47
2, 32668, Note_on_c, 0, 66, 47
2, 32668, Note_on_c, 0, 72, 56
2, 32668, Note_on_c, 0, 60, 47
2, 32670, Note_on_c, 0, 69, 53
2, 32676, Note_on_c, 0, 60, 0
2, 32676, Control_c, 0, 64, 127
2, 32692, Note_on_c, 0, 50, 0
2, 32768, Note_on_c, 0, 69, 0
2, 32779, Note_on_c, 0, 64, 0
2, 32782, Note_on_c, 0, 44, 62
2, 32789, Control_c, 0, 64, 0
2, 32800, Note_on_c, 0, 66, 0
2, 32815, Control_c, 0, 64, 127
2, 32916, Note_on_c, 0, 72, 0
2, 32947, Note_on_c, 0, 44, 0
2, 33002, Note_on_c, 0, 70, 54
2, 33004, Note_on_c, 0, 43, 46
2, 33006, Note_on_c, 0, 61, 38
2, 33009, Control_c, 0, 64, 0
2, 33011, Note_on_c, 0, 65, 44
2, 33018, Note_on_c, 0, 53, 24
2, 33040, Control_c, 0, 64, 127
2, 33070, Note_on_c, 0, 43, 0
2, 33088, Note_on_c, 0, 53, 0
2, 33114, Note_on_c, 0, 55, 55
2, 33135, Note_on_c, 0, 55, 0
2, 33145, Control_c, 0, 64, 0
2, 33149, Note_on_c, 0, 56, 43
2, 33179, Note_on_c, 0, 56, 0
2, 33194, Note_on_c, 0, 58, 43
2, 33246, Note_on_c, 0, 58, 0
2, 33246, Note_on_c, 0, 56, 47
2, 33255, Note_on_c, 0, 56, 0
2, 33270, Note_on_c, 0, 55, 59
2, 33287, Note_on_c, 0, 55, 0
2, 33301, Note_on_c, 0, 54, 44
2, 33312, Note_on_c, 0, 54, 0
2, 33323, Note_on_c, 0, 53, 50
2, 33346, Note_on_c, 0, 53, 0
2, 33355, Note_on_c, 0, 52, 36
2, 33370, Note_on_c, 0, 52, 0
2, 33377, Note_on_c, 0, 51, 43
2, 33390, Note_on_c, 0, 51, 0
2, 33410, Note_on_c, 0, 50, 41
2, 33433, Note_on_c, 0, 50, 0
2, 33442, Note_on_c, 0, 49, 38
2, 33445, Note_on_c, 0, 65, 0
2, 33452, Note_on_c, 0, 61, 0
2, 33480, Control_c, 0, 64, 127
2, 33492, Note_on_c, 0, 59, 59
2, 33494, Note_on_c, 0, 70, 0
2, 33517, Note_on_c, 0, 59, 0
2, 33536, Note_on_c, 0, 63, 62
2, 33553, Note_on_c, 0, 49, 0
2, 33568, Note_on_c, 0, 63, 0
2, 33579, Note_on_c, 0, 67, 63
2, 33604, Note_on_c, 0, 67, 0
2, 33634, Note_on_c, 0, 68, 59
2, 33637, Note_on_c, 0, 61, 37
2, 33639, Note_on_c, 0, 64, 48
2, 33640, Note_on_c, 0, 48, 40
2, 33641, Control_c, 0, 64, 0
2, 33679, Control_c, 0, 64, 127
2, 33694, Note_on_c, 0, 36, 56
2, 33698, Note_on_c, 0, 48, 0
2, 33700, Note_on_c, 0, 64, 0
2, 33702, Note_on_c, 0, 61, 0
2, 33703, Note_on_c, 0, 36, 0
2, 33710, Note_on_c, 0, 68, 0
2, 33765, Note_on_c, 0, 60, 70
2, 33779, Note_on_c, 0, 60, 0
2, 33847, Note_on_c, 0, 84, 91
2, 33848, Note_on_c, 0, 70, 72
2, 33848, Note_on_c, 0, 80, 78
2, 33849, Note_on_c, 0, 76, 90
2, 33892, Note_on_c, 0, 76, 0
2, 33908, Note_on_c, 0, 80, 0
2, 33909, Note_on_c, 0, 84, 0
2, 33919, Note_on_c, 0, 83, 63
2, 33922, Note_on_c, 0, 79, 68
2, 33923, Note_on_c, 0, 69, 60
2, 33923, Note_on_c, 0, 74, 69
2, 33924, Note_on_c, 0, 70, 0
2, 33925, Control_c, 0, 64, 0
2, 33933, Control_c, 0, 64, 127
2, 33956, Note_on_c, 0, 83, 0
2, 33961, Note_on_c, 0, 74, 0
2, 33968, Note_on_c, 0, 79, 0
2, 33984, Control_c, 0, 64, 0
2, 33986, Note_on_c, 0, 69, 0
2, 33986, Note_on_c, 0, 68, 64
2, 33986, Note_on_c, 0, 82, 71
2, 33988, Control_c, 0, 64, 127
2, 33989, Note_on_c, 0, 78, 69
2, 33991, Note_on_c, 0, 73, 56
2, 34035, Note_on_c, 0, 82, 0
2, 34039, Note_on_c, 0, 73, 0
2, 34041, Note_on_c, 0, 78, 0
2, 34052, Control_c, 0, 64, 0
2, 34055, Note_on_c, 0, 68, 0
2, 34056, Note_on_c, 0, 81, 64
2, 34057, Note_on_c, 0, 77, 66
2, 34059, Note_on_c, 0, 72, 57
2, 34060, Note_on_c, 0, 67, 46
2, 34062, Control_c, 0, 64, 127
2, 34085, Note_on_c, 0, 81, 0
2, 34094, Note_on_c, 0, 77, 0
2, 34103, Note_on_c, 0, 72, 0
2, 34131, Note_on_c, 0, 67, 0
2, 34132, Control_c, 0, 64, 0
2, 34132, Note_on_c, 0, 80, 57
2, 34135, Note_on_c, 0, 76, 53
2, 34136, Note_on_c, 0, 71, 51
2, 34136, Note_on_c, 0, 66, 47
2, 34150, Control_c, 0, 64, 127
2, 34199, Note_on_c, 0, 71, 0
2, 34210, Note_on_c, 0, 60, 43
2, 34214, Note_on_c, 0, 66, 0
2, 34218, Note_on_c, 0, 76, 0
2, 34230, Note_on_c, 0, 80, 0
2, 34291, Note_on_c, 0, 80, 45
2, 34291, Note_on_c, 0, 84, 62
2, 34293, Note_on_c, 0, 76, 47
2, 34296, Note_on_c, 0, 70, 37
2, 34297, Control_c, 0, 64, 0
2, 34317, Control_c, 0, 64, 127
2, 34340, Note_on_c, 0, 84, 0
2, 34348, Note_on_c, 0, 80, 0
2, 34351, Note_on_c, 0, 76, 0
2, 34381, Note_on_c, 0, 70, 0
2, 34384, Note_on_c, 0, 80, 39
2, 34384, Note_on_c, 0, 67, 39
2, 34386, Note_on_c, 0, 76, 43
2, 34389, Note_on_c, 0, 72, 29
2, 34392, Note_on_c, 0, 60, 0
2, 34394, Note_on_c, 0, 67, 0
2, 34414, Note_on_c, 0, 76, 0
2, 34424, Note_on_c, 0, 72, 0
2, 34427, Note_on_c, 0, 80, 0
2, 34496, Note_on_c, 0, 79, 39
2, 34497, Control_c, 0, 64, 0
2, 34498, Note_on_c, 0, 74, 49
2, 34499, Note_on_c, 0, 69, 46
2, 34503, Note_on_c, 0, 51, 31
2, 34504, Note_on_c, 0, 41, 30
2, 34525, Control_c, 0, 64, 127
2, 34536, Note_on_c, 0, 79, 0
2, 34547, Note_on_c, 0, 74, 0
2, 34558, Note_on_c, 0, 69, 0
2, 34573, Note_on_c, 0, 51, 0
2, 34576, Note_on_c, 0, 48, 36
2, 34638, Note_on_c, 0, 41, 0
2, 34640, Note_on_c, 0, 48, 0
2, 34641, Note_on_c, 0, 51, 50
2, 34658, Note_on_c, 0, 51, 0
2, 34704, Note_on_c, 0, 84, 71
2, 34711, Note_on_c, 0, 84, 0
2, 34720, Note_on_c, 0, 87, 76
2, 34741, Note_on_c, 0, 84, 61
2, 34749, Note_on_c, 0, 87, 0
2, 34753, Note_on_c, 0, 84, 0
2, 34761, Note_on_c, 0, 81, 60
2, 34776, Note_on_c, 0, 81, 0
2, 34786, Note_on_c, 0, 80, 28
2, 34793, Note_on_c, 0, 80, 0
2, 34804, Note_on_c, 0, 79, 38
2, 34828, Note_on_c, 0, 79, 0
2, 34839, Note_on_c, 0, 78, 44
2, 34858, Note_on_c, 0, 78, 0
2, 34860, Note_on_c, 0, 77, 64
2, 34876, Note_on_c, 0, 67, 37
2, 34878, Note_on_c, 0, 62, 26
2, 34878, Note_on_c, 0, 57, 43
2, 34881, Note_on_c, 0, 63, 21
2, 34881, Control_c, 0, 64, 0
2, 34893, Note_on_c, 0, 77, 0
2, 34905, Note_on_c, 0, 75, 60
2, 34917, Note_on_c, 0, 75, 0
2, 34947, Note_on_c, 0, 72, 57
2, 34955, Note_on_c, 0, 72, 0
2, 34962, Note_on_c, 0, 67, 0
2, 34995, Note_on_c, 0, 70, 69
2, 35011, Note_on_c, 0, 70, 0
2, 35036, Note_on_c, 0, 69, 54
2, 35056, Note_on_c, 0, 69, 0
2, 35068, Note_on_c, 0, 68, 51
2, 35074, Note_on_c, 0, 63, 0
2, 35080, Note_on_c, 0, 62, 0
2, 35086, Note_on_c, 0, 68, 0
2, 35092, Note_on_c, 0, 57, 0
2, 35094, Note_on_c, 0, 67, 50
2, 35106, Note_on_c, 0, 67, 0
2, 35122, Note_on_c, 0, 66, 37
2, 35125, Control_c, 0, 64, 127
2, 35139, Note_on_c, 0, 66, 0
2, 35145, Note_on_c, 0, 65, 49
2, 35172, Note_on_c, 0, 63, 61
2, 35173, Note_on_c, 0, 65, 0
2, 35189, Control_c, 0, 64, 0
2, 35190, Note_on_c, 0, 63, 0
2, 35214, Note_on_c, 0, 60, 57
2, 35229, Note_on_c, 0, 60, 0
2, 35249, Note_on_c, 0, 61, 61
2, 35272, Note_on_c, 0, 61, 0
2, 35283, Note_on_c, 0, 62, 58
2, 35305, Note_on_c, 0, 62, 0
2, 35317, Note_on_c, 0, 63, 55
2, 35340, Note_on_c, 0, 63, 0
2, 35354, Note_on_c, 0, 64, 25
2, 35371, Control_c, 0, 64, 127
2, 35376, Note_on_c, 0, 64, 0
2, 35387, Note_on_c, 0, 65, 46
2, 35411, Note_on_c, 0, 65, 0
2, 35426, Control_c, 0, 64, 0
2, 35428, Note_on_c, 0, 66, 44
2, 35448, Note_on_c, 0, 66, 0
2, 35452, Control_c, 0, 64, 127
2, 35466, Note_on_c, 0, 68, 62
2, 35497, Note_on_c, 0, 68, 0
2, 35521, Note_on_c, 0, 66, 42
2, 35522, Note_on_c, 0, 47, 42
2, 35524, Note_on_c, 0, 57, 36
2, 35525, Note_on_c, 0, 61, 30
2, 35533, Note_on_c, 0, 61, 0
2, 35533, Control_c, 0, 64, 0
2, 35584, Control_c, 0, 64, 127
2, 35585, Note_on_c, 0, 57, 0
2, 35585, Note_on_c, 0, 51, 52
2, 35629, Note_on_c, 0, 66, 0
2, 35642, Note_on_c, 0, 63, 53
2, 35642, Note_on_c, 0, 57, 51
2, 35658, Note_on_c, 0, 51, 0
2, 35670, Note_on_c, 0, 57, 0
2, 35682, Note_on_c, 0, 63, 0
2, 35689, Note_on_c, 0, 51, 42
2, 35691, Note_on_c, 0, 66, 57
2, 35698, Note_on_c, 0, 47, 0
2, 35715, Note_on_c, 0, 66, 0
2, 35749, Note_on_c, 0, 67, 49
2, 35750, Note_on_c, 0, 51, 0
2, 35750, Control_c, 0, 64, 0
2, 35752, Note_on_c, 0, 63, 38
2, 35753, Note_on_c, 0, 56, 31
2, 35754, Note_on_c, 0, 60, 47
2, 35758, Note_on_c, 0, 46, 33
2, 35798, Control_c, 0, 64, 127
2, 35805, Note_on_c, 0, 56, 0
2, 35812, Note_on_c, 0, 53, 36
2, 35829, Note_on_c, 0, 60, 0
2, 35832, Note_on_c, 0, 63, 0
2, 35854, Note_on_c, 0, 67, 0
2, 35872, Note_on_c, 0, 56, 34
2, 35873, Note_on_c, 0, 63, 28
2, 35875, Note_on_c, 0, 60, 48
2, 35896, Note_on_c, 0, 46, 0
2, 35914, Note_on_c, 0, 56, 0
2, 35922, Note_on_c, 0, 60, 0
2, 35927, Note_on_c, 0, 67, 58
2, 35930, Note_on_c, 0, 63, 0
2, 35930, Note_on_c, 0, 46, 40
2, 35935, Note_on_c, 0, 67, 0
2, 35952, Note_on_c, 0, 53, 0
2, 35965, Note_on_c, 0, 63, 25
2, 35972, Note_on_c, 0, 63, 0
2, 35985, Note_on_c, 0, 46, 0
2, 36011, Note_on_c, 0, 72, 71
2, 36013, Control_c, 0, 64, 0
2, 36013, Note_on_c, 0, 61, 42
2, 36014, Note_on_c, 0, 65, 54
2, 36014, Note_on_c, 0, 46, 44
2, 36017, Note_on_c, 0, 56, 37
2, 36033, Note_on_c, 0, 46, 0
2, 36040, Note_on_c, 0, 56, 0
2, 36045, Control_c, 0, 64, 127
2, 36072, Note_on_c, 0, 61, 0
2, 36073, Note_on_c, 0, 60, 79
2, 36078, Note_on_c, 0, 65, 0
2, 36133, Note_on_c, 0, 61, 56
2, 36134, Note_on_c, 0, 65, 64
2, 36139, Note_on_c, 0, 68, 30
2, 36189, Note_on_c, 0, 58, 93
2, 36197, Note_on_c, 0, 60, 0
2, 36200, Control_c, 0, 64, 0
2, 36207, Note_on_c, 0, 65, 0
2, 36208, Note_on_c, 0, 68, 0
2, 36224, Note_on_c, 0, 61, 0
2, 36228, Control_c, 0, 64, 127
2, 36251, Note_on_c, 0, 61, 54
2, 36255, Note_on_c, 0, 65, 54
2, 36257, Note_on_c, 0, 68, 33
2, 36315, Note_on_c, 0, 57, 94
2, 36320, Note_on_c, 0, 65, 0
2, 36327, Note_on_c, 0, 68, 0
2, 36327, Control_c, 0, 64, 0
2, 36328, Note_on_c, 0, 58, 0
2, 36349, Note_on_c, 0, 61, 0
2, 36368, Control_c, 0, 64, 127
2, 36379, Note_on_c, 0, 61, 42
2, 36385, Note_on_c, 0, 65, 46
2, 36449, Note_on_c, 0, 56, 67
2, 36451, Note_on_c, 0, 65, 0
2, 36462, Note_on_c, 0, 57, 0
2, 36466, Note_on_c, 0, 72, 0
2, 36471, Note_on_c, 0, 61, 0
2, 36522, Control_c, 0, 64, 0
2, 36528, Note_on_c, 0, 61, 46
2, 36530, Note_on_c, 0, 56, 0
2, 36530, Note_on_c, 0, 55, 63
2, 36530, Note_on_c, 0, 64, 54
2, 36533, Note_on_c, 0, 67, 38
2, 36546, Note_on_c, 0, 55, 0
2, 36546, Control_c, 0, 64, 127
2, 36606, Note_on_c, 0, 67, 0
2, 36609, Note_on_c, 0, 64, 0
2, 36610, Note_on_c, 0, 39, 79
2, 36616, Note_on_c, 0, 61, 0
2, 36690, Note_on_c, 0, 48, 57
2, 36698, Note_on_c, 0, 48, 0
2, 36712, Note_on_c, 0, 49, 52
2, 36727, Control_c, 0, 64, 0
2, 36734, Note_on_c, 0, 49, 0
2, 36748, Note_on_c, 0, 52, 46
2, 36756, Note_on_c, 0, 52, 0
2, 36774, Note_on_c, 0, 54, 51
2, 36781, Note_on_c, 0, 54, 0
2, 36798, Note_on_c, 0, 55, 38
2, 36808, Note_on_c, 0, 55, 0
2, 36818, Note_on_c, 0, 57, 59
2, 36833, Note_on_c, 0, 57, 0
2, 36842, Note_on_c, 0, 58, 44
2, 36849, Note_on_c, 0, 58, 0
2, 36867, Note_on_c, 0, 60, 36
2, 36873, Note_on_c, 0, 60, 0
2, 36888, Note_on_c, 0, 61, 61
2, 36903, Note_on_c, 0, 61, 0
2, 36940, Note_on_c, 0, 64, 43
2, 36952, Note_on_c, 0, 64, 0
2, 36982, Note_on_c, 0, 66, 37
2, 36989, Note_on_c, 0, 66, 0
2, 37011, Note_on_c, 0, 67, 44
2, 37021, Note_on_c, 0, 67, 0
2, 37043, Note_on_c, 0, 69, 57
2, 37049, Note_on_c, 0, 69, 0
2, 37074, Note_on_c, 0, 70, 64
2, 37089, Note_on_c, 0, 70, 0
2, 37110, Note_on_c, 0, 72, 49
2, 37126, Control_c, 0, 64, 127
2, 37129, Note_on_c, 0, 72, 0
2, 37140, Note_on_c, 0, 73, 64
2, 37172, Note_on_c, 0, 73, 0
2, 37178, Note_on_c, 0, 75, 51
2, 37195, Note_on_c, 0, 75, 0
2, 37216, Note_on_c, 0, 76, 36
2, 37237, Note_on_c, 0, 76, 0
2, 37239, Note_on_c, 0, 39, 0
2, 37255, Note_on_c, 0, 78, 59
2, 37279, Note_on_c, 0, 78, 0
2, 37299, Note_on_c, 0, 79, 59
2, 37322, Note_on_c, 0, 79, 0
2, 37346, Note_on_c, 0, 82, 46
2, 37382, Note_on_c, 0, 82, 0
2, 37406, Control_c, 0, 64, 0
2, 37407, Note_on_c, 0, 44, 44
2, 37409, Note_on_c, 0, 79, 36
2, 37435, Control_c, 0, 64, 127
2, 37453, Note_on_c, 0, 79, 0
2, 37523, Note_on_c, 0, 52, 24
2, 37654, Note_on_c, 0, 44, 0
2, 37665, Note_on_c, 0, 52, 0
2, 37683, Note_on_c, 0, 67, 71
2, 37683, Note_on_c, 0, 64, 77
2, 37686, Note_on_c, 0, 44, 55
2, 37686, Note_on_c, 0, 52, 54
2, 37687, Note_on_c, 0, 60, 66
2, 37691, Control_c, 0, 64, 0
2, 37712, Note_on_c, 0, 67, 0
2, 37713, Control_c, 0, 64, 127
2, 37716, Note_on_c, 0, 64, 0
2, 37727, Note_on_c, 0, 60, 0
2, 37759, Note_on_c, 0, 52, 0
2, 37767, Note_on_c, 0, 55, 62
2, 37768, Note_on_c, 0, 70, 62
2, 37769, Note_on_c, 0, 67, 52
2, 37771, Note_on_c, 0, 63, 53
2, 37772, Note_on_c, 0, 60, 53
2, 37776, Control_c, 0, 64, 0
2, 37802, Control_c, 0, 64, 127
2, 37818, Note_on_c, 0, 63, 0
2, 37820, Note_on_c, 0, 55, 0
2, 37820, Note_on_c, 0, 60, 0
2, 37823, Note_on_c, 0, 67, 0
2, 37833, Note_on_c, 0, 70, 0
2, 37842, Note_on_c, 0, 68, 62
2, 37844, Control_c, 0, 64, 0
2, 37846, Note_on_c, 0, 60, 44
2, 37846, Note_on_c, 0, 63, 51
2, 37848, Note_on_c, 0, 53, 47
2, 37870, Control_c, 0, 64, 127
2, 37887, Note_on_c, 0, 63, 0
2, 37893, Note_on_c, 0, 60, 0
2, 37900, Note_on_c, 0, 68, 0
2, 37911, Note_on_c, 0, 53, 0
2, 37921, Note_on_c, 0, 51, 32
2, 37922, Note_on_c, 0, 63, 37
2, 37922, Note_on_c, 0, 60, 33
2, 37922, Note_on_c, 0, 67, 41
2, 37923, Control_c, 0, 64, 0
2, 37956, Control_c, 0, 64, 127
2, 37981, Note_on_c, 0, 44, 0
2, 38003, Note_on_c, 0, 44, 32
2, 38031, Note_on_c, 0, 67, 0
2, 38033, Note_on_c, 0, 60, 0
2, 38044, Note_on_c, 0, 63, 0
2, 38081, Note_on_c, 0, 63, 48
2, 38109, Note_on_c, 0, 63, 0
2, 38145, Note_on_c, 0, 44, 0
2, 38209, Note_on_c, 0, 62, 32
2, 38238, Note_on_c, 0, 62, 0
2, 38252, Note_on_c, 0, 63, 53
2, 38259, Note_on_c, 0, 51, 0
2, 38279, Note_on_c, 0, 63, 0
2, 38296, Note_on_c, 0, 65, 55
2, 38321, Note_on_c, 0, 65, 0
2, 38349, Note_on_c, 0, 66, 49
2, 38352, Note_on_c, 0, 63, 29
2, 38358, Note_on_c, 0, 51, 32
2, 38359, Note_on_c, 0, 49, 39
2, 38363, Note_on_c, 0, 59, 24
2, 38373, Control_c, 0, 64, 0
2, 38427, Note_on_c, 0, 59, 41
2, 38430, Note_on_c, 0, 59, 0
2, 38439, Control_c, 0, 64, 127
2, 38452, Note_on_c, 0, 63, 0
2, 38486, Note_on_c, 0, 59, 0
2, 38498, Note_on_c, 0, 63, 44
2, 38506, Note_on_c, 0, 66, 0
2, 38517, Note_on_c, 0, 51, 0
2, 38520, Note_on_c, 0, 63, 0
2, 38532, Note_on_c, 0, 49, 0
2, 38559, Note_on_c, 0, 49, 67
2, 38562, Note_on_c, 0, 66, 69
2, 38563, Note_on_c, 0, 63, 61
2, 38565, Note_on_c, 0, 59, 61
2, 38617, Note_on_c, 0, 66, 0
2, 38628, Control_c, 0, 64, 0
2, 38641, Note_on_c, 0, 66, 61
2, 38664, Control_c, 0, 64, 127
2, 38689, Note_on_c, 0, 59, 0
2, 38692, Note_on_c, 0, 66, 0
2, 38698, Note_on_c, 0, 63, 0
2, 38718, Note_on_c, 0, 66, 50
2, 38718, Note_on_c, 0, 63, 53
2, 38719, Note_on_c, 0, 59, 49
2, 38722, Note_on_c, 0, 58, 25
2, 38785, Note_on_c, 0, 59, 0
2, 38787, Note_on_c, 0, 66, 0
2, 38804, Note_on_c, 0, 63, 0
2, 38815, Note_on_c, 0, 66, 47
2, 38815, Note_on_c, 0, 59, 47
2, 38816, Note_on_c, 0, 63, 27
2, 38846, Note_on_c, 0, 58, 0
2, 38891, Note_on_c, 0, 59, 0
2, 38913, Note_on_c, 0, 56, 37
2, 38922, Note_on_c, 0, 59, 35
2, 38931, Note_on_c, 0, 56, 0
2, 38949, Note_on_c, 0, 49, 0
2, 38972, Note_on_c, 0, 66, 0
2, 38979, Note_on_c, 0, 59, 0
2, 38986, Note_on_c, 0, 63, 0
2, 39002, Note_on_c, 0, 48, 74
2, 39021, Note_on_c, 0, 48, 0
2, 39021, Note_on_c, 0, 49, 50
2, 39024, Note_on_c, 0, 65, 76
2, 39025, Note_on_c, 0, 56, 76
2, 39025, Note_on_c, 0, 59, 79
2, 39026, Note_on_c, 0, 62, 68
2, 39026, Note_on_c, 0, 50, 82
2, 39028, Control_c, 0, 64, 0
2, 39038, Note_on_c, 0, 49, 0
2, 39069, Control_c, 0, 64, 127
2, 39092, Note_on_c, 0, 62, 0
2, 39099, Note_on_c, 0, 59, 0
2, 39106, Note_on_c, 0, 56, 0
2, 39118, Note_on_c, 0, 50, 0
2, 39120, Note_on_c, 0, 62, 46
2, 39121, Note_on_c, 0, 65, 0
2, 39121, Note_on_c, 0, 56, 55
2, 39121, Control_c, 0, 64, 0
2, 39124, Note_on_c, 0, 47, 56
2, 39125, Note_on_c, 0, 59, 49
2, 39145, Control_c, 0, 64, 127
2, 39156, Note_on_c, 0, 59, 0
2, 39164, Note_on_c, 0, 56, 0
2, 39182, Note_on_c, 0, 47, 0
2, 39182, Note_on_c, 0, 62, 0
2, 39188, Control_c, 0, 64, 0
2, 39189, Note_on_c, 0, 63, 64
2, 39190, Note_on_c, 0, 56, 55
2, 39191, Note_on_c, 0, 48, 46
2, 39196, Note_on_c, 0, 59, 44
2, 39212, Control_c, 0, 64, 127
2, 39222, Note_on_c, 0, 59, 0
2, 39237, Note_on_c, 0, 56, 0
2, 39243, Note_on_c, 0, 63, 0
2, 39255, Note_on_c, 0, 48, 0
2, 39256, Control_c, 0, 64, 0
2, 39259, Note_on_c, 0, 56, 35
2, 39260, Note_on_c, 0, 65, 50
2, 39261, Note_on_c, 0, 50, 53
2, 39261, Note_on_c, 0, 62, 41
2, 39262, Note_on_c, 0, 59, 49
2, 39283, Control_c, 0, 64, 127
2, 39294, Note_on_c, 0, 59, 0
2, 39305, Note_on_c, 0, 50, 0
2, 39309, Note_on_c, 0, 62, 0
2, 39319, Note_on_c, 0, 56, 0
2, 39328, Note_on_c, 0, 65, 0
2, 39338, Note_on_c, 0, 65, 34
2, 39343, Note_on_c, 0, 55, 36
2, 39344, Note_on_c, 0, 62, 20
2, 39345, Note_on_c, 0, 51, 36
2, 39346, Note_on_c, 0, 58, 38
2, 39348, Control_c, 0, 64, 0
2, 39369, Note_on_c, 0, 55, 0
2, 39378, Control_c, 0, 64, 127
2, 39414, Note_on_c, 0, 62, 0
2, 39430, Note_on_c, 0, 58, 0
2, 39431, Note_on_c, 0, 51, 0
2, 39431, Note_on_c, 0, 53, 44
2, 39482, Note_on_c, 0, 65, 0
2, 39485, Note_on_c, 0, 53, 0
2, 39494, Note_on_c, 0, 62, 48
2, 39499, Note_on_c, 0, 55, 37
2, 39500, Note_on_c, 0, 50, 34
2, 39514, Note_on_c, 0, 55, 0
2, 39523, Note_on_c, 0, 62, 0
2, 39533, Note_on_c, 0, 63, 56
2, 39536, Note_on_c, 0, 50, 0
2, 39561, Note_on_c, 0, 63, 0
2, 39578, Note_on_c, 0, 65, 54
2, 39584, Note_on_c, 0, 65, 0
2, 39609, Note_on_c, 0, 67, 80
2, 39626, Note_on_c, 0, 67, 0
2, 39661, Note_on_c, 0, 72, 69
2, 39662, Note_on_c, 0, 61, 47
2, 39662, Note_on_c, 0, 65, 51
2, 39663, Control_c, 0, 64, 0
2, 39664, Note_on_c, 0, 46, 48
2, 39668, Note_on_c, 0, 56, 30
2, 39681, Note_on_c, 0, 56, 0
2, 39682, Note_on_c, 0, 46, 0
2, 39701, Control_c, 0, 64, 127
2, 39717, Note_on_c, 0, 60, 64
2, 39741, Note_on_c, 0, 65, 0
2, 39746, Note_on_c, 0, 61, 0
2, 39771, Note_on_c, 0, 61, 56
2, 39775, Note_on_c, 0, 65, 55
2, 39795, Note_on_c, 0, 61, 0
2, 39816, Note_on_c, 0, 60, 0
2, 39822, Note_on_c, 0, 58, 52
2, 39824, Note_on_c, 0, 65, 0
2, 39855, Note_on_c, 0, 72, 0
2, 39871, Note_on_c, 0, 58, 0
2, 39877, Note_on_c, 0, 72, 48
2, 39878, Note_on_c, 0, 61, 51
2, 39881, Note_on_c, 0, 64, 60
2, 39891, Control_c, 0, 64, 0
2, 39933, Note_on_c, 0, 55, 48
2, 39936, Control_c, 0, 64, 127
2, 39943, Note_on_c, 0, 72, 0
2, 39946, Note_on_c, 0, 64, 0
2, 39964, Note_on_c, 0, 61, 0
2, 39990, Control_c, 0, 64, 0
2, 39999, Note_on_c, 0, 55, 0
2, 40003, Note_on_c, 0, 59, 40
2, 40004, Note_on_c, 0, 64, 45
2, 40006, Control_c, 0, 64, 127
2, 40032, Control_c, 0, 64, 0
2, 40036, Note_on_c, 0, 55, 1
2, 40050, Control_c, 0, 64, 127
2, 40063, Note_on_c, 0, 45, 46
2, 40066, Note_on_c, 0, 59, 0
2, 40070, Note_on_c, 0, 64, 0
2, 40079, Note_on_c, 0, 55, 0
2, 40089, Note_on_c, 0, 45, 0
2, 40126, Control_c, 0, 64, 0
2, 40128, Note_on_c, 0, 63, 37
2, 40133, Note_on_c, 0, 58, 31
2, 40137, Note_on_c, 0, 44, 31
2, 40151, Note_on_c, 0, 58, 0
2, 40154, Note_on_c, 0, 63, 0
2, 40158, Control_c, 0, 64, 127
2, 40188, Note_on_c, 0, 51, 48
2, 40233, Note_on_c, 0, 51, 0
2, 40234, Note_on_c, 0, 44, 0
2, 40239, Note_on_c, 0, 55, 42
2, 40240, Note_on_c, 0, 67, 54
2, 40240, Note_on_c, 0, 63, 38
2, 40241, Note_on_c, 0, 60, 44
2, 40252, Note_on_c, 0, 55, 0
2, 40270, Note_on_c, 0, 60, 0
2, 40273, Note_on_c, 0, 63, 0
2, 40287, Note_on_c, 0, 67, 0
2, 40301, Note_on_c, 0, 61, 42
2, 40305, Note_on_c, 0, 70, 79
2, 40306, Note_on_c, 0, 67, 57
2, 40307, Note_on_c, 0, 63, 61
2, 40309, Note_on_c, 0, 60, 53
2, 40337, Note_on_c, 0, 61, 0
2, 40343, Note_on_c, 0, 60, 0
2, 40351, Note_on_c, 0, 67, 0
2, 40352, Note_on_c, 0, 63, 0
2, 40355, Note_on_c, 0, 70, 0
2, 40376, Note_on_c, 0, 70, 65
2, 40378, Note_on_c, 0, 63, 69
2, 40380, Note_on_c, 0, 67, 62
2, 40381, Control_c, 0, 64, 0
2, 40381, Note_on_c, 0, 60, 66
2, 40404, Control_c, 0, 64, 127
2, 40430, Note_on_c, 0, 60, 0
2, 40435, Note_on_c, 0, 67, 0
2, 40435, Note_on_c, 0, 63, 0
2, 40438, Note_on_c, 0, 70, 0
2, 40449, Note_on_c, 0, 63, 54
2, 40450, Note_on_c, 0, 58, 39
2, 40450, Note_on_c, 0, 68, 61
2, 40450, Note_on_c, 0, 60, 50
2, 40487, Note_on_c, 0, 58, 0
2, 40492, Note_on_c, 0, 60, 0
2, 40496, Note_on_c, 0, 63, 0
2, 40499, Note_on_c, 0, 68, 0
2, 40518, Note_on_c, 0, 68, 51
2, 40522, Note_on_c, 0, 63, 55
2, 40522, Note_on_c, 0, 58, 37
2, 40524, Note_on_c, 0, 60, 48
2, 40547, Note_on_c, 0, 60, 0
2, 40554, Note_on_c, 0, 68, 0
2, 40560, Note_on_c, 0, 63, 0
2, 40563, Note_on_c, 0, 58, 0
2, 40574, Note_on_c, 0, 67, 54
2, 40612, Note_on_c, 0, 67, 0
2, 40631, Note_on_c, 0, 65, 36
2, 40663, Note_on_c, 0, 65, 0
2, 40681, Note_on_c, 0, 65, 22
2, 40686, Note_on_c, 0, 60, 44
2, 40698, Note_on_c, 0, 60, 0
2, 40717, Note_on_c, 0, 65, 0
2, 40835, Note_on_c, 0, 66, 39
2, 40835, Note_on_c, 0, 63, 47
2, 40837, Note_on_c, 0, 59, 45
2, 40844, Note_on_c, 0, 49, 30
2, 40850, Control_c, 0, 64, 0
2, 40888, Note_on_c, 0, 66, 0
2, 40896, Control_c, 0, 64, 127
2, 40902, Note_on_c, 0, 59, 0
2, 40906, Note_on_c, 0, 66, 57
2, 40913, Note_on_c, 0, 58, 33
2, 40932, Note_on_c, 0, 58, 0
2, 40951, Note_on_c, 0, 63, 0
2, 40952, Note_on_c, 0, 66, 0
2, 40980, Note_on_c, 0, 66, 44
2, 40984, Note_on_c, 0, 63, 34
2, 40984, Note_on_c, 0, 61, 67
2, 41034, Note_on_c, 0, 66, 0
2, 41036, Note_on_c, 0, 63, 0
2, 41062, Note_on_c, 0, 63, 46
2, 41062, Note_on_c, 0, 66, 46
2, 41090, Note_on_c, 0, 61, 0
2, 41102, Note_on_c, 0, 63, 0
2, 41112, Note_on_c, 0, 66, 0
2, 41132, Note_on_c, 0, 66, 50
2, 41134, Note_on_c, 0, 59, 47
2, 41135, Note_on_c, 0, 63, 39
2, 41144, Control_c, 0, 64, 0
2, 41162, Control_c, 0, 64, 127
2, 41192, Note_on_c, 0, 63, 0
2, 41192, Note_on_c, 0, 66, 0
2, 41212, Note_on_c, 0, 66, 38
2, 41217, Note_on_c, 0, 63, 26
2, 41229, Note_on_c, 0, 59, 0
2, 41256, Note_on_c, 0, 63, 0
2, 41259, Note_on_c, 0, 66, 0
2, 41274, Note_on_c, 0, 49, 0
2, 41287, Note_on_c, 0, 66, 44
2, 41289, Note_on_c, 0, 63, 40
2, 41293, Note_on_c, 0, 59, 38
2, 41360, Note_on_c, 0, 59, 0
2, 41361, Note_on_c, 0, 49, 36
2, 41380, Note_on_c, 0, 49, 0
2, 41387, Note_on_c, 0, 66, 0
2, 41396, Note_on_c, 0, 63, 0
2, 41444, Note_on_c, 0, 70, 53
2, 41448, Note_on_c, 0, 43, 44
2, 41448, Note_on_c, 0, 62, 33
2, 41452, Note_on_c, 0, 65, 34
2, 41455, Control_c, 0, 64, 0
2, 41481, Note_on_c, 0, 70, 0
2, 41487, Control_c, 0, 64, 127
2, 41501, Note_on_c, 0, 70, 58
2, 41506, Note_on_c, 0, 55, 49
2, 41533, Note_on_c, 0, 70, 0
2, 41550, Note_on_c, 0, 43, 0
2, 41554, Note_on_c, 0, 70, 67
2, 41584, Note_on_c, 0, 70, 0
2, 41586, Note_on_c, 0, 55, 0
2, 41596, Note_on_c, 0, 62, 0
2, 41614, Note_on_c, 0, 70, 60
2, 41624, Note_on_c, 0, 65, 0
2, 41641, Note_on_c, 0, 70, 0
2, 41687, Note_on_c, 0, 75, 70
2, 41705, Note_on_c, 0, 75, 0
2, 41759, Note_on_c, 0, 75, 68
2, 41794, Note_on_c, 0, 75, 0
2, 41838, Note_on_c, 0, 75, 69
2, 41864, Note_on_c, 0, 75, 0
2, 41916, Note_on_c, 0, 75, 61
2, 41946, Note_on_c, 0, 75, 0
2, 42008, Note_on_c, 0, 75, 55
2, 42008, Note_on_c, 0, 68, 30
2, 42010, Note_on_c, 0, 57, 32
2, 42011, Note_on_c, 0, 63, 33
2, 42011, Note_on_c, 0, 61, 30
2, 42023, Control_c, 0, 64, 0
2, 42073, Control_c, 0, 64, 127
2, 42087, Note_on_c, 0, 75, 0
2, 42104, Note_on_c, 0, 75, 35
2, 42142, Note_on_c, 0, 75, 0
2, 42168, Note_on_c, 0, 75, 44
2, 42191, Note_on_c, 0, 75, 0
2, 42217, Note_on_c, 0, 68, 0
2, 42226, Note_on_c, 0, 57, 0
2, 42233, Note_on_c, 0, 75, 38
2, 42251, Note_on_c, 0, 75, 0
2, 42252, Note_on_c, 0, 61, 0
2, 42269, Note_on_c, 0, 63, 0
2, 42339, Note_on_c, 0, 82, 51
2, 42340, Note_on_c, 0, 56, 38
2, 42345, Note_on_c, 0, 60, 34
2, 42358, Note_on_c, 0, 75, 50
2, 42362, Note_on_c, 0, 63, 30
2, 42367, Note_on_c, 0, 67, 32
2, 42374, Control_c, 0, 64, 0
2, 42377, Note_on_c, 0, 70, 42
2, 42422, Control_c, 0, 64, 127
2, 42472, Note_on_c, 0, 82, 0
2, 42487, Note_on_c, 0, 82, 56
2, 42543, Note_on_c, 0, 82, 0
2, 42555, Note_on_c, 0, 67, 0
2, 42562, Note_on_c, 0, 60, 0
2, 42569, Note_on_c, 0, 63, 0
2, 42575, Note_on_c, 0, 56, 0
2, 42587, Note_on_c, 0, 82, 57
2, 42657, Note_on_c, 0, 82, 0
2, 42663, Note_on_c, 0, 70, 0
2, 42675, Note_on_c, 0, 75, 0
2, 42686, Note_on_c, 0, 34, 51
2, 42694, Control_c, 0, 64, 0
2, 42702, Control_c, 0, 64, 127
2, 42703, Note_on_c, 0, 34, 0
2, 42782, Note_on_c, 0, 56, 48
2, 42787, Note_on_c, 0, 67, 67
2, 42797, Control_c, 0, 64, 0
2, 42797, Note_on_c, 0, 64, 64
2, 42801, Note_on_c, 0, 58, 48
2, 42803, Note_on_c, 0, 65, 28
2, 42809, Control_c, 0, 64, 127
2, 42809, Note_on_c, 0, 62, 62
2, 42820, Note_on_c, 0, 56, 0
2, 42822, Note_on_c, 0, 58, 0
2, 42824, Note_on_c, 0, 59, 62
2, 42826, Note_on_c, 0, 67, 0
2, 42837, Note_on_c, 0, 67, 27
2, 42840, Note_on_c, 0, 59, 0
2, 42845, Note_on_c, 0, 64, 0
2, 42847, Note_on_c, 0, 62, 0
2, 42852, Note_on_c, 0, 67, 0
2, 42852, Note_on_c, 0, 65, 0
2, 42886, Note_on_c, 0, 68, 45
2, 42888, Note_on_c, 0, 70, 38
2, 42893, Note_on_c, 0, 79, 71
2, 42894, Note_on_c, 0, 68, 0
2, 42895, Note_on_c, 0, 70, 0
2, 42902, Note_on_c, 0, 76, 66
2, 42912, Note_on_c, 0, 74, 37
2, 42913, Note_on_c, 0, 71, 49
2, 42926, Note_on_c, 0, 79, 0
2, 42932, Note_on_c, 0, 71, 0
2, 42940, Note_on_c, 0, 76, 0
2, 42943, Note_on_c, 0, 74, 0
2, 42996, Note_on_c, 0, 91, 62
2, 42997, Note_on_c, 0, 80, 46
2, 43003, Note_on_c, 0, 80, 0
2, 43003, Note_on_c, 0, 82, 39
2, 43010, Note_on_c, 0, 82, 0
2, 43013, Note_on_c, 0, 88, 59
2, 43025, Note_on_c, 0, 86, 44
2, 43036, Note_on_c, 0, 91, 0
2, 43036, Note_on_c, 0, 83, 60
2, 43048, Note_on_c, 0, 83, 0
2, 43050, Note_on_c, 0, 88, 0
2, 43056, Note_on_c, 0, 86, 0
2, 43112, Note_on_c, 0, 92, 42
2, 43130, Note_on_c, 0, 103, 62
2, 43132, Note_on_c, 0, 94, 32
2, 43148, Note_on_c, 0, 100, 51
2, 43164, Note_on_c, 0, 98, 58
2, 43174, Note_on_c, 0, 92, 0
2, 43174, Note_on_c, 0, 95, 54
2, 43178, Note_on_c, 0, 94, 0
2, 43184, Note_on_c, 0, 100, 0
2, 43193, Note_on_c, 0, 98, 0
2, 43212, Note_on_c, 0, 103, 0
2, 43226, Note_on_c, 0, 95, 0
2, 43385, Note_on_c, 0, 70, 69
2, 43454, Note_on_c, 0, 70, 0
2, 43494, Note_on_c, 0, 74, 53
2, 43500, Note_on_c, 0, 66, 29
2, 43502, Note_on_c, 0, 62, 37
2, 43504, Note_on_c, 0, 69, 45
2, 43507, Note_on_c, 0, 39, 31
2, 43509, Control_c, 0, 64, 0
2, 43548, Control_c, 0, 64, 127
2, 43602, Note_on_c, 0, 39, 0
2, 43609, Note_on_c, 0, 50, 45
2, 43654, Note_on_c, 0, 50, 0
2, 43664, Note_on_c, 0, 51, 46
2, 43694, Note_on_c, 0, 51, 0
2, 43723, Control_c, 0, 64, 0
2, 43739, Note_on_c, 0, 54, 49
2, 43771, Note_on_c, 0, 56, 54
2, 43778, Note_on_c, 0, 54, 0
2, 43797, Note_on_c, 0, 56, 0
2, 43809, Note_on_c, 0, 57, 44
2, 43833, Note_on_c, 0, 57, 0
2, 43850, Note_on_c, 0, 59, 50
2, 43888, Note_on_c, 0, 59, 0
2, 43902, Note_on_c, 0, 62, 0
2, 43903, Control_c, 0, 64, 127
2, 43905, Note_on_c, 0, 60, 44
2, 43915, Note_on_c, 0, 69, 0
2, 43915, Note_on_c, 0, 74, 0
2, 43924, Note_on_c, 0, 66, 0
2, 43954, Note_on_c, 0, 62, 52
2, 43967, Note_on_c, 0, 62, 0
2, 43980, Note_on_c, 0, 63, 38
2, 43999, Note_on_c, 0, 63, 0
2, 44007, Note_on_c, 0, 60, 0
2, 44009, Note_on_c, 0, 65, 53
2, 44035, Note_on_c, 0, 66, 58
2, 44036, Note_on_c, 0, 65, 0
2, 44055, Note_on_c, 0, 66, 0
2, 44061, Note_on_c, 0, 67, 53
2, 44092, Note_on_c, 0, 67, 0
2, 44100, Note_on_c, 0, 69, 37
2, 44124, Note_on_c, 0, 70, 59
2, 44126, Note_on_c, 0, 69, 0
2, 44141, Note_on_c, 0, 70, 0
2, 44145, Note_on_c, 0, 71, 57
2, 44155, Note_on_c, 0, 71, 0
2, 44163, Note_on_c, 0, 72, 66
2, 44186, Note_on_c, 0, 72, 0
2, 44197, Note_on_c, 0, 70, 70
2, 44200, Note_on_c, 0, 39, 37
2, 44201, Control_c, 0, 64, 0
2, 44244, Note_on_c, 0, 39, 0
2, 44248, Control_c, 0, 64, 127
2, 44250, Note_on_c, 0, 46, 36
2, 44252, Note_on_c, 0, 67, 47
2, 44253, Note_on_c, 0, 62, 33
2, 44270, Note_on_c, 0, 46, 0
2, 44290, Note_on_c, 0, 62, 0
2, 44293, Note_on_c, 0, 70, 0
2, 44309, Note_on_c, 0, 55, 43
2, 44309, Note_on_c, 0, 74, 64
2, 44332, Note_on_c, 0, 67, 0
2, 44361, Note_on_c, 0, 55, 0
2, 44366, Note_on_c, 0, 74, 0
2, 44375, Note_on_c, 0, 62, 33
2, 44376, Note_on_c, 0, 70, 45
2, 44379, Note_on_c, 0, 58, 40
2, 44382, Note_on_c, 0, 67, 24
2, 44385, Note_on_c, 0, 62, 0
2, 44402, Note_on_c, 0, 67, 0
2, 44421, Note_on_c, 0, 70, 0
2, 44440, Note_on_c, 0, 74, 56
2, 44441, Note_on_c, 0, 62, 47
2, 44479, Note_on_c, 0, 62, 0
2, 44521, Note_on_c, 0, 62, 44
2, 44569, Note_on_c, 0, 62, 0
2, 44601, Note_on_c, 0, 67, 58
2, 44602, Note_on_c, 0, 74, 0
2, 44602, Note_on_c, 0, 62, 40
2, 44614, Note_on_c, 0, 62, 0
2, 44660, Note_on_c, 0, 74, 71
2, 44666, Note_on_c, 0, 62, 40
2, 44695, Note_on_c, 0, 74, 0
2, 44708, Note_on_c, 0, 62, 0
2, 44709, Note_on_c, 0, 67, 0
2, 44721, Note_on_c, 0, 58, 0
2, 44727, Note_on_c, 0, 74, 80
2, 44730, Note_on_c, 0, 67, 71
2, 44735, Note_on_c, 0, 63, 57
2, 44736, Note_on_c, 0, 62, 45
2, 44738, Control_c, 0, 64, 0
2, 44770, Control_c, 0, 64, 127
2, 44776, Note_on_c, 0, 74, 0
2, 44798, Note_on_c, 0, 73, 71
2, 44802, Note_on_c, 0, 50, 39
2, 44820, Note_on_c, 0, 62, 0
2, 44833, Note_on_c, 0, 73, 0
2, 44862, Note_on_c, 0, 72, 64
2, 44864, Control_c, 0, 64, 0
2, 44864, Note_on_c, 0, 73, 35
2, 44865, Control_c, 0, 64, 127
2, 44873, Note_on_c, 0, 73, 0
2, 44904, Note_on_c, 0, 72, 0
2, 44910, Note_on_c, 0, 71, 64
2, 44914, Note_on_c, 0, 62, 30
2, 44922, Note_on_c, 0, 62, 0
2, 44924, Note_on_c, 0, 67, 0
2, 44930, Note_on_c, 0, 71, 0
2, 44935, Note_on_c, 0, 63, 0
2, 44943, Note_on_c, 0, 50, 0
2, 44966, Note_on_c, 0, 63, 39
2, 44973, Note_on_c, 0, 70, 54
2, 44979, Note_on_c, 0, 66, 34
2, 44983, Note_on_c, 0, 60, 24
2, 44986, Note_on_c, 0, 63, 0
2, 44988, Note_on_c, 0, 64, 63
2, 44988, Control_c, 0, 64, 0
2, 45035, Note_on_c, 0, 54, 54
2, 45048, Note_on_c, 0, 54, 0
2, 45048, Control_c, 0, 64, 127
2, 45088, Control_c, 0, 64, 0
2, 45117, Note_on_c, 0, 38, 27
2, 45117, Note_on_c, 0, 42, 22
2, 45182, Note_on_c, 0, 42, 0
2, 45182, Note_on_c, 0, 38, 0
2, 45189, Control_c, 0, 64, 127
2, 45266, Note_on_c, 0, 68, 52
2, 45299, Note_on_c, 0, 64, 0
2, 45303, Note_on_c, 0, 66, 0
2, 45306, Note_on_c, 0, 60, 0
2, 45307, Note_on_c, 0, 70, 0
2, 45326, Note_on_c, 0, 68, 0
2, 45349, Note_on_c, 0, 70, 49
2, 45349, Note_on_c, 0, 43, 36
2, 45350, Note_on_c, 0, 63, 37
2, 45351, Note_on_c, 0, 67, 36
2, 45351, Control_c, 0, 64, 0
2, 45352, Note_on_c, 0, 59, 36
2, 45353, Note_on_c, 0, 31, 27
2, 45361, Note_on_c, 0, 31, 0
2, 45370, Note_on_c, 0, 43, 0
2, 45381, Control_c, 0, 64, 127
2, 45420, Note_on_c, 0, 43, 42
2, 45449, Note_on_c, 0, 59, 0
2, 45449, Note_on_c, 0, 63, 0
2, 45454, Note_on_c, 0, 67, 0
2, 45470, Note_on_c, 0, 70, 0
2, 45478, Note_on_c, 0, 43, 0
2, 45479, Note_on_c, 0, 68, 46
2, 45482, Note_on_c, 0, 63, 43
2, 45482, Note_on_c, 0, 59, 53
2, 45484, Note_on_c, 0, 53, 46
2, 45492, Note_on_c, 0, 53, 0
2, 45548, Note_on_c, 0, 56, 80
2, 45560, Control_c, 0, 64, 0
2, 45576, Control_c, 0, 64, 127
2, 45584, Note_on_c, 0, 59, 0
2, 45594, Note_on_c, 0, 63, 0
2, 45601, Note_on_c, 0, 56, 0
2, 45607, Note_on_c, 0, 68, 0
2, 45620, Note_on_c, 0, 59, 54
2, 45621, Note_on_c, 0, 63, 50
2, 45621, Note_on_c, 0, 68, 48
2, 45622, Note_on_c, 0, 58, 64
2, 45632, Control_c, 0, 64, 0
2, 45668, Control_c, 0, 64, 127
2, 45680, Control_c, 0, 64, 0
2, 45696, Note_on_c, 0, 56, 55
2, 45698, Note_on_c, 0, 58, 0
2, 45714, Control_c, 0, 64, 127
2, 45743, Note_on_c, 0, 59, 0
2, 45754, Note_on_c, 0, 63, 0
2, 45764, Note_on_c, 0, 56, 0
2, 45771, Note_on_c, 0, 63, 46
2, 45772, Note_on_c, 0, 59, 44
2, 45773, Note_on_c, 0, 55, 47
2, 45774, Control_c, 0, 64, 0
2, 45788, Control_c, 0, 64, 127
2, 45851, Note_on_c, 0, 59, 0
2, 45854, Note_on_c, 0, 49, 29
2, 45867, Note_on_c, 0, 63, 0
2, 45870, Note_on_c, 0, 55, 0
2, 45899, Note_on_c, 0, 68, 0
2, 45906, Note_on_c, 0, 49, 0
2, 45942, Note_on_c, 0, 58, 37
2, 45942, Note_on_c, 0, 61, 46
2, 45944, Control_c, 0, 64, 0
2, 45947, Note_on_c, 0, 64, 40
2, 45948, Note_on_c, 0, 48, 46
2, 45968, Control_c, 0, 64, 127
2, 45972, Note_on_c, 0, 48, 0
2, 46015, Note_on_c, 0, 49, 48
2, 46025, Control_c, 0, 64, 0
2, 46032, Note_on_c, 0, 49, 0
2, 46045, Note_on_c, 0, 50, 53
2, 46060, Note_on_c, 0, 50, 0
2, 46070, Note_on_c, 0, 49, 33
2, 46083, Note_on_c, 0, 49, 0
2, 46094, Note_on_c, 0, 48, 47
2, 46114, Note_on_c, 0, 48, 0
2, 46125, Note_on_c, 0, 47, 36
2, 46144, Note_on_c, 0, 47, 0
2, 46146, Note_on_c, 0, 46, 45
2, 46161, Note_on_c, 0, 46, 0
2, 46175, Note_on_c, 0, 45, 46
2, 46204, Note_on_c, 0, 45, 0
2, 46220, Note_on_c, 0, 43, 38
2, 46250, Note_on_c, 0, 43, 0
2, 46266, Note_on_c, 0, 42, 54
2, 46306, Control_c, 0, 64, 127
2, 46327, Note_on_c, 0, 58, 0
2, 46340, Note_on_c, 0, 61, 0
2, 46343, Note_on_c, 0, 64, 0
2, 46413, Note_on_c, 0, 72, 65
2, 46442, Note_on_c, 0, 42, 0
2, 46521, Note_on_c, 0, 71, 66
2, 46531, Note_on_c, 0, 72, 0
2, 46556, Note_on_c, 0, 71, 0
2, 46586, Note_on_c, 0, 70, 70
2, 46624, Note_on_c, 0, 70, 0
2, 46638, Note_on_c, 0, 68, 49
2, 46651, Note_on_c, 0, 68, 0
2, 46703, Note_on_c, 0, 67, 54
2, 46707, Note_on_c, 0, 57, 45
2, 46708, Note_on_c, 0, 62, 60
2, 46711, Note_on_c, 0, 51, 34
2, 46714, Control_c, 0, 64, 0
2, 46716, Note_on_c, 0, 41, 34
2, 46758, Control_c, 0, 64, 127
2, 46773, Note_on_c, 0, 57, 0
2, 46776, Note_on_c, 0, 51, 0
2, 46778, Note_on_c, 0, 48, 58
2, 46780, Note_on_c, 0, 62, 0
2, 46786, Note_on_c, 0, 67, 0
2, 46789, Note_on_c, 0, 41, 0
2, 46797, Note_on_c, 0, 48, 0
2, 46857, Note_on_c, 0, 79, 84
2, 46860, Note_on_c, 0, 74, 87
2, 46861, Note_on_c, 0, 63, 74
2, 46862, Note_on_c, 0, 69, 80
2, 46867, Control_c, 0, 64, 0
2, 46880, Control_c, 0, 64, 127
2, 46907, Note_on_c, 0, 79, 0
2, 46925, Note_on_c, 0, 74, 0
2, 46926, Note_on_c, 0, 69, 0
2, 46933, Note_on_c, 0, 78, 71
2, 46939, Note_on_c, 0, 69, 40
2, 46954, Note_on_c, 0, 63, 0
2, 46962, Note_on_c, 0, 69, 0
2, 46964, Note_on_c, 0, 78, 0
2, 47024, Note_on_c, 0, 74, 51
2, 47030, Note_on_c, 0, 67, 62
2, 47033, Note_on_c, 0, 63, 48
2, 47036, Note_on_c, 0, 62, 47
2, 47037, Note_on_c, 0, 71, 47
2, 47039, Control_c, 0, 64, 0
2, 47073, Control_c, 0, 64, 127
2, 47119, Note_on_c, 0, 62, 0
2, 47124, Note_on_c, 0, 61, 29
2, 47130, Note_on_c, 0, 71, 0
2, 47149, Note_on_c, 0, 63, 0
2, 47151, Note_on_c, 0, 67, 0
2, 47162, Note_on_c, 0, 61, 0
2, 47172, Note_on_c, 0, 74, 0
2, 47213, Note_on_c, 0, 72, 45
2, 47214, Note_on_c, 0, 63, 34
2, 47216, Note_on_c, 0, 67, 38
2, 47219, Control_c, 0, 64, 0
2, 47222, Note_on_c, 0, 60, 29
2, 47252, Control_c, 0, 64, 127
2, 47341, Note_on_c, 0, 60, 0
2, 47344, Note_on_c, 0, 53, 9
2, 47392, Note_on_c, 0, 67, 0
2, 47396, Note_on_c, 0, 72, 0
2, 47415, Note_on_c, 0, 63, 0
2, 47422, Note_on_c, 0, 53, 0
2, 47745, Note_on_c, 0, 57, 34
2, 47745, Note_on_c, 0, 66, 37
2, 47748, Note_on_c, 0, 61, 38
2, 47748, Note_on_c, 0, 63, 36
2, 47750, Note_on_c, 0, 47, 34
2, 47751, Control_c, 0, 64, 0
2, 47796, Note_on_c, 0, 66, 0
2, 47797, Control_c, 0, 64, 127
2, 47813, Note_on_c, 0, 66, 52
2, 47852, Note_on_c, 0, 66, 0
2, 47882, Note_on_c, 0, 66, 46
2, 47907, Note_on_c, 0, 66, 0
2, 47942, Note_on_c, 0, 63, 0
2, 47948, Note_on_c, 0, 47, 0
2, 47955, Note_on_c, 0, 57, 0
2, 47957, Note_on_c, 0, 66, 45
2, 47988, Note_on_c, 0, 66, 0
2, 47990, Note_on_c, 0, 61, 0
2, 48047, Note_on_c, 0, 67, 40
2, 48051, Note_on_c, 0, 63, 32
2, 48053, Note_on_c, 0, 56, 27
2, 48054, Note_on_c, 0, 46, 44
2, 48054, Note_on_c, 0, 60, 35
2, 48062, Control_c, 0, 64, 0
2, 48102, Control_c, 0, 64, 127
2, 48110, Note_on_c, 0, 67, 0
2, 48146, Note_on_c, 0, 67, 44
2, 48163, Note_on_c, 0, 60, 0
2, 48166, Note_on_c, 0, 56, 0
2, 48179, Note_on_c, 0, 67, 0
2, 48191, Note_on_c, 0, 63, 0
2, 48268, Note_on_c, 0, 66, 64
2, 48270, Note_on_c, 0, 71, 72
2, 48271, Note_on_c, 0, 62, 68
2, 48275, Note_on_c, 0, 56, 46
2, 48284, Note_on_c, 0, 67, 61
2, 48285, Note_on_c, 0, 66, 0
2, 48286, Control_c, 0, 64, 0
2, 48326, Control_c, 0, 64, 127
2, 48608, Note_on_c, 0, 62, 0
2, 48636, Note_on_c, 0, 56, 0
2, 48675, Note_on_c, 0, 71, 0
2, 48683, Note_on_c, 0, 46, 0
2, 48694, Note_on_c, 0, 67, 0
2, 48748, Note_on_c, 0, 71, 53
2, 48756, Note_on_c, 0, 71, 0
2, 48805, Control_c, 0, 64, 0
2, 48810, Note_on_c, 0, 74, 58
2, 48814, Note_on_c, 0, 39, 34
2, 48816, Note_on_c, 0, 46, 25
2, 48832, Control_c, 0, 64, 127
2, 48838, Note_on_c, 0, 74, 0
2, 48853, Note_on_c, 0, 39, 0
2, 48857, Note_on_c, 0, 46, 0
2, 48918, Note_on_c, 0, 86, 60
2, 48960, Note_on_c, 0, 86, 0
2, 48974, Note_on_c, 0, 65, 26
2, 48975, Note_on_c, 0, 74, 36
2, 48981, Note_on_c, 0, 60, 25
2, 48983, Note_on_c, 0, 74, 0
2, 48990, Note_on_c, 0, 65, 0
2, 49002, Note_on_c, 0, 60, 0
2, 49078, Note_on_c, 0, 74, 52
2, 49084, Note_on_c, 0, 70, 34
2, 49086, Note_on_c, 0, 67, 28
2, 49088, Note_on_c, 0, 62, 22
2, 49128, Control_c, 0, 64, 0
2, 49141, Note_on_c, 0, 55, 47
2, 49146, Control_c, 0, 64, 127
2, 49156, Note_on_c, 0, 74, 0
2, 49161, Note_on_c, 0, 67, 0
2, 49168, Note_on_c, 0, 70, 0
2, 49207, Note_on_c, 0, 62, 0
2, 49288, Note_on_c, 0, 55, 0
2, 49302, Note_on_c, 0, 62, 34
2, 49304, Note_on_c, 0, 58, 27
2, 49306, Note_on_c, 0, 67, 22
2, 49306, Note_on_c, 0, 51, 32
2, 49320, Note_on_c, 0, 58, 0
2, 49322, Note_on_c, 0, 62, 0
2, 49322, Note_on_c, 0, 67, 0
2, 49337, Note_on_c, 0, 51, 0
2, 49462, Note_on_c, 0, 86, 79
2, 49468, Note_on_c, 0, 62, 54
2, 49469, Note_on_c, 0, 79, 79
2, 49470, Note_on_c, 0, 63, 44
2, 49472, Control_c, 0, 64, 0
2, 49472, Note_on_c, 0, 67, 64
2, 49475, Note_on_c, 0, 74, 66
2, 49504, Control_c, 0, 64, 127
2, 49543, Note_on_c, 0, 84, 1
2, 49546, Note_on_c, 0, 74, 0
2, 49548, Note_on_c, 0, 86, 0
2, 49558, Note_on_c, 0, 84, 0
2, 49564, Note_on_c, 0, 62, 0
2, 49566, Note_on_c, 0, 67, 0
2, 49569, Note_on_c, 0, 79, 0
2, 49574, Note_on_c, 0, 63, 0
2, 49577, Note_on_c, 0, 85, 73
2, 49580, Note_on_c, 0, 79, 36
2, 49630, Note_on_c, 0, 55, 43
2, 49634, Control_c, 0, 64, 0
2, 49656, Note_on_c, 0, 55, 0
2, 49656, Control_c, 0, 64, 127
2, 49676, Note_on_c, 0, 85, 0
2, 49685, Note_on_c, 0, 79, 0
2, 49689, Note_on_c, 0, 85, 32
2, 49693, Note_on_c, 0, 84, 80
2, 49696, Note_on_c, 0, 85, 0
2, 49721, Note_on_c, 0, 84, 0
2, 49738, Note_on_c, 0, 83, 63
2, 49786, Note_on_c, 0, 83, 0
2, 49786, Control_c, 0, 64, 0
2, 49791, Note_on_c, 0, 82, 53
2, 49794, Note_on_c, 0, 50, 34
2, 49796, Note_on_c, 0, 54, 34
2, 49798, Note_on_c, 0, 60, 13
2, 49807, Note_on_c, 0, 82, 0
2, 49810, Control_c, 0, 64, 127
2, 49862, Note_on_c, 0, 50, 0
2, 49867, Note_on_c, 0, 54, 0
2, 49874, Note_on_c, 0, 60, 0
2, 49960, Note_on_c, 0, 60, 35
2, 49961, Note_on_c, 0, 65, 27
2, 49961, Note_on_c, 0, 58, 32
2, 49963, Note_on_c, 0, 54, 28
2, 49993, Note_on_c, 0, 65, 0
2, 49998, Note_on_c, 0, 60, 0
2, 50006, Note_on_c, 0, 58, 0
2, 50016, Note_on_c, 0, 54, 0
2, 50122, Note_on_c, 0, 70, 52
2, 50126, Note_on_c, 0, 63, 46
2, 50129, Note_on_c, 0, 67, 41
2, 50132, Note_on_c, 0, 43, 36
2, 50132, Note_on_c, 0, 53, 35
2, 50133, Control_c, 0, 64, 0
2, 50144, Note_on_c, 0, 59, 11
2, 50171, Control_c, 0, 64, 127
2, 50186, Note_on_c, 0, 43, 0
2, 50201, Note_on_c, 0, 53, 0
2, 50239, Note_on_c, 0, 59, 0
2, 50242, Note_on_c, 0, 67, 0
2, 50249, Note_on_c, 0, 63, 0
2, 50289, Note_on_c, 0, 63, 37
2, 50291, Note_on_c, 0, 59, 37
2, 50292, Note_on_c, 0, 56, 44
2, 50294, Note_on_c, 0, 67, 34
2, 50302, Note_on_c, 0, 49, 34
2, 50306, Control_c, 0, 64, 0
2, 50338, Control_c, 0, 64, 127
2, 50371, Note_on_c, 0, 59, 0
2, 50409, Note_on_c, 0, 67, 0
2, 50414, Note_on_c, 0, 63, 0
2, 50418, Note_on_c, 0, 56, 0
2, 50462, Note_on_c, 0, 56, 34
2, 50463, Note_on_c, 0, 63, 40
2, 50466, Note_on_c, 0, 59, 38
2, 50501, Note_on_c, 0, 56, 0
2, 50509, Note_on_c, 0, 49, 0
2, 50578, Note_on_c, 0, 59, 0
2, 50579, Note_on_c, 0, 63, 0
2, 50633, Note_on_c, 0, 59, 44
2, 50634, Note_on_c, 0, 63, 35
2, 50729, Note_on_c, 0, 59, 0
2, 50740, Note_on_c, 0, 43, 34
2, 50763, Note_on_c, 0, 63, 0
2, 50774, Note_on_c, 0, 70, 0
2, 50802, Note_on_c, 0, 43, 0
2, 50803, Control_c, 0, 64, 0
2, 50807, Note_on_c, 0, 58, 25
2, 50808, Note_on_c, 0, 48, 34
2, 50817, Note_on_c, 0, 36, 36
2, 50831, Control_c, 0, 64, 127
2, 50836, Note_on_c, 0, 48, 0
2, 50838, Note_on_c, 0, 36, 0
2, 50848, Note_on_c, 0, 58, 0
2, 50974, Note_on_c, 0, 58, 44
2, 50976, Note_on_c, 0, 64, 40
2, 50976, Note_on_c, 0, 84, 95
2, 51018, Note_on_c, 0, 84, 0
2, 51018, Note_on_c, 0, 58, 0
2, 51019, Note_on_c, 0, 83, 73
2, 51022, Note_on_c, 0, 64, 0
2, 51061, Note_on_c, 0, 82, 50
2, 51069, Note_on_c, 0, 83, 0
2, 51081, Note_on_c, 0, 82, 0
2, 51101, Note_on_c, 0, 81, 56
2, 51128, Note_on_c, 0, 81, 0
2, 51130, Control_c, 0, 64, 0
2, 51138, Note_on_c, 0, 69, 36
2, 51138, Note_on_c, 0, 64, 43
2, 51138, Note_on_c, 0, 58, 27
2, 51146, Note_on_c, 0, 80, 45
2, 51160, Control_c, 0, 64, 127
2, 51178, Note_on_c, 0, 69, 0
2, 51187, Note_on_c, 0, 80, 0
2, 51188, Note_on_c, 0, 64, 0
2, 51195, Note_on_c, 0, 85, 70
2, 51200, Note_on_c, 0, 58, 0
2, 51304, Note_on_c, 0, 63, 32
2, 51306, Control_c, 0, 64, 0
2, 51306, Note_on_c, 0, 58, 37
2, 51306, Note_on_c, 0, 52, 38
2, 51325, Control_c, 0, 64, 127
2, 51374, Note_on_c, 0, 52, 0
2, 51385, Note_on_c, 0, 58, 0
2, 51391, Note_on_c, 0, 63, 0
2, 51401, Note_on_c, 0, 85, 0
2, 51414, Note_on_c, 0, 82, 78
2, 51436, Note_on_c, 0, 82, 0
2, 51472, Note_on_c, 0, 78, 46
2, 51474, Note_on_c, 0, 63, 30
2, 51476, Note_on_c, 0, 57, 39
2, 51478, Note_on_c, 0, 67, 24
2, 51484, Control_c, 0, 64, 0
2, 51489, Note_on_c, 0, 78, 0
2, 51495, Note_on_c, 0, 79, 47
2, 51547, Control_c, 0, 64, 127
2, 51582, Note_on_c, 0, 67, 0
2, 51587, Note_on_c, 0, 57, 0
2, 51588, Note_on_c, 0, 63, 0
2, 51590, Note_on_c, 0, 79, 0
2, 51650, Note_on_c, 0, 60, 42
2, 51650, Note_on_c, 0, 63, 39
2, 51652, Control_c, 0, 64, 0
2, 51679, Control_c, 0, 64, 127
2, 51707, Note_on_c, 0, 63, 0
2, 51711, Note_on_c, 0, 60, 0
2, 51765, Note_on_c, 0, 50, 53
2, 51780, Note_on_c, 0, 50, 0
2, 51822, Control_c, 0, 64, 0
2, 51822, Note_on_c, 0, 74, 70
2, 51824, Note_on_c, 0, 63, 44
2, 51825, Note_on_c, 0, 41, 62
2, 51826, Note_on_c, 0, 67, 51
2, 51829, Note_on_c, 0, 69, 42
2, 51858, Control_c, 0, 64, 127
2, 51859, Note_on_c, 0, 41, 0
2, 51918, Note_on_c, 0, 63, 0
2, 51947, Note_on_c, 0, 67, 0
2, 51952, Note_on_c, 0, 69, 0
2, 51954, Note_on_c, 0, 74, 0
2, 51998, Note_on_c, 0, 63, 44
2, 51998, Note_on_c, 0, 53, 34
2, 51998, Note_on_c, 0, 60, 33
2, 51999, Control_c, 0, 64, 0
2, 52002, Note_on_c, 0, 69, 47
2, 52002, Note_on_c, 0, 57, 31
2, 52002, Note_on_c, 0, 72, 43
2, 52004, Note_on_c, 0, 67, 34
2, 52026, Control_c, 0, 64, 127
2, 52036, Note_on_c, 0, 60, 0
2, 52042, Note_on_c, 0, 57, 0
2, 52050, Note_on_c, 0, 72, 0
2, 52053, Note_on_c, 0, 53, 0
2, 52057, Note_on_c, 0, 67, 0
2, 52058, Note_on_c, 0, 69, 0
2, 52065, Note_on_c, 0, 63, 0
2, 52166, Note_on_c, 0, 63, 39
2, 52168, Control_c, 0, 64, 0
2, 52170, Note_on_c, 0, 51, 29
2, 52171, Note_on_c, 0, 61, 37
2, 52171, Note_on_c, 0, 57, 25
2, 52172, Note_on_c, 0, 54, 19
2, 52176, Note_on_c, 0, 47, 30
2, 52196, Note_on_c, 0, 57, 0
2, 52202, Control_c, 0, 64, 127
2, 52218, Note_on_c, 0, 61, 0
2, 52218, Note_on_c, 0, 47, 0
2, 52224, Note_on_c, 0, 63, 0
2, 52229, Note_on_c, 0, 54, 0
2, 52233, Note_on_c, 0, 51, 0
2, 52336, Note_on_c, 0, 68, 55
2, 52336, Note_on_c, 0, 61, 25
2, 52338, Note_on_c, 0, 63, 40
2, 52339, Note_on_c, 0, 57, 53
2, 52343, Control_c, 0, 64, 0
2, 52367, Control_c, 0, 64, 127
2, 52448, Note_on_c, 0, 57, 0
2, 52448, Note_on_c, 0, 75, 85
2, 52461, Note_on_c, 0, 68, 0
2, 52466, Note_on_c, 0, 61, 0
2, 52471, Note_on_c, 0, 75, 0
2, 52490, Note_on_c, 0, 63, 0
2, 52502, Note_on_c, 0, 63, 25
2, 52508, Note_on_c, 0, 60, 38
2, 52509, Note_on_c, 0, 67, 39
2, 52509, Note_on_c, 0, 77, 76
2, 52510, Control_c, 0, 64, 0
2, 52516, Note_on_c, 0, 56, 33
2, 52533, Note_on_c, 0, 77, 0
2, 52545, Control_c, 0, 64, 127
2, 52556, Note_on_c, 0, 77, 44
2, 52564, Note_on_c, 0, 67, 0
2, 52575, Note_on_c, 0, 60, 0
2, 52577, Note_on_c, 0, 63, 0
2, 52579, Note_on_c, 0, 77, 0
2, 52589, Note_on_c, 0, 56, 0
2, 52601, Note_on_c, 0, 72, 36
2, 52612, Note_on_c, 0, 72, 0
2, 52645, Note_on_c, 0, 72, 33
2, 52664, Note_on_c, 0, 72, 0
2, 52674, Control_c, 0, 64, 0
2, 52677, Note_on_c, 0, 46, 35
2, 52678, Note_on_c, 0, 56, 27
2, 52678, Note_on_c, 0, 75, 71
2, 52706, Note_on_c, 0, 75, 0
2, 52706, Control_c, 0, 64, 127
2, 52778, Note_on_c, 0, 56, 0
2, 52785, Note_on_c, 0, 46, 0
2, 52785, Note_on_c, 0, 68, 55
2, 52836, Note_on_c, 0, 68, 0
2, 52843, Note_on_c, 0, 70, 62
2, 52844, Note_on_c, 0, 43, 35
2, 52848, Control_c, 0, 64, 0
2, 52849, Note_on_c, 0, 53, 27
2, 52896, Control_c, 0, 64, 127
2, 52939, Note_on_c, 0, 70, 0
2, 52942, Note_on_c, 0, 53, 0
2, 52947, Note_on_c, 0, 59, 40
2, 52948, Note_on_c, 0, 67, 35
2, 52949, Note_on_c, 0, 63, 38
2, 53017, Note_on_c, 0, 43, 0
2, 53020, Note_on_c, 0, 53, 29
2, 53036, Note_on_c, 0, 53, 0
2, 53040, Note_on_c, 0, 63, 0
2, 53054, Note_on_c, 0, 59, 0
2, 53057, Note_on_c, 0, 67, 0
2, 53070, Note_on_c, 0, 63, 52
2, 53108, Note_on_c, 0, 63, 0
2, 53121, Note_on_c, 0, 68, 79
2, 53170, Note_on_c, 0, 68, 0
2, 53175, Control_c, 0, 64, 0
2, 53176, Note_on_c, 0, 43, 28
2, 53177, Note_on_c, 0, 63, 46
2, 53177, Note_on_c, 0, 36, 31
2, 53183, Note_on_c, 0, 52, 25
2, 53207, Control_c, 0, 64, 127
2, 53215, Note_on_c, 0, 36, 0
2, 53219, Note_on_c, 0, 63, 0
2, 53224, Note_on_c, 0, 43, 0
2, 53230, Note_on_c, 0, 64, 50
2, 53237, Note_on_c, 0, 52, 0
2, 53257, Note_on_c, 0, 64, 0
2, 53343, Note_on_c, 0, 63, 34
2, 53346, Note_on_c, 0, 52, 48
2, 53349, Note_on_c, 0, 58, 39
2, 53353, Control_c, 0, 64, 0
2, 53379, Control_c, 0, 64, 127
2, 53405, Note_on_c, 0, 68, 62
2, 53432, Note_on_c, 0, 68, 0
2, 53434, Note_on_c, 0, 52, 0
2, 53445, Note_on_c, 0, 58, 0
2, 53451, Note_on_c, 0, 63, 0
2, 53455, Note_on_c, 0, 70, 82
2, 53508, Note_on_c, 0, 70, 0
2, 53512, Control_c, 0, 64, 0
2, 53513, Note_on_c, 0, 67, 58
2, 53514, Note_on_c, 0, 60, 29
2, 53514, Note_on_c, 0, 63, 37
2, 53519, Note_on_c, 0, 53, 27
2, 53521, Note_on_c, 0, 56, 30
2, 53545, Control_c, 0, 64, 127
2, 53551, Note_on_c, 0, 68, 64
2, 53552, Note_on_c, 0, 67, 0
2, 53568, Note_on_c, 0, 53, 0
2, 53573, Note_on_c, 0, 60, 0
2, 53578, Note_on_c, 0, 63, 0
2, 53579, Note_on_c, 0, 68, 0
2, 53582, Note_on_c, 0, 56, 0
2, 53594, Note_on_c, 0, 70, 67
2, 53615, Note_on_c, 0, 70, 0
2, 53632, Note_on_c, 0, 72, 74
2, 53663, Note_on_c, 0, 72, 0
2, 53674, Control_c, 0, 64, 0
2, 53675, Note_on_c, 0, 74, 78
2, 53677, Note_on_c, 0, 63, 39
2, 53678, Note_on_c, 0, 67, 46
2, 53680, Note_on_c, 0, 60, 40
2, 53682, Note_on_c, 0, 56, 32
2, 53706, Control_c, 0, 64, 127
2, 53716, Note_on_c, 0, 74, 0
2, 53718, Note_on_c, 0, 75, 61
2, 53742, Note_on_c, 0, 75, 0
2, 53759, Note_on_c, 0, 77, 57
2, 53767, Note_on_c, 0, 67, 0
2, 53775, Note_on_c, 0, 63, 0
2, 53776, Note_on_c, 0, 56, 0
2, 53788, Note_on_c, 0, 60, 0
2, 53791, Note_on_c, 0, 77, 0
2, 53801, Note_on_c, 0, 79, 70
2, 53831, Note_on_c, 0, 79, 0
2, 53834, Control_c, 0, 64, 0
2, 53840, Note_on_c, 0, 62, 47
2, 53840, Note_on_c, 0, 66, 46
2, 53844, Note_on_c, 0, 80, 60
2, 53847, Note_on_c, 0, 56, 26
2, 53854, Note_on_c, 0, 66, 0
2, 53861, Note_on_c, 0, 62, 0
2, 53864, Control_c, 0, 64, 127
2, 53878, Note_on_c, 0, 56, 0
2, 53887, Note_on_c, 0, 80, 0
2, 53890, Note_on_c, 0, 82, 61
2, 53911, Note_on_c, 0, 82, 0
2, 53929, Note_on_c, 0, 83, 57
2, 53959, Note_on_c, 0, 83, 0
2, 53972, Note_on_c, 0, 86, 82
2, 54010, Note_on_c, 0, 86, 0
2, 54011, Control_c, 0, 64, 0
2, 54011, Note_on_c, 0, 56, 50
2, 54014, Note_on_c, 0, 46, 49
2, 54015, Note_on_c, 0, 87, 78
2, 54032, Control_c, 0, 64, 127
2, 54045, Note_on_c, 0, 87, 0
2, 54052, Note_on_c, 0, 56, 0
2, 54061, Note_on_c, 0, 89, 37
2, 54062, Note_on_c, 0, 88, 33
2, 54065, Note_on_c, 0, 46, 0
2, 54079, Note_on_c, 0, 88, 0
2, 54083, Note_on_c, 0, 89, 0
2, 54096, Note_on_c, 0, 91, 70
2, 54124, Note_on_c, 0, 91, 0
2, 54138, Note_on_c, 0, 94, 77
2, 54166, Note_on_c, 0, 94, 0
2, 54181, Control_c, 0, 64, 0
2, 54183, Note_on_c, 0, 46, 63
2, 54184, Note_on_c, 0, 39, 60
2, 54185, Note_on_c, 0, 98, 83
2, 54186, Note_on_c, 0, 86, 78
2, 54207, Control_c, 0, 64, 127
2, 54224, Note_on_c, 0, 86, 0
2, 54224, Note_on_c, 0, 98, 0
2, 54228, Note_on_c, 0, 39, 0
2, 54234, Note_on_c, 0, 46, 0
2, 54236, Note_on_c, 0, 93, 57
2, 54251, Note_on_c, 0, 93, 0
2, 54274, Note_on_c, 0, 98, 83
2, 54276, Note_on_c, 0, 86, 68
2, 54278, Note_on_c, 0, 90, 51
2, 54283, Note_on_c, 0, 93, 36
2, 54291, Note_on_c, 0, 93, 0
2, 54305, Note_on_c, 0, 90, 0
2, 54314, Note_on_c, 0, 86, 0
2, 54323, Note_on_c, 0, 93, 53
2, 54327, Note_on_c, 0, 98, 0
2, 54346, Note_on_c, 0, 93, 0
2, 54365, Note_on_c, 0, 98, 71
2, 54367, Control_c, 0, 64, 0
2, 54369, Note_on_c, 0, 62, 32
2, 54369, Note_on_c, 0, 86, 37
2, 54370, Note_on_c, 0, 51, 30
2, 54371, Note_on_c, 0, 58, 31
2, 54372, Note_on_c, 0, 90, 33
2, 54373, Note_on_c, 0, 55, 42
2, 54390, Note_on_c, 0, 90, 0
2, 54394, Control_c, 0, 64, 127
2, 54398, Note_on_c, 0, 86, 0
2, 54414, Note_on_c, 0, 55, 0
2, 54417, Note_on_c, 0, 98, 0
2, 54421, Note_on_c, 0, 51, 0
2, 54421, Note_on_c, 0, 93, 41
2, 54427, Note_on_c, 0, 58, 0
2, 54438, Note_on_c, 0, 93, 0
2, 54441, Note_on_c, 0, 62, 0
2, 54457, Note_on_c, 0, 98, 53
2, 54463, Note_on_c, 0, 86, 30
2, 54467, Note_on_c, 0, 90, 23
2, 54484, Note_on_c, 0, 90, 0
2, 54485, Note_on_c, 0, 86, 0
2, 54505, Note_on_c, 0, 98, 0
2, 54511, Note_on_c, 0, 93, 26
2, 54517, Note_on_c, 0, 98, 13
2, 54518, Note_on_c, 0, 93, 0
2, 54529, Note_on_c, 0, 98, 0
2, 54545, Note_on_c, 0, 98, 36
2, 54548, Note_on_c, 0, 86, 35
2, 54549, Note_on_c, 0, 65, 33
2, 54549, Control_c, 0, 64, 0
2, 54552, Note_on_c, 0, 62, 28
2, 54552, Note_on_c, 0, 91, 41
2, 54558, Note_on_c, 0, 60, 31
2, 54578, Control_c, 0, 64, 127
2, 54581, Note_on_c, 0, 65, 0
2, 54613, Note_on_c, 0, 62, 0
2, 54617, Note_on_c, 0, 60, 0
2, 54648, Note_on_c, 0, 91, 0
2, 54671, Note_on_c, 0, 86, 0
2, 54685, Note_on_c, 0, 98, 0
2, 54725, Note_on_c, 0, 91, 40
2, 54727, Note_on_c, 0, 51, 42
2, 54727, Note_on_c, 0, 86, 40
2, 54733, Note_on_c, 0, 91, 0
2, 54744, Note_on_c, 0, 86, 0
2, 54759, Note_on_c, 0, 51, 0
2, 54841, Note_on_c, 0, 81, 92
2, 54867, Note_on_c, 0, 81, 0
2, 54900, Note_on_c, 0, 81, 82
2, 54905, Note_on_c, 0, 75, 69
2, 54905, Control_c, 0, 64, 0
2, 54906, Note_on_c, 0, 63, 42
2, 54908, Note_on_c, 0, 62, 33
2, 54909, Note_on_c, 0, 74, 69
2, 54911, Note_on_c, 0, 67, 38
2, 54939, Control_c, 0, 64, 127
2, 54948, Note_on_c, 0, 67, 0
2, 54954, Note_on_c, 0, 62, 0
2, 54957, Note_on_c, 0, 63, 0
2, 55067, Note_on_c, 0, 81, 0
2, 55069, Note_on_c, 0, 74, 0
2, 55079, Note_on_c, 0, 75, 0
2, 55091, Note_on_c, 0, 45, 54
2, 55099, Note_on_c, 0, 45, 0
2, 55135, Control_c, 0, 64, 0
2, 55142, Note_on_c, 0, 74, 64
2, 55154, Note_on_c, 0, 74, 0
2, 55158, Note_on_c, 0, 75, 64
2, 55170, Note_on_c, 0, 74, 53
2, 55181, Note_on_c, 0, 75, 0
2, 55189, Note_on_c, 0, 74, 0
2, 55199, Note_on_c, 0, 72, 42
2, 55208, Note_on_c, 0, 72, 0
2, 55233, Note_on_c, 0, 70, 74
2, 55250, Note_on_c, 0, 70, 0
2, 55250, Control_c, 0, 64, 127
2, 55268, Control_c, 0, 64, 0
2, 55270, Note_on_c, 0, 66, 71
2, 55271, Note_on_c, 0, 60, 45
2, 55274, Note_on_c, 0, 54, 39
2, 55279, Note_on_c, 0, 50, 32
2, 55288, Note_on_c, 0, 66, 0
2, 55310, Note_on_c, 0, 60, 0
2, 55348, Note_on_c, 0, 63, 53
2, 55367, Note_on_c, 0, 62, 54
2, 55375, Note_on_c, 0, 63, 0
2, 55377, Note_on_c, 0, 54, 0
2, 55392, Note_on_c, 0, 62, 0
2, 55392, Note_on_c, 0, 61, 46
2, 55410, Note_on_c, 0, 61, 0
2, 55416, Note_on_c, 0, 60, 62
2, 55428, Note_on_c, 0, 60, 0
2, 55448, Note_on_c, 0, 58, 70
2, 55464, Note_on_c, 0, 50, 0
2, 55471, Note_on_c, 0, 58, 0
2, 55482, Note_on_c, 0, 54, 71
2, 55502, Note_on_c, 0, 54, 0
2, 55517, Note_on_c, 0, 53, 51
2, 55528, Note_on_c, 0, 53, 0
2, 55547, Note_on_c, 0, 51, 56
2, 55576, Note_on_c, 0, 51, 0
2, 55583, Note_on_c, 0, 50, 44
2, 55601, Note_on_c, 0, 50, 0
2, 55612, Note_on_c, 0, 49, 31
2, 55627, Note_on_c, 0, 49, 0
2, 55629, Control_c, 0, 64, 127
2, 55636, Note_on_c, 0, 48, 46
2, 55656, Note_on_c, 0, 48, 0
2, 55668, Note_on_c, 0, 47, 33
2, 55679, Note_on_c, 0, 47, 0
2, 55679, Control_c, 0, 64, 0
2, 55685, Note_on_c, 0, 31, 43
2, 55688, Note_on_c, 0, 46, 56
2, 55690, Note_on_c, 0, 43, 30
2, 55727, Control_c, 0, 64, 127
2, 55728, Note_on_c, 0, 46, 0
2, 55754, Note_on_c, 0, 31, 0
2, 55765, Note_on_c, 0, 43, 0
2, 55812, Note_on_c, 0, 71, 46
2, 55824, Note_on_c, 0, 71, 0
2, 55867, Note_on_c, 0, 70, 59
2, 55872, Note_on_c, 0, 55, 55
2, 55874, Control_c, 0, 64, 0
2, 55874, Note_on_c, 0, 61, 47
2, 55876, Note_on_c, 0, 65, 49
2, 55900, Control_c, 0, 64, 127
2, 55922, Note_on_c, 0, 56, 74
2, 55925, Note_on_c, 0, 55, 0
2, 55928, Control_c, 0, 64, 0
2, 55959, Note_on_c, 0, 56, 0
2, 55964, Control_c, 0, 64, 127
2, 55969, Note_on_c, 0, 58, 72
2, 55991, Note_on_c, 0, 61, 0
2, 56009, Note_on_c, 0, 65, 0
2, 56012, Note_on_c, 0, 60, 78
2, 56018, Note_on_c, 0, 58, 0
2, 56038, Control_c, 0, 64, 0
2, 56057, Note_on_c, 0, 61, 69
2, 56078, Control_c, 0, 64, 127
2, 56097, Note_on_c, 0, 61, 0
2, 56108, Note_on_c, 0, 63, 46
2, 56119, Note_on_c, 0, 70, 0
2, 56132, Note_on_c, 0, 63, 0
2, 56141, Note_on_c, 0, 64, 54
2, 56163, Note_on_c, 0, 64, 0
2, 56167, Note_on_c, 0, 66, 69
2, 56188, Note_on_c, 0, 66, 0
2, 56196, Note_on_c, 0, 67, 60
2, 56216, Note_on_c, 0, 67, 0
2, 56233, Note_on_c, 0, 69, 22
2, 56243, Note_on_c, 0, 69, 0
2, 56249, Note_on_c, 0, 70, 44
2, 56263, Note_on_c, 0, 70, 0
2, 56271, Note_on_c, 0, 72, 64
2, 56289, Note_on_c, 0, 72, 0
2, 56289, Note_on_c, 0, 60, 0
2, 56292, Note_on_c, 0, 73, 60
2, 56312, Note_on_c, 0, 73, 0
2, 56330, Note_on_c, 0, 76, 45
2, 56352, Note_on_c, 0, 76, 0
2, 56358, Note_on_c, 0, 77, 31
2, 56374, Note_on_c, 0, 77, 0
2, 56375, Note_on_c, 0, 78, 32
2, 56413, Note_on_c, 0, 78, 0
2, 56418, Note_on_c, 0, 79, 50
2, 56429, Control_c, 0, 64, 0
2, 56432, Note_on_c, 0, 58, 27
2, 56434, Note_on_c, 0, 48, 43
2, 56440, Note_on_c, 0, 79, 0
2, 56444, Note_on_c, 0, 76, 32
2, 56465, Control_c, 0, 64, 127
2, 56485, Note_on_c, 0, 48, 0
2, 56502, Note_on_c, 0, 58, 0
2, 56510, Note_on_c, 0, 76, 0
2, 56517, Note_on_c, 0, 70, 55
2, 56525, Note_on_c, 0, 70, 0
2, 56558, Note_on_c, 0, 84, 70
2, 56578, Note_on_c, 0, 84, 0
2, 56630, Note_on_c, 0, 64, 42
2, 56631, Note_on_c, 0, 58, 35
2, 56641, Note_on_c, 0, 64, 0
2, 56649, Note_on_c, 0, 58, 0
2, 56818, Note_on_c, 0, 80, 74
2, 56820, Note_on_c, 0, 84, 85
2, 56820, Note_on_c, 0, 76, 80
2, 56820, Note_on_c, 0, 71, 69
2, 56824, Control_c, 0, 64, 0
2, 56846, Control_c, 0, 64, 127
2, 56853, Note_on_c, 0, 76, 0
2, 56865, Note_on_c, 0, 80, 0
2, 56866, Note_on_c, 0, 84, 0
2, 56882, Note_on_c, 0, 83, 54
2, 56882, Note_on_c, 0, 78, 62
2, 56882, Note_on_c, 0, 70, 59
2, 56884, Note_on_c, 0, 75, 43
2, 56888, Note_on_c, 0, 71, 0
2, 56902, Note_on_c, 0, 83, 0
2, 56907, Note_on_c, 0, 75, 0
2, 56915, Note_on_c, 0, 78, 0
2, 56922, Control_c, 0, 64, 0
2, 56926, Note_on_c, 0, 70, 0
2, 56930, Note_on_c, 0, 82, 49
2, 56932, Control_c, 0, 64, 127
2, 56934, Note_on_c, 0, 74, 35
2, 56934, Note_on_c, 0, 77, 58
2, 56936, Note_on_c, 0, 69, 45
2, 56949, Note_on_c, 0, 74, 0
2, 56954, Note_on_c, 0, 82, 0
2, 56955, Note_on_c, 0, 77, 0
2, 56971, Note_on_c, 0, 69, 0
2, 56981, Note_on_c, 0, 68, 53
2, 56984, Note_on_c, 0, 81, 35
2, 56984, Note_on_c, 0, 72, 33
2, 56985, Note_on_c, 0, 76, 46
2, 56992, Note_on_c, 0, 81, 0
2, 56993, Note_on_c, 0, 72, 0
2, 56994, Note_on_c, 0, 76, 0
2, 56999, Note_on_c, 0, 68, 0
2, 57028, Control_c, 0, 64, 0
2, 57034, Note_on_c, 0, 80, 50
2, 57034, Note_on_c, 0, 65, 40
2, 57038, Note_on_c, 0, 70, 30
2, 57039, Note_on_c, 0, 75, 29
2, 57041, Note_on_c, 0, 65, 0
2, 57043, Note_on_c, 0, 73, 25
2, 57045, Note_on_c, 0, 78, 23
2, 57053, Control_c, 0, 64, 127
2, 57078, Note_on_c, 0, 78, 0
2, 57078, Note_on_c, 0, 73, 0
2, 57080, Note_on_c, 0, 80, 0
2, 57080, Note_on_c, 0, 70, 0
2, 57083, Note_on_c, 0, 75, 0
2, 57087, Note_on_c, 0, 48, 56
2, 57140, Note_on_c, 0, 58, 33
2, 57170, Note_on_c, 0, 58, 0
2, 57182, Note_on_c, 0, 48, 0
2, 57185, Note_on_c, 0, 68, 52
2, 57188, Note_on_c, 0, 60, 45
2, 57189, Note_on_c, 0, 63, 48
2, 57213, Note_on_c, 0, 60, 0
2, 57217, Note_on_c, 0, 68, 0
2, 57228, Note_on_c, 0, 63, 0
2, 57248, Note_on_c, 0, 51, 31
2, 57248, Note_on_c, 0, 41, 45
2, 57251, Control_c, 0, 64, 0
2, 57270, Note_on_c, 0, 51, 0
2, 57281, Control_c, 0, 64, 127
2, 57298, Note_on_c, 0, 67, 36
2, 57300, Note_on_c, 0, 57, 43
2, 57301, Note_on_c, 0, 51, 36
2, 57303, Note_on_c, 0, 62, 36
2, 57303, Note_on_c, 0, 63, 25
2, 57314, Note_on_c, 0, 57, 0
2, 57321, Note_on_c, 0, 41, 0
2, 57324, Note_on_c, 0, 62, 0
2, 57325, Note_on_c, 0, 63, 0
2, 57327, Note_on_c, 0, 67, 0
2, 57329, Note_on_c, 0, 51, 0
2, 57364, Note_on_c, 0, 79, 80
2, 57404, Note_on_c, 0, 79, 0
2, 57425, Note_on_c, 0, 79, 44
2, 57426, Note_on_c, 0, 67, 48
2, 57427, Note_on_c, 0, 74, 57
2, 57428, Note_on_c, 0, 69, 46
2, 57429, Note_on_c, 0, 62, 39
2, 57431, Note_on_c, 0, 63, 33
2, 57442, Control_c, 0, 64, 0
2, 57462, Control_c, 0, 64, 127
2, 57480, Note_on_c, 0, 79, 0
2, 57482, Note_on_c, 0, 69, 0
2, 57493, Note_on_c, 0, 79, 68
2, 57496, Note_on_c, 0, 67, 0
2, 57508, Note_on_c, 0, 63, 0
2, 57512, Note_on_c, 0, 62, 0
2, 57514, Note_on_c, 0, 74, 0
2, 57524, Note_on_c, 0, 79, 0
2, 57551, Note_on_c, 0, 75, 44
2, 57553, Note_on_c, 0, 64, 39
2, 57562, Note_on_c, 0, 64, 0
2, 57592, Note_on_c, 0, 75, 0
2, 57612, Control_c, 0, 64, 0
2, 57614, Note_on_c, 0, 74, 24
2, 57614, Note_on_c, 0, 69, 39
2, 57616, Note_on_c, 0, 63, 52
2, 57622, Note_on_c, 0, 53, 41
2, 57650, Control_c, 0, 64, 127
2, 57670, Note_on_c, 0, 53, 0
2, 57685, Note_on_c, 0, 63, 0
2, 57723, Note_on_c, 0, 69, 0
2, 57732, Note_on_c, 0, 74, 0
2, 57802, Note_on_c, 0, 63, 37
2, 57802, Note_on_c, 0, 67, 34
2, 57802, Note_on_c, 0, 57, 40
2, 57865, Note_on_c, 0, 67, 0
2, 57892, Note_on_c, 0, 63, 0
2, 57902, Note_on_c, 0, 57, 0
2, 57920, Note_on_c, 0, 72, 81
2, 57938, Note_on_c, 0, 72, 0
2, 57984, Note_on_c, 0, 66, 58
2, 57985, Note_on_c, 0, 54, 31
2, 57992, Note_on_c, 0, 51, 36
2, 57993, Note_on_c, 0, 47, 41
2, 57995, Control_c, 0, 64, 0
2, 58014, Note_on_c, 0, 57, 1
2, 58039, Control_c, 0, 64, 127
2, 58058, Note_on_c, 0, 57, 0
2, 58073, Note_on_c, 0, 66, 0
2, 58084, Note_on_c, 0, 54, 0
2, 58105, Note_on_c, 0, 66, 46
2, 58108, Note_on_c, 0, 61, 43
2, 58109, Note_on_c, 0, 57, 46
2, 58111, Note_on_c, 0, 63, 37
2, 58149, Note_on_c, 0, 57, 0
2, 58150, Note_on_c, 0, 61, 0
2, 58156, Note_on_c, 0, 63, 0
2, 58158, Note_on_c, 0, 66, 0
2, 58180, Note_on_c, 0, 66, 35
2, 58183, Note_on_c, 0, 54, 23
2, 58185, Note_on_c, 0, 61, 36
2, 58185, Control_c, 0, 64, 0
2, 58186, Note_on_c, 0, 57, 33
2, 58187, Note_on_c, 0, 63, 25
2, 58212, Note_on_c, 0, 57, 0
2, 58212, Control_c, 0, 64, 127
2, 58216, Note_on_c, 0, 61, 0
2, 58218, Note_on_c, 0, 66, 0
2, 58219, Note_on_c, 0, 63, 0
2, 58228, Note_on_c, 0, 47, 0
2, 58242, Note_on_c, 0, 66, 34
2, 58244, Note_on_c, 0, 57, 47
2, 58245, Note_on_c, 0, 61, 35
2, 58253, Note_on_c, 0, 63, 19
2, 58267, Note_on_c, 0, 57, 0
2, 58279, Note_on_c, 0, 66, 0
2, 58280, Note_on_c, 0, 63, 0
2, 58295, Note_on_c, 0, 47, 42
2, 58297, Note_on_c, 0, 61, 0
2, 58318, Note_on_c, 0, 54, 0
2, 58320, Note_on_c, 0, 47, 0
2, 58353, Note_on_c, 0, 51, 0
2, 58363, Note_on_c, 0, 56, 39
2, 58364, Note_on_c, 0, 63, 36
2, 58366, Control_c, 0, 64, 0
2, 58366, Note_on_c, 0, 53, 33
2, 58366, Note_on_c, 0, 60, 48
2, 58367, Note_on_c, 0, 67, 41
2, 58367, Note_on_c, 0, 46, 34
2, 58410, Control_c, 0, 64, 127
2, 58458, Note_on_c, 0, 56, 0
2, 58477, Note_on_c, 0, 60, 0
2, 58482, Note_on_c, 0, 53, 0
2, 58498, Note_on_c, 0, 63, 0
2, 58522, Note_on_c, 0, 67, 0
2, 58554, Note_on_c, 0, 56, 32
2, 58554, Note_on_c, 0, 63, 31
2, 58556, Note_on_c, 0, 53, 26
2, 58557, Note_on_c, 0, 60, 43
2, 58566, Note_on_c, 0, 60, 0
2, 58571, Note_on_c, 0, 56, 0
2, 58582, Note_on_c, 0, 63, 0
2, 58613, Note_on_c, 0, 53, 0
2, 58619, Note_on_c, 0, 46, 0
2, 58654, Note_on_c, 0, 72, 65
2, 58680, Note_on_c, 0, 72, 0
2, 58693, Note_on_c, 0, 73, 71
2, 58716, Note_on_c, 0, 73, 0
2, 58735, Note_on_c, 0, 69, 47
2, 58740, Note_on_c, 0, 61, 35
2, 58745, Note_on_c, 0, 65, 26
2, 58748, Note_on_c, 0, 60, 26
2, 58749, Control_c, 0, 64, 0
2, 58762, Note_on_c, 0, 69, 0
2, 58778, Note_on_c, 0, 72, 66
2, 58803, Note_on_c, 0, 72, 0
2, 58818, Note_on_c, 0, 69, 41
2, 58829, Note_on_c, 0, 65, 0
2, 58845, Note_on_c, 0, 69, 0
2, 58847, Control_c, 0, 64, 127
2, 58855, Note_on_c, 0, 70, 65
2, 58873, Note_on_c, 0, 60, 0
2, 58880, Note_on_c, 0, 70, 0
2, 58892, Note_on_c, 0, 72, 66
2, 58923, Note_on_c, 0, 65, 38
2, 58923, Control_c, 0, 64, 0
2, 58924, Note_on_c, 0, 57, 46
2, 58931, Note_on_c, 0, 73, 64
2, 58936, Note_on_c, 0, 72, 0
2, 58960, Control_c, 0, 64, 127
2, 58961, Note_on_c, 0, 73, 0
2, 58970, Note_on_c, 0, 75, 54
2, 58977, Note_on_c, 0, 65, 0
2, 58982, Note_on_c, 0, 75, 0
2, 59004, Note_on_c, 0, 77, 39
2, 59018, Note_on_c, 0, 77, 0
2, 59035, Note_on_c, 0, 82, 64
2, 59040, Note_on_c, 0, 61, 0
2, 59064, Note_on_c, 0, 82, 0
2, 59066, Note_on_c, 0, 79, 60
2, 59089, Note_on_c, 0, 79, 0
2, 59095, Note_on_c, 0, 80, 69
2, 59101, Note_on_c, 0, 61, 45
2, 59106, Note_on_c, 0, 65, 30
2, 59109, Control_c, 0, 64, 0
2, 59128, Note_on_c, 0, 80, 0
2, 59129, Note_on_c, 0, 82, 59
2, 59144, Note_on_c, 0, 82, 0
2, 59144, Control_c, 0, 64, 127
2, 59152, Note_on_c, 0, 84, 65
2, 59174, Note_on_c, 0, 84, 0
2, 59179, Note_on_c, 0, 65, 0
2, 59180, Note_on_c, 0, 85, 60
2, 59196, Note_on_c, 0, 85, 0
2, 59209, Note_on_c, 0, 87, 33
2, 59215, Note_on_c, 0, 87, 0
2, 59222, Note_on_c, 0, 57, 0
2, 59226, Note_on_c, 0, 88, 54
2, 59241, Note_on_c, 0, 88, 0
2, 59254, Note_on_c, 0, 90, 62
2, 59268, Note_on_c, 0, 90, 0
2, 59284, Note_on_c, 0, 91, 63
2, 59291, Note_on_c, 0, 56, 42
2, 59292, Note_on_c, 0, 65, 44
2, 59294, Control_c, 0, 64, 0
2, 59303, Note_on_c, 0, 91, 0
2, 59306, Note_on_c, 0, 65, 0
2, 59316, Note_on_c, 0, 93, 68
2, 59323, Note_on_c, 0, 61, 0
2, 59324, Control_c, 0, 64, 127
2, 59327, Note_on_c, 0, 56, 0
2, 59334, Note_on_c, 0, 93, 0
2, 59345, Note_on_c, 0, 94, 62
2, 59363, Note_on_c, 0, 94, 0
2, 59374, Note_on_c, 0, 95, 57
2, 59395, Note_on_c, 0, 95, 0
2, 59400, Note_on_c, 0, 96, 52
2, 59423, Note_on_c, 0, 96, 0
2, 59436, Note_on_c, 0, 98, 37
2, 59468, Note_on_c, 0, 98, 0
2, 59473, Control_c, 0, 64, 0
2, 59474, Note_on_c, 0, 99, 67
2, 59476, Note_on_c, 0, 46, 45
2, 59477, Note_on_c, 0, 39, 47
2, 59490, Note_on_c, 0, 99, 0
2, 59499, Control_c, 0, 64, 127
2, 59515, Note_on_c, 0, 39, 0
2, 59535, Note_on_c, 0, 46, 0
2, 59664, Note_on_c, 0, 67, 33
2, 59665, Note_on_c, 0, 61, 36
2, 59666, Note_on_c, 0, 64, 33
2, 59668, Note_on_c, 0, 59, 36
2, 59669, Control_c, 0, 64, 0
2, 59671, Note_on_c, 0, 55, 36
2, 59699, Control_c, 0, 64, 127
2, 59758, Note_on_c, 0, 64, 0
2, 59766, Note_on_c, 0, 67, 0
2, 59775, Note_on_c, 0, 61, 0
2, 59778, Note_on_c, 0, 55, 0
2, 59778, Note_on_c, 0, 59, 0
2, 59858, Note_on_c, 0, 61, 30
2, 59858, Note_on_c, 0, 64, 34
2, 59863, Note_on_c, 0, 52, 29
2, 59864, Control_c, 0, 64, 0
2, 59865, Note_on_c, 0, 45, 29
2, 59867, Note_on_c, 0, 59, 24
2, 59903, Control_c, 0, 64, 127
2, 59937, Note_on_c, 0, 52, 0
2, 59962, Note_on_c, 0, 59, 0
2, 59969, Note_on_c, 0, 61, 0
2, 60052, Note_on_c, 0, 59, 35
2, 60052, Note_on_c, 0, 61, 23
2, 60054, Note_on_c, 0, 55, 26
2, 60054, Note_on_c, 0, 52, 33
2, 60074, Note_on_c, 0, 45, 0
2, 60165, Note_on_c, 0, 59, 0
2, 60175, Note_on_c, 0, 64, 0
2, 60177, Note_on_c, 0, 55, 0
2, 60177, Note_on_c, 0, 45, 36
2, 60180, Note_on_c, 0, 52, 0
2, 60195, Note_on_c, 0, 61, 0
2, 60201, Note_on_c, 0, 45, 0
2, 60240, Control_c, 0, 64, 0
2, 60249, Note_on_c, 0, 63, 38
2, 60250, Note_on_c, 0, 51, 31
2, 60254, Note_on_c, 0, 58, 30
2, 60255, Note_on_c, 0, 55, 29
2, 60258, Note_on_c, 0, 44, 20
2, 60267, Control_c, 0, 64, 127
2, 60276, Note_on_c, 0, 55, 0
2, 60283, Note_on_c, 0, 44, 0
2, 60285, Note_on_c, 0, 58, 0
2, 60289, Note_on_c, 0, 51, 0
2, 60294, Note_on_c, 0, 63, 0
2, 60371, Control_c, 0, 64, 0
2, 60375, Note_on_c, 0, 67, 57
2, 60377, Note_on_c, 0, 58, 53
2, 60377, Note_on_c, 0, 64, 49
2, 60378, Note_on_c, 0, 61, 53
2, 60378, Note_on_c, 0, 52, 55
2, 60386, Control_c, 0, 64, 127
2, 60398, Note_on_c, 0, 67, 0
2, 60399, Note_on_c, 0, 64, 0
2, 60402, Note_on_c, 0, 61, 0
2, 60403, Note_on_c, 0, 58, 0
2, 60411, Note_on_c, 0, 52, 0
2, 60432, Note_on_c, 0, 51, 35
2, 60444, Note_on_c, 0, 54, 56
2, 60448, Note_on_c, 0, 51, 0
2, 60450, Note_on_c, 0, 70, 64
2, 60451, Note_on_c, 0, 61, 60
2, 60452, Note_on_c, 0, 55, 77
2, 60452, Note_on_c, 0, 67, 61
2, 60453, Note_on_c, 0, 64, 66
2, 60454, Note_on_c, 0, 54, 0
2, 60457, Control_c, 0, 64, 0
2, 60497, Control_c, 0, 64, 127
2, 60524, Note_on_c, 0, 64, 0
2, 60535, Note_on_c, 0, 67, 0
2, 60548, Note_on_c, 0, 55, 0
2, 60552, Note_on_c, 0, 70, 0
2, 60553, Note_on_c, 0, 61, 0
2, 60573, Note_on_c, 0, 68, 49
2, 60577, Note_on_c, 0, 63, 45
2, 60578, Note_on_c, 0, 60, 44
2, 60582, Note_on_c, 0, 53, 38
2, 60583, Note_on_c, 0, 63, 0
2, 60588, Note_on_c, 0, 60, 0
2, 60590, Note_on_c, 0, 68, 0
2, 60609, Note_on_c, 0, 53, 0
2, 60652, Note_on_c, 0, 63, 36
2, 60654, Note_on_c, 0, 67, 32
2, 60655, Note_on_c, 0, 60, 46
2, 60655, Note_on_c, 0, 55, 36
2, 60658, Control_c, 0, 64, 0
2, 60658, Note_on_c, 0, 44, 36
2, 60701, Control_c, 0, 64, 127
2, 60716, Note_on_c, 0, 51, 31
2, 60724, Note_on_c, 0, 60, 0
2, 60737, Note_on_c, 0, 55, 0
2, 60743, Note_on_c, 0, 63, 0
2, 60831, Note_on_c, 0, 51, 0
2, 60846, Note_on_c, 0, 64, 33
2, 60849, Note_on_c, 0, 52, 40
2, 60851, Note_on_c, 0, 60, 33
2, 60853, Note_on_c, 0, 55, 32
2, 60854, Control_c, 0, 64, 0
2, 60880, Note_on_c, 0, 65, 1
2, 60885, Note_on_c, 0, 64, 0
2, 60890, Control_c, 0, 64, 127
2, 60914, Note_on_c, 0, 55, 0
2, 60918, Note_on_c, 0, 52, 0
2, 60924, Note_on_c, 0, 60, 0
2, 60954, Note_on_c, 0, 67, 0
2, 60954, Note_on_c, 0, 65, 0
2, 60968, Note_on_c, 0, 63, 34
2, 60973, Note_on_c, 0, 55, 43
2, 60975, Note_on_c, 0, 53, 36
2, 60983, Note_on_c, 0, 44, 0
2, 60993, Note_on_c, 0, 55, 0
2, 61000, Note_on_c, 0, 53, 0
2, 61015, Note_on_c, 0, 63, 0
2, 61119, Note_on_c, 0, 66, 39
2, 61120, Note_on_c, 0, 59, 40
2, 61120, Note_on_c, 0, 63, 49
2, 61121, Note_on_c, 0, 49, 37
2, 61129, Control_c, 0, 64, 0
2, 61164, Control_c, 0, 64, 127
2, 61186, Note_on_c, 0, 66, 0
2, 61198, Note_on_c, 0, 59, 0
2, 61205, Note_on_c, 0, 63, 0
2, 61228, Note_on_c, 0, 58, 44
2, 61231, Note_on_c, 0, 66, 47
2, 61237, Note_on_c, 0, 59, 27
2, 61244, Note_on_c, 0, 59, 0
2, 61255, Note_on_c, 0, 66, 0
2, 61281, Note_on_c, 0, 58, 0
2, 61303, Note_on_c, 0, 61, 87
2, 61422, Note_on_c, 0, 66, 48
2, 61423, Note_on_c, 0, 63, 49
2, 61464, Note_on_c, 0, 61, 0
2, 61492, Note_on_c, 0, 59, 65
2, 61511, Control_c, 0, 64, 0
2, 61544, Control_c, 0, 64, 127
2, 61580, Note_on_c, 0, 59, 0
2, 61614, Note_on_c, 0, 63, 0
2, 61614, Note_on_c, 0, 66, 0
2, 61627, Note_on_c, 0, 66, 35
2, 61630, Note_on_c, 0, 63, 34
2, 61632, Note_on_c, 0, 59, 36
2, 61691, Note_on_c, 0, 58, 45
2, 61694, Note_on_c, 0, 49, 0
2, 61719, Note_on_c, 0, 58, 0
2, 61743, Note_on_c, 0, 59, 0
2, 61754, Note_on_c, 0, 49, 45
2, 61762, Note_on_c, 0, 63, 0
2, 61764, Note_on_c, 0, 66, 0
2, 61773, Note_on_c, 0, 49, 0
2, 61822, Note_on_c, 0, 39, 36
2, 61824, Note_on_c, 0, 46, 40
2, 61825, Control_c, 0, 64, 0
2, 61825, Note_on_c, 0, 62, 48
2, 61828, Note_on_c, 0, 55, 47
2, 61829, Note_on_c, 0, 58, 40
2, 61857, Control_c, 0, 64, 127
2, 61860, Note_on_c, 0, 39, 0
2, 61868, Note_on_c, 0, 46, 0
2, 61880, Note_on_c, 0, 55, 0
2, 61920, Note_on_c, 0, 58, 0
2, 61932, Note_on_c, 0, 62, 0
2, 61971, Note_on_c, 0, 48, 64
2, 61979, Note_on_c, 0, 65, 81
2, 61980, Note_on_c, 0, 56, 90
2, 61981, Note_on_c, 0, 48, 0
2, 61981, Note_on_c, 0, 59, 84
2, 61982, Note_on_c, 0, 62, 75
2, 61983, Note_on_c, 0, 49, 67
2, 61985, Note_on_c, 0, 50, 84
2, 61989, Control_c, 0, 64, 0
2, 62000, Note_on_c, 0, 49, 0
2, 62035, Control_c, 0, 64, 127
2, 62093, Note_on_c, 0, 62, 0
2, 62110, Note_on_c, 0, 56, 0
2, 62113, Control_c, 0, 64, 0
2, 62115, Note_on_c, 0, 59, 0
2, 62126, Note_on_c, 0, 65, 0
2, 62128, Note_on_c, 0, 50, 0
2, 62128, Control_c, 0, 64, 127
2, 62131, Note_on_c, 0, 62, 46
2, 62132, Note_on_c, 0, 56, 29
2, 62133, Note_on_c, 0, 47, 46
2, 62152, Note_on_c, 0, 56, 0
2, 62164, Control_c, 0, 64, 0
2, 62173, Note_on_c, 0, 62, 0
2, 62174, Note_on_c, 0, 47, 0
2, 62182, Control_c, 0, 64, 127
2, 62183, Note_on_c, 0, 48, 53
2, 62184, Note_on_c, 0, 56, 46
2, 62184, Note_on_c, 0, 63, 53
2, 62216, Note_on_c, 0, 56, 0
2, 62226, Note_on_c, 0, 63, 0
2, 62236, Note_on_c, 0, 48, 0
2, 62241, Note_on_c, 0, 65, 30
2, 62241, Control_c, 0, 64, 0
2, 62246, Note_on_c, 0, 62, 45
2, 62247, Note_on_c, 0, 50, 47
2, 62247, Note_on_c, 0, 56, 33
2, 62251, Note_on_c, 0, 59, 43
2, 62286, Control_c, 0, 64, 127
2, 62398, Note_on_c, 0, 62, 0
2, 62407, Note_on_c, 0, 59, 0
2, 62411, Note_on_c, 0, 56, 0
2, 62415, Note_on_c, 0, 50, 0
2, 62435, Note_on_c, 0, 65, 0
2, 62445, Note_on_c, 0, 62, 46
2, 62448, Note_on_c, 0, 56, 28
2, 62452, Note_on_c, 0, 50, 33
2, 62473, Note_on_c, 0, 50, 0
2, 62478, Note_on_c, 0, 62, 0
2, 62488, Note_on_c, 0, 63, 55
2, 62504, Note_on_c, 0, 56, 0
2, 62516, Note_on_c, 0, 63, 0
2, 62532, Note_on_c, 0, 65, 57
2, 62541, Note_on_c, 0, 65, 0
2, 62577, Note_on_c, 0, 72, 73
2, 62608, Note_on_c, 0, 72, 0
2, 62625, Control_c, 0, 64, 0
2, 62628, Note_on_c, 0, 46, 46
2, 62628, Note_on_c, 0, 56, 33
2, 62628, Note_on_c, 0, 70, 51
2, 62634, Note_on_c, 0, 65, 22
2, 62651, Note_on_c, 0, 65, 0
2, 62653, Control_c, 0, 64, 127
2, 62664, Note_on_c, 0, 70, 0
2, 62675, Note_on_c, 0, 46, 0
2, 62676, Note_on_c, 0, 56, 0
2, 62692, Note_on_c, 0, 84, 89
2, 62719, Note_on_c, 0, 84, 0
2, 62750, Note_on_c, 0, 82, 70
2, 62790, Note_on_c, 0, 82, 0
2, 62818, Note_on_c, 0, 96, 90
2, 62831, Note_on_c, 0, 61, 43
2, 62832, Note_on_c, 0, 65, 40
2, 62836, Note_on_c, 0, 60, 35
2, 62866, Note_on_c, 0, 60, 0
2, 62873, Note_on_c, 0, 96, 0
2, 62878, Note_on_c, 0, 65, 0
2, 62891, Note_on_c, 0, 94, 77
2, 62893, Note_on_c, 0, 65, 38
2, 62894, Note_on_c, 0, 57, 57
2, 62931, Note_on_c, 0, 65, 0
2, 62937, Note_on_c, 0, 57, 0
2, 62944, Note_on_c, 0, 94, 0
2, 62949, Note_on_c, 0, 65, 47
2, 62950, Note_on_c, 0, 56, 53
2, 62954, Note_on_c, 0, 89, 67
2, 62973, Note_on_c, 0, 89, 0
2, 62986, Note_on_c, 0, 65, 0
2, 62997, Note_on_c, 0, 56, 0
2, 63005, Note_on_c, 0, 61, 0
2, 63015, Note_on_c, 0, 55, 47
2, 63016, Control_c, 0, 64, 0
2, 63018, Note_on_c, 0, 61, 31
2, 63021, Note_on_c, 0, 87, 45
2, 63021, Note_on_c, 0, 65, 44
2, 63042, Note_on_c, 0, 65, 0
2, 63046, Control_c, 0, 64, 127
2, 63056, Note_on_c, 0, 61, 0
2, 63057, Note_on_c, 0, 55, 0
2, 63080, Note_on_c, 0, 87, 0
2, 63099, Note_on_c, 0, 46, 60
2, 63100, Note_on_c, 0, 39, 55
2, 63142, Note_on_c, 0, 39, 0
2, 63150, Note_on_c, 0, 46, 0
2, 63225, Note_on_c, 0, 61, 54
2, 63227, Note_on_c, 0, 88, 84
2, 63228, Note_on_c, 0, 64, 54
2, 63228, Note_on_c, 0, 55, 59
2, 63229, Control_c, 0, 64, 0
2, 63229, Note_on_c, 0, 84, 83
2, 63247, Control_c, 0, 64, 127
2, 63258, Note_on_c, 0, 84, 0
2, 63258, Note_on_c, 0, 88, 0
2, 63279, Note_on_c, 0, 64, 0
2, 63285, Note_on_c, 0, 61, 0
2, 63290, Note_on_c, 0, 55, 0
2, 63297, Note_on_c, 0, 79, 57
2, 63298, Note_on_c, 0, 82, 65
2, 63318, Note_on_c, 0, 82, 0
2, 63321, Note_on_c, 0, 79, 0
2, 63356, Note_on_c, 0, 79, 44
2, 63358, Note_on_c, 0, 55, 31
2, 63366, Note_on_c, 0, 79, 0
2, 63393, Note_on_c, 0, 52, 59
2, 63395, Note_on_c, 0, 55, 0
2, 63407, Note_on_c, 0, 52, 0
2, 63437, Control_c, 0, 64, 0
2, 63438, Note_on_c, 0, 44, 60
2, 63438, Note_on_c, 0, 55, 51
2, 63438, Note_on_c, 0, 79, 36
2, 63440, Note_on_c, 0, 77, 38
2, 63441, Note_on_c, 0, 67, 26
2, 63442, Note_on_c, 0, 65, 24
2, 63442, Note_on_c, 0, 71, 35
2, 63447, Note_on_c, 0, 51, 31
2, 63460, Note_on_c, 0, 71, 0
2, 63476, Note_on_c, 0, 65, 0
2, 63477, Control_c, 0, 64, 127
2, 63505, Note_on_c, 0, 44, 0
2, 63512, Note_on_c, 0, 51, 0
2, 63517, Note_on_c, 0, 55, 0
2, 63526, Note_on_c, 0, 67, 0
2, 63526, Note_on_c, 0, 79, 0
2, 63527, Note_on_c, 0, 77, 0
2, 63582, Note_on_c, 0, 67, 62
2, 63585, Note_on_c, 0, 63, 46
2, 63586, Note_on_c, 0, 60, 60
2, 63605, Note_on_c, 0, 58, 20
2, 63616, Note_on_c, 0, 60, 0
2, 63625, Note_on_c, 0, 63, 0
2, 63634, Note_on_c, 0, 67, 0
2, 63645, Note_on_c, 0, 58, 0
2, 63650, Note_on_c, 0, 63, 72
2, 63651, Note_on_c, 0, 67, 70
2, 63651, Note_on_c, 0, 70, 77
2, 63653, Note_on_c, 0, 60, 67
2, 63660, Control_c, 0, 64, 0
2, 63665, Note_on_c, 0, 58, 25
2, 63703, Note_on_c, 0, 70, 0
2, 63704, Control_c, 0, 64, 127
2, 63705, Note_on_c, 0, 58, 0
2, 63710, Note_on_c, 0, 60, 0
2, 63718, Note_on_c, 0, 58, 44
2, 63719, Note_on_c, 0, 70, 53
2, 63726, Note_on_c, 0, 60, 69
2, 63756, Note_on_c, 0, 60, 0
2, 63762, Note_on_c, 0, 63, 0
2, 63762, Note_on_c, 0, 67, 0
2, 63767, Note_on_c, 0, 58, 0
2, 63767, Note_on_c, 0, 70, 0
2, 63788, Note_on_c, 0, 63, 34
2, 63792, Note_on_c, 0, 56, 43
2, 63794, Note_on_c, 0, 60, 51
2, 63804, Note_on_c, 0, 60, 0
2, 63804, Note_on_c, 0, 56, 0
2, 63806, Note_on_c, 0, 63, 0
2, 63867, Note_on_c, 0, 63, 32
2, 63870, Note_on_c, 0, 51, 33
2, 63870, Note_on_c, 0, 67, 31
2, 63872, Control_c, 0, 64, 0
2, 63872, Note_on_c, 0, 44, 23
2, 63873, Note_on_c, 0, 60, 29
2, 63873, Note_on_c, 0, 55, 39
2, 63914, Control_c, 0, 64, 127
2, 63941, Note_on_c, 0, 55, 0
2, 63995, Note_on_c, 0, 60, 0
2, 63998, Note_on_c, 0, 51, 0
2, 64010, Note_on_c, 0, 63, 0
2, 64058, Note_on_c, 0, 67, 0
2, 64068, Note_on_c, 0, 63, 45
2, 64073, Note_on_c, 0, 51, 34
2, 64088, Note_on_c, 0, 63, 0
2, 64122, Note_on_c, 0, 63, 49
2, 64131, Note_on_c, 0, 63, 0
2, 64138, Control_c, 0, 64, 0
2, 64140, Note_on_c, 0, 65, 41
2, 64146, Note_on_c, 0, 51, 0
2, 64155, Note_on_c, 0, 63, 43
2, 64160, Note_on_c, 0, 65, 0
2, 64160, Note_on_c, 0, 44, 0
2, 64178, Note_on_c, 0, 63, 0
2, 64184, Note_on_c, 0, 62, 25
2, 64194, Note_on_c, 0, 62, 0
2, 64194, Note_on_c, 0, 63, 51
2, 64199, Control_c, 0, 64, 127
2, 64215, Note_on_c, 0, 63, 0
2, 64220, Note_on_c, 0, 64, 34
2, 64232, Note_on_c, 0, 64, 0
2, 64240, Note_on_c, 0, 65, 49
2, 64261, Note_on_c, 0, 65, 0
2, 64267, Control_c, 0, 64, 0
2, 64268, Note_on_c, 0, 44, 32
2, 64269, Note_on_c, 0, 66, 64
2, 64269, Note_on_c, 0, 37, 45
2, 64298, Note_on_c, 0, 37, 0
2, 64312, Control_c, 0, 64, 127
2, 64317, Note_on_c, 0, 44, 0
2, 64336, Note_on_c, 0, 66, 0
2, 64347, Note_on_c, 0, 66, 49
2, 64348, Note_on_c, 0, 59, 57
2, 64370, Note_on_c, 0, 59, 0
2, 64404, Note_on_c, 0, 66, 0
2, 64482, Note_on_c, 0, 66, 46
2, 64483, Note_on_c, 0, 58, 57
2, 64484, Note_on_c, 0, 63, 46
2, 64485, Note_on_c, 0, 59, 40
2, 64546, Note_on_c, 0, 59, 0
2, 64548, Note_on_c, 0, 66, 0
2, 64557, Note_on_c, 0, 58, 0
2, 64558, Note_on_c, 0, 66, 31
2, 64597, Note_on_c, 0, 66, 0
2, 64598, Note_on_c, 0, 63, 0
2, 64622, Note_on_c, 0, 58, 57
2, 64699, Note_on_c, 0, 58, 0
2, 64748, Note_on_c, 0, 66, 48
2, 64750, Note_on_c, 0, 63, 45
2, 64754, Note_on_c, 0, 59, 37
2, 64754, Control_c, 0, 64, 0
2, 64755, Note_on_c, 0, 49, 38
2, 64778, Control_c, 0, 64, 127
2, 64816, Note_on_c, 0, 49, 0
2, 64836, Note_on_c, 0, 49, 60
2, 64884, Note_on_c, 0, 59, 0
2, 64892, Note_on_c, 0, 63, 0
2, 64898, Note_on_c, 0, 66, 0
2, 64920, Note_on_c, 0, 49, 0
2, 64975, Note_on_c, 0, 49, 59
2, 65000, Note_on_c, 0, 49, 0
2, 65033, Note_on_c, 0, 44, 59
2, 65062, Note_on_c, 0, 44, 0
2, 65098, Note_on_c, 0, 70, 60
2, 65100, Control_c, 0, 64, 0
2, 65100, Note_on_c, 0, 63, 67
2, 65101, Note_on_c, 0, 67, 58
2, 65102, Note_on_c, 0, 53, 61
2, 65102, Note_on_c, 0, 43, 50
2, 65103, Note_on_c, 0, 59, 70
2, 65142, Control_c, 0, 64, 127
2, 65194, Note_on_c, 0, 43, 0
2, 65196, Note_on_c, 0, 59, 0
2, 65205, Note_on_c, 0, 70, 0
2, 65207, Note_on_c, 0, 53, 0
2, 65213, Note_on_c, 0, 67, 0
2, 65217, Note_on_c, 0, 63, 0
2, 65246, Note_on_c, 0, 70, 67
2, 65272, Note_on_c, 0, 70, 0
2, 65320, Note_on_c, 0, 70, 49
2, 65323, Note_on_c, 0, 63, 35
2, 65324, Note_on_c, 0, 67, 41
2, 65327, Note_on_c, 0, 59, 25
2, 65327, Note_on_c, 0, 53, 34
2, 65368, Note_on_c, 0, 70, 0
2, 65394, Note_on_c, 0, 59, 0
2, 65404, Note_on_c, 0, 53, 0
2, 65412, Note_on_c, 0, 67, 0
2, 65418, Note_on_c, 0, 63, 0
2, 65459, Note_on_c, 0, 70, 50
2, 65472, Note_on_c, 0, 70, 0
2, 65533, Note_on_c, 0, 75, 59
2, 65534, Note_on_c, 0, 70, 48
2, 65535, Note_on_c, 0, 63, 40
2, 65536, Control_c, 0, 64, 0
2, 65537, Note_on_c, 0, 67, 36
2, 65538, Note_on_c, 0, 64, 35
2, 65576, Control_c, 0, 64, 127
2, 65624, Note_on_c, 0, 64, 0
2, 65624, Note_on_c, 0, 67, 0
2, 65628, Note_on_c, 0, 63, 0
2, 65630, Note_on_c, 0, 70, 0
2, 65638, Note_on_c, 0, 75, 0
2, 65657, Control_c, 0, 64, 0
2, 65679, Control_c, 0, 64, 127
2, 65745, Control_c, 0, 64, 0
2, 65746, Note_on_c, 0, 70, 55
2, 65746, Note_on_c, 0, 75, 57
2, 65746, Note_on_c, 0, 63, 39
2, 65749, Note_on_c, 0, 67, 35
2, 65751, Note_on_c, 0, 64, 33
2, 65769, Control_c, 0, 64, 127
2, 65809, Note_on_c, 0, 75, 0
2, 65810, Note_on_c, 0, 64, 0
2, 65823, Note_on_c, 0, 73, 55
2, 65824, Note_on_c, 0, 63, 0
2, 65824, Note_on_c, 0, 64, 24
2, 65832, Note_on_c, 0, 61, 39
2, 65858, Note_on_c, 0, 61, 0
2, 65864, Note_on_c, 0, 67, 0
2, 65868, Note_on_c, 0, 73, 0
2, 65874, Note_on_c, 0, 70, 0
2, 65886, Note_on_c, 0, 64, 0
2, 65957, Note_on_c, 0, 70, 52
2, 65960, Note_on_c, 0, 63, 42
2, 65960, Note_on_c, 0, 67, 43
2, 65962, Note_on_c, 0, 58, 30
2, 65965, Note_on_c, 0, 60, 33
2, 65966, Control_c, 0, 64, 0
2, 65990, Control_c, 0, 64, 127
2, 66013, Note_on_c, 0, 60, 0
2, 66014, Note_on_c, 0, 67, 0
2, 66016, Note_on_c, 0, 63, 0
2, 66026, Note_on_c, 0, 70, 0
2, 66036, Note_on_c, 0, 68, 48
2, 66038, Note_on_c, 0, 58, 0
2, 66038, Note_on_c, 0, 63, 28
2, 66039, Note_on_c, 0, 60, 32
2, 66041, Note_on_c, 0, 56, 34
2, 66090, Note_on_c, 0, 68, 0
2, 66091, Note_on_c, 0, 56, 0
2, 66098, Note_on_c, 0, 63, 0
2, 66105, Note_on_c, 0, 60, 0
2, 66165, Note_on_c, 0, 67, 30
2, 66165, Note_on_c, 0, 63, 34
2, 66166, Control_c, 0, 64, 0
2, 66168, Note_on_c, 0, 60, 38
2, 66169, Note_on_c, 0, 56, 25
2, 66170, Note_on_c, 0, 55, 36
2, 66188, Control_c, 0, 64, 127
2, 66201, Note_on_c, 0, 63, 0
2, 66207, Note_on_c, 0, 60, 0
2, 66211, Note_on_c, 0, 56, 0
2, 66227, Note_on_c, 0, 67, 0
2, 66232, Note_on_c, 0, 55, 0
2, 66236, Note_on_c, 0, 63, 39
2, 66240, Note_on_c, 0, 56, 29
2, 66245, Note_on_c, 0, 60, 32
2, 66249, Note_on_c, 0, 51, 20
2, 66264, Note_on_c, 0, 51, 0
2, 66274, Note_on_c, 0, 60, 0
2, 66282, Note_on_c, 0, 56, 0
2, 66301, Note_on_c, 0, 63, 0
2, 66311, Note_on_c, 0, 34, 65
2, 66316, Control_c, 0, 64, 0
2, 66325, Note_on_c, 0, 34, 0
2, 66334, Control_c, 0, 64, 127
2, 66379, Note_on_c, 0, 67, 53
2, 66381, Control_c, 0, 64, 0
2, 66381, Note_on_c, 0, 62, 57
2, 66382, Note_on_c, 0, 59, 60
2, 66382, Note_on_c, 0, 64, 48
2, 66383, Note_on_c, 0, 56, 42
2, 66393, Control_c, 0, 64, 127
2, 66396, Note_on_c, 0, 59, 0
2, 66408, Note_on_c, 0, 62, 0
2, 66411, Note_on_c, 0, 64, 0
2, 66413, Note_on_c, 0, 67, 0
2, 66450, Note_on_c, 0, 79, 83
2, 66452, Note_on_c, 0, 56, 0
2, 66516, Note_on_c, 0, 79, 0
2, 66605, Note_on_c, 0, 66, 35
2, 66607, Note_on_c, 0, 56, 32
2, 66612, Note_on_c, 0, 62, 24
2, 66628, Note_on_c, 0, 62, 0
2, 66632, Note_on_c, 0, 66, 0
2, 66642, Note_on_c, 0, 56, 0
2, 66746, Note_on_c, 0, 91, 48
2, 66757, Note_on_c, 0, 91, 0
2, 66806, Control_c, 0, 64, 0
2, 66811, Note_on_c, 0, 98, 48
2, 66812, Note_on_c, 0, 90, 32
2, 66813, Note_on_c, 0, 39, 35
2, 66815, Note_on_c, 0, 86, 38
2, 66816, Note_on_c, 0, 93, 32
2, 66817, Note_on_c, 0, 50, 24
2, 66825, Control_c, 0, 64, 127
2, 66838, Note_on_c, 0, 98, 0
2, 66842, Note_on_c, 0, 93, 0
2, 66844, Note_on_c, 0, 90, 0
2, 66854, Note_on_c, 0, 86, 0
2, 66874, Note_on_c, 0, 50, 0
2, 66941, Note_on_c, 0, 51, 55
2, 66958, Note_on_c, 0, 51, 0
2, 66969, Note_on_c, 0, 53, 58
2, 66986, Note_on_c, 0, 53, 0
2, 66990, Note_on_c, 0, 55, 65
2, 66997, Control_c, 0, 64, 0
2, 67016, Note_on_c, 0, 55, 0
2, 67016, Note_on_c, 0, 56, 59
2, 67038, Note_on_c, 0, 56, 0
2, 67060, Note_on_c, 0, 60, 37
2, 67079, Note_on_c, 0, 60, 0
2, 67084, Note_on_c, 0, 62, 40
2, 67094, Note_on_c, 0, 62, 0
2, 67097, Note_on_c, 0, 63, 60
2, 67104, Note_on_c, 0, 63, 0
2, 67115, Note_on_c, 0, 65, 60
2, 67124, Control_c, 0, 64, 127
2, 67135, Note_on_c, 0, 65, 0
2, 67138, Note_on_c, 0, 67, 47
2, 67144, Note_on_c, 0, 39, 0
2, 67151, Note_on_c, 0, 68, 50
2, 67155, Note_on_c, 0, 67, 0
2, 67168, Note_on_c, 0, 68, 0
2, 67184, Note_on_c, 0, 72, 55
2, 67199, Note_on_c, 0, 73, 65
2, 67200, Note_on_c, 0, 72, 0
2, 67206, Note_on_c, 0, 73, 0
2, 67212, Note_on_c, 0, 74, 33
2, 67221, Note_on_c, 0, 74, 0
2, 67222, Note_on_c, 0, 75, 47
2, 67238, Note_on_c, 0, 75, 0
2, 67240, Note_on_c, 0, 76, 58
2, 67247, Note_on_c, 0, 76, 0
2, 67252, Note_on_c, 0, 77, 67
2, 67257, Control_c, 0, 64, 0
2, 67258, Note_on_c, 0, 55, 35
2, 67259, Note_on_c, 0, 62, 25
2, 67259, Note_on_c, 0, 58, 31
2, 67259, Note_on_c, 0, 51, 35
2, 67288, Note_on_c, 0, 77, 0
2, 67299, Note_on_c, 0, 74, 75
2, 67315, Note_on_c, 0, 74, 0
2, 67337, Note_on_c, 0, 62, 0
2, 67342, Note_on_c, 0, 70, 60
2, 67366, Note_on_c, 0, 70, 0
2, 67384, Note_on_c, 0, 67, 33
2, 67391, Control_c, 0, 64, 127
2, 67405, Note_on_c, 0, 67, 0
2, 67440, Note_on_c, 0, 62, 35
2, 67443, Note_on_c, 0, 74, 83
2, 67466, Note_on_c, 0, 74, 0
2, 67472, Note_on_c, 0, 62, 0
2, 67490, Note_on_c, 0, 70, 65
2, 67510, Note_on_c, 0, 51, 0
2, 67512, Note_on_c, 0, 55, 0
2, 67522, Note_on_c, 0, 70, 0
2, 67530, Note_on_c, 0, 58, 0
2, 67536, Note_on_c, 0, 67, 53
2, 67566, Note_on_c, 0, 67, 0
2, 67584, Note_on_c, 0, 62, 58
2, 67600, Note_on_c, 0, 62, 0
2, 67630, Control_c, 0, 64, 0
2, 67636, Note_on_c, 0, 63, 50
2, 67640, Note_on_c, 0, 45, 46
2, 67644, Note_on_c, 0, 55, 35
2, 67656, Control_c, 0, 64, 127
2, 67668, Note_on_c, 0, 45, 0
2, 67681, Note_on_c, 0, 63, 0
2, 67684, Note_on_c, 0, 55, 0
2, 67697, Note_on_c, 0, 74, 64
2, 67717, Note_on_c, 0, 74, 0
2, 67758, Note_on_c, 0, 86, 80
2, 67761, Note_on_c, 0, 74, 65
2, 67776, Note_on_c, 0, 74, 0
2, 67777, Note_on_c, 0, 86, 0
2, 67810, Note_on_c, 0, 86, 70
2, 67810, Note_on_c, 0, 74, 73
2, 67833, Note_on_c, 0, 74, 0
2, 67836, Note_on_c, 0, 86, 0
2, 67860, Control_c, 0, 64, 0
2, 67860, Note_on_c, 0, 62, 38
2, 67861, Note_on_c, 0, 86, 64
2, 67862, Note_on_c, 0, 67, 41
2, 67863, Note_on_c, 0, 63, 48
2, 67863, Note_on_c, 0, 74, 64
2, 67880, Note_on_c, 0, 74, 0
2, 67880, Note_on_c, 0, 86, 0
2, 67886, Control_c, 0, 64, 127
2, 67889, Note_on_c, 0, 85, 27
2, 67896, Note_on_c, 0, 85, 0
2, 67918, Note_on_c, 0, 87, 69
2, 67918, Note_on_c, 0, 75, 63
2, 67942, Note_on_c, 0, 75, 0
2, 67942, Note_on_c, 0, 87, 0
2, 67956, Note_on_c, 0, 62, 0
2, 67963, Note_on_c, 0, 67, 0
2, 67970, Note_on_c, 0, 60, 34
2, 67972, Note_on_c, 0, 86, 49
2, 67974, Note_on_c, 0, 63, 0
2, 67976, Note_on_c, 0, 74, 53
2, 67982, Note_on_c, 0, 60, 0
2, 67990, Note_on_c, 0, 86, 0
2, 67991, Note_on_c, 0, 74, 0
2, 68026, Note_on_c, 0, 84, 47
2, 68032, Note_on_c, 0, 72, 60
2, 68044, Note_on_c, 0, 84, 0
2, 68049, Note_on_c, 0, 72, 0
2, 68076, Control_c, 0, 64, 0
2, 68080, Note_on_c, 0, 60, 30
2, 68082, Note_on_c, 0, 64, 32
2, 68082, Note_on_c, 0, 54, 39
2, 68086, Note_on_c, 0, 71, 62
2, 68089, Note_on_c, 0, 83, 38
2, 68106, Control_c, 0, 64, 127
2, 68118, Note_on_c, 0, 83, 0
2, 68119, Note_on_c, 0, 71, 0
2, 68144, Note_on_c, 0, 82, 57
2, 68153, Note_on_c, 0, 70, 31
2, 68164, Note_on_c, 0, 64, 0
2, 68167, Note_on_c, 0, 60, 0
2, 68184, Note_on_c, 0, 54, 0
2, 68235, Note_on_c, 0, 82, 0
2, 68241, Note_on_c, 0, 70, 0
2, 68288, Note_on_c, 0, 80, 48
2, 68288, Note_on_c, 0, 54, 30
2, 68289, Note_on_c, 0, 60, 26
2, 68290, Note_on_c, 0, 68, 45
2, 68291, Note_on_c, 0, 50, 32
2, 68292, Control_c, 0, 64, 0
2, 68318, Control_c, 0, 64, 127
2, 68326, Note_on_c, 0, 68, 0
2, 68328, Note_on_c, 0, 80, 0
2, 68343, Note_on_c, 0, 69, 59
2, 68343, Note_on_c, 0, 81, 54
2, 68352, Note_on_c, 0, 69, 0
2, 68358, Note_on_c, 0, 60, 0
2, 68364, Note_on_c, 0, 81, 0
2, 68377, Note_on_c, 0, 54, 0
2, 68377, Note_on_c, 0, 50, 0
2, 68388, Note_on_c, 0, 84, 91
2, 68391, Note_on_c, 0, 72, 74
2, 68412, Note_on_c, 0, 84, 0
2, 68413, Note_on_c, 0, 72, 0
2, 68446, Note_on_c, 0, 69, 36
2, 68460, Note_on_c, 0, 69, 0
2, 68486, Control_c, 0, 64, 0
2, 68492, Note_on_c, 0, 43, 38
2, 68493, Note_on_c, 0, 82, 55
2, 68494, Note_on_c, 0, 70, 35
2, 68516, Control_c, 0, 64, 127
2, 68527, Note_on_c, 0, 82, 0
2, 68529, Note_on_c, 0, 70, 0
2, 68537, Note_on_c, 0, 43, 0
2, 68546, Control_c, 0, 64, 0
2, 68555, Note_on_c, 0, 80, 40
2, 68557, Note_on_c, 0, 68, 47
2, 68566, Control_c, 0, 64, 127
2, 68584, Note_on_c, 0, 80, 0
2, 68588, Note_on_c, 0, 68, 0
2, 68605, Note_on_c, 0, 79, 47
2, 68609, Note_on_c, 0, 67, 30
2, 68624, Note_on_c, 0, 79, 0
2, 68634, Note_on_c, 0, 67, 0
2, 68662, Note_on_c, 0, 77, 57
2, 68666, Note_on_c, 0, 65, 56
2, 68684, Note_on_c, 0, 77, 0
2, 68690, Note_on_c, 0, 65, 0
2, 68707, Note_on_c, 0, 53, 24
2, 68708, Note_on_c, 0, 61, 34
2, 68710, Control_c, 0, 64, 0
2, 68715, Note_on_c, 0, 76, 48
2, 68716, Note_on_c, 0, 58, 30
2, 68716, Note_on_c, 0, 55, 30
2, 68720, Note_on_c, 0, 64, 28
2, 68745, Control_c, 0, 64, 127
2, 68800, Note_on_c, 0, 61, 0
2, 68819, Note_on_c, 0, 55, 0
2, 68862, Note_on_c, 0, 58, 0
2, 68862, Note_on_c, 0, 76, 0
2, 68874, Note_on_c, 0, 73, 69
2, 68905, Note_on_c, 0, 64, 0
2, 68910, Note_on_c, 0, 73, 0
2, 68928, Control_c, 0, 64, 0
2, 68934, Note_on_c, 0, 61, 38
2, 68934, Note_on_c, 0, 72, 45
2, 68935, Note_on_c, 0, 64, 25
2, 68937, Note_on_c, 0, 70, 34
2, 68940, Note_on_c, 0, 58, 32
2, 68956, Control_c, 0, 64, 127
2, 68967, Note_on_c, 0, 53, 0
2, 68978, Note_on_c, 0, 61, 0
2, 68997, Note_on_c, 0, 58, 0
2, 69000, Note_on_c, 0, 72, 0
2, 69004, Note_on_c, 0, 70, 0
2, 69016, Note_on_c, 0, 64, 0
2, 69066, Note_on_c, 0, 43, 59
2, 69144, Note_on_c, 0, 64, 52
2, 69145, Note_on_c, 0, 53, 49
2, 69146, Note_on_c, 0, 61, 42
2, 69146, Control_c, 0, 64, 0
2, 69148, Note_on_c, 0, 58, 27
2, 69148, Note_on_c, 0, 67, 30
2, 69152, Note_on_c, 0, 53, 0
2, 69161, Note_on_c, 0, 43, 0
2, 69172, Control_c, 0, 64, 127
2, 69195, Note_on_c, 0, 67, 0
2, 69199, Note_on_c, 0, 64, 0
2, 69203, Note_on_c, 0, 58, 0
2, 69205, Note_on_c, 0, 61, 0
2, 69214, Note_on_c, 0, 43, 30
2, 69222, Note_on_c, 0, 43, 0
2, 69262, Control_c, 0, 64, 0
2, 69282, Note_on_c, 0, 37, 34
2, 69286, Control_c, 0, 64, 127
2, 69287, Note_on_c, 0, 53, 45
2, 69296, Note_on_c, 0, 25, 31
2, 69323, Note_on_c, 0, 37, 0
2, 69336, Note_on_c, 0, 53, 0
2, 69338, Note_on_c, 0, 25, 0
2, 69355, Control_c, 0, 64, 0
2, 69364, Note_on_c, 0, 52, 47
2, 69365, Note_on_c, 0, 24, 35
2, 69369, Note_on_c, 0, 36, 19
2, 69383, Control_c, 0, 64, 127
2, 69387, Note_on_c, 0, 52, 0
2, 69396, Note_on_c, 0, 24, 0
2, 69413, Note_on_c, 0, 36, 0
2, 69530, Note_on_c, 0, 84, 89
2, 69559, Note_on_c, 0, 84, 0
2, 69621, Note_on_c, 0, 84, 84
2, 69622, Note_on_c, 0, 70, 74
2, 69622, Note_on_c, 0, 75, 76
2, 69624, Note_on_c, 0, 80, 62
2, 69641, Control_c, 0, 64, 0
2, 69659, Control_c, 0, 64, 127
2, 69676, Note_on_c, 0, 80, 0
2, 69677, Note_on_c, 0, 75, 0
2, 69681, Note_on_c, 0, 84, 0
2, 69684, Note_on_c, 0, 83, 60
2, 69685, Note_on_c, 0, 70, 0
2, 69688, Note_on_c, 0, 79, 58
2, 69688, Note_on_c, 0, 74, 54
2, 69689, Note_on_c, 0, 69, 41
2, 69692, Control_c, 0, 64, 0
2, 69706, Control_c, 0, 64, 127
2, 69710, Note_on_c, 0, 83, 0
2, 69712, Note_on_c, 0, 74, 0
2, 69719, Note_on_c, 0, 79, 0
2, 69728, Control_c, 0, 64, 0
2, 69738, Control_c, 0, 64, 127
2, 69738, Note_on_c, 0, 82, 52
2, 69739, Note_on_c, 0, 69, 0
2, 69742, Note_on_c, 0, 68, 46
2, 69743, Note_on_c, 0, 78, 39
2, 69744, Note_on_c, 0, 73, 34
2, 69769, Note_on_c, 0, 78, 0
2, 69769, Note_on_c, 0, 82, 0
2, 69770, Note_on_c, 0, 73, 0
2, 69783, Note_on_c, 0, 68, 0
2, 69791, Note_on_c, 0, 81, 51
2, 69792, Note_on_c, 0, 67, 30
2, 69792, Note_on_c, 0, 77, 47
2, 69793, Note_on_c, 0, 72, 44
2, 69809, Note_on_c, 0, 81, 0
2, 69814, Note_on_c, 0, 77, 0
2, 69815, Note_on_c, 0, 72, 0
2, 69838, Note_on_c, 0, 67, 0
2, 69840, Control_c, 0, 64, 0
2, 69850, Note_on_c, 0, 80, 34
2, 69850, Note_on_c, 0, 76, 31
2, 69850, Note_on_c, 0, 66, 37
2, 69853, Note_on_c, 0, 71, 31
2, 69866, Control_c, 0, 64, 127
2, 69919, Note_on_c, 0, 60, 51
2, 69920, Note_on_c, 0, 76, 0
2, 69924, Note_on_c, 0, 66, 0
2, 69926, Note_on_c, 0, 80, 0
2, 69927, Note_on_c, 0, 71, 0
2, 70057, Note_on_c, 0, 60, 0
2, 70069, Note_on_c, 0, 72, 43
2, 70071, Note_on_c, 0, 68, 37
2, 70073, Note_on_c, 0, 66, 36
2, 70074, Note_on_c, 0, 64, 28
2, 70093, Note_on_c, 0, 72, 0
2, 70101, Note_on_c, 0, 68, 0
2, 70103, Note_on_c, 0, 66, 0
2, 70107, Note_on_c, 0, 64, 0
2, 70222, Note_on_c, 0, 42, 38
2, 70223, Note_on_c, 0, 68, 31
2, 70224, Note_on_c, 0, 58, 25
2, 70228, Note_on_c, 0, 61, 35
2, 70229, Note_on_c, 0, 64, 29
2, 70247, Note_on_c, 0, 64, 0
2, 70251, Note_on_c, 0, 61, 0
2, 70253, Note_on_c, 0, 68, 0
2, 70255, Note_on_c, 0, 42, 0
2, 70262, Note_on_c, 0, 58, 0
2, 70321, Control_c, 0, 64, 0
2, 70321, Note_on_c, 0, 67, 36
2, 70323, Note_on_c, 0, 63, 35
2, 70326, Note_on_c, 0, 62, 34
2, 70326, Note_on_c, 0, 51, 25
2, 70327, Note_on_c, 0, 57, 31
2, 70327, Note_on_c, 0, 41, 33
2, 70344, Note_on_c, 0, 41, 0
2, 70349, Control_c, 0, 64, 127
2, 70363, Note_on_c, 0, 51, 0
2, 70365, Note_on_c, 0, 57, 0
2, 70394, Note_on_c, 0, 62, 0
2, 70396, Note_on_c, 0, 63, 0
2, 70399, Note_on_c, 0, 67, 0
2, 70427, Note_on_c, 0, 63, 55
2, 70444, Note_on_c, 0, 63, 0
2, 70467, Note_on_c, 0, 65, 53
2, 70479, Note_on_c, 0, 67, 40
2, 70482, Note_on_c, 0, 65, 0
2, 70498, Note_on_c, 0, 69, 40
2, 70502, Note_on_c, 0, 67, 0
2, 70507, Note_on_c, 0, 69, 0
2, 70507, Note_on_c, 0, 71, 67
2, 70514, Note_on_c, 0, 71, 0
2, 70518, Note_on_c, 0, 75, 60
2, 70530, Note_on_c, 0, 75, 0
2, 70542, Note_on_c, 0, 77, 62
2, 70558, Note_on_c, 0, 79, 47
2, 70559, Note_on_c, 0, 77, 0
2, 70575, Note_on_c, 0, 79, 0
2, 70576, Note_on_c, 0, 81, 36
2, 70584, Note_on_c, 0, 81, 0
2, 70625, Note_on_c, 0, 89, 51
2, 70646, Note_on_c, 0, 89, 0
2, 70665, Note_on_c, 0, 93, 34
2, 70681, Note_on_c, 0, 93, 0
2, 70702, Note_on_c, 0, 98, 74
2, 70813, Note_on_c, 0, 96, 44
2, 70886, Note_on_c, 0, 98, 0
2, 70887, Note_on_c, 0, 95, 67
2, 70893, Note_on_c, 0, 96, 0
2, 70941, Note_on_c, 0, 96, 67
2, 70942, Note_on_c, 0, 95, 0
2, 71006, Note_on_c, 0, 91, 49
2, 71065, Note_on_c, 0, 96, 0
2, 71070, Note_on_c, 0, 91, 0
2, 71073, Note_on_c, 0, 89, 54
2, 71139, Note_on_c, 0, 89, 0
2, 71146, Note_on_c, 0, 90, 58
2, 71148, Note_on_c, 0, 68, 39
2, 71151, Note_on_c, 0, 61, 30
2, 71151, Note_on_c, 0, 63, 36
2, 71158, Note_on_c, 0, 57, 37
2, 71161, Control_c, 0, 64, 0
2, 71198, Note_on_c, 0, 90, 0
2, 71207, Control_c, 0, 64, 127
2, 71215, Note_on_c, 0, 90, 49
2, 71236, Note_on_c, 0, 90, 0
2, 71273, Note_on_c, 0, 90, 65
2, 71295, Note_on_c, 0, 90, 0
2, 71330, Note_on_c, 0, 57, 0
2, 71335, Note_on_c, 0, 68, 0
2, 71337, Note_on_c, 0, 90, 61
2, 71352, Note_on_c, 0, 61, 0
2, 71362, Note_on_c, 0, 63, 0
2, 71365, Note_on_c, 0, 90, 0
2, 71409, Control_c, 0, 64, 0
2, 71411, Note_on_c, 0, 67, 32
2, 71411, Note_on_c, 0, 63, 31
2, 71411, Note_on_c, 0, 56, 33
2, 71412, Note_on_c, 0, 91, 45
2, 71412, Note_on_c, 0, 60, 35
2, 71413, Note_on_c, 0, 79, 44
2, 71450, Control_c, 0, 64, 127
2, 71467, Note_on_c, 0, 91, 0
2, 71493, Note_on_c, 0, 67, 0
2, 71495, Note_on_c, 0, 91, 44
2, 71501, Note_on_c, 0, 60, 0
2, 71504, Note_on_c, 0, 63, 0
2, 71516, Note_on_c, 0, 56, 0
2, 71552, Note_on_c, 0, 91, 0
2, 71579, Note_on_c, 0, 79, 0
2, 71598, Note_on_c, 0, 91, 46
2, 71598, Note_on_c, 0, 34, 36
2, 71621, Note_on_c, 0, 34, 0
2, 71623, Note_on_c, 0, 91, 0
2, 71778, Note_on_c, 0, 65, 64
2, 71858, Note_on_c, 0, 65, 0
2, 71883, Note_on_c, 0, 65, 53
2, 71972, Note_on_c, 0, 62, 63
2, 72049, Note_on_c, 0, 62, 0
2, 72119, Note_on_c, 0, 62, 41
2, 72122, Control_c, 0, 64, 0
2, 72124, Note_on_c, 0, 55, 24
2, 72126, Note_on_c, 0, 39, 33
2, 72143, Note_on_c, 0, 55, 0
2, 72152, Control_c, 0, 64, 127
2, 72167, Note_on_c, 0, 65, 0
2, 72167, Note_on_c, 0, 62, 0
2, 72180, Note_on_c, 0, 39, 0
2, 72180, Note_on_c, 0, 46, 36
2, 72209, Note_on_c, 0, 46, 0
2, 72239, Note_on_c, 0, 70, 46
2, 72242, Note_on_c, 0, 65, 39
2, 72246, Note_on_c, 0, 55, 36
2, 72261, Note_on_c, 0, 65, 0
2, 72276, Note_on_c, 0, 70, 0
2, 72304, Note_on_c, 0, 55, 0
2, 72304, Note_on_c, 0, 58, 43
2, 72376, Note_on_c, 0, 62, 40
2, 72422, Note_on_c, 0, 62, 0
2, 72465, Note_on_c, 0, 67, 25
2, 72469, Note_on_c, 0, 79, 50
2, 72501, Note_on_c, 0, 79, 0
2, 72552, Note_on_c, 0, 86, 54
2, 72553, Note_on_c, 0, 67, 0
2, 72554, Note_on_c, 0, 62, 46
2, 72559, Note_on_c, 0, 58, 0
2, 72588, Note_on_c, 0, 86, 0
2, 72596, Note_on_c, 0, 62, 0
2, 72631, Note_on_c, 0, 58, 37
2, 72633, Note_on_c, 0, 86, 65
2, 72640, Note_on_c, 0, 58, 0
2, 72664, Note_on_c, 0, 86, 0
2, 72718, Note_on_c, 0, 86, 52
2, 72721, Note_on_c, 0, 78, 30
2, 72721, Note_on_c, 0, 81, 51
2, 72722, Note_on_c, 0, 74, 40
2, 72724, Note_on_c, 0, 39, 34
2, 72727, Control_c, 0, 64, 0
2, 72759, Control_c, 0, 64, 127
2, 72800, Note_on_c, 0, 50, 42
2, 72808, Note_on_c, 0, 39, 0
2, 72866, Note_on_c, 0, 51, 50
2, 72868, Note_on_c, 0, 50, 0
2, 72919, Note_on_c, 0, 51, 0
2, 72926, Note_on_c, 0, 53, 38
2, 72961, Note_on_c, 0, 53, 0
2, 72979, Note_on_c, 0, 55, 44
2, 73005, Note_on_c, 0, 55, 0
2, 73014, Note_on_c, 0, 56, 50
2, 73052, Note_on_c, 0, 56, 0
2, 73052, Note_on_c, 0, 58, 55
2, 73071, Note_on_c, 0, 58, 0
2, 73096, Note_on_c, 0, 60, 46
2, 73106, Note_on_c, 0, 60, 0
2, 73140, Note_on_c, 0, 62, 43
2, 73184, Note_on_c, 0, 62, 0
2, 73190, Note_on_c, 0, 63, 48
2, 73234, Note_on_c, 0, 74, 0
2, 73244, Note_on_c, 0, 63, 0
2, 73250, Note_on_c, 0, 65, 32
2, 73297, Note_on_c, 0, 65, 0
2, 73303, Note_on_c, 0, 66, 42
2, 73309, Note_on_c, 0, 86, 0
2, 73310, Note_on_c, 0, 81, 0
2, 73331, Note_on_c, 0, 78, 0
2, 73361, Note_on_c, 0, 75, 46
2, 73362, Note_on_c, 0, 66, 0
2, 73362, Note_on_c, 0, 78, 29
2, 73366, Note_on_c, 0, 81, 49
2, 73369, Note_on_c, 0, 69, 43
2, 73428, Note_on_c, 0, 70, 54
2, 73431, Note_on_c, 0, 69, 0
2, 73470, Note_on_c, 0, 75, 0
2, 73473, Note_on_c, 0, 78, 0
2, 73473, Note_on_c, 0, 81, 0
2, 73495, Note_on_c, 0, 70, 0
2, 73497, Note_on_c, 0, 75, 42
2, 73498, Note_on_c, 0, 81, 33
2, 73501, Note_on_c, 0, 78, 34
2, 73503, Note_on_c, 0, 72, 36
2, 73552, Note_on_c, 0, 72, 0
2, 73568, Note_on_c, 0, 74, 44
2, 73575, Note_on_c, 0, 74, 0
2, 73589, Note_on_c, 0, 75, 0
2, 73612, Note_on_c, 0, 81, 0
2, 73632, Note_on_c, 0, 78, 0
2, 73652, Note_on_c, 0, 79, 36
2, 73653, Note_on_c, 0, 74, 38
2, 73656, Note_on_c, 0, 39, 34
2, 73662, Control_c, 0, 64, 0
2, 73694, Control_c, 0, 64, 127
2, 73701, Note_on_c, 0, 79, 0
2, 73710, Note_on_c, 0, 74, 0
2, 73712, Note_on_c, 0, 46, 39
2, 73716, Note_on_c, 0, 39, 0
2, 73744, Note_on_c, 0, 46, 0
2, 73776, Note_on_c, 0, 65, 40
2, 73777, Note_on_c, 0, 60, 35
2, 73794, Note_on_c, 0, 53, 10
2, 73807, Note_on_c, 0, 60, 0
2, 73821, Note_on_c, 0, 65, 0
2, 73826, Note_on_c, 0, 70, 55
2, 73829, Note_on_c, 0, 56, 31
2, 73830, Note_on_c, 0, 53, 0
2, 73838, Note_on_c, 0, 70, 0
2, 73880, Note_on_c, 0, 77, 46
2, 73881, Note_on_c, 0, 72, 31
2, 73900, Note_on_c, 0, 56, 0
2, 73901, Note_on_c, 0, 72, 0
2, 73918, Note_on_c, 0, 77, 0
2, 73923, Note_on_c, 0, 84, 66
2, 73929, Note_on_c, 0, 62, 15
2, 73948, Note_on_c, 0, 84, 0
2, 73966, Note_on_c, 0, 82, 52
2, 73969, Note_on_c, 0, 77, 26
2, 73970, Note_on_c, 0, 62, 0
2, 73974, Note_on_c, 0, 67, 37
2, 74000, Note_on_c, 0, 82, 0
2, 74004, Note_on_c, 0, 77, 0
2, 74014, Note_on_c, 0, 84, 44
2, 74022, Note_on_c, 0, 84, 0
2, 74054, Note_on_c, 0, 62, 38
2, 74055, Note_on_c, 0, 96, 74
2, 74058, Note_on_c, 0, 89, 53
2, 74069, Note_on_c, 0, 67, 0
2, 74085, Note_on_c, 0, 96, 0
2, 74103, Note_on_c, 0, 89, 0
2, 74105, Note_on_c, 0, 94, 33
2, 74137, Note_on_c, 0, 94, 0
2, 74148, Note_on_c, 0, 96, 66
2, 74158, Note_on_c, 0, 96, 0
2, 74175, Note_on_c, 0, 67, 4
2, 74178, Note_on_c, 0, 62, 0
2, 74196, Note_on_c, 0, 62, 7
2, 74200, Note_on_c, 0, 103, 45
2, 74206, Note_on_c, 0, 67, 0
2, 74232, Note_on_c, 0, 103, 0
2, 74246, Note_on_c, 0, 62, 0
2, 74248, Note_on_c, 0, 58, 32
2, 74250, Note_on_c, 0, 98, 31
2, 74256, Note_on_c, 0, 58, 0
2, 74287, Note_on_c, 0, 98, 0
2, 74302, Note_on_c, 0, 108, 64
2, 74336, Note_on_c, 0, 108, 0
2, 74358, Note_on_c, 0, 106, 45
2, 74364, Note_on_c, 0, 96, 17
2, 74366, Note_on_c, 0, 101, 35
2, 74366, Note_on_c, 0, 46, 32
2, 74367, Note_on_c, 0, 39, 44
2, 74379, Control_c, 0, 64, 0
2, 74405, Control_c, 0, 64, 127
2, 74428, Note_on_c, 0, 101, 0
2, 74428, Note_on_c, 0, 106, 0
2, 74440, Note_on_c, 0, 96, 0
2, 74458, Note_on_c, 0, 39, 0
2, 74461, Note_on_c, 0, 46, 0
2, 74616, Control_c, 0, 64, 0
2, 74616, End_track
3, 0, Start_track
3, 0, MIDI_port, 0
3, 0, End_track
4, 0, Start_track
4, 0, MIDI_port, 0
4, 0, End_track
0, 0, End_of_file
