0, 0, Header, 1, 4, 960
1, 0, Start_track
1, 0, Title_t, "Young and Foolish"
1, 0, Text_t, "dougmck@pipeline.com.au. This was a favourite of Bill Evans  - I tried to capture some of the feel of his playing - bass and drums especially on the slow middle chorus play very freely - as a kind of counterpoint to the piano. One other 'trademark' sound\012"
1, 0, Time_signature, 4, 2, 24, 8
1, 0, Key_signature, 0, "major"
1, 0, Tempo, 1333333
1, 3147, Marker_t, "Solo piano - rubato - last 16 bars"
1, 49440, Marker_t, "Bass and Drums in"
1, 49920, Marker_t, "Chord is ever so slightly 'rolled' from the top down - one of Bill Evans' trademark sounds"
1, 81120, Marker_t, "More Bill Evans type playing of chords - the 2 notes (6ths) are not played at the same time - the lower one is played very slightly after the upper one"
1, 96960, Marker_t, "Another downward 'roll' of the chord"
1, 172800, Tempo, 666667
1, 172800, Marker_t, "Double time"
1, 179280, Marker_t, "This phrase is a descending arpeggio - 2nd inversion triad (C Maj) with an upper neighbour (F) "
1, 183840, Marker_t, "On C7, an ascending diminished scale with a 'flourish' at the beginning using neighbouring tones on the 5th and 7th "
1, 203520, Marker_t, "Same 2nd inversion C Maj triad with upper neighbour F as before"
1, 217200, Marker_t, "6 rhythm of the melody against 4"
1, 217200, End_track
2, 0, Start_track
2, 0, MIDI_port, 0
2, 0, Title_t, "Piano"
2, 0, Program_c, 0, 0
2, 3168, Control_c, 0, 64, 127
2, 3168, Control_c, 0, 64, 0
2, 3168, Control_c, 0, 64, 127
2, 3220, Note_on_c, 0, 79, 76
2, 3223, Control_c, 0, 64, 0
2, 3247, Note_on_c, 0, 76, 57
2, 3255, Note_on_c, 0, 74, 58
2, 3270, Note_on_c, 0, 71, 53
2, 3285, Note_on_c, 0, 67, 36
2, 3286, Note_on_c, 0, 64, 31
2, 3303, Note_on_c, 0, 62, 25
2, 3374, Control_c, 0, 64, 127
2, 3440, Note_on_c, 0, 67, 0
2, 3761, Note_on_c, 0, 55, 35
2, 3925, Note_on_c, 0, 64, 0
2, 4065, Note_on_c, 0, 71, 0
2, 4338, Note_on_c, 0, 79, 0
2, 4371, Note_on_c, 0, 74, 0
2, 4395, Note_on_c, 0, 71, 57
2, 4397, Note_on_c, 0, 76, 0
2, 4477, Note_on_c, 0, 71, 0
2, 4556, Note_on_c, 0, 62, 0
2, 4597, Note_on_c, 0, 84, 92
2, 4661, Note_on_c, 0, 55, 0
2, 4784, Note_on_c, 0, 84, 0
2, 4898, Note_on_c, 0, 61, 50
2, 4899, Note_on_c, 0, 84, 82
2, 4900, Note_on_c, 0, 77, 74
2, 4900, Note_on_c, 0, 55, 42
2, 4903, Control_c, 0, 64, 0
2, 4909, Note_on_c, 0, 72, 63
2, 4914, Note_on_c, 0, 65, 50
2, 5185, Control_c, 0, 64, 127
2, 5233, Note_on_c, 0, 61, 0
2, 5315, Note_on_c, 0, 61, 35
2, 5407, Note_on_c, 0, 65, 0
2, 5517, Note_on_c, 0, 72, 0
2, 5704, Note_on_c, 0, 84, 0
2, 5748, Note_on_c, 0, 72, 31
2, 5749, Note_on_c, 0, 65, 32
2, 5793, Note_on_c, 0, 77, 0
2, 5899, Note_on_c, 0, 72, 0
2, 6181, Note_on_c, 0, 65, 0
2, 6207, Note_on_c, 0, 72, 58
2, 6264, Note_on_c, 0, 61, 0
2, 6271, Note_on_c, 0, 55, 0
2, 6507, Note_on_c, 0, 72, 0
2, 6591, Note_on_c, 0, 72, 46
2, 6607, Control_c, 0, 64, 0
2, 6607, Note_on_c, 0, 69, 54
2, 6609, Note_on_c, 0, 65, 49
2, 6646, Note_on_c, 0, 55, 18
2, 6779, Control_c, 0, 64, 127
2, 6900, Note_on_c, 0, 72, 0
2, 6917, Note_on_c, 0, 65, 0
2, 6951, Note_on_c, 0, 74, 62
2, 6952, Note_on_c, 0, 43, 39
2, 6960, Note_on_c, 0, 55, 0
2, 6978, Note_on_c, 0, 69, 0
2, 6983, Note_on_c, 0, 72, 24
2, 7071, Note_on_c, 0, 74, 0
2, 7093, Note_on_c, 0, 72, 0
2, 7432, Note_on_c, 0, 53, 44
2, 7433, Note_on_c, 0, 56, 36
2, 7434, Note_on_c, 0, 60, 52
2, 7458, Control_c, 0, 64, 0
2, 7567, Control_c, 0, 64, 127
2, 7836, Note_on_c, 0, 60, 0
2, 7931, Note_on_c, 0, 43, 0
2, 7993, Note_on_c, 0, 59, 60
2, 8147, Note_on_c, 0, 53, 0
2, 8291, Note_on_c, 0, 59, 0
2, 8309, Note_on_c, 0, 56, 0
2, 8933, Note_on_c, 0, 52, 50
2, 8938, Control_c, 0, 64, 0
2, 8967, Note_on_c, 0, 36, 47
2, 9139, Control_c, 0, 64, 127
2, 9179, Note_on_c, 0, 52, 0
2, 9301, Note_on_c, 0, 36, 0
2, 9352, Note_on_c, 0, 52, 48
2, 9441, Note_on_c, 0, 52, 0
2, 9725, Note_on_c, 0, 76, 79
2, 9735, Note_on_c, 0, 71, 74
2, 9743, Note_on_c, 0, 64, 70
2, 9750, Note_on_c, 0, 55, 48
2, 9950, Note_on_c, 0, 64, 0
2, 9953, Note_on_c, 0, 76, 0
2, 9997, Note_on_c, 0, 71, 0
2, 10096, Note_on_c, 0, 77, 82
2, 10115, Note_on_c, 0, 55, 0
2, 10333, Note_on_c, 0, 77, 0
2, 10403, Control_c, 0, 64, 0
2, 10412, Note_on_c, 0, 77, 66
2, 10416, Note_on_c, 0, 43, 68
2, 10418, Note_on_c, 0, 70, 77
2, 10429, Note_on_c, 0, 65, 76
2, 10533, Control_c, 0, 64, 127
2, 10558, Note_on_c, 0, 43, 0
2, 10609, Note_on_c, 0, 65, 0
2, 10635, Note_on_c, 0, 70, 0
2, 10673, Note_on_c, 0, 77, 0
2, 10839, Note_on_c, 0, 79, 64
2, 10847, Note_on_c, 0, 58, 50
2, 10850, Note_on_c, 0, 67, 71
2, 10863, Note_on_c, 0, 74, 63
2, 11197, Note_on_c, 0, 67, 0
2, 11206, Note_on_c, 0, 74, 0
2, 11239, Note_on_c, 0, 79, 0
2, 12063, Control_c, 0, 64, 0
2, 12066, Note_on_c, 0, 79, 54
2, 12072, Note_on_c, 0, 70, 43
2, 12076, Note_on_c, 0, 73, 32
2, 12091, Note_on_c, 0, 64, 29
2, 12243, Control_c, 0, 64, 127
2, 12296, Note_on_c, 0, 64, 0
2, 12328, Note_on_c, 0, 58, 0
2, 12683, Note_on_c, 0, 30, 36
2, 12766, Note_on_c, 0, 30, 0
2, 12990, Note_on_c, 0, 79, 0
2, 13036, Note_on_c, 0, 70, 0
2, 13098, Note_on_c, 0, 73, 0
2, 13769, Note_on_c, 0, 81, 58
2, 13779, Note_on_c, 0, 73, 36
2, 13787, Note_on_c, 0, 69, 47
2, 13799, Note_on_c, 0, 61, 27
2, 13799, Note_on_c, 0, 53, 20
2, 13816, Control_c, 0, 64, 0
2, 14155, Control_c, 0, 64, 127
2, 14249, Note_on_c, 0, 64, 48
2, 14567, Note_on_c, 0, 64, 0
2, 14611, Note_on_c, 0, 69, 0
2, 14646, Note_on_c, 0, 73, 0
2, 14680, Note_on_c, 0, 74, 49
2, 14681, Note_on_c, 0, 62, 55
2, 14687, Note_on_c, 0, 69, 47
2, 14689, Note_on_c, 0, 61, 0
2, 14787, Note_on_c, 0, 81, 0
2, 14911, Note_on_c, 0, 53, 0
2, 15000, Note_on_c, 0, 74, 0
2, 15031, Note_on_c, 0, 69, 0
2, 15164, Note_on_c, 0, 74, 91
2, 15175, Note_on_c, 0, 53, 44
2, 15322, Note_on_c, 0, 62, 0
2, 15433, Note_on_c, 0, 53, 0
2, 15640, Note_on_c, 0, 74, 0
2, 15736, Control_c, 0, 64, 0
2, 15736, Note_on_c, 0, 74, 91
2, 15741, Note_on_c, 0, 45, 62
2, 15873, Control_c, 0, 64, 127
2, 15893, Note_on_c, 0, 45, 0
2, 16203, Note_on_c, 0, 74, 0
2, 16211, Note_on_c, 0, 60, 45
2, 16219, Note_on_c, 0, 76, 77
2, 16219, Note_on_c, 0, 65, 52
2, 16225, Note_on_c, 0, 61, 45
2, 16230, Note_on_c, 0, 55, 47
2, 16231, Note_on_c, 0, 74, 20
2, 16255, Note_on_c, 0, 74, 0
2, 17025, Note_on_c, 0, 65, 0
2, 17118, Note_on_c, 0, 61, 0
2, 17151, Note_on_c, 0, 60, 0
2, 17201, Note_on_c, 0, 55, 0
2, 17397, Note_on_c, 0, 65, 41
2, 17401, Note_on_c, 0, 61, 36
2, 17402, Note_on_c, 0, 60, 30
2, 17411, Note_on_c, 0, 55, 32
2, 17600, Note_on_c, 0, 65, 0
2, 17607, Note_on_c, 0, 61, 0
2, 17622, Note_on_c, 0, 60, 0
2, 17678, Note_on_c, 0, 55, 0
2, 17994, Note_on_c, 0, 65, 45
2, 17995, Control_c, 0, 64, 0
2, 17997, Note_on_c, 0, 69, 56
2, 18000, Note_on_c, 0, 50, 36
2, 18010, Note_on_c, 0, 60, 32
2, 18012, Note_on_c, 0, 57, 41
2, 18233, Control_c, 0, 64, 127
2, 18414, Note_on_c, 0, 57, 0
2, 18498, Note_on_c, 0, 69, 0
2, 18530, Note_on_c, 0, 65, 0
2, 18565, Note_on_c, 0, 76, 0
2, 18607, Note_on_c, 0, 60, 0
2, 18607, Note_on_c, 0, 77, 73
2, 18615, Note_on_c, 0, 57, 45
2, 18981, Note_on_c, 0, 77, 0
2, 18991, Note_on_c, 0, 57, 0
2, 19048, Control_c, 0, 64, 0
2, 19049, Note_on_c, 0, 77, 46
2, 19057, Note_on_c, 0, 69, 71
2, 19064, Note_on_c, 0, 61, 51
2, 19065, Note_on_c, 0, 65, 67
2, 19193, Control_c, 0, 64, 127
2, 19442, Note_on_c, 0, 65, 0
2, 19449, Note_on_c, 0, 50, 0
2, 19453, Note_on_c, 0, 69, 0
2, 19473, Note_on_c, 0, 61, 0
2, 19524, Note_on_c, 0, 77, 0
2, 19814, Control_c, 0, 64, 0
2, 19819, Note_on_c, 0, 79, 64
2, 19825, Note_on_c, 0, 65, 58
2, 19831, Note_on_c, 0, 60, 40
2, 19836, Note_on_c, 0, 67, 66
2, 19838, Note_on_c, 0, 55, 44
2, 19842, Note_on_c, 0, 61, 36
2, 19957, Control_c, 0, 64, 127
2, 19993, Note_on_c, 0, 77, 22
2, 20021, Note_on_c, 0, 65, 0
2, 20030, Note_on_c, 0, 60, 0
2, 20054, Note_on_c, 0, 61, 0
2, 20066, Note_on_c, 0, 55, 0
2, 20085, Note_on_c, 0, 67, 0
2, 20160, Note_on_c, 0, 79, 0
2, 20170, Note_on_c, 0, 77, 0
2, 20305, Control_c, 0, 64, 0
2, 20313, Note_on_c, 0, 79, 71
2, 20315, Note_on_c, 0, 72, 60
2, 20318, Note_on_c, 0, 65, 64
2, 20327, Note_on_c, 0, 50, 46
2, 20328, Note_on_c, 0, 60, 53
2, 20471, Control_c, 0, 64, 127
2, 20570, Note_on_c, 0, 79, 0
2, 20586, Note_on_c, 0, 65, 0
2, 20698, Note_on_c, 0, 72, 0
2, 20750, Note_on_c, 0, 57, 51
2, 20756, Note_on_c, 0, 81, 71
2, 20770, Note_on_c, 0, 79, 45
2, 20799, Note_on_c, 0, 79, 0
2, 20988, Note_on_c, 0, 60, 0
2, 21005, Note_on_c, 0, 50, 0
2, 21186, Note_on_c, 0, 81, 0
2, 21314, Note_on_c, 0, 57, 0
2, 21325, Note_on_c, 0, 81, 60
2, 21336, Control_c, 0, 64, 0
2, 21341, Note_on_c, 0, 78, 37
2, 21342, Note_on_c, 0, 75, 36
2, 21353, Note_on_c, 0, 69, 46
2, 21356, Note_on_c, 0, 60, 34
2, 21358, Note_on_c, 0, 51, 34
2, 21768, Control_c, 0, 64, 127
2, 21962, Note_on_c, 0, 69, 0
2, 22181, Note_on_c, 0, 54, 30
2, 22595, Note_on_c, 0, 51, 0
2, 22761, Note_on_c, 0, 54, 0
2, 22770, Note_on_c, 0, 81, 0
2, 22843, Note_on_c, 0, 78, 0
2, 22856, Note_on_c, 0, 75, 0
2, 22864, Note_on_c, 0, 60, 0
2, 22989, Note_on_c, 0, 83, 57
2, 23346, Note_on_c, 0, 83, 0
2, 23820, Note_on_c, 0, 83, 41
2, 23841, Control_c, 0, 64, 0
2, 23842, Note_on_c, 0, 80, 38
2, 23847, Note_on_c, 0, 71, 39
2, 23854, Note_on_c, 0, 48, 28
2, 23855, Note_on_c, 0, 76, 42
2, 24058, Control_c, 0, 64, 127
2, 24147, Note_on_c, 0, 83, 0
2, 24184, Note_on_c, 0, 71, 0
2, 24206, Note_on_c, 0, 80, 0
2, 24207, Note_on_c, 0, 76, 0
2, 24240, Note_on_c, 0, 56, 35
2, 24247, Note_on_c, 0, 84, 67
2, 24506, Note_on_c, 0, 84, 0
2, 24643, Note_on_c, 0, 84, 64
2, 24651, Note_on_c, 0, 56, 0
2, 24658, Note_on_c, 0, 48, 0
2, 24661, Note_on_c, 0, 72, 36
2, 24677, Note_on_c, 0, 57, 43
2, 25025, Note_on_c, 0, 59, 66
2, 25034, Note_on_c, 0, 57, 0
2, 25304, Note_on_c, 0, 72, 0
2, 25356, Note_on_c, 0, 59, 0
2, 25380, Note_on_c, 0, 60, 67
2, 25648, Note_on_c, 0, 84, 0
2, 25674, Note_on_c, 0, 72, 47
2, 25878, Note_on_c, 0, 72, 0
2, 25927, Note_on_c, 0, 72, 64
2, 25931, Note_on_c, 0, 64, 55
2, 25961, Note_on_c, 0, 60, 0
2, 26129, Note_on_c, 0, 72, 0
2, 26232, Note_on_c, 0, 83, 82
2, 26252, Note_on_c, 0, 64, 0
2, 26467, Note_on_c, 0, 83, 0
2, 26642, Note_on_c, 0, 83, 64
2, 26649, Control_c, 0, 64, 0
2, 26661, Note_on_c, 0, 76, 53
2, 26664, Note_on_c, 0, 71, 47
2, 26670, Note_on_c, 0, 56, 36
2, 26676, Note_on_c, 0, 62, 32
2, 26828, Control_c, 0, 64, 127
2, 26901, Note_on_c, 0, 71, 0
2, 26901, Note_on_c, 0, 83, 0
2, 26938, Note_on_c, 0, 76, 0
2, 26986, Note_on_c, 0, 67, 45
2, 27011, Note_on_c, 0, 84, 64
2, 27022, Note_on_c, 0, 67, 0
2, 27063, Note_on_c, 0, 62, 0
2, 27081, Note_on_c, 0, 56, 0
2, 27279, Note_on_c, 0, 84, 0
2, 27404, Note_on_c, 0, 28, 47
2, 27430, Note_on_c, 0, 84, 58
2, 27466, Note_on_c, 0, 28, 0
2, 27879, Note_on_c, 0, 56, 34
2, 27938, Note_on_c, 0, 84, 0
2, 28339, Note_on_c, 0, 76, 46
2, 28341, Note_on_c, 0, 67, 31
2, 28347, Note_on_c, 0, 72, 33
2, 28351, Note_on_c, 0, 62, 35
2, 29184, Note_on_c, 0, 67, 0
2, 29301, Note_on_c, 0, 72, 0
2, 29369, Note_on_c, 0, 76, 0
2, 29697, Note_on_c, 0, 83, 101
2, 29804, Note_on_c, 0, 62, 0
2, 30018, Note_on_c, 0, 56, 0
2, 30025, Note_on_c, 0, 84, 65
2, 30039, Note_on_c, 0, 83, 0
2, 30111, Note_on_c, 0, 84, 0
2, 30119, Note_on_c, 0, 83, 53
2, 30248, Note_on_c, 0, 82, 45
2, 30251, Note_on_c, 0, 83, 0
2, 30350, Note_on_c, 0, 82, 0
2, 30406, Note_on_c, 0, 83, 58
2, 30553, Note_on_c, 0, 83, 0
2, 30594, Note_on_c, 0, 86, 75
2, 30746, Note_on_c, 0, 86, 0
2, 30806, Control_c, 0, 64, 0
2, 30809, Note_on_c, 0, 84, 60
2, 30815, Note_on_c, 0, 57, 40
2, 31107, Control_c, 0, 64, 127
2, 31141, Note_on_c, 0, 60, 33
2, 31470, Note_on_c, 0, 72, 41
2, 31473, Note_on_c, 0, 57, 0
2, 31475, Note_on_c, 0, 56, 43
2, 31483, Note_on_c, 0, 64, 31
2, 31497, Control_c, 0, 64, 0
2, 31572, Note_on_c, 0, 84, 0
2, 31635, Control_c, 0, 64, 127
2, 31803, Note_on_c, 0, 72, 0
2, 31843, Note_on_c, 0, 86, 76
2, 31961, Note_on_c, 0, 86, 0
2, 32185, Note_on_c, 0, 56, 0
2, 32382, Note_on_c, 0, 83, 55
2, 32408, Note_on_c, 0, 72, 35
2, 32415, Note_on_c, 0, 60, 0
2, 32420, Note_on_c, 0, 55, 43
2, 32429, Control_c, 0, 64, 0
2, 32746, Control_c, 0, 64, 127
2, 32794, Note_on_c, 0, 60, 31
2, 32844, Note_on_c, 0, 64, 0
2, 32865, Note_on_c, 0, 72, 0
2, 32914, Note_on_c, 0, 83, 0
2, 33241, Note_on_c, 0, 84, 43
2, 33250, Note_on_c, 0, 72, 30
2, 33273, Note_on_c, 0, 64, 22
2, 33396, Note_on_c, 0, 55, 0
2, 33646, Note_on_c, 0, 72, 0
2, 33809, Note_on_c, 0, 84, 0
2, 33815, Note_on_c, 0, 64, 0
2, 33829, Note_on_c, 0, 55, 35
2, 33929, Note_on_c, 0, 60, 0
2, 33954, Note_on_c, 0, 55, 0
2, 34789, Control_c, 0, 64, 0
2, 34790, Note_on_c, 0, 88, 46
2, 34794, Note_on_c, 0, 80, 37
2, 34807, Note_on_c, 0, 50, 32
2, 35048, Control_c, 0, 64, 127
2, 35145, Note_on_c, 0, 54, 29
2, 35308, Note_on_c, 0, 50, 0
2, 35453, Note_on_c, 0, 88, 0
2, 35458, Note_on_c, 0, 83, 49
2, 35475, Note_on_c, 0, 57, 31
2, 35491, Note_on_c, 0, 76, 26
2, 35695, Note_on_c, 0, 57, 0
2, 35716, Note_on_c, 0, 54, 0
2, 35738, Note_on_c, 0, 62, 46
2, 35942, Note_on_c, 0, 80, 0
2, 35955, Note_on_c, 0, 76, 0
2, 36042, Note_on_c, 0, 80, 28
2, 36045, Note_on_c, 0, 76, 34
2, 36053, Note_on_c, 0, 83, 0
2, 36055, Note_on_c, 0, 66, 29
2, 36061, Note_on_c, 0, 62, 0
2, 36348, Note_on_c, 0, 76, 0
2, 36371, Note_on_c, 0, 69, 46
2, 36428, Note_on_c, 0, 80, 0
2, 36755, Note_on_c, 0, 69, 0
2, 36769, Note_on_c, 0, 80, 25
2, 36770, Note_on_c, 0, 88, 35
2, 36784, Note_on_c, 0, 74, 22
2, 37436, Note_on_c, 0, 88, 0
2, 37479, Note_on_c, 0, 74, 0
2, 37509, Note_on_c, 0, 80, 0
2, 37734, Note_on_c, 0, 66, 0
2, 37927, Note_on_c, 0, 69, 39
2, 38081, Note_on_c, 0, 69, 0
2, 38120, Note_on_c, 0, 72, 69
2, 38271, Note_on_c, 0, 72, 0
2, 38302, Note_on_c, 0, 74, 68
2, 38512, Note_on_c, 0, 74, 0
2, 38572, Note_on_c, 0, 75, 61
2, 38577, Control_c, 0, 64, 0
2, 38584, Note_on_c, 0, 66, 35
2, 38592, Note_on_c, 0, 57, 38
2, 38601, Note_on_c, 0, 69, 42
2, 38736, Control_c, 0, 64, 127
2, 38887, Note_on_c, 0, 69, 0
2, 38891, Note_on_c, 0, 75, 0
2, 38906, Note_on_c, 0, 66, 0
2, 39067, Note_on_c, 0, 54, 35
2, 39069, Note_on_c, 0, 72, 51
2, 39070, Note_on_c, 0, 57, 0
2, 39074, Note_on_c, 0, 63, 38
2, 39222, Note_on_c, 0, 72, 0
2, 39305, Note_on_c, 0, 63, 0
2, 39438, Control_c, 0, 64, 0
2, 39460, Note_on_c, 0, 69, 48
2, 39470, Note_on_c, 0, 60, 28
2, 39492, Note_on_c, 0, 63, 23
2, 39495, Note_on_c, 0, 51, 34
2, 39503, Control_c, 0, 64, 127
2, 39527, Note_on_c, 0, 54, 0
2, 39582, Note_on_c, 0, 63, 0
2, 39583, Note_on_c, 0, 69, 0
2, 39603, Note_on_c, 0, 51, 0
2, 39629, Note_on_c, 0, 60, 0
2, 39851, Note_on_c, 0, 66, 45
2, 39881, Note_on_c, 0, 63, 27
2, 39900, Note_on_c, 0, 60, 20
2, 40095, Note_on_c, 0, 60, 0
2, 40109, Note_on_c, 0, 66, 0
2, 40367, Control_c, 0, 64, 0
2, 40387, Note_on_c, 0, 63, 0
2, 40415, Note_on_c, 0, 64, 54
2, 40422, Note_on_c, 0, 60, 33
2, 40424, Note_on_c, 0, 43, 24
2, 40425, Note_on_c, 0, 55, 28
2, 40428, Note_on_c, 0, 52, 32
2, 40440, Note_on_c, 0, 67, 50
2, 40519, Control_c, 0, 64, 127
2, 40556, Note_on_c, 0, 55, 0
2, 40609, Note_on_c, 0, 60, 0
2, 40614, Note_on_c, 0, 52, 0
2, 40638, Note_on_c, 0, 64, 0
2, 40652, Note_on_c, 0, 43, 0
2, 40680, Note_on_c, 0, 67, 0
2, 41073, Note_on_c, 0, 88, 82
2, 41081, Note_on_c, 0, 84, 85
2, 41088, Note_on_c, 0, 76, 74
2, 41092, Note_on_c, 0, 67, 56
2, 41094, Note_on_c, 0, 62, 56
2, 41101, Note_on_c, 0, 56, 38
2, 41390, Note_on_c, 0, 84, 0
2, 41405, Note_on_c, 0, 88, 0
2, 41440, Note_on_c, 0, 76, 0
2, 41558, Note_on_c, 0, 84, 61
2, 41581, Note_on_c, 0, 72, 63
2, 41663, Note_on_c, 0, 67, 0
2, 41694, Note_on_c, 0, 84, 0
2, 41712, Note_on_c, 0, 62, 0
2, 41766, Note_on_c, 0, 72, 0
2, 41798, Note_on_c, 0, 56, 0
2, 42236, Note_on_c, 0, 73, 30
2, 42240, Note_on_c, 0, 79, 56
2, 42243, Note_on_c, 0, 67, 50
2, 42249, Note_on_c, 0, 72, 60
2, 42256, Note_on_c, 0, 61, 27
2, 42259, Note_on_c, 0, 65, 43
2, 42264, Note_on_c, 0, 55, 44
2, 42288, Control_c, 0, 64, 0
2, 42628, Control_c, 0, 64, 127
2, 42905, Note_on_c, 0, 79, 0
2, 42929, Note_on_c, 0, 65, 0
2, 42942, Note_on_c, 0, 55, 0
2, 42950, Note_on_c, 0, 61, 0
2, 43144, Note_on_c, 0, 67, 0
2, 43157, Note_on_c, 0, 73, 0
2, 43177, Note_on_c, 0, 72, 0
2, 43178, Note_on_c, 0, 77, 64
2, 43420, Note_on_c, 0, 77, 0
2, 43447, Note_on_c, 0, 76, 57
2, 43684, Note_on_c, 0, 76, 0
2, 43814, Note_on_c, 0, 77, 51
2, 43835, Note_on_c, 0, 65, 33
2, 43840, Control_c, 0, 64, 0
2, 43841, Note_on_c, 0, 60, 30
2, 43844, Note_on_c, 0, 50, 24
2, 44187, Control_c, 0, 64, 127
2, 44314, Note_on_c, 0, 57, 31
2, 44445, Note_on_c, 0, 77, 0
2, 44532, Note_on_c, 0, 65, 0
2, 44889, Note_on_c, 0, 60, 0
2, 45015, Note_on_c, 0, 60, 49
2, 45124, Note_on_c, 0, 57, 0
2, 45307, Note_on_c, 0, 62, 74
2, 45312, Note_on_c, 0, 50, 0
2, 45330, Note_on_c, 0, 60, 0
2, 45906, Note_on_c, 0, 60, 62
2, 45915, Note_on_c, 0, 62, 0
2, 45923, Note_on_c, 0, 43, 39
2, 45947, Note_on_c, 0, 53, 24
2, 45955, Control_c, 0, 64, 0
2, 46035, Note_on_c, 0, 62, 1
2, 46322, Control_c, 0, 64, 127
2, 46690, Note_on_c, 0, 57, 32
2, 47026, Note_on_c, 0, 53, 0
2, 47103, Note_on_c, 0, 60, 0
2, 47288, Note_on_c, 0, 57, 0
2, 47471, Note_on_c, 0, 59, 38
2, 47492, Note_on_c, 0, 53, 30
2, 47542, Control_c, 0, 64, 0
2, 47562, Note_on_c, 0, 62, 0
2, 47867, Control_c, 0, 64, 127
2, 48208, Note_on_c, 0, 62, 37
2, 48216, Note_on_c, 0, 59, 0
2, 48628, Note_on_c, 0, 62, 0
2, 48642, Note_on_c, 0, 64, 48
2, 48723, Note_on_c, 0, 43, 0
2, 48747, Note_on_c, 0, 53, 0
2, 48929, Note_on_c, 0, 64, 0
2, 49163, Note_on_c, 0, 69, 51
2, 49403, Note_on_c, 0, 69, 0
2, 49830, Control_c, 0, 64, 0
2, 49920, Control_c, 0, 64, 127
2, 49935, Note_on_c, 0, 79, 63
2, 49960, Note_on_c, 0, 76, 50
2, 49965, Note_on_c, 0, 67, 33
2, 49966, Control_c, 0, 64, 0
2, 49970, Note_on_c, 0, 74, 40
2, 49996, Note_on_c, 0, 64, 27
2, 49997, Note_on_c, 0, 71, 31
2, 49999, Note_on_c, 0, 62, 24
2, 50113, Control_c, 0, 64, 127
2, 50269, Note_on_c, 0, 67, 0
2, 51007, Note_on_c, 0, 55, 47
2, 51056, Note_on_c, 0, 62, 0
2, 51089, Note_on_c, 0, 64, 0
2, 52779, Note_on_c, 0, 60, 33
2, 52787, Note_on_c, 0, 64, 24
2, 52791, Note_on_c, 0, 59, 36
2, 52829, Note_on_c, 0, 74, 0
2, 52870, Note_on_c, 0, 76, 0
2, 52871, Note_on_c, 0, 71, 0
2, 53027, Note_on_c, 0, 79, 0
2, 53132, Note_on_c, 0, 72, 101
2, 53476, Note_on_c, 0, 59, 0
2, 53498, Note_on_c, 0, 74, 69
2, 53516, Note_on_c, 0, 60, 0
2, 53521, Note_on_c, 0, 72, 0
2, 53526, Note_on_c, 0, 55, 0
2, 53528, Note_on_c, 0, 64, 0
2, 53598, Note_on_c, 0, 72, 58
2, 53631, Note_on_c, 0, 74, 0
2, 53701, Note_on_c, 0, 71, 83
2, 53740, Note_on_c, 0, 72, 0
2, 53811, Note_on_c, 0, 71, 0
2, 53822, Note_on_c, 0, 53, 44
2, 53822, Note_on_c, 0, 60, 42
2, 53824, Note_on_c, 0, 64, 35
2, 53825, Note_on_c, 0, 57, 44
2, 53827, Control_c, 0, 64, 0
2, 53838, Note_on_c, 0, 72, 80
2, 54086, Note_on_c, 0, 74, 74
2, 54138, Note_on_c, 0, 72, 0
2, 54248, Control_c, 0, 64, 127
2, 54626, Note_on_c, 0, 74, 0
2, 54710, Note_on_c, 0, 74, 46
2, 54916, Note_on_c, 0, 64, 0
2, 54950, Note_on_c, 0, 74, 0
2, 54954, Note_on_c, 0, 60, 0
2, 55072, Note_on_c, 0, 57, 0
2, 55128, Note_on_c, 0, 53, 0
2, 55429, Note_on_c, 0, 57, 67
2, 55510, Note_on_c, 0, 57, 0
2, 55570, Note_on_c, 0, 64, 94
2, 55647, Control_c, 0, 64, 0
2, 55691, Note_on_c, 0, 43, 37
2, 55692, Note_on_c, 0, 57, 68
2, 55694, Note_on_c, 0, 53, 38
2, 55730, Note_on_c, 0, 64, 0
2, 56181, Control_c, 0, 64, 127
2, 56495, Note_on_c, 0, 53, 0
2, 56914, Note_on_c, 0, 57, 0
2, 56936, Note_on_c, 0, 59, 53
2, 56937, Note_on_c, 0, 64, 47
2, 56942, Note_on_c, 0, 53, 40
2, 56943, Note_on_c, 0, 95, 71
2, 57048, Control_c, 0, 64, 127
2, 57091, Control_c, 0, 64, 0
2, 57096, Note_on_c, 0, 56, 48
2, 57111, Note_on_c, 0, 53, 37
2, 57251, Note_on_c, 0, 95, 0
2, 57265, Note_on_c, 0, 59, 0
2, 57266, Note_on_c, 0, 56, 0
2, 57270, Note_on_c, 0, 64, 0
2, 57281, Note_on_c, 0, 43, 0
2, 57285, Note_on_c, 0, 53, 0
2, 57293, Note_on_c, 0, 100, 82
2, 57311, Note_on_c, 0, 53, 0
2, 57550, Note_on_c, 0, 100, 0
2, 57604, Note_on_c, 0, 52, 47
2, 57616, Note_on_c, 0, 101, 83
2, 57618, Note_on_c, 0, 59, 38
2, 57619, Control_c, 0, 64, 0
2, 57620, Note_on_c, 0, 55, 33
2, 57630, Note_on_c, 0, 62, 28
2, 57895, Note_on_c, 0, 100, 74
2, 57939, Note_on_c, 0, 101, 0
2, 58126, Control_c, 0, 64, 127
2, 58147, Note_on_c, 0, 93, 49
2, 58169, Note_on_c, 0, 91, 28
2, 58211, Note_on_c, 0, 93, 0
2, 58221, Note_on_c, 0, 91, 0
2, 58511, Note_on_c, 0, 91, 44
2, 58728, Note_on_c, 0, 91, 0
2, 58804, Note_on_c, 0, 100, 0
2, 58895, Note_on_c, 0, 91, 34
2, 59038, Note_on_c, 0, 91, 0
2, 59150, Note_on_c, 0, 55, 0
2, 59215, Note_on_c, 0, 91, 48
2, 59238, Note_on_c, 0, 59, 0
2, 59329, Note_on_c, 0, 91, 0
2, 59342, Note_on_c, 0, 62, 0
2, 59424, Note_on_c, 0, 52, 0
2, 59504, Note_on_c, 0, 91, 75
2, 59641, Note_on_c, 0, 91, 0
2, 59687, Note_on_c, 0, 91, 68
2, 59799, Note_on_c, 0, 91, 0
2, 59867, Note_on_c, 0, 91, 64
2, 60113, Note_on_c, 0, 91, 0
2, 60175, Note_on_c, 0, 91, 38
2, 60357, Note_on_c, 0, 91, 0
2, 60487, Note_on_c, 0, 91, 55
2, 60609, Note_on_c, 0, 91, 0
2, 60664, Note_on_c, 0, 91, 47
2, 60744, Note_on_c, 0, 91, 0
2, 60917, Note_on_c, 0, 91, 72
2, 61033, Note_on_c, 0, 91, 0
2, 61069, Note_on_c, 0, 91, 62
2, 61142, Note_on_c, 0, 91, 0
2, 61187, Note_on_c, 0, 91, 63
2, 61270, Note_on_c, 0, 91, 0
2, 61310, Note_on_c, 0, 91, 71
2, 61391, Note_on_c, 0, 91, 0
2, 61409, Control_c, 0, 64, 0
2, 61414, Note_on_c, 0, 53, 28
2, 61421, Note_on_c, 0, 62, 38
2, 61424, Note_on_c, 0, 58, 49
2, 61434, Note_on_c, 0, 57, 46
2, 61437, Note_on_c, 0, 91, 62
2, 61640, Control_c, 0, 64, 127
2, 61699, Note_on_c, 0, 89, 54
2, 61711, Note_on_c, 0, 91, 0
2, 61848, Note_on_c, 0, 89, 0
2, 61940, Note_on_c, 0, 89, 46
2, 62843, Note_on_c, 0, 89, 0
2, 62930, Note_on_c, 0, 57, 0
2, 62985, Note_on_c, 0, 53, 0
2, 63000, Note_on_c, 0, 62, 0
2, 63002, Note_on_c, 0, 58, 0
2, 63072, Note_on_c, 0, 89, 95
2, 63195, Note_on_c, 0, 89, 0
2, 63225, Note_on_c, 0, 91, 80
2, 63355, Note_on_c, 0, 91, 0
2, 63374, Note_on_c, 0, 61, 42
2, 63377, Note_on_c, 0, 58, 31
2, 63385, Note_on_c, 0, 64, 40
2, 63387, Control_c, 0, 64, 0
2, 63391, Note_on_c, 0, 88, 63
2, 63594, Control_c, 0, 64, 127
2, 63836, Note_on_c, 0, 85, 65
2, 63894, Note_on_c, 0, 88, 0
2, 64353, Note_on_c, 0, 76, 55
2, 64486, Note_on_c, 0, 85, 0
2, 64896, Note_on_c, 0, 76, 0
2, 64904, Note_on_c, 0, 64, 0
2, 64971, Note_on_c, 0, 61, 0
2, 64979, Note_on_c, 0, 73, 43
2, 65040, Note_on_c, 0, 58, 0
2, 65143, Note_on_c, 0, 70, 55
2, 65171, Note_on_c, 0, 73, 0
2, 65300, Note_on_c, 0, 70, 0
2, 65325, Note_on_c, 0, 61, 35
2, 65332, Note_on_c, 0, 53, 31
2, 65346, Note_on_c, 0, 69, 55
2, 65350, Control_c, 0, 64, 0
2, 65566, Control_c, 0, 64, 127
2, 65679, Note_on_c, 0, 73, 45
2, 65681, Note_on_c, 0, 69, 0
2, 65745, Note_on_c, 0, 73, 0
2, 65803, Note_on_c, 0, 74, 44
2, 65817, Note_on_c, 0, 76, 43
2, 65878, Note_on_c, 0, 74, 0
2, 65886, Note_on_c, 0, 76, 0
2, 65925, Note_on_c, 0, 81, 74
2, 66027, Note_on_c, 0, 81, 0
2, 66044, Note_on_c, 0, 88, 71
2, 66099, Note_on_c, 0, 88, 0
2, 66180, Note_on_c, 0, 93, 85
2, 66301, Note_on_c, 0, 97, 93
2, 66336, Note_on_c, 0, 93, 0
2, 66413, Note_on_c, 0, 97, 0
2, 66425, Note_on_c, 0, 100, 87
2, 66570, Note_on_c, 0, 97, 75
2, 66580, Note_on_c, 0, 100, 0
2, 66668, Note_on_c, 0, 97, 0
2, 66728, Note_on_c, 0, 98, 64
2, 66875, Note_on_c, 0, 98, 0
2, 66904, Note_on_c, 0, 93, 55
2, 67027, Note_on_c, 0, 93, 0
2, 67061, Note_on_c, 0, 96, 53
2, 67273, Note_on_c, 0, 88, 49
2, 67297, Note_on_c, 0, 96, 0
2, 67446, Note_on_c, 0, 88, 0
2, 67512, Note_on_c, 0, 88, 43
2, 67677, Note_on_c, 0, 88, 0
2, 67688, Note_on_c, 0, 93, 51
2, 67873, Note_on_c, 0, 93, 0
2, 67890, Note_on_c, 0, 84, 40
2, 67986, Note_on_c, 0, 84, 0
2, 68167, Note_on_c, 0, 64, 28
2, 68185, Note_on_c, 0, 84, 37
2, 68509, Note_on_c, 0, 84, 0
2, 68736, Note_on_c, 0, 64, 0
2, 68747, Note_on_c, 0, 53, 0
2, 68747, Note_on_c, 0, 61, 0
2, 68841, Note_on_c, 0, 86, 101
2, 68944, Note_on_c, 0, 88, 68
2, 68959, Note_on_c, 0, 86, 0
2, 69026, Note_on_c, 0, 86, 61
2, 69046, Note_on_c, 0, 88, 0
2, 69098, Note_on_c, 0, 85, 67
2, 69109, Note_on_c, 0, 86, 0
2, 69135, Note_on_c, 0, 57, 33
2, 69138, Note_on_c, 0, 62, 46
2, 69139, Note_on_c, 0, 58, 49
2, 69150, Note_on_c, 0, 52, 34
2, 69161, Control_c, 0, 64, 0
2, 69163, Note_on_c, 0, 85, 0
2, 69213, Note_on_c, 0, 86, 78
2, 69458, Note_on_c, 0, 88, 56
2, 69483, Note_on_c, 0, 86, 0
2, 69623, Control_c, 0, 64, 127
2, 69649, Note_on_c, 0, 88, 0
2, 69717, Note_on_c, 0, 88, 43
2, 70206, Note_on_c, 0, 88, 0
2, 70344, Note_on_c, 0, 62, 0
2, 70416, Note_on_c, 0, 58, 0
2, 70479, Note_on_c, 0, 57, 0
2, 70508, Note_on_c, 0, 52, 0
2, 70655, Note_on_c, 0, 60, 61
2, 70752, Note_on_c, 0, 60, 0
2, 70775, Note_on_c, 0, 61, 72
2, 70834, Note_on_c, 0, 61, 0
2, 70911, Note_on_c, 0, 65, 74
2, 71001, Note_on_c, 0, 65, 0
2, 71049, Note_on_c, 0, 70, 75
2, 71073, Control_c, 0, 64, 0
2, 71088, Note_on_c, 0, 66, 38
2, 71092, Note_on_c, 0, 55, 53
2, 71092, Note_on_c, 0, 61, 48
2, 71120, Note_on_c, 0, 70, 0
2, 71181, Note_on_c, 0, 72, 55
2, 71308, Note_on_c, 0, 77, 53
2, 71309, Note_on_c, 0, 72, 0
2, 71432, Note_on_c, 0, 82, 46
2, 71536, Note_on_c, 0, 82, 0
2, 71569, Note_on_c, 0, 84, 61
2, 71593, Note_on_c, 0, 77, 0
2, 71678, Note_on_c, 0, 84, 0
2, 71707, Control_c, 0, 64, 127
2, 71725, Note_on_c, 0, 82, 53
2, 72338, Note_on_c, 0, 66, 0
2, 72359, Note_on_c, 0, 82, 0
2, 72407, Note_on_c, 0, 79, 67
2, 72478, Note_on_c, 0, 61, 0
2, 72487, Note_on_c, 0, 55, 0
2, 72609, Note_on_c, 0, 79, 0
2, 72623, Note_on_c, 0, 76, 51
2, 72721, Note_on_c, 0, 76, 0
2, 72758, Note_on_c, 0, 79, 60
2, 72878, Note_on_c, 0, 79, 0
2, 72910, Note_on_c, 0, 77, 51
2, 72927, Note_on_c, 0, 57, 30
2, 72930, Note_on_c, 0, 60, 30
2, 72934, Note_on_c, 0, 53, 35
2, 72950, Note_on_c, 0, 50, 19
2, 72956, Control_c, 0, 64, 0
2, 73267, Control_c, 0, 64, 127
2, 73440, Note_on_c, 0, 69, 45
2, 73675, Note_on_c, 0, 69, 0
2, 73867, Note_on_c, 0, 69, 48
2, 73945, Note_on_c, 0, 60, 0
2, 73952, Note_on_c, 0, 53, 0
2, 73973, Note_on_c, 0, 57, 0
2, 74016, Note_on_c, 0, 50, 0
2, 74813, Note_on_c, 0, 69, 0
2, 74844, Note_on_c, 0, 65, 51
2, 74850, Note_on_c, 0, 61, 35
2, 74854, Note_on_c, 0, 60, 47
2, 74857, Note_on_c, 0, 55, 44
2, 74875, Control_c, 0, 64, 0
2, 75071, Control_c, 0, 64, 127
2, 75209, Note_on_c, 0, 77, 0
2, 75211, Note_on_c, 0, 72, 73
2, 75345, Note_on_c, 0, 73, 74
2, 75376, Note_on_c, 0, 72, 0
2, 75415, Note_on_c, 0, 73, 0
2, 75480, Note_on_c, 0, 77, 75
2, 75601, Note_on_c, 0, 77, 0
2, 75611, Note_on_c, 0, 82, 76
2, 75676, Note_on_c, 0, 82, 0
2, 75778, Note_on_c, 0, 84, 74
2, 75921, Note_on_c, 0, 89, 75
2, 76074, Note_on_c, 0, 94, 84
2, 76234, Note_on_c, 0, 89, 0
2, 76249, Note_on_c, 0, 96, 77
2, 76255, Note_on_c, 0, 94, 0
2, 76267, Note_on_c, 0, 84, 0
2, 76372, Note_on_c, 0, 65, 0
2, 76372, Note_on_c, 0, 60, 0
2, 76398, Note_on_c, 0, 61, 0
2, 76421, Note_on_c, 0, 55, 0
2, 76435, Note_on_c, 0, 93, 74
2, 76439, Note_on_c, 0, 96, 0
2, 76584, Note_on_c, 0, 91, 66
2, 76603, Note_on_c, 0, 93, 0
2, 76709, Note_on_c, 0, 91, 0
2, 76730, Note_on_c, 0, 89, 47
2, 76739, Note_on_c, 0, 50, 36
2, 76741, Note_on_c, 0, 53, 37
2, 76749, Note_on_c, 0, 57, 40
2, 76753, Note_on_c, 0, 60, 30
2, 76774, Control_c, 0, 64, 0
2, 77042, Control_c, 0, 64, 127
2, 77091, Note_on_c, 0, 91, 64
2, 77124, Note_on_c, 0, 89, 0
2, 77499, Note_on_c, 0, 91, 0
2, 77616, Note_on_c, 0, 91, 94
2, 77775, Note_on_c, 0, 91, 0
2, 77881, Note_on_c, 0, 93, 110
2, 78073, Note_on_c, 0, 93, 0
2, 78204, Note_on_c, 0, 93, 105
2, 78363, Note_on_c, 0, 93, 0
2, 78469, Note_on_c, 0, 93, 91
2, 78473, Note_on_c, 0, 53, 0
2, 78501, Note_on_c, 0, 60, 0
2, 78502, Note_on_c, 0, 57, 0
2, 78503, Note_on_c, 0, 50, 0
2, 78593, Note_on_c, 0, 93, 0
2, 78604, Note_on_c, 0, 92, 67
2, 78728, Note_on_c, 0, 92, 0
2, 78785, Note_on_c, 0, 54, 34
2, 78790, Note_on_c, 0, 93, 66
2, 78792, Note_on_c, 0, 51, 37
2, 78794, Note_on_c, 0, 60, 35
2, 78817, Control_c, 0, 64, 0
2, 79011, Control_c, 0, 64, 127
2, 79184, Note_on_c, 0, 93, 0
2, 79420, Note_on_c, 0, 60, 0
2, 79722, Note_on_c, 0, 60, 27
2, 80215, Note_on_c, 0, 54, 0
2, 80216, Note_on_c, 0, 51, 0
2, 80248, Note_on_c, 0, 60, 0
2, 80504, Note_on_c, 0, 83, 64
2, 80627, Note_on_c, 0, 83, 0
2, 80763, Note_on_c, 0, 83, 73
2, 80786, Control_c, 0, 64, 0
2, 80788, Note_on_c, 0, 55, 42
2, 80790, Note_on_c, 0, 74, 68
2, 80792, Note_on_c, 0, 64, 37
2, 80946, Control_c, 0, 64, 127
2, 81003, Note_on_c, 0, 74, 0
2, 81005, Note_on_c, 0, 83, 0
2, 81081, Note_on_c, 0, 84, 82
2, 81101, Note_on_c, 0, 76, 71
2, 81247, Note_on_c, 0, 84, 0
2, 81268, Note_on_c, 0, 76, 0
2, 81326, Note_on_c, 0, 64, 0
2, 81373, Note_on_c, 0, 84, 73
2, 81414, Note_on_c, 0, 76, 61
2, 81545, Note_on_c, 0, 84, 0
2, 81575, Note_on_c, 0, 76, 0
2, 81720, Note_on_c, 0, 76, 44
2, 81736, Note_on_c, 0, 64, 25
2, 81774, Note_on_c, 0, 84, 63
2, 81924, Note_on_c, 0, 84, 0
2, 81926, Note_on_c, 0, 76, 0
2, 82029, Note_on_c, 0, 74, 46
2, 82061, Note_on_c, 0, 83, 49
2, 82173, Note_on_c, 0, 74, 0
2, 82213, Note_on_c, 0, 83, 0
2, 82238, Note_on_c, 0, 64, 0
2, 82285, Note_on_c, 0, 74, 40
2, 82316, Note_on_c, 0, 83, 47
2, 82387, Note_on_c, 0, 74, 0
2, 82440, Note_on_c, 0, 83, 0
2, 82498, Note_on_c, 0, 74, 44
2, 82540, Note_on_c, 0, 83, 46
2, 82587, Note_on_c, 0, 74, 0
2, 82655, Note_on_c, 0, 83, 0
2, 82703, Note_on_c, 0, 74, 49
2, 82749, Note_on_c, 0, 64, 22
2, 82768, Note_on_c, 0, 83, 45
2, 82840, Note_on_c, 0, 74, 0
2, 82898, Note_on_c, 0, 83, 0
2, 82940, Note_on_c, 0, 76, 44
2, 82982, Note_on_c, 0, 84, 51
2, 83113, Note_on_c, 0, 76, 0
2, 83162, Note_on_c, 0, 84, 0
2, 83233, Note_on_c, 0, 76, 47
2, 83286, Note_on_c, 0, 64, 0
2, 83286, Note_on_c, 0, 84, 40
2, 83864, Note_on_c, 0, 76, 0
2, 83923, Note_on_c, 0, 84, 0
2, 84050, Note_on_c, 0, 55, 0
2, 84185, Note_on_c, 0, 83, 99
2, 84312, Note_on_c, 0, 84, 69
2, 84339, Note_on_c, 0, 83, 0
2, 84399, Note_on_c, 0, 84, 0
2, 84405, Note_on_c, 0, 83, 68
2, 84486, Note_on_c, 0, 82, 64
2, 84499, Note_on_c, 0, 83, 0
2, 84534, Note_on_c, 0, 62, 31
2, 84535, Note_on_c, 0, 57, 36
2, 84542, Note_on_c, 0, 67, 40
2, 84545, Note_on_c, 0, 63, 35
2, 84563, Note_on_c, 0, 82, 0
2, 84568, Control_c, 0, 64, 0
2, 84609, Note_on_c, 0, 83, 66
2, 84828, Control_c, 0, 64, 127
2, 85002, Note_on_c, 0, 67, 0
2, 85017, Note_on_c, 0, 63, 0
2, 85030, Note_on_c, 0, 62, 0
2, 85066, Note_on_c, 0, 83, 0
2, 85117, Note_on_c, 0, 57, 0
2, 85941, Note_on_c, 0, 48, 45
2, 85949, Note_on_c, 0, 71, 79
2, 85955, Note_on_c, 0, 41, 36
2, 85959, Note_on_c, 0, 63, 79
2, 85960, Note_on_c, 0, 67, 79
2, 85969, Note_on_c, 0, 57, 62
2, 85980, Control_c, 0, 64, 0
2, 86211, Control_c, 0, 64, 127
2, 86335, Note_on_c, 0, 71, 0
2, 86344, Note_on_c, 0, 67, 0
2, 86347, Note_on_c, 0, 63, 0
2, 86460, Note_on_c, 0, 71, 65
2, 86463, Note_on_c, 0, 63, 57
2, 86464, Note_on_c, 0, 67, 65
2, 86526, Note_on_c, 0, 57, 0
2, 86879, Note_on_c, 0, 71, 0
2, 86898, Note_on_c, 0, 72, 61
2, 86945, Note_on_c, 0, 57, 30
2, 87138, Note_on_c, 0, 57, 0
2, 87205, Note_on_c, 0, 63, 0
2, 87206, Note_on_c, 0, 67, 0
2, 87255, Note_on_c, 0, 72, 0
2, 87358, Note_on_c, 0, 72, 35
2, 87361, Note_on_c, 0, 63, 42
2, 87376, Note_on_c, 0, 67, 47
2, 87393, Note_on_c, 0, 57, 29
2, 87524, Note_on_c, 0, 63, 0
2, 87584, Note_on_c, 0, 67, 0
2, 87605, Note_on_c, 0, 41, 0
2, 87629, Note_on_c, 0, 48, 0
2, 87639, Note_on_c, 0, 57, 0
2, 87692, Note_on_c, 0, 72, 0
2, 88097, Note_on_c, 0, 86, 74
2, 88211, Note_on_c, 0, 86, 0
2, 88358, Note_on_c, 0, 84, 57
2, 88363, Note_on_c, 0, 56, 36
2, 88366, Note_on_c, 0, 76, 41
2, 88375, Note_on_c, 0, 67, 30
2, 88387, Note_on_c, 0, 62, 44
2, 88391, Control_c, 0, 64, 0
2, 88587, Control_c, 0, 64, 127
2, 89005, Note_on_c, 0, 76, 0
2, 89117, Note_on_c, 0, 84, 0
2, 89524, Note_on_c, 0, 95, 105
2, 89627, Note_on_c, 0, 95, 0
2, 89669, Note_on_c, 0, 98, 92
2, 89729, Note_on_c, 0, 67, 0
2, 89782, Note_on_c, 0, 98, 0
2, 89817, Note_on_c, 0, 96, 85
2, 89824, Note_on_c, 0, 62, 0
2, 89833, Note_on_c, 0, 56, 0
2, 89922, Note_on_c, 0, 96, 0
2, 89960, Note_on_c, 0, 92, 80
2, 90061, Note_on_c, 0, 92, 0
2, 90090, Note_on_c, 0, 95, 74
2, 90230, Note_on_c, 0, 62, 43
2, 90231, Note_on_c, 0, 65, 49
2, 90232, Note_on_c, 0, 93, 71
2, 90242, Note_on_c, 0, 56, 34
2, 90252, Control_c, 0, 64, 0
2, 90259, Note_on_c, 0, 95, 0
2, 90333, Note_on_c, 0, 93, 0
2, 90375, Note_on_c, 0, 89, 32
2, 90460, Note_on_c, 0, 89, 0
2, 90594, Control_c, 0, 64, 127
2, 90635, Note_on_c, 0, 84, 1
2, 90712, Note_on_c, 0, 84, 0
2, 91104, Note_on_c, 0, 65, 0
2, 91192, Note_on_c, 0, 62, 0
2, 91289, Note_on_c, 0, 65, 36
2, 91307, Note_on_c, 0, 62, 22
2, 91663, Note_on_c, 0, 62, 0
2, 91681, Note_on_c, 0, 80, 33
2, 91709, Note_on_c, 0, 65, 0
2, 91792, Note_on_c, 0, 56, 0
2, 91803, Note_on_c, 0, 82, 49
2, 91816, Note_on_c, 0, 80, 0
2, 91877, Note_on_c, 0, 82, 0
2, 91898, Note_on_c, 0, 83, 71
2, 91964, Note_on_c, 0, 83, 0
2, 92015, Note_on_c, 0, 86, 103
2, 92117, Note_on_c, 0, 86, 0
2, 92136, Note_on_c, 0, 83, 71
2, 92174, Control_c, 0, 64, 0
2, 92183, Note_on_c, 0, 60, 40
2, 92190, Note_on_c, 0, 59, 33
2, 92193, Note_on_c, 0, 64, 29
2, 92220, Note_on_c, 0, 83, 0
2, 92248, Note_on_c, 0, 84, 75
2, 92347, Note_on_c, 0, 84, 0
2, 92367, Note_on_c, 0, 80, 52
2, 92442, Note_on_c, 0, 80, 0
2, 92483, Note_on_c, 0, 83, 57
2, 92592, Note_on_c, 0, 81, 53
2, 92605, Note_on_c, 0, 83, 0
2, 92662, Note_on_c, 0, 81, 0
2, 92691, Note_on_c, 0, 76, 42
2, 92754, Note_on_c, 0, 76, 0
2, 92766, Control_c, 0, 64, 127
2, 92766, Note_on_c, 0, 74, 54
2, 92880, Note_on_c, 0, 74, 0
2, 92911, Note_on_c, 0, 72, 35
2, 92923, Note_on_c, 0, 64, 0
2, 92980, Note_on_c, 0, 72, 0
2, 92998, Note_on_c, 0, 71, 57
2, 93009, Note_on_c, 0, 60, 0
2, 93070, Note_on_c, 0, 71, 0
2, 93101, Note_on_c, 0, 74, 58
2, 93116, Note_on_c, 0, 60, 18
2, 93125, Note_on_c, 0, 64, 28
2, 93155, Control_c, 0, 64, 0
2, 93200, Note_on_c, 0, 71, 36
2, 93202, Note_on_c, 0, 74, 0
2, 93292, Note_on_c, 0, 71, 0
2, 93328, Note_on_c, 0, 72, 55
2, 93357, Control_c, 0, 64, 127
2, 93432, Note_on_c, 0, 64, 0
2, 93571, Note_on_c, 0, 69, 54
2, 93580, Note_on_c, 0, 72, 0
2, 93693, Note_on_c, 0, 60, 0
2, 93727, Note_on_c, 0, 69, 0
2, 93756, Note_on_c, 0, 64, 51
2, 93761, Note_on_c, 0, 59, 0
2, 93843, Note_on_c, 0, 64, 0
2, 93941, Note_on_c, 0, 64, 57
2, 94108, Note_on_c, 0, 64, 0
2, 94167, Note_on_c, 0, 62, 56
2, 94258, Note_on_c, 0, 62, 0
2, 94321, Note_on_c, 0, 62, 58
2, 94471, Note_on_c, 0, 62, 0
2, 94503, Note_on_c, 0, 60, 47
2, 94628, Note_on_c, 0, 60, 0
2, 94722, Note_on_c, 0, 60, 41
2, 95391, Note_on_c, 0, 60, 0
2, 95716, Note_on_c, 0, 71, 64
2, 95795, Note_on_c, 0, 71, 0
2, 95846, Note_on_c, 0, 74, 51
2, 95951, Note_on_c, 0, 74, 0
2, 96009, Note_on_c, 0, 72, 36
2, 96015, Note_on_c, 0, 59, 36
2, 96016, Note_on_c, 0, 64, 35
2, 96017, Note_on_c, 0, 57, 31
2, 96024, Note_on_c, 0, 60, 44
2, 96033, Control_c, 0, 64, 0
2, 96242, Control_c, 0, 64, 127
2, 96484, Note_on_c, 0, 72, 0
2, 96490, Note_on_c, 0, 60, 0
2, 96509, Note_on_c, 0, 64, 0
2, 96520, Note_on_c, 0, 59, 0
2, 96537, Note_on_c, 0, 57, 0
2, 97184, Note_on_c, 0, 84, 68
2, 97215, Note_on_c, 0, 79, 68
2, 97225, Note_on_c, 0, 64, 51
2, 97230, Note_on_c, 0, 59, 45
2, 97233, Control_c, 0, 64, 0
2, 97233, Note_on_c, 0, 74, 31
2, 97237, Note_on_c, 0, 57, 36
2, 97238, Note_on_c, 0, 60, 35
2, 97326, Control_c, 0, 64, 127
2, 97423, Note_on_c, 0, 60, 0
2, 97435, Note_on_c, 0, 59, 0
2, 97446, Note_on_c, 0, 74, 0
2, 97470, Note_on_c, 0, 79, 0
2, 97472, Note_on_c, 0, 64, 0
2, 97474, Note_on_c, 0, 57, 0
2, 97483, Note_on_c, 0, 84, 0
2, 97680, Note_on_c, 0, 86, 74
2, 97811, Note_on_c, 0, 86, 0
2, 98019, Note_on_c, 0, 86, 62
2, 98039, Note_on_c, 0, 64, 34
2, 98040, Note_on_c, 0, 79, 42
2, 98042, Note_on_c, 0, 57, 43
2, 98045, Note_on_c, 0, 74, 36
2, 98045, Note_on_c, 0, 60, 40
2, 98055, Control_c, 0, 64, 0
2, 98308, Control_c, 0, 64, 127
2, 98361, Note_on_c, 0, 56, 53
2, 98381, Note_on_c, 0, 57, 0
2, 98667, Note_on_c, 0, 79, 0
2, 98675, Note_on_c, 0, 56, 0
2, 98687, Note_on_c, 0, 74, 0
2, 98700, Note_on_c, 0, 60, 0
2, 98764, Note_on_c, 0, 64, 0
2, 98766, Note_on_c, 0, 86, 0
2, 98922, Note_on_c, 0, 86, 57
2, 98941, Note_on_c, 0, 79, 36
2, 98942, Note_on_c, 0, 74, 35
2, 98943, Control_c, 0, 64, 0
2, 98947, Note_on_c, 0, 55, 32
2, 98949, Note_on_c, 0, 60, 33
2, 98962, Note_on_c, 0, 64, 25
2, 99114, Control_c, 0, 64, 127
2, 99416, Note_on_c, 0, 74, 0
2, 99417, Note_on_c, 0, 86, 0
2, 99459, Note_on_c, 0, 79, 0
2, 99663, Note_on_c, 0, 64, 0
2, 99670, Note_on_c, 0, 83, 80
2, 99690, Note_on_c, 0, 55, 0
2, 99795, Note_on_c, 0, 60, 0
2, 99858, Note_on_c, 0, 83, 0
2, 99931, Control_c, 0, 64, 0
2, 99934, Note_on_c, 0, 54, 46
2, 99935, Note_on_c, 0, 83, 53
2, 99939, Note_on_c, 0, 60, 27
2, 99947, Note_on_c, 0, 64, 36
2, 100083, Control_c, 0, 64, 127
2, 100196, Note_on_c, 0, 84, 63
2, 100417, Note_on_c, 0, 64, 0
2, 100438, Note_on_c, 0, 60, 0
2, 100480, Note_on_c, 0, 84, 0
2, 100541, Note_on_c, 0, 83, 0
2, 100656, Note_on_c, 0, 54, 0
2, 101724, Note_on_c, 0, 84, 80
2, 101732, Note_on_c, 0, 60, 63
2, 101735, Control_c, 0, 64, 0
2, 101741, Note_on_c, 0, 61, 49
2, 101743, Note_on_c, 0, 55, 64
2, 101744, Note_on_c, 0, 65, 62
2, 101746, Note_on_c, 0, 72, 80
2, 101752, Note_on_c, 0, 82, 39
2, 101765, Note_on_c, 0, 83, 35
2, 101776, Note_on_c, 0, 82, 0
2, 101797, Note_on_c, 0, 83, 0
2, 101864, Control_c, 0, 64, 127
2, 101996, Note_on_c, 0, 55, 0
2, 102001, Note_on_c, 0, 60, 0
2, 102021, Note_on_c, 0, 72, 0
2, 102022, Note_on_c, 0, 65, 0
2, 102043, Note_on_c, 0, 84, 0
2, 102123, Note_on_c, 0, 61, 0
2, 102226, Note_on_c, 0, 54, 39
2, 102228, Note_on_c, 0, 86, 80
2, 102231, Note_on_c, 0, 60, 53
2, 102238, Note_on_c, 0, 59, 51
2, 102239, Control_c, 0, 64, 0
2, 102245, Note_on_c, 0, 64, 56
2, 102246, Note_on_c, 0, 74, 76
2, 102251, Note_on_c, 0, 81, 62
2, 102438, Control_c, 0, 64, 127
2, 102547, Note_on_c, 0, 60, 0
2, 102550, Note_on_c, 0, 59, 0
2, 102555, Note_on_c, 0, 64, 0
2, 102601, Note_on_c, 0, 74, 0
2, 102607, Note_on_c, 0, 86, 0
2, 102624, Note_on_c, 0, 81, 0
2, 102707, Note_on_c, 0, 86, 58
2, 102713, Note_on_c, 0, 74, 48
2, 102717, Note_on_c, 0, 81, 37
2, 102718, Note_on_c, 0, 64, 26
2, 102719, Note_on_c, 0, 59, 38
2, 102724, Note_on_c, 0, 60, 40
2, 103271, Note_on_c, 0, 59, 0
2, 103288, Note_on_c, 0, 60, 0
2, 103303, Note_on_c, 0, 64, 0
2, 103308, Note_on_c, 0, 86, 0
2, 103316, Note_on_c, 0, 54, 0
2, 103333, Note_on_c, 0, 74, 0
2, 103395, Note_on_c, 0, 81, 0
2, 103419, Note_on_c, 0, 86, 66
2, 103525, Note_on_c, 0, 86, 0
2, 103674, Control_c, 0, 64, 0
2, 103692, Note_on_c, 0, 86, 62
2, 103702, Note_on_c, 0, 50, 26
2, 103702, Note_on_c, 0, 53, 36
2, 103710, Note_on_c, 0, 74, 37
2, 103712, Note_on_c, 0, 57, 35
2, 103713, Note_on_c, 0, 60, 25
2, 103863, Control_c, 0, 64, 127
2, 103993, Note_on_c, 0, 86, 0
2, 104120, Note_on_c, 0, 74, 0
2, 104870, Note_on_c, 0, 69, 84
2, 104917, Note_on_c, 0, 53, 0
2, 104918, Note_on_c, 0, 57, 0
2, 104936, Note_on_c, 0, 50, 0
2, 104959, Note_on_c, 0, 69, 0
2, 104981, Note_on_c, 0, 60, 0
2, 105030, Note_on_c, 0, 72, 95
2, 105155, Note_on_c, 0, 72, 0
2, 105214, Note_on_c, 0, 71, 99
2, 105227, Control_c, 0, 64, 0
2, 105228, Note_on_c, 0, 62, 68
2, 105233, Note_on_c, 0, 52, 57
2, 105234, Note_on_c, 0, 59, 57
2, 105240, Note_on_c, 0, 55, 58
2, 105336, Control_c, 0, 64, 127
2, 105448, Note_on_c, 0, 71, 0
2, 105455, Note_on_c, 0, 62, 0
2, 105460, Note_on_c, 0, 59, 0
2, 105473, Note_on_c, 0, 55, 0
2, 105496, Note_on_c, 0, 52, 0
2, 105536, Note_on_c, 0, 71, 83
2, 105544, Note_on_c, 0, 52, 37
2, 105549, Note_on_c, 0, 59, 54
2, 105551, Note_on_c, 0, 62, 53
2, 105553, Control_c, 0, 64, 0
2, 105553, Note_on_c, 0, 55, 42
2, 105841, Control_c, 0, 64, 127
2, 105893, Note_on_c, 0, 55, 0
2, 105907, Note_on_c, 0, 59, 0
2, 105912, Note_on_c, 0, 52, 0
2, 105943, Note_on_c, 0, 62, 0
2, 106066, Note_on_c, 0, 53, 36
2, 106066, Note_on_c, 0, 60, 35
2, 106069, Note_on_c, 0, 57, 52
2, 106077, Note_on_c, 0, 69, 68
2, 106079, Control_c, 0, 64, 0
2, 106091, Note_on_c, 0, 64, 30
2, 106122, Note_on_c, 0, 71, 0
2, 106310, Control_c, 0, 64, 127
2, 106582, Note_on_c, 0, 64, 0
2, 106696, Note_on_c, 0, 71, 1
2, 106697, Note_on_c, 0, 60, 0
2, 106739, Note_on_c, 0, 57, 0
2, 106775, Note_on_c, 0, 53, 0
2, 106975, Note_on_c, 0, 71, 0
2, 107041, Note_on_c, 0, 54, 42
2, 107044, Control_c, 0, 64, 0
2, 107046, Note_on_c, 0, 63, 46
2, 107047, Note_on_c, 0, 66, 57
2, 107052, Note_on_c, 0, 60, 35
2, 107204, Control_c, 0, 64, 127
2, 107271, Note_on_c, 0, 60, 0
2, 107310, Note_on_c, 0, 63, 0
2, 107318, Note_on_c, 0, 69, 0
2, 107323, Note_on_c, 0, 54, 0
2, 107355, Note_on_c, 0, 66, 0
2, 107514, Note_on_c, 0, 65, 58
2, 107517, Control_c, 0, 64, 0
2, 107523, Note_on_c, 0, 62, 39
2, 107534, Note_on_c, 0, 55, 41
2, 107543, Note_on_c, 0, 60, 32
2, 107723, Control_c, 0, 64, 127
2, 107761, Note_on_c, 0, 60, 0
2, 107834, Note_on_c, 0, 65, 0
2, 107853, Note_on_c, 0, 55, 0
2, 107876, Note_on_c, 0, 62, 0
2, 108034, Note_on_c, 0, 57, 79
2, 108321, Note_on_c, 0, 57, 0
2, 108522, Note_on_c, 0, 57, 53
2, 108525, Note_on_c, 0, 53, 44
2, 108528, Note_on_c, 0, 60, 54
2, 108571, Note_on_c, 0, 50, 17
2, 108617, Note_on_c, 0, 50, 0
2, 109000, Note_on_c, 0, 43, 45
2, 109030, Note_on_c, 0, 53, 0
2, 109202, Note_on_c, 0, 57, 0
2, 109231, Note_on_c, 0, 60, 0
2, 109455, Control_c, 0, 64, 0
2, 109456, Note_on_c, 0, 62, 57
2, 109458, Note_on_c, 0, 56, 34
2, 109465, Note_on_c, 0, 59, 50
2, 109470, Note_on_c, 0, 53, 31
2, 109746, Control_c, 0, 64, 127
2, 109935, Note_on_c, 0, 56, 0
2, 109957, Note_on_c, 0, 59, 0
2, 110051, Note_on_c, 0, 62, 0
2, 110472, Note_on_c, 0, 43, 0
2, 110557, Note_on_c, 0, 53, 0
2, 111038, Note_on_c, 0, 88, 37
2, 111131, Note_on_c, 0, 88, 0
2, 111179, Note_on_c, 0, 93, 59
2, 111272, Note_on_c, 0, 93, 0
2, 111334, Note_on_c, 0, 91, 58
2, 111339, Note_on_c, 0, 67, 36
2, 111348, Note_on_c, 0, 64, 40
2, 111354, Control_c, 0, 64, 0
2, 111360, Note_on_c, 0, 62, 30
2, 111534, Control_c, 0, 64, 127
2, 111543, Note_on_c, 0, 67, 0
2, 111744, Note_on_c, 0, 55, 48
2, 111959, Note_on_c, 0, 62, 0
2, 111965, Note_on_c, 0, 64, 0
2, 112235, Note_on_c, 0, 67, 49
2, 112239, Note_on_c, 0, 64, 37
2, 112256, Note_on_c, 0, 62, 28
2, 112693, Note_on_c, 0, 67, 0
2, 112723, Note_on_c, 0, 62, 0
2, 112724, Note_on_c, 0, 64, 0
2, 112803, Note_on_c, 0, 91, 0
2, 112928, Note_on_c, 0, 55, 0
2, 113066, Note_on_c, 0, 96, 99
2, 113235, Note_on_c, 0, 96, 0
2, 113317, Note_on_c, 0, 96, 79
2, 113337, Note_on_c, 0, 55, 56
2, 113340, Note_on_c, 0, 65, 66
2, 113342, Note_on_c, 0, 60, 52
2, 113342, Note_on_c, 0, 89, 82
2, 113346, Control_c, 0, 64, 0
2, 113349, Note_on_c, 0, 61, 53
2, 113356, Note_on_c, 0, 84, 69
2, 113547, Control_c, 0, 64, 127
2, 113953, Note_on_c, 0, 60, 0
2, 114002, Note_on_c, 0, 65, 0
2, 114006, Note_on_c, 0, 61, 0
2, 114069, Note_on_c, 0, 89, 0
2, 114094, Note_on_c, 0, 84, 0
2, 114116, Note_on_c, 0, 96, 0
2, 114257, Note_on_c, 0, 96, 48
2, 114267, Note_on_c, 0, 61, 32
2, 114270, Note_on_c, 0, 65, 43
2, 114274, Note_on_c, 0, 60, 34
2, 114293, Note_on_c, 0, 84, 36
2, 114298, Note_on_c, 0, 89, 32
2, 114887, Note_on_c, 0, 84, 0
2, 114887, Note_on_c, 0, 55, 0
2, 114892, Note_on_c, 0, 89, 0
2, 114902, Note_on_c, 0, 60, 0
2, 114928, Note_on_c, 0, 65, 0
2, 114936, Note_on_c, 0, 96, 0
2, 114952, Note_on_c, 0, 61, 0
2, 114998, Note_on_c, 0, 93, 66
2, 115109, Note_on_c, 0, 93, 0
2, 115237, Note_on_c, 0, 55, 46
2, 115248, Note_on_c, 0, 65, 35
2, 115252, Control_c, 0, 64, 0
2, 115254, Note_on_c, 0, 93, 62
2, 115257, Note_on_c, 0, 57, 42
2, 115258, Note_on_c, 0, 60, 37
2, 115495, Note_on_c, 0, 96, 50
2, 115526, Control_c, 0, 64, 127
2, 115553, Note_on_c, 0, 93, 0
2, 115731, Note_on_c, 0, 96, 0
2, 115773, Note_on_c, 0, 93, 57
2, 115906, Note_on_c, 0, 57, 0
2, 115931, Note_on_c, 0, 65, 0
2, 115947, Note_on_c, 0, 60, 0
2, 115970, Note_on_c, 0, 93, 0
2, 116054, Note_on_c, 0, 98, 57
2, 116063, Note_on_c, 0, 60, 42
2, 116067, Note_on_c, 0, 57, 30
2, 116071, Note_on_c, 0, 65, 22
2, 116491, Note_on_c, 0, 98, 0
2, 116719, Note_on_c, 0, 60, 0
2, 116727, Note_on_c, 0, 65, 0
2, 116804, Note_on_c, 0, 57, 0
2, 116805, Note_on_c, 0, 55, 0
2, 117103, Note_on_c, 0, 53, 39
2, 117109, Note_on_c, 0, 59, 38
2, 117110, Note_on_c, 0, 64, 31
2, 117113, Control_c, 0, 64, 0
2, 117373, Control_c, 0, 64, 127
2, 117882, Note_on_c, 0, 64, 0
2, 117928, Note_on_c, 0, 59, 0
2, 118078, Note_on_c, 0, 59, 34
2, 118080, Note_on_c, 0, 64, 30
2, 118335, Note_on_c, 0, 74, 64
2, 118518, Note_on_c, 0, 74, 0
2, 118546, Note_on_c, 0, 81, 89
2, 118743, Note_on_c, 0, 59, 0
2, 118766, Note_on_c, 0, 64, 0
2, 118839, Note_on_c, 0, 53, 0
2, 119077, Note_on_c, 0, 52, 38
2, 119081, Note_on_c, 0, 62, 27
2, 119087, Note_on_c, 0, 57, 32
2, 119117, Control_c, 0, 64, 0
2, 119320, Note_on_c, 0, 78, 38
2, 119365, Note_on_c, 0, 81, 0
2, 119445, Note_on_c, 0, 78, 0
2, 119465, Note_on_c, 0, 79, 65
2, 119639, Note_on_c, 0, 76, 42
2, 119831, Note_on_c, 0, 71, 36
2, 119936, Note_on_c, 0, 71, 0
2, 119971, Note_on_c, 0, 79, 0
2, 119989, Note_on_c, 0, 76, 0
2, 120028, Note_on_c, 0, 71, 40
2, 120058, Control_c, 0, 64, 127
2, 120182, Note_on_c, 0, 71, 0
2, 120255, Note_on_c, 0, 71, 44
2, 120370, Note_on_c, 0, 71, 0
2, 120577, Note_on_c, 0, 67, 60
2, 120651, Note_on_c, 0, 67, 0
2, 120724, Note_on_c, 0, 67, 62
2, 120725, Note_on_c, 0, 57, 0
2, 120727, Note_on_c, 0, 62, 0
2, 120817, Note_on_c, 0, 67, 0
2, 120905, Note_on_c, 0, 67, 83
2, 120937, Note_on_c, 0, 62, 37
2, 120938, Note_on_c, 0, 57, 43
2, 121046, Control_c, 0, 64, 0
2, 121053, Note_on_c, 0, 67, 0
2, 121088, Note_on_c, 0, 64, 62
2, 121122, Note_on_c, 0, 62, 0
2, 121182, Note_on_c, 0, 64, 0
2, 121220, Control_c, 0, 64, 127
2, 121245, Note_on_c, 0, 64, 62
2, 121355, Note_on_c, 0, 64, 0
2, 121410, Note_on_c, 0, 57, 0
2, 121415, Note_on_c, 0, 64, 54
2, 121950, Note_on_c, 0, 62, 33
2, 121951, Note_on_c, 0, 57, 38
2, 122167, Note_on_c, 0, 64, 0
2, 122426, Note_on_c, 0, 57, 0
2, 122479, Note_on_c, 0, 52, 0
2, 122484, Note_on_c, 0, 65, 110
2, 122525, Note_on_c, 0, 62, 0
2, 122609, Note_on_c, 0, 65, 0
2, 122653, Note_on_c, 0, 65, 82
2, 122778, Note_on_c, 0, 65, 0
2, 122841, Note_on_c, 0, 65, 91
2, 122864, Note_on_c, 0, 53, 49
2, 122866, Note_on_c, 0, 57, 46
2, 122870, Note_on_c, 0, 62, 44
2, 122875, Note_on_c, 0, 58, 46
2, 122887, Control_c, 0, 64, 0
2, 123058, Note_on_c, 0, 67, 77
2, 123103, Note_on_c, 0, 65, 0
2, 123168, Note_on_c, 0, 67, 0
2, 123210, Note_on_c, 0, 67, 91
2, 123241, Control_c, 0, 64, 127
2, 123320, Note_on_c, 0, 67, 0
2, 123368, Note_on_c, 0, 67, 84
2, 123473, Note_on_c, 0, 58, 0
2, 123534, Note_on_c, 0, 62, 0
2, 123692, Note_on_c, 0, 57, 0
2, 123896, Note_on_c, 0, 57, 32
2, 123907, Note_on_c, 0, 62, 51
2, 123927, Note_on_c, 0, 58, 28
2, 123949, Note_on_c, 0, 67, 0
2, 124133, Note_on_c, 0, 69, 91
2, 124239, Note_on_c, 0, 69, 0
2, 124281, Note_on_c, 0, 69, 89
2, 124406, Note_on_c, 0, 69, 0
2, 124477, Note_on_c, 0, 69, 80
2, 124589, Note_on_c, 0, 69, 0
2, 124596, Note_on_c, 0, 62, 0
2, 124601, Note_on_c, 0, 57, 0
2, 124628, Note_on_c, 0, 70, 82
2, 124629, Note_on_c, 0, 53, 0
2, 124659, Note_on_c, 0, 58, 0
2, 124714, Note_on_c, 0, 70, 0
2, 124778, Note_on_c, 0, 70, 77
2, 124875, Note_on_c, 0, 70, 0
2, 124949, Note_on_c, 0, 70, 72
2, 124973, Note_on_c, 0, 63, 39
2, 124979, Note_on_c, 0, 52, 41
2, 124981, Note_on_c, 0, 58, 40
2, 124994, Control_c, 0, 64, 0
2, 125102, Note_on_c, 0, 70, 0
2, 125113, Note_on_c, 0, 72, 62
2, 125230, Note_on_c, 0, 72, 0
2, 125276, Note_on_c, 0, 72, 73
2, 125385, Control_c, 0, 64, 127
2, 125433, Note_on_c, 0, 72, 0
2, 125455, Note_on_c, 0, 73, 54
2, 125716, Note_on_c, 0, 58, 0
2, 125790, Note_on_c, 0, 63, 0
2, 125942, Note_on_c, 0, 63, 28
2, 125967, Note_on_c, 0, 58, 28
2, 126011, Note_on_c, 0, 73, 0
2, 126168, Note_on_c, 0, 75, 59
2, 126223, Note_on_c, 0, 63, 0
2, 126236, Note_on_c, 0, 52, 0
2, 126265, Note_on_c, 0, 58, 0
2, 126266, Note_on_c, 0, 75, 0
2, 126296, Note_on_c, 0, 76, 64
2, 126412, Note_on_c, 0, 77, 58
2, 126417, Note_on_c, 0, 76, 0
2, 126512, Note_on_c, 0, 77, 0
2, 126521, Note_on_c, 0, 78, 60
2, 126576, Note_on_c, 0, 78, 0
2, 126616, Note_on_c, 0, 79, 50
2, 126698, Note_on_c, 0, 79, 0
2, 126715, Note_on_c, 0, 80, 25
2, 126785, Note_on_c, 0, 80, 0
2, 126800, Note_on_c, 0, 81, 45
2, 126885, Note_on_c, 0, 81, 0
2, 126904, Note_on_c, 0, 84, 72
2, 126954, Note_on_c, 0, 57, 43
2, 126979, Control_c, 0, 64, 0
2, 126989, Note_on_c, 0, 53, 18
2, 126994, Note_on_c, 0, 64, 24
2, 127012, Note_on_c, 0, 84, 0
2, 127012, Note_on_c, 0, 81, 51
2, 127256, Note_on_c, 0, 76, 27
2, 127297, Note_on_c, 0, 81, 0
2, 127312, Control_c, 0, 64, 127
2, 127497, Note_on_c, 0, 76, 0
2, 127570, Note_on_c, 0, 64, 0
2, 127740, Note_on_c, 0, 76, 44
2, 127742, Note_on_c, 0, 60, 20
2, 127744, Note_on_c, 0, 69, 27
2, 127752, Note_on_c, 0, 64, 22
2, 128152, Note_on_c, 0, 64, 0
2, 128171, Note_on_c, 0, 60, 0
2, 128180, Note_on_c, 0, 69, 0
2, 128193, Note_on_c, 0, 76, 0
2, 128335, Note_on_c, 0, 57, 0
2, 128422, Control_c, 0, 64, 0
2, 128423, Note_on_c, 0, 76, 80
2, 128433, Note_on_c, 0, 69, 80
2, 128438, Note_on_c, 0, 65, 75
2, 128444, Note_on_c, 0, 61, 56
2, 128523, Note_on_c, 0, 65, 0
2, 128585, Note_on_c, 0, 65, 17
2, 128595, Control_c, 0, 64, 127
2, 128662, Note_on_c, 0, 65, 0
2, 128672, Note_on_c, 0, 69, 0
2, 128716, Note_on_c, 0, 76, 0
2, 128719, Control_c, 0, 64, 0
2, 128732, Note_on_c, 0, 61, 0
2, 128743, Note_on_c, 0, 74, 65
2, 128749, Note_on_c, 0, 65, 57
2, 128750, Note_on_c, 0, 62, 56
2, 128755, Note_on_c, 0, 69, 64
2, 128928, Control_c, 0, 64, 127
2, 129052, Note_on_c, 0, 62, 0
2, 129134, Note_on_c, 0, 74, 0
2, 129157, Note_on_c, 0, 69, 0
2, 129186, Note_on_c, 0, 65, 0
2, 129576, Note_on_c, 0, 65, 36
2, 129582, Note_on_c, 0, 60, 31
2, 129585, Note_on_c, 0, 62, 29
2, 129627, Note_on_c, 0, 53, 0
2, 129639, Note_on_c, 0, 60, 0
2, 129721, Note_on_c, 0, 62, 0
2, 129766, Note_on_c, 0, 65, 0
2, 130036, Note_on_c, 0, 74, 108
2, 130281, Note_on_c, 0, 74, 0
2, 130281, Note_on_c, 0, 76, 66
2, 130358, Note_on_c, 0, 74, 47
2, 130378, Note_on_c, 0, 76, 0
2, 130461, Note_on_c, 0, 74, 0
2, 130462, Note_on_c, 0, 73, 37
2, 130549, Note_on_c, 0, 73, 0
2, 130600, Note_on_c, 0, 74, 64
2, 130604, Note_on_c, 0, 66, 40
2, 130606, Note_on_c, 0, 61, 47
2, 130608, Control_c, 0, 64, 0
2, 130608, Note_on_c, 0, 55, 50
2, 130938, Control_c, 0, 64, 127
2, 131193, Note_on_c, 0, 66, 0
2, 131303, Note_on_c, 0, 61, 0
2, 131321, Note_on_c, 0, 55, 0
2, 132038, Note_on_c, 0, 74, 0
2, 132043, Note_on_c, 0, 76, 66
2, 132411, Note_on_c, 0, 76, 0
2, 132528, Note_on_c, 0, 55, 35
2, 132530, Note_on_c, 0, 61, 34
2, 132538, Note_on_c, 0, 76, 47
2, 132539, Note_on_c, 0, 64, 30
2, 132556, Control_c, 0, 64, 0
2, 132759, Control_c, 0, 64, 127
2, 133284, Note_on_c, 0, 61, 0
2, 133305, Note_on_c, 0, 64, 0
2, 133794, Note_on_c, 0, 76, 0
2, 133942, Note_on_c, 0, 55, 0
2, 134109, Note_on_c, 0, 79, 66
2, 134215, Note_on_c, 0, 79, 0
2, 134237, Note_on_c, 0, 76, 58
2, 134350, Note_on_c, 0, 76, 0
2, 134389, Note_on_c, 0, 77, 45
2, 134390, Note_on_c, 0, 50, 30
2, 134392, Control_c, 0, 64, 0
2, 134396, Note_on_c, 0, 60, 24
2, 134403, Note_on_c, 0, 57, 38
2, 134625, Note_on_c, 0, 65, 48
2, 134658, Control_c, 0, 64, 127
2, 134672, Note_on_c, 0, 77, 0
2, 135047, Note_on_c, 0, 65, 0
2, 135047, Note_on_c, 0, 60, 0
2, 135059, Note_on_c, 0, 57, 0
2, 135367, Note_on_c, 0, 65, 45
2, 135369, Note_on_c, 0, 57, 27
2, 135376, Note_on_c, 0, 60, 24
2, 135423, Note_on_c, 0, 65, 0
2, 135689, Note_on_c, 0, 50, 0
2, 135696, Note_on_c, 0, 57, 0
2, 135720, Note_on_c, 0, 60, 0
2, 136069, Note_on_c, 0, 89, 94
2, 136210, Note_on_c, 0, 89, 0
2, 136346, Control_c, 0, 64, 0
2, 136346, Note_on_c, 0, 60, 64
2, 136349, Note_on_c, 0, 89, 85
2, 136353, Note_on_c, 0, 65, 74
2, 136355, Note_on_c, 0, 61, 51
2, 136360, Note_on_c, 0, 77, 81
2, 136362, Note_on_c, 0, 55, 64
2, 136555, Control_c, 0, 64, 127
2, 137391, Note_on_c, 0, 65, 0
2, 137434, Note_on_c, 0, 55, 0
2, 137508, Note_on_c, 0, 60, 0
2, 137589, Note_on_c, 0, 61, 0
2, 137604, Note_on_c, 0, 89, 0
2, 137609, Note_on_c, 0, 77, 0
2, 138018, Note_on_c, 0, 91, 53
2, 138031, Note_on_c, 0, 79, 36
2, 138101, Note_on_c, 0, 79, 0
2, 138101, Note_on_c, 0, 91, 0
2, 138243, Control_c, 0, 64, 0
2, 138280, Note_on_c, 0, 91, 53
2, 138285, Note_on_c, 0, 57, 36
2, 138287, Note_on_c, 0, 64, 30
2, 138288, Note_on_c, 0, 60, 36
2, 138290, Note_on_c, 0, 79, 43
2, 138293, Note_on_c, 0, 53, 24
2, 138401, Control_c, 0, 64, 127
2, 138590, Note_on_c, 0, 79, 0
2, 138617, Note_on_c, 0, 64, 0
2, 138626, Note_on_c, 0, 60, 0
2, 138629, Note_on_c, 0, 91, 0
2, 138629, Note_on_c, 0, 57, 0
2, 138653, Note_on_c, 0, 53, 0
2, 138736, Note_on_c, 0, 93, 67
2, 138745, Note_on_c, 0, 81, 53
2, 138750, Note_on_c, 0, 64, 40
2, 138756, Note_on_c, 0, 57, 47
2, 138757, Note_on_c, 0, 60, 44
2, 138761, Note_on_c, 0, 53, 34
2, 138995, Note_on_c, 0, 93, 0
2, 139004, Note_on_c, 0, 57, 0
2, 139024, Note_on_c, 0, 60, 0
2, 139030, Note_on_c, 0, 64, 0
2, 139042, Note_on_c, 0, 53, 0
2, 139075, Note_on_c, 0, 81, 0
2, 139222, Note_on_c, 0, 93, 55
2, 139227, Note_on_c, 0, 81, 44
2, 139229, Note_on_c, 0, 53, 24
2, 139230, Note_on_c, 0, 64, 25
2, 139231, Note_on_c, 0, 57, 40
2, 139236, Note_on_c, 0, 60, 38
2, 139505, Note_on_c, 0, 60, 0
2, 139521, Note_on_c, 0, 64, 0
2, 139524, Note_on_c, 0, 57, 0
2, 139536, Note_on_c, 0, 93, 0
2, 139536, Note_on_c, 0, 81, 0
2, 139559, Note_on_c, 0, 53, 0
2, 140201, Note_on_c, 0, 93, 53
2, 140206, Note_on_c, 0, 90, 36
2, 140211, Note_on_c, 0, 63, 31
2, 140212, Note_on_c, 0, 87, 34
2, 140213, Note_on_c, 0, 60, 36
2, 140215, Note_on_c, 0, 54, 35
2, 140222, Note_on_c, 0, 81, 29
2, 140236, Control_c, 0, 64, 0
2, 140432, Control_c, 0, 64, 127
2, 140666, Note_on_c, 0, 63, 0
2, 140743, Note_on_c, 0, 90, 0
2, 140778, Note_on_c, 0, 60, 0
2, 140792, Note_on_c, 0, 87, 0
2, 140838, Note_on_c, 0, 81, 0
2, 141060, Note_on_c, 0, 93, 0
2, 141117, Note_on_c, 0, 90, 31
2, 141120, Note_on_c, 0, 63, 25
2, 141131, Note_on_c, 0, 87, 27
2, 141133, Note_on_c, 0, 81, 32
2, 141139, Note_on_c, 0, 60, 33
2, 141271, Note_on_c, 0, 87, 0
2, 141273, Note_on_c, 0, 90, 0
2, 141348, Note_on_c, 0, 81, 0
2, 141477, Note_on_c, 0, 60, 0
2, 141685, Note_on_c, 0, 63, 0
2, 141742, Note_on_c, 0, 54, 0
2, 141880, Note_on_c, 0, 83, 96
2, 142021, Note_on_c, 0, 83, 0
2, 142128, Note_on_c, 0, 83, 77
2, 142138, Note_on_c, 0, 76, 77
2, 142142, Note_on_c, 0, 60, 41
2, 142144, Note_on_c, 0, 59, 44
2, 142145, Note_on_c, 0, 71, 68
2, 142147, Note_on_c, 0, 64, 40
2, 142149, Control_c, 0, 64, 0
2, 142351, Control_c, 0, 64, 127
2, 142422, Note_on_c, 0, 83, 0
2, 142447, Note_on_c, 0, 71, 0
2, 142491, Note_on_c, 0, 76, 0
2, 142519, Note_on_c, 0, 59, 0
2, 142544, Note_on_c, 0, 55, 51
2, 142548, Note_on_c, 0, 84, 85
2, 142618, Note_on_c, 0, 60, 0
2, 142651, Note_on_c, 0, 64, 0
2, 142776, Note_on_c, 0, 84, 0
2, 142999, Note_on_c, 0, 84, 67
2, 143005, Note_on_c, 0, 76, 60
2, 143007, Control_c, 0, 64, 0
2, 143011, Note_on_c, 0, 72, 46
2, 143015, Note_on_c, 0, 60, 28
2, 143023, Note_on_c, 0, 64, 24
2, 143160, Control_c, 0, 64, 127
2, 143297, Note_on_c, 0, 76, 0
2, 143299, Note_on_c, 0, 55, 0
2, 143308, Note_on_c, 0, 72, 0
2, 143343, Note_on_c, 0, 84, 0
2, 143515, Note_on_c, 0, 55, 27
2, 143593, Note_on_c, 0, 60, 0
2, 143642, Note_on_c, 0, 64, 0
2, 143975, Note_on_c, 0, 79, 34
2, 143978, Note_on_c, 0, 60, 31
2, 143981, Note_on_c, 0, 64, 22
2, 143982, Note_on_c, 0, 76, 32
2, 144251, Note_on_c, 0, 79, 0
2, 144488, Note_on_c, 0, 76, 0
2, 144537, Note_on_c, 0, 60, 0
2, 144588, Note_on_c, 0, 64, 0
2, 144907, Note_on_c, 0, 83, 101
2, 144941, Control_c, 0, 64, 0
2, 145014, Control_c, 0, 64, 127
2, 145167, Note_on_c, 0, 84, 74
2, 145184, Note_on_c, 0, 83, 0
2, 145246, Note_on_c, 0, 84, 0
2, 145249, Note_on_c, 0, 83, 57
2, 145340, Note_on_c, 0, 55, 0
2, 145373, Note_on_c, 0, 82, 61
2, 145387, Note_on_c, 0, 83, 0
2, 145465, Note_on_c, 0, 82, 0
2, 145528, Note_on_c, 0, 83, 71
2, 145641, Note_on_c, 0, 83, 0
2, 145675, Note_on_c, 0, 84, 71
2, 145785, Note_on_c, 0, 84, 0
2, 145840, Note_on_c, 0, 86, 73
2, 145851, Note_on_c, 0, 62, 35
2, 145852, Note_on_c, 0, 65, 35
2, 145853, Note_on_c, 0, 56, 34
2, 145879, Control_c, 0, 64, 0
2, 145944, Note_on_c, 0, 86, 0
2, 146005, Note_on_c, 0, 87, 67
2, 146110, Note_on_c, 0, 87, 0
2, 146176, Note_on_c, 0, 88, 59
2, 146295, Note_on_c, 0, 88, 0
2, 146368, Note_on_c, 0, 84, 44
2, 146479, Control_c, 0, 64, 127
2, 146480, Note_on_c, 0, 84, 0
2, 146607, Note_on_c, 0, 77, 16
2, 146674, Note_on_c, 0, 77, 0
2, 146757, Note_on_c, 0, 77, 28
2, 146940, Note_on_c, 0, 77, 0
2, 147522, Note_on_c, 0, 83, 87
2, 147525, Note_on_c, 0, 65, 0
2, 147547, Note_on_c, 0, 74, 73
2, 147590, Note_on_c, 0, 62, 0
2, 147604, Note_on_c, 0, 56, 0
2, 147679, Note_on_c, 0, 83, 0
2, 147696, Note_on_c, 0, 74, 0
2, 147828, Control_c, 0, 64, 0
2, 147842, Note_on_c, 0, 56, 39
2, 147843, Note_on_c, 0, 83, 70
2, 147852, Note_on_c, 0, 62, 38
2, 147855, Note_on_c, 0, 74, 68
2, 147856, Note_on_c, 0, 67, 38
2, 147922, Control_c, 0, 64, 127
2, 148040, Note_on_c, 0, 74, 0
2, 148060, Note_on_c, 0, 56, 0
2, 148060, Note_on_c, 0, 67, 0
2, 148063, Note_on_c, 0, 83, 0
2, 148101, Note_on_c, 0, 62, 0
2, 148168, Note_on_c, 0, 84, 74
2, 148186, Note_on_c, 0, 56, 40
2, 148186, Note_on_c, 0, 79, 57
2, 148189, Note_on_c, 0, 76, 66
2, 148191, Note_on_c, 0, 67, 47
2, 148191, Note_on_c, 0, 62, 36
2, 148210, Control_c, 0, 64, 0
2, 148405, Control_c, 0, 64, 127
2, 148594, Note_on_c, 0, 67, 0
2, 148599, Note_on_c, 0, 56, 0
2, 148640, Note_on_c, 0, 84, 0
2, 148663, Note_on_c, 0, 79, 0
2, 148703, Note_on_c, 0, 76, 0
2, 148715, Note_on_c, 0, 62, 0
2, 148852, Note_on_c, 0, 67, 34
2, 148857, Note_on_c, 0, 76, 37
2, 148858, Note_on_c, 0, 84, 43
2, 148858, Note_on_c, 0, 62, 20
2, 148863, Note_on_c, 0, 56, 27
2, 148865, Note_on_c, 0, 79, 33
2, 149179, Note_on_c, 0, 76, 0
2, 149205, Note_on_c, 0, 79, 0
2, 149243, Note_on_c, 0, 84, 0
2, 149315, Note_on_c, 0, 67, 0
2, 149329, Note_on_c, 0, 62, 0
2, 149464, Note_on_c, 0, 56, 0
2, 149578, Note_on_c, 0, 83, 94
2, 149745, Note_on_c, 0, 83, 0
2, 149782, Note_on_c, 0, 57, 46
2, 149786, Note_on_c, 0, 60, 43
2, 149792, Note_on_c, 0, 64, 43
2, 149856, Control_c, 0, 64, 0
2, 149863, Note_on_c, 0, 84, 103
2, 150052, Control_c, 0, 64, 127
2, 150282, Note_on_c, 0, 64, 0
2, 150415, Note_on_c, 0, 84, 0
2, 150436, Note_on_c, 0, 60, 0
2, 150451, Note_on_c, 0, 57, 0
2, 150806, Note_on_c, 0, 86, 89
2, 150817, Note_on_c, 0, 56, 56
2, 150825, Note_on_c, 0, 60, 54
2, 150827, Note_on_c, 0, 64, 42
2, 150829, Control_c, 0, 64, 0
2, 150831, Note_on_c, 0, 74, 71
2, 151025, Control_c, 0, 64, 127
2, 151250, Note_on_c, 0, 86, 0
2, 151357, Note_on_c, 0, 74, 0
2, 151362, Note_on_c, 0, 60, 0
2, 151382, Note_on_c, 0, 64, 0
2, 151412, Note_on_c, 0, 56, 0
2, 151748, Note_on_c, 0, 83, 59
2, 151754, Note_on_c, 0, 71, 55
2, 151758, Note_on_c, 0, 60, 45
2, 151759, Note_on_c, 0, 64, 41
2, 151766, Note_on_c, 0, 55, 45
2, 151768, Control_c, 0, 64, 0
2, 151770, Note_on_c, 0, 76, 55
2, 151964, Control_c, 0, 64, 127
2, 152312, Note_on_c, 0, 64, 0
2, 152342, Note_on_c, 0, 76, 0
2, 152344, Note_on_c, 0, 71, 0
2, 152375, Note_on_c, 0, 60, 0
2, 152386, Note_on_c, 0, 83, 0
2, 152633, Note_on_c, 0, 84, 48
2, 152644, Note_on_c, 0, 64, 26
2, 152647, Note_on_c, 0, 72, 30
2, 152653, Note_on_c, 0, 60, 24
2, 152653, Note_on_c, 0, 79, 44
2, 152903, Note_on_c, 0, 55, 0
2, 152959, Note_on_c, 0, 79, 0
2, 152969, Note_on_c, 0, 72, 0
2, 153050, Note_on_c, 0, 60, 0
2, 153077, Note_on_c, 0, 84, 0
2, 153102, Note_on_c, 0, 64, 0
2, 153587, Control_c, 0, 64, 0
2, 153588, Note_on_c, 0, 88, 47
2, 153589, Note_on_c, 0, 54, 38
2, 153595, Note_on_c, 0, 83, 41
2, 153600, Note_on_c, 0, 76, 40
2, 153603, Note_on_c, 0, 80, 38
2, 153605, Note_on_c, 0, 64, 32
2, 153605, Note_on_c, 0, 60, 33
2, 153753, Control_c, 0, 64, 127
2, 153967, Note_on_c, 0, 88, 0
2, 153990, Note_on_c, 0, 83, 0
2, 154023, Note_on_c, 0, 80, 0
2, 154043, Note_on_c, 0, 64, 0
2, 154052, Note_on_c, 0, 76, 0
2, 154327, Note_on_c, 0, 60, 0
2, 154382, Note_on_c, 0, 64, 57
2, 154472, Note_on_c, 0, 64, 0
2, 154620, Note_on_c, 0, 54, 0
2, 155012, Note_on_c, 0, 71, 66
2, 155014, Note_on_c, 0, 50, 45
2, 155015, Note_on_c, 0, 68, 49
2, 155017, Note_on_c, 0, 64, 60
2, 155018, Note_on_c, 0, 54, 49
2, 155020, Note_on_c, 0, 60, 51
2, 155025, Control_c, 0, 64, 0
2, 155227, Control_c, 0, 64, 127
2, 155302, Note_on_c, 0, 76, 78
2, 155328, Note_on_c, 0, 74, 42
2, 155350, Note_on_c, 0, 64, 0
2, 155359, Note_on_c, 0, 60, 0
2, 155392, Note_on_c, 0, 50, 0
2, 155410, Note_on_c, 0, 54, 0
2, 155495, Note_on_c, 0, 76, 0
2, 155498, Note_on_c, 0, 74, 0
2, 155498, Note_on_c, 0, 71, 0
2, 155558, Note_on_c, 0, 68, 0
2, 155618, Control_c, 0, 64, 0
2, 155623, Note_on_c, 0, 54, 39
2, 155625, Note_on_c, 0, 74, 67
2, 155626, Note_on_c, 0, 70, 62
2, 155629, Note_on_c, 0, 44, 39
2, 155631, Note_on_c, 0, 65, 67
2, 155733, Control_c, 0, 64, 127
2, 155734, Note_on_c, 0, 65, 0
2, 155775, Note_on_c, 0, 70, 0
2, 155781, Note_on_c, 0, 74, 0
2, 155819, Note_on_c, 0, 44, 0
2, 155865, Note_on_c, 0, 54, 0
2, 155905, Note_on_c, 0, 86, 79
2, 156013, Note_on_c, 0, 86, 0
2, 156193, Note_on_c, 0, 82, 53
2, 156205, Note_on_c, 0, 74, 41
2, 156210, Note_on_c, 0, 65, 45
2, 156213, Note_on_c, 0, 77, 43
2, 156226, Note_on_c, 0, 54, 18
2, 156227, Note_on_c, 0, 58, 37
2, 156231, Note_on_c, 0, 60, 35
2, 156446, Note_on_c, 0, 74, 0
2, 156472, Note_on_c, 0, 77, 0
2, 156518, Note_on_c, 0, 82, 0
2, 156528, Note_on_c, 0, 60, 0
2, 156530, Note_on_c, 0, 65, 0
2, 156891, Note_on_c, 0, 88, 77
2, 156906, Note_on_c, 0, 79, 77
2, 156907, Note_on_c, 0, 65, 51
2, 156927, Note_on_c, 0, 60, 31
2, 157061, Note_on_c, 0, 60, 0
2, 157108, Note_on_c, 0, 88, 0
2, 157111, Note_on_c, 0, 54, 0
2, 157120, Note_on_c, 0, 79, 0
2, 157150, Note_on_c, 0, 58, 0
2, 157156, Note_on_c, 0, 65, 0
2, 157203, Note_on_c, 0, 88, 82
2, 157329, Note_on_c, 0, 88, 0
2, 157453, Note_on_c, 0, 88, 82
2, 157464, Control_c, 0, 64, 0
2, 157466, Note_on_c, 0, 56, 59
2, 157473, Note_on_c, 0, 79, 73
2, 157473, Note_on_c, 0, 62, 55
2, 157473, Note_on_c, 0, 84, 65
2, 157475, Note_on_c, 0, 67, 51
2, 157650, Control_c, 0, 64, 127
2, 158021, Note_on_c, 0, 67, 0
2, 158024, Note_on_c, 0, 88, 0
2, 158030, Note_on_c, 0, 84, 0
2, 158061, Note_on_c, 0, 62, 0
2, 158151, Note_on_c, 0, 79, 0
2, 158425, Note_on_c, 0, 67, 36
2, 158435, Note_on_c, 0, 62, 45
2, 158903, Note_on_c, 0, 62, 0
2, 158946, Note_on_c, 0, 67, 0
2, 158996, Note_on_c, 0, 56, 0
2, 159133, Note_on_c, 0, 84, 66
2, 159259, Note_on_c, 0, 84, 0
2, 159338, Note_on_c, 0, 55, 42
2, 159339, Note_on_c, 0, 61, 32
2, 159344, Note_on_c, 0, 65, 29
2, 159346, Note_on_c, 0, 79, 41
2, 159353, Note_on_c, 0, 60, 20
2, 159369, Control_c, 0, 64, 0
2, 159615, Control_c, 0, 64, 127
2, 160007, Note_on_c, 0, 60, 0
2, 160015, Note_on_c, 0, 65, 0
2, 160018, Note_on_c, 0, 61, 0
2, 160329, Note_on_c, 0, 60, 34
2, 160331, Note_on_c, 0, 61, 32
2, 160336, Note_on_c, 0, 65, 32
2, 160914, Note_on_c, 0, 60, 0
2, 160929, Note_on_c, 0, 65, 0
2, 160999, Note_on_c, 0, 55, 0
2, 161004, Note_on_c, 0, 61, 0
2, 161292, Note_on_c, 0, 79, 0
2, 161293, Note_on_c, 0, 54, 34
2, 161304, Note_on_c, 0, 77, 51
2, 161310, Control_c, 0, 64, 0
2, 161313, Note_on_c, 0, 64, 30
2, 161317, Note_on_c, 0, 60, 30
2, 161469, Control_c, 0, 64, 127
2, 161645, Note_on_c, 0, 86, 60
2, 161684, Note_on_c, 0, 77, 0
2, 161933, Note_on_c, 0, 86, 0
2, 162015, Note_on_c, 0, 86, 63
2, 162025, Note_on_c, 0, 64, 0
2, 162031, Note_on_c, 0, 60, 0
2, 162212, Note_on_c, 0, 86, 0
2, 162294, Note_on_c, 0, 64, 24
2, 162300, Note_on_c, 0, 60, 30
2, 162307, Note_on_c, 0, 86, 65
2, 162583, Note_on_c, 0, 86, 0
2, 162666, Note_on_c, 0, 86, 75
2, 162867, Note_on_c, 0, 86, 0
2, 162936, Note_on_c, 0, 86, 64
2, 162973, Note_on_c, 0, 60, 0
2, 163057, Note_on_c, 0, 86, 0
2, 163058, Note_on_c, 0, 88, 50
2, 163066, Note_on_c, 0, 64, 0
2, 163132, Note_on_c, 0, 54, 0
2, 163150, Note_on_c, 0, 86, 36
2, 163163, Note_on_c, 0, 88, 0
2, 163261, Note_on_c, 0, 86, 0
2, 163261, Note_on_c, 0, 85, 42
2, 163276, Note_on_c, 0, 53, 26
2, 163289, Note_on_c, 0, 59, 35
2, 163293, Note_on_c, 0, 64, 28
2, 163325, Control_c, 0, 64, 0
2, 163342, Note_on_c, 0, 85, 0
2, 163362, Note_on_c, 0, 86, 55
2, 163526, Control_c, 0, 64, 127
2, 163892, Note_on_c, 0, 59, 0
2, 163928, Note_on_c, 0, 64, 0
2, 164159, Note_on_c, 0, 64, 24
2, 164162, Note_on_c, 0, 59, 39
2, 164475, Note_on_c, 0, 59, 0
2, 164525, Note_on_c, 0, 53, 0
2, 164622, Note_on_c, 0, 64, 0
2, 164841, Note_on_c, 0, 86, 0
2, 164886, Note_on_c, 0, 84, 63
2, 164984, Note_on_c, 0, 84, 0
2, 165009, Note_on_c, 0, 83, 65
2, 165117, Note_on_c, 0, 83, 0
2, 165163, Note_on_c, 0, 67, 45
2, 165171, Note_on_c, 0, 83, 62
2, 165173, Note_on_c, 0, 64, 36
2, 165177, Note_on_c, 0, 62, 50
2, 165186, Control_c, 0, 64, 0
2, 165378, Note_on_c, 0, 79, 50
2, 165422, Note_on_c, 0, 83, 0
2, 165453, Control_c, 0, 64, 127
2, 165461, Note_on_c, 0, 79, 0
2, 165547, Note_on_c, 0, 79, 36
2, 165739, Note_on_c, 0, 67, 0
2, 166088, Note_on_c, 0, 55, 36
2, 166551, Note_on_c, 0, 62, 0
2, 166571, Note_on_c, 0, 64, 0
2, 167080, Note_on_c, 0, 79, 0
2, 167451, Note_on_c, 0, 65, 40
2, 167453, Note_on_c, 0, 61, 35
2, 167454, Note_on_c, 0, 60, 31
2, 167710, Note_on_c, 0, 93, 113
2, 167863, Note_on_c, 0, 93, 0
2, 168000, Note_on_c, 0, 96, 105
2, 168225, Note_on_c, 0, 96, 0
2, 168321, Note_on_c, 0, 96, 89
2, 168535, Note_on_c, 0, 60, 0
2, 168561, Note_on_c, 0, 65, 0
2, 168580, Note_on_c, 0, 88, 60
2, 168648, Note_on_c, 0, 61, 0
2, 168688, Note_on_c, 0, 88, 0
2, 168742, Note_on_c, 0, 96, 0
2, 168772, Note_on_c, 0, 88, 31
2, 168912, Note_on_c, 0, 88, 0
2, 168947, Note_on_c, 0, 65, 37
2, 168954, Note_on_c, 0, 57, 32
2, 168957, Note_on_c, 0, 60, 39
2, 168959, Control_c, 0, 64, 0
2, 168960, Note_on_c, 0, 91, 58
2, 169243, Control_c, 0, 64, 127
2, 169280, Note_on_c, 0, 91, 0
2, 169281, Note_on_c, 0, 89, 59
2, 169515, Note_on_c, 0, 84, 46
2, 169533, Note_on_c, 0, 89, 0
2, 169709, Note_on_c, 0, 84, 0
2, 169891, Note_on_c, 0, 84, 44
2, 170287, Note_on_c, 0, 88, 60
2, 170496, Note_on_c, 0, 88, 0
2, 170539, Note_on_c, 0, 60, 0
2, 170559, Note_on_c, 0, 65, 0
2, 170597, Note_on_c, 0, 88, 58
2, 170613, Note_on_c, 0, 55, 0
2, 170640, Note_on_c, 0, 57, 0
2, 170711, Note_on_c, 0, 88, 0
2, 170764, Note_on_c, 0, 84, 0
2, 170808, Note_on_c, 0, 59, 29
2, 170810, Note_on_c, 0, 53, 36
2, 170816, Note_on_c, 0, 86, 53
2, 170822, Note_on_c, 0, 64, 33
2, 170845, Control_c, 0, 64, 0
2, 171090, Note_on_c, 0, 86, 0
2, 171704, Note_on_c, 0, 64, 0
2, 171728, Note_on_c, 0, 59, 0
2, 171736, Note_on_c, 0, 53, 0
2, 172011, Note_on_c, 0, 76, 64
2, 172149, Note_on_c, 0, 76, 0
2, 172170, Note_on_c, 0, 77, 80
2, 172300, Note_on_c, 0, 77, 0
2, 172331, Note_on_c, 0, 78, 71
2, 172437, Note_on_c, 0, 78, 0
2, 172481, Note_on_c, 0, 79, 66
2, 172578, Note_on_c, 0, 79, 0
2, 172647, Note_on_c, 0, 81, 68
2, 172759, Note_on_c, 0, 81, 0
2, 172863, Note_on_c, 0, 79, 50
2, 172886, Note_on_c, 0, 67, 20
2, 172926, Note_on_c, 0, 64, 27
2, 172927, Note_on_c, 0, 62, 29
2, 173610, Control_c, 0, 64, 127
2, 173938, Note_on_c, 0, 64, 0
2, 173946, Note_on_c, 0, 67, 0
2, 173984, Note_on_c, 0, 62, 0
2, 174759, Note_on_c, 0, 61, 35
2, 174764, Note_on_c, 0, 65, 33
2, 174774, Note_on_c, 0, 60, 31
2, 174775, Note_on_c, 0, 55, 38
2, 174793, Control_c, 0, 64, 0
2, 174844, Note_on_c, 0, 79, 0
2, 175644, Control_c, 0, 64, 127
2, 175952, Note_on_c, 0, 60, 0
2, 175998, Note_on_c, 0, 65, 0
2, 176051, Note_on_c, 0, 55, 0
2, 176101, Note_on_c, 0, 61, 0
2, 176280, Note_on_c, 0, 81, 53
2, 176396, Control_c, 0, 64, 0
2, 176405, Note_on_c, 0, 81, 0
2, 176450, Note_on_c, 0, 84, 81
2, 176464, Note_on_c, 0, 72, 72
2, 176620, Note_on_c, 0, 53, 26
2, 176623, Note_on_c, 0, 57, 44
2, 176627, Note_on_c, 0, 60, 33
2, 176637, Note_on_c, 0, 64, 19
2, 176686, Note_on_c, 0, 84, 0
2, 176703, Note_on_c, 0, 81, 45
2, 176740, Note_on_c, 0, 72, 0
2, 176892, Note_on_c, 0, 81, 0
2, 176994, Note_on_c, 0, 84, 74
2, 177000, Note_on_c, 0, 72, 52
2, 177177, Note_on_c, 0, 84, 0
2, 177190, Note_on_c, 0, 72, 0
2, 177583, Note_on_c, 0, 60, 0
2, 177630, Note_on_c, 0, 57, 0
2, 177673, Note_on_c, 0, 64, 0
2, 177727, Note_on_c, 0, 53, 0
2, 178159, Note_on_c, 0, 74, 46
2, 178161, Note_on_c, 0, 86, 57
2, 178178, Note_on_c, 0, 64, 25
2, 178191, Note_on_c, 0, 59, 43
2, 178197, Note_on_c, 0, 53, 20
2, 178906, Control_c, 0, 64, 127
2, 179097, Note_on_c, 0, 74, 0
2, 179201, Note_on_c, 0, 86, 0
2, 179398, Control_c, 0, 64, 0
2, 179453, Note_on_c, 0, 89, 95
2, 179555, Note_on_c, 0, 64, 0
2, 179611, Note_on_c, 0, 53, 0
2, 179735, Note_on_c, 0, 88, 75
2, 179781, Note_on_c, 0, 89, 0
2, 179852, Note_on_c, 0, 59, 0
2, 179981, Note_on_c, 0, 84, 74
2, 179983, Note_on_c, 0, 88, 0
2, 180075, Note_on_c, 0, 59, 16
2, 180106, Note_on_c, 0, 62, 22
2, 180112, Note_on_c, 0, 52, 28
2, 180143, Note_on_c, 0, 84, 0
2, 180267, Note_on_c, 0, 79, 44
2, 180422, Note_on_c, 0, 79, 0
2, 180554, Note_on_c, 0, 77, 32
2, 180785, Note_on_c, 0, 77, 0
2, 180850, Note_on_c, 0, 76, 55
2, 181014, Note_on_c, 0, 76, 0
2, 181166, Note_on_c, 0, 72, 55
2, 181312, Note_on_c, 0, 72, 0
2, 181520, Note_on_c, 0, 67, 49
2, 181708, Note_on_c, 0, 67, 0
2, 182116, Note_on_c, 0, 65, 18
2, 182338, Note_on_c, 0, 65, 0
2, 182394, Note_on_c, 0, 55, 1
2, 182397, Note_on_c, 0, 62, 0
2, 182561, Note_on_c, 0, 64, 17
2, 183124, Note_on_c, 0, 59, 0
2, 183172, Note_on_c, 0, 55, 0
2, 183222, Control_c, 0, 64, 127
2, 183313, Note_on_c, 0, 52, 0
2, 183651, Note_on_c, 0, 64, 0
2, 183970, Note_on_c, 0, 57, 64
2, 184117, Control_c, 0, 64, 0
2, 184171, Note_on_c, 0, 57, 0
2, 184181, Note_on_c, 0, 58, 65
2, 184189, Note_on_c, 0, 43, 34
2, 184376, Note_on_c, 0, 58, 0
2, 184442, Note_on_c, 0, 54, 51
2, 184625, Note_on_c, 0, 54, 0
2, 184680, Note_on_c, 0, 55, 45
2, 184841, Note_on_c, 0, 55, 0
2, 184853, Note_on_c, 0, 57, 56
2, 185038, Note_on_c, 0, 58, 73
2, 185040, Note_on_c, 0, 57, 0
2, 185208, Note_on_c, 0, 58, 0
2, 185242, Note_on_c, 0, 60, 71
2, 185339, Note_on_c, 0, 43, 0
2, 185420, Note_on_c, 0, 60, 0
2, 185464, Note_on_c, 0, 61, 56
2, 185649, Note_on_c, 0, 61, 0
2, 185688, Note_on_c, 0, 63, 63
2, 185891, Note_on_c, 0, 63, 0
2, 185928, Note_on_c, 0, 64, 73
2, 186054, Note_on_c, 0, 64, 0
2, 186154, Note_on_c, 0, 66, 62
2, 186311, Note_on_c, 0, 66, 0
2, 186366, Note_on_c, 0, 67, 82
2, 186529, Note_on_c, 0, 67, 0
2, 186617, Note_on_c, 0, 69, 89
2, 186777, Note_on_c, 0, 69, 0
2, 186857, Note_on_c, 0, 70, 86
2, 186865, Note_on_c, 0, 69, 51
2, 186912, Note_on_c, 0, 69, 0
2, 187036, Note_on_c, 0, 70, 0
2, 187089, Note_on_c, 0, 72, 73
2, 187123, Note_on_c, 0, 58, 37
2, 187135, Note_on_c, 0, 63, 33
2, 187168, Note_on_c, 0, 52, 34
2, 187270, Note_on_c, 0, 72, 0
2, 187344, Note_on_c, 0, 73, 53
2, 187450, Note_on_c, 0, 52, 0
2, 187535, Note_on_c, 0, 73, 0
2, 187576, Note_on_c, 0, 75, 68
2, 187587, Note_on_c, 0, 58, 0
2, 187600, Note_on_c, 0, 63, 0
2, 187785, Note_on_c, 0, 75, 0
2, 187827, Note_on_c, 0, 76, 77
2, 187927, Note_on_c, 0, 60, 39
2, 187932, Note_on_c, 0, 57, 40
2, 187941, Note_on_c, 0, 64, 20
2, 187960, Note_on_c, 0, 53, 24
2, 188044, Note_on_c, 0, 76, 0
2, 188106, Note_on_c, 0, 79, 72
2, 188304, Note_on_c, 0, 79, 0
2, 188411, Note_on_c, 0, 73, 39
2, 188600, Note_on_c, 0, 73, 0
2, 188669, Note_on_c, 0, 76, 66
2, 188923, Note_on_c, 0, 76, 0
2, 188964, Note_on_c, 0, 73, 38
2, 189193, Note_on_c, 0, 73, 0
2, 189288, Note_on_c, 0, 74, 62
2, 189560, Note_on_c, 0, 74, 0
2, 189633, Note_on_c, 0, 69, 34
2, 189813, Note_on_c, 0, 69, 0
2, 189961, Note_on_c, 0, 72, 20
2, 190493, Note_on_c, 0, 64, 0
2, 190658, Note_on_c, 0, 60, 0
2, 190685, Note_on_c, 0, 57, 0
2, 190867, Note_on_c, 0, 53, 0
2, 191965, Note_on_c, 0, 72, 0
2, 192006, Note_on_c, 0, 52, 24
2, 192011, Note_on_c, 0, 58, 26
2, 192018, Note_on_c, 0, 57, 24
2, 192019, Note_on_c, 0, 62, 26
2, 192199, Note_on_c, 0, 57, 0
2, 192283, Note_on_c, 0, 62, 0
2, 192294, Note_on_c, 0, 52, 0
2, 192309, Note_on_c, 0, 58, 0
2, 193560, Note_on_c, 0, 61, 31
2, 193575, Note_on_c, 0, 65, 38
2, 193586, Note_on_c, 0, 60, 27
2, 193648, Note_on_c, 0, 55, 17
2, 193698, Note_on_c, 0, 60, 0
2, 193700, Note_on_c, 0, 65, 0
2, 193717, Note_on_c, 0, 55, 0
2, 193769, Note_on_c, 0, 61, 0
2, 194261, Note_on_c, 0, 81, 108
2, 194503, Note_on_c, 0, 81, 0
2, 194619, Note_on_c, 0, 84, 99
2, 194900, Note_on_c, 0, 84, 0
2, 195115, Note_on_c, 0, 77, 59
2, 195287, Note_on_c, 0, 77, 0
2, 195406, Note_on_c, 0, 77, 74
2, 195676, Note_on_c, 0, 77, 0
2, 195728, Note_on_c, 0, 60, 40
2, 195756, Note_on_c, 0, 79, 73
2, 195774, Note_on_c, 0, 53, 28
2, 195784, Note_on_c, 0, 78, 26
2, 195789, Note_on_c, 0, 57, 24
2, 195790, Note_on_c, 0, 60, 0
2, 195836, Note_on_c, 0, 57, 0
2, 195878, Note_on_c, 0, 53, 0
2, 195923, Note_on_c, 0, 78, 0
2, 195959, Note_on_c, 0, 79, 0
2, 196220, Note_on_c, 0, 74, 63
2, 196374, Note_on_c, 0, 74, 0
2, 196662, Note_on_c, 0, 77, 63
2, 196899, Note_on_c, 0, 77, 0
2, 197021, Note_on_c, 0, 76, 49
2, 197254, Note_on_c, 0, 76, 0
2, 197289, Note_on_c, 0, 74, 57
2, 197496, Note_on_c, 0, 74, 0
2, 197600, Note_on_c, 0, 61, 25
2, 197606, Note_on_c, 0, 73, 30
2, 197636, Note_on_c, 0, 55, 30
2, 197728, Note_on_c, 0, 64, 7
2, 197882, Note_on_c, 0, 73, 0
2, 197952, Note_on_c, 0, 76, 48
2, 198154, Note_on_c, 0, 76, 0
2, 198275, Note_on_c, 0, 70, 47
2, 198533, Note_on_c, 0, 70, 0
2, 198651, Note_on_c, 0, 69, 44
2, 198669, Note_on_c, 0, 55, 0
2, 198713, Note_on_c, 0, 64, 0
2, 198755, Note_on_c, 0, 61, 0
2, 199386, Note_on_c, 0, 69, 0
2, 200342, Note_on_c, 0, 53, 39
2, 200443, Note_on_c, 0, 53, 0
2, 202257, Note_on_c, 0, 54, 45
2, 202264, Note_on_c, 0, 60, 57
2, 202327, Note_on_c, 0, 60, 0
2, 202372, Note_on_c, 0, 54, 0
2, 202615, Note_on_c, 0, 63, 45
2, 202825, Note_on_c, 0, 63, 0
2, 202960, Note_on_c, 0, 65, 55
2, 203134, Note_on_c, 0, 65, 0
2, 203243, Note_on_c, 0, 66, 73
2, 203460, Note_on_c, 0, 66, 0
2, 203547, Note_on_c, 0, 60, 28
2, 203585, Note_on_c, 0, 64, 10
2, 203589, Note_on_c, 0, 55, 18
2, 203597, Note_on_c, 0, 67, 48
2, 203839, Note_on_c, 0, 67, 0
2, 203854, Note_on_c, 0, 55, 0
2, 203927, Note_on_c, 0, 72, 57
2, 204106, Note_on_c, 0, 72, 0
2, 204221, Note_on_c, 0, 76, 92
2, 204265, Note_on_c, 0, 55, 1
2, 204469, Note_on_c, 0, 76, 0
2, 204548, Note_on_c, 0, 77, 78
2, 204780, Note_on_c, 0, 77, 0
2, 204801, Note_on_c, 0, 60, 0
2, 204845, Note_on_c, 0, 76, 51
2, 204901, Note_on_c, 0, 64, 0
2, 205059, Note_on_c, 0, 76, 0
2, 205164, Note_on_c, 0, 77, 76
2, 205294, Note_on_c, 0, 55, 0
2, 205462, Note_on_c, 0, 77, 0
2, 205481, Note_on_c, 0, 76, 52
2, 205773, Note_on_c, 0, 76, 0
2, 205791, Note_on_c, 0, 72, 54
2, 205989, Note_on_c, 0, 72, 0
2, 206084, Note_on_c, 0, 67, 40
2, 206294, Note_on_c, 0, 67, 0
2, 206449, Note_on_c, 0, 67, 42
2, 207351, Note_on_c, 0, 67, 0
2, 207445, Note_on_c, 0, 63, 20
2, 207452, Note_on_c, 0, 62, 22
2, 207459, Note_on_c, 0, 57, 33
2, 207469, Note_on_c, 0, 67, 27
2, 208407, Note_on_c, 0, 83, 105
2, 208684, Note_on_c, 0, 83, 0
2, 208723, Note_on_c, 0, 86, 92
2, 208980, Note_on_c, 0, 86, 0
2, 209097, Note_on_c, 0, 84, 92
2, 209619, Note_on_c, 0, 79, 69
2, 210226, Note_on_c, 0, 79, 0
2, 210231, Note_on_c, 0, 84, 0
2, 210259, Note_on_c, 0, 76, 55
2, 210663, Note_on_c, 0, 67, 0
2, 210680, Note_on_c, 0, 62, 0
2, 210774, Note_on_c, 0, 57, 0
2, 210777, Note_on_c, 0, 63, 0
2, 210842, Note_on_c, 0, 76, 0
2, 210850, Note_on_c, 0, 74, 57
2, 211242, Note_on_c, 0, 74, 0
2, 211249, Note_on_c, 0, 56, 37
2, 211264, Note_on_c, 0, 67, 31
2, 211279, Note_on_c, 0, 62, 48
2, 211325, Note_on_c, 0, 72, 35
2, 213273, Note_on_c, 0, 72, 0
2, 213332, Note_on_c, 0, 67, 0
2, 213485, Note_on_c, 0, 68, 74
2, 213707, Note_on_c, 0, 68, 0
2, 213785, Note_on_c, 0, 71, 88
2, 214129, Note_on_c, 0, 62, 0
2, 214133, Note_on_c, 0, 69, 81
2, 214212, Note_on_c, 0, 56, 0
2, 214230, Note_on_c, 0, 71, 0
2, 214787, Note_on_c, 0, 62, 69
2, 214954, Note_on_c, 0, 69, 0
2, 215303, Note_on_c, 0, 62, 0
2, 215376, Note_on_c, 0, 65, 66
2, 215892, Note_on_c, 0, 65, 0
2, 215952, Note_on_c, 0, 64, 49
2, 216522, Note_on_c, 0, 64, 0
2, 216586, Note_on_c, 0, 59, 55
2, 216638, Note_on_c, 0, 45, 25
2, 216642, Note_on_c, 0, 55, 20
2, 217356, Note_on_c, 0, 60, 76
2, 217392, Note_on_c, 0, 59, 0
2, 217922, Note_on_c, 0, 60, 0
2, 218002, Note_on_c, 0, 62, 80
2, 218074, Note_on_c, 0, 45, 0
2, 218169, Note_on_c, 0, 55, 0
2, 218631, Note_on_c, 0, 64, 81
2, 218687, Note_on_c, 0, 62, 0
2, 218781, Control_c, 0, 64, 127
2, 219190, Note_on_c, 0, 64, 0
2, 219251, Note_on_c, 0, 65, 75
2, 219291, Control_c, 0, 64, 0
2, 219379, Control_c, 0, 64, 127
2, 219799, Note_on_c, 0, 65, 0
2, 219854, Control_c, 0, 64, 0
2, 219872, Note_on_c, 0, 67, 62
2, 219892, Note_on_c, 0, 64, 62
2, 219896, Note_on_c, 0, 60, 54
2, 220242, Note_on_c, 0, 60, 0
2, 220274, Control_c, 0, 64, 127
2, 220426, Note_on_c, 0, 67, 0
2, 220512, Note_on_c, 0, 69, 72
2, 220518, Control_c, 0, 64, 0
2, 220562, Note_on_c, 0, 60, 25
2, 220585, Note_on_c, 0, 59, 38
2, 220749, Control_c, 0, 64, 127
2, 220751, Note_on_c, 0, 60, 0
2, 220781, Note_on_c, 0, 59, 0
2, 220838, Note_on_c, 0, 69, 0
2, 220865, Note_on_c, 0, 64, 0
2, 221088, Note_on_c, 0, 71, 71
2, 221144, Note_on_c, 0, 60, 31
2, 221170, Note_on_c, 0, 59, 29
2, 221340, Note_on_c, 0, 60, 0
2, 221352, Note_on_c, 0, 59, 0
2, 221391, Note_on_c, 0, 71, 0
2, 221629, Control_c, 0, 64, 0
2, 221682, Note_on_c, 0, 72, 69
2, 221718, Note_on_c, 0, 64, 34
2, 221735, Note_on_c, 0, 60, 28
2, 221746, Note_on_c, 0, 59, 24
2, 221789, Control_c, 0, 64, 127
2, 221841, Note_on_c, 0, 59, 0
2, 221841, Note_on_c, 0, 60, 0
2, 221866, Note_on_c, 0, 64, 0
2, 221885, Note_on_c, 0, 72, 0
2, 222266, Control_c, 0, 64, 0
2, 222295, Note_on_c, 0, 74, 54
2, 222304, Note_on_c, 0, 64, 51
2, 222319, Note_on_c, 0, 71, 44
2, 222323, Note_on_c, 0, 68, 44
2, 222325, Note_on_c, 0, 54, 42
2, 222334, Note_on_c, 0, 60, 36
2, 222613, Control_c, 0, 64, 127
2, 223768, Note_on_c, 0, 54, 0
2, 223924, Note_on_c, 0, 60, 0
2, 224030, Note_on_c, 0, 64, 0
2, 224071, Note_on_c, 0, 74, 0
2, 224117, Note_on_c, 0, 71, 0
2, 224226, Note_on_c, 0, 68, 0
2, 225646, Note_on_c, 0, 81, 47
2, 225781, Note_on_c, 0, 81, 0
2, 225975, Note_on_c, 0, 84, 50
2, 226091, Note_on_c, 0, 84, 0
2, 226281, Note_on_c, 0, 93, 90
2, 226575, Note_on_c, 0, 93, 0
2, 226610, Control_c, 0, 64, 0
2, 226621, Note_on_c, 0, 53, 42
2, 226637, Note_on_c, 0, 57, 36
2, 226641, Note_on_c, 0, 50, 28
2, 226645, Note_on_c, 0, 89, 64
2, 226648, Note_on_c, 0, 60, 24
2, 227152, Note_on_c, 0, 89, 0
2, 227246, Note_on_c, 0, 89, 65
2, 227434, Note_on_c, 0, 89, 0
2, 227619, Note_on_c, 0, 84, 44
2, 227735, Note_on_c, 0, 84, 0
2, 227851, Note_on_c, 0, 57, 0
2, 227860, Note_on_c, 0, 53, 0
2, 227965, Note_on_c, 0, 60, 0
2, 228040, Note_on_c, 0, 50, 0
2, 228217, Note_on_c, 0, 84, 54
2, 228471, Note_on_c, 0, 84, 0
2, 228604, Note_on_c, 0, 81, 44
2, 229281, Control_c, 0, 64, 127
2, 229440, Note_on_c, 0, 81, 0
2, 230001, Control_c, 0, 64, 0
2, 230087, Note_on_c, 0, 81, 64
2, 230089, Note_on_c, 0, 54, 49
2, 230096, Note_on_c, 0, 63, 52
2, 230098, Note_on_c, 0, 72, 62
2, 230110, Note_on_c, 0, 75, 59
2, 230122, Note_on_c, 0, 60, 41
2, 230319, Control_c, 0, 64, 127
2, 230321, Note_on_c, 0, 81, 0
2, 230360, Note_on_c, 0, 60, 0
2, 230362, Note_on_c, 0, 72, 0
2, 230363, Note_on_c, 0, 75, 0
2, 230430, Note_on_c, 0, 54, 0
2, 230458, Note_on_c, 0, 63, 0
2, 230524, Control_c, 0, 64, 0
2, 230573, Note_on_c, 0, 73, 40
2, 230606, Note_on_c, 0, 79, 43
2, 230635, Note_on_c, 0, 64, 48
2, 230645, Note_on_c, 0, 55, 41
2, 230654, Note_on_c, 0, 69, 26
2, 230733, Note_on_c, 0, 73, 0
2, 231057, Control_c, 0, 64, 127
2, 231486, Note_on_c, 0, 79, 0
2, 231537, Note_on_c, 0, 64, 0
2, 231553, Note_on_c, 0, 69, 0
2, 231575, Note_on_c, 0, 55, 0
2, 232298, Control_c, 0, 64, 0
2, 232358, Note_on_c, 0, 59, 31
2, 232363, Note_on_c, 0, 71, 33
2, 232366, Note_on_c, 0, 76, 39
2, 232377, Note_on_c, 0, 68, 25
2, 232382, Note_on_c, 0, 64, 34
2, 232386, Note_on_c, 0, 53, 31
2, 232389, Note_on_c, 0, 65, 33
2, 232598, Control_c, 0, 64, 127
2, 232774, Note_on_c, 0, 65, 0
2, 232849, Note_on_c, 0, 68, 0
2, 232939, Note_on_c, 0, 71, 0
2, 233014, Note_on_c, 0, 59, 0
2, 233050, Note_on_c, 0, 76, 0
2, 233073, Note_on_c, 0, 53, 0
2, 233166, Note_on_c, 0, 64, 0
2, 233836, Note_on_c, 0, 91, 88
2, 233856, Note_on_c, 0, 83, 84
2, 233869, Note_on_c, 0, 67, 69
2, 233875, Note_on_c, 0, 64, 65
2, 233894, Note_on_c, 0, 62, 64
2, 234013, Note_on_c, 0, 83, 0
2, 234030, Note_on_c, 0, 91, 0
2, 234242, Note_on_c, 0, 67, 0
2, 234320, Control_c, 0, 64, 0
2, 234339, Note_on_c, 0, 88, 67
2, 234354, Note_on_c, 0, 79, 58
2, 234355, Note_on_c, 0, 55, 64
2, 234575, Note_on_c, 0, 88, 0
2, 234581, Control_c, 0, 64, 127
2, 234675, Note_on_c, 0, 79, 0
2, 234896, Note_on_c, 0, 64, 0
2, 235020, Note_on_c, 0, 62, 0
2, 235245, Note_on_c, 0, 62, 29
2, 235251, Note_on_c, 0, 84, 75
2, 235252, Note_on_c, 0, 67, 52
2, 235257, Note_on_c, 0, 64, 42
2, 235265, Note_on_c, 0, 76, 68
2, 235511, Note_on_c, 0, 67, 0
2, 235512, Note_on_c, 0, 64, 0
2, 235542, Note_on_c, 0, 62, 0
2, 235619, Note_on_c, 0, 55, 0
2, 235625, Note_on_c, 0, 84, 0
2, 235671, Note_on_c, 0, 76, 0
2, 236182, Control_c, 0, 64, 0
2, 236209, Note_on_c, 0, 61, 77
2, 236212, Note_on_c, 0, 55, 88
2, 236214, Note_on_c, 0, 58, 73
2, 236214, Note_on_c, 0, 65, 88
2, 236219, Note_on_c, 0, 77, 84
2, 236220, Note_on_c, 0, 81, 79
2, 236223, Note_on_c, 0, 84, 85
2, 236225, Note_on_c, 0, 72, 90
2, 237105, Control_c, 0, 64, 127
2, 237445, Note_on_c, 0, 72, 0
2, 237506, Note_on_c, 0, 55, 0
2, 237527, Note_on_c, 0, 65, 0
2, 237543, Note_on_c, 0, 84, 0
2, 237557, Note_on_c, 0, 77, 0
2, 237603, Note_on_c, 0, 81, 0
2, 237704, Note_on_c, 0, 61, 0
2, 237735, Note_on_c, 0, 58, 0
2, 238100, Control_c, 0, 64, 0
2, 238135, Note_on_c, 0, 60, 85
2, 238138, Note_on_c, 0, 53, 84
2, 238139, Note_on_c, 0, 88, 88
2, 238142, Note_on_c, 0, 81, 92
2, 238143, Note_on_c, 0, 84, 90
2, 238145, Note_on_c, 0, 57, 78
2, 238148, Note_on_c, 0, 76, 91
2, 238149, Note_on_c, 0, 64, 88
2, 238441, Control_c, 0, 64, 127
2, 238441, Note_on_c, 0, 86, 24
2, 238470, Note_on_c, 0, 76, 0
2, 238509, Note_on_c, 0, 81, 0
2, 238513, Note_on_c, 0, 88, 0
2, 238571, Note_on_c, 0, 86, 0
2, 238571, Note_on_c, 0, 84, 0
2, 238576, Note_on_c, 0, 53, 0
2, 238600, Note_on_c, 0, 64, 0
2, 238642, Note_on_c, 0, 57, 0
2, 238652, Note_on_c, 0, 60, 0
2, 238792, Note_on_c, 0, 91, 85
2, 238798, Note_on_c, 0, 84, 90
2, 238800, Note_on_c, 0, 79, 85
2, 238807, Note_on_c, 0, 60, 78
2, 238808, Note_on_c, 0, 88, 71
2, 238809, Note_on_c, 0, 53, 82
2, 238812, Note_on_c, 0, 57, 79
2, 238815, Note_on_c, 0, 64, 82
2, 238992, Note_on_c, 0, 88, 0
2, 239002, Note_on_c, 0, 84, 0
2, 239008, Note_on_c, 0, 91, 0
2, 239029, Note_on_c, 0, 64, 0
2, 239034, Note_on_c, 0, 79, 0
2, 239062, Note_on_c, 0, 57, 0
2, 239070, Note_on_c, 0, 60, 0
2, 239075, Note_on_c, 0, 53, 0
2, 239158, Control_c, 0, 64, 0
2, 239160, Note_on_c, 0, 88, 71
2, 239161, Note_on_c, 0, 60, 75
2, 239162, Note_on_c, 0, 57, 66
2, 239165, Note_on_c, 0, 64, 74
2, 239168, Note_on_c, 0, 81, 70
2, 239170, Note_on_c, 0, 53, 69
2, 239178, Note_on_c, 0, 76, 60
2, 239185, Note_on_c, 0, 84, 66
2, 239411, Note_on_c, 0, 84, 0
2, 239428, Note_on_c, 0, 88, 0
2, 239436, Note_on_c, 0, 81, 0
2, 239454, Note_on_c, 0, 76, 0
2, 239457, Note_on_c, 0, 64, 0
2, 239473, Note_on_c, 0, 60, 0
2, 239484, Note_on_c, 0, 57, 0
2, 239551, Note_on_c, 0, 53, 0
2, 240145, Control_c, 0, 64, 127
2, 240577, Control_c, 0, 64, 0
2, 240668, Note_on_c, 0, 73, 87
2, 240670, Note_on_c, 0, 85, 91
2, 240681, Note_on_c, 0, 59, 90
2, 240697, Note_on_c, 0, 53, 72
2, 240698, Note_on_c, 0, 64, 71
2, 240709, Note_on_c, 0, 62, 78
2, 240754, Note_on_c, 0, 85, 0
2, 240756, Note_on_c, 0, 62, 0
2, 240795, Note_on_c, 0, 64, 0
2, 240804, Note_on_c, 0, 73, 0
2, 240874, Note_on_c, 0, 59, 0
2, 240893, Note_on_c, 0, 53, 0
2, 241293, Note_on_c, 0, 73, 65
2, 241294, Note_on_c, 0, 81, 67
2, 241311, Note_on_c, 0, 76, 62
2, 241315, Note_on_c, 0, 53, 70
2, 241316, Note_on_c, 0, 69, 68
2, 241322, Note_on_c, 0, 63, 77
2, 241323, Note_on_c, 0, 59, 70
2, 241334, Note_on_c, 0, 56, 50
2, 241542, Control_c, 0, 64, 127
2, 241664, Note_on_c, 0, 81, 0
2, 241667, Note_on_c, 0, 59, 0
2, 241754, Note_on_c, 0, 69, 0
2, 241791, Note_on_c, 0, 53, 0
2, 241816, Note_on_c, 0, 63, 0
2, 241863, Note_on_c, 0, 56, 0
2, 241871, Note_on_c, 0, 73, 0
2, 241900, Note_on_c, 0, 76, 0
2, 241920, Control_c, 0, 64, 0
2, 241956, Note_on_c, 0, 79, 61
2, 241962, Note_on_c, 0, 74, 71
2, 241972, Note_on_c, 0, 62, 67
2, 241978, Note_on_c, 0, 57, 65
2, 241984, Note_on_c, 0, 69, 71
2, 242001, Note_on_c, 0, 52, 57
2, 242394, Control_c, 0, 64, 127
2, 242577, Note_on_c, 0, 79, 0
2, 242620, Note_on_c, 0, 74, 0
2, 242668, Note_on_c, 0, 69, 0
2, 242677, Note_on_c, 0, 62, 0
2, 242690, Note_on_c, 0, 57, 0
2, 242802, Note_on_c, 0, 52, 0
2, 243143, Control_c, 0, 64, 0
2, 243293, Note_on_c, 0, 64, 75
2, 243304, Note_on_c, 0, 55, 77
2, 243306, Note_on_c, 0, 59, 77
2, 243341, Note_on_c, 0, 52, 64
2, 243563, Note_on_c, 0, 51, 71
2, 243571, Note_on_c, 0, 55, 0
2, 243590, Note_on_c, 0, 52, 0
2, 243592, Note_on_c, 0, 59, 0
2, 243623, Note_on_c, 0, 64, 0
2, 243834, Note_on_c, 0, 64, 71
2, 243839, Note_on_c, 0, 59, 74
2, 243848, Note_on_c, 0, 55, 74
2, 243863, Note_on_c, 0, 52, 70
2, 243884, Note_on_c, 0, 51, 0
2, 244094, Control_c, 0, 64, 127
2, 244224, Note_on_c, 0, 59, 0
2, 244252, Note_on_c, 0, 64, 0
2, 244257, Note_on_c, 0, 55, 0
2, 244326, Note_on_c, 0, 52, 0
2, 244332, Note_on_c, 0, 51, 18
2, 244476, Note_on_c, 0, 57, 85
2, 244489, Note_on_c, 0, 62, 79
2, 244491, Note_on_c, 0, 51, 0
2, 244492, Note_on_c, 0, 67, 64
2, 244498, Note_on_c, 0, 55, 79
2, 244506, Note_on_c, 0, 65, 71
2, 244683, Note_on_c, 0, 65, 0
2, 244711, Note_on_c, 0, 57, 0
2, 244718, Note_on_c, 0, 67, 0
2, 244770, Note_on_c, 0, 55, 0
2, 244813, Note_on_c, 0, 62, 0
2, 244869, Note_on_c, 0, 62, 66
2, 244876, Control_c, 0, 64, 0
2, 244879, Note_on_c, 0, 69, 82
2, 244882, Note_on_c, 0, 59, 72
2, 244890, Note_on_c, 0, 65, 69
2, 244903, Note_on_c, 0, 57, 70
2, 245105, Control_c, 0, 64, 127
2, 245126, Note_on_c, 0, 59, 0
2, 245190, Note_on_c, 0, 69, 0
2, 245204, Note_on_c, 0, 62, 0
2, 245208, Note_on_c, 0, 65, 0
2, 245343, Note_on_c, 0, 57, 0
2, 245469, Control_c, 0, 64, 0
2, 245477, Note_on_c, 0, 72, 71
2, 245486, Note_on_c, 0, 65, 82
2, 245489, Note_on_c, 0, 62, 89
2, 245495, Note_on_c, 0, 60, 82
2, 245500, Note_on_c, 0, 69, 77
2, 245518, Note_on_c, 0, 71, 44
2, 245572, Note_on_c, 0, 71, 0
2, 245743, Note_on_c, 0, 71, 16
2, 245828, Control_c, 0, 64, 127
2, 245850, Note_on_c, 0, 62, 0
2, 245873, Note_on_c, 0, 69, 0
2, 245877, Note_on_c, 0, 65, 0
2, 245913, Note_on_c, 0, 72, 0
2, 245918, Note_on_c, 0, 71, 0
2, 245948, Note_on_c, 0, 60, 0
2, 246046, Control_c, 0, 64, 0
2, 246060, Note_on_c, 0, 74, 76
2, 246063, Note_on_c, 0, 67, 80
2, 246064, Note_on_c, 0, 70, 73
2, 246066, Note_on_c, 0, 65, 81
2, 246084, Note_on_c, 0, 62, 79
2, 246161, Control_c, 0, 64, 127
2, 246296, Note_on_c, 0, 67, 0
2, 246313, Note_on_c, 0, 65, 0
2, 246339, Note_on_c, 0, 70, 0
2, 246365, Note_on_c, 0, 74, 0
2, 246699, Note_on_c, 0, 62, 0
2, 246753, Control_c, 0, 64, 0
2, 246756, Note_on_c, 0, 77, 73
2, 246757, Note_on_c, 0, 74, 80
2, 246771, Note_on_c, 0, 70, 77
2, 246771, Note_on_c, 0, 67, 90
2, 246781, Note_on_c, 0, 64, 78
2, 247056, Control_c, 0, 64, 127
2, 247159, Note_on_c, 0, 70, 0
2, 247166, Note_on_c, 0, 67, 0
2, 247171, Note_on_c, 0, 74, 0
2, 247271, Note_on_c, 0, 77, 0
2, 247524, Note_on_c, 0, 64, 0
2, 248006, Control_c, 0, 64, 0
2, 248061, Note_on_c, 0, 73, 69
2, 248062, Note_on_c, 0, 70, 86
2, 248066, Note_on_c, 0, 81, 75
2, 248076, Note_on_c, 0, 76, 74
2, 248081, Note_on_c, 0, 69, 82
2, 248139, Note_on_c, 0, 79, 33
2, 248241, Control_c, 0, 64, 127
2, 248245, Note_on_c, 0, 79, 0
2, 248310, Note_on_c, 0, 70, 0
2, 248366, Note_on_c, 0, 73, 0
2, 248367, Note_on_c, 0, 81, 0
2, 248369, Note_on_c, 0, 76, 0
2, 248442, Note_on_c, 0, 69, 0
2, 248724, Note_on_c, 0, 85, 80
2, 248731, Note_on_c, 0, 70, 81
2, 248739, Note_on_c, 0, 76, 80
2, 248741, Note_on_c, 0, 80, 82
2, 248745, Control_c, 0, 64, 0
2, 249037, Control_c, 0, 64, 127
2, 249208, Note_on_c, 0, 85, 0
2, 249216, Note_on_c, 0, 80, 0
2, 249236, Note_on_c, 0, 76, 0
2, 249243, Note_on_c, 0, 70, 0
2, 249361, Note_on_c, 0, 84, 73
2, 249367, Control_c, 0, 64, 0
2, 249376, Note_on_c, 0, 79, 80
2, 249387, Note_on_c, 0, 69, 79
2, 249392, Note_on_c, 0, 74, 80
2, 249615, Note_on_c, 0, 84, 0
2, 249618, Note_on_c, 0, 79, 0
2, 249748, Note_on_c, 0, 74, 0
2, 249843, Control_c, 0, 64, 127
2, 249844, Note_on_c, 0, 69, 0
2, 249950, Note_on_c, 0, 76, 68
2, 249957, Control_c, 0, 64, 0
2, 249963, Note_on_c, 0, 69, 48
2, 249983, Note_on_c, 0, 64, 62
2, 249995, Note_on_c, 0, 73, 33
2, 250115, Control_c, 0, 64, 127
2, 250143, Note_on_c, 0, 73, 0
2, 250403, Note_on_c, 0, 69, 0
2, 250482, Note_on_c, 0, 76, 0
2, 250524, Control_c, 0, 64, 0
2, 250557, Note_on_c, 0, 64, 0
2, 250560, Note_on_c, 0, 79, 75
2, 250574, Note_on_c, 0, 72, 67
2, 250575, Note_on_c, 0, 69, 81
2, 250580, Note_on_c, 0, 76, 68
2, 250585, Note_on_c, 0, 67, 68
2, 250812, Control_c, 0, 64, 127
2, 250816, Note_on_c, 0, 76, 0
2, 250854, Note_on_c, 0, 79, 0
2, 250885, Note_on_c, 0, 67, 0
2, 250892, Note_on_c, 0, 72, 0
2, 250958, Note_on_c, 0, 69, 0
2, 251193, Note_on_c, 0, 72, 47
2, 251220, Note_on_c, 0, 60, 55
2, 251223, Note_on_c, 0, 69, 58
2, 251225, Note_on_c, 0, 65, 40
2, 251230, Control_c, 0, 64, 0
2, 251555, Note_on_c, 0, 65, 0
2, 251577, Note_on_c, 0, 69, 0
2, 251673, Note_on_c, 0, 72, 0
2, 251749, Note_on_c, 0, 60, 0
2, 251752, Note_on_c, 0, 76, 62
2, 251767, Note_on_c, 0, 72, 55
2, 251769, Note_on_c, 0, 64, 53
2, 251772, Note_on_c, 0, 69, 58
2, 251782, Note_on_c, 0, 65, 63
2, 251793, Control_c, 0, 64, 127
2, 251999, Note_on_c, 0, 64, 0
2, 252035, Note_on_c, 0, 69, 0
2, 252044, Note_on_c, 0, 72, 0
2, 252047, Note_on_c, 0, 76, 0
2, 252077, Note_on_c, 0, 65, 0
2, 252370, Control_c, 0, 64, 0
2, 252430, Note_on_c, 0, 64, 52
2, 252434, Note_on_c, 0, 67, 54
2, 252453, Note_on_c, 0, 69, 48
2, 252456, Note_on_c, 0, 57, 48
2, 252543, Control_c, 0, 64, 127
2, 252589, Note_on_c, 0, 57, 0
2, 252608, Note_on_c, 0, 64, 0
2, 252687, Note_on_c, 0, 67, 0
2, 252721, Note_on_c, 0, 69, 0
2, 253452, Control_c, 0, 64, 0
2, 253487, Note_on_c, 0, 86, 78
2, 253489, Note_on_c, 0, 61, 60
2, 253492, Note_on_c, 0, 65, 74
2, 253499, Note_on_c, 0, 74, 64
2, 253502, Note_on_c, 0, 60, 62
2, 253503, Note_on_c, 0, 81, 71
2, 253518, Note_on_c, 0, 55, 64
2, 253886, Control_c, 0, 64, 127
2, 254126, Note_on_c, 0, 74, 0
2, 254180, Note_on_c, 0, 55, 0
2, 254184, Note_on_c, 0, 81, 0
2, 254188, Note_on_c, 0, 86, 0
2, 254193, Note_on_c, 0, 65, 0
2, 254233, Note_on_c, 0, 61, 0
2, 254258, Note_on_c, 0, 60, 0
2, 254443, Control_c, 0, 64, 0
2, 254446, Note_on_c, 0, 88, 81
2, 254455, Note_on_c, 0, 60, 77
2, 254456, Note_on_c, 0, 82, 75
2, 254459, Note_on_c, 0, 76, 81
2, 254463, Note_on_c, 0, 61, 70
2, 254470, Note_on_c, 0, 65, 80
2, 254483, Note_on_c, 0, 55, 67
2, 254930, Control_c, 0, 64, 127
2, 255112, Note_on_c, 0, 88, 0
2, 255121, Note_on_c, 0, 82, 0
2, 255161, Note_on_c, 0, 65, 0
2, 255180, Note_on_c, 0, 60, 0
2, 255186, Note_on_c, 0, 76, 0
2, 255228, Note_on_c, 0, 55, 0
2, 255277, Note_on_c, 0, 61, 0
2, 255368, Note_on_c, 0, 81, 63
2, 255384, Note_on_c, 0, 77, 55
2, 255386, Note_on_c, 0, 72, 36
2, 255392, Control_c, 0, 64, 0
2, 255397, Note_on_c, 0, 61, 44
2, 255400, Note_on_c, 0, 55, 60
2, 255407, Note_on_c, 0, 64, 56
2, 255780, Control_c, 0, 64, 127
2, 256366, Note_on_c, 0, 64, 0
2, 256386, Note_on_c, 0, 61, 0
2, 256387, Note_on_c, 0, 81, 0
2, 256389, Note_on_c, 0, 77, 0
2, 256420, Note_on_c, 0, 55, 0
2, 256463, Note_on_c, 0, 72, 0
2, 257328, Note_on_c, 0, 76, 87
2, 257335, Note_on_c, 0, 69, 91
2, 257339, Note_on_c, 0, 73, 52
2, 257340, Note_on_c, 0, 65, 92
2, 257352, Note_on_c, 0, 61, 82
2, 257365, Control_c, 0, 64, 0
2, 257579, Note_on_c, 0, 65, 0
2, 257586, Note_on_c, 0, 69, 0
2, 257594, Note_on_c, 0, 73, 0
2, 257618, Note_on_c, 0, 61, 0
2, 257653, Note_on_c, 0, 76, 0
2, 257991, Note_on_c, 0, 74, 77
2, 257992, Note_on_c, 0, 60, 66
2, 258002, Note_on_c, 0, 69, 82
2, 258007, Note_on_c, 0, 65, 81
2, 258158, Note_on_c, 0, 69, 0
2, 258167, Note_on_c, 0, 74, 0
2, 258217, Note_on_c, 0, 65, 0
2, 258325, Note_on_c, 0, 60, 0
2, 258371, Note_on_c, 0, 72, 57
2, 258380, Note_on_c, 0, 57, 63
2, 258400, Note_on_c, 0, 62, 61
2, 258402, Note_on_c, 0, 65, 61
2, 258649, Note_on_c, 0, 57, 0
2, 258659, Note_on_c, 0, 72, 0
2, 258673, Note_on_c, 0, 65, 0
2, 258764, Note_on_c, 0, 62, 0
2, 259006, Note_on_c, 0, 52, 29
2, 259042, Control_c, 0, 64, 127
2, 259114, Control_c, 0, 64, 0
2, 259115, Note_on_c, 0, 52, 0
2, 259262, Note_on_c, 0, 58, 67
2, 259270, Note_on_c, 0, 61, 57
2, 259275, Note_on_c, 0, 69, 70
2, 259276, Note_on_c, 0, 64, 61
2, 259280, Note_on_c, 0, 55, 59
2, 259894, Control_c, 0, 64, 127
2, 259965, Note_on_c, 0, 69, 0
2, 259970, Note_on_c, 0, 64, 0
2, 259974, Note_on_c, 0, 58, 0
2, 259994, Note_on_c, 0, 61, 0
2, 260209, Note_on_c, 0, 55, 0
2, 260209, Control_c, 0, 64, 0
2, 260219, Note_on_c, 0, 58, 59
2, 260225, Note_on_c, 0, 61, 55
2, 260235, Note_on_c, 0, 67, 62
2, 260243, Note_on_c, 0, 52, 45
2, 260248, Note_on_c, 0, 64, 63
2, 260535, Note_on_c, 0, 67, 0
2, 260654, Note_on_c, 0, 58, 0
2, 260752, Note_on_c, 0, 64, 0
2, 260787, Control_c, 0, 64, 127
2, 260848, Note_on_c, 0, 61, 0
2, 260956, Note_on_c, 0, 49, 25
2, 260958, Note_on_c, 0, 52, 0
2, 261091, Control_c, 0, 64, 0
2, 261130, Note_on_c, 0, 49, 0
2, 261171, Note_on_c, 0, 67, 72
2, 261172, Note_on_c, 0, 60, 72
2, 261184, Note_on_c, 0, 50, 49
2, 261190, Note_on_c, 0, 57, 64
2, 261231, Note_on_c, 0, 65, 29
2, 261341, Note_on_c, 0, 65, 0
2, 261724, Note_on_c, 0, 57, 0
2, 261741, Control_c, 0, 64, 127
2, 261754, Note_on_c, 0, 67, 0
2, 261831, Note_on_c, 0, 65, 73
2, 261835, Note_on_c, 0, 57, 64
2, 261849, Note_on_c, 0, 38, 64
2, 262035, Note_on_c, 0, 38, 0
2, 262335, Note_on_c, 0, 50, 0
2, 262458, Note_on_c, 0, 57, 0
2, 262498, Note_on_c, 0, 60, 0
2, 262599, Note_on_c, 0, 65, 0
2, 263711, Note_on_c, 0, 63, 93
2, 263716, Note_on_c, 0, 69, 88
2, 263722, Note_on_c, 0, 66, 71
2, 263726, Note_on_c, 0, 60, 95
2, 263729, Note_on_c, 0, 57, 74
2, 263835, Note_on_c, 0, 66, 0
2, 264003, Note_on_c, 0, 57, 0
2, 264005, Note_on_c, 0, 63, 0
2, 264014, Note_on_c, 0, 60, 0
2, 264051, Control_c, 0, 64, 0
2, 264067, Note_on_c, 0, 54, 54
2, 264084, Note_on_c, 0, 69, 0
2, 264090, Note_on_c, 0, 60, 19
2, 264091, Note_on_c, 0, 63, 25
2, 264107, Note_on_c, 0, 66, 51
2, 264257, Note_on_c, 0, 60, 0
2, 264353, Control_c, 0, 64, 127
2, 264395, Note_on_c, 0, 66, 0
2, 264440, Note_on_c, 0, 63, 0
2, 264668, Note_on_c, 0, 67, 76
2, 264671, Note_on_c, 0, 62, 83
2, 264674, Control_c, 0, 64, 0
2, 264710, Note_on_c, 0, 55, 69
2, 264764, Note_on_c, 0, 54, 0
2, 264786, Note_on_c, 0, 62, 0
2, 264815, Note_on_c, 0, 55, 0
2, 264850, Note_on_c, 0, 67, 0
2, 265269, Note_on_c, 0, 83, 71
2, 265273, Note_on_c, 0, 76, 71
2, 265276, Note_on_c, 0, 64, 71
2, 265278, Note_on_c, 0, 71, 77
2, 265279, Note_on_c, 0, 80, 57
2, 265280, Note_on_c, 0, 60, 63
2, 265284, Note_on_c, 0, 59, 55
2, 265429, Note_on_c, 0, 64, 0
2, 265463, Note_on_c, 0, 60, 0
2, 265486, Control_c, 0, 64, 127
2, 265487, Note_on_c, 0, 59, 0
2, 265505, Note_on_c, 0, 71, 0
2, 265544, Note_on_c, 0, 76, 0
2, 265585, Note_on_c, 0, 80, 0
2, 265589, Note_on_c, 0, 83, 0
2, 265819, Control_c, 0, 64, 0
2, 266019, Note_on_c, 0, 57, 73
2, 266025, Note_on_c, 0, 62, 79
2, 266036, Note_on_c, 0, 52, 71
2, 266040, Note_on_c, 0, 79, 79
2, 266041, Note_on_c, 0, 84, 79
2, 266047, Note_on_c, 0, 72, 71
2, 266129, Note_on_c, 0, 72, 0
2, 266131, Note_on_c, 0, 62, 0
2, 266141, Note_on_c, 0, 57, 0
2, 266144, Note_on_c, 0, 79, 0
2, 266154, Note_on_c, 0, 52, 0
2, 266176, Note_on_c, 0, 84, 0
2, 266692, Note_on_c, 0, 79, 71
2, 266697, Note_on_c, 0, 57, 62
2, 266698, Note_on_c, 0, 84, 76
2, 266699, Note_on_c, 0, 72, 65
2, 266700, Note_on_c, 0, 62, 66
2, 266712, Note_on_c, 0, 52, 63
2, 266964, Control_c, 0, 64, 127
2, 267846, Note_on_c, 0, 57, 0
2, 267902, Note_on_c, 0, 79, 0
2, 267932, Note_on_c, 0, 62, 0
2, 267938, Note_on_c, 0, 52, 0
2, 267944, Note_on_c, 0, 84, 0
2, 267997, Note_on_c, 0, 72, 0
2, 268320, Note_on_c, 0, 83, 77
2, 268364, Note_on_c, 0, 71, 72
2, 268479, Note_on_c, 0, 71, 0
2, 268524, Note_on_c, 0, 83, 0
2, 268585, Note_on_c, 0, 82, 68
2, 268726, Note_on_c, 0, 82, 0
2, 268853, Control_c, 0, 64, 0
2, 268863, Note_on_c, 0, 83, 77
2, 268867, Note_on_c, 0, 67, 50
2, 268869, Note_on_c, 0, 56, 48
2, 268873, Note_on_c, 0, 71, 74
2, 268880, Note_on_c, 0, 62, 49
2, 269230, Control_c, 0, 64, 127
2, 269557, Note_on_c, 0, 71, 0
2, 269603, Note_on_c, 0, 83, 0
2, 269627, Note_on_c, 0, 67, 0
2, 269633, Note_on_c, 0, 56, 0
2, 269672, Note_on_c, 0, 62, 0
2, 269847, Note_on_c, 0, 84, 66
2, 269855, Note_on_c, 0, 67, 43
2, 269858, Note_on_c, 0, 72, 49
2, 269864, Note_on_c, 0, 56, 32
2, 269880, Control_c, 0, 64, 0
2, 269891, Note_on_c, 0, 62, 34
2, 270124, Control_c, 0, 64, 127
2, 270250, Note_on_c, 0, 67, 0
2, 270270, Note_on_c, 0, 56, 0
2, 270302, Note_on_c, 0, 84, 0
2, 270312, Note_on_c, 0, 72, 0
2, 270338, Note_on_c, 0, 62, 0
2, 270442, Control_c, 0, 64, 0
2, 270501, Note_on_c, 0, 84, 62
2, 270502, Note_on_c, 0, 72, 40
2, 270507, Note_on_c, 0, 65, 53
2, 270518, Note_on_c, 0, 62, 33
2, 270539, Note_on_c, 0, 56, 35
2, 270728, Control_c, 0, 64, 127
2, 270763, Note_on_c, 0, 72, 0
2, 271021, Note_on_c, 0, 84, 0
2, 271154, Note_on_c, 0, 82, 83
2, 271170, Note_on_c, 0, 65, 0
2, 271356, Note_on_c, 0, 82, 0
2, 271418, Note_on_c, 0, 83, 90
2, 271619, Note_on_c, 0, 83, 0
2, 271697, Control_c, 0, 64, 0
2, 271727, Note_on_c, 0, 86, 99
2, 271734, Note_on_c, 0, 65, 57
2, 272024, Note_on_c, 0, 62, 0
2, 272040, Note_on_c, 0, 86, 0
2, 272050, Note_on_c, 0, 83, 64
2, 272055, Control_c, 0, 64, 127
2, 272210, Note_on_c, 0, 65, 0
2, 272255, Note_on_c, 0, 83, 0
2, 272363, Note_on_c, 0, 84, 92
2, 272388, Note_on_c, 0, 56, 0
2, 272631, Note_on_c, 0, 57, 50
2, 272635, Control_c, 0, 64, 0
2, 272656, Note_on_c, 0, 60, 45
2, 272662, Note_on_c, 0, 64, 37
2, 272980, Control_c, 0, 64, 127
2, 273529, Note_on_c, 0, 57, 0
2, 273550, Note_on_c, 0, 64, 0
2, 273593, Note_on_c, 0, 84, 0
2, 273615, Control_c, 0, 64, 0
2, 273644, Note_on_c, 0, 64, 48
2, 273647, Note_on_c, 0, 56, 82
2, 273665, Note_on_c, 0, 86, 94
2, 273962, Control_c, 0, 64, 127
2, 274397, Note_on_c, 0, 86, 0
2, 274589, Note_on_c, 0, 60, 0
2, 274620, Note_on_c, 0, 56, 0
2, 274753, Note_on_c, 0, 64, 0
2, 275145, Control_c, 0, 64, 0
2, 275171, Note_on_c, 0, 83, 80
2, 275173, Note_on_c, 0, 71, 82
2, 275174, Note_on_c, 0, 64, 69
2, 275180, Note_on_c, 0, 55, 71
2, 275183, Note_on_c, 0, 60, 60
2, 275402, Note_on_c, 0, 71, 0
2, 275405, Note_on_c, 0, 55, 0
2, 275409, Note_on_c, 0, 64, 0
2, 275412, Note_on_c, 0, 60, 0
2, 275423, Note_on_c, 0, 83, 0
2, 275488, Control_c, 0, 64, 127
2, 275736, Note_on_c, 0, 72, 68
2, 275737, Note_on_c, 0, 84, 81
2, 275740, Note_on_c, 0, 55, 71
2, 275753, Note_on_c, 0, 64, 52
2, 275776, Note_on_c, 0, 60, 42
2, 275891, Note_on_c, 0, 72, 0
2, 275938, Note_on_c, 0, 84, 0
2, 275963, Note_on_c, 0, 55, 0
2, 275966, Note_on_c, 0, 64, 0
2, 275976, Note_on_c, 0, 60, 0
2, 276493, Note_on_c, 0, 54, 85
2, 276498, Note_on_c, 0, 83, 80
2, 276500, Note_on_c, 0, 80, 80
2, 276501, Note_on_c, 0, 88, 83
2, 276502, Note_on_c, 0, 60, 81
2, 276503, Note_on_c, 0, 76, 89
2, 276506, Note_on_c, 0, 64, 89
2, 276509, Control_c, 0, 64, 0
2, 276536, Note_on_c, 0, 86, 48
2, 276602, Note_on_c, 0, 86, 0
2, 276853, Control_c, 0, 64, 127
2, 277585, Note_on_c, 0, 76, 0
2, 277596, Note_on_c, 0, 60, 0
2, 277608, Note_on_c, 0, 80, 0
2, 277609, Note_on_c, 0, 64, 0
2, 277658, Note_on_c, 0, 54, 0
2, 277691, Note_on_c, 0, 83, 0
2, 277749, Note_on_c, 0, 88, 0
2, 278414, Control_c, 0, 64, 0
2, 278422, Note_on_c, 0, 54, 82
2, 278424, Note_on_c, 0, 60, 80
2, 278427, Note_on_c, 0, 100, 94
2, 278429, Note_on_c, 0, 96, 92
2, 278430, Note_on_c, 0, 88, 95
2, 278433, Note_on_c, 0, 65, 92
2, 278435, Note_on_c, 0, 58, 72
2, 278487, Note_on_c, 0, 98, 26
2, 278545, Note_on_c, 0, 98, 0
2, 278709, Control_c, 0, 64, 127
2, 279014, Note_on_c, 0, 100, 0
2, 279031, Note_on_c, 0, 96, 0
2, 279077, Note_on_c, 0, 60, 0
2, 279082, Note_on_c, 0, 88, 0
2, 279097, Note_on_c, 0, 58, 0
2, 279127, Note_on_c, 0, 54, 0
2, 279129, Note_on_c, 0, 65, 0
2, 280408, Control_c, 0, 64, 0
2, 280983, Note_on_c, 0, 67, 84
2, 280984, Note_on_c, 0, 56, 77
2, 280985, Note_on_c, 0, 62, 77
2, 281001, Note_on_c, 0, 100, 80
2, 281003, Note_on_c, 0, 96, 81
2, 281013, Note_on_c, 0, 88, 77
2, 281063, Note_on_c, 0, 88, 0
2, 281074, Note_on_c, 0, 67, 0
2, 281098, Note_on_c, 0, 96, 0
2, 281114, Note_on_c, 0, 62, 0
2, 281126, Note_on_c, 0, 100, 0
2, 281132, Note_on_c, 0, 56, 0
2, 281561, Note_on_c, 0, 96, 62
2, 281564, Note_on_c, 0, 56, 68
2, 281567, Note_on_c, 0, 93, 68
2, 281570, Note_on_c, 0, 67, 70
2, 281573, Note_on_c, 0, 62, 67
2, 281583, Note_on_c, 0, 84, 57
2, 281596, Control_c, 0, 64, 127
2, 281598, Note_on_c, 0, 92, 35
2, 281648, Note_on_c, 0, 92, 0
2, 281680, Note_on_c, 0, 93, 0
2, 281688, Note_on_c, 0, 96, 0
2, 281720, Note_on_c, 0, 84, 0
2, 281758, Note_on_c, 0, 67, 0
2, 281767, Note_on_c, 0, 62, 0
2, 281871, Note_on_c, 0, 56, 0
2, 282231, Control_c, 0, 64, 0
2, 282257, Note_on_c, 0, 91, 64
2, 282269, Note_on_c, 0, 79, 60
2, 282272, Note_on_c, 0, 61, 62
2, 282277, Note_on_c, 0, 65, 68
2, 282283, Note_on_c, 0, 55, 64
2, 282638, Control_c, 0, 64, 127
2, 283337, Note_on_c, 0, 91, 0
2, 283359, Note_on_c, 0, 79, 0
2, 283471, Note_on_c, 0, 65, 0
2, 283500, Note_on_c, 0, 55, 0
2, 283542, Note_on_c, 0, 61, 0
2, 283908, Note_on_c, 0, 89, 78
2, 283929, Note_on_c, 0, 77, 58
2, 284055, Note_on_c, 0, 77, 0
2, 284127, Note_on_c, 0, 89, 0
2, 284142, Note_on_c, 0, 88, 62
2, 284283, Note_on_c, 0, 88, 0
2, 284309, Control_c, 0, 64, 0
2, 284353, Note_on_c, 0, 57, 56
2, 284365, Note_on_c, 0, 55, 45
2, 284377, Note_on_c, 0, 60, 41
2, 284387, Note_on_c, 0, 89, 65
2, 284412, Note_on_c, 0, 77, 37
2, 284817, Control_c, 0, 64, 127
2, 285027, Note_on_c, 0, 77, 0
2, 285168, Note_on_c, 0, 60, 0
2, 285174, Note_on_c, 0, 89, 0
2, 285213, Note_on_c, 0, 57, 0
2, 285233, Note_on_c, 0, 55, 0
2, 285805, Note_on_c, 0, 64, 70
2, 285807, Note_on_c, 0, 101, 75
2, 285810, Note_on_c, 0, 53, 64
2, 285813, Control_c, 0, 64, 0
2, 285815, Note_on_c, 0, 59, 71
2, 285816, Note_on_c, 0, 89, 71
2, 286159, Control_c, 0, 64, 127
2, 286221, Note_on_c, 0, 101, 0
2, 286228, Note_on_c, 0, 89, 0
2, 286269, Note_on_c, 0, 64, 0
2, 286286, Note_on_c, 0, 59, 0
2, 286297, Note_on_c, 0, 53, 0
2, 286390, Note_on_c, 0, 100, 71
2, 286397, Note_on_c, 0, 53, 41
2, 286399, Note_on_c, 0, 64, 57
2, 286402, Note_on_c, 0, 88, 60
2, 286409, Note_on_c, 0, 59, 71
2, 286459, Note_on_c, 0, 99, 33
2, 286510, Note_on_c, 0, 99, 0
2, 286784, Note_on_c, 0, 100, 0
2, 286805, Note_on_c, 0, 88, 0
2, 286808, Note_on_c, 0, 53, 0
2, 286823, Note_on_c, 0, 64, 0
2, 286839, Note_on_c, 0, 59, 0
2, 287060, Note_on_c, 0, 98, 57
2, 287064, Note_on_c, 0, 53, 57
2, 287070, Note_on_c, 0, 64, 51
2, 287073, Note_on_c, 0, 59, 56
2, 287081, Note_on_c, 0, 86, 54
2, 287122, Note_on_c, 0, 97, 47
2, 287171, Note_on_c, 0, 97, 0
2, 287366, Note_on_c, 0, 98, 0
2, 287389, Note_on_c, 0, 59, 0
2, 287391, Note_on_c, 0, 64, 0
2, 287424, Note_on_c, 0, 86, 0
2, 287473, Note_on_c, 0, 53, 0
2, 287950, Control_c, 0, 64, 0
2, 288007, Note_on_c, 0, 59, 48
2, 288014, Note_on_c, 0, 55, 55
2, 288019, Note_on_c, 0, 62, 64
2, 288022, Note_on_c, 0, 52, 60
2, 288032, Note_on_c, 0, 96, 72
2, 288045, Note_on_c, 0, 84, 76
2, 288202, Note_on_c, 0, 96, 0
2, 288220, Control_c, 0, 64, 127
2, 288276, Note_on_c, 0, 84, 0
2, 288629, Note_on_c, 0, 76, 49
2, 288634, Note_on_c, 0, 74, 59
2, 288823, Note_on_c, 0, 76, 0
2, 288825, Note_on_c, 0, 74, 0
2, 289046, Note_on_c, 0, 74, 88
2, 289380, Note_on_c, 0, 74, 0
2, 289529, Note_on_c, 0, 76, 91
2, 289584, Note_on_c, 0, 62, 0
2, 289669, Note_on_c, 0, 55, 0
2, 289674, Note_on_c, 0, 59, 0
2, 289830, Note_on_c, 0, 76, 0
2, 290026, Note_on_c, 0, 76, 88
2, 290044, Note_on_c, 0, 62, 56
2, 290047, Note_on_c, 0, 59, 49
2, 290089, Note_on_c, 0, 55, 39
2, 290268, Note_on_c, 0, 62, 0
2, 290498, Note_on_c, 0, 55, 0
2, 290505, Note_on_c, 0, 67, 67
2, 290509, Note_on_c, 0, 59, 0
2, 290553, Note_on_c, 0, 76, 0
2, 290647, Note_on_c, 0, 52, 0
2, 290736, Note_on_c, 0, 67, 0
2, 290977, Note_on_c, 0, 67, 71
2, 291148, Note_on_c, 0, 67, 0
2, 291476, Note_on_c, 0, 64, 67
2, 291673, Note_on_c, 0, 64, 0
2, 292038, Note_on_c, 0, 64, 71
2, 292066, Note_on_c, 0, 50, 55
2, 292148, Control_c, 0, 64, 0
2, 292280, Note_on_c, 0, 64, 0
2, 292478, Control_c, 0, 64, 127
2, 292540, Note_on_c, 0, 57, 63
2, 292772, Note_on_c, 0, 57, 0
2, 292920, Note_on_c, 0, 50, 0
2, 293095, Note_on_c, 0, 57, 60
2, 293457, Note_on_c, 0, 57, 0
2, 293555, Note_on_c, 0, 60, 58
2, 293783, Note_on_c, 0, 60, 0
2, 294181, Note_on_c, 0, 53, 44
2, 294183, Note_on_c, 0, 43, 36
2, 294185, Note_on_c, 0, 60, 56
2, 294200, Note_on_c, 0, 31, 39
2, 294201, Note_on_c, 0, 57, 43
2, 294226, Control_c, 0, 64, 0
2, 294573, Control_c, 0, 64, 127
2, 294700, Note_on_c, 0, 31, 0
2, 294819, Note_on_c, 0, 43, 0
2, 295043, Note_on_c, 0, 53, 0
2, 295083, Note_on_c, 0, 57, 0
2, 295122, Note_on_c, 0, 60, 0
2, 295768, Note_on_c, 0, 64, 56
2, 295770, Note_on_c, 0, 56, 50
2, 295783, Note_on_c, 0, 59, 60
2, 295793, Note_on_c, 0, 43, 43
2, 295851, Note_on_c, 0, 53, 25
2, 295859, Control_c, 0, 64, 0
2, 296159, Control_c, 0, 64, 127
2, 296407, Note_on_c, 0, 43, 0
2, 296617, Note_on_c, 0, 53, 0
2, 296813, Note_on_c, 0, 56, 0
2, 296843, Note_on_c, 0, 59, 0
2, 296968, Note_on_c, 0, 64, 0
2, 298009, Note_on_c, 0, 67, 57
2, 298018, Note_on_c, 0, 43, 32
2, 298022, Note_on_c, 0, 36, 49
2, 298027, Note_on_c, 0, 62, 66
2, 298033, Note_on_c, 0, 59, 42
2, 298043, Note_on_c, 0, 52, 41
2, 298043, Note_on_c, 0, 57, 54
2, 298049, Control_c, 0, 64, 0
2, 298485, Control_c, 0, 64, 127
2, 298981, Note_on_c, 0, 67, 0
2, 299149, Note_on_c, 0, 59, 0
2, 299152, Note_on_c, 0, 67, 66
2, 299167, Note_on_c, 0, 57, 0
2, 299284, Note_on_c, 0, 62, 0
2, 299531, Note_on_c, 0, 67, 0
2, 299963, Note_on_c, 0, 36, 0
2, 300016, Note_on_c, 0, 67, 72
2, 300080, Note_on_c, 0, 43, 0
2, 300218, Note_on_c, 0, 52, 0
2, 300276, Note_on_c, 0, 67, 0
2, 302412, Note_on_c, 0, 72, 71
2, 302425, Note_on_c, 0, 69, 76
2, 302426, Note_on_c, 0, 61, 78
2, 302428, Note_on_c, 0, 64, 81
2, 302443, Note_on_c, 0, 60, 79
2, 302468, Control_c, 0, 64, 0
2, 302473, Note_on_c, 0, 71, 46
2, 302546, Note_on_c, 0, 71, 0
2, 302742, Control_c, 0, 64, 127
2, 303098, Note_on_c, 0, 60, 0
2, 303106, Note_on_c, 0, 64, 0
2, 303139, Note_on_c, 0, 61, 0
2, 303210, Note_on_c, 0, 72, 0
2, 303220, Note_on_c, 0, 69, 0
2, 303497, Note_on_c, 0, 72, 70
2, 303508, Note_on_c, 0, 61, 69
2, 303511, Note_on_c, 0, 64, 74
2, 303513, Note_on_c, 0, 69, 64
2, 303537, Note_on_c, 0, 60, 68
2, 303938, Note_on_c, 0, 64, 0
2, 304042, Note_on_c, 0, 61, 0
2, 304142, Note_on_c, 0, 69, 0
2, 304155, Note_on_c, 0, 60, 0
2, 304206, Note_on_c, 0, 72, 0
2, 305023, Note_on_c, 0, 74, 60
2, 305023, Note_on_c, 0, 71, 49
2, 305026, Note_on_c, 0, 65, 57
2, 305046, Note_on_c, 0, 68, 50
2, 305068, Note_on_c, 0, 63, 50
2, 305072, Note_on_c, 0, 59, 54
2, 305072, Note_on_c, 0, 53, 39
2, 305080, Control_c, 0, 64, 0
2, 305400, Control_c, 0, 64, 127
2, 305463, Note_on_c, 0, 59, 0
2, 305464, Note_on_c, 0, 63, 0
2, 305582, Note_on_c, 0, 53, 0
2, 305607, Note_on_c, 0, 71, 0
2, 305630, Note_on_c, 0, 68, 0
2, 305640, Note_on_c, 0, 74, 0
2, 305693, Note_on_c, 0, 65, 0
2, 306265, Note_on_c, 0, 59, 55
2, 306268, Note_on_c, 0, 68, 43
2, 306270, Note_on_c, 0, 63, 54
2, 306295, Note_on_c, 0, 53, 48
2, 306300, Note_on_c, 0, 43, 43
2, 306486, Note_on_c, 0, 53, 0
2, 306579, Note_on_c, 0, 43, 0
2, 307492, Note_on_c, 0, 31, 64
2, 307651, Note_on_c, 0, 59, 0
2, 307824, Note_on_c, 0, 63, 0
2, 307960, Note_on_c, 0, 68, 0
2, 309423, Note_on_c, 0, 24, 68
2, 309441, Note_on_c, 0, 100, 78
2, 309512, Note_on_c, 0, 31, 0
2, 309512, Control_c, 0, 64, 0
2, 309901, Control_c, 0, 64, 127
2, 310227, Note_on_c, 0, 100, 0
2, 310332, Note_on_c, 0, 24, 0
2, 313162, Control_c, 0, 64, 0
2, 313162, End_track
3, 0, Start_track
3, 0, MIDI_port, 0
3, 0, Title_t, "Bass"
3, 0, Program_c, 1, 32
3, 0, Control_c, 1, 7, 103
3, 49998, Note_on_c, 1, 36, 69
3, 52747, Note_on_c, 1, 48, 85
3, 52788, Note_on_c, 1, 36, 0
3, 53705, Note_on_c, 1, 43, 68
3, 53725, Note_on_c, 1, 48, 0
3, 55191, Note_on_c, 1, 31, 65
3, 55222, Note_on_c, 1, 43, 0
3, 57069, Note_on_c, 1, 31, 0
3, 57126, Note_on_c, 1, 31, 64
3, 57616, Note_on_c, 1, 36, 89
3, 57619, Note_on_c, 1, 31, 0
3, 61417, Note_on_c, 1, 43, 84
3, 61442, Note_on_c, 1, 36, 0
3, 62841, Note_on_c, 1, 36, 78
3, 62852, Note_on_c, 1, 43, 0
3, 65039, Note_on_c, 1, 52, 66
3, 65162, Note_on_c, 1, 52, 0
3, 65187, Note_on_c, 1, 55, 77
3, 65346, Note_on_c, 1, 55, 0
3, 65371, Note_on_c, 1, 53, 74
3, 65399, Note_on_c, 1, 36, 0
3, 65674, Note_on_c, 1, 48, 49
3, 65846, Note_on_c, 1, 48, 0
3, 65880, Note_on_c, 1, 41, 62
3, 65888, Note_on_c, 1, 53, 0
3, 66728, Note_on_c, 1, 29, 62
3, 66743, Note_on_c, 1, 41, 0
3, 68613, Note_on_c, 1, 29, 0
3, 68664, Note_on_c, 1, 29, 72
3, 69131, Note_on_c, 1, 29, 0
3, 69163, Note_on_c, 1, 28, 82
3, 70819, Note_on_c, 1, 34, 77
3, 70821, Note_on_c, 1, 28, 0
3, 71057, Note_on_c, 1, 34, 0
3, 71079, Note_on_c, 1, 33, 73
3, 71992, Note_on_c, 1, 45, 87
3, 72225, Note_on_c, 1, 33, 0
3, 72941, Note_on_c, 1, 38, 66
3, 72951, Note_on_c, 1, 45, 0
3, 74866, Note_on_c, 1, 33, 75
3, 74882, Note_on_c, 1, 38, 0
3, 76854, Note_on_c, 1, 38, 87
3, 76890, Note_on_c, 1, 33, 0
3, 78721, Note_on_c, 1, 42, 85
3, 78747, Note_on_c, 1, 38, 0
3, 80682, Note_on_c, 1, 43, 84
3, 80702, Note_on_c, 1, 42, 0
3, 82511, Note_on_c, 1, 31, 68
3, 83046, Note_on_c, 1, 43, 0
3, 84468, Note_on_c, 1, 41, 89
3, 84513, Note_on_c, 1, 31, 0
3, 88288, Note_on_c, 1, 40, 81
3, 88316, Note_on_c, 1, 41, 0
3, 91163, Note_on_c, 1, 32, 76
3, 91190, Note_on_c, 1, 40, 0
3, 92112, Note_on_c, 1, 32, 0
3, 92137, Note_on_c, 1, 33, 69
3, 93800, Note_on_c, 1, 40, 62
3, 93917, Note_on_c, 1, 40, 0
3, 93967, Note_on_c, 1, 50, 80
3, 94146, Note_on_c, 1, 50, 0
3, 94162, Note_on_c, 1, 48, 56
3, 94433, Note_on_c, 1, 33, 0
3, 94911, Note_on_c, 1, 40, 22
3, 94951, Note_on_c, 1, 40, 0
3, 95039, Note_on_c, 1, 48, 0
3, 95046, Note_on_c, 1, 45, 58
3, 95791, Note_on_c, 1, 40, 60
3, 95842, Note_on_c, 1, 45, 0
3, 95992, Note_on_c, 1, 40, 0
3, 96001, Note_on_c, 1, 33, 64
3, 99816, Note_on_c, 1, 38, 70
3, 99826, Note_on_c, 1, 33, 0
3, 103572, Note_on_c, 1, 38, 0
3, 103644, Note_on_c, 1, 38, 69
3, 104638, Note_on_c, 1, 40, 76
3, 104675, Note_on_c, 1, 38, 0
3, 105623, Note_on_c, 1, 40, 0
3, 105625, Note_on_c, 1, 41, 71
3, 106528, Note_on_c, 1, 30, 73
3, 106629, Note_on_c, 1, 41, 0
3, 107471, Note_on_c, 1, 30, 0
3, 107505, Note_on_c, 1, 31, 79
3, 108942, Note_on_c, 1, 43, 83
3, 109427, Note_on_c, 1, 31, 0
3, 112349, Note_on_c, 1, 31, 70
3, 112580, Note_on_c, 1, 43, 0
3, 113764, Note_on_c, 1, 43, 73
3, 113813, Note_on_c, 1, 31, 0
3, 114188, Note_on_c, 1, 43, 0
3, 114231, Note_on_c, 1, 43, 84
3, 115649, Note_on_c, 1, 43, 0
3, 115655, Note_on_c, 1, 31, 74
3, 117564, Note_on_c, 1, 43, 68
3, 117929, Note_on_c, 1, 31, 0
3, 117999, Note_on_c, 1, 43, 0
3, 118053, Note_on_c, 1, 43, 68
3, 119059, Note_on_c, 1, 36, 66
3, 119061, Note_on_c, 1, 43, 0
3, 120924, Note_on_c, 1, 31, 71
3, 120936, Note_on_c, 1, 36, 0
3, 122811, Note_on_c, 1, 31, 0
3, 122847, Note_on_c, 1, 31, 81
3, 124806, Note_on_c, 1, 36, 76
3, 124840, Note_on_c, 1, 31, 0
3, 126745, Note_on_c, 1, 29, 72
3, 126764, Note_on_c, 1, 36, 0
3, 129572, Note_on_c, 1, 41, 82
3, 129630, Note_on_c, 1, 29, 0
3, 130505, Note_on_c, 1, 33, 79
3, 130508, Note_on_c, 1, 41, 0
3, 133971, Note_on_c, 1, 37, 75
3, 134002, Note_on_c, 1, 33, 0
3, 134379, Note_on_c, 1, 37, 0
3, 134392, Note_on_c, 1, 38, 78
3, 136266, Note_on_c, 1, 33, 62
3, 136279, Note_on_c, 1, 38, 0
3, 138222, Note_on_c, 1, 33, 0
3, 138235, Note_on_c, 1, 38, 80
3, 140122, Note_on_c, 1, 39, 83
3, 140151, Note_on_c, 1, 38, 0
3, 141751, Note_on_c, 1, 42, 67
3, 141775, Note_on_c, 1, 39, 0
3, 141911, Note_on_c, 1, 42, 0
3, 141913, Note_on_c, 1, 39, 74
3, 142114, Note_on_c, 1, 39, 0
3, 142121, Note_on_c, 1, 43, 83
3, 143008, Note_on_c, 1, 48, 84
3, 143052, Note_on_c, 1, 43, 0
3, 143962, Note_on_c, 1, 36, 73
3, 143992, Note_on_c, 1, 48, 0
3, 145916, Note_on_c, 1, 40, 64
3, 145918, Note_on_c, 1, 36, 0
3, 147673, Note_on_c, 1, 35, 29
3, 147733, Note_on_c, 1, 35, 0
3, 147842, Note_on_c, 1, 28, 69
3, 147906, Note_on_c, 1, 40, 0
3, 149770, Note_on_c, 1, 33, 76
3, 149797, Note_on_c, 1, 28, 0
3, 151177, Note_on_c, 1, 32, 77
3, 151211, Note_on_c, 1, 33, 0
3, 151614, Note_on_c, 1, 32, 0
3, 151635, Note_on_c, 1, 31, 75
3, 153615, Note_on_c, 1, 38, 79
3, 153646, Note_on_c, 1, 31, 0
3, 155499, Note_on_c, 1, 32, 79
3, 155531, Note_on_c, 1, 38, 0
3, 157876, Note_on_c, 1, 40, 80
3, 157884, Note_on_c, 1, 32, 0
3, 158842, Note_on_c, 1, 34, 69
3, 158872, Note_on_c, 1, 40, 0
3, 159309, Note_on_c, 1, 34, 0
3, 159321, Note_on_c, 1, 33, 70
3, 161778, Note_on_c, 1, 38, 81
3, 161795, Note_on_c, 1, 33, 0
3, 163140, Note_on_c, 1, 43, 74
3, 163176, Note_on_c, 1, 38, 0
3, 164081, Note_on_c, 1, 31, 68
3, 164161, Note_on_c, 1, 43, 0
3, 165081, Note_on_c, 1, 43, 76
3, 165095, Note_on_c, 1, 31, 0
3, 168460, Note_on_c, 1, 33, 66
3, 168494, Note_on_c, 1, 43, 0
3, 168977, Note_on_c, 1, 38, 69
3, 168987, Note_on_c, 1, 33, 0
3, 170387, Note_on_c, 1, 43, 74
3, 170417, Note_on_c, 1, 38, 0
3, 170821, Note_on_c, 1, 43, 0
3, 170879, Note_on_c, 1, 43, 69
3, 171833, Note_on_c, 1, 31, 61
3, 171847, Note_on_c, 1, 43, 0
3, 172632, Note_on_c, 1, 31, 0
3, 172842, Note_on_c, 1, 43, 62
3, 174362, Note_on_c, 1, 38, 46
3, 174503, Note_on_c, 1, 38, 0
3, 174693, Note_on_c, 1, 31, 59
3, 176307, Note_on_c, 1, 43, 0
3, 176493, Note_on_c, 1, 31, 0
3, 176630, Note_on_c, 1, 43, 58
3, 177221, Note_on_c, 1, 43, 0
3, 177229, Note_on_c, 1, 42, 40
3, 177455, Note_on_c, 1, 42, 0
3, 177538, Note_on_c, 1, 43, 68
3, 178088, Note_on_c, 1, 43, 0
3, 178167, Note_on_c, 1, 43, 55
3, 178471, Note_on_c, 1, 31, 51
3, 180079, Note_on_c, 1, 43, 0
3, 180173, Note_on_c, 1, 42, 64
3, 180327, Note_on_c, 1, 42, 0
3, 180492, Note_on_c, 1, 43, 80
3, 180883, Note_on_c, 1, 31, 0
3, 182114, Note_on_c, 1, 42, 60
3, 182127, Note_on_c, 1, 43, 0
3, 182313, Note_on_c, 1, 42, 0
3, 182438, Note_on_c, 1, 43, 71
3, 183071, Note_on_c, 1, 33, 62
3, 183214, Note_on_c, 1, 33, 0
3, 183275, Note_on_c, 1, 43, 0
3, 183366, Note_on_c, 1, 32, 67
3, 184217, Note_on_c, 1, 32, 0
3, 184281, Note_on_c, 1, 31, 55
3, 185186, Note_on_c, 1, 31, 0
3, 185233, Note_on_c, 1, 35, 72
3, 186075, Note_on_c, 1, 34, 20
3, 186159, Note_on_c, 1, 34, 0
3, 186178, Note_on_c, 1, 35, 0
3, 186197, Note_on_c, 1, 36, 65
3, 187171, Note_on_c, 1, 42, 95
3, 187186, Note_on_c, 1, 36, 0
3, 187813, Note_on_c, 1, 36, 38
3, 187881, Note_on_c, 1, 36, 0
3, 188017, Note_on_c, 1, 42, 0
3, 188092, Note_on_c, 1, 41, 56
3, 188364, Note_on_c, 1, 41, 0
3, 188412, Note_on_c, 1, 36, 52
3, 188556, Note_on_c, 1, 36, 0
3, 188716, Note_on_c, 1, 30, 55
3, 189072, Note_on_c, 1, 29, 58
3, 189086, Note_on_c, 1, 30, 0
3, 190082, Note_on_c, 1, 36, 91
3, 190086, Note_on_c, 1, 29, 0
3, 190987, Note_on_c, 1, 36, 0
3, 191042, Note_on_c, 1, 39, 72
3, 191940, Note_on_c, 1, 39, 0
3, 191969, Note_on_c, 1, 40, 76
3, 192946, Note_on_c, 1, 34, 79
3, 192998, Note_on_c, 1, 40, 0
3, 193835, Note_on_c, 1, 34, 0
3, 193906, Note_on_c, 1, 33, 74
3, 194655, Note_on_c, 1, 34, 33
3, 194847, Note_on_c, 1, 49, 80
3, 194878, Note_on_c, 1, 34, 0
3, 195192, Note_on_c, 1, 33, 0
3, 195792, Note_on_c, 1, 49, 0
3, 195831, Note_on_c, 1, 50, 77
3, 196784, Note_on_c, 1, 33, 88
3, 196865, Note_on_c, 1, 50, 0
3, 197724, Note_on_c, 1, 45, 99
3, 197823, Note_on_c, 1, 33, 0
3, 198666, Note_on_c, 1, 45, 0
3, 198685, Note_on_c, 1, 37, 59
3, 199631, Note_on_c, 1, 37, 0
3, 199670, Note_on_c, 1, 38, 66
3, 200552, Note_on_c, 1, 38, 0
3, 200652, Note_on_c, 1, 38, 71
3, 201553, Note_on_c, 1, 38, 0
3, 201592, Note_on_c, 1, 39, 64
3, 202445, Note_on_c, 1, 39, 0
3, 202546, Note_on_c, 1, 39, 62
3, 203466, Note_on_c, 1, 39, 0
3, 203486, Note_on_c, 1, 40, 59
3, 204219, Note_on_c, 1, 39, 33
3, 204438, Note_on_c, 1, 39, 0
3, 204445, Note_on_c, 1, 48, 95
3, 204448, Note_on_c, 1, 40, 0
3, 205429, Note_on_c, 1, 43, 55
3, 205430, Note_on_c, 1, 48, 0
3, 206337, Note_on_c, 1, 43, 0
3, 206406, Note_on_c, 1, 30, 62
3, 207280, Note_on_c, 1, 30, 0
3, 207352, Note_on_c, 1, 29, 62
3, 208285, Note_on_c, 1, 41, 84
3, 208391, Note_on_c, 1, 29, 0
3, 209230, Note_on_c, 1, 53, 96
3, 210148, Note_on_c, 1, 53, 0
3, 210180, Note_on_c, 1, 51, 75
3, 210349, Note_on_c, 1, 41, 0
3, 211096, Note_on_c, 1, 51, 0
3, 211184, Note_on_c, 1, 52, 77
3, 212178, Note_on_c, 1, 39, 74
3, 212220, Note_on_c, 1, 52, 0
3, 213129, Note_on_c, 1, 39, 0
3, 213140, Note_on_c, 1, 40, 70
3, 214082, Note_on_c, 1, 32, 76
3, 214127, Note_on_c, 1, 40, 0
3, 215000, Note_on_c, 1, 32, 0
3, 215064, Note_on_c, 1, 33, 76
3, 216679, Note_on_c, 1, 40, 69
3, 217033, Note_on_c, 1, 48, 110
3, 217076, Note_on_c, 1, 40, 0
3, 217153, Note_on_c, 1, 33, 0
3, 217738, Note_on_c, 1, 40, 27
3, 217854, Note_on_c, 1, 40, 0
3, 217948, Note_on_c, 1, 48, 0
3, 217965, Note_on_c, 1, 47, 66
3, 218639, Note_on_c, 1, 40, 24
3, 218723, Note_on_c, 1, 40, 0
3, 218804, Note_on_c, 1, 47, 0
3, 218901, Note_on_c, 1, 50, 70
3, 219787, Note_on_c, 1, 50, 0
3, 219831, Note_on_c, 1, 48, 72
3, 220796, Note_on_c, 1, 48, 0
3, 220803, Note_on_c, 1, 45, 58
3, 221472, Note_on_c, 1, 40, 64
3, 221651, Note_on_c, 1, 45, 0
3, 221701, Note_on_c, 1, 40, 0
3, 221774, Note_on_c, 1, 39, 67
3, 222704, Note_on_c, 1, 39, 0
3, 222710, Note_on_c, 1, 38, 64
3, 223660, Note_on_c, 1, 54, 79
3, 224650, Note_on_c, 1, 48, 58
3, 224765, Note_on_c, 1, 38, 0
3, 225594, Note_on_c, 1, 44, 70
3, 225615, Note_on_c, 1, 48, 0
3, 226508, Note_on_c, 1, 44, 0
3, 226540, Note_on_c, 1, 45, 72
3, 226710, Note_on_c, 1, 54, 0
3, 227504, Note_on_c, 1, 38, 68
3, 227531, Note_on_c, 1, 45, 0
3, 228485, Note_on_c, 1, 38, 0
3, 228491, Note_on_c, 1, 40, 73
3, 229468, Note_on_c, 1, 40, 0
3, 229476, Note_on_c, 1, 41, 70
3, 230414, Note_on_c, 1, 41, 0
3, 230446, Note_on_c, 1, 43, 79
3, 231361, Note_on_c, 1, 31, 83
3, 232040, Note_on_c, 1, 38, 37
3, 232248, Note_on_c, 1, 38, 0
3, 232319, Note_on_c, 1, 57, 73
3, 233013, Note_on_c, 1, 38, 24
3, 233129, Note_on_c, 1, 38, 0
3, 233250, Note_on_c, 1, 31, 0
3, 233281, Note_on_c, 1, 57, 0
3, 233288, Note_on_c, 1, 56, 71
3, 233457, Note_on_c, 1, 43, 0
3, 234175, Note_on_c, 1, 56, 0
3, 234249, Note_on_c, 1, 55, 76
3, 235200, Note_on_c, 1, 43, 76
3, 236023, Note_on_c, 1, 55, 0
3, 236167, Note_on_c, 1, 45, 69
3, 236173, Note_on_c, 1, 43, 0
3, 237100, Note_on_c, 1, 37, 69
3, 237162, Note_on_c, 1, 45, 0
3, 238053, Note_on_c, 1, 37, 0
3, 238077, Note_on_c, 1, 38, 73
3, 239044, Note_on_c, 1, 44, 77
3, 239346, Note_on_c, 1, 38, 0
3, 239990, Note_on_c, 1, 43, 68
3, 240014, Note_on_c, 1, 44, 0
3, 240916, Note_on_c, 1, 31, 74
3, 240975, Note_on_c, 1, 43, 0
3, 241880, Note_on_c, 1, 31, 0
3, 241911, Note_on_c, 1, 36, 71
3, 242770, Note_on_c, 1, 36, 0
3, 242886, Note_on_c, 1, 36, 71
3, 243829, Note_on_c, 1, 36, 0
3, 243837, Note_on_c, 1, 31, 66
3, 244771, Note_on_c, 1, 45, 99
3, 244883, Note_on_c, 1, 31, 0
3, 245720, Note_on_c, 1, 45, 0
3, 245769, Note_on_c, 1, 43, 75
3, 247134, Note_on_c, 1, 34, 74
3, 247317, Note_on_c, 1, 34, 0
3, 247340, Note_on_c, 1, 43, 0
3, 247412, Note_on_c, 1, 35, 74
3, 247729, Note_on_c, 1, 35, 0
3, 247747, Note_on_c, 1, 36, 69
3, 247985, Note_on_c, 1, 50, 62
3, 248556, Note_on_c, 1, 36, 0
3, 248666, Note_on_c, 1, 48, 72
3, 248708, Note_on_c, 1, 50, 0
3, 249273, Note_on_c, 1, 40, 58
3, 249318, Note_on_c, 1, 48, 0
3, 249577, Note_on_c, 1, 40, 0
3, 249601, Note_on_c, 1, 41, 69
3, 250562, Note_on_c, 1, 41, 0
3, 250572, Note_on_c, 1, 35, 71
3, 251539, Note_on_c, 1, 35, 0
3, 251542, Note_on_c, 1, 36, 68
3, 252507, Note_on_c, 1, 36, 0
3, 252508, Note_on_c, 1, 34, 71
3, 253373, Note_on_c, 1, 34, 0
3, 253438, Note_on_c, 1, 33, 68
3, 254395, Note_on_c, 1, 40, 71
3, 254412, Note_on_c, 1, 33, 0
3, 255331, Note_on_c, 1, 52, 96
3, 256237, Note_on_c, 1, 40, 0
3, 256296, Note_on_c, 1, 49, 77
3, 256330, Note_on_c, 1, 52, 0
3, 257218, Note_on_c, 1, 49, 0
3, 257302, Note_on_c, 1, 50, 71
3, 258284, Note_on_c, 1, 43, 80
3, 259239, Note_on_c, 1, 43, 0
3, 259259, Note_on_c, 1, 45, 74
3, 260186, Note_on_c, 1, 45, 0
3, 260205, Note_on_c, 1, 37, 82
3, 261094, Note_on_c, 1, 50, 0
3, 261154, Note_on_c, 1, 38, 77
3, 261156, Note_on_c, 1, 37, 0
3, 262116, Note_on_c, 1, 45, 90
3, 262814, Note_on_c, 1, 38, 0
3, 263094, Note_on_c, 1, 39, 76
3, 263141, Note_on_c, 1, 45, 0
3, 264080, Note_on_c, 1, 45, 73
3, 264220, Note_on_c, 1, 39, 0
3, 264676, Note_on_c, 1, 39, 37
3, 264831, Note_on_c, 1, 39, 0
3, 265007, Note_on_c, 1, 45, 0
3, 265019, Note_on_c, 1, 48, 80
3, 266895, Note_on_c, 1, 43, 69
3, 266960, Note_on_c, 1, 48, 0
3, 268832, Note_on_c, 1, 40, 85
3, 268923, Note_on_c, 1, 43, 0
3, 270720, Note_on_c, 1, 32, 83
3, 270769, Note_on_c, 1, 40, 0
3, 272571, Note_on_c, 1, 32, 0
3, 272635, Note_on_c, 1, 33, 75
3, 273240, Note_on_c, 1, 45, 90
3, 273617, Note_on_c, 1, 45, 0
3, 273635, Note_on_c, 1, 44, 82
3, 273653, Note_on_c, 1, 33, 0
3, 274507, Note_on_c, 1, 44, 0
3, 274577, Note_on_c, 1, 43, 71
3, 275516, Note_on_c, 1, 43, 0
3, 275527, Note_on_c, 1, 40, 68
3, 276158, Note_on_c, 1, 37, 49
3, 276342, Note_on_c, 1, 40, 0
3, 276457, Note_on_c, 1, 37, 0
3, 276488, Note_on_c, 1, 38, 78
3, 278429, Note_on_c, 1, 32, 88
3, 278467, Note_on_c, 1, 38, 0
3, 280273, Note_on_c, 1, 32, 0
3, 280309, Note_on_c, 1, 31, 71
3, 281321, Note_on_c, 1, 43, 91
3, 282960, Note_on_c, 1, 31, 0
3, 283255, Note_on_c, 1, 31, 79
3, 283833, Note_on_c, 1, 31, 0
3, 284187, Note_on_c, 1, 31, 80
3, 284442, Note_on_c, 1, 43, 0
3, 285133, Note_on_c, 1, 43, 58
3, 286088, Note_on_c, 1, 31, 0
3, 287031, Note_on_c, 1, 43, 0
3, 287033, Note_on_c, 1, 31, 55
3, 287780, Note_on_c, 1, 31, 0
3, 288002, Note_on_c, 1, 31, 63
3, 290098, Note_on_c, 1, 31, 0
3, 290098, End_track
4, 0, Start_track
4, 0, MIDI_port, 0
4, 0, Title_t, "Drums"
4, 0, Program_c, 9, 40
4, 49957, Note_on_c, 9, 59, 52
4, 50143, Note_on_c, 9, 59, 0
4, 50908, Note_on_c, 9, 44, 38
4, 50920, Note_on_c, 9, 59, 63
4, 51026, Note_on_c, 9, 44, 0
4, 51290, Note_on_c, 9, 59, 0
4, 51872, Note_on_c, 9, 59, 56
4, 52610, Note_on_c, 9, 59, 0
4, 52803, Note_on_c, 9, 44, 64
4, 52819, Note_on_c, 9, 59, 74
4, 52940, Note_on_c, 9, 59, 0
4, 52953, Note_on_c, 9, 44, 0
4, 53522, Note_on_c, 9, 59, 59
4, 53574, Note_on_c, 9, 59, 0
4, 53639, Note_on_c, 9, 59, 68
4, 53722, Note_on_c, 9, 59, 0
4, 53807, Note_on_c, 9, 59, 80
4, 53954, Note_on_c, 9, 59, 0
4, 54193, Note_on_c, 9, 59, 63
4, 54306, Note_on_c, 9, 59, 0
4, 54723, Note_on_c, 9, 59, 51
4, 54726, Note_on_c, 9, 44, 70
4, 54888, Note_on_c, 9, 59, 0
4, 55206, Note_on_c, 9, 44, 0
4, 56654, Note_on_c, 9, 44, 60
4, 56920, Note_on_c, 9, 59, 57
4, 56973, Note_on_c, 9, 59, 0
4, 57315, Note_on_c, 9, 59, 74
4, 57394, Note_on_c, 9, 59, 0
4, 57518, Note_on_c, 9, 59, 76
4, 57614, Note_on_c, 9, 44, 0
4, 57684, Note_on_c, 9, 59, 0
4, 58039, Note_on_c, 9, 59, 60
4, 58159, Note_on_c, 9, 59, 0
4, 58523, Note_on_c, 9, 59, 53
4, 58648, Note_on_c, 9, 59, 0
4, 58949, Note_on_c, 9, 59, 37
4, 59048, Note_on_c, 9, 59, 0
4, 59395, Note_on_c, 9, 59, 43
4, 59533, Note_on_c, 9, 59, 0
4, 60388, Note_on_c, 9, 59, 47
4, 60440, Note_on_c, 9, 59, 0
4, 60585, Note_on_c, 9, 59, 29
4, 60642, Note_on_c, 9, 59, 0
4, 60757, Note_on_c, 9, 59, 44
4, 60847, Note_on_c, 9, 59, 0
4, 62041, Note_on_c, 9, 59, 50
4, 62083, Note_on_c, 9, 59, 0
4, 62178, Note_on_c, 9, 59, 68
4, 62263, Note_on_c, 9, 59, 0
4, 62321, Note_on_c, 9, 59, 66
4, 62358, Note_on_c, 9, 44, 53
4, 62450, Note_on_c, 9, 59, 0
4, 62467, Note_on_c, 9, 44, 0
4, 62629, Note_on_c, 9, 59, 44
4, 62725, Note_on_c, 9, 59, 0
4, 62861, Note_on_c, 9, 59, 47
4, 62954, Note_on_c, 9, 59, 0
4, 63117, Note_on_c, 9, 59, 49
4, 63184, Note_on_c, 9, 59, 0
4, 63246, Note_on_c, 9, 59, 57
4, 63314, Note_on_c, 9, 59, 0
4, 63379, Note_on_c, 9, 59, 64
4, 63553, Note_on_c, 9, 59, 0
4, 64072, Note_on_c, 9, 59, 53
4, 64166, Note_on_c, 9, 59, 0
4, 64293, Note_on_c, 9, 59, 52
4, 64581, Note_on_c, 9, 53, 54
4, 64612, Note_on_c, 9, 53, 0
4, 64812, Note_on_c, 9, 53, 44
4, 64914, Note_on_c, 9, 53, 0
4, 64937, Note_on_c, 9, 59, 0
4, 65070, Note_on_c, 9, 59, 62
4, 65156, Note_on_c, 9, 59, 0
4, 65295, Note_on_c, 9, 59, 60
4, 65433, Note_on_c, 9, 59, 0
4, 66251, Note_on_c, 9, 44, 50
4, 66381, Note_on_c, 9, 44, 0
4, 67212, Note_on_c, 9, 59, 40
4, 67296, Note_on_c, 9, 59, 0
4, 67925, Note_on_c, 9, 59, 34
4, 68002, Note_on_c, 9, 59, 0
4, 68155, Note_on_c, 9, 59, 28
4, 68181, Note_on_c, 9, 44, 44
4, 68254, Note_on_c, 9, 59, 0
4, 68276, Note_on_c, 9, 44, 0
4, 69125, Note_on_c, 9, 59, 52
4, 69218, Note_on_c, 9, 59, 0
4, 70094, Note_on_c, 9, 59, 42
4, 70096, Note_on_c, 9, 44, 60
4, 70505, Note_on_c, 9, 59, 0
4, 70538, Note_on_c, 9, 53, 46
4, 70718, Note_on_c, 9, 53, 0
4, 71056, Note_on_c, 9, 44, 0
4, 71857, Note_on_c, 9, 59, 44
4, 71977, Note_on_c, 9, 59, 0
4, 72069, Note_on_c, 9, 59, 43
4, 72447, Note_on_c, 9, 59, 0
4, 72546, Note_on_c, 9, 44, 37
4, 72620, Note_on_c, 9, 44, 0
4, 72803, Note_on_c, 9, 59, 32
4, 72854, Note_on_c, 9, 59, 0
4, 72998, Note_on_c, 9, 59, 64
4, 73197, Note_on_c, 9, 59, 0
4, 73421, Note_on_c, 9, 44, 34
4, 73444, Note_on_c, 9, 59, 47
4, 73518, Note_on_c, 9, 44, 0
4, 73592, Note_on_c, 9, 59, 0
4, 73895, Note_on_c, 9, 59, 49
4, 74045, Note_on_c, 9, 59, 0
4, 75558, Note_on_c, 9, 59, 32
4, 75598, Note_on_c, 9, 59, 0
4, 75687, Note_on_c, 9, 59, 68
4, 75768, Note_on_c, 9, 59, 0
4, 75817, Note_on_c, 9, 59, 74
4, 75846, Note_on_c, 9, 44, 60
4, 75991, Note_on_c, 9, 59, 0
4, 76446, Note_on_c, 9, 59, 58
4, 76504, Note_on_c, 9, 59, 0
4, 76562, Note_on_c, 9, 59, 58
4, 76658, Note_on_c, 9, 59, 0
4, 76726, Note_on_c, 9, 59, 53
4, 76806, Note_on_c, 9, 44, 0
4, 76854, Note_on_c, 9, 59, 0
4, 77196, Note_on_c, 9, 44, 43
4, 77267, Note_on_c, 9, 44, 0
4, 78330, Note_on_c, 9, 59, 51
4, 78390, Note_on_c, 9, 59, 0
4, 78517, Note_on_c, 9, 59, 53
4, 78693, Note_on_c, 9, 59, 0
4, 79722, Note_on_c, 9, 46, 34
4, 79872, Note_on_c, 9, 46, 0
4, 80442, Note_on_c, 9, 53, 57
4, 80471, Note_on_c, 9, 53, 0
4, 80672, Note_on_c, 9, 59, 53
4, 80848, Note_on_c, 9, 59, 0
4, 81228, Note_on_c, 9, 59, 38
4, 81351, Note_on_c, 9, 59, 0
4, 81622, Note_on_c, 9, 59, 43
4, 81629, Note_on_c, 9, 44, 39
4, 81719, Note_on_c, 9, 44, 0
4, 81899, Note_on_c, 9, 59, 0
4, 82542, Note_on_c, 9, 59, 48
4, 82647, Note_on_c, 9, 59, 0
4, 82715, Note_on_c, 9, 59, 64
4, 82876, Note_on_c, 9, 59, 0
4, 82963, Note_on_c, 9, 59, 44
4, 83056, Note_on_c, 9, 59, 0
4, 83542, Note_on_c, 9, 44, 43
4, 83568, Note_on_c, 9, 59, 33
4, 83654, Note_on_c, 9, 44, 0
4, 83967, Note_on_c, 9, 59, 0
4, 84241, Note_on_c, 9, 59, 34
4, 84281, Note_on_c, 9, 59, 0
4, 84358, Note_on_c, 9, 59, 57
4, 84443, Note_on_c, 9, 59, 0
4, 84516, Note_on_c, 9, 59, 76
4, 84764, Note_on_c, 9, 59, 0
4, 84988, Note_on_c, 9, 59, 46
4, 85188, Note_on_c, 9, 59, 0
4, 85464, Note_on_c, 9, 44, 44
4, 85465, Note_on_c, 9, 59, 38
4, 85531, Note_on_c, 9, 44, 0
4, 85890, Note_on_c, 9, 59, 0
4, 86945, Note_on_c, 9, 59, 43
4, 87037, Note_on_c, 9, 59, 0
4, 87393, Note_on_c, 9, 59, 32
4, 87543, Note_on_c, 9, 59, 0
4, 88117, Note_on_c, 9, 59, 80
4, 88253, Note_on_c, 9, 59, 0
4, 88341, Note_on_c, 9, 59, 83
4, 88546, Note_on_c, 9, 59, 0
4, 89284, Note_on_c, 9, 44, 52
4, 89353, Note_on_c, 9, 44, 0
4, 89940, Note_on_c, 9, 59, 62
4, 90002, Note_on_c, 9, 59, 0
4, 90073, Note_on_c, 9, 59, 63
4, 90190, Note_on_c, 9, 59, 0
4, 90258, Note_on_c, 9, 59, 68
4, 90447, Note_on_c, 9, 59, 0
4, 91816, Note_on_c, 9, 59, 54
4, 91881, Note_on_c, 9, 59, 0
4, 91957, Note_on_c, 9, 59, 58
4, 92041, Note_on_c, 9, 59, 0
4, 92131, Note_on_c, 9, 59, 74
4, 92296, Note_on_c, 9, 59, 0
4, 92639, Note_on_c, 9, 44, 27
4, 92752, Note_on_c, 9, 44, 0
4, 92913, Note_on_c, 9, 59, 47
4, 92989, Note_on_c, 9, 59, 0
4, 93121, Note_on_c, 9, 59, 44
4, 93272, Note_on_c, 9, 59, 0
4, 95059, Note_on_c, 9, 44, 60
4, 95763, Note_on_c, 9, 59, 45
4, 95824, Note_on_c, 9, 59, 0
4, 95893, Note_on_c, 9, 59, 60
4, 96019, Note_on_c, 9, 59, 0
4, 96019, Note_on_c, 9, 44, 0
4, 96069, Note_on_c, 9, 59, 66
4, 96190, Note_on_c, 9, 59, 0
4, 96484, Note_on_c, 9, 44, 37
4, 96501, Note_on_c, 9, 59, 44
4, 96631, Note_on_c, 9, 44, 0
4, 96666, Note_on_c, 9, 59, 0
4, 96924, Note_on_c, 9, 44, 31
4, 96975, Note_on_c, 9, 59, 50
4, 97084, Note_on_c, 9, 44, 0
4, 97210, Note_on_c, 9, 59, 0
4, 97398, Note_on_c, 9, 59, 53
4, 97405, Note_on_c, 9, 46, 38
4, 97694, Note_on_c, 9, 59, 0
4, 97906, Note_on_c, 9, 46, 0
4, 99671, Note_on_c, 9, 59, 34
4, 99745, Note_on_c, 9, 59, 0
4, 99894, Note_on_c, 9, 59, 31
4, 100026, Note_on_c, 9, 59, 0
4, 100322, Note_on_c, 9, 59, 38
4, 100485, Note_on_c, 9, 59, 0
4, 100819, Note_on_c, 9, 44, 44
4, 100944, Note_on_c, 9, 44, 0
4, 101554, Note_on_c, 9, 59, 40
4, 101635, Note_on_c, 9, 59, 0
4, 101761, Note_on_c, 9, 59, 48
4, 101968, Note_on_c, 9, 59, 0
4, 102214, Note_on_c, 9, 59, 54
4, 102509, Note_on_c, 9, 59, 0
4, 103682, Note_on_c, 9, 59, 48
4, 103779, Note_on_c, 9, 59, 0
4, 104149, Note_on_c, 9, 59, 49
4, 104394, Note_on_c, 9, 59, 0
4, 104641, Note_on_c, 9, 44, 34
4, 104659, Note_on_c, 9, 59, 37
4, 104769, Note_on_c, 9, 44, 0
4, 104924, Note_on_c, 9, 59, 0
4, 105364, Note_on_c, 9, 59, 42
4, 105424, Note_on_c, 9, 59, 0
4, 105491, Note_on_c, 9, 59, 62
4, 105620, Note_on_c, 9, 59, 0
4, 105701, Note_on_c, 9, 59, 68
4, 105886, Note_on_c, 9, 59, 0
4, 106617, Note_on_c, 9, 59, 47
4, 106753, Note_on_c, 9, 59, 0
4, 107545, Note_on_c, 9, 59, 58
4, 107673, Note_on_c, 9, 59, 0
4, 108319, Note_on_c, 9, 59, 39
4, 108410, Note_on_c, 9, 59, 0
4, 108496, Note_on_c, 9, 53, 41
4, 108639, Note_on_c, 9, 53, 0
4, 109226, Note_on_c, 9, 59, 47
4, 109300, Note_on_c, 9, 59, 0
4, 109442, Note_on_c, 9, 53, 64
4, 109536, Note_on_c, 9, 53, 0
4, 110412, Note_on_c, 9, 46, 50
4, 111080, Note_on_c, 9, 46, 0
4, 111360, Note_on_c, 9, 59, 44
4, 111434, Note_on_c, 9, 59, 0
4, 112340, Note_on_c, 9, 44, 33
4, 112445, Note_on_c, 9, 44, 0
4, 113032, Note_on_c, 9, 59, 50
4, 113181, Note_on_c, 9, 59, 0
4, 113276, Note_on_c, 9, 59, 36
4, 113462, Note_on_c, 9, 59, 0
4, 114272, Note_on_c, 9, 44, 48
4, 114275, Note_on_c, 9, 59, 50
4, 114397, Note_on_c, 9, 59, 0
4, 114970, Note_on_c, 9, 59, 58
4, 115094, Note_on_c, 9, 59, 0
4, 115189, Note_on_c, 9, 44, 0
4, 115195, Note_on_c, 9, 59, 42
4, 115382, Note_on_c, 9, 59, 0
4, 115503, Note_on_c, 9, 59, 44
4, 115619, Note_on_c, 9, 59, 0
4, 115745, Note_on_c, 9, 59, 41
4, 115938, Note_on_c, 9, 59, 0
4, 116153, Note_on_c, 9, 59, 41
4, 116192, Note_on_c, 9, 44, 33
4, 116379, Note_on_c, 9, 44, 0
4, 116409, Note_on_c, 9, 59, 0
4, 116581, Note_on_c, 9, 59, 45
4, 116818, Note_on_c, 9, 53, 45
4, 116884, Note_on_c, 9, 59, 0
4, 117002, Note_on_c, 9, 53, 0
4, 117073, Note_on_c, 9, 59, 26
4, 117253, Note_on_c, 9, 59, 0
4, 117531, Note_on_c, 9, 46, 29
4, 117546, Note_on_c, 9, 59, 41
4, 117596, Note_on_c, 9, 46, 0
4, 118286, Note_on_c, 9, 59, 0
4, 118298, Note_on_c, 9, 53, 32
4, 118523, Note_on_c, 9, 53, 0
4, 118554, Note_on_c, 9, 59, 52
4, 118888, Note_on_c, 9, 59, 0
4, 119022, Note_on_c, 9, 59, 84
4, 119600, Note_on_c, 9, 59, 0
4, 119894, Note_on_c, 9, 59, 47
4, 120003, Note_on_c, 9, 59, 0
4, 120108, Note_on_c, 9, 59, 51
4, 120711, Note_on_c, 9, 59, 0
4, 120828, Note_on_c, 9, 53, 34
4, 120998, Note_on_c, 9, 53, 0
4, 121037, Note_on_c, 9, 59, 60
4, 121234, Note_on_c, 9, 59, 0
4, 121384, Note_on_c, 9, 59, 58
4, 121650, Note_on_c, 9, 59, 0
4, 121860, Note_on_c, 9, 59, 47
4, 121878, Note_on_c, 9, 44, 34
4, 122102, Note_on_c, 9, 44, 0
4, 122693, Note_on_c, 9, 59, 0
4, 122869, Note_on_c, 9, 59, 72
4, 123021, Note_on_c, 9, 59, 0
4, 123321, Note_on_c, 9, 59, 62
4, 123602, Note_on_c, 9, 59, 0
4, 123803, Note_on_c, 9, 59, 50
4, 124064, Note_on_c, 9, 53, 43
4, 124069, Note_on_c, 9, 59, 0
4, 124231, Note_on_c, 9, 53, 0
4, 124302, Note_on_c, 9, 59, 30
4, 124431, Note_on_c, 9, 59, 0
4, 124528, Note_on_c, 9, 59, 53
4, 124659, Note_on_c, 9, 59, 0
4, 124786, Note_on_c, 9, 59, 55
4, 125413, Note_on_c, 9, 59, 0
4, 125758, Note_on_c, 9, 59, 50
4, 125760, Note_on_c, 9, 44, 39
4, 125859, Note_on_c, 9, 59, 0
4, 125965, Note_on_c, 9, 59, 45
4, 126025, Note_on_c, 9, 44, 0
4, 126070, Note_on_c, 9, 59, 0
4, 126642, Note_on_c, 9, 59, 58
4, 126744, Note_on_c, 9, 59, 0
4, 126842, Note_on_c, 9, 59, 66
4, 127000, Note_on_c, 9, 59, 0
4, 127842, Note_on_c, 9, 59, 38
4, 127924, Note_on_c, 9, 59, 0
4, 128565, Note_on_c, 9, 59, 53
4, 128633, Note_on_c, 9, 59, 0
4, 128719, Note_on_c, 9, 59, 48
4, 128906, Note_on_c, 9, 59, 0
4, 129593, Note_on_c, 9, 59, 54
4, 129818, Note_on_c, 9, 59, 0
4, 130015, Note_on_c, 9, 44, 45
4, 130130, Note_on_c, 9, 44, 0
4, 130516, Note_on_c, 9, 59, 41
4, 130597, Note_on_c, 9, 59, 0
4, 130990, Note_on_c, 9, 59, 30
4, 131189, Note_on_c, 9, 59, 0
4, 131778, Note_on_c, 9, 53, 50
4, 131872, Note_on_c, 9, 53, 0
4, 131982, Note_on_c, 9, 59, 45
4, 132076, Note_on_c, 9, 59, 0
4, 132460, Note_on_c, 9, 59, 45
4, 132598, Note_on_c, 9, 59, 0
4, 133447, Note_on_c, 9, 59, 40
4, 133476, Note_on_c, 9, 44, 49
4, 133522, Note_on_c, 9, 59, 0
4, 133751, Note_on_c, 9, 44, 0
4, 134222, Note_on_c, 9, 59, 44
4, 134309, Note_on_c, 9, 59, 0
4, 134401, Note_on_c, 9, 59, 44
4, 134490, Note_on_c, 9, 59, 0
4, 135273, Note_on_c, 9, 59, 42
4, 135299, Note_on_c, 9, 44, 48
4, 135350, Note_on_c, 9, 59, 0
4, 135489, Note_on_c, 9, 44, 0
4, 136065, Note_on_c, 9, 59, 50
4, 136174, Note_on_c, 9, 59, 0
4, 136269, Note_on_c, 9, 59, 54
4, 136415, Note_on_c, 9, 59, 0
4, 137228, Note_on_c, 9, 59, 37
4, 137305, Note_on_c, 9, 59, 0
4, 137997, Note_on_c, 9, 59, 56
4, 138115, Note_on_c, 9, 59, 0
4, 138244, Note_on_c, 9, 59, 48
4, 138361, Note_on_c, 9, 59, 0
4, 139015, Note_on_c, 9, 59, 44
4, 139112, Note_on_c, 9, 59, 0
4, 139188, Note_on_c, 9, 44, 51
4, 139197, Note_on_c, 9, 59, 48
4, 139341, Note_on_c, 9, 59, 0
4, 139341, Note_on_c, 9, 44, 0
4, 139960, Note_on_c, 9, 59, 41
4, 140055, Note_on_c, 9, 59, 0
4, 140148, Note_on_c, 9, 59, 64
4, 140334, Note_on_c, 9, 59, 0
4, 140624, Note_on_c, 9, 59, 61
4, 140832, Note_on_c, 9, 59, 0
4, 141107, Note_on_c, 9, 46, 55
4, 141737, Note_on_c, 9, 46, 0
4, 141876, Note_on_c, 9, 59, 47
4, 141962, Note_on_c, 9, 59, 0
4, 142079, Note_on_c, 9, 59, 49
4, 142355, Note_on_c, 9, 59, 0
4, 142390, Note_on_c, 9, 53, 34
4, 142463, Note_on_c, 9, 53, 0
4, 142606, Note_on_c, 9, 59, 36
4, 142699, Note_on_c, 9, 59, 0
4, 142822, Note_on_c, 9, 59, 37
4, 142927, Note_on_c, 9, 59, 0
4, 143036, Note_on_c, 9, 44, 45
4, 143049, Note_on_c, 9, 59, 38
4, 143161, Note_on_c, 9, 59, 0
4, 143210, Note_on_c, 9, 44, 0
4, 143514, Note_on_c, 9, 59, 29
4, 143681, Note_on_c, 9, 59, 0
4, 144459, Note_on_c, 9, 59, 27
4, 144629, Note_on_c, 9, 59, 0
4, 144894, Note_on_c, 9, 59, 39
4, 145025, Note_on_c, 9, 59, 0
4, 145119, Note_on_c, 9, 59, 43
4, 145222, Note_on_c, 9, 59, 0
4, 145355, Note_on_c, 9, 59, 44
4, 145433, Note_on_c, 9, 59, 0
4, 145595, Note_on_c, 9, 59, 47
4, 145688, Note_on_c, 9, 59, 0
4, 145837, Note_on_c, 9, 59, 44
4, 146053, Note_on_c, 9, 59, 0
4, 146096, Note_on_c, 9, 53, 36
4, 146268, Note_on_c, 9, 53, 0
4, 146337, Note_on_c, 9, 59, 46
4, 146569, Note_on_c, 9, 59, 0
4, 146872, Note_on_c, 9, 59, 44
4, 146875, Note_on_c, 9, 44, 47
4, 147028, Note_on_c, 9, 44, 0
4, 147522, Note_on_c, 9, 59, 0
4, 147588, Note_on_c, 9, 59, 44
4, 147721, Note_on_c, 9, 59, 0
4, 147814, Note_on_c, 9, 59, 42
4, 148085, Note_on_c, 9, 59, 0
4, 148301, Note_on_c, 9, 59, 49
4, 148817, Note_on_c, 9, 59, 0
4, 149141, Note_on_c, 9, 59, 52
4, 149320, Note_on_c, 9, 59, 0
4, 149489, Note_on_c, 9, 59, 36
4, 149522, Note_on_c, 9, 59, 0
4, 149620, Note_on_c, 9, 59, 65
4, 149702, Note_on_c, 9, 59, 0
4, 149759, Note_on_c, 9, 59, 68
4, 149910, Note_on_c, 9, 59, 0
4, 150237, Note_on_c, 9, 53, 50
4, 150344, Note_on_c, 9, 53, 0
4, 150503, Note_on_c, 9, 59, 46
4, 150611, Note_on_c, 9, 59, 0
4, 150718, Note_on_c, 9, 44, 49
4, 150725, Note_on_c, 9, 59, 51
4, 150897, Note_on_c, 9, 44, 0
4, 150956, Note_on_c, 9, 59, 0
4, 151219, Note_on_c, 9, 53, 40
4, 151331, Note_on_c, 9, 53, 0
4, 151683, Note_on_c, 9, 59, 57
4, 151925, Note_on_c, 9, 59, 0
4, 152629, Note_on_c, 9, 59, 45
4, 152679, Note_on_c, 9, 44, 46
4, 152758, Note_on_c, 9, 59, 0
4, 152844, Note_on_c, 9, 44, 0
4, 153596, Note_on_c, 9, 57, 30
4, 153607, Note_on_c, 9, 59, 25
4, 153679, Note_on_c, 9, 57, 0
4, 153692, Note_on_c, 9, 59, 0
4, 154098, Note_on_c, 9, 59, 37
4, 154243, Note_on_c, 9, 59, 0
4, 154585, Note_on_c, 9, 59, 34
4, 154710, Note_on_c, 9, 59, 0
4, 155337, Note_on_c, 9, 59, 46
4, 155427, Note_on_c, 9, 59, 0
4, 155527, Note_on_c, 9, 59, 55
4, 155771, Note_on_c, 9, 59, 0
4, 155956, Note_on_c, 9, 59, 51
4, 156010, Note_on_c, 9, 44, 44
4, 156238, Note_on_c, 9, 59, 0
4, 156760, Note_on_c, 9, 59, 41
4, 156892, Note_on_c, 9, 59, 0
4, 157099, Note_on_c, 9, 59, 55
4, 157105, Note_on_c, 9, 44, 0
4, 157160, Note_on_c, 9, 59, 0
4, 157226, Note_on_c, 9, 59, 54
4, 157318, Note_on_c, 9, 59, 0
4, 157383, Note_on_c, 9, 59, 67
4, 157682, Note_on_c, 9, 59, 0
4, 157914, Note_on_c, 9, 59, 49
4, 158105, Note_on_c, 9, 59, 0
4, 158398, Note_on_c, 9, 59, 47
4, 158409, Note_on_c, 9, 44, 47
4, 158659, Note_on_c, 9, 59, 0
4, 158663, Note_on_c, 9, 44, 0
4, 159086, Note_on_c, 9, 53, 38
4, 159207, Note_on_c, 9, 53, 0
4, 159310, Note_on_c, 9, 59, 47
4, 159498, Note_on_c, 9, 59, 0
4, 159804, Note_on_c, 9, 59, 42
4, 159911, Note_on_c, 9, 59, 0
4, 160339, Note_on_c, 9, 44, 38
4, 160546, Note_on_c, 9, 44, 0
4, 161274, Note_on_c, 9, 59, 54
4, 161419, Note_on_c, 9, 59, 0
4, 161609, Note_on_c, 9, 59, 56
4, 161687, Note_on_c, 9, 59, 0
4, 162019, Note_on_c, 9, 59, 44
4, 162092, Note_on_c, 9, 59, 0
4, 162258, Note_on_c, 9, 59, 42
4, 162266, Note_on_c, 9, 44, 35
4, 162378, Note_on_c, 9, 59, 0
4, 162479, Note_on_c, 9, 44, 0
4, 162930, Note_on_c, 9, 59, 50
4, 163018, Note_on_c, 9, 59, 0
4, 163186, Note_on_c, 9, 59, 61
4, 163312, Note_on_c, 9, 59, 0
4, 163569, Note_on_c, 9, 59, 47
4, 163683, Note_on_c, 9, 59, 0
4, 164109, Note_on_c, 9, 59, 32
4, 164202, Note_on_c, 9, 59, 0
4, 164880, Note_on_c, 9, 53, 42
4, 164981, Note_on_c, 9, 53, 0
4, 165089, Note_on_c, 9, 59, 36
4, 165192, Note_on_c, 9, 59, 0
4, 165552, Note_on_c, 9, 59, 32
4, 165660, Note_on_c, 9, 59, 0
4, 166020, Note_on_c, 9, 59, 34
4, 166508, Note_on_c, 9, 51, 34
4, 166542, Note_on_c, 9, 44, 55
4, 166629, Note_on_c, 9, 51, 0
4, 166653, Note_on_c, 9, 44, 0
4, 166699, Note_on_c, 9, 59, 0
4, 167049, Note_on_c, 9, 59, 25
4, 167123, Note_on_c, 9, 59, 0
4, 167512, Note_on_c, 9, 59, 32
4, 167520, Note_on_c, 9, 44, 50
4, 167637, Note_on_c, 9, 44, 0
4, 167749, Note_on_c, 9, 59, 0
4, 168483, Note_on_c, 9, 44, 58
4, 168485, Note_on_c, 9, 59, 36
4, 168581, Note_on_c, 9, 59, 0
4, 168596, Note_on_c, 9, 44, 0
4, 168802, Note_on_c, 9, 59, 59
4, 168903, Note_on_c, 9, 59, 0
4, 169017, Note_on_c, 9, 59, 38
4, 169116, Note_on_c, 9, 59, 0
4, 169433, Note_on_c, 9, 44, 52
4, 169461, Note_on_c, 9, 59, 41
4, 169527, Note_on_c, 9, 44, 0
4, 169553, Note_on_c, 9, 59, 0
4, 169771, Note_on_c, 9, 59, 34
4, 169844, Note_on_c, 9, 59, 0
4, 169928, Note_on_c, 9, 59, 37
4, 170075, Note_on_c, 9, 59, 0
4, 170208, Note_on_c, 9, 38, 48
4, 170253, Note_on_c, 9, 38, 0
4, 170380, Note_on_c, 9, 44, 52
4, 170387, Note_on_c, 9, 59, 70
4, 170461, Note_on_c, 9, 44, 0
4, 170515, Note_on_c, 9, 59, 0
4, 170700, Note_on_c, 9, 59, 64
4, 170795, Note_on_c, 9, 59, 0
4, 170865, Note_on_c, 9, 59, 54
4, 171153, Note_on_c, 9, 51, 55
4, 171209, Note_on_c, 9, 59, 0
4, 171270, Note_on_c, 9, 51, 0
4, 171318, Note_on_c, 9, 44, 46
4, 171333, Note_on_c, 9, 59, 37
4, 171402, Note_on_c, 9, 44, 0
4, 171513, Note_on_c, 9, 59, 0
4, 171825, Note_on_c, 9, 59, 54
4, 172113, Note_on_c, 9, 59, 0
4, 172125, Note_on_c, 9, 38, 54
4, 172199, Note_on_c, 9, 38, 0
4, 172318, Note_on_c, 9, 59, 65
4, 172322, Note_on_c, 9, 46, 51
4, 172358, Note_on_c, 9, 46, 0
4, 172441, Note_on_c, 9, 59, 0
4, 172476, Note_on_c, 9, 38, 51
4, 172567, Note_on_c, 9, 38, 0
4, 172631, Note_on_c, 9, 36, 61
4, 172658, Note_on_c, 9, 59, 64
4, 172692, Note_on_c, 9, 36, 0
4, 172730, Note_on_c, 9, 59, 0
4, 172808, Note_on_c, 9, 59, 55
4, 172868, Note_on_c, 9, 59, 0
4, 172871, Note_on_c, 9, 59, 79
4, 173050, Note_on_c, 9, 59, 0
4, 173763, Note_on_c, 9, 59, 88
4, 173784, Note_on_c, 9, 44, 46
4, 173922, Note_on_c, 9, 44, 0
4, 174033, Note_on_c, 9, 59, 0
4, 174433, Note_on_c, 9, 59, 60
4, 174523, Note_on_c, 9, 59, 0
4, 174652, Note_on_c, 9, 59, 62
4, 175288, Note_on_c, 9, 59, 0
4, 175617, Note_on_c, 9, 59, 81
4, 175670, Note_on_c, 9, 44, 57
4, 176115, Note_on_c, 9, 59, 0
4, 176190, Note_on_c, 9, 44, 0
4, 176347, Note_on_c, 9, 59, 56
4, 176426, Note_on_c, 9, 59, 0
4, 176574, Note_on_c, 9, 59, 64
4, 177275, Note_on_c, 9, 59, 0
4, 177540, Note_on_c, 9, 59, 80
4, 177558, Note_on_c, 9, 44, 61
4, 177748, Note_on_c, 9, 44, 0
4, 178193, Note_on_c, 9, 59, 0
4, 178513, Note_on_c, 9, 59, 68
4, 178890, Note_on_c, 9, 59, 0
4, 179191, Note_on_c, 9, 59, 52
4, 179316, Note_on_c, 9, 59, 0
4, 179436, Note_on_c, 9, 46, 47
4, 179442, Note_on_c, 9, 59, 75
4, 179710, Note_on_c, 9, 46, 0
4, 180026, Note_on_c, 9, 59, 0
4, 180079, Note_on_c, 9, 53, 68
4, 180293, Note_on_c, 9, 53, 0
4, 180382, Note_on_c, 9, 59, 58
4, 181138, Note_on_c, 9, 59, 0
4, 181388, Note_on_c, 9, 44, 77
4, 181410, Note_on_c, 9, 59, 80
4, 181654, Note_on_c, 9, 44, 0
4, 182058, Note_on_c, 9, 59, 0
4, 182390, Note_on_c, 9, 59, 79
4, 183044, Note_on_c, 9, 59, 0
4, 183323, Note_on_c, 9, 59, 70
4, 183346, Note_on_c, 9, 44, 63
4, 183689, Note_on_c, 9, 44, 0
4, 183797, Note_on_c, 9, 59, 0
4, 184001, Note_on_c, 9, 59, 62
4, 184116, Note_on_c, 9, 59, 0
4, 184230, Note_on_c, 9, 59, 68
4, 184918, Note_on_c, 9, 59, 0
4, 185204, Note_on_c, 9, 44, 44
4, 185214, Note_on_c, 9, 59, 90
4, 185472, Note_on_c, 9, 44, 0
4, 185668, Note_on_c, 9, 59, 0
4, 186141, Note_on_c, 9, 59, 77
4, 186532, Note_on_c, 9, 59, 0
4, 186826, Note_on_c, 9, 59, 51
4, 186994, Note_on_c, 9, 59, 0
4, 187086, Note_on_c, 9, 59, 77
4, 187779, Note_on_c, 9, 59, 0
4, 188087, Note_on_c, 9, 59, 82
4, 188721, Note_on_c, 9, 59, 0
4, 188957, Note_on_c, 9, 44, 76
4, 189070, Note_on_c, 9, 59, 83
4, 189269, Note_on_c, 9, 44, 0
4, 189544, Note_on_c, 9, 59, 0
4, 189780, Note_on_c, 9, 59, 51
4, 189897, Note_on_c, 9, 59, 0
4, 190030, Note_on_c, 9, 59, 71
4, 190643, Note_on_c, 9, 59, 0
4, 191040, Note_on_c, 9, 59, 82
4, 191533, Note_on_c, 9, 59, 0
4, 191734, Note_on_c, 9, 59, 49
4, 191805, Note_on_c, 9, 59, 0
4, 191984, Note_on_c, 9, 59, 76
4, 192498, Note_on_c, 9, 59, 0
4, 192911, Note_on_c, 9, 59, 87
4, 192923, Note_on_c, 9, 44, 52
4, 193201, Note_on_c, 9, 44, 0
4, 193504, Note_on_c, 9, 59, 0
4, 193933, Note_on_c, 9, 59, 81
4, 194415, Note_on_c, 9, 59, 0
4, 194609, Note_on_c, 9, 59, 47
4, 194669, Note_on_c, 9, 59, 0
4, 194858, Note_on_c, 9, 59, 82
4, 194881, Note_on_c, 9, 44, 52
4, 195159, Note_on_c, 9, 44, 0
4, 195493, Note_on_c, 9, 59, 0
4, 195820, Note_on_c, 9, 59, 83
4, 196356, Note_on_c, 9, 59, 0
4, 196666, Note_on_c, 9, 44, 48
4, 196789, Note_on_c, 9, 59, 82
4, 197005, Note_on_c, 9, 44, 0
4, 197344, Note_on_c, 9, 59, 0
4, 197466, Note_on_c, 9, 59, 49
4, 197572, Note_on_c, 9, 59, 0
4, 197701, Note_on_c, 9, 59, 70
4, 198302, Note_on_c, 9, 59, 0
4, 198663, Note_on_c, 9, 59, 92
4, 199195, Note_on_c, 9, 59, 0
4, 199366, Note_on_c, 9, 59, 75
4, 200033, Note_on_c, 9, 59, 0
4, 200163, Note_on_c, 9, 59, 28
4, 200289, Note_on_c, 9, 59, 0
4, 200406, Note_on_c, 9, 59, 74
4, 200527, Note_on_c, 9, 44, 46
4, 200563, Note_on_c, 9, 59, 0
4, 200687, Note_on_c, 9, 59, 83
4, 200880, Note_on_c, 9, 44, 0
4, 201447, Note_on_c, 9, 59, 0
4, 201625, Note_on_c, 9, 59, 84
4, 202159, Note_on_c, 9, 59, 0
4, 202540, Note_on_c, 9, 44, 60
4, 202558, Note_on_c, 9, 59, 85
4, 202849, Note_on_c, 9, 44, 0
4, 203036, Note_on_c, 9, 59, 0
4, 203258, Note_on_c, 9, 59, 51
4, 203324, Note_on_c, 9, 59, 0
4, 203489, Note_on_c, 9, 59, 81
4, 204211, Note_on_c, 9, 59, 0
4, 204446, Note_on_c, 9, 59, 74
4, 205113, Note_on_c, 9, 59, 0
4, 205430, Note_on_c, 9, 59, 71
4, 206047, Note_on_c, 9, 59, 0
4, 206063, Note_on_c, 9, 53, 60
4, 206248, Note_on_c, 9, 53, 0
4, 206425, Note_on_c, 9, 59, 35
4, 206903, Note_on_c, 9, 59, 0
4, 207039, Note_on_c, 9, 59, 79
4, 207271, Note_on_c, 9, 59, 0
4, 207383, Note_on_c, 9, 59, 71
4, 207992, Note_on_c, 9, 44, 38
4, 208157, Note_on_c, 9, 59, 0
4, 208231, Note_on_c, 9, 44, 0
4, 208315, Note_on_c, 9, 44, 23
4, 208346, Note_on_c, 9, 59, 80
4, 208645, Note_on_c, 9, 44, 0
4, 209050, Note_on_c, 9, 59, 0
4, 209265, Note_on_c, 9, 59, 76
4, 209779, Note_on_c, 9, 59, 0
4, 209950, Note_on_c, 9, 59, 36
4, 210015, Note_on_c, 9, 59, 0
4, 210179, Note_on_c, 9, 46, 40
4, 210211, Note_on_c, 9, 59, 81
4, 210523, Note_on_c, 9, 46, 0
4, 210900, Note_on_c, 9, 59, 0
4, 211150, Note_on_c, 9, 59, 83
4, 211895, Note_on_c, 9, 59, 0
4, 212122, Note_on_c, 9, 59, 83
4, 212166, Note_on_c, 9, 44, 48
4, 212458, Note_on_c, 9, 44, 0
4, 212678, Note_on_c, 9, 59, 0
4, 212729, Note_on_c, 9, 44, 50
4, 212841, Note_on_c, 9, 59, 54
4, 212963, Note_on_c, 9, 59, 0
4, 212983, Note_on_c, 9, 44, 0
4, 213073, Note_on_c, 9, 59, 71
4, 213828, Note_on_c, 9, 59, 0
4, 214084, Note_on_c, 9, 59, 84
4, 214692, Note_on_c, 9, 59, 0
4, 214801, Note_on_c, 9, 59, 58
4, 214863, Note_on_c, 9, 59, 0
4, 215013, Note_on_c, 9, 59, 82
4, 215686, Note_on_c, 9, 59, 0
4, 215984, Note_on_c, 9, 59, 87
4, 216536, Note_on_c, 9, 44, 37
4, 216698, Note_on_c, 9, 59, 0
4, 216742, Note_on_c, 9, 44, 0
4, 216975, Note_on_c, 9, 59, 81
4, 217530, Note_on_c, 9, 59, 0
4, 217678, Note_on_c, 9, 59, 32
4, 217773, Note_on_c, 9, 59, 0
4, 217939, Note_on_c, 9, 59, 91
4, 218701, Note_on_c, 9, 59, 0
4, 218921, Note_on_c, 9, 59, 78
4, 219566, Note_on_c, 9, 59, 0
4, 219847, Note_on_c, 9, 59, 74
4, 219862, Note_on_c, 9, 44, 37
4, 220171, Note_on_c, 9, 44, 0
4, 220339, Note_on_c, 9, 59, 0
4, 220562, Note_on_c, 9, 59, 46
4, 220632, Note_on_c, 9, 59, 0
4, 220798, Note_on_c, 9, 59, 65
4, 221430, Note_on_c, 9, 53, 66
4, 221433, Note_on_c, 9, 59, 0
4, 221641, Note_on_c, 9, 53, 0
4, 221747, Note_on_c, 9, 44, 46
4, 221769, Note_on_c, 9, 59, 39
4, 221965, Note_on_c, 9, 44, 0
4, 222220, Note_on_c, 9, 59, 0
4, 222361, Note_on_c, 9, 44, 56
4, 222403, Note_on_c, 9, 59, 77
4, 222610, Note_on_c, 9, 44, 0
4, 222629, Note_on_c, 9, 59, 0
4, 222736, Note_on_c, 9, 59, 64
4, 222950, Note_on_c, 9, 44, 36
4, 223225, Note_on_c, 9, 44, 0
4, 223384, Note_on_c, 9, 59, 0
4, 223622, Note_on_c, 9, 44, 40
4, 223713, Note_on_c, 9, 59, 82
4, 223909, Note_on_c, 9, 44, 0
4, 224315, Note_on_c, 9, 44, 37
4, 224328, Note_on_c, 9, 59, 0
4, 224571, Note_on_c, 9, 44, 0
4, 224650, Note_on_c, 9, 59, 85
4, 224861, Note_on_c, 9, 46, 37
4, 225115, Note_on_c, 9, 59, 0
4, 225122, Note_on_c, 9, 46, 0
4, 225331, Note_on_c, 9, 59, 48
4, 225396, Note_on_c, 9, 59, 0
4, 225585, Note_on_c, 9, 46, 39
4, 225624, Note_on_c, 9, 59, 71
4, 225956, Note_on_c, 9, 46, 0
4, 226114, Note_on_c, 9, 59, 0
4, 226206, Note_on_c, 9, 53, 46
4, 226377, Note_on_c, 9, 53, 0
4, 226599, Note_on_c, 9, 59, 38
4, 226922, Note_on_c, 9, 59, 0
4, 227193, Note_on_c, 9, 59, 65
4, 227385, Note_on_c, 9, 59, 0
4, 227555, Note_on_c, 9, 59, 62
4, 227981, Note_on_c, 9, 59, 0
4, 228165, Note_on_c, 9, 53, 74
4, 228313, Note_on_c, 9, 53, 0
4, 228562, Note_on_c, 9, 59, 43
4, 228886, Note_on_c, 9, 59, 0
4, 229122, Note_on_c, 9, 59, 61
4, 229289, Note_on_c, 9, 59, 0
4, 229463, Note_on_c, 9, 44, 46
4, 229479, Note_on_c, 9, 59, 68
4, 229760, Note_on_c, 9, 44, 0
4, 229927, Note_on_c, 9, 59, 0
4, 230102, Note_on_c, 9, 53, 49
4, 230165, Note_on_c, 9, 53, 0
4, 230480, Note_on_c, 9, 59, 49
4, 230782, Note_on_c, 9, 59, 0
4, 231062, Note_on_c, 9, 59, 55
4, 231215, Note_on_c, 9, 59, 0
4, 231367, Note_on_c, 9, 44, 46
4, 231415, Note_on_c, 9, 59, 61
4, 231545, Note_on_c, 9, 59, 0
4, 231670, Note_on_c, 9, 44, 0
4, 231982, Note_on_c, 9, 59, 95
4, 232839, Note_on_c, 9, 59, 0
4, 233276, Note_on_c, 9, 44, 57
4, 233286, Note_on_c, 9, 59, 91
4, 233561, Note_on_c, 9, 44, 0
4, 233813, Note_on_c, 9, 59, 0
4, 233957, Note_on_c, 9, 59, 60
4, 234040, Note_on_c, 9, 59, 0
4, 234259, Note_on_c, 9, 59, 94
4, 234943, Note_on_c, 9, 59, 0
4, 235206, Note_on_c, 9, 59, 75
4, 235219, Note_on_c, 9, 44, 52
4, 235476, Note_on_c, 9, 44, 0
4, 235783, Note_on_c, 9, 59, 0
4, 236161, Note_on_c, 9, 59, 79
4, 236531, Note_on_c, 9, 59, 0
4, 236848, Note_on_c, 9, 59, 39
4, 236910, Note_on_c, 9, 59, 0
4, 237089, Note_on_c, 9, 59, 84
4, 237221, Note_on_c, 9, 44, 54
4, 237459, Note_on_c, 9, 44, 0
4, 237744, Note_on_c, 9, 59, 0
4, 238053, Note_on_c, 9, 59, 82
4, 238642, Note_on_c, 9, 59, 0
4, 239046, Note_on_c, 9, 59, 85
4, 239124, Note_on_c, 9, 44, 60
4, 239385, Note_on_c, 9, 44, 0
4, 239628, Note_on_c, 9, 59, 0
4, 240032, Note_on_c, 9, 59, 50
4, 240129, Note_on_c, 9, 59, 0
4, 240291, Note_on_c, 9, 59, 80
4, 240753, Note_on_c, 9, 59, 0
4, 240933, Note_on_c, 9, 59, 87
4, 240963, Note_on_c, 9, 46, 55
4, 241142, Note_on_c, 9, 46, 0
4, 241482, Note_on_c, 9, 59, 0
4, 241605, Note_on_c, 9, 59, 60
4, 241732, Note_on_c, 9, 59, 0
4, 241879, Note_on_c, 9, 59, 72
4, 242583, Note_on_c, 9, 59, 0
4, 242826, Note_on_c, 9, 59, 87
4, 242882, Note_on_c, 9, 44, 63
4, 243086, Note_on_c, 9, 44, 0
4, 243400, Note_on_c, 9, 59, 0
4, 243530, Note_on_c, 9, 59, 45
4, 243612, Note_on_c, 9, 59, 0
4, 243795, Note_on_c, 9, 59, 80
4, 244424, Note_on_c, 9, 59, 0
4, 244781, Note_on_c, 9, 59, 90
4, 244827, Note_on_c, 9, 44, 59
4, 244998, Note_on_c, 9, 59, 0
4, 245044, Note_on_c, 9, 44, 0
4, 245095, Note_on_c, 9, 59, 77
4, 245552, Note_on_c, 9, 59, 0
4, 245754, Note_on_c, 9, 59, 80
4, 245993, Note_on_c, 9, 59, 0
4, 246081, Note_on_c, 9, 59, 78
4, 246522, Note_on_c, 9, 59, 0
4, 246728, Note_on_c, 9, 59, 87
4, 246748, Note_on_c, 9, 44, 51
4, 246992, Note_on_c, 9, 44, 0
4, 247309, Note_on_c, 9, 59, 0
4, 247400, Note_on_c, 9, 59, 62
4, 247477, Note_on_c, 9, 59, 0
4, 247676, Note_on_c, 9, 59, 84
4, 248050, Note_on_c, 9, 46, 43
4, 248188, Note_on_c, 9, 46, 0
4, 248305, Note_on_c, 9, 59, 0
4, 248622, Note_on_c, 9, 59, 87
4, 248655, Note_on_c, 9, 46, 53
4, 248836, Note_on_c, 9, 46, 0
4, 249172, Note_on_c, 9, 59, 0
4, 249277, Note_on_c, 9, 44, 58
4, 249294, Note_on_c, 9, 59, 39
4, 249441, Note_on_c, 9, 59, 0
4, 249461, Note_on_c, 9, 44, 0
4, 249598, Note_on_c, 9, 59, 83
4, 249635, Note_on_c, 9, 44, 57
4, 249870, Note_on_c, 9, 44, 0
4, 250168, Note_on_c, 9, 59, 0
4, 250558, Note_on_c, 9, 59, 90
4, 251086, Note_on_c, 9, 59, 0
4, 251527, Note_on_c, 9, 59, 87
4, 252033, Note_on_c, 9, 59, 0
4, 252466, Note_on_c, 9, 44, 49
4, 252475, Note_on_c, 9, 59, 87
4, 252696, Note_on_c, 9, 44, 0
4, 252939, Note_on_c, 9, 59, 0
4, 253140, Note_on_c, 9, 59, 60
4, 253218, Note_on_c, 9, 59, 0
4, 253414, Note_on_c, 9, 59, 81
4, 253923, Note_on_c, 9, 59, 0
4, 254396, Note_on_c, 9, 59, 96
4, 254455, Note_on_c, 9, 44, 56
4, 254682, Note_on_c, 9, 44, 0
4, 254906, Note_on_c, 9, 59, 0
4, 255334, Note_on_c, 9, 59, 91
4, 255851, Note_on_c, 9, 59, 0
4, 256010, Note_on_c, 9, 59, 48
4, 256074, Note_on_c, 9, 59, 0
4, 256294, Note_on_c, 9, 59, 88
4, 256332, Note_on_c, 9, 44, 39
4, 256581, Note_on_c, 9, 44, 0
4, 256746, Note_on_c, 9, 59, 0
4, 256978, Note_on_c, 9, 59, 71
4, 257060, Note_on_c, 9, 59, 0
4, 257238, Note_on_c, 9, 59, 89
4, 257876, Note_on_c, 9, 59, 0
4, 258250, Note_on_c, 9, 59, 89
4, 258576, Note_on_c, 9, 59, 0
4, 258914, Note_on_c, 9, 59, 44
4, 258989, Note_on_c, 9, 59, 0
4, 259180, Note_on_c, 9, 59, 83
4, 259769, Note_on_c, 9, 59, 0
4, 260211, Note_on_c, 9, 59, 87
4, 260242, Note_on_c, 9, 44, 60
4, 260472, Note_on_c, 9, 44, 0
4, 260742, Note_on_c, 9, 59, 0
4, 261170, Note_on_c, 9, 59, 85
4, 261632, Note_on_c, 9, 59, 0
4, 262095, Note_on_c, 9, 59, 79
4, 262471, Note_on_c, 9, 59, 0
4, 262773, Note_on_c, 9, 59, 45
4, 262832, Note_on_c, 9, 59, 0
4, 263027, Note_on_c, 9, 59, 82
4, 263640, Note_on_c, 9, 59, 0
4, 264021, Note_on_c, 9, 44, 57
4, 264024, Note_on_c, 9, 59, 91
4, 264286, Note_on_c, 9, 44, 0
4, 264394, Note_on_c, 9, 59, 0
4, 264674, Note_on_c, 9, 59, 49
4, 264750, Note_on_c, 9, 59, 0
4, 264948, Note_on_c, 9, 59, 74
4, 265436, Note_on_c, 9, 59, 0
4, 265932, Note_on_c, 9, 44, 53
4, 265938, Note_on_c, 9, 59, 89
4, 266256, Note_on_c, 9, 44, 0
4, 266380, Note_on_c, 9, 59, 0
4, 266883, Note_on_c, 9, 59, 82
4, 267295, Note_on_c, 9, 59, 0
4, 267834, Note_on_c, 9, 44, 60
4, 267840, Note_on_c, 9, 59, 70
4, 268075, Note_on_c, 9, 44, 0
4, 268193, Note_on_c, 9, 59, 0
4, 268526, Note_on_c, 9, 59, 71
4, 268711, Note_on_c, 9, 59, 0
4, 268825, Note_on_c, 9, 59, 67
4, 269334, Note_on_c, 9, 59, 0
4, 269772, Note_on_c, 9, 59, 91
4, 269797, Note_on_c, 9, 44, 60
4, 270055, Note_on_c, 9, 44, 0
4, 270180, Note_on_c, 9, 59, 0
4, 270419, Note_on_c, 9, 59, 71
4, 270591, Note_on_c, 9, 59, 0
4, 270749, Note_on_c, 9, 59, 75
4, 271148, Note_on_c, 9, 59, 0
4, 271678, Note_on_c, 9, 46, 46
4, 271684, Note_on_c, 9, 59, 87
4, 271868, Note_on_c, 9, 46, 0
4, 272109, Note_on_c, 9, 59, 0
4, 272380, Note_on_c, 9, 59, 40
4, 272444, Note_on_c, 9, 59, 0
4, 272660, Note_on_c, 9, 59, 87
4, 273166, Note_on_c, 9, 59, 0
4, 273565, Note_on_c, 9, 59, 88
4, 273636, Note_on_c, 9, 44, 52
4, 273870, Note_on_c, 9, 44, 0
4, 274117, Note_on_c, 9, 59, 0
4, 274559, Note_on_c, 9, 59, 74
4, 275107, Note_on_c, 9, 59, 0
4, 275153, Note_on_c, 9, 53, 62
4, 275292, Note_on_c, 9, 53, 0
4, 275542, Note_on_c, 9, 44, 57
4, 275543, Note_on_c, 9, 59, 50
4, 275771, Note_on_c, 9, 44, 0
4, 275916, Note_on_c, 9, 59, 0
4, 276150, Note_on_c, 9, 59, 73
4, 276343, Note_on_c, 9, 59, 0
4, 276485, Note_on_c, 9, 59, 68
4, 277007, Note_on_c, 9, 59, 0
4, 277438, Note_on_c, 9, 59, 85
4, 277485, Note_on_c, 9, 44, 49
4, 277714, Note_on_c, 9, 44, 0
4, 277725, Note_on_c, 9, 59, 0
4, 278345, Note_on_c, 9, 59, 74
4, 278654, Note_on_c, 9, 59, 0
4, 278970, Note_on_c, 9, 59, 70
4, 279111, Note_on_c, 9, 59, 0
4, 279304, Note_on_c, 9, 59, 72
4, 279428, Note_on_c, 9, 44, 47
4, 279699, Note_on_c, 9, 44, 0
4, 279815, Note_on_c, 9, 59, 0
4, 279929, Note_on_c, 9, 59, 73
4, 280132, Note_on_c, 9, 59, 0
4, 280283, Note_on_c, 9, 59, 88
4, 281266, Note_on_c, 9, 44, 33
4, 281518, Note_on_c, 9, 44, 0
4, 281571, Note_on_c, 9, 59, 0
4, 281880, Note_on_c, 9, 59, 84
4, 282077, Note_on_c, 9, 59, 0
4, 282275, Note_on_c, 9, 59, 76
4, 283126, Note_on_c, 9, 59, 0
4, 283264, Note_on_c, 9, 44, 33
4, 283494, Note_on_c, 9, 44, 0
4, 283838, Note_on_c, 9, 59, 69
4, 284002, Note_on_c, 9, 59, 0
4, 284197, Note_on_c, 9, 59, 80
4, 284858, Note_on_c, 9, 59, 0
4, 285151, Note_on_c, 9, 44, 42
4, 285167, Note_on_c, 9, 59, 81
4, 285324, Note_on_c, 9, 44, 0
4, 286550, Note_on_c, 9, 59, 0
4, 286691, Note_on_c, 9, 59, 45
4, 286825, Note_on_c, 9, 59, 0
4, 287001, Note_on_c, 9, 46, 33
4, 287075, Note_on_c, 9, 59, 70
4, 287155, Note_on_c, 9, 46, 0
4, 287200, Note_on_c, 9, 59, 0
4, 287527, Note_on_c, 9, 59, 75
4, 287615, Note_on_c, 9, 59, 0
4, 287959, Note_on_c, 9, 59, 92
4, 288982, Note_on_c, 9, 44, 42
4, 289339, Note_on_c, 9, 44, 0
4, 290897, Note_on_c, 9, 59, 0
4, 290897, End_track
0, 0, End_of_file
