0, 0, Header, 1, 3, 120
1, 0, Start_track
1, 0, Title_t, "YouTookAdvantage OfMe"
1, 0, Text_t, "Doug McKenzie\012"
1, 0, Time_signature, 4, 2, 24, 8
1, 0, Key_signature, -3, "major"
1, 0, Tempo, 966651
1, 120, Tempo, 712504
1, 240, Tempo, 787505
1, 360, Tempo, 762486
1, 480, Tempo, 791661
1, 600, Tempo, 774994
1, 720, Tempo, 762486
1, 840, Tempo, 758342
1, 960, Tempo, 875018
1, 1080, Tempo, 779120
1, 1200, Tempo, 762486
1, 1320, Tempo, 770812
1, 1440, Tempo, 837521
1, 1560, Tempo, 845785
1, 1680, Tempo, 816660
1, 1920, Tempo, 800000
1, 2040, Tempo, 812458
1, 2160, Tempo, 791661
1, 2280, Tempo, 820793
1, 2400, Tempo, 875018
1, 2520, Tempo, 841633
1, 2640, Tempo, 870827
1, 2760, Tempo, 800000
1, 2880, Tempo, 791661
1, 3000, Tempo, 879121
1, 3120, Tempo, 783290
1, 3240, Tempo, 795862
1, 3360, Tempo, 833333
1, 3480, Tempo, 820793
1, 3600, Tempo, 870827
1, 3840, Tempo, 808299
1, 3960, Tempo, 816660
1, 4200, Tempo, 804182
1, 4320, Tempo, 816660
1, 4440, Tempo, 824969
1, 4560, Tempo, 820793
1, 4680, Tempo, 824969
1, 4800, Tempo, 791661
1, 4920, Tempo, 824969
1, 5040, Tempo, 804182
1, 5160, Tempo, 845785
1, 5280, Tempo, 829187
1, 5400, Tempo, 808299
1, 5520, Tempo, 800000
1, 5640, Tempo, 762486
1, 5760, Tempo, 754148
1, 5880, Tempo, 870827
1, 6000, Tempo, 833333
1, 6120, Tempo, 837521
1, 6240, Tempo, 925069
1, 6360, Tempo, 895790
1, 6480, Tempo, 837521
1, 6600, Tempo, 770812
1, 6720, Tempo, 804182
1, 6840, Tempo, 820793
1, 6960, Tempo, 779120
1, 7080, Tempo, 808299
1, 7200, Tempo, 804182
1, 7320, Tempo, 750000
1, 7440, Tempo, 816660
1, 7560, Tempo, 774994
1, 7680, Tempo, 745805
1, 7800, Tempo, 787505
1, 7920, Tempo, 812458
1, 8040, Tempo, 820793
1, 8160, Tempo, 870827
1, 8280, Tempo, 833333
1, 8400, Tempo, 849979
1, 8520, Tempo, 879121
1, 8640, Tempo, 816660
1, 8760, Tempo, 858369
1, 8880, Tempo, 841633
1, 9000, Tempo, 829187
1, 9120, Tempo, 841633
1, 9240, Tempo, 820793
1, 9360, Tempo, 887443
1, 9480, Tempo, 849979
1, 9600, Tempo, 820793
1, 9720, Tempo, 812458
1, 9840, Tempo, 854214
1, 9960, Tempo, 829187
1, 10080, Tempo, 891663
1, 10200, Tempo, 783290
1, 10320, Tempo, 870827
1, 10440, Tempo, 866676
1, 10560, Tempo, 858369
1, 10680, Tempo, 862441
1, 10800, Tempo, 904159
1, 10920, Tempo, 854214
1, 11040, Tempo, 829187
1, 11160, Tempo, 875018
1, 11280, Tempo, 837521
1, 11400, Tempo, 920810
1, 11520, Tempo, 933271
1, 11760, Tempo, 824969
1, 11880, Tempo, 879121
1, 12000, Tempo, 883392
1, 12120, Tempo, 887443
1, 12240, Tempo, 766675
1, 12360, Tempo, 862441
1, 12480, Tempo, 870827
1, 12600, Tempo, 866676
1, 12720, Tempo, 820793
1, 12840, Tempo, 883392
1, 12960, Tempo, 804182
1, 13080, Tempo, 841633
1, 13200, Tempo, 837521
1, 13320, Tempo, 854214
1, 13440, Tempo, 908265
1, 13560, Tempo, 866676
1, 13680, Tempo, 891663
1, 13800, Tempo, 829187
1, 13920, Tempo, 849979
1, 14040, Tempo, 879121
1, 14160, Tempo, 887443
1, 14280, Tempo, 858369
1, 14400, Tempo, 904159
1, 14520, Tempo, 849979
1, 14640, Tempo, 899955
1, 14760, Tempo, 883392
1, 14880, Tempo, 837521
1, 15000, Tempo, 883392
1, 15120, Tempo, 891663
1, 15240, Tempo, 849979
1, 15360, Tempo, 791661
1, 15480, Tempo, 916730
1, 15600, Tempo, 883392
1, 15720, Tempo, 820793
1, 15840, Tempo, 862441
1, 15960, Tempo, 895790
1, 16080, Tempo, 891663
1, 16200, Tempo, 837521
1, 16320, Tempo, 829187
1, 16440, Tempo, 795862
1, 16560, Tempo, 824969
1, 16680, Tempo, 829187
1, 16800, Tempo, 820793
1, 16920, Tempo, 879121
1, 17040, Tempo, 833333
1, 17160, Tempo, 737463
1, 17280, Tempo, 833333
1, 17400, Tempo, 974976
1, 17520, Tempo, 866676
1, 17640, Tempo, 875018
1, 17760, Tempo, 829187
1, 17880, Tempo, 866676
1, 18000, Tempo, 879121
1, 18120, Tempo, 870827
1, 18240, Tempo, 883392
1, 18360, Tempo, 816660
1, 18480, Tempo, 829187
1, 18600, Tempo, 858369
1, 18720, Tempo, 862441
1, 18840, Tempo, 866676
1, 18960, Tempo, 879121
1, 19080, Tempo, 854214
1, 19200, Tempo, 970874
1, 19320, Tempo, 866676
1, 19440, Tempo, 904159
1, 19560, Tempo, 879121
1, 19680, Tempo, 841633
1, 19800, Tempo, 887443
1, 19920, Tempo, 766675
1, 20040, Tempo, 895790
1, 20160, Tempo, 845785
1, 20280, Tempo, 862441
1, 20400, Tempo, 816660
1, 20520, Tempo, 787505
1, 20640, Tempo, 875018
1, 20760, Tempo, 854214
1, 20880, Tempo, 925069
1, 21000, Tempo, 862441
1, 21240, Tempo, 824969
1, 21360, Tempo, 862441
1, 21480, Tempo, 887443
1, 21600, Tempo, 879121
1, 21720, Tempo, 854214
1, 21840, Tempo, 841633
1, 21960, Tempo, 870827
1, 22200, Tempo, 954198
1, 22320, Tempo, 887443
1, 22440, Tempo, 925069
1, 22560, Tempo, 945776
1, 22680, Tempo, 845785
1, 22920, Tempo, 829187
1, 23040, Tempo, 858369
1, 23280, Tempo, 862441
1, 23400, Tempo, 849979
1, 23520, Tempo, 829187
1, 23640, Tempo, 883392
1, 23760, Tempo, 870827
1, 23880, Tempo, 833333
1, 24000, Tempo, 849979
1, 24120, Tempo, 829187
1, 24240, Tempo, 816660
1, 24360, Tempo, 787505
1, 24480, Tempo, 774994
1, 24600, Tempo, 758342
1, 24720, Tempo, 804182
1, 24840, Tempo, 812458
1, 24960, Tempo, 729129
1, 25080, Tempo, 787505
1, 25200, Tempo, 870827
1, 25320, Tempo, 816660
1, 25440, Tempo, 800000
1, 25560, Tempo, 841633
1, 25680, Tempo, 795862
1, 25800, Tempo, 779120
1, 25920, Tempo, 824969
1, 26040, Tempo, 833333
1, 26160, Tempo, 899955
1, 26280, Tempo, 912548
1, 26400, Tempo, 883392
1, 26520, Tempo, 820793
1, 26640, Tempo, 899955
1, 26760, Tempo, 841633
1, 26880, Tempo, 858369
1, 27000, Tempo, 875018
1, 27120, Tempo, 841633
1, 27240, Tempo, 883392
1, 27360, Tempo, 862441
1, 27480, Tempo, 841633
1, 27600, Tempo, 1054111
1, 27720, Tempo, 641643
1, 27840, Tempo, 883392
1, 27960, Tempo, 862441
1, 28080, Tempo, 854214
1, 28200, Tempo, 862441
1, 28320, Tempo, 829187
1, 28440, Tempo, 929224
1, 28560, Tempo, 895790
1, 28680, Tempo, 862441
1, 28800, Tempo, 837521
1, 28920, Tempo, 862441
1, 29040, Tempo, 941620
1, 29160, Tempo, 870827
1, 29280, Tempo, 879121
1, 29400, Tempo, 895790
1, 29520, Tempo, 845785
1, 29640, Tempo, 849979
1, 29760, Tempo, 800000
1, 29880, Tempo, 887443
1, 30000, Tempo, 854214
1, 30120, Tempo, 883392
1, 30240, Tempo, 895790
1, 30360, Tempo, 849979
1, 30480, Tempo, 854214
1, 30600, Tempo, 829187
1, 30720, Tempo, 937500
1, 30840, Tempo, 912548
1, 30960, Tempo, 974976
1, 31080, Tempo, 979112
1, 31080, End_track
2, 0, Start_track
2, 0, MIDI_port, 0
2, 0, Title_t, "dougmck@pipeline.com.au"
2, 18, Control_c, 0, 64, 127
2, 20, Note_on_c, 0, 70, 67
2, 20, Note_on_c, 0, 39, 31
2, 21, Note_on_c, 0, 46, 32
2, 35, Note_on_c, 0, 39, 0
2, 36, Note_on_c, 0, 46, 0
2, 56, Note_on_c, 0, 70, 0
2, 82, Note_on_c, 0, 70, 64
2, 97, Note_on_c, 0, 70, 0
2, 115, Note_on_c, 0, 58, 32
2, 126, Note_on_c, 0, 58, 0
2, 194, Note_on_c, 0, 62, 76
2, 212, Note_on_c, 0, 62, 0
2, 240, Note_on_c, 0, 61, 71
2, 241, Note_on_c, 0, 58, 57
2, 244, Control_c, 0, 64, 0
2, 260, Note_on_c, 0, 52, 5
2, 268, Control_c, 0, 64, 127
2, 277, Note_on_c, 0, 52, 0
2, 296, Note_on_c, 0, 58, 0
2, 297, Note_on_c, 0, 61, 0
2, 355, Note_on_c, 0, 72, 77
2, 359, Note_on_c, 0, 64, 81
2, 360, Note_on_c, 0, 67, 64
2, 360, Note_on_c, 0, 70, 52
2, 361, Note_on_c, 0, 61, 73
2, 363, Note_on_c, 0, 60, 64
2, 366, Control_c, 0, 64, 0
2, 394, Control_c, 0, 64, 127
2, 421, Note_on_c, 0, 64, 0
2, 428, Note_on_c, 0, 67, 0
2, 429, Note_on_c, 0, 61, 0
2, 429, Note_on_c, 0, 60, 0
2, 438, Note_on_c, 0, 70, 0
2, 451, Note_on_c, 0, 72, 0
2, 483, Control_c, 0, 64, 0
2, 485, Note_on_c, 0, 63, 28
2, 486, Note_on_c, 0, 72, 43
2, 486, Note_on_c, 0, 68, 44
2, 486, Note_on_c, 0, 65, 52
2, 488, Note_on_c, 0, 60, 32
2, 488, Note_on_c, 0, 56, 32
2, 509, Control_c, 0, 64, 127
2, 515, Note_on_c, 0, 60, 0
2, 518, Note_on_c, 0, 63, 0
2, 524, Note_on_c, 0, 56, 0
2, 533, Note_on_c, 0, 72, 0
2, 536, Note_on_c, 0, 65, 0
2, 539, Note_on_c, 0, 68, 0
2, 599, Note_on_c, 0, 63, 27
2, 600, Note_on_c, 0, 41, 29
2, 600, Note_on_c, 0, 51, 21
2, 601, Note_on_c, 0, 60, 31
2, 620, Note_on_c, 0, 41, 0
2, 632, Note_on_c, 0, 51, 0
2, 645, Note_on_c, 0, 60, 0
2, 650, Note_on_c, 0, 63, 0
2, 677, Note_on_c, 0, 70, 57
2, 697, Note_on_c, 0, 70, 0
2, 718, Control_c, 0, 64, 0
2, 720, Note_on_c, 0, 62, 40
2, 720, Note_on_c, 0, 70, 37
2, 720, Note_on_c, 0, 58, 34
2, 720, Note_on_c, 0, 59, 44
2, 722, Note_on_c, 0, 65, 36
2, 726, Note_on_c, 0, 58, 0
2, 733, Control_c, 0, 64, 127
2, 792, Note_on_c, 0, 62, 0
2, 794, Note_on_c, 0, 59, 0
2, 832, Note_on_c, 0, 65, 0
2, 843, Note_on_c, 0, 70, 0
2, 847, Note_on_c, 0, 62, 26
2, 847, Note_on_c, 0, 59, 36
2, 854, Note_on_c, 0, 62, 0
2, 860, Note_on_c, 0, 59, 0
2, 925, Note_on_c, 0, 56, 39
2, 957, Note_on_c, 0, 56, 0
2, 969, Control_c, 0, 64, 0
2, 972, Note_on_c, 0, 51, 25
2, 973, Note_on_c, 0, 55, 38
2, 974, Note_on_c, 0, 43, 24
2, 989, Control_c, 0, 64, 127
2, 990, Note_on_c, 0, 55, 0
2, 998, Note_on_c, 0, 43, 0
2, 1004, Note_on_c, 0, 51, 0
2, 1045, Note_on_c, 0, 70, 71
2, 1081, Note_on_c, 0, 55, 32
2, 1094, Note_on_c, 0, 55, 0
2, 1112, Note_on_c, 0, 70, 0
2, 1124, Note_on_c, 0, 72, 68
2, 1144, Note_on_c, 0, 72, 0
2, 1160, Note_on_c, 0, 70, 60
2, 1192, Note_on_c, 0, 70, 0
2, 1196, Note_on_c, 0, 63, 31
2, 1200, Control_c, 0, 64, 0
2, 1200, Note_on_c, 0, 54, 36
2, 1201, Note_on_c, 0, 69, 54
2, 1202, Note_on_c, 0, 60, 27
2, 1203, Note_on_c, 0, 57, 41
2, 1220, Note_on_c, 0, 69, 0
2, 1221, Control_c, 0, 64, 127
2, 1238, Note_on_c, 0, 60, 0
2, 1240, Note_on_c, 0, 57, 0
2, 1241, Note_on_c, 0, 75, 75
2, 1245, Note_on_c, 0, 63, 0
2, 1258, Note_on_c, 0, 54, 0
2, 1267, Note_on_c, 0, 75, 0
2, 1322, Note_on_c, 0, 66, 46
2, 1323, Note_on_c, 0, 63, 34
2, 1324, Note_on_c, 0, 60, 31
2, 1337, Note_on_c, 0, 60, 0
2, 1352, Note_on_c, 0, 63, 0
2, 1353, Note_on_c, 0, 66, 0
2, 1363, Note_on_c, 0, 69, 59
2, 1374, Note_on_c, 0, 69, 0
2, 1404, Note_on_c, 0, 48, 39
2, 1448, Note_on_c, 0, 48, 0
2, 1450, Note_on_c, 0, 56, 33
2, 1450, Control_c, 0, 64, 0
2, 1452, Note_on_c, 0, 51, 25
2, 1452, Note_on_c, 0, 41, 34
2, 1469, Control_c, 0, 64, 127
2, 1474, Note_on_c, 0, 56, 0
2, 1475, Note_on_c, 0, 41, 0
2, 1489, Note_on_c, 0, 51, 0
2, 1525, Note_on_c, 0, 75, 84
2, 1547, Note_on_c, 0, 75, 0
2, 1565, Note_on_c, 0, 75, 77
2, 1567, Note_on_c, 0, 60, 34
2, 1567, Note_on_c, 0, 68, 56
2, 1568, Note_on_c, 0, 63, 37
2, 1569, Note_on_c, 0, 65, 36
2, 1570, Note_on_c, 0, 56, 31
2, 1570, Note_on_c, 0, 53, 31
2, 1603, Note_on_c, 0, 53, 0
2, 1607, Note_on_c, 0, 75, 0
2, 1616, Note_on_c, 0, 60, 0
2, 1617, Note_on_c, 0, 63, 0
2, 1622, Note_on_c, 0, 65, 0
2, 1624, Note_on_c, 0, 68, 0
2, 1625, Note_on_c, 0, 56, 0
2, 1640, Note_on_c, 0, 75, 78
2, 1658, Note_on_c, 0, 75, 0
2, 1686, Note_on_c, 0, 74, 69
2, 1687, Note_on_c, 0, 71, 66
2, 1689, Note_on_c, 0, 68, 66
2, 1689, Note_on_c, 0, 65, 55
2, 1695, Control_c, 0, 64, 0
2, 1727, Control_c, 0, 64, 127
2, 1752, Note_on_c, 0, 46, 63
2, 1753, Note_on_c, 0, 71, 0
2, 1755, Note_on_c, 0, 68, 0
2, 1757, Note_on_c, 0, 74, 0
2, 1761, Note_on_c, 0, 65, 0
2, 1809, Note_on_c, 0, 65, 62
2, 1811, Note_on_c, 0, 62, 62
2, 1814, Control_c, 0, 64, 0
2, 1814, Note_on_c, 0, 59, 43
2, 1814, Note_on_c, 0, 56, 31
2, 1832, Control_c, 0, 64, 127
2, 1849, Note_on_c, 0, 46, 0
2, 1866, Note_on_c, 0, 59, 0
2, 1868, Note_on_c, 0, 46, 61
2, 1869, Note_on_c, 0, 62, 0
2, 1873, Note_on_c, 0, 65, 0
2, 1883, Note_on_c, 0, 56, 0
2, 1884, Note_on_c, 0, 46, 0
2, 1926, Note_on_c, 0, 77, 82
2, 1926, Note_on_c, 0, 65, 68
2, 1927, Note_on_c, 0, 60, 58
2, 1927, Note_on_c, 0, 61, 62
2, 1928, Note_on_c, 0, 70, 83
2, 1928, Note_on_c, 0, 55, 67
2, 1933, Control_c, 0, 64, 0
2, 1959, Control_c, 0, 64, 127
2, 2002, Note_on_c, 0, 55, 0
2, 2014, Note_on_c, 0, 65, 0
2, 2026, Note_on_c, 0, 70, 0
2, 2027, Note_on_c, 0, 60, 0
2, 2029, Note_on_c, 0, 61, 0
2, 2030, Note_on_c, 0, 77, 0
2, 2048, Note_on_c, 0, 61, 38
2, 2048, Note_on_c, 0, 76, 55
2, 2049, Note_on_c, 0, 67, 33
2, 2049, Note_on_c, 0, 65, 33
2, 2051, Note_on_c, 0, 56, 31
2, 2054, Control_c, 0, 64, 0
2, 2076, Control_c, 0, 64, 127
2, 2105, Note_on_c, 0, 65, 0
2, 2116, Note_on_c, 0, 56, 0
2, 2122, Note_on_c, 0, 67, 0
2, 2123, Note_on_c, 0, 76, 0
2, 2124, Note_on_c, 0, 61, 0
2, 2163, Control_c, 0, 64, 0
2, 2164, Note_on_c, 0, 75, 51
2, 2168, Note_on_c, 0, 61, 23
2, 2168, Note_on_c, 0, 70, 34
2, 2170, Note_on_c, 0, 67, 29
2, 2171, Note_on_c, 0, 55, 28
2, 2173, Note_on_c, 0, 64, 13
2, 2176, Note_on_c, 0, 75, 0
2, 2177, Control_c, 0, 64, 127
2, 2190, Note_on_c, 0, 64, 0
2, 2195, Note_on_c, 0, 70, 0
2, 2196, Note_on_c, 0, 61, 0
2, 2198, Note_on_c, 0, 55, 0
2, 2199, Note_on_c, 0, 67, 0
2, 2244, Note_on_c, 0, 61, 25
2, 2245, Note_on_c, 0, 59, 35
2, 2245, Note_on_c, 0, 63, 42
2, 2246, Note_on_c, 0, 55, 35
2, 2246, Note_on_c, 0, 45, 32
2, 2252, Control_c, 0, 64, 0
2, 2278, Control_c, 0, 64, 127
2, 2350, Note_on_c, 0, 45, 0
2, 2352, Note_on_c, 0, 59, 0
2, 2361, Note_on_c, 0, 55, 0
2, 2392, Note_on_c, 0, 63, 0
2, 2392, Note_on_c, 0, 61, 0
2, 2409, Control_c, 0, 64, 0
2, 2412, Note_on_c, 0, 51, 32
2, 2413, Note_on_c, 0, 58, 33
2, 2413, Note_on_c, 0, 55, 34
2, 2414, Note_on_c, 0, 44, 29
2, 2429, Control_c, 0, 64, 127
2, 2435, Note_on_c, 0, 55, 0
2, 2438, Note_on_c, 0, 44, 0
2, 2443, Note_on_c, 0, 58, 0
2, 2443, Note_on_c, 0, 51, 0
2, 2485, Note_on_c, 0, 56, 39
2, 2486, Note_on_c, 0, 57, 58
2, 2489, Note_on_c, 0, 56, 0
2, 2489, Note_on_c, 0, 70, 77
2, 2490, Note_on_c, 0, 63, 75
2, 2490, Note_on_c, 0, 67, 69
2, 2492, Note_on_c, 0, 60, 79
2, 2493, Note_on_c, 0, 57, 0
2, 2493, Note_on_c, 0, 58, 80
2, 2493, Control_c, 0, 64, 0
2, 2501, Control_c, 0, 64, 127
2, 2522, Note_on_c, 0, 58, 0
2, 2522, Note_on_c, 0, 60, 0
2, 2523, Note_on_c, 0, 70, 0
2, 2524, Note_on_c, 0, 63, 0
2, 2528, Note_on_c, 0, 67, 0
2, 2534, Control_c, 0, 64, 0
2, 2536, Note_on_c, 0, 70, 55
2, 2536, Note_on_c, 0, 63, 56
2, 2536, Note_on_c, 0, 58, 62
2, 2537, Note_on_c, 0, 67, 55
2, 2537, Note_on_c, 0, 60, 66
2, 2557, Control_c, 0, 64, 127
2, 2576, Note_on_c, 0, 63, 0
2, 2577, Note_on_c, 0, 60, 0
2, 2578, Note_on_c, 0, 67, 0
2, 2585, Note_on_c, 0, 70, 0
2, 2590, Note_on_c, 0, 58, 0
2, 2608, Note_on_c, 0, 68, 50
2, 2608, Note_on_c, 0, 56, 33
2, 2609, Note_on_c, 0, 60, 33
2, 2610, Note_on_c, 0, 63, 36
2, 2622, Note_on_c, 0, 60, 0
2, 2624, Note_on_c, 0, 63, 0
2, 2625, Note_on_c, 0, 56, 0
2, 2630, Note_on_c, 0, 68, 0
2, 2653, Control_c, 0, 64, 0
2, 2653, Note_on_c, 0, 68, 42
2, 2654, Note_on_c, 0, 63, 33
2, 2654, Note_on_c, 0, 59, 37
2, 2654, Note_on_c, 0, 56, 35
2, 2658, Note_on_c, 0, 49, 26
2, 2672, Control_c, 0, 64, 127
2, 2715, Note_on_c, 0, 56, 0
2, 2718, Note_on_c, 0, 59, 0
2, 2722, Note_on_c, 0, 63, 0
2, 2756, Note_on_c, 0, 68, 0
2, 2765, Note_on_c, 0, 63, 35
2, 2766, Note_on_c, 0, 59, 37
2, 2786, Note_on_c, 0, 59, 0
2, 2787, Note_on_c, 0, 49, 0
2, 2790, Note_on_c, 0, 63, 0
2, 2808, Note_on_c, 0, 63, 55
2, 2831, Note_on_c, 0, 63, 0
2, 2840, Note_on_c, 0, 65, 54
2, 2857, Note_on_c, 0, 65, 0
2, 2882, Note_on_c, 0, 63, 39
2, 2883, Control_c, 0, 64, 0
2, 2883, Note_on_c, 0, 59, 33
2, 2883, Note_on_c, 0, 67, 35
2, 2883, Note_on_c, 0, 53, 39
2, 2908, Control_c, 0, 64, 127
2, 2932, Note_on_c, 0, 59, 0
2, 2955, Note_on_c, 0, 53, 0
2, 2963, Note_on_c, 0, 63, 0
2, 2972, Note_on_c, 0, 67, 0
2, 3003, Note_on_c, 0, 67, 49
2, 3003, Control_c, 0, 64, 0
2, 3004, Note_on_c, 0, 62, 44
2, 3004, Note_on_c, 0, 52, 39
2, 3004, Note_on_c, 0, 58, 29
2, 3025, Control_c, 0, 64, 127
2, 3062, Note_on_c, 0, 62, 0
2, 3069, Note_on_c, 0, 58, 0
2, 3078, Note_on_c, 0, 67, 0
2, 3111, Note_on_c, 0, 52, 0
2, 3114, Note_on_c, 0, 65, 55
2, 3116, Note_on_c, 0, 51, 39
2, 3116, Note_on_c, 0, 56, 31
2, 3116, Note_on_c, 0, 61, 42
2, 3116, Control_c, 0, 64, 0
2, 3139, Control_c, 0, 64, 127
2, 3173, Note_on_c, 0, 56, 0
2, 3179, Note_on_c, 0, 65, 0
2, 3191, Note_on_c, 0, 61, 0
2, 3195, Note_on_c, 0, 63, 33
2, 3216, Note_on_c, 0, 63, 0
2, 3222, Note_on_c, 0, 51, 0
2, 3237, Note_on_c, 0, 56, 29
2, 3238, Note_on_c, 0, 60, 48
2, 3238, Note_on_c, 0, 65, 53
2, 3239, Note_on_c, 0, 50, 40
2, 3239, Control_c, 0, 64, 0
2, 3264, Control_c, 0, 64, 127
2, 3320, Note_on_c, 0, 60, 0
2, 3326, Note_on_c, 0, 65, 0
2, 3335, Note_on_c, 0, 56, 0
2, 3361, Note_on_c, 0, 50, 0
2, 3363, Note_on_c, 0, 61, 55
2, 3364, Note_on_c, 0, 55, 49
2, 3366, Note_on_c, 0, 49, 33
2, 3366, Note_on_c, 0, 63, 29
2, 3371, Control_c, 0, 64, 0
2, 3397, Control_c, 0, 64, 127
2, 3425, Note_on_c, 0, 55, 0
2, 3440, Note_on_c, 0, 61, 0
2, 3456, Note_on_c, 0, 63, 0
2, 3469, Note_on_c, 0, 49, 0
2, 3483, Note_on_c, 0, 63, 40
2, 3484, Note_on_c, 0, 54, 32
2, 3486, Note_on_c, 0, 59, 54
2, 3487, Note_on_c, 0, 48, 33
2, 3487, Control_c, 0, 64, 0
2, 3513, Control_c, 0, 64, 127
2, 3525, Note_on_c, 0, 48, 0
2, 3544, Note_on_c, 0, 54, 0
2, 3549, Note_on_c, 0, 59, 0
2, 3558, Note_on_c, 0, 63, 0
2, 3561, Note_on_c, 0, 35, 42
2, 3575, Note_on_c, 0, 35, 0
2, 3605, Note_on_c, 0, 56, 46
2, 3606, Note_on_c, 0, 63, 51
2, 3607, Note_on_c, 0, 60, 57
2, 3608, Note_on_c, 0, 34, 48
2, 3610, Control_c, 0, 64, 0
2, 3613, Note_on_c, 0, 46, 28
2, 3630, Note_on_c, 0, 34, 0
2, 3635, Control_c, 0, 64, 127
2, 3639, Note_on_c, 0, 46, 0
2, 3640, Note_on_c, 0, 56, 0
2, 3642, Note_on_c, 0, 60, 0
2, 3649, Note_on_c, 0, 63, 0
2, 3720, Note_on_c, 0, 67, 46
2, 3722, Note_on_c, 0, 64, 42
2, 3722, Note_on_c, 0, 62, 46
2, 3723, Note_on_c, 0, 59, 47
2, 3724, Note_on_c, 0, 56, 34
2, 3726, Control_c, 0, 64, 0
2, 3742, Control_c, 0, 64, 127
2, 3746, Note_on_c, 0, 59, 0
2, 3752, Note_on_c, 0, 62, 0
2, 3754, Note_on_c, 0, 64, 0
2, 3755, Note_on_c, 0, 67, 0
2, 3755, Note_on_c, 0, 56, 0
2, 3798, Note_on_c, 0, 72, 69
2, 3822, Note_on_c, 0, 72, 0
2, 3837, Control_c, 0, 64, 0
2, 3839, Note_on_c, 0, 70, 50
2, 3840, Note_on_c, 0, 67, 42
2, 3840, Note_on_c, 0, 62, 36
2, 3841, Note_on_c, 0, 46, 31
2, 3841, Note_on_c, 0, 39, 31
2, 3847, Note_on_c, 0, 62, 0
2, 3852, Note_on_c, 0, 67, 0
2, 3857, Note_on_c, 0, 70, 0
2, 3857, Control_c, 0, 64, 127
2, 3875, Note_on_c, 0, 39, 0
2, 3882, Note_on_c, 0, 46, 0
2, 3882, Note_on_c, 0, 84, 71
2, 3904, Note_on_c, 0, 84, 0
2, 3919, Note_on_c, 0, 82, 49
2, 3922, Note_on_c, 0, 79, 33
2, 3925, Note_on_c, 0, 79, 0
2, 3937, Note_on_c, 0, 82, 0
2, 3961, Note_on_c, 0, 65, 35
2, 3963, Note_on_c, 0, 58, 31
2, 3964, Note_on_c, 0, 60, 32
2, 3965, Note_on_c, 0, 55, 34
2, 3991, Note_on_c, 0, 65, 0
2, 3993, Note_on_c, 0, 55, 0
2, 4000, Note_on_c, 0, 60, 0
2, 4001, Note_on_c, 0, 96, 87
2, 4006, Note_on_c, 0, 58, 0
2, 4027, Note_on_c, 0, 96, 0
2, 4038, Note_on_c, 0, 94, 71
2, 4075, Note_on_c, 0, 85, 53
2, 4076, Note_on_c, 0, 58, 28
2, 4077, Note_on_c, 0, 94, 0
2, 4077, Note_on_c, 0, 61, 32
2, 4079, Control_c, 0, 64, 0
2, 4079, Note_on_c, 0, 55, 45
2, 4081, Note_on_c, 0, 52, 35
2, 4097, Control_c, 0, 64, 127
2, 4101, Note_on_c, 0, 85, 0
2, 4117, Note_on_c, 0, 85, 49
2, 4123, Note_on_c, 0, 52, 0
2, 4126, Note_on_c, 0, 55, 0
2, 4129, Note_on_c, 0, 85, 0
2, 4134, Note_on_c, 0, 58, 0
2, 4136, Note_on_c, 0, 61, 0
2, 4158, Note_on_c, 0, 99, 59
2, 4163, Note_on_c, 0, 99, 0
2, 4196, Note_on_c, 0, 61, 35
2, 4198, Note_on_c, 0, 64, 34
2, 4198, Note_on_c, 0, 58, 30
2, 4203, Note_on_c, 0, 64, 0
2, 4207, Note_on_c, 0, 61, 0
2, 4209, Note_on_c, 0, 58, 0
2, 4276, Note_on_c, 0, 42, 33
2, 4297, Note_on_c, 0, 42, 0
2, 4322, Note_on_c, 0, 56, 30
2, 4322, Note_on_c, 0, 41, 42
2, 4325, Note_on_c, 0, 51, 21
2, 4326, Control_c, 0, 64, 0
2, 4348, Control_c, 0, 64, 127
2, 4350, Note_on_c, 0, 56, 0
2, 4355, Note_on_c, 0, 41, 0
2, 4366, Note_on_c, 0, 51, 0
2, 4406, Note_on_c, 0, 84, 92
2, 4430, Note_on_c, 0, 84, 0
2, 4444, Note_on_c, 0, 84, 89
2, 4447, Note_on_c, 0, 60, 47
2, 4449, Note_on_c, 0, 56, 42
2, 4451, Note_on_c, 0, 53, 24
2, 4456, Note_on_c, 0, 63, 10
2, 4466, Note_on_c, 0, 84, 0
2, 4481, Note_on_c, 0, 72, 53
2, 4483, Note_on_c, 0, 53, 0
2, 4485, Note_on_c, 0, 60, 0
2, 4497, Note_on_c, 0, 63, 0
2, 4497, Note_on_c, 0, 72, 0
2, 4505, Note_on_c, 0, 56, 0
2, 4518, Note_on_c, 0, 84, 79
2, 4534, Note_on_c, 0, 84, 0
2, 4560, Note_on_c, 0, 67, 33
2, 4561, Note_on_c, 0, 82, 65
2, 4561, Control_c, 0, 64, 0
2, 4562, Note_on_c, 0, 62, 32
2, 4563, Note_on_c, 0, 56, 23
2, 4566, Note_on_c, 0, 70, 43
2, 4581, Note_on_c, 0, 82, 0
2, 4583, Control_c, 0, 64, 127
2, 4587, Note_on_c, 0, 70, 0
2, 4600, Note_on_c, 0, 67, 0
2, 4602, Note_on_c, 0, 82, 59
2, 4605, Note_on_c, 0, 70, 36
2, 4606, Note_on_c, 0, 62, 0
2, 4617, Note_on_c, 0, 56, 0
2, 4623, Note_on_c, 0, 82, 0
2, 4628, Note_on_c, 0, 70, 0
2, 4681, Note_on_c, 0, 62, 52
2, 4684, Note_on_c, 0, 59, 43
2, 4686, Note_on_c, 0, 56, 19
2, 4696, Control_c, 0, 64, 0
2, 4702, Control_c, 0, 64, 127
2, 4722, Note_on_c, 0, 46, 56
2, 4762, Note_on_c, 0, 56, 0
2, 4764, Note_on_c, 0, 59, 0
2, 4770, Note_on_c, 0, 62, 0
2, 4800, Note_on_c, 0, 63, 48
2, 4801, Control_c, 0, 64, 0
2, 4801, Note_on_c, 0, 55, 48
2, 4802, Note_on_c, 0, 58, 35
2, 4825, Control_c, 0, 64, 127
2, 4832, Note_on_c, 0, 46, 0
2, 4848, Note_on_c, 0, 46, 71
2, 4858, Note_on_c, 0, 58, 0
2, 4867, Note_on_c, 0, 63, 0
2, 4883, Note_on_c, 0, 55, 0
2, 4924, Note_on_c, 0, 70, 73
2, 4927, Note_on_c, 0, 65, 71
2, 4927, Note_on_c, 0, 60, 67
2, 4927, Note_on_c, 0, 55, 39
2, 4942, Note_on_c, 0, 70, 0
2, 4943, Note_on_c, 0, 55, 0
2, 4954, Note_on_c, 0, 60, 0
2, 4963, Note_on_c, 0, 72, 72
2, 4984, Note_on_c, 0, 46, 0
2, 4987, Note_on_c, 0, 72, 0
2, 4993, Note_on_c, 0, 65, 0
2, 5000, Note_on_c, 0, 70, 65
2, 5000, Note_on_c, 0, 46, 34
2, 5013, Note_on_c, 0, 70, 0
2, 5033, Note_on_c, 0, 46, 0
2, 5036, Control_c, 0, 64, 0
2, 5041, Note_on_c, 0, 66, 35
2, 5041, Note_on_c, 0, 54, 49
2, 5041, Note_on_c, 0, 69, 48
2, 5042, Note_on_c, 0, 60, 42
2, 5042, Note_on_c, 0, 63, 33
2, 5051, Control_c, 0, 64, 127
2, 5052, Note_on_c, 0, 60, 0
2, 5053, Note_on_c, 0, 69, 0
2, 5055, Note_on_c, 0, 63, 0
2, 5055, Note_on_c, 0, 66, 0
2, 5059, Note_on_c, 0, 54, 0
2, 5084, Note_on_c, 0, 72, 55
2, 5085, Note_on_c, 0, 63, 57
2, 5086, Note_on_c, 0, 69, 57
2, 5086, Note_on_c, 0, 57, 58
2, 5086, Note_on_c, 0, 66, 59
2, 5086, Control_c, 0, 64, 0
2, 5097, Control_c, 0, 64, 127
2, 5126, Note_on_c, 0, 72, 0
2, 5127, Note_on_c, 0, 69, 0
2, 5128, Note_on_c, 0, 63, 0
2, 5131, Note_on_c, 0, 66, 0
2, 5139, Note_on_c, 0, 57, 0
2, 5154, Note_on_c, 0, 58, 37
2, 5160, Note_on_c, 0, 59, 52
2, 5161, Note_on_c, 0, 75, 56
2, 5163, Note_on_c, 0, 66, 44
2, 5164, Note_on_c, 0, 59, 0
2, 5164, Note_on_c, 0, 60, 58
2, 5164, Note_on_c, 0, 69, 53
2, 5164, Note_on_c, 0, 72, 49
2, 5164, Control_c, 0, 64, 0
2, 5167, Note_on_c, 0, 58, 0
2, 5175, Note_on_c, 0, 69, 0
2, 5175, Control_c, 0, 64, 127
2, 5176, Note_on_c, 0, 72, 0
2, 5178, Note_on_c, 0, 66, 0
2, 5181, Note_on_c, 0, 75, 0
2, 5203, Note_on_c, 0, 60, 0
2, 5204, Note_on_c, 0, 78, 55
2, 5206, Note_on_c, 0, 63, 40
2, 5207, Note_on_c, 0, 69, 44
2, 5207, Note_on_c, 0, 72, 51
2, 5208, Control_c, 0, 64, 0
2, 5217, Control_c, 0, 64, 127
2, 5235, Note_on_c, 0, 63, 0
2, 5240, Note_on_c, 0, 72, 0
2, 5241, Note_on_c, 0, 78, 0
2, 5243, Note_on_c, 0, 69, 0
2, 5278, Note_on_c, 0, 56, 37
2, 5282, Control_c, 0, 64, 0
2, 5283, Note_on_c, 0, 75, 43
2, 5283, Note_on_c, 0, 60, 38
2, 5284, Note_on_c, 0, 68, 32
2, 5287, Note_on_c, 0, 65, 27
2, 5287, Note_on_c, 0, 63, 9
2, 5304, Control_c, 0, 64, 127
2, 5315, Note_on_c, 0, 60, 0
2, 5324, Note_on_c, 0, 56, 0
2, 5330, Note_on_c, 0, 63, 0
2, 5337, Note_on_c, 0, 65, 0
2, 5343, Note_on_c, 0, 68, 0
2, 5363, Note_on_c, 0, 75, 0
2, 5397, Note_on_c, 0, 63, 32
2, 5398, Note_on_c, 0, 60, 35
2, 5398, Note_on_c, 0, 67, 24
2, 5400, Note_on_c, 0, 56, 23
2, 5411, Note_on_c, 0, 67, 0
2, 5413, Note_on_c, 0, 63, 0
2, 5416, Note_on_c, 0, 60, 0
2, 5417, Note_on_c, 0, 56, 0
2, 5417, Control_c, 0, 64, 0
2, 5442, Note_on_c, 0, 85, 60
2, 5442, Note_on_c, 0, 73, 48
2, 5468, Control_c, 0, 64, 127
2, 5471, Note_on_c, 0, 73, 0
2, 5471, Note_on_c, 0, 85, 0
2, 5478, Note_on_c, 0, 86, 54
2, 5480, Note_on_c, 0, 74, 20
2, 5502, Note_on_c, 0, 86, 0
2, 5505, Note_on_c, 0, 74, 0
2, 5510, Control_c, 0, 64, 0
2, 5518, Note_on_c, 0, 86, 33
2, 5518, Note_on_c, 0, 46, 36
2, 5518, Note_on_c, 0, 74, 44
2, 5533, Control_c, 0, 64, 127
2, 5541, Note_on_c, 0, 86, 0
2, 5543, Note_on_c, 0, 46, 0
2, 5547, Note_on_c, 0, 74, 0
2, 5558, Note_on_c, 0, 86, 45
2, 5560, Note_on_c, 0, 74, 39
2, 5561, Control_c, 0, 64, 0
2, 5566, Control_c, 0, 64, 127
2, 5571, Note_on_c, 0, 86, 0
2, 5573, Note_on_c, 0, 74, 0
2, 5595, Note_on_c, 0, 85, 56
2, 5595, Note_on_c, 0, 73, 42
2, 5610, Note_on_c, 0, 85, 0
2, 5611, Note_on_c, 0, 73, 0
2, 5621, Note_on_c, 0, 74, 59
2, 5622, Note_on_c, 0, 86, 54
2, 5628, Note_on_c, 0, 67, 32
2, 5628, Note_on_c, 0, 62, 35
2, 5630, Note_on_c, 0, 56, 25
2, 5630, Control_c, 0, 64, 0
2, 5631, Note_on_c, 0, 74, 0
2, 5635, Note_on_c, 0, 86, 0
2, 5655, Control_c, 0, 64, 127
2, 5658, Note_on_c, 0, 89, 77
2, 5658, Note_on_c, 0, 77, 67
2, 5675, Note_on_c, 0, 77, 0
2, 5677, Note_on_c, 0, 89, 0
2, 5687, Note_on_c, 0, 67, 0
2, 5688, Note_on_c, 0, 89, 54
2, 5690, Note_on_c, 0, 62, 0
2, 5690, Note_on_c, 0, 77, 53
2, 5704, Note_on_c, 0, 77, 0
2, 5705, Note_on_c, 0, 89, 0
2, 5709, Note_on_c, 0, 56, 0
2, 5723, Note_on_c, 0, 78, 38
2, 5725, Note_on_c, 0, 90, 42
2, 5742, Note_on_c, 0, 90, 0
2, 5743, Note_on_c, 0, 78, 0
2, 5756, Control_c, 0, 64, 0
2, 5756, Note_on_c, 0, 61, 36
2, 5756, Note_on_c, 0, 65, 24
2, 5759, Note_on_c, 0, 60, 28
2, 5762, Note_on_c, 0, 89, 28
2, 5763, Note_on_c, 0, 77, 28
2, 5766, Note_on_c, 0, 89, 0
2, 5776, Note_on_c, 0, 77, 0
2, 5779, Control_c, 0, 64, 127
2, 5848, Note_on_c, 0, 60, 0
2, 5876, Note_on_c, 0, 65, 0
2, 5889, Note_on_c, 0, 56, 57
2, 5893, Control_c, 0, 64, 0
2, 5905, Note_on_c, 0, 65, 14
2, 5912, Control_c, 0, 64, 127
2, 5939, Note_on_c, 0, 65, 0
2, 5963, Note_on_c, 0, 56, 0
2, 5991, Note_on_c, 0, 61, 0
2, 6001, Note_on_c, 0, 61, 29
2, 6003, Note_on_c, 0, 73, 33
2, 6003, Note_on_c, 0, 55, 35
2, 6004, Note_on_c, 0, 67, 22
2, 6004, Note_on_c, 0, 71, 38
2, 6006, Note_on_c, 0, 64, 19
2, 6019, Note_on_c, 0, 64, 0
2, 6023, Note_on_c, 0, 61, 0
2, 6025, Note_on_c, 0, 71, 0
2, 6027, Note_on_c, 0, 73, 0
2, 6028, Note_on_c, 0, 55, 0
2, 6033, Note_on_c, 0, 67, 0
2, 6082, Control_c, 0, 64, 0
2, 6082, Note_on_c, 0, 64, 40
2, 6083, Note_on_c, 0, 61, 34
2, 6083, Note_on_c, 0, 45, 38
2, 6083, Note_on_c, 0, 52, 45
2, 6083, Note_on_c, 0, 55, 40
2, 6083, Note_on_c, 0, 59, 51
2, 6110, Control_c, 0, 64, 127
2, 6187, Note_on_c, 0, 52, 0
2, 6194, Note_on_c, 0, 45, 0
2, 6197, Note_on_c, 0, 55, 0
2, 6198, Note_on_c, 0, 59, 0
2, 6210, Note_on_c, 0, 61, 0
2, 6231, Note_on_c, 0, 64, 0
2, 6257, Control_c, 0, 64, 0
2, 6258, Note_on_c, 0, 51, 31
2, 6258, Note_on_c, 0, 58, 33
2, 6258, Note_on_c, 0, 60, 31
2, 6259, Note_on_c, 0, 55, 35
2, 6260, Note_on_c, 0, 44, 28
2, 6272, Control_c, 0, 64, 127
2, 6276, Note_on_c, 0, 55, 0
2, 6278, Note_on_c, 0, 60, 0
2, 6278, Note_on_c, 0, 44, 0
2, 6282, Note_on_c, 0, 58, 0
2, 6282, Note_on_c, 0, 51, 0
2, 6320, Note_on_c, 0, 56, 46
2, 6325, Note_on_c, 0, 56, 0
2, 6325, Note_on_c, 0, 57, 62
2, 6328, Note_on_c, 0, 57, 0
2, 6330, Note_on_c, 0, 70, 68
2, 6331, Note_on_c, 0, 63, 67
2, 6331, Note_on_c, 0, 58, 61
2, 6331, Note_on_c, 0, 67, 60
2, 6332, Control_c, 0, 64, 0
2, 6332, Note_on_c, 0, 60, 71
2, 6354, Control_c, 0, 64, 127
2, 6360, Note_on_c, 0, 67, 0
2, 6363, Note_on_c, 0, 60, 0
2, 6366, Note_on_c, 0, 58, 0
2, 6366, Note_on_c, 0, 63, 0
2, 6371, Note_on_c, 0, 70, 0
2, 6374, Note_on_c, 0, 63, 26
2, 6374, Note_on_c, 0, 67, 31
2, 6375, Control_c, 0, 64, 0
2, 6375, Note_on_c, 0, 60, 45
2, 6377, Note_on_c, 0, 55, 46
2, 6394, Control_c, 0, 64, 127
2, 6398, Note_on_c, 0, 60, 0
2, 6400, Note_on_c, 0, 63, 0
2, 6404, Note_on_c, 0, 67, 0
2, 6409, Note_on_c, 0, 55, 0
2, 6412, Note_on_c, 0, 68, 42
2, 6412, Note_on_c, 0, 56, 35
2, 6427, Note_on_c, 0, 56, 0
2, 6429, Note_on_c, 0, 68, 0
2, 6447, Note_on_c, 0, 67, 56
2, 6447, Control_c, 0, 64, 0
2, 6448, Note_on_c, 0, 70, 52
2, 6448, Note_on_c, 0, 63, 53
2, 6448, Note_on_c, 0, 60, 60
2, 6448, Note_on_c, 0, 58, 35
2, 6452, Control_c, 0, 64, 127
2, 6467, Note_on_c, 0, 60, 0
2, 6470, Note_on_c, 0, 58, 0
2, 6472, Note_on_c, 0, 70, 0
2, 6473, Note_on_c, 0, 67, 0
2, 6477, Note_on_c, 0, 63, 0
2, 6490, Control_c, 0, 64, 0
2, 6493, Note_on_c, 0, 68, 35
2, 6506, Note_on_c, 0, 68, 0
2, 6520, Control_c, 0, 64, 127
2, 6522, Note_on_c, 0, 67, 40
2, 6536, Note_on_c, 0, 67, 0
2, 6559, Note_on_c, 0, 58, 52
2, 6559, Note_on_c, 0, 70, 64
2, 6560, Note_on_c, 0, 67, 51
2, 6560, Note_on_c, 0, 63, 46
2, 6561, Note_on_c, 0, 59, 41
2, 6583, Note_on_c, 0, 59, 0
2, 6584, Note_on_c, 0, 67, 0
2, 6585, Note_on_c, 0, 63, 0
2, 6587, Note_on_c, 0, 70, 0
2, 6592, Note_on_c, 0, 58, 0
2, 6600, Control_c, 0, 64, 0
2, 6600, Note_on_c, 0, 67, 51
2, 6603, Note_on_c, 0, 49, 31
2, 6619, Control_c, 0, 64, 127
2, 6629, Note_on_c, 0, 67, 0
2, 6639, Note_on_c, 0, 68, 53
2, 6659, Note_on_c, 0, 68, 0
2, 6677, Note_on_c, 0, 70, 57
2, 6678, Note_on_c, 0, 63, 42
2, 6691, Note_on_c, 0, 70, 0
2, 6696, Note_on_c, 0, 63, 0
2, 6701, Note_on_c, 0, 49, 0
2, 6756, Note_on_c, 0, 59, 58
2, 6757, Note_on_c, 0, 63, 44
2, 6757, Note_on_c, 0, 67, 51
2, 6762, Note_on_c, 0, 53, 42
2, 6764, Control_c, 0, 64, 0
2, 6782, Control_c, 0, 64, 127
2, 6790, Note_on_c, 0, 67, 0
2, 6792, Note_on_c, 0, 53, 0
2, 6796, Note_on_c, 0, 59, 0
2, 6802, Note_on_c, 0, 63, 0
2, 6836, Note_on_c, 0, 62, 47
2, 6837, Note_on_c, 0, 58, 32
2, 6837, Note_on_c, 0, 67, 35
2, 6840, Note_on_c, 0, 52, 32
2, 6840, Control_c, 0, 64, 0
2, 6857, Control_c, 0, 64, 127
2, 6872, Note_on_c, 0, 52, 0
2, 6878, Note_on_c, 0, 58, 0
2, 6883, Note_on_c, 0, 62, 0
2, 6890, Note_on_c, 0, 67, 0
2, 6900, Note_on_c, 0, 51, 44
2, 6911, Note_on_c, 0, 57, 43
2, 6915, Note_on_c, 0, 65, 47
2, 6917, Note_on_c, 0, 61, 43
2, 6927, Control_c, 0, 64, 0
2, 6945, Control_c, 0, 64, 127
2, 6969, Note_on_c, 0, 51, 0
2, 6974, Note_on_c, 0, 61, 0
2, 6975, Note_on_c, 0, 57, 0
2, 7019, Note_on_c, 0, 65, 0
2, 7029, Note_on_c, 0, 63, 46
2, 7054, Note_on_c, 0, 63, 0
2, 7077, Note_on_c, 0, 56, 35
2, 7077, Note_on_c, 0, 65, 49
2, 7080, Note_on_c, 0, 60, 33
2, 7083, Control_c, 0, 64, 0
2, 7107, Control_c, 0, 64, 127
2, 7154, Note_on_c, 0, 39, 29
2, 7155, Note_on_c, 0, 60, 0
2, 7161, Note_on_c, 0, 56, 0
2, 7166, Note_on_c, 0, 39, 0
2, 7191, Note_on_c, 0, 65, 0
2, 7193, Note_on_c, 0, 63, 48
2, 7197, Note_on_c, 0, 55, 36
2, 7197, Note_on_c, 0, 58, 36
2, 7200, Control_c, 0, 64, 0
2, 7202, Note_on_c, 0, 39, 29
2, 7223, Control_c, 0, 64, 127
2, 7233, Note_on_c, 0, 55, 0
2, 7240, Note_on_c, 0, 46, 53
2, 7244, Note_on_c, 0, 39, 0
2, 7245, Note_on_c, 0, 58, 0
2, 7255, Note_on_c, 0, 65, 13
2, 7278, Note_on_c, 0, 55, 80
2, 7288, Note_on_c, 0, 63, 0
2, 7303, Note_on_c, 0, 65, 0
2, 7315, Note_on_c, 0, 58, 73
2, 7338, Note_on_c, 0, 58, 0
2, 7350, Note_on_c, 0, 55, 0
2, 7356, Note_on_c, 0, 63, 64
2, 7358, Note_on_c, 0, 46, 0
2, 7382, Note_on_c, 0, 63, 0
2, 7396, Note_on_c, 0, 67, 67
2, 7405, Note_on_c, 0, 67, 0
2, 7437, Control_c, 0, 64, 0
2, 7440, Note_on_c, 0, 73, 62
2, 7441, Note_on_c, 0, 43, 40
2, 7441, Note_on_c, 0, 71, 66
2, 7441, Note_on_c, 0, 53, 33
2, 7455, Note_on_c, 0, 43, 0
2, 7455, Control_c, 0, 64, 127
2, 7459, Note_on_c, 0, 71, 0
2, 7464, Note_on_c, 0, 53, 0
2, 7470, Note_on_c, 0, 73, 0
2, 7477, Note_on_c, 0, 74, 66
2, 7484, Note_on_c, 0, 74, 0
2, 7518, Note_on_c, 0, 83, 89
2, 7521, Note_on_c, 0, 63, 50
2, 7522, Note_on_c, 0, 59, 51
2, 7536, Note_on_c, 0, 53, 22
2, 7555, Note_on_c, 0, 63, 0
2, 7556, Note_on_c, 0, 85, 44
2, 7557, Note_on_c, 0, 59, 0
2, 7559, Note_on_c, 0, 53, 0
2, 7563, Note_on_c, 0, 83, 0
2, 7570, Note_on_c, 0, 85, 0
2, 7593, Note_on_c, 0, 86, 76
2, 7610, Note_on_c, 0, 86, 0
2, 7632, Note_on_c, 0, 89, 76
2, 7661, Note_on_c, 0, 89, 0
2, 7672, Control_c, 0, 64, 0
2, 7672, Note_on_c, 0, 87, 61
2, 7674, Note_on_c, 0, 58, 25
2, 7674, Note_on_c, 0, 48, 40
2, 7690, Note_on_c, 0, 48, 0
2, 7693, Control_c, 0, 64, 127
2, 7702, Note_on_c, 0, 87, 0
2, 7706, Note_on_c, 0, 58, 0
2, 7759, Note_on_c, 0, 75, 44
2, 7801, Note_on_c, 0, 63, 36
2, 7803, Note_on_c, 0, 67, 32
2, 7807, Note_on_c, 0, 75, 0
2, 7813, Note_on_c, 0, 67, 0
2, 7825, Note_on_c, 0, 63, 0
2, 7844, Note_on_c, 0, 89, 65
2, 7863, Note_on_c, 0, 89, 0
2, 7881, Note_on_c, 0, 87, 51
2, 7894, Note_on_c, 0, 87, 0
2, 7925, Note_on_c, 0, 59, 26
2, 7925, Note_on_c, 0, 86, 64
2, 7926, Note_on_c, 0, 64, 28
2, 7928, Note_on_c, 0, 60, 24
2, 7928, Control_c, 0, 64, 0
2, 7930, Note_on_c, 0, 74, 55
2, 7954, Control_c, 0, 64, 127
2, 7966, Note_on_c, 0, 55, 36
2, 8008, Note_on_c, 0, 59, 0
2, 8009, Note_on_c, 0, 86, 0
2, 8010, Note_on_c, 0, 55, 0
2, 8012, Note_on_c, 0, 64, 0
2, 8014, Note_on_c, 0, 74, 0
2, 8016, Note_on_c, 0, 60, 0
2, 8046, Note_on_c, 0, 60, 34
2, 8046, Note_on_c, 0, 84, 45
2, 8046, Note_on_c, 0, 64, 36
2, 8048, Note_on_c, 0, 72, 35
2, 8048, Note_on_c, 0, 54, 26
2, 8053, Control_c, 0, 64, 0
2, 8067, Note_on_c, 0, 84, 0
2, 8069, Control_c, 0, 64, 127
2, 8078, Note_on_c, 0, 64, 0
2, 8079, Note_on_c, 0, 72, 0
2, 8080, Note_on_c, 0, 60, 0
2, 8088, Note_on_c, 0, 54, 0
2, 8129, Note_on_c, 0, 50, 41
2, 8136, Note_on_c, 0, 50, 0
2, 8172, Note_on_c, 0, 71, 32
2, 8172, Note_on_c, 0, 53, 39
2, 8172, Note_on_c, 0, 67, 34
2, 8172, Note_on_c, 0, 63, 35
2, 8173, Note_on_c, 0, 59, 38
2, 8174, Control_c, 0, 64, 0
2, 8174, Note_on_c, 0, 43, 34
2, 8189, Note_on_c, 0, 43, 0
2, 8193, Control_c, 0, 64, 127
2, 8200, Note_on_c, 0, 53, 0
2, 8215, Note_on_c, 0, 59, 0
2, 8223, Note_on_c, 0, 71, 0
2, 8224, Note_on_c, 0, 67, 0
2, 8225, Note_on_c, 0, 63, 0
2, 8362, Note_on_c, 0, 73, 56
2, 8381, Note_on_c, 0, 73, 0
2, 8402, Note_on_c, 0, 36, 44
2, 8404, Note_on_c, 0, 72, 44
2, 8405, Note_on_c, 0, 64, 40
2, 8407, Note_on_c, 0, 52, 37
2, 8408, Control_c, 0, 64, 0
2, 8428, Control_c, 0, 64, 127
2, 8434, Note_on_c, 0, 36, 0
2, 8449, Note_on_c, 0, 52, 0
2, 8455, Note_on_c, 0, 72, 0
2, 8464, Note_on_c, 0, 64, 0
2, 8523, Note_on_c, 0, 42, 36
2, 8526, Note_on_c, 0, 61, 40
2, 8526, Control_c, 0, 64, 0
2, 8526, Note_on_c, 0, 52, 29
2, 8527, Note_on_c, 0, 58, 29
2, 8545, Control_c, 0, 64, 127
2, 8546, Note_on_c, 0, 42, 0
2, 8548, Note_on_c, 0, 58, 0
2, 8549, Note_on_c, 0, 61, 0
2, 8553, Note_on_c, 0, 52, 0
2, 8598, Note_on_c, 0, 70, 55
2, 8599, Note_on_c, 0, 42, 50
2, 8599, Note_on_c, 0, 61, 42
2, 8602, Note_on_c, 0, 64, 34
2, 8609, Note_on_c, 0, 64, 0
2, 8619, Note_on_c, 0, 70, 0
2, 8621, Note_on_c, 0, 42, 0
2, 8624, Note_on_c, 0, 61, 0
2, 8641, Control_c, 0, 64, 0
2, 8641, Note_on_c, 0, 69, 48
2, 8642, Note_on_c, 0, 63, 38
2, 8643, Note_on_c, 0, 60, 39
2, 8643, Note_on_c, 0, 65, 39
2, 8643, Note_on_c, 0, 41, 35
2, 8644, Note_on_c, 0, 51, 27
2, 8659, Control_c, 0, 64, 127
2, 8663, Note_on_c, 0, 41, 0
2, 8673, Note_on_c, 0, 65, 0
2, 8675, Note_on_c, 0, 60, 0
2, 8677, Note_on_c, 0, 51, 0
2, 8684, Note_on_c, 0, 63, 0
2, 8689, Note_on_c, 0, 69, 0
2, 8832, Note_on_c, 0, 62, 68
2, 8832, Note_on_c, 0, 71, 71
2, 8832, Note_on_c, 0, 63, 49
2, 8833, Control_c, 0, 64, 0
2, 8837, Note_on_c, 0, 57, 38
2, 8842, Note_on_c, 0, 62, 0
2, 8842, Note_on_c, 0, 67, 54
2, 8846, Control_c, 0, 64, 127
2, 8852, Note_on_c, 0, 57, 0
2, 8854, Note_on_c, 0, 63, 0
2, 8855, Note_on_c, 0, 67, 0
2, 8863, Note_on_c, 0, 71, 0
2, 8888, Note_on_c, 0, 70, 46
2, 8890, Note_on_c, 0, 62, 33
2, 8891, Note_on_c, 0, 65, 52
2, 8891, Note_on_c, 0, 56, 50
2, 8891, Control_c, 0, 64, 0
2, 8910, Note_on_c, 0, 56, 0
2, 8912, Control_c, 0, 64, 127
2, 8944, Note_on_c, 0, 46, 72
2, 8946, Note_on_c, 0, 65, 0
2, 8946, Note_on_c, 0, 70, 0
2, 8952, Note_on_c, 0, 62, 0
2, 8972, Note_on_c, 0, 66, 23
2, 8987, Note_on_c, 0, 66, 0
2, 9006, Note_on_c, 0, 66, 34
2, 9007, Note_on_c, 0, 62, 30
2, 9007, Note_on_c, 0, 59, 35
2, 9034, Note_on_c, 0, 46, 0
2, 9066, Note_on_c, 0, 46, 54
2, 9069, Note_on_c, 0, 59, 0
2, 9071, Note_on_c, 0, 62, 0
2, 9072, Note_on_c, 0, 66, 0
2, 9103, Note_on_c, 0, 46, 0
2, 9127, Note_on_c, 0, 60, 54
2, 9128, Note_on_c, 0, 67, 41
2, 9130, Note_on_c, 0, 55, 37
2, 9136, Control_c, 0, 64, 0
2, 9156, Control_c, 0, 64, 127
2, 9157, Note_on_c, 0, 55, 0
2, 9160, Note_on_c, 0, 60, 0
2, 9160, Note_on_c, 0, 39, 55
2, 9165, Note_on_c, 0, 67, 0
2, 9185, Note_on_c, 0, 39, 0
2, 9189, Note_on_c, 0, 46, 52
2, 9191, Note_on_c, 0, 65, 61
2, 9193, Note_on_c, 0, 60, 50
2, 9209, Note_on_c, 0, 60, 0
2, 9215, Note_on_c, 0, 46, 0
2, 9217, Note_on_c, 0, 65, 0
2, 9219, Note_on_c, 0, 55, 56
2, 9220, Note_on_c, 0, 70, 61
2, 9227, Note_on_c, 0, 70, 0
2, 9234, Note_on_c, 0, 55, 0
2, 9249, Note_on_c, 0, 58, 46
2, 9281, Note_on_c, 0, 60, 62
2, 9309, Note_on_c, 0, 60, 0
2, 9314, Note_on_c, 0, 77, 81
2, 9317, Note_on_c, 0, 58, 0
2, 9335, Note_on_c, 0, 77, 0
2, 9345, Note_on_c, 0, 79, 74
2, 9365, Note_on_c, 0, 79, 0
2, 9376, Note_on_c, 0, 80, 48
2, 9377, Note_on_c, 0, 64, 44
2, 9378, Control_c, 0, 64, 0
2, 9379, Note_on_c, 0, 59, 46
2, 9380, Note_on_c, 0, 53, 26
2, 9386, Note_on_c, 0, 70, 11
2, 9389, Note_on_c, 0, 64, 0
2, 9391, Control_c, 0, 64, 127
2, 9395, Note_on_c, 0, 59, 0
2, 9396, Note_on_c, 0, 80, 0
2, 9400, Note_on_c, 0, 70, 0
2, 9400, Note_on_c, 0, 53, 0
2, 9419, Note_on_c, 0, 71, 34
2, 9430, Note_on_c, 0, 71, 0
2, 9481, Note_on_c, 0, 43, 46
2, 9491, Note_on_c, 0, 43, 0
2, 9600, Note_on_c, 0, 63, 38
2, 9602, Note_on_c, 0, 67, 47
2, 9603, Note_on_c, 0, 58, 34
2, 9603, Control_c, 0, 64, 0
2, 9603, Note_on_c, 0, 48, 44
2, 9621, Control_c, 0, 64, 127
2, 9628, Note_on_c, 0, 67, 0
2, 9629, Note_on_c, 0, 63, 0
2, 9632, Note_on_c, 0, 48, 0
2, 9643, Note_on_c, 0, 58, 0
2, 9678, Note_on_c, 0, 75, 74
2, 9692, Note_on_c, 0, 75, 0
2, 9705, Note_on_c, 0, 75, 75
2, 9723, Note_on_c, 0, 75, 0
2, 9726, Note_on_c, 0, 67, 33
2, 9727, Note_on_c, 0, 63, 33
2, 9728, Note_on_c, 0, 60, 32
2, 9744, Note_on_c, 0, 77, 81
2, 9757, Note_on_c, 0, 77, 0
2, 9774, Note_on_c, 0, 67, 0
2, 9774, Note_on_c, 0, 77, 88
2, 9786, Note_on_c, 0, 63, 0
2, 9788, Note_on_c, 0, 60, 0
2, 9790, Note_on_c, 0, 77, 0
2, 9803, Note_on_c, 0, 75, 76
2, 9817, Note_on_c, 0, 75, 0
2, 9828, Note_on_c, 0, 75, 55
2, 9845, Note_on_c, 0, 75, 0
2, 9854, Note_on_c, 0, 74, 69
2, 9857, Note_on_c, 0, 62, 29
2, 9857, Note_on_c, 0, 64, 37
2, 9858, Note_on_c, 0, 60, 32
2, 9858, Note_on_c, 0, 71, 40
2, 9860, Control_c, 0, 64, 0
2, 9862, Note_on_c, 0, 67, 26
2, 9879, Control_c, 0, 64, 127
2, 9881, Note_on_c, 0, 74, 0
2, 9890, Note_on_c, 0, 74, 68
2, 9896, Note_on_c, 0, 67, 0
2, 9900, Note_on_c, 0, 60, 0
2, 9902, Note_on_c, 0, 62, 0
2, 9902, Note_on_c, 0, 64, 0
2, 9903, Note_on_c, 0, 71, 0
2, 9919, Note_on_c, 0, 67, 49
2, 9930, Note_on_c, 0, 67, 0
2, 9943, Note_on_c, 0, 74, 0
2, 9948, Note_on_c, 0, 67, 54
2, 9955, Note_on_c, 0, 67, 0
2, 9975, Note_on_c, 0, 54, 32
2, 9976, Note_on_c, 0, 60, 24
2, 9977, Note_on_c, 0, 68, 32
2, 9978, Note_on_c, 0, 64, 24
2, 9982, Control_c, 0, 64, 0
2, 10004, Control_c, 0, 64, 127
2, 10005, Note_on_c, 0, 64, 0
2, 10013, Note_on_c, 0, 68, 0
2, 10014, Note_on_c, 0, 69, 60
2, 10018, Note_on_c, 0, 50, 32
2, 10040, Note_on_c, 0, 60, 0
2, 10045, Note_on_c, 0, 54, 0
2, 10045, Note_on_c, 0, 50, 0
2, 10048, Note_on_c, 0, 69, 0
2, 10094, Note_on_c, 0, 71, 41
2, 10094, Note_on_c, 0, 67, 32
2, 10095, Note_on_c, 0, 53, 31
2, 10095, Note_on_c, 0, 59, 38
2, 10095, Note_on_c, 0, 63, 32
2, 10096, Note_on_c, 0, 43, 25
2, 10097, Control_c, 0, 64, 0
2, 10114, Control_c, 0, 64, 127
2, 10126, Note_on_c, 0, 43, 0
2, 10133, Note_on_c, 0, 53, 0
2, 10133, Note_on_c, 0, 59, 0
2, 10142, Note_on_c, 0, 67, 0
2, 10148, Note_on_c, 0, 63, 0
2, 10152, Note_on_c, 0, 71, 0
2, 10198, Note_on_c, 0, 73, 52
2, 10201, Note_on_c, 0, 65, 37
2, 10202, Note_on_c, 0, 70, 43
2, 10203, Note_on_c, 0, 68, 36
2, 10203, Note_on_c, 0, 59, 26
2, 10207, Note_on_c, 0, 59, 0
2, 10272, Note_on_c, 0, 73, 0
2, 10279, Note_on_c, 0, 43, 34
2, 10282, Note_on_c, 0, 65, 0
2, 10283, Note_on_c, 0, 70, 0
2, 10286, Note_on_c, 0, 68, 0
2, 10322, Note_on_c, 0, 43, 0
2, 10325, Note_on_c, 0, 36, 34
2, 10328, Note_on_c, 0, 64, 31
2, 10328, Note_on_c, 0, 68, 33
2, 10329, Note_on_c, 0, 72, 39
2, 10329, Note_on_c, 0, 66, 36
2, 10330, Note_on_c, 0, 52, 37
2, 10330, Control_c, 0, 64, 0
2, 10334, Note_on_c, 0, 52, 0
2, 10351, Control_c, 0, 64, 127
2, 10357, Note_on_c, 0, 36, 0
2, 10389, Note_on_c, 0, 72, 0
2, 10396, Note_on_c, 0, 64, 0
2, 10398, Note_on_c, 0, 68, 0
2, 10400, Note_on_c, 0, 66, 0
2, 10447, Note_on_c, 0, 70, 50
2, 10448, Note_on_c, 0, 54, 40
2, 10449, Note_on_c, 0, 64, 44
2, 10449, Note_on_c, 0, 66, 42
2, 10450, Note_on_c, 0, 61, 28
2, 10458, Note_on_c, 0, 54, 0
2, 10500, Note_on_c, 0, 64, 0
2, 10507, Note_on_c, 0, 61, 0
2, 10510, Note_on_c, 0, 70, 0
2, 10523, Note_on_c, 0, 66, 0
2, 10524, Note_on_c, 0, 42, 34
2, 10543, Note_on_c, 0, 42, 0
2, 10566, Note_on_c, 0, 51, 28
2, 10566, Note_on_c, 0, 63, 34
2, 10566, Note_on_c, 0, 69, 34
2, 10567, Control_c, 0, 64, 0
2, 10567, Note_on_c, 0, 65, 30
2, 10568, Note_on_c, 0, 41, 32
2, 10568, Note_on_c, 0, 57, 26
2, 10581, Control_c, 0, 64, 127
2, 10597, Note_on_c, 0, 41, 0
2, 10599, Note_on_c, 0, 57, 0
2, 10610, Note_on_c, 0, 51, 0
2, 10612, Note_on_c, 0, 65, 0
2, 10626, Note_on_c, 0, 69, 0
2, 10626, Note_on_c, 0, 63, 0
2, 10684, Note_on_c, 0, 71, 72
2, 10685, Note_on_c, 0, 67, 67
2, 10686, Note_on_c, 0, 62, 65
2, 10686, Note_on_c, 0, 57, 53
2, 10687, Note_on_c, 0, 51, 51
2, 10690, Control_c, 0, 64, 0
2, 10711, Control_c, 0, 64, 127
2, 10768, Note_on_c, 0, 62, 0
2, 10770, Note_on_c, 0, 57, 0
2, 10773, Note_on_c, 0, 67, 0
2, 10781, Note_on_c, 0, 71, 0
2, 10794, Note_on_c, 0, 51, 0
2, 10811, Note_on_c, 0, 70, 38
2, 10813, Note_on_c, 0, 66, 42
2, 10813, Note_on_c, 0, 56, 49
2, 10814, Note_on_c, 0, 62, 32
2, 10822, Control_c, 0, 64, 0
2, 10845, Control_c, 0, 64, 127
2, 10855, Note_on_c, 0, 46, 68
2, 10891, Note_on_c, 0, 62, 0
2, 10894, Note_on_c, 0, 66, 0
2, 10895, Note_on_c, 0, 70, 0
2, 10928, Note_on_c, 0, 77, 80
2, 10929, Note_on_c, 0, 71, 80
2, 10945, Note_on_c, 0, 46, 0
2, 10975, Note_on_c, 0, 46, 49
2, 10990, Note_on_c, 0, 77, 0
2, 11001, Note_on_c, 0, 71, 0
2, 11011, Note_on_c, 0, 56, 0
2, 11026, Note_on_c, 0, 46, 0
2, 11099, Note_on_c, 0, 70, 52
2, 11099, Note_on_c, 0, 67, 54
2, 11100, Note_on_c, 0, 63, 53
2, 11102, Note_on_c, 0, 59, 54
2, 11102, Note_on_c, 0, 53, 36
2, 11103, Note_on_c, 0, 43, 31
2, 11106, Control_c, 0, 64, 0
2, 11121, Note_on_c, 0, 43, 0
2, 11125, Control_c, 0, 64, 127
2, 11127, Note_on_c, 0, 53, 0
2, 11132, Note_on_c, 0, 59, 0
2, 11139, Note_on_c, 0, 63, 0
2, 11140, Note_on_c, 0, 67, 0
2, 11145, Note_on_c, 0, 70, 0
2, 11169, Note_on_c, 0, 36, 55
2, 11170, Control_c, 0, 64, 0
2, 11173, Note_on_c, 0, 36, 0
2, 11178, Control_c, 0, 64, 127
2, 11212, Note_on_c, 0, 75, 60
2, 11213, Note_on_c, 0, 68, 56
2, 11213, Note_on_c, 0, 72, 63
2, 11214, Note_on_c, 0, 64, 55
2, 11216, Note_on_c, 0, 58, 32
2, 11220, Control_c, 0, 64, 0
2, 11228, Control_c, 0, 64, 127
2, 11239, Note_on_c, 0, 64, 0
2, 11247, Note_on_c, 0, 72, 0
2, 11247, Note_on_c, 0, 68, 0
2, 11250, Note_on_c, 0, 58, 0
2, 11253, Note_on_c, 0, 75, 0
2, 11288, Note_on_c, 0, 79, 64
2, 11289, Note_on_c, 0, 75, 56
2, 11291, Note_on_c, 0, 63, 40
2, 11292, Note_on_c, 0, 72, 43
2, 11292, Note_on_c, 0, 69, 40
2, 11293, Control_c, 0, 64, 0
2, 11305, Control_c, 0, 64, 127
2, 11343, Note_on_c, 0, 69, 0
2, 11346, Note_on_c, 0, 72, 0
2, 11348, Note_on_c, 0, 63, 0
2, 11350, Note_on_c, 0, 79, 0
2, 11357, Note_on_c, 0, 75, 0
2, 11416, Note_on_c, 0, 82, 64
2, 11416, Note_on_c, 0, 67, 55
2, 11416, Note_on_c, 0, 73, 58
2, 11416, Note_on_c, 0, 62, 54
2, 11417, Note_on_c, 0, 78, 65
2, 11420, Note_on_c, 0, 56, 47
2, 11426, Control_c, 0, 64, 0
2, 11445, Control_c, 0, 64, 127
2, 11471, Note_on_c, 0, 62, 0
2, 11472, Note_on_c, 0, 67, 0
2, 11485, Note_on_c, 0, 56, 0
2, 11487, Note_on_c, 0, 73, 0
2, 11503, Note_on_c, 0, 82, 0
2, 11510, Note_on_c, 0, 78, 0
2, 11532, Note_on_c, 0, 77, 40
2, 11533, Note_on_c, 0, 55, 25
2, 11533, Control_c, 0, 64, 0
2, 11533, Note_on_c, 0, 65, 31
2, 11535, Note_on_c, 0, 72, 27
2, 11535, Note_on_c, 0, 74, 28
2, 11536, Note_on_c, 0, 62, 18
2, 11548, Note_on_c, 0, 65, 0
2, 11549, Note_on_c, 0, 55, 0
2, 11549, Note_on_c, 0, 62, 0
2, 11549, Control_c, 0, 64, 127
2, 11552, Note_on_c, 0, 74, 0
2, 11552, Note_on_c, 0, 72, 0
2, 11558, Note_on_c, 0, 77, 0
2, 11604, Note_on_c, 0, 82, 69
2, 11621, Note_on_c, 0, 82, 0
2, 11633, Note_on_c, 0, 82, 76
2, 11650, Note_on_c, 0, 82, 0
2, 11653, Note_on_c, 0, 39, 40
2, 11653, Note_on_c, 0, 46, 36
2, 11668, Note_on_c, 0, 46, 0
2, 11668, Note_on_c, 0, 39, 0
2, 11698, Note_on_c, 0, 75, 50
2, 11710, Note_on_c, 0, 75, 0
2, 11728, Note_on_c, 0, 74, 61
2, 11754, Note_on_c, 0, 74, 0
2, 11759, Control_c, 0, 64, 0
2, 11763, Note_on_c, 0, 61, 34
2, 11763, Note_on_c, 0, 64, 36
2, 11765, Note_on_c, 0, 58, 31
2, 11765, Note_on_c, 0, 73, 42
2, 11773, Note_on_c, 0, 73, 0
2, 11776, Control_c, 0, 64, 127
2, 11801, Note_on_c, 0, 64, 0
2, 11807, Note_on_c, 0, 61, 0
2, 11807, Note_on_c, 0, 84, 64
2, 11809, Note_on_c, 0, 58, 0
2, 11809, Note_on_c, 0, 72, 47
2, 11844, Note_on_c, 0, 72, 0
2, 11847, Note_on_c, 0, 84, 0
2, 11883, Note_on_c, 0, 61, 35
2, 11885, Note_on_c, 0, 58, 35
2, 11887, Note_on_c, 0, 52, 36
2, 11888, Note_on_c, 0, 55, 42
2, 11955, Note_on_c, 0, 52, 0
2, 11956, Note_on_c, 0, 55, 0
2, 11961, Note_on_c, 0, 91, 79
2, 11962, Note_on_c, 0, 84, 74
2, 11962, Note_on_c, 0, 87, 56
2, 11963, Note_on_c, 0, 79, 67
2, 11968, Note_on_c, 0, 58, 0
2, 11969, Note_on_c, 0, 61, 0
2, 11993, Note_on_c, 0, 79, 0
2, 11994, Note_on_c, 0, 91, 0
2, 11997, Note_on_c, 0, 84, 0
2, 12000, Note_on_c, 0, 87, 0
2, 12005, Note_on_c, 0, 91, 58
2, 12006, Note_on_c, 0, 60, 39
2, 12006, Note_on_c, 0, 79, 47
2, 12006, Note_on_c, 0, 87, 35
2, 12006, Note_on_c, 0, 53, 37
2, 12007, Note_on_c, 0, 63, 25
2, 12007, Note_on_c, 0, 84, 57
2, 12008, Control_c, 0, 64, 0
2, 12008, Note_on_c, 0, 56, 35
2, 12026, Control_c, 0, 64, 127
2, 12047, Note_on_c, 0, 53, 0
2, 12052, Note_on_c, 0, 60, 0
2, 12057, Note_on_c, 0, 91, 0
2, 12058, Note_on_c, 0, 79, 0
2, 12060, Note_on_c, 0, 84, 0
2, 12061, Note_on_c, 0, 63, 0
2, 12064, Note_on_c, 0, 56, 0
2, 12067, Note_on_c, 0, 87, 0
2, 12080, Note_on_c, 0, 89, 59
2, 12083, Note_on_c, 0, 77, 40
2, 12083, Note_on_c, 0, 84, 51
2, 12097, Note_on_c, 0, 84, 0
2, 12102, Note_on_c, 0, 77, 0
2, 12103, Note_on_c, 0, 89, 0
2, 12122, Note_on_c, 0, 63, 32
2, 12122, Control_c, 0, 64, 0
2, 12123, Note_on_c, 0, 89, 46
2, 12123, Note_on_c, 0, 60, 42
2, 12125, Note_on_c, 0, 77, 30
2, 12125, Note_on_c, 0, 56, 28
2, 12129, Note_on_c, 0, 84, 24
2, 12130, Note_on_c, 0, 89, 0
2, 12132, Note_on_c, 0, 77, 0
2, 12132, Note_on_c, 0, 84, 0
2, 12138, Note_on_c, 0, 60, 0
2, 12139, Note_on_c, 0, 56, 0
2, 12139, Note_on_c, 0, 63, 0
2, 12146, Control_c, 0, 64, 127
2, 12194, Note_on_c, 0, 87, 51
2, 12198, Note_on_c, 0, 75, 35
2, 12200, Note_on_c, 0, 82, 37
2, 12207, Note_on_c, 0, 87, 0
2, 12210, Note_on_c, 0, 82, 0
2, 12210, Note_on_c, 0, 75, 0
2, 12231, Note_on_c, 0, 85, 31
2, 12232, Note_on_c, 0, 34, 46
2, 12233, Note_on_c, 0, 46, 34
2, 12234, Note_on_c, 0, 73, 39
2, 12236, Control_c, 0, 64, 0
2, 12242, Note_on_c, 0, 85, 0
2, 12243, Note_on_c, 0, 34, 0
2, 12243, Note_on_c, 0, 46, 0
2, 12245, Note_on_c, 0, 73, 0
2, 12251, Note_on_c, 0, 74, 57
2, 12263, Note_on_c, 0, 74, 0
2, 12265, Note_on_c, 0, 86, 53
2, 12278, Note_on_c, 0, 86, 0
2, 12279, Note_on_c, 0, 74, 55
2, 12289, Note_on_c, 0, 74, 0
2, 12313, Control_c, 0, 64, 127
2, 12362, Control_c, 0, 64, 0
2, 12364, Note_on_c, 0, 67, 33
2, 12364, Note_on_c, 0, 62, 35
2, 12365, Note_on_c, 0, 56, 29
2, 12373, Control_c, 0, 64, 127
2, 12417, Note_on_c, 0, 62, 0
2, 12419, Note_on_c, 0, 67, 0
2, 12432, Note_on_c, 0, 56, 0
2, 12484, Note_on_c, 0, 63, 52
2, 12487, Note_on_c, 0, 67, 34
2, 12487, Note_on_c, 0, 70, 47
2, 12488, Control_c, 0, 64, 0
2, 12489, Note_on_c, 0, 55, 48
2, 12506, Control_c, 0, 64, 127
2, 12519, Note_on_c, 0, 63, 0
2, 12523, Note_on_c, 0, 55, 0
2, 12527, Note_on_c, 0, 70, 0
2, 12530, Note_on_c, 0, 67, 0
2, 12605, Control_c, 0, 64, 0
2, 12606, Note_on_c, 0, 70, 52
2, 12606, Note_on_c, 0, 55, 47
2, 12607, Note_on_c, 0, 61, 44
2, 12607, Note_on_c, 0, 67, 46
2, 12609, Note_on_c, 0, 63, 34
2, 12617, Control_c, 0, 64, 127
2, 12624, Note_on_c, 0, 70, 0
2, 12629, Note_on_c, 0, 63, 0
2, 12633, Note_on_c, 0, 61, 0
2, 12634, Note_on_c, 0, 67, 0
2, 12637, Note_on_c, 0, 55, 0
2, 12647, Note_on_c, 0, 72, 68
2, 12647, Note_on_c, 0, 55, 36
2, 12648, Note_on_c, 0, 63, 65
2, 12667, Note_on_c, 0, 72, 0
2, 12668, Note_on_c, 0, 63, 0
2, 12673, Note_on_c, 0, 55, 0
2, 12680, Note_on_c, 0, 70, 49
2, 12681, Note_on_c, 0, 61, 55
2, 12683, Note_on_c, 0, 55, 50
2, 12684, Note_on_c, 0, 63, 51
2, 12688, Note_on_c, 0, 63, 0
2, 12692, Note_on_c, 0, 70, 0
2, 12696, Note_on_c, 0, 61, 0
2, 12715, Control_c, 0, 64, 0
2, 12717, Note_on_c, 0, 55, 0
2, 12720, Note_on_c, 0, 69, 50
2, 12720, Note_on_c, 0, 66, 42
2, 12720, Note_on_c, 0, 63, 42
2, 12722, Note_on_c, 0, 54, 46
2, 12722, Note_on_c, 0, 60, 33
2, 12726, Note_on_c, 0, 60, 0
2, 12726, Note_on_c, 0, 69, 0
2, 12728, Control_c, 0, 64, 127
2, 12729, Note_on_c, 0, 66, 0
2, 12729, Note_on_c, 0, 63, 0
2, 12762, Note_on_c, 0, 54, 0
2, 12766, Note_on_c, 0, 57, 66
2, 12790, Note_on_c, 0, 57, 0
2, 12799, Note_on_c, 0, 60, 67
2, 12803, Note_on_c, 0, 66, 64
2, 12803, Note_on_c, 0, 75, 59
2, 12804, Note_on_c, 0, 69, 70
2, 12804, Note_on_c, 0, 72, 62
2, 12804, Control_c, 0, 64, 0
2, 12818, Control_c, 0, 64, 127
2, 12862, Note_on_c, 0, 72, 0
2, 12863, Note_on_c, 0, 66, 0
2, 12864, Note_on_c, 0, 69, 0
2, 12884, Note_on_c, 0, 66, 50
2, 12884, Note_on_c, 0, 69, 54
2, 12884, Note_on_c, 0, 63, 34
2, 12885, Note_on_c, 0, 60, 0
2, 12902, Note_on_c, 0, 69, 0
2, 12902, Note_on_c, 0, 66, 0
2, 12907, Note_on_c, 0, 63, 0
2, 12916, Note_on_c, 0, 75, 0
2, 12920, Note_on_c, 0, 60, 38
2, 12943, Note_on_c, 0, 60, 0
2, 12952, Control_c, 0, 64, 0
2, 12955, Note_on_c, 0, 68, 48
2, 12956, Note_on_c, 0, 60, 30
2, 12957, Note_on_c, 0, 65, 39
2, 12959, Note_on_c, 0, 56, 37
2, 12960, Note_on_c, 0, 68, 0
2, 12962, Note_on_c, 0, 65, 0
2, 12963, Note_on_c, 0, 60, 0
2, 12964, Control_c, 0, 64, 127
2, 12970, Note_on_c, 0, 56, 0
2, 12998, Note_on_c, 0, 41, 60
2, 13045, Note_on_c, 0, 41, 0
2, 13081, Note_on_c, 0, 56, 36
2, 13083, Note_on_c, 0, 63, 39
2, 13083, Note_on_c, 0, 60, 53
2, 13098, Note_on_c, 0, 56, 0
2, 13119, Note_on_c, 0, 60, 0
2, 13123, Note_on_c, 0, 58, 78
2, 13132, Note_on_c, 0, 63, 0
2, 13200, Note_on_c, 0, 58, 0
2, 13203, Note_on_c, 0, 62, 48
2, 13204, Note_on_c, 0, 59, 54
2, 13241, Note_on_c, 0, 34, 62
2, 13242, Note_on_c, 0, 59, 0
2, 13242, Control_c, 0, 64, 0
2, 13245, Note_on_c, 0, 62, 0
2, 13249, Control_c, 0, 64, 127
2, 13253, Note_on_c, 0, 34, 0
2, 13327, Note_on_c, 0, 79, 83
2, 13328, Note_on_c, 0, 76, 85
2, 13329, Note_on_c, 0, 74, 79
2, 13331, Note_on_c, 0, 71, 76
2, 13333, Note_on_c, 0, 67, 50
2, 13338, Control_c, 0, 64, 0
2, 13345, Control_c, 0, 64, 127
2, 13397, Note_on_c, 0, 67, 0
2, 13406, Note_on_c, 0, 76, 0
2, 13414, Note_on_c, 0, 74, 0
2, 13414, Note_on_c, 0, 77, 52
2, 13416, Note_on_c, 0, 71, 0
2, 13430, Note_on_c, 0, 79, 0
2, 13453, Note_on_c, 0, 65, 30
2, 13453, Note_on_c, 0, 60, 18
2, 13454, Note_on_c, 0, 61, 42
2, 13454, Note_on_c, 0, 67, 34
2, 13455, Note_on_c, 0, 70, 38
2, 13459, Control_c, 0, 64, 0
2, 13472, Note_on_c, 0, 77, 0
2, 13474, Control_c, 0, 64, 127
2, 13487, Note_on_c, 0, 60, 0
2, 13496, Note_on_c, 0, 67, 0
2, 13501, Note_on_c, 0, 57, 60
2, 13503, Note_on_c, 0, 70, 0
2, 13543, Note_on_c, 0, 65, 0
2, 13558, Note_on_c, 0, 57, 0
2, 13569, Note_on_c, 0, 65, 54
2, 13571, Note_on_c, 0, 56, 52
2, 13576, Control_c, 0, 64, 0
2, 13595, Control_c, 0, 64, 127
2, 13633, Note_on_c, 0, 56, 0
2, 13642, Note_on_c, 0, 65, 0
2, 13643, Note_on_c, 0, 72, 38
2, 13649, Note_on_c, 0, 72, 0
2, 13652, Note_on_c, 0, 73, 52
2, 13657, Note_on_c, 0, 73, 0
2, 13660, Note_on_c, 0, 72, 43
2, 13661, Note_on_c, 0, 61, 0
2, 13674, Note_on_c, 0, 72, 0
2, 13680, Note_on_c, 0, 69, 57
2, 13690, Note_on_c, 0, 69, 0
2, 13692, Control_c, 0, 64, 0
2, 13693, Note_on_c, 0, 61, 42
2, 13694, Note_on_c, 0, 65, 45
2, 13697, Note_on_c, 0, 65, 0
2, 13697, Note_on_c, 0, 70, 64
2, 13697, Note_on_c, 0, 55, 25
2, 13702, Note_on_c, 0, 61, 0
2, 13704, Note_on_c, 0, 55, 0
2, 13709, Note_on_c, 0, 70, 0
2, 13718, Note_on_c, 0, 72, 59
2, 13729, Note_on_c, 0, 72, 0
2, 13742, Note_on_c, 0, 73, 59
2, 13748, Control_c, 0, 64, 127
2, 13756, Note_on_c, 0, 73, 0
2, 13767, Note_on_c, 0, 75, 60
2, 13784, Note_on_c, 0, 75, 0
2, 13798, Control_c, 0, 64, 0
2, 13799, Note_on_c, 0, 45, 30
2, 13800, Note_on_c, 0, 77, 36
2, 13800, Note_on_c, 0, 33, 31
2, 13819, Control_c, 0, 64, 127
2, 13823, Note_on_c, 0, 77, 0
2, 13830, Note_on_c, 0, 80, 44
2, 13844, Note_on_c, 0, 45, 0
2, 13845, Note_on_c, 0, 80, 0
2, 13848, Note_on_c, 0, 33, 0
2, 13888, Note_on_c, 0, 84, 80
2, 13905, Note_on_c, 0, 84, 0
2, 13918, Note_on_c, 0, 32, 50
2, 13920, Note_on_c, 0, 82, 68
2, 13920, Control_c, 0, 64, 0
2, 13920, Note_on_c, 0, 44, 33
2, 13935, Control_c, 0, 64, 127
2, 13937, Note_on_c, 0, 32, 0
2, 13945, Note_on_c, 0, 44, 0
2, 13954, Note_on_c, 0, 82, 0
2, 13954, Note_on_c, 0, 72, 51
2, 13961, Note_on_c, 0, 72, 0
2, 13991, Note_on_c, 0, 72, 64
2, 14003, Note_on_c, 0, 72, 0
2, 14020, Note_on_c, 0, 75, 75
2, 14037, Note_on_c, 0, 75, 0
2, 14043, Note_on_c, 0, 63, 33
2, 14049, Note_on_c, 0, 56, 35
2, 14049, Note_on_c, 0, 75, 64
2, 14050, Note_on_c, 0, 60, 26
2, 14055, Note_on_c, 0, 60, 0
2, 14059, Note_on_c, 0, 63, 0
2, 14071, Note_on_c, 0, 75, 0
2, 14079, Note_on_c, 0, 67, 48
2, 14085, Note_on_c, 0, 56, 0
2, 14087, Note_on_c, 0, 67, 0
2, 14108, Note_on_c, 0, 67, 54
2, 14115, Note_on_c, 0, 67, 0
2, 14137, Note_on_c, 0, 70, 60
2, 14138, Note_on_c, 0, 63, 57
2, 14152, Note_on_c, 0, 70, 0
2, 14154, Note_on_c, 0, 63, 0
2, 14167, Note_on_c, 0, 70, 62
2, 14168, Note_on_c, 0, 63, 51
2, 14169, Note_on_c, 0, 59, 46
2, 14171, Note_on_c, 0, 49, 23
2, 14180, Control_c, 0, 64, 0
2, 14183, Note_on_c, 0, 59, 0
2, 14188, Note_on_c, 0, 63, 0
2, 14191, Note_on_c, 0, 70, 0
2, 14196, Note_on_c, 0, 68, 42
2, 14200, Note_on_c, 0, 63, 32
2, 14201, Note_on_c, 0, 59, 17
2, 14203, Control_c, 0, 64, 127
2, 14210, Note_on_c, 0, 59, 0
2, 14211, Note_on_c, 0, 63, 0
2, 14215, Note_on_c, 0, 68, 0
2, 14225, Note_on_c, 0, 68, 46
2, 14229, Note_on_c, 0, 59, 36
2, 14230, Note_on_c, 0, 63, 35
2, 14239, Note_on_c, 0, 63, 0
2, 14240, Note_on_c, 0, 59, 0
2, 14241, Note_on_c, 0, 68, 0
2, 14250, Note_on_c, 0, 63, 34
2, 14254, Note_on_c, 0, 59, 30
2, 14260, Note_on_c, 0, 59, 0
2, 14265, Note_on_c, 0, 63, 0
2, 14285, Note_on_c, 0, 63, 52
2, 14286, Note_on_c, 0, 58, 37
2, 14286, Note_on_c, 0, 59, 51
2, 14295, Note_on_c, 0, 59, 0
2, 14297, Note_on_c, 0, 58, 0
2, 14298, Note_on_c, 0, 63, 0
2, 14316, Note_on_c, 0, 63, 51
2, 14318, Note_on_c, 0, 49, 0
2, 14335, Note_on_c, 0, 63, 0
2, 14345, Note_on_c, 0, 65, 36
2, 14352, Note_on_c, 0, 65, 0
2, 14374, Note_on_c, 0, 65, 44
2, 14391, Note_on_c, 0, 65, 0
2, 14406, Note_on_c, 0, 67, 44
2, 14408, Note_on_c, 0, 53, 45
2, 14408, Note_on_c, 0, 63, 32
2, 14408, Note_on_c, 0, 59, 32
2, 14409, Control_c, 0, 64, 0
2, 14430, Control_c, 0, 64, 127
2, 14439, Note_on_c, 0, 67, 0
2, 14463, Note_on_c, 0, 63, 0
2, 14469, Note_on_c, 0, 59, 0
2, 14476, Note_on_c, 0, 53, 0
2, 14480, Note_on_c, 0, 63, 1
2, 14483, Note_on_c, 0, 67, 31
2, 14501, Note_on_c, 0, 63, 0
2, 14504, Note_on_c, 0, 67, 0
2, 14520, Note_on_c, 0, 67, 33
2, 14522, Note_on_c, 0, 52, 38
2, 14522, Note_on_c, 0, 62, 47
2, 14524, Note_on_c, 0, 58, 25
2, 14528, Control_c, 0, 64, 0
2, 14551, Control_c, 0, 64, 127
2, 14557, Note_on_c, 0, 67, 0
2, 14586, Note_on_c, 0, 62, 0
2, 14595, Note_on_c, 0, 67, 54
2, 14606, Note_on_c, 0, 58, 0
2, 14622, Note_on_c, 0, 67, 0
2, 14640, Note_on_c, 0, 52, 0
2, 14641, Note_on_c, 0, 57, 45
2, 14642, Note_on_c, 0, 65, 50
2, 14643, Note_on_c, 0, 61, 37
2, 14645, Note_on_c, 0, 51, 39
2, 14649, Control_c, 0, 64, 0
2, 14669, Control_c, 0, 64, 127
2, 14678, Note_on_c, 0, 65, 0
2, 14689, Note_on_c, 0, 57, 0
2, 14693, Note_on_c, 0, 61, 0
2, 14760, Note_on_c, 0, 51, 0
2, 14760, Note_on_c, 0, 56, 30
2, 14760, Note_on_c, 0, 60, 48
2, 14760, Note_on_c, 0, 65, 53
2, 14761, Note_on_c, 0, 50, 46
2, 14765, Control_c, 0, 64, 0
2, 14790, Control_c, 0, 64, 127
2, 14818, Note_on_c, 0, 65, 0
2, 14839, Note_on_c, 0, 65, 48
2, 14849, Note_on_c, 0, 65, 0
2, 14849, Note_on_c, 0, 60, 0
2, 14853, Note_on_c, 0, 56, 0
2, 14877, Note_on_c, 0, 50, 0
2, 14880, Note_on_c, 0, 63, 42
2, 14881, Note_on_c, 0, 49, 36
2, 14882, Note_on_c, 0, 59, 39
2, 14884, Note_on_c, 0, 53, 24
2, 14889, Control_c, 0, 64, 0
2, 14914, Control_c, 0, 64, 127
2, 14942, Note_on_c, 0, 63, 0
2, 14960, Note_on_c, 0, 63, 43
2, 14961, Note_on_c, 0, 53, 0
2, 14967, Note_on_c, 0, 59, 0
2, 14989, Note_on_c, 0, 63, 0
2, 15001, Note_on_c, 0, 49, 0
2, 15005, Note_on_c, 0, 58, 43
2, 15005, Note_on_c, 0, 52, 53
2, 15005, Note_on_c, 0, 63, 37
2, 15006, Note_on_c, 0, 48, 38
2, 15010, Control_c, 0, 64, 0
2, 15035, Control_c, 0, 64, 127
2, 15060, Note_on_c, 0, 48, 0
2, 15062, Note_on_c, 0, 63, 0
2, 15070, Note_on_c, 0, 52, 0
2, 15081, Note_on_c, 0, 63, 49
2, 15093, Note_on_c, 0, 63, 0
2, 15095, Note_on_c, 0, 58, 0
2, 15123, Note_on_c, 0, 63, 37
2, 15125, Note_on_c, 0, 51, 34
2, 15125, Control_c, 0, 64, 0
2, 15126, Note_on_c, 0, 57, 51
2, 15126, Note_on_c, 0, 35, 31
2, 15126, Note_on_c, 0, 47, 24
2, 15149, Control_c, 0, 64, 127
2, 15152, Note_on_c, 0, 35, 0
2, 15159, Note_on_c, 0, 51, 0
2, 15169, Note_on_c, 0, 57, 0
2, 15198, Note_on_c, 0, 63, 0
2, 15199, Note_on_c, 0, 47, 0
2, 15201, Note_on_c, 0, 35, 28
2, 15213, Note_on_c, 0, 35, 0
2, 15236, Control_c, 0, 64, 0
2, 15240, Note_on_c, 0, 34, 23
2, 15241, Note_on_c, 0, 56, 39
2, 15242, Note_on_c, 0, 51, 29
2, 15247, Note_on_c, 0, 46, 15
2, 15250, Note_on_c, 0, 51, 0
2, 15251, Control_c, 0, 64, 127
2, 15255, Note_on_c, 0, 56, 0
2, 15259, Note_on_c, 0, 34, 0
2, 15266, Note_on_c, 0, 46, 0
2, 15318, Note_on_c, 0, 58, 39
2, 15322, Note_on_c, 0, 58, 0
2, 15353, Control_c, 0, 64, 0
2, 15357, Note_on_c, 0, 70, 52
2, 15360, Note_on_c, 0, 39, 32
2, 15360, Note_on_c, 0, 46, 26
2, 15369, Control_c, 0, 64, 127
2, 15388, Note_on_c, 0, 39, 0
2, 15393, Note_on_c, 0, 46, 0
2, 15400, Note_on_c, 0, 70, 0
2, 15409, Note_on_c, 0, 67, 46
2, 15413, Note_on_c, 0, 67, 0
2, 15448, Note_on_c, 0, 77, 89
2, 15488, Note_on_c, 0, 60, 34
2, 15488, Note_on_c, 0, 58, 31
2, 15489, Note_on_c, 0, 65, 20
2, 15490, Note_on_c, 0, 55, 30
2, 15498, Note_on_c, 0, 65, 0
2, 15500, Note_on_c, 0, 60, 0
2, 15505, Note_on_c, 0, 55, 0
2, 15519, Note_on_c, 0, 58, 0
2, 15531, Note_on_c, 0, 74, 54
2, 15564, Note_on_c, 0, 77, 0
2, 15565, Note_on_c, 0, 70, 51
2, 15570, Note_on_c, 0, 74, 0
2, 15601, Note_on_c, 0, 58, 36
2, 15603, Note_on_c, 0, 61, 25
2, 15603, Control_c, 0, 64, 0
2, 15604, Note_on_c, 0, 67, 40
2, 15605, Note_on_c, 0, 52, 27
2, 15610, Note_on_c, 0, 70, 0
2, 15622, Control_c, 0, 64, 127
2, 15634, Note_on_c, 0, 67, 0
2, 15644, Note_on_c, 0, 79, 68
2, 15654, Note_on_c, 0, 52, 0
2, 15659, Note_on_c, 0, 58, 0
2, 15661, Note_on_c, 0, 61, 0
2, 15673, Note_on_c, 0, 79, 0
2, 15681, Note_on_c, 0, 76, 44
2, 15708, Note_on_c, 0, 76, 0
2, 15721, Note_on_c, 0, 61, 32
2, 15723, Note_on_c, 0, 64, 24
2, 15724, Note_on_c, 0, 58, 26
2, 15729, Note_on_c, 0, 64, 0
2, 15732, Note_on_c, 0, 61, 0
2, 15738, Note_on_c, 0, 58, 0
2, 15805, Note_on_c, 0, 48, 27
2, 15837, Note_on_c, 0, 48, 0
2, 15846, Control_c, 0, 64, 0
2, 15847, Note_on_c, 0, 41, 48
2, 15849, Note_on_c, 0, 51, 28
2, 15869, Control_c, 0, 64, 127
2, 15889, Note_on_c, 0, 41, 0
2, 15889, Note_on_c, 0, 94, 61
2, 15889, Note_on_c, 0, 80, 47
2, 15901, Note_on_c, 0, 51, 0
2, 15909, Note_on_c, 0, 80, 0
2, 15912, Note_on_c, 0, 94, 0
2, 15926, Note_on_c, 0, 92, 30
2, 15932, Note_on_c, 0, 92, 0
2, 15968, Note_on_c, 0, 60, 31
2, 15968, Note_on_c, 0, 94, 67
2, 15968, Note_on_c, 0, 63, 30
2, 15970, Note_on_c, 0, 82, 47
2, 15970, Note_on_c, 0, 53, 28
2, 15971, Control_c, 0, 64, 0
2, 15971, Note_on_c, 0, 56, 34
2, 15978, Note_on_c, 0, 82, 0
2, 15979, Note_on_c, 0, 94, 0
2, 15993, Control_c, 0, 64, 127
2, 16007, Note_on_c, 0, 53, 0
2, 16008, Note_on_c, 0, 94, 67
2, 16010, Note_on_c, 0, 60, 0
2, 16011, Note_on_c, 0, 82, 48
2, 16016, Note_on_c, 0, 63, 0
2, 16019, Note_on_c, 0, 82, 0
2, 16020, Note_on_c, 0, 56, 0
2, 16028, Note_on_c, 0, 94, 0
2, 16045, Note_on_c, 0, 92, 49
2, 16055, Note_on_c, 0, 92, 0
2, 16081, Note_on_c, 0, 62, 47
2, 16082, Note_on_c, 0, 66, 43
2, 16082, Note_on_c, 0, 97, 76
2, 16083, Control_c, 0, 64, 0
2, 16084, Note_on_c, 0, 85, 69
2, 16085, Note_on_c, 0, 56, 47
2, 16100, Control_c, 0, 64, 127
2, 16101, Note_on_c, 0, 85, 0
2, 16103, Note_on_c, 0, 97, 0
2, 16120, Note_on_c, 0, 94, 54
2, 16122, Note_on_c, 0, 82, 48
2, 16147, Note_on_c, 0, 82, 0
2, 16147, Note_on_c, 0, 94, 0
2, 16163, Note_on_c, 0, 90, 60
2, 16164, Note_on_c, 0, 78, 52
2, 16170, Note_on_c, 0, 66, 0
2, 16176, Note_on_c, 0, 62, 0
2, 16191, Note_on_c, 0, 90, 0
2, 16191, Note_on_c, 0, 78, 0
2, 16201, Note_on_c, 0, 66, 36
2, 16204, Note_on_c, 0, 62, 32
2, 16208, Note_on_c, 0, 66, 0
2, 16211, Note_on_c, 0, 62, 0
2, 16221, Note_on_c, 0, 56, 0
2, 16242, Note_on_c, 0, 85, 46
2, 16243, Note_on_c, 0, 73, 50
2, 16249, Note_on_c, 0, 73, 0
2, 16251, Note_on_c, 0, 85, 0
2, 16280, Note_on_c, 0, 82, 38
2, 16281, Note_on_c, 0, 46, 37
2, 16282, Note_on_c, 0, 70, 21
2, 16301, Note_on_c, 0, 70, 0
2, 16305, Note_on_c, 0, 82, 0
2, 16319, Note_on_c, 0, 46, 0
2, 16321, Note_on_c, 0, 39, 44
2, 16321, Control_c, 0, 64, 0
2, 16338, Control_c, 0, 64, 127
2, 16354, Note_on_c, 0, 39, 0
2, 16357, Note_on_c, 0, 46, 46
2, 16378, Note_on_c, 0, 46, 0
2, 16383, Note_on_c, 0, 65, 55
2, 16385, Note_on_c, 0, 60, 37
2, 16386, Note_on_c, 0, 55, 45
2, 16395, Note_on_c, 0, 60, 0
2, 16405, Note_on_c, 0, 65, 0
2, 16408, Note_on_c, 0, 70, 57
2, 16410, Note_on_c, 0, 58, 43
2, 16412, Note_on_c, 0, 55, 0
2, 16415, Note_on_c, 0, 70, 0
2, 16438, Note_on_c, 0, 62, 54
2, 16438, Note_on_c, 0, 77, 78
2, 16440, Note_on_c, 0, 72, 68
2, 16454, Note_on_c, 0, 72, 0
2, 16460, Note_on_c, 0, 77, 0
2, 16460, Note_on_c, 0, 62, 0
2, 16464, Note_on_c, 0, 82, 77
2, 16468, Note_on_c, 0, 67, 48
2, 16481, Note_on_c, 0, 82, 0
2, 16492, Note_on_c, 0, 62, 59
2, 16494, Note_on_c, 0, 67, 0
2, 16497, Note_on_c, 0, 77, 53
2, 16505, Note_on_c, 0, 77, 0
2, 16523, Note_on_c, 0, 82, 69
2, 16524, Note_on_c, 0, 67, 37
2, 16528, Note_on_c, 0, 62, 0
2, 16529, Note_on_c, 0, 67, 0
2, 16538, Note_on_c, 0, 58, 0
2, 16545, Note_on_c, 0, 82, 0
2, 16554, Note_on_c, 0, 76, 60
2, 16554, Note_on_c, 0, 73, 58
2, 16556, Note_on_c, 0, 79, 64
2, 16558, Control_c, 0, 64, 0
2, 16573, Control_c, 0, 64, 127
2, 16618, Note_on_c, 0, 79, 0
2, 16618, Note_on_c, 0, 76, 0
2, 16621, Note_on_c, 0, 73, 0
2, 16678, Note_on_c, 0, 69, 52
2, 16679, Note_on_c, 0, 60, 41
2, 16680, Note_on_c, 0, 66, 34
2, 16684, Note_on_c, 0, 69, 0
2, 16687, Note_on_c, 0, 60, 0
2, 16690, Note_on_c, 0, 66, 0
2, 16719, Note_on_c, 0, 66, 57
2, 16719, Note_on_c, 0, 63, 53
2, 16730, Note_on_c, 0, 63, 0
2, 16732, Note_on_c, 0, 66, 0
2, 16761, Note_on_c, 0, 42, 45
2, 16783, Note_on_c, 0, 42, 0
2, 16799, Note_on_c, 0, 41, 50
2, 16801, Note_on_c, 0, 60, 52
2, 16803, Control_c, 0, 64, 0
2, 16804, Note_on_c, 0, 56, 25
2, 16804, Note_on_c, 0, 51, 25
2, 16817, Control_c, 0, 64, 127
2, 16823, Note_on_c, 0, 41, 0
2, 16835, Note_on_c, 0, 51, 0
2, 16839, Note_on_c, 0, 56, 0
2, 16844, Note_on_c, 0, 60, 0
2, 16923, Note_on_c, 0, 63, 42
2, 16924, Note_on_c, 0, 56, 35
2, 16926, Note_on_c, 0, 60, 45
2, 16927, Note_on_c, 0, 55, 31
2, 16937, Note_on_c, 0, 60, 0
2, 16939, Note_on_c, 0, 56, 0
2, 16948, Note_on_c, 0, 63, 0
2, 16956, Note_on_c, 0, 55, 0
2, 16999, Note_on_c, 0, 74, 84
2, 17014, Note_on_c, 0, 74, 0
2, 17038, Note_on_c, 0, 62, 50
2, 17038, Note_on_c, 0, 74, 55
2, 17040, Note_on_c, 0, 71, 51
2, 17040, Note_on_c, 0, 46, 51
2, 17041, Note_on_c, 0, 67, 44
2, 17053, Control_c, 0, 64, 0
2, 17058, Note_on_c, 0, 46, 0
2, 17070, Note_on_c, 0, 47, 55
2, 17082, Note_on_c, 0, 47, 0
2, 17098, Note_on_c, 0, 49, 51
2, 17111, Note_on_c, 0, 49, 0
2, 17126, Note_on_c, 0, 50, 54
2, 17138, Note_on_c, 0, 50, 0
2, 17155, Note_on_c, 0, 52, 43
2, 17176, Note_on_c, 0, 52, 0
2, 17187, Note_on_c, 0, 53, 30
2, 17193, Control_c, 0, 64, 127
2, 17195, Note_on_c, 0, 53, 0
2, 17212, Control_c, 0, 64, 0
2, 17221, Note_on_c, 0, 55, 62
2, 17228, Control_c, 0, 64, 127
2, 17232, Note_on_c, 0, 62, 0
2, 17237, Note_on_c, 0, 55, 0
2, 17244, Note_on_c, 0, 74, 0
2, 17247, Note_on_c, 0, 67, 0
2, 17250, Note_on_c, 0, 71, 0
2, 17349, Note_on_c, 0, 61, 48
2, 17349, Note_on_c, 0, 65, 50
2, 17349, Note_on_c, 0, 60, 45
2, 17368, Note_on_c, 0, 60, 0
2, 17373, Note_on_c, 0, 65, 0
2, 17382, Note_on_c, 0, 57, 56
2, 17400, Note_on_c, 0, 57, 0
2, 17410, Note_on_c, 0, 61, 0
2, 17419, Note_on_c, 0, 55, 67
2, 17420, Note_on_c, 0, 77, 81
2, 17420, Note_on_c, 0, 61, 49
2, 17421, Note_on_c, 0, 72, 83
2, 17427, Control_c, 0, 64, 0
2, 17444, Control_c, 0, 64, 127
2, 17447, Note_on_c, 0, 61, 0
2, 17455, Note_on_c, 0, 55, 0
2, 17458, Note_on_c, 0, 77, 0
2, 17458, Note_on_c, 0, 72, 0
2, 17490, Note_on_c, 0, 75, 50
2, 17493, Note_on_c, 0, 75, 0
2, 17496, Note_on_c, 0, 74, 32
2, 17500, Note_on_c, 0, 74, 0
2, 17525, Control_c, 0, 64, 0
2, 17527, Note_on_c, 0, 75, 47
2, 17528, Note_on_c, 0, 45, 37
2, 17529, Note_on_c, 0, 55, 34
2, 17529, Note_on_c, 0, 73, 36
2, 17531, Note_on_c, 0, 67, 29
2, 17542, Control_c, 0, 64, 127
2, 17554, Note_on_c, 0, 75, 0
2, 17556, Note_on_c, 0, 73, 0
2, 17559, Note_on_c, 0, 67, 0
2, 17569, Note_on_c, 0, 55, 0
2, 17645, Note_on_c, 0, 61, 28
2, 17646, Note_on_c, 0, 59, 38
2, 17648, Note_on_c, 0, 55, 26
2, 17651, Note_on_c, 0, 52, 24
2, 17668, Note_on_c, 0, 45, 0
2, 17707, Note_on_c, 0, 59, 0
2, 17708, Note_on_c, 0, 55, 0
2, 17715, Note_on_c, 0, 52, 0
2, 17720, Note_on_c, 0, 61, 0
2, 17720, Note_on_c, 0, 45, 29
2, 17732, Note_on_c, 0, 45, 0
2, 17758, Control_c, 0, 64, 0
2, 17760, Note_on_c, 0, 58, 40
2, 17763, Note_on_c, 0, 55, 33
2, 17763, Note_on_c, 0, 44, 29
2, 17764, Note_on_c, 0, 51, 25
2, 17767, Note_on_c, 0, 55, 0
2, 17771, Note_on_c, 0, 58, 0
2, 17772, Control_c, 0, 64, 127
2, 17782, Note_on_c, 0, 44, 0
2, 17788, Note_on_c, 0, 51, 0
2, 17808, Note_on_c, 0, 70, 71
2, 17809, Note_on_c, 0, 55, 71
2, 17809, Note_on_c, 0, 63, 60
2, 17810, Note_on_c, 0, 67, 66
2, 17810, Note_on_c, 0, 60, 62
2, 17816, Control_c, 0, 64, 0
2, 17835, Control_c, 0, 64, 127
2, 17862, Note_on_c, 0, 60, 0
2, 17865, Note_on_c, 0, 63, 0
2, 17868, Note_on_c, 0, 55, 0
2, 17870, Note_on_c, 0, 67, 0
2, 17871, Note_on_c, 0, 70, 0
2, 17886, Note_on_c, 0, 63, 39
2, 17886, Note_on_c, 0, 68, 57
2, 17888, Control_c, 0, 64, 0
2, 17888, Note_on_c, 0, 60, 39
2, 17889, Note_on_c, 0, 53, 37
2, 17901, Control_c, 0, 64, 127
2, 17910, Note_on_c, 0, 60, 0
2, 17910, Note_on_c, 0, 63, 0
2, 17924, Note_on_c, 0, 53, 0
2, 17932, Note_on_c, 0, 63, 39
2, 17933, Note_on_c, 0, 68, 0
2, 17935, Note_on_c, 0, 60, 24
2, 17939, Note_on_c, 0, 60, 0
2, 17941, Note_on_c, 0, 63, 0
2, 17974, Note_on_c, 0, 44, 31
2, 17995, Note_on_c, 0, 44, 0
2, 18005, Note_on_c, 0, 37, 49
2, 18005, Note_on_c, 0, 63, 42
2, 18006, Note_on_c, 0, 70, 47
2, 18007, Note_on_c, 0, 59, 39
2, 18007, Note_on_c, 0, 67, 44
2, 18008, Control_c, 0, 64, 0
2, 18036, Note_on_c, 0, 37, 0
2, 18042, Note_on_c, 0, 44, 34
2, 18051, Control_c, 0, 64, 127
2, 18059, Note_on_c, 0, 59, 0
2, 18059, Note_on_c, 0, 67, 0
2, 18059, Note_on_c, 0, 63, 0
2, 18074, Note_on_c, 0, 70, 0
2, 18082, Note_on_c, 0, 68, 53
2, 18083, Note_on_c, 0, 63, 45
2, 18084, Note_on_c, 0, 59, 44
2, 18085, Note_on_c, 0, 53, 40
2, 18113, Note_on_c, 0, 44, 0
2, 18132, Note_on_c, 0, 63, 0
2, 18155, Note_on_c, 0, 59, 0
2, 18160, Note_on_c, 0, 53, 0
2, 18165, Note_on_c, 0, 68, 0
2, 18165, Note_on_c, 0, 63, 46
2, 18196, Note_on_c, 0, 63, 0
2, 18203, Note_on_c, 0, 65, 55
2, 18220, Note_on_c, 0, 65, 0
2, 18243, Note_on_c, 0, 49, 37
2, 18245, Note_on_c, 0, 63, 67
2, 18245, Note_on_c, 0, 67, 70
2, 18246, Note_on_c, 0, 53, 45
2, 18246, Note_on_c, 0, 59, 68
2, 18251, Control_c, 0, 64, 0
2, 18274, Note_on_c, 0, 67, 0
2, 18277, Control_c, 0, 64, 127
2, 18283, Note_on_c, 0, 67, 52
2, 18304, Note_on_c, 0, 67, 0
2, 18311, Note_on_c, 0, 59, 0
2, 18314, Note_on_c, 0, 63, 0
2, 18315, Note_on_c, 0, 53, 0
2, 18320, Note_on_c, 0, 49, 0
2, 18322, Note_on_c, 0, 63, 14
2, 18322, Note_on_c, 0, 67, 29
2, 18332, Note_on_c, 0, 63, 0
2, 18339, Note_on_c, 0, 67, 0
2, 18360, Note_on_c, 0, 68, 50
2, 18363, Note_on_c, 0, 58, 32
2, 18364, Note_on_c, 0, 64, 48
2, 18364, Note_on_c, 0, 61, 44
2, 18365, Note_on_c, 0, 48, 27
2, 18366, Control_c, 0, 64, 0
2, 18383, Note_on_c, 0, 68, 0
2, 18386, Control_c, 0, 64, 127
2, 18404, Note_on_c, 0, 68, 55
2, 18418, Note_on_c, 0, 68, 0
2, 18430, Note_on_c, 0, 64, 0
2, 18435, Note_on_c, 0, 58, 0
2, 18440, Note_on_c, 0, 68, 55
2, 18442, Note_on_c, 0, 48, 0
2, 18444, Note_on_c, 0, 58, 13
2, 18458, Note_on_c, 0, 58, 0
2, 18467, Note_on_c, 0, 61, 0
2, 18471, Note_on_c, 0, 68, 0
2, 18483, Note_on_c, 0, 63, 48
2, 18484, Note_on_c, 0, 56, 40
2, 18485, Note_on_c, 0, 60, 54
2, 18492, Control_c, 0, 64, 0
2, 18525, Note_on_c, 0, 46, 52
2, 18526, Note_on_c, 0, 34, 55
2, 18546, Control_c, 0, 64, 127
2, 18574, Note_on_c, 0, 60, 0
2, 18581, Note_on_c, 0, 63, 0
2, 18581, Note_on_c, 0, 56, 0
2, 18608, Note_on_c, 0, 56, 31
2, 18608, Note_on_c, 0, 63, 46
2, 18609, Note_on_c, 0, 60, 50
2, 18610, Control_c, 0, 64, 0
2, 18611, Note_on_c, 0, 46, 0
2, 18612, Note_on_c, 0, 34, 0
2, 18652, Note_on_c, 0, 46, 71
2, 18653, Note_on_c, 0, 34, 67
2, 18679, Control_c, 0, 64, 127
2, 18684, Note_on_c, 0, 56, 0
2, 18686, Note_on_c, 0, 60, 0
2, 18709, Note_on_c, 0, 63, 0
2, 18719, Note_on_c, 0, 34, 0
2, 18722, Control_c, 0, 64, 0
2, 18724, Note_on_c, 0, 63, 55
2, 18725, Note_on_c, 0, 55, 64
2, 18726, Note_on_c, 0, 46, 0
2, 18726, Note_on_c, 0, 58, 45
2, 18731, Control_c, 0, 64, 127
2, 18734, Note_on_c, 0, 55, 0
2, 18743, Note_on_c, 0, 58, 0
2, 18750, Note_on_c, 0, 63, 0
2, 18764, Note_on_c, 0, 46, 70
2, 18834, Note_on_c, 0, 46, 0
2, 18841, Note_on_c, 0, 75, 69
2, 18842, Note_on_c, 0, 70, 73
2, 18844, Note_on_c, 0, 67, 58
2, 18847, Note_on_c, 0, 67, 0
2, 18852, Note_on_c, 0, 70, 0
2, 18854, Note_on_c, 0, 75, 0
2, 18887, Note_on_c, 0, 79, 88
2, 18888, Note_on_c, 0, 76, 87
2, 18889, Note_on_c, 0, 71, 90
2, 18889, Note_on_c, 0, 74, 88
2, 18890, Note_on_c, 0, 70, 90
2, 18894, Control_c, 0, 64, 0
2, 18917, Control_c, 0, 64, 127
2, 18929, Note_on_c, 0, 71, 0
2, 18932, Note_on_c, 0, 74, 0
2, 18934, Note_on_c, 0, 76, 0
2, 18936, Note_on_c, 0, 79, 0
2, 18970, Note_on_c, 0, 70, 0
2, 18970, Note_on_c, 0, 91, 58
2, 18975, Note_on_c, 0, 91, 0
2, 19178, Note_on_c, 0, 45, 37
2, 19183, Note_on_c, 0, 45, 0
2, 19220, Note_on_c, 0, 58, 29
2, 19221, Note_on_c, 0, 39, 28
2, 19221, Control_c, 0, 64, 0
2, 19222, Note_on_c, 0, 55, 28
2, 19223, Note_on_c, 0, 46, 29
2, 19235, Note_on_c, 0, 55, 0
2, 19237, Control_c, 0, 64, 127
2, 19242, Note_on_c, 0, 58, 0
2, 19247, Note_on_c, 0, 39, 0
2, 19250, Note_on_c, 0, 46, 0
2, 19328, Note_on_c, 0, 60, 22
2, 19328, Note_on_c, 0, 65, 26
2, 19330, Note_on_c, 0, 61, 18
2, 19331, Note_on_c, 0, 55, 28
2, 19343, Note_on_c, 0, 65, 0
2, 19345, Note_on_c, 0, 55, 0
2, 19350, Note_on_c, 0, 60, 0
2, 19352, Note_on_c, 0, 61, 0
2, 19444, Note_on_c, 0, 58, 39
2, 19450, Note_on_c, 0, 55, 53
2, 19451, Note_on_c, 0, 52, 29
2, 19452, Control_c, 0, 64, 0
2, 19473, Control_c, 0, 64, 127
2, 19500, Note_on_c, 0, 52, 0
2, 19501, Note_on_c, 0, 55, 0
2, 19509, Note_on_c, 0, 58, 0
2, 19512, Note_on_c, 0, 79, 71
2, 19512, Note_on_c, 0, 91, 72
2, 19520, Note_on_c, 0, 79, 0
2, 19523, Note_on_c, 0, 91, 0
2, 19537, Note_on_c, 0, 91, 75
2, 19537, Note_on_c, 0, 79, 74
2, 19545, Note_on_c, 0, 79, 0
2, 19550, Note_on_c, 0, 91, 0
2, 19562, Note_on_c, 0, 61, 57
2, 19563, Note_on_c, 0, 64, 60
2, 19563, Note_on_c, 0, 58, 43
2, 19565, Note_on_c, 0, 82, 74
2, 19565, Note_on_c, 0, 94, 77
2, 19566, Note_on_c, 0, 64, 0
2, 19569, Control_c, 0, 64, 0
2, 19572, Note_on_c, 0, 61, 0
2, 19574, Note_on_c, 0, 82, 0
2, 19575, Note_on_c, 0, 94, 0
2, 19576, Note_on_c, 0, 58, 0
2, 19583, Control_c, 0, 64, 127
2, 19600, Note_on_c, 0, 94, 64
2, 19600, Note_on_c, 0, 82, 63
2, 19607, Note_on_c, 0, 82, 0
2, 19607, Note_on_c, 0, 94, 0
2, 19631, Note_on_c, 0, 75, 58
2, 19632, Note_on_c, 0, 87, 48
2, 19636, Note_on_c, 0, 75, 0
2, 19636, Note_on_c, 0, 48, 34
2, 19640, Note_on_c, 0, 87, 0
2, 19657, Note_on_c, 0, 87, 60
2, 19658, Note_on_c, 0, 75, 53
2, 19665, Note_on_c, 0, 75, 0
2, 19667, Note_on_c, 0, 87, 0
2, 19668, Note_on_c, 0, 48, 0
2, 19679, Note_on_c, 0, 41, 52
2, 19681, Note_on_c, 0, 51, 38
2, 19683, Control_c, 0, 64, 0
2, 19687, Note_on_c, 0, 90, 39
2, 19687, Note_on_c, 0, 78, 35
2, 19694, Note_on_c, 0, 90, 0
2, 19696, Note_on_c, 0, 78, 0
2, 19697, Note_on_c, 0, 91, 32
2, 19700, Note_on_c, 0, 79, 36
2, 19716, Control_c, 0, 64, 127
2, 19719, Note_on_c, 0, 91, 0
2, 19723, Note_on_c, 0, 79, 0
2, 19723, Note_on_c, 0, 41, 0
2, 19739, Note_on_c, 0, 51, 0
2, 19760, Note_on_c, 0, 91, 45
2, 19763, Note_on_c, 0, 79, 58
2, 19780, Note_on_c, 0, 79, 0
2, 19781, Note_on_c, 0, 91, 0
2, 19799, Note_on_c, 0, 63, 31
2, 19799, Note_on_c, 0, 60, 31
2, 19800, Control_c, 0, 64, 0
2, 19801, Note_on_c, 0, 56, 35
2, 19801, Note_on_c, 0, 53, 31
2, 19801, Note_on_c, 0, 89, 36
2, 19803, Note_on_c, 0, 77, 33
2, 19806, Note_on_c, 0, 89, 0
2, 19807, Note_on_c, 0, 77, 0
2, 19813, Note_on_c, 0, 53, 0
2, 19814, Note_on_c, 0, 60, 0
2, 19816, Control_c, 0, 64, 127
2, 19817, Note_on_c, 0, 63, 0
2, 19826, Note_on_c, 0, 56, 0
2, 19834, Control_c, 0, 64, 0
2, 19849, Control_c, 0, 64, 127
2, 19879, Note_on_c, 0, 87, 67
2, 19880, Note_on_c, 0, 75, 55
2, 19889, Note_on_c, 0, 75, 0
2, 19890, Note_on_c, 0, 87, 0
2, 19908, Note_on_c, 0, 56, 30
2, 19909, Note_on_c, 0, 62, 42
2, 19912, Note_on_c, 0, 85, 38
2, 19912, Note_on_c, 0, 67, 24
2, 19916, Note_on_c, 0, 67, 0
2, 19918, Note_on_c, 0, 56, 0
2, 19918, Control_c, 0, 64, 0
2, 19919, Note_on_c, 0, 73, 30
2, 19922, Note_on_c, 0, 62, 0
2, 19926, Note_on_c, 0, 85, 0
2, 19929, Note_on_c, 0, 73, 0
2, 19931, Note_on_c, 0, 86, 37
2, 19935, Note_on_c, 0, 74, 30
2, 19938, Note_on_c, 0, 86, 0
2, 19939, Note_on_c, 0, 74, 0
2, 19963, Note_on_c, 0, 46, 55
2, 19967, Control_c, 0, 64, 127
2, 20040, Note_on_c, 0, 70, 36
2, 20042, Note_on_c, 0, 65, 49
2, 20043, Note_on_c, 0, 60, 29
2, 20043, Note_on_c, 0, 62, 29
2, 20046, Control_c, 0, 64, 0
2, 20047, Note_on_c, 0, 56, 27
2, 20064, Control_c, 0, 64, 127
2, 20077, Note_on_c, 0, 46, 0
2, 20107, Note_on_c, 0, 70, 0
2, 20109, Note_on_c, 0, 65, 0
2, 20111, Note_on_c, 0, 62, 0
2, 20115, Note_on_c, 0, 60, 0
2, 20119, Note_on_c, 0, 46, 35
2, 20122, Note_on_c, 0, 56, 0
2, 20155, Control_c, 0, 64, 0
2, 20156, Note_on_c, 0, 58, 40
2, 20158, Note_on_c, 0, 62, 43
2, 20160, Note_on_c, 0, 67, 33
2, 20160, Note_on_c, 0, 55, 33
2, 20168, Note_on_c, 0, 58, 0
2, 20170, Note_on_c, 0, 62, 0
2, 20170, Control_c, 0, 64, 127
2, 20172, Note_on_c, 0, 67, 0
2, 20182, Note_on_c, 0, 46, 0
2, 20190, Note_on_c, 0, 55, 0
2, 20241, Note_on_c, 0, 70, 67
2, 20242, Note_on_c, 0, 61, 58
2, 20244, Note_on_c, 0, 55, 57
2, 20244, Note_on_c, 0, 65, 61
2, 20265, Note_on_c, 0, 70, 0
2, 20272, Note_on_c, 0, 61, 0
2, 20277, Note_on_c, 0, 55, 0
2, 20281, Note_on_c, 0, 61, 55
2, 20282, Control_c, 0, 64, 0
2, 20282, Note_on_c, 0, 72, 71
2, 20285, Note_on_c, 0, 56, 45
2, 20290, Control_c, 0, 64, 127
2, 20319, Note_on_c, 0, 65, 0
2, 20327, Note_on_c, 0, 61, 0
2, 20327, Note_on_c, 0, 72, 0
2, 20341, Note_on_c, 0, 56, 0
2, 20357, Note_on_c, 0, 70, 46
2, 20357, Note_on_c, 0, 61, 36
2, 20361, Note_on_c, 0, 65, 36
2, 20361, Note_on_c, 0, 55, 32
2, 20366, Note_on_c, 0, 65, 0
2, 20370, Note_on_c, 0, 70, 0
2, 20379, Note_on_c, 0, 61, 0
2, 20393, Note_on_c, 0, 55, 0
2, 20394, Control_c, 0, 64, 0
2, 20397, Note_on_c, 0, 63, 36
2, 20397, Note_on_c, 0, 69, 45
2, 20398, Note_on_c, 0, 60, 41
2, 20398, Note_on_c, 0, 54, 37
2, 20400, Note_on_c, 0, 66, 34
2, 20406, Note_on_c, 0, 60, 0
2, 20407, Control_c, 0, 64, 127
2, 20410, Note_on_c, 0, 63, 0
2, 20410, Note_on_c, 0, 69, 0
2, 20412, Note_on_c, 0, 54, 0
2, 20412, Note_on_c, 0, 66, 0
2, 20445, Note_on_c, 0, 75, 72
2, 20447, Note_on_c, 0, 66, 65
2, 20447, Note_on_c, 0, 69, 72
2, 20448, Note_on_c, 0, 60, 57
2, 20457, Control_c, 0, 64, 0
2, 20464, Control_c, 0, 64, 127
2, 20478, Note_on_c, 0, 75, 0
2, 20480, Note_on_c, 0, 69, 0
2, 20487, Note_on_c, 0, 66, 0
2, 20511, Note_on_c, 0, 60, 0
2, 20517, Note_on_c, 0, 66, 50
2, 20517, Control_c, 0, 64, 0
2, 20518, Note_on_c, 0, 63, 39
2, 20519, Note_on_c, 0, 57, 45
2, 20523, Control_c, 0, 64, 127
2, 20529, Note_on_c, 0, 63, 0
2, 20529, Note_on_c, 0, 66, 0
2, 20561, Note_on_c, 0, 57, 0
2, 20563, Note_on_c, 0, 54, 37
2, 20564, Note_on_c, 0, 69, 34
2, 20565, Note_on_c, 0, 63, 37
2, 20565, Note_on_c, 0, 60, 30
2, 20565, Note_on_c, 0, 66, 34
2, 20566, Control_c, 0, 64, 0
2, 20574, Control_c, 0, 64, 127
2, 20577, Note_on_c, 0, 54, 0
2, 20587, Note_on_c, 0, 69, 0
2, 20590, Note_on_c, 0, 66, 0
2, 20592, Note_on_c, 0, 63, 0
2, 20598, Note_on_c, 0, 60, 0
2, 20652, Note_on_c, 0, 56, 36
2, 20652, Note_on_c, 0, 41, 36
2, 20653, Control_c, 0, 64, 0
2, 20656, Note_on_c, 0, 51, 20
2, 20672, Control_c, 0, 64, 127
2, 20678, Note_on_c, 0, 56, 0
2, 20680, Note_on_c, 0, 41, 0
2, 20690, Note_on_c, 0, 51, 0
2, 20767, Note_on_c, 0, 63, 26
2, 20769, Note_on_c, 0, 60, 28
2, 20769, Note_on_c, 0, 56, 26
2, 20787, Note_on_c, 0, 60, 0
2, 20791, Note_on_c, 0, 63, 0
2, 20805, Note_on_c, 0, 56, 0
2, 20808, Note_on_c, 0, 75, 69
2, 20819, Note_on_c, 0, 75, 0
2, 20855, Note_on_c, 0, 87, 73
2, 20855, Note_on_c, 0, 84, 74
2, 20862, Note_on_c, 0, 87, 0
2, 20864, Note_on_c, 0, 84, 0
2, 20888, Control_c, 0, 64, 0
2, 20889, Note_on_c, 0, 62, 40
2, 20889, Note_on_c, 0, 56, 37
2, 20890, Note_on_c, 0, 67, 36
2, 20904, Control_c, 0, 64, 127
2, 20920, Note_on_c, 0, 67, 0
2, 20927, Note_on_c, 0, 62, 0
2, 20936, Note_on_c, 0, 76, 79
2, 20937, Note_on_c, 0, 56, 0
2, 20949, Note_on_c, 0, 76, 0
2, 20968, Note_on_c, 0, 62, 53
2, 20983, Note_on_c, 0, 62, 0
2, 21002, Note_on_c, 0, 46, 50
2, 21002, Control_c, 0, 64, 0
2, 21018, Control_c, 0, 64, 127
2, 21045, Note_on_c, 0, 61, 43
2, 21047, Note_on_c, 0, 59, 26
2, 21053, Note_on_c, 0, 46, 0
2, 21073, Note_on_c, 0, 59, 0
2, 21080, Note_on_c, 0, 61, 0
2, 21082, Note_on_c, 0, 44, 40
2, 21093, Note_on_c, 0, 44, 0
2, 21122, Note_on_c, 0, 61, 56
2, 21123, Note_on_c, 0, 56, 51
2, 21128, Note_on_c, 0, 60, 44
2, 21132, Control_c, 0, 64, 0
2, 21162, Note_on_c, 0, 39, 45
2, 21165, Control_c, 0, 64, 127
2, 21167, Note_on_c, 0, 56, 0
2, 21170, Note_on_c, 0, 60, 0
2, 21174, Note_on_c, 0, 61, 0
2, 21194, Note_on_c, 0, 39, 0
2, 21202, Note_on_c, 0, 46, 51
2, 21211, Note_on_c, 0, 46, 0
2, 21241, Note_on_c, 0, 61, 52
2, 21242, Note_on_c, 0, 72, 52
2, 21242, Note_on_c, 0, 65, 59
2, 21244, Note_on_c, 0, 68, 48
2, 21260, Note_on_c, 0, 61, 0
2, 21262, Note_on_c, 0, 65, 0
2, 21273, Note_on_c, 0, 68, 0
2, 21274, Note_on_c, 0, 72, 0
2, 21282, Note_on_c, 0, 60, 61
2, 21310, Note_on_c, 0, 60, 0
2, 21315, Note_on_c, 0, 69, 63
2, 21325, Note_on_c, 0, 69, 0
2, 21327, Note_on_c, 0, 70, 62
2, 21332, Note_on_c, 0, 70, 0
2, 21340, Note_on_c, 0, 72, 68
2, 21349, Note_on_c, 0, 72, 0
2, 21352, Note_on_c, 0, 73, 47
2, 21360, Note_on_c, 0, 75, 59
2, 21361, Note_on_c, 0, 73, 0
2, 21366, Note_on_c, 0, 75, 0
2, 21369, Note_on_c, 0, 61, 30
2, 21371, Note_on_c, 0, 76, 66
2, 21375, Note_on_c, 0, 55, 15
2, 21375, Control_c, 0, 64, 0
2, 21379, Note_on_c, 0, 76, 0
2, 21383, Note_on_c, 0, 78, 48
2, 21384, Note_on_c, 0, 61, 0
2, 21386, Note_on_c, 0, 78, 0
2, 21386, Note_on_c, 0, 55, 0
2, 21393, Note_on_c, 0, 79, 57
2, 21403, Note_on_c, 0, 79, 0
2, 21405, Note_on_c, 0, 81, 43
2, 21411, Note_on_c, 0, 81, 0
2, 21415, Note_on_c, 0, 82, 43
2, 21419, Note_on_c, 0, 82, 0
2, 21427, Note_on_c, 0, 84, 54
2, 21434, Note_on_c, 0, 84, 0
2, 21440, Note_on_c, 0, 85, 43
2, 21445, Note_on_c, 0, 85, 0
2, 21448, Note_on_c, 0, 87, 51
2, 21448, Control_c, 0, 64, 127
2, 21452, Note_on_c, 0, 87, 0
2, 21462, Note_on_c, 0, 88, 65
2, 21466, Note_on_c, 0, 88, 0
2, 21477, Note_on_c, 0, 90, 56
2, 21481, Note_on_c, 0, 90, 0
2, 21481, Control_c, 0, 64, 0
2, 21490, Note_on_c, 0, 91, 54
2, 21490, Note_on_c, 0, 55, 34
2, 21490, Note_on_c, 0, 45, 33
2, 21499, Note_on_c, 0, 91, 0
2, 21508, Note_on_c, 0, 93, 68
2, 21513, Note_on_c, 0, 93, 0
2, 21527, Note_on_c, 0, 94, 52
2, 21530, Note_on_c, 0, 94, 0
2, 21531, Control_c, 0, 64, 127
2, 21537, Note_on_c, 0, 55, 0
2, 21538, Note_on_c, 0, 45, 0
2, 21544, Note_on_c, 0, 95, 71
2, 21552, Note_on_c, 0, 95, 0
2, 21563, Note_on_c, 0, 96, 71
2, 21578, Note_on_c, 0, 96, 0
2, 21587, Note_on_c, 0, 94, 70
2, 21597, Note_on_c, 0, 94, 0
2, 21607, Control_c, 0, 64, 0
2, 21607, Note_on_c, 0, 51, 42
2, 21609, Note_on_c, 0, 96, 49
2, 21610, Note_on_c, 0, 44, 33
2, 21620, Note_on_c, 0, 96, 0
2, 21625, Control_c, 0, 64, 127
2, 21642, Note_on_c, 0, 94, 52
2, 21649, Note_on_c, 0, 94, 0
2, 21650, Note_on_c, 0, 44, 0
2, 21652, Note_on_c, 0, 51, 0
2, 21668, Note_on_c, 0, 91, 62
2, 21679, Note_on_c, 0, 91, 0
2, 21692, Note_on_c, 0, 87, 64
2, 21710, Note_on_c, 0, 87, 0
2, 21721, Note_on_c, 0, 63, 32
2, 21721, Note_on_c, 0, 84, 64
2, 21725, Note_on_c, 0, 60, 35
2, 21730, Note_on_c, 0, 84, 0
2, 21746, Note_on_c, 0, 63, 0
2, 21749, Note_on_c, 0, 84, 67
2, 21759, Note_on_c, 0, 84, 0
2, 21763, Note_on_c, 0, 60, 0
2, 21774, Note_on_c, 0, 82, 55
2, 21783, Note_on_c, 0, 82, 0
2, 21802, Note_on_c, 0, 82, 64
2, 21815, Note_on_c, 0, 82, 0
2, 21837, Note_on_c, 0, 71, 54
2, 21838, Note_on_c, 0, 63, 21
2, 21838, Note_on_c, 0, 75, 46
2, 21839, Note_on_c, 0, 79, 47
2, 21840, Control_c, 0, 64, 0
2, 21840, Note_on_c, 0, 56, 27
2, 21840, Note_on_c, 0, 53, 32
2, 21842, Note_on_c, 0, 59, 42
2, 21860, Note_on_c, 0, 53, 0
2, 21861, Control_c, 0, 64, 127
2, 21862, Note_on_c, 0, 79, 0
2, 21866, Note_on_c, 0, 75, 0
2, 21872, Note_on_c, 0, 71, 0
2, 21875, Note_on_c, 0, 63, 0
2, 21893, Note_on_c, 0, 59, 0
2, 21902, Note_on_c, 0, 56, 0
2, 21961, Note_on_c, 0, 68, 48
2, 21965, Note_on_c, 0, 59, 32
2, 21965, Note_on_c, 0, 63, 30
2, 21968, Control_c, 0, 64, 0
2, 21969, Note_on_c, 0, 56, 31
2, 21974, Control_c, 0, 64, 127
2, 22027, Note_on_c, 0, 56, 0
2, 22035, Note_on_c, 0, 59, 0
2, 22047, Note_on_c, 0, 68, 0
2, 22050, Note_on_c, 0, 63, 0
2, 22084, Note_on_c, 0, 67, 44
2, 22085, Note_on_c, 0, 64, 44
2, 22085, Note_on_c, 0, 55, 32
2, 22087, Note_on_c, 0, 48, 33
2, 22087, Note_on_c, 0, 58, 25
2, 22088, Control_c, 0, 64, 0
2, 22107, Control_c, 0, 64, 127
2, 22142, Note_on_c, 0, 55, 0
2, 22151, Note_on_c, 0, 64, 0
2, 22153, Note_on_c, 0, 48, 0
2, 22162, Note_on_c, 0, 67, 0
2, 22165, Note_on_c, 0, 58, 0
2, 22209, Note_on_c, 0, 63, 48
2, 22210, Note_on_c, 0, 67, 43
2, 22211, Note_on_c, 0, 47, 39
2, 22211, Note_on_c, 0, 57, 43
2, 22213, Control_c, 0, 64, 0
2, 22232, Control_c, 0, 64, 127
2, 22253, Note_on_c, 0, 47, 0
2, 22282, Note_on_c, 0, 57, 0
2, 22290, Note_on_c, 0, 67, 0
2, 22299, Note_on_c, 0, 63, 0
2, 22326, Note_on_c, 0, 34, 29
2, 22327, Note_on_c, 0, 62, 36
2, 22327, Note_on_c, 0, 56, 21
2, 22327, Note_on_c, 0, 65, 36
2, 22327, Note_on_c, 0, 46, 26
2, 22330, Control_c, 0, 64, 0
2, 22331, Note_on_c, 0, 60, 26
2, 22348, Control_c, 0, 64, 127
2, 22355, Note_on_c, 0, 46, 0
2, 22357, Note_on_c, 0, 34, 0
2, 22375, Note_on_c, 0, 65, 0
2, 22382, Note_on_c, 0, 60, 0
2, 22383, Note_on_c, 0, 56, 0
2, 22392, Note_on_c, 0, 62, 0
2, 22406, Note_on_c, 0, 63, 44
2, 22425, Note_on_c, 0, 63, 0
2, 22449, Note_on_c, 0, 62, 35
2, 22450, Note_on_c, 0, 56, 30
2, 22452, Note_on_c, 0, 65, 30
2, 22452, Note_on_c, 0, 60, 37
2, 22454, Control_c, 0, 64, 0
2, 22471, Control_c, 0, 64, 127
2, 22479, Note_on_c, 0, 56, 0
2, 22482, Note_on_c, 0, 60, 0
2, 22510, Note_on_c, 0, 65, 0
2, 22529, Note_on_c, 0, 38, 38
2, 22530, Note_on_c, 0, 54, 46
2, 22532, Note_on_c, 0, 62, 0
2, 22534, Note_on_c, 0, 38, 0
2, 22567, Note_on_c, 0, 54, 0
2, 22571, Note_on_c, 0, 39, 33
2, 22572, Note_on_c, 0, 27, 32
2, 22573, Control_c, 0, 64, 0
2, 22574, Note_on_c, 0, 55, 36
2, 22590, Control_c, 0, 64, 127
2, 22593, Note_on_c, 0, 27, 0
2, 22597, Note_on_c, 0, 39, 0
2, 22606, Note_on_c, 0, 55, 0
2, 22644, Note_on_c, 0, 63, 39
2, 22648, Note_on_c, 0, 60, 28
2, 22651, Note_on_c, 0, 60, 0
2, 22653, Note_on_c, 0, 63, 0
2, 22682, Note_on_c, 0, 63, 43
2, 22685, Note_on_c, 0, 58, 37
2, 22689, Note_on_c, 0, 63, 0
2, 22695, Note_on_c, 0, 58, 0
2, 22721, Note_on_c, 0, 67, 54
2, 22727, Note_on_c, 0, 67, 0
2, 22759, Note_on_c, 0, 72, 90
2, 22781, Note_on_c, 0, 72, 0
2, 22799, Note_on_c, 0, 73, 74
2, 22800, Note_on_c, 0, 71, 73
2, 22801, Note_on_c, 0, 43, 54
2, 22802, Control_c, 0, 64, 0
2, 22802, Note_on_c, 0, 53, 34
2, 22823, Control_c, 0, 64, 127
2, 22831, Note_on_c, 0, 43, 0
2, 22831, Note_on_c, 0, 71, 0
2, 22833, Note_on_c, 0, 53, 0
2, 22836, Note_on_c, 0, 73, 0
2, 22840, Note_on_c, 0, 74, 72
2, 22848, Note_on_c, 0, 74, 0
2, 22876, Note_on_c, 0, 79, 75
2, 22882, Note_on_c, 0, 74, 36
2, 22889, Note_on_c, 0, 74, 0
2, 22908, Note_on_c, 0, 79, 0
2, 22917, Note_on_c, 0, 53, 49
2, 22919, Note_on_c, 0, 63, 30
2, 22921, Note_on_c, 0, 59, 44
2, 22927, Note_on_c, 0, 59, 0
2, 22932, Note_on_c, 0, 63, 0
2, 22936, Note_on_c, 0, 53, 0
2, 22959, Note_on_c, 0, 83, 63
2, 22960, Note_on_c, 0, 75, 55
2, 22981, Note_on_c, 0, 75, 0
2, 22986, Note_on_c, 0, 83, 0
2, 22996, Note_on_c, 0, 86, 73
2, 23016, Note_on_c, 0, 86, 0
2, 23038, Note_on_c, 0, 63, 32
2, 23039, Note_on_c, 0, 86, 71
2, 23042, Note_on_c, 0, 67, 43
2, 23044, Note_on_c, 0, 79, 42
2, 23044, Note_on_c, 0, 75, 36
2, 23046, Control_c, 0, 64, 0
2, 23066, Control_c, 0, 64, 127
2, 23067, Note_on_c, 0, 86, 0
2, 23080, Note_on_c, 0, 86, 51
2, 23104, Note_on_c, 0, 86, 0
2, 23104, Note_on_c, 0, 75, 0
2, 23106, Note_on_c, 0, 79, 0
2, 23118, Note_on_c, 0, 84, 53
2, 23131, Note_on_c, 0, 84, 0
2, 23145, Note_on_c, 0, 67, 0
2, 23155, Note_on_c, 0, 67, 22
2, 23157, Note_on_c, 0, 87, 65
2, 23162, Note_on_c, 0, 60, 28
2, 23168, Note_on_c, 0, 75, 13
2, 23184, Note_on_c, 0, 67, 0
2, 23194, Note_on_c, 0, 60, 0
2, 23195, Note_on_c, 0, 63, 0
2, 23197, Note_on_c, 0, 87, 0
2, 23197, Note_on_c, 0, 75, 0
2, 23278, Note_on_c, 0, 74, 87
2, 23282, Note_on_c, 0, 62, 48
2, 23282, Note_on_c, 0, 60, 48
2, 23283, Note_on_c, 0, 64, 53
2, 23284, Note_on_c, 0, 67, 63
2, 23284, Note_on_c, 0, 71, 48
2, 23289, Control_c, 0, 64, 0
2, 23310, Note_on_c, 0, 64, 0
2, 23316, Note_on_c, 0, 60, 0
2, 23317, Control_c, 0, 64, 127
2, 23324, Note_on_c, 0, 62, 0
2, 23341, Note_on_c, 0, 55, 45
2, 23347, Note_on_c, 0, 71, 0
2, 23353, Note_on_c, 0, 55, 0
2, 23354, Note_on_c, 0, 67, 0
2, 23360, Note_on_c, 0, 74, 0
2, 23400, Note_on_c, 0, 64, 34
2, 23400, Note_on_c, 0, 68, 44
2, 23400, Note_on_c, 0, 54, 38
2, 23400, Note_on_c, 0, 72, 49
2, 23402, Note_on_c, 0, 60, 30
2, 23405, Control_c, 0, 64, 0
2, 23427, Control_c, 0, 64, 127
2, 23436, Note_on_c, 0, 60, 0
2, 23444, Note_on_c, 0, 72, 0
2, 23446, Note_on_c, 0, 68, 0
2, 23452, Note_on_c, 0, 64, 0
2, 23460, Note_on_c, 0, 50, 33
2, 23461, Note_on_c, 0, 54, 0
2, 23466, Note_on_c, 0, 50, 0
2, 23514, Control_c, 0, 64, 0
2, 23517, Note_on_c, 0, 63, 36
2, 23518, Note_on_c, 0, 43, 37
2, 23518, Note_on_c, 0, 71, 44
2, 23520, Note_on_c, 0, 53, 33
2, 23520, Note_on_c, 0, 59, 38
2, 23521, Note_on_c, 0, 67, 30
2, 23533, Control_c, 0, 64, 127
2, 23556, Note_on_c, 0, 43, 0
2, 23557, Note_on_c, 0, 59, 0
2, 23562, Note_on_c, 0, 53, 0
2, 23580, Note_on_c, 0, 67, 0
2, 23584, Note_on_c, 0, 63, 0
2, 23590, Note_on_c, 0, 71, 0
2, 23640, Note_on_c, 0, 73, 53
2, 23642, Note_on_c, 0, 65, 34
2, 23642, Note_on_c, 0, 63, 36
2, 23642, Note_on_c, 0, 68, 51
2, 23645, Note_on_c, 0, 59, 36
2, 23645, Note_on_c, 0, 53, 29
2, 23645, Control_c, 0, 64, 0
2, 23658, Control_c, 0, 64, 127
2, 23659, Note_on_c, 0, 59, 0
2, 23666, Note_on_c, 0, 63, 0
2, 23667, Note_on_c, 0, 53, 0
2, 23682, Note_on_c, 0, 65, 0
2, 23683, Note_on_c, 0, 73, 0
2, 23685, Note_on_c, 0, 68, 0
2, 23713, Control_c, 0, 64, 0
2, 23714, Note_on_c, 0, 58, 28
2, 23714, Note_on_c, 0, 72, 41
2, 23714, Note_on_c, 0, 64, 34
2, 23715, Note_on_c, 0, 52, 40
2, 23715, Note_on_c, 0, 62, 30
2, 23715, Note_on_c, 0, 68, 43
2, 23731, Control_c, 0, 64, 127
2, 23774, Note_on_c, 0, 62, 0
2, 23774, Note_on_c, 0, 72, 0
2, 23780, Note_on_c, 0, 58, 0
2, 23781, Note_on_c, 0, 52, 0
2, 23784, Note_on_c, 0, 68, 0
2, 23788, Note_on_c, 0, 64, 0
2, 23870, Control_c, 0, 64, 0
2, 23874, Note_on_c, 0, 70, 39
2, 23875, Note_on_c, 0, 61, 45
2, 23875, Note_on_c, 0, 52, 28
2, 23877, Note_on_c, 0, 58, 28
2, 23877, Note_on_c, 0, 42, 27
2, 23881, Note_on_c, 0, 64, 29
2, 23884, Control_c, 0, 64, 127
2, 23894, Note_on_c, 0, 64, 0
2, 23896, Note_on_c, 0, 70, 0
2, 23899, Note_on_c, 0, 52, 0
2, 23902, Note_on_c, 0, 61, 0
2, 23903, Note_on_c, 0, 58, 0
2, 23911, Note_on_c, 0, 42, 0
2, 23946, Note_on_c, 0, 69, 39
2, 23946, Note_on_c, 0, 66, 33
2, 23947, Control_c, 0, 64, 0
2, 23947, Note_on_c, 0, 62, 45
2, 23947, Note_on_c, 0, 57, 31
2, 23948, Note_on_c, 0, 51, 32
2, 23951, Note_on_c, 0, 41, 29
2, 23977, Control_c, 0, 64, 127
2, 24032, Note_on_c, 0, 41, 0
2, 24032, Note_on_c, 0, 57, 0
2, 24041, Note_on_c, 0, 62, 0
2, 24047, Note_on_c, 0, 51, 0
2, 24052, Note_on_c, 0, 66, 0
2, 24062, Note_on_c, 0, 69, 0
2, 24112, Control_c, 0, 64, 0
2, 24115, Note_on_c, 0, 66, 60
2, 24115, Note_on_c, 0, 71, 69
2, 24116, Note_on_c, 0, 62, 62
2, 24120, Note_on_c, 0, 57, 29
2, 24125, Note_on_c, 0, 47, 17
2, 24133, Note_on_c, 0, 66, 0
2, 24136, Note_on_c, 0, 67, 31
2, 24137, Control_c, 0, 64, 127
2, 24148, Note_on_c, 0, 62, 0
2, 24149, Note_on_c, 0, 47, 0
2, 24150, Note_on_c, 0, 71, 0
2, 24151, Note_on_c, 0, 67, 0
2, 24154, Note_on_c, 0, 57, 0
2, 24186, Note_on_c, 0, 70, 46
2, 24188, Note_on_c, 0, 65, 40
2, 24188, Note_on_c, 0, 56, 26
2, 24189, Note_on_c, 0, 46, 33
2, 24189, Note_on_c, 0, 62, 35
2, 24189, Note_on_c, 0, 60, 34
2, 24191, Control_c, 0, 64, 0
2, 24213, Control_c, 0, 64, 127
2, 24217, Note_on_c, 0, 56, 0
2, 24226, Note_on_c, 0, 46, 0
2, 24286, Note_on_c, 0, 60, 0
2, 24287, Note_on_c, 0, 65, 0
2, 24287, Note_on_c, 0, 62, 0
2, 24290, Note_on_c, 0, 70, 0
2, 24301, Note_on_c, 0, 34, 60
2, 24315, Note_on_c, 0, 34, 0
2, 24344, Note_on_c, 0, 65, 52
2, 24381, Note_on_c, 0, 65, 0
2, 24427, Note_on_c, 0, 46, 37
2, 24446, Note_on_c, 0, 46, 0
2, 24472, Control_c, 0, 64, 0
2, 24473, Note_on_c, 0, 67, 48
2, 24474, Note_on_c, 0, 55, 36
2, 24474, Note_on_c, 0, 63, 36
2, 24475, Note_on_c, 0, 39, 48
2, 24484, Note_on_c, 0, 55, 0
2, 24489, Control_c, 0, 64, 127
2, 24496, Note_on_c, 0, 63, 0
2, 24499, Note_on_c, 0, 67, 0
2, 24509, Note_on_c, 0, 39, 0
2, 24512, Note_on_c, 0, 46, 40
2, 24533, Note_on_c, 0, 46, 0
2, 24550, Note_on_c, 0, 70, 52
2, 24552, Note_on_c, 0, 65, 44
2, 24552, Note_on_c, 0, 55, 42
2, 24561, Note_on_c, 0, 65, 0
2, 24568, Note_on_c, 0, 70, 0
2, 24591, Note_on_c, 0, 55, 0
2, 24592, Note_on_c, 0, 58, 39
2, 24632, Note_on_c, 0, 84, 94
2, 24632, Note_on_c, 0, 77, 95
2, 24634, Note_on_c, 0, 62, 34
2, 24663, Note_on_c, 0, 84, 0
2, 24668, Note_on_c, 0, 77, 0
2, 24674, Note_on_c, 0, 67, 47
2, 24674, Note_on_c, 0, 82, 62
2, 24675, Note_on_c, 0, 72, 57
2, 24690, Note_on_c, 0, 67, 0
2, 24702, Note_on_c, 0, 58, 0
2, 24703, Note_on_c, 0, 82, 0
2, 24707, Note_on_c, 0, 72, 0
2, 24709, Note_on_c, 0, 62, 0
2, 24719, Note_on_c, 0, 58, 36
2, 24724, Note_on_c, 0, 58, 0
2, 24755, Note_on_c, 0, 70, 68
2, 24757, Note_on_c, 0, 63, 58
2, 24757, Note_on_c, 0, 59, 59
2, 24761, Note_on_c, 0, 53, 46
2, 24764, Control_c, 0, 64, 0
2, 24781, Control_c, 0, 64, 127
2, 24796, Note_on_c, 0, 68, 55
2, 24799, Note_on_c, 0, 43, 27
2, 24824, Note_on_c, 0, 43, 0
2, 24825, Note_on_c, 0, 53, 0
2, 24834, Note_on_c, 0, 70, 0
2, 24839, Note_on_c, 0, 43, 24
2, 24840, Note_on_c, 0, 63, 0
2, 24842, Note_on_c, 0, 59, 0
2, 24844, Note_on_c, 0, 68, 0
2, 24847, Note_on_c, 0, 43, 0
2, 24872, Note_on_c, 0, 59, 55
2, 24873, Note_on_c, 0, 67, 50
2, 24874, Note_on_c, 0, 53, 42
2, 24875, Note_on_c, 0, 62, 38
2, 24888, Note_on_c, 0, 53, 0
2, 24901, Note_on_c, 0, 62, 0
2, 24901, Note_on_c, 0, 59, 0
2, 24902, Note_on_c, 0, 67, 0
2, 24912, Note_on_c, 0, 47, 33
2, 24944, Note_on_c, 0, 47, 0
2, 24944, Control_c, 0, 64, 0
2, 24950, Note_on_c, 0, 63, 32
2, 24952, Note_on_c, 0, 48, 49
2, 24957, Note_on_c, 0, 60, 24
2, 24962, Note_on_c, 0, 60, 0
2, 24963, Note_on_c, 0, 48, 0
2, 24964, Control_c, 0, 64, 127
2, 24967, Note_on_c, 0, 63, 0
2, 24992, Note_on_c, 0, 75, 65
2, 25011, Note_on_c, 0, 75, 0
2, 25033, Note_on_c, 0, 75, 78
2, 25056, Note_on_c, 0, 75, 0
2, 25075, Note_on_c, 0, 75, 71
2, 25080, Note_on_c, 0, 67, 72
2, 25081, Note_on_c, 0, 60, 62
2, 25082, Note_on_c, 0, 63, 59
2, 25100, Note_on_c, 0, 67, 0
2, 25101, Note_on_c, 0, 63, 0
2, 25112, Note_on_c, 0, 75, 0
2, 25123, Note_on_c, 0, 77, 75
2, 25144, Note_on_c, 0, 77, 0
2, 25154, Note_on_c, 0, 60, 0
2, 25159, Note_on_c, 0, 75, 58
2, 25171, Note_on_c, 0, 75, 0
2, 25201, Note_on_c, 0, 74, 68
2, 25206, Note_on_c, 0, 62, 49
2, 25208, Control_c, 0, 64, 0
2, 25209, Note_on_c, 0, 69, 24
2, 25209, Note_on_c, 0, 64, 17
2, 25212, Note_on_c, 0, 67, 11
2, 25227, Control_c, 0, 64, 127
2, 25241, Note_on_c, 0, 50, 31
2, 25243, Note_on_c, 0, 62, 0
2, 25245, Note_on_c, 0, 67, 0
2, 25250, Note_on_c, 0, 64, 0
2, 25273, Note_on_c, 0, 69, 0
2, 25278, Note_on_c, 0, 67, 36
2, 25278, Note_on_c, 0, 64, 34
2, 25280, Note_on_c, 0, 74, 0
2, 25283, Note_on_c, 0, 67, 0
2, 25289, Note_on_c, 0, 64, 0
2, 25317, Note_on_c, 0, 68, 59
2, 25318, Note_on_c, 0, 60, 45
2, 25319, Note_on_c, 0, 63, 42
2, 25320, Note_on_c, 0, 66, 32
2, 25324, Control_c, 0, 64, 0
2, 25336, Control_c, 0, 64, 127
2, 25343, Note_on_c, 0, 50, 0
2, 25356, Note_on_c, 0, 50, 41
2, 25370, Note_on_c, 0, 50, 0
2, 25380, Note_on_c, 0, 68, 0
2, 25382, Note_on_c, 0, 60, 0
2, 25385, Note_on_c, 0, 63, 0
2, 25386, Note_on_c, 0, 66, 0
2, 25397, Note_on_c, 0, 69, 54
2, 25402, Note_on_c, 0, 63, 18
2, 25410, Note_on_c, 0, 63, 0
2, 25410, Note_on_c, 0, 69, 0
2, 25436, Note_on_c, 0, 43, 44
2, 25441, Control_c, 0, 64, 0
2, 25461, Control_c, 0, 64, 127
2, 25475, Note_on_c, 0, 71, 48
2, 25475, Note_on_c, 0, 63, 33
2, 25476, Note_on_c, 0, 67, 35
2, 25478, Note_on_c, 0, 59, 39
2, 25517, Note_on_c, 0, 59, 0
2, 25522, Note_on_c, 0, 71, 0
2, 25523, Note_on_c, 0, 67, 0
2, 25523, Note_on_c, 0, 63, 0
2, 25561, Note_on_c, 0, 73, 59
2, 25574, Note_on_c, 0, 43, 0
2, 25600, Note_on_c, 0, 73, 0
2, 25631, Note_on_c, 0, 36, 54
2, 25633, Note_on_c, 0, 72, 59
2, 25634, Note_on_c, 0, 64, 44
2, 25640, Control_c, 0, 64, 0
2, 25648, Note_on_c, 0, 36, 0
2, 25652, Control_c, 0, 64, 127
2, 25670, Note_on_c, 0, 64, 0
2, 25685, Note_on_c, 0, 72, 0
2, 25744, Note_on_c, 0, 73, 82
2, 25745, Note_on_c, 0, 70, 73
2, 25745, Note_on_c, 0, 68, 75
2, 25745, Note_on_c, 0, 64, 79
2, 25746, Note_on_c, 0, 58, 64
2, 25774, Note_on_c, 0, 64, 0
2, 25777, Note_on_c, 0, 68, 0
2, 25778, Note_on_c, 0, 73, 0
2, 25781, Note_on_c, 0, 70, 0
2, 25790, Note_on_c, 0, 70, 62
2, 25791, Note_on_c, 0, 68, 43
2, 25791, Note_on_c, 0, 75, 72
2, 25792, Note_on_c, 0, 63, 43
2, 25792, Note_on_c, 0, 64, 55
2, 25795, Note_on_c, 0, 58, 0
2, 25797, Control_c, 0, 64, 0
2, 25808, Control_c, 0, 64, 127
2, 25842, Note_on_c, 0, 70, 0
2, 25843, Note_on_c, 0, 68, 0
2, 25844, Note_on_c, 0, 63, 0
2, 25846, Note_on_c, 0, 64, 0
2, 25858, Note_on_c, 0, 75, 0
2, 25873, Note_on_c, 0, 73, 50
2, 25874, Note_on_c, 0, 61, 39
2, 25875, Note_on_c, 0, 64, 38
2, 25875, Note_on_c, 0, 68, 40
2, 25876, Note_on_c, 0, 70, 45
2, 25882, Note_on_c, 0, 64, 0
2, 25887, Note_on_c, 0, 68, 0
2, 25896, Note_on_c, 0, 73, 0
2, 25897, Note_on_c, 0, 70, 0
2, 25908, Note_on_c, 0, 61, 0
2, 25917, Control_c, 0, 64, 0
2, 25920, Note_on_c, 0, 57, 49
2, 25921, Note_on_c, 0, 72, 49
2, 25921, Note_on_c, 0, 63, 30
2, 25922, Note_on_c, 0, 69, 45
2, 25935, Control_c, 0, 64, 127
2, 25943, Note_on_c, 0, 57, 0
2, 25988, Note_on_c, 0, 69, 0
2, 25993, Note_on_c, 0, 72, 0
2, 25998, Note_on_c, 0, 41, 42
2, 26001, Note_on_c, 0, 63, 0
2, 26002, Note_on_c, 0, 41, 0
2, 26126, Note_on_c, 0, 66, 50
2, 26126, Control_c, 0, 64, 0
2, 26128, Note_on_c, 0, 71, 58
2, 26129, Note_on_c, 0, 62, 30
2, 26133, Note_on_c, 0, 57, 32
2, 26140, Control_c, 0, 64, 127
2, 26141, Note_on_c, 0, 66, 0
2, 26142, Note_on_c, 0, 67, 37
2, 26149, Note_on_c, 0, 62, 0
2, 26151, Note_on_c, 0, 57, 0
2, 26152, Note_on_c, 0, 67, 0
2, 26155, Note_on_c, 0, 71, 0
2, 26177, Note_on_c, 0, 70, 28
2, 26178, Note_on_c, 0, 65, 44
2, 26178, Note_on_c, 0, 60, 28
2, 26180, Note_on_c, 0, 58, 29
2, 26186, Control_c, 0, 64, 0
2, 26205, Control_c, 0, 64, 127
2, 26240, Note_on_c, 0, 65, 0
2, 26248, Note_on_c, 0, 60, 0
2, 26271, Note_on_c, 0, 70, 0
2, 26290, Note_on_c, 0, 58, 0
2, 26292, Note_on_c, 0, 59, 45
2, 26292, Note_on_c, 0, 62, 34
2, 26294, Note_on_c, 0, 65, 33
2, 26325, Note_on_c, 0, 59, 0
2, 26338, Note_on_c, 0, 62, 0
2, 26343, Note_on_c, 0, 65, 0
2, 26406, Note_on_c, 0, 70, 62
2, 26409, Note_on_c, 0, 67, 51
2, 26410, Note_on_c, 0, 53, 33
2, 26411, Note_on_c, 0, 63, 51
2, 26412, Note_on_c, 0, 59, 25
2, 26414, Note_on_c, 0, 58, 35
2, 26414, Control_c, 0, 64, 0
2, 26427, Control_c, 0, 64, 127
2, 26447, Note_on_c, 0, 58, 0
2, 26451, Note_on_c, 0, 67, 0
2, 26451, Note_on_c, 0, 63, 0
2, 26456, Note_on_c, 0, 70, 0
2, 26473, Note_on_c, 0, 53, 0
2, 26474, Note_on_c, 0, 72, 66
2, 26481, Note_on_c, 0, 59, 0
2, 26492, Note_on_c, 0, 72, 0
2, 26527, Note_on_c, 0, 75, 56
2, 26530, Note_on_c, 0, 72, 59
2, 26532, Note_on_c, 0, 68, 46
2, 26532, Note_on_c, 0, 58, 35
2, 26533, Note_on_c, 0, 64, 32
2, 26538, Control_c, 0, 64, 0
2, 26552, Control_c, 0, 64, 127
2, 26558, Note_on_c, 0, 72, 0
2, 26567, Note_on_c, 0, 75, 0
2, 26580, Note_on_c, 0, 68, 0
2, 26588, Note_on_c, 0, 77, 59
2, 26598, Note_on_c, 0, 64, 0
2, 26623, Note_on_c, 0, 77, 0
2, 26623, Note_on_c, 0, 58, 0
2, 26648, Note_on_c, 0, 79, 50
2, 26648, Note_on_c, 0, 63, 33
2, 26648, Note_on_c, 0, 69, 49
2, 26650, Note_on_c, 0, 57, 46
2, 26653, Note_on_c, 0, 75, 31
2, 26653, Control_c, 0, 64, 0
2, 26670, Control_c, 0, 64, 127
2, 26679, Note_on_c, 0, 69, 0
2, 26679, Note_on_c, 0, 79, 0
2, 26687, Note_on_c, 0, 75, 0
2, 26699, Note_on_c, 0, 63, 0
2, 26700, Note_on_c, 0, 57, 0
2, 26708, Note_on_c, 0, 80, 46
2, 26710, Note_on_c, 0, 68, 46
2, 26727, Note_on_c, 0, 68, 0
2, 26730, Note_on_c, 0, 80, 0
2, 26764, Note_on_c, 0, 82, 51
2, 26764, Note_on_c, 0, 62, 34
2, 26764, Control_c, 0, 64, 0
2, 26765, Note_on_c, 0, 70, 38
2, 26765, Note_on_c, 0, 56, 35
2, 26767, Note_on_c, 0, 66, 25
2, 26774, Control_c, 0, 64, 127
2, 26779, Note_on_c, 0, 70, 0
2, 26781, Note_on_c, 0, 82, 0
2, 26794, Note_on_c, 0, 66, 0
2, 26798, Note_on_c, 0, 62, 0
2, 26810, Note_on_c, 0, 56, 0
2, 26827, Note_on_c, 0, 84, 57
2, 26848, Note_on_c, 0, 84, 0
2, 26885, Note_on_c, 0, 82, 37
2, 26886, Control_c, 0, 64, 0
2, 26886, Note_on_c, 0, 46, 34
2, 26888, Note_on_c, 0, 39, 32
2, 26889, Note_on_c, 0, 70, 29
2, 26903, Control_c, 0, 64, 127
2, 26914, Note_on_c, 0, 39, 0
2, 26919, Note_on_c, 0, 46, 0
2, 26957, Note_on_c, 0, 70, 0
2, 27005, Note_on_c, 0, 63, 32
2, 27006, Note_on_c, 0, 67, 36
2, 27031, Note_on_c, 0, 67, 0
2, 27035, Note_on_c, 0, 63, 0
2, 27043, Note_on_c, 0, 82, 0
2, 27120, Note_on_c, 0, 70, 32
2, 27120, Note_on_c, 0, 67, 30
2, 27122, Note_on_c, 0, 58, 28
2, 27122, Note_on_c, 0, 52, 24
2, 27123, Note_on_c, 0, 61, 19
2, 27124, Control_c, 0, 64, 0
2, 27141, Control_c, 0, 64, 127
2, 27147, Note_on_c, 0, 67, 0
2, 27153, Note_on_c, 0, 52, 0
2, 27153, Note_on_c, 0, 70, 0
2, 27160, Note_on_c, 0, 58, 0
2, 27162, Note_on_c, 0, 61, 0
2, 27244, Note_on_c, 0, 64, 26
2, 27246, Note_on_c, 0, 58, 28
2, 27246, Note_on_c, 0, 61, 21
2, 27249, Note_on_c, 0, 55, 24
2, 27254, Note_on_c, 0, 64, 0
2, 27257, Note_on_c, 0, 61, 0
2, 27259, Note_on_c, 0, 55, 0
2, 27260, Note_on_c, 0, 58, 0
2, 27318, Note_on_c, 0, 48, 40
2, 27349, Note_on_c, 0, 48, 0
2, 27360, Control_c, 0, 64, 0
2, 27360, Note_on_c, 0, 56, 35
2, 27362, Note_on_c, 0, 41, 38
2, 27363, Note_on_c, 0, 51, 27
2, 27375, Control_c, 0, 64, 127
2, 27377, Note_on_c, 0, 56, 0
2, 27390, Note_on_c, 0, 41, 0
2, 27401, Note_on_c, 0, 51, 0
2, 27442, Note_on_c, 0, 84, 91
2, 27442, Note_on_c, 0, 80, 64
2, 27442, Note_on_c, 0, 77, 67
2, 27442, Note_on_c, 0, 72, 84
2, 27443, Note_on_c, 0, 76, 80
2, 27446, Note_on_c, 0, 76, 0
2, 27461, Note_on_c, 0, 77, 0
2, 27466, Note_on_c, 0, 72, 0
2, 27469, Note_on_c, 0, 80, 0
2, 27469, Note_on_c, 0, 84, 0
2, 27479, Note_on_c, 0, 84, 76
2, 27480, Control_c, 0, 64, 0
2, 27481, Note_on_c, 0, 80, 53
2, 27481, Note_on_c, 0, 72, 69
2, 27481, Note_on_c, 0, 60, 38
2, 27482, Note_on_c, 0, 77, 68
2, 27482, Note_on_c, 0, 63, 33
2, 27483, Note_on_c, 0, 56, 35
2, 27485, Note_on_c, 0, 53, 32
2, 27496, Control_c, 0, 64, 127
2, 27505, Note_on_c, 0, 72, 0
2, 27507, Note_on_c, 0, 84, 0
2, 27509, Note_on_c, 0, 77, 0
2, 27514, Note_on_c, 0, 80, 0
2, 27518, Note_on_c, 0, 84, 75
2, 27519, Note_on_c, 0, 72, 46
2, 27519, Note_on_c, 0, 80, 35
2, 27521, Note_on_c, 0, 77, 52
2, 27528, Note_on_c, 0, 53, 0
2, 27532, Note_on_c, 0, 60, 0
2, 27535, Note_on_c, 0, 84, 0
2, 27538, Note_on_c, 0, 72, 0
2, 27539, Note_on_c, 0, 63, 0
2, 27539, Note_on_c, 0, 77, 0
2, 27544, Note_on_c, 0, 80, 0
2, 27548, Note_on_c, 0, 56, 0
2, 27558, Note_on_c, 0, 83, 60
2, 27559, Note_on_c, 0, 80, 25
2, 27560, Note_on_c, 0, 77, 49
2, 27561, Note_on_c, 0, 71, 48
2, 27575, Note_on_c, 0, 71, 0
2, 27575, Note_on_c, 0, 83, 0
2, 27585, Note_on_c, 0, 80, 0
2, 27586, Note_on_c, 0, 77, 0
2, 27600, Note_on_c, 0, 82, 46
2, 27601, Note_on_c, 0, 62, 33
2, 27601, Note_on_c, 0, 70, 35
2, 27601, Control_c, 0, 64, 0
2, 27601, Note_on_c, 0, 77, 45
2, 27602, Note_on_c, 0, 56, 35
2, 27602, Note_on_c, 0, 67, 24
2, 27613, Control_c, 0, 64, 127
2, 27619, Note_on_c, 0, 67, 0
2, 27622, Note_on_c, 0, 62, 0
2, 27629, Note_on_c, 0, 56, 0
2, 27631, Note_on_c, 0, 82, 0
2, 27631, Note_on_c, 0, 77, 0
2, 27634, Note_on_c, 0, 70, 0
2, 27665, Note_on_c, 0, 46, 51
2, 27697, Control_c, 0, 64, 0
2, 27700, Note_on_c, 0, 65, 54
2, 27700, Note_on_c, 0, 59, 44
2, 27700, Note_on_c, 0, 62, 40
2, 27702, Note_on_c, 0, 56, 31
2, 27704, Note_on_c, 0, 59, 0
2, 27705, Note_on_c, 0, 62, 0
2, 27705, Control_c, 0, 64, 127
2, 27708, Note_on_c, 0, 65, 0
2, 27714, Note_on_c, 0, 46, 0
2, 27715, Note_on_c, 0, 56, 0
2, 27744, Note_on_c, 0, 71, 63
2, 27746, Note_on_c, 0, 68, 64
2, 27746, Note_on_c, 0, 56, 50
2, 27748, Note_on_c, 0, 64, 50
2, 27755, Note_on_c, 0, 64, 0
2, 27764, Note_on_c, 0, 68, 0
2, 27765, Note_on_c, 0, 71, 0
2, 27797, Note_on_c, 0, 74, 66
2, 27797, Note_on_c, 0, 68, 64
2, 27798, Control_c, 0, 64, 0
2, 27800, Note_on_c, 0, 65, 47
2, 27801, Note_on_c, 0, 59, 63
2, 27801, Note_on_c, 0, 67, 57
2, 27806, Note_on_c, 0, 67, 0
2, 27815, Control_c, 0, 64, 127
2, 27824, Note_on_c, 0, 65, 0
2, 27826, Note_on_c, 0, 59, 0
2, 27828, Note_on_c, 0, 74, 0
2, 27837, Note_on_c, 0, 56, 0
2, 27839, Note_on_c, 0, 68, 0
2, 27852, Note_on_c, 0, 70, 50
2, 27852, Note_on_c, 0, 67, 55
2, 27853, Note_on_c, 0, 62, 34
2, 27853, Note_on_c, 0, 55, 44
2, 27854, Control_c, 0, 64, 0
2, 27872, Control_c, 0, 64, 127
2, 27895, Note_on_c, 0, 43, 57
2, 27897, Note_on_c, 0, 67, 0
2, 27898, Note_on_c, 0, 70, 0
2, 27908, Note_on_c, 0, 43, 0
2, 27913, Note_on_c, 0, 62, 0
2, 27932, Note_on_c, 0, 55, 0
2, 27965, Note_on_c, 0, 70, 59
2, 27968, Note_on_c, 0, 61, 37
2, 27969, Note_on_c, 0, 55, 47
2, 27970, Note_on_c, 0, 65, 49
2, 27986, Note_on_c, 0, 65, 0
2, 27988, Note_on_c, 0, 61, 0
2, 27991, Note_on_c, 0, 70, 0
2, 28003, Note_on_c, 0, 55, 0
2, 28008, Note_on_c, 0, 72, 71
2, 28008, Note_on_c, 0, 62, 54
2, 28008, Note_on_c, 0, 56, 55
2, 28009, Note_on_c, 0, 65, 58
2, 28027, Note_on_c, 0, 65, 0
2, 28027, Note_on_c, 0, 62, 0
2, 28030, Note_on_c, 0, 72, 0
2, 28034, Note_on_c, 0, 56, 0
2, 28040, Note_on_c, 0, 62, 49
2, 28043, Note_on_c, 0, 55, 55
2, 28043, Note_on_c, 0, 70, 29
2, 28046, Note_on_c, 0, 70, 0
2, 28055, Note_on_c, 0, 62, 0
2, 28074, Control_c, 0, 64, 0
2, 28080, Note_on_c, 0, 55, 0
2, 28081, Note_on_c, 0, 63, 51
2, 28082, Note_on_c, 0, 60, 55
2, 28083, Note_on_c, 0, 69, 48
2, 28084, Note_on_c, 0, 66, 36
2, 28084, Note_on_c, 0, 54, 53
2, 28087, Control_c, 0, 64, 127
2, 28088, Note_on_c, 0, 60, 0
2, 28091, Note_on_c, 0, 69, 0
2, 28092, Note_on_c, 0, 63, 0
2, 28092, Note_on_c, 0, 66, 0
2, 28118, Note_on_c, 0, 54, 0
2, 28125, Note_on_c, 0, 75, 62
2, 28126, Note_on_c, 0, 66, 61
2, 28128, Note_on_c, 0, 72, 62
2, 28128, Note_on_c, 0, 69, 67
2, 28128, Note_on_c, 0, 62, 51
2, 28132, Control_c, 0, 64, 0
2, 28144, Control_c, 0, 64, 127
2, 28168, Note_on_c, 0, 72, 0
2, 28169, Note_on_c, 0, 69, 0
2, 28170, Note_on_c, 0, 75, 0
2, 28175, Note_on_c, 0, 66, 0
2, 28178, Note_on_c, 0, 62, 0
2, 28202, Note_on_c, 0, 60, 39
2, 28204, Note_on_c, 0, 72, 51
2, 28205, Note_on_c, 0, 63, 39
2, 28205, Note_on_c, 0, 66, 44
2, 28206, Note_on_c, 0, 69, 42
2, 28209, Control_c, 0, 64, 0
2, 28219, Control_c, 0, 64, 127
2, 28222, Note_on_c, 0, 69, 0
2, 28223, Note_on_c, 0, 72, 0
2, 28226, Note_on_c, 0, 63, 0
2, 28230, Note_on_c, 0, 66, 0
2, 28232, Note_on_c, 0, 60, 0
2, 28283, Note_on_c, 0, 42, 34
2, 28284, Note_on_c, 0, 60, 38
2, 28308, Note_on_c, 0, 60, 0
2, 28308, Note_on_c, 0, 42, 0
2, 28327, Control_c, 0, 64, 0
2, 28327, Note_on_c, 0, 56, 43
2, 28329, Note_on_c, 0, 41, 38
2, 28332, Note_on_c, 0, 51, 17
2, 28340, Control_c, 0, 64, 127
2, 28345, Note_on_c, 0, 56, 0
2, 28350, Note_on_c, 0, 41, 0
2, 28362, Note_on_c, 0, 51, 0
2, 28411, Note_on_c, 0, 75, 69
2, 28412, Note_on_c, 0, 68, 71
2, 28433, Note_on_c, 0, 75, 0
2, 28436, Note_on_c, 0, 68, 0
2, 28450, Note_on_c, 0, 63, 21
2, 28450, Note_on_c, 0, 56, 28
2, 28450, Note_on_c, 0, 60, 32
2, 28451, Note_on_c, 0, 75, 60
2, 28453, Control_c, 0, 64, 0
2, 28453, Note_on_c, 0, 68, 49
2, 28465, Control_c, 0, 64, 127
2, 28480, Note_on_c, 0, 60, 0
2, 28482, Note_on_c, 0, 63, 0
2, 28489, Note_on_c, 0, 56, 0
2, 28490, Note_on_c, 0, 75, 0
2, 28491, Note_on_c, 0, 65, 25
2, 28497, Note_on_c, 0, 65, 0
2, 28497, Note_on_c, 0, 68, 0
2, 28525, Note_on_c, 0, 74, 56
2, 28543, Note_on_c, 0, 74, 0
2, 28562, Control_c, 0, 64, 0
2, 28563, Note_on_c, 0, 46, 39
2, 28565, Note_on_c, 0, 74, 30
2, 28565, Note_on_c, 0, 65, 19
2, 28565, Note_on_c, 0, 71, 40
2, 28565, Note_on_c, 0, 68, 35
2, 28576, Control_c, 0, 64, 127
2, 28578, Note_on_c, 0, 46, 0
2, 28591, Note_on_c, 0, 68, 0
2, 28592, Note_on_c, 0, 65, 0
2, 28602, Note_on_c, 0, 71, 0
2, 28613, Note_on_c, 0, 74, 0
2, 28682, Note_on_c, 0, 68, 32
2, 28684, Note_on_c, 0, 70, 37
2, 28684, Note_on_c, 0, 62, 32
2, 28685, Note_on_c, 0, 65, 26
2, 28688, Note_on_c, 0, 56, 28
2, 28698, Note_on_c, 0, 65, 0
2, 28702, Note_on_c, 0, 68, 0
2, 28703, Note_on_c, 0, 70, 0
2, 28752, Note_on_c, 0, 62, 0
2, 28756, Note_on_c, 0, 56, 0
2, 28762, Note_on_c, 0, 77, 94
2, 28783, Note_on_c, 0, 77, 0
2, 28804, Note_on_c, 0, 61, 37
2, 28804, Note_on_c, 0, 77, 82
2, 28806, Note_on_c, 0, 65, 35
2, 28808, Control_c, 0, 64, 0
2, 28809, Note_on_c, 0, 60, 19
2, 28825, Control_c, 0, 64, 127
2, 28863, Note_on_c, 0, 60, 0
2, 28865, Note_on_c, 0, 65, 0
2, 28882, Note_on_c, 0, 61, 0
2, 28925, Note_on_c, 0, 61, 25
2, 28925, Note_on_c, 0, 57, 43
2, 28925, Note_on_c, 0, 65, 26
2, 28929, Control_c, 0, 64, 0
2, 28944, Control_c, 0, 64, 127
2, 28971, Note_on_c, 0, 57, 0
2, 29006, Note_on_c, 0, 56, 46
2, 29014, Note_on_c, 0, 65, 0
2, 29030, Note_on_c, 0, 56, 0
2, 29047, Note_on_c, 0, 77, 0
2, 29049, Note_on_c, 0, 67, 50
2, 29050, Note_on_c, 0, 75, 52
2, 29052, Note_on_c, 0, 64, 26
2, 29052, Note_on_c, 0, 55, 34
2, 29053, Control_c, 0, 64, 0
2, 29071, Control_c, 0, 64, 127
2, 29081, Note_on_c, 0, 64, 0
2, 29087, Note_on_c, 0, 55, 0
2, 29091, Note_on_c, 0, 61, 0
2, 29094, Note_on_c, 0, 75, 0
2, 29098, Note_on_c, 0, 67, 0
2, 29211, Note_on_c, 0, 67, 44
2, 29220, Note_on_c, 0, 67, 0
2, 29244, Note_on_c, 0, 67, 56
2, 29257, Note_on_c, 0, 67, 0
2, 29282, Note_on_c, 0, 54, 34
2, 29283, Note_on_c, 0, 70, 46
2, 29283, Note_on_c, 0, 67, 49
2, 29285, Note_on_c, 0, 63, 39
2, 29286, Note_on_c, 0, 60, 33
2, 29286, Note_on_c, 0, 55, 50
2, 29287, Note_on_c, 0, 54, 0
2, 29287, Control_c, 0, 64, 0
2, 29310, Control_c, 0, 64, 127
2, 29337, Note_on_c, 0, 55, 0
2, 29342, Note_on_c, 0, 63, 0
2, 29342, Note_on_c, 0, 60, 0
2, 29347, Note_on_c, 0, 67, 0
2, 29349, Note_on_c, 0, 70, 0
2, 29361, Note_on_c, 0, 68, 48
2, 29362, Note_on_c, 0, 60, 41
2, 29363, Note_on_c, 0, 53, 34
2, 29363, Note_on_c, 0, 63, 34
2, 29365, Control_c, 0, 64, 0
2, 29379, Control_c, 0, 64, 127
2, 29386, Note_on_c, 0, 53, 0
2, 29387, Note_on_c, 0, 60, 0
2, 29390, Note_on_c, 0, 63, 0
2, 29393, Note_on_c, 0, 68, 0
2, 29402, Control_c, 0, 64, 0
2, 29406, Note_on_c, 0, 63, 26
2, 29406, Note_on_c, 0, 70, 34
2, 29407, Note_on_c, 0, 67, 33
2, 29408, Note_on_c, 0, 55, 43
2, 29408, Note_on_c, 0, 60, 34
2, 29417, Control_c, 0, 64, 127
2, 29426, Note_on_c, 0, 60, 0
2, 29429, Note_on_c, 0, 63, 0
2, 29431, Note_on_c, 0, 70, 0
2, 29431, Note_on_c, 0, 67, 0
2, 29438, Note_on_c, 0, 55, 0
2, 29443, Note_on_c, 0, 53, 39
2, 29444, Note_on_c, 0, 68, 38
2, 29444, Note_on_c, 0, 60, 38
2, 29446, Note_on_c, 0, 63, 21
2, 29448, Note_on_c, 0, 53, 0
2, 29451, Note_on_c, 0, 60, 0
2, 29452, Note_on_c, 0, 63, 0
2, 29459, Note_on_c, 0, 68, 0
2, 29516, Note_on_c, 0, 63, 48
2, 29517, Note_on_c, 0, 67, 44
2, 29518, Control_c, 0, 64, 0
2, 29518, Note_on_c, 0, 70, 47
2, 29520, Note_on_c, 0, 37, 43
2, 29522, Note_on_c, 0, 59, 29
2, 29544, Control_c, 0, 64, 127
2, 29549, Note_on_c, 0, 44, 46
2, 29550, Note_on_c, 0, 37, 0
2, 29563, Note_on_c, 0, 59, 0
2, 29563, Note_on_c, 0, 67, 0
2, 29568, Note_on_c, 0, 44, 0
2, 29569, Note_on_c, 0, 63, 0
2, 29581, Note_on_c, 0, 53, 43
2, 29586, Note_on_c, 0, 53, 0
2, 29592, Note_on_c, 0, 70, 0
2, 29609, Note_on_c, 0, 53, 29
2, 29627, Note_on_c, 0, 53, 0
2, 29638, Note_on_c, 0, 53, 19
2, 29640, Note_on_c, 0, 68, 48
2, 29640, Note_on_c, 0, 63, 46
2, 29641, Note_on_c, 0, 59, 42
2, 29649, Control_c, 0, 64, 0
2, 29651, Note_on_c, 0, 58, 21
2, 29667, Control_c, 0, 64, 127
2, 29675, Note_on_c, 0, 53, 0
2, 29699, Note_on_c, 0, 59, 0
2, 29706, Note_on_c, 0, 58, 0
2, 29710, Note_on_c, 0, 63, 0
2, 29721, Note_on_c, 0, 68, 0
2, 29757, Note_on_c, 0, 67, 48
2, 29757, Note_on_c, 0, 53, 46
2, 29758, Note_on_c, 0, 59, 41
2, 29758, Note_on_c, 0, 63, 34
2, 29760, Control_c, 0, 64, 0
2, 29788, Control_c, 0, 64, 127
2, 29824, Note_on_c, 0, 59, 0
2, 29824, Note_on_c, 0, 67, 0
2, 29829, Note_on_c, 0, 53, 0
2, 29831, Note_on_c, 0, 63, 0
2, 29844, Note_on_c, 0, 67, 33
2, 29862, Note_on_c, 0, 67, 0
2, 29886, Note_on_c, 0, 67, 52
2, 29889, Note_on_c, 0, 58, 35
2, 29889, Note_on_c, 0, 52, 38
2, 29891, Note_on_c, 0, 62, 42
2, 29892, Control_c, 0, 64, 0
2, 29914, Control_c, 0, 64, 127
2, 29931, Note_on_c, 0, 67, 0
2, 29959, Note_on_c, 0, 67, 42
2, 29965, Note_on_c, 0, 62, 0
2, 29972, Note_on_c, 0, 58, 0
2, 29980, Note_on_c, 0, 67, 0
2, 29998, Note_on_c, 0, 52, 0
2, 30001, Note_on_c, 0, 51, 37
2, 30002, Note_on_c, 0, 65, 48
2, 30003, Note_on_c, 0, 61, 35
2, 30004, Control_c, 0, 64, 0
2, 30007, Note_on_c, 0, 57, 16
2, 30021, Control_c, 0, 64, 127
2, 30056, Note_on_c, 0, 57, 0
2, 30063, Note_on_c, 0, 61, 0
2, 30069, Note_on_c, 0, 65, 0
2, 30080, Note_on_c, 0, 63, 37
2, 30091, Note_on_c, 0, 63, 0
2, 30118, Note_on_c, 0, 51, 0
2, 30122, Note_on_c, 0, 65, 35
2, 30122, Control_c, 0, 64, 0
2, 30123, Note_on_c, 0, 59, 32
2, 30123, Note_on_c, 0, 56, 24
2, 30123, Note_on_c, 0, 50, 34
2, 30142, Control_c, 0, 64, 127
2, 30156, Note_on_c, 0, 50, 0
2, 30190, Note_on_c, 0, 56, 0
2, 30207, Note_on_c, 0, 59, 0
2, 30212, Note_on_c, 0, 65, 0
2, 30318, Note_on_c, 0, 70, 67
2, 30318, Note_on_c, 0, 63, 68
2, 30320, Note_on_c, 0, 59, 63
2, 30322, Note_on_c, 0, 53, 44
2, 30322, Note_on_c, 0, 43, 36
2, 30325, Control_c, 0, 64, 0
2, 30345, Control_c, 0, 64, 127
2, 30363, Note_on_c, 0, 43, 0
2, 30374, Note_on_c, 0, 53, 0
2, 30380, Note_on_c, 0, 70, 0
2, 30389, Note_on_c, 0, 68, 63
2, 30400, Note_on_c, 0, 59, 0
2, 30417, Note_on_c, 0, 68, 0
2, 30424, Note_on_c, 0, 63, 0
2, 30474, Note_on_c, 0, 66, 48
2, 30475, Note_on_c, 0, 36, 51
2, 30476, Note_on_c, 0, 58, 30
2, 30477, Note_on_c, 0, 61, 39
2, 30481, Control_c, 0, 64, 0
2, 30501, Control_c, 0, 64, 127
2, 30537, Note_on_c, 0, 36, 0
2, 30558, Note_on_c, 0, 58, 0
2, 30559, Note_on_c, 0, 61, 0
2, 30572, Note_on_c, 0, 66, 0
2, 30598, Note_on_c, 0, 58, 34
2, 30599, Note_on_c, 0, 67, 36
2, 30600, Note_on_c, 0, 64, 43
2, 30601, Note_on_c, 0, 52, 34
2, 30606, Control_c, 0, 64, 0
2, 30615, Control_c, 0, 64, 127
2, 30627, Note_on_c, 0, 67, 0
2, 30631, Note_on_c, 0, 58, 0
2, 30631, Note_on_c, 0, 52, 0
2, 30634, Note_on_c, 0, 64, 0
2, 30678, Note_on_c, 0, 48, 39
2, 30711, Note_on_c, 0, 48, 0
2, 30723, Control_c, 0, 64, 0
2, 30726, Note_on_c, 0, 56, 39
2, 30726, Note_on_c, 0, 41, 35
2, 30726, Note_on_c, 0, 51, 31
2, 30728, Note_on_c, 0, 53, 35
2, 30733, Note_on_c, 0, 53, 0
2, 30736, Control_c, 0, 64, 127
2, 30745, Note_on_c, 0, 56, 0
2, 30748, Note_on_c, 0, 41, 0
2, 30758, Note_on_c, 0, 51, 0
2, 30802, Note_on_c, 0, 75, 77
2, 30822, Note_on_c, 0, 75, 0
2, 30844, Note_on_c, 0, 63, 30
2, 30845, Note_on_c, 0, 60, 33
2, 30847, Note_on_c, 0, 56, 31
2, 30847, Note_on_c, 0, 53, 32
2, 30847, Note_on_c, 0, 75, 71
2, 30859, Note_on_c, 0, 75, 0
2, 30902, Note_on_c, 0, 53, 0
2, 30906, Note_on_c, 0, 60, 0
2, 30919, Note_on_c, 0, 79, 68
2, 30920, Note_on_c, 0, 56, 0
2, 30921, Note_on_c, 0, 63, 0
2, 30936, Note_on_c, 0, 79, 0
2, 30973, Note_on_c, 0, 78, 60
2, 30974, Note_on_c, 0, 62, 38
2, 30975, Note_on_c, 0, 66, 35
2, 30976, Control_c, 0, 64, 0
2, 30977, Note_on_c, 0, 56, 31
2, 30990, Control_c, 0, 64, 127
2, 31011, Note_on_c, 0, 66, 0
2, 31016, Note_on_c, 0, 62, 0
2, 31025, Note_on_c, 0, 56, 0
2, 31026, Note_on_c, 0, 78, 0
2, 31034, Note_on_c, 0, 82, 52
2, 31051, Note_on_c, 0, 82, 0
2, 31090, Note_on_c, 0, 85, 56
2, 31092, Note_on_c, 0, 73, 33
2, 31093, Note_on_c, 0, 56, 23
2, 31098, Note_on_c, 0, 73, 0
2, 31104, Note_on_c, 0, 85, 0
2, 31157, Note_on_c, 0, 56, 0
2, 31170, Note_on_c, 0, 94, 57
2, 31173, Note_on_c, 0, 82, 25
2, 31210, Note_on_c, 0, 82, 0
2, 31212, Note_on_c, 0, 94, 0
2, 31286, Note_on_c, 0, 39, 43
2, 31286, Note_on_c, 0, 101, 48
2, 31287, Note_on_c, 0, 89, 48
2, 31289, Control_c, 0, 64, 0
2, 31301, Control_c, 0, 64, 127
2, 31316, Note_on_c, 0, 39, 0
2, 31321, Note_on_c, 0, 46, 33
2, 31330, Note_on_c, 0, 89, 0
2, 31340, Note_on_c, 0, 46, 0
2, 31342, Note_on_c, 0, 101, 0
2, 31354, Note_on_c, 0, 98, 50
2, 31355, Note_on_c, 0, 89, 29
2, 31355, Note_on_c, 0, 55, 46
2, 31357, Note_on_c, 0, 94, 27
2, 31361, Note_on_c, 0, 94, 0
2, 31364, Note_on_c, 0, 98, 0
2, 31369, Note_on_c, 0, 89, 0
2, 31383, Note_on_c, 0, 55, 0
2, 31386, Note_on_c, 0, 58, 31
2, 31419, Note_on_c, 0, 62, 30
2, 31422, Note_on_c, 0, 77, 39
2, 31423, Note_on_c, 0, 82, 38
2, 31435, Note_on_c, 0, 62, 0
2, 31436, Note_on_c, 0, 77, 0
2, 31448, Note_on_c, 0, 82, 0
2, 31458, Note_on_c, 0, 67, 22
2, 31490, Note_on_c, 0, 67, 0
2, 31495, Note_on_c, 0, 89, 49
2, 31497, Note_on_c, 0, 96, 48
2, 31534, Note_on_c, 0, 67, 35
2, 31535, Note_on_c, 0, 89, 0
2, 31537, Note_on_c, 0, 67, 0
2, 31545, Note_on_c, 0, 58, 0
2, 31579, Note_on_c, 0, 39, 30
2, 31579, Note_on_c, 0, 89, 30
2, 31580, Note_on_c, 0, 84, 25
2, 31588, Note_on_c, 0, 89, 0
2, 31588, Note_on_c, 0, 96, 0
2, 31595, Note_on_c, 0, 84, 0
2, 31613, Note_on_c, 0, 39, 0
2, 31615, Note_on_c, 0, 46, 34
2, 31636, Note_on_c, 0, 46, 0
2, 31657, Note_on_c, 0, 62, 24
2, 31658, Note_on_c, 0, 55, 41
2, 31658, Note_on_c, 0, 65, 28
2, 31665, Note_on_c, 0, 62, 0
2, 31666, Note_on_c, 0, 65, 0
2, 31692, Note_on_c, 0, 55, 0
2, 31700, Note_on_c, 0, 58, 30
2, 31739, Note_on_c, 0, 84, 32
2, 31740, Note_on_c, 0, 77, 24
2, 31742, Note_on_c, 0, 62, 26
2, 31750, Note_on_c, 0, 77, 0
2, 31759, Note_on_c, 0, 84, 0
2, 31772, Note_on_c, 0, 62, 0
2, 31781, Note_on_c, 0, 62, 22
2, 31821, Note_on_c, 0, 62, 0
2, 31826, Note_on_c, 0, 96, 56
2, 31829, Note_on_c, 0, 67, 24
2, 31829, Note_on_c, 0, 89, 30
2, 31829, Note_on_c, 0, 84, 34
2, 31830, Note_on_c, 0, 86, 30
2, 31848, Note_on_c, 0, 67, 0
2, 31876, Note_on_c, 0, 58, 0
2, 31876, Note_on_c, 0, 62, 25
2, 31882, Note_on_c, 0, 62, 0
2, 31941, Note_on_c, 0, 86, 0
2, 31964, Note_on_c, 0, 84, 0
2, 31968, Note_on_c, 0, 89, 0
2, 31971, Note_on_c, 0, 96, 0
2, 31984, Note_on_c, 0, 27, 31
2, 31985, Note_on_c, 0, 39, 25
2, 32015, Note_on_c, 0, 39, 0
2, 32016, Note_on_c, 0, 27, 0
2, 32307, Control_c, 0, 64, 0
2, 32307, End_track
3, 0, Start_track
3, 0, MIDI_port, 0
3, 0, End_track
0, 0, End_of_file
