0, 0, Header, 1, 8, 120
1, 0, Start_track
1, 0, Title_t, "Zingaro"
1, 0, Text_t, "Antonio Carlos Jobim\012"
1, 0, Text_t, "dougmck@pipeline.com.au\012"
1, 0, Time_signature, 4, 2, 24, 8
1, 0, Key_signature, 0, "major"
1, 0, Tempo, 400000
1, 0, End_track
2, 0, Start_track
2, 0, Title_t, "Doug McKenzie"
2, 0, Program_c, 0, 0
2, 13, Note_on_c, 0, 52, 40
2, 66, Control_c, 0, 64, 127
2, 123, Note_on_c, 0, 59, 33
2, 185, Note_on_c, 0, 59, 0
2, 188, Control_c, 0, 64, 0
2, 192, Note_on_c, 0, 60, 44
2, 241, Control_c, 0, 64, 127
2, 273, Note_on_c, 0, 60, 0
2, 300, Note_on_c, 0, 60, 35
2, 337, Note_on_c, 0, 60, 0
2, 363, Note_on_c, 0, 59, 38
2, 430, Note_on_c, 0, 52, 0
2, 475, Note_on_c, 0, 52, 52
2, 486, Control_c, 0, 64, 0
2, 534, Note_on_c, 0, 83, 53
2, 546, Note_on_c, 0, 83, 0
2, 549, Note_on_c, 0, 59, 0
2, 596, Note_on_c, 0, 88, 58
2, 604, Note_on_c, 0, 88, 0
2, 651, Note_on_c, 0, 90, 77
2, 658, Note_on_c, 0, 59, 39
2, 663, Note_on_c, 0, 90, 0
2, 715, Note_on_c, 0, 90, 78
2, 720, Note_on_c, 0, 91, 79
2, 725, Note_on_c, 0, 60, 45
2, 727, Note_on_c, 0, 90, 0
2, 746, Note_on_c, 0, 59, 0
2, 781, Note_on_c, 0, 90, 76
2, 788, Note_on_c, 0, 91, 0
2, 804, Note_on_c, 0, 90, 0
2, 837, Note_on_c, 0, 88, 71
2, 849, Note_on_c, 0, 88, 0
2, 901, Note_on_c, 0, 83, 51
2, 911, Note_on_c, 0, 59, 26
2, 912, Note_on_c, 0, 83, 0
2, 912, Control_c, 0, 64, 127
2, 923, Note_on_c, 0, 52, 0
2, 924, Note_on_c, 0, 60, 0
2, 965, Control_c, 0, 64, 0
2, 966, Note_on_c, 0, 51, 40
2, 966, Note_on_c, 0, 88, 59
2, 970, Note_on_c, 0, 59, 0
2, 1072, Note_on_c, 0, 88, 0
2, 1076, Note_on_c, 0, 86, 54
2, 1077, Note_on_c, 0, 59, 24
2, 1088, Control_c, 0, 64, 127
2, 1146, Note_on_c, 0, 59, 0
2, 1146, Note_on_c, 0, 86, 0
2, 1149, Note_on_c, 0, 83, 36
2, 1153, Control_c, 0, 64, 0
2, 1171, Note_on_c, 0, 60, 6
2, 1179, Control_c, 0, 64, 127
2, 1246, Note_on_c, 0, 60, 0
2, 1323, Note_on_c, 0, 60, 53
2, 1331, Control_c, 0, 64, 0
2, 1369, Control_c, 0, 64, 127
2, 1391, Note_on_c, 0, 59, 37
2, 1404, Note_on_c, 0, 51, 0
2, 1433, Note_on_c, 0, 59, 0
2, 1439, Control_c, 0, 64, 0
2, 1447, Note_on_c, 0, 51, 37
2, 1499, Control_c, 0, 64, 127
2, 1516, Control_c, 0, 64, 0
2, 1550, Control_c, 0, 64, 127
2, 1571, Note_on_c, 0, 83, 0
2, 1583, Note_on_c, 0, 60, 0
2, 1619, Note_on_c, 0, 59, 33
2, 1677, Note_on_c, 0, 87, 77
2, 1682, Note_on_c, 0, 60, 47
2, 1682, Note_on_c, 0, 88, 81
2, 1684, Control_c, 0, 64, 0
2, 1690, Note_on_c, 0, 87, 0
2, 1692, Note_on_c, 0, 59, 0
2, 1739, Note_on_c, 0, 88, 0
2, 1739, Control_c, 0, 64, 127
2, 1756, Note_on_c, 0, 87, 83
2, 1757, Control_c, 0, 64, 0
2, 1769, Note_on_c, 0, 59, 26
2, 1794, Control_c, 0, 64, 127
2, 1819, Note_on_c, 0, 87, 0
2, 1839, Note_on_c, 0, 84, 56
2, 1869, Note_on_c, 0, 84, 0
2, 1871, Note_on_c, 0, 83, 49
2, 1874, Note_on_c, 0, 51, 0
2, 1900, Note_on_c, 0, 60, 0
2, 1907, Note_on_c, 0, 59, 0
2, 1907, Note_on_c, 0, 83, 0
2, 1919, Note_on_c, 0, 86, 71
2, 1924, Control_c, 0, 64, 0
2, 1926, Note_on_c, 0, 52, 13
2, 2022, Control_c, 0, 64, 127
2, 2022, Note_on_c, 0, 59, 30
2, 2091, Note_on_c, 0, 59, 0
2, 2092, Note_on_c, 0, 83, 46
2, 2093, Note_on_c, 0, 86, 0
2, 2104, Note_on_c, 0, 60, 20
2, 2106, Control_c, 0, 64, 0
2, 2172, Control_c, 0, 64, 127
2, 2177, Note_on_c, 0, 83, 0
2, 2177, Note_on_c, 0, 84, 69
2, 2255, Note_on_c, 0, 84, 0
2, 2258, Note_on_c, 0, 79, 35
2, 2296, Note_on_c, 0, 52, 0
2, 2302, Note_on_c, 0, 59, 1
2, 2323, Note_on_c, 0, 79, 0
2, 2332, Note_on_c, 0, 83, 52
2, 2339, Note_on_c, 0, 52, 39
2, 2340, Note_on_c, 0, 59, 0
2, 2340, Note_on_c, 0, 60, 0
2, 2344, Control_c, 0, 64, 0
2, 2423, Control_c, 0, 64, 127
2, 2461, Control_c, 0, 64, 0
2, 2463, Note_on_c, 0, 59, 27
2, 2463, Note_on_c, 0, 78, 31
2, 2501, Note_on_c, 0, 78, 0
2, 2502, Note_on_c, 0, 83, 0
2, 2520, Control_c, 0, 64, 127
2, 2525, Note_on_c, 0, 74, 30
2, 2533, Control_c, 0, 64, 0
2, 2561, Note_on_c, 0, 74, 0
2, 2581, Note_on_c, 0, 59, 0
2, 2590, Note_on_c, 0, 60, 20
2, 2609, Note_on_c, 0, 60, 0
2, 2645, Note_on_c, 0, 60, 36
2, 2647, Note_on_c, 0, 76, 45
2, 2744, Note_on_c, 0, 76, 0
2, 2756, Note_on_c, 0, 71, 36
2, 2771, Note_on_c, 0, 71, 0
2, 2815, Note_on_c, 0, 60, 0
2, 2820, Note_on_c, 0, 59, 34
2, 2824, Note_on_c, 0, 52, 0
2, 2880, Note_on_c, 0, 51, 44
2, 2881, Note_on_c, 0, 59, 0
2, 3050, Note_on_c, 0, 76, 71
2, 3072, Note_on_c, 0, 76, 0
2, 3085, Note_on_c, 0, 75, 62
2, 3104, Note_on_c, 0, 75, 0
2, 3128, Note_on_c, 0, 72, 66
2, 3132, Note_on_c, 0, 59, 25
2, 3153, Note_on_c, 0, 72, 0
2, 3169, Note_on_c, 0, 71, 41
2, 3188, Note_on_c, 0, 71, 0
2, 3208, Note_on_c, 0, 76, 71
2, 3230, Note_on_c, 0, 59, 0
2, 3232, Note_on_c, 0, 76, 0
2, 3246, Note_on_c, 0, 75, 62
2, 3269, Note_on_c, 0, 75, 0
2, 3287, Note_on_c, 0, 72, 46
2, 3318, Note_on_c, 0, 71, 69
2, 3319, Note_on_c, 0, 72, 0
2, 3332, Note_on_c, 0, 59, 12
2, 3334, Note_on_c, 0, 51, 0
2, 3344, Note_on_c, 0, 71, 0
2, 3363, Note_on_c, 0, 76, 69
2, 3366, Note_on_c, 0, 59, 0
2, 3367, Note_on_c, 0, 51, 52
2, 3399, Note_on_c, 0, 75, 67
2, 3409, Note_on_c, 0, 76, 0
2, 3427, Note_on_c, 0, 75, 0
2, 3440, Note_on_c, 0, 72, 53
2, 3465, Note_on_c, 0, 72, 0
2, 3474, Note_on_c, 0, 71, 60
2, 3497, Note_on_c, 0, 71, 0
2, 3520, Note_on_c, 0, 76, 89
2, 3521, Note_on_c, 0, 59, 38
2, 3556, Note_on_c, 0, 75, 81
2, 3569, Note_on_c, 0, 76, 0
2, 3589, Note_on_c, 0, 75, 0
2, 3597, Note_on_c, 0, 72, 64
2, 3603, Note_on_c, 0, 60, 71
2, 3613, Note_on_c, 0, 59, 0
2, 3637, Note_on_c, 0, 71, 67
2, 3643, Note_on_c, 0, 72, 0
2, 3662, Note_on_c, 0, 51, 0
2, 3663, Note_on_c, 0, 71, 0
2, 3678, Note_on_c, 0, 76, 90
2, 3713, Note_on_c, 0, 51, 57
2, 3717, Note_on_c, 0, 75, 71
2, 3729, Note_on_c, 0, 74, 54
2, 3738, Note_on_c, 0, 75, 0
2, 3747, Note_on_c, 0, 76, 0
2, 3748, Note_on_c, 0, 74, 0
2, 3765, Note_on_c, 0, 72, 46
2, 3768, Note_on_c, 0, 51, 0
2, 3797, Note_on_c, 0, 71, 64
2, 3806, Note_on_c, 0, 72, 0
2, 3828, Note_on_c, 0, 71, 0
2, 3839, Note_on_c, 0, 60, 0
2, 3843, Note_on_c, 0, 52, 40
2, 3850, Note_on_c, 0, 76, 68
2, 3920, Note_on_c, 0, 71, 51
2, 3978, Note_on_c, 0, 71, 0
2, 3980, Note_on_c, 0, 69, 46
2, 3999, Note_on_c, 0, 76, 0
2, 4030, Note_on_c, 0, 71, 51
2, 4032, Note_on_c, 0, 69, 0
2, 4035, Note_on_c, 0, 59, 32
2, 4070, Note_on_c, 0, 71, 0
2, 4091, Note_on_c, 0, 66, 48
2, 4182, Note_on_c, 0, 59, 0
2, 4263, Note_on_c, 0, 59, 42
2, 4272, Note_on_c, 0, 52, 0
2, 4311, Note_on_c, 0, 59, 0
2, 4324, Note_on_c, 0, 52, 38
2, 4430, Note_on_c, 0, 59, 36
2, 4495, Note_on_c, 0, 59, 0
2, 4501, Note_on_c, 0, 60, 47
2, 4584, Note_on_c, 0, 60, 0
2, 4616, Note_on_c, 0, 60, 44
2, 4651, Note_on_c, 0, 60, 0
2, 4677, Note_on_c, 0, 59, 36
2, 4685, Note_on_c, 0, 52, 0
2, 4787, Note_on_c, 0, 59, 0
2, 4790, Note_on_c, 0, 66, 0
2, 4791, Note_on_c, 0, 51, 37
2, 4915, Note_on_c, 0, 59, 19
2, 4973, Note_on_c, 0, 64, 31
2, 4986, Note_on_c, 0, 64, 0
2, 5032, Note_on_c, 0, 66, 67
2, 5061, Note_on_c, 0, 67, 66
2, 5071, Note_on_c, 0, 66, 0
2, 5141, Note_on_c, 0, 51, 0
2, 5146, Note_on_c, 0, 67, 0
2, 5151, Note_on_c, 0, 66, 57
2, 5197, Note_on_c, 0, 66, 0
2, 5203, Note_on_c, 0, 67, 40
2, 5222, Note_on_c, 0, 66, 47
2, 5230, Note_on_c, 0, 67, 0
2, 5250, Note_on_c, 0, 64, 36
2, 5252, Note_on_c, 0, 66, 0
2, 5274, Note_on_c, 0, 64, 0
2, 5276, Note_on_c, 0, 51, 35
2, 5282, Note_on_c, 0, 66, 52
2, 5289, Note_on_c, 0, 59, 0
2, 5404, Control_c, 0, 64, 127
2, 5461, Note_on_c, 0, 66, 0
2, 5464, Note_on_c, 0, 64, 50
2, 5466, Note_on_c, 0, 59, 30
2, 5490, Control_c, 0, 64, 0
2, 5494, Note_on_c, 0, 64, 0
2, 5523, Note_on_c, 0, 59, 0
2, 5534, Note_on_c, 0, 63, 37
2, 5541, Note_on_c, 0, 60, 15
2, 5543, Control_c, 0, 64, 127
2, 5619, Note_on_c, 0, 60, 0
2, 5646, Note_on_c, 0, 59, 20
2, 5661, Note_on_c, 0, 51, 0
2, 5708, Note_on_c, 0, 66, 47
2, 5714, Note_on_c, 0, 51, 25
2, 5735, Note_on_c, 0, 51, 0
2, 5748, Note_on_c, 0, 63, 0
2, 5765, Note_on_c, 0, 59, 0
2, 5768, Note_on_c, 0, 66, 0
2, 5775, Note_on_c, 0, 64, 37
2, 5777, Note_on_c, 0, 52, 28
2, 5781, Control_c, 0, 64, 0
2, 5843, Control_c, 0, 64, 127
2, 5863, Control_c, 0, 64, 0
2, 5880, Control_c, 0, 64, 127
2, 5951, Note_on_c, 0, 64, 0
2, 5951, Note_on_c, 0, 63, 50
2, 6012, Note_on_c, 0, 63, 0
2, 6017, Control_c, 0, 64, 0
2, 6020, Note_on_c, 0, 60, 27
2, 6074, Control_c, 0, 64, 127
2, 6080, Note_on_c, 0, 60, 0
2, 6081, Note_on_c, 0, 59, 45
2, 6141, Note_on_c, 0, 59, 0
2, 6185, Note_on_c, 0, 52, 0
2, 6196, Note_on_c, 0, 59, 24
2, 6236, Note_on_c, 0, 59, 0
2, 6254, Note_on_c, 0, 52, 36
2, 6255, Control_c, 0, 64, 0
2, 6293, Control_c, 0, 64, 127
2, 6332, Note_on_c, 0, 59, 31
2, 6403, Note_on_c, 0, 59, 0
2, 6423, Note_on_c, 0, 71, 46
2, 6423, Note_on_c, 0, 59, 20
2, 6425, Note_on_c, 0, 67, 44
2, 6456, Note_on_c, 0, 59, 0
2, 6461, Note_on_c, 0, 67, 0
2, 6491, Note_on_c, 0, 71, 0
2, 6598, Note_on_c, 0, 76, 74
2, 6599, Note_on_c, 0, 72, 76
2, 6599, Note_on_c, 0, 67, 76
2, 6605, Note_on_c, 0, 59, 43
2, 6634, Note_on_c, 0, 59, 0
2, 6677, Note_on_c, 0, 72, 0
2, 6681, Note_on_c, 0, 59, 24
2, 6690, Note_on_c, 0, 76, 0
2, 6691, Note_on_c, 0, 52, 0
2, 6692, Note_on_c, 0, 67, 0
2, 6730, Note_on_c, 0, 75, 62
2, 6731, Note_on_c, 0, 66, 64
2, 6732, Note_on_c, 0, 71, 70
2, 6745, Control_c, 0, 64, 0
2, 6797, Note_on_c, 0, 51, 42
2, 6813, Note_on_c, 0, 59, 0
2, 6838, Control_c, 0, 64, 127
2, 6913, Note_on_c, 0, 59, 18
2, 6933, Note_on_c, 0, 59, 0
2, 6984, Note_on_c, 0, 60, 48
2, 7052, Control_c, 0, 64, 0
2, 7063, Note_on_c, 0, 60, 0
2, 7089, Note_on_c, 0, 59, 17
2, 7100, Control_c, 0, 64, 127
2, 7116, Note_on_c, 0, 51, 0
2, 7156, Note_on_c, 0, 51, 43
2, 7167, Note_on_c, 0, 59, 0
2, 7171, Control_c, 0, 64, 0
2, 7202, Control_c, 0, 64, 127
2, 7274, Note_on_c, 0, 59, 20
2, 7294, Note_on_c, 0, 59, 0
2, 7329, Note_on_c, 0, 66, 0
2, 7361, Note_on_c, 0, 71, 0
2, 7368, Note_on_c, 0, 75, 0
2, 7387, Note_on_c, 0, 59, 25
2, 7436, Note_on_c, 0, 59, 0
2, 7451, Note_on_c, 0, 60, 35
2, 7473, Control_c, 0, 64, 0
2, 7568, Control_c, 0, 64, 127
2, 7629, Note_on_c, 0, 59, 41
2, 7631, Note_on_c, 0, 51, 0
2, 7669, Note_on_c, 0, 60, 0
2, 7684, Note_on_c, 0, 59, 0
2, 7687, Note_on_c, 0, 52, 55
2, 7687, Note_on_c, 0, 71, 105
2, 7698, Control_c, 0, 64, 0
2, 7793, Note_on_c, 0, 70, 49
2, 7795, Note_on_c, 0, 71, 0
2, 7797, Note_on_c, 0, 59, 30
2, 7804, Control_c, 0, 64, 127
2, 7858, Note_on_c, 0, 70, 0
2, 7867, Note_on_c, 0, 59, 0
2, 7870, Note_on_c, 0, 72, 66
2, 7874, Note_on_c, 0, 60, 48
2, 7875, Control_c, 0, 64, 0
2, 7925, Control_c, 0, 64, 127
2, 7986, Note_on_c, 0, 69, 44
2, 7986, Note_on_c, 0, 59, 38
2, 7987, Note_on_c, 0, 72, 0
2, 8032, Note_on_c, 0, 52, 0
2, 8039, Note_on_c, 0, 69, 0
2, 8042, Note_on_c, 0, 60, 0
2, 8098, Note_on_c, 0, 71, 68
2, 8101, Note_on_c, 0, 67, 71
2, 8102, Note_on_c, 0, 62, 66
2, 8103, Note_on_c, 0, 52, 53
2, 8106, Note_on_c, 0, 59, 0
2, 8108, Control_c, 0, 64, 0
2, 8148, Note_on_c, 0, 71, 0
2, 8153, Control_c, 0, 64, 127
2, 8156, Note_on_c, 0, 67, 0
2, 8171, Note_on_c, 0, 62, 0
2, 8192, Control_c, 0, 64, 0
2, 8217, Note_on_c, 0, 70, 62
2, 8219, Note_on_c, 0, 61, 65
2, 8219, Note_on_c, 0, 59, 51
2, 8220, Note_on_c, 0, 66, 59
2, 8267, Note_on_c, 0, 61, 0
2, 8278, Note_on_c, 0, 66, 0
2, 8298, Note_on_c, 0, 70, 0
2, 8337, Note_on_c, 0, 60, 71
2, 8338, Note_on_c, 0, 59, 0
2, 8338, Note_on_c, 0, 72, 73
2, 8340, Note_on_c, 0, 67, 80
2, 8420, Control_c, 0, 64, 127
2, 8426, Control_c, 0, 64, 0
2, 8435, Note_on_c, 0, 60, 0
2, 8466, Note_on_c, 0, 60, 63
2, 8475, Control_c, 0, 64, 127
2, 8499, Control_c, 0, 64, 0
2, 8502, Note_on_c, 0, 60, 0
2, 8512, Note_on_c, 0, 67, 0
2, 8518, Note_on_c, 0, 72, 0
2, 8530, Note_on_c, 0, 69, 55
2, 8531, Note_on_c, 0, 59, 49
2, 8557, Note_on_c, 0, 52, 0
2, 8569, Note_on_c, 0, 69, 0
2, 8588, Note_on_c, 0, 52, 48
2, 8596, Control_c, 0, 64, 127
2, 8618, Note_on_c, 0, 52, 0
2, 8647, Control_c, 0, 64, 0
2, 8648, Note_on_c, 0, 66, 56
2, 8648, Note_on_c, 0, 63, 63
2, 8649, Note_on_c, 0, 71, 68
2, 8651, Note_on_c, 0, 51, 55
2, 8665, Note_on_c, 0, 59, 0
2, 8693, Control_c, 0, 64, 127
2, 8732, Note_on_c, 0, 71, 0
2, 8755, Control_c, 0, 64, 0
2, 8757, Note_on_c, 0, 58, 49
2, 8764, Note_on_c, 0, 70, 39
2, 8768, Control_c, 0, 64, 127
2, 8774, Note_on_c, 0, 66, 0
2, 8775, Note_on_c, 0, 63, 0
2, 8784, Note_on_c, 0, 58, 0
2, 8810, Note_on_c, 0, 70, 0
2, 8833, Note_on_c, 0, 72, 70
2, 8834, Note_on_c, 0, 66, 63
2, 8835, Note_on_c, 0, 63, 60
2, 8839, Control_c, 0, 64, 0
2, 8839, Note_on_c, 0, 59, 51
2, 8896, Control_c, 0, 64, 127
2, 8919, Note_on_c, 0, 51, 0
2, 8922, Note_on_c, 0, 63, 0
2, 8942, Note_on_c, 0, 63, 37
2, 8943, Note_on_c, 0, 72, 0
2, 8946, Note_on_c, 0, 69, 58
2, 8948, Note_on_c, 0, 51, 36
2, 8949, Control_c, 0, 64, 0
2, 8982, Control_c, 0, 64, 127
2, 9002, Note_on_c, 0, 51, 0
2, 9016, Note_on_c, 0, 63, 0
2, 9019, Note_on_c, 0, 66, 0
2, 9042, Note_on_c, 0, 69, 0
2, 9055, Note_on_c, 0, 66, 59
2, 9056, Note_on_c, 0, 51, 52
2, 9056, Note_on_c, 0, 71, 61
2, 9057, Note_on_c, 0, 63, 55
2, 9058, Note_on_c, 0, 59, 0
2, 9060, Control_c, 0, 64, 0
2, 9108, Control_c, 0, 64, 127
2, 9172, Note_on_c, 0, 59, 43
2, 9202, Note_on_c, 0, 59, 0
2, 9205, Note_on_c, 0, 63, 0
2, 9240, Note_on_c, 0, 59, 27
2, 9289, Note_on_c, 0, 71, 0
2, 9298, Note_on_c, 0, 70, 36
2, 9300, Note_on_c, 0, 63, 27
2, 9332, Note_on_c, 0, 63, 0
2, 9332, Note_on_c, 0, 70, 0
2, 9335, Note_on_c, 0, 66, 0
2, 9353, Note_on_c, 0, 59, 0
2, 9361, Note_on_c, 0, 66, 70
2, 9363, Note_on_c, 0, 72, 68
2, 9363, Note_on_c, 0, 63, 62
2, 9364, Control_c, 0, 64, 0
2, 9364, Note_on_c, 0, 60, 53
2, 9423, Note_on_c, 0, 51, 0
2, 9451, Note_on_c, 0, 63, 0
2, 9467, Note_on_c, 0, 66, 0
2, 9472, Note_on_c, 0, 72, 0
2, 9479, Control_c, 0, 64, 127
2, 9480, Note_on_c, 0, 63, 46
2, 9485, Note_on_c, 0, 69, 51
2, 9495, Note_on_c, 0, 69, 0
2, 9496, Note_on_c, 0, 63, 0
2, 9501, Note_on_c, 0, 60, 0
2, 9501, Control_c, 0, 64, 0
2, 9542, Note_on_c, 0, 51, 34
2, 9547, Control_c, 0, 64, 127
2, 9580, Note_on_c, 0, 51, 0
2, 9600, Control_c, 0, 64, 0
2, 9600, Note_on_c, 0, 71, 49
2, 9605, Note_on_c, 0, 50, 38
2, 9606, Note_on_c, 0, 60, 31
2, 9606, Note_on_c, 0, 65, 46
2, 9608, Note_on_c, 0, 62, 32
2, 9693, Note_on_c, 0, 62, 0
2, 9693, Note_on_c, 0, 71, 0
2, 9695, Note_on_c, 0, 60, 0
2, 9706, Note_on_c, 0, 65, 0
2, 9712, Control_c, 0, 64, 127
2, 9717, Note_on_c, 0, 70, 47
2, 9770, Note_on_c, 0, 70, 0
2, 9788, Note_on_c, 0, 65, 55
2, 9789, Note_on_c, 0, 72, 55
2, 9789, Note_on_c, 0, 62, 54
2, 9791, Note_on_c, 0, 60, 48
2, 9801, Control_c, 0, 64, 0
2, 9829, Note_on_c, 0, 72, 0
2, 9832, Note_on_c, 0, 50, 0
2, 9838, Control_c, 0, 64, 127
2, 9846, Note_on_c, 0, 62, 0
2, 9853, Note_on_c, 0, 65, 0
2, 9898, Note_on_c, 0, 62, 50
2, 9901, Note_on_c, 0, 65, 45
2, 9901, Note_on_c, 0, 50, 32
2, 9902, Note_on_c, 0, 69, 41
2, 9912, Note_on_c, 0, 60, 0
2, 9916, Control_c, 0, 64, 0
2, 9918, Note_on_c, 0, 62, 0
2, 9922, Note_on_c, 0, 65, 0
2, 9926, Note_on_c, 0, 69, 0
2, 9940, Note_on_c, 0, 50, 0
2, 9960, Control_c, 0, 64, 127
2, 10014, Note_on_c, 0, 71, 47
2, 10015, Note_on_c, 0, 68, 30
2, 10016, Note_on_c, 0, 64, 47
2, 10019, Note_on_c, 0, 59, 30
2, 10022, Note_on_c, 0, 49, 42
2, 10026, Control_c, 0, 64, 0
2, 10072, Control_c, 0, 64, 127
2, 10089, Note_on_c, 0, 59, 0
2, 10108, Note_on_c, 0, 64, 0
2, 10110, Note_on_c, 0, 68, 0
2, 10114, Note_on_c, 0, 71, 0
2, 10133, Note_on_c, 0, 70, 53
2, 10137, Note_on_c, 0, 59, 36
2, 10137, Note_on_c, 0, 64, 54
2, 10181, Note_on_c, 0, 64, 0
2, 10195, Note_on_c, 0, 49, 0
2, 10206, Note_on_c, 0, 70, 0
2, 10240, Note_on_c, 0, 59, 0
2, 10254, Note_on_c, 0, 49, 53
2, 10257, Note_on_c, 0, 72, 51
2, 10258, Note_on_c, 0, 65, 45
2, 10282, Control_c, 0, 64, 0
2, 10286, Note_on_c, 0, 65, 0
2, 10299, Note_on_c, 0, 72, 0
2, 10320, Note_on_c, 0, 72, 45
2, 10321, Note_on_c, 0, 65, 61
2, 10324, Control_c, 0, 64, 127
2, 10327, Note_on_c, 0, 59, 32
2, 10367, Note_on_c, 0, 65, 0
2, 10373, Note_on_c, 0, 59, 0
2, 10375, Note_on_c, 0, 49, 0
2, 10378, Note_on_c, 0, 72, 0
2, 10433, Note_on_c, 0, 62, 45
2, 10435, Note_on_c, 0, 67, 48
2, 10439, Note_on_c, 0, 49, 31
2, 10465, Note_on_c, 0, 62, 0
2, 10483, Note_on_c, 0, 67, 0
2, 10491, Note_on_c, 0, 49, 0
2, 10547, Control_c, 0, 64, 0
2, 10555, Note_on_c, 0, 71, 36
2, 10556, Note_on_c, 0, 59, 35
2, 10558, Note_on_c, 0, 48, 24
2, 10558, Note_on_c, 0, 66, 32
2, 10558, Note_on_c, 0, 64, 31
2, 10561, Note_on_c, 0, 55, 32
2, 10572, Note_on_c, 0, 59, 0
2, 10580, Note_on_c, 0, 64, 0
2, 10580, Control_c, 0, 64, 127
2, 10586, Note_on_c, 0, 66, 0
2, 10593, Note_on_c, 0, 71, 0
2, 10629, Note_on_c, 0, 83, 67
2, 10630, Note_on_c, 0, 55, 0
2, 10631, Note_on_c, 0, 48, 0
2, 10738, Note_on_c, 0, 60, 32
2, 10759, Note_on_c, 0, 83, 0
2, 10767, Note_on_c, 0, 60, 0
2, 10861, Note_on_c, 0, 48, 50
2, 10895, Note_on_c, 0, 48, 0
2, 10924, Note_on_c, 0, 48, 44
2, 10988, Note_on_c, 0, 71, 60
2, 10990, Note_on_c, 0, 68, 46
2, 10990, Note_on_c, 0, 64, 60
2, 10991, Note_on_c, 0, 59, 48
2, 10994, Note_on_c, 0, 56, 36
2, 11008, Control_c, 0, 64, 0
2, 11058, Control_c, 0, 64, 127
2, 11071, Note_on_c, 0, 48, 0
2, 11112, Note_on_c, 0, 48, 48
2, 11131, Note_on_c, 0, 56, 0
2, 11145, Note_on_c, 0, 59, 0
2, 11148, Note_on_c, 0, 48, 0
2, 11164, Note_on_c, 0, 64, 0
2, 11172, Note_on_c, 0, 48, 28
2, 11173, Note_on_c, 0, 68, 0
2, 11222, Note_on_c, 0, 71, 0
2, 11236, Note_on_c, 0, 64, 55
2, 11237, Note_on_c, 0, 59, 46
2, 11237, Note_on_c, 0, 67, 53
2, 11238, Note_on_c, 0, 56, 33
2, 11246, Control_c, 0, 64, 0
2, 11254, Note_on_c, 0, 48, 0
2, 11277, Control_c, 0, 64, 127
2, 11281, Note_on_c, 0, 59, 0
2, 11298, Note_on_c, 0, 64, 0
2, 11304, Note_on_c, 0, 67, 0
2, 11351, Note_on_c, 0, 48, 51
2, 11370, Note_on_c, 0, 56, 0
2, 11381, Note_on_c, 0, 48, 0
2, 11467, Note_on_c, 0, 86, 108
2, 11502, Note_on_c, 0, 86, 0
2, 11520, Control_c, 0, 64, 0
2, 11524, Note_on_c, 0, 45, 56
2, 11529, Note_on_c, 0, 86, 95
2, 11529, Note_on_c, 0, 52, 40
2, 11538, Note_on_c, 0, 45, 0
2, 11539, Control_c, 0, 64, 127
2, 11549, Note_on_c, 0, 52, 0
2, 11634, Note_on_c, 0, 64, 35
2, 11639, Note_on_c, 0, 59, 32
2, 11641, Note_on_c, 0, 60, 33
2, 11645, Note_on_c, 0, 57, 29
2, 11687, Note_on_c, 0, 86, 0
2, 11705, Note_on_c, 0, 84, 70
2, 11732, Note_on_c, 0, 84, 0
2, 11763, Note_on_c, 0, 87, 80
2, 11810, Note_on_c, 0, 64, 0
2, 11810, Note_on_c, 0, 60, 0
2, 11811, Note_on_c, 0, 59, 0
2, 11815, Note_on_c, 0, 57, 0
2, 11825, Note_on_c, 0, 87, 0
2, 11833, Note_on_c, 0, 83, 52
2, 11866, Note_on_c, 0, 83, 0
2, 11934, Note_on_c, 0, 86, 91
2, 11938, Control_c, 0, 64, 0
2, 11939, Note_on_c, 0, 47, 50
2, 11966, Note_on_c, 0, 47, 0
2, 11969, Control_c, 0, 64, 127
2, 12054, Note_on_c, 0, 51, 45
2, 12056, Note_on_c, 0, 62, 45
2, 12057, Note_on_c, 0, 57, 44
2, 12182, Note_on_c, 0, 86, 0
2, 12182, Note_on_c, 0, 84, 63
2, 12221, Note_on_c, 0, 84, 0
2, 12264, Note_on_c, 0, 87, 90
2, 12348, Note_on_c, 0, 83, 55
2, 12350, Note_on_c, 0, 57, 0
2, 12351, Note_on_c, 0, 87, 0
2, 12360, Note_on_c, 0, 51, 0
2, 12368, Note_on_c, 0, 83, 0
2, 12380, Note_on_c, 0, 62, 0
2, 12478, Note_on_c, 0, 55, 43
2, 12546, Note_on_c, 0, 74, 65
2, 12550, Note_on_c, 0, 67, 44
2, 12552, Note_on_c, 0, 62, 34
2, 12556, Control_c, 0, 64, 0
2, 12592, Control_c, 0, 64, 127
2, 12626, Note_on_c, 0, 74, 0
2, 12632, Note_on_c, 0, 71, 60
2, 12644, Note_on_c, 0, 55, 0
2, 12678, Note_on_c, 0, 67, 0
2, 12695, Note_on_c, 0, 71, 0
2, 12711, Note_on_c, 0, 62, 0
2, 12712, Note_on_c, 0, 54, 43
2, 12716, Note_on_c, 0, 76, 63
2, 12717, Note_on_c, 0, 69, 57
2, 12728, Control_c, 0, 64, 0
2, 12770, Control_c, 0, 64, 127
2, 12787, Note_on_c, 0, 69, 0
2, 12793, Note_on_c, 0, 76, 0
2, 12801, Note_on_c, 0, 72, 36
2, 12803, Note_on_c, 0, 69, 17
2, 12805, Note_on_c, 0, 64, 34
2, 12805, Note_on_c, 0, 62, 28
2, 12829, Note_on_c, 0, 64, 0
2, 12833, Note_on_c, 0, 69, 0
2, 12835, Note_on_c, 0, 72, 0
2, 12884, Note_on_c, 0, 54, 0
2, 12908, Note_on_c, 0, 54, 43
2, 12909, Note_on_c, 0, 78, 69
2, 12910, Note_on_c, 0, 71, 74
2, 12945, Note_on_c, 0, 54, 0
2, 12959, Note_on_c, 0, 62, 0
2, 12973, Control_c, 0, 64, 0
2, 12975, Note_on_c, 0, 52, 38
2, 13015, Control_c, 0, 64, 127
2, 13027, Note_on_c, 0, 71, 0
2, 13040, Note_on_c, 0, 71, 26
2, 13040, Note_on_c, 0, 67, 51
2, 13042, Note_on_c, 0, 74, 49
2, 13043, Note_on_c, 0, 62, 44
2, 13044, Note_on_c, 0, 78, 0
2, 13067, Note_on_c, 0, 67, 0
2, 13076, Note_on_c, 0, 71, 0
2, 13077, Note_on_c, 0, 74, 0
2, 13085, Note_on_c, 0, 62, 0
2, 13151, Note_on_c, 0, 79, 69
2, 13152, Note_on_c, 0, 52, 0
2, 13152, Note_on_c, 0, 71, 74
2, 13155, Note_on_c, 0, 59, 54
2, 13187, Note_on_c, 0, 79, 0
2, 13195, Note_on_c, 0, 71, 0
2, 13210, Note_on_c, 0, 79, 55
2, 13212, Control_c, 0, 64, 0
2, 13212, Note_on_c, 0, 71, 45
2, 13213, Note_on_c, 0, 50, 38
2, 13238, Note_on_c, 0, 59, 0
2, 13251, Control_c, 0, 64, 127
2, 13295, Note_on_c, 0, 71, 0
2, 13299, Note_on_c, 0, 79, 0
2, 13323, Note_on_c, 0, 74, 45
2, 13323, Note_on_c, 0, 71, 47
2, 13327, Note_on_c, 0, 67, 35
2, 13334, Note_on_c, 0, 74, 0
2, 13335, Note_on_c, 0, 71, 0
2, 13337, Control_c, 0, 64, 0
2, 13338, Note_on_c, 0, 67, 0
2, 13341, Note_on_c, 0, 59, 5
2, 13343, Note_on_c, 0, 50, 0
2, 13386, Note_on_c, 0, 59, 0
2, 13392, Note_on_c, 0, 50, 43
2, 13412, Note_on_c, 0, 50, 0
2, 13449, Note_on_c, 0, 69, 45
2, 13450, Note_on_c, 0, 64, 49
2, 13451, Note_on_c, 0, 49, 39
2, 13451, Note_on_c, 0, 59, 28
2, 13467, Control_c, 0, 64, 127
2, 13577, Note_on_c, 0, 49, 0
2, 13596, Note_on_c, 0, 59, 0
2, 13604, Note_on_c, 0, 64, 0
2, 13605, Note_on_c, 0, 69, 0
2, 13614, Note_on_c, 0, 67, 52
2, 13619, Note_on_c, 0, 49, 31
2, 13642, Note_on_c, 0, 67, 0
2, 13645, Note_on_c, 0, 49, 0
2, 13682, Control_c, 0, 64, 0
2, 13683, Note_on_c, 0, 70, 59
2, 13685, Note_on_c, 0, 59, 46
2, 13686, Note_on_c, 0, 64, 53
2, 13687, Note_on_c, 0, 49, 36
2, 13708, Control_c, 0, 64, 127
2, 13771, Note_on_c, 0, 49, 0
2, 13844, Note_on_c, 0, 59, 0
2, 13863, Note_on_c, 0, 64, 0
2, 13867, Note_on_c, 0, 30, 55
2, 13868, Note_on_c, 0, 42, 52
2, 13880, Control_c, 0, 64, 0
2, 13890, Note_on_c, 0, 70, 0
2, 13904, Control_c, 0, 64, 127
2, 13918, Note_on_c, 0, 30, 0
2, 13927, Note_on_c, 0, 42, 0
2, 14104, Note_on_c, 0, 54, 45
2, 14108, Note_on_c, 0, 81, 71
2, 14109, Note_on_c, 0, 64, 41
2, 14110, Note_on_c, 0, 74, 63
2, 14110, Note_on_c, 0, 58, 53
2, 14111, Note_on_c, 0, 69, 55
2, 14116, Control_c, 0, 64, 0
2, 14147, Control_c, 0, 64, 127
2, 14164, Note_on_c, 0, 69, 0
2, 14166, Note_on_c, 0, 81, 0
2, 14172, Note_on_c, 0, 74, 0
2, 14173, Note_on_c, 0, 64, 0
2, 14195, Note_on_c, 0, 81, 72
2, 14197, Note_on_c, 0, 74, 63
2, 14197, Note_on_c, 0, 69, 57
2, 14198, Note_on_c, 0, 64, 34
2, 14250, Note_on_c, 0, 64, 0
2, 14266, Note_on_c, 0, 69, 0
2, 14271, Note_on_c, 0, 74, 0
2, 14283, Note_on_c, 0, 79, 54
2, 14284, Note_on_c, 0, 69, 50
2, 14285, Note_on_c, 0, 64, 44
2, 14287, Note_on_c, 0, 81, 0
2, 14288, Note_on_c, 0, 74, 50
2, 14306, Note_on_c, 0, 54, 0
2, 14307, Note_on_c, 0, 69, 0
2, 14317, Note_on_c, 0, 74, 0
2, 14329, Note_on_c, 0, 79, 0
2, 14332, Note_on_c, 0, 64, 0
2, 14337, Note_on_c, 0, 58, 0
2, 14399, Note_on_c, 0, 75, 54
2, 14400, Note_on_c, 0, 82, 52
2, 14402, Note_on_c, 0, 47, 44
2, 14402, Note_on_c, 0, 68, 42
2, 14412, Control_c, 0, 64, 0
2, 14454, Control_c, 0, 64, 127
2, 14508, Note_on_c, 0, 54, 27
2, 14531, Note_on_c, 0, 68, 0
2, 14548, Note_on_c, 0, 75, 0
2, 14564, Note_on_c, 0, 82, 0
2, 14580, Note_on_c, 0, 68, 39
2, 14580, Note_on_c, 0, 80, 52
2, 14580, Note_on_c, 0, 75, 44
2, 14604, Note_on_c, 0, 68, 0
2, 14629, Note_on_c, 0, 75, 0
2, 14637, Note_on_c, 0, 80, 0
2, 14659, Note_on_c, 0, 54, 0
2, 14660, Note_on_c, 0, 75, 60
2, 14663, Note_on_c, 0, 83, 70
2, 14745, Note_on_c, 0, 47, 0
2, 14746, Note_on_c, 0, 54, 36
2, 14766, Note_on_c, 0, 54, 0
2, 14801, Note_on_c, 0, 83, 0
2, 14817, Note_on_c, 0, 81, 57
2, 14822, Note_on_c, 0, 75, 0
2, 14855, Note_on_c, 0, 81, 0
2, 14878, Note_on_c, 0, 83, 63
2, 14879, Note_on_c, 0, 69, 50
2, 14880, Note_on_c, 0, 74, 58
2, 14881, Note_on_c, 0, 79, 49
2, 14884, Control_c, 0, 64, 0
2, 14901, Control_c, 0, 64, 127
2, 14916, Note_on_c, 0, 79, 0
2, 14926, Note_on_c, 0, 83, 0
2, 14933, Note_on_c, 0, 74, 0
2, 14938, Note_on_c, 0, 69, 0
2, 14950, Note_on_c, 0, 81, 49
2, 14952, Note_on_c, 0, 72, 46
2, 14953, Note_on_c, 0, 77, 47
2, 14955, Note_on_c, 0, 67, 40
2, 14963, Control_c, 0, 64, 0
2, 14981, Control_c, 0, 64, 127
2, 15018, Note_on_c, 0, 67, 0
2, 15022, Note_on_c, 0, 77, 0
2, 15025, Note_on_c, 0, 81, 0
2, 15033, Note_on_c, 0, 72, 0
2, 15189, Note_on_c, 0, 77, 61
2, 15192, Note_on_c, 0, 72, 53
2, 15192, Note_on_c, 0, 62, 42
2, 15195, Note_on_c, 0, 67, 36
2, 15204, Control_c, 0, 64, 0
2, 15214, Note_on_c, 0, 72, 0
2, 15216, Note_on_c, 0, 77, 0
2, 15219, Control_c, 0, 64, 127
2, 15223, Note_on_c, 0, 67, 0
2, 15250, Note_on_c, 0, 62, 0
2, 15274, Note_on_c, 0, 57, 32
2, 15274, Note_on_c, 0, 72, 44
2, 15281, Note_on_c, 0, 69, 40
2, 15284, Note_on_c, 0, 57, 0
2, 15298, Note_on_c, 0, 69, 0
2, 15331, Note_on_c, 0, 72, 0
2, 15354, Note_on_c, 0, 71, 41
2, 15359, Note_on_c, 0, 66, 37
2, 15359, Note_on_c, 0, 52, 34
2, 15360, Note_on_c, 0, 64, 32
2, 15367, Control_c, 0, 64, 0
2, 15416, Control_c, 0, 64, 127
2, 15462, Control_c, 0, 64, 0
2, 15473, Note_on_c, 0, 59, 36
2, 15491, Control_c, 0, 64, 127
2, 15496, Note_on_c, 0, 66, 0
2, 15513, Note_on_c, 0, 64, 0
2, 15528, Note_on_c, 0, 71, 0
2, 15535, Note_on_c, 0, 70, 50
2, 15537, Note_on_c, 0, 64, 50
2, 15541, Note_on_c, 0, 59, 0
2, 15542, Note_on_c, 0, 60, 50
2, 15546, Control_c, 0, 64, 0
2, 15594, Note_on_c, 0, 64, 0
2, 15594, Note_on_c, 0, 70, 0
2, 15614, Note_on_c, 0, 72, 33
2, 15714, Note_on_c, 0, 72, 0
2, 15715, Note_on_c, 0, 69, 35
2, 15718, Note_on_c, 0, 52, 0
2, 15718, Note_on_c, 0, 59, 36
2, 15740, Note_on_c, 0, 64, 3
2, 15779, Note_on_c, 0, 69, 0
2, 15782, Note_on_c, 0, 60, 0
2, 15783, Note_on_c, 0, 71, 66
2, 15786, Note_on_c, 0, 52, 53
2, 15793, Note_on_c, 0, 59, 0
2, 15898, Note_on_c, 0, 59, 43
2, 15902, Note_on_c, 0, 64, 0
2, 15923, Note_on_c, 0, 59, 0
2, 15955, Note_on_c, 0, 67, 49
2, 15960, Note_on_c, 0, 59, 32
2, 15961, Note_on_c, 0, 64, 24
2, 15966, Note_on_c, 0, 71, 0
2, 16007, Control_c, 0, 64, 127
2, 16022, Note_on_c, 0, 59, 0
2, 16023, Note_on_c, 0, 69, 65
2, 16025, Note_on_c, 0, 60, 62
2, 16032, Note_on_c, 0, 67, 0
2, 16036, Control_c, 0, 64, 0
2, 16077, Control_c, 0, 64, 127
2, 16114, Note_on_c, 0, 52, 0
2, 16115, Control_c, 0, 64, 0
2, 16130, Control_c, 0, 64, 127
2, 16144, Note_on_c, 0, 59, 43
2, 16168, Note_on_c, 0, 64, 0
2, 16170, Note_on_c, 0, 59, 0
2, 16193, Note_on_c, 0, 60, 0
2, 16198, Note_on_c, 0, 69, 0
2, 16201, Note_on_c, 0, 64, 46
2, 16203, Note_on_c, 0, 66, 48
2, 16206, Note_on_c, 0, 59, 37
2, 16210, Control_c, 0, 64, 0
2, 16243, Control_c, 0, 64, 127
2, 16261, Note_on_c, 0, 52, 58
2, 16276, Note_on_c, 0, 64, 0
2, 16284, Note_on_c, 0, 52, 0
2, 16286, Note_on_c, 0, 66, 0
2, 16318, Note_on_c, 0, 67, 68
2, 16319, Note_on_c, 0, 51, 58
2, 16320, Note_on_c, 0, 64, 67
2, 16329, Control_c, 0, 64, 0
2, 16330, Note_on_c, 0, 59, 0
2, 16391, Control_c, 0, 64, 127
2, 16402, Control_c, 0, 64, 0
2, 16417, Note_on_c, 0, 64, 0
2, 16420, Note_on_c, 0, 67, 0
2, 16426, Note_on_c, 0, 59, 42
2, 16430, Note_on_c, 0, 66, 37
2, 16435, Control_c, 0, 64, 127
2, 16468, Note_on_c, 0, 66, 0
2, 16480, Note_on_c, 0, 59, 0
2, 16501, Note_on_c, 0, 63, 43
2, 16501, Note_on_c, 0, 69, 35
2, 16502, Note_on_c, 0, 66, 34
2, 16505, Note_on_c, 0, 60, 33
2, 16510, Control_c, 0, 64, 0
2, 16547, Control_c, 0, 64, 127
2, 16566, Note_on_c, 0, 60, 0
2, 16615, Note_on_c, 0, 66, 0
2, 16616, Note_on_c, 0, 63, 0
2, 16618, Note_on_c, 0, 60, 42
2, 16662, Note_on_c, 0, 69, 0
2, 16666, Note_on_c, 0, 66, 40
2, 16670, Note_on_c, 0, 63, 37
2, 16675, Control_c, 0, 64, 0
2, 16678, Note_on_c, 0, 60, 0
2, 16686, Control_c, 0, 64, 127
2, 16701, Note_on_c, 0, 63, 0
2, 16717, Note_on_c, 0, 66, 0
2, 16737, Note_on_c, 0, 59, 32
2, 16759, Note_on_c, 0, 51, 0
2, 16784, Note_on_c, 0, 59, 0
2, 16794, Note_on_c, 0, 51, 50
2, 16795, Note_on_c, 0, 67, 80
2, 16796, Note_on_c, 0, 63, 74
2, 16803, Control_c, 0, 64, 0
2, 16856, Control_c, 0, 64, 127
2, 16888, Note_on_c, 0, 63, 0
2, 16904, Note_on_c, 0, 67, 0
2, 16910, Note_on_c, 0, 66, 42
2, 16913, Note_on_c, 0, 59, 19
2, 16921, Note_on_c, 0, 66, 0
2, 16973, Note_on_c, 0, 59, 0
2, 16984, Note_on_c, 0, 66, 51
2, 16985, Note_on_c, 0, 63, 45
2, 16985, Note_on_c, 0, 72, 45
2, 16992, Note_on_c, 0, 60, 32
2, 16997, Control_c, 0, 64, 0
2, 17030, Control_c, 0, 64, 127
2, 17041, Note_on_c, 0, 60, 0
2, 17105, Note_on_c, 0, 60, 62
2, 17123, Control_c, 0, 64, 0
2, 17143, Control_c, 0, 64, 127
2, 17173, Note_on_c, 0, 63, 0
2, 17178, Note_on_c, 0, 60, 0
2, 17186, Note_on_c, 0, 66, 0
2, 17199, Note_on_c, 0, 72, 0
2, 17211, Note_on_c, 0, 63, 56
2, 17214, Note_on_c, 0, 69, 55
2, 17215, Note_on_c, 0, 66, 36
2, 17219, Note_on_c, 0, 59, 48
2, 17235, Note_on_c, 0, 69, 0
2, 17235, Note_on_c, 0, 51, 0
2, 17237, Note_on_c, 0, 63, 0
2, 17262, Note_on_c, 0, 66, 0
2, 17283, Note_on_c, 0, 71, 73
2, 17283, Note_on_c, 0, 65, 74
2, 17284, Note_on_c, 0, 50, 53
2, 17286, Note_on_c, 0, 60, 63
2, 17291, Control_c, 0, 64, 0
2, 17309, Note_on_c, 0, 59, 0
2, 17344, Control_c, 0, 64, 127
2, 17359, Control_c, 0, 64, 0
2, 17386, Note_on_c, 0, 60, 0
2, 17396, Note_on_c, 0, 59, 45
2, 17397, Control_c, 0, 64, 127
2, 17405, Note_on_c, 0, 65, 0
2, 17430, Note_on_c, 0, 71, 0
2, 17456, Note_on_c, 0, 69, 75
2, 17458, Note_on_c, 0, 65, 75
2, 17458, Note_on_c, 0, 60, 72
2, 17472, Note_on_c, 0, 59, 0
2, 17484, Note_on_c, 0, 65, 0
2, 17502, Note_on_c, 0, 69, 0
2, 17508, Note_on_c, 0, 60, 0
2, 17515, Note_on_c, 0, 60, 24
2, 17521, Note_on_c, 0, 72, 80
2, 17522, Note_on_c, 0, 65, 81
2, 17525, Control_c, 0, 64, 0
2, 17549, Control_c, 0, 64, 127
2, 17621, Note_on_c, 0, 60, 0
2, 17637, Note_on_c, 0, 59, 38
2, 17648, Note_on_c, 0, 50, 0
2, 17673, Note_on_c, 0, 72, 0
2, 17703, Note_on_c, 0, 70, 18
2, 17718, Note_on_c, 0, 65, 0
2, 17741, Note_on_c, 0, 70, 0
2, 17759, Note_on_c, 0, 71, 51
2, 17760, Note_on_c, 0, 49, 48
2, 17763, Control_c, 0, 64, 0
2, 17775, Note_on_c, 0, 59, 0
2, 17788, Note_on_c, 0, 71, 0
2, 17803, Control_c, 0, 64, 127
2, 17829, Note_on_c, 0, 71, 47
2, 17830, Note_on_c, 0, 65, 37
2, 17837, Note_on_c, 0, 60, 34
2, 17842, Note_on_c, 0, 59, 28
2, 17842, Control_c, 0, 64, 0
2, 17853, Control_c, 0, 64, 127
2, 17859, Note_on_c, 0, 71, 0
2, 17869, Note_on_c, 0, 60, 0
2, 17873, Note_on_c, 0, 65, 0
2, 17896, Note_on_c, 0, 59, 0
2, 17940, Note_on_c, 0, 59, 58
2, 17993, Note_on_c, 0, 49, 0
2, 18002, Note_on_c, 0, 65, 80
2, 18003, Note_on_c, 0, 72, 76
2, 18005, Note_on_c, 0, 59, 0
2, 18010, Note_on_c, 0, 60, 54
2, 18067, Note_on_c, 0, 60, 0
2, 18098, Note_on_c, 0, 72, 0
2, 18098, Note_on_c, 0, 65, 0
2, 18120, Note_on_c, 0, 65, 52
2, 18123, Note_on_c, 0, 71, 49
2, 18123, Note_on_c, 0, 59, 33
2, 18126, Note_on_c, 0, 60, 40
2, 18136, Note_on_c, 0, 60, 0
2, 18146, Note_on_c, 0, 65, 0
2, 18163, Note_on_c, 0, 71, 0
2, 18177, Note_on_c, 0, 49, 48
2, 18191, Note_on_c, 0, 59, 0
2, 18217, Note_on_c, 0, 49, 0
2, 18241, Note_on_c, 0, 48, 60
2, 18243, Note_on_c, 0, 76, 69
2, 18244, Control_c, 0, 64, 0
2, 18264, Control_c, 0, 64, 127
2, 18275, Note_on_c, 0, 76, 0
2, 18361, Note_on_c, 0, 59, 38
2, 18393, Note_on_c, 0, 59, 0
2, 18424, Note_on_c, 0, 60, 56
2, 18427, Note_on_c, 0, 59, 27
2, 18434, Control_c, 0, 64, 0
2, 18447, Control_c, 0, 64, 127
2, 18461, Note_on_c, 0, 60, 0
2, 18528, Note_on_c, 0, 59, 0
2, 18538, Note_on_c, 0, 71, 49
2, 18540, Note_on_c, 0, 64, 42
2, 18545, Note_on_c, 0, 59, 24
2, 18584, Note_on_c, 0, 71, 0
2, 18585, Note_on_c, 0, 64, 0
2, 18587, Note_on_c, 0, 59, 0
2, 18604, Note_on_c, 0, 67, 36
2, 18612, Note_on_c, 0, 64, 15
2, 18650, Note_on_c, 0, 64, 0
2, 18661, Note_on_c, 0, 55, 35
2, 18676, Note_on_c, 0, 48, 0
2, 18705, Note_on_c, 0, 67, 0
2, 18716, Note_on_c, 0, 55, 0
2, 18718, Note_on_c, 0, 64, 32
2, 18721, Note_on_c, 0, 48, 26
2, 18722, Note_on_c, 0, 60, 39
2, 18723, Note_on_c, 0, 59, 40
2, 18725, Control_c, 0, 64, 0
2, 18758, Control_c, 0, 64, 127
2, 18822, Note_on_c, 0, 59, 0
2, 18831, Note_on_c, 0, 60, 0
2, 18838, Note_on_c, 0, 55, 28
2, 18856, Note_on_c, 0, 64, 0
2, 18913, Note_on_c, 0, 59, 30
2, 18927, Note_on_c, 0, 55, 0
2, 18934, Note_on_c, 0, 59, 0
2, 18986, Note_on_c, 0, 71, 65
2, 19000, Note_on_c, 0, 71, 0
2, 19062, Note_on_c, 0, 72, 103
2, 19087, Note_on_c, 0, 48, 0
2, 19095, Note_on_c, 0, 72, 0
2, 19133, Note_on_c, 0, 74, 95
2, 19186, Note_on_c, 0, 74, 0
2, 19191, Control_c, 0, 64, 0
2, 19196, Note_on_c, 0, 76, 78
2, 19196, Note_on_c, 0, 45, 44
2, 19197, Note_on_c, 0, 52, 36
2, 19213, Control_c, 0, 64, 127
2, 19221, Note_on_c, 0, 45, 0
2, 19231, Note_on_c, 0, 52, 0
2, 19312, Note_on_c, 0, 64, 64
2, 19315, Note_on_c, 0, 59, 58
2, 19316, Note_on_c, 0, 60, 65
2, 19317, Note_on_c, 0, 57, 68
2, 19385, Note_on_c, 0, 75, 78
2, 19397, Note_on_c, 0, 76, 0
2, 19438, Note_on_c, 0, 75, 0
2, 19473, Note_on_c, 0, 77, 96
2, 19536, Note_on_c, 0, 64, 0
2, 19546, Note_on_c, 0, 60, 0
2, 19550, Note_on_c, 0, 59, 0
2, 19564, Note_on_c, 0, 57, 0
2, 19637, Note_on_c, 0, 77, 0
2, 19641, Note_on_c, 0, 76, 85
2, 19645, Note_on_c, 0, 77, 35
2, 19656, Note_on_c, 0, 77, 0
2, 19689, Control_c, 0, 64, 0
2, 19696, Note_on_c, 0, 46, 47
2, 19711, Note_on_c, 0, 46, 0
2, 19711, Control_c, 0, 64, 127
2, 19771, Note_on_c, 0, 61, 55
2, 19772, Note_on_c, 0, 58, 54
2, 19775, Note_on_c, 0, 64, 48
2, 19802, Note_on_c, 0, 55, 13
2, 19833, Note_on_c, 0, 64, 0
2, 19840, Note_on_c, 0, 61, 0
2, 19844, Note_on_c, 0, 58, 0
2, 19855, Note_on_c, 0, 55, 0
2, 19861, Note_on_c, 0, 76, 0
2, 19878, Note_on_c, 0, 78, 83
2, 19881, Note_on_c, 0, 61, 49
2, 19882, Note_on_c, 0, 58, 54
2, 19882, Note_on_c, 0, 64, 47
2, 19884, Note_on_c, 0, 55, 26
2, 19949, Note_on_c, 0, 78, 0
2, 19950, Note_on_c, 0, 77, 72
2, 20005, Note_on_c, 0, 77, 0
2, 20023, Note_on_c, 0, 78, 77
2, 20029, Note_on_c, 0, 64, 0
2, 20039, Note_on_c, 0, 61, 0
2, 20052, Note_on_c, 0, 58, 0
2, 20059, Note_on_c, 0, 55, 0
2, 20072, Note_on_c, 0, 78, 0
2, 20091, Note_on_c, 0, 79, 60
2, 20098, Note_on_c, 0, 77, 31
2, 20108, Note_on_c, 0, 77, 0
2, 20144, Note_on_c, 0, 79, 0
2, 20163, Note_on_c, 0, 81, 64
2, 20165, Note_on_c, 0, 74, 49
2, 20166, Note_on_c, 0, 69, 44
2, 20168, Note_on_c, 0, 47, 32
2, 20170, Control_c, 0, 64, 0
2, 20170, Note_on_c, 0, 57, 31
2, 20192, Control_c, 0, 64, 127
2, 20228, Note_on_c, 0, 47, 0
2, 20242, Note_on_c, 0, 57, 0
2, 20302, Note_on_c, 0, 69, 0
2, 20307, Note_on_c, 0, 74, 0
2, 20330, Note_on_c, 0, 81, 0
2, 20343, Note_on_c, 0, 79, 43
2, 20345, Note_on_c, 0, 69, 40
2, 20346, Note_on_c, 0, 66, 40
2, 20346, Note_on_c, 0, 62, 44
2, 20347, Note_on_c, 0, 74, 48
2, 20351, Note_on_c, 0, 57, 37
2, 20364, Note_on_c, 0, 69, 0
2, 20385, Note_on_c, 0, 79, 0
2, 20405, Note_on_c, 0, 74, 0
2, 20427, Note_on_c, 0, 74, 60
2, 20427, Note_on_c, 0, 82, 69
2, 20430, Note_on_c, 0, 70, 51
2, 20483, Note_on_c, 0, 82, 0
2, 20517, Note_on_c, 0, 74, 0
2, 20519, Note_on_c, 0, 66, 0
2, 20520, Note_on_c, 0, 57, 0
2, 20527, Note_on_c, 0, 62, 0
2, 20573, Note_on_c, 0, 70, 0
2, 20591, Note_on_c, 0, 78, 47
2, 20628, Note_on_c, 0, 78, 0
2, 20638, Control_c, 0, 64, 0
2, 20645, Note_on_c, 0, 48, 48
2, 20654, Note_on_c, 0, 48, 0
2, 20655, Control_c, 0, 64, 127
2, 20713, Note_on_c, 0, 65, 47
2, 20713, Note_on_c, 0, 71, 54
2, 20713, Note_on_c, 0, 76, 54
2, 20713, Note_on_c, 0, 81, 56
2, 20773, Note_on_c, 0, 81, 0
2, 20780, Note_on_c, 0, 76, 0
2, 20790, Note_on_c, 0, 71, 0
2, 20794, Note_on_c, 0, 65, 0
2, 20827, Note_on_c, 0, 79, 59
2, 20831, Note_on_c, 0, 74, 62
2, 20832, Note_on_c, 0, 69, 54
2, 20833, Note_on_c, 0, 64, 49
2, 20850, Control_c, 0, 64, 0
2, 20854, Control_c, 0, 64, 127
2, 20867, Note_on_c, 0, 74, 0
2, 20875, Note_on_c, 0, 79, 0
2, 20877, Note_on_c, 0, 69, 0
2, 20893, Note_on_c, 0, 64, 0
2, 20946, Note_on_c, 0, 78, 60
2, 20948, Note_on_c, 0, 74, 62
2, 20949, Note_on_c, 0, 69, 64
2, 20951, Note_on_c, 0, 62, 55
2, 20960, Control_c, 0, 64, 0
2, 20971, Note_on_c, 0, 74, 0
2, 20974, Note_on_c, 0, 78, 0
2, 20977, Control_c, 0, 64, 127
2, 20980, Note_on_c, 0, 69, 0
2, 21020, Note_on_c, 0, 62, 0
2, 21058, Note_on_c, 0, 60, 40
2, 21059, Note_on_c, 0, 76, 64
2, 21059, Note_on_c, 0, 67, 71
2, 21061, Note_on_c, 0, 72, 55
2, 21066, Note_on_c, 0, 60, 0
2, 21076, Note_on_c, 0, 67, 0
2, 21078, Note_on_c, 0, 72, 0
2, 21082, Note_on_c, 0, 76, 0
2, 21125, Note_on_c, 0, 74, 58
2, 21126, Note_on_c, 0, 67, 61
2, 21126, Note_on_c, 0, 71, 64
2, 21129, Note_on_c, 0, 62, 46
2, 21130, Note_on_c, 0, 64, 53
2, 21130, Note_on_c, 0, 45, 47
2, 21131, Note_on_c, 0, 55, 58
2, 21136, Control_c, 0, 64, 0
2, 21139, Note_on_c, 0, 62, 0
2, 21178, Control_c, 0, 64, 127
2, 21204, Note_on_c, 0, 45, 0
2, 21219, Note_on_c, 0, 55, 0
2, 21251, Note_on_c, 0, 64, 0
2, 21280, Note_on_c, 0, 67, 0
2, 21285, Note_on_c, 0, 71, 0
2, 21290, Note_on_c, 0, 74, 0
2, 21300, Note_on_c, 0, 72, 52
2, 21301, Note_on_c, 0, 64, 43
2, 21301, Note_on_c, 0, 60, 51
2, 21303, Note_on_c, 0, 59, 44
2, 21332, Note_on_c, 0, 72, 0
2, 21365, Note_on_c, 0, 75, 80
2, 21413, Note_on_c, 0, 64, 0
2, 21434, Note_on_c, 0, 60, 0
2, 21435, Note_on_c, 0, 59, 0
2, 21464, Note_on_c, 0, 75, 0
2, 21475, Note_on_c, 0, 71, 68
2, 21497, Note_on_c, 0, 71, 0
2, 21598, Note_on_c, 0, 74, 73
2, 21600, Note_on_c, 0, 48, 36
2, 21602, Control_c, 0, 64, 0
2, 21602, Note_on_c, 0, 67, 64
2, 21606, Note_on_c, 0, 58, 33
2, 21609, Note_on_c, 0, 63, 35
2, 21653, Control_c, 0, 64, 127
2, 21697, Note_on_c, 0, 58, 0
2, 21706, Note_on_c, 0, 67, 0
2, 21721, Note_on_c, 0, 63, 0
2, 21785, Note_on_c, 0, 63, 33
2, 21788, Note_on_c, 0, 67, 37
2, 21789, Note_on_c, 0, 58, 29
2, 21900, Note_on_c, 0, 74, 0
2, 21907, Note_on_c, 0, 72, 48
2, 21939, Note_on_c, 0, 72, 0
2, 21942, Note_on_c, 0, 48, 0
2, 21965, Note_on_c, 0, 58, 0
2, 21968, Note_on_c, 0, 72, 38
2, 21999, Note_on_c, 0, 72, 0
2, 22013, Note_on_c, 0, 67, 0
2, 22018, Note_on_c, 0, 72, 40
2, 22051, Note_on_c, 0, 63, 0
2, 22060, Note_on_c, 0, 72, 0
2, 22079, Note_on_c, 0, 75, 56
2, 22083, Note_on_c, 0, 47, 31
2, 22085, Note_on_c, 0, 57, 33
2, 22087, Control_c, 0, 64, 0
2, 22122, Control_c, 0, 64, 127
2, 22188, Note_on_c, 0, 57, 0
2, 22262, Note_on_c, 0, 66, 35
2, 22265, Note_on_c, 0, 57, 30
2, 22266, Note_on_c, 0, 63, 29
2, 22311, Note_on_c, 0, 75, 0
2, 22312, Note_on_c, 0, 63, 0
2, 22325, Note_on_c, 0, 66, 0
2, 22342, Note_on_c, 0, 57, 0
2, 22377, Note_on_c, 0, 47, 0
2, 22505, Note_on_c, 0, 83, 84
2, 22538, Note_on_c, 0, 83, 0
2, 22566, Note_on_c, 0, 28, 80
2, 22566, Note_on_c, 0, 40, 88
2, 22570, Note_on_c, 0, 88, 94
2, 22573, Control_c, 0, 64, 0
2, 22601, Control_c, 0, 64, 127
2, 22620, Note_on_c, 0, 28, 0
2, 22629, Note_on_c, 0, 88, 0
2, 22634, Note_on_c, 0, 40, 0
2, 22745, Note_on_c, 0, 71, 81
2, 22746, Note_on_c, 0, 66, 83
2, 22747, Note_on_c, 0, 54, 67
2, 22747, Note_on_c, 0, 59, 79
2, 22747, Note_on_c, 0, 64, 87
2, 22852, Note_on_c, 0, 64, 0
2, 22859, Note_on_c, 0, 66, 0
2, 22883, Note_on_c, 0, 59, 0
2, 22884, Note_on_c, 0, 71, 0
2, 22889, Note_on_c, 0, 54, 0
2, 23168, Note_on_c, 0, 83, 47
2, 23170, Note_on_c, 0, 76, 36
2, 23171, Note_on_c, 0, 71, 43
2, 23171, Note_on_c, 0, 78, 30
2, 23273, Note_on_c, 0, 71, 0
2, 23278, Note_on_c, 0, 83, 0
2, 23279, Note_on_c, 0, 78, 0
2, 23280, Note_on_c, 0, 76, 0
2, 23350, Note_on_c, 0, 83, 36
2, 23352, Note_on_c, 0, 78, 26
2, 23353, Note_on_c, 0, 76, 32
2, 23354, Note_on_c, 0, 71, 40
2, 23381, Note_on_c, 0, 71, 0
2, 23392, Note_on_c, 0, 83, 0
2, 23399, Note_on_c, 0, 78, 0
2, 23404, Note_on_c, 0, 76, 0
2, 23769, Note_on_c, 0, 52, 38
2, 23948, Note_on_c, 0, 71, 36
2, 23949, Note_on_c, 0, 66, 28
2, 23951, Note_on_c, 0, 64, 36
2, 23956, Note_on_c, 0, 59, 31
2, 23976, Control_c, 0, 64, 0
2, 23991, Control_c, 0, 64, 127
2, 24021, Note_on_c, 0, 59, 0
2, 24070, Note_on_c, 0, 59, 32
2, 24093, Note_on_c, 0, 59, 0
2, 24126, Note_on_c, 0, 64, 0
2, 24168, Note_on_c, 0, 66, 0
2, 24183, Note_on_c, 0, 59, 29
2, 24201, Note_on_c, 0, 59, 0
2, 24209, Note_on_c, 0, 71, 0
2, 24229, Note_on_c, 0, 52, 0
2, 24240, Note_on_c, 0, 71, 36
2, 24242, Note_on_c, 0, 66, 23
2, 24243, Note_on_c, 0, 64, 36
2, 24355, Note_on_c, 0, 64, 0
2, 24358, Note_on_c, 0, 47, 32
2, 24370, Note_on_c, 0, 47, 0
2, 24382, Control_c, 0, 64, 0
2, 24406, Control_c, 0, 64, 127
2, 24417, Note_on_c, 0, 47, 32
2, 24440, Note_on_c, 0, 66, 0
2, 24466, Note_on_c, 0, 47, 0
2, 24467, Note_on_c, 0, 71, 0
2, 24472, Control_c, 0, 64, 0
2, 24476, Note_on_c, 0, 66, 14
2, 24482, Note_on_c, 0, 52, 44
2, 24548, Note_on_c, 0, 66, 0
2, 24657, Note_on_c, 0, 59, 34
2, 24665, Note_on_c, 0, 59, 0
2, 24667, Note_on_c, 0, 52, 0
2, 24722, Note_on_c, 0, 64, 49
2, 24751, Note_on_c, 0, 64, 0
2, 24775, Note_on_c, 0, 66, 71
2, 24802, Note_on_c, 0, 66, 0
2, 24833, Note_on_c, 0, 67, 71
2, 24850, Note_on_c, 0, 67, 0
2, 24895, Note_on_c, 0, 69, 92
2, 24937, Note_on_c, 0, 69, 0
2, 24956, Note_on_c, 0, 71, 74
2, 24961, Note_on_c, 0, 59, 37
2, 24962, Note_on_c, 0, 52, 35
2, 24978, Note_on_c, 0, 71, 0
2, 25022, Note_on_c, 0, 78, 58
2, 25034, Note_on_c, 0, 78, 0
2, 25080, Note_on_c, 0, 79, 84
2, 25143, Note_on_c, 0, 78, 70
2, 25146, Note_on_c, 0, 60, 82
2, 25154, Note_on_c, 0, 59, 0
2, 25156, Note_on_c, 0, 79, 0
2, 25193, Note_on_c, 0, 60, 0
2, 25201, Note_on_c, 0, 78, 0
2, 25208, Note_on_c, 0, 60, 63
2, 25210, Note_on_c, 0, 76, 65
2, 25315, Note_on_c, 0, 76, 0
2, 25319, Note_on_c, 0, 60, 0
2, 25320, Note_on_c, 0, 74, 58
2, 25325, Note_on_c, 0, 59, 33
2, 25345, Note_on_c, 0, 59, 0
2, 25362, Note_on_c, 0, 52, 0
2, 25379, Note_on_c, 0, 71, 58
2, 25382, Note_on_c, 0, 74, 0
2, 25383, Note_on_c, 0, 59, 44
2, 25425, Note_on_c, 0, 71, 0
2, 25440, Note_on_c, 0, 51, 48
2, 25442, Note_on_c, 0, 69, 62
2, 25466, Note_on_c, 0, 59, 0
2, 25545, Note_on_c, 0, 69, 0
2, 25550, Note_on_c, 0, 67, 48
2, 25612, Note_on_c, 0, 67, 0
2, 25625, Note_on_c, 0, 66, 43
2, 25755, Note_on_c, 0, 59, 30
2, 25770, Note_on_c, 0, 59, 0
2, 25810, Note_on_c, 0, 60, 79
2, 25860, Note_on_c, 0, 60, 0
2, 25872, Note_on_c, 0, 59, 57
2, 25898, Note_on_c, 0, 51, 0
2, 25923, Note_on_c, 0, 66, 0
2, 25929, Note_on_c, 0, 59, 0
2, 25930, Note_on_c, 0, 51, 45
2, 26103, Note_on_c, 0, 59, 29
2, 26147, Note_on_c, 0, 59, 0
2, 26165, Note_on_c, 0, 60, 39
2, 26205, Note_on_c, 0, 69, 43
2, 26215, Note_on_c, 0, 69, 0
2, 26237, Note_on_c, 0, 72, 74
2, 26254, Note_on_c, 0, 72, 0
2, 26269, Note_on_c, 0, 76, 88
2, 26273, Note_on_c, 0, 60, 0
2, 26295, Note_on_c, 0, 76, 0
2, 26301, Note_on_c, 0, 59, 32
2, 26304, Note_on_c, 0, 77, 84
2, 26331, Note_on_c, 0, 77, 0
2, 26333, Note_on_c, 0, 51, 0
2, 26356, Note_on_c, 0, 77, 89
2, 26382, Note_on_c, 0, 77, 0
2, 26406, Note_on_c, 0, 77, 91
2, 26420, Note_on_c, 0, 50, 37
2, 26432, Note_on_c, 0, 77, 0
2, 26452, Note_on_c, 0, 77, 84
2, 26466, Note_on_c, 0, 59, 0
2, 26486, Note_on_c, 0, 77, 0
2, 26497, Note_on_c, 0, 76, 77
2, 26537, Note_on_c, 0, 76, 0
2, 26537, Note_on_c, 0, 72, 63
2, 26543, Note_on_c, 0, 59, 30
2, 26569, Note_on_c, 0, 72, 0
2, 26578, Note_on_c, 0, 69, 57
2, 26598, Note_on_c, 0, 69, 0
2, 26617, Note_on_c, 0, 65, 47
2, 26646, Note_on_c, 0, 65, 0
2, 26656, Note_on_c, 0, 64, 41
2, 26658, Note_on_c, 0, 59, 0
2, 26675, Note_on_c, 0, 64, 0
2, 26694, Note_on_c, 0, 65, 53
2, 26695, Note_on_c, 0, 60, 1
2, 26749, Note_on_c, 0, 60, 0
2, 26757, Note_on_c, 0, 59, 42
2, 26771, Note_on_c, 0, 50, 0
2, 26810, Note_on_c, 0, 50, 44
2, 26830, Note_on_c, 0, 50, 0
2, 26870, Note_on_c, 0, 65, 0
2, 26873, Note_on_c, 0, 49, 48
2, 26874, Note_on_c, 0, 59, 0
2, 26939, Note_on_c, 0, 59, 29
2, 26960, Note_on_c, 0, 49, 0
2, 27001, Note_on_c, 0, 60, 47
2, 27038, Note_on_c, 0, 59, 0
2, 27059, Note_on_c, 0, 64, 78
2, 27083, Note_on_c, 0, 64, 0
2, 27116, Note_on_c, 0, 65, 95
2, 27152, Note_on_c, 0, 65, 0
2, 27175, Note_on_c, 0, 68, 78
2, 27176, Note_on_c, 0, 59, 60
2, 27206, Note_on_c, 0, 60, 0
2, 27226, Note_on_c, 0, 68, 0
2, 27235, Note_on_c, 0, 71, 57
2, 27258, Note_on_c, 0, 71, 0
2, 27290, Note_on_c, 0, 59, 0
2, 27294, Note_on_c, 0, 74, 89
2, 27297, Note_on_c, 0, 60, 39
2, 27343, Note_on_c, 0, 74, 0
2, 27347, Note_on_c, 0, 60, 0
2, 27361, Note_on_c, 0, 48, 36
2, 27366, Note_on_c, 0, 71, 62
2, 27367, Note_on_c, 0, 55, 24
2, 27416, Note_on_c, 0, 71, 0
2, 27426, Note_on_c, 0, 67, 41
2, 27460, Note_on_c, 0, 67, 0
2, 27482, Note_on_c, 0, 69, 61
2, 27505, Note_on_c, 0, 48, 0
2, 27522, Note_on_c, 0, 55, 0
2, 27550, Note_on_c, 0, 64, 29
2, 27550, Note_on_c, 0, 48, 28
2, 27567, Note_on_c, 0, 48, 0
2, 27580, Note_on_c, 0, 69, 0
2, 27581, Note_on_c, 0, 64, 0
2, 27605, Note_on_c, 0, 67, 50
2, 27605, Note_on_c, 0, 62, 41
2, 27606, Note_on_c, 0, 64, 34
2, 27669, Note_on_c, 0, 55, 61
2, 27689, Note_on_c, 0, 55, 0
2, 27729, Note_on_c, 0, 56, 54
2, 27773, Note_on_c, 0, 56, 0
2, 27775, Note_on_c, 0, 64, 0
2, 27778, Note_on_c, 0, 62, 0
2, 27782, Note_on_c, 0, 67, 0
2, 27789, Note_on_c, 0, 48, 41
2, 27791, Note_on_c, 0, 62, 40
2, 27793, Note_on_c, 0, 67, 30
2, 27794, Note_on_c, 0, 64, 44
2, 27798, Note_on_c, 0, 57, 38
2, 27866, Note_on_c, 0, 57, 0
2, 27908, Note_on_c, 0, 58, 60
2, 27959, Note_on_c, 0, 58, 0
2, 27962, Note_on_c, 0, 64, 0
2, 27971, Note_on_c, 0, 62, 0
2, 27971, Note_on_c, 0, 59, 49
2, 27980, Note_on_c, 0, 67, 0
2, 28006, Note_on_c, 0, 59, 0
2, 28029, Note_on_c, 0, 58, 58
2, 28071, Note_on_c, 0, 58, 0
2, 28088, Note_on_c, 0, 62, 37
2, 28090, Note_on_c, 0, 57, 45
2, 28091, Note_on_c, 0, 67, 36
2, 28093, Note_on_c, 0, 64, 38
2, 28188, Note_on_c, 0, 57, 0
2, 28199, Note_on_c, 0, 62, 0
2, 28201, Note_on_c, 0, 64, 0
2, 28202, Note_on_c, 0, 56, 34
2, 28207, Note_on_c, 0, 48, 0
2, 28216, Note_on_c, 0, 67, 0
2, 28226, Note_on_c, 0, 56, 0
2, 28262, Note_on_c, 0, 56, 44
2, 28272, Note_on_c, 0, 56, 0
2, 28383, Note_on_c, 0, 74, 83
2, 28384, Note_on_c, 0, 82, 74
2, 28385, Note_on_c, 0, 86, 88
2, 28386, Note_on_c, 0, 64, 72
2, 28387, Note_on_c, 0, 60, 64
2, 28389, Note_on_c, 0, 59, 51
2, 28389, Note_on_c, 0, 55, 56
2, 28397, Note_on_c, 0, 59, 0
2, 28408, Note_on_c, 0, 59, 19
2, 28427, Note_on_c, 0, 82, 0
2, 28427, Note_on_c, 0, 83, 40
2, 28434, Note_on_c, 0, 55, 0
2, 28437, Note_on_c, 0, 59, 0
2, 28441, Note_on_c, 0, 64, 0
2, 28442, Note_on_c, 0, 86, 0
2, 28445, Note_on_c, 0, 60, 0
2, 28451, Note_on_c, 0, 83, 0
2, 28454, Note_on_c, 0, 74, 0
2, 28502, Note_on_c, 0, 71, 54
2, 28504, Note_on_c, 0, 78, 42
2, 28504, Note_on_c, 0, 64, 49
2, 28506, Note_on_c, 0, 83, 34
2, 28506, Note_on_c, 0, 60, 48
2, 28507, Note_on_c, 0, 55, 44
2, 28509, Note_on_c, 0, 59, 46
2, 28529, Note_on_c, 0, 78, 0
2, 28534, Note_on_c, 0, 79, 31
2, 28543, Note_on_c, 0, 79, 0
2, 28543, Note_on_c, 0, 59, 0
2, 28544, Note_on_c, 0, 71, 0
2, 28545, Note_on_c, 0, 55, 0
2, 28547, Note_on_c, 0, 83, 0
2, 28547, Note_on_c, 0, 60, 0
2, 28549, Note_on_c, 0, 64, 0
2, 28575, Note_on_c, 0, 79, 49
2, 28579, Note_on_c, 0, 67, 49
2, 28580, Note_on_c, 0, 64, 38
2, 28581, Note_on_c, 0, 60, 42
2, 28582, Note_on_c, 0, 76, 40
2, 28584, Note_on_c, 0, 55, 34
2, 28590, Note_on_c, 0, 59, 32
2, 28672, Note_on_c, 0, 64, 0
2, 28675, Note_on_c, 0, 60, 0
2, 28675, Note_on_c, 0, 59, 0
2, 28682, Note_on_c, 0, 55, 0
2, 28736, Note_on_c, 0, 67, 0
2, 28745, Note_on_c, 0, 62, 52
2, 28746, Note_on_c, 0, 51, 36
2, 28752, Note_on_c, 0, 57, 41
2, 28753, Note_on_c, 0, 76, 0
2, 28759, Note_on_c, 0, 79, 0
2, 28861, Note_on_c, 0, 83, 96
2, 28889, Note_on_c, 0, 83, 0
2, 28895, Note_on_c, 0, 86, 88
2, 28917, Note_on_c, 0, 86, 0
2, 28931, Note_on_c, 0, 79, 82
2, 28961, Note_on_c, 0, 79, 0
2, 28967, Note_on_c, 0, 83, 62
2, 28990, Note_on_c, 0, 83, 0
2, 29034, Note_on_c, 0, 62, 0
2, 29036, Note_on_c, 0, 57, 0
2, 29037, Note_on_c, 0, 51, 0
2, 29101, Note_on_c, 0, 62, 58
2, 29106, Note_on_c, 0, 57, 43
2, 29117, Note_on_c, 0, 57, 0
2, 29119, Note_on_c, 0, 62, 0
2, 29160, Note_on_c, 0, 77, 89
2, 29185, Note_on_c, 0, 77, 0
2, 29193, Note_on_c, 0, 81, 76
2, 29206, Note_on_c, 0, 51, 31
2, 29210, Note_on_c, 0, 62, 24
2, 29226, Note_on_c, 0, 79, 67
2, 29231, Note_on_c, 0, 51, 0
2, 29232, Note_on_c, 0, 62, 0
2, 29235, Note_on_c, 0, 81, 0
2, 29255, Note_on_c, 0, 79, 0
2, 29286, Note_on_c, 0, 78, 53
2, 29334, Note_on_c, 0, 78, 0
2, 29343, Note_on_c, 0, 79, 54
2, 29365, Note_on_c, 0, 79, 0
2, 29404, Note_on_c, 0, 54, 35
2, 29405, Note_on_c, 0, 81, 69
2, 29405, Note_on_c, 0, 62, 37
2, 29406, Note_on_c, 0, 59, 28
2, 29418, Note_on_c, 0, 59, 0
2, 29418, Note_on_c, 0, 62, 0
2, 29422, Note_on_c, 0, 81, 0
2, 29423, Note_on_c, 0, 54, 0
2, 29467, Note_on_c, 0, 78, 57
2, 29484, Note_on_c, 0, 78, 0
2, 29531, Note_on_c, 0, 79, 62
2, 29586, Note_on_c, 0, 54, 67
2, 29645, Note_on_c, 0, 59, 30
2, 29647, Note_on_c, 0, 62, 16
2, 29678, Note_on_c, 0, 54, 0
2, 29705, Note_on_c, 0, 52, 58
2, 29716, Note_on_c, 0, 59, 0
2, 29717, Note_on_c, 0, 62, 0
2, 29782, Note_on_c, 0, 79, 0
2, 29829, Note_on_c, 0, 78, 51
2, 29830, Note_on_c, 0, 62, 49
2, 29835, Note_on_c, 0, 59, 38
2, 29862, Note_on_c, 0, 62, 0
2, 29871, Note_on_c, 0, 78, 0
2, 29885, Note_on_c, 0, 52, 0
2, 29899, Note_on_c, 0, 79, 28
2, 29909, Note_on_c, 0, 79, 0
2, 29952, Note_on_c, 0, 52, 48
2, 29954, Note_on_c, 0, 83, 83
2, 29973, Note_on_c, 0, 83, 0
2, 29977, Note_on_c, 0, 59, 0
2, 29978, Note_on_c, 0, 52, 0
2, 30016, Note_on_c, 0, 86, 103
2, 30017, Note_on_c, 0, 50, 69
2, 30018, Note_on_c, 0, 59, 43
2, 30059, Note_on_c, 0, 86, 0
2, 30077, Note_on_c, 0, 86, 81
2, 30115, Note_on_c, 0, 86, 0
2, 30136, Note_on_c, 0, 84, 82
2, 30148, Note_on_c, 0, 50, 0
2, 30184, Note_on_c, 0, 84, 0
2, 30194, Note_on_c, 0, 50, 51
2, 30195, Note_on_c, 0, 83, 74
2, 30218, Note_on_c, 0, 50, 0
2, 30234, Note_on_c, 0, 83, 0
2, 30253, Note_on_c, 0, 81, 63
2, 30254, Note_on_c, 0, 49, 57
2, 30257, Note_on_c, 0, 59, 0
2, 30423, Note_on_c, 0, 76, 53
2, 30427, Note_on_c, 0, 59, 28
2, 30439, Note_on_c, 0, 59, 0
2, 30458, Note_on_c, 0, 76, 0
2, 30483, Note_on_c, 0, 59, 33
2, 30493, Note_on_c, 0, 76, 17
2, 30612, Note_on_c, 0, 49, 0
2, 30656, Note_on_c, 0, 49, 43
2, 30663, Note_on_c, 0, 81, 0
2, 30665, Note_on_c, 0, 76, 0
2, 30668, Note_on_c, 0, 69, 25
2, 30671, Note_on_c, 0, 49, 0
2, 30673, Note_on_c, 0, 59, 0
2, 30680, Note_on_c, 0, 69, 0
2, 30723, Note_on_c, 0, 54, 25
2, 30725, Note_on_c, 0, 64, 36
2, 30726, Note_on_c, 0, 81, 74
2, 30726, Note_on_c, 0, 74, 75
2, 30728, Note_on_c, 0, 58, 37
2, 30751, Note_on_c, 0, 74, 0
2, 30751, Note_on_c, 0, 81, 0
2, 30760, Note_on_c, 0, 79, 48
2, 30763, Note_on_c, 0, 69, 47
2, 30782, Note_on_c, 0, 69, 0
2, 30791, Note_on_c, 0, 79, 0
2, 30801, Note_on_c, 0, 81, 63
2, 30802, Note_on_c, 0, 74, 72
2, 30911, Note_on_c, 0, 81, 0
2, 30912, Note_on_c, 0, 74, 0
2, 30919, Note_on_c, 0, 58, 0
2, 30920, Note_on_c, 0, 64, 0
2, 30936, Note_on_c, 0, 54, 0
2, 31020, Note_on_c, 0, 64, 42
2, 31028, Note_on_c, 0, 58, 20
2, 31032, Note_on_c, 0, 64, 0
2, 31038, Note_on_c, 0, 58, 0
2, 31205, Note_on_c, 0, 82, 73
2, 31206, Note_on_c, 0, 75, 77
2, 31251, Note_on_c, 0, 82, 0
2, 31264, Note_on_c, 0, 80, 39
2, 31267, Note_on_c, 0, 70, 30
2, 31285, Note_on_c, 0, 75, 0
2, 31299, Note_on_c, 0, 70, 0
2, 31310, Note_on_c, 0, 80, 0
2, 31326, Note_on_c, 0, 75, 52
2, 31328, Note_on_c, 0, 82, 49
2, 31369, Note_on_c, 0, 82, 0
2, 31383, Note_on_c, 0, 80, 38
2, 31385, Note_on_c, 0, 70, 37
2, 31398, Note_on_c, 0, 75, 0
2, 31407, Note_on_c, 0, 70, 0
2, 31430, Note_on_c, 0, 80, 0
2, 31443, Note_on_c, 0, 82, 46
2, 31444, Note_on_c, 0, 75, 49
2, 31491, Note_on_c, 0, 82, 0
2, 31505, Note_on_c, 0, 70, 38
2, 31506, Note_on_c, 0, 80, 42
2, 31526, Note_on_c, 0, 75, 0
2, 31530, Note_on_c, 0, 70, 0
2, 31546, Note_on_c, 0, 80, 0
2, 31562, Note_on_c, 0, 75, 42
2, 31562, Note_on_c, 0, 82, 44
2, 31605, Note_on_c, 0, 82, 0
2, 31623, Note_on_c, 0, 70, 31
2, 31625, Note_on_c, 0, 80, 30
2, 31639, Note_on_c, 0, 70, 0
2, 31651, Note_on_c, 0, 75, 0
2, 31658, Note_on_c, 0, 80, 0
2, 31678, Note_on_c, 0, 74, 72
2, 31679, Note_on_c, 0, 83, 68
2, 31679, Note_on_c, 0, 79, 63
2, 31681, Note_on_c, 0, 67, 51
2, 31682, Note_on_c, 0, 56, 33
2, 31683, Note_on_c, 0, 62, 43
2, 31694, Note_on_c, 0, 74, 0
2, 31697, Note_on_c, 0, 79, 0
2, 31699, Note_on_c, 0, 83, 0
2, 31700, Note_on_c, 0, 67, 0
2, 31702, Note_on_c, 0, 62, 0
2, 31704, Note_on_c, 0, 56, 0
2, 31746, Note_on_c, 0, 79, 77
2, 31746, Note_on_c, 0, 83, 76
2, 31747, Note_on_c, 0, 56, 65
2, 31747, Note_on_c, 0, 74, 81
2, 31747, Note_on_c, 0, 67, 72
2, 31749, Note_on_c, 0, 62, 63
2, 31787, Note_on_c, 0, 56, 0
2, 31788, Note_on_c, 0, 67, 0
2, 31791, Note_on_c, 0, 74, 0
2, 31792, Note_on_c, 0, 79, 0
2, 31793, Note_on_c, 0, 83, 0
2, 31794, Note_on_c, 0, 62, 0
2, 31806, Note_on_c, 0, 56, 49
2, 31807, Note_on_c, 0, 67, 63
2, 31808, Note_on_c, 0, 77, 68
2, 31808, Note_on_c, 0, 81, 69
2, 31810, Note_on_c, 0, 72, 60
2, 31810, Note_on_c, 0, 62, 71
2, 31929, Note_on_c, 0, 77, 0
2, 31932, Note_on_c, 0, 81, 0
2, 31960, Note_on_c, 0, 56, 0
2, 31962, Note_on_c, 0, 67, 0
2, 31967, Note_on_c, 0, 72, 0
2, 31976, Note_on_c, 0, 62, 0
2, 31989, Note_on_c, 0, 67, 48
2, 31991, Note_on_c, 0, 62, 27
2, 31991, Note_on_c, 0, 56, 34
2, 32033, Note_on_c, 0, 67, 0
2, 32045, Note_on_c, 0, 62, 0
2, 32059, Note_on_c, 0, 56, 0
2, 32108, Note_on_c, 0, 77, 82
2, 32140, Note_on_c, 0, 77, 0
2, 32163, Note_on_c, 0, 75, 74
2, 32167, Note_on_c, 0, 52, 41
2, 32167, Note_on_c, 0, 59, 30
2, 32176, Note_on_c, 0, 76, 61
2, 32187, Note_on_c, 0, 75, 0
2, 32205, Note_on_c, 0, 76, 0
2, 32229, Note_on_c, 0, 74, 74
2, 32255, Note_on_c, 0, 74, 0
2, 32285, Note_on_c, 0, 71, 49
2, 32298, Note_on_c, 0, 52, 0
2, 32304, Note_on_c, 0, 71, 0
2, 32304, Note_on_c, 0, 59, 0
2, 32340, Note_on_c, 0, 69, 57
2, 32346, Note_on_c, 0, 52, 29
2, 32360, Note_on_c, 0, 69, 0
2, 32373, Note_on_c, 0, 52, 0
2, 32408, Note_on_c, 0, 67, 69
2, 32409, Note_on_c, 0, 52, 35
2, 32413, Note_on_c, 0, 59, 30
2, 32451, Note_on_c, 0, 67, 0
2, 32457, Note_on_c, 0, 69, 36
2, 32477, Note_on_c, 0, 67, 35
2, 32479, Note_on_c, 0, 69, 0
2, 32497, Note_on_c, 0, 67, 0
2, 32498, Note_on_c, 0, 66, 53
2, 32513, Note_on_c, 0, 66, 0
2, 32528, Note_on_c, 0, 67, 68
2, 32547, Note_on_c, 0, 52, 0
2, 32593, Note_on_c, 0, 59, 0
2, 32695, Note_on_c, 0, 67, 0
2, 32702, Note_on_c, 0, 52, 51
2, 32705, Note_on_c, 0, 59, 35
2, 32810, Note_on_c, 0, 59, 0
2, 32816, Note_on_c, 0, 60, 61
2, 32878, Note_on_c, 0, 71, 92
2, 32924, Note_on_c, 0, 71, 0
2, 32940, Note_on_c, 0, 72, 88
2, 32976, Note_on_c, 0, 60, 0
2, 32978, Note_on_c, 0, 72, 0
2, 32998, Note_on_c, 0, 60, 50
2, 32998, Note_on_c, 0, 75, 83
2, 33034, Note_on_c, 0, 52, 0
2, 33041, Note_on_c, 0, 75, 0
2, 33062, Note_on_c, 0, 76, 89
2, 33068, Note_on_c, 0, 60, 0
2, 33073, Note_on_c, 0, 59, 26
2, 33113, Note_on_c, 0, 76, 0
2, 33122, Note_on_c, 0, 51, 54
2, 33125, Note_on_c, 0, 75, 77
2, 33148, Note_on_c, 0, 59, 0
2, 33265, Note_on_c, 0, 51, 0
2, 33303, Note_on_c, 0, 75, 0
2, 33305, Note_on_c, 0, 51, 25
2, 33309, Note_on_c, 0, 72, 65
2, 33328, Note_on_c, 0, 72, 0
2, 33336, Note_on_c, 0, 51, 0
2, 33369, Note_on_c, 0, 51, 29
2, 33373, Note_on_c, 0, 71, 63
2, 33496, Note_on_c, 0, 51, 0
2, 33527, Note_on_c, 0, 51, 35
2, 33574, Note_on_c, 0, 51, 0
2, 33592, Note_on_c, 0, 51, 46
2, 33656, Note_on_c, 0, 58, 62
2, 33709, Note_on_c, 0, 58, 0
2, 33719, Note_on_c, 0, 59, 46
2, 33800, Note_on_c, 0, 71, 0
2, 33841, Note_on_c, 0, 71, 89
2, 33890, Note_on_c, 0, 71, 0
2, 33902, Note_on_c, 0, 72, 57
2, 33913, Note_on_c, 0, 71, 57
2, 33925, Note_on_c, 0, 72, 0
2, 33935, Note_on_c, 0, 69, 43
2, 33948, Note_on_c, 0, 71, 0
2, 33962, Note_on_c, 0, 51, 0
2, 34001, Note_on_c, 0, 68, 56
2, 34008, Note_on_c, 0, 69, 0
2, 34039, Note_on_c, 0, 68, 0
2, 34051, Note_on_c, 0, 69, 65
2, 34059, Note_on_c, 0, 51, 30
2, 34080, Note_on_c, 0, 51, 0
2, 34081, Note_on_c, 0, 69, 0
2, 34092, Note_on_c, 0, 70, 60
2, 34100, Note_on_c, 0, 50, 51
2, 34118, Note_on_c, 0, 70, 0
2, 34153, Note_on_c, 0, 69, 70
2, 34184, Note_on_c, 0, 59, 0
2, 34185, Note_on_c, 0, 69, 0
2, 34192, Note_on_c, 0, 65, 50
2, 34223, Note_on_c, 0, 65, 0
2, 34233, Note_on_c, 0, 64, 34
2, 34256, Note_on_c, 0, 64, 0
2, 34267, Note_on_c, 0, 67, 67
2, 34280, Note_on_c, 0, 60, 20
2, 34296, Note_on_c, 0, 67, 0
2, 34307, Note_on_c, 0, 64, 43
2, 34326, Note_on_c, 0, 64, 0
2, 34335, Note_on_c, 0, 65, 65
2, 34346, Note_on_c, 0, 60, 0
2, 34434, Note_on_c, 0, 50, 0
2, 34523, Note_on_c, 0, 62, 54
2, 34524, Note_on_c, 0, 50, 47
2, 34549, Note_on_c, 0, 50, 0
2, 34556, Note_on_c, 0, 62, 0
2, 34585, Note_on_c, 0, 59, 49
2, 34593, Note_on_c, 0, 49, 35
2, 34722, Note_on_c, 0, 59, 0
2, 34743, Note_on_c, 0, 65, 0
2, 34743, Note_on_c, 0, 56, 35
2, 34780, Note_on_c, 0, 56, 0
2, 34807, Note_on_c, 0, 56, 26
2, 34866, Note_on_c, 0, 56, 0
2, 34868, Note_on_c, 0, 59, 48
2, 34868, Note_on_c, 0, 71, 71
2, 34869, Note_on_c, 0, 68, 48
2, 34869, Note_on_c, 0, 64, 74
2, 34915, Note_on_c, 0, 68, 0
2, 34925, Note_on_c, 0, 59, 0
2, 34926, Note_on_c, 0, 71, 0
2, 34929, Note_on_c, 0, 56, 34
2, 34934, Note_on_c, 0, 69, 45
2, 34944, Note_on_c, 0, 49, 0
2, 34973, Note_on_c, 0, 64, 0
2, 34990, Note_on_c, 0, 49, 42
2, 34999, Note_on_c, 0, 69, 0
2, 35033, Note_on_c, 0, 49, 0
2, 35033, Note_on_c, 0, 56, 0
2, 35050, Note_on_c, 0, 48, 40
2, 35052, Note_on_c, 0, 64, 43
2, 35055, Note_on_c, 0, 59, 35
2, 35056, Note_on_c, 0, 55, 40
2, 35122, Control_c, 0, 64, 127
2, 35153, Note_on_c, 0, 59, 0
2, 35173, Note_on_c, 0, 64, 0
2, 35195, Note_on_c, 0, 48, 0
2, 35217, Note_on_c, 0, 55, 0
2, 35228, Note_on_c, 0, 48, 44
2, 35254, Control_c, 0, 64, 0
2, 35286, Note_on_c, 0, 56, 59
2, 35287, Note_on_c, 0, 71, 79
2, 35288, Note_on_c, 0, 68, 69
2, 35289, Note_on_c, 0, 64, 74
2, 35338, Note_on_c, 0, 64, 0
2, 35345, Note_on_c, 0, 71, 0
2, 35349, Note_on_c, 0, 76, 74
2, 35352, Note_on_c, 0, 59, 40
2, 35367, Note_on_c, 0, 56, 0
2, 35399, Note_on_c, 0, 76, 0
2, 35403, Note_on_c, 0, 71, 53
2, 35404, Note_on_c, 0, 59, 0
2, 35405, Note_on_c, 0, 56, 45
2, 35441, Note_on_c, 0, 68, 0
2, 35459, Note_on_c, 0, 71, 0
2, 35463, Note_on_c, 0, 74, 56
2, 35465, Note_on_c, 0, 56, 0
2, 35465, Note_on_c, 0, 67, 57
2, 35466, Note_on_c, 0, 57, 62
2, 35467, Note_on_c, 0, 64, 50
2, 35553, Note_on_c, 0, 74, 0
2, 35556, Note_on_c, 0, 64, 0
2, 35558, Note_on_c, 0, 67, 0
2, 35581, Note_on_c, 0, 73, 49
2, 35583, Note_on_c, 0, 56, 50
2, 35585, Note_on_c, 0, 64, 44
2, 35586, Note_on_c, 0, 57, 0
2, 35587, Note_on_c, 0, 67, 43
2, 35615, Note_on_c, 0, 64, 0
2, 35620, Note_on_c, 0, 67, 0
2, 35644, Note_on_c, 0, 67, 36
2, 35645, Note_on_c, 0, 56, 0
2, 35649, Note_on_c, 0, 64, 20
2, 35649, Note_on_c, 0, 72, 36
2, 35650, Note_on_c, 0, 55, 33
2, 35651, Note_on_c, 0, 73, 0
2, 35652, Note_on_c, 0, 48, 0
2, 35670, Note_on_c, 0, 72, 0
2, 35670, Note_on_c, 0, 67, 0
2, 35673, Note_on_c, 0, 64, 0
2, 35699, Note_on_c, 0, 48, 56
2, 35711, Note_on_c, 0, 55, 0
2, 35764, Note_on_c, 0, 62, 36
2, 35764, Note_on_c, 0, 67, 46
2, 35765, Note_on_c, 0, 71, 44
2, 35765, Note_on_c, 0, 64, 44
2, 35771, Note_on_c, 0, 55, 34
2, 35817, Control_c, 0, 64, 0
2, 35820, Note_on_c, 0, 47, 71
2, 35822, Note_on_c, 0, 35, 68
2, 35840, Note_on_c, 0, 47, 0
2, 35850, Note_on_c, 0, 47, 27
2, 35859, Control_c, 0, 64, 127
2, 35862, Note_on_c, 0, 48, 0
2, 35870, Note_on_c, 0, 55, 0
2, 35888, Note_on_c, 0, 62, 0
2, 35894, Note_on_c, 0, 47, 0
2, 35896, Note_on_c, 0, 35, 0
2, 35902, Note_on_c, 0, 64, 0
2, 35916, Note_on_c, 0, 67, 0
2, 35934, Note_on_c, 0, 45, 79
2, 35936, Note_on_c, 0, 33, 71
2, 35938, Control_c, 0, 64, 0
2, 35961, Note_on_c, 0, 33, 0
2, 35967, Note_on_c, 0, 45, 0
2, 35978, Control_c, 0, 64, 127
2, 36037, Note_on_c, 0, 71, 0
2, 36053, Note_on_c, 0, 88, 81
2, 36054, Note_on_c, 0, 76, 74
2, 36055, Note_on_c, 0, 81, 71
2, 36055, Note_on_c, 0, 84, 71
2, 36056, Note_on_c, 0, 64, 68
2, 36057, Note_on_c, 0, 59, 58
2, 36058, Note_on_c, 0, 60, 68
2, 36066, Control_c, 0, 64, 0
2, 36084, Control_c, 0, 64, 127
2, 36123, Note_on_c, 0, 59, 0
2, 36130, Note_on_c, 0, 60, 0
2, 36153, Note_on_c, 0, 64, 0
2, 36196, Note_on_c, 0, 76, 0
2, 36200, Note_on_c, 0, 84, 0
2, 36200, Note_on_c, 0, 81, 0
2, 36210, Note_on_c, 0, 88, 0
2, 36236, Note_on_c, 0, 88, 44
2, 36239, Note_on_c, 0, 64, 49
2, 36239, Note_on_c, 0, 76, 45
2, 36239, Note_on_c, 0, 81, 45
2, 36241, Note_on_c, 0, 84, 44
2, 36243, Note_on_c, 0, 59, 42
2, 36243, Note_on_c, 0, 60, 47
2, 36247, Note_on_c, 0, 57, 38
2, 36290, Note_on_c, 0, 60, 0
2, 36290, Note_on_c, 0, 64, 0
2, 36294, Note_on_c, 0, 59, 0
2, 36312, Note_on_c, 0, 57, 0
2, 36360, Note_on_c, 0, 76, 0
2, 36370, Note_on_c, 0, 88, 0
2, 36371, Note_on_c, 0, 46, 20
2, 36383, Note_on_c, 0, 46, 0
2, 36399, Note_on_c, 0, 81, 0
2, 36400, Note_on_c, 0, 84, 0
2, 36422, Note_on_c, 0, 46, 77
2, 36422, Note_on_c, 0, 34, 74
2, 36435, Control_c, 0, 64, 0
2, 36446, Note_on_c, 0, 34, 0
2, 36448, Control_c, 0, 64, 127
2, 36457, Note_on_c, 0, 46, 0
2, 36545, Note_on_c, 0, 91, 82
2, 36545, Note_on_c, 0, 55, 79
2, 36546, Note_on_c, 0, 61, 74
2, 36546, Note_on_c, 0, 58, 72
2, 36546, Note_on_c, 0, 79, 80
2, 36547, Note_on_c, 0, 64, 79
2, 36547, Note_on_c, 0, 86, 88
2, 36627, Note_on_c, 0, 79, 0
2, 36627, Note_on_c, 0, 55, 0
2, 36631, Note_on_c, 0, 86, 0
2, 36632, Note_on_c, 0, 64, 0
2, 36634, Note_on_c, 0, 58, 0
2, 36634, Note_on_c, 0, 61, 0
2, 36639, Note_on_c, 0, 91, 0
2, 36661, Note_on_c, 0, 64, 78
2, 36662, Note_on_c, 0, 61, 71
2, 36662, Note_on_c, 0, 91, 60
2, 36662, Note_on_c, 0, 58, 67
2, 36662, Note_on_c, 0, 55, 75
2, 36664, Note_on_c, 0, 86, 87
2, 36666, Note_on_c, 0, 79, 58
2, 36685, Note_on_c, 0, 79, 0
2, 36693, Note_on_c, 0, 86, 0
2, 36698, Note_on_c, 0, 91, 0
2, 36701, Note_on_c, 0, 55, 0
2, 36706, Note_on_c, 0, 64, 0
2, 36712, Note_on_c, 0, 61, 0
2, 36714, Note_on_c, 0, 58, 0
2, 36739, Note_on_c, 0, 58, 78
2, 36739, Note_on_c, 0, 94, 79
2, 36740, Note_on_c, 0, 64, 80
2, 36740, Note_on_c, 0, 61, 74
2, 36741, Note_on_c, 0, 82, 72
2, 36742, Note_on_c, 0, 55, 76
2, 36811, Note_on_c, 0, 55, 0
2, 36812, Note_on_c, 0, 64, 0
2, 36817, Note_on_c, 0, 94, 0
2, 36819, Note_on_c, 0, 82, 0
2, 36819, Note_on_c, 0, 61, 0
2, 36820, Note_on_c, 0, 58, 0
2, 36844, Note_on_c, 0, 61, 50
2, 36844, Note_on_c, 0, 93, 79
2, 36845, Note_on_c, 0, 58, 57
2, 36845, Note_on_c, 0, 64, 60
2, 36847, Note_on_c, 0, 81, 57
2, 36849, Note_on_c, 0, 55, 43
2, 36852, Note_on_c, 0, 90, 29
2, 36853, Note_on_c, 0, 83, 42
2, 36862, Note_on_c, 0, 83, 0
2, 36866, Note_on_c, 0, 64, 0
2, 36868, Note_on_c, 0, 90, 0
2, 36875, Note_on_c, 0, 93, 0
2, 36877, Note_on_c, 0, 81, 0
2, 36877, Note_on_c, 0, 55, 0
2, 36884, Note_on_c, 0, 61, 0
2, 36886, Note_on_c, 0, 58, 0
2, 36904, Note_on_c, 0, 61, 42
2, 36905, Note_on_c, 0, 91, 60
2, 36907, Note_on_c, 0, 64, 39
2, 36910, Note_on_c, 0, 79, 48
2, 36923, Note_on_c, 0, 64, 0
2, 36925, Note_on_c, 0, 79, 0
2, 36930, Note_on_c, 0, 91, 0
2, 36932, Note_on_c, 0, 61, 0
2, 36963, Note_on_c, 0, 66, 59
2, 36964, Note_on_c, 0, 93, 83
2, 36965, Note_on_c, 0, 57, 68
2, 36965, Note_on_c, 0, 62, 57
2, 36965, Note_on_c, 0, 86, 82
2, 36966, Note_on_c, 0, 81, 68
2, 36967, Control_c, 0, 64, 0
2, 36997, Control_c, 0, 64, 127
2, 37053, Note_on_c, 0, 93, 0
2, 37062, Note_on_c, 0, 86, 0
2, 37064, Note_on_c, 0, 66, 0
2, 37074, Note_on_c, 0, 81, 0
2, 37076, Note_on_c, 0, 57, 0
2, 37109, Note_on_c, 0, 62, 0
2, 37141, Note_on_c, 0, 90, 51
2, 37144, Note_on_c, 0, 78, 40
2, 37147, Note_on_c, 0, 86, 62
2, 37147, Note_on_c, 0, 57, 50
2, 37149, Note_on_c, 0, 66, 43
2, 37150, Note_on_c, 0, 62, 37
2, 37196, Note_on_c, 0, 90, 0
2, 37197, Note_on_c, 0, 86, 0
2, 37214, Note_on_c, 0, 78, 0
2, 37221, Note_on_c, 0, 57, 0
2, 37230, Note_on_c, 0, 66, 0
2, 37245, Note_on_c, 0, 62, 0
2, 37265, Note_on_c, 0, 66, 48
2, 37266, Note_on_c, 0, 62, 34
2, 37280, Note_on_c, 0, 57, 22
2, 37300, Note_on_c, 0, 62, 0
2, 37314, Note_on_c, 0, 66, 0
2, 37390, Note_on_c, 0, 81, 62
2, 37391, Note_on_c, 0, 76, 55
2, 37392, Note_on_c, 0, 71, 48
2, 37392, Note_on_c, 0, 65, 51
2, 37401, Control_c, 0, 64, 0
2, 37441, Control_c, 0, 64, 127
2, 37465, Note_on_c, 0, 81, 0
2, 37473, Note_on_c, 0, 76, 0
2, 37481, Note_on_c, 0, 65, 0
2, 37484, Note_on_c, 0, 71, 0
2, 37510, Note_on_c, 0, 79, 37
2, 37512, Note_on_c, 0, 74, 46
2, 37515, Note_on_c, 0, 64, 41
2, 37516, Note_on_c, 0, 69, 28
2, 37525, Control_c, 0, 64, 0
2, 37551, Control_c, 0, 64, 127
2, 37573, Note_on_c, 0, 69, 0
2, 37578, Note_on_c, 0, 74, 0
2, 37587, Note_on_c, 0, 64, 0
2, 37596, Note_on_c, 0, 79, 0
2, 37624, Note_on_c, 0, 78, 39
2, 37625, Note_on_c, 0, 74, 51
2, 37628, Note_on_c, 0, 69, 55
2, 37628, Note_on_c, 0, 62, 42
2, 37641, Note_on_c, 0, 57, 0
2, 37645, Note_on_c, 0, 74, 0
2, 37649, Note_on_c, 0, 78, 0
2, 37656, Note_on_c, 0, 69, 0
2, 37676, Note_on_c, 0, 62, 0
2, 37688, Note_on_c, 0, 76, 55
2, 37690, Control_c, 0, 64, 0
2, 37691, Note_on_c, 0, 67, 36
2, 37692, Note_on_c, 0, 72, 44
2, 37693, Note_on_c, 0, 60, 44
2, 37723, Control_c, 0, 64, 127
2, 37788, Note_on_c, 0, 72, 0
2, 37792, Note_on_c, 0, 67, 0
2, 37793, Note_on_c, 0, 76, 0
2, 37793, Note_on_c, 0, 60, 0
2, 37864, Note_on_c, 0, 52, 30
2, 37879, Note_on_c, 0, 52, 0
2, 37924, Note_on_c, 0, 74, 40
2, 37927, Note_on_c, 0, 67, 33
2, 37927, Note_on_c, 0, 45, 35
2, 37931, Control_c, 0, 64, 0
2, 37944, Note_on_c, 0, 67, 0
2, 37951, Note_on_c, 0, 74, 0
2, 37979, Note_on_c, 0, 52, 15
2, 38038, Note_on_c, 0, 74, 45
2, 38041, Note_on_c, 0, 67, 38
2, 38043, Note_on_c, 0, 60, 37
2, 38043, Note_on_c, 0, 62, 35
2, 38060, Note_on_c, 0, 62, 0
2, 38060, Note_on_c, 0, 60, 0
2, 38065, Note_on_c, 0, 67, 0
2, 38073, Note_on_c, 0, 74, 0
2, 38084, Note_on_c, 0, 52, 0
2, 38160, Note_on_c, 0, 74, 50
2, 38163, Note_on_c, 0, 67, 39
2, 38164, Note_on_c, 0, 57, 31
2, 38168, Note_on_c, 0, 62, 27
2, 38168, Note_on_c, 0, 60, 26
2, 38182, Control_c, 0, 64, 127
2, 38209, Note_on_c, 0, 60, 0
2, 38212, Note_on_c, 0, 62, 0
2, 38231, Note_on_c, 0, 72, 48
2, 38238, Note_on_c, 0, 52, 30
2, 38239, Note_on_c, 0, 74, 0
2, 38245, Note_on_c, 0, 45, 0
2, 38250, Note_on_c, 0, 52, 0
2, 38254, Note_on_c, 0, 57, 0
2, 38276, Note_on_c, 0, 67, 0
2, 38309, Note_on_c, 0, 72, 0
2, 38343, Note_on_c, 0, 74, 62
2, 38346, Note_on_c, 0, 63, 49
2, 38348, Note_on_c, 0, 67, 49
2, 38352, Note_on_c, 0, 48, 47
2, 38352, Note_on_c, 0, 58, 37
2, 38357, Control_c, 0, 64, 0
2, 38401, Control_c, 0, 64, 127
2, 38468, Note_on_c, 0, 58, 0
2, 38478, Note_on_c, 0, 55, 43
2, 38496, Note_on_c, 0, 67, 0
2, 38500, Note_on_c, 0, 63, 0
2, 38501, Note_on_c, 0, 55, 0
2, 38584, Note_on_c, 0, 63, 60
2, 38584, Note_on_c, 0, 67, 69
2, 38587, Note_on_c, 0, 58, 60
2, 38623, Note_on_c, 0, 48, 0
2, 38626, Note_on_c, 0, 58, 0
2, 38710, Note_on_c, 0, 58, 84
2, 38728, Note_on_c, 0, 63, 0
2, 38748, Note_on_c, 0, 67, 0
2, 38752, Note_on_c, 0, 74, 0
2, 38762, Note_on_c, 0, 72, 50
2, 38762, Note_on_c, 0, 67, 33
2, 38763, Note_on_c, 0, 63, 47
2, 38806, Note_on_c, 0, 63, 0
2, 38817, Note_on_c, 0, 67, 0
2, 38821, Note_on_c, 0, 72, 0
2, 38827, Note_on_c, 0, 48, 40
2, 38840, Note_on_c, 0, 58, 0
2, 38843, Note_on_c, 0, 48, 0
2, 38883, Note_on_c, 0, 66, 79
2, 38883, Note_on_c, 0, 75, 68
2, 38884, Note_on_c, 0, 63, 68
2, 38886, Note_on_c, 0, 57, 71
2, 38888, Note_on_c, 0, 47, 58
2, 38893, Control_c, 0, 64, 0
2, 38939, Control_c, 0, 64, 127
2, 39002, Note_on_c, 0, 47, 0
2, 39011, Note_on_c, 0, 57, 0
2, 39022, Note_on_c, 0, 66, 0
2, 39029, Note_on_c, 0, 63, 0
2, 39051, Note_on_c, 0, 75, 0
2, 39061, Note_on_c, 0, 57, 54
2, 39061, Note_on_c, 0, 66, 60
2, 39062, Note_on_c, 0, 63, 43
2, 39065, Note_on_c, 0, 47, 33
2, 39069, Note_on_c, 0, 57, 0
2, 39087, Note_on_c, 0, 47, 0
2, 39161, Note_on_c, 0, 63, 0
2, 39178, Note_on_c, 0, 66, 0
2, 39184, Note_on_c, 0, 47, 88
2, 39185, Note_on_c, 0, 35, 84
2, 39207, Note_on_c, 0, 47, 0
2, 39216, Note_on_c, 0, 35, 0
2, 39304, Note_on_c, 0, 28, 89
2, 39305, Note_on_c, 0, 40, 99
2, 39365, Control_c, 0, 64, 0
2, 39367, Note_on_c, 0, 71, 85
2, 39367, Note_on_c, 0, 66, 85
2, 39368, Note_on_c, 0, 64, 85
2, 39394, Note_on_c, 0, 64, 0
2, 39394, Note_on_c, 0, 66, 0
2, 39397, Note_on_c, 0, 71, 0
2, 39488, Note_on_c, 0, 64, 47
2, 39490, Note_on_c, 0, 71, 40
2, 39491, Note_on_c, 0, 66, 37
2, 39516, Note_on_c, 0, 64, 0
2, 39524, Note_on_c, 0, 66, 0
2, 39525, Note_on_c, 0, 71, 0
2, 39608, Note_on_c, 0, 64, 50
2, 39608, Note_on_c, 0, 66, 30
2, 39609, Note_on_c, 0, 71, 37
2, 39621, Control_c, 0, 64, 127
2, 39669, Note_on_c, 0, 59, 49
2, 39680, Note_on_c, 0, 64, 0
2, 39693, Note_on_c, 0, 28, 0
2, 39693, Note_on_c, 0, 59, 0
2, 39711, Note_on_c, 0, 40, 0
2, 39724, Note_on_c, 0, 71, 0
2, 39729, Note_on_c, 0, 59, 41
2, 39748, Note_on_c, 0, 59, 0
2, 39756, Note_on_c, 0, 66, 0
2, 39792, Note_on_c, 0, 52, 62
2, 39794, Note_on_c, 0, 66, 39
2, 39795, Note_on_c, 0, 64, 58
2, 39795, Note_on_c, 0, 71, 48
2, 39809, Control_c, 0, 64, 0
2, 39850, Control_c, 0, 64, 127
2, 39904, Note_on_c, 0, 64, 0
2, 39911, Note_on_c, 0, 59, 40
2, 39935, Note_on_c, 0, 59, 0
2, 39968, Note_on_c, 0, 59, 35
2, 39987, Note_on_c, 0, 59, 0
2, 39995, Note_on_c, 0, 52, 0
2, 40027, Note_on_c, 0, 66, 0
2, 40032, Note_on_c, 0, 71, 0
2, 40086, Note_on_c, 0, 64, 47
2, 40087, Note_on_c, 0, 71, 33
2, 40087, Note_on_c, 0, 66, 25
2, 40118, Note_on_c, 0, 64, 0
2, 40148, Note_on_c, 0, 59, 43
2, 40188, Note_on_c, 0, 59, 0
2, 40207, Note_on_c, 0, 60, 31
2, 40248, Note_on_c, 0, 60, 0
2, 40262, Note_on_c, 0, 66, 0
2, 40268, Note_on_c, 0, 59, 35
2, 40284, Note_on_c, 0, 71, 0
2, 40302, Note_on_c, 0, 59, 0
2, 40321, Note_on_c, 0, 51, 36
2, 40322, Note_on_c, 0, 71, 39
2, 40323, Note_on_c, 0, 66, 37
2, 40325, Note_on_c, 0, 63, 36
2, 40327, Control_c, 0, 64, 0
2, 40360, Control_c, 0, 64, 127
2, 40391, Note_on_c, 0, 63, 0
2, 40404, Note_on_c, 0, 66, 0
2, 40411, Note_on_c, 0, 71, 0
2, 40501, Note_on_c, 0, 75, 46
2, 40503, Note_on_c, 0, 83, 54
2, 40507, Note_on_c, 0, 59, 30
2, 40546, Note_on_c, 0, 75, 0
2, 40551, Note_on_c, 0, 83, 0
2, 40558, Note_on_c, 0, 59, 0
2, 40567, Note_on_c, 0, 71, 48
2, 40568, Note_on_c, 0, 78, 25
2, 40569, Note_on_c, 0, 75, 21
2, 40569, Note_on_c, 0, 60, 29
2, 40586, Note_on_c, 0, 75, 0
2, 40589, Note_on_c, 0, 71, 0
2, 40598, Note_on_c, 0, 78, 0
2, 40646, Note_on_c, 0, 60, 0
2, 40675, Note_on_c, 0, 87, 57
2, 40677, Note_on_c, 0, 95, 45
2, 40679, Note_on_c, 0, 59, 24
2, 40708, Note_on_c, 0, 51, 0
2, 40723, Note_on_c, 0, 95, 0
2, 40727, Note_on_c, 0, 87, 0
2, 40743, Note_on_c, 0, 90, 50
2, 40747, Note_on_c, 0, 51, 35
2, 40750, Note_on_c, 0, 59, 0
2, 40750, Note_on_c, 0, 83, 47
2, 40763, Note_on_c, 0, 90, 0
2, 40769, Note_on_c, 0, 83, 0
2, 40859, Note_on_c, 0, 59, 26
2, 40910, Note_on_c, 0, 59, 0
2, 40914, Note_on_c, 0, 75, 78
2, 40915, Note_on_c, 0, 83, 71
2, 40916, Note_on_c, 0, 60, 66
2, 40963, Note_on_c, 0, 75, 0
2, 40965, Note_on_c, 0, 83, 0
2, 40969, Note_on_c, 0, 60, 0
2, 40975, Note_on_c, 0, 78, 36
2, 40980, Note_on_c, 0, 71, 34
2, 40983, Note_on_c, 0, 59, 35
2, 40992, Note_on_c, 0, 71, 0
2, 41004, Note_on_c, 0, 78, 0
2, 41035, Note_on_c, 0, 75, 86
2, 41036, Note_on_c, 0, 83, 82
2, 41037, Note_on_c, 0, 60, 69
2, 41038, Note_on_c, 0, 59, 0
2, 41090, Note_on_c, 0, 83, 0
2, 41095, Note_on_c, 0, 60, 0
2, 41097, Note_on_c, 0, 81, 61
2, 41100, Note_on_c, 0, 71, 36
2, 41101, Note_on_c, 0, 59, 47
2, 41106, Note_on_c, 0, 72, 30
2, 41114, Note_on_c, 0, 72, 0
2, 41139, Note_on_c, 0, 81, 0
2, 41158, Note_on_c, 0, 79, 51
2, 41174, Note_on_c, 0, 51, 0
2, 41179, Note_on_c, 0, 75, 0
2, 41192, Note_on_c, 0, 71, 0
2, 41200, Note_on_c, 0, 79, 0
2, 41210, Note_on_c, 0, 51, 33
2, 41216, Note_on_c, 0, 78, 30
2, 41218, Note_on_c, 0, 71, 25
2, 41223, Note_on_c, 0, 75, 14
2, 41243, Note_on_c, 0, 51, 0
2, 41253, Note_on_c, 0, 78, 0
2, 41254, Note_on_c, 0, 71, 0
2, 41260, Note_on_c, 0, 75, 0
2, 41266, Note_on_c, 0, 59, 0
2, 41273, Note_on_c, 0, 52, 48
2, 41274, Control_c, 0, 64, 0
2, 41275, Note_on_c, 0, 79, 43
2, 41276, Note_on_c, 0, 71, 34
2, 41307, Control_c, 0, 64, 127
2, 41325, Note_on_c, 0, 79, 0
2, 41344, Note_on_c, 0, 71, 0
2, 41368, Note_on_c, 0, 59, 31
2, 41445, Note_on_c, 0, 71, 32
2, 41452, Note_on_c, 0, 66, 36
2, 41455, Note_on_c, 0, 59, 0
2, 41456, Note_on_c, 0, 64, 38
2, 41460, Note_on_c, 0, 60, 35
2, 41578, Note_on_c, 0, 59, 26
2, 41598, Note_on_c, 0, 64, 0
2, 41613, Note_on_c, 0, 59, 0
2, 41632, Note_on_c, 0, 66, 0
2, 41638, Note_on_c, 0, 64, 22
2, 41653, Note_on_c, 0, 64, 0
2, 41701, Note_on_c, 0, 59, 24
2, 41706, Note_on_c, 0, 52, 0
2, 41755, Note_on_c, 0, 59, 0
2, 41758, Note_on_c, 0, 52, 49
2, 41758, Note_on_c, 0, 66, 37
2, 41760, Note_on_c, 0, 64, 39
2, 41781, Control_c, 0, 64, 0
2, 41873, Note_on_c, 0, 60, 0
2, 41878, Note_on_c, 0, 59, 37
2, 41887, Control_c, 0, 64, 127
2, 41947, Note_on_c, 0, 60, 67
2, 41951, Control_c, 0, 64, 0
2, 41964, Note_on_c, 0, 59, 0
2, 41984, Control_c, 0, 64, 127
2, 42061, Note_on_c, 0, 59, 38
2, 42063, Note_on_c, 0, 60, 0
2, 42071, Note_on_c, 0, 66, 0
2, 42071, Note_on_c, 0, 64, 0
2, 42105, Control_c, 0, 64, 0
2, 42121, Note_on_c, 0, 59, 0
2, 42122, Note_on_c, 0, 64, 34
2, 42130, Note_on_c, 0, 60, 31
2, 42140, Control_c, 0, 64, 127
2, 42156, Note_on_c, 0, 64, 0
2, 42184, Note_on_c, 0, 52, 0
2, 42190, Note_on_c, 0, 59, 16
2, 42217, Note_on_c, 0, 60, 0
2, 42241, Note_on_c, 0, 66, 37
2, 42242, Note_on_c, 0, 59, 0
2, 42243, Note_on_c, 0, 51, 39
2, 42245, Note_on_c, 0, 63, 25
2, 42247, Control_c, 0, 64, 0
2, 42286, Control_c, 0, 64, 127
2, 42353, Control_c, 0, 64, 0
2, 42356, Note_on_c, 0, 58, 35
2, 42379, Control_c, 0, 64, 127
2, 42421, Note_on_c, 0, 58, 0
2, 42426, Note_on_c, 0, 59, 53
2, 42436, Control_c, 0, 64, 0
2, 42474, Control_c, 0, 64, 127
2, 42533, Note_on_c, 0, 63, 0
2, 42538, Note_on_c, 0, 66, 0
2, 42542, Note_on_c, 0, 59, 0
2, 42546, Note_on_c, 0, 58, 28
2, 42597, Note_on_c, 0, 58, 0
2, 42608, Note_on_c, 0, 63, 23
2, 42611, Note_on_c, 0, 66, 29
2, 42615, Control_c, 0, 64, 0
2, 42616, Note_on_c, 0, 59, 18
2, 42641, Note_on_c, 0, 51, 0
2, 42659, Control_c, 0, 64, 127
2, 42717, Note_on_c, 0, 51, 38
2, 42747, Note_on_c, 0, 66, 0
2, 42748, Note_on_c, 0, 59, 0
2, 42788, Note_on_c, 0, 63, 0
2, 42837, Note_on_c, 0, 71, 0
2, 42901, Note_on_c, 0, 58, 27
2, 42962, Note_on_c, 0, 58, 0
2, 42968, Note_on_c, 0, 59, 36
2, 42970, Control_c, 0, 64, 0
2, 42985, Note_on_c, 0, 51, 0
2, 43075, Note_on_c, 0, 59, 0
2, 43082, Note_on_c, 0, 51, 35
2, 43104, Note_on_c, 0, 51, 0
2, 43323, Note_on_c, 0, 71, 44
2, 43334, Note_on_c, 0, 71, 0
2, 43390, Note_on_c, 0, 76, 79
2, 43405, Note_on_c, 0, 76, 0
2, 43448, Note_on_c, 0, 78, 69
2, 43463, Note_on_c, 0, 78, 0
2, 43503, Note_on_c, 0, 79, 79
2, 43536, Note_on_c, 0, 79, 0
2, 43561, Note_on_c, 0, 78, 42
2, 43587, Note_on_c, 0, 78, 0
2, 43623, Note_on_c, 0, 76, 41
2, 43665, Note_on_c, 0, 76, 0
2, 43690, Note_on_c, 0, 71, 29
2, 43693, Note_on_c, 0, 52, 28
2, 43699, Note_on_c, 0, 59, 20
2, 43701, Note_on_c, 0, 71, 0
2, 43757, Note_on_c, 0, 66, 37
2, 43780, Note_on_c, 0, 66, 0
2, 43815, Note_on_c, 0, 62, 27
2, 43823, Note_on_c, 0, 62, 0
2, 43873, Note_on_c, 0, 64, 88
2, 43891, Note_on_c, 0, 64, 0
2, 43932, Note_on_c, 0, 64, 91
2, 43993, Note_on_c, 0, 66, 37
2, 44007, Note_on_c, 0, 64, 0
2, 44017, Note_on_c, 0, 52, 0
2, 44042, Note_on_c, 0, 66, 0
2, 44048, Note_on_c, 0, 64, 30
2, 44106, Note_on_c, 0, 64, 0
2, 44110, Note_on_c, 0, 63, 38
2, 44130, Control_c, 0, 64, 127
2, 44146, Control_c, 0, 64, 0
2, 44162, Note_on_c, 0, 51, 33
2, 44163, Note_on_c, 0, 59, 0
2, 44340, Note_on_c, 0, 66, 48
2, 44342, Note_on_c, 0, 63, 0
2, 44379, Note_on_c, 0, 66, 0
2, 44416, Note_on_c, 0, 66, 53
2, 44417, Note_on_c, 0, 74, 63
2, 44418, Note_on_c, 0, 63, 50
2, 44423, Note_on_c, 0, 62, 29
2, 44465, Control_c, 0, 64, 127
2, 44525, Control_c, 0, 64, 0
2, 44545, Control_c, 0, 64, 127
2, 44558, Control_c, 0, 64, 0
2, 44636, Control_c, 0, 64, 127
2, 44666, Note_on_c, 0, 62, 0
2, 44685, Note_on_c, 0, 74, 0
2, 44707, Note_on_c, 0, 72, 42
2, 44716, Note_on_c, 0, 60, 24
2, 44724, Control_c, 0, 64, 0
2, 44772, Control_c, 0, 64, 127
2, 44848, Note_on_c, 0, 60, 0
2, 44880, Note_on_c, 0, 72, 0
2, 44924, Note_on_c, 0, 63, 0
2, 44942, Note_on_c, 0, 63, 53
2, 44944, Note_on_c, 0, 71, 61
2, 44947, Note_on_c, 0, 59, 44
2, 44949, Control_c, 0, 64, 0
2, 44984, Note_on_c, 0, 66, 0
2, 45002, Control_c, 0, 64, 127
2, 45009, Note_on_c, 0, 63, 0
2, 45017, Control_c, 0, 64, 0
2, 45026, Note_on_c, 0, 51, 0
2, 45026, Control_c, 0, 64, 127
2, 45050, Note_on_c, 0, 59, 0
2, 45053, Note_on_c, 0, 71, 0
2, 45065, Note_on_c, 0, 70, 81
2, 45114, Control_c, 0, 64, 0
2, 45115, Note_on_c, 0, 70, 0
2, 45132, Note_on_c, 0, 69, 65
2, 45137, Note_on_c, 0, 60, 27
2, 45138, Note_on_c, 0, 50, 29
2, 45138, Note_on_c, 0, 57, 28
2, 45192, Note_on_c, 0, 57, 0
2, 45192, Note_on_c, 0, 60, 0
2, 45200, Note_on_c, 0, 50, 0
2, 45234, Note_on_c, 0, 64, 24
2, 45237, Note_on_c, 0, 69, 0
2, 45296, Note_on_c, 0, 64, 0
2, 45310, Note_on_c, 0, 65, 38
2, 45315, Note_on_c, 0, 60, 38
2, 45320, Note_on_c, 0, 57, 32
2, 45330, Note_on_c, 0, 60, 0
2, 45333, Note_on_c, 0, 57, 0
2, 45496, Control_c, 0, 64, 127
2, 45500, Control_c, 0, 64, 0
2, 45549, Note_on_c, 0, 63, 42
2, 45559, Note_on_c, 0, 59, 29
2, 45559, Note_on_c, 0, 58, 38
2, 45569, Note_on_c, 0, 59, 0
2, 45571, Note_on_c, 0, 63, 0
2, 45578, Note_on_c, 0, 58, 0
2, 45695, Note_on_c, 0, 65, 0
2, 45712, Note_on_c, 0, 63, 31
2, 45714, Note_on_c, 0, 53, 33
2, 45717, Note_on_c, 0, 58, 35
2, 45719, Note_on_c, 0, 59, 37
2, 45839, Note_on_c, 0, 83, 108
2, 45842, Control_c, 0, 64, 127
2, 45849, Control_c, 0, 64, 0
2, 45900, Note_on_c, 0, 84, 78
2, 45904, Note_on_c, 0, 83, 0
2, 45941, Note_on_c, 0, 84, 0
2, 45953, Control_c, 0, 64, 127
2, 45955, Note_on_c, 0, 85, 62
2, 45959, Control_c, 0, 64, 0
2, 45966, Note_on_c, 0, 58, 0
2, 45971, Note_on_c, 0, 53, 0
2, 45976, Note_on_c, 0, 63, 0
2, 45989, Note_on_c, 0, 59, 0
2, 46002, Note_on_c, 0, 85, 0
2, 46014, Note_on_c, 0, 86, 81
2, 46016, Note_on_c, 0, 62, 49
2, 46021, Note_on_c, 0, 59, 26
2, 46023, Note_on_c, 0, 55, 45
2, 46026, Note_on_c, 0, 52, 24
2, 46038, Note_on_c, 0, 52, 0
2, 46040, Note_on_c, 0, 55, 0
2, 46042, Note_on_c, 0, 62, 0
2, 46045, Note_on_c, 0, 59, 0
2, 46053, Note_on_c, 0, 86, 0
2, 46073, Note_on_c, 0, 82, 33
2, 46083, Note_on_c, 0, 83, 60
2, 46096, Note_on_c, 0, 82, 0
2, 46107, Note_on_c, 0, 83, 0
2, 46141, Note_on_c, 0, 78, 32
2, 46168, Note_on_c, 0, 78, 0
2, 46193, Note_on_c, 0, 83, 46
2, 46229, Note_on_c, 0, 83, 0
2, 46262, Note_on_c, 0, 76, 40
2, 46277, Note_on_c, 0, 76, 0
2, 46314, Control_c, 0, 64, 127
2, 46317, Control_c, 0, 64, 0
2, 46319, Note_on_c, 0, 81, 53
2, 46356, Note_on_c, 0, 81, 0
2, 46374, Note_on_c, 0, 71, 45
2, 46410, Note_on_c, 0, 71, 0
2, 46448, Note_on_c, 0, 78, 21
2, 46494, Note_on_c, 0, 78, 0
2, 46566, Control_c, 0, 64, 127
2, 46584, Control_c, 0, 64, 0
2, 46592, Control_c, 0, 64, 127
2, 46601, Control_c, 0, 64, 0
2, 46634, Note_on_c, 0, 62, 34
2, 46640, Note_on_c, 0, 57, 27
2, 46648, Note_on_c, 0, 62, 0
2, 46650, Note_on_c, 0, 57, 0
2, 46806, Control_c, 0, 64, 127
2, 46822, Control_c, 0, 64, 0
2, 46865, Note_on_c, 0, 62, 55
2, 46869, Note_on_c, 0, 57, 40
2, 46874, Note_on_c, 0, 62, 0
2, 46878, Note_on_c, 0, 57, 0
2, 46924, Note_on_c, 0, 71, 27
2, 46956, Note_on_c, 0, 71, 0
2, 46983, Control_c, 0, 64, 127
2, 46986, Note_on_c, 0, 76, 39
2, 46987, Control_c, 0, 64, 0
2, 47008, Note_on_c, 0, 76, 0
2, 47045, Note_on_c, 0, 83, 59
2, 47048, Note_on_c, 0, 45, 44
2, 47058, Control_c, 0, 64, 127
2, 47098, Note_on_c, 0, 45, 0
2, 47109, Note_on_c, 0, 52, 40
2, 47118, Note_on_c, 0, 52, 0
2, 47226, Note_on_c, 0, 59, 72
2, 47333, Note_on_c, 0, 59, 0
2, 47340, Note_on_c, 0, 60, 64
2, 47364, Note_on_c, 0, 60, 0
2, 47402, Note_on_c, 0, 71, 35
2, 47442, Note_on_c, 0, 83, 0
2, 47446, Note_on_c, 0, 71, 0
2, 47468, Note_on_c, 0, 76, 64
2, 47488, Note_on_c, 0, 76, 0
2, 47527, Note_on_c, 0, 83, 83
2, 47528, Control_c, 0, 64, 0
2, 47529, Note_on_c, 0, 57, 55
2, 47531, Note_on_c, 0, 47, 46
2, 47574, Note_on_c, 0, 83, 0
2, 47588, Note_on_c, 0, 86, 95
2, 47617, Note_on_c, 0, 47, 0
2, 47627, Note_on_c, 0, 86, 0
2, 47649, Note_on_c, 0, 84, 52
2, 47654, Note_on_c, 0, 57, 0
2, 47683, Note_on_c, 0, 84, 0
2, 47703, Note_on_c, 0, 83, 72
2, 47705, Note_on_c, 0, 51, 42
2, 47708, Note_on_c, 0, 62, 37
2, 47710, Note_on_c, 0, 57, 40
2, 47752, Note_on_c, 0, 83, 0
2, 47771, Note_on_c, 0, 81, 35
2, 47824, Note_on_c, 0, 81, 0
2, 47828, Note_on_c, 0, 79, 34
2, 47858, Note_on_c, 0, 79, 0
2, 47885, Note_on_c, 0, 78, 33
2, 47918, Note_on_c, 0, 57, 0
2, 47934, Note_on_c, 0, 51, 0
2, 47945, Note_on_c, 0, 83, 63
2, 47963, Control_c, 0, 64, 127
2, 47966, Note_on_c, 0, 62, 0
2, 47989, Control_c, 0, 64, 0
2, 47995, Note_on_c, 0, 78, 0
2, 48002, Note_on_c, 0, 83, 0
2, 48007, Note_on_c, 0, 81, 54
2, 48067, Note_on_c, 0, 79, 54
2, 48070, Note_on_c, 0, 81, 0
2, 48113, Note_on_c, 0, 79, 0
2, 48128, Note_on_c, 0, 78, 42
2, 48130, Note_on_c, 0, 59, 31
2, 48131, Note_on_c, 0, 62, 32
2, 48133, Note_on_c, 0, 55, 31
2, 48188, Note_on_c, 0, 78, 0
2, 48193, Note_on_c, 0, 62, 0
2, 48202, Note_on_c, 0, 55, 0
2, 48206, Note_on_c, 0, 59, 0
2, 48301, Note_on_c, 0, 54, 23
2, 48301, Note_on_c, 0, 62, 31
2, 48302, Note_on_c, 0, 59, 32
2, 48399, Note_on_c, 0, 59, 0
2, 48418, Note_on_c, 0, 81, 108
2, 48431, Note_on_c, 0, 62, 0
2, 48431, Note_on_c, 0, 54, 0
2, 48441, Control_c, 0, 64, 127
2, 48454, Control_c, 0, 64, 0
2, 48469, Note_on_c, 0, 81, 0
2, 48540, Note_on_c, 0, 79, 83
2, 48540, Note_on_c, 0, 62, 49
2, 48542, Note_on_c, 0, 52, 48
2, 48542, Note_on_c, 0, 59, 40
2, 48591, Note_on_c, 0, 79, 0
2, 48594, Note_on_c, 0, 62, 0
2, 48607, Note_on_c, 0, 78, 44
2, 48620, Note_on_c, 0, 52, 0
2, 48630, Note_on_c, 0, 78, 0
2, 48646, Note_on_c, 0, 59, 0
2, 48661, Note_on_c, 0, 81, 90
2, 48702, Note_on_c, 0, 81, 0
2, 48721, Note_on_c, 0, 50, 34
2, 48722, Note_on_c, 0, 79, 65
2, 48723, Note_on_c, 0, 59, 36
2, 48728, Note_on_c, 0, 81, 24
2, 48737, Note_on_c, 0, 81, 0
2, 48760, Note_on_c, 0, 79, 0
2, 48779, Note_on_c, 0, 78, 50
2, 48834, Control_c, 0, 64, 127
2, 48839, Note_on_c, 0, 76, 36
2, 48841, Note_on_c, 0, 50, 0
2, 48843, Control_c, 0, 64, 0
2, 48848, Note_on_c, 0, 78, 0
2, 48871, Note_on_c, 0, 76, 0
2, 48897, Note_on_c, 0, 81, 71
2, 48900, Note_on_c, 0, 50, 41
2, 48909, Control_c, 0, 64, 127
2, 48916, Note_on_c, 0, 50, 0
2, 48945, Note_on_c, 0, 81, 0
2, 48946, Note_on_c, 0, 59, 0
2, 48946, Control_c, 0, 64, 0
2, 48961, Note_on_c, 0, 79, 49
2, 48966, Note_on_c, 0, 49, 31
2, 49008, Note_on_c, 0, 79, 0
2, 49019, Note_on_c, 0, 78, 48
2, 49064, Note_on_c, 0, 78, 0
2, 49079, Note_on_c, 0, 76, 41
2, 49129, Note_on_c, 0, 76, 0
2, 49136, Note_on_c, 0, 73, 34
2, 49142, Note_on_c, 0, 59, 35
2, 49164, Note_on_c, 0, 59, 0
2, 49188, Note_on_c, 0, 73, 0
2, 49210, Note_on_c, 0, 72, 20
2, 49274, Note_on_c, 0, 72, 0
2, 49317, Note_on_c, 0, 59, 19
2, 49326, Control_c, 0, 64, 127
2, 49331, Note_on_c, 0, 49, 0
2, 49349, Note_on_c, 0, 59, 0
2, 49388, Note_on_c, 0, 70, 69
2, 49410, Control_c, 0, 64, 0
2, 49458, Control_c, 0, 64, 127
2, 49507, Note_on_c, 0, 70, 0
2, 49513, Note_on_c, 0, 69, 58
2, 49569, Note_on_c, 0, 74, 61
2, 49611, Control_c, 0, 64, 0
2, 49617, Note_on_c, 0, 74, 0
2, 49623, Note_on_c, 0, 74, 38
2, 49624, Note_on_c, 0, 79, 74
2, 49642, Control_c, 0, 64, 127
2, 49657, Control_c, 0, 64, 0
2, 49668, Note_on_c, 0, 79, 0
2, 49680, Note_on_c, 0, 81, 73
2, 49680, Note_on_c, 0, 64, 55
2, 49680, Note_on_c, 0, 58, 64
2, 49684, Note_on_c, 0, 79, 39
2, 49685, Note_on_c, 0, 54, 23
2, 49692, Note_on_c, 0, 79, 0
2, 49800, Control_c, 0, 64, 127
2, 49814, Note_on_c, 0, 54, 0
2, 49816, Note_on_c, 0, 64, 0
2, 49819, Note_on_c, 0, 58, 0
2, 49851, Note_on_c, 0, 81, 0
2, 49864, Note_on_c, 0, 79, 43
2, 49878, Note_on_c, 0, 69, 0
2, 49879, Note_on_c, 0, 74, 0
2, 49906, Note_on_c, 0, 79, 0
2, 49921, Control_c, 0, 64, 0
2, 49935, Note_on_c, 0, 70, 53
2, 49935, Note_on_c, 0, 82, 60
2, 49935, Note_on_c, 0, 75, 56
2, 49948, Note_on_c, 0, 70, 0
2, 49950, Note_on_c, 0, 75, 0
2, 49954, Note_on_c, 0, 82, 0
2, 50016, Note_on_c, 0, 80, 43
2, 50035, Note_on_c, 0, 80, 0
2, 50109, Note_on_c, 0, 82, 64
2, 50110, Note_on_c, 0, 75, 68
2, 50113, Note_on_c, 0, 66, 28
2, 50122, Note_on_c, 0, 63, 19
2, 50127, Note_on_c, 0, 66, 0
2, 50133, Note_on_c, 0, 82, 0
2, 50134, Note_on_c, 0, 63, 0
2, 50137, Note_on_c, 0, 75, 0
2, 50187, Note_on_c, 0, 80, 44
2, 50192, Note_on_c, 0, 70, 25
2, 50199, Note_on_c, 0, 70, 0
2, 50214, Note_on_c, 0, 80, 0
2, 50277, Control_c, 0, 64, 127
2, 50280, Note_on_c, 0, 75, 61
2, 50280, Note_on_c, 0, 82, 60
2, 50283, Note_on_c, 0, 70, 38
2, 50312, Note_on_c, 0, 70, 0
2, 50332, Note_on_c, 0, 82, 0
2, 50332, Note_on_c, 0, 75, 0
2, 50350, Control_c, 0, 64, 0
2, 50356, Note_on_c, 0, 67, 51
2, 50358, Note_on_c, 0, 83, 64
2, 50358, Note_on_c, 0, 74, 71
2, 50360, Note_on_c, 0, 79, 55
2, 50364, Note_on_c, 0, 62, 30
2, 50367, Note_on_c, 0, 67, 0
2, 50373, Note_on_c, 0, 62, 0
2, 50374, Note_on_c, 0, 74, 0
2, 50378, Note_on_c, 0, 79, 0
2, 50379, Note_on_c, 0, 83, 0
2, 50441, Note_on_c, 0, 79, 59
2, 50462, Note_on_c, 0, 79, 0
2, 50524, Note_on_c, 0, 74, 47
2, 50524, Note_on_c, 0, 67, 48
2, 50524, Note_on_c, 0, 71, 51
2, 50529, Control_c, 0, 64, 127
2, 50534, Note_on_c, 0, 74, 0
2, 50536, Control_c, 0, 64, 0
2, 50537, Note_on_c, 0, 71, 0
2, 50543, Note_on_c, 0, 67, 0
2, 50605, Note_on_c, 0, 62, 42
2, 50606, Note_on_c, 0, 67, 45
2, 50611, Note_on_c, 0, 51, 21
2, 50653, Control_c, 0, 64, 127
2, 50738, Note_on_c, 0, 51, 0
2, 50799, Note_on_c, 0, 62, 0
2, 50813, Note_on_c, 0, 67, 0
2, 50826, Note_on_c, 0, 71, 71
2, 50851, Note_on_c, 0, 71, 0
2, 50878, Control_c, 0, 64, 0
2, 50882, Note_on_c, 0, 62, 33
2, 50883, Note_on_c, 0, 57, 41
2, 50884, Note_on_c, 0, 52, 31
2, 50885, Note_on_c, 0, 66, 62
2, 50889, Note_on_c, 0, 69, 43
2, 50899, Note_on_c, 0, 62, 0
2, 50911, Note_on_c, 0, 57, 0
2, 50923, Note_on_c, 0, 69, 0
2, 50933, Note_on_c, 0, 66, 0
2, 50949, Note_on_c, 0, 64, 28
2, 50973, Note_on_c, 0, 64, 0
2, 50997, Note_on_c, 0, 66, 37
2, 50998, Note_on_c, 0, 69, 52
2, 51052, Note_on_c, 0, 69, 0
2, 51054, Note_on_c, 0, 66, 0
2, 51065, Note_on_c, 0, 67, 25
2, 51070, Note_on_c, 0, 64, 35
2, 51096, Note_on_c, 0, 64, 0
2, 51104, Note_on_c, 0, 67, 0
2, 51122, Note_on_c, 0, 66, 30
2, 51123, Note_on_c, 0, 69, 46
2, 51232, Note_on_c, 0, 66, 0
2, 51237, Note_on_c, 0, 59, 26
2, 51248, Note_on_c, 0, 69, 0
2, 51293, Note_on_c, 0, 59, 0
2, 51302, Note_on_c, 0, 60, 51
2, 51415, Note_on_c, 0, 71, 64
2, 51424, Note_on_c, 0, 59, 42
2, 51425, Note_on_c, 0, 60, 0
2, 51450, Note_on_c, 0, 71, 0
2, 51455, Note_on_c, 0, 72, 56
2, 51483, Note_on_c, 0, 72, 0
2, 51492, Note_on_c, 0, 79, 67
2, 51511, Note_on_c, 0, 79, 0
2, 51532, Note_on_c, 0, 83, 78
2, 51556, Note_on_c, 0, 52, 0
2, 51558, Note_on_c, 0, 83, 0
2, 51567, Note_on_c, 0, 86, 95
2, 51596, Note_on_c, 0, 86, 0
2, 51603, Note_on_c, 0, 52, 39
2, 51608, Note_on_c, 0, 84, 70
2, 51638, Note_on_c, 0, 84, 0
2, 51650, Note_on_c, 0, 80, 51
2, 51669, Note_on_c, 0, 80, 0
2, 51684, Note_on_c, 0, 83, 71
2, 51723, Note_on_c, 0, 83, 0
2, 51727, Note_on_c, 0, 80, 31
2, 51746, Note_on_c, 0, 80, 0
2, 51759, Note_on_c, 0, 52, 0
2, 51764, Note_on_c, 0, 81, 66
2, 51795, Note_on_c, 0, 81, 0
2, 51801, Note_on_c, 0, 79, 48
2, 51830, Note_on_c, 0, 79, 0
2, 51843, Note_on_c, 0, 51, 38
2, 51845, Note_on_c, 0, 59, 0
2, 51846, Note_on_c, 0, 76, 37
2, 51884, Note_on_c, 0, 76, 0
2, 51888, Note_on_c, 0, 75, 44
2, 51932, Note_on_c, 0, 75, 0
2, 51958, Note_on_c, 0, 78, 36
2, 52022, Note_on_c, 0, 78, 0
2, 52026, Note_on_c, 0, 72, 42
2, 52035, Note_on_c, 0, 60, 24
2, 52117, Note_on_c, 0, 51, 0
2, 52138, Control_c, 0, 64, 127
2, 52145, Note_on_c, 0, 51, 36
2, 52149, Control_c, 0, 64, 0
2, 52161, Note_on_c, 0, 72, 0
2, 52257, Note_on_c, 0, 51, 0
2, 52266, Note_on_c, 0, 51, 23
2, 52284, Note_on_c, 0, 60, 0
2, 52328, Note_on_c, 0, 75, 87
2, 52361, Note_on_c, 0, 75, 0
2, 52390, Note_on_c, 0, 72, 74
2, 52434, Note_on_c, 0, 72, 0
2, 52452, Note_on_c, 0, 71, 35
2, 52486, Note_on_c, 0, 71, 0
2, 52517, Note_on_c, 0, 60, 19
2, 52596, Note_on_c, 0, 51, 0
2, 52623, Note_on_c, 0, 75, 77
2, 52627, Note_on_c, 0, 51, 38
2, 52665, Note_on_c, 0, 75, 0
2, 52742, Note_on_c, 0, 72, 80
2, 52785, Note_on_c, 0, 72, 0
2, 52790, Note_on_c, 0, 51, 0
2, 52809, Note_on_c, 0, 50, 42
2, 52813, Note_on_c, 0, 71, 58
2, 52862, Note_on_c, 0, 71, 0
2, 52862, Note_on_c, 0, 60, 0
2, 52919, Control_c, 0, 64, 127
2, 52939, Control_c, 0, 64, 0
2, 52941, Control_c, 0, 64, 127
2, 52956, Control_c, 0, 64, 0
2, 52982, Note_on_c, 0, 60, 33
2, 52985, Note_on_c, 0, 50, 0
2, 52993, Note_on_c, 0, 60, 0
2, 53044, Note_on_c, 0, 75, 68
2, 53077, Note_on_c, 0, 75, 0
2, 53106, Note_on_c, 0, 72, 62
2, 53136, Note_on_c, 0, 72, 0
2, 53223, Note_on_c, 0, 71, 59
2, 53467, Note_on_c, 0, 56, 36
2, 53484, Note_on_c, 0, 56, 0
2, 53528, Note_on_c, 0, 71, 0
2, 53540, Note_on_c, 0, 59, 22
2, 53593, Note_on_c, 0, 58, 34
2, 53606, Note_on_c, 0, 58, 0
2, 53626, Note_on_c, 0, 59, 0
2, 53648, Note_on_c, 0, 59, 30
2, 53650, Note_on_c, 0, 63, 1
2, 53657, Note_on_c, 0, 68, 30
2, 53685, Note_on_c, 0, 68, 0
2, 53696, Note_on_c, 0, 59, 0
2, 53704, Control_c, 0, 64, 127
2, 53714, Note_on_c, 0, 49, 25
2, 53716, Note_on_c, 0, 56, 18
2, 53739, Note_on_c, 0, 63, 0
2, 53747, Note_on_c, 0, 49, 0
2, 53749, Note_on_c, 0, 56, 0
2, 53755, Control_c, 0, 64, 0
2, 53769, Note_on_c, 0, 59, 31
2, 53769, Note_on_c, 0, 64, 35
2, 53770, Note_on_c, 0, 48, 33
2, 53773, Note_on_c, 0, 55, 28
2, 53829, Note_on_c, 0, 66, 38
2, 53853, Note_on_c, 0, 59, 0
2, 53858, Note_on_c, 0, 64, 0
2, 53878, Note_on_c, 0, 66, 0
2, 53887, Note_on_c, 0, 71, 43
2, 53891, Note_on_c, 0, 69, 38
2, 53921, Note_on_c, 0, 69, 0
2, 53925, Note_on_c, 0, 55, 0
2, 53926, Note_on_c, 0, 71, 0
2, 53942, Note_on_c, 0, 66, 33
2, 53957, Note_on_c, 0, 55, 22
2, 53985, Note_on_c, 0, 66, 0
2, 54005, Note_on_c, 0, 59, 30
2, 54006, Note_on_c, 0, 67, 32
2, 54010, Note_on_c, 0, 64, 24
2, 54022, Note_on_c, 0, 48, 0
2, 54022, Control_c, 0, 64, 127
2, 54045, Note_on_c, 0, 59, 0
2, 54061, Note_on_c, 0, 64, 0
2, 54064, Note_on_c, 0, 67, 0
2, 54070, Note_on_c, 0, 48, 42
2, 54076, Note_on_c, 0, 55, 0
2, 54181, Control_c, 0, 64, 0
2, 54183, Note_on_c, 0, 68, 71
2, 54184, Note_on_c, 0, 76, 74
2, 54189, Note_on_c, 0, 59, 55
2, 54298, Control_c, 0, 64, 127
2, 54299, Note_on_c, 0, 56, 34
2, 54299, Note_on_c, 0, 71, 36
2, 54301, Note_on_c, 0, 59, 0
2, 54320, Note_on_c, 0, 71, 0
2, 54326, Control_c, 0, 64, 0
2, 54337, Note_on_c, 0, 68, 0
2, 54351, Note_on_c, 0, 76, 0
2, 54359, Note_on_c, 0, 56, 0
2, 54364, Note_on_c, 0, 57, 40
2, 54364, Note_on_c, 0, 64, 30
2, 54370, Note_on_c, 0, 72, 26
2, 54396, Note_on_c, 0, 48, 0
2, 54433, Note_on_c, 0, 64, 0
2, 54434, Note_on_c, 0, 48, 50
2, 54463, Note_on_c, 0, 72, 0
2, 54472, Control_c, 0, 64, 127
2, 54527, Note_on_c, 0, 48, 0
2, 54545, Note_on_c, 0, 82, 64
2, 54548, Note_on_c, 0, 57, 0
2, 54551, Control_c, 0, 64, 0
2, 54567, Note_on_c, 0, 82, 0
2, 54581, Note_on_c, 0, 83, 66
2, 54603, Note_on_c, 0, 83, 0
2, 54610, Note_on_c, 0, 86, 91
2, 54636, Note_on_c, 0, 86, 0
2, 54715, Note_on_c, 0, 64, 33
2, 54721, Note_on_c, 0, 60, 29
2, 54725, Note_on_c, 0, 59, 22
2, 54749, Note_on_c, 0, 59, 0
2, 54750, Note_on_c, 0, 60, 0
2, 54750, Note_on_c, 0, 64, 0
2, 54793, Note_on_c, 0, 84, 37
2, 54801, Note_on_c, 0, 84, 0
2, 54902, Note_on_c, 0, 64, 44
2, 54903, Note_on_c, 0, 88, 70
2, 54904, Note_on_c, 0, 76, 50
2, 54906, Note_on_c, 0, 59, 44
2, 54908, Note_on_c, 0, 60, 39
2, 54919, Note_on_c, 0, 64, 0
2, 54923, Note_on_c, 0, 60, 0
2, 54926, Note_on_c, 0, 59, 0
2, 54936, Note_on_c, 0, 88, 0
2, 54938, Note_on_c, 0, 76, 0
2, 55022, Note_on_c, 0, 87, 50
2, 55047, Note_on_c, 0, 87, 0
2, 55085, Note_on_c, 0, 89, 79
2, 55129, Note_on_c, 0, 89, 0
2, 55143, Note_on_c, 0, 87, 55
2, 55152, Note_on_c, 0, 61, 25
2, 55152, Note_on_c, 0, 58, 29
2, 55152, Note_on_c, 0, 64, 26
2, 55164, Note_on_c, 0, 64, 0
2, 55169, Note_on_c, 0, 61, 0
2, 55172, Note_on_c, 0, 58, 0
2, 55188, Note_on_c, 0, 87, 0
2, 55200, Note_on_c, 0, 88, 58
2, 55222, Note_on_c, 0, 88, 0
2, 55330, Control_c, 0, 64, 127
2, 55341, Control_c, 0, 64, 0
2, 55387, Note_on_c, 0, 61, 40
2, 55388, Note_on_c, 0, 58, 49
2, 55388, Note_on_c, 0, 64, 44
2, 55398, Note_on_c, 0, 64, 0
2, 55403, Note_on_c, 0, 61, 0
2, 55406, Note_on_c, 0, 58, 0
2, 55505, Note_on_c, 0, 86, 58
2, 55513, Note_on_c, 0, 86, 0
2, 55555, Control_c, 0, 64, 127
2, 55562, Control_c, 0, 64, 0
2, 55565, Note_on_c, 0, 90, 74
2, 55591, Note_on_c, 0, 90, 0
2, 55634, Note_on_c, 0, 62, 46
2, 55636, Note_on_c, 0, 86, 33
2, 55643, Note_on_c, 0, 62, 0
2, 55644, Note_on_c, 0, 86, 0
2, 55752, Note_on_c, 0, 90, 74
2, 55752, Note_on_c, 0, 62, 59
2, 55753, Note_on_c, 0, 66, 51
2, 55762, Note_on_c, 0, 66, 0
2, 55763, Note_on_c, 0, 62, 0
2, 55780, Note_on_c, 0, 90, 0
2, 55814, Note_on_c, 0, 88, 38
2, 55835, Note_on_c, 0, 88, 0
2, 55868, Note_on_c, 0, 90, 77
2, 55896, Note_on_c, 0, 90, 0
2, 55943, Note_on_c, 0, 90, 73
2, 55949, Note_on_c, 0, 62, 18
2, 55966, Note_on_c, 0, 91, 66
2, 55968, Note_on_c, 0, 62, 0
2, 55968, Note_on_c, 0, 90, 0
2, 56006, Note_on_c, 0, 91, 0
2, 56010, Note_on_c, 0, 66, 36
2, 56021, Note_on_c, 0, 66, 0
2, 56041, Control_c, 0, 64, 127
2, 56041, Note_on_c, 0, 90, 62
2, 56047, Control_c, 0, 64, 0
2, 56087, Note_on_c, 0, 90, 0
2, 56104, Note_on_c, 0, 91, 72
2, 56118, Note_on_c, 0, 64, 13
2, 56123, Note_on_c, 0, 59, 10
2, 56140, Note_on_c, 0, 91, 0
2, 56148, Note_on_c, 0, 59, 0
2, 56166, Note_on_c, 0, 93, 83
2, 56178, Note_on_c, 0, 64, 0
2, 56213, Note_on_c, 0, 93, 0
2, 56223, Note_on_c, 0, 81, 32
2, 56268, Note_on_c, 0, 81, 0
2, 56270, Control_c, 0, 64, 127
2, 56274, Note_on_c, 0, 91, 66
2, 56321, Note_on_c, 0, 91, 0
2, 56337, Note_on_c, 0, 81, 51
2, 56343, Note_on_c, 0, 64, 17
2, 56365, Control_c, 0, 64, 0
2, 56384, Note_on_c, 0, 64, 0
2, 56400, Note_on_c, 0, 90, 49
2, 56402, Control_c, 0, 64, 127
2, 56427, Note_on_c, 0, 81, 0
2, 56456, Note_on_c, 0, 90, 0
2, 56459, Note_on_c, 0, 79, 42
2, 56512, Note_on_c, 0, 79, 0
2, 56515, Note_on_c, 0, 88, 62
2, 56562, Note_on_c, 0, 88, 0
2, 56576, Note_on_c, 0, 77, 36
2, 56602, Note_on_c, 0, 77, 0
2, 56634, Control_c, 0, 64, 0
2, 56639, Note_on_c, 0, 64, 31
2, 56640, Note_on_c, 0, 57, 35
2, 56641, Note_on_c, 0, 86, 57
2, 56642, Note_on_c, 0, 76, 34
2, 56645, Note_on_c, 0, 60, 33
2, 56753, Control_c, 0, 64, 127
2, 56759, Note_on_c, 0, 64, 0
2, 56762, Note_on_c, 0, 57, 0
2, 56766, Note_on_c, 0, 60, 0
2, 56778, Note_on_c, 0, 86, 0
2, 56787, Note_on_c, 0, 76, 0
2, 56828, Note_on_c, 0, 84, 45
2, 56831, Note_on_c, 0, 74, 33
2, 56831, Note_on_c, 0, 60, 39
2, 56832, Note_on_c, 0, 64, 25
2, 56833, Note_on_c, 0, 57, 30
2, 56920, Note_on_c, 0, 60, 0
2, 56921, Note_on_c, 0, 64, 0
2, 56923, Note_on_c, 0, 84, 0
2, 56936, Note_on_c, 0, 74, 0
2, 56968, Note_on_c, 0, 57, 0
2, 57071, Note_on_c, 0, 67, 70
2, 57082, Note_on_c, 0, 67, 0
2, 57130, Note_on_c, 0, 74, 61
2, 57133, Control_c, 0, 64, 0
2, 57136, Note_on_c, 0, 67, 64
2, 57140, Note_on_c, 0, 62, 53
2, 57145, Note_on_c, 0, 63, 53
2, 57249, Control_c, 0, 64, 127
2, 57285, Note_on_c, 0, 63, 0
2, 57285, Note_on_c, 0, 67, 0
2, 57303, Note_on_c, 0, 74, 0
2, 57308, Note_on_c, 0, 62, 0
2, 57315, Note_on_c, 0, 72, 38
2, 57317, Note_on_c, 0, 63, 30
2, 57317, Note_on_c, 0, 67, 39
2, 57321, Note_on_c, 0, 60, 26
2, 57431, Note_on_c, 0, 60, 0
2, 57486, Note_on_c, 0, 63, 0
2, 57491, Note_on_c, 0, 67, 0
2, 57524, Note_on_c, 0, 72, 0
2, 57598, Control_c, 0, 64, 0
2, 57606, Note_on_c, 0, 75, 56
2, 57606, Note_on_c, 0, 57, 31
2, 57608, Note_on_c, 0, 47, 27
2, 57723, Note_on_c, 0, 57, 0
2, 57724, Control_c, 0, 64, 127
2, 57765, Note_on_c, 0, 75, 0
2, 57788, Note_on_c, 0, 61, 34
2, 57790, Note_on_c, 0, 70, 39
2, 57792, Note_on_c, 0, 57, 29
2, 57792, Note_on_c, 0, 66, 36
2, 57793, Control_c, 0, 64, 0
2, 57833, Control_c, 0, 64, 127
2, 57889, Note_on_c, 0, 61, 0
2, 57911, Note_on_c, 0, 66, 0
2, 57923, Note_on_c, 0, 70, 0
2, 57945, Note_on_c, 0, 57, 0
2, 57947, Control_c, 0, 64, 0
2, 57968, Note_on_c, 0, 71, 54
2, 57976, Note_on_c, 0, 57, 24
2, 57999, Note_on_c, 0, 47, 0
2, 58013, Control_c, 0, 64, 127
2, 58068, Note_on_c, 0, 71, 0
2, 58071, Note_on_c, 0, 57, 0
2, 58079, Control_c, 0, 64, 0
2, 58083, Note_on_c, 0, 74, 60
2, 58083, Note_on_c, 0, 52, 34
2, 58124, Control_c, 0, 64, 127
2, 58152, Note_on_c, 0, 74, 0
2, 58156, Note_on_c, 0, 59, 42
2, 58251, Note_on_c, 0, 52, 0
2, 58254, Note_on_c, 0, 76, 75
2, 58254, Note_on_c, 0, 83, 72
2, 58257, Note_on_c, 0, 59, 0
2, 58259, Note_on_c, 0, 64, 44
2, 58316, Note_on_c, 0, 83, 0
2, 58318, Note_on_c, 0, 76, 0
2, 58325, Note_on_c, 0, 78, 45
2, 58326, Note_on_c, 0, 66, 47
2, 58329, Note_on_c, 0, 71, 60
2, 58342, Note_on_c, 0, 64, 0
2, 58352, Note_on_c, 0, 71, 0
2, 58361, Note_on_c, 0, 78, 0
2, 58437, Note_on_c, 0, 88, 70
2, 58438, Note_on_c, 0, 83, 62
2, 58438, Note_on_c, 0, 71, 33
2, 58484, Note_on_c, 0, 83, 0
2, 58490, Note_on_c, 0, 88, 0
2, 58514, Note_on_c, 0, 83, 43
2, 58515, Note_on_c, 0, 78, 31
2, 58518, Note_on_c, 0, 76, 33
2, 58523, Note_on_c, 0, 71, 0
2, 58541, Note_on_c, 0, 78, 0
2, 58547, Note_on_c, 0, 83, 0
2, 58625, Note_on_c, 0, 95, 78
2, 58627, Note_on_c, 0, 71, 40
2, 58628, Note_on_c, 0, 88, 66
2, 58630, Note_on_c, 0, 89, 55
2, 58631, Note_on_c, 0, 76, 0
2, 58637, Note_on_c, 0, 89, 0
2, 58657, Note_on_c, 0, 71, 0
2, 58674, Note_on_c, 0, 66, 0
2, 58728, Note_on_c, 0, 88, 0
2, 58732, Note_on_c, 0, 95, 0
2, 58742, Note_on_c, 0, 83, 54
2, 58743, Note_on_c, 0, 90, 45
2, 58748, Note_on_c, 0, 88, 40
2, 58773, Note_on_c, 0, 83, 0
2, 58775, Note_on_c, 0, 88, 0
2, 58785, Note_on_c, 0, 90, 0
2, 58803, Note_on_c, 0, 95, 64
2, 58804, Note_on_c, 0, 88, 60
2, 58805, Note_on_c, 0, 83, 47
2, 58808, Control_c, 0, 64, 0
2, 58809, Note_on_c, 0, 52, 35
2, 58816, Note_on_c, 0, 83, 0
2, 58816, Note_on_c, 0, 88, 0
2, 58819, Note_on_c, 0, 95, 0
2, 58826, Note_on_c, 0, 52, 0
2, 58868, Note_on_c, 0, 52, 49
2, 58905, Note_on_c, 0, 52, 0
2, 58928, Note_on_c, 0, 47, 40
2, 58934, Control_c, 0, 64, 127
2, 58938, Control_c, 0, 64, 0
2, 58972, Note_on_c, 0, 47, 0
2, 59044, Note_on_c, 0, 52, 34
2, 59057, Note_on_c, 0, 52, 0
2, 59155, Note_on_c, 0, 83, 71
2, 59174, Note_on_c, 0, 83, 0
2, 59222, Note_on_c, 0, 84, 69
2, 59235, Note_on_c, 0, 84, 0
2, 59354, Note_on_c, 0, 60, 48
2, 59356, Note_on_c, 0, 52, 40
2, 59366, Note_on_c, 0, 60, 0
2, 59368, Note_on_c, 0, 52, 0
2, 59489, Note_on_c, 0, 87, 92
2, 59510, Note_on_c, 0, 87, 0
2, 59563, Note_on_c, 0, 88, 85
2, 59592, Note_on_c, 0, 88, 0
2, 59640, Note_on_c, 0, 60, 55
2, 59641, Note_on_c, 0, 87, 74
2, 59644, Note_on_c, 0, 52, 35
2, 59658, Note_on_c, 0, 52, 0
2, 59662, Note_on_c, 0, 60, 0
2, 59665, Note_on_c, 0, 87, 0
2, 59718, Note_on_c, 0, 84, 80
2, 59721, Note_on_c, 0, 59, 49
2, 59722, Note_on_c, 0, 52, 48
2, 59737, Note_on_c, 0, 52, 0
2, 59740, Note_on_c, 0, 59, 0
2, 59790, Note_on_c, 0, 84, 0
2, 59802, Note_on_c, 0, 87, 52
2, 59819, Note_on_c, 0, 87, 0
2, 59823, Note_on_c, 0, 84, 59
2, 59847, Note_on_c, 0, 84, 0
2, 59850, Note_on_c, 0, 83, 47
2, 59871, Note_on_c, 0, 83, 0
2, 59877, Note_on_c, 0, 60, 34
2, 59878, Note_on_c, 0, 52, 26
2, 59880, Note_on_c, 0, 59, 36
2, 59889, Note_on_c, 0, 84, 75
2, 59896, Note_on_c, 0, 60, 0
2, 59901, Note_on_c, 0, 59, 0
2, 59903, Note_on_c, 0, 52, 0
2, 59957, Note_on_c, 0, 84, 0
2, 60008, Note_on_c, 0, 51, 32
2, 60058, Note_on_c, 0, 51, 0
2, 60175, Note_on_c, 0, 51, 37
2, 60182, Note_on_c, 0, 59, 26
2, 60195, Note_on_c, 0, 59, 0
2, 60198, Note_on_c, 0, 51, 0
2, 60245, Note_on_c, 0, 51, 63
2, 60246, Note_on_c, 0, 58, 72
2, 60306, Note_on_c, 0, 58, 0
2, 60306, Note_on_c, 0, 59, 61
2, 60347, Note_on_c, 0, 59, 0
2, 60363, Note_on_c, 0, 58, 44
2, 60419, Note_on_c, 0, 51, 0
2, 60424, Note_on_c, 0, 58, 0
2, 60428, Note_on_c, 0, 59, 58
2, 60438, Note_on_c, 0, 51, 33
2, 60541, Note_on_c, 0, 58, 46
2, 60550, Note_on_c, 0, 59, 0
2, 60566, Note_on_c, 0, 58, 0
2, 60630, Note_on_c, 0, 51, 0
2, 60665, Note_on_c, 0, 51, 45
2, 60668, Note_on_c, 0, 59, 42
2, 60691, Note_on_c, 0, 59, 0
2, 60701, Note_on_c, 0, 51, 0
2, 60723, Note_on_c, 0, 83, 38
2, 60753, Note_on_c, 0, 83, 0
2, 60773, Note_on_c, 0, 84, 74
2, 60797, Note_on_c, 0, 84, 0
2, 60814, Note_on_c, 0, 86, 92
2, 60831, Note_on_c, 0, 51, 33
2, 60838, Note_on_c, 0, 59, 24
2, 60842, Note_on_c, 0, 86, 0
2, 60858, Note_on_c, 0, 87, 71
2, 60888, Note_on_c, 0, 87, 0
2, 60896, Note_on_c, 0, 59, 0
2, 60902, Note_on_c, 0, 51, 0
2, 60907, Note_on_c, 0, 88, 66
2, 60908, Note_on_c, 0, 86, 72
2, 60917, Note_on_c, 0, 86, 0
2, 60936, Note_on_c, 0, 88, 0
2, 60949, Note_on_c, 0, 89, 78
2, 60954, Note_on_c, 0, 50, 37
2, 60954, Note_on_c, 0, 60, 37
2, 60957, Note_on_c, 0, 57, 41
2, 60984, Note_on_c, 0, 89, 0
2, 61005, Note_on_c, 0, 88, 66
2, 61041, Note_on_c, 0, 88, 0
2, 61063, Note_on_c, 0, 57, 0
2, 61066, Note_on_c, 0, 50, 0
2, 61077, Note_on_c, 0, 84, 58
2, 61088, Note_on_c, 0, 60, 0
2, 61103, Note_on_c, 0, 84, 0
2, 61130, Note_on_c, 0, 81, 51
2, 61160, Note_on_c, 0, 81, 0
2, 61182, Note_on_c, 0, 79, 27
2, 61185, Note_on_c, 0, 77, 24
2, 61189, Note_on_c, 0, 53, 22
2, 61190, Note_on_c, 0, 60, 32
2, 61191, Note_on_c, 0, 64, 17
2, 61192, Note_on_c, 0, 57, 20
2, 61197, Note_on_c, 0, 77, 0
2, 61204, Note_on_c, 0, 79, 0
2, 61233, Note_on_c, 0, 77, 20
2, 61268, Note_on_c, 0, 77, 0
2, 61314, Note_on_c, 0, 60, 0
2, 61318, Note_on_c, 0, 53, 0
2, 61320, Note_on_c, 0, 57, 0
2, 61323, Note_on_c, 0, 64, 0
2, 61387, Note_on_c, 0, 64, 31
2, 61388, Note_on_c, 0, 53, 27
2, 61391, Note_on_c, 0, 59, 39
2, 61579, Note_on_c, 0, 59, 0
2, 61581, Note_on_c, 0, 64, 0
2, 61583, Note_on_c, 0, 53, 0
2, 61616, Note_on_c, 0, 53, 24
2, 61616, Note_on_c, 0, 64, 31
2, 61621, Note_on_c, 0, 59, 44
2, 61690, Note_on_c, 0, 83, 74
2, 61726, Note_on_c, 0, 53, 0
2, 61729, Note_on_c, 0, 64, 0
2, 61743, Note_on_c, 0, 84, 75
2, 61745, Note_on_c, 0, 59, 0
2, 61759, Note_on_c, 0, 83, 0
2, 61775, Note_on_c, 0, 59, 13
2, 61778, Note_on_c, 0, 84, 0
2, 61781, Note_on_c, 0, 53, 13
2, 61821, Note_on_c, 0, 59, 0
2, 61854, Note_on_c, 0, 53, 0
2, 61875, Note_on_c, 0, 82, 82
2, 61916, Note_on_c, 0, 82, 0
2, 61933, Note_on_c, 0, 62, 17
2, 61938, Note_on_c, 0, 59, 28
2, 61938, Note_on_c, 0, 83, 71
2, 61974, Note_on_c, 0, 62, 0
2, 61976, Note_on_c, 0, 59, 0
2, 61979, Note_on_c, 0, 83, 0
2, 62009, Note_on_c, 0, 79, 63
2, 62042, Note_on_c, 0, 79, 0
2, 62064, Note_on_c, 0, 76, 54
2, 62093, Note_on_c, 0, 76, 0
2, 62106, Note_on_c, 0, 71, 46
2, 62131, Note_on_c, 0, 71, 0
2, 62150, Note_on_c, 0, 69, 38
2, 62174, Note_on_c, 0, 69, 0
2, 62192, Note_on_c, 0, 67, 34
2, 62206, Note_on_c, 0, 67, 0
2, 62232, Note_on_c, 0, 69, 70
2, 62267, Note_on_c, 0, 52, 18
2, 62271, Note_on_c, 0, 69, 0
2, 62278, Note_on_c, 0, 52, 0
2, 62280, Note_on_c, 0, 71, 54
2, 62318, Note_on_c, 0, 71, 0
2, 62325, Note_on_c, 0, 69, 48
2, 62354, Note_on_c, 0, 69, 0
2, 62484, Note_on_c, 0, 62, 25
2, 62497, Note_on_c, 0, 62, 0
2, 62587, Note_on_c, 0, 62, 44
2, 62592, Note_on_c, 0, 57, 40
2, 62598, Note_on_c, 0, 62, 0
2, 62603, Note_on_c, 0, 57, 0
2, 62657, Note_on_c, 0, 67, 43
2, 62674, Note_on_c, 0, 67, 0
2, 62712, Note_on_c, 0, 69, 66
2, 62721, Note_on_c, 0, 62, 44
2, 62722, Note_on_c, 0, 57, 48
2, 62727, Note_on_c, 0, 52, 26
2, 62733, Note_on_c, 0, 57, 0
2, 62733, Note_on_c, 0, 62, 0
2, 62734, Note_on_c, 0, 69, 0
2, 62740, Note_on_c, 0, 52, 0
2, 62768, Note_on_c, 0, 69, 68
2, 62779, Note_on_c, 0, 70, 46
2, 62800, Note_on_c, 0, 69, 0
2, 62802, Note_on_c, 0, 70, 0
2, 62802, Note_on_c, 0, 71, 60
2, 62829, Note_on_c, 0, 71, 0
2, 62836, Note_on_c, 0, 74, 75
2, 62852, Note_on_c, 0, 60, 50
2, 62856, Note_on_c, 0, 59, 27
2, 62874, Note_on_c, 0, 74, 0
2, 62876, Note_on_c, 0, 59, 0
2, 62879, Note_on_c, 0, 60, 0
2, 62891, Note_on_c, 0, 69, 48
2, 62903, Note_on_c, 0, 70, 34
2, 62938, Note_on_c, 0, 70, 0
2, 62939, Note_on_c, 0, 69, 0
2, 62939, Note_on_c, 0, 71, 41
2, 62958, Note_on_c, 0, 71, 0
2, 63064, Note_on_c, 0, 64, 34
2, 63069, Note_on_c, 0, 60, 39
2, 63088, Note_on_c, 0, 64, 0
2, 63089, Note_on_c, 0, 60, 0
2, 63132, Note_on_c, 0, 64, 31
2, 63136, Note_on_c, 0, 60, 33
2, 63137, Note_on_c, 0, 59, 35
2, 63167, Note_on_c, 0, 59, 0
2, 63168, Note_on_c, 0, 60, 0
2, 63173, Note_on_c, 0, 64, 0
2, 63310, Note_on_c, 0, 51, 44
2, 63313, Note_on_c, 0, 62, 38
2, 63320, Note_on_c, 0, 57, 34
2, 63334, Note_on_c, 0, 57, 0
2, 63340, Note_on_c, 0, 62, 0
2, 63349, Note_on_c, 0, 51, 0
2, 63429, Note_on_c, 0, 62, 44
2, 63429, Note_on_c, 0, 51, 42
2, 63436, Note_on_c, 0, 57, 34
2, 63456, Note_on_c, 0, 57, 0
2, 63456, Note_on_c, 0, 62, 0
2, 63466, Note_on_c, 0, 51, 0
2, 63545, Note_on_c, 0, 83, 69
2, 63547, Note_on_c, 0, 51, 49
2, 63548, Note_on_c, 0, 62, 54
2, 63553, Note_on_c, 0, 57, 47
2, 63569, Note_on_c, 0, 83, 0
2, 63576, Note_on_c, 0, 62, 0
2, 63584, Note_on_c, 0, 51, 0
2, 63606, Note_on_c, 0, 85, 77
2, 63608, Note_on_c, 0, 73, 64
2, 63614, Note_on_c, 0, 75, 50
2, 63619, Note_on_c, 0, 57, 0
2, 63622, Note_on_c, 0, 75, 0
2, 63640, Note_on_c, 0, 86, 39
2, 63647, Note_on_c, 0, 85, 0
2, 63656, Note_on_c, 0, 74, 66
2, 63657, Note_on_c, 0, 73, 0
2, 63675, Note_on_c, 0, 86, 0
2, 63681, Note_on_c, 0, 74, 0
2, 63690, Note_on_c, 0, 51, 33
2, 63691, Note_on_c, 0, 62, 32
2, 63696, Note_on_c, 0, 57, 44
2, 63718, Note_on_c, 0, 62, 0
2, 63720, Note_on_c, 0, 51, 0
2, 63722, Note_on_c, 0, 85, 56
2, 63722, Note_on_c, 0, 73, 60
2, 63723, Note_on_c, 0, 57, 0
2, 63727, Note_on_c, 0, 86, 71
2, 63770, Note_on_c, 0, 85, 0
2, 63773, Note_on_c, 0, 73, 0
2, 63774, Note_on_c, 0, 74, 55
2, 63798, Note_on_c, 0, 86, 0
2, 63803, Note_on_c, 0, 74, 0
2, 63846, Note_on_c, 0, 85, 51
2, 63847, Note_on_c, 0, 73, 54
2, 63852, Note_on_c, 0, 86, 71
2, 63877, Note_on_c, 0, 85, 0
2, 63902, Note_on_c, 0, 74, 24
2, 63912, Note_on_c, 0, 73, 0
2, 63923, Note_on_c, 0, 86, 0
2, 63930, Note_on_c, 0, 74, 0
2, 63959, Note_on_c, 0, 71, 50
2, 63960, Note_on_c, 0, 83, 50
2, 64019, Note_on_c, 0, 71, 0
2, 64036, Note_on_c, 0, 83, 0
2, 64136, Note_on_c, 0, 54, 38
2, 64142, Note_on_c, 0, 60, 40
2, 64145, Note_on_c, 0, 64, 22
2, 64161, Note_on_c, 0, 64, 0
2, 64165, Note_on_c, 0, 60, 0
2, 64174, Note_on_c, 0, 54, 0
2, 64260, Note_on_c, 0, 62, 39
2, 64266, Note_on_c, 0, 55, 39
2, 64268, Note_on_c, 0, 59, 25
2, 64276, Note_on_c, 0, 62, 0
2, 64280, Note_on_c, 0, 59, 0
2, 64282, Note_on_c, 0, 55, 0
2, 64321, Note_on_c, 0, 90, 74
2, 64322, Note_on_c, 0, 78, 79
2, 64369, Note_on_c, 0, 78, 0
2, 64370, Note_on_c, 0, 90, 0
2, 64385, Note_on_c, 0, 91, 74
2, 64386, Note_on_c, 0, 79, 60
2, 64393, Note_on_c, 0, 62, 44
2, 64394, Note_on_c, 0, 81, 34
2, 64396, Note_on_c, 0, 89, 26
2, 64404, Note_on_c, 0, 59, 30
2, 64404, Note_on_c, 0, 55, 34
2, 64405, Note_on_c, 0, 81, 0
2, 64414, Note_on_c, 0, 91, 0
2, 64415, Note_on_c, 0, 62, 0
2, 64419, Note_on_c, 0, 79, 0
2, 64421, Note_on_c, 0, 55, 0
2, 64427, Note_on_c, 0, 89, 0
2, 64430, Note_on_c, 0, 59, 0
2, 64445, Note_on_c, 0, 90, 47
2, 64448, Note_on_c, 0, 78, 38
2, 64484, Note_on_c, 0, 90, 0
2, 64488, Note_on_c, 0, 78, 0
2, 64504, Note_on_c, 0, 91, 63
2, 64507, Note_on_c, 0, 79, 51
2, 64515, Note_on_c, 0, 89, 25
2, 64526, Note_on_c, 0, 89, 0
2, 64534, Note_on_c, 0, 91, 0
2, 64538, Note_on_c, 0, 79, 0
2, 64564, Note_on_c, 0, 59, 42
2, 64566, Note_on_c, 0, 50, 33
2, 64570, Note_on_c, 0, 88, 52
2, 64572, Note_on_c, 0, 76, 41
2, 64614, Note_on_c, 0, 88, 0
2, 64620, Note_on_c, 0, 76, 0
2, 64682, Note_on_c, 0, 71, 53
2, 64695, Note_on_c, 0, 83, 15
2, 64727, Note_on_c, 0, 50, 0
2, 64742, Note_on_c, 0, 59, 0
2, 64765, Note_on_c, 0, 83, 0
2, 64769, Note_on_c, 0, 71, 0
2, 64873, Note_on_c, 0, 54, 34
2, 64873, Note_on_c, 0, 64, 41
2, 64894, Note_on_c, 0, 64, 0
2, 64902, Note_on_c, 0, 54, 0
2, 64981, Note_on_c, 0, 54, 37
2, 64982, Note_on_c, 0, 64, 36
2, 65002, Note_on_c, 0, 64, 0
2, 65034, Note_on_c, 0, 54, 0
2, 65044, Note_on_c, 0, 69, 68
2, 65048, Note_on_c, 0, 71, 46
2, 65058, Note_on_c, 0, 71, 0
2, 65104, Note_on_c, 0, 69, 0
2, 65106, Note_on_c, 0, 68, 37
2, 65112, Note_on_c, 0, 54, 36
2, 65114, Note_on_c, 0, 64, 30
2, 65135, Note_on_c, 0, 64, 0
2, 65148, Note_on_c, 0, 68, 0
2, 65156, Note_on_c, 0, 54, 0
2, 65164, Note_on_c, 0, 69, 48
2, 65225, Note_on_c, 0, 70, 71
2, 65239, Note_on_c, 0, 69, 0
2, 65281, Note_on_c, 0, 70, 0
2, 65286, Note_on_c, 0, 72, 64
2, 65345, Note_on_c, 0, 72, 0
2, 65346, Note_on_c, 0, 70, 34
2, 65347, Note_on_c, 0, 54, 33
2, 65381, Note_on_c, 0, 54, 0
2, 65387, Note_on_c, 0, 70, 0
2, 65395, Note_on_c, 0, 72, 52
2, 65443, Note_on_c, 0, 72, 0
2, 65458, Note_on_c, 0, 73, 56
2, 65464, Note_on_c, 0, 64, 40
2, 65465, Note_on_c, 0, 58, 45
2, 65488, Note_on_c, 0, 64, 0
2, 65496, Note_on_c, 0, 58, 0
2, 65508, Note_on_c, 0, 73, 0
2, 65512, Note_on_c, 0, 75, 61
2, 65567, Note_on_c, 0, 73, 31
2, 65568, Note_on_c, 0, 75, 0
2, 65584, Note_on_c, 0, 54, 28
2, 65585, Note_on_c, 0, 64, 31
2, 65600, Note_on_c, 0, 64, 0
2, 65610, Note_on_c, 0, 54, 0
2, 65619, Note_on_c, 0, 73, 0
2, 65631, Note_on_c, 0, 75, 63
2, 65691, Note_on_c, 0, 75, 0
2, 65691, Note_on_c, 0, 76, 71
2, 65735, Note_on_c, 0, 76, 0
2, 65745, Note_on_c, 0, 47, 25
2, 65750, Note_on_c, 0, 57, 24
2, 65755, Note_on_c, 0, 78, 53
2, 65810, Note_on_c, 0, 78, 0
2, 65817, Note_on_c, 0, 80, 36
2, 65826, Note_on_c, 0, 47, 0
2, 65842, Note_on_c, 0, 80, 0
2, 65847, Note_on_c, 0, 57, 0
2, 65881, Note_on_c, 0, 75, 32
2, 65978, Note_on_c, 0, 75, 0
2, 65999, Note_on_c, 0, 78, 78
2, 66068, Note_on_c, 0, 78, 0
2, 66072, Note_on_c, 0, 73, 23
2, 66112, Note_on_c, 0, 73, 0
2, 66121, Note_on_c, 0, 75, 62
2, 66182, Note_on_c, 0, 71, 54
2, 66185, Note_on_c, 0, 75, 0
2, 66218, Note_on_c, 0, 71, 0
2, 66234, Note_on_c, 0, 74, 73
2, 66236, Note_on_c, 0, 67, 51
2, 66236, Note_on_c, 0, 63, 37
2, 66237, Note_on_c, 0, 57, 46
2, 66240, Note_on_c, 0, 62, 46
2, 66302, Note_on_c, 0, 73, 37
2, 66309, Note_on_c, 0, 74, 0
2, 66323, Note_on_c, 0, 72, 45
2, 66341, Note_on_c, 0, 73, 0
2, 66342, Note_on_c, 0, 67, 0
2, 66351, Note_on_c, 0, 71, 46
2, 66352, Note_on_c, 0, 72, 0
2, 66362, Note_on_c, 0, 63, 0
2, 66365, Note_on_c, 0, 62, 0
2, 66368, Note_on_c, 0, 57, 0
2, 66411, Note_on_c, 0, 71, 0
2, 66421, Note_on_c, 0, 68, 42
2, 66422, Note_on_c, 0, 63, 42
2, 66427, Note_on_c, 0, 62, 36
2, 66446, Note_on_c, 0, 63, 0
2, 66455, Note_on_c, 0, 62, 0
2, 66508, Note_on_c, 0, 68, 0
2, 66511, Note_on_c, 0, 67, 68
2, 66594, Note_on_c, 0, 66, 51
2, 66610, Note_on_c, 0, 67, 0
2, 66672, Note_on_c, 0, 62, 43
2, 66673, Note_on_c, 0, 69, 62
2, 66677, Note_on_c, 0, 55, 41
2, 66682, Note_on_c, 0, 62, 0
2, 66687, Note_on_c, 0, 66, 0
2, 66691, Note_on_c, 0, 55, 0
2, 66751, Note_on_c, 0, 69, 0
2, 66761, Note_on_c, 0, 67, 52
2, 66829, Note_on_c, 0, 67, 0
2, 66842, Note_on_c, 0, 66, 55
2, 66918, Note_on_c, 0, 64, 53
2, 66920, Note_on_c, 0, 66, 0
2, 66987, Note_on_c, 0, 64, 0
2, 66998, Note_on_c, 0, 63, 42
2, 67069, Note_on_c, 0, 63, 0
2, 67079, Note_on_c, 0, 60, 38
2, 67135, Note_on_c, 0, 60, 0
2, 67150, Note_on_c, 0, 59, 46
2, 67267, Note_on_c, 0, 59, 0
2, 67270, Note_on_c, 0, 57, 37
2, 67282, Note_on_c, 0, 57, 0
2, 67395, Note_on_c, 0, 55, 37
2, 67410, Note_on_c, 0, 55, 0
2, 67452, Note_on_c, 0, 59, 62
2, 67454, Note_on_c, 0, 52, 57
2, 67501, Note_on_c, 0, 52, 0
2, 67504, Note_on_c, 0, 59, 0
2, 67508, Note_on_c, 0, 60, 57
2, 67516, Note_on_c, 0, 52, 15
2, 67553, Note_on_c, 0, 52, 0
2, 67556, Note_on_c, 0, 60, 0
2, 67574, Note_on_c, 0, 59, 45
2, 67574, Note_on_c, 0, 52, 22
2, 67602, Note_on_c, 0, 52, 0
2, 67632, Note_on_c, 0, 59, 0
2, 67680, Note_on_c, 0, 51, 37
2, 67686, Note_on_c, 0, 59, 32
2, 67737, Note_on_c, 0, 59, 0
2, 67743, Note_on_c, 0, 51, 0
2, 67799, Note_on_c, 0, 51, 37
2, 67802, Note_on_c, 0, 59, 39
2, 67842, Note_on_c, 0, 59, 0
2, 67857, Note_on_c, 0, 51, 0
2, 67920, Note_on_c, 0, 78, 62
2, 67921, Note_on_c, 0, 75, 69
2, 67921, Note_on_c, 0, 71, 77
2, 67922, Note_on_c, 0, 83, 73
2, 67929, Note_on_c, 0, 72, 34
2, 67938, Note_on_c, 0, 72, 0
2, 67971, Note_on_c, 0, 83, 0
2, 67972, Note_on_c, 0, 71, 0
2, 67977, Note_on_c, 0, 75, 0
2, 67982, Note_on_c, 0, 78, 0
2, 68001, Note_on_c, 0, 84, 74
2, 68001, Note_on_c, 0, 72, 71
2, 68046, Note_on_c, 0, 72, 0
2, 68047, Note_on_c, 0, 84, 0
2, 68112, Note_on_c, 0, 73, 71
2, 68112, Note_on_c, 0, 85, 79
2, 68116, Note_on_c, 0, 51, 42
2, 68118, Note_on_c, 0, 59, 33
2, 68145, Note_on_c, 0, 51, 0
2, 68150, Note_on_c, 0, 59, 0
2, 68156, Note_on_c, 0, 74, 44
2, 68157, Note_on_c, 0, 73, 0
2, 68161, Note_on_c, 0, 85, 0
2, 68169, Note_on_c, 0, 79, 17
2, 68184, Note_on_c, 0, 79, 0
2, 68187, Note_on_c, 0, 74, 0
2, 68236, Note_on_c, 0, 84, 70
2, 68236, Note_on_c, 0, 51, 39
2, 68236, Note_on_c, 0, 78, 57
2, 68236, Note_on_c, 0, 72, 66
2, 68243, Note_on_c, 0, 59, 29
2, 68261, Note_on_c, 0, 51, 0
2, 68263, Note_on_c, 0, 59, 0
2, 68275, Note_on_c, 0, 84, 0
2, 68278, Note_on_c, 0, 72, 0
2, 68283, Note_on_c, 0, 78, 0
2, 68352, Note_on_c, 0, 51, 48
2, 68354, Note_on_c, 0, 71, 63
2, 68355, Note_on_c, 0, 83, 38
2, 68355, Note_on_c, 0, 75, 44
2, 68356, Note_on_c, 0, 78, 34
2, 68358, Note_on_c, 0, 59, 33
2, 68360, Note_on_c, 0, 81, 41
2, 68383, Note_on_c, 0, 59, 0
2, 68385, Note_on_c, 0, 51, 0
2, 68386, Note_on_c, 0, 81, 0
2, 68388, Note_on_c, 0, 71, 0
2, 68391, Note_on_c, 0, 83, 0
2, 68397, Note_on_c, 0, 78, 0
2, 68401, Note_on_c, 0, 75, 0
2, 68464, Note_on_c, 0, 51, 49
2, 68469, Note_on_c, 0, 75, 49
2, 68470, Note_on_c, 0, 81, 49
2, 68471, Note_on_c, 0, 59, 20
2, 68471, Note_on_c, 0, 69, 53
2, 68473, Note_on_c, 0, 78, 33
2, 68498, Note_on_c, 0, 69, 0
2, 68499, Note_on_c, 0, 59, 0
2, 68507, Note_on_c, 0, 78, 0
2, 68509, Note_on_c, 0, 51, 0
2, 68511, Note_on_c, 0, 81, 0
2, 68513, Note_on_c, 0, 75, 0
2, 68590, Note_on_c, 0, 67, 39
2, 68590, Note_on_c, 0, 50, 38
2, 68591, Note_on_c, 0, 60, 35
2, 68593, Note_on_c, 0, 74, 44
2, 68594, Note_on_c, 0, 79, 29
2, 68594, Note_on_c, 0, 81, 31
2, 68609, Note_on_c, 0, 60, 0
2, 68621, Note_on_c, 0, 74, 0
2, 68621, Note_on_c, 0, 67, 0
2, 68621, Note_on_c, 0, 50, 0
2, 68622, Note_on_c, 0, 81, 0
2, 68624, Note_on_c, 0, 79, 0
2, 68710, Note_on_c, 0, 50, 45
2, 68712, Note_on_c, 0, 77, 50
2, 68712, Note_on_c, 0, 60, 40
2, 68734, Note_on_c, 0, 60, 0
2, 68734, Note_on_c, 0, 50, 0
2, 68740, Note_on_c, 0, 77, 0
2, 68829, Note_on_c, 0, 65, 44
2, 68829, Note_on_c, 0, 69, 54
2, 68829, Note_on_c, 0, 50, 41
2, 68848, Note_on_c, 0, 69, 0
2, 68854, Note_on_c, 0, 65, 0
2, 68889, Note_on_c, 0, 64, 37
2, 68896, Note_on_c, 0, 65, 49
2, 68897, Note_on_c, 0, 60, 35
2, 68972, Note_on_c, 0, 64, 0
2, 68976, Note_on_c, 0, 50, 0
2, 68976, Note_on_c, 0, 65, 0
2, 68999, Note_on_c, 0, 50, 36
2, 69003, Note_on_c, 0, 65, 45
2, 69006, Note_on_c, 0, 64, 44
2, 69089, Note_on_c, 0, 60, 0
2, 69100, Note_on_c, 0, 65, 0
2, 69103, Note_on_c, 0, 50, 0
2, 69104, Note_on_c, 0, 64, 0
2, 69362, Note_on_c, 0, 64, 57
2, 69362, Note_on_c, 0, 68, 37
2, 69364, Note_on_c, 0, 59, 43
2, 69366, Note_on_c, 0, 71, 51
2, 69369, Note_on_c, 0, 49, 30
2, 69405, Note_on_c, 0, 49, 0
2, 69416, Note_on_c, 0, 59, 0
2, 69417, Note_on_c, 0, 64, 0
2, 69425, Note_on_c, 0, 68, 0
2, 69433, Note_on_c, 0, 71, 0
2, 69438, Note_on_c, 0, 58, 18
2, 69443, Note_on_c, 0, 49, 11
2, 69477, Note_on_c, 0, 49, 0
2, 69481, Note_on_c, 0, 58, 0
2, 69486, Note_on_c, 0, 64, 53
2, 69486, Note_on_c, 0, 68, 35
2, 69488, Note_on_c, 0, 59, 34
2, 69492, Note_on_c, 0, 71, 48
2, 69503, Note_on_c, 0, 59, 0
2, 69536, Note_on_c, 0, 64, 0
2, 69538, Note_on_c, 0, 68, 0
2, 69554, Note_on_c, 0, 49, 32
2, 69564, Note_on_c, 0, 71, 0
2, 69584, Note_on_c, 0, 49, 0
2, 69735, Control_c, 0, 64, 127
2, 69782, Note_on_c, 0, 48, 50
2, 69825, Control_c, 0, 64, 0
2, 69838, Note_on_c, 0, 68, 65
2, 69838, Note_on_c, 0, 71, 69
2, 69840, Note_on_c, 0, 64, 71
2, 69840, Note_on_c, 0, 56, 53
2, 69868, Control_c, 0, 64, 127
2, 69897, Note_on_c, 0, 64, 0
2, 69905, Note_on_c, 0, 71, 0
2, 69906, Control_c, 0, 64, 0
2, 69914, Note_on_c, 0, 59, 58
2, 69916, Note_on_c, 0, 56, 0
2, 69917, Note_on_c, 0, 76, 80
2, 69957, Control_c, 0, 64, 127
2, 69983, Note_on_c, 0, 68, 0
2, 69993, Control_c, 0, 64, 0
2, 70001, Note_on_c, 0, 76, 0
2, 70008, Note_on_c, 0, 71, 51
2, 70012, Note_on_c, 0, 64, 46
2, 70013, Note_on_c, 0, 59, 0
2, 70014, Note_on_c, 0, 68, 31
2, 70014, Note_on_c, 0, 56, 37
2, 70020, Control_c, 0, 64, 127
2, 70043, Note_on_c, 0, 64, 0
2, 70062, Note_on_c, 0, 68, 0
2, 70071, Note_on_c, 0, 71, 0
2, 70074, Note_on_c, 0, 56, 0
2, 70077, Control_c, 0, 64, 0
2, 70082, Note_on_c, 0, 74, 51
2, 70086, Note_on_c, 0, 57, 39
2, 70086, Note_on_c, 0, 67, 54
2, 70090, Note_on_c, 0, 64, 35
2, 70117, Note_on_c, 0, 48, 0
2, 70185, Note_on_c, 0, 48, 35
2, 70188, Note_on_c, 0, 64, 0
2, 70188, Control_c, 0, 64, 127
2, 70190, Note_on_c, 0, 67, 0
2, 70191, Note_on_c, 0, 74, 0
2, 70199, Note_on_c, 0, 57, 0
2, 70265, Note_on_c, 0, 62, 44
2, 70267, Note_on_c, 0, 67, 52
2, 70267, Control_c, 0, 64, 0
2, 70270, Note_on_c, 0, 72, 32
2, 70280, Note_on_c, 0, 55, 26
2, 70281, Note_on_c, 0, 48, 0
2, 70300, Note_on_c, 0, 62, 0
2, 70301, Control_c, 0, 64, 127
2, 70338, Note_on_c, 0, 67, 0
2, 70353, Note_on_c, 0, 72, 0
2, 70383, Control_c, 0, 64, 0
2, 70389, Note_on_c, 0, 48, 45
2, 70400, Note_on_c, 0, 48, 0
2, 70410, Note_on_c, 0, 55, 0
2, 70446, Note_on_c, 0, 71, 48
2, 70480, Note_on_c, 0, 71, 0
2, 70481, Note_on_c, 0, 72, 54
2, 70504, Note_on_c, 0, 72, 0
2, 70515, Note_on_c, 0, 74, 54
2, 70533, Note_on_c, 0, 74, 0
2, 70573, Note_on_c, 0, 69, 42
2, 70582, Note_on_c, 0, 64, 15
2, 70585, Note_on_c, 0, 60, 20
2, 70600, Note_on_c, 0, 69, 0
2, 70600, Note_on_c, 0, 71, 42
2, 70635, Note_on_c, 0, 72, 60
2, 70643, Note_on_c, 0, 71, 0
2, 70656, Note_on_c, 0, 72, 0
2, 70692, Note_on_c, 0, 67, 36
2, 70708, Note_on_c, 0, 64, 0
2, 70710, Note_on_c, 0, 60, 0
2, 70716, Note_on_c, 0, 67, 0
2, 70720, Note_on_c, 0, 69, 42
2, 70754, Note_on_c, 0, 69, 0
2, 70754, Note_on_c, 0, 71, 48
2, 70766, Note_on_c, 0, 71, 0
2, 70801, Note_on_c, 0, 64, 32
2, 70836, Note_on_c, 0, 64, 0
2, 70839, Note_on_c, 0, 66, 23
2, 70863, Note_on_c, 0, 66, 0
2, 70866, Note_on_c, 0, 67, 49
2, 70884, Note_on_c, 0, 67, 0
2, 70989, Note_on_c, 0, 61, 27
2, 70990, Note_on_c, 0, 64, 24
2, 70994, Note_on_c, 0, 55, 30
2, 70994, Note_on_c, 0, 58, 14
2, 71007, Note_on_c, 0, 55, 0
2, 71011, Note_on_c, 0, 61, 0
2, 71013, Note_on_c, 0, 64, 0
2, 71016, Note_on_c, 0, 58, 0
2, 71107, Note_on_c, 0, 64, 38
2, 71108, Note_on_c, 0, 61, 37
2, 71111, Note_on_c, 0, 58, 30
2, 71130, Note_on_c, 0, 64, 0
2, 71138, Note_on_c, 0, 61, 0
2, 71145, Note_on_c, 0, 58, 0
2, 71170, Note_on_c, 0, 82, 56
2, 71204, Note_on_c, 0, 82, 0
2, 71207, Note_on_c, 0, 83, 50
2, 71215, Note_on_c, 0, 84, 62
2, 71218, Note_on_c, 0, 83, 0
2, 71243, Note_on_c, 0, 84, 0
2, 71250, Note_on_c, 0, 85, 59
2, 71269, Note_on_c, 0, 85, 0
2, 71289, Note_on_c, 0, 79, 44
2, 71320, Note_on_c, 0, 79, 0
2, 71320, Note_on_c, 0, 80, 35
2, 71347, Note_on_c, 0, 80, 0
2, 71350, Note_on_c, 0, 81, 43
2, 71370, Note_on_c, 0, 82, 30
2, 71380, Note_on_c, 0, 81, 0
2, 71384, Note_on_c, 0, 82, 0
2, 71387, Note_on_c, 0, 61, 35
2, 71387, Note_on_c, 0, 64, 40
2, 71398, Note_on_c, 0, 64, 0
2, 71406, Note_on_c, 0, 61, 0
2, 71418, Note_on_c, 0, 76, 41
2, 71450, Note_on_c, 0, 76, 0
2, 71455, Note_on_c, 0, 78, 39
2, 71477, Note_on_c, 0, 79, 55
2, 71480, Note_on_c, 0, 78, 0
2, 71504, Note_on_c, 0, 79, 0
2, 71586, Note_on_c, 0, 78, 62
2, 71594, Note_on_c, 0, 66, 34
2, 71594, Note_on_c, 0, 62, 47
2, 71603, Note_on_c, 0, 66, 0
2, 71609, Note_on_c, 0, 62, 0
2, 71622, Note_on_c, 0, 78, 0
2, 71658, Note_on_c, 0, 69, 18
2, 71676, Note_on_c, 0, 69, 0
2, 71706, Note_on_c, 0, 69, 44
2, 71726, Note_on_c, 0, 69, 0
2, 71739, Note_on_c, 0, 62, 22
2, 71757, Note_on_c, 0, 62, 0
2, 71765, Note_on_c, 0, 74, 66
2, 71827, Note_on_c, 0, 74, 0
2, 71873, Note_on_c, 0, 66, 49
2, 71878, Note_on_c, 0, 62, 40
2, 71878, Note_on_c, 0, 78, 67
2, 71883, Note_on_c, 0, 57, 28
2, 71892, Note_on_c, 0, 62, 0
2, 71895, Note_on_c, 0, 57, 0
2, 71897, Note_on_c, 0, 66, 0
2, 71913, Note_on_c, 0, 78, 0
2, 71999, Note_on_c, 0, 81, 87
2, 71999, Note_on_c, 0, 71, 91
2, 72000, Note_on_c, 0, 76, 82
2, 72000, Note_on_c, 0, 65, 76
2, 72046, Note_on_c, 0, 81, 0
2, 72048, Note_on_c, 0, 76, 0
2, 72049, Note_on_c, 0, 65, 0
2, 72052, Note_on_c, 0, 71, 0
2, 72117, Note_on_c, 0, 79, 71
2, 72118, Note_on_c, 0, 64, 69
2, 72118, Note_on_c, 0, 74, 74
2, 72118, Note_on_c, 0, 69, 77
2, 72161, Note_on_c, 0, 74, 0
2, 72171, Note_on_c, 0, 79, 0
2, 72177, Note_on_c, 0, 69, 0
2, 72182, Note_on_c, 0, 64, 0
2, 72239, Control_c, 0, 64, 127
2, 72239, Note_on_c, 0, 78, 60
2, 72240, Note_on_c, 0, 62, 49
2, 72246, Note_on_c, 0, 72, 38
2, 72247, Note_on_c, 0, 67, 27
2, 72264, Note_on_c, 0, 78, 0
2, 72275, Note_on_c, 0, 67, 0
2, 72275, Note_on_c, 0, 72, 0
2, 72297, Note_on_c, 0, 62, 0
2, 72309, Note_on_c, 0, 76, 54
2, 72311, Note_on_c, 0, 65, 52
2, 72312, Note_on_c, 0, 71, 58
2, 72313, Note_on_c, 0, 60, 61
2, 72325, Control_c, 0, 64, 0
2, 72342, Note_on_c, 0, 60, 0
2, 72342, Note_on_c, 0, 71, 0
2, 72342, Note_on_c, 0, 76, 0
2, 72345, Note_on_c, 0, 65, 0
2, 72347, Control_c, 0, 64, 127
2, 72421, Control_c, 0, 64, 0
2, 72426, Note_on_c, 0, 74, 67
2, 72426, Note_on_c, 0, 71, 64
2, 72427, Note_on_c, 0, 59, 64
2, 72427, Note_on_c, 0, 64, 71
2, 72428, Note_on_c, 0, 67, 69
2, 72477, Control_c, 0, 64, 127
2, 72576, Note_on_c, 0, 64, 0
2, 72585, Control_c, 0, 64, 0
2, 72587, Note_on_c, 0, 67, 0
2, 72590, Note_on_c, 0, 71, 0
2, 72601, Note_on_c, 0, 57, 44
2, 72602, Note_on_c, 0, 74, 0
2, 72602, Note_on_c, 0, 72, 33
2, 72602, Note_on_c, 0, 64, 41
2, 72603, Note_on_c, 0, 59, 0
2, 72604, Control_c, 0, 64, 127
2, 72605, Note_on_c, 0, 67, 32
2, 72641, Note_on_c, 0, 67, 0
2, 72645, Note_on_c, 0, 72, 0
2, 72654, Note_on_c, 0, 64, 0
2, 72656, Note_on_c, 0, 57, 0
2, 72677, Control_c, 0, 64, 0
2, 72721, Note_on_c, 0, 75, 56
2, 72723, Note_on_c, 0, 67, 43
2, 72726, Note_on_c, 0, 71, 38
2, 72727, Note_on_c, 0, 60, 44
2, 72728, Note_on_c, 0, 64, 41
2, 72751, Control_c, 0, 64, 127
2, 72771, Note_on_c, 0, 71, 0
2, 72784, Note_on_c, 0, 67, 0
2, 72787, Note_on_c, 0, 64, 0
2, 72797, Control_c, 0, 64, 0
2, 72802, Note_on_c, 0, 75, 0
2, 72833, Note_on_c, 0, 60, 0
2, 72842, Control_c, 0, 64, 127
2, 72844, Note_on_c, 0, 71, 42
2, 72847, Note_on_c, 0, 64, 42
2, 72849, Note_on_c, 0, 57, 32
2, 72861, Note_on_c, 0, 57, 0
2, 72866, Note_on_c, 0, 64, 0
2, 72876, Note_on_c, 0, 71, 0
2, 72905, Control_c, 0, 64, 0
2, 72968, Note_on_c, 0, 74, 71
2, 72971, Note_on_c, 0, 63, 60
2, 72972, Note_on_c, 0, 67, 68
2, 72975, Note_on_c, 0, 62, 59
2, 72983, Note_on_c, 0, 70, 21
2, 72993, Note_on_c, 0, 70, 0
2, 73005, Note_on_c, 0, 63, 0
2, 73009, Note_on_c, 0, 67, 0
2, 73020, Note_on_c, 0, 74, 0
2, 73029, Note_on_c, 0, 62, 0
2, 73038, Note_on_c, 0, 61, 49
2, 73074, Note_on_c, 0, 61, 0
2, 73096, Note_on_c, 0, 63, 35
2, 73097, Note_on_c, 0, 60, 35
2, 73097, Note_on_c, 0, 72, 39
2, 73097, Note_on_c, 0, 67, 45
2, 73138, Note_on_c, 0, 60, 0
2, 73146, Note_on_c, 0, 67, 0
2, 73147, Note_on_c, 0, 72, 0
2, 73155, Note_on_c, 0, 63, 0
2, 73157, Note_on_c, 0, 55, 37
2, 73174, Note_on_c, 0, 55, 0
2, 73266, Note_on_c, 0, 63, 42
2, 73266, Note_on_c, 0, 62, 42
2, 73271, Note_on_c, 0, 55, 48
2, 73291, Note_on_c, 0, 55, 0
2, 73388, Note_on_c, 0, 55, 41
2, 73398, Note_on_c, 0, 55, 0
2, 73415, Note_on_c, 0, 62, 0
2, 73424, Note_on_c, 0, 63, 0
2, 73442, Note_on_c, 0, 47, 43
2, 73552, Note_on_c, 0, 47, 0
2, 73561, Note_on_c, 0, 75, 61
2, 73563, Note_on_c, 0, 63, 56
2, 73579, Note_on_c, 0, 63, 0
2, 73584, Note_on_c, 0, 75, 0
2, 73623, Note_on_c, 0, 75, 40
2, 73626, Note_on_c, 0, 63, 35
2, 73645, Note_on_c, 0, 63, 0
2, 73646, Note_on_c, 0, 75, 0
2, 73686, Note_on_c, 0, 75, 50
2, 73688, Note_on_c, 0, 57, 20
2, 73692, Note_on_c, 0, 63, 35
2, 73696, Note_on_c, 0, 57, 0
2, 73697, Control_c, 0, 64, 127
2, 73764, Note_on_c, 0, 63, 0
2, 73779, Note_on_c, 0, 75, 0
2, 73868, Note_on_c, 0, 76, 76
2, 73870, Control_c, 0, 64, 0
2, 73871, Note_on_c, 0, 71, 74
2, 73871, Note_on_c, 0, 66, 68
2, 73872, Note_on_c, 0, 40, 57
2, 73872, Note_on_c, 0, 28, 62
2, 73897, Note_on_c, 0, 28, 0
2, 73900, Note_on_c, 0, 66, 0
2, 73906, Control_c, 0, 64, 127
2, 73908, Note_on_c, 0, 40, 0
2, 73914, Note_on_c, 0, 71, 0
2, 73918, Note_on_c, 0, 76, 0
2, 73997, Note_on_c, 0, 54, 46
2, 73998, Note_on_c, 0, 64, 64
2, 73998, Note_on_c, 0, 88, 79
2, 74000, Note_on_c, 0, 76, 66
2, 74001, Note_on_c, 0, 59, 61
2, 74022, Note_on_c, 0, 76, 0
2, 74024, Note_on_c, 0, 64, 0
2, 74032, Note_on_c, 0, 88, 0
2, 74034, Note_on_c, 0, 59, 0
2, 74035, Note_on_c, 0, 54, 0
2, 74111, Note_on_c, 0, 90, 67
2, 74111, Note_on_c, 0, 78, 62
2, 74112, Note_on_c, 0, 54, 54
2, 74114, Note_on_c, 0, 59, 61
2, 74115, Note_on_c, 0, 64, 62
2, 74128, Note_on_c, 0, 64, 0
2, 74131, Note_on_c, 0, 78, 0
2, 74135, Note_on_c, 0, 54, 0
2, 74141, Note_on_c, 0, 59, 0
2, 74142, Note_on_c, 0, 90, 0
2, 74226, Note_on_c, 0, 54, 62
2, 74226, Note_on_c, 0, 95, 75
2, 74227, Note_on_c, 0, 64, 72
2, 74227, Note_on_c, 0, 83, 72
2, 74228, Note_on_c, 0, 59, 66
2, 74252, Note_on_c, 0, 83, 0
2, 74253, Note_on_c, 0, 64, 0
2, 74259, Note_on_c, 0, 95, 0
2, 74262, Note_on_c, 0, 54, 0
2, 74264, Note_on_c, 0, 59, 0
2, 74345, Note_on_c, 0, 59, 76
2, 74346, Note_on_c, 0, 100, 80
2, 74346, Note_on_c, 0, 64, 80
2, 74346, Note_on_c, 0, 54, 82
2, 74348, Note_on_c, 0, 88, 80
2, 74366, Control_c, 0, 64, 0
2, 74385, Control_c, 0, 64, 127
2, 74393, Note_on_c, 0, 88, 0
2, 74395, Note_on_c, 0, 54, 0
2, 74397, Note_on_c, 0, 100, 0
2, 74407, Note_on_c, 0, 59, 0
2, 74414, Note_on_c, 0, 64, 0
2, 74467, Note_on_c, 0, 59, 77
2, 74468, Note_on_c, 0, 90, 79
2, 74468, Note_on_c, 0, 102, 83
2, 74468, Note_on_c, 0, 64, 75
2, 74469, Note_on_c, 0, 54, 76
2, 74484, Control_c, 0, 64, 0
2, 74494, Control_c, 0, 64, 127
2, 74518, Note_on_c, 0, 90, 0
2, 74519, Note_on_c, 0, 102, 0
2, 74526, Note_on_c, 0, 59, 0
2, 74533, Note_on_c, 0, 54, 0
2, 74538, Note_on_c, 0, 64, 0
2, 74585, Note_on_c, 0, 64, 71
2, 74586, Note_on_c, 0, 54, 63
2, 74587, Note_on_c, 0, 59, 64
2, 74589, Note_on_c, 0, 91, 68
2, 74589, Note_on_c, 0, 103, 72
2, 74602, Note_on_c, 0, 91, 0
2, 74606, Note_on_c, 0, 64, 0
2, 74610, Note_on_c, 0, 54, 0
2, 74612, Note_on_c, 0, 103, 0
2, 74620, Note_on_c, 0, 59, 0
2, 74648, Note_on_c, 0, 107, 91
2, 74648, Note_on_c, 0, 54, 73
2, 74649, Note_on_c, 0, 59, 77
2, 74650, Note_on_c, 0, 64, 76
2, 74650, Note_on_c, 0, 95, 60
2, 74654, Note_on_c, 0, 96, 56
2, 74655, Control_c, 0, 64, 0
2, 74662, Note_on_c, 0, 96, 0
2, 74679, Control_c, 0, 64, 127
2, 74721, Note_on_c, 0, 64, 0
2, 74729, Note_on_c, 0, 59, 0
2, 74737, Note_on_c, 0, 54, 0
2, 74769, Note_on_c, 0, 54, 39
2, 74773, Note_on_c, 0, 64, 30
2, 74783, Note_on_c, 0, 64, 0
2, 74793, Note_on_c, 0, 54, 0
2, 74812, Note_on_c, 0, 107, 0
2, 74832, Note_on_c, 0, 95, 0
2, 74833, Note_on_c, 0, 106, 67
2, 74852, Control_c, 0, 64, 0
2, 74875, Note_on_c, 0, 106, 0
2, 74890, Note_on_c, 0, 107, 72
2, 74893, Note_on_c, 0, 59, 31
2, 74893, Note_on_c, 0, 55, 41
2, 74895, Note_on_c, 0, 52, 34
2, 74907, Note_on_c, 0, 52, 0
2, 74908, Note_on_c, 0, 55, 0
2, 74911, Note_on_c, 0, 59, 0
2, 74922, Note_on_c, 0, 107, 0
2, 74957, Note_on_c, 0, 106, 33
2, 74982, Note_on_c, 0, 106, 0
2, 75003, Note_on_c, 0, 107, 67
2, 75041, Note_on_c, 0, 107, 0
2, 75065, Note_on_c, 0, 106, 56
2, 75106, Note_on_c, 0, 106, 0
2, 75122, Note_on_c, 0, 105, 58
2, 75124, Note_on_c, 0, 52, 44
2, 75126, Note_on_c, 0, 60, 36
2, 75171, Note_on_c, 0, 52, 0
2, 75177, Note_on_c, 0, 60, 0
2, 75194, Note_on_c, 0, 105, 0
2, 75239, Note_on_c, 0, 103, 62
2, 75260, Note_on_c, 0, 103, 0
2, 75312, Note_on_c, 0, 59, 54
2, 75312, Note_on_c, 0, 52, 48
2, 75313, Note_on_c, 0, 105, 89
2, 75342, Note_on_c, 0, 52, 0
2, 75342, Note_on_c, 0, 59, 0
2, 75404, Note_on_c, 0, 105, 0
2, 75404, Note_on_c, 0, 106, 42
2, 75416, Note_on_c, 0, 105, 51
2, 75423, Note_on_c, 0, 106, 0
2, 75447, Note_on_c, 0, 103, 54
2, 75457, Note_on_c, 0, 105, 0
2, 75471, Note_on_c, 0, 103, 0
2, 75488, Note_on_c, 0, 102, 61
2, 75543, Note_on_c, 0, 102, 0
2, 75550, Note_on_c, 0, 60, 62
2, 75552, Note_on_c, 0, 105, 83
2, 75552, Note_on_c, 0, 52, 44
2, 75574, Note_on_c, 0, 60, 0
2, 75576, Note_on_c, 0, 52, 0
2, 75591, Note_on_c, 0, 105, 0
2, 75614, Note_on_c, 0, 103, 35
2, 75671, Note_on_c, 0, 98, 44
2, 75676, Note_on_c, 0, 103, 0
2, 75708, Note_on_c, 0, 98, 0
2, 75726, Note_on_c, 0, 59, 49
2, 75727, Note_on_c, 0, 52, 36
2, 75732, Note_on_c, 0, 98, 34
2, 75733, Note_on_c, 0, 96, 36
2, 75742, Note_on_c, 0, 52, 0
2, 75743, Note_on_c, 0, 59, 0
2, 75771, Note_on_c, 0, 96, 0
2, 75779, Note_on_c, 0, 98, 0
2, 75793, Note_on_c, 0, 95, 36
2, 75813, Note_on_c, 0, 95, 0
2, 75849, Note_on_c, 0, 51, 35
2, 75854, Note_on_c, 0, 60, 24
2, 75896, Note_on_c, 0, 60, 0
2, 75896, Note_on_c, 0, 51, 0
2, 76025, Note_on_c, 0, 58, 52
2, 76029, Note_on_c, 0, 51, 39
2, 76036, Note_on_c, 0, 59, 37
2, 76057, Note_on_c, 0, 59, 0
2, 76061, Note_on_c, 0, 58, 0
2, 76063, Note_on_c, 0, 51, 0
2, 76139, Note_on_c, 0, 59, 60
2, 76142, Note_on_c, 0, 51, 43
2, 76158, Note_on_c, 0, 59, 0
2, 76160, Note_on_c, 0, 51, 0
2, 76200, Note_on_c, 0, 86, 94
2, 76200, Note_on_c, 0, 90, 75
2, 76201, Note_on_c, 0, 98, 77
2, 76202, Note_on_c, 0, 93, 72
2, 76204, Note_on_c, 0, 96, 65
2, 76212, Note_on_c, 0, 96, 0
2, 76240, Note_on_c, 0, 86, 0
2, 76247, Note_on_c, 0, 98, 0
2, 76248, Note_on_c, 0, 93, 0
2, 76249, Note_on_c, 0, 90, 0
2, 76265, Note_on_c, 0, 98, 62
2, 76267, Note_on_c, 0, 90, 47
2, 76267, Note_on_c, 0, 86, 58
2, 76270, Note_on_c, 0, 93, 54
2, 76297, Note_on_c, 0, 98, 0
2, 76298, Note_on_c, 0, 86, 0
2, 76308, Note_on_c, 0, 90, 0
2, 76308, Note_on_c, 0, 93, 0
2, 76320, Note_on_c, 0, 51, 40
2, 76321, Note_on_c, 0, 60, 49
2, 76321, Note_on_c, 0, 90, 32
2, 76322, Note_on_c, 0, 96, 55
2, 76326, Note_on_c, 0, 84, 44
2, 76330, Note_on_c, 0, 93, 49
2, 76341, Note_on_c, 0, 60, 0
2, 76342, Note_on_c, 0, 51, 0
2, 76358, Note_on_c, 0, 84, 0
2, 76359, Note_on_c, 0, 96, 0
2, 76367, Note_on_c, 0, 93, 0
2, 76370, Note_on_c, 0, 90, 0
2, 76388, Note_on_c, 0, 96, 54
2, 76388, Note_on_c, 0, 90, 49
2, 76391, Note_on_c, 0, 84, 47
2, 76396, Note_on_c, 0, 93, 27
2, 76405, Note_on_c, 0, 93, 0
2, 76410, Note_on_c, 0, 96, 0
2, 76416, Note_on_c, 0, 84, 0
2, 76421, Note_on_c, 0, 90, 0
2, 76442, Note_on_c, 0, 95, 57
2, 76446, Note_on_c, 0, 83, 43
2, 76452, Note_on_c, 0, 90, 30
2, 76454, Note_on_c, 0, 87, 25
2, 76475, Note_on_c, 0, 87, 0
2, 76483, Note_on_c, 0, 90, 0
2, 76488, Note_on_c, 0, 83, 0
2, 76488, Note_on_c, 0, 95, 0
2, 76504, Note_on_c, 0, 95, 63
2, 76506, Note_on_c, 0, 83, 48
2, 76507, Note_on_c, 0, 51, 53
2, 76508, Note_on_c, 0, 90, 42
2, 76508, Note_on_c, 0, 59, 53
2, 76508, Note_on_c, 0, 87, 56
2, 76535, Note_on_c, 0, 59, 0
2, 76539, Note_on_c, 0, 95, 0
2, 76543, Note_on_c, 0, 83, 0
2, 76544, Note_on_c, 0, 87, 0
2, 76547, Note_on_c, 0, 51, 0
2, 76552, Note_on_c, 0, 90, 0
2, 76565, Note_on_c, 0, 93, 51
2, 76569, Note_on_c, 0, 87, 30
2, 76571, Note_on_c, 0, 81, 34
2, 76572, Note_on_c, 0, 90, 25
2, 76605, Note_on_c, 0, 93, 0
2, 76608, Note_on_c, 0, 90, 0
2, 76610, Note_on_c, 0, 87, 0
2, 76613, Note_on_c, 0, 81, 0
2, 76623, Note_on_c, 0, 81, 30
2, 76624, Note_on_c, 0, 93, 72
2, 76626, Note_on_c, 0, 87, 62
2, 76629, Note_on_c, 0, 90, 46
2, 76653, Note_on_c, 0, 93, 0
2, 76655, Note_on_c, 0, 90, 0
2, 76660, Note_on_c, 0, 87, 0
2, 76661, Note_on_c, 0, 81, 0
2, 76673, Note_on_c, 0, 51, 33
2, 76674, Note_on_c, 0, 57, 32
2, 76677, Note_on_c, 0, 91, 41
2, 76686, Note_on_c, 0, 79, 22
2, 76691, Note_on_c, 0, 86, 30
2, 76702, Note_on_c, 0, 86, 0
2, 76720, Note_on_c, 0, 91, 0
2, 76721, Note_on_c, 0, 79, 0
2, 76733, Note_on_c, 0, 57, 0
2, 76745, Note_on_c, 0, 91, 44
2, 76746, Note_on_c, 0, 79, 55
2, 76750, Note_on_c, 0, 86, 65
2, 76753, Note_on_c, 0, 51, 0
2, 76760, Note_on_c, 0, 86, 0
2, 76769, Note_on_c, 0, 91, 0
2, 76773, Note_on_c, 0, 79, 0
2, 76795, Note_on_c, 0, 50, 39
2, 76800, Note_on_c, 0, 57, 34
2, 76848, Note_on_c, 0, 57, 0
2, 76850, Note_on_c, 0, 50, 0
2, 76982, Note_on_c, 0, 50, 41
2, 76985, Note_on_c, 0, 59, 41
2, 76987, Note_on_c, 0, 57, 45
2, 77008, Note_on_c, 0, 57, 0
2, 77013, Note_on_c, 0, 59, 0
2, 77016, Note_on_c, 0, 50, 0
2, 77100, Note_on_c, 0, 50, 55
2, 77101, Note_on_c, 0, 60, 76
2, 77159, Note_on_c, 0, 79, 64
2, 77161, Note_on_c, 0, 91, 62
2, 77163, Note_on_c, 0, 88, 50
2, 77165, Note_on_c, 0, 84, 54
2, 77169, Note_on_c, 0, 60, 0
2, 77172, Note_on_c, 0, 50, 0
2, 77173, Note_on_c, 0, 84, 0
2, 77183, Note_on_c, 0, 79, 0
2, 77185, Note_on_c, 0, 88, 0
2, 77187, Note_on_c, 0, 91, 0
2, 77223, Note_on_c, 0, 50, 55
2, 77245, Note_on_c, 0, 50, 0
2, 77284, Note_on_c, 0, 59, 63
2, 77284, Note_on_c, 0, 49, 57
2, 77288, Note_on_c, 0, 87, 65
2, 77289, Note_on_c, 0, 91, 77
2, 77289, Note_on_c, 0, 79, 74
2, 77431, Note_on_c, 0, 91, 0
2, 77436, Note_on_c, 0, 79, 0
2, 77439, Note_on_c, 0, 59, 0
2, 77439, Note_on_c, 0, 49, 0
2, 77448, Note_on_c, 0, 87, 0
2, 77460, Note_on_c, 0, 49, 48
2, 77461, Note_on_c, 0, 89, 60
2, 77463, Note_on_c, 0, 59, 48
2, 77464, Note_on_c, 0, 84, 66
2, 77464, Note_on_c, 0, 77, 55
2, 77492, Note_on_c, 0, 89, 0
2, 77494, Note_on_c, 0, 84, 0
2, 77496, Note_on_c, 0, 49, 0
2, 77505, Control_c, 0, 64, 127
2, 77506, Note_on_c, 0, 59, 0
2, 77508, Note_on_c, 0, 77, 0
2, 77557, Note_on_c, 0, 84, 55
2, 77560, Note_on_c, 0, 72, 43
2, 77589, Note_on_c, 0, 84, 0
2, 77598, Note_on_c, 0, 72, 0
2, 77627, Control_c, 0, 64, 0
2, 77637, Note_on_c, 0, 63, 38
2, 77643, Note_on_c, 0, 80, 31
2, 77644, Control_c, 0, 64, 127
2, 77645, Note_on_c, 0, 68, 33
2, 77651, Note_on_c, 0, 58, 29
2, 77653, Note_on_c, 0, 53, 15
2, 77670, Note_on_c, 0, 80, 0
2, 77676, Note_on_c, 0, 53, 0
2, 77679, Note_on_c, 0, 68, 0
2, 77692, Note_on_c, 0, 63, 0
2, 77694, Note_on_c, 0, 58, 0
2, 77719, Note_on_c, 0, 79, 42
2, 77720, Note_on_c, 0, 74, 46
2, 77721, Note_on_c, 0, 62, 35
2, 77721, Control_c, 0, 64, 0
2, 77724, Note_on_c, 0, 67, 43
2, 77725, Note_on_c, 0, 52, 29
2, 77731, Note_on_c, 0, 57, 38
2, 77772, Control_c, 0, 64, 127
2, 77837, Note_on_c, 0, 79, 0
2, 77838, Note_on_c, 0, 74, 0
2, 77863, Note_on_c, 0, 62, 0
2, 77864, Note_on_c, 0, 67, 0
2, 77878, Note_on_c, 0, 57, 0
2, 77893, Note_on_c, 0, 52, 0
2, 77971, Control_c, 0, 64, 0
2, 78001, Note_on_c, 0, 67, 48
2, 78002, Note_on_c, 0, 52, 47
2, 78004, Note_on_c, 0, 57, 40
2, 78005, Note_on_c, 0, 62, 49
2, 78045, Note_on_c, 0, 67, 0
2, 78053, Note_on_c, 0, 52, 0
2, 78065, Note_on_c, 0, 66, 35
2, 78066, Note_on_c, 0, 62, 0
2, 78066, Note_on_c, 0, 51, 31
2, 78068, Note_on_c, 0, 57, 0
2, 78097, Note_on_c, 0, 66, 0
2, 78111, Note_on_c, 0, 51, 0
2, 78120, Note_on_c, 0, 52, 33
2, 78121, Note_on_c, 0, 62, 42
2, 78123, Note_on_c, 0, 67, 40
2, 78139, Note_on_c, 0, 52, 0
2, 78144, Note_on_c, 0, 62, 0
2, 78148, Note_on_c, 0, 67, 0
2, 78239, Note_on_c, 0, 71, 52
2, 78240, Note_on_c, 0, 62, 43
2, 78242, Note_on_c, 0, 67, 47
2, 78243, Note_on_c, 0, 59, 44
2, 78275, Note_on_c, 0, 64, 1
2, 78303, Note_on_c, 0, 59, 0
2, 78303, Note_on_c, 0, 62, 0
2, 78306, Note_on_c, 0, 71, 0
2, 78306, Note_on_c, 0, 64, 0
2, 78310, Note_on_c, 0, 67, 0
2, 78320, Note_on_c, 0, 57, 27
2, 78348, Note_on_c, 0, 57, 0
2, 78366, Note_on_c, 0, 59, 33
2, 78367, Note_on_c, 0, 71, 50
2, 78369, Note_on_c, 0, 67, 40
2, 78369, Note_on_c, 0, 62, 44
2, 78369, Note_on_c, 0, 64, 44
2, 78403, Note_on_c, 0, 62, 0
2, 78410, Note_on_c, 0, 64, 0
2, 78412, Note_on_c, 0, 67, 0
2, 78418, Note_on_c, 0, 59, 0
2, 78431, Note_on_c, 0, 71, 0
2, 78551, Note_on_c, 0, 67, 40
2, 78552, Note_on_c, 0, 55, 51
2, 78553, Note_on_c, 0, 62, 38
2, 78555, Note_on_c, 0, 64, 40
2, 78575, Note_on_c, 0, 62, 0
2, 78586, Note_on_c, 0, 64, 0
2, 78597, Note_on_c, 0, 67, 0
2, 78598, Note_on_c, 0, 55, 0
2, 78609, Note_on_c, 0, 71, 51
2, 78614, Note_on_c, 0, 59, 33
2, 78631, Note_on_c, 0, 71, 0
2, 78641, Note_on_c, 0, 59, 0
2, 78670, Note_on_c, 0, 72, 38
2, 78671, Note_on_c, 0, 62, 63
2, 78673, Note_on_c, 0, 64, 47
2, 78674, Note_on_c, 0, 71, 46
2, 78675, Note_on_c, 0, 69, 45
2, 78675, Note_on_c, 0, 67, 50
2, 78703, Note_on_c, 0, 69, 0
2, 78704, Note_on_c, 0, 62, 0
2, 78705, Note_on_c, 0, 67, 0
2, 78706, Note_on_c, 0, 72, 0
2, 78707, Note_on_c, 0, 64, 0
2, 78707, Note_on_c, 0, 71, 0
2, 78738, Note_on_c, 0, 74, 64
2, 78740, Note_on_c, 0, 71, 65
2, 78740, Note_on_c, 0, 62, 72
2, 78741, Note_on_c, 0, 67, 64
2, 78742, Note_on_c, 0, 64, 66
2, 78800, Note_on_c, 0, 64, 0
2, 78804, Note_on_c, 0, 62, 0
2, 78805, Note_on_c, 0, 67, 0
2, 78805, Note_on_c, 0, 74, 0
2, 78811, Note_on_c, 0, 71, 0
2, 78830, Note_on_c, 0, 74, 50
2, 78831, Note_on_c, 0, 62, 62
2, 78832, Note_on_c, 0, 71, 58
2, 78833, Note_on_c, 0, 67, 60
2, 78833, Note_on_c, 0, 64, 64
2, 78872, Note_on_c, 0, 64, 0
2, 78874, Note_on_c, 0, 67, 0
2, 78879, Note_on_c, 0, 71, 0
2, 78889, Note_on_c, 0, 74, 0
2, 78899, Note_on_c, 0, 62, 0
2, 78906, Note_on_c, 0, 64, 53
2, 78906, Note_on_c, 0, 67, 55
2, 78908, Note_on_c, 0, 59, 51
2, 78913, Note_on_c, 0, 71, 34
2, 78940, Note_on_c, 0, 71, 0
2, 78944, Note_on_c, 0, 64, 0
2, 78948, Note_on_c, 0, 67, 0
2, 78968, Note_on_c, 0, 59, 0
2, 78984, Note_on_c, 0, 60, 48
2, 78985, Note_on_c, 0, 67, 43
2, 78986, Note_on_c, 0, 72, 29
2, 78989, Note_on_c, 0, 64, 37
2, 78992, Note_on_c, 0, 69, 31
2, 79005, Note_on_c, 0, 69, 0
2, 79012, Note_on_c, 0, 67, 0
2, 79026, Note_on_c, 0, 64, 0
2, 79029, Note_on_c, 0, 72, 0
2, 79046, Note_on_c, 0, 60, 0
2, 79055, Note_on_c, 0, 67, 43
2, 79060, Note_on_c, 0, 64, 42
2, 79062, Note_on_c, 0, 55, 49
2, 79066, Note_on_c, 0, 60, 35
2, 79074, Note_on_c, 0, 55, 0
2, 79078, Note_on_c, 0, 60, 0
2, 79083, Note_on_c, 0, 64, 0
2, 79094, Note_on_c, 0, 67, 0
2, 79164, Note_on_c, 0, 47, 46
2, 79165, Note_on_c, 0, 57, 48
2, 79188, Note_on_c, 0, 57, 0
2, 79190, Note_on_c, 0, 47, 0
2, 79328, Note_on_c, 0, 66, 82
2, 79357, Note_on_c, 0, 66, 0
2, 79385, Note_on_c, 0, 67, 52
2, 79395, Note_on_c, 0, 66, 40
2, 79408, Note_on_c, 0, 57, 30
2, 79409, Note_on_c, 0, 67, 0
2, 79418, Note_on_c, 0, 57, 0
2, 79428, Note_on_c, 0, 64, 39
2, 79437, Note_on_c, 0, 66, 0
2, 79485, Note_on_c, 0, 64, 0
2, 79500, Note_on_c, 0, 63, 48
2, 79507, Note_on_c, 0, 57, 34
2, 79519, Note_on_c, 0, 57, 0
2, 79541, Note_on_c, 0, 63, 0
2, 79566, Note_on_c, 0, 62, 29
2, 79617, Note_on_c, 0, 62, 0
2, 79621, Note_on_c, 0, 63, 64
2, 79666, Note_on_c, 0, 63, 0
2, 79686, Note_on_c, 0, 64, 38
2, 79737, Note_on_c, 0, 64, 0
2, 79740, Note_on_c, 0, 66, 60
2, 79771, Note_on_c, 0, 66, 0
2, 79799, Note_on_c, 0, 69, 70
2, 79852, Note_on_c, 0, 69, 0
2, 79865, Note_on_c, 0, 66, 39
2, 79894, Note_on_c, 0, 66, 0
2, 79914, Note_on_c, 0, 67, 38
2, 79961, Note_on_c, 0, 67, 0
2, 79979, Note_on_c, 0, 69, 62
2, 79981, Note_on_c, 0, 54, 34
2, 79983, Note_on_c, 0, 64, 32
2, 79986, Note_on_c, 0, 60, 36
2, 80019, Note_on_c, 0, 69, 0
2, 80040, Note_on_c, 0, 71, 50
2, 80049, Note_on_c, 0, 60, 0
2, 80068, Note_on_c, 0, 64, 0
2, 80071, Note_on_c, 0, 54, 0
2, 80094, Note_on_c, 0, 71, 0
2, 80106, Note_on_c, 0, 72, 51
2, 80107, Note_on_c, 0, 54, 45
2, 80130, Note_on_c, 0, 72, 0
2, 80133, Note_on_c, 0, 54, 0
2, 80178, Control_c, 0, 64, 127
2, 80228, Note_on_c, 0, 76, 54
2, 80231, Note_on_c, 0, 64, 49
2, 80236, Note_on_c, 0, 59, 30
2, 80237, Note_on_c, 0, 55, 43
2, 80242, Note_on_c, 0, 52, 19
2, 80252, Note_on_c, 0, 55, 0
2, 80253, Note_on_c, 0, 59, 0
2, 80253, Note_on_c, 0, 52, 0
2, 80253, Note_on_c, 0, 64, 0
2, 80255, Note_on_c, 0, 76, 0
2, 80290, Note_on_c, 0, 78, 69
2, 80291, Note_on_c, 0, 66, 69
2, 80292, Note_on_c, 0, 59, 47
2, 80292, Note_on_c, 0, 55, 50
2, 80293, Note_on_c, 0, 52, 44
2, 80293, Note_on_c, 0, 62, 48
2, 80309, Note_on_c, 0, 62, 0
2, 80320, Note_on_c, 0, 52, 0
2, 80325, Note_on_c, 0, 59, 0
2, 80326, Note_on_c, 0, 55, 0
2, 80336, Note_on_c, 0, 66, 0
2, 80342, Note_on_c, 0, 78, 0
2, 80360, Note_on_c, 0, 79, 66
2, 80361, Note_on_c, 0, 67, 79
2, 80361, Note_on_c, 0, 59, 66
2, 80363, Note_on_c, 0, 62, 66
2, 80365, Note_on_c, 0, 55, 50
2, 80366, Note_on_c, 0, 52, 48
2, 80369, Note_on_c, 0, 77, 30
2, 80373, Control_c, 0, 64, 0
2, 80382, Note_on_c, 0, 77, 0
2, 80382, Note_on_c, 0, 62, 0
2, 80392, Note_on_c, 0, 52, 0
2, 80394, Note_on_c, 0, 67, 0
2, 80397, Note_on_c, 0, 59, 0
2, 80398, Note_on_c, 0, 79, 0
2, 80400, Note_on_c, 0, 55, 0
2, 80412, Control_c, 0, 64, 127
2, 80473, Note_on_c, 0, 78, 53
2, 80477, Note_on_c, 0, 66, 64
2, 80478, Note_on_c, 0, 59, 53
2, 80480, Note_on_c, 0, 62, 54
2, 80482, Control_c, 0, 64, 0
2, 80482, Note_on_c, 0, 55, 53
2, 80484, Note_on_c, 0, 52, 34
2, 80492, Note_on_c, 0, 62, 0
2, 80503, Note_on_c, 0, 59, 0
2, 80503, Note_on_c, 0, 78, 0
2, 80503, Note_on_c, 0, 66, 0
2, 80504, Note_on_c, 0, 52, 0
2, 80508, Note_on_c, 0, 55, 0
2, 80515, Control_c, 0, 64, 127
2, 80583, Control_c, 0, 64, 0
2, 80587, Note_on_c, 0, 76, 66
2, 80588, Note_on_c, 0, 59, 49
2, 80589, Note_on_c, 0, 55, 59
2, 80590, Note_on_c, 0, 64, 67
2, 80593, Note_on_c, 0, 52, 40
2, 80595, Control_c, 0, 64, 127
2, 80631, Control_c, 0, 64, 0
2, 80654, Note_on_c, 0, 59, 0
2, 80655, Note_on_c, 0, 52, 0
2, 80659, Note_on_c, 0, 55, 0
2, 80662, Note_on_c, 0, 64, 0
2, 80665, Control_c, 0, 64, 127
2, 80677, Note_on_c, 0, 76, 0
2, 80751, Control_c, 0, 64, 0
2, 80766, Control_c, 0, 64, 127
2, 80821, Control_c, 0, 64, 0
2, 80941, Note_on_c, 0, 81, 65
2, 80942, Note_on_c, 0, 58, 67
2, 80942, Note_on_c, 0, 63, 67
2, 80942, Note_on_c, 0, 69, 64
2, 80943, Note_on_c, 0, 75, 62
2, 80945, Note_on_c, 0, 52, 57
2, 80983, Note_on_c, 0, 76, 45
2, 80987, Note_on_c, 0, 52, 0
2, 80988, Note_on_c, 0, 69, 0
2, 80988, Note_on_c, 0, 75, 0
2, 80994, Note_on_c, 0, 63, 0
2, 80997, Note_on_c, 0, 81, 0
2, 80997, Note_on_c, 0, 58, 0
2, 81004, Note_on_c, 0, 76, 0
2, 81037, Note_on_c, 0, 58, 57
2, 81038, Note_on_c, 0, 63, 55
2, 81038, Note_on_c, 0, 75, 60
2, 81038, Note_on_c, 0, 81, 59
2, 81040, Note_on_c, 0, 69, 66
2, 81040, Note_on_c, 0, 52, 60
2, 81083, Note_on_c, 0, 52, 0
2, 81087, Note_on_c, 0, 75, 0
2, 81088, Note_on_c, 0, 69, 0
2, 81095, Note_on_c, 0, 63, 0
2, 81099, Note_on_c, 0, 81, 0
2, 81100, Note_on_c, 0, 58, 0
2, 81132, Note_on_c, 0, 81, 59
2, 81133, Note_on_c, 0, 63, 42
2, 81133, Note_on_c, 0, 58, 46
2, 81134, Note_on_c, 0, 52, 51
2, 81135, Note_on_c, 0, 69, 46
2, 81136, Note_on_c, 0, 75, 37
2, 81177, Note_on_c, 0, 75, 0
2, 81179, Note_on_c, 0, 76, 34
2, 81187, Note_on_c, 0, 69, 0
2, 81189, Note_on_c, 0, 52, 0
2, 81193, Note_on_c, 0, 76, 0
2, 81196, Note_on_c, 0, 63, 0
2, 81197, Note_on_c, 0, 81, 0
2, 81200, Note_on_c, 0, 58, 0
2, 81246, Control_c, 0, 64, 127
2, 81316, Control_c, 0, 64, 0
2, 81357, Control_c, 0, 64, 127
2, 81425, Note_on_c, 0, 75, 55
2, 81426, Note_on_c, 0, 63, 54
2, 81428, Note_on_c, 0, 58, 49
2, 81428, Note_on_c, 0, 81, 58
2, 81429, Note_on_c, 0, 52, 42
2, 81430, Note_on_c, 0, 69, 50
2, 81436, Control_c, 0, 64, 0
2, 81472, Control_c, 0, 64, 127
2, 81478, Note_on_c, 0, 52, 0
2, 81478, Note_on_c, 0, 75, 0
2, 81480, Note_on_c, 0, 69, 0
2, 81487, Note_on_c, 0, 58, 0
2, 81492, Note_on_c, 0, 63, 0
2, 81499, Note_on_c, 0, 81, 0
2, 81501, Control_c, 0, 64, 0
2, 81667, Note_on_c, 0, 66, 44
2, 81672, Note_on_c, 0, 61, 37
2, 81673, Note_on_c, 0, 63, 34
2, 81687, Note_on_c, 0, 66, 0
2, 81690, Note_on_c, 0, 63, 0
2, 81691, Note_on_c, 0, 61, 0
2, 81784, Note_on_c, 0, 80, 60
2, 81786, Note_on_c, 0, 68, 57
2, 81786, Note_on_c, 0, 75, 60
2, 81788, Note_on_c, 0, 63, 52
2, 81791, Note_on_c, 0, 61, 40
2, 81802, Note_on_c, 0, 61, 0
2, 81803, Note_on_c, 0, 68, 0
2, 81811, Note_on_c, 0, 80, 0
2, 81812, Note_on_c, 0, 63, 0
2, 81818, Note_on_c, 0, 75, 0
2, 81850, Note_on_c, 0, 80, 53
2, 81853, Note_on_c, 0, 75, 50
2, 81855, Note_on_c, 0, 68, 37
2, 81880, Note_on_c, 0, 80, 0
2, 81888, Note_on_c, 0, 68, 0
2, 81894, Note_on_c, 0, 75, 0
2, 81911, Note_on_c, 0, 78, 34
2, 81918, Note_on_c, 0, 63, 31
2, 81919, Note_on_c, 0, 66, 21
2, 81921, Note_on_c, 0, 56, 30
2, 81922, Note_on_c, 0, 73, 23
2, 81923, Note_on_c, 0, 61, 25
2, 81933, Note_on_c, 0, 66, 0
2, 81934, Note_on_c, 0, 61, 0
2, 81937, Note_on_c, 0, 73, 0
2, 81941, Note_on_c, 0, 78, 0
2, 81941, Note_on_c, 0, 63, 0
2, 81942, Note_on_c, 0, 56, 0
2, 81970, Note_on_c, 0, 80, 54
2, 81971, Note_on_c, 0, 75, 47
2, 81972, Note_on_c, 0, 68, 39
2, 81975, Note_on_c, 0, 63, 29
2, 81978, Control_c, 0, 64, 127
2, 81988, Note_on_c, 0, 68, 0
2, 81991, Note_on_c, 0, 63, 0
2, 81996, Note_on_c, 0, 80, 0
2, 81998, Note_on_c, 0, 75, 0
2, 82027, Note_on_c, 0, 82, 69
2, 82029, Note_on_c, 0, 70, 65
2, 82030, Note_on_c, 0, 56, 39
2, 82030, Note_on_c, 0, 61, 35
2, 82031, Note_on_c, 0, 63, 36
2, 82052, Note_on_c, 0, 63, 0
2, 82052, Note_on_c, 0, 56, 0
2, 82055, Note_on_c, 0, 70, 0
2, 82057, Note_on_c, 0, 82, 0
2, 82059, Note_on_c, 0, 61, 0
2, 82085, Note_on_c, 0, 63, 34
2, 82085, Note_on_c, 0, 62, 44
2, 82086, Control_c, 0, 64, 0
2, 82087, Note_on_c, 0, 82, 57
2, 82088, Note_on_c, 0, 57, 62
2, 82088, Note_on_c, 0, 70, 44
2, 82089, Note_on_c, 0, 67, 62
2, 82091, Note_on_c, 0, 75, 48
2, 82095, Note_on_c, 0, 78, 39
2, 82096, Note_on_c, 0, 70, 0
2, 82096, Note_on_c, 0, 71, 65
2, 82101, Note_on_c, 0, 83, 54
2, 82102, Note_on_c, 0, 82, 0
2, 82112, Note_on_c, 0, 75, 0
2, 82132, Control_c, 0, 64, 127
2, 82144, Note_on_c, 0, 79, 24
2, 82164, Note_on_c, 0, 79, 0
2, 82170, Note_on_c, 0, 78, 0
2, 82174, Note_on_c, 0, 83, 0
2, 82175, Note_on_c, 0, 67, 0
2, 82176, Note_on_c, 0, 71, 0
2, 82181, Note_on_c, 0, 57, 0
2, 82182, Note_on_c, 0, 62, 0
2, 82182, Note_on_c, 0, 63, 0
2, 82183, Control_c, 0, 64, 0
2, 82197, Control_c, 0, 64, 127
2, 82203, Note_on_c, 0, 81, 60
2, 82206, Note_on_c, 0, 63, 44
2, 82206, Note_on_c, 0, 57, 47
2, 82207, Note_on_c, 0, 67, 57
2, 82207, Note_on_c, 0, 62, 53
2, 82207, Note_on_c, 0, 77, 60
2, 82209, Note_on_c, 0, 69, 59
2, 82274, Note_on_c, 0, 81, 0
2, 82279, Note_on_c, 0, 77, 0
2, 82284, Note_on_c, 0, 67, 0
2, 82287, Note_on_c, 0, 69, 0
2, 82292, Note_on_c, 0, 62, 0
2, 82295, Note_on_c, 0, 57, 0
2, 82347, Note_on_c, 0, 63, 0
2, 82378, Note_on_c, 0, 63, 57
2, 82379, Note_on_c, 0, 74, 59
2, 82379, Note_on_c, 0, 65, 68
2, 82380, Note_on_c, 0, 77, 58
2, 82382, Note_on_c, 0, 62, 53
2, 82387, Note_on_c, 0, 57, 38
2, 82401, Control_c, 0, 64, 0
2, 82403, Note_on_c, 0, 62, 0
2, 82413, Note_on_c, 0, 63, 0
2, 82419, Note_on_c, 0, 65, 0
2, 82420, Note_on_c, 0, 57, 0
2, 82422, Control_c, 0, 64, 127
2, 82440, Note_on_c, 0, 77, 0
2, 82440, Note_on_c, 0, 71, 53
2, 82441, Note_on_c, 0, 74, 0
2, 82464, Note_on_c, 0, 71, 0
2, 82506, Note_on_c, 0, 59, 44
2, 82533, Note_on_c, 0, 59, 0
2, 82555, Control_c, 0, 64, 0
2, 82562, Note_on_c, 0, 71, 62
2, 82562, Note_on_c, 0, 59, 53
2, 82563, Note_on_c, 0, 52, 51
2, 82564, Note_on_c, 0, 62, 57
2, 82566, Note_on_c, 0, 67, 55
2, 82627, Note_on_c, 0, 71, 0
2, 82644, Note_on_c, 0, 67, 0
2, 82659, Note_on_c, 0, 62, 0
2, 82676, Note_on_c, 0, 70, 39
2, 82680, Note_on_c, 0, 58, 31
2, 82680, Note_on_c, 0, 66, 29
2, 82698, Note_on_c, 0, 59, 0
2, 82725, Note_on_c, 0, 66, 0
2, 82730, Note_on_c, 0, 70, 0
2, 82731, Note_on_c, 0, 58, 0
2, 82746, Note_on_c, 0, 60, 54
2, 82747, Note_on_c, 0, 66, 54
2, 82749, Note_on_c, 0, 72, 58
2, 82750, Note_on_c, 0, 62, 46
2, 82829, Note_on_c, 0, 62, 0
2, 82841, Note_on_c, 0, 66, 0
2, 82850, Note_on_c, 0, 72, 0
2, 82860, Note_on_c, 0, 60, 0
2, 82861, Note_on_c, 0, 62, 44
2, 82867, Note_on_c, 0, 69, 38
2, 82867, Note_on_c, 0, 66, 34
2, 82868, Note_on_c, 0, 57, 40
2, 82930, Note_on_c, 0, 62, 0
2, 82933, Note_on_c, 0, 66, 0
2, 82938, Note_on_c, 0, 69, 0
2, 82981, Note_on_c, 0, 71, 66
2, 82984, Note_on_c, 0, 67, 64
2, 82984, Note_on_c, 0, 62, 55
2, 82985, Note_on_c, 0, 57, 0
2, 82986, Note_on_c, 0, 59, 66
2, 83067, Note_on_c, 0, 67, 0
2, 83075, Note_on_c, 0, 62, 0
2, 83099, Note_on_c, 0, 71, 0
2, 83109, Note_on_c, 0, 62, 45
2, 83110, Note_on_c, 0, 67, 52
2, 83111, Note_on_c, 0, 55, 57
2, 83124, Note_on_c, 0, 59, 0
2, 83174, Note_on_c, 0, 62, 0
2, 83184, Note_on_c, 0, 67, 0
2, 83228, Note_on_c, 0, 55, 0
2, 83228, Note_on_c, 0, 69, 66
2, 83229, Note_on_c, 0, 57, 58
2, 83230, Note_on_c, 0, 62, 55
2, 83284, Note_on_c, 0, 52, 0
2, 83289, Control_c, 0, 64, 127
2, 83313, Note_on_c, 0, 62, 0
2, 83336, Note_on_c, 0, 69, 0
2, 83352, Note_on_c, 0, 54, 50
2, 83353, Note_on_c, 0, 62, 52
2, 83354, Note_on_c, 0, 66, 53
2, 83361, Control_c, 0, 64, 0
2, 83365, Note_on_c, 0, 57, 0
2, 83392, Note_on_c, 0, 66, 0
2, 83394, Note_on_c, 0, 62, 0
2, 83397, Control_c, 0, 64, 127
2, 83462, Control_c, 0, 64, 0
2, 83473, Note_on_c, 0, 61, 60
2, 83474, Note_on_c, 0, 54, 0
2, 83474, Note_on_c, 0, 58, 60
2, 83474, Note_on_c, 0, 67, 59
2, 83477, Note_on_c, 0, 64, 47
2, 83477, Note_on_c, 0, 55, 68
2, 83620, Note_on_c, 0, 64, 0
2, 83775, Note_on_c, 0, 61, 0
2, 83782, Note_on_c, 0, 58, 0
2, 83802, Note_on_c, 0, 67, 0
2, 83808, Note_on_c, 0, 55, 0
2, 83836, Note_on_c, 0, 55, 43
2, 83837, Note_on_c, 0, 67, 57
2, 83839, Note_on_c, 0, 57, 36
2, 83841, Note_on_c, 0, 63, 50
2, 83846, Note_on_c, 0, 60, 30
2, 83909, Note_on_c, 0, 67, 0
2, 83923, Note_on_c, 0, 66, 60
2, 83924, Note_on_c, 0, 54, 36
2, 83928, Note_on_c, 0, 60, 0
2, 83942, Note_on_c, 0, 57, 0
2, 83951, Note_on_c, 0, 55, 0
2, 83953, Note_on_c, 0, 63, 0
2, 83967, Note_on_c, 0, 66, 0
2, 84002, Note_on_c, 0, 66, 45
2, 84004, Note_on_c, 0, 63, 48
2, 84006, Note_on_c, 0, 69, 61
2, 84006, Note_on_c, 0, 60, 58
2, 84007, Note_on_c, 0, 57, 63
2, 84012, Note_on_c, 0, 54, 0
2, 84055, Note_on_c, 0, 66, 0
2, 84081, Note_on_c, 0, 60, 0
2, 84093, Note_on_c, 0, 69, 0
2, 84097, Note_on_c, 0, 66, 40
2, 84101, Note_on_c, 0, 54, 32
2, 84109, Note_on_c, 0, 57, 0
2, 84126, Note_on_c, 0, 63, 0
2, 84148, Note_on_c, 0, 66, 0
2, 84188, Note_on_c, 0, 63, 59
2, 84190, Note_on_c, 0, 67, 54
2, 84191, Note_on_c, 0, 54, 0
2, 84191, Note_on_c, 0, 55, 55
2, 84192, Note_on_c, 0, 60, 55
2, 84211, Note_on_c, 0, 60, 0
2, 84218, Note_on_c, 0, 67, 0
2, 84223, Note_on_c, 0, 63, 0
2, 84228, Control_c, 0, 64, 127
2, 84291, Note_on_c, 0, 55, 0
2, 84298, Note_on_c, 0, 65, 64
2, 84299, Note_on_c, 0, 72, 68
2, 84299, Note_on_c, 0, 57, 59
2, 84302, Note_on_c, 0, 60, 64
2, 84305, Note_on_c, 0, 69, 42
2, 84312, Control_c, 0, 64, 0
2, 84322, Control_c, 0, 64, 127
2, 84334, Note_on_c, 0, 69, 0
2, 84345, Note_on_c, 0, 57, 0
2, 84350, Note_on_c, 0, 60, 0
2, 84354, Note_on_c, 0, 65, 0
2, 84365, Note_on_c, 0, 72, 0
2, 84393, Note_on_c, 0, 51, 54
2, 84398, Note_on_c, 0, 70, 59
2, 84452, Note_on_c, 0, 70, 0
2, 84452, Note_on_c, 0, 51, 0
2, 84471, Control_c, 0, 64, 0
2, 84471, Note_on_c, 0, 71, 54
2, 84472, Note_on_c, 0, 50, 55
2, 84473, Note_on_c, 0, 60, 55
2, 84474, Note_on_c, 0, 57, 59
2, 84475, Note_on_c, 0, 65, 57
2, 84582, Note_on_c, 0, 60, 0
2, 84591, Control_c, 0, 64, 127
2, 84630, Note_on_c, 0, 65, 0
2, 84632, Note_on_c, 0, 57, 0
2, 84645, Note_on_c, 0, 71, 0
2, 84659, Note_on_c, 0, 57, 36
2, 84662, Note_on_c, 0, 60, 43
2, 84666, Note_on_c, 0, 69, 55
2, 84666, Note_on_c, 0, 65, 49
2, 84670, Note_on_c, 0, 53, 25
2, 84679, Note_on_c, 0, 65, 0
2, 84684, Note_on_c, 0, 60, 0
2, 84692, Note_on_c, 0, 69, 0
2, 84693, Note_on_c, 0, 57, 0
2, 84703, Note_on_c, 0, 53, 0
2, 84724, Control_c, 0, 64, 0
2, 84734, Note_on_c, 0, 65, 64
2, 84735, Note_on_c, 0, 72, 66
2, 84738, Note_on_c, 0, 57, 32
2, 84738, Note_on_c, 0, 60, 38
2, 84739, Note_on_c, 0, 53, 22
2, 84781, Control_c, 0, 64, 127
2, 84830, Note_on_c, 0, 60, 0
2, 84838, Note_on_c, 0, 57, 0
2, 84854, Note_on_c, 0, 53, 0
2, 84857, Note_on_c, 0, 50, 0
2, 84867, Note_on_c, 0, 72, 0
2, 84882, Note_on_c, 0, 65, 0
2, 84904, Note_on_c, 0, 70, 52
2, 84943, Note_on_c, 0, 70, 0
2, 84957, Control_c, 0, 64, 0
2, 84970, Note_on_c, 0, 71, 46
2, 84971, Note_on_c, 0, 59, 47
2, 84971, Note_on_c, 0, 64, 49
2, 84971, Note_on_c, 0, 56, 31
2, 84972, Note_on_c, 0, 68, 31
2, 84973, Note_on_c, 0, 49, 32
2, 85051, Note_on_c, 0, 59, 0
2, 85058, Note_on_c, 0, 64, 0
2, 85060, Note_on_c, 0, 69, 33
2, 85061, Note_on_c, 0, 71, 0
2, 85071, Note_on_c, 0, 68, 0
2, 85073, Note_on_c, 0, 69, 0
2, 85079, Note_on_c, 0, 56, 0
2, 85082, Note_on_c, 0, 49, 0
2, 85088, Control_c, 0, 64, 127
2, 85117, Control_c, 0, 64, 0
2, 85146, Note_on_c, 0, 68, 53
2, 85148, Note_on_c, 0, 49, 32
2, 85148, Note_on_c, 0, 72, 55
2, 85148, Note_on_c, 0, 56, 27
2, 85149, Note_on_c, 0, 59, 37
2, 85162, Note_on_c, 0, 59, 0
2, 85169, Note_on_c, 0, 72, 0
2, 85170, Note_on_c, 0, 56, 0
2, 85172, Note_on_c, 0, 49, 0
2, 85172, Note_on_c, 0, 68, 0
2, 85201, Control_c, 0, 64, 127
2, 85244, Control_c, 0, 64, 0
2, 85262, Note_on_c, 0, 71, 44
2, 85264, Note_on_c, 0, 68, 31
2, 85265, Note_on_c, 0, 64, 44
2, 85266, Note_on_c, 0, 59, 35
2, 85267, Note_on_c, 0, 49, 36
2, 85267, Note_on_c, 0, 56, 36
2, 85281, Note_on_c, 0, 59, 0
2, 85289, Note_on_c, 0, 64, 0
2, 85297, Note_on_c, 0, 68, 0
2, 85299, Control_c, 0, 64, 127
2, 85302, Note_on_c, 0, 71, 0
2, 85306, Note_on_c, 0, 56, 0
2, 85307, Note_on_c, 0, 49, 0
2, 85372, Control_c, 0, 64, 0
2, 85380, Note_on_c, 0, 71, 49
2, 85380, Note_on_c, 0, 48, 34
2, 85380, Note_on_c, 0, 76, 39
2, 85381, Note_on_c, 0, 64, 42
2, 85386, Note_on_c, 0, 59, 20
2, 85386, Note_on_c, 0, 55, 42
2, 85415, Control_c, 0, 64, 127
2, 85439, Note_on_c, 0, 64, 0
2, 85451, Note_on_c, 0, 71, 0
2, 85478, Note_on_c, 0, 55, 0
2, 85479, Note_on_c, 0, 59, 0
2, 85550, Note_on_c, 0, 76, 0
2, 85560, Note_on_c, 0, 71, 49
2, 85560, Note_on_c, 0, 68, 35
2, 85560, Note_on_c, 0, 64, 50
2, 85562, Note_on_c, 0, 56, 39
2, 85568, Note_on_c, 0, 60, 45
2, 85615, Control_c, 0, 64, 0
2, 85653, Control_c, 0, 64, 127
2, 85682, Note_on_c, 0, 60, 0
2, 85690, Note_on_c, 0, 64, 0
2, 85699, Note_on_c, 0, 68, 0
2, 85706, Note_on_c, 0, 48, 0
2, 85713, Note_on_c, 0, 71, 0
2, 85729, Note_on_c, 0, 56, 0
2, 85748, Note_on_c, 0, 69, 49
2, 85750, Note_on_c, 0, 64, 42
2, 85753, Note_on_c, 0, 48, 31
2, 85755, Note_on_c, 0, 57, 36
2, 85759, Control_c, 0, 64, 0
2, 85920, Control_c, 0, 64, 127
2, 85938, Note_on_c, 0, 48, 0
2, 85953, Note_on_c, 0, 64, 0
2, 85957, Note_on_c, 0, 69, 0
2, 85985, Note_on_c, 0, 48, 37
2, 85988, Note_on_c, 0, 64, 43
2, 85990, Note_on_c, 0, 68, 38
2, 85993, Control_c, 0, 64, 0
2, 85994, Note_on_c, 0, 56, 26
2, 86015, Note_on_c, 0, 64, 0
2, 86021, Note_on_c, 0, 57, 0
2, 86023, Note_on_c, 0, 56, 0
2, 86025, Note_on_c, 0, 68, 0
2, 86060, Control_c, 0, 64, 127
2, 86091, Control_c, 0, 64, 0
2, 86107, Note_on_c, 0, 64, 46
2, 86109, Note_on_c, 0, 67, 48
2, 86110, Note_on_c, 0, 55, 39
2, 86135, Note_on_c, 0, 64, 0
2, 86143, Note_on_c, 0, 48, 0
2, 86147, Control_c, 0, 64, 127
2, 86152, Note_on_c, 0, 67, 0
2, 86228, Note_on_c, 0, 48, 60
2, 86236, Note_on_c, 0, 55, 0
2, 86238, Note_on_c, 0, 48, 0
2, 86255, Control_c, 0, 64, 0
2, 86284, Note_on_c, 0, 87, 79
2, 86286, Note_on_c, 0, 75, 85
2, 86288, Note_on_c, 0, 82, 71
2, 86332, Note_on_c, 0, 82, 0
2, 86342, Note_on_c, 0, 75, 0
2, 86344, Note_on_c, 0, 87, 0
2, 86347, Note_on_c, 0, 76, 41
2, 86352, Note_on_c, 0, 88, 37
2, 86383, Note_on_c, 0, 76, 0
2, 86388, Note_on_c, 0, 88, 0
2, 86412, Note_on_c, 0, 88, 38
2, 86412, Note_on_c, 0, 76, 36
2, 86413, Note_on_c, 0, 64, 28
2, 86415, Note_on_c, 0, 60, 30
2, 86415, Note_on_c, 0, 57, 36
2, 86454, Note_on_c, 0, 88, 0
2, 86459, Note_on_c, 0, 76, 0
2, 86516, Note_on_c, 0, 64, 0
2, 86520, Note_on_c, 0, 60, 0
2, 86528, Note_on_c, 0, 57, 0
2, 86588, Note_on_c, 0, 87, 49
2, 86589, Note_on_c, 0, 64, 31
2, 86590, Note_on_c, 0, 57, 36
2, 86591, Note_on_c, 0, 60, 39
2, 86595, Note_on_c, 0, 75, 28
2, 86608, Note_on_c, 0, 75, 0
2, 86612, Note_on_c, 0, 64, 0
2, 86613, Note_on_c, 0, 60, 0
2, 86616, Note_on_c, 0, 87, 0
2, 86619, Note_on_c, 0, 57, 0
2, 86650, Control_c, 0, 64, 127
2, 86653, Note_on_c, 0, 89, 53
2, 86658, Note_on_c, 0, 77, 32
2, 86664, Note_on_c, 0, 60, 36
2, 86665, Note_on_c, 0, 64, 29
2, 86668, Note_on_c, 0, 57, 35
2, 86695, Note_on_c, 0, 64, 0
2, 86696, Note_on_c, 0, 57, 0
2, 86697, Note_on_c, 0, 60, 0
2, 86700, Note_on_c, 0, 89, 0
2, 86708, Note_on_c, 0, 77, 0
2, 86835, Note_on_c, 0, 64, 43
2, 86836, Note_on_c, 0, 58, 45
2, 86837, Note_on_c, 0, 88, 66
2, 86838, Note_on_c, 0, 61, 31
2, 86838, Note_on_c, 0, 76, 52
2, 86841, Note_on_c, 0, 55, 34
2, 86847, Control_c, 0, 64, 0
2, 86851, Note_on_c, 0, 61, 0
2, 86853, Note_on_c, 0, 76, 0
2, 86853, Note_on_c, 0, 64, 0
2, 86856, Note_on_c, 0, 55, 0
2, 86858, Note_on_c, 0, 58, 0
2, 86859, Note_on_c, 0, 88, 0
2, 86893, Control_c, 0, 64, 127
2, 86948, Control_c, 0, 64, 0
2, 86949, Note_on_c, 0, 61, 58
2, 86950, Note_on_c, 0, 58, 56
2, 86952, Note_on_c, 0, 64, 58
2, 86952, Note_on_c, 0, 89, 66
2, 86953, Note_on_c, 0, 78, 37
2, 86955, Note_on_c, 0, 55, 54
2, 86958, Note_on_c, 0, 87, 37
2, 86958, Note_on_c, 0, 88, 49
2, 86959, Note_on_c, 0, 76, 45
2, 86959, Note_on_c, 0, 77, 33
2, 86968, Note_on_c, 0, 88, 0
2, 86994, Control_c, 0, 64, 127
2, 86995, Note_on_c, 0, 76, 0
2, 87006, Note_on_c, 0, 89, 0
2, 87008, Note_on_c, 0, 77, 0
2, 87021, Note_on_c, 0, 55, 0
2, 87024, Note_on_c, 0, 64, 0
2, 87024, Note_on_c, 0, 78, 0
2, 87026, Note_on_c, 0, 87, 0
2, 87030, Note_on_c, 0, 58, 0
2, 87033, Note_on_c, 0, 61, 0
2, 87066, Note_on_c, 0, 58, 60
2, 87066, Note_on_c, 0, 61, 62
2, 87066, Note_on_c, 0, 64, 68
2, 87067, Note_on_c, 0, 90, 65
2, 87067, Note_on_c, 0, 55, 67
2, 87070, Note_on_c, 0, 78, 65
2, 87101, Note_on_c, 0, 55, 0
2, 87107, Note_on_c, 0, 64, 0
2, 87116, Note_on_c, 0, 58, 0
2, 87117, Note_on_c, 0, 61, 0
2, 87121, Note_on_c, 0, 78, 0
2, 87124, Note_on_c, 0, 90, 0
2, 87127, Control_c, 0, 64, 0
2, 87132, Note_on_c, 0, 61, 63
2, 87132, Note_on_c, 0, 58, 69
2, 87133, Note_on_c, 0, 64, 68
2, 87135, Note_on_c, 0, 55, 68
2, 87135, Note_on_c, 0, 91, 70
2, 87138, Note_on_c, 0, 79, 60
2, 87140, Note_on_c, 0, 89, 59
2, 87149, Note_on_c, 0, 89, 0
2, 87151, Control_c, 0, 64, 127
2, 87196, Note_on_c, 0, 55, 0
2, 87196, Note_on_c, 0, 91, 0
2, 87205, Note_on_c, 0, 64, 0
2, 87207, Note_on_c, 0, 79, 0
2, 87209, Note_on_c, 0, 58, 0
2, 87210, Note_on_c, 0, 61, 0
2, 87235, Control_c, 0, 64, 0
2, 87244, Note_on_c, 0, 92, 74
2, 87244, Note_on_c, 0, 58, 59
2, 87244, Note_on_c, 0, 61, 62
2, 87245, Note_on_c, 0, 80, 69
2, 87245, Note_on_c, 0, 64, 65
2, 87249, Note_on_c, 0, 55, 55
2, 87255, Note_on_c, 0, 90, 26
2, 87257, Control_c, 0, 64, 127
2, 87258, Note_on_c, 0, 55, 0
2, 87275, Note_on_c, 0, 64, 0
2, 87277, Note_on_c, 0, 80, 0
2, 87279, Note_on_c, 0, 58, 0
2, 87284, Note_on_c, 0, 92, 0
2, 87286, Note_on_c, 0, 61, 0
2, 87310, Note_on_c, 0, 90, 0
2, 87355, Control_c, 0, 64, 0
2, 87361, Note_on_c, 0, 93, 90
2, 87362, Note_on_c, 0, 81, 80
2, 87362, Note_on_c, 0, 86, 87
2, 87364, Note_on_c, 0, 66, 75
2, 87365, Note_on_c, 0, 62, 67
2, 87366, Note_on_c, 0, 57, 68
2, 87392, Control_c, 0, 64, 127
2, 87446, Note_on_c, 0, 93, 0
2, 87454, Note_on_c, 0, 81, 0
2, 87456, Note_on_c, 0, 62, 0
2, 87456, Note_on_c, 0, 86, 0
2, 87460, Note_on_c, 0, 57, 0
2, 87479, Note_on_c, 0, 66, 0
2, 87482, Note_on_c, 0, 62, 24
2, 87485, Note_on_c, 0, 86, 53
2, 87485, Note_on_c, 0, 79, 44
2, 87486, Note_on_c, 0, 91, 41
2, 87498, Note_on_c, 0, 79, 0
2, 87504, Note_on_c, 0, 91, 0
2, 87507, Note_on_c, 0, 86, 0
2, 87509, Note_on_c, 0, 62, 0
2, 87548, Control_c, 0, 64, 0
2, 87553, Note_on_c, 0, 66, 62
2, 87555, Note_on_c, 0, 94, 72
2, 87556, Note_on_c, 0, 62, 57
2, 87558, Note_on_c, 0, 82, 59
2, 87558, Note_on_c, 0, 57, 51
2, 87569, Note_on_c, 0, 57, 0
2, 87577, Note_on_c, 0, 82, 0
2, 87577, Control_c, 0, 64, 127
2, 87581, Note_on_c, 0, 94, 0
2, 87582, Note_on_c, 0, 66, 0
2, 87625, Note_on_c, 0, 62, 0
2, 87671, Note_on_c, 0, 66, 50
2, 87671, Note_on_c, 0, 90, 42
2, 87672, Note_on_c, 0, 78, 36
2, 87677, Note_on_c, 0, 62, 33
2, 87681, Note_on_c, 0, 57, 24
2, 87685, Control_c, 0, 64, 0
2, 87690, Note_on_c, 0, 57, 0
2, 87690, Note_on_c, 0, 78, 0
2, 87691, Note_on_c, 0, 62, 0
2, 87697, Control_c, 0, 64, 127
2, 87698, Note_on_c, 0, 66, 0
2, 87700, Note_on_c, 0, 90, 0
2, 87783, Note_on_c, 0, 64, 54
2, 87785, Note_on_c, 0, 60, 62
2, 87786, Note_on_c, 0, 93, 77
2, 87787, Note_on_c, 0, 81, 57
2, 87787, Note_on_c, 0, 86, 71
2, 87789, Note_on_c, 0, 59, 55
2, 87791, Control_c, 0, 64, 0
2, 87806, Note_on_c, 0, 86, 0
2, 87807, Note_on_c, 0, 81, 0
2, 87810, Note_on_c, 0, 64, 0
2, 87811, Note_on_c, 0, 59, 0
2, 87812, Note_on_c, 0, 60, 0
2, 87814, Note_on_c, 0, 93, 0
2, 87846, Control_c, 0, 64, 127
2, 87899, Control_c, 0, 64, 0
2, 87910, Note_on_c, 0, 64, 48
2, 87911, Note_on_c, 0, 91, 65
2, 87912, Note_on_c, 0, 60, 53
2, 87913, Note_on_c, 0, 79, 54
2, 87913, Note_on_c, 0, 59, 40
2, 87915, Note_on_c, 0, 86, 63
2, 87926, Control_c, 0, 64, 127
2, 87975, Note_on_c, 0, 91, 0
2, 87984, Note_on_c, 0, 86, 0
2, 87988, Note_on_c, 0, 59, 0
2, 87991, Note_on_c, 0, 79, 0
2, 87993, Note_on_c, 0, 60, 0
2, 87996, Note_on_c, 0, 64, 0
2, 88056, Control_c, 0, 64, 0
2, 88071, Note_on_c, 0, 90, 39
2, 88076, Note_on_c, 0, 60, 44
2, 88076, Note_on_c, 0, 64, 31
2, 88077, Note_on_c, 0, 59, 33
2, 88078, Note_on_c, 0, 78, 32
2, 88087, Control_c, 0, 64, 127
2, 88091, Note_on_c, 0, 78, 0
2, 88092, Note_on_c, 0, 90, 0
2, 88092, Note_on_c, 0, 59, 0
2, 88096, Note_on_c, 0, 64, 0
2, 88099, Note_on_c, 0, 60, 0
2, 88155, Control_c, 0, 64, 0
2, 88193, Control_c, 0, 64, 127
2, 88199, Note_on_c, 0, 88, 43
2, 88200, Note_on_c, 0, 64, 29
2, 88201, Note_on_c, 0, 76, 48
2, 88202, Note_on_c, 0, 83, 35
2, 88204, Note_on_c, 0, 60, 37
2, 88205, Note_on_c, 0, 59, 29
2, 88210, Note_on_c, 0, 88, 0
2, 88213, Note_on_c, 0, 83, 0
2, 88213, Note_on_c, 0, 64, 0
2, 88217, Note_on_c, 0, 60, 0
2, 88218, Note_on_c, 0, 59, 0
2, 88224, Note_on_c, 0, 76, 0
2, 88325, Note_on_c, 0, 71, 42
2, 88325, Note_on_c, 0, 74, 40
2, 88326, Note_on_c, 0, 64, 42
2, 88327, Note_on_c, 0, 67, 48
2, 88328, Note_on_c, 0, 59, 35
2, 88338, Control_c, 0, 64, 0
2, 88380, Note_on_c, 0, 64, 0
2, 88381, Note_on_c, 0, 67, 0
2, 88383, Note_on_c, 0, 74, 0
2, 88384, Note_on_c, 0, 59, 0
2, 88393, Note_on_c, 0, 71, 0
2, 88396, Note_on_c, 0, 57, 33
2, 88425, Note_on_c, 0, 57, 0
2, 88441, Note_on_c, 0, 59, 37
2, 88442, Note_on_c, 0, 74, 37
2, 88443, Note_on_c, 0, 64, 43
2, 88444, Note_on_c, 0, 67, 46
2, 88445, Note_on_c, 0, 71, 41
2, 88508, Note_on_c, 0, 71, 0
2, 88508, Note_on_c, 0, 59, 0
2, 88510, Note_on_c, 0, 72, 47
2, 88511, Note_on_c, 0, 57, 33
2, 88520, Note_on_c, 0, 74, 0
2, 88525, Note_on_c, 0, 67, 0
2, 88528, Note_on_c, 0, 64, 0
2, 88539, Note_on_c, 0, 72, 0
2, 88560, Note_on_c, 0, 57, 0
2, 88582, Note_on_c, 0, 75, 60
2, 88586, Note_on_c, 0, 67, 31
2, 88589, Note_on_c, 0, 64, 36
2, 88590, Note_on_c, 0, 59, 33
2, 88649, Note_on_c, 0, 67, 0
2, 88656, Note_on_c, 0, 64, 0
2, 88668, Note_on_c, 0, 75, 0
2, 88676, Note_on_c, 0, 71, 47
2, 88677, Note_on_c, 0, 59, 0
2, 88731, Note_on_c, 0, 71, 0
2, 88756, Note_on_c, 0, 74, 58
2, 88760, Note_on_c, 0, 67, 48
2, 88761, Note_on_c, 0, 48, 46
2, 88764, Note_on_c, 0, 63, 29
2, 88764, Note_on_c, 0, 58, 46
2, 88822, Note_on_c, 0, 58, 0
2, 88843, Control_c, 0, 64, 127
2, 88876, Note_on_c, 0, 59, 45
2, 88900, Note_on_c, 0, 48, 0
2, 88904, Note_on_c, 0, 59, 0
2, 88932, Control_c, 0, 64, 0
2, 88936, Note_on_c, 0, 62, 67
2, 88975, Control_c, 0, 64, 127
2, 89007, Note_on_c, 0, 63, 0
2, 89018, Note_on_c, 0, 67, 0
2, 89020, Note_on_c, 0, 62, 0
2, 89031, Control_c, 0, 64, 0
2, 89050, Note_on_c, 0, 60, 56
2, 89062, Control_c, 0, 64, 127
2, 89136, Control_c, 0, 64, 0
2, 89137, Note_on_c, 0, 60, 0
2, 89157, Note_on_c, 0, 74, 0
2, 89163, Control_c, 0, 64, 127
2, 89164, Note_on_c, 0, 72, 36
2, 89166, Note_on_c, 0, 63, 23
2, 89179, Note_on_c, 0, 63, 0
2, 89198, Note_on_c, 0, 72, 0
2, 89225, Note_on_c, 0, 54, 26
2, 89263, Note_on_c, 0, 54, 0
2, 89281, Control_c, 0, 64, 0
2, 89285, Note_on_c, 0, 75, 60
2, 89288, Note_on_c, 0, 47, 51
2, 89320, Control_c, 0, 64, 127
2, 89467, Note_on_c, 0, 66, 38
2, 89469, Control_c, 0, 64, 0
2, 89469, Note_on_c, 0, 57, 36
2, 89470, Note_on_c, 0, 63, 29
2, 89493, Control_c, 0, 64, 127
2, 89500, Note_on_c, 0, 57, 0
2, 89518, Note_on_c, 0, 75, 0
2, 89535, Note_on_c, 0, 47, 0
2, 89538, Note_on_c, 0, 63, 0
2, 89543, Note_on_c, 0, 66, 0
2, 89615, Note_on_c, 0, 71, 68
2, 89694, Note_on_c, 0, 71, 0
2, 89715, Note_on_c, 0, 40, 77
2, 89715, Note_on_c, 0, 28, 76
2, 89718, Note_on_c, 0, 76, 92
2, 89731, Control_c, 0, 64, 0
2, 89767, Control_c, 0, 64, 127
2, 89789, Note_on_c, 0, 28, 0
2, 89812, Note_on_c, 0, 40, 0
2, 89848, Note_on_c, 0, 76, 0
2, 89945, Note_on_c, 0, 78, 55
2, 89947, Note_on_c, 0, 83, 62
2, 89947, Note_on_c, 0, 71, 65
2, 89947, Note_on_c, 0, 76, 67
2, 89949, Note_on_c, 0, 54, 55
2, 89951, Note_on_c, 0, 64, 60
2, 89952, Note_on_c, 0, 59, 58
2, 90039, Note_on_c, 0, 71, 0
2, 90042, Note_on_c, 0, 76, 0
2, 90050, Note_on_c, 0, 59, 0
2, 90057, Note_on_c, 0, 64, 0
2, 90060, Note_on_c, 0, 54, 0
2, 90067, Note_on_c, 0, 78, 0
2, 90082, Note_on_c, 0, 83, 0
2, 90247, Note_on_c, 0, 95, 66
2, 90248, Note_on_c, 0, 90, 50
2, 90248, Note_on_c, 0, 88, 64
2, 90249, Note_on_c, 0, 59, 49
2, 90250, Note_on_c, 0, 52, 51
2, 90253, Control_c, 0, 64, 0
2, 90342, Control_c, 0, 64, 127
2, 90363, Note_on_c, 0, 88, 0
2, 90370, Note_on_c, 0, 90, 0
2, 90412, Note_on_c, 0, 95, 0
2, 90425, Note_on_c, 0, 90, 50
2, 90430, Note_on_c, 0, 83, 45
2, 90431, Note_on_c, 0, 64, 37
2, 90458, Note_on_c, 0, 90, 0
2, 90464, Note_on_c, 0, 83, 0
2, 90477, Note_on_c, 0, 59, 0
2, 90543, Note_on_c, 0, 59, 31
2, 90561, Note_on_c, 0, 64, 0
2, 90581, Note_on_c, 0, 59, 0
2, 90606, Note_on_c, 0, 66, 32
2, 90607, Note_on_c, 0, 71, 41
2, 90653, Note_on_c, 0, 52, 0
2, 90697, Note_on_c, 0, 71, 0
2, 90711, Note_on_c, 0, 66, 0
2, 90725, Control_c, 0, 64, 0
2, 90729, Note_on_c, 0, 52, 58
2, 90785, Control_c, 0, 64, 127
2, 90826, Control_c, 0, 64, 0
2, 90842, Note_on_c, 0, 59, 36
2, 90872, Control_c, 0, 64, 127
2, 90898, Control_c, 0, 64, 0
2, 90907, Note_on_c, 0, 59, 0
2, 90913, Note_on_c, 0, 60, 35
2, 90966, Control_c, 0, 64, 127
2, 91026, Note_on_c, 0, 59, 43
2, 91038, Control_c, 0, 64, 0
2, 91067, Control_c, 0, 64, 127
2, 91106, Note_on_c, 0, 52, 0
2, 91140, Note_on_c, 0, 59, 0
2, 91140, Note_on_c, 0, 52, 38
2, 91165, Control_c, 0, 64, 0
2, 91197, Control_c, 0, 64, 127
2, 91258, Note_on_c, 0, 60, 0
2, 91260, Note_on_c, 0, 59, 43
2, 91378, Note_on_c, 0, 60, 63
2, 91389, Note_on_c, 0, 59, 0
2, 91421, Note_on_c, 0, 60, 0
2, 91428, Control_c, 0, 64, 0
2, 91442, Note_on_c, 0, 60, 54
2, 91469, Control_c, 0, 64, 127
2, 91559, Note_on_c, 0, 59, 44
2, 91585, Note_on_c, 0, 60, 0
2, 91604, Note_on_c, 0, 52, 0
2, 91734, Note_on_c, 0, 59, 0
2, 91742, Note_on_c, 0, 52, 45
2, 91767, Control_c, 0, 64, 0
2, 91801, Note_on_c, 0, 59, 41
2, 91825, Control_c, 0, 64, 127
2, 91863, Control_c, 0, 64, 0
2, 91868, Note_on_c, 0, 64, 46
2, 91875, Note_on_c, 0, 60, 35
2, 91892, Note_on_c, 0, 59, 0
2, 91900, Note_on_c, 0, 64, 0
2, 91929, Note_on_c, 0, 71, 44
2, 91969, Control_c, 0, 64, 127
2, 91972, Note_on_c, 0, 71, 0
2, 91987, Note_on_c, 0, 72, 65
2, 92008, Note_on_c, 0, 72, 0
2, 92037, Control_c, 0, 64, 0
2, 92043, Note_on_c, 0, 78, 74
2, 92051, Note_on_c, 0, 59, 27
2, 92073, Control_c, 0, 64, 127
2, 92080, Note_on_c, 0, 52, 0
2, 92092, Note_on_c, 0, 78, 0
2, 92104, Note_on_c, 0, 81, 80
2, 92148, Note_on_c, 0, 81, 0
2, 92152, Control_c, 0, 64, 0
2, 92153, Note_on_c, 0, 59, 0
2, 92160, Note_on_c, 0, 52, 44
2, 92161, Note_on_c, 0, 79, 51
2, 92181, Note_on_c, 0, 60, 0
2, 92191, Control_c, 0, 64, 127
2, 92267, Note_on_c, 0, 59, 60
2, 92330, Note_on_c, 0, 59, 0
2, 92336, Note_on_c, 0, 79, 0
2, 92336, Note_on_c, 0, 78, 57
2, 92343, Note_on_c, 0, 60, 44
2, 92345, Control_c, 0, 64, 0
2, 92386, Control_c, 0, 64, 127
2, 92456, Note_on_c, 0, 59, 36
2, 92459, Note_on_c, 0, 76, 33
2, 92479, Note_on_c, 0, 78, 0
2, 92518, Note_on_c, 0, 71, 46
2, 92535, Note_on_c, 0, 76, 0
2, 92537, Note_on_c, 0, 52, 0
2, 92579, Note_on_c, 0, 59, 0
2, 92579, Note_on_c, 0, 52, 42
2, 92603, Note_on_c, 0, 52, 0
2, 92643, Control_c, 0, 64, 0
2, 92645, Note_on_c, 0, 52, 37
2, 92659, Note_on_c, 0, 60, 0
2, 92672, Control_c, 0, 64, 127
2, 92722, Note_on_c, 0, 71, 0
2, 92757, Note_on_c, 0, 59, 24
2, 92822, Note_on_c, 0, 59, 0
2, 92827, Note_on_c, 0, 67, 29
2, 92828, Note_on_c, 0, 64, 24
2, 92828, Note_on_c, 0, 69, 34
2, 92835, Note_on_c, 0, 60, 17
2, 92838, Control_c, 0, 64, 0
2, 92886, Control_c, 0, 64, 127
2, 92951, Note_on_c, 0, 59, 32
2, 92981, Note_on_c, 0, 59, 0
2, 93066, Note_on_c, 0, 59, 28
2, 93072, Note_on_c, 0, 52, 0
2, 93118, Note_on_c, 0, 59, 0
2, 93125, Control_c, 0, 64, 0
2, 93127, Note_on_c, 0, 60, 0
2, 93127, Note_on_c, 0, 52, 35
2, 93158, Control_c, 0, 64, 127
2, 93218, Note_on_c, 0, 64, 0
2, 93227, Note_on_c, 0, 67, 0
2, 93235, Note_on_c, 0, 59, 25
2, 93238, Note_on_c, 0, 69, 0
2, 93303, Note_on_c, 0, 64, 38
2, 93305, Note_on_c, 0, 69, 34
2, 93305, Note_on_c, 0, 66, 39
2, 93306, Note_on_c, 0, 59, 0
2, 93313, Note_on_c, 0, 60, 24
2, 93315, Control_c, 0, 64, 0
2, 93351, Control_c, 0, 64, 127
2, 93414, Note_on_c, 0, 60, 0
2, 93425, Note_on_c, 0, 59, 19
2, 93433, Note_on_c, 0, 59, 0
2, 93441, Note_on_c, 0, 52, 0
2, 93469, Note_on_c, 0, 69, 0
2, 93471, Note_on_c, 0, 66, 0
2, 93479, Note_on_c, 0, 64, 0
2, 93542, Note_on_c, 0, 47, 32
2, 93598, Note_on_c, 0, 47, 0
2, 93609, Note_on_c, 0, 40, 26
2, 93616, Control_c, 0, 64, 0
2, 93645, Control_c, 0, 64, 127
2, 93787, Note_on_c, 0, 66, 25
2, 93789, Note_on_c, 0, 62, 34
2, 93790, Note_on_c, 0, 47, 33
2, 93790, Note_on_c, 0, 57, 26
2, 93806, Control_c, 0, 64, 0
2, 93835, Note_on_c, 0, 47, 0
2, 93846, Note_on_c, 0, 48, 31
2, 93900, Control_c, 0, 64, 127
2, 93943, Note_on_c, 0, 48, 0
2, 93964, Note_on_c, 0, 47, 29
2, 93978, Note_on_c, 0, 47, 0
2, 93989, Note_on_c, 0, 40, 0
2, 94086, Note_on_c, 0, 40, 32
2, 94086, Note_on_c, 0, 28, 28
2, 94090, Control_c, 0, 64, 0
2, 94104, Control_c, 0, 64, 127
2, 94127, Note_on_c, 0, 28, 0
2, 94147, Note_on_c, 0, 40, 0
2, 94442, Note_on_c, 0, 57, 0
2, 94447, Note_on_c, 0, 62, 0
2, 94503, Note_on_c, 0, 66, 0
2, 94516, Note_on_c, 0, 28, 49
2, 94520, Note_on_c, 0, 40, 33
2, 94896, Control_c, 0, 64, 0
2, 95338, Note_on_c, 0, 28, 0
2, 95346, Note_on_c, 0, 40, 0
2, 95346, End_track
3, 0, Start_track
3, 0, Title_t, "dougmck@pipeline.com.au"
3, 0, Program_c, 3, 73
3, 0, End_track
4, 0, Start_track
4, 0, Title_t, ""
4, 0, Program_c, 1, 32
4, 43200, Note_on_c, 1, 40, 51
4, 43380, Note_on_c, 1, 47, 68
4, 43383, Note_on_c, 1, 40, 0
4, 43575, Note_on_c, 1, 52, 92
4, 43585, Note_on_c, 1, 47, 0
4, 43863, Note_on_c, 1, 52, 0
4, 43868, Note_on_c, 1, 47, 74
4, 44040, Note_on_c, 1, 47, 0
4, 44041, Note_on_c, 1, 39, 77
4, 44340, Note_on_c, 1, 47, 74
4, 44525, Note_on_c, 1, 51, 79
4, 44527, Note_on_c, 1, 47, 0
4, 44818, Note_on_c, 1, 47, 75
4, 44836, Note_on_c, 1, 51, 0
4, 44852, Note_on_c, 1, 39, 0
4, 44998, Note_on_c, 1, 47, 0
4, 45000, Note_on_c, 1, 38, 80
4, 45312, Note_on_c, 1, 45, 89
4, 45325, Note_on_c, 1, 38, 0
4, 45482, Note_on_c, 1, 49, 85
4, 45488, Note_on_c, 1, 45, 0
4, 45781, Note_on_c, 1, 37, 76
4, 45798, Note_on_c, 1, 49, 0
4, 45941, Note_on_c, 1, 37, 0
4, 45953, Note_on_c, 1, 36, 80
4, 46265, Note_on_c, 1, 43, 82
4, 46267, Note_on_c, 1, 36, 0
4, 46443, Note_on_c, 1, 48, 70
4, 46527, Note_on_c, 1, 43, 0
4, 46750, Note_on_c, 1, 43, 87
4, 46759, Note_on_c, 1, 48, 0
4, 46924, Note_on_c, 1, 43, 0
4, 46927, Note_on_c, 1, 45, 91
4, 47229, Note_on_c, 1, 40, 79
4, 47233, Note_on_c, 1, 45, 0
4, 47404, Note_on_c, 1, 40, 0
4, 47408, Note_on_c, 1, 35, 77
4, 47696, Note_on_c, 1, 35, 0
4, 47708, Note_on_c, 1, 42, 83
4, 47892, Note_on_c, 1, 42, 0
4, 47895, Note_on_c, 1, 43, 87
4, 48180, Note_on_c, 1, 42, 82
4, 48189, Note_on_c, 1, 43, 0
4, 48355, Note_on_c, 1, 42, 0
4, 48358, Note_on_c, 1, 40, 74
4, 48667, Note_on_c, 1, 50, 90
4, 48677, Note_on_c, 1, 40, 0
4, 48834, Note_on_c, 1, 50, 0
4, 48834, Note_on_c, 1, 42, 82
4, 49146, Note_on_c, 1, 54, 79
4, 49221, Note_on_c, 1, 42, 0
4, 49322, Note_on_c, 1, 42, 79
4, 49323, Note_on_c, 1, 54, 0
4, 49621, Note_on_c, 1, 49, 83
4, 49630, Note_on_c, 1, 42, 0
4, 49802, Note_on_c, 1, 49, 0
4, 49810, Note_on_c, 1, 47, 75
4, 50104, Note_on_c, 1, 59, 88
4, 50158, Note_on_c, 1, 47, 0
4, 50279, Note_on_c, 1, 47, 90
4, 50284, Note_on_c, 1, 59, 0
4, 50580, Note_on_c, 1, 35, 82
4, 50591, Note_on_c, 1, 47, 0
4, 50754, Note_on_c, 1, 35, 0
4, 50759, Note_on_c, 1, 40, 91
4, 51059, Note_on_c, 1, 35, 79
4, 51065, Note_on_c, 1, 40, 0
4, 51242, Note_on_c, 1, 35, 0
4, 51243, Note_on_c, 1, 28, 79
4, 51540, Note_on_c, 1, 28, 0
4, 51545, Note_on_c, 1, 35, 77
4, 51722, Note_on_c, 1, 39, 82
4, 51732, Note_on_c, 1, 35, 0
4, 52027, Note_on_c, 1, 39, 0
4, 52028, Note_on_c, 1, 33, 69
4, 52202, Note_on_c, 1, 33, 0
4, 52202, Note_on_c, 1, 39, 78
4, 52503, Note_on_c, 1, 45, 82
4, 52522, Note_on_c, 1, 39, 0
4, 52650, Note_on_c, 1, 39, 23
4, 52683, Note_on_c, 1, 39, 0
4, 52684, Note_on_c, 1, 50, 84
4, 52687, Note_on_c, 1, 45, 0
4, 52990, Note_on_c, 1, 45, 84
4, 53004, Note_on_c, 1, 50, 0
4, 53168, Note_on_c, 1, 37, 75
4, 53169, Note_on_c, 1, 45, 0
4, 53465, Note_on_c, 1, 44, 77
4, 53478, Note_on_c, 1, 37, 0
4, 53579, Note_on_c, 1, 37, 60
4, 53594, Note_on_c, 1, 44, 0
4, 53605, Note_on_c, 1, 37, 0
4, 53636, Note_on_c, 1, 36, 63
4, 53945, Note_on_c, 1, 43, 80
4, 53948, Note_on_c, 1, 36, 0
4, 54123, Note_on_c, 1, 43, 0
4, 54124, Note_on_c, 1, 48, 68
4, 54420, Note_on_c, 1, 43, 75
4, 54421, Note_on_c, 1, 48, 0
4, 54599, Note_on_c, 1, 43, 0
4, 54600, Note_on_c, 1, 45, 74
4, 54904, Note_on_c, 1, 45, 0
4, 54904, Note_on_c, 1, 40, 71
4, 55081, Note_on_c, 1, 34, 71
4, 55084, Note_on_c, 1, 40, 0
4, 55385, Note_on_c, 1, 46, 83
4, 55485, Note_on_c, 1, 34, 0
4, 55510, Note_on_c, 1, 46, 0
4, 55517, Note_on_c, 1, 35, 64
4, 55545, Note_on_c, 1, 35, 0
4, 55572, Note_on_c, 1, 35, 73
4, 55869, Note_on_c, 1, 47, 74
4, 55986, Note_on_c, 1, 41, 70
4, 55992, Note_on_c, 1, 35, 0
4, 56022, Note_on_c, 1, 41, 0
4, 56031, Note_on_c, 1, 47, 0
4, 56040, Note_on_c, 1, 36, 83
4, 56291, Note_on_c, 1, 48, 24
4, 56306, Note_on_c, 1, 48, 0
4, 56313, Note_on_c, 1, 36, 0
4, 56463, Note_on_c, 1, 43, 80
4, 56466, Note_on_c, 1, 41, 72
4, 56472, Note_on_c, 1, 41, 0
4, 56595, Note_on_c, 1, 33, 92
4, 56596, Note_on_c, 1, 43, 0
4, 56629, Note_on_c, 1, 33, 0
4, 56640, Note_on_c, 1, 33, 78
4, 56827, Note_on_c, 1, 45, 89
4, 56907, Note_on_c, 1, 33, 0
4, 57009, Note_on_c, 1, 45, 0
4, 57013, Note_on_c, 1, 36, 87
4, 57298, Note_on_c, 1, 36, 0
4, 57305, Note_on_c, 1, 43, 84
4, 57481, Note_on_c, 1, 43, 0
4, 57485, Note_on_c, 1, 47, 88
4, 57786, Note_on_c, 1, 42, 76
4, 57796, Note_on_c, 1, 47, 0
4, 57955, Note_on_c, 1, 42, 0
4, 57966, Note_on_c, 1, 40, 88
4, 58258, Note_on_c, 1, 40, 0
4, 58264, Note_on_c, 1, 47, 85
4, 58445, Note_on_c, 1, 52, 87
4, 58456, Note_on_c, 1, 47, 0
4, 58743, Note_on_c, 1, 52, 0
4, 58749, Note_on_c, 1, 47, 80
4, 58926, Note_on_c, 1, 47, 0
4, 58928, Note_on_c, 1, 40, 38
4, 58948, Note_on_c, 1, 40, 0
4, 58984, Note_on_c, 1, 40, 79
4, 59040, Note_on_c, 1, 40, 51
4, 59172, Note_on_c, 1, 40, 0
4, 59220, Note_on_c, 1, 47, 68
4, 59223, Note_on_c, 1, 40, 0
4, 59415, Note_on_c, 1, 52, 92
4, 59425, Note_on_c, 1, 47, 0
4, 59703, Note_on_c, 1, 52, 0
4, 59708, Note_on_c, 1, 47, 74
4, 59880, Note_on_c, 1, 47, 0
4, 59881, Note_on_c, 1, 39, 77
4, 60180, Note_on_c, 1, 47, 74
4, 60365, Note_on_c, 1, 51, 79
4, 60367, Note_on_c, 1, 47, 0
4, 60658, Note_on_c, 1, 47, 75
4, 60676, Note_on_c, 1, 51, 0
4, 60692, Note_on_c, 1, 39, 0
4, 60838, Note_on_c, 1, 47, 0
4, 60840, Note_on_c, 1, 38, 80
4, 61152, Note_on_c, 1, 45, 89
4, 61165, Note_on_c, 1, 38, 0
4, 61322, Note_on_c, 1, 49, 85
4, 61328, Note_on_c, 1, 45, 0
4, 61621, Note_on_c, 1, 37, 76
4, 61638, Note_on_c, 1, 49, 0
4, 61781, Note_on_c, 1, 37, 0
4, 61793, Note_on_c, 1, 36, 80
4, 62105, Note_on_c, 1, 43, 82
4, 62107, Note_on_c, 1, 36, 0
4, 62283, Note_on_c, 1, 48, 70
4, 62367, Note_on_c, 1, 43, 0
4, 62590, Note_on_c, 1, 43, 87
4, 62599, Note_on_c, 1, 48, 0
4, 62764, Note_on_c, 1, 43, 0
4, 62767, Note_on_c, 1, 45, 91
4, 63069, Note_on_c, 1, 40, 79
4, 63073, Note_on_c, 1, 45, 0
4, 63244, Note_on_c, 1, 40, 0
4, 63248, Note_on_c, 1, 35, 77
4, 63536, Note_on_c, 1, 35, 0
4, 63548, Note_on_c, 1, 42, 83
4, 63732, Note_on_c, 1, 42, 0
4, 63735, Note_on_c, 1, 43, 87
4, 64020, Note_on_c, 1, 42, 82
4, 64029, Note_on_c, 1, 43, 0
4, 64195, Note_on_c, 1, 42, 0
4, 64198, Note_on_c, 1, 40, 74
4, 64507, Note_on_c, 1, 50, 90
4, 64517, Note_on_c, 1, 40, 0
4, 64674, Note_on_c, 1, 50, 0
4, 64674, Note_on_c, 1, 42, 82
4, 64986, Note_on_c, 1, 54, 79
4, 65061, Note_on_c, 1, 42, 0
4, 65162, Note_on_c, 1, 42, 79
4, 65163, Note_on_c, 1, 54, 0
4, 65461, Note_on_c, 1, 49, 83
4, 65470, Note_on_c, 1, 42, 0
4, 65642, Note_on_c, 1, 49, 0
4, 65650, Note_on_c, 1, 47, 75
4, 65944, Note_on_c, 1, 59, 88
4, 65998, Note_on_c, 1, 47, 0
4, 66119, Note_on_c, 1, 47, 90
4, 66124, Note_on_c, 1, 59, 0
4, 66420, Note_on_c, 1, 35, 82
4, 66431, Note_on_c, 1, 47, 0
4, 66594, Note_on_c, 1, 35, 0
4, 66599, Note_on_c, 1, 40, 91
4, 66899, Note_on_c, 1, 35, 79
4, 66905, Note_on_c, 1, 40, 0
4, 67082, Note_on_c, 1, 35, 0
4, 67083, Note_on_c, 1, 28, 79
4, 67380, Note_on_c, 1, 28, 0
4, 67385, Note_on_c, 1, 35, 77
4, 67562, Note_on_c, 1, 39, 82
4, 67572, Note_on_c, 1, 35, 0
4, 67867, Note_on_c, 1, 39, 0
4, 67868, Note_on_c, 1, 33, 69
4, 68042, Note_on_c, 1, 33, 0
4, 68042, Note_on_c, 1, 39, 78
4, 68343, Note_on_c, 1, 45, 82
4, 68362, Note_on_c, 1, 39, 0
4, 68490, Note_on_c, 1, 39, 23
4, 68523, Note_on_c, 1, 39, 0
4, 68524, Note_on_c, 1, 50, 84
4, 68527, Note_on_c, 1, 45, 0
4, 68830, Note_on_c, 1, 45, 84
4, 68844, Note_on_c, 1, 50, 0
4, 69008, Note_on_c, 1, 37, 75
4, 69009, Note_on_c, 1, 45, 0
4, 69305, Note_on_c, 1, 44, 77
4, 69318, Note_on_c, 1, 37, 0
4, 69419, Note_on_c, 1, 37, 60
4, 69434, Note_on_c, 1, 44, 0
4, 69445, Note_on_c, 1, 37, 0
4, 69476, Note_on_c, 1, 36, 63
4, 69785, Note_on_c, 1, 43, 80
4, 69788, Note_on_c, 1, 36, 0
4, 69963, Note_on_c, 1, 43, 0
4, 69964, Note_on_c, 1, 48, 68
4, 70260, Note_on_c, 1, 43, 75
4, 70261, Note_on_c, 1, 48, 0
4, 70439, Note_on_c, 1, 43, 0
4, 70440, Note_on_c, 1, 45, 74
4, 70744, Note_on_c, 1, 45, 0
4, 70744, Note_on_c, 1, 40, 71
4, 70921, Note_on_c, 1, 34, 71
4, 70924, Note_on_c, 1, 40, 0
4, 71225, Note_on_c, 1, 46, 83
4, 71325, Note_on_c, 1, 34, 0
4, 71350, Note_on_c, 1, 46, 0
4, 71357, Note_on_c, 1, 35, 64
4, 71385, Note_on_c, 1, 35, 0
4, 71412, Note_on_c, 1, 35, 73
4, 71709, Note_on_c, 1, 47, 74
4, 71826, Note_on_c, 1, 41, 70
4, 71832, Note_on_c, 1, 35, 0
4, 71862, Note_on_c, 1, 41, 0
4, 71871, Note_on_c, 1, 47, 0
4, 71880, Note_on_c, 1, 36, 83
4, 72131, Note_on_c, 1, 48, 24
4, 72146, Note_on_c, 1, 48, 0
4, 72153, Note_on_c, 1, 36, 0
4, 72303, Note_on_c, 1, 43, 80
4, 72306, Note_on_c, 1, 41, 72
4, 72312, Note_on_c, 1, 41, 0
4, 72435, Note_on_c, 1, 33, 92
4, 72436, Note_on_c, 1, 43, 0
4, 72469, Note_on_c, 1, 33, 0
4, 72480, Note_on_c, 1, 33, 78
4, 72667, Note_on_c, 1, 45, 89
4, 72747, Note_on_c, 1, 33, 0
4, 72849, Note_on_c, 1, 45, 0
4, 72853, Note_on_c, 1, 36, 87
4, 73138, Note_on_c, 1, 36, 0
4, 73145, Note_on_c, 1, 43, 84
4, 73321, Note_on_c, 1, 43, 0
4, 73325, Note_on_c, 1, 47, 88
4, 73626, Note_on_c, 1, 42, 76
4, 73636, Note_on_c, 1, 47, 0
4, 73795, Note_on_c, 1, 42, 0
4, 73806, Note_on_c, 1, 40, 88
4, 74098, Note_on_c, 1, 40, 0
4, 74104, Note_on_c, 1, 47, 85
4, 74285, Note_on_c, 1, 52, 87
4, 74296, Note_on_c, 1, 47, 0
4, 74583, Note_on_c, 1, 52, 0
4, 74589, Note_on_c, 1, 47, 80
4, 74766, Note_on_c, 1, 47, 0
4, 74768, Note_on_c, 1, 40, 38
4, 74788, Note_on_c, 1, 40, 0
4, 74824, Note_on_c, 1, 40, 79
4, 74880, Note_on_c, 1, 40, 51
4, 75046, Note_on_c, 1, 40, 0
4, 75060, Note_on_c, 1, 47, 68
4, 75063, Note_on_c, 1, 40, 0
4, 75255, Note_on_c, 1, 52, 92
4, 75265, Note_on_c, 1, 47, 0
4, 75543, Note_on_c, 1, 52, 0
4, 75548, Note_on_c, 1, 47, 74
4, 75720, Note_on_c, 1, 47, 0
4, 75721, Note_on_c, 1, 39, 77
4, 76020, Note_on_c, 1, 47, 74
4, 76205, Note_on_c, 1, 51, 79
4, 76207, Note_on_c, 1, 47, 0
4, 76498, Note_on_c, 1, 47, 75
4, 76516, Note_on_c, 1, 51, 0
4, 76532, Note_on_c, 1, 39, 0
4, 76678, Note_on_c, 1, 47, 0
4, 76680, Note_on_c, 1, 38, 80
4, 76992, Note_on_c, 1, 45, 89
4, 77005, Note_on_c, 1, 38, 0
4, 77162, Note_on_c, 1, 49, 85
4, 77168, Note_on_c, 1, 45, 0
4, 77461, Note_on_c, 1, 37, 76
4, 77478, Note_on_c, 1, 49, 0
4, 77621, Note_on_c, 1, 37, 0
4, 77633, Note_on_c, 1, 36, 80
4, 77945, Note_on_c, 1, 43, 82
4, 77947, Note_on_c, 1, 36, 0
4, 78123, Note_on_c, 1, 48, 70
4, 78207, Note_on_c, 1, 43, 0
4, 78430, Note_on_c, 1, 43, 87
4, 78439, Note_on_c, 1, 48, 0
4, 78604, Note_on_c, 1, 43, 0
4, 78607, Note_on_c, 1, 45, 91
4, 78909, Note_on_c, 1, 40, 79
4, 78913, Note_on_c, 1, 45, 0
4, 79084, Note_on_c, 1, 40, 0
4, 79088, Note_on_c, 1, 35, 77
4, 79376, Note_on_c, 1, 35, 0
4, 79388, Note_on_c, 1, 42, 83
4, 79572, Note_on_c, 1, 42, 0
4, 79575, Note_on_c, 1, 43, 87
4, 79860, Note_on_c, 1, 42, 82
4, 79869, Note_on_c, 1, 43, 0
4, 80035, Note_on_c, 1, 42, 0
4, 80038, Note_on_c, 1, 40, 74
4, 80347, Note_on_c, 1, 50, 90
4, 80357, Note_on_c, 1, 40, 0
4, 80514, Note_on_c, 1, 50, 0
4, 80514, Note_on_c, 1, 42, 82
4, 80826, Note_on_c, 1, 54, 79
4, 80901, Note_on_c, 1, 42, 0
4, 81002, Note_on_c, 1, 42, 79
4, 81003, Note_on_c, 1, 54, 0
4, 81301, Note_on_c, 1, 49, 83
4, 81310, Note_on_c, 1, 42, 0
4, 81482, Note_on_c, 1, 49, 0
4, 81490, Note_on_c, 1, 47, 75
4, 81784, Note_on_c, 1, 59, 88
4, 81838, Note_on_c, 1, 47, 0
4, 81959, Note_on_c, 1, 47, 90
4, 81964, Note_on_c, 1, 59, 0
4, 82260, Note_on_c, 1, 35, 82
4, 82271, Note_on_c, 1, 47, 0
4, 82434, Note_on_c, 1, 35, 0
4, 82439, Note_on_c, 1, 40, 91
4, 82739, Note_on_c, 1, 35, 79
4, 82745, Note_on_c, 1, 40, 0
4, 82922, Note_on_c, 1, 35, 0
4, 82923, Note_on_c, 1, 28, 79
4, 83220, Note_on_c, 1, 28, 0
4, 83225, Note_on_c, 1, 35, 77
4, 83402, Note_on_c, 1, 39, 82
4, 83412, Note_on_c, 1, 35, 0
4, 83707, Note_on_c, 1, 39, 0
4, 83708, Note_on_c, 1, 33, 69
4, 83882, Note_on_c, 1, 33, 0
4, 83882, Note_on_c, 1, 39, 78
4, 84183, Note_on_c, 1, 45, 82
4, 84202, Note_on_c, 1, 39, 0
4, 84330, Note_on_c, 1, 39, 23
4, 84363, Note_on_c, 1, 39, 0
4, 84364, Note_on_c, 1, 50, 84
4, 84367, Note_on_c, 1, 45, 0
4, 84670, Note_on_c, 1, 45, 84
4, 84684, Note_on_c, 1, 50, 0
4, 84848, Note_on_c, 1, 37, 75
4, 84849, Note_on_c, 1, 45, 0
4, 85145, Note_on_c, 1, 44, 77
4, 85158, Note_on_c, 1, 37, 0
4, 85259, Note_on_c, 1, 37, 60
4, 85274, Note_on_c, 1, 44, 0
4, 85285, Note_on_c, 1, 37, 0
4, 85316, Note_on_c, 1, 36, 63
4, 85625, Note_on_c, 1, 43, 80
4, 85628, Note_on_c, 1, 36, 0
4, 85803, Note_on_c, 1, 43, 0
4, 85804, Note_on_c, 1, 48, 68
4, 86100, Note_on_c, 1, 43, 75
4, 86101, Note_on_c, 1, 48, 0
4, 86279, Note_on_c, 1, 43, 0
4, 86280, Note_on_c, 1, 45, 74
4, 86584, Note_on_c, 1, 45, 0
4, 86584, Note_on_c, 1, 40, 71
4, 86761, Note_on_c, 1, 34, 71
4, 86764, Note_on_c, 1, 40, 0
4, 87065, Note_on_c, 1, 46, 83
4, 87165, Note_on_c, 1, 34, 0
4, 87190, Note_on_c, 1, 46, 0
4, 87197, Note_on_c, 1, 35, 64
4, 87225, Note_on_c, 1, 35, 0
4, 87252, Note_on_c, 1, 35, 73
4, 87549, Note_on_c, 1, 47, 74
4, 87666, Note_on_c, 1, 41, 70
4, 87672, Note_on_c, 1, 35, 0
4, 87702, Note_on_c, 1, 41, 0
4, 87711, Note_on_c, 1, 47, 0
4, 87720, Note_on_c, 1, 36, 83
4, 87971, Note_on_c, 1, 48, 24
4, 87986, Note_on_c, 1, 48, 0
4, 87993, Note_on_c, 1, 36, 0
4, 88143, Note_on_c, 1, 43, 80
4, 88146, Note_on_c, 1, 41, 72
4, 88152, Note_on_c, 1, 41, 0
4, 88275, Note_on_c, 1, 33, 92
4, 88276, Note_on_c, 1, 43, 0
4, 88309, Note_on_c, 1, 33, 0
4, 88320, Note_on_c, 1, 33, 78
4, 88507, Note_on_c, 1, 45, 89
4, 88587, Note_on_c, 1, 33, 0
4, 88689, Note_on_c, 1, 45, 0
4, 88693, Note_on_c, 1, 36, 87
4, 88978, Note_on_c, 1, 36, 0
4, 88985, Note_on_c, 1, 43, 84
4, 89161, Note_on_c, 1, 43, 0
4, 89165, Note_on_c, 1, 47, 88
4, 89466, Note_on_c, 1, 42, 76
4, 89476, Note_on_c, 1, 47, 0
4, 89635, Note_on_c, 1, 42, 0
4, 89646, Note_on_c, 1, 40, 88
4, 89938, Note_on_c, 1, 40, 0
4, 89944, Note_on_c, 1, 47, 85
4, 90125, Note_on_c, 1, 52, 87
4, 90136, Note_on_c, 1, 47, 0
4, 90423, Note_on_c, 1, 52, 0
4, 90429, Note_on_c, 1, 47, 80
4, 90606, Note_on_c, 1, 47, 0
4, 90608, Note_on_c, 1, 40, 38
4, 90628, Note_on_c, 1, 40, 0
4, 90664, Note_on_c, 1, 40, 79
4, 90726, Note_on_c, 1, 40, 61
4, 90732, Note_on_c, 1, 40, 0
4, 90897, Note_on_c, 1, 40, 0
4, 90903, Note_on_c, 1, 47, 56
4, 91146, Note_on_c, 1, 40, 30
4, 91152, Note_on_c, 1, 47, 0
4, 91174, Note_on_c, 1, 40, 0
4, 91204, Note_on_c, 1, 40, 49
4, 91374, Note_on_c, 1, 47, 47
4, 91405, Note_on_c, 1, 47, 0
4, 91431, Note_on_c, 1, 48, 72
4, 91555, Note_on_c, 1, 48, 0
4, 91565, Note_on_c, 1, 47, 42
4, 91636, Note_on_c, 1, 40, 0
4, 91684, Note_on_c, 1, 40, 44
4, 91688, Note_on_c, 1, 47, 0
4, 91860, Note_on_c, 1, 47, 55
4, 91944, Note_on_c, 1, 40, 0
4, 92150, Note_on_c, 1, 47, 0
4, 92156, Note_on_c, 1, 40, 57
4, 92339, Note_on_c, 1, 28, 89
4, 92345, Note_on_c, 1, 40, 0
4, 92492, Note_on_c, 1, 28, 0
4, 92517, Note_on_c, 1, 28, 92
4, 92823, Note_on_c, 1, 28, 0
4, 92823, Note_on_c, 1, 40, 85
4, 92997, Note_on_c, 1, 40, 0
4, 93004, Note_on_c, 1, 28, 74
4, 93298, Note_on_c, 1, 35, 62
4, 93347, Note_on_c, 1, 35, 0
4, 93360, Note_on_c, 1, 36, 56
4, 93476, Note_on_c, 1, 36, 0
4, 93482, Note_on_c, 1, 35, 53
4, 93532, Note_on_c, 1, 28, 0
4, 93601, Note_on_c, 1, 28, 63
4, 93606, Note_on_c, 1, 35, 0
4, 93784, Note_on_c, 1, 35, 40
4, 93818, Note_on_c, 1, 35, 0
4, 93848, Note_on_c, 1, 36, 58
4, 93964, Note_on_c, 1, 36, 0
4, 93976, Note_on_c, 1, 35, 41
4, 94002, Note_on_c, 1, 28, 0
4, 94089, Note_on_c, 1, 28, 73
4, 94090, Note_on_c, 1, 35, 0
4, 95277, Note_on_c, 1, 28, 0
4, 95277, End_track
5, 0, Start_track
5, 0, Title_t, ""
5, 0, Control_c, 9, 7, 127
5, 24485, Note_on_c, 9, 81, 65
5, 24602, Note_on_c, 9, 81, 0
5, 24608, Note_on_c, 9, 80, 46
5, 24628, Note_on_c, 9, 80, 0
5, 24672, Note_on_c, 9, 81, 64
5, 24689, Note_on_c, 9, 81, 0
5, 24730, Note_on_c, 9, 81, 64
5, 24749, Note_on_c, 9, 81, 0
5, 24843, Note_on_c, 9, 80, 61
5, 24857, Note_on_c, 9, 80, 0
5, 24901, Note_on_c, 9, 81, 69
5, 24918, Note_on_c, 9, 81, 0
5, 24958, Note_on_c, 9, 81, 69
5, 25080, Note_on_c, 9, 81, 0
5, 25086, Note_on_c, 9, 80, 49
5, 25103, Note_on_c, 9, 80, 0
5, 25150, Note_on_c, 9, 81, 62
5, 25165, Note_on_c, 9, 81, 0
5, 25211, Note_on_c, 9, 81, 58
5, 25223, Note_on_c, 9, 81, 0
5, 25271, Note_on_c, 9, 81, 63
5, 25295, Note_on_c, 9, 81, 0
5, 25332, Note_on_c, 9, 80, 53
5, 25364, Note_on_c, 9, 80, 0
5, 25391, Note_on_c, 9, 81, 52
5, 25410, Note_on_c, 9, 81, 0
5, 25452, Note_on_c, 9, 81, 66
5, 25561, Note_on_c, 9, 81, 0
5, 25567, Note_on_c, 9, 80, 45
5, 25582, Note_on_c, 9, 80, 0
5, 25629, Note_on_c, 9, 81, 58
5, 25642, Note_on_c, 9, 81, 0
5, 25689, Note_on_c, 9, 81, 58
5, 25698, Note_on_c, 9, 81, 0
5, 25749, Note_on_c, 9, 81, 62
5, 25770, Note_on_c, 9, 81, 0
5, 25805, Note_on_c, 9, 80, 53
5, 25842, Note_on_c, 9, 80, 0
5, 25865, Note_on_c, 9, 81, 49
5, 25886, Note_on_c, 9, 81, 0
5, 25928, Note_on_c, 9, 81, 67
5, 26042, Note_on_c, 9, 81, 0
5, 26050, Note_on_c, 9, 80, 38
5, 26065, Note_on_c, 9, 80, 0
5, 26109, Note_on_c, 9, 81, 60
5, 26126, Note_on_c, 9, 81, 0
5, 26168, Note_on_c, 9, 81, 58
5, 26180, Note_on_c, 9, 81, 0
5, 26224, Note_on_c, 9, 80, 59
5, 26237, Note_on_c, 9, 80, 0
5, 26283, Note_on_c, 9, 81, 64
5, 26292, Note_on_c, 9, 81, 0
5, 26339, Note_on_c, 9, 81, 71
5, 26356, Note_on_c, 9, 81, 0
5, 26397, Note_on_c, 9, 81, 68
5, 26516, Note_on_c, 9, 81, 0
5, 26527, Note_on_c, 9, 80, 45
5, 26543, Note_on_c, 9, 80, 0
5, 26588, Note_on_c, 9, 81, 57
5, 26598, Note_on_c, 9, 81, 0
5, 26651, Note_on_c, 9, 81, 58
5, 26674, Note_on_c, 9, 81, 0
5, 26706, Note_on_c, 9, 80, 46
5, 26722, Note_on_c, 9, 80, 0
5, 26764, Note_on_c, 9, 80, 50
5, 26778, Note_on_c, 9, 80, 0
5, 26826, Note_on_c, 9, 81, 65
5, 26840, Note_on_c, 9, 81, 0
5, 26884, Note_on_c, 9, 81, 65
5, 26985, Note_on_c, 9, 81, 0
5, 26998, Note_on_c, 9, 80, 42
5, 27010, Note_on_c, 9, 80, 0
5, 27117, Note_on_c, 9, 81, 62
5, 27131, Note_on_c, 9, 81, 0
5, 27182, Note_on_c, 9, 81, 60
5, 27199, Note_on_c, 9, 81, 0
5, 27238, Note_on_c, 9, 80, 50
5, 27254, Note_on_c, 9, 80, 0
5, 27366, Note_on_c, 9, 81, 51
5, 27476, Note_on_c, 9, 81, 0
5, 27485, Note_on_c, 9, 80, 36
5, 27498, Note_on_c, 9, 80, 0
5, 27544, Note_on_c, 9, 81, 43
5, 27555, Note_on_c, 9, 81, 0
5, 27603, Note_on_c, 9, 81, 49
5, 27626, Note_on_c, 9, 81, 0
5, 27727, Note_on_c, 9, 80, 39
5, 27742, Note_on_c, 9, 80, 0
5, 27791, Note_on_c, 9, 81, 40
5, 27802, Note_on_c, 9, 81, 0
5, 27853, Note_on_c, 9, 81, 57
5, 27897, Note_on_c, 9, 81, 0
5, 27911, Note_on_c, 9, 81, 54
5, 27948, Note_on_c, 9, 81, 0
5, 27971, Note_on_c, 9, 80, 38
5, 27996, Note_on_c, 9, 80, 0
5, 28027, Note_on_c, 9, 81, 65
5, 28092, Note_on_c, 9, 81, 0
5, 28148, Note_on_c, 9, 80, 40
5, 28173, Note_on_c, 9, 80, 0
5, 28209, Note_on_c, 9, 80, 44
5, 28230, Note_on_c, 9, 80, 0
5, 28267, Note_on_c, 9, 81, 50
5, 28295, Note_on_c, 9, 81, 0
5, 28328, Note_on_c, 9, 81, 52
5, 28431, Note_on_c, 9, 81, 0
5, 28447, Note_on_c, 9, 80, 44
5, 28466, Note_on_c, 9, 80, 0
5, 28508, Note_on_c, 9, 81, 57
5, 28524, Note_on_c, 9, 81, 0
5, 28570, Note_on_c, 9, 81, 58
5, 28683, Note_on_c, 9, 81, 0
5, 28694, Note_on_c, 9, 80, 35
5, 28703, Note_on_c, 9, 80, 0
5, 28752, Note_on_c, 9, 81, 51
5, 28763, Note_on_c, 9, 81, 0
5, 28813, Note_on_c, 9, 81, 59
5, 28918, Note_on_c, 9, 81, 0
5, 28922, Note_on_c, 9, 80, 39
5, 28937, Note_on_c, 9, 80, 0
5, 28981, Note_on_c, 9, 81, 55
5, 28994, Note_on_c, 9, 81, 0
5, 29040, Note_on_c, 9, 81, 64
5, 29150, Note_on_c, 9, 81, 0
5, 29162, Note_on_c, 9, 80, 42
5, 29175, Note_on_c, 9, 80, 0
5, 29224, Note_on_c, 9, 81, 54
5, 29237, Note_on_c, 9, 81, 0
5, 29284, Note_on_c, 9, 81, 68
5, 29395, Note_on_c, 9, 81, 0
5, 29401, Note_on_c, 9, 80, 50
5, 29418, Note_on_c, 9, 80, 0
5, 29462, Note_on_c, 9, 81, 74
5, 29489, Note_on_c, 9, 81, 0
5, 29582, Note_on_c, 9, 80, 60
5, 29616, Note_on_c, 9, 80, 0
5, 29644, Note_on_c, 9, 80, 38
5, 29666, Note_on_c, 9, 80, 0
5, 29706, Note_on_c, 9, 81, 70
5, 29740, Note_on_c, 9, 81, 0
5, 29768, Note_on_c, 9, 81, 58
5, 29826, Note_on_c, 9, 81, 0
5, 29829, Note_on_c, 9, 80, 34
5, 29855, Note_on_c, 9, 80, 0
5, 29887, Note_on_c, 9, 80, 30
5, 29900, Note_on_c, 9, 80, 0
5, 29946, Note_on_c, 9, 81, 80
5, 30061, Note_on_c, 9, 81, 0
5, 30073, Note_on_c, 9, 80, 37
5, 30089, Note_on_c, 9, 80, 0
5, 30138, Note_on_c, 9, 81, 58
5, 30160, Note_on_c, 9, 81, 0
5, 30194, Note_on_c, 9, 81, 64
5, 30215, Note_on_c, 9, 81, 0
5, 30254, Note_on_c, 9, 81, 65
5, 30361, Note_on_c, 9, 81, 0
5, 30374, Note_on_c, 9, 80, 39
5, 30391, Note_on_c, 9, 80, 0
5, 30433, Note_on_c, 9, 81, 56
5, 30451, Note_on_c, 9, 81, 0
5, 30491, Note_on_c, 9, 81, 55
5, 30591, Note_on_c, 9, 81, 0
5, 30605, Note_on_c, 9, 80, 43
5, 30619, Note_on_c, 9, 80, 0
5, 30667, Note_on_c, 9, 81, 61
5, 30683, Note_on_c, 9, 81, 0
5, 30788, Note_on_c, 9, 80, 59
5, 30801, Note_on_c, 9, 80, 0
5, 30898, Note_on_c, 9, 81, 63
5, 30916, Note_on_c, 9, 81, 0
5, 30960, Note_on_c, 9, 81, 66
5, 31071, Note_on_c, 9, 81, 0
5, 31084, Note_on_c, 9, 80, 55
5, 31101, Note_on_c, 9, 80, 0
5, 31142, Note_on_c, 9, 81, 64
5, 31156, Note_on_c, 9, 81, 0
5, 31202, Note_on_c, 9, 81, 67
5, 31312, Note_on_c, 9, 81, 0
5, 31323, Note_on_c, 9, 80, 52
5, 31343, Note_on_c, 9, 80, 0
5, 31508, Note_on_c, 9, 81, 78
5, 31558, Note_on_c, 9, 81, 0
5, 31572, Note_on_c, 9, 80, 35
5, 31602, Note_on_c, 9, 80, 0
5, 31626, Note_on_c, 9, 80, 52
5, 31654, Note_on_c, 9, 80, 0
5, 31860, Note_on_c, 9, 81, 70
5, 31895, Note_on_c, 9, 81, 0
5, 31923, Note_on_c, 9, 81, 62
5, 31974, Note_on_c, 9, 81, 0
5, 31986, Note_on_c, 9, 80, 29
5, 32010, Note_on_c, 9, 80, 0
5, 32045, Note_on_c, 9, 81, 50
5, 32104, Note_on_c, 9, 81, 0
5, 32111, Note_on_c, 9, 80, 31
5, 32130, Note_on_c, 9, 80, 0
5, 32172, Note_on_c, 9, 80, 33
5, 32226, Note_on_c, 9, 80, 0
5, 32403, Note_on_c, 9, 80, 38
5, 32491, Note_on_c, 9, 80, 0
5, 32590, Note_on_c, 9, 81, 68
5, 32714, Note_on_c, 9, 80, 43
5, 32719, Note_on_c, 9, 81, 0
5, 32739, Note_on_c, 9, 80, 0
5, 32777, Note_on_c, 9, 80, 27
5, 32792, Note_on_c, 9, 80, 0
5, 32830, Note_on_c, 9, 81, 49
5, 32862, Note_on_c, 9, 81, 0
5, 32887, Note_on_c, 9, 81, 39
5, 32931, Note_on_c, 9, 81, 0
5, 32944, Note_on_c, 9, 81, 30
5, 32989, Note_on_c, 9, 81, 0
5, 33003, Note_on_c, 9, 80, 36
5, 33028, Note_on_c, 9, 80, 0
5, 33060, Note_on_c, 9, 81, 36
5, 33084, Note_on_c, 9, 81, 0
5, 33121, Note_on_c, 9, 81, 39
5, 33238, Note_on_c, 9, 81, 0
5, 33243, Note_on_c, 9, 80, 31
5, 33273, Note_on_c, 9, 80, 0
5, 33306, Note_on_c, 9, 81, 40
5, 33333, Note_on_c, 9, 81, 0
5, 33368, Note_on_c, 9, 81, 32
5, 33482, Note_on_c, 9, 81, 0
5, 33486, Note_on_c, 9, 80, 35
5, 33506, Note_on_c, 9, 80, 0
5, 33545, Note_on_c, 9, 81, 50
5, 33565, Note_on_c, 9, 81, 0
5, 33604, Note_on_c, 9, 81, 55
5, 33713, Note_on_c, 9, 81, 0
5, 33716, Note_on_c, 9, 80, 38
5, 33733, Note_on_c, 9, 80, 0
5, 33775, Note_on_c, 9, 81, 51
5, 33791, Note_on_c, 9, 81, 0
5, 33838, Note_on_c, 9, 81, 50
5, 33861, Note_on_c, 9, 81, 0
5, 33895, Note_on_c, 9, 81, 52
5, 33939, Note_on_c, 9, 81, 0
5, 33958, Note_on_c, 9, 80, 47
5, 34002, Note_on_c, 9, 80, 0
5, 34022, Note_on_c, 9, 81, 55
5, 34049, Note_on_c, 9, 81, 0
5, 34080, Note_on_c, 9, 81, 68
5, 34191, Note_on_c, 9, 81, 0
5, 34199, Note_on_c, 9, 80, 45
5, 34243, Note_on_c, 9, 80, 0
5, 34269, Note_on_c, 9, 81, 55
5, 34296, Note_on_c, 9, 81, 0
5, 34325, Note_on_c, 9, 81, 60
5, 34444, Note_on_c, 9, 80, 49
5, 34445, Note_on_c, 9, 81, 0
5, 34466, Note_on_c, 9, 80, 0
5, 34504, Note_on_c, 9, 81, 54
5, 34519, Note_on_c, 9, 81, 0
5, 34641, Note_on_c, 9, 81, 63
5, 34676, Note_on_c, 9, 81, 0
5, 34698, Note_on_c, 9, 80, 50
5, 34728, Note_on_c, 9, 80, 0
5, 34751, Note_on_c, 9, 81, 60
5, 34784, Note_on_c, 9, 81, 0
5, 34812, Note_on_c, 9, 81, 67
5, 34920, Note_on_c, 9, 81, 0
5, 34928, Note_on_c, 9, 80, 50
5, 34947, Note_on_c, 9, 80, 0
5, 34989, Note_on_c, 9, 81, 62
5, 35009, Note_on_c, 9, 81, 0
5, 35051, Note_on_c, 9, 81, 62
5, 35166, Note_on_c, 9, 81, 0
5, 35168, Note_on_c, 9, 80, 46
5, 35186, Note_on_c, 9, 80, 0
5, 35229, Note_on_c, 9, 81, 68
5, 35270, Note_on_c, 9, 81, 0
5, 35350, Note_on_c, 9, 80, 59
5, 35382, Note_on_c, 9, 80, 0
5, 35466, Note_on_c, 9, 81, 60
5, 35496, Note_on_c, 9, 81, 0
5, 35525, Note_on_c, 9, 81, 58
5, 35571, Note_on_c, 9, 81, 0
5, 35582, Note_on_c, 9, 81, 47
5, 35622, Note_on_c, 9, 81, 0
5, 35644, Note_on_c, 9, 80, 46
5, 35677, Note_on_c, 9, 80, 0
5, 35705, Note_on_c, 9, 81, 65
5, 35802, Note_on_c, 9, 81, 0
5, 35823, Note_on_c, 9, 80, 36
5, 35844, Note_on_c, 9, 80, 0
5, 35879, Note_on_c, 9, 81, 64
5, 35923, Note_on_c, 9, 81, 0
5, 35940, Note_on_c, 9, 81, 64
5, 35976, Note_on_c, 9, 81, 0
5, 35998, Note_on_c, 9, 81, 77
5, 36114, Note_on_c, 9, 81, 0
5, 36120, Note_on_c, 9, 80, 35
5, 36138, Note_on_c, 9, 80, 0
5, 36181, Note_on_c, 9, 81, 84
5, 36228, Note_on_c, 9, 81, 0
5, 36237, Note_on_c, 9, 81, 77
5, 36355, Note_on_c, 9, 81, 0
5, 36360, Note_on_c, 9, 80, 46
5, 36376, Note_on_c, 9, 80, 0
5, 36422, Note_on_c, 9, 81, 95
5, 36512, Note_on_c, 9, 81, 0
5, 36546, Note_on_c, 9, 80, 37
5, 36565, Note_on_c, 9, 80, 0
5, 36666, Note_on_c, 9, 81, 63
5, 36688, Note_on_c, 9, 81, 0
5, 36725, Note_on_c, 9, 81, 75
5, 36751, Note_on_c, 9, 81, 0
5, 36781, Note_on_c, 9, 81, 99
5, 36810, Note_on_c, 9, 81, 0
5, 36843, Note_on_c, 9, 81, 105
5, 36896, Note_on_c, 9, 81, 0
5, 36906, Note_on_c, 9, 80, 44
5, 36936, Note_on_c, 9, 80, 0
5, 36963, Note_on_c, 9, 81, 42
5, 36988, Note_on_c, 9, 81, 0
5, 37023, Note_on_c, 9, 81, 50
5, 37046, Note_on_c, 9, 81, 0
5, 37081, Note_on_c, 9, 81, 68
5, 37129, Note_on_c, 9, 81, 0
5, 37143, Note_on_c, 9, 80, 40
5, 37164, Note_on_c, 9, 80, 0
5, 37265, Note_on_c, 9, 81, 64
5, 37321, Note_on_c, 9, 81, 0
5, 37379, Note_on_c, 9, 80, 56
5, 37414, Note_on_c, 9, 80, 0
5, 37505, Note_on_c, 9, 81, 73
5, 37613, Note_on_c, 9, 81, 0
5, 37630, Note_on_c, 9, 80, 46
5, 37652, Note_on_c, 9, 80, 0
5, 37688, Note_on_c, 9, 81, 54
5, 37707, Note_on_c, 9, 81, 0
5, 37745, Note_on_c, 9, 81, 72
5, 37769, Note_on_c, 9, 81, 0
5, 37806, Note_on_c, 9, 81, 74
5, 37856, Note_on_c, 9, 81, 0
5, 37864, Note_on_c, 9, 80, 46
5, 37885, Note_on_c, 9, 80, 0
5, 37924, Note_on_c, 9, 81, 62
5, 37979, Note_on_c, 9, 81, 0
5, 37984, Note_on_c, 9, 80, 36
5, 38000, Note_on_c, 9, 80, 0
5, 38046, Note_on_c, 9, 81, 28
5, 38055, Note_on_c, 9, 81, 0
5, 38101, Note_on_c, 9, 81, 60
5, 38116, Note_on_c, 9, 81, 0
5, 38166, Note_on_c, 9, 81, 63
5, 38201, Note_on_c, 9, 81, 0
5, 38223, Note_on_c, 9, 81, 55
5, 38256, Note_on_c, 9, 81, 0
5, 38281, Note_on_c, 9, 80, 35
5, 38304, Note_on_c, 9, 80, 0
5, 38342, Note_on_c, 9, 81, 75
5, 38455, Note_on_c, 9, 81, 0
5, 38463, Note_on_c, 9, 80, 35
5, 38480, Note_on_c, 9, 80, 0
5, 38525, Note_on_c, 9, 81, 29
5, 38535, Note_on_c, 9, 81, 0
5, 38582, Note_on_c, 9, 81, 53
5, 38594, Note_on_c, 9, 81, 0
5, 38647, Note_on_c, 9, 81, 62
5, 38690, Note_on_c, 9, 81, 0
5, 38705, Note_on_c, 9, 81, 51
5, 38740, Note_on_c, 9, 81, 0
5, 38764, Note_on_c, 9, 80, 35
5, 38777, Note_on_c, 9, 80, 0
5, 38827, Note_on_c, 9, 81, 84
5, 38856, Note_on_c, 9, 81, 0
5, 38887, Note_on_c, 9, 81, 68
5, 39006, Note_on_c, 9, 80, 45
5, 39010, Note_on_c, 9, 81, 0
5, 39020, Note_on_c, 9, 80, 0
5, 39067, Note_on_c, 9, 81, 77
5, 39089, Note_on_c, 9, 81, 0
5, 39127, Note_on_c, 9, 81, 78
5, 39245, Note_on_c, 9, 81, 0
5, 39249, Note_on_c, 9, 80, 30
5, 39260, Note_on_c, 9, 80, 0
5, 39308, Note_on_c, 9, 81, 64
5, 39309, Note_on_c, 9, 69, 68
5, 39331, Note_on_c, 9, 69, 0
5, 39428, Note_on_c, 9, 80, 34
5, 39430, Note_on_c, 9, 81, 0
5, 39443, Note_on_c, 9, 80, 0
5, 39491, Note_on_c, 9, 81, 55
5, 39507, Note_on_c, 9, 81, 0
5, 39549, Note_on_c, 9, 81, 54
5, 39563, Note_on_c, 9, 81, 0
5, 39611, Note_on_c, 9, 81, 53
5, 39724, Note_on_c, 9, 81, 0
5, 39789, Note_on_c, 9, 81, 88
5, 39914, Note_on_c, 9, 81, 0
5, 39914, Note_on_c, 9, 80, 27
5, 39927, Note_on_c, 9, 80, 0
5, 39971, Note_on_c, 9, 81, 58
5, 40141, Note_on_c, 9, 81, 0
5, 40149, Note_on_c, 9, 80, 33
5, 40163, Note_on_c, 9, 80, 0
5, 40212, Note_on_c, 9, 81, 41
5, 40233, Note_on_c, 9, 81, 0
5, 40257, Note_on_c, 9, 81, 36
5, 40266, Note_on_c, 9, 80, 49
5, 40267, Note_on_c, 9, 81, 48
5, 40267, Note_on_c, 9, 57, 64
5, 40273, Note_on_c, 9, 81, 0
5, 40285, Note_on_c, 9, 80, 0
5, 40288, Note_on_c, 9, 57, 0
5, 40294, Note_on_c, 9, 81, 0
5, 40503, Note_on_c, 9, 80, 33
5, 40515, Note_on_c, 9, 80, 0
5, 40565, Note_on_c, 9, 80, 34
5, 40575, Note_on_c, 9, 80, 0
5, 40621, Note_on_c, 9, 81, 40
5, 40645, Note_on_c, 9, 81, 0
5, 40742, Note_on_c, 9, 80, 33
5, 40755, Note_on_c, 9, 80, 0
5, 41104, Note_on_c, 9, 81, 46
5, 41119, Note_on_c, 9, 81, 0
5, 41221, Note_on_c, 9, 80, 27
5, 41230, Note_on_c, 9, 80, 0
5, 41340, Note_on_c, 9, 81, 50
5, 41369, Note_on_c, 9, 81, 0
5, 41397, Note_on_c, 9, 81, 44
5, 41450, Note_on_c, 9, 81, 0
5, 41465, Note_on_c, 9, 80, 20
5, 41480, Note_on_c, 9, 80, 0
5, 41517, Note_on_c, 9, 81, 44
5, 41537, Note_on_c, 9, 81, 0
5, 41578, Note_on_c, 9, 81, 48
5, 41623, Note_on_c, 9, 81, 0
5, 41701, Note_on_c, 9, 81, 47
5, 41716, Note_on_c, 9, 81, 0
5, 41762, Note_on_c, 9, 81, 51
5, 41783, Note_on_c, 9, 81, 0
5, 41823, Note_on_c, 9, 80, 25
5, 41844, Note_on_c, 9, 80, 0
5, 41881, Note_on_c, 9, 81, 41
5, 41892, Note_on_c, 9, 81, 0
5, 41943, Note_on_c, 9, 81, 62
5, 41963, Note_on_c, 9, 81, 0
5, 42061, Note_on_c, 9, 80, 37
5, 42084, Note_on_c, 9, 80, 0
5, 42130, Note_on_c, 9, 81, 36
5, 42142, Note_on_c, 9, 81, 0
5, 42185, Note_on_c, 9, 81, 78
5, 42216, Note_on_c, 9, 81, 0
5, 42245, Note_on_c, 9, 81, 78
5, 42296, Note_on_c, 9, 81, 0
5, 42304, Note_on_c, 9, 80, 30
5, 42325, Note_on_c, 9, 80, 0
5, 42362, Note_on_c, 9, 81, 29
5, 42381, Note_on_c, 9, 81, 0
5, 42422, Note_on_c, 9, 81, 66
5, 42509, Note_on_c, 9, 81, 0
5, 42541, Note_on_c, 9, 80, 39
5, 42553, Note_on_c, 9, 80, 0
5, 42607, Note_on_c, 9, 81, 88
5, 42650, Note_on_c, 9, 81, 0
5, 42663, Note_on_c, 9, 81, 59
5, 42697, Note_on_c, 9, 81, 0
5, 42720, Note_on_c, 9, 80, 23
5, 42741, Note_on_c, 9, 80, 0
5, 42781, Note_on_c, 9, 81, 84
5, 42836, Note_on_c, 9, 81, 0
5, 42903, Note_on_c, 9, 80, 46
5, 42918, Note_on_c, 9, 80, 0
5, 42964, Note_on_c, 9, 81, 64
5, 42974, Note_on_c, 9, 81, 0
5, 43022, Note_on_c, 9, 81, 76
5, 43039, Note_on_c, 9, 81, 0
5, 43080, Note_on_c, 9, 81, 73
5, 43098, Note_on_c, 9, 81, 0
5, 43137, Note_on_c, 9, 80, 50
5, 43145, Note_on_c, 9, 80, 0
5, 43218, Note_on_c, 9, 81, 84
5, 43259, Note_on_c, 9, 81, 0
5, 43263, Note_on_c, 9, 80, 60
5, 43290, Note_on_c, 9, 80, 0
5, 43323, Note_on_c, 9, 80, 64
5, 43337, Note_on_c, 9, 80, 0
5, 43387, Note_on_c, 9, 81, 73
5, 43403, Note_on_c, 9, 81, 0
5, 43445, Note_on_c, 9, 81, 74
5, 43460, Note_on_c, 9, 81, 0
5, 43506, Note_on_c, 9, 80, 69
5, 43518, Note_on_c, 9, 80, 0
5, 43566, Note_on_c, 9, 80, 69
5, 43576, Note_on_c, 9, 80, 0
5, 43630, Note_on_c, 9, 81, 91
5, 43679, Note_on_c, 9, 81, 0
5, 43686, Note_on_c, 9, 80, 44
5, 43701, Note_on_c, 9, 80, 0
5, 43749, Note_on_c, 9, 80, 67
5, 43761, Note_on_c, 9, 80, 0
5, 43807, Note_on_c, 9, 81, 90
5, 43855, Note_on_c, 9, 81, 0
5, 43865, Note_on_c, 9, 80, 56
5, 43883, Note_on_c, 9, 80, 0
5, 43928, Note_on_c, 9, 80, 63
5, 43939, Note_on_c, 9, 80, 0
5, 43985, Note_on_c, 9, 80, 73
5, 43996, Note_on_c, 9, 80, 0
5, 44046, Note_on_c, 9, 81, 87
5, 44091, Note_on_c, 9, 81, 0
5, 44102, Note_on_c, 9, 80, 45
5, 44115, Note_on_c, 9, 80, 0
5, 44164, Note_on_c, 9, 81, 81
5, 44210, Note_on_c, 9, 81, 0
5, 44221, Note_on_c, 9, 80, 46
5, 44244, Note_on_c, 9, 80, 0
5, 44281, Note_on_c, 9, 80, 49
5, 44290, Note_on_c, 9, 80, 0
5, 44347, Note_on_c, 9, 81, 77
5, 44362, Note_on_c, 9, 81, 0
5, 44403, Note_on_c, 9, 80, 47
5, 44410, Note_on_c, 9, 80, 0
5, 44465, Note_on_c, 9, 81, 80
5, 44486, Note_on_c, 9, 81, 0
5, 44524, Note_on_c, 9, 80, 57
5, 44536, Note_on_c, 9, 80, 0
5, 44585, Note_on_c, 9, 80, 64
5, 44598, Note_on_c, 9, 80, 0
5, 44649, Note_on_c, 9, 80, 58
5, 44660, Note_on_c, 9, 80, 0
5, 44704, Note_on_c, 9, 80, 74
5, 44722, Note_on_c, 9, 80, 0
5, 44760, Note_on_c, 9, 81, 83
5, 44796, Note_on_c, 9, 81, 0
5, 44815, Note_on_c, 9, 80, 59
5, 44830, Note_on_c, 9, 80, 0
5, 44879, Note_on_c, 9, 80, 69
5, 44892, Note_on_c, 9, 80, 0
5, 44944, Note_on_c, 9, 81, 76
5, 44959, Note_on_c, 9, 81, 0
5, 45005, Note_on_c, 9, 81, 71
5, 45046, Note_on_c, 9, 81, 0
5, 45063, Note_on_c, 9, 80, 67
5, 45078, Note_on_c, 9, 80, 0
5, 45126, Note_on_c, 9, 80, 65
5, 45138, Note_on_c, 9, 80, 0
5, 45190, Note_on_c, 9, 81, 71
5, 45205, Note_on_c, 9, 81, 0
5, 45247, Note_on_c, 9, 81, 87
5, 45292, Note_on_c, 9, 81, 0
5, 45305, Note_on_c, 9, 80, 55
5, 45318, Note_on_c, 9, 80, 0
5, 45368, Note_on_c, 9, 81, 71
5, 45380, Note_on_c, 9, 81, 0
5, 45424, Note_on_c, 9, 81, 71
5, 45440, Note_on_c, 9, 81, 0
5, 45478, Note_on_c, 9, 80, 59
5, 45487, Note_on_c, 9, 80, 0
5, 45541, Note_on_c, 9, 81, 78
5, 45558, Note_on_c, 9, 81, 0
5, 45600, Note_on_c, 9, 81, 71
5, 45621, Note_on_c, 9, 81, 0
5, 45664, Note_on_c, 9, 80, 56
5, 45673, Note_on_c, 9, 80, 0
5, 45726, Note_on_c, 9, 81, 60
5, 45734, Note_on_c, 9, 81, 0
5, 45758, Note_on_c, 9, 81, 73
5, 45784, Note_on_c, 9, 81, 0
5, 45785, Note_on_c, 9, 80, 69
5, 45800, Note_on_c, 9, 80, 0
5, 45842, Note_on_c, 9, 81, 66
5, 45860, Note_on_c, 9, 81, 0
5, 45900, Note_on_c, 9, 81, 79
5, 45917, Note_on_c, 9, 81, 0
5, 45958, Note_on_c, 9, 81, 74
5, 45984, Note_on_c, 9, 81, 0
5, 46017, Note_on_c, 9, 80, 54
5, 46032, Note_on_c, 9, 80, 0
5, 46081, Note_on_c, 9, 81, 65
5, 46098, Note_on_c, 9, 81, 0
5, 46140, Note_on_c, 9, 81, 65
5, 46154, Note_on_c, 9, 81, 0
5, 46200, Note_on_c, 9, 81, 71
5, 46218, Note_on_c, 9, 81, 0
5, 46253, Note_on_c, 9, 80, 59
5, 46266, Note_on_c, 9, 80, 0
5, 46317, Note_on_c, 9, 81, 67
5, 46333, Note_on_c, 9, 81, 0
5, 46378, Note_on_c, 9, 81, 64
5, 46394, Note_on_c, 9, 81, 0
5, 46435, Note_on_c, 9, 80, 58
5, 46445, Note_on_c, 9, 80, 0
5, 46503, Note_on_c, 9, 81, 74
5, 46519, Note_on_c, 9, 81, 0
5, 46564, Note_on_c, 9, 81, 68
5, 46579, Note_on_c, 9, 81, 0
5, 46622, Note_on_c, 9, 81, 71
5, 46638, Note_on_c, 9, 81, 0
5, 46681, Note_on_c, 9, 81, 67
5, 46694, Note_on_c, 9, 81, 0
5, 46744, Note_on_c, 9, 81, 72
5, 46758, Note_on_c, 9, 81, 0
5, 46805, Note_on_c, 9, 81, 64
5, 46816, Note_on_c, 9, 81, 0
5, 46866, Note_on_c, 9, 80, 74
5, 46879, Note_on_c, 9, 80, 0
5, 46929, Note_on_c, 9, 81, 67
5, 46940, Note_on_c, 9, 81, 0
5, 46990, Note_on_c, 9, 81, 88
5, 47003, Note_on_c, 9, 81, 0
5, 47050, Note_on_c, 9, 81, 87
5, 47070, Note_on_c, 9, 81, 0
5, 47109, Note_on_c, 9, 80, 62
5, 47121, Note_on_c, 9, 80, 0
5, 47172, Note_on_c, 9, 81, 77
5, 47188, Note_on_c, 9, 81, 0
5, 47231, Note_on_c, 9, 81, 80
5, 47246, Note_on_c, 9, 81, 0
5, 47291, Note_on_c, 9, 81, 77
5, 47312, Note_on_c, 9, 81, 0
5, 47346, Note_on_c, 9, 80, 62
5, 47360, Note_on_c, 9, 80, 0
5, 47404, Note_on_c, 9, 81, 78
5, 47423, Note_on_c, 9, 81, 0
5, 47461, Note_on_c, 9, 81, 68
5, 47478, Note_on_c, 9, 81, 0
5, 47520, Note_on_c, 9, 80, 60
5, 47530, Note_on_c, 9, 80, 0
5, 47582, Note_on_c, 9, 81, 81
5, 47602, Note_on_c, 9, 81, 0
5, 47642, Note_on_c, 9, 81, 85
5, 47677, Note_on_c, 9, 81, 0
5, 47701, Note_on_c, 9, 80, 40
5, 47718, Note_on_c, 9, 80, 0
5, 47763, Note_on_c, 9, 81, 87
5, 47789, Note_on_c, 9, 81, 0
5, 47825, Note_on_c, 9, 81, 91
5, 47848, Note_on_c, 9, 81, 0
5, 47882, Note_on_c, 9, 81, 90
5, 47913, Note_on_c, 9, 81, 0
5, 47936, Note_on_c, 9, 80, 67
5, 47955, Note_on_c, 9, 80, 0
5, 47996, Note_on_c, 9, 81, 84
5, 48025, Note_on_c, 9, 81, 0
5, 48059, Note_on_c, 9, 81, 74
5, 48076, Note_on_c, 9, 81, 0
5, 48116, Note_on_c, 9, 81, 82
5, 48148, Note_on_c, 9, 81, 0
5, 48175, Note_on_c, 9, 80, 57
5, 48194, Note_on_c, 9, 80, 0
5, 48243, Note_on_c, 9, 81, 68
5, 48259, Note_on_c, 9, 81, 0
5, 48302, Note_on_c, 9, 81, 70
5, 48319, Note_on_c, 9, 81, 0
5, 48359, Note_on_c, 9, 80, 64
5, 48373, Note_on_c, 9, 80, 0
5, 48426, Note_on_c, 9, 81, 75
5, 48442, Note_on_c, 9, 81, 0
5, 48485, Note_on_c, 9, 81, 66
5, 48503, Note_on_c, 9, 81, 0
5, 48545, Note_on_c, 9, 80, 54
5, 48555, Note_on_c, 9, 80, 0
5, 48604, Note_on_c, 9, 81, 68
5, 48620, Note_on_c, 9, 81, 0
5, 48663, Note_on_c, 9, 81, 71
5, 48679, Note_on_c, 9, 81, 0
5, 48721, Note_on_c, 9, 80, 62
5, 48735, Note_on_c, 9, 80, 0
5, 48785, Note_on_c, 9, 81, 71
5, 48801, Note_on_c, 9, 81, 0
5, 48841, Note_on_c, 9, 81, 72
5, 48858, Note_on_c, 9, 81, 0
5, 48902, Note_on_c, 9, 80, 64
5, 48916, Note_on_c, 9, 80, 0
5, 48962, Note_on_c, 9, 81, 68
5, 48978, Note_on_c, 9, 81, 0
5, 49022, Note_on_c, 9, 81, 74
5, 49038, Note_on_c, 9, 81, 0
5, 49080, Note_on_c, 9, 80, 82
5, 49094, Note_on_c, 9, 80, 0
5, 49146, Note_on_c, 9, 81, 88
5, 49160, Note_on_c, 9, 81, 0
5, 49203, Note_on_c, 9, 81, 90
5, 49254, Note_on_c, 9, 81, 0
5, 49264, Note_on_c, 9, 80, 71
5, 49281, Note_on_c, 9, 80, 0
5, 49322, Note_on_c, 9, 81, 74
5, 49337, Note_on_c, 9, 81, 0
5, 49384, Note_on_c, 9, 81, 96
5, 49404, Note_on_c, 9, 81, 0
5, 49440, Note_on_c, 9, 80, 52
5, 49448, Note_on_c, 9, 80, 0
5, 49501, Note_on_c, 9, 81, 87
5, 49515, Note_on_c, 9, 81, 0
5, 49561, Note_on_c, 9, 81, 83
5, 49608, Note_on_c, 9, 81, 0
5, 49618, Note_on_c, 9, 80, 55
5, 49636, Note_on_c, 9, 80, 0
5, 49679, Note_on_c, 9, 81, 80
5, 49699, Note_on_c, 9, 81, 0
5, 49745, Note_on_c, 9, 81, 77
5, 49764, Note_on_c, 9, 81, 0
5, 49804, Note_on_c, 9, 80, 65
5, 49818, Note_on_c, 9, 80, 0
5, 49865, Note_on_c, 9, 80, 70
5, 49882, Note_on_c, 9, 80, 0
5, 49925, Note_on_c, 9, 81, 70
5, 49949, Note_on_c, 9, 81, 0
5, 49988, Note_on_c, 9, 80, 61
5, 50001, Note_on_c, 9, 80, 0
5, 50044, Note_on_c, 9, 81, 78
5, 50064, Note_on_c, 9, 81, 0
5, 50102, Note_on_c, 9, 81, 87
5, 50125, Note_on_c, 9, 81, 0
5, 50160, Note_on_c, 9, 80, 45
5, 50168, Note_on_c, 9, 80, 0
5, 50221, Note_on_c, 9, 80, 63
5, 50235, Note_on_c, 9, 80, 0
5, 50280, Note_on_c, 9, 80, 67
5, 50294, Note_on_c, 9, 80, 0
5, 50340, Note_on_c, 9, 80, 77
5, 50360, Note_on_c, 9, 80, 0
5, 50400, Note_on_c, 9, 81, 78
5, 50430, Note_on_c, 9, 81, 0
5, 50461, Note_on_c, 9, 80, 60
5, 50475, Note_on_c, 9, 80, 0
5, 50521, Note_on_c, 9, 81, 70
5, 50537, Note_on_c, 9, 81, 0
5, 50581, Note_on_c, 9, 80, 73
5, 50594, Note_on_c, 9, 80, 0
5, 50643, Note_on_c, 9, 80, 62
5, 50657, Note_on_c, 9, 80, 0
5, 50708, Note_on_c, 9, 81, 87
5, 50733, Note_on_c, 9, 81, 0
5, 50765, Note_on_c, 9, 80, 55
5, 50779, Note_on_c, 9, 80, 0
5, 50824, Note_on_c, 9, 81, 91
5, 50844, Note_on_c, 9, 81, 0
5, 50881, Note_on_c, 9, 81, 88
5, 50915, Note_on_c, 9, 81, 0
5, 50926, Note_on_c, 9, 80, 56
5, 50942, Note_on_c, 9, 80, 0
5, 50994, Note_on_c, 9, 81, 74
5, 51009, Note_on_c, 9, 81, 0
5, 51055, Note_on_c, 9, 81, 88
5, 51084, Note_on_c, 9, 81, 0
5, 51116, Note_on_c, 9, 80, 64
5, 51131, Note_on_c, 9, 80, 0
5, 51179, Note_on_c, 9, 81, 80
5, 51197, Note_on_c, 9, 81, 0
5, 51240, Note_on_c, 9, 81, 74
5, 51257, Note_on_c, 9, 81, 0
5, 51305, Note_on_c, 9, 80, 64
5, 51318, Note_on_c, 9, 80, 0
5, 51366, Note_on_c, 9, 81, 79
5, 51383, Note_on_c, 9, 81, 0
5, 51427, Note_on_c, 9, 81, 75
5, 51442, Note_on_c, 9, 81, 0
5, 51487, Note_on_c, 9, 81, 74
5, 51510, Note_on_c, 9, 81, 0
5, 51542, Note_on_c, 9, 80, 58
5, 51558, Note_on_c, 9, 80, 0
5, 51608, Note_on_c, 9, 81, 74
5, 51623, Note_on_c, 9, 81, 0
5, 51664, Note_on_c, 9, 81, 81
5, 51680, Note_on_c, 9, 81, 0
5, 51725, Note_on_c, 9, 81, 79
5, 51746, Note_on_c, 9, 81, 0
5, 51782, Note_on_c, 9, 80, 62
5, 51798, Note_on_c, 9, 80, 0
5, 51847, Note_on_c, 9, 81, 76
5, 51863, Note_on_c, 9, 81, 0
5, 51906, Note_on_c, 9, 81, 80
5, 51923, Note_on_c, 9, 81, 0
5, 51969, Note_on_c, 9, 80, 60
5, 51976, Note_on_c, 9, 80, 0
5, 52028, Note_on_c, 9, 81, 73
5, 52044, Note_on_c, 9, 81, 0
5, 52082, Note_on_c, 9, 81, 73
5, 52104, Note_on_c, 9, 81, 0
5, 52143, Note_on_c, 9, 80, 56
5, 52155, Note_on_c, 9, 80, 0
5, 52207, Note_on_c, 9, 81, 71
5, 52222, Note_on_c, 9, 81, 0
5, 52267, Note_on_c, 9, 81, 69
5, 52283, Note_on_c, 9, 81, 0
5, 52324, Note_on_c, 9, 81, 79
5, 52353, Note_on_c, 9, 81, 0
5, 52380, Note_on_c, 9, 80, 59
5, 52395, Note_on_c, 9, 80, 0
5, 52443, Note_on_c, 9, 81, 75
5, 52459, Note_on_c, 9, 81, 0
5, 52502, Note_on_c, 9, 80, 63
5, 52513, Note_on_c, 9, 80, 0
5, 52564, Note_on_c, 9, 81, 74
5, 52580, Note_on_c, 9, 81, 0
5, 52620, Note_on_c, 9, 81, 80
5, 52634, Note_on_c, 9, 81, 0
5, 52677, Note_on_c, 9, 81, 91
5, 52706, Note_on_c, 9, 81, 0
5, 52733, Note_on_c, 9, 80, 58
5, 52748, Note_on_c, 9, 80, 0
5, 52800, Note_on_c, 9, 81, 78
5, 52820, Note_on_c, 9, 81, 0
5, 52863, Note_on_c, 9, 80, 59
5, 52875, Note_on_c, 9, 80, 0
5, 52925, Note_on_c, 9, 80, 70
5, 52937, Note_on_c, 9, 80, 0
5, 52980, Note_on_c, 9, 81, 88
5, 53013, Note_on_c, 9, 81, 0
5, 53041, Note_on_c, 9, 80, 45
5, 53050, Note_on_c, 9, 80, 0
5, 53104, Note_on_c, 9, 80, 71
5, 53117, Note_on_c, 9, 80, 0
5, 53164, Note_on_c, 9, 81, 64
5, 53181, Note_on_c, 9, 81, 0
5, 53225, Note_on_c, 9, 80, 64
5, 53237, Note_on_c, 9, 80, 0
5, 53284, Note_on_c, 9, 80, 64
5, 53293, Note_on_c, 9, 80, 0
5, 53341, Note_on_c, 9, 81, 79
5, 53364, Note_on_c, 9, 81, 0
5, 53396, Note_on_c, 9, 80, 61
5, 53409, Note_on_c, 9, 80, 0
5, 53462, Note_on_c, 9, 80, 87
5, 53477, Note_on_c, 9, 80, 0
5, 53524, Note_on_c, 9, 81, 68
5, 53541, Note_on_c, 9, 81, 0
5, 53578, Note_on_c, 9, 80, 69
5, 53594, Note_on_c, 9, 80, 0
5, 53640, Note_on_c, 9, 81, 74
5, 53657, Note_on_c, 9, 81, 0
5, 53700, Note_on_c, 9, 80, 67
5, 53714, Note_on_c, 9, 80, 0
5, 53760, Note_on_c, 9, 80, 70
5, 53774, Note_on_c, 9, 80, 0
5, 53822, Note_on_c, 9, 81, 80
5, 53845, Note_on_c, 9, 81, 0
5, 53881, Note_on_c, 9, 80, 55
5, 53891, Note_on_c, 9, 80, 0
5, 53943, Note_on_c, 9, 80, 73
5, 53955, Note_on_c, 9, 80, 0
5, 54004, Note_on_c, 9, 81, 78
5, 54026, Note_on_c, 9, 81, 0
5, 54061, Note_on_c, 9, 80, 58
5, 54072, Note_on_c, 9, 80, 0
5, 54124, Note_on_c, 9, 81, 87
5, 54147, Note_on_c, 9, 81, 0
5, 54183, Note_on_c, 9, 80, 56
5, 54198, Note_on_c, 9, 80, 0
5, 54242, Note_on_c, 9, 80, 59
5, 54256, Note_on_c, 9, 80, 0
5, 54302, Note_on_c, 9, 81, 81
5, 54322, Note_on_c, 9, 81, 0
5, 54361, Note_on_c, 9, 81, 56
5, 54373, Note_on_c, 9, 81, 0
5, 54425, Note_on_c, 9, 81, 87
5, 54442, Note_on_c, 9, 81, 0
5, 54484, Note_on_c, 9, 81, 89
5, 54509, Note_on_c, 9, 81, 0
5, 54540, Note_on_c, 9, 80, 64
5, 54558, Note_on_c, 9, 80, 0
5, 54601, Note_on_c, 9, 81, 76
5, 54618, Note_on_c, 9, 81, 0
5, 54659, Note_on_c, 9, 80, 78
5, 54679, Note_on_c, 9, 80, 0
5, 54719, Note_on_c, 9, 80, 74
5, 54737, Note_on_c, 9, 80, 0
5, 54781, Note_on_c, 9, 81, 74
5, 54810, Note_on_c, 9, 81, 0
5, 54843, Note_on_c, 9, 80, 38
5, 54851, Note_on_c, 9, 80, 0
5, 54905, Note_on_c, 9, 81, 79
5, 54928, Note_on_c, 9, 81, 0
5, 54961, Note_on_c, 9, 81, 74
5, 55000, Note_on_c, 9, 81, 0
5, 55018, Note_on_c, 9, 80, 46
5, 55036, Note_on_c, 9, 80, 0
5, 55078, Note_on_c, 9, 81, 77
5, 55119, Note_on_c, 9, 81, 0
5, 55137, Note_on_c, 9, 81, 55
5, 55156, Note_on_c, 9, 81, 0
5, 55199, Note_on_c, 9, 81, 79
5, 55240, Note_on_c, 9, 81, 0
5, 55260, Note_on_c, 9, 80, 51
5, 55277, Note_on_c, 9, 80, 0
5, 55322, Note_on_c, 9, 81, 71
5, 55354, Note_on_c, 9, 81, 0
5, 55385, Note_on_c, 9, 80, 34
5, 55394, Note_on_c, 9, 80, 0
5, 55442, Note_on_c, 9, 81, 72
5, 55460, Note_on_c, 9, 81, 0
5, 55503, Note_on_c, 9, 80, 61
5, 55516, Note_on_c, 9, 80, 0
5, 55559, Note_on_c, 9, 81, 79
5, 55586, Note_on_c, 9, 81, 0
5, 55617, Note_on_c, 9, 80, 60
5, 55631, Note_on_c, 9, 80, 0
5, 55676, Note_on_c, 9, 81, 69
5, 55693, Note_on_c, 9, 81, 0
5, 55738, Note_on_c, 9, 81, 68
5, 55751, Note_on_c, 9, 81, 0
5, 55799, Note_on_c, 9, 81, 71
5, 55824, Note_on_c, 9, 81, 0
5, 55859, Note_on_c, 9, 80, 60
5, 55875, Note_on_c, 9, 80, 0
5, 55925, Note_on_c, 9, 81, 71
5, 55941, Note_on_c, 9, 81, 0
5, 55981, Note_on_c, 9, 81, 78
5, 55997, Note_on_c, 9, 81, 0
5, 56042, Note_on_c, 9, 81, 72
5, 56071, Note_on_c, 9, 81, 0
5, 56097, Note_on_c, 9, 80, 62
5, 56115, Note_on_c, 9, 80, 0
5, 56157, Note_on_c, 9, 80, 60
5, 56172, Note_on_c, 9, 80, 0
5, 56219, Note_on_c, 9, 81, 78
5, 56256, Note_on_c, 9, 81, 0
5, 56278, Note_on_c, 9, 80, 52
5, 56293, Note_on_c, 9, 80, 0
5, 56344, Note_on_c, 9, 80, 69
5, 56358, Note_on_c, 9, 80, 0
5, 56406, Note_on_c, 9, 81, 75
5, 56438, Note_on_c, 9, 81, 0
5, 56464, Note_on_c, 9, 80, 57
5, 56479, Note_on_c, 9, 80, 0
5, 56529, Note_on_c, 9, 81, 83
5, 56560, Note_on_c, 9, 81, 0
5, 56584, Note_on_c, 9, 80, 60
5, 56601, Note_on_c, 9, 80, 0
5, 56646, Note_on_c, 9, 80, 70
5, 56662, Note_on_c, 9, 80, 0
5, 56707, Note_on_c, 9, 80, 69
5, 56721, Note_on_c, 9, 80, 0
5, 56765, Note_on_c, 9, 81, 80
5, 56794, Note_on_c, 9, 81, 0
5, 56827, Note_on_c, 9, 80, 58
5, 56842, Note_on_c, 9, 80, 0
5, 56885, Note_on_c, 9, 80, 57
5, 56898, Note_on_c, 9, 80, 0
5, 56947, Note_on_c, 9, 81, 85
5, 56970, Note_on_c, 9, 81, 0
5, 57003, Note_on_c, 9, 80, 61
5, 57018, Note_on_c, 9, 80, 0
5, 57064, Note_on_c, 9, 80, 75
5, 57081, Note_on_c, 9, 80, 0
5, 57123, Note_on_c, 9, 81, 77
5, 57152, Note_on_c, 9, 81, 0
5, 57181, Note_on_c, 9, 80, 64
5, 57198, Note_on_c, 9, 80, 0
5, 57237, Note_on_c, 9, 80, 64
5, 57253, Note_on_c, 9, 80, 0
5, 57301, Note_on_c, 9, 81, 79
5, 57324, Note_on_c, 9, 81, 0
5, 57361, Note_on_c, 9, 80, 62
5, 57376, Note_on_c, 9, 80, 0
5, 57423, Note_on_c, 9, 80, 64
5, 57441, Note_on_c, 9, 80, 0
5, 57487, Note_on_c, 9, 81, 76
5, 57512, Note_on_c, 9, 81, 0
5, 57547, Note_on_c, 9, 80, 63
5, 57560, Note_on_c, 9, 80, 0
5, 57604, Note_on_c, 9, 80, 69
5, 57620, Note_on_c, 9, 80, 0
5, 57664, Note_on_c, 9, 81, 75
5, 57685, Note_on_c, 9, 81, 0
5, 57723, Note_on_c, 9, 80, 62
5, 57737, Note_on_c, 9, 80, 0
5, 57786, Note_on_c, 9, 81, 81
5, 57805, Note_on_c, 9, 81, 0
5, 57844, Note_on_c, 9, 81, 78
5, 57866, Note_on_c, 9, 81, 0
5, 57906, Note_on_c, 9, 80, 68
5, 57920, Note_on_c, 9, 80, 0
5, 57961, Note_on_c, 9, 81, 79
5, 57976, Note_on_c, 9, 81, 0
5, 58021, Note_on_c, 9, 81, 88
5, 58035, Note_on_c, 9, 81, 0
5, 58080, Note_on_c, 9, 81, 87
5, 58102, Note_on_c, 9, 81, 0
5, 58139, Note_on_c, 9, 80, 59
5, 58151, Note_on_c, 9, 80, 0
5, 58199, Note_on_c, 9, 81, 74
5, 58215, Note_on_c, 9, 81, 0
5, 58261, Note_on_c, 9, 80, 62
5, 58275, Note_on_c, 9, 80, 0
5, 58323, Note_on_c, 9, 81, 78
5, 58338, Note_on_c, 9, 81, 0
5, 58380, Note_on_c, 9, 81, 79
5, 58395, Note_on_c, 9, 81, 0
5, 58438, Note_on_c, 9, 81, 85
5, 58476, Note_on_c, 9, 81, 0
5, 58495, Note_on_c, 9, 80, 56
5, 58511, Note_on_c, 9, 80, 0
5, 58561, Note_on_c, 9, 81, 82
5, 58580, Note_on_c, 9, 81, 0
5, 58622, Note_on_c, 9, 81, 75
5, 58637, Note_on_c, 9, 81, 0
5, 58679, Note_on_c, 9, 81, 87
5, 58711, Note_on_c, 9, 81, 0
5, 58740, Note_on_c, 9, 80, 51
5, 58753, Note_on_c, 9, 80, 0
5, 58803, Note_on_c, 9, 81, 62
5, 58814, Note_on_c, 9, 81, 0
5, 58863, Note_on_c, 9, 81, 84
5, 58878, Note_on_c, 9, 81, 0
5, 58924, Note_on_c, 9, 81, 95
5, 58943, Note_on_c, 9, 81, 0
5, 58980, Note_on_c, 9, 81, 103
5, 59001, Note_on_c, 9, 81, 0
5, 59038, Note_on_c, 9, 81, 92
5, 59057, Note_on_c, 9, 81, 0
5, 59058, Note_on_c, 9, 81, 84
5, 59099, Note_on_c, 9, 81, 0
5, 59103, Note_on_c, 9, 80, 60
5, 59130, Note_on_c, 9, 80, 0
5, 59163, Note_on_c, 9, 80, 64
5, 59177, Note_on_c, 9, 80, 0
5, 59227, Note_on_c, 9, 81, 73
5, 59243, Note_on_c, 9, 81, 0
5, 59285, Note_on_c, 9, 81, 74
5, 59300, Note_on_c, 9, 81, 0
5, 59346, Note_on_c, 9, 80, 69
5, 59358, Note_on_c, 9, 80, 0
5, 59406, Note_on_c, 9, 80, 69
5, 59416, Note_on_c, 9, 80, 0
5, 59470, Note_on_c, 9, 81, 91
5, 59519, Note_on_c, 9, 81, 0
5, 59526, Note_on_c, 9, 80, 44
5, 59541, Note_on_c, 9, 80, 0
5, 59589, Note_on_c, 9, 80, 67
5, 59601, Note_on_c, 9, 80, 0
5, 59647, Note_on_c, 9, 81, 90
5, 59695, Note_on_c, 9, 81, 0
5, 59705, Note_on_c, 9, 80, 56
5, 59723, Note_on_c, 9, 80, 0
5, 59768, Note_on_c, 9, 80, 63
5, 59779, Note_on_c, 9, 80, 0
5, 59825, Note_on_c, 9, 80, 73
5, 59836, Note_on_c, 9, 80, 0
5, 59886, Note_on_c, 9, 81, 87
5, 59931, Note_on_c, 9, 81, 0
5, 59942, Note_on_c, 9, 80, 45
5, 59955, Note_on_c, 9, 80, 0
5, 60004, Note_on_c, 9, 81, 81
5, 60050, Note_on_c, 9, 81, 0
5, 60061, Note_on_c, 9, 80, 46
5, 60084, Note_on_c, 9, 80, 0
5, 60121, Note_on_c, 9, 80, 49
5, 60130, Note_on_c, 9, 80, 0
5, 60187, Note_on_c, 9, 81, 77
5, 60202, Note_on_c, 9, 81, 0
5, 60243, Note_on_c, 9, 80, 47
5, 60250, Note_on_c, 9, 80, 0
5, 60305, Note_on_c, 9, 81, 80
5, 60326, Note_on_c, 9, 81, 0
5, 60364, Note_on_c, 9, 80, 57
5, 60376, Note_on_c, 9, 80, 0
5, 60425, Note_on_c, 9, 80, 64
5, 60438, Note_on_c, 9, 80, 0
5, 60489, Note_on_c, 9, 80, 58
5, 60500, Note_on_c, 9, 80, 0
5, 60544, Note_on_c, 9, 80, 74
5, 60562, Note_on_c, 9, 80, 0
5, 60600, Note_on_c, 9, 81, 83
5, 60636, Note_on_c, 9, 81, 0
5, 60655, Note_on_c, 9, 80, 59
5, 60670, Note_on_c, 9, 80, 0
5, 60719, Note_on_c, 9, 80, 69
5, 60732, Note_on_c, 9, 80, 0
5, 60784, Note_on_c, 9, 81, 76
5, 60799, Note_on_c, 9, 81, 0
5, 60845, Note_on_c, 9, 81, 71
5, 60886, Note_on_c, 9, 81, 0
5, 60903, Note_on_c, 9, 80, 67
5, 60918, Note_on_c, 9, 80, 0
5, 60966, Note_on_c, 9, 80, 65
5, 60978, Note_on_c, 9, 80, 0
5, 61030, Note_on_c, 9, 81, 71
5, 61045, Note_on_c, 9, 81, 0
5, 61087, Note_on_c, 9, 81, 87
5, 61132, Note_on_c, 9, 81, 0
5, 61145, Note_on_c, 9, 80, 55
5, 61158, Note_on_c, 9, 80, 0
5, 61208, Note_on_c, 9, 81, 71
5, 61220, Note_on_c, 9, 81, 0
5, 61264, Note_on_c, 9, 81, 71
5, 61280, Note_on_c, 9, 81, 0
5, 61318, Note_on_c, 9, 80, 59
5, 61327, Note_on_c, 9, 80, 0
5, 61381, Note_on_c, 9, 81, 78
5, 61398, Note_on_c, 9, 81, 0
5, 61440, Note_on_c, 9, 81, 71
5, 61461, Note_on_c, 9, 81, 0
5, 61504, Note_on_c, 9, 80, 56
5, 61513, Note_on_c, 9, 80, 0
5, 61566, Note_on_c, 9, 81, 60
5, 61574, Note_on_c, 9, 81, 0
5, 61598, Note_on_c, 9, 81, 73
5, 61624, Note_on_c, 9, 81, 0
5, 61625, Note_on_c, 9, 80, 69
5, 61640, Note_on_c, 9, 80, 0
5, 61682, Note_on_c, 9, 81, 66
5, 61700, Note_on_c, 9, 81, 0
5, 61740, Note_on_c, 9, 81, 79
5, 61757, Note_on_c, 9, 81, 0
5, 61798, Note_on_c, 9, 81, 74
5, 61824, Note_on_c, 9, 81, 0
5, 61857, Note_on_c, 9, 80, 54
5, 61872, Note_on_c, 9, 80, 0
5, 61921, Note_on_c, 9, 81, 65
5, 61938, Note_on_c, 9, 81, 0
5, 61980, Note_on_c, 9, 81, 65
5, 61994, Note_on_c, 9, 81, 0
5, 62040, Note_on_c, 9, 81, 71
5, 62058, Note_on_c, 9, 81, 0
5, 62093, Note_on_c, 9, 80, 59
5, 62106, Note_on_c, 9, 80, 0
5, 62157, Note_on_c, 9, 81, 67
5, 62173, Note_on_c, 9, 81, 0
5, 62218, Note_on_c, 9, 81, 64
5, 62234, Note_on_c, 9, 81, 0
5, 62275, Note_on_c, 9, 80, 58
5, 62285, Note_on_c, 9, 80, 0
5, 62343, Note_on_c, 9, 81, 74
5, 62359, Note_on_c, 9, 81, 0
5, 62404, Note_on_c, 9, 81, 68
5, 62419, Note_on_c, 9, 81, 0
5, 62462, Note_on_c, 9, 81, 71
5, 62478, Note_on_c, 9, 81, 0
5, 62521, Note_on_c, 9, 81, 67
5, 62534, Note_on_c, 9, 81, 0
5, 62584, Note_on_c, 9, 81, 72
5, 62598, Note_on_c, 9, 81, 0
5, 62645, Note_on_c, 9, 81, 64
5, 62656, Note_on_c, 9, 81, 0
5, 62706, Note_on_c, 9, 80, 74
5, 62719, Note_on_c, 9, 80, 0
5, 62769, Note_on_c, 9, 81, 67
5, 62780, Note_on_c, 9, 81, 0
5, 62830, Note_on_c, 9, 81, 88
5, 62843, Note_on_c, 9, 81, 0
5, 62890, Note_on_c, 9, 81, 87
5, 62910, Note_on_c, 9, 81, 0
5, 62949, Note_on_c, 9, 80, 62
5, 62961, Note_on_c, 9, 80, 0
5, 63012, Note_on_c, 9, 81, 77
5, 63028, Note_on_c, 9, 81, 0
5, 63071, Note_on_c, 9, 81, 80
5, 63086, Note_on_c, 9, 81, 0
5, 63131, Note_on_c, 9, 81, 77
5, 63152, Note_on_c, 9, 81, 0
5, 63186, Note_on_c, 9, 80, 62
5, 63200, Note_on_c, 9, 80, 0
5, 63244, Note_on_c, 9, 81, 78
5, 63263, Note_on_c, 9, 81, 0
5, 63301, Note_on_c, 9, 81, 68
5, 63318, Note_on_c, 9, 81, 0
5, 63360, Note_on_c, 9, 80, 60
5, 63370, Note_on_c, 9, 80, 0
5, 63422, Note_on_c, 9, 81, 81
5, 63442, Note_on_c, 9, 81, 0
5, 63482, Note_on_c, 9, 81, 85
5, 63517, Note_on_c, 9, 81, 0
5, 63541, Note_on_c, 9, 80, 40
5, 63558, Note_on_c, 9, 80, 0
5, 63603, Note_on_c, 9, 81, 87
5, 63629, Note_on_c, 9, 81, 0
5, 63665, Note_on_c, 9, 81, 91
5, 63688, Note_on_c, 9, 81, 0
5, 63722, Note_on_c, 9, 81, 90
5, 63753, Note_on_c, 9, 81, 0
5, 63776, Note_on_c, 9, 80, 67
5, 63795, Note_on_c, 9, 80, 0
5, 63836, Note_on_c, 9, 81, 84
5, 63865, Note_on_c, 9, 81, 0
5, 63899, Note_on_c, 9, 81, 74
5, 63916, Note_on_c, 9, 81, 0
5, 63956, Note_on_c, 9, 81, 82
5, 63988, Note_on_c, 9, 81, 0
5, 64015, Note_on_c, 9, 80, 57
5, 64034, Note_on_c, 9, 80, 0
5, 64083, Note_on_c, 9, 81, 68
5, 64099, Note_on_c, 9, 81, 0
5, 64142, Note_on_c, 9, 81, 70
5, 64159, Note_on_c, 9, 81, 0
5, 64199, Note_on_c, 9, 80, 64
5, 64213, Note_on_c, 9, 80, 0
5, 64266, Note_on_c, 9, 81, 75
5, 64282, Note_on_c, 9, 81, 0
5, 64325, Note_on_c, 9, 81, 66
5, 64343, Note_on_c, 9, 81, 0
5, 64385, Note_on_c, 9, 80, 54
5, 64395, Note_on_c, 9, 80, 0
5, 64444, Note_on_c, 9, 81, 68
5, 64460, Note_on_c, 9, 81, 0
5, 64503, Note_on_c, 9, 81, 71
5, 64519, Note_on_c, 9, 81, 0
5, 64561, Note_on_c, 9, 80, 62
5, 64575, Note_on_c, 9, 80, 0
5, 64625, Note_on_c, 9, 81, 71
5, 64641, Note_on_c, 9, 81, 0
5, 64681, Note_on_c, 9, 81, 72
5, 64698, Note_on_c, 9, 81, 0
5, 64742, Note_on_c, 9, 80, 64
5, 64756, Note_on_c, 9, 80, 0
5, 64802, Note_on_c, 9, 81, 68
5, 64818, Note_on_c, 9, 81, 0
5, 64862, Note_on_c, 9, 81, 74
5, 64878, Note_on_c, 9, 81, 0
5, 64920, Note_on_c, 9, 80, 82
5, 64934, Note_on_c, 9, 80, 0
5, 64986, Note_on_c, 9, 81, 88
5, 65000, Note_on_c, 9, 81, 0
5, 65043, Note_on_c, 9, 81, 90
5, 65094, Note_on_c, 9, 81, 0
5, 65104, Note_on_c, 9, 80, 71
5, 65121, Note_on_c, 9, 80, 0
5, 65162, Note_on_c, 9, 81, 74
5, 65177, Note_on_c, 9, 81, 0
5, 65224, Note_on_c, 9, 81, 96
5, 65244, Note_on_c, 9, 81, 0
5, 65280, Note_on_c, 9, 80, 52
5, 65288, Note_on_c, 9, 80, 0
5, 65341, Note_on_c, 9, 81, 87
5, 65355, Note_on_c, 9, 81, 0
5, 65401, Note_on_c, 9, 81, 83
5, 65448, Note_on_c, 9, 81, 0
5, 65458, Note_on_c, 9, 80, 55
5, 65476, Note_on_c, 9, 80, 0
5, 65519, Note_on_c, 9, 81, 80
5, 65539, Note_on_c, 9, 81, 0
5, 65585, Note_on_c, 9, 81, 77
5, 65604, Note_on_c, 9, 81, 0
5, 65644, Note_on_c, 9, 80, 65
5, 65658, Note_on_c, 9, 80, 0
5, 65705, Note_on_c, 9, 80, 70
5, 65722, Note_on_c, 9, 80, 0
5, 65765, Note_on_c, 9, 81, 70
5, 65789, Note_on_c, 9, 81, 0
5, 65828, Note_on_c, 9, 80, 61
5, 65841, Note_on_c, 9, 80, 0
5, 65884, Note_on_c, 9, 81, 78
5, 65904, Note_on_c, 9, 81, 0
5, 65942, Note_on_c, 9, 81, 87
5, 65965, Note_on_c, 9, 81, 0
5, 66000, Note_on_c, 9, 80, 45
5, 66008, Note_on_c, 9, 80, 0
5, 66061, Note_on_c, 9, 80, 63
5, 66075, Note_on_c, 9, 80, 0
5, 66120, Note_on_c, 9, 80, 67
5, 66134, Note_on_c, 9, 80, 0
5, 66180, Note_on_c, 9, 80, 77
5, 66200, Note_on_c, 9, 80, 0
5, 66240, Note_on_c, 9, 81, 78
5, 66270, Note_on_c, 9, 81, 0
5, 66301, Note_on_c, 9, 80, 60
5, 66315, Note_on_c, 9, 80, 0
5, 66361, Note_on_c, 9, 81, 70
5, 66377, Note_on_c, 9, 81, 0
5, 66421, Note_on_c, 9, 80, 73
5, 66434, Note_on_c, 9, 80, 0
5, 66483, Note_on_c, 9, 80, 62
5, 66497, Note_on_c, 9, 80, 0
5, 66548, Note_on_c, 9, 81, 87
5, 66573, Note_on_c, 9, 81, 0
5, 66605, Note_on_c, 9, 80, 55
5, 66619, Note_on_c, 9, 80, 0
5, 66664, Note_on_c, 9, 81, 91
5, 66684, Note_on_c, 9, 81, 0
5, 66721, Note_on_c, 9, 81, 88
5, 66755, Note_on_c, 9, 81, 0
5, 66766, Note_on_c, 9, 80, 56
5, 66782, Note_on_c, 9, 80, 0
5, 66834, Note_on_c, 9, 81, 74
5, 66849, Note_on_c, 9, 81, 0
5, 66895, Note_on_c, 9, 81, 88
5, 66924, Note_on_c, 9, 81, 0
5, 66956, Note_on_c, 9, 80, 64
5, 66971, Note_on_c, 9, 80, 0
5, 67019, Note_on_c, 9, 81, 80
5, 67037, Note_on_c, 9, 81, 0
5, 67080, Note_on_c, 9, 81, 74
5, 67097, Note_on_c, 9, 81, 0
5, 67145, Note_on_c, 9, 80, 64
5, 67158, Note_on_c, 9, 80, 0
5, 67206, Note_on_c, 9, 81, 79
5, 67223, Note_on_c, 9, 81, 0
5, 67267, Note_on_c, 9, 81, 75
5, 67282, Note_on_c, 9, 81, 0
5, 67327, Note_on_c, 9, 81, 74
5, 67350, Note_on_c, 9, 81, 0
5, 67382, Note_on_c, 9, 80, 58
5, 67398, Note_on_c, 9, 80, 0
5, 67448, Note_on_c, 9, 81, 74
5, 67463, Note_on_c, 9, 81, 0
5, 67504, Note_on_c, 9, 81, 81
5, 67520, Note_on_c, 9, 81, 0
5, 67565, Note_on_c, 9, 81, 79
5, 67586, Note_on_c, 9, 81, 0
5, 67622, Note_on_c, 9, 80, 62
5, 67638, Note_on_c, 9, 80, 0
5, 67687, Note_on_c, 9, 81, 76
5, 67703, Note_on_c, 9, 81, 0
5, 67746, Note_on_c, 9, 81, 80
5, 67763, Note_on_c, 9, 81, 0
5, 67809, Note_on_c, 9, 80, 60
5, 67816, Note_on_c, 9, 80, 0
5, 67868, Note_on_c, 9, 81, 73
5, 67884, Note_on_c, 9, 81, 0
5, 67922, Note_on_c, 9, 81, 73
5, 67944, Note_on_c, 9, 81, 0
5, 67983, Note_on_c, 9, 80, 56
5, 67995, Note_on_c, 9, 80, 0
5, 68047, Note_on_c, 9, 81, 71
5, 68062, Note_on_c, 9, 81, 0
5, 68107, Note_on_c, 9, 81, 69
5, 68123, Note_on_c, 9, 81, 0
5, 68164, Note_on_c, 9, 81, 79
5, 68193, Note_on_c, 9, 81, 0
5, 68220, Note_on_c, 9, 80, 59
5, 68235, Note_on_c, 9, 80, 0
5, 68283, Note_on_c, 9, 81, 75
5, 68299, Note_on_c, 9, 81, 0
5, 68342, Note_on_c, 9, 80, 63
5, 68353, Note_on_c, 9, 80, 0
5, 68404, Note_on_c, 9, 81, 74
5, 68420, Note_on_c, 9, 81, 0
5, 68460, Note_on_c, 9, 81, 80
5, 68474, Note_on_c, 9, 81, 0
5, 68517, Note_on_c, 9, 81, 91
5, 68546, Note_on_c, 9, 81, 0
5, 68573, Note_on_c, 9, 80, 58
5, 68588, Note_on_c, 9, 80, 0
5, 68640, Note_on_c, 9, 81, 78
5, 68660, Note_on_c, 9, 81, 0
5, 68703, Note_on_c, 9, 80, 59
5, 68715, Note_on_c, 9, 80, 0
5, 68765, Note_on_c, 9, 80, 70
5, 68777, Note_on_c, 9, 80, 0
5, 68820, Note_on_c, 9, 81, 88
5, 68853, Note_on_c, 9, 81, 0
5, 68881, Note_on_c, 9, 80, 45
5, 68890, Note_on_c, 9, 80, 0
5, 68944, Note_on_c, 9, 80, 71
5, 68957, Note_on_c, 9, 80, 0
5, 69004, Note_on_c, 9, 81, 64
5, 69021, Note_on_c, 9, 81, 0
5, 69065, Note_on_c, 9, 80, 64
5, 69077, Note_on_c, 9, 80, 0
5, 69124, Note_on_c, 9, 80, 64
5, 69133, Note_on_c, 9, 80, 0
5, 69181, Note_on_c, 9, 81, 79
5, 69204, Note_on_c, 9, 81, 0
5, 69236, Note_on_c, 9, 80, 61
5, 69249, Note_on_c, 9, 80, 0
5, 69302, Note_on_c, 9, 80, 87
5, 69317, Note_on_c, 9, 80, 0
5, 69364, Note_on_c, 9, 81, 68
5, 69381, Note_on_c, 9, 81, 0
5, 69418, Note_on_c, 9, 80, 69
5, 69434, Note_on_c, 9, 80, 0
5, 69480, Note_on_c, 9, 81, 74
5, 69497, Note_on_c, 9, 81, 0
5, 69540, Note_on_c, 9, 80, 67
5, 69554, Note_on_c, 9, 80, 0
5, 69600, Note_on_c, 9, 80, 70
5, 69614, Note_on_c, 9, 80, 0
5, 69662, Note_on_c, 9, 81, 80
5, 69685, Note_on_c, 9, 81, 0
5, 69721, Note_on_c, 9, 80, 55
5, 69731, Note_on_c, 9, 80, 0
5, 69783, Note_on_c, 9, 80, 73
5, 69795, Note_on_c, 9, 80, 0
5, 69844, Note_on_c, 9, 81, 78
5, 69866, Note_on_c, 9, 81, 0
5, 69901, Note_on_c, 9, 80, 58
5, 69912, Note_on_c, 9, 80, 0
5, 69964, Note_on_c, 9, 81, 87
5, 69987, Note_on_c, 9, 81, 0
5, 70023, Note_on_c, 9, 80, 56
5, 70038, Note_on_c, 9, 80, 0
5, 70082, Note_on_c, 9, 80, 59
5, 70096, Note_on_c, 9, 80, 0
5, 70142, Note_on_c, 9, 81, 81
5, 70162, Note_on_c, 9, 81, 0
5, 70201, Note_on_c, 9, 81, 56
5, 70213, Note_on_c, 9, 81, 0
5, 70265, Note_on_c, 9, 81, 87
5, 70282, Note_on_c, 9, 81, 0
5, 70324, Note_on_c, 9, 81, 89
5, 70349, Note_on_c, 9, 81, 0
5, 70380, Note_on_c, 9, 80, 64
5, 70398, Note_on_c, 9, 80, 0
5, 70441, Note_on_c, 9, 81, 76
5, 70458, Note_on_c, 9, 81, 0
5, 70499, Note_on_c, 9, 80, 78
5, 70519, Note_on_c, 9, 80, 0
5, 70559, Note_on_c, 9, 80, 74
5, 70577, Note_on_c, 9, 80, 0
5, 70621, Note_on_c, 9, 81, 74
5, 70650, Note_on_c, 9, 81, 0
5, 70683, Note_on_c, 9, 80, 38
5, 70691, Note_on_c, 9, 80, 0
5, 70745, Note_on_c, 9, 81, 79
5, 70768, Note_on_c, 9, 81, 0
5, 70801, Note_on_c, 9, 81, 74
5, 70840, Note_on_c, 9, 81, 0
5, 70858, Note_on_c, 9, 80, 46
5, 70876, Note_on_c, 9, 80, 0
5, 70918, Note_on_c, 9, 81, 77
5, 70959, Note_on_c, 9, 81, 0
5, 70977, Note_on_c, 9, 81, 55
5, 70996, Note_on_c, 9, 81, 0
5, 71039, Note_on_c, 9, 81, 79
5, 71080, Note_on_c, 9, 81, 0
5, 71100, Note_on_c, 9, 80, 51
5, 71117, Note_on_c, 9, 80, 0
5, 71162, Note_on_c, 9, 81, 71
5, 71194, Note_on_c, 9, 81, 0
5, 71225, Note_on_c, 9, 80, 34
5, 71234, Note_on_c, 9, 80, 0
5, 71282, Note_on_c, 9, 81, 72
5, 71300, Note_on_c, 9, 81, 0
5, 71343, Note_on_c, 9, 80, 61
5, 71356, Note_on_c, 9, 80, 0
5, 71399, Note_on_c, 9, 81, 79
5, 71426, Note_on_c, 9, 81, 0
5, 71457, Note_on_c, 9, 80, 60
5, 71471, Note_on_c, 9, 80, 0
5, 71516, Note_on_c, 9, 81, 69
5, 71533, Note_on_c, 9, 81, 0
5, 71578, Note_on_c, 9, 81, 68
5, 71591, Note_on_c, 9, 81, 0
5, 71639, Note_on_c, 9, 81, 71
5, 71664, Note_on_c, 9, 81, 0
5, 71699, Note_on_c, 9, 80, 60
5, 71715, Note_on_c, 9, 80, 0
5, 71765, Note_on_c, 9, 81, 71
5, 71781, Note_on_c, 9, 81, 0
5, 71821, Note_on_c, 9, 81, 78
5, 71837, Note_on_c, 9, 81, 0
5, 71882, Note_on_c, 9, 81, 72
5, 71911, Note_on_c, 9, 81, 0
5, 71937, Note_on_c, 9, 80, 62
5, 71955, Note_on_c, 9, 80, 0
5, 71997, Note_on_c, 9, 80, 60
5, 72012, Note_on_c, 9, 80, 0
5, 72059, Note_on_c, 9, 81, 78
5, 72096, Note_on_c, 9, 81, 0
5, 72118, Note_on_c, 9, 80, 52
5, 72133, Note_on_c, 9, 80, 0
5, 72184, Note_on_c, 9, 80, 69
5, 72198, Note_on_c, 9, 80, 0
5, 72246, Note_on_c, 9, 81, 75
5, 72278, Note_on_c, 9, 81, 0
5, 72304, Note_on_c, 9, 80, 57
5, 72319, Note_on_c, 9, 80, 0
5, 72369, Note_on_c, 9, 81, 83
5, 72400, Note_on_c, 9, 81, 0
5, 72424, Note_on_c, 9, 80, 60
5, 72441, Note_on_c, 9, 80, 0
5, 72486, Note_on_c, 9, 80, 70
5, 72502, Note_on_c, 9, 80, 0
5, 72547, Note_on_c, 9, 80, 69
5, 72561, Note_on_c, 9, 80, 0
5, 72605, Note_on_c, 9, 81, 80
5, 72634, Note_on_c, 9, 81, 0
5, 72667, Note_on_c, 9, 80, 58
5, 72682, Note_on_c, 9, 80, 0
5, 72725, Note_on_c, 9, 80, 57
5, 72738, Note_on_c, 9, 80, 0
5, 72787, Note_on_c, 9, 81, 85
5, 72810, Note_on_c, 9, 81, 0
5, 72843, Note_on_c, 9, 80, 61
5, 72858, Note_on_c, 9, 80, 0
5, 72904, Note_on_c, 9, 80, 75
5, 72921, Note_on_c, 9, 80, 0
5, 72963, Note_on_c, 9, 81, 77
5, 72992, Note_on_c, 9, 81, 0
5, 73021, Note_on_c, 9, 80, 64
5, 73038, Note_on_c, 9, 80, 0
5, 73077, Note_on_c, 9, 80, 64
5, 73093, Note_on_c, 9, 80, 0
5, 73141, Note_on_c, 9, 81, 79
5, 73164, Note_on_c, 9, 81, 0
5, 73201, Note_on_c, 9, 80, 62
5, 73216, Note_on_c, 9, 80, 0
5, 73263, Note_on_c, 9, 80, 64
5, 73281, Note_on_c, 9, 80, 0
5, 73327, Note_on_c, 9, 81, 76
5, 73352, Note_on_c, 9, 81, 0
5, 73387, Note_on_c, 9, 80, 63
5, 73400, Note_on_c, 9, 80, 0
5, 73444, Note_on_c, 9, 80, 69
5, 73460, Note_on_c, 9, 80, 0
5, 73504, Note_on_c, 9, 81, 75
5, 73525, Note_on_c, 9, 81, 0
5, 73563, Note_on_c, 9, 80, 62
5, 73577, Note_on_c, 9, 80, 0
5, 73626, Note_on_c, 9, 81, 81
5, 73645, Note_on_c, 9, 81, 0
5, 73684, Note_on_c, 9, 81, 78
5, 73706, Note_on_c, 9, 81, 0
5, 73746, Note_on_c, 9, 80, 68
5, 73760, Note_on_c, 9, 80, 0
5, 73801, Note_on_c, 9, 81, 79
5, 73816, Note_on_c, 9, 81, 0
5, 73861, Note_on_c, 9, 81, 88
5, 73875, Note_on_c, 9, 81, 0
5, 73920, Note_on_c, 9, 81, 87
5, 73942, Note_on_c, 9, 81, 0
5, 73979, Note_on_c, 9, 80, 59
5, 73991, Note_on_c, 9, 80, 0
5, 74039, Note_on_c, 9, 81, 74
5, 74055, Note_on_c, 9, 81, 0
5, 74101, Note_on_c, 9, 80, 62
5, 74115, Note_on_c, 9, 80, 0
5, 74163, Note_on_c, 9, 81, 78
5, 74178, Note_on_c, 9, 81, 0
5, 74220, Note_on_c, 9, 81, 79
5, 74235, Note_on_c, 9, 81, 0
5, 74278, Note_on_c, 9, 81, 85
5, 74316, Note_on_c, 9, 81, 0
5, 74335, Note_on_c, 9, 80, 56
5, 74351, Note_on_c, 9, 80, 0
5, 74401, Note_on_c, 9, 81, 82
5, 74420, Note_on_c, 9, 81, 0
5, 74462, Note_on_c, 9, 81, 75
5, 74477, Note_on_c, 9, 81, 0
5, 74519, Note_on_c, 9, 81, 87
5, 74551, Note_on_c, 9, 81, 0
5, 74580, Note_on_c, 9, 80, 51
5, 74593, Note_on_c, 9, 80, 0
5, 74643, Note_on_c, 9, 81, 62
5, 74654, Note_on_c, 9, 81, 0
5, 74703, Note_on_c, 9, 81, 84
5, 74718, Note_on_c, 9, 81, 0
5, 74764, Note_on_c, 9, 81, 95
5, 74783, Note_on_c, 9, 81, 0
5, 74820, Note_on_c, 9, 81, 103
5, 74841, Note_on_c, 9, 81, 0
5, 74878, Note_on_c, 9, 81, 92
5, 74897, Note_on_c, 9, 81, 0
5, 74898, Note_on_c, 9, 81, 84
5, 74939, Note_on_c, 9, 81, 0
5, 74943, Note_on_c, 9, 80, 60
5, 74970, Note_on_c, 9, 80, 0
5, 75003, Note_on_c, 9, 80, 64
5, 75017, Note_on_c, 9, 80, 0
5, 75067, Note_on_c, 9, 81, 73
5, 75083, Note_on_c, 9, 81, 0
5, 75125, Note_on_c, 9, 81, 74
5, 75140, Note_on_c, 9, 81, 0
5, 75186, Note_on_c, 9, 80, 69
5, 75198, Note_on_c, 9, 80, 0
5, 75246, Note_on_c, 9, 80, 69
5, 75256, Note_on_c, 9, 80, 0
5, 75310, Note_on_c, 9, 81, 91
5, 75359, Note_on_c, 9, 81, 0
5, 75366, Note_on_c, 9, 80, 44
5, 75381, Note_on_c, 9, 80, 0
5, 75429, Note_on_c, 9, 80, 67
5, 75441, Note_on_c, 9, 80, 0
5, 75487, Note_on_c, 9, 81, 90
5, 75535, Note_on_c, 9, 81, 0
5, 75545, Note_on_c, 9, 80, 56
5, 75563, Note_on_c, 9, 80, 0
5, 75608, Note_on_c, 9, 80, 63
5, 75619, Note_on_c, 9, 80, 0
5, 75665, Note_on_c, 9, 80, 73
5, 75676, Note_on_c, 9, 80, 0
5, 75726, Note_on_c, 9, 81, 87
5, 75771, Note_on_c, 9, 81, 0
5, 75782, Note_on_c, 9, 80, 45
5, 75795, Note_on_c, 9, 80, 0
5, 75844, Note_on_c, 9, 81, 81
5, 75890, Note_on_c, 9, 81, 0
5, 75901, Note_on_c, 9, 80, 46
5, 75924, Note_on_c, 9, 80, 0
5, 75961, Note_on_c, 9, 80, 49
5, 75970, Note_on_c, 9, 80, 0
5, 76027, Note_on_c, 9, 81, 77
5, 76042, Note_on_c, 9, 81, 0
5, 76083, Note_on_c, 9, 80, 47
5, 76090, Note_on_c, 9, 80, 0
5, 76145, Note_on_c, 9, 81, 80
5, 76166, Note_on_c, 9, 81, 0
5, 76204, Note_on_c, 9, 80, 57
5, 76216, Note_on_c, 9, 80, 0
5, 76265, Note_on_c, 9, 80, 64
5, 76278, Note_on_c, 9, 80, 0
5, 76329, Note_on_c, 9, 80, 58
5, 76340, Note_on_c, 9, 80, 0
5, 76384, Note_on_c, 9, 80, 74
5, 76402, Note_on_c, 9, 80, 0
5, 76440, Note_on_c, 9, 81, 83
5, 76476, Note_on_c, 9, 81, 0
5, 76495, Note_on_c, 9, 80, 59
5, 76510, Note_on_c, 9, 80, 0
5, 76559, Note_on_c, 9, 80, 69
5, 76572, Note_on_c, 9, 80, 0
5, 76624, Note_on_c, 9, 81, 76
5, 76639, Note_on_c, 9, 81, 0
5, 76685, Note_on_c, 9, 81, 71
5, 76726, Note_on_c, 9, 81, 0
5, 76743, Note_on_c, 9, 80, 67
5, 76758, Note_on_c, 9, 80, 0
5, 76806, Note_on_c, 9, 80, 65
5, 76818, Note_on_c, 9, 80, 0
5, 76870, Note_on_c, 9, 81, 71
5, 76885, Note_on_c, 9, 81, 0
5, 76927, Note_on_c, 9, 81, 87
5, 76972, Note_on_c, 9, 81, 0
5, 76985, Note_on_c, 9, 80, 55
5, 76998, Note_on_c, 9, 80, 0
5, 77048, Note_on_c, 9, 81, 71
5, 77060, Note_on_c, 9, 81, 0
5, 77104, Note_on_c, 9, 81, 71
5, 77120, Note_on_c, 9, 81, 0
5, 77158, Note_on_c, 9, 80, 59
5, 77167, Note_on_c, 9, 80, 0
5, 77221, Note_on_c, 9, 81, 78
5, 77238, Note_on_c, 9, 81, 0
5, 77280, Note_on_c, 9, 81, 71
5, 77301, Note_on_c, 9, 81, 0
5, 77344, Note_on_c, 9, 80, 56
5, 77353, Note_on_c, 9, 80, 0
5, 77406, Note_on_c, 9, 81, 60
5, 77414, Note_on_c, 9, 81, 0
5, 77438, Note_on_c, 9, 81, 73
5, 77464, Note_on_c, 9, 81, 0
5, 77465, Note_on_c, 9, 80, 69
5, 77480, Note_on_c, 9, 80, 0
5, 77522, Note_on_c, 9, 81, 66
5, 77540, Note_on_c, 9, 81, 0
5, 77580, Note_on_c, 9, 81, 79
5, 77597, Note_on_c, 9, 81, 0
5, 77638, Note_on_c, 9, 81, 74
5, 77664, Note_on_c, 9, 81, 0
5, 77697, Note_on_c, 9, 80, 54
5, 77712, Note_on_c, 9, 80, 0
5, 77761, Note_on_c, 9, 81, 65
5, 77778, Note_on_c, 9, 81, 0
5, 77820, Note_on_c, 9, 81, 65
5, 77834, Note_on_c, 9, 81, 0
5, 77880, Note_on_c, 9, 81, 71
5, 77898, Note_on_c, 9, 81, 0
5, 77933, Note_on_c, 9, 80, 59
5, 77946, Note_on_c, 9, 80, 0
5, 77997, Note_on_c, 9, 81, 67
5, 78013, Note_on_c, 9, 81, 0
5, 78058, Note_on_c, 9, 81, 64
5, 78074, Note_on_c, 9, 81, 0
5, 78115, Note_on_c, 9, 80, 58
5, 78125, Note_on_c, 9, 80, 0
5, 78183, Note_on_c, 9, 81, 74
5, 78199, Note_on_c, 9, 81, 0
5, 78244, Note_on_c, 9, 81, 68
5, 78259, Note_on_c, 9, 81, 0
5, 78302, Note_on_c, 9, 81, 71
5, 78318, Note_on_c, 9, 81, 0
5, 78361, Note_on_c, 9, 81, 67
5, 78374, Note_on_c, 9, 81, 0
5, 78424, Note_on_c, 9, 81, 72
5, 78438, Note_on_c, 9, 81, 0
5, 78485, Note_on_c, 9, 81, 64
5, 78496, Note_on_c, 9, 81, 0
5, 78546, Note_on_c, 9, 80, 74
5, 78559, Note_on_c, 9, 80, 0
5, 78609, Note_on_c, 9, 81, 67
5, 78620, Note_on_c, 9, 81, 0
5, 78670, Note_on_c, 9, 81, 88
5, 78683, Note_on_c, 9, 81, 0
5, 78730, Note_on_c, 9, 81, 87
5, 78750, Note_on_c, 9, 81, 0
5, 78789, Note_on_c, 9, 80, 62
5, 78801, Note_on_c, 9, 80, 0
5, 78852, Note_on_c, 9, 81, 77
5, 78868, Note_on_c, 9, 81, 0
5, 78911, Note_on_c, 9, 81, 80
5, 78926, Note_on_c, 9, 81, 0
5, 78971, Note_on_c, 9, 81, 77
5, 78992, Note_on_c, 9, 81, 0
5, 79026, Note_on_c, 9, 80, 62
5, 79040, Note_on_c, 9, 80, 0
5, 79084, Note_on_c, 9, 81, 78
5, 79103, Note_on_c, 9, 81, 0
5, 79141, Note_on_c, 9, 81, 68
5, 79158, Note_on_c, 9, 81, 0
5, 79200, Note_on_c, 9, 80, 60
5, 79210, Note_on_c, 9, 80, 0
5, 79262, Note_on_c, 9, 81, 81
5, 79282, Note_on_c, 9, 81, 0
5, 79322, Note_on_c, 9, 81, 85
5, 79357, Note_on_c, 9, 81, 0
5, 79381, Note_on_c, 9, 80, 40
5, 79398, Note_on_c, 9, 80, 0
5, 79443, Note_on_c, 9, 81, 87
5, 79469, Note_on_c, 9, 81, 0
5, 79505, Note_on_c, 9, 81, 91
5, 79528, Note_on_c, 9, 81, 0
5, 79562, Note_on_c, 9, 81, 90
5, 79593, Note_on_c, 9, 81, 0
5, 79616, Note_on_c, 9, 80, 67
5, 79635, Note_on_c, 9, 80, 0
5, 79676, Note_on_c, 9, 81, 84
5, 79705, Note_on_c, 9, 81, 0
5, 79739, Note_on_c, 9, 81, 74
5, 79756, Note_on_c, 9, 81, 0
5, 79796, Note_on_c, 9, 81, 82
5, 79828, Note_on_c, 9, 81, 0
5, 79855, Note_on_c, 9, 80, 57
5, 79874, Note_on_c, 9, 80, 0
5, 79923, Note_on_c, 9, 81, 68
5, 79939, Note_on_c, 9, 81, 0
5, 79982, Note_on_c, 9, 81, 70
5, 79999, Note_on_c, 9, 81, 0
5, 80039, Note_on_c, 9, 80, 64
5, 80053, Note_on_c, 9, 80, 0
5, 80106, Note_on_c, 9, 81, 75
5, 80122, Note_on_c, 9, 81, 0
5, 80165, Note_on_c, 9, 81, 66
5, 80183, Note_on_c, 9, 81, 0
5, 80225, Note_on_c, 9, 80, 54
5, 80235, Note_on_c, 9, 80, 0
5, 80284, Note_on_c, 9, 81, 68
5, 80300, Note_on_c, 9, 81, 0
5, 80343, Note_on_c, 9, 81, 71
5, 80359, Note_on_c, 9, 81, 0
5, 80401, Note_on_c, 9, 80, 62
5, 80415, Note_on_c, 9, 80, 0
5, 80465, Note_on_c, 9, 81, 71
5, 80481, Note_on_c, 9, 81, 0
5, 80521, Note_on_c, 9, 81, 72
5, 80538, Note_on_c, 9, 81, 0
5, 80582, Note_on_c, 9, 80, 64
5, 80596, Note_on_c, 9, 80, 0
5, 80642, Note_on_c, 9, 81, 68
5, 80658, Note_on_c, 9, 81, 0
5, 80702, Note_on_c, 9, 81, 74
5, 80718, Note_on_c, 9, 81, 0
5, 80760, Note_on_c, 9, 80, 82
5, 80774, Note_on_c, 9, 80, 0
5, 80826, Note_on_c, 9, 81, 88
5, 80840, Note_on_c, 9, 81, 0
5, 80883, Note_on_c, 9, 81, 90
5, 80934, Note_on_c, 9, 81, 0
5, 80944, Note_on_c, 9, 80, 71
5, 80961, Note_on_c, 9, 80, 0
5, 81002, Note_on_c, 9, 81, 74
5, 81017, Note_on_c, 9, 81, 0
5, 81064, Note_on_c, 9, 81, 96
5, 81084, Note_on_c, 9, 81, 0
5, 81120, Note_on_c, 9, 80, 52
5, 81128, Note_on_c, 9, 80, 0
5, 81181, Note_on_c, 9, 81, 87
5, 81195, Note_on_c, 9, 81, 0
5, 81241, Note_on_c, 9, 81, 83
5, 81288, Note_on_c, 9, 81, 0
5, 81298, Note_on_c, 9, 80, 55
5, 81316, Note_on_c, 9, 80, 0
5, 81359, Note_on_c, 9, 81, 80
5, 81379, Note_on_c, 9, 81, 0
5, 81425, Note_on_c, 9, 81, 77
5, 81444, Note_on_c, 9, 81, 0
5, 81484, Note_on_c, 9, 80, 65
5, 81498, Note_on_c, 9, 80, 0
5, 81545, Note_on_c, 9, 80, 70
5, 81562, Note_on_c, 9, 80, 0
5, 81605, Note_on_c, 9, 81, 70
5, 81629, Note_on_c, 9, 81, 0
5, 81668, Note_on_c, 9, 80, 61
5, 81681, Note_on_c, 9, 80, 0
5, 81724, Note_on_c, 9, 81, 78
5, 81744, Note_on_c, 9, 81, 0
5, 81782, Note_on_c, 9, 81, 87
5, 81805, Note_on_c, 9, 81, 0
5, 81840, Note_on_c, 9, 80, 45
5, 81848, Note_on_c, 9, 80, 0
5, 81901, Note_on_c, 9, 80, 63
5, 81915, Note_on_c, 9, 80, 0
5, 81960, Note_on_c, 9, 80, 67
5, 81974, Note_on_c, 9, 80, 0
5, 82020, Note_on_c, 9, 80, 77
5, 82040, Note_on_c, 9, 80, 0
5, 82080, Note_on_c, 9, 81, 78
5, 82110, Note_on_c, 9, 81, 0
5, 82141, Note_on_c, 9, 80, 60
5, 82155, Note_on_c, 9, 80, 0
5, 82201, Note_on_c, 9, 81, 70
5, 82217, Note_on_c, 9, 81, 0
5, 82261, Note_on_c, 9, 80, 73
5, 82274, Note_on_c, 9, 80, 0
5, 82323, Note_on_c, 9, 80, 62
5, 82337, Note_on_c, 9, 80, 0
5, 82388, Note_on_c, 9, 81, 87
5, 82413, Note_on_c, 9, 81, 0
5, 82445, Note_on_c, 9, 80, 55
5, 82459, Note_on_c, 9, 80, 0
5, 82504, Note_on_c, 9, 81, 91
5, 82524, Note_on_c, 9, 81, 0
5, 82561, Note_on_c, 9, 81, 88
5, 82595, Note_on_c, 9, 81, 0
5, 82606, Note_on_c, 9, 80, 56
5, 82622, Note_on_c, 9, 80, 0
5, 82674, Note_on_c, 9, 81, 74
5, 82689, Note_on_c, 9, 81, 0
5, 82735, Note_on_c, 9, 81, 88
5, 82764, Note_on_c, 9, 81, 0
5, 82796, Note_on_c, 9, 80, 64
5, 82811, Note_on_c, 9, 80, 0
5, 82859, Note_on_c, 9, 81, 80
5, 82877, Note_on_c, 9, 81, 0
5, 82920, Note_on_c, 9, 81, 74
5, 82937, Note_on_c, 9, 81, 0
5, 82985, Note_on_c, 9, 80, 64
5, 82998, Note_on_c, 9, 80, 0
5, 83046, Note_on_c, 9, 81, 79
5, 83063, Note_on_c, 9, 81, 0
5, 83107, Note_on_c, 9, 81, 75
5, 83122, Note_on_c, 9, 81, 0
5, 83167, Note_on_c, 9, 81, 74
5, 83190, Note_on_c, 9, 81, 0
5, 83222, Note_on_c, 9, 80, 58
5, 83238, Note_on_c, 9, 80, 0
5, 83288, Note_on_c, 9, 81, 74
5, 83303, Note_on_c, 9, 81, 0
5, 83344, Note_on_c, 9, 81, 81
5, 83360, Note_on_c, 9, 81, 0
5, 83405, Note_on_c, 9, 81, 79
5, 83426, Note_on_c, 9, 81, 0
5, 83462, Note_on_c, 9, 80, 62
5, 83478, Note_on_c, 9, 80, 0
5, 83527, Note_on_c, 9, 81, 76
5, 83543, Note_on_c, 9, 81, 0
5, 83586, Note_on_c, 9, 81, 80
5, 83603, Note_on_c, 9, 81, 0
5, 83649, Note_on_c, 9, 80, 60
5, 83656, Note_on_c, 9, 80, 0
5, 83708, Note_on_c, 9, 81, 73
5, 83724, Note_on_c, 9, 81, 0
5, 83762, Note_on_c, 9, 81, 73
5, 83784, Note_on_c, 9, 81, 0
5, 83823, Note_on_c, 9, 80, 56
5, 83835, Note_on_c, 9, 80, 0
5, 83887, Note_on_c, 9, 81, 71
5, 83902, Note_on_c, 9, 81, 0
5, 83947, Note_on_c, 9, 81, 69
5, 83963, Note_on_c, 9, 81, 0
5, 84004, Note_on_c, 9, 81, 79
5, 84033, Note_on_c, 9, 81, 0
5, 84060, Note_on_c, 9, 80, 59
5, 84075, Note_on_c, 9, 80, 0
5, 84123, Note_on_c, 9, 81, 75
5, 84139, Note_on_c, 9, 81, 0
5, 84182, Note_on_c, 9, 80, 63
5, 84193, Note_on_c, 9, 80, 0
5, 84244, Note_on_c, 9, 81, 74
5, 84260, Note_on_c, 9, 81, 0
5, 84300, Note_on_c, 9, 81, 80
5, 84314, Note_on_c, 9, 81, 0
5, 84357, Note_on_c, 9, 81, 91
5, 84386, Note_on_c, 9, 81, 0
5, 84413, Note_on_c, 9, 80, 58
5, 84428, Note_on_c, 9, 80, 0
5, 84480, Note_on_c, 9, 81, 78
5, 84500, Note_on_c, 9, 81, 0
5, 84543, Note_on_c, 9, 80, 59
5, 84555, Note_on_c, 9, 80, 0
5, 84605, Note_on_c, 9, 80, 70
5, 84617, Note_on_c, 9, 80, 0
5, 84660, Note_on_c, 9, 81, 88
5, 84693, Note_on_c, 9, 81, 0
5, 84721, Note_on_c, 9, 80, 45
5, 84730, Note_on_c, 9, 80, 0
5, 84784, Note_on_c, 9, 80, 71
5, 84797, Note_on_c, 9, 80, 0
5, 84844, Note_on_c, 9, 81, 64
5, 84861, Note_on_c, 9, 81, 0
5, 84905, Note_on_c, 9, 80, 64
5, 84917, Note_on_c, 9, 80, 0
5, 84964, Note_on_c, 9, 80, 64
5, 84973, Note_on_c, 9, 80, 0
5, 85021, Note_on_c, 9, 81, 79
5, 85044, Note_on_c, 9, 81, 0
5, 85076, Note_on_c, 9, 80, 61
5, 85089, Note_on_c, 9, 80, 0
5, 85142, Note_on_c, 9, 80, 87
5, 85157, Note_on_c, 9, 80, 0
5, 85204, Note_on_c, 9, 81, 68
5, 85221, Note_on_c, 9, 81, 0
5, 85258, Note_on_c, 9, 80, 69
5, 85274, Note_on_c, 9, 80, 0
5, 85320, Note_on_c, 9, 81, 74
5, 85337, Note_on_c, 9, 81, 0
5, 85380, Note_on_c, 9, 80, 67
5, 85394, Note_on_c, 9, 80, 0
5, 85440, Note_on_c, 9, 80, 70
5, 85454, Note_on_c, 9, 80, 0
5, 85502, Note_on_c, 9, 81, 80
5, 85525, Note_on_c, 9, 81, 0
5, 85561, Note_on_c, 9, 80, 55
5, 85571, Note_on_c, 9, 80, 0
5, 85623, Note_on_c, 9, 80, 73
5, 85635, Note_on_c, 9, 80, 0
5, 85684, Note_on_c, 9, 81, 78
5, 85706, Note_on_c, 9, 81, 0
5, 85741, Note_on_c, 9, 80, 58
5, 85752, Note_on_c, 9, 80, 0
5, 85804, Note_on_c, 9, 81, 87
5, 85827, Note_on_c, 9, 81, 0
5, 85863, Note_on_c, 9, 80, 56
5, 85878, Note_on_c, 9, 80, 0
5, 85922, Note_on_c, 9, 80, 59
5, 85936, Note_on_c, 9, 80, 0
5, 85982, Note_on_c, 9, 81, 81
5, 86002, Note_on_c, 9, 81, 0
5, 86041, Note_on_c, 9, 81, 56
5, 86053, Note_on_c, 9, 81, 0
5, 86105, Note_on_c, 9, 81, 87
5, 86122, Note_on_c, 9, 81, 0
5, 86164, Note_on_c, 9, 81, 89
5, 86189, Note_on_c, 9, 81, 0
5, 86220, Note_on_c, 9, 80, 64
5, 86238, Note_on_c, 9, 80, 0
5, 86281, Note_on_c, 9, 81, 76
5, 86298, Note_on_c, 9, 81, 0
5, 86339, Note_on_c, 9, 80, 78
5, 86359, Note_on_c, 9, 80, 0
5, 86399, Note_on_c, 9, 80, 74
5, 86417, Note_on_c, 9, 80, 0
5, 86461, Note_on_c, 9, 81, 74
5, 86490, Note_on_c, 9, 81, 0
5, 86523, Note_on_c, 9, 80, 38
5, 86531, Note_on_c, 9, 80, 0
5, 86585, Note_on_c, 9, 81, 79
5, 86608, Note_on_c, 9, 81, 0
5, 86641, Note_on_c, 9, 81, 74
5, 86680, Note_on_c, 9, 81, 0
5, 86698, Note_on_c, 9, 80, 46
5, 86716, Note_on_c, 9, 80, 0
5, 86758, Note_on_c, 9, 81, 77
5, 86799, Note_on_c, 9, 81, 0
5, 86817, Note_on_c, 9, 81, 55
5, 86836, Note_on_c, 9, 81, 0
5, 86879, Note_on_c, 9, 81, 79
5, 86920, Note_on_c, 9, 81, 0
5, 86940, Note_on_c, 9, 80, 51
5, 86957, Note_on_c, 9, 80, 0
5, 87002, Note_on_c, 9, 81, 71
5, 87034, Note_on_c, 9, 81, 0
5, 87065, Note_on_c, 9, 80, 34
5, 87074, Note_on_c, 9, 80, 0
5, 87122, Note_on_c, 9, 81, 72
5, 87140, Note_on_c, 9, 81, 0
5, 87183, Note_on_c, 9, 80, 61
5, 87196, Note_on_c, 9, 80, 0
5, 87239, Note_on_c, 9, 81, 79
5, 87266, Note_on_c, 9, 81, 0
5, 87297, Note_on_c, 9, 80, 60
5, 87311, Note_on_c, 9, 80, 0
5, 87356, Note_on_c, 9, 81, 69
5, 87373, Note_on_c, 9, 81, 0
5, 87418, Note_on_c, 9, 81, 68
5, 87431, Note_on_c, 9, 81, 0
5, 87479, Note_on_c, 9, 81, 71
5, 87504, Note_on_c, 9, 81, 0
5, 87539, Note_on_c, 9, 80, 60
5, 87555, Note_on_c, 9, 80, 0
5, 87605, Note_on_c, 9, 81, 71
5, 87621, Note_on_c, 9, 81, 0
5, 87661, Note_on_c, 9, 81, 78
5, 87677, Note_on_c, 9, 81, 0
5, 87722, Note_on_c, 9, 81, 72
5, 87751, Note_on_c, 9, 81, 0
5, 87777, Note_on_c, 9, 80, 62
5, 87795, Note_on_c, 9, 80, 0
5, 87837, Note_on_c, 9, 80, 60
5, 87852, Note_on_c, 9, 80, 0
5, 87899, Note_on_c, 9, 81, 78
5, 87936, Note_on_c, 9, 81, 0
5, 87958, Note_on_c, 9, 80, 52
5, 87973, Note_on_c, 9, 80, 0
5, 88024, Note_on_c, 9, 80, 69
5, 88038, Note_on_c, 9, 80, 0
5, 88086, Note_on_c, 9, 81, 75
5, 88118, Note_on_c, 9, 81, 0
5, 88144, Note_on_c, 9, 80, 57
5, 88159, Note_on_c, 9, 80, 0
5, 88209, Note_on_c, 9, 81, 83
5, 88240, Note_on_c, 9, 81, 0
5, 88264, Note_on_c, 9, 80, 60
5, 88281, Note_on_c, 9, 80, 0
5, 88326, Note_on_c, 9, 80, 70
5, 88342, Note_on_c, 9, 80, 0
5, 88387, Note_on_c, 9, 80, 69
5, 88401, Note_on_c, 9, 80, 0
5, 88445, Note_on_c, 9, 81, 80
5, 88474, Note_on_c, 9, 81, 0
5, 88507, Note_on_c, 9, 80, 58
5, 88522, Note_on_c, 9, 80, 0
5, 88565, Note_on_c, 9, 80, 57
5, 88578, Note_on_c, 9, 80, 0
5, 88627, Note_on_c, 9, 81, 85
5, 88650, Note_on_c, 9, 81, 0
5, 88683, Note_on_c, 9, 80, 61
5, 88698, Note_on_c, 9, 80, 0
5, 88744, Note_on_c, 9, 80, 75
5, 88761, Note_on_c, 9, 80, 0
5, 88803, Note_on_c, 9, 81, 77
5, 88832, Note_on_c, 9, 81, 0
5, 88861, Note_on_c, 9, 80, 64
5, 88878, Note_on_c, 9, 80, 0
5, 88917, Note_on_c, 9, 80, 64
5, 88933, Note_on_c, 9, 80, 0
5, 88981, Note_on_c, 9, 81, 79
5, 89004, Note_on_c, 9, 81, 0
5, 89041, Note_on_c, 9, 80, 62
5, 89056, Note_on_c, 9, 80, 0
5, 89103, Note_on_c, 9, 80, 64
5, 89121, Note_on_c, 9, 80, 0
5, 89167, Note_on_c, 9, 81, 76
5, 89192, Note_on_c, 9, 81, 0
5, 89227, Note_on_c, 9, 80, 63
5, 89240, Note_on_c, 9, 80, 0
5, 89284, Note_on_c, 9, 80, 69
5, 89300, Note_on_c, 9, 80, 0
5, 89344, Note_on_c, 9, 81, 75
5, 89365, Note_on_c, 9, 81, 0
5, 89403, Note_on_c, 9, 80, 62
5, 89417, Note_on_c, 9, 80, 0
5, 89466, Note_on_c, 9, 81, 81
5, 89485, Note_on_c, 9, 81, 0
5, 89524, Note_on_c, 9, 81, 78
5, 89546, Note_on_c, 9, 81, 0
5, 89586, Note_on_c, 9, 80, 68
5, 89600, Note_on_c, 9, 80, 0
5, 89641, Note_on_c, 9, 81, 79
5, 89656, Note_on_c, 9, 81, 0
5, 89701, Note_on_c, 9, 81, 88
5, 89715, Note_on_c, 9, 81, 0
5, 89760, Note_on_c, 9, 81, 87
5, 89782, Note_on_c, 9, 81, 0
5, 89819, Note_on_c, 9, 80, 59
5, 89831, Note_on_c, 9, 80, 0
5, 89879, Note_on_c, 9, 81, 74
5, 89895, Note_on_c, 9, 81, 0
5, 89941, Note_on_c, 9, 80, 62
5, 89955, Note_on_c, 9, 80, 0
5, 90003, Note_on_c, 9, 81, 78
5, 90018, Note_on_c, 9, 81, 0
5, 90060, Note_on_c, 9, 81, 79
5, 90075, Note_on_c, 9, 81, 0
5, 90118, Note_on_c, 9, 81, 85
5, 90156, Note_on_c, 9, 81, 0
5, 90175, Note_on_c, 9, 80, 56
5, 90191, Note_on_c, 9, 80, 0
5, 90241, Note_on_c, 9, 81, 82
5, 90260, Note_on_c, 9, 81, 0
5, 90302, Note_on_c, 9, 81, 75
5, 90317, Note_on_c, 9, 81, 0
5, 90359, Note_on_c, 9, 81, 87
5, 90391, Note_on_c, 9, 81, 0
5, 90420, Note_on_c, 9, 80, 51
5, 90433, Note_on_c, 9, 80, 0
5, 90483, Note_on_c, 9, 81, 62
5, 90494, Note_on_c, 9, 81, 0
5, 90543, Note_on_c, 9, 81, 84
5, 90558, Note_on_c, 9, 81, 0
5, 90604, Note_on_c, 9, 81, 95
5, 90623, Note_on_c, 9, 81, 0
5, 90660, Note_on_c, 9, 81, 103
5, 90681, Note_on_c, 9, 81, 0
5, 90718, Note_on_c, 9, 81, 92
5, 90728, Note_on_c, 9, 81, 59
5, 90737, Note_on_c, 9, 81, 0
5, 90758, Note_on_c, 9, 81, 0
5, 90786, Note_on_c, 9, 80, 34
5, 90803, Note_on_c, 9, 80, 0
5, 90844, Note_on_c, 9, 80, 35
5, 90856, Note_on_c, 9, 80, 0
5, 90902, Note_on_c, 9, 81, 74
5, 91006, Note_on_c, 9, 81, 0
5, 91016, Note_on_c, 9, 80, 39
5, 91033, Note_on_c, 9, 80, 0
5, 91083, Note_on_c, 9, 80, 37
5, 91097, Note_on_c, 9, 80, 0
5, 91148, Note_on_c, 9, 81, 53
5, 91159, Note_on_c, 9, 81, 0
5, 91204, Note_on_c, 9, 81, 49
5, 91222, Note_on_c, 9, 81, 0
5, 91322, Note_on_c, 9, 80, 39
5, 91343, Note_on_c, 9, 80, 0
5, 91502, Note_on_c, 9, 81, 44
5, 91514, Note_on_c, 9, 81, 0
5, 91562, Note_on_c, 9, 81, 50
5, 91592, Note_on_c, 9, 81, 0
5, 91621, Note_on_c, 9, 80, 35
5, 91645, Note_on_c, 9, 80, 0
5, 91681, Note_on_c, 9, 80, 34
5, 91704, Note_on_c, 9, 80, 0
5, 91745, Note_on_c, 9, 81, 33
5, 91775, Note_on_c, 9, 81, 0
5, 91870, Note_on_c, 9, 80, 26
5, 91883, Note_on_c, 9, 80, 0
5, 91929, Note_on_c, 9, 80, 37
5, 91952, Note_on_c, 9, 80, 0
5, 92046, Note_on_c, 9, 81, 50
5, 92073, Note_on_c, 9, 81, 0
5, 92106, Note_on_c, 9, 80, 31
5, 92127, Note_on_c, 9, 80, 0
5, 92227, Note_on_c, 9, 81, 43
5, 92250, Note_on_c, 9, 81, 0
5, 92280, Note_on_c, 9, 81, 46
5, 92311, Note_on_c, 9, 81, 0
5, 92340, Note_on_c, 9, 80, 30
5, 92362, Note_on_c, 9, 80, 0
5, 92399, Note_on_c, 9, 81, 46
5, 92422, Note_on_c, 9, 81, 0
5, 92454, Note_on_c, 9, 81, 45
5, 92480, Note_on_c, 9, 81, 0
5, 92518, Note_on_c, 9, 80, 34
5, 92542, Note_on_c, 9, 80, 0
5, 92580, Note_on_c, 9, 80, 34
5, 92604, Note_on_c, 9, 80, 0
5, 92643, Note_on_c, 9, 80, 37
5, 92664, Note_on_c, 9, 80, 0
5, 92769, Note_on_c, 9, 81, 42
5, 92824, Note_on_c, 9, 81, 0
5, 92878, Note_on_c, 9, 80, 33
5, 92895, Note_on_c, 9, 80, 0
5, 92945, Note_on_c, 9, 80, 35
5, 92964, Note_on_c, 9, 80, 0
5, 93008, Note_on_c, 9, 81, 45
5, 93022, Note_on_c, 9, 81, 0
5, 93186, Note_on_c, 9, 80, 29
5, 93196, Note_on_c, 9, 80, 0
5, 93248, Note_on_c, 9, 81, 31
5, 93264, Note_on_c, 9, 81, 0
5, 93308, Note_on_c, 9, 81, 50
5, 93337, Note_on_c, 9, 81, 0
5, 93428, Note_on_c, 9, 80, 29
5, 93447, Note_on_c, 9, 80, 0
5, 93491, Note_on_c, 9, 81, 34
5, 93508, Note_on_c, 9, 81, 0
5, 93551, Note_on_c, 9, 81, 42
5, 93576, Note_on_c, 9, 81, 0
5, 93675, Note_on_c, 9, 80, 23
5, 93689, Note_on_c, 9, 80, 0
5, 93728, Note_on_c, 9, 80, 25
5, 93749, Note_on_c, 9, 80, 0
5, 93791, Note_on_c, 9, 81, 20
5, 93804, Note_on_c, 9, 81, 0
5, 93847, Note_on_c, 9, 81, 40
5, 93889, Note_on_c, 9, 81, 0
5, 93974, Note_on_c, 9, 80, 25
5, 93985, Note_on_c, 9, 80, 0
5, 94031, Note_on_c, 9, 81, 38
5, 94047, Note_on_c, 9, 81, 0
5, 94091, Note_on_c, 9, 81, 35
5, 94127, Note_on_c, 9, 81, 0
5, 94205, Note_on_c, 9, 80, 31
5, 94222, Note_on_c, 9, 80, 0
5, 94264, Note_on_c, 9, 81, 46
5, 94285, Note_on_c, 9, 81, 0
5, 94326, Note_on_c, 9, 81, 42
5, 94405, Note_on_c, 9, 81, 0
5, 94443, Note_on_c, 9, 80, 25
5, 94463, Note_on_c, 9, 80, 0
5, 94507, Note_on_c, 9, 81, 42
5, 94530, Note_on_c, 9, 81, 0
5, 94567, Note_on_c, 9, 81, 34
5, 94683, Note_on_c, 9, 81, 0
5, 94753, Note_on_c, 9, 81, 25
5, 94790, Note_on_c, 9, 81, 0
5, 94819, Note_on_c, 9, 81, 36
5, 94925, Note_on_c, 9, 81, 0
5, 94935, Note_on_c, 9, 80, 20
5, 94946, Note_on_c, 9, 80, 0
5, 94994, Note_on_c, 9, 81, 60
5, 95019, Note_on_c, 9, 81, 0
5, 95056, Note_on_c, 9, 81, 76
5, 95407, Note_on_c, 9, 81, 0
5, 95407, End_track
6, 0, Start_track
6, 0, Title_t, ""
6, 36358, Note_on_c, 9, 64, 58
6, 36376, Note_on_c, 9, 64, 0
6, 36422, Note_on_c, 9, 62, 32
6, 36432, Note_on_c, 9, 62, 0
6, 36546, Note_on_c, 9, 62, 24
6, 36555, Note_on_c, 9, 62, 0
6, 36600, Note_on_c, 9, 62, 36
6, 36602, Note_on_c, 9, 63, 25
6, 36615, Note_on_c, 9, 62, 0
6, 36625, Note_on_c, 9, 63, 0
6, 36665, Note_on_c, 9, 63, 56
6, 36666, Note_on_c, 9, 62, 56
6, 36684, Note_on_c, 9, 62, 0
6, 36695, Note_on_c, 9, 63, 0
6, 36785, Note_on_c, 9, 62, 28
6, 36795, Note_on_c, 9, 62, 0
6, 36845, Note_on_c, 9, 64, 52
6, 36875, Note_on_c, 9, 64, 0
6, 36907, Note_on_c, 9, 64, 83
6, 36935, Note_on_c, 9, 64, 0
6, 37083, Note_on_c, 9, 62, 19
6, 37084, Note_on_c, 9, 63, 27
6, 37101, Note_on_c, 9, 63, 0
6, 37116, Note_on_c, 9, 62, 0
6, 37146, Note_on_c, 9, 63, 66
6, 37147, Note_on_c, 9, 62, 62
6, 37186, Note_on_c, 9, 63, 0
6, 37196, Note_on_c, 9, 62, 0
6, 37206, Note_on_c, 9, 63, 56
6, 37209, Note_on_c, 9, 62, 59
6, 37252, Note_on_c, 9, 63, 0
6, 37259, Note_on_c, 9, 62, 0
6, 37274, Note_on_c, 9, 64, 40
6, 37286, Note_on_c, 9, 64, 0
6, 37325, Note_on_c, 9, 64, 55
6, 37355, Note_on_c, 9, 64, 0
6, 37388, Note_on_c, 9, 64, 62
6, 37410, Note_on_c, 9, 64, 0
6, 37622, Note_on_c, 9, 62, 46
6, 37624, Note_on_c, 9, 63, 48
6, 37676, Note_on_c, 9, 63, 0
6, 37679, Note_on_c, 9, 62, 0
6, 37802, Note_on_c, 9, 64, 67
6, 37847, Note_on_c, 9, 64, 0
6, 38042, Note_on_c, 9, 62, 22
6, 38048, Note_on_c, 9, 63, 16
6, 38072, Note_on_c, 9, 63, 0
6, 38072, Note_on_c, 9, 62, 0
6, 38102, Note_on_c, 9, 62, 42
6, 38103, Note_on_c, 9, 63, 46
6, 38133, Note_on_c, 9, 62, 0
6, 38153, Note_on_c, 9, 63, 0
6, 38281, Note_on_c, 9, 64, 41
6, 38324, Note_on_c, 9, 64, 0
6, 38342, Note_on_c, 9, 64, 67
6, 38386, Note_on_c, 9, 64, 0
6, 38585, Note_on_c, 9, 62, 56
6, 38587, Note_on_c, 9, 63, 65
6, 38594, Note_on_c, 9, 66, 26
6, 38602, Note_on_c, 9, 66, 0
6, 38651, Note_on_c, 9, 62, 0
6, 38660, Note_on_c, 9, 63, 0
6, 38709, Note_on_c, 9, 63, 70
6, 38709, Note_on_c, 9, 62, 59
6, 38749, Note_on_c, 9, 63, 0
6, 38752, Note_on_c, 9, 62, 0
6, 38778, Note_on_c, 9, 64, 28
6, 38794, Note_on_c, 9, 64, 0
6, 38832, Note_on_c, 9, 64, 46
6, 38854, Note_on_c, 9, 64, 0
6, 38888, Note_on_c, 9, 64, 41
6, 38908, Note_on_c, 9, 64, 0
6, 39067, Note_on_c, 9, 62, 50
6, 39068, Note_on_c, 9, 63, 53
6, 39110, Note_on_c, 9, 62, 0
6, 39112, Note_on_c, 9, 63, 0
6, 39144, Note_on_c, 9, 62, 25
6, 39145, Note_on_c, 9, 63, 48
6, 39189, Note_on_c, 9, 62, 0
6, 39191, Note_on_c, 9, 63, 0
6, 39223, Note_on_c, 9, 62, 42
6, 39232, Note_on_c, 9, 63, 45
6, 39250, Note_on_c, 9, 62, 0
6, 39263, Note_on_c, 9, 63, 0
6, 39485, Note_on_c, 9, 64, 76
6, 39512, Note_on_c, 9, 64, 0
6, 39720, Note_on_c, 9, 62, 26
6, 39723, Note_on_c, 9, 63, 40
6, 39753, Note_on_c, 9, 62, 0
6, 39760, Note_on_c, 9, 63, 0
6, 39783, Note_on_c, 9, 62, 44
6, 39784, Note_on_c, 9, 63, 47
6, 39825, Note_on_c, 9, 62, 0
6, 39828, Note_on_c, 9, 63, 0
6, 39905, Note_on_c, 9, 62, 19
6, 39914, Note_on_c, 9, 62, 0
6, 39965, Note_on_c, 9, 64, 44
6, 40004, Note_on_c, 9, 64, 0
6, 40025, Note_on_c, 9, 64, 76
6, 40056, Note_on_c, 9, 64, 0
6, 40084, Note_on_c, 9, 64, 89
6, 40121, Note_on_c, 9, 64, 0
6, 40205, Note_on_c, 9, 63, 20
6, 40223, Note_on_c, 9, 63, 0
6, 40267, Note_on_c, 9, 63, 73
6, 40270, Note_on_c, 9, 62, 59
6, 40315, Note_on_c, 9, 63, 0
6, 40326, Note_on_c, 9, 62, 0
6, 40388, Note_on_c, 9, 62, 24
6, 40400, Note_on_c, 9, 62, 0
6, 40444, Note_on_c, 9, 64, 36
6, 40461, Note_on_c, 9, 64, 0
6, 40507, Note_on_c, 9, 64, 50
6, 40533, Note_on_c, 9, 64, 0
6, 40747, Note_on_c, 9, 63, 33
6, 40750, Note_on_c, 9, 62, 27
6, 40764, Note_on_c, 9, 62, 0
6, 40765, Note_on_c, 9, 63, 0
6, 40834, Note_on_c, 9, 62, 29
6, 40837, Note_on_c, 9, 63, 30
6, 40871, Note_on_c, 9, 63, 0
6, 40875, Note_on_c, 9, 62, 0
6, 40915, Note_on_c, 9, 62, 28
6, 40919, Note_on_c, 9, 63, 42
6, 40952, Note_on_c, 9, 63, 0
6, 40952, Note_on_c, 9, 62, 0
6, 40986, Note_on_c, 9, 64, 32
6, 41000, Note_on_c, 9, 64, 0
6, 41108, Note_on_c, 9, 62, 33
6, 41119, Note_on_c, 9, 62, 0
6, 41162, Note_on_c, 9, 63, 55
6, 41163, Note_on_c, 9, 62, 50
6, 41184, Note_on_c, 9, 62, 0
6, 41186, Note_on_c, 9, 63, 0
6, 41224, Note_on_c, 9, 63, 66
6, 41225, Note_on_c, 9, 62, 66
6, 41266, Note_on_c, 9, 63, 0
6, 41273, Note_on_c, 9, 62, 0
6, 41398, Note_on_c, 9, 64, 31
6, 41411, Note_on_c, 9, 64, 0
6, 41462, Note_on_c, 9, 64, 45
6, 41477, Note_on_c, 9, 64, 0
6, 41584, Note_on_c, 9, 62, 34
6, 41595, Note_on_c, 9, 62, 0
6, 41639, Note_on_c, 9, 62, 28
6, 41641, Note_on_c, 9, 63, 44
6, 41668, Note_on_c, 9, 63, 0
6, 41669, Note_on_c, 9, 62, 0
6, 41711, Note_on_c, 9, 63, 48
6, 41714, Note_on_c, 9, 62, 45
6, 41741, Note_on_c, 9, 62, 0
6, 41744, Note_on_c, 9, 63, 0
6, 41831, Note_on_c, 9, 64, 36
6, 41841, Note_on_c, 9, 64, 0
6, 42006, Note_on_c, 9, 63, 48
6, 42010, Note_on_c, 9, 62, 38
6, 42025, Note_on_c, 9, 63, 0
6, 42026, Note_on_c, 9, 62, 0
6, 42068, Note_on_c, 9, 63, 52
6, 42082, Note_on_c, 9, 62, 44
6, 42098, Note_on_c, 9, 63, 0
6, 42101, Note_on_c, 9, 62, 0
6, 42158, Note_on_c, 9, 63, 50
6, 42158, Note_on_c, 9, 62, 44
6, 42182, Note_on_c, 9, 62, 0
6, 42189, Note_on_c, 9, 63, 0
6, 42369, Note_on_c, 9, 64, 24
6, 42381, Note_on_c, 9, 64, 0
6, 42428, Note_on_c, 9, 64, 45
6, 42442, Note_on_c, 9, 64, 0
6, 42541, Note_on_c, 9, 62, 24
6, 42550, Note_on_c, 9, 62, 0
6, 42598, Note_on_c, 9, 63, 31
6, 42599, Note_on_c, 9, 62, 28
6, 42605, Note_on_c, 9, 63, 0
6, 42609, Note_on_c, 9, 62, 0
6, 42665, Note_on_c, 9, 63, 64
6, 42671, Note_on_c, 9, 62, 55
6, 42684, Note_on_c, 9, 63, 0
6, 42695, Note_on_c, 9, 62, 0
6, 42746, Note_on_c, 9, 63, 57
6, 42754, Note_on_c, 9, 62, 54
6, 42785, Note_on_c, 9, 62, 0
6, 42787, Note_on_c, 9, 63, 0
6, 42908, Note_on_c, 9, 63, 55
6, 42910, Note_on_c, 9, 62, 49
6, 42920, Note_on_c, 9, 62, 0
6, 42924, Note_on_c, 9, 63, 0
6, 42978, Note_on_c, 9, 62, 48
6, 42979, Note_on_c, 9, 63, 44
6, 43015, Note_on_c, 9, 63, 0
6, 43016, Note_on_c, 9, 62, 0
6, 43071, Note_on_c, 9, 62, 39
6, 43074, Note_on_c, 9, 63, 28
6, 43080, Note_on_c, 9, 62, 0
6, 43084, Note_on_c, 9, 63, 0
6, 43135, Note_on_c, 9, 63, 56
6, 43135, Note_on_c, 9, 62, 48
6, 43143, Note_on_c, 9, 62, 0
6, 43146, Note_on_c, 9, 63, 0
6, 43329, Note_on_c, 9, 64, 70
6, 43343, Note_on_c, 9, 64, 0
6, 43389, Note_on_c, 9, 64, 88
6, 43404, Note_on_c, 9, 64, 0
6, 43564, Note_on_c, 9, 63, 50
6, 43565, Note_on_c, 9, 62, 47
6, 43587, Note_on_c, 9, 62, 0
6, 43590, Note_on_c, 9, 63, 0
6, 43626, Note_on_c, 9, 63, 70
6, 43626, Note_on_c, 9, 62, 68
6, 43666, Note_on_c, 9, 62, 0
6, 43669, Note_on_c, 9, 63, 0
6, 43749, Note_on_c, 9, 63, 49
6, 43766, Note_on_c, 9, 63, 0
6, 43803, Note_on_c, 9, 64, 109
6, 43843, Note_on_c, 9, 64, 0
6, 43864, Note_on_c, 9, 64, 98
6, 43900, Note_on_c, 9, 64, 0
6, 44046, Note_on_c, 9, 63, 71
6, 44047, Note_on_c, 9, 62, 68
6, 44050, Note_on_c, 9, 61, 47
6, 44058, Note_on_c, 9, 61, 0
6, 44070, Note_on_c, 9, 62, 0
6, 44076, Note_on_c, 9, 63, 0
6, 44100, Note_on_c, 9, 63, 72
6, 44100, Note_on_c, 9, 62, 68
6, 44136, Note_on_c, 9, 62, 0
6, 44138, Note_on_c, 9, 63, 0
6, 44225, Note_on_c, 9, 63, 37
6, 44233, Note_on_c, 9, 63, 0
6, 44276, Note_on_c, 9, 64, 117
6, 44330, Note_on_c, 9, 64, 0
6, 44518, Note_on_c, 9, 63, 62
6, 44520, Note_on_c, 9, 62, 61
6, 44553, Note_on_c, 9, 62, 0
6, 44558, Note_on_c, 9, 63, 0
6, 44825, Note_on_c, 9, 64, 111
6, 44844, Note_on_c, 9, 64, 0
6, 44886, Note_on_c, 9, 64, 119
6, 44928, Note_on_c, 9, 64, 0
6, 44942, Note_on_c, 9, 64, 83
6, 44970, Note_on_c, 9, 64, 0
6, 45068, Note_on_c, 9, 62, 58
6, 45089, Note_on_c, 9, 62, 0
6, 45303, Note_on_c, 9, 64, 55
6, 45312, Note_on_c, 9, 64, 0
6, 45422, Note_on_c, 9, 62, 55
6, 45431, Note_on_c, 9, 62, 0
6, 45480, Note_on_c, 9, 64, 100
6, 45498, Note_on_c, 9, 64, 0
6, 45540, Note_on_c, 9, 64, 124
6, 45579, Note_on_c, 9, 64, 0
6, 45658, Note_on_c, 9, 63, 40
6, 45660, Note_on_c, 9, 62, 40
6, 45676, Note_on_c, 9, 62, 0
6, 45681, Note_on_c, 9, 63, 0
6, 45719, Note_on_c, 9, 64, 74
6, 45737, Note_on_c, 9, 64, 0
6, 45780, Note_on_c, 9, 65, 86
6, 45780, Note_on_c, 9, 64, 98
6, 45811, Note_on_c, 9, 64, 0
6, 45816, Note_on_c, 9, 65, 0
6, 45833, Note_on_c, 9, 65, 74
6, 45833, Note_on_c, 9, 64, 88
6, 45872, Note_on_c, 9, 64, 0
6, 45876, Note_on_c, 9, 65, 0
6, 45903, Note_on_c, 9, 63, 33
6, 45904, Note_on_c, 9, 62, 48
6, 45922, Note_on_c, 9, 62, 0
6, 45922, Note_on_c, 9, 63, 0
6, 46019, Note_on_c, 9, 64, 93
6, 46054, Note_on_c, 9, 64, 0
6, 46271, Note_on_c, 9, 63, 24
6, 46289, Note_on_c, 9, 63, 0
6, 46409, Note_on_c, 9, 63, 22
6, 46418, Note_on_c, 9, 63, 0
6, 46441, Note_on_c, 9, 64, 63
6, 46452, Note_on_c, 9, 64, 0
6, 46470, Note_on_c, 9, 64, 63
6, 46488, Note_on_c, 9, 64, 0
6, 46543, Note_on_c, 9, 63, 35
6, 46556, Note_on_c, 9, 63, 0
6, 46619, Note_on_c, 9, 64, 36
6, 46628, Note_on_c, 9, 64, 0
6, 46661, Note_on_c, 9, 63, 38
6, 46681, Note_on_c, 9, 63, 0
6, 46692, Note_on_c, 9, 64, 84
6, 46700, Note_on_c, 9, 64, 0
6, 46716, Note_on_c, 9, 64, 85
6, 46737, Note_on_c, 9, 64, 0
6, 46771, Note_on_c, 9, 63, 31
6, 46791, Note_on_c, 9, 63, 0
6, 46802, Note_on_c, 9, 64, 72
6, 46810, Note_on_c, 9, 64, 0
6, 46825, Note_on_c, 9, 64, 81
6, 46847, Note_on_c, 9, 64, 0
6, 46882, Note_on_c, 9, 63, 50
6, 46901, Note_on_c, 9, 63, 0
6, 46921, Note_on_c, 9, 64, 80
6, 46929, Note_on_c, 9, 64, 0
6, 46947, Note_on_c, 9, 64, 87
6, 46969, Note_on_c, 9, 64, 0
6, 46999, Note_on_c, 9, 63, 48
6, 46999, Note_on_c, 9, 62, 50
6, 47024, Note_on_c, 9, 62, 0
6, 47028, Note_on_c, 9, 63, 0
6, 47107, Note_on_c, 9, 63, 42
6, 47112, Note_on_c, 9, 62, 32
6, 47122, Note_on_c, 9, 62, 0
6, 47130, Note_on_c, 9, 63, 0
6, 47172, Note_on_c, 9, 64, 98
6, 47189, Note_on_c, 9, 64, 0
6, 47227, Note_on_c, 9, 64, 109
6, 47244, Note_on_c, 9, 64, 0
6, 47355, Note_on_c, 9, 63, 32
6, 47368, Note_on_c, 9, 63, 0
6, 47405, Note_on_c, 9, 63, 30
6, 47409, Note_on_c, 9, 62, 25
6, 47429, Note_on_c, 9, 63, 0
6, 47432, Note_on_c, 9, 62, 0
6, 47459, Note_on_c, 9, 63, 64
6, 47459, Note_on_c, 9, 62, 63
6, 47497, Note_on_c, 9, 62, 0
6, 47499, Note_on_c, 9, 63, 0
6, 47628, Note_on_c, 9, 64, 68
6, 47648, Note_on_c, 9, 64, 0
6, 47697, Note_on_c, 9, 64, 122
6, 47746, Note_on_c, 9, 64, 0
6, 47885, Note_on_c, 9, 63, 64
6, 47886, Note_on_c, 9, 62, 59
6, 47910, Note_on_c, 9, 62, 0
6, 47913, Note_on_c, 9, 63, 0
6, 47941, Note_on_c, 9, 63, 70
6, 47942, Note_on_c, 9, 62, 70
6, 47978, Note_on_c, 9, 63, 0
6, 47987, Note_on_c, 9, 62, 0
6, 48063, Note_on_c, 9, 63, 49
6, 48080, Note_on_c, 9, 63, 0
6, 48119, Note_on_c, 9, 64, 114
6, 48162, Note_on_c, 9, 64, 0
6, 48181, Note_on_c, 9, 64, 100
6, 48220, Note_on_c, 9, 64, 0
6, 48360, Note_on_c, 9, 63, 53
6, 48389, Note_on_c, 9, 63, 0
6, 48423, Note_on_c, 9, 63, 68
6, 48443, Note_on_c, 9, 63, 0
6, 48552, Note_on_c, 9, 62, 41
6, 48562, Note_on_c, 9, 62, 0
6, 48602, Note_on_c, 9, 64, 104
6, 48630, Note_on_c, 9, 64, 0
6, 48666, Note_on_c, 9, 64, 117
6, 48738, Note_on_c, 9, 64, 0
6, 48845, Note_on_c, 9, 62, 31
6, 48861, Note_on_c, 9, 62, 0
6, 48904, Note_on_c, 9, 62, 63
6, 48927, Note_on_c, 9, 62, 0
6, 49022, Note_on_c, 9, 62, 51
6, 49031, Note_on_c, 9, 62, 0
6, 49080, Note_on_c, 9, 64, 117
6, 49107, Note_on_c, 9, 64, 0
6, 49143, Note_on_c, 9, 64, 127
6, 49176, Note_on_c, 9, 64, 0
6, 49199, Note_on_c, 9, 64, 117
6, 49242, Note_on_c, 9, 64, 0
6, 49277, Note_on_c, 9, 62, 23
6, 49287, Note_on_c, 9, 62, 0
6, 49312, Note_on_c, 9, 62, 36
6, 49340, Note_on_c, 9, 62, 0
6, 49382, Note_on_c, 9, 62, 75
6, 49420, Note_on_c, 9, 62, 0
6, 49556, Note_on_c, 9, 64, 88
6, 49581, Note_on_c, 9, 64, 0
6, 49620, Note_on_c, 9, 64, 114
6, 49688, Note_on_c, 9, 64, 0
6, 49748, Note_on_c, 9, 62, 36
6, 49749, Note_on_c, 9, 63, 30
6, 49758, Note_on_c, 9, 62, 0
6, 49761, Note_on_c, 9, 63, 0
6, 49802, Note_on_c, 9, 64, 89
6, 49844, Note_on_c, 9, 64, 0
6, 49863, Note_on_c, 9, 64, 91
6, 49892, Note_on_c, 9, 64, 0
6, 49985, Note_on_c, 9, 63, 42
6, 49991, Note_on_c, 9, 62, 36
6, 50008, Note_on_c, 9, 62, 0
6, 50011, Note_on_c, 9, 63, 0
6, 50040, Note_on_c, 9, 63, 48
6, 50041, Note_on_c, 9, 62, 42
6, 50063, Note_on_c, 9, 62, 0
6, 50064, Note_on_c, 9, 63, 0
6, 51006, Note_on_c, 9, 64, 33
6, 51021, Note_on_c, 9, 64, 0
6, 51075, Note_on_c, 9, 64, 36
6, 51086, Note_on_c, 9, 64, 0
6, 51240, Note_on_c, 9, 62, 40
6, 51241, Note_on_c, 9, 63, 36
6, 51257, Note_on_c, 9, 63, 0
6, 51264, Note_on_c, 9, 62, 0
6, 51482, Note_on_c, 9, 64, 42
6, 51501, Note_on_c, 9, 64, 0
6, 51546, Note_on_c, 9, 64, 50
6, 51573, Note_on_c, 9, 64, 0
6, 51721, Note_on_c, 9, 62, 53
6, 51728, Note_on_c, 9, 63, 66
6, 51769, Note_on_c, 9, 63, 0
6, 51780, Note_on_c, 9, 62, 0
6, 51797, Note_on_c, 9, 63, 61
6, 51802, Note_on_c, 9, 62, 51
6, 51835, Note_on_c, 9, 62, 0
6, 51846, Note_on_c, 9, 63, 0
6, 51968, Note_on_c, 9, 64, 52
6, 52008, Note_on_c, 9, 64, 0
6, 52036, Note_on_c, 9, 64, 55
6, 52065, Note_on_c, 9, 64, 0
6, 52209, Note_on_c, 9, 63, 49
6, 52214, Note_on_c, 9, 62, 37
6, 52234, Note_on_c, 9, 63, 0
6, 52238, Note_on_c, 9, 62, 0
6, 52506, Note_on_c, 9, 64, 70
6, 52545, Note_on_c, 9, 64, 0
6, 52678, Note_on_c, 9, 63, 68
6, 52683, Note_on_c, 9, 62, 64
6, 52722, Note_on_c, 9, 63, 0
6, 52731, Note_on_c, 9, 62, 0
6, 52748, Note_on_c, 9, 63, 73
6, 52753, Note_on_c, 9, 62, 68
6, 52793, Note_on_c, 9, 63, 0
6, 52796, Note_on_c, 9, 62, 0
6, 52923, Note_on_c, 9, 64, 83
6, 52983, Note_on_c, 9, 64, 0
6, 53160, Note_on_c, 9, 63, 30
6, 53165, Note_on_c, 9, 62, 24
6, 53202, Note_on_c, 9, 63, 0
6, 53209, Note_on_c, 9, 62, 0
6, 53221, Note_on_c, 9, 63, 55
6, 53226, Note_on_c, 9, 62, 64
6, 53263, Note_on_c, 9, 62, 0
6, 53264, Note_on_c, 9, 63, 0
6, 53394, Note_on_c, 9, 64, 62
6, 53435, Note_on_c, 9, 64, 0
6, 53467, Note_on_c, 9, 64, 57
6, 53490, Note_on_c, 9, 64, 0
6, 53642, Note_on_c, 9, 63, 39
6, 53647, Note_on_c, 9, 62, 40
6, 53688, Note_on_c, 9, 63, 0
6, 53693, Note_on_c, 9, 62, 0
6, 53716, Note_on_c, 9, 63, 56
6, 53718, Note_on_c, 9, 62, 50
6, 53760, Note_on_c, 9, 62, 0
6, 53768, Note_on_c, 9, 63, 0
6, 53889, Note_on_c, 9, 64, 35
6, 53921, Note_on_c, 9, 64, 0
6, 53956, Note_on_c, 9, 64, 49
6, 53976, Note_on_c, 9, 64, 0
6, 54047, Note_on_c, 9, 63, 34
6, 54055, Note_on_c, 9, 62, 24
6, 54086, Note_on_c, 9, 63, 0
6, 54091, Note_on_c, 9, 62, 0
6, 54138, Note_on_c, 9, 63, 45
6, 54138, Note_on_c, 9, 62, 32
6, 54181, Note_on_c, 9, 63, 0
6, 54183, Note_on_c, 9, 62, 0
6, 54300, Note_on_c, 9, 63, 40
6, 54305, Note_on_c, 9, 62, 42
6, 54339, Note_on_c, 9, 62, 0
6, 54340, Note_on_c, 9, 63, 0
6, 54390, Note_on_c, 9, 63, 45
6, 54401, Note_on_c, 9, 62, 44
6, 54428, Note_on_c, 9, 62, 0
6, 54433, Note_on_c, 9, 63, 0
6, 54551, Note_on_c, 9, 63, 45
6, 54555, Note_on_c, 9, 62, 49
6, 54578, Note_on_c, 9, 62, 0
6, 54591, Note_on_c, 9, 63, 0
6, 54633, Note_on_c, 9, 63, 49
6, 54642, Note_on_c, 9, 62, 48
6, 54672, Note_on_c, 9, 62, 0
6, 54678, Note_on_c, 9, 63, 0
6, 55084, Note_on_c, 9, 64, 41
6, 55094, Note_on_c, 9, 64, 0
6, 55624, Note_on_c, 9, 64, 62
6, 55644, Note_on_c, 9, 64, 0
6, 55795, Note_on_c, 9, 63, 47
6, 55799, Note_on_c, 9, 62, 45
6, 55824, Note_on_c, 9, 62, 0
6, 55832, Note_on_c, 9, 63, 0
6, 56045, Note_on_c, 9, 64, 37
6, 56064, Note_on_c, 9, 64, 0
6, 56109, Note_on_c, 9, 64, 83
6, 56151, Note_on_c, 9, 64, 0
6, 56231, Note_on_c, 9, 62, 27
6, 56242, Note_on_c, 9, 62, 0
6, 56280, Note_on_c, 9, 63, 49
6, 56280, Note_on_c, 9, 62, 39
6, 56330, Note_on_c, 9, 63, 0
6, 56331, Note_on_c, 9, 62, 0
6, 56343, Note_on_c, 9, 63, 60
6, 56348, Note_on_c, 9, 62, 62
6, 56391, Note_on_c, 9, 63, 0
6, 56399, Note_on_c, 9, 62, 0
6, 56509, Note_on_c, 9, 64, 46
6, 56557, Note_on_c, 9, 64, 0
6, 56583, Note_on_c, 9, 64, 76
6, 56639, Note_on_c, 9, 64, 0
6, 56767, Note_on_c, 9, 63, 47
6, 56772, Note_on_c, 9, 62, 39
6, 56798, Note_on_c, 9, 62, 0
6, 56798, Note_on_c, 9, 63, 0
6, 57003, Note_on_c, 9, 64, 71
6, 57031, Note_on_c, 9, 64, 0
6, 57254, Note_on_c, 9, 63, 51
6, 57259, Note_on_c, 9, 62, 42
6, 57298, Note_on_c, 9, 62, 0
6, 57298, Note_on_c, 9, 63, 0
6, 57316, Note_on_c, 9, 63, 48
6, 57324, Note_on_c, 9, 62, 52
6, 57353, Note_on_c, 9, 63, 0
6, 57355, Note_on_c, 9, 62, 0
6, 57486, Note_on_c, 9, 64, 76
6, 57538, Note_on_c, 9, 64, 0
6, 57788, Note_on_c, 9, 63, 38
6, 57791, Note_on_c, 9, 62, 31
6, 57803, Note_on_c, 9, 62, 0
6, 57806, Note_on_c, 9, 63, 0
6, 57961, Note_on_c, 9, 64, 52
6, 57980, Note_on_c, 9, 64, 0
6, 58032, Note_on_c, 9, 64, 63
6, 58051, Note_on_c, 9, 64, 0
6, 58272, Note_on_c, 9, 63, 38
6, 58275, Note_on_c, 9, 62, 42
6, 58285, Note_on_c, 9, 62, 0
6, 58289, Note_on_c, 9, 63, 0
6, 58447, Note_on_c, 9, 64, 41
6, 58458, Note_on_c, 9, 64, 0
6, 58511, Note_on_c, 9, 64, 59
6, 58527, Note_on_c, 9, 64, 0
6, 59410, Note_on_c, 9, 64, 24
6, 59427, Note_on_c, 9, 64, 0
6, 59471, Note_on_c, 9, 64, 44
6, 59517, Note_on_c, 9, 64, 0
6, 59642, Note_on_c, 9, 63, 60
6, 59646, Note_on_c, 9, 62, 48
6, 59696, Note_on_c, 9, 63, 0
6, 59701, Note_on_c, 9, 62, 0
6, 59715, Note_on_c, 9, 63, 48
6, 59721, Note_on_c, 9, 62, 49
6, 59758, Note_on_c, 9, 62, 0
6, 59758, Note_on_c, 9, 63, 0
6, 59881, Note_on_c, 9, 64, 62
6, 59932, Note_on_c, 9, 64, 0
6, 59950, Note_on_c, 9, 64, 62
6, 59981, Note_on_c, 9, 64, 0
6, 60122, Note_on_c, 9, 63, 48
6, 60125, Note_on_c, 9, 62, 39
6, 60157, Note_on_c, 9, 62, 0
6, 60164, Note_on_c, 9, 63, 0
6, 60356, Note_on_c, 9, 64, 83
6, 60407, Note_on_c, 9, 64, 0
6, 60603, Note_on_c, 9, 63, 46
6, 60606, Note_on_c, 9, 62, 27
6, 60632, Note_on_c, 9, 62, 0
6, 60634, Note_on_c, 9, 63, 0
6, 60670, Note_on_c, 9, 63, 62
6, 60674, Note_on_c, 9, 62, 52
6, 60706, Note_on_c, 9, 62, 0
6, 60710, Note_on_c, 9, 63, 0
6, 60838, Note_on_c, 9, 64, 65
6, 60880, Note_on_c, 9, 64, 0
6, 60913, Note_on_c, 9, 64, 63
6, 60944, Note_on_c, 9, 64, 0
6, 61082, Note_on_c, 9, 62, 32
6, 61085, Note_on_c, 9, 63, 55
6, 61126, Note_on_c, 9, 63, 0
6, 61130, Note_on_c, 9, 62, 0
6, 61161, Note_on_c, 9, 63, 50
6, 61170, Note_on_c, 9, 62, 40
6, 61190, Note_on_c, 9, 62, 0
6, 61200, Note_on_c, 9, 63, 0
6, 61393, Note_on_c, 9, 63, 56
6, 61397, Note_on_c, 9, 62, 44
6, 61436, Note_on_c, 9, 63, 0
6, 61440, Note_on_c, 9, 62, 0
6, 61466, Note_on_c, 9, 63, 43
6, 61473, Note_on_c, 9, 62, 32
6, 61509, Note_on_c, 9, 63, 0
6, 61510, Note_on_c, 9, 62, 0
6, 61625, Note_on_c, 9, 62, 46
6, 61638, Note_on_c, 9, 62, 0
6, 61745, Note_on_c, 9, 62, 33
6, 61758, Note_on_c, 9, 62, 0
6, 61854, Note_on_c, 9, 64, 67
6, 61875, Note_on_c, 9, 64, 0
6, 61917, Note_on_c, 9, 64, 54
6, 61939, Note_on_c, 9, 64, 0
6, 62761, Note_on_c, 9, 63, 49
6, 62765, Note_on_c, 9, 62, 40
6, 62814, Note_on_c, 9, 63, 0
6, 62816, Note_on_c, 9, 62, 0
6, 62830, Note_on_c, 9, 63, 49
6, 62836, Note_on_c, 9, 62, 38
6, 62865, Note_on_c, 9, 63, 0
6, 62879, Note_on_c, 9, 62, 0
6, 63004, Note_on_c, 9, 64, 52
6, 63051, Note_on_c, 9, 64, 0
6, 63069, Note_on_c, 9, 64, 67
6, 63144, Note_on_c, 9, 64, 0
6, 63248, Note_on_c, 9, 63, 48
6, 63250, Note_on_c, 9, 62, 36
6, 63281, Note_on_c, 9, 62, 0
6, 63284, Note_on_c, 9, 63, 0
6, 63545, Note_on_c, 9, 64, 65
6, 63548, Note_on_c, 9, 62, 43
6, 63570, Note_on_c, 9, 64, 0
6, 63571, Note_on_c, 9, 62, 0
6, 63714, Note_on_c, 9, 64, 55
6, 63750, Note_on_c, 9, 64, 0
6, 64030, Note_on_c, 9, 64, 48
6, 64045, Note_on_c, 9, 64, 0
6, 64081, Note_on_c, 9, 64, 53
6, 64098, Note_on_c, 9, 64, 0
6, 65161, Note_on_c, 9, 64, 67
6, 65190, Note_on_c, 9, 64, 0
6, 65232, Note_on_c, 9, 64, 76
6, 65263, Note_on_c, 9, 64, 0
6, 65402, Note_on_c, 9, 63, 59
6, 65408, Note_on_c, 9, 62, 52
6, 65430, Note_on_c, 9, 63, 0
6, 65434, Note_on_c, 9, 62, 0
6, 65600, Note_on_c, 9, 62, 20
6, 65609, Note_on_c, 9, 62, 0
6, 65635, Note_on_c, 9, 64, 79
6, 65655, Note_on_c, 9, 64, 0
6, 65702, Note_on_c, 9, 64, 83
6, 65735, Note_on_c, 9, 64, 0
6, 65880, Note_on_c, 9, 63, 62
6, 65883, Note_on_c, 9, 62, 49
6, 65903, Note_on_c, 9, 62, 0
6, 65905, Note_on_c, 9, 63, 0
6, 66132, Note_on_c, 9, 64, 24
6, 66140, Note_on_c, 9, 64, 0
6, 66193, Note_on_c, 9, 64, 83
6, 66215, Note_on_c, 9, 64, 0
6, 66360, Note_on_c, 9, 62, 49
6, 66360, Note_on_c, 9, 63, 63
6, 66394, Note_on_c, 9, 63, 0
6, 66405, Note_on_c, 9, 62, 0
6, 66434, Note_on_c, 9, 63, 70
6, 66438, Note_on_c, 9, 62, 62
6, 66485, Note_on_c, 9, 63, 0
6, 66491, Note_on_c, 9, 62, 0
6, 66533, Note_on_c, 9, 62, 43
6, 66546, Note_on_c, 9, 62, 0
6, 66610, Note_on_c, 9, 63, 69
6, 66615, Note_on_c, 9, 62, 64
6, 66659, Note_on_c, 9, 62, 0
6, 66659, Note_on_c, 9, 63, 0
6, 66689, Note_on_c, 9, 63, 66
6, 66695, Note_on_c, 9, 62, 62
6, 66722, Note_on_c, 9, 62, 0
6, 66726, Note_on_c, 9, 63, 0
6, 67083, Note_on_c, 9, 64, 76
6, 67139, Note_on_c, 9, 64, 0
6, 67389, Note_on_c, 9, 64, 24
6, 67397, Note_on_c, 9, 64, 0
6, 67569, Note_on_c, 9, 64, 62
6, 67591, Note_on_c, 9, 64, 0
6, 67634, Note_on_c, 9, 64, 59
6, 67680, Note_on_c, 9, 64, 0
6, 67797, Note_on_c, 9, 63, 40
6, 67800, Note_on_c, 9, 62, 33
6, 67827, Note_on_c, 9, 62, 0
6, 67833, Note_on_c, 9, 63, 0
6, 68100, Note_on_c, 9, 64, 70
6, 68124, Note_on_c, 9, 64, 0
6, 68279, Note_on_c, 9, 63, 56
6, 68284, Note_on_c, 9, 62, 44
6, 68310, Note_on_c, 9, 62, 0
6, 68314, Note_on_c, 9, 63, 0
6, 68586, Note_on_c, 9, 64, 83
6, 68631, Note_on_c, 9, 64, 0
6, 68766, Note_on_c, 9, 63, 53
6, 68777, Note_on_c, 9, 62, 39
6, 68799, Note_on_c, 9, 62, 0
6, 68809, Note_on_c, 9, 63, 0
6, 69014, Note_on_c, 9, 64, 27
6, 69036, Note_on_c, 9, 64, 0
6, 69072, Note_on_c, 9, 64, 93
6, 69110, Note_on_c, 9, 64, 0
6, 69195, Note_on_c, 9, 62, 25
6, 69206, Note_on_c, 9, 62, 0
6, 69248, Note_on_c, 9, 63, 59
6, 69249, Note_on_c, 9, 62, 38
6, 69298, Note_on_c, 9, 62, 0
6, 69301, Note_on_c, 9, 63, 0
6, 69486, Note_on_c, 9, 64, 24
6, 69504, Note_on_c, 9, 64, 0
6, 69549, Note_on_c, 9, 64, 75
6, 69570, Note_on_c, 9, 64, 0
6, 69727, Note_on_c, 9, 63, 40
6, 69733, Note_on_c, 9, 62, 35
6, 69764, Note_on_c, 9, 62, 0
6, 69773, Note_on_c, 9, 63, 0
6, 69797, Note_on_c, 9, 63, 34
6, 69800, Note_on_c, 9, 62, 24
6, 69821, Note_on_c, 9, 62, 0
6, 69824, Note_on_c, 9, 63, 0
6, 70036, Note_on_c, 9, 64, 50
6, 70055, Note_on_c, 9, 64, 0
6, 70147, Note_on_c, 9, 62, 33
6, 70165, Note_on_c, 9, 62, 0
6, 70923, Note_on_c, 9, 64, 66
6, 70937, Note_on_c, 9, 64, 0
6, 71224, Note_on_c, 9, 63, 52
6, 71228, Note_on_c, 9, 62, 44
6, 71252, Note_on_c, 9, 62, 0
6, 71257, Note_on_c, 9, 63, 0
6, 71399, Note_on_c, 9, 64, 49
6, 71446, Note_on_c, 9, 64, 0
6, 71466, Note_on_c, 9, 64, 67
6, 71497, Note_on_c, 9, 64, 0
6, 71708, Note_on_c, 9, 63, 48
6, 71713, Note_on_c, 9, 62, 31
6, 71733, Note_on_c, 9, 62, 0
6, 71736, Note_on_c, 9, 63, 0
6, 71772, Note_on_c, 9, 63, 44
6, 71772, Note_on_c, 9, 62, 36
6, 71809, Note_on_c, 9, 62, 0
6, 71820, Note_on_c, 9, 63, 0
6, 71885, Note_on_c, 9, 64, 37
6, 71927, Note_on_c, 9, 64, 0
6, 71946, Note_on_c, 9, 64, 63
6, 71975, Note_on_c, 9, 64, 0
6, 72191, Note_on_c, 9, 63, 44
6, 72194, Note_on_c, 9, 62, 38
6, 72222, Note_on_c, 9, 62, 0
6, 72239, Note_on_c, 9, 63, 0
6, 72365, Note_on_c, 9, 64, 78
6, 72414, Note_on_c, 9, 64, 0
6, 72429, Note_on_c, 9, 64, 83
6, 72471, Note_on_c, 9, 64, 0
6, 72606, Note_on_c, 9, 63, 49
6, 72614, Note_on_c, 9, 62, 40
6, 72648, Note_on_c, 9, 62, 0
6, 72657, Note_on_c, 9, 63, 0
6, 72850, Note_on_c, 9, 64, 85
6, 72908, Note_on_c, 9, 64, 0
6, 73088, Note_on_c, 9, 63, 38
6, 73092, Note_on_c, 9, 62, 25
6, 73134, Note_on_c, 9, 63, 0
6, 73136, Note_on_c, 9, 62, 0
6, 73155, Note_on_c, 9, 63, 60
6, 73158, Note_on_c, 9, 62, 63
6, 73206, Note_on_c, 9, 63, 0
6, 73212, Note_on_c, 9, 62, 0
6, 73275, Note_on_c, 9, 62, 24
6, 73286, Note_on_c, 9, 62, 0
6, 73326, Note_on_c, 9, 64, 61
6, 73370, Note_on_c, 9, 64, 0
6, 73393, Note_on_c, 9, 64, 70
6, 73441, Note_on_c, 9, 64, 0
6, 73637, Note_on_c, 9, 63, 55
6, 73638, Note_on_c, 9, 62, 29
6, 73674, Note_on_c, 9, 63, 0
6, 73684, Note_on_c, 9, 62, 0
6, 73708, Note_on_c, 9, 63, 48
6, 73712, Note_on_c, 9, 62, 28
6, 73756, Note_on_c, 9, 63, 0
6, 73760, Note_on_c, 9, 62, 0
6, 73869, Note_on_c, 9, 63, 42
6, 73883, Note_on_c, 9, 62, 27
6, 73902, Note_on_c, 9, 63, 0
6, 73912, Note_on_c, 9, 62, 0
6, 73949, Note_on_c, 9, 63, 40
6, 73950, Note_on_c, 9, 62, 30
6, 73981, Note_on_c, 9, 62, 0
6, 73992, Note_on_c, 9, 63, 0
6, 74034, Note_on_c, 9, 62, 30
6, 74046, Note_on_c, 9, 62, 0
6, 74292, Note_on_c, 9, 64, 35
6, 74303, Note_on_c, 9, 64, 0
6, 74352, Note_on_c, 9, 64, 72
6, 74376, Note_on_c, 9, 64, 0
6, 74470, Note_on_c, 9, 62, 51
6, 74483, Note_on_c, 9, 62, 0
6, 74590, Note_on_c, 9, 62, 46
6, 74602, Note_on_c, 9, 62, 0
6, 74714, Note_on_c, 9, 62, 41
6, 74724, Note_on_c, 9, 62, 0
6, 74829, Note_on_c, 9, 57, 75
6, 74838, Note_on_c, 9, 57, 0
6, 77164, Note_on_c, 9, 64, 22
6, 77197, Note_on_c, 9, 64, 0
6, 77223, Note_on_c, 9, 64, 54
6, 77250, Note_on_c, 9, 64, 0
6, 77400, Note_on_c, 9, 63, 39
6, 77403, Note_on_c, 9, 62, 36
6, 77437, Note_on_c, 9, 62, 0
6, 77448, Note_on_c, 9, 63, 0
6, 77651, Note_on_c, 9, 64, 28
6, 77681, Note_on_c, 9, 64, 0
6, 77714, Note_on_c, 9, 64, 40
6, 77732, Note_on_c, 9, 64, 0
6, 78433, Note_on_c, 9, 64, 57
6, 78451, Note_on_c, 9, 64, 0
6, 79980, Note_on_c, 9, 62, 32
6, 79990, Note_on_c, 9, 62, 0
6, 80030, Note_on_c, 9, 63, 56
6, 80033, Note_on_c, 9, 62, 52
6, 80088, Note_on_c, 9, 63, 0
6, 80095, Note_on_c, 9, 62, 0
6, 80226, Note_on_c, 9, 62, 36
6, 80237, Note_on_c, 9, 62, 0
6, 80472, Note_on_c, 9, 62, 40
6, 80481, Note_on_c, 9, 62, 0
6, 80532, Note_on_c, 9, 63, 72
6, 80537, Note_on_c, 9, 62, 67
6, 80588, Note_on_c, 9, 63, 0
6, 80591, Note_on_c, 9, 62, 0
6, 80602, Note_on_c, 9, 63, 63
6, 80607, Note_on_c, 9, 62, 71
6, 80653, Note_on_c, 9, 63, 0
6, 80659, Note_on_c, 9, 62, 0
6, 80955, Note_on_c, 9, 62, 27
6, 80966, Note_on_c, 9, 62, 0
6, 81000, Note_on_c, 9, 63, 57
6, 81006, Note_on_c, 9, 62, 56
6, 81048, Note_on_c, 9, 63, 0
6, 81057, Note_on_c, 9, 62, 0
6, 81076, Note_on_c, 9, 63, 63
6, 81078, Note_on_c, 9, 62, 55
6, 81135, Note_on_c, 9, 63, 0
6, 81139, Note_on_c, 9, 62, 0
6, 81427, Note_on_c, 9, 62, 37
6, 81438, Note_on_c, 9, 62, 0
6, 81484, Note_on_c, 9, 63, 68
6, 81491, Note_on_c, 9, 62, 64
6, 81550, Note_on_c, 9, 63, 0
6, 81552, Note_on_c, 9, 62, 0
6, 81676, Note_on_c, 9, 64, 67
6, 81696, Note_on_c, 9, 64, 0
6, 81920, Note_on_c, 9, 63, 49
6, 81920, Note_on_c, 9, 62, 45
6, 81940, Note_on_c, 9, 62, 0
6, 81945, Note_on_c, 9, 63, 0
6, 82187, Note_on_c, 9, 62, 26
6, 82198, Note_on_c, 9, 62, 0
6, 82212, Note_on_c, 9, 62, 40
6, 82221, Note_on_c, 9, 62, 0
6, 82232, Note_on_c, 9, 62, 52
6, 82247, Note_on_c, 9, 62, 0
6, 82262, Note_on_c, 9, 62, 47
6, 82270, Note_on_c, 9, 62, 0
6, 82382, Note_on_c, 9, 62, 53
6, 82394, Note_on_c, 9, 62, 0
6, 82443, Note_on_c, 9, 62, 28
6, 82454, Note_on_c, 9, 62, 0
6, 82502, Note_on_c, 9, 62, 68
6, 82554, Note_on_c, 9, 62, 0
6, 83954, Note_on_c, 9, 64, 76
6, 83966, Note_on_c, 9, 64, 0
6, 84358, Note_on_c, 9, 63, 51
6, 84361, Note_on_c, 9, 62, 52
6, 84401, Note_on_c, 9, 63, 0
6, 84404, Note_on_c, 9, 62, 0
6, 84424, Note_on_c, 9, 63, 48
6, 84429, Note_on_c, 9, 62, 48
6, 84451, Note_on_c, 9, 62, 0
6, 84455, Note_on_c, 9, 63, 0
6, 84596, Note_on_c, 9, 64, 71
6, 84620, Note_on_c, 9, 64, 0
6, 84668, Note_on_c, 9, 64, 67
6, 84691, Note_on_c, 9, 64, 0
6, 84792, Note_on_c, 9, 62, 26
6, 84802, Note_on_c, 9, 62, 0
6, 84842, Note_on_c, 9, 63, 61
6, 84849, Note_on_c, 9, 62, 49
6, 84869, Note_on_c, 9, 62, 0
6, 84874, Note_on_c, 9, 63, 0
6, 85047, Note_on_c, 9, 64, 70
6, 85064, Note_on_c, 9, 64, 0
6, 85270, Note_on_c, 9, 62, 31
6, 85280, Note_on_c, 9, 62, 0
6, 85318, Note_on_c, 9, 63, 49
6, 85320, Note_on_c, 9, 62, 35
6, 85364, Note_on_c, 9, 62, 0
6, 85364, Note_on_c, 9, 63, 0
6, 85384, Note_on_c, 9, 63, 48
6, 85386, Note_on_c, 9, 62, 48
6, 85420, Note_on_c, 9, 63, 0
6, 85436, Note_on_c, 9, 62, 0
6, 85498, Note_on_c, 9, 62, 25
6, 85510, Note_on_c, 9, 62, 0
6, 85559, Note_on_c, 9, 64, 33
6, 85572, Note_on_c, 9, 64, 0
6, 85620, Note_on_c, 9, 64, 83
6, 85657, Note_on_c, 9, 64, 0
6, 85678, Note_on_c, 9, 64, 72
6, 85727, Note_on_c, 9, 64, 0
6, 85792, Note_on_c, 9, 62, 23
6, 85814, Note_on_c, 9, 62, 0
6, 85864, Note_on_c, 9, 63, 55
6, 85868, Note_on_c, 9, 62, 45
6, 85907, Note_on_c, 9, 63, 0
6, 85911, Note_on_c, 9, 62, 0
6, 85926, Note_on_c, 9, 63, 40
6, 85929, Note_on_c, 9, 62, 37
6, 85968, Note_on_c, 9, 62, 0
6, 85978, Note_on_c, 9, 63, 0
6, 86045, Note_on_c, 9, 62, 29
6, 86061, Note_on_c, 9, 62, 0
6, 86104, Note_on_c, 9, 64, 70
6, 86111, Note_on_c, 9, 62, 40
6, 86123, Note_on_c, 9, 62, 0
6, 86144, Note_on_c, 9, 64, 0
6, 86223, Note_on_c, 9, 62, 30
6, 86245, Note_on_c, 9, 62, 0
6, 86286, Note_on_c, 9, 63, 64
6, 86290, Note_on_c, 9, 62, 52
6, 86336, Note_on_c, 9, 63, 0
6, 86342, Note_on_c, 9, 62, 0
6, 86363, Note_on_c, 9, 63, 63
6, 86370, Note_on_c, 9, 62, 49
6, 86406, Note_on_c, 9, 62, 0
6, 86408, Note_on_c, 9, 63, 0
6, 86537, Note_on_c, 9, 62, 39
6, 86548, Note_on_c, 9, 62, 0
6, 86830, Note_on_c, 9, 62, 26
6, 86840, Note_on_c, 9, 62, 0
6, 86994, Note_on_c, 9, 63, 31
6, 87002, Note_on_c, 9, 63, 0
6, 87065, Note_on_c, 9, 63, 65
6, 87065, Note_on_c, 9, 62, 55
6, 87088, Note_on_c, 9, 63, 0
6, 87119, Note_on_c, 9, 62, 0
6, 87120, Note_on_c, 9, 63, 56
6, 87138, Note_on_c, 9, 62, 13
6, 87167, Note_on_c, 9, 63, 0
6, 87174, Note_on_c, 9, 62, 0
6, 87202, Note_on_c, 9, 62, 26
6, 87213, Note_on_c, 9, 62, 0
6, 87244, Note_on_c, 9, 62, 26
6, 87264, Note_on_c, 9, 62, 0
6, 87308, Note_on_c, 9, 64, 65
6, 87325, Note_on_c, 9, 64, 0
6, 87479, Note_on_c, 9, 62, 27
6, 87494, Note_on_c, 9, 62, 0
6, 87549, Note_on_c, 9, 62, 48
6, 87549, Note_on_c, 9, 63, 55
6, 87586, Note_on_c, 9, 63, 0
6, 87590, Note_on_c, 9, 62, 0
6, 87618, Note_on_c, 9, 62, 35
6, 87620, Note_on_c, 9, 63, 51
6, 87666, Note_on_c, 9, 62, 0
6, 87668, Note_on_c, 9, 63, 0
6, 87718, Note_on_c, 9, 62, 32
6, 87734, Note_on_c, 9, 62, 0
6, 87951, Note_on_c, 9, 62, 40
6, 87969, Note_on_c, 9, 62, 0
6, 88027, Note_on_c, 9, 63, 56
6, 88028, Note_on_c, 9, 62, 51
6, 88065, Note_on_c, 9, 63, 0
6, 88075, Note_on_c, 9, 62, 0
6, 88110, Note_on_c, 9, 63, 50
6, 88113, Note_on_c, 9, 62, 43
6, 88149, Note_on_c, 9, 62, 0
6, 88161, Note_on_c, 9, 63, 0
6, 88200, Note_on_c, 9, 62, 44
6, 88213, Note_on_c, 9, 62, 0
6, 88677, Note_on_c, 9, 62, 34
6, 88683, Note_on_c, 9, 63, 40
6, 88727, Note_on_c, 9, 62, 0
6, 88728, Note_on_c, 9, 63, 0
6, 88748, Note_on_c, 9, 63, 43
6, 88754, Note_on_c, 9, 62, 36
6, 88775, Note_on_c, 9, 62, 0
6, 88785, Note_on_c, 9, 63, 0
6, 88989, Note_on_c, 9, 64, 52
6, 88998, Note_on_c, 9, 64, 0
6, 89047, Note_on_c, 9, 64, 57
6, 89068, Note_on_c, 9, 64, 0
6, 89229, Note_on_c, 9, 62, 27
6, 89240, Note_on_c, 9, 62, 0
6, 89461, Note_on_c, 9, 62, 24
6, 89472, Note_on_c, 9, 62, 0
6, 89520, Note_on_c, 9, 62, 26
6, 89535, Note_on_c, 9, 62, 0
6, 89593, Note_on_c, 9, 63, 30
6, 89604, Note_on_c, 9, 63, 0
6, 89946, Note_on_c, 9, 64, 54
6, 89957, Note_on_c, 9, 64, 0
6, 90009, Note_on_c, 9, 64, 62
6, 90022, Note_on_c, 9, 64, 0
6, 90190, Note_on_c, 9, 62, 45
6, 90211, Note_on_c, 9, 62, 0
6, 90250, Note_on_c, 9, 62, 40
6, 90272, Note_on_c, 9, 62, 0
6, 90723, Note_on_c, 9, 64, 39
6, 90761, Note_on_c, 9, 64, 0
6, 90909, Note_on_c, 9, 63, 39
6, 90910, Note_on_c, 9, 62, 39
6, 90931, Note_on_c, 9, 62, 0
6, 90931, Note_on_c, 9, 63, 0
6, 91379, Note_on_c, 9, 62, 48
6, 91380, Note_on_c, 9, 63, 59
6, 91412, Note_on_c, 9, 63, 0
6, 91427, Note_on_c, 9, 62, 0
6, 91446, Note_on_c, 9, 62, 48
6, 91446, Note_on_c, 9, 63, 54
6, 91499, Note_on_c, 9, 62, 0
6, 91505, Note_on_c, 9, 63, 0
6, 91561, Note_on_c, 9, 62, 29
6, 91586, Note_on_c, 9, 62, 0
6, 91797, Note_on_c, 9, 62, 30
6, 91810, Note_on_c, 9, 62, 0
6, 91863, Note_on_c, 9, 62, 40
6, 91863, Note_on_c, 9, 63, 42
6, 91888, Note_on_c, 9, 62, 0
6, 91889, Note_on_c, 9, 63, 0
6, 91931, Note_on_c, 9, 63, 40
6, 91932, Note_on_c, 9, 62, 28
6, 91968, Note_on_c, 9, 62, 0
6, 91994, Note_on_c, 9, 63, 0
6, 92034, Note_on_c, 9, 62, 30
6, 92050, Note_on_c, 9, 62, 0
6, 92107, Note_on_c, 9, 64, 52
6, 92125, Note_on_c, 9, 64, 0
6, 92225, Note_on_c, 9, 62, 24
6, 92235, Note_on_c, 9, 62, 0
6, 92338, Note_on_c, 9, 62, 42
6, 92342, Note_on_c, 9, 63, 50
6, 92370, Note_on_c, 9, 62, 0
6, 92375, Note_on_c, 9, 63, 0
6, 92424, Note_on_c, 9, 63, 44
6, 92430, Note_on_c, 9, 62, 41
6, 92467, Note_on_c, 9, 63, 0
6, 92468, Note_on_c, 9, 62, 0
6, 92519, Note_on_c, 9, 63, 45
6, 92519, Note_on_c, 9, 62, 32
6, 92549, Note_on_c, 9, 62, 0
6, 92555, Note_on_c, 9, 63, 0
6, 92597, Note_on_c, 9, 63, 39
6, 92601, Note_on_c, 9, 62, 23
6, 92620, Note_on_c, 9, 62, 0
6, 92626, Note_on_c, 9, 63, 0
6, 92765, Note_on_c, 9, 64, 46
6, 92779, Note_on_c, 9, 64, 0
6, 92829, Note_on_c, 9, 64, 61
6, 92850, Note_on_c, 9, 64, 0
6, 93001, Note_on_c, 9, 62, 16
6, 93003, Note_on_c, 9, 63, 28
6, 93037, Note_on_c, 9, 62, 0
6, 93042, Note_on_c, 9, 63, 0
6, 93068, Note_on_c, 9, 62, 36
6, 93069, Note_on_c, 9, 63, 42
6, 93098, Note_on_c, 9, 62, 0
6, 93099, Note_on_c, 9, 63, 0
6, 93247, Note_on_c, 9, 64, 40
6, 93263, Note_on_c, 9, 64, 0
6, 93306, Note_on_c, 9, 64, 78
6, 93344, Note_on_c, 9, 64, 0
6, 93387, Note_on_c, 9, 64, 85
6, 93445, Note_on_c, 9, 64, 0
6, 93479, Note_on_c, 9, 64, 83
6, 93532, Note_on_c, 9, 64, 0
6, 93564, Note_on_c, 9, 64, 54
6, 93595, Note_on_c, 9, 64, 0
6, 93726, Note_on_c, 9, 63, 29
6, 93759, Note_on_c, 9, 63, 0
6, 93794, Note_on_c, 9, 63, 28
6, 93795, Note_on_c, 9, 62, 24
6, 93873, Note_on_c, 9, 62, 0
6, 93890, Note_on_c, 9, 63, 0
6, 93913, Note_on_c, 9, 62, 19
6, 93924, Note_on_c, 9, 62, 0
6, 94030, Note_on_c, 9, 63, 31
6, 94032, Note_on_c, 9, 62, 27
6, 94046, Note_on_c, 9, 62, 0
6, 94071, Note_on_c, 9, 63, 0
6, 94150, Note_on_c, 9, 64, 28
6, 94168, Note_on_c, 9, 64, 0
6, 94208, Note_on_c, 9, 64, 39
6, 94237, Note_on_c, 9, 64, 0
6, 94272, Note_on_c, 9, 62, 17
6, 94283, Note_on_c, 9, 62, 0
6, 94324, Note_on_c, 9, 62, 31
6, 94326, Note_on_c, 9, 63, 29
6, 94340, Note_on_c, 9, 62, 0
6, 94350, Note_on_c, 9, 63, 0
6, 94397, Note_on_c, 9, 63, 33
6, 94404, Note_on_c, 9, 62, 28
6, 94438, Note_on_c, 9, 62, 0
6, 94440, Note_on_c, 9, 63, 0
6, 94488, Note_on_c, 9, 63, 28
6, 94496, Note_on_c, 9, 62, 28
6, 94520, Note_on_c, 9, 62, 0
6, 94529, Note_on_c, 9, 63, 0
6, 94574, Note_on_c, 9, 63, 28
6, 94579, Note_on_c, 9, 62, 27
6, 94637, Note_on_c, 9, 63, 0
6, 94643, Note_on_c, 9, 62, 0
6, 94696, Note_on_c, 9, 63, 28
6, 94701, Note_on_c, 9, 62, 25
6, 94713, Note_on_c, 9, 62, 0
6, 94713, Note_on_c, 9, 63, 0
6, 94764, Note_on_c, 9, 63, 27
6, 94769, Note_on_c, 9, 62, 26
6, 94802, Note_on_c, 9, 62, 0
6, 94813, Note_on_c, 9, 63, 0
6, 94861, Note_on_c, 9, 62, 29
6, 94885, Note_on_c, 9, 62, 0
6, 94930, Note_on_c, 9, 63, 28
6, 94933, Note_on_c, 9, 62, 28
6, 94985, Note_on_c, 9, 63, 0
6, 94993, Note_on_c, 9, 62, 0
6, 94993, End_track
7, 0, Start_track
7, 0, Title_t, ""
7, 43205, Note_on_c, 9, 75, 61
7, 43255, Note_on_c, 9, 75, 0
7, 43383, Note_on_c, 9, 75, 62
7, 43434, Note_on_c, 9, 75, 0
7, 43571, Note_on_c, 9, 75, 65
7, 43635, Note_on_c, 9, 75, 0
7, 43823, Note_on_c, 9, 75, 62
7, 43873, Note_on_c, 9, 75, 0
7, 43988, Note_on_c, 9, 75, 64
7, 44036, Note_on_c, 9, 75, 0
7, 44156, Note_on_c, 9, 75, 64
7, 44207, Note_on_c, 9, 75, 0
7, 44348, Note_on_c, 9, 75, 66
7, 44400, Note_on_c, 9, 75, 0
7, 44534, Note_on_c, 9, 75, 63
7, 44592, Note_on_c, 9, 75, 0
7, 44766, Note_on_c, 9, 75, 63
7, 44826, Note_on_c, 9, 75, 0
7, 44942, Note_on_c, 9, 75, 63
7, 44999, Note_on_c, 9, 75, 0
7, 45115, Note_on_c, 9, 75, 65
7, 45167, Note_on_c, 9, 75, 0
7, 45302, Note_on_c, 9, 75, 62
7, 45355, Note_on_c, 9, 75, 0
7, 45476, Note_on_c, 9, 75, 61
7, 45534, Note_on_c, 9, 75, 0
7, 45718, Note_on_c, 9, 75, 56
7, 45780, Note_on_c, 9, 75, 0
7, 45848, Note_on_c, 9, 75, 62
7, 45922, Note_on_c, 9, 75, 0
7, 46088, Note_on_c, 9, 75, 58
7, 46154, Note_on_c, 9, 75, 0
7, 46253, Note_on_c, 9, 75, 63
7, 46316, Note_on_c, 9, 75, 0
7, 46437, Note_on_c, 9, 75, 63
7, 46497, Note_on_c, 9, 75, 0
7, 46683, Note_on_c, 9, 75, 62
7, 46745, Note_on_c, 9, 75, 0
7, 46867, Note_on_c, 9, 75, 55
7, 46927, Note_on_c, 9, 75, 0
7, 47002, Note_on_c, 9, 75, 55
7, 47031, Note_on_c, 9, 75, 0
7, 47059, Note_on_c, 9, 75, 56
7, 47129, Note_on_c, 9, 75, 0
7, 47231, Note_on_c, 9, 75, 60
7, 47291, Note_on_c, 9, 75, 0
7, 47417, Note_on_c, 9, 75, 63
7, 47478, Note_on_c, 9, 75, 0
7, 47651, Note_on_c, 9, 75, 65
7, 47702, Note_on_c, 9, 75, 0
7, 47824, Note_on_c, 9, 75, 65
7, 47871, Note_on_c, 9, 75, 0
7, 47995, Note_on_c, 9, 75, 65
7, 48050, Note_on_c, 9, 75, 0
7, 48173, Note_on_c, 9, 75, 65
7, 48224, Note_on_c, 9, 75, 0
7, 48360, Note_on_c, 9, 75, 65
7, 48416, Note_on_c, 9, 75, 0
7, 48607, Note_on_c, 9, 75, 65
7, 48654, Note_on_c, 9, 75, 0
7, 48787, Note_on_c, 9, 75, 64
7, 48841, Note_on_c, 9, 75, 0
7, 48914, Note_on_c, 9, 75, 59
7, 48942, Note_on_c, 9, 75, 0
7, 48969, Note_on_c, 9, 75, 56
7, 49026, Note_on_c, 9, 75, 0
7, 49144, Note_on_c, 9, 75, 62
7, 49199, Note_on_c, 9, 75, 0
7, 49329, Note_on_c, 9, 75, 63
7, 49386, Note_on_c, 9, 75, 0
7, 49563, Note_on_c, 9, 75, 60
7, 49615, Note_on_c, 9, 75, 0
7, 49677, Note_on_c, 9, 75, 62
7, 49737, Note_on_c, 9, 75, 0
7, 49907, Note_on_c, 9, 75, 63
7, 49962, Note_on_c, 9, 75, 0
7, 50104, Note_on_c, 9, 75, 58
7, 50158, Note_on_c, 9, 75, 0
7, 50283, Note_on_c, 9, 75, 63
7, 50338, Note_on_c, 9, 75, 0
7, 50517, Note_on_c, 9, 75, 62
7, 50566, Note_on_c, 9, 75, 0
7, 50644, Note_on_c, 9, 75, 63
7, 50706, Note_on_c, 9, 75, 0
7, 50994, Note_on_c, 9, 75, 57
7, 51044, Note_on_c, 9, 75, 0
7, 51128, Note_on_c, 9, 75, 61
7, 51177, Note_on_c, 9, 75, 0
7, 51377, Note_on_c, 9, 75, 65
7, 51431, Note_on_c, 9, 75, 0
7, 51544, Note_on_c, 9, 75, 62
7, 51608, Note_on_c, 9, 75, 0
7, 51732, Note_on_c, 9, 75, 63
7, 51781, Note_on_c, 9, 75, 0
7, 51968, Note_on_c, 9, 75, 63
7, 52015, Note_on_c, 9, 75, 0
7, 52096, Note_on_c, 9, 75, 63
7, 52153, Note_on_c, 9, 75, 0
7, 52333, Note_on_c, 9, 75, 65
7, 52386, Note_on_c, 9, 75, 0
7, 52501, Note_on_c, 9, 75, 63
7, 52558, Note_on_c, 9, 75, 0
7, 52686, Note_on_c, 9, 75, 63
7, 52734, Note_on_c, 9, 75, 0
7, 52928, Note_on_c, 9, 75, 63
7, 52966, Note_on_c, 9, 75, 0
7, 53049, Note_on_c, 9, 75, 62
7, 53099, Note_on_c, 9, 75, 0
7, 53288, Note_on_c, 9, 75, 65
7, 53339, Note_on_c, 9, 75, 0
7, 53462, Note_on_c, 9, 75, 65
7, 53511, Note_on_c, 9, 75, 0
7, 53651, Note_on_c, 9, 75, 62
7, 53701, Note_on_c, 9, 75, 0
7, 53876, Note_on_c, 9, 75, 58
7, 53920, Note_on_c, 9, 75, 0
7, 54010, Note_on_c, 9, 75, 60
7, 54061, Note_on_c, 9, 75, 0
7, 54250, Note_on_c, 9, 75, 63
7, 54299, Note_on_c, 9, 75, 0
7, 54424, Note_on_c, 9, 75, 63
7, 54473, Note_on_c, 9, 75, 0
7, 54605, Note_on_c, 9, 75, 63
7, 54660, Note_on_c, 9, 75, 0
7, 54836, Note_on_c, 9, 75, 62
7, 54880, Note_on_c, 9, 75, 0
7, 54964, Note_on_c, 9, 75, 63
7, 55020, Note_on_c, 9, 75, 0
7, 55202, Note_on_c, 9, 75, 61
7, 55251, Note_on_c, 9, 75, 0
7, 55381, Note_on_c, 9, 75, 63
7, 55442, Note_on_c, 9, 75, 0
7, 55569, Note_on_c, 9, 75, 65
7, 55623, Note_on_c, 9, 75, 0
7, 55804, Note_on_c, 9, 75, 63
7, 55845, Note_on_c, 9, 75, 0
7, 55921, Note_on_c, 9, 75, 63
7, 55980, Note_on_c, 9, 75, 0
7, 56166, Note_on_c, 9, 75, 59
7, 56222, Note_on_c, 9, 75, 0
7, 56341, Note_on_c, 9, 75, 60
7, 56408, Note_on_c, 9, 75, 0
7, 56528, Note_on_c, 9, 75, 66
7, 56588, Note_on_c, 9, 75, 0
7, 56769, Note_on_c, 9, 75, 62
7, 56821, Note_on_c, 9, 75, 0
7, 56897, Note_on_c, 9, 75, 64
7, 56956, Note_on_c, 9, 75, 0
7, 57130, Note_on_c, 9, 75, 61
7, 57197, Note_on_c, 9, 75, 0
7, 57307, Note_on_c, 9, 75, 65
7, 57374, Note_on_c, 9, 75, 0
7, 57484, Note_on_c, 9, 75, 65
7, 57546, Note_on_c, 9, 75, 0
7, 57719, Note_on_c, 9, 75, 61
7, 57770, Note_on_c, 9, 75, 0
7, 57850, Note_on_c, 9, 75, 63
7, 57908, Note_on_c, 9, 75, 0
7, 58085, Note_on_c, 9, 75, 65
7, 58160, Note_on_c, 9, 75, 0
7, 58263, Note_on_c, 9, 75, 63
7, 58324, Note_on_c, 9, 75, 0
7, 58444, Note_on_c, 9, 75, 65
7, 58507, Note_on_c, 9, 75, 0
7, 58687, Note_on_c, 9, 75, 60
7, 58741, Note_on_c, 9, 75, 0
7, 58810, Note_on_c, 9, 75, 66
7, 58863, Note_on_c, 9, 75, 0
7, 59045, Note_on_c, 9, 75, 61
7, 59095, Note_on_c, 9, 75, 0
7, 59223, Note_on_c, 9, 75, 62
7, 59274, Note_on_c, 9, 75, 0
7, 59411, Note_on_c, 9, 75, 65
7, 59475, Note_on_c, 9, 75, 0
7, 59663, Note_on_c, 9, 75, 62
7, 59713, Note_on_c, 9, 75, 0
7, 59828, Note_on_c, 9, 75, 64
7, 59876, Note_on_c, 9, 75, 0
7, 59996, Note_on_c, 9, 75, 64
7, 60047, Note_on_c, 9, 75, 0
7, 60188, Note_on_c, 9, 75, 66
7, 60240, Note_on_c, 9, 75, 0
7, 60374, Note_on_c, 9, 75, 63
7, 60432, Note_on_c, 9, 75, 0
7, 60606, Note_on_c, 9, 75, 63
7, 60666, Note_on_c, 9, 75, 0
7, 60782, Note_on_c, 9, 75, 63
7, 60839, Note_on_c, 9, 75, 0
7, 60955, Note_on_c, 9, 75, 65
7, 61007, Note_on_c, 9, 75, 0
7, 61142, Note_on_c, 9, 75, 62
7, 61195, Note_on_c, 9, 75, 0
7, 61316, Note_on_c, 9, 75, 61
7, 61374, Note_on_c, 9, 75, 0
7, 61558, Note_on_c, 9, 75, 56
7, 61620, Note_on_c, 9, 75, 0
7, 61688, Note_on_c, 9, 75, 62
7, 61762, Note_on_c, 9, 75, 0
7, 61928, Note_on_c, 9, 75, 58
7, 61994, Note_on_c, 9, 75, 0
7, 62093, Note_on_c, 9, 75, 63
7, 62156, Note_on_c, 9, 75, 0
7, 62277, Note_on_c, 9, 75, 63
7, 62337, Note_on_c, 9, 75, 0
7, 62523, Note_on_c, 9, 75, 62
7, 62585, Note_on_c, 9, 75, 0
7, 62707, Note_on_c, 9, 75, 55
7, 62767, Note_on_c, 9, 75, 0
7, 62842, Note_on_c, 9, 75, 55
7, 62871, Note_on_c, 9, 75, 0
7, 62899, Note_on_c, 9, 75, 56
7, 62969, Note_on_c, 9, 75, 0
7, 63071, Note_on_c, 9, 75, 60
7, 63131, Note_on_c, 9, 75, 0
7, 63257, Note_on_c, 9, 75, 63
7, 63318, Note_on_c, 9, 75, 0
7, 63491, Note_on_c, 9, 75, 65
7, 63542, Note_on_c, 9, 75, 0
7, 63664, Note_on_c, 9, 75, 65
7, 63711, Note_on_c, 9, 75, 0
7, 63835, Note_on_c, 9, 75, 65
7, 63890, Note_on_c, 9, 75, 0
7, 64013, Note_on_c, 9, 75, 65
7, 64064, Note_on_c, 9, 75, 0
7, 64200, Note_on_c, 9, 75, 65
7, 64256, Note_on_c, 9, 75, 0
7, 64447, Note_on_c, 9, 75, 65
7, 64494, Note_on_c, 9, 75, 0
7, 64627, Note_on_c, 9, 75, 64
7, 64681, Note_on_c, 9, 75, 0
7, 64754, Note_on_c, 9, 75, 59
7, 64782, Note_on_c, 9, 75, 0
7, 64809, Note_on_c, 9, 75, 56
7, 64866, Note_on_c, 9, 75, 0
7, 64984, Note_on_c, 9, 75, 62
7, 65039, Note_on_c, 9, 75, 0
7, 65169, Note_on_c, 9, 75, 63
7, 65226, Note_on_c, 9, 75, 0
7, 65403, Note_on_c, 9, 75, 60
7, 65455, Note_on_c, 9, 75, 0
7, 65517, Note_on_c, 9, 75, 62
7, 65577, Note_on_c, 9, 75, 0
7, 65747, Note_on_c, 9, 75, 63
7, 65802, Note_on_c, 9, 75, 0
7, 65944, Note_on_c, 9, 75, 58
7, 65998, Note_on_c, 9, 75, 0
7, 66123, Note_on_c, 9, 75, 63
7, 66178, Note_on_c, 9, 75, 0
7, 66357, Note_on_c, 9, 75, 62
7, 66406, Note_on_c, 9, 75, 0
7, 66484, Note_on_c, 9, 75, 63
7, 66546, Note_on_c, 9, 75, 0
7, 66834, Note_on_c, 9, 75, 57
7, 66884, Note_on_c, 9, 75, 0
7, 66968, Note_on_c, 9, 75, 61
7, 67017, Note_on_c, 9, 75, 0
7, 67217, Note_on_c, 9, 75, 65
7, 67271, Note_on_c, 9, 75, 0
7, 67384, Note_on_c, 9, 75, 62
7, 67448, Note_on_c, 9, 75, 0
7, 67572, Note_on_c, 9, 75, 63
7, 67621, Note_on_c, 9, 75, 0
7, 67808, Note_on_c, 9, 75, 63
7, 67855, Note_on_c, 9, 75, 0
7, 67936, Note_on_c, 9, 75, 63
7, 67993, Note_on_c, 9, 75, 0
7, 68173, Note_on_c, 9, 75, 65
7, 68226, Note_on_c, 9, 75, 0
7, 68341, Note_on_c, 9, 75, 63
7, 68398, Note_on_c, 9, 75, 0
7, 68526, Note_on_c, 9, 75, 63
7, 68574, Note_on_c, 9, 75, 0
7, 68768, Note_on_c, 9, 75, 63
7, 68806, Note_on_c, 9, 75, 0
7, 68889, Note_on_c, 9, 75, 62
7, 68939, Note_on_c, 9, 75, 0
7, 69128, Note_on_c, 9, 75, 65
7, 69179, Note_on_c, 9, 75, 0
7, 69302, Note_on_c, 9, 75, 65
7, 69351, Note_on_c, 9, 75, 0
7, 69491, Note_on_c, 9, 75, 62
7, 69541, Note_on_c, 9, 75, 0
7, 69716, Note_on_c, 9, 75, 58
7, 69760, Note_on_c, 9, 75, 0
7, 69850, Note_on_c, 9, 75, 60
7, 69901, Note_on_c, 9, 75, 0
7, 70090, Note_on_c, 9, 75, 63
7, 70139, Note_on_c, 9, 75, 0
7, 70264, Note_on_c, 9, 75, 63
7, 70313, Note_on_c, 9, 75, 0
7, 70445, Note_on_c, 9, 75, 63
7, 70500, Note_on_c, 9, 75, 0
7, 70676, Note_on_c, 9, 75, 62
7, 70720, Note_on_c, 9, 75, 0
7, 70804, Note_on_c, 9, 75, 63
7, 70860, Note_on_c, 9, 75, 0
7, 71042, Note_on_c, 9, 75, 61
7, 71091, Note_on_c, 9, 75, 0
7, 71221, Note_on_c, 9, 75, 63
7, 71282, Note_on_c, 9, 75, 0
7, 71409, Note_on_c, 9, 75, 65
7, 71463, Note_on_c, 9, 75, 0
7, 71644, Note_on_c, 9, 75, 63
7, 71685, Note_on_c, 9, 75, 0
7, 71761, Note_on_c, 9, 75, 63
7, 71820, Note_on_c, 9, 75, 0
7, 72006, Note_on_c, 9, 75, 59
7, 72062, Note_on_c, 9, 75, 0
7, 72181, Note_on_c, 9, 75, 60
7, 72248, Note_on_c, 9, 75, 0
7, 72368, Note_on_c, 9, 75, 66
7, 72428, Note_on_c, 9, 75, 0
7, 72609, Note_on_c, 9, 75, 62
7, 72661, Note_on_c, 9, 75, 0
7, 72737, Note_on_c, 9, 75, 64
7, 72796, Note_on_c, 9, 75, 0
7, 72970, Note_on_c, 9, 75, 61
7, 73037, Note_on_c, 9, 75, 0
7, 73147, Note_on_c, 9, 75, 65
7, 73214, Note_on_c, 9, 75, 0
7, 73324, Note_on_c, 9, 75, 65
7, 73386, Note_on_c, 9, 75, 0
7, 73559, Note_on_c, 9, 75, 61
7, 73610, Note_on_c, 9, 75, 0
7, 73690, Note_on_c, 9, 75, 63
7, 73748, Note_on_c, 9, 75, 0
7, 73925, Note_on_c, 9, 75, 65
7, 74000, Note_on_c, 9, 75, 0
7, 74103, Note_on_c, 9, 75, 63
7, 74164, Note_on_c, 9, 75, 0
7, 74284, Note_on_c, 9, 75, 65
7, 74347, Note_on_c, 9, 75, 0
7, 74527, Note_on_c, 9, 75, 60
7, 74581, Note_on_c, 9, 75, 0
7, 74650, Note_on_c, 9, 75, 66
7, 74703, Note_on_c, 9, 75, 0
7, 74885, Note_on_c, 9, 75, 61
7, 74935, Note_on_c, 9, 75, 0
7, 75063, Note_on_c, 9, 75, 62
7, 75114, Note_on_c, 9, 75, 0
7, 75251, Note_on_c, 9, 75, 65
7, 75315, Note_on_c, 9, 75, 0
7, 75503, Note_on_c, 9, 75, 62
7, 75553, Note_on_c, 9, 75, 0
7, 75668, Note_on_c, 9, 75, 64
7, 75716, Note_on_c, 9, 75, 0
7, 75836, Note_on_c, 9, 75, 64
7, 75887, Note_on_c, 9, 75, 0
7, 76028, Note_on_c, 9, 75, 66
7, 76080, Note_on_c, 9, 75, 0
7, 76214, Note_on_c, 9, 75, 63
7, 76272, Note_on_c, 9, 75, 0
7, 76446, Note_on_c, 9, 75, 63
7, 76506, Note_on_c, 9, 75, 0
7, 76622, Note_on_c, 9, 75, 63
7, 76679, Note_on_c, 9, 75, 0
7, 76795, Note_on_c, 9, 75, 65
7, 76847, Note_on_c, 9, 75, 0
7, 76982, Note_on_c, 9, 75, 62
7, 77035, Note_on_c, 9, 75, 0
7, 77156, Note_on_c, 9, 75, 61
7, 77214, Note_on_c, 9, 75, 0
7, 77398, Note_on_c, 9, 75, 56
7, 77460, Note_on_c, 9, 75, 0
7, 77528, Note_on_c, 9, 75, 62
7, 77602, Note_on_c, 9, 75, 0
7, 77768, Note_on_c, 9, 75, 58
7, 77834, Note_on_c, 9, 75, 0
7, 77933, Note_on_c, 9, 75, 63
7, 77996, Note_on_c, 9, 75, 0
7, 78117, Note_on_c, 9, 75, 63
7, 78177, Note_on_c, 9, 75, 0
7, 78363, Note_on_c, 9, 75, 62
7, 78425, Note_on_c, 9, 75, 0
7, 78547, Note_on_c, 9, 75, 55
7, 78607, Note_on_c, 9, 75, 0
7, 78682, Note_on_c, 9, 75, 55
7, 78711, Note_on_c, 9, 75, 0
7, 78739, Note_on_c, 9, 75, 56
7, 78809, Note_on_c, 9, 75, 0
7, 78911, Note_on_c, 9, 75, 60
7, 78971, Note_on_c, 9, 75, 0
7, 79097, Note_on_c, 9, 75, 63
7, 79158, Note_on_c, 9, 75, 0
7, 79331, Note_on_c, 9, 75, 65
7, 79382, Note_on_c, 9, 75, 0
7, 79504, Note_on_c, 9, 75, 65
7, 79551, Note_on_c, 9, 75, 0
7, 79675, Note_on_c, 9, 75, 65
7, 79730, Note_on_c, 9, 75, 0
7, 79853, Note_on_c, 9, 75, 65
7, 79904, Note_on_c, 9, 75, 0
7, 80040, Note_on_c, 9, 75, 65
7, 80096, Note_on_c, 9, 75, 0
7, 80287, Note_on_c, 9, 75, 65
7, 80334, Note_on_c, 9, 75, 0
7, 80467, Note_on_c, 9, 75, 64
7, 80521, Note_on_c, 9, 75, 0
7, 80594, Note_on_c, 9, 75, 59
7, 80622, Note_on_c, 9, 75, 0
7, 80649, Note_on_c, 9, 75, 56
7, 80706, Note_on_c, 9, 75, 0
7, 80824, Note_on_c, 9, 75, 62
7, 80879, Note_on_c, 9, 75, 0
7, 81009, Note_on_c, 9, 75, 63
7, 81066, Note_on_c, 9, 75, 0
7, 81243, Note_on_c, 9, 75, 60
7, 81295, Note_on_c, 9, 75, 0
7, 81357, Note_on_c, 9, 75, 62
7, 81417, Note_on_c, 9, 75, 0
7, 81587, Note_on_c, 9, 75, 63
7, 81642, Note_on_c, 9, 75, 0
7, 81784, Note_on_c, 9, 75, 58
7, 81838, Note_on_c, 9, 75, 0
7, 81963, Note_on_c, 9, 75, 63
7, 82018, Note_on_c, 9, 75, 0
7, 82197, Note_on_c, 9, 75, 62
7, 82246, Note_on_c, 9, 75, 0
7, 82324, Note_on_c, 9, 75, 63
7, 82386, Note_on_c, 9, 75, 0
7, 82674, Note_on_c, 9, 75, 57
7, 82724, Note_on_c, 9, 75, 0
7, 82808, Note_on_c, 9, 75, 61
7, 82857, Note_on_c, 9, 75, 0
7, 83057, Note_on_c, 9, 75, 65
7, 83111, Note_on_c, 9, 75, 0
7, 83224, Note_on_c, 9, 75, 62
7, 83288, Note_on_c, 9, 75, 0
7, 83412, Note_on_c, 9, 75, 63
7, 83461, Note_on_c, 9, 75, 0
7, 83648, Note_on_c, 9, 75, 63
7, 83695, Note_on_c, 9, 75, 0
7, 83776, Note_on_c, 9, 75, 63
7, 83833, Note_on_c, 9, 75, 0
7, 84013, Note_on_c, 9, 75, 65
7, 84066, Note_on_c, 9, 75, 0
7, 84181, Note_on_c, 9, 75, 63
7, 84238, Note_on_c, 9, 75, 0
7, 84366, Note_on_c, 9, 75, 63
7, 84414, Note_on_c, 9, 75, 0
7, 84608, Note_on_c, 9, 75, 63
7, 84646, Note_on_c, 9, 75, 0
7, 84729, Note_on_c, 9, 75, 62
7, 84779, Note_on_c, 9, 75, 0
7, 84968, Note_on_c, 9, 75, 65
7, 85019, Note_on_c, 9, 75, 0
7, 85142, Note_on_c, 9, 75, 65
7, 85191, Note_on_c, 9, 75, 0
7, 85331, Note_on_c, 9, 75, 62
7, 85381, Note_on_c, 9, 75, 0
7, 85556, Note_on_c, 9, 75, 58
7, 85600, Note_on_c, 9, 75, 0
7, 85690, Note_on_c, 9, 75, 60
7, 85741, Note_on_c, 9, 75, 0
7, 85930, Note_on_c, 9, 75, 63
7, 85979, Note_on_c, 9, 75, 0
7, 86104, Note_on_c, 9, 75, 63
7, 86153, Note_on_c, 9, 75, 0
7, 86285, Note_on_c, 9, 75, 63
7, 86340, Note_on_c, 9, 75, 0
7, 86516, Note_on_c, 9, 75, 62
7, 86560, Note_on_c, 9, 75, 0
7, 86644, Note_on_c, 9, 75, 63
7, 86700, Note_on_c, 9, 75, 0
7, 86882, Note_on_c, 9, 75, 61
7, 86931, Note_on_c, 9, 75, 0
7, 87061, Note_on_c, 9, 75, 63
7, 87122, Note_on_c, 9, 75, 0
7, 87249, Note_on_c, 9, 75, 65
7, 87303, Note_on_c, 9, 75, 0
7, 87484, Note_on_c, 9, 75, 63
7, 87525, Note_on_c, 9, 75, 0
7, 87601, Note_on_c, 9, 75, 63
7, 87660, Note_on_c, 9, 75, 0
7, 87846, Note_on_c, 9, 75, 59
7, 87902, Note_on_c, 9, 75, 0
7, 88021, Note_on_c, 9, 75, 60
7, 88088, Note_on_c, 9, 75, 0
7, 88208, Note_on_c, 9, 75, 66
7, 88268, Note_on_c, 9, 75, 0
7, 88449, Note_on_c, 9, 75, 62
7, 88501, Note_on_c, 9, 75, 0
7, 88577, Note_on_c, 9, 75, 64
7, 88636, Note_on_c, 9, 75, 0
7, 88810, Note_on_c, 9, 75, 61
7, 88877, Note_on_c, 9, 75, 0
7, 88987, Note_on_c, 9, 75, 65
7, 89054, Note_on_c, 9, 75, 0
7, 89164, Note_on_c, 9, 75, 65
7, 89226, Note_on_c, 9, 75, 0
7, 89399, Note_on_c, 9, 75, 61
7, 89450, Note_on_c, 9, 75, 0
7, 89530, Note_on_c, 9, 75, 63
7, 89588, Note_on_c, 9, 75, 0
7, 89765, Note_on_c, 9, 75, 65
7, 89840, Note_on_c, 9, 75, 0
7, 89943, Note_on_c, 9, 75, 63
7, 90004, Note_on_c, 9, 75, 0
7, 90124, Note_on_c, 9, 75, 65
7, 90187, Note_on_c, 9, 75, 0
7, 90367, Note_on_c, 9, 75, 60
7, 90421, Note_on_c, 9, 75, 0
7, 90490, Note_on_c, 9, 75, 66
7, 90543, Note_on_c, 9, 75, 0
7, 90543, End_track
8, 0, Start_track
8, 0, Title_t, ""
8, 0, End_track
0, 0, End_of_file
