0,0, Header,1,7,120
1,0, Start_track
1,0, Title_t,"""wirugbwr"""
1,0, Time_signature,3,2,24,8
1,0, Tempo,375000
1,0, End_track
2,0, Start_track
2,0, Title_t,"""Piano"""
2,0, Note_on_c,0,39,0
2,30, Note_on_c,0,51,0
2,60, Note_on_c,0,60,0
2,90, Note_on_c,0,46,0
2,120, Note_on_c,0,51,0
2,120, Note_on_c,0,60,0
2,150, Note_on_c,0,46,0
2,180, Note_on_c,0,49,0
2,180, Note_on_c,0,54,0
2,180, Note_on_c,0,59,0
2,180, Note_on_c,0,60,0
2,180, Note_on_c,0,63,0
2,210, Note_on_c,0,60,0
2,240, Note_on_c,0,59,0
2,270, Note_on_c,0,54,0
2,300, Note_on_c,0,49,0
2,300, Note_on_c,0,63,0
2,330, Note_on_c,0,65,0
2,360, Note_on_c,0,51,0
2,360, Note_on_c,0,56,0
2,360, Note_on_c,0,61,0
2,390, Note_on_c,0,65,0
2,420, Note_on_c,0,56,0
2,450, Note_on_c,0,61,0
2,480, Note_on_c,0,39,0
2,480, Note_on_c,0,51,0
2,510, Note_on_c,0,64,0
2,540, Note_on_c,0,54,0
2,540, Note_on_c,0,59,0
2,540, Note_on_c,0,68,0
2,570, Note_on_c,0,59,0
2,600, Note_on_c,0,64,0
2,630, Note_on_c,0,54,0
2,660, Note_on_c,0,68,0
2,690, Note_on_c,0,54,0
2,750, Note_on_c,0,54,0
2,750, Note_on_c,0,58,0
2,750, Note_on_c,0,63,0
2,750, Note_on_c,0,68,0
2,750, Note_on_c,0,72,0
2,780, Note_on_c,0,63,0
2,810, Note_on_c,0,72,0
2,840, Note_on_c,0,68,0
2,870, Note_on_c,0,58,0
2,900, Note_on_c,0,75,0
2,930, Note_on_c,0,61,0
2,930, Note_on_c,0,66,0
2,930, Note_on_c,0,71,0
2,960, Note_on_c,0,75,0
2,990, Note_on_c,0,71,0
2,1020, Note_on_c,0,66,0
2,1050, Note_on_c,0,61,0
2,1080, Note_on_c,0,63,0
2,1110, Note_on_c,0,58,0
2,1110, Note_on_c,0,68,0
2,1110, Note_on_c,0,72,0
2,1140, Note_on_c,0,63,0
2,1170, Note_on_c,0,68,0
2,1200, Note_on_c,0,72,0
2,1230, Note_on_c,0,71,0
2,1260, Note_on_c,0,58,0
2,1290, Note_on_c,0,57,0
2,1290, Note_on_c,0,62,0
2,1290, Note_on_c,0,67,0
2,1320, Note_on_c,0,62,0
2,1350, Note_on_c,0,57,0
2,1380, Note_on_c,0,67,0
2,1410, Note_on_c,0,71,0
2,1470, Note_on_c,0,44,0
2,1470, Note_on_c,0,55,0
2,1500, Note_on_c,0,55,0
2,1530, Note_on_c,0,63,0
2,1560, Note_on_c,0,63,0
2,1590, Note_on_c,0,65,0
2,1620, Note_on_c,0,63,0
2,1620, Note_on_c,0,65,0
2,1650, Note_on_c,0,63,0
2,1680, Note_on_c,0,63,0
2,1710, Note_on_c,0,44,0
2,1740, Note_on_c,0,39,0
2,1770, Note_on_c,0,63,0
2,1800, Note_on_c,0,39,0
2,1830, Note_on_c,0,59,0
2,1860, Note_on_c,0,38,0
2,1860, Note_on_c,0,64,0
2,1860, Note_on_c,0,68,0
2,1890, Note_on_c,0,38,0
2,1890, Note_on_c,0,59,0
2,1920, Note_on_c,0,64,0
2,1920, Note_on_c,0,68,0
2,1950, Note_on_c,0,64,0
2,1980, Note_on_c,0,60,0
2,2010, Note_on_c,0,80,0
2,2040, Note_on_c,0,54,0
2,2070, Note_on_c,0,71,0
2,2070, Note_on_c,0,76,0
2,2100, Note_on_c,0,64,0
2,2130, Note_on_c,0,60,0
2,2130, Note_on_c,0,71,0
2,2130, Note_on_c,0,76,0
2,2130, Note_on_c,0,80,0
2,2160, Note_on_c,0,54,0
2,2190, Note_on_c,0,77,0
2,2220, Note_on_c,0,72,0
2,2250, Note_on_c,0,53,0
2,2250, Note_on_c,0,63,0
2,2250, Note_on_c,0,65,0
2,2280, Note_on_c,0,53,0
2,2280, Note_on_c,0,63,0
2,2310, Note_on_c,0,65,0
2,2340, Note_on_c,0,72,0
2,2370, Note_on_c,0,72,0
2,2400, Note_on_c,0,65,0
2,2430, Note_on_c,0,65,0
2,2460, Note_on_c,0,77,0
2,2490, Note_on_c,0,72,0
2,2520, Note_on_c,0,75,0
2,2550, Note_on_c,0,72,0
2,2580, Note_on_c,0,68,0
2,2610, Note_on_c,0,64,0
2,2640, Note_on_c,0,63,0
2,2670, Note_on_c,0,63,0
2,2700, Note_on_c,0,62,0
2,2730, Note_on_c,0,62,0
2,2760, Note_on_c,0,61,0
2,2790, Note_on_c,0,64,0
2,2790, Note_on_c,0,68,0
2,2790, Note_on_c,0,72,0
2,2820, Note_on_c,0,60,0
2,2820, Note_on_c,0,61,0
2,2820, Note_on_c,0,64,0
2,2820, Note_on_c,0,68,0
2,2820, Note_on_c,0,72,0
2,2850, Note_on_c,0,72,0
2,2850, Note_on_c,0,75,0
2,2880, Note_on_c,0,64,0
2,2880, Note_on_c,0,68,0
2,2910, Note_on_c,0,60,0
2,2970, Note_on_c,0,44,0
2,3000, Note_on_c,0,55,0
2,3000, Note_on_c,0,60,0
2,3030, Note_on_c,0,63,0
2,3060, Note_on_c,0,55,0
2,3090, Note_on_c,0,60,0
2,3120, Note_on_c,0,63,0
2,3150, Note_on_c,0,55,0
2,3180, Note_on_c,0,63,0
2,3210, Note_on_c,0,63,0
2,3240, Note_on_c,0,65,0
2,3270, Note_on_c,0,63,0
2,3270, Note_on_c,0,65,0
2,3300, Note_on_c,0,44,0
2,3300, Note_on_c,0,62,0
2,3300, Note_on_c,0,63,0
2,3330, Note_on_c,0,55,0
2,3330, Note_on_c,0,62,0
2,3360, Note_on_c,0,63,0
2,3390, Note_on_c,0,59,0
2,3390, Note_on_c,0,63,0
2,3390, Note_on_c,0,65,0
2,3420, Note_on_c,0,49,0
2,3420, Note_on_c,0,56,0
2,3450, Note_on_c,0,59,0
2,3480, Note_on_c,0,63,0
2,3510, Note_on_c,0,65,0
2,3540, Note_on_c,0,59,0
2,3570, Note_on_c,0,63,0
2,3570, Note_on_c,0,68,0
2,3600, Note_on_c,0,58,0
2,3600, Note_on_c,0,65,0
2,3630, Note_on_c,0,56,0
2,3660, Note_on_c,0,59,0
2,3660, Note_on_c,0,63,0
2,3660, Note_on_c,0,65,0
2,3660, Note_on_c,0,68,0
2,3690, Note_on_c,0,58,0
2,3720, Note_on_c,0,55,0
2,3750, Note_on_c,0,49,0
2,3750, Note_on_c,0,55,0
2,3780, Note_on_c,0,48,0
2,3780, Note_on_c,0,58,0
2,3780, Note_on_c,0,67,0
2,3780, Note_on_c,0,72,0
2,3810, Note_on_c,0,48,0
2,3810, Note_on_c,0,58,0
2,3810, Note_on_c,0,67,0
2,3810, Note_on_c,0,72,0
2,3840, Note_on_c,0,89,0
2,3870, Note_on_c,0,89,0
2,3900, Note_on_c,0,86,0
2,3930, Note_on_c,0,67,0
2,3960, Note_on_c,0,67,0
2,3990, Note_on_c,0,87,0
2,4020, Note_on_c,0,86,0
2,4050, Note_on_c,0,87,0
2,4080, Note_on_c,0,88,0
2,4110, Note_on_c,0,88,0
2,4140, Note_on_c,0,89,0
2,4170, Note_on_c,0,57,0
2,4170, Note_on_c,0,62,0
2,4170, Note_on_c,0,63,0
2,4170, Note_on_c,0,67,0
2,4200, Note_on_c,0,62,0
2,4200, Note_on_c,0,67,0
2,4230, Note_on_c,0,57,0
2,4230, Note_on_c,0,63,0
2,4230, Note_on_c,0,89,0
2,4260, Note_on_c,0,87,0
2,4290, Note_on_c,0,87,0
2,4320, Note_on_c,0,53,0
2,4350, Note_on_c,0,58,0
2,4350, Note_on_c,0,60,0
2,4350, Note_on_c,0,63,0
2,4350, Note_on_c,0,84,0
2,4380, Note_on_c,0,53,0
2,4410, Note_on_c,0,60,0
2,4440, Note_on_c,0,58,0
2,4440, Note_on_c,0,63,0
2,4470, Note_on_c,0,84,0
2,4470, Note_on_c,0,85,0
2,4500, Note_on_c,0,85,0
2,4500, Note_on_c,0,86,0
2,4530, Note_on_c,0,86,0
2,4530, Note_on_c,0,87,0
2,4560, Note_on_c,0,56,0
2,4560, Note_on_c,0,60,0
2,4560, Note_on_c,0,61,0
2,4560, Note_on_c,0,65,0
2,4590, Note_on_c,0,87,0
2,4620, Note_on_c,0,65,0
2,4650, Note_on_c,0,60,0
2,4680, Note_on_c,0,61,0
2,4710, Note_on_c,0,65,0
2,4740, Note_on_c,0,60,0
2,4740, Note_on_c,0,61,0
2,4770, Note_on_c,0,84,0
2,4800, Note_on_c,0,72,0
2,4830, Note_on_c,0,72,0
2,4830, Note_on_c,0,84,0
2,4860, Note_on_c,0,73,0
2,4860, Note_on_c,0,85,0
2,4890, Note_on_c,0,60,0
2,4890, Note_on_c,0,65,0
2,4890, Note_on_c,0,73,0
2,4890, Note_on_c,0,85,0
2,4920, Note_on_c,0,56,0
2,4920, Note_on_c,0,61,0
2,4920, Note_on_c,0,82,0
2,4950, Note_on_c,0,56,0
2,4950, Note_on_c,0,62,0
2,4950, Note_on_c,0,66,0
2,4950, Note_on_c,0,70,0
2,4950, Note_on_c,0,78,0
2,4980, Note_on_c,0,78,0
2,5010, Note_on_c,0,82,0
2,5040, Note_on_c,0,62,0
2,5070, Note_on_c,0,66,0
2,5070, Note_on_c,0,70,0
2,5100, Note_on_c,0,66,0
2,5130, Note_on_c,0,62,0
2,5130, Note_on_c,0,70,0
2,5130, Note_on_c,0,73,0
2,5160, Note_on_c,0,73,0
2,5190, Note_on_c,0,62,0
2,5190, Note_on_c,0,66,0
2,5190, Note_on_c,0,70,0
2,5220, Note_on_c,0,56,0
2,5250, Note_on_c,0,61,0
2,5280, Note_on_c,0,70,0
2,5310, Note_on_c,0,55,0
2,5310, Note_on_c,0,65,0
2,5340, Note_on_c,0,61,0
2,5370, Note_on_c,0,65,0
2,5400, Note_on_c,0,45,0
2,5430, Note_on_c,0,45,0
2,5460, Note_on_c,0,61,0
2,5490, Note_on_c,0,65,0
2,5520, Note_on_c,0,55,0
2,5550, Note_on_c,0,65,0
2,5580, Note_on_c,0,61,0
2,5610, Note_on_c,0,70,0
2,5640, Note_on_c,0,67,0
2,5670, Note_on_c,0,59,0
2,5670, Note_on_c,0,63,0
2,5700, Note_on_c,0,37,0
2,5730, Note_on_c,0,63,0
2,5760, Note_on_c,0,37,0
2,5790, Note_on_c,0,59,0
2,5820, Note_on_c,0,44,0
2,5850, Note_on_c,0,59,0
2,5850, Note_on_c,0,63,0
2,5850, Note_on_c,0,67,0
2,5880, Note_on_c,0,44,0
2,5910, Note_on_c,0,59,0
2,5940, Note_on_c,0,46,0
2,5970, Note_on_c,0,63,0
2,6000, Note_on_c,0,46,0
2,6030, Note_on_c,0,58,0
2,6060, Note_on_c,0,48,0
2,6060, Note_on_c,0,64,0
2,6090, Note_on_c,0,48,0
2,6090, Note_on_c,0,58,0
2,6120, Note_on_c,0,64,0
2,6150, Note_on_c,0,64,0
2,6180, Note_on_c,0,72,0
2,6210, Note_on_c,0,60,0
2,6240, Note_on_c,0,58,0
2,6240, Note_on_c,0,60,0
2,6240, Note_on_c,0,64,0
2,6270, Note_on_c,0,58,0
2,6270, Note_on_c,0,72,0
2,6270, Note_on_c,0,73,0
2,6300, Note_on_c,0,72,0
2,6300, Note_on_c,0,73,0
2,6330, Note_on_c,0,71,0
2,6330, Note_on_c,0,72,0
2,6360, Note_on_c,0,71,0
2,6360, Note_on_c,0,72,0
2,6390, Note_on_c,0,72,0
2,6420, Note_on_c,0,52,0
2,6420, Note_on_c,0,58,0
2,6420, Note_on_c,0,63,0
2,6420, Note_on_c,0,73,0
2,6450, Note_on_c,0,63,0
2,6480, Note_on_c,0,52,0
2,6510, Note_on_c,0,58,0
2,6540, Note_on_c,0,48,0
2,6570, Note_on_c,0,58,0
2,6600, Note_on_c,0,48,0
2,6630, Note_on_c,0,58,0
2,6660, Note_on_c,0,73,0
2,6690, Note_on_c,0,71,0
2,6720, Note_on_c,0,71,0
2,6750, Note_on_c,0,57,0
2,6780, Note_on_c,0,62,0
2,6810, Note_on_c,0,51,0
2,6810, Note_on_c,0,72,0
2,6840, Note_on_c,0,62,0
2,6870, Note_on_c,0,57,0
2,6870, Note_on_c,0,72,0
2,6870, Note_on_c,0,75,0
2,6900, Note_on_c,0,63,0
2,6930, Note_on_c,0,51,0
2,6960, Note_on_c,0,62,0
2,6990, Note_on_c,0,62,0
2,7020, Note_on_c,0,75,0
2,7050, Note_on_c,0,63,0
2,7080, Note_on_c,0,41,0
2,7110, Note_on_c,0,41,0
2,7140, Note_on_c,0,57,0
2,7170, Note_on_c,0,66,0
2,7200, Note_on_c,0,51,0
2,7200, Note_on_c,0,62,0
2,7230, Note_on_c,0,62,0
2,7260, Note_on_c,0,57,0
2,7290, Note_on_c,0,57,0
2,7320, Note_on_c,0,53,0
2,7350, Note_on_c,0,61,0
2,7380, Note_on_c,0,53,0
2,7410, Note_on_c,0,51,0
2,7440, Note_on_c,0,57,0
2,7470, Note_on_c,0,47,0
2,7500, Note_on_c,0,47,0
2,7530, Note_on_c,0,61,0
2,7560, Note_on_c,0,46,0
2,7560, Note_on_c,0,56,0
2,7560, Note_on_c,0,60,0
2,7590, Note_on_c,0,56,0
2,7590, Note_on_c,0,60,0
2,7620, Note_on_c,0,46,0
2,7620, Note_on_c,0,66,0
2,7650, Note_on_c,0,83,0
2,7680, Note_on_c,0,71,0
2,7680, Note_on_c,0,78,0
2,7680, Note_on_c,0,81,0
2,7710, Note_on_c,0,79,0
2,7740, Note_on_c,0,71,0
2,7740, Note_on_c,0,78,0
2,7740, Note_on_c,0,79,0
2,7770, Note_on_c,0,56,0
2,7770, Note_on_c,0,62,0
2,7770, Note_on_c,0,67,0
2,7770, Note_on_c,0,77,0
2,7800, Note_on_c,0,81,0
2,7800, Note_on_c,0,83,0
2,7830, Note_on_c,0,77,0
2,7860, Note_on_c,0,67,0
2,7890, Note_on_c,0,70,0
2,7890, Note_on_c,0,77,0
2,7890, Note_on_c,0,82,0
2,7920, Note_on_c,0,56,0
2,7920, Note_on_c,0,62,0
2,7920, Note_on_c,0,70,0
2,7920, Note_on_c,0,79,0
2,7950, Note_on_c,0,56,0
2,7950, Note_on_c,0,62,0
2,7950, Note_on_c,0,65,0
2,7950, Note_on_c,0,77,0
2,7950, Note_on_c,0,79,0
2,7950, Note_on_c,0,82,0
2,7980, Note_on_c,0,70,0
2,7980, Note_on_c,0,82,0
2,8010, Note_on_c,0,70,0
2,8010, Note_on_c,0,82,0
2,8040, Note_on_c,0,65,0
2,8040, Note_on_c,0,72,0
2,8040, Note_on_c,0,84,0
2,8070, Note_on_c,0,56,0
2,8070, Note_on_c,0,72,0
2,8070, Note_on_c,0,84,0
2,8100, Note_on_c,0,62,0
2,8100, Note_on_c,0,70,0
2,8100, Note_on_c,0,82,0
2,8130, Note_on_c,0,56,0
2,8130, Note_on_c,0,62,0
2,8130, Note_on_c,0,66,0
2,8130, Note_on_c,0,70,0
2,8130, Note_on_c,0,82,0
2,8160, Note_on_c,0,72,0
2,8160, Note_on_c,0,84,0
2,8190, Note_on_c,0,72,0
2,8190, Note_on_c,0,84,0
2,8220, Note_on_c,0,62,0
2,8220, Note_on_c,0,66,0
2,8220, Note_on_c,0,72,0
2,8250, Note_on_c,0,56,0
2,8250, Note_on_c,0,72,0
2,8280, Note_on_c,0,70,0
2,8280, Note_on_c,0,82,0
2,8310, Note_on_c,0,55,0
2,8310, Note_on_c,0,61,0
2,8310, Note_on_c,0,70,0
2,8310, Note_on_c,0,82,0
2,8340, Note_on_c,0,55,0
2,8340, Note_on_c,0,61,0
2,8340, Note_on_c,0,72,0
2,8340, Note_on_c,0,77,0
2,8340, Note_on_c,0,84,0
2,8370, Note_on_c,0,72,0
2,8370, Note_on_c,0,77,0
2,8370, Note_on_c,0,84,0
2,8400, Note_on_c,0,27,0
2,8430, Note_on_c,0,27,0
2,8460, Note_on_c,0,64,0
2,8490, Note_on_c,0,70,0
2,8520, Note_on_c,0,51,0
2,8520, Note_on_c,0,61,0
2,8520, Note_on_c,0,67,0
2,8550, Note_on_c,0,51,0
2,8580, Note_on_c,0,67,0
2,8610, Note_on_c,0,61,0
2,8610, Note_on_c,0,64,0
2,8610, Note_on_c,0,70,0
2,8640, Note_on_c,0,61,0
2,8670, Note_on_c,0,64,0
2,8700, Note_on_c,0,52,0
2,8700, Note_on_c,0,55,0
2,8700, Note_on_c,0,59,0
2,8730, Note_on_c,0,59,0
2,8760, Note_on_c,0,55,0
2,8790, Note_on_c,0,61,0
2,8820, Note_on_c,0,64,0
2,8850, Note_on_c,0,61,0
2,8880, Note_on_c,0,45,0
2,8880, Note_on_c,0,55,0
2,8910, Note_on_c,0,59,0
2,8940, Note_on_c,0,52,0
2,8970, Note_on_c,0,45,0
2,8970, Note_on_c,0,59,0
2,9000, Note_on_c,0,55,0
2,9030, Note_on_c,0,61,0
2,9060, Note_on_c,0,63,0
2,9090, Note_on_c,0,44,0
2,9090, Note_on_c,0,51,0
2,9090, Note_on_c,0,55,0
2,9090, Note_on_c,0,58,0
2,9090, Note_on_c,0,60,0
2,9120, Note_on_c,0,55,0
2,9120, Note_on_c,0,60,0
2,9150, Note_on_c,0,44,0
2,9150, Note_on_c,0,51,0
2,9150, Note_on_c,0,58,0
2,9150, Note_on_c,0,63,0
2,9180, Note_on_c,0,65,0
2,9210, Note_on_c,0,60,0
2,9240, Note_on_c,0,80,0
2,9270, Note_on_c,0,54,0
2,9300, Note_on_c,0,58,0
2,9300, Note_on_c,0,80,0
2,9330, Note_on_c,0,80,0
2,9360, Note_on_c,0,80,0
2,9390, Note_on_c,0,60,0
2,9390, Note_on_c,0,65,0
2,9420, Note_on_c,0,58,0
2,9450, Note_on_c,0,65,0
2,9480, Note_on_c,0,60,0
2,9480, Note_on_c,0,68,0
2,9480, Note_on_c,0,80,0
2,9510, Note_on_c,0,68,0
2,9510, Note_on_c,0,80,0
2,9540, Note_on_c,0,65,0
2,9540, Note_on_c,0,70,0
2,9540, Note_on_c,0,82,0
2,9570, Note_on_c,0,60,0
2,9570, Note_on_c,0,70,0
2,9570, Note_on_c,0,82,0
2,9600, Note_on_c,0,68,0
2,9600, Note_on_c,0,80,0
2,9630, Note_on_c,0,65,0
2,9660, Note_on_c,0,60,0
2,9690, Note_on_c,0,54,0
2,9720, Note_on_c,0,65,0
2,9750, Note_on_c,0,39,0
2,9780, Note_on_c,0,60,0
2,9810, Note_on_c,0,39,0
2,9840, Note_on_c,0,53,0
2,9840, Note_on_c,0,56,0
2,9840, Note_on_c,0,59,0
2,9840, Note_on_c,0,63,0
2,9870, Note_on_c,0,68,0
2,9900, Note_on_c,0,80,0
2,9930, Note_on_c,0,63,0
2,9960, Note_on_c,0,77,0
2,9990, Note_on_c,0,59,0
2,9990, Note_on_c,0,77,0
2,10020, Note_on_c,0,63,0
2,10020, Note_on_c,0,68,0
2,10020, Note_on_c,0,80,0
2,10050, Note_on_c,0,59,0
2,10050, Note_on_c,0,68,0
2,10080, Note_on_c,0,68,0
2,10080, Note_on_c,0,80,0
2,10110, Note_on_c,0,59,0
2,10110, Note_on_c,0,63,0
2,10110, Note_on_c,0,68,0
2,10110, Note_on_c,0,80,0
2,10140, Note_on_c,0,65,0
2,10140, Note_on_c,0,78,0
2,10170, Note_on_c,0,65,0
2,10170, Note_on_c,0,78,0
2,10200, Note_on_c,0,68,0
2,10230, Note_on_c,0,59,0
2,10230, Note_on_c,0,63,0
2,10230, Note_on_c,0,80,0
2,10260, Note_on_c,0,68,0
2,10260, Note_on_c,0,80,0
2,10290, Note_on_c,0,63,0
2,10320, Note_on_c,0,53,0
2,10320, Note_on_c,0,59,0
2,10350, Note_on_c,0,56,0
2,10350, Note_on_c,0,68,0
2,10350, Note_on_c,0,80,0
2,10380, Note_on_c,0,48,0
2,10410, Note_on_c,0,52,0
2,10410, Note_on_c,0,58,0
2,10410, Note_on_c,0,63,0
2,10440, Note_on_c,0,52,0
2,10440, Note_on_c,0,58,0
2,10440, Note_on_c,0,63,0
2,10440, Note_on_c,0,80,0
2,10470, Note_on_c,0,68,0
2,10500, Note_on_c,0,45,0
2,10530, Note_on_c,0,48,0
2,10560, Note_on_c,0,45,0
2,10590, Note_on_c,0,58,0
2,10620, Note_on_c,0,46,0
2,10620, Note_on_c,0,53,0
2,10650, Note_on_c,0,34,0
2,10680, Note_on_c,0,53,0
2,10710, Note_on_c,0,58,0
2,10740, Note_on_c,0,46,0
2,10770, Note_on_c,0,34,0
2,10800, Note_on_c,0,48,0
2,10800, Note_on_c,0,55,0
2,10800, Note_on_c,0,58,0
2,10800, Note_on_c,0,60,0
2,10800, Note_on_c,0,63,0
2,10830, Note_on_c,0,55,0
2,10860, Note_on_c,0,60,0
2,10890, Note_on_c,0,63,0
2,10920, Note_on_c,0,58,0
2,10950, Note_on_c,0,61,0
2,10980, Note_on_c,0,65,0
2,11010, Note_on_c,0,48,0
2,11010, Note_on_c,0,49,0
2,11010, Note_on_c,0,56,0
2,11040, Note_on_c,0,56,0
2,11070, Note_on_c,0,61,0
2,11100, Note_on_c,0,65,0
2,11130, Note_on_c,0,65,0
2,11160, Note_on_c,0,50,0
2,11190, Note_on_c,0,49,0
2,11190, Note_on_c,0,56,0
2,11190, Note_on_c,0,59,0
2,11190, Note_on_c,0,62,0
2,11220, Note_on_c,0,56,0
2,11250, Note_on_c,0,59,0
2,11250, Note_on_c,0,62,0
2,11280, Note_on_c,0,65,0
2,11310, Note_on_c,0,68,0
2,11340, Note_on_c,0,61,0
2,11370, Note_on_c,0,50,0
2,11370, Note_on_c,0,51,0
2,11370, Note_on_c,0,56,0
2,11370, Note_on_c,0,65,0
2,11400, Note_on_c,0,51,0
2,11430, Note_on_c,0,51,0
2,11460, Note_on_c,0,65,0
2,11490, Note_on_c,0,61,0
2,11520, Note_on_c,0,56,0
2,11550, Note_on_c,0,39,0
2,11550, Note_on_c,0,56,0
2,11550, Note_on_c,0,61,0
2,11550, Note_on_c,0,65,0
2,11550, Note_on_c,0,68,0
2,11580, Note_on_c,0,65,0
2,11610, Note_on_c,0,51,0
2,11610, Note_on_c,0,56,0
2,11610, Note_on_c,0,61,0
2,11640, Note_on_c,0,55,0
2,11670, Note_on_c,0,51,0
2,11670, Note_on_c,0,59,0
2,11670, Note_on_c,0,61,0
2,11670, Note_on_c,0,64,0
2,11700, Note_on_c,0,39,0
2,11730, Note_on_c,0,39,0
2,11760, Note_on_c,0,55,0
2,11790, Note_on_c,0,55,0
2,11820, Note_on_c,0,39,0
2,11850, Note_on_c,0,51,0
2,11880, Note_on_c,0,39,0
2,11910, Note_on_c,0,64,0
2,11940, Note_on_c,0,59,0
2,11970, Note_on_c,0,61,0
2,12000, Note_on_c,0,55,0
2,12030, Note_on_c,0,39,0
2,12060, Note_on_c,0,46,0
2,12090, Note_on_c,0,60,0
2,12120, Note_on_c,0,39,0
2,12150, Note_on_c,0,51,0
2,12180, Note_on_c,0,56,0
2,12210, Note_on_c,0,60,0
2,12240, Note_on_c,0,51,0
2,12270, Note_on_c,0,56,0
2,12300, Note_on_c,0,46,0
2,12330, Note_on_c,0,63,0
2,12360, Note_on_c,0,54,0
2,12360, Note_on_c,0,59,0
2,12390, Note_on_c,0,49,0
2,12420, Note_on_c,0,54,0
2,12450, Note_on_c,0,49,0
2,12450, Note_on_c,0,59,0
2,12450, Note_on_c,0,63,0
2,12480, Note_on_c,0,51,0
2,12480, Note_on_c,0,56,0
2,12480, Note_on_c,0,61,0
2,12480, Note_on_c,0,65,0
2,12510, Note_on_c,0,65,0
2,12540, Note_on_c,0,56,0
2,12570, Note_on_c,0,39,0
2,12570, Note_on_c,0,61,0
2,12600, Note_on_c,0,51,0
2,12630, Note_on_c,0,68,0
2,12660, Note_on_c,0,54,0
2,12690, Note_on_c,0,64,0
2,12720, Note_on_c,0,59,0
2,12750, Note_on_c,0,59,0
2,12780, Note_on_c,0,64,0
2,12810, Note_on_c,0,68,0
2,12840, Note_on_c,0,54,0
2,12870, Note_on_c,0,58,0
2,12900, Note_on_c,0,63,0
2,12930, Note_on_c,0,72,0
2,12960, Note_on_c,0,68,0
2,12990, Note_on_c,0,63,0
2,13020, Note_on_c,0,72,0
2,13050, Note_on_c,0,68,0
2,13080, Note_on_c,0,58,0
2,13080, Note_on_c,0,60,0
2,13080, Note_on_c,0,66,0
2,13080, Note_on_c,0,71,0
2,13080, Note_on_c,0,75,0
2,13110, Note_on_c,0,71,0
2,13140, Note_on_c,0,66,0
2,13140, Note_on_c,0,75,0
2,13170, Note_on_c,0,60,0
2,13200, Note_on_c,0,58,0
2,13200, Note_on_c,0,63,0
2,13200, Note_on_c,0,68,0
2,13200, Note_on_c,0,72,0
2,13230, Note_on_c,0,63,0
2,13260, Note_on_c,0,68,0
2,13290, Note_on_c,0,58,0
2,13320, Note_on_c,0,72,0
2,13350, Note_on_c,0,56,0
2,13380, Note_on_c,0,71,0
2,13410, Note_on_c,0,62,0
2,13440, Note_on_c,0,67,0
2,13470, Note_on_c,0,62,0
2,13500, Note_on_c,0,67,0
2,13530, Note_on_c,0,51,0
2,13560, Note_on_c,0,71,0
2,13590, Note_on_c,0,51,0
2,13620, Note_on_c,0,44,0
2,13620, Note_on_c,0,56,0
2,13620, Note_on_c,0,60,0
2,13620, Note_on_c,0,67,0
2,13620, Note_on_c,0,72,0
2,13650, Note_on_c,0,67,0
2,13680, Note_on_c,0,60,0
2,13680, Note_on_c,0,72,0
2,13710, Note_on_c,0,63,0
2,13740, Note_on_c,0,63,0
2,13770, Note_on_c,0,63,0
2,13770, Note_on_c,0,65,0
2,13800, Note_on_c,0,62,0
2,13800, Note_on_c,0,65,0
2,13830, Note_on_c,0,63,0
2,13860, Note_on_c,0,44,0
2,13860, Note_on_c,0,62,0
2,13860, Note_on_c,0,63,0
2,13890, Note_on_c,0,63,0
2,13920, Note_on_c,0,64,0
2,13950, Note_on_c,0,64,0
2,13980, Note_on_c,0,50,0
2,13980, Note_on_c,0,54,0
2,13980, Note_on_c,0,64,0
2,13980, Note_on_c,0,68,0
2,14010, Note_on_c,0,64,0
2,14040, Note_on_c,0,59,0
2,14070, Note_on_c,0,57,0
2,14100, Note_on_c,0,50,0
2,14130, Note_on_c,0,57,0
2,14160, Note_on_c,0,59,0
2,14190, Note_on_c,0,50,0
2,14220, Note_on_c,0,54,0
2,14250, Note_on_c,0,50,0
2,14280, Note_on_c,0,60,0
2,14310, Note_on_c,0,65,0
2,14340, Note_on_c,0,49,0
2,14370, Note_on_c,0,49,0
2,14400, Note_on_c,0,37,0
2,14430, Note_on_c,0,65,0
2,14460, Note_on_c,0,60,0
2,14490, Note_on_c,0,31,0
2,14520, Note_on_c,0,37,0
2,14550, Note_on_c,0,68,0
2,14580, Note_on_c,0,31,0
2,14610, Note_on_c,0,68,0
2,14640, Note_on_c,0,64,0
2,14670, Note_on_c,0,42,0
2,14700, Note_on_c,0,58,0
2,14730, Note_on_c,0,30,0
2,14760, Note_on_c,0,30,0
2,14790, Note_on_c,0,42,0
2,14820, Note_on_c,0,64,0
2,14850, Note_on_c,0,58,0
2,14880, Note_on_c,0,58,0
2,14910, Note_on_c,0,64,0
2,14940, Note_on_c,0,64,0
2,14970, Note_on_c,0,58,0
2,15000, Note_on_c,0,44,0
2,15030, Note_on_c,0,51,0
2,15060, Note_on_c,0,68,0
2,15090, Note_on_c,0,60,0
2,15120, Note_on_c,0,56,0
2,15150, Note_on_c,0,60,0
2,15180, Note_on_c,0,56,0
2,15210, Note_on_c,0,63,0
2,15240, Note_on_c,0,63,0
2,15270, Note_on_c,0,68,0
2,15300, Note_on_c,0,68,0
2,15330, Note_on_c,0,51,0
2,15360, Note_on_c,0,55,0
2,15390, Note_on_c,0,69,0
2,15420, Note_on_c,0,55,0
2,15450, Note_on_c,0,44,0
2,15480, Note_on_c,0,69,0
2,15510, Note_on_c,0,64,0
2,15540, Note_on_c,0,64,0
2,15570, Note_on_c,0,61,0
2,15600, Note_on_c,0,61,0
2,15630, Note_on_c,0,37,0
2,15660, Note_on_c,0,62,0
2,15690, Note_on_c,0,62,0
2,15720, Note_on_c,0,37,0
2,15750, Note_on_c,0,65,0
2,15780, Note_on_c,0,65,0
2,15810, Note_on_c,0,71,0
2,15840, Note_on_c,0,71,0
2,15870, Note_on_c,0,48,0
2,15870, Note_on_c,0,72,0
2,15900, Note_on_c,0,58,0
2,15900, Note_on_c,0,72,0
2,15930, Note_on_c,0,48,0
2,15930, Note_on_c,0,58,0
2,15960, Note_on_c,0,61,0
2,15990, Note_on_c,0,61,0
2,15990, Note_on_c,0,63,0
2,16020, Note_on_c,0,63,0
2,16020, Note_on_c,0,64,0
2,16050, Note_on_c,0,64,0
2,16050, Note_on_c,0,66,0
2,16080, Note_on_c,0,58,0
2,16080, Note_on_c,0,60,0
2,16080, Note_on_c,0,66,0
2,16080, Note_on_c,0,67,0
2,16110, Note_on_c,0,58,0
2,16110, Note_on_c,0,60,0
2,16110, Note_on_c,0,67,0
2,16140, Note_on_c,0,70,0
2,16170, Note_on_c,0,70,0
2,16200, Note_on_c,0,72,0
2,16230, Note_on_c,0,72,0
2,16230, Note_on_c,0,74,0
2,16260, Note_on_c,0,62,0
2,16260, Note_on_c,0,63,0
2,16260, Note_on_c,0,67,0
2,16260, Note_on_c,0,72,0
2,16260, Note_on_c,0,74,0
2,16290, Note_on_c,0,62,0
2,16290, Note_on_c,0,63,0
2,16290, Note_on_c,0,67,0
2,16290, Note_on_c,0,72,0
2,16320, Note_on_c,0,69,0
2,16350, Note_on_c,0,66,0
2,16350, Note_on_c,0,69,0
2,16380, Note_on_c,0,66,0
2,16410, Note_on_c,0,65,0
2,16440, Note_on_c,0,41,0
2,16440, Note_on_c,0,65,0
2,16470, Note_on_c,0,48,0
2,16470, Note_on_c,0,63,0
2,16500, Note_on_c,0,60,0
2,16500, Note_on_c,0,63,0
2,16530, Note_on_c,0,48,0
2,16530, Note_on_c,0,60,0
2,16560, Note_on_c,0,41,0
2,16560, Note_on_c,0,61,0
2,16590, Note_on_c,0,61,0
2,16620, Note_on_c,0,62,0
2,16650, Note_on_c,0,46,0
2,16650, Note_on_c,0,53,0
2,16650, Note_on_c,0,56,0
2,16650, Note_on_c,0,62,0
2,16650, Note_on_c,0,63,0
2,16680, Note_on_c,0,53,0
2,16710, Note_on_c,0,46,0
2,16710, Note_on_c,0,56,0
2,16710, Note_on_c,0,63,0
2,16740, Note_on_c,0,56,0
2,16770, Note_on_c,0,65,0
2,16800, Note_on_c,0,87,0
2,16830, Note_on_c,0,60,0
2,16860, Note_on_c,0,61,0
2,16860, Note_on_c,0,75,0
2,16890, Note_on_c,0,65,0
2,16920, Note_on_c,0,75,0
2,16920, Note_on_c,0,87,0
2,16950, Note_on_c,0,85,0
2,16980, Note_on_c,0,56,0
2,16980, Note_on_c,0,60,0
2,16980, Note_on_c,0,61,0
2,16980, Note_on_c,0,73,0
2,17010, Note_on_c,0,73,0
2,17010, Note_on_c,0,85,0
2,17040, Note_on_c,0,56,0
2,17040, Note_on_c,0,62,0
2,17040, Note_on_c,0,66,0
2,17040, Note_on_c,0,70,0
2,17040, Note_on_c,0,82,0
2,17070, Note_on_c,0,62,0
2,17100, Note_on_c,0,66,0
2,17130, Note_on_c,0,70,0
2,17160, Note_on_c,0,82,0
2,17190, Note_on_c,0,70,0
2,17220, Note_on_c,0,62,0
2,17250, Note_on_c,0,66,0
2,17250, Note_on_c,0,78,0
2,17280, Note_on_c,0,62,0
2,17310, Note_on_c,0,66,0
2,17340, Note_on_c,0,56,0
2,17370, Note_on_c,0,70,0
2,17370, Note_on_c,0,78,0
2,17400, Note_on_c,0,61,0
2,17430, Note_on_c,0,55,0
2,17430, Note_on_c,0,65,0
2,17460, Note_on_c,0,55,0
2,17460, Note_on_c,0,61,0
2,17460, Note_on_c,0,65,0
2,17490, Note_on_c,0,27,0
2,17520, Note_on_c,0,27,0
2,17550, Note_on_c,0,70,0
2,17580, Note_on_c,0,63,0
2,17610, Note_on_c,0,58,0
2,17640, Note_on_c,0,59,0
2,17670, Note_on_c,0,67,0
2,17700, Note_on_c,0,58,0
2,17730, Note_on_c,0,57,0
2,17760, Note_on_c,0,67,0
2,17790, Note_on_c,0,63,0
2,17820, Note_on_c,0,57,0
2,17850, Note_on_c,0,59,0
2,17880, Note_on_c,0,56,0
2,17910, Note_on_c,0,59,0
2,17910, Note_on_c,0,67,0
2,17910, Note_on_c,0,70,0
2,17940, Note_on_c,0,55,0
2,17940, Note_on_c,0,56,0
2,17940, Note_on_c,0,63,0
2,17970, Note_on_c,0,63,0
2,18000, Note_on_c,0,49,0
2,18000, Note_on_c,0,59,0
2,18030, Note_on_c,0,49,0
2,18030, Note_on_c,0,55,0
2,18060, Note_on_c,0,63,0
2,18060, Note_on_c,0,67,0
2,18090, Note_on_c,0,63,0
2,18120, Note_on_c,0,37,0
2,18150, Note_on_c,0,37,0
2,18180, Note_on_c,0,36,0
2,18180, Note_on_c,0,52,0
2,18210, Note_on_c,0,36,0
2,18210, Note_on_c,0,52,0
2,18240, Note_on_c,0,64,0
2,18270, Note_on_c,0,60,0
2,18300, Note_on_c,0,58,0
2,18330, Note_on_c,0,64,0
2,18360, Note_on_c,0,71,0
2,18390, Note_on_c,0,60,0
2,18420, Note_on_c,0,58,0
2,18450, Note_on_c,0,71,0
2,18480, Note_on_c,0,72,0
2,18510, Note_on_c,0,72,0
2,18540, Note_on_c,0,48,0
2,18570, Note_on_c,0,72,0
2,18600, Note_on_c,0,48,0
2,18630, Note_on_c,0,72,0
2,18660, Note_on_c,0,73,0
2,18690, Note_on_c,0,52,0
2,18720, Note_on_c,0,73,0
2,18750, Note_on_c,0,58,0
2,18750, Note_on_c,0,63,0
2,18750, Note_on_c,0,71,0
2,18780, Note_on_c,0,52,0
2,18810, Note_on_c,0,58,0
2,18810, Note_on_c,0,63,0
2,18840, Note_on_c,0,71,0
2,18870, Note_on_c,0,72,0
2,18900, Note_on_c,0,62,0
2,18930, Note_on_c,0,63,0
2,18930, Note_on_c,0,67,0
2,18960, Note_on_c,0,57,0
2,18990, Note_on_c,0,63,0
2,19020, Note_on_c,0,67,0
2,19050, Note_on_c,0,63,0
2,19080, Note_on_c,0,74,0
2,19110, Note_on_c,0,67,0
2,19140, Note_on_c,0,67,0
2,19140, Note_on_c,0,72,0
2,19170, Note_on_c,0,63,0
2,19200, Note_on_c,0,62,0
2,19230, Note_on_c,0,57,0
2,19260, Note_on_c,0,73,0
2,19260, Note_on_c,0,74,0
2,19290, Note_on_c,0,60,0
2,19320, Note_on_c,0,53,0
2,19320, Note_on_c,0,63,0
2,19350, Note_on_c,0,53,0
2,19350, Note_on_c,0,60,0
2,19350, Note_on_c,0,63,0
2,19350, Note_on_c,0,72,0
2,19350, Note_on_c,0,73,0
2,19380, Note_on_c,0,65,0
2,19410, Note_on_c,0,41,0
2,19440, Note_on_c,0,65,0
2,19470, Note_on_c,0,41,0
2,19500, Note_on_c,0,72,0
2,19530, Note_on_c,0,67,0
2,19560, Note_on_c,0,56,0
2,19590, Note_on_c,0,62,0
2,19620, Note_on_c,0,85,0
2,19650, Note_on_c,0,73,0
2,19680, Note_on_c,0,67,0
2,19710, Note_on_c,0,56,0
2,19740, Note_on_c,0,62,0
2,19770, Note_on_c,0,73,0
2,19770, Note_on_c,0,85,0
2,19830, Note_on_c,0,74,0
2,19830, Note_on_c,0,82,0
2,19830, Note_on_c,0,86,0
2,19860, Note_on_c,0,74,0
2,19860, Note_on_c,0,82,0
2,19860, Note_on_c,0,86,0
2,19920, Note_on_c,0,56,0
2,19920, Note_on_c,0,62,0
2,19920, Note_on_c,0,73,0
2,19920, Note_on_c,0,85,0
2,19950, Note_on_c,0,56,0
2,19950, Note_on_c,0,62,0
2,19950, Note_on_c,0,73,0
2,19950, Note_on_c,0,82,0
2,19950, Note_on_c,0,85,0
2,19950, Note_on_c,0,86,0
2,19980, Note_on_c,0,82,0
2,19980, Note_on_c,0,86,0
2,20010, Note_on_c,0,74,0
2,20010, Note_on_c,0,82,0
2,20040, Note_on_c,0,74,0
2,20040, Note_on_c,0,82,0
2,20040, Note_on_c,0,86,0
2,20070, Note_on_c,0,74,0
2,20070, Note_on_c,0,86,0
2,20100, Note_on_c,0,56,0
2,20100, Note_on_c,0,62,0
2,20100, Note_on_c,0,66,0
2,20100, Note_on_c,0,73,0
2,20130, Note_on_c,0,56,0
2,20130, Note_on_c,0,66,0
2,20130, Note_on_c,0,73,0
2,20130, Note_on_c,0,79,0
2,20130, Note_on_c,0,82,0
2,20130, Note_on_c,0,86,0
2,20160, Note_on_c,0,79,0
2,20160, Note_on_c,0,82,0
2,20160, Note_on_c,0,86,0
2,20190, Note_on_c,0,62,0
2,20190, Note_on_c,0,82,0
2,20190, Note_on_c,0,86,0
2,20220, Note_on_c,0,74,0
2,20220, Note_on_c,0,79,0
2,20220, Note_on_c,0,82,0
2,20220, Note_on_c,0,86,0
2,20250, Note_on_c,0,74,0
2,20250, Note_on_c,0,79,0
2,20250, Note_on_c,0,82,0
2,20250, Note_on_c,0,86,0
2,20280, Note_on_c,0,56,0
2,20280, Note_on_c,0,62,0
2,20280, Note_on_c,0,66,0
2,20310, Note_on_c,0,74,0
2,20310, Note_on_c,0,79,0
2,20310, Note_on_c,0,82,0
2,20310, Note_on_c,0,86,0
2,20340, Note_on_c,0,62,0
2,20340, Note_on_c,0,66,0
2,20340, Note_on_c,0,74,0
2,20340, Note_on_c,0,79,0
2,20340, Note_on_c,0,82,0
2,20340, Note_on_c,0,86,0
2,20370, Note_on_c,0,56,0
2,20370, Note_on_c,0,82,0
2,20400, Note_on_c,0,82,0
2,20400, Note_on_c,0,86,0
2,20430, Note_on_c,0,82,0
2,20430, Note_on_c,0,86,0
2,20460, Note_on_c,0,55,0
2,20460, Note_on_c,0,61,0
2,20460, Note_on_c,0,87,0
2,20490, Note_on_c,0,55,0
2,20490, Note_on_c,0,61,0
2,20490, Note_on_c,0,87,0
2,20520, Note_on_c,0,39,0
2,20550, Note_on_c,0,39,0
2,20580, Note_on_c,0,75,0
2,20610, Note_on_c,0,68,0
2,20640, Note_on_c,0,63,0
2,20640, Note_on_c,0,64,0
2,20640, Note_on_c,0,70,0
2,20670, Note_on_c,0,63,0
2,20700, Note_on_c,0,70,0
2,20730, Note_on_c,0,64,0
2,20760, Note_on_c,0,68,0
2,20790, Note_on_c,0,75,0
2,20820, Note_on_c,0,61,0
2,20820, Note_on_c,0,64,0
2,20820, Note_on_c,0,68,0
2,20820, Note_on_c,0,70,0
2,20820, Note_on_c,0,73,0
2,20850, Note_on_c,0,61,0
2,20880, Note_on_c,0,68,0
2,20880, Note_on_c,0,70,0
2,20880, Note_on_c,0,73,0
2,20910, Note_on_c,0,64,0
2,20940, Note_on_c,0,61,0
2,20970, Note_on_c,0,64,0
2,21000, Note_on_c,0,45,0
2,21000, Note_on_c,0,55,0
2,21030, Note_on_c,0,64,0
2,21060, Note_on_c,0,61,0
2,21090, Note_on_c,0,55,0
2,21120, Note_on_c,0,45,0
2,21150, Note_on_c,0,51,0
2,21180, Note_on_c,0,51,0
2,21210, Note_on_c,0,44,0
2,21210, Note_on_c,0,60,0
2,21210, Note_on_c,0,63,0
2,21240, Note_on_c,0,60,0
2,21270, Note_on_c,0,63,0
2,21300, Note_on_c,0,60,0
2,21330, Note_on_c,0,53,0
2,21360, Note_on_c,0,51,0
2,21390, Note_on_c,0,56,0
2,21420, Note_on_c,0,53,0
2,21450, Note_on_c,0,51,0
2,21480, Note_on_c,0,44,0
2,21510, Note_on_c,0,56,0
2,21510, Note_on_c,0,60,0
2,21540, Note_on_c,0,63,0
2,21570, Note_on_c,0,63,0
2,21600, Note_on_c,0,49,0
2,21600, Note_on_c,0,56,0
2,21600, Note_on_c,0,61,0
2,21600, Note_on_c,0,65,0
2,21630, Note_on_c,0,56,0
2,21660, Note_on_c,0,61,0
2,21660, Note_on_c,0,65,0
2,21690, Note_on_c,0,56,0
2,21720, Note_on_c,0,68,0
2,21750, Note_on_c,0,58,0
2,21780, Note_on_c,0,49,0
2,21780, Note_on_c,0,56,0
2,21780, Note_on_c,0,64,0
2,21810, Note_on_c,0,58,0
2,21840, Note_on_c,0,64,0
2,21870, Note_on_c,0,68,0
2,21900, Note_on_c,0,36,0
2,21930, Note_on_c,0,84,0
2,21960, Note_on_c,0,52,0
2,21990, Note_on_c,0,36,0
2,21990, Note_on_c,0,72,0
2,22020, Note_on_c,0,52,0
2,22020, Note_on_c,0,72,0
2,22020, Note_on_c,0,83,0
2,22020, Note_on_c,0,84,0
2,22050, Note_on_c,0,83,0
2,22080, Note_on_c,0,84,0
2,22110, Note_on_c,0,84,0
2,22140, Note_on_c,0,64,0
2,22170, Note_on_c,0,55,0
2,22170, Note_on_c,0,58,0
2,22170, Note_on_c,0,60,0
2,22200, Note_on_c,0,60,0
2,22230, Note_on_c,0,55,0
2,22260, Note_on_c,0,58,0
2,22290, Note_on_c,0,64,0
2,22290, Note_on_c,0,78,0
2,22290, Note_on_c,0,90,0
2,22320, Note_on_c,0,78,0
2,22350, Note_on_c,0,62,0
2,22350, Note_on_c,0,67,0
2,22350, Note_on_c,0,90,0
2,22380, Note_on_c,0,57,0
2,22380, Note_on_c,0,63,0
2,22380, Note_on_c,0,67,0
2,22380, Note_on_c,0,77,0
2,22380, Note_on_c,0,89,0
2,22410, Note_on_c,0,57,0
2,22410, Note_on_c,0,62,0
2,22410, Note_on_c,0,63,0
2,22440, Note_on_c,0,77,0
2,22470, Note_on_c,0,89,0
2,22500, Note_on_c,0,41,0
2,22530, Note_on_c,0,41,0
2,22560, Note_on_c,0,54,0
2,22590, Note_on_c,0,56,0
2,22620, Note_on_c,0,54,0
2,22650, Note_on_c,0,57,0
2,22680, Note_on_c,0,56,0
2,22710, Note_on_c,0,72,0
2,22740, Note_on_c,0,62,0
2,22740, Note_on_c,0,67,0
2,22770, Note_on_c,0,62,0
2,22800, Note_on_c,0,67,0
2,22830, Note_on_c,0,72,0
2,22860, Note_on_c,0,57,0
2,22860, Note_on_c,0,71,0
2,22890, Note_on_c,0,56,0
2,22920, Note_on_c,0,62,0
2,22920, Note_on_c,0,71,0
2,22920, Note_on_c,0,72,0
2,22950, Note_on_c,0,56,0
2,22950, Note_on_c,0,57,0
2,22950, Note_on_c,0,67,0
2,22980, Note_on_c,0,67,0
2,23010, Note_on_c,0,62,0
2,23040, Note_on_c,0,57,0
2,23070, Note_on_c,0,72,0
2,23100, Note_on_c,0,72,0
2,23130, Note_on_c,0,55,0
2,23130, Note_on_c,0,61,0
2,23130, Note_on_c,0,65,0
2,23160, Note_on_c,0,55,0
2,23190, Note_on_c,0,39,0
2,23220, Note_on_c,0,65,0
2,23250, Note_on_c,0,72,0
2,23280, Note_on_c,0,39,0
2,23310, Note_on_c,0,61,0
2,23340, Note_on_c,0,63,0
2,23370, Note_on_c,0,63,0
2,23400, Note_on_c,0,36,0
2,23430, Note_on_c,0,72,0
2,23460, Note_on_c,0,36,0
2,23490, Note_on_c,0,72,0
2,23520, Note_on_c,0,84,0
2,23550, Note_on_c,0,84,0
2,23580, Note_on_c,0,72,0
2,23610, Note_on_c,0,72,0
2,23640, Note_on_c,0,64,0
2,23670, Note_on_c,0,58,0
2,23670, Note_on_c,0,60,0
2,23670, Note_on_c,0,73,0
2,23700, Note_on_c,0,55,0
2,23730, Note_on_c,0,55,0
2,23730, Note_on_c,0,58,0
2,23730, Note_on_c,0,60,0
2,23730, Note_on_c,0,73,0
2,23730, Note_on_c,0,74,0
2,23760, Note_on_c,0,64,0
2,23760, Note_on_c,0,74,0
2,23790, Note_on_c,0,77,0
2,23820, Note_on_c,0,77,0
2,23850, Note_on_c,0,62,0
2,23850, Note_on_c,0,63,0
2,23850, Note_on_c,0,67,0
2,23850, Note_on_c,0,78,0
2,23880, Note_on_c,0,78,0
2,23910, Note_on_c,0,75,0
2,23940, Note_on_c,0,62,0
2,23940, Note_on_c,0,63,0
2,23940, Note_on_c,0,67,0
2,23940, Note_on_c,0,75,0
2,23970, Note_on_c,0,77,0
2,24000, Note_on_c,0,63,0
2,24030, Note_on_c,0,53,0
2,24030, Note_on_c,0,58,0
2,24060, Note_on_c,0,53,0
2,24090, Note_on_c,0,63,0
2,24120, Note_on_c,0,58,0
2,24150, Note_on_c,0,77,0
2,24180, Note_on_c,0,76,0
2,24210, Note_on_c,0,76,0
2,24240, Note_on_c,0,62,0
2,24240, Note_on_c,0,74,0
2,24270, Note_on_c,0,56,0
2,24270, Note_on_c,0,67,0
2,24270, Note_on_c,0,73,0
2,24270, Note_on_c,0,74,0
2,24300, Note_on_c,0,72,0
2,24300, Note_on_c,0,73,0
2,24330, Note_on_c,0,67,0
2,24360, Note_on_c,0,84,0
2,24390, Note_on_c,0,62,0
2,24390, Note_on_c,0,72,0
2,24420, Note_on_c,0,84,0
2,24450, Note_on_c,0,62,0
2,24450, Note_on_c,0,67,0
2,24450, Note_on_c,0,72,0
2,24450, Note_on_c,0,84,0
2,24480, Note_on_c,0,84,0
2,24510, Note_on_c,0,72,0
2,24540, Note_on_c,0,84,0
2,24570, Note_on_c,0,56,0
2,24570, Note_on_c,0,62,0
2,24570, Note_on_c,0,67,0
2,24600, Note_on_c,0,84,0
2,24630, Note_on_c,0,56,0
2,24630, Note_on_c,0,62,0
2,24630, Note_on_c,0,66,0
2,24630, Note_on_c,0,72,0
2,24630, Note_on_c,0,78,0
2,24630, Note_on_c,0,84,0
2,24660, Note_on_c,0,66,0
2,24690, Note_on_c,0,72,0
2,24720, Note_on_c,0,78,0
2,24750, Note_on_c,0,84,0
2,24780, Note_on_c,0,66,0
2,24810, Note_on_c,0,78,0
2,24810, Note_on_c,0,84,0
2,24840, Note_on_c,0,66,0
2,24840, Note_on_c,0,72,0
2,24840, Note_on_c,0,84,0
2,24870, Note_on_c,0,72,0
2,24870, Note_on_c,0,78,0
2,24900, Note_on_c,0,56,0
2,24900, Note_on_c,0,62,0
2,24930, Note_on_c,0,56,0
2,24960, Note_on_c,0,56,0
2,24990, Note_on_c,0,72,0
2,25020, Note_on_c,0,51,0
2,25020, Note_on_c,0,61,0
2,25020, Note_on_c,0,65,0
2,25020, Note_on_c,0,68,0
2,25050, Note_on_c,0,61,0
2,25050, Note_on_c,0,65,0
2,25050, Note_on_c,0,68,0
2,25050, Note_on_c,0,72,0
2,25080, Note_on_c,0,51,0
2,25110, Note_on_c,0,72,0
2,25140, Note_on_c,0,51,0
2,25140, Note_on_c,0,60,0
2,25140, Note_on_c,0,61,0
2,25140, Note_on_c,0,65,0
2,25140, Note_on_c,0,68,0
2,25170, Note_on_c,0,51,0
2,25170, Note_on_c,0,60,0
2,25170, Note_on_c,0,61,0
2,25170, Note_on_c,0,65,0
2,25170, Note_on_c,0,68,0
2,25170, Note_on_c,0,72,0
2,25200, Note_on_c,0,72,0
2,25230, Note_on_c,0,64,0
2,25260, Note_on_c,0,39,0
2,25290, Note_on_c,0,51,0
2,25320, Note_on_c,0,61,0
2,25350, Note_on_c,0,64,0
2,25380, Note_on_c,0,61,0
2,25410, Note_on_c,0,39,0
2,25440, Note_on_c,0,51,0
2,25470, Note_on_c,0,72,0
2,25500, Note_on_c,0,61,0
2,25500, Note_on_c,0,72,0
2,25530, Note_on_c,0,39,0
2,25530, Note_on_c,0,51,0
2,25530, Note_on_c,0,61,0
2,25560, Note_on_c,0,39,0
2,25560, Note_on_c,0,51,0
2,25560, Note_on_c,0,72,0
2,25590, Note_on_c,0,60,0
2,25620, Note_on_c,0,44,0
2,25650, Note_on_c,0,63,0
2,25680, Note_on_c,0,51,0
2,25710, Note_on_c,0,58,0
2,25740, Note_on_c,0,55,0
2,25770, Note_on_c,0,55,0
2,25800, Note_on_c,0,51,0
2,25830, Note_on_c,0,44,0
2,25830, Note_on_c,0,58,0
2,25830, Note_on_c,0,60,0
2,25830, Note_on_c,0,63,0
2,25860, Note_on_c,0,63,0
2,25890, Note_on_c,0,44,0
2,25890, Note_on_c,0,51,0
2,25890, Note_on_c,0,55,0
2,25890, Note_on_c,0,58,0
2,25890, Note_on_c,0,60,0
2,25920, Note_on_c,0,51,0
2,25920, Note_on_c,0,55,0
2,25920, Note_on_c,0,58,0
2,25920, Note_on_c,0,63,0
2,25950, Note_on_c,0,44,0
2,25950, Note_on_c,0,60,0
2,25980, Note_on_c,0,44,0
2,25980, Note_on_c,0,51,0
2,25980, Note_on_c,0,58,0
2,25980, Note_on_c,0,60,0
2,25980, Note_on_c,0,63,0
2,26010, Note_on_c,0,44,0
2,26010, Note_on_c,0,51,0
2,26010, Note_on_c,0,58,0
2,26010, Note_on_c,0,60,0
2,26010, Note_on_c,0,63,0
2,26040, Note_on_c,0,44,0
2,26070, Note_on_c,0,58,0
2,26070, Note_on_c,0,63,0
2,26100, Note_on_c,0,58,0
2,26100, Note_on_c,0,63,0
2,26130, Note_on_c,0,44,0
2,26160, Note_on_c,0,47,0
2,26160, Note_on_c,0,58,0
2,26160, Note_on_c,0,61,0
2,26160, Note_on_c,0,63,0
2,26160, Note_on_c,0,66,0
2,26190, Note_on_c,0,47,0
2,26190, Note_on_c,0,58,0
2,26190, Note_on_c,0,61,0
2,26190, Note_on_c,0,63,0
2,26190, Note_on_c,0,66,0
2,26220, Note_on_c,0,66,0
2,26250, Note_on_c,0,58,0
2,26280, Note_on_c,0,61,0
2,26310, Note_on_c,0,47,0
2,26340, Note_on_c,0,63,0
2,26370, Note_on_c,0,47,0
2,26400, Note_on_c,0,66,0
2,26430, Note_on_c,0,58,0
2,26430, Note_on_c,0,61,0
2,26430, Note_on_c,0,63,0
2,26460, Note_on_c,0,40,0
2,26490, Note_on_c,0,63,0
2,26520, Note_on_c,0,47,0
2,26550, Note_on_c,0,52,0
2,26550, Note_on_c,0,56,0
2,26550, Note_on_c,0,58,0
2,26580, Note_on_c,0,47,0
2,26580, Note_on_c,0,52,0
2,26580, Note_on_c,0,56,0
2,26610, Note_on_c,0,40,0
2,26610, Note_on_c,0,58,0
2,26610, Note_on_c,0,63,0
2,26640, Note_on_c,0,40,0
2,26670, Note_on_c,0,63,0
2,26700, Note_on_c,0,52,0
2,26700, Note_on_c,0,56,0
2,26700, Note_on_c,0,58,0
2,26730, Note_on_c,0,47,0
2,26760, Note_on_c,0,56,0
2,26790, Note_on_c,0,58,0
2,26820, Note_on_c,0,52,0
2,26850, Note_on_c,0,63,0
2,26880, Note_on_c,0,47,0
2,26910, Note_on_c,0,40,0
2,26940, Note_on_c,0,59,0
2,26970, Note_on_c,0,63,0
2,27000, Note_on_c,0,45,0
2,27000, Note_on_c,0,61,0
2,27030, Note_on_c,0,59,0
2,27060, Note_on_c,0,61,0
2,27090, Note_on_c,0,63,0
2,27120, Note_on_c,0,45,0
2,27150, Note_on_c,0,57,0
2,27180, Note_on_c,0,57,0
2,27210, Note_on_c,0,58,0
2,27240, Note_on_c,0,58,0
2,27270, Note_on_c,0,44,0
2,27270, Note_on_c,0,59,0
2,27300, Note_on_c,0,44,0
2,27330, Note_on_c,0,59,0
2,27330, Note_on_c,0,60,0
2,27360, Note_on_c,0,60,0
2,27390, Note_on_c,0,63,0
2,27420, Note_on_c,0,60,0
2,27450, Note_on_c,0,63,0
2,27480, Note_on_c,0,60,0
2,27510, Note_on_c,0,63,0
2,27540, Note_on_c,0,39,0
2,27570, Note_on_c,0,46,0
2,27600, Note_on_c,0,56,0
2,27630, Note_on_c,0,56,0
2,27660, Note_on_c,0,63,0
2,27690, Note_on_c,0,53,0
2,27720, Note_on_c,0,56,0
2,27750, Note_on_c,0,51,0
2,27780, Note_on_c,0,39,0
2,27810, Note_on_c,0,46,0
2,27840, Note_on_c,0,53,0
2,27870, Note_on_c,0,51,0
2,27900, Note_on_c,0,56,0
2,27930, Note_on_c,0,58,0
2,27960, Note_on_c,0,60,0
2,28020, Note_on_c,0,44,0
2,28020, Note_on_c,0,58,0
2,28020, Note_on_c,0,60,0
2,28050, Note_on_c,0,51,0
2,28080, Note_on_c,0,44,0
2,28080, Note_on_c,0,51,0
2,28110, Note_on_c,0,84,0
2,28140, Note_on_c,0,72,0
2,28170, Note_on_c,0,72,0
2,28200, Note_on_c,0,84,0
2,28230, Note_on_c,0,56,0
2,28230, Note_on_c,0,60,0
2,28230, Note_on_c,0,63,0
2,28230, Note_on_c,0,75,0
2,28230, Note_on_c,0,87,0
2,28260, Note_on_c,0,75,0
2,28260, Note_on_c,0,87,0
2,28290, Note_on_c,0,60,0
2,28290, Note_on_c,0,63,0
2,28290, Note_on_c,0,75,0
2,28290, Note_on_c,0,87,0
2,28320, Note_on_c,0,56,0
2,28320, Note_on_c,0,75,0
2,28320, Note_on_c,0,87,0
2,28350, Note_on_c,0,72,0
2,28350, Note_on_c,0,84,0
2,28380, Note_on_c,0,72,0
2,28380, Note_on_c,0,84,0
2,28410, Note_on_c,0,55,0
2,28410, Note_on_c,0,61,0
2,28410, Note_on_c,0,66,0
2,28410, Note_on_c,0,75,0
2,28410, Note_on_c,0,87,0
2,28440, Note_on_c,0,75,0
2,28470, Note_on_c,0,87,0
2,28500, Note_on_c,0,55,0
2,28530, Note_on_c,0,66,0
2,28530, Note_on_c,0,77,0
2,28530, Note_on_c,0,89,0
2,28560, Note_on_c,0,61,0
2,28560, Note_on_c,0,77,0
2,28560, Note_on_c,0,89,0
2,28590, Note_on_c,0,55,0
2,28590, Note_on_c,0,61,0
2,28590, Note_on_c,0,66,0
2,28620, Note_on_c,0,75,0
2,28650, Note_on_c,0,55,0
2,28650, Note_on_c,0,61,0
2,28650, Note_on_c,0,66,0
2,28650, Note_on_c,0,75,0
2,28680, Note_on_c,0,85,0
2,28710, Note_on_c,0,73,0
2,28740, Note_on_c,0,73,0
2,28770, Note_on_c,0,44,0
2,28770, Note_on_c,0,85,0
2,28800, Note_on_c,0,51,0
2,28800, Note_on_c,0,55,0
2,28800, Note_on_c,0,72,0
2,28830, Note_on_c,0,72,0
2,28860, Note_on_c,0,55,0
2,28890, Note_on_c,0,70,0
2,28920, Note_on_c,0,63,0
2,28950, Note_on_c,0,63,0
2,28950, Note_on_c,0,70,0
2,28980, Note_on_c,0,55,0
2,28980, Note_on_c,0,60,0
2,28980, Note_on_c,0,67,0
2,29010, Note_on_c,0,60,0
2,29040, Note_on_c,0,55,0
2,29040, Note_on_c,0,63,0
2,29040, Note_on_c,0,67,0
2,29040, Note_on_c,0,70,0
2,29070, Note_on_c,0,63,0
2,29070, Note_on_c,0,70,0
2,29100, Note_on_c,0,44,0
2,29100, Note_on_c,0,51,0
2,29100, Note_on_c,0,60,0
2,29100, Note_on_c,0,63,0
2,29100, Note_on_c,0,67,0
2,29130, Note_on_c,0,60,0
2,29130, Note_on_c,0,63,0
2,29130, Note_on_c,0,67,0
2,29160, Note_on_c,0,54,0
2,29160, Note_on_c,0,59,0
2,29160, Note_on_c,0,64,0
2,29160, Note_on_c,0,68,0
2,29190, Note_on_c,0,54,0
2,29190, Note_on_c,0,59,0
2,29190, Note_on_c,0,64,0
2,29190, Note_on_c,0,68,0
2,29220, Note_on_c,0,68,0
2,29250, Note_on_c,0,50,0
2,29280, Note_on_c,0,54,0
2,29280, Note_on_c,0,59,0
2,29280, Note_on_c,0,64,0
2,29310, Note_on_c,0,50,0
2,29310, Note_on_c,0,54,0
2,29310, Note_on_c,0,59,0
2,29310, Note_on_c,0,64,0
2,29340, Note_on_c,0,68,0
2,29370, Note_on_c,0,50,0
2,29370, Note_on_c,0,54,0
2,29370, Note_on_c,0,68,0
2,29400, Note_on_c,0,50,0
2,29400, Note_on_c,0,54,0
2,29400, Note_on_c,0,68,0
2,29430, Note_on_c,0,64,0
2,29460, Note_on_c,0,50,0
2,29490, Note_on_c,0,50,0
2,29490, Note_on_c,0,54,0
2,29490, Note_on_c,0,64,0
2,29490, Note_on_c,0,68,0
2,29520, Note_on_c,0,54,0
2,29520, Note_on_c,0,68,0
2,29550, Note_on_c,0,49,0
2,29550, Note_on_c,0,56,0
2,29550, Note_on_c,0,60,0
2,29550, Note_on_c,0,65,0
2,29550, Note_on_c,0,68,0
2,29580, Note_on_c,0,60,0
2,29610, Note_on_c,0,49,0
2,29610, Note_on_c,0,56,0
2,29610, Note_on_c,0,65,0
2,29610, Note_on_c,0,68,0
2,29640, Note_on_c,0,63,0
2,29670, Note_on_c,0,75,0
2,29700, Note_on_c,0,68,0
2,29730, Note_on_c,0,64,0
2,29760, Note_on_c,0,72,0
2,29790, Note_on_c,0,62,0
2,29790, Note_on_c,0,63,0
2,29790, Note_on_c,0,64,0
2,29790, Note_on_c,0,68,0
2,29790, Note_on_c,0,72,0
2,29790, Note_on_c,0,75,0
2,29820, Note_on_c,0,61,0
2,29820, Note_on_c,0,62,0
2,29850, Note_on_c,0,60,0
2,29850, Note_on_c,0,61,0
2,29850, Note_on_c,0,64,0
2,29850, Note_on_c,0,68,0
2,29850, Note_on_c,0,72,0
2,29880, Note_on_c,0,60,0
2,29880, Note_on_c,0,64,0
2,29880, Note_on_c,0,68,0
2,29880, Note_on_c,0,72,0
2,29910, Note_on_c,0,64,0
2,29940, Note_on_c,0,70,0
2,29970, Note_on_c,0,61,0
2,30000, Note_on_c,0,55,0
2,30000, Note_on_c,0,67,0
2,30030, Note_on_c,0,64,0
2,30030, Note_on_c,0,67,0
2,30030, Note_on_c,0,70,0
2,30060, Note_on_c,0,52,0
2,30060, Note_on_c,0,55,0
2,30060, Note_on_c,0,61,0
2,30090, Note_on_c,0,52,0
2,30120, Note_on_c,0,48,0
2,30120, Note_on_c,0,58,0
2,30120, Note_on_c,0,61,0
2,30120, Note_on_c,0,64,0
2,30120, Note_on_c,0,67,0
2,30150, Note_on_c,0,48,0
2,30150, Note_on_c,0,58,0
2,30150, Note_on_c,0,64,0
2,30150, Note_on_c,0,67,0
2,30180, Note_on_c,0,61,0
2,30240, Note_on_c,0,45,0
2,30240, Note_on_c,0,55,0
2,30240, Note_on_c,0,63,0
2,30270, Note_on_c,0,45,0
2,30270, Note_on_c,0,58,0
2,30270, Note_on_c,0,60,0
2,30300, Note_on_c,0,32,0
2,30330, Note_on_c,0,44,0
2,30360, Note_on_c,0,32,0
2,30390, Note_on_c,0,44,0
2,30420, Note_on_c,0,55,0
2,30420, Note_on_c,0,58,0
2,30420, Note_on_c,0,60,0
2,30450, Note_on_c,0,63,0
2,30480, Note_on_c,0,51,0
2,30510, Note_on_c,0,55,0
2,30510, Note_on_c,0,58,0
2,30510, Note_on_c,0,60,0
2,30540, Note_on_c,0,51,0
2,30570, Note_on_c,0,55,0
2,30570, Note_on_c,0,58,0
2,30570, Note_on_c,0,60,0
2,30600, Note_on_c,0,39,0
2,30630, Note_on_c,0,46,0
2,30660, Note_on_c,0,39,0
2,30690, Note_on_c,0,46,0
2,30690, Note_on_c,0,53,0
2,30690, Note_on_c,0,59,0
2,30690, Note_on_c,0,63,0
2,30690, Note_on_c,0,67,0
2,30690, Note_on_c,0,70,0
2,30720, Note_on_c,0,67,0
2,30750, Note_on_c,0,59,0
2,30780, Note_on_c,0,63,0
2,30810, Note_on_c,0,70,0
2,30840, Note_on_c,0,53,0
2,30870, Note_on_c,0,51,0
2,30870, Note_on_c,0,59,0
2,30870, Note_on_c,0,63,0
2,30870, Note_on_c,0,68,0
2,30900, Note_on_c,0,51,0
2,30930, Note_on_c,0,59,0
2,30960, Note_on_c,0,63,0
2,30990, Note_on_c,0,68,0
2,31020, Note_on_c,0,36,0
2,31050, Note_on_c,0,58,0
2,31080, Note_on_c,0,64,0
2,31080, Note_on_c,0,67,0
2,31110, Note_on_c,0,36,0
2,31110, Note_on_c,0,58,0
2,31110, Note_on_c,0,64,0
2,31110, Note_on_c,0,67,0
2,31140, Note_on_c,0,79,0
2,31170, Note_on_c,0,64,0
2,31200, Note_on_c,0,60,0
2,31230, Note_on_c,0,74,0
2,31260, Note_on_c,0,58,0
2,31290, Note_on_c,0,58,0
2,31290, Note_on_c,0,60,0
2,31290, Note_on_c,0,64,0
2,31290, Note_on_c,0,79,0
2,31320, Note_on_c,0,75,0
2,31350, Note_on_c,0,74,0
2,31350, Note_on_c,0,75,0
2,31380, Note_on_c,0,76,0
2,31410, Note_on_c,0,76,0
2,31440, Note_on_c,0,57,0
2,31440, Note_on_c,0,62,0
2,31440, Note_on_c,0,63,0
2,31440, Note_on_c,0,67,0
2,31440, Note_on_c,0,77,0
2,31470, Note_on_c,0,67,0
2,31500, Note_on_c,0,62,0
2,31530, Note_on_c,0,57,0
2,31530, Note_on_c,0,63,0
2,31560, Note_on_c,0,77,0
2,31590, Note_on_c,0,77,0
2,31620, Note_on_c,0,63,0
2,31650, Note_on_c,0,58,0
2,31650, Note_on_c,0,63,0
2,31680, Note_on_c,0,58,0
2,31710, Note_on_c,0,75,0
2,31740, Note_on_c,0,75,0
2,31740, Note_on_c,0,77,0
2,31770, Note_on_c,0,72,0
2,31800, Note_on_c,0,72,0
2,31830, Note_on_c,0,56,0
2,31830, Note_on_c,0,60,0
2,31830, Note_on_c,0,61,0
2,31830, Note_on_c,0,65,0
2,31830, Note_on_c,0,75,0
2,31860, Note_on_c,0,74,0
2,31890, Note_on_c,0,73,0
2,31920, Note_on_c,0,74,0
2,31950, Note_on_c,0,72,0
2,31950, Note_on_c,0,75,0
2,31980, Note_on_c,0,65,0
2,31980, Note_on_c,0,73,0
2,32010, Note_on_c,0,61,0
2,32040, Note_on_c,0,61,0
2,32040, Note_on_c,0,65,0
2,32040, Note_on_c,0,72,0
2,32040, Note_on_c,0,73,0
2,32070, Note_on_c,0,65,0
2,32100, Note_on_c,0,60,0
2,32130, Note_on_c,0,56,0
2,32130, Note_on_c,0,61,0
2,32160, Note_on_c,0,73,0
2,32190, Note_on_c,0,70,0
2,32220, Note_on_c,0,52,0
2,32220, Note_on_c,0,56,0
2,32220, Note_on_c,0,61,0
2,32220, Note_on_c,0,62,0
2,32220, Note_on_c,0,66,0
2,32250, Note_on_c,0,62,0
2,32280, Note_on_c,0,61,0
2,32310, Note_on_c,0,56,0
2,32340, Note_on_c,0,66,0
2,32370, Note_on_c,0,61,0
2,32400, Note_on_c,0,56,0
2,32400, Note_on_c,0,62,0
2,32400, Note_on_c,0,66,0
2,32430, Note_on_c,0,62,0
2,32460, Note_on_c,0,52,0
2,32490, Note_on_c,0,61,0
2,32520, Note_on_c,0,66,0
2,32550, Note_on_c,0,56,0
2,32580, Note_on_c,0,51,0
2,32580, Note_on_c,0,61,0
2,32580, Note_on_c,0,65,0
2,32580, Note_on_c,0,70,0
2,32610, Note_on_c,0,51,0
2,32640, Note_on_c,0,27,0
2,32670, Note_on_c,0,65,0
2,32700, Note_on_c,0,27,0
2,32730, Note_on_c,0,61,0
2,32760, Note_on_c,0,61,0
2,32790, Note_on_c,0,65,0
2,32820, Note_on_c,0,65,0
2,32850, Note_on_c,0,61,0
2,32880, Note_on_c,0,55,0
2,32910, Note_on_c,0,55,0
2,32940, Note_on_c,0,63,0
2,32970, Note_on_c,0,56,0
2,32970, Note_on_c,0,59,0
2,33000, Note_on_c,0,56,0
2,33030, Note_on_c,0,59,0
2,33060, Note_on_c,0,63,0
2,33090, Note_on_c,0,59,0
2,33120, Note_on_c,0,59,0
2,33150, Note_on_c,0,37,0
2,33180, Note_on_c,0,36,0
2,33210, Note_on_c,0,58,0
2,33240, Note_on_c,0,52,0
2,33270, Note_on_c,0,37,0
2,33300, Note_on_c,0,36,0
2,33330, Note_on_c,0,52,0
2,33360, Note_on_c,0,58,0
2,33390, Note_on_c,0,64,0
2,33420, Note_on_c,0,58,0
2,33450, Note_on_c,0,60,0
2,33480, Note_on_c,0,64,0
2,33510, Note_on_c,0,60,0
2,33540, Note_on_c,0,58,0
2,33600, Note_on_c,0,94,0
2,33600, Note_on_c,0,98,0
2,33630, Note_on_c,0,94,0
2,33630, Note_on_c,0,98,0
2,33660, Note_on_c,0,87,0
2,33690, Note_on_c,0,86,0
2,33690, Note_on_c,0,87,0
2,33720, Note_on_c,0,48,0
2,33720, Note_on_c,0,58,0
2,33720, Note_on_c,0,85,0
2,33720, Note_on_c,0,86,0
2,33750, Note_on_c,0,48,0
2,33750, Note_on_c,0,84,0
2,33750, Note_on_c,0,85,0
2,33780, Note_on_c,0,58,0
2,33780, Note_on_c,0,83,0
2,33780, Note_on_c,0,84,0
2,33810, Note_on_c,0,82,0
2,33810, Note_on_c,0,83,0
2,33840, Note_on_c,0,82,0
2,33840, Note_on_c,0,86,0
2,33870, Note_on_c,0,82,0
2,33870, Note_on_c,0,86,0
2,33900, Note_on_c,0,52,0
2,33900, Note_on_c,0,58,0
2,33900, Note_on_c,0,62,0
2,33900, Note_on_c,0,82,0
2,33960, Note_on_c,0,52,0
2,33960, Note_on_c,0,58,0
2,33960, Note_on_c,0,62,0
2,33960, Note_on_c,0,75,0
2,33990, Note_on_c,0,75,0
2,34080, Note_on_c,0,62,0
2,34080, Note_on_c,0,63,0
2,34080, Note_on_c,0,70,0
2,34110, Note_on_c,0,57,80
2,34110, Note_on_c,0,69,0
2,34110, Note_on_c,0,70,0
2,34140, Note_on_c,0,69,0
2,34170, Note_on_c,0,63,0
2,34170, Note_on_c,0,72,0
2,34200, Note_on_c,0,62,0
2,34200, Note_on_c,0,72,0
2,34230, Note_on_c,0,57,0
2,34260, Note_on_c,0,57,0
2,34260, Note_on_c,0,65,0
2,34290, Note_on_c,0,57,0
2,34290, Note_on_c,0,65,0
2,34320, Note_on_c,0,63,0
2,34350, Note_on_c,0,60,0
2,34350, Note_on_c,0,63,0
2,34380, Note_on_c,0,60,0
2,34380, Note_on_c,0,62,0
2,34410, Note_on_c,0,62,0
2,34440, Note_on_c,0,63,0
2,34470, Note_on_c,0,41,0
2,34470, Note_on_c,0,51,0
2,34470, Note_on_c,0,63,0
2,34470, Note_on_c,0,64,0
2,34500, Note_on_c,0,64,0
2,34530, Note_on_c,0,65,0
2,34560, Note_on_c,0,65,0
2,34590, Note_on_c,0,51,0
2,34620, Note_on_c,0,60,0
2,34650, Note_on_c,0,60,0
2,34680, Note_on_c,0,51,0
2,34680, Note_on_c,0,61,0
2,34710, Note_on_c,0,41,0
2,34710, Note_on_c,0,61,0
2,34710, Note_on_c,0,62,0
2,34740, Note_on_c,0,51,0
2,34740, Note_on_c,0,62,0
2,34770, Note_on_c,0,63,0
2,34800, Note_on_c,0,63,0
2,34800, Note_on_c,0,64,0
2,34830, Note_on_c,0,64,0
2,34860, Note_on_c,0,46,0
2,34860, Note_on_c,0,56,0
2,34860, Note_on_c,0,65,0
2,34890, Note_on_c,0,46,0
2,34920, Note_on_c,0,56,0
2,34950, Note_on_c,0,65,0
2,34980, Note_on_c,0,67,0
2,35010, Note_on_c,0,56,0
2,35040, Note_on_c,0,62,0
2,35070, Note_on_c,0,70,0
2,35100, Note_on_c,0,67,0
2,35100, Note_on_c,0,70,0
2,35100, Note_on_c,0,72,0
2,35130, Note_on_c,0,56,0
2,35130, Note_on_c,0,62,0
2,35130, Note_on_c,0,70,0
2,35130, Note_on_c,0,72,0
2,35160, Note_on_c,0,69,0
2,35160, Note_on_c,0,70,0
2,35190, Note_on_c,0,69,0
2,35220, Note_on_c,0,62,0
2,35220, Note_on_c,0,66,0
2,35220, Note_on_c,0,70,0
2,35250, Note_on_c,0,56,0
2,35250, Note_on_c,0,70,0
2,35280, Note_on_c,0,72,0
2,35310, Note_on_c,0,72,0
2,35340, Note_on_c,0,62,0
2,35370, Note_on_c,0,66,0
2,35370, Note_on_c,0,72,0
2,35400, Note_on_c,0,72,0
2,35430, Note_on_c,0,62,0
2,35430, Note_on_c,0,66,0
2,35430, Note_on_c,0,72,0
2,35460, Note_on_c,0,72,0
2,35490, Note_on_c,0,62,0
2,35490, Note_on_c,0,66,0
2,35490, Note_on_c,0,70,0
2,35520, Note_on_c,0,70,0
2,35550, Note_on_c,0,56,0
2,35550, Note_on_c,0,72,0
2,35580, Note_on_c,0,65,0
2,35610, Note_on_c,0,55,0
2,35610, Note_on_c,0,61,0
2,35640, Note_on_c,0,55,0
2,35640, Note_on_c,0,61,0
2,35640, Note_on_c,0,65,0
2,35670, Note_on_c,0,27,0
2,35700, Note_on_c,0,61,0
2,35730, Note_on_c,0,65,0
2,35760, Note_on_c,0,27,0
2,35790, Note_on_c,0,72,0
2,35820, Note_on_c,0,65,0
2,35850, Note_on_c,0,61,0
2,35880, Note_on_c,0,57,0
2,35910, Note_on_c,0,55,0
2,35940, Note_on_c,0,55,0
2,35970, Note_on_c,0,57,0
2,36000, Note_on_c,0,78,0
2,36030, Note_on_c,0,77,0
2,36060, Note_on_c,0,78,0
2,36090, Note_on_c,0,77,0
2,36120, Note_on_c,0,75,0
2,36150, Note_on_c,0,64,0
2,36180, Note_on_c,0,61,0
2,36210, Note_on_c,0,55,0
2,36210, Note_on_c,0,58,0
2,36210, Note_on_c,0,75,0
2,36240, Note_on_c,0,64,0
2,36270, Note_on_c,0,55,0
2,36270, Note_on_c,0,58,0
2,36270, Note_on_c,0,61,0
2,36270, Note_on_c,0,70,0
2,36300, Note_on_c,0,69,0
2,36300, Note_on_c,0,70,0
2,36330, Note_on_c,0,68,0
2,36330, Note_on_c,0,69,0
2,36360, Note_on_c,0,68,0
2,36390, Note_on_c,0,66,0
2,36420, Note_on_c,0,44,0
2,36420, Note_on_c,0,51,0
2,36420, Note_on_c,0,55,0
2,36450, Note_on_c,0,65,0
2,36450, Note_on_c,0,66,0
2,36480, Note_on_c,0,65,0
2,36510, Note_on_c,0,55,0
2,36510, Note_on_c,0,72,0
2,36540, Note_on_c,0,68,0
2,36540, Note_on_c,0,72,0
2,36570, Note_on_c,0,51,0
2,36570, Note_on_c,0,68,0
2,36600, Note_on_c,0,55,0
2,36600, Note_on_c,0,60,0
2,36630, Note_on_c,0,55,0
2,36630, Note_on_c,0,60,0
2,36660, Note_on_c,0,63,0
2,36690, Note_on_c,0,63,0
2,36720, Note_on_c,0,65,0
2,36750, Note_on_c,0,44,0
2,36750, Note_on_c,0,65,0
2,36780, Note_on_c,0,54,0
2,36780, Note_on_c,0,60,0
2,36780, Note_on_c,0,65,0
2,36780, Note_on_c,0,70,0
2,36810, Note_on_c,0,65,0
2,36840, Note_on_c,0,60,0
2,36870, Note_on_c,0,70,0
2,36900, Note_on_c,0,44,0
2,36930, Note_on_c,0,60,0
2,36960, Note_on_c,0,65,0
2,36960, Note_on_c,0,68,0
2,36990, Note_on_c,0,65,0
2,37020, Note_on_c,0,68,0
2,37050, Note_on_c,0,60,0
2,37080, Note_on_c,0,44,0
2,37080, Note_on_c,0,54,0
2,37110, Note_on_c,0,67,0
2,37140, Note_on_c,0,49,0
2,37140, Note_on_c,0,59,0
2,37140, Note_on_c,0,63,0
2,37170, Note_on_c,0,59,0
2,37200, Note_on_c,0,63,0
2,37230, Note_on_c,0,67,0
2,37260, Note_on_c,0,56,0
2,37260, Note_on_c,0,59,0
2,37260, Note_on_c,0,63,0
2,37260, Note_on_c,0,68,0
2,37290, Note_on_c,0,56,0
2,37290, Note_on_c,0,59,0
2,37290, Note_on_c,0,63,0
2,37320, Note_on_c,0,58,0
2,37320, Note_on_c,0,59,0
2,37320, Note_on_c,0,63,0
2,37320, Note_on_c,0,67,0
2,37320, Note_on_c,0,68,0
2,37380, Note_on_c,0,67,0
2,37410, Note_on_c,0,58,0
2,37410, Note_on_c,0,59,0
2,37410, Note_on_c,0,63,0
2,37440, Note_on_c,0,59,0
2,37440, Note_on_c,0,63,0
2,37440, Note_on_c,0,70,0
2,37470, Note_on_c,0,58,0
2,37470, Note_on_c,0,67,0
2,37500, Note_on_c,0,67,0
2,37530, Note_on_c,0,59,0
2,37560, Note_on_c,0,57,0
2,37560, Note_on_c,0,58,0
2,37560, Note_on_c,0,59,0
2,37560, Note_on_c,0,63,0
2,37560, Note_on_c,0,69,0
2,37560, Note_on_c,0,70,0
2,37590, Note_on_c,0,59,0
2,37620, Note_on_c,0,63,0
2,37650, Note_on_c,0,57,0
2,37650, Note_on_c,0,69,0
2,37680, Note_on_c,0,56,0
2,37680, Note_on_c,0,59,0
2,37680, Note_on_c,0,63,0
2,37680, Note_on_c,0,68,0
2,37710, Note_on_c,0,49,0
2,37710, Note_on_c,0,56,0
2,37710, Note_on_c,0,59,0
2,37740, Note_on_c,0,63,0
2,37740, Note_on_c,0,68,0
2,37770, Note_on_c,0,56,0
2,37800, Note_on_c,0,61,0
2,37830, Note_on_c,0,46,0
2,37860, Note_on_c,0,61,0
2,37890, Note_on_c,0,56,0
2,37920, Note_on_c,0,63,0
2,37950, Note_on_c,0,46,0
2,37980, Note_on_c,0,48,0
2,38010, Note_on_c,0,56,0
2,38040, Note_on_c,0,61,0
2,38070, Note_on_c,0,56,0
2,38100, Note_on_c,0,61,0
2,38130, Note_on_c,0,63,0
2,38160, Note_on_c,0,49,0
2,38190, Note_on_c,0,48,0
2,38220, Note_on_c,0,65,0
2,38250, Note_on_c,0,56,0
2,38280, Note_on_c,0,65,0
2,38310, Note_on_c,0,56,0
2,38340, Note_on_c,0,50,0
2,38370, Note_on_c,0,49,0
2,38400, Note_on_c,0,67,0
2,38430, Note_on_c,0,56,0
2,38460, Note_on_c,0,59,0
2,38490, Note_on_c,0,56,0
2,38520, Note_on_c,0,67,0
2,38550, Note_on_c,0,50,0
2,38550, Note_on_c,0,59,0
2,38580, Note_on_c,0,50,0
2,38610, Note_on_c,0,50,0
2,38640, Note_on_c,0,51,0
2,38640, Note_on_c,0,56,0
2,38640, Note_on_c,0,61,0
2,38640, Note_on_c,0,65,0
2,38640, Note_on_c,0,68,0
2,38670, Note_on_c,0,51,0
2,38700, Note_on_c,0,65,0
2,38730, Note_on_c,0,61,0
2,38760, Note_on_c,0,56,0
2,38790, Note_on_c,0,68,0
2,38820, Note_on_c,0,39,0
2,38820, Note_on_c,0,56,0
2,38850, Note_on_c,0,61,0
2,38850, Note_on_c,0,65,0
2,38880, Note_on_c,0,56,0
2,38910, Note_on_c,0,39,0
2,38910, Note_on_c,0,61,0
2,38910, Note_on_c,0,65,0
2,38940, Note_on_c,0,72,0
2,38970, Note_on_c,0,64,0
2,39000, Note_on_c,0,61,0
2,39030, Note_on_c,0,60,0
2,39060, Note_on_c,0,60,0
2,39090, Note_on_c,0,72,0
2,39120, Note_on_c,0,61,0
2,39120, Note_on_c,0,64,0
2,39150, Note_on_c,0,70,0
2,39180, Note_on_c,0,61,0
2,39210, Note_on_c,0,45,0
2,39210, Note_on_c,0,55,0
2,39210, Note_on_c,0,64,0
2,39210, Note_on_c,0,67,0
2,39240, Note_on_c,0,64,0
2,39270, Note_on_c,0,45,0
2,39270, Note_on_c,0,55,0
2,39270, Note_on_c,0,67,0
2,39300, Note_on_c,0,61,0
2,39330, Note_on_c,0,70,0
2,39360, Note_on_c,0,44,0
2,39390, Note_on_c,0,51,0
2,39390, Note_on_c,0,60,0
2,39390, Note_on_c,0,63,0
2,39420, Note_on_c,0,44,0
2,39450, Note_on_c,0,51,0
2,39450, Note_on_c,0,60,0
2,39450, Note_on_c,0,63,0
2,39480, Note_on_c,0,63,0
2,39510, Note_on_c,0,60,0
2,39540, Note_on_c,0,56,0
2,39570, Note_on_c,0,60,0
2,39600, Note_on_c,0,63,0
2,39630, Note_on_c,0,56,0
2,39660, Note_on_c,0,87,0
2,39690, Note_on_c,0,87,0
2,39720, Note_on_c,0,85,0
2,39750, Note_on_c,0,85,0
2,39780, Note_on_c,0,80,0
2,39810, Note_on_c,0,80,0
2,39840, Note_on_c,0,61,0
2,39870, Note_on_c,0,77,0
2,39900, Note_on_c,0,51,0
2,39900, Note_on_c,0,56,0
2,39930, Note_on_c,0,61,0
2,39960, Note_on_c,0,56,0
2,39990, Note_on_c,0,51,0
2,40020, Note_on_c,0,44,0
2,40050, Note_on_c,0,51,0
2,40080, Note_on_c,0,77,0
2,40110, Note_on_c,0,44,0
2,40140, Note_on_c,0,51,0
2,40170, Note_on_c,0,79,0
2,40200, Note_on_c,0,79,0
2,40230, Note_on_c,0,63,0
2,40260, Note_on_c,0,60,0
2,40290, Note_on_c,0,56,0
2,40320, Note_on_c,0,75,0
2,40350, Note_on_c,0,60,0
2,40350, Note_on_c,0,63,0
2,40380, Note_on_c,0,56,0
2,40380, Note_on_c,0,75,0
2,40410, Note_on_c,0,72,0
2,40440, Note_on_c,0,72,0
2,40470, Note_on_c,0,69,0
2,40500, Note_on_c,0,69,0
2,40530, Note_on_c,0,53,0
2,40530, Note_on_c,0,56,0
2,40530, Note_on_c,0,61,0
2,40530, Note_on_c,0,65,0
2,40530, Note_on_c,0,68,0
2,40560, Note_on_c,0,65,0
2,40590, Note_on_c,0,73,0
2,40620, Note_on_c,0,68,0
2,40650, Note_on_c,0,61,0
2,40680, Note_on_c,0,53,0
2,40710, Note_on_c,0,51,0
2,40710, Note_on_c,0,61,0
2,40710, Note_on_c,0,65,0
2,40710, Note_on_c,0,73,0
2,40740, Note_on_c,0,51,0
2,40740, Note_on_c,0,56,0
2,40770, Note_on_c,0,65,0
2,40800, Note_on_c,0,61,0
2,40830, Note_on_c,0,51,0
2,40860, Note_on_c,0,51,0
2,40890, Note_on_c,0,44,0
2,40920, Note_on_c,0,55,0
2,40920, Note_on_c,0,60,0
2,40920, Note_on_c,0,63,0
2,40950, Note_on_c,0,55,0
2,40980, Note_on_c,0,60,0
2,40980, Note_on_c,0,63,0
2,41010, Note_on_c,0,51,0
2,41040, Note_on_c,0,58,0
2,41070, Note_on_c,0,55,0
2,41100, Note_on_c,0,55,0
2,41130, Note_on_c,0,44,0
2,41160, Note_on_c,0,51,0
2,41160, Note_on_c,0,58,0
2,41190, Note_on_c,0,68,0
2,41220, Note_on_c,0,64,0
2,41250, Note_on_c,0,50,0
2,41280, Note_on_c,0,54,0
2,41310, Note_on_c,0,68,0
2,41340, Note_on_c,0,59,0
2,41340, Note_on_c,0,64,0
2,41370, Note_on_c,0,59,0
2,41400, Note_on_c,0,64,0
2,41400, Note_on_c,0,68,0
2,41430, Note_on_c,0,64,0
2,41430, Note_on_c,0,68,0
2,41490, Note_on_c,0,57,0
2,41490, Note_on_c,0,64,0
2,41490, Note_on_c,0,68,0
2,41520, Note_on_c,0,57,0
2,41520, Note_on_c,0,59,0
2,41520, Note_on_c,0,64,0
2,41520, Note_on_c,0,68,0
2,41550, Note_on_c,0,50,0
2,41550, Note_on_c,0,59,0
2,41580, Note_on_c,0,64,0
2,41580, Note_on_c,0,68,0
2,41610, Note_on_c,0,59,0
2,41610, Note_on_c,0,64,0
2,41610, Note_on_c,0,68,0
2,41640, Note_on_c,0,54,0
2,41640, Note_on_c,0,59,0
2,41670, Note_on_c,0,49,0
2,41670, Note_on_c,0,56,0
2,41670, Note_on_c,0,65,0
2,41670, Note_on_c,0,68,0
2,41700, Note_on_c,0,65,0
2,41730, Note_on_c,0,68,0
2,41760, Note_on_c,0,65,0
2,41760, Note_on_c,0,68,0
2,41790, Note_on_c,0,65,0
2,41790, Note_on_c,0,68,0
2,41820, Note_on_c,0,60,0
2,41850, Note_on_c,0,49,0
2,41850, Note_on_c,0,56,0
2,41850, Note_on_c,0,58,0
2,41850, Note_on_c,0,60,0
2,41850, Note_on_c,0,65,0
2,41850, Note_on_c,0,68,0
2,41880, Note_on_c,0,65,0
2,41910, Note_on_c,0,60,0
2,41910, Note_on_c,0,68,0
2,41940, Note_on_c,0,56,0
2,41940, Note_on_c,0,58,0
2,41940, Note_on_c,0,60,0
2,41940, Note_on_c,0,65,0
2,41940, Note_on_c,0,68,0
2,41970, Note_on_c,0,65,0
2,42000, Note_on_c,0,68,0
2,42030, Note_on_c,0,54,0
2,42030, Note_on_c,0,56,0
2,42030, Note_on_c,0,68,0
2,42060, Note_on_c,0,59,0
2,42060, Note_on_c,0,64,0
2,42090, Note_on_c,0,54,0
2,42120, Note_on_c,0,59,0
2,42120, Note_on_c,0,64,0
2,42120, Note_on_c,0,68,0
2,42150, Note_on_c,0,42,0
2,42180, Note_on_c,0,52,0
2,42210, Note_on_c,0,64,0
2,42240, Note_on_c,0,58,0
2,42270, Note_on_c,0,64,0
2,42300, Note_on_c,0,52,0
2,42330, Note_on_c,0,58,0
2,42360, Note_on_c,0,48,0
2,42390, Note_on_c,0,42,0
2,42420, Note_on_c,0,44,0
2,42420, Note_on_c,0,48,0
2,42420, Note_on_c,0,51,0
2,42420, Note_on_c,0,55,0
2,42420, Note_on_c,0,58,0
2,42420, Note_on_c,0,60,0
2,42420, Note_on_c,0,63,0
2,42450, Note_on_c,0,55,0
2,42480, Note_on_c,0,44,0
2,42480, Note_on_c,0,51,0
2,42480, Note_on_c,0,58,0
2,42480, Note_on_c,0,60,0
2,42480, Note_on_c,0,63,0
2,42510, Note_on_c,0,63,0
2,42540, Note_on_c,0,60,0
2,42570, Note_on_c,0,56,0
2,42600, Note_on_c,0,72,0
2,42630, Note_on_c,0,60,0
2,42660, Note_on_c,0,63,0
2,42690, Note_on_c,0,72,0
2,42720, Note_on_c,0,75,0
2,42750, Note_on_c,0,56,0
2,42780, Note_on_c,0,75,0
2,42810, Note_on_c,0,53,0
2,42810, Note_on_c,0,59,0
2,42810, Note_on_c,0,63,0
2,42810, Note_on_c,0,77,0
2,42840, Note_on_c,0,63,0
2,42870, Note_on_c,0,53,0
2,42870, Note_on_c,0,59,0
2,42900, Note_on_c,0,37,0
2,42930, Note_on_c,0,44,0
2,42960, Note_on_c,0,37,0
2,42990, Note_on_c,0,44,0
2,43020, Note_on_c,0,77,0
2,43050, Note_on_c,0,80,0
2,43080, Note_on_c,0,68,0
2,43110, Note_on_c,0,68,0
2,43140, Note_on_c,0,80,0
2,43170, Note_on_c,0,36,0
2,43200, Note_on_c,0,43,0
2,43200, Note_on_c,0,52,0
2,43200, Note_on_c,0,84,0
2,43230, Note_on_c,0,36,0
2,43230, Note_on_c,0,43,0
2,43230, Note_on_c,0,52,0
2,43230, Note_on_c,0,84,0
2,43260, Note_on_c,0,89,0
2,43290, Note_on_c,0,86,0
2,43320, Note_on_c,0,89,0
2,43350, Note_on_c,0,87,0
2,43380, Note_on_c,0,62,0
2,43380, Note_on_c,0,86,0
2,43410, Note_on_c,0,57,0
2,43410, Note_on_c,0,63,0
2,43410, Note_on_c,0,67,0
2,43410, Note_on_c,0,87,0
2,43410, Note_on_c,0,88,0
2,43440, Note_on_c,0,88,0
2,43440, Note_on_c,0,89,0
2,43470, Note_on_c,0,89,0
2,43500, Note_on_c,0,63,0
2,43500, Note_on_c,0,67,0
2,43500, Note_on_c,0,87,0
2,43530, Note_on_c,0,83,0
2,43560, Note_on_c,0,83,0
2,43560, Note_on_c,0,87,0
2,43590, Note_on_c,0,63,0
2,43590, Note_on_c,0,67,0
2,43590, Note_on_c,0,86,0
2,43620, Note_on_c,0,62,0
2,43620, Note_on_c,0,63,0
2,43620, Note_on_c,0,67,0
2,43620, Note_on_c,0,86,0
2,43650, Note_on_c,0,57,0
2,43680, Note_on_c,0,84,0
2,43680, Note_on_c,0,86,0
2,43710, Note_on_c,0,84,0
2,43710, Note_on_c,0,86,0
2,43740, Note_on_c,0,81,0
2,43770, Note_on_c,0,53,0
2,43770, Note_on_c,0,60,0
2,43770, Note_on_c,0,63,0
2,43770, Note_on_c,0,78,0
2,43770, Note_on_c,0,81,0
2,43800, Note_on_c,0,78,0
2,43830, Note_on_c,0,53,0
2,43830, Note_on_c,0,77,0
2,43860, Note_on_c,0,60,0
2,43860, Note_on_c,0,63,0
2,43860, Note_on_c,0,77,0
2,43890, Note_on_c,0,75,0
2,43920, Note_on_c,0,75,0
2,43950, Note_on_c,0,56,0
2,43950, Note_on_c,0,60,0
2,43950, Note_on_c,0,65,0
2,43980, Note_on_c,0,65,0
2,44010, Note_on_c,0,63,0
2,44010, Note_on_c,0,75,0
2,44040, Note_on_c,0,60,0
2,44040, Note_on_c,0,63,0
2,44040, Note_on_c,0,75,0
2,44070, Note_on_c,0,72,0
2,44100, Note_on_c,0,72,0
2,44130, Note_on_c,0,63,0
2,44130, Note_on_c,0,65,0
2,44130, Note_on_c,0,68,0
2,44130, Note_on_c,0,75,0
2,44160, Note_on_c,0,63,0
2,44160, Note_on_c,0,65,0
2,44160, Note_on_c,0,68,0
2,44160, Note_on_c,0,75,0
2,44190, Note_on_c,0,56,0
2,44190, Note_on_c,0,72,0
2,44220, Note_on_c,0,72,0
2,44250, Note_on_c,0,63,0
2,44250, Note_on_c,0,75,0
2,44280, Note_on_c,0,63,0
2,44280, Note_on_c,0,75,0
2,44310, Note_on_c,0,56,0
2,44310, Note_on_c,0,61,0
2,44310, Note_on_c,0,62,0
2,44310, Note_on_c,0,70,0
2,44310, Note_on_c,0,73,0
2,44340, Note_on_c,0,61,0
2,44340, Note_on_c,0,62,0
2,44340, Note_on_c,0,70,0
2,44370, Note_on_c,0,56,0
2,44370, Note_on_c,0,70,0
2,44370, Note_on_c,0,73,0
2,44400, Note_on_c,0,70,0
2,44430, Note_on_c,0,56,0
2,44430, Note_on_c,0,61,0
2,44430, Note_on_c,0,62,0
2,44430, Note_on_c,0,66,0
2,44430, Note_on_c,0,73,0
2,44460, Note_on_c,0,61,0
2,44460, Note_on_c,0,66,0
2,44490, Note_on_c,0,62,0
2,44490, Note_on_c,0,70,0
2,44490, Note_on_c,0,73,0
2,44520, Note_on_c,0,56,0
2,44520, Note_on_c,0,70,0
2,44550, Note_on_c,0,56,0
2,44550, Note_on_c,0,61,0
2,44550, Note_on_c,0,62,0
2,44550, Note_on_c,0,66,0
2,44550, Note_on_c,0,73,0
2,44580, Note_on_c,0,61,0
2,44580, Note_on_c,0,62,0
2,44580, Note_on_c,0,66,0
2,44610, Note_on_c,0,56,0
2,44610, Note_on_c,0,61,0
2,44610, Note_on_c,0,66,0
2,44610, Note_on_c,0,70,0
2,44610, Note_on_c,0,73,0
2,44640, Note_on_c,0,61,0
2,44640, Note_on_c,0,66,0
2,44640, Note_on_c,0,70,0
2,44670, Note_on_c,0,60,0
2,44670, Note_on_c,0,61,0
2,44670, Note_on_c,0,65,0
2,44670, Note_on_c,0,69,0
2,44670, Note_on_c,0,72,0
2,44700, Note_on_c,0,69,0
2,44730, Note_on_c,0,61,0
2,44760, Note_on_c,0,65,0
2,44790, Note_on_c,0,72,0
2,44820, Note_on_c,0,60,0
2,44850, Note_on_c,0,61,0
2,44880, Note_on_c,0,58,0
2,44880, Note_on_c,0,65,0
2,44880, Note_on_c,0,70,0
2,44910, Note_on_c,0,58,0
2,44940, Note_on_c,0,61,0
2,44970, Note_on_c,0,65,0
2,45000, Note_on_c,0,70,0
2,45030, Note_on_c,0,67,0
2,45060, Note_on_c,0,59,0
2,45090, Note_on_c,0,49,0
2,45090, Note_on_c,0,56,0
2,45090, Note_on_c,0,63,0
2,45120, Note_on_c,0,56,0
2,45150, Note_on_c,0,67,0
2,45180, Note_on_c,0,59,0
2,45210, Note_on_c,0,49,0
2,45240, Note_on_c,0,63,0
2,45270, Note_on_c,0,61,0
2,45300, Note_on_c,0,43,0
2,45330, Note_on_c,0,61,0
2,45360, Note_on_c,0,36,0
2,45390, Note_on_c,0,58,0
2,45420, Note_on_c,0,52,0
2,45450, Note_on_c,0,43,0
2,45480, Note_on_c,0,36,0
2,45510, Note_on_c,0,52,0
2,45540, Note_on_c,0,58,0
2,45570, Note_on_c,0,64,0
2,45600, Note_on_c,0,58,0
2,45630, Note_on_c,0,60,0
2,45660, Note_on_c,0,55,0
2,45660, Note_on_c,0,64,0
2,45690, Note_on_c,0,55,0
2,45690, Note_on_c,0,58,0
2,45690, Note_on_c,0,60,0
2,45720, Note_on_c,0,83,0
2,45750, Note_on_c,0,83,0
2,45750, Note_on_c,0,84,0
2,45780, Note_on_c,0,84,0
2,45810, Note_on_c,0,84,0
2,45840, Note_on_c,0,84,0
2,45870, Note_on_c,0,48,0
2,45870, Note_on_c,0,58,0
2,45870, Note_on_c,0,84,0
2,45900, Note_on_c,0,48,0
2,45930, Note_on_c,0,58,0
2,45930, Note_on_c,0,84,0
2,45930, Note_on_c,0,85,0
2,45960, Note_on_c,0,85,0
2,45990, Note_on_c,0,84,0
2,46020, Note_on_c,0,63,0
2,46050, Note_on_c,0,58,0
2,46050, Note_on_c,0,63,0
2,46080, Note_on_c,0,58,0
2,46110, Note_on_c,0,84,0
2,46140, Note_on_c,0,83,0
2,46170, Note_on_c,0,83,0
2,46200, Note_on_c,0,84,0
2,46230, Note_on_c,0,62,0
2,46230, Note_on_c,0,63,0
2,46230, Note_on_c,0,67,0
2,46260, Note_on_c,0,62,0
2,46260, Note_on_c,0,63,0
2,46260, Note_on_c,0,67,0
2,46290, Note_on_c,0,84,0
2,46320, Note_on_c,0,85,0
2,46350, Note_on_c,0,73,0
2,46380, Note_on_c,0,73,0
2,46380, Note_on_c,0,85,0
2,46410, Note_on_c,0,41,0
2,46440, Note_on_c,0,41,0
2,46470, Note_on_c,0,86,0
2,46500, Note_on_c,0,74,0
2,46530, Note_on_c,0,85,0
2,46560, Note_on_c,0,85,0
2,46590, Note_on_c,0,74,0
2,46620, Note_on_c,0,57,0
2,46620, Note_on_c,0,62,0
2,46620, Note_on_c,0,63,0
2,46620, Note_on_c,0,67,0
2,46620, Note_on_c,0,86,0
2,46650, Note_on_c,0,67,0
2,46680, Note_on_c,0,62,0
2,46710, Note_on_c,0,57,0
2,46710, Note_on_c,0,63,0
2,46740, Note_on_c,0,77,0
2,46740, Note_on_c,0,79,0
2,46740, Note_on_c,0,89,0
2,46770, Note_on_c,0,79,0
2,46800, Note_on_c,0,53,0
2,46800, Note_on_c,0,60,0
2,46800, Note_on_c,0,63,0
2,46800, Note_on_c,0,77,0
2,46800, Note_on_c,0,89,0
2,46830, Note_on_c,0,76,0
2,46860, Note_on_c,0,76,0
2,46890, Note_on_c,0,53,0
2,46890, Note_on_c,0,60,0
2,46890, Note_on_c,0,63,0
2,46920, Note_on_c,0,87,0
2,46950, Note_on_c,0,75,0
2,46950, Note_on_c,0,87,0
2,46980, Note_on_c,0,75,0
2,47010, Note_on_c,0,56,0
2,47010, Note_on_c,0,62,0
2,47010, Note_on_c,0,67,0
2,47010, Note_on_c,0,73,0
2,47010, Note_on_c,0,85,0
2,47040, Note_on_c,0,73,0
2,47070, Note_on_c,0,67,0
2,47070, Note_on_c,0,74,0
2,47070, Note_on_c,0,85,0
2,47070, Note_on_c,0,86,0
2,47100, Note_on_c,0,62,0
2,47100, Note_on_c,0,74,0
2,47100, Note_on_c,0,86,0
2,47130, Note_on_c,0,74,0
2,47130, Note_on_c,0,86,0
2,47160, Note_on_c,0,74,0
2,47160, Note_on_c,0,86,0
2,47190, Note_on_c,0,62,0
2,47190, Note_on_c,0,67,0
2,47190, Note_on_c,0,73,0
2,47190, Note_on_c,0,85,0
2,47220, Note_on_c,0,73,0
2,47250, Note_on_c,0,85,0
2,47280, Note_on_c,0,67,0
2,47310, Note_on_c,0,56,0
2,47310, Note_on_c,0,74,0
2,47310, Note_on_c,0,86,0
2,47340, Note_on_c,0,62,0
2,47340, Note_on_c,0,74,0
2,47340, Note_on_c,0,86,0
2,47370, Note_on_c,0,56,0
2,47370, Note_on_c,0,62,0
2,47370, Note_on_c,0,66,0
2,47370, Note_on_c,0,74,0
2,47370, Note_on_c,0,82,0
2,47400, Note_on_c,0,74,0
2,47430, Note_on_c,0,62,0
2,47460, Note_on_c,0,82,0
2,47490, Note_on_c,0,66,0
2,47490, Note_on_c,0,74,0
2,47490, Note_on_c,0,78,0
2,47520, Note_on_c,0,78,0
2,47550, Note_on_c,0,62,0
2,47550, Note_on_c,0,66,0
2,47550, Note_on_c,0,74,0
2,47580, Note_on_c,0,62,0
2,47580, Note_on_c,0,66,0
2,47610, Note_on_c,0,56,0
2,47640, Note_on_c,0,75,0
2,47670, Note_on_c,0,70,0
2,47700, Note_on_c,0,68,0
2,47730, Note_on_c,0,64,0
2,47760, Note_on_c,0,63,0
2,47790, Note_on_c,0,68,0
2,47820, Note_on_c,0,64,0
2,47850, Note_on_c,0,70,0
2,47880, Note_on_c,0,75,0
2,47910, Note_on_c,0,63,0
2,47940, Note_on_c,0,51,0
2,47940, Note_on_c,0,64,0
2,47940, Note_on_c,0,68,0
2,47940, Note_on_c,0,70,0
2,47940, Note_on_c,0,73,0
2,47970, Note_on_c,0,64,0
2,48000, Note_on_c,0,68,0
2,48030, Note_on_c,0,73,0
2,48060, Note_on_c,0,70,0
2,48090, Note_on_c,0,70,0
2,48120, Note_on_c,0,67,0
2,48150, Note_on_c,0,63,0
2,48150, Note_on_c,0,64,0
2,48180, Note_on_c,0,67,0
2,48210, Note_on_c,0,63,0
2,48240, Note_on_c,0,51,0
2,48240, Note_on_c,0,64,0
2,48270, Note_on_c,0,67,0
2,48300, Note_on_c,0,64,0
2,48330, Note_on_c,0,51,0
2,48360, Note_on_c,0,51,0
2,48360, Note_on_c,0,67,0
2,48360, Note_on_c,0,70,0
2,48390, Note_on_c,0,64,0
2,48420, Note_on_c,0,60,0
2,48450, Note_on_c,0,44,0
2,48480, Note_on_c,0,58,0
2,48510, Note_on_c,0,51,0
2,48540, Note_on_c,0,55,0
2,48570, Note_on_c,0,51,0
2,48600, Note_on_c,0,55,0
2,48630, Note_on_c,0,58,0
2,48660, Note_on_c,0,60,0
2,48690, Note_on_c,0,60,0
2,48720, Note_on_c,0,51,0
2,48720, Note_on_c,0,55,0
2,48720, Note_on_c,0,58,0
2,48720, Note_on_c,0,63,0
2,48750, Note_on_c,0,44,0
2,48750, Note_on_c,0,51,0
2,48780, Note_on_c,0,60,0
2,48810, Note_on_c,0,55,0
2,48810, Note_on_c,0,58,0
2,48840, Note_on_c,0,63,0
2,48870, Note_on_c,0,53,0
2,48900, Note_on_c,0,37,0
2,48900, Note_on_c,0,65,0
2,48930, Note_on_c,0,44,0
2,48930, Note_on_c,0,60,0
2,48960, Note_on_c,0,37,0
2,48960, Note_on_c,0,44,0
2,48960, Note_on_c,0,53,0
2,48990, Note_on_c,0,60,0
2,48990, Note_on_c,0,65,0
2,49020, Note_on_c,0,68,0
2,49050, Note_on_c,0,60,0
2,49080, Note_on_c,0,56,0
2,49080, Note_on_c,0,63,0
2,49080, Note_on_c,0,65,0
2,49110, Note_on_c,0,60,0
2,49140, Note_on_c,0,65,0
2,49170, Note_on_c,0,56,0
2,49170, Note_on_c,0,63,0
2,49170, Note_on_c,0,68,0
2,49200, Note_on_c,0,72,0
2,49230, Note_on_c,0,67,0
2,49260, Note_on_c,0,48,0
2,49260, Note_on_c,0,58,0
2,49260, Note_on_c,0,60,0
2,49290, Note_on_c,0,48,0
2,49290, Note_on_c,0,60,0
2,49320, Note_on_c,0,58,0
2,49320, Note_on_c,0,67,0
2,49350, Note_on_c,0,72,0
2,49380, Note_on_c,0,64,0
2,49410, Note_on_c,0,87,0
2,49440, Note_on_c,0,58,0
2,49440, Note_on_c,0,60,0
2,49440, Note_on_c,0,75,0
2,49470, Note_on_c,0,64,0
2,49470, Note_on_c,0,82,0
2,49500, Note_on_c,0,58,0
2,49500, Note_on_c,0,60,0
2,49530, Note_on_c,0,75,0
2,49530, Note_on_c,0,82,0
2,49530, Note_on_c,0,87,0
2,49560, Note_on_c,0,86,0
2,49590, Note_on_c,0,86,0
2,49620, Note_on_c,0,41,0
2,49650, Note_on_c,0,41,0
2,49680, Note_on_c,0,85,0
2,49710, Note_on_c,0,73,0
2,49740, Note_on_c,0,78,0
2,49770, Note_on_c,0,81,0
2,49800, Note_on_c,0,73,0
2,49800, Note_on_c,0,78,0
2,49800, Note_on_c,0,81,0
2,49800, Note_on_c,0,85,0
2,49830, Note_on_c,0,51,0
2,49830, Note_on_c,0,57,0
2,49830, Note_on_c,0,62,0
2,49830, Note_on_c,0,72,0
2,49830, Note_on_c,0,78,0
2,49830, Note_on_c,0,81,0
2,49830, Note_on_c,0,84,0
2,49860, Note_on_c,0,57,0
2,49890, Note_on_c,0,51,0
2,49920, Note_on_c,0,62,0
2,49920, Note_on_c,0,72,0
2,49920, Note_on_c,0,84,0
2,49950, Note_on_c,0,78,0
2,49950, Note_on_c,0,81,0
2,49980, Note_on_c,0,84,0
2,50010, Note_on_c,0,56,0
2,50010, Note_on_c,0,62,0
2,50010, Note_on_c,0,67,0
2,50010, Note_on_c,0,74,0
2,50010, Note_on_c,0,79,0
2,50040, Note_on_c,0,74,0
2,50070, Note_on_c,0,79,0
2,50100, Note_on_c,0,84,0
2,50130, Note_on_c,0,62,0
2,50130, Note_on_c,0,67,0
2,50160, Note_on_c,0,56,0
2,50190, Note_on_c,0,55,0
2,50190, Note_on_c,0,61,0
2,50190, Note_on_c,0,66,0
2,50190, Note_on_c,0,73,0
2,50190, Note_on_c,0,78,0
2,50190, Note_on_c,0,82,0
2,50190, Note_on_c,0,83,0
2,50220, Note_on_c,0,55,0
2,50250, Note_on_c,0,61,0
2,50250, Note_on_c,0,66,0
2,50250, Note_on_c,0,82,0
2,50250, Note_on_c,0,83,0
2,50280, Note_on_c,0,73,0
2,50280, Note_on_c,0,78,0
2,50310, Note_on_c,0,56,0
2,50310, Note_on_c,0,62,0
2,50310, Note_on_c,0,67,0
2,50310, Note_on_c,0,74,0
2,50310, Note_on_c,0,79,0
2,50310, Note_on_c,0,84,0
2,50340, Note_on_c,0,67,0
2,50340, Note_on_c,0,79,0
2,50370, Note_on_c,0,56,0
2,50370, Note_on_c,0,62,0
2,50370, Note_on_c,0,74,0
2,50370, Note_on_c,0,84,0
2,50400, Note_on_c,0,55,0
2,50400, Note_on_c,0,61,0
2,50400, Note_on_c,0,66,0
2,50400, Note_on_c,0,72,0
2,50400, Note_on_c,0,77,0
2,50400, Note_on_c,0,81,0
2,50400, Note_on_c,0,84,0
2,50430, Note_on_c,0,55,0
2,50460, Note_on_c,0,61,0
2,50460, Note_on_c,0,66,0
2,50460, Note_on_c,0,72,0
2,50460, Note_on_c,0,77,0
2,50460, Note_on_c,0,81,0
2,50460, Note_on_c,0,84,0
2,50490, Note_on_c,0,66,0
2,50520, Note_on_c,0,55,0
2,50520, Note_on_c,0,61,0
2,50520, Note_on_c,0,72,0
2,50520, Note_on_c,0,77,0
2,50520, Note_on_c,0,81,0
2,50520, Note_on_c,0,84,0
2,50550, Note_on_c,0,84,0
2,50580, Note_on_c,0,81,0
2,50610, Note_on_c,0,77,0
2,50640, Note_on_c,0,66,0
2,50670, Note_on_c,0,61,0
2,50670, Note_on_c,0,72,0
2,50700, Note_on_c,0,57,0
2,50730, Note_on_c,0,55,0
2,50730, Note_on_c,0,58,0
2,50760, Note_on_c,0,57,0
2,50760, Note_on_c,0,58,0
2,50760, Note_on_c,0,59,0
2,50790, Note_on_c,0,59,0
2,50790, Note_on_c,0,60,0
2,50790, Note_on_c,0,64,0
2,50790, Note_on_c,0,66,0
2,50790, Note_on_c,0,68,0
2,50790, Note_on_c,0,70,0
2,50790, Note_on_c,0,72,0
2,50820, Note_on_c,0,60,0
2,50850, Note_on_c,0,48,0
2,50880, Note_on_c,0,48,0
2,50910, Note_on_c,0,64,0
2,50940, Note_on_c,0,66,0
2,50970, Note_on_c,0,68,0
2,51000, Note_on_c,0,72,0
2,51030, Note_on_c,0,70,0
2,51060, Note_on_c,0,75,0
2,51090, Note_on_c,0,73,0
2,51120, Note_on_c,0,77,0
2,51150, Note_on_c,0,65,0
2,51150, Note_on_c,0,69,0
2,51150, Note_on_c,0,71,0
2,51180, Note_on_c,0,65,0
2,51180, Note_on_c,0,69,0
2,51180, Note_on_c,0,71,0
2,51180, Note_on_c,0,73,0
2,51180, Note_on_c,0,75,0
2,51180, Note_on_c,0,77,0
2,51210, Note_on_c,0,77,0
2,51240, Note_on_c,0,65,0
2,51240, Note_on_c,0,69,0
2,51240, Note_on_c,0,71,0
2,51240, Note_on_c,0,73,0
2,51240, Note_on_c,0,75,0
2,51270, Note_on_c,0,69,0
2,51300, Note_on_c,0,65,0
2,51300, Note_on_c,0,71,0
2,51300, Note_on_c,0,73,0
2,51300, Note_on_c,0,75,0
2,51300, Note_on_c,0,77,0
2,51330, Note_on_c,0,69,0
2,51330, Note_on_c,0,73,0
2,51330, Note_on_c,0,77,0
2,51360, Note_on_c,0,65,0
2,51360, Note_on_c,0,71,0
2,51360, Note_on_c,0,75,0
2,51390, Note_on_c,0,65,0
2,51390, Note_on_c,0,69,0
2,51390, Note_on_c,0,71,0
2,51390, Note_on_c,0,73,0
2,51390, Note_on_c,0,75,0
2,51390, Note_on_c,0,77,0
2,51420, Note_on_c,0,46,0
2,51450, Note_on_c,0,72,0
2,51480, Note_on_c,0,62,0
2,51510, Note_on_c,0,67,0
2,51540, Note_on_c,0,62,0
2,51540, Note_on_c,0,67,0
2,51540, Note_on_c,0,72,0
2,51570, Note_on_c,0,46,0
2,51600, Note_on_c,0,72,0
2,51630, Note_on_c,0,46,0
2,51630, Note_on_c,0,56,0
2,51630, Note_on_c,0,62,0
2,51630, Note_on_c,0,67,0
2,51660, Note_on_c,0,46,0
2,51660, Note_on_c,0,56,0
2,51660, Note_on_c,0,62,0
2,51660, Note_on_c,0,67,0
2,51660, Note_on_c,0,72,0
2,51690, Note_on_c,0,72,0
2,51720, Note_on_c,0,46,0
2,51720, Note_on_c,0,56,0
2,51720, Note_on_c,0,62,0
2,51720, Note_on_c,0,67,0
2,51750, Note_on_c,0,56,0
2,51780, Note_on_c,0,46,0
2,51810, Note_on_c,0,67,0
2,51840, Note_on_c,0,62,0
2,51870, Note_on_c,0,72,0
2,51900, Note_on_c,0,46,0
2,51900, Note_on_c,0,56,0
2,51900, Note_on_c,0,62,0
2,51900, Note_on_c,0,66,0
2,51900, Note_on_c,0,72,0
2,51930, Note_on_c,0,46,0
2,51930, Note_on_c,0,56,0
2,51930, Note_on_c,0,62,0
2,51930, Note_on_c,0,66,0
2,51930, Note_on_c,0,72,0
2,51960, Note_on_c,0,72,0
2,51990, Note_on_c,0,46,0
2,51990, Note_on_c,0,56,0
2,51990, Note_on_c,0,62,0
2,51990, Note_on_c,0,66,0
2,52020, Note_on_c,0,46,0
2,52020, Note_on_c,0,56,0
2,52020, Note_on_c,0,62,0
2,52020, Note_on_c,0,66,0
2,52020, Note_on_c,0,72,0
2,52050, Note_on_c,0,72,0
2,52080, Note_on_c,0,66,0
2,52110, Note_on_c,0,46,0
2,52110, Note_on_c,0,56,0
2,52110, Note_on_c,0,62,0
2,52140, Note_on_c,0,62,0
2,52170, Note_on_c,0,56,0
2,52200, Note_on_c,0,46,0
2,52230, Note_on_c,0,66,0
2,52230, Note_on_c,0,72,0
2,52260, Note_on_c,0,72,0
2,52290, Note_on_c,0,51,0
2,52290, Note_on_c,0,61,0
2,52290, Note_on_c,0,65,0
2,52320, Note_on_c,0,51,0
2,52320, Note_on_c,0,61,0
2,52320, Note_on_c,0,65,0
2,52320, Note_on_c,0,72,0
2,52350, Note_on_c,0,72,0
2,52380, Note_on_c,0,51,0
2,52380, Note_on_c,0,58,0
2,52380, Note_on_c,0,65,0
2,52410, Note_on_c,0,51,0
2,52410, Note_on_c,0,58,0
2,52410, Note_on_c,0,65,0
2,52410, Note_on_c,0,72,0
2,52440, Note_on_c,0,72,0
2,52470, Note_on_c,0,51,0
2,52470, Note_on_c,0,58,0
2,52470, Note_on_c,0,61,0
2,52470, Note_on_c,0,65,0
2,52500, Note_on_c,0,51,0
2,52500, Note_on_c,0,58,0
2,52530, Note_on_c,0,65,0
2,52560, Note_on_c,0,61,0
2,52590, Note_on_c,0,72,0
2,52620, Note_on_c,0,72,0
2,52650, Note_on_c,0,27,0
2,52650, Note_on_c,0,39,0
2,52650, Note_on_c,0,61,0
2,52650, Note_on_c,0,64,0
2,52680, Note_on_c,0,27,0
2,52680, Note_on_c,0,39,0
2,52680, Note_on_c,0,61,0
2,52680, Note_on_c,0,64,0
2,52710, Note_on_c,0,72,0
2,52740, Note_on_c,0,27,0
2,52740, Note_on_c,0,61,0
2,52740, Note_on_c,0,72,0
2,52770, Note_on_c,0,39,0
2,52770, Note_on_c,0,61,0
2,52800, Note_on_c,0,27,0
2,52800, Note_on_c,0,39,0
2,52800, Note_on_c,0,72,0
2,52830, Note_on_c,0,61,0
2,52860, Note_on_c,0,39,0
2,52860, Note_on_c,0,64,0
2,52860, Note_on_c,0,67,0
2,52860, Note_on_c,0,72,0
2,52890, Note_on_c,0,39,0
2,52890, Note_on_c,0,64,0
2,52890, Note_on_c,0,67,0
2,52890, Note_on_c,0,72,0
2,52920, Note_on_c,0,61,0
2,52950, Note_on_c,0,60,0
2,52980, Note_on_c,0,63,0
2,53010, Note_on_c,0,44,0
2,53040, Note_on_c,0,55,0
2,53040, Note_on_c,0,58,0
2,53070, Note_on_c,0,51,0
2,53100, Note_on_c,0,55,0
2,53100, Note_on_c,0,58,0
2,53100, Note_on_c,0,60,0
2,53100, Note_on_c,0,63,0
2,53130, Note_on_c,0,58,0
2,53160, Note_on_c,0,55,0
2,53160, Note_on_c,0,60,0
2,53160, Note_on_c,0,63,0
2,53190, Note_on_c,0,55,0
2,53190, Note_on_c,0,58,0
2,53190, Note_on_c,0,60,0
2,53220, Note_on_c,0,63,0
2,53250, Note_on_c,0,55,0
2,53250, Note_on_c,0,58,0
2,53250, Note_on_c,0,60,0
2,53250, Note_on_c,0,63,0
2,53280, Note_on_c,0,51,0
2,53280, Note_on_c,0,55,0
2,53280, Note_on_c,0,58,0
2,53280, Note_on_c,0,60,0
2,53280, Note_on_c,0,63,0
2,53310, Note_on_c,0,63,0
2,53340, Note_on_c,0,58,0
2,53370, Note_on_c,0,51,0
2,53400, Note_on_c,0,44,0
2,53400, Note_on_c,0,51,0
2,53400, Note_on_c,0,58,0
2,53400, Note_on_c,0,63,0
2,53430, Note_on_c,0,47,0
2,53430, Note_on_c,0,56,0
2,53430, Note_on_c,0,61,0
2,53430, Note_on_c,0,63,0
2,53460, Note_on_c,0,47,0
2,53490, Note_on_c,0,56,0
2,53490, Note_on_c,0,61,0
2,53490, Note_on_c,0,63,0
2,53520, Note_on_c,0,61,0
2,53550, Note_on_c,0,56,0
2,53580, Note_on_c,0,47,0
2,53610, Note_on_c,0,63,0
2,53640, Note_on_c,0,47,0
2,53670, Note_on_c,0,56,0
2,53700, Note_on_c,0,61,0
2,53730, Note_on_c,0,63,0
2,53760, Note_on_c,0,40,0
2,53790, Note_on_c,0,63,0
2,53820, Note_on_c,0,52,0
2,53820, Note_on_c,0,56,0
2,53820, Note_on_c,0,61,0
2,53850, Note_on_c,0,56,0
2,53880, Note_on_c,0,40,0
2,53880, Note_on_c,0,52,0
2,53880, Note_on_c,0,61,0
2,53880, Note_on_c,0,63,0
2,53910, Note_on_c,0,40,0
2,53940, Note_on_c,0,52,0
2,53940, Note_on_c,0,56,0
2,53940, Note_on_c,0,61,0
2,53940, Note_on_c,0,63,0
2,53970, Note_on_c,0,63,0
2,54000, Note_on_c,0,40,0
2,54000, Note_on_c,0,52,0
2,54000, Note_on_c,0,56,0
2,54000, Note_on_c,0,61,0
2,54030, Note_on_c,0,40,0
2,54060, Note_on_c,0,61,0
2,54090, Note_on_c,0,56,0
2,54120, Note_on_c,0,63,0
2,54150, Note_on_c,0,56,0
2,54150, Note_on_c,0,63,0
2,54180, Note_on_c,0,40,0
2,54180, Note_on_c,0,61,0
2,54210, Note_on_c,0,56,0
2,54210, Note_on_c,0,61,0
2,54240, Note_on_c,0,45,0
2,54240, Note_on_c,0,63,0
2,54270, Note_on_c,0,45,0
2,54270, Note_on_c,0,56,0
2,54270, Note_on_c,0,61,0
2,54270, Note_on_c,0,63,0
2,54300, Note_on_c,0,61,0
2,54330, Note_on_c,0,45,0
2,54330, Note_on_c,0,56,0
2,54330, Note_on_c,0,63,0
2,54360, Note_on_c,0,63,0
2,54390, Note_on_c,0,45,0
2,54390, Note_on_c,0,56,0
2,54390, Note_on_c,0,61,0
2,54420, Note_on_c,0,63,0
2,54450, Note_on_c,0,55,0
2,54480, Note_on_c,0,60,0
2,54510, Note_on_c,0,44,0
2,54510, Note_on_c,0,58,0
2,54540, Note_on_c,0,55,0
2,54570, Note_on_c,0,60,0
2,54600, Note_on_c,0,58,0
2,54630, Note_on_c,0,63,0
2,54660, Note_on_c,0,44,0
2,54690, Note_on_c,0,32,0
2,54720, Note_on_c,0,32,0
2,54750, Note_on_c,0,75,0
2,54780, Note_on_c,0,72,0
2,54810, Note_on_c,0,82,0
2,54840, Note_on_c,0,87,0
2,54870, Note_on_c,0,79,0
2,54900, Note_on_c,0,84,0
2,54930, Note_on_c,0,79,0
2,54960, Note_on_c,0,82,0
2,54990, Note_on_c,0,84,0
2,55020, Note_on_c,0,72,0
2,55050, Note_on_c,0,75,0
2,55080, Note_on_c,0,87,0
2,56580, End_track
0,0, End_of_file
