0, 0, Header, 1, 3, 960
1, 0, Start_track
1, 0, Title_t, "A Fine Romance Take 2"
1, 0, Text_t, "dougmck@pipeline.com.au - compare with the first take - different voicings used, but basically the same ideas\012"
1, 0, Time_signature, 4, 2, 24, 8
1, 0, Key_signature, -2, "major"
1, 0, Tempo, 500000
1, 257888, Marker_t, "On this Db/F chord minor 3rds descend chromatically"
1, 257888, End_track
2, 0, Start_track
2, 0, Title_t, "Piano"
2, 32, Note_on_c, 0, 70, 59
2, 56, Note_on_c, 0, 65, 34
2, 64, Note_on_c, 0, 62, 28
2, 80, Note_on_c, 0, 60, 36
2, 512, Control_c, 0, 64, 127
2, 568, Note_on_c, 0, 65, 0
2, 1384, Note_on_c, 0, 62, 0
2, 1400, Note_on_c, 0, 60, 0
2, 1816, Note_on_c, 0, 62, 26
2, 1824, Note_on_c, 0, 65, 30
2, 1848, Note_on_c, 0, 60, 24
2, 2208, Note_on_c, 0, 62, 0
2, 2264, Note_on_c, 0, 60, 0
2, 2816, Note_on_c, 0, 53, 40
2, 2840, Note_on_c, 0, 65, 0
2, 2936, Note_on_c, 0, 70, 0
2, 3000, Note_on_c, 0, 53, 0
2, 3664, Note_on_c, 0, 68, 35
2, 3744, Note_on_c, 0, 71, 70
2, 3792, Note_on_c, 0, 74, 53
2, 3816, Note_on_c, 0, 67, 49
2, 3864, Note_on_c, 0, 79, 68
2, 3872, Control_c, 0, 64, 0
2, 4128, Control_c, 0, 64, 127
2, 4256, Note_on_c, 0, 67, 0
2, 4776, Note_on_c, 0, 53, 29
2, 5016, Note_on_c, 0, 53, 0
2, 5192, Note_on_c, 0, 79, 0
2, 5336, Note_on_c, 0, 74, 0
2, 5344, Note_on_c, 0, 71, 0
2, 5424, Note_on_c, 0, 68, 0
2, 5736, Note_on_c, 0, 77, 36
2, 5752, Note_on_c, 0, 68, 27
2, 5752, Note_on_c, 0, 71, 37
2, 5768, Note_on_c, 0, 74, 32
2, 5792, Note_on_c, 0, 67, 22
2, 5944, Note_on_c, 0, 67, 0
2, 6136, Note_on_c, 0, 77, 0
2, 6304, Note_on_c, 0, 68, 0
2, 6424, Note_on_c, 0, 74, 0
2, 6488, Note_on_c, 0, 71, 0
2, 6720, Note_on_c, 0, 53, 22
2, 7312, Note_on_c, 0, 79, 65
2, 7424, Note_on_c, 0, 79, 0
2, 7720, Control_c, 0, 64, 0
2, 7736, Note_on_c, 0, 63, 25
2, 7744, Note_on_c, 0, 69, 36
2, 7760, Note_on_c, 0, 57, 28
2, 7976, Control_c, 0, 64, 127
2, 8112, Note_on_c, 0, 69, 0
2, 8120, Note_on_c, 0, 53, 0
2, 8640, Note_on_c, 0, 74, 82
2, 8648, Note_on_c, 0, 81, 77
2, 8664, Note_on_c, 0, 53, 34
2, 8680, Note_on_c, 0, 57, 0
2, 8792, Note_on_c, 0, 81, 0
2, 8816, Note_on_c, 0, 74, 0
2, 8880, Note_on_c, 0, 69, 54
2, 8896, Note_on_c, 0, 78, 37
2, 8928, Note_on_c, 0, 69, 0
2, 8992, Note_on_c, 0, 78, 0
2, 9008, Note_on_c, 0, 63, 0
2, 9200, Note_on_c, 0, 93, 79
2, 9208, Note_on_c, 0, 86, 72
2, 9400, Note_on_c, 0, 86, 0
2, 9464, Note_on_c, 0, 93, 0
2, 9464, Note_on_c, 0, 90, 52
2, 9472, Note_on_c, 0, 81, 51
2, 9552, Note_on_c, 0, 81, 0
2, 9552, Note_on_c, 0, 90, 0
2, 9696, Note_on_c, 0, 63, 36
2, 9800, Note_on_c, 0, 57, 24
2, 10024, Note_on_c, 0, 53, 0
2, 10640, Note_on_c, 0, 57, 0
2, 10688, Note_on_c, 0, 53, 34
2, 10696, Note_on_c, 0, 63, 0
2, 11448, Note_on_c, 0, 58, 37
2, 11544, Note_on_c, 0, 61, 28
2, 11568, Note_on_c, 0, 70, 48
2, 11624, Note_on_c, 0, 64, 37
2, 11648, Note_on_c, 0, 73, 31
2, 11648, Note_on_c, 0, 76, 50
2, 11672, Control_c, 0, 64, 0
2, 11712, Note_on_c, 0, 81, 51
2, 11944, Control_c, 0, 64, 127
2, 12072, Note_on_c, 0, 53, 0
2, 12512, Note_on_c, 0, 53, 24
2, 12560, Note_on_c, 0, 81, 0
2, 12648, Note_on_c, 0, 70, 0
2, 12728, Note_on_c, 0, 64, 0
2, 12776, Note_on_c, 0, 76, 0
2, 12832, Note_on_c, 0, 58, 0
2, 12960, Note_on_c, 0, 61, 0
2, 12992, Note_on_c, 0, 73, 0
2, 13392, Control_c, 0, 64, 0
2, 13400, Note_on_c, 0, 58, 28
2, 13416, Note_on_c, 0, 64, 26
2, 13424, Note_on_c, 0, 61, 19
2, 13432, Note_on_c, 0, 73, 35
2, 13432, Note_on_c, 0, 67, 30
2, 13440, Note_on_c, 0, 79, 33
2, 13448, Note_on_c, 0, 76, 30
2, 13496, Note_on_c, 0, 67, 0
2, 13512, Note_on_c, 0, 64, 0
2, 13520, Note_on_c, 0, 76, 0
2, 13520, Note_on_c, 0, 73, 0
2, 13520, Note_on_c, 0, 79, 0
2, 13536, Note_on_c, 0, 61, 0
2, 13584, Note_on_c, 0, 58, 0
2, 14000, Control_c, 0, 64, 127
2, 14056, Note_on_c, 0, 79, 45
2, 14064, Note_on_c, 0, 67, 32
2, 14064, Note_on_c, 0, 73, 33
2, 14144, Note_on_c, 0, 67, 0
2, 14176, Note_on_c, 0, 73, 0
2, 14176, Note_on_c, 0, 79, 0
2, 14344, Control_c, 0, 64, 0
2, 14352, Note_on_c, 0, 73, 51
2, 14360, Note_on_c, 0, 61, 42
2, 14360, Note_on_c, 0, 58, 34
2, 14360, Note_on_c, 0, 69, 58
2, 14368, Note_on_c, 0, 76, 37
2, 14376, Note_on_c, 0, 64, 32
2, 14384, Note_on_c, 0, 81, 41
2, 14408, Note_on_c, 0, 79, 31
2, 14424, Note_on_c, 0, 69, 0
2, 14448, Note_on_c, 0, 76, 0
2, 14456, Note_on_c, 0, 79, 0
2, 14456, Note_on_c, 0, 73, 0
2, 14472, Note_on_c, 0, 81, 0
2, 14552, Note_on_c, 0, 53, 0
2, 14832, Control_c, 0, 64, 127
2, 15000, Note_on_c, 0, 53, 34
2, 15072, Note_on_c, 0, 64, 0
2, 15296, Note_on_c, 0, 61, 0
2, 15304, Note_on_c, 0, 58, 0
2, 15312, Note_on_c, 0, 65, 55
2, 15312, Note_on_c, 0, 69, 55
2, 15320, Note_on_c, 0, 74, 58
2, 15344, Control_c, 0, 64, 0
2, 15360, Note_on_c, 0, 62, 33
2, 15688, Control_c, 0, 64, 127
2, 16000, Note_on_c, 0, 53, 0
2, 16072, Note_on_c, 0, 69, 0
2, 16080, Note_on_c, 0, 65, 0
2, 16344, Control_c, 0, 64, 0
2, 16352, Note_on_c, 0, 53, 40
2, 16384, Note_on_c, 0, 65, 24
2, 16384, Note_on_c, 0, 69, 31
2, 16456, Note_on_c, 0, 53, 0
2, 16456, Note_on_c, 0, 62, 0
2, 16472, Control_c, 0, 64, 127
2, 17040, Note_on_c, 0, 53, 38
2, 17096, Note_on_c, 0, 53, 0
2, 17448, Note_on_c, 0, 41, 55
2, 17456, Control_c, 0, 64, 0
2, 17520, Note_on_c, 0, 41, 0
2, 17976, Control_c, 0, 64, 127
2, 18056, Note_on_c, 0, 29, 42
2, 18192, Control_c, 0, 64, 0
2, 18272, Note_on_c, 0, 65, 0
2, 18296, Control_c, 0, 64, 127
2, 18384, Note_on_c, 0, 29, 0
2, 18504, Note_on_c, 0, 69, 0
2, 19048, Note_on_c, 0, 65, 24
2, 19112, Note_on_c, 0, 65, 0
2, 19144, Note_on_c, 0, 74, 0
2, 19328, Note_on_c, 0, 62, 34
2, 19328, Note_on_c, 0, 58, 33
2, 19328, Note_on_c, 0, 65, 44
2, 19336, Control_c, 0, 64, 0
2, 19336, Note_on_c, 0, 69, 56
2, 19352, Note_on_c, 0, 72, 47
2, 19352, Note_on_c, 0, 60, 34
2, 19544, Control_c, 0, 64, 127
2, 19960, Note_on_c, 0, 65, 0
2, 20000, Note_on_c, 0, 62, 0
2, 20016, Note_on_c, 0, 69, 0
2, 20032, Note_on_c, 0, 60, 0
2, 20088, Note_on_c, 0, 58, 0
2, 20272, Note_on_c, 0, 70, 44
2, 20288, Note_on_c, 0, 65, 27
2, 20608, Control_c, 0, 64, 0
2, 20904, Control_c, 0, 64, 127
2, 21784, Note_on_c, 0, 41, 44
2, 21952, Control_c, 0, 64, 0
2, 22032, Note_on_c, 0, 41, 0
2, 22032, Control_c, 0, 64, 127
2, 22104, Note_on_c, 0, 29, 34
2, 22160, Note_on_c, 0, 29, 0
2, 22464, Note_on_c, 0, 65, 0
2, 22520, Note_on_c, 0, 70, 0
2, 22528, Note_on_c, 0, 72, 0
2, 23000, Note_on_c, 0, 75, 48
2, 23008, Note_on_c, 0, 77, 64
2, 23016, Note_on_c, 0, 70, 61
2, 23032, Note_on_c, 0, 67, 49
2, 23040, Note_on_c, 0, 63, 42
2, 23080, Control_c, 0, 64, 0
2, 23296, Control_c, 0, 64, 127
2, 23848, Note_on_c, 0, 63, 0
2, 23984, Note_on_c, 0, 53, 33
2, 24512, Note_on_c, 0, 67, 0
2, 24560, Note_on_c, 0, 70, 0
2, 24920, Note_on_c, 0, 70, 30
2, 24928, Note_on_c, 0, 63, 31
2, 24928, Note_on_c, 0, 67, 24
2, 25168, Note_on_c, 0, 53, 0
2, 25648, Note_on_c, 0, 63, 0
2, 25880, Note_on_c, 0, 67, 0
2, 25928, Note_on_c, 0, 70, 0
2, 25992, Note_on_c, 0, 53, 36
2, 26024, Note_on_c, 0, 77, 0
2, 26024, Note_on_c, 0, 75, 0
2, 26736, Note_on_c, 0, 63, 31
2, 26808, Note_on_c, 0, 74, 56
2, 26888, Note_on_c, 0, 78, 64
2, 26920, Note_on_c, 0, 67, 31
2, 26936, Note_on_c, 0, 81, 60
2, 26944, Control_c, 0, 64, 0
2, 27040, Note_on_c, 0, 86, 67
2, 27176, Control_c, 0, 64, 127
2, 27616, Note_on_c, 0, 63, 0
2, 27624, Note_on_c, 0, 67, 0
2, 27704, Note_on_c, 0, 53, 0
2, 27888, Note_on_c, 0, 53, 28
2, 28240, Note_on_c, 0, 86, 0
2, 28296, Note_on_c, 0, 74, 0
2, 28512, Note_on_c, 0, 81, 0
2, 28544, Note_on_c, 0, 78, 0
2, 28808, Note_on_c, 0, 84, 53
2, 28808, Note_on_c, 0, 63, 25
2, 28840, Note_on_c, 0, 67, 32
2, 28848, Control_c, 0, 64, 0
2, 28848, Note_on_c, 0, 72, 30
2, 29088, Control_c, 0, 64, 127
2, 29280, Note_on_c, 0, 67, 0
2, 29320, Note_on_c, 0, 63, 0
2, 29320, Note_on_c, 0, 84, 0
2, 29448, Note_on_c, 0, 53, 0
2, 29472, Note_on_c, 0, 72, 0
2, 29792, Note_on_c, 0, 53, 31
2, 29928, Note_on_c, 0, 53, 0
2, 30376, Note_on_c, 0, 65, 46
2, 30536, Note_on_c, 0, 65, 0
2, 30680, Note_on_c, 0, 70, 60
2, 30720, Note_on_c, 0, 62, 20
2, 30728, Note_on_c, 0, 60, 22
2, 30768, Control_c, 0, 64, 0
2, 30824, Note_on_c, 0, 65, 1
2, 30992, Note_on_c, 0, 65, 0
2, 31296, Note_on_c, 0, 70, 0
2, 31336, Note_on_c, 0, 69, 54
2, 31416, Control_c, 0, 64, 127
2, 31504, Note_on_c, 0, 69, 0
2, 31640, Control_c, 0, 64, 0
2, 31664, Note_on_c, 0, 53, 34
2, 31688, Note_on_c, 0, 70, 44
2, 31728, Note_on_c, 0, 60, 0
2, 31744, Note_on_c, 0, 53, 0
2, 31784, Note_on_c, 0, 62, 0
2, 31848, Note_on_c, 0, 70, 0
2, 32288, Note_on_c, 0, 69, 49
2, 32400, Control_c, 0, 64, 127
2, 32432, Note_on_c, 0, 69, 0
2, 32536, Control_c, 0, 64, 0
2, 32632, Note_on_c, 0, 65, 26
2, 32640, Note_on_c, 0, 70, 39
2, 32648, Note_on_c, 0, 62, 28
2, 32680, Note_on_c, 0, 60, 29
2, 32848, Note_on_c, 0, 65, 0
2, 33040, Note_on_c, 0, 70, 0
2, 33296, Note_on_c, 0, 72, 52
2, 33344, Control_c, 0, 64, 127
2, 33440, Note_on_c, 0, 72, 0
2, 33512, Control_c, 0, 64, 0
2, 33608, Note_on_c, 0, 53, 35
2, 33656, Note_on_c, 0, 62, 0
2, 33664, Note_on_c, 0, 60, 0
2, 33760, Control_c, 0, 64, 127
2, 33792, Note_on_c, 0, 53, 0
2, 34560, Control_c, 0, 64, 0
2, 34576, Note_on_c, 0, 58, 47
2, 34576, Note_on_c, 0, 70, 63
2, 34584, Note_on_c, 0, 63, 53
2, 34584, Note_on_c, 0, 65, 48
2, 34592, Note_on_c, 0, 60, 53
2, 34784, Control_c, 0, 64, 127
2, 35072, Note_on_c, 0, 70, 0
2, 35088, Note_on_c, 0, 60, 0
2, 35128, Note_on_c, 0, 65, 0
2, 35136, Note_on_c, 0, 58, 0
2, 35176, Note_on_c, 0, 63, 0
2, 35232, Note_on_c, 0, 69, 48
2, 35240, Note_on_c, 0, 57, 36
2, 35248, Note_on_c, 0, 60, 30
2, 35248, Note_on_c, 0, 62, 44
2, 35264, Note_on_c, 0, 65, 28
2, 35312, Note_on_c, 0, 69, 0
2, 35328, Note_on_c, 0, 60, 0
2, 35368, Note_on_c, 0, 62, 0
2, 35424, Note_on_c, 0, 65, 0
2, 35464, Control_c, 0, 64, 0
2, 35504, Note_on_c, 0, 57, 0
2, 35592, Note_on_c, 0, 68, 40
2, 35608, Note_on_c, 0, 62, 35
2, 35632, Note_on_c, 0, 56, 25
2, 35680, Note_on_c, 0, 56, 0
2, 35720, Note_on_c, 0, 68, 0
2, 35776, Note_on_c, 0, 62, 0
2, 36008, Control_c, 0, 64, 127
2, 36208, Note_on_c, 0, 44, 31
2, 36376, Control_c, 0, 64, 0
2, 36416, Note_on_c, 0, 44, 0
2, 36504, Note_on_c, 0, 59, 34
2, 36504, Note_on_c, 0, 67, 27
2, 36520, Note_on_c, 0, 62, 30
2, 36520, Note_on_c, 0, 64, 26
2, 36528, Note_on_c, 0, 53, 29
2, 36552, Note_on_c, 0, 43, 24
2, 36584, Control_c, 0, 64, 127
2, 36856, Note_on_c, 0, 65, 8
2, 36912, Note_on_c, 0, 64, 0
2, 36968, Note_on_c, 0, 62, 0
2, 36992, Note_on_c, 0, 67, 0
2, 37048, Note_on_c, 0, 53, 0
2, 37048, Note_on_c, 0, 59, 0
2, 37104, Note_on_c, 0, 65, 0
2, 37440, Control_c, 0, 64, 0
2, 37456, Note_on_c, 0, 63, 35
2, 37456, Note_on_c, 0, 66, 37
2, 37472, Note_on_c, 0, 57, 33
2, 37472, Note_on_c, 0, 53, 37
2, 37488, Note_on_c, 0, 60, 48
2, 37576, Note_on_c, 0, 53, 0
2, 37624, Control_c, 0, 64, 127
2, 37640, Note_on_c, 0, 43, 0
2, 37984, Note_on_c, 0, 60, 0
2, 37992, Note_on_c, 0, 66, 0
2, 38040, Note_on_c, 0, 57, 0
2, 38040, Note_on_c, 0, 63, 0
2, 38136, Note_on_c, 0, 47, 27
2, 38328, Note_on_c, 0, 47, 0
2, 38400, Control_c, 0, 64, 0
2, 38424, Note_on_c, 0, 63, 30
2, 38440, Note_on_c, 0, 58, 36
2, 38440, Note_on_c, 0, 65, 43
2, 38464, Note_on_c, 0, 55, 36
2, 38640, Control_c, 0, 64, 127
2, 39048, Note_on_c, 0, 24, 53
2, 39104, Control_c, 0, 64, 0
2, 39200, Control_c, 0, 64, 127
2, 39616, Note_on_c, 0, 24, 0
2, 39624, Note_on_c, 0, 55, 0
2, 39728, Note_on_c, 0, 58, 0
2, 39848, Note_on_c, 0, 65, 0
2, 39872, Note_on_c, 0, 63, 0
2, 41368, Note_on_c, 0, 80, 70
2, 41376, Note_on_c, 0, 75, 70
2, 41376, Note_on_c, 0, 68, 73
2, 41376, Note_on_c, 0, 72, 71
2, 41400, Note_on_c, 0, 64, 75
2, 41408, Note_on_c, 0, 58, 68
2, 41408, Control_c, 0, 64, 0
2, 41664, Control_c, 0, 64, 127
2, 41840, Note_on_c, 0, 72, 0
2, 41936, Note_on_c, 0, 80, 0
2, 41944, Note_on_c, 0, 68, 0
2, 41968, Note_on_c, 0, 75, 0
2, 41992, Note_on_c, 0, 64, 0
2, 42112, Note_on_c, 0, 58, 0
2, 42320, Note_on_c, 0, 57, 53
2, 42328, Note_on_c, 0, 63, 36
2, 42328, Note_on_c, 0, 77, 61
2, 42328, Note_on_c, 0, 69, 44
2, 42344, Note_on_c, 0, 74, 43
2, 42352, Control_c, 0, 64, 0
2, 42608, Control_c, 0, 64, 127
2, 42784, Note_on_c, 0, 74, 0
2, 42784, Note_on_c, 0, 63, 0
2, 42808, Note_on_c, 0, 77, 0
2, 42864, Note_on_c, 0, 69, 0
2, 43264, Note_on_c, 0, 53, 49
2, 43328, Note_on_c, 0, 57, 0
2, 43456, Note_on_c, 0, 53, 0
2, 44192, Note_on_c, 0, 51, 35
2, 44192, Note_on_c, 0, 61, 39
2, 44192, Note_on_c, 0, 68, 37
2, 44208, Note_on_c, 0, 57, 24
2, 44208, Note_on_c, 0, 65, 44
2, 44216, Control_c, 0, 64, 0
2, 44224, Note_on_c, 0, 47, 30
2, 44456, Control_c, 0, 64, 127
2, 44608, Note_on_c, 0, 57, 0
2, 44648, Note_on_c, 0, 65, 0
2, 44688, Note_on_c, 0, 61, 0
2, 44696, Note_on_c, 0, 68, 0
2, 44696, Note_on_c, 0, 47, 0
2, 44704, Note_on_c, 0, 51, 0
2, 45168, Note_on_c, 0, 60, 55
2, 45184, Note_on_c, 0, 54, 40
2, 45192, Note_on_c, 0, 50, 44
2, 45200, Control_c, 0, 64, 0
2, 45456, Control_c, 0, 64, 127
2, 45736, Note_on_c, 0, 50, 0
2, 45792, Note_on_c, 0, 60, 0
2, 45800, Note_on_c, 0, 54, 0
2, 46136, Note_on_c, 0, 43, 43
2, 46144, Note_on_c, 0, 58, 36
2, 46160, Note_on_c, 0, 53, 30
2, 46184, Control_c, 0, 64, 0
2, 46376, Control_c, 0, 64, 127
2, 46400, Note_on_c, 0, 43, 0
2, 46488, Note_on_c, 0, 53, 0
2, 46648, Note_on_c, 0, 58, 0
2, 47016, Note_on_c, 0, 43, 36
2, 47080, Note_on_c, 0, 55, 24
2, 47104, Note_on_c, 0, 43, 0
2, 47216, Note_on_c, 0, 55, 0
2, 48016, Note_on_c, 0, 62, 39
2, 48032, Note_on_c, 0, 67, 53
2, 48048, Control_c, 0, 64, 0
2, 48048, Note_on_c, 0, 58, 30
2, 48064, Note_on_c, 0, 54, 26
2, 48264, Note_on_c, 0, 67, 0
2, 48304, Note_on_c, 0, 66, 33
2, 48456, Note_on_c, 0, 66, 0
2, 48552, Note_on_c, 0, 67, 42
2, 48584, Note_on_c, 0, 62, 0
2, 48712, Control_c, 0, 64, 127
2, 48784, Note_on_c, 0, 67, 0
2, 48808, Note_on_c, 0, 66, 45
2, 48928, Note_on_c, 0, 66, 0
2, 48992, Control_c, 0, 64, 0
2, 49016, Note_on_c, 0, 62, 31
2, 49032, Note_on_c, 0, 67, 42
2, 49184, Control_c, 0, 64, 127
2, 49280, Note_on_c, 0, 67, 0
2, 49352, Note_on_c, 0, 68, 56
2, 49656, Note_on_c, 0, 62, 0
2, 49712, Note_on_c, 0, 54, 0
2, 49760, Note_on_c, 0, 58, 0
2, 49872, Note_on_c, 0, 68, 0
2, 49936, Note_on_c, 0, 53, 35
2, 49944, Note_on_c, 0, 67, 50
2, 49944, Control_c, 0, 64, 0
2, 49952, Note_on_c, 0, 62, 27
2, 49952, Note_on_c, 0, 58, 28
2, 50200, Control_c, 0, 64, 127
2, 50480, Note_on_c, 0, 67, 0
2, 50584, Note_on_c, 0, 62, 0
2, 50624, Note_on_c, 0, 66, 50
2, 50704, Note_on_c, 0, 58, 0
2, 50816, Note_on_c, 0, 53, 0
2, 50832, Note_on_c, 0, 66, 0
2, 50896, Control_c, 0, 64, 0
2, 50928, Note_on_c, 0, 53, 16
2, 50944, Note_on_c, 0, 65, 48
2, 50944, Note_on_c, 0, 62, 30
2, 50952, Note_on_c, 0, 58, 34
2, 51008, Note_on_c, 0, 62, 0
2, 51008, Control_c, 0, 64, 127
2, 51088, Note_on_c, 0, 58, 0
2, 51104, Note_on_c, 0, 53, 0
2, 51328, Note_on_c, 0, 65, 0
2, 51840, Control_c, 0, 64, 0
2, 51848, Note_on_c, 0, 64, 34
2, 51856, Note_on_c, 0, 56, 29
2, 51880, Note_on_c, 0, 59, 38
2, 51880, Note_on_c, 0, 53, 36
2, 51888, Note_on_c, 0, 50, 34
2, 51896, Note_on_c, 0, 43, 25
2, 52072, Note_on_c, 0, 50, 0
2, 52080, Control_c, 0, 64, 127
2, 52312, Note_on_c, 0, 64, 0
2, 52408, Note_on_c, 0, 53, 0
2, 52464, Note_on_c, 0, 59, 0
2, 52480, Note_on_c, 0, 56, 0
2, 52592, Note_on_c, 0, 43, 0
2, 52800, Control_c, 0, 64, 0
2, 52840, Note_on_c, 0, 63, 33
2, 52856, Note_on_c, 0, 59, 37
2, 52856, Note_on_c, 0, 47, 34
2, 52856, Note_on_c, 0, 53, 27
2, 52864, Note_on_c, 0, 56, 34
2, 52912, Note_on_c, 0, 47, 0
2, 52960, Control_c, 0, 64, 127
2, 53176, Note_on_c, 0, 59, 0
2, 53192, Note_on_c, 0, 63, 0
2, 53200, Note_on_c, 0, 53, 0
2, 53272, Note_on_c, 0, 56, 0
2, 53720, Control_c, 0, 64, 0
2, 53776, Note_on_c, 0, 62, 31
2, 53792, Note_on_c, 0, 54, 34
2, 53800, Note_on_c, 0, 24, 37
2, 53808, Note_on_c, 0, 57, 33
2, 53808, Note_on_c, 0, 50, 30
2, 53808, Note_on_c, 0, 36, 26
2, 53944, Note_on_c, 0, 50, 0
2, 53960, Control_c, 0, 64, 127
2, 53968, Note_on_c, 0, 24, 0
2, 53976, Note_on_c, 0, 57, 0
2, 54048, Note_on_c, 0, 54, 0
2, 54056, Note_on_c, 0, 36, 0
2, 54128, Note_on_c, 0, 62, 0
2, 54736, Note_on_c, 0, 74, 78
2, 54752, Note_on_c, 0, 69, 74
2, 54752, Note_on_c, 0, 66, 71
2, 54760, Note_on_c, 0, 62, 71
2, 54776, Note_on_c, 0, 58, 75
2, 54824, Control_c, 0, 64, 0
2, 54976, Control_c, 0, 64, 127
2, 55328, Note_on_c, 0, 62, 0
2, 55488, Note_on_c, 0, 66, 0
2, 55600, Note_on_c, 0, 69, 0
2, 55640, Note_on_c, 0, 74, 0
2, 55760, Note_on_c, 0, 64, 40
2, 55800, Note_on_c, 0, 74, 15
2, 56232, Note_on_c, 0, 64, 0
2, 56416, Note_on_c, 0, 58, 0
2, 56696, Note_on_c, 0, 64, 34
2, 56696, Note_on_c, 0, 67, 35
2, 56704, Note_on_c, 0, 58, 34
2, 56840, Note_on_c, 0, 64, 0
2, 57312, Note_on_c, 0, 67, 0
2, 57392, Note_on_c, 0, 74, 0
2, 57464, Note_on_c, 0, 58, 0
2, 57576, Note_on_c, 0, 63, 38
2, 57576, Note_on_c, 0, 57, 39
2, 57584, Note_on_c, 0, 62, 36
2, 57600, Control_c, 0, 64, 0
2, 57600, Note_on_c, 0, 67, 36
2, 57608, Note_on_c, 0, 71, 38
2, 57840, Note_on_c, 0, 62, 0
2, 57904, Control_c, 0, 64, 127
2, 57920, Note_on_c, 0, 57, 0
2, 58592, Note_on_c, 0, 41, 43
2, 58664, Note_on_c, 0, 41, 0
2, 58848, Note_on_c, 0, 63, 0
2, 58952, Note_on_c, 0, 72, 1
2, 59008, Note_on_c, 0, 74, 2
2, 59056, Note_on_c, 0, 67, 0
2, 59072, Note_on_c, 0, 71, 0
2, 59520, Note_on_c, 0, 66, 36
2, 59528, Note_on_c, 0, 62, 37
2, 59536, Control_c, 0, 64, 0
2, 59544, Note_on_c, 0, 57, 28
2, 59560, Note_on_c, 0, 51, 32
2, 59800, Control_c, 0, 64, 127
2, 60000, Note_on_c, 0, 57, 0
2, 60160, Note_on_c, 0, 62, 0
2, 60240, Note_on_c, 0, 66, 0
2, 60472, Note_on_c, 0, 57, 45
2, 60504, Note_on_c, 0, 51, 0
2, 60608, Note_on_c, 0, 57, 0
2, 60928, Note_on_c, 0, 74, 0
2, 61000, Note_on_c, 0, 72, 0
2, 61400, Note_on_c, 0, 70, 67
2, 61408, Note_on_c, 0, 65, 29
2, 61424, Note_on_c, 0, 62, 28
2, 61440, Note_on_c, 0, 60, 28
2, 61472, Note_on_c, 0, 70, 0
2, 61472, Control_c, 0, 64, 0
2, 61632, Note_on_c, 0, 65, 0
2, 61648, Note_on_c, 0, 70, 50
2, 61744, Note_on_c, 0, 70, 0
2, 61952, Note_on_c, 0, 69, 39
2, 62008, Note_on_c, 0, 69, 0
2, 62064, Control_c, 0, 64, 127
2, 62176, Control_c, 0, 64, 0
2, 62184, Note_on_c, 0, 70, 57
2, 62248, Note_on_c, 0, 70, 0
2, 62280, Note_on_c, 0, 53, 25
2, 62432, Note_on_c, 0, 70, 62
2, 62568, Note_on_c, 0, 70, 0
2, 62624, Control_c, 0, 64, 127
2, 62640, Note_on_c, 0, 60, 0
2, 62664, Note_on_c, 0, 62, 0
2, 62984, Control_c, 0, 64, 0
2, 63152, Note_on_c, 0, 65, 28
2, 63160, Note_on_c, 0, 60, 28
2, 63168, Note_on_c, 0, 62, 26
2, 63368, Note_on_c, 0, 62, 0
2, 63416, Note_on_c, 0, 60, 0
2, 63432, Note_on_c, 0, 65, 0
2, 63488, Control_c, 0, 64, 127
2, 64008, Control_c, 0, 64, 0
2, 64120, Note_on_c, 0, 60, 39
2, 64128, Note_on_c, 0, 62, 45
2, 64128, Note_on_c, 0, 65, 45
2, 64280, Control_c, 0, 64, 127
2, 64512, Note_on_c, 0, 65, 0
2, 64544, Note_on_c, 0, 53, 0
2, 64608, Note_on_c, 0, 60, 0
2, 64680, Note_on_c, 0, 53, 35
2, 64744, Note_on_c, 0, 62, 0
2, 65104, Note_on_c, 0, 79, 77
2, 65112, Control_c, 0, 64, 0
2, 65144, Note_on_c, 0, 56, 34
2, 65152, Note_on_c, 0, 62, 63
2, 65160, Note_on_c, 0, 68, 72
2, 65168, Note_on_c, 0, 59, 35
2, 65200, Note_on_c, 0, 77, 35
2, 65392, Note_on_c, 0, 68, 0
2, 65408, Note_on_c, 0, 79, 0
2, 65456, Note_on_c, 0, 77, 0
2, 65504, Control_c, 0, 64, 127
2, 65528, Note_on_c, 0, 79, 58
2, 65552, Note_on_c, 0, 68, 73
2, 65576, Note_on_c, 0, 53, 0
2, 65688, Note_on_c, 0, 79, 0
2, 65704, Note_on_c, 0, 68, 0
2, 65872, Note_on_c, 0, 77, 62
2, 65888, Control_c, 0, 64, 0
2, 65888, Note_on_c, 0, 53, 34
2, 65920, Note_on_c, 0, 77, 0
2, 66168, Note_on_c, 0, 77, 58
2, 66176, Note_on_c, 0, 65, 45
2, 66232, Note_on_c, 0, 59, 0
2, 66256, Note_on_c, 0, 65, 0
2, 66264, Note_on_c, 0, 62, 0
2, 66272, Note_on_c, 0, 77, 0
2, 66464, Note_on_c, 0, 77, 58
2, 66488, Control_c, 0, 64, 127
2, 66600, Note_on_c, 0, 77, 0
2, 66928, Control_c, 0, 64, 0
2, 66984, Note_on_c, 0, 62, 30
2, 67000, Note_on_c, 0, 59, 33
2, 67208, Control_c, 0, 64, 127
2, 67784, Note_on_c, 0, 53, 0
2, 68216, Note_on_c, 0, 53, 14
2, 68344, Note_on_c, 0, 59, 0
2, 68424, Note_on_c, 0, 62, 0
2, 68552, Note_on_c, 0, 56, 0
2, 68824, Note_on_c, 0, 74, 54
2, 69128, Control_c, 0, 64, 0
2, 69176, Note_on_c, 0, 63, 25
2, 69200, Note_on_c, 0, 60, 30
2, 69240, Note_on_c, 0, 57, 25
2, 69400, Control_c, 0, 64, 127
2, 69720, Note_on_c, 0, 53, 0
2, 69824, Note_on_c, 0, 69, 50
2, 69936, Note_on_c, 0, 74, 0
2, 70096, Control_c, 0, 64, 0
2, 70168, Control_c, 0, 64, 127
2, 70168, Note_on_c, 0, 53, 45
2, 70328, Note_on_c, 0, 63, 0
2, 70336, Note_on_c, 0, 57, 0
2, 70344, Note_on_c, 0, 69, 0
2, 70416, Note_on_c, 0, 60, 0
2, 71032, Control_c, 0, 64, 0
2, 71112, Note_on_c, 0, 63, 30
2, 71152, Note_on_c, 0, 60, 30
2, 71184, Note_on_c, 0, 57, 28
2, 71200, Control_c, 0, 64, 127
2, 71528, Note_on_c, 0, 63, 0
2, 71536, Note_on_c, 0, 53, 0
2, 71872, Note_on_c, 0, 57, 0
2, 72112, Note_on_c, 0, 53, 36
2, 72184, Note_on_c, 0, 60, 0
2, 72752, Note_on_c, 0, 58, 59
2, 72824, Note_on_c, 0, 61, 46
2, 72888, Note_on_c, 0, 79, 54
2, 72896, Note_on_c, 0, 81, 56
2, 72920, Note_on_c, 0, 85, 75
2, 72936, Note_on_c, 0, 79, 0
2, 72968, Note_on_c, 0, 64, 54
2, 72968, Control_c, 0, 64, 0
2, 72984, Note_on_c, 0, 88, 62
2, 73072, Note_on_c, 0, 93, 71
2, 73224, Control_c, 0, 64, 127
2, 73504, Note_on_c, 0, 53, 0
2, 73952, Note_on_c, 0, 53, 36
2, 74080, Note_on_c, 0, 58, 0
2, 74080, Note_on_c, 0, 64, 0
2, 74112, Note_on_c, 0, 61, 0
2, 74520, Note_on_c, 0, 93, 0
2, 74528, Note_on_c, 0, 81, 0
2, 74600, Note_on_c, 0, 85, 0
2, 74640, Note_on_c, 0, 88, 0
2, 74856, Control_c, 0, 64, 0
2, 74856, Note_on_c, 0, 61, 30
2, 74880, Note_on_c, 0, 91, 36
2, 74888, Note_on_c, 0, 58, 28
2, 74896, Note_on_c, 0, 64, 33
2, 74912, Note_on_c, 0, 85, 33
2, 74920, Note_on_c, 0, 88, 37
2, 74928, Note_on_c, 0, 79, 24
2, 75096, Control_c, 0, 64, 127
2, 75264, Note_on_c, 0, 53, 0
2, 75480, Note_on_c, 0, 91, 0
2, 75608, Note_on_c, 0, 79, 0
2, 75744, Note_on_c, 0, 88, 0
2, 75808, Note_on_c, 0, 85, 0
2, 75832, Note_on_c, 0, 53, 27
2, 75928, Note_on_c, 0, 64, 0
2, 76000, Note_on_c, 0, 58, 0
2, 76048, Note_on_c, 0, 61, 0
2, 76456, Note_on_c, 0, 93, 85
2, 76544, Note_on_c, 0, 93, 0
2, 76776, Note_on_c, 0, 62, 31
2, 76784, Note_on_c, 0, 86, 58
2, 76784, Note_on_c, 0, 57, 37
2, 76800, Note_on_c, 0, 74, 39
2, 76816, Control_c, 0, 64, 0
2, 76832, Note_on_c, 0, 86, 0
2, 76856, Note_on_c, 0, 74, 0
2, 77376, Note_on_c, 0, 86, 66
2, 77416, Note_on_c, 0, 86, 0
2, 77416, Note_on_c, 0, 53, 0
2, 77704, Note_on_c, 0, 53, 30
2, 77984, Note_on_c, 0, 57, 0
2, 78080, Note_on_c, 0, 62, 0
2, 78408, Control_c, 0, 64, 127
2, 78624, Control_c, 0, 64, 0
2, 78680, Note_on_c, 0, 57, 42
2, 78680, Note_on_c, 0, 74, 66
2, 78728, Note_on_c, 0, 74, 0
2, 79008, Note_on_c, 0, 53, 0
2, 79264, Note_on_c, 0, 74, 63
2, 79264, Note_on_c, 0, 62, 64
2, 79320, Note_on_c, 0, 62, 0
2, 79328, Note_on_c, 0, 74, 0
2, 79616, Note_on_c, 0, 53, 44
2, 79672, Note_on_c, 0, 57, 0
2, 79680, Control_c, 0, 64, 127
2, 79776, Note_on_c, 0, 53, 0
2, 80552, Note_on_c, 0, 82, 46
2, 80568, Note_on_c, 0, 83, 76
2, 80600, Note_on_c, 0, 82, 0
2, 80616, Note_on_c, 0, 84, 74
2, 80616, Control_c, 0, 64, 0
2, 80640, Note_on_c, 0, 61, 25
2, 80656, Note_on_c, 0, 83, 0
2, 80680, Note_on_c, 0, 61, 0
2, 80712, Note_on_c, 0, 84, 0
2, 81088, Note_on_c, 0, 83, 64
2, 81128, Note_on_c, 0, 84, 72
2, 81184, Note_on_c, 0, 83, 0
2, 81232, Control_c, 0, 64, 127
2, 81264, Note_on_c, 0, 84, 0
2, 81400, Control_c, 0, 64, 0
2, 81520, Note_on_c, 0, 82, 59
2, 81536, Note_on_c, 0, 53, 29
2, 81640, Note_on_c, 0, 82, 0
2, 81840, Control_c, 0, 64, 127
2, 82480, Note_on_c, 0, 58, 39
2, 82480, Note_on_c, 0, 62, 34
2, 82552, Note_on_c, 0, 62, 0
2, 82616, Note_on_c, 0, 53, 0
2, 82624, Note_on_c, 0, 58, 0
2, 83456, Note_on_c, 0, 41, 32
2, 83464, Note_on_c, 0, 62, 66
2, 83496, Control_c, 0, 64, 0
2, 83544, Note_on_c, 0, 62, 0
2, 83552, Note_on_c, 0, 63, 47
2, 83704, Note_on_c, 0, 62, 35
2, 83752, Note_on_c, 0, 63, 0
2, 83800, Note_on_c, 0, 62, 0
2, 83816, Note_on_c, 0, 63, 48
2, 83952, Note_on_c, 0, 62, 37
2, 84016, Note_on_c, 0, 63, 0
2, 84056, Note_on_c, 0, 62, 0
2, 84072, Note_on_c, 0, 61, 38
2, 84120, Control_c, 0, 64, 127
2, 84192, Note_on_c, 0, 62, 33
2, 84208, Note_on_c, 0, 61, 0
2, 84320, Note_on_c, 0, 63, 35
2, 84376, Note_on_c, 0, 62, 0
2, 84440, Note_on_c, 0, 63, 0
2, 84456, Note_on_c, 0, 64, 64
2, 84520, Control_c, 0, 64, 0
2, 84568, Note_on_c, 0, 53, 36
2, 84600, Note_on_c, 0, 64, 0
2, 84616, Note_on_c, 0, 65, 64
2, 84968, Control_c, 0, 64, 127
2, 85000, Note_on_c, 0, 41, 0
2, 85000, Note_on_c, 0, 55, 62
2, 85112, Note_on_c, 0, 55, 0
2, 85208, Note_on_c, 0, 65, 0
2, 85432, Note_on_c, 0, 53, 0
2, 85504, Note_on_c, 0, 41, 37
2, 85568, Note_on_c, 0, 41, 0
2, 86456, Note_on_c, 0, 77, 44
2, 86472, Note_on_c, 0, 75, 42
2, 86480, Note_on_c, 0, 70, 36
2, 86488, Note_on_c, 0, 67, 33
2, 86512, Control_c, 0, 64, 0
2, 86512, Note_on_c, 0, 65, 31
2, 86560, Control_c, 0, 64, 127
2, 87208, Note_on_c, 0, 65, 0
2, 87312, Note_on_c, 0, 53, 41
2, 87384, Note_on_c, 0, 53, 0
2, 87408, Note_on_c, 0, 67, 0
2, 87472, Note_on_c, 0, 70, 0
2, 87544, Note_on_c, 0, 77, 0
2, 87568, Note_on_c, 0, 75, 0
2, 88104, Note_on_c, 0, 62, 59
2, 88192, Note_on_c, 0, 74, 64
2, 88232, Note_on_c, 0, 78, 62
2, 88264, Note_on_c, 0, 63, 48
2, 88288, Note_on_c, 0, 81, 62
2, 88288, Note_on_c, 0, 67, 55
2, 88296, Control_c, 0, 64, 0
2, 88376, Note_on_c, 0, 86, 67
2, 88520, Control_c, 0, 64, 127
2, 88816, Note_on_c, 0, 67, 0
2, 88832, Note_on_c, 0, 62, 0
2, 88872, Note_on_c, 0, 63, 0
2, 89224, Note_on_c, 0, 53, 22
2, 89296, Note_on_c, 0, 53, 0
2, 89632, Note_on_c, 0, 86, 0
2, 89728, Note_on_c, 0, 74, 0
2, 89888, Note_on_c, 0, 81, 0
2, 89992, Note_on_c, 0, 78, 0
2, 91248, Note_on_c, 0, 63, 29
2, 91352, Note_on_c, 0, 63, 0
2, 91520, Note_on_c, 0, 84, 74
2, 91736, Note_on_c, 0, 84, 0
2, 91824, Note_on_c, 0, 81, 56
2, 92000, Note_on_c, 0, 81, 0
2, 92144, Note_on_c, 0, 65, 20
2, 92160, Note_on_c, 0, 82, 53
2, 92168, Note_on_c, 0, 62, 26
2, 92168, Note_on_c, 0, 60, 32
2, 92176, Control_c, 0, 64, 0
2, 92400, Note_on_c, 0, 65, 0
2, 92448, Control_c, 0, 64, 127
2, 92496, Control_c, 0, 64, 0
2, 92608, Note_on_c, 0, 82, 0
2, 92784, Control_c, 0, 64, 127
2, 92808, Note_on_c, 0, 81, 45
2, 92896, Note_on_c, 0, 81, 0
2, 93120, Control_c, 0, 64, 0
2, 93152, Note_on_c, 0, 82, 57
2, 93192, Note_on_c, 0, 53, 24
2, 93256, Note_on_c, 0, 82, 0
2, 93440, Note_on_c, 0, 62, 0
2, 93480, Note_on_c, 0, 60, 0
2, 93808, Note_on_c, 0, 81, 47
2, 93864, Control_c, 0, 64, 127
2, 93888, Note_on_c, 0, 81, 0
2, 94040, Control_c, 0, 64, 0
2, 94112, Note_on_c, 0, 62, 30
2, 94120, Note_on_c, 0, 60, 24
2, 94120, Note_on_c, 0, 65, 30
2, 94152, Note_on_c, 0, 82, 35
2, 94256, Control_c, 0, 64, 127
2, 94376, Note_on_c, 0, 65, 0
2, 94544, Note_on_c, 0, 53, 0
2, 94992, Control_c, 0, 64, 0
2, 95016, Note_on_c, 0, 82, 0
2, 95040, Note_on_c, 0, 53, 35
2, 95072, Note_on_c, 0, 84, 60
2, 95120, Control_c, 0, 64, 127
2, 95136, Note_on_c, 0, 60, 0
2, 95176, Note_on_c, 0, 62, 0
2, 95192, Note_on_c, 0, 53, 0
2, 95680, Note_on_c, 0, 84, 0
2, 95928, Control_c, 0, 64, 0
2, 95976, Note_on_c, 0, 80, 69
2, 95984, Note_on_c, 0, 86, 80
2, 95984, Note_on_c, 0, 74, 78
2, 95992, Note_on_c, 0, 62, 61
2, 96000, Note_on_c, 0, 67, 62
2, 96000, Note_on_c, 0, 56, 59
2, 96168, Control_c, 0, 64, 127
2, 96184, Note_on_c, 0, 80, 0
2, 96208, Note_on_c, 0, 81, 43
2, 96240, Note_on_c, 0, 67, 0
2, 96288, Note_on_c, 0, 62, 0
2, 96304, Note_on_c, 0, 86, 0
2, 96304, Note_on_c, 0, 74, 0
2, 96328, Note_on_c, 0, 81, 0
2, 96400, Note_on_c, 0, 56, 0
2, 96568, Control_c, 0, 64, 0
2, 96616, Note_on_c, 0, 85, 69
2, 96616, Note_on_c, 0, 61, 48
2, 96624, Note_on_c, 0, 73, 52
2, 96632, Note_on_c, 0, 80, 51
2, 96632, Note_on_c, 0, 66, 43
2, 96632, Note_on_c, 0, 55, 54
2, 96736, Control_c, 0, 64, 127
2, 96872, Note_on_c, 0, 55, 0
2, 96904, Note_on_c, 0, 66, 0
2, 96936, Note_on_c, 0, 85, 0
2, 96944, Note_on_c, 0, 73, 0
2, 96960, Note_on_c, 0, 80, 0
2, 97056, Note_on_c, 0, 61, 0
2, 97160, Control_c, 0, 64, 0
2, 97224, Note_on_c, 0, 84, 54
2, 97232, Note_on_c, 0, 72, 40
2, 97232, Note_on_c, 0, 79, 51
2, 97240, Note_on_c, 0, 65, 24
2, 97240, Note_on_c, 0, 60, 42
2, 97248, Note_on_c, 0, 54, 34
2, 97328, Control_c, 0, 64, 127
2, 97504, Note_on_c, 0, 65, 0
2, 97560, Note_on_c, 0, 84, 0
2, 97576, Note_on_c, 0, 60, 0
2, 97584, Note_on_c, 0, 79, 0
2, 97672, Note_on_c, 0, 72, 0
2, 97752, Note_on_c, 0, 54, 0
2, 97816, Control_c, 0, 64, 0
2, 97872, Note_on_c, 0, 64, 37
2, 97888, Note_on_c, 0, 83, 45
2, 97896, Note_on_c, 0, 53, 37
2, 97896, Note_on_c, 0, 59, 41
2, 97904, Note_on_c, 0, 71, 28
2, 97912, Note_on_c, 0, 77, 46
2, 97984, Control_c, 0, 64, 127
2, 98048, Note_on_c, 0, 64, 0
2, 98088, Note_on_c, 0, 59, 0
2, 98104, Note_on_c, 0, 83, 0
2, 98168, Note_on_c, 0, 53, 0
2, 98176, Note_on_c, 0, 77, 0
2, 98200, Note_on_c, 0, 71, 0
2, 98504, Control_c, 0, 64, 0
2, 98536, Note_on_c, 0, 82, 51
2, 98560, Note_on_c, 0, 70, 36
2, 98560, Note_on_c, 0, 54, 37
2, 98568, Note_on_c, 0, 44, 38
2, 98576, Note_on_c, 0, 77, 44
2, 98624, Control_c, 0, 64, 127
2, 98800, Note_on_c, 0, 77, 0
2, 98848, Note_on_c, 0, 70, 0
2, 98872, Note_on_c, 0, 54, 0
2, 98880, Note_on_c, 0, 82, 0
2, 98888, Note_on_c, 0, 44, 0
2, 99192, Note_on_c, 0, 81, 48
2, 99248, Note_on_c, 0, 76, 24
2, 99272, Note_on_c, 0, 81, 0
2, 99320, Note_on_c, 0, 76, 0
2, 99384, Control_c, 0, 64, 0
2, 99448, Control_c, 0, 64, 127
2, 99512, Note_on_c, 0, 80, 49
2, 99536, Note_on_c, 0, 68, 32
2, 99544, Note_on_c, 0, 75, 35
2, 99608, Note_on_c, 0, 75, 0
2, 99624, Note_on_c, 0, 68, 0
2, 99648, Note_on_c, 0, 80, 0
2, 99816, Control_c, 0, 64, 0
2, 99840, Note_on_c, 0, 79, 44
2, 99840, Note_on_c, 0, 67, 31
2, 99856, Note_on_c, 0, 75, 32
2, 99872, Note_on_c, 0, 39, 29
2, 100024, Control_c, 0, 64, 127
2, 100152, Note_on_c, 0, 79, 0
2, 100152, Note_on_c, 0, 46, 45
2, 100168, Note_on_c, 0, 39, 0
2, 100192, Note_on_c, 0, 75, 0
2, 100240, Note_on_c, 0, 67, 0
2, 100344, Note_on_c, 0, 46, 0
2, 100744, Note_on_c, 0, 60, 45
2, 100904, Note_on_c, 0, 60, 0
2, 100960, Note_on_c, 0, 61, 43
2, 101072, Note_on_c, 0, 58, 1
2, 101136, Note_on_c, 0, 61, 0
2, 101192, Note_on_c, 0, 63, 38
2, 101328, Note_on_c, 0, 63, 0
2, 101440, Note_on_c, 0, 65, 37
2, 101568, Note_on_c, 0, 65, 0
2, 101672, Note_on_c, 0, 67, 50
2, 101768, Note_on_c, 0, 67, 0
2, 101912, Control_c, 0, 64, 0
2, 101920, Note_on_c, 0, 65, 36
2, 102080, Control_c, 0, 64, 127
2, 102304, Note_on_c, 0, 65, 0
2, 102400, Note_on_c, 0, 58, 0
2, 102568, Note_on_c, 0, 69, 41
2, 102664, Note_on_c, 0, 69, 0
2, 102928, Note_on_c, 0, 59, 52
2, 102984, Control_c, 0, 64, 0
2, 103088, Control_c, 0, 64, 127
2, 103208, Note_on_c, 0, 70, 60
2, 103304, Note_on_c, 0, 59, 0
2, 103360, Control_c, 0, 64, 0
2, 103368, Note_on_c, 0, 70, 0
2, 103464, Control_c, 0, 64, 127
2, 103464, Note_on_c, 0, 71, 59
2, 103624, Note_on_c, 0, 71, 0
2, 103688, Control_c, 0, 64, 0
2, 103744, Note_on_c, 0, 72, 51
2, 103760, Note_on_c, 0, 58, 45
2, 103816, Note_on_c, 0, 58, 0
2, 103832, Control_c, 0, 64, 127
2, 103880, Note_on_c, 0, 72, 0
2, 104352, Note_on_c, 0, 82, 67
2, 104360, Note_on_c, 0, 73, 56
2, 104376, Note_on_c, 0, 76, 57
2, 104384, Note_on_c, 0, 67, 64
2, 104384, Control_c, 0, 64, 0
2, 104440, Control_c, 0, 64, 127
2, 104576, Note_on_c, 0, 76, 0
2, 104608, Note_on_c, 0, 82, 0
2, 104616, Control_c, 0, 64, 0
2, 104640, Note_on_c, 0, 73, 0
2, 104704, Note_on_c, 0, 67, 0
2, 104728, Note_on_c, 0, 72, 39
2, 104728, Note_on_c, 0, 81, 53
2, 104744, Note_on_c, 0, 66, 35
2, 104856, Note_on_c, 0, 81, 0
2, 104880, Note_on_c, 0, 72, 0
2, 104952, Note_on_c, 0, 66, 0
2, 105144, Control_c, 0, 64, 127
2, 105240, Note_on_c, 0, 80, 37
2, 105248, Note_on_c, 0, 75, 45
2, 105280, Note_on_c, 0, 65, 45
2, 105352, Note_on_c, 0, 80, 0
2, 105360, Note_on_c, 0, 65, 0
2, 105408, Note_on_c, 0, 75, 0
2, 105464, Control_c, 0, 64, 0
2, 105592, Note_on_c, 0, 70, 44
2, 105592, Note_on_c, 0, 73, 48
2, 105608, Note_on_c, 0, 79, 47
2, 105616, Note_on_c, 0, 64, 34
2, 105680, Control_c, 0, 64, 127
2, 106032, Note_on_c, 0, 79, 0
2, 106048, Note_on_c, 0, 70, 0
2, 106200, Note_on_c, 0, 73, 0
2, 106496, Note_on_c, 0, 78, 40
2, 106504, Control_c, 0, 64, 0
2, 106512, Note_on_c, 0, 64, 0
2, 106528, Note_on_c, 0, 63, 35
2, 106536, Note_on_c, 0, 69, 27
2, 106560, Note_on_c, 0, 75, 27
2, 106568, Note_on_c, 0, 72, 33
2, 106696, Note_on_c, 0, 63, 0
2, 106696, Control_c, 0, 64, 127
2, 106752, Note_on_c, 0, 69, 0
2, 106792, Note_on_c, 0, 72, 0
2, 106848, Note_on_c, 0, 78, 0
2, 107216, Note_on_c, 0, 75, 0
2, 107456, Note_on_c, 0, 57, 28
2, 107456, Note_on_c, 0, 77, 43
2, 107464, Control_c, 0, 64, 0
2, 107464, Note_on_c, 0, 60, 35
2, 107472, Note_on_c, 0, 65, 33
2, 107480, Note_on_c, 0, 72, 41
2, 107488, Note_on_c, 0, 50, 32
2, 107632, Control_c, 0, 64, 127
2, 107744, Note_on_c, 0, 72, 0
2, 107768, Note_on_c, 0, 60, 0
2, 107792, Note_on_c, 0, 77, 0
2, 107944, Note_on_c, 0, 65, 0
2, 108032, Note_on_c, 0, 57, 0
2, 108472, Note_on_c, 0, 65, 36
2, 108624, Note_on_c, 0, 65, 0
2, 108672, Note_on_c, 0, 50, 0
2, 109064, Note_on_c, 0, 50, 28
2, 109392, Note_on_c, 0, 50, 0
2, 109400, Note_on_c, 0, 61, 36
2, 109432, Note_on_c, 0, 59, 35
2, 109456, Note_on_c, 0, 43, 29
2, 109496, Control_c, 0, 64, 0
2, 109552, Note_on_c, 0, 59, 0
2, 109592, Note_on_c, 0, 61, 0
2, 109608, Note_on_c, 0, 53, 1
2, 109672, Note_on_c, 0, 59, 31
2, 109680, Note_on_c, 0, 62, 40
2, 109760, Control_c, 0, 64, 127
2, 110184, Note_on_c, 0, 62, 0
2, 110192, Note_on_c, 0, 59, 0
2, 110216, Note_on_c, 0, 53, 0
2, 110368, Note_on_c, 0, 59, 37
2, 110376, Control_c, 0, 64, 0
2, 110384, Note_on_c, 0, 50, 32
2, 110384, Note_on_c, 0, 62, 37
2, 110392, Note_on_c, 0, 65, 44
2, 110416, Note_on_c, 0, 43, 0
2, 110592, Control_c, 0, 64, 127
2, 110608, Note_on_c, 0, 59, 0
2, 110648, Note_on_c, 0, 65, 0
2, 110656, Note_on_c, 0, 62, 0
2, 110744, Note_on_c, 0, 50, 0
2, 111024, Note_on_c, 0, 47, 28
2, 111256, Note_on_c, 0, 47, 0
2, 111304, Control_c, 0, 64, 0
2, 111344, Note_on_c, 0, 70, 54
2, 111376, Note_on_c, 0, 63, 37
2, 111384, Note_on_c, 0, 60, 34
2, 111384, Note_on_c, 0, 48, 36
2, 111384, Note_on_c, 0, 67, 32
2, 111440, Note_on_c, 0, 67, 0
2, 111448, Note_on_c, 0, 48, 0
2, 111456, Note_on_c, 0, 60, 0
2, 111472, Control_c, 0, 64, 127
2, 111488, Note_on_c, 0, 63, 0
2, 111488, Note_on_c, 0, 70, 0
2, 111568, Control_c, 0, 64, 0
2, 111888, Control_c, 0, 64, 127
2, 111968, Note_on_c, 0, 67, 47
2, 111992, Note_on_c, 0, 48, 38
2, 111992, Note_on_c, 0, 63, 31
2, 111992, Note_on_c, 0, 60, 34
2, 112000, Note_on_c, 0, 55, 37
2, 112128, Note_on_c, 0, 67, 0
2, 112144, Note_on_c, 0, 55, 0
2, 112160, Note_on_c, 0, 63, 0
2, 112168, Note_on_c, 0, 60, 0
2, 112200, Note_on_c, 0, 48, 0
2, 112256, Control_c, 0, 64, 0
2, 112352, Note_on_c, 0, 66, 35
2, 112352, Note_on_c, 0, 63, 23
2, 112360, Note_on_c, 0, 55, 25
2, 112368, Note_on_c, 0, 60, 22
2, 112376, Note_on_c, 0, 43, 22
2, 112424, Note_on_c, 0, 43, 0
2, 112432, Note_on_c, 0, 60, 0
2, 112440, Note_on_c, 0, 55, 0
2, 112448, Note_on_c, 0, 66, 0
2, 112464, Note_on_c, 0, 63, 0
2, 112896, Control_c, 0, 64, 127
2, 112952, Note_on_c, 0, 40, 39
2, 113072, Note_on_c, 0, 40, 0
2, 113096, Control_c, 0, 64, 0
2, 113296, Note_on_c, 0, 41, 41
2, 113304, Note_on_c, 0, 57, 32
2, 113312, Note_on_c, 0, 63, 20
2, 113312, Note_on_c, 0, 60, 30
2, 113352, Note_on_c, 0, 57, 0
2, 113368, Note_on_c, 0, 60, 0
2, 113408, Note_on_c, 0, 63, 0
2, 113432, Note_on_c, 0, 41, 0
2, 113624, Control_c, 0, 64, 127
2, 113920, Note_on_c, 0, 29, 48
2, 114088, Note_on_c, 0, 29, 0
2, 114152, Control_c, 0, 64, 0
2, 114272, Note_on_c, 0, 72, 58
2, 114280, Note_on_c, 0, 60, 53
2, 114280, Note_on_c, 0, 65, 52
2, 114288, Note_on_c, 0, 41, 42
2, 114288, Note_on_c, 0, 69, 46
2, 114336, Note_on_c, 0, 69, 0
2, 114336, Note_on_c, 0, 60, 0
2, 114336, Note_on_c, 0, 41, 0
2, 114344, Note_on_c, 0, 65, 0
2, 114368, Note_on_c, 0, 72, 0
2, 114616, Control_c, 0, 64, 127
2, 115104, Control_c, 0, 64, 0
2, 115200, Note_on_c, 0, 61, 65
2, 115200, Note_on_c, 0, 69, 64
2, 115208, Note_on_c, 0, 64, 51
2, 115208, Note_on_c, 0, 57, 66
2, 115224, Note_on_c, 0, 46, 58
2, 115224, Note_on_c, 0, 34, 52
2, 115304, Control_c, 0, 64, 127
2, 115320, Note_on_c, 0, 34, 0
2, 115336, Note_on_c, 0, 46, 0
2, 115808, Note_on_c, 0, 58, 86
2, 115992, Note_on_c, 0, 58, 0
2, 116216, Note_on_c, 0, 58, 67
2, 116328, Note_on_c, 0, 58, 0
2, 116408, Note_on_c, 0, 57, 0
2, 116416, Note_on_c, 0, 64, 0
2, 116424, Note_on_c, 0, 61, 0
2, 116640, Note_on_c, 0, 69, 0
2, 116760, Note_on_c, 0, 58, 53
2, 116776, Note_on_c, 0, 61, 29
2, 116776, Note_on_c, 0, 57, 36
2, 116792, Note_on_c, 0, 64, 37
2, 116864, Note_on_c, 0, 58, 0
2, 117144, Note_on_c, 0, 58, 45
2, 117264, Note_on_c, 0, 58, 0
2, 117440, Note_on_c, 0, 57, 0
2, 117456, Note_on_c, 0, 61, 0
2, 117464, Note_on_c, 0, 64, 0
2, 117696, Note_on_c, 0, 58, 36
2, 117856, Note_on_c, 0, 58, 0
2, 118080, Note_on_c, 0, 57, 46
2, 118144, Note_on_c, 0, 57, 0
2, 118272, Note_on_c, 0, 61, 43
2, 118376, Note_on_c, 0, 61, 0
2, 118536, Note_on_c, 0, 64, 60
2, 118640, Note_on_c, 0, 64, 0
2, 118760, Note_on_c, 0, 69, 74
2, 118880, Note_on_c, 0, 69, 0
2, 118992, Note_on_c, 0, 69, 77
2, 118992, Note_on_c, 0, 76, 75
2, 119024, Note_on_c, 0, 58, 47
2, 119040, Control_c, 0, 64, 0
2, 119160, Control_c, 0, 64, 127
2, 119168, Note_on_c, 0, 76, 0
2, 119200, Note_on_c, 0, 69, 0
2, 119248, Note_on_c, 0, 64, 42
2, 119344, Note_on_c, 0, 64, 0
2, 119368, Note_on_c, 0, 58, 0
2, 119520, Note_on_c, 0, 69, 69
2, 119528, Note_on_c, 0, 76, 66
2, 119552, Note_on_c, 0, 58, 36
2, 119952, Note_on_c, 0, 58, 0
2, 119952, Note_on_c, 0, 69, 0
2, 119992, Note_on_c, 0, 76, 0
2, 120080, Note_on_c, 0, 73, 43
2, 120088, Note_on_c, 0, 64, 38
2, 120104, Note_on_c, 0, 69, 39
2, 120112, Note_on_c, 0, 58, 27
2, 120344, Note_on_c, 0, 69, 0
2, 120360, Note_on_c, 0, 73, 0
2, 120416, Note_on_c, 0, 64, 0
2, 120544, Note_on_c, 0, 58, 0
2, 121024, Note_on_c, 0, 64, 24
2, 121032, Note_on_c, 0, 61, 21
2, 121048, Note_on_c, 0, 58, 21
2, 121056, Note_on_c, 0, 57, 16
2, 121456, Note_on_c, 0, 57, 0
2, 121504, Note_on_c, 0, 58, 0
2, 121560, Note_on_c, 0, 61, 0
2, 121704, Note_on_c, 0, 64, 0
2, 121920, Note_on_c, 0, 58, 28
2, 122056, Note_on_c, 0, 58, 0
2, 122824, Control_c, 0, 64, 0
2, 122832, Note_on_c, 0, 74, 58
2, 122952, Control_c, 0, 64, 127
2, 123416, Note_on_c, 0, 74, 0
2, 123496, Note_on_c, 0, 53, 35
2, 123728, Note_on_c, 0, 53, 0
2, 123792, Control_c, 0, 64, 0
2, 123816, Note_on_c, 0, 41, 32
2, 123944, Control_c, 0, 64, 127
2, 124816, Note_on_c, 0, 58, 50
2, 124864, Control_c, 0, 64, 0
2, 125032, Note_on_c, 0, 58, 0
2, 125096, Note_on_c, 0, 53, 35
2, 125160, Note_on_c, 0, 53, 0
2, 125344, Note_on_c, 0, 55, 33
2, 125432, Control_c, 0, 64, 127
2, 125440, Note_on_c, 0, 55, 0
2, 125600, Note_on_c, 0, 57, 56
2, 125720, Note_on_c, 0, 57, 0
2, 125824, Note_on_c, 0, 58, 50
2, 125840, Note_on_c, 0, 53, 33
2, 125904, Control_c, 0, 64, 0
2, 126152, Note_on_c, 0, 41, 0
2, 126168, Note_on_c, 0, 53, 0
2, 126200, Note_on_c, 0, 58, 0
2, 126312, Note_on_c, 0, 55, 51
2, 126432, Note_on_c, 0, 55, 0
2, 126496, Control_c, 0, 64, 127
2, 126576, Note_on_c, 0, 57, 54
2, 126680, Note_on_c, 0, 57, 0
2, 126768, Note_on_c, 0, 41, 39
2, 126800, Control_c, 0, 64, 0
2, 126808, Note_on_c, 0, 59, 42
2, 127008, Note_on_c, 0, 59, 0
2, 127096, Note_on_c, 0, 55, 40
2, 127168, Note_on_c, 0, 55, 0
2, 127280, Note_on_c, 0, 56, 35
2, 127456, Control_c, 0, 64, 127
2, 127464, Note_on_c, 0, 56, 0
2, 127544, Note_on_c, 0, 58, 52
2, 127680, Note_on_c, 0, 58, 0
2, 127784, Note_on_c, 0, 53, 20
2, 127792, Control_c, 0, 64, 0
2, 127800, Note_on_c, 0, 59, 26
2, 127952, Note_on_c, 0, 59, 0
2, 128024, Note_on_c, 0, 61, 42
2, 128080, Note_on_c, 0, 41, 0
2, 128160, Note_on_c, 0, 61, 0
2, 128224, Note_on_c, 0, 62, 42
2, 128344, Note_on_c, 0, 62, 0
2, 128408, Control_c, 0, 64, 127
2, 128472, Note_on_c, 0, 64, 60
2, 128600, Control_c, 0, 64, 0
2, 128640, Note_on_c, 0, 41, 42
2, 128680, Note_on_c, 0, 64, 0
2, 128712, Note_on_c, 0, 65, 49
2, 128824, Note_on_c, 0, 65, 0
2, 128824, Note_on_c, 0, 53, 0
2, 128960, Note_on_c, 0, 67, 55
2, 129104, Note_on_c, 0, 67, 0
2, 129144, Control_c, 0, 64, 127
2, 129176, Note_on_c, 0, 68, 48
2, 129336, Note_on_c, 0, 68, 0
2, 129424, Note_on_c, 0, 70, 72
2, 129560, Control_c, 0, 64, 0
2, 129632, Note_on_c, 0, 70, 0
2, 129632, Note_on_c, 0, 71, 82
2, 129672, Note_on_c, 0, 53, 48
2, 129760, Note_on_c, 0, 41, 0
2, 129792, Control_c, 0, 64, 127
2, 129808, Note_on_c, 0, 71, 0
2, 129832, Note_on_c, 0, 53, 0
2, 129880, Note_on_c, 0, 72, 68
2, 130000, Note_on_c, 0, 72, 0
2, 130104, Note_on_c, 0, 73, 53
2, 130216, Note_on_c, 0, 73, 0
2, 130352, Note_on_c, 0, 74, 75
2, 130488, Note_on_c, 0, 74, 0
2, 130496, Control_c, 0, 64, 0
2, 130576, Note_on_c, 0, 66, 47
2, 130584, Note_on_c, 0, 69, 54
2, 130600, Note_on_c, 0, 62, 41
2, 130608, Note_on_c, 0, 74, 34
2, 130608, Note_on_c, 0, 63, 49
2, 130816, Control_c, 0, 64, 127
2, 131368, Note_on_c, 0, 66, 0
2, 131376, Note_on_c, 0, 63, 0
2, 131416, Note_on_c, 0, 74, 0
2, 131576, Control_c, 0, 64, 0
2, 131592, Note_on_c, 0, 66, 35
2, 131600, Note_on_c, 0, 63, 25
2, 131600, Note_on_c, 0, 53, 36
2, 131624, Note_on_c, 0, 62, 0
2, 131696, Control_c, 0, 64, 127
2, 131712, Note_on_c, 0, 63, 0
2, 131728, Note_on_c, 0, 69, 0
2, 131880, Note_on_c, 0, 66, 0
2, 132488, Note_on_c, 0, 63, 32
2, 132512, Note_on_c, 0, 69, 58
2, 132528, Control_c, 0, 64, 0
2, 132560, Note_on_c, 0, 74, 58
2, 132608, Note_on_c, 0, 78, 50
2, 132608, Note_on_c, 0, 65, 24
2, 132648, Note_on_c, 0, 81, 62
2, 132784, Control_c, 0, 64, 127
2, 132936, Note_on_c, 0, 63, 0
2, 133192, Note_on_c, 0, 53, 0
2, 133376, Note_on_c, 0, 65, 0
2, 133480, Note_on_c, 0, 53, 42
2, 133760, Note_on_c, 0, 69, 0
2, 133768, Note_on_c, 0, 78, 0
2, 133864, Note_on_c, 0, 81, 0
2, 133952, Note_on_c, 0, 74, 0
2, 134248, Note_on_c, 0, 58, 52
2, 134328, Note_on_c, 0, 61, 25
2, 134344, Note_on_c, 0, 69, 60
2, 134400, Note_on_c, 0, 73, 51
2, 134400, Control_c, 0, 64, 0
2, 134416, Note_on_c, 0, 64, 50
2, 134448, Note_on_c, 0, 76, 53
2, 134512, Note_on_c, 0, 81, 60
2, 134632, Control_c, 0, 64, 127
2, 134848, Note_on_c, 0, 53, 0
2, 135064, Note_on_c, 0, 81, 0
2, 135072, Note_on_c, 0, 69, 0
2, 135144, Note_on_c, 0, 73, 0
2, 135192, Note_on_c, 0, 76, 0
2, 135216, Note_on_c, 0, 64, 0
2, 135320, Note_on_c, 0, 53, 36
2, 135344, Note_on_c, 0, 79, 38
2, 135344, Note_on_c, 0, 73, 37
2, 135352, Control_c, 0, 64, 0
2, 135360, Note_on_c, 0, 67, 29
2, 135360, Note_on_c, 0, 76, 44
2, 135376, Note_on_c, 0, 64, 30
2, 135408, Note_on_c, 0, 58, 0
2, 135472, Note_on_c, 0, 61, 0
2, 135488, Note_on_c, 0, 64, 0
2, 135632, Control_c, 0, 64, 127
2, 136064, Note_on_c, 0, 67, 0
2, 136080, Note_on_c, 0, 73, 0
2, 136248, Control_c, 0, 64, 0
2, 136320, Note_on_c, 0, 61, 29
2, 136328, Note_on_c, 0, 73, 31
2, 136336, Note_on_c, 0, 64, 22
2, 136344, Note_on_c, 0, 67, 30
2, 136360, Note_on_c, 0, 58, 20
2, 136400, Control_c, 0, 64, 127
2, 136456, Note_on_c, 0, 67, 0
2, 136560, Note_on_c, 0, 73, 0
2, 136592, Note_on_c, 0, 79, 0
2, 136656, Note_on_c, 0, 53, 0
2, 136952, Note_on_c, 0, 76, 0
2, 137224, Note_on_c, 0, 64, 0
2, 137256, Note_on_c, 0, 53, 35
2, 137376, Note_on_c, 0, 61, 0
2, 137400, Note_on_c, 0, 58, 0
2, 137888, Note_on_c, 0, 81, 74
2, 137992, Note_on_c, 0, 81, 0
2, 138224, Note_on_c, 0, 62, 20
2, 138240, Note_on_c, 0, 57, 29
2, 138264, Note_on_c, 0, 74, 48
2, 138264, Note_on_c, 0, 68, 67
2, 138272, Control_c, 0, 64, 0
2, 138432, Note_on_c, 0, 68, 0
2, 138480, Note_on_c, 0, 69, 31
2, 138560, Note_on_c, 0, 69, 0
2, 138712, Note_on_c, 0, 53, 0
2, 138976, Note_on_c, 0, 74, 0
2, 138984, Note_on_c, 0, 65, 29
2, 139016, Control_c, 0, 64, 127
2, 139040, Note_on_c, 0, 65, 0
2, 139160, Control_c, 0, 64, 0
2, 139208, Note_on_c, 0, 74, 56
2, 139216, Note_on_c, 0, 53, 35
2, 139240, Note_on_c, 0, 69, 43
2, 139256, Note_on_c, 0, 67, 44
2, 139280, Note_on_c, 0, 62, 0
2, 139520, Note_on_c, 0, 57, 0
2, 139688, Note_on_c, 0, 67, 0
2, 139736, Note_on_c, 0, 69, 0
2, 139856, Note_on_c, 0, 62, 27
2, 139920, Control_c, 0, 64, 127
2, 139960, Note_on_c, 0, 62, 0
2, 140040, Note_on_c, 0, 74, 0
2, 140072, Control_c, 0, 64, 0
2, 140128, Note_on_c, 0, 65, 45
2, 140176, Note_on_c, 0, 57, 28
2, 140272, Note_on_c, 0, 62, 1
2, 140440, Control_c, 0, 64, 127
2, 140600, Note_on_c, 0, 65, 0
2, 140648, Note_on_c, 0, 53, 0
2, 140744, Note_on_c, 0, 65, 45
2, 140816, Note_on_c, 0, 65, 0
2, 140960, Control_c, 0, 64, 0
2, 141048, Note_on_c, 0, 57, 0
2, 141064, Note_on_c, 0, 53, 32
2, 141120, Note_on_c, 0, 62, 0
2, 141120, Control_c, 0, 64, 127
2, 142032, Note_on_c, 0, 72, 62
2, 142056, Note_on_c, 0, 58, 28
2, 142064, Note_on_c, 0, 77, 69
2, 142080, Note_on_c, 0, 62, 48
2, 142080, Note_on_c, 0, 65, 58
2, 142096, Control_c, 0, 64, 0
2, 142112, Note_on_c, 0, 84, 80
2, 142344, Control_c, 0, 64, 127
2, 142584, Note_on_c, 0, 65, 0
2, 142632, Note_on_c, 0, 53, 0
2, 143056, Note_on_c, 0, 53, 29
2, 143080, Note_on_c, 0, 84, 0
2, 143216, Note_on_c, 0, 58, 0
2, 143224, Note_on_c, 0, 62, 0
2, 143256, Note_on_c, 0, 72, 0
2, 143296, Note_on_c, 0, 77, 0
2, 143928, Control_c, 0, 64, 0
2, 144000, Note_on_c, 0, 82, 56
2, 144000, Note_on_c, 0, 58, 28
2, 144000, Note_on_c, 0, 70, 51
2, 144016, Note_on_c, 0, 62, 27
2, 144024, Note_on_c, 0, 65, 35
2, 144048, Note_on_c, 0, 79, 30
2, 144056, Note_on_c, 0, 70, 0
2, 144104, Note_on_c, 0, 82, 0
2, 144104, Note_on_c, 0, 79, 0
2, 144224, Note_on_c, 0, 65, 0
2, 144288, Control_c, 0, 64, 127
2, 144368, Note_on_c, 0, 53, 0
2, 144944, Note_on_c, 0, 62, 0
2, 144984, Note_on_c, 0, 53, 32
2, 145024, Note_on_c, 0, 58, 0
2, 145136, Note_on_c, 0, 53, 0
2, 145624, Note_on_c, 0, 62, 39
2, 145744, Note_on_c, 0, 62, 0
2, 145952, Note_on_c, 0, 65, 45
2, 145968, Note_on_c, 0, 63, 32
2, 145976, Note_on_c, 0, 58, 31
2, 146000, Control_c, 0, 64, 0
2, 146008, Note_on_c, 0, 65, 0
2, 146024, Note_on_c, 0, 58, 0
2, 146024, Note_on_c, 0, 63, 0
2, 146240, Note_on_c, 0, 53, 47
2, 146288, Note_on_c, 0, 53, 0
2, 146880, Note_on_c, 0, 65, 41
2, 146888, Note_on_c, 0, 58, 38
2, 146896, Note_on_c, 0, 55, 37
2, 146904, Note_on_c, 0, 63, 36
2, 146960, Note_on_c, 0, 55, 0
2, 146976, Note_on_c, 0, 63, 0
2, 146984, Note_on_c, 0, 58, 0
2, 146984, Note_on_c, 0, 65, 0
2, 147176, Note_on_c, 0, 41, 45
2, 147312, Control_c, 0, 64, 127
2, 147416, Control_c, 0, 64, 0
2, 147840, Note_on_c, 0, 29, 39
2, 147912, Control_c, 0, 64, 127
2, 148584, Note_on_c, 0, 29, 0
2, 148696, Note_on_c, 0, 41, 0
2, 148824, Note_on_c, 0, 70, 33
2, 148832, Note_on_c, 0, 67, 29
2, 149088, Note_on_c, 0, 70, 0
2, 149128, Note_on_c, 0, 67, 0
2, 149528, Note_on_c, 0, 53, 58
2, 149640, Note_on_c, 0, 60, 53
2, 149696, Note_on_c, 0, 63, 60
2, 149744, Note_on_c, 0, 66, 54
2, 149752, Control_c, 0, 64, 0
2, 149760, Note_on_c, 0, 62, 66
2, 149760, Note_on_c, 0, 69, 64
2, 149800, Note_on_c, 0, 60, 0
2, 149808, Note_on_c, 0, 74, 80
2, 150064, Control_c, 0, 64, 127
2, 150600, Note_on_c, 0, 63, 0
2, 150624, Note_on_c, 0, 66, 0
2, 150832, Note_on_c, 0, 63, 21
2, 150832, Note_on_c, 0, 66, 32
2, 151136, Note_on_c, 0, 62, 0
2, 151440, Note_on_c, 0, 63, 0
2, 151464, Note_on_c, 0, 69, 0
2, 151472, Note_on_c, 0, 66, 0
2, 151608, Note_on_c, 0, 74, 0
2, 151752, Note_on_c, 0, 63, 26
2, 151760, Note_on_c, 0, 72, 34
2, 151768, Control_c, 0, 64, 0
2, 151776, Note_on_c, 0, 60, 25
2, 151784, Note_on_c, 0, 69, 34
2, 151784, Note_on_c, 0, 66, 25
2, 151920, Control_c, 0, 64, 127
2, 152048, Note_on_c, 0, 63, 0
2, 152104, Note_on_c, 0, 69, 0
2, 152176, Note_on_c, 0, 66, 0
2, 152192, Note_on_c, 0, 60, 0
2, 152224, Note_on_c, 0, 53, 0
2, 152272, Note_on_c, 0, 72, 0
2, 153240, Control_c, 0, 64, 0
2, 153264, Note_on_c, 0, 57, 57
2, 153272, Note_on_c, 0, 63, 55
2, 153280, Note_on_c, 0, 68, 71
2, 153288, Note_on_c, 0, 93, 74
2, 153288, Note_on_c, 0, 81, 51
2, 153304, Note_on_c, 0, 83, 63
2, 153312, Note_on_c, 0, 92, 40
2, 153432, Control_c, 0, 64, 127
2, 153480, Note_on_c, 0, 93, 0
2, 153488, Note_on_c, 0, 81, 0
2, 153488, Note_on_c, 0, 83, 0
2, 153520, Note_on_c, 0, 92, 0
2, 153600, Note_on_c, 0, 57, 0
2, 153664, Note_on_c, 0, 68, 0
2, 153720, Note_on_c, 0, 94, 65
2, 153728, Note_on_c, 0, 63, 0
2, 153728, Note_on_c, 0, 82, 54
2, 153752, Note_on_c, 0, 67, 66
2, 153760, Note_on_c, 0, 89, 62
2, 153768, Note_on_c, 0, 62, 59
2, 153776, Note_on_c, 0, 56, 51
2, 153792, Control_c, 0, 64, 0
2, 154000, Control_c, 0, 64, 127
2, 154288, Note_on_c, 0, 67, 0
2, 154320, Note_on_c, 0, 62, 0
2, 154360, Note_on_c, 0, 89, 0
2, 154416, Note_on_c, 0, 56, 0
2, 154424, Note_on_c, 0, 94, 0
2, 154440, Note_on_c, 0, 82, 0
2, 154496, Control_c, 0, 64, 0
2, 154504, Note_on_c, 0, 55, 44
2, 154520, Note_on_c, 0, 66, 42
2, 154520, Note_on_c, 0, 93, 56
2, 154528, Note_on_c, 0, 88, 41
2, 154552, Note_on_c, 0, 61, 42
2, 154560, Note_on_c, 0, 81, 24
2, 154696, Control_c, 0, 64, 127
2, 155008, Note_on_c, 0, 55, 0
2, 155080, Note_on_c, 0, 93, 0
2, 155136, Note_on_c, 0, 81, 0
2, 155152, Note_on_c, 0, 66, 0
2, 155192, Note_on_c, 0, 88, 0
2, 155280, Note_on_c, 0, 61, 0
2, 155424, Control_c, 0, 64, 0
2, 155456, Note_on_c, 0, 94, 47
2, 155464, Note_on_c, 0, 82, 35
2, 155472, Note_on_c, 0, 56, 35
2, 155472, Note_on_c, 0, 62, 37
2, 155488, Note_on_c, 0, 89, 44
2, 155520, Note_on_c, 0, 67, 15
2, 155592, Control_c, 0, 64, 127
2, 156088, Note_on_c, 0, 62, 0
2, 156104, Note_on_c, 0, 89, 0
2, 156120, Note_on_c, 0, 67, 0
2, 156168, Note_on_c, 0, 82, 0
2, 156200, Note_on_c, 0, 56, 0
2, 156232, Note_on_c, 0, 94, 0
2, 156928, Control_c, 0, 64, 0
2, 157024, Note_on_c, 0, 63, 53
2, 157024, Note_on_c, 0, 68, 67
2, 157032, Note_on_c, 0, 57, 62
2, 157064, Note_on_c, 0, 96, 83
2, 157072, Note_on_c, 0, 84, 71
2, 157072, Note_on_c, 0, 91, 69
2, 157080, Control_c, 0, 64, 127
2, 157088, Note_on_c, 0, 92, 35
2, 157144, Note_on_c, 0, 92, 0
2, 157192, Note_on_c, 0, 57, 0
2, 157216, Note_on_c, 0, 96, 0
2, 157224, Note_on_c, 0, 91, 0
2, 157240, Note_on_c, 0, 84, 0
2, 157288, Note_on_c, 0, 68, 0
2, 157384, Note_on_c, 0, 63, 0
2, 157480, Control_c, 0, 64, 0
2, 157480, Note_on_c, 0, 67, 58
2, 157488, Note_on_c, 0, 62, 54
2, 157496, Note_on_c, 0, 56, 38
2, 157504, Note_on_c, 0, 94, 65
2, 157520, Note_on_c, 0, 90, 44
2, 157520, Note_on_c, 0, 82, 45
2, 157568, Note_on_c, 0, 90, 0
2, 157632, Control_c, 0, 64, 127
2, 157776, Note_on_c, 0, 67, 0
2, 157832, Note_on_c, 0, 62, 0
2, 157848, Note_on_c, 0, 94, 0
2, 157872, Note_on_c, 0, 82, 0
2, 157920, Note_on_c, 0, 56, 0
2, 158000, Control_c, 0, 64, 0
2, 158048, Note_on_c, 0, 66, 59
2, 158056, Note_on_c, 0, 88, 64
2, 158056, Control_c, 0, 64, 127
2, 158056, Note_on_c, 0, 93, 65
2, 158064, Note_on_c, 0, 55, 58
2, 158072, Note_on_c, 0, 81, 47
2, 158088, Note_on_c, 0, 61, 44
2, 158096, Note_on_c, 0, 83, 33
2, 158144, Note_on_c, 0, 83, 0
2, 158192, Note_on_c, 0, 55, 0
2, 158200, Note_on_c, 0, 93, 0
2, 158208, Note_on_c, 0, 81, 0
2, 158240, Note_on_c, 0, 88, 0
2, 158272, Note_on_c, 0, 66, 0
2, 158360, Note_on_c, 0, 61, 0
2, 158392, Control_c, 0, 64, 0
2, 158448, Note_on_c, 0, 65, 54
2, 158448, Note_on_c, 0, 92, 59
2, 158464, Note_on_c, 0, 87, 64
2, 158464, Note_on_c, 0, 60, 42
2, 158472, Note_on_c, 0, 80, 42
2, 158488, Note_on_c, 0, 54, 39
2, 158592, Control_c, 0, 64, 127
2, 158744, Note_on_c, 0, 65, 0
2, 158776, Note_on_c, 0, 60, 0
2, 158832, Note_on_c, 0, 92, 0
2, 158848, Note_on_c, 0, 80, 0
2, 158864, Note_on_c, 0, 87, 0
2, 158944, Note_on_c, 0, 54, 0
2, 159056, Note_on_c, 0, 91, 63
2, 159056, Note_on_c, 0, 79, 46
2, 159064, Note_on_c, 0, 86, 60
2, 159064, Note_on_c, 0, 64, 58
2, 159080, Note_on_c, 0, 59, 56
2, 159088, Note_on_c, 0, 53, 54
2, 159120, Control_c, 0, 64, 0
2, 159328, Control_c, 0, 64, 127
2, 159408, Note_on_c, 0, 64, 0
2, 159432, Note_on_c, 0, 59, 0
2, 159512, Note_on_c, 0, 53, 0
2, 159632, Note_on_c, 0, 91, 0
2, 159664, Note_on_c, 0, 86, 0
2, 159800, Note_on_c, 0, 79, 0
2, 160960, Note_on_c, 0, 53, 54
2, 160960, Note_on_c, 0, 78, 50
2, 160960, Note_on_c, 0, 90, 64
2, 160968, Note_on_c, 0, 85, 59
2, 161048, Note_on_c, 0, 53, 0
2, 161168, Note_on_c, 0, 85, 0
2, 161200, Note_on_c, 0, 78, 0
2, 161208, Note_on_c, 0, 90, 0
2, 161352, Control_c, 0, 64, 0
2, 161352, Note_on_c, 0, 85, 52
2, 161368, Note_on_c, 0, 48, 51
2, 161384, Note_on_c, 0, 89, 50
2, 161392, Note_on_c, 0, 58, 38
2, 161416, Note_on_c, 0, 77, 29
2, 161496, Note_on_c, 0, 85, 0
2, 161544, Control_c, 0, 64, 127
2, 161568, Note_on_c, 0, 89, 0
2, 161600, Note_on_c, 0, 48, 0
2, 161736, Note_on_c, 0, 58, 0
2, 161784, Note_on_c, 0, 77, 0
2, 162320, Note_on_c, 0, 67, 35
2, 162328, Note_on_c, 0, 63, 35
2, 162336, Note_on_c, 0, 62, 41
2, 162552, Note_on_c, 0, 67, 0
2, 162648, Note_on_c, 0, 62, 0
2, 162696, Note_on_c, 0, 63, 0
2, 163992, Note_on_c, 0, 74, 60
2, 164064, Note_on_c, 0, 74, 0
2, 164072, Note_on_c, 0, 73, 51
2, 164168, Note_on_c, 0, 72, 42
2, 164216, Control_c, 0, 64, 0
2, 164224, Note_on_c, 0, 73, 0
2, 164296, Note_on_c, 0, 71, 43
2, 164320, Note_on_c, 0, 72, 0
2, 164320, Note_on_c, 0, 63, 33
2, 164328, Note_on_c, 0, 67, 33
2, 164352, Note_on_c, 0, 62, 26
2, 164456, Control_c, 0, 64, 127
2, 164680, Note_on_c, 0, 67, 0
2, 164744, Note_on_c, 0, 62, 0
2, 164768, Note_on_c, 0, 63, 0
2, 165280, Note_on_c, 0, 63, 35
2, 165288, Note_on_c, 0, 53, 44
2, 165296, Control_c, 0, 64, 0
2, 165488, Control_c, 0, 64, 127
2, 165752, Note_on_c, 0, 63, 0
2, 165832, Note_on_c, 0, 71, 0
2, 166152, Note_on_c, 0, 63, 23
2, 166160, Control_c, 0, 64, 0
2, 166192, Note_on_c, 0, 60, 22
2, 166208, Note_on_c, 0, 71, 62
2, 166272, Note_on_c, 0, 60, 0
2, 166304, Note_on_c, 0, 71, 0
2, 166336, Note_on_c, 0, 72, 57
2, 166440, Note_on_c, 0, 71, 51
2, 166464, Note_on_c, 0, 72, 0
2, 166480, Note_on_c, 0, 63, 0
2, 166536, Note_on_c, 0, 71, 0
2, 166544, Note_on_c, 0, 67, 49
2, 166632, Note_on_c, 0, 67, 0
2, 166704, Note_on_c, 0, 70, 47
2, 166808, Note_on_c, 0, 70, 0
2, 166888, Note_on_c, 0, 72, 18
2, 166896, Control_c, 0, 64, 127
2, 166944, Note_on_c, 0, 72, 0
2, 166944, Note_on_c, 0, 70, 37
2, 167104, Note_on_c, 0, 67, 50
2, 167112, Note_on_c, 0, 70, 0
2, 167128, Control_c, 0, 64, 0
2, 167152, Note_on_c, 0, 67, 0
2, 167176, Note_on_c, 0, 63, 34
2, 167216, Note_on_c, 0, 69, 68
2, 167304, Control_c, 0, 64, 127
2, 167368, Note_on_c, 0, 63, 0
2, 167400, Note_on_c, 0, 53, 0
2, 167488, Note_on_c, 0, 69, 0
2, 167512, Note_on_c, 0, 65, 40
2, 167632, Note_on_c, 0, 65, 0
2, 168024, Control_c, 0, 64, 0
2, 168048, Note_on_c, 0, 63, 55
2, 168064, Note_on_c, 0, 60, 45
2, 168120, Note_on_c, 0, 60, 0
2, 168160, Note_on_c, 0, 63, 0
2, 168168, Control_c, 0, 64, 127
2, 168488, Control_c, 0, 64, 0
2, 168528, Note_on_c, 0, 50, 45
2, 168528, Note_on_c, 0, 60, 33
2, 168544, Note_on_c, 0, 62, 36
2, 168544, Note_on_c, 0, 54, 26
2, 168656, Control_c, 0, 64, 127
2, 168760, Note_on_c, 0, 60, 0
2, 168840, Note_on_c, 0, 54, 0
2, 168896, Note_on_c, 0, 62, 0
2, 168992, Note_on_c, 0, 50, 0
2, 169024, Control_c, 0, 64, 0
2, 169032, Note_on_c, 0, 58, 42
2, 169048, Note_on_c, 0, 43, 38
2, 169064, Note_on_c, 0, 55, 40
2, 169232, Control_c, 0, 64, 127
2, 169312, Note_on_c, 0, 55, 0
2, 169392, Note_on_c, 0, 58, 0
2, 169864, Note_on_c, 0, 43, 0
2, 169904, Note_on_c, 0, 62, 34
2, 169920, Note_on_c, 0, 57, 34
2, 169944, Note_on_c, 0, 55, 35
2, 170128, Note_on_c, 0, 55, 0
2, 170176, Note_on_c, 0, 57, 0
2, 170384, Note_on_c, 0, 62, 0
2, 170808, Note_on_c, 0, 54, 46
2, 170824, Note_on_c, 0, 62, 33
2, 170832, Note_on_c, 0, 58, 42
2, 170832, Control_c, 0, 64, 0
2, 171120, Control_c, 0, 64, 127
2, 171472, Note_on_c, 0, 62, 0
2, 171720, Note_on_c, 0, 58, 0
2, 171752, Note_on_c, 0, 54, 0
2, 171816, Note_on_c, 0, 62, 36
2, 171816, Note_on_c, 0, 58, 23
2, 171824, Note_on_c, 0, 53, 43
2, 171864, Control_c, 0, 64, 0
2, 172088, Note_on_c, 0, 66, 68
2, 172096, Control_c, 0, 64, 127
2, 172264, Note_on_c, 0, 66, 0
2, 172312, Note_on_c, 0, 67, 56
2, 172384, Note_on_c, 0, 62, 0
2, 172456, Note_on_c, 0, 53, 0
2, 172488, Note_on_c, 0, 67, 0
2, 172568, Note_on_c, 0, 69, 64
2, 172576, Note_on_c, 0, 58, 0
2, 172728, Note_on_c, 0, 69, 0
2, 172800, Control_c, 0, 64, 0
2, 172800, Note_on_c, 0, 62, 36
2, 172808, Note_on_c, 0, 55, 51
2, 172816, Note_on_c, 0, 58, 32
2, 172992, Control_c, 0, 64, 127
2, 173360, Note_on_c, 0, 62, 0
2, 173480, Note_on_c, 0, 58, 0
2, 173504, Note_on_c, 0, 55, 0
2, 173776, Note_on_c, 0, 62, 53
2, 173784, Note_on_c, 0, 74, 73
2, 173784, Note_on_c, 0, 79, 70
2, 173784, Control_c, 0, 64, 0
2, 173792, Note_on_c, 0, 69, 56
2, 173888, Control_c, 0, 64, 127
2, 173952, Note_on_c, 0, 79, 0
2, 173960, Note_on_c, 0, 69, 0
2, 173984, Note_on_c, 0, 74, 0
2, 174128, Note_on_c, 0, 78, 53
2, 174136, Note_on_c, 0, 68, 50
2, 174144, Note_on_c, 0, 73, 57
2, 174152, Note_on_c, 0, 61, 48
2, 174160, Note_on_c, 0, 62, 0
2, 174312, Note_on_c, 0, 68, 0
2, 174336, Note_on_c, 0, 78, 0
2, 174336, Note_on_c, 0, 73, 0
2, 174400, Control_c, 0, 64, 0
2, 174424, Note_on_c, 0, 61, 0
2, 174520, Note_on_c, 0, 77, 46
2, 174520, Note_on_c, 0, 72, 52
2, 174520, Control_c, 0, 64, 127
2, 174528, Note_on_c, 0, 60, 36
2, 174544, Note_on_c, 0, 67, 28
2, 174608, Note_on_c, 0, 77, 0
2, 174640, Note_on_c, 0, 72, 0
2, 174656, Note_on_c, 0, 67, 0
2, 174744, Note_on_c, 0, 60, 0
2, 174784, Control_c, 0, 64, 0
2, 174864, Note_on_c, 0, 71, 49
2, 174872, Note_on_c, 0, 76, 38
2, 174888, Note_on_c, 0, 65, 27
2, 174912, Note_on_c, 0, 59, 32
2, 174944, Control_c, 0, 64, 127
2, 175168, Note_on_c, 0, 71, 0
2, 175224, Note_on_c, 0, 76, 0
2, 175240, Note_on_c, 0, 65, 0
2, 175480, Note_on_c, 0, 59, 0
2, 175520, Control_c, 0, 64, 0
2, 175544, Note_on_c, 0, 75, 44
2, 175552, Note_on_c, 0, 70, 49
2, 175576, Note_on_c, 0, 58, 33
2, 175592, Note_on_c, 0, 64, 18
2, 175632, Control_c, 0, 64, 127
2, 175728, Note_on_c, 0, 58, 0
2, 175856, Note_on_c, 0, 75, 0
2, 176048, Note_on_c, 0, 70, 0
2, 176064, Note_on_c, 0, 64, 0
2, 176584, Control_c, 0, 64, 0
2, 176608, Note_on_c, 0, 66, 38
2, 176624, Note_on_c, 0, 62, 30
2, 176624, Note_on_c, 0, 74, 34
2, 176624, Note_on_c, 0, 58, 23
2, 176632, Note_on_c, 0, 48, 37
2, 176632, Note_on_c, 0, 69, 47
2, 176896, Control_c, 0, 64, 127
2, 177080, Note_on_c, 0, 62, 0
2, 177216, Note_on_c, 0, 58, 0
2, 177336, Note_on_c, 0, 66, 0
2, 177472, Note_on_c, 0, 69, 0
2, 177648, Note_on_c, 0, 66, 35
2, 177664, Note_on_c, 0, 62, 44
2, 177680, Note_on_c, 0, 58, 26
2, 177952, Note_on_c, 0, 48, 0
2, 178160, Note_on_c, 0, 48, 51
2, 178176, Note_on_c, 0, 58, 0
2, 178368, Note_on_c, 0, 62, 0
2, 178536, Note_on_c, 0, 66, 0
2, 178616, Note_on_c, 0, 67, 45
2, 178624, Control_c, 0, 64, 0
2, 178632, Note_on_c, 0, 62, 44
2, 178640, Note_on_c, 0, 58, 33
2, 178896, Control_c, 0, 64, 127
2, 179264, Note_on_c, 0, 58, 0
2, 179272, Note_on_c, 0, 62, 0
2, 179512, Note_on_c, 0, 58, 25
2, 179528, Note_on_c, 0, 62, 36
2, 179704, Note_on_c, 0, 48, 0
2, 179864, Note_on_c, 0, 58, 0
2, 179864, Note_on_c, 0, 62, 0
2, 179984, Note_on_c, 0, 67, 0
2, 180040, Note_on_c, 0, 48, 52
2, 180224, Note_on_c, 0, 48, 0
2, 180416, Note_on_c, 0, 74, 0
2, 180504, Note_on_c, 0, 63, 52
2, 180528, Note_on_c, 0, 67, 53
2, 180536, Note_on_c, 0, 71, 52
2, 180576, Control_c, 0, 64, 0
2, 180968, Note_on_c, 0, 62, 69
2, 181136, Control_c, 0, 64, 127
2, 181256, Note_on_c, 0, 67, 0
2, 181288, Note_on_c, 0, 63, 0
2, 181336, Note_on_c, 0, 71, 0
2, 181456, Note_on_c, 0, 63, 42
2, 181480, Note_on_c, 0, 71, 43
2, 181488, Note_on_c, 0, 67, 35
2, 181952, Note_on_c, 0, 59, 43
2, 182032, Note_on_c, 0, 62, 0
2, 182104, Note_on_c, 0, 71, 0
2, 182144, Note_on_c, 0, 67, 0
2, 182216, Note_on_c, 0, 63, 0
2, 182248, Note_on_c, 0, 59, 0
2, 182408, Note_on_c, 0, 63, 39
2, 182408, Control_c, 0, 64, 0
2, 182440, Note_on_c, 0, 70, 49
2, 182448, Note_on_c, 0, 67, 40
2, 182464, Note_on_c, 0, 57, 34
2, 182616, Control_c, 0, 64, 127
2, 182928, Note_on_c, 0, 57, 0
2, 183064, Note_on_c, 0, 67, 0
2, 183064, Note_on_c, 0, 63, 0
2, 183168, Note_on_c, 0, 70, 0
2, 183336, Control_c, 0, 64, 0
2, 183368, Note_on_c, 0, 63, 35
2, 183376, Note_on_c, 0, 69, 53
2, 183376, Note_on_c, 0, 60, 37
2, 183512, Control_c, 0, 64, 127
2, 183600, Note_on_c, 0, 60, 0
2, 183736, Note_on_c, 0, 63, 0
2, 184216, Note_on_c, 0, 69, 0
2, 184280, Note_on_c, 0, 62, 33
2, 184280, Control_c, 0, 64, 0
2, 184304, Note_on_c, 0, 53, 47
2, 184304, Note_on_c, 0, 65, 38
2, 184512, Control_c, 0, 64, 127
2, 184728, Note_on_c, 0, 65, 0
2, 184824, Note_on_c, 0, 41, 37
2, 184848, Note_on_c, 0, 62, 0
2, 185024, Note_on_c, 0, 41, 0
2, 185280, Note_on_c, 0, 41, 37
2, 185384, Note_on_c, 0, 53, 0
2, 185768, Note_on_c, 0, 53, 44
2, 185784, Note_on_c, 0, 55, 45
2, 185840, Note_on_c, 0, 55, 0
2, 185864, Note_on_c, 0, 53, 0
2, 185864, Control_c, 0, 64, 0
2, 186208, Control_c, 0, 64, 127
2, 186232, Note_on_c, 0, 53, 39
2, 186240, Note_on_c, 0, 55, 46
2, 186456, Note_on_c, 0, 53, 0
2, 186504, Note_on_c, 0, 55, 0
2, 186720, Note_on_c, 0, 53, 44
2, 186776, Control_c, 0, 64, 0
2, 187152, Note_on_c, 0, 57, 55
2, 187232, Control_c, 0, 64, 127
2, 187408, Note_on_c, 0, 41, 0
2, 187520, Note_on_c, 0, 57, 0
2, 187528, Control_c, 0, 64, 0
2, 187624, Note_on_c, 0, 41, 50
2, 187632, Control_c, 0, 64, 127
2, 187648, Note_on_c, 0, 58, 43
2, 187808, Note_on_c, 0, 58, 0
2, 187816, Note_on_c, 0, 41, 0
2, 187912, Note_on_c, 0, 53, 0
2, 188096, Control_c, 0, 64, 0
2, 188128, Note_on_c, 0, 41, 40
2, 188136, Note_on_c, 0, 58, 39
2, 188240, Control_c, 0, 64, 127
2, 188512, Note_on_c, 0, 58, 0
2, 188616, Note_on_c, 0, 56, 33
2, 188648, Note_on_c, 0, 59, 45
2, 188784, Note_on_c, 0, 59, 0
2, 188840, Note_on_c, 0, 56, 0
2, 189152, Note_on_c, 0, 56, 40
2, 189168, Note_on_c, 0, 53, 38
2, 189240, Note_on_c, 0, 53, 0
2, 189280, Note_on_c, 0, 56, 0
2, 189392, Note_on_c, 0, 61, 31
2, 189440, Note_on_c, 0, 61, 0
2, 189632, Note_on_c, 0, 62, 54
2, 189664, Note_on_c, 0, 53, 38
2, 189672, Note_on_c, 0, 59, 54
2, 189672, Control_c, 0, 64, 0
2, 189752, Control_c, 0, 64, 127
2, 189832, Note_on_c, 0, 53, 0
2, 189888, Note_on_c, 0, 62, 0
2, 189928, Note_on_c, 0, 59, 0
2, 190168, Note_on_c, 0, 53, 45
2, 190168, Note_on_c, 0, 59, 41
2, 190192, Note_on_c, 0, 56, 26
2, 190232, Note_on_c, 0, 59, 0
2, 190384, Note_on_c, 0, 56, 0
2, 190456, Note_on_c, 0, 53, 0
2, 190640, Note_on_c, 0, 56, 67
2, 190648, Note_on_c, 0, 65, 62
2, 190648, Note_on_c, 0, 53, 54
2, 190656, Note_on_c, 0, 62, 55
2, 190656, Note_on_c, 0, 59, 62
2, 190848, Note_on_c, 0, 65, 0
2, 190856, Note_on_c, 0, 56, 0
2, 190864, Note_on_c, 0, 53, 0
2, 190904, Note_on_c, 0, 59, 0
2, 190928, Note_on_c, 0, 62, 0
2, 191112, Note_on_c, 0, 59, 43
2, 191152, Note_on_c, 0, 53, 48
2, 191168, Note_on_c, 0, 59, 0
2, 191352, Note_on_c, 0, 41, 0
2, 191600, Note_on_c, 0, 68, 62
2, 191608, Note_on_c, 0, 62, 57
2, 191616, Note_on_c, 0, 41, 44
2, 191616, Note_on_c, 0, 59, 53
2, 191616, Note_on_c, 0, 65, 54
2, 191808, Note_on_c, 0, 62, 0
2, 191848, Note_on_c, 0, 59, 0
2, 191848, Note_on_c, 0, 41, 0
2, 191856, Note_on_c, 0, 65, 0
2, 191896, Note_on_c, 0, 68, 0
2, 192008, Note_on_c, 0, 53, 0
2, 192008, Control_c, 0, 64, 0
2, 192080, Note_on_c, 0, 41, 45
2, 192088, Note_on_c, 0, 68, 62
2, 192104, Note_on_c, 0, 59, 45
2, 192112, Control_c, 0, 64, 127
2, 192112, Note_on_c, 0, 62, 53
2, 192128, Note_on_c, 0, 65, 31
2, 192200, Note_on_c, 0, 65, 0
2, 192208, Note_on_c, 0, 59, 0
2, 192264, Note_on_c, 0, 62, 0
2, 192264, Note_on_c, 0, 68, 0
2, 192552, Note_on_c, 0, 51, 46
2, 192560, Control_c, 0, 64, 0
2, 192576, Note_on_c, 0, 66, 49
2, 192576, Note_on_c, 0, 69, 59
2, 192584, Note_on_c, 0, 62, 60
2, 192592, Note_on_c, 0, 57, 51
2, 192712, Control_c, 0, 64, 127
2, 192768, Note_on_c, 0, 51, 0
2, 192816, Note_on_c, 0, 62, 0
2, 192832, Note_on_c, 0, 57, 0
2, 192848, Note_on_c, 0, 66, 0
2, 192856, Note_on_c, 0, 69, 0
2, 192960, Control_c, 0, 64, 0
2, 193048, Note_on_c, 0, 66, 49
2, 193048, Note_on_c, 0, 57, 54
2, 193056, Note_on_c, 0, 69, 57
2, 193056, Note_on_c, 0, 62, 62
2, 193112, Control_c, 0, 64, 127
2, 193208, Note_on_c, 0, 41, 0
2, 193384, Note_on_c, 0, 57, 0
2, 193408, Note_on_c, 0, 62, 0
2, 193448, Note_on_c, 0, 66, 0
2, 193504, Note_on_c, 0, 69, 0
2, 193520, Note_on_c, 0, 41, 62
2, 193808, Note_on_c, 0, 41, 0
2, 194000, Note_on_c, 0, 41, 53
2, 194232, Note_on_c, 0, 41, 0
2, 194464, Note_on_c, 0, 74, 55
2, 194480, Note_on_c, 0, 66, 55
2, 194480, Note_on_c, 0, 62, 50
2, 194480, Note_on_c, 0, 57, 53
2, 194488, Note_on_c, 0, 69, 63
2, 194488, Note_on_c, 0, 51, 39
2, 194720, Note_on_c, 0, 57, 0
2, 194736, Note_on_c, 0, 62, 0
2, 194736, Note_on_c, 0, 51, 0
2, 194752, Note_on_c, 0, 66, 0
2, 194752, Note_on_c, 0, 69, 0
2, 194784, Note_on_c, 0, 74, 0
2, 194936, Note_on_c, 0, 74, 54
2, 194944, Note_on_c, 0, 66, 57
2, 194952, Note_on_c, 0, 62, 61
2, 194960, Note_on_c, 0, 69, 57
2, 194968, Note_on_c, 0, 57, 47
2, 194992, Note_on_c, 0, 51, 54
2, 195016, Note_on_c, 0, 69, 0
2, 195056, Note_on_c, 0, 62, 0
2, 195072, Note_on_c, 0, 66, 0
2, 195088, Note_on_c, 0, 57, 0
2, 195144, Note_on_c, 0, 51, 0
2, 195216, Note_on_c, 0, 74, 0
2, 195416, Note_on_c, 0, 41, 34
2, 195448, Note_on_c, 0, 43, 29
2, 195504, Note_on_c, 0, 43, 0
2, 195520, Note_on_c, 0, 41, 0
2, 195832, Control_c, 0, 64, 0
2, 195912, Note_on_c, 0, 73, 68
2, 195912, Note_on_c, 0, 79, 73
2, 195920, Note_on_c, 0, 76, 66
2, 195920, Note_on_c, 0, 67, 70
2, 196080, Control_c, 0, 64, 127
2, 196392, Note_on_c, 0, 79, 0
2, 196416, Note_on_c, 0, 53, 51
2, 196432, Note_on_c, 0, 76, 0
2, 196472, Note_on_c, 0, 73, 0
2, 196536, Note_on_c, 0, 67, 0
2, 196584, Note_on_c, 0, 53, 0
2, 196888, Note_on_c, 0, 41, 43
2, 197032, Note_on_c, 0, 41, 0
2, 197376, Note_on_c, 0, 67, 65
2, 197384, Note_on_c, 0, 58, 65
2, 197392, Note_on_c, 0, 61, 61
2, 197392, Note_on_c, 0, 64, 62
2, 197400, Note_on_c, 0, 41, 71
2, 197472, Control_c, 0, 64, 0
2, 197760, Control_c, 0, 64, 127
2, 197880, Note_on_c, 0, 52, 31
2, 197936, Note_on_c, 0, 52, 0
2, 198176, Note_on_c, 0, 58, 0
2, 198208, Note_on_c, 0, 64, 0
2, 198208, Note_on_c, 0, 67, 0
2, 198240, Note_on_c, 0, 61, 0
2, 198368, Note_on_c, 0, 52, 51
2, 198472, Note_on_c, 0, 52, 0
2, 198792, Note_on_c, 0, 70, 69
2, 198800, Note_on_c, 0, 61, 72
2, 198808, Note_on_c, 0, 67, 55
2, 198808, Note_on_c, 0, 52, 53
2, 198808, Note_on_c, 0, 64, 66
2, 198992, Note_on_c, 0, 41, 0
2, 199200, Note_on_c, 0, 67, 0
2, 199216, Note_on_c, 0, 52, 0
2, 199240, Note_on_c, 0, 41, 52
2, 199256, Note_on_c, 0, 64, 0
2, 199264, Note_on_c, 0, 61, 0
2, 199280, Note_on_c, 0, 70, 0
2, 199704, Note_on_c, 0, 65, 57
2, 199720, Note_on_c, 0, 62, 60
2, 199728, Note_on_c, 0, 60, 64
2, 199728, Note_on_c, 0, 57, 60
2, 199736, Note_on_c, 0, 50, 46
2, 199752, Control_c, 0, 64, 0
2, 199984, Note_on_c, 0, 41, 0
2, 200072, Control_c, 0, 64, 127
2, 200200, Note_on_c, 0, 62, 0
2, 200200, Note_on_c, 0, 41, 37
2, 200224, Note_on_c, 0, 60, 0
2, 200232, Note_on_c, 0, 65, 0
2, 200296, Note_on_c, 0, 57, 0
2, 200664, Note_on_c, 0, 62, 38
2, 200664, Note_on_c, 0, 53, 50
2, 200672, Note_on_c, 0, 60, 49
2, 200672, Note_on_c, 0, 57, 47
2, 200928, Note_on_c, 0, 41, 0
2, 201160, Note_on_c, 0, 41, 51
2, 201232, Note_on_c, 0, 53, 0
2, 201416, Note_on_c, 0, 41, 0
2, 201536, Note_on_c, 0, 57, 0
2, 201888, Note_on_c, 0, 60, 0
2, 201944, Note_on_c, 0, 62, 0
2, 202072, Note_on_c, 0, 41, 69
2, 202424, Note_on_c, 0, 41, 0
2, 203008, Note_on_c, 0, 41, 66
2, 203120, Note_on_c, 0, 50, 0
2, 203136, Note_on_c, 0, 41, 0
2, 203512, Note_on_c, 0, 70, 79
2, 203520, Note_on_c, 0, 72, 82
2, 203520, Note_on_c, 0, 62, 84
2, 203520, Note_on_c, 0, 65, 76
2, 203616, Control_c, 0, 64, 0
2, 203952, Control_c, 0, 64, 127
2, 204000, Note_on_c, 0, 53, 74
2, 204360, Note_on_c, 0, 53, 0
2, 204512, Note_on_c, 0, 65, 0
2, 204544, Note_on_c, 0, 72, 0
2, 204624, Note_on_c, 0, 70, 0
2, 204648, Note_on_c, 0, 62, 0
2, 204992, Note_on_c, 0, 53, 80
2, 205424, Note_on_c, 0, 70, 56
2, 205440, Note_on_c, 0, 58, 51
2, 205456, Note_on_c, 0, 62, 52
2, 205464, Note_on_c, 0, 65, 49
2, 205512, Note_on_c, 0, 53, 0
2, 205968, Note_on_c, 0, 53, 51
2, 206088, Note_on_c, 0, 62, 0
2, 206160, Note_on_c, 0, 53, 0
2, 206168, Note_on_c, 0, 58, 0
2, 206360, Note_on_c, 0, 70, 0
2, 206368, Note_on_c, 0, 65, 0
2, 206456, Note_on_c, 0, 62, 48
2, 206472, Note_on_c, 0, 58, 40
2, 206656, Note_on_c, 0, 58, 0
2, 206656, Note_on_c, 0, 62, 0
2, 206896, Note_on_c, 0, 41, 54
2, 207344, Control_c, 0, 64, 0
2, 207352, Note_on_c, 0, 63, 50
2, 207352, Note_on_c, 0, 65, 55
2, 207360, Note_on_c, 0, 55, 56
2, 207360, Note_on_c, 0, 58, 51
2, 207640, Control_c, 0, 64, 127
2, 207704, Note_on_c, 0, 55, 0
2, 207760, Note_on_c, 0, 58, 0
2, 207792, Note_on_c, 0, 65, 0
2, 207800, Note_on_c, 0, 63, 0
2, 207824, Note_on_c, 0, 53, 39
2, 207872, Note_on_c, 0, 41, 0
2, 207880, Note_on_c, 0, 53, 0
2, 208320, Note_on_c, 0, 77, 68
2, 208328, Note_on_c, 0, 75, 57
2, 208328, Note_on_c, 0, 67, 62
2, 208336, Note_on_c, 0, 70, 55
2, 208768, Note_on_c, 0, 67, 0
2, 208800, Note_on_c, 0, 70, 0
2, 208808, Note_on_c, 0, 65, 90
2, 208856, Note_on_c, 0, 75, 0
2, 208856, Note_on_c, 0, 77, 0
2, 209280, Note_on_c, 0, 87, 70
2, 209280, Note_on_c, 0, 89, 74
2, 209280, Note_on_c, 0, 82, 67
2, 209280, Note_on_c, 0, 79, 65
2, 209520, Note_on_c, 0, 89, 0
2, 209568, Note_on_c, 0, 79, 0
2, 209584, Note_on_c, 0, 82, 0
2, 209600, Note_on_c, 0, 87, 0
2, 209736, Note_on_c, 0, 53, 48
2, 209752, Note_on_c, 0, 65, 0
2, 209864, Note_on_c, 0, 53, 0
2, 210712, Note_on_c, 0, 41, 33
2, 210720, Note_on_c, 0, 40, 35
2, 210768, Note_on_c, 0, 40, 0
2, 210768, Note_on_c, 0, 41, 0
2, 211160, Note_on_c, 0, 74, 70
2, 211160, Note_on_c, 0, 66, 55
2, 211176, Note_on_c, 0, 63, 48
2, 211184, Note_on_c, 0, 69, 51
2, 211264, Control_c, 0, 64, 0
2, 211656, Control_c, 0, 64, 127
2, 211656, Note_on_c, 0, 65, 41
2, 211720, Note_on_c, 0, 65, 0
2, 211968, Note_on_c, 0, 63, 0
2, 212024, Note_on_c, 0, 66, 0
2, 212152, Note_on_c, 0, 66, 25
2, 212168, Note_on_c, 0, 74, 0
2, 212176, Note_on_c, 0, 63, 25
2, 212304, Note_on_c, 0, 69, 0
2, 212416, Note_on_c, 0, 63, 0
2, 212464, Note_on_c, 0, 66, 0
2, 212640, Note_on_c, 0, 63, 30
2, 212640, Note_on_c, 0, 66, 27
2, 212672, Note_on_c, 0, 72, 37
2, 212688, Note_on_c, 0, 69, 33
2, 213072, Control_c, 0, 64, 0
2, 213608, Note_on_c, 0, 53, 36
2, 213704, Note_on_c, 0, 53, 0
2, 214096, Note_on_c, 0, 41, 37
2, 214096, Control_c, 0, 64, 127
2, 214320, Note_on_c, 0, 41, 0
2, 214392, Note_on_c, 0, 72, 0
2, 214408, Note_on_c, 0, 63, 0
2, 214448, Note_on_c, 0, 69, 0
2, 214600, Note_on_c, 0, 66, 0
2, 215112, Note_on_c, 0, 70, 30
2, 215120, Note_on_c, 0, 55, 33
2, 215120, Note_on_c, 0, 65, 38
2, 215128, Note_on_c, 0, 60, 17
2, 215136, Control_c, 0, 64, 0
2, 215368, Control_c, 0, 64, 127
2, 215528, Note_on_c, 0, 70, 0
2, 215592, Note_on_c, 0, 65, 0
2, 215664, Note_on_c, 0, 60, 0
2, 215952, Note_on_c, 0, 55, 0
2, 215968, Control_c, 0, 64, 0
2, 216032, Note_on_c, 0, 59, 28
2, 216040, Note_on_c, 0, 69, 29
2, 216048, Note_on_c, 0, 54, 25
2, 216056, Note_on_c, 0, 64, 33
2, 216224, Control_c, 0, 64, 127
2, 216232, Note_on_c, 0, 69, 0
2, 216264, Note_on_c, 0, 59, 0
2, 216312, Note_on_c, 0, 64, 0
2, 216640, Control_c, 0, 64, 0
2, 216640, Note_on_c, 0, 70, 43
2, 216648, Note_on_c, 0, 55, 58
2, 216656, Note_on_c, 0, 60, 37
2, 216656, Note_on_c, 0, 65, 39
2, 216712, Note_on_c, 0, 60, 0
2, 216712, Note_on_c, 0, 54, 0
2, 216720, Note_on_c, 0, 65, 0
2, 216760, Note_on_c, 0, 55, 0
2, 216800, Note_on_c, 0, 70, 0
2, 217200, Control_c, 0, 64, 127
2, 217568, Note_on_c, 0, 62, 49
2, 217576, Note_on_c, 0, 67, 47
2, 217592, Note_on_c, 0, 72, 44
2, 217600, Note_on_c, 0, 57, 44
2, 217600, Control_c, 0, 64, 0
2, 217720, Note_on_c, 0, 62, 0
2, 217728, Note_on_c, 0, 57, 0
2, 217784, Note_on_c, 0, 67, 0
2, 217832, Note_on_c, 0, 72, 0
2, 217904, Control_c, 0, 64, 127
2, 218488, Control_c, 0, 64, 0
2, 218544, Note_on_c, 0, 87, 74
2, 218544, Note_on_c, 0, 57, 60
2, 218544, Note_on_c, 0, 68, 60
2, 218552, Note_on_c, 0, 75, 74
2, 218568, Note_on_c, 0, 63, 45
2, 218568, Note_on_c, 0, 61, 45
2, 218576, Note_on_c, 0, 82, 36
2, 218624, Note_on_c, 0, 82, 0
2, 218656, Control_c, 0, 64, 127
2, 218696, Note_on_c, 0, 81, 18
2, 218752, Note_on_c, 0, 81, 0
2, 218752, Note_on_c, 0, 57, 0
2, 218816, Note_on_c, 0, 87, 0
2, 218816, Note_on_c, 0, 68, 0
2, 218832, Note_on_c, 0, 75, 0
2, 218856, Note_on_c, 0, 61, 0
2, 218896, Note_on_c, 0, 63, 0
2, 218920, Control_c, 0, 64, 0
2, 218936, Note_on_c, 0, 80, 58
2, 218944, Note_on_c, 0, 67, 60
2, 218960, Note_on_c, 0, 74, 68
2, 218960, Note_on_c, 0, 86, 63
2, 218968, Note_on_c, 0, 62, 45
2, 218976, Note_on_c, 0, 56, 39
2, 219128, Control_c, 0, 64, 127
2, 219392, Note_on_c, 0, 67, 0
2, 219400, Note_on_c, 0, 86, 0
2, 219416, Note_on_c, 0, 62, 0
2, 219424, Note_on_c, 0, 80, 0
2, 219424, Note_on_c, 0, 74, 0
2, 219496, Note_on_c, 0, 56, 0
2, 219544, Note_on_c, 0, 55, 65
2, 219552, Note_on_c, 0, 84, 60
2, 219560, Note_on_c, 0, 72, 58
2, 219568, Note_on_c, 0, 66, 62
2, 219576, Note_on_c, 0, 78, 52
2, 219584, Control_c, 0, 64, 0
2, 219608, Note_on_c, 0, 61, 33
2, 219720, Note_on_c, 0, 84, 0
2, 219760, Note_on_c, 0, 72, 0
2, 219760, Control_c, 0, 64, 127
2, 219792, Note_on_c, 0, 55, 0
2, 219848, Note_on_c, 0, 66, 0
2, 219848, Note_on_c, 0, 78, 0
2, 219912, Control_c, 0, 64, 0
2, 219920, Note_on_c, 0, 61, 0
2, 219944, Note_on_c, 0, 82, 49
2, 219944, Note_on_c, 0, 78, 49
2, 219960, Note_on_c, 0, 65, 53
2, 219968, Note_on_c, 0, 70, 37
2, 219968, Note_on_c, 0, 54, 49
2, 219976, Note_on_c, 0, 60, 45
2, 220112, Control_c, 0, 64, 127
2, 220472, Note_on_c, 0, 65, 0
2, 220496, Note_on_c, 0, 60, 0
2, 220672, Note_on_c, 0, 78, 0
2, 220728, Note_on_c, 0, 54, 0
2, 220768, Note_on_c, 0, 70, 0
2, 220784, Note_on_c, 0, 82, 0
2, 221504, Note_on_c, 0, 76, 68
2, 221512, Note_on_c, 0, 81, 66
2, 221528, Note_on_c, 0, 64, 37
2, 221528, Note_on_c, 0, 69, 54
2, 221552, Control_c, 0, 64, 0
2, 221552, Note_on_c, 0, 59, 34
2, 221600, Note_on_c, 0, 64, 0
2, 221648, Note_on_c, 0, 59, 0
2, 221720, Control_c, 0, 64, 127
2, 221808, Note_on_c, 0, 81, 0
2, 221848, Note_on_c, 0, 69, 0
2, 221864, Note_on_c, 0, 76, 0
2, 222136, Note_on_c, 0, 80, 45
2, 222160, Note_on_c, 0, 75, 55
2, 222160, Note_on_c, 0, 68, 47
2, 222160, Note_on_c, 0, 54, 39
2, 222184, Note_on_c, 0, 44, 37
2, 222368, Note_on_c, 0, 68, 0
2, 222416, Note_on_c, 0, 54, 0
2, 222424, Note_on_c, 0, 44, 0
2, 222432, Note_on_c, 0, 80, 0
2, 222440, Note_on_c, 0, 75, 0
2, 222848, Note_on_c, 0, 67, 56
2, 222856, Note_on_c, 0, 79, 57
2, 222864, Note_on_c, 0, 73, 54
2, 222976, Control_c, 0, 64, 0
2, 223392, Note_on_c, 0, 39, 44
2, 223504, Control_c, 0, 64, 127
2, 223528, Note_on_c, 0, 79, 0
2, 223568, Note_on_c, 0, 73, 0
2, 223616, Note_on_c, 0, 67, 0
2, 223672, Note_on_c, 0, 39, 0
2, 223808, Note_on_c, 0, 46, 30
2, 224392, Note_on_c, 0, 55, 45
2, 224472, Note_on_c, 0, 55, 0
2, 224736, Note_on_c, 0, 46, 0
2, 224752, Control_c, 0, 64, 0
2, 224760, Note_on_c, 0, 59, 35
2, 224768, Note_on_c, 0, 53, 35
2, 224768, Note_on_c, 0, 62, 40
2, 224992, Control_c, 0, 64, 127
2, 225120, Note_on_c, 0, 62, 0
2, 225160, Note_on_c, 0, 59, 0
2, 225568, Note_on_c, 0, 53, 0
2, 225648, Control_c, 0, 64, 0
2, 225680, Note_on_c, 0, 59, 45
2, 225680, Note_on_c, 0, 56, 25
2, 225712, Note_on_c, 0, 47, 32
2, 225736, Control_c, 0, 64, 127
2, 225888, Note_on_c, 0, 47, 0
2, 225944, Note_on_c, 0, 56, 0
2, 226016, Note_on_c, 0, 59, 0
2, 226624, Note_on_c, 0, 73, 63
2, 226624, Note_on_c, 0, 82, 68
2, 226624, Note_on_c, 0, 67, 62
2, 226632, Note_on_c, 0, 76, 67
2, 226632, Control_c, 0, 64, 0
2, 226656, Note_on_c, 0, 79, 49
2, 226800, Control_c, 0, 64, 127
2, 226992, Note_on_c, 0, 79, 0
2, 227072, Note_on_c, 0, 76, 0
2, 227128, Note_on_c, 0, 82, 0
2, 227144, Note_on_c, 0, 73, 0
2, 227240, Note_on_c, 0, 67, 0
2, 227240, Note_on_c, 0, 81, 56
2, 227248, Note_on_c, 0, 66, 48
2, 227248, Note_on_c, 0, 72, 48
2, 227288, Note_on_c, 0, 75, 23
2, 227352, Note_on_c, 0, 81, 0
2, 227368, Note_on_c, 0, 75, 0
2, 227392, Note_on_c, 0, 72, 0
2, 227464, Control_c, 0, 64, 0
2, 227552, Note_on_c, 0, 66, 0
2, 227592, Note_on_c, 0, 75, 38
2, 227592, Note_on_c, 0, 80, 40
2, 227600, Note_on_c, 0, 65, 37
2, 227608, Note_on_c, 0, 71, 35
2, 227648, Control_c, 0, 64, 127
2, 227776, Note_on_c, 0, 80, 0
2, 227784, Note_on_c, 0, 71, 0
2, 227880, Note_on_c, 0, 75, 0
2, 228112, Note_on_c, 0, 65, 0
2, 228136, Note_on_c, 0, 70, 36
2, 228136, Note_on_c, 0, 79, 48
2, 228160, Note_on_c, 0, 76, 36
2, 228168, Note_on_c, 0, 73, 40
2, 228184, Note_on_c, 0, 64, 35
2, 228200, Control_c, 0, 64, 0
2, 228376, Control_c, 0, 64, 127
2, 228584, Note_on_c, 0, 76, 0
2, 228608, Note_on_c, 0, 79, 0
2, 228704, Note_on_c, 0, 70, 0
2, 228824, Note_on_c, 0, 73, 0
2, 229024, Note_on_c, 0, 64, 0
2, 229072, Note_on_c, 0, 78, 51
2, 229096, Note_on_c, 0, 75, 40
2, 229104, Note_on_c, 0, 69, 33
2, 229112, Note_on_c, 0, 63, 39
2, 229112, Note_on_c, 0, 72, 39
2, 229136, Control_c, 0, 64, 0
2, 229304, Control_c, 0, 64, 127
2, 229400, Note_on_c, 0, 63, 0
2, 229496, Note_on_c, 0, 72, 0
2, 229536, Note_on_c, 0, 78, 0
2, 229584, Note_on_c, 0, 69, 0
2, 229840, Note_on_c, 0, 75, 0
2, 230032, Note_on_c, 0, 77, 42
2, 230032, Note_on_c, 0, 65, 36
2, 230048, Note_on_c, 0, 72, 44
2, 230048, Note_on_c, 0, 60, 28
2, 230056, Note_on_c, 0, 57, 35
2, 230072, Note_on_c, 0, 50, 31
2, 230072, Control_c, 0, 64, 0
2, 230296, Control_c, 0, 64, 127
2, 230712, Note_on_c, 0, 77, 0
2, 230720, Note_on_c, 0, 72, 0
2, 230840, Note_on_c, 0, 65, 0
2, 231560, Note_on_c, 0, 57, 0
2, 231568, Note_on_c, 0, 50, 0
2, 231696, Note_on_c, 0, 60, 0
2, 231832, Note_on_c, 0, 69, 39
2, 231896, Note_on_c, 0, 69, 0
2, 231928, Note_on_c, 0, 72, 48
2, 232040, Note_on_c, 0, 69, 40
2, 232064, Note_on_c, 0, 72, 0
2, 232168, Note_on_c, 0, 65, 36
2, 232184, Note_on_c, 0, 69, 0
2, 232232, Note_on_c, 0, 65, 0
2, 232328, Control_c, 0, 64, 0
2, 232336, Note_on_c, 0, 64, 30
2, 232344, Note_on_c, 0, 59, 41
2, 232360, Note_on_c, 0, 71, 54
2, 232368, Note_on_c, 0, 53, 28
2, 232560, Control_c, 0, 64, 127
2, 232640, Note_on_c, 0, 64, 0
2, 232672, Note_on_c, 0, 59, 0
2, 232736, Note_on_c, 0, 53, 0
2, 232904, Note_on_c, 0, 65, 51
2, 233384, Note_on_c, 0, 65, 0
2, 233448, Note_on_c, 0, 71, 0
2, 234312, Note_on_c, 0, 48, 43
2, 234328, Note_on_c, 0, 59, 62
2, 234352, Note_on_c, 0, 55, 16
2, 234368, Control_c, 0, 64, 0
2, 234408, Note_on_c, 0, 55, 0
2, 234416, Note_on_c, 0, 59, 0
2, 234456, Note_on_c, 0, 60, 49
2, 234592, Note_on_c, 0, 60, 0
2, 234592, Note_on_c, 0, 59, 48
2, 234712, Note_on_c, 0, 59, 0
2, 234752, Note_on_c, 0, 55, 34
2, 234824, Note_on_c, 0, 55, 0
2, 235176, Note_on_c, 0, 58, 25
2, 235224, Note_on_c, 0, 58, 0
2, 235264, Note_on_c, 0, 60, 53
2, 235376, Note_on_c, 0, 58, 35
2, 235416, Note_on_c, 0, 60, 0
2, 235536, Note_on_c, 0, 58, 0
2, 235544, Note_on_c, 0, 55, 55
2, 235648, Note_on_c, 0, 55, 0
2, 235728, Note_on_c, 0, 48, 0
2, 235768, Note_on_c, 0, 56, 57
2, 235936, Note_on_c, 0, 56, 0
2, 236032, Note_on_c, 0, 57, 54
2, 236128, Control_c, 0, 64, 127
2, 236144, Control_c, 0, 64, 0
2, 236240, Note_on_c, 0, 41, 36
2, 236256, Note_on_c, 0, 51, 25
2, 236488, Control_c, 0, 64, 127
2, 236632, Note_on_c, 0, 62, 57
2, 236664, Note_on_c, 0, 57, 0
2, 236864, Note_on_c, 0, 62, 0
2, 236872, Note_on_c, 0, 66, 64
2, 236984, Note_on_c, 0, 66, 0
2, 237288, Note_on_c, 0, 41, 0
2, 237376, Note_on_c, 0, 51, 0
2, 237432, Note_on_c, 0, 69, 65
2, 237584, Note_on_c, 0, 69, 0
2, 237656, Note_on_c, 0, 74, 61
2, 237816, Note_on_c, 0, 74, 0
2, 237864, Note_on_c, 0, 78, 59
2, 237992, Note_on_c, 0, 78, 0
2, 238032, Note_on_c, 0, 60, 33
2, 238040, Note_on_c, 0, 65, 19
2, 238048, Note_on_c, 0, 62, 28
2, 238072, Note_on_c, 0, 76, 50
2, 238080, Control_c, 0, 64, 0
2, 238312, Note_on_c, 0, 65, 0
2, 238320, Control_c, 0, 64, 127
2, 238384, Note_on_c, 0, 69, 45
2, 238504, Note_on_c, 0, 76, 0
2, 238544, Note_on_c, 0, 69, 0
2, 238656, Note_on_c, 0, 81, 61
2, 238728, Note_on_c, 0, 53, 24
2, 238864, Note_on_c, 0, 53, 0
2, 238888, Note_on_c, 0, 60, 0
2, 238944, Note_on_c, 0, 62, 0
2, 238944, Note_on_c, 0, 69, 47
2, 239088, Note_on_c, 0, 69, 0
2, 239136, Note_on_c, 0, 81, 0
2, 239200, Note_on_c, 0, 76, 51
2, 239208, Control_c, 0, 64, 0
2, 239224, Note_on_c, 0, 58, 45
2, 239376, Control_c, 0, 64, 127
2, 239384, Note_on_c, 0, 69, 1
2, 239560, Note_on_c, 0, 69, 0
2, 239656, Note_on_c, 0, 58, 0
2, 239800, Note_on_c, 0, 76, 0
2, 239880, Note_on_c, 0, 69, 34
2, 239904, Note_on_c, 0, 58, 42
2, 240152, Note_on_c, 0, 69, 0
2, 240168, Note_on_c, 0, 58, 0
2, 240240, Note_on_c, 0, 73, 35
2, 240240, Note_on_c, 0, 69, 34
2, 240256, Note_on_c, 0, 76, 50
2, 240640, Note_on_c, 0, 76, 0
2, 240648, Note_on_c, 0, 73, 0
2, 240672, Note_on_c, 0, 69, 0
2, 240912, Note_on_c, 0, 73, 37
2, 240912, Note_on_c, 0, 76, 39
2, 240912, Note_on_c, 0, 69, 43
2, 241440, Note_on_c, 0, 76, 0
2, 241520, Note_on_c, 0, 73, 0
2, 241560, Note_on_c, 0, 69, 0
2, 241968, Note_on_c, 0, 58, 39
2, 242304, Note_on_c, 0, 58, 0
2, 242544, Note_on_c, 0, 58, 34
2, 242848, Note_on_c, 0, 58, 0
2, 242928, Note_on_c, 0, 73, 46
2, 242944, Note_on_c, 0, 64, 34
2, 242944, Note_on_c, 0, 69, 41
2, 243008, Note_on_c, 0, 69, 0
2, 243008, Note_on_c, 0, 64, 0
2, 243056, Note_on_c, 0, 73, 0
2, 243872, Note_on_c, 0, 61, 47
2, 243880, Note_on_c, 0, 67, 44
2, 243888, Note_on_c, 0, 57, 43
2, 243912, Note_on_c, 0, 61, 0
2, 243944, Note_on_c, 0, 62, 41
2, 243952, Note_on_c, 0, 51, 44
2, 243968, Control_c, 0, 64, 0
2, 244016, Note_on_c, 0, 51, 0
2, 244096, Note_on_c, 0, 51, 11
2, 244160, Control_c, 0, 64, 127
2, 244456, Note_on_c, 0, 62, 0
2, 244536, Note_on_c, 0, 57, 0
2, 244632, Note_on_c, 0, 67, 0
2, 244632, Note_on_c, 0, 51, 0
2, 244800, Note_on_c, 0, 41, 18
2, 244816, Note_on_c, 0, 66, 46
2, 244816, Control_c, 0, 64, 0
2, 244816, Note_on_c, 0, 51, 30
2, 244832, Note_on_c, 0, 57, 36
2, 244856, Note_on_c, 0, 61, 35
2, 244984, Note_on_c, 0, 51, 0
2, 245064, Control_c, 0, 64, 127
2, 245248, Note_on_c, 0, 57, 0
2, 245272, Note_on_c, 0, 66, 0
2, 245400, Note_on_c, 0, 61, 0
2, 245688, Control_c, 0, 64, 0
2, 245752, Note_on_c, 0, 55, 33
2, 245760, Note_on_c, 0, 60, 38
2, 245776, Note_on_c, 0, 50, 26
2, 245784, Note_on_c, 0, 65, 26
2, 245832, Control_c, 0, 64, 127
2, 245840, Note_on_c, 0, 55, 0
2, 245872, Note_on_c, 0, 41, 0
2, 245904, Note_on_c, 0, 50, 0
2, 245920, Note_on_c, 0, 60, 0
2, 245976, Note_on_c, 0, 65, 0
2, 246440, Note_on_c, 0, 77, 74
2, 246648, Note_on_c, 0, 77, 0
2, 246656, Control_c, 0, 64, 0
2, 246736, Note_on_c, 0, 60, 30
2, 246736, Note_on_c, 0, 74, 49
2, 246760, Note_on_c, 0, 62, 25
2, 246848, Note_on_c, 0, 74, 0
2, 246912, Control_c, 0, 64, 127
2, 247000, Note_on_c, 0, 75, 49
2, 247120, Note_on_c, 0, 75, 0
2, 247232, Note_on_c, 0, 77, 68
2, 247368, Note_on_c, 0, 77, 0
2, 247488, Note_on_c, 0, 74, 55
2, 247600, Note_on_c, 0, 74, 0
2, 247616, Control_c, 0, 64, 0
2, 247664, Note_on_c, 0, 53, 24
2, 247736, Note_on_c, 0, 65, 38
2, 247816, Note_on_c, 0, 62, 0
2, 247824, Note_on_c, 0, 60, 0
2, 247832, Note_on_c, 0, 65, 0
2, 247872, Control_c, 0, 64, 127
2, 247984, Note_on_c, 0, 65, 46
2, 248064, Note_on_c, 0, 65, 0
2, 248192, Note_on_c, 0, 67, 48
2, 248304, Note_on_c, 0, 67, 0
2, 248456, Note_on_c, 0, 67, 60
2, 248576, Note_on_c, 0, 67, 0
2, 248640, Control_c, 0, 64, 0
2, 248640, Note_on_c, 0, 60, 28
2, 248648, Note_on_c, 0, 62, 41
2, 248672, Note_on_c, 0, 69, 68
2, 248784, Note_on_c, 0, 69, 0
2, 248832, Control_c, 0, 64, 127
2, 248888, Note_on_c, 0, 60, 0
2, 248904, Note_on_c, 0, 69, 46
2, 248936, Note_on_c, 0, 62, 0
2, 249024, Note_on_c, 0, 69, 0
2, 249112, Note_on_c, 0, 70, 59
2, 249216, Note_on_c, 0, 70, 0
2, 249344, Note_on_c, 0, 70, 50
2, 249456, Note_on_c, 0, 70, 0
2, 249496, Control_c, 0, 64, 0
2, 249528, Note_on_c, 0, 56, 23
2, 249552, Note_on_c, 0, 62, 30
2, 249552, Note_on_c, 0, 71, 34
2, 249584, Note_on_c, 0, 59, 35
2, 249696, Note_on_c, 0, 71, 0
2, 249848, Note_on_c, 0, 71, 45
2, 249872, Control_c, 0, 64, 127
2, 249920, Note_on_c, 0, 71, 0
2, 249920, Note_on_c, 0, 53, 0
2, 250056, Note_on_c, 0, 74, 61
2, 250120, Note_on_c, 0, 74, 0
2, 250312, Note_on_c, 0, 74, 68
2, 250424, Note_on_c, 0, 74, 0
2, 250504, Note_on_c, 0, 53, 34
2, 250528, Note_on_c, 0, 77, 41
2, 250528, Control_c, 0, 64, 0
2, 250536, Note_on_c, 0, 76, 47
2, 250584, Note_on_c, 0, 76, 0
2, 250592, Note_on_c, 0, 77, 0
2, 250640, Note_on_c, 0, 59, 0
2, 250664, Note_on_c, 0, 62, 0
2, 250680, Note_on_c, 0, 56, 0
2, 250784, Note_on_c, 0, 77, 49
2, 250784, Control_c, 0, 64, 127
2, 250848, Note_on_c, 0, 77, 0
2, 250968, Note_on_c, 0, 68, 57
2, 250992, Note_on_c, 0, 80, 34
2, 251040, Note_on_c, 0, 80, 0
2, 251064, Note_on_c, 0, 68, 0
2, 251272, Note_on_c, 0, 80, 50
2, 251280, Note_on_c, 0, 68, 44
2, 251312, Note_on_c, 0, 80, 0
2, 251320, Note_on_c, 0, 68, 0
2, 251480, Note_on_c, 0, 70, 62
2, 251504, Note_on_c, 0, 82, 52
2, 251512, Note_on_c, 0, 62, 30
2, 251512, Note_on_c, 0, 56, 25
2, 251520, Control_c, 0, 64, 0
2, 251544, Note_on_c, 0, 59, 33
2, 251592, Note_on_c, 0, 83, 54
2, 251616, Note_on_c, 0, 82, 0
2, 251616, Note_on_c, 0, 70, 0
2, 251664, Note_on_c, 0, 71, 32
2, 251720, Control_c, 0, 64, 127
2, 251752, Note_on_c, 0, 71, 0
2, 251768, Note_on_c, 0, 83, 0
2, 251976, Note_on_c, 0, 85, 72
2, 251984, Note_on_c, 0, 73, 67
2, 252048, Note_on_c, 0, 59, 0
2, 252056, Note_on_c, 0, 86, 55
2, 252080, Note_on_c, 0, 85, 0
2, 252104, Note_on_c, 0, 73, 0
2, 252112, Note_on_c, 0, 74, 59
2, 252120, Note_on_c, 0, 84, 36
2, 252128, Note_on_c, 0, 62, 0
2, 252192, Note_on_c, 0, 84, 0
2, 252216, Note_on_c, 0, 86, 0
2, 252240, Note_on_c, 0, 74, 0
2, 252480, Note_on_c, 0, 82, 48
2, 252480, Control_c, 0, 64, 0
2, 252504, Note_on_c, 0, 70, 35
2, 252520, Note_on_c, 0, 62, 31
2, 252528, Note_on_c, 0, 59, 36
2, 252616, Note_on_c, 0, 70, 0
2, 252616, Note_on_c, 0, 83, 54
2, 252664, Note_on_c, 0, 83, 0
2, 252680, Control_c, 0, 64, 127
2, 252696, Note_on_c, 0, 82, 0
2, 252816, Note_on_c, 0, 53, 0
2, 252984, Note_on_c, 0, 68, 65
2, 253008, Note_on_c, 0, 80, 31
2, 253032, Note_on_c, 0, 53, 38
2, 253168, Note_on_c, 0, 59, 0
2, 253224, Note_on_c, 0, 62, 0
2, 253240, Note_on_c, 0, 56, 0
2, 253256, Note_on_c, 0, 68, 0
2, 253288, Note_on_c, 0, 80, 0
2, 253320, Note_on_c, 0, 53, 0
2, 253448, Control_c, 0, 64, 0
2, 253472, Note_on_c, 0, 69, 51
2, 253480, Note_on_c, 0, 81, 57
2, 253496, Note_on_c, 0, 60, 36
2, 253504, Note_on_c, 0, 53, 24
2, 253512, Note_on_c, 0, 63, 38
2, 253512, Note_on_c, 0, 57, 45
2, 253760, Control_c, 0, 64, 127
2, 253872, Note_on_c, 0, 53, 0
2, 254032, Note_on_c, 0, 63, 0
2, 254192, Note_on_c, 0, 69, 0
2, 254376, Control_c, 0, 64, 0
2, 254400, Note_on_c, 0, 57, 0
2, 254416, Note_on_c, 0, 69, 37
2, 254448, Note_on_c, 0, 53, 36
2, 254456, Note_on_c, 0, 60, 0
2, 254496, Control_c, 0, 64, 127
2, 254856, Note_on_c, 0, 53, 0
2, 255288, Control_c, 0, 64, 0
2, 255352, Note_on_c, 0, 63, 42
2, 255384, Note_on_c, 0, 67, 37
2, 255480, Control_c, 0, 64, 127
2, 255552, Note_on_c, 0, 67, 0
2, 255584, Note_on_c, 0, 63, 0
2, 256256, Control_c, 0, 64, 0
2, 256272, Note_on_c, 0, 53, 52
2, 256344, Note_on_c, 0, 69, 0
2, 256384, Note_on_c, 0, 81, 0
2, 256408, Control_c, 0, 64, 127
2, 257160, Control_c, 0, 64, 0
2, 257216, Note_on_c, 0, 61, 38
2, 257232, Note_on_c, 0, 64, 34
2, 257232, Note_on_c, 0, 58, 36
2, 257352, Control_c, 0, 64, 127
2, 257872, Note_on_c, 0, 53, 0
2, 258176, Control_c, 0, 64, 0
2, 258176, Note_on_c, 0, 53, 38
2, 258176, Note_on_c, 0, 79, 88
2, 258184, Note_on_c, 0, 76, 92
2, 258328, Note_on_c, 0, 76, 0
2, 258352, Note_on_c, 0, 79, 0
2, 258368, Note_on_c, 0, 58, 0
2, 258392, Control_c, 0, 64, 127
2, 258432, Note_on_c, 0, 78, 59
2, 258440, Note_on_c, 0, 64, 0
2, 258440, Note_on_c, 0, 75, 73
2, 258616, Note_on_c, 0, 78, 0
2, 258624, Note_on_c, 0, 75, 0
2, 258680, Note_on_c, 0, 74, 49
2, 258704, Note_on_c, 0, 77, 53
2, 258792, Note_on_c, 0, 74, 0
2, 258840, Note_on_c, 0, 77, 0
2, 258872, Note_on_c, 0, 61, 0
2, 258928, Note_on_c, 0, 76, 62
2, 258944, Note_on_c, 0, 73, 62
2, 259104, Note_on_c, 0, 73, 0
2, 259136, Note_on_c, 0, 76, 0
2, 259160, Control_c, 0, 64, 0
2, 259192, Note_on_c, 0, 75, 52
2, 259192, Note_on_c, 0, 61, 25
2, 259208, Note_on_c, 0, 72, 45
2, 259208, Note_on_c, 0, 58, 27
2, 259224, Note_on_c, 0, 64, 35
2, 259384, Control_c, 0, 64, 127
2, 259544, Note_on_c, 0, 53, 0
2, 259904, Note_on_c, 0, 72, 0
2, 259920, Note_on_c, 0, 64, 0
2, 260008, Note_on_c, 0, 75, 0
2, 260112, Control_c, 0, 64, 0
2, 260160, Note_on_c, 0, 64, 36
2, 260160, Note_on_c, 0, 74, 55
2, 260168, Note_on_c, 0, 71, 54
2, 260264, Note_on_c, 0, 71, 0
2, 260272, Control_c, 0, 64, 127
2, 260288, Note_on_c, 0, 74, 0
2, 260400, Note_on_c, 0, 70, 43
2, 260440, Note_on_c, 0, 73, 39
2, 260504, Note_on_c, 0, 73, 0
2, 260520, Note_on_c, 0, 70, 0
2, 260656, Note_on_c, 0, 69, 40
2, 260672, Note_on_c, 0, 72, 51
2, 260680, Note_on_c, 0, 53, 28
2, 260720, Note_on_c, 0, 69, 0
2, 260752, Note_on_c, 0, 64, 0
2, 260760, Note_on_c, 0, 72, 0
2, 260920, Note_on_c, 0, 70, 51
2, 260936, Note_on_c, 0, 68, 25
2, 261024, Note_on_c, 0, 68, 0
2, 261056, Note_on_c, 0, 61, 0
2, 261064, Note_on_c, 0, 58, 0
2, 261120, Note_on_c, 0, 70, 0
2, 261176, Note_on_c, 0, 69, 56
2, 261184, Note_on_c, 0, 65, 38
2, 261192, Control_c, 0, 64, 0
2, 261208, Note_on_c, 0, 62, 34
2, 261216, Note_on_c, 0, 57, 34
2, 261472, Control_c, 0, 64, 127
2, 261696, Note_on_c, 0, 53, 0
2, 261840, Note_on_c, 0, 65, 0
2, 261864, Note_on_c, 0, 69, 0
2, 262104, Note_on_c, 0, 62, 0
2, 262120, Note_on_c, 0, 57, 0
2, 262136, Note_on_c, 0, 53, 32
2, 262152, Note_on_c, 0, 65, 43
2, 262176, Control_c, 0, 64, 0
2, 262184, Note_on_c, 0, 62, 42
2, 262344, Control_c, 0, 64, 127
2, 262584, Note_on_c, 0, 62, 0
2, 263056, Control_c, 0, 64, 0
2, 263080, Control_c, 0, 64, 127
2, 263088, Note_on_c, 0, 62, 34
2, 263128, Note_on_c, 0, 57, 37
2, 263176, Note_on_c, 0, 65, 0
2, 263536, Note_on_c, 0, 53, 0
2, 263952, Note_on_c, 0, 62, 0
2, 264024, Note_on_c, 0, 62, 28
2, 264032, Control_c, 0, 64, 0
2, 264048, Note_on_c, 0, 53, 57
2, 264056, Note_on_c, 0, 81, 96
2, 264064, Note_on_c, 0, 84, 94
2, 264192, Control_c, 0, 64, 127
2, 264216, Note_on_c, 0, 57, 0
2, 264248, Note_on_c, 0, 81, 0
2, 264296, Note_on_c, 0, 83, 68
2, 264328, Note_on_c, 0, 62, 0
2, 264352, Note_on_c, 0, 84, 0
2, 264472, Note_on_c, 0, 80, 39
2, 264560, Note_on_c, 0, 83, 0
2, 264632, Note_on_c, 0, 80, 0
2, 264688, Note_on_c, 0, 82, 8
2, 264792, Note_on_c, 0, 82, 0
2, 264816, Note_on_c, 0, 81, 24
2, 264856, Note_on_c, 0, 81, 0
2, 264992, Control_c, 0, 64, 0
2, 265008, Note_on_c, 0, 58, 36
2, 265008, Note_on_c, 0, 82, 67
2, 265024, Note_on_c, 0, 62, 39
2, 265024, Note_on_c, 0, 79, 66
2, 265032, Note_on_c, 0, 65, 34
2, 265232, Control_c, 0, 64, 127
2, 265440, Note_on_c, 0, 79, 0
2, 265552, Note_on_c, 0, 53, 0
2, 265600, Note_on_c, 0, 65, 0
2, 265944, Note_on_c, 0, 53, 32
2, 265952, Note_on_c, 0, 77, 35
2, 265952, Note_on_c, 0, 74, 34
2, 266072, Note_on_c, 0, 62, 0
2, 266080, Note_on_c, 0, 58, 0
2, 266168, Note_on_c, 0, 82, 0
2, 266208, Note_on_c, 0, 77, 0
2, 266272, Note_on_c, 0, 74, 0
2, 266856, Note_on_c, 0, 58, 34
2, 266880, Control_c, 0, 64, 0
2, 266904, Note_on_c, 0, 62, 36
2, 266904, Note_on_c, 0, 84, 77
2, 266920, Note_on_c, 0, 77, 74
2, 266936, Note_on_c, 0, 65, 44
2, 266944, Note_on_c, 0, 72, 68
2, 266952, Note_on_c, 0, 78, 30
2, 266968, Note_on_c, 0, 81, 50
2, 267096, Control_c, 0, 64, 127
2, 267232, Note_on_c, 0, 65, 0
2, 267296, Note_on_c, 0, 53, 0
2, 267352, Note_on_c, 0, 84, 0
2, 267376, Note_on_c, 0, 78, 0
2, 267392, Note_on_c, 0, 81, 0
2, 267432, Note_on_c, 0, 72, 0
2, 267456, Note_on_c, 0, 53, 50
2, 267552, Note_on_c, 0, 77, 0
2, 267880, Note_on_c, 0, 82, 62
2, 267896, Note_on_c, 0, 53, 0
2, 267896, Note_on_c, 0, 70, 55
2, 267920, Note_on_c, 0, 77, 59
2, 268200, Note_on_c, 0, 82, 0
2, 268264, Note_on_c, 0, 77, 0
2, 268344, Note_on_c, 0, 70, 0
2, 268424, Note_on_c, 0, 53, 34
2, 268464, Note_on_c, 0, 62, 0
2, 268480, Note_on_c, 0, 58, 0
2, 268832, Note_on_c, 0, 58, 47
2, 268856, Note_on_c, 0, 67, 53
2, 268864, Control_c, 0, 64, 0
2, 268888, Note_on_c, 0, 63, 46
2, 268904, Note_on_c, 0, 70, 62
2, 268944, Note_on_c, 0, 65, 40
2, 268984, Note_on_c, 0, 75, 38
2, 269016, Note_on_c, 0, 77, 48
2, 269088, Note_on_c, 0, 67, 0
2, 269096, Control_c, 0, 64, 127
2, 269136, Note_on_c, 0, 70, 0
2, 269192, Note_on_c, 0, 77, 0
2, 269192, Note_on_c, 0, 75, 0
2, 269528, Note_on_c, 0, 63, 0
2, 269584, Note_on_c, 0, 58, 0
2, 269616, Note_on_c, 0, 53, 0
2, 269624, Note_on_c, 0, 65, 0
2, 269832, Note_on_c, 0, 53, 47
2, 270296, Note_on_c, 0, 77, 55
2, 270304, Note_on_c, 0, 67, 41
2, 270312, Note_on_c, 0, 70, 36
2, 270344, Note_on_c, 0, 75, 28
2, 270352, Note_on_c, 0, 67, 0
2, 270360, Note_on_c, 0, 70, 0
2, 270392, Note_on_c, 0, 75, 0
2, 270416, Note_on_c, 0, 77, 0
2, 270728, Note_on_c, 0, 89, 66
2, 270744, Note_on_c, 0, 63, 33
2, 270744, Note_on_c, 0, 58, 31
2, 270768, Note_on_c, 0, 65, 38
2, 270784, Note_on_c, 0, 89, 0
2, 271184, Note_on_c, 0, 63, 0
2, 271272, Note_on_c, 0, 58, 0
2, 271288, Note_on_c, 0, 53, 0
2, 271616, Note_on_c, 0, 53, 50
2, 271648, Note_on_c, 0, 65, 0
2, 272160, Note_on_c, 0, 75, 52
2, 272184, Note_on_c, 0, 67, 39
2, 272192, Note_on_c, 0, 70, 39
2, 272280, Note_on_c, 0, 67, 0
2, 272432, Note_on_c, 0, 70, 0
2, 272472, Note_on_c, 0, 75, 0
2, 272600, Control_c, 0, 64, 0
2, 272616, Note_on_c, 0, 62, 38
2, 272632, Note_on_c, 0, 69, 61
2, 272648, Note_on_c, 0, 74, 58
2, 272744, Control_c, 0, 64, 127
2, 272752, Note_on_c, 0, 69, 0
2, 272808, Note_on_c, 0, 74, 0
2, 272968, Note_on_c, 0, 53, 0
2, 273160, Note_on_c, 0, 86, 68
2, 273160, Note_on_c, 0, 98, 65
2, 273200, Note_on_c, 0, 86, 0
2, 273208, Note_on_c, 0, 98, 0
2, 273600, Note_on_c, 0, 53, 38
2, 273680, Note_on_c, 0, 62, 0
2, 274096, Note_on_c, 0, 64, 44
2, 274096, Note_on_c, 0, 74, 41
2, 274144, Note_on_c, 0, 64, 0
2, 274216, Note_on_c, 0, 74, 0
2, 274552, Note_on_c, 0, 63, 39
2, 274568, Note_on_c, 0, 65, 54
2, 274576, Control_c, 0, 64, 0
2, 274728, Control_c, 0, 64, 127
2, 274920, Note_on_c, 0, 63, 0
2, 275080, Note_on_c, 0, 98, 60
2, 275096, Note_on_c, 0, 86, 46
2, 275104, Note_on_c, 0, 53, 0
2, 275192, Note_on_c, 0, 86, 0
2, 275192, Note_on_c, 0, 98, 0
2, 275504, Note_on_c, 0, 53, 55
2, 275648, Note_on_c, 0, 65, 0
2, 276464, Control_c, 0, 64, 0
2, 276496, Note_on_c, 0, 65, 36
2, 276496, Note_on_c, 0, 62, 47
2, 276504, Note_on_c, 0, 60, 31
2, 276576, Note_on_c, 0, 65, 0
2, 276592, Control_c, 0, 64, 127
2, 276632, Note_on_c, 0, 62, 0
2, 276648, Note_on_c, 0, 60, 0
2, 276840, Note_on_c, 0, 53, 0
2, 277000, Note_on_c, 0, 70, 63
2, 277000, Note_on_c, 0, 57, 62
2, 277016, Note_on_c, 0, 65, 67
2, 277016, Note_on_c, 0, 60, 48
2, 277248, Note_on_c, 0, 57, 0
2, 277328, Note_on_c, 0, 60, 0
2, 277344, Note_on_c, 0, 65, 0
2, 277368, Note_on_c, 0, 70, 0
2, 277496, Note_on_c, 0, 69, 58
2, 277504, Control_c, 0, 64, 0
2, 277512, Note_on_c, 0, 64, 49
2, 277512, Note_on_c, 0, 55, 50
2, 277528, Note_on_c, 0, 59, 34
2, 277720, Control_c, 0, 64, 127
2, 277760, Note_on_c, 0, 59, 0
2, 277768, Note_on_c, 0, 69, 0
2, 277824, Note_on_c, 0, 64, 0
2, 277880, Note_on_c, 0, 55, 0
2, 277992, Control_c, 0, 64, 0
2, 278000, Note_on_c, 0, 53, 54
2, 278008, Note_on_c, 0, 70, 57
2, 278008, Note_on_c, 0, 60, 53
2, 278016, Note_on_c, 0, 65, 60
2, 278256, Control_c, 0, 64, 127
2, 278440, Control_c, 0, 64, 0
2, 278488, Control_c, 0, 64, 127
2, 278920, Note_on_c, 0, 60, 0
2, 278976, Note_on_c, 0, 65, 0
2, 278984, Note_on_c, 0, 70, 0
2, 279008, Note_on_c, 0, 53, 0
2, 279336, Control_c, 0, 64, 0
2, 279352, Note_on_c, 0, 72, 50
2, 279360, Note_on_c, 0, 65, 41
2, 279360, Note_on_c, 0, 51, 38
2, 279376, Note_on_c, 0, 60, 43
2, 279560, Note_on_c, 0, 60, 0
2, 279584, Note_on_c, 0, 51, 0
2, 279584, Control_c, 0, 64, 127
2, 279632, Note_on_c, 0, 65, 0
2, 279800, Note_on_c, 0, 72, 0
2, 280856, Note_on_c, 0, 68, 69
2, 280856, Note_on_c, 0, 82, 80
2, 280856, Note_on_c, 0, 73, 83
2, 280864, Note_on_c, 0, 78, 71
2, 280912, Control_c, 0, 64, 0
2, 281096, Control_c, 0, 64, 127
2, 281272, Note_on_c, 0, 82, 0
2, 281280, Note_on_c, 0, 73, 0
2, 281288, Note_on_c, 0, 78, 0
2, 281344, Control_c, 0, 64, 0
2, 281352, Note_on_c, 0, 68, 0
2, 281384, Note_on_c, 0, 72, 47
2, 281392, Note_on_c, 0, 81, 60
2, 281408, Note_on_c, 0, 67, 32
2, 281416, Note_on_c, 0, 77, 60
2, 281504, Control_c, 0, 64, 127
2, 281560, Note_on_c, 0, 81, 0
2, 281600, Note_on_c, 0, 77, 0
2, 281656, Note_on_c, 0, 72, 0
2, 281792, Control_c, 0, 64, 0
2, 281824, Note_on_c, 0, 67, 0
2, 281840, Note_on_c, 0, 80, 59
2, 281856, Note_on_c, 0, 66, 44
2, 281864, Note_on_c, 0, 76, 53
2, 281872, Note_on_c, 0, 71, 48
2, 281928, Control_c, 0, 64, 127
2, 282040, Note_on_c, 0, 76, 0
2, 282048, Note_on_c, 0, 71, 0
2, 282080, Note_on_c, 0, 80, 0
2, 282280, Note_on_c, 0, 66, 0
2, 282288, Control_c, 0, 64, 0
2, 282320, Note_on_c, 0, 65, 40
2, 282320, Note_on_c, 0, 70, 59
2, 282344, Note_on_c, 0, 79, 48
2, 282352, Note_on_c, 0, 75, 44
2, 282536, Control_c, 0, 64, 127
2, 282856, Note_on_c, 0, 70, 0
2, 282976, Note_on_c, 0, 75, 0
2, 283000, Note_on_c, 0, 79, 0
2, 283176, Control_c, 0, 64, 0
2, 283208, Note_on_c, 0, 78, 45
2, 283216, Note_on_c, 0, 65, 0
2, 283216, Note_on_c, 0, 74, 54
2, 283216, Note_on_c, 0, 69, 48
2, 283272, Note_on_c, 0, 64, 34
2, 283312, Control_c, 0, 64, 127
2, 283376, Note_on_c, 0, 64, 0
2, 283624, Note_on_c, 0, 74, 0
2, 283688, Note_on_c, 0, 78, 0
2, 283824, Note_on_c, 0, 69, 0
2, 284160, Note_on_c, 0, 77, 55
2, 284160, Control_c, 0, 64, 0
2, 284168, Note_on_c, 0, 70, 47
2, 284168, Note_on_c, 0, 67, 36
2, 284176, Note_on_c, 0, 59, 31
2, 284392, Control_c, 0, 64, 127
2, 284592, Note_on_c, 0, 77, 0
2, 284672, Note_on_c, 0, 59, 0
2, 284696, Note_on_c, 0, 48, 50
2, 284712, Note_on_c, 0, 70, 0
2, 284720, Note_on_c, 0, 67, 0
2, 285080, Note_on_c, 0, 48, 0
2, 285152, Note_on_c, 0, 63, 46
2, 285176, Note_on_c, 0, 70, 47
2, 285184, Note_on_c, 0, 67, 41
2, 285256, Control_c, 0, 64, 0
2, 285632, Note_on_c, 0, 62, 85
2, 285864, Note_on_c, 0, 67, 0
2, 285896, Note_on_c, 0, 63, 0
2, 286096, Note_on_c, 0, 63, 33
2, 286120, Note_on_c, 0, 67, 38
2, 286128, Control_c, 0, 64, 127
2, 286192, Note_on_c, 0, 62, 0
2, 286344, Note_on_c, 0, 67, 0
2, 286400, Note_on_c, 0, 70, 0
2, 286480, Note_on_c, 0, 63, 0
2, 286640, Note_on_c, 0, 55, 64
2, 286920, Note_on_c, 0, 55, 0
2, 287104, Note_on_c, 0, 63, 39
2, 287112, Note_on_c, 0, 67, 30
2, 287128, Note_on_c, 0, 62, 40
2, 287408, Control_c, 0, 64, 0
2, 287496, Note_on_c, 0, 67, 0
2, 287576, Note_on_c, 0, 62, 0
2, 287592, Note_on_c, 0, 41, 58
2, 287600, Control_c, 0, 64, 127
2, 287752, Note_on_c, 0, 63, 0
2, 288008, Control_c, 0, 64, 0
2, 288064, Note_on_c, 0, 62, 45
2, 288064, Note_on_c, 0, 66, 45
2, 288072, Note_on_c, 0, 57, 46
2, 288304, Control_c, 0, 64, 127
2, 288416, Note_on_c, 0, 41, 0
2, 288528, Note_on_c, 0, 51, 82
2, 288552, Control_c, 0, 64, 0
2, 288600, Note_on_c, 0, 57, 0
2, 288672, Note_on_c, 0, 62, 0
2, 289016, Note_on_c, 0, 57, 37
2, 289016, Note_on_c, 0, 62, 36
2, 289024, Control_c, 0, 64, 127
2, 289040, Note_on_c, 0, 51, 0
2, 289176, Note_on_c, 0, 57, 0
2, 289344, Note_on_c, 0, 62, 0
2, 289448, Control_c, 0, 64, 0
2, 289464, Note_on_c, 0, 66, 0
2, 289480, Note_on_c, 0, 57, 68
2, 289552, Control_c, 0, 64, 127
2, 289920, Note_on_c, 0, 57, 0
2, 289960, Control_c, 0, 64, 0
2, 289968, Note_on_c, 0, 75, 59
2, 289976, Note_on_c, 0, 67, 56
2, 289992, Note_on_c, 0, 72, 57
2, 290064, Control_c, 0, 64, 127
2, 290448, Note_on_c, 0, 62, 75
2, 290464, Note_on_c, 0, 72, 0
2, 290520, Note_on_c, 0, 75, 0
2, 290528, Note_on_c, 0, 67, 0
2, 290768, Note_on_c, 0, 62, 0
2, 290848, Control_c, 0, 64, 0
2, 290888, Note_on_c, 0, 74, 54
2, 290896, Note_on_c, 0, 64, 48
2, 290904, Note_on_c, 0, 71, 45
2, 290904, Note_on_c, 0, 68, 50
2, 290912, Note_on_c, 0, 60, 60
2, 291024, Control_c, 0, 64, 127
2, 291200, Note_on_c, 0, 71, 0
2, 291216, Note_on_c, 0, 74, 0
2, 291264, Note_on_c, 0, 64, 0
2, 291296, Control_c, 0, 64, 0
2, 291304, Note_on_c, 0, 68, 0
2, 291336, Note_on_c, 0, 60, 0
2, 291392, Note_on_c, 0, 72, 42
2, 291408, Note_on_c, 0, 54, 47
2, 291424, Note_on_c, 0, 64, 34
2, 291440, Control_c, 0, 64, 127
2, 291448, Note_on_c, 0, 67, 31
2, 291616, Note_on_c, 0, 64, 0
2, 291632, Note_on_c, 0, 67, 0
2, 291720, Note_on_c, 0, 72, 0
2, 291840, Control_c, 0, 64, 0
2, 291856, Note_on_c, 0, 54, 0
2, 291872, Note_on_c, 0, 70, 29
2, 291888, Note_on_c, 0, 55, 49
2, 291896, Note_on_c, 0, 67, 30
2, 291904, Note_on_c, 0, 62, 19
2, 292352, Note_on_c, 0, 43, 55
2, 292424, Control_c, 0, 64, 127
2, 292504, Control_c, 0, 64, 0
2, 292632, Note_on_c, 0, 62, 0
2, 292632, Note_on_c, 0, 67, 0
2, 292632, Note_on_c, 0, 55, 0
2, 292664, Note_on_c, 0, 43, 0
2, 292688, Note_on_c, 0, 70, 0
2, 293312, Note_on_c, 0, 66, 45
2, 293320, Note_on_c, 0, 62, 35
2, 293344, Note_on_c, 0, 54, 34
2, 293616, Note_on_c, 0, 62, 0
2, 293696, Note_on_c, 0, 66, 0
2, 293760, Note_on_c, 0, 54, 0
2, 293768, Note_on_c, 0, 62, 24
2, 293784, Note_on_c, 0, 67, 37
2, 293784, Note_on_c, 0, 55, 39
2, 294024, Note_on_c, 0, 55, 0
2, 294072, Control_c, 0, 64, 127
2, 294120, Note_on_c, 0, 62, 0
2, 294376, Note_on_c, 0, 67, 0
2, 294656, Control_c, 0, 64, 0
2, 294784, Note_on_c, 0, 53, 34
2, 294784, Note_on_c, 0, 43, 34
2, 294784, Note_on_c, 0, 65, 39
2, 294784, Note_on_c, 0, 62, 34
2, 294808, Note_on_c, 0, 69, 35
2, 294888, Control_c, 0, 64, 127
2, 295032, Note_on_c, 0, 43, 0
2, 295192, Note_on_c, 0, 62, 0
2, 295200, Note_on_c, 0, 65, 0
2, 295256, Note_on_c, 0, 69, 0
2, 295296, Note_on_c, 0, 53, 0
2, 295536, Note_on_c, 0, 51, 31
2, 295608, Note_on_c, 0, 54, 59
2, 295664, Note_on_c, 0, 51, 0
2, 295704, Note_on_c, 0, 58, 53
2, 295712, Control_c, 0, 64, 0
2, 295712, Note_on_c, 0, 67, 41
2, 295720, Note_on_c, 0, 62, 46
2, 295728, Note_on_c, 0, 55, 60
2, 295736, Note_on_c, 0, 65, 47
2, 295760, Note_on_c, 0, 54, 0
2, 296048, Note_on_c, 0, 54, 51
2, 296064, Note_on_c, 0, 55, 0
2, 296200, Note_on_c, 0, 54, 0
2, 296320, Note_on_c, 0, 53, 62
2, 296584, Control_c, 0, 64, 127
2, 297016, Note_on_c, 0, 62, 0
2, 297032, Note_on_c, 0, 65, 0
2, 297072, Note_on_c, 0, 58, 0
2, 297704, Note_on_c, 0, 58, 43
2, 297736, Note_on_c, 0, 65, 53
2, 297744, Note_on_c, 0, 62, 39
2, 298232, Note_on_c, 0, 65, 0
2, 298304, Note_on_c, 0, 62, 0
2, 298320, Note_on_c, 0, 53, 0
2, 298328, Note_on_c, 0, 58, 0
2, 298480, Note_on_c, 0, 67, 0
2, 299512, Note_on_c, 0, 62, 54
2, 299528, Note_on_c, 0, 24, 42
2, 299536, Control_c, 0, 64, 0
2, 299536, Note_on_c, 0, 58, 32
2, 299544, Note_on_c, 0, 36, 22
2, 299552, Note_on_c, 0, 52, 20
2, 299632, Note_on_c, 0, 52, 0
2, 299672, Note_on_c, 0, 24, 0
2, 299688, Control_c, 0, 64, 127
2, 299728, Note_on_c, 0, 62, 0
2, 299752, Note_on_c, 0, 36, 0
2, 299776, Note_on_c, 0, 58, 0
2, 301336, Control_c, 0, 64, 0
2, 301344, Note_on_c, 0, 74, 53
2, 301360, Note_on_c, 0, 66, 59
2, 301368, Note_on_c, 0, 60, 53
2, 301368, Note_on_c, 0, 69, 52
2, 301496, Note_on_c, 0, 69, 0
2, 301504, Note_on_c, 0, 74, 0
2, 301536, Note_on_c, 0, 60, 0
2, 301568, Note_on_c, 0, 66, 0
2, 301600, Control_c, 0, 64, 127
2, 301600, Note_on_c, 0, 73, 50
2, 301616, Note_on_c, 0, 61, 40
2, 301648, Note_on_c, 0, 68, 37
2, 301688, Control_c, 0, 64, 0
2, 301712, Note_on_c, 0, 68, 0
2, 301760, Note_on_c, 0, 73, 0
2, 301792, Note_on_c, 0, 61, 0
2, 301856, Note_on_c, 0, 62, 37
2, 301888, Control_c, 0, 64, 127
2, 301992, Note_on_c, 0, 62, 0
2, 302088, Note_on_c, 0, 63, 43
2, 302224, Note_on_c, 0, 63, 0
2, 302280, Control_c, 0, 64, 0
2, 302304, Note_on_c, 0, 64, 51
2, 302312, Note_on_c, 0, 71, 47
2, 302336, Note_on_c, 0, 67, 52
2, 302344, Note_on_c, 0, 63, 29
2, 302360, Note_on_c, 0, 64, 0
2, 302464, Control_c, 0, 64, 127
2, 302600, Note_on_c, 0, 71, 0
2, 302608, Note_on_c, 0, 67, 0
2, 302632, Note_on_c, 0, 63, 0
2, 302800, Note_on_c, 0, 42, 52
2, 303072, Note_on_c, 0, 42, 0
2, 303256, Control_c, 0, 64, 0
2, 303280, Note_on_c, 0, 51, 42
2, 303296, Note_on_c, 0, 62, 38
2, 303296, Note_on_c, 0, 67, 40
2, 303312, Note_on_c, 0, 41, 40
2, 303312, Note_on_c, 0, 57, 26
2, 303472, Control_c, 0, 64, 127
2, 303544, Note_on_c, 0, 57, 0
2, 303608, Note_on_c, 0, 41, 0
2, 303624, Note_on_c, 0, 62, 0
2, 303656, Note_on_c, 0, 67, 0
2, 303720, Note_on_c, 0, 51, 0
2, 304240, Note_on_c, 0, 74, 73
2, 304256, Note_on_c, 0, 67, 74
2, 304264, Control_c, 0, 64, 0
2, 304272, Note_on_c, 0, 63, 67
2, 304280, Note_on_c, 0, 62, 57
2, 304456, Note_on_c, 0, 74, 0
2, 304496, Note_on_c, 0, 67, 0
2, 304504, Control_c, 0, 64, 127
2, 304520, Note_on_c, 0, 62, 0
2, 304520, Note_on_c, 0, 61, 48
2, 304544, Note_on_c, 0, 63, 0
2, 304632, Control_c, 0, 64, 0
2, 304712, Note_on_c, 0, 61, 0
2, 304768, Note_on_c, 0, 63, 48
2, 304768, Note_on_c, 0, 67, 51
2, 304768, Note_on_c, 0, 60, 53
2, 304776, Note_on_c, 0, 72, 44
2, 304912, Control_c, 0, 64, 127
2, 305256, Note_on_c, 0, 72, 0
2, 305264, Note_on_c, 0, 67, 0
2, 305376, Note_on_c, 0, 63, 0
2, 305464, Note_on_c, 0, 60, 0
2, 305784, Control_c, 0, 64, 0
2, 305808, Note_on_c, 0, 70, 50
2, 305824, Note_on_c, 0, 63, 37
2, 305832, Note_on_c, 0, 58, 37
2, 305848, Note_on_c, 0, 60, 32
2, 305888, Control_c, 0, 64, 127
2, 306008, Note_on_c, 0, 58, 0
2, 306024, Note_on_c, 0, 60, 0
2, 306048, Note_on_c, 0, 70, 0
2, 306136, Note_on_c, 0, 63, 0
2, 306248, Control_c, 0, 64, 0
2, 306312, Note_on_c, 0, 69, 49
2, 306312, Note_on_c, 0, 66, 37
2, 306320, Note_on_c, 0, 62, 42
2, 306336, Note_on_c, 0, 57, 24
2, 306448, Note_on_c, 0, 57, 0
2, 306448, Control_c, 0, 64, 127
2, 306776, Note_on_c, 0, 62, 0
2, 306800, Note_on_c, 0, 66, 0
2, 306816, Note_on_c, 0, 69, 0
2, 306848, Note_on_c, 0, 41, 54
2, 307200, Control_c, 0, 64, 0
2, 307376, Control_c, 0, 64, 127
2, 307592, Note_on_c, 0, 41, 0
2, 307752, Note_on_c, 0, 41, 52
2, 308200, Control_c, 0, 64, 0
2, 308232, Note_on_c, 0, 70, 34
2, 308240, Note_on_c, 0, 62, 35
2, 308248, Note_on_c, 0, 65, 49
2, 308248, Note_on_c, 0, 60, 35
2, 308696, Note_on_c, 0, 53, 55
2, 308792, Control_c, 0, 64, 127
2, 308976, Note_on_c, 0, 60, 0
2, 308992, Note_on_c, 0, 62, 0
2, 309040, Note_on_c, 0, 65, 0
2, 309040, Note_on_c, 0, 70, 0
2, 309312, Note_on_c, 0, 53, 0
2, 309632, Note_on_c, 0, 53, 75
2, 310024, Note_on_c, 0, 41, 0
2, 310496, Note_on_c, 0, 53, 0
2, 310560, Note_on_c, 0, 41, 30
2, 310624, Note_on_c, 0, 41, 0
2, 310936, Note_on_c, 0, 53, 38
2, 310960, Note_on_c, 0, 67, 56
2, 310992, Note_on_c, 0, 61, 23
2, 311016, Note_on_c, 0, 73, 54
2, 311032, Note_on_c, 0, 58, 32
2, 311064, Note_on_c, 0, 76, 64
2, 311072, Control_c, 0, 64, 0
2, 311088, Note_on_c, 0, 64, 45
2, 311128, Note_on_c, 0, 79, 55
2, 311344, Control_c, 0, 64, 127
2, 311680, Note_on_c, 0, 53, 0
2, 311792, Note_on_c, 0, 58, 0
2, 311936, Note_on_c, 0, 53, 35
2, 312192, Note_on_c, 0, 64, 0
2, 312416, Note_on_c, 0, 61, 0
2, 312744, Note_on_c, 0, 67, 0
2, 312760, Note_on_c, 0, 76, 0
2, 312800, Note_on_c, 0, 79, 0
2, 312816, Note_on_c, 0, 73, 0
2, 312832, Note_on_c, 0, 53, 0
2, 313240, Note_on_c, 0, 53, 54
2, 313280, Note_on_c, 0, 56, 45
2, 313304, Note_on_c, 0, 70, 55
2, 313352, Note_on_c, 0, 68, 39
2, 313368, Note_on_c, 0, 59, 41
2, 313384, Control_c, 0, 64, 0
2, 313408, Note_on_c, 0, 70, 0
2, 313424, Note_on_c, 0, 62, 58
2, 313424, Note_on_c, 0, 71, 71
2, 313432, Note_on_c, 0, 74, 74
2, 313464, Note_on_c, 0, 79, 62
2, 313624, Control_c, 0, 64, 127
2, 313792, Note_on_c, 0, 79, 0
2, 313832, Note_on_c, 0, 53, 0
2, 313864, Note_on_c, 0, 74, 0
2, 313904, Note_on_c, 0, 77, 65
2, 313920, Note_on_c, 0, 53, 24
2, 314048, Note_on_c, 0, 53, 0
2, 314240, Note_on_c, 0, 68, 0
2, 314240, Note_on_c, 0, 77, 0
2, 314256, Note_on_c, 0, 71, 0
2, 314368, Note_on_c, 0, 79, 68
2, 314376, Note_on_c, 0, 59, 0
2, 314392, Note_on_c, 0, 53, 58
2, 314400, Note_on_c, 0, 56, 0
2, 314440, Note_on_c, 0, 62, 0
2, 314488, Note_on_c, 0, 79, 0
2, 314632, Note_on_c, 0, 70, 37
2, 314680, Note_on_c, 0, 70, 0
2, 314840, Note_on_c, 0, 63, 43
2, 314856, Note_on_c, 0, 65, 36
2, 314864, Note_on_c, 0, 69, 59
2, 314872, Note_on_c, 0, 57, 52
2, 314896, Control_c, 0, 64, 0
2, 315152, Control_c, 0, 64, 127
2, 315160, Note_on_c, 0, 53, 0
2, 315296, Note_on_c, 0, 65, 0
2, 315336, Note_on_c, 0, 69, 0
2, 315360, Note_on_c, 0, 53, 61
2, 315600, Note_on_c, 0, 63, 0
2, 315704, Note_on_c, 0, 57, 0
2, 315840, Note_on_c, 0, 63, 40
2, 315840, Note_on_c, 0, 69, 57
2, 315848, Note_on_c, 0, 81, 59
2, 315848, Note_on_c, 0, 78, 39
2, 315856, Note_on_c, 0, 74, 54
2, 315872, Note_on_c, 0, 57, 38
2, 315888, Note_on_c, 0, 69, 0
2, 315904, Note_on_c, 0, 74, 0
2, 315960, Note_on_c, 0, 78, 0
2, 315992, Note_on_c, 0, 81, 0
2, 316024, Note_on_c, 0, 53, 0
2, 316296, Note_on_c, 0, 53, 49
2, 316352, Note_on_c, 0, 86, 73
2, 316352, Note_on_c, 0, 93, 74
2, 316384, Note_on_c, 0, 57, 0
2, 316400, Note_on_c, 0, 63, 0
2, 316560, Note_on_c, 0, 86, 0
2, 316672, Note_on_c, 0, 93, 0
2, 316776, Note_on_c, 0, 63, 39
2, 316840, Note_on_c, 0, 57, 34
2, 317024, Note_on_c, 0, 53, 0
2, 317312, Note_on_c, 0, 53, 39
2, 317624, Note_on_c, 0, 53, 0
2, 318128, Note_on_c, 0, 63, 0
2, 318168, Note_on_c, 0, 57, 0
2, 318288, Note_on_c, 0, 53, 58
2, 318656, Note_on_c, 0, 58, 48
2, 318728, Note_on_c, 0, 61, 37
2, 318792, Note_on_c, 0, 73, 57
2, 318816, Note_on_c, 0, 64, 46
2, 318840, Control_c, 0, 64, 0
2, 318840, Note_on_c, 0, 76, 51
2, 318880, Note_on_c, 0, 81, 73
2, 319088, Control_c, 0, 64, 127
2, 319216, Note_on_c, 0, 53, 0
2, 319776, Note_on_c, 0, 53, 44
2, 320184, Note_on_c, 0, 81, 0
2, 320200, Note_on_c, 0, 58, 0
2, 320240, Note_on_c, 0, 64, 0
2, 320376, Note_on_c, 0, 61, 0
2, 320432, Note_on_c, 0, 73, 0
2, 320472, Note_on_c, 0, 76, 0
2, 320696, Note_on_c, 0, 79, 36
2, 320712, Note_on_c, 0, 73, 35
2, 320720, Note_on_c, 0, 61, 25
2, 320720, Note_on_c, 0, 67, 28
2, 320728, Note_on_c, 0, 76, 37
2, 320744, Note_on_c, 0, 58, 27
2, 320760, Note_on_c, 0, 64, 20
2, 320760, Control_c, 0, 64, 0
2, 321024, Control_c, 0, 64, 127
2, 321104, Note_on_c, 0, 53, 0
2, 321600, Note_on_c, 0, 67, 0
2, 321616, Note_on_c, 0, 53, 22
2, 321664, Note_on_c, 0, 79, 0
2, 321776, Note_on_c, 0, 76, 0
2, 321832, Note_on_c, 0, 64, 0
2, 321864, Note_on_c, 0, 58, 0
2, 321896, Note_on_c, 0, 73, 0
2, 322168, Note_on_c, 0, 61, 0
2, 322232, Note_on_c, 0, 81, 71
2, 322336, Note_on_c, 0, 81, 0
2, 322576, Note_on_c, 0, 57, 32
2, 322584, Note_on_c, 0, 74, 44
2, 322592, Note_on_c, 0, 62, 27
2, 322592, Note_on_c, 0, 69, 37
2, 322600, Note_on_c, 0, 65, 29
2, 322608, Control_c, 0, 64, 0
2, 322912, Control_c, 0, 64, 127
2, 322960, Note_on_c, 0, 74, 0
2, 323008, Note_on_c, 0, 65, 0
2, 323032, Note_on_c, 0, 69, 0
2, 323176, Note_on_c, 0, 53, 0
2, 323208, Note_on_c, 0, 74, 52
2, 323224, Note_on_c, 0, 69, 37
2, 323280, Note_on_c, 0, 69, 0
2, 323288, Note_on_c, 0, 74, 0
2, 323488, Control_c, 0, 64, 0
2, 323504, Note_on_c, 0, 53, 36
2, 323976, Note_on_c, 0, 57, 0
2, 324032, Note_on_c, 0, 62, 0
2, 324168, Note_on_c, 0, 86, 85
2, 324184, Control_c, 0, 64, 127
2, 324328, Note_on_c, 0, 86, 0
2, 324440, Control_c, 0, 64, 0
2, 324472, Note_on_c, 0, 62, 31
2, 324480, Note_on_c, 0, 77, 57
2, 324480, Note_on_c, 0, 86, 50
2, 324480, Note_on_c, 0, 57, 30
2, 324496, Note_on_c, 0, 80, 46
2, 324712, Note_on_c, 0, 80, 0
2, 324776, Note_on_c, 0, 81, 24
2, 324856, Note_on_c, 0, 81, 0
2, 324872, Note_on_c, 0, 86, 0
2, 324880, Note_on_c, 0, 77, 0
2, 325024, Note_on_c, 0, 53, 0
2, 325064, Note_on_c, 0, 86, 51
2, 325072, Note_on_c, 0, 77, 37
2, 325096, Note_on_c, 0, 81, 32
2, 325120, Note_on_c, 0, 86, 0
2, 325160, Note_on_c, 0, 81, 0
2, 325184, Note_on_c, 0, 77, 0
2, 325384, Note_on_c, 0, 53, 29
2, 325480, Control_c, 0, 64, 127
2, 325640, Note_on_c, 0, 53, 0
2, 325992, Note_on_c, 0, 57, 0
2, 326040, Note_on_c, 0, 53, 42
2, 326120, Note_on_c, 0, 62, 0
2, 326400, Note_on_c, 0, 58, 37
2, 326408, Note_on_c, 0, 68, 49
2, 326408, Note_on_c, 0, 72, 55
2, 326408, Note_on_c, 0, 65, 38
2, 326424, Control_c, 0, 64, 0
2, 326456, Note_on_c, 0, 62, 26
2, 326464, Note_on_c, 0, 60, 31
2, 326480, Note_on_c, 0, 68, 0
2, 326512, Note_on_c, 0, 69, 48
2, 326776, Note_on_c, 0, 53, 0
2, 326912, Note_on_c, 0, 72, 0
2, 326960, Note_on_c, 0, 65, 0
2, 326968, Note_on_c, 0, 69, 0
2, 327024, Control_c, 0, 64, 127
2, 327040, Note_on_c, 0, 72, 47
2, 327072, Note_on_c, 0, 69, 50
2, 327136, Note_on_c, 0, 53, 40
2, 327224, Note_on_c, 0, 69, 0
2, 327248, Note_on_c, 0, 60, 0
2, 327264, Note_on_c, 0, 62, 0
2, 327272, Note_on_c, 0, 58, 0
2, 327296, Note_on_c, 0, 72, 0
2, 327392, Note_on_c, 0, 62, 46
2, 327400, Note_on_c, 0, 70, 60
2, 327424, Note_on_c, 0, 67, 39
2, 327472, Control_c, 0, 64, 0
2, 327488, Note_on_c, 0, 67, 0
2, 327512, Note_on_c, 0, 62, 0
2, 327584, Note_on_c, 0, 70, 0
2, 327944, Note_on_c, 0, 53, 0
2, 328048, Note_on_c, 0, 53, 60
2, 328056, Control_c, 0, 64, 127
2, 328360, Control_c, 0, 64, 0
2, 328376, Note_on_c, 0, 80, 53
2, 328376, Note_on_c, 0, 84, 69
2, 328384, Note_on_c, 0, 76, 45
2, 328400, Note_on_c, 0, 77, 37
2, 328416, Note_on_c, 0, 62, 37
2, 328432, Note_on_c, 0, 58, 28
2, 328472, Note_on_c, 0, 60, 28
2, 328480, Note_on_c, 0, 80, 0
2, 328504, Note_on_c, 0, 81, 44
2, 328576, Note_on_c, 0, 77, 0
2, 328768, Control_c, 0, 64, 127
2, 328816, Note_on_c, 0, 76, 0
2, 328840, Note_on_c, 0, 53, 0
2, 328848, Note_on_c, 0, 81, 0
2, 328888, Note_on_c, 0, 84, 0
2, 329016, Note_on_c, 0, 82, 54
2, 329024, Note_on_c, 0, 74, 39
2, 329040, Note_on_c, 0, 79, 34
2, 329088, Note_on_c, 0, 79, 0
2, 329112, Note_on_c, 0, 74, 0
2, 329128, Note_on_c, 0, 82, 0
2, 329296, Control_c, 0, 64, 0
2, 329320, Note_on_c, 0, 53, 52
2, 329392, Note_on_c, 0, 60, 0
2, 329408, Note_on_c, 0, 58, 0
2, 329408, Note_on_c, 0, 62, 0
2, 329472, Control_c, 0, 64, 127
2, 329624, Note_on_c, 0, 53, 0
2, 329984, Note_on_c, 0, 53, 40
2, 330312, Control_c, 0, 64, 0
2, 330312, Note_on_c, 0, 60, 50
2, 330312, Note_on_c, 0, 63, 60
2, 330320, Note_on_c, 0, 75, 59
2, 330320, Note_on_c, 0, 77, 64
2, 330328, Note_on_c, 0, 70, 55
2, 330336, Note_on_c, 0, 67, 50
2, 330352, Note_on_c, 0, 58, 29
2, 330472, Note_on_c, 0, 53, 0
2, 330736, Control_c, 0, 64, 127
2, 330904, Note_on_c, 0, 63, 0
2, 330952, Note_on_c, 0, 60, 0
2, 330968, Note_on_c, 0, 58, 0
2, 331232, Control_c, 0, 64, 0
2, 331272, Note_on_c, 0, 53, 64
2, 331384, Note_on_c, 0, 53, 0
2, 331416, Control_c, 0, 64, 127
2, 332168, Control_c, 0, 64, 0
2, 332216, Note_on_c, 0, 41, 36
2, 332216, Note_on_c, 0, 29, 32
2, 332440, Control_c, 0, 64, 127
2, 332800, Note_on_c, 0, 29, 0
2, 332856, Note_on_c, 0, 41, 0
2, 333128, Note_on_c, 0, 29, 37
2, 333144, Note_on_c, 0, 41, 33
2, 333224, Note_on_c, 0, 29, 0
2, 333304, Note_on_c, 0, 41, 0
2, 333376, Note_on_c, 0, 67, 0
2, 333424, Note_on_c, 0, 70, 0
2, 333520, Note_on_c, 0, 77, 0
2, 333528, Note_on_c, 0, 75, 0
2, 333904, Note_on_c, 0, 57, 53
2, 333976, Note_on_c, 0, 74, 63
2, 334008, Note_on_c, 0, 62, 22
2, 334024, Note_on_c, 0, 78, 50
2, 334064, Note_on_c, 0, 63, 36
2, 334080, Control_c, 0, 64, 0
2, 334088, Note_on_c, 0, 81, 62
2, 334096, Note_on_c, 0, 67, 55
2, 334152, Note_on_c, 0, 86, 74
2, 334312, Control_c, 0, 64, 127
2, 334352, Note_on_c, 0, 67, 0
2, 334392, Note_on_c, 0, 62, 0
2, 334424, Note_on_c, 0, 63, 0
2, 334464, Note_on_c, 0, 57, 0
2, 334952, Note_on_c, 0, 41, 50
2, 335064, Note_on_c, 0, 74, 0
2, 335064, Note_on_c, 0, 86, 0
2, 335080, Note_on_c, 0, 78, 0
2, 335096, Note_on_c, 0, 41, 0
2, 335128, Note_on_c, 0, 81, 0
2, 336000, Note_on_c, 0, 72, 44
2, 336000, Note_on_c, 0, 66, 45
2, 336000, Note_on_c, 0, 69, 51
2, 336016, Note_on_c, 0, 62, 48
2, 336024, Note_on_c, 0, 60, 36
2, 336072, Control_c, 0, 64, 0
2, 336248, Note_on_c, 0, 60, 0
2, 336304, Control_c, 0, 64, 127
2, 336448, Note_on_c, 0, 62, 0
2, 336672, Note_on_c, 0, 66, 0
2, 336960, Note_on_c, 0, 69, 0
2, 336976, Note_on_c, 0, 66, 40
2, 336984, Note_on_c, 0, 41, 32
2, 336992, Note_on_c, 0, 62, 33
2, 337056, Note_on_c, 0, 41, 0
2, 337168, Note_on_c, 0, 62, 0
2, 337216, Note_on_c, 0, 72, 0
2, 337360, Note_on_c, 0, 66, 0
2, 337920, Note_on_c, 0, 70, 50
2, 337960, Note_on_c, 0, 65, 36
2, 337968, Note_on_c, 0, 55, 42
2, 337976, Note_on_c, 0, 60, 17
2, 337992, Control_c, 0, 64, 0
2, 338176, Note_on_c, 0, 55, 0
2, 338200, Note_on_c, 0, 65, 0
2, 338216, Note_on_c, 0, 70, 0
2, 338272, Note_on_c, 0, 60, 0
2, 338832, Note_on_c, 0, 54, 33
2, 338832, Note_on_c, 0, 59, 34
2, 338848, Note_on_c, 0, 64, 36
2, 338856, Note_on_c, 0, 69, 33
2, 339152, Note_on_c, 0, 59, 0
2, 339192, Note_on_c, 0, 69, 0
2, 339200, Note_on_c, 0, 54, 0
2, 339200, Control_c, 0, 64, 127
2, 339232, Note_on_c, 0, 64, 0
2, 339640, Control_c, 0, 64, 0
2, 339784, Note_on_c, 0, 70, 47
2, 339824, Note_on_c, 0, 65, 37
2, 339840, Note_on_c, 0, 55, 40
2, 339856, Control_c, 0, 64, 127
2, 339856, Note_on_c, 0, 60, 16
2, 339952, Note_on_c, 0, 60, 0
2, 339968, Note_on_c, 0, 65, 0
2, 340056, Note_on_c, 0, 55, 0
2, 340080, Note_on_c, 0, 70, 0
2, 340800, Note_on_c, 0, 62, 38
2, 340808, Note_on_c, 0, 72, 40
2, 340808, Note_on_c, 0, 57, 35
2, 340816, Note_on_c, 0, 67, 34
2, 340936, Note_on_c, 0, 57, 0
2, 340984, Note_on_c, 0, 62, 0
2, 341136, Note_on_c, 0, 67, 0
2, 341184, Note_on_c, 0, 72, 0
2, 341696, Control_c, 0, 64, 0
2, 341744, Note_on_c, 0, 74, 43
2, 341744, Note_on_c, 0, 62, 30
2, 341744, Note_on_c, 0, 68, 39
2, 341760, Note_on_c, 0, 65, 26
2, 341784, Note_on_c, 0, 56, 30
2, 341856, Control_c, 0, 64, 127
2, 342048, Note_on_c, 0, 65, 0
2, 342312, Note_on_c, 0, 62, 0
2, 342328, Note_on_c, 0, 68, 0
2, 342744, Note_on_c, 0, 67, 29
2, 342760, Note_on_c, 0, 62, 32
2, 343168, Note_on_c, 0, 72, 62
2, 343232, Note_on_c, 0, 67, 0
2, 343264, Note_on_c, 0, 74, 0
2, 343416, Note_on_c, 0, 62, 0
2, 343416, Note_on_c, 0, 70, 61
2, 343488, Note_on_c, 0, 56, 0
2, 343632, Note_on_c, 0, 72, 0
2, 343680, Note_on_c, 0, 70, 0
2, 343736, Note_on_c, 0, 69, 73
2, 344088, Note_on_c, 0, 69, 0
2, 345344, Note_on_c, 0, 68, 55
2, 345376, Note_on_c, 0, 63, 51
2, 345392, Note_on_c, 0, 59, 34
2, 345536, Note_on_c, 0, 59, 0
2, 345592, Note_on_c, 0, 68, 0
2, 345656, Note_on_c, 0, 63, 0
2, 345760, Note_on_c, 0, 67, 45
2, 345760, Note_on_c, 0, 39, 35
2, 345792, Note_on_c, 0, 62, 35
2, 345824, Control_c, 0, 64, 0
2, 346120, Control_c, 0, 64, 127
2, 346248, Note_on_c, 0, 62, 0
2, 346360, Note_on_c, 0, 39, 0
2, 346664, Note_on_c, 0, 55, 38
2, 346680, Note_on_c, 0, 46, 34
2, 346688, Note_on_c, 0, 60, 40
2, 347152, Note_on_c, 0, 55, 0
2, 347208, Note_on_c, 0, 46, 0
2, 347216, Note_on_c, 0, 67, 0
2, 347248, Note_on_c, 0, 60, 0
2, 347560, Note_on_c, 0, 53, 34
2, 347568, Control_c, 0, 64, 0
2, 347576, Note_on_c, 0, 59, 28
2, 347600, Note_on_c, 0, 43, 22
2, 347608, Note_on_c, 0, 50, 20
2, 347840, Control_c, 0, 64, 127
2, 347880, Note_on_c, 0, 53, 0
2, 348192, Note_on_c, 0, 59, 0
2, 348352, Note_on_c, 0, 50, 0
2, 348472, Note_on_c, 0, 43, 0
2, 348472, Note_on_c, 0, 47, 42
2, 348480, Note_on_c, 0, 59, 38
2, 348488, Note_on_c, 0, 62, 25
2, 348496, Note_on_c, 0, 65, 28
2, 348696, Note_on_c, 0, 47, 0
2, 348808, Note_on_c, 0, 59, 0
2, 348840, Note_on_c, 0, 62, 0
2, 348864, Note_on_c, 0, 65, 0
2, 349392, Control_c, 0, 64, 0
2, 349400, Note_on_c, 0, 70, 46
2, 349408, Note_on_c, 0, 55, 62
2, 349424, Note_on_c, 0, 61, 42
2, 349424, Note_on_c, 0, 64, 45
2, 349440, Note_on_c, 0, 67, 40
2, 349568, Control_c, 0, 64, 127
2, 349680, Note_on_c, 0, 67, 0
2, 349688, Control_c, 0, 64, 0
2, 349720, Note_on_c, 0, 64, 0
2, 349776, Note_on_c, 0, 70, 0
2, 349816, Note_on_c, 0, 61, 0
2, 349896, Note_on_c, 0, 69, 57
2, 349904, Note_on_c, 0, 55, 0
2, 349920, Note_on_c, 0, 54, 40
2, 349928, Control_c, 0, 64, 127
2, 349936, Note_on_c, 0, 60, 49
2, 349952, Note_on_c, 0, 63, 37
2, 350056, Note_on_c, 0, 69, 0
2, 350080, Note_on_c, 0, 60, 0
2, 350112, Note_on_c, 0, 63, 0
2, 350240, Control_c, 0, 64, 0
2, 350320, Note_on_c, 0, 54, 0
2, 350376, Note_on_c, 0, 63, 48
2, 350376, Note_on_c, 0, 68, 50
2, 350392, Note_on_c, 0, 59, 39
2, 350392, Control_c, 0, 64, 127
2, 350408, Note_on_c, 0, 53, 31
2, 350528, Note_on_c, 0, 68, 0
2, 350536, Note_on_c, 0, 59, 0
2, 350608, Note_on_c, 0, 63, 0
2, 350808, Note_on_c, 0, 53, 0
2, 350848, Control_c, 0, 64, 0
2, 350864, Note_on_c, 0, 61, 50
2, 350872, Note_on_c, 0, 67, 36
2, 350872, Note_on_c, 0, 58, 33
2, 350920, Note_on_c, 0, 52, 33
2, 350920, Note_on_c, 0, 64, 29
2, 351024, Control_c, 0, 64, 127
2, 351424, Note_on_c, 0, 64, 0
2, 351432, Note_on_c, 0, 67, 0
2, 351496, Note_on_c, 0, 58, 0
2, 351504, Note_on_c, 0, 61, 0
2, 351848, Note_on_c, 0, 52, 0
2, 351872, Note_on_c, 0, 61, 44
2, 351904, Note_on_c, 0, 58, 27
2, 351912, Note_on_c, 0, 49, 33
2, 351992, Note_on_c, 0, 58, 0
2, 352008, Note_on_c, 0, 61, 0
2, 352280, Control_c, 0, 64, 0
2, 352336, Note_on_c, 0, 49, 0
2, 352352, Note_on_c, 0, 64, 48
2, 352352, Note_on_c, 0, 58, 42
2, 352376, Note_on_c, 0, 61, 44
2, 352384, Control_c, 0, 64, 127
2, 352544, Note_on_c, 0, 64, 0
2, 352576, Note_on_c, 0, 61, 0
2, 352624, Note_on_c, 0, 58, 0
2, 352728, Control_c, 0, 64, 0
2, 352792, Control_c, 0, 64, 127
2, 352816, Note_on_c, 0, 51, 51
2, 352832, Note_on_c, 0, 58, 49
2, 352832, Note_on_c, 0, 66, 52
2, 352840, Note_on_c, 0, 61, 53
2, 352848, Note_on_c, 0, 63, 51
2, 353152, Note_on_c, 0, 66, 0
2, 353168, Note_on_c, 0, 61, 0
2, 353184, Note_on_c, 0, 51, 0
2, 353216, Note_on_c, 0, 63, 0
2, 353240, Note_on_c, 0, 58, 0
2, 353328, Note_on_c, 0, 60, 48
2, 353328, Note_on_c, 0, 65, 42
2, 353336, Control_c, 0, 64, 0
2, 353360, Note_on_c, 0, 57, 38
2, 353376, Note_on_c, 0, 50, 39
2, 353704, Control_c, 0, 64, 127
2, 353832, Note_on_c, 0, 38, 41
2, 353984, Note_on_c, 0, 57, 0
2, 353992, Note_on_c, 0, 60, 0
2, 354064, Note_on_c, 0, 65, 0
2, 354320, Note_on_c, 0, 38, 0
2, 354320, Note_on_c, 0, 57, 58
2, 354496, Note_on_c, 0, 57, 0
2, 354608, Note_on_c, 0, 50, 0
2, 354800, Note_on_c, 0, 60, 76
2, 355000, Note_on_c, 0, 60, 0
2, 355272, Control_c, 0, 64, 0
2, 355280, Note_on_c, 0, 59, 103
2, 355296, Note_on_c, 0, 53, 52
2, 355312, Note_on_c, 0, 43, 36
2, 355536, Control_c, 0, 64, 127
2, 355736, Note_on_c, 0, 53, 0
2, 356120, Note_on_c, 0, 59, 0
2, 356144, Note_on_c, 0, 43, 0
2, 356224, Note_on_c, 0, 59, 62
2, 356232, Note_on_c, 0, 55, 75
2, 356240, Note_on_c, 0, 50, 50
2, 356288, Note_on_c, 0, 50, 0
2, 356328, Note_on_c, 0, 55, 0
2, 356408, Note_on_c, 0, 59, 0
2, 357152, Control_c, 0, 64, 0
2, 357184, Note_on_c, 0, 24, 80
2, 357184, Note_on_c, 0, 36, 83
2, 357192, Note_on_c, 0, 70, 85
2, 357192, Note_on_c, 0, 58, 83
2, 357200, Note_on_c, 0, 63, 71
2, 357480, Note_on_c, 0, 24, 0
2, 357496, Note_on_c, 0, 63, 0
2, 357496, Note_on_c, 0, 70, 0
2, 357544, Note_on_c, 0, 36, 0
2, 357544, Note_on_c, 0, 58, 0
2, 357696, Note_on_c, 0, 38, 56
2, 357704, Note_on_c, 0, 26, 53
2, 357880, Control_c, 0, 64, 127
2, 357936, Note_on_c, 0, 26, 0
2, 357936, Note_on_c, 0, 38, 0
2, 358000, Control_c, 0, 64, 0
2, 358168, Note_on_c, 0, 55, 33
2, 358176, Note_on_c, 0, 65, 33
2, 358176, Note_on_c, 0, 39, 48
2, 358176, Note_on_c, 0, 27, 48
2, 358216, Note_on_c, 0, 60, 26
2, 358288, Note_on_c, 0, 60, 0
2, 358296, Control_c, 0, 64, 127
2, 358352, Note_on_c, 0, 55, 0
2, 358360, Note_on_c, 0, 65, 0
2, 358368, Note_on_c, 0, 39, 0
2, 358392, Control_c, 0, 64, 0
2, 358400, Note_on_c, 0, 27, 0
2, 358608, Note_on_c, 0, 28, 46
2, 358616, Note_on_c, 0, 40, 40
2, 358624, Control_c, 0, 64, 127
2, 358784, Note_on_c, 0, 28, 0
2, 358880, Note_on_c, 0, 40, 0
2, 359016, Control_c, 0, 64, 0
2, 359072, Note_on_c, 0, 41, 47
2, 359088, Note_on_c, 0, 60, 47
2, 359088, Note_on_c, 0, 57, 40
2, 359104, Note_on_c, 0, 29, 26
2, 359224, Control_c, 0, 64, 127
2, 359360, Note_on_c, 0, 57, 0
2, 359432, Note_on_c, 0, 60, 0
2, 359672, Note_on_c, 0, 29, 0
2, 359752, Note_on_c, 0, 41, 0
2, 360480, Note_on_c, 0, 72, 91
2, 360584, Note_on_c, 0, 72, 0
2, 360904, Control_c, 0, 64, 0
2, 360936, Note_on_c, 0, 69, 79
2, 360944, Note_on_c, 0, 61, 84
2, 360952, Note_on_c, 0, 64, 83
2, 360952, Note_on_c, 0, 57, 85
2, 360968, Note_on_c, 0, 58, 83
2, 360976, Note_on_c, 0, 67, 53
2, 361048, Note_on_c, 0, 57, 0
2, 361072, Control_c, 0, 64, 127
2, 361088, Note_on_c, 0, 61, 0
2, 361096, Note_on_c, 0, 58, 0
2, 361112, Note_on_c, 0, 64, 0
2, 361128, Note_on_c, 0, 67, 0
2, 361152, Note_on_c, 0, 69, 0
2, 361448, Note_on_c, 0, 81, 91
2, 361600, Note_on_c, 0, 81, 0
2, 361904, Note_on_c, 0, 76, 89
2, 361912, Note_on_c, 0, 73, 81
2, 361912, Note_on_c, 0, 69, 90
2, 361928, Note_on_c, 0, 70, 81
2, 362016, Note_on_c, 0, 69, 0
2, 362048, Note_on_c, 0, 73, 0
2, 362064, Note_on_c, 0, 70, 0
2, 362072, Note_on_c, 0, 76, 0
2, 362400, Note_on_c, 0, 93, 90
2, 362520, Note_on_c, 0, 93, 0
2, 362872, Note_on_c, 0, 81, 91
2, 362880, Note_on_c, 0, 89, 70
2, 362880, Note_on_c, 0, 88, 87
2, 362880, Note_on_c, 0, 82, 94
2, 362920, Note_on_c, 0, 89, 0
2, 362944, Note_on_c, 0, 86, 30
2, 362976, Note_on_c, 0, 85, 9
2, 362984, Note_on_c, 0, 86, 0
2, 363096, Note_on_c, 0, 82, 0
2, 363144, Note_on_c, 0, 85, 0
2, 363216, Note_on_c, 0, 88, 0
2, 363216, Note_on_c, 0, 81, 0
2, 363400, Note_on_c, 0, 93, 62
2, 363416, Note_on_c, 0, 91, 44
2, 363464, Note_on_c, 0, 93, 0
2, 363472, Note_on_c, 0, 91, 0
2, 363872, Note_on_c, 0, 70, 56
2, 363880, Note_on_c, 0, 76, 46
2, 363904, Note_on_c, 0, 73, 32
2, 363920, Note_on_c, 0, 69, 34
2, 364024, Note_on_c, 0, 70, 0
2, 364104, Note_on_c, 0, 69, 0
2, 364176, Note_on_c, 0, 76, 0
2, 364248, Note_on_c, 0, 73, 0
2, 364352, Note_on_c, 0, 81, 57
2, 364464, Note_on_c, 0, 81, 0
2, 364864, Note_on_c, 0, 58, 36
2, 365032, Note_on_c, 0, 58, 0
2, 365296, Note_on_c, 0, 69, 51
2, 365352, Note_on_c, 0, 69, 0
2, 365808, Note_on_c, 0, 46, 42
2, 365976, Note_on_c, 0, 46, 0
2, 366312, Note_on_c, 0, 69, 53
2, 366512, Note_on_c, 0, 69, 0
2, 366800, Note_on_c, 0, 64, 40
2, 366816, Note_on_c, 0, 34, 33
2, 366816, Note_on_c, 0, 61, 29
2, 366824, Note_on_c, 0, 57, 34
2, 366960, Note_on_c, 0, 34, 0
2, 366968, Note_on_c, 0, 61, 0
2, 366984, Note_on_c, 0, 64, 0
2, 366992, Note_on_c, 0, 57, 0
2, 367368, Note_on_c, 0, 69, 31
2, 367656, Note_on_c, 0, 69, 0
2, 367880, Note_on_c, 0, 64, 32
2, 367888, Note_on_c, 0, 57, 36
2, 367896, Note_on_c, 0, 61, 29
2, 367920, Note_on_c, 0, 34, 19
2, 368216, Note_on_c, 0, 57, 0
2, 368248, Note_on_c, 0, 34, 0
2, 368256, Note_on_c, 0, 64, 0
2, 368368, Note_on_c, 0, 61, 0
2, 368472, Note_on_c, 0, 69, 30
2, 369256, Note_on_c, 0, 57, 32
2, 369264, Note_on_c, 0, 64, 30
2, 369264, Note_on_c, 0, 61, 23
2, 369272, Note_on_c, 0, 22, 28
2, 369272, Note_on_c, 0, 34, 21
2, 369400, Control_c, 0, 64, 0
2, 369784, Control_c, 0, 64, 127
2, 370176, Note_on_c, 0, 57, 0
2, 370248, Note_on_c, 0, 61, 0
2, 370272, Note_on_c, 0, 64, 0
2, 370288, Note_on_c, 0, 69, 0
2, 370584, Note_on_c, 0, 22, 0
2, 370672, Note_on_c, 0, 34, 0
2, 373376, Control_c, 0, 64, 0
2, 373376, End_track
3, 0, Start_track
3, 0, End_track
0, 0, End_of_file
