0, 0, Header, 1, 8, 120
1, 0, Start_track
1, 0, Title_t, "A Fine Romance"
1, 0, Sequencer_specific, 126, 0, 0, 0, 106, 0, 1, 128, 29, 0, 0, 0, 0, 0, 0, 33, 6, 0, 0, 0, 0, 0, 0, 64, 24, 0, 0, 0, 0, 0, 0, 1, 24, 0, 0, 64, 24, 0, 0, 49, 6, 0, 0, 0, 0, 0, 0, 20, 27, 0, 0, 0, 0, 0, 0, 128, 24, 0, 0, 0, 0, 0, 0, 64, 6, 0, 0, 0, 0, 0, 0, 46, 39, 0, 0, 184, 29, 0, 0, 128, 24, 0, 0, 0, 0, 0, 0, 128, 29, 0, 0, 29, 134, 0, 0, 20, 27, 0, 0, 5, 36, 0, 0, 46, 39, 0, 0, 0, 0, 0, 0, 24, 11, 0, 0, 64, 34, 0, 0, 29, 11, 0, 0, 32, 49, 0, 0
1, 0, Sequencer_specific, 126, 0, 0, 0, 106, 0, 1, 64, 24, 0, 0, 29, 130, 0, 0, 128, 1, 0, 0, 0, 0, 0, 0, 40, 24, 0, 0, 0, 0, 0, 0, 64, 6, 0, 0, 0, 0, 0, 0, 17, 42, 0, 0, 0, 0, 0, 0, 5, 24, 0, 0, 0, 0, 0, 0, 184, 6, 0, 0, 0, 0, 0, 0, 128, 24, 0, 0, 0, 0, 0, 0, 1, 186, 0, 0, 0, 0, 0, 0, 20, 8, 0, 0, 0, 0, 0, 0, 24, 42, 0, 0, 24, 24, 0, 0, 64, 36, 0, 0, 64, 8, 0, 0, 64, 41, 0, 0, 40, 36, 0, 0, 20, 27, 0, 0, 19, 39, 0, 0, 20, 29, 0, 0, 64, 6, 0, 0
1, 0, Sequencer_specific, 126, 0, 0, 0, 106, 0, 1, 13, 10, 0, 0, 24, 42, 0, 0, 0, 0, 0, 0, 0, 0, 0, 0, 128, 24, 0, 0, 0, 0, 0, 0, 33, 6, 0, 0, 0, 0, 0, 0, 64, 24, 0, 0, 0, 0, 0, 0, 16, 11, 0, 0, 0, 0, 0, 0, 24, 24, 0, 0, 0, 0, 0, 0, 64, 24, 0, 0, 29, 137, 0, 0, 128, 6, 0, 0, 0, 0, 0, 0, 64, 24, 0, 0, 0, 0, 0, 0, 19, 39, 0, 0, 16, 39, 0, 0, 20, 6, 0, 0, 64, 8, 0, 0, 20, 29, 0, 0, 0, 0, 0, 0, 64, 24, 0, 0, 0, 0, 0, 0, 46, 39, 0, 0, 0, 0, 0, 0
1, 0, Sequencer_specific, 126, 0, 0, 0, 106, 0, 1, 29, 137, 0, 0, 33, 23, 0, 0, 29, 27, 0, 0, 24, 11, 0, 0, 128, 3, 0, 0, 64, 24, 0, 0, 20, 1, 0, 0, 64, 24, 0, 0, 33, 24, 0, 0, 0, 0, 0, 0, 1, 5, 0, 0, 64, 24, 0, 0, 29, 24, 0, 0, 0, 0, 0, 0, 5, 6, 0, 0, 0, 0, 0, 0, 128, 24, 0, 0, 0, 0, 0, 0, 0, 0, 0, 0, 0, 0, 0, 0, 128, 3, 0, 0, 13, 10, 0, 0, 20, 39, 0, 0, 0, 0, 0, 0, 128, 42, 0, 0, 1, 39, 0, 0, 29, 4, 0, 0, 64, 6, 0, 0, 24, 42, 0, 0, 0, 0, 0, 0
1, 0, Sequencer_specific, 126, 0, 0, 0, 106, 0, 1, 6, 36, 0, 0, 64, 80, 0, 0, 20, 29, 0, 0, 64, 24, 0, 0, 29, 12, 0, 0, 0, 0, 0, 0, 1, 4, 0, 0, 1, 7, 0, 0, 128, 1, 0, 0, 0, 0, 0, 0, 16, 6, 0, 0, 0, 0, 0, 0, 32, 10, 0, 0, 0, 0, 0, 0, 16, 11, 0, 0, 0, 0, 0, 0, 64, 6, 0, 0, 0, 0, 0, 0, 64, 6, 0, 0, 1, 11, 0, 0, 128, 6, 0, 0, 0, 0, 0, 0, 6, 4, 0, 0, 23, 10, 0, 0, 19, 8, 0, 0, 0, 0, 0, 0, 64, 10, 0, 0, 0, 0, 0, 0, 128, 1, 0, 0, 1, 134, 0, 0
1, 0, Sequencer_specific, 126, 0, 0, 0, 106, 0, 1, 64, 6, 0, 0, 0, 0, 0, 0, 19, 8, 0, 0, 0, 0, 0, 0, 64, 8, 0, 0, 0, 0, 0, 0, 64, 1, 0, 0, 33, 5, 0, 0, 64, 6, 0, 0, 1, 128, 0, 0, 128, 1, 0, 0, 0, 0, 0, 0, 33, 6, 0, 0, 0, 0, 0, 0, 64, 6, 0, 0, 0, 0, 0, 0, 6, 6, 0, 0, 23, 11, 0, 0, 5, 6, 0, 0, 0, 0, 0, 0, 64, 6, 0, 0, 0, 0, 0, 0, 128, 6, 0, 0, 0, 0, 0, 0, 1, 129, 0, 0, 0, 0, 0, 0, 33, 11, 0, 0, 1, 9, 0, 0, 19, 8, 0, 0, 1, 188, 0, 0
1, 0, Sequencer_specific, 86, 0, 0, 0, 106, 0, 1, 19, 8, 0, 0, 64, 8, 0, 0, 5, 11, 0, 0, 33, 11, 0, 0, 19, 3, 0, 0, 64, 8, 0, 0, 16, 1, 0, 0, 5, 6, 0, 0, 1, 10, 0, 0, 0, 0, 0, 0, 6, 11, 0, 0, 32, 10, 0, 0, 18, 11, 0, 0, 0, 0, 0, 0, 6, 11, 0, 0, 0, 0, 0, 0, 6, 11, 0, 0, 0, 0, 0, 0, 0, 0, 0, 0, 0, 0, 0, 0
1, 0, Sequencer_specific, 22, 0, 0, 0, 106, 0, 2, 0, 3, 101, 3, 7, 4, 0, 0, 0, 0, 0, 0, 0, 0, 0, 0
1, 0, Sequencer_specific, 106, 0, 0, 0, 106, 0, 6, 1, 0, 0, 0, 1, 0, 0, 0, 1, 0, 0, 0, 1, 0, 0, 0, 1, 0, 0, 0, 1, 0, 0, 0, 1, 0, 0, 0, 1, 0, 0, 0, 0, 1, 0, 0, 0, 0, 0, 0, 0, 0, 0, 0, 0, 0, 0, 0, 0, 0, 0, 0, 0, 0, 0, 0, 1, 0, 0, 0, 1, 0, 0, 0, 0, 0, 0, 0, 0, 0, 0, 0, 0, 0, 0, 0, 0, 0, 0, 0, 0, 0, 0, 0, 0, 0, 0, 0, 0, 0, 0, 0, 0, 0, 0, 0, 1, 0, 1, 0
1, 0, Time_signature, 4, 2, 24, 8
1, 0, Tempo, 500000
1, 0, Key_signature, -2, "major"
1, 0, Marker_t, "A, Chorus1"
1, 1920, Marker_t, "A"
1, 3840, Marker_t, "A"
1, 5760, Marker_t, "A"
1, 7680, Marker_t, "A"
1, 9600, Marker_t, "A"
1, 11520, Marker_t, "A"
1, 13440, Marker_t, "A"
1, 15840, Marker_t, "A"
1, 26880, Marker_t, "A"
1, 28800, Marker_t, "A"
1, 46080, Marker_t, "A"
1, 47040, Marker_t, "Ending"
1, 47040, End_track
2, 0, Start_track
2, 0, Title_t, "Bass    (BB) (none)\000"
2, 0, End_track
3, 0, Start_track
3, 0, Title_t, "Drums   (BB) (none)\000"
3, 0, End_track
4, 0, Start_track
4, 0, Title_t, "Piano   (BB) (none)\000"
4, 0, End_track
5, 0, Start_track
5, 0, Title_t, "Guitar  (BB) (none)\000"
5, 0, End_track
6, 0, Start_track
6, 0, Title_t, "Strings (BB) (none)\000"
6, 0, End_track
7, 0, Start_track
7, 0, Title_t, "Melody  (BB)\000"
7, 0, Sequencer_specific, 7, 0, 0, 0, 106, 0, 4, 4
7, 0, Program_c, 3, 24
7, 0, Control_c, 3, 7, 90
7, 0, Control_c, 3, 10, 64
7, 0, Control_c, 3, 123, 0
7, 0, Control_c, 3, 91, 40
7, 0, Control_c, 3, 93, 0
7, 0, Control_c, 3, 64, 0
7, 0, Sequencer_specific, 18, 0, 0, 0, 106, 0, 5, 91, 84, 101, 120, 116, 61, 50, 61, 53, 61, 53, 93
7, 0, Text_t, "Bb/F"
7, 7, Note_on_c, 8, 70, 48
7, 9, Note_on_c, 8, 65, 19
7, 12, Note_on_c, 8, 62, 24
7, 12, Note_on_c, 8, 60, 33
7, 33, Control_c, 3, 64, 127
7, 48, Note_on_c, 8, 65, 0
7, 109, Note_on_c, 8, 70, 0
7, 125, Note_on_c, 7, 53, 27
7, 237, Note_on_c, 7, 53, 0
7, 361, Note_on_c, 7, 53, 36
7, 369, Note_on_c, 8, 60, 0
7, 376, Note_on_c, 8, 62, 0
7, 456, Note_on_c, 7, 62, 37
7, 466, Note_on_c, 8, 68, 53
7, 479, Note_on_c, 8, 71, 65
7, 480, Sequencer_specific, 18, 0, 0, 0, 106, 0, 5, 91, 84, 101, 120, 116, 61, 50, 61, 53, 61, 53, 93
7, 480, Text_t, "Bbdim/F"
7, 483, Note_on_c, 7, 65, 45
7, 485, Control_c, 3, 64, 0
7, 486, Note_on_c, 8, 74, 57
7, 494, Note_on_c, 8, 79, 66
7, 515, Control_c, 3, 64, 127
7, 558, Note_on_c, 7, 53, 0
7, 607, Note_on_c, 7, 53, 32
7, 624, Note_on_c, 8, 79, 0
7, 648, Note_on_c, 7, 65, 0
7, 651, Note_on_c, 8, 68, 0
7, 653, Note_on_c, 7, 62, 0
7, 674, Note_on_c, 8, 74, 0
7, 694, Note_on_c, 8, 71, 0
7, 730, Note_on_c, 7, 62, 32
7, 732, Note_on_c, 7, 65, 32
7, 808, Note_on_c, 7, 53, 0
7, 810, Note_on_c, 8, 77, 94
7, 853, Note_on_c, 7, 65, 0
7, 856, Note_on_c, 8, 77, 0
7, 861, Note_on_c, 7, 53, 20
7, 875, Note_on_c, 7, 62, 0
7, 893, Note_on_c, 8, 79, 95
7, 927, Note_on_c, 8, 79, 0
7, 960, Sequencer_specific, 18, 0, 0, 0, 106, 0, 5, 91, 84, 101, 120, 116, 61, 50, 61, 53, 61, 53, 93
7, 960, Text_t, "F7"
7, 976, Note_on_c, 8, 63, 30
7, 982, Note_on_c, 8, 69, 55
7, 982, Control_c, 3, 64, 0
7, 985, Note_on_c, 8, 65, 29
7, 1018, Control_c, 3, 64, 127
7, 1033, Note_on_c, 8, 63, 0
7, 1041, Note_on_c, 8, 65, 0
7, 1049, Note_on_c, 7, 53, 0
7, 1097, Note_on_c, 7, 53, 37
7, 1110, Note_on_c, 8, 69, 0
7, 1210, Note_on_c, 8, 91, 62
7, 1217, Note_on_c, 7, 63, 23
7, 1219, Note_on_c, 8, 86, 55
7, 1221, Note_on_c, 7, 65, 30
7, 1233, Note_on_c, 8, 86, 0
7, 1237, Note_on_c, 8, 91, 0
7, 1264, Note_on_c, 7, 63, 0
7, 1288, Note_on_c, 7, 53, 0
7, 1321, Note_on_c, 7, 65, 0
7, 1326, Note_on_c, 7, 53, 46
7, 1433, Note_on_c, 8, 70, 67
7, 1440, Sequencer_specific, 18, 0, 0, 0, 106, 0, 5, 91, 84, 101, 120, 116, 61, 50, 61, 53, 61, 53, 93
7, 1440, Text_t, "Dbdim/F"
7, 1442, Note_on_c, 8, 73, 52
7, 1446, Note_on_c, 7, 64, 62
7, 1447, Control_c, 3, 64, 0
7, 1450, Note_on_c, 8, 76, 61
7, 1455, Note_on_c, 8, 81, 75
7, 1483, Control_c, 3, 64, 127
7, 1523, Note_on_c, 7, 53, 0
7, 1569, Note_on_c, 7, 53, 39
7, 1589, Note_on_c, 7, 64, 0
7, 1596, Note_on_c, 8, 70, 0
7, 1632, Note_on_c, 8, 81, 0
7, 1642, Note_on_c, 8, 73, 0
7, 1649, Note_on_c, 8, 76, 0
7, 1687, Note_on_c, 8, 70, 34
7, 1688, Note_on_c, 8, 79, 37
7, 1688, Note_on_c, 7, 64, 29
7, 1689, Note_on_c, 8, 76, 46
7, 1691, Note_on_c, 8, 73, 37
7, 1752, Note_on_c, 7, 53, 0
7, 1763, Note_on_c, 8, 70, 0
7, 1801, Note_on_c, 7, 53, 36
7, 1810, Note_on_c, 7, 64, 0
7, 1817, Note_on_c, 8, 79, 0
7, 1824, Note_on_c, 8, 76, 0
7, 1853, Note_on_c, 8, 73, 0
7, 1868, Note_on_c, 8, 81, 83
7, 1875, Note_on_c, 8, 80, 30
7, 1881, Note_on_c, 8, 80, 0
7, 1885, Note_on_c, 8, 81, 0
7, 1920, Sequencer_specific, 18, 0, 0, 0, 106, 0, 5, 91, 84, 101, 120, 116, 61, 50, 61, 53, 61, 53, 93
7, 1920, Text_t, "Dm7/F"
7, 1921, Note_on_c, 8, 74, 56
7, 1930, Note_on_c, 8, 62, 35
7, 1931, Note_on_c, 8, 69, 61
7, 1936, Note_on_c, 8, 65, 40
7, 1936, Control_c, 3, 64, 0
7, 1991, Note_on_c, 7, 53, 0
7, 1991, Control_c, 3, 64, 127
7, 2047, Note_on_c, 7, 53, 31
7, 2112, Note_on_c, 8, 62, 0
7, 2130, Note_on_c, 8, 65, 0
7, 2181, Note_on_c, 7, 53, 0
7, 2196, Note_on_c, 8, 69, 0
7, 2224, Note_on_c, 8, 74, 0
7, 2274, Note_on_c, 7, 53, 41
7, 2282, Note_on_c, 7, 53, 0
7, 2372, Note_on_c, 8, 70, 50
7, 2377, Note_on_c, 8, 77, 64
7, 2382, Note_on_c, 8, 72, 53
7, 2391, Note_on_c, 8, 81, 66
7, 2398, Note_on_c, 8, 74, 53
7, 2399, Control_c, 3, 64, 0
7, 2400, Sequencer_specific, 18, 0, 0, 0, 106, 0, 5, 91, 84, 101, 120, 116, 61, 50, 61, 53, 61, 53, 93
7, 2400, Text_t, "Gm7/F"
7, 2404, Note_on_c, 8, 84, 80
7, 2429, Control_c, 3, 64, 127
7, 2438, Note_on_c, 8, 74, 0
7, 2441, Note_on_c, 8, 72, 0
7, 2447, Note_on_c, 8, 70, 0
7, 2527, Note_on_c, 8, 81, 0
7, 2530, Note_on_c, 8, 84, 0
7, 2534, Note_on_c, 8, 77, 0
7, 2590, Note_on_c, 7, 53, 32
7, 2653, Note_on_c, 8, 82, 62
7, 2657, Note_on_c, 8, 70, 34
7, 2674, Note_on_c, 7, 65, 4
7, 2700, Note_on_c, 7, 53, 0
7, 2731, Note_on_c, 8, 82, 0
7, 2746, Note_on_c, 8, 70, 0
7, 2757, Note_on_c, 7, 65, 0
7, 2762, Note_on_c, 7, 53, 25
7, 2827, Note_on_c, 8, 74, 51
7, 2842, Note_on_c, 8, 74, 0
7, 2880, Sequencer_specific, 18, 0, 0, 0, 106, 0, 5, 91, 84, 101, 120, 116, 61, 50, 61, 53, 61, 53, 93
7, 2880, Text_t, "Cm7/F"
7, 2881, Note_on_c, 7, 67, 56
7, 2886, Note_on_c, 7, 63, 29
7, 2886, Note_on_c, 8, 70, 62
7, 2893, Control_c, 3, 64, 0
7, 2893, Note_on_c, 8, 75, 65
7, 2898, Note_on_c, 8, 77, 59
7, 2947, Control_c, 3, 64, 127
7, 2968, Note_on_c, 7, 53, 0
7, 2970, Note_on_c, 7, 63, 0
7, 3008, Note_on_c, 7, 53, 54
7, 3026, Note_on_c, 7, 67, 0
7, 3075, Note_on_c, 8, 70, 0
7, 3116, Note_on_c, 7, 53, 0
7, 3219, Note_on_c, 8, 77, 0
7, 3235, Note_on_c, 8, 75, 0
7, 3235, Note_on_c, 7, 53, 34
7, 3346, Note_on_c, 8, 74, 67
7, 3347, Note_on_c, 7, 63, 43
7, 3351, Note_on_c, 8, 69, 60
7, 3353, Note_on_c, 8, 66, 46
7, 3354, Control_c, 3, 64, 0
7, 3354, Note_on_c, 7, 57, 50
7, 3360, Sequencer_specific, 18, 0, 0, 0, 106, 0, 5, 91, 84, 101, 120, 116, 61, 50, 61, 53, 61, 53, 93
7, 3360, Text_t, "F7"
7, 3393, Control_c, 3, 64, 127
7, 3408, Note_on_c, 7, 53, 0
7, 3476, Note_on_c, 7, 53, 16
7, 3512, Note_on_c, 7, 57, 0
7, 3530, Note_on_c, 7, 63, 0
7, 3558, Note_on_c, 8, 69, 0
7, 3559, Note_on_c, 8, 66, 0
7, 3585, Note_on_c, 8, 74, 0
7, 3596, Note_on_c, 7, 63, 36
7, 3601, Note_on_c, 8, 69, 37
7, 3601, Note_on_c, 8, 66, 34
7, 3602, Note_on_c, 7, 57, 36
7, 3604, Control_c, 3, 64, 0
7, 3605, Note_on_c, 8, 72, 27
7, 3610, Note_on_c, 8, 69, 0
7, 3612, Note_on_c, 8, 66, 0
7, 3614, Note_on_c, 8, 72, 0
7, 3615, Note_on_c, 7, 63, 0
7, 3616, Note_on_c, 7, 57, 0
7, 3620, Note_on_c, 7, 53, 0
7, 3728, Control_c, 3, 64, 127
7, 3798, Note_on_c, 8, 65, 38
7, 3811, Note_on_c, 8, 65, 0
7, 3832, Control_c, 3, 64, 0
7, 3835, Note_on_c, 8, 70, 42
7, 3838, Note_on_c, 7, 55, 35
7, 3840, Note_on_c, 7, 60, 31
7, 3841, Note_on_c, 8, 65, 30
7, 3863, Control_c, 3, 64, 127
7, 3905, Note_on_c, 8, 65, 0
7, 3905, Note_on_c, 8, 70, 0
7, 3915, Note_on_c, 7, 60, 0
7, 3947, Note_on_c, 7, 55, 0
7, 3951, Control_c, 3, 64, 0
7, 3952, Note_on_c, 8, 69, 37
7, 3956, Note_on_c, 8, 64, 30
7, 3956, Note_on_c, 7, 59, 25
7, 3959, Note_on_c, 7, 54, 21
7, 3976, Control_c, 3, 64, 127
7, 3984, Note_on_c, 8, 69, 0
7, 3988, Note_on_c, 7, 59, 0
7, 3992, Note_on_c, 8, 64, 0
7, 4033, Control_c, 3, 64, 0
7, 4037, Note_on_c, 8, 70, 43
7, 4042, Note_on_c, 7, 60, 29
7, 4042, Note_on_c, 7, 55, 40
7, 4043, Note_on_c, 8, 65, 36
7, 4072, Control_c, 3, 64, 127
7, 4089, Note_on_c, 7, 54, 0
7, 4092, Note_on_c, 8, 65, 0
7, 4095, Note_on_c, 7, 60, 0
7, 4107, Note_on_c, 8, 70, 0
7, 4109, Note_on_c, 7, 55, 0
7, 4160, Note_on_c, 8, 72, 52
7, 4160, Note_on_c, 7, 62, 36
7, 4161, Note_on_c, 8, 67, 48
7, 4163, Note_on_c, 7, 57, 35
7, 4171, Control_c, 3, 64, 0
7, 4203, Control_c, 3, 64, 127
7, 4235, Note_on_c, 8, 72, 0
7, 4239, Note_on_c, 7, 57, 0
7, 4244, Note_on_c, 8, 67, 0
7, 4258, Note_on_c, 7, 62, 0
7, 4317, Control_c, 3, 64, 0
7, 4322, Note_on_c, 8, 70, 37
7, 4325, Note_on_c, 8, 60, 28
7, 4327, Note_on_c, 8, 65, 26
7, 4327, Note_on_c, 8, 63, 32
7, 4328, Note_on_c, 7, 53, 22
7, 4345, Control_c, 3, 64, 127
7, 4385, Note_on_c, 8, 70, 0
7, 4395, Note_on_c, 8, 60, 0
7, 4402, Note_on_c, 8, 69, 61
7, 4403, Note_on_c, 7, 41, 39
7, 4406, Note_on_c, 8, 60, 18
7, 4417, Note_on_c, 7, 53, 0
7, 4418, Note_on_c, 8, 69, 0
7, 4422, Note_on_c, 8, 60, 0
7, 4426, Note_on_c, 8, 63, 0
7, 4426, Note_on_c, 7, 41, 0
7, 4434, Note_on_c, 8, 65, 0
7, 4443, Control_c, 3, 64, 0
7, 4448, Note_on_c, 8, 68, 43
7, 4449, Note_on_c, 7, 53, 32
7, 4456, Note_on_c, 8, 68, 0
7, 4457, Note_on_c, 7, 53, 0
7, 4519, Control_c, 3, 64, 127
7, 4528, Note_on_c, 8, 54, 21
7, 4541, Note_on_c, 8, 54, 0
7, 4550, Control_c, 3, 64, 0
7, 4563, Note_on_c, 8, 61, 35
7, 4564, Note_on_c, 8, 59, 34
7, 4565, Note_on_c, 8, 67, 31
7, 4568, Note_on_c, 7, 53, 32
7, 4568, Note_on_c, 8, 63, 25
7, 4571, Note_on_c, 7, 43, 29
7, 4577, Note_on_c, 8, 63, 0
7, 4586, Control_c, 3, 64, 127
7, 4587, Note_on_c, 8, 61, 0
7, 4592, Note_on_c, 8, 62, 29
7, 4627, Note_on_c, 8, 67, 0
7, 4627, Note_on_c, 8, 59, 0
7, 4628, Note_on_c, 8, 62, 0
7, 4660, Note_on_c, 7, 53, 0
7, 4668, Note_on_c, 7, 43, 0
7, 4680, Control_c, 3, 64, 0
7, 4680, Note_on_c, 8, 66, 34
7, 4682, Note_on_c, 7, 47, 36
7, 4683, Note_on_c, 8, 59, 24
7, 4683, Note_on_c, 8, 63, 45
7, 4716, Control_c, 3, 64, 127
7, 4748, Note_on_c, 8, 59, 0
7, 4748, Note_on_c, 8, 66, 0
7, 4757, Note_on_c, 8, 63, 0
7, 4779, Note_on_c, 7, 46, 23
7, 4787, Note_on_c, 7, 47, 0
7, 4795, Note_on_c, 7, 46, 0
7, 4799, Control_c, 3, 64, 0
7, 4800, Note_on_c, 7, 48, 30
7, 4803, Note_on_c, 8, 65, 28
7, 4804, Note_on_c, 8, 58, 33
7, 4807, Note_on_c, 8, 62, 35
7, 4809, Note_on_c, 8, 55, 18
7, 4830, Note_on_c, 8, 55, 0
7, 4835, Control_c, 3, 64, 127
7, 4839, Note_on_c, 8, 62, 0
7, 4843, Note_on_c, 8, 58, 0
7, 4854, Note_on_c, 8, 65, 0
7, 4870, Note_on_c, 7, 48, 0
7, 4879, Note_on_c, 7, 36, 57
7, 4885, Note_on_c, 7, 36, 0
7, 5002, Note_on_c, 8, 74, 75
7, 5002, Note_on_c, 8, 63, 67
7, 5004, Note_on_c, 7, 59, 55
7, 5005, Control_c, 3, 64, 0
7, 5005, Note_on_c, 8, 67, 66
7, 5023, Control_c, 3, 64, 127
7, 5037, Note_on_c, 7, 59, 0
7, 5064, Note_on_c, 8, 62, 77
7, 5069, Control_c, 3, 64, 0
7, 5095, Control_c, 3, 64, 127
7, 5200, Note_on_c, 8, 67, 0
7, 5207, Note_on_c, 8, 62, 0
7, 5217, Note_on_c, 8, 63, 0
7, 5227, Note_on_c, 8, 67, 31
7, 5246, Note_on_c, 8, 74, 0
7, 5258, Note_on_c, 8, 63, 32
7, 5265, Note_on_c, 8, 67, 0
7, 5273, Note_on_c, 8, 63, 0
7, 5296, Note_on_c, 8, 66, 38
7, 5298, Note_on_c, 8, 62, 30
7, 5299, Control_c, 3, 64, 0
7, 5302, Note_on_c, 7, 60, 24
7, 5304, Note_on_c, 7, 53, 35
7, 5324, Note_on_c, 7, 60, 0
7, 5327, Note_on_c, 7, 53, 0
7, 5329, Control_c, 3, 64, 127
7, 5404, Note_on_c, 8, 62, 0
7, 5410, Note_on_c, 7, 41, 46
7, 5419, Note_on_c, 7, 41, 0
7, 5458, Note_on_c, 8, 66, 0
7, 5535, Control_c, 3, 64, 0
7, 5537, Note_on_c, 8, 72, 57
7, 5537, Note_on_c, 8, 67, 68
7, 5537, Note_on_c, 8, 75, 64
7, 5539, Note_on_c, 7, 63, 63
7, 5562, Control_c, 3, 64, 127
7, 5579, Note_on_c, 8, 67, 0
7, 5579, Note_on_c, 8, 72, 0
7, 5582, Note_on_c, 8, 75, 0
7, 5590, Note_on_c, 7, 63, 0
7, 5599, Note_on_c, 8, 77, 79
7, 5626, Note_on_c, 8, 77, 0
7, 5654, Control_c, 3, 64, 0
7, 5654, Note_on_c, 8, 70, 45
7, 5659, Note_on_c, 7, 54, 34
7, 5659, Note_on_c, 7, 65, 45
7, 5660, Note_on_c, 7, 60, 30
7, 5660, Note_on_c, 8, 74, 61
7, 5683, Control_c, 3, 64, 127
7, 5711, Note_on_c, 8, 70, 0
7, 5712, Note_on_c, 8, 74, 0
7, 5712, Note_on_c, 7, 54, 0
7, 5718, Note_on_c, 8, 69, 60
7, 5723, Note_on_c, 7, 60, 0
7, 5734, Note_on_c, 7, 65, 0
7, 5745, Note_on_c, 8, 69, 0
7, 5779, Note_on_c, 7, 55, 36
7, 5779, Note_on_c, 8, 72, 58
7, 5780, Control_c, 3, 64, 0
7, 5781, Note_on_c, 7, 62, 36
7, 5781, Note_on_c, 7, 58, 35
7, 5782, Note_on_c, 8, 69, 55
7, 5820, Control_c, 3, 64, 127
7, 5834, Note_on_c, 8, 69, 0
7, 5839, Note_on_c, 7, 62, 0
7, 5841, Note_on_c, 8, 70, 52
7, 5842, Note_on_c, 8, 67, 24
7, 5856, Note_on_c, 8, 72, 0
7, 5860, Note_on_c, 7, 58, 0
7, 5895, Note_on_c, 7, 62, 33
7, 5896, Note_on_c, 7, 58, 36
7, 5906, Note_on_c, 8, 67, 0
7, 5910, Note_on_c, 8, 70, 0
7, 5949, Note_on_c, 7, 62, 0
7, 5986, Note_on_c, 7, 55, 0
7, 6011, Note_on_c, 7, 54, 46
7, 6014, Note_on_c, 7, 62, 38
7, 6020, Control_c, 3, 64, 0
7, 6047, Control_c, 3, 64, 127
7, 6063, Note_on_c, 8, 66, 50
7, 6098, Note_on_c, 7, 62, 0
7, 6103, Note_on_c, 8, 66, 0
7, 6123, Note_on_c, 8, 67, 66
7, 6159, Note_on_c, 8, 67, 0
7, 6186, Note_on_c, 8, 69, 87
7, 6212, Note_on_c, 7, 54, 0
7, 6217, Note_on_c, 7, 58, 0
7, 6219, Note_on_c, 8, 69, 0
7, 6243, Control_c, 3, 64, 0
7, 6244, Note_on_c, 7, 58, 48
7, 6244, Note_on_c, 8, 67, 66
7, 6247, Note_on_c, 7, 62, 34
7, 6255, Note_on_c, 7, 62, 0
7, 6259, Note_on_c, 8, 67, 0
7, 6259, Control_c, 3, 64, 127
7, 6260, Note_on_c, 7, 58, 0
7, 6316, Note_on_c, 8, 79, 74
7, 6316, Note_on_c, 8, 69, 73
7, 6317, Note_on_c, 8, 74, 74
7, 6323, Note_on_c, 7, 64, 49
7, 6325, Control_c, 3, 64, 0
7, 6345, Control_c, 3, 64, 127
7, 6355, Note_on_c, 8, 79, 0
7, 6369, Note_on_c, 8, 69, 0
7, 6374, Note_on_c, 8, 74, 0
7, 6397, Note_on_c, 8, 68, 67
7, 6398, Note_on_c, 8, 78, 56
7, 6399, Note_on_c, 7, 64, 0
7, 6401, Note_on_c, 8, 73, 54
7, 6404, Note_on_c, 7, 63, 37
7, 6408, Note_on_c, 8, 73, 0
7, 6416, Note_on_c, 8, 68, 0
7, 6417, Note_on_c, 8, 78, 0
7, 6423, Note_on_c, 7, 63, 0
7, 6426, Control_c, 3, 64, 0
7, 6436, Note_on_c, 8, 77, 50
7, 6439, Note_on_c, 7, 62, 30
7, 6440, Note_on_c, 8, 72, 50
7, 6443, Note_on_c, 8, 77, 0
7, 6447, Note_on_c, 8, 72, 0
7, 6452, Note_on_c, 7, 62, 0
7, 6476, Control_c, 3, 64, 127
7, 6476, Note_on_c, 8, 76, 54
7, 6479, Note_on_c, 8, 71, 49
7, 6481, Note_on_c, 7, 61, 33
7, 6482, Note_on_c, 7, 67, 35
7, 6493, Note_on_c, 7, 67, 0
7, 6495, Note_on_c, 8, 76, 0
7, 6496, Note_on_c, 7, 61, 0
7, 6497, Note_on_c, 8, 71, 0
7, 6579, Control_c, 3, 64, 0
7, 6588, Note_on_c, 8, 75, 44
7, 6590, Note_on_c, 7, 65, 32
7, 6590, Note_on_c, 8, 68, 40
7, 6595, Note_on_c, 7, 59, 32
7, 6596, Note_on_c, 8, 71, 33
7, 6597, Control_c, 3, 64, 127
7, 6603, Note_on_c, 7, 59, 0
7, 6630, Note_on_c, 8, 71, 0
7, 6630, Note_on_c, 7, 65, 0
7, 6639, Note_on_c, 8, 75, 0
7, 6640, Note_on_c, 8, 68, 0
7, 6690, Note_on_c, 7, 48, 54
7, 6702, Note_on_c, 8, 62, 25
7, 6708, Note_on_c, 8, 66, 49
7, 6710, Control_c, 3, 64, 0
7, 6717, Note_on_c, 8, 69, 44
7, 6722, Note_on_c, 7, 58, 25
7, 6724, Note_on_c, 8, 74, 58
7, 6739, Control_c, 3, 64, 127
7, 6741, Note_on_c, 8, 62, 0
7, 6743, Note_on_c, 8, 69, 0
7, 6746, Note_on_c, 8, 66, 0
7, 6749, Note_on_c, 7, 48, 0
7, 6759, Note_on_c, 8, 74, 0
7, 6765, Note_on_c, 7, 58, 0
7, 6790, Note_on_c, 8, 86, 70
7, 6818, Note_on_c, 8, 86, 0
7, 6844, Note_on_c, 8, 86, 54
7, 6845, Note_on_c, 8, 74, 44
7, 6846, Note_on_c, 7, 64, 29
7, 6848, Note_on_c, 8, 78, 36
7, 6848, Note_on_c, 3, 58, 31
7, 6885, Note_on_c, 8, 86, 0
7, 6888, Note_on_c, 7, 64, 0
7, 6892, Note_on_c, 8, 74, 0
7, 6900, Note_on_c, 8, 86, 62
7, 6901, Note_on_c, 3, 58, 0
7, 6925, Note_on_c, 8, 78, 0
7, 6929, Note_on_c, 8, 86, 0
7, 6957, Note_on_c, 8, 84, 44
7, 6959, Note_on_c, 7, 58, 25
7, 6959, Control_c, 3, 64, 0
7, 6959, Note_on_c, 7, 52, 42
7, 6960, Note_on_c, 7, 62, 20
7, 6960, Note_on_c, 8, 72, 33
7, 6960, Note_on_c, 8, 79, 42
7, 6991, Control_c, 3, 64, 127
7, 6997, Note_on_c, 8, 84, 0
7, 7002, Note_on_c, 8, 79, 0
7, 7006, Note_on_c, 8, 72, 0
7, 7045, Note_on_c, 7, 62, 0
7, 7053, Note_on_c, 7, 58, 0
7, 7085, Note_on_c, 7, 52, 0
7, 7126, Note_on_c, 7, 67, 62
7, 7142, Note_on_c, 7, 67, 0
7, 7160, Note_on_c, 8, 71, 49
7, 7182, Note_on_c, 8, 71, 0
7, 7202, Control_c, 3, 64, 0
7, 7204, Note_on_c, 7, 41, 24
7, 7205, Note_on_c, 8, 63, 42
7, 7206, Note_on_c, 8, 74, 46
7, 7207, Note_on_c, 8, 67, 40
7, 7210, Note_on_c, 8, 71, 32
7, 7212, Note_on_c, 7, 57, 30
7, 7239, Control_c, 3, 64, 127
7, 7262, Note_on_c, 7, 41, 0
7, 7272, Note_on_c, 7, 57, 0
7, 7293, Note_on_c, 8, 74, 0
7, 7297, Note_on_c, 8, 71, 0
7, 7299, Note_on_c, 8, 63, 0
7, 7309, Note_on_c, 8, 67, 0
7, 7328, Note_on_c, 8, 63, 43
7, 7328, Note_on_c, 8, 67, 40
7, 7329, Note_on_c, 8, 72, 59
7, 7330, Note_on_c, 8, 62, 48
7, 7372, Note_on_c, 8, 62, 0
7, 7408, Note_on_c, 8, 72, 0
7, 7412, Note_on_c, 8, 67, 0
7, 7412, Note_on_c, 8, 63, 0
7, 7446, Note_on_c, 8, 63, 37
7, 7448, Note_on_c, 8, 70, 48
7, 7451, Note_on_c, 7, 58, 34
7, 7453, Note_on_c, 8, 67, 28
7, 7453, Control_c, 3, 64, 0
7, 7481, Control_c, 3, 64, 127
7, 7507, Note_on_c, 8, 67, 0
7, 7533, Note_on_c, 8, 63, 0
7, 7540, Note_on_c, 7, 58, 0
7, 7548, Note_on_c, 8, 70, 0
7, 7681, Control_c, 3, 64, 0
7, 7681, Note_on_c, 8, 70, 45
7, 7683, Note_on_c, 8, 65, 17
7, 7685, Note_on_c, 8, 62, 28
7, 7686, Note_on_c, 8, 60, 30
7, 7711, Control_c, 3, 64, 127
7, 7724, Note_on_c, 8, 65, 0
7, 7790, Note_on_c, 8, 70, 0
7, 7805, Note_on_c, 7, 53, 33
7, 7858, Note_on_c, 8, 60, 0
7, 7858, Note_on_c, 8, 62, 0
7, 7865, Note_on_c, 8, 82, 69
7, 7893, Note_on_c, 8, 82, 0
7, 7915, Note_on_c, 8, 65, 28
7, 7918, Note_on_c, 7, 62, 25
7, 7919, Note_on_c, 8, 70, 35
7, 7923, Note_on_c, 7, 60, 18
7, 7930, Note_on_c, 8, 70, 0
7, 7945, Note_on_c, 8, 65, 0
7, 7964, Note_on_c, 7, 53, 0
7, 8040, Note_on_c, 8, 94, 69
7, 8042, Note_on_c, 7, 53, 37
7, 8059, Note_on_c, 7, 60, 0
7, 8064, Note_on_c, 8, 94, 0
7, 8069, Note_on_c, 7, 62, 0
7, 8104, Note_on_c, 8, 82, 36
7, 8125, Note_on_c, 8, 82, 0
7, 8156, Control_c, 3, 64, 0
7, 8157, Note_on_c, 7, 62, 29
7, 8162, Note_on_c, 7, 56, 25
7, 8163, Note_on_c, 7, 59, 32
7, 8177, Control_c, 3, 64, 127
7, 8224, Note_on_c, 7, 53, 0
7, 8283, Note_on_c, 7, 53, 42
7, 8307, Note_on_c, 7, 59, 0
7, 8327, Note_on_c, 7, 62, 0
7, 8342, Note_on_c, 7, 56, 0
7, 8343, Note_on_c, 8, 67, 68
7, 8357, Note_on_c, 8, 67, 0
7, 8399, Control_c, 3, 64, 0
7, 8403, Note_on_c, 7, 56, 18
7, 8404, Note_on_c, 7, 62, 38
7, 8405, Note_on_c, 8, 79, 90
7, 8406, Note_on_c, 7, 67, 85
7, 8408, Note_on_c, 7, 59, 44
7, 8426, Control_c, 3, 64, 127
7, 8443, Note_on_c, 7, 53, 0
7, 8465, Note_on_c, 8, 79, 0
7, 8480, Note_on_c, 7, 67, 0
7, 8526, Note_on_c, 7, 53, 41
7, 8527, Note_on_c, 8, 77, 59
7, 8529, Note_on_c, 7, 65, 40
7, 8544, Note_on_c, 8, 77, 0
7, 8548, Note_on_c, 7, 59, 0
7, 8554, Note_on_c, 7, 56, 0
7, 8555, Note_on_c, 7, 65, 0
7, 8565, Note_on_c, 7, 62, 0
7, 8596, Note_on_c, 8, 79, 73
7, 8615, Note_on_c, 8, 79, 0
7, 8650, Control_c, 3, 64, 0
7, 8652, Note_on_c, 7, 63, 32
7, 8654, Note_on_c, 8, 69, 60
7, 8656, Note_on_c, 7, 65, 33
7, 8661, Note_on_c, 7, 57, 32
7, 8668, Note_on_c, 7, 65, 0
7, 8675, Control_c, 3, 64, 127
7, 8683, Note_on_c, 8, 69, 0
7, 8689, Note_on_c, 7, 53, 0
7, 8717, Note_on_c, 8, 81, 76
7, 8722, Note_on_c, 8, 74, 57
7, 8742, Note_on_c, 7, 63, 0
7, 8750, Note_on_c, 8, 74, 0
7, 8755, Note_on_c, 8, 81, 0
7, 8768, Note_on_c, 8, 69, 50
7, 8770, Note_on_c, 8, 78, 44
7, 8771, Note_on_c, 7, 63, 37
7, 8775, Note_on_c, 8, 69, 0
7, 8786, Note_on_c, 8, 78, 0
7, 8833, Note_on_c, 8, 93, 63
7, 8834, Note_on_c, 8, 86, 66
7, 8858, Note_on_c, 8, 86, 0
7, 8873, Note_on_c, 8, 93, 0
7, 8891, Note_on_c, 8, 90, 49
7, 8891, Note_on_c, 8, 81, 40
7, 8901, Note_on_c, 8, 90, 0
7, 8903, Note_on_c, 8, 81, 0
7, 8923, Note_on_c, 7, 63, 0
7, 8936, Note_on_c, 7, 57, 0
7, 8960, Note_on_c, 7, 53, 51
7, 8968, Note_on_c, 7, 53, 0
7, 9078, Note_on_c, 7, 53, 39
7, 9123, Note_on_c, 7, 58, 35
7, 9124, Note_on_c, 8, 69, 62
7, 9130, Note_on_c, 8, 73, 64
7, 9130, Note_on_c, 7, 61, 33
7, 9137, Control_c, 3, 64, 0
7, 9137, Note_on_c, 8, 76, 64
7, 9139, Note_on_c, 7, 64, 53
7, 9146, Note_on_c, 8, 81, 72
7, 9171, Control_c, 3, 64, 127
7, 9192, Note_on_c, 7, 53, 0
7, 9244, Note_on_c, 7, 53, 24
7, 9257, Note_on_c, 7, 64, 0
7, 9264, Note_on_c, 7, 61, 0
7, 9277, Note_on_c, 7, 58, 0
7, 9314, Note_on_c, 8, 69, 0
7, 9319, Note_on_c, 8, 81, 0
7, 9341, Note_on_c, 8, 76, 0
7, 9341, Note_on_c, 8, 73, 0
7, 9361, Note_on_c, 8, 79, 33
7, 9361, Note_on_c, 7, 61, 35
7, 9363, Note_on_c, 7, 58, 34
7, 9364, Note_on_c, 7, 64, 26
7, 9365, Note_on_c, 7, 67, 28
7, 9365, Note_on_c, 8, 73, 33
7, 9368, Note_on_c, 8, 76, 31
7, 9411, Note_on_c, 7, 53, 0
7, 9421, Note_on_c, 7, 67, 0
7, 9446, Note_on_c, 8, 79, 0
7, 9460, Note_on_c, 8, 76, 0
7, 9462, Note_on_c, 8, 73, 0
7, 9477, Note_on_c, 7, 53, 22
7, 9532, Note_on_c, 7, 64, 0
7, 9546, Note_on_c, 8, 81, 82
7, 9548, Note_on_c, 7, 61, 0
7, 9561, Note_on_c, 7, 58, 0
7, 9561, Note_on_c, 8, 81, 0
7, 9597, Note_on_c, 8, 74, 50
7, 9601, Control_c, 3, 64, 0
7, 9601, Note_on_c, 8, 69, 45
7, 9602, Note_on_c, 7, 65, 32
7, 9603, Note_on_c, 7, 62, 20
7, 9609, Note_on_c, 7, 65, 0
7, 9609, Note_on_c, 8, 69, 0
7, 9609, Note_on_c, 8, 74, 0
7, 9661, Note_on_c, 8, 74, 59
7, 9663, Note_on_c, 8, 69, 40
7, 9664, Note_on_c, 7, 65, 27
7, 9669, Note_on_c, 8, 74, 0
7, 9670, Note_on_c, 8, 69, 0
7, 9671, Note_on_c, 7, 65, 0
7, 9682, Note_on_c, 7, 53, 0
7, 9714, Note_on_c, 7, 53, 43
7, 9720, Control_c, 3, 64, 127
7, 9720, Note_on_c, 8, 74, 62
7, 9722, Note_on_c, 7, 65, 37
7, 9723, Note_on_c, 8, 69, 53
7, 9776, Note_on_c, 7, 62, 0
7, 9791, Note_on_c, 7, 65, 0
7, 9794, Note_on_c, 8, 69, 0
7, 9828, Note_on_c, 8, 69, 39
7, 9831, Note_on_c, 7, 65, 24
7, 9834, Note_on_c, 7, 62, 20
7, 9883, Note_on_c, 7, 53, 0
7, 9906, Note_on_c, 7, 65, 0
7, 9913, Note_on_c, 8, 69, 0
7, 9951, Note_on_c, 7, 53, 35
7, 9953, Note_on_c, 8, 69, 36
7, 9956, Note_on_c, 7, 65, 19
7, 9965, Note_on_c, 7, 65, 0
7, 9978, Note_on_c, 7, 53, 0
7, 9986, Note_on_c, 8, 69, 0
7, 9996, Note_on_c, 8, 74, 0
7, 10013, Note_on_c, 7, 62, 0
7, 10016, Note_on_c, 7, 53, 38
7, 10070, Note_on_c, 7, 58, 38
7, 10074, Note_on_c, 8, 70, 67
7, 10076, Control_c, 3, 64, 0
7, 10082, Note_on_c, 7, 62, 39
7, 10082, Note_on_c, 8, 77, 53
7, 10092, Note_on_c, 8, 84, 67
7, 10121, Control_c, 3, 64, 127
7, 10153, Note_on_c, 7, 53, 0
7, 10195, Note_on_c, 7, 53, 27
7, 10222, Note_on_c, 7, 58, 0
7, 10224, Note_on_c, 7, 62, 0
7, 10244, Note_on_c, 8, 77, 0
7, 10257, Note_on_c, 8, 70, 0
7, 10317, Note_on_c, 8, 84, 0
7, 10319, Note_on_c, 7, 58, 25
7, 10320, Note_on_c, 7, 62, 18
7, 10324, Note_on_c, 8, 70, 20
7, 10325, Note_on_c, 8, 77, 31
7, 10372, Note_on_c, 7, 53, 0
7, 10382, Note_on_c, 8, 77, 0
7, 10394, Note_on_c, 8, 82, 87
7, 10433, Note_on_c, 8, 82, 0
7, 10441, Note_on_c, 7, 53, 19
7, 10450, Note_on_c, 8, 70, 0
7, 10453, Note_on_c, 7, 58, 0
7, 10454, Note_on_c, 7, 62, 0
7, 10462, Note_on_c, 8, 82, 74
7, 10479, Note_on_c, 8, 82, 0
7, 10512, Note_on_c, 8, 74, 60
7, 10529, Note_on_c, 8, 74, 0
7, 10552, Note_on_c, 7, 58, 43
7, 10563, Note_on_c, 7, 63, 31
7, 10564, Note_on_c, 8, 67, 43
7, 10568, Control_c, 3, 64, 0
7, 10572, Note_on_c, 8, 70, 60
7, 10573, Note_on_c, 7, 65, 32
7, 10579, Note_on_c, 8, 75, 61
7, 10584, Note_on_c, 8, 77, 51
7, 10611, Control_c, 3, 64, 127
7, 10651, Note_on_c, 7, 63, 0
7, 10654, Note_on_c, 7, 58, 0
7, 10658, Note_on_c, 7, 65, 0
7, 10660, Note_on_c, 7, 53, 0
7, 10690, Note_on_c, 7, 53, 44
7, 10757, Note_on_c, 8, 70, 0
7, 10757, Note_on_c, 8, 67, 0
7, 10800, Note_on_c, 7, 58, 33
7, 10801, Note_on_c, 7, 63, 26
7, 10801, Note_on_c, 8, 70, 44
7, 10803, Note_on_c, 7, 65, 34
7, 10804, Note_on_c, 8, 67, 28
7, 10834, Note_on_c, 7, 65, 0
7, 10834, Note_on_c, 7, 63, 0
7, 10847, Note_on_c, 7, 53, 0
7, 10850, Note_on_c, 8, 75, 0
7, 10864, Note_on_c, 7, 58, 0
7, 10873, Note_on_c, 8, 77, 0
7, 10916, Note_on_c, 7, 53, 40
7, 10927, Note_on_c, 8, 67, 0
7, 10934, Note_on_c, 7, 53, 0
7, 10937, Note_on_c, 8, 70, 0
7, 11008, Control_c, 3, 64, 0
7, 11022, Note_on_c, 7, 41, 43
7, 11028, Control_c, 3, 64, 127
7, 11030, Note_on_c, 7, 41, 0
7, 11104, Note_on_c, 8, 74, 44
7, 11104, Note_on_c, 8, 66, 36
7, 11104, Note_on_c, 7, 62, 42
7, 11107, Note_on_c, 7, 57, 34
7, 11108, Control_c, 3, 64, 0
7, 11109, Note_on_c, 7, 51, 35
7, 11113, Note_on_c, 7, 62, 0
7, 11114, Note_on_c, 8, 66, 0
7, 11115, Note_on_c, 7, 57, 0
7, 11117, Note_on_c, 7, 51, 0
7, 11119, Note_on_c, 8, 74, 0
7, 11235, Note_on_c, 8, 74, 53
7, 11235, Note_on_c, 8, 66, 47
7, 11236, Note_on_c, 7, 62, 52
7, 11238, Note_on_c, 7, 51, 45
7, 11239, Note_on_c, 7, 57, 44
7, 11243, Note_on_c, 8, 69, 22
7, 11247, Note_on_c, 7, 57, 0
7, 11248, Note_on_c, 7, 62, 0
7, 11248, Note_on_c, 8, 66, 0
7, 11249, Note_on_c, 8, 69, 0
7, 11252, Note_on_c, 7, 51, 0
7, 11254, Note_on_c, 8, 74, 0
7, 11311, Control_c, 3, 64, 127
7, 11361, Note_on_c, 8, 72, 37
7, 11366, Note_on_c, 8, 65, 35
7, 11367, Note_on_c, 7, 57, 42
7, 11368, Note_on_c, 8, 69, 40
7, 11368, Control_c, 3, 64, 0
7, 11368, Note_on_c, 7, 51, 37
7, 11369, Note_on_c, 7, 60, 27
7, 11397, Control_c, 3, 64, 127
7, 11441, Note_on_c, 7, 60, 0
7, 11446, Note_on_c, 7, 51, 0
7, 11482, Note_on_c, 7, 57, 0
7, 11484, Note_on_c, 8, 69, 0
7, 11486, Note_on_c, 7, 51, 38
7, 11487, Note_on_c, 8, 72, 0
7, 11489, Note_on_c, 8, 65, 0
7, 11528, Control_c, 3, 64, 0
7, 11530, Note_on_c, 8, 70, 44
7, 11532, Note_on_c, 7, 51, 0
7, 11534, Note_on_c, 7, 55, 41
7, 11534, Note_on_c, 8, 60, 30
7, 11535, Note_on_c, 8, 65, 35
7, 11561, Control_c, 3, 64, 127
7, 11585, Note_on_c, 8, 70, 0
7, 11591, Note_on_c, 8, 65, 0
7, 11608, Note_on_c, 8, 60, 0
7, 11635, Control_c, 3, 64, 0
7, 11637, Note_on_c, 7, 55, 0
7, 11644, Note_on_c, 8, 59, 31
7, 11644, Note_on_c, 8, 64, 33
7, 11645, Note_on_c, 8, 69, 29
7, 11647, Note_on_c, 7, 54, 35
7, 11664, Control_c, 3, 64, 127
7, 11675, Note_on_c, 8, 69, 0
7, 11679, Note_on_c, 8, 59, 0
7, 11686, Note_on_c, 8, 64, 0
7, 11741, Control_c, 3, 64, 0
7, 11755, Note_on_c, 8, 70, 52
7, 11759, Note_on_c, 8, 65, 42
7, 11760, Note_on_c, 7, 54, 0
7, 11760, Note_on_c, 7, 55, 50
7, 11763, Control_c, 3, 64, 127
7, 11764, Note_on_c, 8, 60, 15
7, 11794, Note_on_c, 8, 65, 0
7, 11795, Note_on_c, 8, 60, 0
7, 11805, Note_on_c, 8, 70, 0
7, 11866, Control_c, 3, 64, 0
7, 11874, Note_on_c, 7, 55, 0
7, 11874, Note_on_c, 8, 62, 43
7, 11874, Note_on_c, 8, 67, 43
7, 11875, Note_on_c, 8, 72, 44
7, 11878, Note_on_c, 7, 57, 36
7, 11890, Control_c, 3, 64, 127
7, 11935, Note_on_c, 8, 62, 0
7, 11941, Note_on_c, 8, 67, 0
7, 11946, Note_on_c, 8, 72, 0
7, 11983, Control_c, 3, 64, 0
7, 11990, Note_on_c, 7, 57, 0
7, 11990, Note_on_c, 8, 74, 48
7, 11995, Note_on_c, 7, 58, 32
7, 11995, Note_on_c, 8, 69, 51
7, 11998, Note_on_c, 8, 64, 29
7, 12010, Control_c, 3, 64, 127
7, 12028, Note_on_c, 8, 74, 0
7, 12034, Note_on_c, 8, 69, 0
7, 12042, Note_on_c, 8, 64, 0
7, 12054, Note_on_c, 7, 58, 0
7, 12062, Note_on_c, 8, 72, 60
7, 12065, Note_on_c, 7, 57, 36
7, 12066, Note_on_c, 8, 67, 47
7, 12067, Note_on_c, 8, 62, 27
7, 12085, Note_on_c, 8, 62, 0
7, 12094, Note_on_c, 8, 67, 0
7, 12099, Control_c, 3, 64, 0
7, 12104, Note_on_c, 8, 72, 0
7, 12109, Note_on_c, 7, 57, 0
7, 12110, Note_on_c, 8, 71, 45
7, 12121, Note_on_c, 7, 56, 32
7, 12130, Note_on_c, 8, 71, 0
7, 12131, Control_c, 3, 64, 127
7, 12141, Control_c, 3, 64, 0
7, 12168, Control_c, 3, 64, 127
7, 12174, Note_on_c, 7, 56, 0
7, 12177, Note_on_c, 8, 61, 42
7, 12178, Note_on_c, 7, 55, 35
7, 12179, Note_on_c, 8, 70, 36
7, 12180, Note_on_c, 8, 66, 34
7, 12199, Note_on_c, 7, 55, 0
7, 12202, Note_on_c, 8, 66, 0
7, 12204, Note_on_c, 8, 70, 0
7, 12212, Note_on_c, 8, 61, 0
7, 12225, Control_c, 3, 64, 0
7, 12229, Note_on_c, 8, 69, 40
7, 12235, Note_on_c, 7, 53, 35
7, 12239, Note_on_c, 8, 65, 33
7, 12256, Note_on_c, 8, 60, 4
7, 12258, Control_c, 3, 64, 127
7, 12289, Note_on_c, 8, 69, 0
7, 12312, Note_on_c, 8, 65, 0
7, 12317, Note_on_c, 8, 60, 0
7, 12347, Control_c, 3, 64, 0
7, 12349, Note_on_c, 7, 53, 0
7, 12353, Note_on_c, 8, 68, 35
7, 12354, Note_on_c, 8, 60, 29
7, 12357, Note_on_c, 8, 64, 33
7, 12360, Note_on_c, 7, 52, 24
7, 12367, Note_on_c, 7, 52, 0
7, 12369, Control_c, 3, 64, 127
7, 12397, Note_on_c, 8, 64, 0
7, 12401, Note_on_c, 8, 68, 0
7, 12407, Note_on_c, 8, 60, 0
7, 12476, Control_c, 3, 64, 0
7, 12479, Note_on_c, 8, 67, 30
7, 12480, Note_on_c, 8, 61, 32
7, 12481, Note_on_c, 8, 55, 31
7, 12483, Note_on_c, 7, 39, 35
7, 12495, Note_on_c, 7, 46, 23
7, 12510, Control_c, 3, 64, 127
7, 12512, Note_on_c, 7, 39, 0
7, 12536, Note_on_c, 7, 46, 0
7, 12536, Note_on_c, 8, 55, 0
7, 12559, Note_on_c, 8, 61, 0
7, 12602, Note_on_c, 8, 61, 37
7, 12604, Note_on_c, 7, 55, 34
7, 12605, Note_on_c, 8, 56, 27
7, 12617, Note_on_c, 8, 56, 0
7, 12658, Note_on_c, 7, 55, 0
7, 12663, Note_on_c, 8, 61, 0
7, 12687, Note_on_c, 7, 50, 20
7, 12719, Control_c, 3, 64, 0
7, 12723, Note_on_c, 8, 59, 32
7, 12723, Note_on_c, 7, 43, 28
7, 12727, Note_on_c, 7, 53, 31
7, 12747, Note_on_c, 7, 50, 0
7, 12759, Control_c, 3, 64, 127
7, 12765, Note_on_c, 7, 53, 0
7, 12799, Note_on_c, 8, 59, 0
7, 12801, Note_on_c, 8, 67, 0
7, 12844, Note_on_c, 7, 43, 0
7, 12844, Note_on_c, 8, 59, 48
7, 12850, Note_on_c, 7, 53, 26
7, 12851, Note_on_c, 7, 47, 24
7, 12859, Note_on_c, 7, 47, 0
7, 12859, Note_on_c, 7, 53, 0
7, 12862, Note_on_c, 8, 59, 0
7, 12948, Note_on_c, 8, 66, 55
7, 12959, Control_c, 3, 64, 0
7, 12960, Sequencer_specific, 18, 0, 0, 0, 106, 0, 5, 91, 84, 101, 120, 116, 61, 50, 61, 53, 61, 53, 93
7, 12960, Text_t, "Series of diminished chords follow the melody down chromatically"
7, 12964, Note_on_c, 8, 82, 69
7, 12965, Note_on_c, 8, 73, 65
7, 12966, Note_on_c, 7, 67, 67
7, 12966, Note_on_c, 8, 76, 60
7, 12967, Note_on_c, 8, 79, 61
7, 12972, Note_on_c, 8, 66, 0
7, 12985, Control_c, 3, 64, 127
7, 13008, Note_on_c, 8, 79, 0
7, 13015, Note_on_c, 8, 76, 0
7, 13024, Note_on_c, 8, 73, 0
7, 13024, Note_on_c, 8, 82, 0
7, 13032, Control_c, 3, 64, 0
7, 13036, Control_c, 3, 64, 127
7, 13040, Note_on_c, 7, 67, 0
7, 13040, Note_on_c, 8, 81, 58
7, 13042, Note_on_c, 7, 66, 44
7, 13042, Note_on_c, 8, 76, 44
7, 13043, Note_on_c, 8, 72, 39
7, 13060, Note_on_c, 8, 81, 0
7, 13062, Note_on_c, 8, 72, 0
7, 13067, Note_on_c, 8, 76, 0
7, 13080, Control_c, 3, 64, 0
7, 13089, Note_on_c, 7, 66, 0
7, 13097, Note_on_c, 7, 65, 36
7, 13097, Note_on_c, 8, 80, 25
7, 13098, Note_on_c, 8, 71, 26
7, 13100, Note_on_c, 8, 74, 33
7, 13110, Note_on_c, 8, 80, 0
7, 13112, Note_on_c, 8, 71, 0
7, 13117, Note_on_c, 8, 74, 0
7, 13127, Note_on_c, 7, 65, 0
7, 13159, Note_on_c, 8, 70, 43
7, 13160, Note_on_c, 8, 79, 41
7, 13160, Note_on_c, 7, 64, 43
7, 13162, Control_c, 3, 64, 127
7, 13163, Note_on_c, 8, 73, 47
7, 13175, Note_on_c, 8, 79, 0
7, 13184, Note_on_c, 8, 73, 0
7, 13187, Note_on_c, 8, 70, 0
7, 13200, Control_c, 3, 64, 0
7, 13205, Note_on_c, 7, 64, 0
7, 13214, Note_on_c, 7, 63, 37
7, 13215, Note_on_c, 8, 78, 35
7, 13216, Note_on_c, 8, 69, 36
7, 13220, Note_on_c, 8, 72, 29
7, 13222, Note_on_c, 8, 75, 35
7, 13227, Control_c, 3, 64, 127
7, 13279, Note_on_c, 8, 69, 0
7, 13287, Note_on_c, 8, 72, 0
7, 13287, Note_on_c, 8, 78, 0
7, 13298, Note_on_c, 8, 75, 0
7, 13305, Note_on_c, 7, 63, 0
7, 13396, Note_on_c, 8, 68, 29
7, 13397, Note_on_c, 7, 59, 36
7, 13402, Note_on_c, 8, 74, 26
7, 13409, Note_on_c, 8, 68, 0
7, 13416, Note_on_c, 8, 74, 0
7, 13418, Note_on_c, 7, 59, 0
7, 13439, Control_c, 3, 64, 0
7, 13444, Note_on_c, 8, 72, 50
7, 13445, Note_on_c, 7, 62, 36
7, 13446, Note_on_c, 8, 77, 43
7, 13447, Note_on_c, 8, 65, 30
7, 13468, Control_c, 3, 64, 127
7, 13485, Note_on_c, 7, 62, 0
7, 13489, Note_on_c, 8, 77, 0
7, 13493, Note_on_c, 7, 50, 52
7, 13494, Note_on_c, 8, 72, 0
7, 13506, Note_on_c, 8, 65, 0
7, 13571, Note_on_c, 8, 64, 50
7, 13585, Note_on_c, 8, 64, 0
7, 13592, Note_on_c, 7, 50, 0
7, 13610, Note_on_c, 8, 65, 60
7, 13651, Note_on_c, 8, 65, 0
7, 13683, Control_c, 3, 64, 0
7, 13684, Note_on_c, 7, 43, 32
7, 13686, Note_on_c, 8, 66, 46
7, 13688, Note_on_c, 8, 64, 34
7, 13689, Note_on_c, 7, 53, 28
7, 13710, Control_c, 3, 64, 127
7, 13733, Note_on_c, 8, 67, 49
7, 13735, Note_on_c, 8, 66, 0
7, 13737, Control_c, 3, 64, 0
7, 13744, Control_c, 3, 64, 127
7, 13769, Note_on_c, 8, 64, 0
7, 13771, Note_on_c, 7, 53, 0
7, 13796, Note_on_c, 8, 67, 0
7, 13804, Control_c, 3, 64, 0
7, 13806, Note_on_c, 8, 65, 41
7, 13807, Note_on_c, 8, 62, 37
7, 13811, Note_on_c, 7, 53, 32
7, 13817, Control_c, 3, 64, 127
7, 13826, Note_on_c, 7, 43, 0
7, 13828, Note_on_c, 8, 62, 0
7, 13841, Note_on_c, 7, 53, 0
7, 13842, Note_on_c, 8, 65, 0
7, 13852, Note_on_c, 8, 62, 26
7, 13862, Note_on_c, 8, 62, 0
7, 13902, Note_on_c, 8, 60, 57
7, 13903, Note_on_c, 8, 63, 57
7, 13903, Control_c, 3, 64, 0
7, 13908, Note_on_c, 7, 48, 36
7, 13913, Note_on_c, 8, 58, 20
7, 13921, Note_on_c, 8, 60, 0
7, 13925, Note_on_c, 8, 63, 0
7, 13926, Note_on_c, 8, 58, 0
7, 13929, Control_c, 3, 64, 127
7, 13985, Note_on_c, 7, 48, 0
7, 13992, Note_on_c, 8, 70, 70
7, 13995, Note_on_c, 8, 63, 65
7, 13996, Note_on_c, 8, 60, 69
7, 13996, Note_on_c, 7, 55, 56
7, 14018, Note_on_c, 8, 60, 0
7, 14021, Note_on_c, 8, 63, 0
7, 14027, Note_on_c, 8, 70, 0
7, 14031, Control_c, 3, 64, 0
7, 14033, Note_on_c, 7, 55, 0
7, 14043, Note_on_c, 8, 67, 38
7, 14046, Note_on_c, 8, 63, 36
7, 14046, Note_on_c, 8, 60, 37
7, 14053, Note_on_c, 8, 67, 0
7, 14053, Control_c, 3, 64, 127
7, 14061, Note_on_c, 8, 60, 0
7, 14065, Note_on_c, 8, 63, 0
7, 14084, Control_c, 3, 64, 0
7, 14104, Control_c, 3, 64, 127
7, 14115, Note_on_c, 8, 66, 51
7, 14117, Note_on_c, 8, 63, 35
7, 14124, Note_on_c, 8, 60, 24
7, 14126, Note_on_c, 7, 48, 34
7, 14130, Note_on_c, 8, 60, 0
7, 14134, Note_on_c, 8, 66, 0
7, 14139, Note_on_c, 8, 63, 0
7, 14145, Control_c, 3, 64, 0
7, 14146, Note_on_c, 7, 48, 0
7, 14158, Note_on_c, 7, 51, 32
7, 14161, Note_on_c, 8, 63, 30
7, 14161, Note_on_c, 8, 65, 49
7, 14161, Note_on_c, 7, 41, 30
7, 14170, Control_c, 3, 64, 127
7, 14171, Note_on_c, 7, 41, 0
7, 14189, Note_on_c, 7, 51, 0
7, 14192, Note_on_c, 8, 65, 0
7, 14198, Note_on_c, 8, 63, 0
7, 14280, Note_on_c, 7, 57, 33
7, 14280, Note_on_c, 8, 66, 42
7, 14281, Note_on_c, 8, 62, 46
7, 14281, Note_on_c, 8, 69, 49
7, 14281, Note_on_c, 8, 72, 43
7, 14287, Note_on_c, 7, 57, 0
7, 14307, Note_on_c, 8, 72, 0
7, 14307, Note_on_c, 8, 69, 0
7, 14313, Note_on_c, 8, 62, 0
7, 14318, Note_on_c, 8, 66, 0
7, 14389, Control_c, 3, 64, 0
7, 14400, Note_on_c, 8, 61, 75
7, 14400, Note_on_c, 8, 64, 71
7, 14400, Note_on_c, 8, 69, 68
7, 14400, Sequencer_specific, 18, 0, 0, 0, 106, 0, 5, 91, 84, 101, 120, 116, 61, 50, 61, 53, 61, 53, 93
7, 14400, Text_t, "A/Bb"
7, 14403, Note_on_c, 7, 57, 68
7, 14404, Note_on_c, 7, 58, 77
7, 14408, Note_on_c, 7, 57, 0
7, 14413, Control_c, 3, 64, 127
7, 14418, Note_on_c, 8, 61, 0
7, 14421, Note_on_c, 8, 64, 0
7, 14427, Note_on_c, 8, 69, 0
7, 14469, Note_on_c, 8, 81, 64
7, 14486, Note_on_c, 8, 81, 0
7, 14568, Note_on_c, 8, 73, 25
7, 14574, Note_on_c, 8, 73, 0
7, 14592, Note_on_c, 8, 76, 45
7, 14610, Note_on_c, 8, 76, 0
7, 14624, Note_on_c, 8, 81, 62
7, 14647, Note_on_c, 8, 81, 0
7, 14653, Note_on_c, 8, 85, 63
7, 14663, Note_on_c, 8, 85, 0
7, 14682, Note_on_c, 8, 88, 69
7, 14700, Note_on_c, 8, 88, 0
7, 14714, Note_on_c, 8, 93, 73
7, 14733, Note_on_c, 8, 93, 0
7, 14744, Note_on_c, 8, 100, 82
7, 14765, Note_on_c, 8, 100, 0
7, 14774, Note_on_c, 8, 97, 59
7, 14775, Note_on_c, 8, 88, 48
7, 14778, Note_on_c, 7, 70, 25
7, 14798, Note_on_c, 8, 88, 0
7, 14799, Note_on_c, 8, 97, 0
7, 14842, Note_on_c, 7, 58, 0
7, 14851, Note_on_c, 7, 70, 0
7, 14897, Note_on_c, 7, 58, 34
7, 14964, Note_on_c, 7, 58, 0
7, 15016, Note_on_c, 8, 73, 28
7, 15018, Note_on_c, 7, 58, 33
7, 15050, Note_on_c, 8, 64, 1
7, 15057, Note_on_c, 7, 58, 0
7, 15085, Note_on_c, 8, 73, 0
7, 15090, Note_on_c, 8, 64, 0
7, 15134, Note_on_c, 7, 58, 33
7, 15178, Note_on_c, 7, 58, 0
7, 15247, Note_on_c, 7, 58, 30
7, 15259, Note_on_c, 7, 58, 0
7, 15320, Note_on_c, 8, 65, 42
7, 15345, Note_on_c, 8, 65, 0
7, 15362, Note_on_c, 8, 65, 9
7, 15366, Note_on_c, 8, 58, 31
7, 15367, Control_c, 3, 64, 0
7, 15370, Note_on_c, 7, 53, 25
7, 15419, Note_on_c, 7, 53, 0
7, 15437, Note_on_c, 7, 53, 39
7, 15455, Note_on_c, 7, 53, 0
7, 15483, Note_on_c, 7, 41, 24
7, 15490, Control_c, 3, 64, 127
7, 15543, Note_on_c, 8, 58, 0
7, 15595, Note_on_c, 8, 58, 25
7, 15599, Note_on_c, 7, 53, 28
7, 15600, Note_on_c, 8, 55, 26
7, 15634, Note_on_c, 7, 53, 0
7, 15638, Note_on_c, 8, 55, 0
7, 15675, Note_on_c, 7, 53, 55
7, 15691, Note_on_c, 7, 41, 0
7, 15691, Note_on_c, 8, 58, 0
7, 15693, Note_on_c, 8, 65, 0
7, 15707, Note_on_c, 7, 53, 0
7, 15715, Note_on_c, 7, 41, 46
7, 15724, Note_on_c, 7, 41, 0
7, 15841, Note_on_c, 8, 65, 40
7, 15843, Note_on_c, 8, 74, 40
7, 15845, Note_on_c, 8, 68, 37
7, 15846, Note_on_c, 8, 71, 49
7, 15873, Control_c, 3, 64, 0
7, 15906, Control_c, 3, 64, 127
7, 15919, Note_on_c, 7, 53, 49
7, 15928, Control_c, 3, 64, 0
7, 15964, Control_c, 3, 64, 127
7, 15988, Note_on_c, 8, 65, 0
7, 15991, Note_on_c, 8, 71, 0
7, 15995, Note_on_c, 8, 68, 0
7, 16010, Note_on_c, 8, 74, 0
7, 16077, Note_on_c, 8, 62, 22
7, 16078, Note_on_c, 8, 56, 25
7, 16080, Control_c, 3, 64, 0
7, 16082, Note_on_c, 8, 59, 28
7, 16114, Control_c, 3, 64, 127
7, 16166, Note_on_c, 7, 53, 0
7, 16202, Note_on_c, 7, 53, 43
7, 16226, Note_on_c, 8, 59, 0
7, 16226, Note_on_c, 8, 56, 0
7, 16238, Note_on_c, 8, 62, 0
7, 16314, Control_c, 3, 64, 0
7, 16316, Note_on_c, 8, 63, 33
7, 16322, Note_on_c, 8, 57, 44
7, 16343, Control_c, 3, 64, 127
7, 16372, Note_on_c, 7, 53, 0
7, 16437, Note_on_c, 7, 53, 35
7, 16439, Control_c, 3, 64, 0
7, 16475, Control_c, 3, 64, 127
7, 16492, Note_on_c, 8, 57, 0
7, 16504, Note_on_c, 8, 63, 0
7, 16551, Note_on_c, 8, 63, 38
7, 16552, Control_c, 3, 64, 0
7, 16554, Note_on_c, 8, 72, 85
7, 16555, Note_on_c, 7, 57, 43
7, 16581, Note_on_c, 8, 72, 0
7, 16584, Note_on_c, 7, 53, 0
7, 16589, Note_on_c, 8, 69, 42
7, 16598, Control_c, 3, 64, 127
7, 16612, Note_on_c, 8, 69, 0
7, 16621, Note_on_c, 8, 70, 46
7, 16641, Note_on_c, 8, 70, 0
7, 16654, Note_on_c, 8, 72, 74
7, 16676, Note_on_c, 8, 72, 0
7, 16677, Control_c, 3, 64, 0
7, 16677, Note_on_c, 7, 53, 46
7, 16684, Note_on_c, 8, 74, 62
7, 16688, Note_on_c, 7, 57, 0
7, 16692, Note_on_c, 8, 63, 0
7, 16701, Control_c, 3, 64, 127
7, 16706, Note_on_c, 8, 74, 0
7, 16717, Note_on_c, 8, 75, 53
7, 16733, Note_on_c, 8, 75, 0
7, 16745, Note_on_c, 8, 76, 53
7, 16759, Note_on_c, 8, 76, 0
7, 16775, Note_on_c, 8, 77, 65
7, 16785, Control_c, 3, 64, 0
7, 16795, Note_on_c, 8, 77, 0
7, 16795, Note_on_c, 7, 61, 29
7, 16799, Note_on_c, 7, 58, 26
7, 16799, Note_on_c, 7, 64, 27
7, 16804, Note_on_c, 8, 79, 51
7, 16819, Control_c, 3, 64, 127
7, 16829, Note_on_c, 8, 79, 0
7, 16829, Note_on_c, 7, 53, 0
7, 16835, Note_on_c, 8, 81, 68
7, 16849, Note_on_c, 8, 81, 0
7, 16862, Note_on_c, 8, 82, 52
7, 16880, Note_on_c, 8, 82, 0
7, 16897, Note_on_c, 8, 84, 57
7, 16900, Note_on_c, 7, 53, 41
7, 16901, Control_c, 3, 64, 0
7, 16911, Note_on_c, 8, 84, 0
7, 16923, Note_on_c, 7, 58, 0
7, 16927, Note_on_c, 7, 64, 0
7, 16934, Control_c, 3, 64, 127
7, 16945, Note_on_c, 7, 61, 0
7, 17017, Control_c, 3, 64, 0
7, 17028, Note_on_c, 7, 61, 35
7, 17030, Note_on_c, 7, 64, 30
7, 17034, Note_on_c, 7, 58, 25
7, 17043, Control_c, 3, 64, 127
7, 17089, Note_on_c, 7, 53, 0
7, 17150, Control_c, 3, 64, 0
7, 17151, Note_on_c, 7, 53, 42
7, 17152, Note_on_c, 8, 88, 103
7, 17177, Control_c, 3, 64, 127
7, 17183, Note_on_c, 8, 88, 0
7, 17186, Note_on_c, 8, 91, 85
7, 17194, Note_on_c, 7, 64, 0
7, 17209, Note_on_c, 7, 61, 0
7, 17210, Note_on_c, 7, 58, 0
7, 17213, Note_on_c, 8, 91, 0
7, 17217, Note_on_c, 8, 88, 67
7, 17270, Control_c, 3, 64, 0
7, 17279, Note_on_c, 7, 62, 42
7, 17280, Note_on_c, 7, 57, 41
7, 17300, Control_c, 3, 64, 127
7, 17340, Note_on_c, 8, 88, 0
7, 17372, Note_on_c, 7, 53, 0
7, 17387, Note_on_c, 7, 53, 55
7, 17392, Note_on_c, 8, 88, 84
7, 17393, Control_c, 3, 64, 0
7, 17401, Note_on_c, 7, 57, 0
7, 17424, Note_on_c, 8, 88, 0
7, 17424, Note_on_c, 8, 89, 75
7, 17425, Note_on_c, 7, 62, 0
7, 17432, Control_c, 3, 64, 127
7, 17444, Note_on_c, 8, 89, 0
7, 17455, Note_on_c, 8, 86, 59
7, 17479, Note_on_c, 8, 86, 0
7, 17516, Note_on_c, 7, 62, 33
7, 17519, Note_on_c, 7, 57, 33
7, 17580, Note_on_c, 7, 53, 0
7, 17630, Note_on_c, 7, 57, 0
7, 17631, Note_on_c, 7, 53, 31
7, 17637, Note_on_c, 8, 81, 31
7, 17647, Note_on_c, 7, 62, 0
7, 17652, Note_on_c, 8, 81, 0
7, 17736, Note_on_c, 7, 58, 36
7, 17742, Note_on_c, 8, 74, 66
7, 17743, Note_on_c, 7, 62, 26
7, 17746, Control_c, 3, 64, 0
7, 17750, Note_on_c, 8, 77, 45
7, 17755, Note_on_c, 7, 65, 33
7, 17762, Note_on_c, 8, 84, 80
7, 17783, Control_c, 3, 64, 127
7, 17808, Note_on_c, 7, 53, 0
7, 17846, Note_on_c, 7, 65, 0
7, 17874, Note_on_c, 7, 53, 22
7, 17887, Note_on_c, 8, 84, 0
7, 17893, Note_on_c, 7, 58, 0
7, 17895, Note_on_c, 7, 62, 0
7, 17897, Note_on_c, 8, 74, 0
7, 17912, Note_on_c, 8, 77, 0
7, 17989, Control_c, 3, 64, 0
7, 17993, Note_on_c, 8, 82, 52
7, 17994, Note_on_c, 7, 58, 30
7, 17996, Note_on_c, 7, 62, 26
7, 17997, Note_on_c, 7, 65, 28
7, 17998, Note_on_c, 8, 70, 34
7, 18009, Control_c, 3, 64, 127
7, 18034, Note_on_c, 8, 82, 0
7, 18035, Note_on_c, 7, 53, 0
7, 18040, Note_on_c, 8, 70, 0
7, 18041, Note_on_c, 7, 65, 0
7, 18107, Note_on_c, 7, 53, 49
7, 18110, Note_on_c, 7, 62, 0
7, 18122, Note_on_c, 7, 58, 0
7, 18188, Note_on_c, 7, 53, 0
7, 18233, Control_c, 3, 64, 0
7, 18236, Control_c, 3, 64, 127
7, 18335, Control_c, 3, 64, 0
7, 18336, Note_on_c, 7, 53, 38
7, 18344, Control_c, 3, 64, 127
7, 18421, Note_on_c, 7, 58, 49
7, 18428, Note_on_c, 7, 63, 39
7, 18445, Control_c, 3, 64, 0
7, 18446, Note_on_c, 7, 65, 35
7, 18447, Note_on_c, 8, 74, 67
7, 18459, Note_on_c, 8, 74, 0
7, 18461, Note_on_c, 8, 75, 69
7, 18480, Note_on_c, 8, 74, 49
7, 18489, Note_on_c, 8, 75, 0
7, 18502, Note_on_c, 8, 74, 0
7, 18504, Note_on_c, 8, 71, 51
7, 18519, Control_c, 3, 64, 127
7, 18527, Note_on_c, 8, 71, 0
7, 18532, Note_on_c, 7, 63, 0
7, 18534, Note_on_c, 7, 58, 0
7, 18535, Note_on_c, 8, 72, 75
7, 18543, Note_on_c, 7, 53, 0
7, 18551, Note_on_c, 7, 65, 0
7, 18563, Control_c, 3, 64, 0
7, 18565, Note_on_c, 8, 74, 80
7, 18574, Note_on_c, 7, 53, 58
7, 18575, Note_on_c, 8, 72, 0
7, 18588, Note_on_c, 8, 74, 0
7, 18596, Note_on_c, 8, 75, 61
7, 18601, Control_c, 3, 64, 127
7, 18608, Note_on_c, 8, 75, 0
7, 18626, Note_on_c, 8, 77, 62
7, 18649, Note_on_c, 8, 77, 0
7, 18653, Note_on_c, 8, 78, 65
7, 18672, Note_on_c, 8, 78, 0
7, 18684, Note_on_c, 8, 81, 71
7, 18691, Control_c, 3, 64, 0
7, 18694, Note_on_c, 7, 63, 33
7, 18696, Note_on_c, 7, 58, 19
7, 18698, Note_on_c, 7, 57, 35
7, 18707, Note_on_c, 8, 81, 0
7, 18709, Note_on_c, 7, 63, 0
7, 18716, Note_on_c, 8, 86, 62
7, 18721, Control_c, 3, 64, 127
7, 18722, Note_on_c, 7, 58, 0
7, 18732, Note_on_c, 7, 57, 0
7, 18740, Note_on_c, 8, 86, 0
7, 18744, Note_on_c, 8, 90, 60
7, 18755, Note_on_c, 8, 90, 0
7, 18772, Note_on_c, 8, 93, 74
7, 18795, Note_on_c, 8, 93, 0
7, 18801, Note_on_c, 8, 98, 68
7, 18820, Note_on_c, 7, 53, 0
7, 18832, Note_on_c, 8, 98, 0
7, 18832, Note_on_c, 8, 105, 73
7, 18832, Note_on_c, 7, 53, 60
7, 18835, Control_c, 3, 64, 0
7, 18846, Note_on_c, 8, 105, 0
7, 18849, Control_c, 3, 64, 127
7, 18945, Note_on_c, 7, 63, 29
7, 18950, Note_on_c, 7, 65, 34
7, 18951, Note_on_c, 7, 57, 25
7, 18997, Note_on_c, 7, 63, 0
7, 18998, Note_on_c, 7, 57, 0
7, 19007, Note_on_c, 7, 53, 0
7, 19032, Note_on_c, 7, 65, 0
7, 19069, Note_on_c, 7, 53, 54
7, 19103, Note_on_c, 7, 53, 0
7, 19183, Control_c, 3, 64, 0
7, 19185, Note_on_c, 8, 70, 43
7, 19187, Note_on_c, 7, 55, 42
7, 19188, Note_on_c, 8, 65, 46
7, 19194, Note_on_c, 8, 60, 18
7, 19207, Control_c, 3, 64, 127
7, 19223, Note_on_c, 8, 65, 0
7, 19226, Note_on_c, 8, 70, 0
7, 19233, Note_on_c, 8, 60, 0
7, 19259, Note_on_c, 7, 55, 0
7, 19266, Note_on_c, 8, 69, 30
7, 19271, Note_on_c, 8, 64, 32
7, 19274, Note_on_c, 7, 54, 31
7, 19275, Note_on_c, 8, 69, 0
7, 19280, Note_on_c, 8, 64, 0
7, 19291, Control_c, 3, 64, 0
7, 19306, Note_on_c, 8, 70, 53
7, 19307, Note_on_c, 7, 55, 49
7, 19307, Note_on_c, 8, 65, 40
7, 19309, Note_on_c, 7, 60, 35
7, 19311, Note_on_c, 7, 54, 0
7, 19319, Control_c, 3, 64, 127
7, 19322, Note_on_c, 7, 60, 0
7, 19326, Note_on_c, 8, 65, 0
7, 19327, Note_on_c, 7, 55, 0
7, 19328, Control_c, 3, 64, 0
7, 19335, Note_on_c, 8, 70, 0
7, 19375, Control_c, 3, 64, 127
7, 19386, Note_on_c, 8, 72, 49
7, 19389, Note_on_c, 7, 57, 41
7, 19392, Note_on_c, 8, 62, 24
7, 19400, Note_on_c, 8, 62, 0
7, 19400, Note_on_c, 8, 72, 0
7, 19414, Control_c, 3, 64, 0
7, 19415, Note_on_c, 7, 57, 0
7, 19432, Note_on_c, 7, 55, 38
7, 19432, Note_on_c, 8, 60, 46
7, 19432, Note_on_c, 8, 70, 57
7, 19440, Note_on_c, 8, 65, 18
7, 19451, Control_c, 3, 64, 127
7, 19498, Note_on_c, 8, 70, 0
7, 19505, Note_on_c, 8, 60, 0
7, 19508, Note_on_c, 8, 65, 0
7, 19538, Note_on_c, 7, 55, 0
7, 19541, Control_c, 3, 64, 0
7, 19546, Note_on_c, 7, 54, 33
7, 19546, Note_on_c, 8, 69, 44
7, 19548, Note_on_c, 8, 64, 37
7, 19554, Note_on_c, 8, 59, 24
7, 19562, Control_c, 3, 64, 127
7, 19573, Note_on_c, 8, 69, 0
7, 19578, Note_on_c, 8, 64, 0
7, 19592, Note_on_c, 8, 59, 0
7, 19656, Control_c, 3, 64, 0
7, 19660, Note_on_c, 7, 54, 0
7, 19663, Note_on_c, 8, 67, 40
7, 19666, Note_on_c, 8, 63, 35
7, 19670, Note_on_c, 8, 56, 23
7, 19670, Note_on_c, 7, 53, 33
7, 19671, Note_on_c, 8, 60, 32
7, 19696, Control_c, 3, 64, 127
7, 19738, Note_on_c, 8, 60, 0
7, 19740, Note_on_c, 8, 63, 0
7, 19749, Note_on_c, 8, 56, 0
7, 19763, Note_on_c, 8, 67, 0
7, 19780, Note_on_c, 8, 63, 39
7, 19782, Control_c, 3, 64, 0
7, 19784, Note_on_c, 7, 53, 0
7, 19784, Note_on_c, 8, 56, 37
7, 19787, Note_on_c, 7, 46, 25
7, 19789, Note_on_c, 8, 60, 39
7, 19801, Control_c, 3, 64, 127
7, 19811, Note_on_c, 7, 46, 0
7, 19857, Note_on_c, 8, 60, 0
7, 19874, Note_on_c, 7, 50, 31
7, 19879, Note_on_c, 8, 56, 0
7, 19883, Note_on_c, 8, 63, 0
7, 19897, Note_on_c, 7, 50, 0
7, 19902, Control_c, 3, 64, 0
7, 19906, Note_on_c, 7, 43, 25
7, 19906, Note_on_c, 8, 59, 48
7, 19910, Note_on_c, 8, 53, 49
7, 19910, Note_on_c, 8, 55, 41
7, 19932, Control_c, 3, 64, 127
7, 19969, Note_on_c, 8, 55, 0
7, 19978, Note_on_c, 8, 59, 0
7, 19985, Note_on_c, 8, 53, 0
7, 19989, Note_on_c, 7, 50, 64
7, 19989, Note_on_c, 8, 65, 68
7, 19990, Note_on_c, 8, 55, 67
7, 19990, Note_on_c, 8, 59, 64
7, 19996, Note_on_c, 7, 43, 0
7, 20016, Note_on_c, 8, 55, 0
7, 20021, Control_c, 3, 64, 0
7, 20024, Note_on_c, 8, 65, 0
7, 20026, Note_on_c, 7, 50, 0
7, 20029, Note_on_c, 8, 59, 0
7, 20031, Note_on_c, 7, 47, 35
7, 20034, Note_on_c, 8, 55, 27
7, 20039, Note_on_c, 8, 62, 24
7, 20055, Control_c, 3, 64, 127
7, 20086, Note_on_c, 8, 55, 0
7, 20089, Note_on_c, 8, 62, 0
7, 20109, Note_on_c, 8, 55, 35
7, 20110, Note_on_c, 8, 63, 31
7, 20112, Note_on_c, 8, 58, 39
7, 20124, Note_on_c, 8, 55, 0
7, 20130, Note_on_c, 8, 58, 0
7, 20131, Control_c, 3, 64, 0
7, 20132, Note_on_c, 7, 47, 0
7, 20139, Note_on_c, 8, 63, 0
7, 20145, Note_on_c, 7, 48, 30
7, 20155, Control_c, 3, 64, 127
7, 20233, Note_on_c, 8, 77, 89
7, 20249, Control_c, 3, 64, 0
7, 20256, Note_on_c, 7, 36, 37
7, 20264, Note_on_c, 7, 36, 0
7, 20269, Note_on_c, 8, 77, 0
7, 20274, Note_on_c, 7, 48, 0
7, 20274, Control_c, 3, 64, 127
7, 20281, Note_on_c, 8, 74, 35
7, 20297, Note_on_c, 8, 74, 0
7, 20308, Note_on_c, 8, 75, 59
7, 20320, Note_on_c, 8, 75, 0
7, 20338, Note_on_c, 8, 79, 63
7, 20355, Note_on_c, 8, 79, 0
7, 20366, Note_on_c, 8, 83, 82
7, 20377, Control_c, 3, 64, 0
7, 20385, Note_on_c, 8, 83, 0
7, 20389, Note_on_c, 7, 63, 35
7, 20390, Note_on_c, 7, 67, 41
7, 20392, Note_on_c, 7, 62, 32
7, 20393, Note_on_c, 7, 58, 33
7, 20396, Note_on_c, 8, 86, 89
7, 20404, Control_c, 3, 64, 127
7, 20412, Note_on_c, 7, 67, 0
7, 20417, Note_on_c, 7, 62, 0
7, 20419, Note_on_c, 8, 86, 0
7, 20424, Note_on_c, 7, 63, 0
7, 20427, Note_on_c, 7, 58, 0
7, 20461, Note_on_c, 8, 84, 87
7, 20504, Control_c, 3, 64, 0
7, 20507, Note_on_c, 7, 64, 64
7, 20513, Note_on_c, 7, 64, 0
7, 20513, Note_on_c, 7, 53, 35
7, 20519, Note_on_c, 8, 84, 0
7, 20522, Control_c, 3, 64, 127
7, 20523, Note_on_c, 7, 53, 0
7, 20588, Note_on_c, 7, 42, 43
7, 20605, Note_on_c, 7, 42, 0
7, 20628, Note_on_c, 8, 66, 62
7, 20630, Note_on_c, 7, 51, 35
7, 20630, Note_on_c, 7, 41, 41
7, 20634, Control_c, 3, 64, 0
7, 20640, Note_on_c, 8, 57, 24
7, 20640, Note_on_c, 8, 62, 36
7, 20674, Control_c, 3, 64, 127
7, 20723, Note_on_c, 8, 57, 0
7, 20725, Note_on_c, 8, 62, 0
7, 20728, Note_on_c, 7, 41, 0
7, 20740, Note_on_c, 8, 66, 0
7, 20752, Note_on_c, 8, 61, 42
7, 20752, Note_on_c, 7, 43, 32
7, 20752, Note_on_c, 8, 57, 44
7, 20757, Control_c, 3, 64, 0
7, 20789, Control_c, 3, 64, 127
7, 20824, Note_on_c, 8, 57, 0
7, 20824, Note_on_c, 7, 51, 0
7, 20839, Note_on_c, 7, 44, 33
7, 20847, Note_on_c, 7, 43, 0
7, 20850, Note_on_c, 8, 61, 0
7, 20859, Note_on_c, 7, 44, 0
7, 20873, Control_c, 3, 64, 0
7, 20873, Note_on_c, 7, 45, 48
7, 20874, Note_on_c, 7, 55, 53
7, 20875, Note_on_c, 8, 60, 49
7, 20906, Control_c, 3, 64, 127
7, 20941, Note_on_c, 7, 55, 0
7, 20954, Note_on_c, 7, 45, 0
7, 20957, Note_on_c, 7, 38, 39
7, 20982, Note_on_c, 7, 38, 0
7, 20989, Control_c, 3, 64, 0
7, 20993, Note_on_c, 7, 44, 45
7, 20994, Note_on_c, 7, 54, 52
7, 21024, Control_c, 3, 64, 127
7, 21050, Note_on_c, 8, 60, 0
7, 21062, Note_on_c, 7, 54, 0
7, 21080, Note_on_c, 7, 53, 61
7, 21081, Note_on_c, 8, 62, 50
7, 21082, Note_on_c, 8, 58, 52
7, 21097, Note_on_c, 7, 53, 0
7, 21100, Control_c, 3, 64, 0
7, 21104, Note_on_c, 7, 44, 0
7, 21106, Note_on_c, 8, 58, 0
7, 21108, Note_on_c, 8, 62, 0
7, 21111, Note_on_c, 7, 43, 51
7, 21127, Control_c, 3, 64, 127
7, 21139, Note_on_c, 7, 43, 0
7, 21198, Note_on_c, 8, 74, 91
7, 21232, Note_on_c, 8, 74, 0
7, 21233, Control_c, 3, 64, 0
7, 21239, Note_on_c, 8, 62, 28
7, 21241, Note_on_c, 7, 55, 30
7, 21243, Note_on_c, 7, 58, 36
7, 21243, Note_on_c, 8, 73, 49
7, 21280, Control_c, 3, 64, 127
7, 21302, Note_on_c, 8, 73, 0
7, 21310, Note_on_c, 8, 62, 0
7, 21319, Note_on_c, 8, 74, 69
7, 21338, Note_on_c, 7, 55, 0
7, 21338, Note_on_c, 8, 74, 0
7, 21360, Control_c, 3, 64, 0
7, 21361, Note_on_c, 7, 62, 30
7, 21364, Note_on_c, 7, 54, 21
7, 21369, Note_on_c, 8, 81, 59
7, 21371, Note_on_c, 8, 79, 56
7, 21401, Control_c, 3, 64, 127
7, 21418, Note_on_c, 8, 79, 0
7, 21429, Note_on_c, 8, 81, 0
7, 21434, Note_on_c, 7, 62, 0
7, 21445, Note_on_c, 7, 58, 0
7, 21453, Note_on_c, 8, 81, 71
7, 21482, Control_c, 3, 64, 0
7, 21487, Note_on_c, 7, 62, 27
7, 21488, Note_on_c, 7, 58, 32
7, 21493, Note_on_c, 8, 81, 0
7, 21507, Control_c, 3, 64, 127
7, 21511, Note_on_c, 8, 79, 63
7, 21537, Note_on_c, 8, 79, 0
7, 21558, Note_on_c, 7, 62, 0
7, 21566, Note_on_c, 8, 79, 50
7, 21591, Note_on_c, 7, 54, 0
7, 21596, Control_c, 3, 64, 0
7, 21597, Note_on_c, 8, 79, 0
7, 21602, Note_on_c, 7, 62, 24
7, 21607, Note_on_c, 8, 74, 50
7, 21612, Note_on_c, 7, 53, 25
7, 21631, Control_c, 3, 64, 127
7, 21684, Note_on_c, 7, 62, 0
7, 21687, Note_on_c, 7, 53, 0
7, 21697, Note_on_c, 7, 58, 0
7, 21718, Note_on_c, 7, 58, 25
7, 21724, Note_on_c, 7, 62, 20
7, 21726, Note_on_c, 7, 53, 26
7, 21787, Note_on_c, 7, 58, 0
7, 21788, Note_on_c, 7, 62, 0
7, 21795, Note_on_c, 7, 53, 0
7, 21825, Control_c, 3, 64, 0
7, 21837, Note_on_c, 7, 62, 31
7, 21837, Note_on_c, 8, 71, 42
7, 21839, Note_on_c, 7, 59, 38
7, 21840, Note_on_c, 8, 65, 25
7, 21848, Note_on_c, 7, 59, 0
7, 21849, Note_on_c, 7, 62, 0
7, 21849, Control_c, 3, 64, 127
7, 21932, Note_on_c, 8, 65, 0
7, 21938, Note_on_c, 8, 71, 0
7, 21948, Note_on_c, 7, 43, 42
7, 21949, Note_on_c, 8, 74, 0
7, 21957, Note_on_c, 7, 43, 0
7, 22064, Note_on_c, 8, 66, 52
7, 22064, Note_on_c, 7, 58, 43
7, 22064, Note_on_c, 7, 48, 43
7, 22065, Note_on_c, 8, 69, 54
7, 22065, Note_on_c, 8, 62, 58
7, 22065, Control_c, 3, 64, 0
7, 22087, Note_on_c, 8, 62, 0
7, 22091, Note_on_c, 8, 69, 0
7, 22099, Note_on_c, 8, 74, 60
7, 22115, Note_on_c, 8, 66, 0
7, 22120, Note_on_c, 8, 74, 0
7, 22132, Note_on_c, 8, 62, 30
7, 22132, Note_on_c, 8, 66, 20
7, 22135, Note_on_c, 8, 69, 35
7, 22136, Control_c, 3, 64, 127
7, 22145, Note_on_c, 8, 62, 0
7, 22147, Note_on_c, 8, 69, 0
7, 22150, Note_on_c, 8, 66, 0
7, 22160, Note_on_c, 8, 74, 60
7, 22170, Control_c, 3, 64, 0
7, 22185, Note_on_c, 8, 74, 0
7, 22198, Note_on_c, 8, 69, 55
7, 22198, Note_on_c, 8, 62, 31
7, 22198, Note_on_c, 8, 66, 27
7, 22201, Control_c, 3, 64, 127
7, 22255, Note_on_c, 8, 62, 0
7, 22276, Note_on_c, 7, 58, 0
7, 22288, Note_on_c, 8, 66, 0
7, 22308, Note_on_c, 8, 64, 44
7, 22308, Note_on_c, 8, 67, 37
7, 22309, Note_on_c, 8, 69, 0
7, 22311, Control_c, 3, 64, 0
7, 22311, Note_on_c, 7, 58, 28
7, 22340, Control_c, 3, 64, 127
7, 22360, Note_on_c, 7, 48, 0
7, 22417, Note_on_c, 8, 64, 0
7, 22424, Note_on_c, 7, 58, 0
7, 22426, Note_on_c, 8, 67, 0
7, 22428, Note_on_c, 7, 48, 50
7, 22435, Note_on_c, 7, 48, 0
7, 22533, Control_c, 3, 64, 0
7, 22535, Note_on_c, 8, 71, 61
7, 22536, Note_on_c, 8, 62, 88
7, 22536, Note_on_c, 8, 67, 70
7, 22537, Note_on_c, 8, 63, 74
7, 22576, Note_on_c, 8, 74, 69
7, 22591, Control_c, 3, 64, 127
7, 22647, Note_on_c, 8, 63, 0
7, 22649, Note_on_c, 8, 67, 0
7, 22649, Note_on_c, 8, 71, 0
7, 22655, Note_on_c, 8, 74, 0
7, 22668, Note_on_c, 8, 63, 52
7, 22668, Note_on_c, 8, 72, 36
7, 22668, Note_on_c, 8, 67, 43
7, 22672, Control_c, 3, 64, 0
7, 22673, Note_on_c, 8, 62, 0
7, 22673, Note_on_c, 7, 60, 42
7, 22681, Control_c, 3, 64, 127
7, 22710, Note_on_c, 7, 60, 0
7, 22716, Note_on_c, 8, 67, 0
7, 22717, Note_on_c, 8, 72, 0
7, 22727, Note_on_c, 8, 63, 0
7, 22800, Control_c, 3, 64, 0
7, 22800, Note_on_c, 8, 60, 40
7, 22800, Note_on_c, 8, 69, 44
7, 22801, Note_on_c, 8, 63, 38
7, 22803, Note_on_c, 7, 53, 41
7, 22804, Note_on_c, 8, 65, 28
7, 22828, Control_c, 3, 64, 127
7, 22919, Control_c, 3, 64, 0
7, 22919, Note_on_c, 7, 41, 67
7, 22928, Note_on_c, 8, 60, 0
7, 22930, Control_c, 3, 64, 127
7, 22931, Note_on_c, 8, 65, 0
7, 22936, Note_on_c, 7, 41, 0
7, 22939, Note_on_c, 8, 63, 0
7, 22943, Note_on_c, 7, 53, 0
7, 22968, Note_on_c, 8, 69, 0
7, 23040, Control_c, 3, 64, 0
7, 23040, Sequencer_specific, 18, 0, 0, 0, 106, 0, 5, 91, 84, 101, 120, 116, 61, 50, 61, 53, 61, 53, 93
7, 23040, Text_t, "Bb triad notes are 'surrounded' with upper and lower neighbours"
7, 23042, Note_on_c, 7, 65, 46
7, 23044, Note_on_c, 8, 84, 88
7, 23046, Note_on_c, 7, 60, 39
7, 23046, Note_on_c, 7, 62, 39
7, 23068, Note_on_c, 7, 65, 0
7, 23072, Note_on_c, 8, 84, 0
7, 23114, Note_on_c, 8, 82, 55
7, 23115, Control_c, 3, 64, 127
7, 23130, Note_on_c, 8, 82, 0
7, 23147, Note_on_c, 8, 84, 80
7, 23166, Note_on_c, 7, 53, 49
7, 23168, Note_on_c, 8, 84, 0
7, 23170, Control_c, 3, 64, 0
7, 23173, Note_on_c, 8, 81, 40
7, 23197, Note_on_c, 8, 81, 0
7, 23207, Note_on_c, 8, 77, 45
7, 23212, Note_on_c, 7, 62, 0
7, 23216, Note_on_c, 8, 77, 0
7, 23217, Note_on_c, 7, 60, 0
7, 23236, Note_on_c, 8, 79, 39
7, 23249, Note_on_c, 8, 79, 0
7, 23250, Control_c, 3, 64, 127
7, 23271, Note_on_c, 8, 81, 58
7, 23285, Note_on_c, 8, 81, 0
7, 23293, Control_c, 3, 64, 0
7, 23295, Note_on_c, 7, 62, 29
7, 23297, Note_on_c, 8, 77, 47
7, 23298, Note_on_c, 7, 60, 26
7, 23318, Note_on_c, 8, 77, 0
7, 23329, Note_on_c, 8, 74, 50
7, 23340, Note_on_c, 8, 74, 0
7, 23342, Note_on_c, 7, 53, 0
7, 23348, Control_c, 3, 64, 127
7, 23356, Note_on_c, 8, 75, 46
7, 23372, Note_on_c, 8, 75, 0
7, 23387, Note_on_c, 8, 77, 63
7, 23400, Control_c, 3, 64, 0
7, 23403, Note_on_c, 7, 53, 34
7, 23404, Note_on_c, 8, 77, 0
7, 23413, Note_on_c, 8, 74, 50
7, 23426, Control_c, 3, 64, 127
7, 23434, Note_on_c, 8, 74, 0
7, 23437, Note_on_c, 7, 60, 0
7, 23445, Note_on_c, 7, 62, 0
7, 23453, Note_on_c, 8, 67, 37
7, 23527, Control_c, 3, 64, 0
7, 23533, Note_on_c, 7, 62, 36
7, 23535, Note_on_c, 7, 56, 29
7, 23535, Note_on_c, 7, 59, 37
7, 23562, Control_c, 3, 64, 127
7, 23610, Note_on_c, 7, 53, 0
7, 23631, Note_on_c, 8, 67, 0
7, 23632, Note_on_c, 8, 68, 55
7, 23646, Note_on_c, 7, 53, 25
7, 23649, Note_on_c, 8, 68, 0
7, 23657, Control_c, 3, 64, 0
7, 23660, Note_on_c, 8, 70, 52
7, 23663, Note_on_c, 7, 62, 0
7, 23666, Note_on_c, 8, 70, 0
7, 23681, Note_on_c, 8, 71, 54
7, 23682, Note_on_c, 7, 59, 0
7, 23688, Note_on_c, 8, 71, 0
7, 23717, Note_on_c, 8, 74, 54
7, 23733, Note_on_c, 8, 74, 0
7, 23734, Note_on_c, 8, 76, 54
7, 23748, Note_on_c, 8, 76, 0
7, 23754, Note_on_c, 8, 77, 54
7, 23761, Note_on_c, 8, 77, 0
7, 23762, Control_c, 3, 64, 127
7, 23775, Note_on_c, 8, 79, 44
7, 23776, Note_on_c, 8, 77, 38
7, 23780, Control_c, 3, 64, 0
7, 23781, Note_on_c, 7, 62, 29
7, 23783, Note_on_c, 7, 59, 31
7, 23786, Note_on_c, 8, 77, 0
7, 23790, Note_on_c, 8, 79, 0
7, 23804, Note_on_c, 8, 81, 54
7, 23812, Note_on_c, 8, 81, 0
7, 23833, Note_on_c, 7, 53, 0
7, 23840, Note_on_c, 8, 82, 59
7, 23855, Note_on_c, 8, 82, 0
7, 23871, Note_on_c, 8, 84, 67
7, 23874, Control_c, 3, 64, 127
7, 23886, Note_on_c, 8, 84, 0
7, 23901, Note_on_c, 7, 53, 46
7, 23906, Control_c, 3, 64, 0
7, 23913, Note_on_c, 8, 85, 70
7, 23925, Note_on_c, 7, 59, 0
7, 23925, Note_on_c, 8, 85, 0
7, 23927, Note_on_c, 7, 62, 0
7, 23929, Note_on_c, 7, 56, 0
7, 23946, Note_on_c, 8, 86, 64
7, 23958, Note_on_c, 8, 86, 0
7, 23963, Note_on_c, 7, 53, 0
7, 23974, Note_on_c, 8, 87, 60
7, 23988, Note_on_c, 8, 87, 0
7, 23988, Control_c, 3, 64, 127
7, 24008, Note_on_c, 8, 88, 57
7, 24025, Note_on_c, 8, 88, 0
7, 24036, Note_on_c, 8, 91, 76
7, 24043, Control_c, 3, 64, 0
7, 24045, Note_on_c, 7, 63, 30
7, 24047, Note_on_c, 7, 65, 40
7, 24058, Note_on_c, 8, 91, 0
7, 24071, Note_on_c, 8, 89, 64
7, 24074, Control_c, 3, 64, 127
7, 24091, Note_on_c, 7, 63, 0
7, 24096, Note_on_c, 8, 89, 0
7, 24103, Note_on_c, 8, 86, 68
7, 24117, Note_on_c, 8, 86, 0
7, 24120, Note_on_c, 7, 53, 40
7, 24131, Note_on_c, 8, 87, 70
7, 24155, Note_on_c, 8, 87, 0
7, 24157, Note_on_c, 8, 83, 57
7, 24168, Note_on_c, 8, 83, 0
7, 24177, Control_c, 3, 64, 0
7, 24187, Note_on_c, 8, 86, 65
7, 24207, Control_c, 3, 64, 127
7, 24212, Note_on_c, 7, 65, 0
7, 24215, Note_on_c, 8, 83, 45
7, 24217, Note_on_c, 8, 86, 0
7, 24224, Note_on_c, 8, 83, 0
7, 24240, Note_on_c, 7, 65, 30
7, 24240, Note_on_c, 7, 63, 23
7, 24242, Note_on_c, 8, 84, 66
7, 24276, Note_on_c, 7, 63, 0
7, 24297, Note_on_c, 7, 53, 0
7, 24308, Note_on_c, 8, 84, 0
7, 24353, Note_on_c, 7, 65, 0
7, 24360, Note_on_c, 7, 53, 47
7, 24457, Control_c, 3, 64, 0
7, 24489, Note_on_c, 8, 70, 55
7, 24491, Control_c, 3, 64, 127
7, 24498, Note_on_c, 7, 61, 35
7, 24500, Note_on_c, 8, 73, 34
7, 24501, Note_on_c, 7, 64, 43
7, 24504, Note_on_c, 8, 76, 53
7, 24506, Note_on_c, 8, 81, 71
7, 24600, Control_c, 3, 64, 0
7, 24604, Note_on_c, 7, 53, 34
7, 24619, Control_c, 3, 64, 127
7, 24622, Note_on_c, 7, 53, 0
7, 24651, Note_on_c, 8, 78, 27
7, 24656, Note_on_c, 7, 64, 0
7, 24659, Note_on_c, 8, 78, 0
7, 24662, Note_on_c, 8, 81, 0
7, 24662, Note_on_c, 7, 61, 0
7, 24675, Note_on_c, 8, 70, 0
7, 24677, Note_on_c, 8, 76, 0
7, 24706, Note_on_c, 8, 73, 0
7, 24717, Note_on_c, 7, 53, 34
7, 24718, Note_on_c, 7, 61, 32
7, 24722, Control_c, 3, 64, 0
7, 24724, Note_on_c, 8, 73, 45
7, 24726, Note_on_c, 8, 67, 35
7, 24726, Note_on_c, 8, 79, 43
7, 24726, Note_on_c, 8, 76, 39
7, 24727, Note_on_c, 7, 64, 38
7, 24742, Control_c, 3, 64, 127
7, 24767, Note_on_c, 7, 53, 0
7, 24777, Note_on_c, 8, 67, 0
7, 24779, Note_on_c, 8, 78, 27
7, 24787, Note_on_c, 8, 78, 0
7, 24792, Note_on_c, 8, 79, 0
7, 24801, Note_on_c, 8, 73, 0
7, 24802, Note_on_c, 8, 76, 0
7, 24827, Control_c, 3, 64, 0
7, 24830, Note_on_c, 8, 81, 62
7, 24831, Note_on_c, 8, 73, 47
7, 24832, Note_on_c, 8, 76, 53
7, 24832, Note_on_c, 7, 53, 39
7, 24835, Note_on_c, 8, 69, 43
7, 24846, Note_on_c, 7, 64, 0
7, 24850, Control_c, 3, 64, 127
7, 24855, Note_on_c, 7, 61, 0
7, 24857, Note_on_c, 8, 81, 0
7, 24860, Note_on_c, 8, 76, 0
7, 24868, Note_on_c, 8, 73, 0
7, 24869, Note_on_c, 8, 69, 0
7, 24880, Note_on_c, 7, 53, 0
7, 24944, Control_c, 3, 64, 0
7, 24949, Note_on_c, 8, 74, 49
7, 24954, Note_on_c, 8, 69, 48
7, 24954, Note_on_c, 7, 65, 31
7, 24954, Note_on_c, 7, 62, 34
7, 24976, Control_c, 3, 64, 127
7, 25004, Note_on_c, 7, 53, 0
7, 25056, Note_on_c, 7, 65, 0
7, 25063, Control_c, 3, 64, 0
7, 25070, Note_on_c, 7, 53, 43
7, 25090, Control_c, 3, 64, 127
7, 25126, Note_on_c, 7, 62, 0
7, 25182, Control_c, 3, 64, 0
7, 25188, Note_on_c, 7, 62, 32
7, 25211, Control_c, 3, 64, 127
7, 25244, Note_on_c, 7, 53, 0
7, 25302, Control_c, 3, 64, 0
7, 25304, Note_on_c, 8, 69, 0
7, 25307, Note_on_c, 7, 53, 54
7, 25312, Control_c, 3, 64, 127
7, 25319, Note_on_c, 8, 74, 0
7, 25349, Note_on_c, 7, 62, 0
7, 25476, Note_on_c, 7, 53, 0
7, 25540, Note_on_c, 7, 53, 44
7, 25635, Note_on_c, 7, 58, 34
7, 25641, Note_on_c, 7, 62, 45
7, 25649, Note_on_c, 8, 72, 68
7, 25651, Control_c, 3, 64, 0
7, 25655, Note_on_c, 8, 77, 55
7, 25658, Note_on_c, 7, 65, 45
7, 25663, Note_on_c, 8, 84, 87
7, 25680, Control_c, 3, 64, 127
7, 25719, Note_on_c, 7, 53, 0
7, 25720, Note_on_c, 8, 84, 0
7, 25727, Note_on_c, 7, 65, 0
7, 25734, Note_on_c, 8, 77, 0
7, 25739, Note_on_c, 8, 82, 78
7, 25768, Note_on_c, 8, 82, 0
7, 25771, Note_on_c, 7, 53, 51
7, 25782, Note_on_c, 8, 72, 0
7, 25787, Note_on_c, 7, 62, 0
7, 25799, Note_on_c, 7, 58, 0
7, 25816, Note_on_c, 8, 74, 75
7, 25838, Note_on_c, 8, 74, 0
7, 25875, Note_on_c, 7, 58, 49
7, 25884, Note_on_c, 8, 67, 53
7, 25889, Note_on_c, 7, 63, 35
7, 25892, Note_on_c, 8, 70, 54
7, 25899, Note_on_c, 8, 75, 67
7, 25901, Note_on_c, 7, 65, 47
7, 25902, Control_c, 3, 64, 0
7, 25904, Note_on_c, 8, 77, 53
7, 25949, Control_c, 3, 64, 127
7, 25978, Note_on_c, 7, 63, 0
7, 25981, Note_on_c, 7, 65, 0
7, 25983, Note_on_c, 7, 58, 0
7, 25993, Note_on_c, 7, 53, 0
7, 26023, Note_on_c, 7, 53, 42
7, 26101, Note_on_c, 8, 70, 0
7, 26103, Note_on_c, 8, 67, 0
7, 26141, Note_on_c, 7, 58, 30
7, 26145, Note_on_c, 8, 70, 30
7, 26145, Note_on_c, 8, 67, 24
7, 26147, Note_on_c, 7, 63, 18
7, 26168, Note_on_c, 7, 63, 0
7, 26171, Note_on_c, 8, 67, 0
7, 26185, Note_on_c, 7, 53, 0
7, 26195, Note_on_c, 8, 70, 0
7, 26201, Note_on_c, 8, 75, 0
7, 26209, Note_on_c, 8, 77, 0
7, 26222, Note_on_c, 7, 58, 0
7, 26256, Note_on_c, 7, 53, 45
7, 26265, Note_on_c, 7, 53, 0
7, 26270, Sequencer_specific, 18, 0, 0, 0, 106, 0, 5, 91, 84, 101, 120, 116, 61, 50, 61, 53, 61, 53, 93
7, 26270, Text_t, "glissando up to target tone"
7, 26282, Note_on_c, 8, 65, 20
7, 26288, Note_on_c, 8, 65, 0
7, 26292, Note_on_c, 8, 67, 36
7, 26298, Note_on_c, 8, 67, 0
7, 26301, Note_on_c, 8, 69, 55
7, 26307, Note_on_c, 8, 69, 0
7, 26312, Note_on_c, 8, 71, 38
7, 26319, Note_on_c, 8, 71, 0
7, 26323, Note_on_c, 8, 72, 43
7, 26329, Note_on_c, 8, 72, 0
7, 26332, Note_on_c, 8, 74, 46
7, 26339, Note_on_c, 8, 74, 0
7, 26342, Note_on_c, 8, 76, 52
7, 26348, Note_on_c, 8, 76, 0
7, 26354, Note_on_c, 8, 77, 36
7, 26362, Note_on_c, 8, 77, 0
7, 26362, Note_on_c, 8, 79, 48
7, 26369, Note_on_c, 8, 79, 0
7, 26371, Note_on_c, 8, 81, 40
7, 26379, Note_on_c, 8, 81, 0
7, 26385, Note_on_c, 7, 63, 48
7, 26388, Note_on_c, 8, 86, 48
7, 26388, Note_on_c, 7, 62, 39
7, 26388, Note_on_c, 7, 67, 35
7, 26390, Control_c, 3, 64, 0
7, 26435, Control_c, 3, 64, 127
7, 26494, Note_on_c, 8, 86, 0
7, 26510, Note_on_c, 8, 84, 80
7, 26540, Note_on_c, 7, 62, 0
7, 26551, Note_on_c, 7, 67, 0
7, 26556, Note_on_c, 7, 63, 0
7, 26559, Note_on_c, 8, 84, 0
7, 26749, Control_c, 3, 64, 0
7, 26749, Note_on_c, 8, 57, 32
7, 26750, Note_on_c, 8, 62, 33
7, 26752, Note_on_c, 7, 41, 32
7, 26753, Note_on_c, 7, 51, 18
7, 26774, Note_on_c, 8, 57, 0
7, 26777, Note_on_c, 7, 41, 0
7, 26778, Note_on_c, 8, 62, 0
7, 26781, Note_on_c, 7, 51, 0
7, 26812, Control_c, 3, 64, 127
7, 26850, Sequencer_specific, 18, 0, 0, 0, 106, 0, 5, 91, 84, 101, 120, 116, 61, 50, 61, 53, 61, 53, 93
7, 26850, Text_t, "Series of perfect 4ths follow the melody"
7, 26866, Control_c, 3, 64, 0
7, 26872, Note_on_c, 8, 70, 42
7, 26878, Note_on_c, 7, 55, 37
7, 26878, Note_on_c, 8, 65, 45
7, 26878, Note_on_c, 8, 60, 24
7, 26895, Control_c, 3, 64, 127
7, 26901, Note_on_c, 8, 65, 0
7, 26906, Note_on_c, 8, 70, 0
7, 26907, Note_on_c, 7, 55, 0
7, 26908, Control_c, 3, 64, 0
7, 26910, Note_on_c, 8, 60, 0
7, 26949, Control_c, 3, 64, 127
7, 26958, Note_on_c, 8, 59, 27
7, 26958, Note_on_c, 8, 69, 34
7, 26959, Note_on_c, 7, 54, 35
7, 26960, Note_on_c, 8, 64, 35
7, 26967, Note_on_c, 8, 69, 0
7, 26969, Note_on_c, 8, 59, 0
7, 26973, Note_on_c, 8, 64, 0
7, 26980, Control_c, 3, 64, 0
7, 26992, Note_on_c, 7, 54, 0
7, 27000, Note_on_c, 7, 55, 42
7, 27000, Note_on_c, 8, 70, 51
7, 27000, Note_on_c, 8, 65, 44
7, 27002, Control_c, 3, 64, 127
7, 27019, Note_on_c, 8, 65, 0
7, 27028, Note_on_c, 8, 70, 0
7, 27068, Note_on_c, 7, 55, 0
7, 27078, Note_on_c, 8, 72, 52
7, 27080, Note_on_c, 8, 62, 48
7, 27081, Note_on_c, 7, 57, 42
7, 27082, Note_on_c, 8, 67, 43
7, 27089, Note_on_c, 8, 67, 0
7, 27093, Note_on_c, 8, 72, 0
7, 27096, Note_on_c, 8, 62, 0
7, 27106, Note_on_c, 7, 57, 0
7, 27114, Control_c, 3, 64, 0
7, 27127, Note_on_c, 7, 55, 43
7, 27128, Note_on_c, 8, 70, 46
7, 27129, Note_on_c, 8, 60, 31
7, 27131, Note_on_c, 8, 65, 24
7, 27150, Control_c, 3, 64, 127
7, 27181, Note_on_c, 8, 70, 0
7, 27188, Note_on_c, 8, 65, 0
7, 27199, Note_on_c, 8, 60, 0
7, 27228, Control_c, 3, 64, 0
7, 27234, Note_on_c, 7, 55, 0
7, 27238, Note_on_c, 8, 69, 38
7, 27238, Note_on_c, 8, 64, 36
7, 27242, Note_on_c, 8, 59, 20
7, 27242, Note_on_c, 7, 53, 32
7, 27249, Control_c, 3, 64, 127
7, 27285, Note_on_c, 8, 59, 0
7, 27285, Note_on_c, 8, 69, 0
7, 27299, Note_on_c, 8, 64, 0
7, 27343, Control_c, 3, 64, 0
7, 27349, Note_on_c, 7, 53, 0
7, 27349, Note_on_c, 8, 68, 52
7, 27351, Note_on_c, 8, 63, 43
7, 27355, Note_on_c, 8, 60, 33
7, 27357, Note_on_c, 7, 56, 20
7, 27365, Note_on_c, 7, 46, 27
7, 27365, Control_c, 3, 64, 127
7, 27395, Note_on_c, 8, 63, 0
7, 27397, Note_on_c, 7, 56, 0
7, 27400, Note_on_c, 8, 60, 0
7, 27414, Note_on_c, 8, 68, 0
7, 27472, Note_on_c, 7, 56, 30
7, 27475, Note_on_c, 8, 63, 36
7, 27475, Note_on_c, 8, 60, 44
7, 27510, Note_on_c, 7, 46, 0
7, 27535, Note_on_c, 7, 56, 0
7, 27552, Note_on_c, 8, 60, 0
7, 27563, Note_on_c, 8, 63, 0
7, 27595, Note_on_c, 8, 62, 34
7, 27597, Control_c, 3, 64, 0
7, 27598, Note_on_c, 7, 55, 24
7, 27598, Note_on_c, 7, 59, 32
7, 27625, Control_c, 3, 64, 127
7, 27639, Note_on_c, 7, 55, 0
7, 27643, Note_on_c, 7, 59, 0
7, 27646, Note_on_c, 8, 62, 0
7, 27720, Note_on_c, 8, 69, 80
7, 27773, Note_on_c, 8, 69, 0
7, 27791, Note_on_c, 8, 68, 62
7, 27827, Control_c, 3, 64, 0
7, 27829, Note_on_c, 8, 68, 0
7, 27838, Note_on_c, 8, 67, 56
7, 27838, Note_on_c, 7, 46, 36
7, 27839, Note_on_c, 7, 39, 38
7, 27859, Control_c, 3, 64, 127
7, 27871, Note_on_c, 7, 39, 0
7, 27880, Note_on_c, 7, 46, 0
7, 27923, Note_on_c, 8, 67, 0
7, 27970, Note_on_c, 7, 61, 34
7, 27971, Note_on_c, 7, 55, 35
7, 27972, Note_on_c, 8, 65, 29
7, 28021, Note_on_c, 8, 65, 0
7, 28028, Note_on_c, 7, 55, 0
7, 28036, Note_on_c, 7, 61, 0
7, 28079, Control_c, 3, 64, 0
7, 28085, Note_on_c, 7, 53, 36
7, 28085, Note_on_c, 7, 62, 30
7, 28089, Note_on_c, 7, 59, 34
7, 28108, Note_on_c, 7, 62, 0
7, 28110, Note_on_c, 7, 59, 0
7, 28113, Control_c, 3, 64, 127
7, 28119, Note_on_c, 8, 71, 54
7, 28120, Note_on_c, 7, 53, 0
7, 28134, Note_on_c, 8, 71, 0
7, 28152, Note_on_c, 8, 74, 47
7, 28171, Note_on_c, 8, 74, 0
7, 28180, Note_on_c, 8, 77, 53
7, 28192, Note_on_c, 8, 77, 0
7, 28201, Control_c, 3, 64, 0
7, 28205, Note_on_c, 7, 43, 40
7, 28206, Note_on_c, 7, 53, 32
7, 28215, Note_on_c, 8, 83, 71
7, 28221, Control_c, 3, 64, 127
7, 28229, Note_on_c, 7, 43, 0
7, 28241, Note_on_c, 7, 53, 0
7, 28245, Note_on_c, 8, 83, 0
7, 28251, Note_on_c, 8, 86, 85
7, 28313, Note_on_c, 8, 86, 0
7, 28325, Note_on_c, 8, 85, 61
7, 28326, Control_c, 3, 64, 0
7, 28327, Note_on_c, 7, 61, 30
7, 28328, Note_on_c, 7, 64, 32
7, 28331, Note_on_c, 7, 58, 25
7, 28357, Control_c, 3, 64, 127
7, 28378, Note_on_c, 8, 85, 0
7, 28380, Note_on_c, 7, 58, 0
7, 28381, Note_on_c, 7, 64, 0
7, 28384, Note_on_c, 7, 61, 0
7, 28438, Control_c, 3, 64, 0
7, 28439, Note_on_c, 8, 82, 67
7, 28441, Note_on_c, 8, 73, 59
7, 28443, Note_on_c, 7, 67, 53
7, 28444, Note_on_c, 8, 76, 51
7, 28445, Note_on_c, 8, 79, 45
7, 28455, Note_on_c, 8, 79, 0
7, 28461, Note_on_c, 8, 76, 0
7, 28466, Note_on_c, 8, 73, 0
7, 28466, Note_on_c, 8, 82, 0
7, 28471, Note_on_c, 7, 67, 0
7, 28478, Note_on_c, 8, 81, 52
7, 28479, Note_on_c, 8, 72, 39
7, 28480, Control_c, 3, 64, 127
7, 28483, Note_on_c, 7, 66, 38
7, 28487, Note_on_c, 8, 81, 0
7, 28490, Control_c, 3, 64, 0
7, 28492, Note_on_c, 8, 72, 0
7, 28507, Note_on_c, 7, 66, 0
7, 28514, Note_on_c, 7, 65, 39
7, 28514, Note_on_c, 8, 80, 53
7, 28515, Note_on_c, 8, 75, 44
7, 28520, Note_on_c, 8, 80, 0
7, 28525, Note_on_c, 8, 75, 0
7, 28539, Note_on_c, 7, 65, 0
7, 28551, Note_on_c, 8, 79, 63
7, 28553, Note_on_c, 8, 71, 54
7, 28554, Note_on_c, 8, 74, 51
7, 28557, Note_on_c, 7, 64, 40
7, 28561, Note_on_c, 8, 74, 0
7, 28562, Note_on_c, 8, 79, 0
7, 28563, Note_on_c, 8, 71, 0
7, 28572, Note_on_c, 7, 64, 0
7, 28589, Note_on_c, 8, 78, 55
7, 28591, Note_on_c, 8, 70, 43
7, 28594, Note_on_c, 8, 73, 37
7, 28598, Note_on_c, 7, 63, 28
7, 28599, Control_c, 3, 64, 127
7, 28647, Note_on_c, 8, 70, 0
7, 28648, Note_on_c, 8, 73, 0
7, 28648, Note_on_c, 8, 78, 0
7, 28660, Control_c, 3, 64, 0
7, 28661, Note_on_c, 7, 63, 0
7, 28668, Note_on_c, 8, 77, 55
7, 28673, Note_on_c, 8, 69, 35
7, 28674, Note_on_c, 7, 62, 26
7, 28675, Note_on_c, 8, 72, 42
7, 28678, Control_c, 3, 64, 127
7, 28738, Note_on_c, 8, 77, 0
7, 28741, Note_on_c, 8, 72, 0
7, 28742, Note_on_c, 8, 69, 0
7, 28760, Note_on_c, 7, 62, 0
7, 28896, Note_on_c, 7, 51, 47
7, 28898, Note_on_c, 8, 76, 54
7, 28898, Note_on_c, 7, 61, 34
7, 28899, Note_on_c, 8, 70, 53
7, 28901, Note_on_c, 8, 73, 51
7, 28902, Control_c, 3, 64, 0
7, 28922, Note_on_c, 8, 76, 0
7, 28923, Note_on_c, 7, 61, 0
7, 28924, Note_on_c, 8, 70, 0
7, 28928, Note_on_c, 7, 51, 0
7, 28935, Note_on_c, 8, 79, 68
7, 28936, Control_c, 3, 64, 127
7, 28940, Note_on_c, 7, 60, 38
7, 28944, Note_on_c, 7, 50, 40
7, 28976, Note_on_c, 7, 50, 0
7, 28980, Note_on_c, 8, 79, 0
7, 28986, Note_on_c, 8, 73, 0
7, 28988, Note_on_c, 7, 60, 0
7, 29016, Control_c, 3, 64, 0
7, 29020, Note_on_c, 8, 77, 53
7, 29021, Note_on_c, 7, 62, 34
7, 29024, Note_on_c, 7, 53, 26
7, 29024, Note_on_c, 8, 71, 49
7, 29026, Note_on_c, 7, 59, 41
7, 29026, Note_on_c, 8, 65, 35
7, 29038, Control_c, 3, 64, 127
7, 29042, Note_on_c, 7, 62, 0
7, 29047, Note_on_c, 7, 59, 0
7, 29056, Note_on_c, 7, 53, 0
7, 29057, Note_on_c, 8, 77, 0
7, 29059, Note_on_c, 8, 71, 0
7, 29071, Note_on_c, 8, 65, 0
7, 29141, Control_c, 3, 64, 0
7, 29147, Note_on_c, 7, 43, 36
7, 29147, Note_on_c, 8, 67, 48
7, 29149, Note_on_c, 8, 62, 33
7, 29149, Note_on_c, 7, 53, 29
7, 29173, Control_c, 3, 64, 127
7, 29177, Note_on_c, 7, 53, 0
7, 29200, Note_on_c, 8, 62, 0
7, 29204, Note_on_c, 7, 43, 0
7, 29220, Note_on_c, 8, 67, 0
7, 29271, Control_c, 3, 64, 0
7, 29272, Note_on_c, 8, 70, 55
7, 29274, Note_on_c, 8, 63, 54
7, 29274, Note_on_c, 7, 48, 48
7, 29275, Note_on_c, 7, 36, 50
7, 29276, Note_on_c, 8, 67, 46
7, 29278, Note_on_c, 8, 60, 48
7, 29301, Note_on_c, 8, 67, 0
7, 29303, Control_c, 3, 64, 127
7, 29307, Note_on_c, 8, 70, 0
7, 29315, Note_on_c, 8, 63, 0
7, 29316, Note_on_c, 8, 60, 0
7, 29320, Note_on_c, 7, 48, 0
7, 29354, Note_on_c, 8, 67, 66
7, 29356, Note_on_c, 7, 48, 41
7, 29363, Note_on_c, 7, 48, 0
7, 29384, Note_on_c, 8, 67, 0
7, 29388, Control_c, 3, 64, 0
7, 29398, Note_on_c, 8, 63, 40
7, 29399, Note_on_c, 7, 48, 37
7, 29402, Note_on_c, 7, 36, 0
7, 29409, Control_c, 3, 64, 127
7, 29416, Note_on_c, 7, 48, 0
7, 29431, Note_on_c, 8, 63, 0
7, 29519, Control_c, 3, 64, 0
7, 29523, Note_on_c, 8, 66, 38
7, 29525, Note_on_c, 8, 57, 31
7, 29526, Note_on_c, 8, 62, 34
7, 29528, Note_on_c, 7, 41, 38
7, 29528, Note_on_c, 7, 51, 25
7, 29535, Note_on_c, 8, 57, 0
7, 29537, Note_on_c, 7, 41, 0
7, 29537, Note_on_c, 8, 62, 0
7, 29539, Note_on_c, 7, 51, 0
7, 29548, Note_on_c, 8, 66, 0
7, 29561, Control_c, 3, 64, 127
7, 29638, Control_c, 3, 64, 0
7, 29645, Note_on_c, 8, 62, 57
7, 29645, Note_on_c, 8, 72, 54
7, 29646, Note_on_c, 8, 66, 42
7, 29651, Note_on_c, 8, 69, 22
7, 29655, Note_on_c, 8, 62, 0
7, 29658, Note_on_c, 8, 69, 0
7, 29661, Note_on_c, 8, 72, 0
7, 29663, Note_on_c, 8, 66, 0
7, 29687, Control_c, 3, 64, 127
7, 29754, Sequencer_specific, 18, 0, 0, 0, 106, 0, 5, 91, 84, 101, 120, 116, 61, 50, 61, 53, 61, 53, 93
7, 29754, Text_t, "Tremolo on A triad"
7, 29755, Note_on_c, 8, 61, 50
7, 29757, Control_c, 3, 64, 0
7, 29758, Note_on_c, 8, 64, 47
7, 29758, Note_on_c, 8, 58, 46
7, 29760, Note_on_c, 8, 57, 41
7, 29767, Note_on_c, 8, 57, 0
7, 29769, Note_on_c, 8, 64, 0
7, 29771, Note_on_c, 8, 61, 0
7, 29787, Note_on_c, 8, 57, 34
7, 29787, Note_on_c, 8, 61, 36
7, 29789, Note_on_c, 8, 64, 45
7, 29799, Note_on_c, 8, 57, 0
7, 29800, Note_on_c, 8, 64, 0
7, 29800, Note_on_c, 8, 61, 0
7, 29822, Note_on_c, 8, 61, 32
7, 29823, Note_on_c, 8, 64, 40
7, 29823, Note_on_c, 8, 57, 24
7, 29832, Note_on_c, 8, 57, 0
7, 29832, Note_on_c, 8, 64, 0
7, 29834, Note_on_c, 8, 61, 0
7, 29853, Note_on_c, 8, 61, 31
7, 29853, Note_on_c, 8, 57, 33
7, 29854, Note_on_c, 8, 64, 37
7, 29863, Note_on_c, 8, 57, 0
7, 29865, Note_on_c, 8, 64, 0
7, 29865, Note_on_c, 8, 61, 0
7, 29884, Note_on_c, 8, 61, 25
7, 29884, Note_on_c, 8, 57, 27
7, 29885, Note_on_c, 8, 64, 34
7, 29893, Note_on_c, 8, 57, 0
7, 29896, Note_on_c, 8, 64, 0
7, 29896, Note_on_c, 8, 61, 0
7, 29913, Note_on_c, 8, 58, 0
7, 29946, Note_on_c, 8, 58, 36
7, 29948, Note_on_c, 8, 57, 35
7, 29948, Note_on_c, 8, 64, 40
7, 29949, Note_on_c, 8, 61, 27
7, 29957, Note_on_c, 8, 57, 0
7, 29958, Note_on_c, 8, 61, 0
7, 29961, Note_on_c, 8, 64, 0
7, 29965, Note_on_c, 8, 58, 0
7, 29997, Note_on_c, 8, 58, 37
7, 29999, Note_on_c, 8, 61, 31
7, 30000, Note_on_c, 8, 57, 31
7, 30000, Note_on_c, 8, 64, 35
7, 30010, Note_on_c, 8, 61, 0
7, 30012, Note_on_c, 8, 57, 0
7, 30013, Note_on_c, 8, 64, 0
7, 30014, Note_on_c, 8, 58, 0
7, 30059, Note_on_c, 8, 58, 49
7, 30059, Note_on_c, 8, 57, 36
7, 30060, Note_on_c, 8, 61, 31
7, 30060, Note_on_c, 8, 64, 36
7, 30072, Note_on_c, 8, 64, 0
7, 30072, Note_on_c, 8, 61, 0
7, 30073, Note_on_c, 8, 57, 0
7, 30073, Note_on_c, 8, 58, 0
7, 30118, Control_c, 3, 64, 127
7, 30121, Note_on_c, 8, 58, 38
7, 30123, Note_on_c, 8, 64, 36
7, 30124, Note_on_c, 8, 61, 28
7, 30124, Note_on_c, 8, 57, 31
7, 30147, Note_on_c, 8, 57, 0
7, 30151, Note_on_c, 8, 64, 0
7, 30153, Note_on_c, 8, 65, 57
7, 30155, Note_on_c, 8, 61, 0
7, 30156, Control_c, 3, 64, 0
7, 30175, Note_on_c, 8, 61, 35
7, 30180, Note_on_c, 8, 65, 0
7, 30181, Note_on_c, 8, 57, 17
7, 30182, Note_on_c, 8, 64, 55
7, 30189, Control_c, 3, 64, 127
7, 30216, Note_on_c, 8, 58, 0
7, 30224, Note_on_c, 8, 57, 0
7, 30231, Note_on_c, 8, 64, 0
7, 30257, Note_on_c, 8, 61, 0
7, 30343, Control_c, 3, 64, 0
7, 30348, Note_on_c, 8, 63, 39
7, 30351, Note_on_c, 8, 58, 31
7, 30356, Control_c, 3, 64, 127
7, 30357, Note_on_c, 8, 53, 29
7, 30358, Note_on_c, 8, 55, 22
7, 30369, Note_on_c, 8, 55, 0
7, 30391, Note_on_c, 8, 58, 0
7, 30408, Note_on_c, 8, 63, 0
7, 30429, Note_on_c, 8, 53, 0
7, 30429, Note_on_c, 7, 41, 35
7, 30437, Note_on_c, 7, 41, 0
7, 30580, Control_c, 3, 64, 0
7, 30591, Note_on_c, 7, 66, 29
7, 30595, Note_on_c, 7, 56, 25
7, 30597, Note_on_c, 7, 63, 29
7, 30600, Note_on_c, 7, 61, 28
7, 30600, Control_c, 3, 64, 127
7, 30668, Note_on_c, 7, 66, 0
7, 30682, Note_on_c, 7, 63, 0
7, 30682, Note_on_c, 8, 84, 95
7, 30707, Note_on_c, 8, 84, 0
7, 30709, Note_on_c, 7, 56, 0
7, 30716, Note_on_c, 7, 61, 0
7, 30716, Control_c, 3, 64, 0
7, 30717, Note_on_c, 7, 62, 28
7, 30718, Note_on_c, 7, 60, 27
7, 30721, Note_on_c, 7, 65, 18
7, 30732, Sequencer_specific, 18, 0, 0, 0, 106, 0, 5, 91, 84, 101, 120, 116, 61, 50, 61, 53, 61, 53, 93
7, 30732, Text_t, "Broken arpeggio on Bb triad"
7, 30733, Note_on_c, 8, 82, 51
7, 30738, Note_on_c, 7, 65, 0
7, 30755, Control_c, 3, 64, 127
7, 30767, Note_on_c, 8, 82, 0
7, 30802, Note_on_c, 8, 86, 75
7, 30824, Note_on_c, 8, 86, 0
7, 30831, Control_c, 3, 64, 0
7, 30842, Note_on_c, 7, 53, 34
7, 30843, Note_on_c, 8, 77, 47
7, 30858, Note_on_c, 8, 77, 0
7, 30865, Control_c, 3, 64, 127
7, 30899, Note_on_c, 7, 60, 0
7, 30900, Note_on_c, 7, 62, 0
7, 30952, Control_c, 3, 64, 0
7, 30955, Note_on_c, 7, 62, 29
7, 30955, Note_on_c, 7, 60, 24
7, 30959, Note_on_c, 8, 74, 60
7, 30970, Note_on_c, 8, 74, 0
7, 30982, Note_on_c, 7, 53, 0
7, 31008, Control_c, 3, 64, 127
7, 31032, Note_on_c, 8, 77, 60
7, 31050, Note_on_c, 8, 77, 0
7, 31063, Control_c, 3, 64, 0
7, 31064, Note_on_c, 7, 60, 0
7, 31069, Note_on_c, 7, 62, 0
7, 31071, Note_on_c, 7, 53, 28
7, 31077, Note_on_c, 7, 65, 32
7, 31087, Control_c, 3, 64, 127
7, 31146, Note_on_c, 7, 65, 0
7, 31194, Note_on_c, 7, 56, 31
7, 31194, Control_c, 3, 64, 0
7, 31198, Note_on_c, 7, 59, 30
7, 31212, Control_c, 3, 64, 127
7, 31215, Note_on_c, 7, 59, 0
7, 31225, Note_on_c, 7, 56, 0
7, 31245, Note_on_c, 7, 53, 0
7, 31291, Sequencer_specific, 18, 0, 0, 0, 106, 0, 5, 91, 84, 101, 120, 116, 61, 50, 61, 53, 61, 53, 93
7, 31291, Text_t, "F whole/half step diminished scale fragment"
7, 31298, Note_on_c, 7, 56, 64
7, 31322, Note_on_c, 7, 56, 0
7, 31324, Control_c, 3, 64, 0
7, 31325, Note_on_c, 7, 58, 59
7, 31327, Note_on_c, 7, 53, 27
7, 31346, Note_on_c, 7, 58, 0
7, 31391, Control_c, 3, 64, 127
7, 31401, Note_on_c, 7, 53, 0
7, 31404, Note_on_c, 7, 55, 61
7, 31421, Note_on_c, 7, 55, 0
7, 31433, Note_on_c, 7, 56, 58
7, 31443, Note_on_c, 7, 53, 55
7, 31448, Control_c, 3, 64, 0
7, 31455, Note_on_c, 7, 56, 0
7, 31457, Note_on_c, 7, 58, 57
7, 31474, Note_on_c, 7, 58, 0
7, 31488, Note_on_c, 7, 59, 54
7, 31504, Note_on_c, 7, 59, 0
7, 31511, Note_on_c, 8, 61, 65
7, 31522, Control_c, 3, 64, 127
7, 31530, Note_on_c, 8, 61, 0
7, 31541, Note_on_c, 8, 62, 61
7, 31559, Note_on_c, 8, 62, 0
7, 31564, Note_on_c, 7, 56, 26
7, 31569, Note_on_c, 7, 59, 28
7, 31572, Note_on_c, 8, 63, 44
7, 31573, Control_c, 3, 64, 0
7, 31594, Note_on_c, 8, 63, 0
7, 31603, Note_on_c, 8, 64, 44
7, 31618, Note_on_c, 8, 64, 0
7, 31630, Note_on_c, 7, 59, 0
7, 31630, Note_on_c, 8, 65, 29
7, 31638, Control_c, 3, 64, 127
7, 31641, Note_on_c, 7, 56, 0
7, 31644, Note_on_c, 7, 53, 0
7, 31652, Note_on_c, 8, 65, 0
7, 31662, Note_on_c, 8, 67, 62
7, 31680, Sequencer_specific, 18, 0, 0, 0, 106, 0, 5, 91, 84, 101, 120, 116, 61, 50, 61, 53, 61, 53, 93
7, 31680, Text_t, "'Surrounding' F7 chord tones"
7, 31681, Note_on_c, 8, 67, 0
7, 31690, Control_c, 3, 64, 0
7, 31691, Note_on_c, 8, 65, 56
7, 31696, Note_on_c, 7, 57, 34
7, 31703, Note_on_c, 7, 53, 36
7, 31713, Note_on_c, 8, 65, 0
7, 31724, Note_on_c, 8, 62, 38
7, 31725, Note_on_c, 7, 57, 0
7, 31736, Note_on_c, 8, 62, 0
7, 31749, Note_on_c, 8, 63, 55
7, 31755, Control_c, 3, 64, 127
7, 31777, Note_on_c, 8, 63, 0
7, 31785, Note_on_c, 8, 59, 40
7, 31792, Note_on_c, 8, 59, 0
7, 31796, Note_on_c, 7, 53, 0
7, 31809, Control_c, 3, 64, 0
7, 31811, Note_on_c, 8, 62, 66
7, 31812, Note_on_c, 7, 53, 17
7, 31833, Note_on_c, 8, 62, 0
7, 31844, Note_on_c, 8, 59, 50
7, 31854, Note_on_c, 8, 59, 0
7, 31856, Control_c, 3, 64, 127
7, 31870, Note_on_c, 8, 60, 54
7, 31888, Note_on_c, 8, 60, 0
7, 31890, Note_on_c, 7, 53, 0
7, 31899, Note_on_c, 8, 62, 62
7, 31921, Note_on_c, 8, 62, 0
7, 31922, Control_c, 3, 64, 0
7, 31928, Note_on_c, 8, 63, 47
7, 31933, Note_on_c, 7, 60, 28
7, 31934, Note_on_c, 8, 63, 0
7, 31936, Note_on_c, 7, 57, 30
7, 31961, Note_on_c, 8, 65, 41
7, 31971, Note_on_c, 8, 65, 0
7, 31977, Control_c, 3, 64, 127
7, 31985, Note_on_c, 8, 67, 58
7, 32003, Note_on_c, 8, 67, 0
7, 32013, Note_on_c, 7, 57, 0
7, 32015, Note_on_c, 8, 69, 53
7, 32028, Note_on_c, 8, 69, 0
7, 32029, Control_c, 3, 64, 0
7, 32046, Note_on_c, 8, 74, 72
7, 32047, Note_on_c, 7, 53, 12
7, 32065, Control_c, 3, 64, 127
7, 32066, Note_on_c, 7, 60, 0
7, 32070, Note_on_c, 8, 74, 0
7, 32080, Note_on_c, 8, 71, 48
7, 32088, Note_on_c, 8, 71, 0
7, 32103, Note_on_c, 8, 72, 47
7, 32124, Note_on_c, 8, 72, 0
7, 32135, Note_on_c, 8, 74, 49
7, 32141, Control_c, 3, 64, 0
7, 32150, Note_on_c, 8, 74, 0
7, 32153, Note_on_c, 7, 61, 35
7, 32158, Note_on_c, 7, 58, 34
7, 32158, Note_on_c, 7, 64, 32
7, 32160, Sequencer_specific, 18, 0, 0, 0, 106, 0, 5, 91, 84, 101, 120, 116, 61, 50, 61, 53, 61, 53, 93
7, 32160, Text_t, "Bb Whole/half tone dim scale on Bb diminished"
7, 32161, Note_on_c, 8, 75, 50
7, 32175, Control_c, 3, 64, 127
7, 32177, Note_on_c, 8, 75, 0
7, 32189, Note_on_c, 7, 53, 0
7, 32193, Note_on_c, 8, 76, 46
7, 32205, Note_on_c, 8, 76, 0
7, 32218, Note_on_c, 8, 78, 46
7, 32234, Note_on_c, 8, 78, 0
7, 32249, Note_on_c, 8, 79, 65
7, 32258, Note_on_c, 7, 53, 42
7, 32259, Control_c, 3, 64, 0
7, 32266, Note_on_c, 8, 79, 0
7, 32275, Note_on_c, 7, 58, 0
7, 32279, Note_on_c, 7, 64, 0
7, 32280, Note_on_c, 8, 81, 48
7, 32283, Note_on_c, 7, 61, 0
7, 32292, Control_c, 3, 64, 127
7, 32295, Note_on_c, 8, 81, 0
7, 32309, Note_on_c, 8, 82, 60
7, 32321, Note_on_c, 8, 82, 0
7, 32333, Note_on_c, 8, 84, 68
7, 32343, Note_on_c, 8, 84, 0
7, 32353, Note_on_c, 8, 85, 37
7, 32359, Note_on_c, 8, 85, 0
7, 32360, Control_c, 3, 64, 0
7, 32370, Note_on_c, 8, 87, 60
7, 32376, Note_on_c, 8, 87, 0
7, 32376, Note_on_c, 7, 61, 33
7, 32381, Control_c, 3, 64, 127
7, 32381, Note_on_c, 7, 58, 28
7, 32382, Note_on_c, 7, 64, 31
7, 32388, Note_on_c, 8, 88, 64
7, 32400, Note_on_c, 7, 53, 0
7, 32401, Note_on_c, 8, 88, 0
7, 32410, Note_on_c, 8, 90, 37
7, 32417, Note_on_c, 8, 90, 0
7, 32428, Note_on_c, 8, 91, 62
7, 32446, Note_on_c, 8, 91, 0
7, 32450, Note_on_c, 8, 93, 39
7, 32463, Note_on_c, 8, 93, 0
7, 32466, Note_on_c, 8, 94, 56
7, 32472, Note_on_c, 8, 94, 0
7, 32486, Note_on_c, 8, 96, 63
7, 32492, Control_c, 3, 64, 0
7, 32496, Note_on_c, 7, 53, 46
7, 32503, Note_on_c, 8, 96, 0
7, 32504, Note_on_c, 8, 97, 51
7, 32509, Note_on_c, 7, 61, 0
7, 32513, Note_on_c, 7, 64, 0
7, 32518, Control_c, 3, 64, 127
7, 32519, Note_on_c, 7, 58, 0
7, 32527, Note_on_c, 8, 97, 0
7, 32530, Note_on_c, 8, 99, 32
7, 32540, Note_on_c, 8, 99, 0
7, 32548, Note_on_c, 8, 100, 42
7, 32563, Note_on_c, 8, 100, 0
7, 32570, Note_on_c, 8, 103, 88
7, 32607, Note_on_c, 8, 103, 0
7, 32616, Note_on_c, 8, 101, 77
7, 32621, Note_on_c, 7, 62, 41
7, 32621, Note_on_c, 7, 65, 30
7, 32623, Note_on_c, 7, 60, 40
7, 32629, Control_c, 3, 64, 0
7, 32665, Control_c, 3, 64, 127
7, 32676, Note_on_c, 7, 65, 0
7, 32680, Note_on_c, 7, 53, 0
7, 32691, Note_on_c, 8, 98, 69
7, 32697, Note_on_c, 8, 101, 0
7, 32721, Note_on_c, 8, 98, 0
7, 32738, Note_on_c, 7, 53, 38
7, 32773, Note_on_c, 7, 60, 0
7, 32787, Note_on_c, 7, 62, 0
7, 32863, Note_on_c, 7, 65, 38
7, 32863, Note_on_c, 7, 62, 42
7, 32864, Note_on_c, 7, 60, 29
7, 32896, Note_on_c, 7, 65, 0
7, 32905, Note_on_c, 7, 53, 0
7, 32986, Note_on_c, 7, 60, 0
7, 32989, Note_on_c, 7, 62, 0
7, 32994, Note_on_c, 7, 53, 16
7, 33080, Note_on_c, 7, 58, 45
7, 33092, Note_on_c, 7, 62, 31
7, 33100, Note_on_c, 8, 70, 57
7, 33114, Note_on_c, 8, 77, 66
7, 33116, Note_on_c, 8, 65, 19
7, 33123, Control_c, 3, 64, 0
7, 33130, Note_on_c, 8, 84, 50
7, 33168, Control_c, 3, 64, 127
7, 33175, Note_on_c, 8, 65, 0
7, 33175, Note_on_c, 7, 53, 0
7, 33214, Note_on_c, 8, 70, 0
7, 33235, Note_on_c, 7, 53, 32
7, 33240, Note_on_c, 7, 58, 0
7, 33248, Note_on_c, 7, 62, 0
7, 33270, Note_on_c, 8, 84, 0
7, 33305, Note_on_c, 8, 77, 0
7, 33345, Note_on_c, 7, 58, 25
7, 33347, Note_on_c, 8, 82, 47
7, 33347, Control_c, 3, 64, 0
7, 33348, Note_on_c, 7, 65, 41
7, 33349, Note_on_c, 7, 62, 24
7, 33354, Note_on_c, 8, 70, 25
7, 33355, Note_on_c, 8, 77, 38
7, 33374, Control_c, 3, 64, 127
7, 33375, Note_on_c, 7, 53, 0
7, 33384, Note_on_c, 7, 65, 0
7, 33395, Note_on_c, 8, 82, 0
7, 33398, Note_on_c, 8, 77, 0
7, 33404, Note_on_c, 8, 70, 0
7, 33441, Note_on_c, 7, 62, 0
7, 33462, Note_on_c, 7, 58, 0
7, 33464, Note_on_c, 7, 53, 30
7, 33477, Note_on_c, 7, 53, 0
7, 33544, Note_on_c, 7, 63, 39
7, 33544, Note_on_c, 7, 58, 44
7, 33545, Note_on_c, 7, 55, 44
7, 33546, Note_on_c, 7, 65, 40
7, 33553, Note_on_c, 7, 55, 0
7, 33554, Note_on_c, 7, 65, 0
7, 33559, Note_on_c, 7, 58, 0
7, 33565, Note_on_c, 7, 63, 0
7, 33570, Control_c, 3, 64, 0
7, 33580, Note_on_c, 7, 58, 36
7, 33580, Note_on_c, 7, 63, 27
7, 33580, Note_on_c, 7, 55, 53
7, 33583, Note_on_c, 7, 65, 35
7, 33588, Note_on_c, 7, 55, 0
7, 33591, Note_on_c, 7, 65, 0
7, 33593, Note_on_c, 7, 58, 0
7, 33597, Note_on_c, 7, 63, 0
7, 33663, Note_on_c, 7, 53, 45
7, 33672, Note_on_c, 7, 53, 0
7, 33706, Note_on_c, 7, 65, 42
7, 33706, Note_on_c, 7, 58, 37
7, 33707, Note_on_c, 7, 55, 37
7, 33709, Note_on_c, 7, 63, 33
7, 33714, Note_on_c, 7, 55, 0
7, 33714, Note_on_c, 7, 65, 0
7, 33716, Note_on_c, 7, 58, 0
7, 33717, Note_on_c, 7, 63, 0
7, 33780, Note_on_c, 7, 41, 40
7, 33796, Note_on_c, 7, 41, 0
7, 33824, Note_on_c, 8, 65, 43
7, 33826, Note_on_c, 8, 55, 45
7, 33826, Note_on_c, 8, 58, 46
7, 33827, Note_on_c, 8, 63, 42
7, 33834, Note_on_c, 8, 55, 0
7, 33834, Note_on_c, 8, 65, 0
7, 33836, Note_on_c, 8, 58, 0
7, 33841, Note_on_c, 8, 63, 0
7, 33905, Note_on_c, 7, 29, 37
7, 33915, Note_on_c, 7, 29, 0
7, 33945, Note_on_c, 8, 58, 46
7, 33947, Note_on_c, 8, 55, 49
7, 33949, Note_on_c, 8, 63, 31
7, 33951, Note_on_c, 8, 65, 30
7, 33953, Control_c, 3, 64, 127
7, 33955, Note_on_c, 8, 55, 0
7, 33960, Note_on_c, 8, 65, 0
7, 33963, Note_on_c, 8, 58, 0
7, 33972, Note_on_c, 8, 63, 0
7, 34031, Note_on_c, 7, 41, 51
7, 34039, Note_on_c, 7, 41, 0
7, 34072, Note_on_c, 7, 51, 64
7, 34072, Note_on_c, 8, 66, 68
7, 34073, Note_on_c, 7, 62, 74
7, 34073, Note_on_c, 8, 69, 68
7, 34073, Note_on_c, 8, 74, 70
7, 34074, Control_c, 3, 64, 0
7, 34075, Note_on_c, 7, 57, 69
7, 34113, Control_c, 3, 64, 127
7, 34210, Note_on_c, 8, 74, 0
7, 34212, Note_on_c, 7, 62, 0
7, 34219, Note_on_c, 7, 57, 0
7, 34222, Note_on_c, 8, 69, 0
7, 34226, Note_on_c, 8, 66, 0
7, 34230, Note_on_c, 7, 51, 0
7, 34260, Control_c, 3, 64, 0
7, 34274, Note_on_c, 8, 74, 79
7, 34275, Note_on_c, 7, 58, 69
7, 34276, Note_on_c, 8, 66, 62
7, 34276, Note_on_c, 8, 69, 62
7, 34276, Note_on_c, 7, 62, 66
7, 34277, Note_on_c, 7, 51, 50
7, 34280, Note_on_c, 8, 64, 51
7, 34286, Note_on_c, 8, 64, 0
7, 34286, Control_c, 3, 64, 127
7, 34308, Note_on_c, 7, 58, 0
7, 34308, Note_on_c, 8, 74, 0
7, 34314, Note_on_c, 7, 62, 0
7, 34315, Note_on_c, 8, 66, 0
7, 34324, Note_on_c, 8, 69, 0
7, 34327, Control_c, 3, 64, 0
7, 34330, Note_on_c, 8, 72, 52
7, 34333, Note_on_c, 7, 62, 49
7, 34334, Note_on_c, 8, 69, 24
7, 34334, Note_on_c, 8, 66, 33
7, 34336, Note_on_c, 7, 57, 47
7, 34359, Control_c, 3, 64, 127
7, 34404, Note_on_c, 7, 57, 0
7, 34414, Note_on_c, 7, 62, 0
7, 34415, Note_on_c, 8, 66, 0
7, 34446, Note_on_c, 8, 66, 35
7, 34447, Note_on_c, 7, 62, 37
7, 34450, Note_on_c, 7, 57, 34
7, 34492, Note_on_c, 7, 57, 0
7, 34498, Note_on_c, 8, 69, 0
7, 34502, Note_on_c, 7, 62, 0
7, 34510, Note_on_c, 8, 72, 0
7, 34518, Note_on_c, 8, 66, 0
7, 34557, Control_c, 3, 64, 0
7, 34560, Note_on_c, 8, 70, 43
7, 34563, Note_on_c, 7, 60, 32
7, 34565, Note_on_c, 8, 65, 36
7, 34568, Note_on_c, 7, 55, 32
7, 34575, Note_on_c, 7, 51, 0
7, 34578, Note_on_c, 7, 55, 0
7, 34582, Control_c, 3, 64, 127
7, 34593, Note_on_c, 7, 60, 0
7, 34622, Note_on_c, 8, 65, 0
7, 34635, Note_on_c, 8, 70, 0
7, 34689, Sequencer_specific, 18, 0, 0, 0, 106, 0, 5, 91, 84, 101, 120, 116, 61, 50, 61, 53, 61, 53, 93
7, 34689, Text_t, "Thirteenth voicings move in parallel with the melody"
7, 34746, Control_c, 3, 64, 0
7, 34746, Note_on_c, 8, 73, 45
7, 34747, Note_on_c, 8, 69, 55
7, 34747, Note_on_c, 7, 62, 43
7, 34747, Note_on_c, 8, 76, 48
7, 34748, Note_on_c, 7, 67, 35
7, 34748, Note_on_c, 8, 81, 49
7, 34749, Note_on_c, 7, 56, 37
7, 34764, Note_on_c, 7, 67, 0
7, 34764, Control_c, 3, 64, 127
7, 34771, Note_on_c, 7, 62, 0
7, 34772, Note_on_c, 8, 69, 0
7, 34775, Note_on_c, 8, 76, 0
7, 34777, Note_on_c, 7, 56, 0
7, 34778, Note_on_c, 8, 73, 0
7, 34783, Note_on_c, 8, 81, 0
7, 34812, Control_c, 3, 64, 0
7, 34812, Note_on_c, 8, 72, 50
7, 34814, Note_on_c, 7, 67, 51
7, 34814, Note_on_c, 7, 62, 46
7, 34814, Note_on_c, 8, 77, 54
7, 34815, Note_on_c, 8, 82, 47
7, 34816, Note_on_c, 7, 56, 40
7, 34827, Note_on_c, 7, 67, 0
7, 34830, Note_on_c, 7, 62, 0
7, 34831, Note_on_c, 8, 72, 0
7, 34836, Note_on_c, 7, 56, 0
7, 34837, Note_on_c, 8, 77, 0
7, 34840, Control_c, 3, 64, 127
7, 34843, Note_on_c, 8, 82, 0
7, 34888, Note_on_c, 7, 57, 54
7, 34888, Note_on_c, 7, 68, 55
7, 34892, Note_on_c, 8, 84, 64
7, 34893, Note_on_c, 8, 79, 59
7, 34893, Note_on_c, 8, 74, 55
7, 34893, Control_c, 3, 64, 0
7, 34915, Note_on_c, 7, 68, 0
7, 34916, Note_on_c, 8, 74, 0
7, 34919, Note_on_c, 8, 79, 0
7, 34919, Note_on_c, 8, 84, 0
7, 34921, Note_on_c, 7, 57, 0
7, 34929, Control_c, 3, 64, 127
7, 34990, Note_on_c, 8, 82, 59
7, 34991, Control_c, 3, 64, 0
7, 34992, Note_on_c, 8, 72, 33
7, 34993, Note_on_c, 8, 77, 55
7, 34994, Note_on_c, 7, 62, 50
7, 34994, Note_on_c, 7, 67, 56
7, 34996, Note_on_c, 7, 56, 47
7, 35021, Control_c, 3, 64, 127
7, 35047, Note_on_c, 7, 62, 0
7, 35047, Note_on_c, 8, 77, 0
7, 35047, Note_on_c, 8, 82, 0
7, 35049, Note_on_c, 7, 67, 0
7, 35059, Note_on_c, 8, 72, 0
7, 35066, Note_on_c, 7, 56, 0
7, 35097, Control_c, 3, 64, 0
7, 35097, Note_on_c, 8, 81, 72
7, 35097, Note_on_c, 7, 66, 62
7, 35098, Note_on_c, 7, 55, 66
7, 35099, Note_on_c, 7, 61, 47
7, 35100, Note_on_c, 8, 76, 71
7, 35101, Note_on_c, 8, 71, 67
7, 35126, Control_c, 3, 64, 127
7, 35131, Note_on_c, 8, 71, 0
7, 35135, Note_on_c, 7, 55, 0
7, 35135, Note_on_c, 8, 81, 0
7, 35139, Note_on_c, 8, 76, 0
7, 35143, Note_on_c, 7, 66, 0
7, 35170, Control_c, 3, 64, 0
7, 35175, Note_on_c, 7, 61, 0
7, 35176, Note_on_c, 8, 80, 63
7, 35177, Note_on_c, 8, 75, 68
7, 35178, Note_on_c, 8, 70, 62
7, 35179, Note_on_c, 7, 65, 50
7, 35181, Note_on_c, 7, 54, 51
7, 35181, Note_on_c, 7, 60, 51
7, 35190, Control_c, 3, 64, 127
7, 35207, Note_on_c, 7, 65, 0
7, 35211, Note_on_c, 7, 60, 0
7, 35218, Note_on_c, 8, 70, 0
7, 35223, Note_on_c, 8, 80, 0
7, 35229, Note_on_c, 8, 75, 0
7, 35236, Note_on_c, 7, 54, 0
7, 35249, Control_c, 3, 64, 0
7, 35258, Note_on_c, 7, 64, 45
7, 35258, Note_on_c, 8, 74, 60
7, 35259, Note_on_c, 8, 79, 51
7, 35260, Note_on_c, 8, 67, 44
7, 35262, Note_on_c, 7, 59, 44
7, 35264, Note_on_c, 7, 53, 37
7, 35277, Control_c, 3, 64, 127
7, 35278, Note_on_c, 7, 64, 0
7, 35282, Note_on_c, 7, 59, 0
7, 35288, Note_on_c, 7, 53, 0
7, 35302, Note_on_c, 8, 79, 0
7, 35309, Note_on_c, 8, 74, 0
7, 35318, Note_on_c, 8, 67, 0
7, 35370, Control_c, 3, 64, 0
7, 35379, Note_on_c, 7, 43, 43
7, 35382, Note_on_c, 8, 66, 44
7, 35382, Note_on_c, 8, 78, 47
7, 35382, Note_on_c, 7, 53, 28
7, 35382, Note_on_c, 8, 73, 48
7, 35388, Control_c, 3, 64, 127
7, 35397, Note_on_c, 7, 43, 0
7, 35409, Note_on_c, 7, 53, 0
7, 35433, Note_on_c, 8, 73, 0
7, 35435, Note_on_c, 8, 66, 0
7, 35443, Note_on_c, 8, 78, 0
7, 35491, Control_c, 3, 64, 0
7, 35500, Note_on_c, 8, 77, 60
7, 35502, Note_on_c, 8, 65, 42
7, 35502, Note_on_c, 8, 70, 52
7, 35504, Note_on_c, 7, 58, 30
7, 35508, Note_on_c, 7, 48, 36
7, 35517, Note_on_c, 7, 48, 0
7, 35521, Control_c, 3, 64, 127
7, 35542, Note_on_c, 7, 58, 0
7, 35544, Note_on_c, 8, 65, 0
7, 35576, Note_on_c, 8, 70, 0
7, 35626, Note_on_c, 7, 62, 33
7, 35626, Note_on_c, 8, 70, 36
7, 35628, Note_on_c, 8, 67, 29
7, 35635, Note_on_c, 8, 77, 0
7, 35639, Note_on_c, 7, 62, 0
7, 35661, Note_on_c, 8, 70, 0
7, 35666, Note_on_c, 8, 67, 0
7, 35746, Note_on_c, 8, 74, 63
7, 35748, Note_on_c, 8, 63, 67
7, 35749, Note_on_c, 7, 62, 77
7, 35749, Note_on_c, 8, 67, 63
7, 35752, Note_on_c, 8, 71, 47
7, 35754, Control_c, 3, 64, 0
7, 35791, Note_on_c, 7, 61, 31
7, 35807, Note_on_c, 7, 62, 0
7, 35808, Note_on_c, 7, 60, 51
7, 35811, Note_on_c, 7, 61, 0
7, 35812, Control_c, 3, 64, 127
7, 35832, Note_on_c, 7, 60, 0
7, 35832, Control_c, 3, 64, 0
7, 35844, Note_on_c, 7, 59, 43
7, 35853, Note_on_c, 7, 59, 0
7, 35891, Note_on_c, 8, 62, 58
7, 35891, Control_c, 3, 64, 127
7, 35912, Note_on_c, 8, 62, 0
7, 35922, Note_on_c, 8, 67, 0
7, 35930, Note_on_c, 7, 60, 49
7, 35933, Note_on_c, 8, 71, 0
7, 35937, Note_on_c, 7, 60, 0
7, 35941, Note_on_c, 8, 74, 0
7, 35954, Note_on_c, 8, 63, 0
7, 35993, Note_on_c, 7, 41, 58
7, 36006, Control_c, 3, 64, 0
7, 36095, Note_on_c, 7, 41, 0
7, 36106, Note_on_c, 7, 42, 31
7, 36128, Note_on_c, 7, 43, 30
7, 36129, Note_on_c, 7, 42, 0
7, 36143, Note_on_c, 7, 43, 0
7, 36153, Note_on_c, 7, 44, 56
7, 36172, Note_on_c, 7, 44, 0
7, 36204, Note_on_c, 7, 45, 58
7, 36229, Control_c, 3, 64, 127
7, 36232, Note_on_c, 7, 45, 0
7, 36272, Control_c, 3, 64, 0
7, 36289, Note_on_c, 7, 49, 65
7, 36321, Control_c, 3, 64, 127
7, 36339, Note_on_c, 7, 49, 0
7, 36355, Control_c, 3, 64, 0
7, 36359, Note_on_c, 8, 54, 36
7, 36360, Note_on_c, 8, 60, 49
7, 36360, Note_on_c, 8, 65, 35
7, 36362, Note_on_c, 7, 50, 36
7, 36381, Note_on_c, 7, 50, 0
7, 36394, Note_on_c, 7, 45, 40
7, 36407, Note_on_c, 7, 45, 0
7, 36432, Control_c, 3, 64, 127
7, 36434, Note_on_c, 7, 42, 43
7, 36435, Note_on_c, 8, 60, 0
7, 36436, Note_on_c, 8, 54, 0
7, 36444, Note_on_c, 8, 65, 0
7, 36461, Note_on_c, 7, 42, 0
7, 36466, Control_c, 3, 64, 0
7, 36474, Note_on_c, 8, 58, 46
7, 36476, Note_on_c, 7, 43, 34
7, 36476, Note_on_c, 8, 62, 39
7, 36478, Note_on_c, 7, 53, 31
7, 36505, Control_c, 3, 64, 127
7, 36510, Note_on_c, 7, 53, 0
7, 36531, Note_on_c, 8, 58, 0
7, 36531, Note_on_c, 7, 31, 53
7, 36540, Note_on_c, 7, 43, 0
7, 36541, Note_on_c, 8, 62, 0
7, 36543, Note_on_c, 7, 31, 0
7, 36654, Control_c, 3, 64, 0
7, 36656, Note_on_c, 8, 67, 42
7, 36659, Note_on_c, 7, 55, 49
7, 36659, Note_on_c, 8, 62, 41
7, 36662, Note_on_c, 7, 57, 30
7, 36666, Note_on_c, 7, 55, 0
7, 36671, Note_on_c, 7, 57, 0
7, 36672, Note_on_c, 8, 67, 0
7, 36676, Note_on_c, 8, 62, 0
7, 36685, Control_c, 3, 64, 127
7, 36690, Note_on_c, 7, 54, 36
7, 36702, Control_c, 3, 64, 0
7, 36712, Note_on_c, 7, 54, 0
7, 36721, Note_on_c, 8, 62, 57
7, 36721, Note_on_c, 8, 67, 57
7, 36724, Note_on_c, 7, 55, 52
7, 36726, Note_on_c, 7, 57, 42
7, 36737, Control_c, 3, 64, 127
7, 36761, Note_on_c, 7, 57, 0
7, 36764, Note_on_c, 7, 55, 0
7, 36769, Note_on_c, 8, 67, 0
7, 36792, Note_on_c, 8, 62, 0
7, 36905, Note_on_c, 8, 69, 55
7, 36917, Note_on_c, 8, 69, 0
7, 36945, Control_c, 3, 64, 0
7, 36949, Note_on_c, 8, 62, 35
7, 36951, Note_on_c, 8, 59, 43
7, 36951, Note_on_c, 7, 43, 31
7, 36952, Note_on_c, 8, 67, 31
7, 36954, Note_on_c, 7, 53, 31
7, 36976, Control_c, 3, 64, 127
7, 36981, Note_on_c, 8, 67, 0
7, 36984, Note_on_c, 7, 53, 0
7, 36991, Note_on_c, 8, 62, 0
7, 36995, Note_on_c, 8, 59, 0
7, 37029, Note_on_c, 7, 54, 35
7, 37031, Note_on_c, 8, 66, 47
7, 37032, Note_on_c, 8, 62, 45
7, 37032, Note_on_c, 8, 59, 50
7, 37047, Note_on_c, 8, 59, 0
7, 37049, Note_on_c, 8, 66, 0
7, 37049, Note_on_c, 7, 54, 0
7, 37050, Note_on_c, 8, 62, 0
7, 37059, Control_c, 3, 64, 0
7, 37070, Note_on_c, 8, 59, 28
7, 37073, Note_on_c, 8, 65, 49
7, 37074, Note_on_c, 7, 53, 34
7, 37089, Control_c, 3, 64, 127
7, 37100, Note_on_c, 8, 59, 0
7, 37104, Note_on_c, 8, 65, 0
7, 37106, Note_on_c, 7, 53, 0
7, 37118, Note_on_c, 7, 43, 0
7, 37177, Control_c, 3, 64, 0
7, 37189, Note_on_c, 8, 64, 42
7, 37190, Note_on_c, 7, 56, 31
7, 37190, Note_on_c, 8, 59, 37
7, 37191, Note_on_c, 7, 50, 27
7, 37192, Note_on_c, 7, 53, 30
7, 37216, Control_c, 3, 64, 127
7, 37229, Note_on_c, 8, 64, 0
7, 37250, Note_on_c, 7, 53, 0
7, 37259, Note_on_c, 8, 59, 0
7, 37262, Note_on_c, 7, 56, 0
7, 37269, Note_on_c, 7, 50, 0
7, 37304, Control_c, 3, 64, 0
7, 37308, Note_on_c, 8, 63, 36
7, 37308, Note_on_c, 7, 56, 35
7, 37312, Note_on_c, 7, 53, 26
7, 37320, Control_c, 3, 64, 127
7, 37331, Note_on_c, 7, 53, 0
7, 37333, Note_on_c, 8, 63, 0
7, 37340, Note_on_c, 7, 56, 0
7, 37405, Control_c, 3, 64, 0
7, 37424, Note_on_c, 8, 62, 33
7, 37426, Note_on_c, 8, 54, 37
7, 37427, Control_c, 3, 64, 127
7, 37428, Note_on_c, 7, 36, 34
7, 37429, Note_on_c, 7, 50, 27
7, 37436, Note_on_c, 7, 50, 0
7, 37441, Note_on_c, 7, 36, 0
7, 37447, Note_on_c, 8, 54, 0
7, 37458, Note_on_c, 8, 62, 0
7, 37550, Sequencer_specific, 18, 0, 0, 0, 106, 0, 5, 91, 84, 101, 120, 116, 61, 50, 61, 53, 61, 53, 93
7, 37550, Text_t, "On C7 a pattern made up from half/whole tone diminished scale."
7, 37553, Control_c, 3, 64, 0
7, 37553, Note_on_c, 8, 81, 71
7, 37555, Note_on_c, 7, 58, 33
7, 37556, Note_on_c, 7, 62, 36
7, 37559, Note_on_c, 7, 52, 36
7, 37575, Note_on_c, 8, 81, 0
7, 37584, Note_on_c, 8, 84, 80
7, 37587, Control_c, 3, 64, 127
7, 37602, Note_on_c, 7, 62, 0
7, 37604, Note_on_c, 8, 84, 0
7, 37614, Note_on_c, 7, 52, 0
7, 37616, Note_on_c, 8, 82, 64
7, 37628, Note_on_c, 7, 58, 0
7, 37646, Note_on_c, 8, 78, 69
7, 37652, Note_on_c, 8, 82, 0
7, 37669, Note_on_c, 7, 63, 37
7, 37674, Control_c, 3, 64, 0
7, 37677, Note_on_c, 7, 58, 29
7, 37677, Note_on_c, 7, 52, 25
7, 37678, Note_on_c, 8, 76, 47
7, 37680, Note_on_c, 8, 78, 0
7, 37695, Note_on_c, 8, 76, 0
7, 37708, Note_on_c, 8, 81, 68
7, 37714, Control_c, 3, 64, 127
7, 37715, Note_on_c, 7, 52, 0
7, 37720, Note_on_c, 7, 58, 0
7, 37727, Note_on_c, 7, 63, 0
7, 37734, Note_on_c, 8, 79, 60
7, 37742, Note_on_c, 8, 81, 0
7, 37759, Note_on_c, 8, 79, 0
7, 37769, Note_on_c, 8, 75, 54
7, 37783, Control_c, 3, 64, 0
7, 37792, Note_on_c, 8, 75, 0
7, 37796, Note_on_c, 7, 55, 40
7, 37796, Note_on_c, 8, 73, 39
7, 37796, Note_on_c, 7, 61, 40
7, 37801, Note_on_c, 7, 65, 28
7, 37815, Control_c, 3, 64, 127
7, 37821, Note_on_c, 7, 65, 0
7, 37827, Note_on_c, 7, 61, 0
7, 37831, Note_on_c, 7, 55, 0
7, 37871, Note_on_c, 8, 73, 0
7, 37874, Note_on_c, 7, 48, 53
7, 37900, Note_on_c, 7, 48, 0
7, 37902, Control_c, 3, 64, 0
7, 37916, Note_on_c, 7, 41, 62
7, 37924, Note_on_c, 7, 41, 0
7, 37925, Control_c, 3, 64, 127
7, 37948, Sequencer_specific, 18, 0, 0, 0, 106, 0, 5, 91, 84, 101, 120, 116, 61, 50, 61, 53, 61, 53, 93
7, 37948, Text_t, "Similar angular phrase using notes from F7 half/whole diminished scale"
7, 37959, Note_on_c, 8, 86, 82
7, 37984, Note_on_c, 8, 86, 0
7, 37993, Note_on_c, 8, 89, 94
7, 38026, Note_on_c, 8, 89, 0
7, 38029, Control_c, 3, 64, 0
7, 38034, Note_on_c, 8, 87, 68
7, 38037, Note_on_c, 7, 67, 38
7, 38037, Note_on_c, 7, 57, 44
7, 38037, Note_on_c, 7, 63, 35
7, 38056, Control_c, 3, 64, 127
7, 38069, Note_on_c, 8, 87, 0
7, 38071, Note_on_c, 8, 83, 65
7, 38079, Note_on_c, 7, 67, 0
7, 38088, Note_on_c, 7, 57, 0
7, 38100, Note_on_c, 7, 63, 0
7, 38114, Note_on_c, 8, 81, 74
7, 38124, Note_on_c, 8, 83, 0
7, 38150, Control_c, 3, 64, 0
7, 38151, Note_on_c, 8, 81, 0
7, 38153, Note_on_c, 7, 66, 49
7, 38157, Note_on_c, 7, 62, 35
7, 38158, Note_on_c, 8, 86, 79
7, 38160, Note_on_c, 7, 56, 44
7, 38180, Control_c, 3, 64, 127
7, 38196, Note_on_c, 7, 62, 0
7, 38199, Note_on_c, 8, 84, 62
7, 38205, Note_on_c, 8, 86, 0
7, 38209, Note_on_c, 7, 66, 0
7, 38223, Note_on_c, 8, 84, 0
7, 38224, Note_on_c, 7, 56, 0
7, 38267, Control_c, 3, 64, 0
7, 38272, Note_on_c, 7, 61, 30
7, 38275, Note_on_c, 7, 55, 24
7, 38278, Note_on_c, 7, 65, 15
7, 38286, Control_c, 3, 64, 127
7, 38308, Note_on_c, 7, 55, 0
7, 38309, Note_on_c, 8, 78, 33
7, 38319, Note_on_c, 7, 61, 0
7, 38320, Note_on_c, 7, 65, 0
7, 38359, Note_on_c, 8, 78, 0
7, 38359, Note_on_c, 8, 77, 49
7, 38394, Note_on_c, 8, 77, 0
7, 38394, Control_c, 3, 64, 0
7, 38398, Note_on_c, 8, 82, 57
7, 38399, Note_on_c, 7, 65, 32
7, 38403, Note_on_c, 7, 62, 25
7, 38407, Note_on_c, 7, 60, 32
7, 38425, Note_on_c, 7, 65, 0
7, 38432, Control_c, 3, 64, 127
7, 38440, Note_on_c, 8, 74, 49
7, 38458, Note_on_c, 8, 74, 0
7, 38461, Note_on_c, 8, 82, 0
7, 38478, Note_on_c, 8, 74, 50
7, 38496, Note_on_c, 8, 74, 0
7, 38519, Control_c, 3, 64, 0
7, 38522, Note_on_c, 7, 53, 25
7, 38546, Control_c, 3, 64, 127
7, 38563, Note_on_c, 8, 74, 66
7, 38569, Note_on_c, 7, 62, 0
7, 38571, Note_on_c, 8, 74, 0
7, 38574, Note_on_c, 7, 60, 0
7, 38600, Note_on_c, 8, 74, 72
7, 38617, Note_on_c, 8, 74, 0
7, 38634, Control_c, 3, 64, 0
7, 38640, Note_on_c, 7, 60, 24
7, 38640, Note_on_c, 7, 62, 26
7, 38642, Note_on_c, 8, 74, 63
7, 38665, Control_c, 3, 64, 127
7, 38666, Note_on_c, 8, 74, 0
7, 38676, Note_on_c, 7, 53, 0
7, 38678, Note_on_c, 8, 79, 59
7, 38696, Note_on_c, 8, 79, 0
7, 38719, Note_on_c, 8, 79, 63
7, 38734, Note_on_c, 8, 79, 0
7, 38752, Control_c, 3, 64, 0
7, 38761, Note_on_c, 8, 79, 72
7, 38761, Note_on_c, 7, 53, 26
7, 38782, Note_on_c, 8, 79, 0
7, 38784, Note_on_c, 7, 60, 0
7, 38784, Control_c, 3, 64, 127
7, 38790, Note_on_c, 7, 62, 0
7, 38799, Note_on_c, 8, 77, 46
7, 38813, Note_on_c, 8, 77, 0
7, 38837, Note_on_c, 8, 77, 48
7, 38870, Control_c, 3, 64, 0
7, 38875, Note_on_c, 7, 62, 26
7, 38876, Note_on_c, 7, 56, 19
7, 38876, Note_on_c, 8, 71, 27
7, 38881, Note_on_c, 7, 59, 24
7, 38916, Control_c, 3, 64, 127
7, 38940, Note_on_c, 7, 53, 0
7, 38988, Control_c, 3, 64, 0
7, 38989, Note_on_c, 7, 53, 42
7, 38993, Control_c, 3, 64, 127
7, 39019, Note_on_c, 7, 59, 0
7, 39022, Note_on_c, 8, 71, 0
7, 39031, Note_on_c, 7, 62, 0
7, 39052, Note_on_c, 7, 56, 0
7, 39064, Note_on_c, 8, 77, 0
7, 39103, Note_on_c, 7, 56, 29
7, 39105, Note_on_c, 7, 62, 32
7, 39107, Note_on_c, 7, 59, 40
7, 39151, Note_on_c, 8, 89, 80
7, 39152, Note_on_c, 8, 83, 82
7, 39160, Note_on_c, 7, 62, 0
7, 39162, Note_on_c, 7, 59, 0
7, 39175, Note_on_c, 8, 89, 0
7, 39179, Note_on_c, 8, 83, 0
7, 39192, Note_on_c, 8, 77, 55
7, 39228, Note_on_c, 8, 77, 0
7, 39232, Note_on_c, 7, 59, 32
7, 39235, Note_on_c, 7, 62, 16
7, 39258, Note_on_c, 7, 53, 0
7, 39265, Note_on_c, 8, 80, 74
7, 39266, Note_on_c, 8, 86, 71
7, 39286, Note_on_c, 8, 86, 0
7, 39297, Note_on_c, 8, 80, 0
7, 39311, Note_on_c, 8, 74, 53
7, 39316, Note_on_c, 7, 53, 24
7, 39324, Note_on_c, 7, 59, 0
7, 39325, Note_on_c, 8, 74, 0
7, 39331, Note_on_c, 7, 62, 0
7, 39336, Note_on_c, 7, 56, 0
7, 39353, Control_c, 3, 64, 0
7, 39360, Control_c, 3, 64, 127
7, 39384, Note_on_c, 7, 53, 0
7, 39419, Note_on_c, 7, 53, 55
7, 39461, Control_c, 3, 64, 0
7, 39465, Note_on_c, 8, 86, 68
7, 39468, Note_on_c, 7, 63, 42
7, 39469, Note_on_c, 8, 74, 37
7, 39469, Note_on_c, 8, 78, 35
7, 39469, Note_on_c, 8, 81, 51
7, 39486, Control_c, 3, 64, 127
7, 39505, Note_on_c, 7, 53, 0
7, 39509, Note_on_c, 8, 86, 0
7, 39531, Note_on_c, 8, 81, 0
7, 39535, Note_on_c, 8, 74, 0
7, 39536, Note_on_c, 8, 78, 0
7, 39544, Note_on_c, 7, 63, 0
7, 39547, Note_on_c, 7, 53, 34
7, 39591, Note_on_c, 8, 81, 58
7, 39592, Note_on_c, 7, 63, 37
7, 39592, Control_c, 3, 64, 0
7, 39593, Note_on_c, 8, 69, 45
7, 39593, Note_on_c, 8, 78, 39
7, 39594, Note_on_c, 8, 74, 55
7, 39614, Control_c, 3, 64, 127
7, 39635, Note_on_c, 7, 53, 0
7, 39702, Note_on_c, 7, 63, 0
7, 39705, Note_on_c, 7, 53, 39
7, 39740, Note_on_c, 7, 53, 0
7, 39759, Note_on_c, 8, 74, 0
7, 39762, Note_on_c, 8, 69, 0
7, 39771, Note_on_c, 8, 78, 0
7, 39774, Note_on_c, 8, 81, 0
7, 39785, Note_on_c, 7, 53, 31
7, 39806, Note_on_c, 7, 58, 45
7, 39814, Note_on_c, 8, 69, 68
7, 39818, Note_on_c, 7, 61, 40
7, 39820, Control_c, 3, 64, 0
7, 39821, Note_on_c, 8, 73, 62
7, 39827, Note_on_c, 7, 64, 54
7, 39828, Note_on_c, 8, 76, 71
7, 39836, Note_on_c, 8, 81, 74
7, 39856, Control_c, 3, 64, 127
7, 39887, Note_on_c, 7, 53, 0
7, 39939, Note_on_c, 7, 53, 30
7, 39952, Note_on_c, 7, 58, 0
7, 39960, Note_on_c, 7, 64, 0
7, 39962, Note_on_c, 7, 61, 0
7, 39994, Note_on_c, 8, 81, 0
7, 40003, Note_on_c, 8, 69, 0
7, 40019, Note_on_c, 8, 76, 0
7, 40019, Note_on_c, 8, 73, 0
7, 40058, Note_on_c, 8, 76, 34
7, 40059, Note_on_c, 7, 61, 26
7, 40061, Note_on_c, 8, 73, 33
7, 40062, Note_on_c, 8, 79, 22
7, 40064, Note_on_c, 7, 64, 26
7, 40065, Note_on_c, 8, 67, 24
7, 40071, Note_on_c, 7, 58, 20
7, 40102, Note_on_c, 7, 53, 0
7, 40156, Note_on_c, 8, 79, 0
7, 40173, Note_on_c, 8, 67, 0
7, 40176, Note_on_c, 7, 53, 33
7, 40180, Note_on_c, 8, 76, 0
7, 40185, Note_on_c, 7, 64, 0
7, 40191, Note_on_c, 8, 73, 0
7, 40206, Note_on_c, 7, 58, 0
7, 40208, Note_on_c, 7, 61, 0
7, 40249, Note_on_c, 8, 81, 84
7, 40266, Note_on_c, 8, 81, 0
7, 40308, Note_on_c, 7, 62, 24
7, 40311, Note_on_c, 7, 57, 35
7, 40313, Control_c, 3, 64, 0
7, 40335, Note_on_c, 8, 67, 25
7, 40344, Note_on_c, 8, 68, 33
7, 40360, Note_on_c, 8, 68, 0
7, 40368, Note_on_c, 8, 67, 0
7, 40369, Note_on_c, 8, 69, 41
7, 40380, Note_on_c, 8, 69, 0
7, 40394, Note_on_c, 7, 53, 0
7, 40437, Note_on_c, 7, 53, 37
7, 40440, Note_on_c, 8, 74, 77
7, 40448, Note_on_c, 7, 57, 0
7, 40468, Note_on_c, 7, 62, 0
7, 40491, Control_c, 3, 64, 127
7, 40558, Note_on_c, 7, 62, 16
7, 40561, Note_on_c, 8, 65, 17
7, 40562, Note_on_c, 7, 57, 28
7, 40567, Note_on_c, 8, 69, 19
7, 40609, Note_on_c, 8, 65, 0
7, 40609, Note_on_c, 7, 53, 0
7, 40668, Note_on_c, 8, 69, 0
7, 40671, Note_on_c, 7, 57, 0
7, 40678, Note_on_c, 7, 53, 31
7, 40680, Note_on_c, 8, 74, 0
7, 40680, Note_on_c, 7, 62, 0
7, 40766, Note_on_c, 7, 58, 32
7, 40771, Note_on_c, 7, 62, 40
7, 40782, Note_on_c, 8, 70, 38
7, 40794, Control_c, 3, 64, 0
7, 40794, Note_on_c, 7, 65, 32
7, 40797, Note_on_c, 8, 77, 62
7, 40801, Note_on_c, 8, 70, 0
7, 40810, Note_on_c, 8, 84, 39
7, 40825, Control_c, 3, 64, 127
7, 40869, Note_on_c, 8, 84, 0
7, 40886, Note_on_c, 7, 65, 0
7, 40902, Note_on_c, 7, 62, 0
7, 40905, Note_on_c, 8, 84, 68
7, 40908, Note_on_c, 7, 58, 0
7, 40915, Note_on_c, 7, 53, 0
7, 40960, Note_on_c, 8, 84, 0
7, 40971, Note_on_c, 8, 77, 0
7, 40972, Note_on_c, 7, 41, 42
7, 40991, Note_on_c, 7, 41, 0
7, 41032, Note_on_c, 7, 41, 46
7, 41054, Note_on_c, 7, 41, 0
7, 41093, Note_on_c, 7, 53, 30
7, 41112, Note_on_c, 7, 53, 0
7, 41145, Note_on_c, 7, 70, 56
7, 41148, Note_on_c, 7, 62, 47
7, 41148, Note_on_c, 7, 65, 56
7, 41172, Note_on_c, 7, 70, 0
7, 41190, Note_on_c, 7, 65, 0
7, 41199, Note_on_c, 7, 62, 0
7, 41208, Note_on_c, 7, 53, 65
7, 41265, Note_on_c, 8, 63, 45
7, 41266, Note_on_c, 8, 65, 49
7, 41266, Note_on_c, 8, 58, 47
7, 41266, Note_on_c, 8, 55, 55
7, 41272, Control_c, 3, 64, 0
7, 41312, Note_on_c, 7, 53, 0
7, 41319, Control_c, 3, 64, 127
7, 41329, Note_on_c, 7, 53, 56
7, 41341, Note_on_c, 7, 53, 0
7, 41363, Control_c, 3, 64, 0
7, 41448, Note_on_c, 7, 53, 35
7, 41461, Note_on_c, 7, 53, 0
7, 41503, Note_on_c, 7, 53, 50
7, 41508, Control_c, 3, 64, 127
7, 41510, Note_on_c, 7, 53, 0
7, 41566, Note_on_c, 7, 41, 47
7, 41586, Note_on_c, 8, 55, 0
7, 41598, Note_on_c, 8, 58, 0
7, 41605, Note_on_c, 8, 65, 0
7, 41609, Note_on_c, 8, 63, 0
7, 41614, Note_on_c, 7, 41, 0
7, 41628, Note_on_c, 7, 29, 39
7, 41635, Note_on_c, 7, 29, 0
7, 41738, Note_on_c, 8, 74, 53
7, 41738, Note_on_c, 8, 66, 38
7, 41739, Note_on_c, 8, 69, 56
7, 41741, Note_on_c, 7, 62, 36
7, 41743, Note_on_c, 8, 63, 46
7, 41748, Note_on_c, 7, 57, 42
7, 41750, Control_c, 3, 64, 0
7, 41775, Control_c, 3, 64, 127
7, 41830, Note_on_c, 8, 63, 0
7, 41847, Note_on_c, 7, 62, 0
7, 41859, Note_on_c, 7, 57, 0
7, 41893, Note_on_c, 8, 74, 0
7, 41939, Note_on_c, 8, 69, 0
7, 41942, Note_on_c, 8, 66, 0
7, 41983, Note_on_c, 8, 66, 46
7, 41985, Note_on_c, 7, 62, 38
7, 41986, Note_on_c, 8, 72, 36
7, 41987, Control_c, 3, 64, 0
7, 41989, Note_on_c, 8, 69, 25
7, 41992, Note_on_c, 7, 62, 0
7, 41994, Note_on_c, 8, 72, 0
7, 41996, Note_on_c, 8, 66, 0
7, 41997, Note_on_c, 8, 69, 0
7, 42035, Control_c, 3, 64, 127
7, 42060, Control_c, 3, 64, 0
7, 42095, Control_c, 3, 64, 127
7, 42182, Note_on_c, 7, 53, 35
7, 42203, Control_c, 3, 64, 0
7, 42208, Note_on_c, 7, 53, 0
7, 42223, Control_c, 3, 64, 127
7, 42240, Sequencer_specific, 18, 0, 0, 0, 106, 0, 5, 91, 84, 101, 120, 116, 61, 50, 61, 53, 61, 53, 93
7, 42240, Text_t, "Melody harmonized with 'Killer Joe' 2 hand 13th voicings in parallel"
7, 42310, Note_on_c, 8, 82, 64
7, 42311, Note_on_c, 8, 94, 64
7, 42311, Note_on_c, 8, 89, 66
7, 42313, Note_on_c, 7, 56, 43
7, 42313, Note_on_c, 7, 62, 50
7, 42314, Note_on_c, 7, 67, 31
7, 42323, Note_on_c, 7, 67, 0
7, 42332, Note_on_c, 7, 62, 0
7, 42339, Note_on_c, 8, 89, 0
7, 42340, Note_on_c, 7, 56, 0
7, 42344, Note_on_c, 8, 82, 0
7, 42345, Note_on_c, 8, 94, 0
7, 42351, Control_c, 3, 64, 0
7, 42358, Note_on_c, 7, 55, 44
7, 42360, Note_on_c, 8, 93, 54
7, 42360, Note_on_c, 7, 66, 40
7, 42361, Note_on_c, 8, 88, 40
7, 42363, Note_on_c, 8, 81, 27
7, 42364, Note_on_c, 7, 61, 37
7, 42378, Control_c, 3, 64, 127
7, 42392, Note_on_c, 8, 93, 0
7, 42392, Note_on_c, 7, 55, 0
7, 42395, Note_on_c, 8, 81, 0
7, 42403, Note_on_c, 8, 88, 0
7, 42417, Note_on_c, 7, 66, 0
7, 42419, Note_on_c, 7, 61, 0
7, 42443, Note_on_c, 8, 82, 79
7, 42443, Note_on_c, 8, 94, 78
7, 42443, Note_on_c, 7, 56, 64
7, 42444, Note_on_c, 7, 62, 62
7, 42444, Note_on_c, 7, 67, 69
7, 42444, Note_on_c, 8, 89, 80
7, 42448, Control_c, 3, 64, 0
7, 42475, Control_c, 3, 64, 127
7, 42503, Note_on_c, 8, 89, 0
7, 42512, Note_on_c, 7, 62, 0
7, 42514, Note_on_c, 7, 56, 0
7, 42515, Note_on_c, 8, 82, 0
7, 42518, Note_on_c, 8, 94, 0
7, 42530, Note_on_c, 7, 67, 0
7, 42567, Note_on_c, 7, 68, 82
7, 42567, Note_on_c, 7, 63, 72
7, 42567, Note_on_c, 7, 57, 79
7, 42568, Note_on_c, 8, 96, 90
7, 42569, Note_on_c, 8, 90, 82
7, 42570, Note_on_c, 8, 84, 88
7, 42572, Control_c, 3, 64, 0
7, 42600, Note_on_c, 8, 91, 24
7, 42603, Note_on_c, 8, 90, 0
7, 42606, Control_c, 3, 64, 127
7, 42623, Note_on_c, 8, 96, 0
7, 42626, Note_on_c, 8, 91, 0
7, 42634, Note_on_c, 8, 84, 0
7, 42634, Note_on_c, 7, 57, 0
7, 42645, Note_on_c, 7, 68, 0
7, 42659, Note_on_c, 7, 63, 0
7, 42684, Note_on_c, 8, 94, 83
7, 42685, Note_on_c, 8, 82, 87
7, 42687, Note_on_c, 7, 62, 75
7, 42687, Note_on_c, 8, 89, 82
7, 42688, Note_on_c, 7, 56, 77
7, 42688, Note_on_c, 7, 67, 79
7, 42696, Control_c, 3, 64, 0
7, 42731, Control_c, 3, 64, 127
7, 42782, Note_on_c, 7, 67, 0
7, 42786, Note_on_c, 7, 62, 0
7, 42787, Note_on_c, 8, 89, 0
7, 42794, Note_on_c, 8, 82, 0
7, 42796, Note_on_c, 7, 56, 0
7, 42797, Note_on_c, 8, 94, 0
7, 42808, Control_c, 3, 64, 0
7, 42810, Note_on_c, 7, 55, 67
7, 42811, Note_on_c, 7, 66, 70
7, 42811, Note_on_c, 8, 88, 74
7, 42812, Note_on_c, 8, 93, 72
7, 42813, Note_on_c, 7, 61, 57
7, 42814, Note_on_c, 8, 81, 46
7, 42837, Control_c, 3, 64, 127
7, 42858, Note_on_c, 8, 93, 0
7, 42858, Note_on_c, 7, 55, 0
7, 42862, Note_on_c, 8, 81, 0
7, 42867, Note_on_c, 8, 88, 0
7, 42870, Note_on_c, 7, 66, 0
7, 42881, Note_on_c, 7, 61, 0
7, 42887, Control_c, 3, 64, 0
7, 42893, Note_on_c, 8, 92, 65
7, 42895, Note_on_c, 7, 65, 66
7, 42895, Note_on_c, 8, 80, 53
7, 42895, Note_on_c, 8, 87, 71
7, 42897, Note_on_c, 7, 60, 58
7, 42897, Note_on_c, 7, 54, 54
7, 42908, Control_c, 3, 64, 127
7, 42935, Note_on_c, 7, 65, 0
7, 42936, Note_on_c, 7, 60, 0
7, 42950, Note_on_c, 8, 80, 0
7, 42951, Note_on_c, 8, 87, 0
7, 42951, Note_on_c, 8, 92, 0
7, 42958, Note_on_c, 7, 54, 0
7, 42969, Control_c, 3, 64, 0
7, 42972, Note_on_c, 7, 64, 53
7, 42975, Note_on_c, 8, 91, 57
7, 42975, Note_on_c, 8, 86, 63
7, 42975, Note_on_c, 8, 79, 44
7, 42976, Note_on_c, 7, 59, 53
7, 42977, Note_on_c, 7, 53, 46
7, 42998, Control_c, 3, 64, 127
7, 43087, Note_on_c, 8, 91, 0
7, 43089, Note_on_c, 7, 64, 0
7, 43092, Note_on_c, 7, 53, 0
7, 43094, Note_on_c, 8, 79, 0
7, 43099, Note_on_c, 8, 86, 0
7, 43110, Note_on_c, 7, 59, 0
7, 43152, Note_on_c, 8, 90, 55
7, 43153, Note_on_c, 8, 78, 43
7, 43158, Note_on_c, 8, 85, 50
7, 43182, Note_on_c, 8, 90, 0
7, 43187, Note_on_c, 8, 85, 0
7, 43190, Note_on_c, 8, 78, 0
7, 43197, Control_c, 3, 64, 0
7, 43205, Note_on_c, 8, 89, 48
7, 43207, Note_on_c, 8, 84, 56
7, 43207, Note_on_c, 8, 77, 29
7, 43207, Note_on_c, 7, 65, 38
7, 43207, Note_on_c, 7, 61, 46
7, 43209, Note_on_c, 7, 55, 35
7, 43221, Note_on_c, 7, 65, 0
7, 43226, Control_c, 3, 64, 127
7, 43228, Note_on_c, 7, 61, 0
7, 43232, Note_on_c, 7, 55, 0
7, 43233, Note_on_c, 8, 89, 0
7, 43237, Note_on_c, 8, 84, 0
7, 43247, Note_on_c, 8, 77, 0
7, 43321, Note_on_c, 7, 39, 35
7, 43323, Note_on_c, 7, 46, 38
7, 43350, Note_on_c, 7, 39, 0
7, 43365, Note_on_c, 7, 46, 0
7, 43434, Note_on_c, 7, 53, 44
7, 43435, Note_on_c, 8, 62, 40
7, 43436, Note_on_c, 7, 43, 32
7, 43437, Note_on_c, 8, 59, 43
7, 43439, Control_c, 3, 64, 0
7, 43439, Note_on_c, 8, 55, 28
7, 43469, Control_c, 3, 64, 127
7, 43496, Note_on_c, 8, 55, 0
7, 43507, Note_on_c, 7, 53, 0
7, 43519, Note_on_c, 8, 59, 0
7, 43519, Note_on_c, 8, 62, 0
7, 43555, Note_on_c, 8, 55, 50
7, 43555, Note_on_c, 8, 59, 46
7, 43556, Note_on_c, 8, 62, 37
7, 43558, Note_on_c, 7, 50, 40
7, 43559, Note_on_c, 7, 43, 0
7, 43559, Note_on_c, 8, 65, 28
7, 43565, Note_on_c, 8, 55, 0
7, 43568, Note_on_c, 7, 50, 0
7, 43577, Note_on_c, 8, 59, 0
7, 43582, Note_on_c, 8, 65, 0
7, 43587, Note_on_c, 8, 62, 0
7, 43671, Note_on_c, 8, 58, 48
7, 43673, Control_c, 3, 64, 0
7, 43674, Note_on_c, 8, 67, 48
7, 43674, Note_on_c, 8, 63, 47
7, 43676, Note_on_c, 8, 62, 45
7, 43702, Control_c, 3, 64, 127
7, 43712, Note_on_c, 8, 67, 0
7, 43719, Note_on_c, 8, 62, 0
7, 43725, Note_on_c, 8, 63, 0
7, 43729, Note_on_c, 8, 58, 0
7, 43758, Note_on_c, 8, 82, 79
7, 43760, Note_on_c, 8, 70, 74
7, 43792, Control_c, 3, 64, 0
7, 43799, Note_on_c, 7, 48, 55
7, 43799, Note_on_c, 7, 58, 37
7, 43816, Control_c, 3, 64, 127
7, 43817, Note_on_c, 8, 82, 0
7, 43818, Note_on_c, 7, 48, 0
7, 43818, Note_on_c, 8, 70, 0
7, 43827, Note_on_c, 7, 58, 0
7, 43838, Note_on_c, 8, 81, 55
7, 43841, Note_on_c, 8, 69, 38
7, 43847, Note_on_c, 8, 81, 0
7, 43849, Note_on_c, 8, 69, 0
7, 43873, Note_on_c, 8, 80, 51
7, 43875, Note_on_c, 8, 68, 62
7, 43891, Note_on_c, 8, 80, 0
7, 43893, Note_on_c, 8, 68, 0
7, 43915, Control_c, 3, 64, 0
7, 43917, Note_on_c, 7, 67, 58
7, 43917, Note_on_c, 8, 79, 57
7, 43918, Note_on_c, 8, 73, 57
7, 43922, Note_on_c, 8, 76, 57
7, 43923, Note_on_c, 8, 77, 44
7, 43925, Note_on_c, 7, 61, 38
7, 43925, Note_on_c, 7, 64, 44
7, 43929, Note_on_c, 7, 58, 31
7, 43930, Note_on_c, 8, 77, 0
7, 43949, Control_c, 3, 64, 127
7, 43987, Note_on_c, 8, 76, 0
7, 43989, Note_on_c, 8, 79, 0
7, 43995, Note_on_c, 7, 67, 0
7, 44001, Note_on_c, 7, 64, 0
7, 44005, Note_on_c, 7, 58, 0
7, 44009, Note_on_c, 8, 73, 0
7, 44014, Note_on_c, 7, 61, 0
7, 44036, Note_on_c, 8, 78, 53
7, 44036, Control_c, 3, 64, 0
7, 44038, Note_on_c, 7, 66, 42
7, 44039, Note_on_c, 8, 73, 45
7, 44040, Note_on_c, 7, 61, 31
7, 44044, Note_on_c, 7, 58, 30
7, 44057, Control_c, 3, 64, 127
7, 44068, Note_on_c, 7, 61, 0
7, 44070, Note_on_c, 7, 58, 0
7, 44097, Note_on_c, 7, 66, 0
7, 44107, Note_on_c, 8, 73, 0
7, 44107, Note_on_c, 8, 78, 0
7, 44149, Note_on_c, 8, 77, 56
7, 44151, Control_c, 3, 64, 0
7, 44152, Note_on_c, 7, 60, 29
7, 44153, Note_on_c, 7, 57, 32
7, 44154, Note_on_c, 8, 72, 45
7, 44154, Note_on_c, 8, 65, 34
7, 44155, Note_on_c, 7, 50, 35
7, 44181, Control_c, 3, 64, 127
7, 44186, Note_on_c, 8, 77, 0
7, 44188, Note_on_c, 8, 72, 0
7, 44191, Note_on_c, 7, 60, 0
7, 44200, Note_on_c, 8, 65, 0
7, 44220, Note_on_c, 7, 57, 0
7, 44268, Note_on_c, 7, 57, 36
7, 44274, Note_on_c, 7, 60, 46
7, 44274, Note_on_c, 8, 65, 48
7, 44280, Control_c, 3, 64, 0
7, 44284, Note_on_c, 7, 57, 0
7, 44303, Note_on_c, 7, 50, 0
7, 44303, Control_c, 3, 64, 127
7, 44343, Note_on_c, 7, 50, 38
7, 44351, Note_on_c, 7, 60, 0
7, 44362, Note_on_c, 8, 65, 0
7, 44390, Note_on_c, 7, 50, 0
7, 44390, Control_c, 3, 64, 0
7, 44394, Note_on_c, 8, 65, 28
7, 44394, Note_on_c, 8, 59, 42
7, 44399, Note_on_c, 8, 53, 27
7, 44401, Note_on_c, 7, 43, 33
7, 44426, Control_c, 3, 64, 127
7, 44454, Note_on_c, 8, 53, 0
7, 44468, Note_on_c, 8, 59, 0
7, 44472, Note_on_c, 8, 65, 0
7, 44510, Note_on_c, 8, 53, 37
7, 44513, Note_on_c, 8, 59, 52
7, 44523, Note_on_c, 8, 53, 0
7, 44528, Note_on_c, 8, 59, 0
7, 44544, Note_on_c, 7, 43, 0
7, 44608, Note_on_c, 7, 47, 54
7, 44617, Control_c, 3, 64, 0
7, 44623, Note_on_c, 8, 70, 72
7, 44625, Note_on_c, 8, 63, 74
7, 44625, Note_on_c, 8, 67, 54
7, 44627, Note_on_c, 8, 60, 74
7, 44627, Note_on_c, 7, 48, 70
7, 44635, Note_on_c, 7, 47, 0
7, 44647, Note_on_c, 8, 67, 0
7, 44653, Note_on_c, 8, 70, 0
7, 44655, Note_on_c, 8, 60, 0
7, 44655, Note_on_c, 8, 63, 0
7, 44658, Note_on_c, 7, 48, 0
7, 44710, Note_on_c, 8, 67, 41
7, 44712, Note_on_c, 7, 55, 38
7, 44712, Control_c, 3, 64, 127
7, 44714, Note_on_c, 8, 63, 28
7, 44714, Note_on_c, 7, 48, 33
7, 44717, Note_on_c, 8, 60, 30
7, 44729, Note_on_c, 8, 60, 0
7, 44729, Note_on_c, 8, 63, 0
7, 44737, Note_on_c, 7, 55, 0
7, 44739, Control_c, 3, 64, 0
7, 44743, Note_on_c, 7, 48, 0
7, 44746, Note_on_c, 8, 67, 0
7, 44754, Note_on_c, 7, 46, 35
7, 44755, Note_on_c, 8, 63, 43
7, 44760, Control_c, 3, 64, 127
7, 44763, Note_on_c, 7, 46, 0
7, 44779, Control_c, 3, 64, 0
7, 44782, Note_on_c, 8, 63, 0
7, 44796, Control_c, 3, 64, 127
7, 44834, Note_on_c, 7, 39, 27
7, 44857, Note_on_c, 7, 39, 0
7, 44860, Control_c, 3, 64, 0
7, 44878, Note_on_c, 8, 65, 33
7, 44879, Note_on_c, 7, 41, 33
7, 44880, Note_on_c, 8, 60, 27
7, 44882, Note_on_c, 8, 63, 25
7, 44888, Control_c, 3, 64, 127
7, 44890, Note_on_c, 8, 60, 0
7, 44898, Note_on_c, 8, 63, 0
7, 44901, Note_on_c, 8, 65, 0
7, 44966, Control_c, 3, 64, 0
7, 44967, Note_on_c, 8, 66, 36
7, 44967, Note_on_c, 8, 62, 44
7, 44967, Note_on_c, 8, 72, 49
7, 44968, Note_on_c, 7, 29, 33
7, 44971, Note_on_c, 8, 69, 36
7, 44979, Note_on_c, 7, 29, 0
7, 44982, Note_on_c, 7, 41, 0
7, 44982, Control_c, 3, 64, 127
7, 45008, Note_on_c, 8, 69, 0
7, 45008, Note_on_c, 8, 72, 0
7, 45026, Note_on_c, 8, 62, 0
7, 45028, Note_on_c, 8, 66, 0
7, 45114, Control_c, 3, 64, 0
7, 45123, Note_on_c, 8, 61, 71
7, 45124, Note_on_c, 8, 64, 68
7, 45126, Note_on_c, 8, 57, 71
7, 45126, Note_on_c, 8, 58, 67
7, 45141, Control_c, 3, 64, 127
7, 45143, Note_on_c, 8, 57, 0
7, 45157, Note_on_c, 8, 64, 0
7, 45162, Note_on_c, 8, 61, 0
7, 45163, Note_on_c, 8, 58, 0
7, 45167, Note_on_c, 8, 57, 42
7, 45179, Note_on_c, 8, 57, 0
7, 45185, Note_on_c, 8, 61, 28
7, 45190, Note_on_c, 8, 64, 24
7, 45191, Note_on_c, 8, 58, 37
7, 45199, Note_on_c, 8, 64, 0
7, 45202, Note_on_c, 8, 61, 0
7, 45207, Note_on_c, 8, 57, 39
7, 45208, Note_on_c, 8, 58, 0
7, 45220, Note_on_c, 8, 57, 0
7, 45224, Note_on_c, 8, 61, 34
7, 45229, Note_on_c, 8, 64, 32
7, 45242, Note_on_c, 8, 61, 0
7, 45243, Note_on_c, 8, 64, 0
7, 45246, Note_on_c, 8, 58, 37
7, 45246, Note_on_c, 8, 57, 28
7, 45261, Note_on_c, 8, 57, 0
7, 45261, Note_on_c, 8, 58, 0
7, 45266, Note_on_c, 8, 61, 36
7, 45273, Note_on_c, 8, 64, 18
7, 45280, Note_on_c, 8, 64, 0
7, 45283, Note_on_c, 8, 61, 0
7, 45283, Note_on_c, 8, 57, 34
7, 45299, Note_on_c, 8, 58, 33
7, 45300, Note_on_c, 8, 57, 0
7, 45308, Note_on_c, 8, 61, 27
7, 45314, Note_on_c, 8, 58, 0
7, 45320, Note_on_c, 8, 61, 0
7, 45325, Note_on_c, 8, 57, 36
7, 45343, Note_on_c, 8, 57, 0
7, 45348, Note_on_c, 8, 61, 35
7, 45351, Note_on_c, 8, 58, 31
7, 45363, Note_on_c, 8, 61, 0
7, 45366, Note_on_c, 8, 58, 0
7, 45369, Note_on_c, 8, 57, 36
7, 45387, Note_on_c, 8, 57, 0
7, 45388, Note_on_c, 8, 61, 33
7, 45394, Note_on_c, 8, 64, 24
7, 45396, Note_on_c, 8, 58, 44
7, 45405, Note_on_c, 8, 61, 0
7, 45406, Note_on_c, 8, 64, 0
7, 45413, Note_on_c, 8, 58, 0
7, 45413, Note_on_c, 8, 57, 36
7, 45429, Note_on_c, 8, 57, 0
7, 45429, Note_on_c, 8, 61, 43
7, 45441, Note_on_c, 8, 58, 57
7, 45448, Note_on_c, 8, 61, 0
7, 45456, Note_on_c, 8, 58, 0
7, 45456, Note_on_c, 8, 57, 35
7, 45470, Note_on_c, 8, 57, 0
7, 45470, Note_on_c, 8, 61, 53
7, 45478, Note_on_c, 8, 64, 32
7, 45485, Note_on_c, 8, 58, 60
7, 45488, Note_on_c, 8, 64, 0
7, 45490, Note_on_c, 8, 61, 0
7, 45495, Note_on_c, 8, 57, 44
7, 45499, Note_on_c, 8, 58, 0
7, 45510, Note_on_c, 8, 61, 50
7, 45512, Note_on_c, 8, 57, 0
7, 45518, Note_on_c, 8, 64, 30
7, 45523, Note_on_c, 8, 58, 69
7, 45528, Note_on_c, 8, 64, 0
7, 45531, Note_on_c, 8, 61, 0
7, 45536, Note_on_c, 8, 57, 50
7, 45539, Note_on_c, 8, 58, 0
7, 45550, Note_on_c, 8, 61, 50
7, 45554, Note_on_c, 8, 57, 0
7, 45555, Note_on_c, 8, 64, 39
7, 45564, Note_on_c, 8, 58, 67
7, 45571, Note_on_c, 8, 64, 0
7, 45572, Note_on_c, 8, 61, 0
7, 45578, Note_on_c, 8, 58, 0
7, 45579, Note_on_c, 8, 57, 53
7, 45592, Note_on_c, 8, 61, 50
7, 45597, Note_on_c, 8, 57, 0
7, 45600, Note_on_c, 8, 64, 34
7, 45607, Note_on_c, 8, 58, 48
7, 45611, Note_on_c, 8, 64, 0
7, 45615, Note_on_c, 8, 61, 0
7, 45621, Note_on_c, 8, 58, 0
7, 45621, Note_on_c, 8, 57, 46
7, 45636, Note_on_c, 8, 61, 40
7, 45639, Note_on_c, 8, 57, 0
7, 45642, Note_on_c, 8, 64, 36
7, 45647, Note_on_c, 8, 58, 53
7, 45654, Note_on_c, 8, 64, 0
7, 45658, Note_on_c, 8, 61, 0
7, 45661, Note_on_c, 8, 58, 0
7, 45664, Note_on_c, 8, 57, 39
7, 45677, Note_on_c, 8, 61, 33
7, 45683, Note_on_c, 8, 57, 0
7, 45688, Note_on_c, 8, 64, 28
7, 45692, Note_on_c, 8, 58, 49
7, 45698, Note_on_c, 8, 64, 0
7, 45703, Note_on_c, 8, 61, 0
7, 45708, Note_on_c, 8, 58, 0
7, 45710, Note_on_c, 8, 57, 41
7, 45724, Note_on_c, 8, 61, 35
7, 45730, Note_on_c, 8, 57, 0
7, 45732, Note_on_c, 8, 64, 26
7, 45736, Note_on_c, 8, 58, 42
7, 45744, Note_on_c, 8, 64, 0
7, 45748, Note_on_c, 8, 61, 0
7, 45753, Note_on_c, 8, 58, 0
7, 45756, Note_on_c, 8, 57, 38
7, 45768, Note_on_c, 8, 61, 32
7, 45775, Note_on_c, 8, 57, 0
7, 45777, Note_on_c, 8, 64, 26
7, 45782, Note_on_c, 8, 58, 42
7, 45790, Note_on_c, 8, 64, 0
7, 45793, Note_on_c, 8, 61, 0
7, 45795, Note_on_c, 8, 58, 0
7, 45802, Note_on_c, 8, 57, 40
7, 45815, Note_on_c, 8, 61, 30
7, 45820, Note_on_c, 8, 57, 0
7, 45824, Note_on_c, 8, 64, 24
7, 45829, Note_on_c, 8, 58, 34
7, 45837, Note_on_c, 8, 64, 0
7, 45839, Note_on_c, 8, 58, 0
7, 45840, Note_on_c, 8, 61, 0
7, 45849, Note_on_c, 8, 57, 35
7, 45858, Note_on_c, 8, 61, 33
7, 45866, Note_on_c, 8, 57, 0
7, 45869, Note_on_c, 8, 58, 34
7, 45883, Note_on_c, 8, 58, 0
7, 45885, Note_on_c, 8, 61, 0
7, 45895, Note_on_c, 8, 57, 38
7, 45904, Note_on_c, 8, 61, 33
7, 45912, Note_on_c, 8, 57, 0
7, 45912, Note_on_c, 8, 58, 33
7, 45930, Note_on_c, 8, 58, 0
7, 45933, Note_on_c, 8, 61, 0
7, 45943, Note_on_c, 8, 57, 45
7, 45953, Note_on_c, 8, 61, 42
7, 45963, Note_on_c, 8, 57, 0
7, 45980, Note_on_c, 8, 58, 4
7, 45986, Note_on_c, 8, 61, 0
7, 45992, Note_on_c, 8, 58, 0
7, 45995, Note_on_c, 8, 57, 40
7, 46007, Note_on_c, 8, 61, 38
7, 46017, Note_on_c, 8, 57, 0
7, 46020, Note_on_c, 8, 58, 35
7, 46039, Note_on_c, 8, 58, 0
7, 46040, Note_on_c, 8, 61, 0
7, 46047, Note_on_c, 8, 57, 39
7, 46058, Note_on_c, 8, 61, 33
7, 46070, Note_on_c, 8, 57, 0
7, 46076, Note_on_c, 8, 58, 31
7, 46079, Note_on_c, 8, 64, 19
7, 46090, Note_on_c, 8, 64, 0
7, 46093, Note_on_c, 8, 61, 0
7, 46095, Note_on_c, 8, 58, 0
7, 46101, Note_on_c, 8, 57, 42
7, 46114, Note_on_c, 8, 61, 30
7, 46125, Note_on_c, 8, 57, 0
7, 46129, Note_on_c, 8, 64, 24
7, 46131, Note_on_c, 8, 58, 31
7, 46146, Note_on_c, 8, 64, 0
7, 46147, Note_on_c, 8, 61, 0
7, 46152, Note_on_c, 8, 58, 0
7, 46156, Note_on_c, 8, 57, 43
7, 46167, Note_on_c, 8, 61, 31
7, 46180, Note_on_c, 8, 57, 0
7, 46186, Note_on_c, 8, 58, 34
7, 46201, Note_on_c, 8, 61, 0
7, 46205, Note_on_c, 8, 58, 0
7, 46209, Note_on_c, 8, 57, 43
7, 46221, Note_on_c, 8, 61, 37
7, 46233, Note_on_c, 8, 57, 0
7, 46236, Note_on_c, 8, 58, 37
7, 46256, Note_on_c, 8, 61, 0
7, 46257, Note_on_c, 8, 58, 0
7, 46264, Note_on_c, 8, 57, 41
7, 46276, Note_on_c, 8, 61, 29
7, 46289, Note_on_c, 8, 57, 0
7, 46295, Note_on_c, 8, 58, 36
7, 46310, Note_on_c, 8, 58, 0
7, 46313, Note_on_c, 8, 61, 0
7, 46319, Note_on_c, 8, 57, 40
7, 46333, Note_on_c, 8, 61, 31
7, 46346, Note_on_c, 8, 57, 0
7, 46350, Note_on_c, 8, 58, 36
7, 46367, Note_on_c, 8, 61, 0
7, 46371, Note_on_c, 8, 58, 0
7, 46376, Note_on_c, 8, 57, 36
7, 46392, Note_on_c, 8, 61, 33
7, 46410, Note_on_c, 8, 64, 19
7, 46521, Note_on_c, 8, 57, 0
7, 46547, Note_on_c, 8, 64, 0
7, 46552, Note_on_c, 8, 61, 0
7, 46575, Note_on_c, 8, 34, 32
7, 46577, Note_on_c, 7, 22, 37
7, 46672, Note_on_c, 7, 22, 0
7, 46678, Note_on_c, 8, 34, 0
7, 46678, End_track
8, 0, Start_track
8, 0, Title_t, "Soloist (BB) (none)\000"
8, 0, End_track
0, 0, End_of_file
