0, 0, Header, 1, 5, 384
1, 0, Start_track
1, 0, Key_signature, -3, "major"
1, 0, SMPTE_offset, 96, 0, 3, 0, 0
1, 0, Sequencer_specific, 126, 0, 0, 0, 106, 0, 1, 49, 42, 0, 0, 0, 0, 0, 0, 0, 0, 0, 0, 0, 0, 0, 0, 20, 42, 0, 0, 0, 0, 0, 0, 64, 36, 0, 0, 0, 0, 0, 0, 24, 9, 0, 0, 0, 0, 0, 0, 0, 0, 0, 0, 0, 0, 0, 0, 23, 3, 0, 0, 0, 0, 0, 0, 29, 2, 0, 0, 64, 74, 0, 0, 49, 36, 0, 0, 0, 0, 0, 0, 128, 39, 0, 0, 0, 0, 0, 0, 13, 27, 0, 0, 0, 0, 0, 0, 20, 29, 0, 0, 0, 0, 0, 0, 64, 24, 0, 0, 0, 0, 0, 0, 29, 6, 0, 0, 0, 0, 0, 0, 64, 11, 0, 0, 0, 0, 0, 0
1, 0, Sequencer_specific, 126, 0, 0, 0, 106, 0, 1, 19, 24, 0, 0, 64, 11, 0, 0, 5, 4, 0, 0, 0, 0, 0, 0, 0, 0, 0, 0, 0, 0, 0, 0, 19, 11, 0, 0, 0, 0, 0, 0, 64, 36, 0, 0, 0, 0, 0, 0, 1, 3, 0, 0, 0, 0, 0, 0, 0, 0, 0, 0, 0, 0, 0, 0, 17, 3, 0, 0, 49, 4, 0, 0, 64, 34, 0, 0, 64, 3, 0, 0, 24, 4, 0, 0, 19, 6, 0, 0, 20, 39, 0, 0, 0, 0, 0, 0, 184, 39, 0, 0, 0, 0, 0, 0, 64, 29, 0, 0, 0, 0, 0, 0, 20, 24, 0, 0, 0, 0, 0, 0, 64, 29, 0, 0, 0, 0, 0, 0
1, 0, Sequencer_specific, 126, 0, 0, 0, 106, 0, 1, 20, 6, 0, 0, 0, 0, 0, 0, 29, 12, 0, 0, 64, 34, 0, 0, 64, 29, 0, 0, 0, 0, 0, 0, 0, 0, 0, 0, 0, 0, 0, 0, 29, 23, 0, 0, 1, 94, 0, 0, 33, 10, 0, 0, 0, 0, 0, 0, 64, 42, 0, 0, 0, 0, 0, 0, 1, 29, 0, 0, 0, 0, 0, 0, 29, 4, 0, 0, 29, 135, 0, 0, 64, 42, 0, 0, 0, 0, 0, 0, 6, 36, 0, 0, 0, 0, 0, 0, 64, 11, 0, 0, 0, 0, 0, 0, 20, 42, 0, 0, 128, 36, 0, 0, 64, 36, 0, 0, 0, 0, 0, 0, 13, 27, 0, 0, 0, 0, 0, 0
1, 0, Sequencer_specific, 126, 0, 0, 0, 106, 0, 1, 0, 0, 0, 0, 0, 0, 0, 0, 29, 23, 0, 0, 0, 0, 0, 0, 64, 2, 0, 0, 0, 0, 0, 0, 24, 4, 0, 0, 0, 0, 0, 0, 6, 36, 0, 0, 20, 1, 0, 0, 19, 8, 0, 0, 0, 0, 0, 0, 20, 29, 0, 0, 32, 27, 0, 0, 64, 6, 0, 0, 0, 0, 0, 0, 20, 24, 0, 0, 13, 12, 0, 0, 128, 42, 0, 0, 13, 27, 0, 0, 20, 6, 0, 0, 0, 0, 0, 0, 29, 36, 0, 0, 0, 0, 0, 0, 6, 36, 0, 0, 0, 0, 0, 0, 24, 4, 0, 0, 16, 11, 0, 0, 31, 42, 0, 0, 31, 49, 0, 0
1, 0, Sequencer_specific, 126, 0, 0, 0, 106, 0, 1, 1, 3, 0, 0, 0, 0, 0, 0, 49, 36, 0, 0, 0, 0, 0, 0, 20, 3, 0, 0, 0, 0, 0, 0, 1, 2, 0, 0, 0, 0, 0, 0, 6, 4, 0, 0, 0, 0, 0, 0, 5, 11, 0, 0, 0, 0, 0, 0, 6, 11, 0, 0, 0, 0, 0, 0, 128, 1, 0, 0, 0, 0, 0, 0, 16, 6, 0, 0, 6, 9, 0, 0, 19, 1, 0, 0, 64, 1, 0, 0, 1, 6, 0, 0, 1, 9, 0, 0, 19, 9, 0, 0, 0, 0, 0, 0, 6, 4, 0, 0, 0, 0, 0, 0, 64, 3, 0, 0, 64, 8, 0, 0, 19, 1, 0, 0, 0, 0, 0, 0
1, 0, Sequencer_specific, 126, 0, 0, 0, 106, 0, 1, 32, 10, 0, 0, 0, 0, 0, 0, 64, 11, 0, 0, 0, 0, 0, 0, 1, 11, 0, 0, 0, 0, 0, 0, 19, 6, 0, 0, 33, 10, 0, 0, 128, 11, 0, 0, 32, 3, 0, 0, 6, 4, 0, 0, 0, 0, 0, 0, 0, 0, 0, 0, 0, 0, 0, 0, 19, 11, 0, 0, 0, 0, 0, 0, 64, 4, 0, 0, 64, 10, 0, 0, 5, 9, 0, 0, 23, 4, 0, 0, 1, 135, 0, 0, 0, 0, 0, 0, 6, 9, 0, 0, 16, 9, 0, 0, 16, 9, 0, 0, 64, 2, 0, 0, 1, 4, 0, 0, 0, 0, 0, 0, 64, 11, 0, 0, 6, 4, 0, 0
1, 0, Sequencer_specific, 126, 0, 0, 0, 106, 0, 1, 184, 8, 0, 0, 64, 11, 0, 0, 19, 1, 0, 0, 64, 73, 0, 0, 19, 6, 0, 0, 0, 0, 0, 0, 23, 1, 0, 0, 64, 6, 0, 0, 64, 11, 0, 0, 19, 6, 0, 0, 128, 3, 0, 0, 0, 0, 0, 0, 6, 4, 0, 0, 0, 0, 0, 0, 5, 11, 0, 0, 0, 0, 0, 0, 19, 11, 0, 0, 0, 0, 0, 0, 16, 11, 0, 0, 1, 7, 0, 0, 6, 9, 0, 0, 1, 4, 0, 0, 1, 79, 0, 0, 33, 8, 0, 0, 16, 4, 0, 0, 0, 0, 0, 0, 16, 4, 0, 0, 1, 3, 0, 0, 6, 4, 0, 0, 0, 0, 0, 0
1, 0, Sequencer_specific, 126, 0, 0, 0, 106, 0, 1, 1, 4, 0, 0, 0, 0, 0, 0, 184, 1, 0, 0, 0, 0, 0, 0, 64, 1, 0, 0, 0, 0, 0, 0, 16, 6, 0, 0, 18, 9, 0, 0, 19, 1, 0, 0, 33, 5, 0, 0, 19, 6, 0, 0, 0, 0, 0, 0, 16, 9, 0, 0, 64, 2, 0, 0, 6, 4, 0, 0, 0, 0, 0, 0, 16, 3, 0, 0, 1, 8, 0, 0, 19, 1, 0, 0, 0, 0, 0, 0, 1, 129, 0, 0, 23, 7, 0, 0, 64, 11, 0, 0, 0, 0, 0, 0, 19, 1, 0, 0, 0, 0, 0, 0, 19, 6, 0, 0, 0, 0, 0, 0, 64, 11, 0, 0, 0, 0, 0, 0
1, 0, Sequencer_specific, 104, 0, 0, 0, 106, 0, 1, 64, 8, 0, 0, 0, 0, 0, 0, 1, 202, 0, 0, 1, 12, 0, 0, 64, 11, 0, 0, 0, 0, 0, 0, 6, 4, 0, 0, 0, 0, 0, 0, 16, 1, 0, 0, 1, 1, 0, 0, 19, 6, 0, 0, 0, 0, 0, 0, 64, 11, 0, 0, 0, 0, 0, 0, 0, 0, 0, 0, 0, 0, 0, 0, 0, 0, 0, 0, 0, 0, 0, 0, 6, 9, 0, 0, 0, 0, 0, 0, 64, 11, 0, 0, 0, 0, 0, 0, 0, 0, 0, 0, 0, 0, 0, 0, 6, 4
1, 0, Tempo, 428571
1, 0, Time_signature, 4, 2, 24, 8
1, 0, Marker_t, "Intro - needs to modulate from "
1, 6096, Marker_t, "First Chorus begins 'locked han"
1, 12864, Marker_t, "LH begins percussive stabs on t"
1, 25158, Marker_t, "LH and RH octaves in unison on "
1, 32438, Marker_t, "Tremolo - octaves - 16th notes"
1, 44448, Marker_t, "Grace notes on chord tones to '"
1, 64512, Marker_t, "'Cry Me a River' lick on Bbm7"
1, 68084, Marker_t, "Augmented scale (Ab,B,C,Eb,E,G)"
1, 68330, Marker_t, "AbMaj7 (G,Ab,C,Eb)"
1, 68736, Marker_t, "CMaj7 (B,C,E,G)"
1, 69120, Marker_t, "E Major7th (D#,E,G#,B)"
1, 72846, Marker_t, "On EbM7, figure is made up of 4"
1, 102456, Marker_t, "On C7, phrase is chord tones en"
1, 108544, Marker_t, "On Db7, easy to play - Black no"
1, 120002, Marker_t, "Easy to reach 10th in treble - "
1, 151456, Marker_t, "On this Eb7 chord, LH &RH play "
1, 153974, Marker_t, "Same lick as before using augm'"
1, 160500, Marker_t, "Chord tones played twice quickl"
1, 160500, End_track
2, 0, Start_track
2, 0, MIDI_port, 0
2, 0, Sequencer_specific, 7, 0, 0, 0, 106, 0, 4, 0
2, 0, Title_t, "After You've Gone - in Eb"
2, 0, Lyric_t, "dougmck@tpg.com.au\012"
2, 0, System_exclusive, 10, 67, 16, 42, 0, 0, 0, 44, 0, 32, 247
2, 0, End_track
3, 0, Start_track
3, 0, MIDI_port, 0
3, 0, Sequencer_specific, 7, 0, 0, 0, 106, 0, 4, 1
3, 0, Title_t, "Track 2"
3, 0, Control_c, 0, 7, 122
3, 40, Control_c, 0, 64, 127
3, 248, Control_c, 0, 64, 0
3, 248, Note_on_c, 7, 65, 52
3, 264, Note_on_c, 8, 86, 59
3, 264, Note_on_c, 7, 62, 31
3, 268, Note_on_c, 8, 74, 59
3, 268, Note_on_c, 7, 60, 44
3, 280, Note_on_c, 7, 65, 0
3, 280, Note_on_c, 7, 55, 24
3, 296, Note_on_c, 8, 74, 0
3, 300, Note_on_c, 8, 86, 0
3, 300, Note_on_c, 7, 62, 0
3, 300, Note_on_c, 7, 60, 0
3, 308, Note_on_c, 7, 55, 0
3, 780, Note_on_c, 7, 62, 45
3, 788, Note_on_c, 8, 82, 77
3, 788, Note_on_c, 7, 60, 43
3, 792, Note_on_c, 7, 65, 62
3, 796, Note_on_c, 8, 70, 74
3, 796, Note_on_c, 7, 55, 56
3, 864, Control_c, 0, 64, 127
3, 1204, Note_on_c, 7, 65, 0
3, 1204, Note_on_c, 8, 70, 0
3, 1204, Note_on_c, 7, 55, 0
3, 1228, Note_on_c, 7, 60, 0
3, 1232, Note_on_c, 7, 62, 0
3, 1244, Note_on_c, 8, 82, 0
3, 1564, Control_c, 0, 64, 0
3, 1588, Note_on_c, 8, 86, 64
3, 1596, Note_on_c, 7, 62, 56
3, 1604, Note_on_c, 7, 60, 53
3, 1604, Note_on_c, 7, 55, 58
3, 1608, Note_on_c, 8, 74, 62
3, 1608, Note_on_c, 8, 79, 56
3, 1744, Note_on_c, 8, 82, 45
3, 1968, Note_on_c, 8, 86, 0
3, 1980, Note_on_c, 8, 79, 0
3, 1996, Note_on_c, 8, 82, 0
3, 2004, Note_on_c, 8, 74, 0
3, 2004, Control_c, 0, 64, 127
3, 2104, Note_on_c, 7, 60, 0
3, 2112, Note_on_c, 7, 55, 0
3, 2136, Note_on_c, 7, 62, 0
3, 2268, Control_c, 0, 64, 0
3, 2276, Note_on_c, 8, 82, 60
3, 2284, Note_on_c, 8, 70, 63
3, 2288, Note_on_c, 7, 62, 59
3, 2288, Note_on_c, 7, 65, 65
3, 2288, Note_on_c, 7, 60, 54
3, 2296, Note_on_c, 7, 55, 62
3, 2296, Note_on_c, 8, 77, 64
3, 2436, Control_c, 0, 64, 127
3, 2552, Note_on_c, 8, 70, 0
3, 2628, Note_on_c, 8, 77, 0
3, 2668, Note_on_c, 7, 62, 0
3, 2684, Note_on_c, 7, 65, 0
3, 2712, Note_on_c, 8, 82, 0
3, 2720, Note_on_c, 7, 60, 0
3, 2752, Note_on_c, 7, 55, 0
3, 2968, Control_c, 0, 64, 0
3, 2976, Note_on_c, 8, 89, 85
3, 2976, Note_on_c, 8, 77, 88
3, 2980, Note_on_c, 7, 56, 77
3, 2984, Note_on_c, 8, 84, 88
3, 2984, Note_on_c, 7, 61, 73
3, 2984, Note_on_c, 7, 65, 88
3, 3084, Note_on_c, 8, 77, 0
3, 3084, Note_on_c, 7, 60, 75
3, 3092, Note_on_c, 8, 89, 0
3, 3100, Note_on_c, 7, 65, 0
3, 3108, Note_on_c, 8, 84, 0
3, 3116, Note_on_c, 7, 60, 0
3, 3124, Note_on_c, 7, 61, 0
3, 3128, Control_c, 0, 64, 127
3, 3136, Note_on_c, 7, 56, 0
3, 3308, Control_c, 0, 64, 0
3, 3360, Note_on_c, 7, 65, 84
3, 3360, Note_on_c, 7, 60, 79
3, 3360, Note_on_c, 7, 61, 74
3, 3360, Note_on_c, 7, 56, 79
3, 3368, Note_on_c, 8, 80, 73
3, 3368, Note_on_c, 8, 87, 79
3, 3376, Note_on_c, 8, 91, 64
3, 3392, Note_on_c, 8, 79, 43
3, 3424, Note_on_c, 8, 79, 0
3, 3532, Note_on_c, 8, 91, 0
3, 3668, Note_on_c, 8, 87, 0
3, 3684, Control_c, 0, 64, 127
3, 3692, Note_on_c, 8, 80, 0
3, 3744, Note_on_c, 7, 65, 0
3, 3748, Note_on_c, 7, 60, 0
3, 3752, Note_on_c, 7, 56, 0
3, 3776, Control_c, 0, 64, 0
3, 3792, Note_on_c, 7, 61, 0
3, 3860, Note_on_c, 7, 56, 63
3, 3860, Note_on_c, 8, 94, 69
3, 3868, Note_on_c, 8, 87, 54
3, 3868, Note_on_c, 8, 82, 48
3, 3868, Note_on_c, 7, 65, 68
3, 3868, Note_on_c, 7, 61, 47
3, 3900, Note_on_c, 7, 60, 55
3, 3900, Note_on_c, 7, 60, 0
3, 3924, Note_on_c, 8, 87, 0
3, 3932, Note_on_c, 8, 82, 0
3, 3932, Note_on_c, 7, 65, 0
3, 3956, Note_on_c, 8, 94, 0
3, 3968, Note_on_c, 7, 56, 0
3, 3968, Note_on_c, 7, 61, 0
3, 4232, Note_on_c, 8, 96, 71
3, 4232, Note_on_c, 7, 56, 68
3, 4240, Note_on_c, 7, 61, 56
3, 4240, Note_on_c, 8, 84, 64
3, 4244, Note_on_c, 7, 65, 68
3, 4248, Note_on_c, 8, 91, 49
3, 4300, Note_on_c, 7, 65, 0
3, 4316, Note_on_c, 8, 84, 0
3, 4324, Note_on_c, 8, 96, 0
3, 4332, Note_on_c, 7, 61, 0
3, 4340, Note_on_c, 8, 91, 0
3, 4384, Note_on_c, 7, 56, 0
3, 4616, Note_on_c, 8, 85, 61
3, 4624, Note_on_c, 8, 97, 59
3, 4624, Note_on_c, 7, 55, 63
3, 4624, Note_on_c, 7, 66, 58
3, 4624, Note_on_c, 7, 61, 52
3, 4632, Note_on_c, 8, 92, 51
3, 4696, Control_c, 0, 64, 127
3, 4940, Note_on_c, 8, 85, 0
3, 4940, Note_on_c, 8, 92, 0
3, 4956, Note_on_c, 8, 97, 0
3, 4972, Note_on_c, 7, 55, 0
3, 4972, Note_on_c, 7, 66, 0
3, 5148, Note_on_c, 7, 61, 0
3, 5256, Control_c, 0, 64, 0
3, 5280, Note_on_c, 8, 88, 53
3, 5280, Note_on_c, 8, 100, 55
3, 5288, Note_on_c, 7, 61, 40
3, 5288, Note_on_c, 8, 95, 58
3, 5296, Note_on_c, 7, 64, 47
3, 5296, Note_on_c, 7, 55, 54
3, 5372, Control_c, 0, 64, 127
3, 5396, Note_on_c, 8, 100, 0
3, 5448, Note_on_c, 8, 95, 0
3, 5496, Note_on_c, 8, 88, 0
3, 5528, Note_on_c, 7, 64, 0
3, 5572, Note_on_c, 7, 61, 0
3, 5596, Note_on_c, 7, 55, 0
3, 6164, Control_c, 0, 64, 0
3, 6180, Note_on_c, 8, 60, 46
3, 6180, Note_on_c, 7, 55, 34
3, 6188, Note_on_c, 8, 58, 31
3, 6188, Note_on_c, 7, 51, 34
3, 6196, Note_on_c, 7, 44, 35
3, 6372, Control_c, 0, 64, 127
3, 6544, Note_on_c, 7, 55, 0
3, 6560, Note_on_c, 8, 60, 0
3, 6596, Note_on_c, 8, 58, 0
3, 6788, Note_on_c, 7, 51, 0
3, 6884, Note_on_c, 7, 44, 0
3, 7184, Note_on_c, 8, 63, 52
3, 7192, Note_on_c, 7, 55, 62
3, 7196, Note_on_c, 7, 51, 56
3, 7212, Note_on_c, 8, 60, 33
3, 7212, Note_on_c, 8, 58, 47
3, 7244, Note_on_c, 7, 55, 0
3, 7244, Note_on_c, 8, 60, 0
3, 7260, Note_on_c, 8, 63, 0
3, 7276, Note_on_c, 8, 58, 0
3, 7276, Control_c, 0, 64, 0
3, 7368, Note_on_c, 7, 55, 42
3, 7376, Note_on_c, 7, 53, 47
3, 7384, Note_on_c, 8, 60, 33
3, 7392, Note_on_c, 8, 65, 42
3, 7408, Control_c, 0, 64, 127
3, 7420, Note_on_c, 7, 51, 0
3, 7444, Note_on_c, 8, 65, 0
3, 7460, Note_on_c, 7, 55, 0
3, 7500, Note_on_c, 8, 60, 0
3, 7560, Note_on_c, 7, 53, 0
3, 7560, Note_on_c, 7, 51, 37
3, 7644, Note_on_c, 8, 67, 58
3, 7644, Control_c, 0, 64, 0
3, 7652, Note_on_c, 7, 56, 53
3, 7660, Note_on_c, 8, 60, 58
3, 7660, Note_on_c, 7, 55, 57
3, 7668, Note_on_c, 7, 51, 0
3, 7668, Note_on_c, 8, 63, 42
3, 8092, Control_c, 0, 64, 127
3, 8240, Note_on_c, 8, 63, 0
3, 8260, Note_on_c, 8, 60, 0
3, 8300, Note_on_c, 7, 56, 0
3, 8308, Note_on_c, 7, 55, 0
3, 8400, Control_c, 0, 64, 0
3, 8468, Note_on_c, 7, 56, 29
3, 8476, Note_on_c, 8, 63, 35
3, 8484, Note_on_c, 8, 60, 40
3, 8492, Note_on_c, 7, 55, 37
3, 8556, Control_c, 0, 64, 127
3, 8732, Note_on_c, 7, 56, 0
3, 8824, Note_on_c, 7, 55, 0
3, 8848, Note_on_c, 8, 60, 0
3, 8876, Note_on_c, 8, 63, 0
3, 8916, Note_on_c, 8, 67, 0
3, 9116, Control_c, 0, 64, 0
3, 9116, Note_on_c, 8, 56, 38
3, 9124, Note_on_c, 8, 65, 47
3, 9140, Note_on_c, 8, 59, 50
3, 9148, Note_on_c, 7, 53, 36
3, 9148, Note_on_c, 8, 63, 37
3, 9156, Note_on_c, 7, 44, 29
3, 9288, Control_c, 0, 64, 127
3, 9616, Note_on_c, 7, 44, 0
3, 9796, Note_on_c, 7, 53, 0
3, 9800, Note_on_c, 8, 59, 0
3, 9804, Note_on_c, 8, 63, 0
3, 9832, Note_on_c, 8, 56, 0
3, 9872, Note_on_c, 8, 65, 0
3, 9912, Note_on_c, 7, 51, 49
3, 9956, Control_c, 0, 64, 0
3, 9972, Note_on_c, 7, 51, 0
3, 9972, Note_on_c, 7, 54, 52
3, 9996, Note_on_c, 8, 63, 58
3, 10004, Note_on_c, 8, 67, 65
3, 10012, Note_on_c, 8, 59, 76
3, 10016, Note_on_c, 7, 55, 77
3, 10016, Note_on_c, 8, 56, 71
3, 10048, Note_on_c, 7, 54, 0
3, 10240, Note_on_c, 8, 67, 0
3, 10248, Note_on_c, 8, 59, 0
3, 10248, Note_on_c, 8, 56, 0
3, 10272, Note_on_c, 8, 63, 0
3, 10336, Note_on_c, 7, 55, 0
3, 10396, Note_on_c, 8, 56, 45
3, 10396, Note_on_c, 7, 53, 46
3, 10400, Note_on_c, 8, 65, 57
3, 10412, Note_on_c, 8, 63, 33
3, 10412, Note_on_c, 8, 59, 49
3, 10572, Note_on_c, 8, 63, 0
3, 10572, Note_on_c, 8, 59, 0
3, 10620, Note_on_c, 8, 65, 0
3, 10628, Note_on_c, 8, 56, 0
3, 10744, Note_on_c, 7, 53, 0
3, 10772, Note_on_c, 8, 61, 58
3, 10780, Note_on_c, 7, 55, 57
3, 10788, Note_on_c, 8, 67, 57
3, 10788, Note_on_c, 8, 56, 38
3, 10792, Note_on_c, 8, 59, 62
3, 10796, Note_on_c, 8, 66, 21
3, 11228, Control_c, 0, 64, 127
3, 11252, Note_on_c, 8, 59, 0
3, 11268, Note_on_c, 8, 56, 0
3, 11296, Note_on_c, 8, 67, 0
3, 11312, Note_on_c, 8, 66, 0
3, 11328, Note_on_c, 8, 61, 0
3, 11396, Note_on_c, 7, 55, 0
3, 11412, Control_c, 0, 64, 0
3, 11412, Note_on_c, 8, 61, 36
3, 11420, Note_on_c, 8, 56, 35
3, 11420, Note_on_c, 8, 65, 51
3, 11436, Note_on_c, 8, 59, 52
3, 11444, Note_on_c, 7, 53, 39
3, 11568, Control_c, 0, 64, 127
3, 11928, Note_on_c, 8, 59, 0
3, 11936, Note_on_c, 8, 56, 0
3, 11976, Note_on_c, 8, 61, 0
3, 12060, Note_on_c, 7, 53, 0
3, 12076, Note_on_c, 8, 65, 0
3, 12176, Note_on_c, 7, 55, 48
3, 12176, Note_on_c, 8, 62, 51
3, 12180, Note_on_c, 8, 58, 38
3, 12184, Control_c, 0, 64, 0
3, 12200, Note_on_c, 7, 51, 39
3, 12212, Note_on_c, 7, 55, 0
3, 12228, Note_on_c, 8, 58, 0
3, 12244, Note_on_c, 8, 62, 0
3, 12252, Note_on_c, 7, 51, 0
3, 12948, Note_on_c, 8, 65, 66
3, 12960, Note_on_c, 8, 62, 44
3, 12960, Note_on_c, 8, 60, 51
3, 12976, Note_on_c, 8, 65, 0
3, 12984, Note_on_c, 8, 62, 0
3, 12984, Note_on_c, 8, 60, 0
3, 13084, Note_on_c, 8, 67, 29
3, 13260, Note_on_c, 8, 67, 0
3, 13340, Note_on_c, 8, 70, 58
3, 13408, Note_on_c, 8, 70, 0
3, 13456, Note_on_c, 8, 72, 68
3, 13656, Note_on_c, 8, 72, 0
3, 13748, Note_on_c, 7, 60, 43
3, 13748, Note_on_c, 7, 62, 42
3, 13756, Note_on_c, 7, 65, 33
3, 13772, Note_on_c, 7, 62, 0
3, 13784, Note_on_c, 7, 60, 0
3, 13792, Note_on_c, 7, 65, 0
3, 13832, Note_on_c, 8, 72, 36
3, 13892, Note_on_c, 8, 73, 34
3, 13916, Note_on_c, 8, 72, 0
3, 13948, Note_on_c, 8, 73, 0
3, 13964, Note_on_c, 8, 74, 54
3, 14064, Note_on_c, 8, 74, 0
3, 14124, Note_on_c, 8, 77, 81
3, 14132, Note_on_c, 7, 65, 80
3, 14156, Note_on_c, 7, 65, 0
3, 14232, Note_on_c, 8, 77, 0
3, 14264, Note_on_c, 8, 77, 55
3, 14280, Note_on_c, 7, 65, 53
3, 14308, Note_on_c, 7, 65, 0
3, 14416, Note_on_c, 8, 77, 0
3, 14524, Note_on_c, 8, 77, 73
3, 14524, Note_on_c, 7, 60, 49
3, 14524, Note_on_c, 7, 62, 60
3, 14532, Note_on_c, 7, 65, 46
3, 14556, Note_on_c, 7, 60, 0
3, 14556, Note_on_c, 7, 62, 0
3, 14564, Note_on_c, 7, 65, 0
3, 14632, Note_on_c, 8, 77, 0
3, 14720, Note_on_c, 8, 73, 18
3, 14764, Note_on_c, 8, 73, 0
3, 14780, Note_on_c, 8, 74, 58
3, 14820, Note_on_c, 8, 74, 0
3, 14912, Note_on_c, 7, 65, 50
3, 14940, Note_on_c, 7, 65, 0
3, 15096, Note_on_c, 7, 56, 25
3, 15128, Note_on_c, 7, 56, 0
3, 15372, Note_on_c, 8, 62, 30
3, 15380, Note_on_c, 7, 58, 38
3, 15420, Note_on_c, 8, 62, 0
3, 15452, Note_on_c, 7, 58, 0
3, 16036, Note_on_c, 8, 84, 71
3, 16044, Note_on_c, 7, 62, 79
3, 16044, Note_on_c, 7, 58, 60
3, 16048, Note_on_c, 7, 55, 55
3, 16048, Note_on_c, 8, 72, 57
3, 16068, Note_on_c, 7, 57, 26
3, 16076, Note_on_c, 8, 79, 41
3, 16080, Note_on_c, 7, 62, 0
3, 16080, Note_on_c, 7, 55, 0
3, 16088, Note_on_c, 8, 72, 0
3, 16096, Note_on_c, 7, 57, 0
3, 16112, Note_on_c, 7, 58, 0
3, 16120, Note_on_c, 8, 79, 0
3, 16128, Note_on_c, 8, 84, 0
3, 16252, Note_on_c, 8, 85, 49
3, 16276, Note_on_c, 8, 73, 36
3, 16304, Note_on_c, 8, 79, 36
3, 16312, Note_on_c, 8, 82, 38
3, 16320, Note_on_c, 8, 85, 0
3, 16328, Note_on_c, 8, 86, 62
3, 16336, Note_on_c, 8, 73, 0
3, 16344, Note_on_c, 7, 74, 64
3, 16368, Note_on_c, 8, 84, 26
3, 16412, Note_on_c, 8, 84, 0
3, 16436, Note_on_c, 8, 86, 0
3, 16436, Note_on_c, 7, 74, 0
3, 16468, Note_on_c, 8, 79, 0
3, 16476, Note_on_c, 8, 82, 0
3, 16536, Note_on_c, 8, 84, 56
3, 16544, Note_on_c, 7, 72, 57
3, 16568, Note_on_c, 8, 82, 25
3, 16568, Note_on_c, 8, 79, 29
3, 16628, Note_on_c, 8, 79, 0
3, 16636, Note_on_c, 8, 84, 0
3, 16636, Note_on_c, 7, 72, 0
3, 16644, Note_on_c, 8, 82, 0
3, 16800, Note_on_c, 7, 62, 77
3, 16804, Note_on_c, 7, 58, 67
3, 16808, Note_on_c, 7, 52, 70
3, 16820, Note_on_c, 8, 85, 71
3, 16820, Note_on_c, 8, 73, 83
3, 16828, Note_on_c, 7, 62, 0
3, 16828, Note_on_c, 8, 82, 56
3, 16836, Note_on_c, 7, 52, 0
3, 16836, Note_on_c, 8, 79, 64
3, 16852, Note_on_c, 7, 58, 0
3, 16908, Note_on_c, 8, 73, 0
3, 16924, Note_on_c, 8, 85, 0
3, 16936, Note_on_c, 8, 79, 0
3, 17052, Note_on_c, 8, 85, 44
3, 17052, Note_on_c, 7, 73, 47
3, 17068, Note_on_c, 8, 79, 43
3, 17116, Note_on_c, 8, 86, 35
3, 17136, Note_on_c, 7, 73, 0
3, 17152, Note_on_c, 8, 84, 20
3, 17152, Note_on_c, 7, 74, 63
3, 17160, Note_on_c, 8, 85, 0
3, 17200, Note_on_c, 7, 74, 0
3, 17208, Note_on_c, 8, 86, 0
3, 17252, Note_on_c, 8, 84, 0
3, 17260, Note_on_c, 8, 79, 0
3, 17284, Note_on_c, 8, 82, 0
3, 17332, Note_on_c, 7, 73, 48
3, 17336, Note_on_c, 8, 85, 45
3, 17336, Note_on_c, 8, 79, 34
3, 17360, Note_on_c, 8, 82, 34
3, 17468, Note_on_c, 8, 79, 0
3, 17484, Note_on_c, 8, 85, 0
3, 17500, Note_on_c, 8, 82, 0
3, 17524, Note_on_c, 7, 73, 0
3, 17576, Note_on_c, 8, 79, 44
3, 17576, Note_on_c, 7, 72, 57
3, 17584, Note_on_c, 8, 84, 62
3, 17584, Note_on_c, 7, 62, 37
3, 17600, Note_on_c, 7, 60, 27
3, 17608, Note_on_c, 7, 72, 0
3, 17608, Note_on_c, 8, 84, 0
3, 17612, Note_on_c, 8, 79, 0
3, 17612, Note_on_c, 7, 62, 0
3, 17624, Note_on_c, 7, 60, 0
3, 18064, Note_on_c, 7, 67, 77
3, 18068, Note_on_c, 7, 57, 74
3, 18076, Note_on_c, 7, 63, 64
3, 18276, Note_on_c, 7, 57, 0
3, 18300, Note_on_c, 7, 67, 0
3, 18300, Note_on_c, 7, 63, 0
3, 18332, Note_on_c, 7, 57, 71
3, 18340, Note_on_c, 7, 63, 70
3, 18340, Note_on_c, 7, 67, 78
3, 18400, Note_on_c, 7, 67, 0
3, 18416, Note_on_c, 7, 63, 0
3, 18424, Note_on_c, 7, 57, 0
3, 18472, Note_on_c, 7, 57, 51
3, 18476, Note_on_c, 7, 67, 60
3, 18476, Note_on_c, 7, 63, 67
3, 18640, Note_on_c, 7, 57, 0
3, 18640, Note_on_c, 7, 67, 0
3, 18656, Note_on_c, 7, 63, 0
3, 18716, Note_on_c, 7, 63, 59
3, 18724, Note_on_c, 7, 57, 59
3, 18724, Note_on_c, 7, 67, 63
3, 18764, Note_on_c, 7, 57, 0
3, 18772, Note_on_c, 7, 67, 0
3, 18780, Note_on_c, 7, 63, 0
3, 19212, Note_on_c, 7, 62, 50
3, 19216, Note_on_c, 7, 67, 59
3, 19216, Note_on_c, 7, 63, 46
3, 19248, Note_on_c, 7, 67, 0
3, 19272, Note_on_c, 7, 63, 0
3, 19288, Note_on_c, 7, 62, 0
3, 19612, Note_on_c, 8, 72, 110
3, 19764, Note_on_c, 8, 72, 0
3, 19812, Control_c, 0, 64, 127
3, 19864, Control_c, 0, 64, 0
3, 19864, Note_on_c, 7, 62, 58
3, 19872, Note_on_c, 7, 67, 75
3, 19880, Note_on_c, 8, 79, 88
3, 19880, Note_on_c, 7, 63, 53
3, 19896, Note_on_c, 7, 57, 44
3, 19928, Note_on_c, 7, 67, 0
3, 19944, Note_on_c, 7, 57, 0
3, 19964, Note_on_c, 7, 63, 0
3, 20020, Note_on_c, 8, 79, 0
3, 20028, Note_on_c, 7, 62, 0
3, 20136, Note_on_c, 8, 79, 84
3, 20280, Note_on_c, 8, 79, 0
3, 20412, Note_on_c, 8, 72, 66
3, 20436, Control_c, 0, 64, 127
3, 20612, Note_on_c, 8, 72, 0
3, 20660, Note_on_c, 7, 62, 41
3, 20660, Note_on_c, 7, 67, 62
3, 20668, Note_on_c, 7, 63, 42
3, 20672, Control_c, 0, 64, 0
3, 20680, Note_on_c, 8, 79, 75
3, 20684, Note_on_c, 7, 67, 0
3, 20704, Note_on_c, 7, 62, 0
3, 20712, Note_on_c, 7, 63, 0
3, 20780, Note_on_c, 8, 79, 0
3, 20828, Note_on_c, 7, 67, 54
3, 20984, Note_on_c, 7, 67, 0
3, 21052, Note_on_c, 7, 67, 59
3, 21084, Note_on_c, 7, 67, 0
3, 21528, Note_on_c, 7, 60, 50
3, 21528, Note_on_c, 7, 67, 27
3, 21528, Note_on_c, 7, 63, 39
3, 21560, Note_on_c, 7, 60, 0
3, 21568, Note_on_c, 7, 67, 0
3, 21568, Note_on_c, 7, 63, 0
3, 21976, Control_c, 0, 64, 127
3, 22200, Note_on_c, 7, 63, 37
3, 22208, Note_on_c, 8, 79, 33
3, 22216, Control_c, 0, 64, 0
3, 22232, Note_on_c, 7, 63, 0
3, 22240, Note_on_c, 8, 79, 0
3, 22300, Note_on_c, 7, 63, 36
3, 22300, Note_on_c, 7, 56, 39
3, 22308, Note_on_c, 7, 67, 50
3, 22316, Note_on_c, 8, 72, 62
3, 22316, Note_on_c, 7, 60, 58
3, 22324, Note_on_c, 8, 84, 73
3, 22324, Note_on_c, 8, 79, 36
3, 22332, Control_c, 0, 64, 127
3, 22392, Note_on_c, 8, 72, 0
3, 22416, Note_on_c, 7, 67, 0
3, 22416, Note_on_c, 8, 79, 0
3, 22432, Note_on_c, 7, 56, 0
3, 22440, Note_on_c, 8, 84, 0
3, 22448, Note_on_c, 7, 60, 0
3, 22468, Note_on_c, 7, 63, 0
3, 22576, Note_on_c, 8, 89, 74
3, 22576, Note_on_c, 7, 67, 68
3, 22584, Note_on_c, 7, 63, 58
3, 22584, Note_on_c, 8, 77, 73
3, 22584, Note_on_c, 8, 84, 72
3, 22588, Note_on_c, 7, 60, 60
3, 22592, Note_on_c, 7, 56, 37
3, 22608, Note_on_c, 7, 67, 0
3, 22616, Note_on_c, 8, 84, 0
3, 22616, Note_on_c, 7, 60, 0
3, 22624, Note_on_c, 8, 77, 0
3, 22624, Note_on_c, 7, 56, 0
3, 22628, Note_on_c, 8, 89, 0
3, 22628, Note_on_c, 7, 63, 0
3, 22640, Control_c, 0, 64, 0
3, 22684, Note_on_c, 7, 63, 63
3, 22684, Note_on_c, 7, 67, 58
3, 22684, Note_on_c, 7, 56, 45
3, 22684, Note_on_c, 8, 89, 62
3, 22692, Note_on_c, 8, 84, 59
3, 22692, Note_on_c, 7, 60, 58
3, 22700, Note_on_c, 8, 77, 47
3, 22792, Control_c, 0, 64, 127
3, 22908, Note_on_c, 7, 56, 0
3, 22908, Note_on_c, 8, 84, 0
3, 22908, Note_on_c, 8, 77, 0
3, 22912, Note_on_c, 7, 67, 0
3, 22916, Note_on_c, 7, 60, 0
3, 22924, Note_on_c, 7, 63, 0
3, 22924, Note_on_c, 8, 89, 0
3, 23000, Control_c, 0, 64, 0
3, 23084, Note_on_c, 7, 63, 55
3, 23084, Note_on_c, 8, 77, 75
3, 23084, Note_on_c, 7, 60, 59
3, 23084, Note_on_c, 7, 67, 68
3, 23092, Note_on_c, 8, 89, 65
3, 23100, Note_on_c, 8, 85, 71
3, 23100, Note_on_c, 7, 56, 53
3, 23288, Note_on_c, 8, 89, 0
3, 23300, Note_on_c, 8, 77, 0
3, 23300, Note_on_c, 8, 85, 0
3, 23300, Note_on_c, 8, 86, 34
3, 23316, Note_on_c, 7, 56, 0
3, 23332, Note_on_c, 7, 67, 0
3, 23332, Note_on_c, 8, 86, 0
3, 23340, Note_on_c, 7, 63, 0
3, 23340, Note_on_c, 7, 60, 0
3, 23840, Control_c, 0, 64, 127
3, 24080, Note_on_c, 7, 63, 65
3, 24088, Note_on_c, 7, 56, 64
3, 24088, Note_on_c, 7, 67, 75
3, 24088, Control_c, 0, 64, 0
3, 24092, Note_on_c, 8, 85, 77
3, 24092, Note_on_c, 8, 77, 82
3, 24096, Note_on_c, 8, 89, 76
3, 24104, Note_on_c, 7, 60, 60
3, 24240, Note_on_c, 8, 86, 40
3, 24256, Note_on_c, 8, 85, 0
3, 24256, Control_c, 0, 64, 127
3, 24356, Note_on_c, 8, 89, 0
3, 24356, Note_on_c, 8, 86, 0
3, 24396, Note_on_c, 8, 77, 0
3, 24480, Note_on_c, 7, 67, 0
3, 24528, Note_on_c, 7, 60, 0
3, 24532, Note_on_c, 7, 63, 0
3, 24544, Note_on_c, 7, 56, 0
3, 24580, Control_c, 0, 64, 0
3, 24604, Note_on_c, 7, 65, 69
3, 24612, Note_on_c, 7, 62, 64
3, 24628, Note_on_c, 8, 70, 37
3, 24636, Note_on_c, 7, 65, 0
3, 24644, Note_on_c, 7, 55, 33
3, 24656, Note_on_c, 8, 70, 0
3, 24672, Note_on_c, 7, 62, 0
3, 24712, Note_on_c, 7, 55, 0
3, 25220, Note_on_c, 7, 46, 62
3, 25252, Note_on_c, 7, 58, 61
3, 25320, Note_on_c, 7, 46, 0
3, 25320, Note_on_c, 7, 58, 0
3, 25388, Note_on_c, 8, 60, 52
3, 25388, Note_on_c, 7, 48, 49
3, 25428, Note_on_c, 8, 60, 0
3, 25504, Note_on_c, 7, 48, 0
3, 25636, Note_on_c, 8, 60, 71
3, 25644, Note_on_c, 7, 48, 47
3, 25712, Note_on_c, 8, 60, 0
3, 25728, Note_on_c, 7, 48, 0
3, 25768, Note_on_c, 7, 46, 40
3, 25784, Note_on_c, 8, 58, 32
3, 25812, Note_on_c, 8, 58, 0
3, 25844, Note_on_c, 7, 46, 0
3, 26012, Note_on_c, 7, 46, 48
3, 26020, Note_on_c, 8, 58, 57
3, 26100, Note_on_c, 8, 58, 0
3, 26128, Note_on_c, 7, 46, 0
3, 26336, Note_on_c, 8, 63, 71
3, 26352, Note_on_c, 7, 51, 68
3, 26476, Note_on_c, 7, 51, 0
3, 26484, Note_on_c, 8, 63, 0
3, 26568, Note_on_c, 7, 46, 44
3, 26568, Note_on_c, 8, 58, 52
3, 26716, Note_on_c, 8, 58, 0
3, 26760, Note_on_c, 7, 46, 0
3, 26792, Note_on_c, 8, 60, 73
3, 26808, Note_on_c, 7, 48, 58
3, 26900, Note_on_c, 8, 60, 0
3, 26932, Note_on_c, 7, 48, 0
3, 27152, Note_on_c, 7, 46, 62
3, 27152, Note_on_c, 8, 58, 60
3, 27200, Note_on_c, 8, 58, 0
3, 27216, Note_on_c, 7, 46, 0
3, 27284, Control_c, 0, 64, 127
3, 27532, Control_c, 0, 64, 0
3, 27532, Note_on_c, 8, 75, 87
3, 27536, Note_on_c, 7, 60, 74
3, 27536, Note_on_c, 7, 56, 69
3, 27540, Note_on_c, 8, 87, 85
3, 27540, Note_on_c, 7, 61, 47
3, 27544, Note_on_c, 7, 65, 79
3, 27544, Note_on_c, 8, 82, 74
3, 27692, Control_c, 0, 64, 127
3, 27956, Control_c, 0, 64, 0
3, 28016, Control_c, 0, 64, 127
3, 28472, Note_on_c, 8, 75, 0
3, 28480, Note_on_c, 8, 82, 0
3, 28496, Note_on_c, 8, 87, 0
3, 28564, Note_on_c, 7, 61, 0
3, 28580, Note_on_c, 7, 60, 0
3, 28580, Note_on_c, 7, 65, 0
3, 28596, Note_on_c, 7, 56, 0
3, 28756, Control_c, 0, 64, 0
3, 28812, Note_on_c, 8, 89, 67
3, 28816, Note_on_c, 8, 77, 55
3, 28820, Note_on_c, 7, 65, 61
3, 28824, Note_on_c, 7, 61, 49
3, 28824, Note_on_c, 7, 56, 52
3, 28824, Note_on_c, 8, 84, 63
3, 28840, Note_on_c, 7, 60, 29
3, 28872, Note_on_c, 7, 60, 0
3, 28896, Note_on_c, 8, 77, 0
3, 28896, Note_on_c, 7, 65, 0
3, 28896, Note_on_c, 8, 84, 0
3, 28912, Note_on_c, 8, 89, 0
3, 28928, Note_on_c, 7, 61, 0
3, 28980, Note_on_c, 7, 56, 0
3, 29180, Note_on_c, 7, 61, 69
3, 29196, Note_on_c, 8, 85, 79
3, 29196, Note_on_c, 7, 66, 81
3, 29200, Note_on_c, 8, 93, 80
3, 29200, Note_on_c, 8, 88, 78
3, 29204, Note_on_c, 8, 81, 85
3, 29204, Note_on_c, 7, 55, 72
3, 29212, Note_on_c, 8, 91, 53
3, 29364, Control_c, 0, 64, 127
3, 29612, Note_on_c, 8, 93, 0
3, 29612, Note_on_c, 8, 88, 0
3, 29620, Note_on_c, 8, 91, 0
3, 29636, Note_on_c, 8, 85, 0
3, 29636, Note_on_c, 8, 81, 0
3, 29728, Note_on_c, 7, 66, 0
3, 29788, Note_on_c, 7, 55, 0
3, 29820, Note_on_c, 7, 61, 0
3, 29880, Note_on_c, 8, 80, 75
3, 29880, Note_on_c, 7, 61, 74
3, 29880, Note_on_c, 8, 88, 77
3, 29880, Note_on_c, 8, 76, 74
3, 29888, Note_on_c, 7, 55, 72
3, 29888, Control_c, 0, 64, 0
3, 29888, Note_on_c, 7, 64, 81
3, 30036, Note_on_c, 8, 80, 0
3, 30044, Control_c, 0, 64, 127
3, 30052, Note_on_c, 8, 81, 31
3, 30236, Note_on_c, 8, 88, 0
3, 30236, Note_on_c, 8, 81, 0
3, 30244, Note_on_c, 8, 76, 0
3, 30260, Note_on_c, 7, 55, 0
3, 30260, Note_on_c, 7, 64, 0
3, 30336, Note_on_c, 7, 61, 0
3, 30368, Control_c, 0, 64, 0
3, 30376, Note_on_c, 7, 58, 71
3, 30384, Note_on_c, 7, 60, 79
3, 30388, Note_on_c, 8, 87, 77
3, 30388, Note_on_c, 7, 63, 83
3, 30392, Note_on_c, 8, 75, 77
3, 30396, Note_on_c, 7, 53, 73
3, 30708, Note_on_c, 8, 87, 0
3, 30720, Note_on_c, 7, 63, 0
3, 30720, Note_on_c, 8, 75, 0
3, 30736, Note_on_c, 7, 60, 0
3, 30744, Note_on_c, 7, 53, 0
3, 30768, Note_on_c, 7, 58, 0
3, 31532, Note_on_c, 7, 63, 46
3, 31540, Note_on_c, 7, 56, 38
3, 31544, Note_on_c, 7, 60, 44
3, 31576, Note_on_c, 7, 63, 0
3, 31576, Note_on_c, 7, 60, 0
3, 31632, Note_on_c, 7, 56, 0
3, 31808, Note_on_c, 8, 72, 48
3, 31840, Note_on_c, 8, 72, 0
3, 31948, Note_on_c, 8, 75, 47
3, 32116, Note_on_c, 8, 75, 0
3, 32200, Note_on_c, 8, 77, 66
3, 32200, Note_on_c, 7, 63, 60
3, 32216, Note_on_c, 7, 60, 54
3, 32240, Note_on_c, 7, 63, 0
3, 32248, Note_on_c, 7, 60, 0
3, 32264, Note_on_c, 8, 77, 0
3, 32380, Note_on_c, 8, 78, 43
3, 32400, Note_on_c, 8, 66, 40
3, 32464, Note_on_c, 8, 78, 0
3, 32472, Note_on_c, 8, 66, 0
3, 32500, Note_on_c, 8, 67, 38
3, 32588, Note_on_c, 8, 67, 0
3, 32624, Note_on_c, 8, 79, 36
3, 32688, Note_on_c, 7, 67, 43
3, 32708, Note_on_c, 8, 79, 0
3, 32816, Note_on_c, 7, 67, 0
3, 32816, Note_on_c, 8, 79, 37
3, 32908, Note_on_c, 7, 67, 38
3, 32912, Note_on_c, 8, 79, 0
3, 32956, Note_on_c, 7, 63, 52
3, 32964, Note_on_c, 7, 59, 48
3, 32980, Note_on_c, 7, 56, 25
3, 32988, Note_on_c, 7, 67, 0
3, 32988, Note_on_c, 7, 63, 0
3, 32992, Note_on_c, 7, 59, 0
3, 33012, Note_on_c, 7, 56, 0
3, 33016, Note_on_c, 8, 79, 43
3, 33096, Note_on_c, 8, 67, 39
3, 33100, Note_on_c, 8, 79, 0
3, 33196, Note_on_c, 8, 67, 0
3, 33212, Note_on_c, 8, 79, 33
3, 33304, Note_on_c, 8, 79, 0
3, 33304, Note_on_c, 8, 67, 30
3, 33364, Note_on_c, 8, 67, 0
3, 33404, Note_on_c, 8, 79, 45
3, 33456, Note_on_c, 8, 67, 35
3, 33504, Note_on_c, 8, 79, 0
3, 33572, Note_on_c, 8, 67, 0
3, 33588, Note_on_c, 8, 79, 26
3, 33680, Note_on_c, 7, 59, 74
3, 33680, Note_on_c, 7, 67, 47
3, 33684, Note_on_c, 7, 63, 67
3, 33684, Note_on_c, 7, 58, 53
3, 33688, Note_on_c, 8, 79, 0
3, 33720, Note_on_c, 7, 63, 0
3, 33736, Note_on_c, 7, 59, 0
3, 33772, Note_on_c, 7, 67, 0
3, 33780, Note_on_c, 7, 58, 0
3, 33796, Note_on_c, 8, 79, 35
3, 33880, Note_on_c, 7, 67, 29
3, 33888, Note_on_c, 8, 79, 0
3, 33956, Note_on_c, 7, 67, 0
3, 34128, Note_on_c, 7, 59, 24
3, 34152, Note_on_c, 7, 59, 0
3, 34212, Note_on_c, 7, 65, 61
3, 34220, Note_on_c, 8, 77, 66
3, 34328, Note_on_c, 7, 65, 0
3, 34344, Note_on_c, 8, 77, 0
3, 34468, Note_on_c, 8, 77, 59
3, 34480, Note_on_c, 7, 65, 55
3, 34488, Note_on_c, 7, 59, 64
3, 34488, Note_on_c, 7, 63, 75
3, 34496, Note_on_c, 7, 54, 53
3, 34512, Note_on_c, 7, 58, 42
3, 34536, Note_on_c, 7, 63, 0
3, 34544, Note_on_c, 8, 77, 0
3, 34544, Note_on_c, 7, 65, 0
3, 34588, Note_on_c, 7, 54, 0
3, 34704, Note_on_c, 8, 78, 39
3, 34712, Note_on_c, 7, 59, 0
3, 34712, Note_on_c, 8, 66, 38
3, 34744, Note_on_c, 8, 72, 43
3, 34744, Note_on_c, 8, 75, 38
3, 34748, Note_on_c, 7, 58, 0
3, 34768, Note_on_c, 8, 66, 0
3, 34776, Note_on_c, 8, 79, 51
3, 34788, Note_on_c, 7, 67, 50
3, 34812, Note_on_c, 8, 78, 0
3, 34860, Note_on_c, 8, 79, 0
3, 34884, Note_on_c, 7, 67, 0
3, 34936, Note_on_c, 8, 72, 0
3, 34944, Note_on_c, 7, 59, 30
3, 34952, Note_on_c, 8, 75, 0
3, 34960, Note_on_c, 7, 58, 23
3, 34992, Note_on_c, 8, 77, 50
3, 35004, Note_on_c, 7, 59, 0
3, 35004, Note_on_c, 7, 65, 62
3, 35020, Note_on_c, 8, 72, 35
3, 35028, Note_on_c, 7, 58, 0
3, 35100, Note_on_c, 7, 65, 0
3, 35120, Note_on_c, 8, 72, 0
3, 35128, Note_on_c, 8, 77, 0
3, 35244, Note_on_c, 7, 63, 67
3, 35244, Note_on_c, 7, 59, 62
3, 35244, Note_on_c, 8, 77, 69
3, 35252, Note_on_c, 7, 65, 69
3, 35252, Note_on_c, 7, 58, 33
3, 35268, Note_on_c, 7, 53, 38
3, 35268, Note_on_c, 8, 72, 62
3, 35276, Note_on_c, 8, 75, 33
3, 35300, Note_on_c, 7, 63, 0
3, 35312, Note_on_c, 7, 53, 0
3, 35320, Note_on_c, 7, 65, 0
3, 35352, Note_on_c, 8, 77, 0
3, 35392, Note_on_c, 8, 72, 0
3, 35392, Note_on_c, 8, 75, 0
3, 35484, Note_on_c, 7, 58, 0
3, 35484, Note_on_c, 8, 78, 53
3, 35492, Note_on_c, 7, 59, 0
3, 35492, Note_on_c, 8, 66, 37
3, 35508, Note_on_c, 8, 72, 20
3, 35528, Note_on_c, 8, 75, 18
3, 35560, Note_on_c, 8, 66, 0
3, 35568, Note_on_c, 8, 78, 0
3, 35568, Note_on_c, 8, 79, 57
3, 35584, Note_on_c, 7, 67, 49
3, 35660, Note_on_c, 8, 72, 0
3, 35660, Note_on_c, 8, 79, 0
3, 35660, Note_on_c, 7, 67, 0
3, 35676, Note_on_c, 8, 75, 0
3, 35708, Note_on_c, 7, 59, 35
3, 35760, Note_on_c, 7, 59, 0
3, 35776, Note_on_c, 8, 79, 64
3, 35784, Note_on_c, 7, 67, 69
3, 35788, Note_on_c, 8, 75, 43
3, 35792, Note_on_c, 8, 72, 62
3, 35800, Note_on_c, 8, 77, 37
3, 35884, Note_on_c, 7, 67, 0
3, 35892, Note_on_c, 8, 77, 0
3, 35900, Note_on_c, 8, 79, 0
3, 35916, Note_on_c, 8, 72, 0
3, 35952, Note_on_c, 8, 75, 0
3, 36008, Note_on_c, 8, 77, 34
3, 36016, Note_on_c, 7, 65, 67
3, 36024, Note_on_c, 7, 63, 64
3, 36028, Note_on_c, 7, 59, 61
3, 36032, Note_on_c, 8, 75, 20
3, 36040, Note_on_c, 8, 72, 30
3, 36052, Note_on_c, 7, 58, 28
3, 36076, Note_on_c, 7, 63, 0
3, 36084, Note_on_c, 7, 65, 0
3, 36092, Note_on_c, 8, 77, 0
3, 36124, Note_on_c, 8, 75, 0
3, 36124, Note_on_c, 8, 72, 0
3, 36184, Note_on_c, 7, 58, 0
3, 36192, Note_on_c, 7, 59, 0
3, 36248, Note_on_c, 8, 78, 53
3, 36260, Note_on_c, 7, 66, 53
3, 36276, Note_on_c, 8, 72, 46
3, 36284, Note_on_c, 8, 75, 33
3, 36376, Note_on_c, 8, 79, 71
3, 36384, Note_on_c, 7, 66, 0
3, 36384, Note_on_c, 7, 67, 80
3, 36400, Note_on_c, 8, 77, 47
3, 36408, Note_on_c, 8, 78, 0
3, 36440, Note_on_c, 8, 77, 0
3, 36448, Note_on_c, 7, 67, 0
3, 36484, Note_on_c, 8, 72, 0
3, 36492, Note_on_c, 8, 79, 0
3, 36508, Note_on_c, 8, 75, 0
3, 36584, Note_on_c, 8, 79, 69
3, 36592, Note_on_c, 7, 67, 74
3, 36600, Note_on_c, 8, 75, 38
3, 36608, Note_on_c, 8, 72, 68
3, 36608, Note_on_c, 8, 77, 44
3, 36700, Note_on_c, 8, 77, 0
3, 36716, Note_on_c, 8, 79, 0
3, 36732, Note_on_c, 7, 67, 0
3, 36748, Note_on_c, 8, 72, 0
3, 36756, Note_on_c, 8, 75, 0
3, 36808, Note_on_c, 7, 58, 50
3, 36808, Note_on_c, 8, 77, 50
3, 36812, Note_on_c, 7, 62, 54
3, 36824, Note_on_c, 8, 72, 58
3, 36832, Note_on_c, 8, 75, 36
3, 36832, Note_on_c, 7, 65, 64
3, 36836, Note_on_c, 7, 55, 44
3, 36840, Note_on_c, 7, 62, 0
3, 36884, Note_on_c, 7, 55, 0
3, 36900, Note_on_c, 7, 58, 0
3, 36900, Note_on_c, 8, 75, 0
3, 36900, Note_on_c, 7, 65, 0
3, 36924, Note_on_c, 8, 77, 0
3, 36932, Note_on_c, 8, 72, 0
3, 37688, Note_on_c, 7, 54, 51
3, 37764, Note_on_c, 7, 54, 0
3, 37788, Note_on_c, 7, 55, 43
3, 37880, Note_on_c, 7, 55, 0
3, 37940, Note_on_c, 7, 58, 83
3, 37956, Note_on_c, 7, 56, 39
3, 37980, Note_on_c, 7, 56, 0
3, 38028, Note_on_c, 7, 58, 0
3, 38072, Note_on_c, 7, 60, 85
3, 38320, Note_on_c, 7, 58, 56
3, 38328, Note_on_c, 7, 60, 0
3, 38380, Note_on_c, 7, 58, 0
3, 38412, Note_on_c, 7, 60, 33
3, 38504, Note_on_c, 8, 61, 32
3, 38536, Note_on_c, 7, 60, 0
3, 38580, Note_on_c, 8, 61, 0
3, 38596, Note_on_c, 8, 62, 49
3, 38664, Note_on_c, 8, 62, 0
3, 38704, Note_on_c, 8, 65, 87
3, 38804, Note_on_c, 8, 65, 0
3, 38828, Note_on_c, 8, 62, 45
3, 38872, Note_on_c, 8, 62, 0
3, 39196, Note_on_c, 8, 62, 54
3, 39212, Note_on_c, 7, 58, 34
3, 39228, Note_on_c, 7, 55, 33
3, 39236, Note_on_c, 8, 62, 0
3, 39268, Note_on_c, 7, 55, 0
3, 39304, Note_on_c, 7, 58, 0
3, 39596, Note_on_c, 8, 84, 95
3, 39596, Note_on_c, 8, 72, 90
3, 39820, Note_on_c, 8, 72, 0
3, 39828, Note_on_c, 8, 84, 0
3, 39860, Note_on_c, 8, 81, 57
3, 39868, Note_on_c, 7, 62, 55
3, 39868, Note_on_c, 7, 60, 57
3, 39884, Note_on_c, 7, 58, 31
3, 39892, Note_on_c, 7, 62, 0
3, 39896, Note_on_c, 7, 60, 0
3, 39920, Note_on_c, 7, 58, 0
3, 39952, Note_on_c, 8, 81, 0
3, 40028, Note_on_c, 8, 72, 43
3, 40192, Note_on_c, 8, 72, 0
3, 40268, Note_on_c, 8, 72, 53
3, 40300, Note_on_c, 8, 72, 0
3, 40732, Note_on_c, 7, 62, 43
3, 40740, Note_on_c, 7, 58, 32
3, 40744, Note_on_c, 7, 60, 34
3, 40760, Note_on_c, 7, 62, 0
3, 40776, Note_on_c, 7, 60, 0
3, 40816, Note_on_c, 7, 58, 0
3, 41392, Note_on_c, 7, 63, 64
3, 41392, Note_on_c, 7, 58, 58
3, 41408, Note_on_c, 7, 52, 51
3, 41432, Note_on_c, 7, 63, 0
3, 41432, Note_on_c, 7, 52, 0
3, 41456, Note_on_c, 7, 58, 0
3, 41772, Note_on_c, 8, 88, 101
3, 41880, Note_on_c, 8, 88, 0
3, 41972, Note_on_c, 8, 87, 61
3, 42096, Note_on_c, 8, 87, 0
3, 42156, Note_on_c, 7, 58, 69
3, 42156, Note_on_c, 8, 85, 82
3, 42156, Note_on_c, 7, 63, 65
3, 42180, Note_on_c, 7, 52, 47
3, 42196, Note_on_c, 7, 63, 0
3, 42204, Note_on_c, 7, 52, 0
3, 42240, Note_on_c, 7, 58, 0
3, 42272, Note_on_c, 8, 85, 0
3, 42364, Note_on_c, 8, 84, 38
3, 42464, Note_on_c, 8, 84, 0
3, 42564, Note_on_c, 8, 82, 59
3, 42632, Note_on_c, 8, 82, 0
3, 42720, Note_on_c, 8, 81, 48
3, 42872, Note_on_c, 8, 81, 0
3, 42948, Note_on_c, 8, 79, 59
3, 42956, Note_on_c, 8, 67, 71
3, 42964, Note_on_c, 7, 63, 36
3, 42964, Note_on_c, 7, 60, 55
3, 42996, Note_on_c, 7, 60, 0
3, 43020, Note_on_c, 8, 67, 0
3, 43024, Note_on_c, 8, 79, 0
3, 43064, Note_on_c, 7, 63, 0
3, 43096, Note_on_c, 8, 80, 61
3, 43320, Note_on_c, 8, 80, 0
3, 43328, Note_on_c, 8, 74, 46
3, 43372, Note_on_c, 8, 74, 0
3, 43428, Note_on_c, 8, 79, 77
3, 43612, Note_on_c, 8, 79, 0
3, 43696, Note_on_c, 8, 77, 54
3, 43696, Note_on_c, 8, 79, 64
3, 43704, Note_on_c, 7, 63, 51
3, 43704, Note_on_c, 7, 67, 57
3, 43712, Note_on_c, 7, 60, 48
3, 43736, Note_on_c, 7, 67, 0
3, 43760, Note_on_c, 8, 79, 0
3, 43788, Note_on_c, 8, 77, 0
3, 43788, Note_on_c, 7, 60, 0
3, 43796, Note_on_c, 7, 63, 0
3, 43852, Note_on_c, 8, 75, 37
3, 44020, Note_on_c, 8, 75, 0
3, 44068, Note_on_c, 8, 72, 63
3, 44144, Note_on_c, 8, 72, 0
3, 44468, Note_on_c, 7, 63, 60
3, 44492, Note_on_c, 7, 58, 37
3, 44512, Note_on_c, 7, 63, 0
3, 44568, Note_on_c, 7, 58, 0
3, 44576, Note_on_c, 7, 66, 60
3, 44636, Note_on_c, 8, 67, 59
3, 44676, Note_on_c, 7, 66, 0
3, 44816, Note_on_c, 8, 67, 0
3, 44852, Note_on_c, 7, 58, 53
3, 44916, Note_on_c, 7, 58, 0
3, 44936, Note_on_c, 7, 63, 69
3, 45008, Note_on_c, 8, 64, 51
3, 45076, Note_on_c, 7, 63, 0
3, 45208, Note_on_c, 7, 58, 56
3, 45240, Note_on_c, 8, 64, 0
3, 45276, Note_on_c, 7, 58, 0
3, 45324, Note_on_c, 8, 61, 62
3, 45376, Note_on_c, 8, 60, 43
3, 45416, Note_on_c, 8, 61, 0
3, 45600, Note_on_c, 7, 58, 38
3, 45608, Note_on_c, 7, 52, 44
3, 45632, Note_on_c, 7, 58, 0
3, 45640, Note_on_c, 7, 52, 0
3, 45660, Note_on_c, 8, 60, 0
3, 45716, Note_on_c, 7, 58, 64
3, 45984, Note_on_c, 7, 58, 0
3, 46164, Note_on_c, 7, 56, 15
3, 46184, Note_on_c, 7, 55, 37
3, 46272, Note_on_c, 7, 55, 0
3, 46308, Note_on_c, 7, 56, 0
3, 46448, Note_on_c, 7, 56, 40
3, 46480, Note_on_c, 7, 56, 0
3, 46880, Note_on_c, 8, 63, 67
3, 46888, Note_on_c, 8, 60, 59
3, 46896, Note_on_c, 7, 56, 48
3, 46916, Note_on_c, 8, 63, 0
3, 46916, Note_on_c, 8, 60, 0
3, 46964, Note_on_c, 7, 56, 0
3, 47156, Note_on_c, 8, 71, 68
3, 47204, Note_on_c, 8, 71, 0
3, 47304, Note_on_c, 8, 72, 46
3, 47464, Note_on_c, 8, 72, 0
3, 47540, Note_on_c, 8, 73, 53
3, 47540, Note_on_c, 8, 63, 71
3, 47548, Note_on_c, 7, 58, 42
3, 47548, Note_on_c, 7, 59, 62
3, 47556, Note_on_c, 7, 54, 37
3, 47588, Note_on_c, 8, 63, 0
3, 47588, Note_on_c, 8, 74, 36
3, 47604, Note_on_c, 8, 73, 0
3, 47624, Note_on_c, 8, 74, 0
3, 47628, Note_on_c, 7, 54, 0
3, 47632, Note_on_c, 7, 59, 0
3, 47664, Note_on_c, 7, 58, 0
3, 47756, Note_on_c, 8, 78, 35
3, 47756, Note_on_c, 7, 66, 43
3, 47828, Note_on_c, 8, 79, 46
3, 47832, Note_on_c, 7, 66, 0
3, 47844, Note_on_c, 7, 67, 57
3, 47864, Note_on_c, 8, 78, 0
3, 47928, Note_on_c, 8, 79, 0
3, 47952, Note_on_c, 7, 67, 0
3, 47964, Note_on_c, 7, 59, 44
3, 47980, Note_on_c, 7, 54, 25
3, 47980, Note_on_c, 7, 58, 23
3, 48012, Note_on_c, 7, 59, 0
3, 48020, Note_on_c, 7, 58, 0
3, 48028, Note_on_c, 7, 54, 0
3, 48052, Note_on_c, 8, 78, 63
3, 48064, Note_on_c, 8, 66, 62
3, 48228, Note_on_c, 8, 78, 0
3, 48244, Note_on_c, 8, 66, 0
3, 48304, Note_on_c, 7, 59, 60
3, 48304, Note_on_c, 8, 77, 64
3, 48308, Note_on_c, 8, 65, 65
3, 48320, Note_on_c, 7, 58, 36
3, 48320, Note_on_c, 7, 63, 55
3, 48328, Note_on_c, 7, 53, 39
3, 48404, Control_c, 0, 64, 127
3, 48560, Note_on_c, 7, 59, 0
3, 48568, Note_on_c, 7, 58, 0
3, 48620, Note_on_c, 7, 53, 0
3, 48636, Note_on_c, 8, 65, 0
3, 48644, Note_on_c, 8, 77, 0
3, 48644, Note_on_c, 7, 63, 0
3, 48760, Control_c, 0, 64, 0
3, 48796, Note_on_c, 7, 63, 67
3, 48796, Note_on_c, 8, 66, 71
3, 48796, Note_on_c, 8, 78, 68
3, 48812, Note_on_c, 8, 73, 68
3, 48812, Note_on_c, 7, 59, 57
3, 48820, Note_on_c, 7, 58, 36
3, 48828, Note_on_c, 7, 53, 34
3, 48868, Note_on_c, 7, 53, 0
3, 48912, Control_c, 0, 64, 127
3, 48928, Note_on_c, 7, 59, 0
3, 48944, Note_on_c, 7, 63, 0
3, 48944, Note_on_c, 7, 58, 0
3, 49000, Note_on_c, 8, 73, 0
3, 49012, Note_on_c, 8, 66, 0
3, 49028, Note_on_c, 8, 78, 0
3, 49068, Note_on_c, 7, 61, 45
3, 49068, Note_on_c, 7, 65, 73
3, 49068, Note_on_c, 8, 79, 77
3, 49072, Note_on_c, 7, 55, 80
3, 49072, Control_c, 0, 64, 0
3, 49080, Note_on_c, 8, 74, 80
3, 49080, Note_on_c, 7, 67, 82
3, 49112, Note_on_c, 7, 61, 0
3, 49112, Note_on_c, 8, 77, 32
3, 49112, Note_on_c, 7, 62, 33
3, 49120, Note_on_c, 7, 60, 34
3, 49144, Note_on_c, 7, 60, 0
3, 49152, Note_on_c, 8, 77, 0
3, 49152, Note_on_c, 7, 62, 0
3, 49176, Note_on_c, 7, 65, 0
3, 49184, Note_on_c, 7, 67, 0
3, 49212, Note_on_c, 8, 74, 0
3, 49220, Note_on_c, 8, 79, 0
3, 49220, Note_on_c, 7, 55, 0
3, 50048, Control_c, 0, 64, 127
3, 50084, Control_c, 0, 64, 0
3, 50148, Control_c, 0, 64, 127
3, 50256, Control_c, 0, 64, 0
3, 50308, Note_on_c, 7, 51, 53
3, 50332, Note_on_c, 8, 76, 54
3, 50348, Note_on_c, 8, 70, 51
3, 50356, Note_on_c, 8, 64, 44
3, 50440, Note_on_c, 8, 64, 0
3, 50476, Note_on_c, 8, 70, 0
3, 50484, Note_on_c, 8, 76, 0
3, 50500, Note_on_c, 7, 51, 0
3, 50700, Note_on_c, 7, 50, 56
3, 50708, Note_on_c, 8, 77, 66
3, 50724, Note_on_c, 7, 57, 35
3, 50724, Note_on_c, 8, 65, 53
3, 50732, Note_on_c, 8, 72, 52
3, 50732, Note_on_c, 7, 60, 42
3, 50808, Note_on_c, 7, 50, 0
3, 50816, Note_on_c, 8, 77, 0
3, 50824, Note_on_c, 7, 57, 0
3, 50824, Note_on_c, 8, 72, 0
3, 50832, Note_on_c, 8, 65, 0
3, 50876, Note_on_c, 7, 60, 0
3, 51092, Note_on_c, 8, 76, 50
3, 51100, Note_on_c, 8, 71, 60
3, 51100, Note_on_c, 7, 64, 56
3, 51100, Note_on_c, 7, 53, 51
3, 51108, Note_on_c, 7, 59, 47
3, 51180, Note_on_c, 7, 64, 0
3, 51184, Note_on_c, 7, 53, 0
3, 51216, Note_on_c, 7, 59, 0
3, 51232, Note_on_c, 8, 76, 0
3, 51232, Note_on_c, 8, 71, 0
3, 51472, Note_on_c, 8, 77, 71
3, 51472, Note_on_c, 7, 64, 60
3, 51480, Note_on_c, 8, 71, 70
3, 51496, Control_c, 0, 64, 127
3, 51500, Note_on_c, 8, 65, 54
3, 51564, Note_on_c, 8, 77, 0
3, 51588, Note_on_c, 8, 71, 0
3, 51632, Note_on_c, 8, 65, 0
3, 51688, Note_on_c, 7, 64, 0
3, 51748, Control_c, 0, 64, 0
3, 51756, Note_on_c, 8, 74, 44
3, 51764, Note_on_c, 7, 64, 40
3, 51772, Note_on_c, 8, 68, 46
3, 51772, Note_on_c, 7, 59, 56
3, 51780, Note_on_c, 8, 71, 42
3, 51788, Note_on_c, 8, 70, 26
3, 51856, Note_on_c, 8, 71, 0
3, 51872, Note_on_c, 8, 74, 0
3, 51872, Note_on_c, 8, 68, 0
3, 51880, Note_on_c, 7, 64, 0
3, 51896, Note_on_c, 8, 70, 0
3, 52056, Note_on_c, 7, 58, 46
3, 52128, Note_on_c, 7, 58, 0
3, 52132, Note_on_c, 8, 75, 76
3, 52140, Note_on_c, 7, 63, 71
3, 52140, Note_on_c, 8, 67, 74
3, 52148, Note_on_c, 7, 60, 71
3, 52180, Note_on_c, 7, 59, 0
3, 52852, Control_c, 0, 64, 127
3, 52888, Note_on_c, 8, 67, 0
3, 52896, Note_on_c, 7, 63, 0
3, 52904, Note_on_c, 8, 75, 0
3, 52928, Note_on_c, 7, 60, 0
3, 52960, Control_c, 0, 64, 0
3, 53020, Note_on_c, 7, 63, 55
3, 53020, Note_on_c, 8, 74, 68
3, 53020, Note_on_c, 7, 62, 51
3, 53028, Note_on_c, 8, 67, 64
3, 53036, Note_on_c, 7, 58, 44
3, 53396, Control_c, 0, 64, 127
3, 53444, Note_on_c, 8, 67, 0
3, 53528, Note_on_c, 7, 63, 0
3, 53552, Note_on_c, 8, 74, 0
3, 53604, Note_on_c, 7, 62, 0
3, 53628, Note_on_c, 7, 58, 0
3, 53644, Control_c, 0, 64, 0
3, 53668, Note_on_c, 7, 63, 54
3, 53676, Note_on_c, 8, 72, 64
3, 53684, Note_on_c, 7, 66, 48
3, 53684, Note_on_c, 8, 69, 57
3, 53692, Note_on_c, 7, 57, 60
3, 53820, Note_on_c, 8, 72, 0
3, 53836, Note_on_c, 8, 69, 0
3, 53884, Note_on_c, 7, 63, 0
3, 53892, Control_c, 0, 64, 127
3, 53920, Note_on_c, 7, 66, 0
3, 53920, Note_on_c, 7, 56, 23
3, 53960, Note_on_c, 7, 57, 0
3, 53992, Note_on_c, 7, 56, 0
3, 54068, Note_on_c, 8, 69, 66
3, 54068, Note_on_c, 8, 63, 67
3, 54068, Note_on_c, 8, 66, 57
3, 54076, Note_on_c, 7, 60, 64
3, 54076, Control_c, 0, 64, 0
3, 54092, Note_on_c, 7, 56, 80
3, 54260, Note_on_c, 8, 69, 0
3, 54300, Note_on_c, 8, 63, 0
3, 54308, Note_on_c, 8, 66, 0
3, 54384, Note_on_c, 7, 60, 0
3, 54384, Note_on_c, 7, 56, 0
3, 54384, Note_on_c, 7, 55, 55
3, 54500, Note_on_c, 7, 55, 0
3, 54576, Note_on_c, 7, 54, 50
3, 54616, Note_on_c, 8, 66, 35
3, 54624, Note_on_c, 8, 63, 38
3, 54628, Note_on_c, 8, 60, 47
3, 54632, Note_on_c, 8, 57, 17
3, 54636, Note_on_c, 7, 54, 0
3, 54652, Note_on_c, 7, 53, 55
3, 54824, Note_on_c, 8, 63, 0
3, 54852, Note_on_c, 8, 60, 0
3, 54884, Note_on_c, 8, 57, 0
3, 54940, Note_on_c, 8, 63, 38
3, 54944, Note_on_c, 7, 51, 51
3, 54948, Note_on_c, 8, 66, 0
3, 54976, Note_on_c, 7, 53, 0
3, 54984, Note_on_c, 8, 57, 36
3, 55032, Control_c, 0, 64, 127
3, 55108, Note_on_c, 8, 57, 0
3, 55156, Note_on_c, 8, 63, 0
3, 55176, Note_on_c, 7, 51, 0
3, 55216, Control_c, 0, 64, 0
3, 55224, Note_on_c, 8, 58, 59
3, 55232, Note_on_c, 7, 55, 63
3, 55240, Note_on_c, 7, 46, 50
3, 55276, Note_on_c, 7, 55, 0
3, 55284, Note_on_c, 8, 58, 0
3, 55292, Note_on_c, 7, 46, 0
3, 55608, Note_on_c, 8, 72, 72
3, 55656, Note_on_c, 8, 74, 22
3, 55672, Note_on_c, 8, 70, 57
3, 55708, Note_on_c, 8, 74, 0
3, 55716, Note_on_c, 8, 72, 0
3, 55816, Note_on_c, 8, 70, 0
3, 55824, Note_on_c, 8, 69, 22
3, 56008, Note_on_c, 8, 69, 0
3, 56008, Note_on_c, 8, 65, 47
3, 56008, Note_on_c, 8, 70, 70
3, 56040, Note_on_c, 8, 65, 0
3, 56108, Note_on_c, 8, 70, 0
3, 56208, Note_on_c, 8, 72, 42
3, 56340, Note_on_c, 8, 72, 0
3, 56380, Note_on_c, 8, 74, 69
3, 56412, Note_on_c, 7, 60, 24
3, 56456, Note_on_c, 7, 60, 0
3, 56464, Note_on_c, 8, 74, 0
3, 56540, Note_on_c, 8, 75, 49
3, 56656, Note_on_c, 8, 75, 0
3, 56748, Note_on_c, 8, 76, 71
3, 56780, Note_on_c, 7, 62, 61
3, 56780, Note_on_c, 7, 58, 45
3, 56804, Note_on_c, 7, 62, 0
3, 56812, Note_on_c, 7, 52, 32
3, 56840, Note_on_c, 7, 58, 0
3, 56848, Note_on_c, 8, 76, 0
3, 56848, Note_on_c, 7, 52, 0
3, 56964, Note_on_c, 8, 66, 54
3, 56972, Note_on_c, 8, 78, 49
3, 57036, Note_on_c, 8, 78, 0
3, 57044, Note_on_c, 8, 66, 0
3, 57056, Note_on_c, 8, 79, 45
3, 57072, Note_on_c, 8, 77, 29
3, 57080, Note_on_c, 8, 67, 32
3, 57156, Note_on_c, 8, 79, 0
3, 57172, Note_on_c, 8, 67, 0
3, 57196, Note_on_c, 8, 77, 0
3, 57252, Note_on_c, 8, 79, 51
3, 57264, Note_on_c, 8, 67, 54
3, 57296, Note_on_c, 8, 77, 38
3, 57352, Note_on_c, 8, 79, 0
3, 57372, Note_on_c, 8, 67, 0
3, 57396, Note_on_c, 8, 77, 0
3, 57488, Note_on_c, 8, 78, 58
3, 57496, Note_on_c, 7, 66, 60
3, 57496, Note_on_c, 7, 57, 48
3, 57504, Note_on_c, 7, 58, 37
3, 57504, Note_on_c, 7, 62, 41
3, 57536, Note_on_c, 7, 57, 0
3, 57536, Note_on_c, 7, 62, 0
3, 57544, Note_on_c, 7, 58, 0
3, 57620, Note_on_c, 8, 78, 0
3, 57636, Note_on_c, 7, 66, 0
3, 57720, Note_on_c, 8, 79, 60
3, 57736, Note_on_c, 7, 67, 49
3, 57804, Note_on_c, 7, 67, 0
3, 57860, Note_on_c, 8, 79, 0
3, 57928, Note_on_c, 8, 72, 49
3, 57952, Note_on_c, 8, 72, 0
3, 58260, Note_on_c, 7, 63, 56
3, 58260, Note_on_c, 7, 67, 67
3, 58268, Note_on_c, 7, 60, 51
3, 58292, Note_on_c, 7, 67, 0
3, 58296, Note_on_c, 7, 60, 0
3, 58344, Note_on_c, 7, 63, 0
3, 58628, Note_on_c, 8, 70, 57
3, 58684, Note_on_c, 7, 68, 55
3, 58736, Note_on_c, 8, 70, 0
3, 58776, Note_on_c, 7, 68, 0
3, 58816, Note_on_c, 7, 67, 36
3, 58984, Note_on_c, 7, 67, 0
3, 59052, Note_on_c, 7, 63, 47
3, 59052, Note_on_c, 7, 67, 57
3, 59060, Note_on_c, 8, 68, 60
3, 59060, Note_on_c, 7, 60, 45
3, 59076, Note_on_c, 7, 67, 0
3, 59092, Note_on_c, 7, 60, 0
3, 59116, Note_on_c, 7, 63, 0
3, 59160, Note_on_c, 8, 68, 0
3, 59184, Control_c, 0, 64, 127
3, 59224, Note_on_c, 8, 70, 37
3, 59384, Note_on_c, 8, 70, 0
3, 59432, Note_on_c, 8, 72, 75
3, 59436, Note_on_c, 7, 63, 46
3, 59436, Note_on_c, 7, 67, 63
3, 59448, Note_on_c, 7, 60, 31
3, 59468, Note_on_c, 7, 67, 0
3, 59484, Control_c, 0, 64, 0
3, 59492, Note_on_c, 7, 63, 0
3, 59492, Note_on_c, 7, 60, 0
3, 59500, Note_on_c, 8, 72, 0
3, 59560, Note_on_c, 7, 63, 46
3, 59568, Note_on_c, 7, 60, 56
3, 59568, Note_on_c, 7, 67, 53
3, 59576, Note_on_c, 8, 73, 69
3, 59576, Note_on_c, 7, 56, 39
3, 59632, Control_c, 0, 64, 127
3, 59648, Note_on_c, 7, 67, 0
3, 59700, Note_on_c, 7, 56, 0
3, 59716, Note_on_c, 7, 63, 0
3, 59724, Note_on_c, 8, 73, 0
3, 59732, Note_on_c, 7, 60, 0
3, 59792, Note_on_c, 7, 63, 39
3, 59800, Note_on_c, 7, 67, 48
3, 59816, Note_on_c, 8, 74, 68
3, 59816, Note_on_c, 7, 60, 38
3, 59832, Note_on_c, 7, 67, 0
3, 59872, Control_c, 0, 64, 0
3, 59884, Note_on_c, 8, 74, 0
3, 59892, Note_on_c, 7, 60, 0
3, 59900, Note_on_c, 7, 63, 0
3, 59940, Note_on_c, 7, 66, 63
3, 59940, Note_on_c, 7, 56, 50
3, 59948, Note_on_c, 8, 77, 74
3, 59948, Note_on_c, 7, 62, 60
3, 60032, Control_c, 0, 64, 127
3, 60108, Note_on_c, 7, 56, 0
3, 60116, Note_on_c, 7, 66, 0
3, 60148, Note_on_c, 7, 62, 0
3, 60156, Note_on_c, 8, 77, 0
3, 60200, Note_on_c, 7, 66, 67
3, 60200, Note_on_c, 8, 79, 80
3, 60216, Note_on_c, 7, 62, 65
3, 60216, Note_on_c, 7, 56, 43
3, 60224, Control_c, 0, 64, 0
3, 60232, Note_on_c, 7, 60, 41
3, 60248, Note_on_c, 7, 62, 0
3, 60256, Note_on_c, 7, 56, 0
3, 60256, Note_on_c, 7, 60, 0
3, 60260, Note_on_c, 7, 66, 0
3, 60300, Note_on_c, 8, 79, 0
3, 60324, Note_on_c, 7, 66, 52
3, 60332, Note_on_c, 7, 56, 35
3, 60340, Note_on_c, 7, 62, 44
3, 60348, Note_on_c, 8, 77, 49
3, 60348, Note_on_c, 7, 60, 31
3, 60480, Note_on_c, 7, 56, 0
3, 60488, Note_on_c, 7, 60, 0
3, 60500, Note_on_c, 7, 66, 0
3, 60500, Control_c, 0, 64, 127
3, 60524, Note_on_c, 7, 62, 0
3, 60556, Note_on_c, 8, 77, 0
3, 60600, Note_on_c, 7, 66, 55
3, 60600, Note_on_c, 8, 79, 59
3, 60608, Note_on_c, 7, 56, 32
3, 60608, Note_on_c, 7, 62, 54
3, 60632, Note_on_c, 7, 66, 0
3, 60632, Note_on_c, 7, 60, 26
3, 60636, Note_on_c, 7, 62, 0
3, 60640, Control_c, 0, 64, 0
3, 60648, Note_on_c, 7, 56, 0
3, 60656, Note_on_c, 8, 79, 0
3, 60664, Note_on_c, 7, 60, 0
3, 60756, Note_on_c, 7, 66, 55
3, 60764, Note_on_c, 7, 62, 47
3, 60764, Note_on_c, 7, 56, 35
3, 60772, Note_on_c, 7, 60, 28
3, 60788, Note_on_c, 8, 82, 39
3, 60804, Note_on_c, 8, 70, 21
3, 60808, Note_on_c, 7, 66, 0
3, 60808, Note_on_c, 7, 62, 0
3, 60808, Note_on_c, 7, 60, 0
3, 60848, Note_on_c, 8, 70, 0
3, 60856, Note_on_c, 7, 56, 0
3, 60864, Note_on_c, 8, 82, 0
3, 61088, Note_on_c, 7, 66, 61
3, 61088, Note_on_c, 7, 56, 56
3, 61096, Note_on_c, 8, 84, 73
3, 61096, Note_on_c, 7, 62, 49
3, 61124, Note_on_c, 8, 72, 59
3, 61132, Control_c, 0, 64, 127
3, 61220, Note_on_c, 8, 84, 0
3, 61248, Note_on_c, 8, 72, 0
3, 61256, Note_on_c, 7, 62, 0
3, 61264, Note_on_c, 7, 66, 0
3, 61296, Note_on_c, 7, 56, 0
3, 61356, Control_c, 0, 64, 0
3, 61364, Note_on_c, 8, 82, 77
3, 61372, Note_on_c, 8, 70, 69
3, 61396, Note_on_c, 7, 62, 27
3, 61456, Note_on_c, 7, 62, 0
3, 61572, Control_c, 0, 64, 127
3, 61580, Note_on_c, 8, 70, 0
3, 61588, Note_on_c, 8, 82, 0
3, 61712, Control_c, 0, 64, 0
3, 61720, Note_on_c, 7, 62, 66
3, 61728, Note_on_c, 7, 60, 57
3, 61736, Note_on_c, 7, 65, 51
3, 61756, Note_on_c, 7, 62, 0
3, 61756, Note_on_c, 7, 60, 0
3, 61756, Note_on_c, 8, 84, 61
3, 61764, Note_on_c, 7, 65, 0
3, 61772, Note_on_c, 8, 72, 35
3, 61832, Note_on_c, 8, 84, 0
3, 61832, Note_on_c, 8, 72, 0
3, 62276, Control_c, 0, 64, 127
3, 62496, Note_on_c, 8, 70, 75
3, 62496, Note_on_c, 8, 82, 70
3, 62512, Note_on_c, 7, 65, 73
3, 62512, Note_on_c, 7, 62, 66
3, 62516, Note_on_c, 7, 60, 57
3, 62528, Control_c, 0, 64, 0
3, 62536, Note_on_c, 7, 65, 0
3, 62536, Note_on_c, 7, 62, 0
3, 62536, Note_on_c, 7, 55, 34
3, 62540, Note_on_c, 7, 58, 23
3, 62552, Note_on_c, 8, 70, 0
3, 62552, Note_on_c, 7, 60, 0
3, 62568, Note_on_c, 7, 58, 0
3, 62572, Note_on_c, 8, 82, 0
3, 62572, Note_on_c, 7, 55, 0
3, 62876, Note_on_c, 8, 84, 87
3, 62876, Note_on_c, 7, 62, 71
3, 62884, Note_on_c, 7, 65, 70
3, 62888, Note_on_c, 8, 72, 67
3, 62892, Note_on_c, 7, 60, 50
3, 62912, Note_on_c, 7, 62, 0
3, 62912, Note_on_c, 7, 65, 0
3, 62912, Note_on_c, 7, 55, 29
3, 62920, Note_on_c, 8, 72, 0
3, 62920, Note_on_c, 7, 60, 0
3, 62944, Note_on_c, 8, 84, 0
3, 62944, Note_on_c, 7, 55, 0
3, 63260, Note_on_c, 7, 62, 73
3, 63268, Note_on_c, 7, 65, 72
3, 63268, Note_on_c, 7, 60, 60
3, 63272, Note_on_c, 8, 84, 80
3, 63276, Note_on_c, 8, 72, 79
3, 63284, Note_on_c, 7, 55, 36
3, 63284, Note_on_c, 7, 58, 32
3, 63292, Note_on_c, 7, 60, 0
3, 63296, Note_on_c, 7, 65, 0
3, 63308, Note_on_c, 7, 62, 0
3, 63320, Note_on_c, 8, 72, 0
3, 63320, Note_on_c, 7, 55, 0
3, 63320, Note_on_c, 7, 58, 0
3, 63336, Note_on_c, 8, 84, 0
3, 63644, Note_on_c, 7, 70, 71
3, 63644, Note_on_c, 8, 82, 63
3, 63644, Note_on_c, 7, 62, 74
3, 63652, Note_on_c, 7, 60, 58
3, 63660, Note_on_c, 7, 65, 49
3, 63676, Note_on_c, 7, 62, 0
3, 63676, Note_on_c, 7, 60, 0
3, 63684, Note_on_c, 8, 82, 0
3, 63692, Note_on_c, 7, 70, 0
3, 63692, Note_on_c, 7, 65, 0
3, 63752, Note_on_c, 7, 62, 60
3, 63760, Note_on_c, 7, 55, 51
3, 63768, Note_on_c, 7, 60, 49
3, 63768, Note_on_c, 7, 65, 44
3, 63772, Note_on_c, 8, 84, 79
3, 63772, Note_on_c, 8, 72, 64
3, 63784, Control_c, 0, 64, 127
3, 63800, Note_on_c, 7, 60, 0
3, 63800, Note_on_c, 7, 65, 0
3, 63816, Note_on_c, 7, 55, 0
3, 63832, Note_on_c, 7, 62, 0
3, 63844, Note_on_c, 8, 72, 0
3, 63868, Note_on_c, 8, 84, 0
3, 64024, Note_on_c, 7, 62, 73
3, 64024, Note_on_c, 8, 86, 72
3, 64032, Note_on_c, 8, 74, 79
3, 64036, Note_on_c, 7, 65, 57
3, 64040, Note_on_c, 7, 60, 40
3, 64052, Note_on_c, 8, 85, 47
3, 64056, Note_on_c, 7, 55, 24
3, 64068, Note_on_c, 7, 62, 0
3, 64068, Note_on_c, 8, 74, 0
3, 64068, Note_on_c, 7, 65, 0
3, 64068, Control_c, 0, 64, 0
3, 64076, Note_on_c, 8, 86, 0
3, 64076, Note_on_c, 7, 60, 0
3, 64076, Note_on_c, 8, 85, 0
3, 64084, Note_on_c, 7, 55, 0
3, 64136, Note_on_c, 7, 62, 64
3, 64140, Note_on_c, 7, 55, 58
3, 64168, Note_on_c, 7, 60, 31
3, 64176, Note_on_c, 8, 72, 46
3, 64248, Control_c, 0, 64, 127
3, 64308, Note_on_c, 7, 62, 0
3, 64392, Note_on_c, 8, 72, 0
3, 64400, Note_on_c, 7, 55, 0
3, 64456, Note_on_c, 7, 60, 0
3, 64476, Control_c, 0, 64, 0
3, 64532, Note_on_c, 7, 60, 65
3, 64540, Note_on_c, 7, 65, 73
3, 64540, Note_on_c, 8, 84, 85
3, 64544, Note_on_c, 7, 61, 63
3, 64548, Note_on_c, 8, 72, 80
3, 64552, Note_on_c, 7, 56, 52
3, 64648, Control_c, 0, 64, 127
3, 64676, Control_c, 0, 64, 0
3, 64716, Note_on_c, 8, 84, 0
3, 64732, Control_c, 0, 64, 127
3, 64748, Note_on_c, 8, 72, 0
3, 64800, Note_on_c, 8, 82, 74
3, 64824, Control_c, 0, 64, 0
3, 64924, Note_on_c, 8, 82, 0
3, 64948, Note_on_c, 7, 65, 0
3, 65000, Note_on_c, 8, 77, 44
3, 65072, Note_on_c, 7, 56, 0
3, 65088, Note_on_c, 7, 60, 0
3, 65124, Note_on_c, 7, 61, 0
3, 65132, Note_on_c, 8, 77, 0
3, 65188, Note_on_c, 7, 61, 59
3, 65192, Note_on_c, 8, 73, 73
3, 65192, Note_on_c, 7, 65, 63
3, 65200, Note_on_c, 7, 56, 40
3, 65224, Note_on_c, 7, 65, 0
3, 65272, Note_on_c, 8, 73, 0
3, 65288, Note_on_c, 7, 56, 0
3, 65316, Note_on_c, 7, 61, 0
3, 65364, Note_on_c, 8, 72, 38
3, 65572, Note_on_c, 8, 72, 0
3, 65580, Note_on_c, 7, 61, 60
3, 65580, Note_on_c, 7, 56, 59
3, 65584, Note_on_c, 7, 65, 59
3, 65680, Note_on_c, 7, 65, 0
3, 65740, Note_on_c, 8, 68, 35
3, 65948, Note_on_c, 8, 68, 0
3, 66020, Note_on_c, 7, 56, 0
3, 66048, Note_on_c, 7, 61, 0
3, 66080, Note_on_c, 7, 55, 57
3, 66088, Note_on_c, 7, 61, 30
3, 66096, Note_on_c, 7, 65, 46
3, 66104, Note_on_c, 8, 70, 73
3, 66356, Note_on_c, 7, 65, 0
3, 66356, Note_on_c, 8, 70, 0
3, 66364, Note_on_c, 8, 67, 38
3, 66404, Note_on_c, 8, 67, 0
3, 66440, Note_on_c, 7, 61, 0
3, 66480, Note_on_c, 8, 68, 59
3, 66520, Control_c, 0, 64, 127
3, 66536, Note_on_c, 7, 55, 0
3, 66688, Note_on_c, 8, 68, 0
3, 66736, Note_on_c, 8, 70, 52
3, 66752, Note_on_c, 7, 61, 42
3, 66760, Note_on_c, 7, 55, 45
3, 66764, Control_c, 0, 64, 0
3, 66796, Note_on_c, 8, 70, 0
3, 66796, Note_on_c, 7, 55, 0
3, 66820, Note_on_c, 7, 61, 0
3, 66904, Control_c, 0, 64, 127
3, 66904, Note_on_c, 8, 72, 31
3, 67028, Note_on_c, 8, 72, 0
3, 67136, Control_c, 0, 64, 0
3, 67236, Control_c, 0, 64, 127
3, 67552, Control_c, 0, 64, 0
3, 67668, Control_c, 0, 64, 127
3, 67944, Control_c, 0, 64, 0
3, 68052, Control_c, 0, 64, 127
3, 68260, Note_on_c, 7, 63, 58
3, 68276, Note_on_c, 7, 60, 48
3, 68292, Note_on_c, 7, 56, 35
3, 68300, Note_on_c, 7, 63, 0
3, 68300, Note_on_c, 7, 60, 0
3, 68352, Control_c, 0, 64, 0
3, 68392, Note_on_c, 7, 67, 37
3, 68400, Note_on_c, 7, 56, 0
3, 68492, Note_on_c, 7, 68, 25
3, 68516, Note_on_c, 7, 67, 0
3, 68568, Note_on_c, 8, 72, 50
3, 68576, Note_on_c, 7, 68, 0
3, 68668, Note_on_c, 8, 75, 71
3, 68676, Note_on_c, 8, 72, 0
3, 68716, Note_on_c, 7, 59, 27
3, 68744, Note_on_c, 8, 75, 0
3, 68768, Note_on_c, 7, 59, 0
3, 68768, Note_on_c, 8, 71, 61
3, 68876, Note_on_c, 8, 71, 0
3, 68884, Note_on_c, 8, 72, 57
3, 68968, Note_on_c, 8, 76, 59
3, 68992, Note_on_c, 8, 72, 0
3, 69000, Control_c, 0, 64, 127
3, 69056, Note_on_c, 8, 79, 57
3, 69084, Note_on_c, 8, 76, 0
3, 69084, Control_c, 0, 64, 0
3, 69100, Note_on_c, 8, 79, 0
3, 69156, Note_on_c, 8, 75, 59
3, 69240, Control_c, 0, 64, 127
3, 69256, Note_on_c, 8, 75, 0
3, 69284, Note_on_c, 8, 76, 27
3, 69332, Note_on_c, 8, 80, 46
3, 69340, Note_on_c, 8, 76, 0
3, 69448, Note_on_c, 8, 83, 68
3, 69472, Note_on_c, 8, 80, 0
3, 69476, Control_c, 0, 64, 0
3, 69480, Note_on_c, 7, 53, 48
3, 69492, Note_on_c, 7, 64, 42
3, 69500, Note_on_c, 7, 59, 43
3, 69532, Note_on_c, 8, 83, 0
3, 69592, Note_on_c, 8, 77, 25
3, 69632, Control_c, 0, 64, 127
3, 69640, Note_on_c, 7, 53, 0
3, 69664, Note_on_c, 8, 77, 0
3, 69708, Note_on_c, 7, 59, 0
3, 69740, Note_on_c, 7, 64, 0
3, 69832, Note_on_c, 7, 60, 79
3, 69832, Note_on_c, 7, 65, 82
3, 69832, Control_c, 0, 64, 0
3, 69836, Note_on_c, 7, 54, 74
3, 69940, Note_on_c, 7, 54, 0
3, 70024, Note_on_c, 8, 79, 34
3, 70096, Note_on_c, 7, 60, 0
3, 70132, Note_on_c, 7, 65, 0
3, 70140, Note_on_c, 8, 79, 0
3, 70164, Control_c, 0, 64, 127
3, 70196, Note_on_c, 8, 80, 71
3, 70216, Note_on_c, 7, 65, 39
3, 70220, Note_on_c, 7, 60, 40
3, 70232, Control_c, 0, 64, 0
3, 70248, Note_on_c, 7, 65, 0
3, 70280, Note_on_c, 7, 60, 0
3, 70296, Note_on_c, 8, 80, 0
3, 70372, Note_on_c, 8, 84, 55
3, 70412, Control_c, 0, 64, 127
3, 70480, Note_on_c, 8, 84, 0
3, 70556, Note_on_c, 7, 63, 62
3, 70572, Note_on_c, 8, 86, 68
3, 70572, Note_on_c, 7, 59, 58
3, 70580, Note_on_c, 7, 58, 38
3, 70580, Note_on_c, 7, 54, 37
3, 70612, Note_on_c, 7, 63, 0
3, 70628, Note_on_c, 8, 86, 0
3, 70640, Control_c, 0, 64, 0
3, 70648, Note_on_c, 7, 54, 0
3, 70680, Note_on_c, 7, 59, 0
3, 70740, Note_on_c, 7, 58, 0
3, 70756, Note_on_c, 8, 78, 40
3, 70772, Note_on_c, 8, 90, 36
3, 70872, Note_on_c, 8, 78, 0
3, 70880, Note_on_c, 8, 90, 0
3, 70944, Note_on_c, 7, 59, 51
3, 70956, Note_on_c, 8, 92, 73
3, 70956, Note_on_c, 8, 80, 34
3, 70972, Note_on_c, 8, 82, 36
3, 70972, Note_on_c, 7, 58, 26
3, 71004, Note_on_c, 8, 82, 0
3, 71036, Note_on_c, 8, 80, 0
3, 71052, Note_on_c, 8, 92, 0
3, 71064, Note_on_c, 7, 58, 0
3, 71072, Note_on_c, 7, 59, 0
3, 71120, Note_on_c, 8, 92, 49
3, 71144, Note_on_c, 8, 80, 35
3, 71220, Note_on_c, 8, 80, 0
3, 71244, Note_on_c, 8, 92, 0
3, 71320, Note_on_c, 7, 63, 46
3, 71336, Note_on_c, 8, 90, 47
3, 71344, Note_on_c, 7, 59, 47
3, 71344, Note_on_c, 8, 78, 35
3, 71348, Note_on_c, 7, 58, 36
3, 71352, Note_on_c, 7, 63, 0
3, 71380, Note_on_c, 8, 78, 0
3, 71404, Note_on_c, 8, 90, 0
3, 71432, Note_on_c, 7, 59, 0
3, 71472, Note_on_c, 7, 58, 0
3, 71512, Note_on_c, 8, 80, 45
3, 71512, Note_on_c, 8, 92, 40
3, 71576, Note_on_c, 8, 80, 0
3, 71596, Note_on_c, 8, 92, 0
3, 71704, Note_on_c, 8, 82, 60
3, 71704, Note_on_c, 8, 94, 69
3, 71712, Note_on_c, 7, 54, 55
3, 71712, Note_on_c, 7, 63, 46
3, 71716, Note_on_c, 7, 59, 54
3, 71720, Note_on_c, 7, 58, 36
3, 71776, Note_on_c, 8, 94, 0
3, 71780, Note_on_c, 8, 82, 0
3, 71788, Note_on_c, 7, 63, 0
3, 71868, Note_on_c, 8, 80, 31
3, 71904, Note_on_c, 8, 92, 25
3, 71944, Note_on_c, 8, 92, 0
3, 71952, Note_on_c, 7, 54, 0
3, 71960, Note_on_c, 8, 80, 0
3, 71984, Note_on_c, 7, 58, 0
3, 71996, Note_on_c, 7, 59, 0
3, 72084, Note_on_c, 7, 59, 66
3, 72096, Note_on_c, 7, 63, 64
3, 72104, Note_on_c, 7, 58, 34
3, 72112, Note_on_c, 8, 82, 57
3, 72112, Note_on_c, 7, 53, 55
3, 72120, Note_on_c, 8, 94, 53
3, 72144, Note_on_c, 8, 82, 0
3, 72144, Note_on_c, 8, 94, 0
3, 72660, Control_c, 0, 64, 127
3, 72676, Control_c, 0, 64, 0
3, 72720, Note_on_c, 7, 53, 0
3, 72728, Note_on_c, 7, 63, 0
3, 72736, Note_on_c, 7, 58, 0
3, 72736, Control_c, 0, 64, 127
3, 72744, Note_on_c, 7, 59, 0
3, 72876, Note_on_c, 7, 63, 53
3, 72884, Note_on_c, 7, 59, 54
3, 72892, Note_on_c, 7, 58, 34
3, 72924, Control_c, 0, 64, 0
3, 72932, Note_on_c, 7, 63, 0
3, 73000, Note_on_c, 8, 79, 73
3, 73092, Note_on_c, 7, 59, 0
3, 73116, Note_on_c, 7, 58, 0
3, 73120, Note_on_c, 8, 79, 0
3, 73120, Note_on_c, 8, 77, 50
3, 73192, Note_on_c, 8, 77, 0
3, 73208, Note_on_c, 8, 74, 55
3, 73224, Note_on_c, 7, 58, 29
3, 73260, Note_on_c, 8, 74, 0
3, 73284, Note_on_c, 8, 72, 66
3, 73316, Note_on_c, 8, 72, 0
3, 73384, Note_on_c, 7, 58, 0
3, 73384, Note_on_c, 8, 84, 74
3, 73492, Note_on_c, 8, 82, 45
3, 73500, Note_on_c, 8, 84, 0
3, 73576, Note_on_c, 8, 79, 42
3, 73632, Note_on_c, 8, 82, 0
3, 73632, Note_on_c, 8, 79, 0
3, 73668, Note_on_c, 8, 77, 61
3, 73700, Note_on_c, 8, 77, 0
3, 73700, Note_on_c, 7, 62, 39
3, 73776, Note_on_c, 8, 91, 71
3, 73792, Note_on_c, 7, 62, 0
3, 73876, Note_on_c, 8, 89, 47
3, 73908, Note_on_c, 8, 91, 0
3, 73964, Note_on_c, 8, 86, 47
3, 74008, Note_on_c, 8, 89, 0
3, 74032, Note_on_c, 8, 86, 0
3, 74056, Note_on_c, 8, 84, 74
3, 74108, Note_on_c, 8, 84, 0
3, 74148, Note_on_c, 8, 96, 79
3, 74264, Note_on_c, 8, 94, 53
3, 74300, Note_on_c, 8, 90, 29
3, 74316, Note_on_c, 8, 96, 0
3, 74332, Note_on_c, 8, 90, 0
3, 74372, Note_on_c, 8, 91, 38
3, 74416, Note_on_c, 8, 94, 0
3, 74416, Note_on_c, 8, 91, 0
3, 74440, Note_on_c, 8, 89, 63
3, 74464, Note_on_c, 8, 89, 0
3, 74540, Note_on_c, 8, 108, 72
3, 74564, Note_on_c, 8, 108, 0
3, 74940, Note_on_c, 7, 62, 55
3, 74940, Note_on_c, 7, 65, 74
3, 74948, Note_on_c, 7, 60, 46
3, 74972, Note_on_c, 7, 65, 0
3, 74980, Note_on_c, 7, 62, 0
3, 74980, Note_on_c, 7, 60, 0
3, 75304, Note_on_c, 7, 62, 58
3, 75304, Note_on_c, 7, 65, 76
3, 75312, Note_on_c, 7, 60, 58
3, 75312, Note_on_c, 7, 55, 65
3, 75380, Note_on_c, 7, 65, 0
3, 75388, Note_on_c, 7, 62, 0
3, 75396, Note_on_c, 7, 60, 0
3, 75396, Note_on_c, 7, 55, 0
3, 75936, Note_on_c, 7, 62, 62
3, 75936, Note_on_c, 7, 60, 65
3, 75944, Note_on_c, 7, 65, 66
3, 75972, Note_on_c, 7, 65, 0
3, 76004, Note_on_c, 7, 62, 0
3, 76012, Note_on_c, 7, 60, 0
3, 76328, Note_on_c, 8, 84, 88
3, 76328, Note_on_c, 8, 96, 88
3, 76336, Note_on_c, 8, 98, 58
3, 76360, Note_on_c, 8, 98, 0
3, 76428, Note_on_c, 8, 96, 0
3, 76484, Note_on_c, 8, 92, 33
3, 76504, Note_on_c, 8, 84, 0
3, 76620, Note_on_c, 8, 92, 0
3, 76628, Note_on_c, 8, 93, 60
3, 76676, Note_on_c, 8, 93, 0
3, 76728, Note_on_c, 8, 96, 82
3, 76736, Note_on_c, 7, 62, 60
3, 76736, Note_on_c, 7, 57, 58
3, 76740, Note_on_c, 7, 58, 53
3, 76760, Note_on_c, 7, 57, 0
3, 76760, Note_on_c, 8, 84, 76
3, 76768, Note_on_c, 7, 62, 0
3, 76792, Note_on_c, 7, 58, 0
3, 76836, Note_on_c, 8, 96, 0
3, 76892, Note_on_c, 8, 84, 0
3, 76912, Note_on_c, 8, 92, 28
3, 76992, Note_on_c, 8, 92, 0
3, 77028, Note_on_c, 8, 93, 50
3, 77068, Note_on_c, 8, 93, 0
3, 77128, Note_on_c, 8, 96, 78
3, 77136, Note_on_c, 8, 84, 68
3, 77168, Note_on_c, 7, 58, 28
3, 77200, Note_on_c, 7, 58, 0
3, 77208, Note_on_c, 8, 96, 0
3, 77268, Note_on_c, 8, 84, 0
3, 77308, Note_on_c, 8, 92, 31
3, 77384, Note_on_c, 8, 92, 0
3, 77408, Note_on_c, 8, 93, 48
3, 77476, Note_on_c, 8, 93, 0
3, 77524, Note_on_c, 8, 96, 80
3, 77544, Note_on_c, 8, 84, 33
3, 77544, Note_on_c, 7, 58, 37
3, 77560, Note_on_c, 7, 62, 24
3, 77576, Note_on_c, 8, 84, 0
3, 77584, Note_on_c, 7, 62, 0
3, 77600, Note_on_c, 7, 58, 0
3, 77608, Note_on_c, 8, 96, 0
3, 77668, Note_on_c, 8, 94, 68
3, 77808, Note_on_c, 8, 94, 0
3, 77892, Note_on_c, 7, 58, 49
3, 77924, Note_on_c, 7, 58, 0
3, 78240, Note_on_c, 7, 63, 46
3, 78240, Note_on_c, 7, 58, 53
3, 78264, Note_on_c, 7, 63, 0
3, 78392, Note_on_c, 7, 58, 0
3, 78400, Note_on_c, 8, 94, 56
3, 78424, Note_on_c, 8, 94, 0
3, 78476, Note_on_c, 8, 98, 72
3, 78532, Note_on_c, 8, 94, 67
3, 78608, Note_on_c, 8, 98, 0
3, 78624, Note_on_c, 8, 91, 62
3, 78664, Note_on_c, 8, 94, 0
3, 78672, Note_on_c, 7, 58, 39
3, 78700, Note_on_c, 8, 91, 0
3, 78708, Note_on_c, 8, 88, 65
3, 78772, Note_on_c, 7, 58, 0
3, 78784, Note_on_c, 8, 88, 0
3, 78840, Note_on_c, 8, 87, 73
3, 78924, Note_on_c, 8, 87, 0
3, 79032, Note_on_c, 8, 86, 83
3, 79048, Note_on_c, 7, 63, 53
3, 79056, Note_on_c, 7, 58, 43
3, 79096, Note_on_c, 7, 63, 0
3, 79132, Note_on_c, 8, 86, 0
3, 79164, Note_on_c, 7, 58, 0
3, 79208, Note_on_c, 8, 85, 62
3, 79356, Note_on_c, 8, 85, 0
3, 79404, Note_on_c, 8, 84, 74
3, 79408, Note_on_c, 7, 63, 72
3, 79464, Note_on_c, 7, 63, 0
3, 79488, Note_on_c, 8, 84, 0
3, 79588, Note_on_c, 8, 82, 49
3, 79748, Note_on_c, 8, 82, 0
3, 79788, Note_on_c, 8, 80, 67
3, 79796, Note_on_c, 7, 67, 64
3, 79796, Note_on_c, 7, 63, 54
3, 79820, Note_on_c, 7, 57, 60
3, 79824, Note_on_c, 7, 67, 0
3, 79840, Note_on_c, 7, 57, 0
3, 79864, Note_on_c, 8, 80, 0
3, 79872, Note_on_c, 7, 63, 0
3, 79948, Note_on_c, 8, 79, 31
3, 80120, Note_on_c, 8, 79, 0
3, 80144, Note_on_c, 7, 63, 44
3, 80164, Note_on_c, 7, 67, 28
3, 80164, Note_on_c, 8, 77, 68
3, 80188, Note_on_c, 7, 67, 0
3, 80220, Note_on_c, 7, 63, 0
3, 80244, Note_on_c, 8, 77, 0
3, 80304, Note_on_c, 8, 75, 32
3, 80512, Note_on_c, 8, 75, 0
3, 80536, Note_on_c, 8, 71, 42
3, 80564, Note_on_c, 7, 63, 34
3, 80572, Note_on_c, 8, 71, 0
3, 80628, Note_on_c, 7, 63, 0
3, 80664, Note_on_c, 8, 79, 87
3, 80788, Note_on_c, 8, 75, 60
3, 80812, Note_on_c, 8, 79, 0
3, 80896, Note_on_c, 8, 75, 0
3, 80920, Note_on_c, 8, 72, 58
3, 80928, Note_on_c, 7, 63, 42
3, 80960, Note_on_c, 7, 63, 0
3, 80996, Note_on_c, 8, 72, 0
3, 81036, Note_on_c, 8, 69, 51
3, 81136, Note_on_c, 8, 69, 0
3, 81700, Note_on_c, 7, 63, 53
3, 81712, Note_on_c, 8, 67, 44
3, 81744, Note_on_c, 8, 67, 0
3, 81776, Note_on_c, 7, 63, 0
3, 81976, Note_on_c, 8, 65, 62
3, 82044, Note_on_c, 8, 65, 0
3, 82084, Note_on_c, 7, 63, 32
3, 82092, Note_on_c, 8, 66, 46
3, 82116, Note_on_c, 8, 66, 0
3, 82124, Note_on_c, 7, 63, 0
3, 82208, Note_on_c, 8, 69, 52
3, 82268, Note_on_c, 8, 69, 0
3, 82324, Note_on_c, 8, 73, 52
3, 82400, Note_on_c, 8, 73, 0
3, 82444, Note_on_c, 8, 75, 68
3, 82492, Note_on_c, 8, 75, 0
3, 82532, Note_on_c, 7, 63, 49
3, 82544, Note_on_c, 8, 77, 71
3, 82544, Note_on_c, 7, 67, 42
3, 82560, Note_on_c, 7, 57, 35
3, 82576, Note_on_c, 7, 67, 0
3, 82608, Note_on_c, 8, 77, 0
3, 82616, Note_on_c, 7, 57, 0
3, 82668, Note_on_c, 7, 63, 0
3, 82676, Note_on_c, 8, 78, 37
3, 82768, Note_on_c, 8, 78, 0
3, 82876, Note_on_c, 8, 80, 52
3, 82932, Note_on_c, 7, 63, 27
3, 82952, Note_on_c, 8, 80, 0
3, 82952, Note_on_c, 8, 81, 55
3, 83008, Note_on_c, 8, 81, 0
3, 83040, Note_on_c, 7, 63, 0
3, 83040, Note_on_c, 8, 82, 76
3, 83148, Note_on_c, 8, 80, 57
3, 83164, Note_on_c, 8, 82, 0
3, 83240, Note_on_c, 8, 80, 0
3, 83624, Note_on_c, 7, 67, 65
3, 83632, Note_on_c, 7, 60, 43
3, 83632, Note_on_c, 7, 63, 55
3, 83664, Note_on_c, 7, 67, 0
3, 83664, Note_on_c, 7, 60, 0
3, 83700, Note_on_c, 7, 63, 0
3, 84032, Note_on_c, 8, 96, 91
3, 84064, Note_on_c, 7, 63, 53
3, 84108, Note_on_c, 7, 63, 0
3, 84116, Note_on_c, 8, 96, 0
3, 84212, Note_on_c, 8, 92, 34
3, 84248, Note_on_c, 8, 92, 0
3, 84304, Note_on_c, 8, 96, 64
3, 84364, Note_on_c, 8, 92, 51
3, 84412, Note_on_c, 8, 96, 0
3, 84440, Note_on_c, 8, 89, 59
3, 84472, Note_on_c, 7, 60, 34
3, 84480, Note_on_c, 7, 63, 26
3, 84488, Note_on_c, 8, 92, 0
3, 84520, Note_on_c, 8, 89, 0
3, 84556, Note_on_c, 7, 63, 0
3, 84556, Note_on_c, 8, 86, 41
3, 84572, Note_on_c, 7, 60, 0
3, 84680, Note_on_c, 8, 85, 71
3, 84688, Note_on_c, 8, 86, 0
3, 84804, Note_on_c, 8, 85, 0
3, 84872, Note_on_c, 7, 67, 55
3, 84880, Note_on_c, 7, 63, 35
3, 84880, Note_on_c, 8, 84, 65
3, 84888, Note_on_c, 7, 60, 33
3, 84896, Note_on_c, 7, 67, 0
3, 84928, Note_on_c, 8, 84, 0
3, 84936, Note_on_c, 7, 60, 0
3, 84972, Note_on_c, 7, 63, 0
3, 85036, Note_on_c, 8, 83, 51
3, 85128, Note_on_c, 8, 83, 0
3, 85196, Note_on_c, 8, 82, 71
3, 85220, Note_on_c, 7, 63, 40
3, 85228, Note_on_c, 7, 67, 35
3, 85256, Note_on_c, 7, 60, 29
3, 85260, Note_on_c, 7, 67, 0
3, 85272, Note_on_c, 8, 82, 0
3, 85296, Note_on_c, 7, 60, 0
3, 85320, Note_on_c, 7, 63, 0
3, 85372, Note_on_c, 8, 80, 55
3, 85512, Note_on_c, 8, 80, 0
3, 85552, Note_on_c, 8, 77, 68
3, 85568, Note_on_c, 7, 63, 56
3, 85588, Note_on_c, 7, 60, 40
3, 85588, Note_on_c, 7, 67, 38
3, 85628, Note_on_c, 8, 77, 0
3, 85628, Note_on_c, 7, 67, 0
3, 85696, Note_on_c, 7, 63, 0
3, 85728, Note_on_c, 8, 77, 45
3, 85768, Note_on_c, 7, 60, 0
3, 85844, Note_on_c, 8, 77, 0
3, 85936, Note_on_c, 7, 65, 64
3, 85944, Note_on_c, 7, 60, 47
3, 85944, Note_on_c, 7, 62, 51
3, 85948, Note_on_c, 8, 79, 49
3, 85960, Note_on_c, 7, 65, 0
3, 86004, Note_on_c, 7, 62, 0
3, 86004, Note_on_c, 8, 79, 0
3, 86028, Note_on_c, 7, 60, 0
3, 86084, Note_on_c, 8, 82, 69
3, 86104, Note_on_c, 8, 70, 62
3, 86204, Note_on_c, 8, 82, 0
3, 86204, Note_on_c, 8, 70, 0
3, 86308, Note_on_c, 7, 55, 77
3, 86312, Note_on_c, 7, 54, 57
3, 86312, Note_on_c, 8, 82, 63
3, 86312, Note_on_c, 8, 70, 64
3, 86368, Note_on_c, 8, 82, 0
3, 86376, Note_on_c, 8, 70, 0
3, 86420, Note_on_c, 7, 54, 0
3, 86484, Note_on_c, 8, 67, 45
3, 86500, Note_on_c, 8, 79, 26
3, 86576, Note_on_c, 8, 79, 0
3, 86584, Note_on_c, 8, 67, 0
3, 87092, Note_on_c, 7, 54, 37
3, 87116, Note_on_c, 7, 54, 0
3, 87152, Note_on_c, 7, 55, 0
3, 87160, Note_on_c, 7, 53, 33
3, 87192, Note_on_c, 8, 63, 59
3, 87192, Note_on_c, 8, 75, 62
3, 87200, Note_on_c, 7, 53, 0
3, 87200, Note_on_c, 8, 70, 60
3, 87440, Note_on_c, 8, 70, 0
3, 87448, Note_on_c, 8, 75, 0
3, 87452, Note_on_c, 8, 63, 0
3, 87732, Control_c, 0, 64, 127
3, 87816, Control_c, 0, 64, 0
3, 87848, Note_on_c, 7, 55, 73
3, 87876, Note_on_c, 7, 55, 0
3, 87972, Control_c, 0, 64, 127
3, 88184, Note_on_c, 7, 63, 34
3, 88188, Control_c, 0, 64, 0
3, 88192, Note_on_c, 7, 64, 80
3, 88208, Note_on_c, 8, 77, 82
3, 88208, Note_on_c, 8, 70, 84
3, 88208, Note_on_c, 8, 74, 80
3, 88212, Note_on_c, 8, 67, 91
3, 88216, Note_on_c, 7, 63, 0
3, 88216, Note_on_c, 7, 65, 87
3, 88248, Note_on_c, 7, 64, 0
3, 88456, Note_on_c, 8, 74, 0
3, 88524, Note_on_c, 8, 67, 0
3, 88548, Note_on_c, 8, 70, 0
3, 88572, Note_on_c, 8, 77, 0
3, 88584, Note_on_c, 7, 62, 51
3, 88588, Note_on_c, 7, 65, 0
3, 88596, Note_on_c, 8, 74, 48
3, 88664, Note_on_c, 7, 62, 0
3, 88672, Note_on_c, 8, 74, 0
3, 88724, Note_on_c, 7, 63, 29
3, 88740, Note_on_c, 8, 75, 58
3, 88756, Note_on_c, 7, 63, 0
3, 88880, Note_on_c, 8, 75, 0
3, 88896, Note_on_c, 7, 64, 22
3, 88988, Note_on_c, 7, 64, 0
3, 88988, Note_on_c, 8, 77, 54
3, 88992, Note_on_c, 8, 70, 71
3, 88992, Note_on_c, 7, 67, 73
3, 88992, Note_on_c, 7, 65, 75
3, 89012, Note_on_c, 8, 75, 31
3, 89032, Note_on_c, 8, 77, 0
3, 89040, Control_c, 0, 64, 127
3, 89048, Note_on_c, 8, 70, 0
3, 89048, Note_on_c, 8, 75, 0
3, 89064, Note_on_c, 7, 65, 0
3, 89072, Note_on_c, 7, 67, 0
3, 89072, Control_c, 0, 64, 0
3, 89196, Note_on_c, 7, 62, 51
3, 89196, Note_on_c, 8, 74, 50
3, 89220, Note_on_c, 7, 67, 50
3, 89232, Note_on_c, 7, 63, 34
3, 89312, Note_on_c, 7, 67, 0
3, 89328, Note_on_c, 7, 63, 0
3, 89332, Note_on_c, 8, 74, 0
3, 89404, Note_on_c, 7, 62, 0
3, 89404, Note_on_c, 8, 70, 70
3, 89412, Note_on_c, 7, 58, 59
3, 89420, Note_on_c, 7, 63, 40
3, 89472, Note_on_c, 7, 63, 0
3, 89536, Note_on_c, 7, 58, 0
3, 89540, Note_on_c, 8, 70, 0
3, 89564, Note_on_c, 8, 67, 28
3, 89664, Control_c, 0, 64, 127
3, 89736, Note_on_c, 8, 67, 0
3, 89788, Note_on_c, 7, 61, 61
3, 89812, Note_on_c, 7, 55, 38
3, 89820, Note_on_c, 7, 57, 38
3, 89844, Note_on_c, 7, 55, 0
3, 89852, Note_on_c, 7, 61, 0
3, 89864, Note_on_c, 7, 57, 0
3, 89864, Control_c, 0, 64, 0
3, 89912, Note_on_c, 8, 72, 72
3, 89912, Note_on_c, 7, 60, 65
3, 89912, Note_on_c, 7, 61, 58
3, 89928, Note_on_c, 8, 65, 67
3, 90144, Note_on_c, 8, 72, 0
3, 90144, Note_on_c, 8, 65, 0
3, 90152, Note_on_c, 7, 61, 0
3, 90212, Note_on_c, 7, 60, 0
3, 90268, Note_on_c, 8, 70, 61
3, 90272, Note_on_c, 7, 61, 44
3, 90272, Note_on_c, 7, 58, 47
3, 90280, Note_on_c, 8, 65, 57
3, 90328, Control_c, 0, 64, 127
3, 90328, Note_on_c, 8, 68, 26
3, 90436, Note_on_c, 8, 65, 0
3, 90452, Note_on_c, 8, 68, 0
3, 90476, Note_on_c, 7, 61, 0
3, 90480, Note_on_c, 8, 70, 0
3, 90520, Note_on_c, 7, 58, 0
3, 90520, Note_on_c, 7, 56, 25
3, 90568, Note_on_c, 7, 57, 62
3, 90576, Note_on_c, 7, 56, 0
3, 90592, Control_c, 0, 64, 0
3, 90620, Note_on_c, 7, 57, 0
3, 90628, Note_on_c, 7, 60, 36
3, 90668, Note_on_c, 7, 60, 0
3, 90684, Note_on_c, 8, 61, 56
3, 90752, Note_on_c, 8, 61, 0
3, 90852, Note_on_c, 8, 64, 22
3, 90884, Note_on_c, 8, 64, 0
3, 90912, Note_on_c, 8, 66, 64
3, 90944, Note_on_c, 8, 66, 0
3, 90992, Note_on_c, 8, 67, 64
3, 91068, Note_on_c, 8, 67, 0
3, 91068, Note_on_c, 8, 69, 59
3, 91128, Note_on_c, 8, 69, 0
3, 91144, Note_on_c, 8, 70, 64
3, 91176, Note_on_c, 8, 70, 0
3, 91228, Note_on_c, 8, 72, 61
3, 91284, Note_on_c, 8, 72, 0
3, 91300, Note_on_c, 8, 73, 61
3, 91360, Note_on_c, 8, 73, 0
3, 91416, Note_on_c, 8, 76, 70
3, 91484, Note_on_c, 8, 76, 0
3, 91500, Note_on_c, 8, 78, 61
3, 91524, Note_on_c, 8, 78, 0
3, 91592, Note_on_c, 8, 79, 68
3, 91668, Note_on_c, 8, 79, 0
3, 91684, Note_on_c, 8, 81, 60
3, 91744, Note_on_c, 8, 81, 0
3, 91744, Note_on_c, 7, 66, 38
3, 91744, Note_on_c, 7, 61, 44
3, 91760, Note_on_c, 7, 55, 42
3, 91808, Note_on_c, 7, 66, 0
3, 91824, Note_on_c, 7, 55, 0
3, 91832, Note_on_c, 8, 84, 50
3, 91884, Note_on_c, 8, 84, 0
3, 91900, Note_on_c, 8, 85, 53
3, 91908, Note_on_c, 7, 61, 0
3, 91960, Note_on_c, 8, 85, 0
3, 91992, Note_on_c, 8, 87, 50
3, 92068, Note_on_c, 8, 88, 62
3, 92076, Note_on_c, 8, 87, 0
3, 92124, Note_on_c, 8, 88, 0
3, 92148, Note_on_c, 8, 91, 76
3, 92200, Note_on_c, 7, 63, 50
3, 92216, Note_on_c, 7, 58, 31
3, 92224, Note_on_c, 8, 91, 0
3, 92224, Note_on_c, 7, 60, 38
3, 92248, Note_on_c, 7, 63, 0
3, 92256, Note_on_c, 7, 60, 0
3, 92292, Note_on_c, 8, 87, 72
3, 92324, Note_on_c, 7, 58, 0
3, 92440, Note_on_c, 8, 87, 0
3, 92492, Note_on_c, 8, 84, 72
3, 92532, Note_on_c, 8, 84, 0
3, 92708, Note_on_c, 8, 81, 26
3, 92748, Note_on_c, 8, 81, 0
3, 92856, Note_on_c, 8, 79, 58
3, 92864, Note_on_c, 7, 63, 49
3, 92892, Note_on_c, 7, 60, 35
3, 92908, Note_on_c, 8, 79, 0
3, 92908, Note_on_c, 7, 63, 0
3, 92908, Note_on_c, 7, 58, 26
3, 92924, Note_on_c, 7, 60, 0
3, 93016, Note_on_c, 8, 91, 64
3, 93032, Note_on_c, 7, 58, 0
3, 93048, Control_c, 0, 64, 127
3, 93180, Note_on_c, 8, 91, 0
3, 93232, Note_on_c, 8, 87, 69
3, 93248, Note_on_c, 7, 63, 55
3, 93256, Note_on_c, 7, 60, 48
3, 93272, Control_c, 0, 64, 0
3, 93276, Note_on_c, 7, 58, 29
3, 93280, Note_on_c, 8, 87, 0
3, 93280, Note_on_c, 7, 63, 0
3, 93284, Note_on_c, 7, 60, 0
3, 93356, Note_on_c, 7, 58, 0
3, 93396, Control_c, 0, 64, 127
3, 93672, Control_c, 0, 64, 0
3, 93788, Control_c, 0, 64, 127
3, 94028, Note_on_c, 7, 63, 39
3, 94048, Note_on_c, 7, 56, 33
3, 94056, Control_c, 0, 64, 0
3, 94064, Note_on_c, 7, 63, 0
3, 94156, Note_on_c, 7, 67, 29
3, 94180, Note_on_c, 7, 56, 0
3, 94196, Note_on_c, 7, 67, 0
3, 94204, Note_on_c, 7, 68, 43
3, 94280, Note_on_c, 7, 68, 0
3, 94312, Note_on_c, 7, 70, 39
3, 94344, Note_on_c, 7, 70, 0
3, 94396, Note_on_c, 8, 71, 66
3, 94420, Note_on_c, 7, 60, 36
3, 94428, Note_on_c, 7, 63, 25
3, 94436, Note_on_c, 8, 71, 0
3, 94440, Note_on_c, 7, 56, 30
3, 94452, Note_on_c, 7, 63, 0
3, 94488, Note_on_c, 7, 60, 0
3, 94496, Note_on_c, 8, 73, 52
3, 94520, Note_on_c, 8, 73, 0
3, 94572, Note_on_c, 8, 74, 66
3, 94580, Note_on_c, 7, 56, 0
3, 94636, Note_on_c, 8, 74, 0
3, 94680, Note_on_c, 8, 75, 56
3, 94736, Note_on_c, 8, 75, 0
3, 94776, Note_on_c, 8, 76, 57
3, 94836, Note_on_c, 7, 60, 29
3, 94836, Note_on_c, 7, 56, 25
3, 94844, Note_on_c, 8, 76, 0
3, 94868, Note_on_c, 8, 77, 60
3, 94888, Note_on_c, 7, 60, 0
3, 94944, Note_on_c, 7, 56, 0
3, 94944, Note_on_c, 8, 77, 0
3, 94988, Note_on_c, 8, 78, 39
3, 95068, Note_on_c, 8, 78, 0
3, 95084, Note_on_c, 8, 79, 43
3, 95152, Note_on_c, 8, 79, 0
3, 95184, Note_on_c, 8, 81, 71
3, 95268, Note_on_c, 8, 81, 0
3, 95268, Note_on_c, 7, 63, 39
3, 95284, Note_on_c, 7, 58, 38
3, 95288, Note_on_c, 7, 59, 56
3, 95312, Note_on_c, 8, 80, 52
3, 95312, Note_on_c, 7, 54, 35
3, 95520, Note_on_c, 7, 63, 0
3, 95520, Note_on_c, 7, 59, 0
3, 95520, Note_on_c, 8, 80, 0
3, 95536, Note_on_c, 7, 58, 0
3, 95544, Note_on_c, 7, 54, 0
3, 95720, Control_c, 0, 64, 127
3, 95884, Note_on_c, 7, 63, 57
3, 95900, Note_on_c, 7, 59, 48
3, 95900, Note_on_c, 7, 58, 35
3, 95916, Note_on_c, 7, 63, 0
3, 95936, Note_on_c, 7, 59, 0
3, 95952, Control_c, 0, 64, 0
3, 96008, Note_on_c, 7, 58, 0
3, 96132, Note_on_c, 8, 80, 43
3, 96144, Note_on_c, 8, 68, 48
3, 96176, Note_on_c, 8, 80, 0
3, 96176, Note_on_c, 8, 68, 0
3, 96252, Note_on_c, 8, 80, 40
3, 96260, Note_on_c, 7, 68, 48
3, 96268, Note_on_c, 8, 75, 56
3, 96284, Note_on_c, 7, 59, 36
3, 96292, Note_on_c, 7, 68, 0
3, 96292, Control_c, 0, 64, 127
3, 96308, Note_on_c, 8, 80, 0
3, 96316, Control_c, 0, 64, 0
3, 96320, Note_on_c, 7, 59, 0
3, 96324, Note_on_c, 8, 75, 0
3, 96384, Note_on_c, 7, 63, 46
3, 96392, Note_on_c, 7, 59, 46
3, 96400, Note_on_c, 7, 54, 43
3, 96400, Note_on_c, 7, 58, 34
3, 96404, Note_on_c, 8, 75, 55
3, 96404, Note_on_c, 8, 70, 60
3, 96404, Note_on_c, 8, 82, 75
3, 96440, Note_on_c, 8, 70, 0
3, 96444, Note_on_c, 7, 59, 0
3, 96460, Note_on_c, 7, 63, 0
3, 96460, Note_on_c, 8, 75, 0
3, 96460, Note_on_c, 8, 82, 0
3, 96476, Note_on_c, 7, 58, 0
3, 96532, Note_on_c, 8, 82, 59
3, 96540, Note_on_c, 8, 70, 62
3, 96544, Note_on_c, 7, 63, 32
3, 96552, Note_on_c, 8, 75, 47
3, 96560, Note_on_c, 7, 58, 31
3, 96560, Note_on_c, 7, 59, 37
3, 96592, Note_on_c, 8, 82, 0
3, 96592, Note_on_c, 8, 70, 0
3, 96592, Note_on_c, 7, 59, 0
3, 96600, Note_on_c, 7, 63, 0
3, 96608, Note_on_c, 8, 75, 0
3, 96616, Note_on_c, 7, 58, 0
3, 96668, Note_on_c, 7, 63, 32
3, 96676, Note_on_c, 8, 68, 52
3, 96676, Note_on_c, 8, 80, 36
3, 96684, Note_on_c, 8, 75, 37
3, 96692, Note_on_c, 7, 59, 30
3, 96700, Note_on_c, 7, 58, 21
3, 96708, Note_on_c, 8, 68, 0
3, 96716, Note_on_c, 7, 63, 0
3, 96716, Note_on_c, 8, 75, 0
3, 96724, Note_on_c, 8, 80, 0
3, 96732, Note_on_c, 7, 59, 0
3, 96740, Note_on_c, 7, 58, 0
3, 96756, Note_on_c, 7, 54, 0
3, 96816, Note_on_c, 7, 58, 25
3, 96816, Note_on_c, 7, 59, 44
3, 96820, Note_on_c, 8, 82, 63
3, 96824, Note_on_c, 8, 70, 29
3, 96832, Note_on_c, 8, 75, 38
3, 96848, Note_on_c, 8, 82, 0
3, 96856, Note_on_c, 7, 59, 0
3, 96860, Note_on_c, 7, 58, 0
3, 96860, Note_on_c, 8, 70, 0
3, 96860, Note_on_c, 8, 75, 0
3, 96956, Note_on_c, 8, 82, 83
3, 96960, Note_on_c, 8, 70, 72
3, 96964, Note_on_c, 7, 63, 56
3, 96976, Note_on_c, 8, 75, 62
3, 96976, Note_on_c, 7, 59, 57
3, 96984, Note_on_c, 7, 58, 38
3, 96992, Note_on_c, 7, 53, 38
3, 97000, Note_on_c, 8, 75, 0
3, 97016, Note_on_c, 7, 63, 0
3, 97016, Note_on_c, 7, 59, 0
3, 97024, Note_on_c, 8, 70, 0
3, 97024, Note_on_c, 7, 53, 0
3, 97032, Note_on_c, 7, 58, 0
3, 97048, Note_on_c, 8, 82, 0
3, 97424, Note_on_c, 7, 68, 64
3, 97424, Note_on_c, 8, 80, 57
3, 97432, Note_on_c, 7, 59, 60
3, 97432, Note_on_c, 7, 63, 60
3, 97440, Note_on_c, 7, 58, 39
3, 97464, Note_on_c, 8, 75, 29
3, 97480, Note_on_c, 7, 68, 0
3, 97488, Note_on_c, 7, 63, 0
3, 97492, Note_on_c, 8, 80, 0
3, 97500, Note_on_c, 8, 75, 0
3, 97516, Note_on_c, 7, 59, 0
3, 97548, Note_on_c, 7, 58, 0
3, 97600, Note_on_c, 8, 82, 52
3, 97608, Note_on_c, 7, 70, 38
3, 97632, Note_on_c, 8, 82, 0
3, 97632, Note_on_c, 7, 70, 0
3, 97732, Note_on_c, 8, 82, 76
3, 97732, Note_on_c, 7, 70, 73
3, 97748, Note_on_c, 7, 75, 51
3, 97780, Note_on_c, 7, 70, 0
3, 97780, Note_on_c, 7, 75, 0
3, 97788, Note_on_c, 8, 82, 0
3, 97856, Note_on_c, 7, 68, 67
3, 97856, Note_on_c, 7, 63, 50
3, 97856, Note_on_c, 8, 75, 45
3, 97860, Note_on_c, 7, 59, 48
3, 97872, Note_on_c, 8, 80, 47
3, 97872, Note_on_c, 7, 58, 33
3, 97908, Note_on_c, 7, 68, 0
3, 97908, Note_on_c, 7, 59, 0
3, 97916, Note_on_c, 7, 63, 0
3, 97916, Note_on_c, 8, 75, 0
3, 97916, Note_on_c, 8, 80, 0
3, 97956, Note_on_c, 7, 58, 0
3, 98004, Note_on_c, 8, 82, 64
3, 98008, Note_on_c, 7, 70, 49
3, 98012, Note_on_c, 8, 75, 39
3, 98040, Note_on_c, 7, 70, 0
3, 98048, Note_on_c, 8, 82, 0
3, 98048, Note_on_c, 8, 75, 0
3, 98132, Note_on_c, 8, 82, 68
3, 98148, Note_on_c, 7, 70, 61
3, 98156, Note_on_c, 8, 75, 59
3, 98180, Note_on_c, 7, 70, 0
3, 98188, Note_on_c, 8, 75, 0
3, 98196, Note_on_c, 8, 82, 0
3, 98240, Note_on_c, 7, 65, 38
3, 98272, Note_on_c, 7, 65, 0
3, 98280, Note_on_c, 8, 80, 48
3, 98280, Note_on_c, 7, 68, 62
3, 98312, Note_on_c, 7, 68, 0
3, 98348, Note_on_c, 8, 80, 0
3, 98532, Note_on_c, 7, 65, 62
3, 98536, Note_on_c, 7, 62, 48
3, 98556, Note_on_c, 7, 60, 42
3, 98564, Note_on_c, 7, 65, 0
3, 98588, Note_on_c, 7, 60, 0
3, 98596, Note_on_c, 7, 62, 0
3, 98680, Note_on_c, 7, 78, 48
3, 98688, Note_on_c, 7, 66, 59
3, 98728, Note_on_c, 7, 74, 34
3, 98736, Note_on_c, 7, 78, 0
3, 98748, Note_on_c, 7, 66, 0
3, 98780, Note_on_c, 8, 79, 29
3, 98788, Note_on_c, 7, 67, 40
3, 98872, Note_on_c, 8, 79, 0
3, 98888, Note_on_c, 7, 74, 0
3, 98888, Note_on_c, 7, 67, 0
3, 98972, Note_on_c, 8, 79, 57
3, 98988, Note_on_c, 7, 67, 49
3, 98988, Note_on_c, 7, 74, 45
3, 99012, Note_on_c, 7, 60, 24
3, 99044, Note_on_c, 8, 79, 0
3, 99056, Note_on_c, 7, 67, 0
3, 99072, Note_on_c, 7, 74, 0
3, 99104, Note_on_c, 7, 60, 0
3, 99368, Note_on_c, 7, 62, 48
3, 99380, Note_on_c, 7, 60, 45
3, 99388, Note_on_c, 7, 65, 32
3, 99404, Note_on_c, 7, 62, 0
3, 99404, Note_on_c, 7, 60, 0
3, 99420, Note_on_c, 7, 65, 0
3, 99752, Note_on_c, 7, 62, 66
3, 99760, Note_on_c, 7, 60, 57
3, 99760, Note_on_c, 7, 65, 70
3, 99768, Note_on_c, 8, 78, 51
3, 99772, Note_on_c, 7, 66, 67
3, 99776, Note_on_c, 8, 73, 49
3, 99788, Note_on_c, 7, 65, 0
3, 99812, Note_on_c, 8, 73, 0
3, 99836, Note_on_c, 7, 60, 0
3, 99836, Note_on_c, 7, 66, 0
3, 99840, Note_on_c, 7, 62, 0
3, 99840, Note_on_c, 8, 78, 0
3, 99868, Note_on_c, 7, 62, 16
3, 99904, Note_on_c, 7, 55, 27
3, 99904, Note_on_c, 7, 60, 22
3, 99928, Note_on_c, 8, 67, 39
3, 99936, Note_on_c, 8, 79, 30
3, 99960, Note_on_c, 7, 55, 0
3, 99960, Note_on_c, 7, 60, 0
3, 99964, Note_on_c, 8, 74, 24
3, 99976, Note_on_c, 7, 62, 0
3, 99976, Note_on_c, 8, 67, 0
3, 99984, Note_on_c, 8, 79, 0
3, 100012, Note_on_c, 8, 74, 0
3, 100012, Control_c, 0, 64, 127
3, 100152, Note_on_c, 7, 62, 66
3, 100160, Note_on_c, 8, 70, 77
3, 100160, Note_on_c, 7, 60, 58
3, 100164, Note_on_c, 8, 82, 73
3, 100164, Control_c, 0, 64, 0
3, 100164, Note_on_c, 7, 65, 70
3, 100184, Note_on_c, 8, 75, 27
3, 100188, Note_on_c, 7, 60, 0
3, 100188, Note_on_c, 7, 55, 30
3, 100192, Note_on_c, 7, 65, 0
3, 100200, Note_on_c, 8, 70, 0
3, 100212, Note_on_c, 7, 62, 0
3, 100212, Note_on_c, 8, 82, 0
3, 100212, Note_on_c, 8, 75, 0
3, 100212, Note_on_c, 7, 55, 0
3, 100292, Note_on_c, 7, 62, 43
3, 100360, Note_on_c, 7, 62, 0
3, 100376, Note_on_c, 8, 83, 62
3, 100376, Note_on_c, 8, 84, 76
3, 100392, Note_on_c, 8, 72, 50
3, 100412, Note_on_c, 8, 83, 0
3, 100436, Note_on_c, 7, 62, 30
3, 100452, Note_on_c, 8, 72, 0
3, 100468, Note_on_c, 8, 84, 0
3, 100500, Note_on_c, 7, 62, 0
3, 100576, Note_on_c, 7, 69, 55
3, 100584, Note_on_c, 7, 62, 51
3, 100592, Note_on_c, 7, 65, 45
3, 100600, Note_on_c, 7, 60, 35
3, 100604, Note_on_c, 7, 69, 0
3, 100628, Note_on_c, 7, 65, 0
3, 100636, Note_on_c, 7, 60, 0
3, 100652, Note_on_c, 7, 62, 0
3, 100808, Note_on_c, 8, 85, 61
3, 100824, Note_on_c, 8, 73, 67
3, 100844, Note_on_c, 8, 85, 0
3, 100844, Note_on_c, 7, 62, 57
3, 100852, Note_on_c, 7, 55, 58
3, 100860, Note_on_c, 8, 86, 57
3, 100860, Note_on_c, 7, 65, 35
3, 100864, Note_on_c, 7, 59, 36
3, 100864, Note_on_c, 7, 60, 39
3, 100864, Note_on_c, 8, 84, 44
3, 100892, Note_on_c, 7, 65, 0
3, 100892, Note_on_c, 7, 59, 0
3, 100896, Note_on_c, 8, 73, 0
3, 100900, Note_on_c, 7, 60, 0
3, 100908, Note_on_c, 8, 74, 40
3, 100936, Note_on_c, 7, 62, 0
3, 100940, Note_on_c, 7, 55, 0
3, 100968, Note_on_c, 8, 74, 0
3, 100976, Note_on_c, 8, 86, 0
3, 100976, Note_on_c, 8, 84, 0
3, 101060, Note_on_c, 8, 84, 60
3, 101068, Note_on_c, 7, 62, 42
3, 101076, Note_on_c, 8, 72, 65
3, 101076, Note_on_c, 7, 65, 31
3, 101080, Note_on_c, 7, 55, 45
3, 101100, Note_on_c, 7, 62, 0
3, 101108, Note_on_c, 7, 65, 0
3, 101124, Control_c, 0, 64, 127
3, 101176, Note_on_c, 7, 55, 0
3, 101184, Note_on_c, 8, 84, 0
3, 101200, Note_on_c, 8, 72, 0
3, 101324, Note_on_c, 8, 82, 70
3, 101324, Note_on_c, 8, 70, 69
3, 101328, Control_c, 0, 64, 0
3, 101328, Note_on_c, 7, 62, 58
3, 101340, Note_on_c, 7, 55, 57
3, 101344, Note_on_c, 7, 53, 43
3, 101344, Note_on_c, 7, 58, 39
3, 101384, Note_on_c, 7, 62, 0
3, 101384, Note_on_c, 7, 53, 0
3, 101392, Note_on_c, 7, 55, 0
3, 101408, Note_on_c, 8, 70, 0
3, 101416, Note_on_c, 8, 82, 0
3, 101416, Note_on_c, 7, 58, 0
3, 101584, Note_on_c, 8, 69, 17
3, 101648, Note_on_c, 8, 69, 0
3, 102048, Note_on_c, 7, 62, 69
3, 102056, Note_on_c, 7, 58, 38
3, 102064, Note_on_c, 7, 55, 33
3, 102072, Note_on_c, 7, 62, 0
3, 102100, Note_on_c, 7, 55, 0
3, 102116, Note_on_c, 7, 58, 0
3, 102432, Note_on_c, 7, 58, 49
3, 102440, Note_on_c, 7, 55, 46
3, 102456, Note_on_c, 7, 58, 0
3, 102464, Note_on_c, 7, 55, 0
3, 102540, Note_on_c, 8, 62, 60
3, 102648, Note_on_c, 8, 62, 0
3, 102664, Note_on_c, 8, 60, 62
3, 102748, Note_on_c, 8, 60, 0
3, 102772, Note_on_c, 8, 59, 55
3, 102856, Note_on_c, 8, 59, 0
3, 102864, Note_on_c, 8, 60, 54
3, 102864, Note_on_c, 7, 58, 31
3, 102896, Note_on_c, 8, 60, 0
3, 102896, Note_on_c, 7, 58, 0
3, 102972, Note_on_c, 8, 65, 76
3, 103064, Note_on_c, 8, 65, 0
3, 103096, Note_on_c, 8, 64, 42
3, 103140, Note_on_c, 8, 64, 0
3, 103164, Note_on_c, 8, 63, 45
3, 103240, Note_on_c, 8, 63, 0
3, 103272, Note_on_c, 8, 64, 54
3, 103296, Note_on_c, 8, 64, 0
3, 103304, Note_on_c, 7, 58, 35
3, 103372, Note_on_c, 8, 69, 74
3, 103380, Note_on_c, 7, 58, 0
3, 103472, Note_on_c, 8, 69, 0
3, 103472, Note_on_c, 8, 67, 62
3, 103564, Note_on_c, 8, 67, 0
3, 103596, Note_on_c, 8, 66, 33
3, 103652, Note_on_c, 8, 66, 0
3, 103672, Note_on_c, 8, 67, 36
3, 103688, Note_on_c, 7, 58, 31
3, 103704, Note_on_c, 8, 67, 0
3, 103720, Note_on_c, 7, 58, 0
3, 103772, Note_on_c, 8, 72, 71
3, 103828, Note_on_c, 8, 72, 0
3, 104004, Note_on_c, 7, 62, 70
3, 104004, Note_on_c, 7, 58, 57
3, 104028, Note_on_c, 7, 52, 36
3, 104036, Note_on_c, 7, 62, 0
3, 104060, Note_on_c, 7, 52, 0
3, 104080, Note_on_c, 7, 58, 0
3, 104368, Note_on_c, 7, 63, 69
3, 104372, Note_on_c, 7, 60, 69
3, 104372, Note_on_c, 7, 56, 48
3, 104396, Note_on_c, 7, 63, 0
3, 104404, Note_on_c, 7, 60, 0
3, 104512, Note_on_c, 8, 67, 66
3, 104536, Note_on_c, 7, 56, 0
3, 104652, Note_on_c, 8, 67, 0
3, 104668, Note_on_c, 8, 68, 38
3, 104744, Note_on_c, 8, 67, 45
3, 104800, Note_on_c, 8, 68, 0
3, 104828, Note_on_c, 8, 67, 0
3, 104868, Note_on_c, 8, 64, 45
3, 105008, Note_on_c, 8, 64, 0
3, 105152, Note_on_c, 7, 63, 55
3, 105160, Note_on_c, 8, 67, 87
3, 105168, Note_on_c, 7, 60, 45
3, 105168, Note_on_c, 7, 56, 33
3, 105176, Note_on_c, 7, 63, 0
3, 105192, Note_on_c, 7, 60, 0
3, 105260, Note_on_c, 8, 67, 0
3, 105292, Note_on_c, 7, 56, 0
3, 105336, Note_on_c, 8, 64, 50
3, 105492, Note_on_c, 8, 64, 0
3, 105544, Note_on_c, 8, 65, 53
3, 105652, Note_on_c, 8, 65, 0
3, 105700, Note_on_c, 8, 67, 54
3, 105832, Note_on_c, 8, 67, 0
3, 105900, Note_on_c, 7, 58, 64
3, 105924, Note_on_c, 8, 68, 63
3, 105968, Note_on_c, 7, 58, 0
3, 106000, Note_on_c, 8, 68, 0
3, 106092, Note_on_c, 8, 70, 48
3, 106232, Note_on_c, 8, 70, 0
3, 106276, Note_on_c, 8, 72, 67
3, 106300, Note_on_c, 7, 58, 35
3, 106308, Note_on_c, 8, 64, 34
3, 106364, Note_on_c, 7, 58, 0
3, 106392, Note_on_c, 8, 72, 0
3, 106400, Note_on_c, 8, 64, 0
3, 106448, Note_on_c, 8, 73, 44
3, 106592, Note_on_c, 8, 73, 0
3, 106656, Note_on_c, 8, 76, 60
3, 106748, Note_on_c, 8, 76, 0
3, 106816, Note_on_c, 8, 80, 45
3, 106988, Note_on_c, 8, 80, 0
3, 107032, Note_on_c, 7, 58, 59
3, 107032, Note_on_c, 7, 63, 67
3, 107040, Note_on_c, 8, 82, 63
3, 107048, Note_on_c, 7, 52, 49
3, 107080, Note_on_c, 7, 52, 0
3, 107088, Note_on_c, 7, 63, 0
3, 107116, Note_on_c, 8, 82, 0
3, 107140, Note_on_c, 7, 58, 0
3, 107216, Note_on_c, 8, 84, 31
3, 107340, Note_on_c, 8, 84, 0
3, 107424, Note_on_c, 7, 63, 62
3, 107432, Note_on_c, 7, 67, 71
3, 107440, Note_on_c, 7, 56, 39
3, 107440, Note_on_c, 8, 87, 74
3, 107448, Note_on_c, 7, 60, 52
3, 107488, Note_on_c, 7, 67, 0
3, 107524, Note_on_c, 7, 56, 0
3, 107532, Note_on_c, 8, 87, 0
3, 107564, Note_on_c, 7, 60, 0
3, 107596, Note_on_c, 7, 63, 0
3, 107604, Note_on_c, 8, 91, 65
3, 107612, Note_on_c, 8, 79, 63
3, 107628, Note_on_c, 8, 87, 25
3, 107640, Note_on_c, 8, 84, 48
3, 107788, Note_on_c, 8, 91, 0
3, 107812, Note_on_c, 7, 67, 46
3, 107816, Note_on_c, 8, 79, 0
3, 107820, Note_on_c, 8, 84, 0
3, 107840, Note_on_c, 7, 67, 0
3, 107840, Note_on_c, 7, 63, 36
3, 107856, Note_on_c, 8, 87, 0
3, 107864, Note_on_c, 7, 60, 22
3, 107904, Note_on_c, 7, 63, 0
3, 107928, Note_on_c, 8, 90, 68
3, 107936, Note_on_c, 7, 60, 0
3, 107948, Note_on_c, 8, 78, 45
3, 107956, Note_on_c, 8, 84, 54
3, 108056, Control_c, 0, 64, 127
3, 108096, Note_on_c, 8, 84, 0
3, 108120, Note_on_c, 8, 90, 0
3, 108128, Note_on_c, 8, 78, 0
3, 108180, Note_on_c, 7, 63, 53
3, 108180, Note_on_c, 8, 84, 60
3, 108180, Control_c, 0, 64, 0
3, 108188, Note_on_c, 7, 60, 43
3, 108188, Note_on_c, 7, 67, 55
3, 108196, Note_on_c, 7, 56, 37
3, 108196, Note_on_c, 8, 89, 66
3, 108200, Note_on_c, 8, 77, 38
3, 108256, Note_on_c, 8, 77, 0
3, 108296, Note_on_c, 8, 84, 0
3, 108360, Control_c, 0, 64, 127
3, 108452, Note_on_c, 8, 89, 0
3, 108520, Note_on_c, 7, 67, 0
3, 108560, Note_on_c, 7, 63, 0
3, 108564, Note_on_c, 7, 60, 0
3, 108596, Note_on_c, 7, 56, 0
3, 108636, Control_c, 0, 64, 0
3, 108696, Note_on_c, 8, 94, 78
3, 108696, Note_on_c, 8, 90, 79
3, 108696, Note_on_c, 7, 63, 64
3, 108712, Note_on_c, 7, 59, 49
3, 108744, Note_on_c, 7, 54, 19
3, 108844, Note_on_c, 8, 94, 0
3, 108844, Note_on_c, 8, 89, 69
3, 108860, Note_on_c, 8, 90, 0
3, 108880, Note_on_c, 7, 63, 0
3, 108920, Note_on_c, 7, 59, 0
3, 108944, Note_on_c, 8, 89, 0
3, 108952, Note_on_c, 7, 63, 17
3, 108984, Note_on_c, 7, 63, 0
3, 109004, Note_on_c, 7, 59, 42
3, 109096, Note_on_c, 8, 85, 82
3, 109096, Note_on_c, 8, 90, 72
3, 109196, Note_on_c, 7, 59, 0
3, 109228, Note_on_c, 8, 90, 0
3, 109228, Note_on_c, 8, 84, 69
3, 109236, Note_on_c, 8, 85, 0
3, 109336, Note_on_c, 7, 63, 52
3, 109352, Note_on_c, 7, 59, 57
3, 109368, Note_on_c, 8, 84, 0
3, 109384, Note_on_c, 7, 63, 0
3, 109444, Note_on_c, 7, 54, 0
3, 109484, Note_on_c, 8, 78, 73
3, 109492, Note_on_c, 8, 82, 67
3, 109576, Note_on_c, 7, 59, 0
3, 109620, Note_on_c, 8, 82, 0
3, 109644, Note_on_c, 8, 77, 45
3, 109652, Note_on_c, 8, 78, 0
3, 109752, Note_on_c, 8, 77, 0
3, 109752, Note_on_c, 7, 63, 52
3, 109760, Note_on_c, 7, 59, 53
3, 109768, Note_on_c, 7, 58, 37
3, 109776, Note_on_c, 7, 54, 30
3, 109816, Note_on_c, 7, 63, 0
3, 109876, Note_on_c, 7, 54, 0
3, 109876, Note_on_c, 8, 78, 52
3, 109900, Note_on_c, 8, 74, 42
3, 109952, Note_on_c, 8, 74, 0
3, 109984, Note_on_c, 7, 58, 0
3, 109984, Note_on_c, 8, 72, 54
3, 109988, Note_on_c, 8, 78, 0
3, 110028, Note_on_c, 7, 59, 0
3, 110108, Note_on_c, 7, 59, 60
3, 110116, Note_on_c, 7, 63, 69
3, 110136, Note_on_c, 8, 72, 0
3, 110136, Note_on_c, 7, 58, 32
3, 110152, Note_on_c, 7, 53, 35
3, 110200, Note_on_c, 7, 63, 0
3, 110252, Note_on_c, 8, 68, 73
3, 110260, Note_on_c, 8, 73, 57
3, 110332, Note_on_c, 7, 53, 0
3, 110340, Note_on_c, 7, 59, 0
3, 110344, Note_on_c, 7, 58, 0
3, 110368, Note_on_c, 8, 68, 0
3, 110376, Note_on_c, 8, 73, 0
3, 110384, Note_on_c, 8, 67, 36
3, 110460, Note_on_c, 8, 67, 0
3, 110484, Note_on_c, 7, 58, 60
3, 110484, Note_on_c, 7, 62, 70
3, 110508, Note_on_c, 7, 55, 54
3, 110516, Note_on_c, 7, 51, 27
3, 110552, Note_on_c, 7, 51, 0
3, 110560, Note_on_c, 7, 62, 0
3, 110616, Note_on_c, 7, 58, 0
3, 110632, Note_on_c, 7, 55, 0
3, 111248, Note_on_c, 8, 66, 64
3, 111256, Note_on_c, 7, 54, 74
3, 111264, Note_on_c, 7, 61, 70
3, 111272, Note_on_c, 7, 57, 53
3, 111340, Note_on_c, 7, 57, 0
3, 111388, Note_on_c, 8, 66, 0
3, 111408, Note_on_c, 7, 54, 0
3, 111416, Note_on_c, 7, 61, 0
3, 111424, Note_on_c, 7, 55, 56
3, 111432, Note_on_c, 8, 67, 49
3, 111440, Note_on_c, 7, 57, 36
3, 111456, Note_on_c, 8, 62, 39
3, 111524, Note_on_c, 8, 67, 0
3, 111532, Note_on_c, 7, 57, 0
3, 111564, Note_on_c, 8, 62, 0
3, 111680, Note_on_c, 7, 55, 0
3, 111680, Note_on_c, 7, 51, 34
3, 111724, Note_on_c, 7, 51, 0
3, 111764, Note_on_c, 7, 54, 53
3, 111772, Note_on_c, 8, 66, 59
3, 111780, Note_on_c, 8, 61, 61
3, 111788, Note_on_c, 8, 63, 44
3, 111808, Control_c, 0, 64, 127
3, 111924, Note_on_c, 8, 61, 0
3, 111932, Note_on_c, 8, 66, 0
3, 111956, Note_on_c, 8, 63, 0
3, 111964, Note_on_c, 7, 54, 0
3, 112024, Note_on_c, 8, 65, 63
3, 112032, Note_on_c, 7, 57, 42
3, 112032, Note_on_c, 7, 60, 65
3, 112040, Note_on_c, 7, 53, 68
3, 112064, Note_on_c, 7, 57, 0
3, 112088, Control_c, 0, 64, 0
3, 112104, Note_on_c, 7, 60, 0
3, 112108, Note_on_c, 8, 65, 0
3, 112108, Note_on_c, 7, 53, 0
3, 112372, Note_on_c, 8, 67, 80
3, 112388, Note_on_c, 7, 58, 31
3, 112420, Note_on_c, 7, 58, 0
3, 112440, Note_on_c, 8, 68, 34
3, 112464, Note_on_c, 8, 67, 0
3, 112464, Note_on_c, 8, 68, 0
3, 112480, Note_on_c, 8, 69, 64
3, 112564, Note_on_c, 8, 69, 0
3, 112604, Note_on_c, 8, 72, 81
3, 112688, Note_on_c, 8, 72, 0
3, 112812, Note_on_c, 8, 72, 94
3, 112820, Note_on_c, 7, 64, 55
3, 112828, Note_on_c, 7, 59, 49
3, 112864, Note_on_c, 7, 64, 0
3, 112864, Note_on_c, 7, 53, 31
3, 112912, Note_on_c, 7, 53, 0
3, 112920, Note_on_c, 8, 72, 0
3, 112920, Note_on_c, 7, 59, 0
3, 112988, Note_on_c, 8, 71, 71
3, 113104, Note_on_c, 8, 71, 0
3, 113180, Note_on_c, 8, 67, 66
3, 113204, Note_on_c, 7, 53, 50
3, 113212, Note_on_c, 7, 59, 27
3, 113244, Note_on_c, 7, 59, 0
3, 113252, Note_on_c, 7, 53, 0
3, 113264, Note_on_c, 8, 67, 0
3, 113344, Note_on_c, 8, 65, 43
3, 113528, Note_on_c, 8, 65, 0
3, 113560, Note_on_c, 8, 62, 60
3, 113568, Note_on_c, 7, 58, 57
3, 113620, Note_on_c, 7, 58, 0
3, 113652, Note_on_c, 8, 62, 0
3, 113712, Note_on_c, 8, 63, 37
3, 113960, Note_on_c, 8, 63, 0
3, 113968, Note_on_c, 7, 59, 36
3, 114000, Note_on_c, 7, 59, 0
3, 114012, Note_on_c, 7, 48, 46
3, 114076, Note_on_c, 8, 62, 73
3, 114084, Note_on_c, 7, 48, 0
3, 114300, Note_on_c, 8, 62, 0
3, 114360, Note_on_c, 7, 59, 33
3, 114392, Note_on_c, 7, 59, 0
3, 114420, Note_on_c, 7, 55, 36
3, 114420, Note_on_c, 7, 46, 36
3, 114468, Note_on_c, 8, 60, 52
3, 114576, Note_on_c, 7, 55, 0
3, 114636, Control_c, 0, 64, 127
3, 114644, Note_on_c, 8, 60, 0
3, 114676, Note_on_c, 7, 55, 32
3, 114700, Note_on_c, 8, 62, 67
3, 114716, Note_on_c, 7, 46, 0
3, 114736, Control_c, 0, 64, 0
3, 114752, Note_on_c, 7, 55, 0
3, 114792, Note_on_c, 8, 62, 0
3, 114860, Note_on_c, 8, 63, 46
3, 114868, Control_c, 0, 64, 127
3, 115008, Note_on_c, 8, 63, 0
3, 115092, Note_on_c, 8, 63, 46
3, 115100, Note_on_c, 8, 65, 57
3, 115100, Note_on_c, 7, 54, 39
3, 115124, Note_on_c, 8, 60, 35
3, 115132, Note_on_c, 8, 63, 0
3, 115140, Note_on_c, 8, 57, 33
3, 115160, Control_c, 0, 64, 0
3, 115184, Note_on_c, 8, 65, 0
3, 115184, Note_on_c, 8, 60, 0
3, 115192, Note_on_c, 8, 57, 0
3, 115208, Note_on_c, 7, 54, 0
3, 115308, Note_on_c, 8, 67, 24
3, 115468, Note_on_c, 8, 67, 0
3, 115700, Control_c, 0, 64, 127
3, 115740, Note_on_c, 8, 65, 53
3, 115792, Note_on_c, 8, 65, 0
3, 115832, Note_on_c, 8, 66, 62
3, 115848, Note_on_c, 8, 63, 48
3, 115880, Note_on_c, 8, 63, 0
3, 115892, Control_c, 0, 64, 0
3, 115900, Note_on_c, 8, 60, 20
3, 115900, Note_on_c, 7, 57, 29
3, 115924, Note_on_c, 8, 66, 0
3, 115932, Note_on_c, 8, 68, 53
3, 115940, Note_on_c, 8, 60, 0
3, 115956, Note_on_c, 8, 68, 0
3, 115964, Note_on_c, 7, 57, 0
3, 116008, Note_on_c, 8, 69, 60
3, 116056, Note_on_c, 8, 69, 0
3, 116116, Note_on_c, 8, 71, 55
3, 116180, Note_on_c, 8, 71, 0
3, 116208, Note_on_c, 8, 72, 55
3, 116280, Note_on_c, 8, 72, 0
3, 116332, Note_on_c, 7, 63, 45
3, 116348, Note_on_c, 7, 54, 31
3, 116348, Note_on_c, 8, 74, 69
3, 116348, Note_on_c, 7, 60, 41
3, 116372, Note_on_c, 7, 57, 31
3, 116388, Note_on_c, 7, 60, 0
3, 116396, Note_on_c, 8, 74, 0
3, 116404, Note_on_c, 7, 63, 0
3, 116416, Note_on_c, 7, 57, 0
3, 116448, Note_on_c, 8, 75, 49
3, 116456, Note_on_c, 7, 54, 0
3, 116540, Note_on_c, 8, 75, 0
3, 116656, Note_on_c, 8, 77, 22
3, 116688, Note_on_c, 8, 77, 0
3, 116724, Note_on_c, 8, 79, 60
3, 116796, Note_on_c, 8, 79, 0
3, 116840, Note_on_c, 8, 77, 71
3, 116920, Note_on_c, 8, 77, 0
3, 117428, Note_on_c, 7, 62, 44
3, 117436, Note_on_c, 7, 60, 44
3, 117440, Note_on_c, 7, 65, 44
3, 117472, Note_on_c, 7, 62, 0
3, 117472, Note_on_c, 7, 60, 0
3, 117472, Note_on_c, 7, 65, 0
3, 117564, Note_on_c, 8, 77, 71
3, 117604, Note_on_c, 8, 77, 0
3, 117828, Note_on_c, 7, 65, 44
3, 117836, Note_on_c, 7, 62, 37
3, 117852, Note_on_c, 7, 60, 38
3, 117860, Note_on_c, 7, 65, 0
3, 117880, Note_on_c, 7, 62, 0
3, 117888, Note_on_c, 7, 60, 0
3, 117952, Note_on_c, 8, 78, 59
3, 117972, Note_on_c, 7, 66, 64
3, 118120, Note_on_c, 8, 78, 0
3, 118120, Note_on_c, 7, 66, 0
3, 118168, Control_c, 0, 64, 127
3, 118196, Note_on_c, 8, 79, 66
3, 118196, Note_on_c, 7, 67, 71
3, 118220, Note_on_c, 7, 65, 44
3, 118220, Note_on_c, 7, 62, 43
3, 118236, Note_on_c, 7, 60, 39
3, 118252, Note_on_c, 7, 67, 0
3, 118252, Note_on_c, 7, 65, 0
3, 118260, Note_on_c, 8, 79, 0
3, 118260, Note_on_c, 7, 62, 0
3, 118264, Note_on_c, 7, 60, 0
3, 118280, Control_c, 0, 64, 0
3, 118396, Note_on_c, 8, 70, 63
3, 118396, Note_on_c, 8, 82, 67
3, 118468, Note_on_c, 8, 70, 0
3, 118496, Note_on_c, 8, 82, 0
3, 118604, Note_on_c, 8, 82, 74
3, 118604, Note_on_c, 8, 70, 74
3, 118612, Note_on_c, 7, 58, 53
3, 118620, Note_on_c, 7, 62, 58
3, 118628, Note_on_c, 7, 52, 52
3, 118644, Note_on_c, 7, 62, 0
3, 118664, Note_on_c, 7, 52, 0
3, 118668, Note_on_c, 8, 70, 0
3, 118684, Note_on_c, 8, 82, 0
3, 118688, Note_on_c, 7, 58, 0
3, 118736, Note_on_c, 7, 58, 48
3, 118744, Note_on_c, 7, 52, 61
3, 118752, Note_on_c, 7, 62, 45
3, 118752, Note_on_c, 8, 84, 58
3, 118768, Note_on_c, 8, 72, 53
3, 118776, Note_on_c, 8, 83, 30
3, 118800, Note_on_c, 7, 62, 0
3, 118808, Note_on_c, 8, 83, 0
3, 118828, Note_on_c, 7, 52, 0
3, 118828, Note_on_c, 8, 84, 0
3, 118844, Note_on_c, 8, 72, 0
3, 118860, Note_on_c, 7, 58, 0
3, 118908, Control_c, 0, 64, 127
3, 118976, Note_on_c, 8, 70, 62
3, 118976, Note_on_c, 7, 58, 63
3, 118984, Note_on_c, 7, 62, 52
3, 118992, Note_on_c, 7, 52, 51
3, 119008, Note_on_c, 8, 82, 21
3, 119020, Note_on_c, 7, 62, 0
3, 119020, Note_on_c, 7, 52, 0
3, 119028, Note_on_c, 8, 70, 0
3, 119036, Control_c, 0, 64, 0
3, 119044, Note_on_c, 7, 58, 0
3, 119044, Note_on_c, 8, 82, 0
3, 119176, Note_on_c, 7, 58, 64
3, 119184, Note_on_c, 7, 52, 71
3, 119184, Note_on_c, 7, 62, 64
3, 119188, Note_on_c, 8, 73, 71
3, 119200, Note_on_c, 8, 85, 74
3, 119316, Control_c, 0, 64, 127
3, 119360, Note_on_c, 7, 62, 0
3, 119368, Note_on_c, 7, 52, 0
3, 119376, Control_c, 0, 64, 0
3, 119384, Note_on_c, 8, 73, 0
3, 119384, Note_on_c, 8, 85, 0
3, 119392, Note_on_c, 7, 58, 0
3, 119476, Note_on_c, 7, 58, 48
3, 119476, Note_on_c, 8, 84, 64
3, 119476, Note_on_c, 7, 52, 51
3, 119484, Note_on_c, 7, 62, 48
3, 119492, Note_on_c, 8, 72, 53
3, 119524, Note_on_c, 7, 52, 0
3, 119544, Control_c, 0, 64, 127
3, 119560, Note_on_c, 8, 84, 0
3, 119560, Note_on_c, 7, 62, 0
3, 119592, Note_on_c, 8, 72, 0
3, 119600, Note_on_c, 7, 58, 0
3, 119724, Control_c, 0, 64, 0
3, 119724, Note_on_c, 8, 82, 55
3, 119732, Note_on_c, 8, 70, 57
3, 119740, Note_on_c, 7, 56, 43
3, 119744, Note_on_c, 7, 60, 44
3, 119752, Note_on_c, 7, 63, 31
3, 119784, Note_on_c, 7, 60, 0
3, 119784, Note_on_c, 7, 63, 0
3, 119792, Note_on_c, 8, 70, 0
3, 119824, Note_on_c, 8, 82, 0
3, 119856, Note_on_c, 7, 56, 0
3, 120108, Note_on_c, 7, 60, 60
3, 120108, Note_on_c, 7, 63, 57
3, 120124, Note_on_c, 7, 56, 36
3, 120140, Note_on_c, 7, 60, 0
3, 120140, Note_on_c, 7, 63, 0
3, 120232, Note_on_c, 8, 75, 60
3, 120240, Note_on_c, 8, 90, 52
3, 120256, Note_on_c, 7, 56, 0
3, 120260, Note_on_c, 8, 78, 33
3, 120292, Note_on_c, 8, 78, 0
3, 120408, Note_on_c, 8, 75, 0
3, 120408, Note_on_c, 8, 90, 0
3, 120524, Note_on_c, 7, 60, 24
3, 120532, Note_on_c, 8, 87, 30
3, 120556, Note_on_c, 7, 60, 0
3, 120564, Note_on_c, 8, 87, 0
3, 120640, Note_on_c, 8, 90, 71
3, 120640, Note_on_c, 7, 75, 64
3, 120772, Note_on_c, 8, 90, 0
3, 120800, Note_on_c, 7, 75, 0
3, 120864, Note_on_c, 8, 90, 60
3, 120872, Note_on_c, 7, 63, 52
3, 120880, Note_on_c, 7, 60, 47
3, 120880, Note_on_c, 8, 75, 48
3, 120900, Note_on_c, 7, 56, 35
3, 120916, Note_on_c, 7, 60, 0
3, 120932, Note_on_c, 7, 63, 0
3, 120940, Note_on_c, 8, 75, 0
3, 120972, Note_on_c, 8, 90, 0
3, 121016, Note_on_c, 7, 56, 0
3, 121040, Note_on_c, 8, 87, 31
3, 121204, Note_on_c, 8, 87, 0
3, 121256, Note_on_c, 8, 75, 57
3, 121264, Note_on_c, 8, 90, 46
3, 121272, Note_on_c, 7, 62, 53
3, 121272, Note_on_c, 7, 66, 59
3, 121276, Note_on_c, 7, 56, 49
3, 121356, Note_on_c, 7, 66, 0
3, 121364, Note_on_c, 7, 62, 0
3, 121372, Note_on_c, 8, 75, 0
3, 121372, Note_on_c, 8, 90, 0
3, 121388, Note_on_c, 7, 56, 0
3, 121648, Note_on_c, 7, 62, 49
3, 121680, Note_on_c, 7, 62, 0
3, 121780, Note_on_c, 7, 75, 72
3, 121788, Note_on_c, 8, 90, 63
3, 121804, Control_c, 0, 64, 127
3, 121912, Note_on_c, 7, 75, 0
3, 121912, Note_on_c, 8, 90, 0
3, 122036, Note_on_c, 8, 90, 70
3, 122040, Note_on_c, 7, 66, 72
3, 122040, Note_on_c, 8, 75, 68
3, 122040, Note_on_c, 7, 62, 63
3, 122040, Note_on_c, 7, 56, 61
3, 122056, Control_c, 0, 64, 0
3, 122088, Note_on_c, 7, 62, 0
3, 122096, Note_on_c, 7, 66, 0
3, 122104, Note_on_c, 8, 75, 0
3, 122120, Note_on_c, 8, 90, 0
3, 122172, Note_on_c, 7, 56, 0
3, 122244, Note_on_c, 8, 87, 27
3, 122344, Note_on_c, 8, 87, 0
3, 122404, Note_on_c, 8, 75, 59
3, 122412, Note_on_c, 7, 56, 64
3, 122412, Note_on_c, 7, 62, 55
3, 122416, Note_on_c, 8, 90, 51
3, 122416, Note_on_c, 7, 66, 69
3, 122460, Note_on_c, 8, 90, 0
3, 122472, Note_on_c, 8, 75, 0
3, 122588, Note_on_c, 8, 87, 23
3, 122644, Note_on_c, 7, 66, 0
3, 122680, Control_c, 0, 64, 127
3, 122720, Note_on_c, 7, 62, 0
3, 122728, Note_on_c, 7, 56, 0
3, 122728, Note_on_c, 8, 87, 0
3, 122780, Note_on_c, 7, 62, 54
3, 122788, Note_on_c, 7, 65, 67
3, 122796, Control_c, 0, 64, 0
3, 122796, Note_on_c, 8, 75, 64
3, 122796, Note_on_c, 8, 90, 67
3, 122804, Note_on_c, 7, 60, 48
3, 122812, Note_on_c, 7, 55, 54
3, 123184, Note_on_c, 8, 75, 0
3, 123228, Note_on_c, 8, 90, 0
3, 123284, Note_on_c, 7, 65, 0
3, 123312, Note_on_c, 8, 87, 59
3, 123384, Note_on_c, 7, 60, 0
3, 123400, Note_on_c, 7, 62, 0
3, 123544, Note_on_c, 8, 87, 0
3, 123552, Note_on_c, 7, 62, 24
3, 123684, Note_on_c, 8, 87, 68
3, 123684, Note_on_c, 8, 75, 56
3, 123700, Note_on_c, 7, 55, 0
3, 123744, Note_on_c, 7, 62, 0
3, 123852, Note_on_c, 8, 75, 0
3, 123884, Note_on_c, 8, 87, 0
3, 123960, Note_on_c, 7, 62, 34
3, 123992, Note_on_c, 7, 62, 0
3, 124068, Note_on_c, 7, 62, 40
3, 124068, Note_on_c, 8, 87, 71
3, 124076, Note_on_c, 7, 65, 53
3, 124084, Note_on_c, 7, 55, 46
3, 124084, Note_on_c, 7, 60, 53
3, 124108, Control_c, 0, 64, 127
3, 124124, Control_c, 0, 64, 0
3, 124208, Control_c, 0, 64, 127
3, 124224, Note_on_c, 7, 60, 0
3, 124228, Note_on_c, 7, 65, 0
3, 124232, Note_on_c, 7, 55, 0
3, 124236, Note_on_c, 7, 62, 0
3, 124276, Note_on_c, 8, 87, 0
3, 124308, Control_c, 0, 64, 0
3, 124432, Note_on_c, 7, 62, 64
3, 124436, Note_on_c, 7, 65, 71
3, 124440, Note_on_c, 7, 60, 53
3, 124444, Note_on_c, 7, 55, 55
3, 124448, Control_c, 0, 64, 127
3, 124452, Note_on_c, 8, 87, 77
3, 124508, Note_on_c, 7, 65, 0
3, 124576, Note_on_c, 7, 60, 0
3, 124576, Note_on_c, 7, 55, 0
3, 124600, Note_on_c, 7, 62, 0
3, 124640, Note_on_c, 8, 87, 0
3, 124692, Note_on_c, 8, 89, 74
3, 124692, Note_on_c, 7, 62, 52
3, 124700, Note_on_c, 7, 65, 68
3, 124708, Note_on_c, 7, 60, 54
3, 124716, Note_on_c, 7, 55, 36
3, 124740, Note_on_c, 7, 65, 0
3, 124740, Control_c, 0, 64, 0
3, 124744, Note_on_c, 7, 60, 0
3, 124756, Note_on_c, 7, 55, 0
3, 124760, Note_on_c, 7, 62, 0
3, 124792, Note_on_c, 8, 89, 0
3, 124824, Note_on_c, 7, 65, 59
3, 124832, Note_on_c, 7, 55, 60
3, 124832, Note_on_c, 7, 62, 66
3, 124840, Note_on_c, 7, 60, 59
3, 124840, Note_on_c, 8, 87, 69
3, 124848, Control_c, 0, 64, 127
3, 124964, Note_on_c, 7, 65, 0
3, 124984, Note_on_c, 7, 55, 0
3, 124984, Note_on_c, 7, 60, 0
3, 124992, Note_on_c, 7, 62, 0
3, 124992, Note_on_c, 8, 87, 0
3, 125092, Note_on_c, 7, 65, 81
3, 125092, Note_on_c, 7, 62, 65
3, 125100, Note_on_c, 7, 60, 71
3, 125108, Note_on_c, 7, 55, 70
3, 125116, Control_c, 0, 64, 0
3, 125232, Control_c, 0, 64, 127
3, 125332, Note_on_c, 7, 55, 0
3, 125348, Note_on_c, 7, 65, 0
3, 125348, Note_on_c, 7, 60, 0
3, 125364, Note_on_c, 7, 62, 0
3, 125472, Note_on_c, 7, 62, 68
3, 125480, Note_on_c, 7, 60, 55
3, 125484, Note_on_c, 7, 65, 67
3, 125484, Note_on_c, 8, 87, 79
3, 125496, Note_on_c, 7, 55, 46
3, 125516, Note_on_c, 7, 65, 0
3, 125524, Control_c, 0, 64, 0
3, 125532, Note_on_c, 7, 62, 0
3, 125532, Note_on_c, 7, 60, 0
3, 125532, Note_on_c, 7, 55, 0
3, 125576, Note_on_c, 8, 87, 0
3, 125596, Note_on_c, 7, 62, 60
3, 125608, Note_on_c, 7, 55, 71
3, 125608, Note_on_c, 7, 65, 68
3, 125616, Note_on_c, 7, 60, 67
3, 125624, Note_on_c, 8, 89, 71
3, 125656, Control_c, 0, 64, 127
3, 125708, Note_on_c, 7, 62, 0
3, 125724, Note_on_c, 7, 55, 0
3, 125724, Note_on_c, 7, 65, 0
3, 125772, Note_on_c, 7, 60, 0
3, 125796, Note_on_c, 8, 89, 0
3, 125864, Note_on_c, 7, 56, 77
3, 125872, Note_on_c, 7, 65, 84
3, 125872, Note_on_c, 7, 60, 69
3, 125876, Note_on_c, 7, 61, 65
3, 125880, Note_on_c, 8, 91, 71
3, 125880, Control_c, 0, 64, 0
3, 125884, Note_on_c, 8, 79, 71
3, 125904, Note_on_c, 8, 89, 35
3, 125940, Note_on_c, 8, 89, 0
3, 126004, Control_c, 0, 64, 127
3, 126056, Note_on_c, 8, 79, 0
3, 126064, Note_on_c, 8, 91, 0
3, 126096, Note_on_c, 7, 56, 0
3, 126096, Note_on_c, 7, 65, 0
3, 126112, Note_on_c, 7, 61, 0
3, 126116, Note_on_c, 7, 60, 0
3, 126232, Note_on_c, 8, 92, 76
3, 126232, Note_on_c, 8, 80, 72
3, 126240, Note_on_c, 7, 61, 75
3, 126240, Note_on_c, 8, 87, 77
3, 126248, Note_on_c, 7, 65, 85
3, 126248, Note_on_c, 7, 56, 77
3, 126252, Note_on_c, 7, 60, 71
3, 126256, Control_c, 0, 64, 0
3, 126272, Note_on_c, 7, 58, 34
3, 126372, Control_c, 0, 64, 127
3, 126412, Note_on_c, 7, 65, 0
3, 126412, Note_on_c, 7, 60, 0
3, 126420, Note_on_c, 7, 56, 0
3, 126428, Note_on_c, 7, 58, 0
3, 126440, Note_on_c, 8, 80, 0
3, 126440, Note_on_c, 7, 61, 0
3, 126456, Note_on_c, 8, 87, 0
3, 126464, Note_on_c, 8, 92, 0
3, 126612, Note_on_c, 7, 61, 83
3, 126620, Note_on_c, 8, 82, 74
3, 126620, Note_on_c, 7, 65, 87
3, 126624, Note_on_c, 8, 87, 81
3, 126624, Note_on_c, 7, 56, 81
3, 126624, Note_on_c, 8, 94, 74
3, 126632, Note_on_c, 7, 60, 63
3, 126636, Control_c, 0, 64, 0
3, 126644, Note_on_c, 7, 58, 31
3, 126664, Note_on_c, 7, 60, 0
3, 126680, Note_on_c, 7, 58, 0
3, 126736, Note_on_c, 8, 87, 0
3, 126764, Control_c, 0, 64, 127
3, 126788, Note_on_c, 7, 65, 0
3, 126788, Note_on_c, 7, 56, 0
3, 126788, Note_on_c, 8, 94, 0
3, 126792, Note_on_c, 8, 82, 0
3, 126804, Note_on_c, 7, 61, 0
3, 126988, Note_on_c, 7, 61, 83
3, 126996, Note_on_c, 7, 56, 87
3, 126996, Note_on_c, 7, 65, 85
3, 127004, Note_on_c, 8, 96, 81
3, 127004, Control_c, 0, 64, 0
3, 127036, Note_on_c, 8, 84, 88
3, 127128, Control_c, 0, 64, 127
3, 127144, Note_on_c, 8, 96, 0
3, 127144, Note_on_c, 8, 84, 0
3, 127172, Note_on_c, 7, 65, 0
3, 127212, Note_on_c, 7, 56, 0
3, 127244, Note_on_c, 7, 61, 0
3, 127372, Note_on_c, 7, 61, 81
3, 127376, Note_on_c, 7, 66, 84
3, 127380, Note_on_c, 8, 92, 79
3, 127380, Note_on_c, 8, 85, 84
3, 127380, Note_on_c, 8, 97, 80
3, 127396, Control_c, 0, 64, 0
3, 127396, Note_on_c, 7, 55, 78
3, 127504, Note_on_c, 8, 85, 0
3, 127512, Note_on_c, 8, 92, 0
3, 127520, Note_on_c, 8, 97, 0
3, 127520, Control_c, 0, 64, 127
3, 127544, Note_on_c, 7, 66, 0
3, 127544, Note_on_c, 7, 55, 0
3, 127576, Note_on_c, 7, 61, 0
3, 127768, Note_on_c, 8, 100, 75
3, 127772, Note_on_c, 7, 61, 83
3, 127776, Note_on_c, 7, 55, 88
3, 127776, Note_on_c, 7, 64, 91
3, 127780, Note_on_c, 8, 88, 74
3, 127780, Note_on_c, 8, 95, 76
3, 127780, Control_c, 0, 64, 0
3, 127860, Note_on_c, 8, 88, 0
3, 127884, Note_on_c, 8, 95, 0
3, 127900, Control_c, 0, 64, 127
3, 127904, Note_on_c, 8, 100, 0
3, 127912, Note_on_c, 7, 64, 0
3, 127944, Note_on_c, 7, 55, 0
3, 127968, Note_on_c, 7, 61, 0
3, 128152, Note_on_c, 8, 108, 74
3, 128152, Control_c, 0, 64, 0
3, 128160, Note_on_c, 7, 64, 92
3, 128160, Note_on_c, 8, 107, 99
3, 128160, Note_on_c, 7, 61, 90
3, 128168, Note_on_c, 8, 95, 71
3, 128168, Note_on_c, 7, 55, 90
3, 128172, Note_on_c, 8, 96, 68
3, 128176, Note_on_c, 8, 102, 32
3, 128208, Note_on_c, 8, 102, 0
3, 128284, Control_c, 0, 64, 127
3, 128292, Note_on_c, 8, 107, 0
3, 128300, Note_on_c, 8, 108, 0
3, 128328, Note_on_c, 7, 64, 0
3, 128336, Note_on_c, 8, 96, 0
3, 128344, Note_on_c, 7, 55, 0
3, 128368, Note_on_c, 8, 95, 0
3, 128400, Note_on_c, 7, 61, 0
3, 128536, Control_c, 0, 64, 0
3, 128536, Note_on_c, 7, 61, 87
3, 128544, Note_on_c, 7, 64, 91
3, 128544, Note_on_c, 7, 55, 88
3, 128552, Note_on_c, 8, 107, 108
3, 128560, Note_on_c, 8, 95, 80
3, 128560, Note_on_c, 8, 100, 74
3, 128652, Note_on_c, 8, 107, 0
3, 128660, Note_on_c, 8, 95, 0
3, 128668, Note_on_c, 8, 100, 0
3, 128668, Control_c, 0, 64, 127
3, 128684, Note_on_c, 7, 64, 0
3, 128700, Note_on_c, 7, 55, 0
3, 128792, Note_on_c, 7, 61, 0
3, 128860, Control_c, 0, 64, 0
3, 128904, Note_on_c, 7, 60, 79
3, 128904, Note_on_c, 7, 63, 84
3, 128908, Note_on_c, 7, 58, 57
3, 128916, Note_on_c, 8, 106, 75
3, 128916, Note_on_c, 7, 53, 71
3, 128920, Note_on_c, 8, 94, 79
3, 128924, Note_on_c, 8, 99, 62
3, 128952, Note_on_c, 8, 99, 0
3, 128952, Note_on_c, 8, 102, 25
3, 128984, Note_on_c, 8, 102, 0
3, 129008, Note_on_c, 7, 63, 0
3, 129032, Note_on_c, 8, 94, 0
3, 129068, Note_on_c, 8, 106, 0
3, 129076, Note_on_c, 7, 53, 0
3, 129140, Note_on_c, 8, 104, 60
3, 129144, Note_on_c, 7, 60, 0
3, 129156, Note_on_c, 7, 58, 0
3, 129168, Note_on_c, 8, 104, 0
3, 129184, Note_on_c, 8, 103, 44
3, 129248, Note_on_c, 8, 103, 0
3, 129356, Note_on_c, 7, 60, 34
3, 129392, Note_on_c, 7, 60, 0
3, 129432, Note_on_c, 8, 106, 78
3, 129616, Note_on_c, 8, 106, 0
3, 129676, Note_on_c, 7, 63, 59
3, 129676, Note_on_c, 8, 102, 48
3, 129676, Note_on_c, 7, 60, 48
3, 129692, Note_on_c, 7, 58, 44
3, 129700, Note_on_c, 8, 103, 73
3, 129708, Note_on_c, 7, 63, 0
3, 129776, Note_on_c, 7, 60, 0
3, 129792, Note_on_c, 8, 102, 0
3, 129792, Note_on_c, 8, 103, 0
3, 129824, Note_on_c, 7, 58, 0
3, 129900, Note_on_c, 8, 99, 55
3, 130064, Note_on_c, 8, 99, 0
3, 130108, Note_on_c, 8, 96, 60
3, 130132, Note_on_c, 7, 60, 41
3, 130172, Note_on_c, 7, 60, 0
3, 130184, Note_on_c, 8, 96, 0
3, 130272, Note_on_c, 8, 94, 49
3, 130440, Note_on_c, 8, 94, 0
3, 130480, Note_on_c, 7, 63, 52
3, 130512, Note_on_c, 7, 59, 30
3, 130540, Note_on_c, 7, 63, 0
3, 130564, Note_on_c, 7, 59, 0
3, 130880, Note_on_c, 7, 63, 56
3, 130888, Note_on_c, 7, 60, 38
3, 130896, Note_on_c, 7, 56, 39
3, 130904, Note_on_c, 7, 63, 0
3, 130928, Note_on_c, 7, 60, 0
3, 130948, Note_on_c, 7, 56, 0
3, 130996, Note_on_c, 8, 99, 81
3, 131188, Note_on_c, 8, 99, 0
3, 131228, Note_on_c, 7, 60, 51
3, 131248, Note_on_c, 7, 56, 33
3, 131256, Note_on_c, 8, 96, 74
3, 131328, Note_on_c, 7, 60, 0
3, 131328, Note_on_c, 7, 56, 0
3, 131364, Note_on_c, 8, 96, 0
3, 131436, Note_on_c, 8, 92, 51
3, 131612, Note_on_c, 7, 60, 51
3, 131620, Note_on_c, 7, 63, 51
3, 131620, Note_on_c, 7, 56, 37
3, 131628, Note_on_c, 8, 91, 64
3, 131636, Note_on_c, 8, 92, 0
3, 131660, Note_on_c, 7, 63, 0
3, 131672, Note_on_c, 8, 91, 0
3, 131696, Note_on_c, 7, 60, 0
3, 131744, Note_on_c, 7, 56, 0
3, 131804, Note_on_c, 8, 95, 71
3, 131936, Note_on_c, 8, 95, 0
3, 132012, Note_on_c, 7, 63, 47
3, 132020, Note_on_c, 8, 94, 74
3, 132028, Note_on_c, 7, 58, 35
3, 132036, Note_on_c, 7, 59, 56
3, 132044, Note_on_c, 7, 63, 0
3, 132136, Note_on_c, 8, 94, 0
3, 132136, Note_on_c, 7, 59, 0
3, 132144, Note_on_c, 7, 58, 0
3, 132196, Note_on_c, 8, 92, 64
3, 132336, Note_on_c, 8, 92, 0
3, 132376, Note_on_c, 8, 94, 46
3, 132428, Note_on_c, 7, 58, 23
3, 132428, Note_on_c, 7, 59, 26
3, 132444, Note_on_c, 8, 92, 52
3, 132476, Note_on_c, 8, 94, 0
3, 132476, Note_on_c, 7, 58, 0
3, 132488, Note_on_c, 7, 59, 0
3, 132520, Note_on_c, 8, 92, 0
3, 132544, Note_on_c, 8, 90, 37
3, 132644, Note_on_c, 8, 90, 0
3, 132720, Note_on_c, 8, 89, 66
3, 132784, Note_on_c, 7, 63, 53
3, 132836, Note_on_c, 7, 59, 31
3, 132860, Note_on_c, 7, 63, 0
3, 132872, Note_on_c, 8, 89, 0
3, 132876, Note_on_c, 7, 59, 0
3, 132960, Note_on_c, 8, 87, 12
3, 133016, Note_on_c, 8, 87, 0
3, 133128, Note_on_c, 8, 85, 57
3, 133160, Note_on_c, 8, 86, 31
3, 133192, Note_on_c, 8, 86, 0
3, 133236, Note_on_c, 8, 85, 0
3, 133244, Note_on_c, 7, 63, 36
3, 133284, Note_on_c, 7, 63, 0
3, 133332, Note_on_c, 8, 83, 27
3, 133508, Note_on_c, 8, 83, 0
3, 133540, Note_on_c, 7, 63, 60
3, 133544, Note_on_c, 7, 59, 54
3, 133560, Note_on_c, 7, 58, 32
3, 133576, Note_on_c, 7, 63, 0
3, 133576, Note_on_c, 7, 53, 34
3, 133608, Note_on_c, 7, 53, 0
3, 133684, Note_on_c, 7, 59, 0
3, 133684, Note_on_c, 8, 86, 82
3, 133700, Note_on_c, 7, 58, 0
3, 133708, Note_on_c, 8, 74, 65
3, 133868, Note_on_c, 8, 74, 0
3, 133876, Note_on_c, 8, 86, 0
3, 133916, Note_on_c, 7, 59, 43
3, 133924, Note_on_c, 8, 83, 66
3, 134008, Note_on_c, 8, 83, 0
3, 134092, Note_on_c, 8, 79, 22
3, 134100, Note_on_c, 7, 59, 0
3, 134248, Note_on_c, 8, 79, 0
3, 134292, Note_on_c, 7, 59, 55
3, 134300, Note_on_c, 8, 63, 57
3, 134316, Note_on_c, 8, 74, 41
3, 134324, Note_on_c, 7, 58, 28
3, 134340, Note_on_c, 8, 63, 0
3, 134348, Note_on_c, 8, 74, 0
3, 134456, Note_on_c, 8, 79, 76
3, 134500, Note_on_c, 7, 58, 0
3, 134540, Note_on_c, 7, 59, 0
3, 134608, Note_on_c, 8, 79, 0
3, 134680, Note_on_c, 8, 74, 76
3, 134684, Note_on_c, 7, 63, 55
3, 134688, Note_on_c, 7, 59, 53
3, 134708, Note_on_c, 7, 58, 29
3, 134740, Note_on_c, 7, 63, 0
3, 134780, Note_on_c, 8, 74, 0
3, 134784, Note_on_c, 7, 59, 0
3, 134792, Note_on_c, 7, 58, 0
3, 134864, Note_on_c, 8, 71, 27
3, 135016, Note_on_c, 8, 71, 0
3, 135088, Note_on_c, 7, 62, 44
3, 135088, Note_on_c, 7, 58, 44
3, 135096, Note_on_c, 7, 55, 44
3, 135124, Note_on_c, 7, 62, 0
3, 135180, Note_on_c, 7, 58, 0
3, 135196, Note_on_c, 8, 77, 76
3, 135224, Note_on_c, 7, 55, 0
3, 135356, Note_on_c, 8, 77, 0
3, 135356, Note_on_c, 8, 76, 50
3, 135432, Note_on_c, 8, 76, 0
3, 135432, Note_on_c, 8, 75, 45
3, 135480, Note_on_c, 7, 58, 30
3, 135512, Note_on_c, 8, 75, 0
3, 135520, Note_on_c, 8, 72, 47
3, 135548, Note_on_c, 7, 58, 0
3, 135548, Note_on_c, 8, 72, 0
3, 135628, Note_on_c, 8, 74, 74
3, 135796, Note_on_c, 8, 74, 0
3, 136220, Note_on_c, 7, 62, 59
3, 136228, Note_on_c, 7, 58, 48
3, 136228, Note_on_c, 8, 72, 94
3, 136244, Note_on_c, 7, 55, 39
3, 136252, Note_on_c, 7, 62, 0
3, 136296, Note_on_c, 7, 55, 0
3, 136320, Note_on_c, 7, 58, 0
3, 136428, Note_on_c, 8, 71, 55
3, 136468, Note_on_c, 8, 72, 0
3, 136536, Note_on_c, 8, 70, 58
3, 136544, Note_on_c, 8, 71, 0
3, 136628, Note_on_c, 8, 70, 0
3, 136636, Note_on_c, 8, 69, 62
3, 136652, Note_on_c, 7, 58, 35
3, 136652, Note_on_c, 7, 62, 34
3, 136676, Note_on_c, 7, 55, 24
3, 136680, Note_on_c, 7, 62, 0
3, 136696, Note_on_c, 8, 69, 0
3, 136736, Note_on_c, 7, 55, 0
3, 136760, Note_on_c, 7, 58, 0
3, 136764, Note_on_c, 8, 66, 64
3, 136920, Note_on_c, 8, 66, 0
3, 137012, Note_on_c, 8, 69, 89
3, 137036, Note_on_c, 7, 62, 49
3, 137052, Note_on_c, 7, 58, 37
3, 137068, Note_on_c, 7, 62, 0
3, 137076, Note_on_c, 7, 55, 31
3, 137128, Note_on_c, 8, 69, 0
3, 137128, Note_on_c, 7, 55, 0
3, 137152, Note_on_c, 7, 58, 0
3, 137212, Note_on_c, 8, 67, 51
3, 137360, Note_on_c, 8, 67, 0
3, 137392, Note_on_c, 7, 62, 57
3, 137400, Note_on_c, 7, 58, 39
3, 137436, Note_on_c, 7, 55, 25
3, 137460, Note_on_c, 7, 62, 0
3, 137460, Note_on_c, 7, 58, 0
3, 137480, Note_on_c, 7, 55, 0
3, 137568, Note_on_c, 7, 60, 36
3, 137684, Note_on_c, 7, 60, 0
3, 137760, Note_on_c, 7, 58, 64
3, 137860, Note_on_c, 7, 58, 0
3, 137924, Note_on_c, 7, 57, 31
3, 138060, Note_on_c, 7, 57, 0
3, 138160, Note_on_c, 7, 53, 47
3, 138192, Note_on_c, 7, 53, 0
3, 138284, Note_on_c, 8, 60, 60
3, 138392, Note_on_c, 8, 60, 0
3, 138392, Note_on_c, 8, 59, 43
3, 138468, Note_on_c, 8, 59, 0
3, 138484, Note_on_c, 8, 58, 34
3, 138556, Note_on_c, 8, 58, 0
3, 138592, Note_on_c, 8, 57, 32
3, 138624, Note_on_c, 8, 57, 0
3, 138956, Note_on_c, 7, 53, 49
3, 138992, Note_on_c, 7, 53, 0
3, 138992, Note_on_c, 7, 43, 20
3, 139032, Note_on_c, 7, 43, 0
3, 139332, Note_on_c, 7, 53, 34
3, 139340, Note_on_c, 7, 43, 33
3, 139364, Note_on_c, 7, 53, 0
3, 139404, Note_on_c, 7, 43, 0
3, 139432, Note_on_c, 8, 57, 32
3, 139488, Note_on_c, 8, 58, 52
3, 139516, Note_on_c, 8, 57, 0
3, 139556, Note_on_c, 8, 58, 0
3, 139616, Note_on_c, 8, 60, 54
3, 139696, Note_on_c, 8, 59, 36
3, 139704, Note_on_c, 8, 60, 0
3, 139764, Note_on_c, 8, 58, 44
3, 139784, Note_on_c, 8, 59, 0
3, 139832, Note_on_c, 8, 58, 0
3, 140107, Note_on_c, 8, 62, 39
3, 140113, Note_on_c, 8, 58, 43
3, 140145, Note_on_c, 8, 62, 0
3, 140152, Note_on_c, 8, 58, 0
3, 140201, Note_on_c, 8, 69, 87
3, 140441, Note_on_c, 8, 69, 0
3, 140481, Note_on_c, 8, 66, 46
3, 140540, Note_on_c, 8, 66, 0
3, 140604, Note_on_c, 8, 67, 48
3, 140786, Note_on_c, 8, 67, 0
3, 140839, Note_on_c, 8, 69, 70
3, 140852, Note_on_c, 8, 62, 57
3, 140852, Note_on_c, 8, 58, 52
3, 140887, Note_on_c, 8, 62, 0
3, 140890, Note_on_c, 7, 52, 34
3, 140928, Note_on_c, 7, 52, 0
3, 140934, Note_on_c, 8, 58, 0
3, 140955, Note_on_c, 8, 69, 0
3, 140998, Note_on_c, 8, 70, 49
3, 141168, Note_on_c, 8, 70, 0
3, 141236, Note_on_c, 8, 72, 55
3, 141299, Note_on_c, 8, 72, 0
3, 141346, Note_on_c, 8, 74, 81
3, 141348, Note_on_c, 8, 63, 51
3, 141350, Note_on_c, 7, 60, 33
3, 141372, Note_on_c, 7, 53, 49
3, 141587, Note_on_c, 8, 63, 0
3, 141590, Note_on_c, 8, 74, 0
3, 141639, Note_on_c, 7, 53, 0
3, 141649, Note_on_c, 8, 71, 37
3, 141715, Note_on_c, 8, 71, 0
3, 141754, Note_on_c, 7, 60, 0
3, 141767, Note_on_c, 8, 72, 43
3, 141950, Note_on_c, 8, 72, 0
3, 141995, Note_on_c, 8, 74, 74
3, 142006, Note_on_c, 7, 60, 48
3, 142009, Note_on_c, 7, 63, 58
3, 142040, Note_on_c, 7, 60, 0
3, 142047, Note_on_c, 7, 63, 0
3, 142082, Note_on_c, 8, 74, 0
3, 142123, Control_c, 0, 64, 127
3, 142162, Note_on_c, 8, 75, 56
3, 142254, Note_on_c, 8, 75, 0
3, 142383, Note_on_c, 8, 77, 67
3, 142414, Note_on_c, 7, 63, 38
3, 142450, Control_c, 0, 64, 0
3, 142458, Note_on_c, 7, 63, 0
3, 142470, Note_on_c, 8, 77, 0
3, 142612, Note_on_c, 8, 79, 24
3, 142672, Note_on_c, 8, 79, 0
3, 142770, Note_on_c, 8, 81, 59
3, 142846, Note_on_c, 8, 81, 0
3, 142859, Note_on_c, 7, 67, 61
3, 142866, Note_on_c, 7, 63, 48
3, 142870, Note_on_c, 7, 62, 41
3, 142885, Note_on_c, 8, 84, 77
3, 142888, Note_on_c, 7, 57, 52
3, 142896, Note_on_c, 8, 72, 58
3, 143085, Note_on_c, 8, 84, 0
3, 143108, Note_on_c, 8, 72, 0
3, 143109, Note_on_c, 7, 57, 0
3, 143121, Note_on_c, 7, 67, 0
3, 143148, Note_on_c, 7, 63, 0
3, 143162, Note_on_c, 7, 62, 0
3, 143512, Note_on_c, 8, 84, 68
3, 143514, Note_on_c, 7, 63, 53
3, 143523, Note_on_c, 7, 67, 49
3, 143525, Note_on_c, 7, 62, 48
3, 143529, Note_on_c, 8, 72, 56
3, 143535, Note_on_c, 7, 57, 47
3, 143572, Note_on_c, 7, 67, 0
3, 143579, Note_on_c, 7, 57, 0
3, 143606, Note_on_c, 8, 72, 0
3, 143608, Note_on_c, 8, 84, 0
3, 143614, Note_on_c, 7, 63, 0
3, 143619, Note_on_c, 7, 62, 0
3, 143894, Note_on_c, 7, 63, 57
3, 143900, Note_on_c, 8, 85, 65
3, 143902, Note_on_c, 8, 73, 68
3, 143906, Note_on_c, 7, 67, 67
3, 143913, Note_on_c, 7, 57, 57
3, 143982, Note_on_c, 8, 85, 0
3, 144002, Note_on_c, 8, 73, 0
3, 144056, Note_on_c, 8, 74, 56
3, 144073, Note_on_c, 8, 86, 52
3, 144123, Note_on_c, 7, 67, 0
3, 144207, Note_on_c, 7, 57, 0
3, 144278, Note_on_c, 8, 86, 0
3, 144296, Note_on_c, 8, 74, 0
3, 144300, Note_on_c, 7, 63, 0
3, 144424, Note_on_c, 7, 56, 36
3, 144426, Note_on_c, 8, 86, 62
3, 144429, Note_on_c, 7, 67, 33
3, 144434, Note_on_c, 8, 74, 51
3, 144445, Note_on_c, 7, 62, 48
3, 144592, Note_on_c, 8, 86, 0
3, 144604, Note_on_c, 8, 74, 0
3, 144616, Note_on_c, 7, 62, 0
3, 144630, Note_on_c, 7, 67, 0
3, 144652, Note_on_c, 7, 56, 0
3, 145080, Note_on_c, 7, 67, 66
3, 145080, Note_on_c, 7, 60, 48
3, 145088, Note_on_c, 8, 70, 68
3, 145112, Note_on_c, 7, 56, 21
3, 145120, Note_on_c, 7, 67, 0
3, 145136, Note_on_c, 8, 70, 0
3, 145148, Note_on_c, 7, 60, 0
3, 145212, Note_on_c, 7, 67, 52
3, 145212, Note_on_c, 7, 63, 25
3, 145228, Note_on_c, 7, 60, 22
3, 145232, Control_c, 0, 64, 127
3, 145232, Note_on_c, 8, 72, 45
3, 145304, Note_on_c, 7, 67, 0
3, 145320, Note_on_c, 7, 56, 0
3, 145344, Note_on_c, 7, 60, 0
3, 145356, Note_on_c, 7, 63, 0
3, 145380, Note_on_c, 8, 72, 0
3, 145472, Note_on_c, 7, 63, 54
3, 145472, Note_on_c, 7, 67, 58
3, 145472, Note_on_c, 8, 75, 69
3, 145488, Note_on_c, 7, 60, 47
3, 145504, Note_on_c, 7, 67, 0
3, 145512, Note_on_c, 7, 60, 0
3, 145520, Control_c, 0, 64, 0
3, 145536, Note_on_c, 7, 63, 0
3, 145536, Note_on_c, 8, 75, 0
3, 145588, Note_on_c, 7, 63, 36
3, 145596, Note_on_c, 7, 60, 49
3, 145596, Note_on_c, 7, 56, 25
3, 145596, Note_on_c, 8, 79, 63
3, 145644, Control_c, 0, 64, 127
3, 145652, Note_on_c, 7, 67, 25
3, 145656, Note_on_c, 8, 69, 27
3, 145680, Note_on_c, 7, 60, 0
3, 145688, Note_on_c, 7, 67, 0
3, 145688, Note_on_c, 8, 69, 0
3, 145712, Note_on_c, 7, 56, 0
3, 145712, Note_on_c, 8, 79, 0
3, 145736, Note_on_c, 7, 63, 0
3, 145844, Note_on_c, 8, 80, 53
3, 145852, Note_on_c, 7, 63, 53
3, 145856, Note_on_c, 7, 68, 59
3, 145856, Note_on_c, 7, 67, 63
3, 145856, Note_on_c, 7, 60, 53
3, 145860, Note_on_c, 8, 75, 55
3, 145876, Note_on_c, 8, 80, 0
3, 145880, Note_on_c, 7, 68, 0
3, 145880, Note_on_c, 7, 67, 0
3, 145888, Note_on_c, 7, 60, 0
3, 145896, Note_on_c, 8, 75, 0
3, 145912, Note_on_c, 7, 63, 0
3, 145912, Control_c, 0, 64, 0
3, 145960, Note_on_c, 7, 63, 60
3, 145980, Note_on_c, 7, 56, 38
3, 145980, Note_on_c, 7, 60, 44
3, 145980, Note_on_c, 7, 67, 37
3, 145988, Note_on_c, 8, 75, 56
3, 145996, Note_on_c, 8, 82, 56
3, 146088, Note_on_c, 8, 70, 2
3, 146160, Note_on_c, 8, 75, 0
3, 146192, Note_on_c, 7, 67, 0
3, 146204, Note_on_c, 7, 56, 0
3, 146212, Note_on_c, 7, 63, 0
3, 146220, Note_on_c, 7, 60, 0
3, 146220, Note_on_c, 8, 70, 0
3, 146228, Note_on_c, 8, 82, 0
3, 146336, Note_on_c, 7, 63, 52
3, 146336, Note_on_c, 7, 67, 65
3, 146344, Note_on_c, 7, 56, 46
3, 146344, Note_on_c, 8, 84, 70
3, 146348, Note_on_c, 7, 60, 49
3, 146352, Note_on_c, 8, 72, 60
3, 146544, Control_c, 0, 64, 127
3, 146552, Note_on_c, 7, 67, 0
3, 146552, Note_on_c, 8, 84, 0
3, 146560, Note_on_c, 7, 56, 0
3, 146560, Note_on_c, 8, 72, 0
3, 146612, Note_on_c, 7, 60, 0
3, 146620, Note_on_c, 7, 63, 0
3, 146628, Control_c, 0, 64, 0
3, 146712, Note_on_c, 7, 67, 57
3, 146720, Note_on_c, 7, 62, 50
3, 146720, Note_on_c, 7, 60, 36
3, 146728, Note_on_c, 8, 73, 31
3, 146736, Note_on_c, 8, 85, 26
3, 146752, Note_on_c, 7, 56, 23
3, 146760, Note_on_c, 8, 79, 24
3, 146768, Note_on_c, 8, 82, 29
3, 146776, Note_on_c, 8, 85, 0
3, 146784, Control_c, 0, 64, 127
3, 146788, Note_on_c, 7, 67, 0
3, 146788, Note_on_c, 8, 73, 0
3, 146792, Note_on_c, 8, 74, 63
3, 146792, Note_on_c, 8, 86, 38
3, 146844, Note_on_c, 8, 79, 0
3, 146852, Note_on_c, 7, 56, 0
3, 146852, Note_on_c, 8, 74, 0
3, 146852, Note_on_c, 8, 86, 0
3, 146868, Note_on_c, 7, 62, 0
3, 146876, Note_on_c, 7, 60, 0
3, 146900, Note_on_c, 8, 82, 0
3, 147000, Note_on_c, 7, 66, 63
3, 147004, Note_on_c, 8, 75, 60
3, 147004, Note_on_c, 8, 87, 67
3, 147004, Note_on_c, 7, 62, 47
3, 147024, Note_on_c, 7, 66, 0
3, 147028, Note_on_c, 8, 87, 0
3, 147036, Note_on_c, 7, 62, 0
3, 147044, Note_on_c, 8, 75, 0
3, 147044, Control_c, 0, 64, 0
3, 147116, Note_on_c, 7, 56, 55
3, 147120, Note_on_c, 7, 66, 56
3, 147124, Note_on_c, 7, 62, 50
3, 147136, Note_on_c, 8, 77, 58
3, 147144, Note_on_c, 8, 89, 45
3, 147160, Control_c, 0, 64, 127
3, 147192, Note_on_c, 8, 77, 0
3, 147192, Note_on_c, 8, 89, 0
3, 147292, Note_on_c, 7, 66, 0
3, 147308, Note_on_c, 7, 62, 0
3, 147316, Note_on_c, 7, 56, 0
3, 147384, Note_on_c, 7, 62, 68
3, 147392, Note_on_c, 8, 91, 73
3, 147392, Note_on_c, 7, 65, 71
3, 147400, Note_on_c, 7, 60, 49
3, 147400, Note_on_c, 8, 79, 71
3, 147408, Note_on_c, 7, 55, 51
3, 147432, Note_on_c, 8, 89, 31
3, 147436, Note_on_c, 7, 58, 26
3, 147440, Control_c, 0, 64, 0
3, 147452, Note_on_c, 7, 65, 0
3, 147452, Note_on_c, 7, 55, 0
3, 147460, Note_on_c, 8, 79, 0
3, 147468, Note_on_c, 8, 91, 0
3, 147468, Note_on_c, 8, 89, 0
3, 147476, Note_on_c, 7, 62, 0
3, 147476, Note_on_c, 7, 60, 0
3, 147476, Note_on_c, 7, 58, 0
3, 147560, Note_on_c, 7, 62, 32
3, 147560, Note_on_c, 7, 65, 50
3, 147568, Note_on_c, 7, 55, 22
3, 147568, Note_on_c, 7, 60, 48
3, 147576, Note_on_c, 8, 89, 55
3, 147592, Note_on_c, 8, 77, 37
3, 147632, Note_on_c, 7, 65, 0
3, 147660, Note_on_c, 7, 55, 0
3, 147668, Note_on_c, 7, 60, 0
3, 147668, Note_on_c, 8, 89, 0
3, 147668, Note_on_c, 8, 77, 0
3, 147676, Note_on_c, 7, 62, 0
3, 147868, Note_on_c, 7, 65, 64
3, 147868, Note_on_c, 7, 62, 50
3, 147876, Note_on_c, 8, 89, 73
3, 147884, Note_on_c, 7, 55, 47
3, 147884, Note_on_c, 8, 77, 62
3, 147884, Note_on_c, 7, 60, 39
3, 147900, Control_c, 0, 64, 127
3, 147976, Note_on_c, 7, 65, 0
3, 148008, Note_on_c, 7, 55, 0
3, 148024, Note_on_c, 7, 60, 0
3, 148040, Note_on_c, 8, 77, 0
3, 148048, Note_on_c, 7, 62, 0
3, 148084, Note_on_c, 8, 89, 0
3, 148132, Note_on_c, 8, 86, 65
3, 148132, Note_on_c, 7, 62, 58
3, 148140, Note_on_c, 7, 65, 70
3, 148148, Note_on_c, 7, 60, 56
3, 148156, Control_c, 0, 64, 0
3, 148160, Note_on_c, 7, 55, 53
3, 148284, Control_c, 0, 64, 127
3, 148408, Note_on_c, 8, 88, 13
3, 148432, Note_on_c, 7, 60, 0
3, 148440, Note_on_c, 7, 55, 0
3, 148448, Note_on_c, 7, 62, 0
3, 148464, Note_on_c, 7, 65, 0
3, 148524, Note_on_c, 7, 62, 40
3, 148548, Note_on_c, 8, 86, 0
3, 148548, Note_on_c, 8, 88, 0
3, 148556, Control_c, 0, 64, 0
3, 148556, Note_on_c, 7, 60, 26
3, 148572, Note_on_c, 7, 62, 0
3, 148592, Note_on_c, 7, 60, 0
3, 148640, Note_on_c, 7, 65, 61
3, 148648, Note_on_c, 7, 62, 45
3, 148664, Note_on_c, 8, 82, 61
3, 148664, Note_on_c, 7, 60, 56
3, 148672, Note_on_c, 7, 55, 48
3, 148680, Control_c, 0, 64, 127
3, 148756, Note_on_c, 7, 65, 0
3, 148764, Note_on_c, 7, 55, 0
3, 148772, Note_on_c, 7, 60, 0
3, 148788, Note_on_c, 7, 62, 0
3, 148796, Note_on_c, 8, 82, 0
3, 148916, Note_on_c, 8, 82, 78
3, 148924, Note_on_c, 7, 60, 67
3, 148924, Note_on_c, 7, 65, 79
3, 148928, Control_c, 0, 64, 0
3, 148928, Note_on_c, 7, 62, 73
3, 148932, Note_on_c, 7, 55, 64
3, 149048, Control_c, 0, 64, 127
3, 149104, Note_on_c, 7, 62, 0
3, 149116, Note_on_c, 7, 60, 0
3, 149116, Note_on_c, 7, 55, 0
3, 149132, Note_on_c, 7, 65, 0
3, 149256, Note_on_c, 7, 62, 66
3, 149288, Note_on_c, 7, 60, 32
3, 149296, Note_on_c, 8, 82, 0
3, 149304, Note_on_c, 7, 62, 0
3, 149324, Note_on_c, 7, 60, 0
3, 149332, Control_c, 0, 64, 0
3, 149404, Note_on_c, 7, 62, 54
3, 149412, Note_on_c, 7, 65, 66
3, 149428, Note_on_c, 7, 60, 37
3, 149432, Note_on_c, 8, 74, 45
3, 149448, Control_c, 0, 64, 127
3, 149456, Note_on_c, 7, 65, 0
3, 149456, Note_on_c, 7, 55, 28
3, 149480, Note_on_c, 7, 60, 0
3, 149504, Note_on_c, 7, 55, 0
3, 149528, Note_on_c, 7, 62, 0
3, 149580, Note_on_c, 8, 74, 0
3, 149664, Note_on_c, 7, 62, 66
3, 149672, Note_on_c, 8, 74, 63
3, 149672, Note_on_c, 7, 65, 68
3, 149680, Control_c, 0, 64, 0
3, 149680, Note_on_c, 7, 60, 55
3, 149688, Note_on_c, 7, 55, 50
3, 149748, Note_on_c, 7, 65, 0
3, 149780, Note_on_c, 7, 60, 0
3, 149788, Note_on_c, 7, 62, 0
3, 149788, Note_on_c, 7, 55, 0
3, 149796, Control_c, 0, 64, 127
3, 149996, Note_on_c, 8, 74, 0
3, 150020, Note_on_c, 7, 62, 77
3, 150048, Note_on_c, 7, 60, 30
3, 150080, Note_on_c, 7, 60, 0
3, 150080, Control_c, 0, 64, 0
3, 150104, Note_on_c, 7, 62, 0
3, 150204, Note_on_c, 7, 60, 19
3, 150204, Control_c, 0, 64, 127
3, 150236, Note_on_c, 7, 60, 0
3, 150388, Note_on_c, 8, 77, 78
3, 150388, Note_on_c, 8, 84, 84
3, 150396, Note_on_c, 7, 61, 69
3, 150396, Note_on_c, 7, 56, 70
3, 150400, Note_on_c, 7, 60, 70
3, 150400, Note_on_c, 8, 80, 56
3, 150400, Note_on_c, 7, 65, 80
3, 150400, Note_on_c, 8, 72, 80
3, 150404, Control_c, 0, 64, 0
3, 150544, Control_c, 0, 64, 127
3, 150604, Note_on_c, 8, 84, 0
3, 150612, Note_on_c, 8, 72, 0
3, 150628, Note_on_c, 8, 77, 0
3, 150660, Note_on_c, 8, 80, 0
3, 150668, Note_on_c, 7, 56, 0
3, 150672, Note_on_c, 7, 60, 0
3, 150672, Note_on_c, 7, 65, 0
3, 150696, Note_on_c, 7, 61, 0
3, 150784, Note_on_c, 8, 82, 36
3, 150796, Note_on_c, 7, 70, 56
3, 150796, Note_on_c, 7, 61, 54
3, 150812, Note_on_c, 7, 60, 40
3, 150828, Note_on_c, 7, 70, 0
3, 150828, Control_c, 0, 64, 0
3, 150836, Note_on_c, 8, 82, 0
3, 150836, Note_on_c, 7, 60, 0
3, 150860, Note_on_c, 7, 61, 0
3, 150920, Note_on_c, 7, 61, 58
3, 150920, Note_on_c, 7, 56, 51
3, 150924, Note_on_c, 7, 65, 63
3, 150924, Note_on_c, 8, 84, 74
3, 150928, Note_on_c, 7, 60, 32
3, 150936, Note_on_c, 8, 77, 53
3, 150936, Note_on_c, 8, 72, 62
3, 151044, Note_on_c, 8, 84, 0
3, 151044, Note_on_c, 8, 72, 0
3, 151068, Note_on_c, 7, 65, 0
3, 151068, Note_on_c, 8, 77, 0
3, 151084, Control_c, 0, 64, 127
3, 151088, Note_on_c, 7, 56, 0
3, 151096, Note_on_c, 7, 60, 0
3, 151120, Note_on_c, 7, 61, 0
3, 151236, Control_c, 0, 64, 0
3, 151308, Note_on_c, 7, 65, 60
3, 151320, Note_on_c, 7, 61, 53
3, 151336, Note_on_c, 7, 56, 30
3, 151336, Note_on_c, 7, 60, 30
3, 151336, Control_c, 0, 64, 127
3, 151344, Note_on_c, 7, 65, 0
3, 151360, Note_on_c, 7, 60, 0
3, 151400, Note_on_c, 7, 61, 0
3, 151444, Note_on_c, 7, 56, 0
3, 151552, Note_on_c, 7, 63, 67
3, 151568, Note_on_c, 7, 60, 64
3, 151620, Note_on_c, 7, 63, 0
3, 151620, Control_c, 0, 64, 0
3, 151676, Note_on_c, 7, 61, 65
3, 151688, Note_on_c, 7, 64, 54
3, 151692, Note_on_c, 7, 60, 0
3, 151716, Note_on_c, 7, 64, 0
3, 151808, Note_on_c, 7, 61, 0
3, 151808, Note_on_c, 7, 63, 47
3, 151816, Note_on_c, 7, 66, 56
3, 151852, Note_on_c, 7, 62, 50
3, 151884, Note_on_c, 7, 63, 0
3, 151884, Note_on_c, 7, 66, 0
3, 151884, Note_on_c, 7, 62, 0
3, 151944, Note_on_c, 7, 67, 79
3, 151968, Note_on_c, 7, 65, 79
3, 152016, Note_on_c, 7, 67, 0
3, 152060, Note_on_c, 8, 69, 74
3, 152100, Note_on_c, 7, 65, 0
3, 152160, Note_on_c, 8, 69, 0
3, 152168, Note_on_c, 7, 67, 47
3, 152192, Note_on_c, 8, 70, 62
3, 152252, Note_on_c, 8, 70, 0
3, 152276, Note_on_c, 7, 67, 0
3, 152300, Note_on_c, 8, 72, 76
3, 152308, Note_on_c, 8, 70, 55
3, 152376, Note_on_c, 8, 72, 0
3, 152432, Note_on_c, 8, 73, 65
3, 152468, Note_on_c, 8, 71, 48
3, 152500, Note_on_c, 8, 73, 0
3, 152532, Note_on_c, 8, 71, 0
3, 152560, Note_on_c, 8, 70, 0
3, 152560, Note_on_c, 8, 75, 59
3, 152616, Note_on_c, 8, 72, 45
3, 152624, Note_on_c, 8, 75, 0
3, 152692, Note_on_c, 8, 76, 71
3, 152732, Note_on_c, 8, 75, 74
3, 152764, Note_on_c, 8, 72, 0
3, 152768, Note_on_c, 8, 76, 0
3, 152832, Note_on_c, 8, 78, 32
3, 152900, Note_on_c, 8, 78, 0
3, 152940, Note_on_c, 8, 79, 60
3, 152976, Note_on_c, 8, 75, 0
3, 153016, Note_on_c, 8, 79, 0
3, 153056, Note_on_c, 8, 80, 73
3, 153148, Note_on_c, 8, 80, 0
3, 153200, Note_on_c, 8, 81, 66
3, 153256, Note_on_c, 8, 81, 0
3, 153356, Note_on_c, 8, 82, 57
3, 153432, Note_on_c, 8, 82, 0
3, 153488, Note_on_c, 8, 84, 83
3, 153548, Note_on_c, 7, 63, 36
3, 153556, Note_on_c, 7, 60, 36
3, 153572, Note_on_c, 7, 58, 40
3, 153580, Note_on_c, 8, 84, 0
3, 153588, Note_on_c, 7, 60, 0
3, 153592, Note_on_c, 7, 63, 0
3, 153648, Note_on_c, 8, 79, 62
3, 153704, Note_on_c, 7, 58, 0
3, 153824, Note_on_c, 8, 79, 0
3, 154032, Note_on_c, 8, 67, 51
3, 154112, Note_on_c, 8, 67, 0
3, 154140, Note_on_c, 8, 68, 61
3, 154220, Note_on_c, 8, 68, 0
3, 154236, Note_on_c, 8, 72, 45
3, 154264, Control_c, 0, 64, 127
3, 154328, Note_on_c, 8, 72, 0
3, 154336, Note_on_c, 8, 75, 63
3, 154404, Control_c, 0, 64, 0
3, 154412, Note_on_c, 8, 75, 0
3, 154420, Note_on_c, 7, 54, 45
3, 154424, Note_on_c, 7, 64, 46
3, 154428, Note_on_c, 7, 59, 49
3, 154436, Note_on_c, 8, 71, 66
3, 154520, Note_on_c, 8, 71, 0
3, 154544, Note_on_c, 8, 72, 50
3, 154556, Control_c, 0, 64, 127
3, 154636, Note_on_c, 7, 59, 0
3, 154644, Note_on_c, 8, 76, 55
3, 154648, Note_on_c, 8, 72, 0
3, 154664, Note_on_c, 7, 54, 0
3, 154712, Note_on_c, 7, 64, 0
3, 154744, Note_on_c, 8, 78, 28
3, 154748, Note_on_c, 8, 76, 0
3, 154772, Note_on_c, 8, 78, 0
3, 154772, Control_c, 0, 64, 0
3, 154804, Note_on_c, 7, 65, 47
3, 154804, Note_on_c, 7, 60, 44
3, 154812, Note_on_c, 8, 75, 61
3, 154812, Note_on_c, 7, 55, 47
3, 154888, Note_on_c, 8, 75, 0
3, 154896, Note_on_c, 8, 76, 51
3, 154912, Control_c, 0, 64, 127
3, 154944, Note_on_c, 7, 55, 0
3, 154952, Note_on_c, 7, 60, 0
3, 155012, Note_on_c, 8, 80, 48
3, 155016, Note_on_c, 7, 65, 0
3, 155016, Note_on_c, 8, 76, 0
3, 155104, Note_on_c, 8, 83, 58
3, 155136, Note_on_c, 8, 80, 0
3, 155180, Note_on_c, 8, 83, 0
3, 155180, Control_c, 0, 64, 0
3, 155188, Note_on_c, 7, 66, 54
3, 155188, Note_on_c, 7, 56, 43
3, 155204, Note_on_c, 7, 61, 49
3, 155344, Control_c, 0, 64, 127
3, 155476, Note_on_c, 7, 56, 0
3, 155512, Note_on_c, 7, 66, 0
3, 155520, Note_on_c, 7, 61, 0
3, 155552, Control_c, 0, 64, 0
3, 155584, Note_on_c, 8, 79, 69
3, 155588, Note_on_c, 7, 67, 57
3, 155592, Note_on_c, 7, 63, 40
3, 155612, Note_on_c, 7, 57, 48
3, 155660, Note_on_c, 8, 79, 0
3, 155692, Control_c, 0, 64, 127
3, 155696, Note_on_c, 8, 80, 38
3, 155704, Note_on_c, 7, 57, 0
3, 155760, Note_on_c, 8, 84, 58
3, 155784, Note_on_c, 7, 63, 0
3, 155812, Note_on_c, 7, 67, 0
3, 155828, Note_on_c, 8, 80, 0
3, 155852, Note_on_c, 8, 87, 77
3, 155860, Note_on_c, 8, 84, 0
3, 155920, Control_c, 0, 64, 0
3, 155928, Note_on_c, 8, 87, 0
3, 155936, Note_on_c, 7, 64, 58
3, 155936, Note_on_c, 7, 68, 44
3, 155944, Note_on_c, 7, 58, 34
3, 155952, Note_on_c, 8, 83, 47
3, 156036, Control_c, 0, 64, 127
3, 156044, Note_on_c, 7, 68, 0
3, 156068, Note_on_c, 8, 83, 0
3, 156068, Note_on_c, 8, 84, 40
3, 156128, Note_on_c, 7, 64, 0
3, 156144, Note_on_c, 8, 88, 50
3, 156168, Note_on_c, 8, 84, 0
3, 156176, Note_on_c, 7, 58, 0
3, 156244, Note_on_c, 8, 91, 48
3, 156260, Note_on_c, 8, 88, 0
3, 156276, Note_on_c, 8, 91, 0
3, 156308, Note_on_c, 7, 64, 58
3, 156352, Control_c, 0, 64, 0
3, 156368, Note_on_c, 7, 64, 0
3, 156444, Note_on_c, 8, 88, 43
3, 156476, Control_c, 0, 64, 127
3, 156500, Note_on_c, 8, 88, 0
3, 156544, Note_on_c, 8, 91, 30
3, 156592, Note_on_c, 8, 91, 0
3, 156640, Note_on_c, 8, 95, 67
3, 156684, Control_c, 0, 64, 0
3, 156700, Note_on_c, 8, 95, 0
3, 156992, Note_on_c, 7, 63, 61
3, 157000, Note_on_c, 7, 58, 54
3, 157008, Note_on_c, 7, 59, 57
3, 157016, Note_on_c, 7, 54, 36
3, 157032, Note_on_c, 7, 59, 0
3, 157040, Note_on_c, 7, 63, 0
3, 157068, Note_on_c, 7, 54, 0
3, 157132, Note_on_c, 7, 58, 0
3, 157332, Note_on_c, 7, 63, 56
3, 157340, Note_on_c, 8, 95, 72
3, 157340, Note_on_c, 8, 83, 68
3, 157348, Note_on_c, 8, 87, 49
3, 157352, Note_on_c, 7, 58, 38
3, 157352, Note_on_c, 7, 59, 51
3, 157364, Note_on_c, 8, 93, 40
3, 157376, Note_on_c, 8, 87, 0
3, 157392, Note_on_c, 7, 63, 0
3, 157400, Note_on_c, 8, 93, 0
3, 157408, Note_on_c, 8, 83, 0
3, 157416, Note_on_c, 8, 95, 0
3, 157516, Note_on_c, 7, 58, 0
3, 157532, Note_on_c, 8, 90, 27
3, 157584, Note_on_c, 7, 59, 0
3, 157640, Note_on_c, 8, 90, 0
3, 157716, Note_on_c, 8, 95, 74
3, 157716, Note_on_c, 7, 59, 46
3, 157720, Note_on_c, 7, 63, 53
3, 157724, Note_on_c, 7, 54, 55
3, 157724, Note_on_c, 8, 83, 65
3, 157740, Note_on_c, 7, 58, 40
3, 157792, Note_on_c, 8, 95, 0
3, 157792, Note_on_c, 7, 63, 0
3, 157792, Note_on_c, 8, 83, 0
3, 157864, Note_on_c, 7, 59, 0
3, 157872, Note_on_c, 7, 54, 0
3, 157880, Note_on_c, 8, 90, 21
3, 157964, Note_on_c, 7, 58, 0
3, 158008, Note_on_c, 8, 90, 0
3, 158096, Note_on_c, 7, 63, 71
3, 158108, Note_on_c, 7, 59, 48
3, 158116, Note_on_c, 7, 58, 44
3, 158132, Note_on_c, 8, 95, 38
3, 158164, Note_on_c, 7, 63, 0
3, 158164, Note_on_c, 8, 95, 0
3, 158324, Note_on_c, 7, 58, 0
3, 158348, Note_on_c, 7, 59, 0
3, 158488, Note_on_c, 7, 59, 34
3, 158496, Note_on_c, 7, 63, 25
3, 158524, Note_on_c, 7, 63, 0
3, 158524, Note_on_c, 7, 58, 23
3, 158640, Note_on_c, 7, 58, 0
3, 158672, Note_on_c, 8, 94, 60
3, 158688, Note_on_c, 7, 59, 0
3, 158748, Note_on_c, 8, 90, 59
3, 158796, Note_on_c, 8, 94, 0
3, 158840, Note_on_c, 8, 90, 0
3, 158848, Note_on_c, 8, 89, 70
3, 158912, Note_on_c, 8, 89, 0
3, 158956, Note_on_c, 7, 59, 20
3, 158996, Note_on_c, 8, 90, 71
3, 159012, Note_on_c, 7, 59, 0
3, 159064, Note_on_c, 8, 90, 0
3, 159244, Note_on_c, 8, 85, 77
3, 159264, Note_on_c, 7, 63, 48
3, 159264, Note_on_c, 7, 59, 44
3, 159280, Note_on_c, 7, 58, 33
3, 159304, Note_on_c, 7, 63, 0
3, 159328, Note_on_c, 8, 85, 0
3, 159352, Note_on_c, 7, 59, 0
3, 159404, Note_on_c, 7, 58, 0
3, 159428, Note_on_c, 8, 84, 51
3, 159520, Note_on_c, 8, 84, 0
3, 159628, Note_on_c, 7, 62, 42
3, 159636, Note_on_c, 8, 82, 67
3, 159636, Note_on_c, 7, 65, 52
3, 159644, Note_on_c, 7, 60, 35
3, 159660, Note_on_c, 7, 65, 0
3, 159696, Note_on_c, 7, 62, 0
3, 159704, Note_on_c, 7, 60, 0
3, 159736, Note_on_c, 8, 82, 0
3, 159804, Note_on_c, 8, 81, 49
3, 159944, Note_on_c, 8, 81, 0
3, 160036, Note_on_c, 8, 82, 80
3, 160044, Note_on_c, 7, 65, 30
3, 160044, Note_on_c, 7, 62, 30
3, 160052, Note_on_c, 7, 60, 34
3, 160076, Note_on_c, 7, 65, 0
3, 160096, Note_on_c, 7, 60, 0
3, 160104, Note_on_c, 7, 62, 0
3, 160120, Note_on_c, 8, 82, 0
3, 160184, Note_on_c, 8, 84, 85
3, 160284, Note_on_c, 8, 84, 0
3, 160436, Note_on_c, 8, 81, 71
3, 160436, Note_on_c, 7, 62, 48
3, 160452, Note_on_c, 7, 65, 34
3, 160452, Note_on_c, 7, 60, 38
3, 160484, Note_on_c, 7, 60, 0
3, 160488, Note_on_c, 7, 65, 0
3, 160500, Note_on_c, 7, 62, 0
3, 160512, Note_on_c, 8, 81, 0
3, 160584, Note_on_c, 8, 77, 55
3, 160644, Note_on_c, 8, 77, 0
3, 160700, Note_on_c, 8, 77, 66
3, 160784, Note_on_c, 8, 77, 0
3, 160836, Note_on_c, 7, 65, 39
3, 160852, Note_on_c, 7, 62, 35
3, 160868, Note_on_c, 7, 65, 0
3, 160868, Note_on_c, 7, 60, 24
3, 160908, Note_on_c, 7, 60, 0
3, 160924, Note_on_c, 7, 62, 0
3, 160952, Note_on_c, 8, 74, 54
3, 160984, Note_on_c, 8, 74, 0
3, 161044, Note_on_c, 8, 74, 62
3, 161152, Note_on_c, 8, 74, 0
3, 161208, Note_on_c, 7, 65, 50
3, 161224, Note_on_c, 7, 62, 41
3, 161228, Note_on_c, 7, 60, 36
3, 161244, Note_on_c, 7, 65, 0
3, 161268, Note_on_c, 7, 62, 0
3, 161268, Note_on_c, 7, 60, 0
3, 161332, Note_on_c, 8, 77, 56
3, 161368, Note_on_c, 8, 77, 0
3, 161424, Note_on_c, 8, 77, 68
3, 161492, Note_on_c, 8, 77, 0
3, 161560, Note_on_c, 7, 65, 46
3, 161560, Note_on_c, 8, 70, 71
3, 161592, Note_on_c, 7, 65, 0
3, 161608, Note_on_c, 8, 70, 0
3, 161676, Note_on_c, 8, 70, 62
3, 161732, Note_on_c, 8, 70, 0
3, 161824, Note_on_c, 8, 74, 71
3, 161876, Note_on_c, 8, 74, 0
3, 161940, Note_on_c, 8, 74, 68
3, 161948, Note_on_c, 7, 65, 52
3, 161968, Note_on_c, 7, 62, 36
3, 161984, Note_on_c, 7, 65, 0
3, 161984, Note_on_c, 7, 60, 29
3, 162000, Note_on_c, 7, 62, 0
3, 162016, Note_on_c, 7, 60, 0
3, 162032, Note_on_c, 8, 74, 0
3, 162100, Note_on_c, 7, 65, 41
3, 162132, Note_on_c, 7, 65, 0
3, 162224, Note_on_c, 7, 65, 63
3, 162280, Note_on_c, 7, 65, 0
3, 162340, Note_on_c, 7, 62, 33
3, 162340, Note_on_c, 7, 70, 77
3, 162364, Note_on_c, 7, 60, 22
3, 162368, Note_on_c, 7, 62, 0
3, 162392, Note_on_c, 7, 60, 0
3, 162408, Note_on_c, 7, 70, 0
3, 162464, Note_on_c, 7, 70, 69
3, 162600, Note_on_c, 7, 70, 0
3, 162700, Note_on_c, 7, 62, 62
3, 162732, Note_on_c, 7, 55, 25
3, 162764, Note_on_c, 7, 62, 0
3, 162772, Note_on_c, 7, 55, 0
3, 162840, Note_on_c, 8, 65, 69
3, 162904, Note_on_c, 8, 65, 0
3, 162964, Note_on_c, 8, 65, 76
3, 163064, Note_on_c, 8, 65, 0
3, 163104, Note_on_c, 7, 58, 32
3, 163112, Note_on_c, 7, 55, 35
3, 163140, Note_on_c, 7, 58, 0
3, 163148, Note_on_c, 7, 55, 0
3, 163280, Note_on_c, 8, 60, 41
3, 163312, Note_on_c, 8, 60, 0
3, 163488, Note_on_c, 7, 58, 55
3, 163496, Note_on_c, 7, 55, 50
3, 163528, Note_on_c, 7, 55, 0
3, 163556, Note_on_c, 7, 58, 0
3, 163620, Note_on_c, 8, 60, 64
3, 163664, Note_on_c, 8, 60, 0
3, 163728, Note_on_c, 8, 60, 63
3, 163788, Note_on_c, 8, 60, 0
3, 163856, Note_on_c, 8, 65, 78
3, 163856, Note_on_c, 7, 58, 35
3, 163880, Note_on_c, 7, 58, 0
3, 163912, Note_on_c, 8, 65, 0
3, 163996, Note_on_c, 8, 65, 71
3, 164080, Note_on_c, 8, 65, 0
3, 164144, Note_on_c, 7, 58, 67
3, 164188, Note_on_c, 7, 58, 0
3, 164260, Note_on_c, 7, 58, 67
3, 164296, Note_on_c, 7, 48, 46
3, 164328, Note_on_c, 7, 58, 0
3, 164328, Note_on_c, 7, 48, 0
3, 164396, Note_on_c, 8, 64, 74
3, 164468, Note_on_c, 8, 64, 0
3, 164528, Note_on_c, 8, 64, 68
3, 164628, Note_on_c, 8, 64, 0
3, 164668, Note_on_c, 7, 55, 65
3, 164696, Note_on_c, 7, 55, 0
3, 164804, Note_on_c, 7, 55, 67
3, 164852, Note_on_c, 7, 55, 0
3, 164936, Note_on_c, 8, 61, 68
3, 165004, Note_on_c, 8, 61, 0
3, 165076, Note_on_c, 8, 61, 69
3, 165084, Note_on_c, 7, 48, 44
3, 165120, Note_on_c, 7, 48, 0
3, 165184, Note_on_c, 8, 61, 0
3, 165220, Note_on_c, 8, 52, 46
3, 165252, Note_on_c, 8, 52, 0
3, 165352, Note_on_c, 8, 52, 59
3, 165420, Note_on_c, 8, 52, 0
3, 165468, Note_on_c, 8, 60, 53
3, 165500, Note_on_c, 8, 60, 0
3, 165592, Note_on_c, 8, 60, 61
3, 165716, Note_on_c, 8, 60, 0
3, 165736, Note_on_c, 8, 55, 63
3, 165760, Note_on_c, 7, 51, 49
3, 165792, Note_on_c, 8, 55, 0
3, 165808, Note_on_c, 7, 51, 0
3, 165876, Note_on_c, 8, 55, 69
3, 165952, Note_on_c, 8, 55, 0
3, 166008, Note_on_c, 8, 56, 69
3, 166068, Note_on_c, 8, 56, 0
3, 166132, Note_on_c, 8, 56, 67
3, 166160, Note_on_c, 8, 58, 35
3, 166192, Note_on_c, 8, 58, 0
3, 166224, Note_on_c, 8, 56, 0
3, 166260, Note_on_c, 8, 52, 57
3, 166292, Note_on_c, 8, 52, 0
3, 166392, Note_on_c, 8, 52, 58
3, 166440, Note_on_c, 8, 52, 0
3, 166508, Note_on_c, 8, 55, 75
3, 166576, Note_on_c, 8, 55, 0
3, 166632, Note_on_c, 8, 55, 76
3, 166724, Note_on_c, 8, 55, 0
3, 166764, Note_on_c, 8, 52, 67
3, 166792, Note_on_c, 8, 52, 0
3, 166892, Note_on_c, 8, 52, 65
3, 166940, Note_on_c, 7, 41, 42
3, 166956, Note_on_c, 8, 52, 0
3, 167000, Note_on_c, 7, 41, 0
3, 167024, Note_on_c, 8, 53, 56
3, 167056, Note_on_c, 8, 53, 0
3, 167148, Note_on_c, 8, 53, 43
3, 167208, Note_on_c, 8, 53, 0
3, 167280, Note_on_c, 8, 55, 78
3, 167340, Note_on_c, 8, 55, 0
3, 167416, Note_on_c, 8, 55, 72
3, 167496, Note_on_c, 8, 55, 0
3, 167548, Note_on_c, 8, 56, 72
3, 167624, Note_on_c, 8, 56, 0
3, 167688, Note_on_c, 8, 56, 66
3, 167780, Note_on_c, 8, 56, 0
3, 167848, Note_on_c, 8, 58, 51
3, 168040, Note_on_c, 8, 58, 0
3, 168096, Note_on_c, 8, 60, 68
3, 168172, Note_on_c, 8, 60, 0
3, 168488, Note_on_c, 7, 48, 55
3, 168488, Note_on_c, 8, 58, 55
3, 168520, Note_on_c, 7, 48, 0
3, 168556, Note_on_c, 8, 58, 0
3, 168704, Control_c, 0, 64, 127
3, 168880, Note_on_c, 7, 60, 71
3, 168880, Note_on_c, 7, 63, 68
3, 168880, Note_on_c, 7, 56, 42
3, 168896, Note_on_c, 7, 53, 59
3, 168896, Control_c, 0, 64, 0
3, 169096, Control_c, 0, 64, 127
3, 169228, Note_on_c, 8, 80, 19
3, 169244, Note_on_c, 7, 53, 0
3, 169260, Note_on_c, 8, 80, 0
3, 169276, Note_on_c, 7, 63, 0
3, 169296, Note_on_c, 7, 60, 0
3, 169296, Note_on_c, 7, 56, 0
3, 169328, Control_c, 0, 64, 0
3, 169360, Note_on_c, 7, 63, 51
3, 169368, Note_on_c, 7, 60, 55
3, 169376, Note_on_c, 7, 56, 36
3, 169388, Note_on_c, 8, 81, 64
3, 169388, Note_on_c, 7, 53, 42
3, 169420, Note_on_c, 8, 69, 26
3, 169428, Note_on_c, 7, 63, 0
3, 169428, Note_on_c, 7, 53, 0
3, 169452, Note_on_c, 8, 69, 0
3, 169476, Note_on_c, 8, 81, 0
3, 169488, Note_on_c, 7, 60, 0
3, 169552, Note_on_c, 7, 56, 0
3, 169760, Note_on_c, 7, 63, 49
3, 169768, Control_c, 0, 64, 127
3, 169768, Note_on_c, 7, 60, 46
3, 169772, Note_on_c, 8, 84, 59
3, 169776, Note_on_c, 8, 72, 56
3, 169776, Note_on_c, 7, 56, 39
3, 169792, Note_on_c, 7, 53, 22
3, 169820, Note_on_c, 7, 63, 0
3, 169828, Note_on_c, 7, 53, 0
3, 169836, Note_on_c, 8, 72, 0
3, 169868, Note_on_c, 7, 60, 0
3, 169876, Note_on_c, 8, 84, 0
3, 169912, Note_on_c, 7, 56, 0
3, 170044, Note_on_c, 7, 60, 36
3, 170060, Note_on_c, 7, 56, 30
3, 170076, Note_on_c, 7, 60, 0
3, 170100, Control_c, 0, 64, 0
3, 170108, Note_on_c, 7, 56, 0
3, 170160, Note_on_c, 7, 60, 52
3, 170160, Note_on_c, 7, 56, 23
3, 170176, Note_on_c, 8, 91, 64
3, 170176, Note_on_c, 7, 63, 61
3, 170180, Note_on_c, 8, 79, 67
3, 170180, Note_on_c, 8, 87, 51
3, 170244, Control_c, 0, 64, 127
3, 170252, Note_on_c, 7, 60, 0
3, 170260, Note_on_c, 8, 79, 0
3, 170276, Note_on_c, 8, 87, 0
3, 170284, Note_on_c, 7, 56, 0
3, 170284, Note_on_c, 7, 63, 0
3, 170300, Note_on_c, 8, 91, 0
3, 170484, Control_c, 0, 64, 0
3, 170544, Note_on_c, 7, 63, 70
3, 170552, Note_on_c, 7, 58, 51
3, 170552, Note_on_c, 7, 59, 69
3, 170560, Note_on_c, 8, 91, 76
3, 170560, Note_on_c, 8, 87, 74
3, 170560, Note_on_c, 7, 54, 56
3, 170576, Note_on_c, 8, 79, 80
3, 170916, Control_c, 0, 64, 127
3, 170984, Note_on_c, 7, 59, 0
3, 170984, Note_on_c, 8, 91, 0
3, 170992, Note_on_c, 8, 87, 0
3, 171008, Note_on_c, 7, 63, 0
3, 171008, Note_on_c, 8, 79, 0
3, 171040, Note_on_c, 7, 54, 0
3, 171048, Note_on_c, 7, 58, 0
3, 171176, Note_on_c, 7, 63, 62
3, 171176, Note_on_c, 7, 58, 37
3, 171184, Note_on_c, 7, 59, 57
3, 171184, Note_on_c, 7, 53, 60
3, 171184, Note_on_c, 8, 89, 65
3, 171184, Note_on_c, 8, 77, 65
3, 171192, Control_c, 0, 64, 0
3, 171332, Control_c, 0, 64, 127
3, 171392, Note_on_c, 7, 53, 0
3, 171416, Note_on_c, 7, 59, 0
3, 171448, Note_on_c, 7, 58, 0
3, 171464, Note_on_c, 8, 89, 0
3, 171492, Note_on_c, 8, 77, 0
3, 171500, Note_on_c, 7, 63, 0
3, 171632, Control_c, 0, 64, 0
3, 171672, Note_on_c, 7, 63, 64
3, 171680, Note_on_c, 7, 66, 61
3, 171684, Note_on_c, 7, 56, 51
3, 171692, Note_on_c, 8, 90, 73
3, 171692, Note_on_c, 7, 61, 49
3, 171700, Note_on_c, 8, 78, 70
3, 171708, Note_on_c, 8, 85, 74
3, 171772, Control_c, 0, 64, 127
3, 171872, Note_on_c, 8, 85, 0
3, 171880, Note_on_c, 7, 56, 0
3, 171888, Note_on_c, 7, 66, 0
3, 171900, Note_on_c, 8, 90, 0
3, 171900, Note_on_c, 8, 78, 0
3, 171908, Note_on_c, 7, 61, 0
3, 171924, Note_on_c, 7, 63, 0
3, 171940, Control_c, 0, 64, 0
3, 171940, Note_on_c, 7, 62, 67
3, 171948, Note_on_c, 8, 91, 73
3, 171956, Note_on_c, 7, 65, 77
3, 171964, Note_on_c, 8, 79, 71
3, 171964, Note_on_c, 8, 86, 74
3, 171968, Note_on_c, 7, 55, 67
3, 171968, Note_on_c, 7, 60, 60
3, 171980, Note_on_c, 7, 58, 42
3, 171996, Note_on_c, 8, 89, 25
3, 172040, Note_on_c, 8, 89, 0
3, 172104, Control_c, 0, 64, 127
3, 172440, Control_c, 0, 64, 0
3, 172488, Control_c, 0, 64, 127
3, 172504, Note_on_c, 8, 86, 0
3, 172512, Note_on_c, 8, 91, 0
3, 172572, Note_on_c, 8, 79, 0
3, 172624, Note_on_c, 7, 60, 0
3, 172628, Note_on_c, 7, 65, 0
3, 172648, Note_on_c, 7, 62, 0
3, 172656, Note_on_c, 7, 55, 0
3, 172656, Note_on_c, 7, 58, 0
3, 173212, Control_c, 0, 64, 0
3, 173220, Note_on_c, 7, 65, 47
3, 173220, Note_on_c, 7, 62, 36
3, 173228, Note_on_c, 7, 60, 35
3, 173236, Note_on_c, 8, 76, 55
3, 173240, Note_on_c, 8, 88, 37
3, 173240, Note_on_c, 7, 55, 46
3, 173240, Note_on_c, 8, 83, 54
3, 173288, Note_on_c, 7, 60, 0
3, 173328, Note_on_c, 7, 65, 0
3, 173328, Control_c, 0, 64, 127
3, 173344, Note_on_c, 7, 62, 0
3, 173364, Note_on_c, 8, 76, 0
3, 173380, Note_on_c, 7, 55, 0
3, 173396, Note_on_c, 8, 88, 0
3, 173396, Note_on_c, 8, 83, 0
3, 173472, Note_on_c, 7, 64, 63
3, 173480, Note_on_c, 8, 84, 68
3, 173480, Note_on_c, 7, 60, 49
3, 173484, Note_on_c, 8, 89, 64
3, 173488, Note_on_c, 7, 57, 54
3, 173488, Control_c, 0, 64, 0
3, 173488, Note_on_c, 8, 77, 38
3, 173496, Note_on_c, 7, 53, 28
3, 173512, Note_on_c, 8, 84, 0
3, 173512, Note_on_c, 8, 89, 0
3, 173520, Note_on_c, 7, 64, 0
3, 173520, Note_on_c, 7, 60, 0
3, 173524, Note_on_c, 8, 77, 0
3, 173528, Note_on_c, 7, 53, 0
3, 173560, Note_on_c, 7, 57, 0
3, 173852, Note_on_c, 7, 59, 66
3, 173860, Note_on_c, 7, 64, 63
3, 173868, Note_on_c, 8, 83, 57
3, 173880, Note_on_c, 8, 88, 41
3, 173880, Note_on_c, 7, 53, 36
3, 173880, Note_on_c, 8, 76, 33
3, 173888, Note_on_c, 7, 64, 0
3, 173904, Note_on_c, 8, 83, 0
3, 173912, Note_on_c, 7, 59, 0
3, 173912, Note_on_c, 8, 76, 0
3, 173916, Note_on_c, 7, 53, 0
3, 173920, Note_on_c, 8, 88, 0
3, 174220, Note_on_c, 7, 63, 64
3, 174236, Note_on_c, 8, 89, 65
3, 174236, Note_on_c, 7, 59, 54
3, 174244, Note_on_c, 8, 84, 53
3, 174244, Note_on_c, 7, 56, 40
3, 174252, Note_on_c, 7, 53, 29
3, 174260, Note_on_c, 7, 63, 0
3, 174260, Note_on_c, 8, 89, 0
3, 174268, Note_on_c, 7, 59, 0
3, 174268, Note_on_c, 8, 84, 0
3, 174276, Note_on_c, 7, 53, 0
3, 174376, Note_on_c, 7, 56, 0
3, 174592, Note_on_c, 8, 82, 62
3, 174604, Note_on_c, 8, 86, 60
3, 174604, Note_on_c, 7, 63, 60
3, 174604, Note_on_c, 7, 59, 40
3, 174608, Note_on_c, 8, 74, 55
3, 174612, Note_on_c, 7, 53, 40
3, 174612, Note_on_c, 7, 56, 38
3, 174612, Note_on_c, 8, 79, 54
3, 174644, Note_on_c, 8, 74, 0
3, 174644, Note_on_c, 7, 53, 0
3, 174648, Note_on_c, 7, 63, 0
3, 174648, Note_on_c, 8, 79, 0
3, 174652, Note_on_c, 7, 59, 0
3, 174652, Note_on_c, 7, 56, 0
3, 174660, Note_on_c, 8, 82, 0
3, 174668, Note_on_c, 8, 86, 0
3, 174992, Note_on_c, 8, 75, 68
3, 174992, Note_on_c, 8, 87, 77
3, 174992, Note_on_c, 8, 79, 73
3, 174996, Note_on_c, 7, 63, 74
3, 175000, Note_on_c, 7, 67, 71
3, 175000, Note_on_c, 8, 82, 61
3, 175200, Control_c, 0, 64, 127
3, 175468, Note_on_c, 8, 87, 0
3, 175476, Note_on_c, 8, 79, 0
3, 175508, Note_on_c, 8, 75, 0
3, 175516, Note_on_c, 8, 82, 0
3, 175524, Note_on_c, 7, 67, 0
3, 175684, Note_on_c, 7, 63, 0
3, 175832, Control_c, 0, 64, 0
3, 175876, Note_on_c, 7, 63, 52
3, 175892, Note_on_c, 7, 58, 45
3, 175892, Note_on_c, 7, 68, 54
3, 175896, Note_on_c, 8, 78, 42
3, 175908, Note_on_c, 8, 75, 37
3, 175992, Note_on_c, 7, 58, 0
3, 175992, Note_on_c, 8, 75, 0
3, 176008, Note_on_c, 7, 63, 0
3, 176008, Note_on_c, 7, 68, 0
3, 176048, Note_on_c, 8, 78, 0
3, 176272, Note_on_c, 7, 63, 39
3, 176280, Note_on_c, 8, 79, 43
3, 176292, Note_on_c, 7, 58, 33
3, 176292, Note_on_c, 8, 75, 37
3, 176340, Note_on_c, 8, 75, 0
3, 176364, Note_on_c, 8, 79, 0
3, 176372, Control_c, 0, 64, 127
3, 176400, Note_on_c, 7, 63, 0
3, 176408, Note_on_c, 7, 58, 0
3, 176632, Control_c, 0, 64, 0
3, 176672, Control_c, 0, 64, 127
3, 176904, Note_on_c, 7, 61, 67
3, 176924, Note_on_c, 8, 74, 76
3, 176924, Note_on_c, 8, 66, 74
3, 176924, Note_on_c, 7, 63, 71
3, 176932, Control_c, 0, 64, 0
3, 176932, Note_on_c, 7, 62, 85
3, 176936, Note_on_c, 8, 69, 63
3, 176964, Note_on_c, 7, 61, 0
3, 176964, Note_on_c, 7, 60, 70
3, 176964, Note_on_c, 7, 60, 0
3, 177164, Control_c, 0, 64, 127
3, 177340, Note_on_c, 8, 74, 0
3, 177356, Note_on_c, 7, 63, 0
3, 177372, Note_on_c, 8, 66, 0
3, 177372, Control_c, 0, 64, 0
3, 177396, Note_on_c, 8, 69, 0
3, 177416, Note_on_c, 7, 62, 0
3, 177436, Note_on_c, 7, 61, 57
3, 177456, Note_on_c, 7, 63, 40
3, 177456, Note_on_c, 8, 73, 59
3, 177464, Note_on_c, 8, 66, 36
3, 177488, Note_on_c, 8, 69, 48
3, 177528, Control_c, 0, 64, 127
3, 177580, Note_on_c, 8, 73, 0
3, 177596, Note_on_c, 7, 63, 0
3, 177612, Note_on_c, 8, 69, 0
3, 177680, Note_on_c, 7, 61, 0
3, 177688, Note_on_c, 8, 72, 66
3, 177688, Note_on_c, 7, 63, 46
3, 177712, Note_on_c, 7, 60, 59
3, 177756, Note_on_c, 7, 63, 0
3, 177756, Control_c, 0, 64, 0
3, 177772, Note_on_c, 8, 72, 0
3, 177888, Control_c, 0, 64, 127
3, 177896, Note_on_c, 7, 60, 0
3, 177936, Note_on_c, 8, 66, 0
3, 178060, Note_on_c, 7, 54, 23
3, 178080, Note_on_c, 8, 70, 67
3, 178096, Control_c, 0, 64, 0
3, 178096, Note_on_c, 7, 65, 54
3, 178100, Note_on_c, 7, 60, 27
3, 178112, Note_on_c, 7, 55, 59
3, 178128, Note_on_c, 7, 54, 0
3, 178128, Note_on_c, 7, 65, 0
3, 178128, Note_on_c, 7, 60, 0
3, 178152, Note_on_c, 7, 55, 0
3, 178188, Note_on_c, 8, 70, 0
3, 178560, Note_on_c, 8, 70, 59
3, 178568, Note_on_c, 7, 46, 40
3, 178712, Note_on_c, 7, 46, 0
3, 178728, Note_on_c, 8, 70, 0
3, 178968, Control_c, 0, 64, 127
3, 178976, Note_on_c, 8, 72, 60
3, 178980, Note_on_c, 7, 50, 30
3, 179012, Note_on_c, 7, 50, 0
3, 179100, Note_on_c, 8, 72, 0
3, 179220, Note_on_c, 8, 75, 52
3, 179228, Note_on_c, 7, 56, 40
3, 179252, Note_on_c, 7, 56, 0
3, 179260, Control_c, 0, 64, 0
3, 179292, Note_on_c, 8, 75, 0
3, 179344, Note_on_c, 8, 77, 61
3, 179500, Note_on_c, 8, 77, 0
3, 179516, Control_c, 0, 64, 127
3, 179544, Control_c, 0, 64, 0
3, 179600, Note_on_c, 7, 63, 69
3, 179608, Note_on_c, 7, 52, 58
3, 179608, Note_on_c, 8, 78, 57
3, 179616, Note_on_c, 7, 58, 44
3, 179620, Note_on_c, 8, 66, 60
3, 179636, Note_on_c, 7, 52, 0
3, 179660, Note_on_c, 7, 63, 0
3, 179660, Note_on_c, 8, 66, 0
3, 179744, Note_on_c, 7, 58, 0
3, 179744, Note_on_c, 8, 66, 40
3, 179852, Note_on_c, 8, 78, 0
3, 179860, Note_on_c, 8, 66, 0
3, 179876, Note_on_c, 8, 67, 43
3, 179932, Note_on_c, 8, 67, 0
3, 179952, Note_on_c, 8, 79, 41
3, 180016, Note_on_c, 8, 79, 0
3, 180016, Note_on_c, 8, 67, 50
3, 180100, Note_on_c, 8, 67, 0
3, 180116, Note_on_c, 8, 79, 34
3, 180184, Note_on_c, 8, 67, 48
3, 180208, Note_on_c, 8, 79, 0
3, 180316, Note_on_c, 8, 67, 0
3, 180376, Note_on_c, 7, 63, 69
3, 180376, Note_on_c, 7, 58, 65
3, 180392, Note_on_c, 7, 52, 47
3, 180400, Note_on_c, 7, 63, 0
3, 180424, Note_on_c, 7, 52, 0
3, 180440, Note_on_c, 7, 58, 0
3, 180792, Note_on_c, 7, 58, 37
3, 180824, Note_on_c, 7, 58, 0
3, 180864, Note_on_c, 7, 58, 56
3, 180864, Note_on_c, 7, 52, 66
3, 180868, Note_on_c, 8, 90, 58
3, 180868, Note_on_c, 7, 63, 74
3, 180876, Note_on_c, 8, 78, 64
3, 180884, Note_on_c, 8, 85, 62
3, 180916, Note_on_c, 8, 91, 28
3, 180956, Note_on_c, 8, 78, 0
3, 180964, Note_on_c, 8, 85, 0
3, 180964, Note_on_c, 8, 89, 26
3, 180968, Note_on_c, 8, 79, 64
3, 180980, Note_on_c, 8, 90, 0
3, 181000, Note_on_c, 7, 52, 0
3, 181016, Note_on_c, 7, 58, 0
3, 181072, Note_on_c, 7, 63, 0
3, 181096, Control_c, 0, 64, 127
3, 181108, Note_on_c, 8, 89, 0
3, 181108, Note_on_c, 8, 79, 0
3, 181140, Note_on_c, 8, 91, 0
3, 181172, Control_c, 0, 64, 0
3, 181264, Note_on_c, 7, 67, 74
3, 181264, Note_on_c, 7, 63, 60
3, 181268, Note_on_c, 8, 78, 73
3, 181272, Note_on_c, 7, 56, 60
3, 181272, Note_on_c, 7, 60, 65
3, 181280, Note_on_c, 8, 87, 57
3, 181284, Note_on_c, 8, 91, 48
3, 181284, Note_on_c, 8, 90, 25
3, 181316, Note_on_c, 8, 89, 22
3, 181332, Note_on_c, 8, 90, 0
3, 181396, Note_on_c, 8, 79, 57
3, 181408, Note_on_c, 8, 78, 0
3, 181480, Note_on_c, 8, 89, 0
3, 181488, Note_on_c, 8, 91, 0
3, 181524, Note_on_c, 7, 56, 0
3, 181524, Note_on_c, 7, 60, 0
3, 181524, Note_on_c, 8, 79, 0
3, 181528, Note_on_c, 7, 67, 0
3, 181528, Note_on_c, 8, 87, 0
3, 181572, Note_on_c, 7, 63, 0
3, 181864, Control_c, 0, 64, 127
3, 181932, Note_on_c, 7, 67, 68
3, 181940, Note_on_c, 7, 60, 52
3, 181940, Note_on_c, 7, 63, 55
3, 181964, Note_on_c, 7, 67, 0
3, 181972, Note_on_c, 7, 60, 0
3, 181988, Control_c, 0, 64, 0
3, 182004, Note_on_c, 7, 63, 0
3, 182080, Note_on_c, 7, 68, 55
3, 182240, Note_on_c, 7, 68, 0
3, 182312, Note_on_c, 7, 70, 57
3, 182372, Note_on_c, 7, 60, 22
3, 182408, Note_on_c, 7, 70, 0
3, 182420, Note_on_c, 7, 60, 0
3, 182464, Note_on_c, 7, 72, 43
3, 182536, Note_on_c, 7, 72, 0
3, 182580, Control_c, 0, 64, 127
3, 182704, Note_on_c, 7, 62, 51
3, 182728, Control_c, 0, 64, 0
3, 182736, Note_on_c, 7, 62, 0
3, 182812, Note_on_c, 8, 77, 76
3, 182820, Note_on_c, 7, 65, 66
3, 182828, Note_on_c, 7, 56, 62
3, 182828, Note_on_c, 7, 62, 41
3, 183204, Control_c, 0, 64, 127
3, 183304, Note_on_c, 7, 62, 0
3, 183344, Note_on_c, 7, 65, 0
3, 183368, Note_on_c, 7, 56, 0
3, 183384, Note_on_c, 8, 77, 0
3, 183936, Control_c, 0, 64, 0
3, 183960, Note_on_c, 7, 67, 70
3, 183960, Note_on_c, 7, 56, 63
3, 183960, Note_on_c, 7, 62, 66
3, 183968, Note_on_c, 8, 80, 57
3, 183976, Note_on_c, 8, 92, 53
3, 184000, Note_on_c, 7, 67, 0
3, 184028, Note_on_c, 8, 80, 0
3, 184028, Note_on_c, 8, 92, 0
3, 184028, Control_c, 0, 64, 127
3, 184036, Note_on_c, 7, 62, 0
3, 184068, Note_on_c, 7, 56, 0
3, 184252, Note_on_c, 7, 53, 80
3, 184252, Control_c, 0, 64, 0
3, 184256, Note_on_c, 7, 64, 88
3, 184256, Note_on_c, 7, 59, 83
3, 184576, Control_c, 0, 64, 127
3, 184592, Control_c, 0, 64, 0
3, 184740, Control_c, 0, 64, 127
3, 184832, Note_on_c, 7, 53, 0
3, 184840, Note_on_c, 7, 59, 0
3, 184844, Note_on_c, 7, 64, 0
3, 185016, Note_on_c, 7, 59, 28
3, 185048, Control_c, 0, 64, 0
3, 185056, Note_on_c, 7, 59, 0
3, 185100, Note_on_c, 7, 59, 57
3, 185108, Note_on_c, 7, 63, 82
3, 185116, Note_on_c, 8, 94, 80
3, 185116, Note_on_c, 7, 53, 71
3, 185120, Note_on_c, 8, 87, 78
3, 185120, Note_on_c, 8, 82, 85
3, 185240, Note_on_c, 7, 53, 0
3, 185248, Note_on_c, 7, 63, 0
3, 185264, Note_on_c, 8, 87, 0
3, 185276, Note_on_c, 8, 82, 0
3, 185284, Note_on_c, 7, 59, 0
3, 185284, Note_on_c, 8, 94, 0
3, 185500, Note_on_c, 7, 63, 77
3, 185500, Note_on_c, 7, 59, 73
3, 185504, Note_on_c, 8, 94, 82
3, 185508, Note_on_c, 8, 87, 77
3, 185508, Note_on_c, 7, 53, 73
3, 185508, Note_on_c, 8, 82, 84
3, 185648, Note_on_c, 8, 94, 0
3, 185656, Note_on_c, 7, 53, 0
3, 185656, Note_on_c, 8, 82, 0
3, 185680, Note_on_c, 7, 63, 0
3, 185700, Note_on_c, 8, 87, 0
3, 185708, Note_on_c, 7, 59, 0
3, 185880, Note_on_c, 8, 78, 76
3, 185888, Note_on_c, 8, 90, 62
3, 185904, Note_on_c, 7, 63, 78
3, 185916, Note_on_c, 7, 59, 70
3, 185916, Note_on_c, 7, 53, 69
3, 185924, Note_on_c, 8, 90, 0
3, 185924, Note_on_c, 8, 91, 44
3, 185948, Note_on_c, 8, 78, 0
3, 185956, Note_on_c, 8, 79, 66
3, 185980, Note_on_c, 8, 89, 20
3, 186024, Note_on_c, 8, 89, 0
3, 186088, Note_on_c, 8, 91, 0
3, 186104, Note_on_c, 8, 79, 0
3, 186116, Note_on_c, 7, 53, 0
3, 186132, Note_on_c, 7, 63, 0
3, 186148, Note_on_c, 7, 59, 0
3, 186288, Note_on_c, 7, 59, 70
3, 186288, Note_on_c, 7, 63, 72
3, 186292, Note_on_c, 8, 77, 71
3, 186292, Note_on_c, 8, 89, 74
3, 186296, Note_on_c, 7, 53, 67
3, 186340, Control_c, 0, 64, 127
3, 186440, Note_on_c, 8, 89, 0
3, 186472, Note_on_c, 7, 53, 0
3, 186496, Note_on_c, 7, 59, 0
3, 186496, Note_on_c, 8, 77, 0
3, 186524, Note_on_c, 7, 63, 0
3, 186604, Control_c, 0, 64, 0
3, 186664, Note_on_c, 8, 85, 62
3, 186672, Note_on_c, 8, 73, 64
3, 186680, Note_on_c, 7, 63, 68
3, 186688, Note_on_c, 7, 59, 65
3, 186688, Note_on_c, 7, 53, 66
3, 186704, Note_on_c, 8, 82, 25
3, 186748, Note_on_c, 8, 85, 0
3, 186748, Note_on_c, 8, 73, 0
3, 186748, Note_on_c, 8, 86, 36
3, 186748, Control_c, 0, 64, 127
3, 186772, Note_on_c, 8, 74, 42
3, 186804, Note_on_c, 8, 79, 20
3, 186820, Note_on_c, 7, 53, 0
3, 186880, Note_on_c, 8, 86, 0
3, 186888, Note_on_c, 7, 59, 0
3, 186904, Note_on_c, 8, 74, 0
3, 186912, Note_on_c, 7, 63, 0
3, 186920, Note_on_c, 8, 79, 0
3, 186920, Control_c, 0, 64, 0
3, 186948, Note_on_c, 8, 82, 0
3, 186972, Note_on_c, 7, 53, 48
3, 186972, Note_on_c, 7, 59, 47
3, 186972, Note_on_c, 7, 63, 25
3, 187036, Note_on_c, 7, 59, 0
3, 187040, Note_on_c, 7, 63, 0
3, 187048, Note_on_c, 8, 85, 67
3, 187056, Note_on_c, 8, 73, 57
3, 187064, Note_on_c, 8, 79, 61
3, 187072, Note_on_c, 7, 53, 0
3, 187072, Control_c, 0, 64, 127
3, 187164, Note_on_c, 8, 79, 0
3, 187204, Note_on_c, 8, 85, 0
3, 187220, Note_on_c, 8, 73, 0
3, 187296, Note_on_c, 7, 58, 67
3, 187296, Note_on_c, 7, 63, 74
3, 187304, Note_on_c, 8, 84, 66
3, 187304, Control_c, 0, 64, 0
3, 187308, Note_on_c, 8, 79, 65
3, 187312, Note_on_c, 8, 72, 58
3, 187312, Note_on_c, 7, 52, 71
3, 187336, Note_on_c, 8, 84, 0
3, 187380, Note_on_c, 8, 79, 0
3, 187380, Note_on_c, 8, 72, 0
3, 187460, Note_on_c, 7, 63, 0
3, 187660, Note_on_c, 7, 60, 59
3, 187768, Note_on_c, 7, 60, 0
3, 187784, Note_on_c, 7, 58, 0
3, 187884, Note_on_c, 7, 52, 0
3, 187960, Note_on_c, 7, 63, 32
3, 188036, Note_on_c, 7, 63, 0
3, 188052, Note_on_c, 7, 58, 39
3, 188068, Note_on_c, 7, 64, 60
3, 188084, Note_on_c, 7, 58, 0
3, 188144, Note_on_c, 7, 64, 0
3, 188204, Note_on_c, 7, 66, 47
3, 188284, Note_on_c, 7, 66, 0
3, 188460, Note_on_c, 7, 67, 70
3, 188484, Note_on_c, 7, 64, 36
3, 188520, Note_on_c, 7, 64, 0
3, 188544, Note_on_c, 7, 67, 0
3, 188644, Note_on_c, 8, 69, 57
3, 188768, Note_on_c, 8, 69, 0
3, 188836, Note_on_c, 7, 58, 61
3, 188836, Note_on_c, 8, 70, 69
3, 188844, Note_on_c, 7, 63, 59
3, 188852, Note_on_c, 7, 52, 47
3, 188884, Note_on_c, 7, 52, 0
3, 188892, Note_on_c, 7, 63, 0
3, 188928, Note_on_c, 8, 70, 0
3, 188960, Control_c, 0, 64, 127
3, 188968, Note_on_c, 7, 58, 0
3, 189000, Note_on_c, 8, 72, 54
3, 189116, Note_on_c, 8, 72, 0
3, 189208, Note_on_c, 7, 58, 49
3, 189208, Note_on_c, 7, 63, 60
3, 189216, Note_on_c, 8, 73, 64
3, 189216, Note_on_c, 7, 52, 52
3, 189252, Note_on_c, 7, 63, 0
3, 189252, Note_on_c, 7, 52, 0
3, 189268, Control_c, 0, 64, 0
3, 189292, Note_on_c, 8, 73, 0
3, 189300, Note_on_c, 7, 58, 0
3, 189368, Note_on_c, 7, 58, 21
3, 189384, Note_on_c, 8, 75, 47
3, 189384, Control_c, 0, 64, 127
3, 189440, Note_on_c, 7, 58, 0
3, 189548, Note_on_c, 8, 75, 0
3, 189600, Note_on_c, 8, 76, 68
3, 189608, Note_on_c, 7, 58, 63
3, 189608, Note_on_c, 7, 63, 62
3, 189624, Note_on_c, 7, 52, 49
3, 189648, Note_on_c, 7, 63, 0
3, 189660, Note_on_c, 7, 52, 0
3, 189664, Control_c, 0, 64, 0
3, 189700, Note_on_c, 8, 76, 0
3, 189800, Control_c, 0, 64, 127
3, 189800, Note_on_c, 8, 78, 31
3, 189824, Note_on_c, 7, 58, 0
3, 189924, Note_on_c, 8, 78, 0
3, 189992, Note_on_c, 7, 58, 59
3, 189992, Note_on_c, 7, 52, 66
3, 190008, Note_on_c, 7, 63, 55
3, 190008, Note_on_c, 8, 77, 34
3, 190024, Note_on_c, 8, 79, 28
3, 190040, Control_c, 0, 64, 0
3, 190056, Note_on_c, 8, 79, 0
3, 190064, Note_on_c, 8, 77, 0
3, 190068, Note_on_c, 7, 63, 0
3, 190108, Note_on_c, 7, 52, 0
3, 190172, Note_on_c, 8, 79, 36
3, 190184, Note_on_c, 7, 58, 0
3, 190184, Control_c, 0, 64, 127
3, 190264, Note_on_c, 8, 79, 0
3, 190400, Note_on_c, 8, 80, 46
3, 190416, Note_on_c, 7, 60, 35
3, 190440, Note_on_c, 8, 80, 0
3, 190448, Note_on_c, 7, 60, 0
3, 190472, Control_c, 0, 64, 0
3, 190548, Note_on_c, 7, 60, 33
3, 190556, Note_on_c, 7, 53, 43
3, 190556, Note_on_c, 7, 63, 27
3, 190564, Note_on_c, 7, 56, 35
3, 190588, Note_on_c, 7, 63, 0
3, 190596, Note_on_c, 7, 53, 0
3, 190616, Note_on_c, 7, 56, 0
3, 190624, Note_on_c, 7, 60, 0
3, 190816, Note_on_c, 8, 75, 81
3, 190816, Note_on_c, 8, 87, 78
3, 190824, Note_on_c, 7, 60, 72
3, 190824, Note_on_c, 8, 80, 64
3, 190824, Note_on_c, 7, 63, 78
3, 190828, Note_on_c, 8, 84, 68
3, 190832, Note_on_c, 7, 56, 53
3, 190840, Note_on_c, 7, 53, 62
3, 191004, Control_c, 0, 64, 127
3, 191112, Note_on_c, 7, 53, 0
3, 191148, Note_on_c, 8, 84, 0
3, 191164, Note_on_c, 8, 87, 0
3, 191164, Note_on_c, 7, 63, 0
3, 191164, Note_on_c, 7, 56, 0
3, 191168, Note_on_c, 7, 60, 0
3, 191172, Note_on_c, 8, 75, 0
3, 191172, Note_on_c, 8, 80, 0
3, 191232, Control_c, 0, 64, 0
3, 191272, Note_on_c, 7, 63, 57
3, 191280, Note_on_c, 7, 60, 47
3, 191288, Note_on_c, 7, 56, 37
3, 191288, Note_on_c, 8, 84, 61
3, 191304, Note_on_c, 8, 72, 46
3, 191312, Note_on_c, 7, 63, 0
3, 191312, Note_on_c, 7, 53, 20
3, 191328, Note_on_c, 8, 72, 0
3, 191340, Note_on_c, 7, 60, 0
3, 191348, Note_on_c, 7, 53, 0
3, 191364, Note_on_c, 8, 84, 0
3, 191380, Note_on_c, 7, 56, 0
3, 191640, Note_on_c, 7, 60, 60
3, 191640, Note_on_c, 8, 87, 62
3, 191644, Note_on_c, 7, 63, 55
3, 191648, Note_on_c, 7, 56, 37
3, 191648, Note_on_c, 8, 75, 56
3, 191656, Note_on_c, 7, 53, 34
3, 191656, Note_on_c, 8, 80, 44
3, 191688, Note_on_c, 7, 53, 0
3, 191688, Note_on_c, 8, 80, 0
3, 191696, Note_on_c, 8, 75, 0
3, 191704, Note_on_c, 7, 63, 0
3, 191712, Note_on_c, 7, 60, 0
3, 191736, Note_on_c, 7, 56, 0
3, 191744, Note_on_c, 8, 87, 0
3, 192044, Note_on_c, 7, 63, 51
3, 192044, Note_on_c, 7, 67, 68
3, 192048, Note_on_c, 8, 79, 74
3, 192048, Note_on_c, 7, 56, 57
3, 192048, Note_on_c, 7, 60, 53
3, 192056, Note_on_c, 8, 87, 65
3, 192056, Note_on_c, 8, 91, 60
3, 192376, Note_on_c, 7, 56, 0
3, 192388, Note_on_c, 7, 67, 0
3, 192388, Note_on_c, 8, 91, 0
3, 192396, Control_c, 0, 64, 127
3, 192412, Note_on_c, 8, 87, 0
3, 192436, Note_on_c, 8, 79, 0
3, 192504, Note_on_c, 7, 60, 0
3, 192512, Note_on_c, 7, 63, 0
3, 192684, Note_on_c, 8, 87, 62
3, 192688, Note_on_c, 8, 75, 57
3, 192696, Note_on_c, 7, 63, 57
3, 192696, Note_on_c, 7, 67, 69
3, 192704, Note_on_c, 7, 60, 45
3, 192704, Note_on_c, 7, 56, 33
3, 192736, Note_on_c, 8, 75, 0
3, 192736, Note_on_c, 7, 67, 0
3, 192736, Note_on_c, 7, 60, 0
3, 192744, Note_on_c, 7, 56, 0
3, 192744, Control_c, 0, 64, 0
3, 192760, Note_on_c, 8, 87, 0
3, 192760, Note_on_c, 7, 63, 0
3, 193060, Note_on_c, 7, 63, 57
3, 193068, Note_on_c, 7, 67, 69
3, 193068, Note_on_c, 7, 60, 47
3, 193072, Note_on_c, 8, 91, 66
3, 193072, Note_on_c, 8, 79, 67
3, 193072, Note_on_c, 7, 56, 45
3, 193080, Note_on_c, 8, 86, 60
3, 193100, Note_on_c, 8, 79, 0
3, 193108, Note_on_c, 8, 86, 0
3, 193120, Note_on_c, 7, 67, 0
3, 193144, Note_on_c, 7, 63, 0
3, 193152, Note_on_c, 8, 91, 0
3, 193160, Note_on_c, 7, 56, 0
3, 193176, Note_on_c, 7, 60, 0
3, 193176, Control_c, 0, 64, 127
3, 193436, Control_c, 0, 64, 0
3, 193452, Note_on_c, 8, 94, 74
3, 193460, Note_on_c, 7, 62, 85
3, 193460, Note_on_c, 7, 66, 88
3, 193468, Note_on_c, 8, 106, 75
3, 193468, Note_on_c, 7, 56, 82
3, 193584, Control_c, 0, 64, 127
3, 193652, Note_on_c, 8, 94, 0
3, 193660, Note_on_c, 8, 106, 0
3, 193692, Note_on_c, 7, 66, 0
3, 193692, Note_on_c, 7, 56, 0
3, 193716, Note_on_c, 7, 62, 0
3, 193824, Note_on_c, 8, 102, 75
3, 193828, Note_on_c, 8, 90, 80
3, 193844, Note_on_c, 7, 56, 82
3, 193844, Note_on_c, 7, 66, 86
3, 193852, Note_on_c, 7, 62, 81
3, 193900, Control_c, 0, 64, 0
3, 193948, Control_c, 0, 64, 127
3, 194016, Note_on_c, 8, 102, 0
3, 194032, Note_on_c, 8, 90, 0
3, 194044, Note_on_c, 7, 66, 0
3, 194048, Note_on_c, 7, 56, 0
3, 194060, Note_on_c, 7, 62, 0
3, 194224, Note_on_c, 8, 97, 82
3, 194224, Note_on_c, 8, 85, 84
3, 194232, Note_on_c, 7, 66, 85
3, 194232, Note_on_c, 7, 56, 76
3, 194268, Note_on_c, 7, 62, 69
3, 194268, Control_c, 0, 64, 0
3, 194292, Control_c, 0, 64, 127
3, 194392, Note_on_c, 8, 85, 0
3, 194400, Note_on_c, 8, 97, 0
3, 194400, Note_on_c, 7, 56, 0
3, 194408, Note_on_c, 7, 66, 0
3, 194416, Note_on_c, 7, 62, 0
3, 194600, Note_on_c, 8, 82, 83
3, 194600, Note_on_c, 8, 94, 76
3, 194608, Note_on_c, 7, 66, 84
3, 194616, Note_on_c, 7, 62, 73
3, 194616, Note_on_c, 7, 56, 74
3, 194656, Control_c, 0, 64, 0
3, 194740, Note_on_c, 7, 66, 0
3, 194740, Control_c, 0, 64, 127
3, 194748, Note_on_c, 8, 94, 0
3, 194748, Note_on_c, 7, 56, 0
3, 194764, Note_on_c, 8, 82, 0
3, 194768, Note_on_c, 7, 62, 0
3, 194992, Note_on_c, 8, 78, 74
3, 194992, Note_on_c, 8, 90, 82
3, 195000, Note_on_c, 7, 56, 77
3, 195000, Note_on_c, 7, 66, 86
3, 195008, Note_on_c, 7, 62, 76
3, 195016, Control_c, 0, 64, 0
3, 195148, Control_c, 0, 64, 127
3, 195288, Note_on_c, 8, 90, 0
3, 195324, Note_on_c, 8, 78, 0
3, 195364, Note_on_c, 7, 56, 0
3, 195372, Note_on_c, 7, 66, 0
3, 195396, Note_on_c, 7, 62, 0
3, 195448, Control_c, 0, 64, 0
3, 195472, Note_on_c, 7, 66, 69
3, 195472, Note_on_c, 8, 85, 56
3, 195480, Note_on_c, 7, 62, 56
3, 195480, Note_on_c, 7, 56, 59
3, 195484, Note_on_c, 8, 73, 62
3, 195572, Note_on_c, 7, 66, 0
3, 195580, Note_on_c, 8, 85, 0
3, 195580, Note_on_c, 8, 73, 0
3, 195612, Note_on_c, 7, 56, 0
3, 195632, Note_on_c, 7, 62, 0
3, 195856, Control_c, 0, 64, 127
3, 195864, Note_on_c, 7, 62, 51
3, 195864, Note_on_c, 8, 82, 48
3, 195868, Note_on_c, 8, 70, 62
3, 195872, Note_on_c, 7, 56, 40
3, 195912, Note_on_c, 8, 82, 0
3, 195928, Note_on_c, 8, 70, 0
3, 195956, Note_on_c, 7, 62, 0
3, 195972, Note_on_c, 7, 56, 0
3, 196136, Note_on_c, 7, 56, 54
3, 196172, Control_c, 0, 64, 0
3, 196212, Note_on_c, 7, 56, 0
3, 196236, Note_on_c, 8, 66, 34
3, 196256, Control_c, 0, 64, 127
3, 196280, Note_on_c, 8, 66, 0
3, 196588, Control_c, 0, 64, 0
3, 196620, Note_on_c, 7, 39, 59
3, 196620, Note_on_c, 7, 46, 56
3, 196712, Note_on_c, 7, 46, 0
3, 196720, Note_on_c, 7, 39, 0
3, 196888, Note_on_c, 7, 54, 65
3, 196912, Note_on_c, 7, 54, 0
3, 196920, Note_on_c, 7, 50, 38
3, 196928, Note_on_c, 7, 55, 64
3, 196980, Note_on_c, 7, 50, 0
3, 196980, Note_on_c, 7, 55, 0
3, 197304, Note_on_c, 7, 42, 40
3, 197376, Note_on_c, 7, 42, 0
3, 197404, Note_on_c, 8, 53, 64
3, 197420, Note_on_c, 8, 43, 61
3, 197552, Note_on_c, 8, 53, 0
3, 197592, Note_on_c, 8, 55, 53
3, 198068, Note_on_c, 7, 34, 53
3, 198076, Note_on_c, 8, 43, 0
3, 198100, Note_on_c, 8, 55, 0
3, 198176, Note_on_c, 7, 34, 0
3, 198184, Note_on_c, 8, 56, 74
3, 198200, Note_on_c, 8, 44, 77
3, 198776, Note_on_c, 7, 32, 55
3, 198840, Note_on_c, 8, 56, 0
3, 198848, Note_on_c, 8, 44, 0
3, 198876, Note_on_c, 7, 32, 0
3, 198924, Note_on_c, 8, 45, 71
3, 198932, Note_on_c, 8, 57, 74
3, 199240, Note_on_c, 7, 33, 45
3, 199324, Control_c, 0, 64, 127
3, 199424, Note_on_c, 8, 57, 0
3, 199424, Note_on_c, 7, 33, 0
3, 199440, Note_on_c, 8, 45, 0
3, 199564, Control_c, 0, 64, 0
3, 199572, Note_on_c, 7, 46, 67
3, 199576, Note_on_c, 8, 58, 78
3, 199640, Note_on_c, 7, 46, 0
3, 199640, Note_on_c, 8, 58, 0
3, 199940, Note_on_c, 7, 46, 65
3, 199948, Note_on_c, 8, 58, 80
3, 200404, Control_c, 0, 64, 127
3, 200556, Note_on_c, 7, 46, 0
3, 200580, Note_on_c, 8, 58, 0
3, 201204, Control_c, 0, 64, 0
3, 201228, Note_on_c, 8, 79, 64
3, 201228, Note_on_c, 7, 56, 61
3, 201236, Note_on_c, 8, 69, 61
3, 201236, Note_on_c, 8, 73, 67
3, 201240, Note_on_c, 7, 66, 63
3, 201264, Note_on_c, 7, 61, 33
3, 201388, Note_on_c, 8, 73, 0
3, 201404, Note_on_c, 8, 74, 48
3, 201560, Control_c, 0, 64, 127
3, 201604, Note_on_c, 8, 74, 0
3, 201612, Note_on_c, 8, 79, 0
3, 201612, Note_on_c, 7, 66, 0
3, 201636, Note_on_c, 8, 69, 0
3, 201680, Note_on_c, 7, 61, 0
3, 201688, Note_on_c, 7, 56, 0
3, 201852, Control_c, 0, 64, 0
3, 201852, Note_on_c, 8, 67, 47
3, 201856, Note_on_c, 8, 77, 50
3, 201860, Note_on_c, 7, 65, 46
3, 201860, Note_on_c, 8, 72, 58
3, 201864, Note_on_c, 7, 62, 32
3, 201868, Note_on_c, 7, 55, 37
3, 201872, Note_on_c, 7, 60, 43
3, 202012, Control_c, 0, 64, 127
3, 202036, Note_on_c, 8, 67, 0
3, 202068, Note_on_c, 8, 72, 0
3, 202112, Note_on_c, 8, 77, 0
3, 202384, Note_on_c, 8, 79, 35
3, 202392, Note_on_c, 8, 89, 40
3, 202420, Note_on_c, 8, 79, 0
3, 202468, Note_on_c, 8, 89, 0
3, 202700, Note_on_c, 8, 103, 33
3, 202708, Note_on_c, 8, 91, 44
3, 202868, Note_on_c, 7, 65, 0
3, 202884, Note_on_c, 7, 62, 0
3, 202892, Note_on_c, 7, 60, 0
3, 202924, Note_on_c, 7, 55, 0
3, 202984, Note_on_c, 8, 103, 0
3, 202984, Note_on_c, 8, 91, 0
3, 203044, Note_on_c, 8, 100, 60
3, 203292, Note_on_c, 8, 100, 0
3, 203348, Note_on_c, 8, 103, 44
3, 203360, Note_on_c, 8, 91, 40
3, 203460, Note_on_c, 8, 91, 0
3, 203508, Note_on_c, 8, 103, 0
3, 203648, Note_on_c, 8, 108, 71
3, 203668, Note_on_c, 7, 27, 48
3, 203716, Note_on_c, 8, 108, 0
3, 204032, Note_on_c, 7, 27, 0
3, 204032, End_track
4, 0, Start_track
4, 0, MIDI_port, 0
4, 0, Sequencer_specific, 7, 0, 0, 0, 106, 0, 4, 2
4, 0, Title_t, "Track 3"
4, 0, Control_c, 1, 0, 0
4, 0, Control_c, 1, 32, 122
4, 0, Program_c, 1, 35
4, 0, Control_c, 1, 7, 89
4, 12, Note_on_c, 1, 46, 64
4, 264, Note_on_c, 1, 34, 80
4, 288, Note_on_c, 1, 46, 0
4, 364, Note_on_c, 1, 34, 0
4, 796, Note_on_c, 1, 34, 80
4, 1192, Note_on_c, 1, 34, 0
4, 1192, Note_on_c, 1, 33, 71
4, 1400, Note_on_c, 1, 33, 0
4, 1424, Note_on_c, 1, 34, 88
4, 2172, Note_on_c, 1, 46, 101
4, 2300, Note_on_c, 1, 34, 0
4, 2576, Note_on_c, 1, 34, 80
4, 2628, Note_on_c, 1, 34, 0
4, 2660, Note_on_c, 1, 46, 0
4, 2684, Note_on_c, 1, 33, 74
4, 3028, Note_on_c, 1, 33, 0
4, 3072, Note_on_c, 1, 34, 66
4, 3348, Note_on_c, 1, 46, 95
4, 3420, Note_on_c, 1, 34, 0
4, 3432, Note_on_c, 1, 46, 0
4, 3468, Note_on_c, 1, 41, 94
4, 3788, Note_on_c, 1, 41, 0
4, 3848, Note_on_c, 1, 37, 88
4, 4192, Note_on_c, 1, 37, 0
4, 4228, Note_on_c, 1, 34, 67
4, 4604, Note_on_c, 1, 34, 0
4, 4608, Note_on_c, 1, 39, 90
4, 4816, Note_on_c, 1, 39, 0
4, 4868, Note_on_c, 1, 39, 62
4, 4940, Note_on_c, 1, 39, 0
4, 4984, Note_on_c, 1, 41, 92
4, 5240, Note_on_c, 1, 34, 37
4, 5316, Note_on_c, 1, 34, 0
4, 5344, Note_on_c, 1, 41, 0
4, 5372, Note_on_c, 1, 43, 81
4, 5736, Note_on_c, 1, 43, 0
4, 5744, Note_on_c, 1, 33, 95
4, 6092, Note_on_c, 1, 33, 0
4, 6124, Note_on_c, 1, 32, 82
4, 6444, Note_on_c, 1, 32, 0
4, 6508, Note_on_c, 1, 32, 79
4, 6884, Note_on_c, 1, 32, 0
4, 6916, Note_on_c, 1, 39, 85
4, 7264, Note_on_c, 1, 39, 0
4, 7304, Note_on_c, 1, 39, 79
4, 7684, Note_on_c, 1, 39, 0
4, 7684, Note_on_c, 1, 44, 92
4, 8016, Note_on_c, 1, 44, 0
4, 8064, Note_on_c, 1, 44, 83
4, 8408, Note_on_c, 1, 44, 0
4, 8444, Note_on_c, 1, 39, 69
4, 8620, Note_on_c, 1, 39, 0
4, 8708, Note_on_c, 1, 30, 81
4, 8772, Note_on_c, 1, 30, 0
4, 8824, Note_on_c, 1, 31, 92
4, 9152, Note_on_c, 1, 31, 0
4, 9204, Note_on_c, 1, 32, 86
4, 9556, Note_on_c, 1, 32, 0
4, 9596, Note_on_c, 1, 32, 76
4, 9988, Note_on_c, 1, 39, 83
4, 9992, Note_on_c, 1, 32, 0
4, 10276, Note_on_c, 1, 32, 64
4, 10316, Note_on_c, 1, 32, 0
4, 10320, Note_on_c, 1, 39, 0
4, 10380, Note_on_c, 1, 38, 82
4, 10724, Note_on_c, 1, 38, 0
4, 10764, Note_on_c, 1, 37, 76
4, 11144, Note_on_c, 1, 37, 0
4, 11152, Note_on_c, 1, 49, 95
4, 11500, Note_on_c, 1, 49, 0
4, 11520, Note_on_c, 1, 41, 75
4, 11796, Note_on_c, 1, 41, 0
4, 11796, Note_on_c, 1, 38, 75
4, 11840, Note_on_c, 1, 38, 0
4, 11908, Note_on_c, 1, 38, 70
4, 12176, Note_on_c, 1, 39, 101
4, 12200, Note_on_c, 1, 38, 0
4, 12252, Note_on_c, 1, 39, 0
4, 12672, Note_on_c, 1, 39, 92
4, 13036, Note_on_c, 1, 39, 0
4, 13060, Note_on_c, 1, 34, 73
4, 13388, Note_on_c, 1, 34, 0
4, 13440, Note_on_c, 1, 34, 61
4, 13788, Note_on_c, 1, 34, 0
4, 13820, Note_on_c, 1, 31, 67
4, 14140, Note_on_c, 1, 31, 0
4, 14180, Note_on_c, 1, 31, 85
4, 14540, Note_on_c, 1, 31, 0
4, 14580, Note_on_c, 1, 34, 68
4, 14960, Note_on_c, 1, 34, 0
4, 14976, Note_on_c, 1, 38, 67
4, 15224, Note_on_c, 1, 42, 80
4, 15228, Note_on_c, 1, 38, 0
4, 15304, Note_on_c, 1, 42, 0
4, 15352, Note_on_c, 1, 43, 78
4, 15720, Note_on_c, 1, 43, 0
4, 15744, Note_on_c, 1, 38, 75
4, 16124, Note_on_c, 1, 38, 0
4, 16132, Note_on_c, 1, 34, 73
4, 16312, Note_on_c, 1, 34, 0
4, 16408, Note_on_c, 1, 34, 74
4, 16492, Note_on_c, 1, 34, 0
4, 16520, Note_on_c, 1, 35, 78
4, 16892, Note_on_c, 1, 35, 0
4, 16924, Note_on_c, 1, 36, 72
4, 17256, Note_on_c, 1, 36, 0
4, 17256, Note_on_c, 1, 34, 38
4, 17280, Note_on_c, 1, 34, 0
4, 17296, Note_on_c, 1, 38, 90
4, 17664, Note_on_c, 1, 38, 0
4, 17704, Note_on_c, 1, 40, 67
4, 17936, Note_on_c, 1, 40, 0
4, 17964, Note_on_c, 1, 43, 80
4, 18036, Note_on_c, 1, 43, 0
4, 18080, Note_on_c, 1, 42, 80
4, 18300, Note_on_c, 1, 42, 0
4, 18332, Note_on_c, 1, 40, 80
4, 18404, Note_on_c, 1, 40, 0
4, 18468, Note_on_c, 1, 41, 65
4, 18508, Note_on_c, 1, 41, 0
4, 18720, Note_on_c, 1, 36, 76
4, 18796, Note_on_c, 1, 36, 0
4, 18836, Note_on_c, 1, 31, 74
4, 19204, Note_on_c, 1, 31, 0
4, 19208, Note_on_c, 1, 30, 71
4, 19588, Note_on_c, 1, 28, 74
4, 19620, Note_on_c, 1, 30, 0
4, 19940, Note_on_c, 1, 28, 0
4, 19968, Note_on_c, 1, 29, 73
4, 20344, Note_on_c, 1, 31, 79
4, 20360, Note_on_c, 1, 29, 0
4, 20740, Note_on_c, 1, 31, 0
4, 20748, Note_on_c, 1, 32, 85
4, 21128, Note_on_c, 1, 33, 87
4, 21140, Note_on_c, 1, 32, 0
4, 21508, Note_on_c, 1, 34, 82
4, 21536, Note_on_c, 1, 33, 0
4, 21876, Note_on_c, 1, 34, 0
4, 21904, Note_on_c, 1, 36, 89
4, 22272, Note_on_c, 1, 36, 0
4, 22280, Note_on_c, 1, 38, 89
4, 22584, Note_on_c, 1, 36, 82
4, 22608, Note_on_c, 1, 36, 0
4, 22624, Note_on_c, 1, 38, 0
4, 22664, Note_on_c, 1, 43, 114
4, 23012, Note_on_c, 1, 43, 0
4, 23032, Note_on_c, 1, 41, 83
4, 23392, Note_on_c, 1, 41, 0
4, 23412, Note_on_c, 1, 38, 84
4, 23788, Note_on_c, 1, 38, 0
4, 23788, Note_on_c, 1, 34, 71
4, 24068, Note_on_c, 1, 38, 54
4, 24100, Note_on_c, 1, 38, 0
4, 24120, Note_on_c, 1, 34, 0
4, 24160, Note_on_c, 1, 38, 78
4, 24520, Note_on_c, 1, 38, 0
4, 24532, Note_on_c, 1, 39, 105
4, 24632, Note_on_c, 1, 39, 0
4, 24960, Note_on_c, 1, 41, 76
4, 25216, Note_on_c, 1, 38, 51
4, 25288, Note_on_c, 1, 41, 0
4, 25288, Note_on_c, 1, 38, 0
4, 25344, Note_on_c, 1, 43, 69
4, 25600, Note_on_c, 1, 34, 37
4, 25688, Note_on_c, 1, 34, 0
4, 25696, Note_on_c, 1, 43, 0
4, 25728, Note_on_c, 1, 39, 66
4, 25984, Note_on_c, 1, 34, 41
4, 26032, Note_on_c, 1, 39, 0
4, 26080, Note_on_c, 1, 34, 0
4, 26112, Note_on_c, 1, 46, 73
4, 26428, Note_on_c, 1, 46, 0
4, 26496, Note_on_c, 1, 43, 73
4, 26852, Note_on_c, 1, 43, 0
4, 26880, Note_on_c, 1, 39, 69
4, 27004, Note_on_c, 1, 39, 0
4, 27136, Note_on_c, 1, 32, 70
4, 27236, Note_on_c, 1, 32, 0
4, 27264, Note_on_c, 1, 33, 73
4, 27616, Note_on_c, 1, 33, 0
4, 27648, Note_on_c, 1, 34, 74
4, 28032, Note_on_c, 1, 39, 91
4, 28060, Note_on_c, 1, 34, 0
4, 28408, Note_on_c, 1, 39, 0
4, 28416, Note_on_c, 1, 36, 72
4, 28664, Note_on_c, 1, 36, 0
4, 28672, Note_on_c, 1, 37, 68
4, 28672, Note_on_c, 1, 34, 41
4, 28764, Note_on_c, 1, 34, 0
4, 28792, Note_on_c, 1, 37, 0
4, 28800, Note_on_c, 1, 38, 59
4, 29056, Note_on_c, 1, 34, 43
4, 29132, Note_on_c, 1, 34, 0
4, 29148, Note_on_c, 1, 38, 0
4, 29184, Note_on_c, 1, 39, 64
4, 29440, Note_on_c, 1, 34, 49
4, 29532, Note_on_c, 1, 39, 0
4, 29548, Note_on_c, 1, 34, 0
4, 29568, Note_on_c, 1, 43, 71
4, 29824, Note_on_c, 1, 34, 51
4, 29896, Note_on_c, 1, 43, 0
4, 29952, Note_on_c, 1, 46, 70
4, 29956, Note_on_c, 1, 34, 0
4, 30208, Note_on_c, 1, 34, 53
4, 30280, Note_on_c, 1, 46, 0
4, 30320, Note_on_c, 1, 34, 0
4, 30336, Note_on_c, 1, 45, 68
4, 30704, Note_on_c, 1, 45, 0
4, 30720, Note_on_c, 1, 44, 68
4, 30964, Note_on_c, 1, 44, 0
4, 30976, Note_on_c, 1, 38, 54
4, 31052, Note_on_c, 1, 38, 0
4, 31104, Note_on_c, 1, 39, 86
4, 31396, Note_on_c, 1, 39, 0
4, 31488, Note_on_c, 1, 32, 64
4, 31872, Note_on_c, 1, 39, 64
4, 31928, Note_on_c, 1, 32, 0
4, 32128, Note_on_c, 1, 32, 56
4, 32184, Note_on_c, 1, 39, 0
4, 32220, Note_on_c, 1, 32, 0
4, 32256, Note_on_c, 1, 44, 73
4, 32576, Note_on_c, 1, 44, 0
4, 32640, Note_on_c, 1, 44, 60
4, 32896, Note_on_c, 1, 34, 41
4, 32968, Note_on_c, 1, 34, 0
4, 33024, Note_on_c, 1, 39, 62
4, 33040, Note_on_c, 1, 44, 0
4, 33276, Note_on_c, 1, 39, 0
4, 33280, Note_on_c, 1, 30, 78
4, 33368, Note_on_c, 1, 30, 0
4, 33408, Note_on_c, 1, 31, 70
4, 33732, Note_on_c, 1, 31, 0
4, 33792, Note_on_c, 1, 32, 73
4, 33956, Note_on_c, 1, 32, 0
4, 34048, Note_on_c, 1, 32, 63
4, 34112, Note_on_c, 1, 32, 0
4, 34176, Note_on_c, 1, 35, 62
4, 34548, Note_on_c, 1, 35, 0
4, 34560, Note_on_c, 1, 39, 66
4, 34816, Note_on_c, 1, 32, 60
4, 34904, Note_on_c, 1, 32, 0
4, 34912, Note_on_c, 1, 39, 0
4, 34944, Note_on_c, 1, 44, 67
4, 35200, Note_on_c, 1, 32, 57
4, 35256, Note_on_c, 1, 44, 0
4, 35312, Note_on_c, 1, 32, 0
4, 35328, Note_on_c, 1, 49, 69
4, 35672, Note_on_c, 1, 49, 0
4, 35712, Note_on_c, 1, 47, 68
4, 36068, Note_on_c, 1, 47, 0
4, 36096, Note_on_c, 1, 44, 61
4, 36352, Note_on_c, 1, 37, 71
4, 36396, Note_on_c, 1, 44, 0
4, 36480, Note_on_c, 1, 38, 69
4, 36488, Note_on_c, 1, 37, 0
4, 36820, Note_on_c, 1, 38, 0
4, 36864, Note_on_c, 1, 39, 64
4, 37216, Note_on_c, 1, 39, 0
4, 37248, Note_on_c, 1, 39, 77
4, 37632, Note_on_c, 1, 41, 80
4, 37668, Note_on_c, 1, 39, 0
4, 37888, Note_on_c, 1, 39, 43
4, 37952, Note_on_c, 1, 39, 0
4, 37976, Note_on_c, 1, 41, 0
4, 38016, Note_on_c, 1, 42, 69
4, 38400, Note_on_c, 1, 42, 0
4, 38400, Note_on_c, 1, 43, 62
4, 38784, Note_on_c, 1, 39, 66
4, 38792, Note_on_c, 1, 43, 0
4, 39168, Note_on_c, 1, 34, 71
4, 39172, Note_on_c, 1, 39, 0
4, 39520, Note_on_c, 1, 34, 0
4, 39552, Note_on_c, 1, 30, 83
4, 39896, Note_on_c, 1, 30, 0
4, 39936, Note_on_c, 1, 31, 78
4, 40312, Note_on_c, 1, 31, 0
4, 40320, Note_on_c, 1, 38, 78
4, 40576, Note_on_c, 1, 34, 43
4, 40660, Note_on_c, 1, 34, 0
4, 40668, Note_on_c, 1, 38, 0
4, 40704, Note_on_c, 1, 45, 71
4, 40960, Note_on_c, 1, 34, 71
4, 40976, Note_on_c, 1, 45, 0
4, 41052, Note_on_c, 1, 34, 0
4, 41088, Note_on_c, 1, 35, 47
4, 41460, Note_on_c, 1, 35, 0
4, 41472, Note_on_c, 1, 36, 80
4, 41728, Note_on_c, 1, 34, 54
4, 41800, Note_on_c, 1, 36, 0
4, 41836, Note_on_c, 1, 34, 0
4, 41856, Note_on_c, 1, 38, 73
4, 42112, Note_on_c, 1, 34, 52
4, 42192, Note_on_c, 1, 34, 0
4, 42224, Note_on_c, 1, 38, 0
4, 42240, Note_on_c, 1, 39, 73
4, 42624, Note_on_c, 1, 39, 0
4, 42624, Note_on_c, 1, 40, 62
4, 42880, Note_on_c, 1, 36, 66
4, 42956, Note_on_c, 1, 36, 0
4, 42972, Note_on_c, 1, 40, 0
4, 43008, Note_on_c, 1, 41, 71
4, 43332, Note_on_c, 1, 41, 0
4, 43392, Note_on_c, 1, 44, 72
4, 43648, Note_on_c, 1, 36, 61
4, 43724, Note_on_c, 1, 44, 0
4, 43724, Note_on_c, 1, 36, 0
4, 43776, Note_on_c, 1, 48, 76
4, 44032, Note_on_c, 1, 37, 55
4, 44040, Note_on_c, 1, 48, 0
4, 44096, Note_on_c, 1, 37, 0
4, 44160, Note_on_c, 1, 47, 72
4, 44512, Note_on_c, 1, 47, 0
4, 44544, Note_on_c, 1, 48, 81
4, 44696, Note_on_c, 1, 48, 0
4, 44800, Note_on_c, 1, 43, 77
4, 44864, Note_on_c, 1, 43, 0
4, 44928, Note_on_c, 1, 40, 82
4, 45288, Note_on_c, 1, 40, 0
4, 45312, Note_on_c, 1, 36, 80
4, 45684, Note_on_c, 1, 36, 0
4, 45696, Note_on_c, 1, 30, 75
4, 46036, Note_on_c, 1, 30, 0
4, 46080, Note_on_c, 1, 29, 71
4, 46464, Note_on_c, 1, 31, 82
4, 46468, Note_on_c, 1, 29, 0
4, 46816, Note_on_c, 1, 31, 0
4, 46848, Note_on_c, 1, 32, 85
4, 47192, Note_on_c, 1, 32, 0
4, 47232, Note_on_c, 1, 32, 77
4, 47564, Note_on_c, 1, 32, 0
4, 47616, Note_on_c, 1, 35, 71
4, 47872, Note_on_c, 1, 32, 66
4, 47964, Note_on_c, 1, 32, 0
4, 47972, Note_on_c, 1, 35, 0
4, 48000, Note_on_c, 1, 39, 53
4, 48384, Note_on_c, 1, 37, 64
4, 48392, Note_on_c, 1, 39, 0
4, 48640, Note_on_c, 1, 34, 47
4, 48704, Note_on_c, 1, 34, 0
4, 48720, Note_on_c, 1, 37, 0
4, 48768, Note_on_c, 1, 44, 85
4, 49024, Note_on_c, 1, 38, 78
4, 49040, Note_on_c, 1, 44, 0
4, 49112, Note_on_c, 1, 38, 0
4, 49152, Note_on_c, 1, 39, 83
4, 49456, Note_on_c, 1, 39, 0
4, 49536, Note_on_c, 1, 39, 81
4, 49904, Note_on_c, 1, 39, 0
4, 49920, Note_on_c, 1, 43, 86
4, 50144, Note_on_c, 1, 43, 0
4, 50176, Note_on_c, 1, 36, 72
4, 50284, Note_on_c, 1, 36, 0
4, 50304, Note_on_c, 1, 37, 71
4, 50676, Note_on_c, 1, 37, 0
4, 50688, Note_on_c, 1, 38, 67
4, 50944, Note_on_c, 1, 45, 85
4, 50960, Note_on_c, 1, 38, 0
4, 51052, Note_on_c, 1, 45, 0
4, 51072, Note_on_c, 1, 41, 70
4, 51252, Note_on_c, 1, 41, 0
4, 51328, Note_on_c, 1, 42, 76
4, 51432, Note_on_c, 1, 42, 0
4, 51456, Note_on_c, 1, 43, 63
4, 51520, Note_on_c, 1, 43, 0
4, 51584, Note_on_c, 1, 38, 76
4, 51700, Note_on_c, 1, 38, 0
4, 51712, Note_on_c, 1, 32, 89
4, 51848, Note_on_c, 1, 32, 0
4, 51968, Note_on_c, 1, 31, 61
4, 52100, Note_on_c, 1, 31, 0
4, 52224, Note_on_c, 1, 35, 72
4, 52224, Note_on_c, 1, 36, 86
4, 52288, Note_on_c, 1, 35, 0
4, 52572, Note_on_c, 1, 36, 0
4, 52608, Note_on_c, 1, 36, 98
4, 52992, Note_on_c, 1, 32, 87
4, 53016, Note_on_c, 1, 36, 0
4, 53312, Note_on_c, 1, 32, 0
4, 53376, Note_on_c, 1, 32, 77
4, 53720, Note_on_c, 1, 32, 0
4, 53760, Note_on_c, 1, 33, 80
4, 54096, Note_on_c, 1, 33, 0
4, 54144, Note_on_c, 1, 33, 80
4, 54528, Note_on_c, 1, 42, 74
4, 54560, Note_on_c, 1, 33, 0
4, 54784, Note_on_c, 1, 33, 80
4, 54812, Note_on_c, 1, 42, 0
4, 54912, Note_on_c, 1, 45, 75
4, 54952, Note_on_c, 1, 33, 0
4, 55168, Note_on_c, 1, 33, 53
4, 55252, Note_on_c, 1, 45, 0
4, 55276, Note_on_c, 1, 33, 0
4, 55296, Note_on_c, 1, 46, 66
4, 55680, Note_on_c, 1, 43, 64
4, 55736, Note_on_c, 1, 46, 0
4, 56064, Note_on_c, 1, 38, 62
4, 56084, Note_on_c, 1, 43, 0
4, 56392, Note_on_c, 1, 38, 0
4, 56448, Note_on_c, 1, 34, 38
4, 56516, Note_on_c, 1, 34, 0
4, 56576, Note_on_c, 1, 35, 89
4, 56832, Note_on_c, 1, 36, 71
4, 56848, Note_on_c, 1, 35, 0
4, 57088, Note_on_c, 1, 34, 54
4, 57172, Note_on_c, 1, 36, 0
4, 57216, Note_on_c, 1, 40, 66
4, 57224, Note_on_c, 1, 34, 0
4, 57472, Note_on_c, 1, 34, 54
4, 57564, Note_on_c, 1, 34, 0
4, 57596, Note_on_c, 1, 40, 0
4, 57600, Note_on_c, 1, 48, 73
4, 57856, Note_on_c, 1, 39, 74
4, 57896, Note_on_c, 1, 48, 0
4, 57972, Note_on_c, 1, 39, 0
4, 57984, Note_on_c, 1, 40, 69
4, 58228, Note_on_c, 1, 40, 0
4, 58240, Note_on_c, 1, 41, 99
4, 58624, Note_on_c, 1, 39, 67
4, 58696, Note_on_c, 1, 41, 0
4, 58736, Note_on_c, 1, 39, 0
4, 58752, Note_on_c, 1, 43, 77
4, 59104, Note_on_c, 1, 43, 0
4, 59136, Note_on_c, 1, 39, 45
4, 59136, Note_on_c, 1, 44, 62
4, 59200, Note_on_c, 1, 39, 0
4, 59392, Note_on_c, 1, 39, 52
4, 59468, Note_on_c, 1, 39, 0
4, 59496, Note_on_c, 1, 44, 0
4, 59520, Note_on_c, 1, 45, 67
4, 59884, Note_on_c, 1, 45, 0
4, 59904, Note_on_c, 1, 46, 69
4, 60160, Note_on_c, 1, 41, 59
4, 60224, Note_on_c, 1, 41, 0
4, 60284, Note_on_c, 1, 46, 0
4, 60288, Note_on_c, 1, 34, 73
4, 60632, Note_on_c, 1, 34, 0
4, 60672, Note_on_c, 1, 36, 54
4, 61040, Note_on_c, 1, 36, 0
4, 61056, Note_on_c, 1, 38, 62
4, 61432, Note_on_c, 1, 38, 0
4, 61440, Note_on_c, 1, 39, 68
4, 61696, Note_on_c, 1, 46, 69
4, 61972, Note_on_c, 1, 39, 0
4, 62464, Note_on_c, 1, 39, 57
4, 62548, Note_on_c, 1, 39, 0
4, 62580, Note_on_c, 1, 46, 0
4, 62592, Note_on_c, 1, 34, 72
4, 63232, Note_on_c, 1, 39, 63
4, 63304, Note_on_c, 1, 34, 0
4, 63328, Note_on_c, 1, 39, 0
4, 63360, Note_on_c, 1, 46, 65
4, 63588, Note_on_c, 1, 46, 0
4, 63616, Note_on_c, 1, 48, 72
4, 63720, Note_on_c, 1, 48, 0
4, 63744, Note_on_c, 1, 46, 46
4, 64000, Note_on_c, 1, 39, 62
4, 64036, Note_on_c, 1, 46, 0
4, 64096, Note_on_c, 1, 39, 0
4, 64128, Note_on_c, 1, 45, 63
4, 64476, Note_on_c, 1, 45, 0
4, 64512, Note_on_c, 1, 46, 61
4, 64896, Note_on_c, 1, 41, 58
4, 65232, Note_on_c, 1, 41, 0
4, 65280, Note_on_c, 1, 39, 55
4, 65616, Note_on_c, 1, 39, 0
4, 65664, Note_on_c, 1, 38, 77
4, 65784, Note_on_c, 1, 46, 0
4, 66024, Note_on_c, 1, 38, 0
4, 66048, Note_on_c, 1, 39, 58
4, 66432, Note_on_c, 1, 34, 71
4, 66440, Note_on_c, 1, 39, 0
4, 66796, Note_on_c, 1, 34, 0
4, 66816, Note_on_c, 1, 33, 74
4, 67200, Note_on_c, 1, 45, 97
4, 67240, Note_on_c, 1, 33, 0
4, 67556, Note_on_c, 1, 45, 0
4, 67584, Note_on_c, 1, 44, 67
4, 67968, Note_on_c, 1, 38, 78
4, 67980, Note_on_c, 1, 44, 0
4, 68328, Note_on_c, 1, 38, 0
4, 68352, Note_on_c, 1, 39, 67
4, 68736, Note_on_c, 1, 31, 84
4, 68760, Note_on_c, 1, 39, 0
4, 69076, Note_on_c, 1, 31, 0
4, 69120, Note_on_c, 1, 32, 74
4, 69444, Note_on_c, 1, 32, 0
4, 69504, Note_on_c, 1, 43, 91
4, 69844, Note_on_c, 1, 43, 0
4, 69888, Note_on_c, 1, 44, 68
4, 70144, Note_on_c, 1, 34, 64
4, 70152, Note_on_c, 1, 44, 0
4, 70240, Note_on_c, 1, 34, 0
4, 70272, Note_on_c, 1, 46, 87
4, 70616, Note_on_c, 1, 46, 0
4, 70656, Note_on_c, 1, 47, 71
4, 70992, Note_on_c, 1, 47, 0
4, 71040, Note_on_c, 1, 44, 60
4, 71424, Note_on_c, 1, 39, 88
4, 71448, Note_on_c, 1, 44, 0
4, 71796, Note_on_c, 1, 39, 0
4, 71808, Note_on_c, 1, 38, 55
4, 72192, Note_on_c, 1, 37, 71
4, 72200, Note_on_c, 1, 38, 0
4, 72556, Note_on_c, 1, 37, 0
4, 72576, Note_on_c, 1, 37, 89
4, 72952, Note_on_c, 1, 37, 0
4, 72960, Note_on_c, 1, 38, 75
4, 73312, Note_on_c, 1, 38, 0
4, 73344, Note_on_c, 1, 38, 88
4, 73728, Note_on_c, 1, 39, 77
4, 73760, Note_on_c, 1, 38, 0
4, 74112, Note_on_c, 1, 43, 77
4, 74152, Note_on_c, 1, 39, 0
4, 74368, Note_on_c, 1, 39, 45
4, 74452, Note_on_c, 1, 43, 0
4, 74468, Note_on_c, 1, 39, 0
4, 74496, Note_on_c, 1, 46, 64
4, 74752, Note_on_c, 1, 39, 51
4, 74860, Note_on_c, 1, 46, 0
4, 74860, Note_on_c, 1, 39, 0
4, 74880, Note_on_c, 1, 43, 52
4, 75136, Note_on_c, 1, 39, 56
4, 75224, Note_on_c, 1, 39, 0
4, 75248, Note_on_c, 1, 43, 0
4, 75264, Note_on_c, 1, 51, 82
4, 75600, Note_on_c, 1, 51, 0
4, 75648, Note_on_c, 1, 50, 84
4, 76016, Note_on_c, 1, 50, 0
4, 76032, Note_on_c, 1, 48, 72
4, 76416, Note_on_c, 1, 48, 0
4, 76544, Note_on_c, 1, 42, 77
4, 76800, Note_on_c, 1, 43, 64
4, 76820, Note_on_c, 1, 42, 0
4, 77180, Note_on_c, 1, 43, 0
4, 77184, Note_on_c, 1, 42, 62
4, 77184, Note_on_c, 1, 57, 95
4, 77248, Note_on_c, 1, 42, 0
4, 77568, Note_on_c, 1, 55, 80
4, 77572, Note_on_c, 1, 57, 0
4, 77844, Note_on_c, 1, 55, 0
4, 77952, Note_on_c, 1, 50, 69
4, 78016, Note_on_c, 1, 50, 0
4, 78080, Note_on_c, 1, 47, 75
4, 78336, Note_on_c, 1, 47, 0
4, 78336, Note_on_c, 1, 48, 68
4, 78720, Note_on_c, 1, 36, 80
4, 78792, Note_on_c, 1, 48, 0
4, 79100, Note_on_c, 1, 36, 0
4, 79104, Note_on_c, 1, 38, 69
4, 79360, Note_on_c, 1, 39, 71
4, 79384, Note_on_c, 1, 38, 0
4, 79452, Note_on_c, 1, 39, 0
4, 79488, Note_on_c, 1, 40, 67
4, 79832, Note_on_c, 1, 40, 0
4, 79872, Note_on_c, 1, 41, 76
4, 80100, Note_on_c, 1, 41, 0
4, 80128, Note_on_c, 1, 36, 57
4, 80192, Note_on_c, 1, 36, 0
4, 80256, Note_on_c, 1, 33, 82
4, 80600, Note_on_c, 1, 33, 0
4, 80640, Note_on_c, 1, 31, 75
4, 80932, Note_on_c, 1, 31, 0
4, 81024, Note_on_c, 1, 30, 67
4, 81288, Note_on_c, 1, 30, 0
4, 81408, Note_on_c, 1, 29, 66
4, 81764, Note_on_c, 1, 29, 0
4, 81792, Note_on_c, 1, 36, 83
4, 82112, Note_on_c, 1, 36, 0
4, 82176, Note_on_c, 1, 33, 70
4, 82488, Note_on_c, 1, 33, 0
4, 82560, Note_on_c, 1, 35, 62
4, 82560, Note_on_c, 1, 36, 61
4, 82624, Note_on_c, 1, 36, 0
4, 82912, Note_on_c, 1, 35, 0
4, 82944, Note_on_c, 1, 34, 63
4, 83284, Note_on_c, 1, 34, 0
4, 83328, Note_on_c, 1, 36, 74
4, 83660, Note_on_c, 1, 36, 0
4, 83712, Note_on_c, 1, 38, 63
4, 83968, Note_on_c, 1, 36, 62
4, 83976, Note_on_c, 1, 38, 0
4, 84032, Note_on_c, 1, 36, 0
4, 84096, Note_on_c, 1, 43, 73
4, 84416, Note_on_c, 1, 43, 0
4, 84480, Note_on_c, 1, 41, 52
4, 84848, Note_on_c, 1, 41, 0
4, 84864, Note_on_c, 1, 50, 74
4, 85248, Note_on_c, 1, 44, 51
4, 85548, Note_on_c, 1, 50, 0
4, 85604, Note_on_c, 1, 44, 0
4, 85632, Note_on_c, 1, 38, 87
4, 86016, Note_on_c, 1, 39, 73
4, 86020, Note_on_c, 1, 38, 0
4, 86364, Note_on_c, 1, 39, 0
4, 86400, Note_on_c, 1, 41, 75
4, 86772, Note_on_c, 1, 41, 0
4, 86784, Note_on_c, 1, 43, 74
4, 87040, Note_on_c, 1, 39, 53
4, 87120, Note_on_c, 1, 43, 0
4, 87120, Note_on_c, 1, 39, 0
4, 87168, Note_on_c, 1, 46, 75
4, 87552, Note_on_c, 1, 48, 80
4, 87560, Note_on_c, 1, 46, 0
4, 87808, Note_on_c, 1, 39, 48
4, 87872, Note_on_c, 1, 39, 0
4, 87900, Note_on_c, 1, 48, 0
4, 87936, Note_on_c, 1, 46, 60
4, 88316, Note_on_c, 1, 46, 0
4, 88320, Note_on_c, 1, 43, 58
4, 88576, Note_on_c, 1, 37, 65
4, 88632, Note_on_c, 1, 43, 0
4, 88684, Note_on_c, 1, 37, 0
4, 88704, Note_on_c, 1, 38, 71
4, 89056, Note_on_c, 1, 38, 0
4, 89088, Note_on_c, 1, 39, 72
4, 89416, Note_on_c, 1, 39, 0
4, 89472, Note_on_c, 1, 43, 78
4, 89780, Note_on_c, 1, 43, 0
4, 89856, Note_on_c, 1, 46, 62
4, 90112, Note_on_c, 1, 39, 57
4, 90204, Note_on_c, 1, 39, 0
4, 90224, Note_on_c, 1, 46, 0
4, 90240, Note_on_c, 1, 48, 77
4, 90496, Note_on_c, 1, 39, 39
4, 90572, Note_on_c, 1, 39, 0
4, 90596, Note_on_c, 1, 48, 0
4, 90624, Note_on_c, 1, 46, 70
4, 91008, Note_on_c, 1, 41, 65
4, 91352, Note_on_c, 1, 41, 0
4, 91360, Note_on_c, 1, 46, 0
4, 91392, Note_on_c, 1, 40, 73
4, 91776, Note_on_c, 1, 39, 72
4, 91788, Note_on_c, 1, 40, 0
4, 92004, Note_on_c, 1, 39, 0
4, 92032, Note_on_c, 1, 39, 77
4, 92120, Note_on_c, 1, 39, 0
4, 92160, Note_on_c, 1, 44, 79
4, 92520, Note_on_c, 1, 44, 0
4, 92544, Note_on_c, 1, 39, 57
4, 92928, Note_on_c, 1, 32, 60
4, 92960, Note_on_c, 1, 39, 0
4, 93184, Note_on_c, 1, 39, 64
4, 93216, Note_on_c, 1, 32, 0
4, 93276, Note_on_c, 1, 39, 0
4, 93312, Note_on_c, 1, 43, 82
4, 93668, Note_on_c, 1, 43, 0
4, 93696, Note_on_c, 1, 44, 64
4, 94080, Note_on_c, 1, 39, 60
4, 94100, Note_on_c, 1, 44, 0
4, 94464, Note_on_c, 1, 32, 65
4, 94488, Note_on_c, 1, 39, 0
4, 94720, Note_on_c, 1, 39, 58
4, 94732, Note_on_c, 1, 32, 0
4, 94796, Note_on_c, 1, 39, 0
4, 94848, Note_on_c, 1, 43, 80
4, 95180, Note_on_c, 1, 43, 0
4, 95232, Note_on_c, 1, 44, 67
4, 95612, Note_on_c, 1, 44, 0
4, 95616, Note_on_c, 1, 39, 72
4, 95972, Note_on_c, 1, 39, 0
4, 96000, Note_on_c, 1, 35, 78
4, 96304, Note_on_c, 1, 35, 0
4, 96384, Note_on_c, 1, 47, 96
4, 96704, Note_on_c, 1, 47, 0
4, 96768, Note_on_c, 1, 49, 78
4, 97084, Note_on_c, 1, 49, 0
4, 97152, Note_on_c, 1, 49, 74
4, 97536, Note_on_c, 1, 44, 69
4, 97792, Note_on_c, 1, 37, 73
4, 97808, Note_on_c, 1, 44, 0
4, 97852, Note_on_c, 1, 49, 0
4, 97884, Note_on_c, 1, 37, 0
4, 97920, Note_on_c, 1, 38, 68
4, 98260, Note_on_c, 1, 38, 0
4, 98304, Note_on_c, 1, 39, 71
4, 98508, Note_on_c, 1, 39, 0
4, 98560, Note_on_c, 1, 39, 64
4, 98624, Note_on_c, 1, 39, 0
4, 98688, Note_on_c, 1, 41, 66
4, 99040, Note_on_c, 1, 41, 0
4, 99072, Note_on_c, 1, 43, 70
4, 99456, Note_on_c, 1, 39, 74
4, 99496, Note_on_c, 1, 43, 0
4, 99780, Note_on_c, 1, 39, 0
4, 99840, Note_on_c, 1, 34, 65
4, 100224, Note_on_c, 1, 31, 68
4, 100248, Note_on_c, 1, 34, 0
4, 100480, Note_on_c, 1, 34, 54
4, 100512, Note_on_c, 1, 31, 0
4, 100588, Note_on_c, 1, 34, 0
4, 100608, Note_on_c, 1, 45, 94
4, 100936, Note_on_c, 1, 45, 0
4, 100992, Note_on_c, 1, 44, 79
4, 101344, Note_on_c, 1, 44, 0
4, 101376, Note_on_c, 1, 43, 75
4, 101632, Note_on_c, 1, 38, 71
4, 101660, Note_on_c, 1, 43, 0
4, 101744, Note_on_c, 1, 38, 0
4, 101760, Note_on_c, 1, 34, 70
4, 102144, Note_on_c, 1, 34, 0
4, 102144, Note_on_c, 1, 35, 78
4, 102508, Note_on_c, 1, 35, 0
4, 102528, Note_on_c, 1, 38, 63
4, 102724, Note_on_c, 1, 38, 0
4, 102784, Note_on_c, 1, 35, 69
4, 102884, Note_on_c, 1, 35, 0
4, 102912, Note_on_c, 1, 36, 80
4, 103032, Note_on_c, 1, 36, 0
4, 103168, Note_on_c, 1, 36, 78
4, 103240, Note_on_c, 1, 36, 0
4, 103296, Note_on_c, 1, 38, 75
4, 103552, Note_on_c, 1, 36, 69
4, 103600, Note_on_c, 1, 38, 0
4, 103616, Note_on_c, 1, 36, 0
4, 103680, Note_on_c, 1, 39, 66
4, 104016, Note_on_c, 1, 39, 0
4, 104064, Note_on_c, 1, 40, 73
4, 104388, Note_on_c, 1, 40, 0
4, 104448, Note_on_c, 1, 41, 68
4, 104804, Note_on_c, 1, 41, 0
4, 104832, Note_on_c, 1, 36, 77
4, 105144, Note_on_c, 1, 36, 0
4, 105216, Note_on_c, 1, 32, 67
4, 105452, Note_on_c, 1, 32, 0
4, 105472, Note_on_c, 1, 34, 55
4, 105544, Note_on_c, 1, 34, 0
4, 105600, Note_on_c, 1, 35, 69
4, 105936, Note_on_c, 1, 35, 0
4, 105984, Note_on_c, 1, 36, 69
4, 106240, Note_on_c, 1, 34, 48
4, 106312, Note_on_c, 1, 36, 0
4, 106352, Note_on_c, 1, 34, 0
4, 106368, Note_on_c, 1, 50, 98
4, 106728, Note_on_c, 1, 50, 0
4, 106752, Note_on_c, 1, 48, 70
4, 107008, Note_on_c, 1, 41, 73
4, 107044, Note_on_c, 1, 48, 0
4, 107072, Note_on_c, 1, 41, 0
4, 107136, Note_on_c, 1, 40, 68
4, 107500, Note_on_c, 1, 40, 0
4, 107520, Note_on_c, 1, 41, 69
4, 107904, Note_on_c, 1, 36, 71
4, 107916, Note_on_c, 1, 41, 0
4, 108272, Note_on_c, 1, 36, 0
4, 108288, Note_on_c, 1, 32, 75
4, 108664, Note_on_c, 1, 32, 0
4, 108672, Note_on_c, 1, 33, 75
4, 109048, Note_on_c, 1, 33, 0
4, 109056, Note_on_c, 1, 32, 72
4, 109440, Note_on_c, 1, 44, 69
4, 109464, Note_on_c, 1, 32, 0
4, 109696, Note_on_c, 1, 32, 55
4, 109796, Note_on_c, 1, 32, 0
4, 109820, Note_on_c, 1, 44, 0
4, 109824, Note_on_c, 1, 47, 69
4, 110080, Note_on_c, 1, 34, 60
4, 110112, Note_on_c, 1, 47, 0
4, 110208, Note_on_c, 1, 49, 66
4, 110220, Note_on_c, 1, 34, 0
4, 110520, Note_on_c, 1, 49, 0
4, 110592, Note_on_c, 1, 51, 66
4, 110900, Note_on_c, 1, 51, 0
4, 110976, Note_on_c, 1, 39, 50
4, 110976, Note_on_c, 1, 51, 62
4, 111040, Note_on_c, 1, 39, 0
4, 111336, Note_on_c, 1, 51, 0
4, 111360, Note_on_c, 1, 46, 58
4, 111616, Note_on_c, 1, 39, 43
4, 111668, Note_on_c, 1, 46, 0
4, 111700, Note_on_c, 1, 39, 0
4, 111744, Note_on_c, 1, 51, 80
4, 112068, Note_on_c, 1, 51, 0
4, 112128, Note_on_c, 1, 50, 89
4, 112384, Note_on_c, 1, 45, 75
4, 112400, Note_on_c, 1, 50, 0
4, 112448, Note_on_c, 1, 45, 0
4, 112512, Note_on_c, 1, 42, 79
4, 112848, Note_on_c, 1, 42, 0
4, 112896, Note_on_c, 1, 43, 62
4, 113152, Note_on_c, 1, 38, 73
4, 113180, Note_on_c, 1, 43, 0
4, 113216, Note_on_c, 1, 38, 0
4, 113280, Note_on_c, 1, 35, 69
4, 113632, Note_on_c, 1, 35, 0
4, 113664, Note_on_c, 1, 36, 68
4, 113920, Note_on_c, 1, 34, 53
4, 113988, Note_on_c, 1, 36, 0
4, 114020, Note_on_c, 1, 34, 0
4, 114048, Note_on_c, 1, 38, 70
4, 114396, Note_on_c, 1, 38, 0
4, 114432, Note_on_c, 1, 39, 63
4, 114688, Note_on_c, 1, 34, 51
4, 114752, Note_on_c, 1, 39, 0
4, 114788, Note_on_c, 1, 34, 0
4, 114816, Note_on_c, 1, 42, 69
4, 115072, Note_on_c, 1, 34, 49
4, 115144, Note_on_c, 1, 42, 0
4, 115160, Note_on_c, 1, 34, 0
4, 115200, Note_on_c, 1, 45, 65
4, 115456, Note_on_c, 1, 39, 49
4, 115468, Note_on_c, 1, 45, 0
4, 115536, Note_on_c, 1, 39, 0
4, 115584, Note_on_c, 1, 48, 82
4, 115840, Note_on_c, 1, 42, 49
4, 115904, Note_on_c, 1, 42, 0
4, 115908, Note_on_c, 1, 48, 0
4, 115968, Note_on_c, 1, 51, 50
4, 116244, Note_on_c, 1, 51, 0
4, 116352, Note_on_c, 1, 54, 63
4, 116684, Note_on_c, 1, 54, 0
4, 116736, Note_on_c, 1, 46, 62
4, 117120, Note_on_c, 1, 34, 62
4, 117364, Note_on_c, 1, 46, 0
4, 117504, Note_on_c, 1, 46, 71
4, 117748, Note_on_c, 1, 46, 0
4, 117760, Note_on_c, 1, 46, 50
4, 117824, Note_on_c, 1, 34, 0
4, 117832, Note_on_c, 1, 46, 0
4, 117888, Note_on_c, 1, 47, 71
4, 118400, Note_on_c, 1, 48, 86
4, 118420, Note_on_c, 1, 47, 0
4, 118472, Note_on_c, 1, 48, 0
4, 118528, Note_on_c, 1, 43, 80
4, 118648, Note_on_c, 1, 43, 0
4, 118656, Note_on_c, 1, 34, 82
4, 119004, Note_on_c, 1, 34, 0
4, 119040, Note_on_c, 1, 35, 70
4, 119296, Note_on_c, 1, 36, 64
4, 119320, Note_on_c, 1, 35, 0
4, 119380, Note_on_c, 1, 36, 0
4, 119424, Note_on_c, 1, 42, 68
4, 119808, Note_on_c, 1, 41, 67
4, 119876, Note_on_c, 1, 41, 0
4, 119888, Note_on_c, 1, 42, 0
4, 119936, Note_on_c, 1, 36, 80
4, 120084, Note_on_c, 1, 36, 0
4, 120192, Note_on_c, 1, 30, 75
4, 120256, Note_on_c, 1, 30, 0
4, 120320, Note_on_c, 1, 30, 72
4, 120320, Note_on_c, 1, 29, 77
4, 120320, Note_on_c, 1, 31, 65
4, 120384, Note_on_c, 1, 30, 0
4, 120384, Note_on_c, 1, 31, 0
4, 120560, Note_on_c, 1, 29, 0
4, 120576, Note_on_c, 1, 33, 82
4, 120944, Note_on_c, 1, 33, 0
4, 120960, Note_on_c, 1, 36, 65
4, 121216, Note_on_c, 1, 33, 65
4, 121248, Note_on_c, 1, 36, 0
4, 121324, Note_on_c, 1, 33, 0
4, 121344, Note_on_c, 1, 34, 72
4, 121532, Note_on_c, 1, 34, 0
4, 121600, Note_on_c, 1, 34, 66
4, 121668, Note_on_c, 1, 34, 0
4, 121728, Note_on_c, 1, 36, 74
4, 121984, Note_on_c, 1, 34, 39
4, 122064, Note_on_c, 1, 36, 0
4, 122092, Note_on_c, 1, 34, 0
4, 122112, Note_on_c, 1, 38, 72
4, 122368, Note_on_c, 1, 34, 57
4, 122440, Note_on_c, 1, 38, 0
4, 122448, Note_on_c, 1, 34, 0
4, 122496, Note_on_c, 1, 41, 68
4, 122752, Note_on_c, 1, 34, 55
4, 122816, Note_on_c, 1, 34, 0
4, 122832, Note_on_c, 1, 41, 0
4, 122880, Note_on_c, 1, 39, 58
4, 123136, Note_on_c, 1, 34, 41
4, 123212, Note_on_c, 1, 34, 0
4, 123216, Note_on_c, 1, 39, 0
4, 123264, Note_on_c, 1, 41, 71
4, 123612, Note_on_c, 1, 41, 0
4, 123648, Note_on_c, 1, 43, 67
4, 123904, Note_on_c, 1, 39, 55
4, 123960, Note_on_c, 1, 43, 0
4, 123980, Note_on_c, 1, 39, 0
4, 124032, Note_on_c, 1, 46, 70
4, 124288, Note_on_c, 1, 39, 46
4, 124336, Note_on_c, 1, 46, 0
4, 124376, Note_on_c, 1, 39, 0
4, 124416, Note_on_c, 1, 51, 81
4, 124672, Note_on_c, 1, 39, 39
4, 124752, Note_on_c, 1, 39, 0
4, 124784, Note_on_c, 1, 51, 0
4, 124800, Note_on_c, 1, 46, 67
4, 125056, Note_on_c, 1, 39, 58
4, 125120, Note_on_c, 1, 39, 0
4, 125184, Note_on_c, 1, 43, 55
4, 125440, Note_on_c, 1, 39, 60
4, 125508, Note_on_c, 1, 39, 0
4, 125544, Note_on_c, 1, 46, 0
4, 125568, Note_on_c, 1, 33, 75
4, 125692, Note_on_c, 1, 43, 0
4, 125952, Note_on_c, 1, 34, 71
4, 125968, Note_on_c, 1, 33, 0
4, 126336, Note_on_c, 1, 39, 79
4, 126364, Note_on_c, 1, 34, 0
4, 126592, Note_on_c, 1, 34, 41
4, 126700, Note_on_c, 1, 39, 0
4, 126708, Note_on_c, 1, 34, 0
4, 126720, Note_on_c, 1, 41, 72
4, 127080, Note_on_c, 1, 41, 0
4, 127104, Note_on_c, 1, 38, 62
4, 127488, Note_on_c, 1, 39, 65
4, 127504, Note_on_c, 1, 38, 0
4, 127856, Note_on_c, 1, 39, 0
4, 127872, Note_on_c, 1, 41, 65
4, 128128, Note_on_c, 1, 39, 52
4, 128204, Note_on_c, 1, 39, 0
4, 128220, Note_on_c, 1, 41, 0
4, 128256, Note_on_c, 1, 45, 65
4, 128640, Note_on_c, 1, 40, 69
4, 128720, Note_on_c, 1, 45, 0
4, 128796, Note_on_c, 1, 40, 0
4, 128896, Note_on_c, 1, 34, 80
4, 128996, Note_on_c, 1, 34, 0
4, 129024, Note_on_c, 1, 32, 77
4, 129360, Note_on_c, 1, 32, 0
4, 129408, Note_on_c, 1, 32, 70
4, 129760, Note_on_c, 1, 32, 0
4, 129792, Note_on_c, 1, 39, 62
4, 130144, Note_on_c, 1, 39, 0
4, 130176, Note_on_c, 1, 39, 61
4, 130560, Note_on_c, 1, 44, 66
4, 130616, Note_on_c, 1, 39, 0
4, 130916, Note_on_c, 1, 44, 0
4, 130944, Note_on_c, 1, 39, 52
4, 130944, Note_on_c, 1, 44, 71
4, 131008, Note_on_c, 1, 39, 0
4, 131328, Note_on_c, 1, 39, 65
4, 131332, Note_on_c, 1, 44, 0
4, 131716, Note_on_c, 1, 39, 0
4, 131840, Note_on_c, 1, 31, 89
4, 132096, Note_on_c, 1, 31, 0
4, 132096, Note_on_c, 1, 32, 78
4, 132448, Note_on_c, 1, 32, 0
4, 132864, Note_on_c, 1, 44, 71
4, 133120, Note_on_c, 1, 39, 60
4, 133128, Note_on_c, 1, 44, 0
4, 133212, Note_on_c, 1, 39, 0
4, 133248, Note_on_c, 1, 47, 79
4, 133588, Note_on_c, 1, 47, 0
4, 133632, Note_on_c, 1, 44, 55
4, 134016, Note_on_c, 1, 39, 67
4, 134020, Note_on_c, 1, 44, 0
4, 134368, Note_on_c, 1, 39, 0
4, 134400, Note_on_c, 1, 37, 61
4, 134724, Note_on_c, 1, 37, 0
4, 134784, Note_on_c, 1, 38, 74
4, 135132, Note_on_c, 1, 38, 0
4, 135168, Note_on_c, 1, 39, 60
4, 135552, Note_on_c, 1, 43, 67
4, 135592, Note_on_c, 1, 39, 0
4, 135808, Note_on_c, 1, 39, 47
4, 135880, Note_on_c, 1, 43, 0
4, 135892, Note_on_c, 1, 39, 0
4, 135936, Note_on_c, 1, 46, 55
4, 136192, Note_on_c, 1, 39, 37
4, 136280, Note_on_c, 1, 39, 0
4, 136288, Note_on_c, 1, 46, 0
4, 136320, Note_on_c, 1, 51, 85
4, 136576, Note_on_c, 1, 39, 39
4, 136640, Note_on_c, 1, 39, 0
4, 136704, Note_on_c, 1, 51, 0
4, 136704, Note_on_c, 1, 46, 62
4, 136960, Note_on_c, 1, 37, 47
4, 137028, Note_on_c, 1, 37, 0
4, 137040, Note_on_c, 1, 46, 0
4, 137088, Note_on_c, 1, 43, 65
4, 137472, Note_on_c, 1, 39, 69
4, 137656, Note_on_c, 1, 39, 0
4, 137836, Note_on_c, 1, 43, 0
4, 137856, Note_on_c, 1, 32, 71
4, 138204, Note_on_c, 1, 32, 0
4, 138240, Note_on_c, 1, 31, 71
4, 138620, Note_on_c, 1, 31, 0
4, 138624, Note_on_c, 1, 38, 85
4, 139008, Note_on_c, 1, 34, 71
4, 139012, Note_on_c, 1, 38, 0
4, 139384, Note_on_c, 1, 34, 0
4, 139392, Note_on_c, 1, 35, 75
4, 139776, Note_on_c, 1, 35, 0
4, 139776, Note_on_c, 1, 36, 75
4, 140032, Note_on_c, 1, 34, 47
4, 140108, Note_on_c, 1, 36, 0
4, 140124, Note_on_c, 1, 34, 0
4, 140160, Note_on_c, 1, 38, 74
4, 140416, Note_on_c, 1, 34, 46
4, 140532, Note_on_c, 1, 38, 0
4, 140532, Note_on_c, 1, 34, 0
4, 140544, Note_on_c, 1, 40, 75
4, 140800, Note_on_c, 1, 36, 73
4, 140888, Note_on_c, 1, 40, 0
4, 140896, Note_on_c, 1, 36, 0
4, 140928, Note_on_c, 1, 43, 77
4, 141304, Note_on_c, 1, 43, 0
4, 141312, Note_on_c, 1, 41, 84
4, 141564, Note_on_c, 1, 41, 0
4, 141568, Note_on_c, 1, 36, 67
4, 141672, Note_on_c, 1, 36, 0
4, 141696, Note_on_c, 1, 30, 78
4, 142040, Note_on_c, 1, 30, 0
4, 142080, Note_on_c, 1, 29, 64
4, 142336, Note_on_c, 1, 36, 68
4, 142428, Note_on_c, 1, 36, 0
4, 142436, Note_on_c, 1, 29, 0
4, 142464, Note_on_c, 1, 38, 83
4, 142828, Note_on_c, 1, 38, 0
4, 142848, Note_on_c, 1, 36, 79
4, 143104, Note_on_c, 1, 34, 51
4, 143168, Note_on_c, 1, 34, 0
4, 143204, Note_on_c, 1, 36, 0
4, 143232, Note_on_c, 1, 43, 72
4, 143488, Note_on_c, 1, 38, 42
4, 143560, Note_on_c, 1, 38, 0
4, 143592, Note_on_c, 1, 43, 0
4, 143616, Note_on_c, 1, 41, 61
4, 143872, Note_on_c, 1, 36, 68
4, 143892, Note_on_c, 1, 41, 0
4, 143952, Note_on_c, 1, 36, 0
4, 144000, Note_on_c, 1, 48, 84
4, 144384, Note_on_c, 1, 46, 64
4, 144408, Note_on_c, 1, 48, 0
4, 144768, Note_on_c, 1, 40, 82
4, 144792, Note_on_c, 1, 46, 0
4, 145132, Note_on_c, 1, 40, 0
4, 145152, Note_on_c, 1, 41, 70
4, 145536, Note_on_c, 1, 37, 83
4, 145564, Note_on_c, 1, 41, 0
4, 145916, Note_on_c, 1, 37, 0
4, 145920, Note_on_c, 1, 38, 78
4, 146288, Note_on_c, 1, 38, 0
4, 146304, Note_on_c, 1, 33, 74
4, 146672, Note_on_c, 1, 33, 0
4, 146688, Note_on_c, 1, 34, 70
4, 146920, Note_on_c, 1, 34, 0
4, 146944, Note_on_c, 1, 33, 62
4, 147044, Note_on_c, 1, 33, 0
4, 147072, Note_on_c, 1, 38, 75
4, 147412, Note_on_c, 1, 38, 0
4, 147456, Note_on_c, 1, 39, 69
4, 147712, Note_on_c, 1, 34, 85
4, 147796, Note_on_c, 1, 39, 0
4, 148608, Note_on_c, 1, 46, 105
4, 148644, Note_on_c, 1, 34, 0
4, 149376, Note_on_c, 1, 34, 82
4, 149408, Note_on_c, 1, 46, 0
4, 150064, Note_on_c, 1, 34, 0
4, 150144, Note_on_c, 1, 46, 86
4, 150364, Note_on_c, 1, 46, 0
4, 150400, Note_on_c, 1, 48, 78
4, 150488, Note_on_c, 1, 48, 0
4, 150528, Note_on_c, 1, 46, 60
4, 150832, Note_on_c, 1, 46, 0
4, 150912, Note_on_c, 1, 34, 71
4, 151536, Note_on_c, 1, 34, 0
4, 151552, Note_on_c, 1, 46, 93
4, 151696, Note_on_c, 1, 46, 0
4, 151936, Note_on_c, 1, 46, 99
4, 152176, Pitch_bend_c, 1, 8192
4, 152180, Pitch_bend_c, 1, 8192
4, 152188, Pitch_bend_c, 1, 8712
4, 152196, Pitch_bend_c, 1, 9102
4, 152196, Pitch_bend_c, 1, 9362
4, 152204, Pitch_bend_c, 1, 9622
4, 152212, Pitch_bend_c, 1, 9882
4, 152220, Pitch_bend_c, 1, 10142
4, 152220, Pitch_bend_c, 1, 10272
4, 152228, Pitch_bend_c, 1, 10402
4, 152236, Pitch_bend_c, 1, 10532
4, 152252, Pitch_bend_c, 1, 10402
4, 152260, Pitch_bend_c, 1, 10142
4, 152268, Pitch_bend_c, 1, 10012
4, 152272, Pitch_bend_c, 1, 9752
4, 152276, Pitch_bend_c, 1, 9362
4, 152284, Pitch_bend_c, 1, 9102
4, 152296, Pitch_bend_c, 1, 8712
4, 152296, Pitch_bend_c, 1, 8192
4, 152296, Pitch_bend_c, 1, 8192
4, 152444, Pitch_bend_c, 1, 8192
4, 152456, Pitch_bend_c, 1, 8192
4, 152460, Pitch_bend_c, 1, 8842
4, 152476, Pitch_bend_c, 1, 8972
4, 152480, Pitch_bend_c, 1, 9102
4, 152504, Pitch_bend_c, 1, 8842
4, 152512, Pitch_bend_c, 1, 8712
4, 152520, Pitch_bend_c, 1, 8192
4, 152520, Pitch_bend_c, 1, 8192
4, 153472, Note_on_c, 1, 33, 76
4, 153500, Note_on_c, 1, 46, 0
4, 153536, Note_on_c, 1, 33, 0
4, 153600, Note_on_c, 1, 32, 77
4, 153984, Note_on_c, 1, 36, 62
4, 154016, Note_on_c, 1, 32, 0
4, 154240, Note_on_c, 1, 32, 51
4, 154300, Note_on_c, 1, 36, 0
4, 154340, Note_on_c, 1, 32, 0
4, 154368, Note_on_c, 1, 39, 67
4, 154708, Note_on_c, 1, 39, 0
4, 154752, Note_on_c, 1, 43, 60
4, 155008, Note_on_c, 1, 32, 53
4, 155064, Note_on_c, 1, 43, 0
4, 155124, Note_on_c, 1, 32, 0
4, 155136, Note_on_c, 1, 46, 46
4, 155136, Note_on_c, 1, 47, 42
4, 155216, Note_on_c, 1, 47, 0
4, 155520, Note_on_c, 1, 44, 74
4, 155548, Note_on_c, 1, 46, 0
4, 155888, Note_on_c, 1, 44, 0
4, 155904, Note_on_c, 1, 43, 50
4, 156160, Note_on_c, 1, 37, 43
4, 156264, Note_on_c, 1, 43, 0
4, 156272, Note_on_c, 1, 37, 0
4, 156288, Note_on_c, 1, 45, 70
4, 156672, Note_on_c, 1, 44, 60
4, 156680, Note_on_c, 1, 45, 0
4, 157056, Note_on_c, 1, 39, 71
4, 157068, Note_on_c, 1, 44, 0
4, 157440, Note_on_c, 1, 35, 72
4, 157452, Note_on_c, 1, 39, 0
4, 157800, Note_on_c, 1, 35, 0
4, 157824, Note_on_c, 1, 35, 84
4, 158192, Note_on_c, 1, 35, 0
4, 158208, Note_on_c, 1, 37, 63
4, 158556, Note_on_c, 1, 37, 0
4, 158592, Note_on_c, 1, 37, 80
4, 158956, Note_on_c, 1, 37, 0
4, 158976, Note_on_c, 1, 38, 72
4, 159232, Note_on_c, 1, 37, 39
4, 159300, Note_on_c, 1, 38, 0
4, 159308, Note_on_c, 1, 37, 0
4, 159360, Note_on_c, 1, 38, 69
4, 159724, Note_on_c, 1, 38, 0
4, 159744, Note_on_c, 1, 39, 65
4, 160048, Note_on_c, 1, 39, 0
4, 160128, Note_on_c, 1, 39, 56
4, 160456, Note_on_c, 1, 39, 0
4, 160512, Note_on_c, 1, 43, 66
4, 160768, Note_on_c, 1, 39, 50
4, 160864, Note_on_c, 1, 39, 0
4, 160880, Note_on_c, 1, 43, 0
4, 160896, Note_on_c, 1, 46, 67
4, 161252, Note_on_c, 1, 46, 0
4, 161280, Note_on_c, 1, 51, 70
4, 161644, Note_on_c, 1, 51, 0
4, 161664, Note_on_c, 1, 50, 86
4, 162048, Note_on_c, 1, 49, 68
4, 162060, Note_on_c, 1, 50, 0
4, 162432, Note_on_c, 1, 46, 64
4, 162560, Note_on_c, 1, 49, 0
4, 162688, Note_on_c, 1, 42, 60
4, 162752, Note_on_c, 1, 46, 0
4, 162760, Note_on_c, 1, 42, 0
4, 162816, Note_on_c, 1, 48, 69
4, 163200, Note_on_c, 1, 48, 0
4, 163200, Note_on_c, 1, 43, 61
4, 163584, Note_on_c, 1, 36, 73
4, 163724, Note_on_c, 1, 36, 0
4, 163964, Note_on_c, 1, 43, 0
4, 163968, Note_on_c, 1, 35, 82
4, 164348, Note_on_c, 1, 35, 0
4, 164352, Note_on_c, 1, 36, 75
4, 164688, Note_on_c, 1, 36, 0
4, 164736, Note_on_c, 1, 38, 75
4, 165088, Note_on_c, 1, 38, 0
4, 165120, Note_on_c, 1, 40, 69
4, 165376, Note_on_c, 1, 36, 65
4, 165444, Note_on_c, 1, 40, 0
4, 165452, Note_on_c, 1, 36, 0
4, 165504, Note_on_c, 1, 42, 74
4, 165860, Note_on_c, 1, 42, 0
4, 165888, Note_on_c, 1, 41, 75
4, 166220, Note_on_c, 1, 41, 0
4, 166272, Note_on_c, 1, 36, 72
4, 166620, Note_on_c, 1, 36, 0
4, 166656, Note_on_c, 1, 32, 63
4, 167024, Note_on_c, 1, 32, 0
4, 167040, Note_on_c, 1, 35, 70
4, 167392, Note_on_c, 1, 35, 0
4, 167424, Note_on_c, 1, 36, 65
4, 167732, Note_on_c, 1, 36, 0
4, 167808, Note_on_c, 1, 38, 73
4, 168140, Note_on_c, 1, 38, 0
4, 168192, Note_on_c, 1, 40, 61
4, 168448, Note_on_c, 1, 36, 49
4, 168492, Note_on_c, 1, 40, 0
4, 168516, Note_on_c, 1, 36, 0
4, 168576, Note_on_c, 1, 43, 78
4, 168924, Note_on_c, 1, 43, 0
4, 168960, Note_on_c, 1, 41, 64
4, 169312, Note_on_c, 1, 41, 0
4, 169344, Note_on_c, 1, 36, 62
4, 169720, Note_on_c, 1, 36, 0
4, 169728, Note_on_c, 1, 29, 60
4, 170064, Note_on_c, 1, 29, 0
4, 170112, Note_on_c, 1, 31, 73
4, 170472, Note_on_c, 1, 31, 0
4, 170496, Note_on_c, 1, 32, 65
4, 170880, Note_on_c, 1, 35, 74
4, 170928, Note_on_c, 1, 32, 0
4, 171136, Note_on_c, 1, 32, 54
4, 171236, Note_on_c, 1, 35, 0
4, 171236, Note_on_c, 1, 32, 0
4, 171264, Note_on_c, 1, 37, 64
4, 171520, Note_on_c, 1, 32, 41
4, 171608, Note_on_c, 1, 37, 0
4, 171636, Note_on_c, 1, 32, 0
4, 171648, Note_on_c, 1, 38, 80
4, 171992, Note_on_c, 1, 38, 0
4, 172032, Note_on_c, 1, 39, 72
4, 172376, Note_on_c, 1, 39, 0
4, 172416, Note_on_c, 1, 32, 39
4, 172416, Note_on_c, 1, 39, 73
4, 172480, Note_on_c, 1, 32, 0
4, 172800, Note_on_c, 1, 34, 56
4, 172816, Note_on_c, 1, 39, 0
4, 173056, Note_on_c, 1, 32, 55
4, 173356, Note_on_c, 1, 32, 0
4, 173440, Note_on_c, 1, 49, 60
4, 173440, Note_on_c, 1, 50, 64
4, 173472, Note_on_c, 1, 34, 0
4, 173524, Note_on_c, 1, 50, 0
4, 173532, Note_on_c, 1, 49, 0
4, 173568, Note_on_c, 1, 50, 82
4, 173880, Note_on_c, 1, 50, 0
4, 173952, Note_on_c, 1, 45, 67
4, 174272, Note_on_c, 1, 45, 0
4, 174336, Note_on_c, 1, 43, 49
4, 174592, Note_on_c, 1, 38, 67
4, 174644, Note_on_c, 1, 43, 0
4, 174696, Note_on_c, 1, 38, 0
4, 174720, Note_on_c, 1, 35, 66
4, 175088, Note_on_c, 1, 35, 0
4, 175104, Note_on_c, 1, 36, 74
4, 175436, Note_on_c, 1, 36, 0
4, 175488, Note_on_c, 1, 36, 76
4, 175872, Note_on_c, 1, 48, 66
4, 175928, Note_on_c, 1, 36, 0
4, 176128, Note_on_c, 1, 36, 55
4, 176192, Note_on_c, 1, 36, 0
4, 176200, Note_on_c, 1, 48, 0
4, 176256, Note_on_c, 1, 46, 74
4, 176608, Note_on_c, 1, 46, 0
4, 176640, Note_on_c, 1, 45, 74
4, 176896, Note_on_c, 1, 39, 49
4, 176968, Note_on_c, 1, 45, 0
4, 177024, Note_on_c, 1, 45, 78
4, 177060, Note_on_c, 1, 39, 0
4, 177384, Note_on_c, 1, 45, 0
4, 177408, Note_on_c, 1, 42, 67
4, 177732, Note_on_c, 1, 42, 0
4, 177792, Note_on_c, 1, 42, 57
4, 178048, Note_on_c, 1, 39, 50
4, 178116, Note_on_c, 1, 42, 0
4, 178172, Note_on_c, 1, 39, 0
4, 178176, Note_on_c, 1, 46, 75
4, 178560, Note_on_c, 1, 34, 68
4, 178788, Note_on_c, 1, 46, 0
4, 178944, Note_on_c, 1, 46, 85
4, 179056, Note_on_c, 1, 34, 0
4, 179200, Note_on_c, 1, 34, 58
4, 179204, Note_on_c, 1, 46, 0
4, 179272, Note_on_c, 1, 34, 0
4, 179328, Note_on_c, 1, 35, 59
4, 179696, Note_on_c, 1, 35, 0
4, 179712, Note_on_c, 1, 36, 71
4, 179968, Note_on_c, 1, 34, 49
4, 180036, Note_on_c, 1, 36, 0
4, 180084, Note_on_c, 1, 34, 0
4, 180096, Note_on_c, 1, 48, 101
4, 180576, Note_on_c, 1, 48, 0
4, 180608, Note_on_c, 1, 43, 83
4, 180672, Note_on_c, 1, 43, 0
4, 180736, Note_on_c, 1, 40, 80
4, 180800, Note_on_c, 1, 40, 0
4, 180864, Note_on_c, 1, 30, 80
4, 181176, Note_on_c, 1, 30, 0
4, 181248, Note_on_c, 1, 29, 80
4, 181616, Note_on_c, 1, 29, 0
4, 181632, Note_on_c, 1, 31, 82
4, 181984, Note_on_c, 1, 31, 0
4, 182016, Note_on_c, 1, 32, 72
4, 182140, Note_on_c, 1, 32, 0
4, 182272, Note_on_c, 1, 32, 66
4, 182364, Note_on_c, 1, 32, 0
4, 182400, Note_on_c, 1, 33, 64
4, 182764, Note_on_c, 1, 33, 0
4, 182784, Note_on_c, 1, 34, 67
4, 183168, Note_on_c, 1, 36, 77
4, 183204, Note_on_c, 1, 34, 0
4, 183552, Note_on_c, 1, 38, 80
4, 183556, Note_on_c, 1, 36, 0
4, 183928, Note_on_c, 1, 38, 0
4, 183936, Note_on_c, 1, 32, 83
4, 184320, Note_on_c, 1, 31, 66
4, 184328, Note_on_c, 1, 32, 0
4, 184576, Note_on_c, 1, 38, 71
4, 184668, Note_on_c, 1, 38, 0
4, 184676, Note_on_c, 1, 31, 0
4, 184704, Note_on_c, 1, 45, 114
4, 185344, Note_on_c, 1, 44, 88
4, 185360, Note_on_c, 1, 45, 0
4, 185452, Note_on_c, 1, 44, 0
4, 185472, Note_on_c, 1, 43, 69
4, 185808, Note_on_c, 1, 43, 0
4, 185856, Note_on_c, 1, 38, 68
4, 186240, Note_on_c, 1, 34, 72
4, 186276, Note_on_c, 1, 38, 0
4, 186624, Note_on_c, 1, 35, 78
4, 186632, Note_on_c, 1, 34, 0
4, 186964, Note_on_c, 1, 35, 0
4, 187008, Note_on_c, 1, 35, 65
4, 187240, Note_on_c, 1, 35, 0
4, 187264, Note_on_c, 1, 36, 100
4, 187648, Note_on_c, 1, 34, 60
4, 187724, Note_on_c, 1, 36, 0
4, 187764, Note_on_c, 1, 34, 0
4, 187776, Note_on_c, 1, 38, 85
4, 188416, Note_on_c, 1, 36, 77
4, 188480, Note_on_c, 1, 38, 0
4, 188480, Note_on_c, 1, 36, 0
4, 188544, Note_on_c, 1, 39, 87
4, 189184, Note_on_c, 1, 36, 78
4, 189248, Note_on_c, 1, 36, 0
4, 189288, Note_on_c, 1, 39, 0
4, 189312, Note_on_c, 1, 40, 92
4, 189944, Note_on_c, 1, 40, 0
4, 189952, Note_on_c, 1, 36, 83
4, 190016, Note_on_c, 1, 36, 0
4, 190080, Note_on_c, 1, 43, 86
4, 190292, Note_on_c, 1, 43, 0
4, 190336, Note_on_c, 1, 41, 82
4, 190720, Note_on_c, 1, 36, 80
4, 190784, Note_on_c, 1, 36, 0
4, 190808, Note_on_c, 1, 41, 0
4, 190848, Note_on_c, 1, 31, 78
4, 191232, Note_on_c, 1, 36, 71
4, 191240, Note_on_c, 1, 31, 0
4, 191616, Note_on_c, 1, 36, 0
4, 191616, Note_on_c, 1, 28, 74
4, 191964, Note_on_c, 1, 28, 0
4, 192000, Note_on_c, 1, 29, 66
4, 192384, Note_on_c, 1, 31, 76
4, 192392, Note_on_c, 1, 29, 0
4, 192768, Note_on_c, 1, 32, 77
4, 192788, Note_on_c, 1, 31, 0
4, 193152, Note_on_c, 1, 33, 74
4, 193156, Note_on_c, 1, 32, 0
4, 193536, Note_on_c, 1, 34, 78
4, 193544, Note_on_c, 1, 33, 0
4, 193792, Note_on_c, 1, 46, 98
4, 193920, Note_on_c, 1, 34, 0
4, 193968, Note_on_c, 1, 46, 0
4, 194432, Note_on_c, 1, 46, 95
4, 194944, Note_on_c, 1, 33, 66
4, 195044, Note_on_c, 1, 46, 0
4, 195052, Note_on_c, 1, 33, 0
4, 195072, Note_on_c, 1, 34, 73
4, 195328, Note_on_c, 1, 46, 67
4, 195440, Note_on_c, 1, 46, 0
4, 195712, Note_on_c, 1, 46, 82
4, 195776, Note_on_c, 1, 34, 0
4, 195832, Note_on_c, 1, 46, 0
4, 196096, Note_on_c, 1, 37, 62
4, 196200, Note_on_c, 1, 37, 0
4, 196224, Note_on_c, 1, 38, 67
4, 196424, Note_on_c, 1, 38, 0
4, 196480, Note_on_c, 1, 39, 71
4, 196864, Note_on_c, 1, 39, 0
4, 196864, Note_on_c, 1, 34, 58
4, 196964, Note_on_c, 1, 34, 0
4, 196992, Note_on_c, 1, 31, 90
4, 197632, Note_on_c, 1, 39, 68
4, 197704, Note_on_c, 1, 39, 0
4, 197712, Note_on_c, 1, 31, 0
4, 197760, Note_on_c, 1, 32, 96
4, 198400, Note_on_c, 1, 39, 82
4, 198412, Note_on_c, 1, 32, 0
4, 198476, Note_on_c, 1, 39, 0
4, 198528, Note_on_c, 1, 33, 100
4, 199092, Note_on_c, 1, 33, 0
4, 199168, Note_on_c, 1, 39, 78
4, 199232, Note_on_c, 1, 39, 0
4, 199296, Note_on_c, 1, 33, 80
4, 199620, Note_on_c, 1, 33, 0
4, 199680, Note_on_c, 1, 34, 82
4, 199908, Note_on_c, 1, 34, 0
4, 200704, Note_on_c, 1, 55, 74
4, 200704, Note_on_c, 1, 39, 71
4, 200832, Note_on_c, 1, 55, 0
4, 201208, Note_on_c, 1, 39, 0
4, 201344, Note_on_c, 1, 39, 49
4, 201344, Note_on_c, 1, 55, 66
4, 202456, Note_on_c, 1, 55, 0
4, 203028, Note_on_c, 1, 39, 0
4, 203028, End_track
5, 0, Start_track
5, 0, MIDI_port, 0
5, 0, Sequencer_specific, 7, 0, 0, 0, 106, 0, 4, 10
5, 0, Title_t, "Track 4"
5, 0, Control_c, 9, 0, 127
5, 0, Control_c, 9, 32, 0
5, 0, Program_c, 9, 32
5, 0, Control_c, 9, 7, 95
5, 0, Note_on_c, 9, 51, 29
5, 14, Note_on_c, 9, 36, 9
5, 128, Note_on_c, 9, 51, 0
5, 140, Note_on_c, 9, 36, 0
5, 384, Note_on_c, 9, 44, 96
5, 638, Note_on_c, 9, 36, 9
5, 640, Note_on_c, 9, 51, 30
5, 666, Note_on_c, 9, 36, 0
5, 768, Note_on_c, 9, 44, 0
5, 768, Note_on_c, 9, 51, 0
5, 768, Note_on_c, 9, 51, 17
5, 896, Note_on_c, 9, 51, 0
5, 1152, Note_on_c, 9, 44, 97
5, 1408, Note_on_c, 9, 51, 37
5, 1536, Note_on_c, 9, 44, 0
5, 1536, Note_on_c, 9, 51, 0
5, 1536, Note_on_c, 9, 51, 35
5, 1562, Note_on_c, 9, 36, 0
5, 1604, Note_on_c, 9, 36, 0
5, 1664, Note_on_c, 9, 51, 0
5, 1806, Note_on_c, 9, 40, 7
5, 1840, Note_on_c, 9, 40, 0
5, 1920, Note_on_c, 9, 44, 91
5, 2176, Note_on_c, 9, 51, 35
5, 2212, Note_on_c, 9, 40, 0
5, 2248, Note_on_c, 9, 40, 0
5, 2304, Note_on_c, 9, 44, 0
5, 2304, Note_on_c, 9, 51, 0
5, 2304, Note_on_c, 9, 51, 24
5, 2432, Note_on_c, 9, 51, 0
5, 2568, Note_on_c, 9, 40, 18
5, 2602, Note_on_c, 9, 40, 0
5, 2688, Note_on_c, 9, 44, 94
5, 2944, Note_on_c, 9, 51, 30
5, 2946, Note_on_c, 9, 40, 16
5, 2974, Note_on_c, 9, 40, 0
5, 3054, Note_on_c, 9, 36, 5
5, 3072, Note_on_c, 9, 44, 0
5, 3072, Note_on_c, 9, 51, 0
5, 3072, Note_on_c, 9, 51, 21
5, 3088, Note_on_c, 9, 36, 0
5, 3200, Note_on_c, 9, 51, 0
5, 3456, Note_on_c, 9, 44, 93
5, 3712, Note_on_c, 9, 51, 41
5, 3734, Note_on_c, 9, 36, 5
5, 3768, Note_on_c, 9, 36, 0
5, 3840, Note_on_c, 9, 44, 0
5, 3840, Note_on_c, 9, 51, 0
5, 3840, Note_on_c, 9, 51, 26
5, 3862, Note_on_c, 9, 36, 2
5, 3900, Note_on_c, 9, 36, 0
5, 3968, Note_on_c, 9, 51, 0
5, 4224, Note_on_c, 9, 44, 96
5, 4480, Note_on_c, 9, 51, 16
5, 4504, Note_on_c, 9, 36, 0
5, 4536, Note_on_c, 9, 36, 0
5, 4608, Note_on_c, 9, 44, 0
5, 4608, Note_on_c, 9, 51, 0
5, 4608, Note_on_c, 9, 51, 29
5, 4622, Note_on_c, 9, 36, 0
5, 4672, Note_on_c, 9, 36, 0
5, 4736, Note_on_c, 9, 51, 0
5, 4992, Note_on_c, 9, 44, 90
5, 5248, Note_on_c, 9, 51, 32
5, 5256, Note_on_c, 9, 40, 0
5, 5294, Note_on_c, 9, 40, 0
5, 5376, Note_on_c, 9, 44, 0
5, 5376, Note_on_c, 9, 51, 0
5, 5376, Note_on_c, 9, 51, 20
5, 5504, Note_on_c, 9, 51, 0
5, 5648, Note_on_c, 9, 40, 5
5, 5678, Note_on_c, 9, 40, 0
5, 5760, Note_on_c, 9, 44, 98
5, 5760, Note_on_c, 9, 51, 24
5, 5888, Note_on_c, 9, 51, 0
5, 5934, Note_on_c, 9, 40, 16
5, 6016, Note_on_c, 9, 51, 38
5, 6066, Note_on_c, 9, 40, 0
5, 6098, Note_on_c, 9, 36, 6
5, 6102, Note_on_c, 9, 36, 6
5, 6128, Note_on_c, 9, 57, 0
5, 6130, Note_on_c, 9, 36, 0
5, 6144, Note_on_c, 9, 44, 0
5, 6144, Note_on_c, 9, 51, 0
5, 6144, Note_on_c, 9, 51, 41
5, 6170, Note_on_c, 9, 57, 0
5, 6236, Note_on_c, 9, 36, 0
5, 6272, Note_on_c, 9, 51, 0
5, 6528, Note_on_c, 9, 44, 95
5, 6784, Note_on_c, 9, 51, 32
5, 6792, Note_on_c, 9, 36, 0
5, 6832, Note_on_c, 9, 36, 0
5, 6912, Note_on_c, 9, 44, 0
5, 6912, Note_on_c, 9, 51, 0
5, 6912, Note_on_c, 9, 51, 21
5, 6920, Note_on_c, 9, 36, 2
5, 6950, Note_on_c, 9, 36, 0
5, 7040, Note_on_c, 9, 51, 0
5, 7168, Note_on_c, 9, 53, 62
5, 7296, Note_on_c, 9, 53, 0
5, 7296, Note_on_c, 9, 51, 31
5, 7296, Note_on_c, 9, 44, 99
5, 7424, Note_on_c, 9, 51, 0
5, 7552, Note_on_c, 9, 53, 62
5, 7562, Note_on_c, 9, 36, 3
5, 7594, Note_on_c, 9, 36, 0
5, 7680, Note_on_c, 9, 44, 0
5, 7680, Note_on_c, 9, 53, 0
5, 7680, Note_on_c, 9, 51, 29
5, 7808, Note_on_c, 9, 51, 0
5, 8064, Note_on_c, 9, 44, 97
5, 8320, Note_on_c, 9, 51, 37
5, 8448, Note_on_c, 9, 44, 0
5, 8448, Note_on_c, 9, 51, 0
5, 8448, Note_on_c, 9, 51, 33
5, 8576, Note_on_c, 9, 51, 0
5, 8832, Note_on_c, 9, 44, 93
5, 9088, Note_on_c, 9, 51, 47
5, 9216, Note_on_c, 9, 44, 0
5, 9216, Note_on_c, 9, 51, 0
5, 9216, Note_on_c, 9, 51, 41
5, 9344, Note_on_c, 9, 51, 0
5, 9600, Note_on_c, 9, 44, 97
5, 9604, Note_on_c, 9, 37, 20
5, 9662, Note_on_c, 9, 37, 0
5, 9856, Note_on_c, 9, 51, 42
5, 9984, Note_on_c, 9, 44, 0
5, 9984, Note_on_c, 9, 51, 0
5, 9984, Note_on_c, 9, 51, 39
5, 10112, Note_on_c, 9, 51, 0
5, 10350, Note_on_c, 9, 37, 49
5, 10368, Note_on_c, 9, 46, 93
5, 10476, Note_on_c, 9, 37, 0
5, 10624, Note_on_c, 9, 51, 39
5, 10752, Note_on_c, 9, 46, 0
5, 10752, Note_on_c, 9, 51, 0
5, 10752, Note_on_c, 9, 51, 43
5, 10880, Note_on_c, 9, 51, 0
5, 11124, Note_on_c, 9, 37, 45
5, 11136, Note_on_c, 9, 44, 86
5, 11244, Note_on_c, 9, 37, 0
5, 11392, Note_on_c, 9, 51, 46
5, 11520, Note_on_c, 9, 44, 0
5, 11520, Note_on_c, 9, 51, 0
5, 11520, Note_on_c, 9, 51, 44
5, 11776, Note_on_c, 9, 51, 0
5, 11904, Note_on_c, 9, 44, 90
5, 12160, Note_on_c, 9, 51, 52
5, 12160, Note_on_c, 9, 36, 21
5, 12224, Note_on_c, 9, 36, 0
5, 12288, Note_on_c, 9, 44, 0
5, 12288, Note_on_c, 9, 51, 0
5, 12288, Note_on_c, 9, 51, 50
5, 12296, Note_on_c, 9, 36, 15
5, 12398, Note_on_c, 9, 36, 0
5, 12416, Note_on_c, 9, 51, 0
5, 12672, Note_on_c, 9, 51, 34
5, 12672, Note_on_c, 9, 44, 94
5, 12800, Note_on_c, 9, 51, 0
5, 13056, Note_on_c, 9, 44, 0
5, 13056, Note_on_c, 9, 51, 42
5, 13184, Note_on_c, 9, 51, 0
5, 13440, Note_on_c, 9, 51, 34
5, 13440, Note_on_c, 9, 44, 99
5, 13568, Note_on_c, 9, 51, 0
5, 13682, Note_on_c, 9, 40, 10
5, 13696, Note_on_c, 9, 51, 40
5, 13712, Note_on_c, 9, 40, 0
5, 13786, Note_on_c, 9, 36, 0
5, 13824, Note_on_c, 9, 44, 0
5, 13824, Note_on_c, 9, 51, 0
5, 13824, Note_on_c, 9, 51, 41
5, 13830, Note_on_c, 9, 36, 0
5, 14080, Note_on_c, 9, 51, 0
5, 14208, Note_on_c, 9, 51, 55
5, 14208, Note_on_c, 9, 44, 96
5, 14464, Note_on_c, 9, 51, 0
5, 14592, Note_on_c, 9, 44, 0
5, 14592, Note_on_c, 9, 51, 53
5, 14848, Note_on_c, 9, 51, 0
5, 14976, Note_on_c, 9, 44, 97
5, 14976, Note_on_c, 9, 51, 59
5, 15144, Note_on_c, 9, 40, 9
5, 15172, Note_on_c, 9, 40, 0
5, 15226, Note_on_c, 9, 37, 26
5, 15232, Note_on_c, 9, 51, 0
5, 15232, Note_on_c, 9, 51, 24
5, 15254, Note_on_c, 9, 37, 0
5, 15256, Note_on_c, 9, 36, 7
5, 15290, Note_on_c, 9, 36, 0
5, 15358, Note_on_c, 9, 40, 15
5, 15360, Note_on_c, 9, 44, 0
5, 15360, Note_on_c, 9, 51, 0
5, 15360, Note_on_c, 9, 51, 42
5, 15392, Note_on_c, 9, 40, 0
5, 15616, Note_on_c, 9, 51, 0
5, 15744, Note_on_c, 9, 51, 62
5, 15744, Note_on_c, 9, 44, 91
5, 16000, Note_on_c, 9, 51, 0
5, 16128, Note_on_c, 9, 44, 0
5, 16128, Note_on_c, 9, 51, 31
5, 16256, Note_on_c, 9, 51, 0
5, 16256, Note_on_c, 9, 51, 54
5, 16384, Note_on_c, 9, 51, 0
5, 16512, Note_on_c, 9, 51, 65
5, 16512, Note_on_c, 9, 44, 94
5, 16768, Note_on_c, 9, 51, 0
5, 16896, Note_on_c, 9, 44, 0
5, 16896, Note_on_c, 9, 51, 60
5, 17152, Note_on_c, 9, 51, 0
5, 17280, Note_on_c, 9, 51, 61
5, 17280, Note_on_c, 9, 44, 93
5, 17536, Note_on_c, 9, 51, 0
5, 17536, Note_on_c, 9, 51, 35
5, 17664, Note_on_c, 9, 44, 0
5, 17664, Note_on_c, 9, 51, 0
5, 17664, Note_on_c, 9, 51, 58
5, 17920, Note_on_c, 9, 51, 0
5, 17924, Note_on_c, 9, 40, 14
5, 17964, Note_on_c, 9, 40, 0
5, 18048, Note_on_c, 9, 44, 96
5, 18048, Note_on_c, 9, 51, 56
5, 18200, Note_on_c, 9, 40, 17
5, 18244, Note_on_c, 9, 40, 0
5, 18292, Note_on_c, 9, 37, 31
5, 18304, Note_on_c, 9, 51, 0
5, 18386, Note_on_c, 9, 37, 0
5, 18420, Note_on_c, 9, 36, 9
5, 18432, Note_on_c, 9, 44, 0
5, 18432, Note_on_c, 9, 51, 47
5, 18548, Note_on_c, 9, 36, 0
5, 18688, Note_on_c, 9, 51, 0
5, 18688, Note_on_c, 9, 53, 52
5, 18816, Note_on_c, 9, 53, 0
5, 18816, Note_on_c, 9, 51, 34
5, 18816, Note_on_c, 9, 44, 90
5, 19072, Note_on_c, 9, 51, 0
5, 19200, Note_on_c, 9, 44, 0
5, 19200, Note_on_c, 9, 51, 38
5, 19452, Note_on_c, 9, 40, 9
5, 19456, Note_on_c, 9, 51, 0
5, 19496, Note_on_c, 9, 40, 0
5, 19584, Note_on_c, 9, 44, 98
5, 19584, Note_on_c, 9, 51, 42
5, 19588, Note_on_c, 9, 36, 0
5, 19646, Note_on_c, 9, 36, 0
5, 19840, Note_on_c, 9, 51, 0
5, 19968, Note_on_c, 9, 44, 0
5, 19968, Note_on_c, 9, 51, 53
5, 20224, Note_on_c, 9, 51, 0
5, 20352, Note_on_c, 9, 51, 53
5, 20352, Note_on_c, 9, 44, 95
5, 20480, Note_on_c, 9, 51, 0
5, 20608, Note_on_c, 9, 51, 28
5, 20736, Note_on_c, 9, 44, 0
5, 20736, Note_on_c, 9, 51, 0
5, 20736, Note_on_c, 9, 51, 50
5, 20992, Note_on_c, 9, 51, 0
5, 21120, Note_on_c, 9, 51, 61
5, 21120, Note_on_c, 9, 44, 99
5, 21374, Note_on_c, 9, 40, 0
5, 21376, Note_on_c, 9, 51, 0
5, 21376, Note_on_c, 9, 51, 38
5, 21402, Note_on_c, 9, 40, 0
5, 21504, Note_on_c, 9, 44, 0
5, 21504, Note_on_c, 9, 51, 0
5, 21504, Note_on_c, 9, 51, 56
5, 21530, Note_on_c, 9, 40, 0
5, 21566, Note_on_c, 9, 40, 0
5, 21758, Note_on_c, 9, 40, 1
5, 21760, Note_on_c, 9, 51, 0
5, 21794, Note_on_c, 9, 40, 0
5, 21888, Note_on_c, 9, 51, 59
5, 21888, Note_on_c, 9, 44, 97
5, 21926, Note_on_c, 9, 40, 0
5, 21962, Note_on_c, 9, 40, 0
5, 22144, Note_on_c, 9, 51, 0
5, 22154, Note_on_c, 9, 36, 3
5, 22240, Note_on_c, 9, 36, 0
5, 22272, Note_on_c, 9, 44, 0
5, 22272, Note_on_c, 9, 51, 65
5, 22528, Note_on_c, 9, 51, 0
5, 22528, Note_on_c, 9, 51, 41
5, 22656, Note_on_c, 9, 51, 0
5, 22656, Note_on_c, 9, 51, 62
5, 22656, Note_on_c, 9, 44, 93
5, 22912, Note_on_c, 9, 51, 0
5, 23040, Note_on_c, 9, 44, 0
5, 23040, Note_on_c, 9, 51, 65
5, 23296, Note_on_c, 9, 51, 0
5, 23424, Note_on_c, 9, 44, 97
5, 23424, Note_on_c, 9, 51, 64
5, 23680, Note_on_c, 9, 51, 0
5, 23808, Note_on_c, 9, 44, 0
5, 23808, Note_on_c, 9, 51, 63
5, 24064, Note_on_c, 9, 51, 0
5, 24064, Note_on_c, 9, 51, 44
5, 24192, Note_on_c, 9, 51, 0
5, 24192, Note_on_c, 9, 51, 62
5, 24192, Note_on_c, 9, 46, 93
5, 24448, Note_on_c, 9, 51, 0
5, 24562, Note_on_c, 9, 36, 9
5, 24576, Note_on_c, 9, 46, 0
5, 24576, Note_on_c, 9, 51, 61
5, 24692, Note_on_c, 9, 36, 0
5, 24832, Note_on_c, 9, 51, 0
5, 24960, Note_on_c, 9, 44, 86
5, 24960, Note_on_c, 9, 51, 60
5, 25216, Note_on_c, 9, 51, 0
5, 25344, Note_on_c, 9, 44, 0
5, 25344, Note_on_c, 9, 51, 59
5, 25600, Note_on_c, 9, 51, 0
5, 25728, Note_on_c, 9, 44, 90
5, 25728, Note_on_c, 9, 51, 59
5, 25984, Note_on_c, 9, 51, 0
5, 25984, Note_on_c, 9, 51, 30
5, 26112, Note_on_c, 9, 44, 0
5, 26112, Note_on_c, 9, 51, 0
5, 26112, Note_on_c, 9, 51, 54
5, 26368, Note_on_c, 9, 51, 0
5, 26496, Note_on_c, 9, 51, 55
5, 26496, Note_on_c, 9, 44, 94
5, 26752, Note_on_c, 9, 51, 0
5, 26880, Note_on_c, 9, 44, 0
5, 26880, Note_on_c, 9, 51, 49
5, 27136, Note_on_c, 9, 51, 0
5, 27136, Note_on_c, 9, 51, 19
5, 27148, Note_on_c, 9, 40, 2
5, 27190, Note_on_c, 9, 40, 0
5, 27264, Note_on_c, 9, 51, 0
5, 27264, Note_on_c, 9, 51, 52
5, 27264, Note_on_c, 9, 44, 99
5, 27404, Note_on_c, 9, 40, 15
5, 27440, Note_on_c, 9, 40, 0
5, 27512, Note_on_c, 9, 37, 34
5, 27520, Note_on_c, 9, 51, 0
5, 27628, Note_on_c, 9, 37, 0
5, 27648, Note_on_c, 9, 44, 0
5, 27648, Note_on_c, 9, 51, 57
5, 27648, Note_on_c, 9, 36, 15
5, 27758, Note_on_c, 9, 36, 0
5, 27904, Note_on_c, 9, 51, 0
5, 27904, Note_on_c, 9, 51, 37
5, 28032, Note_on_c, 9, 51, 0
5, 28032, Note_on_c, 9, 44, 96
5, 28032, Note_on_c, 9, 51, 59
5, 28288, Note_on_c, 9, 51, 0
5, 28288, Note_on_c, 9, 53, 63
5, 28416, Note_on_c, 9, 44, 0
5, 28416, Note_on_c, 9, 53, 0
5, 28416, Note_on_c, 9, 51, 46
5, 28548, Note_on_c, 9, 40, 14
5, 28576, Note_on_c, 9, 40, 0
5, 28670, Note_on_c, 9, 37, 21
5, 28672, Note_on_c, 9, 51, 0
5, 28770, Note_on_c, 9, 37, 0
5, 28800, Note_on_c, 9, 51, 42
5, 28800, Note_on_c, 9, 44, 97
5, 28808, Note_on_c, 9, 36, 13
5, 28944, Note_on_c, 9, 36, 0
5, 29056, Note_on_c, 9, 51, 0
5, 29184, Note_on_c, 9, 44, 0
5, 29184, Note_on_c, 9, 51, 41
5, 29440, Note_on_c, 9, 51, 0
5, 29568, Note_on_c, 9, 44, 91
5, 29568, Note_on_c, 9, 51, 50
5, 29824, Note_on_c, 9, 51, 0
5, 29824, Note_on_c, 9, 51, 43
5, 29830, Note_on_c, 9, 36, 16
5, 29902, Note_on_c, 9, 36, 0
5, 29952, Note_on_c, 9, 44, 0
5, 29952, Note_on_c, 9, 51, 0
5, 29952, Note_on_c, 9, 51, 47
5, 29962, Note_on_c, 9, 36, 11
5, 30066, Note_on_c, 9, 36, 0
5, 30208, Note_on_c, 9, 51, 0
5, 30336, Note_on_c, 9, 51, 57
5, 30336, Note_on_c, 9, 44, 94
5, 30582, Note_on_c, 9, 36, 23
5, 30592, Note_on_c, 9, 51, 0
5, 30592, Note_on_c, 9, 51, 41
5, 30694, Note_on_c, 9, 36, 0
5, 30720, Note_on_c, 9, 44, 0
5, 30720, Note_on_c, 9, 51, 0
5, 30720, Note_on_c, 9, 51, 59
5, 30748, Note_on_c, 9, 36, 10
5, 30836, Note_on_c, 9, 36, 0
5, 30976, Note_on_c, 9, 51, 0
5, 31104, Note_on_c, 9, 51, 52
5, 31104, Note_on_c, 9, 44, 93
5, 31350, Note_on_c, 9, 36, 5
5, 31360, Note_on_c, 9, 51, 0
5, 31388, Note_on_c, 9, 36, 0
5, 31488, Note_on_c, 9, 44, 0
5, 31488, Note_on_c, 9, 51, 58
5, 31744, Note_on_c, 9, 51, 0
5, 31872, Note_on_c, 9, 51, 58
5, 31872, Note_on_c, 9, 44, 96
5, 32118, Note_on_c, 9, 36, 5
5, 32128, Note_on_c, 9, 51, 0
5, 32128, Note_on_c, 9, 51, 36
5, 32178, Note_on_c, 9, 36, 0
5, 32254, Note_on_c, 9, 36, 1
5, 32256, Note_on_c, 9, 44, 0
5, 32256, Note_on_c, 9, 51, 0
5, 32256, Note_on_c, 9, 51, 59
5, 32330, Note_on_c, 9, 36, 0
5, 32512, Note_on_c, 9, 51, 0
5, 32640, Note_on_c, 9, 44, 90
5, 32640, Note_on_c, 9, 51, 59
5, 32872, Note_on_c, 9, 36, 3
5, 32896, Note_on_c, 9, 51, 0
5, 32896, Note_on_c, 9, 51, 27
5, 32908, Note_on_c, 9, 36, 0
5, 33024, Note_on_c, 9, 44, 0
5, 33024, Note_on_c, 9, 51, 0
5, 33024, Note_on_c, 9, 51, 50
5, 33280, Note_on_c, 9, 51, 0
5, 33408, Note_on_c, 9, 44, 98
5, 33408, Note_on_c, 9, 51, 59
5, 33646, Note_on_c, 9, 36, 0
5, 33664, Note_on_c, 9, 51, 0
5, 33664, Note_on_c, 9, 51, 46
5, 33688, Note_on_c, 9, 36, 0
5, 33782, Note_on_c, 9, 36, 0
5, 33792, Note_on_c, 9, 44, 0
5, 33792, Note_on_c, 9, 51, 0
5, 33792, Note_on_c, 9, 51, 49
5, 33810, Note_on_c, 9, 36, 0
5, 33920, Note_on_c, 9, 51, 0
5, 33920, Note_on_c, 9, 51, 49
5, 34048, Note_on_c, 9, 51, 0
5, 34176, Note_on_c, 9, 51, 65
5, 34176, Note_on_c, 9, 44, 95
5, 34432, Note_on_c, 9, 51, 0
5, 34434, Note_on_c, 9, 36, 1
5, 34468, Note_on_c, 9, 36, 0
5, 34560, Note_on_c, 9, 44, 0
5, 34560, Note_on_c, 9, 51, 54
5, 34688, Note_on_c, 9, 51, 0
5, 34688, Note_on_c, 9, 51, 51
5, 34816, Note_on_c, 9, 51, 0
5, 34944, Note_on_c, 9, 44, 99
5, 35072, Note_on_c, 9, 51, 62
5, 35200, Note_on_c, 9, 51, 0
5, 35238, Note_on_c, 9, 36, 11
5, 35288, Note_on_c, 9, 36, 0
5, 35328, Note_on_c, 9, 44, 0
5, 35328, Note_on_c, 9, 51, 40
5, 35406, Note_on_c, 9, 36, 0
5, 35434, Note_on_c, 9, 36, 0
5, 35456, Note_on_c, 9, 51, 0
5, 35456, Note_on_c, 9, 51, 56
5, 35584, Note_on_c, 9, 51, 0
5, 35712, Note_on_c, 9, 44, 97
5, 35712, Note_on_c, 9, 51, 61
5, 35968, Note_on_c, 9, 51, 0
5, 36000, Note_on_c, 9, 36, 0
5, 36040, Note_on_c, 9, 36, 0
5, 36096, Note_on_c, 9, 44, 0
5, 36096, Note_on_c, 9, 51, 57
5, 36224, Note_on_c, 9, 51, 0
5, 36396, Note_on_c, 9, 40, 19
5, 36436, Note_on_c, 9, 40, 0
5, 36480, Note_on_c, 9, 51, 58
5, 36480, Note_on_c, 9, 44, 93
5, 36608, Note_on_c, 9, 51, 0
5, 36736, Note_on_c, 9, 51, 42
5, 36864, Note_on_c, 9, 44, 0
5, 36864, Note_on_c, 9, 51, 0
5, 36864, Note_on_c, 9, 51, 51
5, 36906, Note_on_c, 9, 36, 13
5, 37014, Note_on_c, 9, 36, 0
5, 37120, Note_on_c, 9, 51, 0
5, 37248, Note_on_c, 9, 51, 58
5, 37248, Note_on_c, 9, 44, 97
5, 37504, Note_on_c, 9, 51, 0
5, 37632, Note_on_c, 9, 44, 0
5, 37632, Note_on_c, 9, 51, 53
5, 37760, Note_on_c, 9, 51, 0
5, 37920, Note_on_c, 9, 36, 0
5, 37954, Note_on_c, 9, 36, 0
5, 38016, Note_on_c, 9, 51, 59
5, 38016, Note_on_c, 9, 46, 93
5, 38050, Note_on_c, 9, 36, 0
5, 38106, Note_on_c, 9, 36, 0
5, 38144, Note_on_c, 9, 51, 0
5, 38272, Note_on_c, 9, 51, 26
5, 38294, Note_on_c, 9, 36, 22
5, 38390, Note_on_c, 9, 36, 0
5, 38400, Note_on_c, 9, 46, 0
5, 38400, Note_on_c, 9, 51, 0
5, 38400, Note_on_c, 9, 51, 51
5, 38528, Note_on_c, 9, 51, 0
5, 38784, Note_on_c, 9, 51, 59
5, 38784, Note_on_c, 9, 44, 86
5, 38912, Note_on_c, 9, 51, 0
5, 39066, Note_on_c, 9, 36, 0
5, 39102, Note_on_c, 9, 36, 0
5, 39168, Note_on_c, 9, 44, 0
5, 39168, Note_on_c, 9, 51, 54
5, 39296, Note_on_c, 9, 51, 0
5, 39552, Note_on_c, 9, 44, 90
5, 39552, Note_on_c, 9, 51, 52
5, 39680, Note_on_c, 9, 51, 0
5, 39808, Note_on_c, 9, 51, 43
5, 39816, Note_on_c, 9, 37, 23
5, 39896, Note_on_c, 9, 37, 0
5, 39916, Note_on_c, 9, 57, 0
5, 39922, Note_on_c, 9, 36, 13
5, 39936, Note_on_c, 9, 44, 0
5, 39936, Note_on_c, 9, 51, 0
5, 39936, Note_on_c, 9, 51, 59
5, 39952, Note_on_c, 9, 57, 0
5, 40028, Note_on_c, 9, 36, 0
5, 40064, Note_on_c, 9, 51, 0
5, 40320, Note_on_c, 9, 51, 61
5, 40320, Note_on_c, 9, 44, 94
5, 40448, Note_on_c, 9, 51, 0
5, 40704, Note_on_c, 9, 44, 0
5, 40704, Note_on_c, 9, 51, 53
5, 40704, Note_on_c, 9, 51, 34
5, 40832, Note_on_c, 9, 51, 0
5, 40960, Note_on_c, 9, 51, 0
5, 40990, Note_on_c, 9, 37, 31
5, 41072, Note_on_c, 9, 37, 0
5, 41088, Note_on_c, 9, 44, 99
5, 41088, Note_on_c, 9, 51, 62
5, 41116, Note_on_c, 9, 57, 0
5, 41122, Note_on_c, 9, 36, 15
5, 41182, Note_on_c, 9, 57, 0
5, 41216, Note_on_c, 9, 51, 0
5, 41280, Note_on_c, 9, 36, 0
5, 41472, Note_on_c, 9, 44, 0
5, 41472, Note_on_c, 9, 51, 49
5, 41728, Note_on_c, 9, 51, 0
5, 41856, Note_on_c, 9, 51, 55
5, 41856, Note_on_c, 9, 44, 96
5, 41984, Note_on_c, 9, 51, 0
5, 42112, Note_on_c, 9, 51, 46
5, 42134, Note_on_c, 9, 36, 6
5, 42162, Note_on_c, 9, 36, 0
5, 42240, Note_on_c, 9, 44, 0
5, 42240, Note_on_c, 9, 51, 0
5, 42240, Note_on_c, 9, 51, 51
5, 42258, Note_on_c, 9, 36, 2
5, 42330, Note_on_c, 9, 36, 0
5, 42496, Note_on_c, 9, 51, 0
5, 42624, Note_on_c, 9, 51, 63
5, 42624, Note_on_c, 9, 44, 97
5, 42752, Note_on_c, 9, 51, 0
5, 42878, Note_on_c, 9, 36, 15
5, 42880, Note_on_c, 9, 51, 31
5, 42946, Note_on_c, 9, 36, 0
5, 43008, Note_on_c, 9, 44, 0
5, 43008, Note_on_c, 9, 51, 0
5, 43008, Note_on_c, 9, 51, 49
5, 43020, Note_on_c, 9, 36, 3
5, 43076, Note_on_c, 9, 36, 0
5, 43264, Note_on_c, 9, 51, 0
5, 43392, Note_on_c, 9, 51, 56
5, 43392, Note_on_c, 9, 44, 91
5, 43648, Note_on_c, 9, 51, 0
5, 43776, Note_on_c, 9, 44, 0
5, 43776, Note_on_c, 9, 51, 53
5, 44032, Note_on_c, 9, 51, 0
5, 44160, Note_on_c, 9, 44, 94
5, 44160, Note_on_c, 9, 51, 54
5, 44416, Note_on_c, 9, 51, 0
5, 44416, Note_on_c, 9, 51, 22
5, 44544, Note_on_c, 9, 44, 0
5, 44544, Note_on_c, 9, 51, 0
5, 44544, Note_on_c, 9, 51, 51
5, 44800, Note_on_c, 9, 51, 0
5, 44928, Note_on_c, 9, 44, 93
5, 44928, Note_on_c, 9, 51, 59
5, 45184, Note_on_c, 9, 51, 0
5, 45186, Note_on_c, 9, 40, 6
5, 45216, Note_on_c, 9, 40, 0
5, 45312, Note_on_c, 9, 44, 0
5, 45312, Note_on_c, 9, 51, 56
5, 45332, Note_on_c, 9, 40, 0
5, 45370, Note_on_c, 9, 40, 0
5, 45568, Note_on_c, 9, 51, 0
5, 45568, Note_on_c, 9, 51, 34
5, 45588, Note_on_c, 9, 40, 9
5, 45618, Note_on_c, 9, 40, 0
5, 45696, Note_on_c, 9, 51, 0
5, 45696, Note_on_c, 9, 51, 64
5, 45696, Note_on_c, 9, 44, 96
5, 45952, Note_on_c, 9, 51, 0
5, 45968, Note_on_c, 9, 40, 17
5, 46020, Note_on_c, 9, 40, 0
5, 46080, Note_on_c, 9, 44, 0
5, 46080, Note_on_c, 9, 51, 59
5, 46136, Note_on_c, 9, 40, 13
5, 46172, Note_on_c, 9, 40, 0
5, 46336, Note_on_c, 9, 51, 0
5, 46370, Note_on_c, 9, 40, 18
5, 46404, Note_on_c, 9, 40, 0
5, 46464, Note_on_c, 9, 44, 90
5, 46464, Note_on_c, 9, 51, 56
5, 46720, Note_on_c, 9, 51, 0
5, 46720, Note_on_c, 9, 51, 37
5, 46848, Note_on_c, 9, 44, 0
5, 46848, Note_on_c, 9, 51, 0
5, 46848, Note_on_c, 9, 51, 55
5, 47104, Note_on_c, 9, 51, 0
5, 47232, Note_on_c, 9, 51, 56
5, 47232, Note_on_c, 9, 44, 98
5, 47488, Note_on_c, 9, 51, 0
5, 47488, Note_on_c, 9, 51, 34
5, 47616, Note_on_c, 9, 44, 0
5, 47616, Note_on_c, 9, 51, 0
5, 47616, Note_on_c, 9, 51, 47
5, 47872, Note_on_c, 9, 51, 0
5, 48000, Note_on_c, 9, 51, 44
5, 48000, Note_on_c, 9, 44, 95
5, 48256, Note_on_c, 9, 51, 0
5, 48264, Note_on_c, 9, 37, 22
5, 48376, Note_on_c, 9, 37, 0
5, 48384, Note_on_c, 9, 44, 0
5, 48384, Note_on_c, 9, 51, 27
5, 48396, Note_on_c, 9, 36, 0
5, 48434, Note_on_c, 9, 36, 0
5, 48512, Note_on_c, 9, 51, 0
5, 48512, Note_on_c, 9, 51, 32
5, 48640, Note_on_c, 9, 51, 0
5, 48642, Note_on_c, 9, 36, 7
5, 48756, Note_on_c, 9, 36, 0
5, 48768, Note_on_c, 9, 51, 59
5, 48768, Note_on_c, 9, 44, 99
5, 49024, Note_on_c, 9, 51, 0
5, 49034, Note_on_c, 9, 37, 34
5, 49130, Note_on_c, 9, 37, 0
5, 49152, Note_on_c, 9, 44, 0
5, 49152, Note_on_c, 9, 51, 45
5, 49190, Note_on_c, 9, 36, 0
5, 49234, Note_on_c, 9, 36, 0
5, 49280, Note_on_c, 9, 51, 0
5, 49536, Note_on_c, 9, 51, 54
5, 49536, Note_on_c, 9, 44, 97
5, 49664, Note_on_c, 9, 51, 0
5, 49808, Note_on_c, 9, 36, 0
5, 49844, Note_on_c, 9, 36, 0
5, 49914, Note_on_c, 9, 40, 0
5, 49920, Note_on_c, 9, 44, 0
5, 49920, Note_on_c, 9, 51, 45
5, 50042, Note_on_c, 9, 40, 0
5, 50048, Note_on_c, 9, 51, 0
5, 50160, Note_on_c, 9, 40, 0
5, 50194, Note_on_c, 9, 40, 0
5, 50304, Note_on_c, 9, 44, 93
5, 50304, Note_on_c, 9, 51, 52
5, 50432, Note_on_c, 9, 51, 0
5, 50560, Note_on_c, 9, 51, 31
5, 50572, Note_on_c, 9, 36, 7
5, 50600, Note_on_c, 9, 36, 0
5, 50688, Note_on_c, 9, 44, 0
5, 50688, Note_on_c, 9, 51, 0
5, 50688, Note_on_c, 9, 51, 46
5, 50944, Note_on_c, 9, 51, 0
5, 51072, Note_on_c, 9, 44, 97
5, 51072, Note_on_c, 9, 51, 53
5, 51328, Note_on_c, 9, 51, 0
5, 51376, Note_on_c, 9, 36, 2
5, 51412, Note_on_c, 9, 36, 0
5, 51456, Note_on_c, 9, 44, 0
5, 51456, Note_on_c, 9, 51, 46
5, 51486, Note_on_c, 9, 36, 0
5, 51540, Note_on_c, 9, 36, 0
5, 51584, Note_on_c, 9, 51, 0
5, 51840, Note_on_c, 9, 46, 93
5, 51840, Note_on_c, 9, 51, 47
5, 51968, Note_on_c, 9, 51, 0
5, 52096, Note_on_c, 9, 51, 28
5, 52118, Note_on_c, 9, 36, 7
5, 52148, Note_on_c, 9, 36, 0
5, 52224, Note_on_c, 9, 46, 0
5, 52224, Note_on_c, 9, 51, 0
5, 52224, Note_on_c, 9, 51, 43
5, 52480, Note_on_c, 9, 51, 0
5, 52608, Note_on_c, 9, 44, 86
5, 52608, Note_on_c, 9, 51, 51
5, 52736, Note_on_c, 9, 51, 0
5, 52928, Note_on_c, 9, 36, 9
5, 52958, Note_on_c, 9, 36, 0
5, 52992, Note_on_c, 9, 44, 0
5, 52992, Note_on_c, 9, 51, 57
5, 53042, Note_on_c, 9, 36, 0
5, 53100, Note_on_c, 9, 36, 0
5, 53120, Note_on_c, 9, 51, 0
5, 53376, Note_on_c, 9, 51, 59
5, 53376, Note_on_c, 9, 44, 90
5, 53504, Note_on_c, 9, 51, 0
5, 53632, Note_on_c, 9, 51, 37
5, 53646, Note_on_c, 9, 36, 13
5, 53704, Note_on_c, 9, 36, 0
5, 53760, Note_on_c, 9, 44, 0
5, 53760, Note_on_c, 9, 51, 0
5, 53760, Note_on_c, 9, 51, 46
5, 54016, Note_on_c, 9, 51, 0
5, 54144, Note_on_c, 9, 51, 58
5, 54144, Note_on_c, 9, 44, 94
5, 54272, Note_on_c, 9, 51, 0
5, 54400, Note_on_c, 9, 51, 37
5, 54528, Note_on_c, 9, 44, 0
5, 54528, Note_on_c, 9, 51, 0
5, 54528, Note_on_c, 9, 51, 52
5, 54656, Note_on_c, 9, 51, 0
5, 54912, Note_on_c, 9, 44, 99
5, 54912, Note_on_c, 9, 51, 60
5, 55040, Note_on_c, 9, 51, 0
5, 55190, Note_on_c, 9, 37, 54
5, 55240, Note_on_c, 9, 57, 1
5, 55294, Note_on_c, 9, 57, 0
5, 55296, Note_on_c, 9, 44, 0
5, 55296, Note_on_c, 9, 51, 51
5, 55342, Note_on_c, 9, 36, 28
5, 55384, Note_on_c, 9, 37, 0
5, 55424, Note_on_c, 9, 51, 0
5, 55552, Note_on_c, 9, 53, 62
5, 55646, Note_on_c, 9, 36, 0
5, 55680, Note_on_c, 9, 53, 0
5, 55680, Note_on_c, 9, 51, 21
5, 55680, Note_on_c, 9, 44, 96
5, 55936, Note_on_c, 9, 51, 0
5, 55986, Note_on_c, 9, 36, 15
5, 56016, Note_on_c, 9, 36, 0
5, 56064, Note_on_c, 9, 44, 0
5, 56064, Note_on_c, 9, 51, 56
5, 56112, Note_on_c, 9, 36, 0
5, 56146, Note_on_c, 9, 36, 0
5, 56192, Note_on_c, 9, 51, 0
5, 56448, Note_on_c, 9, 44, 97
5, 56448, Note_on_c, 9, 51, 54
5, 56576, Note_on_c, 9, 51, 0
5, 56722, Note_on_c, 9, 36, 7
5, 56750, Note_on_c, 9, 36, 0
5, 56832, Note_on_c, 9, 44, 0
5, 56832, Note_on_c, 9, 51, 55
5, 56960, Note_on_c, 9, 51, 0
5, 57216, Note_on_c, 9, 51, 61
5, 57216, Note_on_c, 9, 44, 91
5, 57344, Note_on_c, 9, 51, 0
5, 57472, Note_on_c, 9, 51, 35
5, 57600, Note_on_c, 9, 44, 0
5, 57600, Note_on_c, 9, 51, 0
5, 57600, Note_on_c, 9, 51, 46
5, 57856, Note_on_c, 9, 51, 0
5, 57978, Note_on_c, 9, 37, 60
5, 57984, Note_on_c, 9, 51, 61
5, 57984, Note_on_c, 9, 44, 94
5, 58102, Note_on_c, 9, 37, 0
5, 58112, Note_on_c, 9, 51, 0
5, 58240, Note_on_c, 9, 51, 32
5, 58368, Note_on_c, 9, 44, 0
5, 58368, Note_on_c, 9, 51, 0
5, 58368, Note_on_c, 9, 51, 57
5, 58624, Note_on_c, 9, 51, 0
5, 58752, Note_on_c, 9, 51, 62
5, 58752, Note_on_c, 9, 44, 93
5, 59008, Note_on_c, 9, 51, 0
5, 59008, Note_on_c, 9, 51, 33
5, 59026, Note_on_c, 9, 36, 0
5, 59064, Note_on_c, 9, 36, 0
5, 59136, Note_on_c, 9, 44, 0
5, 59136, Note_on_c, 9, 51, 0
5, 59136, Note_on_c, 9, 51, 49
5, 59392, Note_on_c, 9, 51, 0
5, 59512, Note_on_c, 9, 37, 25
5, 59520, Note_on_c, 9, 51, 63
5, 59520, Note_on_c, 9, 44, 96
5, 59582, Note_on_c, 9, 37, 0
5, 59776, Note_on_c, 9, 51, 0
5, 59904, Note_on_c, 9, 44, 0
5, 59904, Note_on_c, 9, 51, 32
5, 59904, Note_on_c, 9, 51, 46
5, 60032, Note_on_c, 9, 51, 0
5, 60160, Note_on_c, 9, 51, 0
5, 60288, Note_on_c, 9, 51, 57
5, 60288, Note_on_c, 9, 44, 90
5, 60544, Note_on_c, 9, 51, 0
5, 60672, Note_on_c, 9, 44, 0
5, 60672, Note_on_c, 9, 51, 58
5, 60928, Note_on_c, 9, 51, 0
5, 60956, Note_on_c, 9, 36, 0
5, 60984, Note_on_c, 9, 36, 0
5, 61044, Note_on_c, 9, 37, 54
5, 61056, Note_on_c, 9, 51, 58
5, 61056, Note_on_c, 9, 44, 98
5, 61184, Note_on_c, 9, 51, 0
5, 61248, Note_on_c, 9, 37, 0
5, 61306, Note_on_c, 9, 37, 22
5, 61370, Note_on_c, 9, 37, 0
5, 61440, Note_on_c, 9, 44, 0
5, 61440, Note_on_c, 9, 51, 46
5, 61440, Note_on_c, 9, 51, 20
5, 61568, Note_on_c, 9, 51, 0
5, 61696, Note_on_c, 9, 51, 0
5, 61824, Note_on_c, 9, 44, 95
5, 61824, Note_on_c, 9, 51, 54
5, 61836, Note_on_c, 9, 36, 7
5, 61880, Note_on_c, 9, 36, 0
5, 61952, Note_on_c, 9, 51, 0
5, 61952, Note_on_c, 9, 51, 56
5, 62080, Note_on_c, 9, 51, 0
5, 62208, Note_on_c, 9, 44, 0
5, 62208, Note_on_c, 9, 51, 60
5, 62464, Note_on_c, 9, 51, 0
5, 62592, Note_on_c, 9, 51, 57
5, 62592, Note_on_c, 9, 44, 99
5, 62720, Note_on_c, 9, 51, 0
5, 62862, Note_on_c, 9, 36, 0
5, 62896, Note_on_c, 9, 36, 0
5, 62968, Note_on_c, 9, 36, 3
5, 62976, Note_on_c, 9, 44, 0
5, 62976, Note_on_c, 9, 51, 49
5, 63030, Note_on_c, 9, 36, 0
5, 63104, Note_on_c, 9, 51, 0
5, 63360, Note_on_c, 9, 44, 97
5, 63360, Note_on_c, 9, 51, 53
5, 63488, Note_on_c, 9, 51, 0
5, 63616, Note_on_c, 9, 51, 33
5, 63636, Note_on_c, 9, 36, 1
5, 63670, Note_on_c, 9, 36, 0
5, 63744, Note_on_c, 9, 44, 0
5, 63744, Note_on_c, 9, 51, 0
5, 63744, Note_on_c, 9, 51, 57
5, 64000, Note_on_c, 9, 51, 0
5, 64128, Note_on_c, 9, 51, 53
5, 64128, Note_on_c, 9, 44, 93
5, 64256, Note_on_c, 9, 51, 0
5, 64410, Note_on_c, 9, 36, 0
5, 64440, Note_on_c, 9, 36, 0
5, 64512, Note_on_c, 9, 44, 0
5, 64512, Note_on_c, 9, 51, 56
5, 64640, Note_on_c, 9, 51, 0
5, 64896, Note_on_c, 9, 51, 54
5, 64896, Note_on_c, 9, 44, 97
5, 65024, Note_on_c, 9, 51, 0
5, 65280, Note_on_c, 9, 44, 0
5, 65280, Note_on_c, 9, 51, 56
5, 65408, Note_on_c, 9, 51, 0
5, 65664, Note_on_c, 9, 51, 58
5, 65664, Note_on_c, 9, 46, 93
5, 65792, Note_on_c, 9, 51, 0
5, 65920, Note_on_c, 9, 51, 56
5, 65950, Note_on_c, 9, 36, 0
5, 65988, Note_on_c, 9, 36, 0
5, 66048, Note_on_c, 9, 46, 0
5, 66048, Note_on_c, 9, 51, 0
5, 66048, Note_on_c, 9, 51, 56
5, 66060, Note_on_c, 9, 36, 0
5, 66138, Note_on_c, 9, 36, 0
5, 66176, Note_on_c, 9, 51, 0
5, 66432, Note_on_c, 9, 51, 56
5, 66432, Note_on_c, 9, 44, 86
5, 66560, Note_on_c, 9, 51, 0
5, 66688, Note_on_c, 9, 51, 51
5, 66708, Note_on_c, 9, 36, 8
5, 66740, Note_on_c, 9, 36, 0
5, 66816, Note_on_c, 9, 44, 0
5, 66816, Note_on_c, 9, 51, 0
5, 66816, Note_on_c, 9, 51, 65
5, 66944, Note_on_c, 9, 51, 0
5, 67200, Note_on_c, 9, 44, 90
5, 67200, Note_on_c, 9, 51, 57
5, 67328, Note_on_c, 9, 51, 0
5, 67456, Note_on_c, 9, 51, 56
5, 67584, Note_on_c, 9, 44, 0
5, 67584, Note_on_c, 9, 51, 0
5, 67584, Note_on_c, 9, 59, 69
5, 67840, Note_on_c, 9, 59, 0
5, 67968, Note_on_c, 9, 44, 94
5, 67968, Note_on_c, 9, 59, 67
5, 68224, Note_on_c, 9, 59, 0
5, 68352, Note_on_c, 9, 44, 0
5, 68352, Note_on_c, 9, 59, 62
5, 68608, Note_on_c, 9, 59, 0
5, 68622, Note_on_c, 9, 40, 16
5, 68660, Note_on_c, 9, 40, 0
5, 68736, Note_on_c, 9, 59, 55
5, 68736, Note_on_c, 9, 44, 99
5, 68736, Note_on_c, 9, 36, 1
5, 68804, Note_on_c, 9, 36, 0
5, 68992, Note_on_c, 9, 59, 0
5, 68992, Note_on_c, 9, 59, 39
5, 69006, Note_on_c, 9, 40, 16
5, 69066, Note_on_c, 9, 40, 0
5, 69120, Note_on_c, 9, 44, 0
5, 69120, Note_on_c, 9, 59, 0
5, 69120, Note_on_c, 9, 59, 63
5, 69132, Note_on_c, 9, 36, 0
5, 69230, Note_on_c, 9, 36, 0
5, 69376, Note_on_c, 9, 59, 0
5, 69504, Note_on_c, 9, 59, 71
5, 69504, Note_on_c, 9, 44, 96
5, 69760, Note_on_c, 9, 59, 0
5, 69760, Note_on_c, 9, 59, 42
5, 69782, Note_on_c, 9, 36, 4
5, 69814, Note_on_c, 9, 36, 0
5, 69888, Note_on_c, 9, 44, 0
5, 69888, Note_on_c, 9, 59, 0
5, 69888, Note_on_c, 9, 59, 44
5, 69912, Note_on_c, 9, 36, 0
5, 70000, Note_on_c, 9, 36, 0
5, 70144, Note_on_c, 9, 59, 0
5, 70144, Note_on_c, 9, 53, 64
5, 70272, Note_on_c, 9, 53, 0
5, 70272, Note_on_c, 9, 44, 97
5, 70272, Note_on_c, 9, 59, 45
5, 70508, Note_on_c, 9, 36, 3
5, 70528, Note_on_c, 9, 59, 0
5, 70542, Note_on_c, 9, 36, 0
5, 70626, Note_on_c, 9, 36, 0
5, 70656, Note_on_c, 9, 44, 0
5, 70656, Note_on_c, 9, 59, 57
5, 70684, Note_on_c, 9, 36, 0
5, 70784, Note_on_c, 9, 59, 0
5, 71040, Note_on_c, 9, 44, 91
5, 71040, Note_on_c, 9, 59, 59
5, 71168, Note_on_c, 9, 59, 0
5, 71296, Note_on_c, 9, 59, 35
5, 71424, Note_on_c, 9, 44, 0
5, 71424, Note_on_c, 9, 59, 0
5, 71424, Note_on_c, 9, 59, 51
5, 71680, Note_on_c, 9, 59, 0
5, 71808, Note_on_c, 9, 44, 94
5, 71808, Note_on_c, 9, 59, 70
5, 72064, Note_on_c, 9, 59, 0
5, 72064, Note_on_c, 9, 59, 41
5, 72192, Note_on_c, 9, 44, 0
5, 72192, Note_on_c, 9, 59, 0
5, 72192, Note_on_c, 9, 59, 54
5, 72448, Note_on_c, 9, 59, 0
5, 72576, Note_on_c, 9, 44, 93
5, 72576, Note_on_c, 9, 59, 67
5, 72832, Note_on_c, 9, 59, 0
5, 72832, Note_on_c, 9, 59, 25
5, 72960, Note_on_c, 9, 44, 0
5, 72960, Note_on_c, 9, 59, 0
5, 72960, Note_on_c, 9, 59, 64
5, 72976, Note_on_c, 9, 37, 11
5, 73012, Note_on_c, 9, 37, 0
5, 73088, Note_on_c, 9, 59, 0
5, 73344, Note_on_c, 9, 59, 69
5, 73344, Note_on_c, 9, 44, 96
5, 73356, Note_on_c, 9, 37, 39
5, 73412, Note_on_c, 9, 37, 0
5, 73600, Note_on_c, 9, 59, 0
5, 73646, Note_on_c, 9, 37, 58
5, 73700, Note_on_c, 9, 37, 0
5, 73728, Note_on_c, 9, 44, 0
5, 73728, Note_on_c, 9, 59, 62
5, 73748, Note_on_c, 9, 36, 0
5, 73886, Note_on_c, 9, 36, 0
5, 73984, Note_on_c, 9, 59, 0
5, 74112, Note_on_c, 9, 44, 90
5, 74112, Note_on_c, 9, 59, 65
5, 74368, Note_on_c, 9, 59, 0
5, 74496, Note_on_c, 9, 44, 0
5, 74496, Note_on_c, 9, 59, 26
5, 74624, Note_on_c, 9, 59, 0
5, 74624, Note_on_c, 9, 59, 58
5, 74752, Note_on_c, 9, 59, 0
5, 74880, Note_on_c, 9, 44, 98
5, 74880, Note_on_c, 9, 59, 62
5, 74880, Note_on_c, 9, 57, 0
5, 75008, Note_on_c, 9, 57, 0
5, 75136, Note_on_c, 9, 59, 0
5, 75154, Note_on_c, 9, 40, 16
5, 75222, Note_on_c, 9, 40, 0
5, 75264, Note_on_c, 9, 44, 0
5, 75264, Note_on_c, 9, 59, 50
5, 75392, Note_on_c, 9, 59, 0
5, 75648, Note_on_c, 9, 59, 59
5, 75648, Note_on_c, 9, 44, 95
5, 75776, Note_on_c, 9, 59, 0
5, 75904, Note_on_c, 9, 59, 37
5, 76032, Note_on_c, 9, 44, 0
5, 76032, Note_on_c, 9, 59, 0
5, 76032, Note_on_c, 9, 59, 56
5, 76288, Note_on_c, 9, 59, 0
5, 76302, Note_on_c, 9, 37, 36
5, 76396, Note_on_c, 9, 37, 0
5, 76416, Note_on_c, 9, 44, 99
5, 76416, Note_on_c, 9, 59, 61
5, 76444, Note_on_c, 9, 36, 0
5, 76544, Note_on_c, 9, 59, 0
5, 76562, Note_on_c, 9, 36, 0
5, 76672, Note_on_c, 9, 59, 42
5, 76684, Note_on_c, 9, 36, 7
5, 76768, Note_on_c, 9, 36, 0
5, 76800, Note_on_c, 9, 44, 0
5, 76800, Note_on_c, 9, 59, 0
5, 76800, Note_on_c, 9, 59, 59
5, 77056, Note_on_c, 9, 59, 0
5, 77184, Note_on_c, 9, 44, 97
5, 77184, Note_on_c, 9, 59, 59
5, 77440, Note_on_c, 9, 59, 0
5, 77440, Note_on_c, 9, 59, 20
5, 77568, Note_on_c, 9, 44, 0
5, 77568, Note_on_c, 9, 59, 0
5, 77568, Note_on_c, 9, 59, 56
5, 77652, Note_on_c, 9, 40, 7
5, 77690, Note_on_c, 9, 40, 0
5, 77824, Note_on_c, 9, 59, 0
5, 77952, Note_on_c, 9, 44, 93
5, 77952, Note_on_c, 9, 59, 56
5, 77954, Note_on_c, 9, 40, 16
5, 77990, Note_on_c, 9, 40, 0
5, 78080, Note_on_c, 9, 59, 0
5, 78208, Note_on_c, 9, 59, 35
5, 78216, Note_on_c, 9, 40, 12
5, 78246, Note_on_c, 9, 40, 0
5, 78336, Note_on_c, 9, 44, 0
5, 78336, Note_on_c, 9, 59, 0
5, 78336, Note_on_c, 9, 59, 57
5, 78450, Note_on_c, 9, 40, 18
5, 78464, Note_on_c, 9, 59, 0
5, 78492, Note_on_c, 9, 40, 0
5, 78592, Note_on_c, 9, 59, 63
5, 78720, Note_on_c, 9, 59, 0
5, 78720, Note_on_c, 9, 44, 97
5, 78740, Note_on_c, 9, 40, 7
5, 78750, Note_on_c, 9, 41, 17
5, 78778, Note_on_c, 9, 41, 0
5, 78792, Note_on_c, 9, 40, 0
5, 78990, Note_on_c, 9, 40, 26
5, 79056, Note_on_c, 9, 40, 0
5, 79104, Note_on_c, 9, 44, 0
5, 79104, Note_on_c, 9, 59, 62
5, 79232, Note_on_c, 9, 59, 0
5, 79252, Note_on_c, 9, 40, 24
5, 79316, Note_on_c, 9, 40, 0
5, 79458, Note_on_c, 9, 40, 22
5, 79488, Note_on_c, 9, 59, 58
5, 79488, Note_on_c, 9, 46, 93
5, 79506, Note_on_c, 9, 40, 0
5, 79616, Note_on_c, 9, 59, 0
5, 79714, Note_on_c, 9, 37, 47
5, 79744, Note_on_c, 9, 59, 39
5, 79820, Note_on_c, 9, 57, 4
5, 79842, Note_on_c, 9, 36, 23
5, 79858, Note_on_c, 9, 37, 0
5, 79872, Note_on_c, 9, 46, 0
5, 79872, Note_on_c, 9, 59, 0
5, 79872, Note_on_c, 9, 59, 55
5, 79926, Note_on_c, 9, 57, 0
5, 80128, Note_on_c, 9, 59, 0
5, 80142, Note_on_c, 9, 36, 0
5, 80256, Note_on_c, 9, 59, 65
5, 80256, Note_on_c, 9, 44, 86
5, 80384, Note_on_c, 9, 59, 0
5, 80512, Note_on_c, 9, 59, 24
5, 80640, Note_on_c, 9, 44, 0
5, 80640, Note_on_c, 9, 59, 0
5, 80640, Note_on_c, 9, 59, 60
5, 80896, Note_on_c, 9, 59, 0
5, 81024, Note_on_c, 9, 44, 90
5, 81024, Note_on_c, 9, 59, 59
5, 81152, Note_on_c, 9, 59, 0
5, 81280, Note_on_c, 9, 59, 37
5, 81290, Note_on_c, 9, 36, 5
5, 81324, Note_on_c, 9, 36, 0
5, 81408, Note_on_c, 9, 44, 0
5, 81408, Note_on_c, 9, 59, 0
5, 81408, Note_on_c, 9, 59, 60
5, 81432, Note_on_c, 9, 36, 7
5, 81486, Note_on_c, 9, 36, 0
5, 81664, Note_on_c, 9, 59, 0
5, 81792, Note_on_c, 9, 44, 94
5, 81792, Note_on_c, 9, 59, 57
5, 82048, Note_on_c, 9, 59, 0
5, 82082, Note_on_c, 9, 36, 5
5, 82112, Note_on_c, 9, 36, 0
5, 82176, Note_on_c, 9, 44, 0
5, 82176, Note_on_c, 9, 59, 58
5, 82432, Note_on_c, 9, 59, 0
5, 82560, Note_on_c, 9, 44, 99
5, 82560, Note_on_c, 9, 59, 55
5, 82688, Note_on_c, 9, 59, 0
5, 82816, Note_on_c, 9, 59, 31
5, 82824, Note_on_c, 9, 37, 29
5, 82920, Note_on_c, 9, 37, 0
5, 82944, Note_on_c, 9, 44, 0
5, 82944, Note_on_c, 9, 59, 0
5, 82944, Note_on_c, 9, 59, 59
5, 82964, Note_on_c, 9, 36, 0
5, 83136, Note_on_c, 9, 36, 0
5, 83200, Note_on_c, 9, 59, 0
5, 83328, Note_on_c, 9, 59, 62
5, 83328, Note_on_c, 9, 44, 96
5, 83456, Note_on_c, 9, 59, 0
5, 83584, Note_on_c, 9, 59, 35
5, 83712, Note_on_c, 9, 44, 0
5, 83712, Note_on_c, 9, 59, 0
5, 83712, Note_on_c, 9, 59, 49
5, 83968, Note_on_c, 9, 59, 0
5, 84096, Note_on_c, 9, 44, 97
5, 84096, Note_on_c, 9, 59, 70
5, 84352, Note_on_c, 9, 59, 0
5, 84354, Note_on_c, 9, 38, 22
5, 84382, Note_on_c, 9, 38, 0
5, 84480, Note_on_c, 9, 44, 0
5, 84480, Note_on_c, 9, 59, 31
5, 84608, Note_on_c, 9, 59, 0
5, 84722, Note_on_c, 9, 38, 29
5, 84752, Note_on_c, 9, 38, 0
5, 84864, Note_on_c, 9, 59, 72
5, 84864, Note_on_c, 9, 44, 91
5, 85120, Note_on_c, 9, 59, 0
5, 85120, Note_on_c, 9, 38, 18
5, 85152, Note_on_c, 9, 38, 0
5, 85248, Note_on_c, 9, 44, 0
5, 85248, Note_on_c, 9, 59, 43
5, 85376, Note_on_c, 9, 59, 0
5, 85504, Note_on_c, 9, 59, 37
5, 85506, Note_on_c, 9, 38, 20
5, 85540, Note_on_c, 9, 38, 0
5, 85632, Note_on_c, 9, 59, 0
5, 85632, Note_on_c, 9, 44, 94
5, 85632, Note_on_c, 9, 59, 55
5, 85854, Note_on_c, 9, 38, 21
5, 85884, Note_on_c, 9, 38, 0
5, 85888, Note_on_c, 9, 59, 0
5, 85896, Note_on_c, 9, 37, 41
5, 86016, Note_on_c, 9, 44, 0
5, 86020, Note_on_c, 9, 37, 0
5, 86032, Note_on_c, 9, 36, 3
5, 86144, Note_on_c, 9, 59, 45
5, 86222, Note_on_c, 9, 36, 0
5, 86272, Note_on_c, 9, 59, 0
5, 86272, Note_on_c, 9, 59, 39
5, 86400, Note_on_c, 9, 59, 0
5, 86400, Note_on_c, 9, 59, 62
5, 86400, Note_on_c, 9, 44, 93
5, 86628, Note_on_c, 9, 36, 11
5, 86656, Note_on_c, 9, 59, 0
5, 86674, Note_on_c, 9, 36, 0
5, 86776, Note_on_c, 9, 36, 0
5, 86784, Note_on_c, 9, 44, 0
5, 86784, Note_on_c, 9, 59, 31
5, 86830, Note_on_c, 9, 36, 0
5, 86912, Note_on_c, 9, 59, 0
5, 87040, Note_on_c, 9, 59, 46
5, 87168, Note_on_c, 9, 59, 0
5, 87168, Note_on_c, 9, 44, 96
5, 87168, Note_on_c, 9, 59, 64
5, 87424, Note_on_c, 9, 59, 0
5, 87436, Note_on_c, 9, 36, 0
5, 87468, Note_on_c, 9, 36, 0
5, 87552, Note_on_c, 9, 44, 0
5, 87552, Note_on_c, 9, 59, 28
5, 87680, Note_on_c, 9, 59, 0
5, 87808, Note_on_c, 9, 59, 26
5, 87936, Note_on_c, 9, 59, 0
5, 87936, Note_on_c, 9, 44, 90
5, 87936, Note_on_c, 9, 59, 64
5, 88192, Note_on_c, 9, 59, 0
5, 88320, Note_on_c, 9, 44, 0
5, 88320, Note_on_c, 9, 59, 44
5, 88448, Note_on_c, 9, 59, 0
5, 88576, Note_on_c, 9, 53, 62
5, 88606, Note_on_c, 9, 40, 9
5, 88634, Note_on_c, 9, 40, 0
5, 88702, Note_on_c, 9, 36, 1
5, 88704, Note_on_c, 9, 53, 0
5, 88704, Note_on_c, 9, 59, 56
5, 88704, Note_on_c, 9, 44, 98
5, 88828, Note_on_c, 9, 36, 0
5, 88960, Note_on_c, 9, 59, 0
5, 89088, Note_on_c, 9, 44, 0
5, 89088, Note_on_c, 9, 59, 48
5, 89216, Note_on_c, 9, 59, 0
5, 89340, Note_on_c, 9, 40, 13
5, 89368, Note_on_c, 9, 40, 0
5, 89446, Note_on_c, 9, 36, 4
5, 89472, Note_on_c, 9, 44, 95
5, 89472, Note_on_c, 9, 59, 56
5, 89476, Note_on_c, 9, 36, 0
5, 89600, Note_on_c, 9, 59, 0
5, 89728, Note_on_c, 9, 59, 39
5, 89856, Note_on_c, 9, 44, 0
5, 89856, Note_on_c, 9, 59, 0
5, 89856, Note_on_c, 9, 59, 49
5, 89984, Note_on_c, 9, 59, 0
5, 90112, Note_on_c, 9, 53, 74
5, 90240, Note_on_c, 9, 53, 0
5, 90240, Note_on_c, 9, 44, 99
5, 90240, Note_on_c, 9, 59, 32
5, 90368, Note_on_c, 9, 59, 0
5, 90624, Note_on_c, 9, 44, 0
5, 90624, Note_on_c, 9, 59, 50
5, 90752, Note_on_c, 9, 59, 0
5, 91008, Note_on_c, 9, 59, 56
5, 91008, Note_on_c, 9, 44, 97
5, 91136, Note_on_c, 9, 59, 0
5, 91288, Note_on_c, 9, 36, 3
5, 91322, Note_on_c, 9, 36, 0
5, 91392, Note_on_c, 9, 44, 0
5, 91392, Note_on_c, 9, 59, 49
5, 91402, Note_on_c, 9, 36, 3
5, 91482, Note_on_c, 9, 36, 0
5, 91520, Note_on_c, 9, 59, 0
5, 91648, Note_on_c, 9, 53, 62
5, 91776, Note_on_c, 9, 53, 0
5, 91776, Note_on_c, 9, 59, 39
5, 91776, Note_on_c, 9, 44, 93
5, 91904, Note_on_c, 9, 59, 0
5, 92030, Note_on_c, 9, 36, 5
5, 92032, Note_on_c, 9, 59, 74
5, 92032, Note_on_c, 9, 57, 5
5, 92160, Note_on_c, 9, 44, 0
5, 92160, Note_on_c, 9, 59, 0
5, 92160, Note_on_c, 9, 57, 0
5, 92240, Note_on_c, 9, 36, 0
5, 92544, Note_on_c, 9, 44, 97
5, 92544, Note_on_c, 9, 59, 32
5, 92672, Note_on_c, 9, 59, 0
5, 92800, Note_on_c, 9, 59, 19
5, 92928, Note_on_c, 9, 44, 0
5, 92928, Note_on_c, 9, 59, 0
5, 92928, Note_on_c, 9, 59, 24
5, 93056, Note_on_c, 9, 59, 0
5, 93184, Note_on_c, 9, 59, 83
5, 93184, Note_on_c, 9, 57, 10
5, 93312, Note_on_c, 9, 46, 93
5, 93440, Note_on_c, 9, 57, 0
5, 93568, Note_on_c, 9, 59, 0
5, 93582, Note_on_c, 9, 36, 17
5, 93692, Note_on_c, 9, 36, 0
5, 93696, Note_on_c, 9, 46, 0
5, 93696, Note_on_c, 9, 59, 27
5, 93824, Note_on_c, 9, 59, 0
5, 93824, Note_on_c, 9, 59, 0
5, 93952, Note_on_c, 9, 59, 0
5, 94080, Note_on_c, 9, 44, 86
5, 94080, Note_on_c, 9, 59, 54
5, 94208, Note_on_c, 9, 59, 0
5, 94336, Note_on_c, 9, 59, 44
5, 94464, Note_on_c, 9, 44, 0
5, 94464, Note_on_c, 9, 59, 0
5, 94464, Note_on_c, 9, 59, 37
5, 94592, Note_on_c, 9, 59, 0
5, 94698, Note_on_c, 9, 37, 6
5, 94766, Note_on_c, 9, 37, 0
5, 94848, Note_on_c, 9, 44, 90
5, 94848, Note_on_c, 9, 59, 54
5, 94976, Note_on_c, 9, 59, 0
5, 95082, Note_on_c, 9, 37, 25
5, 95104, Note_on_c, 9, 59, 29
5, 95182, Note_on_c, 9, 37, 0
5, 95232, Note_on_c, 9, 44, 0
5, 95232, Note_on_c, 9, 59, 0
5, 95232, Note_on_c, 9, 59, 48
5, 95238, Note_on_c, 9, 36, 0
5, 95276, Note_on_c, 9, 36, 0
5, 95488, Note_on_c, 9, 59, 0
5, 95616, Note_on_c, 9, 59, 53
5, 95616, Note_on_c, 9, 44, 94
5, 95744, Note_on_c, 9, 59, 0
5, 95872, Note_on_c, 9, 59, 26
5, 96000, Note_on_c, 9, 44, 0
5, 96000, Note_on_c, 9, 59, 0
5, 96000, Note_on_c, 9, 59, 49
5, 96256, Note_on_c, 9, 59, 0
5, 96384, Note_on_c, 9, 44, 99
5, 96384, Note_on_c, 9, 59, 55
5, 96512, Note_on_c, 9, 59, 0
5, 96768, Note_on_c, 9, 44, 0
5, 96768, Note_on_c, 9, 59, 46
5, 97024, Note_on_c, 9, 59, 0
5, 97152, Note_on_c, 9, 59, 51
5, 97152, Note_on_c, 9, 44, 96
5, 97280, Note_on_c, 9, 59, 0
5, 97408, Note_on_c, 9, 59, 36
5, 97536, Note_on_c, 9, 44, 0
5, 97536, Note_on_c, 9, 59, 0
5, 97536, Note_on_c, 9, 59, 56
5, 97792, Note_on_c, 9, 59, 0
5, 97920, Note_on_c, 9, 59, 61
5, 97920, Note_on_c, 9, 44, 97
5, 97932, Note_on_c, 9, 36, 2
5, 97962, Note_on_c, 9, 36, 0
5, 98176, Note_on_c, 9, 59, 0
5, 98176, Note_on_c, 9, 59, 30
5, 98186, Note_on_c, 9, 36, 33
5, 98246, Note_on_c, 9, 36, 0
5, 98304, Note_on_c, 9, 44, 0
5, 98304, Note_on_c, 9, 59, 0
5, 98304, Note_on_c, 9, 59, 59
5, 98338, Note_on_c, 9, 36, 9
5, 98388, Note_on_c, 9, 36, 0
5, 98560, Note_on_c, 9, 59, 0
5, 98688, Note_on_c, 9, 44, 91
5, 98688, Note_on_c, 9, 59, 56
5, 98816, Note_on_c, 9, 59, 0
5, 99072, Note_on_c, 9, 44, 0
5, 99072, Note_on_c, 9, 59, 53
5, 99328, Note_on_c, 9, 59, 0
5, 99342, Note_on_c, 9, 40, 21
5, 99404, Note_on_c, 9, 40, 0
5, 99456, Note_on_c, 9, 59, 55
5, 99456, Note_on_c, 9, 44, 94
5, 99508, Note_on_c, 9, 36, 0
5, 99546, Note_on_c, 9, 36, 0
5, 99584, Note_on_c, 9, 59, 0
5, 99712, Note_on_c, 9, 59, 42
5, 99840, Note_on_c, 9, 44, 0
5, 99840, Note_on_c, 9, 59, 0
5, 99840, Note_on_c, 9, 59, 46
5, 100096, Note_on_c, 9, 59, 0
5, 100102, Note_on_c, 9, 40, 12
5, 100136, Note_on_c, 9, 40, 0
5, 100224, Note_on_c, 9, 44, 93
5, 100224, Note_on_c, 9, 59, 59
5, 100230, Note_on_c, 9, 36, 4
5, 100278, Note_on_c, 9, 36, 0
5, 100352, Note_on_c, 9, 59, 0
5, 100608, Note_on_c, 9, 44, 0
5, 100608, Note_on_c, 9, 59, 54
5, 100864, Note_on_c, 9, 59, 0
5, 100904, Note_on_c, 9, 40, 12
5, 100942, Note_on_c, 9, 40, 0
5, 100992, Note_on_c, 9, 59, 56
5, 100992, Note_on_c, 9, 44, 96
5, 101016, Note_on_c, 9, 36, 1
5, 101120, Note_on_c, 9, 59, 0
5, 101126, Note_on_c, 9, 36, 0
5, 101248, Note_on_c, 9, 59, 41
5, 101376, Note_on_c, 9, 44, 0
5, 101376, Note_on_c, 9, 59, 0
5, 101376, Note_on_c, 9, 59, 50
5, 101632, Note_on_c, 9, 59, 0
5, 101760, Note_on_c, 9, 44, 90
5, 101760, Note_on_c, 9, 59, 62
5, 101888, Note_on_c, 9, 59, 0
5, 102016, Note_on_c, 9, 59, 37
5, 102144, Note_on_c, 9, 44, 0
5, 102144, Note_on_c, 9, 59, 0
5, 102144, Note_on_c, 9, 59, 58
5, 102272, Note_on_c, 9, 59, 0
5, 102410, Note_on_c, 9, 37, 32
5, 102500, Note_on_c, 9, 37, 0
5, 102528, Note_on_c, 9, 44, 98
5, 102528, Note_on_c, 9, 59, 54
5, 102554, Note_on_c, 9, 36, 0
5, 102636, Note_on_c, 9, 36, 0
5, 102656, Note_on_c, 9, 59, 0
5, 102912, Note_on_c, 9, 44, 0
5, 102912, Note_on_c, 9, 59, 56
5, 103156, Note_on_c, 9, 37, 35
5, 103168, Note_on_c, 9, 59, 0
5, 103254, Note_on_c, 9, 37, 0
5, 103292, Note_on_c, 9, 36, 4
5, 103296, Note_on_c, 9, 59, 62
5, 103296, Note_on_c, 9, 44, 95
5, 103354, Note_on_c, 9, 36, 0
5, 103552, Note_on_c, 9, 59, 0
5, 103680, Note_on_c, 9, 44, 0
5, 103680, Note_on_c, 9, 59, 56
5, 103924, Note_on_c, 9, 37, 24
5, 103936, Note_on_c, 9, 59, 0
5, 104018, Note_on_c, 9, 37, 0
5, 104064, Note_on_c, 9, 59, 58
5, 104064, Note_on_c, 9, 44, 99
5, 104192, Note_on_c, 9, 59, 0
5, 104320, Note_on_c, 9, 59, 35
5, 104322, Note_on_c, 9, 37, 3
5, 104332, Note_on_c, 9, 36, 13
5, 104352, Note_on_c, 9, 37, 0
5, 104448, Note_on_c, 9, 44, 0
5, 104448, Note_on_c, 9, 59, 0
5, 104448, Note_on_c, 9, 59, 47
5, 104610, Note_on_c, 9, 36, 0
5, 104704, Note_on_c, 9, 59, 0
5, 104832, Note_on_c, 9, 59, 54
5, 104832, Note_on_c, 9, 44, 97
5, 104960, Note_on_c, 9, 59, 0
5, 105088, Note_on_c, 9, 59, 39
5, 105216, Note_on_c, 9, 44, 0
5, 105216, Note_on_c, 9, 59, 0
5, 105216, Note_on_c, 9, 59, 56
5, 105472, Note_on_c, 9, 59, 0
5, 105600, Note_on_c, 9, 44, 93
5, 105600, Note_on_c, 9, 59, 59
5, 105728, Note_on_c, 9, 59, 0
5, 105856, Note_on_c, 9, 59, 27
5, 105984, Note_on_c, 9, 44, 0
5, 105984, Note_on_c, 9, 59, 0
5, 105984, Note_on_c, 9, 59, 55
5, 106240, Note_on_c, 9, 59, 0
5, 106368, Note_on_c, 9, 44, 97
5, 106368, Note_on_c, 9, 59, 56
5, 106624, Note_on_c, 9, 59, 0
5, 106624, Note_on_c, 9, 59, 34
5, 106752, Note_on_c, 9, 44, 0
5, 106752, Note_on_c, 9, 59, 0
5, 106752, Note_on_c, 9, 59, 62
5, 107008, Note_on_c, 9, 59, 0
5, 107136, Note_on_c, 9, 46, 93
5, 107136, Note_on_c, 9, 59, 62
5, 107264, Note_on_c, 9, 59, 0
5, 107520, Note_on_c, 9, 46, 0
5, 107520, Note_on_c, 9, 59, 60
5, 107776, Note_on_c, 9, 59, 0
5, 107904, Note_on_c, 9, 44, 86
5, 107904, Note_on_c, 9, 59, 61
5, 108032, Note_on_c, 9, 59, 0
5, 108158, Note_on_c, 9, 50, 14
5, 108160, Note_on_c, 9, 59, 51
5, 108202, Note_on_c, 9, 50, 0
5, 108288, Note_on_c, 9, 44, 0
5, 108288, Note_on_c, 9, 59, 0
5, 108288, Note_on_c, 9, 59, 56
5, 108544, Note_on_c, 9, 59, 0
5, 108672, Note_on_c, 9, 59, 61
5, 108672, Note_on_c, 9, 44, 90
5, 108692, Note_on_c, 9, 37, 30
5, 108800, Note_on_c, 9, 59, 0
5, 108832, Note_on_c, 9, 37, 0
5, 109056, Note_on_c, 9, 44, 0
5, 109056, Note_on_c, 9, 59, 58
5, 109184, Note_on_c, 9, 59, 0
5, 109304, Note_on_c, 9, 37, 3
5, 109332, Note_on_c, 9, 37, 0
5, 109434, Note_on_c, 9, 50, 0
5, 109440, Note_on_c, 9, 44, 94
5, 109440, Note_on_c, 9, 59, 60
5, 109556, Note_on_c, 9, 50, 0
5, 109568, Note_on_c, 9, 59, 0
5, 109684, Note_on_c, 9, 50, 27
5, 109824, Note_on_c, 9, 44, 0
5, 109824, Note_on_c, 9, 50, 0
5, 109824, Note_on_c, 9, 59, 57
5, 110080, Note_on_c, 9, 59, 0
5, 110108, Note_on_c, 9, 36, 0
5, 110136, Note_on_c, 9, 36, 0
5, 110194, Note_on_c, 9, 37, 16
5, 110208, Note_on_c, 9, 44, 99
5, 110208, Note_on_c, 9, 59, 48
5, 110370, Note_on_c, 9, 37, 0
5, 110464, Note_on_c, 9, 59, 0
5, 110464, Note_on_c, 9, 53, 61
5, 110592, Note_on_c, 9, 44, 0
5, 110592, Note_on_c, 9, 53, 0
5, 110592, Note_on_c, 9, 59, 35
5, 110720, Note_on_c, 9, 59, 0
5, 110848, Note_on_c, 9, 53, 66
5, 110964, Note_on_c, 9, 50, 0
5, 110976, Note_on_c, 9, 53, 0
5, 110976, Note_on_c, 9, 59, 21
5, 110976, Note_on_c, 9, 44, 96
5, 111056, Note_on_c, 9, 50, 0
5, 111232, Note_on_c, 9, 59, 0
5, 111236, Note_on_c, 9, 50, 32
5, 111360, Note_on_c, 9, 44, 0
5, 111360, Note_on_c, 9, 59, 42
5, 111370, Note_on_c, 9, 50, 0
5, 111488, Note_on_c, 9, 59, 0
5, 111654, Note_on_c, 9, 36, 0
5, 111692, Note_on_c, 9, 36, 0
5, 111744, Note_on_c, 9, 59, 52
5, 111744, Note_on_c, 9, 44, 97
5, 111746, Note_on_c, 9, 37, 19
5, 111870, Note_on_c, 9, 37, 0
5, 111872, Note_on_c, 9, 59, 0
5, 112000, Note_on_c, 9, 59, 49
5, 112128, Note_on_c, 9, 44, 0
5, 112128, Note_on_c, 9, 59, 0
5, 112128, Note_on_c, 9, 59, 52
5, 112256, Note_on_c, 9, 59, 0
5, 112512, Note_on_c, 9, 44, 91
5, 112512, Note_on_c, 9, 59, 54
5, 112516, Note_on_c, 9, 50, 12
5, 112640, Note_on_c, 9, 59, 0
5, 112664, Note_on_c, 9, 50, 0
5, 112768, Note_on_c, 9, 59, 38
5, 112792, Note_on_c, 9, 50, 20
5, 112896, Note_on_c, 9, 44, 0
5, 112896, Note_on_c, 9, 59, 0
5, 112896, Note_on_c, 9, 59, 56
5, 112910, Note_on_c, 9, 50, 0
5, 113152, Note_on_c, 9, 59, 0
5, 113168, Note_on_c, 9, 36, 24
5, 113276, Note_on_c, 9, 36, 0
5, 113280, Note_on_c, 9, 59, 61
5, 113280, Note_on_c, 9, 44, 94
5, 113312, Note_on_c, 9, 37, 27
5, 113384, Note_on_c, 9, 37, 0
5, 113408, Note_on_c, 9, 59, 0
5, 113536, Note_on_c, 9, 59, 33
5, 113664, Note_on_c, 9, 44, 0
5, 113664, Note_on_c, 9, 59, 0
5, 113664, Note_on_c, 9, 59, 59
5, 113920, Note_on_c, 9, 59, 0
5, 114048, Note_on_c, 9, 59, 62
5, 114048, Note_on_c, 9, 44, 93
5, 114062, Note_on_c, 9, 50, 1
5, 114134, Note_on_c, 9, 50, 0
5, 114176, Note_on_c, 9, 59, 0
5, 114308, Note_on_c, 9, 50, 27
5, 114424, Note_on_c, 9, 50, 0
5, 114432, Note_on_c, 9, 44, 0
5, 114560, Note_on_c, 9, 59, 58
5, 114660, Note_on_c, 9, 36, 12
5, 114688, Note_on_c, 9, 59, 0
5, 114748, Note_on_c, 9, 36, 0
5, 114796, Note_on_c, 9, 37, 27
5, 114816, Note_on_c, 9, 44, 96
5, 114816, Note_on_c, 9, 59, 66
5, 114896, Note_on_c, 9, 37, 0
5, 115072, Note_on_c, 9, 59, 0
5, 115200, Note_on_c, 9, 44, 0
5, 115200, Note_on_c, 9, 59, 30
5, 115328, Note_on_c, 9, 59, 0
5, 115328, Note_on_c, 9, 59, 48
5, 115456, Note_on_c, 9, 59, 0
5, 115456, Note_on_c, 9, 59, 8
5, 115584, Note_on_c, 9, 59, 0
5, 115584, Note_on_c, 9, 44, 90
5, 115594, Note_on_c, 9, 50, 5
5, 115644, Note_on_c, 9, 50, 0
5, 115712, Note_on_c, 9, 59, 64
5, 115840, Note_on_c, 9, 59, 0
5, 115860, Note_on_c, 9, 50, 26
5, 115950, Note_on_c, 9, 50, 0
5, 115968, Note_on_c, 9, 44, 0
5, 115968, Note_on_c, 9, 59, 49
5, 116096, Note_on_c, 9, 59, 0
5, 116350, Note_on_c, 9, 37, 54
5, 116352, Note_on_c, 9, 44, 98
5, 116352, Note_on_c, 9, 59, 60
5, 116470, Note_on_c, 9, 37, 0
5, 116480, Note_on_c, 9, 59, 0
5, 116608, Note_on_c, 9, 59, 36
5, 116736, Note_on_c, 9, 44, 0
5, 116736, Note_on_c, 9, 59, 0
5, 116736, Note_on_c, 9, 59, 56
5, 116864, Note_on_c, 9, 59, 0
5, 117120, Note_on_c, 9, 59, 64
5, 117120, Note_on_c, 9, 44, 95
5, 117122, Note_on_c, 9, 50, 3
5, 117158, Note_on_c, 9, 50, 0
5, 117248, Note_on_c, 9, 59, 0
5, 117376, Note_on_c, 9, 59, 30
5, 117380, Note_on_c, 9, 50, 37
5, 117472, Note_on_c, 9, 50, 0
5, 117504, Note_on_c, 9, 44, 0
5, 117504, Note_on_c, 9, 59, 0
5, 117504, Note_on_c, 9, 59, 62
5, 117760, Note_on_c, 9, 59, 0
5, 117778, Note_on_c, 9, 36, 11
5, 117856, Note_on_c, 9, 36, 0
5, 117888, Note_on_c, 9, 44, 99
5, 117888, Note_on_c, 9, 59, 60
5, 117918, Note_on_c, 9, 37, 16
5, 117974, Note_on_c, 9, 37, 0
5, 118016, Note_on_c, 9, 59, 0
5, 118144, Note_on_c, 9, 59, 42
5, 118272, Note_on_c, 9, 44, 0
5, 118272, Note_on_c, 9, 59, 0
5, 118272, Note_on_c, 9, 59, 37
5, 118528, Note_on_c, 9, 59, 0
5, 118656, Note_on_c, 9, 44, 97
5, 118656, Note_on_c, 9, 59, 62
5, 118656, Note_on_c, 9, 50, 0
5, 118724, Note_on_c, 9, 50, 0
5, 118784, Note_on_c, 9, 59, 0
5, 118922, Note_on_c, 9, 50, 38
5, 119026, Note_on_c, 9, 50, 0
5, 119040, Note_on_c, 9, 44, 0
5, 119040, Note_on_c, 9, 59, 62
5, 119296, Note_on_c, 9, 59, 0
5, 119310, Note_on_c, 9, 36, 0
5, 119400, Note_on_c, 9, 36, 0
5, 119420, Note_on_c, 9, 37, 20
5, 119424, Note_on_c, 9, 44, 93
5, 119424, Note_on_c, 9, 59, 59
5, 119552, Note_on_c, 9, 59, 0
5, 119578, Note_on_c, 9, 37, 0
5, 119680, Note_on_c, 9, 59, 42
5, 119808, Note_on_c, 9, 44, 0
5, 119808, Note_on_c, 9, 59, 0
5, 119808, Note_on_c, 9, 59, 56
5, 120064, Note_on_c, 9, 59, 0
5, 120192, Note_on_c, 9, 44, 97
5, 120192, Note_on_c, 9, 59, 58
5, 120422, Note_on_c, 9, 50, 8
5, 120448, Note_on_c, 9, 59, 0
5, 120450, Note_on_c, 9, 50, 0
5, 120576, Note_on_c, 9, 44, 0
5, 120576, Note_on_c, 9, 59, 56
5, 120576, Note_on_c, 9, 59, 34
5, 120704, Note_on_c, 9, 59, 0
5, 120822, Note_on_c, 9, 36, 0
5, 120832, Note_on_c, 9, 59, 0
5, 120860, Note_on_c, 9, 36, 0
5, 120960, Note_on_c, 9, 59, 62
5, 120960, Note_on_c, 9, 46, 93
5, 120968, Note_on_c, 9, 37, 7
5, 121070, Note_on_c, 9, 37, 0
5, 121216, Note_on_c, 9, 59, 0
5, 121216, Note_on_c, 9, 59, 36
5, 121344, Note_on_c, 9, 46, 0
5, 121344, Note_on_c, 9, 59, 0
5, 121344, Note_on_c, 9, 59, 55
5, 121600, Note_on_c, 9, 59, 0
5, 121728, Note_on_c, 9, 59, 70
5, 121728, Note_on_c, 9, 44, 86
5, 121856, Note_on_c, 9, 59, 0
5, 121984, Note_on_c, 9, 59, 44
5, 121994, Note_on_c, 9, 50, 22
5, 122062, Note_on_c, 9, 50, 0
5, 122112, Note_on_c, 9, 44, 0
5, 122112, Note_on_c, 9, 59, 0
5, 122112, Note_on_c, 9, 59, 62
5, 122240, Note_on_c, 9, 59, 0
5, 122368, Note_on_c, 9, 53, 65
5, 122496, Note_on_c, 9, 53, 0
5, 122496, Note_on_c, 9, 44, 90
5, 122496, Note_on_c, 9, 59, 49
5, 122624, Note_on_c, 9, 59, 0
5, 122752, Note_on_c, 9, 51, 65
5, 122880, Note_on_c, 9, 44, 0
5, 122880, Note_on_c, 9, 51, 0
5, 122880, Note_on_c, 9, 51, 37
5, 123008, Note_on_c, 9, 51, 0
5, 123264, Note_on_c, 9, 44, 94
5, 123264, Note_on_c, 9, 51, 69
5, 123392, Note_on_c, 9, 51, 0
5, 123518, Note_on_c, 9, 50, 12
5, 123560, Note_on_c, 9, 50, 0
5, 123648, Note_on_c, 9, 44, 0
5, 123648, Note_on_c, 9, 51, 69
5, 123904, Note_on_c, 9, 51, 0
5, 124032, Note_on_c, 9, 44, 99
5, 124032, Note_on_c, 9, 51, 70
5, 124068, Note_on_c, 9, 36, 15
5, 124124, Note_on_c, 9, 36, 0
5, 124288, Note_on_c, 9, 51, 0
5, 124288, Note_on_c, 9, 51, 43
5, 124322, Note_on_c, 9, 36, 12
5, 124358, Note_on_c, 9, 36, 0
5, 124416, Note_on_c, 9, 44, 0
5, 124416, Note_on_c, 9, 51, 0
5, 124416, Note_on_c, 9, 51, 59
5, 124544, Note_on_c, 9, 51, 0
5, 124800, Note_on_c, 9, 51, 66
5, 124800, Note_on_c, 9, 44, 96
5, 124844, Note_on_c, 9, 50, 0
5, 124900, Note_on_c, 9, 50, 0
5, 124928, Note_on_c, 9, 51, 0
5, 125056, Note_on_c, 9, 51, 39
5, 125090, Note_on_c, 9, 50, 9
5, 125120, Note_on_c, 9, 50, 0
5, 125184, Note_on_c, 9, 44, 0
5, 125184, Note_on_c, 9, 51, 0
5, 125184, Note_on_c, 9, 51, 53
5, 125440, Note_on_c, 9, 51, 0
5, 125488, Note_on_c, 9, 36, 0
5, 125516, Note_on_c, 9, 36, 0
5, 125568, Note_on_c, 9, 44, 97
5, 125568, Note_on_c, 9, 51, 67
5, 125590, Note_on_c, 9, 36, 15
5, 125696, Note_on_c, 9, 51, 0
5, 125744, Note_on_c, 9, 36, 0
5, 125838, Note_on_c, 9, 36, 16
5, 125904, Note_on_c, 9, 36, 0
5, 125952, Note_on_c, 9, 44, 0
5, 125952, Note_on_c, 9, 51, 22
5, 125952, Note_on_c, 9, 51, 50
5, 126080, Note_on_c, 9, 51, 0
5, 126208, Note_on_c, 9, 51, 0
5, 126336, Note_on_c, 9, 51, 64
5, 126336, Note_on_c, 9, 44, 91
5, 126580, Note_on_c, 9, 50, 29
5, 126592, Note_on_c, 9, 51, 0
5, 126646, Note_on_c, 9, 50, 0
5, 126720, Note_on_c, 9, 44, 0
5, 126720, Note_on_c, 9, 51, 44
5, 126720, Note_on_c, 9, 51, 60
5, 126848, Note_on_c, 9, 51, 0
5, 126848, Note_on_c, 9, 51, 0
5, 127094, Note_on_c, 9, 36, 6
5, 127104, Note_on_c, 9, 44, 94
5, 127104, Note_on_c, 9, 51, 59
5, 127144, Note_on_c, 9, 36, 0
5, 127232, Note_on_c, 9, 51, 0
5, 127360, Note_on_c, 9, 51, 39
5, 127368, Note_on_c, 9, 36, 8
5, 127410, Note_on_c, 9, 36, 0
5, 127488, Note_on_c, 9, 44, 0
5, 127488, Note_on_c, 9, 51, 0
5, 127488, Note_on_c, 9, 51, 49
5, 127744, Note_on_c, 9, 51, 0
5, 127872, Note_on_c, 9, 51, 64
5, 127872, Note_on_c, 9, 44, 93
5, 128000, Note_on_c, 9, 51, 0
5, 128256, Note_on_c, 9, 44, 0
5, 128256, Note_on_c, 9, 51, 63
5, 128384, Note_on_c, 9, 51, 0
5, 128516, Note_on_c, 9, 40, 37
5, 128574, Note_on_c, 9, 40, 0
5, 128640, Note_on_c, 9, 44, 96
5, 128640, Note_on_c, 9, 51, 61
5, 128768, Note_on_c, 9, 51, 0
5, 128878, Note_on_c, 9, 40, 37
5, 128896, Note_on_c, 9, 51, 37
5, 128954, Note_on_c, 9, 40, 0
5, 129018, Note_on_c, 9, 36, 8
5, 129024, Note_on_c, 9, 44, 0
5, 129024, Note_on_c, 9, 51, 0
5, 129024, Note_on_c, 9, 51, 33
5, 129068, Note_on_c, 9, 36, 0
5, 129152, Note_on_c, 9, 51, 0
5, 129408, Note_on_c, 9, 51, 62
5, 129408, Note_on_c, 9, 44, 90
5, 129536, Note_on_c, 9, 51, 0
5, 129664, Note_on_c, 9, 51, 40
5, 129792, Note_on_c, 9, 44, 0
5, 129792, Note_on_c, 9, 51, 0
5, 129792, Note_on_c, 9, 51, 51
5, 129920, Note_on_c, 9, 51, 0
5, 130176, Note_on_c, 9, 44, 98
5, 130176, Note_on_c, 9, 51, 63
5, 130304, Note_on_c, 9, 51, 0
5, 130560, Note_on_c, 9, 44, 0
5, 130560, Note_on_c, 9, 51, 66
5, 130688, Note_on_c, 9, 51, 0
5, 130844, Note_on_c, 9, 37, 32
5, 130932, Note_on_c, 9, 37, 0
5, 130944, Note_on_c, 9, 51, 66
5, 130944, Note_on_c, 9, 44, 95
5, 131004, Note_on_c, 9, 36, 0
5, 131038, Note_on_c, 9, 36, 0
5, 131072, Note_on_c, 9, 51, 0
5, 131072, Note_on_c, 9, 51, 52
5, 131200, Note_on_c, 9, 51, 0
5, 131328, Note_on_c, 9, 44, 0
5, 131456, Note_on_c, 9, 51, 72
5, 131584, Note_on_c, 9, 51, 0
5, 131606, Note_on_c, 9, 37, 38
5, 131698, Note_on_c, 9, 37, 0
5, 131712, Note_on_c, 9, 44, 99
5, 131840, Note_on_c, 9, 51, 68
5, 131968, Note_on_c, 9, 51, 0
5, 131988, Note_on_c, 9, 57, 2
5, 132002, Note_on_c, 9, 36, 29
5, 132006, Note_on_c, 9, 37, 36
5, 132044, Note_on_c, 9, 57, 0
5, 132092, Note_on_c, 9, 37, 0
5, 132096, Note_on_c, 9, 44, 0
5, 132096, Note_on_c, 9, 51, 66
5, 132224, Note_on_c, 9, 51, 0
5, 132480, Note_on_c, 9, 44, 97
5, 132480, Note_on_c, 9, 51, 62
5, 132608, Note_on_c, 9, 51, 0
5, 132736, Note_on_c, 9, 51, 42
5, 132864, Note_on_c, 9, 44, 0
5, 132864, Note_on_c, 9, 51, 0
5, 132864, Note_on_c, 9, 51, 50
5, 132992, Note_on_c, 9, 51, 0
5, 133248, Note_on_c, 9, 51, 66
5, 133248, Note_on_c, 9, 44, 93
5, 133376, Note_on_c, 9, 51, 0
5, 133504, Note_on_c, 9, 51, 37
5, 133524, Note_on_c, 9, 36, 0
5, 133632, Note_on_c, 9, 44, 0
5, 133632, Note_on_c, 9, 51, 0
5, 133632, Note_on_c, 9, 51, 49
5, 133760, Note_on_c, 9, 51, 0
5, 134016, Note_on_c, 9, 44, 97
5, 134016, Note_on_c, 9, 51, 60
5, 134144, Note_on_c, 9, 51, 0
5, 134400, Note_on_c, 9, 44, 0
5, 134400, Note_on_c, 9, 51, 42
5, 134528, Note_on_c, 9, 51, 0
5, 134784, Note_on_c, 9, 46, 93
5, 134784, Note_on_c, 9, 51, 57
5, 134814, Note_on_c, 9, 37, 38
5, 134912, Note_on_c, 9, 51, 0
5, 135066, Note_on_c, 9, 57, 0
5, 135078, Note_on_c, 9, 36, 23
5, 135124, Note_on_c, 9, 37, 0
5, 135134, Note_on_c, 9, 57, 0
5, 135168, Note_on_c, 9, 46, 0
5, 135168, Note_on_c, 9, 51, 59
5, 135296, Note_on_c, 9, 51, 0
5, 135552, Note_on_c, 9, 51, 61
5, 135552, Note_on_c, 9, 44, 86
5, 135680, Note_on_c, 9, 51, 0
5, 135936, Note_on_c, 9, 44, 0
5, 135936, Note_on_c, 9, 51, 61
5, 136064, Note_on_c, 9, 51, 0
5, 136178, Note_on_c, 9, 36, 0
5, 136198, Note_on_c, 9, 37, 6
5, 136284, Note_on_c, 9, 37, 0
5, 136320, Note_on_c, 9, 44, 90
5, 136320, Note_on_c, 9, 51, 62
5, 136326, Note_on_c, 9, 36, 7
5, 136448, Note_on_c, 9, 51, 0
5, 136528, Note_on_c, 9, 36, 0
5, 136576, Note_on_c, 9, 51, 46
5, 136586, Note_on_c, 9, 36, 6
5, 136654, Note_on_c, 9, 36, 0
5, 136704, Note_on_c, 9, 44, 0
5, 136704, Note_on_c, 9, 51, 0
5, 136704, Note_on_c, 9, 51, 51
5, 136832, Note_on_c, 9, 51, 0
5, 137088, Note_on_c, 9, 44, 94
5, 137088, Note_on_c, 9, 51, 61
5, 137216, Note_on_c, 9, 51, 0
5, 137342, Note_on_c, 9, 37, 0
5, 137344, Note_on_c, 9, 51, 22
5, 137372, Note_on_c, 9, 37, 0
5, 137448, Note_on_c, 9, 40, 9
5, 137472, Note_on_c, 9, 44, 0
5, 137472, Note_on_c, 9, 51, 0
5, 137472, Note_on_c, 9, 51, 54
5, 137480, Note_on_c, 9, 40, 0
5, 137568, Note_on_c, 9, 40, 6
5, 137600, Note_on_c, 9, 51, 0
5, 137606, Note_on_c, 9, 40, 0
5, 137856, Note_on_c, 9, 44, 99
5, 137856, Note_on_c, 9, 51, 59
5, 137864, Note_on_c, 9, 40, 0
5, 137904, Note_on_c, 9, 40, 0
5, 137978, Note_on_c, 9, 40, 4
5, 138020, Note_on_c, 9, 40, 0
5, 138112, Note_on_c, 9, 51, 0
5, 138240, Note_on_c, 9, 44, 0
5, 138240, Note_on_c, 9, 51, 57
5, 138496, Note_on_c, 9, 51, 0
5, 138624, Note_on_c, 9, 51, 56
5, 138624, Note_on_c, 9, 44, 96
5, 138880, Note_on_c, 9, 51, 0
5, 138994, Note_on_c, 9, 40, 1
5, 139008, Note_on_c, 9, 44, 0
5, 139008, Note_on_c, 9, 51, 57
5, 139026, Note_on_c, 9, 40, 0
5, 139102, Note_on_c, 9, 40, 3
5, 139144, Note_on_c, 9, 40, 0
5, 139264, Note_on_c, 9, 51, 0
5, 139392, Note_on_c, 9, 51, 57
5, 139392, Note_on_c, 9, 44, 97
5, 139392, Note_on_c, 9, 40, 4
5, 139424, Note_on_c, 9, 40, 0
5, 139640, Note_on_c, 9, 40, 3
5, 139648, Note_on_c, 9, 51, 0
5, 139672, Note_on_c, 9, 40, 0
5, 139776, Note_on_c, 9, 44, 0
5, 139776, Note_on_c, 9, 51, 59
5, 139908, Note_on_c, 9, 40, 6
5, 139936, Note_on_c, 9, 40, 0
5, 140032, Note_on_c, 9, 51, 0
5, 140056, Note_on_c, 9, 36, 6
5, 140090, Note_on_c, 9, 36, 0
5, 140160, Note_on_c, 9, 51, 57
5, 140160, Note_on_c, 9, 44, 91
5, 140182, Note_on_c, 9, 40, 10
5, 140222, Note_on_c, 9, 40, 0
5, 140288, Note_on_c, 9, 51, 0
5, 140544, Note_on_c, 9, 44, 0
5, 140544, Note_on_c, 9, 51, 53
5, 140544, Note_on_c, 9, 51, 38
5, 140672, Note_on_c, 9, 51, 0
5, 140788, Note_on_c, 9, 40, 1
5, 140800, Note_on_c, 9, 51, 0
5, 140822, Note_on_c, 9, 40, 0
5, 140928, Note_on_c, 9, 44, 94
5, 140928, Note_on_c, 9, 51, 62
5, 141056, Note_on_c, 9, 51, 0
5, 141070, Note_on_c, 9, 40, 11
5, 141100, Note_on_c, 9, 40, 0
5, 141226, Note_on_c, 9, 36, 16
5, 141308, Note_on_c, 9, 36, 0
5, 141312, Note_on_c, 9, 44, 0
5, 141312, Note_on_c, 9, 51, 61
5, 141440, Note_on_c, 9, 51, 0
5, 141696, Note_on_c, 9, 51, 61
5, 141696, Note_on_c, 9, 44, 93
5, 141824, Note_on_c, 9, 51, 0
5, 142080, Note_on_c, 9, 44, 0
5, 142080, Note_on_c, 9, 51, 49
5, 142208, Note_on_c, 9, 51, 0
5, 142208, Note_on_c, 9, 51, 57
5, 142336, Note_on_c, 9, 51, 0
5, 142464, Note_on_c, 9, 51, 65
5, 142464, Note_on_c, 9, 44, 96
5, 142720, Note_on_c, 9, 51, 0
5, 142756, Note_on_c, 9, 36, 0
5, 142788, Note_on_c, 9, 36, 0
5, 142848, Note_on_c, 9, 44, 0
5, 142848, Note_on_c, 9, 51, 41
5, 142884, Note_on_c, 9, 36, 0
5, 142922, Note_on_c, 9, 36, 0
5, 142976, Note_on_c, 9, 51, 0
5, 142976, Note_on_c, 9, 51, 53
5, 143104, Note_on_c, 9, 51, 0
5, 143232, Note_on_c, 9, 44, 90
5, 143232, Note_on_c, 9, 51, 65
5, 143488, Note_on_c, 9, 51, 0
5, 143504, Note_on_c, 9, 36, 9
5, 143546, Note_on_c, 9, 36, 0
5, 143616, Note_on_c, 9, 44, 0
5, 143616, Note_on_c, 9, 51, 60
5, 143872, Note_on_c, 9, 51, 0
5, 143900, Note_on_c, 9, 36, 1
5, 143934, Note_on_c, 9, 36, 0
5, 144000, Note_on_c, 9, 44, 98
5, 144000, Note_on_c, 9, 51, 61
5, 144128, Note_on_c, 9, 51, 0
5, 144256, Note_on_c, 9, 51, 29
5, 144384, Note_on_c, 9, 44, 0
5, 144384, Note_on_c, 9, 51, 0
5, 144384, Note_on_c, 9, 51, 44
5, 144512, Note_on_c, 9, 51, 0
5, 144768, Note_on_c, 9, 51, 62
5, 144768, Note_on_c, 9, 44, 95
5, 144896, Note_on_c, 9, 51, 0
5, 145042, Note_on_c, 9, 36, 10
5, 145072, Note_on_c, 9, 36, 0
5, 145152, Note_on_c, 9, 44, 0
5, 145152, Note_on_c, 9, 51, 57
5, 145280, Note_on_c, 9, 51, 0
5, 145536, Note_on_c, 9, 44, 99
5, 145536, Note_on_c, 9, 51, 58
5, 145664, Note_on_c, 9, 51, 0
5, 145780, Note_on_c, 9, 37, 46
5, 145860, Note_on_c, 9, 37, 0
5, 145920, Note_on_c, 9, 44, 0
5, 145920, Note_on_c, 9, 51, 35
5, 145920, Note_on_c, 9, 51, 40
5, 145926, Note_on_c, 9, 36, 1
5, 146018, Note_on_c, 9, 36, 0
5, 146048, Note_on_c, 9, 51, 0
5, 146048, Note_on_c, 9, 51, 0
5, 146304, Note_on_c, 9, 51, 56
5, 146304, Note_on_c, 9, 44, 97
5, 146432, Note_on_c, 9, 51, 0
5, 146596, Note_on_c, 9, 36, 0
5, 146634, Note_on_c, 9, 36, 0
5, 146688, Note_on_c, 9, 44, 0
5, 146688, Note_on_c, 9, 51, 53
5, 146816, Note_on_c, 9, 51, 0
5, 147066, Note_on_c, 9, 40, 0
5, 147072, Note_on_c, 9, 51, 57
5, 147072, Note_on_c, 9, 44, 93
5, 147112, Note_on_c, 9, 40, 0
5, 147200, Note_on_c, 9, 51, 0
5, 147340, Note_on_c, 9, 40, 10
5, 147370, Note_on_c, 9, 40, 0
5, 147456, Note_on_c, 9, 44, 0
5, 147456, Note_on_c, 9, 51, 43
5, 147456, Note_on_c, 9, 51, 41
5, 147462, Note_on_c, 9, 40, 1
5, 147508, Note_on_c, 9, 40, 0
5, 147584, Note_on_c, 9, 51, 0
5, 147712, Note_on_c, 9, 51, 0
5, 147840, Note_on_c, 9, 51, 58
5, 147840, Note_on_c, 9, 44, 97
5, 147968, Note_on_c, 9, 51, 0
5, 148224, Note_on_c, 9, 44, 0
5, 148224, Note_on_c, 9, 51, 58
5, 148224, Note_on_c, 9, 40, 0
5, 148272, Note_on_c, 9, 40, 0
5, 148480, Note_on_c, 9, 51, 0
5, 148484, Note_on_c, 9, 37, 27
5, 148602, Note_on_c, 9, 37, 0
5, 148608, Note_on_c, 9, 51, 56
5, 148608, Note_on_c, 9, 46, 93
5, 148736, Note_on_c, 9, 51, 0
5, 148992, Note_on_c, 9, 46, 0
5, 148992, Note_on_c, 9, 51, 42
5, 148992, Note_on_c, 9, 51, 39
5, 149120, Note_on_c, 9, 51, 0
5, 149120, Note_on_c, 9, 51, 0
5, 149376, Note_on_c, 9, 44, 86
5, 149376, Note_on_c, 9, 51, 56
5, 149504, Note_on_c, 9, 51, 0
5, 149632, Note_on_c, 9, 51, 34
5, 149654, Note_on_c, 9, 40, 0
5, 149688, Note_on_c, 9, 40, 0
5, 149748, Note_on_c, 9, 40, 7
5, 149760, Note_on_c, 9, 44, 0
5, 149760, Note_on_c, 9, 51, 0
5, 149760, Note_on_c, 9, 51, 36
5, 149786, Note_on_c, 9, 40, 0
5, 149888, Note_on_c, 9, 51, 0
5, 150144, Note_on_c, 9, 51, 59
5, 150144, Note_on_c, 9, 44, 90
5, 150272, Note_on_c, 9, 51, 0
5, 150400, Note_on_c, 9, 51, 46
5, 150410, Note_on_c, 9, 36, 6
5, 150448, Note_on_c, 9, 36, 0
5, 150528, Note_on_c, 9, 44, 0
5, 150528, Note_on_c, 9, 51, 0
5, 150528, Note_on_c, 9, 51, 46
5, 150554, Note_on_c, 9, 36, 0
5, 150606, Note_on_c, 9, 36, 0
5, 150656, Note_on_c, 9, 51, 0
5, 150912, Note_on_c, 9, 44, 94
5, 150912, Note_on_c, 9, 51, 56
5, 151040, Note_on_c, 9, 51, 0
5, 151166, Note_on_c, 9, 36, 13
5, 151214, Note_on_c, 9, 36, 0
5, 151294, Note_on_c, 9, 36, 3
5, 151296, Note_on_c, 9, 44, 0
5, 151296, Note_on_c, 9, 51, 60
5, 151342, Note_on_c, 9, 36, 0
5, 151424, Note_on_c, 9, 51, 0
5, 151552, Note_on_c, 9, 53, 59
5, 151680, Note_on_c, 9, 53, 0
5, 151680, Note_on_c, 9, 51, 37
5, 151680, Note_on_c, 9, 44, 99
5, 151808, Note_on_c, 9, 51, 0
5, 151912, Note_on_c, 9, 36, 12
5, 151960, Note_on_c, 9, 36, 0
5, 152064, Note_on_c, 9, 44, 0
5, 152064, Note_on_c, 9, 51, 51
5, 152192, Note_on_c, 9, 51, 0
5, 152320, Note_on_c, 9, 53, 63
5, 152448, Note_on_c, 9, 53, 0
5, 152448, Note_on_c, 9, 51, 26
5, 152448, Note_on_c, 9, 44, 96
5, 152576, Note_on_c, 9, 51, 0
5, 152700, Note_on_c, 9, 36, 15
5, 152766, Note_on_c, 9, 36, 0
5, 152832, Note_on_c, 9, 44, 0
5, 152832, Note_on_c, 9, 51, 45
5, 152960, Note_on_c, 9, 51, 0
5, 153088, Note_on_c, 9, 53, 61
5, 153088, Note_on_c, 9, 36, 19
5, 153160, Note_on_c, 9, 36, 0
5, 153216, Note_on_c, 9, 53, 0
5, 153216, Note_on_c, 9, 51, 21
5, 153216, Note_on_c, 9, 44, 97
5, 153344, Note_on_c, 9, 51, 0
5, 153472, Note_on_c, 9, 51, 61
5, 153472, Note_on_c, 9, 57, 7
5, 153474, Note_on_c, 9, 37, 37
5, 153600, Note_on_c, 9, 44, 0
5, 153602, Note_on_c, 9, 37, 0
5, 153612, Note_on_c, 9, 57, 0
5, 153614, Note_on_c, 9, 36, 17
5, 153678, Note_on_c, 9, 57, 0
5, 153688, Note_on_c, 9, 36, 0
5, 153728, Note_on_c, 9, 51, 0
5, 153728, Note_on_c, 9, 57, 0
5, 153984, Note_on_c, 9, 44, 91
5, 153984, Note_on_c, 9, 51, 18
5, 154112, Note_on_c, 9, 51, 0
5, 154240, Note_on_c, 9, 51, 28
5, 154368, Note_on_c, 9, 44, 0
5, 154368, Note_on_c, 9, 51, 0
5, 154368, Note_on_c, 9, 51, 34
5, 154496, Note_on_c, 9, 51, 0
5, 154624, Note_on_c, 9, 51, 66
5, 154624, Note_on_c, 9, 57, 9
5, 154644, Note_on_c, 9, 37, 7
5, 154698, Note_on_c, 9, 37, 0
5, 154752, Note_on_c, 9, 44, 94
5, 154784, Note_on_c, 9, 36, 3
5, 154880, Note_on_c, 9, 57, 0
5, 155008, Note_on_c, 9, 51, 0
5, 155136, Note_on_c, 9, 44, 0
5, 155136, Note_on_c, 9, 51, 16
5, 155392, Note_on_c, 9, 51, 0
5, 155520, Note_on_c, 9, 44, 93
5, 155520, Note_on_c, 9, 51, 39
5, 155566, Note_on_c, 9, 36, 0
5, 155648, Note_on_c, 9, 51, 0
5, 155776, Note_on_c, 9, 51, 32
5, 155806, Note_on_c, 9, 36, 6
5, 155866, Note_on_c, 9, 36, 0
5, 155904, Note_on_c, 9, 44, 0
5, 155904, Note_on_c, 9, 51, 0
5, 155904, Note_on_c, 9, 51, 39
5, 155952, Note_on_c, 9, 36, 0
5, 156006, Note_on_c, 9, 36, 0
5, 156160, Note_on_c, 9, 51, 0
5, 156288, Note_on_c, 9, 44, 96
5, 156288, Note_on_c, 9, 51, 44
5, 156416, Note_on_c, 9, 51, 0
5, 156544, Note_on_c, 9, 51, 26
5, 156554, Note_on_c, 9, 36, 16
5, 156616, Note_on_c, 9, 36, 0
5, 156672, Note_on_c, 9, 44, 0
5, 156672, Note_on_c, 9, 51, 0
5, 156672, Note_on_c, 9, 51, 35
5, 156800, Note_on_c, 9, 51, 0
5, 157056, Note_on_c, 9, 44, 90
5, 157056, Note_on_c, 9, 51, 44
5, 157312, Note_on_c, 9, 51, 0
5, 157312, Note_on_c, 9, 51, 12
5, 157440, Note_on_c, 9, 44, 0
5, 157440, Note_on_c, 9, 51, 0
5, 157440, Note_on_c, 9, 51, 44
5, 157696, Note_on_c, 9, 51, 0
5, 157812, Note_on_c, 9, 37, 55
5, 157824, Note_on_c, 9, 44, 98
5, 157824, Note_on_c, 9, 51, 53
5, 157930, Note_on_c, 9, 37, 0
5, 157952, Note_on_c, 9, 51, 0
5, 158208, Note_on_c, 9, 44, 0
5, 158208, Note_on_c, 9, 51, 49
5, 158336, Note_on_c, 9, 51, 0
5, 158592, Note_on_c, 9, 44, 95
5, 158592, Note_on_c, 9, 51, 53
5, 158720, Note_on_c, 9, 51, 0
5, 158848, Note_on_c, 9, 51, 37
5, 158850, Note_on_c, 9, 36, 0
5, 158890, Note_on_c, 9, 36, 0
5, 158976, Note_on_c, 9, 44, 0
5, 158976, Note_on_c, 9, 51, 0
5, 158976, Note_on_c, 9, 51, 47
5, 159104, Note_on_c, 9, 51, 0
5, 159264, Note_on_c, 9, 36, 0
5, 159300, Note_on_c, 9, 36, 0
5, 159360, Note_on_c, 9, 44, 99
5, 159360, Note_on_c, 9, 51, 54
5, 159370, Note_on_c, 9, 37, 66
5, 159488, Note_on_c, 9, 51, 0
5, 159518, Note_on_c, 9, 37, 0
5, 159616, Note_on_c, 9, 51, 30
5, 159744, Note_on_c, 9, 44, 0
5, 159744, Note_on_c, 9, 51, 0
5, 159744, Note_on_c, 9, 51, 44
5, 160000, Note_on_c, 9, 51, 0
5, 160128, Note_on_c, 9, 44, 97
5, 160128, Note_on_c, 9, 51, 59
5, 160256, Note_on_c, 9, 51, 0
5, 160384, Note_on_c, 9, 51, 39
5, 160512, Note_on_c, 9, 44, 0
5, 160512, Note_on_c, 9, 51, 0
5, 160512, Note_on_c, 9, 51, 51
5, 160640, Note_on_c, 9, 51, 0
5, 160896, Note_on_c, 9, 51, 56
5, 160896, Note_on_c, 9, 44, 93
5, 160900, Note_on_c, 9, 37, 64
5, 161024, Note_on_c, 9, 51, 0
5, 161028, Note_on_c, 9, 37, 0
5, 161280, Note_on_c, 9, 44, 0
5, 161280, Note_on_c, 9, 51, 46
5, 161280, Note_on_c, 9, 51, 29
5, 161408, Note_on_c, 9, 51, 0
5, 161536, Note_on_c, 9, 51, 0
5, 161660, Note_on_c, 9, 36, 0
5, 161664, Note_on_c, 9, 44, 97
5, 161664, Note_on_c, 9, 51, 56
5, 161696, Note_on_c, 9, 36, 0
5, 161920, Note_on_c, 9, 51, 0
5, 161920, Note_on_c, 9, 51, 30
5, 161930, Note_on_c, 9, 36, 25
5, 162022, Note_on_c, 9, 36, 0
5, 162048, Note_on_c, 9, 44, 0
5, 162048, Note_on_c, 9, 51, 0
5, 162048, Note_on_c, 9, 51, 49
5, 162176, Note_on_c, 9, 51, 0
5, 162432, Note_on_c, 9, 51, 58
5, 162432, Note_on_c, 9, 46, 93
5, 162444, Note_on_c, 9, 37, 60
5, 162560, Note_on_c, 9, 51, 0
5, 162574, Note_on_c, 9, 37, 0
5, 162688, Note_on_c, 9, 51, 32
5, 162816, Note_on_c, 9, 46, 0
5, 162816, Note_on_c, 9, 51, 0
5, 162816, Note_on_c, 9, 51, 46
5, 163072, Note_on_c, 9, 51, 0
5, 163200, Note_on_c, 9, 44, 86
5, 163200, Note_on_c, 9, 51, 56
5, 163328, Note_on_c, 9, 51, 0
5, 163462, Note_on_c, 9, 36, 3
5, 163494, Note_on_c, 9, 36, 0
5, 163584, Note_on_c, 9, 44, 0
5, 163584, Note_on_c, 9, 51, 56
5, 163712, Note_on_c, 9, 51, 0
5, 163968, Note_on_c, 9, 51, 61
5, 163968, Note_on_c, 9, 44, 90
5, 163982, Note_on_c, 9, 37, 36
5, 164096, Note_on_c, 9, 51, 0
5, 164148, Note_on_c, 9, 37, 0
5, 164228, Note_on_c, 9, 37, 50
5, 164352, Note_on_c, 9, 44, 0
5, 164352, Note_on_c, 9, 51, 60
5, 164354, Note_on_c, 9, 37, 0
5, 164480, Note_on_c, 9, 51, 0
5, 164736, Note_on_c, 9, 51, 56
5, 164736, Note_on_c, 9, 44, 94
5, 164746, Note_on_c, 9, 36, 10
5, 164832, Note_on_c, 9, 36, 0
5, 164864, Note_on_c, 9, 51, 0
5, 165120, Note_on_c, 9, 44, 0
5, 165120, Note_on_c, 9, 51, 58
5, 165248, Note_on_c, 9, 51, 0
5, 165496, Note_on_c, 9, 37, 45
5, 165504, Note_on_c, 9, 51, 59
5, 165504, Note_on_c, 9, 44, 99
5, 165632, Note_on_c, 9, 51, 0
5, 165664, Note_on_c, 9, 37, 0
5, 165742, Note_on_c, 9, 37, 45
5, 165760, Note_on_c, 9, 51, 26
5, 165860, Note_on_c, 9, 37, 0
5, 165888, Note_on_c, 9, 44, 0
5, 165888, Note_on_c, 9, 51, 0
5, 165888, Note_on_c, 9, 51, 53
5, 166016, Note_on_c, 9, 51, 0
5, 166258, Note_on_c, 9, 36, 8
5, 166272, Note_on_c, 9, 44, 96
5, 166272, Note_on_c, 9, 51, 59
5, 166320, Note_on_c, 9, 36, 0
5, 166400, Note_on_c, 9, 51, 0
5, 166656, Note_on_c, 9, 44, 0
5, 166656, Note_on_c, 9, 51, 57
5, 166784, Note_on_c, 9, 51, 0
5, 167004, Note_on_c, 9, 37, 57
5, 167040, Note_on_c, 9, 51, 58
5, 167040, Note_on_c, 9, 44, 97
5, 167156, Note_on_c, 9, 37, 0
5, 167168, Note_on_c, 9, 51, 0
5, 167424, Note_on_c, 9, 44, 0
5, 167424, Note_on_c, 9, 51, 59
5, 167552, Note_on_c, 9, 51, 0
5, 167808, Note_on_c, 9, 51, 56
5, 167808, Note_on_c, 9, 44, 91
5, 167936, Note_on_c, 9, 51, 0
5, 168064, Note_on_c, 9, 51, 24
5, 168192, Note_on_c, 9, 44, 0
5, 168192, Note_on_c, 9, 51, 0
5, 168192, Note_on_c, 9, 51, 36
5, 168320, Note_on_c, 9, 51, 0
5, 168576, Note_on_c, 9, 44, 94
5, 168576, Note_on_c, 9, 51, 55
5, 168580, Note_on_c, 9, 37, 62
5, 168704, Note_on_c, 9, 51, 0
5, 168728, Note_on_c, 9, 37, 0
5, 168960, Note_on_c, 9, 44, 0
5, 168960, Note_on_c, 9, 51, 57
5, 169088, Note_on_c, 9, 51, 0
5, 169344, Note_on_c, 9, 51, 54
5, 169344, Note_on_c, 9, 44, 93
5, 169472, Note_on_c, 9, 51, 0
5, 169652, Note_on_c, 9, 36, 0
5, 169688, Note_on_c, 9, 36, 0
5, 169728, Note_on_c, 9, 44, 0
5, 169728, Note_on_c, 9, 51, 61
5, 169766, Note_on_c, 9, 36, 0
5, 169800, Note_on_c, 9, 36, 0
5, 169856, Note_on_c, 9, 51, 0
5, 170112, Note_on_c, 9, 44, 96
5, 170112, Note_on_c, 9, 51, 58
5, 170142, Note_on_c, 9, 37, 64
5, 170240, Note_on_c, 9, 51, 0
5, 170302, Note_on_c, 9, 37, 0
5, 170368, Note_on_c, 9, 51, 26
5, 170496, Note_on_c, 9, 44, 0
5, 170496, Note_on_c, 9, 51, 0
5, 170496, Note_on_c, 9, 51, 46
5, 170624, Note_on_c, 9, 51, 0
5, 170880, Note_on_c, 9, 51, 64
5, 170880, Note_on_c, 9, 44, 90
5, 171008, Note_on_c, 9, 51, 0
5, 171122, Note_on_c, 9, 36, 0
5, 171136, Note_on_c, 9, 51, 37
5, 171162, Note_on_c, 9, 36, 0
5, 171262, Note_on_c, 9, 36, 0
5, 171264, Note_on_c, 9, 44, 0
5, 171264, Note_on_c, 9, 51, 0
5, 171264, Note_on_c, 9, 51, 51
5, 171300, Note_on_c, 9, 36, 0
5, 171392, Note_on_c, 9, 51, 0
5, 171648, Note_on_c, 9, 44, 98
5, 171648, Note_on_c, 9, 51, 61
5, 171662, Note_on_c, 9, 37, 65
5, 171752, Note_on_c, 9, 37, 0
5, 171776, Note_on_c, 9, 51, 0
5, 171904, Note_on_c, 9, 51, 30
5, 172032, Note_on_c, 9, 44, 0
5, 172032, Note_on_c, 9, 51, 0
5, 172032, Note_on_c, 9, 51, 52
5, 172160, Note_on_c, 9, 51, 0
5, 172416, Note_on_c, 9, 44, 95
5, 172416, Note_on_c, 9, 51, 59
5, 172544, Note_on_c, 9, 51, 0
5, 172706, Note_on_c, 9, 36, 0
5, 172736, Note_on_c, 9, 36, 0
5, 172800, Note_on_c, 9, 44, 0
5, 172800, Note_on_c, 9, 51, 57
5, 172928, Note_on_c, 9, 51, 0
5, 173184, Note_on_c, 9, 44, 99
5, 173184, Note_on_c, 9, 51, 59
5, 173210, Note_on_c, 9, 37, 62
5, 173312, Note_on_c, 9, 51, 0
5, 173322, Note_on_c, 9, 37, 0
5, 173440, Note_on_c, 9, 51, 38
5, 173568, Note_on_c, 9, 44, 0
5, 173568, Note_on_c, 9, 51, 0
5, 173568, Note_on_c, 9, 51, 47
5, 173696, Note_on_c, 9, 51, 0
5, 173952, Note_on_c, 9, 51, 55
5, 173952, Note_on_c, 9, 44, 97
5, 174080, Note_on_c, 9, 51, 0
5, 174208, Note_on_c, 9, 51, 29
5, 174336, Note_on_c, 9, 44, 0
5, 174336, Note_on_c, 9, 51, 0
5, 174336, Note_on_c, 9, 51, 46
5, 174464, Note_on_c, 9, 51, 0
5, 174710, Note_on_c, 9, 37, 62
5, 174720, Note_on_c, 9, 51, 61
5, 174720, Note_on_c, 9, 44, 93
5, 174848, Note_on_c, 9, 51, 0
5, 174854, Note_on_c, 9, 37, 0
5, 174976, Note_on_c, 9, 51, 39
5, 175104, Note_on_c, 9, 44, 0
5, 175104, Note_on_c, 9, 51, 0
5, 175104, Note_on_c, 9, 51, 51
5, 175232, Note_on_c, 9, 51, 0
5, 175488, Note_on_c, 9, 51, 59
5, 175488, Note_on_c, 9, 44, 97
5, 175616, Note_on_c, 9, 51, 0
5, 175744, Note_on_c, 9, 51, 28
5, 175872, Note_on_c, 9, 44, 0
5, 175872, Note_on_c, 9, 51, 0
5, 175872, Note_on_c, 9, 51, 47
5, 176000, Note_on_c, 9, 51, 0
5, 176256, Note_on_c, 9, 51, 65
5, 176256, Note_on_c, 9, 46, 93
5, 176260, Note_on_c, 9, 37, 64
5, 176384, Note_on_c, 9, 51, 0
5, 176406, Note_on_c, 9, 37, 0
5, 176512, Note_on_c, 9, 51, 41
5, 176640, Note_on_c, 9, 46, 0
5, 176640, Note_on_c, 9, 51, 0
5, 176640, Note_on_c, 9, 51, 50
5, 176768, Note_on_c, 9, 51, 0
5, 177024, Note_on_c, 9, 44, 86
5, 177024, Note_on_c, 9, 51, 62
5, 177152, Note_on_c, 9, 51, 0
5, 177280, Note_on_c, 9, 51, 42
5, 177288, Note_on_c, 9, 37, 38
5, 177340, Note_on_c, 9, 37, 0
5, 177408, Note_on_c, 9, 44, 0
5, 177408, Note_on_c, 9, 51, 0
5, 177408, Note_on_c, 9, 51, 41
5, 177412, Note_on_c, 9, 37, 38
5, 177516, Note_on_c, 9, 37, 0
5, 177536, Note_on_c, 9, 51, 0
5, 177666, Note_on_c, 9, 36, 30
5, 177792, Note_on_c, 9, 44, 90
5, 177792, Note_on_c, 9, 51, 53
5, 177920, Note_on_c, 9, 51, 0
5, 177986, Note_on_c, 9, 36, 0
5, 178048, Note_on_c, 9, 51, 44
5, 178176, Note_on_c, 9, 44, 0
5, 178176, Note_on_c, 9, 51, 0
5, 178178, Note_on_c, 9, 36, 19
5, 178316, Note_on_c, 9, 36, 0
5, 178560, Note_on_c, 9, 44, 94
5, 178560, Note_on_c, 9, 51, 49
5, 178688, Note_on_c, 9, 51, 0
5, 178944, Note_on_c, 9, 44, 0
5, 178944, Note_on_c, 9, 51, 41
5, 179072, Note_on_c, 9, 51, 0
5, 179264, Note_on_c, 9, 37, 0
5, 179292, Note_on_c, 9, 37, 0
5, 179328, Note_on_c, 9, 44, 99
5, 179328, Note_on_c, 9, 51, 40
5, 179352, Note_on_c, 9, 38, 26
5, 179380, Note_on_c, 9, 38, 0
5, 179456, Note_on_c, 9, 51, 0
5, 179584, Note_on_c, 9, 51, 51
5, 179712, Note_on_c, 9, 44, 0
5, 179712, Note_on_c, 9, 51, 0
5, 179712, Note_on_c, 9, 51, 49
5, 179968, Note_on_c, 9, 51, 0
5, 180096, Note_on_c, 9, 44, 96
5, 180096, Note_on_c, 9, 51, 59
5, 180224, Note_on_c, 9, 51, 0
5, 180480, Note_on_c, 9, 44, 0
5, 180480, Note_on_c, 9, 51, 50
5, 180608, Note_on_c, 9, 51, 0
5, 180864, Note_on_c, 9, 51, 59
5, 180864, Note_on_c, 9, 44, 97
5, 180992, Note_on_c, 9, 51, 0
5, 181120, Note_on_c, 9, 51, 38
5, 181248, Note_on_c, 9, 44, 0
5, 181248, Note_on_c, 9, 51, 0
5, 181248, Note_on_c, 9, 51, 44
5, 181504, Note_on_c, 9, 51, 0
5, 181632, Note_on_c, 9, 51, 65
5, 181632, Note_on_c, 9, 44, 91
5, 181760, Note_on_c, 9, 51, 0
5, 181888, Note_on_c, 9, 51, 38
5, 182016, Note_on_c, 9, 44, 0
5, 182016, Note_on_c, 9, 51, 0
5, 182016, Note_on_c, 9, 51, 53
5, 182020, Note_on_c, 9, 37, 20
5, 182142, Note_on_c, 9, 37, 0
5, 182272, Note_on_c, 9, 51, 0
5, 182400, Note_on_c, 9, 51, 67
5, 182400, Note_on_c, 9, 44, 94
5, 182408, Note_on_c, 9, 37, 16
5, 182528, Note_on_c, 9, 51, 0
5, 182564, Note_on_c, 9, 37, 0
5, 182656, Note_on_c, 9, 51, 37
5, 182784, Note_on_c, 9, 44, 0
5, 182784, Note_on_c, 9, 51, 0
5, 182784, Note_on_c, 9, 51, 44
5, 183040, Note_on_c, 9, 51, 0
5, 183168, Note_on_c, 9, 51, 64
5, 183168, Note_on_c, 9, 44, 93
5, 183296, Note_on_c, 9, 51, 0
5, 183552, Note_on_c, 9, 44, 0
5, 183552, Note_on_c, 9, 51, 52
5, 183680, Note_on_c, 9, 51, 0
5, 183936, Note_on_c, 9, 44, 96
5, 183936, Note_on_c, 9, 51, 65
5, 184064, Note_on_c, 9, 51, 0
5, 184192, Note_on_c, 9, 51, 37
5, 184214, Note_on_c, 9, 37, 0
5, 184242, Note_on_c, 9, 37, 0
5, 184320, Note_on_c, 9, 44, 0
5, 184320, Note_on_c, 9, 51, 0
5, 184320, Note_on_c, 9, 51, 39
5, 184324, Note_on_c, 9, 37, 15
5, 184378, Note_on_c, 9, 37, 0
5, 184576, Note_on_c, 9, 51, 0
5, 184704, Note_on_c, 9, 51, 59
5, 184704, Note_on_c, 9, 44, 90
5, 184832, Note_on_c, 9, 51, 0
5, 184960, Note_on_c, 9, 51, 38
5, 185088, Note_on_c, 9, 44, 0
5, 185088, Note_on_c, 9, 51, 0
5, 185088, Note_on_c, 9, 51, 27
5, 185216, Note_on_c, 9, 51, 0
5, 185344, Note_on_c, 9, 51, 47
5, 185348, Note_on_c, 9, 37, 22
5, 185438, Note_on_c, 9, 37, 0
5, 185472, Note_on_c, 9, 51, 0
5, 185472, Note_on_c, 9, 51, 58
5, 185472, Note_on_c, 9, 44, 98
5, 185494, Note_on_c, 9, 36, 0
5, 185656, Note_on_c, 9, 36, 0
5, 185728, Note_on_c, 9, 51, 0
5, 185856, Note_on_c, 9, 44, 0
5, 185856, Note_on_c, 9, 51, 18
5, 185984, Note_on_c, 9, 51, 0
5, 186112, Note_on_c, 9, 51, 26
5, 186240, Note_on_c, 9, 51, 0
5, 186240, Note_on_c, 9, 44, 95
5, 186240, Note_on_c, 9, 51, 61
5, 186368, Note_on_c, 9, 51, 0
5, 186620, Note_on_c, 9, 37, 25
5, 186624, Note_on_c, 9, 44, 0
5, 186624, Note_on_c, 9, 51, 34
5, 186682, Note_on_c, 9, 37, 0
5, 186752, Note_on_c, 9, 51, 0
5, 186880, Note_on_c, 9, 51, 25
5, 187008, Note_on_c, 9, 51, 0
5, 187008, Note_on_c, 9, 51, 65
5, 187008, Note_on_c, 9, 44, 99
5, 187136, Note_on_c, 9, 51, 0
5, 187256, Note_on_c, 9, 37, 17
5, 187284, Note_on_c, 9, 37, 0
5, 187392, Note_on_c, 9, 44, 0
5, 187392, Note_on_c, 9, 51, 20
5, 187520, Note_on_c, 9, 51, 0
5, 187648, Note_on_c, 9, 51, 34
5, 187776, Note_on_c, 9, 51, 0
5, 187776, Note_on_c, 9, 51, 63
5, 187776, Note_on_c, 9, 44, 97
5, 188032, Note_on_c, 9, 51, 0
5, 188160, Note_on_c, 9, 44, 0
5, 188160, Note_on_c, 9, 51, 28
5, 188288, Note_on_c, 9, 51, 0
5, 188400, Note_on_c, 9, 37, 10
5, 188462, Note_on_c, 9, 37, 0
5, 188544, Note_on_c, 9, 44, 93
5, 188544, Note_on_c, 9, 51, 41
5, 188564, Note_on_c, 9, 36, 0
5, 188672, Note_on_c, 9, 51, 0
5, 188706, Note_on_c, 9, 36, 0
5, 188800, Note_on_c, 9, 53, 56
5, 188928, Note_on_c, 9, 44, 0
5, 188928, Note_on_c, 9, 53, 0
5, 188928, Note_on_c, 9, 51, 36
5, 189056, Note_on_c, 9, 51, 0
5, 189178, Note_on_c, 9, 37, 23
5, 189184, Note_on_c, 9, 53, 70
5, 189268, Note_on_c, 9, 37, 0
5, 189312, Note_on_c, 9, 53, 0
5, 189312, Note_on_c, 9, 51, 14
5, 189312, Note_on_c, 9, 44, 97
5, 189332, Note_on_c, 9, 36, 0
5, 189406, Note_on_c, 9, 36, 0
5, 189568, Note_on_c, 9, 51, 0
5, 189696, Note_on_c, 9, 44, 0
5, 189696, Note_on_c, 9, 51, 28
5, 189918, Note_on_c, 9, 40, 3
5, 189952, Note_on_c, 9, 51, 0
5, 189952, Note_on_c, 9, 40, 0
5, 190012, Note_on_c, 9, 37, 7
5, 190080, Note_on_c, 9, 46, 93
5, 190080, Note_on_c, 9, 51, 49
5, 190208, Note_on_c, 9, 51, 0
5, 190220, Note_on_c, 9, 37, 0
5, 190336, Note_on_c, 9, 51, 36
5, 190464, Note_on_c, 9, 46, 0
5, 190464, Note_on_c, 9, 51, 0
5, 190464, Note_on_c, 9, 51, 50
5, 190720, Note_on_c, 9, 51, 0
5, 190848, Note_on_c, 9, 51, 49
5, 190848, Note_on_c, 9, 44, 86
5, 191104, Note_on_c, 9, 51, 0
5, 191232, Note_on_c, 9, 44, 0
5, 191232, Note_on_c, 9, 51, 31
5, 191232, Note_on_c, 9, 51, 53
5, 191360, Note_on_c, 9, 51, 0
5, 191488, Note_on_c, 9, 51, 0
5, 191506, Note_on_c, 9, 36, 0
5, 191536, Note_on_c, 9, 36, 0
5, 191616, Note_on_c, 9, 44, 90
5, 191616, Note_on_c, 9, 51, 53
5, 191872, Note_on_c, 9, 51, 0
5, 192000, Note_on_c, 9, 44, 0
5, 192000, Note_on_c, 9, 51, 55
5, 192256, Note_on_c, 9, 51, 0
5, 192276, Note_on_c, 9, 36, 0
5, 192310, Note_on_c, 9, 36, 0
5, 192384, Note_on_c, 9, 44, 94
5, 192384, Note_on_c, 9, 51, 56
5, 192406, Note_on_c, 9, 36, 0
5, 192452, Note_on_c, 9, 36, 0
5, 192640, Note_on_c, 9, 51, 0
5, 192768, Note_on_c, 9, 44, 0
5, 192768, Note_on_c, 9, 51, 49
5, 192896, Note_on_c, 9, 51, 0
5, 192896, Note_on_c, 9, 51, 49
5, 193024, Note_on_c, 9, 51, 0
5, 193152, Note_on_c, 9, 44, 99
5, 193152, Note_on_c, 9, 51, 56
5, 193280, Note_on_c, 9, 51, 0
5, 193280, Note_on_c, 9, 51, 36
5, 193408, Note_on_c, 9, 51, 0
5, 193536, Note_on_c, 9, 44, 0
5, 193536, Note_on_c, 9, 51, 54
5, 193792, Note_on_c, 9, 51, 0
5, 193920, Note_on_c, 9, 51, 51
5, 193920, Note_on_c, 9, 44, 96
5, 194176, Note_on_c, 9, 51, 0
5, 194198, Note_on_c, 9, 36, 0
5, 194234, Note_on_c, 9, 36, 0
5, 194304, Note_on_c, 9, 44, 0
5, 194304, Note_on_c, 9, 51, 51
5, 194560, Note_on_c, 9, 51, 0
5, 194688, Note_on_c, 9, 51, 52
5, 194688, Note_on_c, 9, 44, 97
5, 194816, Note_on_c, 9, 51, 0
5, 194944, Note_on_c, 9, 51, 28
5, 194950, Note_on_c, 9, 36, 7
5, 194986, Note_on_c, 9, 36, 0
5, 195072, Note_on_c, 9, 44, 0
5, 195072, Note_on_c, 9, 51, 0
5, 195072, Note_on_c, 9, 51, 56
5, 195074, Note_on_c, 9, 36, 0
5, 195134, Note_on_c, 9, 36, 0
5, 195328, Note_on_c, 9, 51, 0
5, 195456, Note_on_c, 9, 51, 56
5, 195456, Note_on_c, 9, 44, 91
5, 195712, Note_on_c, 9, 51, 0
5, 195712, Note_on_c, 9, 51, 42
5, 195736, Note_on_c, 9, 36, 3
5, 195772, Note_on_c, 9, 36, 0
5, 195840, Note_on_c, 9, 44, 0
5, 195840, Note_on_c, 9, 51, 0
5, 195840, Note_on_c, 9, 51, 47
5, 196096, Note_on_c, 9, 51, 0
5, 196224, Note_on_c, 9, 44, 94
5, 196224, Note_on_c, 9, 51, 52
5, 196480, Note_on_c, 9, 51, 0
5, 196482, Note_on_c, 9, 37, 23
5, 196558, Note_on_c, 9, 37, 0
5, 196604, Note_on_c, 9, 36, 0
5, 196608, Note_on_c, 9, 44, 0
5, 196608, Note_on_c, 9, 51, 49
5, 196772, Note_on_c, 9, 36, 0
5, 196864, Note_on_c, 9, 51, 0
5, 196992, Note_on_c, 9, 51, 53
5, 196992, Note_on_c, 9, 44, 93
5, 197120, Note_on_c, 9, 51, 0
5, 197248, Note_on_c, 9, 51, 27
5, 197376, Note_on_c, 9, 44, 0
5, 197376, Note_on_c, 9, 51, 0
5, 197376, Note_on_c, 9, 51, 52
5, 197382, Note_on_c, 9, 36, 0
5, 197426, Note_on_c, 9, 36, 0
5, 197632, Note_on_c, 9, 51, 0
5, 197760, Note_on_c, 9, 44, 96
5, 197760, Note_on_c, 9, 51, 59
5, 197888, Note_on_c, 9, 51, 0
5, 198016, Note_on_c, 9, 51, 30
5, 198034, Note_on_c, 9, 36, 21
5, 198092, Note_on_c, 9, 36, 0
5, 198144, Note_on_c, 9, 44, 0
5, 198144, Note_on_c, 9, 51, 0
5, 198144, Note_on_c, 9, 51, 46
5, 198272, Note_on_c, 9, 51, 0
5, 198400, Note_on_c, 9, 51, 30
5, 198528, Note_on_c, 9, 51, 0
5, 198528, Note_on_c, 9, 44, 90
5, 198528, Note_on_c, 9, 51, 55
5, 198784, Note_on_c, 9, 51, 0
5, 198816, Note_on_c, 9, 37, 0
5, 198848, Note_on_c, 9, 37, 0
5, 198912, Note_on_c, 9, 44, 0
5, 198912, Note_on_c, 9, 51, 25
5, 198912, Note_on_c, 9, 36, 10
5, 198978, Note_on_c, 9, 36, 0
5, 199040, Note_on_c, 9, 51, 0
5, 199168, Note_on_c, 9, 51, 33
5, 199296, Note_on_c, 9, 51, 0
5, 199296, Note_on_c, 9, 51, 66
5, 199296, Note_on_c, 9, 44, 98
5, 199548, Note_on_c, 9, 37, 21
5, 199552, Note_on_c, 9, 51, 0
5, 199616, Note_on_c, 9, 37, 0
5, 199680, Note_on_c, 9, 44, 0
5, 199680, Note_on_c, 9, 51, 15
5, 199696, Note_on_c, 9, 36, 0
5, 199700, Note_on_c, 9, 57, 0
5, 199728, Note_on_c, 9, 57, 0
5, 199732, Note_on_c, 9, 36, 0
5, 199808, Note_on_c, 9, 51, 0
5, 199936, Note_on_c, 9, 51, 34
5, 200064, Note_on_c, 9, 51, 0
5, 200064, Note_on_c, 9, 44, 95
5, 200064, Note_on_c, 9, 51, 59
5, 200320, Note_on_c, 9, 51, 0
5, 200322, Note_on_c, 9, 37, 25
5, 200382, Note_on_c, 9, 37, 0
5, 200448, Note_on_c, 9, 44, 0
5, 200448, Note_on_c, 9, 51, 14
5, 200478, Note_on_c, 9, 36, 4
5, 200510, Note_on_c, 9, 36, 0
5, 200576, Note_on_c, 9, 51, 0
5, 200704, Note_on_c, 9, 51, 24
5, 200832, Note_on_c, 9, 51, 0
5, 200832, Note_on_c, 9, 51, 58
5, 200832, Note_on_c, 9, 44, 99
5, 201086, Note_on_c, 9, 36, 21
5, 201088, Note_on_c, 9, 51, 0
5, 201140, Note_on_c, 9, 36, 0
5, 201216, Note_on_c, 9, 44, 0
5, 201216, Note_on_c, 9, 51, 36
5, 201344, Note_on_c, 9, 51, 0
5, 201472, Note_on_c, 9, 51, 29
5, 201600, Note_on_c, 9, 51, 0
5, 201600, Note_on_c, 9, 51, 60
5, 201600, Note_on_c, 9, 44, 97
5, 201856, Note_on_c, 9, 51, 0
5, 201984, Note_on_c, 9, 44, 0
5, 212480, System_exclusive, 8, 67, 115, 1, 17, 1, 87, 127, 247
5, 213320, System_exclusive, 8, 67, 115, 1, 17, 0, 87, 127, 247
5, 213320, End_track
0, 0, End_of_file
