0, 0, Header, 1, 4, 960
1, 0, Start_track
1, 0, Title_t, "A Ghost of a Chance"
1, 0, Text_t, "Victor Young"
1, 0, Text_t, "dougmck@tpg.com.au \012"
1, 0, Time_signature, 4, 2, 24, 8
1, 0, Key_signature, 0, "major"
1, 0, Tempo, 750000
1, 1752, Marker_t, "Rubato intro - last 8 bars"
1, 26880, Marker_t, "On Fm7, an Eb scale - with accelerando and crescendo - start on 9th  - pedal  down"
1, 42240, Marker_t, "RH plays 4 note chords(inversions of Dm9 melodic phrase) "
1, 42752, Marker_t, "while  LH plays single melody notes connected chromatically."
1, 51880, Marker_t, "Leave out the 'turnaround - straight to ..."
1, 53788, Marker_t, "In tempo to start of song. Basically  a modern 'stride' style with lots of variation."
1, 73640, Marker_t, "Block chord thing again - easy as the melody is all chord tones of Dm9"
1, 76760, Marker_t, "Turnaround on E7,A7,D7,G7"
1, 77760, Marker_t, "On each chord play notes 1235 - then the same on its tritone equivalent. "
1, 79019, Marker_t, "i.e.E7,Bb7,Eb7,A7,Ab7,D7,Db7,G7"
1, 101688, Marker_t, "Am11 voicing LH b3,4,5 and RH G triad"
1, 102872, Marker_t, "Same voicing moves with melody down a tone to Gm11"
1, 115200, Marker_t, "Drop2 block chordson Dm7"
1, 115464, Marker_t, "On chord tones Dm chords, on non chords tones build a diminished chord"
1, 116200, Marker_t, "For 'drop 2' LH plays 2nd top note down an octave"
1, 120392, Marker_t, "On G7alt,  whole tone drop 2 voicings. RH plays augmented triad"
1, 120676, Marker_t, "LH plays note from Whole tone scale a tone below the top RH note"
1, 120922, Marker_t, "Whole thing moves up in whole tone steps"
1, 140128, Marker_t, "Same idea as above - chords in cycle of 5ths. "
1, 141184, Marker_t, "Melodic phrase transposed either down a tone or  by  a tritone"
1, 168960, Marker_t, "Another sequenced phrase passed around the cycle"
1, 201253, Marker_t, "Deliberate discords on each chord change in this turnaround"
1, 230906, Marker_t, "Bb69 B69 C69"
1, 235290, Marker_t, "On Em7b5 A7, a dim scale run"
1, 242432, Marker_t, "Another whole tone block chord thing - the melody moves in whole tones on this G7alt chord"
1, 246261, Marker_t, "Chords move diatonically here - CMaj7, Dm7 (Ebdim), Em7,Dm7, Cmaj7"
1, 276576, Marker_t, "RhH and LH in unison arpeggiate the chord up to melody note"
1, 291840, Marker_t, "RH vamps simple chords - LH plays melodically"
1, 383781, Marker_t, "This time on E7,A7,D7,G7, a melodic phrase over the E7,A7 is played down a WHOLE tone. "
1, 392640, Marker_t, "The melody on first 2 1/2 bars is one note. Here the lower neighbors are used."
1, 393318, Marker_t, "Rhythm is changed to triplets "
1, 414744, Marker_t, "Pedal tone in LH on the dominant (G)"
1, 487213, Marker_t, "More Whole tone stuff"
1, 516763, Marker_t, "Glissando from one melody note (G) targets the G octave above"
1, 545414, Marker_t, "THis time on repeating melody note (G) - play successive G's up an octave each time."
1, 556818, Marker_t, "Slow stride - deliberately stilted style - pedal NOT used to connect bass note and chord"
1, 560640, Marker_t, "RH improvises at extreme treble end of piano."
1, 562890, Marker_t, "Notes in RH are quite clipped"
1, 568355, Marker_t, "Same as before - this time short 3 note phrase transposed "
1, 576000, Marker_t, "More of the high treble staccato  phrases in RH"
1, 577500, Marker_t, "This time a pivot phrase (G and its neighbours)"
1, 616327, Marker_t, "A different hythmic figure used over these 2 bars"
1, 637440, Marker_t, "More of the octave displacement idea on the repeating G melody note"
1, 637440, End_track
2, 0, Start_track
2, 0, Title_t, "Track 1"
2, 0, Control_c, 0, 7, 101
2, 0, Control_c, 0, 10, 64
2, 0, End_track
3, 0, Start_track
3, 0, Title_t, "Track 2"
3, 0, Control_c, 0, 64, 127
3, 2218, Note_on_c, 0, 91, 58
3, 2286, Note_on_c, 0, 88, 57
3, 2356, Note_on_c, 0, 86, 66
3, 2447, Note_on_c, 0, 67, 40
3, 2460, Note_on_c, 0, 83, 54
3, 2462, Note_on_c, 0, 62, 30
3, 2472, Note_on_c, 0, 64, 38
3, 2714, Note_on_c, 0, 67, 0
3, 2887, Note_on_c, 0, 91, 0
3, 2956, Note_on_c, 0, 86, 0
3, 2960, Note_on_c, 0, 88, 0
3, 2996, Note_on_c, 0, 83, 0
3, 3114, Note_on_c, 0, 55, 24
3, 3212, Note_on_c, 0, 62, 0
3, 3237, Note_on_c, 0, 64, 0
3, 3310, Note_on_c, 0, 55, 0
3, 4401, Note_on_c, 0, 67, 70
3, 4880, Note_on_c, 0, 67, 0
3, 5338, Note_on_c, 0, 67, 36
3, 5346, Note_on_c, 0, 62, 41
3, 5347, Note_on_c, 0, 57, 39
3, 5354, Note_on_c, 0, 59, 33
3, 5360, Note_on_c, 0, 24, 34
3, 5386, Note_on_c, 0, 36, 24
3, 5428, Control_c, 0, 64, 0
3, 5722, Control_c, 0, 64, 127
3, 5920, Note_on_c, 0, 67, 0
3, 6074, Note_on_c, 0, 67, 54
3, 6579, Note_on_c, 0, 67, 0
3, 6821, Note_on_c, 0, 67, 54
3, 7093, Note_on_c, 0, 24, 0
3, 7395, Note_on_c, 0, 67, 0
3, 7571, Note_on_c, 0, 36, 0
3, 7624, Note_on_c, 0, 67, 44
3, 7694, Note_on_c, 0, 62, 0
3, 7709, Note_on_c, 0, 59, 0
3, 7715, Note_on_c, 0, 57, 0
3, 7891, Note_on_c, 0, 67, 0
3, 10126, Note_on_c, 0, 67, 49
3, 10127, Note_on_c, 0, 58, 50
3, 10136, Control_c, 0, 64, 0
3, 10137, Note_on_c, 0, 63, 46
3, 10140, Note_on_c, 0, 25, 46
3, 10380, Control_c, 0, 64, 127
3, 10693, Note_on_c, 0, 25, 0
3, 11100, Note_on_c, 0, 67, 0
3, 11217, Note_on_c, 0, 58, 0
3, 11321, Note_on_c, 0, 37, 36
3, 11328, Note_on_c, 0, 58, 52
3, 11345, Note_on_c, 0, 67, 43
3, 11782, Note_on_c, 0, 67, 0
3, 11822, Note_on_c, 0, 37, 0
3, 11857, Note_on_c, 0, 58, 0
3, 11965, Note_on_c, 0, 58, 52
3, 11974, Note_on_c, 0, 67, 47
3, 11989, Note_on_c, 0, 49, 31
3, 12256, Note_on_c, 0, 67, 0
3, 12343, Note_on_c, 0, 58, 0
3, 12386, Note_on_c, 0, 63, 0
3, 12513, Note_on_c, 0, 49, 0
3, 12514, Note_on_c, 0, 67, 46
3, 12515, Note_on_c, 0, 58, 40
3, 12520, Note_on_c, 0, 63, 46
3, 12564, Note_on_c, 0, 53, 28
3, 12746, Note_on_c, 0, 53, 0
3, 12903, Note_on_c, 0, 58, 0
3, 12968, Note_on_c, 0, 67, 0
3, 12983, Note_on_c, 0, 63, 0
3, 13191, Note_on_c, 0, 58, 37
3, 13192, Note_on_c, 0, 63, 35
3, 13194, Note_on_c, 0, 67, 41
3, 13204, Note_on_c, 0, 59, 40
3, 13712, Note_on_c, 0, 59, 0
3, 13879, Note_on_c, 0, 67, 0
3, 13885, Note_on_c, 0, 58, 0
3, 14082, Note_on_c, 0, 58, 31
3, 14088, Note_on_c, 0, 67, 36
3, 14126, Note_on_c, 0, 59, 33
3, 14483, Note_on_c, 0, 67, 0
3, 14507, Note_on_c, 0, 59, 0
3, 14563, Note_on_c, 0, 58, 0
3, 14635, Note_on_c, 0, 63, 0
3, 15046, Note_on_c, 0, 63, 27
3, 15047, Note_on_c, 0, 58, 30
3, 15048, Note_on_c, 0, 67, 30
3, 15073, Note_on_c, 0, 59, 27
3, 15814, Note_on_c, 0, 59, 0
3, 15904, Note_on_c, 0, 67, 0
3, 15930, Note_on_c, 0, 58, 0
3, 16069, Note_on_c, 0, 63, 0
3, 16823, Note_on_c, 0, 62, 87
3, 17358, Note_on_c, 0, 61, 52
3, 17477, Note_on_c, 0, 62, 0
3, 17497, Note_on_c, 0, 60, 51
3, 17680, Note_on_c, 0, 61, 0
3, 17717, Note_on_c, 0, 60, 0
3, 17730, Note_on_c, 0, 59, 51
3, 17866, Note_on_c, 0, 59, 0
3, 17880, Note_on_c, 0, 58, 48
3, 18091, Note_on_c, 0, 57, 63
3, 18100, Note_on_c, 0, 58, 0
3, 18237, Note_on_c, 0, 57, 0
3, 18283, Note_on_c, 0, 58, 53
3, 18310, Note_on_c, 0, 53, 28
3, 18312, Note_on_c, 0, 43, 29
3, 18361, Control_c, 0, 64, 0
3, 18848, Control_c, 0, 64, 127
3, 19101, Note_on_c, 0, 53, 0
3, 19152, Note_on_c, 0, 50, 31
3, 19164, Note_on_c, 0, 43, 0
3, 19207, Note_on_c, 0, 58, 0
3, 19843, Note_on_c, 0, 67, 53
3, 19878, Note_on_c, 0, 58, 37
3, 19883, Note_on_c, 0, 62, 43
3, 19909, Note_on_c, 0, 55, 28
3, 20362, Note_on_c, 0, 67, 0
3, 20387, Note_on_c, 0, 58, 0
3, 20528, Note_on_c, 0, 62, 0
3, 20858, Note_on_c, 0, 50, 0
3, 21562, Note_on_c, 0, 67, 53
3, 21616, Note_on_c, 0, 55, 0
3, 22491, Note_on_c, 0, 67, 0
3, 22681, Note_on_c, 0, 68, 32
3, 22736, Note_on_c, 0, 68, 0
3, 22819, Note_on_c, 0, 69, 29
3, 23029, Note_on_c, 0, 69, 0
3, 23100, Note_on_c, 0, 48, 33
3, 23100, Note_on_c, 0, 58, 28
3, 23100, Note_on_c, 0, 70, 63
3, 23134, Control_c, 0, 64, 0
3, 23736, Control_c, 0, 64, 127
3, 24249, Note_on_c, 0, 55, 29
3, 24430, Note_on_c, 0, 58, 0
3, 24900, Note_on_c, 0, 70, 0
3, 24975, Note_on_c, 0, 64, 41
3, 25652, Note_on_c, 0, 69, 48
3, 25664, Note_on_c, 0, 55, 0
3, 25708, Note_on_c, 0, 48, 0
3, 25899, Note_on_c, 0, 69, 0
3, 26014, Note_on_c, 0, 64, 0
3, 26571, Control_c, 0, 64, 0
3, 26600, Note_on_c, 0, 68, 32
3, 26609, Note_on_c, 0, 41, 32
3, 26612, Note_on_c, 0, 56, 32
3, 26617, Note_on_c, 0, 63, 27
3, 26777, Control_c, 0, 64, 127
3, 26826, Note_on_c, 0, 68, 0
3, 26858, Note_on_c, 0, 56, 0
3, 26895, Note_on_c, 0, 63, 0
3, 27051, Note_on_c, 0, 55, 34
3, 27091, Note_on_c, 0, 48, 24
3, 27180, Note_on_c, 0, 55, 0
3, 27257, Note_on_c, 0, 56, 38
3, 27322, Note_on_c, 0, 41, 0
3, 27409, Note_on_c, 0, 56, 0
3, 27421, Note_on_c, 0, 58, 42
3, 27477, Note_on_c, 0, 55, 22
3, 27513, Note_on_c, 0, 58, 0
3, 27560, Note_on_c, 0, 60, 73
3, 27685, Note_on_c, 0, 60, 0
3, 27710, Note_on_c, 0, 62, 74
3, 27774, Note_on_c, 0, 48, 0
3, 27870, Note_on_c, 0, 63, 71
3, 27878, Note_on_c, 0, 62, 0
3, 27904, Note_on_c, 0, 55, 0
3, 27971, Note_on_c, 0, 63, 0
3, 28016, Note_on_c, 0, 65, 68
3, 28158, Note_on_c, 0, 67, 65
3, 28161, Note_on_c, 0, 65, 0
3, 28247, Note_on_c, 0, 68, 45
3, 28313, Note_on_c, 0, 67, 0
3, 28371, Note_on_c, 0, 68, 0
3, 28373, Note_on_c, 0, 70, 40
3, 28416, Note_on_c, 0, 70, 0
3, 28490, Note_on_c, 0, 72, 36
3, 28587, Note_on_c, 0, 72, 0
3, 28631, Note_on_c, 0, 74, 49
3, 28776, Note_on_c, 0, 75, 48
3, 28805, Note_on_c, 0, 74, 0
3, 28938, Note_on_c, 0, 75, 0
3, 28967, Note_on_c, 0, 76, 29
3, 29026, Note_on_c, 0, 76, 0
3, 29057, Note_on_c, 0, 77, 40
3, 29100, Control_c, 0, 64, 0
3, 29148, Note_on_c, 0, 56, 28
3, 29160, Note_on_c, 0, 62, 33
3, 29166, Note_on_c, 0, 67, 22
3, 29237, Note_on_c, 0, 77, 0
3, 29716, Note_on_c, 0, 80, 47
3, 29856, Note_on_c, 0, 80, 0
3, 30174, Note_on_c, 0, 80, 38
3, 30392, Note_on_c, 0, 80, 0
3, 30588, Control_c, 0, 64, 127
3, 30659, Note_on_c, 0, 80, 39
3, 30908, Note_on_c, 0, 80, 0
3, 31192, Note_on_c, 0, 80, 40
3, 31750, Note_on_c, 0, 80, 0
3, 32285, Note_on_c, 0, 82, 88
3, 32549, Note_on_c, 0, 82, 0
3, 32706, Note_on_c, 0, 82, 85
3, 32832, Note_on_c, 0, 67, 0
3, 32862, Note_on_c, 0, 62, 0
3, 32953, Note_on_c, 0, 82, 0
3, 33012, Note_on_c, 0, 80, 68
3, 33013, Note_on_c, 0, 56, 0
3, 33130, Note_on_c, 0, 80, 0
3, 33425, Note_on_c, 0, 79, 45
3, 33437, Control_c, 0, 64, 0
3, 33468, Note_on_c, 0, 52, 25
3, 33653, Note_on_c, 0, 52, 0
3, 33790, Note_on_c, 0, 59, 31
3, 34046, Note_on_c, 0, 59, 0
3, 34106, Note_on_c, 0, 62, 43
3, 34205, Note_on_c, 0, 62, 0
3, 34433, Note_on_c, 0, 67, 24
3, 34590, Control_c, 0, 64, 127
3, 34597, Note_on_c, 0, 79, 0
3, 34680, Note_on_c, 0, 67, 0
3, 34775, Note_on_c, 0, 74, 32
3, 35106, Note_on_c, 0, 79, 42
3, 35119, Note_on_c, 0, 74, 0
3, 35221, Note_on_c, 0, 79, 0
3, 35453, Note_on_c, 0, 83, 26
3, 35720, Note_on_c, 0, 83, 0
3, 35764, Note_on_c, 0, 84, 52
3, 36116, Note_on_c, 0, 84, 0
3, 36130, Control_c, 0, 64, 0
3, 36143, Note_on_c, 0, 86, 43
3, 36183, Note_on_c, 0, 45, 20
3, 36322, Control_c, 0, 64, 127
3, 36381, Note_on_c, 0, 86, 0
3, 36572, Note_on_c, 0, 52, 28
3, 36720, Note_on_c, 0, 45, 0
3, 37100, Note_on_c, 0, 59, 24
3, 37386, Note_on_c, 0, 59, 0
3, 37619, Note_on_c, 0, 57, 37
3, 37872, Note_on_c, 0, 57, 0
3, 38142, Note_on_c, 0, 60, 34
3, 38144, Note_on_c, 0, 64, 50
3, 38183, Control_c, 0, 64, 0
3, 38186, Note_on_c, 0, 56, 32
3, 38337, Control_c, 0, 64, 127
3, 38562, Note_on_c, 0, 56, 0
3, 38685, Note_on_c, 0, 71, 55
3, 38717, Note_on_c, 0, 55, 33
3, 38748, Control_c, 0, 64, 0
3, 38863, Control_c, 0, 64, 127
3, 39056, Note_on_c, 0, 52, 0
3, 39168, Note_on_c, 0, 60, 0
3, 39194, Note_on_c, 0, 64, 0
3, 39271, Note_on_c, 0, 71, 0
3, 39301, Note_on_c, 0, 60, 40
3, 39306, Note_on_c, 0, 69, 39
3, 39307, Note_on_c, 0, 64, 17
3, 39325, Control_c, 0, 64, 0
3, 39328, Note_on_c, 0, 52, 28
3, 39412, Note_on_c, 0, 55, 0
3, 39440, Control_c, 0, 64, 127
3, 39623, Note_on_c, 0, 64, 0
3, 39678, Note_on_c, 0, 60, 0
3, 39814, Note_on_c, 0, 69, 0
3, 39944, Note_on_c, 0, 45, 39
3, 39998, Note_on_c, 0, 52, 0
3, 40125, Note_on_c, 0, 45, 0
3, 41095, Control_c, 0, 64, 0
3, 41136, Note_on_c, 0, 26, 87
3, 41276, Control_c, 0, 64, 127
3, 41626, Note_on_c, 0, 26, 0
3, 42346, Note_on_c, 0, 58, 52
3, 42385, Note_on_c, 0, 57, 38
3, 42417, Note_on_c, 0, 59, 62
3, 42419, Note_on_c, 0, 58, 0
3, 42444, Note_on_c, 0, 57, 0
3, 42469, Control_c, 0, 64, 0
3, 42490, Note_on_c, 0, 60, 58
3, 42496, Note_on_c, 0, 76, 67
3, 42503, Note_on_c, 0, 69, 64
3, 42504, Note_on_c, 0, 72, 66
3, 42507, Note_on_c, 0, 65, 69
3, 42563, Note_on_c, 0, 59, 0
3, 42625, Control_c, 0, 64, 127
3, 42720, Note_on_c, 0, 72, 0
3, 42755, Note_on_c, 0, 76, 0
3, 42768, Note_on_c, 0, 69, 0
3, 42819, Note_on_c, 0, 59, 40
3, 42821, Note_on_c, 0, 60, 0
3, 42827, Note_on_c, 0, 65, 0
3, 42899, Note_on_c, 0, 59, 0
3, 42903, Note_on_c, 0, 58, 51
3, 43010, Control_c, 0, 64, 0
3, 43059, Note_on_c, 0, 58, 0
3, 43070, Note_on_c, 0, 72, 46
3, 43082, Note_on_c, 0, 62, 41
3, 43092, Note_on_c, 0, 69, 45
3, 43093, Note_on_c, 0, 65, 49
3, 43095, Note_on_c, 0, 57, 60
3, 43319, Control_c, 0, 64, 127
3, 43481, Note_on_c, 0, 69, 0
3, 43503, Note_on_c, 0, 72, 0
3, 43521, Note_on_c, 0, 65, 0
3, 43567, Note_on_c, 0, 62, 0
3, 43819, Control_c, 0, 64, 0
3, 43820, Note_on_c, 0, 69, 42
3, 43829, Note_on_c, 0, 62, 33
3, 43833, Note_on_c, 0, 60, 36
3, 43834, Note_on_c, 0, 57, 0
3, 43836, Note_on_c, 0, 65, 53
3, 43893, Note_on_c, 0, 53, 24
3, 43947, Control_c, 0, 64, 127
3, 44034, Note_on_c, 0, 65, 0
3, 44080, Note_on_c, 0, 69, 0
3, 44101, Note_on_c, 0, 62, 0
3, 44149, Note_on_c, 0, 60, 0
3, 44451, Note_on_c, 0, 53, 0
3, 44527, Note_on_c, 0, 57, 35
3, 44541, Note_on_c, 0, 60, 39
3, 44550, Note_on_c, 0, 65, 32
3, 44561, Note_on_c, 0, 62, 33
3, 44574, Note_on_c, 0, 50, 22
3, 44807, Note_on_c, 0, 50, 0
3, 44843, Note_on_c, 0, 57, 0
3, 44870, Note_on_c, 0, 62, 0
3, 44916, Note_on_c, 0, 60, 0
3, 44925, Note_on_c, 0, 65, 0
3, 46201, Note_on_c, 0, 59, 28
3, 46202, Note_on_c, 0, 67, 36
3, 46206, Control_c, 0, 64, 0
3, 46210, Note_on_c, 0, 63, 36
3, 46215, Note_on_c, 0, 43, 28
3, 46257, Note_on_c, 0, 53, 18
3, 46563, Control_c, 0, 64, 127
3, 46992, Note_on_c, 0, 67, 0
3, 48151, Note_on_c, 0, 67, 49
3, 48596, Note_on_c, 0, 67, 0
3, 48613, Note_on_c, 0, 59, 0
3, 48670, Note_on_c, 0, 63, 0
3, 48733, Note_on_c, 0, 43, 0
3, 48734, Note_on_c, 0, 53, 0
3, 50973, Note_on_c, 0, 69, 41
3, 50987, Note_on_c, 0, 63, 42
3, 50990, Note_on_c, 0, 58, 33
3, 50992, Control_c, 0, 64, 0
3, 51002, Note_on_c, 0, 59, 32
3, 51025, Note_on_c, 0, 53, 24
3, 51028, Note_on_c, 0, 65, 34
3, 51336, Control_c, 0, 64, 127
3, 53706, Note_on_c, 0, 69, 0
3, 53760, Control_c, 0, 64, 127
3, 53760, Control_c, 0, 64, 0
3, 53760, Control_c, 0, 64, 127
3, 53760, Control_c, 0, 64, 0
3, 53786, Note_on_c, 0, 71, 50
3, 53791, Note_on_c, 0, 62, 37
3, 53792, Note_on_c, 0, 79, 41
3, 53794, Note_on_c, 0, 64, 33
3, 53799, Note_on_c, 0, 67, 31
3, 53810, Note_on_c, 0, 76, 40
3, 53818, Note_on_c, 0, 74, 37
3, 53868, Note_on_c, 0, 64, 0
3, 53887, Note_on_c, 0, 67, 0
3, 53909, Note_on_c, 0, 62, 0
3, 54029, Note_on_c, 0, 71, 0
3, 54040, Note_on_c, 0, 74, 0
3, 54045, Note_on_c, 0, 76, 0
3, 54046, Note_on_c, 0, 79, 0
3, 54368, Control_c, 0, 64, 127
3, 54415, Note_on_c, 0, 71, 36
3, 54423, Note_on_c, 0, 79, 32
3, 54432, Note_on_c, 0, 76, 37
3, 54438, Note_on_c, 0, 69, 28
3, 54440, Note_on_c, 0, 74, 34
3, 54616, Note_on_c, 0, 74, 0
3, 54633, Note_on_c, 0, 79, 0
3, 54657, Note_on_c, 0, 76, 0
3, 54661, Note_on_c, 0, 71, 0
3, 54712, Control_c, 0, 64, 0
3, 54737, Note_on_c, 0, 53, 0
3, 54773, Note_on_c, 0, 59, 0
3, 54785, Note_on_c, 0, 71, 36
3, 54796, Note_on_c, 0, 67, 31
3, 54799, Note_on_c, 0, 76, 38
3, 54802, Note_on_c, 0, 79, 29
3, 54804, Note_on_c, 0, 64, 31
3, 54812, Note_on_c, 0, 62, 29
3, 54813, Note_on_c, 0, 74, 32
3, 54855, Control_c, 0, 64, 127
3, 54903, Note_on_c, 0, 67, 0
3, 54903, Note_on_c, 0, 58, 0
3, 54911, Note_on_c, 0, 64, 0
3, 54917, Note_on_c, 0, 65, 0
3, 54942, Note_on_c, 0, 74, 0
3, 54953, Note_on_c, 0, 62, 0
3, 54959, Note_on_c, 0, 71, 0
3, 54962, Note_on_c, 0, 76, 0
3, 54990, Note_on_c, 0, 79, 0
3, 55010, Note_on_c, 0, 69, 0
3, 55054, Note_on_c, 0, 63, 0
3, 55384, Note_on_c, 0, 43, 34
3, 55617, Note_on_c, 0, 43, 0
3, 55731, Note_on_c, 0, 67, 44
3, 55734, Control_c, 0, 64, 0
3, 55757, Note_on_c, 0, 59, 31
3, 55758, Note_on_c, 0, 62, 35
3, 55760, Note_on_c, 0, 57, 34
3, 55764, Note_on_c, 0, 36, 37
3, 55936, Control_c, 0, 64, 127
3, 56188, Control_c, 0, 64, 0
3, 56259, Note_on_c, 0, 57, 0
3, 56328, Note_on_c, 0, 59, 0
3, 56392, Note_on_c, 0, 62, 0
3, 56655, Note_on_c, 0, 43, 22
3, 56663, Note_on_c, 0, 52, 31
3, 56671, Note_on_c, 0, 62, 32
3, 56678, Note_on_c, 0, 67, 0
3, 56692, Note_on_c, 0, 59, 25
3, 56695, Note_on_c, 0, 57, 28
3, 56901, Note_on_c, 0, 36, 0
3, 56952, Note_on_c, 0, 52, 0
3, 56995, Note_on_c, 0, 43, 0
3, 57015, Note_on_c, 0, 62, 0
3, 57045, Note_on_c, 0, 57, 0
3, 57069, Note_on_c, 0, 59, 0
3, 57604, Control_c, 0, 64, 0
3, 57629, Note_on_c, 0, 67, 36
3, 57651, Note_on_c, 0, 63, 33
3, 57662, Note_on_c, 0, 44, 31
3, 57664, Note_on_c, 0, 37, 32
3, 57665, Note_on_c, 0, 59, 35
3, 57677, Note_on_c, 0, 55, 16
3, 57829, Control_c, 0, 64, 127
3, 57964, Note_on_c, 0, 55, 0
3, 58021, Note_on_c, 0, 37, 0
3, 58041, Note_on_c, 0, 44, 0
3, 58047, Note_on_c, 0, 59, 0
3, 58215, Note_on_c, 0, 63, 0
3, 58217, Note_on_c, 0, 67, 0
3, 58592, Note_on_c, 0, 63, 40
3, 58594, Note_on_c, 0, 59, 31
3, 58616, Note_on_c, 0, 53, 22
3, 58707, Control_c, 0, 64, 0
3, 58848, Note_on_c, 0, 87, 32
3, 58889, Note_on_c, 0, 87, 0
3, 58935, Note_on_c, 0, 91, 62
3, 59022, Note_on_c, 0, 87, 51
3, 59075, Note_on_c, 0, 91, 0
3, 59133, Note_on_c, 0, 83, 50
3, 59134, Note_on_c, 0, 87, 0
3, 59196, Note_on_c, 0, 83, 0
3, 59270, Note_on_c, 0, 89, 68
3, 59358, Note_on_c, 0, 89, 0
3, 59488, Note_on_c, 0, 87, 68
3, 59600, Note_on_c, 0, 87, 0
3, 59707, Note_on_c, 0, 83, 55
3, 59822, Note_on_c, 0, 83, 0
3, 59894, Note_on_c, 0, 79, 31
3, 59953, Note_on_c, 0, 79, 0
3, 60068, Note_on_c, 0, 77, 38
3, 60141, Note_on_c, 0, 77, 0
3, 60266, Note_on_c, 0, 75, 47
3, 60426, Note_on_c, 0, 75, 0
3, 60487, Note_on_c, 0, 74, 44
3, 60683, Note_on_c, 0, 74, 0
3, 60713, Note_on_c, 0, 75, 47
3, 60828, Note_on_c, 0, 75, 0
3, 60922, Note_on_c, 0, 76, 55
3, 60962, Note_on_c, 0, 53, 0
3, 60994, Note_on_c, 0, 59, 0
3, 61012, Control_c, 0, 64, 127
3, 61042, Note_on_c, 0, 76, 0
3, 61043, Note_on_c, 0, 63, 0
3, 61072, Note_on_c, 0, 77, 38
3, 61170, Note_on_c, 0, 77, 0
3, 61203, Note_on_c, 0, 78, 50
3, 61287, Note_on_c, 0, 78, 0
3, 61408, Note_on_c, 0, 81, 60
3, 61415, Control_c, 0, 64, 0
3, 61462, Note_on_c, 0, 62, 33
3, 61474, Note_on_c, 0, 55, 19
3, 61499, Note_on_c, 0, 58, 29
3, 61511, Note_on_c, 0, 81, 0
3, 61565, Note_on_c, 0, 79, 29
3, 61678, Control_c, 0, 64, 127
3, 61751, Note_on_c, 0, 62, 0
3, 61785, Note_on_c, 0, 58, 0
3, 61790, Note_on_c, 0, 55, 0
3, 61892, Note_on_c, 0, 74, 44
3, 61968, Note_on_c, 0, 79, 0
3, 62028, Note_on_c, 0, 74, 0
3, 62397, Note_on_c, 0, 43, 20
3, 62457, Control_c, 0, 64, 0
3, 62527, Control_c, 0, 64, 127
3, 62559, Note_on_c, 0, 43, 0
3, 62614, Note_on_c, 0, 67, 35
3, 62628, Control_c, 0, 64, 0
3, 62689, Note_on_c, 0, 67, 0
3, 62695, Note_on_c, 0, 69, 44
3, 62766, Note_on_c, 0, 67, 42
3, 62795, Note_on_c, 0, 69, 0
3, 62872, Note_on_c, 0, 66, 48
3, 62885, Note_on_c, 0, 67, 0
3, 62952, Note_on_c, 0, 66, 0
3, 63019, Note_on_c, 0, 67, 18
3, 63109, Note_on_c, 0, 67, 0
3, 63203, Control_c, 0, 64, 127
3, 63269, Note_on_c, 0, 70, 48
3, 63294, Control_c, 0, 64, 0
3, 63370, Note_on_c, 0, 70, 0
3, 63416, Note_on_c, 0, 36, 33
3, 63435, Note_on_c, 0, 52, 24
3, 63440, Note_on_c, 0, 72, 66
3, 63662, Note_on_c, 0, 72, 0
3, 63702, Note_on_c, 0, 70, 62
3, 63830, Note_on_c, 0, 70, 0
3, 63999, Note_on_c, 0, 64, 54
3, 64011, Note_on_c, 0, 36, 0
3, 64093, Control_c, 0, 64, 127
3, 64138, Note_on_c, 0, 52, 0
3, 64293, Note_on_c, 0, 64, 0
3, 64335, Control_c, 0, 64, 0
3, 64357, Note_on_c, 0, 61, 47
3, 64365, Note_on_c, 0, 52, 38
3, 64507, Control_c, 0, 64, 127
3, 64633, Note_on_c, 0, 61, 0
3, 64975, Note_on_c, 0, 58, 49
3, 64977, Note_on_c, 0, 42, 34
3, 65014, Note_on_c, 0, 52, 0
3, 65085, Note_on_c, 0, 57, 50
3, 65156, Note_on_c, 0, 58, 0
3, 65215, Note_on_c, 0, 42, 0
3, 65235, Control_c, 0, 64, 0
3, 65278, Note_on_c, 0, 56, 59
3, 65280, Note_on_c, 0, 57, 0
3, 65298, Note_on_c, 0, 51, 34
3, 65302, Note_on_c, 0, 41, 40
3, 65488, Control_c, 0, 64, 127
3, 65861, Note_on_c, 0, 48, 19
3, 65895, Note_on_c, 0, 56, 0
3, 65963, Note_on_c, 0, 51, 0
3, 66336, Control_c, 0, 64, 0
3, 66357, Note_on_c, 0, 51, 32
3, 66366, Note_on_c, 0, 56, 40
3, 66367, Note_on_c, 0, 63, 35
3, 66369, Note_on_c, 0, 60, 41
3, 66407, Control_c, 0, 64, 127
3, 66428, Note_on_c, 0, 48, 0
3, 66532, Note_on_c, 0, 41, 0
3, 66558, Note_on_c, 0, 51, 0
3, 66804, Note_on_c, 0, 56, 0
3, 66981, Note_on_c, 0, 60, 0
3, 67090, Note_on_c, 0, 63, 0
3, 67720, Control_c, 0, 64, 0
3, 67722, Note_on_c, 0, 56, 80
3, 67725, Note_on_c, 0, 70, 64
3, 67728, Note_on_c, 0, 62, 74
3, 67734, Note_on_c, 0, 59, 73
3, 67736, Note_on_c, 0, 65, 66
3, 68158, Note_on_c, 0, 46, 59
3, 68164, Control_c, 0, 64, 127
3, 68314, Note_on_c, 0, 56, 0
3, 68354, Note_on_c, 0, 46, 0
3, 68535, Note_on_c, 0, 59, 0
3, 68552, Note_on_c, 0, 62, 0
3, 68556, Note_on_c, 0, 70, 0
3, 68600, Note_on_c, 0, 65, 0
3, 68662, Note_on_c, 0, 68, 60
3, 68683, Note_on_c, 0, 62, 30
3, 68778, Note_on_c, 0, 62, 0
3, 68852, Note_on_c, 0, 68, 0
3, 69064, Control_c, 0, 64, 0
3, 69117, Note_on_c, 0, 47, 17
3, 69141, Note_on_c, 0, 40, 35
3, 69150, Note_on_c, 0, 67, 44
3, 69151, Note_on_c, 0, 55, 32
3, 69169, Note_on_c, 0, 62, 30
3, 69357, Control_c, 0, 64, 127
3, 69458, Note_on_c, 0, 40, 0
3, 69481, Note_on_c, 0, 67, 0
3, 69511, Note_on_c, 0, 47, 0
3, 69527, Note_on_c, 0, 62, 0
3, 69595, Note_on_c, 0, 55, 0
3, 69689, Note_on_c, 0, 67, 36
3, 69856, Note_on_c, 0, 67, 0
3, 70082, Note_on_c, 0, 62, 35
3, 70090, Note_on_c, 0, 52, 24
3, 70094, Control_c, 0, 64, 0
3, 70095, Note_on_c, 0, 59, 30
3, 70110, Note_on_c, 0, 67, 45
3, 70118, Note_on_c, 0, 55, 24
3, 70177, Note_on_c, 0, 62, 0
3, 70203, Note_on_c, 0, 52, 0
3, 70216, Note_on_c, 0, 67, 0
3, 70218, Note_on_c, 0, 69, 45
3, 70285, Note_on_c, 0, 55, 0
3, 70294, Note_on_c, 0, 67, 57
3, 70323, Note_on_c, 0, 69, 0
3, 70347, Note_on_c, 0, 59, 0
3, 70409, Note_on_c, 0, 66, 48
3, 70418, Note_on_c, 0, 67, 0
3, 70511, Note_on_c, 0, 66, 0
3, 70620, Note_on_c, 0, 67, 47
3, 70729, Note_on_c, 0, 67, 0
3, 70824, Note_on_c, 0, 74, 75
3, 70958, Note_on_c, 0, 74, 0
3, 71060, Note_on_c, 0, 72, 48
3, 71061, Note_on_c, 0, 63, 54
3, 71068, Note_on_c, 0, 62, 38
3, 71072, Note_on_c, 0, 66, 42
3, 71098, Note_on_c, 0, 69, 35
3, 71423, Note_on_c, 0, 62, 0
3, 71562, Note_on_c, 0, 60, 49
3, 71701, Control_c, 0, 64, 127
3, 71870, Note_on_c, 0, 63, 0
3, 71871, Note_on_c, 0, 69, 0
3, 71902, Note_on_c, 0, 66, 0
3, 72004, Control_c, 0, 64, 0
3, 72014, Note_on_c, 0, 72, 0
3, 72041, Note_on_c, 0, 63, 38
3, 72050, Note_on_c, 0, 66, 37
3, 72057, Note_on_c, 0, 60, 0
3, 72059, Note_on_c, 0, 69, 34
3, 72066, Note_on_c, 0, 57, 40
3, 72206, Control_c, 0, 64, 127
3, 72496, Note_on_c, 0, 57, 0
3, 72498, Note_on_c, 0, 51, 46
3, 72520, Note_on_c, 0, 63, 0
3, 72568, Note_on_c, 0, 69, 0
3, 72614, Note_on_c, 0, 66, 0
3, 72873, Control_c, 0, 64, 0
3, 72961, Note_on_c, 0, 51, 0
3, 72978, Note_on_c, 0, 50, 51
3, 73025, Control_c, 0, 64, 127
3, 73066, Note_on_c, 0, 50, 0
3, 76834, Control_c, 0, 64, 0
3, 76838, Note_on_c, 0, 62, 34
3, 76842, Note_on_c, 0, 76, 42
3, 76854, Note_on_c, 0, 56, 33
3, 76911, Note_on_c, 0, 62, 0
3, 76914, Note_on_c, 0, 56, 0
3, 76940, Note_on_c, 0, 76, 0
3, 77102, Note_on_c, 0, 78, 43
3, 77162, Note_on_c, 0, 78, 0
3, 77323, Note_on_c, 0, 80, 42
3, 77459, Note_on_c, 0, 80, 0
3, 77542, Note_on_c, 0, 83, 57
3, 77600, Note_on_c, 0, 83, 0
3, 77743, Note_on_c, 0, 67, 40
3, 77759, Note_on_c, 0, 56, 34
3, 77780, Note_on_c, 0, 70, 32
3, 77790, Note_on_c, 0, 62, 24
3, 77833, Note_on_c, 0, 62, 0
3, 77842, Note_on_c, 0, 67, 0
3, 77876, Note_on_c, 0, 56, 0
3, 77930, Note_on_c, 0, 70, 0
3, 78028, Note_on_c, 0, 72, 31
3, 78142, Note_on_c, 0, 72, 0
3, 78222, Note_on_c, 0, 74, 31
3, 78376, Note_on_c, 0, 74, 0
3, 78461, Note_on_c, 0, 77, 62
3, 78566, Note_on_c, 0, 77, 0
3, 78685, Note_on_c, 0, 66, 51
3, 78688, Note_on_c, 0, 61, 46
3, 78694, Note_on_c, 0, 75, 52
3, 78764, Note_on_c, 0, 66, 0
3, 78803, Note_on_c, 0, 75, 0
3, 78832, Note_on_c, 0, 61, 0
3, 78939, Note_on_c, 0, 77, 47
3, 79049, Note_on_c, 0, 77, 0
3, 79391, Note_on_c, 0, 82, 59
3, 79513, Note_on_c, 0, 82, 0
3, 79639, Note_on_c, 0, 45, 47
3, 79733, Note_on_c, 0, 45, 0
3, 79899, Note_on_c, 0, 71, 53
3, 80029, Note_on_c, 0, 71, 0
3, 80139, Note_on_c, 0, 73, 31
3, 80387, Note_on_c, 0, 76, 48
3, 80503, Note_on_c, 0, 76, 0
3, 80557, Note_on_c, 0, 73, 0
3, 80615, Note_on_c, 0, 54, 51
3, 80626, Note_on_c, 0, 65, 44
3, 80631, Note_on_c, 0, 68, 72
3, 80640, Note_on_c, 0, 60, 37
3, 80690, Note_on_c, 0, 60, 0
3, 80712, Note_on_c, 0, 65, 0
3, 80750, Note_on_c, 0, 54, 0
3, 80855, Note_on_c, 0, 68, 0
3, 80906, Note_on_c, 0, 70, 55
3, 81065, Note_on_c, 0, 70, 0
3, 81145, Note_on_c, 0, 72, 37
3, 81344, Note_on_c, 0, 72, 0
3, 81388, Note_on_c, 0, 75, 55
3, 81554, Note_on_c, 0, 75, 0
3, 81614, Note_on_c, 0, 60, 32
3, 81616, Note_on_c, 0, 74, 59
3, 81626, Note_on_c, 0, 50, 27
3, 81634, Note_on_c, 0, 54, 37
3, 81711, Note_on_c, 0, 60, 0
3, 81738, Note_on_c, 0, 50, 0
3, 81766, Note_on_c, 0, 54, 0
3, 81828, Note_on_c, 0, 74, 0
3, 81882, Note_on_c, 0, 76, 50
3, 82060, Note_on_c, 0, 76, 0
3, 82106, Note_on_c, 0, 78, 49
3, 82367, Note_on_c, 0, 78, 0
3, 82375, Note_on_c, 0, 81, 53
3, 82529, Note_on_c, 0, 81, 0
3, 82592, Note_on_c, 0, 43, 29
3, 82619, Note_on_c, 0, 59, 40
3, 82626, Note_on_c, 0, 73, 57
3, 82736, Note_on_c, 0, 43, 0
3, 82846, Note_on_c, 0, 73, 0
3, 82864, Note_on_c, 0, 59, 0
3, 82877, Note_on_c, 0, 75, 54
3, 83066, Note_on_c, 0, 75, 0
3, 83101, Note_on_c, 0, 77, 38
3, 83311, Note_on_c, 0, 77, 0
3, 83343, Note_on_c, 0, 80, 52
3, 83506, Note_on_c, 0, 80, 0
3, 83569, Note_on_c, 0, 64, 33
3, 83579, Note_on_c, 0, 59, 26
3, 83584, Note_on_c, 0, 79, 47
3, 83603, Note_on_c, 0, 53, 20
3, 83736, Note_on_c, 0, 64, 0
3, 83765, Note_on_c, 0, 59, 0
3, 83788, Note_on_c, 0, 79, 0
3, 83806, Note_on_c, 0, 53, 0
3, 83834, Note_on_c, 0, 81, 48
3, 83966, Control_c, 0, 64, 127
3, 83991, Note_on_c, 0, 81, 0
3, 84051, Note_on_c, 0, 83, 52
3, 84135, Note_on_c, 0, 83, 0
3, 84314, Note_on_c, 0, 91, 75
3, 84465, Note_on_c, 0, 91, 0
3, 84502, Control_c, 0, 64, 0
3, 84550, Note_on_c, 0, 86, 51
3, 84555, Note_on_c, 0, 36, 35
3, 84603, Note_on_c, 0, 87, 46
3, 84605, Note_on_c, 0, 36, 0
3, 84712, Note_on_c, 0, 87, 0
3, 84718, Note_on_c, 0, 88, 33
3, 84765, Note_on_c, 0, 86, 0
3, 84809, Note_on_c, 0, 88, 0
3, 84900, Note_on_c, 0, 86, 46
3, 84975, Note_on_c, 0, 87, 33
3, 85064, Note_on_c, 0, 88, 42
3, 85065, Note_on_c, 0, 87, 0
3, 85072, Note_on_c, 0, 86, 0
3, 85113, Note_on_c, 0, 88, 0
3, 85223, Note_on_c, 0, 86, 45
3, 85291, Note_on_c, 0, 87, 53
3, 85371, Note_on_c, 0, 87, 0
3, 85380, Note_on_c, 0, 88, 46
3, 85423, Note_on_c, 0, 86, 0
3, 85439, Note_on_c, 0, 88, 0
3, 85488, Note_on_c, 0, 67, 29
3, 85490, Note_on_c, 0, 64, 29
3, 85499, Note_on_c, 0, 62, 28
3, 85558, Note_on_c, 0, 86, 28
3, 85602, Note_on_c, 0, 67, 0
3, 85621, Note_on_c, 0, 64, 0
3, 85657, Note_on_c, 0, 62, 0
3, 85695, Note_on_c, 0, 88, 59
3, 85776, Note_on_c, 0, 86, 0
3, 85798, Note_on_c, 0, 88, 0
3, 86100, Note_on_c, 0, 79, 29
3, 86247, Note_on_c, 0, 79, 0
3, 86281, Control_c, 0, 64, 127
3, 86412, Control_c, 0, 64, 0
3, 86450, Note_on_c, 0, 57, 31
3, 86454, Note_on_c, 0, 65, 18
3, 86489, Note_on_c, 0, 79, 22
3, 86503, Note_on_c, 0, 60, 18
3, 86577, Note_on_c, 0, 79, 0
3, 86590, Note_on_c, 0, 81, 37
3, 86677, Note_on_c, 0, 79, 34
3, 86692, Note_on_c, 0, 81, 0
3, 86755, Note_on_c, 0, 78, 52
3, 86762, Note_on_c, 0, 79, 0
3, 86829, Note_on_c, 0, 78, 0
3, 86859, Note_on_c, 0, 65, 0
3, 86915, Note_on_c, 0, 79, 49
3, 86951, Note_on_c, 0, 60, 0
3, 87096, Note_on_c, 0, 57, 0
3, 87435, Note_on_c, 0, 57, 39
3, 87435, Note_on_c, 0, 52, 26
3, 87439, Note_on_c, 0, 62, 34
3, 87544, Control_c, 0, 64, 127
3, 87847, Note_on_c, 0, 79, 0
3, 87896, Note_on_c, 0, 62, 0
3, 87921, Note_on_c, 0, 57, 0
3, 87963, Note_on_c, 0, 52, 0
3, 88394, Note_on_c, 0, 79, 62
3, 88398, Note_on_c, 0, 67, 66
3, 88401, Control_c, 0, 64, 0
3, 88406, Note_on_c, 0, 49, 51
3, 88408, Note_on_c, 0, 75, 53
3, 88686, Note_on_c, 0, 55, 58
3, 88726, Control_c, 0, 64, 127
3, 88801, Note_on_c, 0, 79, 0
3, 88882, Note_on_c, 0, 75, 0
3, 88927, Note_on_c, 0, 67, 0
3, 88962, Note_on_c, 0, 55, 0
3, 88995, Note_on_c, 0, 56, 81
3, 89316, Note_on_c, 0, 56, 0
3, 89334, Note_on_c, 0, 63, 63
3, 89338, Note_on_c, 0, 58, 74
3, 89339, Note_on_c, 0, 59, 65
3, 89342, Control_c, 0, 64, 0
3, 89345, Note_on_c, 0, 67, 60
3, 89654, Note_on_c, 0, 58, 0
3, 89669, Note_on_c, 0, 56, 68
3, 89844, Note_on_c, 0, 59, 0
3, 89858, Note_on_c, 0, 63, 0
3, 89871, Note_on_c, 0, 67, 0
3, 89991, Note_on_c, 0, 56, 0
3, 90003, Note_on_c, 0, 63, 57
3, 90006, Note_on_c, 0, 58, 70
3, 90007, Note_on_c, 0, 67, 54
3, 90015, Note_on_c, 0, 59, 47
3, 90281, Note_on_c, 0, 58, 0
3, 90299, Note_on_c, 0, 56, 53
3, 90318, Note_on_c, 0, 59, 0
3, 90322, Control_c, 0, 64, 127
3, 90333, Note_on_c, 0, 63, 0
3, 90354, Note_on_c, 0, 67, 0
3, 90585, Control_c, 0, 64, 0
3, 90586, Note_on_c, 0, 58, 44
3, 90599, Note_on_c, 0, 63, 40
3, 90600, Note_on_c, 0, 56, 0
3, 90601, Note_on_c, 0, 59, 36
3, 90616, Note_on_c, 0, 67, 35
3, 90873, Note_on_c, 0, 58, 0
3, 90887, Control_c, 0, 64, 127
3, 90892, Note_on_c, 0, 59, 0
3, 90893, Note_on_c, 0, 56, 48
3, 90915, Note_on_c, 0, 63, 0
3, 90920, Note_on_c, 0, 67, 0
3, 91060, Control_c, 0, 64, 0
3, 91211, Note_on_c, 0, 58, 34
3, 91213, Note_on_c, 0, 67, 42
3, 91214, Note_on_c, 0, 63, 42
3, 91216, Note_on_c, 0, 59, 35
3, 91223, Note_on_c, 0, 56, 0
3, 91241, Control_c, 0, 64, 127
3, 91315, Note_on_c, 0, 67, 0
3, 91318, Note_on_c, 0, 58, 0
3, 91362, Note_on_c, 0, 63, 0
3, 91383, Note_on_c, 0, 49, 0
3, 91397, Note_on_c, 0, 59, 0
3, 91562, Note_on_c, 0, 54, 50
3, 91568, Note_on_c, 0, 63, 61
3, 91576, Note_on_c, 0, 44, 37
3, 91585, Control_c, 0, 64, 0
3, 91766, Control_c, 0, 64, 127
3, 91814, Note_on_c, 0, 63, 0
3, 91838, Note_on_c, 0, 62, 44
3, 91962, Note_on_c, 0, 61, 47
3, 91971, Note_on_c, 0, 62, 0
3, 92008, Note_on_c, 0, 61, 0
3, 92010, Note_on_c, 0, 54, 0
3, 92049, Note_on_c, 0, 60, 40
3, 92120, Note_on_c, 0, 44, 0
3, 92160, Control_c, 0, 64, 0
3, 92169, Note_on_c, 0, 60, 0
3, 92170, Note_on_c, 0, 59, 63
3, 92243, Note_on_c, 0, 53, 24
3, 92250, Note_on_c, 0, 43, 24
3, 92253, Note_on_c, 0, 59, 0
3, 92264, Note_on_c, 0, 58, 63
3, 92444, Control_c, 0, 64, 127
3, 92565, Note_on_c, 0, 43, 0
3, 92639, Note_on_c, 0, 53, 0
3, 92643, Note_on_c, 0, 58, 0
3, 93225, Note_on_c, 0, 62, 45
3, 93254, Note_on_c, 0, 58, 37
3, 93282, Control_c, 0, 64, 0
3, 93304, Note_on_c, 0, 62, 0
3, 93327, Note_on_c, 0, 58, 0
3, 93430, Note_on_c, 0, 69, 36
3, 93494, Note_on_c, 0, 69, 0
3, 93503, Note_on_c, 0, 67, 46
3, 93579, Note_on_c, 0, 66, 51
3, 93588, Note_on_c, 0, 67, 0
3, 93667, Note_on_c, 0, 66, 0
3, 93688, Note_on_c, 0, 67, 31
3, 93813, Note_on_c, 0, 69, 32
3, 93814, Note_on_c, 0, 67, 0
3, 93919, Note_on_c, 0, 69, 0
3, 93927, Note_on_c, 0, 70, 44
3, 94013, Note_on_c, 0, 70, 0
3, 94035, Note_on_c, 0, 71, 28
3, 94078, Note_on_c, 0, 71, 0
3, 94149, Note_on_c, 0, 72, 44
3, 94280, Note_on_c, 0, 72, 0
3, 94572, Note_on_c, 0, 36, 59
3, 94685, Note_on_c, 0, 36, 0
3, 95052, Note_on_c, 0, 52, 46
3, 95058, Note_on_c, 0, 70, 60
3, 95072, Note_on_c, 0, 61, 46
3, 95073, Note_on_c, 0, 64, 61
3, 95131, Control_c, 0, 64, 127
3, 95423, Note_on_c, 0, 70, 0
3, 95549, Note_on_c, 0, 52, 0
3, 95563, Note_on_c, 0, 69, 64
3, 95644, Note_on_c, 0, 61, 0
3, 95721, Note_on_c, 0, 64, 0
3, 95756, Note_on_c, 0, 69, 0
3, 95899, Control_c, 0, 64, 0
3, 95994, Note_on_c, 0, 68, 52
3, 96008, Note_on_c, 0, 41, 47
3, 96014, Note_on_c, 0, 60, 40
3, 96015, Note_on_c, 0, 63, 48
3, 96060, Control_c, 0, 64, 127
3, 96133, Note_on_c, 0, 41, 0
3, 96179, Note_on_c, 0, 60, 0
3, 96256, Note_on_c, 0, 63, 0
3, 96272, Note_on_c, 0, 68, 0
3, 96518, Note_on_c, 0, 75, 61
3, 96529, Note_on_c, 0, 65, 64
3, 96532, Note_on_c, 0, 68, 57
3, 96534, Note_on_c, 0, 72, 61
3, 96538, Note_on_c, 0, 63, 69
3, 96843, Note_on_c, 0, 65, 0
3, 96876, Note_on_c, 0, 68, 0
3, 96879, Note_on_c, 0, 63, 0
3, 96901, Note_on_c, 0, 72, 0
3, 96902, Note_on_c, 0, 75, 0
3, 96990, Note_on_c, 0, 75, 49
3, 97001, Note_on_c, 0, 63, 37
3, 97015, Note_on_c, 0, 68, 46
3, 97019, Note_on_c, 0, 65, 52
3, 97021, Note_on_c, 0, 72, 51
3, 97286, Note_on_c, 0, 63, 0
3, 97293, Note_on_c, 0, 72, 0
3, 97300, Note_on_c, 0, 68, 0
3, 97306, Note_on_c, 0, 65, 0
3, 97362, Note_on_c, 0, 75, 0
3, 97493, Note_on_c, 0, 72, 57
3, 97494, Note_on_c, 0, 63, 45
3, 97514, Note_on_c, 0, 65, 43
3, 97521, Note_on_c, 0, 68, 37
3, 97580, Note_on_c, 0, 63, 0
3, 97647, Note_on_c, 0, 72, 0
3, 97698, Note_on_c, 0, 65, 0
3, 97724, Note_on_c, 0, 68, 0
3, 97930, Control_c, 0, 64, 0
3, 97972, Note_on_c, 0, 56, 45
3, 97975, Note_on_c, 0, 67, 44
3, 97979, Note_on_c, 0, 62, 36
3, 97991, Note_on_c, 0, 46, 36
3, 98133, Control_c, 0, 64, 127
3, 98376, Note_on_c, 0, 67, 0
3, 98425, Note_on_c, 0, 62, 0
3, 98462, Note_on_c, 0, 66, 62
3, 98604, Note_on_c, 0, 56, 0
3, 98855, Note_on_c, 0, 66, 0
3, 98941, Control_c, 0, 64, 0
3, 98958, Note_on_c, 0, 56, 39
3, 98959, Note_on_c, 0, 65, 40
3, 99044, Note_on_c, 0, 62, 6
3, 99052, Control_c, 0, 64, 127
3, 99104, Note_on_c, 0, 46, 0
3, 99105, Note_on_c, 0, 56, 0
3, 99309, Note_on_c, 0, 62, 0
3, 99312, Note_on_c, 0, 65, 0
3, 99860, Control_c, 0, 64, 0
3, 99893, Note_on_c, 0, 67, 41
3, 99903, Note_on_c, 0, 40, 42
3, 99910, Note_on_c, 0, 62, 27
3, 99939, Note_on_c, 0, 55, 24
3, 100041, Control_c, 0, 64, 127
3, 100106, Note_on_c, 0, 40, 0
3, 100264, Note_on_c, 0, 55, 0
3, 100268, Note_on_c, 0, 62, 0
3, 100460, Note_on_c, 0, 67, 0
3, 100834, Note_on_c, 0, 62, 33
3, 100861, Note_on_c, 0, 52, 18
3, 100871, Note_on_c, 0, 59, 32
3, 100873, Note_on_c, 0, 55, 26
3, 101005, Note_on_c, 0, 55, 0
3, 101029, Note_on_c, 0, 59, 0
3, 101046, Note_on_c, 0, 62, 0
3, 101054, Note_on_c, 0, 52, 0
3, 101159, Note_on_c, 0, 67, 51
3, 101250, Note_on_c, 0, 67, 0
3, 101452, Note_on_c, 0, 67, 62
3, 101533, Note_on_c, 0, 67, 0
3, 101803, Note_on_c, 0, 74, 79
3, 101809, Control_c, 0, 64, 0
3, 101812, Note_on_c, 0, 67, 82
3, 101814, Note_on_c, 0, 71, 71
3, 101820, Note_on_c, 0, 64, 75
3, 101833, Note_on_c, 0, 62, 52
3, 101836, Note_on_c, 0, 60, 48
3, 102001, Control_c, 0, 64, 127
3, 102337, Note_on_c, 0, 62, 0
3, 102361, Note_on_c, 0, 60, 0
3, 102374, Note_on_c, 0, 64, 0
3, 102476, Note_on_c, 0, 67, 0
3, 102582, Note_on_c, 0, 74, 0
3, 102590, Note_on_c, 0, 71, 0
3, 102840, Control_c, 0, 64, 0
3, 102852, Note_on_c, 0, 62, 43
3, 102853, Note_on_c, 0, 72, 56
3, 102865, Note_on_c, 0, 65, 46
3, 102866, Note_on_c, 0, 69, 48
3, 102874, Note_on_c, 0, 58, 39
3, 102883, Note_on_c, 0, 60, 32
3, 103002, Control_c, 0, 64, 127
3, 103111, Note_on_c, 0, 60, 0
3, 103179, Note_on_c, 0, 62, 0
3, 103224, Note_on_c, 0, 72, 0
3, 103277, Note_on_c, 0, 58, 0
3, 103311, Note_on_c, 0, 65, 0
3, 103312, Note_on_c, 0, 69, 0
3, 103759, Control_c, 0, 64, 0
3, 103762, Note_on_c, 0, 76, 47
3, 103772, Note_on_c, 0, 64, 40
3, 103772, Note_on_c, 0, 60, 37
3, 103775, Note_on_c, 0, 54, 40
3, 103776, Note_on_c, 0, 71, 42
3, 103785, Note_on_c, 0, 68, 30
3, 103982, Control_c, 0, 64, 127
3, 104260, Note_on_c, 0, 50, 48
3, 104272, Note_on_c, 0, 54, 0
3, 104325, Control_c, 0, 64, 0
3, 104376, Control_c, 0, 64, 127
3, 104386, Note_on_c, 0, 71, 0
3, 104388, Note_on_c, 0, 76, 0
3, 104393, Note_on_c, 0, 64, 0
3, 104452, Note_on_c, 0, 68, 0
3, 104473, Note_on_c, 0, 60, 0
3, 104709, Control_c, 0, 64, 0
3, 104711, Note_on_c, 0, 72, 63
3, 104717, Note_on_c, 0, 60, 57
3, 104724, Note_on_c, 0, 65, 71
3, 104881, Control_c, 0, 64, 127
3, 104934, Note_on_c, 0, 60, 0
3, 104960, Note_on_c, 0, 65, 0
3, 105013, Note_on_c, 0, 50, 0
3, 105076, Note_on_c, 0, 72, 0
3, 105148, Note_on_c, 0, 57, 39
3, 105167, Note_on_c, 0, 69, 58
3, 105174, Note_on_c, 0, 62, 60
3, 105179, Note_on_c, 0, 65, 57
3, 105216, Note_on_c, 0, 57, 0
3, 105267, Note_on_c, 0, 69, 0
3, 105279, Note_on_c, 0, 65, 0
3, 105321, Note_on_c, 0, 62, 0
3, 105609, Control_c, 0, 64, 0
3, 105611, Note_on_c, 0, 63, 51
3, 105621, Note_on_c, 0, 59, 33
3, 105638, Note_on_c, 0, 43, 31
3, 105647, Note_on_c, 0, 67, 38
3, 105655, Note_on_c, 0, 53, 30
3, 105692, Note_on_c, 0, 64, 62
3, 105694, Note_on_c, 0, 63, 0
3, 105821, Note_on_c, 0, 64, 0
3, 105943, Note_on_c, 0, 63, 46
3, 106122, Note_on_c, 0, 63, 0
3, 106126, Note_on_c, 0, 59, 0
3, 106234, Note_on_c, 0, 59, 18
3, 106236, Note_on_c, 0, 62, 40
3, 106639, Control_c, 0, 64, 127
3, 106659, Note_on_c, 0, 69, 54
3, 106823, Note_on_c, 0, 43, 0
3, 106852, Note_on_c, 0, 59, 0
3, 106891, Note_on_c, 0, 62, 0
3, 106903, Note_on_c, 0, 53, 0
3, 107007, Note_on_c, 0, 67, 0
3, 107056, Note_on_c, 0, 69, 0
3, 107609, Control_c, 0, 64, 0
3, 107633, Note_on_c, 0, 72, 48
3, 107638, Note_on_c, 0, 36, 32
3, 107641, Note_on_c, 0, 62, 33
3, 107648, Note_on_c, 0, 52, 28
3, 107651, Note_on_c, 0, 67, 36
3, 107791, Control_c, 0, 64, 127
3, 108078, Note_on_c, 0, 52, 0
3, 108088, Note_on_c, 0, 67, 0
3, 108089, Note_on_c, 0, 72, 0
3, 108112, Note_on_c, 0, 43, 34
3, 108173, Note_on_c, 0, 62, 0
3, 108299, Note_on_c, 0, 36, 0
3, 108664, Note_on_c, 0, 43, 0
3, 108932, Control_c, 0, 64, 0
3, 108961, Note_on_c, 0, 47, 45
3, 108962, Note_on_c, 0, 62, 56
3, 108963, Note_on_c, 0, 67, 46
3, 108964, Note_on_c, 0, 57, 51
3, 108996, Note_on_c, 0, 62, 0
3, 109001, Note_on_c, 0, 47, 0
3, 109003, Note_on_c, 0, 67, 0
3, 109005, Note_on_c, 0, 57, 0
3, 109304, Note_on_c, 0, 66, 51
3, 109308, Note_on_c, 0, 61, 47
3, 109313, Note_on_c, 0, 56, 42
3, 109329, Control_c, 0, 64, 127
3, 109429, Note_on_c, 0, 66, 0
3, 109468, Note_on_c, 0, 56, 0
3, 109490, Note_on_c, 0, 61, 0
3, 109571, Control_c, 0, 64, 0
3, 109595, Note_on_c, 0, 65, 42
3, 109596, Note_on_c, 0, 56, 35
3, 109604, Note_on_c, 0, 60, 49
3, 109614, Note_on_c, 0, 46, 38
3, 109823, Control_c, 0, 64, 127
3, 110170, Note_on_c, 0, 56, 0
3, 110353, Note_on_c, 0, 60, 0
3, 110374, Note_on_c, 0, 65, 0
3, 110381, Note_on_c, 0, 46, 0
3, 110535, Note_on_c, 0, 56, 44
3, 110544, Note_on_c, 0, 60, 41
3, 110705, Note_on_c, 0, 60, 0
3, 110723, Note_on_c, 0, 56, 0
3, 111235, Note_on_c, 0, 66, 43
3, 111243, Note_on_c, 0, 61, 40
3, 111411, Control_c, 0, 64, 0
3, 111429, Note_on_c, 0, 66, 0
3, 111432, Note_on_c, 0, 43, 22
3, 111434, Note_on_c, 0, 61, 0
3, 111465, Note_on_c, 0, 67, 42
3, 111478, Note_on_c, 0, 36, 26
3, 111487, Note_on_c, 0, 57, 25
3, 111489, Note_on_c, 0, 52, 28
3, 111492, Note_on_c, 0, 62, 34
3, 111603, Control_c, 0, 64, 127
3, 111764, Note_on_c, 0, 57, 0
3, 111765, Note_on_c, 0, 36, 0
3, 111823, Note_on_c, 0, 43, 0
3, 111909, Note_on_c, 0, 67, 0
3, 111920, Note_on_c, 0, 52, 0
3, 111958, Note_on_c, 0, 62, 0
3, 112687, Note_on_c, 0, 67, 76
3, 112869, Note_on_c, 0, 67, 0
3, 112971, Note_on_c, 0, 69, 84
3, 113127, Note_on_c, 0, 69, 0
3, 113301, Note_on_c, 0, 70, 56
3, 113308, Note_on_c, 0, 62, 53
3, 113310, Note_on_c, 0, 45, 37
3, 113312, Note_on_c, 0, 55, 33
3, 113313, Note_on_c, 0, 67, 45
3, 113321, Control_c, 0, 64, 0
3, 113337, Note_on_c, 0, 64, 36
3, 113513, Control_c, 0, 64, 127
3, 113816, Note_on_c, 0, 55, 0
3, 113852, Note_on_c, 0, 62, 0
3, 113926, Note_on_c, 0, 64, 0
3, 113974, Note_on_c, 0, 67, 0
3, 114004, Note_on_c, 0, 70, 0
3, 114236, Note_on_c, 0, 45, 0
3, 114280, Control_c, 0, 64, 0
3, 114300, Note_on_c, 0, 61, 46
3, 114326, Note_on_c, 0, 64, 45
3, 114333, Note_on_c, 0, 69, 34
3, 114341, Note_on_c, 0, 49, 23
3, 114422, Control_c, 0, 64, 127
3, 114637, Note_on_c, 0, 69, 0
3, 114705, Note_on_c, 0, 64, 0
3, 114773, Note_on_c, 0, 61, 0
3, 114850, Note_on_c, 0, 49, 0
3, 115229, Control_c, 0, 64, 0
3, 115278, Note_on_c, 0, 62, 51
3, 115279, Note_on_c, 0, 48, 36
3, 115287, Note_on_c, 0, 57, 45
3, 115294, Note_on_c, 0, 53, 30
3, 115402, Control_c, 0, 64, 127
3, 115560, Note_on_c, 0, 57, 0
3, 115656, Note_on_c, 0, 53, 0
3, 115745, Note_on_c, 0, 62, 0
3, 115765, Control_c, 0, 64, 0
3, 115767, Note_on_c, 0, 58, 61
3, 115774, Note_on_c, 0, 49, 55
3, 115778, Note_on_c, 0, 64, 66
3, 115786, Note_on_c, 0, 55, 36
3, 115790, Note_on_c, 0, 61, 37
3, 115799, Note_on_c, 0, 48, 0
3, 115927, Control_c, 0, 64, 127
3, 116031, Note_on_c, 0, 64, 0
3, 116067, Note_on_c, 0, 55, 0
3, 116167, Note_on_c, 0, 58, 0
3, 116206, Note_on_c, 0, 61, 0
3, 116219, Control_c, 0, 64, 0
3, 116259, Note_on_c, 0, 50, 56
3, 116261, Note_on_c, 0, 60, 47
3, 116263, Note_on_c, 0, 65, 53
3, 116265, Note_on_c, 0, 57, 51
3, 116289, Note_on_c, 0, 49, 0
3, 116422, Control_c, 0, 64, 127
3, 116650, Note_on_c, 0, 50, 0
3, 116680, Note_on_c, 0, 65, 0
3, 116685, Control_c, 0, 64, 0
3, 116700, Note_on_c, 0, 57, 0
3, 116735, Note_on_c, 0, 52, 63
3, 116742, Note_on_c, 0, 60, 0
3, 116846, Control_c, 0, 64, 127
3, 117150, Control_c, 0, 64, 0
3, 117177, Note_on_c, 0, 52, 0
3, 117197, Note_on_c, 0, 60, 42
3, 117202, Note_on_c, 0, 62, 36
3, 117209, Note_on_c, 0, 69, 31
3, 117212, Note_on_c, 0, 53, 36
3, 117213, Note_on_c, 0, 65, 40
3, 117351, Control_c, 0, 64, 127
3, 117427, Note_on_c, 0, 53, 0
3, 117431, Note_on_c, 0, 60, 0
3, 117439, Note_on_c, 0, 62, 0
3, 117456, Note_on_c, 0, 65, 0
3, 117475, Note_on_c, 0, 69, 0
3, 117661, Note_on_c, 0, 57, 51
3, 117919, Note_on_c, 0, 57, 0
3, 118058, Control_c, 0, 64, 0
3, 118123, Note_on_c, 0, 65, 38
3, 118124, Note_on_c, 0, 76, 44
3, 118136, Note_on_c, 0, 69, 38
3, 118137, Note_on_c, 0, 64, 60
3, 118153, Note_on_c, 0, 72, 38
3, 118170, Control_c, 0, 64, 127
3, 118557, Note_on_c, 0, 72, 0
3, 118576, Note_on_c, 0, 60, 34
3, 118596, Note_on_c, 0, 74, 50
3, 118597, Note_on_c, 0, 64, 0
3, 118604, Note_on_c, 0, 76, 0
3, 118618, Note_on_c, 0, 69, 0
3, 118677, Note_on_c, 0, 65, 0
3, 118711, Note_on_c, 0, 60, 0
3, 118754, Note_on_c, 0, 74, 0
3, 119018, Control_c, 0, 64, 0
3, 119051, Note_on_c, 0, 75, 39
3, 119060, Note_on_c, 0, 63, 38
3, 119062, Note_on_c, 0, 71, 37
3, 119064, Note_on_c, 0, 67, 31
3, 119078, Note_on_c, 0, 59, 28
3, 119096, Note_on_c, 0, 53, 22
3, 119149, Control_c, 0, 64, 127
3, 119196, Note_on_c, 0, 63, 0
3, 119218, Note_on_c, 0, 59, 0
3, 119248, Note_on_c, 0, 53, 0
3, 119601, Note_on_c, 0, 31, 24
3, 119698, Note_on_c, 0, 31, 0
3, 119849, Note_on_c, 0, 71, 0
3, 119969, Note_on_c, 0, 67, 0
3, 120023, Note_on_c, 0, 75, 0
3, 120464, Note_on_c, 0, 61, 56
3, 120474, Note_on_c, 0, 75, 56
3, 120482, Note_on_c, 0, 67, 41
3, 120485, Control_c, 0, 64, 0
3, 120497, Note_on_c, 0, 71, 40
3, 120559, Note_on_c, 0, 67, 0
3, 120595, Control_c, 0, 64, 127
3, 120660, Note_on_c, 0, 71, 0
3, 120676, Control_c, 0, 64, 0
3, 120700, Note_on_c, 0, 75, 0
3, 120728, Note_on_c, 0, 77, 62
3, 120737, Note_on_c, 0, 69, 47
3, 120744, Note_on_c, 0, 73, 48
3, 120749, Note_on_c, 0, 63, 56
3, 120797, Control_c, 0, 64, 127
3, 120803, Note_on_c, 0, 61, 0
3, 120823, Note_on_c, 0, 69, 0
3, 120857, Note_on_c, 0, 73, 0
3, 120875, Note_on_c, 0, 77, 0
3, 120887, Note_on_c, 0, 63, 0
3, 120928, Control_c, 0, 64, 0
3, 120983, Note_on_c, 0, 75, 62
3, 120984, Note_on_c, 0, 65, 66
3, 120986, Note_on_c, 0, 71, 57
3, 120987, Note_on_c, 0, 79, 64
3, 121060, Control_c, 0, 64, 127
3, 121092, Note_on_c, 0, 71, 0
3, 121117, Note_on_c, 0, 79, 0
3, 121139, Note_on_c, 0, 75, 0
3, 121144, Note_on_c, 0, 65, 0
3, 121160, Control_c, 0, 64, 0
3, 121549, Note_on_c, 0, 75, 59
3, 121553, Note_on_c, 0, 83, 66
3, 121562, Note_on_c, 0, 67, 62
3, 121563, Note_on_c, 0, 79, 57
3, 121612, Note_on_c, 0, 75, 0
3, 121645, Note_on_c, 0, 83, 0
3, 121650, Note_on_c, 0, 67, 0
3, 121654, Note_on_c, 0, 79, 0
3, 121818, Control_c, 0, 64, 127
3, 122335, Note_on_c, 0, 82, 51
3, 122343, Note_on_c, 0, 75, 48
3, 122344, Note_on_c, 0, 71, 48
3, 122346, Note_on_c, 0, 65, 45
3, 122349, Note_on_c, 0, 79, 43
3, 122512, Note_on_c, 0, 65, 0
3, 122530, Note_on_c, 0, 79, 0
3, 122574, Note_on_c, 0, 71, 0
3, 122614, Note_on_c, 0, 82, 0
3, 122698, Note_on_c, 0, 75, 0
3, 122919, Control_c, 0, 64, 0
3, 122941, Note_on_c, 0, 81, 44
3, 122948, Note_on_c, 0, 69, 24
3, 122951, Note_on_c, 0, 52, 28
3, 122952, Note_on_c, 0, 74, 41
3, 122958, Note_on_c, 0, 57, 35
3, 122966, Note_on_c, 0, 62, 29
3, 123091, Control_c, 0, 64, 127
3, 123500, Note_on_c, 0, 62, 0
3, 123526, Note_on_c, 0, 57, 0
3, 123528, Note_on_c, 0, 81, 0
3, 123569, Note_on_c, 0, 69, 0
3, 123625, Note_on_c, 0, 74, 0
3, 123896, Note_on_c, 0, 62, 27
3, 123926, Note_on_c, 0, 57, 28
3, 123951, Note_on_c, 0, 76, 57
3, 123979, Control_c, 0, 64, 0
3, 124011, Note_on_c, 0, 76, 0
3, 124022, Note_on_c, 0, 77, 56
3, 124105, Note_on_c, 0, 77, 0
3, 124111, Note_on_c, 0, 76, 58
3, 124236, Note_on_c, 0, 75, 42
3, 124240, Note_on_c, 0, 57, 0
3, 124244, Note_on_c, 0, 76, 0
3, 124250, Note_on_c, 0, 52, 0
3, 124340, Note_on_c, 0, 75, 0
3, 124384, Control_c, 0, 64, 127
3, 124400, Note_on_c, 0, 76, 54
3, 124451, Note_on_c, 0, 62, 0
3, 124485, Note_on_c, 0, 76, 0
3, 124633, Note_on_c, 0, 88, 67
3, 124706, Note_on_c, 0, 88, 0
3, 124828, Control_c, 0, 64, 0
3, 124850, Note_on_c, 0, 65, 32
3, 124868, Note_on_c, 0, 55, 24
3, 124873, Note_on_c, 0, 57, 31
3, 124885, Note_on_c, 0, 60, 33
3, 124908, Note_on_c, 0, 88, 74
3, 125040, Control_c, 0, 64, 127
3, 125192, Note_on_c, 0, 88, 0
3, 125234, Note_on_c, 0, 81, 32
3, 125243, Note_on_c, 0, 79, 44
3, 125332, Note_on_c, 0, 79, 0
3, 125362, Note_on_c, 0, 81, 0
3, 125590, Note_on_c, 0, 60, 0
3, 125619, Note_on_c, 0, 65, 0
3, 125628, Note_on_c, 0, 57, 0
3, 125798, Control_c, 0, 64, 0
3, 125822, Note_on_c, 0, 65, 34
3, 125843, Note_on_c, 0, 79, 35
3, 125851, Note_on_c, 0, 57, 19
3, 125880, Note_on_c, 0, 60, 20
3, 125908, Control_c, 0, 64, 127
3, 126097, Note_on_c, 0, 60, 0
3, 126194, Note_on_c, 0, 79, 0
3, 126226, Note_on_c, 0, 57, 0
3, 126244, Note_on_c, 0, 86, 71
3, 126292, Note_on_c, 0, 55, 0
3, 126389, Note_on_c, 0, 65, 0
3, 126530, Note_on_c, 0, 85, 44
3, 126547, Note_on_c, 0, 86, 0
3, 126625, Note_on_c, 0, 85, 0
3, 126632, Note_on_c, 0, 84, 46
3, 126748, Note_on_c, 0, 83, 68
3, 126751, Note_on_c, 0, 84, 0
3, 126768, Control_c, 0, 64, 0
3, 126826, Note_on_c, 0, 67, 31
3, 126833, Note_on_c, 0, 83, 0
3, 126858, Note_on_c, 0, 62, 36
3, 126868, Note_on_c, 0, 64, 32
3, 126892, Note_on_c, 0, 84, 72
3, 127075, Note_on_c, 0, 67, 0
3, 127101, Note_on_c, 0, 84, 0
3, 127154, Note_on_c, 0, 83, 58
3, 127256, Note_on_c, 0, 83, 0
3, 127364, Note_on_c, 0, 79, 61
3, 127414, Note_on_c, 0, 55, 36
3, 127472, Note_on_c, 0, 79, 0
3, 127556, Control_c, 0, 64, 127
3, 127597, Note_on_c, 0, 76, 35
3, 127687, Control_c, 0, 64, 0
3, 127725, Note_on_c, 0, 76, 0
3, 127818, Control_c, 0, 64, 127
3, 127839, Note_on_c, 0, 72, 26
3, 127973, Note_on_c, 0, 55, 0
3, 128063, Note_on_c, 0, 71, 58
3, 128064, Note_on_c, 0, 72, 0
3, 128178, Note_on_c, 0, 71, 0
3, 128273, Control_c, 0, 64, 0
3, 128276, Note_on_c, 0, 74, 74
3, 128293, Note_on_c, 0, 55, 44
3, 128395, Note_on_c, 0, 62, 0
3, 128414, Note_on_c, 0, 64, 0
3, 128455, Control_c, 0, 64, 127
3, 128498, Note_on_c, 0, 55, 0
3, 128499, Note_on_c, 0, 74, 0
3, 128512, Note_on_c, 0, 71, 50
3, 128637, Control_c, 0, 64, 0
3, 128679, Note_on_c, 0, 71, 0
3, 128732, Note_on_c, 0, 72, 55
3, 128739, Note_on_c, 0, 45, 47
3, 128778, Control_c, 0, 64, 127
3, 129006, Note_on_c, 0, 72, 0
3, 129567, Note_on_c, 0, 52, 26
3, 129628, Control_c, 0, 64, 0
3, 129653, Note_on_c, 0, 64, 56
3, 129664, Note_on_c, 0, 60, 40
3, 129671, Note_on_c, 0, 52, 0
3, 129674, Note_on_c, 0, 55, 35
3, 129779, Control_c, 0, 64, 127
3, 129974, Note_on_c, 0, 45, 0
3, 130022, Note_on_c, 0, 60, 0
3, 130066, Note_on_c, 0, 55, 0
3, 130096, Note_on_c, 0, 45, 59
3, 130098, Note_on_c, 0, 64, 0
3, 130225, Note_on_c, 0, 45, 0
3, 130496, Control_c, 0, 64, 0
3, 130555, Note_on_c, 0, 69, 74
3, 130556, Note_on_c, 0, 66, 70
3, 130557, Note_on_c, 0, 42, 53
3, 130570, Note_on_c, 0, 52, 44
3, 130660, Control_c, 0, 64, 127
3, 130696, Note_on_c, 0, 66, 0
3, 130711, Note_on_c, 0, 42, 0
3, 130742, Note_on_c, 0, 52, 0
3, 130745, Note_on_c, 0, 69, 0
3, 130810, Note_on_c, 0, 66, 59
3, 130821, Note_on_c, 0, 69, 58
3, 130924, Note_on_c, 0, 66, 0
3, 130955, Note_on_c, 0, 69, 0
3, 131010, Note_on_c, 0, 71, 71
3, 131029, Note_on_c, 0, 67, 61
3, 131155, Note_on_c, 0, 67, 0
3, 131168, Note_on_c, 0, 71, 0
3, 131265, Note_on_c, 0, 67, 61
3, 131267, Note_on_c, 0, 71, 49
3, 131396, Note_on_c, 0, 67, 0
3, 131397, Note_on_c, 0, 71, 0
3, 131469, Control_c, 0, 64, 0
3, 131471, Note_on_c, 0, 64, 44
3, 131477, Note_on_c, 0, 72, 62
3, 131482, Note_on_c, 0, 54, 35
3, 131491, Note_on_c, 0, 69, 67
3, 131496, Note_on_c, 0, 60, 34
3, 131630, Note_on_c, 0, 72, 0
3, 131632, Note_on_c, 0, 69, 0
3, 131671, Control_c, 0, 64, 127
3, 131739, Note_on_c, 0, 72, 31
3, 131769, Note_on_c, 0, 69, 35
3, 131824, Note_on_c, 0, 69, 0
3, 131845, Note_on_c, 0, 72, 0
3, 131910, Note_on_c, 0, 64, 0
3, 131960, Note_on_c, 0, 76, 64
3, 131970, Note_on_c, 0, 72, 58
3, 132127, Note_on_c, 0, 60, 0
3, 132212, Note_on_c, 0, 72, 0
3, 132367, Note_on_c, 0, 76, 0
3, 132449, Control_c, 0, 64, 0
3, 132484, Note_on_c, 0, 64, 53
3, 132496, Note_on_c, 0, 72, 50
3, 132497, Note_on_c, 0, 69, 42
3, 132514, Note_on_c, 0, 60, 31
3, 132570, Control_c, 0, 64, 127
3, 132600, Note_on_c, 0, 60, 0
3, 132681, Note_on_c, 0, 54, 0
3, 132909, Note_on_c, 0, 72, 0
3, 132926, Note_on_c, 0, 69, 0
3, 133005, Note_on_c, 0, 42, 47
3, 133040, Note_on_c, 0, 64, 0
3, 133328, Note_on_c, 0, 42, 0
3, 133481, Note_on_c, 0, 62, 48
3, 133484, Note_on_c, 0, 66, 52
3, 133492, Note_on_c, 0, 42, 39
3, 133502, Note_on_c, 0, 52, 34
3, 133675, Note_on_c, 0, 62, 0
3, 133715, Note_on_c, 0, 66, 0
3, 133817, Note_on_c, 0, 64, 74
3, 133818, Note_on_c, 0, 67, 64
3, 133893, Note_on_c, 0, 42, 0
3, 133971, Note_on_c, 0, 52, 0
3, 134005, Note_on_c, 0, 67, 0
3, 134017, Note_on_c, 0, 64, 0
3, 134120, Note_on_c, 0, 69, 68
3, 134352, Note_on_c, 0, 69, 0
3, 134430, Control_c, 0, 64, 0
3, 134442, Note_on_c, 0, 57, 44
3, 134444, Note_on_c, 0, 66, 47
3, 134446, Note_on_c, 0, 62, 41
3, 134453, Note_on_c, 0, 47, 36
3, 134739, Note_on_c, 0, 62, 0
3, 134742, Control_c, 0, 64, 127
3, 134758, Note_on_c, 0, 66, 0
3, 134794, Note_on_c, 0, 64, 52
3, 134795, Note_on_c, 0, 67, 53
3, 134927, Note_on_c, 0, 64, 0
3, 134956, Note_on_c, 0, 67, 0
3, 134998, Note_on_c, 0, 57, 0
3, 135066, Note_on_c, 0, 69, 58
3, 135083, Note_on_c, 0, 66, 47
3, 135182, Note_on_c, 0, 69, 0
3, 135199, Note_on_c, 0, 66, 0
3, 135368, Control_c, 0, 64, 0
3, 135377, Note_on_c, 0, 57, 39
3, 135385, Note_on_c, 0, 69, 66
3, 135392, Note_on_c, 0, 72, 51
3, 135601, Control_c, 0, 64, 127
3, 135645, Note_on_c, 0, 72, 0
3, 135687, Note_on_c, 0, 69, 0
3, 135747, Note_on_c, 0, 72, 43
3, 135782, Note_on_c, 0, 69, 24
3, 135875, Note_on_c, 0, 69, 0
3, 135890, Note_on_c, 0, 57, 0
3, 136027, Note_on_c, 0, 62, 35
3, 136105, Note_on_c, 0, 62, 0
3, 136298, Note_on_c, 0, 72, 0
3, 136328, Control_c, 0, 64, 0
3, 136338, Note_on_c, 0, 63, 45
3, 136359, Note_on_c, 0, 51, 31
3, 136366, Note_on_c, 0, 66, 38
3, 136369, Note_on_c, 0, 69, 33
3, 136371, Note_on_c, 0, 57, 22
3, 136499, Note_on_c, 0, 47, 0
3, 136521, Control_c, 0, 64, 127
3, 136586, Note_on_c, 0, 51, 0
3, 136588, Note_on_c, 0, 57, 0
3, 136636, Note_on_c, 0, 63, 0
3, 136642, Note_on_c, 0, 69, 0
3, 136686, Note_on_c, 0, 66, 0
3, 137179, Note_on_c, 0, 41, 35
3, 137225, Note_on_c, 0, 48, 41
3, 137264, Note_on_c, 0, 63, 49
3, 137288, Control_c, 0, 64, 0
3, 137301, Note_on_c, 0, 57, 38
3, 137316, Note_on_c, 0, 67, 42
3, 137339, Note_on_c, 0, 71, 58
3, 137348, Note_on_c, 0, 74, 67
3, 137470, Control_c, 0, 64, 127
3, 137723, Note_on_c, 0, 48, 0
3, 137731, Note_on_c, 0, 74, 0
3, 137752, Note_on_c, 0, 57, 0
3, 137760, Note_on_c, 0, 41, 0
3, 137778, Note_on_c, 0, 71, 0
3, 137827, Note_on_c, 0, 72, 57
3, 137941, Note_on_c, 0, 67, 0
3, 137955, Note_on_c, 0, 63, 0
3, 138029, Note_on_c, 0, 72, 0
3, 138268, Control_c, 0, 64, 0
3, 138281, Note_on_c, 0, 47, 34
3, 138295, Note_on_c, 0, 40, 36
3, 138296, Note_on_c, 0, 71, 47
3, 138310, Note_on_c, 0, 55, 24
3, 138313, Note_on_c, 0, 62, 29
3, 138318, Note_on_c, 0, 67, 31
3, 138470, Control_c, 0, 64, 127
3, 138517, Note_on_c, 0, 40, 0
3, 138586, Note_on_c, 0, 47, 0
3, 138656, Note_on_c, 0, 55, 0
3, 138839, Note_on_c, 0, 62, 0
3, 139213, Note_on_c, 0, 67, 0
3, 139262, Note_on_c, 0, 62, 35
3, 139287, Note_on_c, 0, 55, 32
3, 139293, Note_on_c, 0, 52, 18
3, 139297, Note_on_c, 0, 59, 32
3, 139343, Note_on_c, 0, 71, 0
3, 139696, Note_on_c, 0, 52, 0
3, 139726, Note_on_c, 0, 55, 0
3, 139730, Note_on_c, 0, 59, 0
3, 139764, Note_on_c, 0, 62, 0
3, 140209, Control_c, 0, 64, 0
3, 140222, Note_on_c, 0, 75, 90
3, 140224, Note_on_c, 0, 61, 67
3, 140225, Note_on_c, 0, 55, 57
3, 140227, Note_on_c, 0, 66, 71
3, 140424, Note_on_c, 0, 75, 0
3, 140476, Note_on_c, 0, 77, 67
3, 140587, Note_on_c, 0, 77, 0
3, 140697, Note_on_c, 0, 79, 44
3, 140854, Note_on_c, 0, 79, 0
3, 140935, Note_on_c, 0, 82, 72
3, 141045, Note_on_c, 0, 82, 0
3, 141186, Note_on_c, 0, 69, 42
3, 141346, Note_on_c, 0, 69, 0
3, 141422, Note_on_c, 0, 66, 0
3, 141432, Note_on_c, 0, 71, 50
3, 141486, Note_on_c, 0, 55, 0
3, 141539, Note_on_c, 0, 71, 0
3, 141636, Note_on_c, 0, 61, 0
3, 141637, Note_on_c, 0, 73, 39
3, 141886, Note_on_c, 0, 73, 0
3, 141891, Note_on_c, 0, 76, 58
3, 141998, Note_on_c, 0, 76, 0
3, 142113, Note_on_c, 0, 60, 41
3, 142118, Note_on_c, 0, 50, 31
3, 142122, Note_on_c, 0, 68, 48
3, 142319, Note_on_c, 0, 68, 0
3, 142365, Note_on_c, 0, 70, 46
3, 142505, Note_on_c, 0, 70, 0
3, 142581, Note_on_c, 0, 72, 36
3, 142705, Note_on_c, 0, 60, 0
3, 142780, Note_on_c, 0, 72, 0
3, 142818, Note_on_c, 0, 75, 52
3, 142921, Note_on_c, 0, 75, 0
3, 143049, Note_on_c, 0, 62, 40
3, 143051, Note_on_c, 0, 60, 36
3, 143197, Note_on_c, 0, 60, 0
3, 143253, Note_on_c, 0, 62, 0
3, 143304, Note_on_c, 0, 50, 0
3, 143319, Note_on_c, 0, 64, 51
3, 143478, Note_on_c, 0, 64, 0
3, 143539, Note_on_c, 0, 66, 49
3, 143770, Note_on_c, 0, 66, 0
3, 143795, Note_on_c, 0, 69, 51
3, 143953, Note_on_c, 0, 69, 0
3, 144021, Note_on_c, 0, 43, 34
3, 144040, Note_on_c, 0, 53, 26
3, 144503, Control_c, 0, 64, 127
3, 144514, Note_on_c, 0, 67, 63
3, 144535, Note_on_c, 0, 43, 0
3, 144543, Control_c, 0, 64, 0
3, 144596, Note_on_c, 0, 53, 0
3, 144704, Note_on_c, 0, 67, 0
3, 144755, Control_c, 0, 64, 127
3, 144786, Note_on_c, 0, 69, 73
3, 144944, Note_on_c, 0, 69, 0
3, 144957, Control_c, 0, 64, 0
3, 145001, Note_on_c, 0, 71, 60
3, 145002, Note_on_c, 0, 63, 35
3, 145018, Note_on_c, 0, 59, 38
3, 145029, Note_on_c, 0, 53, 24
3, 145139, Control_c, 0, 64, 127
3, 145233, Note_on_c, 0, 71, 0
3, 145269, Note_on_c, 0, 73, 43
3, 145411, Note_on_c, 0, 73, 0
3, 145703, Note_on_c, 0, 74, 68
3, 145707, Note_on_c, 0, 59, 0
3, 145765, Note_on_c, 0, 53, 0
3, 145790, Note_on_c, 0, 63, 0
3, 145807, Note_on_c, 0, 74, 0
3, 145867, Note_on_c, 0, 75, 70
3, 145937, Control_c, 0, 64, 0
3, 146009, Note_on_c, 0, 62, 38
3, 146030, Note_on_c, 0, 52, 24
3, 146032, Note_on_c, 0, 57, 37
3, 146047, Note_on_c, 0, 76, 64
3, 146077, Note_on_c, 0, 75, 0
3, 146286, Note_on_c, 0, 67, 54
3, 146304, Note_on_c, 0, 76, 0
3, 146369, Note_on_c, 0, 67, 0
3, 146565, Note_on_c, 0, 62, 0
3, 146628, Note_on_c, 0, 57, 0
3, 146655, Note_on_c, 0, 67, 55
3, 146809, Note_on_c, 0, 67, 0
3, 146821, Note_on_c, 0, 69, 40
3, 146895, Note_on_c, 0, 67, 44
3, 146919, Note_on_c, 0, 69, 0
3, 146983, Note_on_c, 0, 66, 50
3, 146991, Note_on_c, 0, 67, 0
3, 147055, Note_on_c, 0, 66, 0
3, 147075, Note_on_c, 0, 57, 30
3, 147076, Note_on_c, 0, 62, 29
3, 147100, Note_on_c, 0, 67, 37
3, 147250, Note_on_c, 0, 67, 0
3, 147549, Note_on_c, 0, 76, 69
3, 147623, Note_on_c, 0, 62, 0
3, 147648, Note_on_c, 0, 76, 0
3, 147778, Note_on_c, 0, 57, 0
3, 148040, Note_on_c, 0, 62, 33
3, 148040, Note_on_c, 0, 57, 40
3, 148584, Control_c, 0, 64, 127
3, 148618, Note_on_c, 0, 62, 0
3, 148625, Note_on_c, 0, 57, 0
3, 148817, Control_c, 0, 64, 0
3, 148908, Control_c, 0, 64, 127
3, 149000, Note_on_c, 0, 57, 47
3, 149000, Note_on_c, 0, 62, 33
3, 149043, Note_on_c, 0, 52, 0
3, 149114, Note_on_c, 0, 62, 0
3, 149134, Note_on_c, 0, 57, 0
3, 149406, Note_on_c, 0, 38, 44
3, 149490, Note_on_c, 0, 38, 0
3, 149725, Control_c, 0, 64, 0
3, 149760, Note_on_c, 0, 44, 35
3, 149760, Note_on_c, 0, 37, 53
3, 149888, Control_c, 0, 64, 127
3, 150013, Note_on_c, 0, 37, 0
3, 150025, Note_on_c, 0, 44, 0
3, 150396, Note_on_c, 0, 67, 87
3, 150666, Note_on_c, 0, 67, 0
3, 150717, Note_on_c, 0, 59, 35
3, 150719, Note_on_c, 0, 63, 49
3, 150746, Control_c, 0, 64, 0
3, 150747, Note_on_c, 0, 53, 24
3, 150798, Note_on_c, 0, 67, 61
3, 151010, Note_on_c, 0, 67, 0
3, 151065, Note_on_c, 0, 69, 42
3, 151097, Note_on_c, 0, 63, 0
3, 151105, Note_on_c, 0, 67, 40
3, 151153, Note_on_c, 0, 69, 0
3, 151227, Note_on_c, 0, 66, 46
3, 151245, Note_on_c, 0, 67, 0
3, 151325, Note_on_c, 0, 66, 0
3, 151404, Note_on_c, 0, 67, 44
3, 151456, Note_on_c, 0, 67, 0
3, 151576, Note_on_c, 0, 79, 67
3, 151653, Note_on_c, 0, 59, 0
3, 151661, Note_on_c, 0, 79, 0
3, 151695, Note_on_c, 0, 53, 0
3, 151747, Note_on_c, 0, 63, 32
3, 151771, Note_on_c, 0, 59, 14
3, 151843, Note_on_c, 0, 63, 0
3, 151980, Note_on_c, 0, 75, 62
3, 152103, Note_on_c, 0, 75, 0
3, 152268, Note_on_c, 0, 67, 54
3, 152635, Note_on_c, 0, 59, 0
3, 152683, Note_on_c, 0, 63, 43
3, 152717, Control_c, 0, 64, 127
3, 152727, Note_on_c, 0, 56, 36
3, 152807, Note_on_c, 0, 63, 0
3, 152846, Note_on_c, 0, 56, 0
3, 152976, Note_on_c, 0, 67, 0
3, 153308, Note_on_c, 0, 44, 37
3, 153311, Note_on_c, 0, 54, 37
3, 153373, Control_c, 0, 64, 0
3, 153403, Control_c, 0, 64, 127
3, 153574, Note_on_c, 0, 54, 0
3, 153625, Note_on_c, 0, 44, 0
3, 153636, Control_c, 0, 64, 0
3, 153701, Note_on_c, 0, 58, 33
3, 153708, Note_on_c, 0, 43, 31
3, 153715, Note_on_c, 0, 53, 26
3, 153808, Control_c, 0, 64, 127
3, 153938, Note_on_c, 0, 43, 0
3, 153969, Note_on_c, 0, 58, 0
3, 154023, Note_on_c, 0, 53, 0
3, 154632, Note_on_c, 0, 62, 25
3, 154639, Note_on_c, 0, 58, 38
3, 154643, Note_on_c, 0, 57, 28
3, 154646, Control_c, 0, 64, 0
3, 154670, Note_on_c, 0, 53, 20
3, 154800, Note_on_c, 0, 58, 0
3, 154827, Note_on_c, 0, 53, 0
3, 154837, Note_on_c, 0, 62, 0
3, 154850, Note_on_c, 0, 57, 0
3, 155035, Note_on_c, 0, 86, 64
3, 155264, Note_on_c, 0, 86, 0
3, 155317, Note_on_c, 0, 82, 67
3, 155540, Note_on_c, 0, 82, 0
3, 155566, Note_on_c, 0, 63, 35
3, 155590, Note_on_c, 0, 58, 38
3, 155596, Note_on_c, 0, 52, 18
3, 155618, Note_on_c, 0, 85, 52
3, 155660, Note_on_c, 0, 52, 0
3, 155661, Note_on_c, 0, 63, 0
3, 155737, Note_on_c, 0, 58, 0
3, 155862, Note_on_c, 0, 73, 33
3, 156015, Note_on_c, 0, 85, 0
3, 156097, Note_on_c, 0, 73, 0
3, 156141, Note_on_c, 0, 72, 32
3, 156379, Note_on_c, 0, 72, 0
3, 156545, Note_on_c, 0, 58, 28
3, 156570, Note_on_c, 0, 48, 25
3, 156688, Note_on_c, 0, 48, 0
3, 156698, Note_on_c, 0, 58, 0
3, 157165, Note_on_c, 0, 70, 67
3, 157329, Note_on_c, 0, 70, 0
3, 157528, Note_on_c, 0, 68, 45
3, 157530, Note_on_c, 0, 41, 30
3, 157604, Note_on_c, 0, 41, 0
3, 157638, Note_on_c, 0, 68, 0
3, 157694, Note_on_c, 0, 70, 36
3, 157779, Note_on_c, 0, 68, 35
3, 157809, Note_on_c, 0, 70, 0
3, 157860, Note_on_c, 0, 68, 0
3, 157994, Note_on_c, 0, 68, 53
3, 158147, Note_on_c, 0, 68, 0
3, 158483, Note_on_c, 0, 63, 37
3, 158516, Control_c, 0, 64, 127
3, 158517, Note_on_c, 0, 53, 20
3, 158519, Note_on_c, 0, 56, 43
3, 158527, Note_on_c, 0, 60, 27
3, 159016, Note_on_c, 0, 63, 0
3, 159141, Note_on_c, 0, 60, 0
3, 159188, Note_on_c, 0, 56, 0
3, 159206, Note_on_c, 0, 53, 0
3, 159448, Note_on_c, 0, 70, 57
3, 159469, Note_on_c, 0, 67, 44
3, 159941, Note_on_c, 0, 67, 0
3, 159993, Note_on_c, 0, 70, 0
3, 160274, Control_c, 0, 64, 0
3, 160362, Note_on_c, 0, 56, 36
3, 160368, Note_on_c, 0, 68, 35
3, 160377, Note_on_c, 0, 65, 37
3, 160378, Note_on_c, 0, 62, 27
3, 160380, Note_on_c, 0, 46, 25
3, 160426, Control_c, 0, 64, 127
3, 160460, Note_on_c, 0, 56, 0
3, 160496, Note_on_c, 0, 46, 0
3, 160548, Note_on_c, 0, 65, 0
3, 160563, Note_on_c, 0, 62, 0
3, 160574, Note_on_c, 0, 68, 0
3, 160768, Control_c, 0, 64, 0
3, 160829, Control_c, 0, 64, 127
3, 161265, Control_c, 0, 64, 0
3, 161316, Note_on_c, 0, 67, 35
3, 161329, Note_on_c, 0, 55, 24
3, 161333, Note_on_c, 0, 59, 30
3, 161334, Note_on_c, 0, 40, 36
3, 161344, Note_on_c, 0, 47, 22
3, 161383, Note_on_c, 0, 62, 18
3, 161386, Control_c, 0, 64, 127
3, 161456, Note_on_c, 0, 55, 0
3, 161462, Note_on_c, 0, 40, 0
3, 161470, Note_on_c, 0, 62, 0
3, 161492, Note_on_c, 0, 59, 0
3, 161520, Note_on_c, 0, 47, 0
3, 161580, Note_on_c, 0, 67, 0
3, 161958, Note_on_c, 0, 79, 71
3, 161959, Note_on_c, 0, 74, 77
3, 161964, Note_on_c, 0, 67, 74
3, 162179, Note_on_c, 0, 79, 0
3, 162189, Note_on_c, 0, 67, 0
3, 162196, Note_on_c, 0, 74, 0
3, 162234, Control_c, 0, 64, 0
3, 162249, Note_on_c, 0, 62, 33
3, 162251, Note_on_c, 0, 52, 30
3, 162256, Note_on_c, 0, 59, 28
3, 162269, Note_on_c, 0, 79, 48
3, 162272, Note_on_c, 0, 55, 22
3, 162279, Note_on_c, 0, 74, 63
3, 162280, Note_on_c, 0, 67, 47
3, 162315, Control_c, 0, 64, 127
3, 162400, Note_on_c, 0, 79, 0
3, 162410, Note_on_c, 0, 55, 0
3, 162418, Note_on_c, 0, 62, 0
3, 162424, Note_on_c, 0, 52, 0
3, 162428, Note_on_c, 0, 67, 0
3, 162436, Note_on_c, 0, 74, 0
3, 162481, Note_on_c, 0, 59, 0
3, 162549, Note_on_c, 0, 74, 48
3, 162551, Note_on_c, 0, 67, 41
3, 162563, Note_on_c, 0, 79, 30
3, 162622, Note_on_c, 0, 79, 0
3, 162650, Note_on_c, 0, 67, 0
3, 162662, Note_on_c, 0, 74, 0
3, 162821, Note_on_c, 0, 67, 50
3, 162823, Note_on_c, 0, 74, 57
3, 162831, Note_on_c, 0, 79, 47
3, 162859, Note_on_c, 0, 67, 0
3, 162903, Note_on_c, 0, 74, 0
3, 162932, Note_on_c, 0, 79, 0
3, 163162, Control_c, 0, 64, 0
3, 163170, Note_on_c, 0, 86, 70
3, 163172, Note_on_c, 0, 64, 56
3, 163177, Note_on_c, 0, 55, 36
3, 163181, Note_on_c, 0, 57, 56
3, 163182, Note_on_c, 0, 74, 68
3, 163183, Note_on_c, 0, 83, 71
3, 163185, Note_on_c, 0, 60, 44
3, 163186, Note_on_c, 0, 79, 66
3, 163441, Control_c, 0, 64, 127
3, 163776, Note_on_c, 0, 60, 0
3, 163840, Note_on_c, 0, 64, 0
3, 163842, Note_on_c, 0, 57, 0
3, 163901, Note_on_c, 0, 83, 0
3, 163914, Note_on_c, 0, 55, 0
3, 163917, Note_on_c, 0, 86, 0
3, 163929, Note_on_c, 0, 79, 0
3, 163931, Note_on_c, 0, 74, 0
3, 164613, Control_c, 0, 64, 0
3, 164667, Note_on_c, 0, 61, 35
3, 164673, Note_on_c, 0, 63, 54
3, 164682, Note_on_c, 0, 55, 37
3, 164688, Note_on_c, 0, 78, 67
3, 164691, Note_on_c, 0, 84, 68
3, 164700, Note_on_c, 0, 72, 61
3, 164707, Note_on_c, 0, 81, 50
3, 164775, Control_c, 0, 64, 127
3, 164812, Note_on_c, 0, 72, 0
3, 164830, Note_on_c, 0, 55, 0
3, 164850, Note_on_c, 0, 81, 0
3, 164862, Note_on_c, 0, 63, 0
3, 164865, Note_on_c, 0, 78, 0
3, 164869, Note_on_c, 0, 84, 0
3, 164945, Note_on_c, 0, 61, 0
3, 165118, Control_c, 0, 64, 0
3, 165143, Note_on_c, 0, 88, 68
3, 165149, Note_on_c, 0, 64, 56
3, 165150, Note_on_c, 0, 81, 67
3, 165154, Note_on_c, 0, 60, 46
3, 165156, Note_on_c, 0, 84, 61
3, 165157, Note_on_c, 0, 76, 62
3, 165164, Note_on_c, 0, 57, 60
3, 165323, Control_c, 0, 64, 127
3, 165559, Note_on_c, 0, 54, 70
3, 165576, Control_c, 0, 64, 0
3, 165591, Note_on_c, 0, 57, 0
3, 165646, Control_c, 0, 64, 127
3, 165722, Note_on_c, 0, 88, 0
3, 165752, Note_on_c, 0, 84, 0
3, 165781, Note_on_c, 0, 81, 0
3, 165868, Note_on_c, 0, 64, 0
3, 165907, Note_on_c, 0, 76, 0
3, 165916, Note_on_c, 0, 60, 0
3, 166000, Control_c, 0, 64, 0
3, 166089, Note_on_c, 0, 64, 51
3, 166104, Note_on_c, 0, 84, 47
3, 166113, Note_on_c, 0, 81, 40
3, 166114, Note_on_c, 0, 60, 37
3, 166118, Note_on_c, 0, 72, 43
3, 166131, Control_c, 0, 64, 127
3, 166234, Note_on_c, 0, 81, 0
3, 166249, Note_on_c, 0, 84, 0
3, 166303, Note_on_c, 0, 72, 0
3, 166391, Note_on_c, 0, 64, 0
3, 166564, Note_on_c, 0, 54, 0
3, 166643, Note_on_c, 0, 54, 25
3, 166646, Note_on_c, 0, 81, 48
3, 166660, Note_on_c, 0, 77, 44
3, 166661, Note_on_c, 0, 64, 32
3, 166665, Note_on_c, 0, 69, 28
3, 166679, Note_on_c, 0, 71, 31
3, 166756, Note_on_c, 0, 60, 0
3, 166759, Note_on_c, 0, 77, 0
3, 166767, Note_on_c, 0, 81, 0
3, 166772, Note_on_c, 0, 69, 0
3, 166775, Note_on_c, 0, 71, 0
3, 166823, Note_on_c, 0, 64, 0
3, 166918, Note_on_c, 0, 54, 0
3, 167030, Note_on_c, 0, 67, 38
3, 167041, Control_c, 0, 64, 0
3, 167043, Note_on_c, 0, 73, 37
3, 167045, Note_on_c, 0, 79, 37
3, 167053, Note_on_c, 0, 64, 36
3, 167066, Note_on_c, 0, 59, 36
3, 167084, Note_on_c, 0, 53, 29
3, 167140, Note_on_c, 0, 74, 54
3, 167141, Note_on_c, 0, 73, 0
3, 167304, Control_c, 0, 64, 127
3, 167597, Note_on_c, 0, 67, 0
3, 167611, Note_on_c, 0, 64, 0
3, 167671, Note_on_c, 0, 59, 0
3, 167688, Note_on_c, 0, 79, 0
3, 167766, Note_on_c, 0, 74, 0
3, 167992, Note_on_c, 0, 64, 41
3, 168018, Note_on_c, 0, 59, 33
3, 168352, Note_on_c, 0, 64, 0
3, 168370, Note_on_c, 0, 59, 0
3, 168480, Note_on_c, 0, 53, 0
3, 168737, Note_on_c, 0, 81, 42
3, 168856, Note_on_c, 0, 81, 0
3, 168991, Control_c, 0, 64, 0
3, 168993, Note_on_c, 0, 52, 31
3, 168995, Note_on_c, 0, 62, 26
3, 169007, Note_on_c, 0, 57, 34
3, 169011, Note_on_c, 0, 88, 59
3, 169083, Note_on_c, 0, 57, 0
3, 169092, Note_on_c, 0, 62, 0
3, 169093, Note_on_c, 0, 52, 0
3, 169112, Note_on_c, 0, 88, 0
3, 169284, Note_on_c, 0, 90, 56
3, 169391, Note_on_c, 0, 90, 0
3, 169520, Note_on_c, 0, 92, 58
3, 169639, Note_on_c, 0, 92, 0
3, 169969, Note_on_c, 0, 92, 52
3, 169983, Note_on_c, 0, 52, 34
3, 170045, Note_on_c, 0, 52, 0
3, 170160, Note_on_c, 0, 92, 0
3, 170444, Note_on_c, 0, 90, 44
3, 170623, Note_on_c, 0, 90, 0
3, 170704, Note_on_c, 0, 88, 44
3, 170831, Note_on_c, 0, 88, 0
3, 170884, Note_on_c, 0, 61, 33
3, 170893, Note_on_c, 0, 66, 25
3, 170906, Note_on_c, 0, 81, 48
3, 171013, Note_on_c, 0, 66, 0
3, 171030, Note_on_c, 0, 61, 0
3, 171104, Note_on_c, 0, 81, 0
3, 171457, Note_on_c, 0, 81, 62
3, 171682, Note_on_c, 0, 81, 0
3, 171880, Note_on_c, 0, 61, 37
3, 171892, Note_on_c, 0, 55, 29
3, 171896, Note_on_c, 0, 65, 32
3, 171903, Note_on_c, 0, 81, 54
3, 171971, Note_on_c, 0, 65, 0
3, 172035, Note_on_c, 0, 55, 0
3, 172055, Note_on_c, 0, 61, 0
3, 172101, Note_on_c, 0, 81, 0
3, 172175, Note_on_c, 0, 83, 35
3, 172304, Note_on_c, 0, 83, 0
3, 172359, Note_on_c, 0, 85, 57
3, 172557, Note_on_c, 0, 85, 0
3, 172825, Note_on_c, 0, 74, 44
3, 172836, Note_on_c, 0, 60, 32
3, 172854, Note_on_c, 0, 50, 24
3, 172864, Note_on_c, 0, 54, 30
3, 173045, Note_on_c, 0, 74, 0
3, 173067, Note_on_c, 0, 50, 0
3, 173108, Note_on_c, 0, 60, 0
3, 173119, Note_on_c, 0, 54, 0
3, 173312, Note_on_c, 0, 74, 65
3, 173543, Note_on_c, 0, 74, 0
3, 173615, Note_on_c, 0, 76, 43
3, 173741, Note_on_c, 0, 76, 0
3, 173774, Note_on_c, 0, 65, 31
3, 173775, Note_on_c, 0, 54, 30
3, 173793, Note_on_c, 0, 60, 34
3, 173799, Note_on_c, 0, 78, 51
3, 173929, Note_on_c, 0, 78, 0
3, 173998, Note_on_c, 0, 60, 0
3, 174021, Note_on_c, 0, 54, 0
3, 174048, Note_on_c, 0, 65, 0
3, 174265, Note_on_c, 0, 68, 52
3, 174568, Note_on_c, 0, 68, 0
3, 174737, Note_on_c, 0, 64, 31
3, 174746, Note_on_c, 0, 70, 53
3, 174753, Note_on_c, 0, 59, 32
3, 174778, Note_on_c, 0, 53, 19
3, 174834, Note_on_c, 0, 64, 0
3, 174867, Note_on_c, 0, 53, 0
3, 174890, Note_on_c, 0, 59, 0
3, 174997, Note_on_c, 0, 70, 0
3, 175045, Note_on_c, 0, 72, 43
3, 175203, Note_on_c, 0, 72, 0
3, 175218, Note_on_c, 0, 67, 36
3, 175509, Note_on_c, 0, 67, 0
3, 175676, Note_on_c, 0, 43, 30
3, 175677, Note_on_c, 0, 69, 45
3, 175792, Note_on_c, 0, 43, 0
3, 175917, Note_on_c, 0, 69, 0
3, 175948, Note_on_c, 0, 71, 36
3, 176167, Note_on_c, 0, 71, 0
3, 176181, Note_on_c, 0, 72, 36
3, 176379, Note_on_c, 0, 72, 0
3, 176436, Note_on_c, 0, 74, 50
3, 176532, Note_on_c, 0, 74, 0
3, 176648, Note_on_c, 0, 36, 34
3, 176725, Note_on_c, 0, 83, 54
3, 176739, Note_on_c, 0, 36, 0
3, 177158, Note_on_c, 0, 83, 0
3, 177190, Note_on_c, 0, 79, 42
3, 177192, Note_on_c, 0, 64, 28
3, 177194, Note_on_c, 0, 67, 26
3, 177271, Note_on_c, 0, 79, 0
3, 177336, Note_on_c, 0, 64, 0
3, 177345, Note_on_c, 0, 67, 0
3, 177671, Note_on_c, 0, 76, 43
3, 177702, Note_on_c, 0, 67, 24
3, 177717, Note_on_c, 0, 64, 24
3, 177744, Note_on_c, 0, 62, 22
3, 177985, Control_c, 0, 64, 127
3, 178039, Note_on_c, 0, 67, 0
3, 178072, Note_on_c, 0, 76, 0
3, 178088, Note_on_c, 0, 64, 0
3, 178114, Note_on_c, 0, 62, 0
3, 178152, Note_on_c, 0, 71, 46
3, 178446, Note_on_c, 0, 71, 0
3, 178626, Note_on_c, 0, 63, 38
3, 178630, Note_on_c, 0, 75, 51
3, 178653, Control_c, 0, 64, 0
3, 178658, Note_on_c, 0, 67, 47
3, 178666, Note_on_c, 0, 59, 33
3, 178688, Note_on_c, 0, 53, 24
3, 178807, Control_c, 0, 64, 127
3, 178931, Note_on_c, 0, 63, 0
3, 178956, Note_on_c, 0, 59, 0
3, 179010, Note_on_c, 0, 53, 0
3, 179050, Note_on_c, 0, 75, 0
3, 179088, Note_on_c, 0, 67, 0
3, 179627, Note_on_c, 0, 59, 35
3, 179630, Control_c, 0, 64, 0
3, 179633, Note_on_c, 0, 63, 39
3, 179658, Note_on_c, 0, 43, 24
3, 179660, Note_on_c, 0, 53, 20
3, 179769, Control_c, 0, 64, 127
3, 179796, Note_on_c, 0, 43, 0
3, 179920, Note_on_c, 0, 53, 0
3, 180072, Note_on_c, 0, 59, 0
3, 180227, Note_on_c, 0, 63, 0
3, 180540, Note_on_c, 0, 43, 19
3, 180565, Control_c, 0, 64, 0
3, 180572, Note_on_c, 0, 57, 29
3, 180576, Note_on_c, 0, 36, 19
3, 180599, Note_on_c, 0, 62, 32
3, 180601, Note_on_c, 0, 52, 26
3, 180611, Note_on_c, 0, 59, 26
3, 180821, Control_c, 0, 64, 127
3, 180875, Note_on_c, 0, 36, 0
3, 180938, Note_on_c, 0, 62, 0
3, 180949, Note_on_c, 0, 52, 0
3, 180993, Note_on_c, 0, 59, 0
3, 181017, Note_on_c, 0, 57, 0
3, 181525, Note_on_c, 0, 59, 60
3, 181528, Note_on_c, 0, 52, 46
3, 181529, Note_on_c, 0, 63, 54
3, 181534, Note_on_c, 0, 67, 53
3, 181542, Control_c, 0, 64, 0
3, 181628, Note_on_c, 0, 43, 0
3, 181931, Note_on_c, 0, 52, 0
3, 181963, Control_c, 0, 64, 127
3, 182048, Note_on_c, 0, 59, 0
3, 182132, Note_on_c, 0, 63, 0
3, 182245, Note_on_c, 0, 67, 0
3, 182489, Control_c, 0, 64, 0
3, 182501, Note_on_c, 0, 67, 45
3, 182504, Note_on_c, 0, 63, 28
3, 182512, Note_on_c, 0, 55, 38
3, 182522, Note_on_c, 0, 59, 53
3, 182556, Note_on_c, 0, 44, 37
3, 182561, Note_on_c, 0, 37, 39
3, 182748, Note_on_c, 0, 37, 0
3, 182798, Control_c, 0, 64, 127
3, 182929, Note_on_c, 0, 55, 0
3, 183162, Note_on_c, 0, 59, 0
3, 183211, Note_on_c, 0, 67, 0
3, 183233, Note_on_c, 0, 63, 0
3, 183482, Note_on_c, 0, 63, 33
3, 183499, Note_on_c, 0, 55, 36
3, 183514, Note_on_c, 0, 59, 36
3, 183530, Note_on_c, 0, 53, 16
3, 183580, Control_c, 0, 64, 0
3, 183600, Note_on_c, 0, 44, 0
3, 183654, Note_on_c, 0, 53, 0
3, 183797, Control_c, 0, 64, 127
3, 184033, Note_on_c, 0, 59, 0
3, 184038, Note_on_c, 0, 55, 0
3, 184085, Note_on_c, 0, 42, 25
3, 184285, Control_c, 0, 64, 0
3, 184321, Note_on_c, 0, 42, 0
3, 184363, Note_on_c, 0, 43, 27
3, 184395, Note_on_c, 0, 65, 31
3, 184401, Note_on_c, 0, 53, 27
3, 184403, Note_on_c, 0, 58, 36
3, 184437, Note_on_c, 0, 62, 34
3, 184490, Control_c, 0, 64, 127
3, 184552, Note_on_c, 0, 53, 0
3, 184558, Note_on_c, 0, 43, 0
3, 184654, Note_on_c, 0, 62, 0
3, 184704, Note_on_c, 0, 58, 0
3, 184812, Note_on_c, 0, 63, 0
3, 184896, Note_on_c, 0, 65, 0
3, 185313, Note_on_c, 0, 60, 37
3, 185328, Note_on_c, 0, 56, 45
3, 185441, Note_on_c, 0, 60, 0
3, 185441, Control_c, 0, 64, 0
3, 185501, Note_on_c, 0, 56, 0
3, 185507, Note_on_c, 0, 69, 32
3, 185591, Note_on_c, 0, 69, 0
3, 185617, Note_on_c, 0, 70, 56
3, 185729, Note_on_c, 0, 70, 0
3, 185749, Note_on_c, 0, 69, 33
3, 185811, Note_on_c, 0, 67, 44
3, 185813, Note_on_c, 0, 69, 0
3, 185935, Note_on_c, 0, 67, 0
3, 186039, Note_on_c, 0, 70, 47
3, 186083, Note_on_c, 0, 70, 0
3, 186204, Note_on_c, 0, 72, 24
3, 186282, Note_on_c, 0, 72, 0
3, 186314, Note_on_c, 0, 73, 31
3, 186365, Note_on_c, 0, 73, 0
3, 186382, Note_on_c, 0, 75, 46
3, 186494, Note_on_c, 0, 75, 0
3, 186520, Note_on_c, 0, 76, 58
3, 186636, Note_on_c, 0, 76, 0
3, 186661, Note_on_c, 0, 78, 46
3, 186713, Note_on_c, 0, 78, 0
3, 186978, Note_on_c, 0, 81, 24
3, 187029, Note_on_c, 0, 81, 0
3, 187033, Note_on_c, 0, 82, 47
3, 187133, Note_on_c, 0, 82, 0
3, 187156, Note_on_c, 0, 83, 37
3, 187226, Note_on_c, 0, 64, 29
3, 187240, Note_on_c, 0, 83, 0
3, 187249, Note_on_c, 0, 58, 33
3, 187281, Note_on_c, 0, 84, 51
3, 187392, Note_on_c, 0, 84, 0
3, 187550, Note_on_c, 0, 82, 55
3, 187673, Note_on_c, 0, 82, 0
3, 187782, Note_on_c, 0, 80, 50
3, 187863, Note_on_c, 0, 64, 0
3, 187947, Note_on_c, 0, 58, 0
3, 187960, Note_on_c, 0, 80, 0
3, 187994, Note_on_c, 0, 79, 39
3, 188098, Note_on_c, 0, 79, 0
3, 188157, Note_on_c, 0, 82, 56
3, 188179, Note_on_c, 0, 60, 47
3, 188199, Note_on_c, 0, 63, 36
3, 188234, Note_on_c, 0, 53, 15
3, 188331, Note_on_c, 0, 82, 0
3, 188564, Note_on_c, 0, 80, 59
3, 188797, Note_on_c, 0, 80, 0
3, 188828, Note_on_c, 0, 77, 46
3, 188966, Note_on_c, 0, 77, 0
3, 189168, Note_on_c, 0, 75, 62
3, 189336, Note_on_c, 0, 75, 0
3, 189619, Note_on_c, 0, 53, 0
3, 189653, Note_on_c, 0, 60, 0
3, 189731, Note_on_c, 0, 63, 0
3, 189756, Note_on_c, 0, 73, 33
3, 190001, Note_on_c, 0, 73, 0
3, 190076, Note_on_c, 0, 67, 33
3, 190077, Note_on_c, 0, 56, 36
3, 190080, Note_on_c, 0, 74, 48
3, 190133, Note_on_c, 0, 62, 25
3, 190225, Control_c, 0, 64, 127
3, 190237, Note_on_c, 0, 62, 0
3, 190257, Note_on_c, 0, 67, 0
3, 190359, Note_on_c, 0, 56, 0
3, 190416, Note_on_c, 0, 74, 0
3, 190440, Note_on_c, 0, 77, 48
3, 190609, Note_on_c, 0, 77, 0
3, 190762, Note_on_c, 0, 65, 26
3, 190920, Note_on_c, 0, 65, 0
3, 191086, Control_c, 0, 64, 0
3, 191102, Note_on_c, 0, 56, 35
3, 191109, Note_on_c, 0, 46, 34
3, 191205, Note_on_c, 0, 56, 0
3, 191214, Control_c, 0, 64, 127
3, 191243, Note_on_c, 0, 46, 0
3, 191731, Note_on_c, 0, 47, 34
3, 192074, Control_c, 0, 64, 0
3, 192130, Note_on_c, 0, 40, 28
3, 192142, Note_on_c, 0, 67, 39
3, 192149, Note_on_c, 0, 59, 29
3, 192151, Note_on_c, 0, 62, 33
3, 192366, Note_on_c, 0, 59, 0
3, 192369, Control_c, 0, 64, 127
3, 192376, Note_on_c, 0, 40, 0
3, 192440, Note_on_c, 0, 62, 0
3, 192442, Note_on_c, 0, 47, 0
3, 192445, Note_on_c, 0, 67, 0
3, 192797, Note_on_c, 0, 62, 62
3, 192800, Note_on_c, 0, 71, 60
3, 192801, Note_on_c, 0, 64, 62
3, 192812, Note_on_c, 0, 59, 39
3, 192815, Note_on_c, 0, 67, 53
3, 192817, Control_c, 0, 64, 0
3, 193043, Note_on_c, 0, 67, 0
3, 193044, Note_on_c, 0, 71, 0
3, 193049, Note_on_c, 0, 64, 0
3, 193102, Note_on_c, 0, 62, 0
3, 193224, Note_on_c, 0, 59, 0
3, 193227, Note_on_c, 0, 58, 37
3, 193601, Note_on_c, 0, 58, 0
3, 193612, Control_c, 0, 64, 127
3, 193736, Note_on_c, 0, 71, 54
3, 193754, Note_on_c, 0, 62, 48
3, 193758, Note_on_c, 0, 64, 48
3, 193792, Note_on_c, 0, 59, 35
3, 193807, Note_on_c, 0, 64, 0
3, 193843, Note_on_c, 0, 62, 0
3, 193856, Note_on_c, 0, 71, 0
3, 194094, Note_on_c, 0, 59, 0
3, 194113, Control_c, 0, 64, 0
3, 194151, Note_on_c, 0, 62, 68
3, 194159, Note_on_c, 0, 74, 68
3, 194161, Note_on_c, 0, 63, 74
3, 194169, Note_on_c, 0, 66, 61
3, 194485, Control_c, 0, 64, 127
3, 194766, Note_on_c, 0, 63, 0
3, 194881, Note_on_c, 0, 66, 0
3, 194894, Note_on_c, 0, 74, 0
3, 194973, Control_c, 0, 64, 0
3, 194986, Note_on_c, 0, 62, 0
3, 195037, Note_on_c, 0, 63, 39
3, 195038, Note_on_c, 0, 60, 36
3, 195052, Note_on_c, 0, 66, 31
3, 195077, Note_on_c, 0, 72, 34
3, 195312, Note_on_c, 0, 60, 0
3, 195319, Control_c, 0, 64, 127
3, 195330, Note_on_c, 0, 63, 0
3, 195409, Note_on_c, 0, 66, 0
3, 195731, Note_on_c, 0, 72, 0
3, 195884, Control_c, 0, 64, 0
3, 195943, Note_on_c, 0, 71, 34
3, 195947, Note_on_c, 0, 64, 38
3, 195956, Note_on_c, 0, 60, 24
3, 195970, Note_on_c, 0, 54, 31
3, 195971, Note_on_c, 0, 68, 33
3, 196308, Control_c, 0, 64, 127
3, 196455, Note_on_c, 0, 60, 0
3, 196481, Note_on_c, 0, 64, 0
3, 196678, Note_on_c, 0, 68, 0
3, 196742, Note_on_c, 0, 71, 0
3, 196796, Control_c, 0, 64, 0
3, 196858, Note_on_c, 0, 72, 44
3, 196860, Note_on_c, 0, 62, 38
3, 196864, Note_on_c, 0, 69, 40
3, 196870, Note_on_c, 0, 65, 35
3, 197039, Control_c, 0, 64, 127
3, 197351, Note_on_c, 0, 65, 0
3, 197372, Note_on_c, 0, 54, 0
3, 197401, Note_on_c, 0, 72, 0
3, 197418, Note_on_c, 0, 69, 0
3, 197445, Note_on_c, 0, 62, 0
3, 197790, Note_on_c, 0, 69, 47
3, 197793, Note_on_c, 0, 76, 44
3, 197797, Control_c, 0, 64, 0
3, 197808, Note_on_c, 0, 65, 38
3, 197811, Note_on_c, 0, 64, 47
3, 197813, Note_on_c, 0, 72, 42
3, 197987, Control_c, 0, 64, 127
3, 198195, Note_on_c, 0, 65, 0
3, 198218, Note_on_c, 0, 72, 0
3, 198227, Note_on_c, 0, 69, 0
3, 198245, Note_on_c, 0, 64, 0
3, 198286, Note_on_c, 0, 76, 0
3, 198731, Control_c, 0, 64, 0
3, 198741, Note_on_c, 0, 63, 32
3, 198745, Note_on_c, 0, 79, 43
3, 198755, Note_on_c, 0, 75, 29
3, 198759, Note_on_c, 0, 53, 24
3, 198785, Note_on_c, 0, 67, 17
3, 198791, Note_on_c, 0, 59, 17
3, 198798, Note_on_c, 0, 71, 20
3, 198950, Control_c, 0, 64, 127
3, 199112, Note_on_c, 0, 71, 0
3, 199164, Note_on_c, 0, 59, 0
3, 199184, Note_on_c, 0, 53, 0
3, 199232, Note_on_c, 0, 67, 0
3, 199247, Note_on_c, 0, 63, 0
3, 199311, Note_on_c, 0, 75, 0
3, 199566, Note_on_c, 0, 79, 0
3, 199655, Control_c, 0, 64, 0
3, 199658, Note_on_c, 0, 62, 34
3, 199676, Note_on_c, 0, 76, 40
3, 199680, Note_on_c, 0, 56, 34
3, 199912, Control_c, 0, 64, 127
3, 200113, Note_on_c, 0, 56, 0
3, 200170, Note_on_c, 0, 62, 0
3, 200616, Note_on_c, 0, 67, 30
3, 200625, Note_on_c, 0, 62, 33
3, 200631, Note_on_c, 0, 56, 29
3, 200656, Control_c, 0, 64, 0
3, 200693, Note_on_c, 0, 76, 0
3, 200784, Control_c, 0, 64, 127
3, 201240, Note_on_c, 0, 67, 0
3, 201246, Note_on_c, 0, 82, 82
3, 201267, Note_on_c, 0, 62, 0
3, 201436, Note_on_c, 0, 56, 0
3, 201497, Note_on_c, 0, 82, 0
3, 201575, Note_on_c, 0, 80, 63
3, 201588, Note_on_c, 0, 81, 58
3, 201594, Note_on_c, 0, 61, 32
3, 201596, Note_on_c, 0, 66, 44
3, 201607, Control_c, 0, 64, 0
3, 201614, Note_on_c, 0, 55, 27
3, 201830, Note_on_c, 0, 80, 0
3, 201831, Note_on_c, 0, 81, 0
3, 202179, Note_on_c, 0, 80, 61
3, 202187, Note_on_c, 0, 81, 59
3, 202263, Note_on_c, 0, 81, 0
3, 202325, Note_on_c, 0, 80, 0
3, 202521, Note_on_c, 0, 75, 60
3, 202583, Note_on_c, 0, 76, 32
3, 202782, Note_on_c, 0, 75, 0
3, 202794, Note_on_c, 0, 76, 0
3, 203011, Note_on_c, 0, 66, 0
3, 203116, Note_on_c, 0, 55, 0
3, 203134, Note_on_c, 0, 75, 55
3, 203155, Note_on_c, 0, 76, 66
3, 203317, Note_on_c, 0, 76, 0
3, 203365, Note_on_c, 0, 75, 0
3, 203412, Note_on_c, 0, 61, 0
3, 203496, Note_on_c, 0, 64, 34
3, 203511, Note_on_c, 0, 73, 36
3, 203521, Note_on_c, 0, 54, 23
3, 203545, Note_on_c, 0, 74, 53
3, 203550, Note_on_c, 0, 60, 24
3, 203724, Note_on_c, 0, 74, 0
3, 203792, Note_on_c, 0, 73, 0
3, 203875, Note_on_c, 0, 64, 0
3, 204142, Note_on_c, 0, 69, 27
3, 204267, Note_on_c, 0, 60, 0
3, 204357, Note_on_c, 0, 54, 0
3, 204369, Note_on_c, 0, 69, 0
3, 204427, Note_on_c, 0, 70, 35
3, 204491, Note_on_c, 0, 71, 54
3, 204544, Note_on_c, 0, 70, 0
3, 204551, Note_on_c, 0, 72, 32
3, 204665, Note_on_c, 0, 71, 0
3, 204812, Note_on_c, 0, 72, 0
3, 205054, Note_on_c, 0, 71, 50
3, 205096, Note_on_c, 0, 70, 39
3, 205155, Note_on_c, 0, 72, 40
3, 205223, Note_on_c, 0, 71, 0
3, 205231, Note_on_c, 0, 70, 0
3, 205415, Note_on_c, 0, 72, 0
3, 205550, Note_on_c, 0, 64, 31
3, 205565, Note_on_c, 0, 59, 29
3, 205606, Note_on_c, 0, 53, 17
3, 205743, Note_on_c, 0, 64, 0
3, 205775, Note_on_c, 0, 59, 0
3, 205844, Note_on_c, 0, 53, 0
3, 206103, Note_on_c, 0, 71, 55
3, 206252, Note_on_c, 0, 71, 0
3, 206487, Note_on_c, 0, 63, 33
3, 206506, Note_on_c, 0, 43, 22
3, 206520, Note_on_c, 0, 53, 24
3, 206658, Note_on_c, 0, 43, 0
3, 206726, Note_on_c, 0, 63, 0
3, 206873, Note_on_c, 0, 53, 0
3, 207068, Note_on_c, 0, 63, 34
3, 207101, Note_on_c, 0, 59, 20
3, 207265, Note_on_c, 0, 59, 0
3, 207333, Note_on_c, 0, 63, 0
3, 207429, Note_on_c, 0, 36, 30
3, 207905, Note_on_c, 0, 36, 0
3, 208010, Note_on_c, 0, 43, 32
3, 208280, Note_on_c, 0, 43, 0
3, 208382, Note_on_c, 0, 52, 34
3, 208412, Note_on_c, 0, 62, 30
3, 208414, Note_on_c, 0, 57, 26
3, 208419, Note_on_c, 0, 67, 25
3, 208424, Note_on_c, 0, 59, 20
3, 208527, Note_on_c, 0, 67, 0
3, 208608, Note_on_c, 0, 62, 0
3, 208640, Note_on_c, 0, 52, 0
3, 208654, Note_on_c, 0, 57, 0
3, 208659, Note_on_c, 0, 59, 0
3, 208677, Note_on_c, 0, 43, 26
3, 208958, Note_on_c, 0, 43, 0
3, 208992, Note_on_c, 0, 52, 33
3, 208994, Note_on_c, 0, 57, 31
3, 209004, Note_on_c, 0, 59, 24
3, 209006, Note_on_c, 0, 67, 30
3, 209013, Note_on_c, 0, 62, 39
3, 209236, Note_on_c, 0, 62, 0
3, 209244, Note_on_c, 0, 67, 0
3, 209258, Note_on_c, 0, 52, 0
3, 209260, Note_on_c, 0, 57, 0
3, 209271, Note_on_c, 0, 59, 0
3, 209283, Note_on_c, 0, 43, 27
3, 209601, Note_on_c, 0, 57, 32
3, 209606, Note_on_c, 0, 43, 0
3, 209612, Note_on_c, 0, 62, 40
3, 209614, Note_on_c, 0, 59, 24
3, 209620, Note_on_c, 0, 52, 29
3, 209626, Note_on_c, 0, 67, 29
3, 209820, Note_on_c, 0, 62, 0
3, 209852, Note_on_c, 0, 57, 0
3, 209857, Note_on_c, 0, 67, 0
3, 209862, Note_on_c, 0, 59, 0
3, 209907, Note_on_c, 0, 43, 30
3, 209994, Note_on_c, 0, 52, 0
3, 210243, Note_on_c, 0, 43, 0
3, 210265, Note_on_c, 0, 62, 35
3, 210269, Note_on_c, 0, 57, 27
3, 210272, Note_on_c, 0, 67, 25
3, 210286, Note_on_c, 0, 59, 22
3, 210298, Note_on_c, 0, 36, 32
3, 210453, Note_on_c, 0, 62, 0
3, 210480, Note_on_c, 0, 67, 0
3, 210484, Note_on_c, 0, 57, 0
3, 210488, Note_on_c, 0, 59, 0
3, 210556, Note_on_c, 0, 43, 32
3, 210607, Note_on_c, 0, 36, 0
3, 210872, Note_on_c, 0, 52, 33
3, 210883, Note_on_c, 0, 67, 34
3, 210887, Note_on_c, 0, 57, 30
3, 210890, Note_on_c, 0, 43, 0
3, 210890, Note_on_c, 0, 62, 36
3, 210909, Note_on_c, 0, 59, 22
3, 211104, Note_on_c, 0, 62, 0
3, 211109, Note_on_c, 0, 67, 0
3, 211133, Note_on_c, 0, 59, 0
3, 211136, Note_on_c, 0, 57, 0
3, 211176, Note_on_c, 0, 52, 0
3, 211201, Note_on_c, 0, 43, 29
3, 211513, Note_on_c, 0, 43, 0
3, 211525, Note_on_c, 0, 52, 34
3, 211530, Note_on_c, 0, 55, 34
3, 211532, Note_on_c, 0, 67, 38
3, 211534, Note_on_c, 0, 63, 43
3, 211548, Note_on_c, 0, 59, 50
3, 211656, Note_on_c, 0, 52, 0
3, 211749, Note_on_c, 0, 55, 0
3, 211769, Note_on_c, 0, 59, 0
3, 211820, Note_on_c, 0, 44, 33
3, 211859, Note_on_c, 0, 63, 0
3, 211929, Note_on_c, 0, 67, 0
3, 212121, Note_on_c, 0, 44, 0
3, 212128, Note_on_c, 0, 67, 25
3, 212138, Note_on_c, 0, 59, 34
3, 212151, Note_on_c, 0, 63, 23
3, 212180, Note_on_c, 0, 37, 30
3, 212326, Note_on_c, 0, 59, 0
3, 212395, Note_on_c, 0, 63, 0
3, 212424, Note_on_c, 0, 67, 0
3, 212460, Note_on_c, 0, 44, 37
3, 212483, Note_on_c, 0, 37, 0
3, 212615, Note_on_c, 0, 44, 0
3, 212739, Note_on_c, 0, 53, 38
3, 212759, Note_on_c, 0, 59, 52
3, 212769, Note_on_c, 0, 67, 40
3, 212771, Note_on_c, 0, 63, 33
3, 213020, Note_on_c, 0, 59, 0
3, 213058, Note_on_c, 0, 53, 0
3, 213089, Note_on_c, 0, 44, 28
3, 213090, Note_on_c, 0, 63, 0
3, 213109, Note_on_c, 0, 67, 0
3, 213347, Note_on_c, 0, 67, 52
3, 213359, Note_on_c, 0, 63, 40
3, 213361, Note_on_c, 0, 59, 55
3, 213381, Note_on_c, 0, 44, 0
3, 213390, Note_on_c, 0, 55, 28
3, 213391, Note_on_c, 0, 53, 33
3, 213521, Note_on_c, 0, 55, 0
3, 213569, Note_on_c, 0, 59, 0
3, 213606, Note_on_c, 0, 53, 0
3, 213646, Note_on_c, 0, 67, 0
3, 213647, Note_on_c, 0, 63, 0
3, 213656, Note_on_c, 0, 44, 38
3, 213967, Note_on_c, 0, 67, 51
3, 213972, Note_on_c, 0, 63, 39
3, 213981, Note_on_c, 0, 59, 57
3, 213987, Note_on_c, 0, 44, 0
3, 213989, Note_on_c, 0, 55, 37
3, 213998, Note_on_c, 0, 53, 40
3, 214129, Note_on_c, 0, 55, 0
3, 214174, Note_on_c, 0, 59, 0
3, 214214, Note_on_c, 0, 67, 0
3, 214225, Note_on_c, 0, 53, 0
3, 214251, Note_on_c, 0, 63, 0
3, 214273, Note_on_c, 0, 44, 37
3, 214586, Note_on_c, 0, 44, 0
3, 214589, Note_on_c, 0, 63, 44
3, 214598, Note_on_c, 0, 67, 48
3, 214599, Note_on_c, 0, 59, 57
3, 214611, Note_on_c, 0, 55, 35
3, 214616, Control_c, 0, 64, 127
3, 214617, Note_on_c, 0, 53, 35
3, 214737, Note_on_c, 0, 55, 0
3, 214773, Note_on_c, 0, 59, 0
3, 214886, Note_on_c, 0, 67, 0
3, 214904, Note_on_c, 0, 63, 0
3, 214976, Note_on_c, 0, 53, 0
3, 215027, Control_c, 0, 64, 0
3, 215028, Note_on_c, 0, 43, 43
3, 215031, Note_on_c, 0, 62, 64
3, 215040, Note_on_c, 0, 57, 68
3, 215045, Note_on_c, 0, 58, 54
3, 215321, Control_c, 0, 64, 127
3, 215402, Note_on_c, 0, 43, 0
3, 215429, Note_on_c, 0, 57, 0
3, 215508, Note_on_c, 0, 58, 0
3, 215509, Note_on_c, 0, 62, 0
3, 216064, Note_on_c, 0, 62, 34
3, 216097, Note_on_c, 0, 58, 38
3, 216192, Note_on_c, 0, 62, 0
3, 216239, Note_on_c, 0, 58, 0
3, 216354, Note_on_c, 0, 62, 32
3, 216514, Note_on_c, 0, 62, 0
3, 216625, Note_on_c, 0, 65, 42
3, 216766, Note_on_c, 0, 65, 0
3, 216925, Control_c, 0, 64, 0
3, 216967, Note_on_c, 0, 36, 32
3, 216988, Note_on_c, 0, 70, 53
3, 216989, Note_on_c, 0, 64, 45
3, 217003, Note_on_c, 0, 52, 20
3, 217030, Note_on_c, 0, 36, 0
3, 217143, Control_c, 0, 64, 127
3, 217171, Note_on_c, 0, 52, 0
3, 217422, Note_on_c, 0, 64, 0
3, 217744, Note_on_c, 0, 70, 0
3, 217927, Control_c, 0, 64, 0
3, 217935, Note_on_c, 0, 64, 50
3, 217943, Note_on_c, 0, 42, 35
3, 217955, Note_on_c, 0, 52, 29
3, 217958, Note_on_c, 0, 68, 42
3, 217981, Note_on_c, 0, 72, 25
3, 218144, Control_c, 0, 64, 127
3, 218145, Note_on_c, 0, 52, 0
3, 218169, Note_on_c, 0, 42, 0
3, 218449, Note_on_c, 0, 64, 0
3, 218502, Note_on_c, 0, 68, 0
3, 218772, Note_on_c, 0, 72, 0
3, 218824, Control_c, 0, 64, 0
3, 218873, Note_on_c, 0, 41, 32
3, 218913, Note_on_c, 0, 68, 30
3, 218923, Note_on_c, 0, 62, 24
3, 218927, Note_on_c, 0, 67, 30
3, 218929, Note_on_c, 0, 48, 30
3, 218963, Note_on_c, 0, 56, 17
3, 219055, Note_on_c, 0, 41, 0
3, 219106, Control_c, 0, 64, 127
3, 219134, Note_on_c, 0, 48, 0
3, 219173, Note_on_c, 0, 62, 0
3, 219193, Note_on_c, 0, 56, 0
3, 219386, Note_on_c, 0, 67, 0
3, 219429, Note_on_c, 0, 68, 0
3, 220407, Note_on_c, 0, 68, 59
3, 220648, Note_on_c, 0, 68, 0
3, 220830, Note_on_c, 0, 68, 36
3, 220839, Note_on_c, 0, 58, 50
3, 220857, Note_on_c, 0, 60, 32
3, 220860, Note_on_c, 0, 63, 39
3, 220876, Control_c, 0, 64, 0
3, 220888, Note_on_c, 0, 65, 34
3, 221319, Note_on_c, 0, 46, 55
3, 221345, Note_on_c, 0, 58, 0
3, 221455, Note_on_c, 0, 60, 0
3, 221493, Control_c, 0, 64, 127
3, 221524, Note_on_c, 0, 65, 0
3, 221634, Note_on_c, 0, 68, 0
3, 221707, Note_on_c, 0, 63, 0
3, 221749, Control_c, 0, 64, 0
3, 221780, Note_on_c, 0, 59, 49
3, 221795, Note_on_c, 0, 64, 52
3, 221797, Note_on_c, 0, 56, 48
3, 221807, Note_on_c, 0, 62, 45
3, 221818, Note_on_c, 0, 67, 30
3, 221931, Note_on_c, 0, 46, 0
3, 221941, Control_c, 0, 64, 127
3, 222081, Note_on_c, 0, 67, 0
3, 222086, Note_on_c, 0, 56, 0
3, 222118, Note_on_c, 0, 62, 0
3, 222238, Note_on_c, 0, 46, 37
3, 222252, Note_on_c, 0, 64, 0
3, 222347, Note_on_c, 0, 46, 0
3, 222583, Note_on_c, 0, 59, 0
3, 222634, Control_c, 0, 64, 0
3, 222739, Note_on_c, 0, 62, 58
3, 222741, Note_on_c, 0, 67, 54
3, 222757, Note_on_c, 0, 40, 44
3, 222759, Note_on_c, 0, 55, 38
3, 222769, Note_on_c, 0, 52, 46
3, 222823, Note_on_c, 0, 55, 0
3, 222827, Control_c, 0, 64, 127
3, 222846, Note_on_c, 0, 40, 0
3, 222913, Note_on_c, 0, 62, 0
3, 222917, Note_on_c, 0, 52, 0
3, 222949, Note_on_c, 0, 67, 0
3, 223292, Note_on_c, 0, 79, 70
3, 223293, Note_on_c, 0, 67, 74
3, 223296, Note_on_c, 0, 74, 70
3, 223303, Note_on_c, 0, 62, 68
3, 223306, Note_on_c, 0, 52, 59
3, 223310, Note_on_c, 0, 59, 58
3, 223321, Note_on_c, 0, 55, 57
3, 223564, Note_on_c, 0, 79, 0
3, 223585, Note_on_c, 0, 62, 0
3, 223595, Note_on_c, 0, 52, 0
3, 223599, Note_on_c, 0, 67, 0
3, 223624, Note_on_c, 0, 74, 0
3, 223636, Note_on_c, 0, 55, 0
3, 223660, Note_on_c, 0, 59, 0
3, 223745, Note_on_c, 0, 62, 60
3, 223747, Note_on_c, 0, 79, 64
3, 223749, Note_on_c, 0, 74, 66
3, 223750, Note_on_c, 0, 59, 50
3, 223761, Note_on_c, 0, 52, 52
3, 223763, Note_on_c, 0, 67, 65
3, 223764, Note_on_c, 0, 55, 44
3, 223959, Note_on_c, 0, 62, 0
3, 223968, Note_on_c, 0, 52, 0
3, 223987, Note_on_c, 0, 67, 0
3, 223988, Note_on_c, 0, 79, 0
3, 224015, Note_on_c, 0, 55, 0
3, 224016, Note_on_c, 0, 74, 0
3, 224058, Note_on_c, 0, 59, 0
3, 224209, Note_on_c, 0, 79, 67
3, 224212, Note_on_c, 0, 74, 71
3, 224222, Note_on_c, 0, 67, 60
3, 224224, Note_on_c, 0, 59, 59
3, 224226, Note_on_c, 0, 62, 63
3, 224230, Note_on_c, 0, 55, 46
3, 224231, Note_on_c, 0, 52, 53
3, 224293, Note_on_c, 0, 52, 0
3, 224320, Note_on_c, 0, 67, 0
3, 224323, Note_on_c, 0, 62, 0
3, 224384, Note_on_c, 0, 59, 0
3, 224392, Note_on_c, 0, 55, 0
3, 224398, Note_on_c, 0, 74, 0
3, 224408, Control_c, 0, 64, 0
3, 224419, Note_on_c, 0, 79, 0
3, 224729, Control_c, 0, 64, 127
3, 225112, Note_on_c, 0, 64, 44
3, 225135, Note_on_c, 0, 55, 29
3, 225136, Note_on_c, 0, 86, 58
3, 225143, Note_on_c, 0, 57, 42
3, 225144, Note_on_c, 0, 74, 50
3, 225154, Note_on_c, 0, 83, 42
3, 225157, Note_on_c, 0, 60, 45
3, 225168, Note_on_c, 0, 79, 43
3, 225411, Note_on_c, 0, 74, 0
3, 225418, Note_on_c, 0, 79, 0
3, 225425, Note_on_c, 0, 55, 0
3, 225433, Note_on_c, 0, 86, 0
3, 225441, Note_on_c, 0, 64, 0
3, 225459, Note_on_c, 0, 60, 0
3, 225468, Note_on_c, 0, 83, 0
3, 225475, Note_on_c, 0, 57, 0
3, 225605, Note_on_c, 0, 64, 57
3, 225607, Note_on_c, 0, 57, 42
3, 225608, Note_on_c, 0, 60, 41
3, 225610, Note_on_c, 0, 55, 46
3, 225611, Note_on_c, 0, 86, 68
3, 225621, Note_on_c, 0, 74, 67
3, 225626, Note_on_c, 0, 83, 57
3, 225634, Note_on_c, 0, 79, 54
3, 225879, Note_on_c, 0, 55, 0
3, 225898, Note_on_c, 0, 86, 0
3, 225899, Note_on_c, 0, 74, 0
3, 225916, Note_on_c, 0, 64, 0
3, 225920, Note_on_c, 0, 83, 0
3, 225936, Note_on_c, 0, 57, 0
3, 225945, Note_on_c, 0, 79, 0
3, 225987, Note_on_c, 0, 60, 0
3, 226077, Control_c, 0, 64, 0
3, 226095, Note_on_c, 0, 55, 56
3, 226096, Note_on_c, 0, 84, 68
3, 226097, Note_on_c, 0, 79, 72
3, 226100, Note_on_c, 0, 60, 64
3, 226108, Note_on_c, 0, 64, 67
3, 226109, Note_on_c, 0, 72, 62
3, 226123, Note_on_c, 0, 57, 57
3, 226214, Note_on_c, 0, 72, 0
3, 226219, Note_on_c, 0, 64, 0
3, 226260, Note_on_c, 0, 57, 0
3, 226269, Note_on_c, 0, 55, 0
3, 226278, Note_on_c, 0, 79, 0
3, 226300, Note_on_c, 0, 84, 0
3, 226309, Note_on_c, 0, 60, 0
3, 226525, Control_c, 0, 64, 127
3, 227422, Control_c, 0, 64, 0
3, 227447, Note_on_c, 0, 60, 66
3, 227467, Note_on_c, 0, 76, 66
3, 227477, Note_on_c, 0, 69, 64
3, 227482, Note_on_c, 0, 65, 60
3, 227495, Note_on_c, 0, 72, 40
3, 227546, Note_on_c, 0, 72, 0
3, 227584, Note_on_c, 0, 65, 0
3, 227586, Note_on_c, 0, 69, 0
3, 227599, Note_on_c, 0, 76, 0
3, 227673, Note_on_c, 0, 60, 0
3, 227686, Note_on_c, 0, 59, 40
3, 227760, Note_on_c, 0, 59, 0
3, 227776, Note_on_c, 0, 58, 37
3, 227886, Note_on_c, 0, 58, 0
3, 227914, Note_on_c, 0, 57, 52
3, 227953, Note_on_c, 0, 72, 51
3, 227983, Note_on_c, 0, 65, 49
3, 227985, Note_on_c, 0, 69, 35
3, 228053, Note_on_c, 0, 69, 0
3, 228072, Note_on_c, 0, 72, 0
3, 228089, Note_on_c, 0, 65, 0
3, 228207, Note_on_c, 0, 57, 0
3, 228280, Note_on_c, 0, 69, 54
3, 228304, Note_on_c, 0, 60, 35
3, 228436, Note_on_c, 0, 60, 0
3, 228515, Note_on_c, 0, 69, 0
3, 228596, Note_on_c, 0, 67, 60
3, 228604, Note_on_c, 0, 59, 66
3, 228631, Note_on_c, 0, 63, 47
3, 228633, Note_on_c, 0, 53, 35
3, 229127, Note_on_c, 0, 53, 0
3, 229393, Note_on_c, 0, 43, 26
3, 229489, Control_c, 0, 64, 127
3, 229639, Note_on_c, 0, 43, 0
3, 229786, Note_on_c, 0, 59, 0
3, 229888, Note_on_c, 0, 67, 0
3, 229982, Note_on_c, 0, 63, 0
3, 230026, Note_on_c, 0, 69, 55
3, 230149, Note_on_c, 0, 69, 0
3, 230374, Control_c, 0, 64, 0
3, 230540, Control_c, 0, 64, 127
3, 230967, Note_on_c, 0, 67, 48
3, 230983, Note_on_c, 0, 57, 36
3, 230984, Note_on_c, 0, 62, 37
3, 231002, Control_c, 0, 64, 0
3, 231048, Note_on_c, 0, 46, 25
3, 231069, Note_on_c, 0, 34, 25
3, 231183, Control_c, 0, 64, 127
3, 231246, Note_on_c, 0, 57, 0
3, 231251, Note_on_c, 0, 67, 0
3, 231262, Note_on_c, 0, 62, 0
3, 231272, Note_on_c, 0, 34, 0
3, 231317, Note_on_c, 0, 46, 0
3, 231439, Control_c, 0, 64, 0
3, 231530, Note_on_c, 0, 68, 37
3, 231539, Note_on_c, 0, 63, 44
3, 231545, Note_on_c, 0, 47, 24
3, 231553, Note_on_c, 0, 58, 30
3, 231592, Control_c, 0, 64, 127
3, 231676, Note_on_c, 0, 47, 0
3, 231810, Note_on_c, 0, 58, 0
3, 231852, Note_on_c, 0, 63, 0
3, 231906, Note_on_c, 0, 68, 0
3, 232144, Control_c, 0, 64, 0
3, 232213, Note_on_c, 0, 59, 42
3, 232217, Note_on_c, 0, 69, 44
3, 232222, Note_on_c, 0, 43, 24
3, 232231, Note_on_c, 0, 64, 40
3, 232249, Note_on_c, 0, 62, 40
3, 232290, Note_on_c, 0, 36, 24
3, 232350, Control_c, 0, 64, 127
3, 232693, Note_on_c, 0, 36, 0
3, 232933, Note_on_c, 0, 62, 0
3, 232953, Note_on_c, 0, 64, 0
3, 233000, Note_on_c, 0, 59, 0
3, 233182, Note_on_c, 0, 69, 0
3, 233236, Note_on_c, 0, 59, 35
3, 233241, Note_on_c, 0, 64, 31
3, 233244, Note_on_c, 0, 52, 31
3, 233277, Note_on_c, 0, 62, 34
3, 233281, Note_on_c, 0, 43, 0
3, 233390, Note_on_c, 0, 52, 0
3, 233660, Note_on_c, 0, 59, 0
3, 233744, Note_on_c, 0, 62, 0
3, 233900, Note_on_c, 0, 64, 0
3, 234159, Control_c, 0, 64, 0
3, 234184, Note_on_c, 0, 47, 27
3, 234200, Note_on_c, 0, 40, 36
3, 234208, Note_on_c, 0, 58, 45
3, 234219, Note_on_c, 0, 55, 29
3, 234223, Note_on_c, 0, 67, 38
3, 234255, Note_on_c, 0, 62, 35
3, 234376, Control_c, 0, 64, 127
3, 234393, Note_on_c, 0, 40, 0
3, 234443, Note_on_c, 0, 58, 0
3, 234479, Note_on_c, 0, 47, 0
3, 234524, Note_on_c, 0, 62, 0
3, 234606, Note_on_c, 0, 55, 0
3, 234647, Note_on_c, 0, 67, 0
3, 235197, Note_on_c, 0, 62, 30
3, 235207, Note_on_c, 0, 67, 46
3, 235224, Control_c, 0, 64, 0
3, 235225, Note_on_c, 0, 58, 28
3, 235237, Note_on_c, 0, 52, 18
3, 235380, Note_on_c, 0, 67, 0
3, 235421, Note_on_c, 0, 69, 46
3, 235517, Note_on_c, 0, 52, 0
3, 235560, Note_on_c, 0, 69, 0
3, 235566, Note_on_c, 0, 58, 0
3, 235577, Note_on_c, 0, 70, 59
3, 235654, Note_on_c, 0, 70, 0
3, 235755, Note_on_c, 0, 62, 0
3, 235767, Note_on_c, 0, 72, 27
3, 235823, Note_on_c, 0, 72, 0
3, 235846, Note_on_c, 0, 73, 36
3, 235956, Note_on_c, 0, 73, 0
3, 235956, Note_on_c, 0, 75, 50
3, 236062, Note_on_c, 0, 75, 0
3, 236098, Note_on_c, 0, 76, 59
3, 236113, Note_on_c, 0, 64, 39
3, 236131, Note_on_c, 0, 61, 29
3, 236158, Note_on_c, 0, 58, 38
3, 236213, Note_on_c, 0, 76, 0
3, 236236, Note_on_c, 0, 78, 50
3, 236252, Note_on_c, 0, 64, 0
3, 236270, Note_on_c, 0, 61, 0
3, 236281, Note_on_c, 0, 78, 0
3, 236304, Note_on_c, 0, 58, 0
3, 236378, Note_on_c, 0, 79, 36
3, 236490, Note_on_c, 0, 79, 0
3, 236496, Note_on_c, 0, 81, 47
3, 236600, Note_on_c, 0, 81, 0
3, 236606, Note_on_c, 0, 82, 49
3, 236650, Note_on_c, 0, 82, 0
3, 236752, Note_on_c, 0, 84, 39
3, 236853, Note_on_c, 0, 84, 0
3, 236876, Note_on_c, 0, 85, 31
3, 236972, Note_on_c, 0, 85, 0
3, 236983, Note_on_c, 0, 87, 34
3, 237082, Note_on_c, 0, 55, 18
3, 237089, Note_on_c, 0, 52, 25
3, 237098, Note_on_c, 0, 45, 24
3, 237104, Note_on_c, 0, 88, 56
3, 237120, Note_on_c, 0, 87, 0
3, 237222, Note_on_c, 0, 88, 0
3, 237262, Note_on_c, 0, 91, 66
3, 237419, Note_on_c, 0, 91, 0
3, 237465, Note_on_c, 0, 45, 0
3, 237478, Note_on_c, 0, 52, 0
3, 237509, Note_on_c, 0, 89, 60
3, 237570, Note_on_c, 0, 55, 0
3, 237675, Note_on_c, 0, 89, 0
3, 237724, Note_on_c, 0, 88, 62
3, 237739, Control_c, 0, 64, 127
3, 237879, Note_on_c, 0, 88, 0
3, 237969, Control_c, 0, 64, 0
3, 237973, Note_on_c, 0, 87, 58
3, 238109, Note_on_c, 0, 57, 35
3, 238114, Note_on_c, 0, 60, 22
3, 238141, Note_on_c, 0, 50, 19
3, 238142, Note_on_c, 0, 87, 0
3, 238193, Note_on_c, 0, 88, 58
3, 238355, Control_c, 0, 64, 127
3, 238492, Note_on_c, 0, 88, 0
3, 238551, Note_on_c, 0, 60, 0
3, 238667, Note_on_c, 0, 57, 0
3, 238773, Note_on_c, 0, 50, 0
3, 239151, Control_c, 0, 64, 0
3, 239159, Note_on_c, 0, 62, 62
3, 239166, Note_on_c, 0, 48, 47
3, 239185, Note_on_c, 0, 53, 38
3, 239217, Note_on_c, 0, 57, 31
3, 239345, Note_on_c, 0, 62, 0
3, 239380, Control_c, 0, 64, 127
3, 239398, Note_on_c, 0, 53, 0
3, 239413, Note_on_c, 0, 57, 0
3, 239431, Control_c, 0, 64, 0
3, 239530, Note_on_c, 0, 58, 73
3, 239536, Note_on_c, 0, 55, 61
3, 239544, Note_on_c, 0, 49, 55
3, 239549, Note_on_c, 0, 64, 69
3, 239573, Note_on_c, 0, 61, 37
3, 239586, Control_c, 0, 64, 127
3, 239633, Note_on_c, 0, 48, 0
3, 239728, Note_on_c, 0, 55, 0
3, 239733, Note_on_c, 0, 64, 0
3, 239765, Control_c, 0, 64, 0
3, 239790, Note_on_c, 0, 58, 0
3, 239801, Note_on_c, 0, 49, 0
3, 239814, Note_on_c, 0, 61, 0
3, 239875, Note_on_c, 0, 57, 75
3, 239877, Note_on_c, 0, 60, 64
3, 239887, Note_on_c, 0, 50, 62
3, 239888, Note_on_c, 0, 65, 67
3, 239997, Control_c, 0, 64, 127
3, 240001, Note_on_c, 0, 57, 0
3, 240053, Note_on_c, 0, 65, 0
3, 240061, Note_on_c, 0, 60, 0
3, 240106, Note_on_c, 0, 50, 0
3, 240138, Control_c, 0, 64, 0
3, 240203, Note_on_c, 0, 53, 54
3, 240209, Note_on_c, 0, 60, 61
3, 240213, Note_on_c, 0, 62, 50
3, 240217, Note_on_c, 0, 69, 60
3, 240222, Note_on_c, 0, 65, 53
3, 240463, Note_on_c, 0, 60, 0
3, 240464, Note_on_c, 0, 62, 0
3, 240474, Note_on_c, 0, 53, 0
3, 240503, Note_on_c, 0, 65, 0
3, 240518, Note_on_c, 0, 69, 0
3, 240707, Note_on_c, 0, 60, 43
3, 240710, Note_on_c, 0, 69, 33
3, 240711, Note_on_c, 0, 53, 38
3, 240712, Note_on_c, 0, 52, 42
3, 240714, Note_on_c, 0, 62, 46
3, 240715, Note_on_c, 0, 65, 48
3, 240762, Note_on_c, 0, 52, 0
3, 240928, Note_on_c, 0, 62, 0
3, 240952, Note_on_c, 0, 60, 0
3, 240957, Note_on_c, 0, 65, 0
3, 240981, Note_on_c, 0, 53, 0
3, 240997, Note_on_c, 0, 69, 0
3, 241127, Note_on_c, 0, 52, 32
3, 241216, Note_on_c, 0, 60, 38
3, 241227, Note_on_c, 0, 69, 36
3, 241232, Control_c, 0, 64, 127
3, 241233, Note_on_c, 0, 53, 31
3, 241235, Note_on_c, 0, 62, 39
3, 241236, Note_on_c, 0, 65, 44
3, 241242, Note_on_c, 0, 52, 0
3, 241305, Note_on_c, 0, 53, 0
3, 241882, Note_on_c, 0, 62, 0
3, 241888, Note_on_c, 0, 60, 0
3, 241909, Note_on_c, 0, 65, 0
3, 241948, Note_on_c, 0, 69, 0
3, 241976, Control_c, 0, 64, 0
3, 241990, Note_on_c, 0, 31, 57
3, 242142, Control_c, 0, 64, 127
3, 242173, Note_on_c, 0, 31, 0
3, 242560, Note_on_c, 0, 63, 64
3, 242561, Note_on_c, 0, 55, 53
3, 242566, Control_c, 0, 64, 0
3, 242568, Note_on_c, 0, 59, 57
3, 242574, Note_on_c, 0, 49, 40
3, 242681, Control_c, 0, 64, 127
3, 242766, Note_on_c, 0, 55, 0
3, 242869, Note_on_c, 0, 59, 0
3, 242923, Note_on_c, 0, 63, 0
3, 242950, Control_c, 0, 64, 0
3, 242996, Note_on_c, 0, 65, 62
3, 242996, Note_on_c, 0, 61, 67
3, 243004, Note_on_c, 0, 57, 55
3, 243010, Note_on_c, 0, 51, 56
3, 243055, Note_on_c, 0, 49, 0
3, 243118, Control_c, 0, 64, 127
3, 243211, Note_on_c, 0, 65, 0
3, 243214, Note_on_c, 0, 57, 0
3, 243253, Note_on_c, 0, 61, 0
3, 243399, Control_c, 0, 64, 0
3, 243452, Note_on_c, 0, 63, 67
3, 243454, Note_on_c, 0, 67, 60
3, 243464, Note_on_c, 0, 59, 48
3, 243476, Note_on_c, 0, 53, 58
3, 243517, Note_on_c, 0, 51, 0
3, 243540, Control_c, 0, 64, 127
3, 243581, Note_on_c, 0, 59, 0
3, 243639, Note_on_c, 0, 67, 0
3, 243664, Note_on_c, 0, 63, 0
3, 243752, Note_on_c, 0, 53, 0
3, 243939, Control_c, 0, 64, 0
3, 243944, Note_on_c, 0, 55, 53
3, 243947, Note_on_c, 0, 71, 58
3, 243957, Note_on_c, 0, 63, 58
3, 243976, Note_on_c, 0, 59, 33
3, 243992, Note_on_c, 0, 62, 39
3, 244208, Control_c, 0, 64, 127
3, 244349, Control_c, 0, 64, 0
3, 244373, Note_on_c, 0, 62, 0
3, 244424, Note_on_c, 0, 59, 0
3, 244430, Note_on_c, 0, 56, 59
3, 244442, Note_on_c, 0, 63, 0
3, 244451, Control_c, 0, 64, 127
3, 244531, Note_on_c, 0, 55, 0
3, 244533, Note_on_c, 0, 71, 0
3, 244862, Control_c, 0, 64, 0
3, 244893, Note_on_c, 0, 70, 45
3, 244904, Note_on_c, 0, 63, 46
3, 244907, Note_on_c, 0, 59, 31
3, 244926, Note_on_c, 0, 56, 0
3, 244933, Note_on_c, 0, 57, 55
3, 244938, Note_on_c, 0, 67, 36
3, 245093, Control_c, 0, 64, 127
3, 245309, Note_on_c, 0, 59, 0
3, 245315, Note_on_c, 0, 57, 0
3, 245333, Note_on_c, 0, 67, 0
3, 245387, Note_on_c, 0, 58, 39
3, 245483, Note_on_c, 0, 70, 0
3, 245484, Note_on_c, 0, 63, 0
3, 245802, Note_on_c, 0, 58, 0
3, 245812, Control_c, 0, 64, 0
3, 245832, Note_on_c, 0, 62, 34
3, 245834, Note_on_c, 0, 64, 44
3, 245845, Note_on_c, 0, 69, 36
3, 245850, Note_on_c, 0, 59, 34
3, 246287, Note_on_c, 0, 59, 0
3, 246300, Control_c, 0, 64, 127
3, 246309, Note_on_c, 0, 48, 39
3, 246384, Note_on_c, 0, 62, 0
3, 246496, Note_on_c, 0, 64, 0
3, 246781, Note_on_c, 0, 55, 29
3, 246842, Note_on_c, 0, 69, 0
3, 247253, Note_on_c, 0, 60, 35
3, 247420, Note_on_c, 0, 48, 0
3, 247660, Note_on_c, 0, 55, 0
3, 247697, Control_c, 0, 64, 0
3, 247708, Note_on_c, 0, 77, 36
3, 247727, Note_on_c, 0, 65, 31
3, 247732, Note_on_c, 0, 50, 25
3, 247773, Note_on_c, 0, 72, 26
3, 247993, Control_c, 0, 64, 127
3, 248140, Note_on_c, 0, 60, 0
3, 248229, Note_on_c, 0, 57, 34
3, 248436, Note_on_c, 0, 65, 0
3, 248593, Note_on_c, 0, 72, 0
3, 248686, Note_on_c, 0, 60, 33
3, 248710, Note_on_c, 0, 65, 37
3, 248825, Note_on_c, 0, 50, 0
3, 248833, Note_on_c, 0, 65, 0
3, 248838, Note_on_c, 0, 57, 0
3, 248849, Note_on_c, 0, 60, 0
3, 248958, Note_on_c, 0, 77, 0
3, 249178, Note_on_c, 0, 61, 37
3, 249185, Control_c, 0, 64, 0
3, 249187, Note_on_c, 0, 51, 33
3, 249196, Note_on_c, 0, 66, 43
3, 249205, Note_on_c, 0, 70, 46
3, 249209, Note_on_c, 0, 73, 34
3, 249241, Note_on_c, 0, 58, 33
3, 249277, Control_c, 0, 64, 127
3, 249278, Note_on_c, 0, 54, 23
3, 249454, Note_on_c, 0, 51, 0
3, 249472, Note_on_c, 0, 61, 0
3, 249474, Note_on_c, 0, 66, 0
3, 249498, Note_on_c, 0, 54, 0
3, 249518, Note_on_c, 0, 58, 0
3, 249519, Note_on_c, 0, 70, 0
3, 249536, Note_on_c, 0, 73, 0
3, 249597, Control_c, 0, 64, 0
3, 249640, Note_on_c, 0, 62, 31
3, 249648, Note_on_c, 0, 59, 32
3, 249658, Note_on_c, 0, 52, 31
3, 249660, Note_on_c, 0, 71, 38
3, 249662, Note_on_c, 0, 74, 58
3, 249670, Note_on_c, 0, 67, 44
3, 249857, Control_c, 0, 64, 127
3, 250097, Note_on_c, 0, 62, 0
3, 250132, Note_on_c, 0, 59, 0
3, 250187, Note_on_c, 0, 71, 0
3, 250222, Note_on_c, 0, 74, 0
3, 250247, Note_on_c, 0, 52, 0
3, 250256, Note_on_c, 0, 67, 0
3, 250613, Control_c, 0, 64, 0
3, 250649, Note_on_c, 0, 65, 30
3, 250650, Note_on_c, 0, 69, 36
3, 250661, Note_on_c, 0, 60, 26
3, 250662, Note_on_c, 0, 72, 44
3, 250688, Note_on_c, 0, 57, 33
3, 250693, Note_on_c, 0, 50, 17
3, 250819, Control_c, 0, 64, 127
3, 250964, Note_on_c, 0, 57, 0
3, 250973, Note_on_c, 0, 69, 0
3, 250997, Note_on_c, 0, 60, 0
3, 250999, Note_on_c, 0, 72, 0
3, 251056, Note_on_c, 0, 50, 0
3, 251063, Note_on_c, 0, 65, 0
3, 251512, Control_c, 0, 64, 0
3, 251555, Note_on_c, 0, 71, 40
3, 251559, Note_on_c, 0, 59, 35
3, 251564, Note_on_c, 0, 64, 39
3, 251568, Note_on_c, 0, 62, 30
3, 251590, Note_on_c, 0, 67, 29
3, 251614, Note_on_c, 0, 55, 20
3, 251627, Note_on_c, 0, 48, 14
3, 251691, Control_c, 0, 64, 127
3, 251847, Note_on_c, 0, 59, 0
3, 251854, Note_on_c, 0, 55, 0
3, 251912, Note_on_c, 0, 62, 0
3, 251941, Note_on_c, 0, 48, 0
3, 252040, Note_on_c, 0, 64, 0
3, 252090, Note_on_c, 0, 67, 0
3, 252129, Note_on_c, 0, 71, 0
3, 252474, Control_c, 0, 64, 0
3, 252483, Note_on_c, 0, 60, 32
3, 252490, Note_on_c, 0, 55, 24
3, 252490, Note_on_c, 0, 45, 32
3, 252494, Note_on_c, 0, 64, 42
3, 252504, Note_on_c, 0, 67, 35
3, 252628, Control_c, 0, 64, 127
3, 252705, Note_on_c, 0, 55, 0
3, 252728, Note_on_c, 0, 67, 0
3, 252817, Note_on_c, 0, 45, 0
3, 252819, Note_on_c, 0, 64, 0
3, 252897, Note_on_c, 0, 60, 0
3, 253320, Control_c, 0, 64, 0
3, 253408, Note_on_c, 0, 60, 38
3, 253409, Note_on_c, 0, 57, 43
3, 253420, Note_on_c, 0, 52, 33
3, 253423, Note_on_c, 0, 42, 34
3, 253512, Control_c, 0, 64, 127
3, 253571, Note_on_c, 0, 57, 0
3, 253637, Note_on_c, 0, 42, 0
3, 253653, Note_on_c, 0, 60, 0
3, 253684, Note_on_c, 0, 52, 0
3, 254334, Control_c, 0, 64, 0
3, 254356, Note_on_c, 0, 69, 71
3, 254361, Note_on_c, 0, 64, 48
3, 254369, Note_on_c, 0, 66, 69
3, 254383, Note_on_c, 0, 60, 33
3, 254387, Note_on_c, 0, 54, 31
3, 254543, Note_on_c, 0, 66, 0
3, 254609, Note_on_c, 0, 67, 59
3, 254654, Control_c, 0, 64, 127
3, 254659, Note_on_c, 0, 71, 48
3, 254663, Note_on_c, 0, 64, 0
3, 254685, Note_on_c, 0, 69, 0
3, 254723, Note_on_c, 0, 71, 0
3, 254795, Note_on_c, 0, 67, 0
3, 254909, Note_on_c, 0, 72, 45
3, 255041, Note_on_c, 0, 72, 0
3, 255183, Note_on_c, 0, 60, 0
3, 255296, Note_on_c, 0, 71, 84
3, 255298, Note_on_c, 0, 74, 79
3, 255310, Control_c, 0, 64, 0
3, 255317, Note_on_c, 0, 64, 41
3, 255338, Note_on_c, 0, 60, 35
3, 255604, Note_on_c, 0, 71, 0
3, 255618, Note_on_c, 0, 74, 0
3, 255642, Note_on_c, 0, 64, 0
3, 255668, Control_c, 0, 64, 127
3, 255686, Note_on_c, 0, 69, 64
3, 255688, Note_on_c, 0, 72, 48
3, 255870, Note_on_c, 0, 69, 0
3, 255874, Note_on_c, 0, 72, 0
3, 256012, Note_on_c, 0, 74, 69
3, 256015, Note_on_c, 0, 71, 72
3, 256028, Note_on_c, 0, 60, 0
3, 256220, Note_on_c, 0, 74, 0
3, 256250, Note_on_c, 0, 71, 0
3, 256272, Control_c, 0, 64, 0
3, 256302, Note_on_c, 0, 64, 29
3, 256330, Note_on_c, 0, 60, 33
3, 256331, Note_on_c, 0, 69, 55
3, 256337, Note_on_c, 0, 72, 50
3, 256373, Control_c, 0, 64, 127
3, 256445, Note_on_c, 0, 64, 0
3, 256472, Note_on_c, 0, 54, 0
3, 256537, Note_on_c, 0, 60, 0
3, 256815, Note_on_c, 0, 69, 0
3, 256876, Note_on_c, 0, 72, 0
3, 257273, Control_c, 0, 64, 0
3, 257274, Note_on_c, 0, 57, 34
3, 257276, Note_on_c, 0, 47, 35
3, 257440, Control_c, 0, 64, 127
3, 257838, Note_on_c, 0, 57, 0
3, 257998, Note_on_c, 0, 66, 56
3, 258156, Note_on_c, 0, 59, 44
3, 258197, Note_on_c, 0, 66, 0
3, 258247, Control_c, 0, 64, 0
3, 258311, Note_on_c, 0, 57, 24
3, 258342, Note_on_c, 0, 59, 0
3, 258370, Note_on_c, 0, 67, 55
3, 258416, Note_on_c, 0, 57, 0
3, 258516, Control_c, 0, 64, 127
3, 258531, Note_on_c, 0, 59, 43
3, 258561, Note_on_c, 0, 67, 0
3, 258680, Note_on_c, 0, 59, 0
3, 258714, Note_on_c, 0, 69, 46
3, 258860, Note_on_c, 0, 69, 0
3, 258900, Note_on_c, 0, 59, 37
3, 259032, Note_on_c, 0, 59, 0
3, 259060, Note_on_c, 0, 71, 64
3, 259216, Note_on_c, 0, 71, 0
3, 259239, Note_on_c, 0, 47, 0
3, 259283, Note_on_c, 0, 59, 44
3, 259351, Control_c, 0, 64, 0
3, 259371, Note_on_c, 0, 59, 0
3, 259408, Note_on_c, 0, 57, 37
3, 259420, Note_on_c, 0, 47, 20
3, 259445, Note_on_c, 0, 72, 47
3, 259623, Note_on_c, 0, 72, 0
3, 259733, Note_on_c, 0, 57, 0
3, 259744, Note_on_c, 0, 72, 53
3, 259912, Note_on_c, 0, 72, 0
3, 260006, Control_c, 0, 64, 127
3, 260029, Note_on_c, 0, 59, 32
3, 260403, Control_c, 0, 64, 0
3, 260416, Control_c, 0, 64, 127
3, 260417, Note_on_c, 0, 57, 47
3, 260518, Note_on_c, 0, 47, 0
3, 260593, Note_on_c, 0, 57, 0
3, 260981, Note_on_c, 0, 59, 0
3, 261038, Note_on_c, 0, 47, 40
3, 261340, Control_c, 0, 64, 0
3, 261374, Note_on_c, 0, 40, 42
3, 261378, Note_on_c, 0, 71, 57
3, 261381, Note_on_c, 0, 62, 58
3, 261422, Note_on_c, 0, 55, 36
3, 261431, Note_on_c, 0, 47, 0
3, 261544, Control_c, 0, 64, 127
3, 261580, Note_on_c, 0, 40, 0
3, 261725, Note_on_c, 0, 55, 0
3, 261930, Note_on_c, 0, 62, 0
3, 262213, Note_on_c, 0, 62, 40
3, 262247, Note_on_c, 0, 55, 32
3, 262263, Note_on_c, 0, 59, 22
3, 262632, Note_on_c, 0, 55, 0
3, 262662, Note_on_c, 0, 59, 0
3, 262732, Note_on_c, 0, 62, 0
3, 262763, Note_on_c, 0, 67, 61
3, 262831, Note_on_c, 0, 71, 0
3, 263097, Control_c, 0, 64, 0
3, 263111, Note_on_c, 0, 67, 0
3, 263124, Note_on_c, 0, 66, 57
3, 263141, Note_on_c, 0, 61, 31
3, 263156, Note_on_c, 0, 65, 37
3, 263166, Note_on_c, 0, 55, 20
3, 263495, Control_c, 0, 64, 127
3, 263751, Note_on_c, 0, 55, 0
3, 263779, Note_on_c, 0, 65, 0
3, 263902, Note_on_c, 0, 61, 0
3, 263996, Control_c, 0, 64, 0
3, 264012, Note_on_c, 0, 61, 21
3, 264037, Note_on_c, 0, 65, 33
3, 264049, Note_on_c, 0, 55, 19
3, 264282, Note_on_c, 0, 65, 0
3, 264303, Control_c, 0, 64, 127
3, 264394, Note_on_c, 0, 66, 0
3, 264405, Note_on_c, 0, 67, 51
3, 264424, Note_on_c, 0, 61, 0
3, 264433, Note_on_c, 0, 55, 0
3, 264628, Note_on_c, 0, 67, 0
3, 264696, Note_on_c, 0, 68, 60
3, 264931, Control_c, 0, 64, 0
3, 264939, Note_on_c, 0, 68, 0
3, 264985, Note_on_c, 0, 60, 36
3, 264999, Note_on_c, 0, 69, 50
3, 265027, Note_on_c, 0, 50, 24
3, 265214, Note_on_c, 0, 69, 0
3, 265290, Note_on_c, 0, 64, 46
3, 265715, Control_c, 0, 64, 127
3, 265867, Control_c, 0, 64, 0
3, 265914, Note_on_c, 0, 65, 66
3, 265916, Note_on_c, 0, 57, 34
3, 265978, Note_on_c, 0, 64, 0
3, 266460, Control_c, 0, 64, 127
3, 266487, Note_on_c, 0, 50, 0
3, 266510, Note_on_c, 0, 57, 0
3, 266553, Note_on_c, 0, 66, 60
3, 266603, Note_on_c, 0, 60, 0
3, 266634, Note_on_c, 0, 65, 0
3, 266831, Control_c, 0, 64, 0
3, 266878, Note_on_c, 0, 64, 42
3, 266906, Note_on_c, 0, 59, 36
3, 266936, Note_on_c, 0, 53, 17
3, 267102, Note_on_c, 0, 64, 0
3, 267125, Control_c, 0, 64, 127
3, 267182, Note_on_c, 0, 59, 0
3, 267237, Note_on_c, 0, 53, 0
3, 267243, Note_on_c, 0, 66, 0
3, 267248, Note_on_c, 0, 67, 55
3, 267536, Note_on_c, 0, 68, 67
3, 267573, Note_on_c, 0, 67, 0
3, 267856, Control_c, 0, 64, 0
3, 267882, Note_on_c, 0, 43, 30
3, 267888, Note_on_c, 0, 75, 62
3, 267898, Note_on_c, 0, 68, 0
3, 267933, Note_on_c, 0, 53, 20
3, 268080, Note_on_c, 0, 43, 0
3, 268126, Control_c, 0, 64, 127
3, 268177, Note_on_c, 0, 75, 0
3, 268185, Note_on_c, 0, 71, 46
3, 268216, Note_on_c, 0, 53, 0
3, 268401, Note_on_c, 0, 71, 0
3, 268821, Note_on_c, 0, 74, 61
3, 268832, Control_c, 0, 64, 0
3, 268834, Note_on_c, 0, 36, 26
3, 268865, Note_on_c, 0, 52, 24
3, 269098, Note_on_c, 0, 36, 0
3, 269191, Control_c, 0, 64, 127
3, 269213, Note_on_c, 0, 67, 44
3, 269292, Note_on_c, 0, 52, 0
3, 269647, Note_on_c, 0, 74, 0
3, 269795, Note_on_c, 0, 62, 35
3, 269807, Control_c, 0, 64, 0
3, 269811, Note_on_c, 0, 71, 53
3, 269853, Note_on_c, 0, 57, 33
3, 269891, Note_on_c, 0, 67, 0
3, 269939, Note_on_c, 0, 52, 7
3, 270045, Note_on_c, 0, 62, 0
3, 270064, Control_c, 0, 64, 127
3, 270161, Note_on_c, 0, 57, 0
3, 270202, Note_on_c, 0, 62, 16
3, 270245, Note_on_c, 0, 71, 0
3, 270466, Note_on_c, 0, 62, 0
3, 270647, Note_on_c, 0, 52, 0
3, 270851, Note_on_c, 0, 67, 46
3, 270872, Note_on_c, 0, 64, 39
3, 270873, Note_on_c, 0, 62, 36
3, 270885, Control_c, 0, 64, 0
3, 271333, Control_c, 0, 64, 127
3, 271375, Note_on_c, 0, 51, 46
3, 271411, Control_c, 0, 64, 0
3, 271756, Control_c, 0, 64, 127
3, 271759, Note_on_c, 0, 51, 0
3, 271809, Note_on_c, 0, 52, 32
3, 272107, Note_on_c, 0, 62, 0
3, 272115, Note_on_c, 0, 64, 0
3, 272136, Note_on_c, 0, 52, 0
3, 272263, Note_on_c, 0, 67, 0
3, 272289, Note_on_c, 0, 48, 27
3, 272332, Note_on_c, 0, 48, 0
3, 272643, Control_c, 0, 64, 0
3, 272752, Note_on_c, 0, 63, 31
3, 272756, Note_on_c, 0, 67, 27
3, 272760, Note_on_c, 0, 59, 44
3, 272765, Note_on_c, 0, 53, 34
3, 272768, Note_on_c, 0, 37, 31
3, 272769, Note_on_c, 0, 55, 28
3, 272770, Note_on_c, 0, 44, 32
3, 272794, Note_on_c, 0, 65, 27
3, 273608, Control_c, 0, 64, 127
3, 273624, Note_on_c, 0, 53, 0
3, 273637, Note_on_c, 0, 55, 0
3, 273649, Note_on_c, 0, 59, 0
3, 273671, Note_on_c, 0, 65, 0
3, 273688, Note_on_c, 0, 37, 0
3, 273698, Note_on_c, 0, 67, 0
3, 273707, Note_on_c, 0, 63, 0
3, 273719, Note_on_c, 0, 44, 0
3, 274058, Control_c, 0, 64, 0
3, 274174, Note_on_c, 0, 63, 21
3, 274183, Note_on_c, 0, 67, 32
3, 274193, Note_on_c, 0, 59, 45
3, 274197, Note_on_c, 0, 55, 30
3, 274214, Note_on_c, 0, 53, 33
3, 274227, Note_on_c, 0, 44, 32
3, 274233, Note_on_c, 0, 37, 32
3, 275521, Control_c, 0, 64, 127
3, 275636, Note_on_c, 0, 37, 0
3, 275646, Note_on_c, 0, 44, 0
3, 275731, Note_on_c, 0, 53, 0
3, 275832, Note_on_c, 0, 67, 0
3, 275841, Note_on_c, 0, 59, 0
3, 275860, Note_on_c, 0, 55, 0
3, 276263, Note_on_c, 0, 63, 0
3, 276442, Control_c, 0, 64, 0
3, 276545, Note_on_c, 0, 53, 30
3, 276547, Note_on_c, 0, 65, 32
3, 276552, Note_on_c, 0, 43, 24
3, 276555, Note_on_c, 0, 55, 22
3, 276567, Note_on_c, 0, 58, 32
3, 276576, Note_on_c, 0, 62, 33
3, 276729, Note_on_c, 0, 62, 0
3, 276907, Note_on_c, 0, 65, 0
3, 276907, Note_on_c, 0, 55, 0
3, 276963, Note_on_c, 0, 58, 0
3, 276977, Note_on_c, 0, 43, 0
3, 277075, Note_on_c, 0, 61, 53
3, 277082, Note_on_c, 0, 49, 36
3, 277091, Note_on_c, 0, 58, 20
3, 277187, Note_on_c, 0, 53, 0
3, 277259, Note_on_c, 0, 49, 0
3, 277296, Note_on_c, 0, 61, 0
3, 277303, Note_on_c, 0, 58, 0
3, 277358, Note_on_c, 0, 50, 36
3, 277373, Note_on_c, 0, 62, 43
3, 277518, Note_on_c, 0, 62, 0
3, 277557, Note_on_c, 0, 50, 0
3, 277662, Note_on_c, 0, 65, 58
3, 277680, Note_on_c, 0, 53, 32
3, 277745, Note_on_c, 0, 53, 0
3, 277765, Note_on_c, 0, 65, 0
3, 277935, Note_on_c, 0, 69, 59
3, 277963, Note_on_c, 0, 57, 34
3, 278067, Note_on_c, 0, 69, 0
3, 278142, Note_on_c, 0, 57, 0
3, 278184, Note_on_c, 0, 60, 39
3, 278187, Note_on_c, 0, 72, 64
3, 278288, Note_on_c, 0, 60, 0
3, 278297, Note_on_c, 0, 72, 0
3, 278453, Note_on_c, 0, 75, 37
3, 278453, Note_on_c, 0, 64, 41
3, 278479, Note_on_c, 0, 67, 33
3, 278480, Note_on_c, 0, 63, 68
3, 278484, Note_on_c, 0, 70, 40
3, 278639, Note_on_c, 0, 67, 0
3, 278676, Note_on_c, 0, 64, 0
3, 278691, Note_on_c, 0, 75, 0
3, 278693, Note_on_c, 0, 70, 0
3, 278712, Note_on_c, 0, 63, 0
3, 278841, Note_on_c, 0, 64, 55
3, 278846, Note_on_c, 0, 75, 39
3, 278854, Note_on_c, 0, 63, 46
3, 278859, Note_on_c, 0, 70, 37
3, 278864, Note_on_c, 0, 67, 44
3, 279162, Control_c, 0, 64, 127
3, 279173, Note_on_c, 0, 67, 0
3, 279203, Note_on_c, 0, 63, 0
3, 279224, Note_on_c, 0, 70, 0
3, 279240, Control_c, 0, 64, 0
3, 279246, Note_on_c, 0, 64, 0
3, 279299, Note_on_c, 0, 75, 0
3, 279404, Note_on_c, 0, 64, 50
3, 279411, Note_on_c, 0, 58, 47
3, 279413, Note_on_c, 0, 73, 35
3, 279416, Note_on_c, 0, 70, 38
3, 279449, Note_on_c, 0, 67, 36
3, 279511, Control_c, 0, 64, 127
3, 279676, Note_on_c, 0, 67, 0
3, 279742, Note_on_c, 0, 64, 0
3, 279750, Note_on_c, 0, 70, 0
3, 279751, Note_on_c, 0, 73, 0
3, 279773, Note_on_c, 0, 58, 0
3, 279779, Control_c, 0, 64, 0
3, 279939, Note_on_c, 0, 72, 51
3, 279944, Note_on_c, 0, 64, 54
3, 279956, Note_on_c, 0, 67, 41
3, 279985, Control_c, 0, 64, 127
3, 279987, Note_on_c, 0, 57, 35
3, 280061, Note_on_c, 0, 67, 0
3, 280062, Note_on_c, 0, 72, 0
3, 280142, Note_on_c, 0, 64, 0
3, 280240, Control_c, 0, 64, 0
3, 280381, Note_on_c, 0, 57, 0
3, 280382, Note_on_c, 0, 70, 44
3, 280404, Note_on_c, 0, 67, 47
3, 280426, Note_on_c, 0, 60, 20
3, 280430, Note_on_c, 0, 63, 30
3, 280431, Note_on_c, 0, 56, 40
3, 280627, Control_c, 0, 64, 127
3, 280738, Note_on_c, 0, 56, 0
3, 280830, Note_on_c, 0, 67, 0
3, 281002, Note_on_c, 0, 63, 0
3, 281003, Note_on_c, 0, 60, 0
3, 281093, Note_on_c, 0, 70, 0
3, 281254, Control_c, 0, 64, 0
3, 281303, Note_on_c, 0, 68, 46
3, 281314, Note_on_c, 0, 60, 35
3, 281329, Note_on_c, 0, 63, 40
3, 281361, Note_on_c, 0, 53, 19
3, 281448, Control_c, 0, 64, 127
3, 281843, Note_on_c, 0, 60, 0
3, 281895, Note_on_c, 0, 68, 0
3, 282021, Note_on_c, 0, 63, 0
3, 282243, Control_c, 0, 64, 0
3, 282246, Note_on_c, 0, 59, 26
3, 282255, Note_on_c, 0, 67, 38
3, 282265, Note_on_c, 0, 64, 34
3, 282282, Note_on_c, 0, 62, 34
3, 282283, Note_on_c, 0, 46, 25
3, 282284, Note_on_c, 0, 56, 23
3, 282397, Note_on_c, 0, 53, 0
3, 282551, Control_c, 0, 64, 127
3, 282748, Note_on_c, 0, 64, 0
3, 282754, Note_on_c, 0, 56, 0
3, 282863, Note_on_c, 0, 62, 0
3, 282864, Note_on_c, 0, 46, 0
3, 282933, Note_on_c, 0, 59, 0
3, 283065, Note_on_c, 0, 67, 0
3, 283189, Note_on_c, 0, 59, 32
3, 283200, Note_on_c, 0, 65, 46
3, 283205, Control_c, 0, 64, 0
3, 283235, Note_on_c, 0, 62, 26
3, 283257, Control_c, 0, 64, 127
3, 283653, Note_on_c, 0, 62, 0
3, 283663, Note_on_c, 0, 59, 0
3, 283978, Note_on_c, 0, 65, 0
3, 284103, Control_c, 0, 64, 0
3, 284193, Note_on_c, 0, 67, 39
3, 284211, Note_on_c, 0, 40, 28
3, 284213, Note_on_c, 0, 62, 33
3, 284232, Note_on_c, 0, 55, 19
3, 284321, Control_c, 0, 64, 127
3, 284346, Note_on_c, 0, 40, 0
3, 284549, Note_on_c, 0, 55, 0
3, 284808, Note_on_c, 0, 62, 0
3, 284896, Note_on_c, 0, 67, 0
3, 285090, Control_c, 0, 64, 0
3, 285150, Note_on_c, 0, 55, 31
3, 285155, Note_on_c, 0, 67, 38
3, 285162, Note_on_c, 0, 59, 24
3, 285163, Note_on_c, 0, 62, 39
3, 285232, Control_c, 0, 64, 127
3, 285358, Note_on_c, 0, 55, 0
3, 285423, Note_on_c, 0, 59, 0
3, 285480, Note_on_c, 0, 62, 0
3, 285601, Note_on_c, 0, 67, 0
3, 286065, Control_c, 0, 64, 0
3, 286095, Note_on_c, 0, 74, 65
3, 286096, Note_on_c, 0, 71, 62
3, 286099, Note_on_c, 0, 62, 49
3, 286100, Note_on_c, 0, 67, 66
3, 286272, Control_c, 0, 64, 127
3, 286535, Note_on_c, 0, 62, 0
3, 286588, Note_on_c, 0, 67, 0
3, 286652, Note_on_c, 0, 74, 0
3, 286681, Note_on_c, 0, 71, 0
3, 287079, Control_c, 0, 64, 0
3, 287082, Note_on_c, 0, 63, 37
3, 287096, Note_on_c, 0, 66, 39
3, 287098, Note_on_c, 0, 70, 46
3, 287102, Note_on_c, 0, 73, 32
3, 287105, Note_on_c, 0, 61, 35
3, 287178, Note_on_c, 0, 58, 27
3, 287275, Control_c, 0, 64, 127
3, 287520, Note_on_c, 0, 63, 0
3, 287539, Note_on_c, 0, 61, 0
3, 287544, Note_on_c, 0, 66, 0
3, 287582, Note_on_c, 0, 58, 0
3, 287673, Note_on_c, 0, 73, 0
3, 287756, Note_on_c, 0, 70, 0
3, 287994, Control_c, 0, 64, 0
3, 288046, Note_on_c, 0, 62, 33
3, 288047, Note_on_c, 0, 65, 42
3, 288062, Note_on_c, 0, 69, 34
3, 288066, Note_on_c, 0, 60, 27
3, 288069, Note_on_c, 0, 72, 37
3, 288090, Note_on_c, 0, 57, 28
3, 288172, Control_c, 0, 64, 127
3, 288398, Note_on_c, 0, 60, 0
3, 288413, Note_on_c, 0, 62, 0
3, 288430, Note_on_c, 0, 57, 0
3, 288481, Note_on_c, 0, 72, 0
3, 288503, Note_on_c, 0, 69, 0
3, 288552, Note_on_c, 0, 65, 0
3, 288904, Control_c, 0, 64, 0
3, 288936, Note_on_c, 0, 68, 42
3, 288940, Note_on_c, 0, 64, 40
3, 288942, Note_on_c, 0, 71, 41
3, 288957, Note_on_c, 0, 60, 28
3, 288961, Note_on_c, 0, 56, 37
3, 289084, Control_c, 0, 64, 127
3, 289287, Note_on_c, 0, 60, 0
3, 289314, Note_on_c, 0, 56, 0
3, 289333, Note_on_c, 0, 71, 0
3, 289377, Note_on_c, 0, 68, 0
3, 289400, Note_on_c, 0, 64, 0
3, 289816, Control_c, 0, 64, 0
3, 289903, Note_on_c, 0, 60, 33
3, 289911, Note_on_c, 0, 69, 35
3, 289923, Note_on_c, 0, 65, 42
3, 289935, Note_on_c, 0, 57, 27
3, 289946, Note_on_c, 0, 50, 24
3, 289995, Control_c, 0, 64, 127
3, 290204, Note_on_c, 0, 57, 0
3, 290282, Note_on_c, 0, 50, 0
3, 290339, Note_on_c, 0, 69, 0
3, 290417, Note_on_c, 0, 60, 0
3, 290483, Note_on_c, 0, 65, 0
3, 290868, Control_c, 0, 64, 0
3, 290869, Note_on_c, 0, 43, 29
3, 290872, Note_on_c, 0, 68, 39
3, 290881, Note_on_c, 0, 59, 33
3, 290906, Note_on_c, 0, 63, 30
3, 290912, Note_on_c, 0, 53, 24
3, 291034, Control_c, 0, 64, 127
3, 291074, Note_on_c, 0, 43, 0
3, 291237, Note_on_c, 0, 53, 0
3, 291352, Note_on_c, 0, 68, 0
3, 291361, Note_on_c, 0, 59, 0
3, 291496, Note_on_c, 0, 63, 0
3, 291829, Control_c, 0, 64, 0
3, 291850, Note_on_c, 0, 43, 18
3, 291851, Note_on_c, 0, 67, 40
3, 291859, Note_on_c, 0, 57, 39
3, 291877, Note_on_c, 0, 62, 36
3, 291878, Note_on_c, 0, 36, 20
3, 291889, Note_on_c, 0, 52, 26
3, 292125, Control_c, 0, 64, 127
3, 292276, Note_on_c, 0, 43, 0
3, 292346, Note_on_c, 0, 52, 0
3, 292357, Note_on_c, 0, 43, 66
3, 292711, Note_on_c, 0, 36, 0
3, 292792, Note_on_c, 0, 50, 81
3, 292823, Note_on_c, 0, 43, 0
3, 292869, Control_c, 0, 64, 0
3, 292933, Control_c, 0, 64, 127
3, 293201, Note_on_c, 0, 50, 0
3, 293256, Note_on_c, 0, 52, 76
3, 293292, Control_c, 0, 64, 0
3, 293326, Note_on_c, 0, 57, 0
3, 293342, Note_on_c, 0, 62, 0
3, 293369, Control_c, 0, 64, 127
3, 293460, Note_on_c, 0, 67, 0
3, 293676, Control_c, 0, 64, 0
3, 293722, Note_on_c, 0, 61, 44
3, 293725, Note_on_c, 0, 58, 62
3, 293730, Note_on_c, 0, 67, 51
3, 293739, Note_on_c, 0, 64, 42
3, 294240, Note_on_c, 0, 55, 83
3, 294306, Note_on_c, 0, 52, 0
3, 294540, Note_on_c, 0, 67, 0
3, 294567, Note_on_c, 0, 58, 0
3, 294602, Note_on_c, 0, 64, 0
3, 294625, Note_on_c, 0, 61, 0
3, 294752, Note_on_c, 0, 61, 33
3, 294753, Note_on_c, 0, 58, 39
3, 294764, Note_on_c, 0, 64, 41
3, 294766, Note_on_c, 0, 67, 34
3, 295216, Control_c, 0, 64, 127
3, 295228, Note_on_c, 0, 52, 45
3, 295258, Note_on_c, 0, 64, 0
3, 295267, Note_on_c, 0, 58, 0
3, 295352, Note_on_c, 0, 55, 0
3, 295477, Note_on_c, 0, 61, 0
3, 295557, Note_on_c, 0, 67, 0
3, 295601, Control_c, 0, 64, 0
3, 295686, Note_on_c, 0, 67, 34
3, 295704, Note_on_c, 0, 60, 50
3, 295718, Note_on_c, 0, 57, 52
3, 295727, Note_on_c, 0, 65, 35
3, 295763, Note_on_c, 0, 52, 0
3, 296204, Note_on_c, 0, 55, 49
3, 296646, Note_on_c, 0, 43, 49
3, 296782, Control_c, 0, 64, 127
3, 296838, Note_on_c, 0, 57, 0
3, 296890, Note_on_c, 0, 67, 0
3, 296916, Note_on_c, 0, 60, 0
3, 296963, Note_on_c, 0, 55, 0
3, 297036, Note_on_c, 0, 65, 0
3, 297130, Note_on_c, 0, 67, 48
3, 297132, Note_on_c, 0, 57, 53
3, 297143, Note_on_c, 0, 60, 43
3, 297154, Note_on_c, 0, 55, 38
3, 297157, Note_on_c, 0, 65, 8
3, 297349, Note_on_c, 0, 57, 0
3, 297399, Note_on_c, 0, 60, 0
3, 297475, Note_on_c, 0, 55, 0
3, 297486, Note_on_c, 0, 67, 0
3, 297537, Note_on_c, 0, 65, 0
3, 297565, Control_c, 0, 64, 0
3, 297653, Note_on_c, 0, 67, 40
3, 297656, Note_on_c, 0, 59, 40
3, 297665, Note_on_c, 0, 63, 34
3, 297670, Note_on_c, 0, 53, 31
3, 297911, Control_c, 0, 64, 127
3, 298100, Note_on_c, 0, 43, 0
3, 298321, Note_on_c, 0, 59, 0
3, 298355, Note_on_c, 0, 63, 0
3, 298438, Note_on_c, 0, 67, 0
3, 298626, Note_on_c, 0, 43, 24
3, 298636, Note_on_c, 0, 67, 28
3, 298643, Note_on_c, 0, 59, 25
3, 298659, Note_on_c, 0, 63, 30
3, 298757, Note_on_c, 0, 53, 0
3, 298759, Note_on_c, 0, 43, 0
3, 299086, Note_on_c, 0, 59, 0
3, 299184, Note_on_c, 0, 67, 0
3, 299262, Note_on_c, 0, 63, 0
3, 299502, Control_c, 0, 64, 0
3, 299569, Note_on_c, 0, 67, 36
3, 299582, Note_on_c, 0, 57, 33
3, 299607, Note_on_c, 0, 36, 24
3, 299608, Note_on_c, 0, 62, 28
3, 299617, Note_on_c, 0, 52, 30
3, 299727, Note_on_c, 0, 36, 0
3, 299772, Control_c, 0, 64, 127
3, 299810, Note_on_c, 0, 57, 0
3, 299888, Note_on_c, 0, 52, 0
3, 299901, Note_on_c, 0, 62, 0
3, 300163, Note_on_c, 0, 67, 0
3, 300542, Note_on_c, 0, 64, 36
3, 300570, Note_on_c, 0, 60, 30
3, 300590, Note_on_c, 0, 59, 24
3, 300926, Note_on_c, 0, 64, 0
3, 300943, Note_on_c, 0, 60, 0
3, 300976, Note_on_c, 0, 59, 0
3, 301032, Note_on_c, 0, 81, 53
3, 301173, Note_on_c, 0, 79, 26
3, 301272, Note_on_c, 0, 78, 46
3, 301281, Note_on_c, 0, 79, 0
3, 301384, Note_on_c, 0, 78, 0
3, 301433, Note_on_c, 0, 81, 0
3, 301455, Note_on_c, 0, 79, 50
3, 301516, Control_c, 0, 64, 0
3, 301578, Note_on_c, 0, 79, 0
3, 301639, Note_on_c, 0, 86, 68
3, 301774, Note_on_c, 0, 86, 0
3, 301953, Note_on_c, 0, 86, 58
3, 302094, Note_on_c, 0, 86, 0
3, 302269, Note_on_c, 0, 86, 72
3, 302417, Note_on_c, 0, 86, 0
3, 302528, Note_on_c, 0, 86, 53
3, 302530, Note_on_c, 0, 67, 34
3, 302576, Note_on_c, 0, 64, 19
3, 302626, Note_on_c, 0, 62, 19
3, 302632, Control_c, 0, 64, 127
3, 302730, Note_on_c, 0, 64, 0
3, 302750, Note_on_c, 0, 67, 0
3, 302766, Note_on_c, 0, 86, 0
3, 302782, Note_on_c, 0, 62, 0
3, 302837, Note_on_c, 0, 84, 45
3, 303022, Note_on_c, 0, 84, 0
3, 303115, Note_on_c, 0, 86, 57
3, 303371, Note_on_c, 0, 86, 0
3, 303389, Control_c, 0, 64, 0
3, 303417, Note_on_c, 0, 63, 33
3, 303429, Note_on_c, 0, 59, 27
3, 303430, Note_on_c, 0, 79, 31
3, 303470, Note_on_c, 0, 53, 14
3, 303595, Control_c, 0, 64, 127
3, 303672, Note_on_c, 0, 63, 0
3, 303703, Note_on_c, 0, 59, 0
3, 303763, Note_on_c, 0, 53, 0
3, 303786, Note_on_c, 0, 79, 0
3, 304249, Control_c, 0, 64, 0
3, 304294, Note_on_c, 0, 44, 33
3, 304309, Note_on_c, 0, 37, 33
3, 304403, Control_c, 0, 64, 127
3, 304529, Note_on_c, 0, 37, 0
3, 304665, Note_on_c, 0, 44, 0
3, 305263, Control_c, 0, 64, 0
3, 305280, Note_on_c, 0, 63, 43
3, 305283, Note_on_c, 0, 59, 39
3, 305304, Note_on_c, 0, 67, 29
3, 305597, Note_on_c, 0, 55, 41
3, 305891, Note_on_c, 0, 55, 0
3, 305957, Note_on_c, 0, 56, 63
3, 306133, Note_on_c, 0, 59, 0
3, 306165, Note_on_c, 0, 63, 0
3, 306186, Note_on_c, 0, 67, 0
3, 306302, Note_on_c, 0, 63, 42
3, 306304, Note_on_c, 0, 59, 47
3, 306306, Note_on_c, 0, 56, 0
3, 306312, Note_on_c, 0, 67, 48
3, 306327, Note_on_c, 0, 58, 72
3, 306571, Note_on_c, 0, 59, 0
3, 306574, Note_on_c, 0, 67, 0
3, 306579, Note_on_c, 0, 58, 0
3, 306621, Note_on_c, 0, 56, 46
3, 306640, Note_on_c, 0, 63, 0
3, 306890, Note_on_c, 0, 56, 0
3, 306940, Note_on_c, 0, 58, 51
3, 306951, Note_on_c, 0, 63, 45
3, 306952, Note_on_c, 0, 59, 41
3, 306965, Note_on_c, 0, 67, 39
3, 307098, Control_c, 0, 64, 127
3, 307150, Note_on_c, 0, 58, 0
3, 307225, Control_c, 0, 64, 0
3, 307271, Note_on_c, 0, 56, 43
3, 307340, Note_on_c, 0, 59, 0
3, 307435, Note_on_c, 0, 67, 0
3, 307477, Note_on_c, 0, 63, 0
3, 307503, Note_on_c, 0, 56, 0
3, 307596, Note_on_c, 0, 55, 36
3, 307619, Note_on_c, 0, 62, 34
3, 307627, Note_on_c, 0, 58, 30
3, 307636, Note_on_c, 0, 65, 44
3, 307878, Note_on_c, 0, 55, 0
3, 307901, Note_on_c, 0, 62, 0
3, 307915, Note_on_c, 0, 58, 0
3, 307969, Note_on_c, 0, 43, 34
3, 308098, Control_c, 0, 64, 127
3, 308193, Note_on_c, 0, 65, 0
3, 308277, Control_c, 0, 64, 0
3, 308293, Note_on_c, 0, 57, 74
3, 308327, Note_on_c, 0, 50, 33
3, 308578, Note_on_c, 0, 58, 82
3, 308599, Note_on_c, 0, 50, 0
3, 308650, Control_c, 0, 64, 127
3, 308654, Note_on_c, 0, 57, 0
3, 308657, Note_on_c, 0, 43, 0
3, 308684, Note_on_c, 0, 53, 25
3, 308765, Note_on_c, 0, 53, 0
3, 308879, Note_on_c, 0, 62, 74
3, 308974, Note_on_c, 0, 58, 0
3, 309093, Note_on_c, 0, 65, 71
3, 309095, Note_on_c, 0, 62, 0
3, 309265, Control_c, 0, 64, 0
3, 309287, Note_on_c, 0, 65, 0
3, 309332, Note_on_c, 0, 64, 49
3, 309337, Note_on_c, 0, 36, 31
3, 309346, Note_on_c, 0, 52, 29
3, 309358, Note_on_c, 0, 58, 57
3, 309484, Control_c, 0, 64, 127
3, 309527, Note_on_c, 0, 36, 0
3, 309707, Note_on_c, 0, 52, 0
3, 309757, Note_on_c, 0, 64, 0
3, 309884, Note_on_c, 0, 58, 0
3, 309958, Note_on_c, 0, 61, 30
3, 310005, Note_on_c, 0, 61, 0
3, 310190, Control_c, 0, 64, 0
3, 310195, Note_on_c, 0, 61, 35
3, 310218, Note_on_c, 0, 52, 36
3, 310222, Note_on_c, 0, 42, 35
3, 310224, Note_on_c, 0, 58, 48
3, 310240, Note_on_c, 0, 56, 46
3, 310245, Note_on_c, 0, 49, 30
3, 310408, Control_c, 0, 64, 127
3, 310560, Note_on_c, 0, 52, 0
3, 310592, Note_on_c, 0, 42, 0
3, 310850, Note_on_c, 0, 49, 0
3, 310887, Note_on_c, 0, 58, 0
3, 310901, Note_on_c, 0, 56, 0
3, 310924, Note_on_c, 0, 61, 0
3, 311037, Control_c, 0, 64, 0
3, 311130, Note_on_c, 0, 56, 44
3, 311139, Note_on_c, 0, 60, 41
3, 311147, Note_on_c, 0, 41, 30
3, 311147, Note_on_c, 0, 53, 30
3, 311159, Note_on_c, 0, 48, 33
3, 311253, Control_c, 0, 64, 127
3, 311385, Note_on_c, 0, 53, 0
3, 311398, Note_on_c, 0, 41, 0
3, 311430, Note_on_c, 0, 60, 0
3, 311459, Note_on_c, 0, 48, 0
3, 311467, Note_on_c, 0, 56, 0
3, 312024, Control_c, 0, 64, 0
3, 312026, Note_on_c, 0, 58, 80
3, 312038, Note_on_c, 0, 70, 67
3, 312044, Note_on_c, 0, 63, 74
3, 312046, Note_on_c, 0, 67, 65
3, 312053, Note_on_c, 0, 60, 74
3, 312241, Control_c, 0, 64, 127
3, 312582, Note_on_c, 0, 67, 0
3, 312625, Note_on_c, 0, 58, 0
3, 312646, Note_on_c, 0, 70, 0
3, 312682, Note_on_c, 0, 60, 0
3, 312747, Note_on_c, 0, 63, 0
3, 312999, Control_c, 0, 64, 0
3, 313004, Note_on_c, 0, 59, 44
3, 313022, Note_on_c, 0, 56, 39
3, 313027, Note_on_c, 0, 67, 41
3, 313031, Note_on_c, 0, 46, 31
3, 313035, Note_on_c, 0, 64, 42
3, 313038, Note_on_c, 0, 62, 36
3, 313242, Control_c, 0, 64, 127
3, 313601, Note_on_c, 0, 64, 0
3, 313608, Note_on_c, 0, 59, 0
3, 313628, Note_on_c, 0, 56, 0
3, 313658, Note_on_c, 0, 62, 0
3, 313848, Note_on_c, 0, 67, 0
3, 313985, Note_on_c, 0, 59, 36
3, 313987, Note_on_c, 0, 65, 46
3, 314016, Note_on_c, 0, 56, 21
3, 314032, Note_on_c, 0, 62, 25
3, 314060, Note_on_c, 0, 56, 0
3, 314062, Note_on_c, 0, 46, 0
3, 314410, Note_on_c, 0, 59, 0
3, 314658, Note_on_c, 0, 62, 0
3, 314753, Note_on_c, 0, 65, 0
3, 314846, Control_c, 0, 64, 0
3, 314920, Note_on_c, 0, 67, 44
3, 314928, Note_on_c, 0, 40, 29
3, 314938, Note_on_c, 0, 62, 32
3, 314951, Note_on_c, 0, 55, 24
3, 315038, Note_on_c, 0, 40, 0
3, 315078, Control_c, 0, 64, 127
3, 315217, Note_on_c, 0, 55, 0
3, 315219, Note_on_c, 0, 62, 0
3, 315242, Note_on_c, 0, 67, 0
3, 315409, Note_on_c, 0, 62, 48
3, 315422, Note_on_c, 0, 67, 42
3, 315566, Note_on_c, 0, 62, 0
3, 315622, Note_on_c, 0, 67, 0
3, 315833, Note_on_c, 0, 52, 19
3, 315836, Note_on_c, 0, 55, 27
3, 315837, Note_on_c, 0, 59, 20
3, 315864, Note_on_c, 0, 67, 49
3, 315870, Note_on_c, 0, 62, 56
3, 315982, Note_on_c, 0, 52, 0
3, 315993, Note_on_c, 0, 62, 0
3, 316014, Note_on_c, 0, 59, 0
3, 316035, Note_on_c, 0, 67, 0
3, 316047, Note_on_c, 0, 55, 0
3, 316320, Note_on_c, 0, 67, 59
3, 316334, Note_on_c, 0, 62, 34
3, 316380, Note_on_c, 0, 62, 0
3, 316440, Note_on_c, 0, 67, 0
3, 316764, Note_on_c, 0, 74, 51
3, 316768, Note_on_c, 0, 64, 56
3, 316769, Note_on_c, 0, 67, 53
3, 316773, Control_c, 0, 64, 0
3, 316782, Note_on_c, 0, 59, 54
3, 316961, Note_on_c, 0, 67, 0
3, 316979, Note_on_c, 0, 64, 0
3, 316992, Note_on_c, 0, 74, 0
3, 317177, Note_on_c, 0, 59, 0
3, 317248, Note_on_c, 0, 58, 51
3, 317649, Note_on_c, 0, 58, 0
3, 317689, Note_on_c, 0, 57, 48
3, 317693, Note_on_c, 0, 64, 53
3, 317699, Note_on_c, 0, 72, 44
3, 317717, Note_on_c, 0, 67, 40
3, 317733, Control_c, 0, 64, 127
3, 317811, Note_on_c, 0, 64, 0
3, 317830, Note_on_c, 0, 57, 0
3, 317856, Note_on_c, 0, 67, 0
3, 317861, Note_on_c, 0, 72, 0
3, 318105, Control_c, 0, 64, 0
3, 318201, Note_on_c, 0, 76, 63
3, 318208, Note_on_c, 0, 64, 81
3, 318220, Note_on_c, 0, 69, 68
3, 318222, Note_on_c, 0, 65, 74
3, 318224, Note_on_c, 0, 72, 61
3, 318560, Note_on_c, 0, 64, 0
3, 318653, Note_on_c, 0, 69, 0
3, 318672, Note_on_c, 0, 72, 0
3, 318688, Note_on_c, 0, 62, 45
3, 318734, Note_on_c, 0, 65, 0
3, 318759, Note_on_c, 0, 76, 0
3, 319083, Note_on_c, 0, 62, 0
3, 319151, Note_on_c, 0, 61, 57
3, 319482, Note_on_c, 0, 61, 0
3, 319591, Note_on_c, 0, 64, 71
3, 319604, Note_on_c, 0, 79, 71
3, 319609, Note_on_c, 0, 69, 80
3, 319612, Note_on_c, 0, 76, 70
3, 319621, Note_on_c, 0, 72, 66
3, 320046, Note_on_c, 0, 69, 0
3, 320069, Control_c, 0, 64, 127
3, 320089, Note_on_c, 0, 62, 52
3, 320124, Note_on_c, 0, 64, 0
3, 320180, Note_on_c, 0, 72, 0
3, 320199, Note_on_c, 0, 76, 0
3, 320227, Note_on_c, 0, 79, 0
3, 320480, Control_c, 0, 64, 0
3, 320595, Note_on_c, 0, 82, 61
3, 320596, Note_on_c, 0, 75, 48
3, 320596, Note_on_c, 0, 65, 64
3, 320600, Note_on_c, 0, 77, 48
3, 320601, Note_on_c, 0, 71, 53
3, 320736, Control_c, 0, 64, 127
3, 320747, Note_on_c, 0, 62, 0
3, 320997, Note_on_c, 0, 82, 0
3, 321003, Note_on_c, 0, 65, 0
3, 321080, Note_on_c, 0, 53, 40
3, 321084, Note_on_c, 0, 80, 54
3, 321172, Note_on_c, 0, 71, 0
3, 321227, Note_on_c, 0, 53, 0
3, 321237, Note_on_c, 0, 77, 0
3, 321278, Note_on_c, 0, 80, 0
3, 321306, Note_on_c, 0, 75, 0
3, 321578, Note_on_c, 0, 79, 48
3, 321597, Note_on_c, 0, 67, 28
3, 321610, Note_on_c, 0, 74, 38
3, 321881, Note_on_c, 0, 67, 0
3, 321994, Note_on_c, 0, 79, 0
3, 322031, Note_on_c, 0, 74, 0
3, 322074, Note_on_c, 0, 77, 43
3, 322424, Note_on_c, 0, 77, 0
3, 322493, Control_c, 0, 64, 0
3, 322563, Note_on_c, 0, 76, 45
3, 322567, Note_on_c, 0, 62, 26
3, 322579, Note_on_c, 0, 56, 33
3, 322681, Note_on_c, 0, 62, 0
3, 322726, Note_on_c, 0, 76, 0
3, 322759, Note_on_c, 0, 56, 0
3, 323045, Note_on_c, 0, 76, 51
3, 323211, Note_on_c, 0, 76, 0
3, 323493, Note_on_c, 0, 76, 54
3, 323499, Note_on_c, 0, 56, 26
3, 323517, Note_on_c, 0, 62, 28
3, 323530, Note_on_c, 0, 67, 20
3, 323761, Note_on_c, 0, 76, 0
3, 323934, Note_on_c, 0, 67, 0
3, 323971, Note_on_c, 0, 74, 55
3, 324001, Note_on_c, 0, 62, 0
3, 324180, Note_on_c, 0, 74, 0
3, 324183, Note_on_c, 0, 56, 0
3, 324227, Note_on_c, 0, 72, 38
3, 324381, Note_on_c, 0, 72, 0
3, 324459, Note_on_c, 0, 70, 52
3, 324481, Note_on_c, 0, 55, 24
3, 324481, Note_on_c, 0, 61, 25
3, 324490, Note_on_c, 0, 65, 28
3, 324721, Note_on_c, 0, 70, 0
3, 324744, Note_on_c, 0, 55, 0
3, 324756, Note_on_c, 0, 65, 0
3, 324833, Note_on_c, 0, 61, 0
3, 324947, Note_on_c, 0, 70, 58
3, 324951, Note_on_c, 0, 61, 20
3, 324998, Note_on_c, 0, 65, 18
3, 325081, Note_on_c, 0, 65, 0
3, 325242, Note_on_c, 0, 61, 0
3, 325328, Note_on_c, 0, 70, 0
3, 325414, Note_on_c, 0, 64, 36
3, 325427, Note_on_c, 0, 69, 43
3, 325428, Note_on_c, 0, 61, 29
3, 325446, Note_on_c, 0, 55, 25
3, 325696, Note_on_c, 0, 69, 0
3, 325707, Note_on_c, 0, 64, 0
3, 325716, Note_on_c, 0, 61, 0
3, 325745, Note_on_c, 0, 55, 0
3, 326035, Control_c, 0, 64, 127
3, 326284, Note_on_c, 0, 50, 53
3, 326343, Control_c, 0, 64, 0
3, 326501, Note_on_c, 0, 74, 84
3, 326511, Note_on_c, 0, 60, 47
3, 326718, Note_on_c, 0, 74, 0
3, 326730, Note_on_c, 0, 60, 0
3, 326959, Note_on_c, 0, 74, 81
3, 327002, Note_on_c, 0, 60, 28
3, 327210, Note_on_c, 0, 74, 0
3, 327429, Note_on_c, 0, 72, 68
3, 327439, Note_on_c, 0, 74, 64
3, 327573, Note_on_c, 0, 60, 0
3, 327678, Note_on_c, 0, 74, 0
3, 327696, Note_on_c, 0, 50, 0
3, 327792, Note_on_c, 0, 72, 0
3, 327889, Note_on_c, 0, 70, 57
3, 328111, Note_on_c, 0, 70, 0
3, 328154, Note_on_c, 0, 68, 51
3, 328170, Note_on_c, 0, 74, 33
3, 328277, Note_on_c, 0, 74, 0
3, 328343, Note_on_c, 0, 68, 0
3, 328373, Note_on_c, 0, 64, 33
3, 328387, Note_on_c, 0, 59, 29
3, 328401, Note_on_c, 0, 53, 20
3, 328403, Note_on_c, 0, 67, 49
3, 328404, Note_on_c, 0, 74, 37
3, 328587, Control_c, 0, 64, 127
3, 328611, Note_on_c, 0, 64, 0
3, 328655, Note_on_c, 0, 59, 0
3, 328693, Note_on_c, 0, 67, 0
3, 328702, Note_on_c, 0, 74, 0
3, 328725, Note_on_c, 0, 53, 0
3, 328861, Note_on_c, 0, 74, 45
3, 328862, Note_on_c, 0, 67, 52
3, 329178, Control_c, 0, 64, 0
3, 329288, Note_on_c, 0, 43, 35
3, 329314, Note_on_c, 0, 53, 26
3, 329440, Note_on_c, 0, 53, 0
3, 329447, Control_c, 0, 64, 127
3, 329448, Note_on_c, 0, 43, 0
3, 329754, Note_on_c, 0, 74, 0
3, 329785, Note_on_c, 0, 67, 0
3, 329817, Note_on_c, 0, 65, 55
3, 330100, Note_on_c, 0, 65, 0
3, 330229, Control_c, 0, 64, 0
3, 330245, Note_on_c, 0, 43, 24
3, 330266, Note_on_c, 0, 64, 42
3, 330286, Note_on_c, 0, 52, 29
3, 330293, Note_on_c, 0, 36, 22
3, 330466, Note_on_c, 0, 64, 0
3, 330754, Note_on_c, 0, 64, 60
3, 330771, Note_on_c, 0, 52, 0
3, 330977, Note_on_c, 0, 64, 0
3, 331000, Note_on_c, 0, 63, 42
3, 331155, Note_on_c, 0, 63, 0
3, 331205, Note_on_c, 0, 64, 45
3, 331458, Note_on_c, 0, 64, 0
3, 331502, Note_on_c, 0, 71, 61
3, 331596, Note_on_c, 0, 36, 0
3, 331677, Note_on_c, 0, 43, 0
3, 331705, Control_c, 0, 64, 127
3, 332089, Note_on_c, 0, 71, 0
3, 332103, Control_c, 0, 64, 0
3, 332142, Note_on_c, 0, 64, 57
3, 332149, Note_on_c, 0, 60, 29
3, 332249, Note_on_c, 0, 60, 0
3, 332354, Note_on_c, 0, 64, 0
3, 332574, Note_on_c, 0, 64, 63
3, 332655, Control_c, 0, 64, 127
3, 332788, Note_on_c, 0, 64, 0
3, 332816, Note_on_c, 0, 63, 45
3, 332972, Note_on_c, 0, 63, 0
3, 333002, Control_c, 0, 64, 0
3, 333031, Note_on_c, 0, 64, 60
3, 333079, Note_on_c, 0, 62, 34
3, 333082, Note_on_c, 0, 57, 36
3, 333236, Note_on_c, 0, 62, 0
3, 333244, Control_c, 0, 64, 127
3, 333310, Note_on_c, 0, 57, 0
3, 333350, Note_on_c, 0, 71, 58
3, 333606, Note_on_c, 0, 64, 0
3, 334001, Control_c, 0, 64, 0
3, 334017, Note_on_c, 0, 65, 60
3, 334046, Note_on_c, 0, 71, 0
3, 334062, Note_on_c, 0, 44, 31
3, 334065, Note_on_c, 0, 37, 30
3, 334287, Note_on_c, 0, 65, 0
3, 334288, Note_on_c, 0, 37, 0
3, 334487, Note_on_c, 0, 65, 59
3, 334567, Control_c, 0, 64, 127
3, 334714, Note_on_c, 0, 65, 0
3, 334749, Note_on_c, 0, 64, 50
3, 334959, Note_on_c, 0, 64, 0
3, 334964, Control_c, 0, 64, 0
3, 334973, Note_on_c, 0, 65, 32
3, 335013, Note_on_c, 0, 53, 24
3, 335093, Note_on_c, 0, 65, 0
3, 335156, Control_c, 0, 64, 127
3, 335267, Note_on_c, 0, 44, 0
3, 335276, Note_on_c, 0, 75, 64
3, 335339, Note_on_c, 0, 53, 0
3, 335901, Control_c, 0, 64, 0
3, 335928, Note_on_c, 0, 63, 38
3, 335943, Note_on_c, 0, 68, 34
3, 335950, Note_on_c, 0, 65, 33
3, 335966, Note_on_c, 0, 53, 19
3, 335974, Note_on_c, 0, 58, 35
3, 336080, Control_c, 0, 64, 127
3, 336528, Note_on_c, 0, 63, 0
3, 336542, Note_on_c, 0, 65, 0
3, 336632, Note_on_c, 0, 58, 0
3, 336796, Note_on_c, 0, 68, 0
3, 336899, Note_on_c, 0, 75, 0
3, 336971, Note_on_c, 0, 63, 49
3, 336990, Control_c, 0, 64, 0
3, 336993, Note_on_c, 0, 62, 36
3, 337002, Note_on_c, 0, 67, 39
3, 337107, Control_c, 0, 64, 127
3, 337306, Note_on_c, 0, 62, 0
3, 337322, Note_on_c, 0, 53, 0
3, 337400, Note_on_c, 0, 67, 0
3, 337468, Note_on_c, 0, 63, 0
3, 337928, Control_c, 0, 64, 0
3, 337935, Note_on_c, 0, 62, 48
3, 337937, Note_on_c, 0, 65, 42
3, 337971, Note_on_c, 0, 55, 28
3, 338172, Control_c, 0, 64, 127
3, 338411, Note_on_c, 0, 65, 0
3, 338453, Note_on_c, 0, 62, 0
3, 338549, Note_on_c, 0, 55, 0
3, 338570, Note_on_c, 0, 43, 30
3, 338877, Control_c, 0, 64, 0
3, 338932, Note_on_c, 0, 62, 46
3, 338937, Note_on_c, 0, 58, 42
3, 338968, Note_on_c, 0, 53, 27
3, 339027, Note_on_c, 0, 43, 0
3, 339120, Control_c, 0, 64, 127
3, 339224, Note_on_c, 0, 53, 0
3, 339272, Note_on_c, 0, 65, 61
3, 339278, Note_on_c, 0, 58, 0
3, 339495, Note_on_c, 0, 62, 0
3, 339800, Control_c, 0, 64, 0
3, 339814, Note_on_c, 0, 65, 0
3, 339861, Note_on_c, 0, 36, 29
3, 339888, Note_on_c, 0, 52, 31
3, 339891, Note_on_c, 0, 64, 41
3, 339900, Note_on_c, 0, 58, 29
3, 339920, Note_on_c, 0, 61, 33
3, 340007, Control_c, 0, 64, 127
3, 340021, Note_on_c, 0, 36, 0
3, 340238, Note_on_c, 0, 58, 0
3, 340241, Note_on_c, 0, 52, 0
3, 340279, Note_on_c, 0, 64, 0
3, 340305, Note_on_c, 0, 61, 0
3, 340817, Note_on_c, 0, 61, 37
3, 340853, Control_c, 0, 64, 0
3, 340864, Note_on_c, 0, 52, 24
3, 340871, Note_on_c, 0, 42, 29
3, 340885, Note_on_c, 0, 58, 34
3, 340889, Note_on_c, 0, 56, 33
3, 340897, Note_on_c, 0, 49, 30
3, 341212, Control_c, 0, 64, 127
3, 341258, Note_on_c, 0, 52, 0
3, 341408, Note_on_c, 0, 42, 0
3, 341446, Note_on_c, 0, 49, 0
3, 341541, Note_on_c, 0, 61, 0
3, 341598, Note_on_c, 0, 58, 0
3, 341610, Note_on_c, 0, 56, 0
3, 341713, Control_c, 0, 64, 0
3, 341824, Note_on_c, 0, 41, 36
3, 341832, Note_on_c, 0, 56, 45
3, 341841, Note_on_c, 0, 60, 37
3, 341847, Note_on_c, 0, 53, 31
3, 341866, Note_on_c, 0, 48, 30
3, 341905, Control_c, 0, 64, 127
3, 341964, Note_on_c, 0, 53, 0
3, 342013, Note_on_c, 0, 60, 0
3, 342018, Note_on_c, 0, 56, 0
3, 342030, Note_on_c, 0, 41, 0
3, 342071, Note_on_c, 0, 48, 0
3, 342342, Control_c, 0, 64, 0
3, 342361, Note_on_c, 0, 63, 55
3, 342365, Note_on_c, 0, 70, 48
3, 342374, Note_on_c, 0, 60, 57
3, 342374, Note_on_c, 0, 58, 60
3, 342375, Note_on_c, 0, 67, 62
3, 342469, Control_c, 0, 64, 127
3, 342686, Note_on_c, 0, 67, 0
3, 342698, Note_on_c, 0, 60, 0
3, 342713, Control_c, 0, 64, 0
3, 342714, Note_on_c, 0, 63, 0
3, 342746, Note_on_c, 0, 70, 0
3, 342821, Note_on_c, 0, 60, 47
3, 342822, Note_on_c, 0, 58, 0
3, 342824, Note_on_c, 0, 56, 61
3, 342831, Note_on_c, 0, 63, 52
3, 342844, Note_on_c, 0, 68, 39
3, 342892, Control_c, 0, 64, 127
3, 342922, Note_on_c, 0, 60, 0
3, 342970, Note_on_c, 0, 63, 0
3, 342982, Note_on_c, 0, 56, 0
3, 342990, Note_on_c, 0, 68, 0
3, 343175, Control_c, 0, 64, 0
3, 343269, Note_on_c, 0, 75, 53
3, 343270, Note_on_c, 0, 63, 62
3, 343275, Note_on_c, 0, 68, 51
3, 343276, Note_on_c, 0, 65, 59
3, 343290, Note_on_c, 0, 72, 53
3, 343316, Control_c, 0, 64, 127
3, 343400, Note_on_c, 0, 65, 0
3, 343418, Note_on_c, 0, 68, 0
3, 343435, Note_on_c, 0, 63, 0
3, 343440, Note_on_c, 0, 72, 0
3, 343470, Note_on_c, 0, 75, 0
3, 343663, Control_c, 0, 64, 0
3, 343729, Note_on_c, 0, 67, 58
3, 343740, Note_on_c, 0, 68, 54
3, 343742, Note_on_c, 0, 79, 50
3, 343747, Note_on_c, 0, 75, 50
3, 343754, Note_on_c, 0, 72, 60
3, 343841, Control_c, 0, 64, 127
3, 343904, Note_on_c, 0, 68, 0
3, 343912, Note_on_c, 0, 72, 0
3, 343957, Note_on_c, 0, 79, 0
3, 343975, Note_on_c, 0, 75, 0
3, 343987, Note_on_c, 0, 67, 0
3, 344189, Control_c, 0, 64, 0
3, 344213, Note_on_c, 0, 82, 60
3, 344222, Note_on_c, 0, 70, 56
3, 344224, Note_on_c, 0, 71, 58
3, 344226, Note_on_c, 0, 74, 60
3, 344276, Note_on_c, 0, 77, 32
3, 344359, Control_c, 0, 64, 127
3, 344440, Note_on_c, 0, 82, 0
3, 344467, Note_on_c, 0, 70, 0
3, 344542, Note_on_c, 0, 77, 0
3, 344551, Note_on_c, 0, 71, 0
3, 344554, Note_on_c, 0, 74, 0
3, 344704, Note_on_c, 0, 80, 59
3, 344716, Note_on_c, 0, 71, 47
3, 344724, Note_on_c, 0, 68, 47
3, 344728, Note_on_c, 0, 74, 51
3, 344760, Note_on_c, 0, 77, 32
3, 344875, Note_on_c, 0, 71, 0
3, 344896, Note_on_c, 0, 80, 0
3, 344897, Note_on_c, 0, 77, 0
3, 344921, Note_on_c, 0, 74, 0
3, 344953, Note_on_c, 0, 68, 0
3, 344974, Control_c, 0, 64, 0
3, 345162, Note_on_c, 0, 78, 51
3, 345163, Note_on_c, 0, 68, 52
3, 345172, Note_on_c, 0, 73, 46
3, 345192, Control_c, 0, 64, 127
3, 345405, Note_on_c, 0, 68, 0
3, 345443, Note_on_c, 0, 73, 0
3, 345451, Note_on_c, 0, 78, 0
3, 345501, Control_c, 0, 64, 0
3, 345611, Note_on_c, 0, 64, 45
3, 345620, Note_on_c, 0, 74, 51
3, 345623, Note_on_c, 0, 79, 49
3, 345635, Note_on_c, 0, 67, 40
3, 345734, Note_on_c, 0, 74, 0
3, 345743, Note_on_c, 0, 79, 0
3, 345813, Note_on_c, 0, 67, 0
3, 345822, Note_on_c, 0, 64, 0
3, 346059, Note_on_c, 0, 74, 54
3, 346074, Note_on_c, 0, 67, 39
3, 346092, Note_on_c, 0, 71, 37
3, 346094, Note_on_c, 0, 59, 39
3, 346151, Note_on_c, 0, 71, 0
3, 346183, Note_on_c, 0, 74, 0
3, 346184, Note_on_c, 0, 67, 0
3, 346462, Note_on_c, 0, 59, 0
3, 346510, Note_on_c, 0, 64, 39
3, 346525, Note_on_c, 0, 71, 42
3, 346543, Note_on_c, 0, 67, 34
3, 346544, Note_on_c, 0, 55, 24
3, 346695, Note_on_c, 0, 67, 0
3, 346714, Note_on_c, 0, 64, 0
3, 346840, Note_on_c, 0, 71, 0
3, 346854, Note_on_c, 0, 55, 0
3, 347006, Note_on_c, 0, 52, 34
3, 347008, Note_on_c, 0, 67, 35
3, 347010, Note_on_c, 0, 64, 47
3, 347128, Note_on_c, 0, 64, 0
3, 347139, Note_on_c, 0, 52, 0
3, 347156, Note_on_c, 0, 67, 0
3, 347467, Note_on_c, 0, 74, 63
3, 347477, Note_on_c, 0, 63, 50
3, 347502, Note_on_c, 0, 62, 46
3, 347503, Note_on_c, 0, 66, 39
3, 347521, Note_on_c, 0, 69, 29
3, 347674, Note_on_c, 0, 74, 0
3, 347719, Note_on_c, 0, 63, 0
3, 347729, Note_on_c, 0, 66, 0
3, 347745, Note_on_c, 0, 69, 0
3, 347869, Note_on_c, 0, 62, 0
3, 347927, Note_on_c, 0, 73, 35
3, 347951, Note_on_c, 0, 63, 35
3, 347952, Note_on_c, 0, 61, 27
3, 347964, Note_on_c, 0, 66, 46
3, 347998, Note_on_c, 0, 69, 29
3, 348167, Note_on_c, 0, 73, 0
3, 348204, Note_on_c, 0, 66, 0
3, 348224, Note_on_c, 0, 63, 0
3, 348262, Note_on_c, 0, 69, 0
3, 348354, Note_on_c, 0, 61, 0
3, 348427, Note_on_c, 0, 63, 36
3, 348433, Note_on_c, 0, 72, 41
3, 348444, Note_on_c, 0, 66, 40
3, 348456, Note_on_c, 0, 60, 28
3, 348651, Note_on_c, 0, 63, 0
3, 348656, Control_c, 0, 64, 127
3, 348687, Note_on_c, 0, 66, 0
3, 348734, Control_c, 0, 64, 0
3, 348780, Note_on_c, 0, 72, 0
3, 348862, Control_c, 0, 64, 127
3, 348876, Note_on_c, 0, 60, 0
3, 348898, Note_on_c, 0, 63, 49
3, 348926, Note_on_c, 0, 66, 50
3, 348945, Note_on_c, 0, 69, 32
3, 348948, Note_on_c, 0, 57, 34
3, 349109, Note_on_c, 0, 63, 0
3, 349200, Note_on_c, 0, 69, 0
3, 349283, Note_on_c, 0, 66, 0
3, 349324, Control_c, 0, 64, 0
3, 349405, Note_on_c, 0, 57, 0
3, 349415, Note_on_c, 0, 60, 45
3, 349416, Note_on_c, 0, 69, 19
3, 349418, Note_on_c, 0, 64, 50
3, 349440, Note_on_c, 0, 50, 33
3, 349721, Control_c, 0, 64, 127
3, 349943, Note_on_c, 0, 54, 46
3, 350036, Note_on_c, 0, 60, 0
3, 350196, Note_on_c, 0, 64, 0
3, 350288, Note_on_c, 0, 69, 0
3, 350338, Control_c, 0, 64, 0
3, 350403, Note_on_c, 0, 71, 69
3, 350407, Note_on_c, 0, 68, 68
3, 350417, Note_on_c, 0, 64, 74
3, 350433, Note_on_c, 0, 60, 48
3, 350581, Control_c, 0, 64, 127
3, 350748, Note_on_c, 0, 60, 0
3, 350778, Note_on_c, 0, 64, 0
3, 350821, Note_on_c, 0, 68, 0
3, 350833, Note_on_c, 0, 71, 0
3, 350858, Note_on_c, 0, 54, 0
3, 350891, Note_on_c, 0, 64, 68
3, 350896, Note_on_c, 0, 72, 62
3, 350905, Note_on_c, 0, 57, 48
3, 350908, Note_on_c, 0, 68, 57
3, 350909, Note_on_c, 0, 69, 71
3, 350945, Note_on_c, 0, 71, 45
3, 351048, Note_on_c, 0, 71, 0
3, 351054, Note_on_c, 0, 57, 0
3, 351059, Note_on_c, 0, 69, 0
3, 351100, Note_on_c, 0, 68, 0
3, 351102, Note_on_c, 0, 72, 0
3, 351123, Note_on_c, 0, 64, 0
3, 351365, Note_on_c, 0, 50, 0
3, 351376, Control_c, 0, 64, 0
3, 351390, Note_on_c, 0, 69, 64
3, 351398, Note_on_c, 0, 65, 62
3, 351404, Note_on_c, 0, 57, 56
3, 351413, Note_on_c, 0, 60, 44
3, 351878, Note_on_c, 0, 43, 36
3, 351966, Note_on_c, 0, 57, 0
3, 352014, Note_on_c, 0, 69, 0
3, 352171, Note_on_c, 0, 60, 0
3, 352197, Note_on_c, 0, 65, 0
3, 352360, Note_on_c, 0, 68, 43
3, 352368, Note_on_c, 0, 59, 36
3, 352377, Note_on_c, 0, 63, 44
3, 352391, Note_on_c, 0, 53, 28
3, 352578, Note_on_c, 0, 43, 0
3, 352711, Control_c, 0, 64, 127
3, 352898, Note_on_c, 0, 43, 19
3, 352907, Note_on_c, 0, 68, 0
3, 352934, Note_on_c, 0, 53, 0
3, 352963, Note_on_c, 0, 59, 0
3, 352965, Note_on_c, 0, 43, 0
3, 353158, Note_on_c, 0, 63, 0
3, 353327, Control_c, 0, 64, 0
3, 353328, Note_on_c, 0, 67, 41
3, 353347, Note_on_c, 0, 62, 34
3, 353369, Note_on_c, 0, 57, 32
3, 353813, Note_on_c, 0, 43, 34
3, 354300, Note_on_c, 0, 52, 43
3, 354661, Note_on_c, 0, 52, 0
3, 354675, Control_c, 0, 64, 127
3, 354766, Note_on_c, 0, 52, 48
3, 354992, Note_on_c, 0, 52, 0
3, 355114, Note_on_c, 0, 62, 0
3, 355143, Note_on_c, 0, 57, 0
3, 355174, Control_c, 0, 64, 0
3, 355249, Note_on_c, 0, 36, 50
3, 355266, Note_on_c, 0, 67, 0
3, 355303, Control_c, 0, 64, 127
3, 355388, Note_on_c, 0, 43, 0
3, 355430, Note_on_c, 0, 36, 0
3, 355700, Control_c, 0, 64, 0
3, 355746, Note_on_c, 0, 34, 70
3, 355751, Note_on_c, 0, 46, 71
3, 355752, Note_on_c, 0, 67, 74
3, 355755, Note_on_c, 0, 60, 74
3, 355759, Note_on_c, 0, 56, 84
3, 355764, Note_on_c, 0, 64, 62
3, 356061, Control_c, 0, 64, 127
3, 356462, Note_on_c, 0, 34, 0
3, 356488, Note_on_c, 0, 46, 0
3, 356554, Note_on_c, 0, 60, 0
3, 356636, Note_on_c, 0, 64, 0
3, 356637, Note_on_c, 0, 56, 0
3, 356657, Note_on_c, 0, 67, 0
3, 357096, Note_on_c, 0, 36, 22
3, 357100, Control_c, 0, 64, 0
3, 357103, Note_on_c, 0, 43, 25
3, 357167, Note_on_c, 0, 52, 55
3, 357173, Note_on_c, 0, 67, 68
3, 357191, Note_on_c, 0, 57, 72
3, 357192, Note_on_c, 0, 62, 69
3, 357304, Note_on_c, 0, 57, 0
3, 357342, Control_c, 0, 64, 127
3, 357414, Note_on_c, 0, 62, 0
3, 357487, Note_on_c, 0, 67, 0
3, 357525, Note_on_c, 0, 36, 0
3, 357634, Note_on_c, 0, 43, 0
3, 357786, Note_on_c, 0, 52, 0
3, 358205, Note_on_c, 0, 52, 36
3, 358407, Note_on_c, 0, 52, 0
3, 358571, Note_on_c, 0, 67, 58
3, 358714, Note_on_c, 0, 67, 0
3, 358804, Note_on_c, 0, 69, 58
3, 358990, Note_on_c, 0, 69, 0
3, 359010, Control_c, 0, 64, 0
3, 359074, Note_on_c, 0, 70, 39
3, 359091, Note_on_c, 0, 62, 28
3, 359102, Note_on_c, 0, 58, 32
3, 359104, Note_on_c, 0, 52, 20
3, 359248, Note_on_c, 0, 70, 0
3, 359320, Note_on_c, 0, 72, 49
3, 359481, Note_on_c, 0, 52, 0
3, 359498, Control_c, 0, 64, 127
3, 359499, Note_on_c, 0, 72, 0
3, 359525, Note_on_c, 0, 58, 0
3, 359543, Note_on_c, 0, 73, 51
3, 359653, Note_on_c, 0, 73, 0
3, 359659, Note_on_c, 0, 62, 0
3, 359784, Note_on_c, 0, 77, 66
3, 359934, Control_c, 0, 64, 0
3, 359937, Note_on_c, 0, 77, 0
3, 359964, Note_on_c, 0, 61, 25
3, 359985, Note_on_c, 0, 65, 16
3, 359998, Note_on_c, 0, 81, 57
3, 360042, Note_on_c, 0, 55, 10
3, 360134, Note_on_c, 0, 81, 0
3, 360180, Note_on_c, 0, 65, 0
3, 360206, Note_on_c, 0, 84, 64
3, 360221, Note_on_c, 0, 61, 0
3, 360248, Note_on_c, 0, 55, 0
3, 360293, Control_c, 0, 64, 127
3, 360339, Note_on_c, 0, 84, 0
3, 360417, Note_on_c, 0, 88, 55
3, 360449, Note_on_c, 0, 86, 25
3, 360492, Note_on_c, 0, 86, 0
3, 360587, Note_on_c, 0, 88, 0
3, 360654, Note_on_c, 0, 91, 64
3, 360807, Control_c, 0, 64, 0
3, 360849, Note_on_c, 0, 91, 0
3, 360876, Note_on_c, 0, 88, 42
3, 360879, Note_on_c, 0, 60, 19
3, 360902, Note_on_c, 0, 57, 24
3, 360907, Note_on_c, 0, 53, 22
3, 360920, Note_on_c, 0, 50, 22
3, 360942, Note_on_c, 0, 88, 0
3, 360961, Note_on_c, 0, 89, 45
3, 361096, Note_on_c, 0, 89, 0
3, 361543, Note_on_c, 0, 60, 0
3, 361571, Note_on_c, 0, 53, 0
3, 361576, Control_c, 0, 64, 127
3, 361580, Note_on_c, 0, 57, 0
3, 361781, Control_c, 0, 64, 0
3, 361867, Note_on_c, 0, 57, 32
3, 361876, Note_on_c, 0, 60, 27
3, 361908, Note_on_c, 0, 53, 20
3, 362141, Note_on_c, 0, 89, 65
3, 362192, Note_on_c, 0, 88, 67
3, 362272, Note_on_c, 0, 89, 0
3, 362361, Note_on_c, 0, 60, 0
3, 362371, Note_on_c, 0, 88, 0
3, 362426, Note_on_c, 0, 57, 0
3, 362481, Note_on_c, 0, 53, 0
3, 362624, Note_on_c, 0, 88, 71
3, 362778, Note_on_c, 0, 88, 0
3, 362960, Note_on_c, 0, 60, 17
3, 362968, Note_on_c, 0, 57, 24
3, 362972, Note_on_c, 0, 53, 22
3, 362974, Note_on_c, 0, 88, 72
3, 363130, Note_on_c, 0, 86, 62
3, 363162, Note_on_c, 0, 88, 0
3, 363330, Note_on_c, 0, 86, 0
3, 363347, Note_on_c, 0, 53, 0
3, 363348, Note_on_c, 0, 50, 0
3, 363368, Note_on_c, 0, 57, 0
3, 363482, Note_on_c, 0, 86, 67
3, 363485, Note_on_c, 0, 60, 0
3, 363488, Control_c, 0, 64, 127
3, 363667, Note_on_c, 0, 86, 0
3, 363717, Note_on_c, 0, 81, 51
3, 363872, Note_on_c, 0, 81, 0
3, 363886, Control_c, 0, 64, 0
3, 363950, Note_on_c, 0, 65, 44
3, 363971, Note_on_c, 0, 55, 24
3, 363992, Note_on_c, 0, 60, 32
3, 363994, Note_on_c, 0, 81, 37
3, 364025, Note_on_c, 0, 57, 24
3, 364130, Control_c, 0, 64, 127
3, 364225, Note_on_c, 0, 81, 0
3, 364241, Note_on_c, 0, 84, 60
3, 364468, Note_on_c, 0, 60, 0
3, 364480, Note_on_c, 0, 84, 0
3, 364488, Note_on_c, 0, 65, 0
3, 364518, Note_on_c, 0, 81, 47
3, 364586, Note_on_c, 0, 57, 0
3, 364597, Note_on_c, 0, 55, 0
3, 364783, Note_on_c, 0, 81, 0
3, 364810, Control_c, 0, 64, 0
3, 364824, Note_on_c, 0, 82, 51
3, 364829, Note_on_c, 0, 64, 37
3, 364867, Note_on_c, 0, 53, 22
3, 364870, Note_on_c, 0, 59, 31
3, 365105, Control_c, 0, 64, 127
3, 365109, Note_on_c, 0, 82, 0
3, 365120, Note_on_c, 0, 64, 0
3, 365167, Note_on_c, 0, 59, 0
3, 365200, Note_on_c, 0, 83, 24
3, 365212, Note_on_c, 0, 53, 0
3, 365480, Note_on_c, 0, 91, 71
3, 365760, Control_c, 0, 64, 0
3, 365827, Note_on_c, 0, 43, 30
3, 365900, Control_c, 0, 64, 127
3, 366058, Note_on_c, 0, 43, 0
3, 366196, Note_on_c, 0, 91, 0
3, 366283, Note_on_c, 0, 83, 0
3, 366763, Note_on_c, 0, 63, 53
3, 366785, Control_c, 0, 64, 0
3, 366786, Note_on_c, 0, 58, 36
3, 366801, Note_on_c, 0, 53, 27
3, 366807, Note_on_c, 0, 59, 44
3, 367016, Control_c, 0, 64, 127
3, 367342, Note_on_c, 0, 63, 0
3, 367527, Note_on_c, 0, 58, 0
3, 367528, Note_on_c, 0, 59, 0
3, 367558, Note_on_c, 0, 53, 0
3, 367759, Note_on_c, 0, 61, 38
3, 367795, Note_on_c, 0, 53, 24
3, 367799, Note_on_c, 0, 55, 35
3, 367820, Note_on_c, 0, 59, 24
3, 368019, Note_on_c, 0, 59, 0
3, 368053, Note_on_c, 0, 61, 0
3, 368057, Note_on_c, 0, 55, 0
3, 368125, Note_on_c, 0, 53, 0
3, 368584, Note_on_c, 0, 50, 44
3, 368687, Note_on_c, 0, 51, 40
3, 368697, Control_c, 0, 64, 0
3, 368721, Note_on_c, 0, 52, 50
3, 368723, Note_on_c, 0, 50, 0
3, 368725, Note_on_c, 0, 69, 47
3, 368732, Note_on_c, 0, 64, 44
3, 368737, Note_on_c, 0, 59, 41
3, 368828, Note_on_c, 0, 51, 0
3, 368954, Control_c, 0, 64, 127
3, 369185, Control_c, 0, 64, 0
3, 369216, Note_on_c, 0, 64, 0
3, 369227, Note_on_c, 0, 69, 0
3, 369249, Control_c, 0, 64, 127
3, 369322, Note_on_c, 0, 59, 0
3, 369493, Note_on_c, 0, 52, 0
3, 369620, Control_c, 0, 64, 0
3, 369671, Note_on_c, 0, 64, 53
3, 369692, Note_on_c, 0, 60, 38
3, 369696, Note_on_c, 0, 53, 33
3, 369698, Note_on_c, 0, 48, 36
3, 369701, Note_on_c, 0, 57, 37
3, 369992, Control_c, 0, 64, 127
3, 370234, Note_on_c, 0, 53, 0
3, 370237, Note_on_c, 0, 57, 0
3, 370264, Note_on_c, 0, 60, 0
3, 370311, Note_on_c, 0, 48, 0
3, 370412, Note_on_c, 0, 64, 0
3, 370531, Control_c, 0, 64, 0
3, 370597, Note_on_c, 0, 64, 47
3, 370600, Note_on_c, 0, 43, 32
3, 370613, Note_on_c, 0, 56, 33
3, 370613, Note_on_c, 0, 59, 44
3, 370638, Note_on_c, 0, 53, 22
3, 370904, Control_c, 0, 64, 127
3, 371137, Note_on_c, 0, 53, 0
3, 371226, Note_on_c, 0, 59, 0
3, 371233, Note_on_c, 0, 56, 0
3, 371485, Note_on_c, 0, 64, 0
3, 371541, Note_on_c, 0, 59, 44
3, 371559, Note_on_c, 0, 56, 33
3, 371576, Note_on_c, 0, 53, 30
3, 371578, Note_on_c, 0, 52, 24
3, 371644, Note_on_c, 0, 43, 0
3, 371808, Note_on_c, 0, 52, 0
3, 371944, Note_on_c, 0, 53, 0
3, 371973, Note_on_c, 0, 56, 0
3, 371994, Note_on_c, 0, 64, 17
3, 372029, Note_on_c, 0, 59, 0
3, 372199, Note_on_c, 0, 64, 0
3, 372444, Control_c, 0, 64, 0
3, 372494, Note_on_c, 0, 43, 24
3, 372508, Note_on_c, 0, 55, 29
3, 372510, Note_on_c, 0, 62, 43
3, 372519, Note_on_c, 0, 59, 34
3, 372542, Note_on_c, 0, 36, 17
3, 372549, Note_on_c, 0, 52, 25
3, 372739, Control_c, 0, 64, 127
3, 372760, Note_on_c, 0, 62, 0
3, 372801, Note_on_c, 0, 55, 0
3, 372808, Note_on_c, 0, 59, 0
3, 372989, Note_on_c, 0, 67, 65
3, 373210, Note_on_c, 0, 67, 0
3, 373446, Note_on_c, 0, 67, 80
3, 373456, Note_on_c, 0, 36, 0
3, 373574, Note_on_c, 0, 43, 0
3, 373670, Note_on_c, 0, 52, 0
3, 373794, Note_on_c, 0, 67, 0
3, 373904, Note_on_c, 0, 62, 80
3, 374168, Note_on_c, 0, 62, 0
3, 374383, Note_on_c, 0, 62, 88
3, 374776, Note_on_c, 0, 62, 0
3, 374791, Control_c, 0, 64, 0
3, 374865, Note_on_c, 0, 45, 50
3, 374867, Note_on_c, 0, 55, 33
3, 374880, Note_on_c, 0, 64, 91
3, 375074, Control_c, 0, 64, 127
3, 375119, Note_on_c, 0, 55, 0
3, 375174, Note_on_c, 0, 45, 0
3, 375226, Control_c, 0, 64, 0
3, 375368, Note_on_c, 0, 57, 52
3, 375484, Control_c, 0, 64, 127
3, 375664, Control_c, 0, 64, 0
3, 375856, Note_on_c, 0, 43, 30
3, 375882, Control_c, 0, 64, 127
3, 376001, Note_on_c, 0, 57, 0
3, 376037, Note_on_c, 0, 43, 0
3, 376087, Note_on_c, 0, 64, 0
3, 376293, Control_c, 0, 64, 0
3, 376354, Note_on_c, 0, 52, 50
3, 376373, Note_on_c, 0, 42, 37
3, 376552, Note_on_c, 0, 52, 0
3, 376576, Control_c, 0, 64, 127
3, 376705, Note_on_c, 0, 42, 0
3, 377319, Control_c, 0, 64, 0
3, 377350, Note_on_c, 0, 66, 36
3, 377351, Note_on_c, 0, 64, 38
3, 377354, Note_on_c, 0, 69, 49
3, 377369, Note_on_c, 0, 54, 27
3, 377390, Note_on_c, 0, 60, 30
3, 377559, Note_on_c, 0, 66, 0
3, 377569, Note_on_c, 0, 69, 0
3, 377608, Note_on_c, 0, 67, 53
3, 377623, Note_on_c, 0, 71, 51
3, 377736, Note_on_c, 0, 64, 0
3, 377757, Note_on_c, 0, 67, 0
3, 377760, Note_on_c, 0, 71, 0
3, 377825, Note_on_c, 0, 69, 75
3, 377852, Note_on_c, 0, 72, 59
3, 377921, Control_c, 0, 64, 127
3, 378039, Note_on_c, 0, 60, 0
3, 378179, Note_on_c, 0, 72, 0
3, 378184, Note_on_c, 0, 69, 0
3, 378282, Control_c, 0, 64, 0
3, 378321, Note_on_c, 0, 72, 55
3, 378324, Note_on_c, 0, 69, 67
3, 378365, Note_on_c, 0, 64, 32
3, 378429, Note_on_c, 0, 60, 18
3, 378499, Note_on_c, 0, 64, 0
3, 378521, Note_on_c, 0, 69, 0
3, 378534, Note_on_c, 0, 72, 0
3, 378567, Note_on_c, 0, 71, 55
3, 378580, Note_on_c, 0, 67, 48
3, 378727, Note_on_c, 0, 71, 0
3, 378732, Note_on_c, 0, 67, 0
3, 378799, Note_on_c, 0, 69, 39
3, 378821, Control_c, 0, 64, 127
3, 378992, Note_on_c, 0, 69, 0
3, 379024, Note_on_c, 0, 60, 0
3, 379155, Control_c, 0, 64, 0
3, 379279, Note_on_c, 0, 69, 50
3, 379293, Note_on_c, 0, 66, 37
3, 379310, Note_on_c, 0, 64, 28
3, 379340, Note_on_c, 0, 60, 25
3, 379360, Control_c, 0, 64, 127
3, 379409, Note_on_c, 0, 64, 0
3, 379456, Note_on_c, 0, 66, 0
3, 379494, Note_on_c, 0, 60, 0
3, 379627, Note_on_c, 0, 54, 0
3, 379729, Note_on_c, 0, 69, 0
3, 379756, Note_on_c, 0, 64, 49
3, 379769, Note_on_c, 0, 67, 36
3, 379852, Note_on_c, 0, 67, 0
3, 379943, Note_on_c, 0, 64, 0
3, 380167, Control_c, 0, 64, 0
3, 380272, Note_on_c, 0, 63, 52
3, 380276, Note_on_c, 0, 57, 31
3, 380276, Note_on_c, 0, 47, 31
3, 380280, Note_on_c, 0, 66, 37
3, 380591, Control_c, 0, 64, 127
3, 380736, Note_on_c, 0, 57, 0
3, 380874, Note_on_c, 0, 63, 0
3, 381035, Note_on_c, 0, 66, 0
3, 381117, Control_c, 0, 64, 0
3, 381131, Note_on_c, 0, 64, 45
3, 381148, Note_on_c, 0, 60, 32
3, 381168, Note_on_c, 0, 57, 27
3, 381386, Control_c, 0, 64, 127
3, 381557, Note_on_c, 0, 57, 0
3, 381748, Note_on_c, 0, 60, 0
3, 381885, Note_on_c, 0, 64, 0
3, 382014, Control_c, 0, 64, 0
3, 382041, Note_on_c, 0, 59, 40
3, 382053, Note_on_c, 0, 57, 33
3, 382056, Note_on_c, 0, 63, 31
3, 382374, Control_c, 0, 64, 127
3, 382608, Note_on_c, 0, 47, 0
3, 382990, Note_on_c, 0, 47, 45
3, 383205, Note_on_c, 0, 47, 0
3, 383297, Note_on_c, 0, 59, 0
3, 383302, Note_on_c, 0, 57, 0
3, 383462, Note_on_c, 0, 63, 0
3, 383939, Control_c, 0, 64, 0
3, 383941, Note_on_c, 0, 70, 53
3, 383991, Note_on_c, 0, 58, 30
3, 384008, Note_on_c, 0, 52, 14
3, 384010, Note_on_c, 0, 62, 24
3, 384161, Note_on_c, 0, 70, 0
3, 384232, Note_on_c, 0, 72, 49
3, 384412, Note_on_c, 0, 72, 0
3, 384472, Note_on_c, 0, 74, 43
3, 384533, Note_on_c, 0, 58, 0
3, 384624, Note_on_c, 0, 74, 0
3, 384632, Note_on_c, 0, 62, 0
3, 384750, Note_on_c, 0, 76, 61
3, 384925, Note_on_c, 0, 76, 0
3, 384983, Note_on_c, 0, 69, 43
3, 385027, Note_on_c, 0, 62, 17
3, 385057, Note_on_c, 0, 58, 26
3, 385160, Note_on_c, 0, 62, 0
3, 385182, Note_on_c, 0, 69, 0
3, 385224, Note_on_c, 0, 58, 0
3, 385487, Note_on_c, 0, 69, 42
3, 385511, Note_on_c, 0, 62, 24
3, 385571, Note_on_c, 0, 52, 0
3, 385667, Note_on_c, 0, 62, 0
3, 385793, Note_on_c, 0, 69, 0
3, 385973, Note_on_c, 0, 61, 33
3, 385994, Note_on_c, 0, 65, 31
3, 386001, Note_on_c, 0, 55, 17
3, 386018, Control_c, 0, 64, 127
3, 386593, Note_on_c, 0, 65, 0
3, 386727, Note_on_c, 0, 55, 0
3, 386760, Note_on_c, 0, 61, 0
3, 386942, Control_c, 0, 64, 0
3, 386965, Note_on_c, 0, 61, 34
3, 386970, Note_on_c, 0, 64, 38
3, 386987, Note_on_c, 0, 55, 29
3, 387107, Control_c, 0, 64, 127
3, 387289, Note_on_c, 0, 64, 0
3, 387306, Note_on_c, 0, 61, 0
3, 387326, Note_on_c, 0, 55, 0
3, 387840, Control_c, 0, 64, 0
3, 387864, Note_on_c, 0, 60, 42
3, 387866, Note_on_c, 0, 50, 35
3, 387883, Note_on_c, 0, 68, 64
3, 388116, Note_on_c, 0, 70, 55
3, 388134, Note_on_c, 0, 68, 0
3, 388380, Note_on_c, 0, 72, 40
3, 388417, Control_c, 0, 64, 127
3, 388426, Note_on_c, 0, 70, 0
3, 388426, Note_on_c, 0, 60, 0
3, 388573, Note_on_c, 0, 72, 0
3, 388600, Note_on_c, 0, 75, 67
3, 388673, Control_c, 0, 64, 0
3, 388823, Note_on_c, 0, 60, 31
3, 388839, Note_on_c, 0, 75, 0
3, 388853, Note_on_c, 0, 67, 44
3, 389075, Note_on_c, 0, 67, 0
3, 389204, Note_on_c, 0, 50, 0
3, 389226, Control_c, 0, 64, 127
3, 389310, Note_on_c, 0, 67, 54
3, 389313, Note_on_c, 0, 60, 0
3, 389509, Note_on_c, 0, 67, 0
3, 389559, Control_c, 0, 64, 0
3, 389767, Note_on_c, 0, 64, 41
3, 389788, Note_on_c, 0, 53, 24
3, 389794, Note_on_c, 0, 59, 33
3, 389879, Control_c, 0, 64, 127
3, 390051, Note_on_c, 0, 64, 0
3, 390115, Note_on_c, 0, 59, 0
3, 390168, Note_on_c, 0, 53, 0
3, 390700, Control_c, 0, 64, 0
3, 390782, Note_on_c, 0, 43, 26
3, 390791, Note_on_c, 0, 63, 37
3, 390794, Note_on_c, 0, 59, 37
3, 390810, Note_on_c, 0, 53, 18
3, 390932, Control_c, 0, 64, 127
3, 390945, Note_on_c, 0, 43, 0
3, 391089, Note_on_c, 0, 53, 0
3, 391235, Note_on_c, 0, 59, 0
3, 391610, Note_on_c, 0, 63, 0
3, 391701, Control_c, 0, 64, 0
3, 391741, Note_on_c, 0, 62, 33
3, 391744, Note_on_c, 0, 57, 34
3, 391758, Note_on_c, 0, 43, 24
3, 391759, Note_on_c, 0, 59, 26
3, 391769, Note_on_c, 0, 36, 24
3, 391786, Note_on_c, 0, 52, 29
3, 391984, Control_c, 0, 64, 127
3, 392061, Note_on_c, 0, 36, 0
3, 392143, Note_on_c, 0, 43, 0
3, 392252, Note_on_c, 0, 52, 0
3, 392389, Note_on_c, 0, 59, 0
3, 392469, Note_on_c, 0, 57, 0
3, 392554, Note_on_c, 0, 62, 0
3, 392633, Note_on_c, 0, 51, 42
3, 392689, Control_c, 0, 64, 0
3, 392701, Note_on_c, 0, 52, 50
3, 392715, Note_on_c, 0, 57, 52
3, 392718, Note_on_c, 0, 62, 32
3, 392719, Note_on_c, 0, 67, 49
3, 392768, Note_on_c, 0, 51, 0
3, 392869, Note_on_c, 0, 67, 0
3, 392903, Note_on_c, 0, 62, 0
3, 392911, Note_on_c, 0, 52, 0
3, 392942, Note_on_c, 0, 57, 0
3, 393039, Note_on_c, 0, 66, 51
3, 393079, Note_on_c, 0, 51, 28
3, 393194, Note_on_c, 0, 66, 0
3, 393281, Note_on_c, 0, 51, 0
3, 393336, Note_on_c, 0, 52, 44
3, 393338, Note_on_c, 0, 67, 60
3, 393341, Note_on_c, 0, 57, 64
3, 393359, Note_on_c, 0, 62, 51
3, 393827, Note_on_c, 0, 57, 0
3, 393830, Note_on_c, 0, 62, 0
3, 393831, Note_on_c, 0, 52, 0
3, 393834, Note_on_c, 0, 67, 0
3, 393973, Note_on_c, 0, 57, 61
3, 393980, Note_on_c, 0, 67, 51
3, 393982, Note_on_c, 0, 52, 41
3, 393989, Note_on_c, 0, 62, 44
3, 394133, Note_on_c, 0, 67, 0
3, 394138, Note_on_c, 0, 57, 0
3, 394140, Note_on_c, 0, 62, 0
3, 394190, Note_on_c, 0, 52, 0
3, 394248, Note_on_c, 0, 51, 40
3, 394337, Note_on_c, 0, 66, 21
3, 394453, Note_on_c, 0, 66, 0
3, 394588, Note_on_c, 0, 52, 59
3, 394593, Note_on_c, 0, 62, 56
3, 394602, Note_on_c, 0, 57, 57
3, 394604, Note_on_c, 0, 67, 57
3, 394608, Note_on_c, 0, 51, 0
3, 394768, Control_c, 0, 64, 127
3, 394865, Note_on_c, 0, 62, 0
3, 394885, Note_on_c, 0, 52, 0
3, 394895, Note_on_c, 0, 57, 0
3, 394944, Note_on_c, 0, 67, 0
3, 395191, Control_c, 0, 64, 0
3, 395456, Note_on_c, 0, 37, 49
3, 395457, Note_on_c, 0, 67, 54
3, 395462, Note_on_c, 0, 55, 49
3, 395463, Note_on_c, 0, 59, 54
3, 395467, Note_on_c, 0, 63, 38
3, 395467, Note_on_c, 0, 44, 36
3, 395568, Note_on_c, 0, 55, 0
3, 395573, Note_on_c, 0, 59, 0
3, 395591, Note_on_c, 0, 63, 0
3, 395616, Note_on_c, 0, 44, 0
3, 395632, Note_on_c, 0, 67, 0
3, 395683, Note_on_c, 0, 37, 0
3, 395726, Note_on_c, 0, 44, 33
3, 395870, Note_on_c, 0, 44, 0
3, 396064, Note_on_c, 0, 44, 19
3, 396083, Note_on_c, 0, 67, 57
3, 396085, Note_on_c, 0, 63, 42
3, 396088, Note_on_c, 0, 59, 60
3, 396090, Note_on_c, 0, 55, 52
3, 396101, Note_on_c, 0, 53, 47
3, 396372, Control_c, 0, 64, 127
3, 396403, Note_on_c, 0, 53, 0
3, 396495, Note_on_c, 0, 55, 0
3, 396496, Note_on_c, 0, 44, 0
3, 396499, Note_on_c, 0, 59, 0
3, 396533, Note_on_c, 0, 63, 0
3, 396544, Note_on_c, 0, 67, 0
3, 396615, Control_c, 0, 64, 0
3, 396704, Note_on_c, 0, 44, 23
3, 396725, Note_on_c, 0, 55, 42
3, 396743, Note_on_c, 0, 67, 41
3, 396765, Note_on_c, 0, 59, 26
3, 396770, Note_on_c, 0, 63, 20
3, 396825, Note_on_c, 0, 59, 0
3, 396844, Note_on_c, 0, 63, 0
3, 396862, Note_on_c, 0, 67, 0
3, 396862, Note_on_c, 0, 55, 0
3, 397000, Control_c, 0, 64, 127
3, 397039, Note_on_c, 0, 65, 38
3, 397058, Note_on_c, 0, 37, 49
3, 397064, Control_c, 0, 64, 0
3, 397102, Note_on_c, 0, 44, 0
3, 397182, Note_on_c, 0, 37, 0
3, 397207, Note_on_c, 0, 65, 0
3, 397367, Note_on_c, 0, 63, 48
3, 397373, Note_on_c, 0, 55, 39
3, 397374, Note_on_c, 0, 67, 53
3, 397378, Note_on_c, 0, 59, 56
3, 397392, Note_on_c, 0, 44, 29
3, 397395, Note_on_c, 0, 53, 44
3, 397461, Control_c, 0, 64, 127
3, 397760, Note_on_c, 0, 53, 0
3, 397832, Note_on_c, 0, 44, 0
3, 397857, Note_on_c, 0, 55, 0
3, 398037, Note_on_c, 0, 59, 0
3, 398053, Note_on_c, 0, 67, 0
3, 398062, Note_on_c, 0, 63, 0
3, 398177, Note_on_c, 0, 37, 34
3, 398245, Note_on_c, 0, 37, 0
3, 398269, Note_on_c, 0, 44, 35
3, 398334, Control_c, 0, 64, 0
3, 398369, Note_on_c, 0, 44, 0
3, 398410, Note_on_c, 0, 55, 56
3, 398415, Note_on_c, 0, 59, 53
3, 398416, Note_on_c, 0, 67, 52
3, 398421, Note_on_c, 0, 53, 44
3, 398425, Note_on_c, 0, 63, 44
3, 398584, Note_on_c, 0, 55, 0
3, 398586, Note_on_c, 0, 59, 0
3, 398595, Note_on_c, 0, 63, 0
3, 398603, Note_on_c, 0, 67, 0
3, 398636, Note_on_c, 0, 53, 0
3, 398721, Note_on_c, 0, 44, 37
3, 398726, Note_on_c, 0, 65, 18
3, 398832, Note_on_c, 0, 65, 0
3, 398986, Note_on_c, 0, 63, 42
3, 398992, Note_on_c, 0, 67, 58
3, 398996, Note_on_c, 0, 59, 54
3, 399005, Note_on_c, 0, 55, 46
3, 399031, Note_on_c, 0, 53, 33
3, 399079, Note_on_c, 0, 44, 0
3, 399311, Note_on_c, 0, 59, 0
3, 399330, Note_on_c, 0, 55, 0
3, 399335, Control_c, 0, 64, 127
3, 399406, Note_on_c, 0, 53, 0
3, 399435, Note_on_c, 0, 67, 0
3, 399454, Note_on_c, 0, 63, 0
3, 399580, Control_c, 0, 64, 0
3, 399686, Note_on_c, 0, 65, 14
3, 399691, Note_on_c, 0, 58, 63
3, 399692, Note_on_c, 0, 67, 47
3, 399704, Note_on_c, 0, 62, 50
3, 399708, Note_on_c, 0, 55, 39
3, 399837, Note_on_c, 0, 58, 0
3, 399884, Note_on_c, 0, 62, 0
3, 399897, Note_on_c, 0, 67, 0
3, 399925, Note_on_c, 0, 65, 0
3, 399978, Note_on_c, 0, 55, 0
3, 399984, Note_on_c, 0, 54, 40
3, 400266, Note_on_c, 0, 54, 0
3, 400309, Note_on_c, 0, 55, 51
3, 400314, Note_on_c, 0, 67, 66
3, 400325, Note_on_c, 0, 62, 60
3, 400326, Note_on_c, 0, 58, 63
3, 400490, Control_c, 0, 64, 127
3, 400853, Note_on_c, 0, 55, 0
3, 400899, Note_on_c, 0, 67, 0
3, 400922, Note_on_c, 0, 43, 39
3, 400924, Note_on_c, 0, 58, 0
3, 400984, Note_on_c, 0, 62, 0
3, 401070, Note_on_c, 0, 43, 0
3, 401208, Control_c, 0, 64, 0
3, 401285, Note_on_c, 0, 58, 55
3, 401287, Note_on_c, 0, 61, 45
3, 401288, Note_on_c, 0, 70, 39
3, 401303, Note_on_c, 0, 48, 39
3, 401309, Note_on_c, 0, 64, 49
3, 401342, Note_on_c, 0, 68, 20
3, 401404, Note_on_c, 0, 68, 0
3, 401478, Control_c, 0, 64, 127
3, 401614, Note_on_c, 0, 48, 0
3, 401687, Note_on_c, 0, 70, 0
3, 401800, Note_on_c, 0, 58, 0
3, 401927, Note_on_c, 0, 61, 0
3, 401949, Note_on_c, 0, 64, 0
3, 402183, Control_c, 0, 64, 0
3, 402288, Note_on_c, 0, 58, 50
3, 402293, Note_on_c, 0, 69, 48
3, 402298, Note_on_c, 0, 61, 39
3, 402311, Note_on_c, 0, 64, 49
3, 402320, Note_on_c, 0, 42, 29
3, 402339, Note_on_c, 0, 52, 19
3, 402401, Control_c, 0, 64, 127
3, 402516, Note_on_c, 0, 69, 0
3, 402525, Note_on_c, 0, 52, 0
3, 402670, Note_on_c, 0, 42, 0
3, 402695, Note_on_c, 0, 64, 0
3, 402734, Note_on_c, 0, 58, 0
3, 402827, Note_on_c, 0, 61, 0
3, 403146, Control_c, 0, 64, 0
3, 403217, Note_on_c, 0, 68, 40
3, 403229, Note_on_c, 0, 56, 37
3, 403232, Note_on_c, 0, 41, 39
3, 403242, Note_on_c, 0, 63, 37
3, 403265, Note_on_c, 0, 60, 36
3, 403292, Note_on_c, 0, 51, 18
3, 403389, Control_c, 0, 64, 127
3, 403488, Note_on_c, 0, 56, 0
3, 403509, Note_on_c, 0, 41, 0
3, 403517, Note_on_c, 0, 60, 0
3, 403584, Note_on_c, 0, 51, 0
3, 403619, Note_on_c, 0, 63, 0
3, 403668, Note_on_c, 0, 68, 0
3, 404192, Note_on_c, 0, 63, 36
3, 404202, Note_on_c, 0, 75, 39
3, 404234, Note_on_c, 0, 56, 37
3, 404240, Note_on_c, 0, 68, 32
3, 404241, Note_on_c, 0, 72, 42
3, 404244, Note_on_c, 0, 65, 19
3, 404254, Note_on_c, 0, 53, 18
3, 404559, Note_on_c, 0, 63, 0
3, 404683, Note_on_c, 0, 72, 0
3, 404700, Note_on_c, 0, 65, 0
3, 404702, Note_on_c, 0, 56, 0
3, 404765, Note_on_c, 0, 75, 0
3, 404800, Note_on_c, 0, 68, 0
3, 404880, Note_on_c, 0, 53, 0
3, 405154, Note_on_c, 0, 68, 40
3, 405159, Control_c, 0, 64, 0
3, 405166, Note_on_c, 0, 65, 36
3, 405177, Note_on_c, 0, 58, 42
3, 405314, Control_c, 0, 64, 127
3, 405404, Note_on_c, 0, 58, 0
3, 405579, Note_on_c, 0, 65, 0
3, 405596, Note_on_c, 0, 68, 0
3, 406033, Control_c, 0, 64, 0
3, 406071, Note_on_c, 0, 62, 43
3, 406081, Note_on_c, 0, 46, 30
3, 406096, Note_on_c, 0, 68, 29
3, 406097, Note_on_c, 0, 56, 21
3, 406167, Note_on_c, 0, 56, 0
3, 406187, Control_c, 0, 64, 127
3, 406211, Note_on_c, 0, 46, 0
3, 406494, Note_on_c, 0, 62, 0
3, 406563, Note_on_c, 0, 68, 0
3, 406987, Note_on_c, 0, 47, 24
3, 407008, Note_on_c, 0, 40, 28
3, 407033, Control_c, 0, 64, 0
3, 407034, Note_on_c, 0, 67, 32
3, 407047, Note_on_c, 0, 55, 24
3, 407175, Note_on_c, 0, 67, 0
3, 407194, Note_on_c, 0, 69, 15
3, 407432, Note_on_c, 0, 67, 44
3, 407464, Note_on_c, 0, 69, 0
3, 407480, Note_on_c, 0, 55, 0
3, 407589, Note_on_c, 0, 67, 0
3, 407596, Note_on_c, 0, 66, 30
3, 407714, Note_on_c, 0, 66, 0
3, 407825, Note_on_c, 0, 67, 34
3, 407882, Note_on_c, 0, 67, 0
3, 408001, Note_on_c, 0, 55, 24
3, 408017, Note_on_c, 0, 79, 66
3, 408088, Note_on_c, 0, 40, 0
3, 408160, Note_on_c, 0, 79, 0
3, 408197, Note_on_c, 0, 55, 0
3, 408238, Note_on_c, 0, 47, 0
3, 408343, Note_on_c, 0, 79, 53
3, 408490, Note_on_c, 0, 79, 0
3, 408624, Control_c, 0, 64, 127
3, 408637, Note_on_c, 0, 79, 42
3, 408800, Note_on_c, 0, 79, 0
3, 408805, Control_c, 0, 64, 0
3, 408915, Note_on_c, 0, 54, 36
3, 408922, Note_on_c, 0, 39, 34
3, 408951, Note_on_c, 0, 79, 40
3, 409009, Control_c, 0, 64, 127
3, 409120, Note_on_c, 0, 39, 0
3, 409323, Note_on_c, 0, 54, 0
3, 409867, Control_c, 0, 64, 0
3, 409904, Note_on_c, 0, 63, 30
3, 409926, Note_on_c, 0, 54, 30
3, 409962, Note_on_c, 0, 60, 29
3, 410023, Control_c, 0, 64, 127
3, 410292, Note_on_c, 0, 63, 0
3, 410300, Note_on_c, 0, 60, 0
3, 410315, Note_on_c, 0, 79, 0
3, 410344, Note_on_c, 0, 54, 0
3, 410571, Note_on_c, 0, 77, 78
3, 410730, Note_on_c, 0, 77, 0
3, 410876, Note_on_c, 0, 73, 23
3, 410895, Control_c, 0, 64, 0
3, 410941, Note_on_c, 0, 64, 54
3, 410963, Note_on_c, 0, 76, 28
3, 411002, Note_on_c, 0, 73, 0
3, 411019, Note_on_c, 0, 65, 25
3, 411032, Note_on_c, 0, 69, 41
3, 411064, Note_on_c, 0, 72, 24
3, 411408, Control_c, 0, 64, 127
3, 411453, Note_on_c, 0, 72, 0
3, 411461, Note_on_c, 0, 69, 0
3, 411470, Note_on_c, 0, 64, 0
3, 411503, Note_on_c, 0, 76, 0
3, 411536, Note_on_c, 0, 65, 0
3, 411754, Control_c, 0, 64, 0
3, 411857, Note_on_c, 0, 72, 35
3, 411869, Note_on_c, 0, 60, 34
3, 411874, Note_on_c, 0, 69, 34
3, 411887, Note_on_c, 0, 65, 29
3, 411947, Control_c, 0, 64, 127
3, 412167, Note_on_c, 0, 72, 0
3, 412170, Note_on_c, 0, 69, 0
3, 412174, Note_on_c, 0, 60, 0
3, 412298, Note_on_c, 0, 65, 0
3, 412794, Control_c, 0, 64, 0
3, 412819, Note_on_c, 0, 68, 38
3, 412821, Note_on_c, 0, 59, 42
3, 412839, Note_on_c, 0, 64, 37
3, 412849, Note_on_c, 0, 54, 30
3, 413049, Note_on_c, 0, 54, 0
3, 413063, Control_c, 0, 64, 127
3, 413276, Note_on_c, 0, 59, 0
3, 413296, Note_on_c, 0, 64, 0
3, 413402, Note_on_c, 0, 68, 0
3, 413692, Control_c, 0, 64, 0
3, 413757, Note_on_c, 0, 69, 45
3, 413763, Note_on_c, 0, 59, 38
3, 413767, Note_on_c, 0, 64, 36
3, 413790, Note_on_c, 0, 43, 24
3, 413803, Note_on_c, 0, 53, 19
3, 413911, Control_c, 0, 64, 127
3, 414163, Note_on_c, 0, 53, 0
3, 414196, Note_on_c, 0, 69, 0
3, 414206, Note_on_c, 0, 64, 0
3, 414338, Note_on_c, 0, 59, 0
3, 414693, Control_c, 0, 64, 0
3, 414703, Note_on_c, 0, 57, 47
3, 414708, Note_on_c, 0, 67, 47
3, 414731, Note_on_c, 0, 62, 35
3, 414745, Note_on_c, 0, 43, 0
3, 415240, Note_on_c, 0, 51, 53
3, 415705, Note_on_c, 0, 51, 0
3, 415733, Note_on_c, 0, 52, 42
3, 416158, Note_on_c, 0, 43, 33
3, 416394, Note_on_c, 0, 43, 0
3, 416601, Note_on_c, 0, 62, 0
3, 416616, Note_on_c, 0, 43, 35
3, 416693, Control_c, 0, 64, 127
3, 416702, Note_on_c, 0, 52, 0
3, 416706, Note_on_c, 0, 57, 0
3, 416858, Note_on_c, 0, 67, 0
3, 417104, Control_c, 0, 64, 0
3, 417121, Note_on_c, 0, 61, 37
3, 417126, Note_on_c, 0, 64, 52
3, 417137, Note_on_c, 0, 57, 39
3, 417150, Note_on_c, 0, 52, 37
3, 417560, Note_on_c, 0, 52, 0
3, 417569, Note_on_c, 0, 43, 0
3, 417592, Control_c, 0, 64, 127
3, 417653, Note_on_c, 0, 43, 52
3, 417798, Control_c, 0, 64, 0
3, 418027, Control_c, 0, 64, 127
3, 418036, Note_on_c, 0, 43, 0
3, 418115, Note_on_c, 0, 64, 0
3, 418133, Note_on_c, 0, 43, 35
3, 418137, Note_on_c, 0, 61, 0
3, 418155, Note_on_c, 0, 57, 0
3, 418425, Control_c, 0, 64, 0
3, 418557, Note_on_c, 0, 60, 53
3, 418560, Note_on_c, 0, 55, 47
3, 418583, Note_on_c, 0, 57, 48
3, 418798, Control_c, 0, 64, 127
3, 418876, Note_on_c, 0, 43, 0
3, 419046, Note_on_c, 0, 55, 0
3, 419060, Note_on_c, 0, 43, 65
3, 419454, Note_on_c, 0, 43, 0
3, 419564, Note_on_c, 0, 43, 34
3, 419582, Note_on_c, 0, 57, 0
3, 419654, Note_on_c, 0, 60, 0
3, 419965, Control_c, 0, 64, 0
3, 420008, Note_on_c, 0, 64, 61
3, 420017, Note_on_c, 0, 59, 61
3, 420020, Note_on_c, 0, 55, 32
3, 420028, Note_on_c, 0, 56, 68
3, 420262, Note_on_c, 0, 43, 0
3, 420448, Note_on_c, 0, 55, 0
3, 420467, Control_c, 0, 64, 127
3, 420471, Note_on_c, 0, 43, 58
3, 420811, Note_on_c, 0, 43, 0
3, 420993, Note_on_c, 0, 43, 66
3, 421145, Note_on_c, 0, 59, 0
3, 421207, Note_on_c, 0, 56, 0
3, 421235, Note_on_c, 0, 64, 0
3, 421411, Note_on_c, 0, 43, 0
3, 421447, Note_on_c, 0, 64, 57
3, 421448, Note_on_c, 0, 56, 67
3, 421459, Note_on_c, 0, 59, 58
3, 421473, Note_on_c, 0, 53, 49
3, 421760, Note_on_c, 0, 53, 0
3, 421853, Note_on_c, 0, 56, 0
3, 421858, Note_on_c, 0, 59, 0
3, 421893, Note_on_c, 0, 64, 0
3, 421921, Note_on_c, 0, 43, 42
3, 422187, Note_on_c, 0, 36, 62
3, 422312, Control_c, 0, 64, 0
3, 422373, Note_on_c, 0, 52, 44
3, 422415, Note_on_c, 0, 57, 74
3, 422419, Note_on_c, 0, 67, 72
3, 422423, Note_on_c, 0, 62, 71
3, 422595, Control_c, 0, 64, 127
3, 422613, Note_on_c, 0, 36, 0
3, 422689, Note_on_c, 0, 43, 0
3, 422767, Note_on_c, 0, 52, 0
3, 422803, Note_on_c, 0, 57, 0
3, 423041, Note_on_c, 0, 62, 0
3, 423328, Note_on_c, 0, 67, 0
3, 423397, Note_on_c, 0, 62, 69
3, 423408, Note_on_c, 0, 57, 64
3, 423416, Note_on_c, 0, 52, 47
3, 423773, Note_on_c, 0, 52, 0
3, 423774, Note_on_c, 0, 57, 0
3, 423824, Note_on_c, 0, 62, 0
3, 424250, Control_c, 0, 64, 0
3, 424325, Note_on_c, 0, 79, 76
3, 424327, Note_on_c, 0, 69, 87
3, 424330, Note_on_c, 0, 64, 79
3, 424330, Note_on_c, 0, 74, 87
3, 424392, Control_c, 0, 64, 127
3, 424670, Note_on_c, 0, 64, 0
3, 424700, Note_on_c, 0, 79, 0
3, 424702, Note_on_c, 0, 74, 0
3, 424794, Note_on_c, 0, 69, 0
3, 425200, Control_c, 0, 64, 0
3, 425236, Note_on_c, 0, 71, 53
3, 425237, Note_on_c, 0, 64, 57
3, 425248, Note_on_c, 0, 55, 36
3, 425263, Note_on_c, 0, 67, 45
3, 425315, Control_c, 0, 64, 127
3, 425474, Note_on_c, 0, 55, 0
3, 425501, Note_on_c, 0, 71, 0
3, 425527, Note_on_c, 0, 67, 0
3, 425591, Note_on_c, 0, 64, 0
3, 426124, Control_c, 0, 64, 0
3, 426182, Note_on_c, 0, 67, 29
3, 426199, Note_on_c, 0, 63, 34
3, 426215, Note_on_c, 0, 53, 28
3, 426222, Note_on_c, 0, 59, 29
3, 426227, Note_on_c, 0, 49, 31
3, 426343, Control_c, 0, 64, 127
3, 426398, Note_on_c, 0, 59, 0
3, 426458, Note_on_c, 0, 63, 0
3, 426460, Note_on_c, 0, 67, 0
3, 427123, Note_on_c, 0, 53, 0
3, 427160, Note_on_c, 0, 87, 55
3, 427164, Note_on_c, 0, 49, 0
3, 427170, Note_on_c, 0, 91, 52
3, 427416, Note_on_c, 0, 91, 0
3, 427432, Note_on_c, 0, 87, 0
3, 428069, Note_on_c, 0, 87, 42
3, 428092, Note_on_c, 0, 82, 34
3, 428094, Note_on_c, 0, 63, 20
3, 428101, Control_c, 0, 64, 0
3, 428107, Note_on_c, 0, 53, 25
3, 428119, Note_on_c, 0, 59, 29
3, 428334, Note_on_c, 0, 87, 0
3, 428357, Control_c, 0, 64, 127
3, 428381, Note_on_c, 0, 79, 27
3, 428395, Note_on_c, 0, 82, 0
3, 428487, Note_on_c, 0, 79, 0
3, 428518, Note_on_c, 0, 53, 0
3, 428666, Note_on_c, 0, 63, 0
3, 428721, Note_on_c, 0, 59, 0
3, 429036, Control_c, 0, 64, 0
3, 429050, Note_on_c, 0, 63, 26
3, 429058, Note_on_c, 0, 75, 46
3, 429073, Note_on_c, 0, 59, 26
3, 429105, Note_on_c, 0, 79, 24
3, 429292, Control_c, 0, 64, 127
3, 429319, Note_on_c, 0, 70, 37
3, 429332, Note_on_c, 0, 79, 0
3, 429387, Note_on_c, 0, 75, 0
3, 429427, Note_on_c, 0, 59, 0
3, 429465, Note_on_c, 0, 63, 0
3, 429583, Note_on_c, 0, 70, 0
3, 429948, Control_c, 0, 64, 0
3, 429982, Note_on_c, 0, 74, 44
3, 429985, Note_on_c, 0, 62, 25
3, 430004, Note_on_c, 0, 69, 26
3, 430016, Note_on_c, 0, 58, 37
3, 430018, Note_on_c, 0, 70, 33
3, 430030, Note_on_c, 0, 55, 18
3, 430127, Control_c, 0, 64, 127
3, 430287, Note_on_c, 0, 62, 0
3, 430321, Note_on_c, 0, 58, 0
3, 430366, Note_on_c, 0, 55, 0
3, 430371, Note_on_c, 0, 74, 0
3, 430432, Note_on_c, 0, 69, 0
3, 430464, Note_on_c, 0, 70, 0
3, 431004, Note_on_c, 0, 43, 32
3, 431178, Note_on_c, 0, 43, 0
3, 431352, Note_on_c, 0, 62, 47
3, 431395, Note_on_c, 0, 62, 0
3, 431567, Note_on_c, 0, 65, 55
3, 431673, Note_on_c, 0, 65, 0
3, 431796, Note_on_c, 0, 69, 74
3, 431916, Note_on_c, 0, 69, 0
3, 431974, Control_c, 0, 64, 0
3, 432001, Note_on_c, 0, 36, 26
3, 432029, Note_on_c, 0, 72, 68
3, 432032, Note_on_c, 0, 52, 27
3, 432035, Note_on_c, 0, 43, 18
3, 432175, Note_on_c, 0, 72, 0
3, 432323, Note_on_c, 0, 70, 60
3, 432462, Note_on_c, 0, 70, 0
3, 432471, Note_on_c, 0, 52, 0
3, 432549, Note_on_c, 0, 66, 48
3, 432702, Note_on_c, 0, 66, 0
3, 432759, Note_on_c, 0, 64, 60
3, 432884, Note_on_c, 0, 64, 0
3, 432997, Note_on_c, 0, 63, 58
3, 433127, Note_on_c, 0, 63, 0
3, 433236, Note_on_c, 0, 62, 60
3, 433323, Note_on_c, 0, 36, 0
3, 433374, Note_on_c, 0, 62, 0
3, 433397, Note_on_c, 0, 43, 0
3, 433401, Note_on_c, 0, 61, 52
3, 433584, Note_on_c, 0, 61, 0
3, 433587, Note_on_c, 0, 60, 44
3, 433685, Note_on_c, 0, 60, 0
3, 433775, Note_on_c, 0, 58, 38
3, 433882, Note_on_c, 0, 58, 0
3, 433931, Note_on_c, 0, 57, 41
3, 434056, Note_on_c, 0, 57, 0
3, 434088, Note_on_c, 0, 56, 53
3, 434128, Note_on_c, 0, 41, 30
3, 434516, Control_c, 0, 64, 127
3, 434901, Note_on_c, 0, 51, 31
3, 434938, Control_c, 0, 64, 0
3, 435101, Note_on_c, 0, 56, 0
3, 435174, Note_on_c, 0, 58, 46
3, 435257, Note_on_c, 0, 56, 35
3, 435340, Note_on_c, 0, 58, 0
3, 435374, Note_on_c, 0, 55, 28
3, 435379, Note_on_c, 0, 56, 0
3, 435453, Note_on_c, 0, 55, 0
3, 435534, Note_on_c, 0, 56, 21
3, 435624, Note_on_c, 0, 51, 0
3, 435636, Note_on_c, 0, 56, 0
3, 435676, Note_on_c, 0, 58, 34
3, 435741, Note_on_c, 0, 58, 0
3, 435814, Note_on_c, 0, 60, 53
3, 435863, Note_on_c, 0, 51, 29
3, 435866, Note_on_c, 0, 60, 0
3, 435959, Note_on_c, 0, 63, 48
3, 436134, Note_on_c, 0, 63, 0
3, 436202, Note_on_c, 0, 60, 44
3, 436258, Note_on_c, 0, 60, 0
3, 436281, Note_on_c, 0, 51, 0
3, 436382, Note_on_c, 0, 62, 44
3, 436481, Note_on_c, 0, 62, 0
3, 436596, Note_on_c, 0, 63, 63
3, 436691, Note_on_c, 0, 63, 0
3, 436785, Note_on_c, 0, 65, 46
3, 436810, Note_on_c, 0, 51, 32
3, 436920, Note_on_c, 0, 65, 0
3, 436993, Note_on_c, 0, 67, 56
3, 437081, Note_on_c, 0, 41, 0
3, 437105, Note_on_c, 0, 67, 0
3, 437172, Note_on_c, 0, 51, 0
3, 437209, Note_on_c, 0, 69, 53
3, 437323, Note_on_c, 0, 69, 0
3, 437418, Note_on_c, 0, 70, 31
3, 437427, Control_c, 0, 64, 127
3, 437511, Note_on_c, 0, 70, 0
3, 437556, Note_on_c, 0, 71, 24
3, 437658, Control_c, 0, 64, 0
3, 437665, Note_on_c, 0, 71, 0
3, 437696, Note_on_c, 0, 74, 66
3, 437760, Note_on_c, 0, 62, 34
3, 437795, Note_on_c, 0, 59, 25
3, 437800, Note_on_c, 0, 55, 26
3, 437822, Note_on_c, 0, 52, 17
3, 437876, Note_on_c, 0, 74, 0
3, 437879, Note_on_c, 0, 71, 45
3, 438060, Note_on_c, 0, 62, 0
3, 438062, Note_on_c, 0, 71, 0
3, 438167, Note_on_c, 0, 71, 60
3, 438314, Note_on_c, 0, 71, 0
3, 438412, Note_on_c, 0, 55, 0
3, 438423, Note_on_c, 0, 71, 60
3, 438448, Note_on_c, 0, 59, 0
3, 438570, Note_on_c, 0, 71, 0
3, 438679, Note_on_c, 0, 71, 60
3, 438730, Note_on_c, 0, 59, 22
3, 438826, Note_on_c, 0, 71, 0
3, 438839, Control_c, 0, 64, 127
3, 438903, Note_on_c, 0, 52, 0
3, 438936, Note_on_c, 0, 67, 45
3, 438960, Note_on_c, 0, 59, 0
3, 439155, Note_on_c, 0, 67, 0
3, 439237, Note_on_c, 0, 64, 50
3, 439363, Note_on_c, 0, 64, 0
3, 439646, Control_c, 0, 64, 0
3, 439692, Note_on_c, 0, 63, 62
3, 439700, Note_on_c, 0, 66, 61
3, 439701, Note_on_c, 0, 74, 55
3, 439770, Note_on_c, 0, 62, 36
3, 440001, Note_on_c, 0, 66, 0
3, 440058, Control_c, 0, 64, 127
3, 440296, Note_on_c, 0, 74, 0
3, 440360, Note_on_c, 0, 62, 0
3, 440377, Note_on_c, 0, 63, 0
3, 440648, Control_c, 0, 64, 0
3, 440705, Note_on_c, 0, 63, 52
3, 440725, Note_on_c, 0, 60, 33
3, 440736, Note_on_c, 0, 72, 41
3, 440747, Note_on_c, 0, 66, 38
3, 440814, Control_c, 0, 64, 127
3, 441072, Note_on_c, 0, 66, 0
3, 441114, Note_on_c, 0, 63, 0
3, 441158, Note_on_c, 0, 60, 0
3, 441452, Note_on_c, 0, 72, 0
3, 441635, Control_c, 0, 64, 0
3, 441683, Note_on_c, 0, 64, 42
3, 441689, Note_on_c, 0, 68, 36
3, 441699, Note_on_c, 0, 60, 26
3, 441721, Note_on_c, 0, 54, 27
3, 441943, Control_c, 0, 64, 127
3, 442287, Note_on_c, 0, 64, 0
3, 442347, Note_on_c, 0, 68, 0
3, 442360, Note_on_c, 0, 60, 0
3, 442516, Note_on_c, 0, 54, 0
3, 442613, Note_on_c, 0, 64, 37
3, 442622, Control_c, 0, 64, 0
3, 442626, Note_on_c, 0, 69, 62
3, 442641, Note_on_c, 0, 60, 30
3, 442647, Note_on_c, 0, 54, 34
3, 442804, Note_on_c, 0, 68, 18
3, 442854, Control_c, 0, 64, 127
3, 442933, Note_on_c, 0, 60, 0
3, 443092, Note_on_c, 0, 64, 0
3, 443134, Note_on_c, 0, 68, 0
3, 443160, Note_on_c, 0, 69, 0
3, 443534, Control_c, 0, 64, 0
3, 443564, Note_on_c, 0, 71, 45
3, 443568, Note_on_c, 0, 60, 36
3, 443572, Note_on_c, 0, 54, 0
3, 443582, Note_on_c, 0, 65, 41
3, 443592, Note_on_c, 0, 55, 33
3, 443804, Control_c, 0, 64, 127
3, 444015, Note_on_c, 0, 60, 0
3, 444028, Note_on_c, 0, 65, 0
3, 444056, Note_on_c, 0, 71, 0
3, 444112, Note_on_c, 0, 55, 0
3, 444445, Control_c, 0, 64, 0
3, 444513, Note_on_c, 0, 72, 34
3, 444520, Note_on_c, 0, 64, 44
3, 444528, Note_on_c, 0, 43, 22
3, 444536, Note_on_c, 0, 68, 25
3, 444542, Note_on_c, 0, 53, 22
3, 444687, Note_on_c, 0, 43, 0
3, 444702, Control_c, 0, 64, 127
3, 444755, Note_on_c, 0, 64, 0
3, 444803, Note_on_c, 0, 53, 0
3, 444820, Note_on_c, 0, 68, 0
3, 444842, Note_on_c, 0, 72, 0
3, 445048, Note_on_c, 0, 74, 56
3, 445236, Note_on_c, 0, 74, 0
3, 445420, Control_c, 0, 64, 0
3, 445483, Note_on_c, 0, 62, 32
3, 445484, Note_on_c, 0, 76, 50
3, 445502, Note_on_c, 0, 56, 29
3, 445507, Note_on_c, 0, 72, 35
3, 445525, Note_on_c, 0, 67, 20
3, 445539, Note_on_c, 0, 52, 17
3, 445693, Control_c, 0, 64, 127
3, 445771, Note_on_c, 0, 67, 0
3, 445799, Note_on_c, 0, 76, 0
3, 445809, Note_on_c, 0, 72, 0
3, 445963, Note_on_c, 0, 79, 48
3, 445968, Note_on_c, 0, 76, 57
3, 445969, Note_on_c, 0, 52, 0
3, 445985, Note_on_c, 0, 56, 0
3, 446033, Note_on_c, 0, 62, 0
3, 446151, Note_on_c, 0, 76, 0
3, 446160, Note_on_c, 0, 79, 0
3, 446424, Control_c, 0, 64, 0
3, 446453, Note_on_c, 0, 77, 53
3, 446466, Note_on_c, 0, 74, 60
3, 446470, Note_on_c, 0, 62, 25
3, 446481, Note_on_c, 0, 56, 34
3, 446667, Control_c, 0, 64, 127
3, 446844, Note_on_c, 0, 74, 0
3, 446862, Note_on_c, 0, 77, 0
3, 446945, Note_on_c, 0, 62, 0
3, 446950, Note_on_c, 0, 76, 55
3, 447139, Note_on_c, 0, 76, 0
3, 447162, Note_on_c, 0, 56, 0
3, 447361, Control_c, 0, 64, 0
3, 447439, Note_on_c, 0, 61, 31
3, 447449, Note_on_c, 0, 55, 27
3, 447453, Note_on_c, 0, 75, 32
3, 447464, Note_on_c, 0, 67, 24
3, 447476, Note_on_c, 0, 70, 32
3, 447567, Control_c, 0, 64, 127
3, 447677, Note_on_c, 0, 61, 0
3, 447685, Note_on_c, 0, 55, 0
3, 447971, Note_on_c, 0, 45, 52
3, 448034, Note_on_c, 0, 45, 0
3, 448145, Note_on_c, 0, 67, 0
3, 448240, Note_on_c, 0, 70, 0
3, 448464, Note_on_c, 0, 61, 37
3, 448471, Note_on_c, 0, 70, 57
3, 448481, Note_on_c, 0, 65, 53
3, 448719, Note_on_c, 0, 75, 0
3, 448759, Note_on_c, 0, 65, 0
3, 448912, Note_on_c, 0, 70, 0
3, 448945, Note_on_c, 0, 64, 67
3, 449107, Note_on_c, 0, 61, 0
3, 449308, Note_on_c, 0, 64, 0
3, 449436, Note_on_c, 0, 62, 57
3, 449451, Control_c, 0, 64, 0
3, 449454, Note_on_c, 0, 68, 59
3, 449455, Note_on_c, 0, 74, 55
3, 449456, Note_on_c, 0, 65, 66
3, 449459, Note_on_c, 0, 72, 63
3, 449863, Control_c, 0, 64, 127
3, 449894, Note_on_c, 0, 62, 0
3, 449952, Note_on_c, 0, 60, 53
3, 449953, Note_on_c, 0, 74, 0
3, 449990, Note_on_c, 0, 72, 0
3, 450051, Note_on_c, 0, 68, 0
3, 450117, Note_on_c, 0, 65, 0
3, 450396, Note_on_c, 0, 60, 0
3, 450426, Control_c, 0, 64, 0
3, 450453, Note_on_c, 0, 68, 42
3, 450474, Note_on_c, 0, 56, 37
3, 450479, Note_on_c, 0, 60, 32
3, 450483, Note_on_c, 0, 65, 39
3, 450545, Note_on_c, 0, 56, 0
3, 450645, Control_c, 0, 64, 127
3, 450915, Note_on_c, 0, 52, 37
3, 450942, Note_on_c, 0, 65, 0
3, 450945, Note_on_c, 0, 60, 0
3, 450999, Note_on_c, 0, 52, 0
3, 451064, Note_on_c, 0, 68, 0
3, 451365, Control_c, 0, 64, 0
3, 451367, Note_on_c, 0, 67, 49
3, 451379, Note_on_c, 0, 59, 36
3, 451383, Note_on_c, 0, 63, 45
3, 451390, Note_on_c, 0, 53, 33
3, 451633, Control_c, 0, 64, 127
3, 451956, Note_on_c, 0, 67, 0
3, 452006, Note_on_c, 0, 59, 0
3, 452126, Note_on_c, 0, 63, 0
3, 452275, Control_c, 0, 64, 0
3, 452318, Note_on_c, 0, 59, 31
3, 452323, Note_on_c, 0, 43, 28
3, 452327, Note_on_c, 0, 63, 28
3, 452332, Note_on_c, 0, 66, 28
3, 452469, Note_on_c, 0, 43, 0
3, 452481, Control_c, 0, 64, 127
3, 452586, Note_on_c, 0, 53, 0
3, 452766, Note_on_c, 0, 59, 0
3, 452880, Note_on_c, 0, 66, 0
3, 452940, Note_on_c, 0, 63, 0
3, 453224, Control_c, 0, 64, 0
3, 453237, Note_on_c, 0, 43, 24
3, 453253, Note_on_c, 0, 57, 36
3, 453265, Note_on_c, 0, 36, 22
3, 453267, Note_on_c, 0, 59, 29
3, 453281, Note_on_c, 0, 67, 30
3, 453291, Note_on_c, 0, 62, 35
3, 453557, Control_c, 0, 64, 127
3, 453770, Note_on_c, 0, 57, 0
3, 453822, Note_on_c, 0, 59, 0
3, 453940, Note_on_c, 0, 62, 0
3, 453967, Note_on_c, 0, 67, 0
3, 454112, Note_on_c, 0, 36, 0
3, 454174, Control_c, 0, 64, 0
3, 454216, Note_on_c, 0, 43, 0
3, 454218, Note_on_c, 0, 67, 40
3, 454222, Note_on_c, 0, 57, 39
3, 454229, Note_on_c, 0, 59, 34
3, 454236, Note_on_c, 0, 62, 34
3, 454713, Note_on_c, 0, 55, 69
3, 454951, Note_on_c, 0, 62, 0
3, 454959, Note_on_c, 0, 57, 0
3, 454965, Note_on_c, 0, 59, 0
3, 454977, Note_on_c, 0, 67, 0
3, 455206, Note_on_c, 0, 67, 40
3, 455223, Note_on_c, 0, 57, 28
3, 455224, Note_on_c, 0, 62, 33
3, 455235, Note_on_c, 0, 59, 22
3, 455708, Note_on_c, 0, 52, 45
3, 455723, Note_on_c, 0, 62, 0
3, 455747, Note_on_c, 0, 57, 0
3, 455754, Note_on_c, 0, 59, 0
3, 455758, Note_on_c, 0, 52, 0
3, 455804, Note_on_c, 0, 67, 0
3, 456133, Note_on_c, 0, 67, 46
3, 456153, Note_on_c, 0, 57, 36
3, 456157, Note_on_c, 0, 62, 44
3, 456166, Note_on_c, 0, 59, 30
3, 456401, Note_on_c, 0, 55, 0
3, 456608, Note_on_c, 0, 55, 69
3, 456715, Note_on_c, 0, 62, 0
3, 456737, Note_on_c, 0, 59, 0
3, 456741, Note_on_c, 0, 57, 0
3, 456922, Note_on_c, 0, 67, 0
3, 457093, Note_on_c, 0, 63, 64
3, 457160, Note_on_c, 0, 67, 29
3, 457208, Note_on_c, 0, 58, 9
3, 457530, Note_on_c, 0, 55, 0
3, 457550, Note_on_c, 0, 53, 54
3, 457674, Note_on_c, 0, 58, 0
3, 457795, Note_on_c, 0, 63, 0
3, 457927, Note_on_c, 0, 67, 0
3, 457995, Note_on_c, 0, 53, 0
3, 458045, Note_on_c, 0, 63, 47
3, 458053, Note_on_c, 0, 55, 41
3, 458065, Note_on_c, 0, 67, 48
3, 458076, Note_on_c, 0, 58, 35
3, 458499, Note_on_c, 0, 55, 0
3, 458535, Note_on_c, 0, 49, 43
3, 458536, Note_on_c, 0, 58, 0
3, 458711, Note_on_c, 0, 63, 0
3, 458800, Note_on_c, 0, 67, 0
3, 458956, Note_on_c, 0, 63, 25
3, 458978, Note_on_c, 0, 56, 43
3, 458986, Note_on_c, 0, 59, 54
3, 459024, Note_on_c, 0, 67, 29
3, 459418, Note_on_c, 0, 55, 54
3, 459548, Note_on_c, 0, 49, 0
3, 459705, Note_on_c, 0, 56, 0
3, 459742, Note_on_c, 0, 59, 0
3, 459773, Note_on_c, 0, 67, 0
3, 459784, Note_on_c, 0, 55, 0
3, 459834, Note_on_c, 0, 63, 0
3, 459919, Note_on_c, 0, 63, 28
3, 459924, Note_on_c, 0, 55, 36
3, 459928, Note_on_c, 0, 67, 30
3, 459939, Note_on_c, 0, 59, 48
3, 460204, Note_on_c, 0, 55, 0
3, 460216, Note_on_c, 0, 54, 47
3, 460240, Note_on_c, 0, 59, 0
3, 460307, Note_on_c, 0, 67, 0
3, 460336, Note_on_c, 0, 63, 0
3, 460451, Note_on_c, 0, 63, 46
3, 460460, Control_c, 0, 64, 127
3, 460462, Note_on_c, 0, 56, 30
3, 460467, Note_on_c, 0, 67, 24
3, 460468, Note_on_c, 0, 55, 52
3, 460478, Note_on_c, 0, 59, 35
3, 460480, Note_on_c, 0, 54, 0
3, 460577, Note_on_c, 0, 56, 0
3, 460583, Note_on_c, 0, 59, 0
3, 460702, Note_on_c, 0, 63, 0
3, 460734, Note_on_c, 0, 67, 0
3, 460773, Note_on_c, 0, 55, 0
3, 460852, Note_on_c, 0, 54, 23
3, 460858, Control_c, 0, 64, 0
3, 460896, Note_on_c, 0, 54, 0
3, 460917, Note_on_c, 0, 58, 56
3, 460920, Note_on_c, 0, 55, 41
3, 460924, Note_on_c, 0, 65, 55
3, 460926, Note_on_c, 0, 67, 45
3, 460929, Note_on_c, 0, 62, 54
3, 461208, Note_on_c, 0, 55, 0
3, 461402, Note_on_c, 0, 55, 60
3, 461538, Control_c, 0, 64, 127
3, 461743, Control_c, 0, 64, 0
3, 461824, Note_on_c, 0, 55, 0
3, 461885, Note_on_c, 0, 54, 57
3, 461982, Note_on_c, 0, 67, 0
3, 462036, Note_on_c, 0, 58, 0
3, 462048, Note_on_c, 0, 62, 0
3, 462170, Note_on_c, 0, 65, 0
3, 462315, Note_on_c, 0, 55, 58
3, 462319, Note_on_c, 0, 67, 51
3, 462320, Note_on_c, 0, 54, 0
3, 462321, Note_on_c, 0, 58, 59
3, 462325, Note_on_c, 0, 62, 51
3, 462347, Control_c, 0, 64, 127
3, 462415, Note_on_c, 0, 58, 0
3, 462472, Note_on_c, 0, 62, 0
3, 462484, Note_on_c, 0, 67, 0
3, 462730, Control_c, 0, 64, 0
3, 462745, Note_on_c, 0, 55, 0
3, 462818, Note_on_c, 0, 58, 56
3, 462822, Note_on_c, 0, 70, 57
3, 462827, Note_on_c, 0, 61, 53
3, 462830, Note_on_c, 0, 64, 66
3, 462949, Control_c, 0, 64, 127
3, 463104, Note_on_c, 0, 58, 0
3, 463342, Note_on_c, 0, 48, 54
3, 463397, Note_on_c, 0, 64, 0
3, 463439, Note_on_c, 0, 70, 0
3, 463502, Note_on_c, 0, 61, 0
3, 464126, Note_on_c, 0, 48, 0
3, 464180, Control_c, 0, 64, 0
3, 464270, Note_on_c, 0, 69, 49
3, 464276, Note_on_c, 0, 58, 50
3, 464277, Note_on_c, 0, 61, 42
3, 464288, Note_on_c, 0, 48, 28
3, 464289, Note_on_c, 0, 57, 33
3, 464290, Note_on_c, 0, 64, 51
3, 464335, Control_c, 0, 64, 127
3, 464382, Note_on_c, 0, 48, 0
3, 464513, Note_on_c, 0, 69, 0
3, 464546, Note_on_c, 0, 61, 0
3, 464547, Note_on_c, 0, 58, 0
3, 464587, Note_on_c, 0, 64, 0
3, 464656, Note_on_c, 0, 57, 0
3, 464669, Control_c, 0, 64, 0
3, 464729, Note_on_c, 0, 56, 53
3, 464732, Note_on_c, 0, 68, 36
3, 464744, Note_on_c, 0, 60, 33
3, 464756, Note_on_c, 0, 63, 47
3, 464810, Note_on_c, 0, 65, 34
3, 464938, Control_c, 0, 64, 127
3, 465123, Note_on_c, 0, 56, 0
3, 465383, Note_on_c, 0, 60, 0
3, 465425, Note_on_c, 0, 65, 0
3, 465427, Note_on_c, 0, 63, 0
3, 465434, Note_on_c, 0, 68, 0
3, 465660, Note_on_c, 0, 68, 45
3, 465683, Note_on_c, 0, 63, 38
3, 465684, Note_on_c, 0, 60, 36
3, 465713, Note_on_c, 0, 65, 33
3, 466368, Note_on_c, 0, 60, 0
3, 466416, Note_on_c, 0, 65, 0
3, 466684, Note_on_c, 0, 64, 45
3, 466691, Note_on_c, 0, 63, 0
3, 466705, Note_on_c, 0, 62, 37
3, 466716, Note_on_c, 0, 59, 16
3, 466717, Note_on_c, 0, 56, 31
3, 466721, Control_c, 0, 64, 0
3, 466965, Control_c, 0, 64, 127
3, 467554, Note_on_c, 0, 56, 0
3, 467627, Note_on_c, 0, 46, 43
3, 467768, Note_on_c, 0, 46, 0
3, 468015, Note_on_c, 0, 62, 0
3, 468017, Note_on_c, 0, 59, 0
3, 468062, Note_on_c, 0, 68, 0
3, 468151, Note_on_c, 0, 64, 0
3, 468480, Control_c, 0, 64, 0
3, 468536, Note_on_c, 0, 47, 24
3, 468542, Note_on_c, 0, 40, 31
3, 468544, Note_on_c, 0, 67, 39
3, 468569, Note_on_c, 0, 62, 32
3, 468583, Note_on_c, 0, 55, 32
3, 468684, Control_c, 0, 64, 127
3, 468706, Note_on_c, 0, 40, 0
3, 468784, Note_on_c, 0, 47, 0
3, 468892, Note_on_c, 0, 55, 0
3, 468984, Note_on_c, 0, 62, 0
3, 469096, Note_on_c, 0, 67, 0
3, 469541, Note_on_c, 0, 67, 66
3, 469565, Note_on_c, 0, 62, 44
3, 469591, Note_on_c, 0, 59, 30
3, 469592, Note_on_c, 0, 55, 30
3, 469594, Control_c, 0, 64, 0
3, 469601, Note_on_c, 0, 52, 19
3, 469715, Note_on_c, 0, 67, 0
3, 469813, Control_c, 0, 64, 127
3, 469818, Note_on_c, 0, 67, 45
3, 469932, Note_on_c, 0, 67, 0
3, 469959, Note_on_c, 0, 62, 0
3, 469990, Note_on_c, 0, 52, 0
3, 470010, Note_on_c, 0, 55, 0
3, 470027, Note_on_c, 0, 67, 55
3, 470040, Note_on_c, 0, 59, 0
3, 470147, Note_on_c, 0, 67, 0
3, 470251, Note_on_c, 0, 67, 57
3, 470410, Note_on_c, 0, 67, 0
3, 470442, Control_c, 0, 64, 0
3, 470496, Note_on_c, 0, 74, 52
3, 470497, Note_on_c, 0, 62, 38
3, 470499, Note_on_c, 0, 67, 34
3, 470503, Note_on_c, 0, 69, 47
3, 470528, Note_on_c, 0, 63, 25
3, 470636, Note_on_c, 0, 62, 0
3, 470643, Note_on_c, 0, 63, 0
3, 470656, Note_on_c, 0, 67, 0
3, 470667, Note_on_c, 0, 69, 0
3, 470675, Note_on_c, 0, 74, 0
3, 470933, Note_on_c, 0, 74, 57
3, 470936, Note_on_c, 0, 63, 59
3, 470960, Note_on_c, 0, 62, 48
3, 470965, Note_on_c, 0, 67, 50
3, 470987, Note_on_c, 0, 69, 31
3, 471320, Note_on_c, 0, 63, 0
3, 471356, Note_on_c, 0, 67, 0
3, 471367, Note_on_c, 0, 69, 0
3, 471375, Note_on_c, 0, 74, 0
3, 471434, Note_on_c, 0, 62, 0
3, 471462, Note_on_c, 0, 63, 53
3, 471482, Note_on_c, 0, 60, 42
3, 471500, Note_on_c, 0, 72, 45
3, 471503, Note_on_c, 0, 67, 24
3, 471507, Note_on_c, 0, 69, 28
3, 471649, Note_on_c, 0, 63, 0
3, 471672, Note_on_c, 0, 67, 0
3, 471720, Note_on_c, 0, 69, 0
3, 471727, Note_on_c, 0, 60, 0
3, 471728, Note_on_c, 0, 72, 0
3, 471937, Note_on_c, 0, 63, 53
3, 471952, Note_on_c, 0, 60, 42
3, 471956, Note_on_c, 0, 72, 46
3, 472010, Note_on_c, 0, 67, 17
3, 472103, Note_on_c, 0, 67, 0
3, 472121, Note_on_c, 0, 63, 0
3, 472156, Note_on_c, 0, 72, 0
3, 472158, Note_on_c, 0, 60, 0
3, 472213, Control_c, 0, 64, 127
3, 472264, Control_c, 0, 64, 0
3, 472343, Note_on_c, 0, 62, 47
3, 472376, Note_on_c, 0, 64, 57
3, 472387, Note_on_c, 0, 65, 54
3, 472394, Note_on_c, 0, 76, 46
3, 472396, Note_on_c, 0, 69, 49
3, 472400, Note_on_c, 0, 72, 44
3, 472432, Note_on_c, 0, 62, 0
3, 472545, Control_c, 0, 64, 127
3, 472595, Note_on_c, 0, 65, 0
3, 472609, Note_on_c, 0, 69, 0
3, 472614, Note_on_c, 0, 72, 0
3, 472633, Note_on_c, 0, 76, 0
3, 472689, Note_on_c, 0, 64, 0
3, 472837, Note_on_c, 0, 76, 54
3, 472849, Note_on_c, 0, 69, 57
3, 472853, Note_on_c, 0, 64, 48
3, 472861, Note_on_c, 0, 65, 46
3, 472875, Note_on_c, 0, 72, 45
3, 472945, Note_on_c, 0, 72, 0
3, 473008, Note_on_c, 0, 69, 0
3, 473012, Note_on_c, 0, 76, 0
3, 473098, Control_c, 0, 64, 0
3, 473099, Note_on_c, 0, 65, 0
3, 473204, Note_on_c, 0, 64, 0
3, 473305, Note_on_c, 0, 72, 38
3, 473323, Note_on_c, 0, 69, 30
3, 473333, Note_on_c, 0, 62, 27
3, 473340, Note_on_c, 0, 60, 40
3, 473345, Note_on_c, 0, 65, 31
3, 473393, Control_c, 0, 64, 127
3, 473452, Note_on_c, 0, 62, 0
3, 473454, Note_on_c, 0, 60, 0
3, 473472, Note_on_c, 0, 65, 0
3, 473511, Note_on_c, 0, 72, 0
3, 473541, Note_on_c, 0, 69, 0
3, 473785, Note_on_c, 0, 72, 53
3, 473793, Note_on_c, 0, 65, 53
3, 473794, Note_on_c, 0, 62, 41
3, 473822, Note_on_c, 0, 60, 50
3, 473836, Note_on_c, 0, 62, 0
3, 473870, Note_on_c, 0, 65, 0
3, 473927, Note_on_c, 0, 60, 0
3, 473960, Note_on_c, 0, 72, 0
3, 474200, Control_c, 0, 64, 0
3, 474297, Note_on_c, 0, 75, 69
3, 474301, Note_on_c, 0, 79, 64
3, 474302, Note_on_c, 0, 71, 68
3, 474302, Note_on_c, 0, 67, 57
3, 474423, Control_c, 0, 64, 127
3, 474504, Note_on_c, 0, 79, 0
3, 474506, Note_on_c, 0, 71, 0
3, 474543, Note_on_c, 0, 67, 0
3, 474570, Note_on_c, 0, 75, 0
3, 474730, Control_c, 0, 64, 0
3, 474786, Note_on_c, 0, 82, 75
3, 474791, Note_on_c, 0, 75, 76
3, 474792, Note_on_c, 0, 70, 72
3, 474799, Note_on_c, 0, 71, 75
3, 474810, Note_on_c, 0, 77, 64
3, 474937, Control_c, 0, 64, 127
3, 475096, Note_on_c, 0, 70, 0
3, 475123, Note_on_c, 0, 71, 0
3, 475136, Note_on_c, 0, 77, 0
3, 475141, Note_on_c, 0, 75, 0
3, 475152, Note_on_c, 0, 82, 0
3, 475192, Control_c, 0, 64, 0
3, 475247, Note_on_c, 0, 68, 51
3, 475270, Note_on_c, 0, 80, 59
3, 475274, Note_on_c, 0, 75, 53
3, 475275, Note_on_c, 0, 71, 58
3, 475298, Note_on_c, 0, 77, 46
3, 475444, Note_on_c, 0, 68, 0
3, 475449, Control_c, 0, 64, 127
3, 475450, Note_on_c, 0, 77, 0
3, 475453, Note_on_c, 0, 71, 0
3, 475467, Note_on_c, 0, 80, 0
3, 475520, Note_on_c, 0, 75, 0
3, 475603, Control_c, 0, 64, 0
3, 475714, Note_on_c, 0, 68, 55
3, 475717, Note_on_c, 0, 78, 52
3, 475759, Note_on_c, 0, 63, 46
3, 475796, Control_c, 0, 64, 127
3, 476012, Control_c, 0, 64, 0
3, 476014, Note_on_c, 0, 68, 0
3, 476053, Note_on_c, 0, 78, 0
3, 476149, Note_on_c, 0, 63, 0
3, 476203, Note_on_c, 0, 79, 52
3, 476216, Note_on_c, 0, 64, 52
3, 476221, Note_on_c, 0, 69, 54
3, 476222, Note_on_c, 0, 74, 55
3, 476231, Control_c, 0, 64, 127
3, 476286, Note_on_c, 0, 74, 0
3, 476325, Note_on_c, 0, 79, 0
3, 476441, Note_on_c, 0, 69, 0
3, 476616, Note_on_c, 0, 64, 0
3, 476696, Note_on_c, 0, 76, 40
3, 476706, Note_on_c, 0, 71, 38
3, 476709, Note_on_c, 0, 67, 44
3, 476711, Note_on_c, 0, 60, 32
3, 476761, Note_on_c, 0, 76, 0
3, 476764, Note_on_c, 0, 60, 0
3, 476769, Note_on_c, 0, 71, 0
3, 476829, Note_on_c, 0, 67, 0
3, 477130, Control_c, 0, 64, 0
3, 477169, Note_on_c, 0, 72, 48
3, 477187, Note_on_c, 0, 67, 52
3, 477208, Note_on_c, 0, 62, 34
3, 477336, Control_c, 0, 64, 127
3, 477396, Note_on_c, 0, 67, 0
3, 477423, Note_on_c, 0, 72, 0
3, 477511, Note_on_c, 0, 62, 0
3, 477644, Note_on_c, 0, 35, 32
3, 477905, Note_on_c, 0, 35, 0
3, 478091, Control_c, 0, 64, 0
3, 478146, Note_on_c, 0, 67, 38
3, 478151, Note_on_c, 0, 56, 49
3, 478164, Note_on_c, 0, 34, 39
3, 478183, Note_on_c, 0, 62, 37
3, 478206, Note_on_c, 0, 46, 17
3, 478374, Control_c, 0, 64, 127
3, 478556, Note_on_c, 0, 67, 0
3, 478649, Note_on_c, 0, 65, 40
3, 478841, Note_on_c, 0, 65, 0
3, 478856, Note_on_c, 0, 62, 0
3, 478904, Note_on_c, 0, 34, 0
3, 478912, Note_on_c, 0, 56, 0
3, 478920, Note_on_c, 0, 46, 0
3, 479066, Control_c, 0, 64, 0
3, 479128, Note_on_c, 0, 57, 50
3, 479130, Note_on_c, 0, 35, 44
3, 479132, Note_on_c, 0, 63, 49
3, 479155, Note_on_c, 0, 47, 29
3, 479166, Note_on_c, 0, 66, 36
3, 479329, Note_on_c, 0, 35, 0
3, 479336, Control_c, 0, 64, 127
3, 479441, Note_on_c, 0, 47, 0
3, 479641, Note_on_c, 0, 57, 0
3, 479836, Note_on_c, 0, 63, 0
3, 479953, Note_on_c, 0, 66, 0
3, 480029, Control_c, 0, 64, 0
3, 480065, Note_on_c, 0, 43, 31
3, 480071, Note_on_c, 0, 67, 53
3, 480085, Note_on_c, 0, 57, 36
3, 480106, Note_on_c, 0, 62, 34
3, 480107, Note_on_c, 0, 36, 24
3, 480119, Note_on_c, 0, 52, 28
3, 480325, Control_c, 0, 64, 127
3, 480440, Note_on_c, 0, 36, 0
3, 480476, Note_on_c, 0, 52, 0
3, 480569, Note_on_c, 0, 62, 0
3, 480729, Note_on_c, 0, 57, 0
3, 480829, Note_on_c, 0, 67, 0
3, 481006, Note_on_c, 0, 43, 0
3, 481041, Note_on_c, 0, 52, 25
3, 481048, Note_on_c, 0, 57, 49
3, 481058, Note_on_c, 0, 62, 36
3, 481121, Note_on_c, 0, 52, 0
3, 481224, Note_on_c, 0, 57, 0
3, 481392, Note_on_c, 0, 62, 0
3, 481902, Control_c, 0, 64, 0
3, 481971, Note_on_c, 0, 62, 36
3, 481977, Note_on_c, 0, 58, 44
3, 481984, Note_on_c, 0, 70, 70
3, 481989, Note_on_c, 0, 52, 29
3, 482255, Note_on_c, 0, 70, 0
3, 482314, Note_on_c, 0, 67, 43
3, 482406, Note_on_c, 0, 67, 0
3, 482476, Note_on_c, 0, 52, 0
3, 482519, Note_on_c, 0, 58, 0
3, 482554, Note_on_c, 0, 69, 28
3, 482699, Note_on_c, 0, 69, 0
3, 482700, Note_on_c, 0, 62, 0
3, 482785, Note_on_c, 0, 70, 57
3, 482928, Note_on_c, 0, 70, 0
3, 482946, Note_on_c, 0, 61, 27
3, 482959, Note_on_c, 0, 64, 34
3, 482991, Note_on_c, 0, 58, 34
3, 483032, Note_on_c, 0, 72, 28
3, 483207, Note_on_c, 0, 72, 0
3, 483221, Note_on_c, 0, 61, 0
3, 483229, Note_on_c, 0, 58, 0
3, 483242, Note_on_c, 0, 64, 0
3, 483253, Note_on_c, 0, 73, 58
3, 483377, Note_on_c, 0, 73, 0
3, 483472, Note_on_c, 0, 75, 53
3, 483616, Note_on_c, 0, 75, 0
3, 483703, Note_on_c, 0, 76, 61
3, 483833, Note_on_c, 0, 76, 0
3, 483873, Note_on_c, 0, 50, 38
3, 483910, Note_on_c, 0, 79, 57
3, 483964, Note_on_c, 0, 50, 0
3, 484079, Note_on_c, 0, 79, 0
3, 484160, Note_on_c, 0, 76, 52
3, 484296, Note_on_c, 0, 76, 0
3, 484346, Note_on_c, 0, 77, 53
3, 484473, Note_on_c, 0, 77, 0
3, 484590, Note_on_c, 0, 81, 44
3, 484727, Note_on_c, 0, 64, 29
3, 484761, Note_on_c, 0, 57, 38
3, 484773, Note_on_c, 0, 81, 0
3, 484801, Note_on_c, 0, 84, 43
3, 484879, Note_on_c, 0, 64, 0
3, 484915, Note_on_c, 0, 84, 0
3, 484931, Note_on_c, 0, 57, 0
3, 485039, Note_on_c, 0, 88, 55
3, 485169, Note_on_c, 0, 88, 0
3, 485233, Note_on_c, 0, 79, 53
3, 485237, Note_on_c, 0, 91, 57
3, 485262, Note_on_c, 0, 88, 56
3, 485374, Note_on_c, 0, 91, 0
3, 485397, Note_on_c, 0, 79, 0
3, 485429, Note_on_c, 0, 88, 0
3, 485527, Note_on_c, 0, 91, 40
3, 485533, Note_on_c, 0, 88, 54
3, 485562, Note_on_c, 0, 79, 24
3, 485626, Note_on_c, 0, 79, 0
3, 485630, Note_on_c, 0, 91, 0
3, 485672, Note_on_c, 0, 88, 0
3, 485698, Note_on_c, 0, 60, 22
3, 485710, Note_on_c, 0, 50, 19
3, 485716, Note_on_c, 0, 53, 30
3, 485721, Note_on_c, 0, 57, 24
3, 485733, Note_on_c, 0, 91, 49
3, 485754, Note_on_c, 0, 88, 39
3, 485816, Note_on_c, 0, 88, 0
3, 485891, Note_on_c, 0, 91, 0
3, 485959, Note_on_c, 0, 90, 49
3, 485972, Note_on_c, 0, 87, 48
3, 486136, Note_on_c, 0, 90, 0
3, 486163, Note_on_c, 0, 87, 0
3, 486196, Note_on_c, 0, 86, 42
3, 486199, Note_on_c, 0, 89, 34
3, 486301, Note_on_c, 0, 53, 0
3, 486304, Note_on_c, 0, 57, 0
3, 486327, Note_on_c, 0, 60, 0
3, 486397, Note_on_c, 0, 89, 0
3, 486420, Note_on_c, 0, 86, 0
3, 486676, Note_on_c, 0, 86, 55
3, 486677, Note_on_c, 0, 89, 50
3, 486691, Note_on_c, 0, 60, 25
3, 486696, Note_on_c, 0, 57, 29
3, 486702, Note_on_c, 0, 53, 24
3, 486727, Control_c, 0, 64, 127
3, 486973, Note_on_c, 0, 50, 0
3, 487020, Note_on_c, 0, 53, 0
3, 487023, Note_on_c, 0, 57, 0
3, 487064, Note_on_c, 0, 86, 0
3, 487070, Note_on_c, 0, 60, 0
3, 487125, Note_on_c, 0, 89, 0
3, 487184, Note_on_c, 0, 84, 49
3, 487187, Note_on_c, 0, 88, 55
3, 487407, Note_on_c, 0, 84, 0
3, 487438, Note_on_c, 0, 88, 0
3, 487637, Control_c, 0, 64, 0
3, 487665, Note_on_c, 0, 83, 66
3, 487668, Note_on_c, 0, 64, 38
3, 487669, Note_on_c, 0, 87, 53
3, 487677, Note_on_c, 0, 59, 27
3, 487695, Note_on_c, 0, 53, 24
3, 487884, Note_on_c, 0, 83, 0
3, 487901, Note_on_c, 0, 64, 0
3, 487938, Note_on_c, 0, 85, 59
3, 487942, Note_on_c, 0, 81, 41
3, 487943, Note_on_c, 0, 59, 0
3, 487997, Note_on_c, 0, 53, 0
3, 488028, Note_on_c, 0, 87, 0
3, 488053, Note_on_c, 0, 81, 0
3, 488070, Note_on_c, 0, 85, 0
3, 488170, Note_on_c, 0, 79, 41
3, 488171, Note_on_c, 0, 83, 53
3, 488291, Control_c, 0, 64, 127
3, 488313, Note_on_c, 0, 83, 0
3, 488372, Note_on_c, 0, 79, 0
3, 488547, Control_c, 0, 64, 0
3, 488614, Note_on_c, 0, 43, 42
3, 488805, Control_c, 0, 64, 127
3, 488974, Note_on_c, 0, 43, 0
3, 489574, Control_c, 0, 64, 0
3, 489576, Note_on_c, 0, 64, 53
3, 489591, Note_on_c, 0, 79, 76
3, 489592, Note_on_c, 0, 83, 76
3, 489594, Note_on_c, 0, 59, 48
3, 489606, Note_on_c, 0, 53, 28
3, 489804, Note_on_c, 0, 79, 0
3, 489811, Note_on_c, 0, 83, 0
3, 489867, Note_on_c, 0, 77, 60
3, 489873, Note_on_c, 0, 81, 55
3, 489991, Note_on_c, 0, 81, 0
3, 489999, Note_on_c, 0, 77, 0
3, 490016, Note_on_c, 0, 64, 0
3, 490050, Note_on_c, 0, 79, 33
3, 490073, Note_on_c, 0, 53, 0
3, 490091, Note_on_c, 0, 75, 47
3, 490151, Control_c, 0, 64, 127
3, 490234, Note_on_c, 0, 75, 0
3, 490237, Note_on_c, 0, 79, 0
3, 490396, Control_c, 0, 64, 0
3, 490543, Note_on_c, 0, 63, 56
3, 490554, Note_on_c, 0, 75, 53
3, 490566, Note_on_c, 0, 79, 44
3, 490570, Note_on_c, 0, 53, 33
3, 490749, Note_on_c, 0, 79, 0
3, 490827, Note_on_c, 0, 75, 0
3, 490832, Control_c, 0, 64, 127
3, 491011, Note_on_c, 0, 59, 0
3, 491032, Note_on_c, 0, 63, 0
3, 491036, Note_on_c, 0, 75, 54
3, 491054, Note_on_c, 0, 77, 60
3, 491114, Note_on_c, 0, 53, 0
3, 491197, Note_on_c, 0, 77, 0
3, 491306, Note_on_c, 0, 75, 0
3, 491422, Control_c, 0, 64, 0
3, 491532, Note_on_c, 0, 76, 46
3, 491537, Note_on_c, 0, 62, 27
3, 491545, Note_on_c, 0, 57, 40
3, 491548, Note_on_c, 0, 52, 28
3, 491681, Note_on_c, 0, 76, 0
3, 491946, Note_on_c, 0, 62, 0
3, 492039, Note_on_c, 0, 67, 41
3, 492174, Note_on_c, 0, 67, 0
3, 492199, Note_on_c, 0, 57, 0
3, 492323, Note_on_c, 0, 67, 54
3, 492405, Note_on_c, 0, 67, 0
3, 492522, Note_on_c, 0, 67, 52
3, 492544, Note_on_c, 0, 62, 30
3, 492547, Note_on_c, 0, 57, 37
3, 492738, Note_on_c, 0, 67, 0
3, 492775, Note_on_c, 0, 69, 32
3, 492851, Note_on_c, 0, 67, 41
3, 492871, Note_on_c, 0, 62, 0
3, 492874, Note_on_c, 0, 69, 0
3, 492935, Note_on_c, 0, 66, 51
3, 492993, Note_on_c, 0, 67, 0
3, 493024, Note_on_c, 0, 57, 0
3, 493067, Note_on_c, 0, 52, 0
3, 493105, Note_on_c, 0, 66, 0
3, 493172, Note_on_c, 0, 67, 37
3, 493303, Note_on_c, 0, 67, 0
3, 493378, Note_on_c, 0, 76, 74
3, 493527, Note_on_c, 0, 65, 41
3, 493542, Note_on_c, 0, 55, 24
3, 493560, Note_on_c, 0, 60, 30
3, 493566, Note_on_c, 0, 57, 31
3, 493731, Control_c, 0, 64, 127
3, 494033, Note_on_c, 0, 60, 0
3, 494058, Note_on_c, 0, 65, 0
3, 494088, Note_on_c, 0, 57, 0
3, 494101, Note_on_c, 0, 55, 0
3, 494373, Control_c, 0, 64, 0
3, 494471, Note_on_c, 0, 64, 40
3, 494475, Note_on_c, 0, 59, 38
3, 494485, Note_on_c, 0, 53, 30
3, 494553, Control_c, 0, 64, 127
3, 494680, Note_on_c, 0, 76, 0
3, 494944, Note_on_c, 0, 64, 0
3, 494945, Note_on_c, 0, 59, 0
3, 495023, Note_on_c, 0, 53, 0
3, 495077, Note_on_c, 0, 67, 70
3, 495284, Control_c, 0, 64, 0
3, 495356, Note_on_c, 0, 67, 0
3, 495454, Note_on_c, 0, 62, 28
3, 495457, Note_on_c, 0, 64, 43
3, 495479, Note_on_c, 0, 57, 41
3, 495502, Control_c, 0, 64, 127
3, 495505, Note_on_c, 0, 52, 18
3, 495568, Note_on_c, 0, 62, 0
3, 495632, Note_on_c, 0, 57, 0
3, 495674, Note_on_c, 0, 52, 0
3, 495825, Note_on_c, 0, 64, 0
3, 496015, Note_on_c, 0, 43, 38
3, 496272, Control_c, 0, 64, 0
3, 496371, Note_on_c, 0, 57, 51
3, 496382, Note_on_c, 0, 62, 42
3, 496390, Note_on_c, 0, 52, 36
3, 496464, Control_c, 0, 64, 127
3, 496770, Note_on_c, 0, 57, 0
3, 496810, Note_on_c, 0, 43, 0
3, 496851, Note_on_c, 0, 62, 0
3, 496916, Note_on_c, 0, 43, 41
3, 497098, Note_on_c, 0, 43, 0
3, 497108, Note_on_c, 0, 52, 0
3, 497195, Control_c, 0, 64, 0
3, 497278, Note_on_c, 0, 45, 59
3, 497281, Note_on_c, 0, 60, 62
3, 497286, Note_on_c, 0, 71, 59
3, 497295, Note_on_c, 0, 55, 43
3, 497296, Note_on_c, 0, 64, 64
3, 497306, Note_on_c, 0, 68, 51
3, 498009, Note_on_c, 0, 60, 0
3, 498051, Note_on_c, 0, 55, 0
3, 498112, Note_on_c, 0, 68, 0
3, 498113, Note_on_c, 0, 64, 0
3, 498178, Note_on_c, 0, 71, 0
3, 498243, Note_on_c, 0, 69, 62
3, 498255, Note_on_c, 0, 64, 62
3, 498256, Note_on_c, 0, 60, 50
3, 498261, Note_on_c, 0, 55, 33
3, 498504, Control_c, 0, 64, 127
3, 498522, Note_on_c, 0, 45, 0
3, 498673, Note_on_c, 0, 60, 0
3, 498731, Note_on_c, 0, 64, 0
3, 498850, Note_on_c, 0, 45, 36
3, 498856, Note_on_c, 0, 69, 0
3, 498865, Note_on_c, 0, 55, 0
3, 498965, Note_on_c, 0, 45, 0
3, 499146, Control_c, 0, 64, 0
3, 499180, Note_on_c, 0, 66, 52
3, 499193, Note_on_c, 0, 57, 44
3, 499338, Control_c, 0, 64, 127
3, 499471, Note_on_c, 0, 57, 0
3, 499681, Note_on_c, 0, 66, 0
3, 499767, Note_on_c, 0, 67, 55
3, 499983, Note_on_c, 0, 67, 0
3, 500096, Control_c, 0, 64, 0
3, 500097, Note_on_c, 0, 64, 36
3, 500103, Note_on_c, 0, 69, 34
3, 500124, Note_on_c, 0, 54, 23
3, 500126, Note_on_c, 0, 60, 29
3, 500262, Note_on_c, 0, 69, 0
3, 500382, Note_on_c, 0, 71, 38
3, 500463, Note_on_c, 0, 64, 0
3, 500544, Note_on_c, 0, 71, 0
3, 500654, Note_on_c, 0, 72, 49
3, 500686, Control_c, 0, 64, 127
3, 500843, Note_on_c, 0, 72, 0
3, 500846, Note_on_c, 0, 60, 0
3, 500903, Note_on_c, 0, 74, 64
3, 500993, Control_c, 0, 64, 0
3, 501089, Note_on_c, 0, 64, 42
3, 501103, Note_on_c, 0, 74, 0
3, 501126, Note_on_c, 0, 60, 25
3, 501173, Note_on_c, 0, 76, 61
3, 501245, Note_on_c, 0, 64, 0
3, 501305, Note_on_c, 0, 54, 0
3, 501340, Control_c, 0, 64, 127
3, 501364, Note_on_c, 0, 76, 0
3, 501460, Note_on_c, 0, 78, 48
3, 501603, Note_on_c, 0, 78, 0
3, 501649, Note_on_c, 0, 60, 0
3, 501671, Note_on_c, 0, 79, 64
3, 501861, Note_on_c, 0, 79, 0
3, 501903, Note_on_c, 0, 81, 65
3, 501981, Control_c, 0, 64, 0
3, 501989, Note_on_c, 0, 54, 33
3, 501996, Note_on_c, 0, 64, 27
3, 502021, Note_on_c, 0, 60, 22
3, 502069, Note_on_c, 0, 81, 0
3, 502129, Note_on_c, 0, 64, 0
3, 502140, Note_on_c, 0, 83, 59
3, 502205, Note_on_c, 0, 60, 0
3, 502225, Control_c, 0, 64, 127
3, 502227, Note_on_c, 0, 54, 0
3, 502252, Note_on_c, 0, 83, 0
3, 502343, Note_on_c, 0, 84, 53
3, 502515, Note_on_c, 0, 84, 0
3, 502563, Note_on_c, 0, 86, 54
3, 502768, Note_on_c, 0, 86, 0
3, 502804, Note_on_c, 0, 88, 62
3, 502955, Control_c, 0, 64, 0
3, 503027, Note_on_c, 0, 35, 46
3, 503174, Control_c, 0, 64, 127
3, 503214, Note_on_c, 0, 35, 0
3, 503902, Note_on_c, 0, 88, 0
3, 503970, Control_c, 0, 64, 0
3, 503996, Note_on_c, 0, 47, 57
3, 504175, Control_c, 0, 64, 127
3, 504496, Note_on_c, 0, 57, 66
3, 504867, Control_c, 0, 64, 0
3, 504907, Note_on_c, 0, 71, 64
3, 504910, Note_on_c, 0, 47, 0
3, 504925, Note_on_c, 0, 66, 63
3, 504928, Note_on_c, 0, 60, 66
3, 504930, Note_on_c, 0, 64, 71
3, 504954, Note_on_c, 0, 51, 57
3, 505163, Control_c, 0, 64, 127
3, 505437, Note_on_c, 0, 71, 0
3, 505493, Note_on_c, 0, 64, 0
3, 505510, Note_on_c, 0, 60, 0
3, 505592, Note_on_c, 0, 66, 0
3, 505624, Note_on_c, 0, 51, 0
3, 505669, Note_on_c, 0, 57, 0
3, 505867, Control_c, 0, 64, 0
3, 505893, Note_on_c, 0, 51, 48
3, 505904, Note_on_c, 0, 69, 51
3, 505907, Note_on_c, 0, 63, 57
3, 505914, Note_on_c, 0, 59, 53
3, 505916, Note_on_c, 0, 66, 54
3, 506027, Note_on_c, 0, 51, 0
3, 506215, Control_c, 0, 64, 127
3, 506398, Note_on_c, 0, 59, 0
3, 506522, Note_on_c, 0, 66, 0
3, 506544, Note_on_c, 0, 63, 0
3, 506594, Note_on_c, 0, 69, 0
3, 506754, Control_c, 0, 64, 0
3, 506863, Note_on_c, 0, 47, 30
3, 506877, Note_on_c, 0, 40, 34
3, 506886, Note_on_c, 0, 67, 48
3, 506897, Note_on_c, 0, 59, 37
3, 506906, Note_on_c, 0, 62, 43
3, 506923, Note_on_c, 0, 55, 25
3, 507010, Control_c, 0, 64, 127
3, 507040, Note_on_c, 0, 40, 0
3, 507056, Note_on_c, 0, 59, 0
3, 507141, Note_on_c, 0, 47, 0
3, 507144, Note_on_c, 0, 62, 0
3, 507210, Note_on_c, 0, 55, 0
3, 507272, Note_on_c, 0, 67, 0
3, 507883, Control_c, 0, 64, 0
3, 507891, Note_on_c, 0, 62, 27
3, 507907, Note_on_c, 0, 71, 67
3, 507914, Note_on_c, 0, 55, 19
3, 507919, Note_on_c, 0, 59, 20
3, 507942, Note_on_c, 0, 52, 15
3, 508096, Note_on_c, 0, 71, 0
3, 508156, Note_on_c, 0, 72, 33
3, 508208, Note_on_c, 0, 72, 0
3, 508216, Note_on_c, 0, 71, 57
3, 508321, Note_on_c, 0, 52, 0
3, 508348, Note_on_c, 0, 55, 0
3, 508358, Note_on_c, 0, 70, 37
3, 508384, Note_on_c, 0, 59, 0
3, 508398, Note_on_c, 0, 71, 0
3, 508460, Control_c, 0, 64, 127
3, 508486, Note_on_c, 0, 62, 0
3, 508503, Note_on_c, 0, 70, 0
3, 508636, Note_on_c, 0, 71, 52
3, 508696, Note_on_c, 0, 71, 0
3, 508807, Control_c, 0, 64, 0
3, 508848, Note_on_c, 0, 61, 30
3, 508870, Note_on_c, 0, 65, 33
3, 508872, Note_on_c, 0, 55, 24
3, 508875, Note_on_c, 0, 84, 64
3, 508974, Note_on_c, 0, 84, 0
3, 509207, Note_on_c, 0, 84, 69
3, 509306, Control_c, 0, 64, 127
3, 509361, Note_on_c, 0, 84, 0
3, 509487, Note_on_c, 0, 73, 42
3, 509488, Note_on_c, 0, 61, 0
3, 509489, Note_on_c, 0, 65, 0
3, 509706, Control_c, 0, 64, 0
3, 509754, Note_on_c, 0, 61, 46
3, 509783, Note_on_c, 0, 65, 43
3, 509923, Control_c, 0, 64, 127
3, 509937, Note_on_c, 0, 65, 0
3, 510018, Note_on_c, 0, 61, 0
3, 510042, Note_on_c, 0, 55, 0
3, 510293, Note_on_c, 0, 73, 0
3, 510401, Note_on_c, 0, 72, 51
3, 510654, Control_c, 0, 64, 0
3, 510709, Note_on_c, 0, 50, 32
3, 510717, Note_on_c, 0, 60, 30
3, 510748, Note_on_c, 0, 57, 28
3, 510910, Control_c, 0, 64, 127
3, 511174, Note_on_c, 0, 57, 0
3, 511189, Note_on_c, 0, 50, 0
3, 511265, Note_on_c, 0, 60, 0
3, 511331, Note_on_c, 0, 72, 0
3, 511358, Note_on_c, 0, 73, 58
3, 511614, Note_on_c, 0, 73, 0
3, 511668, Control_c, 0, 64, 0
3, 511691, Note_on_c, 0, 54, 29
3, 511696, Note_on_c, 0, 60, 29
3, 511714, Note_on_c, 0, 74, 45
3, 511912, Note_on_c, 0, 74, 0
3, 512012, Note_on_c, 0, 77, 52
3, 512126, Note_on_c, 0, 77, 0
3, 512220, Control_c, 0, 64, 127
3, 512253, Note_on_c, 0, 60, 0
3, 512325, Note_on_c, 0, 81, 85
3, 512494, Note_on_c, 0, 54, 0
3, 512533, Note_on_c, 0, 81, 0
3, 512604, Control_c, 0, 64, 0
3, 512647, Note_on_c, 0, 64, 36
3, 512660, Note_on_c, 0, 82, 79
3, 512669, Note_on_c, 0, 53, 28
3, 512674, Note_on_c, 0, 59, 32
3, 512869, Note_on_c, 0, 64, 0
3, 512911, Note_on_c, 0, 59, 0
3, 512951, Control_c, 0, 64, 127
3, 512961, Note_on_c, 0, 53, 0
3, 512993, Note_on_c, 0, 82, 0
3, 513012, Note_on_c, 0, 83, 69
3, 513213, Note_on_c, 0, 83, 0
3, 513318, Note_on_c, 0, 84, 80
3, 513610, Note_on_c, 0, 43, 38
3, 513630, Control_c, 0, 64, 0
3, 513784, Control_c, 0, 64, 127
3, 513785, Note_on_c, 0, 43, 0
3, 513900, Note_on_c, 0, 84, 0
3, 513913, Note_on_c, 0, 85, 71
3, 514138, Note_on_c, 0, 85, 0
3, 514142, Note_on_c, 0, 86, 62
3, 514333, Note_on_c, 0, 87, 56
3, 514347, Note_on_c, 0, 86, 0
3, 514464, Note_on_c, 0, 87, 0
3, 514483, Note_on_c, 0, 88, 49
3, 514542, Control_c, 0, 64, 0
3, 514603, Note_on_c, 0, 43, 22
3, 514608, Note_on_c, 0, 88, 0
3, 514624, Note_on_c, 0, 89, 52
3, 514625, Note_on_c, 0, 36, 27
3, 514657, Note_on_c, 0, 52, 38
3, 514791, Note_on_c, 0, 90, 62
3, 514798, Note_on_c, 0, 89, 0
3, 514914, Note_on_c, 0, 90, 0
3, 514965, Control_c, 0, 64, 127
3, 514967, Note_on_c, 0, 91, 68
3, 514995, Note_on_c, 0, 36, 0
3, 515064, Note_on_c, 0, 43, 0
3, 515159, Note_on_c, 0, 52, 0
3, 515180, Note_on_c, 0, 91, 0
3, 515612, Note_on_c, 0, 62, 40
3, 515646, Note_on_c, 0, 57, 47
3, 515669, Note_on_c, 0, 52, 16
3, 515672, Control_c, 0, 64, 0
3, 515736, Control_c, 0, 64, 127
3, 516240, Note_on_c, 0, 67, 80
3, 516258, Note_on_c, 0, 57, 0
3, 516286, Note_on_c, 0, 62, 0
3, 516389, Note_on_c, 0, 67, 0
3, 516494, Note_on_c, 0, 52, 0
3, 516569, Control_c, 0, 64, 0
3, 516606, Note_on_c, 0, 67, 88
3, 516611, Note_on_c, 0, 62, 45
3, 516616, Note_on_c, 0, 52, 28
3, 516645, Note_on_c, 0, 57, 39
3, 516697, Control_c, 0, 64, 127
3, 516924, Note_on_c, 0, 67, 0
3, 516971, Note_on_c, 0, 69, 35
3, 517024, Note_on_c, 0, 69, 0
3, 517032, Note_on_c, 0, 71, 53
3, 517076, Note_on_c, 0, 71, 0
3, 517102, Note_on_c, 0, 72, 57
3, 517141, Note_on_c, 0, 74, 65
3, 517145, Note_on_c, 0, 72, 0
3, 517184, Note_on_c, 0, 76, 54
3, 517185, Note_on_c, 0, 74, 0
3, 517223, Control_c, 0, 64, 0
3, 517224, Note_on_c, 0, 77, 62
3, 517235, Note_on_c, 0, 76, 0
3, 517249, Note_on_c, 0, 79, 80
3, 517265, Note_on_c, 0, 77, 0
3, 517402, Control_c, 0, 64, 127
3, 517620, Note_on_c, 0, 79, 0
3, 517653, Note_on_c, 0, 81, 51
3, 517689, Note_on_c, 0, 83, 71
3, 517697, Note_on_c, 0, 81, 0
3, 517731, Note_on_c, 0, 84, 71
3, 517733, Note_on_c, 0, 83, 0
3, 517790, Note_on_c, 0, 86, 51
3, 517820, Note_on_c, 0, 84, 0
3, 517840, Note_on_c, 0, 57, 0
3, 517850, Note_on_c, 0, 52, 0
3, 517856, Note_on_c, 0, 86, 0
3, 517867, Note_on_c, 0, 88, 45
3, 517909, Note_on_c, 0, 89, 75
3, 517912, Note_on_c, 0, 88, 0
3, 517941, Note_on_c, 0, 62, 0
3, 517952, Note_on_c, 0, 89, 0
3, 517954, Note_on_c, 0, 91, 66
3, 518351, Note_on_c, 0, 91, 0
3, 518442, Control_c, 0, 64, 0
3, 518869, Note_on_c, 0, 63, 50
3, 518888, Note_on_c, 0, 56, 56
3, 518894, Note_on_c, 0, 59, 42
3, 518904, Control_c, 0, 64, 127
3, 519422, Note_on_c, 0, 79, 78
3, 519424, Note_on_c, 0, 91, 84
3, 519467, Note_on_c, 0, 90, 27
3, 519494, Control_c, 0, 64, 0
3, 519512, Note_on_c, 0, 90, 0
3, 519596, Control_c, 0, 64, 127
3, 519642, Note_on_c, 0, 59, 0
3, 519841, Note_on_c, 0, 91, 0
3, 519882, Note_on_c, 0, 63, 0
3, 519893, Note_on_c, 0, 79, 0
3, 519896, Note_on_c, 0, 59, 31
3, 520344, Note_on_c, 0, 79, 51
3, 520346, Note_on_c, 0, 75, 51
3, 520349, Note_on_c, 0, 71, 60
3, 520378, Note_on_c, 0, 63, 40
3, 520417, Control_c, 0, 64, 0
3, 520450, Note_on_c, 0, 59, 0
3, 520533, Control_c, 0, 64, 127
3, 520766, Note_on_c, 0, 79, 0
3, 520794, Note_on_c, 0, 75, 0
3, 520839, Note_on_c, 0, 71, 0
3, 520851, Note_on_c, 0, 59, 31
3, 520852, Note_on_c, 0, 56, 0
3, 520970, Note_on_c, 0, 63, 0
3, 521290, Control_c, 0, 64, 0
3, 521317, Note_on_c, 0, 75, 36
3, 521329, Note_on_c, 0, 71, 36
3, 521331, Note_on_c, 0, 65, 33
3, 521337, Note_on_c, 0, 68, 32
3, 521405, Control_c, 0, 64, 127
3, 521505, Note_on_c, 0, 75, 0
3, 521510, Note_on_c, 0, 71, 0
3, 521578, Note_on_c, 0, 68, 0
3, 521648, Note_on_c, 0, 65, 0
3, 521792, Note_on_c, 0, 59, 0
3, 521800, Note_on_c, 0, 56, 39
3, 521864, Note_on_c, 0, 56, 0
3, 522227, Control_c, 0, 64, 0
3, 522280, Note_on_c, 0, 55, 31
3, 522292, Note_on_c, 0, 65, 28
3, 522300, Note_on_c, 0, 58, 36
3, 522304, Note_on_c, 0, 62, 38
3, 522324, Note_on_c, 0, 43, 28
3, 522330, Note_on_c, 0, 53, 22
3, 522444, Control_c, 0, 64, 127
3, 522611, Note_on_c, 0, 65, 0
3, 522612, Note_on_c, 0, 43, 0
3, 522691, Note_on_c, 0, 55, 0
3, 522703, Note_on_c, 0, 62, 0
3, 522707, Note_on_c, 0, 58, 0
3, 522809, Note_on_c, 0, 53, 0
3, 523279, Control_c, 0, 64, 0
3, 523284, Note_on_c, 0, 55, 44
3, 523290, Note_on_c, 0, 67, 56
3, 523299, Note_on_c, 0, 58, 50
3, 523304, Note_on_c, 0, 62, 51
3, 523421, Control_c, 0, 64, 127
3, 523485, Note_on_c, 0, 67, 0
3, 523493, Note_on_c, 0, 58, 0
3, 523514, Note_on_c, 0, 62, 0
3, 523548, Control_c, 0, 64, 0
3, 523603, Note_on_c, 0, 67, 54
3, 523613, Note_on_c, 0, 58, 43
3, 523632, Note_on_c, 0, 62, 57
3, 523715, Control_c, 0, 64, 127
3, 523717, Note_on_c, 0, 58, 0
3, 523779, Note_on_c, 0, 62, 0
3, 523795, Note_on_c, 0, 67, 0
3, 523800, Note_on_c, 0, 55, 0
3, 524062, Control_c, 0, 64, 0
3, 524256, Note_on_c, 0, 58, 48
3, 524258, Note_on_c, 0, 70, 55
3, 524270, Note_on_c, 0, 64, 58
3, 524271, Note_on_c, 0, 61, 49
3, 524404, Note_on_c, 0, 61, 0
3, 524423, Note_on_c, 0, 64, 0
3, 524462, Note_on_c, 0, 58, 0
3, 524481, Note_on_c, 0, 70, 0
3, 524618, Note_on_c, 0, 48, 48
3, 524755, Note_on_c, 0, 48, 0
3, 524793, Control_c, 0, 64, 127
3, 525511, Control_c, 0, 64, 0
3, 525529, Note_on_c, 0, 69, 55
3, 525532, Note_on_c, 0, 58, 50
3, 525547, Note_on_c, 0, 61, 39
3, 525562, Note_on_c, 0, 57, 57
3, 525568, Note_on_c, 0, 64, 47
3, 525716, Control_c, 0, 64, 127
3, 525761, Note_on_c, 0, 69, 0
3, 525816, Note_on_c, 0, 61, 0
3, 525827, Note_on_c, 0, 58, 0
3, 525890, Note_on_c, 0, 64, 0
3, 526036, Control_c, 0, 64, 0
3, 526087, Note_on_c, 0, 57, 0
3, 526155, Note_on_c, 0, 56, 52
3, 526156, Note_on_c, 0, 68, 42
3, 526168, Note_on_c, 0, 60, 37
3, 526169, Note_on_c, 0, 63, 42
3, 526195, Note_on_c, 0, 65, 39
3, 526280, Control_c, 0, 64, 127
3, 526293, Note_on_c, 0, 56, 0
3, 526462, Note_on_c, 0, 65, 0
3, 526499, Note_on_c, 0, 63, 0
3, 526552, Note_on_c, 0, 60, 0
3, 526848, Note_on_c, 0, 68, 0
3, 527077, Control_c, 0, 64, 0
3, 527138, Note_on_c, 0, 63, 38
3, 527146, Note_on_c, 0, 56, 46
3, 527155, Note_on_c, 0, 51, 30
3, 527159, Note_on_c, 0, 41, 38
3, 527179, Note_on_c, 0, 60, 40
3, 527269, Control_c, 0, 64, 127
3, 527431, Note_on_c, 0, 41, 0
3, 527466, Note_on_c, 0, 60, 0
3, 527482, Note_on_c, 0, 56, 0
3, 527609, Note_on_c, 0, 51, 0
3, 527978, Note_on_c, 0, 63, 0
3, 528103, Control_c, 0, 64, 0
3, 528125, Note_on_c, 0, 59, 37
3, 528130, Note_on_c, 0, 62, 42
3, 528152, Note_on_c, 0, 56, 40
3, 528176, Note_on_c, 0, 46, 31
3, 528359, Control_c, 0, 64, 127
3, 528629, Note_on_c, 0, 59, 0
3, 528674, Note_on_c, 0, 56, 0
3, 528711, Note_on_c, 0, 62, 0
3, 529039, Control_c, 0, 64, 0
3, 529041, Note_on_c, 0, 59, 47
3, 529044, Note_on_c, 0, 68, 42
3, 529050, Note_on_c, 0, 62, 44
3, 529056, Note_on_c, 0, 56, 42
3, 529067, Note_on_c, 0, 65, 45
3, 529172, Note_on_c, 0, 56, 0
3, 529219, Control_c, 0, 64, 127
3, 529231, Note_on_c, 0, 46, 0
3, 529443, Note_on_c, 0, 59, 0
3, 529491, Note_on_c, 0, 62, 0
3, 529538, Note_on_c, 0, 68, 0
3, 529573, Note_on_c, 0, 65, 0
3, 529873, Control_c, 0, 64, 0
3, 529957, Note_on_c, 0, 67, 45
3, 529958, Note_on_c, 0, 47, 24
3, 529959, Note_on_c, 0, 40, 30
3, 529978, Note_on_c, 0, 62, 39
3, 529991, Note_on_c, 0, 55, 24
3, 530080, Control_c, 0, 64, 127
3, 530133, Note_on_c, 0, 40, 0
3, 530137, Note_on_c, 0, 62, 0
3, 530181, Note_on_c, 0, 67, 0
3, 530184, Note_on_c, 0, 47, 0
3, 530316, Note_on_c, 0, 55, 0
3, 530526, Note_on_c, 0, 79, 61
3, 530530, Note_on_c, 0, 67, 71
3, 530543, Note_on_c, 0, 74, 62
3, 530693, Note_on_c, 0, 74, 0
3, 530798, Note_on_c, 0, 79, 0
3, 530814, Note_on_c, 0, 67, 0
3, 530868, Note_on_c, 0, 62, 53
3, 530873, Note_on_c, 0, 59, 42
3, 530891, Note_on_c, 0, 52, 24
3, 530899, Control_c, 0, 64, 0
3, 530936, Note_on_c, 0, 79, 56
3, 530941, Note_on_c, 0, 55, 18
3, 530951, Note_on_c, 0, 67, 56
3, 530982, Note_on_c, 0, 62, 0
3, 531072, Note_on_c, 0, 59, 0
3, 531093, Control_c, 0, 64, 127
3, 531106, Note_on_c, 0, 52, 0
3, 531174, Note_on_c, 0, 55, 0
3, 531197, Note_on_c, 0, 79, 0
3, 531244, Note_on_c, 0, 67, 0
3, 531512, Note_on_c, 0, 79, 48
3, 531516, Note_on_c, 0, 67, 39
3, 531572, Note_on_c, 0, 67, 0
3, 531632, Note_on_c, 0, 79, 0
3, 531856, Note_on_c, 0, 39, 35
3, 531861, Control_c, 0, 64, 0
3, 531880, Note_on_c, 0, 86, 63
3, 531882, Note_on_c, 0, 74, 57
3, 531889, Note_on_c, 0, 54, 34
3, 531914, Note_on_c, 0, 78, 33
3, 532119, Control_c, 0, 64, 127
3, 532157, Note_on_c, 0, 39, 0
3, 532303, Note_on_c, 0, 54, 0
3, 532515, Note_on_c, 0, 86, 0
3, 532542, Note_on_c, 0, 74, 0
3, 532591, Note_on_c, 0, 78, 0
3, 532821, Note_on_c, 0, 63, 34
3, 532844, Note_on_c, 0, 84, 34
3, 532851, Control_c, 0, 64, 0
3, 532852, Note_on_c, 0, 78, 37
3, 532858, Note_on_c, 0, 72, 36
3, 532866, Note_on_c, 0, 81, 40
3, 532867, Note_on_c, 0, 54, 34
3, 532912, Note_on_c, 0, 60, 22
3, 533017, Control_c, 0, 64, 127
3, 533181, Note_on_c, 0, 60, 0
3, 533300, Note_on_c, 0, 81, 0
3, 533304, Note_on_c, 0, 54, 0
3, 533306, Note_on_c, 0, 84, 0
3, 533333, Note_on_c, 0, 72, 0
3, 533337, Note_on_c, 0, 63, 0
3, 533341, Note_on_c, 0, 78, 0
3, 533751, Note_on_c, 0, 63, 33
3, 533777, Note_on_c, 0, 79, 58
3, 533786, Note_on_c, 0, 69, 55
3, 533799, Control_c, 0, 64, 0
3, 533803, Note_on_c, 0, 64, 62
3, 533806, Note_on_c, 0, 72, 47
3, 533807, Note_on_c, 0, 63, 0
3, 533813, Note_on_c, 0, 76, 38
3, 533903, Note_on_c, 0, 72, 0
3, 533904, Note_on_c, 0, 69, 0
3, 533908, Note_on_c, 0, 64, 0
3, 533926, Note_on_c, 0, 76, 0
3, 533939, Note_on_c, 0, 79, 0
3, 534252, Note_on_c, 0, 76, 51
3, 534255, Note_on_c, 0, 60, 29
3, 534279, Note_on_c, 0, 69, 48
3, 534293, Note_on_c, 0, 72, 28
3, 534302, Note_on_c, 0, 65, 31
3, 534362, Note_on_c, 0, 72, 0
3, 534369, Note_on_c, 0, 69, 0
3, 534401, Note_on_c, 0, 76, 0
3, 534410, Note_on_c, 0, 65, 0
3, 534465, Note_on_c, 0, 60, 0
3, 534682, Note_on_c, 0, 72, 42
3, 534723, Note_on_c, 0, 65, 35
3, 534757, Note_on_c, 0, 57, 32
3, 534796, Note_on_c, 0, 65, 0
3, 534812, Note_on_c, 0, 72, 0
3, 534946, Note_on_c, 0, 57, 0
3, 535200, Note_on_c, 0, 60, 24
3, 535211, Note_on_c, 0, 53, 29
3, 535212, Note_on_c, 0, 69, 19
3, 535221, Note_on_c, 0, 65, 33
3, 535288, Note_on_c, 0, 60, 0
3, 535293, Note_on_c, 0, 53, 0
3, 535333, Note_on_c, 0, 69, 0
3, 535342, Note_on_c, 0, 65, 0
3, 536180, Note_on_c, 0, 70, 39
3, 536184, Note_on_c, 0, 59, 43
3, 536186, Note_on_c, 0, 63, 44
3, 536197, Note_on_c, 0, 53, 27
3, 536222, Note_on_c, 0, 65, 32
3, 536277, Note_on_c, 0, 59, 0
3, 536279, Note_on_c, 0, 53, 0
3, 536288, Note_on_c, 0, 70, 0
3, 536302, Note_on_c, 0, 63, 0
3, 536307, Note_on_c, 0, 65, 0
3, 536646, Note_on_c, 0, 59, 45
3, 536648, Note_on_c, 0, 68, 42
3, 536679, Note_on_c, 0, 53, 24
3, 536680, Note_on_c, 0, 63, 28
3, 536725, Note_on_c, 0, 63, 0
3, 536739, Note_on_c, 0, 59, 0
3, 536766, Note_on_c, 0, 68, 0
3, 536768, Note_on_c, 0, 53, 0
3, 537120, Note_on_c, 0, 43, 29
3, 537143, Note_on_c, 0, 68, 35
3, 537149, Note_on_c, 0, 59, 34
3, 537153, Note_on_c, 0, 63, 30
3, 537212, Note_on_c, 0, 43, 0
3, 537219, Note_on_c, 0, 63, 0
3, 537239, Note_on_c, 0, 59, 0
3, 537242, Note_on_c, 0, 68, 0
3, 538053, Note_on_c, 0, 57, 45
3, 538056, Note_on_c, 0, 67, 40
3, 538067, Note_on_c, 0, 52, 32
3, 538076, Note_on_c, 0, 62, 35
3, 538142, Note_on_c, 0, 62, 0
3, 538154, Note_on_c, 0, 57, 0
3, 538159, Note_on_c, 0, 67, 0
3, 538161, Note_on_c, 0, 52, 0
3, 538530, Note_on_c, 0, 67, 36
3, 538535, Note_on_c, 0, 62, 35
3, 538536, Note_on_c, 0, 57, 48
3, 538543, Note_on_c, 0, 52, 31
3, 538599, Note_on_c, 0, 62, 0
3, 538600, Note_on_c, 0, 57, 0
3, 538622, Note_on_c, 0, 67, 0
3, 538624, Note_on_c, 0, 52, 0
3, 539010, Note_on_c, 0, 67, 44
3, 539025, Note_on_c, 0, 62, 37
3, 539027, Note_on_c, 0, 52, 32
3, 539031, Note_on_c, 0, 57, 40
3, 539092, Note_on_c, 0, 62, 0
3, 539096, Note_on_c, 0, 57, 0
3, 539123, Note_on_c, 0, 52, 0
3, 539142, Note_on_c, 0, 67, 0
3, 539941, Note_on_c, 0, 70, 67
3, 539943, Note_on_c, 0, 61, 64
3, 539953, Note_on_c, 0, 66, 62
3, 539964, Note_on_c, 0, 55, 47
3, 540024, Note_on_c, 0, 61, 0
3, 540048, Note_on_c, 0, 70, 0
3, 540060, Note_on_c, 0, 66, 0
3, 540071, Note_on_c, 0, 55, 0
3, 540442, Note_on_c, 0, 70, 78
3, 540445, Note_on_c, 0, 61, 88
3, 540449, Note_on_c, 0, 66, 79
3, 540455, Note_on_c, 0, 55, 80
3, 541192, Control_c, 0, 64, 127
3, 541342, Note_on_c, 0, 55, 0
3, 541392, Note_on_c, 0, 70, 0
3, 541393, Note_on_c, 0, 61, 0
3, 541410, Control_c, 0, 64, 0
3, 541415, Note_on_c, 0, 66, 0
3, 541482, Note_on_c, 0, 69, 63
3, 541484, Note_on_c, 0, 60, 64
3, 541497, Note_on_c, 0, 65, 64
3, 541525, Note_on_c, 0, 55, 41
3, 541940, Note_on_c, 0, 55, 0
3, 541969, Note_on_c, 0, 43, 57
3, 542039, Control_c, 0, 64, 127
3, 542119, Note_on_c, 0, 43, 0
3, 542461, Note_on_c, 0, 31, 36
3, 542519, Note_on_c, 0, 31, 0
3, 543019, Note_on_c, 0, 69, 0
3, 543106, Note_on_c, 0, 65, 0
3, 543137, Note_on_c, 0, 60, 0
3, 543424, Note_on_c, 0, 68, 44
3, 543448, Note_on_c, 0, 59, 32
3, 543450, Control_c, 0, 64, 0
3, 543459, Note_on_c, 0, 64, 38
3, 543477, Note_on_c, 0, 53, 26
3, 543656, Control_c, 0, 64, 127
3, 543924, Note_on_c, 0, 43, 43
3, 544080, Note_on_c, 0, 53, 0
3, 544124, Note_on_c, 0, 43, 0
3, 544314, Note_on_c, 0, 59, 0
3, 544465, Note_on_c, 0, 64, 0
3, 544650, Note_on_c, 0, 68, 0
3, 544857, Note_on_c, 0, 43, 20
3, 545227, Note_on_c, 0, 43, 0
3, 545235, Control_c, 0, 64, 0
3, 545287, Note_on_c, 0, 36, 34
3, 545309, Note_on_c, 0, 67, 72
3, 545367, Note_on_c, 0, 36, 0
3, 545376, Control_c, 0, 64, 127
3, 545715, Note_on_c, 0, 67, 0
3, 545871, Note_on_c, 0, 67, 43
3, 545985, Note_on_c, 0, 67, 0
3, 546287, Control_c, 0, 64, 0
3, 546293, Note_on_c, 0, 79, 81
3, 546296, Note_on_c, 0, 62, 40
3, 546319, Note_on_c, 0, 57, 51
3, 546328, Note_on_c, 0, 52, 28
3, 546492, Control_c, 0, 64, 127
3, 546622, Note_on_c, 0, 52, 0
3, 546635, Note_on_c, 0, 57, 0
3, 546673, Note_on_c, 0, 79, 0
3, 546691, Note_on_c, 0, 62, 0
3, 546805, Note_on_c, 0, 79, 59
3, 546901, Note_on_c, 0, 79, 0
3, 547223, Control_c, 0, 64, 0
3, 547233, Note_on_c, 0, 91, 68
3, 547234, Note_on_c, 0, 65, 42
3, 547264, Note_on_c, 0, 57, 32
3, 547287, Note_on_c, 0, 60, 33
3, 547403, Control_c, 0, 64, 127
3, 547513, Note_on_c, 0, 60, 0
3, 547521, Note_on_c, 0, 91, 0
3, 547525, Note_on_c, 0, 65, 0
3, 547581, Note_on_c, 0, 57, 0
3, 547747, Note_on_c, 0, 91, 62
3, 547848, Note_on_c, 0, 91, 0
3, 548185, Control_c, 0, 64, 0
3, 548186, Note_on_c, 0, 52, 37
3, 548188, Note_on_c, 0, 62, 40
3, 548218, Note_on_c, 0, 57, 44
3, 548226, Note_on_c, 0, 103, 40
3, 548245, Note_on_c, 0, 101, 49
3, 548300, Control_c, 0, 64, 127
3, 548317, Note_on_c, 0, 57, 0
3, 548318, Note_on_c, 0, 101, 0
3, 548332, Note_on_c, 0, 62, 0
3, 548404, Note_on_c, 0, 52, 0
3, 548444, Note_on_c, 0, 103, 0
3, 548697, Note_on_c, 0, 103, 48
3, 548899, Note_on_c, 0, 103, 0
3, 549127, Note_on_c, 0, 37, 42
3, 549134, Note_on_c, 0, 44, 35
3, 549146, Control_c, 0, 64, 0
3, 549351, Control_c, 0, 64, 127
3, 549427, Note_on_c, 0, 37, 0
3, 549461, Note_on_c, 0, 44, 0
3, 549643, Note_on_c, 0, 101, 40
3, 549649, Note_on_c, 0, 103, 53
3, 549799, Note_on_c, 0, 103, 0
3, 549807, Note_on_c, 0, 101, 0
3, 549877, Control_c, 0, 64, 0
3, 550051, Note_on_c, 0, 63, 48
3, 550069, Note_on_c, 0, 53, 22
3, 550085, Note_on_c, 0, 103, 56
3, 550087, Note_on_c, 0, 58, 55
3, 550088, Note_on_c, 0, 101, 44
3, 550218, Note_on_c, 0, 103, 0
3, 550227, Note_on_c, 0, 101, 0
3, 550261, Note_on_c, 0, 53, 0
3, 550269, Note_on_c, 0, 63, 0
3, 550301, Note_on_c, 0, 58, 0
3, 550540, Note_on_c, 0, 99, 43
3, 550542, Note_on_c, 0, 101, 30
3, 550667, Note_on_c, 0, 99, 0
3, 550727, Note_on_c, 0, 101, 0
3, 550995, Note_on_c, 0, 101, 40
3, 551011, Note_on_c, 0, 99, 46
3, 551150, Note_on_c, 0, 99, 0
3, 551194, Note_on_c, 0, 101, 0
3, 551452, Note_on_c, 0, 63, 44
3, 551458, Note_on_c, 0, 101, 51
3, 551459, Note_on_c, 0, 103, 57
3, 551486, Note_on_c, 0, 58, 46
3, 551513, Note_on_c, 0, 53, 19
3, 551578, Note_on_c, 0, 63, 0
3, 551616, Note_on_c, 0, 53, 0
3, 551645, Note_on_c, 0, 58, 0
3, 551678, Note_on_c, 0, 103, 0
3, 551699, Note_on_c, 0, 101, 0
3, 551956, Note_on_c, 0, 101, 58
3, 551997, Note_on_c, 0, 103, 25
3, 552189, Note_on_c, 0, 103, 0
3, 552195, Note_on_c, 0, 101, 0
3, 552414, Note_on_c, 0, 37, 39
3, 552419, Note_on_c, 0, 101, 41
3, 552440, Note_on_c, 0, 44, 32
3, 552442, Note_on_c, 0, 99, 49
3, 552587, Note_on_c, 0, 99, 0
3, 552590, Note_on_c, 0, 44, 0
3, 552596, Note_on_c, 0, 101, 0
3, 552610, Note_on_c, 0, 37, 0
3, 552960, Note_on_c, 0, 43, 50
3, 553085, Control_c, 0, 64, 127
3, 553304, Control_c, 0, 64, 0
3, 553416, Note_on_c, 0, 46, 57
3, 553440, Note_on_c, 0, 43, 0
3, 553560, Control_c, 0, 64, 127
3, 553564, Note_on_c, 0, 46, 0
3, 553962, Note_on_c, 0, 62, 36
3, 554014, Note_on_c, 0, 57, 42
3, 554027, Note_on_c, 0, 58, 19
3, 554067, Note_on_c, 0, 62, 0
3, 554094, Note_on_c, 0, 57, 0
3, 554105, Note_on_c, 0, 58, 0
3, 554124, Control_c, 0, 64, 0
3, 554318, Control_c, 0, 64, 127
3, 554401, Note_on_c, 0, 89, 39
3, 554430, Note_on_c, 0, 98, 39
3, 554551, Note_on_c, 0, 98, 0
3, 554565, Note_on_c, 0, 89, 0
3, 554831, Control_c, 0, 64, 0
3, 554872, Note_on_c, 0, 88, 34
3, 554873, Note_on_c, 0, 52, 32
3, 554877, Note_on_c, 0, 100, 38
3, 554894, Note_on_c, 0, 38, 19
3, 555010, Control_c, 0, 64, 127
3, 555025, Note_on_c, 0, 38, 0
3, 555114, Note_on_c, 0, 52, 0
3, 555685, Note_on_c, 0, 88, 0
3, 555872, Note_on_c, 0, 64, 41
3, 555877, Note_on_c, 0, 61, 23
3, 555904, Note_on_c, 0, 58, 34
3, 555959, Note_on_c, 0, 64, 0
3, 556010, Note_on_c, 0, 61, 0
3, 556038, Note_on_c, 0, 58, 0
3, 556106, Note_on_c, 0, 100, 0
3, 556177, Note_on_c, 0, 99, 60
3, 556304, Note_on_c, 0, 99, 0
3, 556371, Note_on_c, 0, 98, 25
3, 556500, Note_on_c, 0, 97, 43
3, 556528, Note_on_c, 0, 98, 0
3, 556655, Note_on_c, 0, 96, 31
3, 556715, Note_on_c, 0, 97, 0
3, 556756, Note_on_c, 0, 96, 0
3, 556765, Note_on_c, 0, 95, 54
3, 556780, Control_c, 0, 64, 0
3, 556866, Note_on_c, 0, 95, 0
3, 556892, Note_on_c, 0, 41, 38
3, 556907, Note_on_c, 0, 94, 37
3, 557032, Note_on_c, 0, 94, 0
3, 557047, Note_on_c, 0, 93, 62
3, 557189, Note_on_c, 0, 93, 0
3, 557191, Note_on_c, 0, 92, 67
3, 557207, Note_on_c, 0, 41, 0
3, 557365, Note_on_c, 0, 92, 0
3, 557533, Note_on_c, 0, 92, 58
3, 557676, Note_on_c, 0, 92, 0
3, 557794, Note_on_c, 0, 63, 38
3, 557822, Note_on_c, 0, 92, 56
3, 557830, Note_on_c, 0, 56, 39
3, 557838, Note_on_c, 0, 53, 18
3, 557962, Note_on_c, 0, 53, 0
3, 557967, Note_on_c, 0, 92, 0
3, 557980, Note_on_c, 0, 63, 0
3, 558003, Note_on_c, 0, 94, 40
3, 558122, Note_on_c, 0, 92, 35
3, 558164, Note_on_c, 0, 56, 0
3, 558170, Note_on_c, 0, 94, 0
3, 558233, Note_on_c, 0, 92, 0
3, 558251, Note_on_c, 0, 91, 33
3, 558336, Note_on_c, 0, 91, 0
3, 558383, Note_on_c, 0, 92, 51
3, 558510, Note_on_c, 0, 92, 0
3, 558817, Note_on_c, 0, 67, 32
3, 558830, Note_on_c, 0, 56, 31
3, 558842, Note_on_c, 0, 62, 34
3, 558885, Control_c, 0, 64, 127
3, 559056, Note_on_c, 0, 62, 0
3, 559069, Note_on_c, 0, 67, 0
3, 559171, Note_on_c, 0, 56, 0
3, 559668, Control_c, 0, 64, 0
3, 559687, Note_on_c, 0, 46, 40
3, 559710, Note_on_c, 0, 56, 26
3, 559841, Note_on_c, 0, 56, 0
3, 559859, Control_c, 0, 64, 127
3, 559875, Note_on_c, 0, 46, 0
3, 560540, Control_c, 0, 64, 0
3, 560629, Note_on_c, 0, 40, 43
3, 560660, Note_on_c, 0, 55, 35
3, 560732, Control_c, 0, 64, 127
3, 560796, Note_on_c, 0, 40, 0
3, 560966, Note_on_c, 0, 55, 0
3, 561154, Note_on_c, 0, 91, 77
3, 561342, Note_on_c, 0, 91, 0
3, 561588, Note_on_c, 0, 91, 71
3, 561600, Note_on_c, 0, 62, 43
3, 561605, Control_c, 0, 64, 0
3, 561619, Note_on_c, 0, 59, 34
3, 561625, Note_on_c, 0, 52, 22
3, 561643, Note_on_c, 0, 55, 22
3, 561715, Note_on_c, 0, 62, 0
3, 561772, Note_on_c, 0, 52, 0
3, 561783, Note_on_c, 0, 91, 0
3, 561832, Note_on_c, 0, 93, 44
3, 561845, Note_on_c, 0, 55, 0
3, 561866, Note_on_c, 0, 59, 0
3, 561920, Note_on_c, 0, 91, 41
3, 561962, Note_on_c, 0, 93, 0
3, 562040, Note_on_c, 0, 90, 39
3, 562067, Control_c, 0, 64, 127
3, 562068, Note_on_c, 0, 91, 0
3, 562183, Note_on_c, 0, 90, 0
3, 562351, Note_on_c, 0, 91, 46
3, 562466, Note_on_c, 0, 91, 0
3, 562542, Control_c, 0, 64, 0
3, 562553, Note_on_c, 0, 54, 34
3, 562558, Note_on_c, 0, 39, 36
3, 562563, Note_on_c, 0, 98, 55
3, 562659, Note_on_c, 0, 39, 0
3, 562691, Note_on_c, 0, 98, 0
3, 562781, Note_on_c, 0, 54, 0
3, 562992, Note_on_c, 0, 98, 51
3, 562993, Note_on_c, 0, 86, 55
3, 563156, Note_on_c, 0, 86, 0
3, 563187, Note_on_c, 0, 98, 0
3, 563440, Note_on_c, 0, 63, 36
3, 563453, Note_on_c, 0, 98, 60
3, 563459, Note_on_c, 0, 54, 29
3, 563467, Note_on_c, 0, 86, 50
3, 563488, Note_on_c, 0, 63, 0
3, 563585, Note_on_c, 0, 86, 0
3, 563590, Note_on_c, 0, 54, 0
3, 563633, Note_on_c, 0, 98, 0
3, 563724, Note_on_c, 0, 97, 55
3, 563868, Note_on_c, 0, 97, 0
3, 563953, Note_on_c, 0, 96, 40
3, 563992, Control_c, 0, 64, 127
3, 564117, Note_on_c, 0, 96, 0
3, 564203, Note_on_c, 0, 92, 46
3, 564352, Note_on_c, 0, 92, 0
3, 564355, Note_on_c, 0, 38, 34
3, 564363, Control_c, 0, 64, 0
3, 564436, Note_on_c, 0, 96, 53
3, 564449, Note_on_c, 0, 53, 24
3, 564474, Note_on_c, 0, 38, 0
3, 564590, Note_on_c, 0, 96, 0
3, 564600, Note_on_c, 0, 53, 0
3, 564920, Note_on_c, 0, 93, 60
3, 565075, Note_on_c, 0, 93, 0
3, 565400, Note_on_c, 0, 60, 33
3, 565425, Note_on_c, 0, 89, 48
3, 565451, Note_on_c, 0, 57, 29
3, 565456, Note_on_c, 0, 53, 22
3, 565678, Note_on_c, 0, 60, 0
3, 565687, Note_on_c, 0, 89, 0
3, 565788, Note_on_c, 0, 84, 36
3, 565818, Note_on_c, 0, 53, 0
3, 565824, Note_on_c, 0, 57, 0
3, 565838, Control_c, 0, 64, 127
3, 565875, Note_on_c, 0, 84, 0
3, 566339, Control_c, 0, 64, 0
3, 566394, Note_on_c, 0, 65, 42
3, 566412, Note_on_c, 0, 60, 30
3, 566428, Note_on_c, 0, 54, 25
3, 566946, Note_on_c, 0, 106, 81
3, 567073, Note_on_c, 0, 60, 0
3, 567139, Note_on_c, 0, 106, 0
3, 567201, Note_on_c, 0, 65, 0
3, 567239, Note_on_c, 0, 104, 72
3, 567317, Note_on_c, 0, 54, 0
3, 567436, Note_on_c, 0, 64, 37
3, 567445, Note_on_c, 0, 104, 0
3, 567467, Note_on_c, 0, 53, 22
3, 567495, Note_on_c, 0, 59, 30
3, 567502, Note_on_c, 0, 99, 62
3, 567713, Note_on_c, 0, 99, 0
3, 567761, Note_on_c, 0, 95, 56
3, 567852, Control_c, 0, 64, 127
3, 567884, Note_on_c, 0, 95, 0
3, 567974, Note_on_c, 0, 98, 60
3, 568052, Note_on_c, 0, 64, 0
3, 568117, Note_on_c, 0, 53, 0
3, 568142, Note_on_c, 0, 98, 0
3, 568222, Note_on_c, 0, 99, 69
3, 568289, Control_c, 0, 64, 0
3, 568360, Note_on_c, 0, 99, 0
3, 568373, Note_on_c, 0, 59, 0
3, 568427, Note_on_c, 0, 56, 36
3, 568440, Note_on_c, 0, 62, 28
3, 568453, Note_on_c, 0, 100, 60
3, 568624, Note_on_c, 0, 100, 0
3, 568702, Note_on_c, 0, 101, 62
3, 568821, Note_on_c, 0, 56, 0
3, 568862, Note_on_c, 0, 101, 0
3, 568898, Note_on_c, 0, 103, 71
3, 568901, Note_on_c, 0, 62, 0
3, 569067, Note_on_c, 0, 103, 0
3, 569356, Note_on_c, 0, 94, 60
3, 569379, Note_on_c, 0, 67, 33
3, 569405, Note_on_c, 0, 56, 25
3, 569420, Note_on_c, 0, 62, 24
3, 569555, Note_on_c, 0, 94, 0
3, 569649, Note_on_c, 0, 96, 38
3, 569806, Note_on_c, 0, 96, 0
3, 569854, Note_on_c, 0, 98, 58
3, 569918, Note_on_c, 0, 62, 0
3, 569925, Note_on_c, 0, 67, 0
3, 570010, Note_on_c, 0, 98, 0
3, 570142, Note_on_c, 0, 56, 0
3, 570324, Note_on_c, 0, 66, 44
3, 570334, Note_on_c, 0, 61, 35
3, 570346, Note_on_c, 0, 93, 57
3, 570488, Note_on_c, 0, 66, 0
3, 570529, Note_on_c, 0, 93, 0
3, 570551, Note_on_c, 0, 61, 0
3, 570620, Note_on_c, 0, 95, 60
3, 570785, Note_on_c, 0, 95, 0
3, 570790, Control_c, 0, 64, 127
3, 570812, Note_on_c, 0, 97, 64
3, 570938, Note_on_c, 0, 97, 0
3, 571214, Control_c, 0, 64, 0
3, 571267, Note_on_c, 0, 87, 59
3, 571281, Note_on_c, 0, 55, 30
3, 571284, Note_on_c, 0, 45, 38
3, 571397, Note_on_c, 0, 45, 0
3, 571473, Note_on_c, 0, 87, 0
3, 571502, Note_on_c, 0, 55, 0
3, 571586, Note_on_c, 0, 89, 46
3, 571740, Note_on_c, 0, 89, 0
3, 571805, Note_on_c, 0, 91, 40
3, 571818, Control_c, 0, 64, 127
3, 571921, Note_on_c, 0, 94, 33
3, 571924, Note_on_c, 0, 91, 0
3, 572035, Note_on_c, 0, 94, 0
3, 572213, Control_c, 0, 64, 0
3, 572239, Note_on_c, 0, 89, 59
3, 572266, Note_on_c, 0, 50, 35
3, 572267, Note_on_c, 0, 60, 37
3, 572410, Note_on_c, 0, 89, 0
3, 572546, Note_on_c, 0, 91, 53
3, 572606, Note_on_c, 0, 50, 0
3, 572684, Note_on_c, 0, 91, 0
3, 572707, Note_on_c, 0, 60, 0
3, 572714, Note_on_c, 0, 93, 54
3, 572830, Control_c, 0, 64, 127
3, 572919, Note_on_c, 0, 93, 0
3, 572995, Note_on_c, 0, 96, 56
3, 573116, Note_on_c, 0, 96, 0
3, 573152, Control_c, 0, 64, 0
3, 573192, Note_on_c, 0, 65, 30
3, 573204, Note_on_c, 0, 54, 28
3, 573224, Note_on_c, 0, 60, 26
3, 573240, Note_on_c, 0, 92, 42
3, 573589, Note_on_c, 0, 92, 0
3, 573614, Control_c, 0, 64, 127
3, 573711, Note_on_c, 0, 65, 0
3, 573724, Note_on_c, 0, 60, 0
3, 573973, Note_on_c, 0, 99, 64
3, 574077, Note_on_c, 0, 54, 0
3, 574114, Control_c, 0, 64, 0
3, 574133, Note_on_c, 0, 99, 0
3, 574158, Note_on_c, 0, 64, 37
3, 574208, Note_on_c, 0, 95, 53
3, 574211, Note_on_c, 0, 59, 22
3, 574224, Note_on_c, 0, 53, 24
3, 574371, Note_on_c, 0, 64, 0
3, 574403, Note_on_c, 0, 95, 0
3, 574410, Control_c, 0, 64, 127
3, 574417, Note_on_c, 0, 59, 0
3, 574452, Note_on_c, 0, 98, 53
3, 574453, Note_on_c, 0, 53, 0
3, 574620, Note_on_c, 0, 98, 0
3, 574622, Note_on_c, 0, 100, 54
3, 574833, Note_on_c, 0, 100, 0
3, 574877, Note_on_c, 0, 103, 68
3, 575024, Note_on_c, 0, 103, 0
3, 575050, Control_c, 0, 64, 0
3, 575086, Note_on_c, 0, 43, 25
3, 575102, Note_on_c, 0, 53, 20
3, 575111, Note_on_c, 0, 102, 50
3, 575248, Note_on_c, 0, 102, 0
3, 575310, Note_on_c, 0, 53, 0
3, 575344, Note_on_c, 0, 43, 0
3, 575475, Control_c, 0, 64, 127
3, 575642, Note_on_c, 0, 101, 47
3, 575872, Note_on_c, 0, 101, 0
3, 575896, Note_on_c, 0, 99, 57
3, 575974, Control_c, 0, 64, 0
3, 576024, Note_on_c, 0, 99, 0
3, 576074, Note_on_c, 0, 100, 54
3, 576326, Note_on_c, 0, 100, 0
3, 576346, Note_on_c, 0, 96, 48
3, 576477, Note_on_c, 0, 96, 0
3, 576518, Note_on_c, 0, 91, 41
3, 576633, Note_on_c, 0, 91, 0
3, 576792, Note_on_c, 0, 91, 57
3, 576917, Note_on_c, 0, 91, 0
3, 577009, Note_on_c, 0, 64, 39
3, 577013, Note_on_c, 0, 91, 44
3, 577047, Note_on_c, 0, 60, 31
3, 577190, Note_on_c, 0, 91, 0
3, 577264, Note_on_c, 0, 64, 0
3, 577338, Note_on_c, 0, 60, 0
3, 577505, Note_on_c, 0, 91, 62
3, 577717, Note_on_c, 0, 91, 0
3, 577756, Note_on_c, 0, 90, 47
3, 577888, Note_on_c, 0, 90, 0
3, 577948, Note_on_c, 0, 62, 33
3, 577960, Note_on_c, 0, 91, 48
3, 577963, Note_on_c, 0, 52, 25
3, 577964, Note_on_c, 0, 57, 50
3, 578080, Note_on_c, 0, 52, 0
3, 578088, Note_on_c, 0, 62, 0
3, 578128, Note_on_c, 0, 57, 0
3, 578190, Note_on_c, 0, 91, 0
3, 578255, Note_on_c, 0, 98, 58
3, 578411, Note_on_c, 0, 98, 0
3, 578438, Note_on_c, 0, 91, 55
3, 578580, Note_on_c, 0, 91, 0
3, 578740, Note_on_c, 0, 91, 47
3, 578839, Note_on_c, 0, 91, 0
3, 578933, Note_on_c, 0, 64, 34
3, 578933, Note_on_c, 0, 91, 50
3, 578949, Note_on_c, 0, 60, 28
3, 578987, Note_on_c, 0, 59, 28
3, 579093, Note_on_c, 0, 64, 0
3, 579124, Note_on_c, 0, 60, 0
3, 579156, Note_on_c, 0, 59, 0
3, 579179, Note_on_c, 0, 91, 0
3, 579198, Note_on_c, 0, 90, 42
3, 579333, Note_on_c, 0, 90, 0
3, 579409, Note_on_c, 0, 91, 40
3, 579481, Note_on_c, 0, 91, 0
3, 579646, Note_on_c, 0, 103, 72
3, 579778, Note_on_c, 0, 103, 0
3, 579854, Note_on_c, 0, 63, 46
3, 579878, Note_on_c, 0, 59, 35
3, 579898, Note_on_c, 0, 53, 25
3, 579911, Note_on_c, 0, 91, 42
3, 579959, Note_on_c, 0, 63, 0
3, 579984, Note_on_c, 0, 59, 0
3, 580017, Note_on_c, 0, 91, 0
3, 580033, Note_on_c, 0, 53, 0
3, 580177, Note_on_c, 0, 91, 57
3, 580276, Note_on_c, 0, 91, 0
3, 580360, Note_on_c, 0, 91, 55
3, 580574, Note_on_c, 0, 91, 0
3, 580596, Note_on_c, 0, 90, 51
3, 580728, Note_on_c, 0, 90, 0
3, 580807, Note_on_c, 0, 91, 43
3, 580808, Note_on_c, 0, 37, 32
3, 580811, Note_on_c, 0, 44, 34
3, 580898, Note_on_c, 0, 91, 0
3, 580921, Note_on_c, 0, 37, 0
3, 580965, Note_on_c, 0, 44, 0
3, 581076, Note_on_c, 0, 101, 60
3, 581189, Note_on_c, 0, 101, 0
3, 581296, Note_on_c, 0, 91, 64
3, 581422, Note_on_c, 0, 91, 0
3, 581556, Note_on_c, 0, 90, 48
3, 581669, Note_on_c, 0, 90, 0
3, 581768, Note_on_c, 0, 63, 49
3, 581770, Note_on_c, 0, 91, 53
3, 581797, Note_on_c, 0, 59, 31
3, 581813, Note_on_c, 0, 63, 0
3, 581858, Note_on_c, 0, 91, 0
3, 581870, Note_on_c, 0, 59, 0
3, 582027, Note_on_c, 0, 101, 57
3, 582136, Note_on_c, 0, 101, 0
3, 582238, Note_on_c, 0, 91, 65
3, 582355, Note_on_c, 0, 91, 0
3, 582462, Note_on_c, 0, 90, 50
3, 582590, Note_on_c, 0, 90, 0
3, 582667, Note_on_c, 0, 91, 60
3, 582718, Note_on_c, 0, 44, 35
3, 582728, Note_on_c, 0, 37, 32
3, 582743, Note_on_c, 0, 91, 0
3, 582863, Note_on_c, 0, 37, 0
3, 582867, Note_on_c, 0, 44, 0
3, 582931, Note_on_c, 0, 103, 70
3, 583032, Note_on_c, 0, 103, 0
3, 583174, Note_on_c, 0, 93, 32
3, 583310, Note_on_c, 0, 93, 0
3, 583411, Note_on_c, 0, 90, 37
3, 583504, Note_on_c, 0, 90, 0
3, 583623, Note_on_c, 0, 36, 36
3, 583631, Note_on_c, 0, 43, 30
3, 583669, Note_on_c, 0, 52, 28
3, 583677, Note_on_c, 0, 103, 49
3, 583731, Note_on_c, 0, 103, 0
3, 583751, Note_on_c, 0, 36, 0
3, 583806, Note_on_c, 0, 43, 0
3, 583924, Note_on_c, 0, 52, 0
3, 584153, Note_on_c, 0, 103, 80
3, 584186, Note_on_c, 0, 101, 36
3, 584249, Note_on_c, 0, 101, 0
3, 584330, Note_on_c, 0, 103, 0
3, 584412, Note_on_c, 0, 102, 74
3, 584559, Note_on_c, 0, 102, 0
3, 584587, Note_on_c, 0, 101, 31
3, 584640, Note_on_c, 0, 62, 36
3, 584650, Note_on_c, 0, 58, 47
3, 584657, Note_on_c, 0, 100, 35
3, 584697, Note_on_c, 0, 57, 28
3, 584720, Note_on_c, 0, 53, 22
3, 584737, Note_on_c, 0, 101, 0
3, 584970, Note_on_c, 0, 100, 0
3, 585079, Note_on_c, 0, 62, 0
3, 585102, Note_on_c, 0, 57, 0
3, 585104, Note_on_c, 0, 98, 64
3, 585127, Note_on_c, 0, 58, 0
3, 585131, Note_on_c, 0, 53, 0
3, 585374, Note_on_c, 0, 98, 0
3, 585382, Control_c, 0, 64, 127
3, 585510, Control_c, 0, 64, 0
3, 585571, Note_on_c, 0, 100, 83
3, 585585, Note_on_c, 0, 48, 46
3, 585593, Note_on_c, 0, 58, 49
3, 585792, Control_c, 0, 64, 127
3, 585886, Note_on_c, 0, 48, 0
3, 586023, Note_on_c, 0, 58, 0
3, 586035, Note_on_c, 0, 100, 0
3, 586092, Note_on_c, 0, 99, 81
3, 586370, Note_on_c, 0, 97, 60
3, 586453, Note_on_c, 0, 99, 0
3, 586575, Control_c, 0, 64, 0
3, 586584, Note_on_c, 0, 96, 62
3, 586589, Note_on_c, 0, 97, 0
3, 586612, Note_on_c, 0, 61, 38
3, 586621, Note_on_c, 0, 64, 49
3, 586644, Note_on_c, 0, 58, 38
3, 586744, Note_on_c, 0, 96, 0
3, 586859, Note_on_c, 0, 94, 63
3, 586986, Control_c, 0, 64, 127
3, 586987, Note_on_c, 0, 94, 0
3, 587105, Note_on_c, 0, 93, 48
3, 587237, Note_on_c, 0, 93, 0
3, 587325, Note_on_c, 0, 64, 0
3, 587331, Note_on_c, 0, 91, 64
3, 587397, Note_on_c, 0, 58, 0
3, 587438, Note_on_c, 0, 61, 0
3, 587470, Note_on_c, 0, 91, 0
3, 587536, Control_c, 0, 64, 0
3, 587566, Note_on_c, 0, 92, 65
3, 587578, Note_on_c, 0, 60, 29
3, 587584, Note_on_c, 0, 56, 30
3, 587592, Note_on_c, 0, 53, 24
3, 587804, Note_on_c, 0, 92, 0
3, 587855, Note_on_c, 0, 89, 35
3, 587952, Note_on_c, 0, 89, 0
3, 588000, Control_c, 0, 64, 127
3, 588061, Note_on_c, 0, 91, 66
3, 588249, Note_on_c, 0, 91, 0
3, 588353, Note_on_c, 0, 88, 29
3, 588460, Control_c, 0, 64, 0
3, 588462, Note_on_c, 0, 88, 0
3, 588555, Note_on_c, 0, 63, 46
3, 588559, Note_on_c, 0, 90, 70
3, 588791, Note_on_c, 0, 63, 0
3, 588807, Control_c, 0, 64, 127
3, 588812, Note_on_c, 0, 90, 0
3, 588843, Note_on_c, 0, 60, 0
3, 588917, Note_on_c, 0, 53, 0
3, 589006, Note_on_c, 0, 89, 54
3, 589011, Note_on_c, 0, 56, 0
3, 589196, Note_on_c, 0, 89, 0
3, 589322, Note_on_c, 0, 87, 42
3, 589423, Control_c, 0, 64, 0
3, 589466, Note_on_c, 0, 87, 0
3, 589502, Note_on_c, 0, 80, 37
3, 589507, Note_on_c, 0, 67, 37
3, 589536, Note_on_c, 0, 63, 25
3, 589569, Note_on_c, 0, 60, 24
3, 589573, Note_on_c, 0, 56, 30
3, 589653, Control_c, 0, 64, 127
3, 589768, Note_on_c, 0, 80, 0
3, 589862, Note_on_c, 0, 67, 0
3, 589908, Note_on_c, 0, 60, 0
3, 589926, Note_on_c, 0, 63, 0
3, 589973, Note_on_c, 0, 56, 0
3, 590462, Control_c, 0, 64, 0
3, 590469, Note_on_c, 0, 63, 43
3, 590503, Note_on_c, 0, 60, 37
3, 590507, Note_on_c, 0, 56, 44
3, 590617, Control_c, 0, 64, 127
3, 590781, Note_on_c, 0, 63, 0
3, 591046, Note_on_c, 0, 53, 42
3, 591048, Note_on_c, 0, 60, 0
3, 591138, Note_on_c, 0, 56, 0
3, 591189, Note_on_c, 0, 53, 0
3, 591322, Control_c, 0, 64, 0
3, 591420, Note_on_c, 0, 67, 49
3, 591429, Note_on_c, 0, 52, 37
3, 591434, Note_on_c, 0, 62, 48
3, 591445, Note_on_c, 0, 59, 46
3, 591567, Control_c, 0, 64, 127
3, 591642, Note_on_c, 0, 52, 0
3, 591659, Note_on_c, 0, 67, 0
3, 591715, Note_on_c, 0, 62, 0
3, 591736, Note_on_c, 0, 59, 0
3, 592015, Note_on_c, 0, 51, 55
3, 592026, Note_on_c, 0, 61, 52
3, 592039, Note_on_c, 0, 66, 52
3, 592044, Note_on_c, 0, 58, 50
3, 592066, Control_c, 0, 64, 0
3, 592294, Note_on_c, 0, 58, 0
3, 592307, Note_on_c, 0, 66, 0
3, 592332, Note_on_c, 0, 61, 0
3, 592350, Note_on_c, 0, 51, 0
3, 592382, Note_on_c, 0, 52, 63
3, 592391, Note_on_c, 0, 67, 66
3, 592398, Note_on_c, 0, 59, 68
3, 592401, Note_on_c, 0, 62, 63
3, 592464, Control_c, 0, 64, 127
3, 592593, Note_on_c, 0, 59, 0
3, 592606, Note_on_c, 0, 52, 0
3, 592627, Note_on_c, 0, 67, 0
3, 592632, Note_on_c, 0, 62, 0
3, 593006, Note_on_c, 0, 74, 77
3, 593012, Note_on_c, 0, 63, 78
3, 593018, Note_on_c, 0, 67, 69
3, 593020, Note_on_c, 0, 69, 68
3, 593026, Note_on_c, 0, 60, 62
3, 593036, Note_on_c, 0, 62, 71
3, 593054, Control_c, 0, 64, 0
3, 593258, Note_on_c, 0, 60, 0
3, 593606, Control_c, 0, 64, 127
3, 593720, Note_on_c, 0, 63, 0
3, 593774, Note_on_c, 0, 67, 0
3, 593779, Note_on_c, 0, 69, 0
3, 593784, Note_on_c, 0, 74, 0
3, 593803, Note_on_c, 0, 62, 0
3, 593824, Control_c, 0, 64, 0
3, 593894, Note_on_c, 0, 60, 28
3, 593930, Note_on_c, 0, 74, 57
3, 593937, Note_on_c, 0, 63, 62
3, 593945, Note_on_c, 0, 67, 57
3, 593946, Note_on_c, 0, 62, 58
3, 593972, Note_on_c, 0, 69, 35
3, 594004, Control_c, 0, 64, 127
3, 594017, Note_on_c, 0, 60, 0
3, 594343, Note_on_c, 0, 63, 0
3, 594394, Note_on_c, 0, 67, 0
3, 594400, Note_on_c, 0, 74, 0
3, 594414, Control_c, 0, 64, 0
3, 594437, Note_on_c, 0, 62, 0
3, 594451, Note_on_c, 0, 69, 0
3, 594543, Control_c, 0, 64, 127
3, 594553, Note_on_c, 0, 63, 60
3, 594556, Note_on_c, 0, 72, 58
3, 594561, Note_on_c, 0, 60, 45
3, 594581, Note_on_c, 0, 67, 35
3, 594670, Note_on_c, 0, 60, 0
3, 594711, Note_on_c, 0, 63, 0
3, 594714, Note_on_c, 0, 67, 0
3, 594773, Note_on_c, 0, 72, 0
3, 595107, Control_c, 0, 64, 0
3, 595170, Note_on_c, 0, 76, 48
3, 595188, Note_on_c, 0, 71, 47
3, 595191, Note_on_c, 0, 64, 44
3, 595198, Note_on_c, 0, 68, 34
3, 595210, Note_on_c, 0, 60, 27
3, 595225, Note_on_c, 0, 54, 28
3, 595338, Control_c, 0, 64, 127
3, 595767, Note_on_c, 0, 64, 0
3, 595782, Note_on_c, 0, 71, 0
3, 595878, Note_on_c, 0, 68, 0
3, 595929, Note_on_c, 0, 60, 0
3, 596058, Note_on_c, 0, 76, 0
3, 596134, Control_c, 0, 64, 0
3, 596218, Note_on_c, 0, 54, 0
3, 596221, Note_on_c, 0, 72, 51
3, 596230, Note_on_c, 0, 60, 39
3, 596243, Note_on_c, 0, 69, 44
3, 596250, Note_on_c, 0, 65, 24
3, 596390, Control_c, 0, 64, 127
3, 596593, Note_on_c, 0, 72, 0
3, 596624, Note_on_c, 0, 69, 0
3, 596659, Note_on_c, 0, 60, 0
3, 596666, Note_on_c, 0, 65, 0
3, 596788, Control_c, 0, 64, 0
3, 596878, Control_c, 0, 64, 127
3, 597121, Control_c, 0, 64, 0
3, 597166, Note_on_c, 0, 55, 30
3, 597200, Note_on_c, 0, 59, 17
3, 597201, Note_on_c, 0, 64, 24
3, 597204, Note_on_c, 0, 67, 29
3, 597429, Control_c, 0, 64, 127
3, 597662, Note_on_c, 0, 59, 0
3, 597676, Note_on_c, 0, 64, 0
3, 597807, Note_on_c, 0, 55, 0
3, 597921, Note_on_c, 0, 67, 0
3, 598096, Control_c, 0, 64, 0
3, 598149, Note_on_c, 0, 59, 29
3, 598158, Note_on_c, 0, 63, 32
3, 598161, Note_on_c, 0, 43, 24
3, 598174, Note_on_c, 0, 65, 37
3, 598197, Note_on_c, 0, 53, 19
3, 598263, Control_c, 0, 64, 127
3, 598336, Note_on_c, 0, 43, 0
3, 598525, Note_on_c, 0, 53, 0
3, 598638, Note_on_c, 0, 59, 0
3, 598744, Note_on_c, 0, 65, 0
3, 598862, Note_on_c, 0, 63, 0
3, 599146, Note_on_c, 0, 43, 27
3, 599152, Note_on_c, 0, 57, 32
3, 599161, Control_c, 0, 64, 0
3, 599162, Note_on_c, 0, 64, 34
3, 599165, Note_on_c, 0, 52, 26
3, 599176, Note_on_c, 0, 62, 28
3, 599184, Note_on_c, 0, 36, 17
3, 599328, Control_c, 0, 64, 127
3, 599449, Note_on_c, 0, 36, 0
3, 599503, Note_on_c, 0, 64, 0
3, 599508, Note_on_c, 0, 62, 0
3, 599517, Note_on_c, 0, 43, 0
3, 599585, Note_on_c, 0, 52, 0
3, 599610, Note_on_c, 0, 57, 0
3, 600034, Control_c, 0, 64, 0
3, 600088, Note_on_c, 0, 65, 46
3, 600093, Note_on_c, 0, 55, 34
3, 600099, Note_on_c, 0, 46, 27
3, 600106, Note_on_c, 0, 60, 42
3, 600252, Control_c, 0, 64, 127
3, 600462, Note_on_c, 0, 65, 0
3, 600518, Note_on_c, 0, 55, 0
3, 600554, Note_on_c, 0, 60, 0
3, 600761, Note_on_c, 0, 46, 0
3, 600919, Control_c, 0, 64, 0
3, 600967, Note_on_c, 0, 61, 37
3, 600970, Note_on_c, 0, 66, 42
3, 600976, Note_on_c, 0, 56, 36
3, 600986, Note_on_c, 0, 47, 34
3, 601112, Control_c, 0, 64, 127
3, 601474, Note_on_c, 0, 56, 0
3, 601573, Note_on_c, 0, 61, 0
3, 601575, Note_on_c, 0, 66, 0
3, 601843, Control_c, 0, 64, 0
3, 601888, Note_on_c, 0, 67, 61
3, 601899, Note_on_c, 0, 57, 60
3, 601913, Note_on_c, 0, 62, 57
3, 601916, Note_on_c, 0, 48, 51
3, 601917, Note_on_c, 0, 47, 0
3, 601996, Control_c, 0, 64, 127
3, 602191, Note_on_c, 0, 48, 0
3, 602368, Note_on_c, 0, 57, 0
3, 602371, Note_on_c, 0, 67, 0
3, 602566, Note_on_c, 0, 62, 0
3, 602672, Note_on_c, 0, 52, 24
3, 602694, Note_on_c, 0, 53, 24
3, 602726, Note_on_c, 0, 54, 36
3, 602754, Note_on_c, 0, 55, 68
3, 602792, Note_on_c, 0, 52, 0
3, 602798, Note_on_c, 0, 53, 0
3, 602814, Note_on_c, 0, 54, 0
3, 602849, Note_on_c, 0, 69, 74
3, 602851, Note_on_c, 0, 58, 77
3, 602854, Note_on_c, 0, 62, 71
3, 602858, Control_c, 0, 64, 0
3, 602864, Note_on_c, 0, 64, 66
3, 602865, Note_on_c, 0, 57, 92
3, 602929, Note_on_c, 0, 55, 0
3, 603330, Control_c, 0, 64, 127
3, 603549, Note_on_c, 0, 62, 0
3, 603557, Note_on_c, 0, 58, 0
3, 603618, Note_on_c, 0, 69, 0
3, 603624, Note_on_c, 0, 64, 0
3, 603806, Note_on_c, 0, 58, 69
3, 603808, Note_on_c, 0, 67, 55
3, 603828, Note_on_c, 0, 55, 45
3, 603829, Note_on_c, 0, 64, 50
3, 603832, Note_on_c, 0, 62, 44
3, 603873, Note_on_c, 0, 57, 0
3, 604020, Note_on_c, 0, 55, 0
3, 604107, Note_on_c, 0, 58, 0
3, 604224, Note_on_c, 0, 62, 0
3, 604229, Note_on_c, 0, 64, 0
3, 604259, Note_on_c, 0, 67, 0
3, 604733, Control_c, 0, 64, 0
3, 604746, Note_on_c, 0, 70, 46
3, 604759, Note_on_c, 0, 61, 45
3, 604765, Note_on_c, 0, 66, 52
3, 604783, Note_on_c, 0, 55, 36
3, 605002, Control_c, 0, 64, 127
3, 605374, Note_on_c, 0, 61, 0
3, 605706, Note_on_c, 0, 45, 51
3, 605816, Note_on_c, 0, 55, 0
3, 605858, Note_on_c, 0, 45, 0
3, 606004, Note_on_c, 0, 70, 0
3, 606112, Note_on_c, 0, 66, 0
3, 606213, Note_on_c, 0, 69, 60
3, 606316, Note_on_c, 0, 69, 0
3, 606684, Note_on_c, 0, 74, 64
3, 606690, Note_on_c, 0, 69, 66
3, 606691, Note_on_c, 0, 65, 65
3, 606696, Control_c, 0, 64, 0
3, 607178, Note_on_c, 0, 64, 91
3, 607312, Control_c, 0, 64, 127
3, 607407, Note_on_c, 0, 74, 0
3, 607539, Note_on_c, 0, 65, 0
3, 607572, Note_on_c, 0, 69, 0
3, 607594, Control_c, 0, 64, 0
3, 607672, Note_on_c, 0, 76, 68
3, 607681, Note_on_c, 0, 69, 62
3, 607690, Note_on_c, 0, 65, 71
3, 607706, Note_on_c, 0, 62, 68
3, 607742, Note_on_c, 0, 64, 0
3, 607875, Control_c, 0, 64, 127
3, 608067, Control_c, 0, 64, 0
3, 608202, Note_on_c, 0, 61, 63
3, 608235, Control_c, 0, 64, 127
3, 608257, Note_on_c, 0, 76, 0
3, 608259, Note_on_c, 0, 62, 0
3, 608487, Note_on_c, 0, 65, 0
3, 608563, Note_on_c, 0, 69, 0
3, 608646, Control_c, 0, 64, 0
3, 608675, Note_on_c, 0, 77, 59
3, 608679, Note_on_c, 0, 69, 36
3, 608687, Note_on_c, 0, 65, 60
3, 608693, Note_on_c, 0, 61, 0
3, 608701, Note_on_c, 0, 60, 58
3, 608707, Note_on_c, 0, 72, 40
3, 608821, Note_on_c, 0, 65, 0
3, 608889, Control_c, 0, 64, 127
3, 608890, Note_on_c, 0, 69, 0
3, 608915, Note_on_c, 0, 72, 0
3, 608936, Note_on_c, 0, 77, 0
3, 609146, Control_c, 0, 64, 0
3, 609199, Note_on_c, 0, 81, 60
3, 609207, Note_on_c, 0, 50, 48
3, 609300, Control_c, 0, 64, 127
3, 609352, Note_on_c, 0, 50, 0
3, 609423, Note_on_c, 0, 60, 0
3, 609546, Note_on_c, 0, 81, 0
3, 609660, Control_c, 0, 64, 0
3, 609716, Note_on_c, 0, 81, 38
3, 609719, Note_on_c, 0, 64, 49
3, 609721, Note_on_c, 0, 71, 48
3, 609733, Note_on_c, 0, 53, 24
3, 609735, Note_on_c, 0, 76, 54
3, 609744, Note_on_c, 0, 59, 46
3, 609916, Control_c, 0, 64, 127
3, 610233, Note_on_c, 0, 81, 0
3, 610255, Note_on_c, 0, 71, 0
3, 610257, Note_on_c, 0, 76, 0
3, 610368, Note_on_c, 0, 64, 0
3, 610517, Note_on_c, 0, 53, 0
3, 610661, Note_on_c, 0, 75, 57
3, 610679, Note_on_c, 0, 67, 43
3, 610682, Note_on_c, 0, 63, 57
3, 610685, Note_on_c, 0, 71, 41
3, 610699, Control_c, 0, 64, 0
3, 610704, Note_on_c, 0, 59, 0
3, 611019, Control_c, 0, 64, 127
3, 611141, Note_on_c, 0, 63, 0
3, 611212, Note_on_c, 0, 62, 41
3, 611636, Control_c, 0, 64, 0
3, 611676, Note_on_c, 0, 61, 48
3, 611705, Note_on_c, 0, 62, 0
3, 611828, Control_c, 0, 64, 127
3, 611866, Note_on_c, 0, 71, 0
3, 611907, Note_on_c, 0, 67, 0
3, 612111, Note_on_c, 0, 61, 0
3, 612138, Note_on_c, 0, 60, 45
3, 612140, Note_on_c, 0, 77, 49
3, 612156, Note_on_c, 0, 71, 33
3, 612161, Note_on_c, 0, 67, 28
3, 612272, Note_on_c, 0, 77, 0
3, 612318, Note_on_c, 0, 71, 0
3, 612364, Note_on_c, 0, 75, 0
3, 612409, Note_on_c, 0, 67, 0
3, 612481, Control_c, 0, 64, 0
3, 612595, Note_on_c, 0, 60, 0
3, 612611, Note_on_c, 0, 79, 42
3, 612613, Note_on_c, 0, 71, 46
3, 612618, Note_on_c, 0, 75, 37
3, 612623, Note_on_c, 0, 67, 29
3, 612624, Note_on_c, 0, 59, 42
3, 612661, Control_c, 0, 64, 127
3, 612834, Note_on_c, 0, 79, 0
3, 612903, Note_on_c, 0, 71, 0
3, 612920, Note_on_c, 0, 75, 0
3, 612985, Note_on_c, 0, 59, 0
3, 612994, Note_on_c, 0, 67, 0
3, 613126, Note_on_c, 0, 53, 19
3, 613198, Note_on_c, 0, 53, 0
3, 613496, Control_c, 0, 64, 0
3, 613539, Note_on_c, 0, 70, 42
3, 613557, Note_on_c, 0, 63, 45
3, 613568, Note_on_c, 0, 59, 30
3, 613601, Note_on_c, 0, 67, 32
3, 613603, Note_on_c, 0, 53, 30
3, 613726, Control_c, 0, 64, 127
3, 613900, Note_on_c, 0, 67, 0
3, 614035, Note_on_c, 0, 59, 0
3, 614037, Note_on_c, 0, 43, 24
3, 614058, Note_on_c, 0, 53, 0
3, 614059, Note_on_c, 0, 70, 0
3, 614105, Note_on_c, 0, 43, 0
3, 614127, Note_on_c, 0, 63, 0
3, 614510, Control_c, 0, 64, 0
3, 614526, Note_on_c, 0, 67, 39
3, 614539, Note_on_c, 0, 57, 34
3, 614544, Note_on_c, 0, 62, 36
3, 614570, Note_on_c, 0, 36, 36
3, 614804, Control_c, 0, 64, 127
3, 615004, Note_on_c, 0, 43, 32
3, 615205, Note_on_c, 0, 62, 0
3, 615330, Note_on_c, 0, 57, 0
3, 615513, Note_on_c, 0, 52, 36
3, 615825, Note_on_c, 0, 36, 0
3, 615961, Note_on_c, 0, 67, 0
3, 615973, Note_on_c, 0, 57, 51
3, 615982, Note_on_c, 0, 52, 0
3, 616028, Note_on_c, 0, 43, 0
3, 616074, Note_on_c, 0, 57, 0
3, 616382, Control_c, 0, 64, 0
3, 616455, Note_on_c, 0, 43, 33
3, 616467, Note_on_c, 0, 60, 39
3, 616473, Note_on_c, 0, 53, 20
3, 616481, Note_on_c, 0, 57, 32
3, 616661, Note_on_c, 0, 53, 0
3, 616668, Note_on_c, 0, 60, 0
3, 616677, Note_on_c, 0, 57, 0
3, 616725, Note_on_c, 0, 43, 0
3, 616773, Note_on_c, 0, 53, 35
3, 616784, Note_on_c, 0, 43, 24
3, 616796, Note_on_c, 0, 57, 27
3, 616798, Note_on_c, 0, 60, 30
3, 616847, Note_on_c, 0, 53, 0
3, 616879, Note_on_c, 0, 57, 0
3, 616880, Note_on_c, 0, 60, 0
3, 616884, Note_on_c, 0, 43, 0
3, 617199, Note_on_c, 0, 43, 34
3, 617210, Note_on_c, 0, 53, 28
3, 617219, Note_on_c, 0, 57, 33
3, 617224, Note_on_c, 0, 60, 34
3, 617669, Note_on_c, 0, 53, 0
3, 617688, Note_on_c, 0, 43, 0
3, 617693, Note_on_c, 0, 57, 0
3, 617699, Note_on_c, 0, 60, 0
3, 617856, Note_on_c, 0, 53, 36
3, 617858, Note_on_c, 0, 60, 40
3, 617871, Note_on_c, 0, 43, 32
3, 617873, Note_on_c, 0, 57, 39
3, 618017, Note_on_c, 0, 53, 0
3, 618033, Note_on_c, 0, 43, 0
3, 618055, Note_on_c, 0, 57, 0
3, 618067, Note_on_c, 0, 60, 0
3, 618151, Note_on_c, 0, 53, 41
3, 618155, Note_on_c, 0, 43, 27
3, 618172, Note_on_c, 0, 60, 36
3, 618178, Note_on_c, 0, 57, 36
3, 618231, Note_on_c, 0, 53, 0
3, 618245, Note_on_c, 0, 57, 0
3, 618273, Note_on_c, 0, 43, 0
3, 618318, Note_on_c, 0, 60, 0
3, 618673, Note_on_c, 0, 55, 53
3, 618680, Note_on_c, 0, 62, 61
3, 618685, Note_on_c, 0, 59, 54
3, 618704, Note_on_c, 0, 43, 40
3, 619240, Note_on_c, 0, 55, 0
3, 619261, Note_on_c, 0, 43, 0
3, 619267, Note_on_c, 0, 59, 0
3, 619280, Note_on_c, 0, 62, 0
3, 619352, Note_on_c, 0, 43, 46
3, 619360, Note_on_c, 0, 55, 36
3, 619384, Note_on_c, 0, 59, 48
3, 619392, Note_on_c, 0, 62, 41
3, 619527, Note_on_c, 0, 55, 0
3, 619549, Note_on_c, 0, 62, 0
3, 619553, Note_on_c, 0, 59, 0
3, 619568, Note_on_c, 0, 43, 0
3, 619658, Note_on_c, 0, 55, 33
3, 619664, Note_on_c, 0, 59, 47
3, 619669, Note_on_c, 0, 62, 45
3, 619671, Note_on_c, 0, 43, 37
3, 619720, Note_on_c, 0, 55, 0
3, 619722, Note_on_c, 0, 62, 0
3, 619741, Note_on_c, 0, 59, 0
3, 619776, Note_on_c, 0, 43, 0
3, 620085, Note_on_c, 0, 62, 53
3, 620092, Note_on_c, 0, 55, 41
3, 620093, Note_on_c, 0, 43, 44
3, 620111, Note_on_c, 0, 59, 42
3, 620346, Control_c, 0, 64, 127
3, 620614, Note_on_c, 0, 55, 0
3, 620646, Note_on_c, 0, 43, 0
3, 620693, Note_on_c, 0, 62, 0
3, 620737, Note_on_c, 0, 59, 0
3, 620746, Control_c, 0, 64, 0
3, 620780, Note_on_c, 0, 43, 30
3, 620797, Note_on_c, 0, 64, 48
3, 620798, Note_on_c, 0, 57, 48
3, 620801, Note_on_c, 0, 60, 55
3, 620990, Note_on_c, 0, 64, 0
3, 621013, Note_on_c, 0, 43, 0
3, 621013, Note_on_c, 0, 60, 0
3, 621027, Note_on_c, 0, 57, 0
3, 621094, Note_on_c, 0, 57, 35
3, 621105, Note_on_c, 0, 43, 44
3, 621109, Note_on_c, 0, 64, 51
3, 621121, Note_on_c, 0, 60, 51
3, 621198, Note_on_c, 0, 57, 0
3, 621214, Note_on_c, 0, 60, 0
3, 621230, Note_on_c, 0, 64, 0
3, 621236, Note_on_c, 0, 43, 0
3, 621541, Note_on_c, 0, 64, 63
3, 621544, Note_on_c, 0, 57, 64
3, 621556, Note_on_c, 0, 60, 48
3, 621570, Note_on_c, 0, 43, 50
3, 621694, Control_c, 0, 64, 127
3, 621822, Note_on_c, 0, 57, 0
3, 621864, Note_on_c, 0, 43, 0
3, 621893, Note_on_c, 0, 64, 0
3, 621935, Note_on_c, 0, 60, 0
3, 621963, Note_on_c, 0, 43, 39
3, 622014, Control_c, 0, 64, 0
3, 622112, Note_on_c, 0, 43, 0
3, 622131, Note_on_c, 0, 60, 58
3, 622141, Note_on_c, 0, 52, 54
3, 622144, Note_on_c, 0, 57, 64
3, 622159, Note_on_c, 0, 42, 55
3, 622220, Control_c, 0, 64, 127
3, 622375, Note_on_c, 0, 52, 0
3, 622424, Note_on_c, 0, 42, 0
3, 622494, Note_on_c, 0, 57, 0
3, 622579, Note_on_c, 0, 60, 0
3, 623027, Note_on_c, 0, 66, 63
3, 623031, Note_on_c, 0, 69, 71
3, 623046, Note_on_c, 0, 54, 53
3, 623048, Note_on_c, 0, 60, 51
3, 623052, Note_on_c, 0, 64, 59
3, 623182, Note_on_c, 0, 64, 0
3, 623256, Note_on_c, 0, 66, 0
3, 623258, Note_on_c, 0, 60, 0
3, 623289, Note_on_c, 0, 54, 0
3, 623297, Note_on_c, 0, 69, 0
3, 623325, Note_on_c, 0, 71, 62
3, 623333, Note_on_c, 0, 67, 53
3, 623490, Note_on_c, 0, 67, 0
3, 623499, Note_on_c, 0, 71, 0
3, 623550, Note_on_c, 0, 69, 75
3, 623562, Note_on_c, 0, 72, 66
3, 623576, Note_on_c, 0, 71, 49
3, 623595, Note_on_c, 0, 67, 38
3, 623649, Note_on_c, 0, 67, 0
3, 623918, Note_on_c, 0, 72, 0
3, 623942, Note_on_c, 0, 69, 0
3, 623944, Note_on_c, 0, 71, 0
3, 623991, Control_c, 0, 64, 0
3, 624024, Note_on_c, 0, 69, 63
3, 624032, Note_on_c, 0, 57, 58
3, 624033, Note_on_c, 0, 72, 47
3, 624037, Note_on_c, 0, 47, 44
3, 624247, Control_c, 0, 64, 127
3, 624643, Note_on_c, 0, 57, 0
3, 625022, Note_on_c, 0, 57, 40
3, 625177, Note_on_c, 0, 47, 0
3, 625356, Note_on_c, 0, 57, 0
3, 625529, Note_on_c, 0, 69, 0
3, 625543, Note_on_c, 0, 72, 0
3, 625626, Note_on_c, 0, 71, 47
3, 625632, Note_on_c, 0, 67, 50
3, 625783, Note_on_c, 0, 67, 0
3, 625948, Note_on_c, 0, 71, 0
3, 626018, Control_c, 0, 64, 0
3, 626019, Note_on_c, 0, 63, 60
3, 626036, Note_on_c, 0, 69, 48
3, 626044, Note_on_c, 0, 66, 50
3, 626062, Note_on_c, 0, 57, 30
3, 626074, Note_on_c, 0, 51, 28
3, 626287, Control_c, 0, 64, 127
3, 626616, Note_on_c, 0, 57, 0
3, 626691, Note_on_c, 0, 66, 0
3, 626718, Note_on_c, 0, 63, 0
3, 626928, Control_c, 0, 64, 0
3, 626947, Note_on_c, 0, 69, 0
3, 626984, Note_on_c, 0, 63, 50
3, 626986, Note_on_c, 0, 67, 55
3, 626987, Note_on_c, 0, 51, 0
3, 626996, Note_on_c, 0, 57, 37
3, 627004, Note_on_c, 0, 47, 35
3, 627185, Control_c, 0, 64, 127
3, 627328, Note_on_c, 0, 63, 0
3, 627338, Note_on_c, 0, 67, 0
3, 627426, Note_on_c, 0, 57, 0
3, 627827, Control_c, 0, 64, 0
3, 627900, Note_on_c, 0, 66, 46
3, 627911, Note_on_c, 0, 64, 51
3, 627927, Note_on_c, 0, 59, 36
3, 627929, Note_on_c, 0, 57, 24
3, 627964, Note_on_c, 0, 51, 25
3, 628032, Note_on_c, 0, 57, 0
3, 628047, Note_on_c, 0, 51, 0
3, 628058, Control_c, 0, 64, 127
3, 628070, Note_on_c, 0, 47, 0
3, 628166, Note_on_c, 0, 59, 0
3, 628220, Note_on_c, 0, 66, 0
3, 628254, Note_on_c, 0, 64, 0
3, 628537, Note_on_c, 0, 41, 34
3, 628689, Note_on_c, 0, 48, 40
3, 628750, Note_on_c, 0, 63, 42
3, 628775, Control_c, 0, 64, 0
3, 628778, Note_on_c, 0, 57, 59
3, 628801, Note_on_c, 0, 67, 51
3, 628837, Note_on_c, 0, 71, 60
3, 628869, Note_on_c, 0, 74, 58
3, 629045, Control_c, 0, 64, 127
3, 629241, Note_on_c, 0, 74, 0
3, 629267, Note_on_c, 0, 48, 0
3, 629267, Note_on_c, 0, 57, 0
3, 629276, Note_on_c, 0, 41, 0
3, 629296, Note_on_c, 0, 71, 0
3, 629354, Note_on_c, 0, 72, 63
3, 629459, Note_on_c, 0, 63, 0
3, 629509, Note_on_c, 0, 67, 0
3, 629606, Note_on_c, 0, 72, 0
3, 629765, Control_c, 0, 64, 0
3, 629792, Note_on_c, 0, 47, 32
3, 629822, Note_on_c, 0, 71, 39
3, 629827, Note_on_c, 0, 40, 32
3, 629832, Note_on_c, 0, 62, 36
3, 629849, Note_on_c, 0, 55, 25
3, 629862, Note_on_c, 0, 67, 30
3, 629944, Control_c, 0, 64, 127
3, 630106, Note_on_c, 0, 40, 0
3, 630142, Note_on_c, 0, 47, 0
3, 630231, Note_on_c, 0, 55, 0
3, 630251, Note_on_c, 0, 71, 0
3, 630320, Note_on_c, 0, 62, 0
3, 630373, Note_on_c, 0, 67, 0
3, 630764, Control_c, 0, 64, 0
3, 630773, Note_on_c, 0, 46, 36
3, 630777, Note_on_c, 0, 70, 50
3, 630781, Note_on_c, 0, 56, 35
3, 630786, Note_on_c, 0, 61, 46
3, 630800, Note_on_c, 0, 66, 51
3, 630969, Control_c, 0, 64, 127
3, 631178, Note_on_c, 0, 56, 0
3, 631234, Note_on_c, 0, 70, 0
3, 631242, Note_on_c, 0, 46, 0
3, 631311, Note_on_c, 0, 61, 0
3, 631331, Note_on_c, 0, 66, 0
3, 631676, Control_c, 0, 64, 0
3, 631744, Note_on_c, 0, 61, 33
3, 631750, Note_on_c, 0, 55, 32
3, 631759, Note_on_c, 0, 64, 39
3, 631769, Note_on_c, 0, 45, 31
3, 631770, Note_on_c, 0, 69, 39
3, 631880, Control_c, 0, 64, 127
3, 632166, Note_on_c, 0, 69, 0
3, 632171, Note_on_c, 0, 64, 0
3, 632232, Note_on_c, 0, 61, 0
3, 632264, Note_on_c, 0, 55, 0
3, 632596, Note_on_c, 0, 45, 0
3, 632689, Control_c, 0, 64, 0
3, 632712, Note_on_c, 0, 51, 53
3, 632715, Note_on_c, 0, 65, 57
3, 632721, Note_on_c, 0, 60, 50
3, 632725, Note_on_c, 0, 54, 36
3, 632933, Control_c, 0, 64, 127
3, 633013, Note_on_c, 0, 51, 0
3, 633086, Note_on_c, 0, 54, 0
3, 633130, Note_on_c, 0, 60, 0
3, 633140, Note_on_c, 0, 65, 0
3, 633574, Control_c, 0, 64, 0
3, 633640, Note_on_c, 0, 64, 57
3, 633644, Note_on_c, 0, 57, 57
3, 633649, Note_on_c, 0, 53, 40
3, 633656, Note_on_c, 0, 50, 36
3, 633662, Note_on_c, 0, 38, 36
3, 633662, Note_on_c, 0, 60, 45
3, 633857, Control_c, 0, 64, 127
3, 634344, Note_on_c, 0, 53, 0
3, 634346, Note_on_c, 0, 57, 0
3, 634383, Note_on_c, 0, 38, 0
3, 634392, Note_on_c, 0, 64, 0
3, 634398, Note_on_c, 0, 60, 0
3, 634516, Note_on_c, 0, 50, 0
3, 634577, Note_on_c, 0, 60, 49
3, 634585, Note_on_c, 0, 58, 59
3, 634589, Control_c, 0, 64, 0
3, 634590, Note_on_c, 0, 54, 50
3, 634597, Note_on_c, 0, 44, 60
3, 634871, Control_c, 0, 64, 127
3, 635168, Note_on_c, 0, 54, 0
3, 635226, Note_on_c, 0, 60, 0
3, 635266, Note_on_c, 0, 58, 0
3, 635439, Note_on_c, 0, 44, 0
3, 635526, Control_c, 0, 64, 0
3, 635576, Note_on_c, 0, 53, 40
3, 635581, Note_on_c, 0, 43, 34
3, 635582, Note_on_c, 0, 59, 53
3, 635600, Note_on_c, 0, 57, 44
3, 635782, Control_c, 0, 64, 127
3, 635996, Note_on_c, 0, 53, 0
3, 636005, Note_on_c, 0, 57, 0
3, 636263, Note_on_c, 0, 59, 0
3, 636448, Control_c, 0, 64, 0
3, 636522, Note_on_c, 0, 63, 48
3, 636527, Note_on_c, 0, 56, 53
3, 636536, Note_on_c, 0, 59, 48
3, 636537, Note_on_c, 0, 53, 28
3, 636623, Note_on_c, 0, 43, 0
3, 636679, Control_c, 0, 64, 127
3, 636776, Note_on_c, 0, 53, 0
3, 636872, Note_on_c, 0, 56, 0
3, 636888, Note_on_c, 0, 59, 0
3, 636963, Note_on_c, 0, 63, 0
3, 637372, Control_c, 0, 64, 0
3, 637477, Note_on_c, 0, 67, 38
3, 637492, Note_on_c, 0, 57, 35
3, 637493, Note_on_c, 0, 62, 39
3, 637502, Note_on_c, 0, 43, 22
3, 637520, Note_on_c, 0, 36, 24
3, 637523, Note_on_c, 0, 52, 22
3, 637615, Control_c, 0, 64, 127
3, 637623, Note_on_c, 0, 36, 0
3, 637639, Note_on_c, 0, 57, 0
3, 637706, Note_on_c, 0, 62, 0
3, 637721, Note_on_c, 0, 43, 0
3, 637754, Note_on_c, 0, 67, 0
3, 637817, Note_on_c, 0, 52, 0
3, 638115, Note_on_c, 0, 79, 61
3, 638287, Note_on_c, 0, 79, 0
3, 638385, Control_c, 0, 64, 0
3, 638438, Note_on_c, 0, 62, 34
3, 638452, Note_on_c, 0, 67, 33
3, 638453, Note_on_c, 0, 57, 40
3, 638520, Note_on_c, 0, 57, 0
3, 638539, Note_on_c, 0, 62, 0
3, 638565, Note_on_c, 0, 67, 0
3, 638773, Note_on_c, 0, 67, 32
3, 638848, Control_c, 0, 64, 127
3, 638909, Note_on_c, 0, 67, 0
3, 639063, Note_on_c, 0, 79, 47
3, 639147, Note_on_c, 0, 79, 0
3, 639348, Control_c, 0, 64, 0
3, 639354, Note_on_c, 0, 67, 27
3, 639367, Note_on_c, 0, 64, 32
3, 639383, Note_on_c, 0, 91, 58
3, 639404, Note_on_c, 0, 62, 19
3, 639504, Note_on_c, 0, 67, 0
3, 639505, Note_on_c, 0, 91, 0
3, 639540, Control_c, 0, 64, 127
3, 639544, Note_on_c, 0, 64, 0
3, 639608, Note_on_c, 0, 62, 0
3, 639671, Note_on_c, 0, 91, 46
3, 639909, Note_on_c, 0, 91, 0
3, 639962, Note_on_c, 0, 79, 45
3, 640052, Note_on_c, 0, 79, 0
3, 640273, Note_on_c, 0, 57, 42
3, 640275, Note_on_c, 0, 62, 28
3, 640285, Note_on_c, 0, 52, 24
3, 640382, Note_on_c, 0, 62, 0
3, 640426, Note_on_c, 0, 57, 0
3, 640432, Note_on_c, 0, 52, 0
3, 640650, Note_on_c, 0, 103, 62
3, 640800, Note_on_c, 0, 103, 0
3, 640960, Note_on_c, 0, 103, 63
3, 641195, Control_c, 0, 64, 0
3, 641213, Note_on_c, 0, 103, 0
3, 641251, Note_on_c, 0, 37, 32
3, 641267, Note_on_c, 0, 44, 25
3, 641268, Note_on_c, 0, 91, 48
3, 641441, Note_on_c, 0, 91, 0
3, 641443, Note_on_c, 0, 37, 0
3, 641465, Control_c, 0, 64, 127
3, 641483, Note_on_c, 0, 44, 0
3, 641574, Note_on_c, 0, 91, 44
3, 641742, Note_on_c, 0, 91, 0
3, 641872, Note_on_c, 0, 103, 62
3, 641971, Note_on_c, 0, 103, 0
3, 642196, Control_c, 0, 64, 0
3, 642201, Note_on_c, 0, 91, 62
3, 642209, Note_on_c, 0, 63, 34
3, 642232, Note_on_c, 0, 58, 45
3, 642245, Note_on_c, 0, 53, 24
3, 642352, Note_on_c, 0, 91, 0
3, 642520, Note_on_c, 0, 91, 55
3, 642734, Note_on_c, 0, 91, 0
3, 642798, Note_on_c, 0, 58, 0
3, 642812, Control_c, 0, 64, 127
3, 642842, Note_on_c, 0, 79, 40
3, 642918, Note_on_c, 0, 63, 0
3, 642978, Note_on_c, 0, 53, 0
3, 643185, Note_on_c, 0, 63, 28
3, 643210, Control_c, 0, 64, 0
3, 643214, Note_on_c, 0, 59, 41
3, 643453, Control_c, 0, 64, 127
3, 643673, Note_on_c, 0, 63, 0
3, 643729, Note_on_c, 0, 59, 0
3, 643934, Note_on_c, 0, 79, 0
3, 644120, Control_c, 0, 64, 0
3, 644148, Note_on_c, 0, 63, 42
3, 644185, Note_on_c, 0, 59, 32
3, 644195, Note_on_c, 0, 58, 39
3, 644211, Note_on_c, 0, 53, 17
3, 644313, Control_c, 0, 64, 127
3, 644581, Note_on_c, 0, 59, 0
3, 644647, Note_on_c, 0, 63, 0
3, 644677, Note_on_c, 0, 58, 0
3, 644872, Note_on_c, 0, 53, 0
3, 645071, Control_c, 0, 64, 0
3, 645111, Note_on_c, 0, 62, 28
3, 645113, Note_on_c, 0, 55, 29
3, 645135, Note_on_c, 0, 57, 37
3, 645136, Note_on_c, 0, 58, 34
3, 645327, Control_c, 0, 64, 127
3, 645354, Note_on_c, 0, 57, 0
3, 645355, Note_on_c, 0, 62, 0
3, 645372, Note_on_c, 0, 58, 0
3, 645432, Note_on_c, 0, 55, 0
3, 645697, Note_on_c, 0, 43, 36
3, 645994, Control_c, 0, 64, 0
3, 646109, Note_on_c, 0, 67, 60
3, 646129, Note_on_c, 0, 62, 67
3, 646136, Note_on_c, 0, 58, 67
3, 646152, Note_on_c, 0, 53, 32
3, 646187, Control_c, 0, 64, 127
3, 646208, Note_on_c, 0, 43, 0
3, 646297, Note_on_c, 0, 53, 0
3, 646330, Note_on_c, 0, 67, 0
3, 646388, Note_on_c, 0, 58, 0
3, 646452, Note_on_c, 0, 67, 57
3, 646561, Note_on_c, 0, 62, 0
3, 646613, Note_on_c, 0, 67, 0
3, 646725, Note_on_c, 0, 67, 57
3, 646833, Note_on_c, 0, 67, 0
3, 647073, Note_on_c, 0, 70, 53
3, 647084, Note_on_c, 0, 64, 56
3, 647088, Note_on_c, 0, 61, 49
3, 647097, Control_c, 0, 64, 0
3, 647109, Note_on_c, 0, 58, 39
3, 647371, Note_on_c, 0, 58, 0
3, 647481, Control_c, 0, 64, 127
3, 647493, Note_on_c, 0, 48, 49
3, 647644, Note_on_c, 0, 64, 0
3, 647653, Note_on_c, 0, 48, 0
3, 647658, Note_on_c, 0, 70, 0
3, 647777, Note_on_c, 0, 61, 0
3, 648469, Control_c, 0, 64, 0
3, 648550, Note_on_c, 0, 42, 43
3, 648558, Note_on_c, 0, 69, 48
3, 648564, Note_on_c, 0, 58, 54
3, 648565, Note_on_c, 0, 52, 31
3, 648568, Note_on_c, 0, 61, 50
3, 648577, Note_on_c, 0, 64, 53
3, 648650, Control_c, 0, 64, 127
3, 648705, Note_on_c, 0, 69, 0
3, 648725, Note_on_c, 0, 52, 0
3, 648797, Note_on_c, 0, 61, 0
3, 648798, Note_on_c, 0, 64, 0
3, 648848, Note_on_c, 0, 58, 0
3, 648935, Note_on_c, 0, 42, 0
3, 649061, Control_c, 0, 64, 0
3, 649107, Note_on_c, 0, 68, 51
3, 649108, Note_on_c, 0, 41, 40
3, 649123, Note_on_c, 0, 63, 60
3, 649127, Note_on_c, 0, 56, 61
3, 649512, Note_on_c, 0, 48, 66
3, 649521, Control_c, 0, 64, 127
3, 649804, Control_c, 0, 64, 0
3, 649816, Note_on_c, 0, 55, 64
3, 649834, Note_on_c, 0, 41, 0
3, 649893, Note_on_c, 0, 48, 0
3, 649920, Note_on_c, 0, 56, 0
3, 649958, Control_c, 0, 64, 127
3, 650112, Control_c, 0, 64, 0
3, 650149, Note_on_c, 0, 56, 73
3, 650190, Note_on_c, 0, 55, 0
3, 650219, Note_on_c, 0, 63, 0
3, 650522, Control_c, 0, 64, 127
3, 651175, Note_on_c, 0, 60, 1
3, 651219, Note_on_c, 0, 56, 0
3, 651567, Note_on_c, 0, 60, 0
3, 651883, Control_c, 0, 64, 0
3, 651914, Note_on_c, 0, 63, 37
3, 651941, Note_on_c, 0, 60, 28
3, 651952, Note_on_c, 0, 56, 32
3, 651974, Note_on_c, 0, 46, 25
3, 652049, Control_c, 0, 64, 127
3, 652151, Note_on_c, 0, 56, 0
3, 652186, Note_on_c, 0, 46, 0
3, 652423, Note_on_c, 0, 68, 0
3, 652436, Note_on_c, 0, 60, 0
3, 652794, Control_c, 0, 64, 0
3, 652800, Note_on_c, 0, 63, 0
3, 652857, Note_on_c, 0, 47, 28
3, 652858, Note_on_c, 0, 40, 25
3, 652881, Note_on_c, 0, 67, 38
3, 652885, Note_on_c, 0, 62, 37
3, 652902, Note_on_c, 0, 55, 32
3, 653009, Note_on_c, 0, 40, 0
3, 653025, Control_c, 0, 64, 127
3, 653105, Note_on_c, 0, 47, 0
3, 653199, Note_on_c, 0, 55, 0
3, 653350, Note_on_c, 0, 62, 0
3, 653408, Note_on_c, 0, 67, 0
3, 653807, Control_c, 0, 64, 0
3, 653870, Note_on_c, 0, 67, 51
3, 653884, Note_on_c, 0, 59, 30
3, 653891, Note_on_c, 0, 52, 24
3, 653968, Note_on_c, 0, 67, 0
3, 654004, Note_on_c, 0, 69, 38
3, 654119, Note_on_c, 0, 67, 46
3, 654251, Note_on_c, 0, 67, 0
3, 654274, Note_on_c, 0, 66, 38
3, 654341, Note_on_c, 0, 69, 0
3, 654396, Note_on_c, 0, 67, 48
3, 654423, Note_on_c, 0, 66, 0
3, 654544, Note_on_c, 0, 59, 0
3, 654595, Note_on_c, 0, 52, 0
3, 654661, Note_on_c, 0, 67, 0
3, 654667, Control_c, 0, 64, 127
3, 654924, Control_c, 0, 64, 0
3, 654961, Note_on_c, 0, 74, 67
3, 654964, Note_on_c, 0, 62, 38
3, 654978, Note_on_c, 0, 67, 53
3, 654990, Note_on_c, 0, 63, 35
3, 655193, Control_c, 0, 64, 127
3, 655472, Note_on_c, 0, 67, 0
3, 655523, Note_on_c, 0, 62, 0
3, 655535, Note_on_c, 0, 63, 0
3, 655599, Note_on_c, 0, 74, 0
3, 655705, Control_c, 0, 64, 0
3, 655781, Note_on_c, 0, 63, 34
3, 655787, Note_on_c, 0, 66, 40
3, 655787, Note_on_c, 0, 72, 44
3, 655795, Note_on_c, 0, 60, 28
3, 655898, Control_c, 0, 64, 127
3, 656101, Note_on_c, 0, 63, 0
3, 656213, Note_on_c, 0, 66, 0
3, 656230, Note_on_c, 0, 72, 0
3, 656249, Note_on_c, 0, 60, 0
3, 656552, Control_c, 0, 64, 0
3, 656673, Note_on_c, 0, 76, 55
3, 656687, Note_on_c, 0, 69, 48
3, 656691, Note_on_c, 0, 60, 39
3, 656696, Note_on_c, 0, 65, 33
3, 656750, Note_on_c, 0, 50, 24
3, 656784, Control_c, 0, 64, 127
3, 657169, Note_on_c, 0, 57, 53
3, 657191, Note_on_c, 0, 76, 0
3, 657205, Note_on_c, 0, 69, 0
3, 657322, Note_on_c, 0, 65, 0
3, 657593, Note_on_c, 0, 60, 0
3, 657629, Note_on_c, 0, 72, 64
3, 657632, Note_on_c, 0, 65, 73
3, 657739, Note_on_c, 0, 57, 0
3, 657822, Note_on_c, 0, 50, 0
3, 657946, Note_on_c, 0, 65, 0
3, 658021, Note_on_c, 0, 72, 0
3, 658088, Note_on_c, 0, 69, 59
3, 658424, Note_on_c, 0, 69, 0
3, 658452, Control_c, 0, 64, 0
3, 658561, Note_on_c, 0, 43, 27
3, 658563, Note_on_c, 0, 67, 47
3, 658611, Note_on_c, 0, 53, 17
3, 658708, Control_c, 0, 64, 127
3, 659404, Note_on_c, 0, 53, 0
3, 659476, Note_on_c, 0, 43, 0
3, 660075, Note_on_c, 0, 69, 53
3, 660165, Note_on_c, 0, 67, 0
3, 661260, Note_on_c, 0, 69, 0
3, 661479, Control_c, 0, 64, 0
3, 661532, Note_on_c, 0, 40, 55
3, 661647, Control_c, 0, 64, 127
3, 661670, Note_on_c, 0, 40, 0
3, 662003, Note_on_c, 0, 52, 50
3, 662403, Note_on_c, 0, 52, 0
3, 662410, Note_on_c, 0, 76, 68
3, 662433, Note_on_c, 0, 72, 68
3, 662449, Note_on_c, 0, 62, 33
3, 662516, Note_on_c, 0, 62, 0
3, 662824, Note_on_c, 0, 72, 0
3, 662876, Note_on_c, 0, 67, 68
3, 662915, Note_on_c, 0, 76, 0
3, 663370, Note_on_c, 0, 84, 94
3, 663412, Note_on_c, 0, 62, 29
3, 663596, Note_on_c, 0, 84, 0
3, 663857, Note_on_c, 0, 91, 94
3, 663875, Note_on_c, 0, 56, 54
3, 663953, Note_on_c, 0, 67, 0
3, 663988, Note_on_c, 0, 62, 0
3, 664088, Note_on_c, 0, 91, 0
3, 664185, Note_on_c, 0, 56, 0
3, 664335, Note_on_c, 0, 94, 67
3, 664354, Note_on_c, 0, 61, 48
3, 664359, Note_on_c, 0, 85, 64
3, 664366, Control_c, 0, 64, 0
3, 664368, Note_on_c, 0, 66, 54
3, 664391, Note_on_c, 0, 55, 30
3, 664700, Control_c, 0, 64, 127
3, 665022, Note_on_c, 0, 55, 0
3, 665040, Note_on_c, 0, 66, 0
3, 665148, Note_on_c, 0, 94, 0
3, 665191, Note_on_c, 0, 61, 0
3, 665224, Note_on_c, 0, 85, 0
3, 665367, Control_c, 0, 64, 0
3, 665381, Note_on_c, 0, 93, 62
3, 665383, Note_on_c, 0, 65, 39
3, 665386, Note_on_c, 0, 61, 9
3, 665387, Note_on_c, 0, 84, 49
3, 665587, Note_on_c, 0, 55, 1
3, 665649, Control_c, 0, 64, 127
3, 665957, Note_on_c, 0, 93, 0
3, 665972, Note_on_c, 0, 65, 0
3, 666050, Note_on_c, 0, 84, 0
3, 666342, Note_on_c, 0, 64, 47
3, 666361, Note_on_c, 0, 92, 46
3, 666373, Note_on_c, 0, 83, 46
3, 666721, Note_on_c, 0, 64, 0
3, 666737, Note_on_c, 0, 83, 0
3, 666754, Note_on_c, 0, 55, 0
3, 666773, Note_on_c, 0, 61, 0
3, 666890, Note_on_c, 0, 92, 0
3, 667087, Control_c, 0, 64, 0
3, 667260, Note_on_c, 0, 61, 31
3, 667262, Note_on_c, 0, 51, 38
3, 667278, Control_c, 0, 64, 127
3, 667280, Note_on_c, 0, 93, 58
3, 667283, Note_on_c, 0, 85, 39
3, 667477, Note_on_c, 0, 61, 0
3, 667507, Note_on_c, 0, 93, 0
3, 667560, Note_on_c, 0, 51, 0
3, 667600, Note_on_c, 0, 85, 0
3, 668062, Control_c, 0, 64, 0
3, 668206, Note_on_c, 0, 96, 75
3, 668220, Note_on_c, 0, 84, 75
3, 668221, Note_on_c, 0, 50, 48
3, 668222, Note_on_c, 0, 89, 69
3, 668222, Note_on_c, 0, 60, 48
3, 668225, Note_on_c, 0, 93, 67
3, 668330, Control_c, 0, 64, 127
3, 668616, Note_on_c, 0, 96, 0
3, 668656, Note_on_c, 0, 93, 0
3, 668674, Note_on_c, 0, 89, 0
3, 668718, Note_on_c, 0, 57, 58
3, 668719, Note_on_c, 0, 60, 0
3, 668720, Note_on_c, 0, 84, 0
3, 668903, Note_on_c, 0, 50, 0
3, 669227, Note_on_c, 0, 64, 85
3, 669301, Note_on_c, 0, 57, 0
3, 669621, Note_on_c, 0, 64, 0
3, 669639, Control_c, 0, 64, 0
3, 669696, Note_on_c, 0, 76, 62
3, 669704, Note_on_c, 0, 65, 64
3, 669707, Note_on_c, 0, 69, 63
3, 669711, Note_on_c, 0, 62, 71
3, 669715, Note_on_c, 0, 72, 60
3, 669934, Control_c, 0, 64, 127
3, 670033, Note_on_c, 0, 62, 0
3, 670186, Note_on_c, 0, 60, 63
3, 670234, Note_on_c, 0, 72, 0
3, 670245, Note_on_c, 0, 69, 0
3, 670248, Note_on_c, 0, 76, 0
3, 670334, Note_on_c, 0, 65, 0
3, 670627, Note_on_c, 0, 60, 0
3, 670654, Note_on_c, 0, 72, 53
3, 670680, Note_on_c, 0, 57, 52
3, 670682, Note_on_c, 0, 65, 64
3, 670699, Note_on_c, 0, 62, 50
3, 670830, Note_on_c, 0, 72, 0
3, 670846, Note_on_c, 0, 65, 0
3, 670919, Note_on_c, 0, 62, 0
3, 671155, Note_on_c, 0, 69, 57
3, 671161, Note_on_c, 0, 57, 0
3, 671164, Note_on_c, 0, 53, 40
3, 671193, Note_on_c, 0, 65, 38
3, 671198, Note_on_c, 0, 60, 35
3, 671262, Note_on_c, 0, 65, 0
3, 671267, Note_on_c, 0, 60, 0
3, 671298, Note_on_c, 0, 69, 0
3, 671299, Note_on_c, 0, 53, 0
3, 671584, Note_on_c, 0, 57, 64
3, 671724, Note_on_c, 0, 57, 0
3, 671974, Control_c, 0, 64, 0
3, 672092, Note_on_c, 0, 64, 67
3, 672094, Note_on_c, 0, 57, 70
3, 672101, Note_on_c, 0, 31, 53
3, 672103, Note_on_c, 0, 43, 48
3, 672107, Note_on_c, 0, 53, 56
3, 672110, Note_on_c, 0, 60, 54
3, 672285, Control_c, 0, 64, 127
3, 673291, Note_on_c, 0, 43, 0
3, 673294, Note_on_c, 0, 31, 0
3, 673303, Note_on_c, 0, 57, 0
3, 673337, Note_on_c, 0, 53, 0
3, 673397, Note_on_c, 0, 60, 0
3, 673486, Note_on_c, 0, 64, 0
3, 673953, Control_c, 0, 64, 0
3, 674022, Note_on_c, 0, 64, 47
3, 674053, Note_on_c, 0, 31, 33
3, 674054, Note_on_c, 0, 59, 42
3, 674064, Note_on_c, 0, 53, 24
3, 674065, Note_on_c, 0, 43, 27
3, 674067, Note_on_c, 0, 56, 35
3, 674391, Control_c, 0, 64, 127
3, 674926, Note_on_c, 0, 31, 0
3, 675037, Note_on_c, 0, 43, 0
3, 675152, Note_on_c, 0, 53, 0
3, 675237, Note_on_c, 0, 56, 0
3, 675280, Note_on_c, 0, 64, 0
3, 675302, Note_on_c, 0, 59, 0
3, 675737, Control_c, 0, 64, 0
3, 675877, Note_on_c, 0, 36, 26
3, 675927, Note_on_c, 0, 36, 0
3, 676296, Note_on_c, 0, 43, 27
3, 676367, Note_on_c, 0, 43, 0
3, 676741, Note_on_c, 0, 52, 37
3, 676889, Note_on_c, 0, 52, 0
3, 677212, Note_on_c, 0, 57, 41
3, 677221, Note_on_c, 0, 67, 34
3, 677230, Note_on_c, 0, 62, 38
3, 677408, Note_on_c, 0, 62, 0
3, 677480, Note_on_c, 0, 57, 0
3, 677487, Note_on_c, 0, 67, 0
3, 678190, Note_on_c, 0, 57, 35
3, 678191, Note_on_c, 0, 67, 36
3, 678219, Note_on_c, 0, 62, 31
3, 678393, Note_on_c, 0, 62, 0
3, 678458, Note_on_c, 0, 57, 0
3, 678498, Note_on_c, 0, 67, 0
3, 678676, Note_on_c, 0, 43, 24
3, 678876, Note_on_c, 0, 43, 0
3, 679200, Note_on_c, 0, 43, 30
3, 679495, Note_on_c, 0, 43, 0
3, 680161, Note_on_c, 0, 36, 27
3, 680615, Note_on_c, 0, 43, 24
3, 680738, Note_on_c, 0, 36, 0
3, 681107, Note_on_c, 0, 50, 26
3, 681372, Note_on_c, 0, 50, 0
3, 681557, Note_on_c, 0, 57, 34
3, 681559, Note_on_c, 0, 67, 34
3, 681579, Note_on_c, 0, 52, 25
3, 681593, Note_on_c, 0, 62, 30
3, 681736, Note_on_c, 0, 52, 0
3, 681754, Note_on_c, 0, 62, 0
3, 681783, Note_on_c, 0, 67, 0
3, 681798, Note_on_c, 0, 57, 0
3, 682083, Note_on_c, 0, 67, 28
3, 682087, Note_on_c, 0, 57, 24
3, 682099, Note_on_c, 0, 52, 26
3, 682122, Note_on_c, 0, 62, 22
3, 682220, Note_on_c, 0, 62, 0
3, 682225, Note_on_c, 0, 57, 0
3, 682228, Note_on_c, 0, 52, 0
3, 682263, Note_on_c, 0, 67, 0
3, 682600, Note_on_c, 0, 43, 0
3, 683604, Note_on_c, 0, 36, 30
3, 683912, Note_on_c, 0, 36, 0
3, 683912, End_track
4, 0, Start_track
4, 0, Title_t, "A ghost of a chance, kX ASIO kX Out 00, Mix (6)"
4, 0, Control_c, 0, 7, 101
4, 0, Control_c, 0, 10, 64
4, 0, End_track
0, 0, End_of_file
