0, 0, Header, 1, 2, 120
1, 0, Start_track
1, 0, Title_t, "Alice In Wonderland"
1, 0, Text_t, "Made popular in jazz by Bill Evans\012"
1, 0, Text_t, "Sequence by dougmck@pipeline.com.au\012"
1, 0, Time_signature, 3, 2, 24, 8
1, 0, Key_signature, 0, "major"
1, 0, Tempo, 413793
1, 0, Marker_t, "'Alice In Wonderland' - Made popular in jazz by Bill Evans"
1, 0, End_track
2, 0, Start_track
2, 0, Title_t, "dougmck@pipeline.com.au"
2, 0, Control_c, 0, 64, 127
2, 0, Control_c, 0, 64, 0
2, 6, Note_on_c, 0, 79, 54
2, 9, Note_on_c, 0, 60, 25
2, 10, Note_on_c, 0, 57, 35
2, 11, Note_on_c, 0, 50, 32
2, 33, Control_c, 0, 64, 127
2, 127, Note_on_c, 0, 67, 58
2, 229, Note_on_c, 0, 67, 0
2, 233, Note_on_c, 0, 57, 0
2, 236, Note_on_c, 0, 50, 0
2, 255, Note_on_c, 0, 60, 0
2, 314, Note_on_c, 0, 79, 0
2, 373, Note_on_c, 0, 79, 80
2, 373, Note_on_c, 0, 75, 82
2, 374, Note_on_c, 0, 71, 81
2, 377, Note_on_c, 0, 59, 63
2, 377, Note_on_c, 0, 64, 76
2, 378, Note_on_c, 0, 53, 71
2, 379, Control_c, 0, 64, 0
2, 411, Note_on_c, 0, 76, 36
2, 412, Note_on_c, 0, 75, 0
2, 487, Control_c, 0, 64, 127
2, 507, Note_on_c, 0, 76, 0
2, 517, Note_on_c, 0, 79, 0
2, 521, Note_on_c, 0, 64, 0
2, 521, Note_on_c, 0, 71, 0
2, 528, Note_on_c, 0, 53, 0
2, 537, Note_on_c, 0, 59, 0
2, 573, Note_on_c, 0, 77, 62
2, 573, Note_on_c, 0, 71, 59
2, 577, Note_on_c, 0, 53, 48
2, 579, Note_on_c, 0, 59, 51
2, 580, Control_c, 0, 64, 0
2, 580, Note_on_c, 0, 64, 44
2, 605, Control_c, 0, 64, 127
2, 634, Note_on_c, 0, 64, 0
2, 635, Note_on_c, 0, 59, 0
2, 645, Note_on_c, 0, 77, 0
2, 651, Note_on_c, 0, 53, 0
2, 655, Note_on_c, 0, 71, 0
2, 720, Control_c, 0, 64, 0
2, 727, Note_on_c, 0, 76, 34
2, 729, Note_on_c, 0, 67, 42
2, 730, Note_on_c, 0, 59, 35
2, 733, Note_on_c, 0, 71, 35
2, 733, Note_on_c, 0, 48, 33
2, 734, Note_on_c, 0, 55, 39
2, 773, Control_c, 0, 64, 127
2, 818, Control_c, 0, 64, 0
2, 830, Control_c, 0, 64, 127
2, 846, Note_on_c, 0, 76, 0
2, 847, Note_on_c, 0, 71, 0
2, 850, Note_on_c, 0, 59, 0
2, 856, Note_on_c, 0, 67, 0
2, 926, Note_on_c, 0, 55, 0
2, 970, Note_on_c, 0, 48, 0
2, 1032, Note_on_c, 0, 72, 71
2, 1056, Note_on_c, 0, 72, 0
2, 1056, Control_c, 0, 64, 0
2, 1077, Note_on_c, 0, 41, 42
2, 1199, Control_c, 0, 64, 127
2, 1274, Control_c, 0, 64, 0
2, 1308, Note_on_c, 0, 41, 0
2, 1318, Note_on_c, 0, 65, 57
2, 1319, Note_on_c, 0, 57, 49
2, 1329, Note_on_c, 0, 57, 0
2, 1329, Note_on_c, 0, 65, 0
2, 1395, Note_on_c, 0, 48, 53
2, 1406, Note_on_c, 0, 48, 0
2, 1436, Note_on_c, 0, 62, 53
2, 1437, Note_on_c, 0, 57, 58
2, 1438, Note_on_c, 0, 47, 48
2, 1531, Note_on_c, 0, 57, 0
2, 1554, Note_on_c, 0, 62, 0
2, 1561, Note_on_c, 0, 64, 78
2, 1580, Note_on_c, 0, 64, 0
2, 1667, Note_on_c, 0, 47, 0
2, 1678, Note_on_c, 0, 65, 105
2, 1715, Control_c, 0, 64, 127
2, 1751, Note_on_c, 0, 47, 50
2, 1753, Control_c, 0, 64, 0
2, 1774, Note_on_c, 0, 65, 0
2, 1777, Note_on_c, 0, 47, 0
2, 1790, Note_on_c, 0, 40, 49
2, 1790, Control_c, 0, 64, 127
2, 1799, Note_on_c, 0, 64, 54
2, 1800, Note_on_c, 0, 40, 0
2, 1821, Note_on_c, 0, 64, 0
2, 1876, Note_on_c, 0, 79, 71
2, 1903, Control_c, 0, 64, 0
2, 1916, Note_on_c, 0, 62, 31
2, 1919, Note_on_c, 0, 56, 32
2, 1920, Note_on_c, 0, 79, 0
2, 1925, Note_on_c, 0, 67, 46
2, 1981, Control_c, 0, 64, 127
2, 1982, Note_on_c, 0, 67, 0
2, 1989, Control_c, 0, 64, 0
2, 2005, Note_on_c, 0, 72, 47
2, 2029, Note_on_c, 0, 72, 0
2, 2037, Note_on_c, 0, 62, 0
2, 2048, Note_on_c, 0, 79, 50
2, 2059, Note_on_c, 0, 79, 0
2, 2065, Note_on_c, 0, 56, 0
2, 2097, Note_on_c, 0, 84, 27
2, 2106, Note_on_c, 0, 84, 0
2, 2131, Note_on_c, 0, 88, 83
2, 2160, Note_on_c, 0, 88, 0
2, 2170, Note_on_c, 0, 91, 87
2, 2171, Note_on_c, 0, 64, 44
2, 2172, Note_on_c, 0, 55, 37
2, 2176, Note_on_c, 0, 60, 49
2, 2176, Note_on_c, 0, 59, 40
2, 2265, Note_on_c, 0, 91, 0
2, 2274, Control_c, 0, 64, 127
2, 2283, Note_on_c, 0, 88, 61
2, 2304, Note_on_c, 0, 88, 0
2, 2304, Note_on_c, 0, 64, 0
2, 2308, Note_on_c, 0, 60, 0
2, 2311, Note_on_c, 0, 59, 0
2, 2362, Control_c, 0, 64, 0
2, 2365, Note_on_c, 0, 84, 64
2, 2368, Note_on_c, 0, 64, 44
2, 2369, Note_on_c, 0, 59, 31
2, 2376, Note_on_c, 0, 60, 28
2, 2402, Control_c, 0, 64, 127
2, 2439, Note_on_c, 0, 55, 0
2, 2441, Note_on_c, 0, 84, 0
2, 2478, Note_on_c, 0, 59, 0
2, 2486, Note_on_c, 0, 60, 0
2, 2487, Note_on_c, 0, 55, 65
2, 2493, Note_on_c, 0, 64, 0
2, 2508, Note_on_c, 0, 55, 0
2, 2520, Control_c, 0, 64, 0
2, 2533, Note_on_c, 0, 55, 55
2, 2536, Note_on_c, 0, 65, 71
2, 2540, Note_on_c, 0, 60, 60
2, 2611, Note_on_c, 0, 72, 80
2, 2612, Note_on_c, 0, 79, 72
2, 2628, Note_on_c, 0, 72, 0
2, 2632, Note_on_c, 0, 79, 0
2, 2647, Note_on_c, 0, 65, 0
2, 2663, Note_on_c, 0, 60, 0
2, 2690, Note_on_c, 0, 72, 80
2, 2691, Note_on_c, 0, 79, 72
2, 2693, Note_on_c, 0, 65, 48
2, 2695, Note_on_c, 0, 61, 45
2, 2696, Note_on_c, 0, 60, 14
2, 2744, Note_on_c, 0, 65, 0
2, 2752, Note_on_c, 0, 61, 0
2, 2754, Note_on_c, 0, 72, 0
2, 2766, Control_c, 0, 64, 127
2, 2772, Note_on_c, 0, 69, 55
2, 2774, Note_on_c, 0, 65, 39
2, 2776, Note_on_c, 0, 61, 48
2, 2782, Note_on_c, 0, 72, 31
2, 2783, Note_on_c, 0, 55, 0
2, 2797, Note_on_c, 0, 72, 0
2, 2800, Note_on_c, 0, 69, 0
2, 2802, Note_on_c, 0, 65, 0
2, 2805, Note_on_c, 0, 79, 0
2, 2820, Note_on_c, 0, 60, 0
2, 2823, Note_on_c, 0, 61, 0
2, 2881, Control_c, 0, 64, 0
2, 2887, Note_on_c, 0, 65, 50
2, 2890, Note_on_c, 0, 69, 51
2, 2891, Note_on_c, 0, 60, 46
2, 2893, Note_on_c, 0, 50, 37
2, 3004, Control_c, 0, 64, 127
2, 3020, Note_on_c, 0, 60, 0
2, 3042, Note_on_c, 0, 65, 0
2, 3063, Note_on_c, 0, 69, 0
2, 3082, Note_on_c, 0, 60, 42
2, 3089, Note_on_c, 0, 57, 36
2, 3104, Note_on_c, 0, 57, 0
2, 3106, Note_on_c, 0, 60, 0
2, 3107, Note_on_c, 0, 50, 0
2, 3165, Note_on_c, 0, 74, 57
2, 3185, Note_on_c, 0, 74, 0
2, 3201, Note_on_c, 0, 76, 61
2, 3225, Note_on_c, 0, 76, 0
2, 3232, Control_c, 0, 64, 0
2, 3233, Note_on_c, 0, 77, 74
2, 3260, Note_on_c, 0, 64, 37
2, 3261, Note_on_c, 0, 59, 38
2, 3261, Note_on_c, 0, 53, 41
2, 3270, Note_on_c, 0, 76, 38
2, 3276, Note_on_c, 0, 77, 0
2, 3365, Control_c, 0, 64, 127
2, 3414, Note_on_c, 0, 64, 0
2, 3423, Note_on_c, 0, 53, 0
2, 3430, Note_on_c, 0, 59, 0
2, 3451, Note_on_c, 0, 53, 37
2, 3451, Note_on_c, 0, 62, 40
2, 3457, Note_on_c, 0, 59, 43
2, 3460, Control_c, 0, 64, 0
2, 3469, Note_on_c, 0, 59, 0
2, 3472, Note_on_c, 0, 62, 0
2, 3477, Note_on_c, 0, 53, 0
2, 3563, Note_on_c, 0, 74, 40
2, 3564, Note_on_c, 0, 76, 0
2, 3598, Note_on_c, 0, 74, 0
2, 3608, Control_c, 0, 64, 127
2, 3608, Note_on_c, 0, 55, 35
2, 3611, Note_on_c, 0, 76, 36
2, 3612, Note_on_c, 0, 62, 19
2, 3613, Note_on_c, 0, 52, 34
2, 3617, Note_on_c, 0, 59, 29
2, 3696, Note_on_c, 0, 52, 0
2, 3698, Note_on_c, 0, 55, 0
2, 3703, Note_on_c, 0, 59, 0
2, 3710, Note_on_c, 0, 76, 0
2, 3713, Note_on_c, 0, 62, 0
2, 3799, Control_c, 0, 64, 0
2, 3799, Note_on_c, 0, 79, 51
2, 3800, Note_on_c, 0, 62, 37
2, 3801, Note_on_c, 0, 76, 31
2, 3801, Note_on_c, 0, 56, 50
2, 3802, Note_on_c, 0, 72, 48
2, 3803, Note_on_c, 0, 67, 50
2, 3831, Control_c, 0, 64, 127
2, 3855, Note_on_c, 0, 62, 0
2, 3860, Note_on_c, 0, 67, 0
2, 3870, Note_on_c, 0, 72, 0
2, 3879, Note_on_c, 0, 76, 0
2, 3882, Note_on_c, 0, 79, 0
2, 3896, Note_on_c, 0, 56, 0
2, 3962, Control_c, 0, 64, 0
2, 3963, Note_on_c, 0, 84, 57
2, 3963, Note_on_c, 0, 65, 47
2, 3965, Note_on_c, 0, 61, 31
2, 3965, Note_on_c, 0, 55, 38
2, 3968, Note_on_c, 0, 77, 42
2, 3969, Note_on_c, 0, 81, 44
2, 3969, Note_on_c, 0, 60, 41
2, 3970, Note_on_c, 0, 72, 40
2, 4048, Note_on_c, 0, 84, 0
2, 4051, Note_on_c, 0, 81, 0
2, 4064, Note_on_c, 0, 77, 0
2, 4067, Note_on_c, 0, 72, 0
2, 4072, Control_c, 0, 64, 127
2, 4082, Note_on_c, 0, 65, 0
2, 4086, Note_on_c, 0, 60, 0
2, 4086, Note_on_c, 0, 61, 0
2, 4106, Note_on_c, 0, 55, 0
2, 4153, Note_on_c, 0, 81, 53
2, 4157, Note_on_c, 0, 73, 37
2, 4157, Note_on_c, 0, 64, 42
2, 4159, Note_on_c, 0, 76, 31
2, 4160, Note_on_c, 0, 55, 38
2, 4161, Note_on_c, 0, 61, 35
2, 4163, Note_on_c, 0, 69, 49
2, 4165, Control_c, 0, 64, 0
2, 4197, Control_c, 0, 64, 127
2, 4229, Note_on_c, 0, 55, 0
2, 4233, Note_on_c, 0, 81, 0
2, 4258, Note_on_c, 0, 61, 0
2, 4262, Note_on_c, 0, 69, 0
2, 4269, Note_on_c, 0, 64, 0
2, 4276, Note_on_c, 0, 73, 0
2, 4278, Note_on_c, 0, 76, 0
2, 4314, Note_on_c, 0, 79, 53
2, 4315, Control_c, 0, 64, 0
2, 4318, Note_on_c, 0, 69, 50
2, 4318, Note_on_c, 0, 64, 54
2, 4319, Note_on_c, 0, 72, 45
2, 4327, Note_on_c, 0, 69, 0
2, 4328, Note_on_c, 0, 72, 0
2, 4337, Note_on_c, 0, 79, 0
2, 4368, Note_on_c, 0, 64, 0
2, 4386, Note_on_c, 0, 63, 42
2, 4419, Note_on_c, 0, 63, 0
2, 4435, Note_on_c, 0, 62, 39
2, 4437, Note_on_c, 0, 77, 35
2, 4437, Note_on_c, 0, 69, 40
2, 4438, Note_on_c, 0, 72, 40
2, 4454, Note_on_c, 0, 69, 0
2, 4457, Note_on_c, 0, 72, 0
2, 4462, Note_on_c, 0, 77, 0
2, 4484, Note_on_c, 0, 62, 0
2, 4504, Note_on_c, 0, 61, 29
2, 4545, Note_on_c, 0, 61, 0
2, 4550, Note_on_c, 0, 76, 32
2, 4559, Note_on_c, 0, 60, 38
2, 4560, Note_on_c, 0, 65, 22
2, 4560, Note_on_c, 0, 69, 36
2, 4576, Note_on_c, 0, 65, 0
2, 4580, Note_on_c, 0, 69, 0
2, 4584, Note_on_c, 0, 76, 0
2, 4616, Control_c, 0, 64, 127
2, 4653, Note_on_c, 0, 60, 0
2, 4669, Control_c, 0, 64, 0
2, 4673, Note_on_c, 0, 65, 37
2, 4674, Note_on_c, 0, 69, 48
2, 4676, Note_on_c, 0, 57, 44
2, 4704, Control_c, 0, 64, 127
2, 4753, Note_on_c, 0, 69, 0
2, 4758, Note_on_c, 0, 65, 0
2, 4767, Note_on_c, 0, 57, 0
2, 4781, Control_c, 0, 64, 0
2, 4790, Note_on_c, 0, 53, 30
2, 4792, Note_on_c, 0, 72, 49
2, 4799, Note_on_c, 0, 53, 0
2, 4802, Note_on_c, 0, 72, 0
2, 4827, Control_c, 0, 64, 127
2, 4872, Control_c, 0, 64, 0
2, 4878, Note_on_c, 0, 71, 35
2, 4881, Note_on_c, 0, 59, 40
2, 4881, Note_on_c, 0, 63, 34
2, 4883, Note_on_c, 0, 68, 33
2, 4883, Note_on_c, 0, 53, 37
2, 4919, Control_c, 0, 64, 127
2, 4995, Note_on_c, 0, 43, 50
2, 4997, Note_on_c, 0, 59, 0
2, 5004, Note_on_c, 0, 43, 0
2, 5010, Control_c, 0, 64, 0
2, 5011, Note_on_c, 0, 53, 0
2, 5025, Note_on_c, 0, 71, 0
2, 5026, Note_on_c, 0, 63, 0
2, 5027, Note_on_c, 0, 68, 0
2, 5042, Note_on_c, 0, 67, 51
2, 5043, Note_on_c, 0, 46, 64
2, 5043, Note_on_c, 0, 60, 57
2, 5044, Note_on_c, 0, 64, 60
2, 5046, Note_on_c, 0, 56, 47
2, 5153, Control_c, 0, 64, 127
2, 5193, Note_on_c, 0, 64, 0
2, 5193, Note_on_c, 0, 60, 0
2, 5205, Note_on_c, 0, 46, 0
2, 5206, Note_on_c, 0, 67, 0
2, 5208, Note_on_c, 0, 56, 0
2, 5237, Note_on_c, 0, 67, 26
2, 5238, Note_on_c, 0, 46, 55
2, 5239, Note_on_c, 0, 56, 45
2, 5240, Note_on_c, 0, 60, 42
2, 5240, Note_on_c, 0, 64, 51
2, 5326, Note_on_c, 0, 64, 0
2, 5340, Note_on_c, 0, 60, 0
2, 5354, Note_on_c, 0, 56, 0
2, 5378, Note_on_c, 0, 67, 0
2, 5384, Note_on_c, 0, 46, 0
2, 5428, Note_on_c, 0, 65, 53
2, 5430, Note_on_c, 0, 55, 51
2, 5433, Note_on_c, 0, 45, 48
2, 5438, Control_c, 0, 64, 0
2, 5439, Note_on_c, 0, 65, 0
2, 5475, Note_on_c, 0, 61, 1
2, 5480, Note_on_c, 0, 65, 22
2, 5529, Note_on_c, 0, 65, 0
2, 5534, Control_c, 0, 64, 127
2, 5545, Note_on_c, 0, 61, 0
2, 5561, Note_on_c, 0, 55, 0
2, 5573, Note_on_c, 0, 45, 0
2, 5606, Note_on_c, 0, 61, 45
2, 5606, Control_c, 0, 64, 0
2, 5607, Note_on_c, 0, 45, 35
2, 5611, Note_on_c, 0, 55, 44
2, 5611, Note_on_c, 0, 65, 50
2, 5629, Note_on_c, 0, 58, 6
2, 5641, Control_c, 0, 64, 127
2, 5659, Note_on_c, 0, 55, 0
2, 5701, Note_on_c, 0, 65, 0
2, 5713, Note_on_c, 0, 58, 0
2, 5733, Note_on_c, 0, 45, 0
2, 5733, Note_on_c, 0, 61, 0
2, 5759, Control_c, 0, 64, 0
2, 5767, Note_on_c, 0, 64, 50
2, 5769, Note_on_c, 0, 57, 50
2, 5774, Note_on_c, 0, 50, 29
2, 5777, Note_on_c, 0, 60, 41
2, 5850, Note_on_c, 0, 38, 60
2, 5871, Note_on_c, 0, 38, 0
2, 5877, Control_c, 0, 64, 127
2, 5884, Note_on_c, 0, 50, 0
2, 5888, Note_on_c, 0, 57, 0
2, 5900, Note_on_c, 0, 64, 0
2, 5912, Note_on_c, 0, 60, 0
2, 5960, Control_c, 0, 64, 0
2, 5961, Note_on_c, 0, 67, 80
2, 5963, Note_on_c, 0, 60, 91
2, 5964, Note_on_c, 0, 57, 94
2, 5965, Note_on_c, 0, 64, 78
2, 5970, Note_on_c, 0, 50, 64
2, 5971, Note_on_c, 0, 65, 46
2, 6002, Control_c, 0, 64, 127
2, 6057, Note_on_c, 0, 57, 0
2, 6064, Note_on_c, 0, 64, 0
2, 6068, Note_on_c, 0, 60, 0
2, 6072, Note_on_c, 0, 67, 0
2, 6076, Note_on_c, 0, 65, 0
2, 6125, Note_on_c, 0, 63, 53
2, 6127, Note_on_c, 0, 50, 0
2, 6130, Note_on_c, 0, 67, 64
2, 6130, Note_on_c, 0, 59, 77
2, 6130, Note_on_c, 0, 43, 54
2, 6131, Note_on_c, 0, 56, 63
2, 6133, Control_c, 0, 64, 0
2, 6134, Note_on_c, 0, 53, 54
2, 6239, Control_c, 0, 64, 127
2, 6268, Note_on_c, 0, 67, 0
2, 6269, Note_on_c, 0, 56, 0
2, 6270, Note_on_c, 0, 59, 0
2, 6270, Note_on_c, 0, 53, 0
2, 6291, Note_on_c, 0, 63, 0
2, 6317, Note_on_c, 0, 56, 59
2, 6318, Note_on_c, 0, 43, 0
2, 6318, Note_on_c, 0, 59, 66
2, 6319, Control_c, 0, 64, 0
2, 6319, Note_on_c, 0, 63, 32
2, 6320, Note_on_c, 0, 65, 63
2, 6320, Note_on_c, 0, 53, 46
2, 6347, Note_on_c, 0, 53, 0
2, 6357, Control_c, 0, 64, 127
2, 6378, Note_on_c, 0, 63, 0
2, 6395, Note_on_c, 0, 56, 0
2, 6396, Note_on_c, 0, 59, 0
2, 6397, Note_on_c, 0, 65, 0
2, 6472, Control_c, 0, 64, 0
2, 6487, Note_on_c, 0, 36, 36
2, 6490, Note_on_c, 0, 43, 33
2, 6491, Note_on_c, 0, 64, 59
2, 6492, Note_on_c, 0, 57, 51
2, 6492, Note_on_c, 0, 59, 47
2, 6494, Note_on_c, 0, 62, 37
2, 6495, Note_on_c, 0, 52, 47
2, 6515, Control_c, 0, 64, 127
2, 6585, Note_on_c, 0, 57, 0
2, 6599, Note_on_c, 0, 59, 0
2, 6600, Note_on_c, 0, 62, 0
2, 6609, Note_on_c, 0, 64, 0
2, 6654, Note_on_c, 0, 36, 0
2, 6674, Note_on_c, 0, 43, 0
2, 6687, Note_on_c, 0, 52, 0
2, 6776, Control_c, 0, 64, 0
2, 6783, Note_on_c, 0, 75, 62
2, 6784, Note_on_c, 0, 54, 44
2, 6785, Note_on_c, 0, 68, 59
2, 6786, Note_on_c, 0, 72, 55
2, 6786, Note_on_c, 0, 64, 70
2, 6788, Note_on_c, 0, 61, 35
2, 6808, Control_c, 0, 64, 127
2, 6826, Note_on_c, 0, 72, 0
2, 6826, Note_on_c, 0, 75, 0
2, 6838, Note_on_c, 0, 64, 0
2, 6848, Note_on_c, 0, 68, 0
2, 6860, Note_on_c, 0, 61, 0
2, 6864, Note_on_c, 0, 54, 0
2, 6870, Note_on_c, 0, 72, 48
2, 6871, Control_c, 0, 64, 0
2, 6874, Note_on_c, 0, 62, 49
2, 6875, Note_on_c, 0, 67, 56
2, 6879, Note_on_c, 0, 60, 39
2, 6882, Note_on_c, 0, 53, 40
2, 6911, Control_c, 0, 64, 127
2, 6939, Note_on_c, 0, 62, 0
2, 6954, Note_on_c, 0, 67, 0
2, 6960, Note_on_c, 0, 72, 0
2, 7048, Note_on_c, 0, 79, 74
2, 7049, Note_on_c, 0, 74, 68
2, 7050, Note_on_c, 0, 69, 72
2, 7058, Note_on_c, 0, 64, 46
2, 7112, Note_on_c, 0, 53, 0
2, 7127, Note_on_c, 0, 60, 0
2, 7149, Note_on_c, 0, 69, 0
2, 7149, Note_on_c, 0, 64, 0
2, 7179, Note_on_c, 0, 74, 0
2, 7192, Note_on_c, 0, 79, 0
2, 7207, Control_c, 0, 64, 0
2, 7209, Note_on_c, 0, 74, 38
2, 7211, Note_on_c, 0, 65, 33
2, 7212, Note_on_c, 0, 62, 31
2, 7213, Note_on_c, 0, 57, 43
2, 7286, Note_on_c, 0, 74, 0
2, 7286, Note_on_c, 0, 76, 37
2, 7307, Note_on_c, 0, 76, 0
2, 7325, Note_on_c, 0, 77, 83
2, 7355, Control_c, 0, 64, 127
2, 7402, Note_on_c, 0, 57, 0
2, 7409, Note_on_c, 0, 65, 0
2, 7416, Note_on_c, 0, 62, 0
2, 7424, Note_on_c, 0, 77, 0
2, 7428, Control_c, 0, 64, 0
2, 7437, Note_on_c, 0, 76, 44
2, 7438, Note_on_c, 0, 57, 29
2, 7443, Note_on_c, 0, 65, 24
2, 7445, Note_on_c, 0, 62, 33
2, 7464, Control_c, 0, 64, 127
2, 7485, Note_on_c, 0, 57, 0
2, 7512, Note_on_c, 0, 76, 0
2, 7520, Note_on_c, 0, 74, 36
2, 7542, Note_on_c, 0, 74, 0
2, 7548, Control_c, 0, 64, 0
2, 7562, Note_on_c, 0, 56, 35
2, 7563, Note_on_c, 0, 76, 27
2, 7568, Note_on_c, 0, 65, 0
2, 7572, Note_on_c, 0, 62, 0
2, 7586, Control_c, 0, 64, 127
2, 7653, Control_c, 0, 64, 0
2, 7681, Control_c, 0, 64, 127
2, 7681, Note_on_c, 0, 62, 29
2, 7682, Note_on_c, 0, 65, 25
2, 7717, Note_on_c, 0, 62, 0
2, 7729, Note_on_c, 0, 65, 0
2, 7774, Control_c, 0, 64, 0
2, 7799, Control_c, 0, 64, 127
2, 7805, Note_on_c, 0, 62, 35
2, 7806, Note_on_c, 0, 65, 44
2, 7880, Note_on_c, 0, 74, 43
2, 7885, Note_on_c, 0, 56, 0
2, 7885, Note_on_c, 0, 76, 0
2, 7896, Note_on_c, 0, 65, 0
2, 7898, Note_on_c, 0, 62, 0
2, 7904, Note_on_c, 0, 74, 0
2, 7917, Control_c, 0, 64, 0
2, 7918, Note_on_c, 0, 55, 49
2, 7926, Note_on_c, 0, 76, 64
2, 7969, Control_c, 0, 64, 127
2, 7984, Control_c, 0, 64, 0
2, 8034, Control_c, 0, 64, 127
2, 8036, Note_on_c, 0, 64, 25
2, 8072, Note_on_c, 0, 64, 0
2, 8128, Note_on_c, 0, 64, 40
2, 8132, Control_c, 0, 64, 0
2, 8134, Note_on_c, 0, 60, 27
2, 8135, Note_on_c, 0, 76, 0
2, 8164, Note_on_c, 0, 72, 74
2, 8170, Control_c, 0, 64, 127
2, 8199, Note_on_c, 0, 55, 0
2, 8230, Note_on_c, 0, 72, 0
2, 8241, Note_on_c, 0, 71, 36
2, 8250, Control_c, 0, 64, 0
2, 8265, Note_on_c, 0, 64, 0
2, 8265, Note_on_c, 0, 60, 0
2, 8268, Note_on_c, 0, 71, 0
2, 8273, Note_on_c, 0, 55, 37
2, 8280, Control_c, 0, 64, 127
2, 8284, Note_on_c, 0, 72, 41
2, 8329, Note_on_c, 0, 72, 0
2, 8352, Note_on_c, 0, 72, 48
2, 8370, Note_on_c, 0, 61, 21
2, 8378, Control_c, 0, 64, 0
2, 8384, Note_on_c, 0, 72, 0
2, 8397, Note_on_c, 0, 73, 36
2, 8405, Note_on_c, 0, 73, 0
2, 8415, Note_on_c, 0, 61, 0
2, 8423, Note_on_c, 0, 60, 1
2, 8437, Note_on_c, 0, 77, 39
2, 8457, Note_on_c, 0, 77, 0
2, 8472, Note_on_c, 0, 82, 77
2, 8496, Note_on_c, 0, 82, 0
2, 8503, Note_on_c, 0, 65, 45
2, 8504, Note_on_c, 0, 61, 32
2, 8515, Note_on_c, 0, 84, 54
2, 8521, Note_on_c, 0, 83, 26
2, 8530, Note_on_c, 0, 83, 0
2, 8535, Note_on_c, 0, 84, 0
2, 8545, Note_on_c, 0, 65, 0
2, 8549, Note_on_c, 0, 85, 79
2, 8552, Note_on_c, 0, 60, 0
2, 8558, Control_c, 0, 64, 127
2, 8561, Note_on_c, 0, 61, 0
2, 8563, Note_on_c, 0, 55, 0
2, 8573, Note_on_c, 0, 85, 0
2, 8591, Note_on_c, 0, 86, 75
2, 8609, Control_c, 0, 64, 0
2, 8611, Note_on_c, 0, 86, 0
2, 8629, Note_on_c, 0, 50, 44
2, 8646, Control_c, 0, 64, 127
2, 8758, Note_on_c, 0, 57, 34
2, 8759, Note_on_c, 0, 60, 20
2, 8783, Note_on_c, 0, 60, 0
2, 8791, Note_on_c, 0, 57, 0
2, 8836, Note_on_c, 0, 76, 57
2, 8837, Note_on_c, 0, 88, 73
2, 8846, Note_on_c, 0, 88, 0
2, 8848, Note_on_c, 0, 76, 0
2, 8854, Control_c, 0, 64, 0
2, 8873, Note_on_c, 0, 57, 64
2, 8874, Note_on_c, 0, 60, 71
2, 8876, Note_on_c, 0, 53, 32
2, 8876, Note_on_c, 0, 89, 89
2, 8876, Note_on_c, 0, 77, 91
2, 8877, Control_c, 0, 64, 127
2, 8910, Note_on_c, 0, 53, 0
2, 8914, Note_on_c, 0, 77, 0
2, 8915, Note_on_c, 0, 57, 0
2, 8919, Note_on_c, 0, 89, 0
2, 8922, Note_on_c, 0, 50, 0
2, 8940, Note_on_c, 0, 60, 0
2, 8956, Note_on_c, 0, 91, 90
2, 8958, Note_on_c, 0, 79, 81
2, 8970, Note_on_c, 0, 91, 0
2, 8973, Note_on_c, 0, 79, 0
2, 8992, Control_c, 0, 64, 0
2, 8993, Note_on_c, 0, 53, 46
2, 8997, Note_on_c, 0, 59, 49
2, 8998, Note_on_c, 0, 64, 49
2, 9003, Note_on_c, 0, 75, 70
2, 9004, Note_on_c, 0, 87, 69
2, 9040, Note_on_c, 0, 88, 40
2, 9046, Note_on_c, 0, 75, 0
2, 9049, Note_on_c, 0, 76, 31
2, 9053, Note_on_c, 0, 87, 0
2, 9070, Note_on_c, 0, 88, 0
2, 9075, Note_on_c, 0, 76, 0
2, 9087, Note_on_c, 0, 53, 0
2, 9087, Note_on_c, 0, 64, 0
2, 9097, Note_on_c, 0, 59, 0
2, 9114, Note_on_c, 0, 64, 37
2, 9114, Note_on_c, 0, 53, 30
2, 9115, Note_on_c, 0, 59, 34
2, 9115, Note_on_c, 0, 86, 60
2, 9117, Note_on_c, 0, 74, 48
2, 9128, Control_c, 0, 64, 127
2, 9172, Note_on_c, 0, 64, 0
2, 9196, Note_on_c, 0, 59, 0
2, 9201, Control_c, 0, 64, 0
2, 9202, Note_on_c, 0, 86, 0
2, 9207, Note_on_c, 0, 74, 0
2, 9216, Control_c, 0, 64, 127
2, 9225, Note_on_c, 0, 59, 24
2, 9229, Note_on_c, 0, 62, 40
2, 9241, Note_on_c, 0, 62, 0
2, 9262, Note_on_c, 0, 59, 0
2, 9303, Note_on_c, 0, 59, 48
2, 9311, Note_on_c, 0, 86, 75
2, 9311, Note_on_c, 0, 74, 68
2, 9315, Note_on_c, 0, 53, 0
2, 9323, Note_on_c, 0, 59, 0
2, 9328, Note_on_c, 0, 86, 0
2, 9329, Note_on_c, 0, 74, 0
2, 9341, Control_c, 0, 64, 0
2, 9350, Note_on_c, 0, 62, 87
2, 9351, Note_on_c, 0, 52, 84
2, 9352, Note_on_c, 0, 56, 67
2, 9354, Note_on_c, 0, 76, 75
2, 9355, Note_on_c, 0, 88, 89
2, 9366, Control_c, 0, 64, 127
2, 9395, Note_on_c, 0, 52, 0
2, 9416, Note_on_c, 0, 56, 0
2, 9420, Note_on_c, 0, 62, 0
2, 9453, Note_on_c, 0, 76, 0
2, 9460, Note_on_c, 0, 88, 0
2, 9553, Note_on_c, 0, 62, 81
2, 9554, Note_on_c, 0, 56, 84
2, 9554, Note_on_c, 0, 67, 92
2, 9555, Note_on_c, 0, 91, 91
2, 9556, Note_on_c, 0, 88, 85
2, 9557, Note_on_c, 0, 84, 89
2, 9557, Note_on_c, 0, 79, 90
2, 9558, Control_c, 0, 64, 0
2, 9587, Control_c, 0, 64, 127
2, 9627, Note_on_c, 0, 79, 0
2, 9630, Note_on_c, 0, 62, 0
2, 9633, Note_on_c, 0, 84, 0
2, 9635, Note_on_c, 0, 67, 0
2, 9637, Note_on_c, 0, 88, 0
2, 9639, Note_on_c, 0, 91, 0
2, 9651, Note_on_c, 0, 56, 0
2, 9715, Control_c, 0, 64, 0
2, 9722, Note_on_c, 0, 60, 89
2, 9722, Note_on_c, 0, 61, 74
2, 9723, Note_on_c, 0, 65, 95
2, 9723, Note_on_c, 0, 55, 88
2, 9723, Note_on_c, 0, 96, 91
2, 9724, Note_on_c, 0, 84, 90
2, 9724, Note_on_c, 0, 89, 85
2, 9725, Note_on_c, 0, 93, 83
2, 9727, Note_on_c, 0, 58, 55
2, 9735, Note_on_c, 0, 58, 0
2, 9747, Control_c, 0, 64, 127
2, 9815, Note_on_c, 0, 93, 0
2, 9819, Note_on_c, 0, 96, 0
2, 9822, Note_on_c, 0, 89, 0
2, 9829, Note_on_c, 0, 84, 0
2, 9843, Note_on_c, 0, 65, 0
2, 9845, Note_on_c, 0, 55, 0
2, 9854, Note_on_c, 0, 61, 0
2, 9855, Note_on_c, 0, 60, 0
2, 9909, Note_on_c, 0, 93, 80
2, 9910, Note_on_c, 0, 60, 83
2, 9910, Note_on_c, 0, 61, 71
2, 9911, Note_on_c, 0, 85, 84
2, 9911, Note_on_c, 0, 55, 87
2, 9911, Note_on_c, 0, 89, 68
2, 9912, Note_on_c, 0, 65, 94
2, 9912, Control_c, 0, 64, 0
2, 9913, Note_on_c, 0, 81, 74
2, 9915, Note_on_c, 0, 91, 57
2, 9917, Note_on_c, 0, 58, 46
2, 9937, Control_c, 0, 64, 127
2, 9960, Note_on_c, 0, 93, 0
2, 9962, Note_on_c, 0, 55, 0
2, 9965, Note_on_c, 0, 89, 0
2, 9966, Note_on_c, 0, 91, 0
2, 9973, Note_on_c, 0, 81, 0
2, 9973, Note_on_c, 0, 60, 0
2, 9974, Note_on_c, 0, 65, 0
2, 9975, Note_on_c, 0, 58, 0
2, 9977, Note_on_c, 0, 85, 0
2, 9979, Note_on_c, 0, 61, 0
2, 10079, Note_on_c, 0, 79, 81
2, 10080, Note_on_c, 0, 67, 94
2, 10080, Note_on_c, 0, 71, 90
2, 10082, Note_on_c, 0, 76, 57
2, 10082, Note_on_c, 0, 72, 81
2, 10083, Control_c, 0, 64, 0
2, 10121, Note_on_c, 0, 71, 0
2, 10133, Note_on_c, 0, 76, 0
2, 10134, Note_on_c, 0, 72, 0
2, 10144, Note_on_c, 0, 79, 0
2, 10149, Note_on_c, 0, 67, 0
2, 10149, Note_on_c, 0, 66, 51
2, 10189, Note_on_c, 0, 66, 0
2, 10200, Note_on_c, 0, 77, 39
2, 10201, Note_on_c, 0, 65, 47
2, 10203, Note_on_c, 0, 69, 38
2, 10203, Note_on_c, 0, 72, 47
2, 10209, Note_on_c, 0, 74, 27
2, 10239, Note_on_c, 0, 74, 0
2, 10247, Note_on_c, 0, 72, 0
2, 10252, Note_on_c, 0, 77, 0
2, 10256, Control_c, 0, 64, 127
2, 10258, Note_on_c, 0, 65, 0
2, 10260, Note_on_c, 0, 69, 0
2, 10273, Note_on_c, 0, 64, 43
2, 10301, Control_c, 0, 64, 0
2, 10310, Note_on_c, 0, 64, 0
2, 10318, Note_on_c, 0, 65, 44
2, 10319, Note_on_c, 0, 76, 29
2, 10322, Note_on_c, 0, 69, 53
2, 10324, Note_on_c, 0, 72, 37
2, 10327, Note_on_c, 0, 60, 47
2, 10348, Control_c, 0, 64, 127
2, 10378, Note_on_c, 0, 72, 0
2, 10380, Note_on_c, 0, 69, 0
2, 10383, Note_on_c, 0, 65, 0
2, 10386, Note_on_c, 0, 60, 0
2, 10399, Note_on_c, 0, 76, 0
2, 10431, Control_c, 0, 64, 0
2, 10440, Note_on_c, 0, 55, 41
2, 10443, Note_on_c, 0, 72, 34
2, 10443, Note_on_c, 0, 76, 20
2, 10444, Note_on_c, 0, 65, 40
2, 10444, Note_on_c, 0, 69, 51
2, 10446, Note_on_c, 0, 62, 38
2, 10461, Control_c, 0, 64, 127
2, 10470, Note_on_c, 0, 62, 0
2, 10484, Note_on_c, 0, 55, 0
2, 10498, Note_on_c, 0, 72, 0
2, 10499, Note_on_c, 0, 76, 0
2, 10500, Note_on_c, 0, 65, 0
2, 10502, Note_on_c, 0, 69, 0
2, 10562, Note_on_c, 0, 43, 60
2, 10644, Control_c, 0, 64, 0
2, 10646, Note_on_c, 0, 63, 49
2, 10647, Note_on_c, 0, 59, 55
2, 10648, Note_on_c, 0, 67, 47
2, 10655, Note_on_c, 0, 53, 39
2, 10679, Control_c, 0, 64, 127
2, 10742, Note_on_c, 0, 53, 0
2, 10743, Note_on_c, 0, 59, 0
2, 10758, Note_on_c, 0, 50, 31
2, 10761, Note_on_c, 0, 67, 0
2, 10773, Note_on_c, 0, 63, 0
2, 10788, Note_on_c, 0, 50, 0
2, 10797, Control_c, 0, 64, 0
2, 10798, Note_on_c, 0, 67, 35
2, 10799, Note_on_c, 0, 62, 49
2, 10801, Note_on_c, 0, 57, 48
2, 10801, Note_on_c, 0, 52, 42
2, 10815, Note_on_c, 0, 43, 0
2, 10876, Note_on_c, 0, 57, 0
2, 10879, Note_on_c, 0, 43, 59
2, 10890, Note_on_c, 0, 62, 0
2, 10892, Note_on_c, 0, 67, 0
2, 10897, Control_c, 0, 64, 127
2, 10991, Note_on_c, 0, 72, 80
2, 11014, Note_on_c, 0, 72, 0
2, 11038, Control_c, 0, 64, 0
2, 11047, Note_on_c, 0, 72, 49
2, 11058, Note_on_c, 0, 72, 0
2, 11114, Note_on_c, 0, 72, 74
2, 11132, Note_on_c, 0, 72, 0
2, 11169, Note_on_c, 0, 72, 75
2, 11171, Control_c, 0, 64, 127
2, 11251, Note_on_c, 0, 52, 0
2, 11270, Note_on_c, 0, 62, 49
2, 11272, Note_on_c, 0, 67, 38
2, 11274, Note_on_c, 0, 52, 24
2, 11284, Note_on_c, 0, 62, 0
2, 11287, Note_on_c, 0, 67, 0
2, 11295, Note_on_c, 0, 52, 0
2, 11345, Note_on_c, 0, 62, 59
2, 11345, Note_on_c, 0, 67, 51
2, 11348, Note_on_c, 0, 52, 32
2, 11351, Control_c, 0, 64, 0
2, 11360, Note_on_c, 0, 62, 0
2, 11364, Note_on_c, 0, 67, 0
2, 11366, Note_on_c, 0, 43, 0
2, 11372, Note_on_c, 0, 52, 0
2, 11389, Control_c, 0, 64, 127
2, 11396, Note_on_c, 0, 67, 34
2, 11397, Note_on_c, 0, 62, 40
2, 11410, Note_on_c, 0, 62, 0
2, 11414, Note_on_c, 0, 67, 0
2, 11431, Note_on_c, 0, 72, 0
2, 11466, Note_on_c, 0, 50, 62
2, 11466, Note_on_c, 0, 72, 55
2, 11467, Note_on_c, 0, 67, 69
2, 11469, Note_on_c, 0, 62, 66
2, 11472, Control_c, 0, 64, 0
2, 11512, Note_on_c, 0, 62, 0
2, 11512, Control_c, 0, 64, 127
2, 11524, Note_on_c, 0, 67, 0
2, 11526, Note_on_c, 0, 72, 0
2, 11589, Note_on_c, 0, 74, 62
2, 11592, Note_on_c, 0, 66, 61
2, 11592, Note_on_c, 0, 64, 77
2, 11595, Note_on_c, 0, 60, 64
2, 11596, Note_on_c, 0, 69, 53
2, 11597, Control_c, 0, 64, 0
2, 11618, Note_on_c, 0, 64, 0
2, 11624, Note_on_c, 0, 66, 0
2, 11626, Note_on_c, 0, 69, 0
2, 11647, Note_on_c, 0, 64, 51
2, 11647, Note_on_c, 0, 66, 36
2, 11673, Control_c, 0, 64, 127
2, 11695, Note_on_c, 0, 64, 0
2, 11698, Note_on_c, 0, 66, 0
2, 11699, Note_on_c, 0, 50, 0
2, 11708, Control_c, 0, 64, 0
2, 11711, Note_on_c, 0, 74, 0
2, 11748, Control_c, 0, 64, 127
2, 11754, Note_on_c, 0, 74, 44
2, 11756, Note_on_c, 0, 60, 0
2, 11756, Note_on_c, 0, 66, 48
2, 11758, Note_on_c, 0, 64, 55
2, 11761, Note_on_c, 0, 50, 24
2, 11765, Note_on_c, 0, 69, 30
2, 11771, Note_on_c, 0, 50, 0
2, 11773, Note_on_c, 0, 64, 0
2, 11783, Note_on_c, 0, 69, 0
2, 11788, Note_on_c, 0, 66, 0
2, 11815, Note_on_c, 0, 74, 0
2, 11848, Control_c, 0, 64, 0
2, 11872, Note_on_c, 0, 43, 46
2, 11873, Control_c, 0, 64, 127
2, 11883, Note_on_c, 0, 43, 0
2, 11992, Note_on_c, 0, 81, 51
2, 11996, Note_on_c, 0, 76, 35
2, 11998, Note_on_c, 0, 64, 37
2, 11999, Note_on_c, 0, 59, 47
2, 12001, Note_on_c, 0, 69, 41
2, 12001, Note_on_c, 0, 53, 31
2, 12004, Control_c, 0, 64, 0
2, 12034, Control_c, 0, 64, 127
2, 12074, Control_c, 0, 64, 0
2, 12111, Control_c, 0, 64, 127
2, 12138, Note_on_c, 0, 64, 0
2, 12140, Note_on_c, 0, 69, 0
2, 12142, Note_on_c, 0, 81, 0
2, 12151, Note_on_c, 0, 76, 0
2, 12153, Note_on_c, 0, 53, 0
2, 12155, Note_on_c, 0, 59, 0
2, 12239, Control_c, 0, 64, 0
2, 12243, Note_on_c, 0, 79, 31
2, 12244, Note_on_c, 0, 62, 32
2, 12246, Note_on_c, 0, 74, 28
2, 12247, Note_on_c, 0, 67, 36
2, 12251, Note_on_c, 0, 59, 32
2, 12252, Note_on_c, 0, 52, 40
2, 12253, Note_on_c, 0, 55, 33
2, 12272, Control_c, 0, 64, 127
2, 12342, Control_c, 0, 64, 0
2, 12345, Note_on_c, 0, 67, 0
2, 12372, Note_on_c, 0, 74, 0
2, 12372, Control_c, 0, 64, 127
2, 12375, Note_on_c, 0, 67, 44
2, 12392, Note_on_c, 0, 79, 0
2, 12399, Note_on_c, 0, 67, 0
2, 12445, Note_on_c, 0, 72, 83
2, 12451, Note_on_c, 0, 55, 0
2, 12452, Note_on_c, 0, 52, 0
2, 12461, Note_on_c, 0, 59, 0
2, 12465, Note_on_c, 0, 62, 0
2, 12472, Control_c, 0, 64, 0
2, 12488, Note_on_c, 0, 72, 0
2, 12490, Control_c, 0, 64, 127
2, 12524, Note_on_c, 0, 73, 74
2, 12591, Note_on_c, 0, 73, 0
2, 12610, Control_c, 0, 64, 0
2, 12612, Note_on_c, 0, 65, 47
2, 12614, Note_on_c, 0, 77, 58
2, 12615, Note_on_c, 0, 61, 28
2, 12616, Note_on_c, 0, 55, 42
2, 12618, Note_on_c, 0, 60, 22
2, 12689, Note_on_c, 0, 78, 64
2, 12696, Note_on_c, 0, 77, 0
2, 12708, Control_c, 0, 64, 127
2, 12710, Note_on_c, 0, 78, 0
2, 12732, Note_on_c, 0, 65, 0
2, 12755, Note_on_c, 0, 61, 0
2, 12771, Note_on_c, 0, 84, 62
2, 12775, Note_on_c, 0, 65, 50
2, 12776, Note_on_c, 0, 61, 21
2, 12802, Note_on_c, 0, 65, 0
2, 12821, Note_on_c, 0, 84, 0
2, 12830, Note_on_c, 0, 60, 0
2, 12839, Note_on_c, 0, 61, 0
2, 12847, Note_on_c, 0, 55, 0
2, 12852, Note_on_c, 0, 85, 76
2, 12892, Note_on_c, 0, 85, 0
2, 12930, Note_on_c, 0, 88, 73
2, 12951, Control_c, 0, 64, 0
2, 12979, Note_on_c, 0, 88, 0
2, 12987, Note_on_c, 0, 60, 18
2, 12988, Note_on_c, 0, 86, 51
2, 12989, Note_on_c, 0, 57, 39
2, 12989, Note_on_c, 0, 53, 34
2, 12990, Note_on_c, 0, 50, 24
2, 12994, Control_c, 0, 64, 127
2, 13086, Note_on_c, 0, 53, 0
2, 13090, Note_on_c, 0, 50, 0
2, 13092, Note_on_c, 0, 57, 0
2, 13102, Note_on_c, 0, 60, 0
2, 13152, Note_on_c, 0, 86, 0
2, 13177, Note_on_c, 0, 88, 85
2, 13181, Note_on_c, 0, 86, 61
2, 13185, Control_c, 0, 64, 0
2, 13189, Note_on_c, 0, 86, 0
2, 13202, Control_c, 0, 64, 127
2, 13231, Note_on_c, 0, 88, 0
2, 13243, Note_on_c, 0, 55, 55
2, 13244, Note_on_c, 0, 65, 56
2, 13246, Note_on_c, 0, 60, 57
2, 13247, Note_on_c, 0, 89, 79
2, 13255, Note_on_c, 0, 88, 24
2, 13263, Note_on_c, 0, 88, 0
2, 13295, Note_on_c, 0, 60, 0
2, 13299, Note_on_c, 0, 65, 0
2, 13301, Note_on_c, 0, 55, 0
2, 13322, Note_on_c, 0, 89, 0
2, 13332, Control_c, 0, 64, 0
2, 13338, Note_on_c, 0, 91, 77
2, 13341, Note_on_c, 0, 79, 54
2, 13341, Note_on_c, 0, 59, 47
2, 13342, Note_on_c, 0, 53, 55
2, 13342, Note_on_c, 0, 64, 47
2, 13436, Note_on_c, 0, 79, 0
2, 13443, Control_c, 0, 64, 127
2, 13444, Note_on_c, 0, 91, 0
2, 13448, Note_on_c, 0, 64, 0
2, 13455, Note_on_c, 0, 53, 0
2, 13460, Note_on_c, 0, 59, 0
2, 13513, Control_c, 0, 64, 0
2, 13516, Note_on_c, 0, 95, 68
2, 13517, Note_on_c, 0, 53, 45
2, 13519, Note_on_c, 0, 59, 52
2, 13520, Note_on_c, 0, 83, 51
2, 13522, Note_on_c, 0, 63, 32
2, 13526, Note_on_c, 0, 56, 30
2, 13553, Control_c, 0, 64, 127
2, 13593, Note_on_c, 0, 63, 0
2, 13597, Note_on_c, 0, 59, 0
2, 13603, Note_on_c, 0, 53, 0
2, 13609, Note_on_c, 0, 56, 0
2, 13618, Note_on_c, 0, 95, 0
2, 13621, Note_on_c, 0, 83, 0
2, 13672, Note_on_c, 0, 91, 55
2, 13675, Note_on_c, 0, 62, 36
2, 13676, Control_c, 0, 64, 0
2, 13678, Note_on_c, 0, 59, 26
2, 13680, Note_on_c, 0, 55, 38
2, 13680, Note_on_c, 0, 52, 34
2, 13681, Note_on_c, 0, 79, 47
2, 13776, Note_on_c, 0, 91, 0
2, 13786, Control_c, 0, 64, 127
2, 13792, Note_on_c, 0, 79, 0
2, 13810, Note_on_c, 0, 62, 0
2, 13823, Note_on_c, 0, 59, 0
2, 13825, Note_on_c, 0, 55, 0
2, 13833, Note_on_c, 0, 52, 0
2, 13870, Note_on_c, 0, 59, 48
2, 13870, Note_on_c, 0, 62, 33
2, 13876, Note_on_c, 0, 52, 31
2, 13876, Note_on_c, 0, 55, 41
2, 13880, Note_on_c, 0, 62, 0
2, 13885, Note_on_c, 0, 59, 0
2, 13890, Note_on_c, 0, 55, 0
2, 13905, Note_on_c, 0, 52, 0
2, 13984, Note_on_c, 0, 67, 68
2, 14018, Note_on_c, 0, 67, 0
2, 14029, Control_c, 0, 64, 0
2, 14034, Note_on_c, 0, 64, 54
2, 14038, Note_on_c, 0, 36, 37
2, 14107, Note_on_c, 0, 43, 38
2, 14150, Note_on_c, 0, 52, 57
2, 14170, Control_c, 0, 64, 127
2, 14230, Note_on_c, 0, 36, 0
2, 14232, Control_c, 0, 64, 0
2, 14247, Note_on_c, 0, 43, 0
2, 14264, Note_on_c, 0, 52, 0
2, 14265, Control_c, 0, 64, 127
2, 14274, Note_on_c, 0, 59, 50
2, 14276, Note_on_c, 0, 55, 36
2, 14328, Note_on_c, 0, 55, 0
2, 14345, Note_on_c, 0, 59, 0
2, 14348, Note_on_c, 0, 49, 34
2, 14378, Note_on_c, 0, 49, 0
2, 14393, Note_on_c, 0, 42, 56
2, 14400, Control_c, 0, 64, 0
2, 14440, Note_on_c, 0, 64, 0
2, 14474, Note_on_c, 0, 66, 56
2, 14475, Note_on_c, 0, 57, 81
2, 14477, Note_on_c, 0, 62, 63
2, 14480, Note_on_c, 0, 54, 35
2, 14484, Note_on_c, 0, 57, 0
2, 14487, Note_on_c, 0, 62, 0
2, 14496, Note_on_c, 0, 66, 0
2, 14498, Note_on_c, 0, 54, 0
2, 14637, Note_on_c, 0, 66, 51
2, 14641, Note_on_c, 0, 62, 54
2, 14644, Control_c, 0, 64, 127
2, 14644, Note_on_c, 0, 57, 52
2, 14646, Note_on_c, 0, 42, 0
2, 14646, Note_on_c, 0, 54, 35
2, 14655, Note_on_c, 0, 57, 0
2, 14664, Note_on_c, 0, 54, 0
2, 14668, Note_on_c, 0, 62, 0
2, 14677, Note_on_c, 0, 66, 0
2, 14767, Note_on_c, 0, 72, 71
2, 14768, Note_on_c, 0, 65, 81
2, 14769, Note_on_c, 0, 69, 67
2, 14769, Note_on_c, 0, 60, 85
2, 14771, Note_on_c, 0, 47, 56
2, 14772, Note_on_c, 0, 57, 69
2, 14772, Note_on_c, 0, 51, 49
2, 14773, Control_c, 0, 64, 0
2, 14882, Control_c, 0, 64, 127
2, 14900, Note_on_c, 0, 51, 0
2, 14900, Note_on_c, 0, 57, 0
2, 14904, Note_on_c, 0, 69, 0
2, 14907, Note_on_c, 0, 65, 0
2, 14918, Note_on_c, 0, 60, 0
2, 14950, Note_on_c, 0, 72, 0
2, 14962, Note_on_c, 0, 60, 54
2, 14963, Note_on_c, 0, 69, 49
2, 14964, Note_on_c, 0, 57, 49
2, 14964, Note_on_c, 0, 65, 54
2, 14965, Note_on_c, 0, 51, 39
2, 14977, Note_on_c, 0, 47, 0
2, 14980, Note_on_c, 0, 57, 0
2, 14980, Note_on_c, 0, 51, 0
2, 15020, Note_on_c, 0, 60, 0
2, 15023, Note_on_c, 0, 69, 0
2, 15026, Note_on_c, 0, 65, 0
2, 15114, Note_on_c, 0, 40, 52
2, 15119, Note_on_c, 0, 47, 42
2, 15120, Note_on_c, 0, 71, 74
2, 15121, Control_c, 0, 64, 0
2, 15121, Note_on_c, 0, 67, 81
2, 15122, Note_on_c, 0, 62, 82
2, 15122, Note_on_c, 0, 55, 72
2, 15130, Note_on_c, 0, 55, 0
2, 15135, Note_on_c, 0, 55, 34
2, 15215, Note_on_c, 0, 55, 0
2, 15218, Control_c, 0, 64, 127
2, 15219, Note_on_c, 0, 67, 0
2, 15224, Note_on_c, 0, 47, 0
2, 15232, Note_on_c, 0, 71, 0
2, 15245, Note_on_c, 0, 62, 0
2, 15303, Note_on_c, 0, 40, 0
2, 15313, Note_on_c, 0, 67, 63
2, 15315, Note_on_c, 0, 47, 36
2, 15315, Note_on_c, 0, 62, 62
2, 15322, Note_on_c, 0, 55, 32
2, 15330, Note_on_c, 0, 47, 0
2, 15348, Note_on_c, 0, 55, 0
2, 15357, Note_on_c, 0, 67, 0
2, 15371, Note_on_c, 0, 62, 0
2, 15472, Control_c, 0, 64, 0
2, 15475, Note_on_c, 0, 64, 47
2, 15478, Note_on_c, 0, 55, 37
2, 15478, Note_on_c, 0, 61, 36
2, 15479, Note_on_c, 0, 58, 46
2, 15481, Note_on_c, 0, 45, 40
2, 15483, Note_on_c, 0, 52, 35
2, 15517, Control_c, 0, 64, 127
2, 15563, Note_on_c, 0, 55, 0
2, 15587, Note_on_c, 0, 58, 0
2, 15594, Note_on_c, 0, 61, 0
2, 15595, Note_on_c, 0, 64, 0
2, 15624, Note_on_c, 0, 45, 0
2, 15641, Note_on_c, 0, 52, 0
2, 15673, Note_on_c, 0, 45, 68
2, 15682, Note_on_c, 0, 45, 0
2, 15810, Note_on_c, 0, 63, 47
2, 15812, Note_on_c, 0, 62, 26
2, 15822, Note_on_c, 0, 62, 0
2, 15825, Note_on_c, 0, 64, 63
2, 15830, Control_c, 0, 64, 0
2, 15832, Note_on_c, 0, 63, 0
2, 15837, Note_on_c, 0, 77, 77
2, 15837, Note_on_c, 0, 81, 80
2, 15838, Note_on_c, 0, 65, 79
2, 15838, Note_on_c, 0, 72, 83
2, 15847, Note_on_c, 0, 64, 0
2, 15858, Control_c, 0, 64, 127
2, 15927, Note_on_c, 0, 81, 0
2, 15940, Note_on_c, 0, 77, 0
2, 15950, Note_on_c, 0, 72, 0
2, 15978, Note_on_c, 0, 65, 0
2, 15989, Note_on_c, 0, 60, 25
2, 16020, Note_on_c, 0, 60, 0
2, 16024, Note_on_c, 0, 79, 68
2, 16025, Note_on_c, 0, 62, 64
2, 16026, Note_on_c, 0, 76, 44
2, 16027, Note_on_c, 0, 70, 72
2, 16027, Note_on_c, 0, 73, 60
2, 16028, Note_on_c, 0, 64, 65
2, 16034, Note_on_c, 0, 62, 0
2, 16034, Control_c, 0, 64, 0
2, 16081, Control_c, 0, 64, 127
2, 16119, Note_on_c, 0, 79, 0
2, 16128, Note_on_c, 0, 76, 0
2, 16136, Note_on_c, 0, 70, 0
2, 16145, Note_on_c, 0, 64, 0
2, 16159, Note_on_c, 0, 73, 0
2, 16189, Note_on_c, 0, 60, 44
2, 16194, Control_c, 0, 64, 0
2, 16199, Note_on_c, 0, 69, 58
2, 16199, Note_on_c, 0, 77, 48
2, 16202, Note_on_c, 0, 72, 46
2, 16203, Note_on_c, 0, 74, 36
2, 16204, Note_on_c, 0, 62, 60
2, 16210, Note_on_c, 0, 60, 0
2, 16227, Control_c, 0, 64, 127
2, 16279, Control_c, 0, 64, 0
2, 16305, Control_c, 0, 64, 127
2, 16315, Note_on_c, 0, 74, 0
2, 16320, Note_on_c, 0, 77, 0
2, 16328, Note_on_c, 0, 72, 0
2, 16334, Note_on_c, 0, 69, 0
2, 16343, Note_on_c, 0, 62, 0
2, 16363, Note_on_c, 0, 57, 10
2, 16376, Note_on_c, 0, 57, 0
2, 16392, Note_on_c, 0, 76, 35
2, 16394, Note_on_c, 0, 70, 49
2, 16396, Note_on_c, 0, 73, 35
2, 16397, Note_on_c, 0, 67, 48
2, 16401, Note_on_c, 0, 61, 52
2, 16402, Control_c, 0, 64, 0
2, 16440, Control_c, 0, 64, 127
2, 16495, Note_on_c, 0, 61, 0
2, 16500, Note_on_c, 0, 67, 0
2, 16516, Note_on_c, 0, 70, 0
2, 16520, Note_on_c, 0, 73, 0
2, 16531, Note_on_c, 0, 76, 0
2, 16547, Note_on_c, 0, 59, 45
2, 16553, Control_c, 0, 64, 0
2, 16561, Note_on_c, 0, 74, 34
2, 16563, Note_on_c, 0, 59, 0
2, 16565, Note_on_c, 0, 69, 46
2, 16566, Note_on_c, 0, 65, 36
2, 16569, Note_on_c, 0, 60, 41
2, 16585, Control_c, 0, 64, 127
2, 16625, Note_on_c, 0, 60, 0
2, 16639, Note_on_c, 0, 74, 0
2, 16641, Note_on_c, 0, 69, 0
2, 16644, Note_on_c, 0, 65, 0
2, 16750, Note_on_c, 0, 54, 34
2, 16751, Note_on_c, 0, 72, 44
2, 16753, Note_on_c, 0, 44, 33
2, 16754, Note_on_c, 0, 68, 36
2, 16756, Note_on_c, 0, 60, 39
2, 16756, Note_on_c, 0, 65, 48
2, 16766, Control_c, 0, 64, 0
2, 16801, Control_c, 0, 64, 127
2, 16828, Note_on_c, 0, 72, 0
2, 16840, Note_on_c, 0, 65, 0
2, 16841, Note_on_c, 0, 60, 0
2, 16849, Note_on_c, 0, 68, 0
2, 16853, Note_on_c, 0, 54, 0
2, 16882, Note_on_c, 0, 44, 0
2, 16925, Note_on_c, 0, 71, 33
2, 16929, Note_on_c, 0, 43, 37
2, 16930, Note_on_c, 0, 67, 33
2, 16931, Note_on_c, 0, 59, 33
2, 16932, Control_c, 0, 64, 0
2, 16932, Note_on_c, 0, 64, 45
2, 16937, Note_on_c, 0, 53, 32
2, 17039, Control_c, 0, 64, 127
2, 17058, Note_on_c, 0, 67, 0
2, 17062, Note_on_c, 0, 71, 0
2, 17064, Note_on_c, 0, 64, 0
2, 17079, Note_on_c, 0, 59, 0
2, 17082, Note_on_c, 0, 43, 0
2, 17089, Note_on_c, 0, 53, 0
2, 17115, Note_on_c, 0, 66, 60
2, 17119, Note_on_c, 0, 58, 64
2, 17119, Note_on_c, 0, 61, 63
2, 17124, Note_on_c, 0, 51, 51
2, 17124, Control_c, 0, 64, 0
2, 17162, Control_c, 0, 64, 127
2, 17221, Note_on_c, 0, 58, 0
2, 17227, Note_on_c, 0, 49, 25
2, 17231, Note_on_c, 0, 66, 0
2, 17238, Note_on_c, 0, 61, 0
2, 17249, Note_on_c, 0, 51, 0
2, 17255, Control_c, 0, 64, 0
2, 17256, Note_on_c, 0, 49, 0
2, 17271, Note_on_c, 0, 65, 38
2, 17273, Note_on_c, 0, 50, 45
2, 17274, Note_on_c, 0, 57, 50
2, 17278, Note_on_c, 0, 60, 42
2, 17287, Control_c, 0, 64, 127
2, 17320, Note_on_c, 0, 57, 0
2, 17340, Control_c, 0, 64, 0
2, 17349, Note_on_c, 0, 38, 64
2, 17350, Note_on_c, 0, 60, 0
2, 17356, Note_on_c, 0, 65, 0
2, 17362, Note_on_c, 0, 38, 0
2, 17376, Note_on_c, 0, 50, 0
2, 17378, Control_c, 0, 64, 127
2, 17467, Note_on_c, 0, 79, 82
2, 17468, Note_on_c, 0, 72, 85
2, 17469, Note_on_c, 0, 69, 83
2, 17473, Note_on_c, 0, 53, 59
2, 17474, Note_on_c, 0, 60, 62
2, 17475, Note_on_c, 0, 64, 67
2, 17475, Note_on_c, 0, 57, 71
2, 17476, Control_c, 0, 64, 0
2, 17513, Control_c, 0, 64, 127
2, 17556, Note_on_c, 0, 72, 0
2, 17559, Note_on_c, 0, 60, 0
2, 17561, Note_on_c, 0, 69, 0
2, 17569, Note_on_c, 0, 57, 0
2, 17573, Note_on_c, 0, 53, 0
2, 17579, Note_on_c, 0, 64, 0
2, 17583, Note_on_c, 0, 79, 0
2, 17631, Control_c, 0, 64, 0
2, 17637, Note_on_c, 0, 79, 49
2, 17639, Note_on_c, 0, 74, 44
2, 17640, Note_on_c, 0, 67, 50
2, 17641, Note_on_c, 0, 59, 43
2, 17641, Note_on_c, 0, 64, 46
2, 17644, Note_on_c, 0, 53, 39
2, 17659, Control_c, 0, 64, 127
2, 17697, Note_on_c, 0, 64, 0
2, 17706, Note_on_c, 0, 59, 0
2, 17715, Note_on_c, 0, 53, 0
2, 17837, Note_on_c, 0, 43, 55
2, 17847, Control_c, 0, 64, 0
2, 17854, Note_on_c, 0, 79, 0
2, 17855, Note_on_c, 0, 74, 0
2, 17858, Note_on_c, 0, 43, 0
2, 17870, Control_c, 0, 64, 127
2, 17903, Note_on_c, 0, 67, 0
2, 17954, Note_on_c, 0, 77, 55
2, 17981, Note_on_c, 0, 77, 0
2, 17987, Control_c, 0, 64, 0
2, 18001, Note_on_c, 0, 76, 33
2, 18026, Note_on_c, 0, 76, 0
2, 18071, Note_on_c, 0, 36, 36
2, 18075, Note_on_c, 0, 43, 33
2, 18081, Note_on_c, 0, 52, 30
2, 18128, Control_c, 0, 64, 127
2, 18134, Note_on_c, 0, 67, 40
2, 18145, Note_on_c, 0, 67, 0
2, 18201, Control_c, 0, 64, 0
2, 18209, Note_on_c, 0, 36, 0
2, 18219, Note_on_c, 0, 43, 0
2, 18241, Control_c, 0, 64, 127
2, 18241, Note_on_c, 0, 72, 85
2, 18245, Note_on_c, 0, 52, 0
2, 18342, Note_on_c, 0, 72, 0
2, 18353, Control_c, 0, 64, 0
2, 18355, Note_on_c, 0, 41, 29
2, 18361, Note_on_c, 0, 67, 39
2, 18372, Note_on_c, 0, 48, 22
2, 18374, Note_on_c, 0, 57, 38
2, 18376, Control_c, 0, 64, 127
2, 18408, Note_on_c, 0, 41, 0
2, 18417, Note_on_c, 0, 48, 0
2, 18440, Note_on_c, 0, 57, 0
2, 18449, Note_on_c, 0, 67, 0
2, 18551, Note_on_c, 0, 64, 34
2, 18552, Control_c, 0, 64, 0
2, 18556, Note_on_c, 0, 53, 28
2, 18556, Note_on_c, 0, 60, 38
2, 18557, Note_on_c, 0, 57, 40
2, 18574, Control_c, 0, 64, 127
2, 18594, Note_on_c, 0, 64, 0
2, 18596, Note_on_c, 0, 60, 0
2, 18597, Note_on_c, 0, 57, 0
2, 18610, Note_on_c, 0, 53, 0
2, 18723, Note_on_c, 0, 47, 57
2, 18735, Control_c, 0, 64, 0
2, 18745, Control_c, 0, 64, 127
2, 18748, Note_on_c, 0, 47, 0
2, 18843, Note_on_c, 0, 57, 29
2, 18844, Note_on_c, 0, 65, 37
2, 18845, Note_on_c, 0, 62, 32
2, 18855, Control_c, 0, 64, 0
2, 18911, Note_on_c, 0, 74, 52
2, 18927, Note_on_c, 0, 74, 0
2, 18963, Control_c, 0, 64, 127
2, 18966, Note_on_c, 0, 76, 54
2, 18978, Note_on_c, 0, 76, 0
2, 18984, Note_on_c, 0, 57, 0
2, 19034, Note_on_c, 0, 77, 85
2, 19035, Note_on_c, 0, 74, 90
2, 19065, Note_on_c, 0, 65, 0
2, 19070, Control_c, 0, 64, 0
2, 19081, Note_on_c, 0, 62, 0
2, 19087, Note_on_c, 0, 74, 0
2, 19088, Note_on_c, 0, 56, 35
2, 19092, Note_on_c, 0, 77, 0
2, 19101, Note_on_c, 0, 76, 34
2, 19103, Note_on_c, 0, 72, 36
2, 19113, Control_c, 0, 64, 127
2, 19138, Note_on_c, 0, 72, 0
2, 19151, Note_on_c, 0, 76, 0
2, 19163, Note_on_c, 0, 74, 58
2, 19166, Note_on_c, 0, 77, 52
2, 19173, Note_on_c, 0, 67, 35
2, 19176, Control_c, 0, 64, 0
2, 19181, Note_on_c, 0, 62, 26
2, 19186, Note_on_c, 0, 67, 0
2, 19195, Note_on_c, 0, 62, 0
2, 19202, Note_on_c, 0, 74, 0
2, 19203, Note_on_c, 0, 77, 0
2, 19206, Control_c, 0, 64, 127
2, 19219, Note_on_c, 0, 56, 0
2, 19222, Note_on_c, 0, 72, 22
2, 19224, Note_on_c, 0, 76, 24
2, 19260, Note_on_c, 0, 72, 0
2, 19305, Note_on_c, 0, 76, 0
2, 19322, Note_on_c, 0, 71, 46
2, 19323, Note_on_c, 0, 74, 43
2, 19369, Note_on_c, 0, 71, 0
2, 19382, Note_on_c, 0, 74, 0
2, 19402, Note_on_c, 0, 52, 41
2, 19416, Control_c, 0, 64, 0
2, 19427, Note_on_c, 0, 52, 0
2, 19440, Note_on_c, 0, 45, 51
2, 19442, Control_c, 0, 64, 127
2, 19449, Note_on_c, 0, 45, 0
2, 19561, Note_on_c, 0, 76, 79
2, 19562, Note_on_c, 0, 72, 91
2, 19563, Note_on_c, 0, 64, 52
2, 19565, Note_on_c, 0, 59, 50
2, 19565, Note_on_c, 0, 60, 51
2, 19566, Note_on_c, 0, 55, 43
2, 19634, Note_on_c, 0, 72, 0
2, 19645, Note_on_c, 0, 64, 0
2, 19680, Note_on_c, 0, 64, 44
2, 19705, Note_on_c, 0, 55, 0
2, 19709, Note_on_c, 0, 60, 0
2, 19710, Note_on_c, 0, 64, 0
2, 19714, Note_on_c, 0, 59, 0
2, 19734, Note_on_c, 0, 76, 0
2, 19759, Note_on_c, 0, 72, 44
2, 19805, Note_on_c, 0, 65, 53
2, 19806, Note_on_c, 0, 61, 35
2, 19807, Note_on_c, 0, 60, 38
2, 19808, Note_on_c, 0, 67, 66
2, 19812, Note_on_c, 0, 72, 0
2, 19812, Note_on_c, 0, 55, 36
2, 19813, Control_c, 0, 64, 0
2, 19901, Note_on_c, 0, 67, 0
2, 19910, Control_c, 0, 64, 127
2, 19937, Note_on_c, 0, 65, 0
2, 19943, Note_on_c, 0, 55, 0
2, 19952, Note_on_c, 0, 60, 0
2, 19954, Note_on_c, 0, 61, 0
2, 19995, Note_on_c, 0, 61, 43
2, 19996, Note_on_c, 0, 65, 58
2, 19996, Note_on_c, 0, 60, 45
2, 19998, Note_on_c, 0, 55, 44
2, 20006, Control_c, 0, 64, 0
2, 20023, Control_c, 0, 64, 127
2, 20034, Note_on_c, 0, 65, 0
2, 20044, Note_on_c, 0, 60, 0
2, 20046, Note_on_c, 0, 61, 0
2, 20055, Note_on_c, 0, 55, 0
2, 20151, Control_c, 0, 64, 0
2, 20159, Note_on_c, 0, 50, 34
2, 20160, Note_on_c, 0, 69, 44
2, 20161, Note_on_c, 0, 60, 30
2, 20161, Note_on_c, 0, 57, 38
2, 20163, Note_on_c, 0, 65, 32
2, 20176, Control_c, 0, 64, 127
2, 20238, Note_on_c, 0, 60, 0
2, 20270, Note_on_c, 0, 57, 0
2, 20279, Note_on_c, 0, 65, 0
2, 20285, Note_on_c, 0, 69, 0
2, 20338, Note_on_c, 0, 50, 0
2, 20343, Note_on_c, 0, 66, 23
2, 20353, Note_on_c, 0, 66, 0
2, 20418, Note_on_c, 0, 62, 70
2, 20441, Note_on_c, 0, 62, 0
2, 20456, Note_on_c, 0, 64, 78
2, 20478, Note_on_c, 0, 64, 0
2, 20490, Note_on_c, 0, 65, 91
2, 20519, Note_on_c, 0, 65, 0
2, 20525, Control_c, 0, 64, 0
2, 20534, Note_on_c, 0, 64, 90
2, 20534, Note_on_c, 0, 43, 54
2, 20536, Note_on_c, 0, 53, 53
2, 20629, Note_on_c, 0, 53, 0
2, 20632, Control_c, 0, 64, 127
2, 20636, Note_on_c, 0, 43, 0
2, 20707, Note_on_c, 0, 64, 0
2, 20713, Control_c, 0, 64, 0
2, 20713, Note_on_c, 0, 41, 60
2, 20715, Note_on_c, 0, 62, 71
2, 20748, Note_on_c, 0, 41, 0
2, 20748, Control_c, 0, 64, 127
2, 20815, Note_on_c, 0, 62, 0
2, 20879, Note_on_c, 0, 40, 58
2, 20884, Note_on_c, 0, 47, 50
2, 20885, Note_on_c, 0, 55, 64
2, 20886, Control_c, 0, 64, 0
2, 20998, Control_c, 0, 64, 127
2, 21005, Note_on_c, 0, 64, 77
2, 21008, Note_on_c, 0, 62, 72
2, 21038, Note_on_c, 0, 62, 0
2, 21050, Note_on_c, 0, 40, 0
2, 21063, Note_on_c, 0, 47, 0
2, 21073, Note_on_c, 0, 64, 0
2, 21080, Note_on_c, 0, 55, 0
2, 21122, Note_on_c, 0, 67, 84
2, 21149, Note_on_c, 0, 67, 0
2, 21234, Control_c, 0, 64, 0
2, 21236, Note_on_c, 0, 74, 79
2, 21238, Note_on_c, 0, 67, 95
2, 21238, Note_on_c, 0, 59, 92
2, 21238, Note_on_c, 0, 71, 72
2, 21239, Note_on_c, 0, 64, 96
2, 21244, Note_on_c, 0, 72, 54
2, 21252, Note_on_c, 0, 72, 0
2, 21284, Control_c, 0, 64, 127
2, 21345, Note_on_c, 0, 71, 0
2, 21356, Note_on_c, 0, 67, 0
2, 21356, Note_on_c, 0, 74, 0
2, 21361, Note_on_c, 0, 64, 0
2, 21410, Note_on_c, 0, 59, 0
2, 21437, Note_on_c, 0, 71, 46
2, 21439, Note_on_c, 0, 64, 60
2, 21440, Note_on_c, 0, 60, 54
2, 21441, Note_on_c, 0, 67, 53
2, 21443, Note_on_c, 0, 55, 57
2, 21445, Control_c, 0, 64, 0
2, 21470, Control_c, 0, 64, 127
2, 21480, Note_on_c, 0, 55, 0
2, 21499, Note_on_c, 0, 71, 0
2, 21500, Note_on_c, 0, 67, 0
2, 21508, Note_on_c, 0, 64, 0
2, 21510, Note_on_c, 0, 60, 0
2, 21600, Control_c, 0, 64, 0
2, 21607, Note_on_c, 0, 64, 51
2, 21608, Note_on_c, 0, 67, 49
2, 21610, Note_on_c, 0, 60, 50
2, 21612, Note_on_c, 0, 55, 36
2, 21612, Note_on_c, 0, 57, 42
2, 21614, Note_on_c, 0, 53, 34
2, 21640, Control_c, 0, 64, 127
2, 21676, Note_on_c, 0, 57, 0
2, 21677, Note_on_c, 0, 55, 0
2, 21683, Note_on_c, 0, 53, 0
2, 21686, Note_on_c, 0, 67, 0
2, 21691, Note_on_c, 0, 60, 0
2, 21691, Note_on_c, 0, 64, 0
2, 21794, Note_on_c, 0, 64, 37
2, 21794, Note_on_c, 0, 57, 56
2, 21797, Note_on_c, 0, 50, 38
2, 21798, Note_on_c, 0, 53, 39
2, 21798, Control_c, 0, 64, 0
2, 21800, Note_on_c, 0, 60, 46
2, 21841, Control_c, 0, 64, 127
2, 21880, Note_on_c, 0, 60, 0
2, 21883, Note_on_c, 0, 53, 0
2, 21887, Note_on_c, 0, 57, 0
2, 21908, Note_on_c, 0, 64, 0
2, 21955, Note_on_c, 0, 50, 0
2, 21956, Control_c, 0, 64, 0
2, 21961, Note_on_c, 0, 56, 34
2, 21962, Note_on_c, 0, 43, 37
2, 21964, Note_on_c, 0, 59, 49
2, 21965, Note_on_c, 0, 62, 42
2, 21965, Note_on_c, 0, 53, 34
2, 22049, Note_on_c, 0, 53, 0
2, 22070, Note_on_c, 0, 59, 0
2, 22071, Control_c, 0, 64, 127
2, 22100, Note_on_c, 0, 56, 0
2, 22120, Note_on_c, 0, 43, 0
2, 22120, Note_on_c, 0, 62, 0
2, 22148, Note_on_c, 0, 55, 47
2, 22151, Note_on_c, 0, 59, 55
2, 22154, Note_on_c, 0, 43, 27
2, 22157, Note_on_c, 0, 53, 48
2, 22158, Note_on_c, 0, 56, 25
2, 22164, Note_on_c, 0, 43, 0
2, 22166, Note_on_c, 0, 56, 0
2, 22173, Note_on_c, 0, 55, 0
2, 22174, Note_on_c, 0, 53, 0
2, 22187, Note_on_c, 0, 59, 0
2, 22314, Note_on_c, 0, 71, 65
2, 22315, Note_on_c, 0, 47, 70
2, 22319, Note_on_c, 0, 61, 61
2, 22319, Note_on_c, 0, 67, 68
2, 22320, Control_c, 0, 64, 0
2, 22323, Note_on_c, 0, 63, 46
2, 22432, Control_c, 0, 64, 127
2, 22456, Note_on_c, 0, 67, 0
2, 22473, Note_on_c, 0, 71, 0
2, 22484, Note_on_c, 0, 47, 0
2, 22484, Note_on_c, 0, 63, 0
2, 22491, Note_on_c, 0, 61, 0
2, 22523, Note_on_c, 0, 61, 61
2, 22524, Note_on_c, 0, 68, 57
2, 22527, Note_on_c, 0, 47, 55
2, 22527, Note_on_c, 0, 64, 69
2, 22530, Control_c, 0, 64, 0
2, 22560, Control_c, 0, 64, 127
2, 22575, Note_on_c, 0, 47, 0
2, 22590, Note_on_c, 0, 64, 0
2, 22605, Note_on_c, 0, 68, 0
2, 22606, Note_on_c, 0, 61, 0
2, 22691, Control_c, 0, 64, 0
2, 22691, Note_on_c, 0, 66, 52
2, 22696, Note_on_c, 0, 57, 50
2, 22698, Note_on_c, 0, 47, 35
2, 22698, Note_on_c, 0, 35, 39
2, 22699, Note_on_c, 0, 61, 53
2, 22809, Control_c, 0, 64, 127
2, 22821, Note_on_c, 0, 47, 0
2, 22823, Note_on_c, 0, 57, 0
2, 22831, Note_on_c, 0, 61, 0
2, 22867, Note_on_c, 0, 66, 0
2, 22876, Note_on_c, 0, 61, 52
2, 22879, Note_on_c, 0, 57, 52
2, 22884, Note_on_c, 0, 47, 39
2, 22905, Note_on_c, 0, 57, 0
2, 22905, Note_on_c, 0, 35, 0
2, 22916, Note_on_c, 0, 47, 0
2, 22927, Note_on_c, 0, 61, 0
2, 23039, Note_on_c, 0, 75, 78
2, 23041, Note_on_c, 0, 68, 80
2, 23042, Note_on_c, 0, 65, 89
2, 23043, Note_on_c, 0, 51, 83
2, 23043, Note_on_c, 0, 73, 65
2, 23045, Note_on_c, 0, 39, 71
2, 23049, Control_c, 0, 64, 0
2, 23147, Control_c, 0, 64, 127
2, 23183, Note_on_c, 0, 51, 0
2, 23192, Note_on_c, 0, 65, 0
2, 23203, Note_on_c, 0, 75, 0
2, 23203, Note_on_c, 0, 68, 0
2, 23219, Note_on_c, 0, 73, 0
2, 23240, Note_on_c, 0, 72, 66
2, 23242, Note_on_c, 0, 68, 67
2, 23242, Note_on_c, 0, 51, 76
2, 23242, Note_on_c, 0, 65, 78
2, 23248, Control_c, 0, 64, 0
2, 23278, Control_c, 0, 64, 127
2, 23333, Note_on_c, 0, 72, 0
2, 23336, Note_on_c, 0, 68, 0
2, 23342, Note_on_c, 0, 65, 0
2, 23375, Note_on_c, 0, 51, 0
2, 23383, Note_on_c, 0, 39, 0
2, 23414, Note_on_c, 0, 70, 63
2, 23415, Note_on_c, 0, 61, 42
2, 23416, Note_on_c, 0, 39, 44
2, 23416, Note_on_c, 0, 51, 54
2, 23418, Note_on_c, 0, 65, 60
2, 23419, Control_c, 0, 64, 0
2, 23497, Note_on_c, 0, 65, 0
2, 23509, Control_c, 0, 64, 127
2, 23513, Note_on_c, 0, 61, 0
2, 23539, Note_on_c, 0, 51, 0
2, 23547, Note_on_c, 0, 70, 0
2, 23590, Note_on_c, 0, 63, 46
2, 23595, Note_on_c, 0, 51, 39
2, 23596, Note_on_c, 0, 60, 42
2, 23609, Note_on_c, 0, 39, 0
2, 23613, Note_on_c, 0, 60, 0
2, 23623, Note_on_c, 0, 51, 0
2, 23629, Note_on_c, 0, 63, 0
2, 23762, Control_c, 0, 64, 0
2, 23769, Note_on_c, 0, 72, 42
2, 23770, Note_on_c, 0, 79, 44
2, 23771, Note_on_c, 0, 76, 36
2, 23772, Note_on_c, 0, 55, 58
2, 23795, Control_c, 0, 64, 127
2, 23810, Note_on_c, 0, 76, 0
2, 23824, Note_on_c, 0, 72, 0
2, 23826, Note_on_c, 0, 79, 0
2, 23896, Note_on_c, 0, 76, 31
2, 23898, Note_on_c, 0, 69, 50
2, 23902, Note_on_c, 0, 72, 44
2, 23930, Note_on_c, 0, 69, 0
2, 23953, Note_on_c, 0, 72, 0
2, 23955, Note_on_c, 0, 76, 0
2, 23969, Note_on_c, 0, 77, 55
2, 23970, Note_on_c, 0, 71, 46
2, 23975, Note_on_c, 0, 74, 47
2, 23978, Note_on_c, 0, 76, 27
2, 23995, Note_on_c, 0, 71, 0
2, 24001, Note_on_c, 0, 74, 0
2, 24007, Note_on_c, 0, 76, 0
2, 24011, Note_on_c, 0, 77, 0
2, 24037, Note_on_c, 0, 79, 71
2, 24040, Note_on_c, 0, 72, 70
2, 24041, Note_on_c, 0, 76, 46
2, 24071, Note_on_c, 0, 72, 0
2, 24079, Note_on_c, 0, 76, 0
2, 24083, Note_on_c, 0, 79, 0
2, 24104, Note_on_c, 0, 81, 68
2, 24106, Note_on_c, 0, 74, 63
2, 24107, Note_on_c, 0, 77, 60
2, 24141, Note_on_c, 0, 74, 0
2, 24144, Note_on_c, 0, 81, 0
2, 24146, Note_on_c, 0, 77, 0
2, 24169, Note_on_c, 0, 43, 42
2, 24173, Note_on_c, 0, 83, 53
2, 24173, Note_on_c, 0, 76, 38
2, 24176, Control_c, 0, 64, 0
2, 24178, Note_on_c, 0, 79, 48
2, 24194, Control_c, 0, 64, 127
2, 24219, Note_on_c, 0, 83, 0
2, 24221, Note_on_c, 0, 76, 0
2, 24221, Note_on_c, 0, 79, 0
2, 24246, Note_on_c, 0, 84, 57
2, 24276, Note_on_c, 0, 84, 0
2, 24278, Note_on_c, 0, 55, 0
2, 24330, Note_on_c, 0, 74, 24
2, 24333, Note_on_c, 0, 83, 16
2, 24335, Note_on_c, 0, 55, 32
2, 24336, Note_on_c, 0, 79, 22
2, 24454, Note_on_c, 0, 43, 0
2, 24460, Note_on_c, 0, 79, 0
2, 24470, Control_c, 0, 64, 127
2, 24505, Note_on_c, 0, 83, 0
2, 24517, Note_on_c, 0, 74, 0
2, 24527, Note_on_c, 0, 55, 0
2, 24596, Control_c, 0, 64, 0
2, 24616, Note_on_c, 0, 49, 45
2, 24616, Note_on_c, 0, 79, 69
2, 24617, Note_on_c, 0, 75, 64
2, 24618, Note_on_c, 0, 55, 38
2, 24618, Note_on_c, 0, 72, 62
2, 24618, Note_on_c, 0, 60, 37
2, 24657, Control_c, 0, 64, 127
2, 24678, Note_on_c, 0, 79, 0
2, 24687, Note_on_c, 0, 75, 0
2, 24694, Note_on_c, 0, 72, 0
2, 24759, Note_on_c, 0, 75, 53
2, 24759, Note_on_c, 0, 68, 50
2, 24762, Note_on_c, 0, 72, 47
2, 24782, Note_on_c, 0, 68, 0
2, 24790, Note_on_c, 0, 72, 0
2, 24807, Note_on_c, 0, 75, 0
2, 24824, Note_on_c, 0, 70, 64
2, 24824, Note_on_c, 0, 77, 57
2, 24826, Note_on_c, 0, 73, 55
2, 24828, Note_on_c, 0, 75, 33
2, 24838, Note_on_c, 0, 70, 0
2, 24843, Note_on_c, 0, 77, 0
2, 24843, Note_on_c, 0, 73, 0
2, 24851, Note_on_c, 0, 75, 0
2, 24885, Note_on_c, 0, 79, 73
2, 24886, Note_on_c, 0, 75, 70
2, 24887, Note_on_c, 0, 72, 74
2, 24901, Note_on_c, 0, 72, 0
2, 24912, Note_on_c, 0, 79, 0
2, 24919, Note_on_c, 0, 75, 0
2, 24949, Note_on_c, 0, 73, 70
2, 24950, Note_on_c, 0, 80, 69
2, 24950, Note_on_c, 0, 77, 68
2, 24978, Note_on_c, 0, 77, 0
2, 24978, Note_on_c, 0, 73, 0
2, 24984, Note_on_c, 0, 80, 0
2, 24986, Note_on_c, 0, 60, 0
2, 25021, Note_on_c, 0, 82, 57
2, 25022, Control_c, 0, 64, 0
2, 25022, Note_on_c, 0, 75, 50
2, 25023, Note_on_c, 0, 79, 58
2, 25023, Note_on_c, 0, 60, 49
2, 25036, Control_c, 0, 64, 127
2, 25050, Note_on_c, 0, 79, 0
2, 25059, Note_on_c, 0, 75, 0
2, 25068, Note_on_c, 0, 82, 0
2, 25090, Note_on_c, 0, 84, 62
2, 25094, Note_on_c, 0, 80, 45
2, 25107, Note_on_c, 0, 80, 0
2, 25111, Note_on_c, 0, 84, 0
2, 25137, Note_on_c, 0, 60, 0
2, 25166, Note_on_c, 0, 75, 25
2, 25174, Note_on_c, 0, 60, 34
2, 25174, Note_on_c, 0, 82, 25
2, 25175, Note_on_c, 0, 79, 24
2, 25210, Note_on_c, 0, 79, 0
2, 25227, Note_on_c, 0, 75, 0
2, 25247, Note_on_c, 0, 82, 0
2, 25253, Note_on_c, 0, 60, 0
2, 25359, Note_on_c, 0, 55, 0
2, 25412, Note_on_c, 0, 49, 0
2, 25565, Control_c, 0, 64, 0
2, 25567, Note_on_c, 0, 75, 70
2, 25567, Note_on_c, 0, 68, 71
2, 25568, Note_on_c, 0, 72, 73
2, 25569, Note_on_c, 0, 49, 42
2, 25570, Note_on_c, 0, 55, 48
2, 25573, Note_on_c, 0, 60, 44
2, 25595, Control_c, 0, 64, 127
2, 25627, Note_on_c, 0, 68, 0
2, 25644, Note_on_c, 0, 72, 0
2, 25648, Note_on_c, 0, 75, 0
2, 25649, Note_on_c, 0, 77, 55
2, 25649, Note_on_c, 0, 70, 60
2, 25653, Note_on_c, 0, 73, 55
2, 25673, Note_on_c, 0, 70, 0
2, 25675, Note_on_c, 0, 60, 0
2, 25676, Note_on_c, 0, 77, 0
2, 25679, Note_on_c, 0, 73, 0
2, 25712, Note_on_c, 0, 75, 71
2, 25713, Note_on_c, 0, 79, 72
2, 25713, Note_on_c, 0, 72, 77
2, 25719, Note_on_c, 0, 60, 50
2, 25751, Note_on_c, 0, 79, 0
2, 25757, Note_on_c, 0, 72, 0
2, 25759, Note_on_c, 0, 75, 0
2, 25774, Note_on_c, 0, 79, 55
2, 25774, Note_on_c, 0, 75, 63
2, 25775, Note_on_c, 0, 72, 69
2, 25788, Note_on_c, 0, 60, 0
2, 25795, Note_on_c, 0, 72, 0
2, 25800, Note_on_c, 0, 79, 0
2, 25807, Note_on_c, 0, 75, 0
2, 25835, Note_on_c, 0, 75, 55
2, 25836, Note_on_c, 0, 79, 40
2, 25836, Note_on_c, 0, 72, 58
2, 25837, Note_on_c, 0, 60, 32
2, 25841, Note_on_c, 0, 78, 31
2, 25844, Note_on_c, 0, 79, 0
2, 25847, Note_on_c, 0, 72, 0
2, 25850, Note_on_c, 0, 78, 0
2, 25859, Note_on_c, 0, 75, 0
2, 25872, Note_on_c, 0, 60, 0
2, 25888, Note_on_c, 0, 73, 44
2, 25890, Note_on_c, 0, 80, 44
2, 25895, Note_on_c, 0, 77, 32
2, 25920, Note_on_c, 0, 77, 0
2, 25924, Note_on_c, 0, 73, 0
2, 25926, Note_on_c, 0, 80, 0
2, 25940, Control_c, 0, 64, 0
2, 25948, Note_on_c, 0, 79, 37
2, 25950, Note_on_c, 0, 60, 30
2, 25950, Note_on_c, 0, 75, 34
2, 25954, Note_on_c, 0, 72, 31
2, 25961, Control_c, 0, 64, 127
2, 25981, Note_on_c, 0, 79, 0
2, 25989, Note_on_c, 0, 75, 0
2, 25993, Note_on_c, 0, 72, 0
2, 26005, Note_on_c, 0, 49, 0
2, 26035, Note_on_c, 0, 60, 0
2, 26061, Note_on_c, 0, 68, 33
2, 26061, Note_on_c, 0, 65, 40
2, 26062, Note_on_c, 0, 49, 34
2, 26064, Note_on_c, 0, 72, 36
2, 26071, Control_c, 0, 64, 0
2, 26094, Note_on_c, 0, 65, 0
2, 26099, Control_c, 0, 64, 127
2, 26115, Note_on_c, 0, 72, 0
2, 26123, Note_on_c, 0, 66, 42
2, 26123, Note_on_c, 0, 73, 42
2, 26129, Note_on_c, 0, 70, 36
2, 26143, Note_on_c, 0, 68, 0
2, 26145, Note_on_c, 0, 66, 0
2, 26150, Note_on_c, 0, 73, 0
2, 26150, Note_on_c, 0, 70, 0
2, 26172, Note_on_c, 0, 68, 62
2, 26174, Note_on_c, 0, 75, 63
2, 26178, Note_on_c, 0, 72, 57
2, 26182, Note_on_c, 0, 60, 26
2, 26199, Note_on_c, 0, 68, 0
2, 26204, Note_on_c, 0, 75, 0
2, 26209, Note_on_c, 0, 72, 0
2, 26222, Note_on_c, 0, 75, 55
2, 26222, Note_on_c, 0, 68, 67
2, 26224, Note_on_c, 0, 72, 69
2, 26230, Note_on_c, 0, 60, 0
2, 26246, Note_on_c, 0, 68, 0
2, 26246, Note_on_c, 0, 75, 0
2, 26255, Note_on_c, 0, 72, 0
2, 26265, Note_on_c, 0, 75, 48
2, 26268, Note_on_c, 0, 68, 51
2, 26287, Note_on_c, 0, 60, 17
2, 26291, Note_on_c, 0, 68, 0
2, 26292, Note_on_c, 0, 75, 0
2, 26313, Note_on_c, 0, 77, 57
2, 26318, Note_on_c, 0, 60, 0
2, 26333, Note_on_c, 0, 77, 0
2, 26359, Note_on_c, 0, 75, 69
2, 26359, Note_on_c, 0, 68, 59
2, 26360, Note_on_c, 0, 60, 43
2, 26372, Note_on_c, 0, 68, 0
2, 26377, Note_on_c, 0, 75, 0
2, 26399, Note_on_c, 0, 66, 39
2, 26401, Note_on_c, 0, 49, 0
2, 26406, Note_on_c, 0, 60, 0
2, 26406, Note_on_c, 0, 66, 0
2, 26427, Note_on_c, 0, 55, 0
2, 26471, Note_on_c, 0, 60, 68
2, 26471, Note_on_c, 0, 67, 62
2, 26473, Note_on_c, 0, 63, 64
2, 26475, Note_on_c, 0, 49, 39
2, 26475, Note_on_c, 0, 55, 31
2, 26482, Control_c, 0, 64, 0
2, 26502, Note_on_c, 0, 60, 0
2, 26516, Control_c, 0, 64, 127
2, 26520, Note_on_c, 0, 67, 0
2, 26530, Note_on_c, 0, 68, 64
2, 26530, Note_on_c, 0, 65, 74
2, 26531, Note_on_c, 0, 61, 64
2, 26564, Note_on_c, 0, 65, 0
2, 26565, Note_on_c, 0, 61, 0
2, 26571, Note_on_c, 0, 63, 0
2, 26572, Note_on_c, 0, 68, 0
2, 26723, Note_on_c, 0, 70, 48
2, 26724, Note_on_c, 0, 63, 39
2, 26726, Note_on_c, 0, 67, 55
2, 26735, Note_on_c, 0, 60, 20
2, 26779, Note_on_c, 0, 70, 0
2, 26801, Note_on_c, 0, 70, 47
2, 26840, Note_on_c, 0, 67, 0
2, 26841, Note_on_c, 0, 63, 0
2, 26841, Note_on_c, 0, 70, 0
2, 26850, Note_on_c, 0, 60, 0
2, 26862, Note_on_c, 0, 70, 45
2, 26865, Note_on_c, 0, 63, 34
2, 26865, Note_on_c, 0, 67, 20
2, 26877, Note_on_c, 0, 67, 0
2, 26881, Note_on_c, 0, 63, 0
2, 26897, Note_on_c, 0, 70, 0
2, 26907, Note_on_c, 0, 55, 0
2, 26919, Note_on_c, 0, 72, 37
2, 26920, Note_on_c, 0, 68, 33
2, 26928, Note_on_c, 0, 72, 0
2, 26935, Note_on_c, 0, 68, 0
2, 26979, Note_on_c, 0, 70, 44
2, 26980, Note_on_c, 0, 63, 33
2, 26982, Note_on_c, 0, 55, 1
2, 26983, Note_on_c, 0, 67, 45
2, 27030, Note_on_c, 0, 67, 0
2, 27037, Note_on_c, 0, 49, 0
2, 27040, Note_on_c, 0, 70, 0
2, 27040, Note_on_c, 0, 63, 0
2, 27094, Note_on_c, 0, 56, 36
2, 27096, Note_on_c, 0, 49, 36
2, 27097, Note_on_c, 0, 63, 32
2, 27102, Note_on_c, 0, 60, 33
2, 27116, Control_c, 0, 64, 0
2, 27119, Note_on_c, 0, 55, 0
2, 27130, Note_on_c, 0, 56, 0
2, 27142, Note_on_c, 0, 60, 0
2, 27142, Control_c, 0, 64, 127
2, 27151, Note_on_c, 0, 63, 0
2, 27169, Note_on_c, 0, 61, 31
2, 27172, Note_on_c, 0, 65, 32
2, 27180, Note_on_c, 0, 65, 0
2, 27197, Note_on_c, 0, 61, 0
2, 27243, Note_on_c, 0, 60, 40
2, 27244, Note_on_c, 0, 63, 32
2, 27245, Note_on_c, 0, 67, 36
2, 27250, Note_on_c, 0, 55, 16
2, 27280, Note_on_c, 0, 67, 0
2, 27281, Note_on_c, 0, 60, 0
2, 27281, Note_on_c, 0, 55, 0
2, 27283, Note_on_c, 0, 63, 0
2, 27312, Note_on_c, 0, 67, 45
2, 27316, Note_on_c, 0, 63, 40
2, 27317, Note_on_c, 0, 60, 31
2, 27319, Note_on_c, 0, 55, 26
2, 27341, Note_on_c, 0, 55, 0
2, 27344, Note_on_c, 0, 67, 0
2, 27344, Note_on_c, 0, 60, 0
2, 27348, Note_on_c, 0, 63, 0
2, 27389, Note_on_c, 0, 55, 24
2, 27391, Note_on_c, 0, 67, 25
2, 27391, Note_on_c, 0, 60, 48
2, 27392, Note_on_c, 0, 63, 36
2, 27407, Note_on_c, 0, 67, 0
2, 27423, Note_on_c, 0, 55, 0
2, 27432, Note_on_c, 0, 60, 0
2, 27437, Note_on_c, 0, 63, 0
2, 27470, Note_on_c, 0, 68, 42
2, 27476, Note_on_c, 0, 63, 35
2, 27509, Note_on_c, 0, 68, 0
2, 27514, Note_on_c, 0, 63, 0
2, 27575, Note_on_c, 0, 67, 33
2, 27577, Note_on_c, 0, 55, 27
2, 27579, Note_on_c, 0, 63, 30
2, 27582, Note_on_c, 0, 60, 24
2, 27631, Note_on_c, 0, 55, 0
2, 27658, Note_on_c, 0, 49, 0
2, 27670, Note_on_c, 0, 60, 0
2, 27708, Note_on_c, 0, 67, 0
2, 27715, Note_on_c, 0, 63, 0
2, 27883, Note_on_c, 0, 67, 72
2, 27884, Note_on_c, 0, 60, 87
2, 27886, Note_on_c, 0, 37, 62
2, 27886, Note_on_c, 0, 55, 78
2, 27886, Note_on_c, 0, 53, 76
2, 27889, Note_on_c, 0, 44, 62
2, 27891, Note_on_c, 0, 65, 47
2, 27896, Control_c, 0, 64, 0
2, 27966, Control_c, 0, 64, 127
2, 28072, Note_on_c, 0, 65, 0
2, 28086, Note_on_c, 0, 53, 0
2, 28101, Note_on_c, 0, 55, 0
2, 28119, Note_on_c, 0, 67, 0
2, 28141, Note_on_c, 0, 60, 0
2, 28172, Note_on_c, 0, 65, 105
2, 28213, Note_on_c, 0, 37, 0
2, 28235, Note_on_c, 0, 44, 0
2, 28249, Note_on_c, 0, 65, 0
2, 28351, Note_on_c, 0, 64, 80
2, 28352, Note_on_c, 0, 59, 77
2, 28354, Note_on_c, 0, 52, 74
2, 28357, Note_on_c, 0, 43, 67
2, 28358, Note_on_c, 0, 36, 69
2, 28361, Control_c, 0, 64, 0
2, 28364, Note_on_c, 0, 60, 36
2, 28371, Note_on_c, 0, 60, 0
2, 28440, Control_c, 0, 64, 127
2, 28548, Note_on_c, 0, 52, 0
2, 28604, Note_on_c, 0, 64, 0
2, 28613, Note_on_c, 0, 59, 0
2, 28642, Note_on_c, 0, 60, 101
2, 28764, Note_on_c, 0, 43, 0
2, 28893, Note_on_c, 0, 55, 72
2, 28896, Note_on_c, 0, 43, 58
2, 29013, Note_on_c, 0, 60, 0
2, 29026, Note_on_c, 0, 36, 0
2, 29066, Note_on_c, 0, 55, 0
2, 29092, Note_on_c, 0, 43, 0
2, 29625, Note_on_c, 0, 86, 47
2, 29627, Control_c, 0, 64, 0
2, 29627, Note_on_c, 0, 79, 38
2, 29630, Note_on_c, 0, 69, 41
2, 29630, Note_on_c, 0, 74, 16
2, 29649, Control_c, 0, 64, 127
2, 29687, Note_on_c, 0, 86, 0
2, 29699, Note_on_c, 0, 79, 0
2, 29704, Note_on_c, 0, 69, 0
2, 29717, Note_on_c, 0, 74, 0
2, 29813, Note_on_c, 0, 79, 32
2, 29814, Note_on_c, 0, 69, 36
2, 29815, Note_on_c, 0, 74, 32
2, 29821, Note_on_c, 0, 60, 24
2, 29847, Note_on_c, 0, 60, 0
2, 29849, Note_on_c, 0, 69, 0
2, 29864, Note_on_c, 0, 74, 0
2, 29877, Note_on_c, 0, 79, 0
2, 30346, Note_on_c, 0, 107, 50
2, 30378, Note_on_c, 0, 102, 42
2, 30395, Note_on_c, 0, 107, 0
2, 30400, Note_on_c, 0, 95, 35
2, 30415, Note_on_c, 0, 24, 34
2, 30423, Note_on_c, 0, 102, 0
2, 30424, Note_on_c, 0, 95, 0
2, 30440, Note_on_c, 0, 24, 0
2, 30736, Control_c, 0, 64, 0
2, 40295, Control_c, 0, 64, 127
2, 40307, Control_c, 0, 64, 0
2, 40322, Note_on_c, 0, 44, 43
2, 40324, Control_c, 0, 64, 127
2, 40348, Note_on_c, 0, 44, 0
2, 40441, Note_on_c, 0, 63, 25
2, 40445, Note_on_c, 0, 60, 26
2, 40448, Note_on_c, 0, 58, 32
2, 40462, Note_on_c, 0, 60, 0
2, 40467, Note_on_c, 0, 63, 0
2, 40468, Note_on_c, 0, 58, 0
2, 40533, Note_on_c, 0, 72, 43
2, 40539, Note_on_c, 0, 72, 0
2, 40549, Note_on_c, 0, 73, 69
2, 40567, Note_on_c, 0, 73, 0
2, 40577, Note_on_c, 0, 75, 92
2, 40580, Note_on_c, 0, 61, 60
2, 40583, Note_on_c, 0, 53, 53
2, 40584, Control_c, 0, 64, 0
2, 40585, Note_on_c, 0, 56, 40
2, 40585, Note_on_c, 0, 51, 29
2, 40618, Control_c, 0, 64, 127
2, 40637, Note_on_c, 0, 53, 0
2, 40640, Note_on_c, 0, 61, 0
2, 40657, Note_on_c, 0, 56, 0
2, 40695, Note_on_c, 0, 61, 26
2, 40696, Note_on_c, 0, 75, 0
2, 40698, Note_on_c, 0, 56, 30
2, 40699, Note_on_c, 0, 53, 32
2, 40724, Note_on_c, 0, 61, 0
2, 40726, Note_on_c, 0, 53, 0
2, 40727, Note_on_c, 0, 56, 0
2, 40736, Note_on_c, 0, 51, 0
2, 40774, Note_on_c, 0, 75, 20
2, 40778, Note_on_c, 0, 75, 0
2, 40791, Note_on_c, 0, 75, 42
2, 40796, Note_on_c, 0, 75, 0
2, 40804, Note_on_c, 0, 75, 59
2, 40813, Note_on_c, 0, 75, 0
2, 40816, Control_c, 0, 64, 0
2, 40819, Note_on_c, 0, 80, 77
2, 40820, Note_on_c, 0, 44, 39
2, 40821, Note_on_c, 0, 51, 44
2, 40831, Control_c, 0, 64, 127
2, 40840, Note_on_c, 0, 44, 0
2, 40844, Note_on_c, 0, 51, 0
2, 40856, Note_on_c, 0, 75, 51
2, 40857, Note_on_c, 0, 80, 0
2, 40866, Note_on_c, 0, 75, 0
2, 40878, Note_on_c, 0, 75, 33
2, 40889, Note_on_c, 0, 75, 0
2, 40900, Note_on_c, 0, 75, 43
2, 40916, Note_on_c, 0, 75, 0
2, 40933, Note_on_c, 0, 63, 29
2, 40933, Note_on_c, 0, 75, 40
2, 40936, Note_on_c, 0, 60, 33
2, 40936, Note_on_c, 0, 58, 40
2, 40974, Note_on_c, 0, 60, 0
2, 40976, Note_on_c, 0, 58, 0
2, 40976, Note_on_c, 0, 75, 0
2, 40977, Note_on_c, 0, 63, 0
2, 41049, Note_on_c, 0, 61, 21
2, 41050, Note_on_c, 0, 51, 28
2, 41051, Note_on_c, 0, 56, 31
2, 41051, Note_on_c, 0, 53, 41
2, 41053, Control_c, 0, 64, 0
2, 41069, Control_c, 0, 64, 127
2, 41127, Note_on_c, 0, 53, 0
2, 41134, Note_on_c, 0, 61, 0
2, 41139, Note_on_c, 0, 56, 0
2, 41227, Note_on_c, 0, 51, 0
2, 41231, Note_on_c, 0, 87, 72
2, 41239, Note_on_c, 0, 75, 45
2, 41255, Note_on_c, 0, 87, 0
2, 41260, Note_on_c, 0, 75, 0
2, 41290, Note_on_c, 0, 84, 55
2, 41292, Note_on_c, 0, 72, 44
2, 41294, Note_on_c, 0, 44, 25
2, 41294, Control_c, 0, 64, 0
2, 41294, Note_on_c, 0, 51, 25
2, 41309, Control_c, 0, 64, 127
2, 41318, Note_on_c, 0, 44, 0
2, 41320, Note_on_c, 0, 51, 0
2, 41377, Note_on_c, 0, 84, 0
2, 41387, Note_on_c, 0, 72, 0
2, 41405, Note_on_c, 0, 63, 26
2, 41410, Note_on_c, 0, 60, 26
2, 41412, Note_on_c, 0, 58, 32
2, 41447, Note_on_c, 0, 60, 0
2, 41447, Note_on_c, 0, 63, 0
2, 41455, Note_on_c, 0, 58, 0
2, 41485, Note_on_c, 0, 84, 113
2, 41529, Note_on_c, 0, 61, 27
2, 41530, Note_on_c, 0, 56, 33
2, 41531, Note_on_c, 0, 53, 38
2, 41532, Note_on_c, 0, 51, 35
2, 41533, Control_c, 0, 64, 0
2, 41550, Control_c, 0, 64, 127
2, 41578, Note_on_c, 0, 82, 60
2, 41583, Note_on_c, 0, 84, 0
2, 41591, Note_on_c, 0, 82, 0
2, 41611, Note_on_c, 0, 84, 108
2, 41622, Note_on_c, 0, 61, 0
2, 41622, Note_on_c, 0, 56, 0
2, 41624, Note_on_c, 0, 53, 0
2, 41651, Note_on_c, 0, 61, 38
2, 41654, Note_on_c, 0, 53, 36
2, 41655, Note_on_c, 0, 56, 25
2, 41657, Note_on_c, 0, 51, 0
2, 41660, Note_on_c, 0, 56, 0
2, 41660, Note_on_c, 0, 61, 0
2, 41662, Note_on_c, 0, 53, 0
2, 41697, Note_on_c, 0, 82, 57
2, 41698, Note_on_c, 0, 84, 0
2, 41707, Note_on_c, 0, 82, 0
2, 41730, Note_on_c, 0, 84, 94
2, 41755, Note_on_c, 0, 84, 0
2, 41759, Note_on_c, 0, 82, 77
2, 41761, Note_on_c, 0, 51, 55
2, 41762, Note_on_c, 0, 44, 50
2, 41765, Control_c, 0, 64, 0
2, 41784, Control_c, 0, 64, 127
2, 41793, Note_on_c, 0, 82, 0
2, 41800, Note_on_c, 0, 51, 0
2, 41800, Note_on_c, 0, 80, 76
2, 41801, Note_on_c, 0, 44, 0
2, 41885, Note_on_c, 0, 63, 14
2, 41920, Note_on_c, 0, 63, 0
2, 41953, Note_on_c, 0, 75, 46
2, 41964, Note_on_c, 0, 75, 0
2, 41964, Note_on_c, 0, 80, 0
2, 42008, Note_on_c, 0, 45, 54
2, 42011, Control_c, 0, 64, 0
2, 42020, Control_c, 0, 64, 127
2, 42072, Note_on_c, 0, 59, 59
2, 42073, Note_on_c, 0, 63, 56
2, 42073, Note_on_c, 0, 54, 48
2, 42073, Note_on_c, 0, 66, 45
2, 42076, Note_on_c, 0, 59, 0
2, 42077, Note_on_c, 0, 54, 0
2, 42078, Note_on_c, 0, 63, 0
2, 42079, Note_on_c, 0, 66, 0
2, 42083, Control_c, 0, 64, 0
2, 42136, Note_on_c, 0, 59, 37
2, 42137, Note_on_c, 0, 66, 32
2, 42137, Note_on_c, 0, 63, 33
2, 42137, Note_on_c, 0, 54, 35
2, 42138, Control_c, 0, 64, 127
2, 42175, Note_on_c, 0, 45, 0
2, 42185, Note_on_c, 0, 54, 0
2, 42189, Note_on_c, 0, 63, 0
2, 42190, Note_on_c, 0, 66, 0
2, 42190, Note_on_c, 0, 45, 38
2, 42196, Note_on_c, 0, 59, 0
2, 42203, Note_on_c, 0, 45, 0
2, 42252, Note_on_c, 0, 63, 33
2, 42254, Note_on_c, 0, 58, 49
2, 42255, Note_on_c, 0, 55, 26
2, 42255, Control_c, 0, 64, 0
2, 42255, Note_on_c, 0, 44, 25
2, 42256, Note_on_c, 0, 60, 27
2, 42256, Note_on_c, 0, 51, 29
2, 42270, Control_c, 0, 64, 127
2, 42278, Note_on_c, 0, 55, 0
2, 42283, Note_on_c, 0, 60, 0
2, 42291, Note_on_c, 0, 58, 0
2, 42293, Note_on_c, 0, 44, 0
2, 42296, Note_on_c, 0, 51, 0
2, 42298, Note_on_c, 0, 63, 0
2, 42375, Note_on_c, 0, 63, 67
2, 42375, Note_on_c, 0, 72, 60
2, 42375, Note_on_c, 0, 68, 60
2, 42376, Note_on_c, 0, 56, 33
2, 42399, Note_on_c, 0, 72, 0
2, 42418, Note_on_c, 0, 68, 0
2, 42429, Note_on_c, 0, 63, 0
2, 42439, Note_on_c, 0, 73, 75
2, 42464, Note_on_c, 0, 73, 0
2, 42467, Note_on_c, 0, 56, 0
2, 42544, Control_c, 0, 64, 0
2, 42544, Note_on_c, 0, 43, 66
2, 42551, Control_c, 0, 64, 127
2, 42554, Note_on_c, 0, 43, 0
2, 42603, Note_on_c, 0, 75, 76
2, 42604, Note_on_c, 0, 71, 67
2, 42604, Note_on_c, 0, 68, 73
2, 42604, Note_on_c, 0, 53, 63
2, 42605, Note_on_c, 0, 59, 61
2, 42605, Note_on_c, 0, 64, 84
2, 42605, Note_on_c, 0, 73, 43
2, 42656, Note_on_c, 0, 75, 0
2, 42663, Note_on_c, 0, 64, 0
2, 42665, Note_on_c, 0, 73, 0
2, 42671, Note_on_c, 0, 59, 0
2, 42674, Note_on_c, 0, 71, 0
2, 42677, Note_on_c, 0, 53, 0
2, 42684, Note_on_c, 0, 68, 0
2, 42692, Note_on_c, 0, 75, 70
2, 42698, Note_on_c, 0, 73, 25
2, 42704, Note_on_c, 0, 73, 0
2, 42707, Note_on_c, 0, 75, 0
2, 42725, Note_on_c, 0, 76, 40
2, 42726, Note_on_c, 0, 71, 44
2, 42727, Note_on_c, 0, 64, 56
2, 42728, Note_on_c, 0, 55, 34
2, 42728, Note_on_c, 0, 48, 37
2, 42728, Note_on_c, 0, 59, 33
2, 42730, Control_c, 0, 64, 0
2, 42752, Control_c, 0, 64, 127
2, 42781, Note_on_c, 0, 48, 0
2, 42781, Note_on_c, 0, 64, 0
2, 42782, Note_on_c, 0, 55, 0
2, 42790, Note_on_c, 0, 71, 0
2, 42791, Note_on_c, 0, 59, 0
2, 42801, Note_on_c, 0, 76, 0
2, 42850, Note_on_c, 0, 79, 51
2, 42851, Note_on_c, 0, 74, 40
2, 42852, Note_on_c, 0, 56, 30
2, 42852, Note_on_c, 0, 62, 32
2, 42853, Note_on_c, 0, 67, 39
2, 42854, Note_on_c, 0, 52, 40
2, 42856, Control_c, 0, 64, 0
2, 42878, Control_c, 0, 64, 127
2, 42908, Note_on_c, 0, 52, 0
2, 42910, Note_on_c, 0, 56, 0
2, 42911, Note_on_c, 0, 67, 0
2, 42913, Note_on_c, 0, 62, 0
2, 42916, Note_on_c, 0, 74, 0
2, 42920, Note_on_c, 0, 79, 0
2, 42977, Note_on_c, 0, 81, 62
2, 42978, Note_on_c, 0, 64, 48
2, 42978, Note_on_c, 0, 76, 37
2, 42978, Note_on_c, 0, 72, 56
2, 42978, Note_on_c, 0, 60, 47
2, 42979, Note_on_c, 0, 69, 64
2, 42980, Note_on_c, 0, 59, 28
2, 42981, Control_c, 0, 64, 0
2, 43001, Control_c, 0, 64, 127
2, 43045, Note_on_c, 0, 57, 62
2, 43047, Note_on_c, 0, 69, 0
2, 43047, Note_on_c, 0, 81, 0
2, 43049, Note_on_c, 0, 72, 0
2, 43050, Note_on_c, 0, 59, 0
2, 43052, Note_on_c, 0, 60, 0
2, 43054, Note_on_c, 0, 76, 0
2, 43058, Note_on_c, 0, 57, 0
2, 43059, Note_on_c, 0, 64, 0
2, 43102, Note_on_c, 0, 84, 79
2, 43104, Note_on_c, 0, 60, 60
2, 43104, Note_on_c, 0, 65, 73
2, 43105, Note_on_c, 0, 55, 58
2, 43106, Note_on_c, 0, 81, 58
2, 43106, Note_on_c, 0, 77, 64
2, 43106, Note_on_c, 0, 61, 35
2, 43108, Note_on_c, 0, 72, 52
2, 43109, Control_c, 0, 64, 0
2, 43129, Control_c, 0, 64, 127
2, 43167, Note_on_c, 0, 72, 0
2, 43169, Note_on_c, 0, 65, 0
2, 43172, Note_on_c, 0, 77, 0
2, 43173, Note_on_c, 0, 55, 0
2, 43174, Note_on_c, 0, 60, 0
2, 43176, Note_on_c, 0, 81, 0
2, 43178, Note_on_c, 0, 61, 0
2, 43181, Note_on_c, 0, 84, 0
2, 43224, Note_on_c, 0, 86, 73
2, 43224, Note_on_c, 0, 50, 47
2, 43228, Control_c, 0, 64, 0
2, 43243, Note_on_c, 0, 86, 0
2, 43243, Control_c, 0, 64, 127
2, 43283, Note_on_c, 0, 71, 46
2, 43285, Note_on_c, 0, 64, 28
2, 43286, Note_on_c, 0, 54, 35
2, 43289, Note_on_c, 0, 60, 19
2, 43296, Note_on_c, 0, 64, 0
2, 43301, Note_on_c, 0, 71, 0
2, 43336, Note_on_c, 0, 86, 51
2, 43337, Note_on_c, 0, 80, 46
2, 43350, Note_on_c, 0, 60, 0
2, 43354, Note_on_c, 0, 80, 0
2, 43357, Note_on_c, 0, 86, 0
2, 43367, Note_on_c, 0, 76, 22
2, 43368, Note_on_c, 0, 83, 36
2, 43371, Note_on_c, 0, 76, 0
2, 43373, Note_on_c, 0, 83, 0
2, 43399, Note_on_c, 0, 92, 40
2, 43400, Note_on_c, 0, 98, 61
2, 43419, Note_on_c, 0, 92, 0
2, 43422, Note_on_c, 0, 98, 0
2, 43428, Note_on_c, 0, 88, 40
2, 43431, Note_on_c, 0, 95, 44
2, 43438, Note_on_c, 0, 88, 0
2, 43446, Note_on_c, 0, 95, 0
2, 43455, Note_on_c, 0, 92, 45
2, 43456, Note_on_c, 0, 98, 52
2, 43457, Note_on_c, 0, 60, 32
2, 43474, Note_on_c, 0, 92, 0
2, 43481, Note_on_c, 0, 98, 0
2, 43488, Note_on_c, 0, 95, 36
2, 43493, Note_on_c, 0, 95, 0
2, 43501, Note_on_c, 0, 50, 0
2, 43568, Note_on_c, 0, 50, 38
2, 43588, Note_on_c, 0, 60, 0
2, 43593, Note_on_c, 0, 50, 0
2, 43595, Note_on_c, 0, 54, 0
2, 43627, Note_on_c, 0, 68, 69
2, 43627, Note_on_c, 0, 74, 59
2, 43628, Note_on_c, 0, 54, 57
2, 43628, Note_on_c, 0, 71, 48
2, 43628, Note_on_c, 0, 64, 75
2, 43628, Note_on_c, 0, 60, 73
2, 43629, Note_on_c, 0, 50, 54
2, 43633, Control_c, 0, 64, 0
2, 43644, Control_c, 0, 64, 127
2, 43649, Note_on_c, 0, 50, 0
2, 43649, Note_on_c, 0, 64, 0
2, 43652, Note_on_c, 0, 54, 0
2, 43654, Note_on_c, 0, 68, 0
2, 43655, Note_on_c, 0, 74, 0
2, 43655, Note_on_c, 0, 71, 0
2, 43655, Note_on_c, 0, 60, 0
2, 43691, Note_on_c, 0, 77, 65
2, 43692, Note_on_c, 0, 55, 62
2, 43692, Note_on_c, 0, 69, 77
2, 43692, Note_on_c, 0, 65, 79
2, 43693, Note_on_c, 0, 72, 62
2, 43693, Note_on_c, 0, 60, 68
2, 43698, Control_c, 0, 64, 0
2, 43716, Control_c, 0, 64, 127
2, 43719, Note_on_c, 0, 60, 0
2, 43722, Note_on_c, 0, 55, 0
2, 43733, Note_on_c, 0, 77, 0
2, 43735, Note_on_c, 0, 72, 0
2, 43735, Note_on_c, 0, 69, 0
2, 43738, Note_on_c, 0, 65, 0
2, 43756, Note_on_c, 0, 43, 59
2, 43784, Note_on_c, 0, 43, 0
2, 43818, Note_on_c, 0, 43, 32
2, 43819, Note_on_c, 0, 60, 44
2, 43819, Note_on_c, 0, 57, 45
2, 43819, Note_on_c, 0, 50, 34
2, 43820, Note_on_c, 0, 53, 27
2, 43895, Note_on_c, 0, 43, 0
2, 43897, Note_on_c, 0, 57, 0
2, 43899, Note_on_c, 0, 53, 0
2, 43907, Note_on_c, 0, 50, 0
2, 43910, Note_on_c, 0, 60, 0
2, 43941, Note_on_c, 0, 60, 47
2, 43942, Note_on_c, 0, 53, 36
2, 43942, Note_on_c, 0, 57, 43
2, 43943, Note_on_c, 0, 43, 30
2, 43949, Control_c, 0, 64, 0
2, 43966, Control_c, 0, 64, 127
2, 43994, Note_on_c, 0, 53, 0
2, 43999, Note_on_c, 0, 57, 0
2, 44003, Note_on_c, 0, 60, 0
2, 44052, Note_on_c, 0, 59, 46
2, 44053, Note_on_c, 0, 56, 33
2, 44055, Note_on_c, 0, 53, 32
2, 44063, Control_c, 0, 64, 0
2, 44074, Control_c, 0, 64, 127
2, 44076, Note_on_c, 0, 43, 0
2, 44085, Note_on_c, 0, 53, 0
2, 44100, Note_on_c, 0, 56, 0
2, 44105, Note_on_c, 0, 59, 0
2, 44167, Note_on_c, 0, 36, 36
2, 44169, Note_on_c, 0, 43, 31
2, 44169, Note_on_c, 0, 52, 48
2, 44170, Control_c, 0, 64, 0
2, 44191, Control_c, 0, 64, 127
2, 44204, Note_on_c, 0, 36, 0
2, 44208, Note_on_c, 0, 43, 0
2, 44217, Note_on_c, 0, 52, 0
2, 44291, Note_on_c, 0, 64, 30
2, 44293, Note_on_c, 0, 59, 32
2, 44293, Note_on_c, 0, 60, 35
2, 44332, Note_on_c, 0, 88, 68
2, 44338, Note_on_c, 0, 76, 53
2, 44352, Note_on_c, 0, 76, 0
2, 44355, Note_on_c, 0, 88, 0
2, 44357, Note_on_c, 0, 60, 0
2, 44357, Note_on_c, 0, 64, 0
2, 44360, Note_on_c, 0, 59, 0
2, 44370, Note_on_c, 0, 89, 75
2, 44375, Note_on_c, 0, 77, 57
2, 44397, Note_on_c, 0, 77, 0
2, 44400, Note_on_c, 0, 89, 0
2, 44414, Note_on_c, 0, 55, 32
2, 44415, Note_on_c, 0, 91, 71
2, 44415, Note_on_c, 0, 57, 49
2, 44417, Note_on_c, 0, 60, 40
2, 44418, Note_on_c, 0, 65, 37
2, 44418, Control_c, 0, 64, 0
2, 44419, Note_on_c, 0, 79, 50
2, 44433, Control_c, 0, 64, 127
2, 44440, Note_on_c, 0, 65, 0
2, 44442, Note_on_c, 0, 60, 0
2, 44447, Note_on_c, 0, 57, 0
2, 44449, Note_on_c, 0, 55, 0
2, 44449, Note_on_c, 0, 79, 0
2, 44449, Note_on_c, 0, 91, 0
2, 44460, Note_on_c, 0, 91, 66
2, 44462, Note_on_c, 0, 79, 48
2, 44525, Note_on_c, 0, 43, 36
2, 44544, Note_on_c, 0, 43, 0
2, 44575, Note_on_c, 0, 79, 0
2, 44577, Note_on_c, 0, 91, 0
2, 44613, Note_on_c, 0, 91, 50
2, 44615, Note_on_c, 0, 79, 28
2, 44620, Note_on_c, 0, 79, 0
2, 44625, Note_on_c, 0, 91, 0
2, 44642, Note_on_c, 0, 36, 34
2, 44643, Control_c, 0, 64, 0
2, 44644, Note_on_c, 0, 93, 66
2, 44645, Note_on_c, 0, 43, 27
2, 44645, Note_on_c, 0, 52, 39
2, 44648, Note_on_c, 0, 81, 27
2, 44656, Control_c, 0, 64, 127
2, 44663, Note_on_c, 0, 93, 0
2, 44668, Note_on_c, 0, 81, 0
2, 44676, Note_on_c, 0, 36, 0
2, 44678, Note_on_c, 0, 43, 0
2, 44680, Note_on_c, 0, 91, 53
2, 44683, Note_on_c, 0, 79, 22
2, 44688, Note_on_c, 0, 52, 0
2, 44693, Note_on_c, 0, 91, 0
2, 44703, Note_on_c, 0, 79, 0
2, 44765, Note_on_c, 0, 64, 27
2, 44767, Note_on_c, 0, 59, 31
2, 44768, Note_on_c, 0, 60, 33
2, 44794, Note_on_c, 0, 67, 53
2, 44801, Note_on_c, 0, 67, 0
2, 44805, Note_on_c, 0, 69, 62
2, 44808, Note_on_c, 0, 69, 0
2, 44815, Note_on_c, 0, 69, 73
2, 44822, Note_on_c, 0, 69, 0
2, 44823, Note_on_c, 0, 71, 70
2, 44829, Control_c, 0, 64, 0
2, 44831, Note_on_c, 0, 71, 0
2, 44834, Note_on_c, 0, 71, 55
2, 44842, Note_on_c, 0, 72, 77
2, 44843, Note_on_c, 0, 71, 0
2, 44849, Note_on_c, 0, 72, 0
2, 44853, Note_on_c, 0, 72, 64
2, 44853, Control_c, 0, 64, 127
2, 44860, Note_on_c, 0, 64, 0
2, 44862, Note_on_c, 0, 59, 0
2, 44862, Note_on_c, 0, 72, 0
2, 44862, Note_on_c, 0, 74, 64
2, 44867, Note_on_c, 0, 60, 0
2, 44870, Note_on_c, 0, 74, 0
2, 44873, Note_on_c, 0, 74, 60
2, 44882, Note_on_c, 0, 76, 57
2, 44883, Note_on_c, 0, 74, 0
2, 44889, Note_on_c, 0, 76, 0
2, 44894, Note_on_c, 0, 76, 57
2, 44894, Note_on_c, 0, 65, 35
2, 44894, Note_on_c, 0, 55, 28
2, 44895, Control_c, 0, 64, 0
2, 44895, Note_on_c, 0, 60, 39
2, 44895, Note_on_c, 0, 57, 50
2, 44901, Note_on_c, 0, 76, 0
2, 44904, Note_on_c, 0, 77, 50
2, 44910, Note_on_c, 0, 77, 0
2, 44915, Note_on_c, 0, 77, 35
2, 44923, Note_on_c, 0, 77, 0
2, 44923, Note_on_c, 0, 79, 55
2, 44930, Note_on_c, 0, 79, 0
2, 44936, Note_on_c, 0, 79, 43
2, 44944, Note_on_c, 0, 79, 0
2, 44961, Note_on_c, 0, 57, 0
2, 44962, Control_c, 0, 64, 127
2, 44967, Note_on_c, 0, 65, 0
2, 44970, Note_on_c, 0, 60, 0
2, 45007, Note_on_c, 0, 57, 47
2, 45008, Note_on_c, 0, 65, 33
2, 45009, Control_c, 0, 64, 0
2, 45009, Note_on_c, 0, 60, 38
2, 45028, Control_c, 0, 64, 127
2, 45047, Note_on_c, 0, 65, 0
2, 45049, Note_on_c, 0, 60, 0
2, 45053, Note_on_c, 0, 57, 0
2, 45055, Note_on_c, 0, 55, 0
2, 45095, Note_on_c, 0, 43, 57
2, 45121, Note_on_c, 0, 43, 0
2, 45127, Note_on_c, 0, 36, 84
2, 45130, Control_c, 0, 64, 0
2, 45144, Control_c, 0, 64, 127
2, 45159, Note_on_c, 0, 36, 0
2, 45249, Note_on_c, 0, 64, 46
2, 45250, Note_on_c, 0, 59, 44
2, 45252, Note_on_c, 0, 60, 43
2, 45305, Note_on_c, 0, 64, 0
2, 45307, Note_on_c, 0, 60, 0
2, 45307, Note_on_c, 0, 59, 0
2, 45311, Note_on_c, 0, 84, 90
2, 45336, Note_on_c, 0, 84, 0
2, 45345, Note_on_c, 0, 82, 85
2, 45367, Note_on_c, 0, 82, 0
2, 45372, Note_on_c, 0, 64, 43
2, 45372, Note_on_c, 0, 69, 47
2, 45372, Note_on_c, 0, 81, 75
2, 45373, Note_on_c, 0, 58, 44
2, 45379, Control_c, 0, 64, 0
2, 45399, Control_c, 0, 64, 127
2, 45404, Note_on_c, 0, 81, 0
2, 45410, Note_on_c, 0, 79, 49
2, 45458, Note_on_c, 0, 64, 0
2, 45459, Note_on_c, 0, 69, 0
2, 45469, Note_on_c, 0, 79, 0
2, 45483, Note_on_c, 0, 79, 6
2, 45493, Note_on_c, 0, 79, 0
2, 45493, Note_on_c, 0, 69, 27
2, 45494, Note_on_c, 0, 64, 28
2, 45500, Note_on_c, 0, 64, 0
2, 45503, Note_on_c, 0, 69, 0
2, 45510, Note_on_c, 0, 58, 0
2, 45571, Note_on_c, 0, 77, 61
2, 45620, Note_on_c, 0, 77, 0
2, 45656, Note_on_c, 0, 77, 62
2, 45658, Note_on_c, 0, 62, 27
2, 45658, Note_on_c, 0, 71, 62
2, 45659, Note_on_c, 0, 56, 39
2, 45659, Note_on_c, 0, 68, 59
2, 45660, Note_on_c, 0, 65, 40
2, 45660, Control_c, 0, 64, 0
2, 45675, Control_c, 0, 64, 127
2, 45701, Note_on_c, 0, 76, 51
2, 45704, Note_on_c, 0, 65, 0
2, 45704, Note_on_c, 0, 62, 0
2, 45705, Note_on_c, 0, 71, 0
2, 45708, Note_on_c, 0, 77, 0
2, 45718, Note_on_c, 0, 68, 0
2, 45723, Note_on_c, 0, 56, 0
2, 45726, Note_on_c, 0, 76, 0
2, 45738, Note_on_c, 0, 55, 44
2, 45740, Note_on_c, 0, 76, 34
2, 45740, Note_on_c, 0, 64, 36
2, 45741, Note_on_c, 0, 60, 36
2, 45742, Note_on_c, 0, 67, 34
2, 45743, Note_on_c, 0, 72, 24
2, 45746, Control_c, 0, 64, 0
2, 45762, Control_c, 0, 64, 127
2, 45785, Note_on_c, 0, 72, 0
2, 45785, Note_on_c, 0, 76, 0
2, 45791, Note_on_c, 0, 64, 0
2, 45792, Note_on_c, 0, 67, 0
2, 45801, Note_on_c, 0, 55, 0
2, 45811, Note_on_c, 0, 60, 0
2, 45848, Note_on_c, 0, 62, 31
2, 45848, Note_on_c, 0, 54, 39
2, 45848, Note_on_c, 0, 74, 45
2, 45851, Note_on_c, 0, 69, 50
2, 45854, Control_c, 0, 64, 0
2, 45877, Control_c, 0, 64, 127
2, 45898, Note_on_c, 0, 62, 0
2, 45908, Note_on_c, 0, 54, 0
2, 45913, Note_on_c, 0, 74, 0
2, 45913, Note_on_c, 0, 69, 0
2, 45968, Note_on_c, 0, 72, 36
2, 45968, Note_on_c, 0, 65, 37
2, 45971, Note_on_c, 0, 53, 31
2, 45971, Note_on_c, 0, 60, 32
2, 45973, Control_c, 0, 64, 0
2, 45985, Control_c, 0, 64, 127
2, 46003, Note_on_c, 0, 60, 0
2, 46011, Note_on_c, 0, 65, 0
2, 46020, Note_on_c, 0, 53, 0
2, 46046, Note_on_c, 0, 72, 0
2, 46087, Note_on_c, 0, 67, 31
2, 46087, Note_on_c, 0, 62, 31
2, 46092, Note_on_c, 0, 52, 36
2, 46092, Note_on_c, 0, 59, 24
2, 46094, Control_c, 0, 64, 0
2, 46112, Control_c, 0, 64, 127
2, 46122, Note_on_c, 0, 62, 0
2, 46136, Note_on_c, 0, 67, 0
2, 46154, Note_on_c, 0, 59, 0
2, 46209, Note_on_c, 0, 62, 28
2, 46211, Note_on_c, 0, 59, 28
2, 46246, Note_on_c, 0, 59, 0
2, 46246, Note_on_c, 0, 52, 0
2, 46249, Note_on_c, 0, 62, 0
2, 46277, Note_on_c, 0, 88, 94
2, 46279, Note_on_c, 0, 76, 79
2, 46326, Note_on_c, 0, 61, 38
2, 46327, Note_on_c, 0, 55, 46
2, 46328, Note_on_c, 0, 65, 43
2, 46329, Control_c, 0, 64, 0
2, 46339, Control_c, 0, 64, 127
2, 46342, Note_on_c, 0, 88, 0
2, 46348, Note_on_c, 0, 76, 0
2, 46363, Note_on_c, 0, 65, 0
2, 46376, Note_on_c, 0, 55, 0
2, 46379, Note_on_c, 0, 61, 0
2, 46391, Note_on_c, 0, 76, 34
2, 46392, Note_on_c, 0, 73, 40
2, 46392, Note_on_c, 0, 55, 40
2, 46393, Note_on_c, 0, 70, 42
2, 46393, Note_on_c, 0, 64, 50
2, 46395, Note_on_c, 0, 61, 28
2, 46401, Control_c, 0, 64, 0
2, 46414, Control_c, 0, 64, 127
2, 46433, Note_on_c, 0, 55, 0
2, 46434, Note_on_c, 0, 64, 0
2, 46434, Note_on_c, 0, 61, 0
2, 46435, Note_on_c, 0, 70, 0
2, 46436, Note_on_c, 0, 73, 0
2, 46436, Note_on_c, 0, 76, 0
2, 46452, Note_on_c, 0, 70, 36
2, 46452, Note_on_c, 0, 76, 29
2, 46452, Note_on_c, 0, 64, 53
2, 46452, Note_on_c, 0, 55, 39
2, 46453, Note_on_c, 0, 73, 29
2, 46454, Note_on_c, 0, 61, 32
2, 46481, Note_on_c, 0, 61, 0
2, 46490, Note_on_c, 0, 55, 0
2, 46496, Note_on_c, 0, 76, 0
2, 46499, Note_on_c, 0, 70, 0
2, 46499, Note_on_c, 0, 73, 0
2, 46504, Note_on_c, 0, 64, 0
2, 46572, Note_on_c, 0, 65, 89
2, 46573, Note_on_c, 0, 50, 84
2, 46573, Note_on_c, 0, 60, 99
2, 46574, Note_on_c, 0, 57, 92
2, 46575, Control_c, 0, 64, 0
2, 46587, Control_c, 0, 64, 127
2, 46603, Note_on_c, 0, 65, 0
2, 46606, Note_on_c, 0, 57, 0
2, 46608, Note_on_c, 0, 60, 0
2, 46636, Note_on_c, 0, 67, 69
2, 46636, Note_on_c, 0, 64, 69
2, 46636, Note_on_c, 0, 61, 69
2, 46636, Note_on_c, 0, 58, 78
2, 46638, Note_on_c, 0, 52, 76
2, 46638, Control_c, 0, 64, 0
2, 46639, Note_on_c, 0, 50, 0
2, 46652, Control_c, 0, 64, 127
2, 46666, Note_on_c, 0, 58, 0
2, 46667, Note_on_c, 0, 67, 0
2, 46667, Note_on_c, 0, 64, 0
2, 46672, Note_on_c, 0, 61, 0
2, 46695, Note_on_c, 0, 52, 0
2, 46697, Note_on_c, 0, 69, 64
2, 46697, Note_on_c, 0, 65, 67
2, 46698, Note_on_c, 0, 53, 53
2, 46698, Control_c, 0, 64, 0
2, 46698, Note_on_c, 0, 60, 56
2, 46714, Control_c, 0, 64, 127
2, 46723, Note_on_c, 0, 53, 0
2, 46758, Note_on_c, 0, 30, 62
2, 46758, Note_on_c, 0, 42, 64
2, 46760, Control_c, 0, 64, 0
2, 46762, Note_on_c, 0, 60, 0
2, 46765, Note_on_c, 0, 65, 0
2, 46769, Note_on_c, 0, 69, 0
2, 46769, Control_c, 0, 64, 127
2, 46797, Note_on_c, 0, 30, 0
2, 46799, Note_on_c, 0, 42, 0
2, 46813, Note_on_c, 0, 43, 67
2, 46813, Note_on_c, 0, 31, 70
2, 46813, Note_on_c, 0, 65, 89
2, 46813, Note_on_c, 0, 72, 76
2, 46813, Note_on_c, 0, 69, 80
2, 46814, Note_on_c, 0, 60, 94
2, 46817, Control_c, 0, 64, 0
2, 46842, Control_c, 0, 64, 127
2, 46932, Note_on_c, 0, 31, 0
2, 46939, Note_on_c, 0, 60, 0
2, 46944, Note_on_c, 0, 65, 0
2, 46950, Note_on_c, 0, 43, 0
2, 46954, Note_on_c, 0, 69, 0
2, 46962, Note_on_c, 0, 72, 0
2, 47016, Note_on_c, 0, 72, 36
2, 47023, Note_on_c, 0, 72, 0
2, 47032, Note_on_c, 0, 74, 33
2, 47052, Note_on_c, 0, 36, 36
2, 47054, Note_on_c, 0, 74, 0
2, 47055, Note_on_c, 0, 72, 40
2, 47056, Control_c, 0, 64, 0
2, 47070, Note_on_c, 0, 36, 0
2, 47072, Control_c, 0, 64, 127
2, 47078, Note_on_c, 0, 72, 0
2, 47080, Note_on_c, 0, 79, 40
2, 47107, Note_on_c, 0, 79, 0
2, 47112, Note_on_c, 0, 76, 31
2, 47167, Note_on_c, 0, 64, 30
2, 47168, Note_on_c, 0, 59, 36
2, 47169, Note_on_c, 0, 60, 33
2, 47208, Note_on_c, 0, 60, 0
2, 47208, Note_on_c, 0, 59, 0
2, 47212, Note_on_c, 0, 64, 0
2, 47286, Control_c, 0, 64, 0
2, 47287, Note_on_c, 0, 55, 24
2, 47287, Note_on_c, 0, 65, 28
2, 47289, Note_on_c, 0, 57, 35
2, 47289, Note_on_c, 0, 60, 36
2, 47294, Note_on_c, 0, 76, 0
2, 47297, Control_c, 0, 64, 127
2, 47314, Note_on_c, 0, 60, 0
2, 47315, Note_on_c, 0, 65, 0
2, 47325, Note_on_c, 0, 57, 0
2, 47327, Note_on_c, 0, 55, 0
2, 47357, Note_on_c, 0, 91, 62
2, 47377, Note_on_c, 0, 91, 0
2, 47378, Note_on_c, 0, 83, 54
2, 47414, Note_on_c, 0, 43, 45
2, 47441, Note_on_c, 0, 83, 0
2, 47449, Note_on_c, 0, 95, 73
2, 47462, Note_on_c, 0, 95, 0
2, 47468, Note_on_c, 0, 92, 65
2, 47519, Control_c, 0, 64, 0
2, 47519, Note_on_c, 0, 36, 36
2, 47523, Note_on_c, 0, 52, 33
2, 47524, Control_c, 0, 64, 127
2, 47530, Note_on_c, 0, 92, 0
2, 47558, Note_on_c, 0, 36, 0
2, 47561, Note_on_c, 0, 43, 0
2, 47564, Note_on_c, 0, 100, 59
2, 47570, Note_on_c, 0, 52, 0
2, 47579, Note_on_c, 0, 100, 0
2, 47582, Note_on_c, 0, 95, 42
2, 47593, Note_on_c, 0, 95, 0
2, 47611, Note_on_c, 0, 107, 70
2, 47618, Note_on_c, 0, 107, 0
2, 47642, Note_on_c, 0, 64, 35
2, 47645, Note_on_c, 0, 59, 40
2, 47646, Note_on_c, 0, 60, 32
2, 47679, Note_on_c, 0, 60, 0
2, 47680, Note_on_c, 0, 59, 0
2, 47681, Note_on_c, 0, 64, 0
2, 47772, Note_on_c, 0, 55, 26
2, 47773, Note_on_c, 0, 65, 32
2, 47773, Note_on_c, 0, 57, 37
2, 47775, Note_on_c, 0, 60, 34
2, 47777, Control_c, 0, 64, 0
2, 47800, Control_c, 0, 64, 127
2, 47808, Note_on_c, 0, 65, 0
2, 47810, Note_on_c, 0, 60, 0
2, 47816, Note_on_c, 0, 57, 0
2, 47817, Note_on_c, 0, 55, 0
2, 47890, Note_on_c, 0, 43, 40
2, 47994, Note_on_c, 0, 93, 79
2, 48002, Note_on_c, 0, 80, 47
2, 48003, Note_on_c, 0, 91, 28
2, 48022, Note_on_c, 0, 36, 43
2, 48026, Note_on_c, 0, 52, 50
2, 48027, Note_on_c, 0, 43, 0
2, 48031, Control_c, 0, 64, 0
2, 48046, Control_c, 0, 64, 127
2, 48056, Note_on_c, 0, 36, 0
2, 48067, Note_on_c, 0, 52, 0
2, 48089, Note_on_c, 0, 93, 0
2, 48090, Note_on_c, 0, 91, 0
2, 48107, Note_on_c, 0, 80, 0
2, 48158, Note_on_c, 0, 64, 25
2, 48162, Note_on_c, 0, 59, 22
2, 48183, Note_on_c, 0, 59, 0
2, 48185, Note_on_c, 0, 64, 0
2, 48249, Note_on_c, 0, 65, 30
2, 48250, Note_on_c, 0, 55, 24
2, 48251, Note_on_c, 0, 57, 42
2, 48252, Note_on_c, 0, 60, 38
2, 48258, Control_c, 0, 64, 0
2, 48266, Control_c, 0, 64, 127
2, 48281, Note_on_c, 0, 60, 0
2, 48281, Note_on_c, 0, 65, 0
2, 48289, Note_on_c, 0, 57, 0
2, 48290, Note_on_c, 0, 55, 0
2, 48375, Note_on_c, 0, 43, 38
2, 48459, Note_on_c, 0, 43, 0
2, 48497, Note_on_c, 0, 36, 54
2, 48501, Control_c, 0, 64, 0
2, 48515, Control_c, 0, 64, 127
2, 48533, Note_on_c, 0, 36, 0
2, 48624, Note_on_c, 0, 64, 34
2, 48626, Note_on_c, 0, 59, 33
2, 48627, Note_on_c, 0, 60, 40
2, 48659, Note_on_c, 0, 59, 0
2, 48663, Note_on_c, 0, 60, 0
2, 48664, Note_on_c, 0, 64, 0
2, 48755, Note_on_c, 0, 65, 28
2, 48757, Note_on_c, 0, 55, 32
2, 48757, Note_on_c, 0, 57, 37
2, 48758, Note_on_c, 0, 60, 46
2, 48762, Control_c, 0, 64, 0
2, 48775, Control_c, 0, 64, 127
2, 48793, Note_on_c, 0, 60, 0
2, 48794, Note_on_c, 0, 65, 0
2, 48803, Note_on_c, 0, 57, 0
2, 48804, Note_on_c, 0, 55, 0
2, 48902, Note_on_c, 0, 43, 38
2, 49065, Note_on_c, 0, 36, 33
2, 49067, Note_on_c, 0, 52, 43
2, 49075, Control_c, 0, 64, 0
2, 49093, Control_c, 0, 64, 127
2, 49225, Note_on_c, 0, 52, 0
2, 49228, Note_on_c, 0, 43, 0
2, 49229, Note_on_c, 0, 36, 0
2, 49320, Note_on_c, 0, 24, 47
2, 49440, Note_on_c, 0, 24, 0
2, 50258, Control_c, 0, 64, 0
2, 50258, End_track
0, 0, End_of_file
