0, 0, Header, 0, 1, 120
1, 0, Start_track
1, 0, Title_t, "A Nightingale Sang in Berkley Square"
1, 0, Text_t, "dougmck@pipeline.com.au\012"
1, 0, SMPTE_offset, 96, 0, 3, 0, 0
1, 0, Time_signature, 4, 2, 24, 8
1, 0, Key_signature, -3, "major"
1, 0, Tempo, 461538
1, 0, Program_c, 0, 0
1, 0, Note_on_c, 0, 58, 42
1, 0, Note_on_c, 0, 58, 0
1, 0, Control_c, 0, 64, 127
1, 0, Program_c, 1, 32
1, 0, Control_c, 1, 0, 0
1, 0, Control_c, 1, 32, 0
1, 0, Program_c, 1, 32
1, 0, Program_c, 1, 35
1, 0, Program_c, 1, 32
1, 0, Program_c, 1, 35
1, 0, Note_on_c, 1, 39, 48
1, 2, Note_on_c, 0, 67, 52
1, 4, Note_on_c, 0, 45, 40
1, 4, Note_on_c, 0, 60, 52
1, 4, Note_on_c, 0, 63, 35
1, 5, Note_on_c, 0, 55, 44
1, 6, Control_c, 0, 64, 0
1, 54, Control_c, 0, 64, 127
1, 74, Note_on_c, 0, 67, 0
1, 91, Note_on_c, 0, 67, 59
1, 118, Note_on_c, 0, 60, 0
1, 143, Note_on_c, 0, 55, 0
1, 152, Note_on_c, 0, 67, 0
1, 164, Note_on_c, 0, 63, 0
1, 182, Note_on_c, 0, 67, 34
1, 216, Note_on_c, 0, 67, 0
1, 243, Note_on_c, 0, 67, 39
1, 245, Control_c, 0, 64, 0
1, 246, Note_on_c, 0, 45, 0
1, 246, Note_on_c, 0, 60, 50
1, 248, Note_on_c, 0, 44, 39
1, 248, Note_on_c, 0, 55, 43
1, 292, Control_c, 0, 64, 127
1, 306, Note_on_c, 0, 67, 0
1, 316, Note_on_c, 1, 45, 80
1, 319, Note_on_c, 1, 39, 0
1, 330, Note_on_c, 0, 67, 38
1, 353, Note_on_c, 0, 44, 0
1, 371, Note_on_c, 0, 67, 0
1, 390, Note_on_c, 0, 55, 0
1, 406, Note_on_c, 0, 60, 0
1, 410, Note_on_c, 0, 67, 57
1, 422, Note_on_c, 1, 44, 73
1, 426, Note_on_c, 1, 45, 0
1, 439, Note_on_c, 0, 67, 0
1, 482, Note_on_c, 0, 59, 49
1, 484, Note_on_c, 0, 63, 37
1, 487, Note_on_c, 0, 43, 37
1, 488, Control_c, 0, 64, 0
1, 490, Note_on_c, 0, 53, 26
1, 492, Note_on_c, 1, 43, 62
1, 493, Note_on_c, 1, 44, 0
1, 530, Control_c, 0, 64, 127
1, 555, Note_on_c, 0, 59, 0
1, 562, Note_on_c, 0, 63, 0
1, 572, Note_on_c, 0, 43, 0
1, 577, Note_on_c, 0, 53, 0
1, 605, Note_on_c, 0, 79, 71
1, 664, Note_on_c, 0, 79, 0
1, 671, Note_on_c, 0, 75, 58
1, 672, Note_on_c, 0, 71, 56
1, 674, Note_on_c, 1, 55, 127
1, 692, Note_on_c, 0, 71, 0
1, 692, Note_on_c, 0, 75, 0
1, 725, Note_on_c, 1, 55, 0
1, 738, Note_on_c, 1, 55, 113
1, 781, Note_on_c, 1, 43, 0
1, 782, Note_on_c, 0, 67, 43
1, 785, Note_on_c, 0, 63, 42
1, 788, Note_on_c, 0, 59, 32
1, 820, Note_on_c, 0, 59, 0
1, 833, Note_on_c, 0, 63, 0
1, 866, Note_on_c, 0, 74, 58
1, 886, Note_on_c, 0, 67, 0
1, 894, Note_on_c, 0, 74, 0
1, 914, Note_on_c, 1, 53, 70
1, 917, Note_on_c, 1, 55, 0
1, 943, Note_on_c, 0, 63, 38
1, 944, Note_on_c, 0, 75, 57
1, 944, Note_on_c, 0, 67, 41
1, 945, Note_on_c, 0, 58, 33
1, 950, Note_on_c, 0, 48, 35
1, 952, Control_c, 0, 64, 0
1, 972, Note_on_c, 1, 53, 0
1, 980, Note_on_c, 1, 51, 45
1, 993, Control_c, 0, 64, 127
1, 1046, Note_on_c, 0, 67, 0
1, 1058, Note_on_c, 0, 63, 0
1, 1079, Note_on_c, 0, 58, 0
1, 1135, Note_on_c, 1, 51, 0
1, 1139, Note_on_c, 1, 50, 55
1, 1144, Note_on_c, 0, 67, 35
1, 1146, Note_on_c, 0, 63, 36
1, 1150, Note_on_c, 0, 75, 0
1, 1164, Note_on_c, 0, 67, 0
1, 1174, Note_on_c, 0, 63, 0
1, 1197, Note_on_c, 1, 50, 0
1, 1206, Note_on_c, 1, 48, 46
1, 1208, Note_on_c, 0, 58, 32
1, 1264, Note_on_c, 0, 58, 0
1, 1267, Note_on_c, 0, 48, 0
1, 1270, Note_on_c, 0, 70, 74
1, 1272, Note_on_c, 0, 63, 65
1, 1273, Note_on_c, 0, 67, 62
1, 1274, Note_on_c, 0, 62, 68
1, 1329, Note_on_c, 0, 70, 0
1, 1332, Note_on_c, 0, 62, 0
1, 1334, Note_on_c, 0, 67, 0
1, 1344, Note_on_c, 0, 63, 0
1, 1358, Note_on_c, 0, 70, 72
1, 1379, Note_on_c, 0, 70, 0
1, 1433, Note_on_c, 0, 40, 43
1, 1437, Note_on_c, 0, 67, 44
1, 1438, Note_on_c, 0, 62, 48
1, 1439, Note_on_c, 0, 47, 35
1, 1444, Control_c, 0, 64, 0
1, 1444, Note_on_c, 0, 55, 47
1, 1478, Control_c, 0, 64, 127
1, 1512, Note_on_c, 0, 62, 0
1, 1526, Note_on_c, 0, 62, 66
1, 1528, Note_on_c, 0, 55, 0
1, 1537, Note_on_c, 0, 40, 0
1, 1543, Note_on_c, 0, 47, 0
1, 1600, Note_on_c, 0, 62, 0
1, 1600, Note_on_c, 0, 59, 45
1, 1620, Note_on_c, 1, 43, 66
1, 1631, Note_on_c, 0, 67, 0
1, 1635, Note_on_c, 0, 59, 0
1, 1660, Note_on_c, 1, 48, 0
1, 1673, Note_on_c, 1, 43, 0
1, 1674, Note_on_c, 0, 59, 54
1, 1674, Note_on_c, 0, 60, 37
1, 1678, Note_on_c, 0, 45, 36
1, 1679, Note_on_c, 1, 45, 66
1, 1682, Control_c, 0, 64, 0
1, 1722, Control_c, 0, 64, 127
1, 1758, Note_on_c, 0, 60, 0
1, 1759, Note_on_c, 0, 61, 63
1, 1816, Note_on_c, 0, 45, 0
1, 1826, Note_on_c, 0, 59, 0
1, 1834, Note_on_c, 0, 63, 55
1, 1858, Note_on_c, 1, 49, 62
1, 1876, Note_on_c, 0, 61, 0
1, 1891, Note_on_c, 1, 45, 0
1, 1897, Note_on_c, 0, 63, 0
1, 1902, Note_on_c, 0, 60, 55
1, 1908, Note_on_c, 0, 51, 33
1, 1909, Note_on_c, 0, 55, 31
1, 1909, Control_c, 0, 64, 0
1, 1912, Note_on_c, 0, 44, 25
1, 1918, Note_on_c, 1, 49, 0
1, 1922, Note_on_c, 1, 56, 56
1, 1951, Control_c, 0, 64, 127
1, 1965, Note_on_c, 0, 51, 0
1, 1990, Note_on_c, 0, 52, 62
1, 2003, Control_c, 0, 64, 0
1, 2035, Control_c, 0, 64, 127
1, 2135, Note_on_c, 0, 52, 0
1, 2150, Note_on_c, 0, 55, 0
1, 2217, Note_on_c, 0, 53, 63
1, 2236, Control_c, 0, 64, 0
1, 2276, Note_on_c, 1, 53, 60
1, 2281, Note_on_c, 1, 56, 0
1, 2285, Note_on_c, 1, 53, 0
1, 2287, Note_on_c, 0, 55, 20
1, 2288, Control_c, 0, 64, 127
1, 2302, Note_on_c, 0, 44, 0
1, 2313, Note_on_c, 0, 55, 0
1, 2318, Control_c, 0, 64, 0
1, 2329, Note_on_c, 0, 60, 0
1, 2334, Note_on_c, 1, 54, 69
1, 2338, Note_on_c, 0, 44, 50
1, 2345, Control_c, 0, 64, 127
1, 2348, Note_on_c, 1, 54, 0
1, 2376, Note_on_c, 0, 44, 0
1, 2378, Note_on_c, 0, 53, 0
1, 2392, Note_on_c, 1, 55, 72
1, 2398, Note_on_c, 0, 67, 37
1, 2398, Note_on_c, 0, 43, 44
1, 2400, Note_on_c, 0, 59, 45
1, 2406, Note_on_c, 0, 55, 33
1, 2408, Control_c, 0, 64, 0
1, 2409, Note_on_c, 1, 55, 0
1, 2412, Note_on_c, 0, 50, 22
1, 2452, Note_on_c, 1, 49, 56
1, 2460, Note_on_c, 0, 51, 65
1, 2469, Note_on_c, 0, 50, 0
1, 2486, Note_on_c, 0, 51, 0
1, 2496, Note_on_c, 1, 49, 0
1, 2510, Note_on_c, 0, 55, 0
1, 2516, Note_on_c, 1, 50, 47
1, 2520, Note_on_c, 0, 52, 49
1, 2523, Note_on_c, 0, 59, 0
1, 2539, Control_c, 0, 64, 127
1, 2542, Note_on_c, 0, 67, 0
1, 2552, Note_on_c, 1, 50, 0
1, 2554, Note_on_c, 0, 52, 0
1, 2576, Note_on_c, 1, 47, 55
1, 2584, Note_on_c, 0, 56, 43
1, 2584, Note_on_c, 0, 62, 45
1, 2585, Note_on_c, 0, 59, 55
1, 2586, Note_on_c, 0, 53, 43
1, 2590, Note_on_c, 1, 47, 0
1, 2595, Control_c, 0, 64, 0
1, 2636, Note_on_c, 1, 43, 34
1, 2646, Note_on_c, 1, 43, 0
1, 2652, Control_c, 0, 64, 127
1, 2684, Note_on_c, 0, 59, 0
1, 2692, Note_on_c, 0, 56, 0
1, 2694, Note_on_c, 0, 62, 0
1, 2695, Note_on_c, 1, 38, 56
1, 2704, Note_on_c, 0, 59, 62
1, 2714, Note_on_c, 1, 38, 0
1, 2748, Note_on_c, 0, 59, 0
1, 2755, Note_on_c, 1, 35, 67
1, 2758, Note_on_c, 0, 43, 0
1, 2761, Note_on_c, 0, 62, 99
1, 2797, Note_on_c, 0, 62, 0
1, 2819, Note_on_c, 0, 65, 96
1, 2860, Note_on_c, 0, 65, 0
1, 2861, Note_on_c, 1, 35, 0
1, 2872, Note_on_c, 1, 36, 61
1, 2873, Note_on_c, 0, 62, 51
1, 2876, Control_c, 0, 64, 0
1, 2878, Note_on_c, 0, 48, 46
1, 2879, Note_on_c, 0, 53, 0
1, 2879, Note_on_c, 0, 63, 56
1, 2916, Control_c, 0, 64, 127
1, 2929, Note_on_c, 0, 62, 0
1, 2935, Note_on_c, 0, 63, 0
1, 2944, Note_on_c, 0, 55, 30
1, 2993, Note_on_c, 0, 48, 0
1, 2995, Note_on_c, 0, 67, 38
1, 3039, Note_on_c, 0, 67, 0
1, 3055, Note_on_c, 0, 74, 54
1, 3058, Note_on_c, 0, 67, 32
1, 3060, Note_on_c, 0, 63, 33
1, 3061, Note_on_c, 0, 62, 33
1, 3062, Note_on_c, 1, 48, 77
1, 3094, Note_on_c, 1, 48, 0
1, 3117, Note_on_c, 0, 62, 0
1, 3122, Note_on_c, 1, 48, 88
1, 3143, Note_on_c, 0, 63, 0
1, 3156, Note_on_c, 0, 67, 0
1, 3164, Note_on_c, 0, 74, 0
1, 3180, Note_on_c, 0, 63, 38
1, 3181, Note_on_c, 0, 60, 38
1, 3181, Note_on_c, 0, 72, 39
1, 3181, Note_on_c, 0, 67, 35
1, 3188, Note_on_c, 1, 49, 62
1, 3195, Note_on_c, 1, 48, 0
1, 3220, Note_on_c, 0, 60, 0
1, 3234, Note_on_c, 1, 49, 0
1, 3236, Note_on_c, 0, 63, 0
1, 3245, Note_on_c, 1, 48, 49
1, 3249, Note_on_c, 0, 67, 0
1, 3254, Note_on_c, 0, 72, 0
1, 3294, Note_on_c, 0, 48, 43
1, 3309, Note_on_c, 0, 55, 0
1, 3310, Note_on_c, 0, 48, 0
1, 3346, Note_on_c, 1, 48, 0
1, 3348, Note_on_c, 1, 36, 0
1, 3351, Note_on_c, 1, 49, 72
1, 3358, Note_on_c, 0, 70, 38
1, 3359, Control_c, 0, 64, 0
1, 3361, Note_on_c, 0, 49, 39
1, 3364, Note_on_c, 0, 63, 30
1, 3366, Note_on_c, 0, 59, 20
1, 3366, Note_on_c, 0, 66, 33
1, 3391, Control_c, 0, 64, 127
1, 3394, Note_on_c, 0, 59, 0
1, 3399, Note_on_c, 0, 70, 0
1, 3402, Note_on_c, 0, 66, 0
1, 3412, Note_on_c, 0, 63, 0
1, 3424, Note_on_c, 0, 59, 39
1, 3436, Note_on_c, 0, 59, 0
1, 3446, Note_on_c, 0, 61, 56
1, 3468, Note_on_c, 0, 63, 67
1, 3470, Note_on_c, 0, 61, 0
1, 3482, Note_on_c, 0, 63, 0
1, 3492, Note_on_c, 0, 65, 71
1, 3507, Note_on_c, 0, 66, 68
1, 3509, Note_on_c, 0, 65, 0
1, 3527, Note_on_c, 0, 68, 58
1, 3540, Note_on_c, 0, 66, 0
1, 3542, Note_on_c, 1, 65, 76
1, 3546, Note_on_c, 0, 70, 69
1, 3551, Note_on_c, 0, 68, 0
1, 3558, Note_on_c, 0, 70, 0
1, 3566, Note_on_c, 0, 71, 63
1, 3580, Note_on_c, 0, 71, 0
1, 3586, Note_on_c, 0, 73, 62
1, 3608, Note_on_c, 0, 73, 0
1, 3608, Note_on_c, 0, 75, 61
1, 3623, Note_on_c, 0, 75, 0
1, 3634, Note_on_c, 0, 77, 56
1, 3651, Note_on_c, 0, 77, 0
1, 3652, Note_on_c, 0, 78, 54
1, 3674, Note_on_c, 0, 80, 52
1, 3676, Note_on_c, 0, 78, 0
1, 3692, Note_on_c, 0, 80, 0
1, 3693, Note_on_c, 0, 82, 37
1, 3700, Note_on_c, 0, 82, 0
1, 3712, Note_on_c, 0, 83, 53
1, 3717, Note_on_c, 0, 49, 0
1, 3719, Note_on_c, 0, 83, 0
1, 3754, Note_on_c, 0, 86, 32
1, 3775, Note_on_c, 0, 86, 0
1, 3776, Note_on_c, 0, 87, 51
1, 3798, Note_on_c, 0, 87, 0
1, 3799, Note_on_c, 0, 88, 64
1, 3808, Note_on_c, 0, 88, 0
1, 3824, Note_on_c, 0, 89, 65
1, 3831, Note_on_c, 1, 63, 71
1, 3838, Note_on_c, 0, 55, 36
1, 3839, Note_on_c, 1, 65, 0
1, 3840, Note_on_c, 0, 46, 31
1, 3844, Control_c, 0, 64, 0
1, 3846, Note_on_c, 0, 86, 57
1, 3848, Note_on_c, 0, 89, 0
1, 3854, Note_on_c, 1, 49, 0
1, 3882, Control_c, 0, 64, 127
1, 3909, Note_on_c, 0, 82, 55
1, 3910, Note_on_c, 0, 46, 0
1, 3920, Note_on_c, 0, 55, 0
1, 3945, Note_on_c, 0, 82, 0
1, 3956, Note_on_c, 0, 86, 0
1, 4024, Note_on_c, 0, 58, 42
1, 4030, Note_on_c, 1, 58, 52
1, 4044, Note_on_c, 1, 63, 0
1, 4081, Note_on_c, 0, 62, 35
1, 4145, Note_on_c, 0, 65, 32
1, 4154, Note_on_c, 0, 65, 0
1, 4198, Note_on_c, 0, 70, 81
1, 4200, Note_on_c, 1, 60, 82
1, 4206, Note_on_c, 0, 62, 0
1, 4210, Note_on_c, 1, 58, 0
1, 4220, Note_on_c, 0, 70, 0
1, 4228, Note_on_c, 0, 58, 0
1, 4258, Note_on_c, 0, 74, 79
1, 4260, Note_on_c, 0, 70, 75
1, 4263, Note_on_c, 0, 58, 42
1, 4280, Note_on_c, 0, 70, 0
1, 4283, Note_on_c, 0, 58, 0
1, 4283, Note_on_c, 0, 74, 0
1, 4319, Control_c, 0, 64, 0
1, 4320, Note_on_c, 0, 68, 52
1, 4321, Note_on_c, 0, 63, 36
1, 4321, Note_on_c, 0, 72, 47
1, 4323, Note_on_c, 0, 58, 38
1, 4359, Control_c, 0, 64, 127
1, 4360, Note_on_c, 0, 58, 0
1, 4386, Note_on_c, 1, 56, 69
1, 4387, Note_on_c, 0, 58, 28
1, 4396, Note_on_c, 0, 72, 0
1, 4398, Note_on_c, 1, 60, 0
1, 4408, Note_on_c, 0, 68, 0
1, 4412, Note_on_c, 0, 58, 0
1, 4421, Note_on_c, 0, 63, 0
1, 4452, Note_on_c, 0, 58, 15
1, 4479, Note_on_c, 0, 58, 0
1, 4502, Note_on_c, 0, 68, 50
1, 4504, Note_on_c, 0, 58, 30
1, 4505, Note_on_c, 0, 60, 43
1, 4506, Note_on_c, 0, 63, 35
1, 4518, Note_on_c, 1, 60, 1
1, 4555, Note_on_c, 1, 56, 0
1, 4556, Note_on_c, 1, 60, 0
1, 4559, Note_on_c, 1, 53, 58
1, 4584, Note_on_c, 0, 58, 0
1, 4590, Note_on_c, 0, 60, 0
1, 4604, Note_on_c, 0, 63, 0
1, 4606, Note_on_c, 0, 68, 0
1, 4617, Note_on_c, 0, 58, 40
1, 4652, Note_on_c, 0, 58, 0
1, 4674, Note_on_c, 0, 58, 31
1, 4676, Note_on_c, 0, 63, 61
1, 4676, Note_on_c, 0, 68, 69
1, 4677, Note_on_c, 0, 72, 60
1, 4705, Note_on_c, 0, 58, 0
1, 4734, Note_on_c, 1, 53, 0
1, 4736, Note_on_c, 0, 58, 39
1, 4736, Note_on_c, 1, 49, 56
1, 4768, Note_on_c, 0, 58, 0
1, 4793, Note_on_c, 0, 63, 0
1, 4799, Note_on_c, 0, 58, 27
1, 4811, Note_on_c, 0, 68, 0
1, 4825, Note_on_c, 0, 58, 0
1, 4829, Note_on_c, 0, 72, 0
1, 4852, Note_on_c, 1, 49, 0
1, 4853, Note_on_c, 0, 70, 62
1, 4856, Note_on_c, 0, 62, 61
1, 4857, Note_on_c, 0, 67, 50
1, 4858, Note_on_c, 0, 58, 50
1, 4864, Note_on_c, 1, 50, 74
1, 4866, Control_c, 0, 64, 0
1, 4888, Control_c, 0, 64, 127
1, 4910, Note_on_c, 0, 58, 0
1, 4962, Note_on_c, 0, 67, 0
1, 4975, Note_on_c, 0, 58, 35
1, 4997, Note_on_c, 0, 58, 0
1, 5032, Note_on_c, 0, 58, 38
1, 5036, Note_on_c, 0, 62, 0
1, 5070, Note_on_c, 0, 58, 0
1, 5095, Note_on_c, 1, 51, 57
1, 5096, Note_on_c, 0, 58, 36
1, 5103, Note_on_c, 1, 50, 0
1, 5122, Note_on_c, 0, 58, 0
1, 5150, Note_on_c, 0, 70, 0
1, 5152, Note_on_c, 1, 53, 57
1, 5153, Note_on_c, 1, 51, 0
1, 5156, Note_on_c, 0, 63, 37
1, 5157, Note_on_c, 0, 62, 35
1, 5158, Note_on_c, 0, 58, 25
1, 5178, Note_on_c, 0, 58, 0
1, 5195, Note_on_c, 1, 53, 0
1, 5198, Note_on_c, 0, 62, 0
1, 5213, Note_on_c, 0, 63, 0
1, 5215, Note_on_c, 0, 58, 42
1, 5216, Note_on_c, 1, 46, 30
1, 5244, Note_on_c, 0, 58, 0
1, 5252, Note_on_c, 1, 46, 0
1, 5272, Note_on_c, 1, 44, 47
1, 5274, Control_c, 0, 64, 0
1, 5274, Note_on_c, 0, 63, 45
1, 5275, Note_on_c, 0, 70, 42
1, 5275, Note_on_c, 0, 59, 48
1, 5276, Note_on_c, 0, 58, 32
1, 5278, Note_on_c, 0, 65, 45
1, 5296, Note_on_c, 0, 59, 0
1, 5296, Control_c, 0, 64, 127
1, 5302, Note_on_c, 0, 65, 0
1, 5305, Note_on_c, 0, 63, 0
1, 5306, Note_on_c, 0, 70, 0
1, 5426, Note_on_c, 0, 58, 0
1, 5456, Note_on_c, 1, 58, 74
1, 5475, Note_on_c, 0, 58, 36
1, 5499, Note_on_c, 0, 58, 0
1, 5516, Note_on_c, 1, 58, 0
1, 5529, Note_on_c, 1, 56, 51
1, 5535, Note_on_c, 0, 58, 43
1, 5563, Note_on_c, 0, 58, 0
1, 5600, Note_on_c, 0, 58, 35
1, 5626, Note_on_c, 0, 58, 0
1, 5709, Note_on_c, 0, 68, 56
1, 5711, Note_on_c, 0, 63, 49
1, 5713, Note_on_c, 0, 66, 48
1, 5714, Note_on_c, 0, 59, 41
1, 5720, Note_on_c, 1, 54, 56
1, 5725, Note_on_c, 0, 59, 0
1, 5726, Note_on_c, 1, 56, 0
1, 5744, Note_on_c, 0, 59, 15
1, 5758, Note_on_c, 1, 54, 0
1, 5766, Note_on_c, 1, 44, 0
1, 5769, Note_on_c, 0, 66, 0
1, 5771, Note_on_c, 0, 59, 0
1, 5773, Note_on_c, 0, 68, 0
1, 5775, Note_on_c, 0, 63, 0
1, 5827, Note_on_c, 0, 67, 58
1, 5829, Note_on_c, 0, 63, 46
1, 5832, Note_on_c, 0, 55, 50
1, 5832, Note_on_c, 0, 60, 56
1, 5834, Note_on_c, 0, 45, 41
1, 5843, Control_c, 0, 64, 0
1, 5871, Note_on_c, 1, 45, 74
1, 5875, Control_c, 0, 64, 127
1, 5925, Note_on_c, 0, 55, 0
1, 5928, Note_on_c, 0, 67, 0
1, 5932, Note_on_c, 0, 45, 0
1, 5941, Note_on_c, 0, 60, 0
1, 5952, Note_on_c, 0, 63, 0
1, 5992, Note_on_c, 1, 45, 0
1, 5995, Note_on_c, 0, 68, 49
1, 5996, Note_on_c, 0, 32, 36
1, 5997, Note_on_c, 0, 44, 31
1, 5998, Note_on_c, 0, 60, 49
1, 5999, Note_on_c, 0, 56, 29
1, 6000, Note_on_c, 0, 63, 31
1, 6003, Control_c, 0, 64, 0
1, 6003, Note_on_c, 1, 44, 52
1, 6009, Note_on_c, 0, 56, 0
1, 6010, Note_on_c, 0, 60, 0
1, 6015, Note_on_c, 0, 68, 0
1, 6018, Note_on_c, 0, 63, 0
1, 6021, Note_on_c, 0, 32, 0
1, 6022, Note_on_c, 0, 44, 0
1, 6026, Note_on_c, 1, 44, 0
1, 6058, Control_c, 0, 64, 127
1, 6108, Control_c, 0, 64, 0
1, 6109, Note_on_c, 0, 70, 42
1, 6114, Note_on_c, 0, 43, 26
1, 6114, Note_on_c, 0, 31, 29
1, 6114, Note_on_c, 0, 63, 39
1, 6114, Note_on_c, 0, 58, 31
1, 6115, Note_on_c, 1, 43, 49
1, 6128, Note_on_c, 0, 58, 0
1, 6129, Note_on_c, 0, 63, 0
1, 6129, Note_on_c, 0, 70, 0
1, 6133, Note_on_c, 0, 31, 0
1, 6134, Note_on_c, 0, 43, 0
1, 6153, Note_on_c, 1, 43, 0
1, 6224, Note_on_c, 0, 63, 33
1, 6228, Note_on_c, 1, 42, 47
1, 6230, Note_on_c, 0, 30, 28
1, 6231, Note_on_c, 0, 58, 27
1, 6231, Note_on_c, 0, 42, 25
1, 6234, Note_on_c, 0, 52, 27
1, 6240, Control_c, 0, 64, 127
1, 6349, Note_on_c, 0, 30, 0
1, 6362, Note_on_c, 0, 42, 0
1, 6364, Note_on_c, 0, 52, 0
1, 6401, Note_on_c, 0, 63, 0
1, 6430, Note_on_c, 0, 58, 0
1, 6484, Control_c, 0, 64, 0
1, 6486, Note_on_c, 0, 63, 30
1, 6489, Note_on_c, 0, 42, 27
1, 6490, Note_on_c, 0, 52, 27
1, 6490, Note_on_c, 0, 58, 27
1, 6491, Note_on_c, 0, 30, 21
1, 6503, Control_c, 0, 64, 127
1, 6549, Note_on_c, 1, 55, 70
1, 6565, Note_on_c, 1, 55, 0
1, 6565, Note_on_c, 0, 30, 0
1, 6578, Note_on_c, 0, 52, 0
1, 6582, Note_on_c, 0, 42, 0
1, 6608, Note_on_c, 1, 54, 53
1, 6629, Note_on_c, 0, 58, 0
1, 6637, Note_on_c, 0, 63, 0
1, 6674, Note_on_c, 0, 63, 25
1, 6677, Note_on_c, 1, 54, 0
1, 6677, Note_on_c, 0, 60, 39
1, 6678, Note_on_c, 0, 56, 32
1, 6680, Note_on_c, 0, 41, 28
1, 6680, Note_on_c, 0, 55, 15
1, 6680, Note_on_c, 0, 51, 21
1, 6680, Note_on_c, 1, 53, 73
1, 6681, Control_c, 0, 64, 0
1, 6689, Note_on_c, 1, 42, 0
1, 6711, Control_c, 0, 64, 127
1, 6716, Note_on_c, 0, 55, 0
1, 6731, Note_on_c, 0, 60, 0
1, 6748, Note_on_c, 0, 56, 0
1, 6755, Note_on_c, 0, 63, 0
1, 6762, Note_on_c, 0, 55, 40
1, 6772, Note_on_c, 0, 55, 0
1, 6793, Note_on_c, 1, 41, 51
1, 6801, Note_on_c, 0, 58, 57
1, 6802, Note_on_c, 1, 41, 0
1, 6814, Note_on_c, 0, 58, 0
1, 6819, Note_on_c, 0, 41, 0
1, 6824, Note_on_c, 0, 60, 77
1, 6840, Note_on_c, 0, 60, 0
1, 6844, Note_on_c, 0, 62, 73
1, 6848, Note_on_c, 0, 51, 0
1, 6858, Note_on_c, 1, 29, 59
1, 6867, Note_on_c, 0, 63, 68
1, 6868, Note_on_c, 0, 62, 0
1, 6875, Note_on_c, 0, 63, 0
1, 6886, Note_on_c, 0, 65, 69
1, 6903, Note_on_c, 0, 67, 66
1, 6907, Note_on_c, 0, 65, 0
1, 6918, Note_on_c, 0, 68, 69
1, 6927, Note_on_c, 0, 67, 0
1, 6936, Note_on_c, 0, 70, 57
1, 6938, Note_on_c, 0, 68, 0
1, 6943, Note_on_c, 0, 70, 0
1, 6955, Note_on_c, 0, 72, 51
1, 6972, Note_on_c, 0, 72, 0
1, 6974, Note_on_c, 0, 74, 60
1, 6997, Note_on_c, 0, 74, 0
1, 7002, Note_on_c, 0, 75, 35
1, 7015, Note_on_c, 0, 76, 60
1, 7016, Note_on_c, 0, 75, 0
1, 7030, Note_on_c, 0, 76, 0
1, 7042, Note_on_c, 1, 41, 54
1, 7044, Note_on_c, 0, 63, 36
1, 7044, Note_on_c, 0, 77, 54
1, 7046, Note_on_c, 1, 29, 0
1, 7047, Note_on_c, 0, 67, 32
1, 7048, Control_c, 0, 64, 0
1, 7048, Note_on_c, 0, 56, 31
1, 7049, Note_on_c, 0, 60, 38
1, 7057, Note_on_c, 1, 41, 0
1, 7080, Control_c, 0, 64, 127
1, 7098, Note_on_c, 1, 36, 48
1, 7157, Note_on_c, 0, 75, 60
1, 7171, Note_on_c, 0, 67, 0
1, 7172, Note_on_c, 0, 56, 0
1, 7174, Note_on_c, 0, 60, 0
1, 7182, Note_on_c, 1, 53, 0
1, 7183, Note_on_c, 0, 63, 0
1, 7200, Note_on_c, 1, 36, 0
1, 7200, Note_on_c, 0, 77, 0
1, 7202, Note_on_c, 0, 75, 0
1, 7207, Note_on_c, 1, 34, 51
1, 7215, Note_on_c, 0, 74, 45
1, 7216, Note_on_c, 0, 67, 29
1, 7217, Note_on_c, 0, 56, 32
1, 7217, Note_on_c, 0, 62, 36
1, 7220, Control_c, 0, 64, 0
1, 7244, Control_c, 0, 64, 127
1, 7260, Note_on_c, 0, 67, 0
1, 7267, Note_on_c, 0, 62, 0
1, 7274, Note_on_c, 0, 79, 53
1, 7277, Note_on_c, 0, 74, 0
1, 7286, Note_on_c, 0, 56, 0
1, 7308, Note_on_c, 0, 79, 0
1, 7322, Note_on_c, 0, 67, 39
1, 7341, Note_on_c, 0, 67, 0
1, 7380, Note_on_c, 0, 46, 43
1, 7385, Note_on_c, 1, 46, 39
1, 7397, Note_on_c, 1, 46, 0
1, 7442, Note_on_c, 0, 66, 47
1, 7443, Note_on_c, 0, 71, 49
1, 7443, Note_on_c, 0, 62, 40
1, 7443, Note_on_c, 1, 46, 57
1, 7445, Note_on_c, 0, 56, 34
1, 7456, Note_on_c, 1, 34, 0
1, 7457, Control_c, 0, 64, 0
1, 7460, Note_on_c, 0, 66, 0
1, 7469, Note_on_c, 0, 67, 29
1, 7501, Control_c, 0, 64, 127
1, 7519, Note_on_c, 0, 62, 0
1, 7521, Note_on_c, 0, 67, 0
1, 7525, Note_on_c, 0, 56, 0
1, 7533, Note_on_c, 0, 71, 0
1, 7545, Control_c, 0, 64, 0
1, 7558, Note_on_c, 0, 66, 40
1, 7558, Note_on_c, 0, 71, 34
1, 7559, Note_on_c, 0, 62, 40
1, 7563, Note_on_c, 0, 56, 35
1, 7573, Note_on_c, 0, 66, 0
1, 7577, Note_on_c, 0, 67, 42
1, 7577, Control_c, 0, 64, 127
1, 7596, Note_on_c, 0, 46, 0
1, 7614, Note_on_c, 0, 62, 0
1, 7614, Note_on_c, 0, 67, 0
1, 7615, Note_on_c, 0, 71, 0
1, 7620, Note_on_c, 0, 46, 35
1, 7656, Note_on_c, 0, 56, 0
1, 7682, Note_on_c, 0, 70, 45
1, 7683, Note_on_c, 1, 46, 0
1, 7684, Note_on_c, 0, 65, 40
1, 7686, Note_on_c, 0, 60, 30
1, 7689, Note_on_c, 0, 55, 36
1, 7689, Note_on_c, 1, 39, 45
1, 7694, Control_c, 0, 64, 0
1, 7735, Control_c, 0, 64, 127
1, 7754, Note_on_c, 0, 46, 0
1, 7758, Note_on_c, 0, 46, 25
1, 7768, Note_on_c, 0, 60, 0
1, 7778, Note_on_c, 0, 65, 0
1, 7790, Note_on_c, 0, 70, 0
1, 7832, Note_on_c, 0, 46, 0
1, 7869, Note_on_c, 0, 46, 60
1, 7890, Note_on_c, 0, 55, 0
1, 7929, Note_on_c, 0, 55, 46
1, 7931, Note_on_c, 0, 91, 53
1, 7943, Note_on_c, 0, 91, 0
1, 7945, Note_on_c, 0, 94, 71
1, 7971, Note_on_c, 0, 91, 55
1, 7982, Note_on_c, 0, 94, 0
1, 7990, Note_on_c, 1, 58, 80
1, 7996, Note_on_c, 0, 91, 0
1, 7998, Note_on_c, 0, 89, 66
1, 8006, Note_on_c, 0, 89, 0
1, 8012, Note_on_c, 0, 55, 0
1, 8045, Note_on_c, 0, 87, 76
1, 8051, Note_on_c, 0, 55, 39
1, 8077, Note_on_c, 0, 46, 0
1, 8079, Note_on_c, 0, 55, 0
1, 8089, Note_on_c, 0, 87, 0
1, 8101, Note_on_c, 0, 86, 66
1, 8198, Note_on_c, 0, 86, 0
1, 8216, Note_on_c, 0, 84, 64
1, 8217, Note_on_c, 0, 63, 42
1, 8217, Note_on_c, 0, 68, 43
1, 8220, Note_on_c, 0, 60, 41
1, 8334, Note_on_c, 1, 46, 57
1, 8335, Note_on_c, 0, 58, 30
1, 8337, Note_on_c, 1, 39, 0
1, 8363, Note_on_c, 0, 84, 0
1, 8397, Note_on_c, 0, 82, 93
1, 8423, Note_on_c, 0, 58, 0
1, 8454, Note_on_c, 0, 80, 75
1, 8456, Note_on_c, 0, 60, 0
1, 8458, Note_on_c, 0, 58, 47
1, 8462, Note_on_c, 1, 46, 0
1, 8468, Note_on_c, 1, 46, 64
1, 8472, Note_on_c, 0, 82, 0
1, 8482, Note_on_c, 1, 58, 0
1, 8492, Note_on_c, 0, 80, 0
1, 8510, Note_on_c, 0, 79, 60
1, 8511, Note_on_c, 0, 68, 0
1, 8518, Note_on_c, 1, 58, 98
1, 8528, Note_on_c, 0, 63, 0
1, 8538, Note_on_c, 0, 58, 0
1, 8554, Note_on_c, 0, 79, 0
1, 8569, Note_on_c, 0, 77, 38
1, 8596, Note_on_c, 1, 46, 0
1, 8608, Note_on_c, 0, 77, 0
1, 8630, Note_on_c, 0, 46, 51
1, 8634, Note_on_c, 0, 74, 54
1, 8636, Control_c, 0, 64, 0
1, 8660, Control_c, 0, 64, 127
1, 8694, Note_on_c, 0, 74, 0
1, 8696, Note_on_c, 0, 77, 44
1, 8723, Note_on_c, 0, 77, 0
1, 8754, Note_on_c, 0, 65, 33
1, 8811, Note_on_c, 0, 65, 0
1, 8812, Note_on_c, 1, 39, 60
1, 8814, Note_on_c, 0, 74, 52
1, 8814, Note_on_c, 0, 55, 38
1, 8815, Note_on_c, 0, 70, 59
1, 8924, Note_on_c, 0, 46, 0
1, 8931, Note_on_c, 1, 58, 0
1, 8939, Note_on_c, 0, 65, 40
1, 8978, Note_on_c, 0, 74, 0
1, 8992, Note_on_c, 1, 58, 93
1, 8993, Note_on_c, 0, 46, 39
1, 8998, Note_on_c, 0, 70, 0
1, 9003, Note_on_c, 1, 39, 0
1, 9007, Note_on_c, 0, 65, 0
1, 9022, Note_on_c, 0, 46, 0
1, 9059, Note_on_c, 0, 46, 32
1, 9070, Note_on_c, 0, 55, 0
1, 9118, Note_on_c, 0, 68, 36
1, 9118, Note_on_c, 0, 63, 36
1, 9120, Note_on_c, 0, 56, 37
1, 9121, Note_on_c, 0, 60, 25
1, 9123, Control_c, 0, 64, 0
1, 9138, Note_on_c, 0, 60, 0
1, 9145, Control_c, 0, 64, 127
1, 9147, Note_on_c, 0, 46, 0
1, 9180, Note_on_c, 0, 68, 0
1, 9181, Note_on_c, 0, 46, 26
1, 9186, Note_on_c, 0, 63, 0
1, 9208, Note_on_c, 0, 46, 0
1, 9242, Note_on_c, 0, 46, 25
1, 9250, Note_on_c, 0, 56, 0
1, 9302, Note_on_c, 1, 46, 55
1, 9304, Note_on_c, 0, 66, 52
1, 9306, Note_on_c, 0, 62, 40
1, 9309, Note_on_c, 0, 71, 35
1, 9309, Note_on_c, 0, 56, 38
1, 9320, Control_c, 0, 64, 0
1, 9325, Note_on_c, 0, 66, 0
1, 9325, Note_on_c, 1, 58, 0
1, 9336, Note_on_c, 0, 67, 19
1, 9370, Control_c, 0, 64, 127
1, 9398, Note_on_c, 0, 46, 0
1, 9425, Note_on_c, 0, 46, 36
1, 9466, Note_on_c, 0, 62, 0
1, 9484, Note_on_c, 0, 56, 0
1, 9500, Note_on_c, 0, 46, 0
1, 9520, Note_on_c, 0, 67, 0
1, 9524, Note_on_c, 0, 71, 0
1, 9544, Note_on_c, 0, 46, 29
1, 9546, Note_on_c, 1, 50, 51
1, 9562, Note_on_c, 1, 50, 0
1, 9597, Note_on_c, 0, 46, 0
1, 9602, Note_on_c, 0, 62, 39
1, 9602, Control_c, 0, 64, 0
1, 9602, Note_on_c, 1, 51, 56
1, 9604, Note_on_c, 0, 67, 35
1, 9605, Note_on_c, 0, 55, 40
1, 9607, Note_on_c, 0, 39, 37
1, 9611, Note_on_c, 1, 46, 0
1, 9624, Note_on_c, 0, 55, 0
1, 9626, Control_c, 0, 64, 127
1, 9640, Note_on_c, 0, 62, 0
1, 9656, Note_on_c, 0, 67, 0
1, 9661, Note_on_c, 0, 46, 43
1, 9664, Note_on_c, 0, 39, 0
1, 9699, Note_on_c, 0, 46, 0
1, 9717, Note_on_c, 0, 55, 47
1, 9770, Note_on_c, 0, 55, 0
1, 9777, Note_on_c, 0, 79, 85
1, 9777, Note_on_c, 0, 74, 87
1, 9778, Note_on_c, 0, 58, 48
1, 9778, Note_on_c, 0, 67, 84
1, 9832, Note_on_c, 0, 62, 55
1, 9835, Note_on_c, 0, 74, 0
1, 9842, Note_on_c, 0, 67, 0
1, 9865, Note_on_c, 0, 79, 0
1, 9886, Note_on_c, 0, 62, 0
1, 9897, Note_on_c, 0, 67, 38
1, 9938, Note_on_c, 0, 67, 0
1, 9950, Note_on_c, 0, 62, 36
1, 9958, Note_on_c, 0, 62, 0
1, 9969, Note_on_c, 0, 58, 0
1, 10008, Note_on_c, 1, 51, 0
1, 10010, Note_on_c, 0, 67, 30
1, 10015, Note_on_c, 0, 55, 36
1, 10018, Note_on_c, 1, 56, 57
1, 10046, Note_on_c, 0, 67, 0
1, 10063, Note_on_c, 0, 55, 0
1, 10066, Note_on_c, 0, 75, 57
1, 10068, Note_on_c, 0, 67, 42
1, 10071, Note_on_c, 0, 63, 25
1, 10073, Note_on_c, 0, 48, 54
1, 10079, Note_on_c, 1, 55, 52
1, 10082, Note_on_c, 1, 56, 0
1, 10082, Control_c, 0, 64, 0
1, 10104, Control_c, 0, 64, 127
1, 10117, Note_on_c, 0, 48, 0
1, 10129, Note_on_c, 0, 55, 29
1, 10154, Note_on_c, 0, 55, 0
1, 10156, Note_on_c, 0, 63, 0
1, 10160, Note_on_c, 0, 67, 0
1, 10184, Note_on_c, 0, 63, 46
1, 10186, Note_on_c, 0, 67, 41
1, 10188, Note_on_c, 0, 62, 66
1, 10231, Note_on_c, 1, 51, 60
1, 10235, Note_on_c, 1, 55, 0
1, 10238, Note_on_c, 0, 63, 0
1, 10248, Note_on_c, 0, 63, 19
1, 10250, Note_on_c, 1, 51, 0
1, 10263, Note_on_c, 1, 47, 56
1, 10264, Note_on_c, 0, 67, 0
1, 10270, Note_on_c, 1, 47, 0
1, 10272, Note_on_c, 0, 63, 0
1, 10303, Note_on_c, 1, 43, 66
1, 10304, Note_on_c, 0, 63, 47
1, 10309, Note_on_c, 0, 67, 26
1, 10321, Note_on_c, 0, 67, 0
1, 10322, Note_on_c, 0, 63, 0
1, 10368, Note_on_c, 0, 63, 57
1, 10370, Note_on_c, 0, 67, 52
1, 10372, Note_on_c, 0, 60, 68
1, 10375, Note_on_c, 0, 62, 0
1, 10407, Note_on_c, 0, 67, 0
1, 10413, Note_on_c, 0, 63, 0
1, 10467, Note_on_c, 0, 60, 0
1, 10480, Note_on_c, 1, 38, 43
1, 10489, Note_on_c, 1, 43, 0
1, 10500, Note_on_c, 0, 63, 42
1, 10501, Note_on_c, 0, 75, 0
1, 10502, Note_on_c, 0, 67, 32
1, 10512, Note_on_c, 0, 67, 0
1, 10520, Note_on_c, 0, 63, 0
1, 10533, Note_on_c, 1, 38, 0
1, 10559, Note_on_c, 1, 43, 49
1, 10622, Note_on_c, 0, 70, 51
1, 10623, Note_on_c, 0, 63, 44
1, 10623, Note_on_c, 0, 59, 45
1, 10626, Note_on_c, 0, 67, 35
1, 10630, Note_on_c, 0, 43, 24
1, 10632, Note_on_c, 0, 53, 42
1, 10637, Control_c, 0, 64, 0
1, 10669, Control_c, 0, 64, 127
1, 10680, Note_on_c, 0, 67, 0
1, 10698, Note_on_c, 0, 70, 0
1, 10704, Note_on_c, 0, 53, 0
1, 10709, Note_on_c, 0, 59, 0
1, 10714, Note_on_c, 0, 68, 59
1, 10742, Note_on_c, 1, 50, 62
1, 10743, Note_on_c, 0, 68, 0
1, 10749, Note_on_c, 1, 50, 0
1, 10751, Note_on_c, 0, 43, 0
1, 10758, Note_on_c, 0, 63, 0
1, 10796, Note_on_c, 0, 62, 49
1, 10797, Note_on_c, 0, 67, 39
1, 10798, Note_on_c, 0, 58, 35
1, 10800, Control_c, 0, 64, 0
1, 10800, Note_on_c, 0, 53, 35
1, 10800, Note_on_c, 1, 50, 79
1, 10801, Note_on_c, 0, 43, 22
1, 10813, Note_on_c, 1, 43, 0
1, 10826, Control_c, 0, 64, 127
1, 10838, Note_on_c, 0, 62, 0
1, 10854, Note_on_c, 0, 58, 0
1, 10865, Note_on_c, 0, 67, 0
1, 10865, Note_on_c, 0, 43, 0
1, 10867, Note_on_c, 0, 53, 0
1, 10880, Note_on_c, 0, 62, 45
1, 10883, Note_on_c, 0, 58, 30
1, 10892, Note_on_c, 0, 47, 24
1, 10926, Note_on_c, 0, 62, 0
1, 10932, Note_on_c, 0, 58, 0
1, 10935, Note_on_c, 0, 47, 0
1, 10977, Note_on_c, 1, 36, 49
1, 10988, Note_on_c, 0, 61, 48
1, 10988, Note_on_c, 0, 56, 35
1, 10991, Note_on_c, 0, 65, 53
1, 10991, Note_on_c, 0, 46, 36
1, 10996, Control_c, 0, 64, 0
1, 11024, Note_on_c, 1, 50, 0
1, 11025, Note_on_c, 1, 36, 0
1, 11033, Control_c, 0, 64, 127
1, 11036, Note_on_c, 1, 46, 64
1, 11075, Note_on_c, 0, 56, 0
1, 11100, Note_on_c, 0, 46, 0
1, 11106, Note_on_c, 0, 56, 36
1, 11109, Note_on_c, 0, 61, 0
1, 11144, Note_on_c, 0, 56, 0
1, 11152, Note_on_c, 0, 65, 0
1, 11164, Note_on_c, 0, 61, 40
1, 11190, Note_on_c, 0, 61, 0
1, 11210, Note_on_c, 1, 46, 0
1, 11217, Note_on_c, 1, 45, 48
1, 11221, Note_on_c, 0, 61, 39
1, 11223, Note_on_c, 0, 65, 49
1, 11243, Note_on_c, 0, 65, 0
1, 11244, Note_on_c, 0, 61, 0
1, 11275, Note_on_c, 1, 45, 0
1, 11280, Note_on_c, 0, 64, 49
1, 11281, Control_c, 0, 64, 0
1, 11282, Note_on_c, 0, 61, 27
1, 11283, Note_on_c, 1, 44, 53
1, 11284, Note_on_c, 0, 59, 39
1, 11286, Note_on_c, 0, 55, 20
1, 11306, Note_on_c, 0, 55, 0
1, 11312, Note_on_c, 0, 59, 0
1, 11315, Note_on_c, 0, 64, 0
1, 11321, Note_on_c, 0, 61, 0
1, 11395, Note_on_c, 0, 33, 36
1, 11411, Note_on_c, 0, 33, 0
1, 11454, Note_on_c, 0, 71, 64
1, 11454, Note_on_c, 0, 32, 81
1, 11454, Note_on_c, 0, 61, 69
1, 11456, Note_on_c, 0, 64, 68
1, 11458, Note_on_c, 0, 67, 59
1, 11464, Control_c, 0, 64, 127
1, 11481, Note_on_c, 0, 64, 0
1, 11486, Note_on_c, 0, 71, 0
1, 11492, Note_on_c, 0, 67, 0
1, 11501, Note_on_c, 0, 61, 0
1, 11526, Control_c, 0, 64, 0
1, 11528, Note_on_c, 0, 32, 0
1, 11569, Note_on_c, 0, 32, 65
1, 11570, Note_on_c, 0, 70, 58
1, 11572, Note_on_c, 0, 63, 54
1, 11574, Note_on_c, 0, 67, 37
1, 11575, Note_on_c, 0, 60, 52
1, 11583, Note_on_c, 0, 60, 0
1, 11586, Note_on_c, 0, 32, 0
1, 11593, Note_on_c, 0, 67, 0
1, 11596, Note_on_c, 0, 70, 0
1, 11603, Note_on_c, 0, 63, 0
1, 11689, Control_c, 0, 64, 127
1, 11690, Note_on_c, 0, 63, 35
1, 11690, Note_on_c, 1, 56, 70
1, 11693, Note_on_c, 0, 60, 48
1, 11693, Note_on_c, 0, 67, 32
1, 11694, Note_on_c, 0, 44, 33
1, 11695, Note_on_c, 0, 55, 33
1, 11695, Note_on_c, 0, 51, 34
1, 11699, Note_on_c, 1, 56, 0
1, 11708, Note_on_c, 0, 55, 0
1, 11718, Note_on_c, 0, 60, 0
1, 11723, Note_on_c, 0, 63, 0
1, 11747, Note_on_c, 0, 67, 0
1, 11751, Note_on_c, 1, 56, 74
1, 11758, Note_on_c, 0, 63, 34
1, 11758, Note_on_c, 0, 55, 33
1, 11760, Control_c, 0, 64, 0
1, 11761, Note_on_c, 0, 60, 56
1, 11776, Control_c, 0, 64, 127
1, 11783, Note_on_c, 0, 55, 0
1, 11825, Note_on_c, 0, 44, 0
1, 11828, Note_on_c, 0, 60, 0
1, 11840, Note_on_c, 0, 63, 0
1, 11875, Note_on_c, 0, 44, 51
1, 11876, Note_on_c, 1, 56, 0
1, 11876, Note_on_c, 1, 54, 56
1, 11892, Note_on_c, 0, 44, 0
1, 11897, Note_on_c, 0, 51, 0
1, 11932, Note_on_c, 1, 54, 0
1, 11936, Note_on_c, 1, 44, 0
1, 11937, Note_on_c, 1, 55, 82
1, 12055, Note_on_c, 0, 75, 70
1, 12056, Note_on_c, 0, 71, 64
1, 12056, Note_on_c, 0, 68, 64
1, 12057, Note_on_c, 0, 63, 68
1, 12057, Note_on_c, 0, 65, 69
1, 12062, Note_on_c, 1, 42, 52
1, 12069, Control_c, 0, 64, 0
1, 12077, Note_on_c, 1, 55, 0
1, 12093, Control_c, 0, 64, 127
1, 12111, Note_on_c, 1, 42, 0
1, 12116, Note_on_c, 0, 63, 0
1, 12122, Note_on_c, 1, 43, 40
1, 12124, Note_on_c, 0, 71, 0
1, 12124, Note_on_c, 0, 65, 0
1, 12128, Note_on_c, 0, 75, 0
1, 12130, Note_on_c, 0, 68, 0
1, 12167, Note_on_c, 0, 74, 58
1, 12169, Note_on_c, 0, 68, 68
1, 12170, Note_on_c, 0, 59, 51
1, 12172, Note_on_c, 0, 65, 66
1, 12176, Control_c, 0, 64, 0
1, 12178, Note_on_c, 1, 31, 53
1, 12199, Note_on_c, 0, 74, 0
1, 12201, Note_on_c, 0, 65, 0
1, 12204, Note_on_c, 0, 68, 0
1, 12204, Control_c, 0, 64, 127
1, 12208, Note_on_c, 1, 31, 0
1, 12210, Note_on_c, 0, 59, 0
1, 12240, Note_on_c, 1, 31, 61
1, 12253, Note_on_c, 0, 70, 62
1, 12255, Note_on_c, 0, 63, 54
1, 12256, Note_on_c, 0, 67, 42
1, 12256, Note_on_c, 0, 55, 57
1, 12258, Control_c, 0, 64, 0
1, 12258, Note_on_c, 0, 59, 40
1, 12281, Note_on_c, 0, 55, 0
1, 12283, Note_on_c, 0, 59, 0
1, 12284, Note_on_c, 0, 67, 0
1, 12287, Control_c, 0, 64, 127
1, 12296, Note_on_c, 0, 63, 0
1, 12301, Note_on_c, 0, 70, 0
1, 12334, Note_on_c, 0, 68, 53
1, 12335, Note_on_c, 0, 43, 39
1, 12337, Note_on_c, 0, 63, 55
1, 12338, Control_c, 0, 64, 0
1, 12338, Note_on_c, 0, 53, 38
1, 12339, Note_on_c, 0, 59, 31
1, 12356, Note_on_c, 0, 59, 0
1, 12356, Note_on_c, 0, 43, 0
1, 12362, Control_c, 0, 64, 127
1, 12365, Note_on_c, 0, 68, 0
1, 12372, Note_on_c, 0, 53, 0
1, 12376, Note_on_c, 0, 63, 0
1, 12416, Note_on_c, 1, 31, 0
1, 12423, Note_on_c, 0, 62, 58
1, 12425, Note_on_c, 0, 67, 50
1, 12426, Note_on_c, 1, 43, 0
1, 12426, Note_on_c, 0, 58, 34
1, 12428, Note_on_c, 0, 55, 36
1, 12428, Control_c, 0, 64, 0
1, 12428, Note_on_c, 1, 35, 47
1, 12429, Note_on_c, 0, 48, 38
1, 12466, Control_c, 0, 64, 127
1, 12471, Note_on_c, 0, 58, 0
1, 12474, Note_on_c, 1, 35, 0
1, 12486, Note_on_c, 1, 36, 53
1, 12502, Note_on_c, 0, 62, 0
1, 12524, Note_on_c, 0, 67, 0
1, 12535, Note_on_c, 0, 55, 0
1, 12539, Note_on_c, 0, 58, 42
1, 12544, Note_on_c, 0, 65, 56
1, 12545, Note_on_c, 0, 62, 44
1, 12569, Note_on_c, 0, 58, 0
1, 12574, Note_on_c, 0, 65, 0
1, 12581, Note_on_c, 0, 62, 0
1, 12596, Note_on_c, 0, 57, 42
1, 12600, Note_on_c, 0, 64, 38
1, 12620, Note_on_c, 0, 57, 0
1, 12652, Note_on_c, 0, 64, 0
1, 12671, Note_on_c, 0, 65, 56
1, 12672, Note_on_c, 0, 62, 59
1, 12674, Note_on_c, 0, 58, 47
1, 12681, Control_c, 0, 64, 0
1, 12715, Control_c, 0, 64, 127
1, 12720, Note_on_c, 0, 48, 0
1, 12756, Note_on_c, 0, 58, 0
1, 12763, Note_on_c, 0, 62, 0
1, 12771, Note_on_c, 0, 65, 0
1, 12778, Note_on_c, 1, 48, 73
1, 12787, Note_on_c, 0, 63, 48
1, 12788, Note_on_c, 0, 48, 42
1, 12788, Note_on_c, 0, 58, 42
1, 12795, Note_on_c, 1, 48, 0
1, 12813, Note_on_c, 1, 47, 53
1, 12821, Note_on_c, 1, 47, 0
1, 12823, Note_on_c, 0, 58, 0
1, 12838, Note_on_c, 0, 63, 0
1, 12843, Note_on_c, 1, 48, 75
1, 12855, Note_on_c, 0, 48, 0
1, 12897, Note_on_c, 0, 48, 53
1, 12920, Note_on_c, 0, 48, 0
1, 12934, Note_on_c, 1, 48, 0
1, 12947, Note_on_c, 1, 49, 48
1, 12958, Control_c, 0, 64, 0
1, 12959, Note_on_c, 0, 66, 59
1, 12960, Note_on_c, 0, 75, 60
1, 12960, Note_on_c, 0, 71, 54
1, 12965, Note_on_c, 0, 49, 37
1, 12966, Note_on_c, 1, 49, 0
1, 12971, Note_on_c, 1, 36, 0
1, 12984, Note_on_c, 1, 48, 29
1, 12992, Control_c, 0, 64, 127
1, 12995, Note_on_c, 1, 48, 0
1, 13014, Note_on_c, 1, 49, 53
1, 13023, Note_on_c, 0, 71, 0
1, 13036, Note_on_c, 0, 66, 0
1, 13046, Note_on_c, 0, 75, 0
1, 13116, Note_on_c, 0, 49, 0
1, 13144, Note_on_c, 0, 49, 40
1, 13181, Note_on_c, 0, 49, 0
1, 13202, Note_on_c, 0, 49, 44
1, 13242, Note_on_c, 0, 49, 0
1, 13269, Note_on_c, 0, 61, 39
1, 13271, Note_on_c, 0, 68, 49
1, 13272, Note_on_c, 0, 49, 46
1, 13273, Note_on_c, 0, 65, 50
1, 13318, Note_on_c, 0, 61, 0
1, 13328, Note_on_c, 0, 49, 0
1, 13333, Note_on_c, 0, 65, 0
1, 13341, Note_on_c, 0, 68, 0
1, 13370, Note_on_c, 0, 49, 36
1, 13394, Note_on_c, 0, 49, 0
1, 13425, Note_on_c, 1, 49, 0
1, 13433, Note_on_c, 1, 46, 29
1, 13493, Note_on_c, 1, 58, 57
1, 13508, Note_on_c, 1, 58, 0
1, 13516, Note_on_c, 0, 70, 57
1, 13517, Note_on_c, 0, 46, 56
1, 13518, Note_on_c, 0, 58, 55
1, 13521, Note_on_c, 0, 55, 51
1, 13523, Note_on_c, 0, 67, 24
1, 13524, Note_on_c, 0, 62, 45
1, 13527, Control_c, 0, 64, 0
1, 13555, Note_on_c, 1, 58, 46
1, 13565, Note_on_c, 1, 58, 0
1, 13567, Control_c, 0, 64, 127
1, 13596, Note_on_c, 0, 46, 0
1, 13607, Note_on_c, 1, 58, 56
1, 13613, Note_on_c, 0, 62, 0
1, 13616, Note_on_c, 0, 67, 0
1, 13619, Note_on_c, 1, 58, 0
1, 13630, Note_on_c, 0, 46, 51
1, 13642, Note_on_c, 0, 58, 0
1, 13645, Note_on_c, 0, 55, 0
1, 13663, Note_on_c, 0, 70, 0
1, 13666, Note_on_c, 1, 58, 64
1, 13674, Note_on_c, 0, 46, 0
1, 13691, Note_on_c, 0, 46, 43
1, 13694, Note_on_c, 0, 62, 43
1, 13697, Note_on_c, 0, 58, 25
1, 13701, Note_on_c, 0, 67, 24
1, 13708, Note_on_c, 0, 58, 0
1, 13708, Note_on_c, 0, 62, 0
1, 13719, Note_on_c, 0, 67, 0
1, 13734, Note_on_c, 1, 58, 0
1, 13737, Note_on_c, 1, 60, 55
1, 13801, Note_on_c, 1, 60, 0
1, 13804, Note_on_c, 1, 58, 47
1, 13806, Note_on_c, 0, 74, 72
1, 13808, Note_on_c, 0, 67, 73
1, 13808, Note_on_c, 0, 70, 71
1, 13809, Note_on_c, 0, 62, 73
1, 13811, Note_on_c, 0, 58, 64
1, 13814, Control_c, 0, 64, 0
1, 13841, Note_on_c, 0, 46, 0
1, 13849, Note_on_c, 0, 62, 0
1, 13852, Control_c, 0, 64, 127
1, 13857, Note_on_c, 0, 74, 0
1, 13860, Note_on_c, 0, 67, 0
1, 13868, Note_on_c, 0, 46, 52
1, 13872, Note_on_c, 0, 58, 0
1, 13872, Note_on_c, 0, 70, 0
1, 13892, Note_on_c, 0, 46, 0
1, 13919, Note_on_c, 1, 46, 0
1, 13926, Note_on_c, 0, 72, 54
1, 13928, Note_on_c, 0, 67, 46
1, 13930, Control_c, 0, 64, 0
1, 13931, Note_on_c, 0, 60, 40
1, 13933, Note_on_c, 0, 44, 48
1, 13960, Note_on_c, 0, 67, 0
1, 13962, Control_c, 0, 64, 127
1, 13969, Note_on_c, 0, 60, 0
1, 13982, Note_on_c, 0, 51, 39
1, 13988, Note_on_c, 0, 72, 0
1, 14023, Note_on_c, 0, 44, 0
1, 14025, Note_on_c, 0, 51, 0
1, 14034, Note_on_c, 0, 55, 55
1, 14037, Note_on_c, 0, 65, 63
1, 14040, Note_on_c, 0, 60, 54
1, 14040, Note_on_c, 0, 67, 40
1, 14048, Note_on_c, 0, 55, 0
1, 14050, Note_on_c, 0, 60, 0
1, 14062, Note_on_c, 0, 65, 0
1, 14068, Note_on_c, 0, 67, 0
1, 14098, Note_on_c, 0, 56, 51
1, 14099, Note_on_c, 1, 56, 83
1, 14112, Note_on_c, 1, 58, 0
1, 14161, Note_on_c, 0, 84, 66
1, 14161, Note_on_c, 0, 72, 65
1, 14163, Note_on_c, 0, 60, 40
1, 14163, Note_on_c, 0, 77, 44
1, 14171, Note_on_c, 0, 79, 28
1, 14216, Note_on_c, 0, 79, 0
1, 14226, Note_on_c, 0, 63, 36
1, 14231, Note_on_c, 1, 51, 74
1, 14233, Note_on_c, 0, 72, 0
1, 14237, Note_on_c, 0, 84, 0
1, 14238, Note_on_c, 0, 60, 0
1, 14240, Note_on_c, 0, 77, 0
1, 14255, Note_on_c, 0, 63, 0
1, 14272, Note_on_c, 1, 56, 0
1, 14282, Note_on_c, 0, 60, 33
1, 14284, Note_on_c, 0, 56, 0
1, 14290, Note_on_c, 0, 60, 0
1, 14345, Note_on_c, 1, 44, 55
1, 14398, Note_on_c, 1, 51, 0
1, 14399, Note_on_c, 0, 63, 36
1, 14399, Note_on_c, 0, 67, 33
1, 14400, Note_on_c, 1, 44, 0
1, 14400, Note_on_c, 0, 55, 28
1, 14406, Note_on_c, 0, 43, 37
1, 14407, Note_on_c, 1, 43, 64
1, 14417, Control_c, 0, 64, 0
1, 14455, Control_c, 0, 64, 127
1, 14464, Note_on_c, 0, 51, 31
1, 14468, Note_on_c, 0, 55, 0
1, 14520, Note_on_c, 0, 58, 39
1, 14528, Note_on_c, 0, 63, 0
1, 14533, Note_on_c, 0, 67, 0
1, 14578, Note_on_c, 0, 58, 0
1, 14579, Note_on_c, 1, 55, 81
1, 14580, Note_on_c, 0, 55, 63
1, 14655, Note_on_c, 0, 55, 0
1, 14696, Note_on_c, 0, 55, 39
1, 14696, Note_on_c, 0, 58, 45
1, 14698, Note_on_c, 0, 67, 24
1, 14699, Note_on_c, 0, 62, 33
1, 14731, Note_on_c, 0, 43, 0
1, 14735, Note_on_c, 0, 62, 0
1, 14740, Note_on_c, 0, 58, 0
1, 14754, Note_on_c, 0, 67, 0
1, 14797, Note_on_c, 1, 55, 0
1, 14809, Note_on_c, 0, 55, 0
1, 14810, Note_on_c, 0, 43, 38
1, 14814, Note_on_c, 0, 51, 0
1, 14814, Note_on_c, 1, 55, 68
1, 14837, Note_on_c, 0, 43, 0
1, 14866, Note_on_c, 1, 55, 0
1, 14876, Note_on_c, 1, 56, 67
1, 14894, Note_on_c, 1, 43, 0
1, 14914, Control_c, 0, 64, 0
1, 14925, Note_on_c, 0, 70, 53
1, 14925, Note_on_c, 0, 63, 49
1, 14925, Note_on_c, 0, 59, 52
1, 14926, Note_on_c, 0, 44, 53
1, 14928, Note_on_c, 0, 65, 49
1, 14965, Note_on_c, 0, 46, 48
1, 14970, Note_on_c, 0, 44, 0
1, 14982, Note_on_c, 0, 46, 0
1, 14993, Note_on_c, 0, 47, 53
1, 15007, Note_on_c, 0, 47, 0
1, 15048, Note_on_c, 1, 49, 62
1, 15058, Note_on_c, 0, 49, 32
1, 15070, Note_on_c, 0, 49, 0
1, 15070, Note_on_c, 1, 56, 0
1, 15115, Note_on_c, 0, 51, 59
1, 15129, Control_c, 0, 64, 127
1, 15159, Control_c, 0, 64, 0
1, 15173, Note_on_c, 0, 51, 0
1, 15174, Note_on_c, 0, 53, 41
1, 15183, Control_c, 0, 64, 127
1, 15186, Note_on_c, 0, 59, 0
1, 15187, Control_c, 0, 64, 0
1, 15227, Note_on_c, 0, 53, 0
1, 15238, Note_on_c, 0, 54, 37
1, 15247, Control_c, 0, 64, 127
1, 15250, Note_on_c, 0, 65, 0
1, 15252, Note_on_c, 0, 63, 0
1, 15265, Control_c, 0, 64, 0
1, 15300, Note_on_c, 0, 55, 53
1, 15302, Note_on_c, 0, 54, 0
1, 15309, Control_c, 0, 64, 127
1, 15318, Note_on_c, 0, 70, 0
1, 15322, Note_on_c, 0, 55, 0
1, 15338, Control_c, 0, 64, 0
1, 15380, Note_on_c, 1, 49, 0
1, 15384, Control_c, 0, 64, 127
1, 15408, Control_c, 0, 64, 0
1, 15421, Note_on_c, 1, 51, 98
1, 15456, Control_c, 0, 64, 127
1, 15512, Control_c, 0, 64, 0
1, 15532, Note_on_c, 0, 39, 46
1, 15534, Note_on_c, 0, 63, 44
1, 15534, Note_on_c, 0, 67, 31
1, 15535, Note_on_c, 0, 58, 44
1, 15535, Note_on_c, 0, 46, 34
1, 15544, Control_c, 0, 64, 127
1, 15545, Note_on_c, 0, 67, 0
1, 15558, Note_on_c, 0, 58, 0
1, 15571, Note_on_c, 0, 39, 0
1, 15572, Note_on_c, 0, 46, 0
1, 15576, Control_c, 0, 64, 0
1, 15578, Note_on_c, 0, 63, 0
1, 15593, Note_on_c, 0, 45, 44
1, 15594, Note_on_c, 0, 68, 48
1, 15595, Note_on_c, 0, 59, 44
1, 15598, Note_on_c, 0, 64, 38
1, 15600, Note_on_c, 0, 38, 25
1, 15605, Note_on_c, 0, 59, 0
1, 15606, Note_on_c, 0, 64, 0
1, 15610, Note_on_c, 0, 38, 0
1, 15610, Control_c, 0, 64, 127
1, 15611, Note_on_c, 0, 45, 0
1, 15616, Note_on_c, 0, 68, 0
1, 15637, Control_c, 0, 64, 0
1, 15654, Note_on_c, 1, 51, 0
1, 15654, Note_on_c, 1, 50, 71
1, 15664, Note_on_c, 0, 70, 53
1, 15664, Note_on_c, 0, 44, 48
1, 15666, Note_on_c, 0, 37, 39
1, 15666, Note_on_c, 0, 63, 34
1, 15670, Note_on_c, 1, 50, 0
1, 15671, Note_on_c, 0, 70, 0
1, 15674, Note_on_c, 0, 63, 0
1, 15683, Note_on_c, 0, 37, 0
1, 15690, Note_on_c, 0, 44, 0
1, 15702, Control_c, 0, 64, 127
1, 15717, Note_on_c, 1, 49, 67
1, 15732, Note_on_c, 1, 49, 0
1, 15764, Control_c, 0, 64, 0
1, 15777, Note_on_c, 0, 63, 36
1, 15778, Note_on_c, 1, 48, 73
1, 15783, Note_on_c, 0, 58, 43
1, 15783, Note_on_c, 0, 43, 35
1, 15786, Note_on_c, 0, 36, 44
1, 15801, Note_on_c, 1, 48, 0
1, 15813, Control_c, 0, 64, 127
1, 15831, Note_on_c, 0, 43, 0
1, 15842, Note_on_c, 1, 48, 62
1, 15846, Note_on_c, 0, 36, 0
1, 15865, Note_on_c, 1, 48, 0
1, 15900, Note_on_c, 0, 58, 0
1, 15903, Note_on_c, 1, 43, 37
1, 15912, Note_on_c, 1, 43, 0
1, 15946, Note_on_c, 0, 63, 0
1, 15961, Note_on_c, 1, 37, 48
1, 15966, Note_on_c, 0, 63, 64
1, 15967, Note_on_c, 0, 56, 74
1, 15968, Note_on_c, 0, 30, 60
1, 15969, Note_on_c, 0, 42, 67
1, 15969, Note_on_c, 0, 58, 71
1, 15970, Control_c, 0, 64, 0
1, 15970, Note_on_c, 0, 52, 74
1, 15989, Note_on_c, 1, 37, 0
1, 16024, Note_on_c, 1, 36, 63
1, 16110, Control_c, 0, 64, 127
1, 16187, Note_on_c, 0, 63, 0
1, 16209, Note_on_c, 0, 63, 37
1, 16224, Note_on_c, 0, 52, 0
1, 16234, Note_on_c, 0, 30, 0
1, 16245, Note_on_c, 0, 58, 0
1, 16250, Note_on_c, 0, 63, 0
1, 16254, Note_on_c, 0, 56, 0
1, 16266, Note_on_c, 1, 36, 0
1, 16268, Note_on_c, 1, 42, 55
1, 16271, Note_on_c, 0, 30, 48
1, 16291, Note_on_c, 0, 42, 0
1, 16310, Control_c, 0, 64, 0
1, 16311, Note_on_c, 0, 30, 0
1, 16324, Note_on_c, 1, 42, 0
1, 16324, Note_on_c, 0, 63, 38
1, 16326, Note_on_c, 0, 56, 43
1, 16329, Note_on_c, 0, 60, 44
1, 16329, Note_on_c, 1, 41, 60
1, 16330, Note_on_c, 0, 55, 38
1, 16332, Note_on_c, 0, 29, 40
1, 16332, Control_c, 0, 64, 127
1, 16335, Note_on_c, 0, 41, 20
1, 16336, Note_on_c, 0, 55, 0
1, 16338, Note_on_c, 0, 60, 0
1, 16342, Note_on_c, 0, 56, 0
1, 16351, Note_on_c, 0, 29, 0
1, 16353, Note_on_c, 0, 63, 0
1, 16366, Note_on_c, 0, 41, 0
1, 16398, Note_on_c, 0, 79, 73
1, 16412, Note_on_c, 0, 78, 25
1, 16431, Note_on_c, 0, 78, 0
1, 16494, Note_on_c, 0, 72, 53
1, 16499, Note_on_c, 0, 68, 44
1, 16504, Note_on_c, 0, 63, 31
1, 16506, Note_on_c, 0, 60, 25
1, 16553, Note_on_c, 0, 72, 0
1, 16554, Note_on_c, 0, 79, 0
1, 16570, Note_on_c, 0, 75, 68
1, 16571, Note_on_c, 0, 58, 48
1, 16612, Note_on_c, 0, 58, 0
1, 16616, Note_on_c, 0, 75, 0
1, 16626, Note_on_c, 1, 43, 47
1, 16634, Note_on_c, 1, 43, 0
1, 16646, Note_on_c, 1, 41, 0
1, 16652, Note_on_c, 0, 77, 79
1, 16655, Note_on_c, 0, 58, 49
1, 16682, Note_on_c, 1, 44, 55
1, 16688, Note_on_c, 0, 68, 0
1, 16699, Note_on_c, 1, 44, 0
1, 16713, Note_on_c, 0, 60, 0
1, 16718, Note_on_c, 0, 58, 0
1, 16722, Note_on_c, 0, 63, 0
1, 16726, Note_on_c, 0, 77, 0
1, 16738, Note_on_c, 1, 45, 59
1, 16752, Note_on_c, 1, 45, 0
1, 16755, Note_on_c, 0, 74, 45
1, 16755, Note_on_c, 0, 79, 46
1, 16757, Note_on_c, 0, 67, 37
1, 16758, Note_on_c, 0, 62, 31
1, 16759, Note_on_c, 0, 56, 34
1, 16759, Control_c, 0, 64, 0
1, 16792, Control_c, 0, 64, 127
1, 16802, Note_on_c, 0, 67, 0
1, 16802, Note_on_c, 1, 46, 67
1, 16813, Note_on_c, 0, 74, 0
1, 16817, Note_on_c, 0, 79, 0
1, 16858, Note_on_c, 0, 86, 70
1, 16859, Note_on_c, 0, 74, 48
1, 16880, Note_on_c, 0, 74, 0
1, 16882, Note_on_c, 0, 86, 0
1, 16887, Note_on_c, 0, 62, 0
1, 16890, Note_on_c, 0, 56, 0
1, 16974, Note_on_c, 1, 34, 52
1, 16975, Note_on_c, 0, 62, 41
1, 16979, Note_on_c, 0, 56, 31
1, 16982, Note_on_c, 1, 46, 0
1, 17027, Note_on_c, 1, 34, 0
1, 17042, Note_on_c, 1, 34, 51
1, 17064, Note_on_c, 0, 56, 0
1, 17100, Note_on_c, 0, 56, 37
1, 17114, Note_on_c, 0, 62, 0
1, 17130, Note_on_c, 0, 56, 0
1, 17153, Note_on_c, 0, 74, 74
1, 17154, Note_on_c, 0, 67, 74
1, 17205, Note_on_c, 0, 74, 0
1, 17209, Note_on_c, 0, 67, 0
1, 17213, Note_on_c, 0, 70, 47
1, 17220, Note_on_c, 0, 65, 43
1, 17274, Note_on_c, 1, 34, 0
1, 17278, Note_on_c, 1, 39, 52
1, 17279, Control_c, 0, 64, 0
1, 17279, Note_on_c, 0, 55, 41
1, 17280, Note_on_c, 0, 46, 25
1, 17298, Control_c, 0, 64, 127
1, 17309, Note_on_c, 0, 70, 0
1, 17316, Note_on_c, 0, 65, 0
1, 17393, Note_on_c, 0, 63, 58
1, 17407, Note_on_c, 0, 63, 0
1, 17408, Note_on_c, 0, 65, 59
1, 17424, Note_on_c, 0, 65, 0
1, 17426, Note_on_c, 0, 63, 44
1, 17442, Note_on_c, 0, 63, 0
1, 17445, Note_on_c, 0, 65, 44
1, 17455, Note_on_c, 0, 65, 0
1, 17455, Note_on_c, 1, 55, 63
1, 17460, Note_on_c, 0, 63, 36
1, 17470, Note_on_c, 0, 55, 0
1, 17474, Note_on_c, 0, 63, 0
1, 17478, Note_on_c, 0, 65, 40
1, 17487, Note_on_c, 0, 65, 0
1, 17492, Note_on_c, 0, 63, 34
1, 17507, Note_on_c, 0, 63, 0
1, 17510, Note_on_c, 0, 65, 46
1, 17518, Note_on_c, 0, 65, 0
1, 17524, Note_on_c, 0, 63, 39
1, 17541, Note_on_c, 0, 63, 0
1, 17549, Note_on_c, 0, 65, 36
1, 17556, Note_on_c, 0, 65, 0
1, 17558, Note_on_c, 0, 63, 39
1, 17573, Note_on_c, 0, 63, 0
1, 17579, Note_on_c, 0, 65, 38
1, 17587, Note_on_c, 0, 65, 0
1, 17592, Note_on_c, 0, 63, 40
1, 17607, Note_on_c, 0, 63, 0
1, 17609, Note_on_c, 0, 65, 49
1, 17618, Note_on_c, 0, 46, 0
1, 17624, Note_on_c, 0, 65, 0
1, 17628, Note_on_c, 0, 63, 62
1, 17635, Note_on_c, 0, 58, 92
1, 17647, Control_c, 0, 64, 0
1, 17649, Note_on_c, 0, 63, 0
1, 17649, Note_on_c, 0, 65, 63
1, 17658, Note_on_c, 0, 65, 0
1, 17666, Note_on_c, 0, 63, 46
1, 17676, Control_c, 0, 64, 127
1, 17681, Note_on_c, 0, 63, 0
1, 17688, Note_on_c, 0, 65, 37
1, 17697, Note_on_c, 0, 65, 0
1, 17699, Note_on_c, 0, 63, 38
1, 17716, Note_on_c, 0, 63, 0
1, 17723, Note_on_c, 0, 65, 36
1, 17732, Note_on_c, 0, 65, 0
1, 17736, Note_on_c, 0, 63, 47
1, 17752, Note_on_c, 0, 63, 0
1, 17752, Note_on_c, 1, 46, 83
1, 17755, Note_on_c, 1, 39, 0
1, 17758, Note_on_c, 0, 65, 42
1, 17766, Note_on_c, 0, 65, 0
1, 17770, Note_on_c, 0, 63, 42
1, 17787, Note_on_c, 0, 63, 0
1, 17790, Note_on_c, 0, 65, 40
1, 17800, Note_on_c, 0, 65, 0
1, 17807, Note_on_c, 0, 63, 37
1, 17823, Note_on_c, 0, 63, 0
1, 17829, Note_on_c, 0, 65, 44
1, 17837, Note_on_c, 0, 65, 0
1, 17842, Note_on_c, 0, 63, 37
1, 17859, Note_on_c, 0, 63, 0
1, 17865, Note_on_c, 0, 65, 54
1, 17877, Note_on_c, 0, 65, 0
1, 17878, Note_on_c, 0, 63, 59
1, 17880, Note_on_c, 0, 46, 74
1, 17894, Control_c, 0, 64, 0
1, 17896, Note_on_c, 0, 63, 0
1, 17897, Note_on_c, 0, 65, 58
1, 17905, Note_on_c, 0, 65, 0
1, 17913, Note_on_c, 0, 63, 43
1, 17926, Control_c, 0, 64, 127
1, 17931, Note_on_c, 0, 63, 0
1, 17935, Note_on_c, 1, 55, 0
1, 17935, Note_on_c, 0, 65, 42
1, 17944, Note_on_c, 1, 58, 68
1, 17947, Note_on_c, 0, 65, 0
1, 17951, Note_on_c, 0, 63, 30
1, 17970, Note_on_c, 0, 63, 0
1, 17974, Note_on_c, 0, 65, 44
1, 17976, Control_c, 0, 64, 0
1, 17984, Note_on_c, 0, 65, 0
1, 17989, Note_on_c, 0, 63, 42
1, 18005, Control_c, 0, 64, 127
1, 18010, Note_on_c, 0, 63, 0
1, 18012, Note_on_c, 0, 65, 49
1, 18021, Note_on_c, 0, 65, 0
1, 18025, Note_on_c, 0, 63, 19
1, 18026, Note_on_c, 0, 58, 0
1, 18045, Note_on_c, 0, 63, 0
1, 18048, Note_on_c, 0, 65, 50
1, 18064, Note_on_c, 0, 65, 0
1, 18064, Note_on_c, 0, 63, 50
1, 18074, Note_on_c, 0, 58, 87
1, 18085, Note_on_c, 0, 65, 59
1, 18087, Note_on_c, 0, 63, 0
1, 18087, Control_c, 0, 64, 0
1, 18102, Note_on_c, 0, 65, 0
1, 18102, Note_on_c, 0, 63, 33
1, 18119, Control_c, 0, 64, 127
1, 18120, Note_on_c, 0, 63, 0
1, 18121, Note_on_c, 0, 65, 55
1, 18138, Note_on_c, 0, 65, 0
1, 18138, Note_on_c, 0, 46, 0
1, 18140, Note_on_c, 0, 63, 37
1, 18157, Note_on_c, 0, 63, 0
1, 18160, Note_on_c, 0, 65, 52
1, 18179, Note_on_c, 0, 65, 0
1, 18189, Note_on_c, 0, 63, 18
1, 18207, Note_on_c, 0, 46, 49
1, 18212, Note_on_c, 0, 63, 0
1, 18220, Note_on_c, 0, 58, 0
1, 18239, Note_on_c, 0, 46, 0
1, 18243, Note_on_c, 0, 63, 43
1, 18245, Control_c, 0, 64, 0
1, 18247, Note_on_c, 0, 55, 55
1, 18250, Note_on_c, 0, 45, 46
1, 18256, Note_on_c, 0, 60, 30
1, 18283, Note_on_c, 1, 46, 0
1, 18287, Control_c, 0, 64, 127
1, 18321, Note_on_c, 1, 45, 80
1, 18327, Note_on_c, 0, 60, 0
1, 18332, Note_on_c, 1, 58, 0
1, 18339, Note_on_c, 0, 63, 0
1, 18363, Note_on_c, 0, 55, 0
1, 18363, Note_on_c, 0, 45, 0
1, 18364, Note_on_c, 0, 52, 36
1, 18374, Note_on_c, 0, 52, 0
1, 18424, Note_on_c, 0, 72, 62
1, 18424, Note_on_c, 0, 79, 54
1, 18427, Note_on_c, 0, 67, 46
1, 18427, Note_on_c, 0, 75, 42
1, 18431, Note_on_c, 0, 60, 46
1, 18494, Note_on_c, 0, 75, 0
1, 18503, Note_on_c, 0, 72, 0
1, 18512, Note_on_c, 0, 67, 0
1, 18527, Note_on_c, 0, 79, 0
1, 18538, Note_on_c, 0, 67, 37
1, 18539, Note_on_c, 0, 63, 45
1, 18542, Note_on_c, 0, 75, 52
1, 18543, Note_on_c, 1, 51, 69
1, 18555, Note_on_c, 1, 51, 0
1, 18555, Note_on_c, 0, 60, 0
1, 18574, Note_on_c, 1, 45, 0
1, 18586, Note_on_c, 0, 63, 0
1, 18606, Note_on_c, 1, 57, 81
1, 18612, Note_on_c, 0, 67, 0
1, 18637, Note_on_c, 0, 75, 0
1, 18654, Note_on_c, 0, 72, 61
1, 18665, Note_on_c, 0, 72, 0
1, 18706, Control_c, 0, 64, 0
1, 18716, Note_on_c, 0, 74, 38
1, 18718, Note_on_c, 0, 60, 36
1, 18719, Note_on_c, 0, 54, 29
1, 18720, Note_on_c, 0, 70, 31
1, 18720, Note_on_c, 0, 65, 36
1, 18726, Note_on_c, 0, 50, 30
1, 18732, Control_c, 0, 64, 127
1, 18733, Note_on_c, 0, 65, 0
1, 18740, Note_on_c, 0, 70, 0
1, 18747, Note_on_c, 0, 74, 0
1, 18769, Note_on_c, 1, 57, 0
1, 18778, Note_on_c, 0, 86, 67
1, 18781, Note_on_c, 1, 54, 59
1, 18788, Note_on_c, 1, 54, 0
1, 18798, Note_on_c, 0, 60, 0
1, 18806, Note_on_c, 0, 86, 0
1, 18834, Note_on_c, 0, 82, 47
1, 18836, Note_on_c, 0, 77, 30
1, 18838, Note_on_c, 1, 50, 66
1, 18846, Note_on_c, 1, 50, 0
1, 18848, Note_on_c, 0, 54, 0
1, 18854, Note_on_c, 0, 77, 0
1, 18859, Note_on_c, 0, 82, 0
1, 18894, Note_on_c, 0, 60, 59
1, 18897, Note_on_c, 1, 45, 64
1, 18899, Note_on_c, 0, 54, 37
1, 18915, Note_on_c, 1, 45, 0
1, 18921, Note_on_c, 0, 50, 0
1, 18922, Note_on_c, 0, 60, 0
1, 18930, Note_on_c, 0, 54, 0
1, 18953, Note_on_c, 1, 38, 66
1, 18959, Note_on_c, 0, 60, 74
1, 18959, Note_on_c, 0, 54, 73
1, 19034, Note_on_c, 0, 60, 0
1, 19074, Note_on_c, 1, 38, 0
1, 19080, Note_on_c, 1, 42, 62
1, 19085, Note_on_c, 0, 50, 59
1, 19103, Note_on_c, 0, 54, 0
1, 19110, Note_on_c, 0, 50, 0
1, 19197, Note_on_c, 1, 42, 0
1, 19202, Note_on_c, 0, 43, 91
1, 19205, Note_on_c, 1, 43, 58
1, 19208, Control_c, 0, 64, 0
1, 19236, Control_c, 0, 64, 127
1, 19387, Note_on_c, 0, 50, 57
1, 19387, Note_on_c, 0, 62, 52
1, 19389, Note_on_c, 0, 55, 51
1, 19390, Note_on_c, 0, 59, 51
1, 19390, Note_on_c, 1, 52, 64
1, 19405, Note_on_c, 0, 55, 0
1, 19413, Note_on_c, 1, 52, 0
1, 19414, Note_on_c, 0, 59, 0
1, 19434, Note_on_c, 0, 62, 0
1, 19442, Note_on_c, 0, 50, 0
1, 19449, Control_c, 0, 64, 0
1, 19449, Note_on_c, 1, 50, 68
1, 19454, Note_on_c, 0, 64, 53
1, 19455, Note_on_c, 0, 59, 55
1, 19455, Note_on_c, 0, 52, 36
1, 19458, Note_on_c, 0, 55, 40
1, 19474, Note_on_c, 0, 64, 0
1, 19477, Control_c, 0, 64, 127
1, 19484, Note_on_c, 0, 59, 0
1, 19510, Note_on_c, 0, 55, 0
1, 19524, Note_on_c, 0, 52, 0
1, 19565, Control_c, 0, 64, 0
1, 19569, Note_on_c, 0, 66, 69
1, 19570, Note_on_c, 0, 51, 67
1, 19571, Note_on_c, 0, 63, 60
1, 19572, Note_on_c, 0, 55, 61
1, 19572, Note_on_c, 0, 59, 66
1, 19600, Note_on_c, 0, 55, 0
1, 19602, Note_on_c, 0, 59, 0
1, 19603, Control_c, 0, 64, 127
1, 19619, Note_on_c, 0, 63, 0
1, 19622, Note_on_c, 0, 66, 0
1, 19645, Note_on_c, 0, 67, 60
1, 19647, Note_on_c, 0, 59, 70
1, 19648, Note_on_c, 0, 43, 0
1, 19648, Note_on_c, 0, 62, 67
1, 19648, Note_on_c, 0, 64, 59
1, 19650, Note_on_c, 0, 52, 72
1, 19651, Control_c, 0, 64, 0
1, 19660, Note_on_c, 0, 51, 0
1, 19661, Note_on_c, 1, 50, 0
1, 19687, Control_c, 0, 64, 127
1, 19700, Note_on_c, 1, 52, 77
1, 19707, Note_on_c, 1, 43, 0
1, 19710, Note_on_c, 0, 62, 0
1, 19711, Note_on_c, 0, 64, 0
1, 19714, Note_on_c, 0, 67, 0
1, 19717, Note_on_c, 0, 59, 0
1, 19758, Note_on_c, 0, 63, 60
1, 19758, Note_on_c, 0, 69, 63
1, 19759, Note_on_c, 0, 66, 59
1, 19759, Note_on_c, 0, 60, 66
1, 19760, Note_on_c, 0, 54, 74
1, 19771, Note_on_c, 0, 52, 0
1, 19772, Control_c, 0, 64, 0
1, 19810, Control_c, 0, 64, 127
1, 19824, Note_on_c, 0, 69, 0
1, 19825, Note_on_c, 0, 60, 0
1, 19847, Note_on_c, 0, 66, 0
1, 19849, Note_on_c, 0, 63, 0
1, 19860, Note_on_c, 0, 54, 0
1, 19867, Note_on_c, 1, 52, 0
1, 19872, Note_on_c, 0, 71, 54
1, 19872, Note_on_c, 1, 47, 63
1, 19873, Note_on_c, 0, 67, 48
1, 19874, Note_on_c, 0, 64, 57
1, 19874, Note_on_c, 0, 55, 64
1, 19874, Note_on_c, 0, 62, 56
1, 19880, Control_c, 0, 64, 0
1, 19893, Note_on_c, 1, 47, 0
1, 19918, Control_c, 0, 64, 127
1, 19920, Note_on_c, 0, 64, 0
1, 19921, Note_on_c, 0, 67, 0
1, 19926, Note_on_c, 0, 62, 0
1, 19931, Note_on_c, 0, 71, 0
1, 19934, Note_on_c, 1, 40, 55
1, 20017, Control_c, 0, 64, 0
1, 20031, Control_c, 0, 64, 127
1, 20102, Note_on_c, 0, 63, 52
1, 20104, Note_on_c, 0, 72, 45
1, 20105, Note_on_c, 0, 55, 0
1, 20105, Note_on_c, 0, 66, 38
1, 20105, Note_on_c, 0, 57, 42
1, 20108, Note_on_c, 0, 69, 35
1, 20114, Note_on_c, 0, 66, 0
1, 20116, Note_on_c, 0, 57, 0
1, 20116, Note_on_c, 0, 69, 0
1, 20117, Note_on_c, 0, 63, 0
1, 20118, Note_on_c, 0, 72, 0
1, 20161, Note_on_c, 1, 40, 0
1, 20163, Note_on_c, 1, 33, 54
1, 20165, Control_c, 0, 64, 0
1, 20170, Note_on_c, 0, 74, 35
1, 20172, Note_on_c, 0, 64, 26
1, 20172, Note_on_c, 0, 69, 42
1, 20172, Note_on_c, 0, 62, 53
1, 20174, Note_on_c, 0, 67, 38
1, 20197, Control_c, 0, 64, 127
1, 20204, Note_on_c, 0, 64, 0
1, 20213, Note_on_c, 0, 67, 0
1, 20216, Note_on_c, 0, 69, 0
1, 20223, Note_on_c, 0, 74, 0
1, 20231, Note_on_c, 0, 50, 38
1, 20245, Note_on_c, 0, 62, 0
1, 20288, Note_on_c, 1, 50, 94
1, 20293, Note_on_c, 0, 74, 53
1, 20294, Note_on_c, 0, 86, 55
1, 20299, Note_on_c, 0, 79, 36
1, 20304, Note_on_c, 0, 81, 28
1, 20307, Note_on_c, 0, 79, 0
1, 20311, Note_on_c, 0, 74, 0
1, 20311, Note_on_c, 0, 81, 0
1, 20318, Note_on_c, 0, 86, 0
1, 20354, Note_on_c, 0, 62, 53
1, 20415, Note_on_c, 0, 50, 0
1, 20462, Note_on_c, 1, 33, 0
1, 20465, Note_on_c, 0, 86, 36
1, 20465, Note_on_c, 0, 74, 30
1, 20467, Note_on_c, 0, 50, 33
1, 20468, Note_on_c, 0, 79, 33
1, 20469, Note_on_c, 0, 81, 35
1, 20479, Note_on_c, 1, 33, 53
1, 20496, Note_on_c, 0, 74, 0
1, 20498, Note_on_c, 1, 33, 0
1, 20498, Note_on_c, 0, 81, 0
1, 20503, Note_on_c, 0, 79, 0
1, 20513, Note_on_c, 0, 86, 0
1, 20519, Note_on_c, 0, 62, 0
1, 20532, Note_on_c, 1, 33, 73
1, 20579, Note_on_c, 0, 76, 40
1, 20580, Note_on_c, 0, 86, 44
1, 20580, Note_on_c, 0, 78, 45
1, 20581, Note_on_c, 0, 82, 46
1, 20583, Note_on_c, 0, 60, 44
1, 20587, Note_on_c, 0, 54, 32
1, 20589, Control_c, 0, 64, 0
1, 20614, Control_c, 0, 64, 127
1, 20623, Note_on_c, 0, 50, 0
1, 20625, Note_on_c, 0, 86, 0
1, 20630, Note_on_c, 0, 82, 0
1, 20634, Note_on_c, 0, 78, 0
1, 20635, Note_on_c, 0, 76, 0
1, 20654, Note_on_c, 1, 50, 0
1, 20677, Note_on_c, 0, 60, 0
1, 20693, Note_on_c, 0, 60, 66
1, 20695, Note_on_c, 0, 50, 36
1, 20698, Note_on_c, 1, 38, 76
1, 20703, Note_on_c, 1, 33, 0
1, 20719, Note_on_c, 0, 60, 0
1, 20723, Note_on_c, 0, 61, 57
1, 20726, Control_c, 0, 64, 0
1, 20745, Note_on_c, 0, 61, 0
1, 20752, Note_on_c, 0, 62, 68
1, 20768, Note_on_c, 0, 62, 0
1, 20776, Note_on_c, 0, 63, 62
1, 20791, Note_on_c, 0, 63, 0
1, 20802, Note_on_c, 0, 64, 64
1, 20814, Note_on_c, 0, 64, 0
1, 20821, Note_on_c, 0, 66, 59
1, 20844, Note_on_c, 0, 68, 44
1, 20848, Note_on_c, 0, 66, 0
1, 20848, Note_on_c, 0, 50, 0
1, 20860, Note_on_c, 0, 70, 63
1, 20864, Note_on_c, 0, 68, 0
1, 20865, Control_c, 0, 64, 127
1, 20872, Control_c, 0, 64, 0
1, 20873, Note_on_c, 0, 70, 0
1, 20878, Note_on_c, 0, 60, 39
1, 20885, Note_on_c, 0, 72, 58
1, 20886, Note_on_c, 0, 50, 39
1, 20904, Note_on_c, 0, 72, 0
1, 20914, Note_on_c, 0, 60, 0
1, 20917, Note_on_c, 0, 73, 67
1, 20925, Note_on_c, 1, 54, 81
1, 20932, Note_on_c, 0, 73, 0
1, 20946, Note_on_c, 0, 74, 64
1, 20963, Note_on_c, 0, 74, 0
1, 20971, Note_on_c, 0, 75, 64
1, 20985, Note_on_c, 0, 75, 0
1, 20988, Note_on_c, 1, 38, 0
1, 20998, Note_on_c, 0, 76, 61
1, 20998, Note_on_c, 0, 60, 31
1, 21019, Note_on_c, 0, 76, 0
1, 21026, Note_on_c, 0, 78, 51
1, 21027, Control_c, 0, 64, 127
1, 21032, Note_on_c, 0, 60, 0
1, 21042, Note_on_c, 0, 78, 0
1, 21042, Note_on_c, 1, 38, 43
1, 21051, Note_on_c, 0, 50, 0
1, 21054, Note_on_c, 0, 54, 0
1, 21056, Note_on_c, 0, 79, 51
1, 21063, Note_on_c, 0, 79, 0
1, 21064, Note_on_c, 0, 80, 36
1, 21071, Note_on_c, 0, 80, 0
1, 21072, Note_on_c, 1, 38, 0
1, 21084, Note_on_c, 0, 81, 24
1, 21096, Note_on_c, 0, 82, 47
1, 21100, Note_on_c, 0, 81, 0
1, 21109, Note_on_c, 1, 47, 71
1, 21112, Note_on_c, 0, 82, 0
1, 21116, Note_on_c, 0, 83, 42
1, 21126, Note_on_c, 0, 83, 0
1, 21129, Note_on_c, 1, 54, 0
1, 21135, Note_on_c, 0, 86, 63
1, 21136, Control_c, 0, 64, 0
1, 21142, Note_on_c, 0, 47, 36
1, 21170, Note_on_c, 0, 81, 48
1, 21171, Note_on_c, 0, 86, 0
1, 21180, Note_on_c, 0, 81, 0
1, 21180, Control_c, 0, 64, 127
1, 21222, Note_on_c, 0, 54, 28
1, 21276, Note_on_c, 0, 47, 0
1, 21278, Note_on_c, 0, 81, 45
1, 21280, Note_on_c, 0, 54, 0
1, 21280, Note_on_c, 0, 69, 36
1, 21280, Note_on_c, 0, 78, 28
1, 21281, Note_on_c, 0, 74, 30
1, 21282, Note_on_c, 0, 59, 37
1, 21295, Note_on_c, 0, 69, 0
1, 21301, Note_on_c, 0, 74, 0
1, 21305, Note_on_c, 0, 81, 0
1, 21306, Note_on_c, 0, 78, 0
1, 21310, Note_on_c, 0, 59, 0
1, 21342, Note_on_c, 0, 78, 37
1, 21344, Note_on_c, 0, 81, 40
1, 21345, Note_on_c, 0, 62, 33
1, 21345, Note_on_c, 0, 69, 35
1, 21346, Note_on_c, 0, 74, 32
1, 21356, Note_on_c, 0, 69, 0
1, 21358, Note_on_c, 0, 74, 0
1, 21367, Note_on_c, 0, 81, 0
1, 21367, Note_on_c, 0, 78, 0
1, 21408, Note_on_c, 1, 59, 74
1, 21428, Note_on_c, 0, 78, 39
1, 21429, Note_on_c, 0, 81, 49
1, 21430, Note_on_c, 0, 74, 45
1, 21431, Note_on_c, 0, 69, 39
1, 21433, Note_on_c, 0, 66, 39
1, 21450, Note_on_c, 0, 69, 0
1, 21451, Note_on_c, 0, 62, 0
1, 21458, Note_on_c, 0, 74, 0
1, 21464, Note_on_c, 0, 78, 0
1, 21473, Note_on_c, 0, 66, 0
1, 21474, Note_on_c, 0, 81, 0
1, 21498, Note_on_c, 1, 47, 0
1, 21518, Note_on_c, 0, 78, 37
1, 21519, Note_on_c, 0, 81, 47
1, 21521, Note_on_c, 0, 74, 41
1, 21522, Note_on_c, 0, 69, 44
1, 21524, Note_on_c, 0, 62, 27
1, 21529, Note_on_c, 1, 47, 34
1, 21542, Note_on_c, 0, 69, 0
1, 21543, Note_on_c, 0, 81, 0
1, 21544, Note_on_c, 0, 74, 0
1, 21549, Note_on_c, 0, 78, 0
1, 21549, Note_on_c, 0, 62, 0
1, 21575, Note_on_c, 1, 47, 0
1, 21576, Note_on_c, 1, 59, 0
1, 21590, Note_on_c, 1, 58, 60
1, 21607, Control_c, 0, 64, 0
1, 21621, Control_c, 0, 64, 127
1, 21649, Note_on_c, 0, 78, 79
1, 21650, Note_on_c, 0, 70, 81
1, 21650, Note_on_c, 0, 66, 80
1, 21651, Note_on_c, 0, 73, 73
1, 21651, Note_on_c, 0, 67, 65
1, 21671, Control_c, 0, 64, 0
1, 21693, Note_on_c, 0, 73, 0
1, 21695, Note_on_c, 0, 66, 0
1, 21695, Note_on_c, 0, 70, 0
1, 21702, Note_on_c, 0, 78, 0
1, 21703, Note_on_c, 0, 64, 48
1, 21705, Control_c, 0, 64, 127
1, 21709, Note_on_c, 0, 67, 0
1, 21738, Note_on_c, 0, 64, 0
1, 21759, Control_c, 0, 64, 0
1, 21761, Note_on_c, 1, 47, 49
1, 21766, Note_on_c, 0, 75, 53
1, 21766, Note_on_c, 0, 64, 49
1, 21768, Note_on_c, 0, 70, 44
1, 21771, Note_on_c, 0, 63, 48
1, 21775, Note_on_c, 0, 67, 31
1, 21780, Note_on_c, 0, 64, 0
1, 21781, Note_on_c, 1, 47, 0
1, 21787, Note_on_c, 0, 67, 0
1, 21788, Note_on_c, 0, 70, 0
1, 21789, Note_on_c, 0, 75, 0
1, 21797, Note_on_c, 0, 63, 0
1, 21824, Note_on_c, 1, 46, 58
1, 21827, Note_on_c, 0, 61, 23
1, 21829, Control_c, 0, 64, 127
1, 21854, Note_on_c, 0, 61, 0
1, 21878, Control_c, 0, 64, 0
1, 21882, Control_c, 0, 64, 127
1, 21882, Note_on_c, 0, 72, 46
1, 21884, Note_on_c, 0, 61, 42
1, 21884, Note_on_c, 0, 64, 53
1, 21890, Note_on_c, 0, 67, 35
1, 21932, Note_on_c, 0, 67, 0
1, 21939, Note_on_c, 0, 58, 30
1, 21965, Note_on_c, 0, 58, 0
1, 21976, Note_on_c, 0, 72, 0
1, 21982, Note_on_c, 0, 64, 0
1, 21996, Note_on_c, 0, 61, 0
1, 22001, Note_on_c, 1, 46, 0
1, 22008, Note_on_c, 1, 44, 53
1, 22048, Note_on_c, 1, 44, 0
1, 22062, Note_on_c, 1, 58, 0
1, 22064, Note_on_c, 1, 45, 55
1, 22066, Note_on_c, 0, 64, 47
1, 22070, Control_c, 0, 64, 0
1, 22071, Note_on_c, 0, 60, 29
1, 22073, Note_on_c, 0, 55, 28
1, 22073, Note_on_c, 0, 45, 34
1, 22088, Note_on_c, 0, 55, 0
1, 22098, Control_c, 0, 64, 127
1, 22109, Note_on_c, 0, 60, 0
1, 22120, Note_on_c, 0, 64, 0
1, 22132, Note_on_c, 0, 52, 24
1, 22137, Note_on_c, 1, 57, 52
1, 22158, Note_on_c, 1, 57, 0
1, 22177, Note_on_c, 0, 45, 0
1, 22178, Note_on_c, 0, 52, 0
1, 22190, Note_on_c, 0, 55, 38
1, 22197, Note_on_c, 0, 55, 0
1, 22245, Note_on_c, 0, 60, 44
1, 22258, Note_on_c, 1, 50, 56
1, 22302, Note_on_c, 0, 60, 0
1, 22304, Note_on_c, 0, 74, 69
1, 22305, Note_on_c, 0, 67, 67
1, 22306, Note_on_c, 0, 64, 42
1, 22312, Control_c, 0, 64, 0
1, 22321, Note_on_c, 1, 45, 0
1, 22335, Control_c, 0, 64, 127
1, 22368, Note_on_c, 0, 74, 0
1, 22370, Note_on_c, 0, 64, 0
1, 22376, Note_on_c, 0, 71, 32
1, 22384, Note_on_c, 0, 67, 0
1, 22421, Note_on_c, 0, 71, 0
1, 22439, Note_on_c, 0, 72, 47
1, 22463, Note_on_c, 0, 72, 0
1, 22494, Note_on_c, 0, 74, 60
1, 22500, Note_on_c, 0, 51, 35
1, 22504, Note_on_c, 0, 61, 18
1, 22520, Note_on_c, 0, 61, 0
1, 22524, Note_on_c, 0, 51, 0
1, 22552, Note_on_c, 0, 70, 44
1, 22553, Control_c, 0, 64, 0
1, 22556, Note_on_c, 0, 65, 34
1, 22557, Note_on_c, 0, 60, 32
1, 22562, Note_on_c, 0, 50, 22
1, 22573, Control_c, 0, 64, 127
1, 22606, Note_on_c, 1, 50, 0
1, 22612, Note_on_c, 0, 65, 0
1, 22613, Note_on_c, 1, 38, 54
1, 22620, Note_on_c, 0, 60, 0
1, 22620, Note_on_c, 0, 54, 37
1, 22632, Note_on_c, 0, 74, 0
1, 22644, Note_on_c, 0, 70, 0
1, 22676, Note_on_c, 1, 52, 44
1, 22677, Note_on_c, 0, 60, 44
1, 22686, Note_on_c, 0, 60, 0
1, 22692, Note_on_c, 1, 52, 0
1, 22733, Note_on_c, 0, 82, 75
1, 22734, Note_on_c, 0, 86, 74
1, 22734, Note_on_c, 1, 53, 64
1, 22736, Note_on_c, 0, 77, 69
1, 22736, Note_on_c, 0, 60, 57
1, 22737, Note_on_c, 0, 54, 0
1, 22746, Note_on_c, 1, 53, 0
1, 22761, Note_on_c, 0, 82, 0
1, 22762, Note_on_c, 0, 86, 0
1, 22764, Note_on_c, 0, 77, 0
1, 22792, Note_on_c, 1, 54, 83
1, 22797, Note_on_c, 0, 82, 56
1, 22797, Note_on_c, 0, 77, 48
1, 22797, Note_on_c, 0, 74, 40
1, 22802, Note_on_c, 0, 54, 42
1, 22802, Control_c, 0, 64, 0
1, 22810, Control_c, 0, 64, 127
1, 22811, Note_on_c, 0, 50, 0
1, 22831, Note_on_c, 0, 82, 0
1, 22835, Note_on_c, 0, 77, 0
1, 22846, Note_on_c, 0, 74, 0
1, 22852, Note_on_c, 0, 50, 53
1, 22858, Note_on_c, 0, 60, 0
1, 22906, Note_on_c, 0, 54, 0
1, 22915, Note_on_c, 1, 54, 0
1, 22916, Note_on_c, 0, 70, 59
1, 22917, Note_on_c, 0, 74, 45
1, 22917, Note_on_c, 1, 50, 61
1, 22918, Note_on_c, 0, 65, 57
1, 22918, Note_on_c, 0, 77, 51
1, 22918, Note_on_c, 0, 60, 53
1, 22919, Control_c, 0, 64, 0
1, 22930, Control_c, 0, 64, 127
1, 22932, Note_on_c, 0, 54, 11
1, 22937, Note_on_c, 1, 50, 0
1, 22940, Note_on_c, 0, 50, 0
1, 22952, Note_on_c, 0, 74, 0
1, 22957, Note_on_c, 0, 77, 0
1, 22967, Note_on_c, 0, 65, 0
1, 22974, Note_on_c, 0, 70, 0
1, 22976, Note_on_c, 0, 50, 34
1, 22978, Note_on_c, 1, 50, 65
1, 22981, Note_on_c, 0, 60, 0
1, 23004, Note_on_c, 1, 50, 0
1, 23011, Note_on_c, 0, 50, 0
1, 23028, Note_on_c, 0, 54, 0
1, 23033, Control_c, 0, 64, 0
1, 23034, Note_on_c, 0, 74, 42
1, 23036, Note_on_c, 1, 38, 0
1, 23036, Note_on_c, 0, 66, 53
1, 23036, Note_on_c, 0, 71, 46
1, 23040, Note_on_c, 0, 55, 51
1, 23040, Note_on_c, 1, 47, 45
1, 23068, Note_on_c, 1, 47, 0
1, 23068, Control_c, 0, 64, 127
1, 23073, Note_on_c, 0, 74, 0
1, 23076, Note_on_c, 0, 71, 0
1, 23088, Note_on_c, 0, 66, 0
1, 23091, Note_on_c, 0, 55, 0
1, 23098, Note_on_c, 0, 43, 37
1, 23098, Note_on_c, 1, 45, 40
1, 23120, Note_on_c, 1, 45, 0
1, 23138, Note_on_c, 0, 43, 0
1, 23158, Note_on_c, 0, 43, 40
1, 23159, Note_on_c, 1, 43, 54
1, 23202, Note_on_c, 0, 43, 0
1, 23219, Note_on_c, 0, 62, 73
1, 23223, Note_on_c, 0, 55, 62
1, 23223, Note_on_c, 0, 59, 62
1, 23226, Note_on_c, 0, 50, 50
1, 23231, Control_c, 0, 64, 0
1, 23264, Control_c, 0, 64, 127
1, 23292, Note_on_c, 0, 55, 0
1, 23301, Note_on_c, 0, 59, 0
1, 23313, Note_on_c, 0, 62, 0
1, 23339, Note_on_c, 0, 64, 71
1, 23340, Note_on_c, 0, 59, 68
1, 23340, Note_on_c, 0, 55, 71
1, 23341, Note_on_c, 1, 42, 65
1, 23342, Note_on_c, 0, 50, 0
1, 23342, Note_on_c, 0, 52, 60
1, 23344, Note_on_c, 0, 62, 48
1, 23346, Note_on_c, 1, 43, 0
1, 23354, Control_c, 0, 64, 0
1, 23362, Note_on_c, 1, 42, 0
1, 23389, Control_c, 0, 64, 127
1, 23400, Note_on_c, 1, 40, 77
1, 23418, Note_on_c, 0, 62, 0
1, 23422, Note_on_c, 0, 55, 0
1, 23425, Note_on_c, 0, 59, 0
1, 23438, Note_on_c, 0, 64, 0
1, 23448, Note_on_c, 0, 52, 0
1, 23459, Note_on_c, 0, 66, 68
1, 23460, Note_on_c, 0, 51, 68
1, 23460, Control_c, 0, 64, 0
1, 23460, Note_on_c, 0, 55, 59
1, 23460, Note_on_c, 0, 59, 66
1, 23462, Note_on_c, 0, 62, 60
1, 23480, Note_on_c, 0, 55, 0
1, 23482, Control_c, 0, 64, 127
1, 23483, Note_on_c, 0, 59, 0
1, 23486, Note_on_c, 0, 62, 0
1, 23507, Note_on_c, 0, 66, 0
1, 23519, Note_on_c, 0, 51, 0
1, 23528, Note_on_c, 0, 67, 47
1, 23529, Control_c, 0, 64, 0
1, 23533, Note_on_c, 0, 62, 50
1, 23533, Note_on_c, 0, 52, 62
1, 23533, Note_on_c, 0, 59, 60
1, 23559, Control_c, 0, 64, 127
1, 23566, Note_on_c, 0, 67, 0
1, 23574, Note_on_c, 0, 62, 0
1, 23581, Note_on_c, 0, 59, 0
1, 23584, Note_on_c, 1, 40, 0
1, 23586, Note_on_c, 1, 38, 54
1, 23609, Note_on_c, 1, 38, 0
1, 23612, Note_on_c, 0, 69, 56
1, 23613, Note_on_c, 0, 66, 52
1, 23615, Note_on_c, 0, 52, 0
1, 23615, Note_on_c, 0, 62, 55
1, 23615, Note_on_c, 0, 54, 64
1, 23616, Note_on_c, 0, 59, 48
1, 23616, Control_c, 0, 64, 0
1, 23642, Note_on_c, 0, 59, 0
1, 23643, Note_on_c, 0, 62, 0
1, 23645, Note_on_c, 1, 35, 72
1, 23648, Control_c, 0, 64, 127
1, 23651, Note_on_c, 0, 69, 0
1, 23657, Note_on_c, 0, 66, 0
1, 23695, Note_on_c, 0, 54, 0
1, 23711, Note_on_c, 0, 71, 45
1, 23713, Note_on_c, 0, 67, 38
1, 23714, Note_on_c, 0, 64, 46
1, 23714, Note_on_c, 0, 62, 34
1, 23715, Note_on_c, 0, 55, 56
1, 23716, Control_c, 0, 64, 0
1, 23739, Note_on_c, 0, 64, 0
1, 23743, Note_on_c, 0, 62, 0
1, 23746, Note_on_c, 0, 67, 0
1, 23749, Control_c, 0, 64, 127
1, 23751, Note_on_c, 0, 71, 0
1, 23815, Note_on_c, 0, 55, 0
1, 23818, Note_on_c, 1, 35, 0
1, 23818, Note_on_c, 0, 62, 49
1, 23820, Note_on_c, 0, 67, 40
1, 23821, Note_on_c, 0, 57, 43
1, 23822, Note_on_c, 0, 72, 42
1, 23822, Note_on_c, 0, 69, 48
1, 23827, Note_on_c, 1, 34, 65
1, 23831, Control_c, 0, 64, 0
1, 23853, Note_on_c, 0, 62, 0
1, 23857, Note_on_c, 0, 69, 0
1, 23864, Note_on_c, 0, 67, 0
1, 23864, Control_c, 0, 64, 127
1, 23868, Note_on_c, 0, 72, 0
1, 23930, Note_on_c, 1, 34, 0
1, 23934, Note_on_c, 0, 74, 37
1, 23934, Note_on_c, 1, 33, 66
1, 23935, Note_on_c, 0, 57, 0
1, 23935, Note_on_c, 0, 67, 43
1, 23936, Note_on_c, 0, 64, 41
1, 23937, Note_on_c, 0, 71, 47
1, 23938, Note_on_c, 0, 59, 42
1, 23947, Control_c, 0, 64, 0
1, 23985, Control_c, 0, 64, 127
1, 23987, Note_on_c, 0, 71, 0
1, 24030, Note_on_c, 0, 67, 0
1, 24031, Note_on_c, 0, 74, 0
1, 24034, Note_on_c, 0, 64, 0
1, 24037, Control_c, 0, 64, 0
1, 24038, Note_on_c, 0, 59, 0
1, 24039, Control_c, 0, 64, 127
1, 24049, Note_on_c, 0, 73, 51
1, 24055, Note_on_c, 0, 59, 44
1, 24060, Note_on_c, 1, 40, 42
1, 24069, Note_on_c, 1, 40, 0
1, 24084, Note_on_c, 1, 33, 0
1, 24088, Note_on_c, 0, 73, 0
1, 24098, Note_on_c, 0, 59, 0
1, 24098, Control_c, 0, 64, 0
1, 24110, Note_on_c, 0, 74, 42
1, 24116, Note_on_c, 0, 59, 45
1, 24116, Note_on_c, 0, 64, 34
1, 24118, Note_on_c, 1, 47, 74
1, 24120, Note_on_c, 0, 74, 0
1, 24129, Note_on_c, 0, 64, 0
1, 24142, Control_c, 0, 64, 127
1, 24147, Note_on_c, 0, 59, 0
1, 24173, Note_on_c, 0, 50, 38
1, 24173, Note_on_c, 0, 67, 31
1, 24176, Note_on_c, 0, 60, 31
1, 24177, Note_on_c, 0, 64, 34
1, 24196, Note_on_c, 0, 60, 0
1, 24201, Note_on_c, 0, 64, 0
1, 24208, Note_on_c, 0, 67, 0
1, 24239, Note_on_c, 0, 67, 18
1, 24240, Note_on_c, 0, 64, 36
1, 24240, Note_on_c, 0, 60, 39
1, 24253, Note_on_c, 0, 60, 0
1, 24260, Note_on_c, 0, 64, 0
1, 24264, Note_on_c, 0, 67, 0
1, 24298, Note_on_c, 1, 47, 0
1, 24299, Note_on_c, 1, 45, 64
1, 24301, Note_on_c, 0, 74, 80
1, 24307, Note_on_c, 0, 62, 57
1, 24319, Note_on_c, 0, 62, 0
1, 24327, Note_on_c, 0, 74, 0
1, 24337, Note_on_c, 0, 50, 0
1, 24357, Note_on_c, 0, 50, 47
1, 24359, Note_on_c, 1, 45, 0
1, 24361, Note_on_c, 1, 52, 94
1, 24378, Note_on_c, 0, 50, 0
1, 24419, Note_on_c, 1, 52, 0
1, 24422, Note_on_c, 1, 51, 79
1, 24423, Note_on_c, 0, 50, 36
1, 24466, Control_c, 0, 64, 0
1, 24470, Note_on_c, 1, 51, 0
1, 24480, Note_on_c, 0, 68, 37
1, 24480, Control_c, 0, 64, 127
1, 24481, Note_on_c, 0, 50, 0
1, 24481, Note_on_c, 0, 71, 39
1, 24482, Note_on_c, 0, 63, 41
1, 24482, Note_on_c, 0, 54, 37
1, 24483, Note_on_c, 1, 50, 65
1, 24485, Note_on_c, 0, 60, 29
1, 24493, Note_on_c, 0, 63, 0
1, 24502, Note_on_c, 0, 68, 0
1, 24505, Note_on_c, 0, 71, 0
1, 24540, Note_on_c, 0, 50, 56
1, 24544, Note_on_c, 0, 83, 80
1, 24567, Note_on_c, 0, 83, 0
1, 24571, Note_on_c, 0, 50, 0
1, 24584, Note_on_c, 0, 54, 0
1, 24604, Note_on_c, 0, 50, 39
1, 24607, Note_on_c, 0, 60, 0
1, 24660, Note_on_c, 1, 50, 0
1, 24664, Note_on_c, 0, 71, 39
1, 24664, Note_on_c, 1, 48, 69
1, 24665, Note_on_c, 0, 60, 44
1, 24665, Note_on_c, 0, 64, 47
1, 24666, Note_on_c, 0, 68, 53
1, 24670, Note_on_c, 0, 54, 28
1, 24705, Note_on_c, 0, 60, 0
1, 24730, Note_on_c, 0, 50, 0
1, 24734, Note_on_c, 0, 64, 0
1, 24740, Note_on_c, 0, 68, 0
1, 24763, Note_on_c, 1, 48, 0
1, 24780, Note_on_c, 0, 68, 36
1, 24783, Note_on_c, 0, 64, 40
1, 24784, Note_on_c, 0, 50, 40
1, 24784, Note_on_c, 1, 48, 67
1, 24786, Note_on_c, 0, 60, 31
1, 24791, Control_c, 0, 64, 0
1, 24815, Control_c, 0, 64, 127
1, 24820, Note_on_c, 0, 50, 0
1, 24871, Note_on_c, 0, 54, 0
1, 24874, Note_on_c, 0, 60, 0
1, 24882, Note_on_c, 0, 64, 0
1, 24884, Note_on_c, 0, 48, 40
1, 24890, Note_on_c, 0, 68, 0
1, 24897, Note_on_c, 1, 48, 0
1, 24898, Control_c, 0, 64, 0
1, 24899, Note_on_c, 0, 71, 0
1, 24902, Note_on_c, 1, 47, 67
1, 24904, Control_c, 0, 64, 127
1, 24926, Note_on_c, 0, 48, 0
1, 24944, Note_on_c, 1, 47, 0
1, 24956, Control_c, 0, 64, 0
1, 24956, Note_on_c, 0, 66, 45
1, 24956, Note_on_c, 0, 62, 53
1, 24958, Note_on_c, 0, 57, 41
1, 24960, Note_on_c, 1, 47, 69
1, 24968, Note_on_c, 0, 47, 43
1, 24973, Note_on_c, 0, 57, 0
1, 24982, Note_on_c, 0, 62, 0
1, 24984, Control_c, 0, 64, 127
1, 24997, Note_on_c, 0, 66, 0
1, 25033, Note_on_c, 0, 54, 48
1, 25034, Note_on_c, 0, 74, 74
1, 25035, Note_on_c, 0, 81, 81
1, 25086, Note_on_c, 0, 74, 0
1, 25094, Note_on_c, 0, 81, 0
1, 25109, Note_on_c, 0, 78, 48
1, 25112, Note_on_c, 0, 69, 50
1, 25116, Note_on_c, 0, 74, 30
1, 25117, Note_on_c, 0, 59, 46
1, 25122, Note_on_c, 0, 47, 0
1, 25126, Note_on_c, 0, 54, 0
1, 25143, Note_on_c, 1, 59, 57
1, 25150, Note_on_c, 0, 69, 0
1, 25154, Note_on_c, 0, 74, 0
1, 25165, Note_on_c, 1, 59, 0
1, 25166, Note_on_c, 0, 78, 0
1, 25170, Note_on_c, 0, 59, 0
1, 25190, Note_on_c, 0, 62, 41
1, 25191, Note_on_c, 0, 74, 59
1, 25192, Note_on_c, 0, 81, 65
1, 25206, Note_on_c, 1, 59, 59
1, 25244, Note_on_c, 0, 81, 0
1, 25245, Note_on_c, 0, 74, 0
1, 25265, Note_on_c, 0, 78, 43
1, 25267, Note_on_c, 0, 74, 33
1, 25270, Note_on_c, 0, 69, 46
1, 25272, Note_on_c, 0, 67, 27
1, 25276, Note_on_c, 0, 62, 0
1, 25307, Note_on_c, 0, 74, 0
1, 25309, Note_on_c, 0, 69, 0
1, 25310, Note_on_c, 0, 78, 0
1, 25320, Note_on_c, 0, 67, 0
1, 25348, Note_on_c, 0, 78, 44
1, 25351, Note_on_c, 0, 81, 50
1, 25353, Note_on_c, 0, 74, 35
1, 25354, Note_on_c, 0, 69, 36
1, 25358, Note_on_c, 1, 47, 0
1, 25369, Note_on_c, 0, 69, 0
1, 25370, Note_on_c, 0, 74, 0
1, 25378, Note_on_c, 1, 59, 0
1, 25379, Note_on_c, 1, 47, 46
1, 25385, Note_on_c, 0, 81, 0
1, 25395, Note_on_c, 0, 78, 0
1, 25413, Note_on_c, 1, 47, 0
1, 25425, Note_on_c, 0, 75, 55
1, 25426, Note_on_c, 0, 79, 39
1, 25427, Note_on_c, 0, 70, 35
1, 25428, Control_c, 0, 64, 0
1, 25429, Note_on_c, 0, 48, 38
1, 25431, Note_on_c, 0, 58, 25
1, 25437, Note_on_c, 1, 48, 70
1, 25450, Control_c, 0, 64, 127
1, 25459, Note_on_c, 0, 79, 0
1, 25465, Note_on_c, 0, 75, 0
1, 25471, Note_on_c, 0, 70, 0
1, 25505, Note_on_c, 0, 55, 40
1, 25506, Note_on_c, 0, 58, 0
1, 25536, Note_on_c, 0, 48, 0
1, 25537, Note_on_c, 0, 58, 54
1, 25575, Note_on_c, 0, 60, 76
1, 25586, Note_on_c, 0, 58, 0
1, 25607, Note_on_c, 0, 62, 80
1, 25615, Note_on_c, 0, 60, 0
1, 25644, Note_on_c, 0, 63, 84
1, 25649, Note_on_c, 0, 62, 0
1, 25668, Note_on_c, 0, 63, 0
1, 25674, Note_on_c, 0, 58, 49
1, 25676, Note_on_c, 0, 65, 83
1, 25703, Note_on_c, 0, 65, 0
1, 25710, Note_on_c, 0, 67, 80
1, 25714, Note_on_c, 0, 58, 0
1, 25717, Note_on_c, 0, 55, 0
1, 25745, Note_on_c, 0, 69, 80
1, 25753, Note_on_c, 0, 67, 0
1, 25775, Note_on_c, 0, 70, 76
1, 25778, Note_on_c, 0, 69, 0
1, 25790, Note_on_c, 0, 70, 0
1, 25806, Note_on_c, 0, 72, 62
1, 25823, Note_on_c, 0, 72, 0
1, 25823, Note_on_c, 0, 74, 66
1, 25851, Note_on_c, 0, 75, 53
1, 25857, Note_on_c, 0, 74, 0
1, 25859, Note_on_c, 1, 48, 0
1, 25860, Note_on_c, 0, 75, 0
1, 25861, Note_on_c, 1, 50, 53
1, 25864, Note_on_c, 0, 76, 49
1, 25870, Note_on_c, 1, 50, 0
1, 25889, Note_on_c, 1, 51, 68
1, 25896, Note_on_c, 0, 76, 0
1, 25896, Note_on_c, 0, 79, 77
1, 25912, Note_on_c, 1, 51, 0
1, 25920, Control_c, 0, 64, 0
1, 25920, Note_on_c, 1, 53, 73
1, 25924, Note_on_c, 0, 77, 67
1, 25930, Note_on_c, 0, 51, 34
1, 25930, Note_on_c, 0, 41, 40
1, 25935, Note_on_c, 0, 79, 0
1, 25943, Note_on_c, 0, 41, 0
1, 25950, Control_c, 0, 64, 127
1, 25957, Note_on_c, 0, 51, 0
1, 25983, Note_on_c, 0, 72, 53
1, 26002, Note_on_c, 0, 77, 0
1, 26022, Note_on_c, 0, 72, 0
1, 26034, Note_on_c, 0, 68, 47
1, 26038, Note_on_c, 0, 53, 19
1, 26059, Note_on_c, 0, 68, 0
1, 26088, Note_on_c, 0, 67, 30
1, 26121, Note_on_c, 0, 67, 0
1, 26152, Note_on_c, 0, 68, 50
1, 26154, Note_on_c, 0, 72, 52
1, 26158, Note_on_c, 0, 63, 19
1, 26165, Note_on_c, 0, 60, 22
1, 26182, Note_on_c, 0, 53, 0
1, 26200, Note_on_c, 0, 72, 0
1, 26205, Note_on_c, 0, 68, 0
1, 26214, Note_on_c, 0, 67, 38
1, 26214, Note_on_c, 0, 70, 43
1, 26218, Note_on_c, 0, 53, 29
1, 26239, Note_on_c, 0, 60, 0
1, 26245, Note_on_c, 0, 63, 0
1, 26255, Note_on_c, 0, 53, 0
1, 26256, Note_on_c, 0, 67, 0
1, 26283, Note_on_c, 0, 70, 0
1, 26332, Note_on_c, 0, 73, 55
1, 26333, Note_on_c, 0, 61, 34
1, 26336, Note_on_c, 0, 56, 39
1, 26337, Note_on_c, 0, 46, 37
1, 26342, Note_on_c, 1, 60, 83
1, 26343, Control_c, 0, 64, 0
1, 26365, Control_c, 0, 64, 127
1, 26370, Note_on_c, 0, 61, 0
1, 26374, Note_on_c, 0, 46, 0
1, 26379, Note_on_c, 0, 73, 0
1, 26382, Note_on_c, 0, 56, 0
1, 26453, Note_on_c, 0, 62, 34
1, 26454, Note_on_c, 0, 78, 52
1, 26455, Note_on_c, 0, 56, 31
1, 26456, Note_on_c, 0, 66, 37
1, 26467, Note_on_c, 1, 58, 72
1, 26472, Note_on_c, 1, 60, 0
1, 26482, Note_on_c, 1, 53, 0
1, 26488, Note_on_c, 0, 66, 0
1, 26497, Note_on_c, 0, 78, 0
1, 26510, Note_on_c, 0, 56, 0
1, 26530, Note_on_c, 0, 62, 0
1, 26578, Note_on_c, 0, 62, 24
1, 26580, Note_on_c, 0, 66, 25
1, 26580, Note_on_c, 0, 82, 51
1, 26580, Note_on_c, 1, 53, 47
1, 26581, Note_on_c, 0, 70, 46
1, 26582, Note_on_c, 0, 56, 21
1, 26587, Note_on_c, 1, 53, 0
1, 26593, Note_on_c, 0, 70, 0
1, 26599, Note_on_c, 0, 66, 0
1, 26606, Note_on_c, 0, 82, 0
1, 26615, Note_on_c, 0, 56, 0
1, 26643, Note_on_c, 1, 53, 60
1, 26663, Note_on_c, 0, 62, 0
1, 26705, Note_on_c, 0, 62, 32
1, 26705, Note_on_c, 0, 78, 45
1, 26705, Note_on_c, 0, 90, 52
1, 26706, Note_on_c, 0, 66, 35
1, 26707, Note_on_c, 0, 56, 28
1, 26725, Note_on_c, 0, 66, 0
1, 26727, Note_on_c, 0, 78, 0
1, 26731, Note_on_c, 0, 90, 0
1, 26732, Note_on_c, 0, 62, 0
1, 26736, Note_on_c, 1, 58, 0
1, 26747, Note_on_c, 0, 56, 0
1, 26765, Note_on_c, 1, 50, 51
1, 26817, Note_on_c, 0, 82, 57
1, 26818, Note_on_c, 0, 94, 50
1, 26831, Note_on_c, 0, 94, 0
1, 26838, Note_on_c, 0, 82, 0
1, 26856, Note_on_c, 1, 53, 0
1, 26874, Note_on_c, 1, 50, 0
1, 26875, Note_on_c, 0, 45, 41
1, 26879, Note_on_c, 1, 45, 64
1, 26946, Note_on_c, 0, 67, 53
1, 26948, Note_on_c, 0, 60, 72
1, 26948, Note_on_c, 0, 63, 46
1, 26967, Control_c, 0, 64, 0
1, 26998, Control_c, 0, 64, 127
1, 27033, Note_on_c, 0, 67, 0
1, 27056, Note_on_c, 1, 45, 0
1, 27062, Note_on_c, 0, 67, 53
1, 27070, Note_on_c, 1, 45, 53
1, 27073, Note_on_c, 0, 60, 0
1, 27076, Note_on_c, 0, 45, 0
1, 27081, Note_on_c, 0, 67, 0
1, 27087, Note_on_c, 0, 63, 0
1, 27105, Note_on_c, 1, 45, 0
1, 27124, Note_on_c, 1, 44, 62
1, 27126, Note_on_c, 0, 44, 42
1, 27126, Note_on_c, 0, 54, 35
1, 27127, Note_on_c, 0, 67, 24
1, 27128, Note_on_c, 0, 60, 49
1, 27133, Control_c, 0, 64, 0
1, 27169, Control_c, 0, 64, 127
1, 27184, Note_on_c, 0, 67, 0
1, 27201, Note_on_c, 0, 54, 0
1, 27209, Note_on_c, 0, 67, 33
1, 27231, Note_on_c, 1, 44, 0
1, 27234, Note_on_c, 0, 67, 0
1, 27236, Note_on_c, 0, 60, 0
1, 27240, Note_on_c, 1, 44, 59
1, 27299, Note_on_c, 0, 44, 0
1, 27317, Note_on_c, 0, 63, 30
1, 27318, Note_on_c, 0, 53, 41
1, 27319, Note_on_c, 0, 59, 41
1, 27320, Note_on_c, 0, 43, 38
1, 27324, Control_c, 0, 64, 0
1, 27341, Note_on_c, 0, 53, 0
1, 27347, Note_on_c, 1, 44, 0
1, 27350, Note_on_c, 0, 59, 0
1, 27352, Note_on_c, 1, 43, 43
1, 27353, Control_c, 0, 64, 127
1, 27354, Note_on_c, 0, 63, 0
1, 27404, Note_on_c, 0, 43, 0
1, 27427, Note_on_c, 0, 75, 68
1, 27458, Note_on_c, 0, 75, 0
1, 27489, Note_on_c, 0, 75, 71
1, 27500, Note_on_c, 0, 67, 41
1, 27509, Note_on_c, 0, 67, 0
1, 27533, Note_on_c, 0, 75, 0
1, 27546, Note_on_c, 0, 59, 49
1, 27556, Note_on_c, 0, 59, 0
1, 27604, Note_on_c, 0, 70, 52
1, 27606, Note_on_c, 0, 63, 52
1, 27607, Note_on_c, 0, 67, 44
1, 27610, Note_on_c, 0, 59, 40
1, 27611, Note_on_c, 0, 53, 31
1, 27612, Control_c, 0, 64, 0
1, 27636, Control_c, 0, 64, 127
1, 27661, Note_on_c, 0, 53, 0
1, 27664, Note_on_c, 0, 67, 0
1, 27667, Note_on_c, 1, 55, 110
1, 27670, Note_on_c, 0, 50, 33
1, 27686, Note_on_c, 0, 59, 0
1, 27687, Note_on_c, 0, 63, 0
1, 27706, Note_on_c, 0, 70, 0
1, 27710, Note_on_c, 0, 50, 0
1, 27720, Note_on_c, 0, 68, 52
1, 27725, Note_on_c, 0, 63, 44
1, 27727, Note_on_c, 0, 47, 38
1, 27729, Note_on_c, 0, 59, 22
1, 27730, Note_on_c, 1, 56, 67
1, 27732, Note_on_c, 1, 55, 0
1, 27735, Note_on_c, 0, 47, 0
1, 27761, Note_on_c, 0, 68, 0
1, 27763, Note_on_c, 0, 59, 0
1, 27774, Note_on_c, 0, 63, 0
1, 27788, Note_on_c, 1, 56, 0
1, 27790, Note_on_c, 1, 55, 68
1, 27814, Note_on_c, 1, 43, 0
1, 27838, Note_on_c, 0, 67, 46
1, 27840, Note_on_c, 0, 58, 43
1, 27842, Note_on_c, 0, 63, 38
1, 27844, Note_on_c, 0, 24, 46
1, 27847, Note_on_c, 0, 36, 26
1, 27854, Control_c, 0, 64, 0
1, 27868, Note_on_c, 0, 24, 0
1, 27890, Note_on_c, 0, 36, 0
1, 27895, Control_c, 0, 64, 127
1, 27905, Note_on_c, 0, 58, 0
1, 27918, Note_on_c, 0, 58, 30
1, 27940, Note_on_c, 0, 58, 0
1, 27947, Note_on_c, 0, 63, 0
1, 27962, Note_on_c, 0, 67, 0
1, 28027, Note_on_c, 0, 63, 35
1, 28032, Note_on_c, 0, 58, 31
1, 28036, Note_on_c, 0, 55, 29
1, 28037, Note_on_c, 0, 48, 29
1, 28053, Note_on_c, 0, 55, 0
1, 28063, Note_on_c, 0, 58, 0
1, 28069, Note_on_c, 0, 63, 0
1, 28153, Note_on_c, 0, 58, 30
1, 28185, Note_on_c, 0, 48, 0
1, 28259, Note_on_c, 0, 58, 0
1, 28261, Note_on_c, 0, 48, 34
1, 28275, Note_on_c, 0, 48, 0
1, 28312, Control_c, 0, 64, 0
1, 28316, Note_on_c, 0, 46, 36
1, 28328, Note_on_c, 0, 46, 0
1, 28334, Control_c, 0, 64, 127
1, 28382, Note_on_c, 0, 60, 28
1, 28386, Note_on_c, 0, 65, 44
1, 28392, Note_on_c, 0, 61, 46
1, 28474, Note_on_c, 0, 60, 0
1, 28474, Note_on_c, 0, 56, 61
1, 28478, Note_on_c, 0, 65, 0
1, 28490, Note_on_c, 0, 61, 0
1, 28494, Note_on_c, 1, 46, 59
1, 28500, Note_on_c, 0, 56, 0
1, 28536, Note_on_c, 1, 55, 0
1, 28542, Note_on_c, 1, 46, 0
1, 28550, Note_on_c, 1, 45, 64
1, 28555, Control_c, 0, 64, 0
1, 28558, Note_on_c, 0, 45, 49
1, 28573, Control_c, 0, 64, 127
1, 28631, Note_on_c, 0, 61, 46
1, 28632, Note_on_c, 0, 59, 66
1, 28634, Note_on_c, 0, 55, 68
1, 28636, Note_on_c, 0, 52, 55
1, 28642, Control_c, 0, 64, 0
1, 28673, Control_c, 0, 64, 127
1, 28675, Note_on_c, 0, 45, 0
1, 28713, Note_on_c, 0, 55, 0
1, 28722, Note_on_c, 0, 59, 0
1, 28724, Note_on_c, 0, 45, 47
1, 28725, Note_on_c, 0, 63, 67
1, 28732, Note_on_c, 0, 61, 0
1, 28742, Note_on_c, 1, 61, 76
1, 28749, Note_on_c, 0, 45, 0
1, 28750, Note_on_c, 0, 52, 0
1, 28788, Note_on_c, 0, 63, 0
1, 28796, Control_c, 0, 64, 0
1, 28796, Note_on_c, 0, 60, 58
1, 28799, Note_on_c, 1, 61, 0
1, 28802, Note_on_c, 1, 60, 72
1, 28806, Note_on_c, 1, 45, 0
1, 28806, Note_on_c, 0, 44, 35
1, 28830, Note_on_c, 0, 60, 0
1, 28830, Control_c, 0, 64, 127
1, 28849, Note_on_c, 0, 51, 52
1, 28882, Note_on_c, 0, 51, 0
1, 28898, Control_c, 0, 64, 0
1, 28912, Note_on_c, 0, 52, 45
1, 28916, Control_c, 0, 64, 127
1, 28967, Note_on_c, 0, 52, 0
1, 28970, Note_on_c, 0, 72, 67
1, 28970, Note_on_c, 0, 67, 60
1, 28971, Note_on_c, 0, 60, 62
1, 28973, Note_on_c, 0, 53, 62
1, 28976, Control_c, 0, 64, 0
1, 28978, Note_on_c, 1, 58, 69
1, 28982, Note_on_c, 1, 60, 0
1, 29007, Note_on_c, 0, 72, 0
1, 29016, Control_c, 0, 64, 127
1, 29018, Note_on_c, 1, 58, 0
1, 29036, Note_on_c, 1, 56, 62
1, 29090, Note_on_c, 0, 53, 0
1, 29095, Note_on_c, 0, 52, 37
1, 29134, Note_on_c, 0, 52, 0
1, 29154, Control_c, 0, 64, 0
1, 29157, Note_on_c, 0, 51, 33
1, 29158, Note_on_c, 0, 67, 0
1, 29162, Control_c, 0, 64, 127
1, 29185, Note_on_c, 0, 44, 0
1, 29187, Note_on_c, 0, 60, 0
1, 29202, Note_on_c, 1, 56, 0
1, 29211, Note_on_c, 0, 44, 53
1, 29214, Note_on_c, 1, 55, 71
1, 29225, Note_on_c, 0, 51, 0
1, 29252, Note_on_c, 0, 44, 0
1, 29259, Note_on_c, 1, 55, 0
1, 29271, Note_on_c, 0, 63, 54
1, 29271, Note_on_c, 0, 70, 56
1, 29271, Note_on_c, 0, 59, 59
1, 29272, Note_on_c, 0, 67, 43
1, 29272, Note_on_c, 0, 43, 44
1, 29279, Control_c, 0, 64, 0
1, 29281, Note_on_c, 1, 53, 64
1, 29336, Note_on_c, 0, 50, 50
1, 29354, Note_on_c, 0, 43, 0
1, 29358, Note_on_c, 0, 50, 0
1, 29371, Note_on_c, 0, 51, 67
1, 29388, Note_on_c, 0, 51, 0
1, 29403, Control_c, 0, 64, 127
1, 29408, Note_on_c, 0, 52, 71
1, 29422, Control_c, 0, 64, 0
1, 29440, Note_on_c, 0, 52, 0
1, 29458, Note_on_c, 1, 51, 67
1, 29464, Note_on_c, 0, 53, 76
1, 29475, Note_on_c, 1, 53, 0
1, 29483, Control_c, 0, 64, 127
1, 29513, Note_on_c, 1, 51, 0
1, 29524, Note_on_c, 1, 50, 62
1, 29564, Note_on_c, 0, 53, 0
1, 29577, Note_on_c, 0, 55, 54
1, 29579, Note_on_c, 1, 50, 0
1, 29588, Note_on_c, 1, 43, 38
1, 29599, Note_on_c, 0, 63, 0
1, 29604, Note_on_c, 0, 67, 0
1, 29608, Note_on_c, 0, 59, 0
1, 29618, Note_on_c, 0, 55, 0
1, 29620, Note_on_c, 1, 43, 0
1, 29621, Note_on_c, 0, 70, 0
1, 29635, Note_on_c, 0, 63, 51
1, 29635, Note_on_c, 0, 56, 49
1, 29640, Note_on_c, 0, 59, 44
1, 29643, Note_on_c, 1, 38, 55
1, 29657, Note_on_c, 0, 56, 0
1, 29667, Note_on_c, 0, 59, 0
1, 29678, Note_on_c, 1, 38, 0
1, 29688, Note_on_c, 0, 63, 0
1, 29692, Note_on_c, 0, 68, 62
1, 29694, Note_on_c, 0, 58, 40
1, 29701, Note_on_c, 1, 35, 55
1, 29734, Note_on_c, 0, 58, 0
1, 29736, Note_on_c, 0, 68, 0
1, 29747, Note_on_c, 1, 35, 0
1, 29748, Control_c, 0, 64, 0
1, 29751, Note_on_c, 0, 62, 43
1, 29752, Note_on_c, 0, 67, 34
1, 29754, Note_on_c, 0, 63, 39
1, 29757, Note_on_c, 0, 48, 41
1, 29757, Note_on_c, 1, 36, 65
1, 29780, Control_c, 0, 64, 127
1, 29789, Note_on_c, 0, 62, 0
1, 29798, Note_on_c, 0, 63, 0
1, 29799, Note_on_c, 0, 67, 0
1, 29813, Note_on_c, 0, 55, 32
1, 29831, Note_on_c, 0, 48, 0
1, 29852, Note_on_c, 0, 55, 0
1, 29869, Note_on_c, 0, 74, 70
1, 29871, Note_on_c, 0, 63, 64
1, 29872, Note_on_c, 0, 62, 63
1, 29872, Note_on_c, 0, 67, 62
1, 29917, Note_on_c, 0, 74, 0
1, 29920, Note_on_c, 0, 67, 0
1, 29920, Note_on_c, 0, 63, 0
1, 29924, Note_on_c, 0, 62, 0
1, 29936, Note_on_c, 0, 72, 44
1, 29940, Note_on_c, 0, 60, 32
1, 29963, Note_on_c, 0, 72, 0
1, 29992, Note_on_c, 0, 60, 0
1, 29994, Note_on_c, 0, 74, 74
1, 29994, Note_on_c, 0, 67, 68
1, 29994, Note_on_c, 0, 63, 73
1, 29994, Note_on_c, 0, 62, 57
1, 29999, Note_on_c, 0, 70, 51
1, 30006, Note_on_c, 0, 70, 0
1, 30040, Note_on_c, 0, 63, 0
1, 30042, Note_on_c, 0, 74, 0
1, 30050, Note_on_c, 0, 67, 0
1, 30053, Note_on_c, 0, 62, 0
1, 30056, Note_on_c, 0, 72, 60
1, 30057, Note_on_c, 0, 60, 43
1, 30063, Note_on_c, 1, 48, 60
1, 30066, Note_on_c, 0, 60, 0
1, 30070, Note_on_c, 1, 48, 0
1, 30112, Note_on_c, 0, 67, 38
1, 30118, Note_on_c, 1, 48, 62
1, 30126, Note_on_c, 1, 48, 0
1, 30127, Note_on_c, 0, 72, 0
1, 30156, Note_on_c, 0, 67, 0
1, 30174, Note_on_c, 0, 63, 37
1, 30177, Note_on_c, 0, 48, 29
1, 30179, Note_on_c, 1, 48, 69
1, 30182, Note_on_c, 0, 63, 0
1, 30186, Note_on_c, 1, 36, 0
1, 30187, Note_on_c, 0, 48, 0
1, 30235, Note_on_c, 0, 70, 67
1, 30237, Note_on_c, 0, 63, 58
1, 30238, Note_on_c, 0, 66, 59
1, 30240, Note_on_c, 0, 49, 45
1, 30240, Note_on_c, 0, 59, 50
1, 30243, Control_c, 0, 64, 0
1, 30280, Note_on_c, 0, 66, 0
1, 30287, Control_c, 0, 64, 127
1, 30289, Note_on_c, 0, 59, 0
1, 30293, Note_on_c, 0, 70, 0
1, 30304, Note_on_c, 0, 68, 34
1, 30327, Note_on_c, 0, 63, 0
1, 30330, Note_on_c, 1, 44, 54
1, 30331, Note_on_c, 1, 48, 0
1, 30337, Note_on_c, 0, 68, 0
1, 30357, Note_on_c, 0, 70, 46
1, 30360, Note_on_c, 0, 59, 37
1, 30360, Note_on_c, 0, 63, 32
1, 30362, Note_on_c, 0, 66, 36
1, 30364, Note_on_c, 0, 58, 34
1, 30404, Note_on_c, 0, 66, 0
1, 30411, Note_on_c, 0, 70, 0
1, 30419, Note_on_c, 0, 68, 43
1, 30420, Note_on_c, 0, 66, 13
1, 30423, Note_on_c, 0, 56, 33
1, 30444, Note_on_c, 0, 63, 0
1, 30462, Note_on_c, 0, 59, 0
1, 30466, Note_on_c, 0, 49, 0
1, 30477, Note_on_c, 0, 63, 35
1, 30494, Note_on_c, 0, 66, 0
1, 30530, Note_on_c, 0, 63, 0
1, 30539, Note_on_c, 0, 59, 43
1, 30541, Note_on_c, 1, 49, 51
1, 30559, Note_on_c, 1, 49, 0
1, 30562, Note_on_c, 0, 58, 0
1, 30574, Note_on_c, 0, 59, 0
1, 30578, Note_on_c, 0, 68, 0
1, 30600, Note_on_c, 0, 58, 68
1, 30602, Note_on_c, 0, 63, 74
1, 30602, Note_on_c, 0, 70, 83
1, 30602, Note_on_c, 0, 66, 73
1, 30604, Note_on_c, 0, 59, 81
1, 30607, Note_on_c, 1, 49, 48
1, 30626, Note_on_c, 1, 49, 0
1, 30641, Note_on_c, 1, 44, 0
1, 30642, Note_on_c, 0, 66, 0
1, 30661, Note_on_c, 0, 70, 0
1, 30662, Note_on_c, 1, 44, 39
1, 30663, Note_on_c, 0, 68, 57
1, 30665, Note_on_c, 0, 58, 0
1, 30683, Note_on_c, 0, 63, 0
1, 30698, Note_on_c, 1, 44, 0
1, 30703, Note_on_c, 0, 59, 0
1, 30717, Note_on_c, 0, 68, 0
1, 30720, Note_on_c, 0, 66, 56
1, 30725, Note_on_c, 1, 46, 46
1, 30726, Note_on_c, 0, 56, 0
1, 30761, Note_on_c, 0, 66, 0
1, 30781, Note_on_c, 0, 63, 18
1, 30788, Note_on_c, 0, 63, 0
1, 30840, Note_on_c, 0, 46, 33
1, 30841, Control_c, 0, 64, 0
1, 30841, Note_on_c, 0, 74, 55
1, 30842, Note_on_c, 0, 67, 50
1, 30845, Note_on_c, 0, 70, 34
1, 30852, Note_on_c, 0, 70, 0
1, 30877, Control_c, 0, 64, 127
1, 30896, Note_on_c, 0, 74, 0
1, 30903, Note_on_c, 0, 70, 35
1, 30906, Note_on_c, 0, 62, 38
1, 30906, Note_on_c, 1, 58, 74
1, 30909, Note_on_c, 0, 55, 32
1, 30917, Note_on_c, 0, 62, 0
1, 30928, Note_on_c, 1, 58, 0
1, 30937, Note_on_c, 0, 67, 0
1, 30961, Note_on_c, 0, 70, 0
1, 30964, Note_on_c, 0, 55, 0
1, 30968, Note_on_c, 1, 58, 78
1, 31014, Note_on_c, 0, 74, 46
1, 31016, Note_on_c, 0, 70, 40
1, 31017, Note_on_c, 0, 62, 32
1, 31018, Note_on_c, 0, 67, 36
1, 31019, Note_on_c, 0, 55, 39
1, 31068, Note_on_c, 0, 46, 0
1, 31084, Note_on_c, 0, 62, 0
1, 31123, Note_on_c, 0, 67, 0
1, 31124, Note_on_c, 0, 74, 0
1, 31134, Note_on_c, 0, 46, 28
1, 31162, Note_on_c, 0, 46, 0
1, 31162, Note_on_c, 0, 55, 0
1, 31179, Note_on_c, 0, 70, 0
1, 31199, Note_on_c, 0, 67, 35
1, 31199, Note_on_c, 0, 44, 34
1, 31200, Note_on_c, 0, 72, 36
1, 31200, Note_on_c, 0, 60, 35
1, 31206, Control_c, 0, 64, 0
1, 31246, Control_c, 0, 64, 127
1, 31251, Note_on_c, 0, 60, 0
1, 31253, Note_on_c, 1, 58, 0
1, 31257, Note_on_c, 0, 67, 0
1, 31261, Note_on_c, 0, 51, 37
1, 31265, Note_on_c, 1, 60, 83
1, 31313, Note_on_c, 1, 46, 0
1, 31314, Note_on_c, 0, 44, 0
1, 31318, Note_on_c, 0, 51, 0
1, 31320, Note_on_c, 0, 60, 42
1, 31321, Note_on_c, 0, 67, 24
1, 31323, Note_on_c, 0, 55, 34
1, 31324, Note_on_c, 1, 60, 0
1, 31333, Note_on_c, 1, 56, 44
1, 31368, Note_on_c, 0, 55, 0
1, 31379, Note_on_c, 0, 56, 62
1, 31408, Note_on_c, 0, 67, 0
1, 31424, Note_on_c, 0, 60, 0
1, 31431, Note_on_c, 0, 56, 0
1, 31438, Note_on_c, 0, 58, 87
1, 31506, Note_on_c, 0, 60, 55
1, 31508, Note_on_c, 0, 67, 36
1, 31521, Note_on_c, 0, 60, 0
1, 31536, Note_on_c, 0, 67, 0
1, 31570, Note_on_c, 0, 56, 19
1, 31574, Note_on_c, 0, 58, 0
1, 31580, Note_on_c, 0, 56, 0
1, 31606, Note_on_c, 0, 72, 0
1, 31622, Note_on_c, 1, 60, 79
1, 31631, Note_on_c, 0, 60, 22
1, 31638, Note_on_c, 1, 56, 0
1, 31663, Note_on_c, 0, 60, 0
1, 31675, Note_on_c, 1, 60, 0
1, 31678, Note_on_c, 0, 70, 46
1, 31684, Note_on_c, 0, 43, 35
1, 31687, Note_on_c, 1, 58, 55
1, 31693, Control_c, 0, 64, 0
1, 31737, Control_c, 0, 64, 127
1, 31742, Note_on_c, 0, 50, 33
1, 31747, Note_on_c, 1, 55, 52
1, 31754, Note_on_c, 1, 58, 0
1, 31787, Note_on_c, 0, 43, 0
1, 31793, Note_on_c, 0, 50, 0
1, 31795, Note_on_c, 0, 58, 35
1, 31799, Note_on_c, 0, 62, 32
1, 31802, Note_on_c, 0, 55, 37
1, 31812, Note_on_c, 1, 55, 0
1, 31812, Note_on_c, 1, 43, 42
1, 31831, Note_on_c, 0, 58, 0
1, 31835, Note_on_c, 0, 62, 0
1, 31846, Note_on_c, 0, 55, 0
1, 31857, Note_on_c, 0, 56, 57
1, 31970, Note_on_c, 0, 56, 0
1, 31973, Note_on_c, 0, 58, 35
1, 31973, Note_on_c, 0, 62, 45
1, 31983, Note_on_c, 0, 55, 30
1, 32008, Control_c, 0, 64, 0
1, 32012, Note_on_c, 0, 55, 0
1, 32032, Control_c, 0, 64, 127
1, 32040, Note_on_c, 0, 50, 39
1, 32060, Control_c, 0, 64, 0
1, 32066, Note_on_c, 0, 62, 0
1, 32078, Note_on_c, 0, 58, 0
1, 32082, Control_c, 0, 64, 127
1, 32085, Note_on_c, 0, 50, 0
1, 32095, Note_on_c, 0, 43, 30
1, 32106, Note_on_c, 0, 43, 0
1, 32107, Note_on_c, 1, 59, 53
1, 32109, Note_on_c, 0, 70, 0
1, 32134, Note_on_c, 1, 59, 0
1, 32156, Note_on_c, 0, 70, 52
1, 32156, Note_on_c, 0, 44, 46
1, 32159, Note_on_c, 0, 59, 44
1, 32162, Control_c, 0, 64, 0
1, 32163, Note_on_c, 0, 63, 35
1, 32169, Note_on_c, 1, 59, 60
1, 32171, Note_on_c, 1, 57, 44
1, 32178, Note_on_c, 1, 57, 0
1, 32200, Control_c, 0, 64, 127
1, 32275, Note_on_c, 0, 59, 0
1, 32290, Note_on_c, 0, 63, 0
1, 32324, Note_on_c, 0, 70, 0
1, 32337, Note_on_c, 0, 68, 40
1, 32340, Note_on_c, 0, 63, 34
1, 32341, Note_on_c, 0, 59, 36
1, 32342, Note_on_c, 0, 56, 35
1, 32345, Note_on_c, 1, 59, 0
1, 32345, Note_on_c, 1, 56, 77
1, 32354, Control_c, 0, 64, 0
1, 32388, Control_c, 0, 64, 127
1, 32400, Note_on_c, 1, 43, 0
1, 32411, Note_on_c, 0, 56, 0
1, 32466, Note_on_c, 1, 43, 45
1, 32494, Note_on_c, 0, 63, 0
1, 32506, Note_on_c, 1, 43, 0
1, 32511, Note_on_c, 0, 59, 0
1, 32524, Note_on_c, 1, 53, 49
1, 32528, Note_on_c, 0, 63, 25
1, 32541, Note_on_c, 0, 44, 0
1, 32548, Note_on_c, 0, 68, 0
1, 32552, Note_on_c, 0, 63, 0
1, 32557, Note_on_c, 1, 56, 0
1, 32585, Note_on_c, 0, 44, 39
1, 32586, Note_on_c, 1, 53, 0
1, 32586, Note_on_c, 1, 54, 65
1, 32628, Note_on_c, 0, 44, 0
1, 32630, Note_on_c, 1, 54, 0
1, 32640, Note_on_c, 0, 67, 45
1, 32640, Note_on_c, 0, 45, 53
1, 32641, Note_on_c, 0, 63, 39
1, 32643, Note_on_c, 0, 60, 58
1, 32643, Note_on_c, 0, 55, 44
1, 32644, Note_on_c, 1, 55, 64
1, 32647, Control_c, 0, 64, 0
1, 32683, Control_c, 0, 64, 127
1, 32734, Note_on_c, 0, 67, 0
1, 32737, Note_on_c, 0, 55, 0
1, 32754, Note_on_c, 0, 45, 0
1, 32756, Note_on_c, 0, 60, 0
1, 32762, Note_on_c, 0, 63, 0
1, 32813, Note_on_c, 0, 68, 49
1, 32817, Note_on_c, 0, 32, 40
1, 32818, Note_on_c, 0, 56, 34
1, 32818, Note_on_c, 1, 56, 75
1, 32819, Note_on_c, 0, 44, 32
1, 32820, Control_c, 0, 64, 0
1, 32820, Note_on_c, 0, 63, 33
1, 32821, Note_on_c, 0, 60, 49
1, 32824, Note_on_c, 1, 55, 0
1, 32826, Note_on_c, 1, 57, 68
1, 32841, Note_on_c, 1, 56, 0
1, 32843, Note_on_c, 0, 60, 0
1, 32849, Note_on_c, 0, 56, 0
1, 32850, Note_on_c, 0, 63, 0
1, 32854, Note_on_c, 0, 68, 0
1, 32855, Note_on_c, 0, 44, 0
1, 32855, Note_on_c, 0, 32, 0
1, 32872, Note_on_c, 1, 57, 0
1, 32874, Control_c, 0, 64, 127
1, 32890, Note_on_c, 1, 56, 68
1, 32906, Control_c, 0, 64, 0
1, 32916, Note_on_c, 1, 56, 0
1, 32927, Note_on_c, 0, 70, 57
1, 32930, Note_on_c, 0, 43, 40
1, 32932, Note_on_c, 0, 31, 31
1, 32932, Note_on_c, 0, 63, 35
1, 32936, Note_on_c, 0, 59, 29
1, 32938, Note_on_c, 0, 70, 0
1, 32942, Note_on_c, 0, 63, 0
1, 32942, Note_on_c, 0, 43, 0
1, 32944, Note_on_c, 0, 59, 0
1, 32946, Note_on_c, 0, 31, 0
1, 32958, Note_on_c, 1, 55, 74
1, 32985, Note_on_c, 1, 55, 0
1, 32990, Note_on_c, 0, 63, 46
1, 32994, Note_on_c, 0, 58, 46
1, 32994, Note_on_c, 0, 42, 37
1, 32994, Note_on_c, 0, 30, 39
1, 32996, Note_on_c, 0, 52, 50
1, 33005, Note_on_c, 1, 54, 77
1, 33032, Control_c, 0, 64, 127
1, 33169, Note_on_c, 0, 52, 0
1, 33179, Note_on_c, 1, 42, 52
1, 33197, Note_on_c, 1, 42, 0
1, 33239, Note_on_c, 1, 42, 59
1, 33256, Note_on_c, 0, 30, 0
1, 33262, Note_on_c, 0, 58, 0
1, 33289, Note_on_c, 0, 42, 0
1, 33294, Note_on_c, 0, 30, 35
1, 33307, Note_on_c, 0, 63, 0
1, 33317, Note_on_c, 0, 30, 0
1, 33356, Note_on_c, 0, 63, 46
1, 33356, Control_c, 0, 64, 0
1, 33358, Note_on_c, 0, 56, 39
1, 33358, Note_on_c, 0, 58, 42
1, 33360, Note_on_c, 0, 52, 34
1, 33364, Note_on_c, 0, 42, 25
1, 33368, Note_on_c, 0, 52, 0
1, 33372, Note_on_c, 0, 42, 0
1, 33374, Note_on_c, 0, 56, 0
1, 33377, Note_on_c, 0, 58, 0
1, 33378, Note_on_c, 0, 63, 0
1, 33416, Note_on_c, 1, 39, 47
1, 33421, Note_on_c, 1, 42, 0
1, 33438, Note_on_c, 0, 63, 42
1, 33440, Note_on_c, 0, 56, 38
1, 33441, Note_on_c, 0, 58, 46
1, 33442, Note_on_c, 0, 42, 34
1, 33443, Note_on_c, 0, 52, 24
1, 33451, Note_on_c, 0, 52, 0
1, 33453, Note_on_c, 1, 39, 0
1, 33454, Note_on_c, 0, 56, 0
1, 33455, Note_on_c, 0, 63, 0
1, 33455, Note_on_c, 0, 42, 0
1, 33457, Note_on_c, 0, 58, 0
1, 33465, Note_on_c, 1, 39, 20
1, 33472, Note_on_c, 1, 39, 0
1, 33476, Note_on_c, 1, 40, 46
1, 33488, Note_on_c, 1, 54, 0
1, 33503, Note_on_c, 1, 40, 0
1, 33532, Note_on_c, 0, 63, 37
1, 33534, Note_on_c, 1, 40, 41
1, 33535, Note_on_c, 0, 56, 33
1, 33536, Control_c, 0, 64, 127
1, 33537, Note_on_c, 0, 30, 23
1, 33553, Note_on_c, 0, 56, 0
1, 33558, Note_on_c, 0, 63, 0
1, 33564, Note_on_c, 0, 30, 0
1, 33584, Note_on_c, 1, 40, 0
1, 33594, Note_on_c, 1, 41, 50
1, 33598, Control_c, 0, 64, 0
1, 33601, Note_on_c, 0, 63, 25
1, 33603, Note_on_c, 0, 56, 34
1, 33604, Note_on_c, 0, 53, 31
1, 33605, Note_on_c, 0, 41, 29
1, 33605, Note_on_c, 0, 60, 49
1, 33606, Note_on_c, 0, 29, 33
1, 33632, Control_c, 0, 64, 127
1, 33643, Note_on_c, 0, 29, 0
1, 33650, Note_on_c, 0, 53, 0
1, 33660, Note_on_c, 0, 60, 0
1, 33661, Note_on_c, 0, 41, 0
1, 33665, Note_on_c, 0, 56, 0
1, 33675, Note_on_c, 0, 63, 0
1, 33778, Note_on_c, 0, 63, 71
1, 33779, Note_on_c, 0, 58, 48
1, 33780, Note_on_c, 0, 67, 66
1, 33780, Note_on_c, 0, 60, 80
1, 33800, Note_on_c, 0, 60, 0
1, 33804, Note_on_c, 0, 58, 0
1, 33808, Note_on_c, 0, 67, 0
1, 33812, Note_on_c, 0, 63, 0
1, 33840, Note_on_c, 0, 63, 60
1, 33842, Note_on_c, 0, 67, 64
1, 33842, Note_on_c, 0, 60, 74
1, 33843, Note_on_c, 0, 58, 55
1, 33907, Note_on_c, 0, 46, 46
1, 33907, Note_on_c, 1, 53, 68
1, 33916, Note_on_c, 1, 41, 0
1, 33926, Note_on_c, 1, 53, 0
1, 33966, Note_on_c, 1, 48, 45
1, 33973, Note_on_c, 0, 46, 0
1, 33975, Note_on_c, 1, 48, 0
1, 34019, Note_on_c, 0, 60, 0
1, 34025, Note_on_c, 0, 46, 34
1, 34027, Note_on_c, 1, 47, 55
1, 34030, Note_on_c, 0, 63, 0
1, 34032, Note_on_c, 0, 67, 0
1, 34033, Note_on_c, 0, 58, 0
1, 34037, Note_on_c, 1, 47, 0
1, 34083, Note_on_c, 0, 67, 32
1, 34083, Note_on_c, 0, 59, 38
1, 34085, Note_on_c, 0, 64, 39
1, 34085, Note_on_c, 0, 56, 30
1, 34087, Control_c, 0, 64, 0
1, 34087, Note_on_c, 0, 62, 36
1, 34089, Note_on_c, 1, 46, 62
1, 34135, Control_c, 0, 64, 127
1, 34199, Note_on_c, 0, 59, 0
1, 34200, Note_on_c, 0, 46, 0
1, 34210, Note_on_c, 1, 58, 64
1, 34220, Note_on_c, 0, 62, 0
1, 34236, Note_on_c, 0, 64, 0
1, 34242, Note_on_c, 0, 67, 0
1, 34264, Note_on_c, 0, 46, 37
1, 34294, Note_on_c, 0, 46, 0
1, 34327, Note_on_c, 0, 46, 30
1, 34335, Note_on_c, 0, 56, 0
1, 34348, Note_on_c, 0, 46, 0
1, 34380, Note_on_c, 0, 82, 73
1, 34392, Note_on_c, 0, 74, 51
1, 34427, Note_on_c, 1, 46, 0
1, 34441, Note_on_c, 1, 46, 71
1, 34448, Note_on_c, 0, 82, 0
1, 34454, Note_on_c, 0, 74, 0
1, 34496, Note_on_c, 0, 79, 54
1, 34496, Note_on_c, 0, 70, 46
1, 34498, Note_on_c, 0, 67, 36
1, 34503, Note_on_c, 0, 74, 35
1, 34520, Note_on_c, 0, 70, 0
1, 34541, Note_on_c, 0, 65, 1
1, 34552, Note_on_c, 0, 67, 0
1, 34586, Note_on_c, 1, 58, 0
1, 34588, Note_on_c, 0, 74, 0
1, 34604, Note_on_c, 0, 79, 0
1, 34619, Note_on_c, 0, 70, 48
1, 34632, Note_on_c, 0, 65, 0
1, 34632, Note_on_c, 0, 58, 25
1, 34633, Note_on_c, 0, 70, 0
1, 34734, Note_on_c, 0, 58, 0
1, 34738, Note_on_c, 0, 79, 80
1, 34739, Note_on_c, 0, 86, 77
1, 34740, Note_on_c, 1, 58, 48
1, 34746, Note_on_c, 1, 58, 0
1, 34746, Note_on_c, 0, 70, 52
1, 34748, Note_on_c, 0, 67, 29
1, 34758, Note_on_c, 0, 65, 20
1, 34777, Note_on_c, 0, 86, 0
1, 34781, Note_on_c, 0, 70, 0
1, 34789, Note_on_c, 0, 79, 0
1, 34799, Note_on_c, 1, 58, 73
1, 34803, Note_on_c, 0, 82, 50
1, 34806, Note_on_c, 0, 74, 44
1, 34811, Note_on_c, 1, 58, 0
1, 34822, Note_on_c, 0, 82, 0
1, 34838, Note_on_c, 0, 74, 0
1, 34858, Note_on_c, 1, 60, 67
1, 34864, Note_on_c, 1, 60, 0
1, 34864, Note_on_c, 0, 67, 0
1, 34864, Note_on_c, 0, 58, 45
1, 34919, Note_on_c, 1, 58, 76
1, 34922, Note_on_c, 0, 58, 0
1, 34949, Note_on_c, 0, 65, 0
1, 34974, Note_on_c, 0, 58, 25
1, 34980, Note_on_c, 0, 79, 41
1, 34982, Note_on_c, 0, 74, 29
1, 34984, Note_on_c, 0, 70, 30
1, 34996, Note_on_c, 0, 74, 0
1, 35012, Note_on_c, 0, 70, 0
1, 35015, Note_on_c, 0, 79, 0
1, 35029, Note_on_c, 0, 58, 0
1, 35036, Note_on_c, 0, 60, 28
1, 35038, Control_c, 0, 64, 0
1, 35038, Note_on_c, 0, 73, 38
1, 35042, Note_on_c, 0, 68, 35
1, 35042, Note_on_c, 0, 77, 41
1, 35045, Note_on_c, 0, 63, 37
1, 35047, Note_on_c, 0, 72, 46
1, 35049, Note_on_c, 0, 73, 0
1, 35059, Note_on_c, 1, 46, 0
1, 35066, Control_c, 0, 64, 127
1, 35103, Note_on_c, 0, 58, 37
1, 35104, Note_on_c, 1, 46, 57
1, 35134, Note_on_c, 0, 72, 0
1, 35138, Note_on_c, 0, 77, 0
1, 35152, Note_on_c, 0, 68, 0
1, 35180, Note_on_c, 0, 58, 0
1, 35196, Note_on_c, 0, 60, 0
1, 35210, Note_on_c, 0, 67, 46
1, 35235, Note_on_c, 0, 67, 0
1, 35241, Note_on_c, 0, 68, 64
1, 35262, Note_on_c, 1, 58, 0
1, 35264, Note_on_c, 0, 68, 0
1, 35279, Note_on_c, 0, 60, 1
1, 35282, Note_on_c, 0, 68, 51
1, 35282, Note_on_c, 0, 70, 82
1, 35284, Note_on_c, 1, 60, 88
1, 35295, Note_on_c, 1, 60, 0
1, 35295, Control_c, 0, 64, 0
1, 35299, Note_on_c, 0, 70, 0
1, 35317, Note_on_c, 0, 72, 66
1, 35332, Note_on_c, 0, 72, 0
1, 35346, Note_on_c, 1, 58, 67
1, 35350, Note_on_c, 1, 59, 73
1, 35352, Note_on_c, 0, 74, 74
1, 35371, Note_on_c, 0, 74, 0
1, 35382, Note_on_c, 0, 60, 0
1, 35385, Control_c, 0, 64, 127
1, 35385, Note_on_c, 0, 58, 32
1, 35387, Note_on_c, 0, 75, 67
1, 35403, Note_on_c, 0, 68, 0
1, 35405, Note_on_c, 0, 75, 0
1, 35420, Note_on_c, 0, 77, 62
1, 35438, Note_on_c, 0, 63, 0
1, 35440, Note_on_c, 0, 77, 0
1, 35444, Note_on_c, 1, 46, 0
1, 35452, Note_on_c, 0, 79, 63
1, 35462, Note_on_c, 1, 46, 57
1, 35470, Note_on_c, 0, 79, 0
1, 35472, Note_on_c, 0, 58, 0
1, 35489, Note_on_c, 0, 82, 64
1, 35510, Note_on_c, 1, 46, 0
1, 35513, Note_on_c, 0, 82, 0
1, 35522, Note_on_c, 1, 46, 74
1, 35523, Note_on_c, 0, 70, 51
1, 35523, Note_on_c, 0, 86, 77
1, 35524, Control_c, 0, 64, 0
1, 35527, Note_on_c, 1, 58, 0
1, 35530, Note_on_c, 0, 67, 32
1, 35531, Note_on_c, 1, 59, 0
1, 35536, Note_on_c, 0, 65, 40
1, 35540, Note_on_c, 0, 70, 0
1, 35550, Note_on_c, 0, 86, 0
1, 35568, Note_on_c, 0, 82, 40
1, 35582, Note_on_c, 0, 82, 0
1, 35594, Note_on_c, 0, 58, 28
1, 35598, Control_c, 0, 64, 127
1, 35613, Note_on_c, 0, 79, 43
1, 35621, Note_on_c, 0, 79, 0
1, 35624, Note_on_c, 0, 67, 0
1, 35639, Note_on_c, 0, 65, 0
1, 35669, Note_on_c, 0, 74, 22
1, 35679, Note_on_c, 0, 74, 0
1, 35705, Note_on_c, 1, 60, 92
1, 35738, Note_on_c, 0, 65, 29
1, 35748, Note_on_c, 1, 60, 0
1, 35770, Note_on_c, 1, 58, 63
1, 35772, Note_on_c, 0, 58, 0
1, 35825, Note_on_c, 0, 70, 64
1, 35854, Note_on_c, 0, 70, 0
1, 35880, Note_on_c, 0, 70, 33
1, 35894, Note_on_c, 1, 46, 0
1, 35917, Note_on_c, 0, 70, 0
1, 35923, Note_on_c, 0, 65, 0
1, 35932, Note_on_c, 0, 58, 33
1, 35942, Note_on_c, 1, 46, 35
1, 35957, Note_on_c, 1, 46, 0
1, 35994, Note_on_c, 0, 60, 37
1, 35994, Note_on_c, 0, 68, 46
1, 35995, Control_c, 0, 64, 0
1, 35995, Note_on_c, 0, 75, 49
1, 35996, Note_on_c, 0, 72, 51
1, 35996, Note_on_c, 1, 46, 55
1, 35998, Note_on_c, 0, 63, 42
1, 36024, Note_on_c, 0, 58, 0
1, 36027, Control_c, 0, 64, 127
1, 36070, Note_on_c, 1, 58, 0
1, 36088, Note_on_c, 0, 60, 0
1, 36102, Note_on_c, 0, 68, 0
1, 36108, Note_on_c, 0, 72, 0
1, 36116, Note_on_c, 0, 63, 0
1, 36116, Note_on_c, 0, 75, 0
1, 36182, Note_on_c, 1, 60, 80
1, 36198, Note_on_c, 1, 60, 0
1, 36237, Note_on_c, 1, 58, 73
1, 36247, Note_on_c, 1, 46, 0
1, 36298, Note_on_c, 1, 46, 47
1, 36317, Note_on_c, 0, 71, 47
1, 36318, Note_on_c, 0, 67, 42
1, 36320, Note_on_c, 1, 46, 0
1, 36320, Note_on_c, 0, 62, 37
1, 36323, Note_on_c, 0, 56, 36
1, 36338, Control_c, 0, 64, 0
1, 36362, Control_c, 0, 64, 127
1, 36397, Note_on_c, 0, 67, 0
1, 36401, Note_on_c, 0, 71, 0
1, 36405, Note_on_c, 0, 56, 0
1, 36415, Note_on_c, 0, 62, 0
1, 36420, Note_on_c, 1, 46, 34
1, 36443, Note_on_c, 1, 46, 0
1, 36478, Note_on_c, 0, 70, 37
1, 36483, Note_on_c, 0, 60, 31
1, 36484, Control_c, 0, 64, 0
1, 36485, Note_on_c, 0, 65, 40
1, 36487, Note_on_c, 0, 55, 37
1, 36518, Control_c, 0, 64, 127
1, 36556, Note_on_c, 0, 55, 0
1, 36568, Note_on_c, 0, 70, 0
1, 36570, Note_on_c, 0, 65, 0
1, 36583, Note_on_c, 0, 60, 0
1, 36660, Note_on_c, 1, 46, 47
1, 36676, Note_on_c, 1, 58, 0
1, 36683, Note_on_c, 0, 46, 27
1, 36690, Note_on_c, 1, 46, 0
1, 36708, Note_on_c, 0, 46, 0
1, 36716, Control_c, 0, 64, 0
1, 36719, Note_on_c, 0, 39, 33
1, 36719, Note_on_c, 0, 62, 48
1, 36720, Note_on_c, 1, 46, 49
1, 36722, Note_on_c, 0, 67, 34
1, 36725, Note_on_c, 0, 55, 28
1, 36735, Note_on_c, 0, 39, 0
1, 36744, Control_c, 0, 64, 127
1, 36806, Note_on_c, 0, 44, 31
1, 36809, Note_on_c, 0, 54, 25
1, 36827, Note_on_c, 0, 55, 0
1, 36840, Note_on_c, 0, 62, 0
1, 36925, Note_on_c, 0, 54, 0
1, 36931, Note_on_c, 0, 50, 41
1, 36944, Note_on_c, 0, 50, 0
1, 36944, Note_on_c, 0, 44, 0
1, 36955, Note_on_c, 0, 61, 39
1, 36957, Control_c, 0, 64, 0
1, 36958, Note_on_c, 0, 67, 0
1, 36961, Note_on_c, 0, 43, 24
1, 36962, Note_on_c, 0, 59, 32
1, 36964, Note_on_c, 1, 56, 83
1, 36971, Note_on_c, 0, 53, 30
1, 36980, Note_on_c, 1, 46, 0
1, 36994, Note_on_c, 1, 56, 0
1, 36995, Control_c, 0, 64, 127
1, 37027, Note_on_c, 1, 55, 74
1, 37115, Note_on_c, 0, 59, 0
1, 37136, Note_on_c, 0, 61, 0
1, 37145, Note_on_c, 1, 44, 48
1, 37162, Note_on_c, 0, 53, 0
1, 37164, Note_on_c, 1, 55, 0
1, 37178, Note_on_c, 0, 43, 0
1, 37186, Note_on_c, 1, 44, 0
1, 37196, Note_on_c, 1, 43, 51
1, 37202, Control_c, 0, 64, 0
1, 37204, Note_on_c, 0, 65, 74
1, 37205, Note_on_c, 0, 59, 74
1, 37205, Note_on_c, 0, 56, 72
1, 37206, Note_on_c, 0, 62, 66
1, 37215, Note_on_c, 0, 53, 50
1, 37222, Note_on_c, 0, 53, 0
1, 37244, Control_c, 0, 64, 127
1, 37282, Note_on_c, 0, 53, 83
1, 37283, Note_on_c, 0, 62, 0
1, 37292, Control_c, 0, 64, 0
1, 37332, Note_on_c, 1, 50, 69
1, 37338, Note_on_c, 0, 53, 0
1, 37341, Note_on_c, 1, 43, 0
1, 37350, Note_on_c, 1, 50, 0
1, 37368, Note_on_c, 0, 47, 25
1, 37375, Note_on_c, 0, 47, 0
1, 37386, Control_c, 0, 64, 127
1, 37387, Note_on_c, 1, 49, 78
1, 37395, Note_on_c, 0, 47, 50
1, 37410, Note_on_c, 0, 59, 0
1, 37412, Note_on_c, 0, 65, 0
1, 37418, Note_on_c, 1, 49, 0
1, 37419, Note_on_c, 0, 56, 0
1, 37430, Note_on_c, 0, 47, 0
1, 37438, Note_on_c, 0, 63, 50
1, 37440, Note_on_c, 0, 55, 55
1, 37441, Note_on_c, 0, 48, 42
1, 37442, Control_c, 0, 64, 0
1, 37444, Note_on_c, 1, 48, 48
1, 37447, Note_on_c, 0, 58, 32
1, 37469, Note_on_c, 1, 48, 0
1, 37484, Control_c, 0, 64, 127
1, 37502, Note_on_c, 1, 43, 38
1, 37511, Note_on_c, 0, 36, 66
1, 37512, Note_on_c, 0, 55, 0
1, 37518, Note_on_c, 0, 58, 0
1, 37523, Note_on_c, 1, 43, 0
1, 37532, Note_on_c, 0, 36, 0
1, 37534, Note_on_c, 0, 63, 0
1, 37538, Note_on_c, 0, 48, 0
1, 37559, Note_on_c, 1, 39, 42
1, 37584, Note_on_c, 1, 39, 0
1, 37617, Note_on_c, 0, 70, 80
1, 37618, Note_on_c, 0, 67, 76
1, 37618, Note_on_c, 0, 58, 83
1, 37618, Note_on_c, 0, 63, 84
1, 37619, Note_on_c, 1, 38, 36
1, 37620, Note_on_c, 0, 62, 87
1, 37647, Note_on_c, 1, 38, 0
1, 37662, Note_on_c, 0, 62, 0
1, 37666, Note_on_c, 0, 70, 0
1, 37671, Note_on_c, 0, 63, 0
1, 37671, Note_on_c, 0, 58, 0
1, 37674, Note_on_c, 0, 67, 0
1, 37676, Note_on_c, 1, 36, 62
1, 37697, Note_on_c, 0, 70, 71
1, 37698, Note_on_c, 0, 58, 74
1, 37698, Note_on_c, 0, 63, 76
1, 37700, Note_on_c, 0, 67, 54
1, 37701, Control_c, 0, 64, 0
1, 37702, Note_on_c, 0, 62, 74
1, 37722, Control_c, 0, 64, 127
1, 37753, Note_on_c, 0, 62, 0
1, 37756, Note_on_c, 0, 67, 0
1, 37758, Note_on_c, 0, 63, 0
1, 37764, Note_on_c, 0, 70, 0
1, 37767, Note_on_c, 0, 58, 0
1, 37777, Note_on_c, 0, 55, 58
1, 37777, Note_on_c, 0, 62, 49
1, 37778, Note_on_c, 0, 63, 52
1, 37778, Note_on_c, 0, 67, 56
1, 37788, Control_c, 0, 64, 0
1, 37800, Control_c, 0, 64, 127
1, 37812, Note_on_c, 0, 62, 0
1, 37814, Note_on_c, 0, 67, 0
1, 37827, Note_on_c, 0, 63, 0
1, 37840, Note_on_c, 0, 55, 0
1, 37848, Note_on_c, 0, 48, 51
1, 37857, Note_on_c, 0, 48, 0
1, 37906, Note_on_c, 1, 36, 0
1, 37916, Control_c, 0, 64, 0
1, 37917, Note_on_c, 1, 40, 44
1, 37918, Note_on_c, 0, 62, 48
1, 37918, Note_on_c, 0, 55, 55
1, 37919, Note_on_c, 0, 67, 43
1, 37922, Note_on_c, 0, 50, 36
1, 37924, Note_on_c, 0, 40, 27
1, 37944, Control_c, 0, 64, 127
1, 37950, Note_on_c, 0, 67, 0
1, 37976, Note_on_c, 0, 55, 0
1, 37999, Note_on_c, 0, 40, 0
1, 37999, Note_on_c, 0, 69, 67
1, 38021, Note_on_c, 0, 50, 0
1, 38031, Note_on_c, 0, 62, 0
1, 38037, Note_on_c, 0, 69, 0
1, 38088, Note_on_c, 0, 70, 50
1, 38089, Note_on_c, 0, 61, 55
1, 38090, Note_on_c, 0, 66, 57
1, 38090, Control_c, 0, 64, 0
1, 38091, Note_on_c, 0, 55, 32
1, 38093, Note_on_c, 0, 45, 26
1, 38096, Note_on_c, 1, 40, 0
1, 38097, Note_on_c, 1, 46, 56
1, 38118, Control_c, 0, 64, 127
1, 38129, Note_on_c, 0, 66, 0
1, 38137, Note_on_c, 0, 70, 0
1, 38150, Note_on_c, 1, 46, 0
1, 38154, Note_on_c, 0, 61, 0
1, 38158, Note_on_c, 1, 45, 53
1, 38176, Note_on_c, 0, 72, 44
1, 38181, Note_on_c, 0, 55, 0
1, 38197, Note_on_c, 0, 72, 0
1, 38247, Control_c, 0, 64, 0
1, 38252, Note_on_c, 0, 73, 55
1, 38259, Note_on_c, 0, 55, 33
1, 38261, Control_c, 0, 64, 127
1, 38261, Note_on_c, 0, 68, 38
1, 38262, Note_on_c, 0, 61, 33
1, 38272, Note_on_c, 0, 55, 0
1, 38274, Note_on_c, 0, 61, 0
1, 38277, Note_on_c, 0, 73, 0
1, 38279, Note_on_c, 0, 68, 0
1, 38302, Note_on_c, 0, 45, 0
1, 38330, Control_c, 0, 64, 0
1, 38338, Note_on_c, 1, 52, 76
1, 38341, Note_on_c, 0, 75, 74
1, 38343, Note_on_c, 0, 63, 60
1, 38357, Note_on_c, 1, 52, 0
1, 38359, Control_c, 0, 64, 127
1, 38397, Note_on_c, 0, 63, 0
1, 38401, Note_on_c, 0, 75, 0
1, 38410, Note_on_c, 1, 45, 0
1, 38425, Control_c, 0, 64, 0
1, 38426, Note_on_c, 0, 44, 52
1, 38428, Note_on_c, 0, 77, 57
1, 38431, Note_on_c, 0, 72, 46
1, 38432, Note_on_c, 0, 65, 44
1, 38433, Note_on_c, 0, 51, 55
1, 38437, Control_c, 0, 64, 127
1, 38448, Note_on_c, 0, 44, 0
1, 38451, Note_on_c, 0, 51, 0
1, 38457, Note_on_c, 1, 44, 58
1, 38463, Note_on_c, 0, 77, 0
1, 38466, Note_on_c, 0, 65, 0
1, 38468, Note_on_c, 0, 72, 0
1, 38516, Control_c, 0, 64, 0
1, 38517, Note_on_c, 0, 79, 68
1, 38518, Note_on_c, 0, 75, 60
1, 38519, Note_on_c, 0, 67, 61
1, 38519, Note_on_c, 0, 72, 66
1, 38519, Note_on_c, 0, 63, 59
1, 38520, Note_on_c, 0, 53, 38
1, 38522, Note_on_c, 0, 58, 49
1, 38534, Control_c, 0, 64, 127
1, 38554, Note_on_c, 0, 67, 0
1, 38556, Note_on_c, 0, 79, 0
1, 38558, Note_on_c, 0, 53, 0
1, 38562, Note_on_c, 1, 51, 52
1, 38566, Note_on_c, 0, 72, 0
1, 38568, Note_on_c, 0, 75, 0
1, 38572, Note_on_c, 0, 63, 0
1, 38572, Note_on_c, 0, 58, 0
1, 38595, Note_on_c, 1, 51, 0
1, 38601, Note_on_c, 0, 75, 63
1, 38601, Note_on_c, 0, 80, 63
1, 38601, Note_on_c, 0, 72, 71
1, 38604, Control_c, 0, 64, 0
1, 38604, Note_on_c, 0, 65, 54
1, 38604, Note_on_c, 0, 55, 59
1, 38604, Note_on_c, 0, 60, 54
1, 38605, Note_on_c, 0, 68, 51
1, 38625, Note_on_c, 1, 56, 76
1, 38626, Control_c, 0, 64, 127
1, 38628, Note_on_c, 0, 68, 0
1, 38628, Note_on_c, 0, 55, 0
1, 38628, Note_on_c, 0, 65, 0
1, 38629, Note_on_c, 0, 72, 0
1, 38637, Note_on_c, 0, 60, 0
1, 38638, Note_on_c, 0, 75, 0
1, 38640, Note_on_c, 0, 80, 0
1, 38694, Note_on_c, 0, 82, 71
1, 38697, Note_on_c, 0, 70, 71
1, 38698, Note_on_c, 0, 63, 59
1, 38700, Note_on_c, 0, 53, 52
1, 38700, Note_on_c, 0, 58, 53
1, 38700, Control_c, 0, 64, 0
1, 38718, Note_on_c, 0, 53, 0
1, 38722, Note_on_c, 0, 63, 0
1, 38724, Control_c, 0, 64, 127
1, 38725, Note_on_c, 0, 70, 0
1, 38729, Note_on_c, 0, 82, 0
1, 38729, Note_on_c, 0, 58, 0
1, 38773, Note_on_c, 0, 84, 71
1, 38774, Note_on_c, 0, 51, 62
1, 38774, Note_on_c, 0, 61, 54
1, 38777, Note_on_c, 0, 72, 64
1, 38779, Control_c, 0, 64, 0
1, 38779, Note_on_c, 0, 79, 52
1, 38780, Control_c, 0, 64, 127
1, 38796, Note_on_c, 0, 72, 0
1, 38803, Note_on_c, 0, 84, 0
1, 38806, Note_on_c, 0, 79, 0
1, 38813, Note_on_c, 1, 51, 51
1, 38818, Note_on_c, 1, 56, 0
1, 38820, Note_on_c, 0, 61, 0
1, 38822, Note_on_c, 0, 51, 0
1, 38849, Control_c, 0, 64, 0
1, 38854, Note_on_c, 0, 86, 74
1, 38855, Note_on_c, 0, 60, 65
1, 38856, Note_on_c, 0, 79, 66
1, 38856, Note_on_c, 0, 74, 60
1, 38857, Note_on_c, 0, 56, 50
1, 38858, Note_on_c, 0, 50, 55
1, 38862, Note_on_c, 1, 51, 0
1, 38874, Note_on_c, 1, 55, 79
1, 38877, Note_on_c, 1, 44, 0
1, 38877, Control_c, 0, 64, 127
1, 38897, Note_on_c, 0, 86, 0
1, 38906, Note_on_c, 0, 79, 0
1, 38914, Note_on_c, 0, 74, 0
1, 38978, Note_on_c, 0, 50, 0
1, 38986, Note_on_c, 0, 60, 0
1, 38995, Note_on_c, 0, 56, 0
1, 39044, Note_on_c, 0, 82, 83
1, 39060, Note_on_c, 1, 51, 47
1, 39066, Note_on_c, 1, 55, 0
1, 39075, Note_on_c, 0, 82, 0
1, 39114, Note_on_c, 0, 82, 71
1, 39119, Note_on_c, 1, 43, 53
1, 39121, Note_on_c, 0, 64, 42
1, 39122, Note_on_c, 0, 75, 62
1, 39122, Note_on_c, 0, 53, 31
1, 39123, Note_on_c, 1, 51, 0
1, 39123, Note_on_c, 0, 59, 42
1, 39124, Control_c, 0, 64, 0
1, 39125, Note_on_c, 0, 71, 47
1, 39156, Control_c, 0, 64, 127
1, 39194, Note_on_c, 0, 82, 0
1, 39202, Note_on_c, 0, 80, 59
1, 39224, Note_on_c, 0, 64, 0
1, 39233, Note_on_c, 0, 59, 0
1, 39236, Note_on_c, 0, 80, 0
1, 39240, Note_on_c, 0, 75, 0
1, 39242, Note_on_c, 0, 53, 0
1, 39252, Note_on_c, 0, 71, 0
1, 39284, Note_on_c, 0, 79, 58
1, 39300, Note_on_c, 1, 47, 37
1, 39308, Note_on_c, 0, 79, 0
1, 39316, Note_on_c, 0, 77, 41
1, 39338, Note_on_c, 0, 77, 0
1, 39344, Note_on_c, 1, 47, 0
1, 39348, Note_on_c, 1, 43, 0
1, 39352, Control_c, 0, 64, 0
1, 39358, Note_on_c, 0, 79, 67
1, 39359, Note_on_c, 1, 48, 54
1, 39362, Note_on_c, 0, 48, 41
1, 39387, Control_c, 0, 64, 127
1, 39410, Note_on_c, 0, 79, 0
1, 39433, Note_on_c, 0, 75, 51
1, 39435, Note_on_c, 0, 48, 0
1, 39440, Note_on_c, 0, 55, 37
1, 39523, Note_on_c, 0, 62, 33
1, 39524, Note_on_c, 0, 67, 43
1, 39541, Note_on_c, 1, 50, 43
1, 39554, Note_on_c, 1, 48, 0
1, 39555, Note_on_c, 0, 62, 0
1, 39579, Note_on_c, 0, 67, 0
1, 39594, Note_on_c, 1, 50, 0
1, 39603, Note_on_c, 1, 51, 49
1, 39604, Note_on_c, 0, 67, 46
1, 39605, Note_on_c, 0, 60, 47
1, 39640, Note_on_c, 0, 60, 0
1, 39678, Note_on_c, 0, 75, 0
1, 39685, Note_on_c, 0, 67, 0
1, 39685, Note_on_c, 0, 59, 51
1, 39732, Note_on_c, 0, 59, 0
1, 39770, Note_on_c, 0, 58, 48
1, 39779, Note_on_c, 0, 58, 0
1, 39787, Note_on_c, 0, 55, 0
1, 39833, Note_on_c, 1, 49, 77
1, 39840, Note_on_c, 0, 70, 36
1, 39840, Note_on_c, 0, 59, 37
1, 39840, Note_on_c, 0, 63, 40
1, 39843, Note_on_c, 0, 65, 40
1, 39844, Note_on_c, 0, 44, 33
1, 39847, Control_c, 0, 64, 0
1, 39849, Note_on_c, 1, 51, 0
1, 39890, Control_c, 0, 64, 127
1, 39917, Note_on_c, 0, 51, 49
1, 39922, Note_on_c, 0, 44, 0
1, 39982, Note_on_c, 0, 59, 0
1, 39983, Note_on_c, 0, 65, 0
1, 39994, Note_on_c, 0, 63, 0
1, 40007, Note_on_c, 0, 70, 0
1, 40014, Note_on_c, 0, 68, 46
1, 40015, Note_on_c, 0, 63, 31
1, 40015, Note_on_c, 0, 59, 47
1, 40018, Note_on_c, 0, 65, 32
1, 40018, Note_on_c, 0, 58, 46
1, 40019, Note_on_c, 1, 51, 76
1, 40059, Note_on_c, 0, 58, 0
1, 40070, Note_on_c, 0, 63, 0
1, 40071, Note_on_c, 0, 59, 0
1, 40078, Note_on_c, 1, 51, 0
1, 40084, Note_on_c, 1, 53, 81
1, 40090, Note_on_c, 0, 65, 0
1, 40090, Note_on_c, 0, 63, 53
1, 40091, Note_on_c, 0, 56, 39
1, 40095, Note_on_c, 0, 59, 46
1, 40097, Note_on_c, 1, 49, 0
1, 40102, Control_c, 0, 64, 0
1, 40124, Control_c, 0, 64, 127
1, 40141, Note_on_c, 0, 68, 0
1, 40148, Note_on_c, 0, 56, 0
1, 40154, Note_on_c, 0, 59, 0
1, 40166, Note_on_c, 0, 63, 0
1, 40177, Note_on_c, 0, 56, 50
1, 40182, Note_on_c, 0, 59, 50
1, 40182, Note_on_c, 0, 67, 64
1, 40185, Note_on_c, 0, 63, 42
1, 40242, Note_on_c, 0, 59, 0
1, 40245, Note_on_c, 0, 56, 0
1, 40247, Note_on_c, 0, 63, 0
1, 40250, Note_on_c, 0, 67, 0
1, 40267, Note_on_c, 1, 53, 0
1, 40269, Note_on_c, 1, 51, 56
1, 40273, Note_on_c, 0, 56, 53
1, 40306, Note_on_c, 1, 51, 0
1, 40307, Note_on_c, 1, 49, 50
1, 40323, Note_on_c, 0, 56, 0
1, 40325, Note_on_c, 1, 49, 0
1, 40332, Note_on_c, 0, 51, 0
1, 40333, Note_on_c, 0, 63, 46
1, 40334, Note_on_c, 0, 70, 51
1, 40339, Note_on_c, 0, 46, 40
1, 40342, Note_on_c, 0, 55, 53
1, 40343, Control_c, 0, 64, 0
1, 40344, Note_on_c, 1, 46, 52
1, 40346, Note_on_c, 0, 67, 24
1, 40381, Control_c, 0, 64, 127
1, 40462, Note_on_c, 0, 55, 0
1, 40469, Note_on_c, 0, 67, 0
1, 40478, Note_on_c, 0, 63, 0
1, 40497, Note_on_c, 0, 70, 0
1, 40511, Note_on_c, 0, 63, 42
1, 40513, Note_on_c, 0, 67, 26
1, 40513, Note_on_c, 0, 55, 37
1, 40515, Note_on_c, 0, 58, 33
1, 40520, Control_c, 0, 64, 0
1, 40532, Control_c, 0, 64, 127
1, 40549, Note_on_c, 0, 58, 0
1, 40561, Note_on_c, 0, 67, 0
1, 40564, Note_on_c, 0, 63, 0
1, 40585, Note_on_c, 0, 46, 0
1, 40625, Note_on_c, 0, 62, 55
1, 40629, Note_on_c, 0, 46, 35
1, 40639, Note_on_c, 1, 58, 31
1, 40646, Note_on_c, 0, 62, 0
1, 40649, Note_on_c, 1, 58, 0
1, 40665, Note_on_c, 1, 60, 72
1, 40668, Note_on_c, 0, 55, 0
1, 40682, Note_on_c, 0, 67, 65
1, 40683, Note_on_c, 0, 46, 0
1, 40689, Note_on_c, 1, 60, 0
1, 40696, Note_on_c, 1, 58, 64
1, 40698, Note_on_c, 0, 67, 0
1, 40743, Note_on_c, 0, 86, 91
1, 40790, Note_on_c, 0, 86, 0
1, 40790, Note_on_c, 1, 58, 0
1, 40802, Control_c, 0, 64, 0
1, 40803, Note_on_c, 0, 79, 40
1, 40803, Note_on_c, 0, 44, 42
1, 40804, Note_on_c, 1, 56, 37
1, 40806, Note_on_c, 0, 72, 33
1, 40808, Note_on_c, 0, 74, 24
1, 40816, Note_on_c, 0, 74, 0
1, 40816, Note_on_c, 1, 56, 0
1, 40834, Control_c, 0, 64, 127
1, 40834, Note_on_c, 1, 58, 55
1, 40839, Note_on_c, 0, 79, 0
1, 40845, Note_on_c, 0, 72, 0
1, 40854, Note_on_c, 1, 58, 0
1, 40862, Note_on_c, 0, 51, 42
1, 40863, Note_on_c, 1, 56, 71
1, 40957, Note_on_c, 1, 46, 0
1, 40978, Note_on_c, 0, 62, 43
1, 40978, Note_on_c, 0, 67, 29
1, 40980, Note_on_c, 0, 60, 45
1, 40986, Note_on_c, 0, 55, 29
1, 40999, Control_c, 0, 64, 0
1, 41011, Control_c, 0, 64, 127
1, 41071, Note_on_c, 0, 55, 0
1, 41094, Note_on_c, 0, 74, 65
1, 41104, Note_on_c, 0, 55, 35
1, 41154, Note_on_c, 0, 74, 0
1, 41158, Note_on_c, 0, 51, 0
1, 41160, Note_on_c, 0, 67, 0
1, 41174, Note_on_c, 0, 62, 0
1, 41178, Note_on_c, 0, 60, 0
1, 41195, Note_on_c, 0, 55, 0
1, 41220, Note_on_c, 1, 56, 0
1, 41224, Note_on_c, 0, 51, 21
1, 41225, Note_on_c, 1, 58, 44
1, 41244, Note_on_c, 1, 58, 0
1, 41253, Note_on_c, 1, 56, 58
1, 41264, Note_on_c, 0, 44, 0
1, 41265, Note_on_c, 0, 51, 0
1, 41272, Note_on_c, 1, 56, 0
1, 41276, Note_on_c, 0, 70, 52
1, 41278, Control_c, 0, 64, 0
1, 41279, Note_on_c, 0, 62, 31
1, 41282, Note_on_c, 0, 58, 23
1, 41282, Note_on_c, 0, 43, 32
1, 41284, Note_on_c, 0, 67, 22
1, 41290, Note_on_c, 1, 55, 64
1, 41312, Control_c, 0, 64, 127
1, 41363, Note_on_c, 0, 62, 0
1, 41388, Note_on_c, 0, 67, 0
1, 41408, Note_on_c, 0, 58, 0
1, 41457, Note_on_c, 1, 56, 62
1, 41460, Note_on_c, 1, 55, 0
1, 41460, Note_on_c, 0, 62, 36
1, 41462, Note_on_c, 0, 58, 35
1, 41467, Note_on_c, 0, 55, 26
1, 41474, Control_c, 0, 64, 0
1, 41476, Note_on_c, 1, 56, 0
1, 41482, Control_c, 0, 64, 127
1, 41486, Note_on_c, 1, 55, 63
1, 41493, Note_on_c, 0, 43, 0
1, 41498, Note_on_c, 1, 55, 0
1, 41525, Note_on_c, 0, 55, 0
1, 41532, Note_on_c, 0, 58, 0
1, 41541, Note_on_c, 0, 62, 0
1, 41573, Note_on_c, 1, 55, 74
1, 41581, Note_on_c, 0, 58, 58
1, 41596, Note_on_c, 1, 55, 0
1, 41604, Note_on_c, 0, 70, 0
1, 41634, Note_on_c, 1, 55, 68
1, 41642, Note_on_c, 0, 59, 60
1, 41664, Note_on_c, 0, 59, 0
1, 41677, Note_on_c, 0, 58, 0
1, 41679, Note_on_c, 1, 55, 0
1, 41694, Note_on_c, 1, 51, 47
1, 41700, Note_on_c, 0, 63, 82
1, 41727, Note_on_c, 0, 63, 0
1, 41760, Note_on_c, 0, 58, 54
1, 41762, Note_on_c, 0, 70, 71
1, 41762, Note_on_c, 0, 63, 64
1, 41764, Note_on_c, 0, 59, 59
1, 41767, Note_on_c, 0, 66, 37
1, 41775, Control_c, 0, 64, 0
1, 41801, Control_c, 0, 64, 127
1, 41817, Note_on_c, 0, 70, 0
1, 41826, Note_on_c, 0, 68, 47
1, 41845, Note_on_c, 0, 66, 0
1, 41852, Note_on_c, 0, 59, 0
1, 41854, Note_on_c, 0, 63, 0
1, 41887, Note_on_c, 0, 63, 35
1, 41911, Note_on_c, 0, 58, 0
1, 41924, Note_on_c, 0, 63, 0
1, 41932, Note_on_c, 0, 68, 0
1, 41937, Note_on_c, 1, 56, 67
1, 41940, Note_on_c, 1, 51, 0
1, 41945, Note_on_c, 0, 59, 45
1, 41949, Note_on_c, 0, 58, 33
1, 41953, Note_on_c, 0, 59, 0
1, 41962, Note_on_c, 1, 56, 0
1, 41963, Note_on_c, 0, 58, 0
1, 41969, Control_c, 0, 64, 0
1, 42000, Note_on_c, 1, 56, 69
1, 42007, Note_on_c, 0, 59, 51
1, 42007, Note_on_c, 0, 70, 49
1, 42007, Note_on_c, 0, 66, 37
1, 42009, Note_on_c, 0, 58, 40
1, 42011, Note_on_c, 0, 63, 32
1, 42017, Note_on_c, 0, 63, 0
1, 42019, Note_on_c, 0, 59, 0
1, 42021, Note_on_c, 0, 66, 0
1, 42023, Note_on_c, 0, 58, 0
1, 42023, Note_on_c, 0, 70, 0
1, 42068, Note_on_c, 0, 58, 57
1, 42068, Note_on_c, 0, 59, 58
1, 42069, Note_on_c, 0, 70, 55
1, 42069, Note_on_c, 0, 63, 48
1, 42070, Note_on_c, 0, 66, 45
1, 42088, Control_c, 0, 64, 127
1, 42100, Control_c, 0, 64, 0
1, 42109, Note_on_c, 0, 66, 0
1, 42112, Note_on_c, 0, 70, 0
1, 42112, Control_c, 0, 64, 127
1, 42126, Note_on_c, 0, 68, 52
1, 42145, Note_on_c, 0, 59, 0
1, 42146, Note_on_c, 0, 63, 0
1, 42160, Note_on_c, 0, 58, 0
1, 42175, Note_on_c, 0, 68, 0
1, 42186, Note_on_c, 1, 54, 52
1, 42219, Note_on_c, 1, 56, 0
1, 42230, Note_on_c, 1, 54, 0
1, 42239, Note_on_c, 1, 55, 69
1, 42296, Note_on_c, 0, 39, 38
1, 42298, Note_on_c, 0, 62, 41
1, 42299, Note_on_c, 0, 67, 36
1, 42300, Note_on_c, 0, 46, 36
1, 42301, Note_on_c, 0, 55, 34
1, 42302, Control_c, 0, 64, 0
1, 42324, Note_on_c, 0, 55, 0
1, 42324, Note_on_c, 0, 67, 0
1, 42330, Control_c, 0, 64, 127
1, 42334, Note_on_c, 0, 62, 0
1, 42348, Note_on_c, 0, 39, 0
1, 42350, Note_on_c, 0, 46, 0
1, 42361, Control_c, 0, 64, 0
1, 42364, Note_on_c, 0, 68, 56
1, 42365, Note_on_c, 0, 63, 55
1, 42365, Note_on_c, 0, 45, 49
1, 42366, Note_on_c, 0, 56, 50
1, 42368, Note_on_c, 0, 38, 40
1, 42383, Note_on_c, 0, 56, 0
1, 42386, Note_on_c, 0, 45, 0
1, 42387, Note_on_c, 0, 68, 0
1, 42387, Note_on_c, 0, 38, 0
1, 42390, Note_on_c, 0, 63, 0
1, 42472, Control_c, 0, 64, 127
1, 42473, Note_on_c, 0, 70, 62
1, 42475, Note_on_c, 0, 63, 49
1, 42475, Note_on_c, 0, 44, 44
1, 42477, Note_on_c, 0, 58, 33
1, 42480, Note_on_c, 0, 37, 34
1, 42488, Control_c, 0, 64, 0
1, 42490, Note_on_c, 0, 70, 0
1, 42493, Note_on_c, 0, 58, 0
1, 42494, Note_on_c, 0, 63, 0
1, 42498, Note_on_c, 0, 44, 0
1, 42506, Note_on_c, 0, 37, 0
1, 42536, Note_on_c, 1, 50, 55
1, 42548, Note_on_c, 1, 50, 0
1, 42587, Note_on_c, 1, 48, 60
1, 42590, Note_on_c, 1, 55, 0
1, 42591, Note_on_c, 0, 43, 35
1, 42591, Note_on_c, 0, 63, 45
1, 42592, Note_on_c, 0, 58, 38
1, 42593, Control_c, 0, 64, 127
1, 42596, Note_on_c, 0, 36, 34
1, 42600, Note_on_c, 0, 52, 19
1, 42622, Note_on_c, 0, 43, 0
1, 42625, Note_on_c, 0, 52, 0
1, 42629, Note_on_c, 0, 36, 0
1, 42637, Note_on_c, 0, 58, 0
1, 42650, Note_on_c, 0, 63, 0
1, 42712, Note_on_c, 0, 24, 53
1, 42718, Note_on_c, 0, 24, 0
1, 42770, Note_on_c, 1, 36, 44
1, 42786, Note_on_c, 0, 75, 83
1, 42786, Note_on_c, 0, 68, 87
1, 42788, Note_on_c, 0, 64, 89
1, 42788, Note_on_c, 0, 72, 80
1, 42793, Note_on_c, 0, 63, 83
1, 42805, Note_on_c, 1, 48, 0
1, 42827, Note_on_c, 1, 51, 61
1, 42867, Note_on_c, 0, 64, 0
1, 42872, Note_on_c, 0, 68, 0
1, 42875, Note_on_c, 0, 75, 0
1, 42876, Note_on_c, 0, 72, 0
1, 42885, Note_on_c, 1, 36, 0
1, 42894, Note_on_c, 0, 63, 0
1, 42908, Note_on_c, 0, 73, 63
1, 42908, Note_on_c, 0, 61, 64
1, 42908, Note_on_c, 0, 68, 71
1, 42912, Note_on_c, 0, 64, 60
1, 42942, Note_on_c, 0, 73, 0
1, 42952, Note_on_c, 0, 64, 0
1, 42957, Note_on_c, 0, 68, 0
1, 42970, Note_on_c, 0, 61, 0
1, 42981, Note_on_c, 0, 72, 58
1, 42984, Note_on_c, 0, 67, 45
1, 42986, Control_c, 0, 64, 0
1, 42986, Note_on_c, 0, 64, 49
1, 42991, Control_c, 0, 64, 127
1, 42992, Note_on_c, 0, 60, 40
1, 43016, Note_on_c, 0, 67, 0
1, 43017, Note_on_c, 1, 48, 53
1, 43024, Note_on_c, 0, 64, 0
1, 43037, Note_on_c, 1, 48, 0
1, 43038, Note_on_c, 0, 72, 0
1, 43044, Note_on_c, 0, 60, 0
1, 43055, Note_on_c, 0, 64, 55
1, 43058, Note_on_c, 0, 58, 36
1, 43060, Control_c, 0, 64, 0
1, 43071, Note_on_c, 0, 64, 0
1, 43074, Note_on_c, 0, 58, 0
1, 43074, Control_c, 0, 64, 127
1, 43076, Note_on_c, 1, 43, 48
1, 43097, Note_on_c, 1, 43, 0
1, 43131, Note_on_c, 1, 40, 51
1, 43147, Note_on_c, 0, 63, 56
1, 43149, Note_on_c, 0, 70, 56
1, 43150, Note_on_c, 0, 67, 39
1, 43152, Note_on_c, 0, 58, 51
1, 43152, Control_c, 0, 64, 0
1, 43154, Note_on_c, 0, 60, 49
1, 43158, Note_on_c, 1, 51, 0
1, 43181, Note_on_c, 1, 40, 0
1, 43192, Control_c, 0, 64, 127
1, 43196, Note_on_c, 1, 41, 58
1, 43211, Note_on_c, 0, 67, 0
1, 43226, Note_on_c, 0, 63, 0
1, 43226, Note_on_c, 0, 60, 0
1, 43229, Note_on_c, 0, 58, 0
1, 43232, Note_on_c, 0, 70, 0
1, 43259, Note_on_c, 0, 56, 45
1, 43260, Note_on_c, 0, 68, 50
1, 43260, Note_on_c, 0, 63, 50
1, 43264, Note_on_c, 0, 60, 48
1, 43270, Note_on_c, 0, 56, 0
1, 43274, Note_on_c, 0, 60, 0
1, 43276, Note_on_c, 0, 68, 0
1, 43281, Note_on_c, 0, 63, 0
1, 43372, Note_on_c, 1, 41, 0
1, 43372, Note_on_c, 0, 67, 42
1, 43374, Note_on_c, 0, 60, 54
1, 43374, Note_on_c, 0, 63, 36
1, 43374, Note_on_c, 1, 43, 47
1, 43376, Note_on_c, 0, 56, 35
1, 43376, Note_on_c, 0, 41, 36
1, 43381, Control_c, 0, 64, 0
1, 43388, Note_on_c, 0, 51, 15
1, 43405, Note_on_c, 1, 43, 0
1, 43417, Control_c, 0, 64, 127
1, 43433, Note_on_c, 1, 44, 52
1, 43452, Note_on_c, 0, 41, 0
1, 43454, Note_on_c, 0, 56, 0
1, 43454, Note_on_c, 0, 60, 0
1, 43458, Note_on_c, 0, 63, 0
1, 43461, Note_on_c, 0, 51, 0
1, 43472, Note_on_c, 0, 67, 0
1, 43491, Note_on_c, 0, 41, 32
1, 43491, Note_on_c, 0, 56, 43
1, 43491, Note_on_c, 0, 63, 36
1, 43493, Note_on_c, 0, 60, 51
1, 43503, Note_on_c, 0, 51, 7
1, 43517, Note_on_c, 0, 41, 0
1, 43527, Note_on_c, 0, 60, 0
1, 43530, Note_on_c, 0, 56, 0
1, 43537, Note_on_c, 0, 51, 0
1, 43547, Note_on_c, 0, 63, 0
1, 43676, Note_on_c, 0, 62, 80
1, 43676, Note_on_c, 0, 58, 79
1, 43676, Note_on_c, 0, 67, 71
1, 43677, Note_on_c, 0, 64, 75
1, 43677, Note_on_c, 0, 59, 84
1, 43682, Control_c, 0, 64, 0
1, 43741, Note_on_c, 0, 59, 0
1, 43742, Note_on_c, 0, 67, 0
1, 43742, Note_on_c, 0, 62, 0
1, 43742, Note_on_c, 0, 64, 0
1, 43744, Note_on_c, 0, 56, 31
1, 43745, Note_on_c, 0, 58, 0
1, 43796, Note_on_c, 0, 56, 0
1, 43798, Note_on_c, 0, 58, 35
1, 43800, Note_on_c, 0, 59, 32
1, 43802, Note_on_c, 0, 62, 36
1, 43803, Note_on_c, 0, 67, 26
1, 43806, Note_on_c, 0, 64, 36
1, 43808, Note_on_c, 0, 65, 26
1, 43819, Note_on_c, 0, 65, 0
1, 43859, Note_on_c, 0, 62, 0
1, 43860, Note_on_c, 0, 67, 0
1, 43860, Note_on_c, 0, 59, 0
1, 43862, Note_on_c, 0, 64, 0
1, 43863, Note_on_c, 0, 58, 0
1, 43869, Note_on_c, 1, 58, 56
1, 43870, Note_on_c, 0, 56, 25
1, 43879, Note_on_c, 1, 58, 0
1, 43924, Note_on_c, 0, 56, 0
1, 43926, Note_on_c, 0, 58, 28
1, 43929, Note_on_c, 0, 59, 24
1, 43930, Note_on_c, 0, 62, 36
1, 43930, Note_on_c, 0, 67, 25
1, 43930, Note_on_c, 1, 58, 38
1, 43932, Note_on_c, 0, 64, 36
1, 43938, Note_on_c, 1, 58, 0
1, 43957, Note_on_c, 0, 62, 0
1, 43958, Note_on_c, 0, 59, 0
1, 43964, Note_on_c, 0, 64, 0
1, 43965, Note_on_c, 0, 58, 0
1, 43967, Note_on_c, 0, 67, 0
1, 43991, Note_on_c, 1, 58, 50
1, 43995, Note_on_c, 0, 58, 33
1, 43995, Note_on_c, 0, 67, 34
1, 43997, Note_on_c, 0, 62, 48
1, 43998, Note_on_c, 0, 59, 35
1, 43998, Note_on_c, 0, 64, 39
1, 44000, Note_on_c, 1, 58, 0
1, 44007, Note_on_c, 0, 62, 0
1, 44009, Note_on_c, 0, 59, 0
1, 44009, Note_on_c, 0, 64, 0
1, 44015, Note_on_c, 0, 58, 0
1, 44018, Note_on_c, 0, 67, 0
1, 44054, Note_on_c, 1, 58, 74
1, 44068, Control_c, 0, 64, 127
1, 44074, Note_on_c, 1, 58, 0
1, 44078, Control_c, 0, 64, 0
1, 44101, Note_on_c, 0, 62, 51
1, 44103, Note_on_c, 0, 58, 35
1, 44103, Note_on_c, 0, 67, 40
1, 44106, Note_on_c, 0, 59, 31
1, 44113, Note_on_c, 1, 58, 84
1, 44114, Note_on_c, 0, 58, 0
1, 44115, Note_on_c, 0, 59, 0
1, 44121, Note_on_c, 0, 62, 0
1, 44123, Note_on_c, 0, 67, 0
1, 44163, Control_c, 0, 64, 127
1, 44215, Control_c, 0, 64, 0
1, 44220, Note_on_c, 0, 58, 37
1, 44221, Note_on_c, 0, 62, 38
1, 44222, Note_on_c, 0, 65, 37
1, 44223, Note_on_c, 0, 55, 33
1, 44228, Note_on_c, 0, 39, 31
1, 44233, Note_on_c, 0, 55, 0
1, 44246, Note_on_c, 0, 62, 0
1, 44253, Note_on_c, 0, 58, 0
1, 44261, Note_on_c, 0, 65, 0
1, 44270, Control_c, 0, 64, 127
1, 44279, Note_on_c, 0, 39, 0
1, 44280, Note_on_c, 0, 46, 38
1, 44324, Note_on_c, 0, 46, 0
1, 44329, Note_on_c, 1, 44, 0
1, 44338, Note_on_c, 0, 55, 55
1, 44355, Note_on_c, 0, 55, 0
1, 44395, Note_on_c, 0, 70, 84
1, 44395, Note_on_c, 0, 77, 77
1, 44398, Note_on_c, 0, 65, 79
1, 44398, Note_on_c, 0, 58, 59
1, 44399, Note_on_c, 0, 74, 56
1, 44436, Note_on_c, 0, 65, 0
1, 44446, Note_on_c, 0, 74, 0
1, 44448, Note_on_c, 0, 70, 0
1, 44454, Note_on_c, 0, 77, 0
1, 44457, Note_on_c, 0, 62, 38
1, 44462, Note_on_c, 1, 51, 69
1, 44483, Note_on_c, 0, 62, 0
1, 44495, Note_on_c, 1, 58, 0
1, 44518, Note_on_c, 0, 70, 58
1, 44518, Note_on_c, 0, 77, 52
1, 44520, Note_on_c, 0, 74, 41
1, 44520, Note_on_c, 0, 65, 52
1, 44520, Note_on_c, 0, 62, 34
1, 44527, Note_on_c, 0, 65, 0
1, 44533, Note_on_c, 0, 70, 0
1, 44538, Note_on_c, 0, 62, 0
1, 44540, Note_on_c, 0, 77, 0
1, 44540, Note_on_c, 0, 74, 0
1, 44584, Note_on_c, 0, 70, 40
1, 44585, Note_on_c, 0, 58, 0
1, 44585, Note_on_c, 0, 77, 40
1, 44586, Note_on_c, 0, 74, 32
1, 44599, Note_on_c, 0, 70, 0
1, 44607, Note_on_c, 0, 74, 0
1, 44616, Note_on_c, 0, 77, 0
1, 44640, Control_c, 0, 64, 0
1, 44640, Note_on_c, 0, 75, 45
1, 44643, Note_on_c, 0, 63, 36
1, 44644, Note_on_c, 0, 72, 35
1, 44646, Note_on_c, 0, 68, 32
1, 44652, Note_on_c, 0, 60, 24
1, 44666, Control_c, 0, 64, 127
1, 44693, Note_on_c, 0, 72, 0
1, 44702, Note_on_c, 0, 58, 33
1, 44704, Note_on_c, 0, 75, 0
1, 44705, Note_on_c, 1, 46, 59
1, 44708, Note_on_c, 1, 51, 0
1, 44742, Note_on_c, 0, 72, 57
1, 44761, Note_on_c, 0, 60, 0
1, 44764, Note_on_c, 0, 72, 0
1, 44773, Note_on_c, 0, 75, 67
1, 44786, Note_on_c, 0, 75, 0
1, 44796, Note_on_c, 0, 68, 0
1, 44802, Note_on_c, 0, 77, 69
1, 44828, Note_on_c, 0, 77, 0
1, 44828, Note_on_c, 0, 79, 71
1, 44833, Note_on_c, 0, 63, 0
1, 44858, Note_on_c, 0, 82, 75
1, 44861, Note_on_c, 0, 79, 0
1, 44876, Note_on_c, 0, 82, 0
1, 44889, Note_on_c, 0, 84, 81
1, 44892, Note_on_c, 0, 68, 38
1, 44892, Note_on_c, 0, 63, 36
1, 44904, Note_on_c, 0, 60, 29
1, 44909, Note_on_c, 0, 84, 0
1, 44911, Note_on_c, 0, 58, 0
1, 44918, Note_on_c, 0, 87, 71
1, 44932, Note_on_c, 0, 87, 0
1, 44946, Note_on_c, 0, 89, 72
1, 44951, Note_on_c, 1, 51, 39
1, 44964, Note_on_c, 1, 51, 0
1, 44967, Note_on_c, 0, 60, 0
1, 44972, Note_on_c, 0, 89, 0
1, 44976, Note_on_c, 0, 58, 25
1, 44978, Note_on_c, 0, 91, 45
1, 44981, Note_on_c, 0, 68, 0
1, 44992, Note_on_c, 0, 63, 0
1, 44994, Note_on_c, 0, 91, 0
1, 45002, Note_on_c, 1, 58, 78
1, 45003, Note_on_c, 0, 94, 60
1, 45004, Note_on_c, 0, 58, 0
1, 45030, Note_on_c, 0, 94, 0
1, 45036, Note_on_c, 1, 46, 0
1, 45039, Note_on_c, 0, 96, 65
1, 45058, Note_on_c, 0, 96, 0
1, 45069, Note_on_c, 0, 98, 37
1, 45078, Note_on_c, 0, 98, 0
1, 45123, Control_c, 0, 64, 0
1, 45124, Note_on_c, 0, 39, 53
1, 45129, Note_on_c, 0, 103, 57
1, 45130, Note_on_c, 0, 101, 54
1, 45130, Note_on_c, 0, 46, 35
1, 45140, Note_on_c, 0, 103, 0
1, 45141, Note_on_c, 0, 101, 0
1, 45147, Control_c, 0, 64, 127
1, 45156, Note_on_c, 0, 39, 0
1, 45185, Note_on_c, 0, 46, 0
1, 45185, Note_on_c, 1, 51, 71
1, 45192, Note_on_c, 0, 55, 49
1, 45208, Note_on_c, 1, 58, 0
1, 45238, Note_on_c, 0, 58, 30
1, 45239, Note_on_c, 0, 55, 0
1, 45297, Note_on_c, 0, 77, 53
1, 45297, Note_on_c, 0, 70, 45
1, 45298, Note_on_c, 0, 74, 39
1, 45299, Note_on_c, 0, 62, 29
1, 45302, Note_on_c, 0, 67, 36
1, 45302, Note_on_c, 0, 65, 40
1, 45353, Note_on_c, 0, 62, 0
1, 45357, Note_on_c, 0, 65, 0
1, 45380, Note_on_c, 0, 74, 0
1, 45381, Note_on_c, 0, 70, 0
1, 45381, Note_on_c, 0, 67, 0
1, 45416, Note_on_c, 0, 74, 31
1, 45417, Note_on_c, 0, 62, 40
1, 45417, Note_on_c, 0, 70, 29
1, 45418, Note_on_c, 0, 67, 31
1, 45419, Note_on_c, 0, 65, 35
1, 45423, Note_on_c, 1, 46, 62
1, 45432, Note_on_c, 1, 51, 0
1, 45452, Note_on_c, 0, 74, 0
1, 45453, Note_on_c, 0, 77, 0
1, 45454, Note_on_c, 0, 58, 0
1, 45460, Note_on_c, 0, 65, 0
1, 45460, Note_on_c, 0, 67, 0
1, 45469, Note_on_c, 0, 70, 0
1, 45498, Note_on_c, 0, 62, 0
1, 45533, Note_on_c, 0, 58, 33
1, 45546, Note_on_c, 0, 58, 0
1, 45592, Control_c, 0, 64, 0
1, 45592, Note_on_c, 0, 61, 35
1, 45594, Note_on_c, 0, 70, 44
1, 45594, Note_on_c, 0, 62, 47
1, 45595, Note_on_c, 0, 66, 49
1, 45596, Note_on_c, 0, 56, 43
1, 45642, Control_c, 0, 64, 127
1, 45653, Note_on_c, 1, 51, 44
1, 45666, Note_on_c, 1, 51, 0
1, 45713, Note_on_c, 1, 59, 71
1, 45729, Note_on_c, 0, 61, 0
1, 45730, Note_on_c, 0, 62, 0
1, 45736, Note_on_c, 0, 66, 0
1, 45737, Note_on_c, 0, 56, 0
1, 45747, Note_on_c, 0, 70, 0
1, 45785, Note_on_c, 0, 70, 42
1, 45788, Note_on_c, 0, 66, 42
1, 45788, Note_on_c, 0, 61, 33
1, 45788, Note_on_c, 0, 56, 37
1, 45792, Note_on_c, 0, 62, 36
1, 45868, Note_on_c, 0, 66, 0
1, 45870, Note_on_c, 0, 70, 0
1, 45872, Note_on_c, 0, 62, 0
1, 45888, Note_on_c, 0, 61, 0
1, 45906, Note_on_c, 1, 58, 64
1, 45908, Note_on_c, 1, 59, 0
1, 45918, Note_on_c, 0, 56, 0
1, 45955, Note_on_c, 1, 58, 0
1, 45959, Note_on_c, 0, 58, 86
1, 45965, Note_on_c, 1, 56, 46
1, 45977, Note_on_c, 1, 46, 0
1, 45983, Note_on_c, 1, 56, 0
1, 46000, Note_on_c, 0, 58, 0
1, 46022, Note_on_c, 0, 58, 67
1, 46030, Note_on_c, 1, 53, 26
1, 46038, Note_on_c, 0, 58, 0
1, 46059, Note_on_c, 1, 53, 0
1, 46080, Control_c, 0, 64, 0
1, 46081, Note_on_c, 0, 67, 73
1, 46081, Note_on_c, 0, 60, 83
1, 46082, Note_on_c, 0, 55, 78
1, 46083, Note_on_c, 0, 63, 61
1, 46083, Note_on_c, 0, 45, 65
1, 46084, Note_on_c, 1, 51, 58
1, 46116, Control_c, 0, 64, 127
1, 46192, Note_on_c, 0, 55, 0
1, 46200, Note_on_c, 0, 60, 0
1, 46203, Note_on_c, 0, 45, 0
1, 46204, Note_on_c, 0, 67, 0
1, 46214, Note_on_c, 0, 63, 0
1, 46263, Note_on_c, 1, 45, 89
1, 46266, Note_on_c, 0, 60, 68
1, 46267, Note_on_c, 0, 32, 50
1, 46267, Note_on_c, 0, 54, 62
1, 46268, Control_c, 0, 64, 0
1, 46270, Note_on_c, 0, 44, 39
1, 46271, Note_on_c, 0, 67, 37
1, 46272, Note_on_c, 0, 63, 37
1, 46274, Note_on_c, 0, 65, 37
1, 46284, Note_on_c, 1, 51, 0
1, 46300, Control_c, 0, 64, 127
1, 46312, Note_on_c, 0, 67, 0
1, 46332, Note_on_c, 1, 57, 82
1, 46333, Note_on_c, 0, 65, 0
1, 46340, Note_on_c, 1, 45, 0
1, 46347, Note_on_c, 0, 60, 0
1, 46351, Note_on_c, 0, 54, 0
1, 46353, Note_on_c, 0, 63, 0
1, 46360, Note_on_c, 0, 44, 0
1, 46362, Note_on_c, 0, 32, 0
1, 46379, Note_on_c, 1, 57, 0
1, 46394, Note_on_c, 1, 56, 82
1, 46444, Note_on_c, 0, 59, 50
1, 46445, Note_on_c, 0, 63, 43
1, 46446, Note_on_c, 0, 53, 46
1, 46450, Note_on_c, 0, 31, 42
1, 46451, Control_c, 0, 64, 0
1, 46451, Note_on_c, 0, 43, 36
1, 46501, Control_c, 0, 64, 127
1, 46508, Note_on_c, 1, 44, 65
1, 46509, Note_on_c, 1, 56, 0
1, 46514, Note_on_c, 0, 53, 0
1, 46524, Note_on_c, 0, 31, 0
1, 46527, Note_on_c, 0, 59, 0
1, 46532, Note_on_c, 0, 63, 0
1, 46545, Note_on_c, 0, 43, 0
1, 46564, Note_on_c, 1, 44, 0
1, 46570, Note_on_c, 1, 43, 60
1, 46620, Note_on_c, 0, 75, 60
1, 46663, Note_on_c, 0, 75, 0
1, 46683, Note_on_c, 0, 63, 27
1, 46684, Note_on_c, 0, 71, 36
1, 46686, Note_on_c, 0, 67, 35
1, 46686, Note_on_c, 0, 59, 36
1, 46747, Note_on_c, 1, 55, 46
1, 46754, Note_on_c, 1, 55, 0
1, 46784, Note_on_c, 0, 67, 0
1, 46795, Note_on_c, 0, 62, 28
1, 46800, Note_on_c, 0, 63, 0
1, 46807, Note_on_c, 1, 55, 54
1, 46818, Note_on_c, 0, 71, 0
1, 46851, Note_on_c, 0, 62, 0
1, 46860, Note_on_c, 0, 63, 48
1, 46866, Note_on_c, 0, 59, 0
1, 46890, Note_on_c, 0, 63, 0
1, 46917, Note_on_c, 1, 43, 0
1, 46919, Note_on_c, 0, 67, 36
1, 46932, Note_on_c, 0, 67, 0
1, 46979, Note_on_c, 1, 55, 0
1, 46980, Note_on_c, 0, 74, 79
1, 46981, Note_on_c, 1, 50, 49
1, 47021, Note_on_c, 0, 74, 0
1, 47024, Note_on_c, 1, 50, 0
1, 47036, Note_on_c, 1, 51, 55
1, 47039, Control_c, 0, 64, 0
1, 47039, Note_on_c, 0, 63, 45
1, 47040, Note_on_c, 0, 67, 41
1, 47045, Note_on_c, 0, 72, 48
1, 47049, Note_on_c, 0, 48, 24
1, 47054, Note_on_c, 0, 58, 6
1, 47063, Note_on_c, 0, 63, 0
1, 47076, Control_c, 0, 64, 127
1, 47084, Note_on_c, 0, 58, 0
1, 47093, Note_on_c, 0, 48, 0
1, 47095, Note_on_c, 0, 67, 0
1, 47103, Note_on_c, 0, 72, 0
1, 47105, Note_on_c, 0, 55, 39
1, 47157, Note_on_c, 0, 67, 32
1, 47158, Note_on_c, 0, 55, 0
1, 47159, Note_on_c, 0, 62, 30
1, 47163, Note_on_c, 0, 58, 21
1, 47163, Note_on_c, 0, 63, 25
1, 47221, Note_on_c, 0, 58, 0
1, 47310, Note_on_c, 0, 47, 45
1, 47322, Note_on_c, 0, 62, 0
1, 47327, Control_c, 0, 64, 0
1, 47345, Note_on_c, 1, 51, 0
1, 47345, Note_on_c, 1, 50, 65
1, 47347, Control_c, 0, 64, 127
1, 47348, Note_on_c, 0, 63, 0
1, 47360, Note_on_c, 1, 50, 0
1, 47373, Note_on_c, 0, 62, 52
1, 47383, Note_on_c, 0, 67, 0
1, 47396, Note_on_c, 1, 48, 57
1, 47402, Note_on_c, 0, 62, 0
1, 47434, Note_on_c, 0, 47, 0
1, 47477, Note_on_c, 0, 56, 38
1, 47480, Note_on_c, 0, 61, 50
1, 47487, Note_on_c, 0, 46, 26
1, 47495, Control_c, 0, 64, 0
1, 47523, Control_c, 0, 64, 127
1, 47530, Note_on_c, 0, 56, 0
1, 47572, Note_on_c, 0, 61, 0
1, 47594, Note_on_c, 0, 61, 47
1, 47600, Note_on_c, 0, 65, 40
1, 47602, Note_on_c, 0, 56, 21
1, 47622, Note_on_c, 0, 65, 0
1, 47622, Note_on_c, 0, 46, 0
1, 47636, Note_on_c, 0, 61, 0
1, 47653, Note_on_c, 0, 46, 20
1, 47680, Note_on_c, 0, 56, 0
1, 47700, Note_on_c, 0, 46, 0
1, 47701, Note_on_c, 1, 46, 53
1, 47712, Note_on_c, 0, 64, 40
1, 47713, Note_on_c, 0, 61, 32
1, 47713, Note_on_c, 0, 55, 36
1, 47714, Note_on_c, 0, 59, 47
1, 47716, Note_on_c, 0, 45, 33
1, 47718, Control_c, 0, 64, 0
1, 47732, Note_on_c, 1, 46, 0
1, 47742, Note_on_c, 0, 55, 0
1, 47743, Control_c, 0, 64, 127
1, 47747, Note_on_c, 0, 59, 0
1, 47754, Note_on_c, 0, 61, 0
1, 47758, Note_on_c, 0, 64, 0
1, 47760, Note_on_c, 1, 45, 57
1, 47826, Note_on_c, 0, 63, 34
1, 47826, Note_on_c, 0, 67, 34
1, 47828, Note_on_c, 0, 55, 32
1, 47839, Note_on_c, 0, 63, 0
1, 47846, Note_on_c, 0, 67, 0
1, 47860, Note_on_c, 0, 45, 0
1, 47885, Note_on_c, 0, 75, 67
1, 47902, Note_on_c, 0, 75, 0
1, 47905, Control_c, 0, 64, 0
1, 47922, Note_on_c, 1, 45, 0
1, 47934, Control_c, 0, 64, 127
1, 47940, Note_on_c, 0, 45, 32
1, 47942, Note_on_c, 0, 55, 0
1, 47946, Note_on_c, 1, 45, 59
1, 47952, Note_on_c, 0, 45, 0
1, 47976, Control_c, 0, 64, 0
1, 47983, Note_on_c, 1, 48, 0
1, 47995, Note_on_c, 1, 45, 0
1, 48001, Note_on_c, 0, 44, 37
1, 48003, Note_on_c, 1, 44, 56
1, 48016, Control_c, 0, 64, 127
1, 48050, Control_c, 0, 64, 0
1, 48057, Note_on_c, 0, 74, 49
1, 48059, Note_on_c, 0, 51, 35
1, 48060, Note_on_c, 0, 60, 47
1, 48060, Note_on_c, 0, 62, 42
1, 48062, Note_on_c, 0, 67, 25
1, 48068, Note_on_c, 0, 60, 0
1, 48069, Note_on_c, 0, 62, 0
1, 48072, Note_on_c, 0, 67, 0
1, 48078, Note_on_c, 0, 51, 0
1, 48080, Note_on_c, 0, 74, 0
1, 48082, Note_on_c, 0, 44, 0
1, 48178, Note_on_c, 0, 72, 44
1, 48182, Note_on_c, 0, 51, 38
1, 48182, Note_on_c, 0, 67, 36
1, 48182, Note_on_c, 0, 44, 39
1, 48184, Note_on_c, 0, 60, 30
1, 48186, Note_on_c, 0, 62, 29
1, 48211, Control_c, 0, 64, 127
1, 48226, Note_on_c, 0, 62, 0
1, 48227, Note_on_c, 0, 60, 0
1, 48233, Note_on_c, 0, 72, 0
1, 48236, Note_on_c, 0, 67, 0
1, 48249, Note_on_c, 0, 60, 40
1, 48251, Note_on_c, 0, 67, 22
1, 48252, Note_on_c, 0, 62, 30
1, 48252, Note_on_c, 0, 55, 46
1, 48314, Note_on_c, 0, 44, 0
1, 48322, Note_on_c, 0, 62, 0
1, 48326, Note_on_c, 0, 60, 0
1, 48358, Note_on_c, 0, 44, 52
1, 48363, Note_on_c, 1, 62, 74
1, 48364, Note_on_c, 0, 60, 44
1, 48367, Control_c, 0, 64, 0
1, 48380, Note_on_c, 0, 67, 0
1, 48406, Control_c, 0, 64, 127
1, 48416, Note_on_c, 0, 60, 0
1, 48418, Note_on_c, 0, 55, 0
1, 48421, Note_on_c, 1, 62, 0
1, 48430, Note_on_c, 1, 60, 64
1, 48448, Note_on_c, 0, 44, 0
1, 48453, Note_on_c, 0, 51, 0
1, 48474, Control_c, 0, 64, 0
1, 48475, Note_on_c, 0, 43, 54
1, 48507, Note_on_c, 1, 44, 0
1, 48545, Note_on_c, 1, 60, 0
1, 48545, Note_on_c, 1, 55, 65
1, 48546, Note_on_c, 0, 70, 70
1, 48546, Note_on_c, 0, 63, 79
1, 48549, Note_on_c, 0, 59, 62
1, 48550, Note_on_c, 0, 67, 55
1, 48550, Note_on_c, 0, 53, 64
1, 48554, Note_on_c, 0, 43, 0
1, 48555, Note_on_c, 0, 59, 0
1, 48556, Note_on_c, 0, 67, 0
1, 48557, Note_on_c, 0, 53, 0
1, 48558, Note_on_c, 0, 70, 0
1, 48559, Note_on_c, 0, 63, 0
1, 48654, Control_c, 0, 64, 127
1, 48664, Note_on_c, 1, 43, 66
1, 48666, Note_on_c, 0, 68, 53
1, 48667, Note_on_c, 1, 55, 0
1, 48668, Note_on_c, 0, 43, 32
1, 48669, Note_on_c, 0, 63, 51
1, 48672, Note_on_c, 0, 59, 44
1, 48674, Note_on_c, 0, 53, 32
1, 48702, Note_on_c, 0, 59, 0
1, 48708, Note_on_c, 0, 53, 0
1, 48713, Note_on_c, 0, 68, 0
1, 48715, Note_on_c, 0, 63, 0
1, 48726, Control_c, 0, 64, 0
1, 48731, Note_on_c, 1, 58, 86
1, 48732, Note_on_c, 0, 53, 47
1, 48733, Note_on_c, 0, 67, 57
1, 48734, Note_on_c, 0, 63, 52
1, 48737, Note_on_c, 0, 59, 49
1, 48746, Control_c, 0, 64, 127
1, 48774, Note_on_c, 0, 67, 0
1, 48788, Note_on_c, 0, 63, 0
1, 48795, Note_on_c, 0, 59, 0
1, 48804, Note_on_c, 1, 58, 0
1, 48811, Note_on_c, 1, 56, 71
1, 48829, Note_on_c, 1, 43, 0
1, 48829, Note_on_c, 0, 43, 0
1, 48836, Note_on_c, 0, 53, 0
1, 48838, Control_c, 0, 64, 0
1, 48846, Note_on_c, 0, 56, 39
1, 48847, Note_on_c, 0, 47, 41
1, 48848, Note_on_c, 0, 65, 53
1, 48848, Note_on_c, 0, 62, 40
1, 48879, Control_c, 0, 64, 127
1, 48891, Note_on_c, 0, 62, 0
1, 48899, Note_on_c, 0, 56, 0
1, 48907, Note_on_c, 1, 56, 0
1, 48910, Note_on_c, 0, 65, 0
1, 48915, Note_on_c, 1, 55, 62
1, 48934, Note_on_c, 1, 55, 0
1, 48942, Note_on_c, 1, 53, 40
1, 48945, Note_on_c, 0, 47, 0
1, 48955, Control_c, 0, 64, 0
1, 48958, Note_on_c, 0, 63, 42
1, 48960, Note_on_c, 0, 48, 48
1, 48962, Note_on_c, 1, 53, 0
1, 48963, Note_on_c, 0, 67, 31
1, 48966, Note_on_c, 0, 55, 13
1, 48985, Note_on_c, 1, 51, 56
1, 48991, Control_c, 0, 64, 127
1, 48995, Note_on_c, 0, 55, 0
1, 49020, Note_on_c, 0, 67, 0
1, 49020, Note_on_c, 0, 63, 0
1, 49029, Note_on_c, 0, 62, 65
1, 49032, Note_on_c, 0, 65, 68
1, 49042, Control_c, 0, 64, 0
1, 49061, Control_c, 0, 64, 127
1, 49102, Note_on_c, 0, 62, 0
1, 49118, Note_on_c, 0, 65, 0
1, 49123, Control_c, 0, 64, 0
1, 49129, Note_on_c, 0, 63, 64
1, 49132, Note_on_c, 1, 51, 0
1, 49132, Note_on_c, 0, 60, 71
1, 49137, Note_on_c, 0, 55, 53
1, 49145, Control_c, 0, 64, 127
1, 49156, Note_on_c, 0, 60, 0
1, 49159, Note_on_c, 1, 50, 39
1, 49182, Note_on_c, 0, 48, 0
1, 49192, Note_on_c, 0, 63, 0
1, 49192, Control_c, 0, 64, 0
1, 49195, Note_on_c, 0, 48, 15
1, 49201, Note_on_c, 0, 62, 62
1, 49202, Note_on_c, 1, 50, 0
1, 49203, Note_on_c, 0, 59, 60
1, 49208, Note_on_c, 0, 58, 37
1, 49213, Note_on_c, 0, 55, 0
1, 49215, Note_on_c, 1, 48, 51
1, 49220, Control_c, 0, 64, 127
1, 49228, Note_on_c, 0, 59, 0
1, 49265, Note_on_c, 0, 62, 0
1, 49280, Note_on_c, 0, 63, 69
1, 49281, Note_on_c, 0, 60, 68
1, 49285, Note_on_c, 0, 55, 41
1, 49286, Note_on_c, 0, 62, 36
1, 49290, Control_c, 0, 64, 0
1, 49293, Note_on_c, 0, 62, 0
1, 49316, Control_c, 0, 64, 127
1, 49327, Note_on_c, 0, 60, 0
1, 49333, Note_on_c, 0, 63, 0
1, 49339, Note_on_c, 0, 48, 0
1, 49372, Note_on_c, 0, 58, 0
1, 49395, Note_on_c, 1, 48, 0
1, 49395, Note_on_c, 1, 47, 65
1, 49404, Note_on_c, 1, 47, 0
1, 49440, Note_on_c, 0, 70, 81
1, 49440, Control_c, 0, 64, 0
1, 49440, Note_on_c, 0, 63, 73
1, 49441, Note_on_c, 0, 59, 74
1, 49443, Note_on_c, 0, 55, 0
1, 49444, Note_on_c, 0, 66, 51
1, 49445, Note_on_c, 0, 49, 48
1, 49450, Note_on_c, 0, 58, 38
1, 49462, Note_on_c, 1, 48, 47
1, 49469, Note_on_c, 1, 48, 0
1, 49476, Note_on_c, 1, 49, 55
1, 49477, Control_c, 0, 64, 127
1, 49502, Note_on_c, 0, 59, 0
1, 49509, Note_on_c, 0, 66, 0
1, 49511, Note_on_c, 0, 70, 0
1, 49511, Note_on_c, 0, 63, 0
1, 49521, Note_on_c, 0, 63, 31
1, 49521, Note_on_c, 0, 68, 67
1, 49522, Note_on_c, 0, 59, 54
1, 49523, Note_on_c, 0, 66, 33
1, 49524, Note_on_c, 0, 56, 39
1, 49532, Control_c, 0, 64, 0
1, 49534, Note_on_c, 0, 58, 0
1, 49558, Control_c, 0, 64, 127
1, 49572, Note_on_c, 0, 66, 0
1, 49596, Note_on_c, 0, 59, 0
1, 49599, Note_on_c, 0, 63, 0
1, 49603, Note_on_c, 0, 56, 0
1, 49618, Note_on_c, 0, 68, 0
1, 49633, Note_on_c, 0, 63, 48
1, 49633, Note_on_c, 0, 66, 64
1, 49633, Note_on_c, 0, 59, 49
1, 49642, Note_on_c, 0, 55, 25
1, 49642, Control_c, 0, 64, 0
1, 49678, Control_c, 0, 64, 127
1, 49712, Note_on_c, 0, 59, 0
1, 49713, Note_on_c, 0, 63, 0
1, 49727, Note_on_c, 0, 66, 0
1, 49730, Note_on_c, 0, 55, 0
1, 49746, Note_on_c, 0, 56, 38
1, 49746, Note_on_c, 0, 68, 62
1, 49746, Note_on_c, 0, 66, 39
1, 49747, Note_on_c, 0, 59, 53
1, 49748, Note_on_c, 0, 63, 48
1, 49767, Control_c, 0, 64, 0
1, 49785, Note_on_c, 0, 59, 0
1, 49790, Note_on_c, 0, 63, 0
1, 49792, Note_on_c, 0, 56, 0
1, 49799, Note_on_c, 0, 66, 0
1, 49804, Note_on_c, 0, 68, 0
1, 49805, Control_c, 0, 64, 127
1, 49805, Note_on_c, 1, 65, 59
1, 49865, Note_on_c, 0, 56, 43
1, 49891, Note_on_c, 0, 49, 0
1, 49911, Note_on_c, 0, 56, 0
1, 49981, Note_on_c, 0, 46, 48
1, 49993, Note_on_c, 1, 63, 54
1, 49996, Control_c, 0, 64, 0
1, 50002, Note_on_c, 1, 65, 0
1, 50034, Control_c, 0, 64, 127
1, 50044, Note_on_c, 0, 67, 48
1, 50049, Note_on_c, 0, 58, 57
1, 50050, Note_on_c, 0, 62, 62
1, 50057, Note_on_c, 0, 55, 17
1, 50092, Note_on_c, 0, 58, 0
1, 50093, Note_on_c, 0, 62, 0
1, 50097, Note_on_c, 0, 67, 0
1, 50104, Note_on_c, 0, 70, 67
1, 50106, Note_on_c, 1, 58, 62
1, 50115, Note_on_c, 0, 70, 0
1, 50143, Note_on_c, 0, 55, 0
1, 50145, Note_on_c, 1, 63, 0
1, 50158, Note_on_c, 1, 58, 0
1, 50162, Note_on_c, 0, 74, 80
1, 50162, Note_on_c, 0, 67, 71
1, 50164, Note_on_c, 0, 62, 71
1, 50166, Note_on_c, 0, 70, 60
1, 50166, Control_c, 0, 64, 0
1, 50166, Note_on_c, 0, 55, 51
1, 50170, Note_on_c, 0, 64, 44
1, 50170, Note_on_c, 1, 58, 71
1, 50178, Note_on_c, 0, 64, 0
1, 50184, Control_c, 0, 64, 127
1, 50202, Note_on_c, 0, 46, 0
1, 50211, Note_on_c, 0, 70, 0
1, 50219, Note_on_c, 0, 46, 31
1, 50230, Note_on_c, 1, 49, 0
1, 50234, Note_on_c, 0, 67, 0
1, 50251, Note_on_c, 0, 62, 0
1, 50282, Note_on_c, 0, 62, 41
1, 50283, Note_on_c, 0, 67, 34
1, 50285, Note_on_c, 0, 70, 23
1, 50300, Note_on_c, 0, 46, 0
1, 50308, Note_on_c, 0, 62, 0
1, 50318, Note_on_c, 0, 67, 0
1, 50330, Note_on_c, 0, 70, 0
1, 50332, Note_on_c, 0, 74, 0
1, 50336, Note_on_c, 0, 46, 37
1, 50339, Note_on_c, 1, 63, 61
1, 50348, Note_on_c, 1, 58, 0
1, 50374, Note_on_c, 0, 46, 0
1, 50394, Note_on_c, 0, 55, 0
1, 50396, Note_on_c, 0, 79, 61
1, 50396, Control_c, 0, 64, 0
1, 50397, Note_on_c, 0, 46, 37
1, 50399, Note_on_c, 0, 72, 47
1, 50424, Control_c, 0, 64, 127
1, 50439, Note_on_c, 0, 72, 0
1, 50442, Note_on_c, 0, 79, 0
1, 50456, Note_on_c, 0, 75, 50
1, 50462, Note_on_c, 0, 56, 32
1, 50462, Note_on_c, 0, 68, 35
1, 50465, Note_on_c, 0, 72, 40
1, 50466, Note_on_c, 0, 46, 0
1, 50472, Note_on_c, 1, 60, 68
1, 50474, Note_on_c, 0, 72, 0
1, 50480, Note_on_c, 0, 56, 0
1, 50490, Note_on_c, 0, 75, 0
1, 50494, Note_on_c, 0, 68, 0
1, 50519, Note_on_c, 0, 60, 40
1, 50561, Note_on_c, 1, 63, 0
1, 50573, Note_on_c, 1, 56, 58
1, 50574, Note_on_c, 0, 60, 0
1, 50576, Note_on_c, 0, 68, 38
1, 50576, Note_on_c, 0, 72, 53
1, 50576, Note_on_c, 0, 63, 35
1, 50583, Note_on_c, 0, 68, 0
1, 50587, Note_on_c, 0, 72, 0
1, 50600, Note_on_c, 1, 60, 0
1, 50619, Note_on_c, 1, 56, 0
1, 50638, Note_on_c, 1, 56, 47
1, 50643, Note_on_c, 0, 84, 71
1, 50644, Note_on_c, 0, 77, 64
1, 50702, Note_on_c, 0, 77, 0
1, 50711, Note_on_c, 0, 84, 0
1, 50721, Note_on_c, 0, 63, 0
1, 50723, Note_on_c, 0, 80, 45
1, 50730, Note_on_c, 0, 72, 22
1, 50731, Note_on_c, 0, 77, 18
1, 50744, Note_on_c, 0, 77, 0
1, 50748, Note_on_c, 0, 72, 0
1, 50759, Note_on_c, 0, 80, 0
1, 50815, Note_on_c, 0, 87, 73
1, 50825, Note_on_c, 1, 63, 79
1, 50854, Note_on_c, 0, 87, 0
1, 50880, Note_on_c, 1, 56, 0
1, 50880, Note_on_c, 0, 86, 58
1, 50882, Note_on_c, 0, 46, 39
1, 50883, Note_on_c, 0, 74, 36
1, 50886, Control_c, 0, 64, 0
1, 50894, Note_on_c, 1, 62, 68
1, 50898, Note_on_c, 1, 63, 0
1, 50919, Note_on_c, 0, 86, 0
1, 50919, Control_c, 0, 64, 127
1, 50940, Note_on_c, 0, 74, 0
1, 50944, Note_on_c, 0, 46, 0
1, 50945, Note_on_c, 0, 55, 40
1, 50959, Note_on_c, 1, 62, 0
1, 50962, Note_on_c, 0, 55, 0
1, 50967, Note_on_c, 1, 58, 59
1, 50995, Note_on_c, 0, 58, 42
1, 51042, Note_on_c, 1, 55, 69
1, 51043, Note_on_c, 1, 58, 0
1, 51056, Note_on_c, 0, 74, 43
1, 51059, Note_on_c, 0, 62, 37
1, 51060, Note_on_c, 0, 70, 37
1, 51062, Note_on_c, 0, 67, 29
1, 51096, Note_on_c, 0, 62, 0
1, 51114, Note_on_c, 1, 55, 0
1, 51128, Note_on_c, 1, 55, 57
1, 51134, Note_on_c, 0, 67, 0
1, 51167, Note_on_c, 0, 58, 0
1, 51184, Note_on_c, 0, 67, 30
1, 51185, Note_on_c, 0, 62, 35
1, 51244, Note_on_c, 0, 62, 0
1, 51245, Note_on_c, 0, 74, 0
1, 51248, Note_on_c, 0, 67, 0
1, 51254, Note_on_c, 0, 70, 0
1, 51294, Note_on_c, 0, 46, 28
1, 51304, Note_on_c, 1, 62, 53
1, 51330, Note_on_c, 0, 46, 0
1, 51359, Note_on_c, 0, 63, 46
1, 51360, Note_on_c, 1, 62, 0
1, 51363, Note_on_c, 0, 58, 32
1, 51364, Note_on_c, 0, 59, 50
1, 51365, Control_c, 0, 64, 0
1, 51370, Note_on_c, 1, 63, 67
1, 51371, Note_on_c, 1, 55, 0
1, 51382, Control_c, 0, 64, 127
1, 51438, Note_on_c, 1, 63, 0
1, 51440, Note_on_c, 1, 59, 60
1, 51449, Note_on_c, 0, 70, 70
1, 51510, Note_on_c, 0, 58, 0
1, 51511, Note_on_c, 0, 59, 0
1, 51521, Note_on_c, 0, 63, 0
1, 51523, Note_on_c, 0, 70, 0
1, 51539, Note_on_c, 1, 59, 0
1, 51547, Note_on_c, 1, 56, 51
1, 51553, Note_on_c, 0, 58, 35
1, 51555, Note_on_c, 0, 63, 40
1, 51557, Note_on_c, 0, 59, 40
1, 51596, Note_on_c, 0, 58, 0
1, 51599, Note_on_c, 0, 59, 0
1, 51601, Note_on_c, 0, 63, 0
1, 51625, Note_on_c, 0, 58, 38
1, 51626, Note_on_c, 0, 63, 46
1, 51628, Note_on_c, 0, 59, 36
1, 51656, Note_on_c, 0, 58, 0
1, 51690, Note_on_c, 0, 59, 0
1, 51753, Note_on_c, 0, 63, 0
1, 51791, Note_on_c, 0, 68, 47
1, 51793, Note_on_c, 0, 63, 36
1, 51798, Note_on_c, 1, 53, 36
1, 51805, Note_on_c, 0, 63, 0
1, 51808, Note_on_c, 0, 68, 0
1, 51815, Note_on_c, 1, 56, 0
1, 51859, Note_on_c, 0, 67, 40
1, 51860, Note_on_c, 0, 55, 43
1, 51861, Note_on_c, 0, 63, 37
1, 51861, Note_on_c, 0, 45, 34
1, 51862, Note_on_c, 0, 33, 35
1, 51862, Note_on_c, 0, 60, 37
1, 51868, Control_c, 0, 64, 0
1, 51870, Note_on_c, 1, 53, 0
1, 51906, Control_c, 0, 64, 127
1, 51925, Note_on_c, 1, 56, 63
1, 51928, Note_on_c, 1, 57, 67
1, 51934, Note_on_c, 0, 55, 0
1, 51935, Note_on_c, 0, 67, 0
1, 51945, Note_on_c, 1, 56, 0
1, 51953, Note_on_c, 0, 33, 0
1, 51955, Note_on_c, 0, 45, 0
1, 51955, Note_on_c, 0, 60, 0
1, 51961, Note_on_c, 0, 63, 0
1, 52009, Note_on_c, 1, 56, 67
1, 52014, Control_c, 0, 64, 0
1, 52015, Note_on_c, 1, 57, 0
1, 52018, Note_on_c, 0, 68, 49
1, 52020, Note_on_c, 0, 56, 40
1, 52021, Note_on_c, 0, 44, 43
1, 52021, Note_on_c, 0, 63, 37
1, 52023, Note_on_c, 0, 60, 37
1, 52023, Note_on_c, 0, 32, 39
1, 52029, Note_on_c, 0, 60, 0
1, 52032, Note_on_c, 0, 63, 0
1, 52034, Note_on_c, 0, 44, 0
1, 52034, Note_on_c, 0, 56, 0
1, 52037, Note_on_c, 0, 68, 0
1, 52037, Note_on_c, 0, 32, 0
1, 52083, Note_on_c, 1, 56, 0
1, 52084, Note_on_c, 0, 63, 50
1, 52084, Note_on_c, 0, 70, 55
1, 52086, Note_on_c, 0, 43, 40
1, 52091, Note_on_c, 0, 31, 28
1, 52092, Note_on_c, 0, 59, 28
1, 52096, Note_on_c, 1, 56, 64
1, 52099, Note_on_c, 0, 59, 0
1, 52101, Note_on_c, 0, 43, 0
1, 52102, Note_on_c, 0, 70, 0
1, 52104, Note_on_c, 0, 63, 0
1, 52104, Note_on_c, 0, 31, 0
1, 52129, Control_c, 0, 64, 127
1, 52197, Note_on_c, 1, 56, 0
1, 52198, Note_on_c, 0, 63, 39
1, 52200, Control_c, 0, 64, 0
1, 52202, Note_on_c, 0, 52, 37
1, 52203, Note_on_c, 0, 58, 43
1, 52203, Note_on_c, 0, 42, 34
1, 52205, Note_on_c, 1, 55, 66
1, 52206, Note_on_c, 0, 30, 29
1, 52246, Control_c, 0, 64, 127
1, 52311, Note_on_c, 1, 55, 0
1, 52313, Note_on_c, 0, 30, 0
1, 52322, Note_on_c, 0, 42, 0
1, 52328, Note_on_c, 1, 54, 63
1, 52330, Note_on_c, 0, 52, 0
1, 52335, Note_on_c, 0, 58, 0
1, 52395, Note_on_c, 0, 63, 0
1, 52432, Note_on_c, 0, 63, 57
1, 52435, Note_on_c, 0, 56, 49
1, 52436, Note_on_c, 0, 58, 53
1, 52437, Note_on_c, 0, 52, 53
1, 52484, Note_on_c, 0, 52, 0
1, 52522, Note_on_c, 0, 63, 0
1, 52524, Note_on_c, 0, 56, 0
1, 52526, Note_on_c, 0, 58, 0
1, 52548, Note_on_c, 0, 63, 57
1, 52551, Note_on_c, 0, 56, 56
1, 52552, Note_on_c, 0, 58, 49
1, 52553, Note_on_c, 0, 52, 53
1, 52572, Note_on_c, 0, 52, 0
1, 52600, Note_on_c, 0, 56, 0
1, 52612, Note_on_c, 1, 42, 53
1, 52619, Note_on_c, 0, 58, 0
1, 52634, Note_on_c, 1, 42, 0
1, 52670, Note_on_c, 1, 39, 42
1, 52694, Note_on_c, 1, 39, 0
1, 52729, Note_on_c, 1, 40, 54
1, 52738, Note_on_c, 0, 58, 35
1, 52751, Note_on_c, 0, 58, 0
1, 52758, Note_on_c, 0, 63, 0
1, 52772, Note_on_c, 1, 54, 0
1, 52785, Note_on_c, 1, 40, 0
1, 52794, Note_on_c, 1, 41, 56
1, 52798, Note_on_c, 0, 56, 36
1, 52798, Note_on_c, 0, 63, 35
1, 52799, Control_c, 0, 64, 0
1, 52801, Note_on_c, 0, 60, 49
1, 52803, Note_on_c, 0, 46, 29
1, 52822, Note_on_c, 0, 56, 0
1, 52835, Control_c, 0, 64, 127
1, 52846, Note_on_c, 0, 60, 0
1, 52866, Note_on_c, 0, 63, 0
1, 52868, Note_on_c, 0, 56, 35
1, 52904, Note_on_c, 0, 56, 0
1, 52979, Note_on_c, 1, 43, 43
1, 52985, Note_on_c, 0, 63, 46
1, 52990, Note_on_c, 0, 58, 33
1, 52991, Note_on_c, 0, 60, 46
1, 53002, Note_on_c, 1, 43, 0
1, 53010, Note_on_c, 0, 60, 0
1, 53026, Note_on_c, 0, 63, 0
1, 53041, Note_on_c, 1, 44, 42
1, 53047, Note_on_c, 0, 46, 0
1, 53098, Note_on_c, 0, 58, 0
1, 53102, Note_on_c, 0, 46, 40
1, 53104, Note_on_c, 0, 77, 83
1, 53118, Note_on_c, 0, 46, 0
1, 53178, Note_on_c, 1, 41, 0
1, 53207, Note_on_c, 0, 77, 0
1, 53216, Note_on_c, 1, 44, 0
1, 53216, Note_on_c, 0, 74, 41
1, 53217, Note_on_c, 1, 45, 48
1, 53222, Note_on_c, 0, 70, 39
1, 53222, Note_on_c, 0, 65, 36
1, 53223, Note_on_c, 0, 62, 34
1, 53226, Note_on_c, 0, 56, 38
1, 53245, Note_on_c, 0, 62, 0
1, 53259, Note_on_c, 0, 56, 0
1, 53265, Note_on_c, 0, 74, 0
1, 53268, Note_on_c, 1, 45, 0
1, 53278, Note_on_c, 1, 46, 42
1, 53287, Note_on_c, 0, 65, 0
1, 53290, Note_on_c, 0, 70, 0
1, 53336, Note_on_c, 0, 46, 54
1, 53373, Note_on_c, 0, 46, 0
1, 53399, Note_on_c, 0, 46, 49
1, 53452, Note_on_c, 1, 34, 53
1, 53470, Note_on_c, 0, 46, 0
1, 53500, Note_on_c, 1, 34, 0
1, 53512, Note_on_c, 0, 70, 81
1, 53514, Note_on_c, 0, 74, 71
1, 53515, Note_on_c, 0, 77, 70
1, 53515, Note_on_c, 0, 62, 60
1, 53517, Note_on_c, 0, 65, 71
1, 53518, Note_on_c, 1, 46, 0
1, 53519, Note_on_c, 1, 34, 52
1, 53546, Note_on_c, 0, 74, 0
1, 53547, Note_on_c, 0, 77, 0
1, 53552, Note_on_c, 0, 70, 0
1, 53554, Note_on_c, 0, 65, 0
1, 53571, Note_on_c, 0, 56, 50
1, 53579, Note_on_c, 0, 62, 0
1, 53595, Note_on_c, 0, 56, 0
1, 53632, Note_on_c, 0, 74, 40
1, 53632, Note_on_c, 0, 70, 43
1, 53635, Note_on_c, 0, 62, 40
1, 53640, Note_on_c, 0, 67, 24
1, 53646, Note_on_c, 0, 62, 0
1, 53648, Note_on_c, 0, 67, 0
1, 53652, Note_on_c, 0, 74, 0
1, 53654, Note_on_c, 0, 70, 0
1, 53694, Note_on_c, 0, 46, 38
1, 53750, Note_on_c, 0, 46, 0
1, 53756, Control_c, 0, 64, 0
1, 53757, Note_on_c, 0, 70, 39
1, 53758, Note_on_c, 0, 65, 43
1, 53759, Note_on_c, 0, 60, 40
1, 53759, Note_on_c, 0, 39, 45
1, 53773, Note_on_c, 0, 60, 0
1, 53782, Note_on_c, 0, 65, 0
1, 53788, Control_c, 0, 64, 127
1, 53798, Note_on_c, 0, 70, 0
1, 53816, Note_on_c, 0, 39, 0
1, 53816, Note_on_c, 1, 46, 46
1, 53818, Note_on_c, 0, 46, 34
1, 53826, Note_on_c, 1, 46, 0
1, 53846, Note_on_c, 0, 46, 0
1, 53878, Note_on_c, 1, 46, 57
1, 53934, Note_on_c, 0, 77, 58
1, 53934, Note_on_c, 0, 84, 58
1, 53936, Note_on_c, 0, 72, 46
1, 53938, Note_on_c, 0, 74, 44
1, 53938, Note_on_c, 0, 58, 42
1, 53954, Note_on_c, 0, 74, 0
1, 53956, Note_on_c, 0, 84, 0
1, 53959, Note_on_c, 0, 72, 0
1, 53960, Note_on_c, 0, 77, 0
1, 54015, Note_on_c, 1, 34, 0
1, 54045, Note_on_c, 0, 67, 22
1, 54047, Note_on_c, 0, 82, 53
1, 54049, Note_on_c, 0, 77, 35
1, 54050, Note_on_c, 0, 72, 40
1, 54052, Note_on_c, 1, 34, 59
1, 54071, Note_on_c, 0, 82, 0
1, 54072, Note_on_c, 0, 77, 0
1, 54074, Note_on_c, 0, 72, 0
1, 54078, Note_on_c, 0, 67, 0
1, 54159, Note_on_c, 0, 77, 47
1, 54159, Note_on_c, 0, 72, 55
1, 54161, Note_on_c, 0, 62, 24
1, 54162, Note_on_c, 0, 67, 36
1, 54179, Note_on_c, 0, 67, 0
1, 54179, Note_on_c, 0, 77, 0
1, 54179, Note_on_c, 0, 72, 0
1, 54184, Note_on_c, 0, 62, 0
1, 54229, Note_on_c, 0, 58, 0
1, 54234, Note_on_c, 0, 75, 36
1, 54234, Note_on_c, 0, 60, 34
1, 54236, Note_on_c, 0, 70, 31
1, 54240, Note_on_c, 0, 65, 29
1, 54268, Note_on_c, 0, 58, 1
1, 54273, Note_on_c, 0, 65, 0
1, 54276, Note_on_c, 1, 46, 0
1, 54279, Note_on_c, 0, 70, 0
1, 54296, Note_on_c, 0, 60, 0
1, 54297, Note_on_c, 0, 75, 0
1, 54305, Note_on_c, 0, 62, 45
1, 54306, Note_on_c, 0, 77, 50
1, 54306, Note_on_c, 0, 72, 55
1, 54307, Note_on_c, 0, 67, 44
1, 54309, Control_c, 0, 64, 0
1, 54312, Note_on_c, 0, 62, 0
1, 54313, Note_on_c, 0, 72, 0
1, 54314, Note_on_c, 0, 77, 0
1, 54316, Note_on_c, 0, 67, 0
1, 54327, Note_on_c, 0, 58, 0
1, 54348, Note_on_c, 1, 46, 91
1, 54349, Control_c, 0, 64, 127
1, 54384, Control_c, 0, 64, 0
1, 54405, Control_c, 0, 64, 127
1, 54412, Note_on_c, 0, 74, 47
1, 54414, Note_on_c, 0, 70, 44
1, 54418, Note_on_c, 0, 55, 43
1, 54422, Note_on_c, 1, 34, 0
1, 54423, Note_on_c, 0, 70, 0
1, 54423, Note_on_c, 0, 74, 0
1, 54466, Note_on_c, 0, 55, 0
1, 54469, Control_c, 0, 64, 0
1, 54475, Note_on_c, 0, 51, 34
1, 54476, Note_on_c, 0, 70, 44
1, 54482, Note_on_c, 0, 65, 34
1, 54499, Control_c, 0, 64, 127
1, 54519, Note_on_c, 0, 65, 0
1, 54524, Pitch_bend_c, 1, 8192
1, 54527, Pitch_bend_c, 1, 8192
1, 54529, Note_on_c, 0, 70, 0
1, 54529, Pitch_bend_c, 1, 8192
1, 54532, Pitch_bend_c, 1, 8712
1, 54533, Pitch_bend_c, 1, 8842
1, 54534, Pitch_bend_c, 1, 9102
1, 54536, Pitch_bend_c, 1, 9232
1, 54537, Pitch_bend_c, 1, 9362
1, 54539, Pitch_bend_c, 1, 9622
1, 54539, Pitch_bend_c, 1, 9752
1, 54541, Note_on_c, 0, 72, 50
1, 54542, Pitch_bend_c, 1, 9882
1, 54544, Pitch_bend_c, 1, 10012
1, 54546, Control_c, 0, 64, 0
1, 54548, Note_on_c, 0, 72, 0
1, 54551, Note_on_c, 0, 55, 29
1, 54556, Pitch_bend_c, 1, 9882
1, 54558, Note_on_c, 0, 55, 0
1, 54558, Note_on_c, 0, 51, 0
1, 54558, Pitch_bend_c, 1, 9752
1, 54559, Pitch_bend_c, 1, 9622
1, 54561, Pitch_bend_c, 1, 9492
1, 54563, Pitch_bend_c, 1, 9232
1, 54564, Pitch_bend_c, 1, 9102
1, 54566, Pitch_bend_c, 1, 8842
1, 54567, Pitch_bend_c, 1, 8192
1, 54568, Pitch_bend_c, 1, 8192
1, 54568, Pitch_bend_c, 1, 8192
1, 54569, Pitch_bend_c, 1, 8192
1, 54586, Control_c, 0, 64, 127
1, 54605, Pitch_bend_c, 1, 8192
1, 54606, Pitch_bend_c, 1, 8192
1, 54608, Pitch_bend_c, 1, 8712
1, 54609, Pitch_bend_c, 1, 9232
1, 54610, Pitch_bend_c, 1, 9492
1, 54612, Pitch_bend_c, 1, 9882
1, 54613, Pitch_bend_c, 1, 10142
1, 54614, Pitch_bend_c, 1, 10532
1, 54616, Pitch_bend_c, 1, 10792
1, 54618, Pitch_bend_c, 1, 10922
1, 54619, Pitch_bend_c, 1, 11312
1, 54620, Pitch_bend_c, 1, 11442
1, 54624, Pitch_bend_c, 1, 11572
1, 54631, Pitch_bend_c, 1, 11052
1, 54631, Pitch_bend_c, 1, 11312
1, 54634, Pitch_bend_c, 1, 10922
1, 54635, Pitch_bend_c, 1, 10662
1, 54636, Pitch_bend_c, 1, 10402
1, 54638, Pitch_bend_c, 1, 10142
1, 54639, Pitch_bend_c, 1, 9882
1, 54641, Pitch_bend_c, 1, 9622
1, 54642, Pitch_bend_c, 1, 9232
1, 54644, Pitch_bend_c, 1, 8972
1, 54645, Pitch_bend_c, 1, 8712
1, 54646, Pitch_bend_c, 1, 8192
1, 54647, Pitch_bend_c, 1, 8192
1, 54654, Note_on_c, 0, 51, 47
1, 54667, Pitch_bend_c, 1, 8192
1, 54670, Pitch_bend_c, 1, 8712
1, 54671, Pitch_bend_c, 1, 8972
1, 54672, Pitch_bend_c, 1, 9362
1, 54673, Pitch_bend_c, 1, 9622
1, 54675, Pitch_bend_c, 1, 9882
1, 54677, Pitch_bend_c, 1, 10142
1, 54678, Pitch_bend_c, 1, 10402
1, 54680, Pitch_bend_c, 1, 10532
1, 54681, Pitch_bend_c, 1, 10662
1, 54690, Pitch_bend_c, 1, 10142
1, 54691, Pitch_bend_c, 1, 9102
1, 54693, Pitch_bend_c, 1, 8192
1, 54694, Control_c, 0, 64, 0
1, 54703, Note_on_c, 0, 51, 0
1, 54715, Note_on_c, 0, 45, 33
1, 54716, Note_on_c, 0, 63, 34
1, 54718, Control_c, 0, 64, 127
1, 54718, Note_on_c, 0, 55, 33
1, 54720, Note_on_c, 0, 60, 41
1, 54730, Note_on_c, 0, 55, 0
1, 54743, Note_on_c, 0, 60, 0
1, 54759, Note_on_c, 0, 63, 0
1, 54775, Note_on_c, 0, 45, 0
1, 54781, Note_on_c, 0, 55, 50
1, 54789, Note_on_c, 0, 55, 0
1, 54832, Note_on_c, 1, 38, 80
1, 54835, Note_on_c, 0, 72, 80
1, 54839, Note_on_c, 0, 67, 64
1, 54840, Note_on_c, 0, 60, 59
1, 54847, Note_on_c, 1, 46, 0
1, 54863, Note_on_c, 0, 67, 0
1, 54888, Note_on_c, 0, 72, 0
1, 54900, Note_on_c, 0, 75, 86
1, 54901, Note_on_c, 0, 72, 80
1, 54903, Note_on_c, 0, 67, 74
1, 54939, Note_on_c, 0, 67, 0
1, 54945, Note_on_c, 0, 72, 0
1, 54951, Note_on_c, 0, 75, 0
1, 54957, Note_on_c, 0, 62, 82
1, 54958, Note_on_c, 0, 72, 90
1, 54958, Note_on_c, 0, 67, 76
1, 54960, Note_on_c, 0, 77, 81
1, 54963, Note_on_c, 0, 60, 0
1, 54964, Note_on_c, 0, 75, 52
1, 54966, Control_c, 0, 64, 0
1, 54971, Note_on_c, 0, 75, 0
1, 54972, Control_c, 0, 64, 127
1, 55012, Note_on_c, 0, 67, 0
1, 55013, Note_on_c, 0, 77, 0
1, 55013, Note_on_c, 1, 50, 74
1, 55020, Note_on_c, 0, 75, 65
1, 55020, Note_on_c, 0, 67, 31
1, 55025, Note_on_c, 0, 60, 50
1, 55028, Note_on_c, 0, 62, 0
1, 55052, Note_on_c, 0, 67, 0
1, 55060, Note_on_c, 0, 72, 0
1, 55060, Note_on_c, 0, 60, 0
1, 55074, Note_on_c, 0, 72, 20
1, 55080, Note_on_c, 0, 67, 35
1, 55084, Note_on_c, 0, 72, 0
1, 55090, Note_on_c, 0, 75, 0
1, 55096, Note_on_c, 0, 67, 0
1, 55141, Note_on_c, 0, 51, 34
1, 55159, Note_on_c, 1, 38, 0
1, 55167, Note_on_c, 0, 51, 0
1, 55196, Note_on_c, 0, 60, 55
1, 55198, Note_on_c, 0, 68, 39
1, 55199, Note_on_c, 0, 64, 54
1, 55201, Control_c, 0, 64, 0
1, 55201, Note_on_c, 0, 74, 44
1, 55204, Note_on_c, 0, 71, 33
1, 55207, Note_on_c, 0, 50, 34
1, 55229, Control_c, 0, 64, 127
1, 55244, Note_on_c, 0, 60, 0
1, 55269, Note_on_c, 0, 59, 55
1, 55303, Note_on_c, 0, 59, 0
1, 55307, Control_c, 0, 64, 0
1, 55323, Note_on_c, 0, 58, 40
1, 55364, Note_on_c, 0, 58, 0
1, 55374, Control_c, 0, 64, 127
1, 55375, Note_on_c, 0, 71, 0
1, 55382, Note_on_c, 0, 57, 47
1, 55385, Note_on_c, 0, 68, 0
1, 55395, Note_on_c, 0, 57, 0
1, 55397, Note_on_c, 0, 64, 0
1, 55436, Control_c, 0, 64, 0
1, 55438, Note_on_c, 0, 57, 43
1, 55440, Note_on_c, 0, 66, 57
1, 55440, Note_on_c, 0, 69, 53
1, 55441, Note_on_c, 0, 64, 33
1, 55452, Note_on_c, 0, 74, 0
1, 55465, Control_c, 0, 64, 127
1, 55500, Note_on_c, 0, 50, 0
1, 55504, Note_on_c, 0, 57, 0
1, 55516, Note_on_c, 0, 64, 0
1, 55524, Note_on_c, 0, 66, 0
1, 55558, Note_on_c, 0, 66, 54
1, 55564, Note_on_c, 0, 54, 33
1, 55567, Note_on_c, 0, 62, 31
1, 55568, Note_on_c, 0, 69, 0
1, 55587, Note_on_c, 0, 66, 0
1, 55593, Note_on_c, 0, 62, 0
1, 55621, Note_on_c, 0, 54, 0
1, 55625, Note_on_c, 1, 42, 67
1, 55626, Note_on_c, 0, 50, 26
1, 55644, Note_on_c, 1, 50, 0
1, 55671, Note_on_c, 0, 50, 0
1, 55674, Note_on_c, 1, 42, 0
1, 55676, Note_on_c, 0, 62, 40
1, 55678, Control_c, 0, 64, 0
1, 55678, Note_on_c, 0, 57, 33
1, 55679, Note_on_c, 0, 54, 33
1, 55679, Note_on_c, 0, 59, 33
1, 55682, Note_on_c, 0, 43, 36
1, 55682, Note_on_c, 1, 43, 53
1, 55702, Control_c, 0, 64, 127
1, 55706, Note_on_c, 0, 57, 0
1, 55713, Note_on_c, 0, 59, 0
1, 55721, Note_on_c, 0, 62, 0
1, 55767, Note_on_c, 0, 59, 50
1, 55775, Note_on_c, 0, 59, 0
1, 55790, Control_c, 0, 64, 0
1, 55803, Note_on_c, 0, 62, 82
1, 55836, Note_on_c, 0, 62, 0
1, 55838, Note_on_c, 0, 66, 70
1, 55842, Note_on_c, 0, 54, 0
1, 55849, Note_on_c, 0, 66, 0
1, 55868, Note_on_c, 0, 71, 74
1, 55882, Note_on_c, 0, 71, 0
1, 55887, Control_c, 0, 64, 127
1, 55896, Note_on_c, 0, 74, 78
1, 55909, Note_on_c, 1, 43, 0
1, 55913, Note_on_c, 0, 74, 0
1, 55916, Note_on_c, 1, 42, 67
1, 55925, Note_on_c, 0, 78, 82
1, 55931, Control_c, 0, 64, 0
1, 55937, Note_on_c, 0, 54, 28
1, 55944, Note_on_c, 0, 50, 24
1, 55946, Note_on_c, 0, 78, 0
1, 55949, Note_on_c, 0, 43, 0
1, 55957, Note_on_c, 0, 50, 0
1, 55962, Note_on_c, 0, 54, 0
1, 55972, Control_c, 0, 64, 127
1, 55973, Note_on_c, 0, 79, 74
1, 55998, Note_on_c, 0, 79, 0
1, 56007, Control_c, 0, 64, 0
1, 56024, Note_on_c, 0, 81, 85
1, 56047, Note_on_c, 0, 81, 0
1, 56059, Control_c, 0, 64, 127
1, 56071, Note_on_c, 0, 78, 67
1, 56091, Note_on_c, 0, 78, 0
1, 56104, Note_on_c, 0, 79, 75
1, 56124, Note_on_c, 0, 79, 0
1, 56141, Note_on_c, 0, 81, 90
1, 56153, Note_on_c, 1, 40, 62
1, 56155, Note_on_c, 1, 42, 0
1, 56164, Control_c, 0, 64, 0
1, 56165, Note_on_c, 0, 81, 0
1, 56170, Note_on_c, 0, 40, 42
1, 56173, Note_on_c, 0, 47, 39
1, 56173, Note_on_c, 0, 55, 36
1, 56178, Note_on_c, 0, 79, 64
1, 56192, Note_on_c, 0, 40, 0
1, 56196, Control_c, 0, 64, 127
1, 56197, Note_on_c, 0, 47, 0
1, 56208, Note_on_c, 0, 55, 0
1, 56211, Note_on_c, 0, 79, 0
1, 56228, Note_on_c, 0, 75, 51
1, 56236, Note_on_c, 0, 75, 0
1, 56236, Note_on_c, 0, 76, 55
1, 56274, Note_on_c, 0, 76, 0
1, 56280, Note_on_c, 0, 71, 45
1, 56314, Note_on_c, 0, 71, 0
1, 56338, Note_on_c, 0, 69, 49
1, 56382, Note_on_c, 0, 69, 0
1, 56387, Note_on_c, 1, 47, 77
1, 56396, Note_on_c, 1, 40, 0
1, 56398, Note_on_c, 0, 62, 31
1, 56398, Note_on_c, 0, 67, 37
1, 56403, Note_on_c, 0, 52, 35
1, 56405, Note_on_c, 0, 59, 16
1, 56410, Control_c, 0, 64, 0
1, 56410, Note_on_c, 0, 55, 22
1, 56426, Control_c, 0, 64, 127
1, 56460, Note_on_c, 0, 62, 0
1, 56464, Note_on_c, 0, 59, 0
1, 56488, Note_on_c, 0, 67, 0
1, 56490, Note_on_c, 0, 55, 0
1, 56494, Note_on_c, 0, 52, 0
1, 56514, Note_on_c, 0, 64, 48
1, 56538, Note_on_c, 0, 64, 0
1, 56578, Note_on_c, 0, 52, 34
1, 56624, Note_on_c, 1, 47, 0
1, 56630, Note_on_c, 0, 45, 47
1, 56631, Control_c, 0, 64, 0
1, 56631, Note_on_c, 1, 45, 64
1, 56633, Note_on_c, 0, 74, 73
1, 56649, Note_on_c, 0, 45, 0
1, 56649, Control_c, 0, 64, 127
1, 56656, Note_on_c, 0, 52, 0
1, 56673, Note_on_c, 0, 74, 0
1, 56705, Note_on_c, 0, 71, 62
1, 56726, Note_on_c, 0, 71, 0
1, 56734, Note_on_c, 0, 72, 66
1, 56763, Note_on_c, 0, 76, 62
1, 56764, Note_on_c, 0, 72, 0
1, 56780, Note_on_c, 0, 76, 0
1, 56788, Note_on_c, 0, 79, 61
1, 56795, Note_on_c, 0, 79, 0
1, 56816, Note_on_c, 0, 83, 75
1, 56834, Note_on_c, 0, 83, 0
1, 56848, Note_on_c, 0, 74, 66
1, 56848, Note_on_c, 0, 86, 73
1, 56848, Note_on_c, 0, 88, 87
1, 56848, Note_on_c, 0, 76, 74
1, 56861, Note_on_c, 0, 88, 0
1, 56864, Note_on_c, 0, 76, 0
1, 56865, Note_on_c, 0, 74, 0
1, 56866, Note_on_c, 1, 52, 64
1, 56868, Note_on_c, 0, 86, 0
1, 56869, Note_on_c, 1, 45, 0
1, 56883, Note_on_c, 0, 86, 71
1, 56884, Note_on_c, 0, 74, 60
1, 56886, Note_on_c, 0, 64, 33
1, 56888, Note_on_c, 0, 60, 44
1, 56892, Note_on_c, 0, 59, 34
1, 56893, Note_on_c, 0, 55, 36
1, 56895, Control_c, 0, 64, 0
1, 56911, Note_on_c, 0, 86, 0
1, 56917, Note_on_c, 0, 74, 0
1, 56940, Note_on_c, 0, 86, 70
1, 56943, Note_on_c, 0, 74, 43
1, 56957, Note_on_c, 0, 86, 0
1, 56959, Note_on_c, 0, 74, 0
1, 56996, Control_c, 0, 64, 127
1, 56996, Note_on_c, 0, 86, 71
1, 56999, Note_on_c, 0, 74, 50
1, 57010, Note_on_c, 0, 55, 0
1, 57015, Note_on_c, 0, 74, 0
1, 57035, Note_on_c, 0, 86, 0
1, 57040, Control_c, 0, 64, 0
1, 57044, Control_c, 0, 64, 127
1, 57055, Note_on_c, 0, 83, 65
1, 57057, Note_on_c, 0, 55, 40
1, 57063, Note_on_c, 0, 83, 0
1, 57069, Note_on_c, 0, 59, 0
1, 57074, Note_on_c, 0, 55, 0
1, 57088, Note_on_c, 0, 64, 0
1, 57091, Note_on_c, 0, 60, 0
1, 57106, Note_on_c, 1, 38, 51
1, 57107, Note_on_c, 1, 52, 0
1, 57112, Control_c, 0, 64, 0
1, 57118, Note_on_c, 0, 89, 77
1, 57118, Note_on_c, 0, 82, 70
1, 57119, Note_on_c, 0, 65, 60
1, 57119, Note_on_c, 0, 86, 59
1, 57119, Note_on_c, 0, 54, 52
1, 57120, Note_on_c, 0, 60, 51
1, 57121, Note_on_c, 0, 77, 57
1, 57121, Note_on_c, 0, 58, 50
1, 57144, Control_c, 0, 64, 127
1, 57160, Note_on_c, 0, 86, 0
1, 57162, Note_on_c, 0, 89, 0
1, 57163, Note_on_c, 0, 77, 0
1, 57168, Note_on_c, 0, 82, 0
1, 57187, Note_on_c, 0, 74, 57
1, 57187, Note_on_c, 0, 86, 60
1, 57196, Note_on_c, 0, 65, 0
1, 57204, Note_on_c, 0, 74, 0
1, 57204, Note_on_c, 0, 86, 0
1, 57205, Note_on_c, 0, 60, 0
1, 57210, Note_on_c, 0, 58, 0
1, 57218, Note_on_c, 0, 54, 0
1, 57303, Note_on_c, 0, 50, 47
1, 57306, Control_c, 0, 64, 0
1, 57344, Control_c, 0, 64, 127
1, 57352, Note_on_c, 1, 50, 64
1, 57358, Note_on_c, 0, 65, 59
1, 57360, Note_on_c, 0, 70, 42
1, 57361, Note_on_c, 0, 62, 48
1, 57363, Note_on_c, 0, 74, 36
1, 57363, Note_on_c, 0, 77, 34
1, 57373, Note_on_c, 0, 65, 0
1, 57380, Note_on_c, 1, 38, 0
1, 57385, Note_on_c, 0, 65, 14
1, 57424, Note_on_c, 0, 74, 0
1, 57429, Note_on_c, 0, 62, 0
1, 57433, Note_on_c, 0, 65, 0
1, 57436, Note_on_c, 0, 70, 0
1, 57454, Note_on_c, 0, 77, 0
1, 57476, Note_on_c, 0, 74, 27
1, 57479, Note_on_c, 0, 62, 30
1, 57481, Note_on_c, 0, 70, 36
1, 57482, Note_on_c, 0, 65, 26
1, 57483, Note_on_c, 0, 57, 34
1, 57486, Note_on_c, 0, 62, 0
1, 57488, Note_on_c, 0, 74, 0
1, 57494, Note_on_c, 0, 50, 0
1, 57495, Note_on_c, 0, 65, 0
1, 57498, Note_on_c, 0, 70, 0
1, 57502, Note_on_c, 0, 57, 0
1, 57541, Note_on_c, 0, 50, 55
1, 57545, Note_on_c, 1, 50, 0
1, 57545, Note_on_c, 1, 48, 57
1, 57553, Note_on_c, 0, 50, 0
1, 57590, Note_on_c, 1, 48, 0
1, 57597, Control_c, 0, 64, 0
1, 57598, Note_on_c, 0, 62, 51
1, 57598, Note_on_c, 0, 69, 51
1, 57599, Note_on_c, 0, 66, 45
1, 57602, Note_on_c, 0, 47, 44
1, 57603, Note_on_c, 0, 57, 33
1, 57604, Note_on_c, 1, 47, 48
1, 57627, Control_c, 0, 64, 127
1, 57635, Note_on_c, 0, 57, 0
1, 57656, Note_on_c, 0, 69, 0
1, 57661, Note_on_c, 0, 62, 0
1, 57668, Note_on_c, 0, 66, 0
1, 57675, Note_on_c, 0, 57, 40
1, 57703, Note_on_c, 0, 57, 0
1, 57721, Note_on_c, 0, 59, 55
1, 57751, Note_on_c, 0, 59, 0
1, 57764, Note_on_c, 0, 61, 77
1, 57792, Control_c, 0, 64, 0
1, 57799, Note_on_c, 0, 61, 0
1, 57806, Note_on_c, 0, 62, 74
1, 57808, Note_on_c, 0, 57, 41
1, 57840, Note_on_c, 0, 62, 0
1, 57852, Note_on_c, 0, 63, 56
1, 57868, Note_on_c, 0, 47, 0
1, 57876, Note_on_c, 0, 63, 0
1, 57892, Note_on_c, 0, 64, 65
1, 57914, Note_on_c, 0, 64, 0
1, 57929, Note_on_c, 0, 66, 64
1, 57933, Note_on_c, 0, 47, 36
1, 57944, Note_on_c, 1, 47, 0
1, 57950, Note_on_c, 1, 35, 62
1, 57955, Note_on_c, 0, 66, 0
1, 57968, Control_c, 0, 64, 127
1, 57968, Note_on_c, 0, 67, 52
1, 57972, Note_on_c, 0, 47, 0
1, 57973, Note_on_c, 0, 57, 0
1, 57991, Note_on_c, 0, 67, 0
1, 58005, Note_on_c, 0, 69, 64
1, 58032, Note_on_c, 0, 69, 0
1, 58040, Control_c, 0, 64, 0
1, 58044, Note_on_c, 0, 70, 68
1, 58052, Note_on_c, 0, 46, 30
1, 58066, Note_on_c, 0, 46, 0
1, 58066, Note_on_c, 0, 70, 0
1, 58070, Control_c, 0, 64, 127
1, 58082, Note_on_c, 0, 72, 59
1, 58103, Note_on_c, 0, 72, 0
1, 58116, Control_c, 0, 64, 0
1, 58117, Note_on_c, 0, 73, 51
1, 58137, Note_on_c, 0, 73, 0
1, 58150, Note_on_c, 0, 75, 67
1, 58151, Note_on_c, 0, 61, 48
1, 58156, Note_on_c, 0, 58, 33
1, 58158, Note_on_c, 0, 64, 27
1, 58165, Note_on_c, 0, 55, 24
1, 58177, Note_on_c, 0, 75, 0
1, 58182, Control_c, 0, 64, 127
1, 58188, Note_on_c, 1, 35, 0
1, 58192, Note_on_c, 0, 76, 45
1, 58198, Note_on_c, 1, 34, 63
1, 58210, Note_on_c, 0, 64, 0
1, 58211, Note_on_c, 0, 76, 0
1, 58215, Note_on_c, 0, 55, 0
1, 58220, Note_on_c, 0, 61, 0
1, 58223, Control_c, 0, 64, 0
1, 58225, Note_on_c, 0, 58, 0
1, 58226, Note_on_c, 0, 78, 57
1, 58247, Note_on_c, 0, 78, 0
1, 58260, Note_on_c, 0, 79, 64
1, 58271, Control_c, 0, 64, 127
1, 58279, Note_on_c, 0, 79, 0
1, 58293, Note_on_c, 0, 81, 68
1, 58311, Note_on_c, 0, 81, 0
1, 58320, Control_c, 0, 64, 0
1, 58325, Note_on_c, 0, 82, 71
1, 58328, Note_on_c, 0, 61, 47
1, 58329, Note_on_c, 0, 58, 40
1, 58332, Note_on_c, 0, 52, 37
1, 58345, Note_on_c, 0, 82, 0
1, 58353, Note_on_c, 0, 61, 0
1, 58354, Note_on_c, 0, 52, 0
1, 58357, Control_c, 0, 64, 127
1, 58360, Note_on_c, 0, 84, 50
1, 58364, Note_on_c, 0, 58, 0
1, 58370, Note_on_c, 0, 84, 0
1, 58385, Note_on_c, 0, 85, 72
1, 58406, Note_on_c, 0, 85, 0
1, 58416, Note_on_c, 0, 87, 67
1, 58419, Control_c, 0, 64, 0
1, 58425, Note_on_c, 0, 46, 37
1, 58428, Note_on_c, 1, 34, 0
1, 58428, Note_on_c, 0, 56, 19
1, 58430, Note_on_c, 1, 46, 83
1, 58434, Note_on_c, 0, 87, 0
1, 58444, Note_on_c, 0, 88, 62
1, 58447, Control_c, 0, 64, 127
1, 58465, Note_on_c, 0, 88, 0
1, 58470, Note_on_c, 0, 89, 48
1, 58477, Note_on_c, 0, 56, 0
1, 58487, Note_on_c, 0, 46, 0
1, 58487, Note_on_c, 0, 89, 0
1, 58496, Note_on_c, 0, 90, 60
1, 58511, Note_on_c, 0, 90, 0
1, 58526, Note_on_c, 0, 91, 51
1, 58539, Note_on_c, 0, 91, 0
1, 58548, Note_on_c, 1, 46, 0
1, 58549, Note_on_c, 0, 95, 60
1, 58554, Note_on_c, 1, 45, 64
1, 58556, Control_c, 0, 64, 0
1, 58564, Note_on_c, 0, 95, 0
1, 58564, Note_on_c, 0, 55, 31
1, 58565, Note_on_c, 0, 45, 27
1, 58567, Note_on_c, 0, 52, 1
1, 58575, Note_on_c, 0, 98, 82
1, 58578, Note_on_c, 0, 86, 69
1, 58582, Control_c, 0, 64, 127
1, 58586, Note_on_c, 0, 45, 0
1, 58590, Note_on_c, 0, 52, 0
1, 58602, Note_on_c, 0, 55, 0
1, 58626, Note_on_c, 0, 86, 0
1, 58628, Note_on_c, 0, 98, 0
1, 58629, Note_on_c, 0, 95, 67
1, 58657, Note_on_c, 0, 95, 0
1, 58681, Note_on_c, 0, 91, 58
1, 58708, Note_on_c, 0, 91, 0
1, 58739, Note_on_c, 0, 86, 47
1, 58749, Note_on_c, 0, 86, 0
1, 58792, Note_on_c, 0, 95, 60
1, 58792, Note_on_c, 0, 91, 50
1, 58793, Note_on_c, 0, 86, 43
1, 58795, Note_on_c, 0, 64, 37
1, 58802, Note_on_c, 0, 64, 0
1, 58804, Note_on_c, 0, 86, 0
1, 58807, Note_on_c, 0, 91, 0
1, 58810, Note_on_c, 0, 95, 0
1, 58849, Note_on_c, 1, 45, 0
1, 58850, Note_on_c, 1, 40, 53
1, 58860, Note_on_c, 1, 40, 0
1, 58860, Note_on_c, 0, 52, 55
1, 58861, Note_on_c, 0, 51, 45
1, 58866, Control_c, 0, 64, 0
1, 58870, Note_on_c, 0, 51, 0
1, 58912, Note_on_c, 1, 39, 50
1, 58920, Control_c, 0, 64, 127
1, 58946, Note_on_c, 0, 52, 0
1, 58969, Note_on_c, 0, 51, 65
1, 58973, Note_on_c, 0, 39, 49
1, 59007, Note_on_c, 0, 51, 0
1, 59011, Note_on_c, 0, 39, 0
1, 59025, Control_c, 0, 64, 0
1, 59032, Note_on_c, 0, 50, 53
1, 59034, Note_on_c, 0, 38, 51
1, 59047, Note_on_c, 0, 38, 0
1, 59056, Note_on_c, 0, 98, 54
1, 59057, Note_on_c, 0, 50, 0
1, 59073, Note_on_c, 0, 99, 72
1, 59076, Note_on_c, 0, 98, 0
1, 59092, Note_on_c, 0, 98, 51
1, 59094, Note_on_c, 1, 39, 0
1, 59096, Note_on_c, 1, 38, 57
1, 59107, Note_on_c, 0, 99, 0
1, 59108, Note_on_c, 0, 97, 52
1, 59114, Note_on_c, 0, 98, 0
1, 59122, Note_on_c, 0, 97, 0
1, 59125, Note_on_c, 0, 96, 42
1, 59132, Note_on_c, 0, 96, 0
1, 59151, Note_on_c, 0, 94, 61
1, 59156, Note_on_c, 1, 54, 85
1, 59162, Note_on_c, 0, 92, 48
1, 59182, Note_on_c, 0, 94, 0
1, 59186, Note_on_c, 0, 90, 45
1, 59193, Note_on_c, 0, 92, 0
1, 59207, Note_on_c, 0, 90, 0
1, 59212, Note_on_c, 0, 88, 45
1, 59213, Control_c, 0, 64, 127
1, 59219, Note_on_c, 0, 88, 0
1, 59226, Note_on_c, 0, 87, 42
1, 59238, Note_on_c, 0, 87, 0
1, 59243, Control_c, 0, 64, 0
1, 59246, Note_on_c, 0, 86, 51
1, 59257, Note_on_c, 0, 65, 24
1, 59263, Note_on_c, 0, 54, 27
1, 59264, Note_on_c, 0, 60, 24
1, 59265, Note_on_c, 0, 58, 27
1, 59266, Note_on_c, 0, 86, 0
1, 59269, Note_on_c, 0, 85, 57
1, 59277, Control_c, 0, 64, 127
1, 59294, Note_on_c, 0, 85, 0
1, 59297, Note_on_c, 0, 84, 36
1, 59308, Note_on_c, 0, 84, 0
1, 59317, Note_on_c, 0, 65, 0
1, 59330, Note_on_c, 0, 82, 21
1, 59337, Note_on_c, 1, 52, 71
1, 59341, Note_on_c, 0, 60, 0
1, 59342, Note_on_c, 1, 54, 0
1, 59352, Note_on_c, 0, 54, 0
1, 59352, Note_on_c, 0, 82, 0
1, 59355, Note_on_c, 1, 52, 0
1, 59357, Note_on_c, 0, 58, 0
1, 59399, Note_on_c, 1, 50, 52
1, 59411, Note_on_c, 1, 50, 0
1, 59442, Note_on_c, 0, 75, 48
1, 59454, Note_on_c, 0, 75, 0
1, 59455, Note_on_c, 1, 48, 51
1, 59469, Note_on_c, 0, 81, 90
1, 59470, Note_on_c, 1, 48, 0
1, 59482, Note_on_c, 0, 66, 56
1, 59484, Control_c, 0, 64, 0
1, 59486, Note_on_c, 0, 62, 40
1, 59489, Note_on_c, 0, 59, 47
1, 59505, Note_on_c, 0, 78, 69
1, 59509, Note_on_c, 0, 81, 0
1, 59513, Note_on_c, 0, 66, 0
1, 59513, Note_on_c, 1, 47, 51
1, 59520, Note_on_c, 1, 38, 0
1, 59524, Note_on_c, 0, 62, 0
1, 59526, Note_on_c, 0, 59, 0
1, 59536, Note_on_c, 0, 74, 58
1, 59545, Note_on_c, 0, 78, 0
1, 59555, Note_on_c, 0, 74, 0
1, 59565, Note_on_c, 0, 71, 48
1, 59576, Note_on_c, 0, 71, 0
1, 59608, Note_on_c, 0, 67, 29
1, 59620, Note_on_c, 0, 67, 0
1, 59639, Note_on_c, 0, 64, 46
1, 59648, Note_on_c, 0, 64, 0
1, 59691, Note_on_c, 0, 69, 82
1, 59698, Note_on_c, 0, 54, 50
1, 59705, Note_on_c, 0, 54, 0
1, 59712, Note_on_c, 0, 69, 0
1, 59731, Note_on_c, 0, 66, 75
1, 59735, Note_on_c, 0, 54, 53
1, 59763, Note_on_c, 0, 62, 71
1, 59779, Control_c, 0, 64, 127
1, 59784, Note_on_c, 0, 66, 0
1, 59788, Note_on_c, 0, 62, 0
1, 59800, Note_on_c, 0, 54, 0
1, 59800, Note_on_c, 0, 59, 56
1, 59802, Note_on_c, 1, 47, 0
1, 59804, Note_on_c, 1, 45, 57
1, 59821, Note_on_c, 0, 59, 0
1, 59836, Note_on_c, 0, 54, 71
1, 59840, Note_on_c, 1, 45, 0
1, 59842, Note_on_c, 0, 50, 30
1, 59850, Note_on_c, 0, 50, 0
1, 59863, Note_on_c, 0, 54, 0
1, 59865, Note_on_c, 1, 43, 52
1, 59875, Note_on_c, 0, 50, 52
1, 59894, Note_on_c, 0, 50, 0
1, 59899, Control_c, 0, 64, 0
1, 59909, Note_on_c, 0, 52, 64
1, 59929, Note_on_c, 0, 52, 0
1, 59933, Control_c, 0, 64, 127
1, 59940, Note_on_c, 0, 54, 70
1, 59963, Note_on_c, 0, 54, 0
1, 59974, Note_on_c, 0, 55, 61
1, 59993, Note_on_c, 0, 55, 0
1, 60009, Note_on_c, 0, 57, 63
1, 60013, Control_c, 0, 64, 0
1, 60014, Note_on_c, 0, 40, 43
1, 60044, Note_on_c, 1, 43, 0
1, 60045, Note_on_c, 0, 57, 0
1, 60049, Note_on_c, 0, 54, 59
1, 60052, Note_on_c, 1, 42, 53
1, 60067, Note_on_c, 0, 54, 0
1, 60079, Note_on_c, 0, 55, 55
1, 60097, Note_on_c, 1, 42, 0
1, 60100, Note_on_c, 0, 55, 0
1, 60108, Note_on_c, 0, 57, 55
1, 60112, Note_on_c, 1, 40, 52
1, 60130, Note_on_c, 0, 57, 0
1, 60142, Note_on_c, 0, 58, 43
1, 60155, Note_on_c, 0, 58, 0
1, 60191, Control_c, 0, 64, 127
1, 60203, Note_on_c, 0, 64, 25
1, 60204, Note_on_c, 0, 62, 42
1, 60218, Note_on_c, 0, 62, 0
1, 60219, Note_on_c, 0, 64, 0
1, 60228, Note_on_c, 0, 66, 74
1, 60245, Note_on_c, 0, 47, 36
1, 60247, Control_c, 0, 64, 0
1, 60256, Note_on_c, 0, 66, 0
1, 60258, Note_on_c, 0, 57, 59
1, 60274, Note_on_c, 0, 57, 0
1, 60284, Control_c, 0, 64, 127
1, 60286, Note_on_c, 0, 62, 60
1, 60298, Note_on_c, 1, 40, 0
1, 60298, Note_on_c, 1, 42, 56
1, 60311, Note_on_c, 0, 62, 0
1, 60312, Note_on_c, 0, 66, 55
1, 60321, Note_on_c, 0, 47, 0
1, 60324, Note_on_c, 0, 66, 0
1, 60328, Note_on_c, 1, 42, 0
1, 60341, Note_on_c, 0, 69, 71
1, 60350, Control_c, 0, 64, 0
1, 60354, Note_on_c, 1, 43, 59
1, 60356, Note_on_c, 0, 47, 29
1, 60362, Note_on_c, 0, 69, 0
1, 60362, Control_c, 0, 64, 127
1, 60363, Note_on_c, 0, 74, 65
1, 60385, Note_on_c, 0, 74, 0
1, 60388, Note_on_c, 0, 40, 0
1, 60397, Note_on_c, 0, 47, 0
1, 60414, Note_on_c, 0, 81, 55
1, 60428, Note_on_c, 0, 81, 0
1, 60429, Note_on_c, 0, 86, 46
1, 60452, Note_on_c, 0, 90, 58
1, 60455, Note_on_c, 0, 86, 0
1, 60477, Note_on_c, 1, 43, 0
1, 60477, Note_on_c, 1, 45, 68
1, 60479, Note_on_c, 0, 90, 0
1, 60482, Note_on_c, 0, 93, 66
1, 60484, Note_on_c, 0, 91, 60
1, 60494, Control_c, 0, 64, 0
1, 60495, Note_on_c, 0, 45, 43
1, 60499, Note_on_c, 0, 55, 35
1, 60504, Note_on_c, 0, 91, 0
1, 60506, Note_on_c, 0, 93, 0
1, 60506, Note_on_c, 0, 88, 64
1, 60509, Note_on_c, 0, 52, 24
1, 60515, Note_on_c, 0, 45, 0
1, 60519, Note_on_c, 0, 52, 0
1, 60524, Control_c, 0, 64, 127
1, 60526, Note_on_c, 0, 55, 0
1, 60565, Note_on_c, 0, 88, 0
1, 60566, Note_on_c, 0, 83, 70
1, 60571, Note_on_c, 0, 64, 51
1, 60572, Note_on_c, 0, 59, 30
1, 60577, Note_on_c, 0, 60, 44
1, 60653, Note_on_c, 0, 59, 0
1, 60669, Note_on_c, 0, 57, 62
1, 60715, Note_on_c, 1, 52, 85
1, 60716, Control_c, 0, 64, 0
1, 60723, Note_on_c, 0, 56, 50
1, 60726, Note_on_c, 0, 83, 0
1, 60734, Control_c, 0, 64, 127
1, 60746, Note_on_c, 1, 45, 0
1, 60791, Note_on_c, 0, 88, 55
1, 60798, Note_on_c, 0, 79, 30
1, 60799, Note_on_c, 0, 84, 38
1, 60810, Note_on_c, 0, 79, 0
1, 60812, Note_on_c, 0, 84, 0
1, 60823, Note_on_c, 0, 88, 0
1, 60857, Note_on_c, 0, 56, 0
1, 60858, Note_on_c, 0, 57, 0
1, 60890, Note_on_c, 0, 55, 50
1, 60890, Note_on_c, 0, 91, 54
1, 60909, Note_on_c, 0, 91, 0
1, 60910, Note_on_c, 0, 55, 0
1, 60912, Note_on_c, 0, 64, 0
1, 60913, Note_on_c, 1, 45, 34
1, 60918, Note_on_c, 1, 52, 0
1, 60925, Note_on_c, 0, 60, 0
1, 60950, Control_c, 0, 64, 0
1, 60951, Note_on_c, 1, 45, 0
1, 60954, Note_on_c, 0, 95, 70
1, 60955, Note_on_c, 0, 60, 41
1, 60957, Note_on_c, 0, 88, 45
1, 60957, Note_on_c, 0, 83, 49
1, 60958, Note_on_c, 0, 64, 44
1, 60958, Note_on_c, 1, 50, 62
1, 60959, Note_on_c, 0, 54, 40
1, 60967, Note_on_c, 0, 88, 0
1, 60970, Note_on_c, 0, 64, 0
1, 60970, Note_on_c, 0, 83, 0
1, 60977, Note_on_c, 0, 60, 0
1, 60977, Note_on_c, 0, 54, 0
1, 60978, Note_on_c, 0, 95, 0
1, 61029, Note_on_c, 0, 95, 49
1, 61032, Note_on_c, 0, 90, 40
1, 61034, Note_on_c, 0, 83, 46
1, 61036, Note_on_c, 0, 88, 55
1, 61038, Note_on_c, 0, 60, 47
1, 61038, Note_on_c, 0, 64, 40
1, 61040, Note_on_c, 0, 54, 31
1, 61046, Note_on_c, 0, 88, 0
1, 61048, Note_on_c, 0, 64, 0
1, 61050, Note_on_c, 0, 83, 0
1, 61053, Note_on_c, 0, 95, 0
1, 61054, Note_on_c, 0, 60, 0
1, 61055, Note_on_c, 0, 54, 0
1, 61058, Note_on_c, 0, 90, 0
1, 61064, Control_c, 0, 64, 127
1, 61114, Control_c, 0, 64, 0
1, 61124, Control_c, 0, 64, 127
1, 61133, Note_on_c, 0, 82, 57
1, 61133, Note_on_c, 0, 94, 52
1, 61138, Note_on_c, 0, 60, 43
1, 61138, Note_on_c, 0, 64, 35
1, 61139, Note_on_c, 0, 90, 30
1, 61141, Note_on_c, 0, 88, 31
1, 61143, Note_on_c, 0, 54, 25
1, 61144, Note_on_c, 1, 38, 49
1, 61149, Note_on_c, 0, 90, 0
1, 61149, Note_on_c, 0, 64, 0
1, 61152, Note_on_c, 0, 88, 0
1, 61155, Note_on_c, 0, 60, 0
1, 61159, Note_on_c, 0, 54, 0
1, 61161, Note_on_c, 0, 94, 0
1, 61162, Note_on_c, 0, 82, 0
1, 61174, Note_on_c, 1, 38, 0
1, 61177, Control_c, 0, 64, 0
1, 61192, Note_on_c, 0, 54, 52
1, 61194, Note_on_c, 0, 93, 55
1, 61194, Note_on_c, 0, 88, 51
1, 61197, Note_on_c, 0, 81, 24
1, 61198, Note_on_c, 0, 64, 39
1, 61198, Note_on_c, 0, 60, 44
1, 61198, Note_on_c, 0, 90, 38
1, 61200, Note_on_c, 1, 38, 53
1, 61204, Control_c, 0, 64, 127
1, 61230, Note_on_c, 0, 88, 0
1, 61236, Note_on_c, 0, 93, 0
1, 61243, Note_on_c, 0, 90, 0
1, 61257, Note_on_c, 0, 81, 0
1, 61271, Note_on_c, 0, 64, 0
1, 61284, Note_on_c, 0, 60, 0
1, 61293, Note_on_c, 0, 54, 0
1, 61322, Note_on_c, 0, 54, 53
1, 61324, Note_on_c, 0, 60, 47
1, 61330, Note_on_c, 0, 60, 0
1, 61354, Note_on_c, 0, 54, 0
1, 61358, Note_on_c, 1, 50, 0
1, 61365, Note_on_c, 1, 38, 0
1, 61372, Note_on_c, 1, 37, 51
1, 61374, Note_on_c, 0, 62, 57
1, 61390, Note_on_c, 0, 62, 0
1, 61406, Note_on_c, 1, 37, 0
1, 61413, Note_on_c, 1, 36, 68
1, 61431, Note_on_c, 1, 36, 0
1, 61434, Note_on_c, 0, 66, 60
1, 61434, Note_on_c, 0, 47, 51
1, 61434, Note_on_c, 0, 62, 69
1, 61435, Note_on_c, 0, 69, 68
1, 61441, Control_c, 0, 64, 0
1, 61448, Note_on_c, 1, 35, 63
1, 61475, Control_c, 0, 64, 127
1, 61478, Note_on_c, 0, 62, 0
1, 61481, Note_on_c, 0, 66, 0
1, 61490, Note_on_c, 0, 69, 0
1, 61492, Note_on_c, 0, 47, 0
1, 61494, Note_on_c, 0, 57, 41
1, 61516, Note_on_c, 0, 57, 0
1, 61551, Note_on_c, 0, 59, 34
1, 61608, Note_on_c, 0, 59, 0
1, 61616, Note_on_c, 0, 69, 50
1, 61616, Note_on_c, 0, 81, 50
1, 61616, Note_on_c, 0, 74, 36
1, 61616, Note_on_c, 0, 78, 33
1, 61617, Note_on_c, 0, 62, 43
1, 61654, Note_on_c, 0, 62, 0
1, 61671, Note_on_c, 0, 66, 63
1, 61672, Note_on_c, 1, 47, 91
1, 61687, Note_on_c, 0, 69, 0
1, 61689, Note_on_c, 0, 74, 0
1, 61737, Note_on_c, 0, 69, 53
1, 61746, Note_on_c, 0, 69, 0
1, 61752, Note_on_c, 0, 66, 0
1, 61761, Note_on_c, 0, 78, 0
1, 61793, Note_on_c, 0, 69, 40
1, 61796, Note_on_c, 0, 81, 0
1, 61819, Note_on_c, 0, 69, 0
1, 61834, Note_on_c, 1, 35, 0
1, 61853, Note_on_c, 1, 35, 46
1, 61858, Note_on_c, 0, 74, 44
1, 61880, Note_on_c, 0, 74, 0
1, 61912, Control_c, 0, 64, 0
1, 61916, Note_on_c, 0, 70, 50
1, 61917, Note_on_c, 0, 75, 44
1, 61917, Note_on_c, 0, 79, 45
1, 61918, Note_on_c, 0, 48, 42
1, 61922, Note_on_c, 0, 58, 18
1, 61940, Control_c, 0, 64, 127
1, 61945, Note_on_c, 1, 47, 0
1, 61962, Note_on_c, 0, 70, 0
1, 61964, Note_on_c, 0, 75, 0
1, 61965, Note_on_c, 0, 79, 0
1, 61967, Note_on_c, 0, 58, 0
1, 61970, Note_on_c, 0, 48, 0
1, 61973, Note_on_c, 1, 35, 0
1, 61981, Note_on_c, 0, 77, 22
1, 61981, Note_on_c, 1, 36, 71
1, 61984, Note_on_c, 0, 55, 24
1, 61991, Note_on_c, 0, 55, 0
1, 62018, Note_on_c, 0, 77, 0
1, 62037, Note_on_c, 0, 70, 50
1, 62038, Note_on_c, 0, 75, 50
1, 62038, Note_on_c, 0, 79, 43
1, 62042, Note_on_c, 0, 62, 43
1, 62083, Note_on_c, 0, 62, 0
1, 62095, Note_on_c, 0, 79, 0
1, 62101, Note_on_c, 0, 63, 46
1, 62110, Note_on_c, 0, 75, 0
1, 62121, Note_on_c, 0, 70, 0
1, 62129, Note_on_c, 0, 63, 0
1, 62156, Note_on_c, 0, 70, 79
1, 62158, Note_on_c, 0, 75, 75
1, 62158, Note_on_c, 0, 79, 69
1, 62160, Note_on_c, 0, 65, 64
1, 62175, Control_c, 0, 64, 0
1, 62183, Control_c, 0, 64, 127
1, 62212, Note_on_c, 1, 48, 73
1, 62216, Note_on_c, 0, 65, 0
1, 62219, Note_on_c, 0, 63, 47
1, 62226, Note_on_c, 1, 48, 0
1, 62243, Note_on_c, 0, 79, 0
1, 62247, Note_on_c, 0, 75, 0
1, 62250, Note_on_c, 0, 70, 0
1, 62267, Note_on_c, 0, 63, 0
1, 62276, Note_on_c, 1, 50, 83
1, 62283, Note_on_c, 0, 65, 36
1, 62287, Note_on_c, 0, 70, 28
1, 62287, Note_on_c, 0, 75, 37
1, 62289, Note_on_c, 0, 79, 19
1, 62294, Note_on_c, 1, 50, 0
1, 62296, Note_on_c, 0, 70, 0
1, 62302, Note_on_c, 0, 79, 0
1, 62310, Note_on_c, 0, 75, 0
1, 62315, Note_on_c, 0, 65, 0
1, 62339, Note_on_c, 0, 63, 45
1, 62340, Note_on_c, 1, 51, 71
1, 62392, Note_on_c, 0, 63, 0
1, 62399, Note_on_c, 0, 68, 52
1, 62399, Note_on_c, 0, 84, 54
1, 62400, Note_on_c, 0, 80, 35
1, 62401, Note_on_c, 0, 72, 38
1, 62402, Note_on_c, 0, 77, 38
1, 62405, Control_c, 0, 64, 0
1, 62414, Note_on_c, 0, 63, 6
1, 62425, Control_c, 0, 64, 127
1, 62441, Note_on_c, 0, 84, 0
1, 62442, Note_on_c, 1, 36, 0
1, 62446, Note_on_c, 0, 77, 0
1, 62456, Note_on_c, 0, 80, 0
1, 62457, Note_on_c, 0, 72, 0
1, 62462, Note_on_c, 0, 60, 37
1, 62466, Note_on_c, 1, 51, 0
1, 62466, Note_on_c, 1, 53, 77
1, 62471, Note_on_c, 0, 68, 0
1, 62488, Note_on_c, 0, 60, 0
1, 62515, Note_on_c, 0, 63, 0
1, 62517, Note_on_c, 0, 58, 37
1, 62534, Note_on_c, 0, 58, 0
1, 62577, Note_on_c, 0, 63, 42
1, 62581, Note_on_c, 0, 60, 55
1, 62586, Note_on_c, 1, 48, 83
1, 62590, Note_on_c, 1, 53, 0
1, 62590, Note_on_c, 1, 51, 38
1, 62597, Note_on_c, 1, 51, 0
1, 62607, Note_on_c, 0, 46, 1
1, 62630, Note_on_c, 0, 46, 0
1, 62697, Note_on_c, 0, 34, 52
1, 62718, Note_on_c, 1, 33, 72
1, 62725, Note_on_c, 0, 34, 0
1, 62739, Note_on_c, 1, 33, 0
1, 62805, Note_on_c, 0, 60, 0
1, 62811, Note_on_c, 1, 34, 79
1, 62814, Note_on_c, 0, 46, 42
1, 62818, Note_on_c, 0, 63, 0
1, 62837, Note_on_c, 1, 48, 0
1, 62855, Note_on_c, 0, 46, 0
1, 62940, Note_on_c, 1, 46, 59
1, 62996, Note_on_c, 0, 56, 48
1, 62998, Note_on_c, 0, 61, 53
1, 63002, Note_on_c, 1, 58, 78
1, 63010, Note_on_c, 0, 66, 51
1, 63014, Note_on_c, 0, 62, 37
1, 63019, Note_on_c, 0, 70, 67
1, 63032, Note_on_c, 0, 73, 64
1, 63096, Note_on_c, 0, 62, 0
1, 63111, Note_on_c, 0, 56, 0
1, 63161, Note_on_c, 0, 61, 0
1, 63184, Note_on_c, 0, 73, 0
1, 63184, Note_on_c, 0, 46, 46
1, 63212, Note_on_c, 0, 66, 0
1, 63230, Note_on_c, 0, 70, 0
1, 63231, Note_on_c, 1, 34, 0
1, 63253, Note_on_c, 1, 46, 0
1, 63274, Note_on_c, 0, 46, 0
1, 63306, Note_on_c, 1, 56, 71
1, 63308, Note_on_c, 0, 66, 49
1, 63308, Note_on_c, 0, 46, 34
1, 63309, Note_on_c, 0, 61, 42
1, 63316, Note_on_c, 0, 66, 0
1, 63318, Note_on_c, 1, 58, 0
1, 63319, Note_on_c, 0, 61, 0
1, 63330, Note_on_c, 0, 46, 0
1, 63366, Note_on_c, 1, 56, 0
1, 63371, Note_on_c, 1, 55, 71
1, 63374, Note_on_c, 0, 67, 34
1, 63377, Note_on_c, 0, 39, 27
1, 63377, Note_on_c, 0, 62, 40
1, 63377, Note_on_c, 0, 55, 30
1, 63380, Control_c, 0, 64, 0
1, 63406, Note_on_c, 1, 55, 0
1, 63418, Note_on_c, 0, 62, 0
1, 63422, Control_c, 0, 64, 127
1, 63425, Note_on_c, 0, 55, 0
1, 63430, Note_on_c, 1, 53, 66
1, 63439, Note_on_c, 0, 46, 34
1, 63442, Note_on_c, 0, 39, 0
1, 63477, Note_on_c, 0, 67, 0
1, 63478, Note_on_c, 1, 53, 0
1, 63489, Note_on_c, 1, 51, 60
1, 63540, Note_on_c, 0, 62, 40
1, 63543, Note_on_c, 0, 55, 33
1, 63545, Note_on_c, 0, 60, 34
1, 63576, Note_on_c, 0, 55, 0
1, 63590, Note_on_c, 0, 60, 0
1, 63596, Note_on_c, 0, 62, 0
1, 63630, Note_on_c, 0, 60, 45
1, 63631, Note_on_c, 0, 62, 33
1, 63635, Note_on_c, 0, 55, 30
1, 63659, Note_on_c, 1, 51, 0
1, 63660, Note_on_c, 1, 50, 71
1, 63668, Note_on_c, 0, 55, 0
1, 63685, Note_on_c, 0, 60, 0
1, 63689, Note_on_c, 0, 62, 0
1, 63696, Note_on_c, 1, 50, 0
1, 63717, Note_on_c, 0, 62, 43
1, 63719, Note_on_c, 0, 60, 45
1, 63719, Note_on_c, 1, 48, 62
1, 63720, Note_on_c, 0, 55, 33
1, 63748, Note_on_c, 0, 62, 0
1, 63756, Note_on_c, 0, 46, 0
1, 63784, Note_on_c, 0, 60, 0
1, 63797, Note_on_c, 0, 55, 0
1, 63798, Note_on_c, 0, 67, 49
1, 63799, Note_on_c, 0, 46, 26
1, 63835, Note_on_c, 0, 67, 0
1, 63852, Note_on_c, 0, 46, 0
1, 63859, Note_on_c, 0, 63, 46
1, 63859, Note_on_c, 0, 59, 50
1, 63860, Control_c, 0, 64, 0
1, 63860, Note_on_c, 0, 61, 46
1, 63860, Note_on_c, 0, 43, 33
1, 63862, Note_on_c, 0, 53, 28
1, 63882, Note_on_c, 0, 59, 0
1, 63886, Control_c, 0, 64, 127
1, 63891, Note_on_c, 0, 61, 0
1, 63895, Note_on_c, 0, 63, 0
1, 63918, Note_on_c, 0, 43, 0
1, 63929, Note_on_c, 0, 53, 0
1, 63937, Note_on_c, 0, 79, 66
1, 63975, Note_on_c, 0, 79, 0
1, 64017, Note_on_c, 0, 73, 67
1, 64019, Note_on_c, 0, 63, 55
1, 64020, Note_on_c, 0, 69, 50
1, 64022, Note_on_c, 0, 71, 42
1, 64029, Note_on_c, 0, 71, 0
1, 64036, Note_on_c, 1, 43, 67
1, 64041, Note_on_c, 1, 48, 0
1, 64043, Note_on_c, 0, 69, 0
1, 64048, Note_on_c, 0, 73, 0
1, 64055, Note_on_c, 0, 75, 64
1, 64081, Note_on_c, 0, 75, 0
1, 64086, Note_on_c, 0, 63, 0
1, 64094, Note_on_c, 1, 55, 74
1, 64096, Control_c, 0, 64, 0
1, 64096, Note_on_c, 0, 71, 48
1, 64097, Note_on_c, 0, 61, 52
1, 64098, Note_on_c, 0, 65, 38
1, 64105, Note_on_c, 1, 43, 0
1, 64116, Control_c, 0, 64, 127
1, 64124, Note_on_c, 0, 71, 0
1, 64128, Note_on_c, 0, 65, 0
1, 64131, Note_on_c, 0, 73, 42
1, 64148, Note_on_c, 0, 73, 0
1, 64148, Note_on_c, 0, 61, 0
1, 64166, Note_on_c, 0, 67, 59
1, 64167, Control_c, 0, 64, 0
1, 64171, Note_on_c, 0, 59, 36
1, 64186, Control_c, 0, 64, 127
1, 64216, Note_on_c, 0, 67, 0
1, 64249, Note_on_c, 0, 67, 36
1, 64252, Note_on_c, 0, 59, 0
1, 64253, Note_on_c, 0, 63, 29
1, 64275, Note_on_c, 1, 47, 55
1, 64278, Note_on_c, 0, 67, 0
1, 64284, Note_on_c, 1, 47, 0
1, 64298, Note_on_c, 0, 63, 0
1, 64327, Note_on_c, 0, 70, 60
1, 64330, Note_on_c, 1, 48, 61
1, 64335, Control_c, 0, 64, 0
1, 64352, Note_on_c, 1, 55, 0
1, 64391, Note_on_c, 0, 48, 56
1, 64437, Control_c, 0, 64, 127
1, 64442, Note_on_c, 0, 67, 41
1, 64444, Note_on_c, 0, 70, 0
1, 64444, Note_on_c, 0, 63, 37
1, 64444, Note_on_c, 0, 62, 53
1, 64450, Note_on_c, 0, 55, 36
1, 64490, Note_on_c, 0, 67, 0
1, 64499, Note_on_c, 0, 62, 0
1, 64512, Note_on_c, 0, 63, 0
1, 64513, Note_on_c, 0, 58, 15
1, 64535, Note_on_c, 0, 58, 0
1, 64560, Note_on_c, 0, 62, 41
1, 64561, Note_on_c, 0, 58, 31
1, 64563, Note_on_c, 0, 65, 61
1, 64567, Control_c, 0, 64, 0
1, 64573, Note_on_c, 0, 55, 0
1, 64591, Control_c, 0, 64, 127
1, 64622, Note_on_c, 0, 58, 0
1, 64623, Note_on_c, 0, 55, 35
1, 64625, Note_on_c, 1, 60, 88
1, 64631, Note_on_c, 0, 62, 0
1, 64650, Note_on_c, 0, 48, 0
1, 64670, Note_on_c, 0, 63, 54
1, 64675, Note_on_c, 0, 60, 49
1, 64708, Note_on_c, 0, 60, 0
1, 64712, Note_on_c, 0, 65, 0
1, 64722, Note_on_c, 0, 55, 0
1, 64723, Note_on_c, 0, 48, 48
1, 64736, Note_on_c, 0, 63, 0
1, 64740, Note_on_c, 0, 48, 0
1, 64786, Control_c, 0, 64, 0
1, 64791, Note_on_c, 0, 69, 70
1, 64791, Note_on_c, 0, 62, 66
1, 64792, Note_on_c, 0, 40, 55
1, 64793, Note_on_c, 0, 55, 58
1, 64796, Note_on_c, 0, 57, 56
1, 64802, Note_on_c, 1, 48, 0
1, 64830, Control_c, 0, 64, 127
1, 64848, Note_on_c, 1, 60, 0
1, 64852, Note_on_c, 0, 55, 0
1, 64853, Note_on_c, 0, 47, 56
1, 64853, Note_on_c, 1, 58, 50
1, 64856, Note_on_c, 0, 40, 0
1, 64856, Note_on_c, 0, 57, 0
1, 64865, Note_on_c, 0, 62, 0
1, 64876, Note_on_c, 1, 58, 0
1, 64899, Note_on_c, 0, 69, 0
1, 64903, Note_on_c, 0, 47, 0
1, 64909, Note_on_c, 0, 62, 54
1, 64910, Note_on_c, 0, 65, 49
1, 64912, Note_on_c, 0, 55, 39
1, 64915, Note_on_c, 0, 57, 26
1, 64915, Note_on_c, 1, 52, 62
1, 64928, Note_on_c, 0, 57, 0
1, 64928, Note_on_c, 0, 55, 0
1, 64952, Note_on_c, 0, 62, 0
1, 64954, Note_on_c, 0, 65, 0
1, 64966, Note_on_c, 0, 46, 46
1, 64974, Note_on_c, 1, 57, 85
1, 64986, Note_on_c, 1, 52, 0
1, 65011, Note_on_c, 0, 46, 0
1, 65024, Control_c, 0, 64, 0
1, 65027, Note_on_c, 0, 70, 55
1, 65028, Note_on_c, 0, 61, 56
1, 65029, Note_on_c, 0, 55, 52
1, 65029, Note_on_c, 0, 66, 54
1, 65032, Note_on_c, 0, 45, 32
1, 65062, Control_c, 0, 64, 127
1, 65090, Note_on_c, 1, 45, 51
1, 65092, Note_on_c, 0, 61, 0
1, 65094, Note_on_c, 0, 52, 38
1, 65096, Note_on_c, 0, 66, 0
1, 65099, Note_on_c, 0, 55, 0
1, 65100, Note_on_c, 1, 57, 0
1, 65100, Note_on_c, 0, 70, 0
1, 65123, Note_on_c, 1, 45, 0
1, 65148, Note_on_c, 0, 68, 71
1, 65148, Note_on_c, 0, 73, 69
1, 65150, Note_on_c, 0, 61, 69
1, 65161, Note_on_c, 0, 55, 37
1, 65165, Note_on_c, 0, 45, 0
1, 65196, Note_on_c, 0, 52, 0
1, 65200, Note_on_c, 0, 61, 0
1, 65208, Note_on_c, 1, 40, 57
1, 65213, Note_on_c, 0, 68, 0
1, 65213, Note_on_c, 0, 45, 24
1, 65214, Note_on_c, 0, 73, 0
1, 65220, Note_on_c, 0, 55, 0
1, 65225, Note_on_c, 0, 45, 0
1, 65227, Note_on_c, 1, 40, 0
1, 65256, Control_c, 0, 64, 0
1, 65263, Note_on_c, 1, 44, 57
1, 65264, Note_on_c, 0, 72, 54
1, 65265, Note_on_c, 0, 67, 44
1, 65266, Note_on_c, 0, 60, 47
1, 65274, Note_on_c, 0, 60, 0
1, 65276, Note_on_c, 0, 44, 30
1, 65282, Control_c, 0, 64, 127
1, 65286, Note_on_c, 0, 67, 0
1, 65290, Note_on_c, 0, 72, 0
1, 65327, Note_on_c, 0, 51, 34
1, 65329, Note_on_c, 0, 84, 68
1, 65330, Note_on_c, 0, 44, 0
1, 65338, Note_on_c, 0, 51, 0
1, 65348, Note_on_c, 0, 84, 0
1, 65386, Note_on_c, 0, 84, 81
1, 65387, Note_on_c, 0, 79, 72
1, 65387, Note_on_c, 0, 60, 63
1, 65388, Note_on_c, 0, 72, 74
1, 65431, Note_on_c, 0, 84, 0
1, 65436, Note_on_c, 0, 79, 0
1, 65442, Note_on_c, 0, 72, 0
1, 65448, Note_on_c, 0, 63, 60
1, 65467, Note_on_c, 0, 63, 0
1, 65473, Note_on_c, 0, 60, 0
1, 65511, Note_on_c, 0, 60, 72
1, 65531, Note_on_c, 0, 60, 0
1, 65567, Note_on_c, 1, 39, 49
1, 65576, Note_on_c, 1, 39, 0
1, 65610, Note_on_c, 0, 70, 63
1, 65613, Note_on_c, 0, 51, 47
1, 65613, Note_on_c, 0, 60, 68
1, 65613, Note_on_c, 0, 63, 58
1, 65631, Note_on_c, 1, 32, 55
1, 65634, Control_c, 0, 64, 0
1, 65636, Note_on_c, 0, 60, 0
1, 65649, Note_on_c, 0, 60, 13
1, 65652, Control_c, 0, 64, 127
1, 65676, Note_on_c, 0, 63, 0
1, 65684, Note_on_c, 0, 60, 0
1, 65700, Note_on_c, 0, 44, 46
1, 65704, Note_on_c, 0, 63, 42
1, 65707, Note_on_c, 0, 60, 53
1, 65742, Note_on_c, 0, 70, 0
1, 65756, Note_on_c, 0, 60, 0
1, 65758, Note_on_c, 0, 44, 0
1, 65759, Note_on_c, 0, 63, 0
1, 65763, Note_on_c, 0, 51, 0
1, 65798, Note_on_c, 1, 44, 0
1, 65812, Note_on_c, 1, 32, 0
1, 65818, Note_on_c, 1, 43, 57
1, 65822, Control_c, 0, 64, 0
1, 65825, Note_on_c, 0, 43, 34
1, 65828, Note_on_c, 0, 65, 35
1, 65828, Note_on_c, 0, 59, 25
1, 65828, Note_on_c, 0, 53, 32
1, 65829, Note_on_c, 0, 61, 28
1, 65830, Note_on_c, 0, 63, 28
1, 65830, Note_on_c, 0, 67, 35
1, 65834, Note_on_c, 1, 43, 0
1, 65849, Note_on_c, 0, 65, 0
1, 65859, Control_c, 0, 64, 127
1, 65888, Note_on_c, 0, 61, 0
1, 65888, Note_on_c, 1, 37, 64
1, 65889, Note_on_c, 0, 67, 0
1, 65893, Note_on_c, 0, 53, 0
1, 65894, Note_on_c, 0, 59, 0
1, 65894, Note_on_c, 0, 63, 0
1, 65894, Note_on_c, 1, 37, 0
1, 65941, Note_on_c, 0, 67, 46
1, 65944, Note_on_c, 0, 63, 50
1, 65944, Note_on_c, 1, 31, 73
1, 65945, Note_on_c, 0, 55, 58
1, 65946, Note_on_c, 0, 61, 46
1, 65946, Note_on_c, 0, 59, 50
1, 65953, Control_c, 0, 64, 0
1, 65953, Note_on_c, 1, 29, 68
1, 65953, Note_on_c, 1, 29, 0
1, 65956, Note_on_c, 0, 59, 0
1, 65963, Note_on_c, 0, 55, 0
1, 65966, Note_on_c, 0, 61, 0
1, 65970, Note_on_c, 0, 67, 0
1, 65971, Note_on_c, 0, 63, 0
1, 66013, Note_on_c, 0, 67, 41
1, 66014, Note_on_c, 0, 63, 49
1, 66015, Note_on_c, 0, 59, 49
1, 66016, Note_on_c, 0, 61, 42
1, 66016, Note_on_c, 0, 55, 41
1, 66024, Note_on_c, 0, 55, 0
1, 66025, Note_on_c, 0, 59, 0
1, 66028, Note_on_c, 0, 67, 0
1, 66029, Note_on_c, 0, 61, 0
1, 66036, Note_on_c, 0, 63, 0
1, 66070, Control_c, 0, 64, 127
1, 66073, Note_on_c, 0, 66, 51
1, 66074, Note_on_c, 0, 54, 46
1, 66075, Note_on_c, 0, 61, 43
1, 66078, Note_on_c, 0, 59, 35
1, 66082, Note_on_c, 0, 63, 25
1, 66089, Note_on_c, 0, 59, 0
1, 66094, Note_on_c, 0, 54, 0
1, 66096, Note_on_c, 0, 61, 0
1, 66096, Note_on_c, 0, 63, 0
1, 66099, Note_on_c, 0, 66, 0
1, 66112, Control_c, 0, 64, 0
1, 66132, Note_on_c, 0, 65, 37
1, 66132, Note_on_c, 0, 62, 44
1, 66133, Note_on_c, 0, 53, 51
1, 66134, Note_on_c, 0, 59, 37
1, 66136, Note_on_c, 1, 31, 0
1, 66140, Control_c, 0, 64, 127
1, 66171, Note_on_c, 0, 43, 0
1, 66177, Note_on_c, 0, 53, 0
1, 66186, Note_on_c, 0, 59, 0
1, 66188, Note_on_c, 0, 62, 0
1, 66195, Note_on_c, 0, 47, 42
1, 66199, Note_on_c, 0, 65, 0
1, 66240, Note_on_c, 0, 47, 0
1, 66244, Control_c, 0, 64, 0
1, 66252, Note_on_c, 0, 63, 35
1, 66256, Note_on_c, 0, 55, 32
1, 66256, Note_on_c, 0, 60, 44
1, 66258, Note_on_c, 0, 48, 34
1, 66272, Control_c, 0, 64, 127
1, 66311, Note_on_c, 0, 55, 0
1, 66313, Note_on_c, 0, 36, 58
1, 66339, Note_on_c, 0, 36, 0
1, 66354, Note_on_c, 0, 60, 0
1, 66358, Note_on_c, 0, 48, 0
1, 66394, Note_on_c, 0, 63, 0
1, 66422, Note_on_c, 0, 48, 58
1, 66428, Note_on_c, 1, 36, 68
1, 66482, Note_on_c, 0, 63, 77
1, 66482, Note_on_c, 0, 60, 91
1, 66489, Note_on_c, 1, 48, 65
1, 66528, Note_on_c, 0, 60, 0
1, 66536, Note_on_c, 0, 63, 0
1, 66553, Note_on_c, 0, 65, 80
1, 66553, Note_on_c, 0, 62, 88
1, 66555, Note_on_c, 0, 58, 52
1, 66589, Note_on_c, 0, 48, 0
1, 66600, Note_on_c, 0, 62, 0
1, 66607, Note_on_c, 0, 65, 0
1, 66620, Note_on_c, 0, 58, 0
1, 66630, Note_on_c, 0, 63, 75
1, 66630, Note_on_c, 0, 67, 71
1, 66633, Note_on_c, 0, 48, 50
1, 66653, Note_on_c, 0, 63, 0
1, 66654, Note_on_c, 1, 48, 0
1, 66657, Note_on_c, 0, 48, 0
1, 66657, Note_on_c, 0, 67, 0
1, 66672, Note_on_c, 1, 48, 44
1, 66699, Note_on_c, 1, 36, 0
1, 66704, Note_on_c, 1, 48, 0
1, 66717, Note_on_c, 0, 61, 57
1, 66719, Note_on_c, 0, 68, 53
1, 66719, Note_on_c, 0, 49, 38
1, 66721, Control_c, 0, 64, 0
1, 66723, Note_on_c, 0, 65, 46
1, 66725, Note_on_c, 1, 49, 65
1, 66759, Control_c, 0, 64, 127
1, 66795, Note_on_c, 0, 56, 35
1, 66799, Note_on_c, 0, 65, 0
1, 66800, Note_on_c, 0, 61, 0
1, 66829, Note_on_c, 0, 68, 0
1, 66876, Note_on_c, 0, 56, 0
1, 66882, Note_on_c, 0, 70, 43
1, 66882, Note_on_c, 0, 66, 44
1, 66884, Control_c, 0, 64, 0
1, 66884, Note_on_c, 0, 63, 38
1, 66886, Note_on_c, 0, 59, 40
1, 66887, Note_on_c, 0, 58, 28
1, 66904, Note_on_c, 1, 37, 37
1, 66908, Control_c, 0, 64, 127
1, 66925, Note_on_c, 0, 49, 0
1, 66928, Note_on_c, 0, 58, 0
1, 66945, Note_on_c, 0, 59, 0
1, 66948, Note_on_c, 0, 70, 0
1, 66950, Note_on_c, 0, 63, 0
1, 66953, Note_on_c, 0, 66, 0
1, 66966, Note_on_c, 0, 70, 40
1, 66968, Note_on_c, 0, 59, 44
1, 66969, Note_on_c, 0, 63, 51
1, 66970, Note_on_c, 0, 58, 42
1, 66971, Note_on_c, 0, 66, 49
1, 66971, Note_on_c, 1, 53, 47
1, 66984, Note_on_c, 1, 49, 0
1, 67031, Note_on_c, 0, 59, 0
1, 67035, Note_on_c, 0, 66, 0
1, 67036, Note_on_c, 0, 63, 0
1, 67044, Note_on_c, 0, 58, 0
1, 67052, Note_on_c, 0, 70, 0
1, 67057, Note_on_c, 0, 68, 46
1, 67057, Note_on_c, 0, 63, 40
1, 67057, Note_on_c, 0, 66, 35
1, 67058, Note_on_c, 0, 59, 41
1, 67058, Control_c, 0, 64, 0
1, 67058, Note_on_c, 0, 56, 31
1, 67079, Control_c, 0, 64, 127
1, 67093, Note_on_c, 0, 59, 0
1, 67097, Note_on_c, 0, 66, 0
1, 67100, Note_on_c, 0, 63, 0
1, 67113, Note_on_c, 0, 68, 0
1, 67136, Note_on_c, 0, 70, 49
1, 67137, Note_on_c, 0, 63, 37
1, 67138, Note_on_c, 0, 49, 35
1, 67138, Note_on_c, 0, 66, 37
1, 67150, Note_on_c, 0, 56, 0
1, 67158, Note_on_c, 1, 49, 23
1, 67160, Note_on_c, 0, 49, 0
1, 67165, Note_on_c, 0, 63, 0
1, 67178, Note_on_c, 0, 66, 0
1, 67180, Note_on_c, 1, 49, 0
1, 67183, Note_on_c, 0, 70, 0
1, 67199, Note_on_c, 1, 37, 0
1, 67199, Note_on_c, 0, 70, 35
1, 67200, Note_on_c, 0, 62, 42
1, 67202, Note_on_c, 0, 67, 40
1, 67202, Note_on_c, 0, 46, 36
1, 67204, Control_c, 0, 64, 0
1, 67205, Note_on_c, 0, 55, 33
1, 67222, Note_on_c, 1, 46, 30
1, 67224, Note_on_c, 1, 53, 0
1, 67242, Control_c, 0, 64, 127
1, 67304, Note_on_c, 0, 62, 0
1, 67307, Note_on_c, 0, 67, 0
1, 67316, Note_on_c, 0, 70, 0
1, 67323, Note_on_c, 1, 51, 73
1, 67335, Note_on_c, 0, 46, 0
1, 67375, Note_on_c, 0, 46, 37
1, 67380, Note_on_c, 0, 55, 0
1, 67436, Note_on_c, 0, 75, 81
1, 67440, Note_on_c, 0, 55, 48
1, 67441, Note_on_c, 0, 67, 73
1, 67473, Note_on_c, 0, 46, 0
1, 67501, Note_on_c, 0, 46, 31
1, 67501, Note_on_c, 1, 53, 47
1, 67504, Note_on_c, 1, 51, 0
1, 67537, Note_on_c, 0, 46, 0
1, 67553, Note_on_c, 1, 53, 0
1, 67554, Note_on_c, 0, 46, 47
1, 67555, Note_on_c, 0, 67, 0
1, 67558, Note_on_c, 1, 51, 47
1, 67568, Note_on_c, 0, 75, 0
1, 67572, Note_on_c, 0, 55, 0
1, 67581, Note_on_c, 1, 46, 0
1, 67614, Note_on_c, 0, 74, 68
1, 67618, Note_on_c, 1, 46, 33
1, 67620, Note_on_c, 0, 65, 70
1, 67620, Note_on_c, 0, 55, 44
1, 67649, Note_on_c, 0, 74, 0
1, 67649, Note_on_c, 1, 51, 0
1, 67652, Note_on_c, 0, 65, 0
1, 67661, Note_on_c, 0, 46, 0
1, 67662, Note_on_c, 1, 46, 0
1, 67674, Note_on_c, 1, 44, 51
1, 67702, Note_on_c, 0, 55, 0
1, 67734, Note_on_c, 0, 72, 72
1, 67735, Note_on_c, 0, 63, 64
1, 67739, Note_on_c, 0, 56, 37
1, 67743, Note_on_c, 1, 48, 29
1, 67744, Control_c, 0, 64, 0
1, 67754, Note_on_c, 1, 48, 0
1, 67764, Control_c, 0, 64, 127
1, 67794, Note_on_c, 1, 51, 55
1, 67823, Note_on_c, 0, 72, 0
1, 67839, Note_on_c, 0, 63, 0
1, 67850, Note_on_c, 0, 46, 39
1, 67851, Note_on_c, 1, 53, 45
1, 67855, Note_on_c, 1, 51, 0
1, 67877, Note_on_c, 0, 56, 0
1, 67904, Note_on_c, 1, 53, 0
1, 67915, Note_on_c, 0, 68, 50
1, 67917, Note_on_c, 1, 51, 42
1, 67918, Note_on_c, 0, 56, 35
1, 67921, Note_on_c, 0, 60, 38
1, 67922, Note_on_c, 0, 63, 34
1, 67972, Note_on_c, 1, 51, 0
1, 67976, Note_on_c, 1, 48, 45
1, 67985, Note_on_c, 0, 63, 0
1, 68002, Note_on_c, 0, 56, 0
1, 68004, Note_on_c, 1, 44, 0
1, 68007, Note_on_c, 0, 60, 0
1, 68007, Note_on_c, 1, 48, 0
1, 68032, Note_on_c, 1, 44, 52
1, 68039, Note_on_c, 0, 63, 32
1, 68042, Note_on_c, 0, 56, 26
1, 68043, Note_on_c, 0, 68, 0
1, 68053, Note_on_c, 0, 63, 0
1, 68067, Note_on_c, 0, 46, 0
1, 68095, Note_on_c, 0, 46, 46
1, 68097, Note_on_c, 0, 72, 69
1, 68100, Note_on_c, 0, 62, 49
1, 68102, Note_on_c, 0, 64, 46
1, 68109, Note_on_c, 0, 64, 0
1, 68118, Note_on_c, 0, 62, 0
1, 68125, Note_on_c, 0, 72, 0
1, 68134, Note_on_c, 0, 46, 0
1, 68145, Note_on_c, 0, 56, 0
1, 68160, Note_on_c, 0, 46, 47
1, 68161, Note_on_c, 1, 44, 0
1, 68161, Note_on_c, 0, 70, 65
1, 68162, Note_on_c, 0, 62, 57
1, 68163, Control_c, 0, 64, 0
1, 68166, Note_on_c, 1, 43, 58
1, 68189, Control_c, 0, 64, 127
1, 68200, Note_on_c, 0, 46, 0
1, 68223, Note_on_c, 0, 46, 35
1, 68246, Note_on_c, 0, 70, 0
1, 68251, Note_on_c, 0, 62, 0
1, 68256, Note_on_c, 0, 46, 0
1, 68277, Note_on_c, 0, 46, 33
1, 68342, Note_on_c, 0, 63, 40
1, 68347, Note_on_c, 0, 58, 39
1, 68348, Note_on_c, 1, 55, 71
1, 68351, Note_on_c, 0, 55, 16
1, 68368, Note_on_c, 1, 55, 0
1, 68406, Note_on_c, 1, 58, 68
1, 68416, Note_on_c, 0, 55, 0
1, 68427, Note_on_c, 0, 46, 0
1, 68446, Note_on_c, 0, 58, 0
1, 68457, Note_on_c, 0, 63, 0
1, 68457, Note_on_c, 0, 46, 42
1, 68487, Note_on_c, 0, 46, 0
1, 68514, Note_on_c, 0, 46, 35
1, 68573, Note_on_c, 0, 70, 56
1, 68575, Note_on_c, 0, 63, 47
1, 68576, Note_on_c, 0, 59, 39
1, 68577, Note_on_c, 0, 58, 32
1, 68591, Note_on_c, 1, 55, 40
1, 68594, Note_on_c, 1, 58, 0
1, 68596, Control_c, 0, 64, 0
1, 68602, Note_on_c, 1, 55, 0
1, 68614, Control_c, 0, 64, 127
1, 68638, Note_on_c, 1, 59, 72
1, 68647, Note_on_c, 0, 58, 0
1, 68695, Note_on_c, 0, 58, 36
1, 68722, Note_on_c, 0, 46, 0
1, 68746, Note_on_c, 1, 58, 54
1, 68747, Note_on_c, 1, 59, 0
1, 68752, Note_on_c, 0, 46, 30
1, 68773, Note_on_c, 0, 46, 0
1, 68805, Note_on_c, 0, 58, 0
1, 68810, Note_on_c, 0, 46, 35
1, 68820, Note_on_c, 1, 56, 50
1, 68822, Note_on_c, 1, 58, 0
1, 68829, Note_on_c, 0, 59, 0
1, 68830, Note_on_c, 0, 63, 0
1, 68832, Note_on_c, 1, 43, 0
1, 68856, Note_on_c, 0, 70, 0
1, 68872, Note_on_c, 0, 68, 43
1, 68873, Note_on_c, 0, 59, 38
1, 68874, Note_on_c, 0, 63, 36
1, 68879, Note_on_c, 0, 56, 20
1, 68886, Control_c, 0, 64, 0
1, 68903, Control_c, 0, 64, 127
1, 68971, Note_on_c, 0, 59, 0
1, 68998, Note_on_c, 0, 59, 44
1, 69022, Note_on_c, 0, 59, 0
1, 69031, Note_on_c, 0, 46, 0
1, 69055, Note_on_c, 0, 56, 0
1, 69057, Note_on_c, 0, 46, 30
1, 69068, Note_on_c, 0, 68, 0
1, 69079, Note_on_c, 0, 63, 0
1, 69087, Note_on_c, 0, 46, 0
1, 69125, Note_on_c, 1, 46, 55
1, 69136, Note_on_c, 1, 56, 0
1, 69178, Note_on_c, 0, 67, 52
1, 69178, Note_on_c, 0, 63, 46
1, 69180, Note_on_c, 0, 55, 49
1, 69180, Note_on_c, 0, 60, 60
1, 69181, Note_on_c, 0, 45, 35
1, 69187, Control_c, 0, 64, 0
1, 69188, Note_on_c, 0, 33, 33
1, 69220, Control_c, 0, 64, 127
1, 69280, Note_on_c, 0, 55, 0
1, 69281, Note_on_c, 0, 67, 0
1, 69292, Note_on_c, 0, 33, 0
1, 69297, Note_on_c, 0, 45, 0
1, 69309, Note_on_c, 0, 60, 0
1, 69311, Note_on_c, 0, 63, 0
1, 69353, Note_on_c, 0, 44, 34
1, 69353, Note_on_c, 0, 32, 38
1, 69354, Note_on_c, 0, 68, 37
1, 69354, Note_on_c, 0, 56, 37
1, 69355, Note_on_c, 0, 63, 31
1, 69357, Control_c, 0, 64, 0
1, 69360, Note_on_c, 0, 60, 30
1, 69367, Note_on_c, 0, 60, 0
1, 69369, Note_on_c, 1, 46, 0
1, 69370, Note_on_c, 0, 68, 0
1, 69371, Note_on_c, 1, 45, 75
1, 69372, Note_on_c, 0, 56, 0
1, 69375, Note_on_c, 0, 63, 0
1, 69377, Note_on_c, 0, 44, 0
1, 69381, Note_on_c, 0, 32, 0
1, 69398, Note_on_c, 1, 45, 0
1, 69404, Control_c, 0, 64, 127
1, 69441, Note_on_c, 1, 44, 59
1, 69446, Control_c, 0, 64, 0
1, 69466, Note_on_c, 0, 70, 40
1, 69473, Note_on_c, 0, 63, 30
1, 69474, Note_on_c, 0, 43, 24
1, 69474, Note_on_c, 0, 31, 30
1, 69477, Note_on_c, 0, 58, 19
1, 69479, Note_on_c, 1, 44, 0
1, 69489, Note_on_c, 0, 58, 0
1, 69492, Note_on_c, 0, 70, 0
1, 69493, Note_on_c, 0, 43, 0
1, 69493, Note_on_c, 0, 63, 0
1, 69494, Note_on_c, 0, 31, 0
1, 69498, Note_on_c, 1, 43, 49
1, 69518, Control_c, 0, 64, 127
1, 69588, Note_on_c, 0, 63, 29
1, 69592, Control_c, 0, 64, 0
1, 69594, Note_on_c, 0, 30, 31
1, 69595, Note_on_c, 0, 60, 36
1, 69595, Note_on_c, 0, 56, 29
1, 69598, Note_on_c, 0, 42, 21
1, 69598, Note_on_c, 0, 52, 24
1, 69598, Control_c, 0, 64, 127
1, 69605, Note_on_c, 1, 42, 56
1, 69611, Note_on_c, 1, 43, 0
1, 69632, Note_on_c, 0, 52, 0
1, 69642, Note_on_c, 0, 60, 0
1, 69648, Note_on_c, 0, 56, 0
1, 69654, Note_on_c, 0, 63, 0
1, 69677, Note_on_c, 0, 30, 0
1, 69691, Note_on_c, 0, 42, 0
1, 69812, Note_on_c, 0, 58, 38
1, 69827, Note_on_c, 0, 59, 42
1, 69828, Note_on_c, 0, 58, 0
1, 69833, Note_on_c, 0, 75, 58
1, 69834, Note_on_c, 0, 59, 0
1, 69835, Note_on_c, 0, 68, 53
1, 69835, Note_on_c, 0, 64, 51
1, 69836, Note_on_c, 0, 60, 66
1, 69837, Note_on_c, 0, 72, 58
1, 69841, Control_c, 0, 64, 0
1, 69873, Control_c, 0, 64, 127
1, 69909, Note_on_c, 1, 58, 56
1, 69944, Note_on_c, 0, 60, 0
1, 69954, Note_on_c, 0, 54, 49
1, 69960, Note_on_c, 0, 72, 0
1, 69961, Note_on_c, 0, 75, 0
1, 69972, Note_on_c, 0, 68, 0
1, 69984, Note_on_c, 0, 54, 0
1, 69986, Note_on_c, 0, 64, 0
1, 70072, Note_on_c, 1, 58, 0
1, 70079, Note_on_c, 1, 56, 39
1, 70093, Note_on_c, 1, 42, 0
1, 70133, Note_on_c, 0, 63, 29
1, 70136, Note_on_c, 0, 41, 36
1, 70139, Note_on_c, 0, 60, 40
1, 70140, Note_on_c, 0, 55, 31
1, 70140, Note_on_c, 0, 56, 36
1, 70142, Note_on_c, 0, 51, 21
1, 70151, Control_c, 0, 64, 0
1, 70152, Note_on_c, 1, 53, 59
1, 70158, Note_on_c, 1, 56, 0
1, 70196, Control_c, 0, 64, 127
1, 70266, Note_on_c, 0, 41, 0
1, 70276, Note_on_c, 0, 55, 0
1, 70288, Note_on_c, 0, 51, 0
1, 70289, Note_on_c, 0, 60, 0
1, 70295, Note_on_c, 0, 56, 0
1, 70302, Note_on_c, 0, 63, 0
1, 70323, Note_on_c, 0, 63, 37
1, 70327, Note_on_c, 0, 56, 30
1, 70328, Note_on_c, 0, 60, 46
1, 70328, Note_on_c, 0, 51, 33
1, 70332, Note_on_c, 0, 55, 26
1, 70386, Note_on_c, 0, 55, 0
1, 70386, Note_on_c, 1, 51, 70
1, 70389, Note_on_c, 0, 41, 79
1, 70390, Note_on_c, 1, 53, 0
1, 70400, Note_on_c, 1, 51, 0
1, 70421, Note_on_c, 0, 60, 0
1, 70425, Note_on_c, 0, 56, 0
1, 70433, Note_on_c, 0, 63, 0
1, 70442, Note_on_c, 0, 41, 0
1, 70447, Note_on_c, 1, 47, 42
1, 70464, Note_on_c, 0, 51, 0
1, 70470, Note_on_c, 1, 47, 0
1, 70504, Note_on_c, 1, 47, 49
1, 70546, Note_on_c, 1, 47, 0
1, 70556, Note_on_c, 0, 67, 55
1, 70557, Note_on_c, 0, 59, 57
1, 70558, Note_on_c, 0, 62, 50
1, 70559, Note_on_c, 0, 64, 44
1, 70560, Note_on_c, 0, 46, 44
1, 70560, Note_on_c, 0, 56, 44
1, 70562, Note_on_c, 1, 46, 53
1, 70565, Control_c, 0, 64, 0
1, 70659, Control_c, 0, 64, 127
1, 70676, Note_on_c, 0, 46, 0
1, 70680, Note_on_c, 0, 59, 0
1, 70680, Note_on_c, 0, 56, 0
1, 70689, Note_on_c, 0, 62, 0
1, 70691, Note_on_c, 0, 67, 0
1, 70691, Note_on_c, 0, 64, 0
1, 70740, Note_on_c, 0, 67, 32
1, 70744, Note_on_c, 0, 64, 32
1, 70745, Note_on_c, 0, 46, 29
1, 70745, Note_on_c, 0, 62, 31
1, 70746, Note_on_c, 0, 56, 32
1, 70747, Note_on_c, 0, 59, 24
1, 70749, Control_c, 0, 64, 0
1, 70761, Control_c, 0, 64, 127
1, 70767, Note_on_c, 0, 59, 0
1, 70775, Note_on_c, 0, 62, 0
1, 70784, Note_on_c, 0, 64, 0
1, 70787, Note_on_c, 0, 67, 0
1, 70803, Note_on_c, 1, 55, 69
1, 70842, Note_on_c, 0, 56, 0
1, 70867, Note_on_c, 0, 46, 0
1, 70916, Note_on_c, 0, 91, 67
1, 70932, Note_on_c, 0, 91, 0
1, 70933, Note_on_c, 1, 46, 0
1, 70938, Note_on_c, 0, 94, 60
1, 70964, Note_on_c, 0, 91, 47
1, 70970, Note_on_c, 0, 94, 0
1, 70977, Note_on_c, 1, 46, 36
1, 70986, Note_on_c, 0, 91, 0
1, 70987, Note_on_c, 0, 89, 66
1, 71001, Note_on_c, 0, 89, 0
1, 71012, Note_on_c, 1, 46, 0
1, 71014, Control_c, 0, 64, 0
1, 71016, Note_on_c, 0, 39, 43
1, 71017, Note_on_c, 0, 46, 37
1, 71032, Note_on_c, 1, 39, 28
1, 71038, Control_c, 0, 64, 127
1, 71039, Note_on_c, 1, 55, 0
1, 71043, Note_on_c, 0, 39, 0
1, 71048, Note_on_c, 0, 86, 2
1, 71052, Note_on_c, 0, 46, 0
1, 71121, Note_on_c, 0, 86, 0
1, 71144, Note_on_c, 0, 84, 37
1, 71151, Note_on_c, 0, 84, 0
1, 71201, Note_on_c, 1, 46, 44
1, 71217, Note_on_c, 0, 79, 51
1, 71220, Note_on_c, 0, 65, 32
1, 71224, Note_on_c, 1, 46, 0
1, 71226, Note_on_c, 0, 60, 40
1, 71227, Note_on_c, 0, 58, 29
1, 71228, Note_on_c, 0, 55, 28
1, 71262, Note_on_c, 1, 46, 47
1, 71394, Note_on_c, 0, 65, 0
1, 71396, Note_on_c, 0, 60, 0
1, 71405, Note_on_c, 0, 55, 0
1, 71416, Note_on_c, 0, 58, 0
1, 71454, Note_on_c, 1, 58, 69
1, 71519, Control_c, 0, 64, 0
1, 71528, Note_on_c, 0, 46, 38
1, 71535, Control_c, 0, 64, 127
1, 71564, Note_on_c, 0, 46, 0
1, 71663, Note_on_c, 0, 79, 0
1, 71699, Note_on_c, 0, 68, 46
1, 71705, Note_on_c, 0, 58, 31
1, 71706, Note_on_c, 0, 63, 39
1, 71709, Note_on_c, 0, 60, 41
1, 71775, Note_on_c, 1, 46, 0
1, 71817, Note_on_c, 0, 68, 0
1, 71823, Note_on_c, 1, 46, 56
1, 71828, Note_on_c, 0, 95, 62
1, 71830, Note_on_c, 0, 93, 84
1, 71842, Note_on_c, 0, 60, 0
1, 71843, Note_on_c, 1, 46, 0
1, 71844, Note_on_c, 0, 63, 0
1, 71845, Note_on_c, 0, 93, 0
1, 71847, Note_on_c, 0, 95, 0
1, 71851, Note_on_c, 0, 58, 0
1, 71884, Note_on_c, 0, 98, 95
1, 71885, Note_on_c, 0, 86, 88
1, 71887, Note_on_c, 1, 46, 37
1, 71901, Note_on_c, 1, 46, 0
1, 71920, Note_on_c, 0, 86, 0
1, 71921, Note_on_c, 0, 98, 0
1, 71941, Note_on_c, 1, 46, 59
1, 71944, Note_on_c, 0, 98, 78
1, 71944, Note_on_c, 0, 86, 72
1, 71955, Note_on_c, 1, 39, 0
1, 71961, Note_on_c, 0, 86, 0
1, 71971, Note_on_c, 0, 98, 0
1, 71998, Control_c, 0, 64, 0
1, 71999, Note_on_c, 0, 46, 59
1, 72000, Note_on_c, 0, 39, 58
1, 72002, Note_on_c, 0, 101, 80
1, 72004, Note_on_c, 0, 89, 76
1, 72004, Note_on_c, 1, 39, 71
1, 72007, Note_on_c, 1, 46, 0
1, 72020, Control_c, 0, 64, 127
1, 72038, Note_on_c, 0, 101, 0
1, 72046, Note_on_c, 0, 89, 0
1, 72058, Note_on_c, 0, 39, 0
1, 72071, Note_on_c, 0, 46, 0
1, 72109, Note_on_c, 0, 99, 57
1, 72111, Note_on_c, 0, 87, 50
1, 72134, Note_on_c, 0, 99, 0
1, 72135, Note_on_c, 0, 87, 0
1, 72174, Note_on_c, 0, 65, 39
1, 72174, Note_on_c, 0, 98, 64
1, 72174, Note_on_c, 1, 46, 69
1, 72176, Note_on_c, 0, 60, 42
1, 72177, Note_on_c, 0, 86, 53
1, 72178, Note_on_c, 0, 58, 30
1, 72179, Note_on_c, 0, 55, 35
1, 72181, Note_on_c, 1, 58, 0
1, 72215, Note_on_c, 0, 98, 0
1, 72223, Note_on_c, 0, 86, 0
1, 72288, Note_on_c, 0, 94, 60
1, 72289, Note_on_c, 0, 82, 48
1, 72295, Note_on_c, 0, 60, 0
1, 72296, Note_on_c, 0, 55, 0
1, 72300, Note_on_c, 0, 65, 0
1, 72307, Note_on_c, 0, 58, 0
1, 72336, Note_on_c, 0, 82, 0
1, 72340, Note_on_c, 0, 94, 0
1, 72421, Note_on_c, 0, 96, 65
1, 72424, Note_on_c, 0, 63, 39
1, 72426, Note_on_c, 0, 84, 39
1, 72426, Note_on_c, 0, 68, 33
1, 72428, Note_on_c, 0, 60, 40
1, 72430, Note_on_c, 0, 58, 20
1, 72438, Control_c, 0, 64, 0
1, 72460, Control_c, 0, 64, 127
1, 72472, Note_on_c, 0, 96, 0
1, 72485, Note_on_c, 0, 84, 0
1, 72538, Note_on_c, 1, 58, 74
1, 72546, Note_on_c, 0, 79, 45
1, 72548, Note_on_c, 0, 91, 38
1, 72554, Note_on_c, 0, 79, 0
1, 72558, Note_on_c, 1, 39, 0
1, 72561, Note_on_c, 0, 91, 0
1, 72608, Note_on_c, 0, 94, 77
1, 72608, Note_on_c, 0, 82, 71
1, 72635, Note_on_c, 0, 68, 0
1, 72659, Note_on_c, 0, 94, 0
1, 72662, Note_on_c, 0, 82, 0
1, 72666, Note_on_c, 0, 60, 0
1, 72675, Note_on_c, 0, 63, 0
1, 72686, Note_on_c, 0, 58, 0
1, 72718, Note_on_c, 0, 92, 50
1, 72722, Note_on_c, 0, 80, 42
1, 72744, Note_on_c, 0, 80, 0
1, 72746, Note_on_c, 0, 92, 0
1, 72750, Note_on_c, 1, 46, 0
1, 72793, Note_on_c, 1, 59, 64
1, 72800, Note_on_c, 0, 77, 25
1, 72800, Note_on_c, 0, 89, 28
1, 72805, Note_on_c, 1, 58, 0
1, 72826, Note_on_c, 0, 77, 0
1, 72836, Note_on_c, 0, 89, 0
1, 72855, Note_on_c, 1, 59, 0
1, 72857, Note_on_c, 1, 58, 48
1, 72905, Note_on_c, 0, 91, 53
1, 72907, Note_on_c, 0, 79, 42
1, 72918, Note_on_c, 1, 59, 38
1, 72921, Note_on_c, 1, 58, 0
1, 72926, Note_on_c, 0, 91, 0
1, 72933, Note_on_c, 0, 79, 0
1, 72965, Note_on_c, 1, 59, 0
1, 72970, Note_on_c, 1, 58, 52
1, 72974, Note_on_c, 0, 39, 33
1, 72975, Note_on_c, 0, 46, 36
1, 72979, Note_on_c, 0, 86, 47
1, 72979, Note_on_c, 0, 74, 39
1, 72981, Control_c, 0, 64, 0
1, 72996, Control_c, 0, 64, 127
1, 73025, Note_on_c, 0, 39, 0
1, 73026, Control_c, 1, 1, 5
1, 73027, Control_c, 1, 1, 6
1, 73028, Control_c, 1, 1, 9
1, 73028, Control_c, 1, 1, 12
1, 73028, Control_c, 1, 1, 15
1, 73030, Control_c, 1, 1, 17
1, 73030, Control_c, 1, 1, 19
1, 73031, Control_c, 1, 1, 22
1, 73032, Control_c, 1, 1, 25
1, 73033, Control_c, 1, 1, 27
1, 73034, Control_c, 1, 1, 28
1, 73034, Control_c, 1, 1, 30
1, 73035, Note_on_c, 0, 46, 0
1, 73035, Control_c, 1, 1, 33
1, 73036, Control_c, 1, 1, 34
1, 73036, Control_c, 1, 1, 36
1, 73037, Control_c, 1, 1, 38
1, 73038, Control_c, 1, 1, 40
1, 73039, Control_c, 1, 1, 42
1, 73040, Control_c, 1, 1, 43
1, 73040, Control_c, 1, 1, 46
1, 73041, Control_c, 1, 1, 47
1, 73042, Control_c, 1, 1, 49
1, 73042, Control_c, 1, 1, 51
1, 73043, Control_c, 1, 1, 52
1, 73044, Control_c, 1, 1, 54
1, 73045, Control_c, 1, 1, 55
1, 73045, Control_c, 1, 1, 57
1, 73045, Control_c, 1, 1, 59
1, 73046, Control_c, 1, 1, 61
1, 73048, Control_c, 1, 1, 62
1, 73048, Control_c, 1, 1, 64
1, 73049, Control_c, 1, 1, 65
1, 73050, Control_c, 1, 1, 67
1, 73050, Control_c, 1, 1, 68
1, 73051, Control_c, 1, 1, 70
1, 73052, Control_c, 1, 1, 72
1, 73053, Control_c, 1, 1, 73
1, 73054, Control_c, 1, 1, 75
1, 73054, Control_c, 1, 1, 76
1, 73055, Control_c, 1, 1, 77
1, 73055, Control_c, 1, 1, 78
1, 73056, Control_c, 1, 1, 79
1, 73057, Control_c, 1, 1, 80
1, 73058, Control_c, 1, 1, 82
1, 73059, Control_c, 1, 1, 83
1, 73060, Control_c, 1, 1, 84
1, 73062, Control_c, 1, 1, 87
1, 73063, Control_c, 1, 1, 89
1, 73066, Control_c, 1, 1, 91
1, 73068, Control_c, 1, 1, 93
1, 73069, Control_c, 1, 1, 94
1, 73073, Control_c, 1, 1, 95
1, 73074, Note_on_c, 0, 74, 0
1, 73084, Control_c, 1, 1, 94
1, 73086, Control_c, 1, 1, 92
1, 73086, Control_c, 1, 1, 91
1, 73089, Control_c, 1, 1, 89
1, 73089, Control_c, 1, 1, 88
1, 73090, Control_c, 1, 1, 87
1, 73091, Control_c, 1, 1, 85
1, 73092, Control_c, 1, 1, 84
1, 73093, Control_c, 1, 1, 82
1, 73094, Control_c, 1, 1, 78
1, 73094, Control_c, 1, 1, 81
1, 73094, Control_c, 1, 1, 79
1, 73095, Control_c, 1, 1, 76
1, 73096, Control_c, 1, 1, 74
1, 73097, Control_c, 1, 1, 72
1, 73098, Control_c, 1, 1, 70
1, 73099, Control_c, 1, 1, 68
1, 73100, Control_c, 1, 1, 61
1, 73100, Control_c, 1, 1, 66
1, 73100, Control_c, 1, 1, 63
1, 73102, Control_c, 1, 1, 58
1, 73102, Control_c, 1, 1, 56
1, 73103, Control_c, 1, 1, 53
1, 73104, Control_c, 1, 1, 51
1, 73105, Control_c, 1, 1, 48
1, 73106, Control_c, 1, 1, 40
1, 73106, Control_c, 1, 1, 46
1, 73106, Control_c, 1, 1, 43
1, 73107, Control_c, 1, 1, 38
1, 73108, Control_c, 1, 1, 35
1, 73109, Control_c, 1, 1, 33
1, 73110, Control_c, 1, 1, 31
1, 73111, Control_c, 1, 1, 28
1, 73112, Control_c, 1, 1, 26
1, 73112, Control_c, 1, 1, 23
1, 73113, Control_c, 1, 1, 20
1, 73114, Control_c, 1, 1, 17
1, 73114, Control_c, 1, 1, 15
1, 73115, Control_c, 1, 1, 12
1, 73116, Control_c, 1, 1, 9
1, 73117, Control_c, 1, 1, 6
1, 73118, Control_c, 1, 1, 4
1, 73118, Control_c, 1, 1, 2
1, 73119, Control_c, 1, 1, 1
1, 73164, Note_on_c, 0, 74, 45
1, 73164, Note_on_c, 0, 67, 44
1, 73165, Note_on_c, 0, 63, 34
1, 73166, Note_on_c, 0, 62, 39
1, 73270, Note_on_c, 0, 67, 0
1, 73281, Note_on_c, 0, 62, 0
1, 73284, Note_on_c, 0, 74, 0
1, 73311, Note_on_c, 0, 63, 0
1, 73311, Note_on_c, 0, 86, 0
1, 73321, Note_on_c, 0, 86, 18
1, 73327, Note_on_c, 0, 74, 34
1, 73347, Note_on_c, 0, 74, 0
1, 73359, Note_on_c, 0, 86, 0
1, 73385, Note_on_c, 0, 86, 37
1, 73388, Note_on_c, 0, 68, 34
1, 73392, Note_on_c, 0, 74, 32
1, 73394, Note_on_c, 0, 63, 34
1, 73395, Note_on_c, 0, 58, 21
1, 73395, Note_on_c, 0, 60, 37
1, 73421, Note_on_c, 0, 86, 0
1, 73436, Note_on_c, 0, 74, 0
1, 73449, Note_on_c, 0, 68, 0
1, 73490, Note_on_c, 0, 67, 47
1, 73504, Note_on_c, 1, 51, 53
1, 73510, Note_on_c, 0, 67, 0
1, 73521, Note_on_c, 0, 68, 52
1, 73539, Note_on_c, 0, 68, 0
1, 73546, Note_on_c, 1, 58, 0
1, 73546, Note_on_c, 0, 70, 63
1, 73558, Note_on_c, 0, 70, 0
1, 73558, Note_on_c, 0, 60, 0
1, 73570, Note_on_c, 0, 72, 60
1, 73587, Note_on_c, 0, 74, 62
1, 73588, Note_on_c, 0, 72, 0
1, 73604, Note_on_c, 0, 63, 0
1, 73607, Note_on_c, 0, 75, 69
1, 73608, Note_on_c, 0, 74, 0
1, 73615, Note_on_c, 0, 75, 0
1, 73628, Note_on_c, 0, 77, 64
1, 73647, Note_on_c, 0, 79, 62
1, 73653, Note_on_c, 0, 77, 0
1, 73662, Note_on_c, 1, 51, 0
1, 73664, Note_on_c, 0, 80, 56
1, 73666, Note_on_c, 1, 58, 75
1, 73671, Note_on_c, 0, 79, 0
1, 73682, Note_on_c, 0, 80, 0
1, 73682, Note_on_c, 0, 82, 53
1, 73689, Note_on_c, 0, 82, 0
1, 73704, Note_on_c, 0, 84, 59
1, 73722, Note_on_c, 0, 84, 0
1, 73723, Pitch_bend_c, 1, 8192
1, 73724, Pitch_bend_c, 1, 8192
1, 73725, Note_on_c, 0, 86, 58
1, 73725, Pitch_bend_c, 1, 8712
1, 73726, Pitch_bend_c, 1, 9102
1, 73728, Pitch_bend_c, 1, 9492
1, 73729, Pitch_bend_c, 1, 9882
1, 73731, Pitch_bend_c, 1, 10402
1, 73732, Pitch_bend_c, 1, 10792
1, 73734, Pitch_bend_c, 1, 11312
1, 73734, Pitch_bend_c, 1, 11702
1, 73736, Pitch_bend_c, 1, 11962
1, 73738, Pitch_bend_c, 1, 12352
1, 73739, Pitch_bend_c, 1, 12612
1, 73741, Note_on_c, 0, 86, 0
1, 73741, Pitch_bend_c, 1, 12872
1, 73742, Note_on_c, 0, 87, 64
1, 73742, Pitch_bend_c, 1, 13132
1, 73744, Pitch_bend_c, 1, 13392
1, 73745, Pitch_bend_c, 1, 13782
1, 73746, Pitch_bend_c, 1, 13912
1, 73748, Pitch_bend_c, 1, 14042
1, 73749, Note_on_c, 0, 87, 0
1, 73749, Pitch_bend_c, 1, 14172
1, 73751, Pitch_bend_c, 1, 14302
1, 73754, Pitch_bend_c, 1, 14432
1, 73758, Pitch_bend_c, 1, 14562
1, 73764, Note_on_c, 0, 89, 62
1, 73768, Pitch_bend_c, 1, 14302
1, 73769, Pitch_bend_c, 1, 14172
1, 73770, Note_on_c, 0, 58, 0
1, 73772, Pitch_bend_c, 1, 14042
1, 73773, Pitch_bend_c, 1, 13782
1, 73774, Pitch_bend_c, 1, 13652
1, 73776, Pitch_bend_c, 1, 13392
1, 73778, Pitch_bend_c, 1, 13132
1, 73779, Pitch_bend_c, 1, 13002
1, 73780, Pitch_bend_c, 1, 12742
1, 73782, Pitch_bend_c, 1, 12482
1, 73783, Note_on_c, 0, 91, 41
1, 73783, Pitch_bend_c, 1, 12092
1, 73784, Note_on_c, 0, 89, 0
1, 73784, Pitch_bend_c, 1, 11832
1, 73786, Pitch_bend_c, 1, 11572
1, 73788, Pitch_bend_c, 1, 11052
1, 73789, Pitch_bend_c, 1, 10792
1, 73790, Pitch_bend_c, 1, 10402
1, 73792, Pitch_bend_c, 1, 10012
1, 73793, Pitch_bend_c, 1, 9622
1, 73794, Pitch_bend_c, 1, 9232
1, 73796, Pitch_bend_c, 1, 8842
1, 73797, Note_on_c, 0, 92, 57
1, 73797, Pitch_bend_c, 1, 8192
1, 73797, Pitch_bend_c, 1, 8192
1, 73799, Pitch_bend_c, 1, 8192
1, 73809, Note_on_c, 0, 91, 0
1, 73822, Note_on_c, 0, 92, 0
1, 73830, Note_on_c, 0, 94, 26
1, 73836, Note_on_c, 0, 94, 0
1, 73839, Pitch_bend_c, 1, 8192
1, 73840, Pitch_bend_c, 1, 8192
1, 73843, Pitch_bend_c, 1, 8712
1, 73843, Pitch_bend_c, 1, 8972
1, 73846, Pitch_bend_c, 1, 9232
1, 73847, Pitch_bend_c, 1, 9622
1, 73848, Pitch_bend_c, 1, 9882
1, 73849, Note_on_c, 0, 96, 60
1, 73850, Pitch_bend_c, 1, 10142
1, 73851, Pitch_bend_c, 1, 10532
1, 73853, Pitch_bend_c, 1, 10792
1, 73853, Pitch_bend_c, 1, 11312
1, 73856, Pitch_bend_c, 1, 11572
1, 73857, Pitch_bend_c, 1, 11832
1, 73858, Pitch_bend_c, 1, 12092
1, 73860, Pitch_bend_c, 1, 12222
1, 73861, Pitch_bend_c, 1, 12482
1, 73863, Note_on_c, 0, 96, 0
1, 73863, Pitch_bend_c, 1, 12742
1, 73864, Pitch_bend_c, 1, 12872
1, 73866, Pitch_bend_c, 1, 13002
1, 73868, Pitch_bend_c, 1, 13132
1, 73881, Note_on_c, 0, 98, 16
1, 73884, Pitch_bend_c, 1, 13002
1, 73886, Pitch_bend_c, 1, 12872
1, 73889, Pitch_bend_c, 1, 12742
1, 73890, Pitch_bend_c, 1, 12612
1, 73891, Note_on_c, 0, 98, 0
1, 73891, Note_on_c, 0, 99, 42
1, 73892, Pitch_bend_c, 1, 12482
1, 73893, Pitch_bend_c, 1, 12222
1, 73894, Pitch_bend_c, 1, 12092
1, 73896, Pitch_bend_c, 1, 11962
1, 73897, Pitch_bend_c, 1, 11702
1, 73899, Pitch_bend_c, 1, 11572
1, 73900, Pitch_bend_c, 1, 11312
1, 73902, Pitch_bend_c, 1, 10922
1, 73903, Pitch_bend_c, 1, 10792
1, 73904, Pitch_bend_c, 1, 10402
1, 73906, Pitch_bend_c, 1, 10142
1, 73907, Pitch_bend_c, 1, 9882
1, 73908, Pitch_bend_c, 1, 9622
1, 73909, Pitch_bend_c, 1, 9232
1, 73910, Note_on_c, 0, 99, 0
1, 73912, Pitch_bend_c, 1, 8842
1, 73913, Note_on_c, 0, 100, 49
1, 73913, Pitch_bend_c, 1, 8192
1, 73914, Pitch_bend_c, 1, 8192
1, 73914, Pitch_bend_c, 1, 8192
1, 73932, Note_on_c, 0, 46, 35
1, 73933, Note_on_c, 0, 100, 0
1, 73933, Note_on_c, 0, 39, 36
1, 73937, Control_c, 0, 64, 0
1, 73938, Note_on_c, 0, 101, 52
1, 73963, Control_c, 0, 64, 127
1, 73971, Note_on_c, 0, 101, 0
1, 73986, Note_on_c, 0, 39, 0
1, 74013, Note_on_c, 0, 46, 0
1, 74025, Note_on_c, 0, 55, 37
1, 74036, Note_on_c, 0, 55, 0
1, 74100, Note_on_c, 0, 77, 39
1, 74102, Note_on_c, 0, 74, 34
1, 74104, Note_on_c, 0, 70, 35
1, 74105, Note_on_c, 0, 65, 30
1, 74106, Note_on_c, 0, 67, 30
1, 74110, Note_on_c, 0, 58, 26
1, 74112, Note_on_c, 1, 39, 49
1, 74135, Note_on_c, 0, 67, 0
1, 74140, Note_on_c, 0, 65, 0
1, 74148, Note_on_c, 0, 70, 0
1, 74157, Note_on_c, 0, 74, 0
1, 74169, Note_on_c, 0, 77, 0
1, 74175, Note_on_c, 0, 74, 43
1, 74177, Note_on_c, 0, 70, 25
1, 74178, Note_on_c, 0, 62, 27
1, 74186, Note_on_c, 0, 67, 18
1, 74228, Note_on_c, 0, 67, 0
1, 74228, Note_on_c, 0, 70, 0
1, 74265, Note_on_c, 0, 62, 0
1, 74268, Note_on_c, 0, 58, 0
1, 74286, Note_on_c, 0, 70, 39
1, 74298, Note_on_c, 0, 74, 0
1, 74305, Note_on_c, 0, 70, 0
1, 74405, Note_on_c, 0, 68, 33
1, 74407, Note_on_c, 0, 63, 31
1, 74408, Note_on_c, 0, 72, 31
1, 74408, Note_on_c, 0, 75, 33
1, 74408, Note_on_c, 0, 58, 29
1, 74415, Note_on_c, 0, 60, 28
1, 74416, Control_c, 0, 64, 0
1, 74435, Control_c, 0, 64, 127
1, 74476, Note_on_c, 1, 58, 0
1, 74479, Note_on_c, 0, 72, 0
1, 74479, Note_on_c, 0, 82, 52
1, 74492, Note_on_c, 0, 75, 0
1, 74508, Note_on_c, 0, 82, 0
1, 74514, Note_on_c, 0, 68, 0
1, 74514, Note_on_c, 1, 58, 52
1, 74538, Note_on_c, 1, 58, 0
1, 74544, Note_on_c, 0, 60, 0
1, 74583, Note_on_c, 1, 58, 57
1, 74585, Note_on_c, 0, 70, 63
1, 74650, Note_on_c, 0, 82, 45
1, 74656, Note_on_c, 0, 75, 37
1, 74660, Note_on_c, 0, 71, 17
1, 74694, Note_on_c, 0, 58, 0
1, 74719, Note_on_c, 0, 70, 0
1, 74729, Note_on_c, 0, 75, 0
1, 74731, Note_on_c, 0, 71, 0
1, 74747, Note_on_c, 0, 82, 0
1, 74752, Note_on_c, 0, 63, 0
1, 74757, Note_on_c, 0, 58, 26
1, 74777, Note_on_c, 0, 58, 0
1, 74822, Note_on_c, 1, 39, 0
1, 74827, Note_on_c, 1, 51, 49
1, 74879, Note_on_c, 0, 79, 28
1, 74884, Note_on_c, 0, 39, 28
1, 74886, Note_on_c, 0, 67, 24
1, 74887, Note_on_c, 0, 74, 17
1, 74887, Note_on_c, 0, 46, 23
1, 74888, Note_on_c, 1, 39, 46
1, 74903, Note_on_c, 1, 51, 0
1, 74920, Note_on_c, 0, 74, 0
1, 74922, Note_on_c, 0, 79, 0
1, 74939, Note_on_c, 0, 67, 0
1, 74974, Note_on_c, 0, 39, 0
1, 74985, Note_on_c, 0, 46, 0
1, 75020, Note_on_c, 1, 58, 0
1, 75064, Note_on_c, 0, 62, 36
1, 75066, Note_on_c, 0, 53, 33
1, 75066, Note_on_c, 0, 39, 33
1, 75067, Note_on_c, 0, 58, 32
1, 75068, Note_on_c, 0, 55, 36
1, 75070, Note_on_c, 0, 46, 21
1, 75079, Note_on_c, 0, 53, 0
1, 75082, Note_on_c, 0, 55, 0
1, 75083, Control_c, 0, 64, 0
1, 75086, Note_on_c, 0, 46, 0
1, 75089, Note_on_c, 0, 58, 0
1, 75090, Note_on_c, 0, 39, 0
1, 75091, Note_on_c, 0, 62, 0
1, 75135, Note_on_c, 0, 62, 32
1, 75136, Note_on_c, 0, 39, 32
1, 75136, Note_on_c, 0, 58, 28
1, 75140, Note_on_c, 0, 55, 28
1, 75142, Note_on_c, 0, 46, 23
1, 75151, Note_on_c, 0, 55, 0
1, 75157, Note_on_c, 0, 62, 0
1, 75158, Note_on_c, 0, 58, 0
1, 75158, Note_on_c, 0, 46, 0
1, 75159, Note_on_c, 0, 39, 0
1, 75190, Note_on_c, 1, 39, 0
1, 75196, Note_on_c, 1, 46, 55
1, 75256, Note_on_c, 0, 62, 27
1, 75257, Note_on_c, 0, 46, 25
1, 75258, Note_on_c, 0, 58, 23
1, 75259, Note_on_c, 0, 39, 23
1, 75263, Control_c, 0, 64, 127
1, 75263, Note_on_c, 0, 55, 24
1, 75263, Note_on_c, 0, 53, 18
1, 75319, Note_on_c, 0, 55, 0
1, 75321, Note_on_c, 0, 53, 0
1, 75325, Note_on_c, 0, 39, 0
1, 75336, Note_on_c, 0, 46, 0
1, 75347, Note_on_c, 0, 62, 0
1, 75348, Note_on_c, 0, 58, 0
1, 75422, Pitch_bend_c, 1, 8192
1, 75427, Pitch_bend_c, 1, 8192
1, 75433, Pitch_bend_c, 1, 8192
1, 75440, Pitch_bend_c, 1, 8192
1, 75445, Pitch_bend_c, 1, 8712
1, 75452, Pitch_bend_c, 1, 8842
1, 75456, Pitch_bend_c, 1, 8972
1, 75461, Pitch_bend_c, 1, 9102
1, 75467, Pitch_bend_c, 1, 9232
1, 75472, Pitch_bend_c, 1, 9362
1, 75477, Pitch_bend_c, 1, 9492
1, 75481, Pitch_bend_c, 1, 9622
1, 75486, Pitch_bend_c, 1, 9752
1, 75490, Pitch_bend_c, 1, 9882
1, 75494, Pitch_bend_c, 1, 10012
1, 75498, Pitch_bend_c, 1, 10142
1, 75503, Pitch_bend_c, 1, 10272
1, 75507, Pitch_bend_c, 1, 10402
1, 75512, Pitch_bend_c, 1, 10532
1, 75517, Pitch_bend_c, 1, 10662
1, 75523, Pitch_bend_c, 1, 10792
1, 75532, Pitch_bend_c, 1, 10922
1, 75540, Note_on_c, 0, 70, 46
1, 75542, Note_on_c, 0, 59, 41
1, 75544, Note_on_c, 0, 63, 44
1, 75544, Note_on_c, 0, 66, 44
1, 75544, Note_on_c, 0, 58, 38
1, 75544, Pitch_bend_c, 1, 11052
1, 75552, Control_c, 0, 64, 0
1, 75554, Note_on_c, 0, 59, 0
1, 75555, Note_on_c, 0, 63, 0
1, 75557, Note_on_c, 0, 70, 0
1, 75558, Note_on_c, 0, 58, 0
1, 75559, Note_on_c, 0, 66, 0
1, 75598, Pitch_bend_c, 1, 10922
1, 75604, Pitch_bend_c, 1, 10792
1, 75606, Pitch_bend_c, 1, 10662
1, 75608, Pitch_bend_c, 1, 10532
1, 75609, Note_on_c, 0, 70, 36
1, 75609, Pitch_bend_c, 1, 10402
1, 75610, Control_c, 0, 64, 127
1, 75610, Note_on_c, 0, 59, 32
1, 75610, Note_on_c, 0, 63, 31
1, 75611, Note_on_c, 0, 66, 32
1, 75612, Pitch_bend_c, 1, 10272
1, 75614, Pitch_bend_c, 1, 10142
1, 75615, Note_on_c, 0, 58, 25
1, 75615, Pitch_bend_c, 1, 10012
1, 75616, Pitch_bend_c, 1, 9882
1, 75618, Pitch_bend_c, 1, 9752
1, 75619, Pitch_bend_c, 1, 9492
1, 75620, Pitch_bend_c, 1, 9362
1, 75622, Pitch_bend_c, 1, 9102
1, 75623, Pitch_bend_c, 1, 8972
1, 75625, Pitch_bend_c, 1, 8712
1, 75626, Pitch_bend_c, 1, 8192
1, 75626, Pitch_bend_c, 1, 8192
1, 75629, Pitch_bend_c, 1, 8192
1, 75685, Pitch_bend_c, 1, 8192
1, 75686, Note_on_c, 0, 59, 0
1, 75688, Note_on_c, 0, 66, 0
1, 75688, Note_on_c, 0, 63, 0
1, 75688, Pitch_bend_c, 1, 8192
1, 75691, Pitch_bend_c, 1, 8192
1, 75691, Pitch_bend_c, 1, 8842
1, 75692, Pitch_bend_c, 1, 8972
1, 75694, Note_on_c, 0, 58, 0
1, 75694, Pitch_bend_c, 1, 9232
1, 75695, Pitch_bend_c, 1, 9362
1, 75697, Pitch_bend_c, 1, 9492
1, 75697, Pitch_bend_c, 1, 9752
1, 75700, Pitch_bend_c, 1, 9882
1, 75701, Pitch_bend_c, 1, 10012
1, 75702, Pitch_bend_c, 1, 10142
1, 75704, Pitch_bend_c, 1, 10272
1, 75705, Pitch_bend_c, 1, 10402
1, 75707, Pitch_bend_c, 1, 10532
1, 75707, Pitch_bend_c, 1, 10662
1, 75710, Pitch_bend_c, 1, 10792
1, 75715, Pitch_bend_c, 1, 10922
1, 75726, Pitch_bend_c, 1, 10792
1, 75727, Pitch_bend_c, 1, 10662
1, 75729, Pitch_bend_c, 1, 10532
1, 75731, Pitch_bend_c, 1, 10402
1, 75732, Pitch_bend_c, 1, 10272
1, 75734, Pitch_bend_c, 1, 10142
1, 75735, Pitch_bend_c, 1, 9882
1, 75736, Pitch_bend_c, 1, 9752
1, 75737, Pitch_bend_c, 1, 9492
1, 75739, Pitch_bend_c, 1, 9232
1, 75740, Pitch_bend_c, 1, 9102
1, 75742, Pitch_bend_c, 1, 8842
1, 75744, Pitch_bend_c, 1, 8192
1, 75744, Pitch_bend_c, 1, 8192
1, 75745, Pitch_bend_c, 1, 8192
1, 75746, Pitch_bend_c, 1, 8192
1, 75749, Note_on_c, 0, 70, 0
1, 75778, Note_on_c, 0, 68, 40
1, 75782, Note_on_c, 0, 59, 20
1, 75784, Note_on_c, 0, 63, 25
1, 75794, Pitch_bend_c, 1, 8192
1, 75795, Note_on_c, 0, 59, 0
1, 75797, Pitch_bend_c, 1, 8712
1, 75798, Pitch_bend_c, 1, 8972
1, 75800, Pitch_bend_c, 1, 9232
1, 75802, Pitch_bend_c, 1, 9492
1, 75803, Pitch_bend_c, 1, 9752
1, 75804, Pitch_bend_c, 1, 10012
1, 75805, Note_on_c, 0, 68, 0
1, 75806, Pitch_bend_c, 1, 10272
1, 75807, Pitch_bend_c, 1, 10402
1, 75808, Pitch_bend_c, 1, 10792
1, 75810, Pitch_bend_c, 1, 10922
1, 75811, Pitch_bend_c, 1, 11052
1, 75813, Pitch_bend_c, 1, 11312
1, 75814, Note_on_c, 0, 63, 0
1, 75814, Pitch_bend_c, 1, 11442
1, 75817, Pitch_bend_c, 1, 11572
1, 75827, Pitch_bend_c, 1, 11442
1, 75828, Pitch_bend_c, 1, 11312
1, 75830, Pitch_bend_c, 1, 10922
1, 75831, Pitch_bend_c, 1, 10792
1, 75832, Pitch_bend_c, 1, 10402
1, 75834, Pitch_bend_c, 1, 10142
1, 75835, Pitch_bend_c, 1, 9882
1, 75837, Pitch_bend_c, 1, 9362
1, 75838, Pitch_bend_c, 1, 8972
1, 75840, Pitch_bend_c, 1, 8192
1, 75840, Pitch_bend_c, 1, 8192
1, 75847, Note_on_c, 0, 62, 34
1, 75851, Note_on_c, 0, 69, 34
1, 75854, Note_on_c, 0, 39, 29
1, 75855, Note_on_c, 0, 57, 30
1, 75856, Note_on_c, 0, 55, 34
1, 75858, Note_on_c, 0, 46, 25
1, 75860, Control_c, 0, 64, 0
1, 75920, Control_c, 0, 64, 127
1, 75957, Note_on_c, 1, 39, 47
1, 75959, Note_on_c, 0, 55, 0
1, 75967, Note_on_c, 0, 57, 0
1, 75975, Note_on_c, 0, 39, 0
1, 75979, Note_on_c, 0, 62, 0
1, 75987, Note_on_c, 0, 46, 0
1, 75994, Note_on_c, 0, 69, 0
1, 76004, Control_c, 0, 64, 0
1, 76029, Note_on_c, 0, 39, 32
1, 76030, Note_on_c, 0, 62, 27
1, 76031, Note_on_c, 0, 46, 26
1, 76032, Note_on_c, 0, 57, 24
1, 76033, Note_on_c, 0, 55, 24
1, 76042, Note_on_c, 0, 55, 0
1, 76044, Note_on_c, 0, 57, 0
1, 76046, Note_on_c, 0, 39, 0
1, 76047, Note_on_c, 0, 46, 0
1, 76048, Note_on_c, 0, 62, 0
1, 76094, Note_on_c, 0, 62, 35
1, 76096, Note_on_c, 0, 57, 22
1, 76097, Note_on_c, 0, 55, 25
1, 76097, Note_on_c, 0, 46, 25
1, 76098, Note_on_c, 0, 39, 23
1, 76106, Note_on_c, 0, 55, 0
1, 76107, Note_on_c, 0, 57, 0
1, 76110, Note_on_c, 0, 39, 0
1, 76112, Note_on_c, 0, 62, 0
1, 76113, Note_on_c, 0, 46, 0
1, 76157, Note_on_c, 1, 46, 0
1, 76164, Note_on_c, 1, 51, 35
1, 76208, Note_on_c, 0, 62, 28
1, 76209, Note_on_c, 0, 46, 27
1, 76209, Note_on_c, 0, 55, 36
1, 76210, Note_on_c, 0, 57, 30
1, 76214, Note_on_c, 0, 39, 25
1, 76227, Control_c, 0, 64, 127
1, 76278, Note_on_c, 0, 55, 0
1, 76279, Note_on_c, 0, 57, 0
1, 76280, Note_on_c, 0, 39, 0
1, 76293, Note_on_c, 0, 46, 0
1, 76305, Note_on_c, 0, 62, 0
1, 76358, Note_on_c, 1, 39, 0
1, 76386, Control_c, 0, 64, 0
1, 76387, Note_on_c, 0, 59, 36
1, 76390, Note_on_c, 0, 61, 29
1, 76391, Note_on_c, 1, 39, 39
1, 76398, Note_on_c, 0, 61, 0
1, 76399, Note_on_c, 0, 59, 0
1, 76495, Control_c, 0, 64, 127
1, 76540, Control_c, 0, 64, 0
1, 76558, Note_on_c, 0, 59, 31
1, 76560, Control_c, 0, 64, 127
1, 76560, Note_on_c, 0, 56, 23
1, 76560, Note_on_c, 0, 46, 23
1, 76561, Note_on_c, 0, 66, 26
1, 76562, Note_on_c, 0, 61, 33
1, 76562, Note_on_c, 0, 63, 34
1, 76590, Note_on_c, 0, 56, 0
1, 76609, Note_on_c, 0, 46, 0
1, 76630, Note_on_c, 1, 46, 48
1, 76631, Note_on_c, 0, 59, 0
1, 76642, Note_on_c, 1, 51, 0
1, 76690, Note_on_c, 0, 63, 0
1, 76691, Note_on_c, 0, 61, 0
1, 76697, Note_on_c, 0, 66, 0
1, 76754, Note_on_c, 1, 39, 0
1, 76810, Note_on_c, 0, 39, 20
1, 76812, Note_on_c, 0, 60, 31
1, 76812, Note_on_c, 0, 27, 28
1, 76813, Note_on_c, 0, 55, 24
1, 76815, Note_on_c, 0, 62, 24
1, 76816, Note_on_c, 1, 39, 50
1, 76825, Note_on_c, 1, 46, 0
1, 76827, Control_c, 0, 64, 0
1, 76889, Control_c, 0, 64, 127
1, 77034, Note_on_c, 0, 55, 0
1, 77046, Note_on_c, 0, 60, 0
1, 77047, Note_on_c, 0, 62, 0
1, 77087, Note_on_c, 0, 27, 0
1, 77094, Note_on_c, 0, 39, 0
1, 77314, Note_on_c, 1, 39, 0
1, 77519, Control_c, 0, 64, 0
1, 77519, End_track
0, 0, End_of_file
